<svg xmlns="http://www.w3.org/2000/svg" viewBox="0 0 854.56 935.13" width="854.56" height="935.13"><defs><style>.a09aec8f-1ce4-4ccc-8793-3f7db978bfd4,.a698344e-d212-430c-8297-5dba54a8cfee,.b1c719d9-6424-4f97-9413-96ab7a44d8b8,.b2695ee0-9f1c-42cd-bc10-16f30c176dc6,.b36edaec-67a8-49f3-b081-e5093e45b8cb,.b50327c2-c7ae-41b1-bb07-2705351aecf1{fill:none;stroke-miterlimit:10}.b1c719d9-6424-4f97-9413-96ab7a44d8b8{stroke:#231f20}.b36edaec-67a8-49f3-b081-e5093e45b8cb{stroke:#ec1c24}.be5105b1-7518-4b25-9ac6-8bae8658ce4c{fill:#6d6e70}.fd5d0dd4-1d39-46e7-9845-1159088a12a8{fill:#b2b3b3}.b2695ee0-9f1c-42cd-bc10-16f30c176dc6{stroke:#969696}.a698344e-d212-430c-8297-5dba54a8cfee,.b50327c2-c7ae-41b1-bb07-2705351aecf1{stroke:#c8c8c8;stroke-width:.5px}.a698344e-d212-430c-8297-5dba54a8cfee{stroke-dasharray:7.95 7.95}.a09aec8f-1ce4-4ccc-8793-3f7db978bfd4{stroke:#b2b3b3}.a949ea42-e9ba-44e0-8add-e5a1b5956020{fill:#2997ff}.e28a8db6-0000-48f0-93ff-7f8a509516fe{fill:#fff}</style></defs><g id="e7e0a40d-72f8-4c60-83b9-2b8b789d16a4"><g id="a3740d23-fb51-4ca8-a7bd-31da3d6f56ea"><path d="M727.35 19.13v50m-612-50v50m612 816v50m-612-50v50m-62-854h50m-50 792h50m636-792h50m-50 792h50" class="b1c719d9-6424-4f97-9413-96ab7a44d8b8"/><path d="M17.02 163.29h810v630h-810z" class="b36edaec-67a8-49f3-b081-e5093e45b8cb" transform="rotate(90 422.265 477.375)"/><path d="M115.35 81.13h612v792h-612z" class="b1c719d9-6424-4f97-9413-96ab7a44d8b8"/><path d="M762.67 136.29h-3.17v-16.58h3.17zm14.11-9.19v9.19h-3.07v-8.71c0-1.58-.6-2-1.56-2s-1.92.74-2.67 1.92v8.83h-3.07v-12.7h2.66l.24 1.66a4.75 4.75 0 0 1 3.87-2c2.28-.05 3.6 1.38 3.6 3.81zm12.02-2.35l-1.2 1.8a5.79 5.79 0 0 0-3.19-1c-1.22 0-1.92.51-1.92 1.28s.5 1.22 2.66 1.82c2.6.7 4.06 1.75 4.06 4 0 2.64-2.45 4-5.35 4a7.42 7.42 0 0 1-5.07-1.8l1.54-1.73a5.69 5.69 0 0 0 3.46 1.25c1.36 0 2.25-.57 2.25-1.53s-.5-1.4-2.88-2.07c-2.61-.72-3.77-2-3.77-3.84 0-2.11 2-3.69 4.9-3.69a7.12 7.12 0 0 1 4.51 1.51zm6.27-5.75a1.94 1.94 0 1 1-2-1.87 1.85 1.85 0 0 1 2 1.87zm-.39 17.26h-3.07v-12.7h3.07zm14.21-17.75v17.78h-2.71l-.22-1.61a4.22 4.22 0 0 1-3.62 2c-3.17 0-4.83-2.66-4.83-6.69s2-6.72 5.12-6.72a4.42 4.42 0 0 1 3.19 1.36v-6.43zm-3.07 14.18v-5.81a3.06 3.06 0 0 0-2.43-1.34c-1.58 0-2.64 1.34-2.64 4.39 0 3.27.94 4.39 2.45 4.39a3 3 0 0 0 2.62-1.63zm17.06-1.8h-8c.24 2.59 1.44 3.43 3.12 3.43a5.31 5.31 0 0 0 3.17-1.12l1.27 1.75a7.26 7.26 0 0 1-4.7 1.7c-3.94 0-6-2.61-6-6.62s2-6.79 5.64-6.79 5.59 2.39 5.59 6.4c.03.41-.06.92-.09 1.25zm-3-2.14c0-2.08-.75-3.33-2.48-3.33-1.44 0-2.35 1-2.52 3.48h5zm-44.66 36.34h-3.1l-.43-6.93c-.14-2.45-.26-5-.22-6.77l-3 11.9h-3l-3.22-11.93a66.49 66.49 0 0 1-.09 6.89l-.41 6.84h-3.07l1.32-16.58h4.08l3 11.61 2.78-11.61h4.13zm13.22-1.73l-.65 2a2.85 2.85 0 0 1-2.8-1.84 4.38 4.38 0 0 1-3.82 1.89 3.76 3.76 0 0 1-4.08-3.91c0-2.76 2.06-4.25 5.76-4.25h1.61v-.72c0-1.65-.75-2.21-2.38-2.21a11.36 11.36 0 0 0-3.38.68l-.7-2a13.11 13.11 0 0 1 4.59-.92c3.4 0 4.89 1.56 4.89 4.37v5.33c0 .98.34 1.34.96 1.58zm-4-1.7v-2.57h-1.27c-2 0-3 .72-3 2.21a1.68 1.68 0 0 0 1.8 1.92 2.74 2.74 0 0 0 2.49-1.56zm14.25-9.43l-.53 3a4.37 4.37 0 0 0-1.13-.14c-1.53 0-2.32 1.13-2.8 3.26v6.77h-3.08v-12.7h2.67l.29 2.5c.6-1.82 1.82-2.83 3.31-2.83a4.43 4.43 0 0 1 1.27.14zm12.65.84a11.57 11.57 0 0 1-3.67.43 3.35 3.35 0 0 1 2.3 3.26c0 2.48-1.92 4.28-5.11 4.28a4.92 4.92 0 0 1-1.51-.2 1.15 1.15 0 0 0-.53.94c0 .46.26.89 1.53.89h1.95c2.81 0 4.63 1.51 4.63 3.6 0 2.54-2.18 4-6.34 4-4.51 0-5.78-1.44-5.78-4h2.76c0 1.27.55 1.82 3.07 1.82s3.19-.67 3.19-1.68-.74-1.51-2.16-1.51h-1.92c-2.54 0-3.62-1.13-3.62-2.45a2.87 2.87 0 0 1 1.49-2.35 3.69 3.69 0 0 1-2.23-3.58c0-2.76 2.18-4.56 5.25-4.56a10.27 10.27 0 0 0 5.93-1.41zm-8.86 3.48a2.2 2.2 0 0 0 2.26 2.49c1.46 0 2.26-.91 2.26-2.52s-.77-2.4-2.31-2.4a2.16 2.16 0 0 0-2.21 2.43zm14.11-8.72a1.93 1.93 0 1 1-1.94-1.87 1.84 1.84 0 0 1 1.94 1.87zm-.38 17.26h-3.07v-12.7h3.07zm13.97-9.19v9.19h-3.07v-8.71c0-1.59-.6-2-1.56-2s-1.92.74-2.67 1.92v8.83h-3.07v-12.7h2.66l.24 1.66a4.76 4.76 0 0 1 3.87-2c2.28-.09 3.6 1.38 3.6 3.81zm-65.43 18.86a18.72 18.72 0 0 0 0 21.46l-2 1.32c-2.38-3.31-4.56-6.34-4.56-12s2.18-8.74 4.56-12.05zm14.45 14.36c0 3.64-2.9 4.77-6.93 4.77h-5v-16.58h4.35c4.27 0 6.86 1.2 6.86 4.22a3.63 3.63 0 0 1-3.07 3.58c1.9.36 3.79 1.24 3.79 4.01zm-8.76-9.49v4.49h1.95c1.72 0 2.85-.77 2.85-2.33s-1.15-2.16-3.31-2.16zm5.45 9.37c0-2-1.42-2.67-3.26-2.67h-2.19v5.19h1.85c2.09 0 3.6-.44 3.6-2.52zm9.41-12.37a1.94 1.94 0 1 1-1.95-1.87 1.84 1.84 0 0 1 1.95 1.87zm-.39 17.26h-3.07v-12.7h3.07zm13.97-9.19v9.19h-3.07v-8.71c0-1.59-.6-2-1.56-2s-1.92.74-2.67 1.92v8.83h-3.07v-12.7h2.67l.24 1.66a4.73 4.73 0 0 1 3.86-2c2.28-.06 3.6 1.38 3.6 3.81zm14.12-8.59v17.78h-2.72l-.21-1.61a4.23 4.23 0 0 1-3.63 2c-3.16 0-4.82-2.66-4.82-6.7s2-6.72 5.11-6.72a4.41 4.41 0 0 1 3.19 1.37v-6.43zm-3.08 14.18v-5.81a3.05 3.05 0 0 0-2.42-1.34c-1.58 0-2.64 1.34-2.64 4.39 0 3.26.94 4.39 2.45 4.39a3 3 0 0 0 2.56-1.63zM820 176.63a1.93 1.93 0 1 1-1.94-1.87 1.84 1.84 0 0 1 1.94 1.87zm-.38 17.26h-3.08v-12.7h3.08zm13.97-9.19v9.19h-3.08v-8.71c0-1.59-.6-2-1.56-2s-1.92.74-2.66 1.92v8.83h-3.07v-12.7h2.66l.24 1.66a4.76 4.76 0 0 1 3.87-2c2.28-.06 3.6 1.38 3.6 3.81zm14.54-2.83a11.57 11.57 0 0 1-3.67.43 3.35 3.35 0 0 1 2.3 3.26c0 2.48-1.92 4.27-5.11 4.27a4.93 4.93 0 0 1-1.51-.19 1.15 1.15 0 0 0-.53.94c0 .46.26.89 1.53.89h2c2.81 0 4.63 1.51 4.63 3.6 0 2.54-2.18 4.05-6.34 4.05-4.51 0-5.78-1.44-5.78-4h2.76c0 1.27.55 1.82 3.07 1.82s3.19-.67 3.19-1.68-.74-1.51-2.16-1.51h-1.92c-2.54 0-3.62-1.13-3.62-2.45a2.87 2.87 0 0 1 1.49-2.35 3.69 3.69 0 0 1-2.23-3.58c0-2.76 2.18-4.56 5.25-4.56a10.27 10.27 0 0 0 5.93-1.41zm-8.86 3.48a2.2 2.2 0 0 0 2.26 2.49c1.46 0 2.26-.91 2.26-2.52s-.77-2.4-2.31-2.4a2.16 2.16 0 0 0-2.21 2.43zm15.96.14c0 5.71-2.16 8.74-4.56 12l-1.94-1.32a18.72 18.72 0 0 0 0-21.46l1.94-1.32c2.4 3.36 4.56 6.39 4.56 12.1z" class="be5105b1-7518-4b25-9ac6-8bae8658ce4c" transform="translate(-.67 -1.16)"/><path d="M207.15 842.78h-1.77V837l-1.71 1-.79-1.21 2.66-1.55h1.61zm7.76-8.02l-7.37 14.39-1.39-.69 7.37-14.38zm3.5 10.34a2.7 2.7 0 0 1-2.84 2.77c-2.11 0-3-1.48-3-3.64 0-2.57 1.3-4.26 3.42-4.26a3.15 3.15 0 0 1 1.78.5l-.64 1.08a2.32 2.32 0 0 0-1.1-.3c-.92 0-1.5.73-1.59 2.08a2.35 2.35 0 0 1 1.7-.72 2.23 2.23 0 0 1 2.27 2.49zm-1.81 0c0-1-.35-1.3-1-1.3a1.56 1.56 0 0 0-1.17.58c0 1.56.31 2.17 1.1 2.17s1.07-.55 1.07-1.43zm-72.81-656.03H142v-5.82l-1.71 1-.79-1.21 2.66-1.55h1.61zm7.76-8.01l-7.37 14.38-1.39-.68 7.37-14.39zm3.5 10.33a2.7 2.7 0 0 1-2.84 2.77c-2.11 0-3-1.47-3-3.63 0-2.58 1.3-4.27 3.42-4.27a3.15 3.15 0 0 1 1.78.5l-.64 1.08a2.32 2.32 0 0 0-1.1-.3c-.92 0-1.5.74-1.59 2.09a2.31 2.31 0 0 1 1.7-.72 2.22 2.22 0 0 1 2.27 2.48zm-1.81 0c0-1-.35-1.3-1-1.3a1.56 1.56 0 0 0-1.17.58c0 1.56.31 2.18 1.1 2.18s1.07-.56 1.07-1.44zm-8.43 107.9c0 1.15-.66 2-3.11 4.11h3.3l-.19 1.38h-5.11v-1.28c2.65-2.48 3.28-3.17 3.28-4.05a.93.93 0 0 0-1-1 1.81 1.81 0 0 0-1.46.78l-1.06-.85a3.35 3.35 0 0 1 2.7-1.31c1.7.01 2.65 1.01 2.65 2.22zm6.74-2.48l-7.37 14.38-1.39-.68 7.37-14.39zm3.5 10.33a2.7 2.7 0 0 1-2.84 2.77c-2.11 0-3-1.47-3-3.63 0-2.58 1.3-4.27 3.42-4.27a3.15 3.15 0 0 1 1.78.5l-.64 1.08a2.32 2.32 0 0 0-1.1-.3c-.92 0-1.5.74-1.59 2.09a2.31 2.31 0 0 1 1.7-.72 2.22 2.22 0 0 1 2.27 2.48zm-1.81 0c0-1-.35-1.3-1-1.3a1.56 1.56 0 0 0-1.17.58c0 1.56.31 2.18 1.1 2.18s1.07-.6 1.07-1.44zm-8.45 107.67a1.81 1.81 0 0 0 .28 3.6c0 1.28-1.08 2.36-3 2.36a3.45 3.45 0 0 1-2.7-1.16l1-.95a2.07 2.07 0 0 0 1.58.72c.74 0 1.26-.38 1.26-1.08s-.47-1.06-1.31-1.06h-.65l.22-1.23h.43c.7 0 1.15-.34 1.15-.95s-.41-.87-1.06-.87a2.36 2.36 0 0 0-1.55.65l-.9-.95a3.74 3.74 0 0 1 2.65-1c1.69-.03 2.6.84 2.6 1.92zm6.76-2.25l-7.37 14.38-1.39-.68 7.37-14.39zm3.5 10.33a2.7 2.7 0 0 1-2.84 2.77c-2.11 0-3-1.47-3-3.63 0-2.58 1.3-4.27 3.42-4.27a3.15 3.15 0 0 1 1.78.5l-.64 1.08a2.32 2.32 0 0 0-1.1-.3c-.92 0-1.5.74-1.59 2.09a2.31 2.31 0 0 1 1.7-.72 2.22 2.22 0 0 1 2.27 2.48zm-1.81 0c0-1-.35-1.3-1-1.3a1.56 1.56 0 0 0-1.17.58c0 1.56.31 2.18 1.1 2.18s1.07-.56 1.07-1.44zm-8.03 111.81h-.9v1.62h-1.71v-1.62h-3.4v-1.21l2.25-4.88 1.51.56-1.91 4.2h1.57l.27-1.79h1.44v1.79h.9zm6.34-6.39l-7.37 14.38-1.39-.68 7.37-14.39zm3.5 10.33a2.7 2.7 0 0 1-2.84 2.77c-2.11 0-3-1.47-3-3.63 0-2.58 1.3-4.27 3.42-4.27a3.15 3.15 0 0 1 1.78.5l-.64 1.08a2.32 2.32 0 0 0-1.1-.3c-.92 0-1.5.74-1.59 2.09a2.31 2.31 0 0 1 1.7-.72 2.22 2.22 0 0 1 2.27 2.48zm-1.81 0c0-1-.35-1.3-1-1.3a1.56 1.56 0 0 0-1.17.58c0 1.56.31 2.18 1.1 2.18s1.07-.56 1.07-1.44zm-8.75 107.14h-2.94v1.59a3 3 0 0 1 1.23-.27 2.23 2.23 0 0 1 2.27 2.47c0 1.6-1.21 2.7-3.08 2.7a3.37 3.37 0 0 1-2.63-1.16l1-1a1.89 1.89 0 0 0 1.52.74 1.18 1.18 0 0 0 1.29-1.33c0-.94-.47-1.25-1.11-1.25a1.89 1.89 0 0 0-1 .27h-1.26v-4.07h4.83zm7.06-1.72l-7.37 14.38-1.39-.68 7.37-14.39zm3.5 10.33a2.7 2.7 0 0 1-2.84 2.77c-2.11 0-3-1.47-3-3.63 0-2.58 1.3-4.27 3.42-4.27a3.15 3.15 0 0 1 1.78.5l-.64 1.08a2.32 2.32 0 0 0-1.1-.3c-.92 0-1.5.74-1.59 2.09a2.31 2.31 0 0 1 1.7-.72 2.22 2.22 0 0 1 2.27 2.48zm-1.81 0c0-1-.35-1.3-1-1.3a1.56 1.56 0 0 0-1.17.58c0 1.56.31 2.18 1.1 2.18s1.07-.56 1.07-1.44zm-8.12 110.85a2.71 2.71 0 0 1-2.85 2.78c-2.1 0-3-1.48-3-3.64 0-2.57 1.29-4.27 3.42-4.27a3.08 3.08 0 0 1 1.78.51l-.65 1.08a2.27 2.27 0 0 0-1.1-.31c-.92 0-1.49.74-1.58 2.09a2.33 2.33 0 0 1 1.69-.72 2.22 2.22 0 0 1 2.29 2.48zm-1.82 0c0-1-.34-1.29-1-1.29a1.53 1.53 0 0 0-1.17.57c0 1.57.3 2.18 1.09 2.18s1.08-.56 1.08-1.44zm8.25-5.43l-7.37 14.38-1.39-.68 7.37-14.39zm3.5 10.33a2.7 2.7 0 0 1-2.84 2.78c-2.11 0-3-1.48-3-3.64 0-2.58 1.3-4.27 3.42-4.27a3.15 3.15 0 0 1 1.78.5l-.64 1.08a2.44 2.44 0 0 0-1.1-.3c-.92 0-1.5.74-1.59 2.09a2.31 2.31 0 0 1 1.7-.72 2.22 2.22 0 0 1 2.27 2.48zm-1.81 0c0-1-.35-1.3-1-1.3a1.56 1.56 0 0 0-1.17.58c0 1.56.31 2.18 1.1 2.18s1.07-.6 1.07-1.44zM294 837.25c0 1.15-.67 2-3.11 4.1h3.27l-.18 1.39h-5.11v-1.28c2.65-2.48 3.28-3.17 3.28-4.05a.93.93 0 0 0-1-1 1.8 1.8 0 0 0-1.46.77l-1.06-.84a3.35 3.35 0 0 1 2.7-1.32c1.67-.02 2.67.98 2.67 2.23zm6.7-2.49l-7.36 14.39-1.39-.69 7.37-14.38zm3.51 10.34a2.7 2.7 0 0 1-2.84 2.77c-2.11 0-3-1.48-3-3.64 0-2.57 1.29-4.26 3.42-4.26a3.15 3.15 0 0 1 1.78.5l-.65 1.08a2.25 2.25 0 0 0-1.09-.3c-.92 0-1.5.73-1.59 2.08a2.33 2.33 0 0 1 1.69-.72 2.23 2.23 0 0 1 2.28 2.49zm-1.82 0c0-1-.34-1.3-.95-1.3a1.56 1.56 0 0 0-1.17.58c0 1.56.31 2.17 1.1 2.17s1.02-.55 1.02-1.43zm75.36-8.1a1.81 1.81 0 0 0 .27 3.6c0 1.28-1.08 2.36-3 2.36a3.44 3.44 0 0 1-2.7-1.15l1-1a2.1 2.1 0 0 0 1.59.72c.74 0 1.26-.38 1.26-1.08s-.47-1.07-1.32-1.07h-.64l.21-1.22h.43c.71 0 1.16-.34 1.16-1s-.42-.87-1.07-.87a2.33 2.33 0 0 0-1.54.65l-.9-.95a3.72 3.72 0 0 1 2.64-1c1.69.08 2.61.94 2.61 2.01zm6.75-2.24l-7.36 14.39-1.39-.69 7.36-14.38zm3.5 10.34a2.7 2.7 0 0 1-2.84 2.77c-2.11 0-3-1.48-3-3.64 0-2.57 1.29-4.26 3.42-4.26a3.15 3.15 0 0 1 1.78.5l-.65 1.08a2.26 2.26 0 0 0-1.1-.3c-.91 0-1.49.73-1.58 2.08a2.33 2.33 0 0 1 1.69-.72 2.23 2.23 0 0 1 2.28 2.49zm-1.82 0c0-1-.34-1.3-.95-1.3a1.56 1.56 0 0 0-1.17.58c0 1.56.3 2.17 1.1 2.17s1.03-.55 1.03-1.43zm75.82-3.94h-.9v1.62h-1.71v-1.62h-3.4V840l2.25-4.88 1.51.56-1.9 4.19h1.56l.27-1.78h1.44v1.78h.9zm6.3-6.4l-7.36 14.39-1.39-.69 7.36-14.38zm3.51 10.34a2.7 2.7 0 0 1-2.85 2.77c-2.1 0-3-1.48-3-3.64 0-2.57 1.29-4.26 3.42-4.26a3.18 3.18 0 0 1 1.78.5l-.65 1.08a2.26 2.26 0 0 0-1.1-.3c-.92 0-1.49.73-1.58 2.08a2.33 2.33 0 0 1 1.69-.72 2.23 2.23 0 0 1 2.29 2.49zm-1.82 0c0-1-.34-1.3-.95-1.3a1.55 1.55 0 0 0-1.17.58c0 1.56.3 2.17 1.09 2.17s1.04-.55 1.04-1.43zm75.01-8.61h-2.93v1.59a2.92 2.92 0 0 1 1.22-.27 2.23 2.23 0 0 1 2.27 2.46c0 1.61-1.21 2.7-3.08 2.7a3.36 3.36 0 0 1-2.63-1.15l1.05-1a1.89 1.89 0 0 0 1.51.74 1.19 1.19 0 0 0 1.3-1.34c0-.93-.47-1.24-1.12-1.24a1.92 1.92 0 0 0-1 .27h-1.26v-4.07h4.83zm7.1-1.73l-7.37 14.39-1.38-.69 7.36-14.38zm3.51 10.34a2.7 2.7 0 0 1-2.85 2.77c-2.1 0-3-1.48-3-3.64 0-2.57 1.3-4.26 3.42-4.26a3.19 3.19 0 0 1 1.79.5l-.65 1.08a2.29 2.29 0 0 0-1.1-.3c-.92 0-1.49.73-1.58 2.08a2.33 2.33 0 0 1 1.69-.72 2.24 2.24 0 0 1 2.28 2.49zm-1.82 0c0-1-.34-1.3-1-1.3a1.58 1.58 0 0 0-1.17.58c0 1.56.31 2.17 1.1 2.17s1.07-.55 1.07-1.43zm77.68-4.9a2.7 2.7 0 0 1-2.85 2.77c-2.1 0-3-1.47-3-3.63 0-2.58 1.29-4.27 3.42-4.27a3.18 3.18 0 0 1 1.78.5l-.65 1.08a2.26 2.26 0 0 0-1.1-.3c-.92 0-1.49.74-1.58 2.09a2.29 2.29 0 0 1 1.69-.72 2.22 2.22 0 0 1 2.29 2.48zm-1.82 0c0-1-.34-1.3-.95-1.3a1.55 1.55 0 0 0-1.17.58c0 1.56.3 2.18 1.09 2.18s1.03-.56 1.03-1.44zm8.25-5.44l-7.37 14.39-1.39-.69 7.37-14.38zm3.5 10.34a2.7 2.7 0 0 1-2.84 2.77c-2.11 0-3-1.48-3-3.64 0-2.57 1.3-4.26 3.42-4.26a3.15 3.15 0 0 1 1.78.5l-.64 1.08a2.32 2.32 0 0 0-1.1-.3c-.92 0-1.5.73-1.59 2.08a2.35 2.35 0 0 1 1.7-.72 2.23 2.23 0 0 1 2.27 2.49zm-1.81 0c0-1-.35-1.3-1-1.3a1.56 1.56 0 0 0-1.17.58c0 1.56.31 2.17 1.1 2.17s1.07-.55 1.07-1.43z" class="fd5d0dd4-1d39-46e7-9845-1159088a12a8" transform="translate(-.67 -1.16)"/><path d="M136.87 14.8c0 3.38-2.26 5.85-5.52 5.85-4.13 0-5.83-3.19-5.83-7.82 0-5.4 2.52-9 6.62-9a6.29 6.29 0 0 1 3.53 1l-1.15 1.9a4.51 4.51 0 0 0-2.33-.65c-2 0-3.34 2-3.5 5.19a4.5 4.5 0 0 1 3.62-1.78c2.52.05 4.56 1.87 4.56 5.31zm-3.1 0c0-2.3-.83-3.07-2.2-3.07a3.63 3.63 0 0 0-2.86 1.66c0 3.45.79 4.94 2.64 4.94 1.65.04 2.42-1.33 2.42-3.49zm5.12-3.24h7.25V14h-7.25zm21.6-6.46L158.88 7a4.77 4.77 0 0 0-3.07-1.18c-2.31 0-4.08 1.68-4.08 6.17s1.72 6.15 4.08 6.15a5.37 5.37 0 0 0 3.38-1.35l1.49 1.88a7 7 0 0 1-5 2c-4.3 0-7.3-3-7.3-8.69s3.17-8.61 7.25-8.61a7 7 0 0 1 4.86 1.73zm13 8.83c0 4-2.23 6.72-6 6.72s-6-2.54-6-6.72c0-4 2.23-6.69 6-6.69s6 2.54 6 6.69zm-8.71 0c0 3.05.94 4.39 2.74 4.39s2.73-1.36 2.73-4.39-.93-4.37-2.71-4.37-2.76 1.37-2.76 4.37zm11.4 3.46V2.51l3.07-.34v15.12c0 .6.2.89.72.89a2 2 0 0 0 .7-.12l.67 2.16a5.15 5.15 0 0 1-2.06.43c-1.95 0-3.1-1.17-3.1-3.26zm17.38 2.9h-2.66l-.17-1.77a4.28 4.28 0 0 1-3.89 2.13c-2.31 0-3.53-1.49-3.53-3.93V7.59h3.07v8.74c0 1.49.48 2 1.54 2a3.08 3.08 0 0 0 2.57-1.8V7.59h3.07zM214 11.1v9.19h-3.07v-8.71c0-1.58-.62-2-1.39-2-1.06 0-1.71.74-2.4 1.92v8.83h-3.07v-8.75c0-1.58-.65-2-1.4-2-1.08 0-1.72.74-2.42 1.92v8.83h-3.07V7.59h2.66l.24 1.66a4.31 4.31 0 0 1 3.67-2 3.1 3.1 0 0 1 3.08 2.13 4.51 4.51 0 0 1 3.81-2.13c2-.01 3.36 1.45 3.36 3.85zm13.81 0v9.19h-3.08v-8.71c0-1.58-.6-2-1.56-2s-1.92.74-2.66 1.92v8.83h-3.07V7.59h2.66l.24 1.66a4.75 4.75 0 0 1 3.87-2c2.28-.01 3.6 1.42 3.6 3.85zm21.57-5.81l-1.7 1.78a5.13 5.13 0 0 0-3.48-1.32c-2.35 0-4.37 1.77-4.37 6.24s1.34 6.24 3.94 6.24a5.25 5.25 0 0 0 2.64-.65v-4.32h-2.5l-.34-2.35h6V19a11 11 0 0 1-5.72 1.63c-4.72 0-7.32-3-7.32-8.66s3.47-8.62 7.57-8.62a7.64 7.64 0 0 1 5.28 1.94zm10.73 2.14l-.53 3a4.37 4.37 0 0 0-1.13-.14c-1.53 0-2.32 1.13-2.8 3.26v6.77h-3.08V7.59h2.67l.28 2.5c.61-1.82 1.83-2.83 3.32-2.83a4.43 4.43 0 0 1 1.27.17zM265.44 3a1.94 1.94 0 0 1-3.87 0 1.94 1.94 0 0 1 3.87 0zm-.39 17.26H262V7.59h3.07zm14.21-17.75v17.78h-2.71l-.22-1.61a4.21 4.21 0 0 1-3.62 2c-3.17 0-4.82-2.66-4.82-6.69s2-6.72 5.11-6.72a4.42 4.42 0 0 1 3.19 1.36V2.17zm-3.07 14.18v-5.81a3.05 3.05 0 0 0-2.42-1.34c-1.59 0-2.64 1.34-2.64 4.39 0 3.27.93 4.39 2.44 4.39a3 3 0 0 0 2.62-1.63zM129.55 46.5h6.65l-.36 2.59h-9.46V32.51h3.17zm18.63-2.81h-8c.24 2.59 1.44 3.43 3.12 3.43a5.3 5.3 0 0 0 3.19-1.12l1.28 1.75a7.31 7.31 0 0 1-4.71 1.7c-3.93 0-6.05-2.61-6.05-6.62s2-6.8 5.64-6.8 5.6 2.4 5.6 6.41c0 .41-.05.92-.07 1.25zm-3-2.14c0-2.08-.75-3.33-2.47-3.33-1.44 0-2.36 1-2.52 3.48h5zm9.26-6.5v1.34h2.35l-.34 2.21h-2v10.49h-3.07V38.6h-2.08v-2.21h2.07V35c0-2.3 1.53-4 4.46-4a7.76 7.76 0 0 1 2.06.29l-.57 2.21a4.47 4.47 0 0 0-1.18-.17c-1.25-.03-1.7.52-1.7 1.72zm12.17 13.44a5.58 5.58 0 0 1-3.2 1c-2.49 0-3.81-1.44-3.81-4.15V38.6h-2v-2.21h2v-2.8l3.07-.36v3.16h3l-.31 2.21h-2.64v6.63c0 1.25.41 1.75 1.34 1.75a3 3 0 0 0 1.52-.46zm.16-8.13H174v2.44h-7.25zm19.49 1.31h-5.9v7.42h-3.17V32.51h3.17v6.65h5.9v-6.65h3.19v16.58h-3.19zm17.23 5.69l-.64 2a2.86 2.86 0 0 1-2.85-1.8 4.37 4.37 0 0 1-3.82 1.89 3.76 3.76 0 0 1-4.08-3.91c0-2.76 2.07-4.25 5.76-4.25h1.61v-.72c0-1.65-.74-2.21-2.38-2.21a11.42 11.42 0 0 0-3.38.68l-.7-2.09a13.11 13.11 0 0 1 4.59-.92c3.41 0 4.89 1.56 4.89 4.37v5.33c.04 1.03.38 1.39 1 1.63zm-4-1.7v-2.57h-1.27c-2 0-3 .72-3 2.21a1.68 1.68 0 0 0 1.8 1.92 2.74 2.74 0 0 0 2.49-1.56zm17.08-5.76v9.19h-3.07v-8.71c0-1.59-.6-2-1.56-2s-1.92.74-2.66 1.92v8.83h-3.07V36.39h2.66l.24 1.66A4.74 4.74 0 0 1 213 36c2.25 0 3.57 1.47 3.57 3.9zm14.07-8.59v17.78h-2.71l-.22-1.61a4.22 4.22 0 0 1-3.62 2c-3.17 0-4.83-2.66-4.83-6.7s2-6.72 5.11-6.72a4.45 4.45 0 0 1 3.2 1.37V31zm-3.07 14.18v-5.81a3.09 3.09 0 0 0-2.43-1.34c-1.58 0-2.64 1.34-2.64 4.39 0 3.27.94 4.39 2.45 4.39a3 3 0 0 0 2.62-1.63zm24.43-7.7c0 3.81-2.76 5.52-6.51 5.52h-1.94v5.78h-3.17V32.51h4.9c4.17 0 6.72 1.7 6.72 5.28zm-3.31 0c0-2.09-1.28-3-3.44-3h-1.7v6.1h1.7c2.12.04 3.44-.68 3.44-3.1zm15.09 9.57l-.65 2a2.85 2.85 0 0 1-2.8-1.84 4.38 4.38 0 0 1-3.82 1.89 3.76 3.76 0 0 1-4.08-3.91c0-2.76 2.06-4.25 5.76-4.25h1.61v-.72c0-1.65-.75-2.21-2.38-2.21A11.36 11.36 0 0 0 254 39l-.7-2.09a13.11 13.11 0 0 1 4.59-.92c3.4 0 4.89 1.56 4.89 4.37v5.33c.04 1.07.38 1.43 1 1.67zm-4-1.7v-2.57h-1.27c-2 0-3 .72-3 2.21a1.68 1.68 0 0 0 1.8 1.92 2.74 2.74 0 0 0 2.49-1.56zm17.75-8.59a11.57 11.57 0 0 1-3.67.43 3.34 3.34 0 0 1 2.31 3.26c0 2.48-1.92 4.28-5.12 4.28a4.92 4.92 0 0 1-1.51-.2 1.18 1.18 0 0 0-.53.94c0 .46.27.89 1.54.89h1.94c2.81 0 4.64 1.51 4.64 3.6 0 2.54-2.19 4-6.34 4-4.51 0-5.78-1.44-5.78-4h2.76c0 1.27.55 1.82 3.07 1.82s3.19-.67 3.19-1.68-.74-1.41-2.16-1.41H270c-2.55 0-3.63-1.13-3.63-2.45a2.89 2.89 0 0 1 1.49-2.35 3.69 3.69 0 0 1-2.23-3.58c0-2.76 2.19-4.56 5.26-4.56a10.3 10.3 0 0 0 5.93-1.41zm-8.85 3.48a2.2 2.2 0 0 0 2.25 2.45c1.47 0 2.26-.91 2.26-2.52s-.77-2.4-2.3-2.4a2.15 2.15 0 0 0-2.21 2.47zm20.93 3.14h-8c.24 2.59 1.44 3.43 3.12 3.43a5.33 5.33 0 0 0 3.2-1.12l1.27 1.75a7.31 7.31 0 0 1-4.71 1.7c-3.93 0-6-2.61-6-6.62s2-6.8 5.64-6.8 5.59 2.4 5.59 6.41c-.04.41-.09.92-.11 1.25zm-3-2.14c0-2.08-.74-3.33-2.47-3.33-1.44 0-2.35 1-2.52 3.48h5zM303.79 30a16.73 16.73 0 0 0-3.38 10.73 16.77 16.77 0 0 0 3.38 10.73l-2 1.32c-2.37-3.31-4.56-6.34-4.56-12.05s2.19-8.74 4.56-12zm8.28 19.09h-3.72l-2.66-16.58H309l1.61 13.77L316 32.51h3.24zm9.05-4.65c.07 2 1.08 2.64 2.47 2.64a5.46 5.46 0 0 0 3.31-1.18l1.18 1.92a8.25 8.25 0 0 1-4.83 1.63c-3.45 0-5.23-2.06-5.23-5.28 0-3.46 1.8-8.14 6.91-8.14 2.91 0 4.4 1.56 4.4 3.36 0 3.61-4.04 4.61-8.21 5.05zm5.09-4.93a1.27 1.27 0 0 0-1.44-1.29c-2.19 0-3.17 2.14-3.51 4.18 3.41-.32 4.95-1.25 4.95-2.89zm13.65-3.26l-.89 3a4 4 0 0 0-1.05-.14c-1.61 0-2.57 1.51-3.36 3.77l-.89 6.26h-3l1.77-12.7H335l-.1 2.48c.94-1.87 2.23-2.81 3.65-2.81a4.28 4.28 0 0 1 1.31.14zm9.67 1.39l-1.39 1.71a5.18 5.18 0 0 0-3.05-1c-1.32 0-2.06.51-2.06 1.35s.65 1.1 2.5 1.7c2.25.72 3.43 1.83 3.43 3.82 0 2.57-2.16 4.27-5.52 4.27a6.89 6.89 0 0 1-5-2l1.56-1.66a5.21 5.21 0 0 0 3.48 1.32c1.73 0 2.38-.87 2.38-1.63 0-1-.58-1.35-2.6-2-2.3-.75-3.31-1.78-3.31-3.6s1.74-3.92 5.14-3.92a6.59 6.59 0 0 1 4.44 1.64zm1.32 6.46c0-3.36 1.68-8.07 6.84-8.07 3.29 0 5.12 2.07 5.12 5.33s-1.66 8.09-6.84 8.09c-3.29 0-5.12-2.04-5.12-5.35zm8.81-3c0-1.92-.72-2.76-2.14-2.76-2.85 0-3.55 3.82-3.55 6 0 1.92.75 2.78 2.16 2.78 2.87 0 3.53-3.84 3.53-6zm11.52-3.05c0 6.29-2.35 10.06-6.33 14.74L363 51.4c3.5-4.3 5.14-8.43 5.14-13.71a15.13 15.13 0 0 0-2.07-7.85l2-1.17c1.65 2.71 3.11 5.33 3.11 9.38zM15.55 128c0 5.47-2.8 8.66-7.25 8.66S1 133.56 1 128s2.83-8.66 7.27-8.66 7.28 3.1 7.28 8.66zm-11.18 0c0 4.47 1.51 6.22 3.93 6.22s3.92-1.75 3.92-6.24-1.42-6.22-3.92-6.22-3.93 1.79-3.93 6.24zm24.12 8.29h-2.66l-.17-1.77a4.28 4.28 0 0 1-3.89 2.13c-2.31 0-3.53-1.49-3.53-3.93v-9.13h3.07v8.74c0 1.49.48 2 1.54 2a3.08 3.08 0 0 0 2.57-1.8v-8.93h3.07zm10.92-.6a5.54 5.54 0 0 1-3.19 1c-2.5 0-3.82-1.44-3.82-4.15v-6.7h-2v-2.21h2v-2.8l3.07-.36v3.16h3l-.31 2.21h-2.69v6.63c0 1.25.41 1.75 1.35 1.75a2.94 2.94 0 0 0 1.51-.46zm10.25-10.94l-1.2 1.8a5.85 5.85 0 0 0-3.2-1c-1.22 0-1.92.51-1.92 1.28s.51 1.22 2.67 1.82c2.59.7 4.06 1.75 4.06 4 0 2.64-2.45 4-5.36 4a7.39 7.39 0 0 1-5.06-1.8l1.53-1.73a5.72 5.72 0 0 0 3.46 1.25c1.37 0 2.26-.57 2.26-1.53s-.51-1.4-2.88-2.07c-2.62-.72-3.77-2-3.77-3.84 0-2.11 1.94-3.69 4.89-3.69a7.13 7.13 0 0 1 4.52 1.51zm6.26-5.75a1.93 1.93 0 1 1-1.92-1.84 1.84 1.84 0 0 1 1.92 1.84zm-.38 17.26h-3.08v-12.7h3.08zm14.21-17.75v17.78H67l-.21-1.61a4.24 4.24 0 0 1-3.63 2c-3.17 0-4.82-2.66-4.82-6.69s2-6.72 5.11-6.72a4.42 4.42 0 0 1 3.19 1.36v-6.43zm-3.08 14.18v-5.81a3.05 3.05 0 0 0-2.42-1.34c-1.59 0-2.64 1.34-2.64 4.39 0 3.27.93 4.39 2.45 4.39a3 3 0 0 0 2.61-1.63zm17.07-1.8h-8c.24 2.59 1.44 3.43 3.12 3.43a5.33 5.33 0 0 0 3.17-1.12l1.3 1.8a7.31 7.31 0 0 1-4.71 1.7c-3.93 0-6-2.61-6-6.62s2-6.79 5.64-6.79 5.59 2.39 5.59 6.4c-.04.36-.09.87-.11 1.2zm-3-2.14c0-2.08-.74-3.33-2.47-3.33-1.44 0-2.35 1-2.52 3.48h5zm-63.07 36.34h-3.1l-.43-6.93c-.15-2.45-.27-5-.22-6.77l-3 11.9h-3l-3.24-11.93a63.87 63.87 0 0 1-.1 6.89l-.4 6.84H1.1l1.32-16.58H6.5l3 11.61 2.78-11.61h4.13zm13.22-1.73l-.65 2a2.86 2.86 0 0 1-2.81-1.84 4.36 4.36 0 0 1-3.81 1.89 3.76 3.76 0 0 1-4.08-3.91c0-2.76 2.06-4.25 5.76-4.25h1.6v-.72c0-1.65-.74-2.21-2.37-2.21a11.42 11.42 0 0 0-3.39.68l-.69-2a13.1 13.1 0 0 1 4.55-1c3.41 0 4.9 1.56 4.9 4.37v5.33c.03 1.06.36 1.42.99 1.66zm-4-1.7v-2.57h-1.26c-2 0-3 .72-3 2.21a1.68 1.68 0 0 0 1.8 1.92 2.73 2.73 0 0 0 2.47-1.56zm14.25-9.43l-.53 3a4.43 4.43 0 0 0-1.13-.14c-1.54 0-2.33 1.13-2.81 3.26v6.77H33.6v-12.7h2.66l.29 2.5c.6-1.82 1.83-2.83 3.31-2.83a4.45 4.45 0 0 1 1.28.14zm12.65.84a11.64 11.64 0 0 1-3.68.43 3.34 3.34 0 0 1 2.31 3.26c0 2.48-1.92 4.28-5.12 4.28a4.92 4.92 0 0 1-1.51-.2 1.18 1.18 0 0 0-.53.94c0 .46.27.89 1.54.89h2c2.8 0 4.63 1.51 4.63 3.6 0 2.54-2.19 4-6.34 4-4.51 0-5.78-1.44-5.78-4H44c0 1.27.55 1.82 3.07 1.82s3.19-.67 3.19-1.68-.72-1.41-2.14-1.41H46.2c-2.54 0-3.62-1.13-3.62-2.45a2.88 2.88 0 0 1 1.48-2.35 3.69 3.69 0 0 1-2.23-3.58c0-2.76 2.19-4.56 5.26-4.56a10.3 10.3 0 0 0 5.91-1.44zm-8.86 3.48a2.2 2.2 0 0 0 2.25 2.45c1.47 0 2.26-.91 2.26-2.52s-.77-2.4-2.3-2.4a2.16 2.16 0 0 0-2.21 2.47zM59 147.83a1.93 1.93 0 1 1-1.9-1.83 1.84 1.84 0 0 1 1.9 1.83zm-.38 17.26h-3.04v-12.7h3.08zm14-9.19v9.19h-3.07v-8.71c0-1.59-.6-2-1.56-2s-1.92.74-2.66 1.92v8.83h-3.07v-12.7h2.66l.24 1.66A4.74 4.74 0 0 1 69 152c2.3 0 3.62 1.47 3.62 3.9zM7.2 174.76a18.72 18.72 0 0 0 0 21.46l-2 1.32c-2.37-3.31-4.56-6.34-4.56-12s2.19-8.74 4.56-12.05zm12.8 5.07h-4.28v14.06h-3.19v-14.06H8.06v-2.52h12.32zm12.67 4.87v9.19h-3.08v-8.71c0-1.59-.62-2-1.56-2s-1.92.74-2.66 1.9v8.85H22.3v-17.8l3.07-.31v6.89a4.58 4.58 0 0 1 3.69-1.88c2.26 0 3.61 1.47 3.61 3.87zm13.55 9.19h-2.66l-.17-1.77a4.26 4.26 0 0 1-3.89 2.13c-2.3 0-3.52-1.49-3.52-3.93v-9.13h3.07v8.74c0 1.49.48 2 1.53 2a3.07 3.07 0 0 0 2.57-1.8v-8.93h3.07zm20.43-9.19v9.19h-3.07v-8.71c0-1.59-.63-2-1.4-2-1 0-1.7.74-2.4 1.92v8.83h-3.07v-8.71c0-1.59-.65-2-1.39-2-1.08 0-1.73.74-2.42 1.92v8.83h-3.08v-12.7h2.67l.24 1.66a4.31 4.31 0 0 1 3.67-2 3.1 3.1 0 0 1 3.07 2.07 4.53 4.53 0 0 1 3.82-2.14c2.01-.03 3.36 1.44 3.36 3.84zm14.73 2.83c0 4-1.89 6.72-5 6.72A4.18 4.18 0 0 1 73 192.6l-.19 1.29H70.1v-17.78l3.07-.34v6.86a4.27 4.27 0 0 1 3.51-1.8c2.95 0 4.7 2.45 4.7 6.7zm-3.21 0c0-3.38-1-4.39-2.47-4.39a3.05 3.05 0 0 0-2.53 1.73v5.61a2.78 2.78 0 0 0 2.36 1.52c1.56 0 2.64-1.28 2.64-4.47zm9.09 4.78a1.94 1.94 0 1 1-1.94-1.95 1.94 1.94 0 0 1 1.94 1.95zm-.67-4.31H84l-.38-10.73H87zm8.74-2.51c0 5.71-2.16 8.74-4.56 12l-2-1.32a18.68 18.68 0 0 0 0-21.46l2-1.32c2.4 3.36 4.56 6.39 4.56 12.1z" class="be5105b1-7518-4b25-9ac6-8bae8658ce4c" transform="translate(-.67 -1.16)"/><path d="M169.96 135.13v684" class="b2695ee0-9f1c-42cd-bc10-16f30c176dc6"/><path d="M243.76 135.13v4" class="b50327c2-c7ae-41b1-bb07-2705351aecf1"/><path d="M243.76 147.08v664.07" class="a698344e-d212-430c-8297-5dba54a8cfee"/><path d="M243.76 815.13v4m8-684v4" class="b50327c2-c7ae-41b1-bb07-2705351aecf1"/><path d="M251.76 147.08v664.07" class="a698344e-d212-430c-8297-5dba54a8cfee"/><path d="M251.76 815.13v4" class="b50327c2-c7ae-41b1-bb07-2705351aecf1"/><path d="M326.05 135.13v684m8-684v684" class="b2695ee0-9f1c-42cd-bc10-16f30c176dc6"/><path d="M408.35 135.13v4" class="b50327c2-c7ae-41b1-bb07-2705351aecf1"/><path d="M408.35 147.08v664.07" class="a698344e-d212-430c-8297-5dba54a8cfee"/><path d="M408.35 815.13v4m8-684v4" class="b50327c2-c7ae-41b1-bb07-2705351aecf1"/><path d="M416.35 147.08v664.07" class="a698344e-d212-430c-8297-5dba54a8cfee"/><path d="M416.35 815.13v4" class="b50327c2-c7ae-41b1-bb07-2705351aecf1"/><path d="M490.65 135.13v684m8-684v684" class="b2695ee0-9f1c-42cd-bc10-16f30c176dc6"/><path d="M572.95 135.13v4" class="b50327c2-c7ae-41b1-bb07-2705351aecf1"/><path d="M572.95 147.08v664.07" class="a698344e-d212-430c-8297-5dba54a8cfee"/><path d="M572.95 815.13v4m8-684v4" class="b50327c2-c7ae-41b1-bb07-2705351aecf1"/><path d="M580.95 147.08v664.07" class="a698344e-d212-430c-8297-5dba54a8cfee"/><path d="M580.95 815.13v4" class="b50327c2-c7ae-41b1-bb07-2705351aecf1"/><path d="M169.96 250.13h484.79m-484.79-8h484.79m-484.79 123.5h484.79m-484.79-8h484.79m-484.79 123.5h484.79m-484.79-8h484.79m-484.79 123.5h484.79m-484.79-8h484.79m-484.79 123.5h484.79m-484.79-8h484.79" class="a09aec8f-1ce4-4ccc-8793-3f7db978bfd4"/><path d="M654.75 135.13v684m-484.79-684h484.79m-484.79 684h484.79" class="b2695ee0-9f1c-42cd-bc10-16f30c176dc6"/><path d="M169.96 135.13h73.8v107.5h-73.8zm0 230.5h156.1v107.5h-156.1z" class="a949ea42-e9ba-44e0-8add-e5a1b5956020"/><path d="M196.82 194.47h-2.27v-9.8l-2.7 1.64-1-1.55 3.95-2.41h2zm15.26 0h-2.66l-2-3.79-2 3.79H203l3.17-5-2.84-4.5h2.63l1.62 3.24 1.6-3.24h2.5l-2.75 4.43zm10.84 0h-2.27v-9.8l-2.7 1.64-1-1.55 3.95-2.41h2zM239.2 416c0 2.06-1.17 3.55-4.91 7.12h5.18l-.25 1.82h-7.54v-1.7c4.14-4.21 5.15-5.34 5.15-7.06a1.64 1.64 0 0 0-1.75-1.76 2.87 2.87 0 0 0-2.34 1.28l-1.41-1.12a4.75 4.75 0 0 1 3.93-2c2.5.05 3.94 1.56 3.94 3.42zm14.55 9h-2.67l-2-3.79-2 3.79h-2.53l3.16-5-2.84-4.5h2.63l1.62 3.24 1.6-3.24h2.5l-2.75 4.43zm10.83 0h-2.27v-9.8l-2.7 1.64-1-1.55 3.95-2.41h2z" class="e28a8db6-0000-48f0-93ff-7f8a509516fe" transform="translate(-.67 -1.16)"/><path d="M334.3 250.38h156.1v223H334.3zm0 230.75h320.69V703.8H334.3z" class="a949ea42-e9ba-44e0-8add-e5a1b5956020"/><path d="M403 358.53c0 2.06-1.18 3.55-4.92 7.12h5.19l-.26 1.82h-7.54v-1.7c4.14-4.21 5.15-5.34 5.15-7.06a1.63 1.63 0 0 0-1.75-1.76 2.9 2.9 0 0 0-2.34 1.28l-1.4-1.12a4.73 4.73 0 0 1 3.92-2c2.55.02 3.95 1.53 3.95 3.42zm14.58 8.94h-2.67l-2-3.79-1.91 3.79h-2.54l3.17-5-2.85-4.5h2.63l1.62 3.24 1.61-3.24h2.5l-2.76 4.43zm12.58-8.94c0 2.06-1.17 3.55-4.91 7.12h5.18l-.25 1.82h-7.54v-1.7c4.14-4.21 5.15-5.34 5.15-7.06A1.64 1.64 0 0 0 426 357a2.87 2.87 0 0 0-2.34 1.28l-1.41-1.12a4.75 4.75 0 0 1 3.93-2c2.54-.03 3.98 1.48 3.98 3.37zm56.1 236.75h-1.46v2.77h-2.25v-2.77h-5.15v-1.59l3.53-8 2 .74-3.09 7.07h2.77l.23-3h2v3h1.46zm14 2.77h-2.66l-2-3.78-1.95 3.78h-2.54l3.17-5-2.84-4.51h2.63l1.62 3.24 1.6-3.24h2.5l-2.71 4.46zm12.59-8.93c0 2-1.17 3.55-4.92 7.11h5.19l-.26 1.82h-7.54v-1.69c4.14-4.22 5.15-5.35 5.15-7.06a1.63 1.63 0 0 0-1.75-1.77 2.9 2.9 0 0 0-2.34 1.28L505 587.7a4.74 4.74 0 0 1 3.92-2c2.49.01 3.93 1.53 3.93 3.42z" class="e28a8db6-0000-48f0-93ff-7f8a509516fe" transform="translate(-.67 -1.16)"/></g></g></svg>