<svg xmlns="http://www.w3.org/2000/svg" viewBox="0 0 854.56 935.13" width="854.56" height="935.13"><defs><style>.b782d277-1be4-4060-b6e1-c04689c03300,.bfc4a347-b3c0-4efa-bc13-abb5f899b5a9,.bfc69d63-fe28-43a6-a36d-290632dbb139,.e90443cc-5425-4ed3-9c22-0d59677652e9,.eff9dd60-df2e-419b-84ab-65190c5f6331{fill:none;stroke-miterlimit:10}.e90443cc-5425-4ed3-9c22-0d59677652e9{stroke:#231f20}.b782d277-1be4-4060-b6e1-c04689c03300{stroke:#ec1c24}.e8c1b957-0526-4ab5-b60c-40a9fabf1863{fill:#6d6e70}.e3522bf6-8093-4f87-bade-1c3a75c83874{fill:#b2b3b3}.eff9dd60-df2e-419b-84ab-65190c5f6331{stroke:#969696}.bfc69d63-fe28-43a6-a36d-290632dbb139{stroke:#c8c8c8;stroke-width:.5px;stroke-dasharray:8}.bfc4a347-b3c0-4efa-bc13-abb5f899b5a9{stroke:#b2b3b3}.fbcbc42c-f8a0-4e82-8b14-bbd7b2dd6c00{fill:#2997ff}.a634fc5f-9ec2-4c7e-a0f4-5856a8b830ba{fill:#fff}</style></defs><g id="f3f48af8-aa83-40c1-a710-587bb46acbe4"><g id="ab3fb314-f083-4eb2-9fd1-8c7a50548506"><path d="M727.35 19.13v50m-612-50v50m612 816v50m-612-50v50m-62-854h50m-50 792h50m636-792h50m-50 792h50" class="e90443cc-5425-4ed3-9c22-0d59677652e9"/><path d="M17.02 163.29h810v630h-810z" class="b782d277-1be4-4060-b6e1-c04689c03300" transform="rotate(90 422.265 477.375)"/><path d="M115.35 81.13h612v792h-612z" class="e90443cc-5425-4ed3-9c22-0d59677652e9"/><path d="M762.67 136.29h-3.17v-16.58h3.17zm14.11-9.19v9.19h-3.07v-8.71c0-1.58-.6-2-1.56-2s-1.92.74-2.67 1.92v8.83h-3.07v-12.7h2.66l.24 1.66a4.75 4.75 0 0 1 3.87-2c2.28-.05 3.6 1.38 3.6 3.81zm12.02-2.35l-1.2 1.8a5.79 5.79 0 0 0-3.19-1c-1.22 0-1.92.51-1.92 1.28s.5 1.22 2.66 1.82c2.6.7 4.06 1.75 4.06 4 0 2.64-2.45 4-5.35 4a7.42 7.42 0 0 1-5.07-1.8l1.54-1.73a5.69 5.69 0 0 0 3.46 1.25c1.36 0 2.25-.57 2.25-1.53s-.5-1.4-2.88-2.07c-2.61-.72-3.77-2-3.77-3.84 0-2.11 2-3.69 4.9-3.69a7.12 7.12 0 0 1 4.51 1.51zm6.27-5.75a1.94 1.94 0 1 1-2-1.87 1.85 1.85 0 0 1 2 1.87zm-.39 17.26h-3.07v-12.7h3.07zm14.21-17.75v17.78h-2.71l-.22-1.61a4.22 4.22 0 0 1-3.62 2c-3.17 0-4.83-2.66-4.83-6.69s2-6.72 5.12-6.72a4.42 4.42 0 0 1 3.19 1.36v-6.43zm-3.07 14.18v-5.81a3.06 3.06 0 0 0-2.43-1.34c-1.58 0-2.64 1.34-2.64 4.39 0 3.27.94 4.39 2.45 4.39a3 3 0 0 0 2.62-1.63zm17.06-1.8h-8c.24 2.59 1.44 3.43 3.12 3.43a5.31 5.31 0 0 0 3.17-1.12l1.27 1.75a7.26 7.26 0 0 1-4.7 1.7c-3.94 0-6-2.61-6-6.62s2-6.79 5.64-6.79 5.59 2.39 5.59 6.4c.03.41-.06.92-.09 1.25zm-3-2.14c0-2.08-.75-3.33-2.48-3.33-1.44 0-2.35 1-2.52 3.48h5zm-44.66 36.34h-3.1l-.43-6.93c-.14-2.45-.26-5-.22-6.77l-3 11.9h-3l-3.22-11.93a66.49 66.49 0 0 1-.09 6.89l-.41 6.84h-3.07l1.32-16.58h4.08l3 11.61 2.78-11.61h4.13zm13.22-1.73l-.65 2a2.85 2.85 0 0 1-2.8-1.84 4.38 4.38 0 0 1-3.82 1.89 3.76 3.76 0 0 1-4.08-3.91c0-2.76 2.06-4.25 5.76-4.25h1.61v-.72c0-1.65-.75-2.21-2.38-2.21a11.36 11.36 0 0 0-3.38.68l-.7-2a13.11 13.11 0 0 1 4.59-.92c3.4 0 4.89 1.56 4.89 4.37v5.33c0 .98.34 1.34.96 1.58zm-4-1.7v-2.57h-1.27c-2 0-3 .72-3 2.21a1.68 1.68 0 0 0 1.8 1.92 2.74 2.74 0 0 0 2.49-1.56zm14.25-9.43l-.53 3a4.37 4.37 0 0 0-1.13-.14c-1.53 0-2.32 1.13-2.8 3.26v6.77h-3.08v-12.7h2.67l.29 2.5c.6-1.82 1.82-2.83 3.31-2.83a4.43 4.43 0 0 1 1.27.14zm12.65.84a11.57 11.57 0 0 1-3.67.43 3.35 3.35 0 0 1 2.3 3.26c0 2.48-1.92 4.28-5.11 4.28a4.92 4.92 0 0 1-1.51-.2 1.15 1.15 0 0 0-.53.94c0 .46.26.89 1.53.89h1.95c2.81 0 4.63 1.51 4.63 3.6 0 2.54-2.18 4-6.34 4-4.51 0-5.78-1.44-5.78-4h2.76c0 1.27.55 1.82 3.07 1.82s3.19-.67 3.19-1.68-.74-1.51-2.16-1.51h-1.92c-2.54 0-3.62-1.13-3.62-2.45a2.87 2.87 0 0 1 1.49-2.35 3.69 3.69 0 0 1-2.23-3.58c0-2.76 2.18-4.56 5.25-4.56a10.27 10.27 0 0 0 5.93-1.41zm-8.86 3.48a2.2 2.2 0 0 0 2.26 2.49c1.46 0 2.26-.91 2.26-2.52s-.77-2.4-2.31-2.4a2.16 2.16 0 0 0-2.21 2.43zm14.11-8.72a1.93 1.93 0 1 1-1.94-1.87 1.84 1.84 0 0 1 1.94 1.87zm-.38 17.26h-3.07v-12.7h3.07zm13.97-9.19v9.19h-3.07v-8.71c0-1.59-.6-2-1.56-2s-1.92.74-2.67 1.92v8.83h-3.07v-12.7h2.66l.24 1.66a4.76 4.76 0 0 1 3.87-2c2.28-.09 3.6 1.38 3.6 3.81zm-65.43 18.86a18.72 18.72 0 0 0 0 21.46l-2 1.32c-2.38-3.31-4.56-6.34-4.56-12s2.18-8.74 4.56-12.05zm14.45 14.36c0 3.64-2.9 4.77-6.93 4.77h-5v-16.58h4.35c4.27 0 6.86 1.2 6.86 4.22a3.63 3.63 0 0 1-3.07 3.58c1.9.36 3.79 1.24 3.79 4.01zm-8.76-9.49v4.49h1.95c1.72 0 2.85-.77 2.85-2.33s-1.15-2.16-3.31-2.16zm5.45 9.37c0-2-1.42-2.67-3.26-2.67h-2.19v5.19h1.85c2.09 0 3.6-.44 3.6-2.52zm9.41-12.37a1.94 1.94 0 1 1-1.95-1.87 1.84 1.84 0 0 1 1.95 1.87zm-.39 17.26h-3.07v-12.7h3.07zm13.97-9.19v9.19h-3.07v-8.71c0-1.59-.6-2-1.56-2s-1.92.74-2.67 1.92v8.83h-3.07v-12.7h2.67l.24 1.66a4.73 4.73 0 0 1 3.86-2c2.28-.06 3.6 1.38 3.6 3.81zm14.12-8.59v17.78h-2.72l-.21-1.61a4.23 4.23 0 0 1-3.63 2c-3.16 0-4.82-2.66-4.82-6.7s2-6.72 5.11-6.72a4.41 4.41 0 0 1 3.19 1.37v-6.43zm-3.08 14.18v-5.81a3.05 3.05 0 0 0-2.42-1.34c-1.58 0-2.64 1.34-2.64 4.39 0 3.26.94 4.39 2.45 4.39a3 3 0 0 0 2.56-1.63zM820 176.63a1.93 1.93 0 1 1-1.94-1.87 1.84 1.84 0 0 1 1.94 1.87zm-.38 17.26h-3.08v-12.7h3.08zm13.97-9.19v9.19h-3.08v-8.71c0-1.59-.6-2-1.56-2s-1.92.74-2.66 1.92v8.83h-3.07v-12.7h2.66l.24 1.66a4.76 4.76 0 0 1 3.87-2c2.28-.06 3.6 1.38 3.6 3.81zm14.54-2.83a11.57 11.57 0 0 1-3.67.43 3.35 3.35 0 0 1 2.3 3.26c0 2.48-1.92 4.27-5.11 4.27a4.93 4.93 0 0 1-1.51-.19 1.15 1.15 0 0 0-.53.94c0 .46.26.89 1.53.89h2c2.81 0 4.63 1.51 4.63 3.6 0 2.54-2.18 4.05-6.34 4.05-4.51 0-5.78-1.44-5.78-4h2.76c0 1.27.55 1.82 3.07 1.82s3.19-.67 3.19-1.68-.74-1.51-2.16-1.51h-1.92c-2.54 0-3.62-1.13-3.62-2.45a2.87 2.87 0 0 1 1.49-2.35 3.69 3.69 0 0 1-2.23-3.58c0-2.76 2.18-4.56 5.25-4.56a10.27 10.27 0 0 0 5.93-1.41zm-8.86 3.48a2.2 2.2 0 0 0 2.26 2.49c1.46 0 2.26-.91 2.26-2.52s-.77-2.4-2.31-2.4a2.16 2.16 0 0 0-2.21 2.43zm15.96.14c0 5.71-2.16 8.74-4.56 12l-1.94-1.32a18.72 18.72 0 0 0 0-21.46l1.94-1.32c2.4 3.36 4.56 6.39 4.56 12.1z" class="e8c1b957-0526-4ab5-b60c-40a9fabf1863" transform="translate(-.67 -1.16)"/><path d="M211.21 842.78h-1.77V837l-1.71 1-.79-1.21 2.66-1.55h1.61zm7.79-8.02l-7.37 14.39-1.39-.69 7.37-14.38zm3.6 10.88c0 1.2-1.13 2.23-3.08 2.23s-3-1-3-2.21a2 2 0 0 1 1.49-1.88 2 2 0 0 1-1.17-1.78c0-1.21 1.15-2 2.74-2s2.71.7 2.71 1.94a2 2 0 0 1-1.27 1.71c1.08.48 1.58 1.12 1.58 1.99zm-1.8 0c0-.61-.34-.88-1.26-1.19l-.41-.14a1.38 1.38 0 0 0-.8 1.29c0 .62.47 1 1.25 1s1.22-.42 1.22-.98zm-2.21-3.6c0 .5.32.81 1 1l.25.11a1.28 1.28 0 0 0 .72-1.17c0-.5-.34-.84-1-.84s-.97.3-.97.86zm-56.24-61.88c0 1.2-1.13 2.23-3.08 2.23s-3-1-3-2.22a2 2 0 0 1 1.5-1.87 2 2 0 0 1-1.17-1.78c0-1.21 1.15-2 2.74-2s2.71.71 2.71 1.95a2 2 0 0 1-1.28 1.71c1.07.46 1.58 1.11 1.58 1.98zm-1.8 0c0-.62-.34-.89-1.26-1.19l-.42-.15a1.37 1.37 0 0 0-.79 1.3c0 .61.47 1 1.25 1s1.22-.42 1.22-.98zm-2.22-3.6c0 .5.33.81 1 1l.25.11a1.28 1.28 0 0 0 .72-1.17c0-.51-.35-.85-1-.85s-.97.35-.97.89zm10.32-2.38l-7.36 14.38-1.39-.68 7.36-14.39zm3.63 10.87c0 1.21-1.13 2.24-3.07 2.24s-3-1-3-2.22a2 2 0 0 1 1.49-1.87 2 2 0 0 1-1.17-1.78c0-1.21 1.15-2 2.74-2s2.72.7 2.72 2a2 2 0 0 1-1.29 1.58c1.08.54 1.58 1.19 1.58 2.05zm-1.79 0c0-.61-.35-.88-1.27-1.18l-.41-.15A1.37 1.37 0 0 0 168 785c0 .61.47 1 1.24 1s1.25-.41 1.25-1zm-2.22-3.6c0 .51.32.81 1 1.05l.25.11a1.28 1.28 0 0 0 .72-1.17c0-.51-.34-.85-1-.85s-.97.27-.97.84zm-6.43-91.82l-2.89 6.5-1.62-.58 2.68-5.8h-3.24v-1.35h5.07zm6.81-1.7l-7.36 14.39-1.39-.68 7.36-14.39zm3.63 10.88c0 1.21-1.13 2.23-3.07 2.23s-3-1-3-2.21a2 2 0 0 1 1.49-1.87 2 2 0 0 1-1.17-1.79c0-1.2 1.15-2 2.74-2s2.72.7 2.72 1.94a2 2 0 0 1-1.28 1.71c1.07.48 1.57 1.18 1.57 1.99zm-1.79 0c0-.61-.35-.88-1.27-1.19l-.41-.14a1.37 1.37 0 0 0-.79 1.3c0 .61.47 1 1.24 1s1.23-.43 1.23-.99zm-2.22-3.6c0 .51.32.81 1 1l.25.1a1.28 1.28 0 0 0 .72-1.17c0-.5-.34-.84-1-.84s-.97.32-.97.89zm-6.05-88.08a2.7 2.7 0 0 1-2.84 2.77c-2.11 0-3-1.47-3-3.63 0-2.58 1.3-4.27 3.42-4.27a3.15 3.15 0 0 1 1.78.5l-.65 1.08a2.25 2.25 0 0 0-1.09-.3c-.92 0-1.5.74-1.59 2.09a2.3 2.3 0 0 1 1.69-.72 2.22 2.22 0 0 1 2.28 2.48zm-1.81 0c0-1-.35-1.3-1-1.3a1.56 1.56 0 0 0-1.17.58c0 1.56.31 2.18 1.1 2.18s1.07-.59 1.07-1.44zm8.24-5.44l-7.36 14.39-1.39-.69 7.36-14.39zm3.63 10.88c0 1.2-1.13 2.23-3.07 2.23s-3-1-3-2.21a2 2 0 0 1 1.49-1.88 2 2 0 0 1-1.17-1.78c0-1.21 1.15-2 2.74-2s2.72.7 2.72 1.94a2 2 0 0 1-1.28 1.71c1.07.48 1.57 1.12 1.57 1.99zm-1.79 0c0-.61-.35-.88-1.27-1.19l-.41-.14a1.37 1.37 0 0 0-.79 1.29c0 .62.47 1 1.24 1s1.23-.42 1.23-.98zm-2.22-3.6c0 .5.32.81 1 1l.25.11a1.28 1.28 0 0 0 .72-1.17c0-.5-.34-.85-1-.85s-.97.31-.97.94zm-6.68-91.79h-2.93v1.58a2.92 2.92 0 0 1 1.22-.27 2.23 2.23 0 0 1 2.27 2.47c0 1.6-1.21 2.7-3.08 2.7a3.42 3.42 0 0 1-2.63-1.15l1.05-1a1.86 1.86 0 0 0 1.51.74 1.19 1.19 0 0 0 1.3-1.33c0-.94-.47-1.24-1.12-1.24a1.85 1.85 0 0 0-1 .27H157v-4.07h4.82zm7.06-1.73l-7.36 14.39-1.39-.69 7.36-14.38zm3.63 10.88c0 1.2-1.13 2.23-3.07 2.23s-3-1-3-2.22a2 2 0 0 1 1.49-1.87 2 2 0 0 1-1.17-1.78c0-1.21 1.15-2 2.74-2s2.72.71 2.72 2a2 2 0 0 1-1.28 1.71c1.07.41 1.57 1.06 1.57 1.93zm-1.79 0c0-.61-.35-.88-1.27-1.19l-.41-.14a1.36 1.36 0 0 0-.79 1.29c0 .61.47 1 1.24 1s1.23-.42 1.23-.98zm-2.22-3.6c0 .5.32.81 1 1l.25.11a1.28 1.28 0 0 0 .72-1.17c0-.51-.34-.85-1-.85s-.97.31-.97.89zm-5.96-87.13h-.9v1.62h-1.71v-1.62h-3.4v-1.21l2.25-4.88 1.51.56-1.9 4.2h1.56l.27-1.78h1.44v1.78h.9zm6.34-6.39l-7.36 14.38-1.39-.68 7.36-14.39zm3.63 10.87c0 1.21-1.13 2.24-3.07 2.24s-3-1-3-2.22a2 2 0 0 1 1.49-1.87 2 2 0 0 1-1.17-1.78c0-1.21 1.15-2 2.74-2s2.72.7 2.72 1.95a2 2 0 0 1-1.28 1.71c1.07.46 1.57 1.11 1.57 1.97zm-1.79 0c0-.62-.35-.89-1.27-1.19l-.41-.15A1.37 1.37 0 0 0 168 440c0 .61.47 1 1.24 1s1.25-.38 1.25-.93zm-2.22-3.61c0 .51.32.81 1 1.05l.25.11a1.28 1.28 0 0 0 .72-1.17c0-.51-.34-.85-1-.85s-.97.28-.97.85zm-6.37-91.25a1.82 1.82 0 0 1-1.62 1.76 1.82 1.82 0 0 1 1.89 1.84c0 1.28-1.08 2.36-3 2.36a3.45 3.45 0 0 1-2.71-1.16l1-.95a2.09 2.09 0 0 0 1.59.72c.73 0 1.26-.38 1.26-1.08s-.47-1.06-1.32-1.06h-.65l.22-1.23h.44c.7 0 1.16-.34 1.16-.95s-.42-.87-1.07-.87a2.38 2.38 0 0 0-1.55.65l-.9-.95a3.76 3.76 0 0 1 2.65-1c1.71-.03 2.61.84 2.61 1.92zm6.75-2.22l-7.36 14.38-1.39-.68 7.36-14.39zm3.63 10.84c0 1.21-1.13 2.23-3.07 2.23s-3-1-3-2.21a2 2 0 0 1 1.49-1.87 2 2 0 0 1-1.17-1.79c0-1.2 1.15-2 2.74-2s2.72.7 2.72 1.94a2 2 0 0 1-1.28 1.72c1.07.47 1.57 1.14 1.57 1.98zm-1.79 0c0-.61-.35-.88-1.27-1.19l-.41-.14a1.37 1.37 0 0 0-.79 1.3c0 .61.47 1 1.24 1s1.23-.43 1.23-.99zm-2.22-3.6c0 .51.32.81 1 1l.25.11a1.31 1.31 0 0 0 .72-1.18c0-.5-.34-.84-1-.84s-.97.32-.97.89zm-6.35-91.03c0 1.15-.67 2-3.12 4.1h3.28l-.18 1.39h-5.11v-1.28c2.64-2.48 3.27-3.17 3.27-4.05a.92.92 0 0 0-1-1 1.78 1.78 0 0 0-1.46.77l-1.06-.84a3.35 3.35 0 0 1 2.7-1.32c1.76.02 2.68 1.02 2.68 2.23zm6.73-2.49l-7.36 14.39-1.39-.68 7.36-14.43zm3.63 10.88c0 1.21-1.13 2.23-3.07 2.23s-3-1-3-2.21a2 2 0 0 1 1.49-1.87 2 2 0 0 1-1.17-1.79c0-1.2 1.15-2 2.74-2s2.72.7 2.72 1.94a2 2 0 0 1-1.28 1.71c1.07.48 1.57 1.13 1.57 1.99zm-1.79 0c0-.61-.35-.88-1.27-1.19l-.41-.14a1.37 1.37 0 0 0-.79 1.29c0 .62.47 1 1.24 1s1.23-.42 1.23-.98zm-2.22-3.6c0 .5.32.81 1 1l.25.11a1.28 1.28 0 0 0 .72-1.17c0-.5-.34-.84-1-.84s-.97.3-.97.9zm-7.38-85.51h-1.76v-5.81l-1.71 1-.8-1.21 2.67-1.55h1.6zm7.76-8.01l-7.36 14.39-1.39-.69 7.36-14.38zm3.63 10.88c0 1.2-1.13 2.23-3.07 2.23s-3-1-3-2.21a2 2 0 0 1 1.49-1.88 2 2 0 0 1-1.17-1.78c0-1.21 1.15-2 2.74-2s2.72.7 2.72 1.94a2 2 0 0 1-1.28 1.71c1.07.47 1.57 1.12 1.57 1.99zm-1.79 0c0-.61-.35-.88-1.27-1.19l-.41-.14a1.36 1.36 0 0 0-.79 1.29c0 .62.47 1 1.24 1s1.23-.42 1.23-.98zm-2.22-3.6c0 .5.32.81 1 1l.25.11a1.28 1.28 0 0 0 .72-1.17c0-.5-.34-.85-1-.85s-.97.31-.97.89zm105.67 659.49c0 1.15-.66 2-3.11 4.1h3.28l-.19 1.39h-5.11v-1.28c2.65-2.48 3.28-3.17 3.28-4.05a.93.93 0 0 0-1-1 1.8 1.8 0 0 0-1.46.77l-1.06-.84a3.35 3.35 0 0 1 2.7-1.32c1.73-.02 2.67.98 2.67 2.23zm6.74-2.49l-7.37 14.39-1.39-.69 7.37-14.38zm3.63 10.88c0 1.2-1.13 2.23-3.08 2.23s-3-1-3-2.21a2 2 0 0 1 1.49-1.88 2 2 0 0 1-1.17-1.78c0-1.21 1.15-2 2.74-2s2.71.7 2.71 1.94a2 2 0 0 1-1.27 1.71c1.08.48 1.58 1.12 1.58 1.99zm-1.8 0c0-.61-.34-.88-1.26-1.19l-.41-.14a1.38 1.38 0 0 0-.8 1.29c0 .62.47 1 1.25 1s1.22-.42 1.22-.98zM280.3 842c0 .5.32.81 1 1l.25.11a1.28 1.28 0 0 0 .72-1.17c0-.5-.34-.84-1-.84s-.97.34-.97.9zm55.34-5a1.81 1.81 0 0 0 .27 3.6c0 1.28-1.08 2.36-3 2.36a3.44 3.44 0 0 1-2.7-1.15l1-1a2.07 2.07 0 0 0 1.58.72c.74 0 1.26-.38 1.26-1.08s-.46-1.07-1.31-1.07h-.65l.22-1.22h.43c.7 0 1.15-.34 1.15-1s-.41-.87-1.06-.87a2.36 2.36 0 0 0-1.55.65l-.9-.95a3.74 3.74 0 0 1 2.65-1c1.69.08 2.61.94 2.61 2.01zm6.75-2.24L335 849.15l-1.38-.69 7.38-14.38zm3.61 10.88c0 1.2-1.13 2.23-3.08 2.23s-3-1-3-2.21a2 2 0 0 1 1.49-1.88 2 2 0 0 1-1.17-1.78c0-1.21 1.15-2 2.74-2s2.72.7 2.72 1.94a2 2 0 0 1-1.28 1.71c1.1.48 1.58 1.12 1.58 1.99zm-1.8 0c0-.61-.34-.88-1.26-1.19l-.41-.14a1.38 1.38 0 0 0-.8 1.29c0 .62.47 1 1.25 1s1.24-.42 1.24-.98zM342 842c0 .5.32.81 1 1l.25.11A1.28 1.28 0 0 0 344 842c0-.5-.34-.84-1-.84s-1 .28-1 .84zm55.76-.84h-.9v1.62h-1.71v-1.62h-3.4V840l2.25-4.88 1.51.56-1.91 4.19h1.57l.27-1.78h1.44v1.78h.9zm6.34-6.4l-7.37 14.39-1.38-.69 7.36-14.38zm3.63 10.88c0 1.2-1.13 2.23-3.08 2.23s-3-1-3-2.21a2 2 0 0 1 1.49-1.88A2 2 0 0 1 402 842c0-1.21 1.15-2 2.74-2s2.72.7 2.72 1.94a2 2 0 0 1-1.28 1.71c1.05.48 1.55 1.12 1.55 1.99zm-1.8 0c0-.61-.34-.88-1.26-1.19l-.41-.14a1.38 1.38 0 0 0-.8 1.29c0 .62.47 1 1.25 1s1.22-.42 1.22-.98zm-2.21-3.6c0 .5.32.81 1 1l.25.11a1.28 1.28 0 0 0 .72-1.17c0-.5-.34-.84-1-.84s-.97.3-.97.86zm55.03-5.55h-2.93v1.59a2.92 2.92 0 0 1 1.22-.27 2.23 2.23 0 0 1 2.27 2.46c0 1.61-1.21 2.7-3.08 2.7a3.36 3.36 0 0 1-2.63-1.15l1-1a1.89 1.89 0 0 0 1.51.74 1.18 1.18 0 0 0 1.29-1.34c0-.93-.46-1.24-1.11-1.24a1.92 1.92 0 0 0-1 .27h-1.26v-4.07H459zm7.06-1.73l-7.37 14.39-1.38-.69 7.36-14.38zm3.63 10.88c0 1.2-1.13 2.23-3.08 2.23s-3-1-3-2.21a2 2 0 0 1 1.49-1.88 2 2 0 0 1-1.17-1.78c0-1.21 1.15-2 2.74-2s2.72.7 2.72 1.94a2 2 0 0 1-1.28 1.71c1.08.48 1.58 1.12 1.58 1.99zm-1.8 0c0-.61-.34-.88-1.26-1.19l-.41-.14a1.38 1.38 0 0 0-.8 1.29c0 .62.47 1 1.25 1s1.22-.42 1.22-.98zm-2.21-3.6c0 .5.32.81 1 1l.25.11a1.28 1.28 0 0 0 .72-1.17c0-.5-.34-.84-1-.84s-.97.3-.97.86zm55.66-1.84a2.7 2.7 0 0 1-2.84 2.77c-2.11 0-3-1.47-3-3.63 0-2.58 1.29-4.27 3.42-4.27a3.15 3.15 0 0 1 1.78.5l-.65 1.08a2.26 2.26 0 0 0-1.1-.3c-.91 0-1.49.74-1.58 2.09a2.29 2.29 0 0 1 1.69-.72 2.22 2.22 0 0 1 2.28 2.48zm-1.82 0c0-1-.34-1.3-.95-1.3a1.56 1.56 0 0 0-1.17.58c0 1.56.3 2.18 1.1 2.18s1.02-.56 1.02-1.44zm8.25-5.44l-7.37 14.39-1.38-.69 7.36-14.38zm3.63 10.88c0 1.2-1.13 2.23-3.08 2.23s-3-1-3-2.21a2 2 0 0 1 1.49-1.88 2 2 0 0 1-1.17-1.78c0-1.21 1.15-2 2.74-2s2.72.7 2.72 1.94a2 2 0 0 1-1.28 1.71c1.08.48 1.58 1.12 1.58 1.99zm-1.8 0c0-.61-.34-.88-1.26-1.19l-.41-.14a1.37 1.37 0 0 0-.79 1.29c0 .62.46 1 1.24 1s1.22-.42 1.22-.98zm-2.21-3.6c0 .5.32.81 1 1l.25.11a1.28 1.28 0 0 0 .72-1.17c0-.5-.34-.84-1-.84s-.97.3-.97.86zm55.28-5.58l-2.89 6.5-1.63-.58 2.69-5.8h-3.24v-1.35h5.07zm6.81-1.7l-7.37 14.39-1.38-.69 7.36-14.38zm3.63 10.88c0 1.2-1.13 2.23-3.07 2.23s-3-1-3-2.21a2 2 0 0 1 1.49-1.88 2 2 0 0 1-1.18-1.78c0-1.21 1.15-2 2.74-2s2.72.7 2.72 1.94a2 2 0 0 1-1.28 1.71c1.08.48 1.58 1.12 1.58 1.99zm-1.8 0c0-.61-.34-.88-1.26-1.19l-.41-.14a1.37 1.37 0 0 0-.79 1.29c0 .62.46 1 1.24 1s1.22-.42 1.22-.98zm-2.21-3.6c0 .5.32.81 1 1l.25.11a1.28 1.28 0 0 0 .72-1.17c0-.5-.34-.84-1-.84s-.97.3-.97.86zm55.79-1.3c0 1.21-1.14 2.23-3.08 2.23s-3-1-3-2.21a2 2 0 0 1 1.5-1.87 2 2 0 0 1-1.17-1.79c0-1.2 1.15-2 2.73-2s2.72.7 2.72 1.94a2 2 0 0 1-1.28 1.71c1.07.48 1.58 1.13 1.58 1.99zm-1.8 0c0-.61-.34-.88-1.26-1.19l-.42-.14a1.37 1.37 0 0 0-.79 1.3c0 .61.47 1 1.24 1s1.23-.43 1.23-.99zm-2.22-3.6c0 .51.33.81 1 1l.26.1a1.3 1.3 0 0 0 .72-1.17c0-.5-.35-.84-1-.84s-.98.32-.98.89zm10.32-2.38l-7.36 14.39-1.39-.69 7.36-14.38zm3.63 10.88c0 1.2-1.13 2.23-3.07 2.23s-3-1-3-2.21a2 2 0 0 1 1.49-1.88 2 2 0 0 1-1.17-1.78c0-1.21 1.15-2 2.74-2s2.72.7 2.72 1.94a2 2 0 0 1-1.28 1.71c1.07.48 1.57 1.12 1.57 1.99zm-1.8 0c0-.61-.34-.88-1.26-1.19l-.41-.14a1.37 1.37 0 0 0-.79 1.29c0 .62.47 1 1.24 1s1.22-.42 1.22-.98zm-2.21-3.6c0 .5.32.81 1 1l.25.11a1.28 1.28 0 0 0 .72-1.17c0-.5-.34-.84-1-.84s-.97.3-.97.86z" class="e3522bf6-8093-4f87-bade-1c3a75c83874" transform="translate(-.67 -1.16)"/><path d="M137.18 16c0 2.64-2.33 4.7-6 4.7s-5.85-2-5.85-4.65c0-2 1.15-3.27 3.07-4.08A4.11 4.11 0 0 1 126 8.1c0-2.64 2.4-4.25 5.28-4.25s5.28 1.44 5.28 4.13c0 1.49-.84 2.71-2.66 3.65 2.18.98 3.28 2.37 3.28 4.37zm-3.12 0c0-1.51-.79-2.19-2.95-3l-.74-.26a3.37 3.37 0 0 0-2 3.19c0 1.54 1.11 2.47 2.83 2.47s2.86-1.06 2.86-2.4zM129 8.15c0 1.36.86 2 2.42 2.54l.46.17a3 3 0 0 0 1.73-2.74 2.31 2.31 0 0 0-4.61 0zm10.29 3.41h7.25V14h-7.25zm21.6-6.46l-1.6 1.9a4.79 4.79 0 0 0-3.08-1.18c-2.3 0-4.08 1.68-4.08 6.17s1.73 6.15 4.08 6.15a5.4 5.4 0 0 0 3.39-1.35l1.49 1.88a7 7 0 0 1-5 2c-4.29 0-7.29-3-7.29-8.69s3.17-8.61 7.25-8.61a6.93 6.93 0 0 1 4.84 1.73zm13.01 8.83c0 4-2.23 6.72-6 6.72s-6-2.54-6-6.72c0-4 2.23-6.69 6-6.69s6 2.54 6 6.69zm-8.71 0c0 3.05.94 4.39 2.74 4.39s2.73-1.36 2.73-4.39-.93-4.37-2.71-4.37-2.76 1.37-2.76 4.37zm11.4 3.46V2.51l3.07-.34v15.12c0 .6.19.89.72.89a2 2 0 0 0 .7-.12l.67 2.16a5.15 5.15 0 0 1-2.06.43c-1.95 0-3.1-1.17-3.1-3.26zm17.41 2.9h-2.7l-.16-1.77a4.28 4.28 0 0 1-3.89 2.13c-2.31 0-3.53-1.49-3.53-3.93V7.59h3.07v8.74c0 1.49.48 2 1.54 2a3.08 3.08 0 0 0 2.57-1.8V7.59h3.1zm20.39-9.19v9.19h-3.07v-8.71c0-1.58-.63-2-1.39-2-1.06 0-1.71.74-2.4 1.92v8.83h-3.08v-8.75c0-1.58-.64-2-1.39-2-1.08 0-1.73.74-2.42 1.92v8.83h-3.07V7.59h2.66l.24 1.66a4.3 4.3 0 0 1 3.67-2 3.09 3.09 0 0 1 3.07 2.13A4.52 4.52 0 0 1 211 7.24c2.05 0 3.39 1.46 3.39 3.86zm13.82 0v9.19h-3.07v-8.71c0-1.58-.6-2-1.56-2s-1.92.74-2.66 1.92v8.83h-3.08V7.59h2.67l.24 1.66a4.73 4.73 0 0 1 3.86-2c2.28-.01 3.6 1.42 3.6 3.85zm21.58-5.81l-1.71 1.78a5.1 5.1 0 0 0-3.48-1.32c-2.35 0-4.36 1.77-4.36 6.24s1.34 6.24 3.93 6.24a5.2 5.2 0 0 0 2.64-.65v-4.32h-2.49l-.32-2.35h6V19a11 11 0 0 1-5.71 1.63c-4.73 0-7.32-3-7.32-8.66s3.46-8.64 7.61-8.64a7.66 7.66 0 0 1 5.21 1.96zm10.73 2.14l-.53 3a4.37 4.37 0 0 0-1.13-.14c-1.53 0-2.33 1.13-2.81 3.26v6.77H253V7.59h2.67l.28 2.5c.6-1.82 1.83-2.83 3.32-2.83a4.43 4.43 0 0 1 1.25.17zM265.84 3A1.93 1.93 0 0 1 262 3a1.93 1.93 0 0 1 3.86 0zm-.38 17.26h-3.07V7.59h3.07zm14.21-17.75v17.78H277l-.22-1.61a4.22 4.22 0 0 1-3.62 2c-3.17 0-4.83-2.66-4.83-6.69s2-6.72 5.12-6.72a4.42 4.42 0 0 1 3.15 1.33V2.17zm-3.07 14.18v-5.81a3.09 3.09 0 0 0-2.43-1.34c-1.58 0-2.64 1.34-2.64 4.39 0 3.27.94 4.39 2.45 4.39a3 3 0 0 0 2.62-1.63zM131.57 42.44h-2v6.65h-3.17V32.51h5c4.34 0 6.57 1.58 6.57 4.87 0 2.25-1.1 3.6-3.36 4.49l4.35 7.22h-3.65zm-2-2.28h2c2 0 3.07-.79 3.07-2.78 0-1.8-1-2.57-3.34-2.57h-1.7zm14.79-8.33a1.93 1.93 0 1 1-1.94-1.83 1.84 1.84 0 0 1 1.94 1.83zM144 49.09h-3.1v-12.7h3.1zm14.66-12.02a11.57 11.57 0 0 1-3.67.43 3.33 3.33 0 0 1 2.3 3.26c0 2.48-1.92 4.28-5.11 4.28a4.92 4.92 0 0 1-1.51-.2 1.18 1.18 0 0 0-.53.94c0 .46.27.89 1.54.89h1.94c2.81 0 4.63 1.51 4.63 3.6 0 2.54-2.18 4-6.33 4-4.51 0-5.79-1.44-5.79-4h2.76c0 1.27.56 1.82 3.08 1.82s3.19-.67 3.19-1.68S154.42 49 153 49h-1.92c-2.55 0-3.63-1.13-3.63-2.45a2.89 2.89 0 0 1 1.49-2.35 3.69 3.69 0 0 1-2.23-3.58c0-2.76 2.18-4.56 5.26-4.56a10.3 10.3 0 0 0 5.93-1.41zm-8.85 3.48a2.2 2.2 0 0 0 2.25 2.45c1.47 0 2.26-.91 2.26-2.52s-.77-2.4-2.31-2.4a2.15 2.15 0 0 0-2.2 2.47zm21.02-.65v9.19h-3.07v-8.71c0-1.59-.63-2-1.56-2s-1.92.74-2.67 1.9v8.85h-3.07v-17.8l3.07-.31v6.89a4.6 4.6 0 0 1 3.7-1.88c2.26-.03 3.6 1.47 3.6 3.87zm10.78 8.59a5.58 5.58 0 0 1-3.2 1c-2.49 0-3.81-1.44-3.81-4.15V38.6h-2v-2.21h2v-2.8l3.07-.36v3.16h3l-.31 2.21h-2.64v6.63c0 1.25.41 1.75 1.34 1.75a3 3 0 0 0 1.52-.46zm.16-8.13H189v2.44h-7.25zm19.49 1.31h-5.9v7.42h-3.17V32.51h3.17v6.65h5.9v-6.65h3.19v16.58h-3.19zm17.24 5.69l-.65 2a2.86 2.86 0 0 1-2.85-1.8 4.37 4.37 0 0 1-3.82 1.89 3.76 3.76 0 0 1-4.08-3.91c0-2.76 2.07-4.25 5.76-4.25h1.61v-.72c0-1.65-.74-2.21-2.38-2.21a11.42 11.42 0 0 0-3.38.68l-.7-2.09a13.11 13.11 0 0 1 4.59-.92c3.41 0 4.89 1.56 4.89 4.37v5.33c.04 1.03.38 1.39 1.01 1.63zm-4-1.7v-2.57h-1.27c-2 0-3 .72-3 2.21a1.68 1.68 0 0 0 1.8 1.92 2.74 2.74 0 0 0 2.48-1.56zm17.08-5.76v9.19h-3.08v-8.71c0-1.59-.6-2-1.56-2s-1.92.74-2.66 1.92v8.83h-3.07V36.39h2.66l.24 1.66A4.74 4.74 0 0 1 228 36c2.25 0 3.58 1.47 3.58 3.9zm14.06-8.59v17.78h-2.71l-.22-1.61a4.23 4.23 0 0 1-3.63 2c-3.16 0-4.82-2.66-4.82-6.7s2-6.72 5.11-6.72a4.45 4.45 0 0 1 3.2 1.37V31zm-3.07 14.18v-5.81a3.09 3.09 0 0 0-2.43-1.34c-1.58 0-2.64 1.34-2.64 4.39 0 3.27.94 4.39 2.45 4.39a3 3 0 0 0 2.62-1.63zm24.43-7.7c0 3.81-2.76 5.52-6.51 5.52h-1.94v5.78h-3.17V32.51h4.9c4.17 0 6.72 1.7 6.72 5.28zm-3.31 0c0-2.09-1.28-3-3.44-3h-1.7v6.1h1.7c2.12.04 3.44-.68 3.44-3.1zm15.09 9.57l-.65 2a2.85 2.85 0 0 1-2.8-1.84 4.38 4.38 0 0 1-3.82 1.89 3.76 3.76 0 0 1-4.08-3.91c0-2.76 2.06-4.25 5.76-4.25h1.61v-.72c0-1.65-.75-2.21-2.38-2.21A11.36 11.36 0 0 0 269 39l-.7-2.09a13.1 13.1 0 0 1 4.58-.92c3.41 0 4.9 1.56 4.9 4.37v5.33c.04 1.07.38 1.43 1 1.67zm-4-1.7v-2.57h-1.28c-2 0-3 .72-3 2.21a1.68 1.68 0 0 0 1.8 1.92 2.74 2.74 0 0 0 2.5-1.56zm17.75-8.59a11.57 11.57 0 0 1-3.67.43 3.34 3.34 0 0 1 2.31 3.26c0 2.48-1.92 4.28-5.12 4.28a4.92 4.92 0 0 1-1.51-.2 1.18 1.18 0 0 0-.53.94c0 .46.27.89 1.54.89h1.94c2.81 0 4.64 1.51 4.64 3.6 0 2.54-2.19 4-6.34 4-4.51 0-5.79-1.44-5.79-4h2.76c0 1.27.56 1.82 3.08 1.82s3.19-.67 3.19-1.68-.74-1.41-2.16-1.41H285c-2.54 0-3.62-1.13-3.62-2.45a2.88 2.88 0 0 1 1.48-2.35 3.69 3.69 0 0 1-2.23-3.58c0-2.76 2.18-4.56 5.26-4.56a10.3 10.3 0 0 0 5.93-1.41zm-8.85 3.48a2.2 2.2 0 0 0 2.25 2.45c1.47 0 2.26-.91 2.26-2.52s-.77-2.4-2.3-2.4a2.15 2.15 0 0 0-2.21 2.47zm20.93 3.14h-8c.24 2.59 1.44 3.43 3.12 3.43a5.28 5.28 0 0 0 3.19-1.12l1.28 1.75a7.31 7.31 0 0 1-4.71 1.7c-3.93 0-6.05-2.61-6.05-6.62s2.05-6.8 5.64-6.8 5.6 2.4 5.6 6.41c0 .41-.05.92-.07 1.25zm-3-2.14c0-2.08-.74-3.33-2.47-3.33-1.44 0-2.35 1-2.52 3.48h5zM318.79 30a16.73 16.73 0 0 0-3.38 10.73 16.77 16.77 0 0 0 3.38 10.73l-2 1.32c-2.38-3.31-4.56-6.34-4.56-12.05s2.18-8.74 4.56-12zm10.7 11.94l3.24 7.15h-3.45l-2.74-6.65h-2.06l-.94 6.65h-3.14l2.33-16.58h4.84c3.94 0 5.91 1.51 5.91 4.27 0 2.01-.91 4.08-3.99 5.16zm-4.7-1.78h2a3.06 3.06 0 0 0 3.4-3.26c0-1.49-.93-2.09-2.92-2.09h-1.76zm12.7 4.28c.07 2 1.08 2.64 2.47 2.64a5.46 5.46 0 0 0 3.31-1.18l1.17 1.92a8.22 8.22 0 0 1-4.82 1.63c-3.45 0-5.23-2.06-5.23-5.28 0-3.46 1.8-8.14 6.91-8.14 2.9 0 4.39 1.56 4.39 3.36 0 3.61-4.03 4.61-8.2 5.05zm5.08-4.93a1.27 1.27 0 0 0-1.44-1.29c-2.18 0-3.17 2.14-3.5 4.18 3.37-.32 4.94-1.25 4.94-2.89zm14.96-1.96L356 39.37a3.2 3.2 0 0 0-2.33-.91c-2.88 0-3.65 3.43-3.65 5.81 0 2 .87 2.69 2.26 2.69A4.93 4.93 0 0 0 355 46l1.15 2a7.15 7.15 0 0 1-4.2 1.39c-3.24 0-5.11-2-5.11-5.35s1.85-8.04 6.8-8.04a5.35 5.35 0 0 1 3.89 1.55zm4.41 7.73c-.19 1.24.14 1.68 1 1.68a3.64 3.64 0 0 0 1.63-.46l.87 2a6.21 6.21 0 0 1-3.2.91c-2.44 0-3.67-1.51-3.28-4.2l.93-6.65h-2l.32-2.21h2.08l.8-2.88 2.54-.28-.43 3.16h2.93l-.65 2.21h-2.59zm4.54-1.18c0-3.36 1.68-8.07 6.84-8.07 3.29 0 5.11 2.07 5.11 5.33s-1.66 8.09-6.84 8.09c-3.29 0-5.11-2.04-5.11-5.35zm8.81-3c0-1.92-.72-2.76-2.14-2.76-2.86 0-3.55 3.82-3.55 6 0 1.92.74 2.78 2.16 2.78 2.85 0 3.53-3.84 3.53-6zm11.51-3.05c0 6.29-2.35 10.06-6.33 14.74l-1.83-1.39c3.51-4.3 5.14-8.43 5.14-13.71a15.22 15.22 0 0 0-2.06-7.85l2-1.17c1.62 2.71 3.08 5.33 3.08 9.38zM15.55 128c0 5.47-2.8 8.66-7.25 8.66S1 133.56 1 128s2.83-8.66 7.27-8.66 7.28 3.1 7.28 8.66zm-11.18 0c0 4.47 1.51 6.22 3.93 6.22s3.92-1.75 3.92-6.24-1.42-6.22-3.92-6.22-3.93 1.79-3.93 6.24zm24.12 8.29h-2.66l-.17-1.77a4.28 4.28 0 0 1-3.89 2.13c-2.31 0-3.53-1.49-3.53-3.93v-9.13h3.07v8.74c0 1.49.48 2 1.54 2a3.08 3.08 0 0 0 2.57-1.8v-8.93h3.07zm10.92-.6a5.54 5.54 0 0 1-3.19 1c-2.5 0-3.82-1.44-3.82-4.15v-6.7h-2v-2.21h2v-2.8l3.07-.36v3.16h3l-.31 2.21h-2.69v6.63c0 1.25.41 1.75 1.35 1.75a2.94 2.94 0 0 0 1.51-.46zm10.25-10.94l-1.2 1.8a5.85 5.85 0 0 0-3.2-1c-1.22 0-1.92.51-1.92 1.28s.51 1.22 2.67 1.82c2.59.7 4.06 1.75 4.06 4 0 2.64-2.45 4-5.36 4a7.39 7.39 0 0 1-5.06-1.8l1.53-1.73a5.72 5.72 0 0 0 3.46 1.25c1.37 0 2.26-.57 2.26-1.53s-.51-1.4-2.88-2.07c-2.62-.72-3.77-2-3.77-3.84 0-2.11 1.94-3.69 4.89-3.69a7.13 7.13 0 0 1 4.52 1.51zm6.26-5.75a1.93 1.93 0 1 1-1.92-1.84 1.84 1.84 0 0 1 1.92 1.84zm-.38 17.26h-3.08v-12.7h3.08zm14.21-17.75v17.78H67l-.21-1.61a4.24 4.24 0 0 1-3.63 2c-3.17 0-4.82-2.66-4.82-6.69s2-6.72 5.11-6.72a4.42 4.42 0 0 1 3.19 1.36v-6.43zm-3.08 14.18v-5.81a3.05 3.05 0 0 0-2.42-1.34c-1.59 0-2.64 1.34-2.64 4.39 0 3.27.93 4.39 2.45 4.39a3 3 0 0 0 2.61-1.63zm17.07-1.8h-8c.24 2.59 1.44 3.43 3.12 3.43a5.33 5.33 0 0 0 3.17-1.12l1.3 1.8a7.31 7.31 0 0 1-4.71 1.7c-3.93 0-6-2.61-6-6.62s2-6.79 5.64-6.79 5.59 2.39 5.59 6.4c-.04.36-.09.87-.11 1.2zm-3-2.14c0-2.08-.74-3.33-2.47-3.33-1.44 0-2.35 1-2.52 3.48h5zm-63.07 36.34h-3.1l-.43-6.93c-.15-2.45-.27-5-.22-6.77l-3 11.9h-3l-3.24-11.93a63.87 63.87 0 0 1-.1 6.89l-.4 6.84H1.1l1.32-16.58H6.5l3 11.61 2.78-11.61h4.13zm13.22-1.73l-.65 2a2.86 2.86 0 0 1-2.81-1.84 4.36 4.36 0 0 1-3.81 1.89 3.76 3.76 0 0 1-4.08-3.91c0-2.76 2.06-4.25 5.76-4.25h1.6v-.72c0-1.65-.74-2.21-2.37-2.21a11.42 11.42 0 0 0-3.39.68l-.69-2a13.1 13.1 0 0 1 4.55-1c3.41 0 4.9 1.56 4.9 4.37v5.33c.03 1.06.36 1.42.99 1.66zm-4-1.7v-2.57h-1.26c-2 0-3 .72-3 2.21a1.68 1.68 0 0 0 1.8 1.92 2.73 2.73 0 0 0 2.47-1.56zm14.25-9.43l-.53 3a4.43 4.43 0 0 0-1.13-.14c-1.54 0-2.33 1.13-2.81 3.26v6.77H33.6v-12.7h2.66l.29 2.5c.6-1.82 1.83-2.83 3.31-2.83a4.45 4.45 0 0 1 1.28.14zm12.65.84a11.64 11.64 0 0 1-3.68.43 3.34 3.34 0 0 1 2.31 3.26c0 2.48-1.92 4.28-5.12 4.28a4.92 4.92 0 0 1-1.51-.2 1.18 1.18 0 0 0-.53.94c0 .46.27.89 1.54.89h2c2.8 0 4.63 1.51 4.63 3.6 0 2.54-2.19 4-6.34 4-4.51 0-5.78-1.44-5.78-4H44c0 1.27.55 1.82 3.07 1.82s3.19-.67 3.19-1.68-.72-1.41-2.14-1.41H46.2c-2.54 0-3.62-1.13-3.62-2.45a2.88 2.88 0 0 1 1.48-2.35 3.69 3.69 0 0 1-2.23-3.58c0-2.76 2.19-4.56 5.26-4.56a10.3 10.3 0 0 0 5.91-1.44zm-8.86 3.48a2.2 2.2 0 0 0 2.25 2.45c1.47 0 2.26-.91 2.26-2.52s-.77-2.4-2.3-2.4a2.16 2.16 0 0 0-2.21 2.47zM59 147.83a1.93 1.93 0 1 1-1.9-1.83 1.84 1.84 0 0 1 1.9 1.83zm-.38 17.26h-3.04v-12.7h3.08zm14-9.19v9.19h-3.07v-8.71c0-1.59-.6-2-1.56-2s-1.92.74-2.66 1.92v8.83h-3.07v-12.7h2.66l.24 1.66A4.74 4.74 0 0 1 69 152c2.3 0 3.62 1.47 3.62 3.9zM7.2 174.76a18.72 18.72 0 0 0 0 21.46l-2 1.32c-2.37-3.31-4.56-6.34-4.56-12s2.19-8.74 4.56-12.05zm12.8 5.07h-4.28v14.06h-3.19v-14.06H8.06v-2.52h12.32zm12.67 4.87v9.19h-3.08v-8.71c0-1.59-.62-2-1.56-2s-1.92.74-2.66 1.9v8.85H22.3v-17.8l3.07-.31v6.89a4.58 4.58 0 0 1 3.69-1.88c2.26 0 3.61 1.47 3.61 3.87zm13.55 9.19h-2.66l-.17-1.77a4.26 4.26 0 0 1-3.89 2.13c-2.3 0-3.52-1.49-3.52-3.93v-9.13h3.07v8.74c0 1.49.48 2 1.53 2a3.07 3.07 0 0 0 2.57-1.8v-8.93h3.07zm20.43-9.19v9.19h-3.07v-8.71c0-1.59-.63-2-1.4-2-1 0-1.7.74-2.4 1.92v8.83h-3.07v-8.71c0-1.59-.65-2-1.39-2-1.08 0-1.73.74-2.42 1.92v8.83h-3.08v-12.7h2.67l.24 1.66a4.31 4.31 0 0 1 3.67-2 3.1 3.1 0 0 1 3.07 2.07 4.53 4.53 0 0 1 3.82-2.14c2.01-.03 3.36 1.44 3.36 3.84zm14.73 2.83c0 4-1.89 6.72-5 6.72A4.18 4.18 0 0 1 73 192.6l-.19 1.29H70.1v-17.78l3.07-.34v6.86a4.27 4.27 0 0 1 3.51-1.8c2.95 0 4.7 2.45 4.7 6.7zm-3.21 0c0-3.38-1-4.39-2.47-4.39a3.05 3.05 0 0 0-2.53 1.73v5.61a2.78 2.78 0 0 0 2.36 1.52c1.56 0 2.64-1.28 2.64-4.47zm9.09 4.78a1.94 1.94 0 1 1-1.94-1.95 1.94 1.94 0 0 1 1.94 1.95zm-.67-4.31H84l-.38-10.73H87zm8.74-2.51c0 5.71-2.16 8.74-4.56 12l-2-1.32a18.68 18.68 0 0 0 0-21.46l2-1.32c2.4 3.36 4.56 6.39 4.56 12.1z" class="e8c1b957-0526-4ab5-b60c-40a9fabf1863" transform="translate(-.67 -1.16)"/><path d="M187.06 135.13v684" class="eff9dd60-df2e-419b-84ab-65190c5f6331"/><path d="M240.77 135.13v684m8-684v684" class="bfc69d63-fe28-43a6-a36d-290632dbb139"/><path d="M302.48 135.13v684m8-684v684" class="eff9dd60-df2e-419b-84ab-65190c5f6331"/><path d="M364.19 135.13v684m8-684v684" class="bfc69d63-fe28-43a6-a36d-290632dbb139"/><path d="M425.9 135.13v684m8-684v684" class="eff9dd60-df2e-419b-84ab-65190c5f6331"/><path d="M487.61 135.13v684m8-684v684" class="bfc69d63-fe28-43a6-a36d-290632dbb139"/><path d="M549.32 135.13v684m8-684v684" class="eff9dd60-df2e-419b-84ab-65190c5f6331"/><path d="M611.03 135.13v684m8-684v684" class="bfc69d63-fe28-43a6-a36d-290632dbb139"/><path d="M187.06 221.63h484.79m-484.79-8h484.79m-484.79 94.5h484.79m-484.79-8h484.79m-484.79 94.5h484.79m-484.79-8h484.79m-484.79 94.5h484.79m-484.79-8h484.79m-484.79 94.5h484.79m-484.79-8h484.79m-484.79 94.5h484.79m-484.79-8h484.79m-484.79 94.5h484.79m-484.79-8h484.79" class="bfc4a347-b3c0-4efa-bc13-abb5f899b5a9"/><path d="M671.85 135.13v684m-484.79-684h484.79m-484.79 684h484.79" class="eff9dd60-df2e-419b-84ab-65190c5f6331"/><path d="M187.06 135.49h53.71v78.5h-53.71z" class="fbcbc42c-f8a0-4e82-8b14-bbd7b2dd6c00"/><path d="M203.88 180.33h-2.27v-9.8l-2.7 1.64-1-1.55 3.95-2.41h2zm15.27 0h-2.67l-2-3.79-2 3.79H210l3.16-5-2.84-4.5H213l1.62 3.24 1.6-3.24h2.5l-2.72 4.4zm10.85 0h-2.27v-9.8l-2.7 1.64-1-1.55 3.95-2.41h2z" class="a634fc5f-9ec2-4c7e-a0f4-5856a8b830ba" transform="translate(-.67 -1.16)"/><path d="M433.9 221.63h115.42v78.5H433.9z" class="fbcbc42c-f8a0-4e82-8b14-bbd7b2dd6c00"/><path d="M481.06 266.47h-2.27v-9.8l-2.7 1.64-1-1.55 3.94-2.41h2zm15.27 0h-2.67l-2-3.79-1.94 3.79h-2.54l3.17-5-2.85-4.5h2.63l1.62 3.24 1.6-3.24h2.51l-2.76 4.43zm12.58-8.94c0 2.06-1.17 3.55-4.92 7.12h5.19l-.25 1.82h-7.55v-1.7c4.14-4.21 5.15-5.34 5.15-7.06a1.63 1.63 0 0 0-1.74-1.76 2.87 2.87 0 0 0-2.34 1.28l-1.45-1.12a4.74 4.74 0 0 1 3.93-2c2.54.02 3.98 1.53 3.98 3.42z" class="a634fc5f-9ec2-4c7e-a0f4-5856a8b830ba" transform="translate(-.67 -1.16)"/><path d="M310.48 308.13H425.9v165H310.48z" class="fbcbc42c-f8a0-4e82-8b14-bbd7b2dd6c00"/><path d="M358.88 387.28c0 2.06-1.17 3.55-4.92 7.12h5.19l-.25 1.82h-7.55v-1.7c4.14-4.21 5.15-5.34 5.15-7.06a1.63 1.63 0 0 0-1.75-1.76 2.9 2.9 0 0 0-2.34 1.28l-1.4-1.12a4.73 4.73 0 0 1 3.92-2c2.51.02 3.95 1.53 3.95 3.42zm14.54 8.94h-2.66l-2-3.79-1.94 3.79h-2.54l3.17-5-2.84-4.5h2.62l1.62 3.24 1.61-3.24H373l-2.75 4.43zm12.58-8.94c0 2.06-1.17 3.55-4.91 7.12h5.18l-.25 1.82h-7.54v-1.7c4.14-4.21 5.15-5.34 5.15-7.06a1.64 1.64 0 0 0-1.75-1.76 2.9 2.9 0 0 0-2.34 1.28l-1.4-1.12a4.73 4.73 0 0 1 3.92-2c2.5.02 3.94 1.53 3.94 3.42z" class="a634fc5f-9ec2-4c7e-a0f4-5856a8b830ba" transform="translate(-.67 -1.16)"/><path d="M433.9 308.13h238.84v165H433.9zm-123.42 259.5h362.26v251.5H310.48z" class="fbcbc42c-f8a0-4e82-8b14-bbd7b2dd6c00"/><path d="M544.94 393.44h-1.46v2.77h-2.25v-2.77h-5.15v-1.58l3.53-8 2 .74-3.1 7.08h2.78l.23-3.05h2v3.05h1.46zm14 2.77h-2.67l-2-3.78-1.94 3.78h-2.54l3.17-5-2.85-4.5h2.63l1.62 3.24 1.6-3.24h2.51l-2.76 4.43zm12.58-8.93c0 2.06-1.17 3.55-4.91 7.12h5.18l-.25 1.81H564v-1.69c4.14-4.21 5.15-5.35 5.15-7.06a1.64 1.64 0 0 0-1.75-1.76 2.87 2.87 0 0 0-2.34 1.28l-1.41-1.12a4.75 4.75 0 0 1 3.93-2c2.5.02 3.94 1.53 3.94 3.42zm-88.45 307.56a4.11 4.11 0 0 1-4.14 4.4c-3.1 0-4.37-2.4-4.37-5.87 0-4 1.89-6.74 5-6.74a4.67 4.67 0 0 1 2.65.78l-.86 1.42a3.36 3.36 0 0 0-1.75-.49c-1.53 0-2.5 1.46-2.63 3.89a3.4 3.4 0 0 1 2.72-1.33c1.85 0 3.38 1.37 3.38 3.94zm-2.32 0c0-1.73-.63-2.31-1.66-2.31a2.73 2.73 0 0 0-2.14 1.25c0 2.59.59 3.71 2 3.71 1.21.04 1.8-1.03 1.8-2.61zM497.2 699h-2.66l-2-3.79-1.91 3.79h-2.54l3.17-5-2.84-4.5H491l1.62 3.24 1.61-3.24h2.5l-2.73 4.37zm12.46-9.29a2.86 2.86 0 0 1-2.36 2.85 2.8 2.8 0 0 1 2.75 3c0 2.07-1.62 3.73-4.39 3.73a4.9 4.9 0 0 1-3.93-1.75l1.28-1.23a3.36 3.36 0 0 0 2.52 1.18 2 2 0 0 0 2.15-2c0-1.44-.81-1.94-2.18-1.94h-1l.27-1.64h.65a1.76 1.76 0 0 0 2-1.84 1.58 1.58 0 0 0-1.79-1.58 3.35 3.35 0 0 0-2.43 1.06l-1.2-1.37a5.32 5.32 0 0 1 3.8-1.55c2.52 0 3.86 1.37 3.86 3.08z" class="a634fc5f-9ec2-4c7e-a0f4-5856a8b830ba" transform="translate(-.67 -1.16)"/></g></g></svg>