<svg xmlns="http://www.w3.org/2000/svg" id="Layer_1" viewBox="0 0 800 875.5" width="800" height="875.5"><style>.st0,.st1{fill:none;stroke:#231f20;stroke-miterlimit:10}.st1{stroke:#ec1c24}.st2{fill:#6d6e70}.st3{fill:#b2b3b3}.st4{stroke:#969696}.st4,.st5,.st6{fill:none;stroke-miterlimit:10}.st5{stroke-width:.5;stroke-dasharray:8;stroke:#c8c8c8}.st6{stroke:#b2b3b3}.st7{fill:#2997ff}.st8{fill:#fff}</style><g id="f3f48af8-aa83-40c1-a710-587bb46acbe4"><g id="ab3fb314-f083-4eb2-9fd1-8c7a50548506"><path d="M680.9 18v46.8M108 18v46.8m572.9 763.9v46.8M108 828.7v46.8M50 76h46.8M50 817.4h46.8M692.1 76H739m-46.9 741.4H739" class="st0"/><path d="M689.3 67.6v758.3H99.6V67.6h589.7z" class="st1"/><path d="M108 76h572.9v741.4H108V76z" class="st0"/><path d="M713.4 126.6h-3v-15.5h3v15.5zm13.2-8.6v8.6h-2.9v-8.2c0-1.5-.6-1.9-1.5-1.9s-1.8.7-2.5 1.8v8.3h-2.9v-11.9h2.5l.2 1.6c.8-1.2 2.2-1.9 3.6-1.9 2.2 0 3.5 1.3 3.5 3.6zm11.2-2.2l-1.1 1.7c-.9-.6-1.9-.9-3-.9s-1.8.5-1.8 1.2.5 1.1 2.5 1.7c2.4.7 3.8 1.6 3.8 3.7 0 2.5-2.3 3.7-5 3.7-1.7.1-3.4-.5-4.7-1.7l1.4-1.6c.9.7 2.1 1.1 3.2 1.2 1.3 0 2.1-.5 2.1-1.4 0-.9-.5-1.3-2.7-1.9-2.4-.7-3.5-1.9-3.5-3.6 0-2 1.9-3.5 4.6-3.5 1.5-.1 3 .4 4.2 1.4zm5.9-5.4c0 1-.7 1.8-1.8 1.9-1 0-1.8-.7-1.9-1.8 0-1 .7-1.8 1.8-1.9 1-.1 1.8.6 1.9 1.6v.2zm-.4 16.1h-2.9v-11.9h2.9v11.9zm13.3-16.6v16.6h-2.5l-.2-1.5c-.7 1.2-2 1.9-3.4 1.9-3 0-4.5-2.5-4.5-6.3s1.9-6.3 4.8-6.3c1.1 0 2.2.5 3 1.3v-6l2.8.3zm-2.9 13.3v-5.4c-.5-.8-1.4-1.2-2.3-1.3-1.5 0-2.5 1.3-2.5 4.1 0 3.1.9 4.1 2.3 4.1 1.1 0 2.1-.6 2.5-1.5zm16-1.7h-7.5c.2 2.4 1.3 3.2 2.9 3.2 1.1 0 2.1-.4 3-1l1.2 1.6c-1.2 1-2.8 1.6-4.4 1.6-3.7 0-5.6-2.4-5.6-6.2s1.9-6.4 5.3-6.4 5.2 2.2 5.2 6c0 .4-.1.9-.1 1.2zm-2.8-2c0-1.9-.7-3.1-2.3-3.1-1.3 0-2.2.9-2.4 3.3h4.7v-.2zm-41.8 34h-2.9l-.4-6.5c-.1-2.3-.2-4.7-.2-6.3l-2.8 11.1H716l-3-11.2c.1 2.1.1 4.3-.1 6.4l-.4 6.4h-2.9l1.2-15.5h3.8l2.8 10.9 2.6-10.9h3.9l1.2 15.6zm12.4-1.6l-.6 1.9c-1.2.1-2.2-.6-2.6-1.7-.8 1.2-2.2 1.8-3.6 1.8-1.9.2-3.6-1.3-3.8-3.2v-.5c0-2.6 1.9-4 5.4-4h1.5v-.7c0-1.5-.7-2.1-2.2-2.1-1.1 0-2.1.3-3.2.6l-.7-1.9c1.4-.5 2.8-.8 4.3-.9 3.2 0 4.6 1.5 4.6 4.1v5c0 1.1.3 1.4.9 1.6zm-3.8-1.6v-2.4h-1.2c-1.9 0-2.8.7-2.8 2.1-.1.9.5 1.7 1.3 1.8h.4c1 0 1.9-.6 2.3-1.5zm13.4-8.8l-.5 2.8c-.3-.1-.7-.1-1.1-.1-1.4 0-2.2 1.1-2.6 3.1v6.3H740v-11.9h2.5l.3 2.3c.6-1.7 1.7-2.6 3.1-2.6.4 0 .8 0 1.2.1zm11.8.8c-1.1.3-2.3.5-3.4.4 1.3.4 2.2 1.7 2.2 3.1 0 2.3-1.8 4-4.8 4-.5 0-1-.1-1.4-.2-.3.2-.5.5-.5.9s.2.8 1.4.8h1.8c2.6 0 4.3 1.4 4.3 3.4 0 2.4-2 3.7-5.9 3.7-4.2 0-5.4-1.3-5.4-3.7h2.6c0 1.2.5 1.7 2.9 1.7s3-.6 3-1.6-.7-1.4-2-1.4h-1.8c-2.4 0-3.4-1.1-3.4-2.3.1-.9.6-1.8 1.4-2.2-1.3-.6-2.2-1.9-2.1-3.4 0-2.6 2-4.3 4.9-4.3 1.9.1 3.9-.3 5.6-1.3l.6 2.4zm-8.3 3.2c-.2 1.1.6 2.2 1.8 2.3h.3c1.4 0 2.1-.9 2.1-2.4s-.7-2.2-2.2-2.2c-1.1 0-2 .8-2.1 2 .1.1.1.2.1.3zm13.2-8.1c0 1-.8 1.8-1.7 1.9-1 0-1.8-.8-1.9-1.7 0-1 .8-1.8 1.7-1.9.9-.1 1.8.7 1.8 1.6.1 0 .1 0 .1.1zm-.3 16.1h-2.9v-11.9h2.9v11.9zm13.1-8.6v8.6h-2.9v-8.2c0-1.5-.6-1.9-1.5-1.9s-1.8.7-2.5 1.8v8.3h-2.9v-11.9h2.5l.2 1.6c.8-1.2 2.2-1.9 3.6-1.9 2.2 0 3.5 1.4 3.5 3.6zm-61.3 17.7c-4.2 6-4.2 14.1 0 20.1l-1.9 1.2c-2.2-3.1-4.3-5.9-4.3-11.2 0-5.3 2-8.2 4.3-11.3l1.9 1.2zm13.5 13.4c0 3.4-2.7 4.5-6.5 4.5h-4.7V165h4.1c4 0 6.4 1.1 6.4 4 0 1.7-1.2 3.1-2.9 3.4 1.9.2 3.6 1 3.6 3.6zm-8.2-8.9v4.2h1.8c1.6 0 2.7-.7 2.7-2.2 0-1.5-1.1-2-3.1-2h-1.4zm5.1 8.8c0-1.9-1.3-2.5-3.1-2.5h-2.1v4.9h1.7c2.1 0 3.5-.4 3.5-2.4zm8.8-11.6c0 1-.7 1.8-1.7 1.9-1 0-1.8-.7-1.9-1.7 0-1 .7-1.8 1.7-1.9h.1c.9-.1 1.8.7 1.8 1.6v.1zm-.3 16.2h-2.9v-11.9h2.9v11.9zm13-8.6v8.6h-2.9v-8.2c0-1.5-.6-1.9-1.5-1.9s-1.8.7-2.5 1.8v8.3h-2.9v-11.9h2.5l.2 1.6c.8-1.2 2.2-1.9 3.6-1.9 2.3 0 3.5 1.3 3.5 3.6zm13.3-8v16.6H758l-.2-1.5c-.7 1.2-2 1.9-3.4 1.9-3 0-4.5-2.5-4.5-6.3s1.9-6.3 4.8-6.3c1.1 0 2.2.5 3 1.3v-6l2.8.3zm-2.9 13.2v-5.4c-.5-.8-1.4-1.2-2.3-1.3-1.5 0-2.5 1.3-2.5 4.1 0 3.1.9 4.1 2.3 4.1 1.1 0 2-.6 2.5-1.5zm9.4-12.8c0 1-.8 1.8-1.7 1.9-1 0-1.8-.8-1.9-1.7 0-1 .8-1.8 1.7-1.9.9-.1 1.8.7 1.8 1.6l.1.1zm-.3 16.2h-2.9v-11.9h2.9v11.9zm13-8.6v8.6h-2.9v-8.2c0-1.5-.6-1.9-1.5-1.9s-1.8.7-2.5 1.8v8.3H770v-11.9h2.5l.2 1.6c.8-1.2 2.2-1.9 3.6-1.9 2.2 0 3.4 1.3 3.4 3.6zm13.7-2.7c-1.1.3-2.3.5-3.4.4 1.3.4 2.2 1.7 2.2 3.1 0 2.3-1.8 4-4.8 4-.5 0-1 0-1.4-.2-.3.2-.5.5-.5.9s.2.8 1.4.8h1.9c2.6 0 4.3 1.4 4.3 3.4 0 2.4-2 3.8-5.9 3.8-4.2 0-5.4-1.3-5.4-3.7h2.6c0 1.2.5 1.7 2.9 1.7s3-.6 3-1.6-.7-1.4-2-1.4h-1.8c-2.4 0-3.4-1.1-3.4-2.3.1-.9.6-1.8 1.4-2.2-1.3-.6-2.2-1.9-2.1-3.4 0-2.6 2-4.3 4.9-4.3 1.9.1 3.9-.3 5.6-1.3l.5 2.3zm-8.3 3.3c-.2 1.1.6 2.2 1.8 2.3h.3c1.4 0 2.1-.9 2.1-2.4s-.7-2.2-2.2-2.2c-1.1 0-2 .8-2.1 2 0 .1 0 .2.1.3zm14.9.1c0 5.3-2 8.2-4.3 11.2l-1.8-1.2c4.2-6 4.2-14.1 0-20.1l1.8-1.2c2.3 3.2 4.3 6 4.3 11.3z" class="st2"/><path d="M197.1 787.9h-1.7v-5.4l-1.6.9-.7-1.1 2.5-1.5h1.5v7.1zm7.3-7.5l-6.9 13.5-1.3-.6 6.9-13.5 1.3.6zm3.4 10.2c0 1.1-1.1 2.1-2.9 2.1-1.8 0-2.8-.9-2.8-2.1 0-.8.6-1.5 1.4-1.8-.7-.3-1.1-.9-1.1-1.7 0-1.1 1.1-1.9 2.6-1.9s2.5.7 2.5 1.8c-.1.7-.5 1.3-1.2 1.6 1 .6 1.5 1.2 1.5 2zm-1.7 0c0-.6-.3-.8-1.2-1.1l-.4-.1c-.5.2-.8.7-.7 1.2 0 .6.4.9 1.2.9.7 0 1.1-.4 1.1-.9zm-2.1-3.4c0 .5.3.8.9.9l.2.1c.4-.2.7-.6.7-1.1 0-.5-.3-.8-.9-.8s-.9.4-.9.9zm-52.6-57.9c0 1.1-1.1 2.1-2.9 2.1s-2.8-.9-2.8-2.1c0-.8.6-1.5 1.4-1.8-.7-.3-1.1-.9-1.1-1.7 0-1.1 1.1-1.9 2.6-1.9s2.5.7 2.5 1.8c-.1.7-.5 1.3-1.2 1.6 1 .6 1.5 1.2 1.5 2zm-1.7 0c0-.6-.3-.8-1.2-1.1l-.4-.1c-.5.2-.8.7-.7 1.2 0 .6.4.9 1.2.9.7 0 1.1-.4 1.1-.9zm-2.1-3.4c0 .5.3.8.9.9l.2.1c.4-.2.7-.6.7-1.1 0-.5-.3-.8-.9-.8-.6.1-.9.4-.9.9zm9.7-2.2l-6.9 13.5-1.3-.6 6.9-13.5 1.3.6zm3.4 10.2c0 1.1-1.1 2.1-2.9 2.1-1.8 0-2.8-.9-2.8-2.1 0-.8.6-1.5 1.4-1.8-.7-.3-1.1-.9-1.1-1.7 0-1.1 1.1-1.9 2.6-1.9s2.5.7 2.5 1.9c-.1.7-.6 1.2-1.2 1.5 1 .6 1.5 1.2 1.5 2zm-1.7 0c0-.6-.3-.8-1.2-1.1l-.4-.1c-.5.2-.8.7-.8 1.2 0 .6.4.9 1.2.9.8 0 1.2-.4 1.2-.9zm-2.1-3.4c0 .5.3.8.9 1l.2.1c.4-.2.7-.6.7-1.1 0-.5-.3-.8-.9-.8s-.9.3-.9.8zm-6-85.9l-2.7 6.1-1.5-.5 2.5-5.4h-3v-1.3h4.7v1.1zm6.4-1.6l-6.9 13.5-1.3-.6 6.9-13.5 1.3.6zm3.4 10.2c0 1.1-1.1 2.1-2.9 2.1-1.8 0-2.8-.9-2.8-2.1 0-.8.6-1.5 1.4-1.8-.7-.3-1.1-1-1.1-1.7 0-1.1 1.1-1.9 2.6-1.9s2.5.7 2.5 1.8c-.1.7-.5 1.3-1.2 1.6 1 .6 1.5 1.2 1.5 2zm-1.7 0c0-.6-.3-.8-1.2-1.1l-.4-.1c-.5.2-.8.7-.7 1.2 0 .6.4.9 1.2.9.7 0 1.1-.4 1.1-.9zm-2.1-3.4c0 .5.3.8.9.9l.2.1c.4-.2.7-.6.7-1.1 0-.5-.3-.8-.9-.8s-.9.3-.9.9zm-5.6-82.5c0 1.4-1.1 2.6-2.5 2.6h-.2c-2 0-2.8-1.4-2.8-3.4 0-2.4 1.2-4 3.2-4 .6 0 1.2.1 1.7.5l-.6 1c-.3-.2-.7-.3-1-.3-.9 0-1.4.7-1.5 2 .4-.4 1-.7 1.6-.7 1.1 0 2.1.9 2.1 2v.3zm-1.7 0c0-.9-.3-1.2-.9-1.2-.4 0-.8.2-1.1.5 0 1.5.3 2 1 2s1-.4 1-1.3zm7.7-5.1l-6.9 13.5-1.3-.6 6.9-13.5 1.3.6zm3.4 10.2c0 1.1-1.1 2.1-2.9 2.1-1.8 0-2.8-.9-2.8-2.1 0-.8.6-1.5 1.4-1.8-.7-.3-1.1-.9-1.1-1.7 0-1.1 1.1-1.9 2.6-1.9s2.5.7 2.5 1.8c-.1.7-.5 1.3-1.2 1.6 1 .6 1.5 1.2 1.5 2zm-1.7 0c0-.6-.3-.8-1.2-1.1l-.4-.1c-.5.2-.8.7-.7 1.2 0 .6.4.9 1.2.9.7 0 1.1-.4 1.1-.9zm-2.1-3.3c0 .5.3.8.9.9l.2.1c.4-.2.7-.6.7-1.1 0-.5-.3-.8-.9-.8s-.9.3-.9.9zm-6.2-86H148v1.5c.4-.2.7-.3 1.1-.3 1.2 0 2.1.9 2.1 2v.3c0 1.5-1.1 2.5-2.9 2.5-.9 0-1.8-.4-2.5-1.1l1-.9c.3.4.9.7 1.4.7.6.1 1.2-.4 1.2-1v-.2c0-.9-.4-1.2-1-1.2-.3 0-.7.1-.9.3h-1.1v-3.8h4.5l-.2 1.2zm6.6-1.6l-6.9 13.5-1.3-.6 6.9-13.5 1.3.6zm3.4 10.2c0 1.1-1.1 2.1-2.9 2.1-1.8 0-2.8-.9-2.8-2.1 0-.8.6-1.5 1.4-1.8-.7-.3-1.1-.9-1.1-1.7 0-1.1 1.1-1.9 2.6-1.9s2.5.7 2.5 1.9c-.1.7-.5 1.3-1.2 1.6 1 .5 1.5 1.1 1.5 1.9zm-1.7 0c0-.6-.3-.8-1.2-1.1l-.4-.1c-.5.2-.8.7-.7 1.2 0 .6.4.9 1.2.9.7 0 1.1-.4 1.1-.9zm-2.1-3.4c0 .5.3.8.9.9l.2.1c.4-.2.7-.6.7-1.1 0-.5-.3-.8-.9-.8s-.9.4-.9.9zm-5.6-81.5h-.8v1.5h-1.6v-1.5h-3.2v-1.1l2.1-4.6 1.4.5-1.8 3.9h1.5l.3-1.7h1.3v1.7h.8v1.3zm6-6l-6.9 13.5-1.3-.6 6.9-13.5 1.3.6zm3.4 10.2c0 1.1-1.1 2.1-2.9 2.1-1.8 0-2.8-.9-2.8-2.1 0-.8.6-1.5 1.4-1.8-.7-.3-1.1-.9-1.1-1.7 0-1.1 1.1-1.9 2.6-1.9s2.5.7 2.5 1.8c-.1.7-.5 1.3-1.2 1.6 1 .5 1.5 1.2 1.5 2zm-1.7 0c0-.6-.3-.8-1.2-1.1l-.4-.1c-.5.2-.8.7-.8 1.2 0 .6.4.9 1.2.9.8-.1 1.2-.4 1.2-.9zm-2.1-3.4c0 .5.3.8.9 1l.2.1c.4-.2.7-.6.7-1.1 0-.5-.3-.8-.9-.8s-.9.2-.9.8zm-5.9-85.4c0 .9-.7 1.6-1.5 1.6.9 0 1.7.7 1.8 1.6v.1c0 1.2-1 2.2-2.8 2.2-1 0-1.9-.4-2.5-1.1l.9-.9c.4.4.9.7 1.5.7.7 0 1.2-.4 1.2-1s-.4-1-1.2-1h-.6l.2-1.2h.4c.7 0 1.1-.3 1.1-.9s-.4-.8-1-.8c-.5 0-1.1.2-1.5.6l-.8-.9c.7-.6 1.6-1 2.5-.9 1.4 0 2.3.9 2.3 1.9zm6.3-2.1l-6.9 13.5-1.3-.6 6.9-13.5 1.3.6zm3.4 10.1c0 1.1-1.1 2.1-2.9 2.1-1.8 0-2.8-.9-2.8-2.1 0-.8.6-1.5 1.4-1.8-.7-.3-1.1-1-1.1-1.7 0-1.1 1.1-1.9 2.6-1.9s2.5.7 2.5 1.8c-.1.7-.5 1.4-1.2 1.6 1 .6 1.5 1.2 1.5 2zm-1.7 0c0-.6-.3-.8-1.2-1.1l-.4-.1c-.5.2-.8.7-.7 1.2 0 .6.4.9 1.2.9.7 0 1.1-.4 1.1-.9zm-2.1-3.3c0 .5.3.8.9.9l.2.1c.4-.2.7-.6.7-1.1 0-.5-.3-.8-.9-.8s-.9.3-.9.9zm-5.9-85.3c0 1.1-.6 1.9-2.9 3.8h3.1l-.2 1.3h-4.8v-1.2c2.5-2.3 3.1-3 3.1-3.8 0-.5-.3-.9-.8-.9h-.2c-.5 0-1.1.3-1.4.7l-1-.8c.6-.8 1.5-1.2 2.5-1.2 1.7.1 2.6 1 2.6 2.1zm6.3-2.3l-6.9 13.5-1.3-.6 6.9-13.5 1.3.6zm3.4 10.2c0 1.1-1.1 2.1-2.9 2.1-1.8 0-2.8-.9-2.8-2.1 0-.8.6-1.5 1.4-1.8-.7-.3-1.1-1-1.1-1.7 0-1.1 1.1-1.9 2.6-1.9s2.5.7 2.5 1.8c-.1.7-.5 1.3-1.2 1.6 1 .6 1.5 1.2 1.5 2zm-1.7 0c0-.6-.3-.8-1.2-1.1l-.4-.1c-.5.2-.8.7-.7 1.2 0 .6.4.9 1.2.9.7 0 1.1-.4 1.1-.9zm-2.1-3.4c0 .5.3.8.9.9l.2.1c.4-.2.7-.6.7-1.1 0-.5-.3-.8-.9-.8s-.9.4-.9.9zm-6.9-80h-1.6v-5.4l-1.6.9-.7-1.1 2.5-1.5h1.5v7.1zm7.3-7.5l-6.9 13.5-1.3-.6L156 158l1.3.6zm3.4 10.2c0 1.1-1.1 2.1-2.9 2.1-1.8 0-2.8-.9-2.8-2.1 0-.8.6-1.5 1.4-1.8-.7-.3-1.1-.9-1.1-1.7 0-1.1 1.1-1.9 2.6-1.9s2.5.7 2.5 1.8c-.1.7-.5 1.3-1.2 1.6 1 .5 1.5 1.2 1.5 2zm-1.7 0c0-.6-.3-.8-1.2-1.1l-.4-.1c-.5.2-.8.7-.7 1.2 0 .6.4.9 1.2.9.7 0 1.1-.4 1.1-.9zm-2.1-3.4c0 .5.3.8.9.9l.2.1c.4-.2.7-.6.7-1.1 0-.5-.3-.8-.9-.8s-.9.3-.9.9zm98.9 617.4c0 1.1-.6 1.9-2.9 3.8h3.1l-.2 1.3H251v-1.2c2.5-2.3 3.1-3 3.1-3.8 0-.5-.3-.9-.8-.9h-.1c-.5 0-1.1.3-1.4.7l-1-.8c.6-.8 1.5-1.2 2.5-1.2 1.7 0 2.5.9 2.5 2.1zm6.4-2.4l-6.9 13.5-1.3-.6 6.9-13.5 1.3.6zm3.3 10.2c0 1.1-1.1 2.1-2.9 2.1s-2.8-.9-2.8-2.1c0-.8.6-1.5 1.4-1.8-.7-.3-1.1-.9-1.1-1.7 0-1.1 1.1-1.9 2.6-1.9s2.5.7 2.5 1.8c-.1.7-.5 1.3-1.2 1.6 1.1.6 1.5 1.2 1.5 2zm-1.6 0c0-.6-.3-.8-1.2-1.1l-.4-.1c-.5.2-.8.7-.7 1.2 0 .6.4.9 1.2.9.7 0 1.1-.4 1.1-.9zm-2.1-3.4c0 .5.3.8.9.9l.2.1c.4-.2.7-.6.7-1.1 0-.5-.3-.8-.9-.8-.6.1-.9.4-.9.9zm51.8-4.7c-.9.1-1.6 1-1.4 1.9.1.8.8 1.4 1.7 1.4 0 1.2-1 2.2-2.8 2.2-1 0-1.9-.4-2.5-1.1l.9-.9c.4.4.9.7 1.5.7.7 0 1.2-.4 1.2-1 0-.7-.4-1-1.2-1h-.6l.2-1.1h.4c.7 0 1.1-.3 1.1-.9 0-.6-.4-.8-1-.8-.5 0-1.1.2-1.5.6l-.8-.9c.7-.6 1.6-1 2.5-.9 1.4 0 2.3.8 2.3 1.8zm6.3-2.1l-6.9 13.5-1.3-.6 6.9-13.5 1.3.6zm3.4 10.2c0 1.1-1.1 2.1-2.9 2.1-1.8 0-2.8-.9-2.8-2.1 0-.8.6-1.5 1.4-1.8-.7-.3-1.1-.9-1.1-1.7 0-1.1 1.1-1.9 2.6-1.9s2.5.7 2.5 1.8c-.1.7-.5 1.3-1.2 1.6 1 .6 1.5 1.2 1.5 2zm-1.7 0c0-.6-.3-.8-1.2-1.1l-.4-.1c-.5.2-.8.7-.7 1.2 0 .6.4.9 1.2.9.7 0 1.1-.4 1.1-.9zm-2-3.4c0 .5.3.8.9.9l.2.1c.4-.2.7-.6.7-1 0-.5-.3-.8-.9-.8-.6 0-.9.3-.9.8zm52.2-.8h-.8v1.5h-1.6v-1.5h-3.2v-1.1l2.1-4.6 1.4.5-1.8 3.9h1.5l.3-1.7h1.3v1.7h.8v1.3zm5.9-6l-6.9 13.5-1.3-.6 6.9-13.5 1.3.6zm3.4 10.2c0 1.1-1.1 2.1-2.9 2.1-1.8 0-2.8-.9-2.8-2.1 0-.8.6-1.5 1.4-1.8-.6-.3-1.1-1-1.1-1.7 0-1.1 1.1-1.9 2.6-1.9s2.5.7 2.5 1.8c-.1.7-.5 1.3-1.2 1.6 1 .6 1.5 1.2 1.5 2zm-1.7 0c0-.6-.3-.8-1.2-1.1l-.4-.1c-.5.2-.8.7-.7 1.2 0 .6.4.9 1.2.9s1.1-.4 1.1-.9zm-2.1-3.4c0 .5.3.8.9.9l.2.1c.4-.2.7-.6.7-1.1 0-.5-.3-.8-.9-.8-.6.1-.9.4-.9.9zm51.5-5.2h-2.7v1.5c.4-.2.7-.3 1.1-.3 1.2 0 2.1.9 2.1 2v.3c0 1.5-1.1 2.5-2.9 2.5-.9 0-1.8-.4-2.5-1.1l.9-.9c.3.4.9.7 1.4.7.6.1 1.1-.4 1.2-1v-.3c0-.9-.4-1.2-1-1.2-.3 0-.7.1-.9.3h-1.2v-3.8h4.7l-.2 1.3zm6.7-1.6l-6.9 13.5-1.3-.6 6.9-13.5 1.3.6zm3.4 10.2c0 1.1-1.1 2.1-2.9 2.1s-2.8-.9-2.8-2.1c0-.8.6-1.5 1.4-1.8-.7-.3-1.1-.9-1.1-1.7 0-1.1 1.1-1.9 2.6-1.9s2.5.7 2.5 1.8c-.1.7-.5 1.3-1.2 1.6 1 .6 1.5 1.2 1.5 2zm-1.7 0c0-.6-.3-.8-1.2-1.1l-.4-.1c-.5.2-.8.7-.7 1.2 0 .6.4.9 1.2.9.7 0 1.1-.4 1.1-.9zm-2.1-3.4c0 .5.3.8.9.9l.2.1c.4-.2.7-.6.7-1.1 0-.5-.3-.8-.9-.8-.6.1-.9.4-.9.9zm52.1-1.7c0 1.4-1.1 2.6-2.5 2.6h-.2c-2 0-2.8-1.4-2.8-3.4 0-2.4 1.2-4 3.2-4 .6 0 1.2.1 1.7.5l-.6 1c-.3-.2-.7-.3-1-.3-.9 0-1.4.7-1.5 2 .4-.4 1-.7 1.6-.7 1.1 0 2.1.9 2.1 2v.3zm-1.7 0c0-.9-.3-1.2-.9-1.2-.4 0-.8.2-1.1.5 0 1.5.3 2 1 2 .8.1 1-.4 1-1.3zm7.7-5.1l-6.9 13.5-1.3-.6 6.9-13.5 1.3.6zm3.4 10.2c0 1.1-1.1 2.1-2.9 2.1-1.8 0-2.8-.9-2.8-2.1 0-.8.6-1.5 1.4-1.8-.7-.3-1.1-.9-1.1-1.7 0-1.1 1.1-1.9 2.6-1.9s2.5.7 2.5 1.8c-.1.7-.5 1.3-1.2 1.6 1.1.6 1.5 1.2 1.5 2zm-1.7 0c0-.6-.3-.8-1.2-1.1l-.4-.1c-.5.2-.8.7-.7 1.2 0 .6.4.9 1.2.9.7 0 1.1-.4 1.1-.9zm-2-3.4c0 .5.3.8.9.9l.2.1c.4-.2.7-.6.7-1.1 0-.5-.3-.8-.9-.8-.6.1-.9.4-.9.9zm51.7-5.2l-2.7 6.1-1.5-.5 2.5-5.4h-3v-1.3h4.7v1.1zm6.4-1.6l-6.9 13.5-1.3-.6 6.9-13.5 1.3.6zm3.4 10.2c0 1.1-1.1 2.1-2.9 2.1-1.8 0-2.8-.9-2.8-2.1 0-.8.6-1.5 1.4-1.8-.7-.3-1.1-.9-1.1-1.7 0-1.1 1.1-1.9 2.6-1.9s2.5.7 2.5 1.8c-.1.7-.5 1.3-1.2 1.6 1 .6 1.5 1.2 1.5 2zm-1.7 0c0-.6-.3-.8-1.2-1.1l-.4-.1c-.5.2-.8.7-.7 1.2 0 .6.4.9 1.2.9.7 0 1.1-.4 1.1-.9zm-2.1-3.4c0 .5.3.8.9.9l.2.1c.4-.2.7-.6.7-1.1 0-.5-.3-.8-.9-.8-.6.1-.9.4-.9.9zm52.3-1.2c0 1.1-1.1 2.1-2.9 2.1s-2.8-.9-2.8-2.1c0-.8.6-1.5 1.4-1.8-.7-.3-1.1-1-1.1-1.7 0-1.1 1.1-1.9 2.6-1.9s2.5.7 2.5 1.8c-.1.7-.5 1.3-1.2 1.6 1 .6 1.5 1.2 1.5 2zm-1.7 0c0-.6-.3-.8-1.2-1.1l-.4-.1c-.5.2-.8.7-.7 1.2 0 .6.4.9 1.2.9s1.1-.4 1.1-.9zm-2.1-3.3c0 .5.3.8.9.9l.2.1c.4-.2.7-.6.7-1.1 0-.5-.3-.8-.9-.8s-.9.3-.9.9zm9.7-2.3l-6.9 13.5-1.3-.6 6.9-13.5 1.3.6zm3.4 10.2c0 1.1-1.1 2.1-2.9 2.1s-2.8-.9-2.8-2.1c0-.8.6-1.5 1.4-1.8-.7-.3-1.1-.9-1.1-1.7 0-1.1 1.1-1.9 2.6-1.9s2.5.7 2.5 1.8c-.1.7-.5 1.3-1.2 1.6 1 .6 1.5 1.2 1.5 2zm-1.7 0c0-.6-.3-.8-1.2-1.1l-.4-.1c-.5.2-.8.7-.7 1.2 0 .6.4.9 1.2.9.7 0 1.1-.4 1.1-.9zm-2.1-3.4c0 .5.3.8.9.9l.2.1c.4-.2.7-.6.7-1.1 0-.5-.3-.8-.9-.8-.6.1-.9.4-.9.9z" class="st3"/><path d="M127.8 14c0 2.5-2.2 4.4-5.6 4.4s-5.5-1.9-5.5-4.4c0-1.9 1.1-3.1 2.9-3.8-1.4-.6-2.3-2.1-2.2-3.6 0-2.5 2.2-4 4.9-4s4.9 1.3 4.9 3.9c0 1.4-.8 2.5-2.5 3.4 2.1.9 3.1 2.2 3.1 4.1zm-2.9 0c0-1.4-.7-2.1-2.8-2.8l-.7-.2c-1.2.5-1.9 1.7-1.9 3 0 1.4 1 2.3 2.6 2.3s2.8-1.1 2.8-2.3zm-4.7-7.4c0 1.3.8 1.9 2.3 2.4l.4.2c1-.5 1.6-1.5 1.6-2.6-.1-1.2-1.1-2.1-2.3-2-1.1.1-2 .9-2 2zm9.6 3.2h6.8v2.3h-6.8V9.8zm20.2-6l-1.5 1.8c-.8-.7-1.8-1.1-2.9-1.1-2.2 0-3.8 1.6-3.8 5.8s1.6 5.8 3.8 5.8c1.2 0 2.3-.5 3.2-1.3l1.4 1.8c-1.2 1.2-2.9 1.9-4.7 1.9-4 0-6.8-2.8-6.8-8.1s3-8.1 6.8-8.1c1.6-.2 3.3.4 4.5 1.5zm12.2 8.2c0 3.7-2.1 6.3-5.6 6.3-3.5 0-5.6-2.4-5.6-6.3 0-3.7 2.1-6.3 5.6-6.3 3.5.1 5.6 2.4 5.6 6.3zm-8.2 0c0 2.9.9 4.1 2.6 4.1 1.7 0 2.6-1.3 2.6-4.1s-.9-4.1-2.5-4.1c-1.7 0-2.7 1.3-2.7 4.1zm10.7 3.3v-14l2.9-.3v14.2c0 .6.2.8.7.8.2 0 .4 0 .7-.1l.6 2c-.6.3-1.3.4-1.9.4-1.9 0-3-1.1-3-3zM181 18h-2.5l-.1-1.7c-.7 1.3-2.2 2.1-3.6 2-2.2 0-3.3-1.4-3.3-3.7V6.1h2.9v8.2c0 1.4.4 1.9 1.4 1.9 1-.1 2-.7 2.4-1.7V6.1h2.9L181 18zm19.1-8.6V18h-2.9V9.8c0-1.5-.6-1.9-1.3-1.9-1 0-1.6.7-2.2 1.8V18h-2.9V9.8c0-1.5-.6-1.9-1.3-1.9-1 0-1.6.7-2.3 1.8V18h-2.9V6.1h2.5l.2 1.6c.7-1.2 2-1.9 3.4-1.9 1.3-.1 2.5.8 2.9 2 .8-1.2 2.1-2 3.5-2 2 0 3.3 1.3 3.3 3.6zm12.9 0V18h-2.9V9.8c0-1.5-.6-1.9-1.5-1.9s-1.8.7-2.5 1.8V18h-2.9V6.1h2.5l.2 1.6c.8-1.2 2.2-1.9 3.6-1.9 2.3 0 3.5 1.3 3.5 3.6zm20.2-5.5l-1.6 1.7c-.9-.8-2.1-1.2-3.3-1.2-2.2 0-4.1 1.7-4.1 5.8s1.3 5.8 3.7 5.8c.9 0 1.7-.2 2.5-.6v-4h-2.3l-.3-2.2h5.6v7.6c-1.6 1-3.5 1.5-5.3 1.5-4.4 0-6.9-2.8-6.9-8.1s3.2-8.1 7.1-8.1c1.9 0 3.6.6 4.9 1.8zm10.1 2l-.5 2.8c-.3-.1-.7-.1-1.1-.1-1.4 0-2.2 1.1-2.6 3.1V18h-2.9V6.1h2.5l.3 2.3c.6-1.7 1.7-2.6 3.1-2.6.4 0 .8 0 1.2.1zm5-4.1c-.1 1-1 1.7-2 1.6-.9-.1-1.5-.8-1.6-1.6 0-1 .8-1.8 1.8-1.8s1.8.8 1.8 1.8zm-.4 16.2H245V6.1h2.9V18zm13.3-16.7V18h-2.5l-.2-1.5c-.7 1.2-2 1.9-3.4 1.9-3 0-4.5-2.5-4.5-6.3s1.9-6.3 4.8-6.3c1.1 0 2.2.5 2.9 1.2V1l2.9.3zm-2.9 13.3V9.2c-.5-.8-1.4-1.2-2.3-1.3-1.5 0-2.5 1.3-2.5 4.1 0 3.1.9 4.1 2.3 4.1 1.1 0 2.1-.6 2.5-1.5zM122.6 38.7h-1.9v6.2h-3V29.4h4.7c4.1 0 6.2 1.5 6.2 4.6 0 2.1-1 3.4-3.1 4.2l4.1 6.8h-3.4l-3.6-6.3zm-1.9-2.1h1.9c1.9 0 2.9-.7 2.9-2.6 0-1.7-.9-2.4-3.1-2.4h-1.6l-.1 5zm13.8-7.8c.1 1-.7 1.8-1.7 1.9-1 .1-1.8-.7-1.9-1.7-.1-1 .7-1.8 1.7-1.9h.1c1-.1 1.8.7 1.8 1.7 0-.1 0 0 0 0zm-.3 16.1h-2.9V33.1h2.9v11.8zm13.7-11.2c-1.1.3-2.3.5-3.4.4 1.3.4 2.2 1.7 2.2 3.1 0 2.3-1.8 4-4.8 4-.5 0-1-.1-1.4-.2-.3.2-.5.5-.5.9s.3.8 1.4.8h1.8c2.6 0 4.3 1.4 4.3 3.4 0 2.4-2 3.7-5.9 3.7-4.2 0-5.4-1.3-5.4-3.7h2.6c0 1.2.5 1.7 2.9 1.7s3-.6 3-1.6c0-.9-.7-1.3-2-1.3h-1.8c-2.4 0-3.4-1.1-3.4-2.3.1-.9.6-1.8 1.4-2.2-1.3-.6-2.2-1.9-2.1-3.4 0-2.6 2-4.3 4.9-4.3 1.9.1 3.9-.3 5.6-1.3l.6 2.3zm-8.3 3.3c-.1 1.1.7 2.2 1.8 2.3h.3c1.4 0 2.1-.9 2.1-2.4s-.7-2.2-2.2-2.2c-1.1 0-2 .8-2.1 1.9.1.1.1.2.1.4zm19.7-.7v8.6h-2.9v-8.2c0-1.5-.6-1.9-1.5-1.9s-1.8.7-2.5 1.8V45h-2.9V28.3l2.9-.3v6.4c.8-1.1 2.1-1.8 3.5-1.8 2.2.1 3.4 1.5 3.4 3.7zm10.1 8.1c-.9.6-1.9.9-3 .9-2.3 0-3.6-1.3-3.6-3.9v-6.3H161V33h1.9v-2.6l2.9-.3v3h2.8l-.3 2.1h-2.5v6.2c0 1.2.4 1.6 1.3 1.6.5 0 1-.2 1.4-.4l.9 1.8zm.2-7.6h6.8v2.3h-6.8v-2.3zm18.2 1.2h-5.5v6.9h-3V29.4h3v6.2h5.5v-6.2h3v15.5h-3V38zm16.1 5.3l-.6 1.9c-1.2.1-2.2-.6-2.7-1.7-.8 1.2-2.2 1.8-3.6 1.8-1.9.2-3.6-1.3-3.8-3.2v-.5c0-2.6 1.9-4 5.4-4h1.5V37c0-1.5-.7-2.1-2.2-2.1-1.1.1-2.1.3-3.2.6l-.7-2c1.4-.5 2.8-.8 4.3-.9 3.2 0 4.6 1.5 4.6 4.1v5c.1 1.1.5 1.4 1 1.6zm-3.7-1.6v-2.4H199c-1.9 0-2.8.7-2.8 2.1-.1.9.5 1.7 1.3 1.8h.4c1 0 1.9-.6 2.3-1.5zm16-5.4v8.6h-2.9v-8.2c0-1.5-.6-1.9-1.5-1.9s-1.8.7-2.5 1.8V45h-2.9V33.1h2.5l.2 1.6c.8-1.2 2.2-1.9 3.6-1.9 2.2-.1 3.5 1.3 3.5 3.5zm13.1-8v16.6h-2.5l-.2-1.5c-.7 1.2-2 1.9-3.4 1.9-3 0-4.5-2.5-4.5-6.3s1.9-6.3 4.8-6.3c1.1 0 2.2.5 3 1.3v-6l2.8.3zm-2.8 13.3v-5.4c-.5-.8-1.4-1.2-2.3-1.3-1.5 0-2.5 1.3-2.5 4.1 0 3.1.9 4.1 2.3 4.1 1.1 0 2-.6 2.5-1.5zm22.8-7.2c0 3.6-2.6 5.2-6.1 5.2h-1.8V45h-3V29.4h4.6c4 0 6.3 1.6 6.3 5zm-3.1 0c0-2-1.2-2.8-3.2-2.8h-1.6v5.7h1.6c2 0 3.2-.7 3.2-2.9zm14.2 8.9l-.6 1.9c-1.2.1-2.2-.6-2.6-1.7-.8 1.2-2.2 1.8-3.6 1.8-1.9.2-3.6-1.3-3.8-3.2v-.5c0-2.6 1.9-4 5.4-4h1.5v-.7c0-1.5-.7-2.1-2.2-2.1-1.1 0-2.2.3-3.2.6l-.7-2c1.4-.5 2.8-.8 4.3-.9 3.2 0 4.6 1.5 4.6 4.1v5c0 1.2.3 1.5.9 1.7zm-3.8-1.6v-2.4h-1.2c-1.9 0-2.8.7-2.8 2.1-.1.9.5 1.7 1.3 1.8h.4c1 0 1.9-.6 2.3-1.5zm16.6-8c-1.1.3-2.3.5-3.4.4 1.3.4 2.2 1.7 2.2 3.1 0 2.3-1.8 4-4.8 4-.5 0-1-.1-1.4-.2-.3.2-.5.5-.5.9s.3.8 1.4.8h1.8c2.6 0 4.3 1.4 4.3 3.4 0 2.4-2.1 3.7-5.9 3.7-4.2 0-5.4-1.3-5.4-3.7h2.6c0 1.2.5 1.7 2.9 1.7s3-.6 3-1.6c0-.9-.7-1.3-2-1.3h-1.8c-2.4 0-3.4-1.1-3.4-2.3.1-.9.6-1.8 1.4-2.2-1.3-.6-2.2-1.9-2.1-3.4 0-2.6 2-4.3 4.9-4.3 1.9.1 3.9-.3 5.6-1.3l.6 2.3zM265 37c-.1 1.1.7 2.2 1.8 2.3h.3c1.4 0 2.1-.9 2.1-2.4s-.7-2.2-2.2-2.2c-1.1 0-2 .8-2.1 1.9 0 .1 0 .2.1.4zm19.6 2.9h-7.5c.2 2.4 1.3 3.2 2.9 3.2 1.1 0 2.1-.4 3-1l1.2 1.6c-1.2 1-2.8 1.6-4.4 1.6-3.7 0-5.7-2.4-5.7-6.2s1.9-6.4 5.3-6.4 5.2 2.2 5.2 6v1.2zm-2.9-2c0-1.9-.7-3.1-2.3-3.1-1.3 0-2.2.9-2.4 3.3h4.7v-.2zm16.1-10.8c-2.2 2.9-3.3 6.4-3.2 10-.1 3.6 1 7.2 3.2 10l-1.9 1.2c-2.2-3.1-4.3-5.9-4.3-11.3s2-8.2 4.3-11.2l1.9 1.3zm10 11.2l3 6.7h-3.2l-2.6-6.2h-1.9l-.9 6.2h-2.9l2.2-15.5h4.5c3.7 0 5.5 1.4 5.5 4 .1 1.8-.8 3.7-3.7 4.8zm-4.4-1.7h1.9c1.6.2 3-.9 3.2-2.5v-.5c0-1.4-.9-2-2.7-2h-1.6l-.8 5zm11.9 4c.1 1.9 1 2.5 2.3 2.5 1.1 0 2.2-.4 3.1-1.1l1.1 1.8c-1.3 1-2.9 1.5-4.5 1.5-3.2 0-4.9-1.9-4.9-4.9 0-3.2 1.7-7.6 6.5-7.6 2.7 0 4.1 1.5 4.1 3.1 0 3.3-3.8 4.3-7.7 4.7zm4.8-4.6c0-.7-.5-1.2-1.2-1.2h-.2c-2 0-3 2-3.3 3.9 3.2-.3 4.7-1.2 4.7-2.7zm14-1.9l-1.4 1.7c-.6-.6-1.4-.9-2.2-.9-2.7 0-3.4 3.2-3.4 5.4 0 1.9.8 2.5 2.1 2.5.9 0 1.8-.4 2.5-.9l1.1 1.9c-1.1.8-2.5 1.3-3.9 1.3-3 0-4.8-1.9-4.8-5s1.7-7.5 6.4-7.5c1.3.1 2.6.6 3.6 1.5zm4.1 7.3c-.2 1.2.1 1.6.9 1.6.5 0 1.1-.2 1.5-.4l.8 1.9c-.9.6-1.9.8-3 .9-2.3 0-3.4-1.4-3.1-3.9l.9-6.2h-1.9l.3-2.1h1.9l.7-2.7 2.4-.3-.4 3h2.7l-.6 2.1h-2.4l-.7 6.1zm4.3-1.1c0-3.1 1.6-7.6 6.4-7.6 3.1 0 4.8 1.9 4.8 5s-1.6 7.6-6.4 7.6c-3.1 0-4.8-1.9-4.8-5zm8.2-2.8c0-1.8-.7-2.6-2-2.6-2.7 0-3.3 3.6-3.3 5.6 0 1.8.7 2.6 2 2.6 2.7 0 3.3-3.6 3.3-5.6zm10.8-2.9c0 5.9-2.2 9.4-5.9 13.8l-1.7-1.3c3.3-4 4.8-7.9 4.8-12.8 0-2.6-.6-5.1-1.9-7.3l1.9-1.1c1.4 2.5 2.8 4.9 2.8 8.7zM14 118.8c0 5.1-2.6 8.1-6.8 8.1S.4 124 .4 118.8c0-5.2 2.6-8.1 6.8-8.1s6.8 2.9 6.8 8.1zm-10.5 0c0 4.2 1.4 5.8 3.7 5.8s3.7-1.6 3.7-5.8-1.4-5.8-3.7-5.8-3.7 1.7-3.7 5.8zm22.6 7.8h-2.5l-.2-1.7c-.7 1.3-2.2 2.1-3.6 2-2.2 0-3.3-1.4-3.3-3.7v-8.5h2.9v8.2c0 1.4.4 1.9 1.4 1.9 1-.1 2-.7 2.4-1.7v-8.4h2.9v11.9zm10.2-.6c-.9.6-1.9.9-3 .9-2.3 0-3.6-1.3-3.6-3.9v-6.3h-1.9v-2.1h1.9V112l2.9-.3v3h2.8l-.3 2.1h-2.5v6.2c0 1.2.4 1.6 1.3 1.6.5 0 1-.2 1.4-.4l1 1.8zm9.6-10.2l-1.1 1.7c-.9-.6-1.9-.9-3-.9s-1.8.5-1.8 1.2.5 1.1 2.5 1.7c2.4.7 3.8 1.6 3.8 3.7 0 2.5-2.3 3.7-5 3.7-1.7.1-3.4-.5-4.7-1.7l1.4-1.6c.9.7 2.1 1.1 3.2 1.2 1.3 0 2.1-.5 2.1-1.4 0-.9-.5-1.3-2.7-1.9-2.5-.7-3.5-1.9-3.5-3.6 0-2 1.8-3.5 4.6-3.5 1.5-.1 3 .4 4.2 1.4zm5.8-5.4c0 1-.7 1.8-1.7 1.9-1 0-1.8-.7-1.9-1.7 0-1 .7-1.8 1.7-1.9h.1c1-.1 1.8.7 1.8 1.7 0-.1 0 0 0 0zm-.3 16.1h-2.9v-11.9h2.9v11.9zm13.3-16.6v16.6h-2.6l-.2-1.5c-.7 1.2-2 1.9-3.4 1.9-3 0-4.5-2.5-4.5-6.3s1.9-6.3 4.8-6.3c1.1 0 2.2.5 3 1.3v-6l2.9.3zm-2.9 13.3v-5.4c-.5-.8-1.4-1.2-2.3-1.3-1.5 0-2.5 1.3-2.5 4.1 0 3.1.9 4.1 2.3 4.1 1.1 0 2-.6 2.5-1.5zm16-1.7h-7.5c.2 2.4 1.3 3.2 2.9 3.2 1.1 0 2.1-.4 3-1l1.2 1.7c-1.2 1-2.8 1.6-4.4 1.6-3.7 0-5.6-2.4-5.6-6.2 0-3.8 1.9-6.4 5.3-6.4s5.2 2.2 5.2 6c0 .3-.1.8-.1 1.1zm-2.8-2c0-1.9-.7-3.1-2.3-3.1-1.3 0-2.2.9-2.4 3.3H75v-.2zm-59.1 34H13l-.4-6.5c-.1-2.3-.3-4.7-.2-6.3l-2.8 11.1H6.8l-3-11.2c.1 2.2.1 4.3-.1 6.4l-.4 6.4H.4L1.7 138h3.8l2.8 10.9 2.6-10.9h3.9l1.1 15.5zm12.4-1.6l-.6 1.9c-1.2.1-2.2-.6-2.6-1.7-.8 1.2-2.2 1.8-3.6 1.8-1.9.2-3.6-1.3-3.8-3.2v-.5c0-2.6 1.9-4 5.4-4h1.5v-.7c0-1.5-.7-2.1-2.2-2.1-1.1 0-2.2.3-3.2.6l-.6-1.9c1.4-.6 2.8-.9 4.3-.9 3.2 0 4.6 1.5 4.6 4.1v5c-.1 1.1.2 1.4.8 1.6zm-3.7-1.6v-2.4h-1.2c-1.9 0-2.8.7-2.8 2.1-.1.9.5 1.7 1.3 1.8h.4c1 0 1.9-.6 2.3-1.5zm13.3-8.8l-.5 2.8c-.3-.1-.7-.1-1.1-.1-1.4 0-2.2 1.1-2.6 3.1v6.3h-2.9v-11.9h2.5l.3 2.3c.6-1.7 1.7-2.6 3.1-2.6.4 0 .8 0 1.2.1zm11.9.8c-1.1.3-2.3.5-3.4.4 1.3.4 2.2 1.7 2.2 3.1 0 2.3-1.8 4-4.8 4-.5 0-1-.1-1.4-.2-.3.2-.5.5-.5.9s.3.8 1.4.8h1.9c2.6 0 4.3 1.4 4.3 3.4 0 2.4-2.1 3.7-5.9 3.7-4.2 0-5.4-1.3-5.4-3.7h2.5c0 1.2.5 1.7 2.9 1.7s3-.6 3-1.6-.7-1.3-2-1.3h-1.8c-2.4 0-3.4-1.1-3.4-2.3.1-.9.6-1.8 1.4-2.2-1.3-.6-2.2-1.9-2.1-3.4 0-2.6 2.1-4.3 4.9-4.3 1.9.1 3.9-.4 5.5-1.3l.7 2.3zm-8.3 3.2c-.1 1.1.7 2.2 1.8 2.3h.3c1.4 0 2.1-.9 2.1-2.4s-.7-2.2-2.2-2.2c-1.1 0-2.1.8-2.1 2 0 .1 0 .2.1.3zm13.1-8.1c.1 1-.7 1.8-1.7 1.9-1 .1-1.8-.7-1.9-1.7s.7-1.8 1.7-1.9h.1c1-.1 1.8.7 1.8 1.7 0-.1 0 0 0 0zm-.3 16.1h-2.8v-11.9h2.9l-.1 11.9zm13.1-8.6v8.6h-2.9v-8.2c0-1.5-.6-1.9-1.5-1.9s-1.8.7-2.5 1.8v8.3h-2.9v-11.9h2.5l.2 1.6c.8-1.2 2.1-1.9 3.6-2 2.2.1 3.5 1.5 3.5 3.7zM6.1 162.6c-4.2 6-4.2 14.1 0 20.1l-1.9 1.2C2.1 180.8 0 178 0 172.7c0-5.3 2.1-8.2 4.3-11.3l1.8 1.2zm12 4.7h-4v13.2h-3v-13.2H6.9V165h11.5l-.3 2.3zm11.9 4.6v8.6h-2.9v-8.2c0-1.5-.6-1.9-1.5-1.9s-1.8.7-2.5 1.8v8.3h-2.9v-16.7l2.9-.3v6.4c.8-1.1 2.1-1.8 3.5-1.8 2.1.2 3.4 1.5 3.4 3.8zm12.7 8.6h-2.5l-.2-1.7c-.7 1.3-2.2 2.1-3.6 2-2.2 0-3.3-1.4-3.3-3.7v-8.5H36v8.2c0 1.4.4 1.9 1.4 1.9 1.1-.1 2-.7 2.4-1.7v-8.4h2.9v11.9zm19.1-8.6v8.6h-2.9v-8.2c0-1.5-.6-1.9-1.3-1.9-.9 0-1.6.7-2.2 1.8v8.3h-2.9v-8.2c0-1.5-.6-1.9-1.3-1.9-1 0-1.6.7-2.3 1.8v8.3H46v-11.9h2.5l.2 1.6c.7-1.2 2-1.9 3.4-1.9 1.3-.1 2.4.7 2.9 1.9.8-1.2 2.1-2 3.6-2 1.9.1 3.2 1.4 3.2 3.7zm13.8 2.6c0 3.7-1.8 6.3-4.7 6.3-1.2 0-2.4-.6-3.2-1.5l-.2 1.2H65v-16.6l2.9-.3v6.4c.8-1.1 2-1.7 3.3-1.7 2.7 0 4.4 2.3 4.4 6.2zm-3 0c0-3.2-.9-4.1-2.3-4.1-1 .1-1.9.7-2.4 1.6v5.3c.4.8 1.3 1.4 2.2 1.4 1.5 0 2.5-1.2 2.5-4.2zm8.5 4.5c0 1-.8 1.8-1.8 1.8s-1.8-.8-1.8-1.8.8-1.8 1.8-1.8 1.8.8 1.8 1.8zm-.6-4H78l-.4-10h3.2l-.3 10zm8.1-2.4c0 5.3-2 8.2-4.3 11.2l-1.9-1.2c4.2-6 4.2-14.1 0-20.1l1.9-1.2c2.3 3.2 4.3 6 4.3 11.3z" class="st2"/><path d="M175.1 126.6v640.3" class="st4"/><path d="M225.4 126.6v640.3m7.5-640.3v640.3" class="st5"/><path d="M283.2 126.6v640.3m7.5-640.3v640.3" class="st4"/><path d="M341 126.6v640.3m7.4-640.3v640.3" class="st5"/><path d="M398.7 126.6v640.3m7.5-640.3v640.3" class="st4"/><path d="M456.5 126.6v640.3m7.5-640.3v640.3" class="st5"/><path d="M514.3 126.6v640.3m7.4-640.3v640.3" class="st4"/><path d="M572 126.6v640.3m7.5-640.3v640.3" class="st5"/><path d="M175.1 207.6H629m-453.9-7.5H629m-453.9 88.4H629M175.1 281H629m-453.9 88.5H629M175.1 362H629m-453.9 88.5H629M175.1 443H629m-453.9 88.4H629M175.1 524H629m-453.9 88.4H629m-453.9-7.5H629m-453.9 88.5H629m-453.9-7.5H629" class="st6"/><path d="M629 126.6v640.3M175.1 126.6H629M175.1 766.9H629" class="st4"/><path d="M175.1 126.9h50.3v73.5h-50.3v-73.5z" class="st7"/><path d="M190.3 167.8h-2.1v-9.2l-2.5 1.5-.9-1.5 3.7-2.3h1.9l-.1 11.5zm14.3 0h-2.5l-1.9-3.5-1.9 3.5H196l3-4.7-2.7-4.2h2.5l1.5 3 1.5-3h2.3l-2.5 4.1 3 4.8zm10.1 0h-2.1v-9.2l-2.5 1.5-.9-1.5 3.7-2.3h1.9l-.1 11.5z" class="st8"/><path d="M406.2 207.6h108V281h-108v-73.4z" class="st7"/><path d="M449.7 248.4h-2.1v-9.2l-2.5 1.5-.9-1.5 3.7-2.3h1.9l-.1 11.5zm14.3 0h-2.5l-1.9-3.5-1.8 3.5h-2.4l3-4.7-2.7-4.2h2.5l1.5 3 1.5-3h2.3l-2.6 4.1 3.1 4.8zm11.8-8.3c0 1.9-1.1 3.3-4.6 6.7h4.9l-.2 1.7h-7.1v-1.6c3.9-3.9 4.8-5 4.8-6.6.1-.8-.6-1.6-1.4-1.6h-.2c-.9 0-1.7.5-2.2 1.2l-1.4-1c.8-1.2 2.2-1.9 3.7-1.9 2.4-.1 3.7 1.3 3.7 3.1z" class="st8"/><path d="M290.7 288.5h108V443h-108V288.5z" class="st7"/><path d="M335.4 361.5c0 1.9-1.1 3.3-4.6 6.7h4.9l-.2 1.7h-7.1v-1.6c3.9-3.9 4.8-5 4.8-6.6.1-.8-.6-1.6-1.4-1.6h-.2c-.9 0-1.7.5-2.2 1.2l-1.3-1c.8-1.2 2.2-1.9 3.7-1.9 2.2 0 3.6 1.4 3.6 3.1zm13.6 8.4h-2.5l-1.9-3.5-1.8 3.5h-2.4l3-4.7-2.7-4.2h2.5l1.5 3 1.5-3h2.4l-2.6 4.1 3 4.8zm11.7-8.4c0 1.9-1.1 3.3-4.6 6.7h4.8l-.2 1.7h-7.1v-1.6c3.9-3.9 4.8-5 4.8-6.6.1-.8-.6-1.6-1.4-1.6h-.2c-.9 0-1.7.5-2.2 1.2l-1.3-1c.8-1.2 2.2-1.9 3.7-1.9 2.4 0 3.7 1.4 3.7 3.1z" class="st8"/><path d="M406.2 288.5h223.6V443H406.2V288.5zM290.7 531.4h339.1v235.4H290.7V531.4z" class="st7"/><path d="M509.5 367.3h-1.4v2.6H506v-2.6h-4.8v-1.5l3.3-7.5 1.9.7-2.9 6.6h2.6l.2-2.9h1.9v2.9h1.4l-.1 1.7zm13.1 2.6h-2.5l-1.9-3.5-1.8 3.5H514l3-4.7-2.7-4.2h2.5l1.5 3 1.5-3h2.3l-2.6 4.1 3.1 4.8zm11.8-8.4c0 1.9-1.1 3.3-4.6 6.7h4.8l-.2 1.7h-7.1v-1.6c3.9-3.9 4.8-5 4.8-6.6.1-.8-.6-1.6-1.4-1.6h-.2c-.9 0-1.7.5-2.2 1.2l-1.3-1c.8-1.2 2.2-1.9 3.7-1.9 2.4 0 3.7 1.4 3.7 3.1zm-82.8 287.9c.2 2.1-1.4 4-3.6 4.1h-.3c-2.9 0-4.1-2.2-4.1-5.5 0-3.7 1.8-6.3 4.7-6.3.9 0 1.7.2 2.5.7l-.8 1.3c-.5-.3-1.1-.5-1.6-.5-1.4 0-2.3 1.4-2.5 3.6.6-.8 1.5-1.3 2.5-1.2 1.8.2 3.2 1.4 3.2 3.8zm-2.2 0c0-1.6-.6-2.2-1.6-2.2-.8 0-1.6.5-2 1.2 0 2.4.6 3.5 1.9 3.5 1.2.1 1.7-.9 1.7-2.5zm15.4 3.9h-2.5l-1.9-3.5-1.8 3.5h-2.4l3-4.7-2.7-4.2h2.4l1.5 3 1.5-3h2.3l-2.6 4.1 3.2 4.8zm11.7-8.7c0 1.3-.9 2.4-2.2 2.7 1.4 0 2.6 1.2 2.6 2.7v.1c0 1.9-1.5 3.5-4.1 3.5-1.4.1-2.8-.6-3.7-1.6l1.2-1.2c.6.7 1.5 1.1 2.4 1.1 1 .1 1.9-.7 2-1.7v-.1c0-1.3-.8-1.8-2-1.8h-.9l.3-1.5h.6c.9.1 1.7-.5 1.9-1.4v-.3c0-.8-.6-1.5-1.5-1.5h-.2c-.9 0-1.7.4-2.3 1l-1.1-1.3c.9-.9 2.2-1.5 3.6-1.5 2.2 0 3.4 1.2 3.4 2.8z" class="st8"/></g></g></svg>