<svg xmlns="http://www.w3.org/2000/svg" id="Layer_1" viewBox="0 0 800 800" width="800" height="800"><style>.st0{fill:#ec2824}.st1{fill:#270e0c}.st2{fill-rule:evenodd;clip-rule:evenodd;fill:#fff}</style><path d="M0 0h800v800H0V0z" class="st0"/><path d="M50 50h700v700H50V50z" class="st1"/><path d="M232.9 548.3c-56.9 42.5-96.1 102.9-80.7 112.4l-13.5-6.8c-7.7-9.6 10.1-60.8 94.2-105.6zm427.5-47.6c29.2-62.1-210.7-52.8-385.8 28.6 136.4-52.6 388.7-75.1 385.8-28.6z" class="st2"/><path d="M389.2 170.3c6.5-34.4-10.3-33.2-15-33.2l-10.7-.1c-5.8 0-11.1 4.7-13.7 14.3-16.7 62.1 13.5 219.4 98.2 292.2 74.7 64.3 204.7 93.8 210 62.6-27.1 12.9-128.6-19.7-196.8-74-80.7-66.3-115.1-229.6-97.8-280.6 1.7-5.1 6-11 7.8-12.4 7.3 3.5 16 12.6 18 31.2z" class="st2"/><path d="M387.8 180.3c-7.4 36.5-10.7 122.9-81.1 265C231 597.8 175.6 668.9 138.8 653.9l13.2 6.8c28.9 14.7 81.9-33.7 170-203.3 67.7-130.9 64.1-198.2 65.8-277.1z" class="st2"/></svg>