<svg xmlns="http://www.w3.org/2000/svg" id="Layer_1" viewBox="0 0 800 800" width="800" height="800"><style>.st0{fill:#4c4c4c}.st1{fill:#d4d4d4}</style><path d="M0 0h800v800H0V0z" class="st0"/><path d="M46.4 56.2h707.2v687.5H46.4V56.2z" class="st1"/><path d="M549.2 351.9c-29 0-38.9 14.7-38.9 26.8 0 13.2 6.7 22.4 45.4 42.5 57.5 27.9 75.6 54.6 75.6 93.9 0 58.6-44.7 90.1-105.3 90.1-31.9 0-59.4-6.7-75.1-15.8-2.5-1.1-2.9-2.9-2.9-5.8v-53.9c0-3.6 1.8-4.7 4.4-2.9 23.1 15 49.4 21.7 73.8 21.7 29 0 41.1-12.1 41.1-28.6 0-13.2-8.5-25-45.4-44-52.1-25-73.7-50.3-73.7-92.4 0-47.4 37.1-86.5 101.2-86.5 31.5 0 53.5 4.7 65.7 10.3 2.9 1.8 3.6 4.7 3.6 7.4V365c0 2.9-1.8 4.7-5.6 3.6-16.2-10.4-40-16.7-63.9-16.7zm-315.3 43.7c8.5.7 15 .7 29.7.7 42.9 0 83.2-15 83.2-73.3 0-46.5-29-70-77.8-70-14.7 0-28.6.7-35.1 1.1v141.5zm-65.3-194.8c0-2.5 5.1-4.4 8.1-4.4 23.5-1.1 58.3-1.8 94.6-1.8 101.5 0 141.1 55.7 141.1 126.8 0 93.2-67.5 133.1-150.3 133.1-13.9 0-18.8-.7-28.6-.7v140.8c0 2.9-1.1 4.4-4.4 4.4H173c-2.9 0-4.4-1.1-4.4-4.4V200.8z" class="st0"/></svg>