<?xml version="1.0" encoding="utf-8"?>
<!DOCTYPE svg PUBLIC "-//W3C//DTD SVG 1.1//EN" "http://www.w3.org/Graphics/SVG/1.1/DTD/svg11.dtd">
<svg version="1.1" id="Layer_1" xmlns="http://www.w3.org/2000/svg" xmlns:xlink="http://www.w3.org/1999/xlink" x="0px" y="0px"
	 viewBox="0 0 576 576" style="enable-background:new 0 0 576 576;" xml:space="preserve">
<style type="text/css">
	.st0{fill:#EC2824;}
	.st1{fill:#270E0C;}
	.st2{fill-rule:evenodd;clip-rule:evenodd;fill:#FFFFFF;}
</style>
<link rel="stylesheet" href="{{site.url}}/css/common.css" type="text/css" />
<rect class="st0" width="576" height="576"/>
<rect x="36" y="36" class="st1" width="504" height="504"/>
<g>
	<path class="st2" d="M167.7,394.8c-41,30.6-69.2,74.1-58.1,80.9l0,0l-9.7-4.9l0,0C94.3,463.9,107.1,427,167.7,394.8L167.7,394.8
		L167.7,394.8L167.7,394.8z"/>
	<path class="st2" d="M475.5,360.5c21-44.7-151.7-38-277.8,20.6C295.9,343.2,477.6,327,475.5,360.5L475.5,360.5L475.5,360.5
		L475.5,360.5z"/>
	<path class="st2" d="M280.2,122.6c4.7-24.8-7.4-23.9-10.8-23.9l0,0l-7.7-0.1l0,0c-4.2,0-8,3.4-9.9,10.3
		c-12,44.7,9.7,158,70.7,210.4c53.8,46.3,147.4,67.5,151.2,45.1c-19.5,9.3-92.6-14.2-141.7-53.3c-58.1-47.7-82.9-165.3-70.4-202
		c1.2-3.7,4.3-7.9,5.6-8.9C272.5,102.7,278.8,109.2,280.2,122.6L280.2,122.6L280.2,122.6L280.2,122.6z"/>
	<path class="st2" d="M279.2,129.8c-5.3,26.3-7.7,88.5-58.4,190.8c-54.5,109.8-94.4,161-120.9,150.2l0,0l9.5,4.9l0,0
		c20.8,10.6,59-24.3,122.4-146.4C280.6,235.1,278,186.6,279.2,129.8L279.2,129.8L279.2,129.8L279.2,129.8z"/>
</g>
</svg>
