<svg xmlns="http://www.w3.org/2000/svg" id="Layer_1" viewBox="0 0 1440 506" width="1440" height="506"><style>.st0{fill:#b3b3b3}</style><g id="Layer_2_1_"><path id="Layer_1-2" d="M266.9 178.1c0-103.5-46.8-132.9-97.9-132.9-22.2.6-44 5.4-64.3 14.2-1.9 46.3-6.3 92.4-13.2 138.1l-4.3 3.3C51 177.4 22.7 143.7 5.7 104c42.9-34.3 90.6-62.1 141.6-82.6C172.2 10 199 3.3 226.3 1.7 346.1 1.7 383 99.6 383 165c0 76.2-1.1 174.1-2.1 253.6 19.9 27.3 46.5 49 77.2 63.1l-2.1 4.4c-19.9 11.7-42.8 17.4-65.9 16.3-83.8 0-113.2-41.4-123-63.1H265c-56.5 44.6-87 64.2-127.3 64.2C68.3 507 9.2 453.6 5.8 384.2c-.1-1.6-.1-3.2-.1-4.8 0-42.4 16.3-69.6 39.5-80.5 21.7-18.5 153.6-63.1 221.1-83.7l.6-37.1zM201 442.5c21 .1 41.2-7.7 56.7-21.7 4.6-5.9 6.9-13.2 6.5-20.7l2.2-163.2c-36.5 11.8-71.9 27.1-105.5 45.7-21.9 15.2-32.7 30.4-32.7 69.6-.7 71.3 47.2 90.3 72.2 90.3h.6zm1233.3-112c-2.1 21.7-32.7 125.2-57.6 162.1-15.8 3.2-31.9 4.3-48 3.3-56.5 0-94.6-6.6-201.3-6.6-20.7 0-40.3 3.3-65.9 5.5 2.3-18.4 3.4-36.9 3.3-55.5l-2.2-1.2c-56.5 46.8-85.9 65.9-126.3 65.9-69.4 3.4-128.3-50.2-131.7-119.5-.1-1.5-.1-3.1-.1-4.6 0-42.4 16.3-65.9 39.5-77.2 21.9-18.5 153.6-63.1 221.1-83.8l1.1-39.5c0-103.5-46.8-132.9-95.8-132.9-21.7 1.1-42.9 7-62 17.4-2.8 44.8-8 89.5-15.6 133.8l-3.3 3.3c-36.4-23.2-64.9-57-81.6-96.9 42.2-33.9 89.1-61.4 139.3-81.6 24.4-12.3 51.1-19.4 78.4-20.7 119.7 0 156.7 97.9 156.7 164.4v152c0 77.2 2.1 118.6 4.3 139.3 11.6.9 23.2 1.3 34.8 1.1 35.9 0 88.2-6.5 105.5-16.3 37.3-37.2 70.8-78 100.2-121.8l7.2 10zm-434.3 112c21.1-1.4 41.4-8.5 58.8-20.6 3.3-6 5.2-12.8 5.5-19.6l1.1-164.4c-36.6 12.2-71.9 27.9-105.5 46.8-21.8 14.1-32.7 30.4-32.7 67.5-.7 71.3 47.2 90.3 72.2 90.3h.6z" class="st0"/></g></svg>