<svg xmlns="http://www.w3.org/2000/svg" viewBox="0 0 108.34 38.07"><defs><style>.cls-1{fill:#b3b3b3;}</style></defs><g id="Layer_2" data-name="Layer 2"><g id="Layer_1-2" data-name="Layer 1"><path class="cls-1" d="M19.82,13.38c0-7.85-3.55-10.08-7.43-10.08A13.23,13.23,0,0,0,7.51,4.38a95.78,95.78,0,0,1-1,10.48l-.33.25A16.6,16.6,0,0,1,0,7.76,42.88,42.88,0,0,1,10.74,1.49a16.77,16.77,0,0,1,6-1.49c9.09,0,11.89,7.43,11.89,12.39,0,5.78-.08,13.21-.16,19.24a15,15,0,0,0,5.86,4.79l-.16.33a9.07,9.07,0,0,1-5,1.24c-6.36,0-8.59-3.14-9.33-4.79h-.17c-4.29,3.38-6.6,4.87-9.66,4.87A9.54,9.54,0,0,1,0,28.65c0-3.22,1.24-5.28,3-6.11,1.65-1.4,11.65-4.79,16.77-6.35Zm-5,20.06a6.34,6.34,0,0,0,4.3-1.65,2.35,2.35,0,0,0,.49-1.57l.17-12.38a45.29,45.29,0,0,0-8,3.47c-1.66,1.15-2.48,2.31-2.48,5.28C9.25,32,12.88,33.44,14.78,33.44Zm93.56-8.5c-.16,1.65-2.48,9.5-4.37,12.3a14.19,14.19,0,0,1-3.64.25c-4.29,0-7.18-.5-15.27-.5-1.57,0-3.06.25-5,.42a33.1,33.1,0,0,0,.25-4.21l-.17-.09c-4.29,3.55-6.52,5-9.58,5a9.54,9.54,0,0,1-10-9.42c0-3.22,1.24-5,3-5.86,1.66-1.4,11.65-4.79,16.77-6.36l.08-3c0-7.85-3.55-10.08-7.27-10.08a11,11,0,0,0-4.7,1.32A94.36,94.36,0,0,1,67.3,14.86l-.25.25a16.12,16.12,0,0,1-6.19-7.35A42,42,0,0,1,71.43,1.57,14.83,14.83,0,0,1,77.38,0c9.08,0,11.89,7.43,11.89,12.47V24c0,5.86.16,9,.33,10.57a25.64,25.64,0,0,0,2.64.08c2.72,0,6.69-.49,8-1.24a61.3,61.3,0,0,0,7.6-9.24Zm-32.95,8.5a8.85,8.85,0,0,0,4.46-1.56,3.4,3.4,0,0,0,.42-1.49l.08-12.47a45.6,45.6,0,0,0-8,3.55c-1.65,1.07-2.48,2.31-2.48,5.12C69.86,32,73.49,33.44,75.39,33.44Z"/></g></g></svg>