<svg xmlns="http://www.w3.org/2000/svg" id="Layer_1" viewBox="0 0 800 281.4" width="800" height="281.4"><style>.st0{fill:#b3b3b3}</style><g id="Layer_2_1_"><path id="Layer_1-2" d="M146.3 98.8c0-58-26.2-74.4-54.8-74.4-12.4.3-24.6 3-36 8-1.1 25.9-3.5 51.7-7.4 77.3l-2.4 1.8C25.4 98.4 9.5 79.5 0 57.3 24 38.1 50.7 22.5 79.3 11c13.9-6.4 29-10.1 44.2-11 67.1 0 87.8 54.8 87.8 91.4 0 42.7-.6 97.5-1.2 142 11.1 15.3 26 27.4 43.2 35.3l-1.2 2.5c-11.1 6.6-24 9.7-36.9 9.1-46.9 0-63.4-23.2-68.9-35.3h-1.2c-31.6 25-48.7 36-71.3 36-38.9 2-72-27.9-73.9-66.8.1-.9.1-1.8.1-2.7 0-23.7 9.1-39 22.1-45.1 12.2-10.4 86-35.3 123.8-46.9l.4-20.7zm-36.9 148c11.8.1 23.1-4.3 31.8-12.2 2.6-3.3 3.9-7.4 3.6-11.6l1.2-91.4c-20.4 6.6-40.3 15.2-59.1 25.6-12.3 8.5-18.3 17-18.3 39-.4 39.9 26.4 50.6 40.4 50.6h.4zM800 184.1c-1.2 12.2-18.3 70.1-32.3 90.8-8.8 1.8-17.9 2.4-26.9 1.8-31.6 0-53-3.7-112.7-3.7-11.6 0-22.6 1.8-36.9 3.1 1.3-10.3 1.9-20.7 1.8-31.1l-1.2-.7c-31.6 26.2-48.1 36.9-70.7 36.9-38.9 1.9-71.8-28.1-73.8-66.9-.1-.8-.1-1.7-.1-2.6 0-23.7 9.1-36.9 22.1-43.2 12.3-10.4 86-35.3 123.8-46.9l.6-22.1c0-58-26.2-74.4-53.6-74.4-12.2.6-24 3.9-34.7 9.7-1.6 25.1-4.5 50.1-8.7 74.9l-1.8 1.8c-20.4-13-36.3-31.9-45.7-54.3 23.6-19 49.9-34.4 78-45.7C540.9 4.6 555.8.6 571.1-.1c67 0 87.8 54.8 87.8 92.1v85.1c0 43.2 1.2 66.4 2.4 78 6.5.5 13 .7 19.5.6 20.1 0 49.4-3.6 59.1-9.1 20.9-20.8 39.6-43.7 56.1-68.2l4 5.7zm-243.2 62.7c11.8-.8 23.2-4.8 32.9-11.5 1.8-3.4 2.9-7.2 3.1-11l.6-92.1c-20.5 6.8-40.3 15.6-59.1 26.2-12.2 7.9-18.3 17-18.3 37.8-.4 39.9 26.4 50.6 40.4 50.6h.4z" class="st0"/></g></svg>