<svg xmlns="http://www.w3.org/2000/svg" id="e74666dd-656c-4a55-a7e4-176465c85c4a" width="800" height="150.0" viewBox="0 0 800 200.0"><style>.st0{fill:#505050}</style><path d="M436.1 65.9c-4-16.2-8.6-33.1-11.3-39.1-1.7-3.6-4-5.3-7.3-5.3-26.5 0-48.3 15.9-48.3 36.1 0 19.9 16.2 28.8 61.3 28.8 21.2 0 42.7-1.7 61.2-4.6.3 3.6.7 7.6.7 11.6 0 3-.3 6-.7 8.9-14.6-1.7-31.5-2.3-47-2.3l-20.5 125.8h-11.9l2.6-28.8c-5.6 1.7-11.6 2.3-18.5 2.3-33.5 0-58.3-14.9-58.3-41 0-31.1 29.8-52 51.6-62.6-25.8-3.3-38.7-11.3-38.7-30.8 0-14.2 6.6-25.5 17.2-36.1C384.1 12.9 414.9 2.7 439.7 0l5.3 64.6-8.9 1.3zM356.9 152c0 18.2 16.2 33.8 44.4 33.8 14.2 0 16.6-2.3 18.2-17.9l7-68.2c-40.1 2.9-69.6 26.8-69.6 52.3zm-304-69.6h27.9c10.6 0 11.2-.9 13-8.7l1.4-6.3h11.5c-3.5 15.8-6.9 35.4-7.2 51.2H88.3v-17.2c0-5.5-.6-6-9.5-6.6l-27.1-1.2-6.3 57c-.3 3.5-.6 7.2-.6 11 0 10.1 3.2 10.1 12.4 10.1h11.5c17.6 0 23.3-1.4 26.2-3.5 2.9-2.3 8.9-12.7 18.1-34.5l8.1 2.6-13 47.5c-36 0-57.9-1.4-73.7-1.4-7.2 0-23.9.6-34.5 1.4l1.4-9.8 18.4-1.7c4.3-.3 5.5-1.2 6.3-2 1.4-1.4 2-5.8 3.5-19.6L42 34.9C42.8 29 43.1 23 43.1 17c0-2.9-.9-3.5-6.3-4l-18.1-1.7 1.2-10.1c11 .9 20.1 1.4 34.2 1.4 38 0 50.4-.3 68.2-1.4l-8.7 50.9h-6.3c-.3-5.2-.9-12.7-1.4-19-1.2-13.5-2.3-16.1-7.2-17.3-5.8-1.2-14.7-2-27.9-2h-11l-6.9 68.6zM198.5 68l-28.8-.9-6.6 63.6c-.9 7.5-1.3 15-1.2 22.5 0 17.6 10.4 17.6 30.8 17.6l1.4 6.6c-15.8 5.2-24.2 7.8-29.6 7.8-10.9 0-17.6-10.6-17.6-27.1 0-5 .3-10 .9-15l8.1-76.8-13.5-.9.8-9.5 13.8-.6 3.5-31.4c5.2-.9 8.3-1.7 13.3-4.3l2.9 2.3c-2.3 9.8-4.3 22.5-5.8 32.5l29.4-.9-1.8 14.5zm544-21.6c0 23.7-17.9 38.3-40.2 51.4l51.1 48c7.5-15.5 13.2-31.8 17-48.6l22.1 6.1c-7 23.2-15.4 41.3-24.6 56.1l32.1 29.9-17 13.7-28.2-27.1C739.4 193.2 720.2 203 693 203c-36 0-61.7-20.4-61.7-51.9 0-24.6 15.4-40.5 39.4-55.6-17-16.2-27.6-28.8-27.6-48 0-24.3 17.9-43.3 49.4-43.3 29.6 0 50 17.9 50 42.2zm-87.1 103.8c0 21.2 16.7 34.1 40.2 34.1 19 0 32.9-7.8 45.5-21.5l-57-54.5c-19.3 12.3-28.8 24.9-28.7 41.9zm10.8-103c0 14.2 7.8 23.7 22.6 37.7 19-11.2 30.4-22.1 30.4-37.1 0-16.5-10.6-26-26.5-26-17 0-26.5 10.9-26.5 25.4z" class="st0"/></svg>