<svg xmlns="http://www.w3.org/2000/svg" viewBox="0 0 303.53 296.4" width="303.53" height="296.4"><defs><style>.ba0e6fe2-72d9-4cf5-a4f5-055a7153648d{fill:#b3b3b3}.bee8cb15-9e28-497c-89cb-6629c9a18fec{fill:none;stroke:#2997ff;stroke-linecap:round;stroke-linejoin:round;stroke-width:7.06px}</style></defs><g id="f4845469-7b89-49b0-a8c9-5aea2505df3d"><g id="f89c84c6-8170-488e-9ae0-29053f49d447"><path d="M301 287.73c-29.31-.36-36.55 0-62.6 1.09l-2.17-2.54c1.08-29.67 2.17-51.74 2.17-91.18 0-51.38-1.09-64-4-91.54l2.17-2.17 62.23-10.86 2.54 2.89c-.36 30.76-1.09 61.88-1.09 92.63 0 49.94 1.45 71.29 3.26 99.15zm-5.07-229.4c-25.69 3.25-32.57 4-57.17 8.32l-2.53-2.17c.36-6.88.36-14.11.36-21 0-8.68-.36-16.28-1.09-29.31l2.17-2.53 59-7.24 2.17 2.17-1.08 49.21z" class="ba0e6fe2-72d9-4cf5-a4f5-055a7153648d"/><path d="M222.27 286.28c1.09-29.67 2.17-51.74 2.17-91.18 0-51.38-1.08-64-4-91.54" class="bee8cb15-9e28-497c-89cb-6629c9a18fec"/><path d="M12.74 31.53a31.53 31.53 0 1 1 31.53 31.52 31.78 31.78 0 0 1-31.53-31.52zm5.4 261.34V92.51h52.68v200.36z" class="ba0e6fe2-72d9-4cf5-a4f5-055a7153648d"/><path d="M3.53 292.87V92.51" class="bee8cb15-9e28-497c-89cb-6629c9a18fec"/></g></g></svg>