<svg xmlns="http://www.w3.org/2000/svg" viewBox="0 0 680 88.33"><defs><style>.a51d2d37-b711-4d32-a40c-4c2c7cf696fc{fill:#b3b3b3;}.a62b0bfc-de07-44a3-b1fb-f2c1356d3dd7{fill:#2997ff;}.b028e141-2f36-4c78-b16d-8be83e7d255c{fill:none;}</style></defs><g id="a4849114-38ae-443d-b439-c0513f44800e" data-name="Layer 2"><g id="f14926f3-db2a-4f82-bdf7-51bff95924de" data-name="Layer 1"><path class="a51d2d37-b711-4d32-a40c-4c2c7cf696fc" d="M31.69,19.37a38.8,38.8,0,0,0-12.9,2.83l1.43,3.64A11.29,11.29,0,0,1,25,24.6c5.08,0,10.32,2.76,13.22,5.23,6.11,5.53,9.31,14,9.31,23.26,0,9-3.49,14.25-7,17.74a8,8,0,0,1-2.19,1.4l1.53,3.9a48.62,48.62,0,0,0,7.35-3.85c1.6-1,10.61-8.72,10.61-23.55C57.86,28.81,41,19.37,31.69,19.37Z"/><path class="a62b0bfc-de07-44a3-b1fb-f2c1356d3dd7" d="M33,73.45c-3.63,0-9.3-1.31-14.68-7C15.12,63,10.9,57.6,10.9,48.15S12.65,32.74,17,28.09a11.68,11.68,0,0,1,3.21-2.25L18.79,22.2a36.58,36.58,0,0,0-3.67,1.67A27,27,0,0,0,5.67,32.3,30.7,30.7,0,0,0,0,49.46,33,33,0,0,0,6.25,68.21c5.53,7.27,16.57,10.47,21.52,10.47A31.53,31.53,0,0,0,39.9,76.13l-1.53-3.9A14.14,14.14,0,0,1,33,73.45Z"/><path class="a62b0bfc-de07-44a3-b1fb-f2c1356d3dd7" d="M110.09,73C98.46,73,89.88,61.38,89.88,44.22c0-11,3.64-16.28,7.42-18.75a10.23,10.23,0,0,1,2.11-1.09l-1.5-4.56a37.81,37.81,0,0,0-7.74,3.76c-7.41,5.09-12.65,12.79-12.65,24.28,0,15,7.71,31.11,28.94,31.11a30,30,0,0,0,10.2-2l-1.54-4.69A15.67,15.67,0,0,1,110.09,73Z"/><path class="a51d2d37-b711-4d32-a40c-4c2c7cf696fc" d="M109.22,17.77a34,34,0,0,0-11.31,2.05l1.5,4.56a13.79,13.79,0,0,1,4.86-.94c12.36,0,20.21,11.34,20.21,28.2,0,8.87-1.6,14.68-5.52,18.32a10.7,10.7,0,0,1-3.84,2.27l1.54,4.69a33.56,33.56,0,0,0,6.66-3.33c9-5.67,13.52-15.41,13.52-26.6C136.84,30.7,126.66,17.77,109.22,17.77Z"/><path class="a51d2d37-b711-4d32-a40c-4c2c7cf696fc" d="M231.27,30a.51.51,0,0,1-.79-.26c0-2,.13-6.62.13-7.53a2.86,2.86,0,0,0-.38-.65A48.93,48.93,0,0,1,214,26.31c-.52.26-.91,2.6-.52,3.12,2.47.78,4.68,1.56,6.1,2.86,1.17,1,1.17,2.86,1.17,3.64,0,8.7,0,22.21-.39,29.35-.13,2.86-.52,4.42-2.72,5.07a38.79,38.79,0,0,1-4.94,1c-.65.39-.65,3.25,0,3.77,3.25,0,6-.39,12.73-.39,5.32,0,9.74.39,12.73.39.52-.52.78-3.25.26-3.77-2.08-.39-3.9-.65-4.94-.91-2.2-.52-2.73-2.08-2.73-3.77-.26-6.1-.13-21.95-.13-30.39a4.1,4.1,0,0,1,1.58-3V29.25C231.88,29.48,231.57,29.71,231.27,30Z"/><path class="a62b0bfc-de07-44a3-b1fb-f2c1356d3dd7" d="M248.93,21.64c-3.73,0-9.74,2.27-16.74,7.61v4.06a1.14,1.14,0,0,1,.11-.11,18.53,18.53,0,0,1,10.53-4c5.37,0,8.18,2.75,9.65,5.77l9-5.86C258.85,24.73,254.56,21.64,248.93,21.64Z"/><path class="a51d2d37-b711-4d32-a40c-4c2c7cf696fc" d="M305.83,71.39c-3.38-.52-5.33-.78-6.89-1.69a3.27,3.27,0,0,1-1.3-2.73c0-5.32,0-17.4-.13-24.42,0-13.38-6.1-20.91-16.1-20.91-4.94,0-11.57,3.38-18.32,8.7-.26.13-.65.26-.91-.13s-.42-.76-.65-1.13l-9,5.86a16,16,0,0,1,1.26,3.85c.78,3.89.65,21,.26,27.14-.13,2.86-.65,3.9-2.34,4.42a36.54,36.54,0,0,1-5.2,1c-.52.52-.52,3.38,0,3.77,2.34,0,8.19-.39,12.08-.39,5.59,0,9.49.26,13.12.39.52-.39.91-3.25.39-3.77a34.12,34.12,0,0,1-5.58-1.17,3.07,3.07,0,0,1-2.08-3.12c-.26-5.45-.13-15.71-.13-22.73a61.65,61.65,0,0,0-.52-9.35c0-.26,0-.78.26-.91,3.9-3.25,8.05-4.68,11.43-4.68,8.05,0,10.91,5.72,11.56,10,.78,3.9.52,17.41.39,24.43-.13,4.15-.39,5.71-2.34,6.36a25.26,25.26,0,0,1-4.93,1.17c-.52.39-.39,3.38,0,3.77,3.24-.26,6.62-.39,13.12-.39,5.32,0,9.61.39,11.95.39C305.7,74.9,306.09,71.91,305.83,71.39Z"/><path class="a62b0bfc-de07-44a3-b1fb-f2c1356d3dd7" d="M360.71,20.34c-7.29,0-13.29,3.18-19,10v3.75c2.44-2.65,3.85-4.17,4.32-4.64,3.51-3,7.53-4.67,11.17-4.67,4.16,0,7.66,1.94,9.35,5.19a13,13,0,0,1,1.28,5.37l8.3-5.27C373.59,23.68,368.39,20.34,360.71,20.34Z"/><path class="a51d2d37-b711-4d32-a40c-4c2c7cf696fc" d="M340.83,31.38a28.15,28.15,0,0,0-1.94-11h-.65A74.57,74.57,0,0,1,323.3,23.2v3H324c7.66.26,7.92.92,7.79,14.94V56.84c.13,14.16-.13,14.81-7.79,14.94h-.65v3h25.59v-3h-.65c-7.28-.26-7.67-1-7.41-14.94V35l.88-1V30.32Z"/><path class="a51d2d37-b711-4d32-a40c-4c2c7cf696fc" d="M421.11,71.78c-7.53-.13-7.92-.91-7.66-14.94V41.12c0-9.87-.39-11.82-2.73-14.94-2.6-3.5-8.05-5.84-13.64-5.84-7.53,0-12.73,3-20.26,11.69-.2-.69-.44-1.34-.69-2l-8.3,5.27c.11,1.64.15,3.82.15,7V56.84c.13,14.16-.13,14.81-7.79,14.94h-.78v3h25.33v-3h-.39c-7-.26-7.4-1-7.14-14.94V36.19c5.84-7.8,10.91-11.3,16.62-11.3,3.64,0,6.63,1.29,8.32,3.63,1.68,2.08,2.07,4.29,2.07,10.91V56.84c.13,14.16-.13,14.68-7.79,14.94h-.52v3H422v-3Z"/><path class="b028e141-2f36-4c78-b16d-8be83e7d255c" d="M538.43,21.43c-.13,0-.52-.13-.65.13-2.21,6.5-7.53,21.18-9.74,28.06,0,.52.13.78.52.91,1.3.13,5.45.13,10.39.13,3.12,0,7.4,0,8.7-.13a.72.72,0,0,0,.39-1C545.44,41.44,540.51,27,538.43,21.43Z"/><polygon class="b028e141-2f36-4c78-b16d-8be83e7d255c" points="615.31 53.13 645.97 53.13 630.64 16.24 615.31 53.13"/><path class="a51d2d37-b711-4d32-a40c-4c2c7cf696fc" d="M547.52,14.68c-.91-2.47-1.56-4.81-2.08-6.76-.39,0-1.68.13-4.28.13-2.21,0-3.77-.13-4.29-.13a40.53,40.53,0,0,1-2.21,7.41c-2.1,6.12-9.27,25.67-15.55,41.84h6.49a1.39,1.39,0,0,1,.88-.54c1.56-.13,2.47,0,10.78,0,5.85,0,10.39-.13,12.21,0a1.89,1.89,0,0,1,.9.54h12.29C556.74,41,549.32,19.79,547.52,14.68Zm.13,35.85c-1.3.13-5.58.13-8.7.13-4.94,0-9.09,0-10.39-.13-.39-.13-.52-.39-.52-.91,2.21-6.88,7.53-21.56,9.74-28.06.13-.26.52-.13.65-.13,2.08,5.59,7,20,9.61,28.06A.72.72,0,0,1,547.65,50.53Z"/><path class="a62b0bfc-de07-44a3-b1fb-f2c1356d3dd7" d="M569.09,74c-1.41-3.34-3.77-9.6-6.43-16.87H550.37a1,1,0,0,1,.27.37c2.29,5.74,6.08,16.34,7.7,22h13.44A43.27,43.27,0,0,1,569.09,74Z"/><path class="a51d2d37-b711-4d32-a40c-4c2c7cf696fc" d="M571.78,79.55H558.34l.09.34A2.4,2.4,0,0,1,557,83.13a40.67,40.67,0,0,1-7.15,1.43c-.52.52-.26,3.25.13,3.77,2.73-.13,10.65-.39,17-.39,5.84,0,12.47.26,15.85.39.39-.52.77-3.38.26-3.77C576.33,83.71,574,83.12,571.78,79.55Z"/><path class="a62b0bfc-de07-44a3-b1fb-f2c1356d3dd7" d="M513,72.48a41.11,41.11,0,0,1-3.59,7.07h8.76c0-.23,0-.46,0-.7.26-3.12,4.41-14,7-21a2.14,2.14,0,0,1,.42-.63h-6.49C516.86,63,514.72,68.33,513,72.48Z"/><path class="a51d2d37-b711-4d32-a40c-4c2c7cf696fc" d="M497.77,84.56c-.52.52-.52,3.25,0,3.77,2.47,0,6.5-.39,13.9-.39s13.9.39,16.63.39c.39-.52.65-3.25.26-3.77a47.55,47.55,0,0,1-6.24-1c-3.58-.92-4.18-2.16-4.18-4h-8.76C506.91,83.08,504.16,83.76,497.77,84.56Z"/><path class="a51d2d37-b711-4d32-a40c-4c2c7cf696fc" d="M636.61,0h-2.46L610.37,57.17h3.35l.42-1.05H647l.43,1.05h13.18Zm-21.3,53.13,15.33-36.89L646,53.13Z"/><path class="a62b0bfc-de07-44a3-b1fb-f2c1356d3dd7" d="M665.58,69l-5-11.81H647.44l6.19,14.92c2.36,5.33,2.85,6.46,3,7.46h13.82A95.67,95.67,0,0,1,665.58,69Z"/><path class="a51d2d37-b711-4d32-a40c-4c2c7cf696fc" d="M679.22,85c-4.54-.82-6.51-1.5-8.81-5.4H656.59a7.68,7.68,0,0,1,0,.86c0,3.5-2.34,4.54-9.61,4.54h-1v3h34V85Z"/><path class="a62b0bfc-de07-44a3-b1fb-f2c1356d3dd7" d="M609.08,60.27,606,67.68c-2.18,5.67-3.85,9.37-5.63,11.87h6.91a8.53,8.53,0,0,1-.37-2.52c0-3,.65-5.2,5.06-15.46l1.79-4.4h-3.35Z"/><path class="a51d2d37-b711-4d32-a40c-4c2c7cf696fc" d="M591.8,84.82l-1.17.13v3h25.72V85h-1c-4,0-7-2.12-8.07-5.4h-6.91C598.07,82.71,595.65,84,591.8,84.82Z"/></g></g></svg>