<svg xmlns="http://www.w3.org/2000/svg" id="Layer_1" viewBox="0 0 315.8 77.7" width="315.8" height="77.7"><style>.st0{fill:#b3b3b3}</style><path id="ee551c7d-6b97-41d1-80e7-82a0163060e2" d="M76.2 38.7c0 22.2-16.2 38.5-38 38.5-8.7 0-18.8-3.4-25-8.5C4.8 61.8 0 50.8 0 38 0 16.5 16.7 0 38.2 0c21.7 0 38 16.5 38 38.7zm-61.6 0c0 24 7.1 34.7 23.5 34.7s23.6-10.7 23.6-34.1c0-24-7.5-35.2-23.5-35.2S14.6 15.3 14.6 38.7zm142.9 38.6c-19.4 0-30.7-14.2-30.7-38.5 0-24.2 11.8-38.8 31.5-38.8C177.5 0 189 14.2 189 38.5c0 24-11.9 38.8-31.5 38.8zm.5-65c-10.1 0-15.1 8.2-15.1 26 0 18.5 4.8 26.9 15.1 26.9s14.9-8.3 14.9-26.9c0-17.9-4.8-26.1-14.9-26zM274.9 0c22.8 0 39.3 16.2 39.3 38.9s-16.6 38.9-39.3 38.9-39.2-16.2-39.2-38.9S252.3 0 274.9 0zm0 14.2c-13.8 0-22.7 10.6-22.7 24.7s8.9 24.7 22.7 24.7c13.9 0 22.9-10.7 22.9-24.7s-9-24.7-22.9-24.7z" class="st0"/></svg>