<svg xmlns="http://www.w3.org/2000/svg" viewBox="0 0 464.3 119.33" width="464.3" height="119.33"><defs><style>.e1b5536c-0e24-43be-884e-c4e043aeb4b4{fill:#b3b3b3}.ea8bb5cd-f6cb-4a09-ba22-84e85b30ce0d{fill:#2997ff}</style></defs><g id="a0e352a3-ad3e-4020-988d-fc41166adcad"><g id="bfe0c4ad-09e5-4ca8-bf11-0cec6febd802"><path d="M12.41 77.92c0 3.89-.17 24-.34 28.06-.17 4.73-.85 6.25-3.72 7.27a30.16 30.16 0 0 1-6.09 1.18c-.67.68-.67 4.22 0 4.9 2.88 0 7.61-.51 16.23-.51 9.8 0 15.55.51 17.75.51.67-.68 1-4.22.17-4.9-3-.34-4.4-.68-6.43-1-3.55-1.18-4.06-2.53-4.39-7.94-.34-4.73-.34-25.86-.34-37.52a5.82 5.82 0 0 1 2-4.06 23.49 23.49 0 0 1 13.18-4.56c11 0 14.87 7.6 15.72 12.17 1.19 7.77.85 24.67.68 33-.17 6.76-.85 7.94-3.38 8.79a46.91 46.91 0 0 1-6.76 1.18c-.51.68-.51 4.22.16 4.9 2.2-.17 9.47-.51 16.06-.51 7.44 0 14 .51 16.9.51.85-.34 1.19-4.39.68-4.9-3.38-.51-5.92-.68-8.28-2a4.62 4.62 0 0 1-2.2-4.22c-.17-7.44-.17-22.15-.17-31.44 0-16.57-7.6-27-21-27-6.08 0-14.19 3.38-23 10.14-.33.17-.84.17-.84-.16 0-4 0-20.27.1-31.55H12.24c.17 7.86.17 21.74.17 49.66z" class="e1b5536c-0e24-43be-884e-c4e043aeb4b4"/><path d="M27.11 6.59c0-.5-.68-2.19-1.19-2.36C20.69 6.59 10.71 9 .57 9.8c-.67.34-.84 3.89 0 4.4a73.39 73.39 0 0 1 8.12 1.18c2.36.51 2.87 2 3.21 4.57.16 2 .27 4.44.34 8.17h12.94c0-2.09 0-4 .07-5.64.17-11.48.51-13.18 1.86-15.89zm95.15-2.19h-1.69c-3 1.69-16.06 3.71-21.64 3.55v3.88h1.19c8.62 0 10.48 2.88 10.14 15.72v.57h12z" class="ea8bb5cd-f6cb-4a09-ba22-84e85b30ce0d"/><path d="M169.75 95.5V76.74c0-11.33-.67-15.89-3-19.61C163 51.22 155.73 48 146.94 48c-9.81 0-17.75 4.4-24.68 13.86V28.12h-12v72.62a38.64 38.64 0 0 1-.17 5.41c0 3.21-.17 4.22-1 5.57-1.52 2.37-3.89 3.39-9 3.22h-1.66v3.88h34.65v-3.88h-.68c-10-.17-10.48-1.19-10.14-19.44V68.12c4.9-9.64 12.34-15.05 20.62-15.05 5.41 0 9.8 2 12.34 5.75 1.86 2.87 2.53 6.76 2.53 16.23V95.5c.17 18.42-.17 19.27-10.14 19.44h-1.52v3.88h35.16v-3.88h-1.35c-9.98-.17-10.48-1.19-10.15-19.44z" class="e1b5536c-0e24-43be-884e-c4e043aeb4b4"/><path d="M356.67 30a8 8 0 0 0-1.61.13L346 31.85c-1.34.27-1.74.67-1.74 2v7.91h13.52V31.72c-.04-1.47-.44-1.72-1.11-1.72zm20.87 85c1.07-.54 1.47-.81 1.47-1.48a7.88 7.88 0 0 0-.26-1.33l-1.88-6.83c-.26-.94-.4-1.61-1.2-1.61a2.45 2.45 0 0 0-1.21.27 29.09 29.09 0 0 1-8.09 2.55v11.56a39.57 39.57 0 0 0 11.17-3.13zm-4.15-53.17c1.34 0 1.74-.4 2-1.74l1.47-6.29a5.66 5.66 0 0 0 .27-1.34c0-.67-.4-1.07-1.74-1.07h-9v10.44z" class="ea8bb5cd-f6cb-4a09-ba22-84e85b30ce0d"/><path d="M344.22 51.39H335c-1.74 0-2.14.4-2.14 2v6.42c0 1.61.4 2 2.14 2h9.23v36.4c0 12 3.21 20.2 17.26 20.2a37.35 37.35 0 0 0 4.89-.34v-11.54a19.51 19.51 0 0 1-2.08.13c-5.35 0-6.55-1.88-6.55-9.77V61.83h8.63V51.39h-8.63v-9.62h-13.53z" class="e1b5536c-0e24-43be-884e-c4e043aeb4b4"/><path d="M458.28 102.38a17.73 17.73 0 0 1-7.38 2.49v13.54a29.87 29.87 0 0 0 13.4-5.06zm-15.93-74.14l-17.13 2.01v11.52h17.13V28.24z" class="ea8bb5cd-f6cb-4a09-ba22-84e85b30ce0d"/><path d="M449.85 104.92c-5.22 0-7.5-2.81-7.5-9.77V58.22h8.55V45.9h-8.55v-4.13h-17.13v4.13h-11.1v12.32h11.1v37.33c0 15.12 7.36 23 21.28 23.15a34.1 34.1 0 0 0 4.4-.29v-13.54c-.35.03-.7.05-1.05.05z" class="e1b5536c-0e24-43be-884e-c4e043aeb4b4"/><path d="M457.07 58.22l1.74-12.32h-7.91v12.32h6.17zM224.41 2c0-.83 0-1.33-.17-1.5a2.23 2.23 0 0 0-2.5-.17c-4.17 2.51-13.19 7.68-15 9.35-.67.67-.84 1.34-.17 1.84 5.84 5.17 6.18 5.34 6.18 15.86v.77h11.38c.06-7.98.28-16.63.28-26.15z" class="ea8bb5cd-f6cb-4a09-ba22-84e85b30ce0d"/><path d="M277.33 113.82c-6.68-2-7.35-2.51-7.35-8.18.17-12 .5-22 .5-26.88 0-12.85-2.5-26.71-18-26.71a32.58 32.58 0 0 0-9.35 1.67c-4.68 1.5-14.36 6.18-18 7.68-.34.17-1-.67-1-1V28.17h-11.4v66.28c0 15.86-.67 16.36-9.35 20.37-.67.33-.84.66-.34 1.67l1 2.33c.16.5.5.5 1.5.34 6.68-1 15.19-1.17 28.38-1.17.66 0 .83 0 .83-.67-.33-4.34-.5-4.84-1.17-4.67-7.84-.67-8.51-1.67-9-5.85a142.52 142.52 0 0 1-1-17.69v-18.2c0-3.5.66-4.34 2-5 5-2.84 11.85-5.35 16.86-5.35a15.14 15.14 0 0 1 10.68 3.51c3.68 2.84 6.68 7 6.68 23.37a139 139 0 0 1-.67 18.36c-.5 4.34-1.17 5.34-4.17 6.85-1.67.83-4.51 1.67-5 2s-.67.5-.33 2.67c.17 1.84.33 2 1 2 .83 0 7.85-1 16-1h11c1.17 0 1.34-.16 1.34-1.17v-2.5c.03-.5-.31-.5-1.64-.83z" class="e1b5536c-0e24-43be-884e-c4e043aeb4b4"/></g></g></svg>