<?xml version="1.0" encoding="utf-8"?>
<!-- Generator: Adobe Illustrator 25.4.1, SVG Export Plug-In . SVG Version: 6.00 Build 0)  -->
<svg version="1.1" id="Layer_1" xmlns="http://www.w3.org/2000/svg" xmlns:xlink="http://www.w3.org/1999/xlink" x="0px" y="0px"
	 viewBox="0 0 1440 1440" style="enable-background:new 0 0 1440 1440;" xml:space="preserve">
<style type="text/css">
	.st0{fill:#505050;}
	.st1{fill:#B3B3B3;}
	.st2{fill:none;stroke:#2997FF;stroke-width:6;}
</style>
<g>
	<g>
		<path class="st0" d="M494.6,545.6c-28.5,24.2-55.9,41.3-82.2,51.3c-26.3,10-54.6,15-84.8,15c-49.8,0-88.1-12.2-114.9-36.5
			c-26.8-24.3-40.2-55.5-40.2-93.3c0-22.2,5.1-42.5,15.2-60.9c10.1-18.4,23.3-33.1,39.7-44.2c16.4-11.1,34.8-19.5,55.3-25.2
			c15.1-4,37.9-7.8,68.3-11.5c62.1-7.4,107.8-16.2,137.1-26.5c0.3-10.5,0.4-17.2,0.4-20.1c0-31.3-7.3-53.4-21.8-66.2
			c-19.7-17.4-48.8-26.1-87.6-26.1c-36.2,0-62.9,6.3-80.1,19c-17.2,12.7-30,35.1-38.2,67.3l-75.2-10.3c6.8-32.2,18.1-58.2,33.7-78
			c15.7-19.8,38.3-35,67.9-45.7c29.6-10.7,63.9-16,103-16c38.7,0,70.2,4.6,94.4,13.7c24.2,9.1,42,20.6,53.4,34.4
			c11.4,13.8,19.4,31.3,23.9,52.3c2.6,13.1,3.8,36.7,3.8,70.9v102.5c0,71.5,1.6,116.7,4.9,135.6c3.3,18.9,9.8,37.1,19.4,54.5h-80.3
			C502,585.6,496.8,567,494.6,545.6z M488.2,373.9c-27.9,11.4-69.8,21.1-125.6,29c-31.6,4.6-54,9.7-67.1,15.4
			c-13.1,5.7-23.2,14-30.3,25c-7.1,11-10.7,23.1-10.7,36.5c0,20.5,7.8,37.6,23.3,51.3c15.5,13.7,38.2,20.5,68.1,20.5
			c29.6,0,56-6.5,79-19.4c23.1-13,40-30.7,50.8-53.2c8.3-17.4,12.4-43,12.4-76.9V373.9z"/>
	</g>
	<g>
		<path class="st0" d="M1267.5,599.8c-12.8,7.6-30.6,11.4-53.4,11.4c-19.2,0-34.6-5.4-45.9-16.2c-11.4-10.8-17.1-28.4-17.1-52.9
			c-20.4,24.5-44.2,42.1-71.3,52.9s-56.4,16.2-87.9,16.2c-20.4,0-39.8-2.3-58.2-7c-18.4-4.7-34.3-11.9-47.7-21.9
			c-13.4-9.9-24.1-22.9-31.9-38.9c-7.9-16-11.8-35.4-11.8-58.2c0-25.7,4.4-46.7,13.1-63c8.7-16.3,20.3-29.6,34.6-39.8
			c14.3-10.2,30.6-17.9,49-23.2s37.2-9.6,56.4-13.1c20.4-4.1,39.8-7.1,58.2-9.2c18.4-2,34.6-4.9,48.6-8.7c14-3.8,25.1-9.3,33.2-16.6
			c8.2-7.3,12.2-17.9,12.2-31.9c0-16.3-3.1-29.4-9.2-39.4c-6.1-9.9-14-17.5-23.6-22.7c-9.6-5.2-20.4-8.7-32.4-10.5
			c-12-1.7-23.8-2.6-35.4-2.6c-31.5,0-57.7,6-78.7,17.9c-21,12-32.4,34.6-34.1,67.8h-74.4c1.2-28,7-51.6,17.5-70.9
			c10.5-19.2,24.5-34.8,42-46.8c17.5-11.9,37.5-20.6,59.9-25.8c22.4-5.2,46.5-7.9,72.2-7.9c20.4,0,40.7,1.5,60.8,4.4
			s38.3,8.9,54.7,17.9c16.3,9,29.4,21.7,39.4,38c9.9,16.3,14.9,37.5,14.9,63.7V495c0,17.5,1,30.3,3.1,38.4c2,8.1,8.9,12.2,20.6,12.2
			c6.4,0,14-1.2,22.7-3.5V599.8z M1146.8,368c-9.3,7-21.6,12-36.7,15.2c-15.2,3.2-31.1,5.8-47.7,7.8c-16.6,2-33.4,4.4-50.3,7
			c-16.9,2.6-32.1,6.8-45.5,12.6c-13.4,5.8-24.4,14.1-32.8,24.8c-8.5,10.7-12.7,25.4-12.7,44c0,12.2,2.5,22.5,7.4,30.9
			c4.9,8.4,11.4,15.2,19.2,20.5c7.9,5.2,17.1,9,27.6,11.3c10.5,2.3,21.6,3.5,33.2,3.5c24.5,0,45.5-3.3,63-10
			c17.5-6.7,31.8-15.1,42.9-25.2c11.1-10.2,19.2-21.2,24.5-33.1s7.9-23.1,7.9-33.5V368z"/>
	</g>
</g>
<g>
	<path class="st1" d="M833.2,1229.1c-28.5,24.2-55.9,41.3-82.2,51.3c-26.3,10-54.6,15-84.8,15c-49.8,0-88.1-12.2-114.9-36.5
		c-26.8-24.3-40.2-55.5-40.2-93.3c0-22.2,5.1-42.5,15.2-60.9c10.1-18.4,23.3-33.1,39.7-44.2c16.4-11.1,34.8-19.5,55.3-25.2
		c15.1-4,37.9-7.8,68.3-11.5c62.1-7.4,107.8-16.2,137.1-26.5c0.3-10.5,0.4-17.2,0.4-20.1c0-31.3-7.3-53.4-21.8-66.2
		c-19.7-17.4-48.8-26.1-87.6-26.1c-36.2,0-62.9,6.3-80.1,19c-17.2,12.7-30,35.1-38.2,67.3l-75.2-10.3c6.8-32.2,18.1-58.2,33.7-78
		c15.7-19.8,38.3-35,67.9-45.7c29.6-10.7,63.9-16,103-16c38.7,0,70.2,4.6,94.4,13.7c24.2,9.1,42,20.6,53.4,34.4
		c11.4,13.8,19.4,31.3,23.9,52.3c2.6,13.1,3.8,36.7,3.8,70.9V1095c0,71.5,1.6,116.7,4.9,135.6c3.3,18.9,9.8,37.1,19.4,54.5h-80.3
		C840.6,1269.1,835.5,1250.4,833.2,1229.1z M826.8,1057.4c-27.9,11.4-69.8,21.1-125.6,29c-31.6,4.6-54,9.7-67.1,15.4
		c-13.1,5.7-23.2,14-30.3,25c-7.1,11-10.7,23.1-10.7,36.5c0,20.5,7.8,37.6,23.3,51.3c15.5,13.7,38.2,20.5,68.1,20.5
		c29.6,0,56-6.5,79-19.4c23.1-13,40-30.7,50.8-53.2c8.3-17.4,12.4-43,12.4-76.9V1057.4z"/>
</g>
<g>
	<path class="st2" d="M932.6,1283.1c-12.8,7.6-30.6,11.4-53.4,11.4c-19.2,0-34.6-5.4-45.9-16.2c-11.4-10.8-17.1-28.4-17.1-52.9
		c-20.4,24.5-44.2,42.1-71.3,52.9s-56.4,16.2-87.9,16.2c-20.4,0-39.8-2.3-58.2-7c-18.4-4.7-34.3-11.9-47.7-21.9
		c-13.4-9.9-24.1-22.9-31.9-38.9c-7.9-16-11.8-35.4-11.8-58.2c0-25.7,4.4-46.7,13.1-63c8.7-16.3,20.3-29.6,34.6-39.8
		c14.3-10.2,30.6-17.9,49-23.2s37.2-9.6,56.4-13.1c20.4-4.1,39.8-7.1,58.2-9.2c18.4-2,34.6-4.9,48.6-8.7c14-3.8,25.1-9.3,33.2-16.6
		c8.2-7.3,12.2-17.9,12.2-31.9c0-16.3-3.1-29.4-9.2-39.4c-6.1-9.9-14-17.5-23.6-22.7c-9.6-5.2-20.4-8.7-32.4-10.5
		c-12-1.7-23.8-2.6-35.4-2.6c-31.5,0-57.7,6-78.7,17.9c-21,12-32.4,34.6-34.1,67.8h-74.4c1.2-28,7-51.6,17.5-70.9
		c10.5-19.2,24.5-34.8,42-46.8c17.5-11.9,37.5-20.6,59.9-25.8c22.4-5.2,46.5-7.9,72.2-7.9c20.4,0,40.7,1.5,60.8,4.4
		c20.1,2.9,38.3,8.9,54.7,17.9c16.3,9,29.4,21.7,39.4,38c9.9,16.3,14.9,37.5,14.9,63.7v232.2c0,17.5,1,30.3,3.1,38.4
		c2,8.1,8.9,12.2,20.6,12.2c6.4,0,14-1.2,22.7-3.5V1283.1z M811.9,1051.2c-9.3,7-21.6,12-36.7,15.2c-15.2,3.2-31.1,5.8-47.7,7.8
		c-16.6,2-33.4,4.4-50.3,7c-16.9,2.6-32.1,6.8-45.5,12.6c-13.4,5.8-24.4,14.1-32.8,24.8c-8.5,10.7-12.7,25.4-12.7,44
		c0,12.2,2.5,22.5,7.4,30.9c4.9,8.4,11.4,15.2,19.2,20.5c7.9,5.2,17.1,9,27.6,11.3c10.5,2.3,21.6,3.5,33.2,3.5
		c24.5,0,45.5-3.3,63-10c17.5-6.7,31.8-15.1,42.9-25.2c11.1-10.2,19.2-21.2,24.5-33.1s7.9-23.1,7.9-33.5V1051.2z"/>
</g>
</svg>
