<svg xmlns="http://www.w3.org/2000/svg" id="Layer_1" viewBox="0 0 702.33 842.31" width="702.33" height="842.31"><style>.st0{fill:none;stroke:#231f20;stroke-miterlimit:10}.st1{fill:#231f20}.st2{fill:none;stroke:#231f20;stroke-width:.5;stroke-miterlimit:10}.st3{fill:#fff}.st4{enable-background:new}.st5{fill:#b3b4b4}.st6{fill:#505150}.st7,.st8{fill:none;stroke:#2997ff;stroke-width:2;stroke-miterlimit:10}.st8{stroke:#231f20}</style><path d="M67.04 697.31h479.92" class="st0"/><path d="M61 697.31c2.84 1.05 6.36 2.85 8.55 4.76l-1.72-4.76 1.72-4.75c-2.19 1.9-5.71 3.7-8.55 4.75zm492 0c-2.84 1.05-6.36 2.85-8.55 4.76l1.72-4.76-1.72-4.75c2.19 1.9 5.71 3.7 8.55 4.75z" class="st1"/><path d="M4.02 13.31h605.96" class="st2"/><path d="M1 13.31c1.42.53 3.18 1.43 4.27 2.38l-.86-2.38.86-2.38c-1.09.95-2.85 1.85-4.27 2.38zm612 0c-1.42.53-3.18 1.43-4.27 2.38l.86-2.38-.86-2.38c1.09.95 2.85 1.85 4.27 2.38z" class="st1"/><path d="M274.15 1.81h64.99v19.63h-64.99V1.81z" class="st3"/><path d="M672.88 52.33v785.96" class="st2"/><path d="M672.88 49.31c-.53 1.42-1.43 3.18-2.38 4.27l2.38-.86 2.38.86c-.96-1.09-1.86-2.85-2.38-4.27zm0 792c-.53-1.42-1.43-3.18-2.38-4.27l2.38.86 2.38-.86c-.96 1.09-1.86 2.85-2.38 4.27z" class="st1"/><path d="M652.03 420.93h41.94v23.34h-41.94v-23.34z" class="st3"/><g class="st4"><path d="M289.78 14.8c0 3.38-2.26 5.86-5.52 5.86-4.13 0-5.83-3.19-5.83-7.83 0-5.4 2.52-8.98 6.62-8.98 1.42 0 2.59.41 3.53 1.03l-1.15 1.9c-.7-.41-1.46-.65-2.33-.65-2.04 0-3.34 1.94-3.5 5.18 1.03-1.25 2.26-1.78 3.62-1.78 2.52.01 4.56 1.83 4.56 5.27zm-3.09.04c0-2.3-.84-3.07-2.21-3.07-1.1 0-2.11.65-2.86 1.66.05 3.46.79 4.94 2.64 4.94 1.64 0 2.43-1.41 2.43-3.53zm11.11 5.45h-3.02V7.24l-3.6 2.18-1.34-2.06 5.26-3.22h2.71v16.15zm13.13-11.9c0 2.74-1.56 4.73-6.55 9.48h6.91l-.34 2.42h-10.06v-2.26c5.52-5.62 6.86-7.13 6.86-9.41 0-1.49-.94-2.35-2.33-2.35-1.27 0-2.11.53-3.12 1.7l-1.87-1.49c1.3-1.68 3-2.64 5.23-2.64 3.35.01 5.27 2.03 5.27 4.55zm14.4 5.52c0 3.89-1.8 6.75-5.02 6.75-1.3 0-2.4-.46-3.19-1.39v5.93l-3.07.34V7.59h2.69l.17 1.56c1.01-1.32 2.35-1.92 3.72-1.92 3.3.01 4.7 2.62 4.7 6.68zm-3.22.02c0-3.22-.86-4.39-2.4-4.39-1.08 0-1.99.74-2.59 1.73v5.71c.6.89 1.37 1.32 2.33 1.32 1.68 0 2.66-1.3 2.66-4.37zm13.39 5.76c-.91.65-2.06.96-3.19.96-2.5-.02-3.82-1.44-3.82-4.15V9.8h-1.99V7.59h1.99v-2.8l3.07-.36V7.6h2.95l-.31 2.21h-2.64v6.62c0 1.25.41 1.75 1.34 1.75.48 0 .96-.14 1.51-.46l1.09 1.97z" class="st5"/></g><g class="st4"><path d="M294.39 79.88c0 3.38-2.26 5.86-5.52 5.86-4.13 0-5.83-3.19-5.83-7.83 0-5.4 2.52-8.98 6.62-8.98 1.42 0 2.59.41 3.53 1.03l-1.15 1.9c-.7-.41-1.46-.65-2.33-.65-2.04 0-3.34 1.94-3.5 5.18 1.03-1.25 2.26-1.78 3.62-1.78 2.52.01 4.56 1.84 4.56 5.27zm-3.1.05c0-2.3-.84-3.07-2.21-3.07-1.1 0-2.11.65-2.86 1.66.05 3.46.79 4.94 2.64 4.94 1.64 0 2.43-1.42 2.43-3.53zm16.52-2.62c0 5.4-1.97 8.42-5.78 8.42-3.79 0-5.78-3.02-5.78-8.42 0-5.38 1.99-8.38 5.78-8.38 3.81.01 5.78 3.01 5.78 8.38zm-8.4 0c0 4.51.84 6.1 2.62 6.1 1.78 0 2.62-1.54 2.62-6.1 0-4.54-.84-6.05-2.62-6.05-1.78 0-2.62 1.59-2.62 6.05zm22.58 1.68c0 3.89-1.8 6.75-5.02 6.75-1.3 0-2.4-.46-3.19-1.39v5.93l-3.07.34V72.68h2.69l.17 1.56c1.01-1.32 2.35-1.92 3.72-1.92 3.31 0 4.7 2.62 4.7 6.67zm-3.22.03c0-3.22-.86-4.39-2.4-4.39-1.08 0-1.99.74-2.59 1.73v5.71c.6.89 1.37 1.32 2.33 1.32 1.68 0 2.66-1.3 2.66-4.37zm13.4 5.76c-.91.65-2.06.96-3.19.96-2.5-.02-3.82-1.44-3.82-4.15v-6.7h-1.99v-2.21h1.99v-2.81l3.07-.36v3.17h2.95l-.31 2.21h-2.64v6.62c0 1.25.41 1.75 1.34 1.75.48 0 .96-.14 1.51-.46l1.09 1.98z" class="st5"/></g><g class="st4"><path d="M294.28 796.33l-5.98 14.31-2.81-.91 5.62-13.18h-6.82v-2.38h9.99v2.16zm11.11 2.09c0 2.74-1.56 4.73-6.55 9.48h6.91l-.34 2.42h-10.06v-2.26c5.52-5.62 6.87-7.13 6.87-9.41 0-1.49-.94-2.35-2.33-2.35-1.27 0-2.11.53-3.12 1.7l-1.87-1.49c1.3-1.68 3-2.64 5.23-2.64 3.34.01 5.26 2.03 5.26 4.55zm14.4 5.52c0 3.89-1.8 6.75-5.02 6.75-1.3 0-2.4-.46-3.19-1.39v5.93l-3.07.34v-17.93h2.69l.17 1.56c1.01-1.32 2.35-1.92 3.72-1.92 3.31-.01 4.7 2.6 4.7 6.66zm-3.21.02c0-3.22-.86-4.39-2.4-4.39-1.08 0-1.99.74-2.59 1.73v5.71c.6.89 1.37 1.32 2.33 1.32 1.67 0 2.66-1.29 2.66-4.37zm13.39 5.76c-.91.65-2.06.96-3.19.96-2.5-.02-3.82-1.44-3.82-4.15v-6.7h-1.99v-2.21h1.99v-2.81l3.07-.36v3.17h2.95l-.31 2.21h-2.64v6.62c0 1.25.41 1.75 1.34 1.75.48 0 .96-.14 1.51-.46l1.09 1.98z" class="st5"/></g><g class="st4"><path d="M19.53 434.97c0 3.38-2.26 5.86-5.52 5.86-4.13 0-5.83-3.19-5.83-7.83 0-5.4 2.52-8.98 6.62-8.98 1.42 0 2.59.41 3.53 1.03l-1.15 1.9c-.7-.41-1.46-.65-2.33-.65-2.04 0-3.34 1.94-3.5 5.18 1.03-1.25 2.26-1.78 3.62-1.78 2.52.02 4.56 1.84 4.56 5.27zm-3.1.05c0-2.3-.84-3.07-2.21-3.07-1.1 0-2.11.65-2.86 1.66.05 3.46.79 4.94 2.64 4.94 1.64 0 2.43-1.42 2.43-3.53zm16.51-2.61c0 5.4-1.97 8.42-5.78 8.42-3.79 0-5.78-3.02-5.78-8.42 0-5.38 1.99-8.38 5.78-8.38 3.82 0 5.78 3 5.78 8.38zm-8.4 0c0 4.51.84 6.1 2.62 6.1 1.78 0 2.62-1.54 2.62-6.1 0-4.54-.84-6.05-2.62-6.05-1.78 0-2.62 1.58-2.62 6.05zm22.59 1.67c0 3.89-1.8 6.75-5.02 6.75-1.3 0-2.4-.46-3.19-1.39v5.93l-3.07.34v-17.93h2.69l.17 1.56c1.01-1.32 2.35-1.92 3.72-1.92 3.31-.01 4.7 2.61 4.7 6.66zm-3.22.03c0-3.22-.86-4.39-2.4-4.39-1.08 0-1.99.74-2.59 1.73v5.71c.6.89 1.37 1.32 2.33 1.32 1.68 0 2.66-1.3 2.66-4.37zm13.39 5.76c-.91.65-2.06.96-3.19.96-2.5-.02-3.82-1.44-3.82-4.15v-6.7H48.3v-2.21h1.99v-2.81l3.07-.36v3.17h2.95l-.31 2.21h-2.64v6.62c0 1.25.41 1.75 1.34 1.75.48 0 .96-.14 1.51-.46l1.09 1.98z" class="st5"/></g><g class="st4"><path d="M569.41 434.97c0 3.38-2.26 5.86-5.52 5.86-4.13 0-5.83-3.19-5.83-7.83 0-5.4 2.52-8.98 6.62-8.98 1.42 0 2.59.41 3.53 1.03l-1.15 1.9c-.7-.41-1.46-.65-2.33-.65-2.04 0-3.34 1.94-3.5 5.18 1.03-1.25 2.26-1.78 3.62-1.78 2.52.02 4.56 1.84 4.56 5.27zm-3.1.05c0-2.3-.84-3.07-2.21-3.07-1.1 0-2.11.65-2.86 1.66.05 3.46.79 4.94 2.64 4.94 1.64 0 2.43-1.42 2.43-3.53zm16.52-2.61c0 5.4-1.97 8.42-5.78 8.42-3.79 0-5.79-3.02-5.79-8.42 0-5.38 1.99-8.38 5.79-8.38 3.81 0 5.78 3 5.78 8.38zm-8.4 0c0 4.51.84 6.1 2.62 6.1 1.78 0 2.62-1.54 2.62-6.1 0-4.54-.84-6.05-2.62-6.05-1.78 0-2.62 1.58-2.62 6.05zm22.58 1.67c0 3.89-1.8 6.75-5.02 6.75-1.3 0-2.4-.46-3.19-1.39v5.93l-3.07.34v-17.93h2.69l.17 1.56c1.01-1.32 2.35-1.92 3.72-1.92 3.31-.01 4.7 2.61 4.7 6.66zm-3.22.03c0-3.22-.86-4.39-2.4-4.39-1.08 0-1.99.74-2.59 1.73v5.71c.6.89 1.37 1.32 2.33 1.32 1.68 0 2.66-1.3 2.66-4.37zm13.4 5.76c-.91.65-2.06.96-3.19.96-2.5-.02-3.82-1.44-3.82-4.15v-6.7h-1.99v-2.21h1.99v-2.81l3.07-.36v3.17h2.95l-.31 2.21h-2.64v6.62c0 1.25.41 1.75 1.34 1.75.48 0 .96-.14 1.51-.46l1.09 1.98z" class="st5"/></g><g class="st4"><path d="M653.63 426.48l-5.98 14.31-2.81-.91 5.62-13.18h-6.82v-2.38h9.98v2.16zm12.31 3.81c0 6.65-2.93 9.24-9.41 10.78l-.65-2.18c4.03-1.06 6.34-2.62 6.77-5.81-.77.98-1.9 1.68-3.46 1.68-2.5 0-4.54-1.99-4.54-5.26 0-3.38 2.5-5.47 5.62-5.47 3.75 0 5.67 2.54 5.67 6.26zm-3.14.58c.05-3.34-.72-4.56-2.52-4.56-1.56 0-2.54 1.08-2.54 3.14 0 2.21 1.01 3.07 2.3 3.07 1.1.01 2.04-.6 2.76-1.65zm14.62-2.31c0 2.74-1.56 4.73-6.55 9.48h6.91l-.34 2.42h-10.06v-2.26c5.52-5.62 6.86-7.13 6.86-9.41 0-1.49-.94-2.35-2.33-2.35-1.27 0-2.11.53-3.12 1.7l-1.87-1.49c1.3-1.68 3-2.64 5.23-2.64 3.35.02 5.27 2.03 5.27 4.55zm14.4 5.52c0 3.89-1.8 6.75-5.02 6.75-1.3 0-2.4-.46-3.19-1.39v5.93l-3.07.34v-17.93h2.69l.17 1.56c1.01-1.32 2.35-1.92 3.72-1.92 3.3-.01 4.7 2.61 4.7 6.66zm-3.22.03c0-3.22-.86-4.39-2.4-4.39-1.08 0-1.99.74-2.59 1.73v5.71c.6.89 1.37 1.32 2.33 1.32 1.68 0 2.66-1.3 2.66-4.37zm13.39 5.76c-.91.65-2.06.96-3.19.96-2.5-.02-3.82-1.44-3.82-4.15v-6.7h-1.99v-2.21h1.99v-2.81l3.07-.36v3.17H701l-.31 2.21h-2.64v6.62c0 1.25.41 1.75 1.34 1.75.48 0 .96-.14 1.51-.46l1.09 1.98z" class="st5"/></g><path d="M480.88 115.34v647.93" class="st0"/><path d="M480.88 109.31c-1.05 2.84-2.85 6.36-4.76 8.55l4.76-1.72 4.75 1.72c-1.9-2.19-3.7-5.71-4.75-8.55zm0 660c-1.05-2.84-2.85-6.36-4.76-8.55l4.76 1.72 4.75-1.72c-1.9 2.19-3.7 5.71-4.75 8.55z" class="st1"/><path d="M460.03 420.93h41.94v23.34h-41.94v-23.34z" class="st3"/><g class="st4"><path d="M461.67 434.97c0 3.38-2.26 5.86-5.52 5.86-4.13 0-5.83-3.19-5.83-7.83 0-5.4 2.52-8.98 6.62-8.98 1.42 0 2.59.41 3.53 1.03l-1.15 1.9c-.7-.41-1.46-.65-2.33-.65-2.04 0-3.34 1.94-3.5 5.18 1.03-1.25 2.26-1.78 3.62-1.78 2.52.02 4.56 1.84 4.56 5.27zm-3.1.05c0-2.3-.84-3.07-2.21-3.07-1.1 0-2.11.65-2.86 1.66.05 3.46.79 4.94 2.64 4.94 1.64 0 2.43-1.42 2.43-3.53zm16.3-.05c0 3.38-2.26 5.86-5.52 5.86-4.13 0-5.83-3.19-5.83-7.83 0-5.4 2.52-8.98 6.62-8.98 1.42 0 2.59.41 3.53 1.03l-1.15 1.9c-.7-.41-1.46-.65-2.33-.65-2.04 0-3.34 1.94-3.5 5.18 1.03-1.25 2.26-1.78 3.62-1.78 2.52.02 4.56 1.84 4.56 5.27zm-3.1.05c0-2.3-.84-3.07-2.21-3.07-1.1 0-2.11.65-2.86 1.66.05 3.46.79 4.94 2.64 4.94 1.64 0 2.43-1.42 2.43-3.53zm16.51-2.61c0 5.4-1.97 8.42-5.78 8.42-3.79 0-5.78-3.02-5.78-8.42 0-5.38 1.99-8.38 5.78-8.38 3.81 0 5.78 3 5.78 8.38zm-8.4 0c0 4.51.84 6.1 2.62 6.1s2.62-1.54 2.62-6.1c0-4.54-.84-6.05-2.62-6.05s-2.62 1.58-2.62 6.05zm22.59 1.67c0 3.89-1.8 6.75-5.02 6.75-1.3 0-2.4-.46-3.19-1.39v5.93l-3.07.34v-17.93h2.69l.17 1.56c1.01-1.32 2.35-1.92 3.72-1.92 3.3-.01 4.7 2.61 4.7 6.66zm-3.22.03c0-3.22-.86-4.39-2.4-4.39-1.08 0-1.99.74-2.59 1.73v5.71c.6.89 1.37 1.32 2.33 1.32 1.68 0 2.66-1.3 2.66-4.37zm13.39 5.76c-.91.65-2.06.96-3.19.96-2.5-.02-3.82-1.44-3.82-4.15v-6.7h-1.99v-2.21h1.99v-2.81l3.07-.36v3.17h2.95l-.31 2.21h-2.64v6.62c0 1.25.41 1.75 1.34 1.75.48 0 .96-.14 1.51-.46l1.09 1.98z" class="st6"/></g><path d="M275.14 685.64h64.75v23.34h-64.75v-23.34z" class="st3"/><g class="st4"><path d="M285.86 691.3h-6.05v4.01c.82-.41 1.66-.6 2.45-.6 2.69 0 4.63 1.92 4.63 5.21 0 3.31-2.38 5.62-6.02 5.62-2.26 0-3.84-.91-5.09-2.28l1.75-1.63c.89.98 1.92 1.54 3.26 1.54 1.8 0 2.93-1.15 2.93-3.24 0-2.23-1.1-3-2.59-3-.74 0-1.34.17-2.09.55h-2.18v-8.45h9.36l-.36 2.27zm14.59 5.81c0 5.4-1.97 8.42-5.78 8.42-3.79 0-5.78-3.02-5.78-8.42 0-5.38 1.99-8.38 5.78-8.38 3.81 0 5.78 3 5.78 8.38zm-8.4 0c0 4.51.84 6.1 2.62 6.1 1.78 0 2.62-1.54 2.62-6.1 0-4.54-.84-6.05-2.62-6.05-1.78 0-2.62 1.58-2.62 6.05zm22.15 0c0 5.4-1.97 8.42-5.78 8.42-3.79 0-5.78-3.02-5.78-8.42 0-5.38 1.99-8.38 5.78-8.38 3.81 0 5.78 3 5.78 8.38zm-8.4 0c0 4.51.84 6.1 2.62 6.1 1.78 0 2.62-1.54 2.62-6.1 0-4.54-.84-6.05-2.62-6.05-1.78 0-2.62 1.58-2.62 6.05zm22.58 1.68c0 3.89-1.8 6.75-5.02 6.75-1.3 0-2.4-.46-3.19-1.39v5.93l-3.07.34v-17.93h2.69l.17 1.56c1.01-1.32 2.35-1.92 3.72-1.92 3.31-.01 4.7 2.6 4.7 6.66zm-3.21.02c0-3.22-.86-4.39-2.4-4.39-1.08 0-1.99.74-2.59 1.73v5.71c.6.89 1.37 1.32 2.33 1.32 1.67 0 2.66-1.3 2.66-4.37zm13.39 5.76c-.91.65-2.06.96-3.19.96-2.5-.02-3.82-1.44-3.82-4.15v-6.7h-1.99v-2.21h1.99v-2.81l3.07-.36v3.17h2.95l-.31 2.21h-2.64v6.62c0 1.25.41 1.75 1.34 1.75.48 0 .96-.14 1.51-.46l1.09 1.98z" class="st6"/></g><path d="M61 109.31h492v660H61v-660z" class="st7"/><path d="M1 49.31h612v792H1v-792z" class="st8"/></svg>