<svg xmlns="http://www.w3.org/2000/svg" id="Layer_1" viewBox="0 0 800 651.8" width="800" height="651.8"><style>.st0,.st1{fill:none;stroke:#231f20;stroke-width:1.9517;stroke-miterlimit:10}.st1{stroke:#ec1c24}.st2{fill:#2997ff}.st3{fill:#f26518}.st4,.st5{fill:none;stroke:#969696;stroke-width:1.9517;stroke-miterlimit:10}.st5{stroke:#b2b3b3}</style><g id="b2f0544f-b1b3-45b5-815e-323474175d9e"><g id="ec1f5e9c-e8be-4efb-9fe2-5454a2c19354"><path d="M679 0v97.6m23.4 23.4H800" class="st0"/><path d="M0 103.4h696.6v548.4" class="st1"/><path d="M43.1 121H679v491.2" class="st0"/><path d="M104.7 262.2l-2.5 2.5c-1.2-1-2.7-1.6-4.2-1.6-5.7 0-7.5 7.1-7.5 11.9 0 4.4 2 6.1 4.7 6.1 1.9-.1 3.7-.8 5.2-2.1l1.9 2.9c-2.1 1.9-4.8 2.9-7.6 3-5.3 0-9-3.5-9-10s3.3-15.4 12.1-15.4c2.5 0 5 .9 6.9 2.7zm-.5 14.9c0-4.9 2.5-11.7 10-11.7 4.8 0 7.5 3 7.5 7.8s-2.4 11.7-10 11.7c-4.8 0-7.5-3-7.5-7.8zm12.9-4.4c0-2.8-1.1-4-3.1-4-4.2 0-5.2 5.6-5.2 8.7 0 2.8 1.1 4.1 3.2 4.1 4.2 0 5.1-5.6 5.1-8.8zm20.9-7.2l-1.3 4.3c-.5-.1-1-.2-1.5-.2-2.4 0-3.8 2.2-4.9 5.5l-1.3 9.2h-4.4l2.6-18.6h3.9l-.2 3.6c.8-2.3 2.9-3.9 5.3-4.1.5 0 1.2.1 1.8.3zm13.6 0l-1.3 4.3c-.5-.1-1-.2-1.5-.2-2.4 0-3.8 2.2-4.9 5.5l-1.3 9.2h-4.4l2.6-18.6h3.9l-.2 3.6c.8-3 4-4.8 7-4 .1 0 .1 0 .2.1l-.1.1zm3.9 12c0 2.9 1.6 3.9 3.6 3.9 1.8 0 3.5-.7 4.9-1.8l1.7 2.8c-2 1.5-4.5 2.4-7.1 2.5-5.1 0-7.7-3-7.7-7.8 0-5.1 2.6-11.9 10.1-11.9 4.3 0 6.4 2.3 6.4 4.9.1 5.3-5.8 6.8-11.9 7.4zm7.4-7.2c0-1.1-.9-2-1.9-2h-.2c-3.2 0-4.6 3.1-5.1 6.1 5-.3 7.2-1.7 7.2-4.1zm21.9-2.9l-2.2 2.7c-.9-.9-2.1-1.4-3.4-1.3-4.2 0-5.3 5-5.3 8.5 0 2.9 1.3 3.9 3.3 3.9 1.4-.1 2.8-.5 3.9-1.4l1.7 3c-1.7 1.4-3.9 2.1-6.1 2.2-4.7 0-7.5-3-7.5-7.8s2.7-11.7 10-11.7c2-.2 4 .5 5.6 1.9zm6.5 11.4c-.3 1.8.2 2.5 1.4 2.5.8 0 1.7-.3 2.4-.7l1.3 3c-1.4.9-3 1.3-4.7 1.3-3.6 0-5.4-2.2-4.8-6.2l1.4-9.8h-2.8l.4-3.2h3.1l1.2-4.2 3.7-.4-.6 4.6h4.3l-.9 3.2h-3.9l-1.5 9.9z" class="st2"/><path d="M64.4 423.6h-4.7l3.4-24.3h4.6l-3.3 24.3zm22.3-13.3l-2 13.3h-4.4l1.8-12.6c.3-2.2-.4-2.8-1.5-2.8-1.8 0-3.5 2.1-4.9 4.8l-1.6 10.7h-4.4l2.6-18.6h3.9l-.2 3.5c1.3-2.3 3.7-3.8 6.4-3.9 3.1-.2 4.8 2 4.3 5.6zm18.9-3.6l-2.3 2.7c-.9-.9-2.1-1.4-3.4-1.3-4.2 0-5.3 5-5.3 8.5 0 2.9 1.3 3.9 3.3 3.9 1.4-.1 2.8-.5 3.9-1.4l1.7 3c-1.8 1.3-3.9 2-6.1 2-4.7 0-7.5-3-7.5-7.8s2.7-11.8 10-11.8c2.1-.1 4.1.7 5.7 2.2zm.4 9.6c0-4.9 2.5-11.8 10-11.8 4.8 0 7.5 3 7.5 7.8s-2.4 11.8-10 11.8c-4.9.1-7.5-2.9-7.5-7.8zm12.9-4.3c0-2.8-1.1-4-3.1-4-4.2 0-5.2 5.6-5.2 8.7 0 2.8 1.1 4.1 3.2 4.1 4.1-.1 5.1-5.7 5.1-8.8zm20.8-7.2l-1.3 4.3c-.5-.1-1-.2-1.5-.2-2.4 0-3.8 2.2-4.9 5.5l-1.3 9.2h-4.4l2.6-18.6h3.9l-.1 3.6c.8-2.3 2.9-3.9 5.3-4.1.5.1 1.1.1 1.7.3zm13.6 0l-1.3 4.3c-.5-.1-1-.2-1.5-.2-2.4 0-3.8 2.2-4.9 5.5l-1.3 9.2h-4.4l2.7-18.6h3.9l-.1 3.6c.8-3 4-4.8 7-4 .1 0 .1 0 .2.1l-.3.1zm3.9 12c0 2.9 1.6 3.9 3.6 3.9 1.8 0 3.5-.6 4.9-1.7l1.7 2.8c-2 1.5-4.5 2.4-7.1 2.4-3.9.4-7.3-2.4-7.7-6.3v-1.5c0-5.1 2.6-11.9 10.1-11.9 4.3 0 6.4 2.3 6.4 4.9.1 5.3-5.8 6.8-11.9 7.4zm7.4-7.2c0-1.1-.9-2-1.9-2h-.2c-3.2 0-4.6 3.1-5.1 6.1 5-.3 7.2-1.7 7.2-4.1zm21.9-2.9l-2.2 2.7c-.9-.9-2.1-1.4-3.4-1.3-4.2 0-5.3 5-5.3 8.5 0 2.9 1.3 3.9 3.3 3.9 1.4-.1 2.8-.5 3.9-1.4l1.7 3c-1.8 1.3-3.9 2-6.1 2-4.7 0-7.5-3-7.5-7.8s2.7-11.8 10-11.8c2-.1 4.1.7 5.6 2.2zM193 418c-.3 1.8.2 2.5 1.4 2.5.8 0 1.7-.3 2.4-.7l1.3 3c-1.4.9-3 1.3-4.7 1.3-3.6 0-5.4-2.2-4.8-6.1l1.4-9.8h-2.9l.4-3.2h3.1l1.2-4.2 3.7-.4-.6 4.6h4.3l-1 3.2h-3.8L193 418z" class="st3"/><path d="M217 226.4v276.5m15.6-276.5v276.5" class="st4"/><path d="M157.5 450.8h379.8m-379.8-15.6h379.8" class="st5"/><path d="M98.9 226.4h438.4v319.5" class="st4"/><path d="M232.6 226.4h304.7v23.2H232.6z" class="st2"/><path d="M232.6 319.2h376.1v23.2H232.6zm0 46.4H679v23.2H232.6zm0 46.4h479.3v23.2H232.6z" class="st3"/><path d="M232.6 272.7h463.9v23.2H232.6z" class="st2"/></g></g></svg>