<svg xmlns="http://www.w3.org/2000/svg" viewBox="0 0 409.9 333.97"><defs><style>.a184a29e-b51f-4b4e-a295-5c58d0cfffd4,.a7a0ab75-7d3b-4f44-b7b8-c36163971951,.afde5cf7-1647-4bae-a125-86de7dbb8eeb,.e1b172bb-71f5-4133-9d85-cf3548bbd4f5{fill:none;stroke-miterlimit:10;}.a184a29e-b51f-4b4e-a295-5c58d0cfffd4{stroke:#231f20;}.e1b172bb-71f5-4133-9d85-cf3548bbd4f5{stroke:#ec1c24;}.a8a70578-bb41-4cc3-b8e9-64fef3a8bed5{fill:#2997ff;}.b86b237e-2adf-45a3-8f32-ab95be131c52{fill:#f26518;}.a7a0ab75-7d3b-4f44-b7b8-c36163971951{stroke:#969696;}.afde5cf7-1647-4bae-a125-86de7dbb8eeb{stroke:#b2b3b3;}</style></defs><g id="b2f0544f-b1b3-45b5-815e-323474175d9e" data-name="Layer 2"><g id="ec1f5e9c-e8be-4efb-9fe2-5454a2c19354" data-name="Layer 1"><line class="a184a29e-b51f-4b4e-a295-5c58d0cfffd4" x1="347.9" x2="347.9" y2="50"/><line class="a184a29e-b51f-4b4e-a295-5c58d0cfffd4" x1="359.9" y1="62" x2="409.9" y2="62"/><polyline class="e1b172bb-71f5-4133-9d85-cf3548bbd4f5" points="0 53 356.9 53 356.9 333.97"/><polyline class="a184a29e-b51f-4b4e-a295-5c58d0cfffd4" points="22.1 62 347.9 62 347.9 313.68"/><path class="a8a70578-bb41-4cc3-b8e9-64fef3a8bed5" d="M53.63,134.37l-1.3,1.26a3.33,3.33,0,0,0-2.17-.81c-2.92,0-3.84,3.64-3.84,6.1,0,2.24,1,3.14,2.43,3.14A4.49,4.49,0,0,0,51.42,143l.95,1.48A5.94,5.94,0,0,1,48.46,146c-2.73,0-4.59-1.79-4.59-5.12S45.58,133,50.08,133A4.74,4.74,0,0,1,53.63,134.37Z"/><path class="a8a70578-bb41-4cc3-b8e9-64fef3a8bed5" d="M53.41,142c0-2.52,1.26-6,5.13-6,2.47,0,3.84,1.55,3.84,4S61.14,146,57.25,146C54.78,146,53.41,144.44,53.41,142ZM60,139.72c0-1.44-.54-2.07-1.6-2.07-2.15,0-2.67,2.86-2.67,4.48,0,1.44.56,2.09,1.62,2.09C59.52,144.22,60,141.34,60,139.72Z"/><path class="a8a70578-bb41-4cc3-b8e9-64fef3a8bed5" d="M70.69,136.06,70,138.28a3,3,0,0,0-.79-.11c-1.21,0-1.93,1.13-2.53,2.83l-.66,4.7H63.78l1.33-9.53h2L67,138a3.19,3.19,0,0,1,2.74-2.11A3.16,3.16,0,0,1,70.69,136.06Z"/><path class="a8a70578-bb41-4cc3-b8e9-64fef3a8bed5" d="M77.66,136.06,77,138.28a2.9,2.9,0,0,0-.79-.11c-1.21,0-1.93,1.13-2.52,2.83L73,145.7H70.75l1.33-9.53h2L74,138a2.91,2.91,0,0,1,3.69-2Z"/><path class="a8a70578-bb41-4cc3-b8e9-64fef3a8bed5" d="M79.66,142.2c0,1.48.81,2,1.85,2A4.14,4.14,0,0,0,84,143.3l.88,1.44A6.17,6.17,0,0,1,81.26,146c-2.59,0-3.93-1.55-3.93-4,0-2.59,1.35-6.1,5.19-6.1,2.18,0,3.29,1.17,3.29,2.52C85.81,141.1,82.79,141.88,79.66,142.2Zm3.81-3.69a1,1,0,0,0-1.08-1c-1.63,0-2.37,1.6-2.62,3.13C82.32,140.44,83.47,139.74,83.47,138.51Z"/><path class="a8a70578-bb41-4cc3-b8e9-64fef3a8bed5" d="M94.69,137l-1.15,1.36a2.42,2.42,0,0,0-1.75-.68c-2.16,0-2.74,2.57-2.74,4.36,0,1.47.65,2,1.7,2a3.71,3.71,0,0,0,2-.7l.86,1.53A5.34,5.34,0,0,1,90.49,146c-2.43,0-3.83-1.53-3.83-4s1.4-6,5.11-6A4,4,0,0,1,94.69,137Z"/><path class="a8a70578-bb41-4cc3-b8e9-64fef3a8bed5" d="M98,142.83c-.14.94.11,1.26.72,1.26a2.69,2.69,0,0,0,1.22-.34l.65,1.53a4.59,4.59,0,0,1-2.39.69c-1.84,0-2.76-1.14-2.47-3.16l.7-5H95l.23-1.66h1.57l.59-2.16,1.91-.22-.32,2.38h2.19l-.48,1.66h-2Z"/><path class="b86b237e-2adf-45a3-8f32-ab95be131c52" d="M33,217.06H30.61l1.74-12.44h2.36Z"/><path class="b86b237e-2adf-45a3-8f32-ab95be131c52" d="M44.4,210.25l-1,6.81H41.17l.92-6.47c.14-1.13-.22-1.44-.77-1.44-.94,0-1.8,1.1-2.51,2.45L38,217.06H35.77l1.33-9.53h2L39,209.3a4,4,0,0,1,3.27-2C43.8,207.26,44.66,208.38,44.4,210.25Z"/><path class="b86b237e-2adf-45a3-8f32-ab95be131c52" d="M54.1,208.4l-1.16,1.37a2.36,2.36,0,0,0-1.74-.69c-2.16,0-2.74,2.58-2.74,4.36,0,1.47.65,2,1.69,2a3.71,3.71,0,0,0,2-.7l.86,1.53a5.34,5.34,0,0,1-3.15,1.05c-2.43,0-3.83-1.53-3.83-4s1.4-6.05,5.11-6.05A4,4,0,0,1,54.1,208.4Z"/><path class="b86b237e-2adf-45a3-8f32-ab95be131c52" d="M54.29,213.31c0-2.52,1.26-6.05,5.13-6.05,2.47,0,3.84,1.55,3.84,4s-1.24,6.07-5.13,6.07C55.66,217.33,54.29,215.8,54.29,213.31Zm6.61-2.23c0-1.44-.54-2.07-1.6-2.07-2.14,0-2.67,2.86-2.67,4.48,0,1.44.56,2.09,1.62,2.09C60.4,215.58,60.9,212.7,60.9,211.08Z"/><path class="b86b237e-2adf-45a3-8f32-ab95be131c52" d="M71.57,207.42l-.66,2.22a3,3,0,0,0-.79-.11c-1.21,0-1.93,1.14-2.53,2.83l-.66,4.7H64.66L66,207.53h2l-.07,1.86a3.19,3.19,0,0,1,2.74-2.11A3.16,3.16,0,0,1,71.57,207.42Z"/><path class="b86b237e-2adf-45a3-8f32-ab95be131c52" d="M78.54,207.42l-.67,2.22a2.9,2.9,0,0,0-.79-.11c-1.21,0-1.93,1.14-2.52,2.83l-.67,4.7H71.63L73,207.53h2l-.07,1.86a2.91,2.91,0,0,1,3.69-2Z"/><path class="b86b237e-2adf-45a3-8f32-ab95be131c52" d="M80.54,213.56c0,1.48.81,2,1.85,2a4.14,4.14,0,0,0,2.49-.88l.88,1.44a6.17,6.17,0,0,1-3.62,1.23,3.6,3.6,0,0,1-3.93-4c0-2.6,1.35-6.11,5.19-6.11,2.18,0,3.29,1.17,3.29,2.52C86.69,212.47,83.67,213.24,80.54,213.56Zm3.81-3.69a1,1,0,0,0-1.08-1c-1.63,0-2.37,1.6-2.62,3.13C83.2,211.8,84.35,211.1,84.35,209.87Z"/><path class="b86b237e-2adf-45a3-8f32-ab95be131c52" d="M95.57,208.4l-1.15,1.37a2.39,2.39,0,0,0-1.75-.69c-2.16,0-2.74,2.58-2.74,4.36,0,1.47.65,2,1.7,2a3.71,3.71,0,0,0,2-.7l.86,1.53a5.34,5.34,0,0,1-3.15,1.05c-2.43,0-3.83-1.53-3.83-4s1.4-6.05,5.11-6.05A4,4,0,0,1,95.57,208.4Z"/><path class="b86b237e-2adf-45a3-8f32-ab95be131c52" d="M98.88,214.19c-.15.94.11,1.26.72,1.26a2.69,2.69,0,0,0,1.22-.34l.65,1.53a4.59,4.59,0,0,1-2.39.69c-1.84,0-2.76-1.14-2.47-3.15l.7-5H95.84l.23-1.66h1.57l.59-2.16,1.91-.21-.33,2.37H102l-.49,1.66H99.58Z"/><line class="a7a0ab75-7d3b-4f44-b7b8-c36163971951" x1="111.2" y1="116" x2="111.2" y2="257.67"/><line class="a7a0ab75-7d3b-4f44-b7b8-c36163971951" x1="119.2" y1="116" x2="119.2" y2="257.67"/><line class="afde5cf7-1647-4bae-a125-86de7dbb8eeb" x1="80.68" y1="231" x2="275.29" y2="231"/><line class="afde5cf7-1647-4bae-a125-86de7dbb8eeb" x1="80.68" y1="223" x2="275.29" y2="223"/><polyline class="a7a0ab75-7d3b-4f44-b7b8-c36163971951" points="50.66 116 275.29 116 275.29 279.69"/><rect class="a8a70578-bb41-4cc3-b8e9-64fef3a8bed5" x="119.2" y="116" width="156.1" height="11.89"/><rect class="b86b237e-2adf-45a3-8f32-ab95be131c52" x="119.2" y="163.53" width="192.68" height="11.89"/><rect class="b86b237e-2adf-45a3-8f32-ab95be131c52" x="119.2" y="187.31" width="228.7" height="11.89"/><rect class="b86b237e-2adf-45a3-8f32-ab95be131c52" x="119.2" y="211.11" width="245.56" height="11.89"/><rect class="a8a70578-bb41-4cc3-b8e9-64fef3a8bed5" x="119.2" y="139.75" width="237.7" height="11.89"/></g></g></svg>