<svg xmlns="http://www.w3.org/2000/svg" viewBox="0 0 380 309.61" width="380" height="309.61"><defs><style>.b3ce27a0-5739-4ad8-b143-59e014144a09,.f2b9aa56-8f61-45dd-8f8b-4ce89df62f25,.f3e7a6f1-aa0f-4274-a387-9dff9cb278e4,.fc21ae16-251f-4c9c-9648-55753b85152a{fill:none;stroke-miterlimit:10;stroke-width:.93px}.b3ce27a0-5739-4ad8-b143-59e014144a09{stroke:#231f20}.f3e7a6f1-aa0f-4274-a387-9dff9cb278e4{stroke:#ec1c24}.bd44bed0-45bb-411e-a782-1d40ed4e19c5{fill:#2997ff}.a57bf931-ad4a-40e9-81cb-9822d0e651b6{fill:#f26518}.fc21ae16-251f-4c9c-9648-55753b85152a{stroke:#969696}.f2b9aa56-8f61-45dd-8f8b-4ce89df62f25{stroke:#b2b3b3}</style></defs><g id="faedc906-1a9a-4b4a-8281-720510dfffd8"><g id="b4d5b23a-8543-4cd3-85cf-614606393310"><path d="M322.52 0v46.35m11.13 11.13H380" class="b3ce27a0-5739-4ad8-b143-59e014144a09"/><path d="M0 49.13h330.87v260.48" class="f3e7a6f1-aa0f-4274-a387-9dff9cb278e4"/><path d="M20.48 57.48h302.04V290.8" class="b3ce27a0-5739-4ad8-b143-59e014144a09"/><path d="M49.72 124.57l-1.2 1.17a3.11 3.11 0 0 0-2-.75c-2.71 0-3.56 3.37-3.56 5.65 0 2.07.92 2.91 2.26 2.91a4.16 4.16 0 0 0 2.47-1l.88 1.37a5.54 5.54 0 0 1-3.62 1.37c-2.54 0-4.26-1.65-4.26-4.74s1.59-7.3 5.76-7.3a4.38 4.38 0 0 1 3.27 1.32zm-.2 7.03c0-2.34 1.16-5.61 4.75-5.61 2.29 0 3.56 1.43 3.56 3.7s-1.15 5.63-4.76 5.63c-2.29 0-3.55-1.42-3.55-3.72zm6.12-2.07c0-1.34-.5-1.92-1.48-1.92-2 0-2.47 2.65-2.47 4.15 0 1.34.51 1.94 1.5 1.94 1.98 0 2.45-2.7 2.45-4.17zm9.9-3.39l-.62 2a2.57 2.57 0 0 0-.73-.1c-1.12 0-1.79 1-2.34 2.62l-.62 4.36h-2.1l1.23-8.83h1.82l-.06 1.81a3 3 0 0 1 2.53-2 2.81 2.81 0 0 1 .89.14zm6.46 0l-.62 2a2.59 2.59 0 0 0-.74-.1c-1.12 0-1.78 1-2.33 2.62l-.62 4.36h-2.1l1.23-8.83h1.82l-.07 1.81a3 3 0 0 1 2.54-2 2.86 2.86 0 0 1 .89.14zm1.85 5.69c.05 1.37.75 1.84 1.72 1.84a3.79 3.79 0 0 0 2.3-.82l.82 1.33a5.69 5.69 0 0 1-3.36 1.14 3.33 3.33 0 0 1-3.64-3.67c0-2.41 1.26-5.66 4.81-5.66 2 0 3.06 1.08 3.06 2.33 0 2.49-2.81 3.21-5.71 3.51zm3.54-3.42a.88.88 0 0 0-1-.9c-1.52 0-2.2 1.48-2.43 2.9 2.36-.22 3.43-.87 3.43-2zM87.78 127l-1.07 1.27a2.21 2.21 0 0 0-1.62-.64c-2 0-2.53 2.39-2.53 4 0 1.37.6 1.87 1.57 1.87a3.39 3.39 0 0 0 1.88-.65l.8 1.42a4.94 4.94 0 0 1-2.92 1c-2.25 0-3.55-1.42-3.55-3.72s1.3-5.61 4.74-5.61a3.7 3.7 0 0 1 2.7 1.06zm3.07 5.41c-.13.87.1 1.17.67 1.17a2.5 2.5 0 0 0 1.13-.31l.6 1.41a4.23 4.23 0 0 1-2.22.64c-1.7 0-2.55-1-2.28-2.92l.65-4.63H88l.22-1.53h1.48l.55-2L92 124l-.3 2.21h2l-.46 1.53H91.5z" class="bd44bed0-45bb-411e-a782-1d40ed4e19c5"/><path d="M30.56 201.22h-2.19L30 189.69h2.19zm10.6-6.31l-.89 6.31h-2.1l.85-6c.14-1-.2-1.33-.72-1.33-.86 0-1.67 1-2.32 2.27l-.71 5.05h-2.11l1.24-8.83h1.82l-.09 1.62a3.78 3.78 0 0 1 3-1.89c1.48.03 2.28 1.07 2.03 2.8zm8.99-1.72l-1.07 1.27a2.23 2.23 0 0 0-1.61-.63c-2 0-2.54 2.39-2.54 4 0 1.37.6 1.87 1.57 1.87a3.47 3.47 0 0 0 1.88-.65l.81 1.42a5.06 5.06 0 0 1-2.93 1c-2.25 0-3.55-1.41-3.55-3.72s1.3-5.61 4.74-5.61a3.74 3.74 0 0 1 2.7 1.05zm.18 4.56c0-2.34 1.17-5.61 4.76-5.61 2.29 0 3.56 1.44 3.56 3.71s-1.15 5.62-4.76 5.62c-2.29 0-3.56-1.41-3.56-3.72zm6.13-2.07c0-1.33-.5-1.92-1.48-1.92-2 0-2.48 2.66-2.48 4.16 0 1.33.52 1.94 1.51 1.94 1.99 0 2.45-2.68 2.45-4.18zm9.9-3.39l-.62 2.06a2.59 2.59 0 0 0-.74-.1c-1.11 0-1.78 1.05-2.33 2.62l-.62 4.35H60l1.23-8.83H63l-.07 1.72a3 3 0 0 1 2.54-2 3.13 3.13 0 0 1 .89.18zm6.45 0l-.61 2.06a2.59 2.59 0 0 0-.74-.1c-1.12 0-1.78 1.05-2.34 2.62l-.61 4.35H66.4l1.24-8.83h1.82l-.07 1.72a3 3 0 0 1 2.54-2 3.06 3.06 0 0 1 .88.18zm1.85 5.71c0 1.36.76 1.83 1.72 1.83a3.8 3.8 0 0 0 2.31-.82l.82 1.34a5.75 5.75 0 0 1-3.36 1.13 3.33 3.33 0 0 1-3.64-3.67c0-2.4 1.25-5.66 4.81-5.66 2 0 3.05 1.09 3.05 2.34 0 2.51-2.8 3.19-5.71 3.51zm3.54-3.43a.88.88 0 0 0-1-.9c-1.52 0-2.2 1.49-2.44 2.91 2.38-.23 3.44-.88 3.44-2.02zm10.4-1.38l-1.07 1.27a2.25 2.25 0 0 0-1.62-.63c-2 0-2.54 2.39-2.54 4 0 1.37.61 1.87 1.57 1.87a3.47 3.47 0 0 0 1.89-.65l.8 1.42a5 5 0 0 1-2.92 1c-2.25 0-3.56-1.41-3.56-3.72s1.31-5.61 4.75-5.61a3.76 3.76 0 0 1 2.7 1.05zm3.07 5.38c-.14.87.1 1.17.67 1.17a2.56 2.56 0 0 0 1.13-.32l.6 1.42a4.31 4.31 0 0 1-2.22.63c-1.7 0-2.55-1.05-2.29-2.92l.66-4.62h-1.37l.21-1.54h1.46l.55-2 1.77-.2-.3 2.2h2l-.45 1.54h-1.8z" class="a57bf931-ad4a-40e9-81cb-9822d0e651b6"/><path d="M103.09 107.54v131.34m7.41-131.34v131.34" class="fc21ae16-251f-4c9c-9648-55753b85152a"/><path d="M74.79 214.15h180.42m-180.42-7.42h180.42" class="f2b9aa56-8f61-45dd-8f8b-4ce89df62f25"/><path d="M46.97 107.54h208.24v151.75" class="fc21ae16-251f-4c9c-9648-55753b85152a"/><path d="M110.5 107.54h144.71v11.02H110.5z" class="bd44bed0-45bb-411e-a782-1d40ed4e19c5"/><path d="M110.5 151.6h178.63v11.02H110.5zm0 22.05h212.02v11.02H110.5zm0 22.06h227.65v11.02H110.5z" class="a57bf931-ad4a-40e9-81cb-9822d0e651b6"/><path d="M110.5 129.56h220.36v11.02H110.5z" class="bd44bed0-45bb-411e-a782-1d40ed4e19c5"/></g></g></svg>