<svg xmlns="http://www.w3.org/2000/svg" id="Layer_1" viewBox="0 0 1440 775" width="1440" height="775"><style>.st0{fill:gray}.st1{stroke:#818181;stroke-width:1.2471;stroke-linecap:round;stroke-linejoin:round;stroke-miterlimit:1.5}.st1,.st2{fill:none}</style><path d="M722.2 15c0-2.6-1.8-3.6-4.1-4.3-2.5-.7-3.2-1.2-3.2-2.3 0-1.2 1.1-1.8 2.5-1.8 1.1 0 2.3.4 3.2 1.2l1.2-1.4c-1.2-1.1-2.6-1.7-4.6-1.7-2.7 0-4.7 1.5-4.7 3.7 0 2.1 1.5 3.2 4.4 4.1 2.2.7 2.8 1.2 2.8 2.5 0 1.5-1.3 2.2-2.9 2.2-1.6 0-2.8-.5-3.8-1.4l-1.3 1.4c1.2 1.1 2.8 1.8 5.1 1.8 3.5.1 5.4-1.5 5.4-4zm7.9-6.9c-1.2 0-2.3.6-3.1 1.6l-.1-1.4H725v14.8l2.2-.3V18c.7.8 1.6 1.2 2.7 1.2 2.7 0 4.1-2.3 4.1-5.5 0-3.4-1.1-5.6-3.9-5.6zm-.6 1.7c1.4 0 2.1 1.1 2.1 3.8 0 2.6-.8 3.8-2.3 3.8-.9 0-1.6-.4-2.1-1.2v-4.9c.5-.8 1.3-1.5 2.3-1.5zm11.7-6.6c-.9 0-1.5.6-1.5 1.4 0 .8.6 1.4 1.5 1.4s1.5-.6 1.5-1.4c-.1-.8-.7-1.4-1.5-1.4zm1.5 5.2h-5.3V10h3v7.3h-3.1v1.6h8.2v-1.6h-2.9l.1-8.9zm6.2 10.5h2.2v-7.6c.6-.8 1.4-1.5 2.5-1.5 1.3 0 1.5.7 1.5 2.5v6.6h2.2v-7.7c0-2-1-3.1-2.9-3.1-1.3 0-2.5.6-3.4 1.7l-.2-1.4h-1.9v10.5zm13.8-4.6h7c0-.3.1-.6.1-1 0-3.3-1.8-5.3-4.5-5.3-3 0-4.8 2.4-4.8 5.5 0 3.3 1.8 5.5 5.1 5.5 1.5 0 2.9-.5 3.8-1.3l-1-1.4c-.9.6-1.8.9-2.8.9-1.5.2-2.7-.7-2.9-2.9zm2.5-4.6c1.5 0 2.3 1.1 2.4 3.1h-4.9c.1-2.1 1.1-3.1 2.5-3.1zM139.3 6.4h5.9l.2-1.8H137v13.8h2.3v-5.9h5.2v-1.8h-5.2V6.4zm13.5-2.7h-5.4v1.6h3.2v10c0 2.1 1.2 3.3 3.3 3.3 1.2 0 2.1-.3 2.7-.6l-.6-1.6c-.5.2-1.1.4-1.7.4-.9 0-1.6-.4-1.6-1.3V3.7h.1zm15.4 12.1v-4.7c0-2.2-1.4-3.5-4.2-3.5-1.1 0-2.4.2-3.7.7l.6 1.6c1.1-.4 2.1-.5 2.8-.5 1.5 0 2.3.5 2.3 1.9v.7h-1.5c-3.2 0-5 1.3-5 3.4 0 2 1.3 3.3 3.5 3.3 1.3 0 2.6-.5 3.3-1.5.4.9 1.2 1.3 2.2 1.5l.5-1.5c-.6-.2-.8-.5-.8-1.4zm-4.6 1.2c-1.2 0-1.8-.6-1.8-1.7 0-1.2.8-2 2.9-2h1.2v2.3c-.5.9-1.4 1.4-2.3 1.4zm13.6-9.4c-1.2 0-2.3.6-3.1 1.6l-.1-1.3h-1.9v14.8l2.2-.3v-4.9c.7.8 1.6 1.2 2.7 1.2 2.7 0 4.1-2.3 4.1-5.5 0-3.4-1.1-5.6-3.9-5.6zm-.6 1.7c1.4 0 2.1 1.1 2.1 3.8 0 2.6-.8 3.8-2.3 3.8-.9 0-1.6-.4-2.1-1.2v-4.9c.5-.8 1.3-1.5 2.3-1.5zm-28 752.6c-1.1 0-2 .4-2.8 1.4.1-2.7 1.1-4.3 2.8-4.3.6 0 1.2.2 1.7.5l.8-1.3c-.7-.5-1.5-.7-2.5-.7-3 0-4.8 2.7-4.8 6.7 0 3.4 1.2 5.8 4.2 5.8 2.3 0 4-1.7 4-4.3 0-2.5-1.5-3.8-3.4-3.8zm-.6 6.6c-1.5 0-2.1-1.2-2.2-3.8.6-.9 1.4-1.4 2.3-1.4 1.1 0 1.8.6 1.8 2.5.1 1.6-.5 2.7-1.9 2.7zm11.1-.1c-1.4 0-2.5-.9-2.5-3.2 0-2.3 1-3.3 2.5-3.3.8 0 1.5.3 2.3.8l.9-1.2c-.9-.7-1.9-1.1-3.2-1.1-2.8 0-4.5 2.1-4.5 4.9 0 2.9 1.6 4.8 4.5 4.8 1.2 0 2.4-.5 3.2-1.1l-.9-1.3c-.7.4-1.4.7-2.3.7zm12.4-8.1c-.9 0-1.5.5-2 1.2-.3-.9-.9-1.2-1.6-1.2-.9 0-1.4.5-2 1.2l-.1-1h-1.5v9.2h1.7v-7c.5-.7.9-.9 1.4-.9.5 0 .6.4.6 1.4v6.6h1.6v-7c.5-.7.9-.9 1.4-.9.5 0 .6.4.6 1.4v6.6h1.7v-6.8c0-2.2-.8-2.8-1.8-2.8zm1156.1 1.6c-1.1 0-2 .4-2.8 1.4.1-2.7 1.1-4.3 2.8-4.3.6 0 1.2.2 1.7.5l.8-1.3c-.7-.5-1.5-.7-2.5-.7-3 0-4.8 2.7-4.8 6.7 0 3.4 1.2 5.8 4.2 5.8 2.3 0 4-1.7 4-4.3 0-2.5-1.5-3.8-3.4-3.8zm-.5 6.6c-1.5 0-2.1-1.2-2.2-3.8.6-.9 1.4-1.4 2.3-1.4 1.1 0 1.8.6 1.8 2.5 0 1.6-.6 2.7-1.9 2.7zm11-.1c-1.4 0-2.5-.9-2.5-3.2 0-2.3 1-3.3 2.5-3.3.8 0 1.5.3 2.2.8l.9-1.2c-.9-.7-1.9-1.1-3.2-1.1-2.8 0-4.5 2.1-4.5 4.9 0 2.9 1.6 4.8 4.5 4.8 1.2 0 2.4-.5 3.2-1.1l-.9-1.3c-.6.4-1.3.7-2.2.7zm12.4-8.1c-.9 0-1.5.5-2 1.2-.3-.9-.9-1.2-1.6-1.2-.9 0-1.4.5-2 1.2l-.1-1h-1.5v9.2h1.7v-7c.5-.7.9-.9 1.4-.9.5 0 .6.4.6 1.4v6.6h1.6v-7c.5-.7.9-.9 1.4-.9.5 0 .6.4.6 1.4v6.6h1.7v-6.8c0-2.2-.8-2.8-1.8-2.8zm-879.8 8v-10.5H469l-3.7 2.3.8 1.4 2.7-1.6v8.5h-2.9v1.5h7.3v-1.5h-2.5v-.1zm8.4-10.8c-1.7 0-2.9.7-3.8 1.9l1.3 1c.7-.9 1.4-1.3 2.4-1.3 1.2 0 2 .8 2 2 0 1.8-1.1 3.1-5.4 7.3v1.5h7.5l.2-1.6h-5.5c3.9-3.5 5.2-5.2 5.2-7.3-.1-2-1.5-3.5-3.9-3.5zm11.7 10.9c-1.4 0-2.5-.9-2.5-3.2 0-2.3 1-3.3 2.5-3.3.8 0 1.5.3 2.3.8l.9-1.2c-.9-.7-1.9-1.1-3.2-1.1-2.8 0-4.5 2.1-4.5 4.9 0 2.9 1.6 4.8 4.5 4.8 1.2 0 2.4-.5 3.2-1.1l-.9-1.3c-.7.4-1.5.7-2.3.7zm12.4-8.1c-.9 0-1.5.5-2 1.2-.3-.9-.9-1.2-1.6-1.2-.9 0-1.4.5-2 1.2l-.1-1H496v9.2h1.7v-7c.5-.7.9-.9 1.4-.9.5 0 .6.4.6 1.4v6.6h1.6v-7c.5-.7.9-.9 1.4-.9.5 0 .6.4.6 1.4v6.6h1.7v-6.8c0-2.2-.8-2.8-1.8-2.8zM6.9 386.4c-1.7 0-2.9.7-3.8 1.8l1.3 1c.7-.9 1.4-1.3 2.4-1.3 1.2 0 2 .8 2 2 0 1.8-1.1 3.1-5.4 7.3v1.5h7.5l.2-1.6H5.5c3.9-3.5 5.2-5.2 5.2-7.3 0-1.9-1.4-3.4-3.8-3.4zm10.9 0c-2.7 0-4.1 2.3-4.1 6.2 0 4 1.4 6.3 4.1 6.3 2.7 0 4.1-2.3 4.1-6.3 0-3.9-1.4-6.2-4.1-6.2zm0 1.5c1.4 0 2.1 1.3 2.1 4.7 0 3.4-.8 4.8-2.1 4.8s-2.1-1.3-2.1-4.8c0-3.3.8-4.7 2.1-4.7zm0 3.6c-.6 0-1.1.5-1.1 1.1 0 .6.5 1.2 1.1 1.2.7 0 1.2-.5 1.2-1.2 0-.6-.5-1.1-1.2-1.1zm11.3 5.8c-1.4 0-2.5-.9-2.5-3.2s1-3.3 2.5-3.3c.8 0 1.5.3 2.3.8l.9-1.2c-.9-.7-1.9-1.1-3.2-1.1-2.8 0-4.5 2.1-4.5 4.9 0 2.9 1.6 4.8 4.5 4.8 1.2 0 2.4-.5 3.2-1.1l-.9-1.3c-.7.4-1.5.7-2.3.7zm12.3-8.1c-.9 0-1.5.5-2 1.2-.3-.9-.9-1.2-1.6-1.2-.9 0-1.4.5-2 1.2l-.1-1h-1.5v9.2H36v-7c.5-.7.9-.9 1.4-.9.5 0 .6.4.6 1.4v6.6h1.6v-7c.5-.7.9-.9 1.4-.9.5 0 .6.4.6 1.4v6.6h1.7V392c0-2.2-.8-2.8-1.9-2.8zm958.5 379.1v-10.5h-1.7l-3.7 2.3.8 1.4 2.7-1.6v8.5h-3v1.5h7.3v-1.5h-2.4zm8.3-10.8c-1.7 0-2.9.7-3.8 1.9l1.3 1c.7-.9 1.4-1.3 2.4-1.3 1.2 0 2 .8 2 2 0 1.8-1.1 3.1-5.4 7.3v1.5h7.5l.2-1.6h-5.5c3.9-3.5 5.2-5.2 5.2-7.3 0-2-1.4-3.5-3.9-3.5zm11.8 10.9c-1.4 0-2.5-.9-2.5-3.2 0-2.3 1-3.3 2.5-3.3.8 0 1.5.3 2.3.8l.9-1.2c-.9-.7-1.9-1.1-3.2-1.1-2.8 0-4.5 2.1-4.5 4.9 0 2.9 1.6 4.8 4.5 4.8 1.2 0 2.4-.5 3.2-1.1l-.9-1.3c-.7.4-1.5.7-2.3.7zm12.3-8.1c-.9 0-1.5.5-2 1.2-.3-.9-.9-1.2-1.6-1.2-.9 0-1.4.5-2 1.2l-.1-1h-1.5v9.2h1.7v-7c.5-.7.9-.9 1.4-.9.5 0 .6.4.6 1.4v6.6h1.6v-7c.5-.7.9-.9 1.4-.9.5 0 .6.4.6 1.4v6.6h1.7v-6.8c.1-2.2-.7-2.8-1.8-2.8zm-298.6-2.8c-1.4 0-2.6.5-3.7 1.5l1 1.1c.7-.7 1.5-1.1 2.5-1.1 1.2 0 2.1.6 2.1 1.8 0 1.3-1 1.9-2.1 1.9h-.7l-.2 1.4h1c1.4 0 2.3.6 2.3 2.1 0 1.4-.9 2.2-2.4 2.2-1 0-1.9-.4-2.6-1.2l-1.2 1c.9 1.1 2.4 1.7 3.9 1.7 2.6 0 4.4-1.6 4.4-3.7 0-1.9-1.3-2.8-2.8-3 1.3-.3 2.4-1.3 2.4-2.8 0-1.5-1.5-2.9-3.9-2.9zm11.8 10.9c-1.4 0-2.5-.9-2.5-3.2 0-2.3 1-3.3 2.5-3.3.8 0 1.5.3 2.2.8l.9-1.2c-.9-.7-1.9-1.1-3.2-1.1-2.8 0-4.5 2.1-4.5 4.9 0 2.9 1.6 4.8 4.5 4.8 1.2 0 2.4-.5 3.2-1.1l-.9-1.3c-.6.4-1.4.7-2.2.7zm12.3-8.1c-.9 0-1.5.5-2 1.2-.3-.9-.9-1.2-1.6-1.2-.9 0-1.4.5-2 1.2l-.1-1h-1.5v9.2h1.7v-7c.5-.7.9-.9 1.4-.9.5 0 .6.4.6 1.4v6.6h1.6v-7c.5-.7.9-.9 1.4-.9.5 0 .6.4.6 1.4v6.6h1.7v-6.8c.1-2.2-.7-2.8-1.8-2.8zM1301 6.4h5.9l.2-1.8h-8.5v13.8h2.3v-5.9h5.2v-1.8h-5.2V6.4zm13.6-2.7h-5.4v1.6h3.2v10c0 2.1 1.2 3.3 3.3 3.3 1.2 0 2.1-.3 2.7-.6l-.6-1.6c-.5.2-1.1.4-1.7.4-.9 0-1.6-.4-1.6-1.3l.1-11.8zm15.3 12.1v-4.7c0-2.2-1.4-3.5-4.2-3.5-1.1 0-2.4.2-3.7.7l.6 1.6c1.1-.4 2.1-.5 2.8-.5 1.5 0 2.3.5 2.3 1.9v.7h-1.5c-3.2 0-5 1.3-5 3.4 0 2 1.3 3.3 3.5 3.3 1.3 0 2.6-.5 3.3-1.5.4.9 1.2 1.3 2.2 1.5l.5-1.5c-.5-.2-.8-.5-.8-1.4zm-4.5 1.2c-1.2 0-1.8-.6-1.8-1.7 0-1.2.8-2 2.9-2h1.2v2.3c-.5.9-1.4 1.4-2.3 1.4zm13.6-9.4c-1.2 0-2.3.6-3.1 1.6l-.1-1.4h-1.9v14.8l2.2-.3v-4.9c.7.8 1.6 1.2 2.7 1.2 2.7 0 4.1-2.3 4.1-5.5-.1-3.3-1.1-5.5-3.9-5.5zm-.6 1.7c1.4 0 2.1 1.1 2.1 3.8 0 2.6-.8 3.8-2.3 3.8-.9 0-1.6-.4-2.1-1.2v-4.9c.5-.8 1.3-1.5 2.3-1.5zM946.3 8.1h5.9l.2-1.8h-8.5v13.8h2.3v-5.9h5.2v-1.8h-5.2V8.1zm16.3 1.2c-1.8 0-2.9.9-3.7 2.7l-.4-2.4h-3.3v1.6h1.6v7.3h-1.6v1.6h5.9v-1.6H959v-3.9c.6-2.1 1.7-3.3 3.2-3.3v2.2h1.6l.4-3.9c-.5-.2-1-.3-1.6-.3zm8.7 0c-3.1 0-4.8 2.3-4.8 5.5 0 3.4 1.7 5.5 4.8 5.5 3 0 4.8-2.2 4.8-5.5s-1.7-5.5-4.8-5.5zm0 1.7c1.6 0 2.4 1.2 2.4 3.8 0 2.6-.8 3.8-2.4 3.8-1.6 0-2.4-1.2-2.4-3.8s.8-3.8 2.4-3.8zm7.8 9.1h2.2v-7.6c.6-.8 1.4-1.5 2.5-1.5 1.3 0 1.5.7 1.5 2.5v6.6h2.2v-7.7c0-2-1-3.1-2.9-3.1-1.3 0-2.5.6-3.4 1.7l-.2-1.4h-1.9v10.5zm20.7-.6L999 18c-.5.3-1.2.5-2 .5-1.3 0-1.8-.5-1.8-1.7v-5.7h3.3l.3-1.6h-3.6V6.9l-2.2.3v2.4h-2.3v1.6h2.3v5.7c0 2.1 1.3 3.4 3.7 3.4 1.2 0 2.4-.3 3.1-.8zm20.5-13.4c-3.3 0-6.1 2.5-6.1 7.1 0 4.7 2.6 7.2 6.1 7.2 2 0 3.4-.7 4.3-1.6l-1.1-1.4c-.8.6-1.6 1.2-3.1 1.2-2.2 0-3.8-1.5-3.8-5.3 0-3.9 1.7-5.3 3.8-5.3 1.1 0 2 .3 2.9 1l1.2-1.4c-1.1-1.1-2.3-1.5-4.2-1.5zm10.9 3.2c-3.1 0-4.8 2.3-4.8 5.5 0 3.4 1.7 5.5 4.8 5.5 3 0 4.8-2.2 4.8-5.5s-1.8-5.5-4.8-5.5zm0 1.7c1.6 0 2.4 1.2 2.4 3.8 0 2.6-.8 3.8-2.4 3.8-1.6 0-2.4-1.2-2.4-3.8s.7-3.8 2.4-3.8zm16.9-1.4h-2.3l-2.7 8.7-2.7-8.7h-2.4l3.7 10.5h2.6l3.8-10.5zm4.6 5.9h7c0-.3.1-.6.1-1 0-3.3-1.8-5.3-4.5-5.3-3 0-4.8 2.4-4.8 5.5 0 3.3 1.8 5.5 5.1 5.5 1.5 0 2.9-.5 3.8-1.3l-1-1.4c-.9.6-1.8.9-2.8.9-1.5.2-2.7-.7-2.9-2.9zm2.5-4.6c1.5 0 2.3 1.1 2.4 3.1h-4.9c.1-2.1 1.1-3.1 2.5-3.1zm15.1-1.6c-1.8 0-2.9.9-3.7 2.7l-.4-2.4h-3.3v1.6h1.6v7.3h-1.6v1.6h5.9v-1.6h-2.1v-3.9c.6-2.1 1.7-3.3 3.2-3.3v2.2h1.6l.4-3.9c-.5-.2-1-.3-1.6-.3zM436 16.6c0-2.3-1.7-3.1-3.1-3.3 1.3-.3 2.6-1.3 2.6-3 0-2.7-2.5-3.5-5-3.5h-3.8v13.8h4c2.6 0 5.3-.9 5.3-4zm-3-6.1c0 1.4-.8 2-2.3 2h-1.8v-4h1.7c1.5.1 2.4.6 2.4 2zm.6 6.1c0 1.8-1.5 2.2-2.8 2.2h-1.9v-4.5h2c1.5 0 2.7.5 2.7 2.3zm13.2 1.4v-4.7c0-2.2-1.4-3.5-4.2-3.5-1.1 0-2.4.2-3.7.7l.6 1.6c1.1-.4 2.1-.5 2.8-.5 1.5 0 2.3.5 2.3 1.9v.7h-1.5c-3.2 0-5 1.3-5 3.4 0 2 1.3 3.3 3.5 3.3 1.3 0 2.6-.5 3.3-1.5.4.9 1.2 1.3 2.2 1.5l.5-1.5c-.6-.3-.8-.6-.8-1.4zm-4.6 1.2c-1.2 0-1.8-.6-1.8-1.7 0-1.2.8-2 2.9-2h1.2v2.3c-.5.9-1.4 1.4-2.3 1.4zm13.6-.2c-1.6 0-2.8-1-2.8-3.6s1.2-3.8 2.8-3.8c.9 0 1.8.3 2.6.9l1-1.4c-1-.8-2.2-1.3-3.6-1.3-3.3 0-5.2 2.4-5.2 5.6 0 3.3 1.9 5.5 5.1 5.5 1.4 0 2.8-.5 3.7-1.3l-1-1.4c-.8.4-1.6.8-2.6.8zm9.1-13.4l-2.2.3v14.8h2.2V5.6zm7 4.4h-2.6l-4.2 4.8 4.5 5.8h2.7l-4.7-5.8 4.3-4.8zm20-3.5c-3.3 0-6.1 2.5-6.1 7.1 0 4.7 2.6 7.2 6.1 7.2 2 0 3.4-.7 4.3-1.6l-1.1-1.4c-.8.6-1.6 1.2-3.1 1.2-2.2 0-3.8-1.5-3.8-5.3 0-3.9 1.7-5.3 3.8-5.3 1.1 0 2 .3 2.9 1l1.2-1.4c-1.1-1-2.3-1.5-4.2-1.5zm10.9 3.3c-3.1 0-4.8 2.3-4.8 5.5 0 3.4 1.7 5.5 4.8 5.5 3.1 0 4.8-2.2 4.8-5.5s-1.8-5.5-4.8-5.5zm0 1.7c1.6 0 2.4 1.2 2.4 3.8 0 2.6-.8 3.8-2.4 3.8s-2.4-1.2-2.4-3.8c-.1-2.6.8-3.8 2.4-3.8zm16.9-1.5h-2.3l-2.7 8.7-2.6-8.7h-2.4l3.7 10.5h2.6l3.7-10.5zm4.6 6h7c0-.3.1-.6.1-1 0-3.3-1.8-5.3-4.5-5.3-3 0-4.8 2.4-4.8 5.5 0 3.3 1.8 5.5 5.1 5.5 1.5 0 2.9-.5 3.8-1.3l-1-1.4c-.9.6-1.8.9-2.8.9-1.5.2-2.7-.7-2.9-2.9zm2.5-4.6c1.5 0 2.3 1.1 2.4 3.1h-4.9c.1-2.1 1.1-3.1 2.5-3.1zm15.1-1.6c-1.8 0-2.9.9-3.7 2.7l-.4-2.4h-3.2v1.6h1.6V19h-1.6v1.6h5.9V19h-2.1v-3.9c.6-2.1 1.7-3.2 3.2-3.3V14h1.6l.4-3.9c-.6-.2-1.1-.3-1.7-.3z" class="st0"/><path d="M53.4 41.2H1431M53.4 747.7H1431M53.4 41.2v706.5M265.5 41.2v706.5M689.4 41.2v706.5m106-706.5v706.5M1431 41.2v706.5M1219.2 41.2v706.5" class="st1"/><path d="M3 3h1428.6v768.8H3V3z" class="st2"/></svg>