<svg xmlns="http://www.w3.org/2000/svg" width="4777" height="2571" fill-rule="evenodd" stroke-linecap="round" stroke-linejoin="round" stroke-miterlimit="1.5" clip-rule="evenodd" viewBox="0 0 4777 2571"><path fill="gray" fill-rule="nonzero" d="M2404.74 40.124c0-8.667-5.87-11.933-13.67-14.267-8.2-2.4-10.73-4.066-10.73-7.666 0-4 3.59-5.934 8.33-5.934 3.8 0 7.6 1.267 10.86 4.067l4.07-4.6c-3.93-3.533-8.8-5.533-15.4-5.533-9.06 0-15.8 4.933-15.8 12.466 0 7.134 5.07 10.8 14.87 13.667 7.33 2.2 9.4 4.133 9.4 8.2 0 4.933-4.33 7.4-9.53 7.4-5.4 0-9.4-1.8-12.67-4.8l-4.27 4.733c3.87 3.8 9.47 6.134 16.94 6.134 11.13 0 17.6-5.667 17.6-13.867zm26.53-23.133c-3.93 0-7.6 1.866-10.27 5.466l-.47-4.533h-6.46v49.6l7.46-.867V50.124c2.27 2.6 5.27 3.867 8.94 3.867 8.93 0 13.6-7.8 13.6-18.534 0-11.2-3.54-18.466-12.8-18.466zm-2.07 5.733c4.67 0 7 3.733 7 12.8 0 8.8-2.67 12.667-7.73 12.667-2.87 0-5.27-1.4-6.94-3.934V27.791c1.74-2.734 4.34-5.067 7.67-5.067zM2468.14.657c-2.94 0-4.87 2.067-4.87 4.734 0 2.666 1.93 4.666 4.87 4.666 2.86 0 4.86-2 4.86-4.666 0-2.667-2-4.734-4.86-4.734zm5.13 17.267h-17.6v5.467h10.13v24.266h-10.46v5.467h27.53v-5.467h-9.6V17.924zm20.8 35.2h7.46V27.857c1.87-2.666 4.81-5.133 8.27-5.133 4.27 0 5 2.333 5 8.467v21.933h7.47V27.457c0-6.6-3.27-10.466-9.8-10.466-4.27 0-8.47 1.933-11.4 5.533l-.54-4.6h-6.46v35.2zm46.2-15.2h23.33c.14-.867.2-2.133.2-3.333 0-10.934-5.87-17.6-15.2-17.6-10 0-16.07 8-16.07 18.533 0 11 6 18.467 17 18.467 4.94 0 9.54-1.667 12.81-4.334l-3.2-4.533c-3 2-5.87 3.067-9.27 3.067-5.07 0-9.13-3.067-9.6-10.267zm8.4-15.4c5 0 7.73 3.667 7.86 10.333h-16.33c.47-7.066 3.8-10.333 8.47-10.333zm-2093.042-11.1h19.733l.8-5.867h-28.266v46h7.733v-19.6h17.333v-5.866h-17.333V11.424zm45.2-9.2h-18.067v5.467h10.6v33.6c0 6.933 4.134 11.133 11.2 11.133 3.934 0 7-.867 9.067-2l-1.867-5.2c-1.8.733-3.6 1.2-5.6 1.2-3.133 0-5.333-1.2-5.333-4.467V2.224zm51.467 40.733V27.224c0-7.4-4.6-11.8-14.067-11.8-3.6 0-7.933.733-12.333 2.4l1.866 5.267c3.534-1.267 7-1.8 9.334-1.8 4.933 0 7.8 1.8 7.8 6.4v2.266h-5c-10.734 0-16.734 4.2-16.734 11.534 0 6.533 4.4 10.933 11.6 10.933 4.467 0 8.6-1.6 11.2-4.867 1.267 3.067 3.867 4.467 7.267 4.867l1.733-5.067c-1.866-.6-2.666-1.666-2.666-4.4zm-15.334 4c-3.933 0-5.933-2-5.933-5.733 0-4.133 2.733-6.6 9.733-6.6h4.134v7.8c-1.734 2.867-4.867 4.533-7.934 4.533zm45.6-31.533c-3.933 0-7.6 1.867-10.266 5.467l-.467-4.534h-6.467v49.6l7.467-.866V48.557c2.267 2.6 5.267 3.867 8.933 3.867 8.934 0 13.6-7.8 13.6-18.533 0-11.2-3.533-18.467-12.8-18.467zm-2.066 5.733c4.666 0 7 3.734 7 12.8 0 8.8-2.667 12.667-7.734 12.667-2.866 0-5.266-1.4-6.933-3.933V26.224c1.733-2.733 4.333-5.067 7.667-5.067zM486.82 2537.4c-3.559 0-6.709 1.4-9.217 4.72.292-8.92 3.733-14.35 9.217-14.35 2.041 0 4.025.59 5.775 1.69l2.508-4.2c-2.275-1.51-5.017-2.45-8.283-2.45-9.975 0-15.925 8.93-15.925 22.35 0 11.37 3.908 19.48 14 19.48 7.7 0 13.3-5.72 13.3-14.35 0-8.58-5.134-12.89-11.375-12.89zm-1.867 22.28c-5.133 0-7.175-4.02-7.292-12.72 1.867-2.85 4.609-4.72 7.817-4.72 3.675 0 6.125 2.16 6.125 8.34 0 5.43-2.217 9.1-6.65 9.1zm37.042-.41c-4.784 0-8.284-2.91-8.284-10.61 0-7.7 3.384-11.15 8.284-11.15 2.625 0 5.133.94 7.525 2.57l3.033-4.08c-2.975-2.45-6.475-3.74-10.675-3.74-9.508 0-15.108 7-15.108 16.4 0 9.62 5.483 15.98 14.991 15.98 4.084 0 8.109-1.52 10.792-3.79l-2.975-4.2c-2.275 1.51-4.725 2.62-7.583 2.62zm41.358-27.01c-2.975 0-5.017 1.58-6.767 3.91-.875-2.91-2.916-3.91-5.25-3.91-2.975 0-4.841 1.7-6.591 4.15l-.467-3.33h-4.9v30.8h5.833v-23.45c1.517-2.22 2.975-3.09 4.55-3.09 1.809 0 2.042 1.34 2.042 4.55v21.99h5.308v-23.45c1.517-2.22 3.034-3.09 4.55-3.09 1.809 0 2.042 1.34 2.042 4.55v21.99h5.775v-22.87c0-6.82-2.625-8.75-6.125-8.75zm3865.717 5.14c-3.56 0-6.71 1.4-9.21 4.72.29-8.92 3.73-14.35 9.21-14.35 2.04 0 4.03.59 5.78 1.69l2.51-4.2c-2.28-1.51-5.02-2.45-8.29-2.45-9.97 0-15.92 8.93-15.92 22.35 0 11.37 3.91 19.48 14 19.48 7.7 0 13.3-5.72 13.3-14.35 0-8.58-5.14-12.89-11.38-12.89zm-1.87 22.28c-5.13 0-7.17-4.02-7.29-12.72 1.87-2.85 4.61-4.72 7.82-4.72 3.67 0 6.13 2.16 6.13 8.34 0 5.43-2.22 9.1-6.66 9.1zm37.05-.41c-4.79 0-8.29-2.91-8.29-10.61 0-7.7 3.39-11.15 8.29-11.15 2.62 0 5.13.94 7.52 2.57l3.04-4.08c-2.98-2.45-6.48-3.74-10.68-3.74-9.51 0-15.11 7-15.11 16.4 0 9.62 5.49 15.98 14.99 15.98 4.09 0 8.11-1.52 10.8-3.79l-2.98-4.2c-2.27 1.51-4.72 2.62-7.58 2.62zm41.36-27.01c-2.98 0-5.02 1.58-6.77 3.91-.88-2.91-2.92-3.91-5.25-3.91-2.98 0-4.84 1.7-6.59 4.15l-.47-3.33h-4.9v30.8h5.83v-23.45c1.52-2.22 2.98-3.09 4.55-3.09 1.81 0 2.05 1.34 2.05 4.55v21.99h5.3v-23.45c1.52-2.22 3.04-3.09 4.55-3.09 1.81 0 2.04 1.34 2.04 4.55v21.99h5.78v-22.87c0-6.82-2.62-8.75-6.12-8.75zm-2941.82 26.49v-35.12h-5.77l-12.37 7.58 2.8 4.55 8.87-5.42v28.41h-9.8v5.13h24.32v-5.13h-8.05zm28-35.94c-5.83 0-9.74 2.22-12.83 6.19l4.2 3.26c2.39-2.91 4.55-4.2 8.16-4.2 4.09 0 6.54 2.51 6.54 6.54 0 5.89-3.68 10.44-18.09 24.32v4.96h25.03l.7-5.25h-18.26c12.89-11.67 17.33-17.38 17.33-24.44 0-6.3-4.61-11.38-12.78-11.38zm39.2 36.46c-4.78 0-8.28-2.91-8.28-10.61 0-7.7 3.38-11.15 8.28-11.15 2.63 0 5.13.94 7.53 2.57l3.03-4.08c-2.98-2.45-6.48-3.74-10.68-3.74-9.5 0-15.1 7-15.1 16.4 0 9.62 5.48 15.98 14.99 15.98 4.08 0 8.11-1.52 10.79-3.79l-2.98-4.2c-2.27 1.51-4.72 2.62-7.58 2.62zm41.36-27.01c-2.98 0-5.02 1.58-6.77 3.91-.87-2.91-2.92-3.91-5.25-3.91-2.97 0-4.84 1.7-6.59 4.15l-.47-3.33h-4.9v30.8h5.84v-23.45c1.51-2.22 2.97-3.09 4.55-3.09 1.81 0 2.04 1.34 2.04 4.55v21.99h5.31v-23.45c1.51-2.22 3.03-3.09 4.55-3.09 1.81 0 2.04 1.34 2.04 4.55v21.99h5.77v-22.87c0-6.82-2.62-8.75-6.12-8.75zM12.937 1281.92c-5.833 0-9.742 2.22-12.833 6.18l4.2 3.27c2.391-2.92 4.55-4.2 8.166-4.2 4.084 0 6.534 2.51 6.534 6.53 0 5.89-3.675 10.44-18.084 24.33v4.96h25.025l.7-5.25H8.387c12.892-11.67 17.325-17.39 17.325-24.45 0-6.3-4.608-11.37-12.775-11.37zm36.633 0c-9.041 0-13.708 7.58-13.708 20.88 0 13.36 4.667 20.94 13.708 20.94 9.042 0 13.709-7.58 13.709-20.94 0-13.3-4.667-20.88-13.709-20.88zm0 5.02c4.55 0 7.117 4.43 7.117 15.86 0 11.49-2.567 15.99-7.117 15.99-4.491 0-7.116-4.44-7.116-15.99 0-11.31 2.566-15.86 7.116-15.86zm0 12.13c-2.158 0-3.791 1.69-3.791 3.79 0 2.16 1.633 3.85 3.791 3.85 2.217 0 3.85-1.69 3.85-3.85 0-2.1-1.633-3.79-3.85-3.79zm37.567 19.31c-4.783 0-8.283-2.92-8.283-10.62 0-7.7 3.383-11.14 8.283-11.14 2.625 0 5.133.93 7.525 2.57l3.033-4.09c-2.975-2.45-6.475-3.73-10.675-3.73-9.508 0-15.108 7-15.108 16.39 0 9.63 5.483 15.98 14.992 15.98 4.083 0 8.108-1.51 10.791-3.79l-2.975-4.2c-2.275 1.52-4.725 2.63-7.583 2.63zm41.358-27.01c-2.975 0-5.016 1.57-6.766 3.91-.875-2.92-2.917-3.91-5.25-3.91-2.975 0-4.842 1.69-6.592 4.14l-.467-3.32h-4.9v30.8h5.834v-23.45c1.516-2.22 2.975-3.1 4.55-3.1 1.808 0 2.041 1.35 2.041 4.55v22h5.309v-23.45c1.516-2.22 3.033-3.1 4.55-3.1 1.808 0 2.041 1.35 2.041 4.55v22h5.775v-22.87c0-6.83-2.625-8.75-6.125-8.75zM3333.22 2558.75v-35.12h-5.77l-12.37 7.58 2.8 4.55 8.87-5.42v28.41h-9.8v5.13h24.32v-5.13h-8.05zm28-35.94c-5.83 0-9.74 2.22-12.83 6.19l4.2 3.26c2.39-2.91 4.55-4.2 8.17-4.2 4.08 0 6.53 2.51 6.53 6.54 0 5.89-3.68 10.44-18.09 24.32v4.96h25.03l.7-5.25h-18.26c12.89-11.67 17.33-17.38 17.33-24.44 0-6.3-4.61-11.38-12.78-11.38zm39.2 36.46c-4.78 0-8.28-2.91-8.28-10.61 0-7.7 3.38-11.15 8.28-11.15 2.63 0 5.14.94 7.53 2.57l3.03-4.08c-2.97-2.45-6.47-3.74-10.67-3.74-9.51 0-15.11 7-15.11 16.4 0 9.62 5.48 15.98 14.99 15.98 4.08 0 8.11-1.52 10.79-3.79l-2.97-4.2c-2.28 1.51-4.73 2.62-7.59 2.62zm41.36-27.01c-2.97 0-5.02 1.58-6.77 3.91-.87-2.91-2.91-3.91-5.25-3.91-2.97 0-4.84 1.7-6.59 4.15l-.47-3.33h-4.89v30.8h5.83v-23.45c1.52-2.22 2.97-3.09 4.55-3.09 1.81 0 2.04 1.34 2.04 4.55v21.99h5.31v-23.45c1.52-2.22 3.03-3.09 4.55-3.09 1.81 0 2.04 1.34 2.04 4.55v21.99h5.78v-22.87c0-6.82-2.63-8.75-6.13-8.75zm-998.55-9.45c-4.66 0-8.81 1.58-12.31 4.96l3.45 3.74c2.5-2.4 4.95-3.62 8.34-3.62 3.96 0 6.94 2.16 6.94 6.07 0 4.31-3.27 6.35-7.06 6.35h-2.45l-.76 4.79h3.44c4.61 0 7.82 1.86 7.82 7.06 0 4.55-3.15 7.35-8.17 7.35-3.2 0-6.41-1.29-8.69-3.97l-4.02 3.5c3.15 3.79 7.99 5.6 13.06 5.6 8.81 0 14.59-5.37 14.59-12.25 0-6.36-4.26-9.39-9.28-9.92 4.49-1.05 7.99-4.49 7.99-9.45 0-5.54-4.9-10.21-12.89-10.21zm39.32 36.46c-4.78 0-8.28-2.91-8.28-10.61 0-7.7 3.38-11.15 8.28-11.15 2.62 0 5.13.94 7.52 2.57l3.04-4.08c-2.98-2.45-6.48-3.74-10.68-3.74-9.51 0-15.11 7-15.11 16.4 0 9.62 5.49 15.98 15 15.98 4.08 0 8.1-1.52 10.79-3.79l-2.98-4.2c-2.27 1.51-4.72 2.62-7.58 2.62zm41.36-27.01c-2.98 0-5.02 1.58-6.77 3.91-.87-2.91-2.92-3.91-5.25-3.91-2.97 0-4.84 1.7-6.59 4.15l-.47-3.33h-4.9v30.8h5.84v-23.45c1.51-2.22 2.97-3.09 4.55-3.09 1.8 0 2.04 1.34 2.04 4.55v21.99h5.31v-23.45c1.51-2.22 3.03-3.09 4.55-3.09 1.8 0 2.04 1.34 2.04 4.55v21.99h5.77v-22.87c0-6.82-2.62-8.75-6.12-8.75zM4340.21 11.424h19.74l.8-5.867h-28.27v46h7.73v-19.6h17.34v-5.866h-17.34V11.424zm45.2-9.2h-18.06v5.467h10.6v33.6c0 6.933 4.13 11.133 11.2 11.133 3.93 0 7-.867 9.06-2l-1.86-5.2c-1.8.733-3.6 1.2-5.6 1.2-3.14 0-5.34-1.2-5.34-4.467V2.224zm51.47 40.733V27.224c0-7.4-4.6-11.8-14.07-11.8-3.6 0-7.93.733-12.33 2.4l1.87 5.267c3.53-1.267 7-1.8 9.33-1.8 4.93 0 7.8 1.8 7.8 6.4v2.266h-5c-10.73 0-16.73 4.2-16.73 11.534 0 6.533 4.4 10.933 11.6 10.933 4.46 0 8.6-1.6 11.2-4.867 1.26 3.067 3.86 4.467 7.26 4.867l1.74-5.067c-1.87-.6-2.67-1.666-2.67-4.4zm-15.33 4c-3.94 0-5.94-2-5.94-5.733 0-4.133 2.74-6.6 9.74-6.6h4.13v7.8c-1.73 2.867-4.87 4.533-7.93 4.533zm45.6-31.533c-3.94 0-7.6 1.867-10.27 5.467l-.47-4.534h-6.46v49.6l7.46-.866V48.557c2.27 2.6 5.27 3.867 8.94 3.867 8.93 0 13.6-7.8 13.6-18.533 0-11.2-3.54-18.467-12.8-18.467zm-2.07 5.733c4.67 0 7 3.734 7 12.8 0 8.8-2.67 12.667-7.73 12.667-2.87 0-5.27-1.4-6.94-3.933V26.224c1.74-2.733 4.34-5.067 7.67-5.067zm-1311.13-4.166h19.74l.8-5.867h-28.27v46h7.73v-19.6h17.34v-5.867h-17.34V16.991zm54.67 4.066c-6.06 0-9.73 3.134-12.4 9l-1.33-8.133h-10.87v5.333h5.2v24.534h-5.2v5.333h19.74v-5.333h-7.07V38.724c2.07-6.867 5.67-10.867 10.67-11v7.2h5.33l1.26-13c-1.59-.533-3.19-.867-5.33-.867zm29.2-.066c-10.26 0-16 7.533-16 18.533 0 11.4 5.67 18.467 15.94 18.467 10.19 0 15.93-7.334 15.93-18.534s-5.6-18.466-15.87-18.466zm0 5.8c5.34 0 8 4 8 12.666 0 8.8-2.66 12.8-8.06 12.8s-8.07-4-8.07-12.733 2.73-12.733 8.13-12.733zm25.87 30.333h7.47V31.857c1.86-2.666 4.79-5.133 8.26-5.133 4.27 0 5 2.333 5 8.467v21.933h7.47V31.457c0-6.6-3.27-10.466-9.8-10.466-4.27 0-8.47 1.933-11.4 5.533l-.53-4.6h-6.47v35.2zm69.4-1.867l-2.67-4.933c-1.8 1-4 1.667-6.53 1.667-4.33 0-6.13-1.8-6.13-5.6v-19h11.06l.87-5.467h-11.93v-8.733l-7.47.866v7.867h-7.8v5.467h7.8v19.066c0 6.934 4.33 11.534 12.53 11.534 3.94 0 7.67-1.067 10.27-2.734zm68.53-45.066c-11.2 0-20.4 8.4-20.4 23.866 0 15.6 8.8 23.934 20.54 23.934 6.73 0 11.33-2.467 14.4-5.467l-3.74-4.733c-2.53 2-5.47 3.933-10.4 3.933-7.26 0-12.73-4.933-12.73-17.667 0-13 5.8-17.8 12.66-17.8 3.61 0 6.74 1.134 9.54 3.4l4-4.8c-3.73-3-7.6-4.666-13.87-4.666zm36.2 10.8c-10.26 0-16 7.533-16 18.533 0 11.4 5.67 18.467 15.94 18.467 10.19 0 15.93-7.334 15.93-18.534s-5.6-18.466-15.87-18.466zm0 5.8c5.34 0 8 4 8 12.666 0 8.8-2.66 12.8-8.06 12.8s-8.07-4-8.07-12.733 2.73-12.733 8.13-12.733zm56.74-4.867h-7.67l-9 29-8.87-29h-8.07l12.47 35.2h8.67l12.47-35.2zm15.33 20h23.33c.14-.867.2-2.133.2-3.333 0-10.934-5.86-17.6-15.2-17.6-10 0-16.06 8-16.06 18.533 0 11 6 18.467 17 18.467 4.93 0 9.53-1.667 12.79-4.334l-3.19-4.533c-3 2-5.87 3.067-9.27 3.067-5.07 0-9.13-3.067-9.6-10.267zm8.4-15.4c5 0 7.73 3.667 7.87 10.333h-16.34c.47-7.066 3.8-10.333 8.47-10.333zm50.33-5.467c-6.06 0-9.73 3.134-12.4 9l-1.33-8.133h-10.87v5.333h5.2v24.534h-5.2v5.333h19.74v-5.333h-7.07V38.724c2.07-6.867 5.67-10.867 10.67-11v7.2h5.33l1.26-13c-1.59-.533-3.19-.867-5.33-.867zM1447.79 45.491c0-7.6-5.53-10.267-10.53-11.134 4.4-1 8.53-4.2 8.53-9.933 0-9-8.2-11.667-16.8-11.667h-12.6v46h13.47c9.06 0 17.93-3 17.93-13.266zm-9.87-20.467c0 4.8-2.66 6.8-7.8 6.8h-6V18.557h5.54c5.26 0 8.26 1.8 8.26 6.467zm1.8 20.467c0 6.133-4.93 7.266-9.33 7.266h-6.27V37.624h6.54c5.13 0 9.06 1.667 9.06 7.867zm44.14 4.666V34.424c0-7.4-4.6-11.8-14.07-11.8-3.6 0-7.93.733-12.33 2.4l1.86 5.267c3.54-1.267 7-1.8 9.34-1.8 4.93 0 7.8 1.8 7.8 6.4v2.266h-5c-10.74 0-16.74 4.2-16.74 11.534 0 6.533 4.4 10.933 11.6 10.933 4.47 0 8.6-1.6 11.2-4.867 1.27 3.067 3.87 4.467 7.27 4.867l1.73-5.067c-1.86-.6-2.66-1.666-2.66-4.4zm-15.34 4c-3.93 0-5.93-2-5.93-5.733 0-4.133 2.73-6.6 9.73-6.6h4.14v7.8c-1.74 2.867-4.87 4.533-7.94 4.533zm45.4-.666c-5.46 0-9.46-3.334-9.46-12.134s3.86-12.733 9.46-12.733c3 0 5.87 1.067 8.6 2.933l3.47-4.666c-3.4-2.8-7.4-4.267-12.2-4.267-10.87 0-17.27 8-17.27 18.733 0 11 6.27 18.267 17.14 18.267 4.66 0 9.26-1.733 12.33-4.333l-3.4-4.8c-2.6 1.733-5.4 3-8.67 3zm30.67-44.934l-7.47.867v49.333h7.47v-50.2zm23.33 15h-8.66l-14.14 15.934 15.14 19.266h9.13l-15.67-19.466 14.2-15.734zm66.94-11.733c-11.2 0-20.4 8.4-20.4 23.867 0 15.6 8.8 23.933 20.53 23.933 6.73 0 11.33-2.467 14.4-5.467l-3.73-4.733c-2.54 2-5.47 3.933-10.4 3.933-7.27 0-12.74-4.933-12.74-17.666 0-13 5.8-17.8 12.67-17.8 3.6 0 6.73 1.133 9.53 3.4l4-4.8c-3.73-3-7.6-4.667-13.86-4.667zm36.2 10.8c-10.27 0-16 7.533-16 18.533 0 11.4 5.66 18.467 15.93 18.467 10.2 0 15.93-7.333 15.93-18.533 0-11.2-5.6-18.467-15.86-18.467zm0 5.8c5.33 0 8 4 8 12.667 0 8.8-2.67 12.8-8.07 12.8s-8.07-4-8.07-12.734c0-8.733 2.74-12.733 8.14-12.733zm56.73-4.867h-7.67l-9 29-8.86-29h-8.07l12.47 35.2h8.66l12.47-35.2zm15.33 20h23.34c.13-.866.2-2.133.2-3.333 0-10.933-5.87-17.6-15.2-17.6-10 0-16.07 8-16.07 18.533 0 11 6 18.467 17 18.467 4.93 0 9.53-1.667 12.8-4.333l-3.2-4.534c-3 2-5.87 3.067-9.27 3.067-5.06 0-9.13-3.067-9.6-10.267zm8.4-15.4c5 0 7.74 3.667 7.87 10.334h-16.33c.46-7.067 3.8-10.334 8.46-10.334zm50.34-5.466c-6.07 0-9.74 3.133-12.4 9l-1.34-8.134h-10.86v5.334h5.2v24.533h-5.2v5.333h19.73v-5.333h-7.07V40.357c2.07-6.866 5.67-10.866 10.67-11v7.2h5.33l1.27-13c-1.6-.533-3.2-.866-5.33-.866z"/><path fill="none" stroke="#818181" stroke-width="4.17" d="M168.487 127.793H4774.79M168.487 2490H4774.79M168.487 127.793V2490M877.713 127.793V2490M2295.04 127.793V2490m354.33-2362.207V2490M4774.79 127.793V2490m-708.1-2362.207V2490"/><path fill="none" d="M0 0h4776.77v2570.59H0z"/></svg>