<svg viewBox="0 0 24 24" width="24" height="24"><path d="M12 0a12 12 0 1 0 12 11.71A12 12 0 0 0 12 0zm5.83 14.47a4.88 4.88 0 0 1-2.29 3.94 4.74 4.74 0 0 1-2.12.75 2.42 2.42 0 0 1-.38 0H8.89a1.75 1.75 0 0 1-1.72-1.35V6.78A1.91 1.91 0 0 1 7.26 6a1.66 1.66 0 0 1 1.42-1.11 3.44 3.44 0 0 1 .46 0h3.57a4 4 0 0 1 1.53.26 3.74 3.74 0 0 1 .67 6.64l-.21.15.2.17a2.91 2.91 0 0 1 .9 1.77 2.94 2.94 0 0 1-2.32 3.27 3 3 0 0 1-.43 0h-3.4a.52.52 0 0 1-.13-1 1 1 0 0 1 .34 0h2.94a1.91 1.91 0 0 0 .63-.08 1.87 1.87 0 0 0 .2-3.49 1.93 1.93 0 0 0-.79-.17h-2.25a.53.53 0 0 1-.13-1 .9.9 0 0 1 .28 0h2a2.9 2.9 0 0 0 .83-.1 2.56 2.56 0 0 0 2-2 2.64 2.64 0 0 0-2-3.15A2.72 2.72 0 0 0 13 6H8.85a.66.66 0 0 0-.64.62v10.7a.92.92 0 0 0 0 .37.64.64 0 0 0 .57.45h4a3.89 3.89 0 0 0 3.77-3 3.84 3.84 0 0 0-.25-2.54 2.92 2.92 0 0 1-.14-.31.53.53 0 0 1 .27-.68.52.52 0 0 1 .68.2 4.6 4.6 0 0 1 .63 2.65zM13 8h-3a2.09 2.09 0 0 1-.43 0 .48.48 0 0 1-.41-.48.49.49 0 0 1 .36-.53 1.74 1.74 0 0 1 .34 0h3a1.9 1.9 0 0 1 .81.17 1.75 1.75 0 0 1-.43 3.3h-1.01a.56.56 0 0 1-.54-.53.53.53 0 0 1 .52-.54h.73A.65.65 0 0 0 13 8z"/></svg>