<svg xmlns="http://www.w3.org/2000/svg" viewBox="0 0 213.94 31.3"><defs><style>.acbb038e-3626-4423-aa21-081332dde32b,.b02a4a34-4c6b-42a8-972c-91fdcce91b9f,.b474d81e-0390-4d92-bd3d-721062619d72{fill:none;}.b02a4a34-4c6b-42a8-972c-91fdcce91b9f,.b474d81e-0390-4d92-bd3d-721062619d72{stroke:#2997ff;}.b02a4a34-4c6b-42a8-972c-91fdcce91b9f{stroke-miterlimit:10;stroke-width:2px;}.a726ae53-d133-4636-a5a5-881788ca5427{isolation:isolate;}.f394c9e0-9e77-4044-8fd3-40af70b386eb{fill:#505050;}.acbb038e-3626-4423-aa21-081332dde32b{stroke:#fff;stroke-width:5px;}.acbb038e-3626-4423-aa21-081332dde32b,.b474d81e-0390-4d92-bd3d-721062619d72{stroke-linecap:round;stroke-linejoin:round;}.b474d81e-0390-4d92-bd3d-721062619d72{stroke-width:2.85px;}</style></defs><g id="b2b9f4e7-f054-49c9-b001-772d8e3361dd" data-name="Layer 2"><g id="edb7c979-a941-4a65-bf97-429f149abb75" data-name="Layer 1"><path class="b02a4a34-4c6b-42a8-972c-91fdcce91b9f" d="M208.94,30.3H5a4,4,0,0,1-4-4V5A4,4,0,0,1,5,1H208.94a4,4,0,0,1,4,4V26.4A4.13,4.13,0,0,1,208.94,30.3Z"/><g class="a726ae53-d133-4636-a5a5-881788ca5427"><path class="f394c9e0-9e77-4044-8fd3-40af70b386eb" d="M50.17,12.4l-1.32,1.32a3,3,0,0,0-2.15-.88c-1,0-1.61.45-1.61,1.19s.4.9,1.78,1.37c1.72.56,2.73,1.39,2.73,3s-1.21,3.75-4.54,3.75a5.09,5.09,0,0,1-3.88-1.55l1.43-1.41a3.32,3.32,0,0,0,2.51,1c1.17,0,1.87-.54,1.87-1.44,0-.69-.41-1.06-1.67-1.51-2-.68-2.83-1.57-2.83-3,0-1.61,1.29-3.32,4.13-3.32A4.71,4.71,0,0,1,50.17,12.4Z"/><path class="f394c9e0-9e77-4044-8fd3-40af70b386eb" d="M50.67,19.57l.83-5.82h2.38l-.76,5.44c-.12.81.11,1.06.54,1.06s1.12-.61,1.57-1.29L56,13.75h2.38L57.2,21.91H55.14l0-1.21a3.26,3.26,0,0,1-2.58,1.47C51.1,22.17,50.45,21.16,50.67,19.57Z"/><path class="f394c9e0-9e77-4044-8fd3-40af70b386eb" d="M67.23,16.67c0,2.35-1,5.5-4.76,5.5a8.9,8.9,0,0,1-3.35-.67l1.53-11,2.42-.26-.59,4.19a3.27,3.27,0,0,1,2.25-.95C66.35,13.49,67.23,14.64,67.23,16.67Zm-5-.46-.56,4a2.59,2.59,0,0,0,1,.2c1.52,0,2.06-2.15,2.06-3.68,0-1.14-.43-1.45-1-1.45A2,2,0,0,0,62.24,16.21Z"/><path class="f394c9e0-9e77-4044-8fd3-40af70b386eb" d="M79.8,16,79,21.91H76.59l.77-5.39c.12-.86-.13-1-.45-1-.55,0-1.11.77-1.6,1.86l-.64,4.58H72.29l.76-5.39c.13-.86-.13-1-.46-1-.53,0-1.12.79-1.58,1.92l-.63,4.52H68l1.14-8.16h2.07l0,1.34a3.12,3.12,0,0,1,2.56-1.6A1.69,1.69,0,0,1,75.5,15,3.18,3.18,0,0,1,78,13.49C79.29,13.49,80,14.43,79.8,16Z"/><path class="f394c9e0-9e77-4044-8fd3-40af70b386eb" d="M83.15,21.91H80.77l1.14-8.16h2.38ZM82.08,11a1.52,1.52,0,0,1,1.58-1.53,1.18,1.18,0,0,1,1.27,1.22,1.53,1.53,0,0,1-1.58,1.53A1.19,1.19,0,0,1,82.08,11Z"/><path class="f394c9e0-9e77-4044-8fd3-40af70b386eb" d="M88,19.21c-.11.78.09,1,.55,1a2.22,2.22,0,0,0,.93-.26l.63,1.58a4.64,4.64,0,0,1-2.23.6c-1.69,0-2.54-1.06-2.28-3l.54-3.77H85l.23-1.69h1.23L87,11.94,89,11.71l-.3,2h1.88l-.51,1.69h-1.6Z"/><path class="f394c9e0-9e77-4044-8fd3-40af70b386eb" d="M98.79,21.94a5.39,5.39,0,0,1-5.05,3.38l-.06-1.7a3.21,3.21,0,0,0,2.87-1.71h-.84L94.4,13.75h2.49l.54,6.59,2.47-6.59h2.49Z"/><path class="f394c9e0-9e77-4044-8fd3-40af70b386eb" d="M102,18.7c0-2.28,1.11-5.21,4.55-5.21A3.16,3.16,0,0,1,110,17c0,2.25-1.12,5.21-4.55,5.21A3.15,3.15,0,0,1,102,18.7Zm5.52-1.89c0-1.08-.39-1.54-1.14-1.54-1.61,0-1.94,2.34-1.94,3.58,0,1.08.37,1.54,1.14,1.54C107.2,20.39,107.52,18.05,107.54,16.81Z"/><path class="f394c9e0-9e77-4044-8fd3-40af70b386eb" d="M111,19.57l.83-5.82h2.38l-.75,5.44c-.12.81.11,1.06.54,1.06s1.12-.61,1.56-1.29l.73-5.21h2.38l-1.14,8.16h-2.06l0-1.21A3.28,3.28,0,0,1,113,22.17C111.44,22.17,110.79,21.16,111,19.57Z"/><path class="f394c9e0-9e77-4044-8fd3-40af70b386eb" d="M125.72,13.64,125,16a2.61,2.61,0,0,0-.67-.11c-1,0-1.57,1-2,2.26l-.53,3.78h-2.38l1.13-8.16h2.08l0,1.52a2.69,2.69,0,0,1,2.3-1.75A3,3,0,0,1,125.72,13.64Z"/><path class="f394c9e0-9e77-4044-8fd3-40af70b386eb" d="M131.89,19.21c-.1.78.1,1,.56,1a2.21,2.21,0,0,0,.92-.26l.63,1.58a4.64,4.64,0,0,1-2.23.6c-1.69,0-2.53-1.06-2.27-3l.53-3.77h-1.12l.23-1.69h1.23l.51-1.81,2.06-.23-.29,2h1.87L134,15.44h-1.59Z"/><path class="f394c9e0-9e77-4044-8fd3-40af70b386eb" d="M139.13,21.94a5.4,5.4,0,0,1-5,3.38l-.07-1.7a3.23,3.23,0,0,0,2.88-1.71H136l-1.3-8.16h2.49l.53,6.59,2.48-6.59h2.49Z"/><path class="f394c9e0-9e77-4044-8fd3-40af70b386eb" d="M143.56,13.75h2.1v.91a3.25,3.25,0,0,1,2.4-1.17c1.66,0,2.52,1.15,2.52,3.18,0,2.35-1.09,5.5-4.33,5.5a4.13,4.13,0,0,1-1.46-.23l-.46,3.14-2.39.26Zm4.58,3c0-1.14-.43-1.45-1-1.45a2.06,2.06,0,0,0-1.55.94l-.55,4a2.46,2.46,0,0,0,1,.2C147.58,20.4,148.14,18.25,148.14,16.72Z"/><path class="f394c9e0-9e77-4044-8fd3-40af70b386eb" d="M153.79,18.94c.06,1.1.66,1.45,1.46,1.45a3.71,3.71,0,0,0,2.08-.75l.86,1.44a5.49,5.49,0,0,1-3.25,1.09,3.19,3.19,0,0,1-3.55-3.46c0-2.21,1.2-5.22,4.63-5.22,2,0,3,1,3,2.23C159,18,156.36,18.68,153.79,18.94Zm2.83-3.11a.7.7,0,0,0-.79-.73c-1.16,0-1.72,1.2-1.93,2.37C155.94,17.33,156.62,16.59,156.62,15.83Z"/><path class="f394c9e0-9e77-4044-8fd3-40af70b386eb" d="M170.25,14.54l-1.19,1.38a1.91,1.91,0,0,0-1.41-.57c-1.66,0-2.07,2-2.07,3.4,0,1.15.5,1.5,1.27,1.5a2.9,2.9,0,0,0,1.62-.57l.89,1.55a4.6,4.6,0,0,1-2.82.94,3.23,3.23,0,0,1-3.47-3.52c0-2.12,1.25-5.16,4.57-5.16A3.51,3.51,0,0,1,170.25,14.54Z"/><path class="f394c9e0-9e77-4044-8fd3-40af70b386eb" d="M178,16l-.83,5.92h-2.38l.75-5.39c.13-.83-.1-1-.46-1-.63,0-1.24.8-1.82,2l-.64,4.49h-2.38l1.6-11.4,2.41-.25-.67,4.86a3.1,3.1,0,0,1,2.59-1.63C177.49,13.49,178.21,14.43,178,16Z"/><path class="f394c9e0-9e77-4044-8fd3-40af70b386eb" d="M179,18.7c0-2.28,1.11-5.21,4.55-5.21A3.16,3.16,0,0,1,187,17c0,2.25-1.12,5.21-4.55,5.21A3.15,3.15,0,0,1,179,18.7Zm5.52-1.89c0-1.08-.39-1.54-1.14-1.54-1.61,0-1.93,2.34-1.93,3.58,0,1.08.36,1.54,1.13,1.54C184.2,20.39,184.52,18.05,184.54,16.81Z"/><path class="f394c9e0-9e77-4044-8fd3-40af70b386eb" d="M190.16,21.91h-2.38l1.14-8.16h2.38ZM189.09,11a1.52,1.52,0,0,1,1.58-1.53A1.19,1.19,0,0,1,192,10.68a1.54,1.54,0,0,1-1.59,1.53A1.19,1.19,0,0,1,189.09,11Z"/><path class="f394c9e0-9e77-4044-8fd3-40af70b386eb" d="M199.26,14.54l-1.18,1.38a1.94,1.94,0,0,0-1.42-.57c-1.66,0-2.07,2-2.07,3.4,0,1.15.51,1.5,1.27,1.5a2.9,2.9,0,0,0,1.62-.57l.89,1.55a4.59,4.59,0,0,1-2.81.94,3.23,3.23,0,0,1-3.48-3.52c0-2.12,1.25-5.16,4.57-5.16A3.51,3.51,0,0,1,199.26,14.54Z"/><path class="f394c9e0-9e77-4044-8fd3-40af70b386eb" d="M201.47,18.94c.06,1.1.66,1.45,1.46,1.45a3.71,3.71,0,0,0,2.08-.75l.86,1.44a5.47,5.47,0,0,1-3.25,1.09,3.18,3.18,0,0,1-3.54-3.46c0-2.21,1.19-5.22,4.62-5.22,2,0,3,1,3,2.23C206.71,18,204,18.68,201.47,18.94Zm2.83-3.11a.69.69,0,0,0-.78-.73c-1.17,0-1.72,1.2-1.94,2.37C203.62,17.33,204.3,16.59,204.3,15.83Z"/></g><rect class="b02a4a34-4c6b-42a8-972c-91fdcce91b9f" x="9.38" y="7.37" width="18.26" height="18.26" rx="3.9"/><polyline class="acbb038e-3626-4423-aa21-081332dde32b" points="14.7 15.75 18.48 21.93 26.1 5.67"/><polyline class="b474d81e-0390-4d92-bd3d-721062619d72" points="14.7 15.75 18.48 21.93 26.1 5.67"/></g></g></svg>