<svg xmlns="http://www.w3.org/2000/svg" viewBox="0 0 240 46.63" width="240" height="46.63"><defs><style>.a4bb71e4-63ee-42c1-85c5-7e25f1cec779{fill:#2997ff}.f5fe3dfe-362c-4178-a34f-9a9662e4bd4c{fill:#505050}</style></defs><g id="afec603d-aa4b-49f0-b4f0-38fb210138b1"><g id="a9e61fcf-c49b-43e2-91f2-76a0342a71dd"><path d="M43 9.39a203.36 203.36 0 0 0-24.19 0c-6.21.48-7 4.14-7 14s.79 13.52 7 14c5.73.32 18.46.32 24.19 0 6.21-.32 7-4.14 7-14s-.82-13.52-7-14zM26.1 29.76V17l12.73 6.4z" class="a4bb71e4-63ee-42c1-85c5-7e25f1cec779"/><path d="M74.48 33.26h-4.77l-2.87-18.78H71l1.59 15.44 5.89-15.44h4.12zm9.71 0h-3.82l2.07-14.32h3.82zm-1.43-19.41a2.51 2.51 0 0 1 2.55-2.55 1.92 1.92 0 0 1 2.06 2.07 2.51 2.51 0 0 1-2.54 2.55 1.92 1.92 0 0 1-2.07-2.07zm19.1-.8L99 33.26h-3.35v-2.07a5.16 5.16 0 0 1-4.3 2.55c-3 0-4.61-2.23-4.61-5.73 0-3.82 1.91-9.55 6.84-9.55a4.39 4.39 0 0 1 3.34 1.43l1.28-7.16zm-11 15c0 2.07.63 2.87 1.75 2.87C94.06 30.88 95 29.6 96 28l.79-5.57a2.71 2.71 0 0 0-2.22-1.27c-2.9.17-3.69 4.3-3.69 6.84zm14.8 0c.16 2.07 1.11 2.87 2.7 2.87A6.73 6.73 0 0 0 112 29.6l1.47 2.4a9.81 9.81 0 0 1-5.57 1.91c-4 0-6-2.39-6-6 0-4 2.07-9.23 8-9.23 3.35 0 5.1 1.75 5.1 3.82-.09 3.76-4.71 5.03-9.32 5.5zm5.41-5.57c0-.64-.32-1.43-1.59-1.43-2.23 0-3.35 2.23-3.66 4.45 3.68-.35 5.27-1.5 5.27-3.06zm3.82 5.09c0-4 1.91-9.23 8-9.23 3.82 0 5.89 2.39 5.89 6.05 0 3.82-1.91 9.23-8 9.23-3.78.12-5.87-2.27-5.87-6.09zm9.86-3.34c0-2.07-.79-2.86-2.22-2.86-3 0-3.66 4.29-3.66 6.52 0 2.07.79 2.87 2.22 2.87 3.05-.04 3.68-4.18 3.68-6.57zm24-6.68H144l-2.2 15.71h-4l2.23-15.75h-4.77l.48-3.19h13.86zm-1.6 11.61l1.44-10.34h3.82L151 28.49c-.15 1.59.16 2.07 1.12 2.07 1.27 0 2.23-1.28 3.18-2.55l1.27-9.23h3.82l-2.03 14.32H155l.16-2.22c-1.27 1.59-2.7 2.7-4.61 2.7-2.55.16-3.81-1.75-3.34-4.46zm18.63-.47c-.16 1.43.15 1.91.95 1.91a3.61 3.61 0 0 0 1.75-.48l1 2.55a8.28 8.28 0 0 1-3.82 1.11c-2.87 0-4.3-1.75-3.82-4.93l.95-7.17h-2.07l.32-2.7h2.23l1-3.18 3.19-.32-.46 3.62h3.34l-.79 2.7h-2.87z" class="f5fe3dfe-362c-4178-a34f-9a9662e4bd4c"/><path d="M169.5 27.53c0-4 1.91-9.23 7.95-9.23 3.82 0 5.89 2.39 5.89 6.05 0 3.82-1.91 9.23-8 9.23-3.62.16-5.84-2.23-5.84-6.05zm10-3.34c0-2.07-.79-2.86-2.23-2.86-3 0-3.66 4.29-3.66 6.52 0 2.07.8 2.87 2.23 2.87 2.89 0 3.52-4.14 3.68-6.53zm15.28-5.57l-1.11 3.82a3.52 3.52 0 0 0-1.28-.16c-1.75 0-2.86 1.75-3.66 4.14l-.95 6.84H184l2.07-14.32h3.34l-.16 2.7c1-2.06 2.55-3.18 4.14-3.18a3.92 3.92 0 0 1 1.41.16zm2.55 14.64h-3.82l2.07-14.32h3.82zm-1.43-19.41a2.51 2.51 0 0 1 2.54-2.55 1.93 1.93 0 0 1 2.07 2.07 2.52 2.52 0 0 1-2.51 2.55 1.92 1.92 0 0 1-2.08-2.07zm18 6l-1.43 9.39c-.16 1-.16 1.44.79 1.75l-1.11 2.55c-1.59-.16-2.87-.79-3.18-2.39a5 5 0 0 1-4.3 2.39c-3 0-4.62-2.23-4.62-5.73 0-4.14 2.23-9.55 8.12-9.55a15.62 15.62 0 0 1 5.73 1.59zM204 28c0 2.07.8 2.87 1.91 2.87s2.07-.8 3-2.07l.95-7.17a3.5 3.5 0 0 0-1.75-.31c-3-.16-4.14 3.82-4.14 6.68zm14.64 1.59c-.16.64.16 1 .64 1a1.44 1.44 0 0 0 .8-.16l.47 2.7a7.14 7.14 0 0 1-2.54.48c-2.39 0-3.5-1.43-3.19-4.14l2.39-16.55 3.82-.48-2.36 17.16z" class="f5fe3dfe-362c-4178-a34f-9a9662e4bd4c"/><path d="M233.63 3A3.37 3.37 0 0 1 237 6.37v34a3.58 3.58 0 0 1-3.37 3.29H6.37A3.37 3.37 0 0 1 3 40.27V6.37A3.37 3.37 0 0 1 6.37 3h227.26m0-3H6.37A6.38 6.38 0 0 0 0 6.37v33.9a6.38 6.38 0 0 0 6.37 6.36h227.26a6.57 6.57 0 0 0 6.37-6.21V6.37A6.38 6.38 0 0 0 233.63 0z" class="a4bb71e4-63ee-42c1-85c5-7e25f1cec779"/></g></g></svg>