<svg xmlns="http://www.w3.org/2000/svg" viewBox="0 0 173.5 49.11" width="173.5" height="49.11"><defs><style>.a2e6acd8-4dd7-48a9-b7bc-64268bdd4cb9{fill:none;stroke:#2997ff;stroke-miterlimit:10;stroke-width:2px}.f6ba39b5-02c3-4388-9c4b-4a5e68683b2c{isolation:isolate}.ea54ca59-e3c3-4ef5-b4dd-48371fa40f60{fill:#505050}.e1324778-9de1-4564-bb0b-00d2f36507b8{fill:#2997ff}</style></defs><g id="a434a036-c349-4424-be62-038611b3319b"><g id="a7236459-1f0f-4786-bd3f-637c9e3107b7"><path d="M168.5 48.11H5a4 4 0 0 1-4-4V5a4 4 0 0 1 4-4h163.5a4 4 0 0 1 4 4v39.21a4.13 4.13 0 0 1-4 3.9z" class="a2e6acd8-4dd7-48a9-b7bc-64268bdd4cb9"/><g class="f6ba39b5-02c3-4388-9c4b-4a5e68683b2c"><path d="M65.11 8.65l-1.49 1.5a3.32 3.32 0 0 0-2.43-1c-1.1 0-1.83.5-1.83 1.34 0 .69.46 1 2 1.54 1.94.64 3.09 1.58 3.09 3.42 0 2-1.37 4.24-5.14 4.24A5.75 5.75 0 0 1 55 18l1.62-1.6a3.75 3.75 0 0 0 2.83 1.18c1.32 0 2.12-.61 2.12-1.63 0-.79-.47-1.2-1.9-1.7-2.27-.77-3.19-1.78-3.19-3.37 0-1.83 1.46-3.76 4.67-3.76a5.35 5.35 0 0 1 3.96 1.53zm.56 8.11l.94-6.58h2.69l-.85 6.15c-.14.92.12 1.2.61 1.2s1.26-.7 1.77-1.46l.81-5.89h2.69l-1.28 9.22h-2.33v-1.37a3.69 3.69 0 0 1-2.91 1.67c-1.65 0-2.38-1.15-2.14-2.94zm18.72-3.28c0 2.66-1.11 6.22-5.38 6.22a10.21 10.21 0 0 1-3.79-.76L77 6.52l2.72-.3L79 11a3.73 3.73 0 0 1 2.54-1.07c1.86-.04 2.85 1.26 2.85 3.55zM78.75 13l-.63 4.52a3 3 0 0 0 1.16.22c1.72 0 2.33-2.43 2.33-4.17 0-1.28-.49-1.63-1.09-1.63A2.3 2.3 0 0 0 78.75 13zm19.84-.3l-.93 6.7H95l.86-6.09c.14-1-.14-1.18-.5-1.18-.62 0-1.25.87-1.81 2.1l-.73 5.17H90.1l.9-6.09c.14-1-.15-1.18-.52-1.18-.61 0-1.27.88-1.79 2.17L88 19.4h-2.74l1.28-9.22h2.35v1.51a3.5 3.5 0 0 1 2.88-1.8 1.9 1.9 0 0 1 2 1.72 3.62 3.62 0 0 1 2.83-1.72c1.4 0 2.24 1.11 1.99 2.81zm3.79 6.7h-2.69l1.31-9.22h2.69zm-1.21-12.34A1.72 1.72 0 0 1 103 5.34a1.35 1.35 0 0 1 1.45 1.37 1.74 1.74 0 0 1-1.79 1.74 1.35 1.35 0 0 1-1.49-1.39zm6.68 9.29c-.12.88.11 1.18.63 1.18a2.36 2.36 0 0 0 1-.3l.71 1.79a5.24 5.24 0 0 1-2.52.68c-1.91 0-2.86-1.2-2.57-3.35l.61-4.26h-1.27l.26-1.91h1.39l.58-2 2.33-.31-.33 2.31h2.12l-.57 1.91h-1.81zm16.2-5.49l-.85 5.9c-.07.61 0 .93.45 1.12l-.78 1.77a2.2 2.2 0 0 1-2.13-1.53A3.28 3.28 0 0 1 118 19.7c-1.94 0-3-1.44-3-3.67 0-2.63 1.39-6.14 5.28-6.14a7.78 7.78 0 0 1 3.77.97zM117.8 16c0 1.3.44 1.67 1 1.67s1.24-.49 1.76-1.29l.64-4.39a2.84 2.84 0 0 0-1-.18c-1.77.02-2.4 2.42-2.4 4.19zm21.07-5.28c0 2.21-1.39 4.67-5.3 4.67h-1.32l-.55 4h-2.8l1.68-12h3.82c2.8-.02 4.47 1.09 4.47 3.33zm-2.9.14c0-1-.63-1.46-1.84-1.46h-1l-.55 3.94h1a2.23 2.23 0 0 0 2.42-2.48zm13.59 1.08c0 3.9-1.66 7.46-6.8 7.46h-3.6l1.69-12h3.26c2.89-.03 5.45.82 5.45 4.54zm-6.19-2.5l-1.12 7.92h.92c2.83 0 3.53-3.08 3.53-5.42 0-2.07-1-2.5-2.41-2.5zm15.12-.04h-4l-.45 3.2h3.48l-.28 2h-3.47l-.68 4.77h-2.8l1.69-12h7.06zM60.06 30.35L60 31h2.14l-.56 1.91h-1.89l-.88 6.31c-.42 3-2.07 4.06-4.29 4.86l-.68-2a3 3 0 0 0 2.26-2.78l.9-6.41h-1.37l.26-1.89h1.37l.12-.85a3.52 3.52 0 0 1 3.79-3.11 4.56 4.56 0 0 1 2.57.77l-1 1.63a2.65 2.65 0 0 0-1.39-.36c-.75.02-1.17.38-1.29 1.27zm1.49 6.26c0-2.57 1.25-5.88 5.14-5.88a3.57 3.57 0 0 1 3.86 3.92c0 2.54-1.27 5.89-5.14 5.89a3.57 3.57 0 0 1-3.86-3.93zm6.24-2.13c0-1.22-.44-1.74-1.29-1.74-1.82 0-2.19 2.64-2.19 4 0 1.21.42 1.74 1.29 1.74 1.8.05 2.17-2.59 2.19-4zm10.78-3.58l-.78 2.64a2.93 2.93 0 0 0-.76-.12c-1.15 0-1.78 1.09-2.28 2.55l-.61 4.27h-2.69L72.74 31h2.34v1.72a3 3 0 0 1 2.6-2 3.18 3.18 0 0 1 .89.18zm11.86-.66h-4l-.43 3.2h3.48l-.28 2h-3.47l-.68 4.77h-2.8l1.69-12H91zm2.24 6.65a1.5 1.5 0 0 0 1.65 1.64 4.08 4.08 0 0 0 2.35-.86l1 1.64A6.19 6.19 0 0 1 94 40.54c-2.7 0-4-1.56-4-3.91 0-2.5 1.36-5.9 5.23-5.9 2.24 0 3.4 1.13 3.4 2.52-.04 2.58-3.06 3.35-5.96 3.64zm3.2-3.52a.79.79 0 0 0-.89-.82c-1.32 0-1.94 1.36-2.19 2.68 2.31-.16 3.08-.99 3.08-1.86zm5.92 3.52a1.5 1.5 0 0 0 1.65 1.64 4.06 4.06 0 0 0 2.34-.86l1 1.64a6.2 6.2 0 0 1-3.67 1.23c-2.69 0-4-1.56-4-3.91 0-2.5 1.36-5.9 5.23-5.9 2.24 0 3.4 1.13 3.4 2.52-.03 2.58-3.05 3.35-5.95 3.64zm3.2-3.52a.79.79 0 0 0-.89-.82c-1.32 0-1.94 1.36-2.19 2.68 2.31-.16 3.09-.99 3.09-1.86zM118 27.36l-1.8 12.88h-2.39v-1.32a3.3 3.3 0 0 1-2.75 1.62c-1.93 0-2.9-1.41-2.9-3.72 0-2.51 1.27-6.09 4.41-6.09a2.77 2.77 0 0 1 2.12.88l.63-4.53zm-7 9.48c0 1.3.41 1.69 1 1.69.79 0 1.43-.79 2-1.71l.49-3.44a1.54 1.54 0 0 0-1.29-.65c-1.74 0-2.2 2.58-2.2 4.11zm16.54-2.52c0 2.66-1.11 6.22-5.38 6.22a10.2 10.2 0 0 1-3.78-.76l1.73-12.42 2.73-.3-.66 4.74a3.69 3.69 0 0 1 2.53-1.07c1.84 0 2.83 1.27 2.83 3.59zm-5.64-.52l-.62 4.52a3 3 0 0 0 1.16.22c1.72 0 2.33-2.43 2.33-4.17 0-1.28-.49-1.63-1.1-1.63a2.31 2.31 0 0 0-1.77 1.06zm15.6-2.1l-.86 5.9c-.06.61 0 .93.46 1.12l-.79 1.77a2.21 2.21 0 0 1-2.13-1.49 3.26 3.26 0 0 1-2.74 1.58c-1.95 0-3-1.44-3-3.67 0-2.63 1.39-6.14 5.28-6.14a7.81 7.81 0 0 1 3.78.93zm-6.26 5.16c0 1.3.44 1.67 1 1.67s1.23-.49 1.75-1.29l.64-4.39a2.84 2.84 0 0 0-1-.18c-1.76 0-2.39 2.4-2.39 4.19zm15.27-4.95l-1.34 1.56a2.18 2.18 0 0 0-1.6-.64c-1.87 0-2.34 2.27-2.34 3.84 0 1.3.57 1.7 1.44 1.7a3.35 3.35 0 0 0 1.83-.64l1 1.75a5.16 5.16 0 0 1-3.18 1.06 3.65 3.65 0 0 1-3.92-4c0-2.39 1.41-5.83 5.16-5.83a4 4 0 0 1 2.95 1.2zm3.8.31a3.91 3.91 0 0 1 3.06-1.49 2.21 2.21 0 0 1 2.48 2.2c0 1.43-.81 2.54-2.52 3.22l1.72 4.09h-3l-1.68-4.44c2-.66 2.67-1.43 2.67-2.4a.69.69 0 0 0-.78-.76c-.71 0-1.56.55-2.33 1.89l-.78 5.71h-2.71l1.81-12.88 2.74-.3z" class="ea54ca59-e3c3-4ef5-b4dd-48371fa40f60"/></g><path d="M35.21 15.88v10.69a19.89 19.89 0 0 1 2.72.16V15.88a4.67 4.67 0 0 0-4.67-4.66h-7.88v.58c0 .7 0 1.41-.05 2.13h7.94a2 2 0 0 1 1.94 1.95zM13.1 32.31a1.25 1.25 0 0 1 .49-.14V15.88a2 2 0 0 1 1.95-2h3.83a21.59 21.59 0 0 1-.15-2.71h-3.68a4.66 4.66 0 0 0-4.66 4.66v17.83a22.44 22.44 0 0 1 2.22-1.35zm22.11 1.29a2 2 0 0 1-2 2H17.33c-.63 1-1.24 1.91-1.83 2.71h17.76a4.67 4.67 0 0 0 4.66-4.58 16 16 0 0 1-2.71-.52z" class="e1324778-9de1-4564-bb0b-00d2f36507b8"/><path d="M40.84 29.19c-1.17-1.18-4.71-1.55-9.49-1a23 23 0 0 1-2.86-1.92c-1.2-1-3.37-3.3-5-8.06a38.53 38.53 0 0 0 .51-6.45v-1l.11-.56a2.55 2.55 0 0 0-.25-2.13 1.3 1.3 0 0 0-1.05-.42h-.71c-.57 0-1 .44-1.24 1.18-.55 2.09-.28 5.68.7 9.13.05.14.08.28.12.42a52.24 52.24 0 0 1-3.49 8.83 61.65 61.65 0 0 1-6.14 10.42 7.13 7.13 0 0 1-3 2.52 7.23 7.23 0 0 1 1.33-2.33 19.63 19.63 0 0 1 3.74-3.65l-.42-.67c-4.07 2.16-5.87 4.68-6.18 6.18a1.23 1.23 0 0 0 .15 1v.06h.08l.83.42a1.76 1.76 0 0 0 .84.2c1.94 0 4.56-2.87 8-8.71a59.47 59.47 0 0 1 13-2.78h.28a19.61 19.61 0 0 0 8.1 2.45 4.1 4.1 0 0 0 1.31-.18l.18-.07.49-.38a1.11 1.11 0 0 0 .2-.43l.13-.28a1.56 1.56 0 0 0-.27-1.79zM22.48 9.08a2 2 0 0 1 .19-.39 2.19 2.19 0 0 1 .66 1.48l.05.53h-.13c-.08.38-.15.85-.22 1.4s-.24 1.56-.43 2.56a12.49 12.49 0 0 1-.12-5.58zm-4.35 22.47c.55-1 1.13-2.07 1.72-3.22a40.86 40.86 0 0 0 2.93-7 17.45 17.45 0 0 0 4.38 6.24 13.59 13.59 0 0 0 1.32 1 51.71 51.71 0 0 0-10.35 2.98zm22.23-.7c-.9.35-3.26-.11-5.91-1.2 2.84-.07 4.89.18 5.66.75.27.23.26.38.25.45z" class="e1324778-9de1-4564-bb0b-00d2f36507b8"/></g></g></svg>