<svg xmlns="http://www.w3.org/2000/svg" viewBox="0 0 173.5 49.1" width="173.5" height="49.1"><defs><style>.b5d1421a-1bee-419d-a4a3-1b0708fdf398{fill:none;stroke:#2997ff;stroke-miterlimit:10;stroke-width:2px}.ac48b687-c619-4779-a659-9b5bf6709db9{isolation:isolate}.e5eb4f54-25ee-4c20-83ad-c244e07f9485{fill:#505050}.af1c3703-8b77-45c6-a01c-fdcf8dcf5dc0{fill:#2997ff}</style></defs><g id="a628c07d-118a-46cc-873e-8f34b1c16a14"><g id="fa8151ea-8751-4649-a5ac-cf3583669348"><path d="M168.5 48.1H5a4 4 0 0 1-4-4V5a4 4 0 0 1 4-4h163.5a4 4 0 0 1 4 4v39.2a4.13 4.13 0 0 1-4 3.9z" class="b5d1421a-1bee-419d-a4a3-1b0708fdf398"/><g class="ac48b687-c619-4779-a659-9b5bf6709db9"><g class="ac48b687-c619-4779-a659-9b5bf6709db9"><path d="M65.11 8.65l-1.49 1.5a3.32 3.32 0 0 0-2.43-1c-1.1 0-1.83.5-1.83 1.34 0 .69.46 1 2 1.54 1.94.64 3.09 1.58 3.09 3.42 0 2-1.37 4.24-5.14 4.24A5.72 5.72 0 0 1 55 17.94l1.62-1.59a3.75 3.75 0 0 0 2.83 1.18c1.32 0 2.12-.61 2.12-1.63 0-.79-.47-1.2-1.9-1.71-2.27-.76-3.19-1.77-3.19-3.36 0-1.83 1.46-3.76 4.67-3.76a5.35 5.35 0 0 1 3.96 1.58zm.56 8.11l.94-6.58h2.69l-.85 6.15c-.14.92.12 1.2.61 1.2s1.26-.7 1.77-1.46l.81-5.89h2.69l-1.28 9.22h-2.33v-1.37a3.69 3.69 0 0 1-2.91 1.67c-1.65 0-2.38-1.15-2.14-2.94zm18.72-3.28c0 2.66-1.11 6.22-5.38 6.22a10 10 0 0 1-3.79-.77L77 6.52l2.72-.3L79 11a3.73 3.73 0 0 1 2.54-1.07c1.86-.04 2.85 1.26 2.85 3.55zM78.75 13l-.63 4.52a3 3 0 0 0 1.16.22c1.72 0 2.33-2.43 2.33-4.17 0-1.28-.49-1.63-1.09-1.63A2.3 2.3 0 0 0 78.75 13zm19.84-.3l-.93 6.7H95l.87-6.09c.14-1-.14-1.18-.5-1.18-.62 0-1.25.87-1.81 2.1l-.73 5.17H90.1l.9-6.09c.14-1-.15-1.18-.52-1.18-.61 0-1.27.88-1.79 2.17L88 19.4h-2.74l1.28-9.22h2.35l-.06 1.51a3.51 3.51 0 0 1 2.89-1.8 1.9 1.9 0 0 1 2 1.72 3.62 3.62 0 0 1 2.88-1.72c1.4 0 2.24 1.11 1.99 2.81zm3.79 6.7h-2.69l1.31-9.22h2.7zm-1.21-12.34A1.72 1.72 0 0 1 103 5.34a1.35 1.35 0 0 1 1.45 1.37 1.74 1.74 0 0 1-1.79 1.74 1.35 1.35 0 0 1-1.49-1.39zm6.68 9.29c-.12.88.11 1.18.63 1.18a2.36 2.36 0 0 0 1-.3l.71 1.79a5.24 5.24 0 0 1-2.52.68c-1.91 0-2.86-1.2-2.57-3.35l.61-4.26h-1.27l.26-1.91h1.39l.58-2 2.33-.31-.33 2.31h2.12l-.57 1.91h-1.81zm16.2-5.49l-.85 5.9c-.07.61 0 .92.45 1.12l-.78 1.77a2.2 2.2 0 0 1-2.13-1.53A3.28 3.28 0 0 1 118 19.7c-1.94 0-3-1.44-3-3.67 0-2.63 1.39-6.14 5.28-6.14a7.78 7.78 0 0 1 3.77.97zM117.8 16c0 1.3.44 1.66 1 1.66a2.27 2.27 0 0 0 1.76-1.28l.64-4.39a2.84 2.84 0 0 0-1-.18c-1.77.02-2.4 2.42-2.4 4.19zm21.07-5.28c0 2.21-1.39 4.67-5.3 4.67h-1.32l-.55 4h-2.8l1.68-12h3.82c2.8-.02 4.47 1.09 4.47 3.33zm-2.9.14c0-1-.63-1.46-1.84-1.46h-1l-.55 3.94h1a2.23 2.23 0 0 0 2.42-2.48zm13.59 1.08c0 3.9-1.66 7.46-6.8 7.46h-3.6l1.69-12h3.26c2.89-.03 5.45.82 5.45 4.54zm-6.19-2.5l-1.12 7.91h.92c2.83 0 3.53-3.07 3.53-5.41 0-2.07-1-2.5-2.41-2.5zm15.12-.04h-4l-.45 3.2h3.48l-.28 2h-3.47l-.68 4.77h-2.8l1.69-12h7.06z" class="e5eb4f54-25ee-4c20-83ad-c244e07f9485"/></g><g class="ac48b687-c619-4779-a659-9b5bf6709db9"><path d="M65.11 29.45L63.62 31a3.32 3.32 0 0 0-2.43-1c-1.1 0-1.83.5-1.83 1.34 0 .69.46 1 2 1.54 1.94.64 3.09 1.58 3.09 3.42 0 2-1.37 4.24-5.14 4.24a5.72 5.72 0 0 1-4.31-1.8l1.62-1.59a3.75 3.75 0 0 0 2.83 1.18c1.32 0 2.12-.61 2.12-1.63 0-.79-.47-1.2-1.9-1.71-2.27-.76-3.19-1.77-3.19-3.36 0-1.83 1.46-3.76 4.67-3.76a5.35 5.35 0 0 1 3.96 1.58zm3.65 7.7c-.12.88.1 1.18.62 1.18a2.4 2.4 0 0 0 1.05-.3l.71 1.79a5.27 5.27 0 0 1-2.52.68c-1.91 0-2.86-1.2-2.57-3.35l.61-4.26h-1.27l.26-1.89H67l.57-2.05 2.33-.26-.29 2.31h2.12l-.57 1.91h-1.81zm8.18 3.09a6.14 6.14 0 0 1-5.71 3.82l-.07-1.93c1.8-.22 2.55-.73 3.24-1.93h-1L72 31h2.82l.6 7.45L78.19 31H81zm6.65-2.52c0 .45.09.61.37.61a1.5 1.5 0 0 0 .45-.09l.33 1.91a4.4 4.4 0 0 1-1.74.35c-1.55 0-2.36-.94-2.1-2.71l1.48-10.47 2.7-.3zm4.74-.87A1.49 1.49 0 0 0 90 38.48a4.09 4.09 0 0 0 2.35-.85l1 1.64a6.2 6.2 0 0 1-3.67 1.23c-2.69 0-4-1.56-4-3.91 0-2.5 1.36-5.9 5.23-5.9 2.24 0 3.4 1.13 3.4 2.52-.06 2.58-3.08 3.35-5.98 3.64zm3.2-3.52a.78.78 0 0 0-.89-.82c-1.32 0-1.94 1.36-2.19 2.67 2.31-.18 3.08-.98 3.08-1.85zM108 30.36h-2.92l-1.38 9.84h-2.79l1.38-9.84h-3.07l.31-2.19h9.08zm2.67 9.84H108l1.26-9.2H112zm-1.22-12.34a1.72 1.72 0 0 1 1.79-1.72 1.34 1.34 0 0 1 1.44 1.37 1.73 1.73 0 0 1-1.79 1.74 1.35 1.35 0 0 1-1.44-1.39zm6.27 9.86c0 .45.09.61.36.61a1.5 1.5 0 0 0 .46-.09l.33 1.91a4.4 4.4 0 0 1-1.74.35c-1.55 0-2.36-.94-2.1-2.71l1.47-10.47 2.71-.3zm4.74-.87a1.49 1.49 0 0 0 1.65 1.63 4 4 0 0 0 2.34-.85l1 1.64a6.2 6.2 0 0 1-3.67 1.23c-2.69 0-4-1.56-4-3.91 0-2.5 1.36-5.9 5.23-5.9 2.24 0 3.4 1.13 3.4 2.52-.03 2.58-3.05 3.35-5.95 3.64zm3.19-3.52a.78.78 0 0 0-.88-.82c-1.32 0-2 1.36-2.19 2.67 2.31-.18 3.07-.98 3.07-1.85z" class="e5eb4f54-25ee-4c20-83ad-c244e07f9485"/></g></g><path d="M35.2 15.9v10.7a11.84 11.84 0 0 1 2.7.2V15.9a4.69 4.69 0 0 0-4.7-4.7h-7.9v.6a14.77 14.77 0 0 1-.1 2.1h7.9a2 2 0 0 1 2.1 2zM13.1 32.3a.9.9 0 0 1 .5-.1V15.9a2 2 0 0 1 2-2h3.8a12.64 12.64 0 0 1-.1-2.7h-3.7a4.69 4.69 0 0 0-4.7 4.7v17.8a21.08 21.08 0 0 1 2.2-1.4zm22.1 1.3a2 2 0 0 1-2 2H17.3a31.61 31.61 0 0 1-1.8 2.7h17.7a4.74 4.74 0 0 0 4.7-4.6c-.8-.1-1.7-.3-2.7-.5z" class="af1c3703-8b77-45c6-a01c-fdcf8dcf5dc0"/><path d="M40.8 29.2c-1.2-1.2-4.7-1.6-9.5-1a29 29 0 0 1-2.9-1.9c-1.2-1-3.4-3.3-5-8.1a49.8 49.8 0 0 0 .5-6.4v-1l.1-.6a2.68 2.68 0 0 0-.2-2.1 1.48 1.48 0 0 0-1.1-.4H22q-.9 0-1.2 1.2c-.6 2.1-.3 5.7.7 9.1 0 .1.1.3.1.4a53 53 0 0 1-3.5 8.8A58 58 0 0 1 12 37.6c-1.2 1.4-2.2 2.3-3 2.5a6.16 6.16 0 0 1 1.3-2.3 21.58 21.58 0 0 1 3.7-3.7l-.4-.7c-4.1 2.2-5.9 4.7-6.2 6.2a1.45 1.45 0 0 0 .1 1l.1.1h.1l.8.4a2.35 2.35 0 0 0 .8.2c1.9 0 4.6-2.9 7.9-8.7a57 57 0 0 1 13-2.8h.3a20.08 20.08 0 0 0 8.1 2.4 4.44 4.44 0 0 0 1.3-.2c.1 0 .1 0 .2-.1l.5-.4a.76.76 0 0 0 .2-.4l.1-.3a1 1 0 0 0-.1-1.6zM22.5 9.1a.76.76 0 0 1 .2-.4 1.9 1.9 0 0 1 .7 1.5l.1.5h-.1c-.1.4-.1.9-.2 1.4-.1.7-.2 1.6-.4 2.6a11.1 11.1 0 0 1-.3-5.6zm-4.4 22.5c.6-1 1.1-2.1 1.7-3.2a40.34 40.34 0 0 0 2.9-7 16.44 16.44 0 0 0 4.4 6.2 11.32 11.32 0 0 0 1.3 1 50.89 50.89 0 0 0-10.3 3zm22.3-.8c-.9.4-3.3-.1-5.9-1.2 2.8-.1 4.9.2 5.7.7a1 1 0 0 1 .2.5z" class="af1c3703-8b77-45c6-a01c-fdcf8dcf5dc0"/></g></g></svg>