<svg xmlns="http://www.w3.org/2000/svg" viewBox="0 0 240 65.91" width="240" height="65.91"><defs><style>.b182f04e-4192-414c-a728-2ce9a3555997{fill:#2997ff}.ff3f20c4-8dee-40b5-9aeb-efe63bedf550{isolation:isolate}.f9c00dbb-cbf0-4bc1-93fe-384a401165b3{fill:#505050}</style></defs><g id="f8a5ddee-3c06-43c6-91d8-a937678c1a05"><g id="ad374df9-a24c-48cf-9429-db368081ed61"><path d="M234.4 3a2.61 2.61 0 0 1 2.6 2.6v54.77a2.8 2.8 0 0 1-2.6 2.54H5.6a2.6 2.6 0 0 1-2.6-2.6V5.6A2.61 2.61 0 0 1 5.6 3h228.8m0-3H5.6A5.62 5.62 0 0 0 0 5.6v54.71a5.62 5.62 0 0 0 5.6 5.6h228.8a5.78 5.78 0 0 0 5.6-5.46V5.6a5.62 5.62 0 0 0-5.6-5.6z" class="b182f04e-4192-414c-a728-2ce9a3555997"/><g class="ff3f20c4-8dee-40b5-9aeb-efe63bedf550"><path d="M89.72 10.71l-2.09 2.09a4.68 4.68 0 0 0-3.4-1.39c-1.53 0-2.55.71-2.55 1.87 0 1 .63 1.44 2.82 2.17 2.72.9 4.32 2.21 4.32 4.79 0 2.79-1.92 5.93-7.19 5.93a8.05 8.05 0 0 1-6.13-2.46l2.26-2.23a5.25 5.25 0 0 0 4 1.65c1.84 0 3-.85 3-2.29 0-1.09-.65-1.67-2.65-2.38-3.18-1.07-4.47-2.48-4.47-4.71 0-2.56 2-5.25 6.54-5.25a7.44 7.44 0 0 1 5.54 2.21zm.78 11.35l1.31-9.21h3.77l-1.19 8.6c-.2 1.29.17 1.68.85 1.68.9 0 1.77-1 2.48-2l1.14-8.24h3.77l-1.8 12.9h-3.26l.07-1.92a5.19 5.19 0 0 1-4.08 2.34c-2.38-.04-3.4-1.65-3.06-4.15zm26.2-4.59c0 3.71-1.56 8.7-7.54 8.7a14.12 14.12 0 0 1-5.29-1.07l2.43-17.38 3.81-.41-.92 6.63a5.15 5.15 0 0 1 3.55-1.51c2.57 0 3.96 1.83 3.96 5.04zm-7.9-.73l-.88 6.32a4.38 4.38 0 0 0 1.63.31c2.41 0 3.26-3.4 3.26-5.83 0-1.8-.68-2.29-1.53-2.29a3.22 3.22 0 0 0-2.48 1.49zm27.78-.37l-1.31 9.38h-3.77l1.22-8.53c.19-1.36-.2-1.65-.71-1.65-.87 0-1.75 1.22-2.53 2.94l-1 7.24h-3.77l1.22-8.53c.19-1.36-.22-1.65-.73-1.65-.85 0-1.77 1.24-2.5 3l-1 7.14h-3.77l1.8-12.9H123l-.08 2.19a4.92 4.92 0 0 1 4-2.53 2.66 2.66 0 0 1 2.82 2.41 5.1 5.1 0 0 1 4-2.41c2.04-.04 3.18 1.45 2.84 3.9zm5.3 9.38h-3.77l1.8-12.9h3.76zm-1.71-17.28a2.41 2.41 0 0 1 2.51-2.4 1.88 1.88 0 0 1 2 1.92 2.43 2.43 0 0 1-2.51 2.43 1.9 1.9 0 0 1-2-1.95zm9.36 13.01c-.17 1.24.15 1.65.88 1.65a3.39 3.39 0 0 0 1.45-.41l1 2.5a7.33 7.33 0 0 1-3.52 1c-2.68 0-4-1.68-3.6-4.69l.85-6h-1.78l.37-2.67h1.94l.81-2.87 3.25-.37-.46 3.24h3l-.8 2.67h-2.53zm22.68-7.68L171 22.06c-.1.85-.08 1.29.63 1.56l-1.09 2.47a3.08 3.08 0 0 1-3-2.13 4.57 4.57 0 0 1-3.84 2.21c-2.72 0-4.18-2-4.18-5.13 0-3.7 2-8.61 7.39-8.61a10.89 10.89 0 0 1 5.3 1.37zm-8.75 7.2c0 1.83.6 2.34 1.46 2.34s1.72-.68 2.45-1.8l.9-6.15a4 4 0 0 0-1.43-.24c-2.51.01-3.38 3.36-3.38 5.85zm29.48-7.4c0 3.09-1.95 6.54-7.42 6.54h-1.84l-.78 5.61H179l2.35-16.84h5.35c3.9 0 6.24 1.56 6.24 4.69zm-4.06.2c0-1.44-.88-2.05-2.58-2.05h-1.43l-.78 5.52h1.43c2.73 0 3.36-1.97 3.36-3.47zm19.03 1.5c0 5.47-2.34 10.45-9.53 10.45h-5l2.36-16.84h4.57c3.98 0 7.6 1.19 7.6 6.39zm-8.68-3.5l-1.55 11.09H199c4 0 4.94-4.31 4.94-7.59 0-2.89-1.44-3.5-3.38-3.5zm21.17-.05h-5.57l-.63 4.48h4.86l-.39 2.84h-4.86l-.95 6.68H209l2.36-16.84h9.89z" class="f9c00dbb-cbf0-4bc1-93fe-384a401165b3"/></g><g class="ff3f20c4-8dee-40b5-9aeb-efe63bedf550"><path d="M89.72 39.82l-2.09 2.09a4.68 4.68 0 0 0-3.4-1.39c-1.53 0-2.55.71-2.55 1.87 0 1 .63 1.44 2.82 2.17 2.72.9 4.32 2.21 4.32 4.79 0 2.79-1.92 5.93-7.19 5.93a8.05 8.05 0 0 1-6.13-2.46l2.26-2.24a5.22 5.22 0 0 0 4 1.66c1.84 0 3-.85 3-2.29 0-1.09-.65-1.67-2.65-2.38-3.18-1.07-4.47-2.48-4.47-4.71 0-2.56 2-5.25 6.54-5.25a7.44 7.44 0 0 1 5.54 2.21zm5.11 10.76c-.18 1.24.14 1.66.87 1.66a3.35 3.35 0 0 0 1.46-.42l1 2.51a7.37 7.37 0 0 1-3.53 1c-2.67 0-4-1.68-3.6-4.7l.85-5.95h-1.77l.36-2.68h2l.8-2.87 3.26-.37L96 42h3l-.8 2.67h-2.55zm11.44 4.33a8.55 8.55 0 0 1-8 5.35l-.1-2.7c2.53-.32 3.57-1 4.54-2.7h-1.33L99.32 42h3.94l.85 10.42L108 42h4zm9.31-3.52c-.07.63.12.85.51.85a2 2 0 0 0 .63-.12l.46 2.67a6.1 6.1 0 0 1-2.43.49c-2.16 0-3.3-1.32-2.94-3.8l2.07-14.65 3.79-.42zm6.63-1.22a2.1 2.1 0 0 0 2.31 2.29 5.78 5.78 0 0 0 3.29-1.19l1.36 2.28a8.69 8.69 0 0 1-5.17 1.73c-3.77 0-5.62-2.19-5.62-5.47 0-3.5 1.9-8.27 7.32-8.27 3.14 0 4.76 1.58 4.76 3.53.04 3.62-4.19 4.69-8.25 5.1zm4.48-4.93a1.1 1.1 0 0 0-1.24-1.15c-1.85 0-2.72 1.9-3.06 3.75 3.23-.22 4.3-1.39 4.3-2.6zm23.06-4.16h-4.08l-1.95 13.78h-3.91l1.94-13.78h-4.3l.44-3.06h12.71zm3.72 13.78h-3.77L151.5 42h3.77zm-1.7-17.28a2.4 2.4 0 0 1 2.5-2.41 1.88 1.88 0 0 1 2 1.92 2.43 2.43 0 0 1-2.51 2.44 1.9 1.9 0 0 1-1.99-1.95zm8.77 13.81c-.07.63.12.85.51.85a2 2 0 0 0 .63-.12l.46 2.67a6.1 6.1 0 0 1-2.43.49c-2.16 0-3.3-1.32-2.94-3.8l2.07-14.65 3.79-.42zm6.64-1.22a2.09 2.09 0 0 0 2.3 2.29 5.78 5.78 0 0 0 3.29-1.19l1.36 2.28a8.69 8.69 0 0 1-5.13 1.73c-3.77 0-5.62-2.19-5.62-5.47 0-3.5 1.9-8.27 7.32-8.27 3.14 0 4.76 1.58 4.76 3.53 0 3.62-4.23 4.69-8.28 5.1zm4.47-4.93a1.1 1.1 0 0 0-1.24-1.15c-1.85 0-2.72 1.9-3.06 3.75 3.23-.22 4.3-1.39 4.3-2.6z" class="f9c00dbb-cbf0-4bc1-93fe-384a401165b3"/></g><path d="M47.86 20.85v15a17.18 17.18 0 0 1 3.78.27V20.85a6.57 6.57 0 0 0-6.58-6.58H34v.84a20.68 20.68 0 0 1-.14 2.94h11.06a2.84 2.84 0 0 1 2.94 2.8zM16.93 43.8a1.26 1.26 0 0 1 .7-.14V20.85a2.81 2.81 0 0 1 2.8-2.8h5.32a17.69 17.69 0 0 1-.14-3.78h-5.18a6.57 6.57 0 0 0-6.58 6.58v24.91a29.51 29.51 0 0 1 3.08-1.96zm30.93 1.82a2.81 2.81 0 0 1-2.8 2.8H22.81a44.26 44.26 0 0 1-2.52 3.78h24.77a6.63 6.63 0 0 0 6.58-6.44c-1.12-.14-2.38-.42-3.78-.7z" class="b182f04e-4192-414c-a728-2ce9a3555997"/><path d="M55.7 39.46c-1.68-1.68-6.58-2.24-13.3-1.4a42.3 42.3 0 0 1-4.06-2.65c-1.68-1.4-4.75-4.62-7-11.34a69.72 69.72 0 0 0 .7-9v-1.4l.14-.84a3.74 3.74 0 0 0-.28-2.93 2.08 2.08 0 0 0-1.54-.56h-1q-1.26 0-1.68 1.68c-.84 2.93-.42 8 1 12.73 0 .14.14.42.14.56a73.75 73.75 0 0 1-4.9 12.31c-3.36 6.86-6.16 11.62-8.54 14.56-1.68 2-3.08 3.22-4.19 3.5A8.71 8.71 0 0 1 13 51.5a30.22 30.22 0 0 1 5.18-5.18l-.56-1C11.9 48.42 9.38 51.92 9 54a2 2 0 0 0 .14 1.4l.14.14h.14l1.12.56a3.29 3.29 0 0 0 1.12.28c2.65 0 6.43-4.06 11.05-12.18a79.8 79.8 0 0 1 18.15-3.9h.42c4.06 2.1 8.54 3.36 11.34 3.36a6.21 6.21 0 0 0 1.82-.28c.14 0 .14 0 .28-.14l.7-.56a1.06 1.06 0 0 0 .28-.56l.14-.42a1.46 1.46 0 0 0-.14-2.24zM30.09 11.34a1.06 1.06 0 0 1 .28-.56 2.65 2.65 0 0 1 1 2.09l.14.7h-.14c-.14.56-.14 1.26-.28 2-.14 1-.28 2.24-.56 3.64-.86-3.4-1-6.34-.44-7.87zm-6.16 31.48c.84-1.4 1.54-2.94 2.38-4.48a56.11 56.11 0 0 0 4.06-9.79 23 23 0 0 0 6.15 8.67 15.85 15.85 0 0 0 1.82 1.4 71.34 71.34 0 0 0-14.41 4.2zm31.21-1.12c-1.26.56-4.62-.14-8.26-1.68 3.92-.14 6.86.28 8 1a1.41 1.41 0 0 1 .26.68z" class="b182f04e-4192-414c-a728-2ce9a3555997"/></g></g></svg>