<svg xmlns="http://www.w3.org/2000/svg" viewBox="0 0 152.8 31.3"><defs><style>.bf6073bf-eee6-4498-9964-31f375ad0fd2{fill:none;stroke:#2997ff;stroke-miterlimit:10;stroke-width:2px;}.a2487b2b-46cb-4051-af56-3ac4ddc0ee8a{fill:#505050;}.a4f8fad9-286b-433b-9c23-d4f759b9dbbe{fill:#2997ff;}</style></defs><g id="a70aa4e3-9fa0-418b-9c8b-0f208c8923d4" data-name="Layer 2"><g id="a8246d7a-be40-4df5-95d1-8dab595a319b" data-name="Layer 1"><path class="bf6073bf-eee6-4498-9964-31f375ad0fd2" d="M147.8,30.3H5a4,4,0,0,1-4-4V5A4,4,0,0,1,5,1H147.8a4,4,0,0,1,4,4V26.4A4.13,4.13,0,0,1,147.8,30.3Z"/><path class="a2487b2b-46cb-4051-af56-3ac4ddc0ee8a" d="M51.05,15.29c0,3.46-1.48,6.61-6,6.61H41.85l1.49-10.65h2.88C48.76,11.25,51.05,12,51.05,15.29Zm-5.49-2.21-1,7h.81c2.51,0,3.12-2.71,3.12-4.79,0-1.83-.9-2.21-2.13-2.21Z"/><path class="a2487b2b-46cb-4051-af56-3ac4ddc0ee8a" d="M51.42,18.69c0-2.28,1.1-5.21,4.55-5.21A3.16,3.16,0,0,1,59.38,17c0,2.24-1.12,5.21-4.55,5.21A3.15,3.15,0,0,1,51.42,18.69Zm5.51-1.89c0-1.08-.38-1.54-1.13-1.54-1.62,0-1.94,2.34-1.94,3.58,0,1.08.37,1.54,1.14,1.54C56.6,20.38,56.92,18,56.93,16.8Z"/><path class="a2487b2b-46cb-4051-af56-3ac4ddc0ee8a" d="M68.55,21.9H65.72l-.23-6-1.9,6H60.75l-.57-8.16h2.39l0,6.34,2.13-6.34H67l.22,6.34,1.86-6.34h2.29Z"/><path class="a2487b2b-46cb-4051-af56-3ac4ddc0ee8a" d="M78.66,16l-.81,5.9H75.47l.75-5.4c.12-.82-.12-1-.48-1-.61,0-1.23.8-1.79,1.95L73.3,21.9H70.92l1.14-8.16h2.07l0,1.43a3.48,3.48,0,0,1,2.79-1.69C78.17,13.48,78.89,14.42,78.66,16Z"/><path class="a2487b2b-46cb-4051-af56-3ac4ddc0ee8a" d="M81.94,19.7c0,.4.07.54.32.54a1.14,1.14,0,0,0,.4-.08L83,21.85a3.92,3.92,0,0,1-1.54.31c-1.36,0-2.09-.83-1.86-2.4l1.31-9.26,2.4-.26Z"/><path class="a2487b2b-46cb-4051-af56-3ac4ddc0ee8a" d="M83.44,18.69c0-2.28,1.11-5.21,4.55-5.21A3.15,3.15,0,0,1,91.4,17c0,2.24-1.12,5.21-4.55,5.21A3.16,3.16,0,0,1,83.44,18.69ZM89,16.8c0-1.08-.38-1.54-1.14-1.54-1.61,0-1.93,2.34-1.93,3.58,0,1.08.36,1.54,1.13,1.54C88.62,20.38,88.94,18,89,16.8Z"/><path class="a2487b2b-46cb-4051-af56-3ac4ddc0ee8a" d="M99.93,14.34l-.75,5.22c-.06.54-.05.82.4,1l-.69,1.56A1.92,1.92,0,0,1,97,20.76a2.88,2.88,0,0,1-2.43,1.4c-1.72,0-2.65-1.28-2.65-3.24,0-2.34,1.23-5.44,4.68-5.44A6.83,6.83,0,0,1,99.93,14.34ZM94.4,18.9c0,1.15.38,1.48.92,1.48s1.09-.43,1.55-1.14l.57-3.89a2.67,2.67,0,0,0-.91-.15C95,15.2,94.4,17.32,94.4,18.9Z"/><path class="a2487b2b-46cb-4051-af56-3ac4ddc0ee8a" d="M109.1,10.5l-1.59,11.4h-2.12V20.73A2.91,2.91,0,0,1,103,22.16c-1.7,0-2.56-1.24-2.56-3.29,0-2.23,1.12-5.39,3.9-5.39a2.43,2.43,0,0,1,1.87.78l.56-4Zm-6.22,8.39c0,1.15.37,1.49.89,1.49.69,0,1.26-.69,1.77-1.51l.43-3a1.38,1.38,0,0,0-1.14-.58C103.31,15.25,102.88,17.53,102.88,18.89Z"/><path class="a2487b2b-46cb-4051-af56-3ac4ddc0ee8a" d="M119.54,13.05H116l-.4,2.83h3.07l-.24,1.79h-3.07l-.6,4.23H112.3l1.49-10.65h6.26Z"/><path class="a2487b2b-46cb-4051-af56-3ac4ddc0ee8a" d="M121.24,21.9h-2.38L120,13.74h2.38ZM120.17,11a1.52,1.52,0,0,1,1.58-1.52A1.19,1.19,0,0,1,123,10.67a1.53,1.53,0,0,1-1.59,1.53A1.2,1.2,0,0,1,120.17,11Z"/><path class="a2487b2b-46cb-4051-af56-3ac4ddc0ee8a" d="M125.41,19.7c0,.4.08.54.32.54a1.14,1.14,0,0,0,.4-.08l.29,1.69a3.87,3.87,0,0,1-1.53.31c-1.37,0-2.09-.83-1.86-2.4l1.3-9.26,2.4-.26Z"/><path class="a2487b2b-46cb-4051-af56-3ac4ddc0ee8a" d="M129.3,18.93a1.33,1.33,0,0,0,1.46,1.45,3.6,3.6,0,0,0,2.07-.76l.86,1.45a5.51,5.51,0,0,1-3.24,1.09,3.19,3.19,0,0,1-3.55-3.46c0-2.21,1.2-5.22,4.62-5.22,2,0,3,1,3,2.23C134.54,18,131.86,18.67,129.3,18.93Zm2.82-3.12a.69.69,0,0,0-.78-.72c-1.17,0-1.72,1.2-1.94,2.37C131.45,17.32,132.12,16.58,132.12,15.81Z"/><path class="a2487b2b-46cb-4051-af56-3ac4ddc0ee8a" d="M141.51,14.52l-1.06,1.31a3.46,3.46,0,0,0-1.92-.63c-.72,0-1.09.28-1.09.68s.34.56,1.58,1,2.12,1.2,2.12,2.48c0,1.52-1.15,2.84-3.65,2.84a4.65,4.65,0,0,1-3.4-1.34l1.21-1.26a3.28,3.28,0,0,0,2.2.86c.86,0,1.26-.37,1.26-.81s-.32-.69-1.61-1.14-2.08-1.15-2.08-2.36c0-1.4,1.2-2.63,3.45-2.63A4.56,4.56,0,0,1,141.51,14.52Z"/><path class="a4f8fad9-286b-433b-9c23-d4f759b9dbbe" d="M27.88,13.79a7.49,7.49,0,0,0-15,0,5.5,5.5,0,0,0,1,10.91h13a5.5,5.5,0,0,0,1-10.91ZM20.4,20.7l-4-4h3v-4h2v4h3Z"/></g></g></svg>