<svg xmlns="http://www.w3.org/2000/svg" id="Layer_1" viewBox="0 0 152.8 31.3" width="152.8" height="31.3"><style>.st0{fill:#2997ff}.st1{fill:#505050}</style><g id="bc841aa8-87ff-4956-9235-2005a87c5ee6"><path id="a1acd6d8-3951-41aa-9f7a-324ca1f4d39d" d="M147.8 31.3H5c-2.8 0-5-2.2-5-5V5c0-2.8 2.2-5 5-5h142.8c2.8 0 5 2.2 5 5v21.4c-.1 2.7-2.3 4.8-5 4.9zM5 2C3.3 2 2 3.3 2 5v21.3c0 1.7 1.3 3 3 3h142.8c1.6-.1 2.9-1.3 3-3V5c0-1.7-1.3-3-3-3H5z" class="st0"/></g><path d="M50.7 10.9l-1.6 1.6c-.8-.7-1.6-1-2.6-1-1.2 0-1.9.5-1.9 1.4 0 .7.5 1.1 2.1 1.6 2 .7 3.3 1.7 3.3 3.6 0 2.1-1.4 4.5-5.4 4.5-2.2 0-3.7-.8-4.6-1.8l1.7-1.7c.8.8 1.7 1.2 3 1.2 1.4 0 2.2-.6 2.2-1.7 0-.8-.5-1.3-2-1.8-2.4-.8-3.4-1.9-3.4-3.5 0-1.9 1.5-4 4.9-4 1.9-.1 3.3.5 4.3 1.6zm.2 8.5l1-6.9h2.8l-.8 6.5c-.1 1 .1 1.3.6 1.3.7 0 1.3-.7 1.9-1.5l.9-6.2h2.8l-1.4 9.7h-2.5l.1-1.4c-.8 1.1-1.8 1.8-3.1 1.8-1.7-.2-2.5-1.4-2.3-3.3zM70.3 16c0 2.8-1.2 6.5-5.7 6.5-1.4 0-2.7-.3-4-.8l1.8-13.1 2.9-.3-.7 5c.7-.7 1.7-1.1 2.7-1.1 2 0 3 1.4 3 3.8zm-5.9-.6l-.7 4.8c.4.1.7.2 1.2.2 1.8 0 2.5-2.6 2.5-4.4 0-1.4-.5-1.7-1.2-1.7s-1.3.4-1.8 1.1zm20.5-.2l-1 7.1h-2.8l.9-6.4c.1-1-.1-1.2-.5-1.2-.7 0-1.3.9-1.9 2.2l-.8 5.5H76l.9-6.4c.1-1-.2-1.2-.5-1.2-.6 0-1.3.9-1.9 2.3l-.8 5.4h-2.8l1.4-9.7h2.5l-.1 1.6c.8-1.2 1.8-1.9 3-1.9 1.1 0 1.9.6 2.1 1.8.8-1.1 1.9-1.8 3-1.8 1.5-.3 2.4.8 2.1 2.7zm3.6 7h-2.8l1.4-9.7h2.8l-1.4 9.7zm-1.2-13c0-1 .8-1.8 1.9-1.8.9 0 1.5.6 1.5 1.4 0 1-.8 1.8-1.9 1.8-.9.1-1.5-.5-1.5-1.4zm6.6 9.8c-.1.9.1 1.2.7 1.2.4 0 .7-.1 1.1-.3l.8 1.9c-.8.5-1.8.7-2.7.7-2 0-3-1.3-2.7-3.5l.6-4.5h-1.3l.3-2h1.5l.6-2.2 2.5-.3-.3 2.4h2.2l-.6 2h-1.9l-.8 4.6zm16.4-5.8l-.9 6.2c-.1.6-.1 1 .5 1.2l-.8 1.9c-1.1-.1-2-.6-2.2-1.6-.7 1-1.6 1.7-2.9 1.7-2 0-3.1-1.5-3.1-3.9 0-2.8 1.5-6.5 5.6-6.5 1.1 0 2.5.3 3.8 1zm-6.6 5.5c0 1.4.5 1.8 1.1 1.8.7 0 1.3-.5 1.8-1.4l.7-4.6c-.4-.1-.7-.2-1.1-.2-1.9-.1-2.5 2.5-2.5 4.4zm21.5-5.6c0 2.3-1.5 4.9-5.6 4.9h-1.4l-.6 4.2h-2.9l1.8-12.7h4c2.9 0 4.7 1.2 4.7 3.6zm-3.1.1c0-1.1-.7-1.5-1.9-1.5h-1.1l-.6 4.2h1.1c2-.1 2.5-1.5 2.5-2.7zm14 1.2c0 4.1-1.8 7.9-7.2 7.9h-3.8l1.8-12.7h3.4c3-.1 5.8.8 5.8 4.8zm-6.6-2.7l-1.2 8.3h1c3 0 3.7-3.2 3.7-5.7 0-2.2-1.1-2.6-2.5-2.6h-1zm15.6 0h-4.2l-.5 3.4h3.7l-.3 2.1h-3.7l-.7 5h-2.9l1.8-12.7h7.4l-.6 2.2z" class="st1"/><path d="M30.4 20.2c-.6-1-2.5-1.3-3.4-1.4-.7-.1-1.4-.1-2.1-.1-.6 0-1.1 0-1.6.1h-.6l-.6-.6c-1.2-1.4-2.2-3-2.9-4.7.2-.8.4-1.6.5-2.5.2-1.6.2-3.4-.3-4.9-.2-.5-.8-1.2-1.4-.8-.7.4-.9 1.4-1 2.1 0 .6 0 1.2.1 1.8.1.6.3 1.1.4 1.7.2.5.3 1 .5 1.5-.1.4-.3.8-.4 1.2-.3.9-.7 1.7-1 2.5-.2.4-.4.8-.5 1.1-.5 1.2-1.1 2.4-1.8 3.5-1.6.5-2.9 1.2-4.1 1.9-.6.4-1.2.8-1.6 1.3-.4.5-.9 1-.9 1.7 0 .4.1.7.4.9.4.3 1 .3 1.4.2 1.6-.3 2.8-1.7 3.8-2.8.7-.8 1.5-1.8 2.3-3 1.4-.4 3-.8 4.7-1.1.8-.1 1.5-.2 2.3-.3.6.5 1.2 1 1.8 1.4.5.3 1.1.6 1.6.8.6.2 1.2.3 1.8.4.3 0 .6.1.9.1.7 0 1.7-.3 1.8-1.2 0-.3 0-.6-.1-.8zm-17 1.6c-.3.5-.7 1-1 1.4-.7 1-1.6 2.2-2.8 2.6-.1.1-.4.2-.8.2-.3 0-.6-.1-.6-.5 0-.2.1-.4.2-.6.1-.2.3-.4.5-.6.4-.4.9-.8 1.5-1.2.9-.6 2-1.1 3.2-1.6 0 .1-.1.2-.2.3zm4.2-12.9c-.1-.5-.1-1.1 0-1.6 0-.3.1-.5.2-.8.1-.2.2-.7.4-.8.4-.1.5.7.5.9.2 1.3 0 2.7-.3 4 0 .2-.1.4-.1.6-.1-.2-.2-.5-.3-.7-.2-.5-.3-1-.4-1.6zm2.5 10.2c-1.4.2-2.7.5-4 .9.2 0 .8-1.3 1-1.6.7-1.3 1.3-2.6 1.7-4 .7 1.5 1.7 2.9 2.8 4.2l.3.3c-.5 0-1.2.1-1.8.2zm9.5 1.7c-.1.3-.6.4-.9.5-.8.1-1.7 0-2.4-.2-.5-.2-1-.4-1.5-.7-.5-.3-.9-.6-1.4-1 .5 0 1.1-.1 1.6 0 .5 0 1.1 0 1.6.1 1 .1 2.1.5 2.9 1.1l.1.2z" class="st0"/></svg>