<svg xmlns="http://www.w3.org/2000/svg" viewBox="0 0 152.8 31.3" width="152.8" height="31.3"><defs><style>.be5d3711-8850-4289-99f2-27ac3978dded{fill:none;stroke:#2997ff;stroke-miterlimit:10;stroke-width:2px}.eba4c896-4695-48c8-83a0-72d7232bde3f{isolation:isolate}.ad0d14ba-9796-48de-9db7-fb3cdd71faee{fill:#505050}.e89a6f75-ea27-420a-884e-3b3f682133d5{fill:#2997ff}</style></defs><g id="bc841aa8-87ff-4956-9235-2005a87c5ee6"><g id="a1acd6d8-3951-41aa-9f7a-324ca1f4d39d"><path d="M147.8 30.3H5a4 4 0 0 1-4-4V5a4 4 0 0 1 4-4h142.8a4 4 0 0 1 4 4v21.4a4.13 4.13 0 0 1-4 3.9z" class="be5d3711-8850-4289-99f2-27ac3978dded"/><g class="eba4c896-4695-48c8-83a0-72d7232bde3f"><path d="M51.05 15.3c0 3.46-1.48 6.61-6 6.61h-3.2l1.49-10.65h2.88c2.54 0 4.83.74 4.83 4.04zm-5.49-2.21l-1 7h.81c2.51 0 3.12-2.72 3.12-4.8 0-1.82-.9-2.21-2.13-2.21zm6.17 5.61c0-2.27 1.1-5.21 4.54-5.21A3.17 3.17 0 0 1 59.69 17c0 2.25-1.13 5.21-4.55 5.21a3.15 3.15 0 0 1-3.41-3.51zm5.51-1.89c0-1.08-.38-1.54-1.14-1.54-1.61 0-1.93 2.34-1.93 3.58 0 1.08.37 1.54 1.14 1.54 1.59 0 1.92-2.34 1.93-3.58zm11.93 5.1h-2.83l-.23-6-1.91 6h-2.84l-.57-8.16h2.4v6.35l2.14-6.35h2.27l.21 6.35 1.86-6.35H72zM79.59 16l-.82 5.9h-2.38l.75-5.39c.13-.83-.12-1-.47-1-.62 0-1.23.8-1.8 2L74.22 22h-2.38L73 13.75h2.07v1.43a3.49 3.49 0 0 1 2.78-1.69c1.24 0 1.97.94 1.74 2.51zm3.58 3.71c0 .4.07.54.32.54a1.14 1.14 0 0 0 .4-.08l.29 1.69a3.92 3.92 0 0 1-1.54.31c-1.36 0-2.09-.83-1.86-2.4l1.31-9.26 2.4-.26zM85 18.7c0-2.27 1.11-5.21 4.55-5.21A3.16 3.16 0 0 1 92.94 17c0 2.25-1.12 5.21-4.55 5.21A3.15 3.15 0 0 1 85 18.7zm5.52-1.89c0-1.08-.39-1.54-1.14-1.54-1.61 0-1.94 2.34-1.94 3.58 0 1.08.37 1.54 1.14 1.54 1.58 0 1.9-2.34 1.92-3.58zm11.25-2.46l-.77 5.22c-.06.54 0 .82.4 1l-.69 1.57a2 2 0 0 1-1.89-1.36 2.88 2.88 0 0 1-2.43 1.4c-1.72 0-2.64-1.27-2.64-3.24 0-2.34 1.23-5.44 4.67-5.44a6.94 6.94 0 0 1 3.35.85zm-5.53 4.56c0 1.16.39 1.48.93 1.48s1.09-.43 1.55-1.14l.57-3.89a2.71 2.71 0 0 0-.91-.15c-1.58 0-2.14 2.12-2.14 3.7zm15.02-8.4l-1.6 11.4h-2.12v-1.17a2.89 2.89 0 0 1-2.43 1.43c-1.7 0-2.56-1.24-2.56-3.29 0-2.22 1.12-5.39 3.9-5.39a2.47 2.47 0 0 1 1.88.78l.55-4zM105 18.9c0 1.15.37 1.49.89 1.49.7 0 1.26-.69 1.77-1.51l.43-3a1.36 1.36 0 0 0-1.14-.58c-1.49-.04-1.95 2.25-1.95 3.6zm18.89-4.67c0 1.95-1.23 4.13-4.69 4.13H118l-.49 3.55h-2.47l1.49-10.65h3.38c2.5 0 3.98.99 3.98 2.97zm-2.57.12c0-.91-.55-1.29-1.63-1.29h-.9l-.5 3.49h.91a2 2 0 0 0 2.12-2.2zm12.03.95c0 3.46-1.47 6.61-6 6.61h-3.18l1.49-10.65h2.89c2.51 0 4.8.74 4.8 4.04zm-5.48-2.21l-1 7h.82c2.5 0 3.12-2.72 3.12-4.8 0-1.82-.91-2.21-2.14-2.21zm13.38-.03h-3.52l-.4 2.83h3.08l-.25 1.8h-3.07l-.6 4.22H134l1.49-10.65h6.26z" class="ad0d14ba-9796-48de-9db7-fb3cdd71faee"/></g><path d="M27.9 13.8a7.51 7.51 0 0 0-15 0 5.47 5.47 0 0 0-4.5 5.4 5.55 5.55 0 0 0 5.5 5.5h13a5.55 5.55 0 0 0 5.5-5.5 5.49 5.49 0 0 0-4.5-5.4zm-7.5 6.9l-4-4h3v-4h2v4h3z" class="e89a6f75-ea27-420a-884e-3b3f682133d5"/></g></g></svg>