<svg xmlns="http://www.w3.org/2000/svg" viewBox="0 0 212.84 31.3"><defs><style>.bd4970e3-db1b-4ac1-b022-030874055ffc{fill:none;stroke:#2997ff;stroke-miterlimit:10;stroke-width:2px;}.aa67136c-1119-48d1-8619-a65176e73561{fill:#2997ff;}.b607b61f-2f56-48de-be91-7060a07a1c33{fill:#505050;}</style></defs><g id="ff64e054-1092-4a0e-acd9-a298a883f0ad" data-name="Layer 2"><g id="b54a60be-c564-4948-b564-0c5b1ba76d17" data-name="Layer 1"><path class="bd4970e3-db1b-4ac1-b022-030874055ffc" d="M207.84,30.3H5a4,4,0,0,1-4-4V5A4,4,0,0,1,5,1H207.84a4,4,0,0,1,4,4V26.4A4.13,4.13,0,0,1,207.84,30.3Z"/><path class="aa67136c-1119-48d1-8619-a65176e73561" d="M27.9,13.55a7.51,7.51,0,0,0-15,0A5.47,5.47,0,0,0,8.4,19a5.55,5.55,0,0,0,5.5,5.5h13A5.55,5.55,0,0,0,32.4,19,5.49,5.49,0,0,0,27.9,13.55Zm-7.5-1.1,4,4h-3v4h-2v-4h-3Z"/><path class="b607b61f-2f56-48de-be91-7060a07a1c33" d="M51.11,11.88l-1.37,1.36a3.07,3.07,0,0,0-2.22-.9c-1,0-1.67.46-1.67,1.22s.41.94,1.84,1.42c1.78.58,2.83,1.44,2.83,3.13S49.27,22,45.81,22a5.23,5.23,0,0,1-4-1.61l1.48-1.46A3.42,3.42,0,0,0,45.88,20c1.21,0,1.94-.56,1.94-1.49,0-.72-.43-1.1-1.74-1.56-2.08-.7-2.92-1.62-2.92-3.09,0-1.67,1.34-3.43,4.28-3.43A4.85,4.85,0,0,1,51.11,11.88Z"/><path class="b607b61f-2f56-48de-be91-7060a07a1c33" d="M51.3,19.3l.86-6h2.46l-.78,5.62c-.12.85.11,1.1.56,1.1s1.16-.64,1.62-1.33l.75-5.39h2.46l-1.17,8.44H55.93l0-1.26A3.39,3.39,0,0,1,53.3,22C51.74,22,51.08,20.94,51.3,19.3Z"/><path class="b607b61f-2f56-48de-be91-7060a07a1c33" d="M68.12,16.3c0,2.43-1,5.69-4.93,5.69a9.38,9.38,0,0,1-3.47-.7L61.31,9.92l2.5-.27L63.21,14a3.36,3.36,0,0,1,2.32-1C67.21,13,68.12,14.2,68.12,16.3ZM63,15.82,62.38,20a2.72,2.72,0,0,0,1.07.21c1.57,0,2.13-2.23,2.13-3.82,0-1.17-.45-1.49-1-1.49A2.1,2.1,0,0,0,63,15.82Z"/><path class="b607b61f-2f56-48de-be91-7060a07a1c33" d="M80.81,15.58,80,21.72H77.48l.8-5.58c.13-.89-.13-1.08-.46-1.08-.58,0-1.15.79-1.66,1.92l-.66,4.74H73l.8-5.58c.12-.89-.15-1.08-.48-1.08-.56,0-1.16.81-1.64,2l-.65,4.68H68.6l1.17-8.44h2.15l0,1.38A3.21,3.21,0,0,1,74.51,13a1.72,1.72,0,0,1,1.84,1.57A3.32,3.32,0,0,1,79,13C80.28,13,81,14,80.81,15.58Z"/><path class="b607b61f-2f56-48de-be91-7060a07a1c33" d="M84,21.72H81.49l1.18-8.44h2.46ZM82.84,10.41a1.57,1.57,0,0,1,1.64-1.57,1.23,1.23,0,0,1,1.32,1.25,1.6,1.6,0,0,1-1.64,1.6A1.24,1.24,0,0,1,82.84,10.41Z"/><path class="b607b61f-2f56-48de-be91-7060a07a1c33" d="M88.64,18.92c-.11.81.1,1.08.57,1.08a2.22,2.22,0,0,0,1-.27l.65,1.64a4.82,4.82,0,0,1-2.3.62c-1.75,0-2.63-1.1-2.36-3.07l.56-3.9H85.56l.24-1.74h1.27l.52-1.88,2.13-.24-.3,2.12h1.94L90.84,15H89.18Z"/><path class="b607b61f-2f56-48de-be91-7060a07a1c33" d="M94.59,18.39c0-2.35,1.14-5.38,4.7-5.38a3.26,3.26,0,0,1,3.53,3.59c0,2.32-1.16,5.39-4.7,5.39A3.26,3.26,0,0,1,94.59,18.39Zm5.71-1.95c0-1.11-.4-1.59-1.18-1.59-1.67,0-2,2.42-2,3.7,0,1.12.38,1.59,1.17,1.59C100,20.14,100.28,17.73,100.3,16.44Z"/><path class="b607b61f-2f56-48de-be91-7060a07a1c33" d="M111.34,15.61l-.84,6.11H108l.78-5.58c.12-.86-.13-1.08-.5-1.08-.63,0-1.27.82-1.86,2l-.67,4.64h-2.46l1.18-8.44h2.14l0,1.47A3.58,3.58,0,0,1,109.48,13C110.83,13,111.58,14,111.34,15.61Z"/><path class="b607b61f-2f56-48de-be91-7060a07a1c33" d="M124.08,18.2c0,1.93-1.26,3.52-5.18,3.52h-3.52l1.54-11h3.23c2.51,0,4.17.67,4.17,2.51a2.8,2.8,0,0,1-2.42,2.69C123,16.11,124.08,16.65,124.08,18.2ZM121.46,18c0-.86-.67-1.17-1.67-1.17h-1.18l-.41,3h.92C121,19.83,121.46,19.05,121.46,18Zm.22-4.53c0-.7-.54-.94-1.5-.94h-1l-.35,2.56h1C121.15,15.1,121.68,14.4,121.68,13.48Z"/><path class="b607b61f-2f56-48de-be91-7060a07a1c33" d="M131.18,13.16l-.71,2.42a2.91,2.91,0,0,0-.7-.11c-1.05,0-1.62,1-2.08,2.34l-.56,3.91h-2.46l1.17-8.44H128l0,1.57A2.77,2.77,0,0,1,130.34,13,2.7,2.7,0,0,1,131.18,13.16Z"/><path class="b607b61f-2f56-48de-be91-7060a07a1c33" d="M133,21.72h-2.46l1.18-8.44h2.46Zm-1.11-11.31a1.58,1.58,0,0,1,1.64-1.57,1.23,1.23,0,0,1,1.32,1.25,1.6,1.6,0,0,1-1.64,1.6A1.25,1.25,0,0,1,131.93,10.41Z"/><path class="b607b61f-2f56-48de-be91-7060a07a1c33" d="M143.08,13.9,142,21.07c-.43,3-1.78,4.19-4.44,4.19a6.38,6.38,0,0,1-3.18-.93l.84-1.64a4.89,4.89,0,0,0,2.29.67c.92,0,1.82-.27,2.05-1.93l.12-.81a3,3,0,0,1-2.23,1.1c-1.81,0-2.77-1.34-2.77-3.28,0-2.33,1.29-5.43,4.92-5.43A7.15,7.15,0,0,1,143.08,13.9Zm-5.81,4.48c0,1.14.45,1.48,1,1.48a2.19,2.19,0,0,0,1.65-1.18l.59-3.74a2.74,2.74,0,0,0-.95-.15C137.86,14.79,137.27,16.88,137.27,18.38Z"/><path class="b607b61f-2f56-48de-be91-7060a07a1c33" d="M151.53,15.6l-.86,6.12h-2.46l.78-5.58c.13-.86-.11-1.08-.48-1.08-.65,0-1.29.82-1.89,2L146,21.72H143.5l1.66-11.8,2.49-.25-.7,5A3.23,3.23,0,0,1,149.64,13C151,13,151.76,14,151.53,15.6Z"/><path class="b607b61f-2f56-48de-be91-7060a07a1c33" d="M155.28,18.92c-.11.81.1,1.08.58,1.08a2.21,2.21,0,0,0,.95-.27l.65,1.64a4.82,4.82,0,0,1-2.3.62c-1.75,0-2.63-1.1-2.36-3.07l.56-3.9H152.2l.24-1.74h1.27l.52-1.88,2.14-.24-.31,2.12H158L157.48,15h-1.65Z"/><path class="b607b61f-2f56-48de-be91-7060a07a1c33" d="M166.54,11.88l-1.37,1.36a3.06,3.06,0,0,0-2.22-.9c-1,0-1.67.46-1.67,1.22s.41.94,1.84,1.42c1.78.58,2.83,1.44,2.83,3.13S164.7,22,161.25,22a5.25,5.25,0,0,1-4-1.61l1.48-1.46A3.44,3.44,0,0,0,161.31,20c1.21,0,1.94-.56,1.94-1.49,0-.72-.43-1.1-1.73-1.56-2.09-.7-2.93-1.62-2.93-3.09,0-1.67,1.34-3.43,4.28-3.43A4.85,4.85,0,0,1,166.54,11.88Z"/><path class="b607b61f-2f56-48de-be91-7060a07a1c33" d="M167.67,13.28h2.18v.93a3.38,3.38,0,0,1,2.48-1.2c1.71,0,2.6,1.19,2.6,3.29,0,2.43-1.12,5.69-4.48,5.69a4.18,4.18,0,0,1-1.51-.24L168.46,25l-2.46.27Zm4.74,3.06c0-1.17-.45-1.49-1-1.49a2.11,2.11,0,0,0-1.61,1L169.21,20a2.68,2.68,0,0,0,1.07.21C171.83,20.16,172.41,17.93,172.41,16.34Z"/><path class="b607b61f-2f56-48de-be91-7060a07a1c33" d="M183.73,13.9,183,19.3c-.07.56,0,.84.41,1l-.71,1.62a2,2,0,0,1-2-1.4A3,3,0,0,1,178.18,22c-1.78,0-2.74-1.32-2.74-3.36,0-2.41,1.27-5.62,4.84-5.62A7.1,7.1,0,0,1,183.73,13.9ZM178,18.62c0,1.19.4,1.52,1,1.52s1.12-.44,1.6-1.17l.59-4a2.61,2.61,0,0,0-.94-.15C178.58,14.79,178,17,178,18.62Z"/><path class="b607b61f-2f56-48de-be91-7060a07a1c33" d="M191.66,14.09l-1.23,1.43a2,2,0,0,0-1.46-.59c-1.72,0-2.14,2.08-2.14,3.51,0,1.19.52,1.56,1.32,1.56a3,3,0,0,0,1.66-.59l.93,1.61a4.76,4.76,0,0,1-2.91,1,3.34,3.34,0,0,1-3.6-3.64c0-2.2,1.29-5.34,4.73-5.34A3.63,3.63,0,0,1,191.66,14.09Z"/><path class="b607b61f-2f56-48de-be91-7060a07a1c33" d="M193.63,18.65a1.36,1.36,0,0,0,1.51,1.49,3.72,3.72,0,0,0,2.15-.78l.89,1.5A5.68,5.68,0,0,1,194.82,22a3.3,3.3,0,0,1-3.67-3.58c0-2.29,1.24-5.4,4.78-5.4,2.06,0,3.12,1,3.12,2.3C199.05,17.68,196.28,18.38,193.63,18.65Zm2.92-3.23a.72.72,0,0,0-.81-.75c-1.2,0-1.78,1.24-2,2.45C195.86,17,196.55,16.22,196.55,15.42Z"/></g></g></svg>