<?xml version="1.0" encoding="utf-8"?>
<!-- Generator: Adobe Illustrator 26.2.0, SVG Export Plug-In . SVG Version: 6.00 Build 0)  -->
<svg version="1.1" id="Layer_1" xmlns="http://www.w3.org/2000/svg" xmlns:xlink="http://www.w3.org/1999/xlink" x="0px" y="0px"
	 viewBox="0 0 267.8 41.5" style="enable-background:new 0 0 267.8 41.5;" xml:space="preserve">
<style type="text/css">
	.st0{fill:#2997FF;}
	.st1{fill:#505050;}
	.st2{fill:none;stroke:#2997FF;stroke-width:3.5208;stroke-miterlimit:10;}
</style>
<g id="bde30023-371b-46e2-89ca-6841ac9b2b27">
	<g id="af2e287a-d459-4690-a482-89682e7e8d86">
		<path class="st0" d="M262.1,3c1.5,0,2.7,1.2,2.7,2.7c0,0,0,0,0,0v30.2c-0.1,1.4-1.3,2.5-2.7,2.6H5.7c-1.5,0-2.7-1.2-2.7-2.7V5.7
			C3,4.2,4.2,3,5.7,3H262.1 M262.1,0H5.7C2.5,0,0,2.5,0,5.7v30.2c0,3.1,2.5,5.6,5.7,5.7h256.5c3-0.1,5.5-2.5,5.7-5.5V5.7
			C267.8,2.5,265.2,0,262.1,0z"/>
	</g>
</g>
<g>
	<path class="st1" d="M65.5,13.8h-7.6L57,20.3h6.6l-0.4,3.1h-6.6l-1.3,9.1h-4.1l3.1-21.8h12.2L65.5,13.8z"/>
	<path class="st1" d="M67.9,26.3c0.1,2.6,1.4,3.5,3.2,3.5c1.5,0,2.8-0.5,4.3-1.5l1.5,2.5c-1.8,1.3-3.9,2.1-6.3,2.1
		c-4.5,0-6.9-2.7-6.9-6.9c0-4.5,2.4-10.7,9.1-10.7c3.8,0,5.8,2,5.8,4.4C78.7,24.4,73.4,25.8,67.9,26.3z M74.6,19.9
		c0-0.7-0.4-1.7-1.9-1.7c-2.9,0-4.2,2.8-4.6,5.5C72.6,23.2,74.6,22,74.6,19.9z"/>
	<path class="st1" d="M82.9,26.3c0.1,2.6,1.4,3.5,3.2,3.5c1.5,0,2.8-0.5,4.3-1.5l1.5,2.5c-1.8,1.3-3.9,2.1-6.3,2.1
		c-4.5,0-6.9-2.7-6.9-6.9c0-4.5,2.4-10.7,9.1-10.7c3.8,0,5.8,2,5.8,4.4C93.7,24.4,88.4,25.8,82.9,26.3z M89.6,19.9
		c0-0.7-0.4-1.7-1.9-1.7c-2.9,0-4.2,2.8-4.6,5.5C87.6,23.2,89.6,22,89.6,19.9z"/>
	<path class="st1" d="M110.9,9.1l-3.3,23.3h-3.5l0-2.6c-1.1,1.7-2.8,3-5,3c-3.5,0-5.3-2.6-5.3-6.7c0-4.4,2.2-10.9,7.9-10.9
		c1.8,0,3.1,0.8,4,1.8l1.2-8.4L110.9,9.1z M98.1,26.4c0,2.6,0.9,3.5,2.3,3.5c1.7,0,3-1.4,4.2-3.4l0.9-6.6c-0.7-1-1.6-1.6-2.8-1.6
		C99.1,18.3,98.1,23.3,98.1,26.4z"/>
	<path class="st1" d="M127,21.8c0,4.8-2.2,11.1-9.4,11.1c-2.2,0-4.1-0.4-6.4-1.3l3.2-22.6l4-0.4l-1.2,8.6c1.4-1.3,3-2,4.7-2
		C125.1,15.3,127,17.7,127,21.8z M116.8,20.5l-1.2,9c0.8,0.3,1.5,0.4,2.5,0.4c3.6,0,4.9-4.7,4.9-8.1c0-2.6-1-3.4-2.4-3.4
		C119,18.3,117.9,19.3,116.8,20.5z"/>
	<path class="st1" d="M143.7,16.9l-1.6,11.2c-0.2,1.1-0.1,1.7,0.9,2.1l-1.1,2.6c-1.8-0.2-3.1-1-3.4-2.8c-1.2,1.7-2.9,2.8-5,2.8
		c-3.5,0-5.4-2.6-5.4-6.5c0-4.7,2.5-11.1,9.3-11.1C139.6,15.3,141.7,15.8,143.7,16.9z M132.3,26.4c0,2.5,0.9,3.5,2.3,3.5
		c1.5,0,2.6-1.1,3.8-2.6l1.2-8.5c-0.7-0.3-1.3-0.4-2.2-0.4C133.6,18.3,132.3,22.9,132.3,26.4z"/>
	<path class="st1" d="M158.9,17.3l-2,2.4c-1-0.9-1.9-1.2-3.1-1.2c-3.8,0-4.8,4.5-4.8,7.6c0,2.6,1.1,3.5,3,3.5c1.3,0,2.3-0.4,3.6-1.2
		l1.5,2.7c-1.7,1.2-3.5,1.8-5.5,1.8c-4.3,0-6.7-2.7-6.7-7c0-4.3,2.5-10.6,8.9-10.6C155.8,15.3,157.5,15.9,158.9,17.3z"/>
	<path class="st1" d="M164.4,18.3c1.6-2.1,3.5-3,5.6-3c2.6,0,4.3,1.6,4.3,3.9c0,2.6-1.5,4.7-4.8,5.8l3.4,7.4h-4.4l-3.5-8.1
		c3.8-1.1,5.2-2.5,5.2-4.5c0-1-0.6-1.6-1.6-1.6c-1.5,0-3.3,1.2-4.7,4l-1.4,10.2h-4l3.3-23.3l4-0.4L164.4,18.3z"/>
	<path class="st1" d="M195.6,13.8H188l-0.9,6.5h6.6l-0.4,3.1h-6.6l-1.3,9.1h-4.1l3.1-21.8h12.2L195.6,13.8z"/>
	<path class="st1" d="M193.9,25.9c0-4.4,2.2-10.6,9-10.6c4.3,0,6.7,2.7,6.7,7c0,4.3-2.2,10.6-9,10.6
		C196.3,32.9,193.9,30.2,193.9,25.9z M205.5,22c0-2.5-0.9-3.6-2.8-3.6c-3.7,0-4.7,5-4.7,7.8c0,2.5,1,3.7,2.8,3.7
		C204.6,29.8,205.5,24.8,205.5,22z"/>
	<path class="st1" d="M222.9,15.6l-1.2,3.9c-0.5-0.1-0.9-0.2-1.4-0.2c-2.1,0-3.4,2-4.4,4.9l-1.2,8.2h-4l2.3-16.7h3.4l-0.1,3.2
		c1.2-2.5,2.9-3.7,4.8-3.7C221.8,15.3,222.3,15.4,222.9,15.6z"/>
	<path class="st1" d="M245.2,20.4l-1.7,12h-4l1.6-11.3c0.3-2.1-0.4-2.5-1.3-2.5c-1.4,0-2.8,1.9-3.9,4.1l-1.4,9.7h-4l1.6-11.3
		c0.3-2.1-0.4-2.5-1.2-2.5c-1.4,0-2.8,1.9-4,4.3l-1.3,9.6h-4l2.3-16.7h3.4l-0.2,2.9c1.4-2.1,3.2-3.4,5.3-3.4c1.9,0,3.3,1.1,3.7,3.2
		c1.4-2,3.3-3.2,5.3-3.2C244.1,15.3,245.6,17.3,245.2,20.4z"/>
</g>
<circle class="st2" cx="24.5" cy="20.7" r="12.2"/>
<circle class="st0" cx="24.5" cy="20.7" r="7.7"/>
</svg>
