<svg xmlns="http://www.w3.org/2000/svg" viewBox="0 0 240 33.36" width="240" height="33.36"><defs><style>.b38ee4a3-e21a-445d-a4d8-c444eb9dd377{fill:#2997ff}.ad604961-15e8-4f5e-95e8-30d2cd3f4570{isolation:isolate}.b458cd19-be8e-40ad-a9b9-5067213e6869{fill:#505050}</style></defs><g id="b7fb3327-df60-4ac0-a541-d5af815230a4"><g id="b9675a5b-d365-48d2-9390-64139f20b53f"><path d="M235.45 3A1.57 1.57 0 0 1 237 4.55v24.28a1.72 1.72 0 0 1-1.55 1.53H4.55A1.57 1.57 0 0 1 3 28.8V4.55A1.57 1.57 0 0 1 4.55 3h230.9m0-3H4.55A4.57 4.57 0 0 0 0 4.55V28.8a4.57 4.57 0 0 0 4.55 4.56h230.9a4.7 4.7 0 0 0 4.55-4.44V4.55A4.57 4.57 0 0 0 235.45 0z" class="b38ee4a3-e21a-445d-a4d8-c444eb9dd377"/><g class="ad604961-15e8-4f5e-95e8-30d2cd3f4570"><path d="M55.19 12.15l-1.68 1.68a3.76 3.76 0 0 0-2.73-1.11c-1.24 0-2.06.56-2.06 1.5 0 .78.51 1.15 2.27 1.74 2.19.72 3.48 1.78 3.48 3.85 0 2.25-1.54 4.77-5.78 4.77a6.48 6.48 0 0 1-4.93-2l1.82-1.8a4.21 4.21 0 0 0 3.18 1.33c1.49 0 2.39-.69 2.39-1.84 0-.88-.53-1.35-2.13-1.92-2.56-.85-3.6-2-3.6-3.79 0-2.05 1.64-4.22 5.26-4.22a6 6 0 0 1 4.51 1.81zm.24 9.13l1-7.41h3l-.95 6.92c-.16 1 .13 1.35.68 1.35.72 0 1.43-.78 2-1.64l.92-6.63h3l-1.34 10.38h-2.62l.06-1.54a4.18 4.18 0 0 1-3.29 1.87c-1.89 0-2.73-1.29-2.46-3.3zm20.68-3.7c0 3-1.25 7-6.06 7a11.33 11.33 0 0 1-4.26-.86l2-14 3.06-.34-.74 5.34a4.16 4.16 0 0 1 2.85-1.21c2.04.03 3.15 1.49 3.15 4.07zM69.76 17l-.71 5.08a3.36 3.36 0 0 0 1.31.25c1.94 0 2.62-2.73 2.62-4.69 0-1.44-.54-1.84-1.23-1.84a2.57 2.57 0 0 0-1.99 1.2zm21.95-.3l-1.06 7.55h-3l1-6.86c.16-1.1-.15-1.33-.57-1.33-.7 0-1.4 1-2 2.36l-.82 5.83h-3l1-6.86c.16-1.1-.18-1.33-.59-1.33-.68 0-1.42 1-2 2.44l-.8 5.75h-3l1.44-10.38h2.64l-.06 1.7a4 4 0 0 1 3.25-2 2.14 2.14 0 0 1 2.27 1.93 4.07 4.07 0 0 1 3.22-1.93c1.43-.03 2.37 1.16 2.08 3.13zm3.87 7.55h-3L94 13.87h3zm-1.37-13.9a1.93 1.93 0 0 1 2-1.93A1.51 1.51 0 0 1 97.85 10a2 2 0 0 1-2 2 1.53 1.53 0 0 1-1.64-1.65zm7.14 10.46c-.14 1 .11 1.33.7 1.33a2.8 2.8 0 0 0 1.17-.33l.81 2a5.88 5.88 0 0 1-2.84.76c-2.15 0-3.22-1.35-2.89-3.77L99 16h-1.44l.29-2.15h1.56l.65-2.31 2.62-.29-.37 2.6h2.38l-.64 2.15h-2zm14.03-1.64l-.7 5.08h-3.17l.73-5.06-3.09-8.49h3.36l1.64 6 3.3-6h3.41zm3.03.99c0-2.89 1.41-6.62 5.79-6.62a4 4 0 0 1 4.34 4.46c0 2.85-1.43 6.62-5.79 6.62-2.75-.04-4.34-1.7-4.34-4.46zm7-2.4c0-1.37-.49-2-1.45-2-2 0-2.46 3-2.46 4.56 0 1.37.47 1.95 1.45 1.95 2.05.04 2.46-2.93 2.48-4.51zm4.05 3.52l1-7.41h3l-1 6.92c-.15 1 .14 1.35.69 1.35.72 0 1.43-.78 2-1.64l.92-6.63h3l-1.45 10.38h-2.61v-1.54a4.17 4.17 0 0 1-3.28 1.87c-1.73 0-2.55-1.29-2.27-3.3zm18.31-7.55l-.88 3a3.58 3.58 0 0 0-.86-.13c-1.29 0-2 1.23-2.56 2.87l-.68 4.81h-3l1.45-10.38h2.64v1.93a3.41 3.41 0 0 1 2.93-2.22 3.6 3.6 0 0 1 .96.12zM162.34 12l-1.7 1.67a3.35 3.35 0 0 0-2.27-.9c-2.85 0-3.73 3.87-3.73 6.25 0 2.19.91 3.11 2.38 3.11a4.55 4.55 0 0 0 2.74-1.13l1.23 1.9a6.68 6.68 0 0 1-4.46 1.72c-3.09 0-5.16-1.95-5.16-5.59s1.86-8.62 7-8.62a5.15 5.15 0 0 1 3.97 1.59z" class="b458cd19-be8e-40ad-a9b9-5067213e6869"/><path d="M161.42 20.16c0-2.89 1.41-6.62 5.78-6.62a4 4 0 0 1 4.34 4.46c0 2.85-1.42 6.62-5.78 6.62-2.76-.04-4.34-1.7-4.34-4.46zm7-2.4c0-1.37-.49-2-1.45-2-2.05 0-2.46 3-2.46 4.56 0 1.37.47 1.95 1.44 1.95 2.05.04 2.47-2.93 2.49-4.51zM182 16.74l-1 7.51h-3l.95-6.86c.16-1.06-.15-1.33-.6-1.33-.78 0-1.57 1-2.29 2.48l-.82 5.71h-3l1.45-10.38h2.64l-.06 1.82a4.43 4.43 0 0 1 3.53-2.15c1.6 0 2.51 1.19 2.2 3.2zm10.07-1.87l-1.5 1.76a2.49 2.49 0 0 0-1.8-.73c-2.11 0-2.64 2.56-2.64 4.32 0 1.47.64 1.92 1.62 1.92a3.75 3.75 0 0 0 2.05-.72l1.14 2a5.86 5.86 0 0 1-3.58 1.19 4.1 4.1 0 0 1-4.42-4.47c0-2.7 1.59-6.57 5.81-6.57a4.48 4.48 0 0 1 3.32 1.3z" class="b458cd19-be8e-40ad-a9b9-5067213e6869"/><path d="M194.49 20.48a1.68 1.68 0 0 0 1.86 1.83 4.64 4.64 0 0 0 2.64-.95l1.09 1.83a7 7 0 0 1-4.08 1.39c-3 0-4.52-1.76-4.52-4.4 0-2.81 1.53-6.64 5.89-6.64 2.52 0 3.83 1.27 3.83 2.83-.04 2.91-3.44 3.77-6.71 4.11zm3.6-4a.88.88 0 0 0-1-.92c-1.48 0-2.19 1.52-2.46 3 2.6-.14 3.46-1.07 3.46-2.05zm4.77-2.61h2.68V15a4.15 4.15 0 0 1 3.05-1.48c2.11 0 3.2 1.46 3.2 4 0 3-1.38 7-5.51 7a5.41 5.41 0 0 1-1.86-.29l-.58 4-3 .33zm5.83 3.77c0-1.44-.55-1.84-1.26-1.84a2.59 2.59 0 0 0-2 1.2l-.7 5.08a3.26 3.26 0 0 0 1.31.25c1.96 0 2.65-2.73 2.65-4.69zm7.46 3.17c-.13 1 .12 1.33.71 1.33a2.8 2.8 0 0 0 1.17-.33l.8 2a5.84 5.84 0 0 1-2.83.76c-2.15 0-3.23-1.35-2.9-3.77l.69-4.79h-1.43l.29-2.15h1.57l.64-2.31 2.62-.29-.37 2.6h2.39l-.65 2.14h-2z" class="b458cd19-be8e-40ad-a9b9-5067213e6869"/></g><path d="M28 11.1V18a7.63 7.63 0 0 1 1.75.13V11.1a3 3 0 0 0-3-3h-5.16v.38a10.47 10.47 0 0 1-.06 1.37h5.12A1.31 1.31 0 0 1 28 11.1zM13.68 21.74a.57.57 0 0 1 .33-.07V11.1a1.29 1.29 0 0 1 1.29-1.29h2.47a8.22 8.22 0 0 1-.07-1.75h-2.4a3 3 0 0 0-3 3v11.58a13.52 13.52 0 0 1 1.38-.9zm14.32.84a1.3 1.3 0 0 1-1.29 1.3h-10.3a20.43 20.43 0 0 1-1.17 1.75h11.48a3.07 3.07 0 0 0 3-3c-.52-.06-1.1-.19-1.75-.32z" class="b38ee4a3-e21a-445d-a4d8-c444eb9dd377"/><path d="M31.64 19.73c-.77-.78-3-1-6.16-.65a21.7 21.7 0 0 1-1.88-1.23 11.28 11.28 0 0 1-3.24-5.26 33.12 33.12 0 0 0 .33-4.15V7.8l.06-.39a1.7 1.7 0 0 0-.13-1.36 1 1 0 0 0-.71-.26h-.46c-.39 0-.64.26-.77.77a12 12 0 0 0 .45 5.9c0 .07.06.2.06.26a33.12 33.12 0 0 1-2.27 5.71 37.21 37.21 0 0 1-4 6.74 4.82 4.82 0 0 1-2 1.62 4.15 4.15 0 0 1 .85-1.49 14.33 14.33 0 0 1 2.4-2.4l-.17-.45c-2.66 1.43-3.83 3.05-4 4a1 1 0 0 0 .06.65l.07.06h.06l.52.26a1.37 1.37 0 0 0 .52.13c1.23 0 3-1.88 5.12-5.64a36.87 36.87 0 0 1 8.43-1.81H25a13.1 13.1 0 0 0 5.26 1.55 2.69 2.69 0 0 0 .84-.13c.06 0 .06 0 .13-.06l.32-.26a.49.49 0 0 0 .13-.26l.07-.2a.67.67 0 0 0-.11-1.01zm-11.86-13a.49.49 0 0 1 .13-.26 1.24 1.24 0 0 1 .45 1l.07.32h-.07c-.06.26-.06.58-.13.91s-.13 1-.26 1.68a7.16 7.16 0 0 1-.19-3.69zm-2.86 14.55c.39-.65.72-1.36 1.11-2.07a26.74 26.74 0 0 0 1.88-4.54 10.63 10.63 0 0 0 2.85 4 7.93 7.93 0 0 0 .84.65 33.34 33.34 0 0 0-6.68 1.96zm14.46-.52c-.58.26-2.14-.06-3.82-.77a8 8 0 0 1 3.69.45.63.63 0 0 1 .13.32z" class="b38ee4a3-e21a-445d-a4d8-c444eb9dd377"/></g></g></svg>