<svg xmlns="http://www.w3.org/2000/svg" id="Layer_1" viewBox="0 0 136.4 24" width="136.4" height="24"><style>.st0{fill:#505050}.st1{enable-background:new}.st2{fill:#2997ff}</style><path d="M19 0H5C2.2 0 0 2.2 0 5v14c0 2.8 2.2 5 5 5h14c2.8 0 5-2.2 5-5V5c0-2.8-2.2-5-5-5zm-7 20c-.8 0-1.6-.1-2.4-.4.3-.5.8-1.4 1-2.1l.5-1.9c.3.5 1 .9 1.8.9 2.4 0 4.2-2.2 4.2-5C17.1 8.9 15 7 12.2 7c-3.5 0-5.3 2.3-5.3 4.8 0 1.2.6 2.6 1.6 3.1.2.1.2 0 .3-.1l.2-.9c0-.1 0-.1-.1-.2-.3-.4-.6-1.1-.6-1.8 0-1.8 1.3-3.5 3.6-3.5 2 0 3.3 1.3 3.3 3.3 0 2.2-1.1 3.7-2.5 3.7-.8 0-1.4-.6-1.2-1.4.2-1 .7-2 .7-2.7 0-.6-.3-1.1-1-1.1-.8 0-1.4.8-1.4 1.9 0 .7.2 1.2.2 1.2s-.8 3.4-.9 4c-.2.7-.1 1.7 0 2.3C6.1 18.3 4 15.4 4 12c0-4.4 3.6-8 8-8s8 3.6 8 8-3.6 8-8 8z" class="st0"/><g class="st1"><path d="M40.8 7.1l-1.4 1.4c-.7-.7-1.5-1-2.4-1-1.1 0-1.9.5-1.9 1.5 0 .7.4 1.1 2 1.6 1.8.6 3 1.5 3 3.3 0 1.9-1.4 4.1-5 4.1-1.9 0-3.3-.7-4.2-1.7l1.5-1.4c.7.8 1.6 1.2 2.8 1.2 1.4 0 2.3-.7 2.3-1.8 0-.8-.5-1.3-1.9-1.8-2.2-.8-3.1-1.7-3.1-3.3 0-1.8 1.4-3.6 4.5-3.6 1.7 0 2.9.5 3.8 1.5zm3 7.3c.1 1.3.7 1.8 1.7 1.8.8 0 1.5-.3 2.3-.8l.9 1.5c-1 .7-2.2 1.2-3.5 1.2-2.5 0-3.8-1.5-3.8-3.8 0-2.5 1.3-5.8 5-5.8 2.1 0 3.2 1.1 3.2 2.4 0 2.4-2.9 3.2-5.8 3.5zm3.4-3.5c0-.4-.2-.9-1-.9-1.4 0-2.1 1.4-2.3 2.8 2.4-.2 3.3-.9 3.3-1.9zm5.5 3.5c.1 1.3.7 1.8 1.7 1.8.8 0 1.5-.3 2.3-.8l.9 1.5c-1 .7-2.2 1.2-3.5 1.2-2.5 0-3.8-1.5-3.8-3.8 0-2.5 1.3-5.8 5-5.8 2.1 0 3.2 1.1 3.2 2.4.1 2.4-2.9 3.2-5.8 3.5zm3.4-3.5c0-.4-.2-.9-1-.9-1.4 0-2.1 1.4-2.3 2.8 2.4-.2 3.3-.9 3.3-1.9zm15.4-3.2h-4.2l-.4 3.1h3.7l-.2 1.8h-3.7l-.5 3.3h4.5l-.3 1.8h-7l1.7-11.8h7l-.6 1.8zm5.9 5.2l2.2 4.8H77l-1.2-3.4-2.2 3.4h-2.7l3.6-4.8-2-4.2h2.6l1 3 1.8-3h2.6l-3.1 4.2zm11.8-3.7l-.9 6c-.1.6-.1.9.5 1.1l-.7 1.6c-1-.1-1.8-.5-2-1.5-.7.9-1.5 1.5-2.7 1.5-1.9 0-2.9-1.4-2.9-3.6 0-2.6 1.4-6 5.1-6 1.2 0 2.4.3 3.6.9zM83 14.4c0 1.3.5 1.8 1.2 1.8s1.3-.5 1.9-1.4l.7-4.5c-.4-.2-.7-.2-1.1-.2-2 0-2.7 2.4-2.7 4.3zm20.2-3.3l-.9 6.6h-2.4l.9-6.1c.2-1.1-.2-1.3-.6-1.3-.7 0-1.4.9-2 2.1l-.7 5.2h-2.4l.9-6.1c.1-1.1-.2-1.3-.6-1.3-.7 0-1.4 1-1.9 2.2l-.7 5.1h-2.4l1.3-9.1h2.1l-.1 1.5c.8-1.1 1.7-1.8 2.9-1.8 1 0 1.8.6 2 1.7.8-1.1 1.8-1.7 2.8-1.7 1.2.2 2 1.3 1.8 3zm2.6-2.5h2.1v1c.9-1 1.8-1.3 2.7-1.3 1.8 0 2.8 1.3 2.8 3.5 0 2.6-1.2 6.1-4.8 6.1-.7 0-1.2-.1-1.7-.3l-.5 3.5-2.4.3 1.8-12.8zm5.1 3.3c0-1.3-.5-1.7-1.2-1.7s-1.3.4-1.9 1.1l-.7 4.7c.4.2.7.2 1.2.2 2-.1 2.6-2.5 2.6-4.3zm6.2 3.5c-.1.4.1.6.4.6.2 0 .3 0 .5-.1l.3 1.7c-.5.2-1.1.3-1.6.3-1.5 0-2.2-.9-2-2.6L116.2 5l2.4-.3-1.5 10.7zm4.7-1c.1 1.3.7 1.8 1.7 1.8.8 0 1.5-.3 2.3-.8l.9 1.5c-1 .7-2.2 1.2-3.5 1.2-2.5 0-3.8-1.5-3.8-3.8 0-2.5 1.3-5.8 5-5.8 2.1 0 3.2 1.1 3.2 2.4 0 2.4-2.9 3.2-5.8 3.5zm3.4-3.5c0-.4-.2-.9-1-.9-1.4 0-2.1 1.4-2.3 2.8 2.3-.2 3.3-.9 3.3-1.9zm10.5-1.4l-1.1 1.4c-.7-.5-1.4-.7-2.2-.7-.9 0-1.4.3-1.4.9 0 .5.4.7 1.8 1.2 1.6.5 2.4 1.3 2.4 2.7 0 1.8-1.4 3.1-4 3.1-1.6 0-2.9-.6-3.7-1.5l1.2-1.3c.6.5 1.5 1 2.5 1 1.1 0 1.5-.5 1.5-1 0-.7-.4-.9-1.8-1.4-1.6-.5-2.3-1.3-2.3-2.6 0-1.5 1.3-2.8 3.7-2.8 1.4-.2 2.6.3 3.4 1z" class="st2"/></g></svg>