<svg xmlns="http://www.w3.org/2000/svg" viewBox="0 0 240 46.63" width="240" height="46.63"><defs><style>.b04cffdc-0604-4042-95a6-de90a463a61b{fill:#2997ff}.bbf21e76-cf58-4047-84fa-58b62416ce04{isolation:isolate}.a506b889-efaa-4ac6-98a7-6c31cc7d69d6{fill:#505050}</style></defs><g id="b7a847a3-f1ec-41b5-83eb-584e97af7659"><g id="fa73c19a-b1f6-4f0f-b0c3-9c1049c5dc14"><path d="M233.63 3A3.37 3.37 0 0 1 237 6.37v34a3.58 3.58 0 0 1-3.37 3.29H6.37A3.37 3.37 0 0 1 3 40.27V6.37A3.37 3.37 0 0 1 6.37 3h227.26m0-3H6.37A6.38 6.38 0 0 0 0 6.37v33.9a6.38 6.38 0 0 0 6.37 6.36h227.26a6.57 6.57 0 0 0 6.37-6.21V6.37A6.38 6.38 0 0 0 233.63 0z" class="b04cffdc-0604-4042-95a6-de90a463a61b"/><g class="bbf21e76-cf58-4047-84fa-58b62416ce04"><path d="M79.66 22.78c0 5.51-2.35 10.52-9.59 10.52H65l2.37-16.95H72c4 0 7.66 1.2 7.66 6.43zm-8.73-3.52l-1.57 11.16h1.3c4 0 5-4.33 5-7.64 0-2.91-1.44-3.52-3.4-3.52zm9.8 8.93c0-3.62 1.77-8.29 7.24-8.29 3.45 0 5.46 2.13 5.43 5.53 0 3.57-1.78 8.29-7.24 8.29-3.45 0-5.43-2.08-5.43-5.53zm8.78-3c0-1.71-.61-2.44-1.8-2.44-2.57 0-3.09 3.71-3.09 5.69 0 1.72.59 2.45 1.81 2.45 2.57-.01 3.06-3.73 3.08-5.71zm18.98 8.11H104l-.36-9.56-3 9.56h-4.57l-.91-13H99l-.1 10.12 3.4-10.11h3.7l.34 10.11 3-10.11h3.64zm16.58-9.39l-1.29 9.39H120l1.19-8.58c.2-1.32-.19-1.67-.75-1.67-1 0-2 1.28-2.87 3.11l-1 7.14h-3.79l1.81-13h3.3l-.07 2.28a5.53 5.53 0 0 1 4.42-2.69c2.05.01 3.2 1.5 2.83 4.02zm5.7 5.89c-.07.64.12.86.52.86a2 2 0 0 0 .63-.12l.47 2.69a6.23 6.23 0 0 1-2.45.49c-2.18 0-3.33-1.32-3-3.82l2.08-14.75 3.82-.41zm2.89-1.61c0-3.62 1.76-8.29 7.24-8.29 3.45 0 5.45 2.13 5.43 5.53 0 3.57-1.79 8.29-7.24 8.29-3.45 0-5.43-2.08-5.43-5.53zm8.78-3c0-1.71-.61-2.44-1.81-2.44-2.57 0-3.08 3.71-3.08 5.69 0 1.72.58 2.45 1.81 2.45 2.54-.01 3.05-3.73 3.08-5.71zm17.95-3.92l-1.2 8.31c-.1.86-.07 1.3.64 1.57l-1.1 2.49a3.09 3.09 0 0 1-3-2.15 4.6 4.6 0 0 1-3.87 2.23c-2.74 0-4.2-2-4.2-5.16 0-3.72 1.95-8.66 7.43-8.66a11 11 0 0 1 5.3 1.37zm-8.81 7.26c0 1.84.62 2.35 1.47 2.35s1.74-.68 2.47-1.81l.91-6.19a4 4 0 0 0-1.45-.24c-2.52 0-3.4 3.36-3.4 5.89zm23.9-13.38l-2.54 18.15h-3.38v-1.86a4.61 4.61 0 0 1-3.86 2.28c-2.71 0-4.09-2-4.09-5.24 0-3.54 1.79-8.58 6.22-8.58a3.87 3.87 0 0 1 3 1.25l.88-6.39zm-9.91 13.36c0 1.83.59 2.37 1.42 2.37 1.1 0 2-1.1 2.81-2.4l.69-4.84a2.17 2.17 0 0 0-1.81-.93c-2.42 0-3.11 3.65-3.11 5.8zm30.01-7.44c0 3.11-2 6.58-7.46 6.58h-1.86l-.78 5.65h-3.94l2.38-16.95h5.38c3.93 0 6.28 1.57 6.28 4.72zm-4.08.2c0-1.45-.88-2.06-2.6-2.06h-1.44l-.78 5.56h1.44c2.74 0 3.38-1.99 3.38-3.5zm19.15 1.51c0 5.51-2.35 10.52-9.59 10.52H196l2.37-16.95H203c4 0 7.65 1.2 7.65 6.43zm-8.73-3.52l-1.57 11.16h1.3c4 0 5-4.33 5-7.64 0-2.91-1.44-3.52-3.4-3.52zm21.3-.05h-5.6l-.64 4.5h4.89l-.39 2.87h-4.89l-1 6.72h-3.89l2.37-16.95h10z" class="a506b889-efaa-4ac6-98a7-6c31cc7d69d6"/></g><path d="M42.81 20.37a12 12 0 0 0-23.87 0A8.72 8.72 0 0 0 11.78 29a8.83 8.83 0 0 0 8.75 8.75h20.69A8.83 8.83 0 0 0 50 29a8.74 8.74 0 0 0-7.19-8.63zm-11.93 11L24.51 25h4.77v-6.38h3.19V25h4.77z" class="b04cffdc-0604-4042-95a6-de90a463a61b"/></g></g></svg>