<svg xmlns="http://www.w3.org/2000/svg" viewBox="0 0 152.8 31.3"><defs><style>.be3837e7-e5f9-4cfe-b1c4-5229c372f8be{fill:#2997ff;}.ef7fda4a-7c9c-4b20-b466-921c2888d124{fill:#505050;}.e648f4ee-6343-49e6-988a-95a87bf0b879{fill:none;stroke:#2997ff;stroke-miterlimit:10;stroke-width:2px;}</style></defs><g id="f1aa6cd9-6f47-44a1-ace5-bf01a90222fb" data-name="Layer 2"><g id="a1a91160-e1ab-40cc-aaf2-aeb327ccde93" data-name="Layer 1"><path class="be3837e7-e5f9-4cfe-b1c4-5229c372f8be" d="M28,6.9a128.47,128.47,0,0,0-15.2,0c-3.9.3-4.4,2.6-4.4,8.8s.5,8.5,4.4,8.8c3.6.2,11.6.2,15.2,0,3.9-.2,4.4-2.6,4.4-8.8S31.9,7.2,28,6.9ZM17.4,19.7v-8l8,4Z"/><path class="ef7fda4a-7c9c-4b20-b466-921c2888d124" d="M47.8,21.9h-3L43,10.1h2.6l1,9.7,3.7-9.7h2.6Zm6.1,0H51.5l1.3-9h2.4ZM53,9.7a1.58,1.58,0,0,1,1.6-1.6,1.21,1.21,0,0,1,1.3,1.3A1.58,1.58,0,0,1,54.3,11,1.21,1.21,0,0,1,53,9.7Zm12-.5L63.2,21.9H61.1V20.6a3.24,3.24,0,0,1-2.7,1.6c-1.9,0-2.9-1.4-2.9-3.6,0-2.4,1.2-6,4.3-6a2.76,2.76,0,0,1,2.1.9L62.7,9Zm-6.9,9.4c0,1.3.4,1.8,1.1,1.8.9,0,1.5-.8,2.1-1.8l.5-3.5a1.72,1.72,0,0,0-1.4-.8C58.6,14.4,58.1,17,58.1,18.6Zm9.3,0c.1,1.3.7,1.8,1.7,1.8a4.26,4.26,0,0,0,2.3-.8l.9,1.5a6.15,6.15,0,0,1-3.5,1.2A3.47,3.47,0,0,1,65,18.5c0-2.5,1.3-5.8,5-5.8,2.1,0,3.2,1.1,3.2,2.4C73.2,17.5,70.3,18.3,67.4,18.6Zm3.4-3.5c0-.4-.2-.9-1-.9-1.4,0-2.1,1.4-2.3,2.8C69.8,16.8,70.8,16.1,70.8,15.1Zm2.4,3.2c0-2.5,1.2-5.8,5-5.8a3.44,3.44,0,0,1,3.7,3.8c0,2.4-1.2,5.8-5,5.8C74.5,22.2,73.2,20.7,73.2,18.3Zm6.2-2.1c0-1.3-.5-1.8-1.4-1.8-1.9,0-2.3,2.7-2.3,4.1s.5,1.8,1.4,1.8C79,20.3,79.4,17.7,79.4,16.2ZM94.5,12h-3l-1.4,9.9H87.6L89,12H86l.3-2H95Zm-1,7.3.9-6.5h2.4l-.9,6.1c-.1,1,.1,1.3.7,1.3.8,0,1.4-.8,2-1.6l.8-5.8h2.4l-1.3,9H98.4l.1-1.4a3.73,3.73,0,0,1-2.9,1.7C94,22.2,93.2,21,93.5,19.3Zm11.7-.3c-.1.9.1,1.2.6,1.2a2.28,2.28,0,0,0,1.1-.3l.6,1.6a5.13,5.13,0,0,1-2.4.7c-1.8,0-2.7-1.1-2.4-3.1l.6-4.5H102l.2-1.7h1.4l.6-2,2-.2-.3,2.3H108l-.5,1.7h-1.8Z"/><path class="ef7fda4a-7c9c-4b20-b466-921c2888d124" d="M107.5,18.3c0-2.5,1.2-5.8,5-5.8a3.44,3.44,0,0,1,3.7,3.8c0,2.4-1.2,5.8-5,5.8C108.9,22.2,107.5,20.7,107.5,18.3Zm6.3-2.1c0-1.3-.5-1.8-1.4-1.8-1.9,0-2.3,2.7-2.3,4.1s.5,1.8,1.4,1.8C113.3,20.3,113.7,17.7,113.8,16.2Zm9.6-3.5-.7,2.4a2.2,2.2,0,0,0-.8-.1c-1.1,0-1.8,1.1-2.3,2.6l-.6,4.3h-2.4l1.3-9H120l-.1,1.7a3,3,0,0,1,2.6-2A2.48,2.48,0,0,1,123.4,12.7Zm1.6,9.2h-2.4l1.3-9h2.4Zm-.9-12.2a1.58,1.58,0,0,1,1.6-1.6A1.21,1.21,0,0,1,127,9.4a1.58,1.58,0,0,1-1.6,1.6A1.21,1.21,0,0,1,124.1,9.7Zm11.3,3.8-.9,5.9c-.1.6-.1.9.5,1.1l-.7,1.6c-1-.1-1.8-.5-2-1.5a3.15,3.15,0,0,1-2.7,1.5c-1.9,0-2.9-1.4-2.9-3.6,0-2.6,1.4-6,5.1-6a9.74,9.74,0,0,1,3.6,1Zm-6.2,5.1c0,1.3.5,1.8,1.2,1.8s1.3-.5,1.9-1.3l.6-4.5a2.15,2.15,0,0,0-1.1-.2c-1.9-.1-2.6,2.4-2.6,4.2Zm9.2,1c-.1.4.1.6.4.6a.9.9,0,0,0,.5-.1l.3,1.7a4.53,4.53,0,0,1-1.6.3c-1.5,0-2.2-.9-2-2.6l1.5-10.4,2.4-.3-1.5,10.8Z"/><path class="e648f4ee-6343-49e6-988a-95a87bf0b879" d="M147.8,30.3H5a4,4,0,0,1-4-4V5A4,4,0,0,1,5,1H147.8a4,4,0,0,1,4,4V26.4A4.13,4.13,0,0,1,147.8,30.3Z"/></g></g></svg>