<svg xmlns="http://www.w3.org/2000/svg" width="2009.84" height="775.62" viewBox="0 0 2009.84 775.62"><defs><style>.cls-1{isolation:isolate}.cls-2{fill:#b3b3b3}.cls-3,.cls-5{fill:#2997ff}.cls-4{fill:none}.cls-5{mix-blend-mode:multiply}</style></defs><g class="cls-1"><g id="Layer_2"><g id="Layer_1-2"><path d="M2009.84 392.22c0 90.46-38.47 189.24-100.86 259.94-54.06 59.27-125.81 92.54-200.67 92.54-164.31 0-302.57-164.28-302.57-357.7 0-192.35 138.29-356.64 301.53-356.64 166.36.02 302.57 163.27 302.57 361.86zm-438.78-265.14c-23.91 40.55-33.27 113.33-33.27 261 0 160.12 10.4 229.79 40.55 271.38 28.07 38.47 75.9 61.35 130 61.35 58.23 0 110.21-27 136.21-72.79 23.91-40.55 33.27-113.33 33.27-255.78 0-165.32-10.4-235-39.51-276.58-28.07-38.47-76.94-61.34-130-61.34-60.31-.02-111.26 27.01-137.25 72.76zM132.05 688.55c16.64 20.8 42.63 32.24 73.82 32.24 64.47 0 112.3-41.59 138.29-118.54h26C333.76 700 279.7 744.7 199.64 744.7 92.54 744.7 0 645.92 0 532.59c0-117.5 95.66-217.31 209-217.31 42.75 0 81.85 14.31 108.73 36.66h-51.79c-14.07-7.44-34.44-12.75-53.83-12.75-37.43 0-65.5 14.56-81.1 42.63-13.52 26-20.79 86.3-20.79 178.84 0 39.92 3.95 100.04 21.83 127.89z" class="cls-2"/><path d="M283.86 371.42c0 3.12-1 4.16-4.16 7.28-13.52 15.6-20.8 33.28-20.8 48.87 0 28.08 19.76 48.87 46.79 48.87 29.11 0 48.87-21.83 48.87-54.07 0-26.72-14-51.47-36.84-70.43h-51.78c10.83 5.72 17.92 12.7 17.92 19.48z" class="cls-3"/><path d="M846.36 566.9L745.63 702.16h193.78L846.36 566.9zm43.67-96.7l85.64-113.23H813.91l76.12 113.23z" class="cls-4"/><path d="M1006.78 356.97h-31.11L890.03 470.2l-76.12-113.23H703.8l129.04 189.14-117.28 156.05h30.07L846.36 566.9l93.05 135.26h109.15L903.55 492.04l103.23-135.07z" class="cls-2"/><path d="M947.22 713.51h-43.67v20.79h195.47v-20.79h-42.63l-7.83-11.35H939.41l7.81 11.35zm-297.37 0v20.79h166.36v-20.79h-79.02l8.44-11.35h-30.07l-8.53 11.35h-57.18zm157-367.04h61.35v-20.79H649.85v20.79h46.78l7.17 10.5h110.11l-7.06-10.5zm278.66 0v-20.79H916.02v20.79h67.59l-7.94 10.5h31.11l8.02-10.5h70.71z" class="cls-3"/><rect width="64.79" height="775.62" x="1675.39" class="cls-5" rx="21.1"/></g></g></g></svg>