<svg xmlns="http://www.w3.org/2000/svg" width="1272.44" height="775.62" viewBox="0 0 1272.44 775.62"><defs><style>.cls-1{isolation:isolate}.cls-2{fill:#b3b3b3}.cls-3,.cls-4{fill:#2997ff}.cls-3{mix-blend-mode:multiply}</style></defs><g class="cls-1"><g id="Layer_2"><g id="Layer_1-2"><path d="M1167.62 135.15c66.26 58.35 104.82 150.31 104.82 251.18 0 204.69-144.37 343.13-359 343.13-215.57 0-359-139.43-359-350.06 0-193.81 148.33-333.24 355-333.24 97.99 0 193.91 33.62 258.18 88.99zM730.55 149c-39.55 47.46-64.28 139.43-64.28 235.35 0 113.72 26.7 205.68 72.19 253.15 43.51 44.5 102.84 67.24 178 67.24 157.23 0 244.25-112.73 244.25-316.44 0-114.71-29.67-205.68-82.08-255.12-42.52-40.55-100.86-62.3-166.12-62.3-75.17 0-141.42 28.68-181.96 78.12z" class="cls-2"/><rect width="64.79" height="775.62" x="881.09" class="cls-3" rx="21.1"/><path d="M144.37 54.14H133.5C117.67 63 40.54 75.89 9.89 74.91v22.74h6.92c32.71 0 48.29 7.66 54.36 35.14h73.2z" class="cls-4"/><path d="M67.24 682.07c-8.9 13.84-22.74 19.77-52.41 18.78H0v22.75h202.72v-22.75h-3c-33.12-1.2-47.17-3.87-52.65-29.67H71.39a47.51 47.51 0 0 1-4.15 10.89zM444 700.85c-28.68-4-46.48-16.81-84.05-61.3L218.54 473.42l6.05-4.68-12.37-15c-9.92 7.92-19.26 15-26.31 19.7l-41.54 29.66V132.79h-73.2c2.92 13.24 3.64 31.06 3 54.85V540h70.21v-10.22L165.14 514 267 632.62c28.68 33.63 32.63 38.57 32.63 47.47 0 13.84-14.83 19.78-44.49 20.76h-4.95v22.75h198.75v-22.75z" class="cls-2"/><path d="M406.42 347.83h4v-22.74H250.18v22.74h7.91c19.78 0 29.67 6.92 29.67 21.76 0 7.72-3 15.46-10.49 25.07l14.86 18.06c48.22-43.24 80.77-61.93 114.29-64.89z" class="cls-2"/><path d="M249.19 449.68c5.94-4.94 28.68-24.72 42.52-36.58l.42-.38-14.86-18.06c-2.09 2.69-4.5 5.52-7.31 8.55-7.64 8.33-34.32 31.8-57.74 50.51l12.37 15zM74.16 587.14v30.65c0 16.81 0 26.7-1 31.64 0 10.3-.6 16.73-1.79 21.75h75.73c-3.52-16.57-3.5-42.67-2.73-84V540H74.16z" class="cls-4"/></g></g></g></svg>