<svg xmlns="http://www.w3.org/2000/svg" id="Layer_1" width="1959.2" height="781.6" viewBox="0 0 1959.2 781.6"><style>.st0{fill:#b3b3b3}.st1{fill:none}.st2{fill:#2997ff}</style><g id="Layer_2_00000183212487048586890800000013042233992550751382_"><g id="Layer_1-2"><path d="M1928.4 376.1c0 124.3-60.6 217.2-114.2 269.8-69.7 68.7-160.7 90.9-215.2 90.9-108.1 0-223.3-47.5-292-124.3-51.6-56.6-85.9-147.5-85.9-229.3 0-85.9 34.3-174.8 114.2-246.5 63.7-57.6 154.6-91.9 242.5-91.9 183.9 0 350.6 146.5 350.6 331.3zM1395 154.9c-53.5 61.6-68.7 154.6-68.7 218.2 0 93 33.3 175.8 88.9 231.4 66.7 68.7 130.3 93 198 93 104.1 0 215.2-88.9 215.2-278.9 0-89.9-24.2-180.9-94-255.6-40.4-44.5-104.1-81.8-188.9-81.8-48.5-.1-100 18.1-150.5 73.7z" class="st0"/><path d="M161.7 329.9c-6.1 0-16.2 3-25.3 9.1-30 21-46.1 70.6-45.5 112.7l148.9-37.9c1.2-2.9 1.8-6 1.7-9.2 0-28.2-38.4-74.7-79.8-74.7z" class="st1"/><path d="M335.4 429.9l-42.6 9.4c15.6-3.3 30.1-6.4 42.6-9.4zm-199-90.9c9.1-6.1 19.2-9.1 25.3-9.1 41.4 0 79.8 46.5 79.8 74.8.1 3.1-.5 6.3-1.7 9.2l80.4-20.5c-9.1-27.2-22.2-48.4-39.3-66.5-17.2-17.2-52.5-35.4-85.9-35.4-27.3 0-63.6 13.1-89.9 31.3-44.3 32.6-87.2 83.9-100.7 150.9l86.5-22c-.6-42.1 15.5-91.7 45.5-112.7zM92 483.8L.4 504c-.3 4.6-.4 9.2-.4 13.8C0 583.5 29.3 628 44.5 645.1c13.1 14.2 57.6 56.6 129.3 56.6 10.1 0 24.2-1 37.4-5 33.4-10.1 81.8-30.3 125.3-66.7 6.1-6.1 7.1-13.1 9.1-37.4 0-3-12.1-3-16.2 1-34.4 30.3-73.8 49.5-120.2 49.5-67.7 0-120.2-42.4-123.3-141.5 0-10.3 1.7-16.2 6.1-17.8z" class="st0"/><path d="M93 483.5c35.6-10.8 129-29 199.9-44.1l42.7-9.4c9-3.1 16.1-21.2 18.1-30.3 2-4 2-7.1-1-9.1-3-3-22.2 1-32.3 3l-.1-.2-80.4 20.5c-1.7 3.8-5.3 6.5-9.4 7-45.5 12.2-92 19.2-139.5 32.4v-1.5l-86.5 22c-2 10-3.3 20.1-4 30.3L92 483.8c.3-.2.7-.2 1-.3zM1451.5 7.1l21.7-6.3c11.2-3.3 22.9 3.2 26.2 14.4l213.1 733.1c3.3 11.2-3.2 22.9-14.4 26.2l-21.7 6.3c-11.2 3.3-22.9-3.2-26.2-14.4L1437.1 33.3c-3.2-11.2 3.2-22.9 14.4-26.2z" class="st2"/></g></g><path d="M1043.7 675.1c-50.5-8.6-56.2-14.3-100.9-57.1-34.3-31.4-106.6-103.8-124.7-124.7-10.5-11.4-7.6-16.2 0-22.8 42.8-34.3 81.9-65.7 106.6-82.8 25.7-18.1 50.5-27.6 79-31.4 7.6-1 11.4-1.9 13.3-9.5 1.9-6.7 1.9-12.4 1.9-18.1 0-2.9-1-3.8-5.7-3.8-50.5 4.8-116.2 7.6-166.6 7.6-3.8 0-5.7 1.9-6.7 8.6l-4.8 19c-1 3.8 1 5.7 4.8 5.7h26.7c8.6 0 14.3 4.8 6.7 12.4-24.8 27.6-97.1 90.4-109.5 100-13.3 11.4-24.8 17.1-27.6 17.1-3.8 0-4.8-1.9-4.8-11.4l3.8-294.2c.4-21 .7-39 .9-54.5h-76.6c1.3 6.4 2.1 15.1 2.5 27.8 2.9 77.1 1 163.8 1 243.7 0 140.9-3.8 225.6-10.5 248.5-3.8 10.5-11.4 12.4-40.9 19-4.8 1-5.7 4.8-6.7 10.5L602 698c-1 4.8 1 5.7 5.7 5.7 17.1 0 59-1.9 94.3-1.9 48.6 0 67.6 1.9 73.3 1.9 4.8 0 7.6-1 8.6-4.8 2.9-6.7 3.8-13.3 3.8-23.8 0-8.6-1-10.5-5.7-10.5-9.5 0-31.4 1.9-40 1.9-6.7 0-12.4-10.5-12.4-62.8v-70.5c1-12.4 1.9-17.1 5.7-17.1 3.8 0 13.3 3.8 25.7 16.2 42.8 44.7 84.7 86.6 126.6 128.5 8.6 8.6 1.9 11.4-21.9 15.2-2.9 0-4.8 1.9-1 13.3l4.8 11.4c1 2.9 1.9 3.8 5.7 3.8 63.8-1 97.1-1.9 121.9 0 18.1 0 36.2 1 46.7 1 3.8 0 5.7-1.9 5.7-7.6-.1-19-.1-21.9-5.8-22.8z" class="st0"/><path d="M736.2 47.7c0-14.3-3.8-18.1-14.3-15.2-8.6 3.8-96.2 38.1-103.8 44.7-1.9 3.8-2.9 12.4 3.8 17.1 4.8 4.8 15.2 12.4 27.6 22.8 5 4.4 8.1 8.9 9.9 17.9H736c.8-56.5.2-78.4.2-87.3z" class="st2"/></svg>