<svg xmlns="http://www.w3.org/2000/svg" viewBox="0 0 1404.94 781.61" width="1404.94" height="781.61"><defs><style>.cls-1{isolation:isolate}.cls-2{fill:#b3b3b3}.cls-3{fill:none}.cls-4,.cls-5{fill:#2997ff}.cls-5{mix-blend-mode:multiply}</style></defs><g class="cls-1"><g id="Layer_2"><g id="Layer_1-2"><path d="M1404.94 376.15c0 124.28-60.62 217.23-114.17 269.77-69.72 68.7-160.65 90.93-215.21 90.93-108.1 0-223.29-47.49-292-124.27C732 556 697.69 465.07 697.69 383.23c0-85.88 34.35-174.8 114.17-246.53 63.65-57.59 154.58-91.94 242.49-91.94 183.88 0 350.59 146.5 350.59 331.39zM871.47 154.89c-53.55 61.63-68.7 154.58-68.7 218.23 0 93 33.34 175.81 88.91 231.37 66.68 68.71 130.33 93 198 93 104.06 0 215.2-88.91 215.2-278.86 0-89.92-24.25-180.85-94-255.62-40.41-44.46-104.07-81.84-188.94-81.84-48.42-.04-99.94 18.15-150.47 73.72z" class="cls-2"/><path d="M161.66 329.91c-6.06 0-16.17 3-25.26 9.09-30 21-46.09 70.57-45.48 112.7l148.89-37.86a22.15 22.15 0 0 0 1.66-9.16c0-28.29-38.39-74.77-79.81-74.77z" class="cls-3"/><path d="M335.44 429.93h.08l-42.7 9.44c15.57-3.37 30.06-6.52 42.62-9.44zM136.4 339c9.09-6.06 19.2-9.09 25.26-9.09 41.42 0 79.81 46.48 79.81 74.77a22.15 22.15 0 0 1-1.66 9.16l80.41-20.45c-9.09-27.2-22.2-48.36-39.34-66.51-17.18-17.18-52.54-35.36-85.88-35.36-27.28 0-63.65 13.13-89.92 31.32C60.8 355.42 17.93 406.67 4.41 473.7l86.51-22c-.61-42.13 15.52-91.7 45.48-112.7zM92 483.77L.45 504c-.28 4.56-.45 9.16-.45 13.84C0 583.51 29.3 628 44.46 645.14c13.13 14.15 57.59 56.58 129.32 56.58 10.1 0 24.25-1 37.38-5.05 33.35-10.1 81.84-30.31 125.29-66.67 6.06-6.06 7.07-13.13 9.09-37.38 0-3-12.12-3-16.16 1-34.36 30.31-73.76 49.51-120.24 49.51-67.69 0-120.23-42.44-123.26-141.45 0-10.36 1.76-16.33 6.12-17.91z" class="cls-2"/><path d="M93 483.48c35.62-10.77 129-29 199.87-44.14l42.7-9.44c9.05-3.11 16.09-21.21 18.1-30.28 2-4 2-7.07-1-9.09-3-3-22.22 1-32.33 3l-.06-.17-80.41 20.45a11.83 11.83 0 0 1-9.45 7C184.9 433 138.42 440 90.93 453.17v-1.47l-86.51 22A221.82 221.82 0 0 0 .45 504L92 483.77a6.63 6.63 0 0 1 1-.29z" class="cls-4"/><rect width="64.79" height="805.64" x="1018.92" y="-12.02" class="cls-5" rx="21.1" transform="rotate(-16.21 1051.315 390.8)"/></g></g></g></svg>