<svg xmlns="http://www.w3.org/2000/svg" viewBox="0 0 1074.87 653.51" width="1074.87" height="653.51"><defs><style>.cls-1{fill:#b3b3b3}</style></defs><g id="Layer_2"><path id="Layer_1-2" d="M54.67 139.62c0-38.69-11.78-50.47-27.76-52.15L0 82.42V5.05h465.11l62.24 82.42v66.45l-26.08 4.2c-15.13 1.68-28.59 19.34-28.59 64.76v277.55l54.67 71.49v63.93H307l-17.67-19.35v19.35H53.83L0 565.2v-77.38l32.8-5.05c16-3.36 21.87-26.91 21.87-56.35zm109.34 0c0-39.53 10.09-63.92 27.75-67.29l26.08-4.2V20.19H15.14v47.94l26.91 4.2C58.88 75.7 69 100.09 69 139.62v291c0 38.69-6.73 63.09-26.92 67.29l-26.91 4.21v47.94h203.51v-47.94l-26.92-4.21c-21-4.2-27.75-28.6-27.75-67.29V315.4h137.93v115.22c0 38.69-6.73 63.09-28.59 67.29l-26.08 4.21v47.94H450v-47.94l-26.07-4.21c-21-4.2-27.76-28.6-27.76-67.29v-291c0-39.53 10.09-63.92 27.76-67.29l26.07-4.2V20.19H247.27v47.94l26.08 4.2c18.5 3.37 28.59 27.76 28.59 67.29v101.77H164zM435.67 34.48V53l-21.87 3.35c-21 3.37-32.8 34.49-32.8 83.27v136.25c-6.73-6.73-18.5-6.73-30.28 0 3.37 10.93 13.46 28.6 25.24 41.21-11.78 27.76-21.87 66.45-27.76 137.92-5.05-71.49-15.14-110.18-26.91-137.94 11.77-12.61 21.86-30.28 26.07-41.21a85.92 85.92 0 0 0-58 0 81.16 81.16 0 0 0-56.35 0c-19.35-6.73-38.69-6.73-57.2 0-19.34-6.73-37.85-6.73-58 0 5 10.93 14.3 28.6 26.07 41.21-11.77 27.76-21 66.45-26.91 137.94-5.97-71.47-15.2-110.16-27.82-137.92 12.62-12.61 21.87-30.28 26.08-41.21-12.62-6.73-24.4-6.73-31.12 0V139.62c0-48.78-11.78-79.9-32.8-83.27L29.44 53V34.48h174.1V53l-21.87 3.36c-21 3.37-32.8 34.49-32.8 83.27v116.9h167.37V139.62c0-48.78-10.93-79.9-32.8-83.27l-21-3.36V34.48zM117.75 275c5-29.44 14.3-46.26 26.07-58.88-11.77-20.18-21-50.46-26.91-113.54C111 165.69 101.77 196 89.15 216.15c12.62 12.62 21.85 29.44 26.08 58.85zm169.05-47.91v-73.17l-18.5 2.52c-20.19 2.52-27.76 21-27.76 62.24v8.41zm-46.26 260.73l29.46-5.05c11.78-2.52 16.82-16.82 16.82-52.15v-30.27h-46.28zM350.72 275c3.37-29.44 13.46-46.26 25.24-58.88-11.78-20.12-21.87-50.43-27.76-113.51-5.05 63.08-15.14 93.36-26.91 113.54 11.77 12.62 21.86 29.44 26.07 58.88zm191.76-70.62C542.48 86.63 633.31 0 731.71 0c160.65 0 250.64 143 250.64 244.75v149.71c60.56 42.89 92.52 95.88 92.52 153.92 0 59.71-58 105.13-109.34 105.13-37 0-64.76-14.3-91.68-34.49-20.18 12.62-51.3 21.87-95.88 21.87-120.27 0-235.49-120.27-235.49-296zm15.13 140.46c0 102.61 50.47 210.26 174.1 210.26 45.42 0 88.32-14.3 102.61-33.64 19.35 31.12 50.47 46.26 76.54 46.26 50.47 0 86.63-32 86.63-90.84 0-32-8.41-63.92-29.44-69-.84 32-10.09 58-29.43 58-20.19 0-32-16-42.9-32.8 3.37-12.62 10.1-47.94 10.1-88.31V204.38c0-87.47-69-190.08-174.11-190.08s-174.1 105.13-174.1 190.08zm98.41-69c-6.73-6.73-23.55-6.73-40.37 0 4.2 10.93 14.3 27.75 26.07 41.21C630 344.84 619.85 383.53 626.58 455c-26.07-71.49-33.64-110.18-39.53-137.94 11.78-13.46 20.19-30.28 26.07-41.21-16-6.73-33.64-6.73-41.21 0v-71.47c0-72.33 58-175.78 159.8-175.78 100.93 0 159 103.45 159 175.78v71.49c-7.57-6.73-24.39-6.73-41.22 0 5.89 10.93 14.3 27.75 26.08 41.21-5.89 27.76-12.62 66.45-38.69 137.94 5.89-71.49-3.37-110.18-16-137.94a137.41 137.41 0 0 0 26.07-41.21c-16.82-6.73-33.64-6.73-40.37 0V162.33c0-84.11-32-108.5-74.86-108.5C688 53.83 656 78.22 656 162.33zm-40.37-1.68c4.2-29.44 14.3-45.42 26.07-58.88-15.14-32.8-15.14-67.28-8.41-112.7-24.39 38.69-37 69.81-46.26 112.7 11.78 13.46 21 29.44 26.07 58.88zM672 162.33c0-47.1 9.25-93.36 59.71-93.36 49.63 0 59.72 46.26 59.72 93.36v201c-16.82-23.55-40.37-31.12-63.08-31.12-23.55 0-42.89 5.89-56.35 23.55zm0 286.8c0-32 15.14-58 55.51-58 34.48 0 63.92 29.43 63.92 59.71 0 24.39-21 50.47-59.72 50.47-35.32-.03-59.71-20.22-59.71-52.18zm105.13-257.37c0-33.64-1.68-57.19-13.45-57.19-10.1 0-16 16.82-16 61.4v122.79c9.25 1.69 20.18 5.05 29.43 11.78zm-19.34 286c8.41 0 19.34-13.45 19.34-26.91 0-10.93-9.25-29.44-18.5-29.44-8.41 0-10.93 11.78-10.93 28.6 0 13.42 3.36 27.71 10.09 27.71zm91.67-203.53c5-29.44 14.3-45.42 26.08-58.88-9.25-42.89-21.87-74-46.26-112.7 6.73 45.42 6.73 79.9-8.41 112.7 12.61 13.46 21.87 29.44 26.07 58.88z" class="cls-1"/></g></svg>