<svg xmlns="http://www.w3.org/2000/svg" viewBox="0 0 1099.33 546.22" width="1099.33" height="546.22"><defs><style>.cls-1{fill:#b3b3b3}</style></defs><g id="Layer_2"><path id="Layer_1-2" d="M197.89 232.62c-16.86 10-33.72 21.45-33.72 29.12 0 4.6 13.79 10 19.16 11.49 16.09 5.37 23 13.8 20.69 26.83-6.13 29.88-45.22 70.5-67.44 89.66-29.12 26.06-50.58 46.75-64.37 63.61-13 15.32-14.57 26.05-9.2 29.12 11.49 6.9 52.88-19.93 71.27-32.95 21.46-15.33 59.78-49.05 82-68.21 3.07-1.53 6.13-4.6 9.2-.77 2.3 2.3.76 6.9-1.54 8.43-26.82 23.76-62.84 53.65-85.06 69.74-26.06 18.39-56.71 36.79-73.57 36.79-17.63 0-26.06-11.5-25.29-27.59.76-31.42 28.35-68.21 76.63-110.36 29.13-25.29 68.21-59.77 67.44-67.44-.76-6.09-6.09-6.09-16.86-11.49-6.89-3.07-11.49-6.9-13.79-10-17.63 18.4-36.79 38.4-56.71 58.28-26.82 26.06-63.61 58.24-87.37 79.7-3.06 1.53-6.89 1.53-8.43-.77-2.29-2.3 0-6.89 3.07-9.19 25.29-22.23 57.48-51.35 83.53-76.62 25.29-23.76 44.45-42.91 62.08-62.07 0-10.73 12.26-26.83 29.89-41.39 13-10 27.58-15.32 35.25-16.86 5.36-1.53 26.82-3.06 29.89 0 5.36 4.58-36.02 26.81-46.75 32.94zm791.63 24.52c-26 42.92-60.54 86.6-98.09 121.08-100.39 92-241.4 164-347.16 167.84-63.61 2.3-144.84-19.16-147.91-112.66-3.06-82.76 72.81-210.75 197.72-305.77C734.33 21.87 878.4-6.49 969.6 1.18c68.2 6.89 124.15 42.15 129.51 114.18 3.89 62.85-42.91 131.05-109.59 141.78zM971.13 12.67C883 3.48 755.79 46.39 621.67 152.15c-121.08 95.79-210 201.55-208.45 280.49 0 107.29 107.29 103.45 141.78 101.16-74.34-14.57-68.21-95-42.15-149.44 38.32-84.3 99.63-149.44 164.77-199.26C777.24 110 897.56 72.45 970.37 81.64c39.85 4.6 72 37.56 57.47 89.67-6.89 24.52-18.39 51.34-33.72 78.17 55.18-18.4 89.67-83.54 85.84-134.88-5.37-65.91-50.58-96.6-108.83-101.93zm-2.3 78.17c-71.27-7.66-175.49 40.62-272.82 115-62.84 48.28-136.41 113.43-171.66 184.7-26.06 51.29-38.35 138.66 61.3 138.66 94.27-18.4 201.56-85.84 291.22-170.13 61.31-58.25 122.62-131.82 140.24-191.59 13.03-46.75-13.79-72.81-48.28-76.64z" class="cls-1"/></g></svg>