<svg xmlns="http://www.w3.org/2000/svg" id="Layer_1" width="2009.8" height="775.6" viewBox="0 0 2009.8 775.6"><style>.st0{fill:none}.st1{fill:#b3b3b3}.st2{fill:#2997ff}.st3{fill:#99cdff}</style><path d="M1710.2 718c44.9-8 83.2-32.8 104.4-70 23.9-40.5 33.2-113.1 33.3-255.2h-137.6V718zm0-660.9v325.1h137.6c-.4-158.1-11-225.8-39.5-266.6-22.3-30.5-57.8-51.3-98.1-58.5zm-202.4 335.7c.2 156.7 10.7 225.4 40.5 266.6 22.2 30.4 56.8 51.1 97.1 58.4v-325h-137.6zm137.6-335.7c-45.7 8-83.2 32.8-104.3 70-23.6 40-33 111.4-33.3 255.1h137.6V57.1z" class="st0"/><path d="M1808.3 115.7c28.5 40.7 39.1 108.4 39.5 266.6h131.9c-4.2-180.9-121.2-330.2-269.5-349.7v24.6c40.3 7.1 75.8 27.9 98.1 58.5zM1541 127.1c21.1-37.1 58.7-62 104.3-70V32.5c-147.6 19.5-267.5 172.1-269.6 349.8h132c.3-143.8 9.7-215.2 33.3-255.2zm7.3 532.4c-29.8-41.2-40.3-109.9-40.5-266.6h-132c2.6 177.8 121.8 329.7 269.6 349.6v-24.6c-40.3-7.3-74.9-28-97.1-58.4zm266.2-11.5c-21.1 37.2-59.5 62-104.4 70v24.6c63.1-8 122.5-39.7 168.8-90.5 62.2-70.5 100.7-169 100.9-259.3h-132c0 142.1-9.4 214.7-33.3 255.2zM205.9 720.8c-31.2 0-57.2-11.4-73.8-32.2-17.9-27.9-21.8-88-21.8-127.9 0-92.5 7.3-152.8 20.8-178.8 15.6-28.1 43.7-42.6 81.1-42.6 19.4 0 39.8 5.3 53.8 12.8h51.8c-26.9-22.3-66-36.7-108.7-36.7C95.7 315.3 0 415.1 0 532.6c0 113.3 92.5 212.1 199.6 212.1 80.1 0 134.1-44.7 170.5-142.5h-26c-25.9 77-73.8 118.6-138.2 118.6z" class="st1"/><path d="M283.9 371.4c0 3.1-1 4.2-4.2 7.3-13.5 15.6-20.8 33.3-20.8 48.9 0 28.1 19.8 48.9 46.8 48.9 29.1 0 48.9-21.8 48.9-54.1 0-26.7-14-51.5-36.8-70.4H266c10.8 5.7 17.9 12.6 17.9 19.4z" class="st2"/><path d="M975.7 357H813.9L890 470.2zM745.6 702.2h193.8l-93-135.3z" class="st0"/><path d="M903.5 492l103.3-135h-31.1L890 470.2 813.9 357H703.8l129 189.1-117.2 156.1h30l100.8-135.3 93 135.3h109.2zm-57.1 74.9l93 135.3z" class="st1"/><path d="M745.6 702.2h-30l-8.6 11.3h-57.2v20.8h166.4v-20.8h-79zm303 0H939.4l7.8 11.3h-43.7v20.8H1099v-20.8h-42.6zM806.8 346.5h61.4v-20.8H649.8v20.8h46.8l7.2 10.5h110.1zm200 10.5l8-10.5h70.7v-20.8H916v20.8h67.6l-7.9 10.5zm703.4-324.5V21.1c0-11.7-9.4-21.1-21.1-21.1h-22.6c-11.7 0-21.1 9.4-21.1 21.1v11.4c10.5-1.4 21.1-2.1 31.9-2.1 11.1 0 22 .7 32.9 2.1zm-64.8 710v12c0 11.7 9.4 21.1 21.1 21.1h22.6c11.7 0 21.1-9.4 21.1-21.1v-11.9c-10.5 1.3-21.2 2-31.9 2-11.1.1-22.1-.7-32.9-2.1zm32.9-688.2c-11.3 0-22.3.9-32.9 2.8v660.7c10.6 1.9 21.7 2.9 32.9 2.9 10.9 0 21.5-.9 31.8-2.8V57.1c-10.3-1.8-21-2.8-31.8-2.8z" class="st2"/><path d="M1678.3 54.3c10.8 0 21.5 1 31.9 2.8V32.5c-10.8-1.4-21.8-2.2-32.9-2.2-10.7 0-21.4.7-31.9 2.1v24.7c10.5-1.8 21.5-2.8 32.9-2.8zm0 666.5c-11.3 0-22.3-1-32.9-2.9v24.6c10.8 1.5 21.8 2.2 32.9 2.2 10.7 0 21.3-.7 31.9-2V718c-10.4 1.9-21 2.8-31.9 2.8z" class="st2"/><path d="M1375.7 382.2h-16.5c-1.3 0-2.3 1-2.3 2.3v6c0 1.3 1 2.3 2.3 2.3h16.5v-10.6zm620.6 0h-16.6c.1 3.3.1 6.7.1 10v.6h16.5c1.3 0 2.3-1 2.3-2.3v-6c0-1.3-1-2.3-2.3-2.3zm-350.9 0h-137.6v10.7h137.6v-10.7zm64.8 10.6h137.6v-10.6h-137.6v10.6zm-202.4-4.7v-5.9h-132v10.6h132v-4.7z" class="st3"/><path d="M1979.8 392.2c0-3.3 0-6.7-.1-10h-131.9v10.6h132v-.6z" class="st3"/></svg>