<svg xmlns="http://www.w3.org/2000/svg" viewBox="0 0 1373.17 775.62" width="1373.17" height="775.62"><defs><style>.cls-1{isolation:isolate}.cls-2{fill:#b3b3b3}.cls-3,.cls-4{fill:#2997ff}.cls-4{mix-blend-mode:multiply}</style></defs><g class="cls-1"><g id="Layer_2"><g id="Layer_1-2"><path d="M1373.17 387.31c0 211.7-147.48 354.17-366.21 354.17-107.36 0-193.64-30.1-260.87-92.3C672.85 583 637.73 495.67 637.73 382.29c0-101.34 39.13-194.65 108.36-255.85 69.23-62.21 153.51-92.3 259.91-92.3 219.69 0 367.17 141.46 367.17 353.17zm-578.92-4c0 91.31 15 150.5 52.18 200.67 37.12 51.17 91.3 78.26 159.53 78.26 67.22 0 121.4-27.09 158.52-78.26 36.12-49.16 52.18-109.36 52.18-195.65 0-87.29-16.06-149.5-52.18-196.65-38.12-51.17-92.3-78.26-158.52-78.26-132.44-.02-211.71 101.31-211.71 269.87zm-457.13-144.5c-54.18 0-89.3 23.08-127.42 83.28v-70.23h-.06V350H87.74c1.18 7.44 1.56 16.7 1.56 28.26V596c0 6.91-.14 13-.52 18.34h121.43c-.38-5.37-.51-11.45-.51-18.34V468.58c0-48.16 12-94.32 32.1-124.42C262.87 313.06 296 292 323.07 292c10 0 26.09 4 44.15 10-43.14 14.05-60.2 33.11-60.2 67.23 0 37.12 27.09 61.2 68.23 61.2 47.15 0 80.26-35.12 80.26-84.28 0-62.15-50.16-107.34-118.39-107.34z" class="cls-2"/><path d="M32.11 655.2H0v67.22h317.05V655.2h-50.16c-43.14-1.73-54.38-7.91-56.68-40.86H88.78c-2.31 32.72-13.56 38.27-56.67 40.86zm177.53-403.34H0v67.22h32.11c38.61 1.55 51.66 6.07 55.63 30.94h121.9z" class="cls-3"/><rect width="64.79" height="775.62" x="973.06" class="cls-4" rx="21.1"/></g></g></g></svg>