<svg xmlns="http://www.w3.org/2000/svg" id="Layer_1" width="1750.2" height="775.6" viewBox="0 0 1750.2 775.6"><style>.st0{fill:#b3b3b3}.st1{fill:#2997ff}</style><path d="M429.9 552.3c-34.4 76.7-111.1 126-195.6 126-118.1 0-214.4-94.7-214.4-212 0-116.6 92.3-216.7 211.2-216.7 122 0 215.9 94.7 215.9 215.9v15.6H71.6c4.7 84.5 76.7 151 161.2 151 59.5 0 112.7-28.2 142.4-79.8h54.7zm-31.2-113.4c-11.7-83.7-84.5-142.4-168.2-142.4-79 0-149.4 64.9-158.8 142.4h327zm755.2-52.4c0-162.7 131.4-292.6 294.9-292.6 160.4 0 292.6 129.9 292.6 288.7 0 162.7-129.1 295.7-292.6 295.7-162.6 0-294.9-129.9-294.9-291.8zm531.2-1.6c0-128.3-105.6-234.7-236.3-234.7-131.4 0-238.6 104.8-238.6 234.7 0 131.4 105.6 237 237.8 237v.8c131.5-.8 237.1-107.2 237.1-237.8z" class="st0"/><g id="Layer_2_00000122700580760625442030000008156785929231092648_"><path id="Layer_1-2" d="M1436.4 38.3h22.6c11.7 0 21.1 9.4 21.1 21.1v653.4c0 11.7-9.4 21.1-21.1 21.1h-22.6c-11.7 0-21.1-9.4-21.1-21.1V59.4c0-11.7 9.5-21.1 21.1-21.1z" class="st1"/></g><path d="M761.1 445.1l154.1-140h67.3v-48.5H789.3v48.5h61.8l-151 134.6V157.1H578v.1h70.5v461.6H578v48.5h184.7v-48.5h-62.6V453l164.1 165.6h69.6L761.1 445.1z" class="st0"/><path d="M578 108.7h122v48.4H578zm228.5 510.1v48.5h201.8v-48.5H934l-.2-.2h-69.6l.2.2zm-573 79.7c-62.7 0-121.6-24.4-165.9-68.7S-1.1 526.6-1.1 464s24.4-121.6 68.7-165.9 103.2-68.7 165.9-68.7 121.6 24.4 165.9 68.7C443.6 342.4 468 401.3 468 464s-24.4 121.6-68.7 165.9c-44.3 44.2-103.2 68.6-165.8 68.6zm0-459.1c-60 0-116.4 23.4-158.8 65.8C32.3 347.6 8.9 404 8.9 464s23.4 116.4 65.8 158.8c42.4 42.4 98.8 65.8 158.8 65.8s116.4-23.4 158.8-65.8C434.6 580.3 458 523.9 458 464s-23.4-116.4-65.8-158.8c-42.4-42.4-98.8-65.8-158.7-65.8z" class="st1"/></svg>