<svg xmlns="http://www.w3.org/2000/svg" viewBox="0 0 2014.15 781.61" width="2014.15" height="781.61"><defs><style>.cls-1{isolation:isolate}.cls-2{fill:#b3b3b3}.cls-3,.cls-4{fill:#2997ff}.cls-3{mix-blend-mode:multiply}</style></defs><g class="cls-1"><g id="Layer_2"><g id="Layer_1-2"><path d="M2014.15 408.49c0 143.31-70.63 243.62-145.35 296.85-64.49 45-149.45 59.37-201.65 59.37-104.41 0-203.7-45-266.14-116.69-54.26-60.4-85-143.31-85-231.34 0-125.91 55.28-212.91 133.08-275.35 50.15-41 138.18-71.66 209.84-71.66 196.56 0 355.22 144.33 355.22 338.82zm-519-246.69c-45 44-79.84 120.79-79.84 240.55 0 152.52 112.59 327.56 276.37 327.56 85 0 123.86-36.85 135.12-49.14 41-36.85 87-119.76 87-241.57 0-111.57-48.11-219.06-123.86-280.47-42-33.78-106.45-55.28-153.54-55.28-42.95 0-105.4 22.55-141.22 58.35z" class="cls-2"/><rect width="64.79" height="805.64" x="1632.7" y="-12.02" class="cls-3" rx="21.1" transform="rotate(-16.21 1665.088 390.801)"/><path d="M302 372.66c22.52 21.5 35.82 50.16 35.82 86 0 6.14-8.18 17.4-19.44 17.4s-186.3 0-233.39-1c-3.07 0-7.17 5.11-8.19 8.19-3.07 8.18-5.12 25.59-5.12 35.82 0 39.92 16.38 87 38.9 116.69C133.07 666.44 176.06 692 225.2 692c45 0 75.74-11.26 93.15-36.85 4.09-6.14 9.21-12.28 13.3-12.28 6.14 0 8.19 7.17 8.19 12.28 0 8.19-4.09 19.45-7.16 24.57-35.83 52.2-90.08 76.77-148.43 76.77C73.7 756.52 0 672.59 0 552.82 0 470.93 43 389 122.83 352.19c26.62-12.28 60.4-18.42 77.8-18.42 35.83 0 75.75 13.3 101.37 38.89zM87 436.13c-2.05 5.12 2 11.26 4.09 11.26 26.62 1 80.87 1 132.05 0 24.57 0 34.8-5.12 34.8-25.59 0-28.66-30.71-61.42-67.56-61.42-46.05 0-84.95 28.62-103.38 75.75zm1013.37 288.66c-32.76-7.17-51.18-19.45-69.61-36.85C999 656.21 900.76 549.75 866 506.76c-1-2.05-1-6.14 1-10.24 4.1-7.16 52.21-55.27 82.92-77.79 46.06-31.74 63.46-42 118.74-54.25 4.09-1 20.47-10.24 20.47-22.52 0-3.08-3.07-7.17-7.17-7.17-34.8 0-70.63 12.28-138.19 12.28h-48.13c-7.16 0-17.4 14.33-17.4 18.43 0 3.07 3.07 6.14 9.22 7.16 46.06 7.17 43 17.41 38.89 22.52-18.42 26.62-74.72 78.82-108.5 110.55-7.17 6.15-15.35 13.27-20.47 13.27s-6.14-3.07-8.19-9.21c-3.07-9.21-3.07-63.47-3.07-103.39 0-57.68 1.76-190.95 4.41-282.9h-80c2.63 30.71 5 89 5 204.08 0 136.14-3.07 331.65-7.17 351.1-5.12 25.59-12.28 34.8-53.23 45-13.3 4.09-23.54 8.18-23.54 15.35 0 8.19 11.26 11.26 23.54 11.26 22.52 0 50.16-4.09 86-4.09 25.59 0 59.37 2 85 2 11.26 0 24.57-2 24.57-11.26 0-8.19-10.24-12.28-22.52-15.35-27.64-7.17-34.81-13.31-37.88-33.78-6.14-30.71-6.14-129-1-142.28 0-2 1-8.19 5.12-8.19 5.11 0 15.35 11.26 25.59 23.54 51.18 59.37 104.41 115.67 115.67 130s8.18 23.54-13.31 28.66c-13.31 3.07-22.52 8.19-22.52 14.33 0 9.21 11.26 13.31 25.59 13.31h46.06c53.23 0 104.41 6.14 127.95 6.14 12.29 0 25.6-2.05 25.6-12.28-.11-3.97-7.28-12.16-24.68-16.25z" class="cls-2"/><path d="M678.64 85c28.66 17.4 30.71 23.54 30.71 26.61.39 3.43.79 7.38 1.18 11.93h80c1.39-48.39 3-85.35 4.8-93.82 1-4.09-5.12-13.31-7.17-13.31-5.11 0-10.23 3.08-20.47 9.22-27.64 17.4-78.82 28.66-89.05 31.73-8.19 3.07-13.31 9.21-13.31 13.31 0 3.1 5.12 8.22 13.31 14.33zM81.07 477.62c1.47-1.52 3.14-2.65 4.58-2.65 47.09 1 222.13 1 233.39 1s19.44-11.26 19.44-17.4q0-6.79-.64-13.25h-94.49c-5.1 1.43-11.54 2-19.51 2-51.18 1-105.43 1-132 0-.72 0-1.69-.77-2.56-2H26.76A226.81 226.81 0 0 0 13 477.62z" class="cls-4"/></g></g></g></svg>