<svg xmlns="http://www.w3.org/2000/svg" id="Layer_1" width="1440" height="575.2" viewBox="0 0 1440 575.2"><style>.st0{fill:#b3b3b3}</style><g id="Layer_2_1_"><path id="Layer_1-2" d="M1307.9 269.2c-1.6 36.5-2.4 75.3-2.4 111.9v79.3c0 59.5 27 69.8 41.2 69.8 18.1.8 36.1-2.8 52.5-10.3 2.8-2.2 6.9-1.8 9.1 1.1.1.2.3.3.4.5l4 7.1c1.9 2.9 1.2 6.7-1.6 8.7-24.6 20.9-55.9 32.2-88.2 31.7-38.8 0-77.1-37.4-77.1-67.5s2.4-102.4 2.4-113.5v-17.8c0-14.3.8-68.3 1.6-101.6h-47.6c-7.1 0-11.9-3.2-11.9-9.5s4.8-8.9 15.1-12.8c23.7-8.6 43.4-25.5 55.7-47.6 10.9-28.7 12.5-60.1 4.8-89.7-12.1-38.1-37.4-79.3-112.1-79.3-69 0-125.4 47.6-125.4 103.2-2 33.8 13.7 66.3 41.4 85.8 62.6 7.9 83.4 48.5 83.4 63.4.3 15.1-11.6 27.5-26.7 27.8-.9 0-1.9 0-2.8-.1-18.2 0-31.7-10.3-43.6-31.7-17.4-32.7-34.3-35-53.3-35-45.2 0-93.7 41.4-93.7 123.2 1.5 43.3 15.6 85.3 40.6 120.7 19.9 27.3 52 43 85.8 41.9 32.7 2.4 64.8-10.2 87.2-34.1 1.5-1.8 4.1-2 5.8-.5.2.2.4.3.5.5l8.1 7.9c3.2 3.2 4 5.5 0 10.3-33.6 34.9-79.6 55.2-128 56.4-47.7 2.9-93.7-17.9-123-55.7-24.3-30.6-37-68.9-35.7-108 0-91.3 62.6-183.5 163.5-186.6v-1.6c-28.3-18.5-46.4-49-49.2-82.6 0-69 54.7-129.4 162.7-129.4 89.7 0 164.4 50.9 164.4 136.5 0 28.7-4.8 64.4-5.5 85.8h109.6c4.8 0 7.1 4 5.5 7.1l-7.9 27.9c0 4-2.4 6.3-7.1 6.3h-102.5zM72.3 367.7c1.5 43.3 15.6 85.2 40.4 120.7 20.4 27 52.8 42.1 86.6 40.4 32.8 2.4 64.9-10.2 87.4-34.1 1.5-1.8 4.1-2 5.8-.5.2.2.4.3.5.5l7.9 7.9c3.2 3.2 4 5.5 0 10.3-33.6 35-79.6 55.3-128.1 56.4-47.7 2.9-93.8-17.9-123.2-55.7-24.2-30.7-36.8-68.9-35.4-108 0-92.9 65.2-186.6 170-186.6 82.6 0 108 47.6 108 64.4.4 15-11.4 27.4-26.4 27.8-1 0-2.1 0-3.1-.1-18.2 0-31.7-10.3-43.6-31.7-17.4-32.7-34.1-35-53.3-35-45.1.1-93.5 41.5-93.5 123.3zm373.1 92.9c0 59.5 27.1 69.8 41.4 69.8 18 .7 35.9-2.8 52.3-10.3 2.8-2.2 6.9-1.8 9.1 1.1.1.2.3.3.4.5l4.8 7.1c1.9 2.9 1.2 6.7-1.6 8.7-24.5 20.9-55.8 32.1-88 31.7-39 0-77.1-37.4-77.1-67.5s2.4-102.4 2.4-113.5v-17.9c0-14.3.8-68.3 1.6-101.6h-49.3c-7.1 0-11.9-3.2-11.9-9.5s4.8-8.9 14.3-14.4c19.2-11.1 80.2-72.1 90.5-99.3 1.3-5 6-8.3 11.1-7.9 6.3 0 7.9 5.5 7.9 11.9l-4 78.2h111c4.8 0 7.1 4 5.5 7.1l-8.1 27.9c0 3.5-2.8 6.4-6.3 6.4H447.8c-1.6 36.5-2.4 75.3-2.4 111.9v79.6z" class="st0"/></g></svg>