<svg xmlns="http://www.w3.org/2000/svg" viewBox="0 0 1331.4 616.23" width="1331.4" height="616.23"><defs><style>.a3294a59-f70a-40d3-8e09-ae817e02acea{fill:none;stroke:#666;stroke-miterlimit:10;stroke-width:3px}.bf92b1a9-aa99-4377-a35f-162c24a66e4a{fill:#4d4d4d}.ae8e2fb6-bd02-45ac-93e4-6a130b1ea733{fill:#999}</style></defs><g id="af5cc2b3-00bd-4714-a935-220672825794"><g id="fc2b5cdb-c03f-4bc8-8de9-e6e554b17c7d"><path d="M54.31 1.5h255.12v566.93H54.31zm1020.47 0h255.12v566.93h-255.12z" class="a3294a59-f70a-40d3-8e09-ae817e02acea"/><path d="M309.42 1.5h340.16v566.93H309.42zm425.2 0h340.16v566.93H734.62zm-85.04 0h85.04v566.93h-85.04z" class="a3294a59-f70a-40d3-8e09-ae817e02acea"/><path d="M165.31 594.3c0 13.58-5.67 18.72-18.63 21.93l-1.2-3.88c8.5-2.26 13.49-5.77 14.16-12.68a9.75 9.75 0 0 1-7.44 3.55c-5.42 0-9.46-4.08-9.46-10.6 0-7.16 4.9-11.29 11.24-11.29 7.63 0 11.33 5.09 11.33 12.97zm-5.57 1.48c.14-7.53-1.49-10.37-5.81-10.37-3.7 0-5.71 2.4-5.71 7.21s2.11 6.57 5.33 6.57c2.59-.05 4.51-1.34 6.19-3.41zm31.77 13.35l2.45 3.46a14.15 14.15 0 0 1-8.88 3.12c-7.82 0-12.34-5.24-12.34-13.16 0-7.73 4.61-13.49 12.44-13.49a13.31 13.31 0 0 1 8.78 3.08l-2.49 3.36a10.93 10.93 0 0 0-6.2-2.12c-4 0-6.81 2.84-6.81 9.17s2.88 8.74 6.81 8.74a11.09 11.09 0 0 0 6.24-2.16zm32.84-12.87v18.82h-4.76V597c0-2.64-.19-3.74-1.68-3.74-1.24 0-2.49.72-3.74 2.54v19.3h-4.37V597c0-2.64-.19-3.74-1.68-3.74-1.3 0-2.5.72-3.74 2.54v19.3h-4.8v-25.37h4l.38 2.74c1.44-2 3-3.41 5.43-3.41a4.15 4.15 0 0 1 4.32 3.22c1.44-1.92 3.12-3.22 5.57-3.22 2.91 0 5.07 1.59 5.07 7.2zM16.12 353.82c5.81 0 10.52 3.65 20.12 14.26v-15l4.32.58v20.59h-4.08c-11.43-11.85-15.17-14.88-20-14.88a5 5 0 0 0-5.38 5.38c0 3 1.06 4.75 3.46 6.72l-2.69 3.46a12.44 12.44 0 0 1-5.09-10.57c-.02-6.75 4.16-10.54 9.34-10.54zM24 322.91c11 0 17.23 3.84 17.23 11.28S34.94 345.47 24 345.47s-17.24-3.84-17.24-11.28S13 322.91 24 322.91zm0 17.14c9.51 0 13.15-2.16 13.15-5.86s-3.69-5.86-13.15-5.86-13.06 2.12-13.06 5.86 3.7 5.86 13.06 5.86zm.05-9a3.15 3.15 0 1 1 0 6.29A3.15 3.15 0 0 1 24 331zM34.61 297l3.45-2.45a14.09 14.09 0 0 1 3.12 8.88c0 7.82-5.23 12.34-13.15 12.34-7.73 0-13.49-4.61-13.49-12.44a13.36 13.36 0 0 1 3.07-8.78l3.36 2.5a10.94 10.94 0 0 0-2.11 6.19c0 4 2.83 6.81 9.17 6.81s8.74-2.88 8.74-6.81a11.11 11.11 0 0 0-2.16-6.24zm-12.87-32.79h18.82V269h-18.1c-2.64 0-3.74.19-3.74 1.68 0 1.25.72 2.5 2.54 3.74h19.3v4.37h-18.1c-2.64 0-3.74.19-3.74 1.68 0 1.3.72 2.5 2.54 3.75h19.3V289H15.21v-4l2.74-.38c-2-1.44-3.41-3-3.41-5.42a4.16 4.16 0 0 1 3.22-4.33c-1.92-1.43-3.22-3.12-3.22-5.56 0-2.94 1.58-5.1 7.2-5.1zm432.37 346.65v4.22h-20v-4.22h8.07v-23.38l-7.3 4.46-2.3-3.74 10.15-6.2h4.76v28.9zM481 590.65c0 5.81-3.65 10.51-14.26 20.11h15l-.58 4.32h-20.52V611c11.85-11.42 14.88-15.17 14.88-20 0-3.31-2-5.37-5.38-5.37-3 0-4.75 1-6.72 3.45l-3.42-2.7a12.42 12.42 0 0 1 10.57-5.09c6.68 0 10.43 4.17 10.43 9.36zm28 18.48l2.45 3.46a14.15 14.15 0 0 1-8.88 3.12c-7.82 0-12.34-5.24-12.34-13.16 0-7.73 4.61-13.49 12.44-13.49a13.31 13.31 0 0 1 8.78 3.08L509 595.5a10.88 10.88 0 0 0-6.19-2.12c-4 0-6.81 2.84-6.81 9.17s2.88 8.74 6.81 8.74a11.11 11.11 0 0 0 6.19-2.16zm32.85-12.87v18.82h-4.75V597c0-2.64-.19-3.74-1.68-3.74-1.25 0-2.5.72-3.74 2.54v19.3h-4.37V597c0-2.64-.19-3.74-1.68-3.74-1.3 0-2.5.72-3.75 2.54v19.3h-4.8v-25.37h4l.38 2.74c1.44-2 3-3.41 5.42-3.41a4.15 4.15 0 0 1 4.32 3.22c1.44-1.92 3.12-3.22 5.57-3.22 2.92 0 5.08 1.59 5.08 7.2zm137.39-6.57c0 4.08-2.88 6.91-6.58 7.77 4.13.44 7.63 2.93 7.63 8.16 0 5.67-4.75 10.09-12 10.09a13.72 13.72 0 0 1-10.75-4.61l3.31-2.88a9.27 9.27 0 0 0 7.15 3.26c4.13 0 6.72-2.3 6.72-6.05 0-4.27-2.64-5.81-6.43-5.81h-2.83l.62-3.93h2c3.12 0 5.81-1.68 5.81-5.23 0-3.22-2.45-5-5.71-5a9.32 9.32 0 0 0-6.87 3l-2.83-3.07a14 14 0 0 1 10.13-4.08c6.59-.02 10.63 3.82 10.63 8.38zm27.98 19.44l2.45 3.46a14.15 14.15 0 0 1-8.88 3.12c-7.83 0-12.34-5.24-12.34-13.16 0-7.73 4.61-13.49 12.43-13.49a13.32 13.32 0 0 1 8.79 3.08l-2.5 3.36a10.9 10.9 0 0 0-6.19-2.12c-4 0-6.82 2.84-6.82 9.17s2.88 8.74 6.82 8.74a11.11 11.11 0 0 0 6.24-2.16zm32.83-12.87v18.82h-4.75V597c0-2.64-.19-3.74-1.68-3.74-1.25 0-2.5.72-3.74 2.54v19.3h-4.37V597c0-2.64-.2-3.74-1.68-3.74-1.3 0-2.5.72-3.75 2.54v19.3h-4.8v-25.37h4l.39 2.74c1.44-2 3-3.41 5.42-3.41a4.15 4.15 0 0 1 4.32 3.22c1.44-1.92 3.12-3.22 5.57-3.22 2.91 0 5.07 1.59 5.07 7.2zm139.26 14.6v4.22h-20v-4.22h8.06v-23.38l-7.29 4.46-2.31-3.74 10.16-6.2h4.75v28.9zm26.93-20.21c0 5.81-3.65 10.51-14.26 20.11h15l-.57 4.32h-20.6V611c11.86-11.42 14.89-15.17 14.89-20 0-3.31-2-5.37-5.38-5.37-3 0-4.75 1-6.72 3.45l-3.46-2.68a12.4 12.4 0 0 1 10.56-5.09c6.74-.02 10.54 4.15 10.54 9.34zm27.98 18.48l2.45 3.46a14.15 14.15 0 0 1-8.88 3.12c-7.83 0-12.34-5.24-12.34-13.16 0-7.73 4.61-13.49 12.43-13.49a13.32 13.32 0 0 1 8.79 3.08l-2.5 3.36a10.9 10.9 0 0 0-6.19-2.12c-4 0-6.82 2.84-6.82 9.17s2.88 8.74 6.82 8.74a11.11 11.11 0 0 0 6.24-2.16zm32.83-12.87v18.82h-4.75V597c0-2.64-.19-3.74-1.68-3.74-1.25 0-2.5.72-3.75 2.54v19.3h-4.36V597c0-2.64-.2-3.74-1.69-3.74-1.29 0-2.49.72-3.74 2.54v19.3h-4.8v-25.37h4l.39 2.74c1.44-2 3-3.41 5.42-3.41a4.15 4.15 0 0 1 4.32 3.22c1.44-1.92 3.12-3.22 5.57-3.22 2.91 0 5.07 1.59 5.07 7.2zM866.64 254.53l-2.88 3.47a10.54 10.54 0 0 0-6.87-2.45c-4.94 0-9.12 3.45-9.12 12.82 0 9.16 3.94 12.72 9.17 12.72a11.19 11.19 0 0 0 7.49-2.84l2.69 3.41a14.26 14.26 0 0 1-10.37 3.94c-8.45 0-14.79-6-14.79-17.23s6.63-17.19 14.69-17.19a14.51 14.51 0 0 1 9.99 3.35zm27.5 17.71c0 8.07-4.13 13.35-11.47 13.35s-11.48-5.09-11.48-13.3c0-7.92 4.13-13.34 11.53-13.34s11.42 5.23 11.42 13.29zm-17.28.05c0 6.29 1.92 9.17 5.81 9.17s5.81-2.88 5.81-9.22-1.92-9.12-5.76-9.12-5.86 2.88-5.86 9.17zM914.59 285h-6.24l-9-25.34h5.81l6.38 20.88 6.46-20.92h5.52zm26.92-3.59a11.59 11.59 0 0 0 6.68-2.21l2.3 3.27a14.7 14.7 0 0 1-9.22 3.12c-7.92 0-12.24-5.38-12.24-13.3 0-7.58 4.37-13.34 11.57-13.34 6.72 0 10.95 4.8 10.95 12.67a16.73 16.73 0 0 1-.15 2.4h-16.8c.34 5.18 3.27 7.39 6.91 7.39zm-7-11h11.76c-.09-4.8-2.06-7.44-5.66-7.44-3.32-.04-5.72 2.31-6.06 7.4zm46.22-10.79l-.91 9.36H976v-5.19c-3.6.1-6.19 3-7.68 7.93v9.4h5.09V285h-14.23v-3.84h3.74v-17.7h-3.74v-3.84H967l1 5.86c1.92-4.23 4.56-6.49 8.93-6.49a11.31 11.31 0 0 1 3.8.63zM436.18 285h-9.69v-33.16h9.07c6.19 0 12.1 1.92 12.1 8.4 0 4.13-3 6.43-6.15 7.16 3.6.62 7.58 2.54 7.58 8 0 7.4-6.38 9.6-12.91 9.6zm-.18-29h-4v9.55h4.32c3.7 0 5.62-1.44 5.62-4.9S439.83 256 436 256zm.72 13.73h-4.71v10.89h4.52c3.16 0 6.72-.81 6.72-5.23s-2.8-5.64-6.49-5.64zM477 281.94l-1.25 3.65c-2.44-.29-4.32-1.3-5.23-3.51a10 10 0 0 1-8.06 3.51c-5.19 0-8.36-3.17-8.36-7.87 0-5.28 4.33-8.31 12.05-8.31h3.6v-1.63c0-3.31-2.06-4.61-5.61-4.61a21 21 0 0 0-6.72 1.3l-1.35-3.8a25.63 25.63 0 0 1 8.88-1.72c6.82 0 10.13 3.16 10.13 8.49v11.33c-.02 1.97.56 2.74 1.92 3.17zm-7.25-3.55v-5.62h-3c-5 0-7 1.78-7 4.75 0 2.69 1.44 4.13 4.27 4.13a6.77 6.77 0 0 0 5.71-3.26zM503 279l2.45 3.46a14.15 14.15 0 0 1-8.88 3.12c-7.83 0-12.34-5.23-12.34-13.15 0-7.73 4.61-13.49 12.43-13.49a13.31 13.31 0 0 1 8.74 3.06l-2.5 3.36a10.89 10.89 0 0 0-6.19-2.11c-4 0-6.82 2.83-6.82 9.17s2.88 8.73 6.82 8.73A11.11 11.11 0 0 0 503 279zm15.79 6h-5.38v-35.56l5.38-.62zm6.57-14l11.29 14h-6.58l-10.9-13.87 10.18-11.47h6.24zm-380.74 14h-9.7v-33.16H144c6.19 0 12.1 1.92 12.1 8.4 0 4.13-3 6.43-6.15 7.16 3.6.62 7.59 2.54 7.59 8-.01 7.4-6.4 9.6-12.92 9.6zm-.15-29h-4v9.55h4.32c3.69 0 5.61-1.44 5.61-4.9s-2.14-4.65-5.93-4.65zm.72 13.73h-4.7v10.89H145c3.17 0 6.72-.81 6.72-5.23s-2.83-5.64-6.53-5.64zm40.23 12.21l-1.25 3.65c-2.45-.29-4.32-1.3-5.23-3.51a10.07 10.07 0 0 1-8.07 3.51c-5.18 0-8.35-3.17-8.35-7.87 0-5.28 4.32-8.31 12-8.31h3.6v-1.63c0-3.31-2.07-4.61-5.62-4.61a21 21 0 0 0-6.72 1.3l-1.34-3.8a25.59 25.59 0 0 1 8.88-1.72c6.81 0 10.13 3.16 10.13 8.49v11.33c.05 1.97.62 2.74 1.97 3.17zm-7.25-3.55v-5.62h-3c-5 0-7 1.78-7 4.75 0 2.69 1.44 4.13 4.28 4.13a6.8 6.8 0 0 0 5.72-3.26zm33.21.61l2.45 3.46a14.15 14.15 0 0 1-8.88 3.12c-7.82 0-12.34-5.23-12.34-13.15 0-7.73 4.61-13.49 12.44-13.49a13.31 13.31 0 0 1 8.78 3.07l-2.49 3.36a10.92 10.92 0 0 0-6.2-2.11c-4 0-6.81 2.83-6.81 9.17s2.88 8.73 6.81 8.73a11.09 11.09 0 0 0 6.24-2.16zm15.84 6h-5.38v-35.56l5.38-.62zm6.58-14l11.28 14h-6.58l-10.89-13.87 10.17-11.47H244zm-91.1 53.23h12.48v4.22H142.7v14.11h-5.57v-33.12h20.35l-.58 4.23h-14.2zm32.54 11.42c0 2.35 1.58 3.22 3.84 3.22a10.41 10.41 0 0 0 4-.87l1.35 3.75a13.79 13.79 0 0 1-6.53 1.44c-5.09 0-8.07-3-8.07-8V311h-7.63v-4h13zm38.98 3.89l-1.22 3.65c-2.45-.29-4.32-1.3-5.23-3.51a10.07 10.07 0 0 1-8.07 3.51c-5.18 0-8.35-3.17-8.35-7.88 0-5.28 4.32-8.3 12.05-8.3h3.6v-1.63c0-3.31-2.07-4.61-5.62-4.61a21 21 0 0 0-6.72 1.3l-1.34-3.8a25.59 25.59 0 0 1 8.88-1.72c6.81 0 10.13 3.16 10.13 8.49v11.33c-.03 1.97.54 2.74 1.89 3.17zM207 336v-5.62h-3c-5 0-7 1.78-7 4.75 0 2.69 1.44 4.13 4.27 4.13A6.8 6.8 0 0 0 207 336zm36.3-6.16c0 7.73-3.36 13.35-9.79 13.35a8.1 8.1 0 0 1-6.43-2.79v11.91l-5.38.62v-35.71h4.66l.33 3.26a9.11 9.11 0 0 1 7.4-3.93c6.67 0 9.21 5.23 9.21 13.29zm-16.22-5.52v11.86a5.84 5.84 0 0 0 5 2.83c3.65 0 5.57-2.78 5.57-9.12 0-6.53-1.68-9.22-5-9.22-2.45 0-4.32 1.68-5.57 3.65zm921.69-57.69h12.48v4.22h-12.48V285h-5.57v-33.16h20.35l-.57 4.23h-14.21zm43.23-7.01l-.91 9.36h-3.84v-5.19c-3.6.1-6.2 3-7.68 7.93v9.4h5.08V285h-14.2v-3.84h3.74v-17.7h-3.74v-3.84h7.82l1 5.86c1.92-4.23 4.56-6.49 8.93-6.49a11.35 11.35 0 0 1 3.8.63zm28.58 12.62c0 8.07-4.13 13.35-11.48 13.35s-11.47-5.09-11.47-13.3c0-7.92 4.13-13.34 11.52-13.34s11.43 5.23 11.43 13.29zm-17.29.05c0 6.29 1.92 9.17 5.81 9.17s5.81-2.88 5.81-9.22-1.92-9.12-5.76-9.12-5.86 2.88-5.86 9.17zm24.48-12.67h4.66l.38 3.31a10.62 10.62 0 0 1 8.21-4c4.71 0 7.06 2.78 7.06 7.53V285h-5.38v-15.83c0-4.42-.52-6.1-3.6-6.1-2.49 0-4.61 1.78-5.95 3.7V285h-5.38zm42.58 25.97c-5.9 0-9-3.31-9-8.31v-13.73h-5.62v-3.93h5.62V254l5.37-.62v6.29h8.6l-.63 3.93h-8v13.69c0 2.73 1.3 4 4.42 4a9.59 9.59 0 0 0 4.7-1.2l1.92 3.55a14.07 14.07 0 0 1-7.38 1.95zm-107.18 38.64h12.48v4.22h-12.48v14.11h-5.57v-33.12h20.4l-.57 4.23h-14.21zm32.54 11.42c0 2.35 1.59 3.22 3.84 3.22a10.41 10.41 0 0 0 4-.87l1.35 3.75a13.79 13.79 0 0 1-6.53 1.44c-5.09 0-8.06-3-8.06-8V311h-7.64v-4h13zm38.98 3.89l-1.25 3.65c-2.45-.29-4.32-1.3-5.23-3.51a10.05 10.05 0 0 1-8.07 3.51c-5.18 0-8.35-3.17-8.35-7.88 0-5.28 4.32-8.3 12-8.3h3.6v-1.63c0-3.31-2.06-4.61-5.62-4.61a21 21 0 0 0-6.72 1.3l-1.34-3.8a25.63 25.63 0 0 1 8.88-1.72c6.82 0 10.13 3.16 10.13 8.49v11.33c.05 1.97.62 2.74 1.97 3.17zm-7.25-3.55v-5.62h-3c-5 0-7 1.78-7 4.75 0 2.69 1.45 4.13 4.28 4.13a6.78 6.78 0 0 0 5.72-3.25zm36.33-6.15c0 7.73-3.36 13.35-9.79 13.35a8.1 8.1 0 0 1-6.43-2.79v11.91l-5.38.62v-35.71h4.66l.34 3.26a9.1 9.1 0 0 1 7.39-3.93c6.67 0 9.21 5.23 9.21 13.29zm-16.22-5.52v11.86a5.84 5.84 0 0 0 5 2.83c3.65 0 5.57-2.78 5.57-9.12 0-6.53-1.68-9.22-5-9.22-2.45 0-4.32 1.68-5.57 3.65z" class="bf92b1a9-aa99-4377-a35f-162c24a66e4a" transform="translate(-6.76)"/><path d="M1145.65 522.38a10.47 10.47 0 0 1-7.62-2.76l1.92-2.13a8 8 0 0 0 5.7 2.16c2.34 0 4.29-1.11 4.29-3.33 0-1.83-.93-2.7-4.23-3.69-4.41-1.29-6.69-2.94-6.69-6.15 0-3.39 3-5.61 7.11-5.61a9.83 9.83 0 0 1 6.93 2.49l-1.83 2.07a7.42 7.42 0 0 0-4.89-1.83c-2.13 0-3.75.87-3.75 2.67 0 1.62 1.14 2.37 4.83 3.45 3.51 1 6.15 2.52 6.15 6.42 0 3.69-2.91 6.24-7.92 6.24zm20.52-.33c-1.2 3.6-3.33 6-7.77 6.42l-.4-2.47c3.21-.51 4.23-1.68 5.07-4h-1.14l-5.34-15.84h3.57l4 13.5 4-13.5h3.45zm9.6-15.9h2.91l.24 2.07a6.62 6.62 0 0 1 5.13-2.49c2.94 0 4.41 1.74 4.41 4.71V522h-3.36v-9.87c0-2.76-.33-3.81-2.25-3.81a4.83 4.83 0 0 0-3.72 2.31V522h-3.36zm31.5 7.85c0 5-2.58 8.34-7.17 8.34s-7.17-3.18-7.17-8.31c0-5 2.58-8.34 7.2-8.34s7.14 3.31 7.14 8.31zm-10.8 0c0 3.93 1.2 5.73 3.63 5.73s3.63-1.8 3.63-5.76-1.2-5.7-3.6-5.7-3.66 1.87-3.66 5.8zm28.8 0c0 4.83-2.1 8.34-6.12 8.34a5.08 5.08 0 0 1-4-1.74v7.44l-3.36.39v-22.28h2.91l.21 2a5.69 5.69 0 0 1 4.62-2.46c4.15.04 5.74 3.31 5.74 8.31zm-10.14-3.45V518a3.64 3.64 0 0 0 3.12 1.77c2.28 0 3.48-1.74 3.48-5.7s-1-5.76-3.15-5.76a4.27 4.27 0 0 0-3.45 2.28zm23.87 7.15c0-1.29-.51-1.89-3.78-2.73s-5.22-1.92-5.22-4.68 2.43-4.56 6.33-4.56a9.87 9.87 0 0 1 6 1.83l-1.44 2.13a7.87 7.87 0 0 0-4.5-1.41c-2.16 0-3 .69-3 1.74 0 1.2.87 1.65 4 2.52s5.13 1.92 5.13 4.92c0 3.45-3.36 4.92-7 4.92a9.67 9.67 0 0 1-6.51-2.22l1.77-2a7.6 7.6 0 0 0 4.74 1.71c2.11-.04 3.48-.87 3.48-2.17zm17.41 1.83h4.32V522h-12.39v-2.46h4.71v-10.93h-4.56v-2.46h7.92zm-.12-19a2.19 2.19 0 1 1-2.19-2.13 2.1 2.1 0 0 1 2.19 2.11zM1275 517.7c0-1.29-.51-1.89-3.78-2.73s-5.22-1.92-5.22-4.68 2.43-4.56 6.33-4.56a9.87 9.87 0 0 1 6 1.83l-1.44 2.13a7.87 7.87 0 0 0-4.5-1.41c-2.16 0-3 .69-3 1.74 0 1.2.87 1.65 4 2.52s5.13 1.92 5.13 4.92c0 3.45-3.36 4.92-7 4.92a9.67 9.67 0 0 1-6.51-2.22l1.77-2a7.6 7.6 0 0 0 4.74 1.71c2.11-.04 3.48-.87 3.48-2.17zM103.88 463.68l-1.44 5h-3.57l6.6-20.69h4.32l6.6 20.69h-3.69l-1.44-5zm6.66-2.7l-3-10.32-3 10.32zm12.12 2.91c0 1.85.75 2.6 2.25 2.6a4.62 4.62 0 0 0 3.69-2.22v-11.45h3.4v15.83h-2.91l-.21-2a6.24 6.24 0 0 1-5 2.43c-3.09 0-4.56-1.77-4.56-4.73v-11.53h3.36zm23.25 5.11c-3.69 0-5.64-2.06-5.64-5.18v-8.59h-3.51v-2.45h3.51v-3.54l3.36-.39v3.93H149l-.39 2.45h-5v8.55c0 1.71.81 2.53 2.76 2.53a6.12 6.12 0 0 0 2.94-.75l1.2 2.21a8.8 8.8 0 0 1-4.6 1.23zm12.75-14.23a6.32 6.32 0 0 1 4.92-2.37c3 0 4.41 1.74 4.41 4.71v11.54h-3.36v-11c0-1.88-.69-2.63-2.28-2.63a4.93 4.93 0 0 0-3.69 2.33v11.34h-3.36v-22.2l3.36-.36zm28.14 5.94c0 5-2.58 8.33-7.17 8.33s-7.17-3.18-7.17-8.31c0-4.94 2.58-8.33 7.2-8.33s7.14 3.27 7.14 8.31zm-10.8 0c0 3.93 1.2 5.74 3.63 5.74s3.63-1.81 3.63-5.76-1.2-5.7-3.6-5.7-3.66 1.82-3.66 5.74zm28.92-7.89l-.57 5.85H202v-3.24c-2.25.05-3.87 1.86-4.8 4.95v5.88h3.18v2.39h-8.88v-2.39h2.34v-11h-2.34v-2.4h4.89l.6 3.66c1.2-2.64 2.85-4.05 5.58-4.05a7.18 7.18 0 0 1 2.35.35zm28.2 15.83h-6.06V448h5.67c3.87 0 7.56 1.2 7.56 5.25a4.54 4.54 0 0 1-3.84 4.47c2.25.38 4.74 1.59 4.74 5 0 4.59-3.99 5.93-8.07 5.93zm-.12-18.08h-2.49v6h2.7c2.31 0 3.51-.9 3.51-3.06s-1.32-2.94-3.72-2.94zm.45 8.58h-2.94V466h2.82c2 0 4.2-.51 4.2-3.26s-1.74-3.59-4.05-3.59zm20.49 7.04h4.32v2.46h-12.39v-2.46h4.71v-10.92H246v-2.45h7.92zm-.12-19a2.19 2.19 0 1 1-2.19-2.13 2.1 2.1 0 0 1 2.19 2.12zm22.98 13.52c0 5-2.58 8.33-7.17 8.33s-7.17-3.18-7.17-8.31c0-4.94 2.58-8.33 7.2-8.33s7.14 3.27 7.14 8.31zm-10.8 0c0 3.93 1.2 5.74 3.63 5.74s3.63-1.81 3.63-5.76-1.2-5.7-3.6-5.7-3.66 1.82-3.66 5.74zm-149.52 53.9H114V522h-3.45v-20.7h5.73c5.22 0 8.31 2.1 8.31 6.51-.04 4.82-3.37 6.8-8.11 6.8zm0-10.71H114v8.1h2.55c2.61 0 4.41-1 4.41-4.17-.04-2.83-1.81-3.93-4.48-3.93zm15.18 13.32c0 1.86.75 2.61 2.25 2.61a4.65 4.65 0 0 0 3.69-2.22v-11.46h3.4V522h-2.91l-.21-2a6.24 6.24 0 0 1-5 2.43c-3.09 0-4.56-1.77-4.56-4.74v-11.54h3.36zM154 505.73c4.17 0 5.91 3.27 5.91 8.31 0 4.83-2.22 8.34-6.33 8.34a5 5 0 0 1-4.14-2l-.18 1.56h-3v-22.2l3.36-.39V508a5.41 5.41 0 0 1 4.38-2.27zm2.34 8.34c0-4.08-1.17-5.76-3.27-5.76a4.27 4.27 0 0 0-3.42 2.28V518a3.67 3.67 0 0 0 3.12 1.83c2.23 0 3.58-1.83 3.58-5.76zm14.92 3.6c0 1.47 1 2 2.4 2a6.55 6.55 0 0 0 2.52-.54l.84 2.34a8.56 8.56 0 0 1-4.08.9c-3.18 0-5-1.89-5-5v-15.12h-4.77v-2.46h8.13zm19.68 1.86h4.32V522h-12.39v-2.46h4.71v-10.93H183v-2.46h7.92zm-.12-19a2.19 2.19 0 1 1-2.19-2.13 2.1 2.1 0 0 1 2.19 2.11zm18.66 17.17c0-1.29-.51-1.89-3.78-2.73s-5.22-1.92-5.22-4.68 2.43-4.56 6.33-4.56a9.87 9.87 0 0 1 6 1.83l-1.44 2.13a7.87 7.87 0 0 0-4.5-1.41c-2.16 0-3 .69-3 1.74 0 1.2.87 1.65 4 2.52s5.13 1.92 5.13 4.92c0 3.45-3.36 4.92-7 4.92a9.67 9.67 0 0 1-6.51-2.22l1.77-2a7.6 7.6 0 0 0 4.74 1.71c2.16-.04 3.48-.87 3.48-2.17zm12.18-9.6a6.32 6.32 0 0 1 4.92-2.37c3 0 4.41 1.74 4.41 4.71V522h-3.36v-11c0-1.89-.69-2.64-2.28-2.64a4.91 4.91 0 0 0-3.69 2.34V522h-3.36v-22.18l3.36-.36zm21.75 11.67a7.23 7.23 0 0 0 4.17-1.38l1.44 2a9.2 9.2 0 0 1-5.76 2c-4.95 0-7.65-3.36-7.65-8.31 0-4.74 2.73-8.34 7.23-8.34 4.2 0 6.84 3 6.84 7.92a10.88 10.88 0 0 1-.09 1.5h-10.5c.21 3.23 2.04 4.61 4.32 4.61zm-4.35-6.9h7.35c-.06-3-1.29-4.65-3.54-4.65-2.1 0-3.6 1.47-3.81 4.65zm28.86-6.72l-.57 5.85H265v-3.24c-2.25.06-3.87 1.86-4.8 5v5.88h3.18V522h-8.88v-2.4h2.34v-11h-2.34v-2.4h4.89l.6 3.66c1.2-2.64 2.85-4.05 5.58-4.05a7.18 7.18 0 0 1 2.35.34zm-100.05 30.58h-4.5v15.39h4.5v2.67h-12.48v-2.67h4.5v-15.39h-4.5v-2.64h12.48zm5.43 2.27h2.91l.24 2.07a6.62 6.62 0 0 1 5.13-2.49c2.94 0 4.41 1.74 4.41 4.71v11.55h-3.36v-9.87c0-2.76-.33-3.81-2.25-3.81a4.83 4.83 0 0 0-3.72 2.31v11.37h-3.36zm32.37-5.87l-1 2.34a8.64 8.64 0 0 0-3.39-.66c-2.07 0-3.06.78-3.06 2.46v2.82h5.31l-.39 2.49h-4.94v12.21h-3.36v-12.21h-3.6v-2.49h3.6v-2.85c0-3 2.43-5 6.09-5a11.48 11.48 0 0 1 4.74.89zm17.13 13.71c0 5-2.58 8.34-7.17 8.34s-7.17-3.18-7.17-8.31c0-5 2.58-8.34 7.2-8.34s7.14 3.27 7.14 8.31zm-10.8 0c0 3.93 1.2 5.73 3.63 5.73s3.63-1.8 3.63-5.76-1.2-5.7-3.6-5.7-3.66 1.83-3.66 5.76zM422.76 522h-6.06v-20.7h5.67c3.87 0 7.56 1.2 7.56 5.25a4.54 4.54 0 0 1-3.84 4.47c2.25.39 4.74 1.59 4.74 5 0 4.62-3.99 5.98-8.07 5.98zm-.09-18.09h-2.49v6h2.7c2.31 0 3.51-.9 3.51-3.06s-1.39-2.95-3.72-2.95zm.45 8.58h-2.94v6.81H423c2 0 4.2-.51 4.2-3.27s-1.77-3.55-4.08-3.55zm25.14 7.61l-.78 2.28a3.66 3.66 0 0 1-3.27-2.19 6.29 6.29 0 0 1-5 2.19c-3.24 0-5.22-2-5.22-4.92 0-3.3 2.7-5.19 7.53-5.19h2.25v-1c0-2.07-1.29-2.88-3.51-2.88a13.25 13.25 0 0 0-4.2.81l-.84-2.37a16 16 0 0 1 5.55-1.08c4.26 0 6.33 2 6.33 5.31v7.08c-.04 1.21.32 1.69 1.16 1.96zm-4.53-2.22v-3.51h-1.86c-3.15 0-4.38 1.11-4.38 3a2.34 2.34 0 0 0 2.67 2.58 4.24 4.24 0 0 0 3.57-2.07zm22.83-11.73L466 512h-2.4v-3.24c-2.25.06-3.87 1.86-4.8 5v5.88h3.2V522h-8.88v-2.4h2.34v-11h-2.34v-2.4H458l.6 3.66c1.2-2.64 2.85-4.05 5.58-4.05a7.18 7.18 0 0 1 2.38.34zm36.69-3.15l-1.8 2.16a6.6 6.6 0 0 0-4.29-1.53c-3.09 0-5.7 2.16-5.7 8s2.46 7.95 5.73 7.95a7 7 0 0 0 4.68-1.77l1.68 2.13a8.91 8.91 0 0 1-6.48 2.46c-5.28 0-9.24-3.75-9.24-10.77s4.17-10.76 9.17-10.76a9.06 9.06 0 0 1 6.25 2.13zm17.19 11c0 5-2.58 8.34-7.17 8.34s-7.17-3.18-7.17-8.31c0-5 2.58-8.34 7.2-8.34s7.14 3.31 7.14 8.31zm-10.8 0c0 3.93 1.2 5.73 3.63 5.73s3.63-1.8 3.63-5.76-1.2-5.7-3.6-5.7-3.66 1.87-3.66 5.8zm27.96-14.21V522h-3l-.24-2a5.25 5.25 0 0 1-4.44 2.34c-4.08 0-6-3.33-6-8.31s2.37-8.34 6.27-8.34a5.11 5.11 0 0 1 4 1.74v-8.03zm-10.05 14.28c0 4 1.2 5.76 3.3 5.76a4.11 4.11 0 0 0 3.39-2.28v-7.47a3.75 3.75 0 0 0-3.12-1.77c-2.25 0-3.57 1.8-3.57 5.76zm22.5 5.7a7.23 7.23 0 0 0 4.17-1.38l1.44 2a9.2 9.2 0 0 1-5.76 2c-4.95 0-7.65-3.36-7.65-8.31 0-4.74 2.73-8.34 7.23-8.34 4.2 0 6.84 3 6.84 7.92a10.88 10.88 0 0 1-.09 1.5h-10.5c.21 3.23 2.04 4.61 4.32 4.61zm-4.35-6.9h7.35c-.06-3-1.29-4.65-3.54-4.65s-3.6 1.47-3.81 4.65zm-167.58-51.6h-2.52v7.38h-3.45V448h5.73c5.22 0 8.31 2.1 8.31 6.51 0 4.79-3.33 6.76-8.07 6.76zm0-10.7h-2.52v8.07h2.55c2.61 0 4.41-1 4.41-4.17 0-2.82-1.77-3.9-4.44-3.9zm25.44 2.25l-.57 5.85h-2.4v-3.24c-2.25.05-3.87 1.86-4.8 4.95v5.88H399v2.39h-8.88v-2.39h2.34v-11h-2.34v-2.4H395l.6 3.66c1.2-2.64 2.85-4.05 5.58-4.05a7.18 7.18 0 0 1 2.38.35zm17.88 7.89c0 5-2.58 8.33-7.17 8.33s-7.17-3.18-7.17-8.31c0-4.94 2.58-8.33 7.2-8.33s7.14 3.27 7.14 8.31zm-10.8 0c0 3.93 1.2 5.74 3.63 5.74s3.63-1.81 3.63-5.76-1.2-5.7-3.6-5.7-3.66 1.82-3.66 5.74zM440 456.9v11.75h-3v-11.3c0-1.66-.12-2.34-1.05-2.34a2.93 2.93 0 0 0-2.34 1.59v12h-2.73v-11.3c0-1.66-.12-2.34-1.05-2.34a2.89 2.89 0 0 0-2.34 1.59v12h-3v-15.73h2.52l.24 1.7c.9-1.25 1.86-2.12 3.39-2.12a2.59 2.59 0 0 1 2.7 2 4.23 4.23 0 0 1 3.48-2c1.84 0 3.18.99 3.18 4.5zm17.44 3.81c0 5-2.58 8.33-7.17 8.33s-7.17-3.18-7.17-8.31c0-4.94 2.58-8.33 7.2-8.33s7.14 3.27 7.14 8.31zm-10.8 0c0 3.93 1.2 5.74 3.63 5.74s3.63-1.81 3.63-5.76-1.2-5.7-3.6-5.7-3.66 1.82-3.66 5.74zm47.61-11.07l-1.8 2.16a6.6 6.6 0 0 0-4.29-1.53c-3.09 0-5.7 2.16-5.7 8s2.46 8 5.73 8a6.93 6.93 0 0 0 4.68-1.78l1.68 2.13a8.87 8.87 0 0 1-6.48 2.46c-5.28 0-9.24-3.75-9.24-10.77s4.17-10.77 9.17-10.77a9.06 9.06 0 0 1 6.25 2.1zm17.19 11.07c0 5-2.58 8.33-7.17 8.33s-7.17-3.18-7.17-8.31c0-4.94 2.58-8.33 7.2-8.33s7.14 3.27 7.14 8.31zm-10.8 0c0 3.93 1.2 5.74 3.63 5.74s3.63-1.81 3.63-5.76-1.2-5.7-3.6-5.7-3.66 1.82-3.66 5.74zm15.3-7.89h2.91l.24 2.07a6.62 6.62 0 0 1 5.13-2.49c2.94 0 4.41 1.74 4.41 4.71v11.54h-3.36v-9.86c0-2.77-.33-3.81-2.25-3.81a4.83 4.83 0 0 0-3.72 2.31v11.36h-3.36zM542.55 469c-3.69 0-5.64-2.06-5.64-5.18v-8.59h-3.51v-2.45h3.51v-3.54l3.36-.39v3.93h5.37l-.39 2.45h-5v8.55c0 1.71.81 2.53 2.76 2.53a6.12 6.12 0 0 0 2.94-.75l1.2 2.21a8.8 8.8 0 0 1-4.6 1.23zm16.5-2.56a7.3 7.3 0 0 0 4.17-1.38l1.44 2a9.25 9.25 0 0 1-5.76 1.94c-4.95 0-7.65-3.35-7.65-8.31 0-4.73 2.73-8.33 7.23-8.33 4.2 0 6.84 3 6.84 7.91a10.68 10.68 0 0 1-.09 1.5h-10.5c.21 3.29 2.04 4.67 4.32 4.67zm-4.35-6.91h7.35c-.06-3-1.29-4.64-3.54-4.64s-3.6 1.47-3.81 4.64zm15.24-6.71h2.91l.24 2.07a6.62 6.62 0 0 1 5.13-2.49c2.94 0 4.41 1.74 4.41 4.71v11.54h-3.36v-9.86c0-2.77-.33-3.81-2.25-3.81a4.83 4.83 0 0 0-3.72 2.31v11.36h-3.36zM596.55 469c-3.69 0-5.64-2.06-5.64-5.18v-8.59h-3.51v-2.45h3.51v-3.54l3.36-.39v3.93h5.37l-.39 2.45h-5v8.55c0 1.71.81 2.53 2.76 2.53a6.12 6.12 0 0 0 2.94-.75l1.2 2.21a8.8 8.8 0 0 1-4.6 1.23z" class="ae8e2fb6-bd02-45ac-93e4-6a130b1ea733" transform="translate(-6.76)"/><path d="M712.32 343.28c0 5.38-1.68 9.41-4.42 12.19l-3.41-3.07a12.81 12.81 0 0 0 3.46-9.12c0-3.74-1.78-6.86-5.33-6.86-2.93 0-4.32 1.48-5.9 6.77-2.07 7.05-4.71 10.7-9.84 10.7-5.43 0-9-4.85-9-11.38a15.76 15.76 0 0 1 4-11.09l3.32 2.93a11.86 11.86 0 0 0-2.93 7.83c0 3.41 1.39 6 4.27 6 2.59 0 3.79-1.83 5.52-7.73 1.68-5.62 4-9.84 10.27-9.84 5.91 0 9.99 4.65 9.99 12.67zM699 302.29c7.73 0 13.35 3.36 13.35 9.79a8.1 8.1 0 0 1-2.79 6.43h11.91l.62 5.38h-35.74v-4.66l3.26-.33a9.1 9.1 0 0 1-3.93-7.39c0-6.68 5.23-9.22 13.32-9.22zm-5.52 16.22h11.86a5.83 5.83 0 0 0 2.83-5c0-3.65-2.78-5.57-9.12-5.57-6.53 0-9.21 1.68-9.21 5-.03 2.45 1.64 4.33 3.61 5.57zm-16.16-37.05a3.51 3.51 0 1 1-3.4 3.5 3.32 3.32 0 0 1 3.4-3.5zm30.44-.19v-6.92h3.93v19.83h-3.93v-7.54h-17.48v7.3h-3.93v-12.67zm-21.41-14.98v-4.65l3.31-.39a10.6 10.6 0 0 1-4-8.21c0-4.7 2.78-7 7.53-7h18.48v5.37H695.9c-4.42 0-6.09.53-6.09 3.6 0 2.5 1.77 4.61 3.69 6h18.19v5.37zm21.79-40.18a11.58 11.58 0 0 0-2.21-6.67l3.27-2.3a14.7 14.7 0 0 1 3.12 9.22c0 7.92-5.38 12.24-13.3 12.24-7.58 0-13.34-4.37-13.34-11.57 0-6.72 4.8-10.95 12.67-10.95a16.73 16.73 0 0 1 2.4.15V233c5.18-.31 7.39-3.24 7.39-6.89zm-11 7v-11.8c-4.8.1-7.44 2.07-7.44 5.67-.04 3.36 2.3 5.76 7.4 6.1zm494.11 361.19c0 13.58-5.67 18.72-18.63 21.93l-1.2-3.88c8.5-2.26 13.49-5.77 14.16-12.68a9.75 9.75 0 0 1-7.44 3.55c-5.42 0-9.45-4.08-9.45-10.6 0-7.16 4.89-11.29 11.23-11.29 7.63 0 11.33 5.09 11.33 12.97zm-5.57 1.48c.14-7.53-1.49-10.37-5.81-10.37-3.69 0-5.71 2.4-5.71 7.21s2.11 6.57 5.33 6.57c2.59-.05 4.51-1.34 6.19-3.41zm31.78 13.35l2.44 3.46a14.13 14.13 0 0 1-8.88 3.12c-7.82 0-12.33-5.24-12.33-13.16 0-7.73 4.61-13.49 12.43-13.49a13.28 13.28 0 0 1 8.78 3.08l-2.49 3.36a10.9 10.9 0 0 0-6.19-2.12c-4 0-6.82 2.84-6.82 9.17s2.88 8.74 6.82 8.74a11.14 11.14 0 0 0 6.24-2.16zm32.83-12.87v18.82h-4.75V597c0-2.64-.2-3.74-1.68-3.74-1.25 0-2.5.72-3.75 2.54v19.3h-4.37V597c0-2.64-.19-3.74-1.68-3.74-1.29 0-2.49.72-3.74 2.54v19.3h-4.8v-25.37h4l.39 2.74c1.44-2 3-3.41 5.42-3.41a4.15 4.15 0 0 1 4.32 3.22c1.44-1.92 3.12-3.22 5.57-3.22 2.91 0 5.07 1.59 5.07 7.2z" class="bf92b1a9-aa99-4377-a35f-162c24a66e4a" transform="translate(-6.76)"/></g></g></svg>