<svg xmlns="http://www.w3.org/2000/svg" viewBox="0 0 680.75 590.05"><defs><style>.a3275fd0-5c0e-4c50-a66c-51b00a533c1f,.b0cdb69b-cf87-4ea9-85dc-3999c33b824e,.b5e1c52f-fbfe-4637-839d-35dda583352f,.baa8aa36-0b6a-4369-9407-a92346bd6781,.f986a1f5-1254-4999-b9f2-912ad8d1598f{fill:none;stroke-miterlimit:10;}.a3275fd0-5c0e-4c50-a66c-51b00a533c1f{stroke:#d2d2d2;}.ff373d15-ef24-4029-8cc6-a50075b51e80{fill:#e6e6e6;}.baa8aa36-0b6a-4369-9407-a92346bd6781{stroke:gray;}.b0cdb69b-cf87-4ea9-85dc-3999c33b824e{stroke:#ec008c;}.b0cdb69b-cf87-4ea9-85dc-3999c33b824e,.b5e1c52f-fbfe-4637-839d-35dda583352f,.f986a1f5-1254-4999-b9f2-912ad8d1598f{stroke-linecap:round;stroke-width:3px;}.b5e1c52f-fbfe-4637-839d-35dda583352f{stroke:#00aeef;}.f986a1f5-1254-4999-b9f2-912ad8d1598f{stroke:#f7941d;}</style></defs><g id="a74385eb-d1b9-4a25-9e6f-cc86ae5c2ac7" data-name="Layer 2"><g id="a402d4ad-bf6e-4721-9fb2-56e14c384ed3" data-name="Layer 1"><rect class="a3275fd0-5c0e-4c50-a66c-51b00a533c1f" x="33.96" y="33.96" width="317.48" height="544.25"/><rect class="a3275fd0-5c0e-4c50-a66c-51b00a533c1f" x="351.44" y="33.96" width="317.48" height="544.25"/><rect class="ff373d15-ef24-4029-8cc6-a50075b51e80" x="67.97" y="93.48" width="238.11" height="425.2"/><rect class="ff373d15-ef24-4029-8cc6-a50075b51e80" x="396.79" y="93.48" width="238.11" height="425.2"/><path d="M180.68,9.08v1.06h-5V9.08h2V3.24l-1.82,1.12-.58-.94,2.55-1.56H179V9.08Z" transform="translate(-1.7 -1.7)"/><path d="M187.41,4c0,1.45-.91,2.62-3.56,5h3.75l-.14,1.08h-5.15v-1c3-2.85,3.72-3.79,3.72-5a1.24,1.24,0,0,0-1.34-1.34,2,2,0,0,0-1.68.86L182.15,3a3.08,3.08,0,0,1,2.64-1.27A2.36,2.36,0,0,1,187.41,4Z" transform="translate(-1.7 -1.7)"/><path d="M194.41,8.65l.61.87a3.58,3.58,0,0,1-2.22.78A3,3,0,0,1,189.72,7a3.06,3.06,0,0,1,3.1-3.37,3.3,3.3,0,0,1,2.2.77l-.62.84a2.73,2.73,0,0,0-1.55-.53c-1,0-1.7.71-1.7,2.29s.72,2.18,1.7,2.18A2.8,2.8,0,0,0,194.41,8.65Z" transform="translate(-1.7 -1.7)"/><path d="M202.62,5.44v4.7h-1.19V5.62c0-.66-.05-.94-.42-.94a1.18,1.18,0,0,0-.94.64v4.82H199V5.62c0-.66,0-.94-.42-.94s-.62.18-.93.64v4.82h-1.2V3.81h1l.1.68a1.63,1.63,0,0,1,1.36-.85,1,1,0,0,1,1.08.8,1.66,1.66,0,0,1,1.39-.8C202.08,3.64,202.62,4,202.62,5.44Z" transform="translate(-1.7 -1.7)"/><path d="M509.5,9.08v1.06h-5V9.08h2V3.24l-1.82,1.12-.58-.94,2.55-1.56h1.18V9.08Z" transform="translate(-1.7 -1.7)"/><path d="M516.23,4c0,1.45-.91,2.62-3.56,5h3.75l-.14,1.08h-5.15v-1c3-2.85,3.72-3.79,3.72-5a1.24,1.24,0,0,0-1.34-1.34,2,2,0,0,0-1.68.86L511,3A3.06,3.06,0,0,1,513.6,1.7,2.36,2.36,0,0,1,516.23,4Z" transform="translate(-1.7 -1.7)"/><path d="M523.23,8.65l.61.87a3.58,3.58,0,0,1-2.22.78A3,3,0,0,1,518.54,7a3.06,3.06,0,0,1,3.1-3.37,3.3,3.3,0,0,1,2.2.77l-.62.84a2.73,2.73,0,0,0-1.55-.53c-1,0-1.7.71-1.7,2.29s.71,2.18,1.7,2.18A2.8,2.8,0,0,0,523.23,8.65Z" transform="translate(-1.7 -1.7)"/><path d="M531.43,5.44v4.7h-1.18V5.62c0-.66,0-.94-.42-.94a1.18,1.18,0,0,0-.94.64v4.82H527.8V5.62c0-.66,0-.94-.42-.94s-.62.18-.94.64v4.82h-1.19V3.81h1l.1.68a1.63,1.63,0,0,1,1.35-.85,1,1,0,0,1,1.08.8,1.69,1.69,0,0,1,1.4-.8C530.9,3.64,531.43,4,531.43,5.44Z" transform="translate(-1.7 -1.7)"/><path d="M4,307c1.45,0,2.62.91,5,3.56V306.8l1.08.14v5.15h-1c-2.85-3-3.79-3.72-5-3.72a1.24,1.24,0,0,0-1.34,1.34,2,2,0,0,0,.86,1.68l-.67.86a3.08,3.08,0,0,1-1.27-2.63A2.36,2.36,0,0,1,4,307Z" transform="translate(-1.7 -1.7)"/><path d="M6,299.26c2.75,0,4.31,1,4.31,2.82S8.74,304.9,6,304.9s-4.29-1-4.29-2.82S3.26,299.26,6,299.26Zm0,4.28c2.38,0,3.29-.54,3.29-1.46s-.93-1.46-3.29-1.46-3.26.52-3.26,1.46S3.66,303.54,6,303.54Zm0-2.25a.79.79,0,1,1-.78.79A.77.77,0,0,1,6,301.29Z" transform="translate(-1.7 -1.7)"/><path d="M8.65,292.79l.87-.61a3.58,3.58,0,0,1,.78,2.22A3,3,0,0,1,7,297.48a3.06,3.06,0,0,1-3.37-3.1,3.3,3.3,0,0,1,.77-2.2l.84.63a2.68,2.68,0,0,0-.53,1.54c0,1,.71,1.71,2.29,1.71s2.18-.72,2.18-1.71A2.8,2.8,0,0,0,8.65,292.79Z" transform="translate(-1.7 -1.7)"/><path d="M5.44,284.59h4.7v1.18H5.62c-.66,0-.94.05-.94.42a1.18,1.18,0,0,0,.64.94h4.82v1.09H5.62c-.66,0-.94,0-.94.42s.18.62.64.94h4.82v1.19H3.81v-1l.68-.1a1.63,1.63,0,0,1-.85-1.35,1,1,0,0,1,.8-1.08,1.69,1.69,0,0,1-.8-1.39C3.64,285.13,4,284.59,5.44,284.59Z" transform="translate(-1.7 -1.7)"/><rect class="baa8aa36-0b6a-4369-9407-a92346bd6781" x="22.62" y="22.62" width="657.64" height="566.93"/><line class="b0cdb69b-cf87-4ea9-85dc-3999c33b824e" x1="67.97" y1="305.98" x2="67.97" y2="288.69"/><line class="b5e1c52f-fbfe-4637-839d-35dda583352f" x1="306.08" y1="305.98" x2="306.08" y2="288.69"/><line class="b5e1c52f-fbfe-4637-839d-35dda583352f" x1="351.44" y1="305.98" x2="351.44" y2="288.69"/><line class="b5e1c52f-fbfe-4637-839d-35dda583352f" x1="351.44" y1="305.98" x2="351.44" y2="288.69"/><line class="b5e1c52f-fbfe-4637-839d-35dda583352f" x1="396.79" y1="305.98" x2="396.79" y2="288.69"/><line class="b0cdb69b-cf87-4ea9-85dc-3999c33b824e" x1="33.96" y1="305.98" x2="33.96" y2="288.69"/><line class="b0cdb69b-cf87-4ea9-85dc-3999c33b824e" x1="668.92" y1="305.98" x2="668.92" y2="288.69"/><line class="f986a1f5-1254-4999-b9f2-912ad8d1598f" x1="524.49" y1="93.48" x2="507.2" y2="93.48"/><line class="f986a1f5-1254-4999-b9f2-912ad8d1598f" x1="524.49" y1="518.68" x2="507.2" y2="518.68"/><line class="f986a1f5-1254-4999-b9f2-912ad8d1598f" x1="195.67" y1="93.48" x2="178.38" y2="93.48"/><line class="f986a1f5-1254-4999-b9f2-912ad8d1598f" x1="524.49" y1="33.96" x2="507.2" y2="33.96"/><line class="f986a1f5-1254-4999-b9f2-912ad8d1598f" x1="195.67" y1="33.96" x2="178.38" y2="33.96"/><line class="f986a1f5-1254-4999-b9f2-912ad8d1598f" x1="524.49" y1="578.21" x2="507.2" y2="578.21"/><line class="f986a1f5-1254-4999-b9f2-912ad8d1598f" x1="195.67" y1="578.21" x2="178.38" y2="578.21"/><line class="f986a1f5-1254-4999-b9f2-912ad8d1598f" x1="195.67" y1="518.68" x2="178.38" y2="518.68"/><line class="b0cdb69b-cf87-4ea9-85dc-3999c33b824e" x1="634.9" y1="305.98" x2="634.9" y2="288.69"/></g></g></svg>