<svg xmlns="http://www.w3.org/2000/svg" id="Layer_1" width="1324" height="932" viewBox="0 0 1324 932"><style>.st0{fill:#505050}.st1{fill:#b3b3b3}</style><path d="M8.3 57.6c5 0 5.7-1 5.7-7V31c0-6-.7-7-5.7-7v-1.3h15.8C32.5 22.8 37 27.4 37 33c0 5.2-3.9 9.4-10.7 10.1l5.9 6.9c3.5 4.2 7.6 7.2 11.2 7.6v1.3h-9.9L21.6 43h-2.8v7.5c0 6 .7 7 5.7 7v1.3H8.3v-1.2zm15.8-16.7c5.2 0 7.6-3.5 7.6-7.9 0-4.3-2.4-7.9-7.6-7.9h-5.3v15.8h5.3zm22 7.9c0-6.1 5.5-11 12.1-11s12.1 4.9 12.1 11-5.5 11-12.1 11-12.1-4.9-12.1-11zm19.4 0c0-4.8-2.3-8.7-7.3-8.7-4.9 0-7.3 3.9-7.3 8.7s2.3 8.7 7.3 8.7 7.3-3.9 7.3-8.7zm12.6 14.8l1.1.7c-5 5.6.9 8.3 5.6 8.3 3.7 0 7.4-1.8 7.4-4.6s-3-3.7-8-4.2c-4.9-.5-8.5-2-8.5-5.6 0-2.2 1.9-3.8 5-4.8-3-1.4-5-4.1-5-7.3 0-4.5 4-8.2 8.9-8.2 2.4 0 4.6.8 6.2 2.3 1.1-1.3 3.2-2.3 4.5-2.3 4.1 0 4.4 4.9 2 5-2.6.2-1.1-2.7-3.6-2.7-.5 0-1.2.3-1.9 1 1.1 1.3 1.7 3.1 1.7 4.9 0 4.4-3.9 7.6-7.8 8.2-2.6.3-6.7.9-6.7 2.5s3.5 2.1 5.5 2.3c8.3.7 10.9 4.2 10.9 7.9 0 5-4.7 8-10.6 8-10.1-.2-14.1-7.6-6.7-11.4zM89 46c0-3.5-1.4-6.2-4.3-6.2s-4.4 2.7-4.4 6.2 1.4 6.2 4.4 6.2S89 49.5 89 46zm12.5 2.8c0-6.4 5.5-11 11.1-11 5.3 0 9.6 4.3 8.2 9.5h-14.5c-.7 5.6 1.6 10 7.8 10 2 0 4.9-1.1 6.6-2.8l1.1 1.3c-2.1 2.2-5.8 4-9.2 4-6.6 0-11.1-4.9-11.1-11zm15.1-3.7c.7-1.9-.4-4.9-4.3-4.9-2.6 0-4.8 1.9-5.6 4.9h9.9zm9.6 12.5c4 0 4.7-1 4.7-7v-3c0-6-.8-7-4.7-7v-1.3l8-1.5c.3.6.8 3.1 1 4.3 1.2-2.4 3.9-4.3 6.3-4.3 3.3 0 4.7 2.2 4.7 3.7 0 1.3-.5 2.8-2.4 2.8-1.1 0-2.1-1-2.1-2.2 0-1.3-.7-2-1.9-2-1.4 0-4.6 2.2-4.6 7v3.3c0 6 .7 7 4.7 7v1.3h-13.7v-1.1zm24.1 7.7c2.2-2.3 3.1-4 3.4-6.4-.1.1-.4.1-.5.1-1.6 0-2.8-1.4-2.8-2.9 0-1.6 1.3-2.9 2.8-2.9s3.2 1.1 3.2 3.8c0 2.6-1.8 6.7-5.5 9.1l-.6-.8zm28.1-7.7c4 0 4.7-1 4.7-7v-19c0-6-.7-7-4.7-7v-1.3l9-1.5v20.3c1.7-2 4.4-4.3 7.9-4.3 5.5 0 7.4 3.8 7.4 8.9v3.8c0 6 .8 7 4.8 7v1.3h-13.3v-1.3c3.8 0 4.3-.8 4.3-7V47c0-3.9-1.4-6.4-4.5-6.4-3 0-6.5 2.6-6.5 6v3.9c0 6.2.5 7 3.8 7v1.3h-12.8v-1.2zm36-6.8V47c0-6-.7-7-4.7-7v-1.2h9v11.7c0 3.9 1.3 6.4 4.6 6.4 2.3 0 6.5-2.2 6.5-5.9v-4c0-6-.8-7-4.8-7v-1.2h9v11.8c0 5.7 1 6.4 4.1 6.4v1.1l-7.4 1.5c-.3-.6-.8-2.6-1-3.7-1.5 1.6-4.4 3.8-7.9 3.8-5.4.1-7.4-3.8-7.4-8.9zm27.8 6.8c4 0 4.7-1 4.7-7v-3c0-6-.8-7-4.7-7v-1.3l8-1.5c.3.6.8 3.1 1 4.3 1.6-2 4.4-4.3 8.3-4.3 5.4 0 7.8 3.8 7.8 8.9v3.8c0 6 .7 7 4.7 7v1.3h-13.7v-1.3c3.9 0 4.7-1 4.7-7V47c0-3.9-1.4-6.4-5-6.4-3.3 0-6.9 2.7-6.9 6v3.9c0 6.2.5 7 4.2 7v1.3h-13.2v-1.2zm35.9 6l1.1.7c-5 5.6.9 8.3 5.6 8.3 3.7 0 7.4-1.8 7.4-4.6s-3-3.7-8-4.2c-4.9-.5-8.5-2-8.5-5.6 0-2.2 1.9-3.8 5-4.8-3-1.4-5-4.1-5-7.3 0-4.5 4-8.2 8.9-8.2 2.4 0 4.6.8 6.2 2.3 1.1-1.3 3.2-2.3 4.5-2.3 4.1 0 4.4 4.9 2 5-2.6.2-1.1-2.7-3.6-2.7-.5 0-1.2.3-1.9 1 1.1 1.3 1.7 3.1 1.7 4.9 0 4.4-3.9 7.6-7.8 8.2-2.6.3-6.7.9-6.7 2.5s3.5 2.1 5.5 2.3c8.3.7 10.9 4.2 10.9 7.9 0 5-4.7 8-10.6 8-10.1-.2-14.1-7.6-6.7-11.4zM289 46c0-3.5-1.4-6.2-4.3-6.2s-4.4 2.7-4.4 6.2 1.4 6.2 4.4 6.2 4.3-2.7 4.3-6.2zm11.8 11.6c4 0 4.7-1 4.7-7v-3c0-6-.8-7-4.7-7v-1.3l8-1.5c.3.6.8 3.1 1 4.3 1.2-2.4 3.9-4.3 6.3-4.3 3.3 0 4.7 2.2 4.7 3.7 0 1.3-.5 2.8-2.4 2.8-1.1 0-2.1-1-2.1-2.2 0-1.3-.7-2-1.9-2-1.4 0-4.6 2.2-4.6 7v3.3c0 6 .7 7 4.7 7v1.3h-13.7v-1.1zM325.3 73c0-2.3 2.7-2.3 4.6-7l3-7.5-6.9-14.9c-1.3-2.7-2.2-3.5-4-3.5v-1.2h10.6V40c-2.6 0-3.2.6-1.9 3.5l4.4 9.6 3.8-9.6c1.1-2.8.7-3.5-1.7-3.5v-1.2h8.4V40c-1.9 0-3.2.8-4.3 3.5l-11.7 29.2c-.5 1.2-1.3 2.2-2.2 2.2-.9.1-2.1-.4-2.1-1.9zm32.1-31.3c0 1.6-1.3 2.9-2.9 2.9-1.6 0-2.9-1.3-2.9-2.9 0-1.6 1.3-2.9 2.9-2.9 1.5 0 2.9 1.4 2.9 2.9zm0 14.7c0 1.6-1.3 2.9-2.9 2.9-1.6 0-2.9-1.3-2.9-2.9s1.3-2.9 2.9-2.9c1.5 0 2.9 1.4 2.9 2.9zm23.4-1.8c0-5.1 5.9-7.3 12.8-8.5 0-4.5-.6-6.3-4-6.3-1.4 0-3.4 1-3.4 2.9 0 1.2-.9 2.1-2 2.1-1.2 0-2.1-.9-2.1-2.1 0-2.9 3.8-4.8 7.6-4.8 5.8 0 8.2 2.5 8.2 8.2V55c0 1.5.5 2.3 1.4 2.3.6 0 1.3-.5 1.7-.9l.8 1.1c-1.1 1.2-2.6 1.9-4 1.9-2.3 0-3.8-1.3-4.1-3.5-2.9 2.6-5.1 3.6-7.5 3.6-3 .1-5.4-1.8-5.4-4.9zm12.7-.6v-6.1c-5.7 1.3-8.3 3.3-8.3 5.9 0 1.9 1.3 3.1 2.8 3.1 1.3 0 2.8-.4 5.5-2.9zm14-1.1v-12h-3.1v-1.4c3.6-.8 4.9-3.4 5.3-7.3h2v6.6h5.2v2.1h-5.2v12c0 2.8.8 4.3 2.7 4.3 1.1 0 2.5-.7 3.9-2l1 1c-1.7 2-4.3 3.4-6.3 3.4-3.3.1-5.5-2-5.5-6.7zm15.7-4.1c0-6.4 5.5-11 11.1-11 5.3 0 9.6 4.3 8.2 9.5H428c-.7 5.6 1.6 10 7.8 10 2 0 4.9-1.1 6.6-2.8l1.1 1.3c-2.1 2.2-5.8 4-9.2 4-6.6 0-11.1-4.9-11.1-11zm15.2-3.7c.7-1.9-.4-4.9-4.3-4.9-2.6 0-4.8 1.9-5.6 4.9h9.9zm38.1 13.7h-12.4v-1.4l10.6-8.3c4.6-3.7 5.8-6.9 5.8-9.1 0-3.5-2.6-5.6-6.5-5.6-4.1 0-8.2 4.1-5.2 9l-1.8 1.9c-7.2-4.3-3.5-13.4 7-13.4 5.9 0 11.5 3.1 11.5 8 0 4.8-5.5 8.4-5.5 8.4l-9.2 7.1h15.5l-1.5 8.2h-1.3c0-4-1-4.8-7-4.8zm18.2 4.5c0-.8.5-1.4 1.6-1.4 1.4 0 1.7 2.1 3.2 3.5 1 1.1 2.6 2.3 5.9 2.3 5 0 7.1-3.4 7.1-7.7 0-3.4-1.6-7.1-6.1-8.1-1.2 1-2.1 2.8-3.3 2.8-.5 0-1.3-.5-1.3-1.4 0-.8.7-1.6 1.6-2.2l4.4-3.5c2.2-1.7 4-4.6 4-7.7 0-3.4-2.6-5.5-6.5-5.5-3.5 0-8.3 3.6-5.2 9l-1.8 1.9c-7.2-4.3-3.5-13.4 7-13.4 5.9 0 11.5 3.1 11.5 8 0 4.8-5.5 8.4-5.5 8.4l-2.8 2.1c5.8 1.2 9.4 5 9.4 9.7 0 5.5-5.2 10-11.9 10-7.3-.1-11.3-4.5-11.3-6.8zm30.4-20.4c0-10.2 4.5-21.2 13.8-21.2 4.9 0 8.8 2.6 8.8 4.6 0 1-1 1.6-1.6 1.6-1.9 0-2.7-4.2-7.2-4.2-6.7 0-8.5 8.9-8.8 17.3 1.4-2 3.7-3.5 7.1-3.5 6.7 0 12.1 5 12.1 11.2S543.8 60 537.2 60c-4.5-.2-12.1-3.2-12.1-17.1zm19.3 5.6c0-4.3-1.9-8.8-7.1-8.8-3.5 0-6.5 1.9-7.2 4.4.3 11.8 5 13.3 7.2 13.3 5.2 0 7.1-4.5 7.1-8.9zM568 72.6c4 0 4.7-1 4.7-7V47.5c0-6-.7-7-4.7-7v-1.3l8-1.5c.3.6.7 2.7.9 3.7 1.7-2.1 4.1-3.7 7.4-3.7 5.7 0 10.4 4.9 10.4 11s-4.7 11-10.4 11c-3 0-5.6-1.4-7.4-3.6v9.4c0 6 .8 7 4.7 7v1.3H568v-1.2zm21.8-23.8c0-4.8-2.2-8.6-6.8-8.6-2.8 0-5 1.9-6.1 4.7v7.7c1.1 2.9 3.4 4.8 6.1 4.8 4.7 0 6.8-3.8 6.8-8.6zm10.7 0c0-6.4 5.5-11 11.1-11 5.3 0 9.6 4.3 8.2 9.5h-14.5c-.7 5.6 1.6 10 7.8 10 2 0 4.9-1.1 6.6-2.8l1.1 1.3c-2.1 2.2-5.8 4-9.2 4-6.6 0-11.1-4.9-11.1-11zm15.1-3.7c.7-1.9-.4-4.9-4.3-4.9-2.6 0-4.8 1.9-5.6 4.9h9.9zm10.2 9.5c0-5.1 5.9-7.3 12.8-8.5 0-4.5-.6-6.3-4-6.3-1.4 0-3.4 1-3.4 2.9 0 1.2-.9 2.1-2 2.1-1.2 0-2.1-.9-2.1-2.1 0-2.9 3.8-4.8 7.6-4.8 5.8 0 8.2 2.5 8.2 8.2V55c0 1.5.5 2.3 1.4 2.3.6 0 1.3-.5 1.7-.9l.8 1.1c-1.1 1.2-2.6 1.9-4 1.9-2.3 0-3.8-1.3-4.1-3.5-2.9 2.6-5.1 3.6-7.5 3.6-3 .1-5.4-1.8-5.4-4.9zm12.8-.6v-6.1c-5.7 1.3-8.3 3.3-8.3 5.9 0 1.9 1.3 3.1 2.8 3.1 1.3 0 2.7-.4 5.5-2.9zm12-4.7c0-7.1 5.8-11.5 10.6-11.5 5 0 7.1 2.1 7.1 4.3 0 1-.6 2.6-2.6 2.6-1.3 0-2.3-1.1-2.3-2.4 0-2-1.1-2.6-2.2-2.6-3.2 0-5.8 4.1-5.8 9.6 0 4.8 2.3 8 7.3 8 2 0 4.4-.9 6.4-2.8l1 1.3c-2.3 2.5-5.5 4-8.9 4-6.7 0-10.6-4.5-10.6-10.5zm21.8 8.3c4 0 4.7-1 4.7-7v-19c0-6-.7-7-4.7-7v-1.3l9-1.5v20.3c1.7-2 4.4-4.3 7.9-4.3 5.5 0 7.4 3.8 7.4 8.9v3.8c0 6 .8 7 4.8 7v1.3h-13.3v-1.3c3.8 0 4.3-.8 4.3-7V47c0-3.9-1.4-6.4-4.5-6.4-3 0-6.5 2.6-6.5 6v3.9c0 6.2.5 7 3.8 7v1.3h-12.8v-1.2zm33.1-8.8c0-6.4 5.5-11 11.1-11 5.3 0 9.6 4.3 8.2 9.5h-14.5c-.7 5.6 1.6 10 7.8 10 2 0 4.9-1.1 6.6-2.8l1.1 1.3c-2.1 2.2-5.8 4-9.2 4-6.6 0-11.1-4.9-11.1-11zm15.1-3.7c.7-1.9-.4-4.9-4.3-4.9-2.6 0-4.8 1.9-5.6 4.9h9.9zm10.2 6h1.3c0 2.7 2.3 6.7 6.5 6.7 2 0 3.4-1.4 3.4-3.1 0-1.5-1.3-2.6-3.4-3.7l-3.4-1.8c-2.9-1.6-4-4.1-4-6 0-3.2 3-5.5 6.1-5.5 3.1 0 4.3 1.4 5.1 1.4.2 0 .4-.4.4-1.4h1.3v7h-1.3c0-2.5-1.8-5-4.9-5-2 0-3.1 1.1-3.1 2.6 0 1.4 1 2.2 3.7 3.7l2.9 1.6c2.6 1.5 4.1 3.6 4.1 5.8 0 4-3.2 6.5-7.1 6.5-2.7 0-4.8-1.9-5.6-1.9-.5 0-.8.5-.8 1.9h-1.3v-8.8zm35.3-1.8c0-4.8 3.1-7.6 6.8-9.9-2.1-3.3-3.3-6.3-3.3-9 0-5 4.6-8.6 10-8.6 4.6 0 8.6 2.8 8.6 6.9 0 5.3-5.9 7.2-10.8 10.6 2.2 3.3 5.5 7 9.8 11.8.4-1.1.7-2.3.8-3.6.5-4.4-.3-5.4-5.3-5.4v-1.3h13.6V42c-5 0-5.6 1.2-6.2 5.4-.2 1.9-.7 3.7-1.4 5.2 2.3 2.7 5 4.8 7.3 4.8 1.1 0 2.4-.6 3.9-2.1l1 1c-1.7 2.3-4.1 3.5-6.1 3.5-3.2 0-5.6-1.7-8-4-2 2.5-5 4-8.9 4-5.7 0-11.8-3.3-11.8-10.5zm19.3 5c-4.3-4.6-8.2-8.8-11-12.7-2.2 1.9-4 4.2-4 8.2 0 3.9 3.3 7.7 8 7.7 3.1 0 5.4-1.3 7-3.2zm-1-25.6c0-2.6-2-4.6-4.7-4.6-3.8 0-5.7 3-5.7 5.3 0 2.8.8 5.2 2.3 7.9 4.2-2.3 8.1-4.5 8.1-8.6zm34.2 20.6c0-7.1 5.8-11.5 10.6-11.5 5 0 7.1 2.1 7.1 4.3 0 1-.6 2.6-2.6 2.6-1.3 0-2.3-1.1-2.3-2.4 0-2-1.1-2.6-2.2-2.6-3.2 0-5.8 4.1-5.8 9.6 0 4.8 2.3 8 7.3 8 2 0 4.4-.9 6.4-2.8l1 1.3c-2.3 2.5-5.5 4-8.9 4-6.7 0-10.6-4.5-10.6-10.5zm23.5 5.3c0-5.1 5.9-7.3 12.8-8.5 0-4.5-.6-6.3-4-6.3-1.4 0-3.4 1-3.4 2.9 0 1.2-.9 2.1-2 2.1-1.2 0-2.1-.9-2.1-2.1 0-2.9 3.8-4.8 7.6-4.8 5.8 0 8.2 2.5 8.2 8.2V55c0 1.5.5 2.3 1.4 2.3.6 0 1.3-.5 1.7-.9l.8 1.1c-1.1 1.2-2.6 1.9-4 1.9-2.3 0-3.8-1.3-4.1-3.5-2.9 2.6-5.1 3.6-7.5 3.6-2.9.1-5.4-1.8-5.4-4.9zm12.8-.6v-6.1c-5.7 1.3-8.3 3.3-8.3 5.9 0 1.9 1.3 3.1 2.8 3.1 1.3 0 2.8-.4 5.5-2.9zm11.4 3.6c4 0 4.7-1 4.7-7v-3c0-6-.8-7-4.7-7v-1.3l8-1.5c.3.6.8 3.1 1 4.3 1.6-2 4.4-4.3 8.3-4.3 5.4 0 7.8 3.8 7.8 8.9v3.8c0 6 .7 7 4.7 7v1.3h-13.7v-1.3c3.9 0 4.7-1 4.7-7V47c0-3.9-1.4-6.4-5-6.4-3.3 0-6.9 2.7-6.9 6v3.9c0 6.2.5 7 4.2 7v1.3h-13.2v-1.2zm35.8-4.7v-12H899v-1.4c3.6-.8 4.9-3.4 5.3-7.3h2v6.6h5.2v2.1h-5.2v12c0 2.8.8 4.3 2.7 4.3 1.1 0 2.5-.7 3.9-2l1 1c-1.7 2-4.3 3.4-6.3 3.4-3.2.1-5.5-2-5.5-6.7zm15.8 1.7c0-5.1 5.9-7.3 12.8-8.5 0-4.5-.6-6.3-4-6.3-1.4 0-3.4 1-3.4 2.9 0 1.2-.9 2.1-2 2.1-1.2 0-2.1-.9-2.1-2.1 0-2.9 3.8-4.8 7.6-4.8 5.8 0 8.2 2.5 8.2 8.2V55c0 1.5.5 2.3 1.4 2.3.6 0 1.3-.5 1.7-.9l.8 1.1c-1.1 1.2-2.6 1.9-4 1.9-2.3 0-3.8-1.3-4.1-3.5-2.9 2.6-5.1 3.6-7.5 3.6-2.9.1-5.4-1.8-5.4-4.9zm12.8-.6v-6.1c-5.7 1.3-8.3 3.3-8.3 5.9 0 1.9 1.3 3.1 2.8 3.1 1.3 0 2.7-.4 5.5-2.9zm10.3 3.6c4 0 4.7-1 4.7-7v-19c0-6-.7-7-4.7-7v-1.3l9-1.5v28.7c0 6 .8 7 4.7 7v1.3H941v-1.2zm17.8-8.8c0-6.1 5.5-11 12.1-11 6.7 0 12.1 4.9 12.1 11s-5.5 11-12.1 11c-6.7 0-12.1-4.9-12.1-11zm19.4 0c0-4.8-2.3-8.7-7.3-8.7-4.9 0-7.3 3.9-7.3 8.7s2.3 8.7 7.3 8.7 7.3-3.9 7.3-8.7zm13.2 2V47c0-6-.7-7-4.7-7v-1.2h9v11.7c0 3.9 1.3 6.4 4.6 6.4 2.3 0 6.5-2.2 6.5-5.9v-4c0-6-.8-7-4.8-7v-1.2h9v11.8c0 5.7 1 6.4 4.1 6.4v1.1l-7.4 1.5c-.3-.6-.8-2.6-1-3.7-1.5 1.6-4.4 3.8-7.9 3.8-5.5.1-7.4-3.8-7.4-8.9zm26.6 21.8c4 0 4.7-1 4.7-7V47.5c0-6-.7-7-4.7-7v-1.3l8-1.5c.3.6.7 2.7.9 3.7 1.7-2.1 4.1-3.7 7.4-3.7 5.7 0 10.4 4.9 10.4 11s-4.7 11-10.4 11c-3 0-5.6-1.4-7.4-3.6v9.4c0 6 .8 7 4.7 7v1.3H1018v-1.2zm21.9-23.8c0-4.8-2.2-8.6-6.8-8.6-2.8 0-5 1.9-6.1 4.7v7.7c1.1 2.9 3.4 4.8 6.1 4.8 4.6 0 6.8-3.8 6.8-8.6zm10.6 0c0-6.4 5.5-11 11.1-11 5.3 0 9.6 4.3 8.2 9.5h-14.5c-.7 5.6 1.6 10 7.8 10 2 0 4.9-1.1 6.6-2.8l1.1 1.3c-2.1 2.2-5.8 4-9.2 4-6.6 0-11.1-4.9-11.1-11zm15.1-3.7c.7-1.9-.4-4.9-4.3-4.9-2.6 0-4.8 1.9-5.6 4.9h9.9zm10.2 6h1.3c0 2.7 2.3 6.7 6.5 6.7 2 0 3.4-1.4 3.4-3.1 0-1.5-1.3-2.6-3.4-3.7l-3.4-1.8c-2.9-1.6-4-4.1-4-6 0-3.2 3-5.5 6.1-5.5 3.1 0 4.3 1.4 5.1 1.4.2 0 .4-.4.4-1.4h1.3v7h-1.3c0-2.5-1.8-5-4.9-5-2 0-3.1 1.1-3.1 2.6 0 1.4 1 2.2 3.7 3.7l2.9 1.6c2.6 1.5 4.1 3.6 4.1 5.8 0 4-3.2 6.5-7.1 6.5-2.7 0-4.8-1.9-5.6-1.9-.5 0-.8.5-.8 1.9h-1.3v-8.8zm33.8 6.5c4 0 4.7-1 4.7-7v-3c0-6-.8-7-4.7-7v-1.3l9-1.5v12.7c0 6 .7 7 4.7 7v1.3h-13.7v-1.2zm4.2-28.4c0-1.4 1.2-2.6 2.6-2.6 1.4 0 2.6 1.2 2.6 2.6 0 1.5-1.2 2.7-2.6 2.7-1.4 0-2.6-1.2-2.6-2.7zm13 28.4c4 0 4.7-1 4.7-7v-3c0-6-.8-7-4.7-7v-1.3l8-1.5c.3.6.8 3.1 1 4.3 1.6-2 4.4-4.3 8.3-4.3 5.4 0 7.8 3.8 7.8 8.9v3.8c0 6 .7 7 4.7 7v1.3h-13.7v-1.3c3.9 0 4.7-1 4.7-7V47c0-3.9-1.4-6.4-5-6.4-3.3 0-6.9 2.7-6.9 6v3.9c0 6.2.5 7 4.2 7v1.3h-13.2v-1.2zm48 0c5 0 5.8-1 5.8-7v-9.5c0-6-.8-7-5.8-7v-1.2h15.8V34c-5 0-5.8 1-5.8 7v9.5c0 6 .7 7 5.8 7v1.3h-15.8v-1.2zm23.9 7.9c0-1.1 1-1.6 1.7-1.6 1.8 0 2.6 4.2 7.1 4.2 6.7 0 8.5-8.9 8.8-17.3-1.4 1.9-3.7 3.5-7.1 3.5-6.7 0-12.1-5-12.1-11.3 0-6.2 5.5-11.2 12.1-11.2 4.6 0 12.2 3 12.2 16.9 0 10.3-4.6 21.3-13.8 21.3-5 0-8.9-2.6-8.9-4.5zm17.7-18c-.3-11.8-5-13.3-7.2-13.3-5.3 0-7.1 4.5-7.1 8.9s1.9 8.8 7.1 8.8c3.5 0 6.4-2 7.2-4.4zm12.4-1.7c0-7.7 6.3-14 14-14s14 6.3 14 14-6.3 14-14 14-14-6.3-14-14zm24.2 0c0-5.8-4.6-10.6-10.1-10.6-5.6 0-10.1 4.8-10.1 10.6s4.6 10.6 10.1 10.6c5.4 0 10.1-4.8 10.1-10.6zm17.6 22c5 0 5.8-1 5.8-7v-4.5h-13.6v-1.1l16.7-25.9h1.1v24.8h.7c5.5 0 6.2-1.4 7-4.6l.3-1.2h1.3l-.5 7.9h-8.7v4.5c0 6 .8 7 5.8 7V69h-15.7v-1.2zm5.8-13.7v-16l-10.4 16h10.4zm22.5-29.4c0-1.6 1.3-2.9 2.8-2.9 1.6 0 2.9 1.4 2.9 2.9 0 3.6-1.4 7.6-1.9 24.5h-2c-.5-16.9-1.8-20.9-1.8-24.5zm0 31.7c0-1.6 1.3-2.9 2.8-2.9 1.6 0 2.9 1.3 2.9 2.9s-1.3 2.9-2.9 2.9c-1.5 0-2.8-1.3-2.8-2.9z" class="st0"/><path d="M34 124.7h-4.3l-.6-13.4c-.2-4-.1-7.8 0-10.1L25 119.8h-4l-4.4-18.6c.2 2.3.2 6.3.1 10.1l-.6 13.4H12l1.6-27.6h5.6l4 18.5L27 97.1h5.6l1.4 27.6zm22.7-21.1l-.8 7.8h-3.2V107c-3 .1-5.2 2.5-6.4 6.6v7.8h4.2v3.2H38.8v-3.2h3.1v-14.7h-3.1v-3.2h6.5l.8 4.9c1.6-3.5 3.8-5.4 7.4-5.4 1.3 0 2.3.2 3.2.6zm18.1 15.3c0-1.7-.7-2.5-5-3.6-4.2-1.1-7-2.6-7-6.2s3.2-6.1 8.4-6.1c3.6 0 6.1 1 8 2.4l-1.9 2.8c-1.6-1.1-3.5-1.9-6-1.9-2.9 0-4 .9-4 2.3 0 1.6 1.2 2.2 5.4 3.4 4.1 1.1 6.8 2.6 6.8 6.6 0 4.6-4.5 6.6-9.3 6.6-3.9 0-6.7-1.3-8.7-3l2.4-2.7c1.6 1.3 3.8 2.3 6.3 2.3 2.8 0 4.6-1.1 4.6-2.9zm41.4-10h10v3.5h-10v8.8h12.2v3.5h-16.8V97.1h16.6l-.5 3.5h-11.4v8.3zm36.1 13.2l-1 3c-2-.2-3.6-1.1-4.4-2.9-1.6 2-4 2.9-6.7 2.9-4.3 0-7-2.6-7-6.6 0-4.4 3.6-6.9 10-6.9h3v-1.4c0-2.8-1.7-3.8-4.7-3.8-1.4 0-3.5.3-5.6 1.1l-1.1-3.2c2.6-1 5.2-1.4 7.4-1.4 5.7 0 8.4 2.6 8.4 7.1v9.4c.1 1.7.6 2.4 1.7 2.7zm-6-2.9v-4.7h-2.5c-4.2 0-5.8 1.5-5.8 4 0 2.2 1.2 3.4 3.6 3.4 1.8 0 3.6-1 4.7-2.7zm23.3 5.5h-5.2l-7.5-21.1h4.8L167 121l5.4-17.4h4.6l-7.4 21.1zm22.4-3c2 0 3.8-.6 5.6-1.8l1.9 2.7c-2 1.6-4.7 2.6-7.7 2.6-6.6 0-10.2-4.5-10.2-11.1 0-6.3 3.6-11.1 9.6-11.1 5.6 0 9.1 4 9.1 10.6 0 .7 0 1.5-.1 2h-14c.4 4.3 2.8 6.1 5.8 6.1zm-5.8-9.2h9.8c-.1-4-1.7-6.2-4.7-6.2-2.8 0-4.8 2-5.1 6.2zm32.6 6.4c0-1.7-.7-2.5-5-3.6-4.2-1.1-7-2.6-7-6.2s3.2-6.1 8.4-6.1c3.6 0 6.1 1 8 2.4l-1.9 2.8c-1.6-1.1-3.5-1.9-6-1.9-2.9 0-4 .9-4 2.3 0 1.6 1.2 2.2 5.4 3.4 4.1 1.1 6.8 2.6 6.8 6.6 0 4.6-4.5 6.6-9.3 6.6-3.9 0-6.7-1.3-8.7-3l2.4-2.7c1.6 1.3 3.8 2.3 6.3 2.3 2.8 0 4.6-1.1 4.6-2.9zm54.9-23.1l-1.4 3.1c-1.4-.6-3-.9-4.5-.9-2.8 0-4.1 1-4.1 3.3v3.8h7.1l-.5 3.3h-6.6v16.3h-4.5v-16.3h-4.8v-3.3h4.8v-3.8c0-4 3.2-6.7 8.1-6.7 2.7 0 4.7.4 6.4 1.2zm22.9 18.3c0 6.7-3.4 11.1-9.6 11.1-6.2 0-9.6-4.2-9.6-11.1 0-6.6 3.4-11.1 9.6-11.1 6.2 0 9.6 4.3 9.6 11.1zm-14.4 0c0 5.2 1.6 7.6 4.8 7.6 3.2 0 4.8-2.4 4.8-7.7 0-5.2-1.6-7.6-4.8-7.6-3.2.1-4.8 2.5-4.8 7.7zm38.5-10.5l-.8 7.8h-3.2V107c-3 .1-5.2 2.5-6.4 6.6v7.8h4.2v3.2h-11.8v-3.2h3.1v-14.7h-3.1v-3.2h6.5l.8 4.9c1.6-3.5 3.8-5.4 7.4-5.4 1.4 0 2.4.2 3.3.6zm40.1-.6c5.6 0 7.9 4.4 7.9 11.1 0 6.4-3 11.1-8.4 11.1-2.3 0-4.2-.8-5.5-2.6l-.2 2.1h-4V95.1l4.5-.5v11.5c1.4-1.9 3.4-3.1 5.7-3.1zm3.2 11.1c0-5.4-1.6-7.7-4.4-7.7-2 0-3.5 1.4-4.6 3v9.9c1 1.5 2.4 2.4 4.2 2.4 3 .1 4.8-2.3 4.8-7.6zm28.6 0c0 6.7-3.4 11.1-9.6 11.1-6.2 0-9.6-4.2-9.6-11.1 0-6.6 3.4-11.1 9.6-11.1 6.2 0 9.6 4.3 9.6 11.1zm-14.4 0c0 5.2 1.6 7.6 4.8 7.6 3.2 0 4.8-2.4 4.8-7.7 0-5.2-1.6-7.6-4.8-7.6-3.2.1-4.8 2.5-4.8 7.7zm37.2-19v29.6h-4l-.3-2.6c-1.4 2-3.4 3.1-5.9 3.1-5.4 0-8-4.4-8-11.1 0-6.4 3.2-11.1 8.4-11.1 2.2 0 4 .8 5.3 2.3V94.6l4.5.5zm-13.4 19c0 5.4 1.6 7.7 4.4 7.7 2 0 3.5-1.4 4.5-3v-10c-1-1.5-2.4-2.4-4.2-2.4-2.9 0-4.7 2.4-4.7 7.7zm31.8 10.6c-1.6 4.8-4.4 8-10.4 8.6l-.6-3.4c4.3-.7 5.6-2.2 6.8-5.3h-1.5l-7.1-21.1h4.8l5.3 18 5.4-18h4.6l-7.3 21.2zm48.2.5c-4.9 0-7.5-2.8-7.5-6.9v-11.4h-4.7v-3.3h4.7v-4.7l4.5-.5v5.2h7.2l-.5 3.3H479v11.4c0 2.3 1.1 3.4 3.7 3.4 1.5 0 2.8-.4 3.9-1l1.6 3c-1.6.8-3.8 1.5-6.2 1.5zm22-3.5c2 0 3.8-.6 5.6-1.8l1.9 2.7c-2 1.6-4.7 2.6-7.7 2.6-6.6 0-10.2-4.5-10.2-11.1 0-6.3 3.6-11.1 9.6-11.1 5.6 0 9.1 4 9.1 10.6 0 .7 0 1.5-.1 2h-14c.4 4.3 2.8 6.1 5.8 6.1zm-5.8-9.2h9.8c-.1-4-1.7-6.2-4.7-6.2-2.8 0-4.8 2-5.1 6.2zm18.5 12.2l7.6-11.1-6.8-10h5.2l4.3 7.4 4.3-7.4h4.9l-6.6 9.8 7.6 11.3H532l-5.2-8.6-5.2 8.6h-4.9zm37.3.5c-4.9 0-7.5-2.8-7.5-6.9v-11.4h-4.7v-3.3h4.7v-4.7l4.5-.5v5.2h7.2l-.5 3.3H551v11.4c0 2.3 1.1 3.4 3.7 3.4 1.5 0 2.8-.4 3.9-1l1.6 3c-1.6.8-3.8 1.5-6.2 1.5z" class="st1"/><path d="M26.5 266.9l-12-16.8h-.1v16.8H9.2v-36.3h11.6c8.7 0 12.6 4.6 12.6 12.1 0 6.9-5.3 10.5-10.4 10.7l10.1 13.5h-6.6zm-8.2-17.5c6.2 0 9.8-2.4 9.8-7.1 0-4.2-3.3-6.8-8-6.8h-5.6v13.9h3.8zm32.1 18.2c-7.6 0-14.5-6.5-14.5-14.2 0-8.3 6.5-14.4 14.8-14.4 7.5 0 14.6 5.9 14.5 14.5 0 7.3-6.1 14.1-14.8 14.1zm.2-23.9c-5.1 0-9.5 4.3-9.5 9.6 0 5.1 4.3 9.7 9.4 9.7 5.3 0 9.7-4.2 9.7-9.7 0-5.3-4.3-9.6-9.6-9.6zm41.3 19.7c-2.1 2.8-5.5 4.3-9.4 4.3-7.8 0-14.5-6.7-14.5-14.1 0-8.2 6.4-14.5 14.6-14.5 3.5 0 7.3 1.5 9.4 3.9v-3.1h5.1v23.6c0 8.8-5.4 14.3-14.6 14.3-6.2 0-11.1-3.3-13.4-8.6h5.7c1.9 2.7 4.5 3.9 7.8 3.9 6.2-.1 9.4-3.5 9.3-9.7zm.1-10c0-6.4-4.9-9.7-9.6-9.7-5 0-9.3 4.4-9.3 9.7 0 5.2 4.3 9.6 9.4 9.6 6 0 9.5-5.2 9.5-9.6zm13.7 2.2c1.2 4.5 4.8 7.4 8.9 7.4 3.2 0 6.2-1.7 7.7-4.6h5.1c-2.1 5.6-7.2 9.2-13 9.2-7.6 0-13.8-6.8-13.8-14 0-8.6 6.5-14.6 13.7-14.6 8 0 14.1 6.2 14.1 14 0 .8 0 1.6-.1 2.5h-22.6zm17.5-3.9c-.4-4.6-4.5-7.9-8.8-7.9-4.2 0-8.3 3.3-8.7 7.9h17.5zm9.2 15.2v-27.1h4.8v2.4h.1c1.2-1.8 3.3-3 6.9-3.2v5.2c-4.4.1-6.7 2.8-6.7 7.4v15.2h-5.1zm12.1 3.2c1.3-.5 1.8-1.1 1.8-3.2h-1.8v-6h5.1v5.6c0 3.6-1.6 5.9-5.1 6.6v-3zm40.6-3.2v-14.7c0-5.8-2.3-8.5-6.8-8.5s-7.2 3.2-7.2 8.5v14.7H166v-36.3h5.1v12h.1c1.6-2.4 4.2-3.6 7.6-3.6 6.5 0 11.3 4.1 11.3 11.6v16.3h-5zm29 0V264h-.1c-1.3 2.3-4.4 3.6-8 3.6-5.8 0-11.3-3.1-11.3-12.7v-15.1h5.1v14.7c0 5.7 2.1 8.4 6.8 8.4 4.7 0 7.1-3.3 7.1-8.5v-14.6h5.1v27.1h-4.7zm29.2 0v-14.8c0-5.7-2.3-8.4-6.8-8.4s-7.2 3.3-7.2 8.4v14.8h-5.1v-27.1h4.8v2.9h.1c2-2.6 4.8-3.6 7.9-3.6 6.5 0 11.3 4.1 11.3 11.6V267h-5zm33-3.5c-2.1 2.8-5.5 4.3-9.4 4.3-7.8 0-14.5-6.7-14.5-14.1 0-8.2 6.4-14.5 14.6-14.5 3.5 0 7.3 1.5 9.4 3.9v-3.1h5.1v23.6c0 8.8-5.4 14.3-14.6 14.3-6.2 0-11.1-3.3-13.4-8.6h5.7c1.9 2.7 4.5 3.9 7.8 3.9 6.1-.1 9.4-3.5 9.3-9.7zm.1-10c0-6.4-4.9-9.7-9.6-9.7-5 0-9.3 4.4-9.3 9.7 0 5.2 4.3 9.6 9.4 9.6 6 0 9.5-5.2 9.5-9.6zm10.7 13.5v-27.1h4.8v2.4h.1c1.2-1.8 3.3-3 6.9-3.2v5.2c-4.4.1-6.7 2.8-6.7 7.4v15.2h-5.1zm20.7 9.1l4-9.6-10.8-26.6h5.5l8 21.1 8.2-21.1h5.5l-15 36.2h-5.4zm24-30.3v-6h5.1v6h-5.1zm0 21.2v-6h5.1v6h-5.1zm47.4 0v-4.2h-.1c-1.9 3.2-5.3 4.9-9.2 4.9-7.9 0-14.4-6-14.4-13.8 0-8.7 6.2-14.7 14.2-14.7 4 0 7.3 1.5 9.4 4.6h.1v-3.8h5.1V267h-5.1zm.1-13.5c0-5.3-3.8-9.7-9.5-9.7-5.1 0-9.3 4.4-9.3 9.7 0 5.1 4.2 9.6 9.3 9.6 5.4 0 9.5-4.4 9.5-9.6zm11.4 13.5v-22.5H387v-4.7h3.7v-9.1h5.1v9.1h4.5v4.7h-4.5v22.5h-5.1zm15.8-11.3c1.2 4.5 4.8 7.4 8.9 7.4 3.2 0 6.2-1.7 7.7-4.6h5.1c-2.1 5.6-7.2 9.2-13 9.2-7.6 0-13.8-6.8-13.8-14 0-8.6 6.5-14.6 13.7-14.6 8 0 14.1 6.2 14.1 14 0 .8 0 1.6-.1 2.5h-22.6zm17.5-3.9c-.4-4.6-4.5-7.9-8.8-7.9-4.2 0-8.3 3.3-8.7 7.9H424zm21.4 15.2v-4.3l14.5-14.7c2.9-3 3-5.1 3-6.4 0-3.7-2.5-6.9-6.2-6.9-3.9 0-6.4 3.1-6.4 7.8v.7h-5.1v-.6c0-8.2 5.7-12.5 11.4-12.5 6.5 0 11.4 5.2 11.4 11.7 0 3.6-1.1 6.1-5.1 10.2l-10 10.3h15.2v4.7h-22.7zm35.1-17.1v-5.1h1.7c2.8 0 5.4-1.6 5.4-5 0-2.7-2.1-5-4.9-5-2.7 0-4.5 1.9-4.9 5.1h-5.1c0-1.4.6-4 2-5.9 1.7-2.3 4.8-3.9 8.1-3.9 5.6 0 9.8 4.2 9.8 10 0 3.1-1 4.9-3.3 7.1 3.1 2 4.9 5.2 4.9 9 0 6.7-4.9 11.5-11.8 11.5-6.4 0-11.6-4.9-11.7-11.4h5.1c.2 4.2 3 6.7 6.8 6.7 3.6 0 6.5-3.1 6.5-6.7 0-3.3-2.4-6.5-7-6.5h-1.6zm27.8-7.2c.8-.2 1.4-.2 2.2-.2 6.6 0 11.7 5.4 11.7 12.2 0 7.1-5.2 13-12.5 13-8.1 0-12.6-6.9-12.6-12.5 0-2.8.9-5.6 2.8-8.6l10.1-15.8h6l-7.7 11.9zm8.8 12.5c0-4.2-2.8-8.1-7.3-8.1-4.2 0-7.6 3.6-7.6 7.8 0 4.4 3 8.2 7.5 8.2 4.2 0 7.4-3.7 7.4-7.9zm21.7 20.9v-36.2h4.7v4.2h.1c2.3-3.3 5.8-4.9 9.7-4.9 8.1 0 14.1 6.3 14.1 14.6 0 7.6-5.9 13.9-13.7 13.9-4.1 0-7.8-1.7-9.6-4.6h-.1v13h-5.2zm23.4-22.6c0-4.9-3.9-9.7-9.4-9.7-5.1 0-9 4.6-9 9.6 0 5.3 3.9 9.7 9.2 9.7 5.3 0 9.2-4.4 9.2-9.6zm13 2.2c1.2 4.5 4.8 7.4 8.9 7.4 3.2 0 6.2-1.7 7.7-4.6h5.1c-2.1 5.6-7.2 9.2-13 9.2-7.6 0-13.8-6.8-13.8-14 0-8.6 6.5-14.6 13.7-14.6 8 0 14.1 6.2 14.1 14 0 .8 0 1.6-.1 2.5h-22.6zm17.5-3.9c-.4-4.6-4.5-7.9-8.8-7.9-4.2 0-8.3 3.3-8.7 7.9h17.5zm31.5 15.2v-4.2h-.1c-1.9 3.2-5.3 4.9-9.2 4.9-7.9 0-14.4-6-14.4-13.8 0-8.7 6.2-14.7 14.2-14.7 4 0 7.3 1.5 9.4 4.6h.1v-3.8h5.1V267h-5.1zm.1-13.5c0-5.3-3.8-9.7-9.5-9.7-5.1 0-9.3 4.4-9.3 9.7 0 5.1 4.2 9.6 9.3 9.6 5.4 0 9.5-4.4 9.5-9.6zm36.5 4.6c-2.2 6.1-7.3 9.7-13.4 9.7-7.8 0-13.9-6.3-13.9-14 0-8.2 5.9-14.6 13.9-14.6 6.2 0 11.8 3.9 13.4 9.8h-5.6c-1.5-3.2-4-5.1-7.6-5.1-5.3 0-8.9 4.1-8.9 9.6 0 5.4 3.7 9.7 8.8 9.7 3.5 0 6.3-1.9 7.7-5h5.6zm22.1 8.9v-14.7c0-5.8-2.3-8.5-6.8-8.5s-7.2 3.2-7.2 8.5v14.7h-5.1v-36.3h5.1v12h.1c1.6-2.4 4.2-3.6 7.6-3.6 6.5 0 11.3 4.1 11.3 11.6v16.3h-5zm14.2-11.3c1.2 4.5 4.8 7.4 8.9 7.4 3.2 0 6.2-1.7 7.7-4.6h5.1c-2.1 5.6-7.2 9.2-13 9.2-7.6 0-13.8-6.8-13.8-14 0-8.6 6.5-14.6 13.7-14.6 8 0 14.1 6.2 14.1 14 0 .8 0 1.6-.1 2.5h-22.6zm17.6-3.9c-.4-4.6-4.5-7.9-8.8-7.9-4.2 0-8.3 3.3-8.7 7.9h17.5zm19.9-4.7c-.2-2-1.4-3.3-3.5-3.3-2 0-3.2 1.3-3.2 2.9 0 2.3 2.4 3 5 3.8 3.8 1.2 7.3 3.5 7.3 8.5 0 5.2-3.8 8.7-9.1 8.7-4.9 0-9.6-3.3-9.6-9.6h5.1c.2 3.3 1.9 4.9 4.6 4.9 2.4 0 3.9-1.5 3.9-3.7 0-1.9-1.4-3.1-4.6-4.1-6.7-2.1-7.8-5-7.8-8.1 0-4.8 4.1-8 8.5-8 4.5 0 8.2 3.1 8.3 7.9h-4.9zm42.6 14.3c-2.9 4.4-6.4 6.4-10.5 6.4-6.1 0-11.1-4.7-11.1-10.8 0-4.5 2.4-8.3 7-10.3-2.7-2.7-3.5-4.7-3.5-7.2 0-5 3.8-9.3 9.2-9.3 5.1 0 9 4.1 9 9.2 0 3.9-2.1 6.8-6.1 8.7l4.8 4.7 4-8h5.7l-5.9 12 7.3 7.4-3.5 3.6-6.4-6.4zM766 250c-3.1 1-5.1 3.3-5.1 6.7 0 3.5 2.4 6 5.8 6 2.8 0 5.1-1.5 7-5.2L766 250zm5.9-10.9c0-2.3-1.6-4.2-3.8-4.2-2.2 0-3.8 1.9-3.8 4.4 0 1.7 1 3.2 3.1 5.1 3.5-1.8 4.5-3.2 4.5-5.3zM829 258c-2.2 6.1-7.3 9.7-13.4 9.7-7.8 0-13.9-6.3-13.9-14 0-8.2 5.9-14.6 13.9-14.6 6.2 0 11.8 3.9 13.4 9.8h-5.6c-1.5-3.2-4-5.1-7.6-5.1-5.3 0-8.9 4.1-8.9 9.6 0 5.4 3.7 9.7 8.8 9.7 3.5 0 6.3-1.9 7.7-5h5.6zm26.2 8.9v-4.2h-.1c-1.9 3.2-5.3 4.9-9.2 4.9-7.9 0-14.4-6-14.4-13.8 0-8.7 6.2-14.7 14.2-14.7 4 0 7.3 1.5 9.4 4.6h.1v-3.8h5.1V267h-5.1zm.1-13.5c0-5.3-3.8-9.7-9.5-9.7-5.1 0-9.3 4.4-9.3 9.7 0 5.1 4.2 9.6 9.3 9.6 5.3 0 9.5-4.4 9.5-9.6zm29.6 13.5v-14.8c0-5.7-2.3-8.4-6.8-8.4s-7.2 3.3-7.2 8.4v14.8h-5.1v-27.1h4.8v2.9h.1c2-2.6 4.8-3.6 7.9-3.6 6.5 0 11.3 4.1 11.3 11.6V267h-5zm11.2 0v-22.5h-3.7v-4.7h3.7v-9.1h5.1v9.1h4.5v4.7h-4.5v22.5h-5.1zm34.3 0v-4.2h-.1c-1.9 3.2-5.3 4.9-9.2 4.9-7.9 0-14.4-6-14.4-13.8 0-8.7 6.2-14.7 14.2-14.7 4 0 7.3 1.5 9.4 4.6h.1v-3.8h5.1V267h-5.1zm.1-13.5c0-5.3-3.8-9.7-9.5-9.7-5.1 0-9.3 4.4-9.3 9.7 0 5.1 4.2 9.6 9.3 9.6 5.3 0 9.5-4.4 9.5-9.6zm10.8 13.5v-36.3h5.1v36.3h-5.1zm23.7.7c-7.6 0-14.5-6.5-14.5-14.2 0-8.3 6.5-14.4 14.8-14.4 7.5 0 14.6 5.9 14.5 14.5 0 7.3-6.1 14.1-14.8 14.1zm.2-23.9c-5.1 0-9.5 4.3-9.5 9.6 0 5.1 4.3 9.7 9.4 9.7 5.3 0 9.7-4.2 9.7-9.7 0-5.3-4.3-9.6-9.6-9.6zm37.7 23.2V264h-.1c-1.3 2.3-4.4 3.6-8 3.6-5.8 0-11.3-3.1-11.3-12.7v-15.1h5.1v14.7c0 5.7 2.1 8.4 6.8 8.4 4.7 0 7.1-3.3 7.1-8.5v-14.6h5.1v27.1h-4.7zm11.3 9.1v-36.2h4.7v4.2h.1c2.3-3.3 5.8-4.9 9.7-4.9 8.1 0 14.1 6.3 14.1 14.6 0 7.6-5.9 13.9-13.7 13.9-4.1 0-7.8-1.7-9.6-4.6h-.1v13h-5.2zm23.3-22.6c0-4.9-3.9-9.7-9.4-9.7-5.1 0-9 4.6-9 9.6 0 5.3 3.9 9.7 9.2 9.7 5.3 0 9.2-4.4 9.2-9.6zm13 2.2c1.2 4.5 4.8 7.4 8.9 7.4 3.2 0 6.2-1.7 7.7-4.6h5.1c-2.1 5.6-7.2 9.2-13 9.2-7.6 0-13.8-6.8-13.8-14 0-8.6 6.5-14.6 13.7-14.6 8 0 14.1 6.2 14.1 14 0 .8 0 1.6-.1 2.5h-22.6zm17.6-3.9c-.4-4.6-4.5-7.9-8.8-7.9-4.2 0-8.3 3.3-8.7 7.9h17.5zm19.9-4.7c-.2-2-1.4-3.3-3.5-3.3-2 0-3.2 1.3-3.2 2.9 0 2.3 2.4 3 5 3.8 3.8 1.2 7.3 3.5 7.3 8.5 0 5.2-3.8 8.7-9.1 8.7-4.9 0-9.6-3.3-9.6-9.6h5.1c.2 3.3 1.9 4.9 4.6 4.9 2.4 0 3.9-1.5 3.9-3.7 0-1.9-1.4-3.1-4.6-4.1-6.7-2.1-7.8-5-7.8-8.1 0-4.8 4.1-8 8.5-8 4.5 0 8.2 3.1 8.3 7.9h-4.9zm22.5-10.3v-6h5.1v6h-5.1zm0 30.2v-27.1h5.1v27.1h-5.1zm29.7 0v-14.8c0-5.7-2.3-8.4-6.8-8.4s-7.2 3.3-7.2 8.4v14.8h-5.1v-27.1h4.8v2.9h.1c2-2.6 4.8-3.6 7.9-3.6 6.5 0 11.3 4.1 11.3 11.6V267h-5zm33.4 0v-31.6h-5.3v-4.7h10.4v36.3h-5.1zm20.6 0l7.7-11.9c-1.4.2-1.6.2-2.2.2-6.7 0-11.7-5.6-11.7-12.2 0-7.3 5.5-13 12.4-13 8 0 12.6 6.7 12.6 12.3 0 2.8-.8 5.5-3.1 9.1l-9.8 15.5h-5.9zm13.9-24.1c0-4.4-3.1-8.2-7.5-8.2-4.1 0-7.3 3.7-7.3 7.8 0 4.3 3.2 8.1 7.3 8.1 4 .1 7.5-3.5 7.5-7.7zm30.7 13.2c0 7.9-6.6 11.6-11.8 11.6-5.4 0-11.7-4-11.7-12.1V242c0-7.7 5.8-12.1 11.9-12.1 6.6 0 11.6 5.3 11.6 11.8V256zm-5.1-14.3c0-3.6-2.1-7.1-6.6-7.1-4.3 0-6.7 3.2-6.7 7.1v13.6c0 4.2 2.2 7.7 6.7 7.7 3.2 0 6.6-2.5 6.6-6.7v-14.6zm23.1 25.2v-5.7h-16.6v-4.9l16.6-25.6h5.1v25.9h3.8v4.7h-3.8v5.7h-5.1zm0-27.7l-10.7 17.4h10.7v-17.4zm13.3 18.8v-27.3h5.1V258h-5.1zm0 8.9v-6h5.1v6h-5.1z" class="st0"/><path d="M31.3 313.7h-6v20.5h6v3.6H14.7v-3.6h6v-20.5h-6v-3.5h16.6v3.5zm18 24.1h-4.6V314h-8.3v-3.8h21.4l-.5 3.8h-8v23.8zm32.3-25.4l-2.4 2.9c-1.7-1.4-3.6-2-5.7-2-4.1 0-7.6 2.9-7.6 10.7 0 7.6 3.3 10.6 7.6 10.6 3 0 4.7-1.2 6.2-2.4L82 335c-1.8 1.8-4.6 3.3-8.6 3.3-7 0-12.3-5-12.3-14.4 0-9.3 5.5-14.3 12.2-14.3 3.8 0 6.1 1 8.3 2.8zm32.4 18.7l-1.9 6.6h-4.8l8.8-27.6h5.8l8.8 27.6h-4.9l-1.9-6.6H114zm8.9-3.6l-4-13.8-4 13.8h8zm22.7 10.3h-5.2l-7.5-21.1h4.8l5.3 17.4 5.4-17.4h4.6l-7.4 21.1zm30.7-2.5l-1 3c-2-.2-3.6-1.1-4.4-2.9-1.6 2-4 2.9-6.7 2.9-4.3 0-7-2.6-7-6.6 0-4.4 3.6-6.9 10-6.9h3v-1.4c0-2.8-1.7-3.8-4.7-3.8-1.4 0-3.5.3-5.6 1.1l-1.1-3.2c2.6-1 5.2-1.4 7.4-1.4 5.7 0 8.4 2.6 8.4 7.1v9.4c.1 1.7.6 2.3 1.7 2.7zm-6-3v-4.7h-2.5c-4.2 0-5.8 1.5-5.8 4 0 2.2 1.2 3.4 3.6 3.4 1.8 0 3.6-1 4.7-2.7zm12.3-15.6h3.9l.3 2.8c1.8-2.2 4.3-3.3 6.8-3.3 3.9 0 5.9 2.3 5.9 6.3v15.4H195v-13.2c0-3.7-.4-5.1-3-5.1-2.1 0-3.8 1.5-5 3.1v15.2h-4.5v-21.2zm35.4 21.6c-4.9 0-7.5-2.8-7.5-6.9V320h-4.7v-3.3h4.7V312l4.5-.5v5.2h7.2l-.5 3.3H215v11.4c0 2.3 1.1 3.4 3.7 3.4 1.5 0 2.8-.4 3.9-1l1.6 3c-1.6.9-3.8 1.5-6.2 1.5zm34.5-14.4c0-9.5 5.6-14.3 12-14.3 3.8 0 6 1.2 8.2 3.2l-2.6 2.7c-1.7-1.5-3.3-2.2-5.5-2.2-3.9 0-7.3 2.8-7.3 10.7 0 7.7 2.2 10.8 6.6 10.8 1.7 0 3.2-.4 4.6-1.2V326h-4.7l-.5-3.6h9.7v13.4c-2.6 1.5-5.4 2.5-9.3 2.5-7 0-11.2-4.8-11.2-14.4zm43.8 11.4l-1 3c-2-.2-3.6-1.1-4.4-2.9-1.6 2-4 2.9-6.7 2.9-4.3 0-7-2.6-7-6.6 0-4.4 3.6-6.9 10-6.9h3v-1.4c0-2.8-1.7-3.8-4.7-3.8-1.4 0-3.5.3-5.6 1.1l-1.1-3.2c2.6-1 5.2-1.4 7.4-1.4 5.7 0 8.4 2.6 8.4 7.1v9.4c.1 1.7.6 2.3 1.7 2.7zm-6-3v-4.7h-2.5c-4.2 0-5.8 1.5-5.8 4 0 2.2 1.2 3.4 3.6 3.4 1.8 0 3.6-1 4.7-2.7zm30.4-15.6l-.8 7.8h-3.2v-4.3c-3 .1-5.2 2.5-6.4 6.6v7.8h4.2v3.2h-11.8v-3.2h3.1v-14.7h-3.1v-3.2h6.5l.8 4.9c1.6-3.5 3.8-5.4 7.4-5.4 1.4-.1 2.4.1 3.3.5zm22.7-8.5v29.6h-4l-.3-2.6c-1.4 2-3.4 3.1-5.9 3.1-5.4 0-8-4.4-8-11.1 0-6.4 3.2-11.1 8.4-11.1 2.2 0 4 .8 5.3 2.3v-10.8l4.5.6zm-13.4 19c0 5.4 1.6 7.7 4.4 7.7 2 0 3.5-1.4 4.5-3v-10c-1-1.5-2.4-2.4-4.2-2.4-2.9 0-4.7 2.4-4.7 7.7zm30 7.6c2 0 3.8-.6 5.6-1.8l1.9 2.7c-2 1.6-4.7 2.6-7.7 2.6-6.6 0-10.2-4.5-10.2-11.1 0-6.3 3.6-11.1 9.6-11.1 5.6 0 9.1 4 9.1 10.6 0 .7 0 1.5-.1 2h-14c.4 4.3 2.8 6.1 5.8 6.1zm-5.8-9.2h9.8c-.1-4-1.7-6.2-4.7-6.2-2.8 0-4.8 2-5.1 6.2zm42.3-1.7c0-9.5 5.6-14.3 12-14.3 3.8 0 6 1.2 8.2 3.2l-2.6 2.7c-1.7-1.5-3.3-2.2-5.5-2.2-3.9 0-7.3 2.8-7.3 10.7 0 7.7 2.2 10.8 6.6 10.8 1.7 0 3.2-.4 4.6-1.2V326h-4.7l-.5-3.6h9.7v13.4c-2.6 1.5-5.4 2.5-9.3 2.5-7 0-11.2-4.8-11.2-14.4zm44 3.3c0 6.7-3.4 11.1-9.6 11.1-6.2 0-9.6-4.2-9.6-11.1 0-6.6 3.4-11.1 9.6-11.1 6.3 0 9.6 4.4 9.6 11.1zm-14.3 0c0 5.2 1.6 7.6 4.8 7.6 3.2 0 4.8-2.4 4.8-7.7 0-5.2-1.6-7.6-4.8-7.6-3.2.1-4.8 2.5-4.8 7.7zm31.8 11.1c-4.9 0-7.5-2.8-7.5-6.9V320h-4.7v-3.3h4.7V312l4.5-.5v5.2h7.2l-.5 3.3H455v11.4c0 2.3 1.1 3.4 3.7 3.4 1.5 0 2.8-.4 3.9-1l1.6 3c-1.6.9-3.8 1.5-6.2 1.5zm17-19c1.7-2.1 4.1-3.2 6.6-3.2 4 0 5.9 2.3 5.9 6.3v15.4H483v-14.7c0-2.5-.9-3.5-3-3.5-2 0-3.8 1.5-4.9 3.1v15.1h-4.5v-29.6l4.5-.5v11.6zm31.1 15.2h5.8v3.3h-16.5v-3.3h6.3v-14.6h-6.1v-3.3h10.6v17.9zm-.2-25.3c0 1.6-1.2 2.8-2.9 2.8-1.8 0-2.9-1.2-2.9-2.8 0-1.6 1.2-2.8 2.9-2.8 1.7-.1 2.9 1.1 2.9 2.8zm28 23.6l2 2.9c-1.8 1.6-4.6 2.6-7.4 2.6-6.5 0-10.3-4.4-10.3-11 0-6.4 3.8-11.2 10.4-11.2 2.9 0 5.3.9 7.3 2.6l-2.1 2.8c-1.6-1.1-3.4-1.8-5.2-1.8-3.4 0-5.7 2.4-5.7 7.6s2.4 7.3 5.7 7.3c2.1 0 3.8-.7 5.3-1.8zm40.9-4.9h-3.4v9.8h-4.6v-27.6h7.6c7 0 11.1 2.8 11.1 8.7 0 6.5-4.4 9.1-10.7 9.1zm0-14.2h-3.4v10.8h3.4c3.5 0 5.9-1.4 5.9-5.6 0-3.8-2.4-5.2-5.9-5.2zm33.9 3l-.8 7.8h-3.2v-4.3c-3 .1-5.2 2.5-6.4 6.6v7.8h4.2v3.2h-11.8v-3.2h3.1v-14.7h-3.1v-3.2h6.5l.8 4.9c1.6-3.5 3.8-5.4 7.4-5.4 1.4-.1 2.3.1 3.3.5zm23.8 10.5c0 6.7-3.4 11.1-9.6 11.1-6.2 0-9.6-4.2-9.6-11.1 0-6.6 3.4-11.1 9.6-11.1s9.6 4.4 9.6 11.1zm-14.3 0c0 5.2 1.6 7.6 4.8 7.6s4.8-2.4 4.8-7.7c0-5.2-1.6-7.6-4.8-7.6-3.2.1-4.8 2.5-4.8 7.7zm63.8 10.6h-4.3l-.6-13.4c-.2-4-.1-7.8 0-10.1l-4.1 18.6h-4l-4.4-18.6c.2 2.3.2 6.3.1 10.1l-.6 13.4H660l1.6-27.6h5.6l4 18.5 3.8-18.5h5.6l1.4 27.6zm14-3c2 0 3.8-.6 5.6-1.8l1.9 2.7c-2 1.6-4.7 2.6-7.7 2.6-6.6 0-10.2-4.5-10.2-11.1 0-6.3 3.6-11.1 9.6-11.1 5.6 0 9.1 4 9.1 10.6 0 .7 0 1.5-.1 2h-14c.3 4.3 2.8 6.1 5.8 6.1zm-5.8-9.2h9.8c-.1-4-1.7-6.2-4.7-6.2-2.8 0-4.8 2-5.1 6.2zm37.2-17.4v29.6h-4l-.3-2.6c-1.4 2-3.4 3.1-5.9 3.1-5.4 0-8-4.4-8-11.1 0-6.4 3.2-11.1 8.4-11.1 2.2 0 4 .8 5.3 2.3v-10.8l4.5.6zm-13.4 19c0 5.4 1.6 7.7 4.4 7.7 2 0 3.5-1.4 4.5-3v-10c-1-1.5-2.4-2.4-4.2-2.4-2.9 0-4.7 2.4-4.7 7.7zm32.1 7.3h5.8v3.3h-16.5v-3.3h6.3v-14.6h-6.1v-3.3h10.6v17.9zm-.2-25.3c0 1.6-1.2 2.8-2.9 2.8-1.8 0-2.9-1.2-2.9-2.8 0-1.6 1.2-2.8 2.9-2.8 1.7-.1 2.9 1.1 2.9 2.8zm17.1 22.2c0 2.5 1 3.5 3 3.5s3.9-1.3 4.9-3v-15.3h4.5v21.1h-3.9l-.3-2.7c-1.6 2.1-4.2 3.2-6.6 3.2-4.1 0-6.1-2.4-6.1-6.3v-15.3h4.5v14.8zm38.3-9.3v15.7h-4v-15.1c0-2.2-.2-3.1-1.4-3.1-1 0-2.1.6-3.1 2.1v16.1h-3.6v-15.1c0-2.2-.2-3.1-1.4-3.1-1.1 0-2.1.6-3.1 2.1v16.1h-4v-21.1h3.4l.3 2.3c1.2-1.7 2.5-2.8 4.5-2.8 1.6 0 3 .7 3.6 2.7 1.2-1.6 2.6-2.7 4.6-2.7 2.4-.1 4.2 1.2 4.2 5.9zm48.4-13.2l-1.4 3.1c-1.4-.6-3-.9-4.5-.9-2.8 0-4.1 1-4.1 3.3v3.8h7.1l-.5 3.3h-6.6v16.3h-4.5v-16.3h-4.8v-3.3h4.8v-3.8c0-4 3.2-6.7 8.1-6.7 2.7 0 4.6.5 6.4 1.2zm22.8 18.3c0 6.7-3.4 11.1-9.6 11.1-6.2 0-9.6-4.2-9.6-11.1 0-6.6 3.4-11.1 9.6-11.1s9.6 4.4 9.6 11.1zm-14.4 0c0 5.2 1.6 7.6 4.8 7.6s4.8-2.4 4.8-7.7c0-5.2-1.6-7.6-4.8-7.6-3.1.1-4.8 2.5-4.8 7.7zm38.6-10.5l-.8 7.8h-3.2v-4.3c-3 .1-5.2 2.5-6.4 6.6v7.8h4.2v3.2h-11.8v-3.2h3.1v-14.7h-3.1v-3.2h6.5l.8 4.9c1.6-3.5 3.8-5.4 7.4-5.4 1.4-.1 2.3.1 3.3.5zm41.3 21.6c-4.9 0-7.5-2.8-7.5-6.9V320h-4.7v-3.3h4.7V312l4.5-.5v5.2h7.2l-.5 3.3H935v11.4c0 2.3 1.1 3.4 3.7 3.4 1.5 0 2.8-.4 3.9-1l1.6 3c-1.6.9-3.8 1.5-6.2 1.5zm24.1-3.8h5.8v3.3h-16.5v-3.3h6.3v-14.6h-6.1v-3.3h10.6v17.9zm-.2-25.3c0 1.6-1.2 2.8-2.9 2.8-1.8 0-2.9-1.2-2.9-2.8 0-1.6 1.2-2.8 2.9-2.8 1.7-.1 2.9 1.1 2.9 2.8zm24.1 29.1c-4.9 0-7.5-2.8-7.5-6.9V320h-4.7v-3.3h4.7V312l4.5-.5v5.2h7.2l-.5 3.3H983v11.4c0 2.3 1.1 3.4 3.7 3.4 1.5 0 2.8-.4 3.9-1l1.6 3c-1.6.9-3.8 1.5-6.2 1.5zm21.8-6.3c0 2 1.3 2.7 3.2 2.7 1.2 0 2.3-.3 3.4-.7l1.1 3.1c-1.2.7-3.1 1.2-5.4 1.2-4.2 0-6.7-2.5-6.7-6.7v-20.2H997v-3.3h10.8V332zm26.3 2.5h5.8v3.3h-16.5v-3.3h6.3v-14.6h-6.1v-3.3h10.6v17.9zm-.2-25.3c0 1.6-1.2 2.8-2.9 2.8-1.8 0-2.9-1.2-2.9-2.8 0-1.6 1.2-2.8 2.9-2.8 1.7-.1 2.9 1.1 2.9 2.8zm12.6 7.5h3.9l.3 2.8c1.8-2.2 4.3-3.3 6.8-3.3 3.9 0 5.9 2.3 5.9 6.3v15.4h-4.5v-13.2c0-3.7-.4-5.1-3-5.1-2.1 0-3.8 1.5-5 3.1v15.2h-4.5v-21.2zm43 1c-1.6.6-3.6.7-6.1.7 2.5 1.2 3.8 2.8 3.8 5.4 0 4.1-3.2 7.1-8.4 7.1-1.2 0-2-.1-2.9-.4-.6.4-.9 1.1-.9 1.8 0 .8.5 1.6 2.6 1.6h3.7c4.5 0 7.7 2.5 7.7 5.9 0 4.2-3.7 6.6-10.6 6.6-7.3 0-9.4-2.3-9.4-6.6h4c0 2.2 1 3.3 5.4 3.3s6-1.1 6-3.1c0-1.7-1.6-2.7-4.1-2.7h-3.6c-4 0-5.8-1.9-5.8-4.1 0-1.4.8-2.8 2.3-3.8-2.5-1.3-3.6-3.2-3.6-5.9 0-4.4 3.6-7.5 8.8-7.5 5.1 0 7.2-.9 9.8-2.1l1.3 3.8zm-15.2 5.9c0 2.6 1.4 4.4 4.3 4.4 2.7 0 4.1-1.6 4.1-4.5 0-2.8-1.4-4.3-4.1-4.3-2.9 0-4.3 1.8-4.3 4.4zM841.7 562.8h-5.4v-22.1h5.1c5.4 0 10.6 1.8 10.6 10.9 0 9.2-5.4 11.2-10.3 11.2zm.3-19.2h-2V560h2.1c3.1 0 6-1.6 6-8.4-.1-7-3.1-8-6.1-8zm21.6 16.8c1.6 0 3-.5 4.4-1.5l1.5 2.2c-1.6 1.3-3.8 2.1-6.1 2.1-5.3 0-8.2-3.6-8.2-8.9 0-5.1 2.9-8.9 7.7-8.9 4.5 0 7.3 3.2 7.3 8.4 0 .6 0 1.2-.1 1.6H859c.2 3.5 2.2 5 4.6 5zm-4.6-7.3h7.8c-.1-3.2-1.4-5-3.8-5-2.2 0-3.8 1.6-4 5zm26 5.1c0-1.4-.5-2-4-2.9-3.4-.9-5.6-2-5.6-5 0-2.9 2.6-4.9 6.8-4.9 2.8 0 4.9.8 6.4 2l-1.5 2.3c-1.3-.9-2.8-1.5-4.8-1.5-2.3 0-3.2.7-3.2 1.9 0 1.3.9 1.8 4.3 2.7 3.3.9 5.5 2 5.5 5.2 0 3.7-3.6 5.2-7.5 5.2-3.1 0-5.4-1-6.9-2.4l1.9-2.2c1.3 1.1 3.1 1.8 5.1 1.8 2.1.1 3.5-.8 3.5-2.2zm21.8.6l1.6 2.3c-1.5 1.2-3.7 2.1-5.9 2.1-5.2 0-8.2-3.5-8.2-8.8 0-5.2 3.1-9 8.3-9 2.3 0 4.2.7 5.9 2l-1.7 2.2c-1.3-.9-2.7-1.4-4.1-1.4-2.7 0-4.5 1.9-4.5 6.1s1.9 5.8 4.5 5.8c1.5.2 2.8-.5 4.1-1.3zm21.4-12.9l-.6 6.2H925v-3.5c-2.4.1-4.1 2-5.1 5.3v6.3h3.4v2.6h-9.5v-2.6h2.5v-11.8h-2.5v-2.6h5.2l.6 3.9c1.3-2.8 3-4.3 6-4.3 1 .1 1.8.2 2.6.5zm13.9 14.3h4.6v2.6h-13.2v-2.6h5v-11.6h-4.9V546h8.4v14.2zm-.2-20.3c0 1.3-1 2.2-2.3 2.2-1.4 0-2.3-1-2.3-2.2 0-1.3.9-2.3 2.3-2.3s2.3 1 2.3 2.3zm24.5 14.4c0 5.2-2.2 8.9-6.5 8.9-1.8 0-3.2-.6-4.3-1.9v7.9l-3.6.4v-23.8h3.1l.2 2.2c1.3-1.7 3-2.6 4.9-2.6 4.5 0 6.2 3.5 6.2 8.9zm-10.8-3.7v7.9c.8 1.2 2 1.9 3.3 1.9 2.4 0 3.7-1.9 3.7-6.1 0-4.4-1.1-6.1-3.4-6.1-1.5 0-2.7 1.1-3.6 2.4zm24.8 12.6c-3.9 0-6-2.2-6-5.5v-9.2h-3.7v-2.6h3.7v-3.8l3.6-.4v4.2h5.7l-.4 2.6H978v9.1c0 1.8.9 2.7 2.9 2.7 1.2 0 2.3-.3 3.1-.8l1.3 2.4c-1.2.8-3 1.3-4.9 1.3zm24.4-8.9c0 5.4-2.8 8.9-7.6 8.9-4.9 0-7.6-3.4-7.6-8.9 0-5.3 2.8-8.9 7.7-8.9s7.5 3.5 7.5 8.9zm-11.5 0c0 4.2 1.3 6.1 3.9 6.1s3.9-1.9 3.9-6.1c0-4.2-1.3-6.1-3.8-6.1-2.7 0-4 1.9-4 6.1zm30.9-8.4l-.6 6.2h-2.6v-3.5c-2.4.1-4.1 2-5.1 5.3v6.3h3.4v2.6h-9.5v-2.6h2.5v-11.8h-2.5v-2.6h5.2l.6 3.9c1.3-2.8 3-4.3 6-4.3 1 .1 1.8.2 2.6.5zm11.4.2c1.7 0 2.9 1.3 2.9 2.9 0 1.6-1.2 2.9-2.9 2.9-1.6 0-2.8-1.3-2.8-2.9-.1-1.6 1.2-2.9 2.8-2.9zm0 11.4c1.7 0 2.9 1.3 2.9 2.8 0 1.6-1.2 2.9-2.9 2.9-1.6 0-2.8-1.3-2.8-2.9-.1-1.5 1.2-2.8 2.8-2.8zm46.8-10.8c-1.3.4-2.9.5-4.9.5 2 .9 3.1 2.3 3.1 4.3 0 3.3-2.5 5.7-6.7 5.7-1 0-1.6-.1-2.3-.3-.4.3-.7.9-.7 1.4 0 .7.4 1.3 2.1 1.3h2.9c3.6 0 6.2 2 6.2 4.7 0 3.4-3 5.3-8.4 5.3-5.8 0-7.5-1.8-7.5-5.2h3.2c0 1.8.8 2.6 4.4 2.6 3.5 0 4.8-.9 4.8-2.5 0-1.4-1.3-2.1-3.3-2.1h-2.9c-3.2 0-4.6-1.5-4.6-3.3 0-1.1.6-2.2 1.9-3-2-1.1-2.9-2.5-2.9-4.7 0-3.6 2.9-6 7-6s5.8-.7 7.8-1.7l.8 3zm-12.1 4.7c0 2.1 1.2 3.5 3.5 3.5 2.1 0 3.3-1.3 3.3-3.6s-1.1-3.4-3.3-3.4c-2.4 0-3.5 1.4-3.5 3.5zm23.7 9c1.6 0 3-.5 4.4-1.5l1.5 2.2c-1.6 1.3-3.8 2.1-6.1 2.1-5.3 0-8.2-3.6-8.2-8.9 0-5.1 2.9-8.9 7.7-8.9 4.5 0 7.3 3.2 7.3 8.4 0 .6 0 1.2-.1 1.6h-11.2c.3 3.5 2.3 5 4.7 5zm-4.6-7.3h7.8c-.1-3.2-1.4-5-3.8-5-2.2 0-3.8 1.6-4 5zm30.6 1.2c0 5.4-2.8 8.9-7.6 8.9-4.9 0-7.6-3.4-7.6-8.9 0-5.3 2.8-8.9 7.7-8.9s7.5 3.5 7.5 8.9zm-11.5 0c0 4.2 1.3 6.1 3.9 6.1s3.9-1.9 3.9-6.1c0-4.2-1.3-6.1-3.8-6.1-2.7 0-4 1.9-4 6.1zm31.3-4.1v12.5h-3.2v-12.1c0-1.8-.1-2.5-1.1-2.5-.8 0-1.7.5-2.5 1.7v12.9h-2.9v-12.1c0-1.8-.1-2.5-1.1-2.5-.9 0-1.7.5-2.5 1.7v12.9h-3.2v-16.9h2.7l.3 1.8c1-1.3 2-2.3 3.6-2.3 1.3 0 2.4.5 2.9 2.1 1-1.3 2.1-2.1 3.7-2.1 1.9.1 3.3 1.2 3.3 4.9zm11.8 10.2c1.6 0 3-.5 4.4-1.5l1.5 2.2c-1.6 1.3-3.8 2.1-6.1 2.1-5.3 0-8.2-3.6-8.2-8.9 0-5.1 2.9-8.9 7.7-8.9 4.5 0 7.3 3.2 7.3 8.4 0 .6 0 1.2-.1 1.6H1147c.2 3.5 2.2 5 4.6 5zm-4.6-7.3h7.8c-.1-3.2-1.4-5-3.8-5-2.2 0-3.8 1.6-4 5zm25.4 10.1c-3.9 0-6-2.2-6-5.5v-9.2h-3.7v-2.6h3.7v-3.8l3.6-.4v4.2h5.7l-.4 2.6h-5.3v9.1c0 1.8.9 2.7 2.9 2.7 1.2 0 2.3-.3 3.1-.8l1.3 2.4c-1.2.8-3 1.3-4.9 1.3zm24.6-17.3l-.6 6.2h-2.6v-3.5c-2.4.1-4.1 2-5.1 5.3v6.3h3.4v2.6h-9.5v-2.6h2.5v-11.8h-2.5v-2.6h5.2l.6 3.9c1.3-2.8 3-4.3 6-4.3 1 .1 1.8.2 2.6.5zm13.9 14.3h4.6v2.6h-13.2v-2.6h5v-11.6h-4.9V546h8.4v14.2zm-.2-20.3c0 1.3-1 2.2-2.3 2.2-1.4 0-2.3-1-2.3-2.2 0-1.3.9-2.3 2.3-2.3s2.3 1 2.3 2.3zm22.5 18.9l1.6 2.3c-1.5 1.2-3.7 2.1-5.9 2.1-5.2 0-8.2-3.5-8.2-8.8 0-5.2 3.1-9 8.3-9 2.3 0 4.2.7 5.9 2l-1.7 2.2c-1.3-.9-2.7-1.4-4.1-1.4-2.7 0-4.5 1.9-4.5 6.1s1.9 5.8 4.5 5.8c1.5.2 2.8-.5 4.1-1.3zm-391.5 203h-5.4v-22.1h5.1c5.4 0 10.6 1.8 10.6 10.9 0 9.2-5.4 11.2-10.3 11.2zm.3-19.2h-2V759h2.1c3.1 0 6-1.6 6-8.4-.1-7-3.1-8-6.1-8zm21.6 16.8c1.6 0 3-.5 4.4-1.5l1.5 2.2c-1.6 1.3-3.8 2.1-6.1 2.1-5.3 0-8.2-3.6-8.2-8.9 0-5.1 2.9-8.9 7.7-8.9 4.5 0 7.3 3.2 7.3 8.4 0 .6 0 1.2-.1 1.6H859c.2 3.5 2.2 5 4.6 5zm-4.6-7.3h7.8c-.1-3.2-1.4-5-3.8-5-2.2 0-3.8 1.6-4 5zm26 5.1c0-1.4-.5-2-4-2.9-3.4-.9-5.6-2-5.6-5 0-2.9 2.6-4.9 6.8-4.9 2.8 0 4.9.8 6.4 2l-1.5 2.3c-1.3-.9-2.8-1.5-4.8-1.5-2.3 0-3.2.7-3.2 1.9 0 1.3.9 1.8 4.3 2.7 3.3.9 5.5 2 5.5 5.2 0 3.7-3.6 5.2-7.5 5.2-3.1 0-5.4-1-6.9-2.4l1.9-2.2c1.3 1.1 3.1 1.8 5.1 1.8 2.1.1 3.5-.8 3.5-2.2zm21.8.6l1.6 2.3c-1.5 1.2-3.7 2.1-5.9 2.1-5.2 0-8.2-3.5-8.2-8.8 0-5.2 3.1-9 8.3-9 2.3 0 4.2.7 5.9 2l-1.7 2.2c-1.3-.9-2.7-1.4-4.1-1.4-2.7 0-4.5 1.9-4.5 6.1s1.9 5.8 4.5 5.8c1.5.2 2.8-.5 4.1-1.3zm21.4-12.9l-.6 6.2H925v-3.5c-2.4.1-4.1 2-5.1 5.3v6.3h3.4v2.6h-9.5v-2.6h2.5v-11.8h-2.5v-2.6h5.2l.6 3.9c1.3-2.8 3-4.3 6-4.3 1 .1 1.8.2 2.6.5zm13.9 14.3h4.6v2.6h-13.2v-2.6h5v-11.6h-4.9V745h8.4v14.2zm-.2-20.3c0 1.3-1 2.2-2.3 2.2-1.4 0-2.3-1-2.3-2.2 0-1.3.9-2.3 2.3-2.3s2.3 1 2.3 2.3zm24.5 14.4c0 5.2-2.2 8.9-6.5 8.9-1.8 0-3.2-.6-4.3-1.9v7.9l-3.6.4v-23.8h3.1l.2 2.2c1.3-1.7 3-2.6 4.9-2.6 4.5 0 6.2 3.5 6.2 8.9zm-10.8-3.7v7.9c.8 1.2 2 1.9 3.3 1.9 2.4 0 3.7-1.9 3.7-6.1 0-4.4-1.1-6.1-3.4-6.1-1.5 0-2.7 1.1-3.6 2.4zm24.8 12.6c-3.9 0-6-2.2-6-5.5v-9.2h-3.7v-2.6h3.7v-3.8l3.6-.4v4.2h5.7l-.4 2.6H978v9.1c0 1.8.9 2.7 2.9 2.7 1.2 0 2.3-.3 3.1-.8l1.3 2.4c-1.2.8-3 1.3-4.9 1.3zm24.4-8.9c0 5.4-2.8 8.9-7.6 8.9-4.9 0-7.6-3.4-7.6-8.9 0-5.3 2.8-8.9 7.7-8.9s7.5 3.5 7.5 8.9zm-11.5 0c0 4.2 1.3 6.1 3.9 6.1s3.9-1.9 3.9-6.1c0-4.2-1.3-6.1-3.8-6.1-2.7 0-4 1.9-4 6.1zm30.9-8.4l-.6 6.2h-2.6v-3.5c-2.4.1-4.1 2-5.1 5.3v6.3h3.4v2.6h-9.5v-2.6h2.5v-11.8h-2.5v-2.6h5.2l.6 3.9c1.3-2.8 3-4.3 6-4.3 1 .1 1.8.2 2.6.5zm11.4.2c1.7 0 2.9 1.3 2.9 2.9 0 1.6-1.2 2.9-2.9 2.9-1.6 0-2.8-1.3-2.8-2.9-.1-1.6 1.2-2.9 2.8-2.9zm0 11.4c1.7 0 2.9 1.3 2.9 2.8 0 1.6-1.2 2.9-2.9 2.9-1.6 0-2.8-1.3-2.8-2.9-.1-1.5 1.2-2.8 2.8-2.8zm44 1.3l1.6 2.3c-1.5 1.2-3.7 2.1-5.9 2.1-5.2 0-8.2-3.5-8.2-8.8 0-5.2 3.1-9 8.3-9 2.3 0 4.2.7 5.9 2l-1.7 2.2c-1.3-.9-2.7-1.4-4.1-1.4-2.7 0-4.5 1.9-4.5 6.1s1.9 5.8 4.5 5.8c1.5.2 2.8-.5 4.1-1.3zm21.1 2l-.8 2.4c-1.6-.2-2.9-.9-3.5-2.3-1.2 1.6-3.2 2.3-5.4 2.3-3.5 0-5.6-2.1-5.6-5.2 0-3.5 2.9-5.5 8-5.5h2.4v-1.1c0-2.2-1.4-3.1-3.7-3.1-1.1 0-2.8.3-4.5.9l-.9-2.5c2.1-.8 4.2-1.2 5.9-1.2 4.5 0 6.8 2.1 6.8 5.7v7.6c0 1.2.4 1.7 1.3 2zm-4.9-2.4v-3.7h-2c-3.4 0-4.7 1.2-4.7 3.2 0 1.8 1 2.8 2.8 2.8 1.6-.1 3.1-.9 3.9-2.3zm17.3-.2c0 1.6 1.1 2.1 2.6 2.1 1 0 1.8-.2 2.7-.6l.9 2.5c-1 .5-2.5 1-4.4 1-3.4 0-5.4-2-5.4-5.3v-16.1h-5.1v-2.6h8.7v19zm21 2h4.6v2.6h-13.2v-2.6h5v-11.6h-4.9V745h8.4v14.2zm-.2-20.3c0 1.3-1 2.2-2.3 2.2-1.4 0-2.3-1-2.3-2.2 0-1.3.9-2.3 2.3-2.3s2.3 1 2.3 2.3zm25.3 6.8c-1.3.4-2.9.5-4.9.5 2 .9 3.1 2.3 3.1 4.3 0 3.3-2.5 5.7-6.7 5.7-1 0-1.6-.1-2.3-.3-.4.3-.7.9-.7 1.4 0 .7.4 1.3 2.1 1.3h2.9c3.6 0 6.2 2 6.2 4.7 0 3.4-3 5.3-8.4 5.3-5.8 0-7.5-1.8-7.5-5.2h3.2c0 1.8.8 2.6 4.4 2.6 3.5 0 4.8-.9 4.8-2.5 0-1.4-1.3-2.1-3.3-2.1h-2.9c-3.2 0-4.6-1.5-4.6-3.3 0-1.1.6-2.2 1.9-3-2-1.1-2.9-2.5-2.9-4.7 0-3.6 2.9-6 7-6s5.8-.7 7.8-1.7l.8 3zm-12.1 4.7c0 2.1 1.2 3.5 3.5 3.5 2.1 0 3.3-1.3 3.3-3.6s-1.1-3.4-3.3-3.4c-2.4 0-3.5 1.4-3.5 3.5zm30.7-5.5l-.6 6.2h-2.6v-3.5c-2.4.1-4.1 2-5.1 5.3v6.3h3.4v2.6h-9.5v-2.6h2.5v-11.8h-2.5v-2.6h5.2l.6 3.9c1.3-2.8 3-4.3 6-4.3 1 .1 1.8.2 2.6.5zm18.8 14.9l-.8 2.4c-1.6-.2-2.9-.9-3.5-2.3-1.2 1.6-3.2 2.3-5.4 2.3-3.5 0-5.6-2.1-5.6-5.2 0-3.5 2.9-5.5 8-5.5h2.4v-1.1c0-2.2-1.4-3.1-3.7-3.1-1.1 0-2.8.3-4.5.9l-.9-2.5c2.1-.8 4.2-1.2 5.9-1.2 4.5 0 6.8 2.1 6.8 5.7v7.6c.1 1.2.5 1.7 1.3 2zm-4.8-2.4v-3.7h-2c-3.4 0-4.7 1.2-4.7 3.2 0 1.8 1 2.8 2.8 2.8 1.6-.1 3.1-.9 3.9-2.3zm24.2-4.1c0 5.2-2.2 8.9-6.5 8.9-1.8 0-3.2-.6-4.3-1.9v7.9l-3.6.4v-23.8h3.1l.2 2.2c1.3-1.7 3-2.6 4.9-2.6 4.5 0 6.2 3.5 6.2 8.9zm-10.8-3.7v7.9c.8 1.2 2 1.9 3.3 1.9 2.4 0 3.7-1.9 3.7-6.1 0-4.4-1.1-6.1-3.4-6.1-1.5 0-2.7 1.1-3.6 2.4zm19.2-2.6c1.4-1.7 3.3-2.5 5.2-2.5 3.2 0 4.7 1.9 4.7 5v12.3h-3.6V750c0-2-.7-2.8-2.4-2.8-1.6 0-3 1.2-3.9 2.5v12.1h-3.6v-23.6l3.6-.4v9.2zm24.9 12.2h4.6v2.6h-13.2v-2.6h5v-11.6h-4.9V745h8.4v14.2zm-.2-20.3c0 1.3-1 2.2-2.3 2.2-1.4 0-2.3-1-2.3-2.2 0-1.3.9-2.3 2.3-2.3s2.3 1 2.3 2.3zm22.5 18.9l1.6 2.3c-1.5 1.2-3.7 2.1-5.9 2.1-5.2 0-8.2-3.5-8.2-8.8 0-5.2 3.1-9 8.3-9 2.3 0 4.2.7 5.9 2l-1.7 2.2c-1.3-.9-2.7-1.4-4.1-1.4-2.7 0-4.5 1.9-4.5 6.1s1.9 5.8 4.5 5.8c1.5.2 2.8-.5 4.1-1.3zM17.4 721.2c-4.5 0-7.8-1.4-10.2-3.7l2.6-2.8c2 1.8 4.4 2.9 7.6 2.9 3.1 0 5.7-1.5 5.7-4.4 0-2.4-1.2-3.6-5.6-4.9-5.9-1.7-8.9-3.9-8.9-8.2 0-4.5 4-7.5 9.5-7.5 4 0 6.9 1.2 9.2 3.3l-2.4 2.8c-2-1.7-4.2-2.4-6.5-2.4-2.8 0-5 1.2-5 3.6 0 2.2 1.5 3.2 6.4 4.6 4.7 1.4 8.2 3.4 8.2 8.6 0 4.7-3.9 8.1-10.6 8.1zm33.9-3.1l-1 3c-2-.2-3.6-1.1-4.4-2.9-1.6 2-4 2.9-6.7 2.9-4.3 0-7-2.6-7-6.6 0-4.4 3.6-6.9 10-6.9h3v-1.4c0-2.8-1.7-3.8-4.7-3.8-1.4 0-3.5.3-5.6 1.1l-1.1-3.2c2.6-1 5.2-1.4 7.4-1.4 5.7 0 8.4 2.6 8.4 7.1v9.4c.1 1.7.6 2.4 1.7 2.7zm-6-2.9v-4.7h-2.5c-4.2 0-5.8 1.5-5.8 4 0 2.2 1.2 3.4 3.6 3.4 1.8 0 3.6-1 4.7-2.7zm31-10.2v15.7h-4v-15.1c0-2.2-.2-3.1-1.4-3.1-1 0-2.1.6-3.1 2.1v16.1h-3.6v-15.1c0-2.2-.2-3.1-1.4-3.1-1.1 0-2.1.6-3.1 2.1v16.1h-4v-21.1H59l.3 2.3c1.2-1.7 2.5-2.8 4.5-2.8 1.6 0 3 .7 3.6 2.7 1.2-1.6 2.6-2.7 4.6-2.7 2.5-.1 4.3 1.2 4.3 5.9zm23.3 5.1c0 6.4-2.8 11.1-8.2 11.1-2.2 0-4-.8-5.4-2.3v9.9l-4.5.5v-29.8h3.9l.3 2.7c1.6-2.2 3.8-3.3 6.2-3.3 5.5.1 7.7 4.4 7.7 11.2zM86 705.5v9.9c1 1.5 2.4 2.4 4.2 2.4 3 0 4.6-2.3 4.6-7.6 0-5.4-1.4-7.7-4.2-7.7-2-.1-3.5 1.3-4.6 3zm28.8 9.4c0 2 1.3 2.7 3.2 2.7 1.2 0 2.3-.3 3.4-.7l1.1 3.1c-1.2.7-3.1 1.2-5.4 1.2-4.2 0-6.7-2.5-6.7-6.7v-20.2H104V691h10.8v23.9zm24.2 2.8c2 0 3.8-.6 5.6-1.8l1.9 2.7c-2 1.6-4.7 2.6-7.7 2.6-6.6 0-10.2-4.5-10.2-11.1 0-6.3 3.6-11.1 9.6-11.1 5.6 0 9.1 4 9.1 10.6 0 .7 0 1.5-.1 2h-14c.4 4.3 2.8 6.1 5.8 6.1zm-5.8-9.2h9.8c-.1-4-1.7-6.2-4.7-6.2-2.8 0-4.8 2-5.1 6.2zm55.1 12.2h-4.6v-23.8h-8.3v-3.8h21.4l-.5 3.8h-8v23.8zm22.7-3c2 0 3.8-.6 5.6-1.8l1.9 2.7c-2 1.6-4.7 2.6-7.7 2.6-6.6 0-10.2-4.5-10.2-11.1 0-6.3 3.6-11.1 9.6-11.1 5.6 0 9.1 4 9.1 10.6 0 .7 0 1.5-.1 2h-14c.4 4.3 2.8 6.1 5.8 6.1zm-5.8-9.2h9.8c-.1-4-1.7-6.2-4.7-6.2-2.8 0-4.8 2-5.1 6.2zm18.5 12.2l7.6-11.1-6.8-10h5.2l4.3 7.4 4.3-7.4h4.9l-6.6 9.8 7.6 11.3H239l-5.2-8.6-5.2 8.6h-4.9zm37.3.5c-4.9 0-7.5-2.8-7.5-6.9v-11.4h-4.7v-3.3h4.7v-4.7l4.5-.5v5.2h7.2l-.5 3.3H258v11.4c0 2.3 1.1 3.4 3.7 3.4 1.5 0 2.8-.4 3.9-1l1.6 3c-1.6.8-3.8 1.5-6.2 1.5z" class="st1"/><path d="M18.6 466.9c0-2.4-1.5-3.9-3.7-3.9-1.9 0-3.6 1.7-3.6 3.6 0 1.9 1.3 3 3.9 3.8 5.8 1.8 7.9 4 7.9 8.6 0 4.8-3.5 8.1-8.2 8.1-4.8 0-8.1-3.4-8.2-8.4h3.9c0 2.9 1.7 4.8 4.3 4.8s4.3-1.9 4.3-4.5c0-1.9-.9-3.2-3.7-4.1-6.6-2.2-8-4.4-8-8.2 0-4.1 3.3-7.3 7.5-7.3 4.4 0 7.6 2.8 7.6 7.4h-4zm25.2 19.7v-3.1h-.1c-1.4 2.4-3.9 3.6-6.8 3.6-5.8 0-10.6-4.4-10.6-10.2 0-6.4 4.6-10.8 10.4-10.8 2.9 0 5.4 1.1 6.9 3.3h.1v-2.8h3.7v19.9h-3.6zm.1-9.9c0-3.9-2.8-7.1-6.9-7.1-3.7 0-6.8 3.2-6.8 7.1 0 3.7 3.1 7 6.8 7 3.8 0 6.9-3.2 6.9-7zm34.9 9.9v-11.2c0-3.8-1.6-5.9-4.7-5.9-3.3 0-4.8 1.8-4.8 5.8v11.2h-3.7V475c0-3.9-1.8-5.5-4.5-5.5-3.3 0-4.9 1.9-4.9 5.9v11.2h-3.7v-19.9H56v2.2h.1c1.6-1.9 3.1-2.7 5.7-2.7s5.2 1.3 6.2 3.3c1.4-2.3 3.4-3.3 6.6-3.3 5.2 0 8.1 3.2 8.1 8.4v12.1h-3.9zm8.6 6.7v-26.6h3.4v3.1h.1c1.7-2.4 4.2-3.6 7.1-3.6 5.9 0 10.3 4.6 10.3 10.8 0 5.6-4.4 10.2-10.1 10.2-3 0-5.7-1.2-7-3.4h-.1v9.5h-3.7zm17.1-16.6c0-3.6-2.9-7.1-6.9-7.1-3.7 0-6.6 3.3-6.6 7.1 0 3.9 2.9 7.1 6.8 7.1 3.8-.1 6.7-3.3 6.7-7.1zm7.6 9.9V460h3.7v26.6h-3.7zm11.3-8.3c.9 3.3 3.5 5.4 6.6 5.4 2.3 0 4.5-1.2 5.7-3.3h3.7c-1.5 4.1-5.3 6.8-9.6 6.8-5.6 0-10.2-5-10.2-10.3 0-6.3 4.8-10.7 10-10.7 5.9 0 10.3 4.5 10.3 10.3 0 .6 0 1.2-.1 1.9h-16.4zm12.8-2.9c-.3-3.4-3.3-5.8-6.5-5.8-3.1 0-6.1 2.4-6.4 5.8h12.9zm20.2 11.2v-23.1h-5.1V460h14.1v3.6h-5.1v23.1h-3.9zm10.6-22.2V460h3.7v4.4H167zm0 22.2v-19.9h3.7v19.9H167zm9.2 0v-16.5h-2.7v-3.4h2.7V460h3.7v6.7h3.3v3.4H180v16.5h-3.8zm9.5 0V460h3.7v26.6h-3.7zm11.4-8.3c.9 3.3 3.5 5.4 6.6 5.4 2.3 0 4.5-1.2 5.7-3.3h3.7c-1.5 4.1-5.3 6.8-9.6 6.8-5.6 0-10.2-5-10.2-10.3 0-6.3 4.8-10.7 10-10.7 5.9 0 10.3 4.5 10.3 10.3 0 .6 0 1.2-.1 1.9h-16.4zm12.8-2.9c-.3-3.4-3.3-5.8-6.5-5.8-3.1 0-6.1 2.4-6.4 5.8h12.9zm20.2 11.2v-23.1H225V460h14.1v3.6H234v23.1h-3.9zm12.7-8.3c.9 3.3 3.5 5.4 6.6 5.4 2.3 0 4.5-1.2 5.7-3.3h3.7c-1.5 4.1-5.3 6.8-9.6 6.8-5.6 0-10.2-5-10.2-10.3 0-6.3 4.8-10.7 10-10.7 5.9 0 10.3 4.5 10.3 10.3 0 .6 0 1.2-.1 1.9h-16.4zm12.9-2.9c-.3-3.4-3.3-5.8-6.5-5.8-3.1 0-6.1 2.4-6.4 5.8h12.9zm19.2 11.2l-4.9-7.1-4.8 7.1h-4.4l6.9-10.2-6.7-9.7h4.5l4.4 6.6 4.4-6.6h4.5l-6.5 9.7 6.9 10.2h-4.3zm7.3 0v-16.5h-2.7v-3.4h2.7V460h3.7v6.7h3.3v3.4H286v16.5h-3.8zM7.4 529.1c3 0 3.4-.6 3.4-4.2v-11.7c0-3.6-.4-4.2-3.4-4.2v-.8h9.7v.8c-3 0-3.4.6-3.4 4.2v11.2c0 3.6.4 4.2 3.4 4.2h4.3c3.3 0 3.7-.8 4.1-2.7l.2-.7h.8l-.3 4.8H7.4v-.9zm21-5.3c0-3.6 3.3-6.6 7.3-6.6s7.3 3 7.3 6.6c0 3.6-3.3 6.6-7.3 6.6-4 .1-7.3-2.9-7.3-6.6zm11.7 0c0-2.9-1.4-5.2-4.4-5.2-3 0-4.4 2.3-4.4 5.2 0 2.9 1.4 5.2 4.4 5.2 3 0 4.4-2.3 4.4-5.2zm6 5.3c2.4 0 2.8-.6 2.8-4.2v-1.8c0-3.6-.5-4.2-2.8-4.2v-.8l4.8-.9c.2.4.5 1.8.6 2.6.7-1.4 2.3-2.6 3.8-2.6 2 0 2.8 1.3 2.8 2.2 0 .8-.3 1.7-1.4 1.7-.7 0-1.3-.6-1.3-1.3 0-.8-.4-1.2-1.2-1.2-.8 0-2.8 1.3-2.8 4.2v2c0 3.6.4 4.2 2.8 4.2v.8H46v-.7zm13.9-5.3c0-3.8 3.3-6.6 6.7-6.6 3.2 0 5.8 2.6 4.9 5.7h-8.7c-.4 3.4 1 6 4.7 6 1.2 0 2.9-.7 4-1.7l.6.8c-1.3 1.3-3.5 2.4-5.5 2.4-4 .1-6.7-2.9-6.7-6.6zm9-2.2c.4-1.2-.2-2.9-2.6-2.9-1.5 0-2.9 1.2-3.4 2.9h6zm5.8 7.5c2.4 0 2.8-.6 2.8-4.2v-1.8c0-3.6-.5-4.2-2.8-4.2v-.8l4.8-.9c.2.4.5 1.8.6 2.6 1-1.2 2.6-2.6 4.7-2.6 2.2 0 3.3 1 3.9 2.7.8-1.2 2.9-2.7 5-2.7 3.2 0 4.1 2.3 4.1 5.4v2.3c0 3.6.5 4.2 2.8 4.2v.8h-7.6v-.8c2 0 2.2-.4 2.2-4.2v-2.1c0-2.3-.7-3.9-2.6-3.9-1.2 0-3.7 1.4-3.7 3.6v2.3c0 3.8.3 4.2 2.3 4.2v.8h-7.1v-.8c2 0 2.3-.4 2.3-4.2v-2.1c0-2.3-.7-3.9-2.6-3.9-1.3 0-3.7 1.4-3.7 3.6v2.3c0 3.7.3 4.2 2.2 4.2v.8h-7.6v-.6zm36.4 0c2.4 0 2.8-.6 2.8-4.2v-1.8c0-3.6-.5-4.2-2.8-4.2v-.8l5.4-.9v7.6c0 3.6.4 4.2 2.8 4.2v.8h-8.2v-.7zm2.5-17c0-.9.7-1.6 1.6-1.6.9 0 1.6.7 1.6 1.6 0 .9-.7 1.6-1.6 1.6-.8 0-1.6-.7-1.6-1.6zm7.1 26c2.4 0 2.8-.6 2.8-4.2v-10.8c0-3.6-.4-4.2-2.8-4.2v-.8l4.8-.9c.2.4.4 1.6.5 2.2 1-1.3 2.5-2.2 4.5-2.2 3.4 0 6.2 3 6.2 6.6 0 3.6-2.8 6.6-6.2 6.6-1.8 0-3.3-.8-4.4-2.2v5.6c0 3.6.5 4.2 2.8 4.2v.8h-8.2v-.7zm13.2-14.3c0-2.9-1.3-5.1-4.1-5.1-1.7 0-3 1.2-3.7 2.8v4.6c.7 1.7 2 2.9 3.7 2.9 2.8 0 4.1-2.3 4.1-5.2zm6.4 1.4h.8c0 1.6 1.4 4 3.9 4 1.2 0 2.1-.8 2.1-1.8 0-.9-.8-1.5-2-2.2l-2-1.1c-1.7-.9-2.4-2.4-2.4-3.6 0-1.9 1.8-3.3 3.6-3.3 1.9 0 2.6.8 3.1.8.1 0 .2-.3.2-.8h.8v4.2h-.8c0-1.5-1.1-3-2.9-3-1.2 0-1.8.6-1.8 1.5s.6 1.3 2.2 2.2l1.7.9c1.6.9 2.5 2.2 2.5 3.5 0 2.4-1.9 3.9-4.3 3.9-1.6 0-2.9-1.2-3.4-1.2-.3 0-.5.3-.5 1.2h-.8v-5.2zm14-.1v-2.3c0-3.6-.4-4.2-2.8-4.2v-.7h5.4v7c0 2.3.8 3.9 2.7 3.9 1.4 0 3.9-1.3 3.9-3.6v-2.4c0-3.6-.5-4.2-2.9-4.2v-.7h5.4v7.1c0 3.4.6 3.9 2.5 3.9v.7l-4.4.9c-.2-.4-.5-1.6-.6-2.2-.9.9-2.6 2.3-4.7 2.3-3.4-.1-4.5-2.5-4.5-5.5zm16.6 4c2.4 0 2.8-.6 2.8-4.2v-1.8c0-3.6-.5-4.2-2.8-4.2v-.8l4.8-.9c.2.4.5 1.8.6 2.6 1-1.2 2.6-2.6 4.7-2.6 2.2 0 3.3 1 3.9 2.7.8-1.2 2.9-2.7 5-2.7 3.2 0 4.1 2.3 4.1 5.4v2.3c0 3.6.5 4.2 2.8 4.2v.8h-7.6v-.8c2 0 2.2-.4 2.2-4.2v-2.1c0-2.3-.7-3.9-2.6-3.9-1.2 0-3.7 1.4-3.7 3.6v2.3c0 3.8.3 4.2 2.3 4.2v.8h-7.1v-.8c2 0 2.3-.4 2.3-4.2v-2.1c0-2.3-.7-3.9-2.6-3.9-1.3 0-3.7 1.4-3.7 3.6v2.3c0 3.7.3 4.2 2.2 4.2v.8H171v-.6zm36.8-5.3c0-3.6 2.8-6.6 6.3-6.6 1.8 0 3.3.8 4.4 2.1v-5.9c0-3.6-.4-4.2-2.8-4.2v-.8l5.4-.9v17.3c0 3.4.6 3.9 2.5 3.9v.7l-4.4.9c-.2-.4-.5-1.5-.6-2.1-1 1.3-2.4 2.2-4.4 2.2-3.5.1-6.4-2.9-6.4-6.6zm10.7 2.4v-4.6c-.6-1.7-2-2.8-3.6-2.8-2.8 0-4.1 2.3-4.1 5.1 0 2.9 1.3 5.2 4.1 5.2 1.6-.1 2.9-1.2 3.6-2.9zm7.8-2.4c0-3.6 3.3-6.6 7.3-6.6s7.3 3 7.3 6.6c0 3.6-3.3 6.6-7.3 6.6-4 .1-7.3-2.9-7.3-6.6zm11.6 0c0-2.9-1.4-5.2-4.4-5.2-3 0-4.4 2.3-4.4 5.2 0 2.9 1.4 5.2 4.4 5.2 3 0 4.4-2.3 4.4-5.2zm5.3 5.3c2.4 0 2.8-.6 2.8-4.2v-11.4c0-3.6-.4-4.2-2.8-4.2v-.8l5.4-.9v17.2c0 3.6.5 4.2 2.8 4.2v.8h-8.2v-.7zm10.7-5.3c0-3.6 3.3-6.6 7.3-6.6s7.3 3 7.3 6.6c0 3.6-3.3 6.6-7.3 6.6-4 .1-7.3-2.9-7.3-6.6zm11.7 0c0-2.9-1.4-5.2-4.4-5.2-3 0-4.4 2.3-4.4 5.2 0 2.9 1.4 5.2 4.4 5.2 3 0 4.4-2.3 4.4-5.2zm6 5.3c2.4 0 2.8-.6 2.8-4.2v-1.8c0-3.6-.5-4.2-2.8-4.2v-.8l4.8-.9c.2.4.5 1.8.6 2.6.7-1.4 2.3-2.6 3.8-2.6 2 0 2.8 1.3 2.8 2.2 0 .8-.3 1.7-1.4 1.7-.7 0-1.3-.6-1.3-1.3 0-.8-.4-1.2-1.2-1.2-.8 0-2.8 1.3-2.8 4.2v2c0 3.6.4 4.2 2.8 4.2v.8h-8.2v-.7zm22.9-3.9h.8c0 1.6 1.4 4 3.9 4 1.2 0 2.1-.8 2.1-1.8 0-.9-.8-1.5-2-2.2l-2-1.1c-1.7-.9-2.4-2.4-2.4-3.6 0-1.9 1.8-3.3 3.6-3.3 1.9 0 2.6.8 3.1.8.1 0 .2-.3.2-.8h.8v4.2h-.8c0-1.5-1.1-3-2.9-3-1.2 0-1.8.6-1.8 1.5s.6 1.3 2.2 2.2l1.7.9c1.6.9 2.5 2.2 2.5 3.5 0 2.4-1.9 3.9-4.3 3.9-1.6 0-2.9-1.2-3.4-1.2-.3 0-.5.3-.5 1.2h-.8v-5.2zm11.8 3.9c2.4 0 2.8-.6 2.8-4.2v-1.8c0-3.6-.5-4.2-2.8-4.2v-.8l5.4-.9v7.6c0 3.6.4 4.2 2.8 4.2v.8h-8.2v-.7zm2.6-17c0-.9.7-1.6 1.6-1.6.9 0 1.6.7 1.6 1.6 0 .9-.7 1.6-1.6 1.6-.9 0-1.6-.7-1.6-1.6zm9.3 14.2v-7.2h-1.9v-.9c2.2-.5 3-2 3.2-4.4h1.2v4h3.1v1.3h-3.1v7.2c0 1.7.5 2.6 1.6 2.6.6 0 1.5-.4 2.3-1.2l.6.6c-1 1.2-2.6 2.1-3.8 2.1-1.9-.1-3.2-1.3-3.2-4.1zm17.8 1c0-3.1 3.6-4.4 7.7-5.1 0-2.7-.4-3.8-2.4-3.8-.8 0-2.1.6-2.1 1.7 0 .7-.5 1.3-1.2 1.3s-1.3-.5-1.3-1.3c0-1.7 2.3-2.9 4.6-2.9 3.5 0 4.9 1.5 4.9 4.9v5.4c0 .9.3 1.4.8 1.4.4 0 .8-.3 1-.5l.5.7c-.7.7-1.6 1.1-2.4 1.1-1.4 0-2.3-.8-2.4-2.1-1.8 1.6-3.1 2.2-4.5 2.2-1.7 0-3.2-1.1-3.2-3zm7.7-.3v-3.7c-3.4.8-5 2-5 3.6 0 1.2.8 1.8 1.7 1.8.8 0 1.6-.3 3.3-1.7zm6.8 2.1c2.4 0 2.8-.6 2.8-4.2v-1.8c0-3.6-.5-4.2-2.8-4.2v-.8l4.8-.9c.2.4.5 1.8.6 2.6 1-1.2 2.6-2.6 4.7-2.6 2.2 0 3.3 1 3.9 2.7.8-1.2 2.9-2.7 5-2.7 3.2 0 4.1 2.3 4.1 5.4v2.3c0 3.6.5 4.2 2.8 4.2v.8h-7.6v-.8c2 0 2.2-.4 2.2-4.2v-2.1c0-2.3-.7-3.9-2.6-3.9-1.2 0-3.7 1.4-3.7 3.6v2.3c0 3.8.3 4.2 2.3 4.2v.8h-7.1v-.8c2 0 2.3-.4 2.3-4.2v-2.1c0-2.3-.7-3.9-2.6-3.9-1.3 0-3.7 1.4-3.7 3.6v2.3c0 3.7.3 4.2 2.2 4.2v.8h-7.6v-.6zm28.4-5.3c0-3.8 3.3-6.6 6.7-6.6 3.2 0 5.8 2.6 4.9 5.7h-8.7c-.4 3.4 1 6 4.7 6 1.2 0 2.9-.7 4-1.7l.6.8c-1.3 1.3-3.5 2.4-5.5 2.4-4 .1-6.7-2.9-6.7-6.6zm9.1-2.2c.4-1.2-.2-2.9-2.6-2.9-1.5 0-2.9 1.2-3.4 2.9h6zm7.3 4.7v-7.2h-1.9v-.9c2.2-.5 3-2 3.2-4.4h1.2v4h3.1v1.3h-3.1v7.2c0 1.7.5 2.6 1.6 2.6.6 0 1.5-.4 2.3-1.2l.6.6c-1 1.2-2.6 2.1-3.8 2.1-1.9-.1-3.2-1.3-3.2-4.1zm11.2 7.4c1.3-1.4 1.8-2.4 2.1-3.8h-.3c-.9 0-1.7-.8-1.7-1.8 0-.9.8-1.7 1.7-1.7.9 0 1.9.7 1.9 2.3 0 1.6-1.1 4-3.3 5.4l-.4-.4zm17.9-9.5c0-4.2 3.5-6.9 6.4-6.9 3 0 4.3 1.3 4.3 2.6 0 .6-.4 1.5-1.6 1.5-.8 0-1.4-.6-1.4-1.4 0-1.2-.6-1.5-1.3-1.5-1.9 0-3.5 2.4-3.5 5.8 0 2.9 1.4 4.8 4.4 4.8 1.2 0 2.7-.5 3.9-1.7l.6.8c-1.4 1.5-3.3 2.4-5.4 2.4-4-.1-6.4-2.8-6.4-6.4zm14.1-.4c0-3.6 3.3-6.6 7.3-6.6s7.3 3 7.3 6.6c0 3.6-3.3 6.6-7.3 6.6-4 .1-7.3-2.9-7.3-6.6zm11.7 0c0-2.9-1.4-5.2-4.4-5.2-3 0-4.4 2.3-4.4 5.2 0 2.9 1.4 5.2 4.4 5.2 3 0 4.4-2.3 4.4-5.2zm6 5.3c2.4 0 2.8-.6 2.8-4.2v-1.8c0-3.6-.5-4.2-2.8-4.2v-.8l4.8-.9c.2.4.5 1.8.6 2.6 1-1.2 2.6-2.6 5-2.6 3.2 0 4.7 2.3 4.7 5.4v2.3c0 3.6.4 4.2 2.8 4.2v.8h-8.2v-.8c2.3 0 2.8-.6 2.8-4.2v-2.1c0-2.3-.8-3.9-3-3.9-2 0-4.1 1.6-4.1 3.6v2.3c0 3.7.3 4.2 2.5 4.2v.8h-7.9v-.7zm20.3-3.9h.8c0 1.6 1.4 4 3.9 4 1.2 0 2.1-.8 2.1-1.8 0-.9-.8-1.5-2-2.2l-2-1.1c-1.7-.9-2.4-2.4-2.4-3.6 0-1.9 1.8-3.3 3.6-3.3 1.9 0 2.6.8 3.1.8.1 0 .2-.3.2-.8h.8v4.2h-.8c0-1.5-1.1-3-2.9-3-1.2 0-1.8.6-1.8 1.5s.6 1.3 2.2 2.2l1.7.9c1.6.9 2.5 2.2 2.5 3.5 0 2.4-1.9 3.9-4.3 3.9-1.6 0-2.9-1.2-3.4-1.2-.3 0-.5.3-.5 1.2h-.8v-5.2zm12.3-1.4c0-3.8 3.3-6.6 6.7-6.6 3.2 0 5.8 2.6 4.9 5.7h-8.7c-.4 3.4 1 6 4.7 6 1.2 0 2.9-.7 4-1.7l.6.8c-1.3 1.3-3.5 2.4-5.5 2.4-4 .1-6.7-2.9-6.7-6.6zm9-2.2c.4-1.2-.2-2.9-2.6-2.9-1.5 0-2.9 1.2-3.4 2.9h6zm6.1 2.6c0-4.2 3.5-6.9 6.4-6.9 3 0 4.3 1.3 4.3 2.6 0 .6-.4 1.5-1.6 1.5-.8 0-1.4-.6-1.4-1.4 0-1.2-.6-1.5-1.3-1.5-1.9 0-3.5 2.4-3.5 5.8 0 2.9 1.4 4.8 4.4 4.8 1.2 0 2.7-.5 3.9-1.7l.6.8c-1.4 1.5-3.3 2.4-5.4 2.4-4-.1-6.4-2.8-6.4-6.4zm15.3 2.1v-7.2h-1.9v-.9c2.2-.5 3-2 3.2-4.4h1.2v4h3.1v1.3h-3.1v7.2c0 1.7.5 2.6 1.6 2.6.6 0 1.5-.4 2.3-1.2l.6.6c-1 1.2-2.6 2.1-3.8 2.1-1.8-.1-3.2-1.3-3.2-4.1zm9.5-2.5c0-3.8 3.3-6.6 6.7-6.6 3.2 0 5.8 2.6 4.9 5.7h-8.7c-.4 3.4 1 6 4.7 6 1.2 0 2.9-.7 4-1.7l.6.8c-1.3 1.3-3.5 2.4-5.5 2.4-4 .1-6.7-2.9-6.7-6.6zm9.1-2.2c.4-1.2-.2-2.9-2.6-2.9-1.5 0-2.9 1.2-3.4 2.9h6zm7.3 4.7v-7.2h-1.9v-.9c2.2-.5 3-2 3.2-4.4h1.2v4h3.1v1.3h-3.1v7.2c0 1.7.5 2.6 1.6 2.6.6 0 1.5-.4 2.3-1.2l.6.6c-1 1.2-2.6 2.1-3.8 2.1-1.9-.1-3.2-1.3-3.2-4.1zm11.2-1.2v-2.3c0-3.6-.4-4.2-2.8-4.2v-.7h5.4v7c0 2.3.8 3.9 2.7 3.9 1.4 0 3.9-1.3 3.9-3.6v-2.4c0-3.6-.5-4.2-2.9-4.2v-.7h5.4v7.1c0 3.4.6 3.9 2.5 3.9v.7l-4.4.9c-.2-.4-.5-1.6-.6-2.2-.9.9-2.6 2.3-4.7 2.3-3.3-.1-4.5-2.5-4.5-5.5zm17-1.3c0-3.8 3.3-6.6 6.7-6.6 3.2 0 5.8 2.6 4.9 5.7h-8.7c-.4 3.4 1 6 4.7 6 1.2 0 2.9-.7 4-1.7l.6.8c-1.3 1.3-3.5 2.4-5.5 2.4-4 .1-6.7-2.9-6.7-6.6zm9.1-2.2c.4-1.2-.2-2.9-2.6-2.9-1.5 0-2.9 1.2-3.4 2.9h6zm5.7 7.5c2.4 0 2.8-.6 2.8-4.2v-1.8c0-3.6-.5-4.2-2.8-4.2v-.8l4.8-.9c.2.4.5 1.8.6 2.6.7-1.4 2.3-2.6 3.8-2.6 2 0 2.8 1.3 2.8 2.2 0 .8-.3 1.7-1.4 1.7-.7 0-1.3-.6-1.3-1.3 0-.8-.4-1.2-1.2-1.2-.8 0-2.8 1.3-2.8 4.2v2c0 3.6.4 4.2 2.8 4.2v.8H588v-.7zM7.7 570.5c0-3.1 3.6-4.4 7.7-5.1 0-2.7-.4-3.8-2.4-3.8-.8 0-2.1.6-2.1 1.7 0 .7-.5 1.3-1.2 1.3s-1.3-.5-1.3-1.3c0-1.7 2.3-2.9 4.6-2.9 3.5 0 4.9 1.5 4.9 4.9v5.4c0 .9.3 1.4.8 1.4.4 0 .8-.3 1-.5l.5.7c-.7.7-1.6 1.1-2.4 1.1-1.4 0-2.3-.8-2.4-2.1-1.8 1.6-3.1 2.2-4.5 2.2-1.7 0-3.2-1.1-3.2-3zm7.7-.3v-3.7c-3.4.8-5 2-5 3.6 0 1.2.8 1.8 1.7 1.8.8 0 1.6-.3 3.3-1.7zm7.2-3.2c0-3.6 2.8-6.6 6.3-6.6 1.8 0 3.3.8 4.4 2.1v-5.9c0-3.6-.4-4.2-2.8-4.2v-.8l5.4-.9V568c0 3.4.6 3.9 2.5 3.9v.7l-4.4.9c-.2-.4-.5-1.5-.6-2.1-1 1.3-2.4 2.2-4.4 2.2-3.6.1-6.4-2.9-6.4-6.6zm10.7 2.4v-4.6c-.6-1.7-2-2.8-3.6-2.8-2.8 0-4.1 2.3-4.1 5.1 0 2.9 1.3 5.2 4.1 5.2 1.5-.1 2.9-1.2 3.6-2.9zm7.4 2.9c2.4 0 2.8-.6 2.8-4.2v-1.8c0-3.6-.5-4.2-2.8-4.2v-.8l5.4-.9v7.6c0 3.6.4 4.2 2.8 4.2v.8h-8.2v-.7zm2.5-17c0-.9.7-1.6 1.6-1.6.9 0 1.6.7 1.6 1.6 0 .9-.7 1.6-1.6 1.6-.9 0-1.6-.7-1.6-1.6zm7.1 26c2.4 0 2.8-.6 2.8-4.2v-10.8c0-3.6-.4-4.2-2.8-4.2v-.8l4.8-.9c.2.4.4 1.6.5 2.2 1-1.3 2.5-2.2 4.5-2.2 3.4 0 6.2 3 6.2 6.6 0 3.6-2.8 6.6-6.2 6.6-1.8 0-3.3-.8-4.4-2.2v5.6c0 3.6.5 4.2 2.8 4.2v.8h-8.2v-.7zM63.5 567c0-2.9-1.3-5.1-4.1-5.1-1.7 0-3 1.2-3.7 2.8v4.6c.7 1.7 2 2.9 3.7 2.9 2.8 0 4.1-2.3 4.1-5.2zm6 5.3c2.4 0 2.8-.6 2.8-4.2v-1.8c0-3.6-.5-4.2-2.8-4.2v-.8l5.4-.9v7.6c0 3.6.4 4.2 2.8 4.2v.8h-8.2v-.7zm2.5-17c0-.9.7-1.6 1.6-1.6s1.6.7 1.6 1.6c0 .9-.7 1.6-1.6 1.6s-1.6-.7-1.6-1.6zm8.1 13.1h.8c0 1.6 1.4 4 3.9 4 1.2 0 2.1-.8 2.1-1.8 0-.9-.8-1.5-2-2.2l-2-1.1c-1.7-.9-2.4-2.4-2.4-3.6 0-1.9 1.8-3.3 3.6-3.3 1.9 0 2.6.8 3.1.8.1 0 .2-.3.2-.8h.8v4.2h-.8c0-1.5-1.1-3-2.9-3-1.2 0-1.8.6-1.8 1.5s.6 1.3 2.2 2.2l1.7.9c1.6.9 2.5 2.2 2.5 3.5 0 2.4-1.9 3.9-4.3 3.9-1.6 0-2.9-1.2-3.4-1.2-.3 0-.5.3-.5 1.2h-.8v-5.2zm12.3-1c0-4.2 3.5-6.9 6.4-6.9 3 0 4.3 1.3 4.3 2.6 0 .6-.4 1.5-1.6 1.5-.8 0-1.4-.6-1.4-1.4 0-1.2-.6-1.5-1.3-1.5-1.9 0-3.5 2.4-3.5 5.8 0 2.9 1.4 4.8 4.4 4.8 1.2 0 2.7-.5 3.9-1.7l.6.8c-1.4 1.5-3.3 2.4-5.4 2.4-4.1-.1-6.4-2.8-6.4-6.4zm13.7 4.9c2.4 0 2.8-.6 2.8-4.2v-1.8c0-3.6-.5-4.2-2.8-4.2v-.8l5.4-.9v7.6c0 3.6.4 4.2 2.8 4.2v.8h-8.2v-.7zm2.6-17c0-.9.7-1.6 1.6-1.6.9 0 1.6.7 1.6 1.6 0 .9-.7 1.6-1.6 1.6-.9 0-1.6-.7-1.6-1.6zm7.7 17c2.4 0 2.8-.6 2.8-4.2v-1.8c0-3.6-.5-4.2-2.8-4.2v-.8l4.8-.9c.2.4.5 1.8.6 2.6 1-1.2 2.6-2.6 5-2.6 3.2 0 4.7 2.3 4.7 5.4v2.3c0 3.6.4 4.2 2.8 4.2v.8h-8.2v-.8c2.3 0 2.8-.6 2.8-4.2V566c0-2.3-.8-3.9-3-3.9-2 0-4.1 1.6-4.1 3.6v2.3c0 3.7.3 4.2 2.5 4.2v.8h-7.9v-.7zm21.6 3.6l.6.4c-3 3.3.5 5 3.4 5 2.2 0 4.5-1.1 4.5-2.8 0-1.7-1.8-2.2-4.8-2.5-3-.3-5.1-1.2-5.1-3.3 0-1.3 1.2-2.3 3-2.9-1.8-.9-3-2.4-3-4.4 0-2.7 2.4-4.9 5.4-4.9 1.4 0 2.7.5 3.7 1.4.6-.8 1.9-1.4 2.7-1.4 2.5 0 2.6 3 1.2 3-1.6.1-.7-1.6-2.2-1.6-.3 0-.7.2-1.1.6.6.8 1 1.8 1 2.9 0 2.7-2.3 4.6-4.7 4.9-1.6.2-4 .5-4 1.5s2.1 1.3 3.3 1.4c5 .4 6.6 2.5 6.6 4.7 0 3-2.8 4.8-6.4 4.8-6.1 0-8.5-4.5-4.1-6.8zm6.5-10.6c0-2.1-.8-3.7-2.6-3.7s-2.6 1.6-2.6 3.7.9 3.7 2.6 3.7 2.6-1.6 2.6-3.7zm15.9 1.7c0-3.8 3.3-6.6 6.7-6.6 3.2 0 5.8 2.6 4.9 5.7h-8.7c-.4 3.4 1 6 4.7 6 1.2 0 2.9-.7 4-1.7l.6.8c-1.3 1.3-3.5 2.4-5.5 2.4-4 .1-6.7-2.9-6.7-6.6zm9.1-2.2c.4-1.2-.2-2.9-2.6-2.9-1.5 0-2.9 1.2-3.4 2.9h6zm5 7.5c2.4 0 2.8-.6 2.8-4.2v-11.4c0-3.6-.4-4.2-2.8-4.2v-.8l5.4-.9V568c0 3.6.5 4.2 2.8 4.2v.8h-8.2v-.7zm10.4 0c2.4 0 2.8-.6 2.8-4.2v-1.8c0-3.6-.5-4.2-2.8-4.2v-.8l5.4-.9v7.6c0 3.6.4 4.2 2.8 4.2v.8h-8.2v-.7zm2.5-17c0-.9.7-1.6 1.6-1.6.9 0 1.6.7 1.6 1.6 0 .9-.7 1.6-1.6 1.6-.9 0-1.6-.7-1.6-1.6zm9.3 14.2v-7.2h-1.9v-.9c2.2-.5 3-2 3.2-4.4h1.2v4h3.1v1.3h-3.1v7.2c0 1.7.5 2.6 1.6 2.6.6 0 1.5-.4 2.3-1.2l.6.6c-1 1.2-2.6 2.1-3.8 2.1-1.8-.1-3.2-1.3-3.2-4.1zm11.2 7.4c1.3-1.4 1.8-2.4 2.1-3.8h-.3c-.9 0-1.7-.8-1.7-1.8 0-.9.8-1.7 1.7-1.7.9 0 1.9.7 1.9 2.3 0 1.6-1.1 4-3.3 5.4l-.4-.4zm17.9-8.5h.8c0 1.6 1.4 4 3.9 4 1.2 0 2.1-.8 2.1-1.8 0-.9-.8-1.5-2-2.2l-2-1.1c-1.7-.9-2.4-2.4-2.4-3.6 0-1.9 1.8-3.3 3.6-3.3 1.9 0 2.6.8 3.1.8.1 0 .2-.3.2-.8h.8v4.2h-.9c0-1.5-1.1-3-2.9-3-1.2 0-1.8.6-1.8 1.5s.6 1.3 2.2 2.2l1.7.9c1.6.9 2.5 2.2 2.5 3.5 0 2.4-1.9 3.9-4.3 3.9-1.6 0-2.9-1.2-3.4-1.2-.3 0-.5.3-.5 1.2h-.8v-5.2zm12.3-1.4c0-3.8 3.3-6.6 6.7-6.6 3.2 0 5.8 2.6 4.9 5.7H241c-.4 3.4 1 6 4.7 6 1.2 0 2.9-.7 4-1.7l.6.8c-1.3 1.3-3.5 2.4-5.5 2.4-4 .1-6.7-2.9-6.7-6.6zm9-2.2c.4-1.2-.2-2.9-2.6-2.9-1.5 0-2.9 1.2-3.4 2.9h6zm6.1 2.2c0-3.6 2.8-6.6 6.3-6.6 1.8 0 3.3.8 4.4 2.1v-5.9c0-3.6-.4-4.2-2.8-4.2v-.8l5.4-.9V568c0 3.4.6 3.9 2.5 3.9v.7l-4.4.9c-.2-.4-.5-1.5-.6-2.1-1 1.3-2.4 2.2-4.4 2.2-3.5.1-6.4-2.9-6.4-6.6zm10.7 2.4v-4.6c-.6-1.7-2-2.8-3.6-2.8-2.8 0-4.1 2.3-4.1 5.1 0 2.9 1.3 5.2 4.1 5.2 1.6-.1 2.9-1.2 3.6-2.9zm16.2-2.4c0-3.6 2.8-6.6 6.3-6.6 1.8 0 3.3.8 4.4 2.1v-5.9c0-3.6-.4-4.2-2.8-4.2v-.8l5.4-.9V568c0 3.4.6 3.9 2.5 3.9v.7l-4.4.9c-.2-.4-.5-1.5-.6-2.1-1 1.3-2.4 2.2-4.4 2.2-3.6.1-6.4-2.9-6.4-6.6zm10.7 2.4v-4.6c-.6-1.7-2-2.8-3.6-2.8-2.8 0-4.1 2.3-4.1 5.1 0 2.9 1.3 5.2 4.1 5.2 1.5-.1 2.9-1.2 3.6-2.9zm7.4 2.9c2.4 0 2.8-.6 2.8-4.2v-1.8c0-3.6-.5-4.2-2.8-4.2v-.8l5.4-.9v7.6c0 3.6.4 4.2 2.8 4.2v.8h-8.2v-.7zm2.5-17c0-.9.7-1.6 1.6-1.6.9 0 1.6.7 1.6 1.6 0 .9-.7 1.6-1.6 1.6-.9 0-1.6-.7-1.6-1.6zm8.2 15.2c0-3.1 3.6-4.4 7.7-5.1 0-2.7-.4-3.8-2.4-3.8-.8 0-2.1.6-2.1 1.7 0 .7-.5 1.3-1.2 1.3s-1.3-.5-1.3-1.3c0-1.7 2.3-2.9 4.6-2.9 3.5 0 4.9 1.5 4.9 4.9v5.4c0 .9.3 1.4.8 1.4.4 0 .8-.3 1-.5l.5.7c-.7.7-1.6 1.1-2.4 1.1-1.4 0-2.3-.8-2.4-2.1-1.8 1.6-3.1 2.2-4.5 2.2-1.8 0-3.2-1.1-3.2-3zm7.6-.3v-3.7c-3.4.8-5 2-5 3.6 0 1.2.8 1.8 1.7 1.8.8 0 1.7-.3 3.3-1.7zm6.9 2.1c2.4 0 2.8-.6 2.8-4.2v-1.8c0-3.6-.5-4.2-2.8-4.2v-.8l4.8-.9c.2.4.5 1.8.6 2.6 1-1.2 2.6-2.6 4.7-2.6 2.2 0 3.3 1 3.9 2.7.8-1.2 2.9-2.7 5-2.7 3.2 0 4.1 2.3 4.1 5.4v2.3c0 3.6.5 4.2 2.8 4.2v.8h-7.6v-.8c2 0 2.2-.4 2.2-4.2V566c0-2.3-.7-3.9-2.6-3.9-1.2 0-3.7 1.4-3.7 3.6v2.3c0 3.8.3 4.2 2.3 4.2v.8h-7.1v-.8c2 0 2.3-.4 2.3-4.2v-2c0-2.3-.7-3.9-2.6-3.9-1.3 0-3.7 1.4-3.7 3.6v2.3c0 3.7.3 4.2 2.2 4.2v.8h-7.6v-.7zm36.4 0c2.4 0 2.8-.6 2.8-4.2v-1.8c0-3.6-.5-4.2-2.8-4.2v-.8l4.8-.9c.2.4.5 1.8.6 2.6 1-1.2 2.6-2.6 5-2.6 3.2 0 4.7 2.3 4.7 5.4v2.3c0 3.6.4 4.2 2.8 4.2v.8h-8.2v-.8c2.3 0 2.8-.6 2.8-4.2V566c0-2.3-.8-3.9-3-3.9-2 0-4.1 1.6-4.1 3.6v2.3c0 3.7.3 4.2 2.5 4.2v.8h-7.9v-.7zm20.3-5.3c0-3.6 3.3-6.6 7.3-6.6s7.3 3 7.3 6.6c0 3.6-3.3 6.6-7.3 6.6-4 .1-7.3-2.9-7.3-6.6zm11.7 0c0-2.9-1.4-5.2-4.4-5.2-3 0-4.4 2.3-4.4 5.2 0 2.9 1.4 5.2 4.4 5.2 3 0 4.4-2.3 4.4-5.2zm6 5.3c2.4 0 2.8-.6 2.8-4.2v-1.8c0-3.6-.5-4.2-2.8-4.2v-.8l4.8-.9c.2.4.5 1.8.6 2.6 1-1.2 2.6-2.6 5-2.6 3.2 0 4.7 2.3 4.7 5.4v2.3c0 3.6.4 4.2 2.8 4.2v.8h-8.2v-.8c2.3 0 2.8-.6 2.8-4.2V566c0-2.3-.8-3.9-3-3.9-2 0-4.1 1.6-4.1 3.6v2.3c0 3.7.3 4.2 2.5 4.2v.8h-7.9v-.7zm22.1-4V566c0-3.6-.4-4.2-2.8-4.2v-.7h5.4v7c0 2.3.8 3.9 2.7 3.9 1.4 0 3.9-1.3 3.9-3.6V566c0-3.6-.5-4.2-2.9-4.2v-.7h5.4v7.1c0 3.4.6 3.9 2.5 3.9v.7l-4.4.9c-.2-.4-.5-1.6-.6-2.2-.9.9-2.6 2.3-4.7 2.3-3.3-.1-4.5-2.5-4.5-5.5zm16.7 4c2.4 0 2.8-.6 2.8-4.2v-1.8c0-3.6-.5-4.2-2.8-4.2v-.8l4.8-.9c.2.4.5 1.8.6 2.6 1-1.2 2.6-2.6 4.7-2.6 2.2 0 3.3 1 3.9 2.7.8-1.2 2.9-2.7 5-2.7 3.2 0 4.1 2.3 4.1 5.4v2.3c0 3.6.5 4.2 2.8 4.2v.8h-7.6v-.8c2 0 2.2-.4 2.2-4.2V566c0-2.3-.7-3.9-2.6-3.9-1.2 0-3.7 1.4-3.7 3.6v2.3c0 3.8.3 4.2 2.3 4.2v.8H446v-.8c2 0 2.3-.4 2.3-4.2v-2c0-2.3-.7-3.9-2.6-3.9-1.3 0-3.7 1.4-3.7 3.6v2.3c0 3.7.3 4.2 2.2 4.2v.8h-7.6v-.7zm28 0c2.4 0 2.8-.6 2.8-4.2v-1.8c0-3.6-.5-4.2-2.8-4.2v-.8l4.8-.9c.2.4.5 1.8.6 2.6 1-1.2 2.6-2.6 4.7-2.6 2.2 0 3.3 1 3.9 2.7.8-1.2 2.9-2.7 5-2.7 3.2 0 4.1 2.3 4.1 5.4v2.3c0 3.6.5 4.2 2.8 4.2v.8h-7.6v-.8c2 0 2.2-.4 2.2-4.2V566c0-2.3-.7-3.9-2.6-3.9-1.2 0-3.7 1.4-3.7 3.6v2.3c0 3.8.3 4.2 2.3 4.2v.8H474v-.8c2 0 2.3-.4 2.3-4.2v-2c0-2.3-.7-3.9-2.6-3.9-1.3 0-3.7 1.4-3.7 3.6v2.3c0 3.7.3 4.2 2.2 4.2v.8h-7.6v-.7zm28.6 9.3c0-1.4 1.6-1.4 2.7-4.2l1.8-4.5-4.1-9c-.8-1.6-1.3-2.1-2.4-2.1v-.7h6.4v.7c-1.6 0-1.9.4-1.2 2.1l2.6 5.8 2.3-5.8c.6-1.7.4-2.1-1-2.1v-.7h5v.7c-1.1 0-1.9.5-2.6 2.1l-7 17.5c-.3.7-.8 1.3-1.3 1.3-.5.1-1.2-.2-1.2-1.1zm21.6-9.3c2.4 0 2.8-.6 2.8-4.2v-1.8c0-3.6-.5-4.2-2.8-4.2v-.8l4.8-.9c.2.4.5 1.8.6 2.6 1-1.2 2.6-2.6 5-2.6 3.2 0 4.7 2.3 4.7 5.4v2.3c0 3.6.4 4.2 2.8 4.2v.8h-8.2v-.8c2.3 0 2.8-.6 2.8-4.2V566c0-2.3-.8-3.9-3-3.9-2 0-4.1 1.6-4.1 3.6v2.3c0 3.7.3 4.2 2.5 4.2v.8h-7.9v-.7zm20 0c2.4 0 2.8-.6 2.8-4.2v-1.8c0-3.6-.5-4.2-2.8-4.2v-.8l5.4-.9v7.6c0 3.6.4 4.2 2.8 4.2v.8h-8.2v-.7zm2.5-17c0-.9.7-1.6 1.6-1.6.9 0 1.6.7 1.6 1.6 0 .9-.7 1.6-1.6 1.6-.9 0-1.6-.7-1.6-1.6zm9.4 1.4c0-3.6-.5-4.2-2.8-4.2v-.8l5.4-.9v11.7c1.1-1.3 2.6-2.1 4.4-2.1 3.4 0 6.2 3 6.2 6.6 0 3.6-2.8 6.6-6.2 6.6-1.9 0-3.6-.9-4.6-2.4l-1.6 2.4h-.8v-16.9zM557 567c0-2.9-1.3-5.1-4.1-5.1-1.7 0-3 1.2-3.6 2.8v4.6c.6 1.7 2 2.9 3.6 2.9 2.8 0 4.1-2.3 4.1-5.2zm5.3 5.3c2.4 0 2.8-.6 2.8-4.2v-11.4c0-3.6-.4-4.2-2.8-4.2v-.8l5.4-.9V563c1-1.2 2.6-2.6 4.7-2.6 3.3 0 4.4 2.3 4.4 5.4v2.3c0 3.6.5 4.2 2.9 4.2v.8h-8v-.8c2.3 0 2.6-.5 2.6-4.2V566c0-2.3-.8-3.9-2.7-3.9-1.8 0-3.9 1.5-3.9 3.6v2.3c0 3.7.3 4.2 2.3 4.2v.8h-7.7v-.7zM7.7 610.2c0-3.8 3.3-6.6 6.7-6.6 3.2 0 5.8 2.6 4.9 5.7h-8.7c-.4 3.4 1 6 4.7 6 1.2 0 2.9-.7 4-1.7l.6.8c-1.3 1.3-3.5 2.4-5.5 2.4-4 .1-6.7-2.9-6.7-6.6zm9.1-2.2c.4-1.2-.2-2.9-2.6-2.9-1.5 0-2.9 1.2-3.4 2.9h6zm7.9 3.5v-2.3c0-3.6-.4-4.2-2.8-4.2v-.7h5.4v7c0 2.3.8 3.9 2.7 3.9 1.4 0 3.9-1.3 3.9-3.6v-2.4c0-3.6-.5-4.2-2.9-4.2v-.7h5.4v7.1c0 3.4.6 3.9 2.5 3.9v.7l-4.4.9c-.2-.4-.5-1.6-.6-2.2-.9.9-2.6 2.3-4.7 2.3-3.3-.1-4.5-2.5-4.5-5.5zm16.7 4c2.4 0 2.8-.6 2.8-4.2v-1.8c0-3.6-.5-4.2-2.8-4.2v-.8l5.4-.9v7.6c0 3.6.4 4.2 2.8 4.2v.8h-8.2v-.7zm2.5-17c0-.9.7-1.6 1.6-1.6.9 0 1.6.7 1.6 1.6 0 .9-.7 1.6-1.6 1.6-.9 0-1.6-.7-1.6-1.6zm8.1 13.1h.8c0 1.6 1.4 4 3.9 4 1.2 0 2.1-.8 2.1-1.8 0-.9-.8-1.5-2-2.2l-2-1.1c-1.7-.9-2.4-2.4-2.4-3.6 0-1.9 1.8-3.3 3.6-3.3 1.9 0 2.6.8 3.1.8.1 0 .2-.3.2-.8h.7v4.2h-.8c0-1.5-1.1-3-2.9-3-1.2 0-1.8.6-1.8 1.5s.6 1.3 2.2 2.2l1.7.9c1.6.9 2.5 2.2 2.5 3.5 0 2.4-1.9 3.9-4.3 3.9-1.6 0-2.9-1.2-3.4-1.2-.3 0-.5.3-.5 1.2H52v-5.2zm11.9 3.9c2.4 0 2.8-.6 2.8-4.2v-1.8c0-3.6-.5-4.2-2.8-4.2v-.8l4.8-.9c.2.4.5 1.8.6 2.6 1-1.2 2.6-2.6 4.7-2.6 2.2 0 3.3 1 3.9 2.7.8-1.2 2.9-2.7 5-2.7 3.2 0 4.1 2.3 4.1 5.4v2.3c0 3.6.5 4.2 2.8 4.2v.8h-7.6v-.8c2 0 2.2-.4 2.2-4.2v-2.1c0-2.3-.7-3.9-2.6-3.9-1.2 0-3.7 1.4-3.7 3.6v2.3c0 3.8.3 4.2 2.3 4.2v.8h-7.1v-.8c2 0 2.3-.4 2.3-4.2v-2.1c0-2.3-.7-3.9-2.6-3.9-1.3 0-3.7 1.4-3.7 3.6v2.3c0 3.7.3 4.2 2.2 4.2v.8h-7.6v-.6zm28.4-5.3c0-3.6 3.3-6.6 7.3-6.6s7.3 3 7.3 6.6c0 3.6-3.3 6.6-7.3 6.6-4 .1-7.3-2.9-7.3-6.6zm11.6 0c0-2.9-1.4-5.2-4.4-5.2-3 0-4.4 2.3-4.4 5.2 0 2.9 1.4 5.2 4.4 5.2 3.1 0 4.4-2.3 4.4-5.2zm6.4 0c0-3.6 2.8-6.6 6.3-6.6 1.8 0 3.3.8 4.4 2.1v-5.9c0-3.6-.4-4.2-2.8-4.2v-.8l5.4-.9v17.3c0 3.4.6 3.9 2.5 3.9v.7l-4.4.9c-.2-.4-.5-1.5-.6-2.1-1 1.3-2.4 2.2-4.4 2.2-3.6.1-6.4-2.9-6.4-6.6zm10.6 2.4V608c-.6-1.7-2-2.8-3.6-2.8-2.8 0-4.1 2.3-4.1 5.1 0 2.9 1.3 5.2 4.1 5.2 1.6-.1 3-1.2 3.6-2.9zm17.4.1v-7.2h-1.9v-.9c2.2-.5 3-2 3.2-4.4h1.2v4h3.1v1.3h-3.1v7.2c0 1.7.5 2.6 1.6 2.6.6 0 1.5-.4 2.3-1.2l.6.6c-1 1.2-2.6 2.1-3.8 2.1-1.8-.1-3.2-1.3-3.2-4.1zm9.1 2.8c2.4 0 2.8-.6 2.8-4.2v-1.8c0-3.6-.5-4.2-2.8-4.2v-.8l5.4-.9v7.6c0 3.6.4 4.2 2.8 4.2v.8h-8.2v-.7zm2.5-17c0-.9.7-1.6 1.6-1.6.9 0 1.6.7 1.6 1.6 0 .9-.7 1.6-1.6 1.6-.9 0-1.6-.7-1.6-1.6zm7.8 17c2.4 0 2.8-.6 2.8-4.2v-1.8c0-3.6-.5-4.2-2.8-4.2v-.8l4.8-.9c.2.4.5 1.8.6 2.6 1-1.2 2.6-2.6 5-2.6 3.2 0 4.7 2.3 4.7 5.4v2.3c0 3.6.4 4.2 2.8 4.2v.8h-8.2v-.8c2.3 0 2.8-.6 2.8-4.2v-2.1c0-2.3-.8-3.9-3-3.9-2 0-4.1 1.6-4.1 3.6v2.3c0 3.7.3 4.2 2.5 4.2v.8h-7.9v-.7zm20.3-4.9c0-4.2 3.5-6.9 6.4-6.9 3 0 4.3 1.3 4.3 2.6 0 .6-.4 1.5-1.6 1.5-.8 0-1.4-.6-1.4-1.4 0-1.2-.6-1.5-1.3-1.5-1.9 0-3.5 2.4-3.5 5.8 0 2.9 1.4 4.8 4.4 4.8 1.2 0 2.7-.5 3.9-1.7l.6.8c-1.4 1.5-3.3 2.4-5.4 2.4-4-.1-6.4-2.8-6.4-6.4zm13.8 4.9c2.4 0 2.8-.6 2.8-4.2v-1.8c0-3.6-.5-4.2-2.8-4.2v-.8l5.4-.9v7.6c0 3.6.4 4.2 2.8 4.2v.8h-8.2v-.7zm2.5-17c0-.9.7-1.6 1.6-1.6.9 0 1.6.7 1.6 1.6 0 .9-.7 1.6-1.6 1.6-.8 0-1.6-.7-1.6-1.6zm8.2 11.7c0-3.6 2.8-6.6 6.3-6.6 1.8 0 3.3.8 4.4 2.1v-5.9c0-3.6-.4-4.2-2.8-4.2v-.8l5.4-.9v17.3c0 3.4.6 3.9 2.5 3.9v.7l-4.4.9c-.2-.4-.5-1.5-.6-2.1-1 1.3-2.4 2.2-4.4 2.2-3.6.1-6.4-2.9-6.4-6.6zm10.6 2.4V608c-.6-1.7-2-2.8-3.6-2.8-2.8 0-4.1 2.3-4.1 5.1 0 2.9 1.3 5.2 4.1 5.2 1.6-.1 3-1.2 3.6-2.9zm9.7-1.1v-2.3c0-3.6-.4-4.2-2.8-4.2v-.7h5.4v7c0 2.3.8 3.9 2.7 3.9 1.4 0 3.9-1.3 3.9-3.6v-2.4c0-3.6-.5-4.2-2.9-4.2v-.7h5.4v7.1c0 3.4.6 3.9 2.5 3.9v.7l-4.4.9c-.2-.4-.5-1.6-.6-2.2-.9.9-2.6 2.3-4.7 2.3-3.4-.1-4.5-2.5-4.5-5.5zm16.6 4c2.4 0 2.8-.6 2.8-4.2v-1.8c0-3.6-.5-4.2-2.8-4.2v-.8l4.8-.9c.2.4.5 1.8.6 2.6 1-1.2 2.6-2.6 5-2.6 3.2 0 4.7 2.3 4.7 5.4v2.3c0 3.6.4 4.2 2.8 4.2v.8h-8.2v-.8c2.3 0 2.8-.6 2.8-4.2v-2.1c0-2.3-.8-3.9-3-3.9-2 0-4.1 1.6-4.1 3.6v2.3c0 3.7.3 4.2 2.5 4.2v.8h-7.9v-.7zm21.5-2.8v-7.2H259v-.9c2.2-.5 3-2 3.2-4.4h1.2v4h3.1v1.3h-3.1v7.2c0 1.7.5 2.6 1.6 2.6.6 0 1.5-.4 2.3-1.2l.6.6c-1 1.2-2.6 2.1-3.8 2.1-1.9-.1-3.2-1.3-3.2-4.1zm19.6-1.2v-2.3c0-3.6-.4-4.2-2.8-4.2v-.7h5.4v7c0 2.3.8 3.9 2.7 3.9 1.4 0 3.9-1.3 3.9-3.6v-2.4c0-3.6-.5-4.2-2.9-4.2v-.7h5.4v7.1c0 3.4.6 3.9 2.5 3.9v.7l-4.4.9c-.2-.4-.5-1.6-.6-2.2-.9.9-2.6 2.3-4.7 2.3-3.3-.1-4.5-2.5-4.5-5.5zm18.2 1.2v-7.2h-1.9v-.9c2.2-.5 3-2 3.2-4.4h1.2v4h3.1v1.3h-3.1v7.2c0 1.7.5 2.6 1.6 2.6.6 0 1.5-.4 2.3-1.2l.6.6c-1 1.2-2.6 2.1-3.8 2.1-1.9-.1-3.2-1.3-3.2-4.1zm16.8 2.8c2.4 0 2.8-.6 2.8-4.2v-11.4c0-3.6-.4-4.2-2.8-4.2v-.8l5.4-.9v17.2c0 3.6.5 4.2 2.8 4.2v.8h-8.2v-.7zm10.7-1.8c0-3.1 3.6-4.4 7.7-5.1 0-2.7-.4-3.8-2.4-3.8-.8 0-2.1.6-2.1 1.7 0 .7-.5 1.3-1.2 1.3s-1.3-.5-1.3-1.3c0-1.7 2.3-2.9 4.6-2.9 3.5 0 4.9 1.5 4.9 4.9v5.4c0 .9.3 1.4.8 1.4.4 0 .8-.3 1-.5l.5.7c-.7.7-1.6 1.1-2.4 1.1-1.4 0-2.3-.8-2.4-2.1-1.8 1.6-3.1 2.2-4.5 2.2-1.7 0-3.2-1.1-3.2-3zm7.6-.3v-3.7c-3.4.8-5 2-5 3.6 0 1.2.8 1.8 1.7 1.8.8 0 1.7-.3 3.3-1.7zm7.2-3.2c0-3.6 3.3-6.6 7.3-6.6s7.3 3 7.3 6.6c0 3.6-3.3 6.6-7.3 6.6-4 .1-7.3-2.9-7.3-6.6zm11.7 0c0-2.9-1.4-5.2-4.4-5.2-3 0-4.4 2.3-4.4 5.2 0 2.9 1.4 5.2 4.4 5.2 3 0 4.4-2.3 4.4-5.2zm6 5.3c2.4 0 2.8-.6 2.8-4.2v-1.8c0-3.6-.5-4.2-2.8-4.2v-.8l4.8-.9c.2.4.5 1.8.6 2.6.7-1.4 2.3-2.6 3.8-2.6 2 0 2.8 1.3 2.8 2.2 0 .8-.3 1.7-1.4 1.7-.7 0-1.3-.6-1.3-1.3 0-.8-.4-1.2-1.2-1.2-.8 0-2.8 1.3-2.8 4.2v2c0 3.6.4 4.2 2.8 4.2v.8h-8.2v-.7zm13.9-5.3c0-3.8 3.3-6.6 6.7-6.6 3.2 0 5.8 2.6 4.9 5.7h-8.7c-.4 3.4 1 6 4.7 6 1.2 0 2.9-.7 4-1.7l.6.8c-1.3 1.3-3.5 2.4-5.5 2.4-4 .1-6.7-2.9-6.7-6.6zm9.1-2.2c.4-1.2-.2-2.9-2.6-2.9-1.5 0-2.9 1.2-3.4 2.9h6zm6.1 2.2c0-3.8 3.3-6.6 6.7-6.6 3.2 0 5.8 2.6 4.9 5.7h-8.7c-.4 3.4 1 6 4.7 6 1.2 0 2.9-.7 4-1.7l.6.8c-1.3 1.3-3.5 2.4-5.5 2.4-4 .1-6.7-2.9-6.7-6.6zm9-2.2c.4-1.2-.2-2.9-2.6-2.9-1.5 0-2.9 1.2-3.4 2.9h6zm7.3 4.7v-7.2h-1.9v-.9c2.2-.5 3-2 3.2-4.4h1.2v4h3.1v1.3h-3.1v7.2c0 1.7.5 2.6 1.6 2.6.6 0 1.5-.4 2.3-1.2l.6.6c-1 1.2-2.6 2.1-3.8 2.1-1.8-.1-3.2-1.3-3.2-4.1zm17.9-2.5c0-3.6 2.8-6.6 6.3-6.6 1.8 0 3.3.8 4.4 2.1v-5.9c0-3.6-.4-4.2-2.8-4.2v-.8l5.4-.9v17.3c0 3.4.6 3.9 2.5 3.9v.7l-4.4.9c-.2-.4-.5-1.5-.6-2.1-1 1.3-2.4 2.2-4.4 2.2-3.6.1-6.4-2.9-6.4-6.6zm10.6 2.4V608c-.6-1.7-2-2.8-3.6-2.8-2.8 0-4.1 2.3-4.1 5.1 0 2.9 1.3 5.2 4.1 5.2 1.6-.1 3-1.2 3.6-2.9zm7.8-2.4c0-3.6 3.3-6.6 7.3-6.6s7.3 3 7.3 6.6c0 3.6-3.3 6.6-7.3 6.6-4 .1-7.3-2.9-7.3-6.6zm11.7 0c0-2.9-1.4-5.2-4.4-5.2-3 0-4.4 2.3-4.4 5.2 0 2.9 1.4 5.2 4.4 5.2 3 0 4.4-2.3 4.4-5.2zm5.3 5.3c2.4 0 2.8-.6 2.8-4.2v-11.4c0-3.6-.4-4.2-2.8-4.2v-.8l5.4-.9v17.2c0 3.6.5 4.2 2.8 4.2v.8h-8.2v-.7zm10.7-5.3c0-3.6 3.3-6.6 7.3-6.6s7.3 3 7.3 6.6c0 3.6-3.3 6.6-7.3 6.6-4 .1-7.3-2.9-7.3-6.6zm11.6 0c0-2.9-1.4-5.2-4.4-5.2-3 0-4.4 2.3-4.4 5.2 0 2.9 1.4 5.2 4.4 5.2 3 0 4.4-2.3 4.4-5.2zm6 5.3c2.4 0 2.8-.6 2.8-4.2v-1.8c0-3.6-.5-4.2-2.8-4.2v-.8l4.8-.9c.2.4.5 1.8.6 2.6.7-1.4 2.3-2.6 3.8-2.6 2 0 2.8 1.3 2.8 2.2 0 .8-.3 1.7-1.4 1.7-.7 0-1.3-.6-1.3-1.3 0-.8-.4-1.2-1.2-1.2-.8 0-2.8 1.3-2.8 4.2v2c0 3.6.4 4.2 2.8 4.2v.8h-8.2v-.7zm13.9-5.3c0-3.8 3.3-6.6 6.7-6.6 3.2 0 5.8 2.6 4.9 5.7h-8.7c-.4 3.4 1 6 4.7 6 1.2 0 2.9-.7 4-1.7l.6.8c-1.3 1.3-3.5 2.4-5.5 2.4-4 .1-6.7-2.9-6.7-6.6zm9.1-2.2c.4-1.2-.2-2.9-2.6-2.9-1.5 0-2.9 1.2-3.4 2.9h6zm14.1 7.5c2.4 0 2.8-.6 2.8-4.2v-1.8c0-3.6-.5-4.2-2.8-4.2v-.8l4.8-.9c.2.4.5 1.8.6 2.6 1-1.2 2.6-2.6 4.7-2.6 2.2 0 3.3 1 3.9 2.7.8-1.2 2.9-2.7 5-2.7 3.2 0 4.1 2.3 4.1 5.4v2.3c0 3.6.5 4.2 2.8 4.2v.8h-7.6v-.8c2 0 2.2-.4 2.2-4.2v-2.1c0-2.3-.7-3.9-2.6-3.9-1.2 0-3.7 1.4-3.7 3.6v2.3c0 3.8.3 4.2 2.3 4.2v.8h-7.1v-.8c2 0 2.3-.4 2.3-4.2v-2.1c0-2.3-.7-3.9-2.6-3.9-1.3 0-3.7 1.4-3.7 3.6v2.3c0 3.7.3 4.2 2.2 4.2v.8h-7.6v-.6zm28.4-1.8c0-3.1 3.6-4.4 7.7-5.1 0-2.7-.4-3.8-2.4-3.8-.8 0-2.1.6-2.1 1.7 0 .7-.5 1.3-1.2 1.3s-1.3-.5-1.3-1.3c0-1.7 2.3-2.9 4.6-2.9 3.5 0 4.9 1.5 4.9 4.9v5.4c0 .9.3 1.4.8 1.4.4 0 .8-.3 1-.5l.5.7c-.7.7-1.6 1.1-2.4 1.1-1.4 0-2.3-.8-2.4-2.1-1.8 1.6-3.1 2.2-4.5 2.2-1.7 0-3.2-1.1-3.2-3zm7.7-.3v-3.7c-3.4.8-5 2-5 3.6 0 1.2.8 1.8 1.7 1.8.8 0 1.7-.3 3.3-1.7zm8.4 5.7l.6.4c-3 3.3.5 5 3.4 5 2.2 0 4.5-1.1 4.5-2.8 0-1.7-1.8-2.2-4.8-2.5-3-.3-5.1-1.2-5.1-3.3 0-1.3 1.2-2.3 3-2.9-1.8-.9-3-2.4-3-4.4 0-2.7 2.4-4.9 5.4-4.9 1.4 0 2.7.5 3.7 1.4.6-.8 1.9-1.4 2.7-1.4 2.5 0 2.6 3 1.2 3-1.6.1-.7-1.6-2.2-1.6-.3 0-.7.2-1.1.6.6.8 1 1.8 1 2.9 0 2.7-2.3 4.6-4.7 4.9-1.6.2-4 .5-4 1.5s2.1 1.3 3.3 1.4c5 .4 6.6 2.5 6.6 4.7 0 3-2.8 4.8-6.4 4.8-6.1-.1-8.5-4.5-4.1-6.8zm6.6-10.6c0-2.1-.8-3.7-2.6-3.7s-2.6 1.6-2.6 3.7.9 3.7 2.6 3.7 2.6-1.6 2.6-3.7zm7.1 7c2.4 0 2.8-.6 2.8-4.2v-1.8c0-3.6-.5-4.2-2.8-4.2v-.8l4.8-.9c.2.4.5 1.8.6 2.6 1-1.2 2.6-2.6 5-2.6 3.2 0 4.7 2.3 4.7 5.4v2.3c0 3.6.4 4.2 2.8 4.2v.8h-8.2v-.8c2.3 0 2.8-.6 2.8-4.2v-2.1c0-2.3-.8-3.9-3-3.9-2 0-4.1 1.6-4.1 3.6v2.3c0 3.7.3 4.2 2.5 4.2v.8H581v-.7zm20.3-1.8c0-3.1 3.6-4.4 7.7-5.1 0-2.7-.4-3.8-2.4-3.8-.8 0-2.1.6-2.1 1.7 0 .7-.5 1.3-1.2 1.3s-1.3-.5-1.3-1.3c0-1.7 2.3-2.9 4.6-2.9 3.5 0 4.9 1.5 4.9 4.9v5.4c0 .9.3 1.4.8 1.4.4 0 .8-.3 1-.5l.5.7c-.7.7-1.6 1.1-2.4 1.1-1.4 0-2.3-.8-2.4-2.1-1.8 1.6-3.1 2.2-4.5 2.2-1.7 0-3.2-1.1-3.2-3zm7.7-.3v-3.7c-3.4.8-5 2-5 3.6 0 1.2.8 1.8 1.7 1.8.8 0 1.6-.3 3.3-1.7zM7.7 656.9c0-3.1 3.6-4.4 7.7-5.1 0-2.7-.4-3.8-2.4-3.8-.8 0-2.1.6-2.1 1.7 0 .7-.5 1.3-1.2 1.3s-1.3-.5-1.3-1.3c0-1.7 2.3-2.9 4.6-2.9 3.5 0 4.9 1.5 4.9 4.9v5.4c0 .9.3 1.4.8 1.4.4 0 .8-.3 1-.5l.5.7c-.7.7-1.6 1.1-2.4 1.1-1.4 0-2.3-.8-2.4-2.1-1.8 1.6-3.1 2.2-4.5 2.2-1.7 0-3.2-1.1-3.2-3zm7.7-.3v-3.7c-3.4.8-5 2-5 3.6 0 1.2.8 1.8 1.7 1.8.8 0 1.6-.3 3.3-1.7zm6.2 2.1c2.4 0 2.8-.6 2.8-4.2v-11.4c0-3.6-.4-4.2-2.8-4.2v-.8l5.4-.9v17.2c0 3.6.5 4.2 2.8 4.2v.8h-8.2v-.7zm10.3 0c2.4 0 2.8-.6 2.8-4.2v-1.8c0-3.6-.5-4.2-2.8-4.2v-.8l5.4-.9v7.6c0 3.6.4 4.2 2.8 4.2v.8h-8.2v-.7zm2.5-17c0-.9.7-1.6 1.6-1.6s1.6.7 1.6 1.6c0 .9-.7 1.6-1.6 1.6s-1.6-.7-1.6-1.6zm16 26c2.4 0 2.8-.6 2.8-4.2v-5.6c-1.1 1.3-2.6 2.2-4.4 2.2-3.4 0-6.3-3-6.3-6.6 0-3.6 2.8-6.6 6.3-6.6 1.9 0 3.6.9 4.6 2.4l1.6-2.4h.8v16.7c0 3.6.5 4.2 2.8 4.2v.8h-8.2v-.9zm2.8-12v-4.6c-.6-1.7-2-2.8-3.6-2.8-2.8 0-4.1 2.3-4.1 5.1 0 2.9 1.3 5.2 4.1 5.2 1.6 0 2.9-1.1 3.6-2.9zm9-1v-2.3c0-3.6-.4-4.2-2.8-4.2v-.7h5.4v7c0 2.3.8 3.9 2.7 3.9 1.4 0 3.9-1.3 3.9-3.6v-2.4c0-3.6-.5-4.2-2.9-4.2v-.7h5.4v7.1c0 3.4.6 3.9 2.5 3.9v.7l-4.4.9c-.2-.4-.5-1.6-.6-2.2-.9.9-2.6 2.3-4.7 2.3-3.3-.1-4.5-2.5-4.5-5.5zm17 2.2c0-3.1 3.6-4.4 7.7-5.1 0-2.7-.4-3.8-2.4-3.8-.8 0-2.1.6-2.1 1.7 0 .7-.5 1.3-1.2 1.3s-1.3-.5-1.3-1.3c0-1.7 2.3-2.9 4.6-2.9 3.5 0 4.9 1.5 4.9 4.9v5.4c0 .9.3 1.4.8 1.4.4 0 .8-.3 1-.5l.5.7c-.7.7-1.6 1.1-2.4 1.1-1.4 0-2.3-.8-2.4-2.1-1.8 1.6-3.1 2.2-4.5 2.2-1.7 0-3.2-1.1-3.2-3zm7.7-.3v-3.7c-3.4.8-5 2-5 3.6 0 1.2.8 1.8 1.7 1.8.8 0 1.6-.3 3.3-1.7zm6.8 2.1c2.4 0 2.8-.6 2.8-4.2v-1.8c0-3.6-.5-4.2-2.8-4.2v-.8l4.8-.9c.2.4.5 1.8.6 2.6 1-1.2 2.6-2.6 4.7-2.6 2.2 0 3.3 1 3.9 2.7.8-1.2 2.9-2.7 5-2.7 3.2 0 4.1 2.3 4.1 5.4v2.3c0 3.6.5 4.2 2.8 4.2v.8H112v-.8c2 0 2.2-.4 2.2-4.2v-2.1c0-2.3-.7-3.9-2.6-3.9-1.2 0-3.7 1.4-3.7 3.6v2.3c0 3.8.3 4.2 2.3 4.2v.8h-7.1v-.8c2 0 2.3-.4 2.3-4.2v-2.1c0-2.3-.7-3.9-2.6-3.9-1.3 0-3.7 1.4-3.7 3.6v2.3c0 3.7.3 4.2 2.2 4.2v.8h-7.6v-.6zm36.8-5.3c0-3.8 3.3-6.6 6.7-6.6 3.2 0 5.8 2.6 4.9 5.7h-8.7c-.4 3.4 1 6 4.7 6 1.2 0 2.9-.7 4-1.7l.6.8c-1.3 1.3-3.5 2.4-5.5 2.4-4 .1-6.7-2.9-6.7-6.6zm9.1-2.2c.4-1.2-.2-2.9-2.6-2.9-1.5 0-2.9 1.2-3.4 2.9h6zm5.8 7.5c2.4 0 2.8-.6 2.8-4.2v-1.8c0-3.6-.5-4.2-2.8-4.2v-.8l4.8-.9c.2.4.5 1.8.6 2.6.7-1.4 2.3-2.6 3.8-2.6 2 0 2.8 1.3 2.8 2.2 0 .8-.3 1.7-1.4 1.7-.7 0-1.3-.6-1.3-1.3 0-.8-.4-1.2-1.2-1.2-.8 0-2.8 1.3-2.8 4.2v2c0 3.6.4 4.2 2.8 4.2v.8h-8.2v-.7zm14.3-1.8c0-3.1 3.6-4.4 7.7-5.1 0-2.7-.4-3.8-2.4-3.8-.8 0-2.1.6-2.1 1.7 0 .7-.5 1.3-1.2 1.3s-1.3-.5-1.3-1.3c0-1.7 2.3-2.9 4.6-2.9 3.5 0 4.9 1.5 4.9 4.9v5.4c0 .9.3 1.4.8 1.4.4 0 .8-.3 1-.5l.5.7c-.7.7-1.6 1.1-2.4 1.1-1.4 0-2.3-.8-2.4-2.1-1.8 1.6-3.1 2.2-4.5 2.2-1.7 0-3.2-1.1-3.2-3zm7.6-.3v-3.7c-3.4.8-5 2-5 3.6 0 1.2.8 1.8 1.7 1.8.8 0 1.7-.3 3.3-1.7zm8.4-.7v-7.2h-1.9v-.9c2.2-.5 3-2 3.2-4.4h1.2v4h3.1v1.3h-3.1v7.2c0 1.7.5 2.6 1.6 2.6.6 0 1.5-.4 2.3-1.2l.6.6c-1 1.2-2.6 2.1-3.8 2.1-1.8-.1-3.2-1.3-3.2-4.1zm18.4-5.6c-.7-1.5-1.3-2.1-2.4-2.1v-.7h6.4v.7c-1.6 0-1.9.4-1.1 2.1l2.6 5.9 2.7-5.9c.7-1.5.5-2.1-1-2.1v-.7h5v.7c-1.3 0-1.8.5-2.6 2.1l-4.4 9.8h-.7l-4.5-9.8zm13.6 3.1c0-3.6 3.3-6.6 7.3-6.6s7.3 3 7.3 6.6c0 3.6-3.3 6.6-7.3 6.6-4.1.1-7.3-2.9-7.3-6.6zm11.6 0c0-2.9-1.4-5.2-4.4-5.2-3 0-4.4 2.3-4.4 5.2 0 2.9 1.4 5.2 4.4 5.2 3 0 4.4-2.3 4.4-5.2zm5.3 5.3c2.4 0 2.8-.6 2.8-4.2v-11.4c0-3.6-.4-4.2-2.8-4.2v-.8l5.4-.9v17.2c0 3.6.5 4.2 2.8 4.2v.8h-8.2v-.7zm12.5-4v-2.3c0-3.6-.4-4.2-2.8-4.2v-.7h5.4v7c0 2.3.8 3.9 2.7 3.9 1.4 0 3.9-1.3 3.9-3.6v-2.4c0-3.6-.5-4.2-2.9-4.2v-.7h5.4v7.1c0 3.4.6 3.9 2.5 3.9v.7l-4.4.9c-.2-.4-.5-1.6-.6-2.2-.9.9-2.6 2.3-4.7 2.3-3.3-.1-4.5-2.5-4.5-5.5zm18.2 1.2v-7.2h-1.9v-.9c2.2-.5 3-2 3.2-4.4h1.2v4h3.1v1.3h-3.1v7.2c0 1.7.5 2.6 1.6 2.6.6 0 1.5-.4 2.3-1.2l.6.6c-1 1.2-2.6 2.1-3.8 2.1-1.9-.1-3.2-1.3-3.2-4.1zm8.4 11.8c2.4 0 2.8-.6 2.8-4.2v-10.8c0-3.6-.4-4.2-2.8-4.2v-.8l4.8-.9c.2.4.4 1.6.5 2.2 1-1.3 2.5-2.2 4.5-2.2 3.4 0 6.2 3 6.2 6.6 0 3.6-2.8 6.6-6.2 6.6-1.8 0-3.3-.8-4.4-2.2v5.6c0 3.6.5 4.2 2.8 4.2v.8h-8.2v-.7zm13.1-14.3c0-2.9-1.3-5.1-4.1-5.1-1.7 0-3 1.2-3.7 2.8v4.6c.7 1.7 2 2.9 3.7 2.9 2.8 0 4.1-2.3 4.1-5.2zm6.4 3.5c0-3.1 3.6-4.4 7.7-5.1 0-2.7-.4-3.8-2.4-3.8-.8 0-2.1.6-2.1 1.7 0 .7-.5 1.3-1.2 1.3s-1.3-.5-1.3-1.3c0-1.7 2.3-2.9 4.6-2.9 3.5 0 4.9 1.5 4.9 4.9v5.4c0 .9.3 1.4.8 1.4.4 0 .8-.3 1-.5l.5.7c-.7.7-1.6 1.1-2.4 1.1-1.4 0-2.3-.8-2.4-2.1-1.8 1.6-3.1 2.2-4.5 2.2-1.7 0-3.2-1.1-3.2-3zm7.7-.3v-3.7c-3.4.8-5 2-5 3.6 0 1.2.8 1.8 1.7 1.8.7 0 1.6-.3 3.3-1.7zm8.3-.7v-7.2h-1.9v-.9c2.2-.5 3-2 3.2-4.4h1.2v4h3.1v1.3h-3.1v7.2c0 1.7.5 2.6 1.6 2.6.6 0 1.5-.4 2.3-1.2l.6.6c-1 1.2-2.6 2.1-3.8 2.1-1.8-.1-3.2-1.3-3.2-4.1zm11.4 1.9c0-1.1.9-1.9 1.9-1.9s1.9.9 1.9 1.9c0 1.1-.9 1.9-1.9 1.9s-1.9-.8-1.9-1.9z" class="st0"/><path d="M860 505v-20.2h-19.1V505H834v-46.4h6.8v20H860v-20h6.8V505H860zm44.1 0v-5.4h-.1c-2.4 4.1-6.8 6.3-11.8 6.3-10.2 0-18.5-7.7-18.5-17.7 0-11.1 8-18.9 18.2-18.9 5.1 0 9.4 1.9 12 5.8h.1v-4.9h6.5V505h-6.4zm.2-17.4c0-6.8-4.9-12.4-12.1-12.4-6.5 0-11.9 5.6-11.9 12.4 0 6.5 5.3 12.2 11.9 12.2 6.7.1 12.1-5.6 12.1-12.2zm39.1 17.4v-19c0-7.3-2.9-10.8-8.7-10.8-5.7 0-9.2 4.2-9.2 10.7v19H919v-34.8h6.1v3.7h.1c2.6-3.3 6.2-4.6 10.2-4.6 8.3 0 14.5 5.3 14.5 14.9V505h-6.5zm43.5 0v-5h-.1c-2.7 3.8-7.2 5.8-12.3 5.8-10.1 0-18.1-7.7-18.1-17.9 0-10.6 7.5-18.7 17.9-18.7 4.7 0 9.2 1.7 12 5.2h.1v-15.9h6.5V505h-6zm-12.1-29.8c-6.7 0-11.9 5.6-11.9 12.4 0 6.5 5.3 12.2 11.9 12.2 6.6 0 12.1-5.4 12.1-12 0-7-4.8-12.6-12.1-12.6zm55.3 25.2c-2.7 3.6-7 5.5-12 5.5-10 0-18.6-8.6-18.6-18 0-10.5 8.2-18.6 18.6-18.6 4.5 0 9.3 1.9 12 5v-4h6.5v30.2c0 11.3-7 18.3-18.8 18.3-8 0-14.2-4.2-17.2-11h7.3c2.4 3.5 5.7 5 10 5 8 0 12.2-4.3 12.2-12.3zm.1-12.8c0-8.2-6.2-12.4-12.2-12.4-6.5 0-11.9 5.6-11.9 12.4 0 6.7 5.5 12.3 12 12.3 7.5 0 12.1-6.7 12.1-12.3zm14.9 17.4v-46.4h6.5V505h-6.5zm31.6.8c-9.8 0-18.5-8.3-18.5-18.1 0-10.6 8.3-18.5 19-18.5 9.6 0 18.6 7.5 18.5 18.6-.1 9.3-7.9 18-19 18zm.2-30.6c-6.5 0-12.2 5.5-12.2 12.3 0 6.6 5.5 12.4 12 12.4 6.8 0 12.4-5.4 12.4-12.4.1-6.8-5.4-12.3-12.2-12.3zm34.6 29.8l-13.8-34.8h7l9.1 24.9h.1l8.9-24.9h7l-13.7 34.8h-4.6zm26.8-14.6c1.5 5.8 6.1 9.5 11.4 9.5 4.1 0 7.9-2.1 9.9-5.8h6.5c-2.7 7.2-9.2 11.8-16.7 11.8-9.8 0-17.7-8.7-17.7-17.9 0-11 8.3-18.6 17.5-18.6 10.2 0 18 7.9 18 17.9 0 1.1 0 2.1-.2 3.3h-28.7zm22.5-5c-.5-5.9-5.7-10.2-11.3-10.2-5.3 0-10.7 4.2-11.2 10.2h22.5zm26.7-6c-.3-2.5-1.8-4.2-4.5-4.2-2.5 0-4.1 1.7-4.1 3.7 0 2.9 3 3.8 6.5 4.9 4.9 1.5 9.4 4.5 9.4 10.9 0 6.7-4.9 11.1-11.7 11.1-6.3 0-12.3-4.3-12.3-12.3h6.5c.3 4.2 2.4 6.3 5.9 6.3 3 0 5-1.9 5-4.8 0-2.4-1.8-4-5.9-5.3-8.5-2.7-10-6.4-10-10.4 0-6.2 5.2-10.2 10.9-10.2 5.8 0 10.5 4 10.7 10.2h-6.4zM1007.1 902v-5.4h-.1c-2.4 4.1-6.8 6.3-11.8 6.3-10.2 0-18.5-7.7-18.5-17.7 0-11.1 8-18.9 18.2-18.9 5.1 0 9.4 1.9 12 5.8h.1v-4.9h6.5V902h-6.4zm.1-17.4c0-6.8-4.9-12.4-12.1-12.4-6.5 0-11.9 5.6-11.9 12.4 0 6.5 5.3 12.2 11.9 12.2 6.8.1 12.1-5.6 12.1-12.2zm43.6 12.8c-2.7 3.6-7 5.5-12 5.5-10 0-18.6-8.6-18.6-18 0-10.5 8.2-18.6 18.6-18.6 4.5 0 9.3 1.9 12 5v-4h6.5v30.2c0 11.3-7 18.3-18.8 18.3-8 0-14.2-4.2-17.2-11h7.3c2.4 3.5 5.7 5 10 5 8 0 12.2-4.3 12.2-12.3zm.1-12.8c0-8.2-6.2-12.4-12.2-12.4-6.5 0-11.9 5.6-11.9 12.4 0 6.7 5.5 12.3 12 12.3 7.5 0 12.1-6.7 12.1-12.3zm42.6 17.4v-5h-.1c-2.7 3.8-7.2 5.8-12.3 5.8-10.1 0-18.1-7.7-18.1-17.9 0-10.6 7.5-18.7 17.9-18.7 4.7 0 9.2 1.7 12 5.2h.1v-15.9h6.5V902h-6zm-12.1-29.8c-6.7 0-11.9 5.6-11.9 12.4 0 6.5 5.3 12.2 11.9 12.2 6.6 0 12.1-5.4 12.1-12 0-7-4.8-12.6-12.1-12.6z"/><path d="M832.6 701c7.1 0 8.2-1.5 8.2-10v-27.9c0-8.6-1-10-8.2-10v-1.8h23.2v1.8c-7.1 0-8.2 1.4-8.2 10v10.8h29.1v-10.8c0-8.6-1.1-10-8.2-10v-1.8h23.3v1.8c-7.2 0-8.2 1.4-8.2 10V691c0 8.6 1 10 8.2 10v1.8h-23.3V701c7.1 0 8.2-1.5 8.2-10v-13.9h-29.1V691c0 8.6 1 10 8.2 10v1.8h-23.2V701zm64.8-4.3c0-7.3 8.5-10.5 18.3-12.2 0-6.4-.9-9-5.7-9-2 0-4.9 1.4-4.9 4.1 0 1.7-1.3 3-2.9 3-1.7 0-3-1.3-3-3 0-4.1 5.4-6.9 10.9-6.9 8.3 0 11.8 3.5 11.8 11.7v13c0 2.1.7 3.3 2 3.3.9 0 1.8-.7 2.4-1.3l1.2 1.6c-1.6 1.7-3.8 2.7-5.7 2.7-3.3 0-5.4-1.9-5.8-5-4.2 3.8-7.3 5.1-10.7 5.1-4.4.1-7.9-2.5-7.9-7.1zm18.3-.7v-8.8c-8.2 1.9-11.8 4.7-11.8 8.5 0 2.7 1.9 4.4 4 4.4 1.7 0 3.8-.6 7.8-4.1zm14.5 5c5.7 0 6.8-1.5 6.8-10v-4.3c0-8.6-1.1-10-6.8-10v-1.8l11.4-2.1c.4.9 1.2 4.4 1.5 6.2 2.3-2.9 6.3-6.2 11.9-6.2 7.7 0 11.2 5.5 11.2 12.8v5.4c0 8.6 1 10 6.8 10v1.8h-19.6V701c5.6 0 6.8-1.5 6.8-10v-5c0-5.6-2-9.2-7.1-9.2-4.7 0-9.9 3.9-9.9 8.6v5.6c0 8.8.7 10 6 10v1.8h-18.9V701zm46.8-12.5c0-8.7 6.8-15.7 14.9-15.7 4.3 0 7.9 1.9 10.5 5.1v-14c0-8.6-1-10-6.8-10V652l12.9-2.1v41.2c0 8.2 1.4 9.2 5.9 9.2v1.6l-10.6 2.1c-.4-.9-1.1-3.6-1.4-5-2.4 3-5.8 5.2-10.6 5.2-8 .1-14.8-7-14.8-15.7zm25.4 5.6V683c-1.5-4-4.8-6.8-8.7-6.8-6.7 0-9.8 5.4-9.8 12.3s3.1 12.4 9.8 12.4c3.9 0 7.2-2.8 8.7-6.8zm19.8 15.5l1.5.9c-7.1 8 1.3 11.8 8.1 11.8 5.3 0 10.6-2.6 10.6-6.6 0-4-4.3-5.3-11.5-6-7-.7-12.2-2.8-12.2-8 0-3.1 2.7-5.5 7.2-6.9-4.3-2.1-7.2-5.8-7.2-10.5 0-6.4 5.7-11.7 12.8-11.7 3.4 0 6.5 1.2 8.8 3.3 1.5-1.9 4.6-3.3 6.4-3.3 5.9 0 6.3 7 2.8 7.2-3.8.3-1.6-3.9-5.1-3.9-.7 0-1.7.4-2.7 1.4 1.5 1.9 2.5 4.4 2.5 7 0 6.3-5.6 10.9-11.2 11.7-3.8.4-9.6 1.3-9.6 3.6s5 3 7.8 3.3c11.8.9 15.6 6 15.6 11.2 0 7.1-6.8 11.5-15.2 11.5-14.3.1-19.9-10.5-9.4-16zm15.6-25.1c0-5.1-2-8.9-6.2-8.9s-6.3 3.9-6.3 8.9 2.1 8.8 6.3 8.8 6.2-3.9 6.2-8.8z" class="st0"/><path d="M1051.4 701c5.7 0 6.8-1.5 6.8-10v-27.1c0-8.6-1-10-6.8-10V652l12.9-2.1V691c0 8.6 1.1 10 6.8 10v1.8h-19.6V701zm23.8-12.5c0-8.7 7.8-15.7 17.3-15.7s17.3 7 17.3 15.7-7.8 15.8-17.3 15.8-17.3-7.1-17.3-15.8zm27.7 0c0-6.9-3.3-12.4-10.4-12.4-7 0-10.4 5.6-10.4 12.4 0 6.9 3.3 12.4 10.4 12.4 7.1 0 10.4-5.5 10.4-12.4zm14.8-7.5c-1.6-3.7-3-5.1-5.8-5.1v-1.7h15.2v1.7c-3.9 0-4.5.9-2.7 5.1l6.2 14.2 6.3-14.2c1.6-3.7 1.3-5.1-2.5-5.1v-1.7h12v1.7c-3 0-4.4 1.3-6.1 5.1l-10.5 23.3h-1.7l-10.4-23.3zm30.6 7.5c0-9.1 7.9-15.7 15.9-15.7 7.6 0 13.7 6.2 11.7 13.6h-20.7c-1 8.1 2.3 14.3 11.2 14.3 2.8 0 6.9-1.6 9.4-3.9l1.5 1.9c-3 3.2-8.2 5.7-13.1 5.7-9.5-.1-15.9-7.2-15.9-15.9zm21.6-5.3c.9-2.7-.5-6.9-6.2-6.9-3.7 0-6.9 2.7-8.1 6.9h14.3zm12.9 8.6h1.8c0 3.9 3.3 9.6 9.4 9.6 2.8 0 4.9-2 4.9-4.4 0-2.1-1.9-3.7-4.8-5.2l-4.8-2.6c-4.1-2.2-5.7-5.8-5.7-8.6 0-4.6 4.3-7.8 8.7-7.8 4.5 0 6.2 2 7.3 2 .3 0 .5-.6.5-2h1.8v10h-1.8c0-3.6-2.6-7.2-7-7.2-2.9 0-4.4 1.5-4.4 3.7 0 2.1 1.4 3.2 5.2 5.2l4.1 2.2c3.8 2.1 5.9 5.1 5.9 8.2 0 5.7-4.6 9.4-10.2 9.4-3.9 0-6.9-2.7-8.1-2.7-.8 0-1.1.7-1.1 2.7h-1.8v-12.5zM833.5 895.7c0-7.3 8.5-10.5 18.3-12.2 0-6.4-.9-9-5.7-9-2 0-4.9 1.4-4.9 4.1 0 1.7-1.3 3-2.9 3-1.7 0-3-1.3-3-3 0-4.1 5.4-6.9 10.9-6.9 8.3 0 11.8 3.5 11.8 11.7v13c0 2.1.7 3.3 2 3.3.9 0 1.8-.7 2.4-1.3l1.2 1.6c-1.6 1.7-3.8 2.7-5.7 2.7-3.3 0-5.4-1.9-5.8-5-4.2 3.8-7.3 5.1-10.7 5.1-4.4.1-7.9-2.5-7.9-7.1zm18.2-.7v-8.8c-8.2 1.9-11.8 4.7-11.8 8.5 0 2.7 1.9 4.4 4 4.4 1.8 0 3.9-.6 7.8-4.1zm18.4 13.6l1.5.9c-7.1 8 1.3 11.8 8.1 11.8 5.3 0 10.6-2.6 10.6-6.6 0-4-4.3-5.3-11.5-6-7-.7-12.2-2.8-12.2-8 0-3.1 2.7-5.5 7.2-6.9-4.3-2.1-7.2-5.8-7.2-10.5 0-6.4 5.7-11.7 12.8-11.7 3.4 0 6.5 1.2 8.8 3.3 1.5-1.9 4.6-3.3 6.4-3.3 5.9 0 6.3 7 2.8 7.2-3.8.3-1.6-3.9-5.1-3.9-.7 0-1.7.4-2.7 1.4 1.5 1.9 2.5 4.4 2.5 7 0 6.3-5.6 10.9-11.2 11.7-3.8.4-9.6 1.3-9.6 3.6s5 3 7.8 3.3c11.8.9 15.6 6 15.6 11.2 0 7.1-6.8 11.5-15.2 11.5-14.3.1-20-10.5-9.4-16zm15.5-25.1c0-5.1-2-8.9-6.2-8.9s-6.3 3.9-6.3 8.9 2.1 8.8 6.3 8.8 6.2-3.9 6.2-8.8zm16.2 4c0-8.7 6.8-15.7 14.9-15.7 4.3 0 7.9 1.9 10.5 5.1v-14c0-8.6-1-10-6.8-10V851l12.9-2.1v41.2c0 8.2 1.4 9.2 5.9 9.2v1.6l-10.6 2.1c-.4-.9-1.1-3.6-1.4-5-2.4 3-5.8 5.2-10.6 5.2-8.1.1-14.8-7-14.8-15.7zm25.4 5.6V882c-1.5-4-4.8-6.8-8.7-6.8-6.7 0-9.8 5.4-9.8 12.3s3.1 12.4 9.8 12.4c3.8 0 7.1-2.8 8.7-6.8z" class="st0"/></svg>