<svg xmlns="http://www.w3.org/2000/svg" id="Layer_1" width="1440" height="842.8" viewBox="0 0 1440 842.8"><style>.st0{fill:#b3b3b3}</style><path d="M372.4 828l-110-95.2c23.8-22.3 34.2-52 34.2-104.8 0 0 3.7-191.1.7-243.1-34.2-17.1-81-37.2-116-37.2l-.7 338.3c13.4 10.4 28.3 23.8 52 35.7v.7L126.4 827.3c-45.4-35.7-64-49.8-111.5-78.8 21.6-17.8 31.2-51.3 31.2-99.6l-3-393.3c0-61-14.9-104.1-34.2-125.6C68.4 101 150.2 49 191 14.8l3.7 3.7c-5.9 32-13.4 66.2-13.4 139.8V333l94.4-91.4c52 28.3 112.3 58.7 179.9 85.5-14.1 26-20.8 52.8-20.8 108.5 0 0-3 222.3-.7 249.8 17.8 11.9 37.2 26 66.9 45.3v.7c-34.1 26-77.3 57.2-128.6 96.6zm597-603.6c0-66.9-13.4-78.8-52.8-91.4l-18.6-5.9c-5.9-1.5-8.2-3.7-8.2-5.9v-9.7c0-4.5 3.7-5.2 13.4-10.4L1017 40c8.9-4.5 16.4-8.9 25.3-8.9 5.9 0 10.4 8.9 8.9 27.5s-3.7 240.9-3.7 295.1v70.6h5.2c38.7-46.1 101.8-71.4 149.4-71.4 46.1 0 77.3 14.1 108.5 43.9 49.1 46.1 47.6 101.8 47.6 160.6v62.4c0 61.7 1.5 129.4 1.5 149.4 0 13.4 17.8 16.4 40.1 16.4h18.6c8.9 0 12.6 1.5 12.6 9.7v16.4c0 8.9-1.5 13.4-8.9 13.4-8.2 0-43.1-3.7-104.8-3.7-53.5 0-92.9 3.7-102.6 3.7-8.2 0-9.7-3.7-9.7-12.6v-18.6c0-5.2.7-8.9 8.2-8.9h25.3c18.6 0 40.1-1.5 41.6-20.8.7-14.9 0-72.9 0-107.8v-90c0-61.7-4.5-104.8-36.4-134.6-22.3-20.8-44.6-30.5-72.1-30.5-32 0-71.4 10.4-101.8 46.1-9.7 11.9-22.3 34.2-22.3 53.5v238.6c0 34.9 3.7 44.6 23.8 44.6h32.7c8.2 0 12.6 1.5 12.6 8.9v17.8c0 8.2-1.5 12.6-8.9 12.6-8.9 0-53.5-3.7-104.1-3.7-54.3 0-95.9 3.7-106.3 3.7-4.5 0-8.2-3.7-8.2-10.4v-19.3c0-8.2 4.5-8.9 16.4-8.9h23c17.8 0 34.2-4.5 36.4-17.8 3.7-20.8 3.7-140.5 3.7-211.9l.8-330.7z" class="st0"/></svg>