<svg xmlns="http://www.w3.org/2000/svg" id="Layer_1" viewBox="0 0 199.4 116.7" width="199.4" height="116.7"><style>.st0{fill:#b3b3b3}</style><path d="M50.9 112.1L36.1 99.3c3.2-3 4.6-7 4.6-14.1 0 0 .5-25.7.1-32.7-4.6-2.3-10.9-5-15.6-5L25.1 93c1.8 1.4 3.8 3.2 7 4.8v.1L17.8 112c-6.1-4.8-8.6-6.7-15-10.6C5.7 99 7 94.5 7 88l-.4-52.9c0-8.2-2-14-4.6-16.9 8-3.9 19-10.9 24.5-15.5l.5.5c-.8 4.3-1.8 8.9-1.8 18.8v23.5l12.7-12.3c7 3.8 15.1 7.9 24.2 11.5-1.9 3.5-2.8 7.1-2.8 14.6 0 0-.4 29.9-.1 33.6 2.4 1.6 5 3.5 9 6.1v.1c-4.6 3.5-10.4 7.7-17.3 13zm80.3-81.2c0-9-1.8-10.6-7.1-12.3l-2.5-.8c-.8-.2-1.1-.5-1.1-.8v-1.3c0-.6.5-.7 1.8-1.4l15.3-8.2c1.2-.6 2.2-1.2 3.4-1.2.8 0 1.4 1.2 1.2 3.7s-.5 32.4-.5 39.7v9.5h.7c5.2-6.2 13.7-9.6 20.1-9.6 6.2 0 10.4 1.9 14.6 5.9 6.6 6.2 6.4 13.7 6.4 21.6v8.4c0 8.3.2 17.4.2 20.1 0 1.8 2.4 2.2 5.4 2.2h2.5c1.2 0 1.7.2 1.7 1.3v2.2c0 1.2-.2 1.8-1.2 1.8-1.1 0-5.8-.5-14.1-.5-7.2 0-12.5.5-13.8.5-1.1 0-1.3-.5-1.3-1.7v-2.5c0-.7.1-1.2 1.1-1.2h3.4c2.5 0 5.4-.2 5.6-2.8.1-2 0-9.8 0-14.5V76.9c0-8.3-.6-14.1-4.9-18.1-3-2.8-6-4.1-9.7-4.1-4.3 0-9.6 1.4-13.7 6.2-1.3 1.6-3 4.6-3 7.2v32.1c0 4.7.5 6 3.2 6h4.4c1.1 0 1.7.2 1.7 1.2v2.4c0 1.1-.2 1.7-1.2 1.7-1.2 0-7.2-.5-14-.5-7.3 0-12.9.5-14.3.5-.6 0-1.1-.5-1.1-1.4v-2.6c0-1.1.6-1.2 2.2-1.2h3.1c2.4 0 4.6-.6 4.9-2.4.5-2.8.5-18.9.5-28.5l.1-44.5z" class="st0"/></svg>