<svg xmlns="http://www.w3.org/2000/svg" viewBox="0 0 1318.78 785.19" width="1318.78" height="785.19"><defs><style>.a20acbf0-42c5-4667-9ac2-8fb69e9cb227{fill:#505050}.f7f3b60a-f6a4-4a2c-b10f-8bd52d3daba3{fill:#b3b3b3}.bfec58f3-1043-4d37-b2ce-ffb87d7c7e0b{fill:#94cbff}.a44b49e9-3cc9-4629-9e8f-b330defbfba6,.ae094abc-0e1e-4dec-b21c-19a9c5bced85{fill:none;stroke-miterlimit:10}.ae094abc-0e1e-4dec-b21c-19a9c5bced85{stroke:#2997ff}.a44b49e9-3cc9-4629-9e8f-b330defbfba6{stroke:#ff70ff}</style></defs><g id="e9fa2af3-89a4-4b8e-881b-42cdf7a15f73"><g id="b52141fe-de7b-48e8-b348-e8aff1c74e10"><path d="M46.78 142.65c0-2.88-.87-6.48-3.75-7.92-2.16-1.08-8.93-1.23-12.45-1.23h-2V154c0 1 0 21.17.07 22.39.15 1.8.72 2.88 2.45 2.88h4.54c.65 0 .72.22.72.72v1.51c0 .36-.07.58-.72.58s-3-.22-10.08-.22-9.94.22-10.95.22c-.57 0-.65-.29-.65-.72V180c0-.5.08-.72.51-.72h4.89a2.16 2.16 0 0 0 2.38-1.73c.22-2.09.22-24.19.22-25.56V133.5h-1.8c-2.31 0-8.57 0-11.38.87-3.24 1-5.4 6-6.41 8.35-.14.36-.36.43-.72.36l-1.3-.36c-.21-.07-.43-.14-.28-.57.72-2.6 3.24-11.89 3.38-12.68s.43-1.15.72-1.15a1.22 1.22 0 0 1 .86.29l.94.65a6 6 0 0 0 4.11 1.22c3.81.14 6.84.43 13.6.43h7.42c7.85 0 11-.29 14.47-.43A5.87 5.87 0 0 0 50 128.9c.86-.72 1.08-.58 1.51-.58s.93.43.72 1.8c-.23 1.22-.23 17.35-.23 20.95v4.61h.36a13.76 13.76 0 0 1 9.83-4.68 9.47 9.47 0 0 1 7.13 2.88c3.24 3 3.09 6.7 3.09 10.59v4.1c0 4 .15 8.5.15 9.87 0 .86 1.15 1.08 2.66 1.08h1.22c.58 0 .8.14.8.65v1.08c0 .57-.15.86-.58.86s-2.81-.22-6.91-.22c-3.53 0-6.12.22-6.77.22-.5 0-.65-.22-.65-.79v-1.23c0-.36.07-.57.51-.57h1.65c1.23 0 2.67-.15 2.74-1.37.07-1 0-4.83 0-7.13v-5.83c0-4-.29-6.92-2.38-8.86a6.59 6.59 0 0 0-4.75-2 8.78 8.78 0 0 0-6.7 3 6.24 6.24 0 0 0-1.4 3.54v15.69c0 2.31.22 3 1.59 3h2.16c.5 0 .79.14.79.57v1.23c0 .5-.15.79-.58.79s-3.52-.22-6.84-.22c-3.6 0-6.33.22-7 .22-.29 0-.51-.22-.51-.72v-1.3c0-.5.29-.57 1.08-.57h1.52c1.15 0 2.23-.29 2.37-1.16.22-1.36.22-9.28.22-14zm38.59 20.09a17.91 17.91 0 0 0-.22 3.46c0 7.05 4.47 12.38 10.23 12.38a9.75 9.75 0 0 0 8.71-4.9.59.59 0 0 1 .65-.36l.93.51c.22.07.36.29 0 1.08-1.29 2.88-5 7.85-11.45 7.85-4.1 0-8.64-1.23-11.3-5.12-2.52-3.67-3.17-6.33-3.17-11.37a16.2 16.2 0 0 1 4.54-11.45C87.38 151.65 91 151 94.58 151c8.28 0 10.59 7.78 10.59 10.59 0 1-.87 1.15-2 1.15zm11.45-2.16c1.36 0 1.94-.36 1.94-1 0-1.65-.86-6.41-5.54-6.41-3.17 0-6.2 2.09-7.57 7.42zm57.52 23.91c0 4.46.22 10.58.36 12.52.08 1.3.51 2.09 1.52 2.09h2.23c.5 0 .72.15.72.43v1.59c0 .43-.15.57-.51.57-.64 0-3.31-.21-7-.21-4.54 0-7 .21-7.56.21s-.58-.14-.58-.64v-1.44c0-.36.15-.51.79-.51h3c1.22 0 1.58-.5 1.73-1.51s.14-11.74.14-16.49v-1.8H149a16.22 16.22 0 0 1-10.3 3.46c-5.11 0-12.89-2.74-12.89-15.12a18.77 18.77 0 0 1 6.19-13.18 13.9 13.9 0 0 1 9.5-3.46 26.29 26.29 0 0 1 8.57 1.59l3.82-1.59c.29-.07.43-.14.65.07l.65.51c.14.14.21.36 0 1.08a43.56 43.56 0 0 0-.58 4.75c-.14 1.59-.22 5.19-.22 10.66zm-5.18-24.56c-.58-5-5.47-6.62-8.28-6.62-6.34 0-9.51 7.63-9.51 11.88 0 6.84 2.24 9.57 3.82 11.59a8.65 8.65 0 0 0 6.34 3 10.23 10.23 0 0 0 7.63-3.24zm39.17 7.35c0 3.45 0 7 .14 8.49.22 2.23 1 2.52 1.87 2.52a10.87 10.87 0 0 0 2.38-.21c.58-.15.79 0 .86.28l.22.94c.07.43-.07.58-.36.65l-7.56 2.52a4.33 4.33 0 0 1-1.44.29c-.29 0-.58-.15-.65-.87l-.58-4.17h-.14a13.18 13.18 0 0 1-9.79 5 7.54 7.54 0 0 1-6.77-3.32c-2.95-3.81-2.81-6.19-2.81-14.11v-8.42c-.07-2-1.08-2.52-2.74-2.74-1.22-.07-1.58-.14-1.58-.5v-1.3c0-.43.14-.58.79-.58h6.41a3.9 3.9 0 0 0 1-.14c.29 0 .58-.07.79-.07a.73.73 0 0 1 .79.86c-.07.65-.28 4-.28 8.28v5.19c0 2.88-.72 7.49 1.58 10.8 1.8 2.59 3.82 2.73 5.76 2.73s4.82-1.87 6.19-3.6a3.88 3.88 0 0 0 .72-1.94v-17.17c-.14-2-1.29-2.38-3.09-2.52-1.23 0-1.59-.14-1.59-.5v-1.23c0-.57.15-.65.87-.65H186a5.88 5.88 0 0 0 1.23-.14c.36 0 .65-.07.86-.07a.63.63 0 0 1 .65.72 64.4 64.4 0 0 0-.43 9.58zm12.31-6.34c0-2.45-.43-3.75-4-4.32-.5-.07-.64-.22-.64-.51v-.64c0-.22.14-.36.5-.51a57.35 57.35 0 0 0 7.78-3.53 3 3 0 0 1 1.37-.43c.36 0 .43.36.36.87-.15 1.22-.15 5.76-.15 11.73v7.85c0 2.81 0 5.4.07 6.19.15 1.37.36 1.88 1.16 1.88h3.31c.57 0 .72.21.72.65v1.22c0 .5-.15.72-.65.72s-3.89-.22-6.91-.22c-4.18 0-7 .22-7.78.22a.51.51 0 0 1-.58-.58v-1.44c0-.43.22-.57.72-.57h3.53c.8 0 1.08-.29 1.15-1.44.08-2.16.08-4.4.08-6.56zm-3.39-22.11a4.25 4.25 0 0 1 4.54-4 3.8 3.8 0 0 1 3.89 3.82 4.13 4.13 0 0 1-4.32 4.25 4.39 4.39 0 0 1-4.11-4.07zM219 164.47a20.29 20.29 0 0 0 3.67 10.94 9.26 9.26 0 0 0 7.85 3.67 9.88 9.88 0 0 0 7.92-3.09.37.37 0 0 1 .58 0l.72.72c.28.29.36.5 0 .93a16.67 16.67 0 0 1-11.6 5.12c-3.81 0-7.85-.87-11.16-5a15 15 0 0 1-3.24-9.8c0-8.42 5.91-16.92 15.41-16.92 7.49 0 9.79 4.32 9.79 5.83a2.45 2.45 0 0 1-2.66 2.52c-1.66 0-2.88-.93-4-2.87-1.59-3-3.1-3.17-4.83-3.17-4.06-.04-8.45 3.7-8.45 11.12zm27.79-23.91c0-2.95-.22-4.17-3.75-5.11-.79-.22-1-.29-1-.51v-.64c0-.29.21-.44.93-.72l7.35-3.17a4.68 4.68 0 0 1 1.58-.58c.43 0 .5.36.43 1.23-.36 3.45-.36 14-.36 22.68v11.38a7 7 0 0 0 3.46-.8c1.37-.93 7.06-7.2 7.63-8.06s.43-1.37 0-1.66a3.21 3.21 0 0 0-1.87-.43c-.5 0-.58-.22-.58-.65v-1.37c0-.36.15-.57.51-.57s3 .21 6.69.21 5.33-.21 5.84-.21c.28 0 .43.21.43.72v1.29c0 .44-.07.58-.58.58h-.5a10.41 10.41 0 0 0-5 1.66c-1 .57-7.06 6.19-9.5 8.57 1.44 1.44 13.53 13.53 14.76 14.11a10 10 0 0 0 3.74 1c.43 0 .58.14.58.65v1.29c0 .43-.15.65-.65.65s-2.59-.22-6-.22c-4.25 0-7.27.22-7.85.22-.36 0-.5-.22-.5-.72v-1.15c0-.36.14-.58.72-.58h.5a.83.83 0 0 0 .8-1.15c-.22-.58-8.43-9.29-9.58-10.37a5.24 5.24 0 0 0-3.1-.79v3.17c0 2.52 0 5 .07 7.48.08 1 .44 1.52 1.44 1.52h2.09c.51 0 .65.14.65.57v1.23c0 .57-.14.79-.57.79s-2.81-.22-6.41-.22c-3.89 0-6.41.22-6.92.22-.21 0-.36-.29-.36-.72v-1.22c0-.51.22-.65.72-.65h2.67c.93 0 1.29-.8 1.29-1.73.08-3.17.15-7.06.15-13.39zm49.46 2.52c0-4.82-.79-5.83-3.38-6.69l-.72-.22c-.8-.22-.94-.36-.94-.58V135c0-.22.14-.36.58-.58a77 77 0 0 0 7.63-4 3 3 0 0 1 1.51-.65c.51 0 .65.36.58 1.23-.07.57-.07 8.78-.07 15.19v8.35c2.3-2.23 6.4-3.6 9.93-3.6 6.34 0 13.18 5.11 13.18 15.41 0 8.43-6.77 16.35-15 16.35-4 0-6.84-.87-8.49-1.88l-2.88 1.59a1 1 0 0 1-.94.22l-.86-.22c-.29-.07-.36-.22-.29-.58.14-1 .14-7 .14-12.24zm5.19 23.33c0 6 .21 8.14 1.08 10.44.72 1.73 3.74 3.6 6.84 3.6 4.32 0 9.65-2.95 9.65-12.38 0-7-3.68-13.61-10.73-13.61a9.55 9.55 0 0 0-6.84 2.59zm31.46-3.67c0-3.67-.58-4.39-2.59-5.47l-1.37-.72c-.43-.15-.58-.22-.58-.51v-.43c0-.29.15-.43.58-.65l7.13-3.67a2.12 2.12 0 0 1 1-.29c.43 0 .5.43.5.87l.36 5.11h.29c2.16-3.31 5.54-6.27 8.64-6.27 2.45 0 3.67 1.52 3.67 3.17a3.48 3.48 0 0 1-3 3.53 4.65 4.65 0 0 1-2.09-.58 4.75 4.75 0 0 0-2.38-.57 5.12 5.12 0 0 0-4.25 3 7.88 7.88 0 0 0-.72 2.31v15c0 2.24.51 3 2 3h3.38c.44 0 .51.21.51.65v1.29c0 .43-.07.65-.36.65s-3.75-.22-7.63-.22c-4.47 0-7.49.22-7.93.22-.28 0-.43-.15-.43-.72v-1.22c0-.51.15-.65.79-.65h2.81c1.08 0 1.59-.44 1.59-1.37.07-2.38.07-4.9.07-8.64zm21.89 15.05c-3.32-4-4-6.63-4-11.74a15.3 15.3 0 0 1 6.21-11.59 15.58 15.58 0 0 1 9.65-3.46 15.24 15.24 0 0 1 10.08 4.18 16 16 0 0 1 4.9 11.74c0 7.84-7.06 15.84-15.92 15.84a14.52 14.52 0 0 1-10.92-4.97zm20.81-11.59c0-8-5.84-13-9.51-13a6.93 6.93 0 0 0-5.54 2.31c-2.81 2.88-3.82 5.83-3.82 11.3 0 4 .43 6.77 2.74 10.08a8 8 0 0 0 7.13 3.75c5.47-.04 9-6.74 9-14.44zm42.12 7.8h.28l5.84-15.91c.93-2.52.36-4-1.08-4h-1c-.36 0-.43-.22-.43-.58V152a.45.45 0 0 1 .5-.5c.43 0 2.59.21 5.55.21s4.39-.21 5.25-.21a.46.46 0 0 1 .51.5v1.51c0 .36-.15.58-.51.58h-1.8a3.09 3.09 0 0 0-2.3 1.22c-.87 1.37-10 24.34-10.95 26.65a1.27 1.27 0 0 1-1.37.93c-.5 0-1-.5-1.29-1.37L407.85 161h-.36l-8.85 20.81a1.6 1.6 0 0 1-1.52 1.15c-.57 0-.93-.57-1.22-1.44l-9.43-25.42c-.51-1.36-1.3-1.94-3-1.94h-1.58c-.43 0-.51-.22-.51-.65v-1.37c0-.36.08-.57.44-.57 1 0 2.44.21 6.55.21 3.24 0 5-.21 6.05-.21.43 0 .57.14.57.57v1.44c0 .36-.07.58-.57.58h-.65c-.79 0-1.3.65-.87 1.94l5.69 19.16h.29l7.35-17.64a4.51 4.51 0 0 0-.65-2.31 2.16 2.16 0 0 0-1.95-.72h-1.08c-.36 0-.5-.14-.5-.5v-1.51c0-.44.22-.58.65-.58s2.88.22 6.48.22c3.31 0 4.89-.22 5.47-.22s.65.14.65.5v1.5c0 .36-.15.57-.51.57h-1.51c-.72 0-1.29.79-1 1.88zm44.85 4c0 1.16.65 1.52 1.59 1.52h2.3c.65 0 .79.21.79.65v1.15c0 .5-.14.79-.57.79s-2.74-.22-6.84-.22c-3.68 0-6 .22-6.49.22s-.57-.22-.57-.79v-1.15c0-.51.22-.65.93-.65h2.09c.8 0 1.37-.36 1.44-1.66.08-1.87.15-4.18.15-6.05v-9.5c0-2.88 0-5-2.09-6.48-1.73-1.3-3.46-1.3-5.26-1.3a8.42 8.42 0 0 0-5.83 2.81 7.07 7.07 0 0 0-1.66 4.9v14.9c0 1.94.22 2.38 1.73 2.38h1.8c.58 0 .72.21.72.72v1.22c0 .43-.14.65-.5.65s-2.45-.22-6.27-.22c-3.67 0-6 .22-6.4.22s-.51-.22-.51-.65v-1.29c0-.44.15-.65.72-.65h2.09c.94 0 1.44-.22 1.44-1.44v-16.85c0-2.16-1.15-3.39-2.95-4.25l-.58-.29c-.5-.21-.57-.43-.57-.65v-.36c0-.36.28-.57.64-.72l6.2-3.45a3.73 3.73 0 0 1 1.29-.51c.36 0 .51.29.58.87l.5 4.39h.15c2.08-2.59 6.26-5.26 9.86-5.26a11.06 11.06 0 0 1 6.12 1.59c2.16 1.44 4 5 4 6.84zm24.19-22.75c-.36 0-.5-.14-.36-.79l.29-2.16c.07-.43.29-.51.86-.51h4.18v-1.29c0-7.13 2-11.81 4.82-15 3.82-4.18 7.78-5.69 11.81-5.69 3.39 0 6.56 1.3 6.56 4a3.45 3.45 0 0 1-3 3.1 4.53 4.53 0 0 1-2-.43 7.68 7.68 0 0 1-1.73-1.66 4 4 0 0 0-3.32-1.65 6.41 6.41 0 0 0-5.4 2.52c-2.66 3.38-2.52 9.65-2.52 14.69v1.36h8.72c.5 0 .57.44.5.72l-.36 2.38c-.07.29-.36.36-.94.36h-7.92v6.48c0 8.5 0 15.12.08 15.91.14 1.23.36 1.88 1.87 1.88h4.1c.65 0 .79.14.79.57v1.16c0 .57-.14.86-.5.86s-3.1-.22-8.64-.22c-4 0-7.63.22-8.21.22-.43 0-.57-.15-.57-.51V180c0-.36.14-.5.71-.5H490c1.37 0 1.66-.87 1.73-2.52v-21.73z" class="a20acbf0-42c5-4667-9ac2-8fb69e9cb227" transform="translate(0 -2.78)"/><path d="M511.74 177.79c-3.31-4-4-6.63-4-11.74a15.31 15.31 0 0 1 6.2-11.59 15.58 15.58 0 0 1 9.65-3.46 15.24 15.24 0 0 1 10.08 4.18 16 16 0 0 1 4.89 11.74c0 7.84-7.05 15.84-15.91 15.84a14.54 14.54 0 0 1-10.91-4.97zm20.81-11.59c0-8-5.83-13-9.5-13a6.93 6.93 0 0 0-5.55 2.31c-2.8 2.88-3.81 5.83-3.81 11.3 0 4 .43 6.77 2.73 10.08a8 8 0 0 0 7.13 3.75c5.45-.04 9-6.74 9-14.44z" class="a20acbf0-42c5-4667-9ac2-8fb69e9cb227" transform="translate(0 -2.78)"/><path d="M549.9 181.53c0 .29-.07.58-.5.58-.65 0-2.52-.22-5.62-.22-3.6 0-4.82.22-5.54.22s-.65-.29-.65-.65v-1.29c0-.37.07-.65.58-.65H540c1.58 0 2.38-.29 3-.87 1.37-1.22 8.07-10.15 9.29-11.52a130.46 130.46 0 0 0-8.5-11.95 3.25 3.25 0 0 0-2.59-1h-2a.45.45 0 0 1-.5-.5v-1.44c0-.51.07-.65.58-.65s2.52.21 5.9.21 6.05-.21 6.7-.21c.36 0 .43.21.43.65v1.36c0 .44-.14.58-.43.58h-.65c-1.15 0-1.15 1.15-.29 2.45l4.47 7.06 5.47-7.2c.65-.87.43-2.31-.79-2.31h-.87c-.36 0-.43-.22-.43-.5v-1.52c0-.43.07-.57.36-.57.86 0 2.09.21 6.19.21a38 38 0 0 0 4.11-.21c.57 0 .65.29.65.72v1.29c0 .44-.08.58-.58.58h-1.15a4 4 0 0 0-2.81.86c-1.23 1-7.35 8.57-8.86 10.45 2.88 4.24 5.76 8.71 8.93 12.52a4 4 0 0 0 3.17 1.52h1.15c.29 0 .36.14.36.57v1.44c0 .29-.07.58-.5.58-.65 0-2-.22-5.55-.22-4.1 0-6.26.22-7.05.22-.51 0-.58-.29-.58-.65v-1.22c0-.51.07-.72.58-.72h1.08c.79 0 1.22-1.08.43-2.31l-5.19-8.28c-1 1.44-5.76 7.85-6.26 9-.36.79-.07 1.59.79 1.59h1.51c.29 0 .36.28.36.57zm42.99-19.15c0-3.17-.58-3.89-3.53-5l-.72-.29c-.36-.14-.43-.29-.43-.5v-.65c0-.22.21-.36.57-.58a33.72 33.72 0 0 0 7.78-3.81 2 2 0 0 1 1.37-.51c.36 0 .57.51.43 1.23s-.29 5.69-.29 12.24v9c0 4.25-.21 11.95-1 15.91-1.58 8.21-6.77 12.1-12.31 12.1-2.16 0-4.18-1.3-4.18-3.39 0-1.15 1.08-3 2.6-3s2.8.79 4.1 2.23c.72.79 1.22 1.08 1.66 1.08 1.8 0 3.24-1.94 3.6-6.33.28-4.18.36-10.3.36-15.41zm-3-23.55a4.25 4.25 0 0 1 4.54-4 3.8 3.8 0 0 1 3.89 3.82 4.13 4.13 0 0 1-4.32 4.25 4.39 4.39 0 0 1-4.14-4.07zm42.31 28.45c0 3.45 0 7 .14 8.49.22 2.23 1 2.52 1.88 2.52a10.84 10.84 0 0 0 2.37-.21c.58-.15.79 0 .87.28l.21.94c.07.43-.07.58-.36.65l-7.56 2.52a4.33 4.33 0 0 1-1.44.29c-.29 0-.57-.15-.65-.87l-.57-4.17h-.15a13.16 13.16 0 0 1-9.79 5 7.54 7.54 0 0 1-6.77-3.32c-3-3.81-2.81-6.19-2.81-14.11v-8.42c-.07-2-1.08-2.52-2.73-2.74-1.23-.07-1.59-.14-1.59-.5v-1.3c0-.43.15-.58.79-.58h6.41a3.83 3.83 0 0 0 1-.14c.29 0 .58-.07.79-.07a.74.74 0 0 1 .8.86c-.08.65-.29 4-.29 8.28v5.19c0 2.88-.72 7.49 1.58 10.8 1.8 2.59 3.82 2.73 5.76 2.73s4.83-1.87 6.19-3.6a3.88 3.88 0 0 0 .72-1.94v-17.17c-.14-2-1.29-2.38-3.09-2.52-1.23 0-1.59-.14-1.59-.5v-1.23c0-.57.15-.65.87-.65h6.7a5.86 5.86 0 0 0 1.22-.14c.36 0 .65-.07.86-.07a.62.62 0 0 1 .65.72 64.4 64.4 0 0 0-.43 9.58zm31.9-3.82c0-5.33-1-6.7-2.16-7.78-.94-.86-3-1.29-4.61-1.29a8.37 8.37 0 0 0-6.92 4.17 8.6 8.6 0 0 0-1 4.83v14.25c0 1.16.43 1.88 1.44 1.88h2.59c.65 0 .72.14.72.65v1.15c0 .5-.07.79-.58.79s-2.59-.22-6.55-.22-6.12.22-6.7.22-.57-.15-.57-.65v-1.29c0-.58.14-.65.86-.65h2.45c.65 0 1-.44 1.08-1.8s.07-2.52.07-3.75v-12.81a3.67 3.67 0 0 0-2-3.68l-1.52-.79c-.36-.21-.5-.36-.5-.58v-.57a.9.9 0 0 1 .43-.58l6.34-3.24a3.48 3.48 0 0 1 1.37-.43c.43 0 .64.5.64 1l.29 4.18h.22a14 14 0 0 1 10.57-5.47 8.73 8.73 0 0 1 8.14 5.55h.36c2.16-2.81 6.26-5.55 10.58-5.55 2.53 0 4.76.43 6.48 2.16s3.46 3.32 3.46 8.86v16.06c0 1.08.65 1.44 1.51 1.44h1.95c.65 0 .79.14.79.65v1.22c0 .5-.14.72-.5.72s-2.52-.22-6-.22-6.19.22-6.7.22-.57-.22-.57-.72v-1.22c0-.51.14-.65.93-.65h1.8a1.3 1.3 0 0 0 1.44-1.37c.15-1.66.15-4.25.15-5.83v-10.66c0-2.38-.44-4.47-2.09-5.76a8.66 8.66 0 0 0-5.33-1.51 8.1 8.1 0 0 0-6.26 3.74c-1.08 2.09-1 4-1 7.27v12.46c0 .94.36 1.66 1.44 1.66h2.45c.64 0 .79.14.79.65v1.15c0 .57-.15.79-.51.79s-2.37-.22-6.4-.22-6.34.22-6.77.22-.51-.22-.51-.72v-1.15c0-.58.08-.72.72-.72h2.09c1.15 0 1.59-.29 1.59-1.23zm36.07-1.94c0-1.73-.51-2.74-2.6-3.89l-1.65-.94c-.51-.21-.51-.43-.51-.65v-.57c0-.22.15-.36.51-.51l6.91-3.45a4.14 4.14 0 0 1 1.66-.58c.36 0 .5.36.5 1.44l.29 3.46h.21A13.33 13.33 0 0 1 716 151a11.48 11.48 0 0 1 8.21 3.53c2.73 2.74 3.88 5.69 3.88 11.23 0 9.44-6.55 17-15.55 17a20.38 20.38 0 0 1-7.2-1.23v15.2c0 2 .5 2.37 1.58 2.37h3.17c.58 0 .65.29.65.72v1.23c0 .43-.14.64-.65.64s-2.81-.21-7.41-.21c-4.18 0-6.7.21-7.28.21s-.65-.21-.65-.64v-1.3c0-.36.15-.65.87-.65h2.81c1.22 0 1.37-.72 1.51-1.8.22-1.58.22-5.47.22-12.53zm5.18 13.17c0 1.59.14 2.88 1.51 3.82a11.63 11.63 0 0 0 7.2 1.94c4.11 0 8.36-3.09 8.36-12 0-10.08-4.54-14.12-9.37-14.12a9.15 9.15 0 0 0-7.7 4.61zm28.65 5.98c-.36-.22-.36-.65-.43-1l-1.22-6.84c-.07-.36.14-.5.43-.58l.94-.21c.28-.07.5.07.64.43l1.81 3.53c1.43 2.66 2.44 4.46 6.26 4.46 2.52 0 5.69-1.51 5.69-4.89s-1.59-5.12-7-6.63c-4.25-1.22-8.49-3.45-8.49-9.14 0-5 4.68-8.79 10.08-8.79a13.49 13.49 0 0 1 6.62 1.51c1.08.51 1.23.87 1.3 1.3l1.08 5a.68.68 0 0 1-.51.65l-.86.29c-.29.07-.43 0-.65-.36l-2.45-3.32a5.51 5.51 0 0 0-5-2.8c-2.73 0-5.54 1.65-5.54 4.75 0 4.18 3.38 5 6.91 6 5.26 1.51 8.57 3.67 8.64 9.21-.07 5.83-4.82 9.51-10.94 9.51a13.58 13.58 0 0 1-7.31-2.08zm42.84-2.88c-3.31-4-4-6.63-4-11.74a15.31 15.31 0 0 1 6.2-11.59 15.57 15.57 0 0 1 9.64-3.46 15.25 15.25 0 0 1 10.09 4.18 16 16 0 0 1 4.89 11.74c0 7.84-7.05 15.84-15.91 15.84a14.54 14.54 0 0 1-10.91-4.97zm20.81-11.59c0-8-5.83-13-9.5-13a7 7 0 0 0-5.55 2.31c-2.8 2.88-3.81 5.83-3.81 11.3 0 4 .43 6.77 2.73 10.08a8 8 0 0 0 7.13 3.75c5.47-.04 9-6.74 9-14.44zm24.12 9.07h.23c1.15-2.81 6.19-15.19 6.91-18 .5-2 0-3.1-1.3-3.1h-1.44c-.21 0-.28-.36-.28-.72v-1.3c0-.43.14-.57.43-.57 1 0 2.59.21 5.76.21 2.81 0 4.53-.21 5.18-.21s.65.07.65.65v1.22c0 .5 0 .72-.36.72h-1.37a2.86 2.86 0 0 0-2.23.79c-1.08 1-4.68 8.93-5.76 11.6-.86 2.16-6.19 14.25-6.48 14.76-.58 1-.94 1.65-1.73 1.65s-1.15-.64-1.51-1.51l-5.62-14.62c-.21-.57-3.17-8.85-3.67-10-.94-2.08-1.66-2.66-2.95-2.66h-1.44c-.36 0-.43-.29-.43-.72v-1.3c0-.5.14-.57.79-.57s2 .21 6.05.21c3.81 0 5.69-.21 6.48-.21.57 0 .72.14.72.57v1.3c0 .43-.08.72-.51.72h-1.44a1.23 1.23 0 0 0-1.29 1.37c0 1.29 1.87 7.34 2.3 8.57s3.54 9.64 4.31 11.15zm20.95-12.53a19 19 0 0 0-.21 3.46c0 7.05 4.46 12.38 10.22 12.38a9.74 9.74 0 0 0 8.71-4.9.61.61 0 0 1 .65-.36l.94.51c.21.07.36.29 0 1.08-1.3 2.88-5 7.85-11.45 7.85-4.11 0-8.64-1.23-11.31-5.12-2.52-3.67-3.16-6.33-3.16-11.37a16.23 16.23 0 0 1 4.53-11.45c3.1-3.17 6.7-3.82 10.3-3.82 8.28 0 10.58 7.78 10.58 10.59 0 1-.86 1.15-2 1.15zm11.45-2.16c1.37 0 2-.36 2-1 0-1.65-.87-6.41-5.55-6.41-3.17 0-6.19 2.09-7.56 7.42zm16.49 2.16c0-3.67-.58-4.39-2.59-5.47l-1.37-.72c-.43-.15-.58-.22-.58-.51v-.43c0-.29.15-.43.58-.65l7.13-3.67a2.12 2.12 0 0 1 1-.29c.44 0 .51.43.51.87l.36 5.11h.3c2.16-3.31 5.54-6.27 8.64-6.27 2.45 0 3.67 1.52 3.67 3.17a3.48 3.48 0 0 1-3 3.53 4.65 4.65 0 0 1-2.09-.58 4.75 4.75 0 0 0-2.38-.57 5.12 5.12 0 0 0-4.25 3 7.88 7.88 0 0 0-.72 2.31v15c0 2.24.51 3 2 3h3.38c.44 0 .51.21.51.65v1.29c0 .43-.07.65-.36.65s-3.75-.22-7.64-.22c-4.46 0-7.48.22-7.92.22-.28 0-.43-.15-.43-.72v-1.22c0-.51.15-.65.79-.65h2.8c1.08 0 1.59-.44 1.59-1.37.07-2.38.07-4.9.07-8.64zm46.65-5.33c0 2.16.29 2.52 3.32 2.52h1.65a.38.38 0 0 1 .43.43v1.73c0 .29-.21.36-.5.36s-5.4-.21-7.49-.21c-1.87 0-7.34.21-7.56.21s-.5-.14-.5-.36v-1.87c0-.22.29-.29.64-.29h2.09c3.1 0 3.24-.36 3.32-2.37 0-.58.07-6.34.07-8.79v-2.16c0-1-.07-4.39-.15-6.05-.07-1-.28-1.73-1.08-1.73a6 6 0 0 0-1.87.44l-2.81 1.15c-.43.21-.65.21-.72.07l-.79-1.44c-.07-.14 0-.29.29-.43l9.94-5.4a2.69 2.69 0 0 1 1.29-.51c.43 0 .58.29.58.65 0 .65-.15 7.13-.15 12.67zm.51 24.63c-.36.65-.51.93-.72.93s-.43-.07-1.3-.57-1-.58-1-.87a2.09 2.09 0 0 1 .36-.86l29.24-47.38c.14-.29.29-.58.57-.58a2.69 2.69 0 0 1 1.16.44c1.15.64 1.22.79 1.22 1a2 2 0 0 1-.29.65zm28.08-.15c-.43 0-.58-.07-.58-.72v-6.84h-13.89a.73.73 0 0 1-.65-.79 1.39 1.39 0 0 1 .5-1.08l16.06-19.23c.29-.28.72-.86 1.3-.86s1.08.43 1.08 1.66V171h4.68c.29 0 .5.14.5.65v2.16c0 .43-.14.57-.72.57h-4.46v6.77c0 .65-.15.79-.72.79zm-.58-21.17c0-.72-.5-1.08-1-.43l-8.14 9.51c-.65.79-.36 1.15.29 1.15h8.85zm39.31 12.17c0 5.4 2.45 6.34 3.75 6.34a10.34 10.34 0 0 0 4.75-.94.59.59 0 0 1 .86.15l.36.64a.58.58 0 0 1-.14.8 12.11 12.11 0 0 1-8 2.88c-3.53 0-7-3.39-7-6.12 0-3 .22-9.29.22-10.3v-1.58c0-1.3.07-6.2.14-9.22h-4.37c-.65 0-1.08-.29-1.08-.87s.43-.79 1.3-1.29c1.72-1 7.27-6.55 8.2-9a1 1 0 0 1 1-.72c.58 0 .72.5.72 1.08l-.36 7h10c.43 0 .65.36.51.65l-.72 2.52c-.08.36-.22.58-.65.58h-9.29c-.14 3.31-.22 6.84-.22 10.15zm16.42-30.24c0-4.39-.87-5.18-3.46-6.05l-1.22-.43c-.44-.15-.51-.22-.51-.43v-.65c0-.29.22-.36.87-.72l7.48-4a3.81 3.81 0 0 1 1.66-.58c.43 0 .72.58.58 1.8s-.22 15.84-.22 19.44v4.61h.36a13.76 13.76 0 0 1 9.87-4.68 9.44 9.44 0 0 1 7.12 2.88c3.25 3 3.1 6.7 3.1 10.59v4.1c0 4 .15 8.5.15 9.87 0 .86 1.15 1.08 2.66 1.08h1.22c.58 0 .8.14.8.65v1.08c0 .57-.15.86-.58.86s-2.81-.22-6.91-.22c-3.53 0-6.12.22-6.77.22s-.65-.22-.65-.79v-1.23c0-.36.07-.57.5-.57h1.66c1.22 0 2.66-.15 2.74-1.37.07-1 0-4.83 0-7.13v-5.83c0-4-.29-6.92-2.38-8.86a6.59 6.59 0 0 0-4.75-2 8.78 8.78 0 0 0-6.7 3 6.24 6.24 0 0 0-1.44 3.53v15.69c0 2.31.22 3 1.59 3h2.18c.5 0 .79.14.79.57v1.23c0 .5-.15.79-.58.79s-3.53-.22-6.84-.22c-3.6 0-6.34.22-7 .22-.29 0-.51-.22-.51-.72v-1.3c0-.5.29-.57 1.08-.57h1.52c1.15 0 2.23-.29 2.37-1.16.22-1.36.22-9.28.22-14zm38.59 20.09a17.91 17.91 0 0 0-.22 3.46c0 7.05 4.47 12.38 10.23 12.38a9.74 9.74 0 0 0 8.71-4.9.59.59 0 0 1 .65-.36l.93.51c.22.07.36.29 0 1.08-1.29 2.88-5 7.85-11.44 7.85-4.11 0-8.65-1.23-11.31-5.12-2.52-3.67-3.17-6.33-3.17-11.37a16.2 16.2 0 0 1 4.54-11.45c3.09-3.17 6.69-3.82 10.29-3.82 8.29 0 10.59 7.78 10.59 10.59 0 1-.86 1.15-2 1.15zm11.45-2.16c1.37 0 1.94-.36 1.94-1 0-1.65-.86-6.41-5.54-6.41-3.17 0-6.2 2.09-7.56 7.42zm38.44-.14c0 3.74 0 14.61.08 16.84.07 1.23.36 2.24 1.87 2.24h3.24c.65 0 .79.21.79.65v1.22c0 .43-.14.72-.43.72-.51 0-3.67-.22-8.14-.22s-7.49.22-8.14.22c-.36 0-.5-.29-.5-.72v-1.22c0-.51.14-.65.94-.65h3.45c.8 0 1.52-.51 1.59-1.8.07-2.24.07-14.62.07-18.8v-4.53c0-5.12-.07-11.67-.22-13.54-.14-2.45-1.29-3.6-3.6-4.32l-1.44-.51c-.36-.14-.43-.21-.43-.35v-.58c0-.22.22-.36.65-.51a64.33 64.33 0 0 0 8.42-4.17 2.69 2.69 0 0 1 1.52-.58c.5 0 .64.36.57 1.3-.07 4-.29 18.94-.29 22.9zm31.25 18.28a3.28 3.28 0 0 0 2.52-1.08c.29-.36.44-.5.72-.28l.72.57c.22.22.36.58-.07 1.3a5.94 5.94 0 0 1-5.62 3.53c-2.59 0-4.46-1.88-5.11-4.83h-.14a15.52 15.52 0 0 1-7.13 4.4 13.59 13.59 0 0 1-4.25.43c-1.73 0-4.32-1.44-4.32-6 0-3.31 1.51-6.19 7.2-8.71 3.24-1.44 7-3.17 8.14-4.18v-4.61c-.15-1.22-.22-3.09-1-4a5.45 5.45 0 0 0-4.32-1.58 8 8 0 0 0-4.68 1.51c-1 .93-.36 2-.36 3.31 0 2.52-.86 4.11-3.82 4.11-1.15 0-1.72-.65-1.72-2.31 0-2.3 2-5 5-6.77a15.91 15.91 0 0 1 8.79-2.52c3.38 0 4.75 1 5.76 1.95 1.51 1.51 1.58 3.16 1.58 5.11v15.26c-.05 4.1.82 5.39 2.11 5.39zm-7.41-12.67c-2.6 1.95-9.65 3.39-9.65 9.36 0 2.67 1.58 4 3.74 4s5.91-2.52 5.91-4.46zm14.03 15.84c-.79 0-1.08-.29-.43-1.22l18.51-26.67h-7.64c-4.53 0-5.47.51-11.3 7.85-.29.36-.5.51-.79.29l-.94-.43c-.21-.14-.29-.36-.14-.72l4.75-10.08a20 20 0 0 0 3.46.65c2.66.21 4 .28 9.43.28h9.94c.72 0 1 .51.64 1l-19.08 26.86H1144c1.8 0 5.25-1.44 9.86-7.7a.59.59 0 0 1 .94-.22l.72.5c.29.22.36.36.14.72l-5.54 9.8c-1.3-.51-3.53-.65-6.48-.72s-5.76-.15-6.34-.15z" class="a20acbf0-42c5-4667-9ac2-8fb69e9cb227" transform="translate(0 -2.78)"/><path d="M1155.27 197.81a3.18 3.18 0 0 1 3.31-2.81 12.51 12.51 0 0 1 3.31.79 1.73 1.73 0 0 0 1.51-.43c1.08-1.3 4.76-9.51 5.76-12.32-.36-1.79-8-24.33-8.56-25.85-.87-1.8-1.52-3-3.39-3h-1.87c-.51 0-.58-.22-.58-.65v-1.44c0-.29.07-.5.58-.5s2.37.21 6.62.21c3.68 0 5.91-.21 6.7-.21.58 0 .65.21.65.5v1.51c0 .36-.07.58-.43.58h-1.37c-.79 0-1.08.5-.94 1.58.22 1.59 5.11 17.5 5.91 19.09h.28c.72-1.16 7-16.13 7.42-17.93s-.14-2.74-1.22-2.74h-1.16c-.43 0-.5-.22-.5-.58v-1.44c0-.36.07-.57.43-.57.94 0 2.45.21 5.91.21 1.94 0 3.6-.21 4.39-.21.43 0 .43.29.43.57v1.37c0 .43 0 .65-.36.65h-1.1a3.23 3.23 0 0 0-2.52 1.3c-1.58 1.94-6.34 13-11.31 24.26-3.52 8-6.33 14.69-7.63 17.07-1 1.87-2.3 4.68-6.12 4.68-2.79-.02-4.15-1.5-4.15-3.69zm73.01-59.81c0-2.73-.51-3.6-4.54-4.25-.43-.07-.5-.21-.5-.5v-1.23c0-.28.14-.43.57-.5 2.81-.58 6.55-1.22 7.92-1.51.65-.07 1.15-.22 1.66-.22.36 0 .43.51.36 1.3-.22 3.6-.29 14-.29 23.18v15.92c0 2.66.14 5.83.72 6.55a5.36 5.36 0 0 0 3.17 1.22c1 .08 1.29.15 1.44.51l.14.57a.62.62 0 0 1-.5.8l-8.14 2.73c-.43.15-.79-.07-.93-.57l-.94-3.17c-2.3 2.3-6.91 3.89-10.59 3.89-2.37 0-5.11.14-8.49-3.32-3.67-3.6-4.54-6.84-4.54-11.66a17.17 17.17 0 0 1 5-12.24 14.47 14.47 0 0 1 10.73-4.54 26.84 26.84 0 0 1 7.71 1.08zm0 22.83a7.09 7.09 0 0 0-.65-3.53c-1-2-3.31-3.89-7.56-3.89a8.91 8.91 0 0 0-6.56 2.59 13.8 13.8 0 0 0-3.31 9.58c0 8.14 5.62 14 9.8 14 4 0 7.12-2.09 7.84-4a6.8 6.8 0 0 0 .44-2.45zm16.41 16.96c-3.31-4-4-6.63-4-11.74a15.3 15.3 0 0 1 6.19-11.59 15.6 15.6 0 0 1 9.65-3.46 15.24 15.24 0 0 1 10.08 4.18 16 16 0 0 1 4.9 11.74c0 7.84-7.06 15.84-15.92 15.84a14.52 14.52 0 0 1-10.9-4.97zm20.81-11.59c0-8-5.83-13-9.51-13a6.93 6.93 0 0 0-5.54 2.31c-2.81 2.88-3.82 5.83-3.82 11.3 0 4 .44 6.77 2.74 10.08a8 8 0 0 0 7.13 3.75c5.5-.04 9-6.74 9-14.44zm11.8 32.97c-2.59-1.58-3.67-3.45-3.67-5.83 0-4 4.11-7.13 7.56-8.64v-.29c-3-.64-4.82-2.88-4.82-5 0-3.45 4-5.9 6.48-6.84v-.14a11.46 11.46 0 0 1-6.7-10.95c0-4.68 4.18-10.44 12.32-10.44a11.53 11.53 0 0 1 9.07 4.18c1.94-1.37 4.39-2.81 6.77-2.81s3.52 1.58 3.38 3a2.74 2.74 0 0 1-2.81 2.67 3.62 3.62 0 0 1-2.52-1.08 2.83 2.83 0 0 0-1.51-.65 5.24 5.24 0 0 0-2.3.43 13.73 13.73 0 0 1 1.08 5.48A11.88 11.88 0 0 1 1297 170a12.87 12.87 0 0 1-12 3.24c-1.44.58-3.82 2-3.82 4 0 3 3.6 2.74 8.43 2.45 5.9-.29 9.5.36 12.38 2.6a8.44 8.44 0 0 1 3.53 6.91c0 3.38-1.23 6.19-4.83 8.85-1.87 1.37-6.19 3.39-12.31 3.39-3.51.04-7.62-.32-11.08-2.27zm23.77-7.41c0-4.25-3.24-7.49-10.44-7l-6.92.51c-2.23.57-5.76 3-5.76 6.91a6.92 6.92 0 0 0 2.81 5c2.38 1.65 5 2 10.08 2 2.67-.01 10.59-1.88 10.23-7.42zm-6.7-30.68c0-3.16-.65-5-1.94-6.48a5.49 5.49 0 0 0-3.43-1.6 6.61 6.61 0 0 0-5.11 2c-2.31 2.45-2.6 5.77-2.6 8.5a9 9 0 0 0 2.31 6.27 5.89 5.89 0 0 0 4.32 1.8c4.87.03 6.45-5.95 6.45-10.49zm15.91 17.43a4.25 4.25 0 0 1 8.5.29 3.88 3.88 0 0 1-4 4 4.19 4.19 0 0 1-4.5-4.29zM78.13 784.23c-.87-.65-1.3-.86-1.66-.86s-.72.5-1.15 1.22-.79.86-1.3.86-.79-.36-.65-1.15c.29-1.8 1-10.94 1.23-13 .07-.43.21-.43.5-.43l1.08.07c.29 0 .44.14.44.57a14.12 14.12 0 0 0 2.59 8.36 12 12 0 0 0 10.08 5.33c4.32 0 9.79-2.67 9.79-9.15 0-7.42-5.33-10.15-11.09-12.17-2.23-.79-7.41-2.59-10.51-5.83-2.38-2.38-3.6-5.76-3.6-10.51 0-3.6 2.23-7.13 4.46-9.22 2.6-2.45 6.2-3.46 10.08-3.46a20.81 20.81 0 0 1 8.5 1.8c.65.36 1 .29 1.37-.07l.94-.86a1.37 1.37 0 0 1 .93-.44c.36 0 .58.58.58 1.23 0 2.52.93 9.86 1 11.45 0 .36-.08.5-.36.57l-.87.22a.3.3 0 0 1-.43-.22 17.51 17.51 0 0 0-4.47-8 10 10 0 0 0-7.84-3.1c-6.41 0-8.72 4.76-8.72 8.43a8.75 8.75 0 0 0 2.24 6.26c2.08 2.09 6.12 3.68 8.2 4.32 5 1.59 9 2.81 11.6 6 1.87 2.23 3.17 5 3.17 9.79 0 8.5-5.19 15.77-14.69 15.77a17.74 17.74 0 0 1-11.44-3.78zm33.87-29.6a.34.34 0 0 1 .36-.36c.43 0 4.46.22 6.48.22s3.38-.22 4.32-.22a1.23 1.23 0 0 1 1.22.8l10.37 23.54c.58-1.37 4.1-8.57 5.4-11.3 1.15-2.31 5.62-11.31 5.76-12.1.07-.5.43-.72 1.15-.72 7.56 0 9.08-.22 9.58-.22.29 0 .36.22.36.58v1.51a.46.46 0 0 1-.5.51h-1.73c-1 0-1.3.79-1.37 1.51s-.14 11.52-.14 12.53.14 10.44.14 11.09c0 1.37.43 2.52 1.58 2.52h2.38a.34.34 0 0 1 .36.36v1.73a.45.45 0 0 1-.5.5c-.58 0-4.61-.22-7.13-.22-1.8 0-6.27.22-6.77.22-.29 0-.43-.22-.43-.72V785a.38.38 0 0 1 .43-.43h2.3c1.44 0 1.95-.8 1.95-1.44.07-1.08.14-10.8.14-11.52v-14.17l-.14-.07c-.36.72-6.12 13-7.35 15.34-.93 1.8-5.9 12.17-6.12 12.6s-.57 1.08-1.15 1.08c-.43 0-.65-.36-.86-.79s-6.49-14.84-7-15.92c-1-2.16-4.54-10.51-5.47-12.24h-.15c-.14.72-.21 12.1-.21 12.6s-.07 10.3.07 11.17c.29 2.59 1.3 3.31 3.46 3.31h1.08c.28 0 .36.21.36.57v1.59a.39.39 0 0 1-.44.43c-.43 0-3.81-.22-6-.22-1.59 0-5.69.22-6.12.22s-.44-.15-.44-.72V785c0-.29.15-.43.36-.43h.94c2.09 0 3.24-.94 3.46-2 .64-3.24.79-15 .79-15.84 0-.65-.07-7.49-.07-8.14 0-1.08 0-1.65-3-1.65h-1.29a.34.34 0 0 1-.36-.36zm61.38 19.81l-2.88 7.7c-.43 1.44-.21 2.38 1.3 2.38h1.8c.43 0 .5.21.5.5v1.59c0 .28-.07.5-.43.5-.58 0-4.39-.22-5.54-.22-1.37 0-5 .22-5.62.22-.29 0-.29-.36-.29-.65V785c0-.29 0-.43.29-.43h1a3.84 3.84 0 0 0 2.95-1.52c.5-.57 4.18-9.21 5.9-12.81.51-1 4.76-10.8 5.19-12 .14-.43.57-1.22.07-1.44-.14-.14-.36-.5-.29-.72s.07-.36.72-.5a10.54 10.54 0 0 0 4-2.09.93.93 0 0 1 .87-.5c.43 0 .57.28.72.79 1 2.88 4.68 13.18 5.61 16.06a135.78 135.78 0 0 0 4.75 12.73 4.21 4.21 0 0 0 3.38 1.95h1.37c.29 0 .36.21.36.43v1.51c0 .22-.07.65-.51.65-.86 0-4.68-.22-6.33-.22-1.37 0-5.62.22-6.56.22-.5 0-.57-.36-.57-.65V785c0-.22.07-.43.36-.43h1.15a1.11 1.11 0 0 0 1.15-1.23c-.28-1.44-2.23-7.2-2.81-8.85zm10.87-2.31l-3.81-12.38c-.15-.44-.22-.72-.43-.72s-.36.21-.58.79-4.61 11.59-5 12.31zm24.34-5.76c0-3-.07-7.34-.14-7.85-.15-1.22-.37-1.65-3-1.65h-1.08c-.29 0-.36-.22-.36-.51v-1.73a.35.35 0 0 1 .36-.36c.51 0 4.18.22 6.84.22 2.38 0 6.56-.22 7.06-.22.29 0 .36.15.36.44v1.72a.42.42 0 0 1-.43.44h-1.08c-2.67 0-2.88.43-2.88 1.58 0 .58-.15 6.91-.15 10.15v4c0 .8 0 10.16.15 11.81.86 0 8.93.08 10.73-.14 1.15-.36 4.68-5.19 5.76-7 .21-.28.36-.43.65-.36l1.15.51c.14.07.14.36.07.72l-2.19 8.86c-1.23-.08-17.36-.15-19.44-.15-1.16 0-2.67.07-4 .07s-2.45.15-2.81.15-.43-.15-.43-.65V785c0-.36.22-.43.51-.43h2.23c1.3 0 1.94-.65 2-1.3 0-1.15.14-11.52.14-14.26zm33.91 0c0-3-.07-7.34-.14-7.85-.15-1.22-.36-1.65-3-1.65h-1.08c-.28 0-.36-.22-.36-.51v-1.73a.35.35 0 0 1 .36-.36c.51 0 4.18.22 6.84.22 2.38 0 6.56-.22 7.06-.22.29 0 .36.15.36.44v1.72a.42.42 0 0 1-.43.44h-1.08c-2.67 0-2.88.43-2.88 1.58 0 .58-.15 6.91-.15 10.15v4c0 .8 0 10.16.15 11.81.86 0 8.93.08 10.73-.14 1.15-.36 4.68-5.19 5.76-7 .21-.28.36-.43.65-.36l1.15.51c.14.07.14.36.07.72l-2.19 8.86c-1.23-.08-17.36-.15-19.44-.15-1.16 0-2.67.07-4 .07s-2.44.15-2.8.15-.44-.15-.44-.65V785c0-.36.22-.43.51-.43h2.23c1.3 0 1.94-.65 2-1.3 0-1.15.14-11.52.14-14.26zm54.29 14.98c-5.19-4.9-7.71-13.25-7.71-20.16a27.34 27.34 0 0 1 7.35-19.08 25.07 25.07 0 0 1 18-7.28 29.92 29.92 0 0 1 14.54 4c.94.58 1.3.51 1.44 0l.58-2.08c.14-.44.29-.44.94-.44s.79.15.79 1.15c0 1.37 1.44 12 1.8 14 .07.36 0 .65-.29.72l-1.08.29c-.36.07-.5 0-.72-.57a27.73 27.73 0 0 0-5.62-8.93 16.66 16.66 0 0 0-12.53-5.55c-12.88 0-18.07 11.45-18 22 0 4.18 1.3 12.32 6.92 18.51 4.89 5.47 9 6 13.82 6a22 22 0 0 0 17.79-9.15c.21-.36.36-.43.57-.21l.94.72c.21.14.36.29.14.65-4.32 6.2-11.3 12.06-21.46 12.06-8.49 0-13.89-2.69-18.21-6.65zm53.06-6.91l-2.88 7.7c-.43 1.44-.22 2.38 1.3 2.38h1.8c.43 0 .5.21.5.5v1.59c0 .28-.07.5-.43.5-.58 0-4.39-.22-5.55-.22-1.36 0-5 .22-5.61.22-.29 0-.29-.36-.29-.65V785c0-.29 0-.43.29-.43h1a3.84 3.84 0 0 0 2.95-1.52c.5-.57 4.17-9.21 5.9-12.81.51-1 4.75-10.8 5.19-12 .14-.43.57-1.22.07-1.44-.14-.14-.36-.5-.29-.72s.07-.36.72-.5a10.54 10.54 0 0 0 4-2.09.93.93 0 0 1 .87-.5c.43 0 .57.28.72.79 1 2.88 4.68 13.18 5.61 16.06a136.32 136.32 0 0 0 4.68 12.81 4.23 4.23 0 0 0 3.39 1.95h1.37c.28 0 .36.21.36.43v1.51c0 .22-.08.65-.51.65-.86 0-4.68-.22-6.33-.22-1.37 0-5.62.22-6.56.22-.5 0-.57-.36-.57-.65V785c0-.22.07-.43.36-.43h1.15a1.11 1.11 0 0 0 1.15-1.23c-.29-1.44-2.23-7.2-2.81-8.85zm10.87-2.31l-3.81-12.38c-.15-.44-.22-.72-.43-.72s-.36.21-.58.79-4.61 11.59-5 12.31zm24.34-6.55c0-3 0-6.41-.15-7.78-.07-.72-.57-.93-3.16-.93h-1a.38.38 0 0 1-.43-.44v-1.8c0-.21.14-.36.43-.36s5.4.22 6.91.22c.86 0 3.75-.22 5.26-.22 6.19 0 8.71.58 11.37 2.31a8.12 8.12 0 0 1 3.68 6.7c0 6.12-4.54 9.86-12.6 9.86a26.76 26.76 0 0 1-4.83-.29v1.87c0 2.16 0 7.71.07 8.36.07.93.72 1.44 2.16 1.44h2.09a.41.41 0 0 1 .43.43v1.73c0 .21-.14.43-.5.43-.58 0-4.75-.22-7.13-.22-1.8 0-6 .22-6.55.22-.29 0-.43-.22-.43-.65V785a.41.41 0 0 1 .43-.43H383c1.37 0 1.8-.22 1.87-1.44.07-.79.22-6.84.22-12.24zm5.47 5a10.56 10.56 0 0 0 3.75.43 7.74 7.74 0 0 0 6.69-3.82 7.09 7.09 0 0 0 .79-3.81c0-5.12-5.83-6.92-8.13-6.92a10.72 10.72 0 0 0-3.1.29zm33.91 1.48c0 .43 0 8.71.07 9.79.15 1.66 1 2.67 3.1 2.67h1.08c.36 0 .43.14.43.36v1.73c0 .28-.07.5-.43.5-.57 0-4.32-.22-7.56-.22-2.45 0-6.62.22-7.06.22-.28 0-.43-.22-.43-.58V785a.41.41 0 0 1 .43-.43h1.59c1.8 0 2.95-.07 3.09-1.37.08-.65.15-9.79.15-12.24v-3.17c0-1.15-.15-8.35-.15-9.36 0-.79-.64-1.51-3.67-1.51h-1.29c-.36 0-.44-.22-.44-.51v-1.65a.39.39 0 0 1 .44-.44c.43 0 4.89.29 8.28.22 2.08 0 5.76-.22 6.33-.22.29 0 .43.15.43.36v1.73c0 .29-.07.51-.43.51h-1.22c-1.95 0-2.59.28-2.67 1.8 0 .72-.07 9.29-.07 9.79zM449.71 757c-1.36 0-6.19-.07-8.85.65a16.52 16.52 0 0 0-4.25 5.54c-.15.29-.36.51-.65.36l-1.3-.5c-.36-.14-.36-.43-.28-.72.5-1.59 2.23-7.42 2.52-8.71.14-.51.36-.72.64-.72a1 1 0 0 1 .58.21l.58.43a4.35 4.35 0 0 0 2.8.8c2.53.14 5.26.28 9.44.28h2.88c2.88 0 7.2-.14 10.15-.28a4.87 4.87 0 0 0 2.59-.65l.87-.58a1.15 1.15 0 0 1 .57-.21c.29 0 .44.21.65 1.58.15 1 1.37 6.19 1.73 8.14.07.29-.07.43-.36.57l-1.22.36c-.44.15-.65.07-.8-.28a18.54 18.54 0 0 0-3.6-5.55c-1.8-.65-7.85-.72-9.14-.72v12.1c0 7.56 0 13 .07 13.53.14 1.16.5 1.88 1.66 1.88h2.73c.36 0 .51.21.51.65v1.51c0 .21-.15.43-.51.43s-5-.22-7.34-.22c-2 0-6.7.22-7.27.22s-.58-.22-.58-.65V785c0-.36.14-.5.43-.5h2.88c1.08 0 1.59-.58 1.66-1.15.21-2.74.21-6.56.21-10.88zm29.74 17.44l-2.88 7.7c-.43 1.44-.22 2.38 1.3 2.38h1.8c.43 0 .5.21.5.5v1.59c0 .28-.07.5-.43.5-.58 0-4.39-.22-5.55-.22-1.36 0-5 .22-5.61.22-.29 0-.29-.36-.29-.65V785c0-.29 0-.43.29-.43h1a3.84 3.84 0 0 0 3-1.52c.5-.57 4.17-9.21 5.9-12.81.51-1 4.75-10.8 5.19-12 .14-.43.57-1.22.07-1.44a.9.9 0 0 1-.29-.72c-.07-.14.07-.36.72-.5a10.61 10.61 0 0 0 4-2.09.92.92 0 0 1 .87-.5c.43 0 .57.28.72.79 1 2.88 4.68 13.18 5.61 16.06a136.32 136.32 0 0 0 4.63 12.73 4.23 4.23 0 0 0 3.39 1.95h1.37c.28 0 .36.21.36.43v1.51c0 .22-.08.65-.51.65-.86 0-4.68-.22-6.33-.22-1.37 0-5.62.22-6.56.22-.5 0-.57-.36-.57-.65V785c0-.22.07-.43.36-.43h1.15a1.11 1.11 0 0 0 1.15-1.23c-.29-1.44-2.23-7.2-2.81-8.85zm10.87-2.31l-3.81-12.38c-.15-.44-.22-.72-.44-.72s-.36.21-.57.79-4.61 11.59-5 12.31zm24.34-5.76c0-3-.08-7.34-.15-7.85-.14-1.22-.36-1.65-2.95-1.65h-1.08c-.29 0-.36-.22-.36-.51v-1.73a.34.34 0 0 1 .36-.36c.5 0 4.18.22 6.84.22 2.38 0 6.55-.22 7.06-.22.29 0 .36.15.36.44v1.72a.42.42 0 0 1-.43.44h-1.08c-2.67 0-2.88.43-2.88 1.58 0 .58-.15 6.91-.15 10.15v4c0 .8 0 10.16.15 11.81.86 0 8.92.08 10.72-.14 1.16-.36 4.68-5.19 5.76-7 .22-.28.36-.43.65-.36l1.16.51c.14.07.14.36.07.72l-2.23 8.86c-1.23-.08-17.36-.15-19.45-.15-1.15 0-2.66.07-4 .07s-2.45.15-2.81.15-.43-.15-.43-.65V785c0-.36.22-.43.5-.43h2.24c1.29 0 1.94-.65 2-1.3 0-1.15.15-11.52.15-14.26zm32.4 18.87c-.51-.36-.94-.44-1.08.14l-.22.58c-.14.36-.5.5-1.08.36-.43-.15-.65-.44-.58-.79.22-2 .72-7.78.8-8.93.07-.29.21-.51.5-.51l1.3.15c.28.07.57.21.57.5a9.09 9.09 0 0 0 1.3 4.9 6.79 6.79 0 0 0 6.12 3.6c2.3 0 5.76-1.8 5.76-4.9 0-4.1-2.81-5.9-6.63-7.34a22.61 22.61 0 0 1-7.05-3.75c-1.66-1.58-2.52-3.89-2.52-7.42a8.43 8.43 0 0 1 3.09-6 10.42 10.42 0 0 1 6.77-2.16 11.31 11.31 0 0 1 5.12.93c.72.43 1.08.51 1.22.15l.29-.51c.14-.21.36-.21.93-.21s.65.28.65.64c0 2.38.65 7.06.72 8.07a.39.39 0 0 1-.29.43l-1.29.29c-.22.07-.36-.07-.43-.29-.44-.86-1-3.38-2.52-5.11a6.06 6.06 0 0 0-4.76-1.95 4.74 4.74 0 0 0-5.11 4.4 5.93 5.93 0 0 0 1.15 3.53c1.08 1.36 3.67 2.44 5 3 3.32 1.22 6 2 7.78 3.89 1.44 1.51 2.3 3.31 2.3 6.91 0 5.4-3.45 10-10 10a12.37 12.37 0 0 1-7.81-2.6zm309.78-306.33c0-1.37.79-1.73 2.23-1.73 2.09 0 7.42 3.17 7.42 7 0 1.51-.29 2.16-.58 2.45a1 1 0 0 0-.43.72c0 .94 5.47 1.44 7.7 1.44a39.34 39.34 0 0 0 12.24-2.45c2.88-1.22 6.12-2.81 8.86-2.81 2.52 0 6.34 1.95 8.71 3.24s5.4 2.6 12.39 3.82a81.08 81.08 0 0 1 9.79 2.45 2.22 2.22 0 0 1 1.8 2.23 3.38 3.38 0 0 1-1.15 2.16c0 .07-.94.86-3.53.86-1.94 0-11.09-.79-12.53-.79-.5 0-1.37 0-1.37.51 0 .14.15.28.29.57a4.45 4.45 0 0 1 1.3 2.67c0 1.15-.36 1.29-3.6 2.23-.36.14-.65.29-.65.58s.79 1.87.79 2.23c0 1.51-1.51 2.88-3.81 2.88-.22 0-.94-.15-1.16-.15s-.36.15-.36.44c0 4.17-2.37 4.24-3.24 4.24-1.58 0-11.09-4.17-15.19-5.76a35.05 35.05 0 0 0-10.22-2.23c-1.95 0-6.92.51-6.92 1.23 0 .57.43 2.88.43 3.38 0 5.11-3.74 6.19-6.84 6.19-1.65 0-2.66 0-2.66-1.44 0-1.22.29-12.45.29-18.36zm1.08 33.91c0 1.37 0 2 1.87 2 3.38 0 4.75-2.16 4.75-5 0-1.66-.5-2.52-1.8-2.52a13.2 13.2 0 0 0-2 .36c-2.82.62-2.82 1.13-2.82 5.16zm.21-20.74c0 3.82.58 4.25 2.38 4.25 2.3 0 3.46-2.74 3.46-4.1 0-4.25-2.38-4.47-4.18-4.61-1.01-.07-1.66-.15-1.66 4.46zm0 8.86c0 1.73 0 3.6 1.3 3.6 2.38 0 5.83-.07 5.83-3.17 0-1.87-2.09-3.81-4.75-3.81a6.45 6.45 0 0 0-1.15.14c-1.23.21-1.23.5-1.23 3.24zm3.53-14.19c1.51 0 3.1 0 3.1-2.59 0-3.74-4.68-5.4-5.55-5.4s-1 2.95-1 4a5 5 0 0 0 .57 2.74 3.43 3.43 0 0 0 2.88 1.25zm10.73 11.81c.22 0 .29.08.29.15s-6.12 3.89-6.12 4.82c0 .15.14.22.36.22a4.52 4.52 0 0 0 1.8-.51c2.09-1.58 6.48-4.75 8.64-4.75.22 0 .36.07.36.15 0 .28-6.05 3.52-6.05 4.24 0 .08.07.08.15.08.43 0 10.29-2.38 11.73-2.38.36 0 .65.14.65.29 0 .57-7.2 1.8-7.2 2.73 0 .36 6.48 1.8 6.62 1.8.36 0 1.8-.28 2.16-.28s2.52.21 3 .21c.29 0 .94 0 .94.36 0 .15-2.38.51-2.38.94s8.35 4.17 9.79 4.17a1.32 1.32 0 0 0 1.51-1.36c0-.72-1.44-1.44-1.44-2.67a1 1 0 0 1 1.08-1.08c.65 0 3.46 1.44 4.18 1.44.5 0 1.51-.43 1.51-1.29a3.63 3.63 0 0 0-.65-1.88c-.57-.79-2.37-1.72-2.37-2.73 0-.65.72-.87 1.51-.87.5 0 3.17 1 3.82 1 .93 0 1.29-1.08 1.29-1.58a3.71 3.71 0 0 0-1-2.09c-.43-.51-1.22-1.3-1.22-1.73 0-.22.14-.36.65-.36s8.64 1.15 10.3 1.15c2.23 0 2.23-.07 2.23-.72 0-3.53-1.3-3.81-3.89-4.32-13-2.59-20.59-4.1-21.46-4.1a53.51 53.51 0 0 0-9 1.15c-6 1.22-6.62 1.37-10.66 1.37-2.3 0-5.4-.15-7.34-.94a3.11 3.11 0 0 0-1.15-.29c-.15 0-.29.08-.29.22 0 .36.72 2.23.72 2.66a4.6 4.6 0 0 1-1.44 3.82.63.63 0 0 0-.22.5c0 .65 2.52 3.24 2.67 4 .07.5.14.72.28.72s3.75-2.16 4.54-2.16zm23.91-12.09c.43.07 2.59.64 3 .64s.43-.14.43-.28a9.68 9.68 0 0 0-5.76-1.88c-1.58 0-3.38.72-3.38 1.37 0 .07.07.15.36.15a5 5 0 0 0 1.08-.22 12.08 12.08 0 0 1 1.65-.14zm25.92 10.36c1.3 0 2.59-.64 2.59-2 0-.87-3.6-1.51-4-1.51s-1.08.14-1.08.72a4.43 4.43 0 0 0 .65 1.94 1.84 1.84 0 0 0 1.84.85zm38.08 5.77a9.64 9.64 0 0 0 5.62-2.45c.58-.58 1.73-1.66 4.61-1.66.93 0 2.16 1.87 2.16 3.39a1.44 1.44 0 0 1-.51 1.15c-1.15 1.15-8.92 5-9.21 6.69-.51 3.6-4.76 6-7.78 6-2.23 0-3-1.15-3-2.09a5.07 5.07 0 0 1 3.09-4.82 1.92 1.92 0 0 0 1.37-1.73c0-1.08-.72-1.08-2.16-1.08-5.76 0-9.22-2.81-9.22-9.22 0-9.21 6.92-9.21 10.08-9.21.87 0 1.3-.51 1.3-1.08a2.07 2.07 0 0 0-1.37-1.8 4.9 4.9 0 0 1-3.09-4.76c0-.93.79-2.08 3-2.08 3 0 7.27 2.37 7.78 5.9.21 1.22.93 1.51 1.87 2.23 2.23 1.66 5.11 2.45 7.34 4.47a1.47 1.47 0 0 1 .51 1.22c0 1.51-1.3 3.38-2.23 3.38a6 6 0 0 1-4.54-1.65 9.64 9.64 0 0 0-5.62-2.45c-2.52 0-7.13 1.87-7.13 5.83s4.61 5.82 7.13 5.82zm25.78 14.25a9.61 9.61 0 0 0-2.45-5.61c-.57-.58-1.65-1.73-1.65-4.61 0-.94 1.87-2.16 3.38-2.16a1.42 1.42 0 0 1 1.15.5c1.16 1.15 5 8.93 6.77 9.22 3.53.5 5.91 4.75 5.91 7.77 0 2.24-1.16 3-2.09 3a5.09 5.09 0 0 1-4.83-3.1 1.92 1.92 0 0 0-1.72-1.36c-1.08 0-1.08.72-1.08 2.16 0 5.76-2.81 9.21-9.22 9.21-9.25.03-9.25-6.87-9.25-10.05 0-.86-.5-1.29-1.08-1.29a2.08 2.08 0 0 0-1.8 1.36 4.88 4.88 0 0 1-4.75 3.1c-.94 0-2.09-.79-2.09-3 0-3 2.38-7.27 5.91-7.77 1.22-.22 1.51-.94 2.23-1.87 1.65-2.24 2.45-5.12 4.46-7.35a1.49 1.49 0 0 1 1.23-.5c1.51 0 3.38 1.29 3.38 2.23a6 6 0 0 1-1.66 4.54 9.66 9.66 0 0 0-2.44 5.61c0 2.52 1.87 7.13 5.83 7.13s5.86-4.64 5.86-7.16zm-11.52-40a9.61 9.61 0 0 0 2.45 5.61c.57.58 1.66 1.73 1.66 4.61 0 .94-1.88 2.16-3.39 2.16a1.43 1.43 0 0 1-1.15-.5c-1.15-1.15-5-8.93-6.7-9.22-3.6-.5-6-4.75-6-7.78 0-2.23 1.15-3 2.08-3a5.09 5.09 0 0 1 4.83 3.1 1.92 1.92 0 0 0 1.73 1.36c1.08 0 1.08-.72 1.08-2.16 0-5.76 2.8-9.21 9.21-9.21 9.22 0 9.22 6.91 9.22 10.08 0 .86.5 1.29 1.08 1.29a2.08 2.08 0 0 0 1.8-1.36 4.89 4.89 0 0 1 4.75-3.1c.94 0 2.09.79 2.09 3 0 3-2.38 7.28-5.9 7.78-1.23.22-1.52.94-2.24 1.87-1.65 2.24-2.44 5.12-4.46 7.35a1.48 1.48 0 0 1-1.22.5c-1.52 0-3.39-1.29-3.39-2.23a6 6 0 0 1 1.66-4.54 9.61 9.61 0 0 0 2.45-5.61c0-2.52-1.88-7.13-5.84-7.13s-5.8 4.58-5.8 7.1zm.65 20a5.11 5.11 0 1 1 5.11 5.11 5.13 5.13 0 0 1-5.11-5.12zm25.13-5.77a9.64 9.64 0 0 0-5.62 2.45c-.57.58-1.73 1.66-4.61 1.66-.93 0-2.16-1.87-2.16-3.39a1.44 1.44 0 0 1 .51-1.15c1.15-1.15 8.93-5 9.21-6.77.51-3.52 4.76-5.9 7.78-5.9 2.23 0 3 1.15 3 2.09a5.08 5.08 0 0 1-3.1 4.82 1.92 1.92 0 0 0-1.37 1.73c0 1.08.72 1.08 2.16 1.08 5.76 0 9.22 2.81 9.22 9.22 0 9.21-6.91 9.21-10.08 9.21-.87 0-1.3.51-1.3 1.08a2.07 2.07 0 0 0 1.37 1.8 4.91 4.91 0 0 1 3.1 4.76c0 .93-.8 2.08-3 2.08-3 0-7.27-2.37-7.78-5.9-.21-1.22-.93-1.51-1.87-2.23-2.23-1.66-5.11-2.45-7.34-4.47A1.47 1.47 0 0 1 988 502c0-1.51 1.3-3.39 2.24-3.39a6.06 6.06 0 0 1 4.53 1.66 9.64 9.64 0 0 0 5.62 2.45c2.52 0 7.13-1.87 7.13-5.83s-4.66-5.82-7.18-5.82zm33.54 10.92c0-1.08 2.53-1.15 3-1.15 2.66 0 5.47 2.23 5.47 6.19 0 .29-.14 1.51-.14 1.8 0 .58.29.94.72.94s1.29-.58 2.16-1.88c1.87-2.88 14.47-14.61 14.47-16.34 0-.22-.14-.29-.36-.29a3.87 3.87 0 0 0-1.44.65c-3.17 2.16-7.92 3.24-11.81 3.24-7.2 0-12.17-5-12.17-8 0-1.59.65-1.59.87-1.59.72 0 1.65.94 2.44.94a.67.67 0 0 0 .51-.72 2.1 2.1 0 0 0-.94-1.59 9.26 9.26 0 0 1-2.73-6.48c0-.57.07-4.39 1.51-4.39.65 0 2.45 3 3 3 .29 0 .58-.22.94-.65 2.59-3.53 4-4.76 9.65-4.76 3.89 0 9.94 3.1 9.79 8.43 0 3.38-3.17 5.76-6 5.76-3.6 0-5.33-2.23-5.33-4.75s1.73-4 3-4c.14 0 1 .28 1.15.28a1 1 0 0 0 .94-1.08c0-.86-.72-2.66-4.47-2.66-5 0-7.27 3.53-7.27 7.92 0 2.88 2.16 10.08 11 10.08 10.73 0 15.12-12.24 15.19-18.94.07-.65.86-1 1.66-1s1.51.36 1.51 1c0 13.11 9 19.52 16.49 19.52 8.13 0 10.94-7.35 10.94-10.3 0-6.77-6.41-8.28-8.42-8.28-1.59 0-3.46 1-3.46 2.09a.89.89 0 0 0 .94.86 3.48 3.48 0 0 1 3.67 3.82 4.76 4.76 0 0 1-4.9 4.68 5.17 5.17 0 0 1-5.25-5.33c0-5.33 5.25-8.07 8.78-8.07 5.33 0 9.58 3.53 10.37 6.2.14.5.43.72.72.72.65 0 2.52-3 3.17-3 1.22 0 1.22 3.61 1.22 3.75 0 3.38-2.73 6.19-3.09 6.55-.72.72-1 1.15-1 1.51s.5.44.72.44c.43 0 2.37-.8 2.74-.8s.57.29.57.87c0 5.69-6.7 8.85-12.82 8.85a21 21 0 0 1-11.52-3.38 4.3 4.3 0 0 0-1.73-.65c-.43 0-.57.22-.57.58 0 1.58 13.9 14.76 15.34 14.76a.78.78 0 0 0 .86-.79c0-.15-.22-.94-.22-1.08 0-1.23 1.23-3.82 6.2-3.82 4.17 0 4.53 1.44 4.53 4.32 0 3.17 0 4-1.65 4-.29 0-1.44-.5-1.66-.5s-.5.29-.5.65c0 .93.29 1.22 3.17 3.6.5.43.64 1.8.64 3.38 0 4.9 0 5.47-1.29 5.47l-3.46.08c-.94 0-1.73-.36-1.73-1.37 0-1.66 0-4.18-2.66-4.18a1 1 0 0 0-1.08 1.08c0 .43-.22 4.39-2 4.39h-7.63a1 1 0 0 1-.94-1c0-.87 2.6-4 2.74-4.69.58-3.24 1.22-4.6 3.6-5.68a1.34 1.34 0 0 0 .86-1.08c0-.94-11-11.88-11.81-12.53a1.12 1.12 0 0 0-.72-.29c-.28 0-.43.14-.43.36s3.82 6.41 4.39 7.7c.73 1.8 2 5 2 7.06 0 4.54-3 6.34-3.17 6.34-.43 0-1.08-2.24-1.51-2.24-.22 0-.5.29-.72 1.23-.5 2.52-1.87 4.82-4 4.82a4.77 4.77 0 0 1-4.32-4.53c0-2.52 1.73-4.4 3.46-5.62 1.87-1.44 2.88-4.61 2.88-7.85 0-2.45-.36-3.17-3.1-10.08-.72-1.73-4.25-10.37-5.47-10.37s-8.64 15.12-8.64 21c0 2.95 1.29 6.91 4.61 8.56 2.52 1.3 3.74 2.74 3.74 5.19 0 3.17-1.51 3.67-2.74 3.67a3.55 3.55 0 0 1-3.6-2.3c-.21-1-.5-1.37-.79-1.37a1 1 0 0 0-.79.57c-.5.58-.07 1.81-.5 2.45-.22.36-.44.58-.65.58-.87 0-5.12-5.69-5.12-10.59a16.35 16.35 0 0 1 .51-3.81c.36-1.8 4.39-9.65 4.39-10.59 0-.29-.07-.5-.29-.5-.72 0-11.66 12.46-11.66 13.61 0 .72.93 1.29 1.65 1.51 4 1.08 4.25 5.26 4.25 9.72 0 .72-.36.87-1.29.87-6.27 0-7 0-7-1.59a5.13 5.13 0 0 1 .36-1.66c.36-.86 1.44-1.51 1.44-1.94 0-.22-.29-.58-1.15-.58a4.53 4.53 0 0 0-4.32 4.54c0 1.15-.5 1.15-5 1.15-2.23 0-2.23-.5-2.23-4.68 0-1.8.14-3.74.65-4.17 1.22-1.23 3.45-1.23 4.1-3.17a3.21 3.21 0 0 0 .29-1.23c0-.43-.22-.64-.5-.64s-1.8.43-2.17.43c-1.08 0-2.16-.36-2.16-1.23 0-.36.15-2.52.15-3zm159.06-5.31c0 5.91.29 17.14.29 18.36 0 1.44-1 1.44-2.67 1.44-3.09 0-6.84-1.08-6.84-6.19 0-.5.43-2.81.43-3.38 0-.72-5-1.23-6.91-1.23a35.05 35.05 0 0 0-10.22 2.23c-4.11 1.59-13.61 5.76-15.2 5.76-.86 0-3.24-.07-3.24-4.24 0-.29-.14-.44-.36-.44s-.93.15-1.15.15c-2.3 0-3.82-1.37-3.82-2.88 0-.36.8-1.87.8-2.23s-.29-.44-.65-.58c-3.24-.94-3.6-1.08-3.6-2.23a4.5 4.5 0 0 1 1.29-2.67c.15-.29.29-.43.29-.57 0-.51-.86-.51-1.37-.51-1.44 0-10.58.79-12.52.79-2.6 0-3.53-.79-3.53-.86a3.4 3.4 0 0 1-1.16-2.16 2.23 2.23 0 0 1 1.8-2.23 81.43 81.43 0 0 1 9.8-2.45c7-1.22 9.93-2.45 12.38-3.82s6.2-3.24 8.72-3.24c2.73 0 6 1.59 8.85 2.81a39.4 39.4 0 0 0 12.24 2.45c2.24 0 7.71-.5 7.71-1.44a1 1 0 0 0-.43-.72c-.29-.29-.58-.94-.58-2.45 0-3.81 5.33-7 7.42-7 1.44 0 2.23.36 2.23 1.73zM1130 494c0-.58-.64-.72-1.08-.72s-4 .64-4 1.51c0 1.37 1.3 2 2.6 2a1.85 1.85 0 0 0 1.8-.86 4.42 4.42 0 0 0 .68-1.93zm48.47 4.61c.79 0 4.32 2.16 4.53 2.16s.22-.22.29-.72c.14-.73 2.66-3.32 2.66-4a.66.66 0 0 0-.21-.5 4.57 4.57 0 0 1-1.44-3.82c0-.43.72-2.3.72-2.66 0-.14-.15-.22-.29-.22a3 3 0 0 0-1.15.29 22.21 22.21 0 0 1-7.35.94c-4 0-4.68-.15-10.65-1.37a53.51 53.51 0 0 0-9-1.15c-.87 0-8.5 1.51-21.46 4.1-2.59.51-3.89.79-3.89 4.32 0 .65 0 .72 2.23.72 1.66 0 9.94-1.15 10.3-1.15s.65.14.65.36c0 .43-.8 1.22-1.23 1.73a3.78 3.78 0 0 0-1 2.09c0 .5.36 1.58 1.3 1.58.65 0 3.31-1 3.82-1 .79 0 1.51.22 1.51.87 0 1-1.8 1.94-2.38 2.73a3.63 3.63 0 0 0-.65 1.88c0 .86 1 1.29 1.52 1.29.72 0 3.53-1.44 4.17-1.44a1 1 0 0 1 1.08 1.08c0 1.23-1.44 2-1.44 2.67a1.33 1.33 0 0 0 1.52 1.36c1.44 0 9.79-3.88 9.79-4.17s-2.38-.79-2.38-.94c0-.36.65-.36.94-.36.5 0 2.59-.21 3-.21s1.8.28 2.16.28c.15 0 6.63-1.44 6.63-1.8 0-.93-7.2-2.16-7.2-2.73 0-.15.28-.29.64-.29 1.45 0 11.31 2.38 11.74 2.38.07 0 .15 0 .15-.08 0-.72-6-4-6-4.24 0-.08.14-.15.36-.15 2.16 0 6.55 3.17 8.64 4.75a4.52 4.52 0 0 0 1.8.51c.21 0 .36-.07.36-.22 0-.93-6.12-4.82-6.12-4.82s.07-.15.29-.15zm-22.33-12.53a12.1 12.1 0 0 1 1.66.14 5.8 5.8 0 0 0 1.08.22c.29 0 .36-.08.36-.15 0-.65-1.8-1.37-3.38-1.37a9.72 9.72 0 0 0-5.77 1.88c0 .14.15.28.44.28s2.52-.57 3-.64zm33.13 11.45c-2.67 0-4.76 1.94-4.76 3.81 0 3.1 3.46 3.17 5.84 3.17 1.29 0 1.29-1.87 1.29-3.6 0-2.74 0-3-1.22-3.24a6.45 6.45 0 0 0-1.15-.11zm2.3-14.84c0-1 0-4-1-4-.86 0-5.54 1.66-5.54 5.4 0 2.59 1.58 2.59 3.09 2.59a3.41 3.41 0 0 0 2.88-1.29 4.9 4.9 0 0 0 .57-2.67zm-4.57 24.59c-1.29 0-1.8.86-1.8 2.52 0 2.88 1.37 5 4.76 5 1.87 0 1.87-.65 1.87-2 0-4 0-4.54-2.81-5.18a13.57 13.57 0 0 0-2.02-.34zm-1.22-15c0 1.36 1.15 4.1 3.46 4.1 1.8 0 2.37-.43 2.37-4.25 0-4.61-.65-4.53-1.65-4.46-1.77.09-4.15.33-4.15 4.56z" class="a20acbf0-42c5-4667-9ac2-8fb69e9cb227" transform="translate(0 -2.78)"/><path d="M871 414.18c-8.3 0-12.58-6.72-12.58-17.13 0-10.23 4.28-17.29 12.58-17.29s12.58 6.82 12.58 17.24c-.05 10.22-4.32 17.18-12.58 17.18zm0-30.05c-4.9 0-6.86 4.32-6.86 12.92s2.11 12.81 6.86 12.81 6.87-4.32 6.87-12.86-2.02-12.87-6.87-12.87zm40.42 4.08l-.92 9.36h-3.84v-5.18c-3.6.1-6.19 3-7.68 7.92v9.41h5.09v3.84h-14.21v-3.84h3.75v-17.67h-3.75v-3.84h7.83l1 5.86c1.92-4.22 4.56-6.48 8.93-6.48a11.66 11.66 0 0 1 3.8.62zm7 0h4.66l.38 3.32a10.58 10.58 0 0 1 8.21-4c4.7 0 7.06 2.79 7.06 7.54v18.48h-5.38v-15.78c0-4.42-.53-6.1-3.6-6.1-2.5 0-4.61 1.78-6 3.7v18.19h-5.38zm50.11 22.33l-1.24 3.64c-2.45-.28-4.32-1.29-5.24-3.5a10.06 10.06 0 0 1-8.06 3.5c-5.19 0-8.35-3.16-8.35-7.87 0-5.28 4.32-8.3 12.05-8.3h3.6v-1.64c0-3.31-2.07-4.6-5.62-4.6a21.21 21.21 0 0 0-6.72 1.29l-1.35-3.79a25.67 25.67 0 0 1 8.89-1.73c6.81 0 10.12 3.17 10.12 8.5v11.33c0 1.96.58 2.73 1.92 3.17zm-7.24-3.54v-5.61h-3c-5 0-7 1.77-7 4.75 0 2.69 1.44 4.13 4.27 4.13a6.79 6.79 0 0 0 5.73-3.27zm37.24-12.26v18.82h-4.75v-18.1c0-2.64-.19-3.74-1.68-3.74-1.25 0-2.49.72-3.74 2.54v19.3H984v-18.1c0-2.64-.19-3.74-1.68-3.74-1.3 0-2.5.72-3.75 2.54v19.3h-4.8v-25.35h4l.38 2.74c1.44-2 3-3.41 5.43-3.41a4.15 4.15 0 0 1 4.32 3.22c1.44-1.92 3.12-3.22 5.56-3.22 2.91 0 5.07 1.58 5.07 7.2zM1016.2 410a11.56 11.56 0 0 0 6.67-2.21l2.3 3.26a14.7 14.7 0 0 1-9.21 3.12c-7.92 0-12.24-5.37-12.24-13.29 0-7.59 4.36-13.35 11.57-13.35 6.72 0 10.94 4.8 10.94 12.67a18.36 18.36 0 0 1-.14 2.4h-16.81c.34 5.2 3.27 7.4 6.92 7.4zm-7-11h11.8c-.1-4.8-2.07-7.44-5.67-7.44-3.33-.03-5.76 2.32-6.09 7.44zm24.42-10.79h4.66l.38 3.32a10.58 10.58 0 0 1 8.21-4c4.7 0 7.06 2.79 7.06 7.54v18.48h-5.38v-15.78c0-4.42-.53-6.1-3.6-6.1-2.5 0-4.61 1.78-6 3.7v18.19h-5.38zm42.58 25.97c-5.91 0-9-3.31-9-8.3v-13.73h-5.62v-3.94h5.62v-5.66l5.38-.63v6.29h8.59l-.62 3.94h-8v13.68c0 2.74 1.29 4 4.41 4a9.63 9.63 0 0 0 4.71-1.2l1.92 3.56a14.07 14.07 0 0 1-7.39 1.99zm29.71-7.48c0-2.07-.82-3-6.05-4.37-5-1.3-8.35-3.08-8.35-7.49s3.88-7.3 10.13-7.3a15.77 15.77 0 0 1 9.64 2.93l-2.3 3.41a12.55 12.55 0 0 0-7.2-2.26c-3.46 0-4.8 1.11-4.8 2.79 0 1.92 1.39 2.64 6.43 4s8.21 3.07 8.21 7.87c0 5.52-5.38 7.87-11.18 7.87a15.45 15.45 0 0 1-10.42-3.55l2.83-3.26a12.19 12.19 0 0 0 7.59 2.73c3.36.03 5.47-1.26 5.47-3.37zM83 414.18c-8.3 0-12.58-6.72-12.58-17.13 0-10.23 4.28-17.29 12.58-17.29s12.53 6.82 12.53 17.24c0 10.22-4.27 17.18-12.53 17.18zm0-30.05c-4.9 0-6.86 4.32-6.86 12.92s2.06 12.81 6.86 12.81 6.87-4.32 6.87-12.86-2.02-12.87-6.87-12.87zm29.76 22.52c0 2.35 1.58 3.21 3.84 3.21a10.4 10.4 0 0 0 4-.86l1.35 3.74a13.67 13.67 0 0 1-6.53 1.44c-5.09 0-8.07-3-8.07-8V382h-7.6v-4h13zM150.68 378v35.52h-4.75l-.39-3.12a8.39 8.39 0 0 1-7.1 3.74c-6.53 0-9.56-5.32-9.56-13.29 0-7.73 3.8-13.35 10-13.35a8.15 8.15 0 0 1 6.38 2.79v-12.88zm-16.08 22.89c0 6.48 1.92 9.21 5.28 9.21 2.4 0 4.17-1.63 5.42-3.64v-12a6 6 0 0 0-5-2.83c-3.59.04-5.7 2.92-5.7 9.26zm68.11 5.81c0-2.07-.82-3-6.05-4.37-5-1.3-8.35-3.08-8.35-7.49s3.89-7.3 10.13-7.3a15.82 15.82 0 0 1 9.65 2.93l-2.31 3.41a12.55 12.55 0 0 0-7.2-2.26c-3.46 0-4.8 1.11-4.8 2.79 0 1.92 1.39 2.64 6.43 4s8.21 3.07 8.21 7.87c0 5.52-5.37 7.87-11.18 7.87a15.45 15.45 0 0 1-10.42-3.55l2.83-3.26a12.19 12.19 0 0 0 7.59 2.73c3.36.03 5.47-1.26 5.47-3.37zm27.89 7.48c-5.91 0-9-3.31-9-8.3v-13.73H216v-3.94h5.61v-5.66l5.38-.63v6.29h8.59l-.62 3.94h-8v13.68c0 2.74 1.3 4 4.42 4a9.62 9.62 0 0 0 4.7-1.2l1.92 3.56a14.07 14.07 0 0 1-7.4 1.99zm28.46-.52c-1.92 5.76-5.33 9.64-12.43 10.27l-.67-4c5.13-.82 6.76-2.69 8.11-6.34h-1.83l-8.54-25.35h5.71l6.39 21.61 6.48-21.61h5.52zm26.5-7.01c0 2.35 1.58 3.21 3.84 3.21a10.44 10.44 0 0 0 4-.86l1.34 3.74a13.64 13.64 0 0 1-6.53 1.44c-5.08 0-8.06-3-8.06-8V382h-7.63v-4h13zM314.6 410a11.58 11.58 0 0 0 6.67-2.21l2.3 3.26a14.7 14.7 0 0 1-9.21 3.12c-7.93 0-12.25-5.37-12.25-13.29 0-7.59 4.37-13.35 11.57-13.35 6.72 0 10.95 4.8 10.95 12.67a16.63 16.63 0 0 1-.15 2.4h-16.8c.32 5.2 3.32 7.4 6.92 7.4zm-7-11h11.8c-.1-4.8-2.07-7.44-5.67-7.44-3.36-.03-5.73 2.32-6.1 7.44zm76.21-20.1l-1.63 3.74a13.83 13.83 0 0 0-5.43-1.05c-3.31 0-4.89 1.25-4.89 3.94V390h8.5l-.63 4h-7.87v19.54h-5.38V394h-5.76v-4h5.76v-4.56c0-4.8 3.89-8.07 9.75-8.07a18.38 18.38 0 0 1 7.58 1.53zm19.63 30.72h6.91v3.94h-19.82v-3.94h7.54v-17.47h-7.3v-3.94h12.67zm-.19-30.43a3.51 3.51 0 1 1-3.5-3.41 3.36 3.36 0 0 1 3.5 3.41zm37.92 10.27a23.35 23.35 0 0 1-7.34.82c3 1.39 4.6 3.41 4.6 6.48 0 4.94-3.79 8.54-10 8.54a10.28 10.28 0 0 1-3.45-.43 2.65 2.65 0 0 0-1.11 2.11c0 1 .58 1.92 3.12 1.92h4.42c5.42 0 9.26 3 9.26 7.06 0 5-4.46 8-12.67 8-8.74 0-11.28-2.74-11.28-7.87h4.8c0 2.68 1.2 3.93 6.53 3.93s7.2-1.34 7.2-3.69c0-2.07-1.92-3.22-4.9-3.22H426c-4.8 0-6.91-2.26-6.91-4.9a5.57 5.57 0 0 1 2.79-4.56 7.26 7.26 0 0 1-4.33-7.1c0-5.33 4.33-9 10.57-9s8.68-1.05 11.71-2.54zM423 396.52c0 3.17 1.73 5.28 5.18 5.28 3.22 0 4.9-1.92 4.9-5.38s-1.63-5.13-4.95-5.13-5.13 2.11-5.13 5.23zm29.59 9.41c0 3 1.2 4.17 3.6 4.17a7.43 7.43 0 0 0 5.91-3.55v-18.34h5.37v25.35h-4.65l-.34-3.27a10 10 0 0 1-8 3.89c-4.94 0-7.29-2.83-7.29-7.58v-18.39h5.37zm45.22-17.72l-.91 9.36h-3.84v-5.18c-3.6.1-6.19 3-7.68 7.92v9.41h5.09v3.84h-14.21v-3.84H480v-17.67h-3.74v-3.84h7.82l1 5.86c1.92-4.22 4.56-6.48 8.93-6.48a11.57 11.57 0 0 1 3.8.62zM516.19 410a11.59 11.59 0 0 0 6.68-2.21l2.3 3.26a14.72 14.72 0 0 1-9.22 3.12c-7.92 0-12.24-5.37-12.24-13.29 0-7.59 4.37-13.35 11.57-13.35 6.72 0 11 4.8 11 12.67a16.63 16.63 0 0 1-.15 2.4h-16.8c.29 5.2 3.21 7.4 6.86 7.4zm-7-11H521c-.09-4.8-2.06-7.44-5.66-7.44-3.34-.03-5.77 2.32-6.11 7.44zm39.11 7.7c0-2.07-.81-3-6-4.37-5-1.3-8.36-3.08-8.36-7.49s3.89-7.3 10.13-7.3a15.8 15.8 0 0 1 9.65 2.93l-2.3 3.41a12.58 12.58 0 0 0-7.2-2.26c-3.46 0-4.8 1.11-4.8 2.79 0 1.92 1.39 2.64 6.43 4s8.21 3.07 8.21 7.87c0 5.52-5.38 7.87-11.19 7.87a15.44 15.44 0 0 1-10.41-3.55l2.83-3.26a12.18 12.18 0 0 0 7.58 2.73c3.32.03 5.43-1.26 5.43-3.37zM33.31 7.44h5.52V35.9h14.88l-.62 4.66H33.31zm41.14 29.18h6.91v3.94H61.53v-3.94h7.54V19.15h-7.3v-3.94h12.68zm-.2-30.43a3.5 3.5 0 0 1-7 0 3.5 3.5 0 0 1 7 0zm37.92 10.27a23.27 23.27 0 0 1-7.34.82c3 1.39 4.61 3.41 4.61 6.48 0 4.94-3.79 8.54-10 8.54a10.38 10.38 0 0 1-3.44-.43A2.67 2.67 0 0 0 94.85 34c0 1 .57 1.92 3.12 1.92h4.41c5.43 0 9.27 3 9.27 7.06 0 5-4.47 8-12.68 8-8.73 0-11.28-2.74-11.28-7.87h4.8c0 2.68 1.2 3.93 6.53 3.93s7.2-1.34 7.2-3.69c0-2.07-1.92-3.22-4.89-3.22H97c-4.8 0-6.92-2.26-6.92-4.9a5.57 5.57 0 0 1 2.79-4.56 7.25 7.25 0 0 1-4.32-7.1c0-5.33 4.32-9 10.56-9s8.69-1 11.71-2.54zM94 23.52c0 3.17 1.73 5.28 5.19 5.28 3.21 0 4.89-1.92 4.89-5.38s-1.63-5.13-4.94-5.13c-3.48 0-5.14 2.11-5.14 5.23zm45.53 14.02l-1.24 3.64c-2.45-.28-4.32-1.29-5.24-3.5a10.06 10.06 0 0 1-8.06 3.5c-5.19 0-8.35-3.16-8.35-7.87 0-5.28 4.32-8.3 12-8.3h3.6v-1.64c0-3.31-2.07-4.6-5.62-4.6a21.21 21.21 0 0 0-6.62 1.29l-1.35-3.79a25.67 25.67 0 0 1 8.89-1.73c6.81 0 10.12 3.17 10.12 8.5v11.33c-.05 1.96.53 2.73 1.87 3.17zM132.29 34v-5.63h-3c-5 0-7 1.77-7 4.75 0 2.69 1.44 4.13 4.27 4.13a6.79 6.79 0 0 0 5.73-3.25zm28.51 7.18c-5.91 0-9-3.31-9-8.3V19.15h-5.61v-3.94h5.61V9.55l5.38-.63v6.29h8.59l-.62 3.94h-8v13.68c0 2.74 1.3 4 4.42 4a9.62 9.62 0 0 0 4.7-1.2l1.92 3.56a14.07 14.07 0 0 1-7.39 1.99zm20.4-8.25c0 3 1.2 4.17 3.6 4.17a7.43 7.43 0 0 0 5.9-3.55V15.21h5.38v25.35h-4.66l-.33-3.27a10 10 0 0 1-8 3.89c-5 0-7.3-2.83-7.3-7.58V15.21h5.38zm45.21-17.72l-.91 9.36h-3.84v-5.18c-3.6.1-6.19 3-7.68 7.92v9.41h5.09v3.84h-14.21v-3.84h3.74V19.05h-3.74v-3.84h7.82l1 5.86c1.93-4.22 4.57-6.48 8.93-6.48a11.57 11.57 0 0 1 3.8.62zM244.8 37a11.58 11.58 0 0 0 6.67-2.21l2.3 3.26a14.7 14.7 0 0 1-9.21 3.12c-7.93 0-12.25-5.37-12.25-13.29 0-7.59 4.37-13.35 11.57-13.35 6.72 0 11 4.8 11 12.67a16.63 16.63 0 0 1-.15 2.4h-16.8c.29 5.2 3.22 7.4 6.87 7.4zm-7-11h11.8c-.1-4.8-2.07-7.44-5.67-7.44-3.36-.03-5.76 2.32-6.1 7.44zm39.11 7.7c0-2.07-.82-3-6.05-4.37-5-1.3-8.35-3.08-8.35-7.49s3.88-7.3 10.13-7.3a15.77 15.77 0 0 1 9.64 2.93L280 20.88a12.55 12.55 0 0 0-7.2-2.26c-3.46 0-4.8 1.11-4.8 2.79 0 1.92 1.39 2.64 6.43 4s8.21 3.07 8.21 7.87c0 5.52-5.38 7.87-11.18 7.87A15.45 15.45 0 0 1 261 37.63l2.83-3.26a12.19 12.19 0 0 0 7.59 2.73c3.38 0 5.49-1.29 5.49-3.4z" class="f7f3b60a-f6a4-4a2c-b10f-8bd52d3daba3" transform="translate(0 -2.78)"/><path d="M37.12 72.58a7.33 7.33 0 0 0 .43 2.52c.5 1.51 2.59 2.38 4.82 2.38a31.28 31.28 0 0 0 7.13-1.23A29.54 29.54 0 0 1 57 75c7 0 10.58 6.77 11 12.67.14 1.51.14 2.74.14 3.39 0 .86-.36 1.22-1 1.22s-1.29-.22-1.29-.86 0-1.52-.08-2.31c-.64-4.82-3.45-8.5-8.35-8.5a44.87 44.87 0 0 0-7.2.58 47 47 0 0 1-6.12.58 7.93 7.93 0 0 1-5.54-2c-1.59-1.37-2.09-2.38-2.81-2.38s-1.23 1-3.1 2.52a8.23 8.23 0 0 1-5.47 1.88 55.32 55.32 0 0 1-6.05-.58 47.33 47.33 0 0 0-7.06-.58c-6.84 0-8.78 5.33-9.57 8.57a10.79 10.79 0 0 0-.29 2.6c0 .43-.51.5-1.3.5s-1-.14-1-.5 0-1.44.08-2.38c.21-5 2.59-14.4 11.59-14.4a28.86 28.86 0 0 1 7.34 1.29 31.87 31.87 0 0 0 6.84 1.23c2.31 0 4.83-.51 6-2.31a4.88 4.88 0 0 0 .79-2.59 1.2 1.2 0 0 1 1.23-.93c.83-.06 1.34.37 1.34.87z" class="bfec58f3-1043-4d37-b2ce-ffb87d7c7e0b" transform="translate(0 -2.78)"/><path d="M389.69 40.56h-5.57V12h-10V7.44h25.69l-.57 4.56h-9.55zm37.25-3.02l-1.25 3.64c-2.45-.28-4.32-1.29-5.23-3.5a10.09 10.09 0 0 1-8.07 3.5c-5.18 0-8.35-3.16-8.35-7.87 0-5.28 4.32-8.3 12-8.3h3.6v-1.64c0-3.31-2.07-4.6-5.62-4.6a21.21 21.21 0 0 0-6.72 1.29l-1.3-3.79a25.58 25.58 0 0 1 8.88-1.73c6.81 0 10.13 3.17 10.13 8.5v11.33c-.01 1.96.58 2.73 1.93 3.17zM419.69 34v-5.63h-3c-5 0-7 1.77-7 4.75 0 2.69 1.44 4.13 4.27 4.13a6.79 6.79 0 0 0 5.73-3.25zm25.87-.35c0 2.35 1.58 3.21 3.84 3.21a10.44 10.44 0 0 0 4-.86l1.34 3.74a13.6 13.6 0 0 1-6.52 1.44c-5.09 0-8.07-3-8.07-8V9h-7.63V5h13zm28.8 0c0 2.35 1.58 3.21 3.84 3.21a10.44 10.44 0 0 0 4-.86l1.34 3.74a13.6 13.6 0 0 1-6.52 1.44c-5.09 0-8.07-3-8.07-8V9h-7.63V5h13zm44.25 6.91l9.12-13.35-8.11-12h6.19l5.19 8.93 5.18-8.93h5.91L534.17 27l9.12 13.59H537l-6.24-10.37-6.2 10.37zm32.45-17.23h17.38v4.41h-17.38zm32.73-5a10.15 10.15 0 0 1 7.88-3.79c4.75 0 7.05 2.79 7.05 7.54v18.48h-5.37V22.89c0-3-1.11-4.22-3.65-4.22s-4.56 1.82-5.91 3.74v18.15h-5.37V5.08l5.37-.57zM618.6 37a11.58 11.58 0 0 0 6.67-2.21l2.3 3.26a14.7 14.7 0 0 1-9.21 3.12c-7.93 0-12.25-5.37-12.25-13.29 0-7.59 4.37-13.35 11.57-13.35 6.72 0 11 4.8 11 12.67a16.63 16.63 0 0 1-.15 2.4h-16.8C612 34.8 615 37 618.6 37zm-7-11h11.8c-.1-4.8-2.07-7.44-5.67-7.44-3.36-.03-5.73 2.32-6.1 7.44zm38.24 10.62h6.92v3.94h-19.83v-3.94h7.54V19.15h-7.3v-3.94h12.67zm-.19-30.43a3.51 3.51 0 0 1-7 0 3.51 3.51 0 0 1 7 0zm37.92 10.27a23.35 23.35 0 0 1-7.34.82c3 1.39 4.6 3.41 4.6 6.48 0 4.94-3.79 8.54-10 8.54a10.28 10.28 0 0 1-3.45-.43 2.65 2.65 0 0 0-1.14 2.13c0 1 .58 1.92 3.12 1.92h4.42c5.42 0 9.26 3 9.26 7.06 0 5-4.46 8-12.67 8-8.74 0-11.28-2.74-11.28-7.87h4.8c0 2.68 1.2 3.93 6.53 3.93s7.2-1.34 7.2-3.69c0-2.07-1.92-3.22-4.9-3.22h-4.37c-4.8 0-6.91-2.26-6.91-4.9a5.57 5.57 0 0 1 2.79-4.56 7.25 7.25 0 0 1-4.32-7.1c0-5.33 4.32-9 10.56-9 6.09.05 8.69-1 11.71-2.54zm-18.19 7.06c0 3.17 1.73 5.28 5.18 5.28 3.22 0 4.9-1.92 4.9-5.38s-1.63-5.13-5-5.13-5.08 2.11-5.08 5.23zM699 18.33a10.15 10.15 0 0 1 7.88-3.79c4.75 0 7 2.79 7 7.54v18.48h-5.37V22.89c0-3-1.11-4.22-3.65-4.22s-4.56 1.82-5.91 3.74v18.15h-5.37V5.08l5.42-.57zm37.19 22.85c-5.9 0-9-3.31-9-8.3V19.15h-5.62v-3.94h5.62V9.55l5.38-.63v6.29h8.59l-.63 3.94h-8v13.68c0 2.74 1.29 4 4.41 4a9.63 9.63 0 0 0 4.71-1.2l1.92 3.56a14.11 14.11 0 0 1-7.38 1.99z" class="f7f3b60a-f6a4-4a2c-b10f-8bd52d3daba3" transform="translate(0 -2.78)"/><path d="M380.12 72.58a7.33 7.33 0 0 0 .43 2.52c.5 1.51 2.59 2.38 4.82 2.38a31.28 31.28 0 0 0 7.13-1.23A29.54 29.54 0 0 1 400 75c7 0 10.58 6.77 11 12.67.14 1.51.14 2.74.14 3.39 0 .86-.36 1.22-1 1.22s-1.29-.22-1.29-.86 0-1.52-.08-2.31c-.64-4.82-3.45-8.5-8.35-8.5a44.87 44.87 0 0 0-7.2.58 47 47 0 0 1-6.12.58 7.93 7.93 0 0 1-5.54-2c-1.59-1.37-2.09-2.38-2.81-2.38s-1.23 1-3.1 2.52a8.23 8.23 0 0 1-5.47 1.88 55.32 55.32 0 0 1-6.05-.58 47.33 47.33 0 0 0-7.06-.58c-6.84 0-8.78 5.33-9.57 8.57a10.79 10.79 0 0 0-.29 2.6c0 .43-.51.5-1.3.5s-1-.14-1-.5 0-1.44.08-2.38c.21-5 2.59-14.4 11.59-14.4a28.86 28.86 0 0 1 7.34 1.29 31.87 31.87 0 0 0 6.84 1.23c2.31 0 4.83-.51 6-2.31a4.88 4.88 0 0 0 .79-2.59 1.2 1.2 0 0 1 1.23-.93c.83-.06 1.34.37 1.34.87z" class="bfec58f3-1043-4d37-b2ce-ffb87d7c7e0b" transform="translate(0 -2.78)"/><path d="M935.21 22.22h12.49v4.23h-12.49v14.11h-5.56V7.44H950l-.58 4.22h-14.21zm43.21-7.01l-.92 9.36h-3.84v-5.18c-3.6.1-6.19 3-7.68 7.92v9.41h5.09v3.84h-14.21v-3.84h3.75V19.05h-3.75v-3.84h7.83l1 5.86c1.92-4.22 4.56-6.48 8.93-6.48a11.66 11.66 0 0 1 3.8.62zm28.31 22.33l-1.24 3.64c-2.45-.28-4.32-1.29-5.24-3.5a10.06 10.06 0 0 1-8.06 3.5c-5.19 0-8.35-3.16-8.35-7.87 0-5.28 4.32-8.3 12-8.3h3.6v-1.64c0-3.31-2.07-4.6-5.62-4.6a21.21 21.21 0 0 0-6.72 1.29l-1.35-3.79a25.67 25.67 0 0 1 8.89-1.73c6.81 0 10.12 3.17 10.12 8.5v11.33c.05 1.96.63 2.73 1.97 3.17zM999.49 34v-5.63h-3c-5 0-7 1.77-7 4.75 0 2.69 1.44 4.13 4.27 4.13a6.79 6.79 0 0 0 5.73-3.25zm33.21.61l2.45 3.45a14.09 14.09 0 0 1-8.88 3.12c-7.82 0-12.34-5.23-12.34-13.15 0-7.73 4.61-13.49 12.44-13.49a13.36 13.36 0 0 1 8.78 3.07l-2.5 3.36a10.94 10.94 0 0 0-6.19-2.11c-4 0-6.81 2.83-6.81 9.17s2.88 8.74 6.81 8.74a11.11 11.11 0 0 0 6.24-2.16zm24.1 6.57c-5.91 0-9-3.31-9-8.3V19.15h-5.61v-3.94h5.61V9.55l5.38-.63v6.29h8.59l-.62 3.94h-8v13.68c0 2.74 1.3 4 4.42 4a9.62 9.62 0 0 0 4.7-1.2l1.92 3.56a14.07 14.07 0 0 1-7.39 1.99zm28.85-4.56h6.91v3.94h-19.83v-3.94h7.54V19.15H1073v-3.94h12.68zm-.2-30.43a3.51 3.51 0 0 1-7 0 3.51 3.51 0 0 1 7 0zm36.77 21.65c0 8.06-4.13 13.34-11.47 13.34s-11.47-5.09-11.47-13.29c0-7.92 4.12-13.35 11.52-13.35s11.42 5.23 11.42 13.3zm-17.28.05c0 6.28 1.92 9.17 5.81 9.17s5.81-2.89 5.81-9.22-1.92-9.12-5.76-9.12-5.86 2.88-5.86 9.17zm24.48-12.68h4.66l.38 3.32a10.58 10.58 0 0 1 8.21-4c4.7 0 7 2.79 7 7.54v18.49h-5.37V24.77c0-4.42-.53-6.1-3.6-6.1-2.5 0-4.61 1.78-6 3.7v18.19h-5.37zm43.49 18.49c0-2.07-.82-3-6.05-4.37-5-1.3-8.35-3.08-8.35-7.49s3.88-7.3 10.13-7.3a15.77 15.77 0 0 1 9.64 2.93l-2.3 3.41a12.55 12.55 0 0 0-7.2-2.26c-3.46 0-4.8 1.11-4.8 2.79 0 1.92 1.39 2.64 6.43 4s8.21 3.07 8.21 7.87c0 5.52-5.38 7.87-11.18 7.87a15.45 15.45 0 0 1-10.44-3.52l2.83-3.26a12.19 12.19 0 0 0 7.59 2.73c3.38 0 5.49-1.29 5.49-3.4z" class="f7f3b60a-f6a4-4a2c-b10f-8bd52d3daba3" transform="translate(0 -2.78)"/><path d="M931.12 72.58a7.33 7.33 0 0 0 .43 2.52c.5 1.51 2.59 2.38 4.82 2.38a31.28 31.28 0 0 0 7.13-1.23A29.54 29.54 0 0 1 951 75c7 0 10.58 6.77 11 12.67.14 1.51.14 2.74.14 3.39 0 .86-.36 1.22-1 1.22s-1.29-.22-1.29-.86 0-1.52-.08-2.31c-.64-4.82-3.45-8.5-8.35-8.5a44.87 44.87 0 0 0-7.2.58 47 47 0 0 1-6.12.58 7.93 7.93 0 0 1-5.54-2c-1.59-1.37-2.09-2.38-2.81-2.38s-1.23 1-3.1 2.52a8.23 8.23 0 0 1-5.47 1.88 55.32 55.32 0 0 1-6-.58 47.33 47.33 0 0 0-7.06-.58c-6.84 0-8.78 5.33-9.57 8.57a10.79 10.79 0 0 0-.29 2.6c0 .43-.51.5-1.3.5s-1-.14-1-.5 0-1.44.08-2.38c.21-5 2.59-14.4 11.59-14.4a28.86 28.86 0 0 1 7.34 1.29 31.87 31.87 0 0 0 6.84 1.23c2.31 0 4.83-.51 6-2.31a4.88 4.88 0 0 0 .79-2.59 1.2 1.2 0 0 1 1.23-.93c.78-.06 1.29.37 1.29.87z" class="bfec58f3-1043-4d37-b2ce-ffb87d7c7e0b" transform="translate(0 -2.78)"/><path d="M279.22 179.45h483m-483-51.5l483-2" class="ae094abc-0e1e-4dec-b21c-19a9c5bced85"/><path d="M279.22 148.95h483" class="a44b49e9-3cc9-4629-9e8f-b330defbfba6"/><path d="M78 485.57c0-.94.07-4.32 0-10-.08-2.45-.36-4-1.73-4a8.78 8.78 0 0 0-2.88.58l-3.6 1.44a.5.5 0 0 1-.72-.22l-.55-1.37c-.14-.29-.07-.58.43-.87l13.4-8.35a1.87 1.87 0 0 1 1.08-.43c.43 0 .5.43.5 1s-.22 11.95-.22 21.24v3c0 .87.08 16.13.08 17.07.07 3.74.36 4.25 3.6 4.25H90c.5 0 .72.21.72.57v1.66c0 .43-.15.58-.65.58s-9-.22-9.65-.22-9.36.22-9.72.22a.51.51 0 0 1-.58-.58v-1.8c0-.36.44-.43 1-.43H73c4.68 0 4.82-.22 5-4 .08-.93.08-15.48.08-16.77zm41.64 25.99c-1.22 0-2.52.07-3.6.14s-1.94.15-2.23.15-.58 0-.79-.43a.79.79 0 0 1 .21-1.08c3.39-3.17 9.72-8.72 15.48-14.91s9.08-11.74 8.86-18c-.22-6.41-4.1-10.23-9.29-10.15-6.12.07-8.42 4.82-9.65 7-.29.5-.5.58-.86.36l-1-.43c-.22-.15-.29-.36 0-1 1.15-2.81 4.68-10.8 14.4-10.8a12.85 12.85 0 0 1 12.6 13.1c0 6.13-2.45 11.31-8.93 18.58-4.89 5.62-10.58 9.79-13.75 12.6h14.61c4.89 0 6.77-3.38 8.35-6.05.36-.64.58-.72 1.3-.36.57.29.86.58.57 1l-4.68 11.24c-.36.79.22.79-1.08.79-.65 0-.65-.07-.93-.72-.44-.94-1.8-1-4-1zm50.69 12.38a2 2 0 0 1 2.16-1.87 5.29 5.29 0 0 1 3.1 1.51 5.25 5.25 0 0 0 3.88 1.37c4 0 9.8-3.09 9.8-11.3 0-4.9-3.17-9-9.29-10a.8.8 0 0 1-.79-.87c0-.43.28-.79.93-.93 3.75-.79 9-5.76 9-10.73 0-2.3-2.16-6.05-6.05-6.05-3.6 0-5.68 2.67-7 4.54a1.35 1.35 0 0 1-1.23.65c-.64 0-.93-.29-.93-.72a3.38 3.38 0 0 1 .36-1.23c1.65-3.38 5.47-7.63 11.23-7.63 5.11 0 8.28 3.89 8.28 7.49 0 6-4 9.72-6.84 12.53 5.76 2.95 8.21 7 8.21 10.58 0 9.87-8.35 16.27-16.85 16.27-3.43-.01-7.97-.72-7.97-3.61zm75.96-12.38v12.74c0 .72-.36 1-.79 1H242c-.65 0-.79-.21-.79-1.37v-12.37h-17.1c-.79 0-1.08-.22-1.08-.65s.07-.57.65-1.15l21.24-28.37c.51-.72.72-1 1.3-1 .43 0 .86.36.65 1.66-.29 1.73-.58 9.14-.58 14v11.55h8.28c.43 0 .72.22.72.86v2.16c0 .72-.36.94-.94.94zm-4.9-20.95h-.14l-12.75 17h12.89zm38.09 33.69a2 2 0 0 1 2.16-2 5.15 5.15 0 0 1 2.88 1.29c.94.72 2.23 1.09 4.47 1.09 4.53 0 8.06-4 8.06-10.95 0-9.72-6.62-11.74-13.18-13l3.32-18.36c.14-.65.36-.87 1.08-.87h9.07c3 0 3.89-1.94 4.53-3.17.08-.14.15-.21.29-.14l.79.22c.15.07.22.14.15.36l-1.87 6.41a1.87 1.87 0 0 1-2 1.44h-10.17l-1.73 9c7.34 1.15 14.76 5.9 14.76 16.27 0 9.22-7.63 15.7-14.26 15.7-4.25.03-8.35-.76-8.35-3.29zm58.03-15.62c-3.6-3.89-4.61-9.51-4.61-13.25a35.49 35.49 0 0 1 21.53-32.26 8.45 8.45 0 0 1 2.67-.79c.43 0 .86.22.86.72a1.13 1.13 0 0 1-.65 1.15c-5.76 2.59-15.26 10.51-17.06 22.32a14 14 0 0 1 9.58-3.31c9 0 12.74 8 12.74 12.67 0 6.7-1.94 9.8-4.46 12.39a12.77 12.77 0 0 1-10.23 4.32c-4.82 0-8.21-1.37-10.37-3.96zm18.94-10.51c0-6.41-3.17-11.81-8.71-11.81-4.25 0-6.27 1.73-7.13 3.53a17.61 17.61 0 0 0-1.59 7.84c0 3.68.58 12.61 9.29 12.61 1.59 0 8.14-.8 8.14-12.17zm34.49 30.6c0-1.66 1.22-4.18 1.8-5.47 1.8-4.18 15.55-30.68 18.79-36.8h-13.75a7.86 7.86 0 0 0-7.06 3.75c-.5.79-.72.86-1.44.86s-1.08-.72-.65-1.37c1.08-1.94 5.26-9.86 5.4-10.44s.51-.86.72-.86 1.3.14 1.3.5-.29.79-.36 1.3c-.29 1.15.72 1.29 2.37 1.29h18.08c.93 0 1 .51.65 1.23-2.74 4.89-9.29 17.49-10.52 20.23-.57 1.22-8.42 18.22-9.86 22.61s-2 5.26-3.46 5.26a1.84 1.84 0 0 1-2.01-2.09zm54-27.15c0-5.47 3.88-8.71 7.7-11.59-6.26-3.46-8.28-5.62-8.35-11.23s5.76-12 12.24-12c4.39 0 11 2.81 11 9.87 0 3.67-5 8.78-7.71 11.38 5.62 3.24 8.14 6.33 8.43 12.67 0 6.12-5.76 11.66-12.17 11.66-6.61.04-11.14-3.99-11.14-10.76zm18.36-.57c-.15-5.91-4.11-7.28-8.64-9.8-2 1.3-5.76 5.19-5.76 10.16 0 3.31 3.45 8.49 7.2 8.49 3.96 0 7.34-2.59 7.2-8.85zm-13.9-23.41c0 5 2.66 6.56 8 9.22 3.32-2.95 5.69-6.12 5.69-9.07 0-5.19-2.88-8.57-6.84-8.57-3.39 0-6.85 2.59-6.85 8.42zm51.7 49.19c0-.51.28-.73 1-.94 7.71-2.95 13.25-9.65 15.41-20.23l-.14-.15c-.79 1.23-5.11 3.46-8.5 3.46-5 0-12.09-4-12.09-13.25 0-7.71 6.12-15.05 14.25-15.05 9.44 0 13.32 9.72 13.32 16.7 0 17.72-12.88 28.38-21.38 30.17a5.41 5.41 0 0 1-1.15.22c-.51 0-.72-.43-.72-.93zm15.62-23.62c1.3-1.73 1.59-5 1.59-10.37 0-5.69-2.52-9.8-7.28-9.8-6.84 0-8.71 7.57-8.57 13.61.15 7.64 5 9.87 7.49 9.87a8.48 8.48 0 0 0 6.77-3.31z" class="a20acbf0-42c5-4667-9ac2-8fb69e9cb227" transform="translate(0 -2.78)"/></g></g></svg>