<svg xmlns="http://www.w3.org/2000/svg" viewBox="0 0 954.66 815.72" width="954.66" height="815.72"><defs><style>.e53311ce-15f2-4bcd-88e4-9246b7bc8a6d{fill:#f26518}.a2250144-24ff-4a33-8a9b-e1c75e073586{fill:#b3b3b3}.ab7cb719-19bb-480c-87dc-9ac808a1b572{fill:#2997ff}.adb537a3-5a56-4d2e-ae2f-6276698ab6bf{fill:#fff}.a996ce52-832a-4908-912a-710de07076c7{fill:none;stroke:#b3b3b3;stroke-miterlimit:10;stroke-width:5.88px}</style></defs><g id="aa8785b6-c659-4844-a4d5-3bcdd0f9505b"><g id="bb8861d8-7fd6-47ba-a6ac-a3e2996553ed"><path d="M2.94 699.78H934.2a20.46 20.46 0 0 1 20.46 20.46v56.69a20.46 20.46 0 0 1-20.46 20.46H2.94v-97.61z" class="e53311ce-15f2-4bcd-88e4-9246b7bc8a6d"/><path d="M106.54 194.45v38.21l.07 6.63h-6.48l.07-6.63v-38.21H83.48v-5.57h39.77v5.57zM136.72 210h.14c2.61-3.53 6.7-6.91 13-6.91 7.61 0 12.34 4.94 12.34 14.24v15.8l.07 6.13h-6.21l.07-6.13v-15.2c0-6.35-2.25-9.52-7.12-9.52s-9.73 3.31-12.34 8v16.78l.07 6.13h-6.2l.07-6.13v-38.11l-.07-6.2h6.2l-.07 6.2zm67.98 23.58a20.79 20.79 0 0 1-15.51 6.7c-10.44 0-17.91-6.28-17.91-17.77 0-12.06 7.47-19.39 17.34-19.39 12.41 0 17.06 9.38 16.57 19.67h-27.71c.07 7.41 4.87 12.34 12.2 12.34a16.94 16.94 0 0 0 11.42-5.07zm-26.87-15.44h20.8c0-6.07-3.94-10-9.8-10-5.57-.01-9.83 2.95-11 10zm79.4 30.04v-15h-.14a12.68 12.68 0 0 1-11.92 7.12c-9.59 0-15.86-8-15.86-18.69 0-11.84 7.75-18.47 16.07-18.47 6.91 0 10.3 4.37 11.92 7.4h.14l.71-6.41h5.21l-.07 6.06v38l.07 6.2h-6.2zm-21.58-26.59c0 8 3.67 13.61 10.44 13.61 5.78 0 11.28-4 11.28-13.32v-.29c0-8.74-4.93-13.39-11.21-13.39-6.63 0-10.51 5.14-10.51 13.39zm44.92-17.48l-.07 6.13v15.23c0 6.35 2.26 9.52 7.12 9.52s9.66-3.31 12.34-8v-16.75l-.07-6.13h6.2l-.07 6.13v22.85l.07 6.2h-6v-6.06H300c-2.61 3.59-6.7 7.05-13.18 7.05-7.62 0-12.34-4.94-12.34-14.24v-15.8l-.08-6.13zm36.95 35.18l.07-6.13v-22.85l-.07-6.2h6.2l-.07 6.2v22.85l.07 6.13zm.07-42.59v-7.82h6.06v7.82zm47.6 34.3a16.9 16.9 0 0 1-15.09 9.24c-8.68 0-17.14-6-17.14-18.26 0-10.86 6.7-18.9 17.28-18.9a15.4 15.4 0 0 1 14.52 8.92l-5.29 2.47a10.51 10.51 0 0 0-9.47-6.27c-5.93 0-10.65 4.79-10.65 13.32s4.72 13.61 10.86 13.61c5.85 0 9.3-4.65 10.15-6.48zm34.34 8.29l-12.41-18-7.62 7.12v4.38l.07 6.48h-6.2l.07-6.48v-37.43l-.07-6.48h6.2l-.07 6.48v26.8h.14l18.55-18h7.33v.14L391 217.72l15.45 21.43v.14zm29.47 0l.07-6.06v-38.15l-.07-6.2h6.21l-.07 6.2v15.09h.14a12.43 12.43 0 0 1 11.77-7c9.45 0 15.94 7.76 15.94 18.69 0 12-7.83 18.47-16.15 18.47-7 0-10.15-4.44-11.77-7.55h-.15l-.7 6.56zm5.92-17.7v.29c0 9.3 5.72 13.32 11.36 13.32 6.69 0 10.36-5.64 10.36-13.61 0-8.25-3.88-13.39-10.5-13.39-6.28 0-11.22 4.65-11.22 13.39zm37.45 11.57v-22.85l-.07-6.2h6V216h.14c3.1-9.23 8.53-12.9 13.61-12.9a7.34 7.34 0 0 1 1.41.14V209a10 10 0 0 0-1.41-.07c-7.54 0-12.9 10.16-13.61 16.5v7.76l.07 6.13h-6.2zm24.68-11.42c0-9.81 7-18.62 17.91-18.62s17.91 8.81 17.91 18.62-7 18.54-17.91 18.54-17.91-8.81-17.91-18.54zm29.47 0c0-8.54-5.29-13.54-11.56-13.54s-11.57 5-11.57 13.54 5.22 13.46 11.61 13.46 11.52-4.93 11.52-13.46zm11-17.63h6.42l7.47 27.07h.14l8.61-27.07H565l8.6 27.07h.15l7.33-27.07h6.2l-11.42 35.18H571l-8.54-26.58h-.14l-8.6 26.58h-4.87zm83.07 35.18l.07-6.13v-15.23c0-6.35-2.26-9.52-7.12-9.52s-9.74 3.31-12.34 8v16.78l.07 6.13h-6.21l.07-6.13v-22.88l-.07-6.2h6v6.06h.15c2.6-3.52 6.69-7 13.18-7 7.62 0 12.34 4.94 12.34 14.24v15.8l.07 6.13zm29.05-35.18h6.91v-4.52c0-9.16 4.79-11.21 10.58-11.21a15.86 15.86 0 0 1 4.09.5v5a17.45 17.45 0 0 0-3.81-.49c-3.88 0-4.8 1.9-4.8 6v4.73h8.61V209h-8.61v24.19l.07 6.13h-6.2l.07-6.13V209h-6.91zm25.74 17.63c0-9.81 7-18.62 17.91-18.62s17.91 8.81 17.91 18.62-7 18.54-17.91 18.54-17.91-8.81-17.91-18.54zm29.47 0c0-8.54-5.29-13.54-11.56-13.54s-11.57 5-11.57 13.54 5.22 13.46 11.57 13.46 11.56-4.93 11.56-13.46zm26.73 2.67l-10.3 14.88h-6.77v-.14L728 220.89l-12.13-16.64v-.14H723l8.61 12.83 8.81-12.83h6.77v.14l-12 16.29L749 239.15v.14h-7.26z"/><path d="M106.54 61.61v38.21l.07 6.63h-6.48l.07-6.63V61.61H83.48V56h39.77v5.57zm30.18 15.58h.14c2.61-3.53 6.7-6.91 13-6.91 7.61 0 12.34 4.94 12.34 14.24v15.8l.07 6.13h-6.21l.07-6.13V85.09c0-6.35-2.25-9.52-7.12-9.52s-9.73 3.31-12.34 8v16.78l.07 6.13h-6.2l.07-6.13V62.24l-.07-6.2h6.2l-.07 6.2zm67.98 23.55a20.79 20.79 0 0 1-15.51 6.7c-10.44 0-17.91-6.28-17.91-17.77 0-12.06 7.47-19.39 17.34-19.39 12.41 0 17.06 9.38 16.57 19.67h-27.71c.07 7.41 4.87 12.34 12.2 12.34a16.94 16.94 0 0 0 11.42-5.07zM177.83 85.3h20.8c0-6.06-3.94-10-9.8-10-5.57-.01-9.83 2.95-11 10zm79.4 30.04v-15h-.14a12.68 12.68 0 0 1-11.92 7.12c-9.59 0-15.86-8-15.86-18.69 0-11.84 7.75-18.47 16.07-18.47 6.91 0 10.3 4.37 11.92 7.4h.14l.71-6.41h5.21l-.07 6.06v38l.07 6.2h-6.2zm-21.58-26.59c0 8 3.67 13.61 10.44 13.61 5.78 0 11.28-4 11.28-13.32v-.29c0-8.74-4.93-13.39-11.21-13.39-6.63 0-10.51 5.14-10.51 13.39zm44.92-17.48l-.07 6.13v15.23c0 6.35 2.26 9.52 7.12 9.52s9.66-3.31 12.34-8V77.4l-.07-6.13h6.2L306 77.4v22.85l.07 6.2h-6v-6.06H300c-2.61 3.59-6.7 7-13.18 7-7.62 0-12.34-4.94-12.34-14.24V77.4l-.08-6.13zm36.95 35.18l.07-6.13V77.47l-.07-6.2h6.2l-.07 6.2v22.85l.07 6.13zm.07-42.59V56h6.06v7.82zm47.6 34.34a16.9 16.9 0 0 1-15.09 9.24c-8.68 0-17.14-6-17.14-18.26 0-10.86 6.7-18.9 17.28-18.9a15.4 15.4 0 0 1 14.52 8.88l-5.29 2.47a10.51 10.51 0 0 0-9.47-6.27c-5.93 0-10.65 4.79-10.65 13.32s4.72 13.61 10.86 13.61c5.85 0 9.3-4.65 10.15-6.48zm34.34 8.25l-12.41-18-7.62 7.12V100l.07 6.48h-6.2l.07-6.48V62.52l-.07-6.52h6.2l-.07 6.48v26.8h.14l18.55-18h7.33v.14L391 84.88l15.45 21.43v.14zm29.47 0l.07-6.06V62.24L429 56h6.21l-.07 6.2v15.13h.14a12.43 12.43 0 0 1 11.77-7C456.5 70.28 463 78 463 89c0 12-7.83 18.47-16.15 18.47-7 0-10.15-4.44-11.77-7.55h-.15l-.7 6.56zm5.92-17.7V89c0 9.3 5.72 13.32 11.36 13.32 6.69 0 10.36-5.64 10.36-13.61 0-8.25-3.88-13.39-10.5-13.39-6.28.04-11.22 4.68-11.22 13.43zm37.45 11.57V77.47l-.07-6.2h6v11.91h.14C481.53 74 487 70.28 492 70.28a7.34 7.34 0 0 1 1.41.14v5.71a10 10 0 0 0-1.41-.07c-7.54 0-12.9 10.16-13.61 16.5v7.76l.07 6.13h-6.2zm24.68-11.42c0-9.81 7-18.62 17.91-18.62s17.91 8.81 17.91 18.62-7 18.54-17.91 18.54-17.91-8.81-17.91-18.54zm29.47 0c0-8.54-5.29-13.54-11.56-13.54s-11.57 5-11.57 13.54 5.22 13.46 11.57 13.46 11.56-4.93 11.56-13.46zm11-17.63h6.42l7.47 27.07h.14l8.61-27.07H565l8.6 27.07h.15l7.33-27.07h6.2l-11.42 35.18H571l-8.54-26.58h-.14l-8.6 26.58h-4.87zm83.07 35.18l.07-6.13V85.09c0-6.35-2.26-9.52-7.12-9.52s-9.74 3.31-12.34 8v16.78l.07 6.13h-6.21l.07-6.13V77.47l-.07-6.2h6v6.06h.15c2.6-3.52 6.69-7 13.18-7 7.62 0 12.34 4.94 12.34 14.24v15.8l.07 6.13zm29.05-35.18h6.91v-4.52c0-9.16 4.79-11.21 10.58-11.21a15.86 15.86 0 0 1 4.09.5v5a17.45 17.45 0 0 0-3.81-.49c-3.88 0-4.8 1.9-4.8 6v4.73h8.61v4.86h-8.61v24.19l.07 6.13h-6.2l.07-6.13v-24.2h-6.91zm25.74 17.63c0-9.81 7-18.62 17.91-18.62s17.91 8.81 17.91 18.62-7 18.54-17.91 18.54-17.91-8.81-17.91-18.54zm29.47 0c0-8.54-5.29-13.54-11.56-13.54s-11.57 5-11.57 13.54 5.22 13.46 11.57 13.46 11.56-4.93 11.56-13.46zm26.73 2.67l-10.3 14.88h-6.77v-.14L728 88.05l-12.15-16.64v-.14H723l8.61 12.83 8.81-12.83h6.77v.14l-12 16.29L749 106.31v.14h-7.26z" class="a2250144-24ff-4a33-8a9b-e1c75e073586"/><path d="M114.44 334v31.52l.07 6.63H97.09l.07-6.63V334H84.47v-12.28h42.66V334zm32.79 6.69h.14c4.16-5.15 8.88-6.49 12.83-6.49 6.7 0 11 3.32 11 11.21v19.82l.07 6.91h-16.22l.14-6.91v-15.8c0-2.68-1.19-3.81-3-3.81a7 7 0 0 0-5 2.61v17l.07 6.91h-16.11l.07-6.91v-36.67l-.07-6.84h16.15l-.07 6.84zm69.31 21.79c-2.47 5.14-7.83 10.92-19.81 10.92-13 0-21.23-7-21.23-19.24 0-12.56 8.61-20.17 20.66-20.17 15.44 0 21.44 11.14 21 22.56h-26.92c.28 5.71 3.1 7.2 6.63 7.2a7.23 7.23 0 0 0 6.7-3.88zm-26-13.26h11.14c0-3.1-1.27-6.13-5.36-6.13-3.32 0-5.16 2.04-5.8 6.13zm68.94 29.47v-9.94h-.14a13.43 13.43 0 0 1-10.29 4.44c-9.31 0-15.3-7.12-15.3-19.53 0-14.73 8.53-19.46 16.64-19.46 7.4 0 10.79 3.88 12.2 6.14h.14l2.47-5h10.93a104 104 0 0 0-.64 12.06v31.3l.07 6.91h-16.15zm-9-25c0 6.21.92 10 4.37 10a6.16 6.16 0 0 0 4.58-2.47v-11.08c0-4.16-2-6.42-4.65-6.42-3.26 0-4.25 2.82-4.25 10.01zm47.08-18.36l-.07 6.91V358c0 2.68 1.2 3.53 3 3.53a7.14 7.14 0 0 0 5-2.4v-16.89l-.07-6.91h16.15l-.07 6.91v23.06l.07 6.84h-15.48V366H306c-4.3 5.78-9.3 7.19-13.46 7.19-6.7 0-11-3.24-11-11.14v-19.81l-.07-6.91zm30.04 36.81l.07-6.91v-23.06l-.07-6.84h16.15l-.07 6.84v23.06l.07 6.91zm.07-40v-10.42h16v10.44zm61.84 27.09c-1.34 5.22-5.22 14.17-20 14.17-12.49 0-21.23-7.26-21.23-19.24 0-11.64 8-20.17 21.15-20.17 9.59 0 18.2 4.65 19.54 14.67l-14.46 1.12c-.42-3.8-2-5.92-4.72-5.92s-4.87 2.26-4.87 9.1c0 8.53 2.33 10.64 5.22 10.64s4.65-2 5.22-6.41zm29.83 12.91l-6.49-13.54-3.6 3.52v3.18l.07 6.84h-16.14l.07-6.84v-36.74l-.07-6.84h16.14l-.07 6.84v17.84h.15l9.87-11.07h17.41v.14l-12.55 12.13 13.12 24.4v.15zm32.58 0l.07-6.91v-36.67l-.07-6.84h16.14l-.07 6.84v10.08h.14a14.76 14.76 0 0 1 10.72-4.44c8.6 0 14.81 6.77 14.81 19.18 0 14.45-8.53 19.81-16.85 19.81a14.12 14.12 0 0 1-12.48-6.55h-.14l-1.41 5.5zM468 346.05v11.56c0 4.09 1.91 6.14 4.66 6.14 3.31 0 4.23-3.46 4.23-10 0-6.77-1-10-4.44-10a6 6 0 0 0-4.45 2.3zm30.46 19.18v-23.06l-.07-6.84h14.24v6.91h.14c2.26-5.29 6.13-8 10.86-8a12.69 12.69 0 0 1 1.69.14v14a17.13 17.13 0 0 0-3.74-.49c-4.37 0-6.69 2.75-7.12 8v9.38l.07 6.91h-16.14zm28.63-11.43c0-11 7.89-19.81 21.5-19.81s21.51 8.81 21.51 19.81-7.83 19.6-21.51 19.6-21.5-8.74-21.5-19.6zm26.23-.07c0-7.82-1.56-10-4.73-10s-4.72 2.19-4.72 10 1.55 9.94 4.72 9.94 4.73-2.11 4.73-9.94zm16.85-18.4h14.53l4.44 16.15h.14l5.43-16.15h10.36l5.43 16.15h.14l4.23-16.15H628l-11.28 36.81h-12.56l-5.5-17h-.14l-5.57 17h-11.29zm85.04 36.81l.14-6.91v-15.8c0-2.68-1.2-3.81-3-3.81a7.06 7.06 0 0 0-5 2.61v17l.07 6.91h-16.11l.07-6.91v-23.06l-.07-6.84h15.44v6.13h.14c4.3-5.78 9.31-7.26 13.47-7.26 6.69 0 11 3.32 11 11.21v19.82l.07 6.91zm33.92-36.88h5.5v-.49c-.14-11.85 3.87-14.67 13.82-14.67a29.21 29.21 0 0 1 9 1.2v8.81a12.88 12.88 0 0 0-3.59-.56c-3.39-.07-3.53 2.82-3.25 5.71h6.84v10.08h-6.84v19.89l.07 6.91h-16.12l.07-6.91v-19.89h-5.5zm29.68 18.54c0-11 7.9-19.81 21.51-19.81s21.5 8.81 21.5 19.81-7.82 19.6-21.5 19.6-21.51-8.74-21.51-19.6zm26.23-.07c0-7.82-1.55-10-4.72-10s-4.73 2.19-4.73 10 1.56 9.94 4.73 9.94 4.68-2.11 4.68-9.94z"/><path d="M780.51 362.62h-.14l-5.57 9.52h-14.45V372L773 352.39l-11.35-16.92v-.14h17.77l4.51 8.46h.14l4.79-8.46h14.46v.14l-11.45 17.63 12.76 18.9v.15H786.3z"/><path d="M114.44 599.67v31.52l.07 6.63H97.09l.07-6.63v-31.52H84.47V587.4h42.66v12.27zm32.79 6.7h.14c4.16-5.15 8.88-6.49 12.83-6.49 6.7 0 11 3.31 11 11.21v19.82l.07 6.91h-16.22l.14-6.91v-15.8c0-2.68-1.19-3.81-3-3.81a7 7 0 0 0-5 2.61v17l.07 6.91h-16.11l.07-6.91v-36.67l-.07-6.84h16.15l-.07 6.84zm69.31 21.79c-2.47 5.14-7.83 10.93-19.81 10.93-13 0-21.23-7.06-21.23-19.25 0-12.56 8.61-20.17 20.66-20.17 15.44 0 21.44 11.14 21 22.56h-26.92c.28 5.71 3.1 7.2 6.63 7.2a7.23 7.23 0 0 0 6.7-3.88zm-26-13.26h11.14c0-3.1-1.27-6.14-5.36-6.14-3.32 0-5.16 2.05-5.8 6.14zm68.94 29.47v-9.94h-.14a13.43 13.43 0 0 1-10.29 4.44c-9.31 0-15.3-7.12-15.3-19.53 0-14.74 8.53-19.46 16.64-19.46 7.4 0 10.79 3.88 12.2 6.13h.14l2.47-5h10.93a104 104 0 0 0-.64 12.06v31.3l.07 6.91h-16.15zm-9-25c0 6.21.92 10 4.37 10a6.16 6.16 0 0 0 4.58-2.47v-11.08c0-4.16-2-6.42-4.65-6.42-3.26 0-4.25 2.82-4.25 10.01zM297.56 601l-.07 6.91v15.72c0 2.68 1.2 3.53 3 3.53a7.14 7.14 0 0 0 5-2.4v-16.84l-.07-6.91h16.15l-.07 6.91V631l.07 6.84h-15.48v-6.14H306c-4.3 5.78-9.3 7.19-13.46 7.19-6.7 0-11-3.24-11-11.14v-19.83l-.07-6.91zm30.04 36.82l.07-6.91v-23.06l-.07-6.85h16.15l-.07 6.84v23.06l.07 6.91zm.07-40V587.4h16v10.44zm61.84 27.09c-1.34 5.22-5.22 14.18-20 14.18-12.49 0-21.23-7.27-21.23-19.25 0-11.64 8-20.17 21.15-20.17 9.59 0 18.2 4.65 19.54 14.67l-14.46 1.12c-.42-3.8-2-5.92-4.72-5.92s-4.87 2.26-4.87 9.1c0 8.53 2.33 10.64 5.22 10.64s4.65-2 5.22-6.41zm29.83 12.91l-6.49-13.54-3.6 3.52v3.2l.07 6.84h-16.14l.07-6.84v-36.76l-.07-6.84h16.14l-.07 6.84v17.84h.15l9.87-11.08h17.41v.14l-12.55 12.13 13.12 24.4v.14zm32.58 0l.07-6.91v-36.67l-.07-6.84h16.14l-.07 6.84v10.08h.14a14.76 14.76 0 0 1 10.72-4.44c8.6 0 14.81 6.77 14.81 19.18 0 14.45-8.53 19.81-16.85 19.81a14.12 14.12 0 0 1-12.48-6.55h-.14l-1.41 5.5zM468 611.73v11.56c0 4.09 1.91 6.14 4.66 6.14 3.31 0 4.23-3.46 4.23-10 0-6.77-1-10-4.44-10a6 6 0 0 0-4.45 2.3zm30.46 19.18v-23.06l-.07-6.84h14.24v6.91h.14c2.26-5.29 6.13-8 10.86-8a12.69 12.69 0 0 1 1.69.14v14a17.13 17.13 0 0 0-3.74-.49c-4.37 0-6.69 2.75-7.12 8v9.38l.07 6.91h-16.14zm28.63-11.43c0-11 7.89-19.81 21.5-19.81s21.51 8.81 21.51 19.81-7.83 19.61-21.51 19.61-21.5-8.75-21.5-19.61zm26.23-.07c0-7.82-1.56-10-4.73-10s-4.72 2.19-4.72 10 1.55 9.94 4.72 9.94 4.73-2.11 4.73-9.94zM570.17 601h14.53l4.44 16.15h.14l5.43-16.15h10.36l5.43 16.15h.14l4.23-16.15H628l-11.28 36.81h-12.56l-5.5-17h-.14l-5.57 17h-11.29zm85.04 36.82l.14-6.91v-15.8c0-2.68-1.2-3.81-3-3.81a7.06 7.06 0 0 0-5 2.61v17l.07 6.91h-16.11l.07-6.91v-23.06l-.07-6.84h15.44v6.13h.14c4.3-5.78 9.31-7.26 13.47-7.26 6.69 0 11 3.31 11 11.21v19.82l.07 6.91zm33.92-36.88h5.5v-.5c-.14-11.84 3.87-14.66 13.82-14.66a29.21 29.21 0 0 1 9 1.2v8.81a12.88 12.88 0 0 0-3.59-.56c-3.39-.07-3.53 2.82-3.25 5.71h6.84V611h-6.84v19.89l.07 6.91h-16.12l.07-6.91V611h-5.5zm29.68 18.54c0-11 7.9-19.81 21.51-19.81s21.5 8.81 21.5 19.81-7.82 19.61-21.5 19.61-21.51-8.75-21.51-19.61zm26.23-.07c0-7.82-1.55-10-4.72-10s-4.73 2.19-4.73 10 1.56 9.94 4.73 9.94 4.68-2.11 4.68-9.94z" class="e53311ce-15f2-4bcd-88e4-9246b7bc8a6d"/><path d="M780.51 628.3h-.14l-5.57 9.52h-14.45v-.14L773 618.07l-11.35-16.92V601h17.77l4.51 8.46h.14l4.83-8.46h14.46v.14l-11.49 17.63 12.76 18.9v.14H786.3z" class="e53311ce-15f2-4bcd-88e4-9246b7bc8a6d"/><path d="M114.44 466.83v31.52l.07 6.63H97.09l.07-6.63v-31.52H84.47v-12.27h42.66v12.27zM160.69 505l.07-6.63V485.8h-11.7v12.55l.07 6.63h-17.27l.07-6.63v-37.16l-.07-6.63h17.27l-.07 6.63v11.7h11.7v-11.7l-.07-6.63H178l-.07 6.63v37.16L178 505zm59.59-19.41h-16.85v7.12H224V505h-37.78l.07-6.63v-37.18l-.07-6.63h37.23v12.27h-20v6.77h16.85zm21.29-5.86c0-14.52 9.31-26.51 25.95-26.51s25.88 12 25.88 26.51c0 8.32-3.1 15.8-8.74 20.73 1.83 1.84 5.35 1.77 8.18 1.91v13.32c-1.06 0-2 .07-2.9.07-8.32 0-14.8-2.75-17.76-9.8a33.1 33.1 0 0 1-4.66.36c-16.64 0-25.95-11.99-25.95-26.59zm32.51 0c0-11.07-2.26-14.8-6.56-14.8s-6.56 3.73-6.56 14.8 2.12 14.88 6.56 14.88 6.56-3.74 6.56-14.88zm41.6-18.54v25.59c0 4.23 2.05 6.49 6.07 6.49 3.73 0 5.64-2 5.64-6.49v-25.59l-.07-6.63h15.79l-.07 6.63v25.74c0 5.14-1.34 10.43-5.36 14.24-3.81 3.59-9.59 5.15-16.57 5.15-7.68 0-14-1.91-17.63-5.29-4.37-4.09-4.93-9.8-4.93-16.15v-23.69l-.07-6.63h17.27zM350.16 505l.08-6.63v-37.18l-.08-6.63h17.28l-.07 6.63v37.16l.07 6.63zm72.07-16.74c-1.2 6.35-7.05 18.06-23.76 18.06-14.46 0-25.46-8.89-25.46-26.16 0-16.22 9.87-26.94 25.81-26.94 15.72 0 21.5 10.23 23 18.69l-16.42 1.55c-1-4.59-2.75-8.53-6.84-8.53S392 469 392 479.66c0 11.92 3 14.95 6.91 14.95 3.74 0 6.2-3 7.19-9.45zm4.65 10.09v-37.16l-.07-6.63h17.28l-.07 6.63v10.93h.14l12.27-17.56h19.25v.14l-14.1 17 15.08 33.14v.16h-19.17l-7.76-18.83h-.14L444 493v5.36l.07 6.63h-17.26zm66.78-37.16l-.07-6.63h25c9.38 0 20.45 2.75 20.45 12.62 0 8.46-8 11.64-10.22 11.78v.28c2.25.14 11.7 2.61 11.7 12.69 0 9.8-8.81 13.05-17.63 13.05h-29.3l.07-6.63zm16.78 13.25h6.28c3.24 0 5.71-1.12 5.71-4.37 0-3-2-4.23-5.5-4.23h-6.49zm0 10.09v9.23h7.05c3.6 0 5.43-1.48 5.43-4.51 0-3.74-2.75-4.72-6.13-4.72zM573.62 505l-6.34-18.2h-4.16v11.57l.07 6.63h-17.28l.07-6.63v-37.18l-.07-6.63h26c9.59 0 19.46 3.39 19.46 15.87 0 6.83-3.1 11.21-7.69 13.75l9 20.65v.17zm-10.5-29.83h5.78c3.17 0 5.57-1.06 5.57-4.44s-2.4-4.51-5.78-4.51h-5.57zm32.36 4.56c0-14.52 9.31-26.51 25.95-26.51s25.88 12 25.88 26.51-9.38 26.59-25.88 26.59-25.95-11.99-25.95-26.59zm32.51 0c0-11.07-2.12-14.8-6.56-14.8s-6.56 3.73-6.56 14.8 2 14.88 6.56 14.88 6.57-3.74 6.57-14.88zm19.53-25.17h17.56l5.85 24h.14l6.91-24h12.48l7.27 24h.14l5.28-24h15.66L705.55 505H690.6l-7.54-24.75h-.14L675.65 505h-14.38zm105.28 0h15l-.08 6.63v37.16l.08 6.63H756l-18.54-24.61h-.15l.15 4.51v13.47l.07 6.63h-15.12l.07-6.63v-37.16l-.07-6.63h14.66l15.8 20.87h.13l-.14-4.44v-9.8zM823 486h-16.68v12.34l.07 6.63h-17.28l.07-6.63v-37.15l-.07-6.63h36.18v12.27h-19V474H823zm4.19-6.27c0-14.52 9.31-26.51 25.95-26.51s25.88 12 25.88 26.51-9.38 26.59-25.88 26.59-25.95-11.99-25.95-26.59zm32.51 0c0-11.07-2.12-14.8-6.56-14.8s-6.56 3.73-6.56 14.8 2 14.88 6.56 14.88 6.56-3.74 6.56-14.88z" class="ab7cb719-19bb-480c-87dc-9ac808a1b572"/><path d="M902.29 490.59h-.14L894.67 505h-18.19v-.15l15.72-26.44-14.52-23.71v-.14h20.1l6.69 12.69h.14l6.63-12.69h17.42v.14L914.28 479l15.44 25.87v.13h-20z" class="ab7cb719-19bb-480c-87dc-9ac808a1b572"/><path d="M114.44 738.39v31.52l.07 6.63H97.09l.07-6.63v-31.52H84.47v-12.27h42.66v12.27zm46.25 38.15l.07-6.63v-12.55h-11.7v12.55l.07 6.63h-17.27l.07-6.63v-37.16l-.07-6.63h17.27l-.07 6.63v11.71h11.7v-11.71l-.07-6.63H178l-.07 6.63v37.16l.07 6.63zm59.59-19.39h-16.85v7.12H224v12.27h-37.78l.07-6.63v-37.16l-.07-6.63h37.23v12.27h-20v6.77h16.85zm21.29-5.85c0-14.53 9.31-26.52 25.95-26.52s25.88 12 25.88 26.52c0 8.32-3.1 15.79-8.74 20.73 1.83 1.83 5.35 1.76 8.18 1.9v13.33c-1.06 0-2 .07-2.9.07-8.32 0-14.8-2.75-17.76-9.8a33.13 33.13 0 0 1-4.66.35c-16.64 0-25.95-11.99-25.95-26.58zm32.51 0c0-11.08-2.26-14.81-6.56-14.81S261 740.22 261 751.3s2.12 14.87 6.56 14.87 6.52-3.73 6.52-14.87zm41.6-18.55v25.6c0 4.23 2.05 6.48 6.07 6.48 3.73 0 5.64-2 5.64-6.48v-25.6l-.07-6.63h15.79l-.07 6.63v25.74c0 5.14-1.34 10.43-5.36 14.24-3.81 3.6-9.59 5.15-16.57 5.15-7.68 0-14-1.91-17.63-5.29-4.37-4.09-4.93-9.8-4.93-16.15v-23.69l-.07-6.63h17.27zm34.48 43.79l.08-6.63v-37.16l-.08-6.63h17.28l-.07 6.63v37.16l.07 6.63zm72.07-16.71c-1.2 6.34-7.05 18-23.76 18C384 777.88 373 769 373 751.72c0-16.22 9.87-26.94 25.81-26.94 15.72 0 21.5 10.23 23 18.69L405.38 745c-1-4.58-2.75-8.53-6.84-8.53s-6.54 4.11-6.54 14.75c0 11.92 3 14.95 6.91 14.95 3.74 0 6.2-3 7.19-9.45zm4.65 10.08v-37.16l-.07-6.63h17.28l-.07 6.63v10.93h.14l12.27-17.56h19.25v.14l-14.1 17 15.08 33.14v.14h-19.17l-7.76-18.83h-.14l-5.59 6.84v5.36l.07 6.63h-17.26zm66.78-37.16l-.07-6.63h25c9.38 0 20.45 2.75 20.45 12.62 0 8.47-8 11.64-10.22 11.78v.28c2.25.14 11.7 2.61 11.7 12.69 0 9.81-8.81 13-17.63 13h-29.3l.07-6.63zM510.44 746h6.28c3.24 0 5.71-1.13 5.71-4.38 0-3-2-4.23-5.5-4.23h-6.49zm0 10.08v9.24h7.05c3.6 0 5.43-1.48 5.43-4.52 0-3.73-2.75-4.72-6.13-4.72zm63.18 20.46l-6.34-18.19h-4.16v11.56l.07 6.63h-17.28l.07-6.63v-37.16l-.07-6.63h26c9.59 0 19.46 3.39 19.46 15.87 0 6.84-3.1 11.21-7.69 13.75l9 20.66v.14zm-10.5-29.83h5.78c3.17 0 5.57-1.06 5.57-4.44s-2.4-4.51-5.78-4.51h-5.57zm32.36 4.59c0-14.53 9.31-26.52 25.95-26.52s25.88 12 25.88 26.52-9.38 26.58-25.88 26.58-25.95-11.99-25.95-26.58zm32.51 0c0-11.08-2.12-14.81-6.56-14.81s-6.56 3.73-6.56 14.81 2 14.87 6.56 14.87 6.57-3.73 6.57-14.87zm19.53-25.18h17.56l5.85 24h.14l6.91-24h12.48l7.27 24h.14l5.28-24h15.66l-13.26 50.42H690.6l-7.54-24.75h-.14l-7.27 24.75h-14.38zm105.28 0h15l-.08 6.63v37.16l.08 6.63H756l-18.54-24.61h-.15l.15 4.51v13.47l.07 6.63h-15.12l.07-6.63v-37.16l-.07-6.63h14.66l15.8 20.88h.13l-.14-4.44v-9.8zm70.2 31.45h-16.68v12.34l.07 6.63h-17.28l.07-6.63v-37.16l-.07-6.63h36.18v12.27h-19v7.19H823zm4.19-6.27c0-14.53 9.31-26.52 25.95-26.52S879 736.77 879 751.3s-9.38 26.58-25.88 26.58-25.93-11.99-25.93-26.58zm32.51 0c0-11.08-2.12-14.81-6.56-14.81s-6.56 3.73-6.56 14.81 2 14.87 6.56 14.87 6.56-3.73 6.56-14.87z" class="adb537a3-5a56-4d2e-ae2f-6276698ab6bf"/><path d="M902.29 762.15h-.14l-7.48 14.39h-18.19v-.14L892.2 750l-14.52-23.7v-.14h20.1l6.69 12.69h.14l6.63-12.69h17.42v.14l-14.38 24.26 15.44 25.88v.14h-20z" class="adb537a3-5a56-4d2e-ae2f-6276698ab6bf"/><path d="M2.94 815.73V2.94h951.72" class="a996ce52-832a-4908-912a-710de07076c7"/></g></g></svg>