<svg xmlns="http://www.w3.org/2000/svg" width="361.11" height="308.56" viewBox="0 0 361.11 308.56"><defs><style>.a5adb0f3-3dc9-4314-8ef7-fcd5b9323d78{fill:#f26518}.adca8a6a-3b2e-4fc8-a227-9196c9e03f7f{fill:#b3b3b3}.b2f74216-aac1-4419-8dbf-bc04c6160b5b{fill:#2997ff}.aba8ff1d-2917-410c-9a09-f70223e00dd8{fill:#fff}.bb57fa18-9818-4fc7-a283-74609a48d976{fill:none;stroke:#b3b3b3;stroke-miterlimit:10;stroke-width:2.22px}</style></defs><g id="bb5ae27e-e5a6-4a78-b3f3-211bceeaefba"><g id="b7c2e319-2e0b-4aa5-be53-2eeb5a910446"><path d="M1.11 264.7h352.26a7.74 7.74 0 0 1 7.74 7.74v21.44a7.74 7.74 0 0 1-7.74 7.74H1.11V264.7z" class="a5adb0f3-3dc9-4314-8ef7-fcd5b9323d78"/><path d="M40.3 73.55v16.96h-2.43V73.55h-6.29v-2.1h15v2.1zm11.42 5.9h.05a5.94 5.94 0 0 1 4.93-2.62c2.89 0 4.67 1.87 4.67 5.39v8.33h-2.32v-8.12c0-2.4-.85-3.6-2.7-3.6a5.58 5.58 0 0 0-4.66 3v8.67H49.4V71.45h2.34v2.34zm25.71 8.9a7.82 7.82 0 0 1-5.87 2.54c-4 0-6.77-2.38-6.77-6.72 0-4.56 2.82-7.34 6.56-7.34 4.69 0 6.45 3.55 6.27 7.44H67.13a4.4 4.4 0 0 0 4.62 4.67A6.41 6.41 0 0 0 76.07 87zm-10.16-5.84h7.87a3.54 3.54 0 0 0-3.71-3.78c-2.11 0-3.71 1.12-4.16 3.78zM97.3 93.88v-5.69a4.79 4.79 0 0 1-4.51 2.7c-3.63 0-6-3-6-7.07 0-4.48 2.93-7 6.08-7a4.94 4.94 0 0 1 4.51 2.8l.27-2.42h2v19.02h-2.38zm-8.16-10.06c0 3 1.39 5.15 4 5.15 2.18 0 4.26-1.52 4.26-5v-.11c0-3.31-1.86-5.07-4.24-5.07s-4.02 1.91-4.02 5.03zm16.99-6.61v8.08c0 2.4.86 3.6 2.7 3.6a5.62 5.62 0 0 0 4.66-3v-8.68h2.34v13.31h-2.26v-2.3h-.06a5.94 5.94 0 0 1-5 2.67c-2.88 0-4.67-1.87-4.67-5.39v-8.32zm13.98 13.31V77.21h2.34v13.31zm0-16.11v-3h2.3v3zm18.03 12.98a6.4 6.4 0 0 1-5.71 3.5c-3.28 0-6.48-2.27-6.48-6.91 0-4.11 2.53-7.15 6.53-7.15a5.84 5.84 0 0 1 5.5 3.36l-2 .94a4 4 0 0 0-3.6-2.38c-2.25 0-4 1.82-4 5s1.78 5.15 4.1 5.15a4.48 4.48 0 0 0 3.85-2.45zm12.99 3.13l-4.7-6.81-2.88 2.7v4.11h-2.35V71.45h2.35V84l7-6.82h2.77v.05l-5.49 5.09 5.84 8.11v.06zm11.15 0V71.45h2.34v8.05h.05a4.7 4.7 0 0 1 4.45-2.67c3.58 0 6 2.94 6 7.07 0 4.53-3 7-6.11 7a4.77 4.77 0 0 1-4.44-2.9l-.27 2.49zm2.24-6.7v.11c0 3.52 2.16 5 4.29 5 2.53 0 3.92-2.14 3.92-5.15s-1.47-5.07-4-5.07-4.21 1.8-4.21 5.11zm14.16 4.37V77.21h2.27v4.5h.05c1.18-3.49 3.23-4.88 5.15-4.88a2.35 2.35 0 0 1 .53.06v2.16a3.26 3.26 0 0 0-.53 0c-2.85 0-4.88 3.84-5.15 6.24v5.26h-2.35zm9.32-4.32a6.78 6.78 0 1 1 6.78 7 6.78 6.78 0 0 1-6.78-7zm11.15 0c0-3.22-2-5.12-4.37-5.12s-4.38 1.9-4.38 5.12 2 5.1 4.38 5.1 4.38-1.87 4.38-5.1zm4.17-6.66h2.43l2.83 10.24 3.26-10.24h1.84L217 87.45l2.78-10.24h2.34l-4.32 13.31H216l-3.22-10.06h-.06l-3.25 10.06h-1.84zm31.42 13.31v-8.09c0-2.4-.85-3.6-2.69-3.6a5.59 5.59 0 0 0-4.67 3v8.67h-2.35V77.21h2.27v2.29a6 6 0 0 1 5-2.67c2.88 0 4.67 1.87 4.67 5.39v8.33zm10.99-13.31h2.62V75.5c0-3.47 1.81-4.24 4-4.24a6 6 0 0 1 1.55.19v1.89a6.54 6.54 0 0 0-1.44-.19c-1.47 0-1.82.72-1.82 2.27v1.79h3.26v1.84h-3.26v11.47h-2.35V79.05h-2.62zm9.74 6.66a6.78 6.78 0 1 1 6.77 7 6.78 6.78 0 0 1-6.77-7zm11.15 0c0-3.22-2-5.12-4.38-5.12s-4.37 1.9-4.37 5.12 2 5.1 4.37 5.1 4.38-1.87 4.38-5.1zm10.11 1.02l-3.9 5.63h-2.56v-.06l5.1-6.91-4.59-6.29v-.05h2.72l3.25 4.85 3.34-4.85h2.56v.05l-4.53 6.16 5.2 7v.06h-2.75z"/><path d="M40.3 23.3v16.97h-2.43V23.3h-6.29v-2.1h15v2.1zm11.42 5.9h.05a5.94 5.94 0 0 1 4.93-2.62c2.89 0 4.67 1.87 4.67 5.39v8.32h-2.32v-8.1c0-2.41-.85-3.61-2.7-3.61a5.58 5.58 0 0 0-4.66 3v8.74H49.4V21.2h2.34v2.34zm25.71 8.91a7.86 7.86 0 0 1-5.87 2.53c-4 0-6.77-2.37-6.77-6.72 0-4.56 2.82-7.34 6.56-7.34 4.69 0 6.45 3.55 6.27 7.45H67.13a4.39 4.39 0 0 0 4.62 4.66 6.41 6.41 0 0 0 4.32-1.92zm-10.16-5.84h7.87a3.54 3.54 0 0 0-3.71-3.79c-2.11 0-3.71 1.12-4.16 3.79zM97.3 43.63V38a4.8 4.8 0 0 1-4.51 2.69c-3.63 0-6-3-6-7.07 0-4.48 2.93-7 6.08-7a4.94 4.94 0 0 1 4.51 2.8l.27-2.42h2v18.97h-2.38zm-8.16-10.06c0 3 1.39 5.15 4 5.15 2.18 0 4.26-1.52 4.26-5v-.11c0-3.3-1.86-5.07-4.24-5.07s-4.02 1.91-4.02 5.03zM106.13 27v8c0 2.4.86 3.6 2.7 3.6a5.61 5.61 0 0 0 4.66-3v-8.64h2.34v13.31h-2.26V38h-.06a5.94 5.94 0 0 1-5 2.67c-2.88 0-4.67-1.87-4.67-5.39v-8.32zm13.98 13.27V26.96h2.34v13.36zm0-16.11v-3h2.3v3zm18.03 12.99a6.4 6.4 0 0 1-5.71 3.49c-3.28 0-6.48-2.27-6.48-6.91 0-4.11 2.53-7.15 6.53-7.15A5.83 5.83 0 0 1 138 30l-2 .93a4 4 0 0 0-3.6-2.38c-2.25 0-4 1.82-4 5s1.78 5.14 4.1 5.14a4.48 4.48 0 0 0 3.85-2.45zm12.99 3.12l-4.7-6.8-2.88 2.69v4.11h-2.35V21.2h2.35v12.59l7-6.83h2.77V27l-5.49 5.1 5.84 8.1v.06zm11.15 0V21.2h2.34v8.05h.05a4.7 4.7 0 0 1 4.45-2.67c3.58 0 6 2.94 6 7.07 0 4.54-3 7-6.11 7a4.78 4.78 0 0 1-4.45-2.85l-.27 2.48zm2.24-6.7v.11c0 3.52 2.16 5 4.29 5 2.53 0 3.92-2.13 3.92-5.15s-1.47-5.07-4-5.07-4.21 1.81-4.21 5.11zM178.68 38V26.96h2.27v4.51h.05c1.18-3.5 3.23-4.89 5.15-4.89a2.35 2.35 0 0 1 .53.06v2.16a3.26 3.26 0 0 0-.53 0c-2.85 0-4.88 3.84-5.15 6.24v5.28h-2.35zm9.32-4.37a6.78 6.78 0 1 1 13.55 0 6.78 6.78 0 1 1-13.55 0zm11.15 0c0-3.23-2-5.13-4.37-5.13s-4.38 1.9-4.38 5.13 2 5.09 4.38 5.09 4.38-1.87 4.38-5.09zm4.17-6.63h2.43l2.83 10.24L211.89 27h1.84L217 37.2l2.81-10.2h2.34l-4.32 13.31H216l-3.22-10.06h-.06l-3.25 10.06h-1.84zm31.42 13.27v-8.08c0-2.41-.85-3.61-2.69-3.61a5.59 5.59 0 0 0-4.67 3v8.74h-2.35V26.96h2.27v2.29a6 6 0 0 1 5-2.67c2.88 0 4.67 1.87 4.67 5.39v8.32zM245.73 27h2.62v-1.75c0-3.47 1.81-4.24 4-4.24a6 6 0 0 1 1.55.19v1.89a6.54 6.54 0 0 0-1.44-.19c-1.47 0-1.82.72-1.82 2.27V27h3.26v1.8h-3.26v11.52h-2.35V28.8h-2.62zm9.74 6.63a6.78 6.78 0 1 1 13.55 0 6.78 6.78 0 1 1-13.55 0zm11.15 0c0-3.23-2-5.13-4.38-5.13s-4.37 1.9-4.37 5.13 2 5.09 4.37 5.09 4.38-1.87 4.38-5.09zm10.11 1.01l-3.9 5.63h-2.56v-.06l5.1-6.9-4.59-6.31h2.72l3.25 4.85 3.34-4.85h2.56l-4.53 6.16 5.2 7v.06h-2.75z" class="adca8a6a-3b2e-4fc8-a227-9196c9e03f7f"/><path d="M43.29 126.34v14.43h-6.56v-14.43H32v-4.65h16.09v4.65zm12.4 2.53h.05a6 6 0 0 1 4.86-2.45c2.53 0 4.16 1.25 4.16 4.24v10.11h-6.11l.05-2.62v-6c0-1-.45-1.44-1.12-1.44a2.65 2.65 0 0 0-1.89 1v9.05h-6.08v-19.07h6.11v2.59zm26.22 8.24c-.93 1.95-3 4.14-7.5 4.14-4.9 0-8-2.67-8-7.29s3.25-7.62 7.81-7.62c5.84 0 8.11 4.21 8 8.53H72c.11 2.16 1.17 2.72 2.51 2.72a2.73 2.73 0 0 0 2.49-1.47zm-9.84-5h4.21c0-1.18-.48-2.32-2-2.32-1.28-.01-1.97.76-2.21 2.31zm26.08 11.14v-3.77h-.05a5.08 5.08 0 0 1-3.89 1.69c-3.52 0-5.79-2.7-5.79-7.39 0-5.58 3.23-7.36 6.29-7.36a5.09 5.09 0 0 1 4.62 2.32l.93-1.9h4.14a40 40 0 0 0-.24 4.56v14.46h-6.1zm-3.38-9.45c0 2.35.34 3.79 1.65 3.79a2.33 2.33 0 0 0 1.73-.93v-4.22c0-1.57-.74-2.42-1.76-2.42-1.25-.02-1.62 1.06-1.62 3.78zm17.79-6.96v8.56c0 1 .45 1.34 1.12 1.34a2.69 2.69 0 0 0 1.89-.91v-8.99h6.11v13.93h-5.85v-2.33a6.1 6.1 0 0 1-5.09 2.73c-2.54 0-4.16-1.23-4.16-4.22v-10.11zm11.36 13.93v-13.93H130v13.93zm0-15.13v-4h6v4zm23.42 10.24c-.51 2-2 5.37-7.58 5.37-4.72 0-8-2.75-8-7.29s3-7.62 8-7.62c3.62 0 6.88 1.76 7.38 5.54l-5.46.43c-.16-1.44-.75-2.24-1.79-2.24s-1.84.85-1.84 3.44c0 3.23.88 4 2 4s1.76-.78 2-2.43zm11.28 4.89l-2.45-5.13-1.36 1.36v3.79h-6.11v-19.08h6.11V131h.05l3.73-4.19h6.59v.06l-4.75 4.58 5 9.23v.06zm12.32 0v-19.08h6.11v6.41h.06a5.55 5.55 0 0 1 4-1.68c3.26 0 5.6 2.56 5.6 7.25 0 5.47-3.22 7.5-6.37 7.5a5.33 5.33 0 0 1-4.72-2.49h-.06l-.53 2.09zm6.06-9.87v4.37c0 1.55.72 2.32 1.76 2.32 1.26 0 1.61-1.31 1.61-3.79s-.37-3.8-1.67-3.8a2.25 2.25 0 0 0-1.7.9zm11.55 7.25v-11.31h5.39v2.62h.06a4.42 4.42 0 0 1 4.11-3 4.26 4.26 0 0 1 .64 0v5.28a6.21 6.21 0 0 0-1.41-.19c-1.66 0-2.54 1-2.7 3v6.17h-6.11zm10.83-4.32c0-4.16 3-7.49 8.13-7.49s8.14 3.33 8.14 7.49-3 7.42-8.14 7.42-8.13-3.31-8.13-7.42zm9.92 0c0-3-.59-3.78-1.79-3.78s-1.79.82-1.79 3.78.59 3.76 1.79 3.76 1.79-.83 1.79-3.79zm6.37-6.99h5.5l1.68 6.11h.05l2.06-6.11h3.92l2.05 6.11 1.6-6.11h5l-4.26 13.93h-4.75l-2.08-6.43-2.11 6.43H220zm32.17 13.93v-8.62c0-1-.45-1.44-1.12-1.44a2.65 2.65 0 0 0-1.89 1v9.05h-6.03v-13.93h5.84v2.32h.05a6.14 6.14 0 0 1 5.1-2.74c2.53 0 4.16 1.25 4.16 4.24v10.11zm12.83-13.95h2.08v-.19c-.05-4.48 1.47-5.55 5.23-5.55a11.35 11.35 0 0 1 3.41.45v3.34a4.68 4.68 0 0 0-1.36-.21c-1.28 0-1.33 1.06-1.22 2.16h2.58v3.81h-2.58v10.14h-6.11v-10.14h-2.08zm11.23 7.01c0-4.16 3-7.49 8.14-7.49s8.13 3.33 8.13 7.49-3 7.42-8.13 7.42-8.14-3.31-8.14-7.42zm9.92 0c0-3-.58-3.78-1.78-3.78s-1.79.82-1.79 3.78.58 3.76 1.79 3.76 1.78-.83 1.78-3.79z"/><path d="M295.24 137.16h-.05l-2.11 3.61h-5.47v-.06l4.8-7.41-4.29-6.4v-.06h6.72l1.71 3.2h.05l1.81-3.2h5.47v.06l-4.35 6.66 4.83 7.15v.06h-6.93z"/><path d="M43.29 226.83v14.43h-6.56v-14.43H32v-4.64h16.09v4.64zm12.4 2.54h.05a6 6 0 0 1 4.86-2.46c2.53 0 4.16 1.26 4.16 4.24v10.11h-6.11l.05-2.61v-6c0-1-.45-1.44-1.12-1.44a2.67 2.67 0 0 0-1.89 1v9.04h-6.08v-19.06h6.11v2.59zm26.22 8.24c-.93 1.94-3 4.13-7.5 4.13-4.9 0-8-2.67-8-7.28s3.25-7.63 7.81-7.63c5.84 0 8.11 4.22 8 8.54H72c.11 2.16 1.17 2.72 2.51 2.72a2.73 2.73 0 0 0 2.49-1.47zm-9.84-5h4.21c0-1.17-.48-2.32-2-2.32-1.28-.02-1.97.76-2.21 2.3zm26.08 11.13V240h-.05a5.08 5.08 0 0 1-3.89 1.68c-3.52 0-5.79-2.69-5.79-7.39 0-5.57 3.23-7.36 6.29-7.36a5.11 5.11 0 0 1 4.62 2.32l.93-1.89h4.14a39.91 39.91 0 0 0-.24 4.56v14.46h-6.1zm-3.38-9.44c0 2.35.34 3.79 1.65 3.79a2.31 2.31 0 0 0 1.73-.94v-4.21c0-1.57-.74-2.43-1.76-2.43-1.25 0-1.62 1.07-1.62 3.79zm17.79-6.96v8.61c0 1 .45 1.33 1.12 1.33a2.71 2.71 0 0 0 1.89-.9v-8.99h6.11v13.92h-5.85v-2.32a6.09 6.09 0 0 1-5.09 2.72c-2.54 0-4.16-1.22-4.16-4.21v-10.11zm11.36 13.92v-13.92H130v13.92zm0-15.12v-3.95h6v3.95zm23.42 10.24c-.51 2-2 5.36-7.58 5.36-4.72 0-8-2.75-8-7.28s3-7.63 8-7.63c3.62 0 6.88 1.76 7.38 5.55l-5.46.43c-.16-1.44-.75-2.24-1.79-2.24s-1.89.85-1.89 3.43c0 3.22.88 4 2 4s1.76-.77 2-2.42zm11.28 4.88l-2.45-5.12-1.36 1.33v3.79h-6.11v-19.07h6.11v9.34h.05l3.73-4.19h6.59l-4.75 4.66 5 9.23zm12.32 0v-19.07h6.11v6.4h.06a5.55 5.55 0 0 1 4-1.68c3.26 0 5.6 2.56 5.6 7.26 0 5.46-3.22 7.49-6.37 7.49a5.32 5.32 0 0 1-4.72-2.48h-.06l-.53 2.08zm6.08-9.87v4.38c0 1.54.72 2.32 1.76 2.32 1.26 0 1.61-1.31 1.61-3.79s-.38-3.79-1.69-3.79a2.28 2.28 0 0 0-1.7.88zm11.53 7.26v-11.31h5.39V230h.06a4.42 4.42 0 0 1 4.11-3 4.22 4.22 0 0 1 .64.06v5.28a6.21 6.21 0 0 0-1.41-.19c-1.66 0-2.54 1-2.7 3v6.16h-6.11zm10.83-4.32c0-4.16 3-7.5 8.13-7.5s8.14 3.34 8.14 7.5-3 7.41-8.14 7.41-8.13-3.31-8.13-7.41zm9.92 0c0-3-.59-3.79-1.79-3.79s-1.79.83-1.79 3.79.59 3.76 1.79 3.76 1.79-.83 1.79-3.79zm6.37-6.99h5.5l1.68 6.11h.05l2.06-6.11h3.92l2.05 6.11 1.6-6.11h5l-4.26 13.92h-4.75l-2.08-6.43-2.11 6.43H220zm32.17 13.92v-8.61c0-1-.45-1.44-1.12-1.44a2.67 2.67 0 0 0-1.89 1v9.04h-6.03v-13.92h5.84v2.32h.05a6.13 6.13 0 0 1 5.1-2.75c2.53 0 4.16 1.26 4.16 4.24v10.11zm12.83-13.95h2.08v-.18c-.05-4.49 1.47-5.55 5.23-5.55a11 11 0 0 1 3.41.45v3.34a4.66 4.66 0 0 0-1.36-.22c-1.28 0-1.33 1.07-1.22 2.16h2.58v3.82h-2.58v10.13h-6.11v-10.13h-2.08zm11.23 7.02c0-4.16 3-7.5 8.14-7.5s8.13 3.34 8.13 7.5-3 7.41-8.13 7.41-8.14-3.31-8.14-7.41zm9.92 0c0-3-.58-3.79-1.78-3.79s-1.79.83-1.79 3.79.58 3.76 1.79 3.76 1.78-.83 1.78-3.79z" class="a5adb0f3-3dc9-4314-8ef7-fcd5b9323d78"/><path d="M295.24 237.66h-.05l-2.11 3.6h-5.47l4.8-7.42-4.29-6.4h6.72l1.71 3.2h.05l1.81-3.2h5.47l-4.35 6.67 4.83 7.15h-6.93z" class="a5adb0f3-3dc9-4314-8ef7-fcd5b9323d78"/><path d="M43.29 179.58v14.43h-6.56v-14.43H32v-4.64h16.09v4.64zM60.78 194v-7.26h-4.4V194h-6.5v-19.06h6.53v6.93h4.43v-6.93h6.57v19.07zm22.54-7.33H77v2.7h7.79V194H70.44v-19.06h14.08v4.64H77v2.56h6.37zm8.06-2.21c0-5.5 3.52-10 9.81-10s9.79 4.53 9.79 10a10.23 10.23 0 0 1-3.31 7.84c.7.69 2 .67 3.1.72v5h-1.09c-3.15 0-5.61-1-6.73-3.71a12.34 12.34 0 0 1-1.76.13c-6.29.07-9.81-4.44-9.81-9.98zm12.29 0c0-4.19-.85-5.6-2.48-5.6s-2.48 1.41-2.48 5.6.8 5.63 2.48 5.63 2.48-1.42 2.48-5.63zm15.74-7.02v9.69c0 1.6.77 2.45 2.29 2.45s2.14-.77 2.14-2.45v-12.19h6v12.24a7.2 7.2 0 0 1-2 5.39c-1.44 1.36-3.62 1.94-6.27 1.94-2.9 0-5.28-.72-6.66-2-1.66-1.54-1.87-3.7-1.87-6.1v-11.5h6.54zM132.45 194v-19.06H139v19.07zm27.26-6.31c-.45 2.4-2.66 6.82-9 6.82-5.46 0-9.62-3.36-9.62-9.89 0-6.14 3.73-10.19 9.76-10.19s8.13 3.87 8.69 7.07l-6.21.58c-.37-1.73-1-3.22-2.59-3.22s-2.48 1.54-2.48 5.57c0 4.51 1.12 5.66 2.61 5.66s2.35-1.12 2.73-3.58zm1.76 3.81v-16.56H168v6.64l4.64-6.64h7.28v.06l-5.33 6.43L180.3 194h-7.25l-2.93-7.12h-.06l-2.1 2.58v4.51h-6.53zm25.26-14.06v-2.5h9.47c3.54 0 7.73 1 7.73 4.77a4.6 4.6 0 0 1-3.87 4.45v.11a4.86 4.86 0 0 1 4.43 4.8c0 3.71-3.33 4.94-6.67 4.94h-11.11v-2.51zm6.35 5h2.37c1.23 0 2.17-.43 2.17-1.66s-.78-1.6-2.09-1.6h-2.45zm0 3.81v3.5h2.67c1.36 0 2.05-.56 2.05-1.71 0-1.41-1-1.79-2.32-1.79zM217 194l-2.4-6.88H213V194h-6.5v-19.06h9.81c3.63 0 7.36 1.28 7.36 6a5.55 5.55 0 0 1-2.9 5.2l3.38 7.81v.05zm-4-11.29h2.18c1.2 0 2.11-.4 2.11-1.68s-.91-1.7-2.19-1.7H213zm12.25 1.75c0-5.5 3.52-10 9.81-10s9.79 4.53 9.79 10-3.55 10-9.79 10-9.81-4.46-9.81-10zm12.29 0c0-4.19-.8-5.6-2.48-5.6s-2.48 1.41-2.48 5.6.75 5.63 2.48 5.63 2.48-1.42 2.48-5.63zm7.39-9.52h6.64l2.22 9.07h.05l2.62-9.07h4.72l2.74 9.07h.08l2-9.07h5.92l-5 19.07h-5.65l-2.85-9.36h-.06l-2.78 9.35h-5.45zm39.82 0h5.69v19.07H286l-7-9.31h-.05l.05 1.71v7.6h-5.71v-19.07h5.55l6 7.89h.05l-.05-1.68v-3.71zm26.54 11.89H305v7.18h-6.54v-19.07h13.68v4.64H305v2.72h6.29zm1.61-2.37c0-5.5 3.52-10 9.81-10s9.79 4.53 9.79 10-3.55 10-9.79 10-9.81-4.46-9.81-10zm12.29 0c0-4.19-.8-5.6-2.48-5.6s-2.48 1.41-2.48 5.6.75 5.63 2.48 5.63 2.48-1.42 2.48-5.63z" class="b2f74216-aac1-4419-8dbf-bc04c6160b5b"/><path d="M341.3 188.57h-.05l-2.83 5.43h-6.88l5.95-10-5.5-9v-.05h7.6l2.54 4.8h.05l2.51-4.8h6.59v.05l-5.44 9.17 5.84 9.79v.04h-7.55z" class="b2f74216-aac1-4419-8dbf-bc04c6160b5b"/><path d="M43.29 279.31v14.43h-6.56v-14.43H32v-4.64h16.09v4.64zm17.49 14.43v-7.26h-4.4v7.26h-6.5v-19.07h6.53v6.93h4.43v-6.93h6.57v19.07zm22.54-7.34H77v2.69h7.79v4.65H70.44v-19.07h14.08v4.64H77v2.56h6.37zm8.06-2.21c0-5.5 3.52-10 9.81-10s9.79 4.53 9.79 10a10.25 10.25 0 0 1-3.31 7.84c.7.69 2 .67 3.1.72v5h-1.09c-3.15 0-5.61-1-6.73-3.71a12.34 12.34 0 0 1-1.76.13c-6.29.07-9.81-4.46-9.81-9.98zm12.29 0c0-4.19-.85-5.6-2.48-5.6s-2.48 1.41-2.48 5.6.8 5.62 2.48 5.62 2.48-1.41 2.48-5.62zm15.74-7.02v9.68c0 1.6.77 2.46 2.29 2.46s2.14-.78 2.14-2.46v-12.18h6v12.24a7.23 7.23 0 0 1-2 5.39c-1.44 1.36-3.62 1.94-6.27 1.94-2.9 0-5.28-.72-6.66-2-1.66-1.55-1.87-3.71-1.87-6.11v-11.5h6.54zm13.04 16.57v-19.07H139v19.07zm27.26-6.33c-.45 2.4-2.66 6.83-9 6.83-5.46 0-9.62-3.36-9.62-9.89 0-6.14 3.73-10.19 9.76-10.19s8.13 3.87 8.69 7.07l-6.21.58c-.37-1.73-1-3.22-2.59-3.22s-2.48 1.54-2.48 5.57c0 4.51 1.12 5.65 2.61 5.65s2.35-1.12 2.73-3.57zm1.76 3.82v-16.56H168v6.64l4.64-6.64h7.28v.05l-5.33 6.43 5.7 12.53v.06h-7.25l-2.93-7.13h-.06L168 289.2v4.51h-6.53zm25.26-14.06v-2.5h9.47c3.54 0 7.73 1 7.73 4.77a4.6 4.6 0 0 1-3.87 4.45v.11a4.86 4.86 0 0 1 4.43 4.8c0 3.71-3.33 4.94-6.67 4.94h-11.11v-2.51zm6.35 5h2.37c1.23 0 2.17-.43 2.17-1.66s-.78-1.6-2.09-1.6h-2.45zm0 3.81v3.49h2.67c1.36 0 2.05-.56 2.05-1.7 0-1.42-1-1.79-2.32-1.79zm23.92 7.76l-2.4-6.89H213v6.89h-6.5v-19.07h9.81c3.63 0 7.36 1.28 7.36 6a5.55 5.55 0 0 1-2.9 5.2l3.38 7.81v.06zm-4-11.29h2.18c1.2 0 2.11-.4 2.11-1.68s-.91-1.7-2.19-1.7H213zm12.25 1.74c0-5.5 3.52-10 9.81-10s9.79 4.53 9.79 10-3.55 10.05-9.79 10.05-9.81-4.53-9.81-10.05zm12.29 0c0-4.19-.8-5.6-2.48-5.6s-2.48 1.41-2.48 5.6.75 5.62 2.48 5.62 2.48-1.41 2.48-5.62zm7.39-9.52h6.64l2.22 9.06h.05l2.62-9.06h4.72l2.74 9.06h.08l2-9.06h5.92l-5 19.07h-5.65l-2.85-9.37h-.06l-2.74 9.37h-5.45zm39.82 0h5.69v19.07H286l-7-9.31h-.05l.05 1.7v7.61h-5.71v-19.07h5.55l6 7.89h.05l-.05-1.68v-3.71zm26.54 11.89H305v7.18h-6.54v-19.07h13.68v4.64H305V282h6.29zm1.61-2.37c0-5.5 3.52-10 9.81-10s9.79 4.53 9.79 10-3.55 10.05-9.79 10.05-9.81-4.53-9.81-10.05zm12.29 0c0-4.19-.8-5.6-2.48-5.6s-2.48 1.41-2.48 5.6.75 5.62 2.48 5.62 2.48-1.41 2.48-5.62z" class="aba8ff1d-2917-410c-9a09-f70223e00dd8"/><path d="M341.3 288.29h-.05l-2.83 5.45h-6.88v-.06l5.95-10-5.5-9v-.05h7.6l2.54 4.8h.05l2.51-4.8h6.59v.05l-5.44 9.17 5.84 9.79v.06h-7.55z" class="aba8ff1d-2917-410c-9a09-f70223e00dd8"/><path d="M1.11 308.56V1.11h360" class="bb57fa18-9818-4fc7-a283-74609a48d976"/></g></g></svg>