<svg xmlns="http://www.w3.org/2000/svg" id="Layer_1" width="1440" height="804.6" viewBox="0 0 1440 804.6"><style>.st0{fill:#b3b3b3}</style><g id="Layer_2_1_"><g id="Layer_1-2"><path d="M57.4 590.3c0-28.8-.8-76.5-1.3-84.6-.8-11.8-2.9-16.2-16.6-16.2H18.3c-2.7 0-3.1-2.3-3.1-4.5v-10.3c0-2.3 0-3.2 3.1-3.2 4.9 0 21.2 1.3 58.6 1.3 43.7 0 62.7-1.3 66.7-1.3s4 1.3 4 3.6v10.3c0 2.2-.8 3.6-4.4 3.6h-27c-14 0-15.8 4.4-15.8 17.5 0 5.9-1.4 73.9-1.4 105.5v38.7c0 7.7 0 105.1 1.4 123.7 10.3.9 99.1 1.8 113.4 0 26.6-4 53.7-58.1 60-75.7.8-1.9 1.8-2.8 3.6-1.9l7.2 2.7c1.3.9 1.3 1.4.8 4.1S266 781 263.3 793.2c-5.9 0-41.2-.8-81-.8H33.5c-9.2 0-14.3.8-17.5.8s-4-.5-4-2.7v-11.3c0-2.3 0-3.2 3.2-3.2h21.5c16.7 0 19.4-6.3 19.4-12.2 0-8.6 1.3-120.7 1.3-148.3v-25.2z" class="st0"/><path d="M306.2 672.3c-1.1 7.2-1.6 14.4-1.3 21.7 0 44.1 27.9 77.4 63.9 77.4 22.5.5 43.4-11.4 54.5-30.9.6-1.6 2.3-2.5 4-2.3l5.9 3.2c1.3 0 2.3 1.8 0 6.7-12.4 29-40.6 48.2-72.2 49.2-27.4 1.8-53.9-10.2-70.7-32-15.8-23-19.8-39.7-19.8-71.2-.4-26.9 9.8-52.8 28.4-72.2 17.1-16.8 40.5-25.5 64.4-23.8 51.5 0 66.3 48.6 66.3 66.2 0 6.3-5.5 7.2-12.7 7.2l-110.7.8zm72.2-13.5c8.6 0 12.2-2.3 12.2-6.3 0-10.3-5.5-40.1-34.7-40.1-19.8 0-38.8 13-47.3 46.4h69.8zm90.5 107.7c-20.6-24.7-24.8-41.2-24.8-73.4 1.5-28.6 15.7-55.1 38.8-72.2 17.1-13.8 38.4-21.4 60.4-21.5 23.5.7 46 10 63.1 26.2 20 19.1 31.2 45.7 30.9 73.4-2.3 53.8-45.6 96.8-99.5 98.7-26.4.1-51.6-11.3-68.9-31.2zm130.2-72.2c0-50-36.5-81.6-59.5-81.6-13.1-.7-25.9 4.6-34.7 14.3-17.5 18-23.8 36.5-23.8 70.8-1.8 22.3 4.3 44.6 17.1 63 9.5 15.4 26.5 24.4 44.5 23.5 34.3-.3 56.9-42.3 56.9-90.4l-.5.4z" class="st0"/><path d="M635.6 625.5c-2.7 0-4.1-1.3-3.6-5.8l1.3-12.7c0-2.7 1.8-3.1 5.4-3.1h26.2v-8.1c-.6-31 10.1-61.1 30.2-84.7 17.9-22 44.6-35 73-35.6 21.5 0 44.1 8.6 54.4 25.3 17.4-22.1 44.1-34.8 72.2-34.2 17.1 0 33.9 3.5 49.6 10.3 4.4 2.3 4 4.5 4 9.5-.9 13.5-.9 107.2-.9 132v143.2c0 11.7 4 15.8 10.3 15.8h21.2c4.4 0 5.4 1.3 5.4 4v7.7c0 2.7-.9 4.4-3.2 4.4-2.3 0-20.6-1.3-50.4-1.3-29.8 0-42.4 1.3-46.4 1.3-2.3 0-3.2-1.8-3.2-4.4v-7.7c0-3.1.9-4 5.9-4h17.6c6.7 0 9-4.9 9.4-10.3V625.5h-92.8v140.2c.9 7.6 2.3 11.7 11.7 11.7h19c4 0 4.9.9 4.9 3.6v7.2c0 3.6-.9 5.4-3.2 5.4s-19.3-1.3-47.2-1.3c-18 0-41.2 1.3-44.6 1.3-3.4 0-3.6-.8-3.6-3.1v-10.3c0-2.3.9-3.2 4.5-3.2h14.8c8.6 0 10.3-5.4 10.3-15.8V625.5H695v140.2c.9 7.6 2.3 11.7 11.7 11.7h12.2c4.1 0 5.1.9 5.1 3.6v7.2c0 3.6-.9 5.4-3.2 5.4s-19.4-1.3-40.5-1.3c-24.8 0-47.8 1.3-51.5 1.3s-3.6-.8-3.6-3.1v-10.3c0-2.3.9-3.2 4.5-3.2h21.7c8.6 0 10.3-5.4 10.3-15.8V625.5h-26.1zm61.9-21.5h92.8v-8.1c0-35.2 7.6-60.8 18.5-76.2v-.8c-13.2 1.4-26.2-3.8-34.7-14-6-6.3-14.8-9.3-23.4-8-14.3-1.2-28.2 4.5-37.5 15.4-16.6 21.2-15.8 60.8-15.8 78.5l.1 13.2zm218.1 0c0-23.9 0-41.2-1.3-73-.9-26.2-13.6-42.9-34.3-42.9-14.9-.8-29.4 4.9-39.6 15.8-19.4 20.6-17.6 60-17.6 91.6v8.6h92.8zm105.7 68.3c-1.1 7.2-1.6 14.4-1.3 21.7 0 44.1 27.9 77.4 63.9 77.4 22.5.5 43.4-11.4 54.5-30.9.6-1.6 2.3-2.5 4-2.3l5.9 3.2c1.3 0 2.3 1.8 0 6.7-12.4 29-40.6 48.2-72.2 49.2-27.4 1.8-53.9-10.2-70.7-32-15.8-23-19.8-39.7-19.8-71.2-.4-26.9 9.8-52.8 28.4-72.2 17.1-16.8 40.5-25.5 64.4-23.8 51.5 0 66.3 48.7 66.3 66.2 0 6.3-5.5 7.2-12.7 7.2l-110.7.8zm71.7-13.5c8.6 0 12.2-2.3 12.2-6.3 0-10.3-5.5-40.1-34.7-40.1-19.8 0-38.8 13-47.3 46.4h69.8zm94.3 13.5c0-23-3.6-27.5-16.2-34.2l-8.6-4.5c-2.7-.9-3.6-1.3-3.6-3.2v-2.7c0-1.8.9-2.7 3.6-4l44.6-23c1.9-1.1 4.1-1.7 6.3-1.8 2.7 0 3.1 2.7 3.1 5.4l1.6 31.5h1.9c13.5-20.6 34.6-39.2 54-39.2 11.3-1.3 21.5 6.8 22.9 18.1.1.6.1 1.1.1 1.7.2 11.1-7.9 20.6-19 22.1-4.5-.2-9-1.4-13-3.5-4.6-2.5-9.7-3.8-14.9-3.6-11.6.9-21.8 8.2-26.5 18.9-2.3 4.5-3.8 9.4-4.5 14.4v93.7c0 13.9 3.1 18.5 12.6 18.5h21.2c2.7 0 3.1 1.3 3.1 4v8.1c0 2.7 0 4-2.3 4s-23.4-1.3-47.7-1.3c-27.9 0-46.8 1.3-49.6 1.3-2.8 0-2.7-.8-2.7-4.4v-7.7c0-3.1.9-4 4.9-4h18.2c6.7 0 10.3-2.7 10.3-8.6v-96zM59.4 124c0-27.2-.8-72.2-1.2-80-.8-11-3-15.4-15.3-15.4H22.3c-2.5 0-3-2.1-3-4.2V15c.1-2.1.6-2.9 3-2.9 4.8 0 20.6 1.2 55.5 1.2 41.2 0 59.1-1.2 62.9-1.2s3.8 1.2 3.8 3.4v9.7c0 2.2-.8 3.4-4.2 3.4h-25.2c-13.2 0-14.9 4.3-14.9 16.6 0 5.6-1.2 69.8-1.2 99.6v36.6c0 7.2 0 99.1 1.2 116.5 9.4.8 93.6 1.8 106.8 0 25.1-3.8 50.6-54.8 56.6-71.4.8-1.6 1.6-2.6 3.4-1.6l6.8 2.5c1.2.9 1.2 1.3.8 3.8-.4 2.5-18.2 73.2-20.6 84.7-5.6-.5-38.8-.9-76.6-.9H36.9c-9 0-14.1 1.3-17 1.3s-3.4-.9-3.4-3V303c0-2.2 0-3 2.9-3H40c15.8 0 18.4-6 18.4-11.5 0-8 1.2-114 1.2-139.9l-.2-24.6zm281.7 77.4c-1.1 6.8-1.6 13.7-1.3 20.6 0 41.2 26.4 73.1 60.4 73.1 21.2.6 41-10.5 51.5-28.9.6-1.6 2.3-2.5 3.9-2.2l5.5 3c1.3 0 2.2 1.8 0 6.4a76.777 76.777 0 0 1-67.6 46.2c-25.9 1.7-51-9.6-66.8-30.2-14-19.5-20.6-43.3-18.7-67.2-.3-25.2 9.3-49.5 26.8-67.6 16.1-15.9 38.2-24.2 60.8-22.6 48.9 0 62.5 46 62.5 62.6 0 5.9-5.1 6.8-11.9 6.8H341.1zm67.6-12.8c8 0 11.4-2.2 11.4-6 0-9.8-5.1-37.8-32.8-37.8-18.7 0-36.5 12.4-44.6 43.8h66zm103.1 101.7c-19.5-23.4-23.4-39.2-23.4-69.4 1.3-27.2 14.7-52.3 36.6-68.5 16.1-13.1 36.2-20.4 57-20.6 22.2.6 43.4 9.4 59.6 24.6 18.8 18.2 29.2 43.3 28.9 69.4-1.8 51.1-42.9 92-94 93.6-24.8.1-48.5-10.5-64.8-29.2l.1.1zm123-68.5c0-47.2-34.4-77-56.2-77-12.4-.6-24.5 4.4-32.8 13.6-16.5 17-22.5 34.4-22.5 66.8-1.7 21.1 4 42.2 16.2 59.5 9 14.5 25.1 23 42.1 22.2 32.2 0 53-39.6 53-85.1h.2zm66.8-64.6c-2.2 0-3-.9-2.2-4.7l1.6-12.8c.5-2.5 1.8-3 5.2-3h24.6V129c0-42.1 12-69.7 28.6-88.5 17-20.9 42.5-33.2 69.5-33.6 20 0 38.8 7.6 38.8 23.8-1 9.5-8.4 17.1-17.8 18.4-4.1 0-8.2-.8-12-2.6-3.9-2.7-7.4-6-10.3-9.8-4.4-6.5-11.7-10.4-19.6-10.3-12.4-.6-24.3 5-31.9 14.8-15.8 20-14.9 57-14.9 86.8v8h51.5c2.9 0 3.4 2.6 2.9 4.3l-2.1 14c0 1.6-2.2 2.2-5.6 2.2h-46.7v132.3c.9 7.2 2.2 11 11.1 11h24.2c3.8 0 4.6.8 4.6 3.4v6.8c0 3.4-.8 5.2-3 5.2s-18.2-1.3-51.5-1.3c-23.4 0-45.1 1.3-48.5 1.3-3.4 0-3.4-.9-3.4-3v-9.4c0-2.2.8-3 4.2-3h20.6c8.1 0 10.3-5.1 10.3-14.8V157.2h-28.2zm131.9 0c-2.2 0-3-.9-2.2-4.7l1.8-12.8c0-2.5 1.6-3 5.1-3h24.4V129c0-42.1 12-69.7 28.6-88.5 17-20.9 42.4-33.2 69.4-33.6 20.6 0 39.1 7.6 39.1 23.8-1 9.5-8.4 17.1-17.8 18.4-4.1 0-8.2-.8-12-2.6-3.9-2.7-7.4-6-10.3-9.8-4.4-6.5-11.7-10.4-19.6-10.3-12.4-.6-24.3 5-31.9 14.8-15.8 20-14.9 57-14.9 86.8v8h51.5c3 0 3.4 2.6 3 4.3l-2.2 14c0 1.6-2.2 2.2-5.6 2.2h-46.7v132.3c.8 7.2 2.1 11 11 11h24.2c3.8 0 4.6.8 4.6 3.4v6.8c0 3.4-.8 5.2-2.9 5.2s-18.4-1.3-51.5-1.3c-23.4 0-45.1 1.3-48.5 1.3-3.4 0-3.4-.9-3.4-3v-9.4c0-2.2.8-3 4.2-3h20.6c8.1 0 9.8-5.1 10.3-14.8V157.2h-28.3zm229.7 30.9v99.5c0 7.2 2.2 13.2 11 13.2h19.2c3.8 0 4.6 1.2 4.6 3.8v7.2c0 2.6-.8 4.3-2.5 4.3s-21.8-1.3-48.1-1.3c-26.4 0-44.2 1.3-48 1.3-2.2 0-3-1.8-3-4.3v-7.2c0-3 .8-3.8 5.6-3.8h20.6c4.6 0 9-3 9.4-10.3V152.6c0-30.2 0-68.9-1.3-80 .2-12.6-8.8-23.4-21.2-25.5l-7.6-3.6c-2.2-.8-2.6-1.3-2.6-2.2v-3.5c0-1.2 1.2-2.1 3.8-3 17-7 33.5-15.2 49.4-24.5 2.5-2 5.6-3.2 8.9-3.4 3 0 3.8 2.2 3.4 7.6 0 23.4-1.6 111.9-1.6 135.3v38.3zm86.3 13.6c-1 6.8-1.5 13.7-1.2 20.6 0 41.2 26.4 73.1 60.4 73.1 21.2.6 41-10.5 51.5-28.9.6-1.6 2.2-2.5 3.8-2.2l5.6 3c1.2 0 2.2 1.8 0 6.4-11.7 27.2-38 45.3-67.6 46.4-25.9 1.7-51-9.6-66.8-30.2-14-19.5-20.6-43.3-18.7-67.2-.3-25.2 9.3-49.5 26.8-67.6 16.1-15.9 38.2-24.2 60.8-22.6 48.9 0 62.5 46 62.5 62.6 0 5.9-5.1 6.8-11.9 6.8l-105.2-.2zm67.6-12.8c8.1 0 11.5-2.2 11.5-6 0-9.8-5.2-37.8-32.8-37.8-18.7 0-36.6 12.4-44.6 43.8h65.9zm106 12.8c0-21.8-3.4-26-15.4-32.4l-8-4.2c-2.6-.8-3.4-1.3-3.4-3v-2.6c0-1.6.8-2.6 3.4-3.8l42.3-22c1.8-1.1 3.9-1.7 6-1.8 2.6 0 3 2.6 3 5.2l2.2 30.2h1.6c12.8-19.6 32.8-37 51.5-37 10.5-1.4 20.2 5.9 21.6 16.4.1.7.2 1.5.2 2.2.1 10.4-7.6 19.3-17.9 20.6-4.3-.1-8.5-1.3-12.3-3.4-4.3-2.3-9.1-3.5-14-3.4-11 1.1-20.6 7.9-25.2 17.9-2.1 4.3-3.6 8.9-4.2 13.6v88.5c0 13.2 3 17.4 11.9 17.4h20c2.6 0 3 1.2 3 3.8v7.6c0 2.6 0 3.9-2.1 3.9s-22.2-1.3-45.2-1.3c-26.4 0-44.2 1.3-46.8 1.3-2.6 0-2.5-.9-2.5-4.3v-7.2c0-3 .8-3.8 4.6-3.8h16.6c6.4 0 9.4-2.6 9.4-8v-51.5l-.3-38.9z" class="st0"/></g></g></svg>