<svg xmlns="http://www.w3.org/2000/svg" id="Layer_1" viewBox="0 0 217 96.6" width="217" height="96.6"><style>.st0{fill:#b3b3b3}</style><path d="M42.5 12.8c-1.8 2.7-10.8 15.6-12.7 18.5 10.1.8 13.8 8.6 13.8 14.5 0 7.3-5.5 16.6-20.9 16.6-8.1 0-12-2.2-13.5-3.1l-.6-.7c.4-3.1.4-3.8.6-6.6l1.1-.6c1.8 1.5 5.5 4.5 12.2 4.5 7.2 0 12.1-3.9 12.1-9.6 0-6.4-5.3-9.2-11.4-9.2-3 0-4.5.4-6.3 1l-.9-1c2.8-3.5 10.5-13.9 13.5-18.3-7.7 0-10.4 0-19.1.2l-.7-.7c.2-2.6.2-3.3.2-5.6l.7-.8H33c4.5 0 6.5-.1 9-.1l.5 1zM42.2 88c-3.9 0-4.4 0-7.8-.1l-.3-.6C39.5 75.2 44.7 63 50 50.8c.6-1.5 10.5-24.9 15.4-38.1l.7-.6c3.7 0 4 0 7.5-.1l.4.7c-1.2 2.8-7.1 16.4-8.4 19.5-8 18.2-15.5 36.8-22.8 55.3l-.6.5zm54.5-12.6c-2.7-.1-3.5-.1-5.9-.1 0 5.7.1 6.6.2 12.1l-.7.8c-3.1 0-3.8-.1-7.4.1l-.7-.7c.2-5.8.2-6.5.3-12.3-10.5 0-12.1 0-22.9.1l-.6-.8c.1-2.6.1-3.1.2-4.9l.2-.8c4.8-7 14-21 19.4-29.9l.7-.6c5.3.1 6.3.1 11 0l.7.6c-.2 9.9-.2 12.1-.2 29.7 3.1-.1 3.5-.1 6.3-.2l.7.7c-.2 2.5-.2 2.7-.4 5.6l-.9.6zm-14-6.8v-7.1c.1-5.6.2-11.4.3-16.7-2.5 4.1-4.9 8.4-7.5 12.2L68 68.6h14.7zm123.1 8.2V37.3c-5 1.1-12.1 1.5-21.1 1.5h-9.1v-3.4c0-9.2 1.8-15.8 3.9-18.6 1.3-2.1 3.8-3.9 7.2-3.9 5.4 0 9.1 3.9 11.4 6.6 1.3 1.2 2.6 1.2 4 .4 1.1-.9 2.2-2.1 2.8-3.4.4-1.5.1-2.9-.8-4-1.2-1.8-4.9-5.2-12.6-5.2-4.3.3-9.8 2.4-14.2 6.1-.7.6-1.3 1.2-1.9 1.8-2.1-2.3-6.3-5.6-14-5.7-4.8.6-10.4 3-14.6 6.6-7 5.9-10.4 14-10.4 22.1v.6h-5.9l-2.5 3.4.4 1.2h8v33.1c0 7.3-.9 7.7-8 8.4V88h24.8v-3.1c-8.1-.9-8-1.1-8-9.1V43.4h21.4v33.1c0 7.3-.4 7.7-7.4 8.4V88h24.2v-3.1c-7.5-.9-8-1.1-8-9.1V43.4h15.5c5.6 0 5.9.8 5.9 5.8v27.6c0 7-.8 7.4-7.4 8.1V88H214v-3.1c-7.4-.7-8.2-1.1-8.2-8.1zm-39-38h-21.4v-2.7c0-9 2.5-21.2 12.7-21.2 6.8 0 10.3 3.8 12.5 6.9-2.5 4.5-3.7 9.5-3.7 14.7v2.3z" class="st0"/></svg>