<svg xmlns="http://www.w3.org/2000/svg" id="Layer_1" viewBox="0 0 800 447" width="800" height="447"><style>.st0{fill:#b3b3b3}</style><g id="Layer_2_1_"><g id="Layer_1-2"><path d="M25.6 329.7c0-16.3-.5-43.2-.7-47.8-.5-6.7-1.6-9.2-9.4-9.2h-12c-1.5 0-1.8-1.3-1.8-2.5v-5.8c0-1.3 0-1.8 1.8-1.8 2.8 0 12 .7 33.1.7 24.7 0 35.4-.7 37.7-.7s2.3.7 2.3 2v5.8c0 1.2-.5 2-2.5 2H58.9c-7.9 0-8.9 2.5-8.9 9.9 0 3.3-.8 41.7-.8 59.6v21.9c0 4.3 0 59.4.8 69.9 5.8.5 56 1 64.1 0 15-2.3 30.3-32.8 33.9-42.8.5-1.1 1-1.6 2-1.1l4.1 1.5c.7.5.7.8.5 2.3-.3 1.5-11 43.7-12.5 50.6-3.3 0-23.3-.5-45.8-.5H12.1c-5.2 0-8.1.5-9.9.5S0 444 0 442.8v-6.4c0-1.3 0-1.8 1.8-1.8H14c9.4 0 11-3.6 11-6.9 0-4.9.7-68.2.7-83.8-.1 0-.1-14.2-.1-14.2z" class="st0"/><path d="M166.2 376c-.6 4.1-.9 8.1-.7 12.3 0 24.9 15.8 43.7 36.1 43.7 12.7.3 24.5-6.4 30.8-17.5.3-.9 1.3-1.4 2.3-1.3l3.3 1.8c.7 0 1.3 1 0 3.8-7 16.4-22.9 27.2-40.8 27.8-15.5 1-30.4-5.8-39.9-18.1-8.9-13-11.2-22.4-11.2-40.2-.2-15.2 5.5-29.8 16-40.8 9.7-9.5 22.9-14.4 36.4-13.4 29.1 0 37.5 27.5 37.5 37.4 0 3.6-3.1 4.1-7.2 4.1l-62.6.4zm40.8-7.6c4.9 0 6.9-1.3 6.9-3.6 0-5.8-3.1-22.7-19.6-22.7-11.2 0-21.9 7.3-26.7 26.2l39.4.1zm51.1 60.8c-11.6-14-14-23.3-14-41.5.8-16.2 8.9-31.1 21.9-40.8 9.7-7.8 21.7-12.1 34.1-12.1 13.3.4 26 5.6 35.6 14.8 11.3 10.8 17.6 25.8 17.5 41.5-1.3 30.4-25.8 54.7-56.2 55.8-14.9 0-29.1-6.4-38.9-17.7zm73.6-40.7c0-28.2-20.6-46.1-33.6-46.1-7.4-.4-14.6 2.6-19.6 8.1-9.9 10.2-13.4 20.6-13.4 40-1 12.6 2.4 25.2 9.7 35.6 5.4 8.7 15 13.8 25.1 13.3 19.4-.2 32.1-23.9 32.1-51.1l-.3.2z" class="st0"/><path d="M352.3 349.6c-1.5 0-2.3-.7-2-3.3l.7-7.2c0-1.5 1-1.8 3.1-1.8h14.8v-4.6c-.3-17.5 5.7-34.5 17.1-47.8 10.1-12.4 25.2-19.8 41.2-20.1 12.1 0 24.9 4.9 30.7 14.3 9.8-12.5 24.9-19.7 40.8-19.3 9.7 0 19.2 2 28 5.8 2.5 1.3 2.3 2.5 2.3 5.4-.5 7.6-.5 60.6-.5 74.6v80.9c0 6.6 2.3 8.9 5.8 8.9h12c2.5 0 3.1.7 3.1 2.3v4.3c0 1.5-.5 2.5-1.8 2.5s-11.6-.7-28.5-.7-24 .7-26.2.7c-1.3 0-1.8-1-1.8-2.5v-4.3c0-1.8.5-2.3 3.3-2.3h9.9c3.8 0 5.1-2.8 5.3-5.8v-80h-52.4v79.2c.5 4.3 1.3 6.6 6.6 6.6h10.7c2.3 0 2.8.5 2.8 2v4.1c0 2-.5 3.1-1.8 3.1s-10.9-.7-26.7-.7c-10.2 0-23.3.7-25.2.7-1.9 0-2-.5-2-1.8V437c0-1.3.5-1.8 2.5-1.8h8.4c4.9 0 5.8-3.1 5.8-8.9v-76.7h-52.4v79.2c.5 4.3 1.3 6.6 6.6 6.6h6.9c2.3 0 2.9.5 2.9 2v4.1c0 2-.5 3.1-1.8 3.1s-11-.7-22.9-.7c-14 0-27 .7-29.1.7-2.1 0-2-.5-2-1.8V437c0-1.3.5-1.8 2.5-1.8h12.3c4.9 0 5.8-3.1 5.8-8.9v-76.7h-14.8zm35-12.2h52.4v-4.6c0-19.9 4.3-34.3 10.5-43v-.5c-7.5.8-14.8-2.1-19.6-7.9-3.4-3.6-8.4-5.3-13.2-4.5-8.1-.7-15.9 2.5-21.2 8.7-9.4 12-8.9 34.3-8.9 44.3v7.5zm123.2 0c0-13.5 0-23.3-.7-41.2-.5-14.8-7.7-24.2-19.4-24.2-8.4-.5-16.6 2.8-22.4 8.9-11 11.6-9.9 33.9-9.9 51.7v4.9l52.4-.1zm59.7 38.6c-.6 4.1-.9 8.1-.7 12.3 0 24.9 15.8 43.7 36.1 43.7 12.7.3 24.5-6.4 30.8-17.5.3-.9 1.3-1.4 2.3-1.3l3.3 1.8c.7 0 1.3 1 0 3.8-7 16.4-22.9 27.2-40.8 27.8-15.5 1-30.4-5.8-39.9-18.1-8.9-13-11.2-22.4-11.2-40.2-.2-15.2 5.5-29.8 16-40.8 9.7-9.5 22.9-14.4 36.4-13.4 29.1 0 37.5 27.5 37.5 37.4 0 3.6-3.1 4.1-7.2 4.1l-62.6.4zm40.5-7.6c4.9 0 6.9-1.3 6.9-3.6 0-5.8-3.1-22.7-19.6-22.7-11.2 0-21.9 7.3-26.7 26.2l39.4.1zM664 376c0-13-2-15.5-9.2-19.3l-4.9-2.5c-1.5-.5-2-.7-2-1.8v-1.5c0-1 .5-1.5 2-2.3l25.2-13c1.1-.6 2.3-1 3.6-1 1.5 0 1.8 1.5 1.8 3.1l.9 17.8h1.1c7.6-11.6 19.5-22.1 30.5-22.1 6.4-.7 12.1 3.8 12.9 10.2.1.3.1.6.1 1 .1 6.3-4.5 11.6-10.7 12.5-2.5-.1-5.1-.8-7.3-2-2.6-1.4-5.5-2.1-8.4-2-6.6.5-12.3 4.6-15 10.7-1.3 2.5-2.1 5.3-2.5 8.1v52.9c0 7.9 1.8 10.5 7.1 10.5h12c1.5 0 1.8.7 1.8 2.3v4.6c0 1.5 0 2.3-1.3 2.3s-13.2-.7-26.9-.7c-15.8 0-26.4.7-28 .7s-1.5-.5-1.5-2.5v-4.3c0-1.8.5-2.3 2.8-2.3h9.9c3.8 0 5.8-1.5 5.8-4.9V376h.2zM26.8 66.3c0-15.4-.5-40.8-.7-45.2-.5-6.2-1.7-8.7-8.6-8.7H5.8c-1.4 0-1.7-1.2-1.7-2.4V4.7c.1-1.2.3-1.6 1.7-1.6 2.7 0 11.6.7 31.4.7 23.3 0 33.4-.7 35.5-.7s2.1.7 2.1 1.9v5.5c0 1.2-.5 1.9-2.4 1.9H58.2c-7.5 0-8.4 2.4-8.4 9.4 0 3.2-.7 39.4-.7 56.3v20.7c0 4.1 0 56 .7 65.8 5.3.5 52.9 1 60.3 0 14.2-2.1 28.6-31 32-40.3.5-.9.9-1.5 1.9-.9l3.8 1.4c.7.5.7.7.5 2.1-.2 1.4-10.3 41.4-11.6 47.8-3.2-.3-21.9-.5-43.3-.5H14.1c-5.1 0-8 .7-9.6.7s-1.9-.5-1.9-1.7v-5.8c0-1.2 0-1.7 1.6-1.7h11.6c8.9 0 10.4-3.4 10.4-6.5 0-4.5.7-64.4.7-79l-.1-13.9zM185.9 110c-.6 3.8-.9 7.7-.7 11.6 0 23.3 14.9 41.3 34.1 41.3 12 .3 23.2-5.9 29.1-16.3.3-.9 1.3-1.4 2.2-1.2l3.1 1.7c.7 0 1.2 1 0 3.6-6.6 15.3-21.5 25.5-38.2 26.1-14.6 1-28.8-5.4-37.7-17.1-7.9-11-11.6-24.5-10.6-38-.2-14.2 5.3-28 15.1-38.2 9.1-9 21.6-13.7 34.3-12.8 27.6 0 35.3 26 35.3 35.4 0 3.3-2.9 3.8-6.7 3.8l-59.3.1zm38.2-7.2c4.5 0 6.4-1.2 6.4-3.4 0-5.5-2.9-21.4-18.5-21.4-10.6 0-20.6 7-25.2 24.7h37.3zm58.3 57.4c-11-13.2-13.2-22.1-13.2-39.2.7-15.4 8.3-29.5 20.7-38.7 9.1-7.4 20.5-11.5 32.2-11.6 12.5.3 24.5 5.3 33.7 13.9 10.6 10.3 16.5 24.5 16.3 39.2-1 28.9-24.2 52-53.1 52.9-14.1 0-27.5-6-36.6-16.5zm69.4-38.7c0-26.7-19.4-43.5-31.7-43.5-7-.3-13.8 2.5-18.5 7.7-9.3 9.6-12.7 19.4-12.7 37.7-1 11.9 2.3 23.8 9.2 33.6 5.1 8.2 14.2 13 23.8 12.5 18.2 0 29.9-22.4 29.9-48.1v.1zM389.6 85c-1.2 0-1.7-.5-1.2-2.7l.9-7.2c.3-1.4 1-1.7 2.9-1.7h13.9v-4.3c0-23.8 6.8-39.4 16.2-50 9.6-11.8 24-18.8 39.3-19 11.3 0 21.9 4.3 21.9 13.4-.6 5.4-4.7 9.7-10.1 10.4-2.3 0-4.6-.5-6.8-1.5-2.2-1.5-4.2-3.4-5.8-5.5-2.5-3.7-6.6-5.9-11.1-5.8-7-.3-13.7 2.8-18 8.4-8.9 11.3-8.4 32.2-8.4 49V73h29.1c1.6 0 1.9 1.5 1.6 2.4l-1.2 7.9c0 .9-1.2 1.2-3.2 1.2h-26.4v74.7c.5 4.1 1.2 6.2 6.3 6.2h13.7c2.1 0 2.6.5 2.6 1.9v3.8c0 1.9-.5 2.9-1.7 2.9s-10.3-.7-29.1-.7c-13.2 0-25.5.7-27.4.7s-1.9-.5-1.9-1.7V167c0-1.2.5-1.7 2.4-1.7h11.6c4.6 0 5.8-2.9 5.8-8.4V85h-15.9zm74.5 0c-1.2 0-1.7-.5-1.2-2.7l1-7.2c0-1.4.9-1.7 2.9-1.7h13.8v-4.3c0-23.8 6.8-39.4 16.2-50 9.6-11.8 24-18.8 39.2-19 11.6 0 22.1 4.3 22.1 13.4-.6 5.4-4.7 9.7-10.1 10.4-2.3 0-4.6-.5-6.8-1.5-2.2-1.5-4.2-3.4-5.8-5.5-2.5-3.7-6.6-5.9-11.1-5.8-7-.3-13.7 2.8-18 8.4-8.9 11.3-8.4 32.2-8.4 49V73H527c1.7 0 1.9 1.5 1.7 2.4l-1.2 7.9c0 .9-1.2 1.2-3.2 1.2h-26.4v74.7c.5 4.1 1.2 6.2 6.2 6.2h13.7c2.1 0 2.6.5 2.6 1.9v3.8c0 1.9-.5 2.9-1.6 2.9-1.2 0-10.4-.7-29.1-.7-13.2 0-25.5.7-27.4.7s-1.9-.5-1.9-1.7V167c0-1.2.5-1.7 2.4-1.7h11.6c4.6 0 5.5-2.9 5.8-8.4V85h-16.1zm129.8 17.5v56.2c0 4.1 1.2 7.5 6.2 7.5h10.8c2.1 0 2.6.7 2.6 2.1v4.1c0 1.5-.5 2.4-1.4 2.4-1 0-12.3-.7-27.2-.7-14.9 0-25 .7-27.1.7-1.2 0-1.7-1-1.7-2.4v-4.1c0-1.7.5-2.1 3.2-2.1h11.6c2.6 0 5.1-1.7 5.3-5.8v-78c0-17.1 0-38.9-.7-45.2.1-7.1-5-13.2-12-14.4l-4.3-2c-1.2-.5-1.5-.7-1.5-1.2v-2c0-.7.7-1.2 2.1-1.7 9.6-4 18.9-8.6 27.9-13.8 1.4-1.1 3.2-1.8 5-1.9 1.7 0 2.1 1.2 1.9 4.3 0 13.2-.9 63.2-.9 76.4v21.6h.2zm48.7 7.7c-.6 3.8-.8 7.7-.7 11.6 0 23.3 14.9 41.3 34.1 41.3 12 .3 23.2-5.9 29.1-16.3.3-.9 1.2-1.4 2.1-1.2l3.2 1.7c.7 0 1.2 1 0 3.6-6.6 15.4-21.5 25.6-38.2 26.2-14.6 1-28.8-5.4-37.7-17.1-7.9-11-11.6-24.5-10.6-38-.2-14.2 5.3-28 15.1-38.2 9.1-9 21.6-13.7 34.3-12.8 27.6 0 35.3 26 35.3 35.4 0 3.3-2.9 3.8-6.7 3.8h-59.3zm38.2-7.3c4.6 0 6.5-1.2 6.5-3.4 0-5.5-2.9-21.4-18.5-21.4-10.6 0-20.7 7-25.2 24.7h37.2zm59.9 7.3c0-12.3-1.9-14.7-8.7-18.3l-4.5-2.4c-1.5-.5-1.9-.7-1.9-1.7v-1.5c0-.9.5-1.5 1.9-2.1l23.9-12.4c1-.6 2.2-1 3.4-1 1.5 0 1.7 1.5 1.7 2.9l1.2 17.1h.9c7.2-11.1 18.5-20.9 29.1-20.9 5.9-.8 11.4 3.3 12.2 9.3.1.4.1.8.1 1.2.1 5.9-4.3 10.9-10.1 11.6-2.4-.1-4.8-.7-6.9-1.9-2.4-1.3-5.1-2-7.9-1.9-6.2.6-11.6 4.5-14.2 10.1-1.2 2.4-2 5-2.4 7.7v50c0 7.5 1.7 9.8 6.7 9.8h11.3c1.5 0 1.7.7 1.7 2.1v4.3c0 1.5 0 2.2-1.2 2.2s-12.5-.7-25.5-.7c-14.9 0-25 .7-26.4.7-1.5 0-1.4-.5-1.4-2.4v-4.1c0-1.7.5-2.1 2.6-2.1h9.4c3.6 0 5.3-1.5 5.3-4.5v-29.1l-.3-22z" class="st0"/></g></g></svg>