<svg xmlns="http://www.w3.org/2000/svg" id="Layer_1" width="1440" height="586.3" viewBox="0 0 1440 586.3"><style>.st0{fill:#b3b3b3}</style><path d="M245.9 47c-12.4 18.6-74.4 107.5-87.5 127.5 69.6 5.5 95.1 59.3 95.1 99.9 0 50.3-37.9 114.4-144 114.4-55.8 0-82.7-15.2-93-21.4l-4.1-4.8c2.8-21.4 2.8-26.2 4.1-45.5L24 313c12.4 10.3 37.9 31 84.1 31 49.6 0 83.4-26.9 83.4-66.2 0-44.1-36.5-63.4-78.6-63.4-20.7 0-31 2.8-43.4 6.9l-6.2-6.9c19.3-24.1 72.4-95.8 93-126.1-53.1 0-71.7 0-131.6 1.4l-4.8-4.8c1.4-17.9 1.4-22.7 1.4-38.6l4.8-5.5h154.4c31 0 44.8-.7 62-.7l3.4 6.9zm-2.1 518.2c-26.9 0-30.3 0-53.7-.7l-2.1-4.1C225.2 477 261 393 297.6 308.9c4.1-10.3 72.4-171.6 106.1-262.5l4.8-4.1c25.5 0 27.6 0 51.7-.7l2.8 4.8c-8.3 19.3-48.9 113-57.9 134.4C350 306.1 298.3 434.3 248 561.8l-4.2 3.4zm375.6-86.8c-18.6-.7-24.1-.7-40.7-.7 0 39.3.7 45.5 1.4 83.4l-4.8 5.5c-21.4 0-26.2-.7-51 .7l-4.8-4.8c1.4-40 1.4-44.8 2.1-84.8-72.4 0-83.4 0-157.8.7l-4.1-5.5c.7-17.9.7-21.4 1.4-33.8l1.4-5.5c33.1-48.2 96.5-144.7 133.7-206l4.8-4.1c36.5.7 43.4.7 75.8 0l4.8 4.1c-1.4 68.2-1.4 83.4-1.4 204.7 21.4-.7 24.1-.7 43.4-1.4l4.8 4.8c-1.4 17.2-1.4 18.6-2.8 38.6l-6.2 4.1zm-96.5-46.9v-48.9c.7-38.6 1.4-78.6 2.1-115.1-17.2 28.3-33.8 57.9-51.7 84.1l-51.7 79.9h101.3zm848.3 56.5V215.8c-34.5 7.6-83.4 10.3-145.4 10.3h-62.7v-23.4c0-63.4 12.4-108.9 26.9-128.2 9-14.5 26.2-26.9 49.6-26.9 37.2 0 62.7 26.9 78.6 45.5 9 8.3 17.9 8.3 27.6 2.8 7.6-6.2 15.2-14.5 19.3-23.4 2.8-10.3.7-20-5.5-27.6-8.3-12.4-33.8-35.8-86.8-35.8-29.6 2.1-67.5 16.5-97.9 42-4.8 4.1-9 8.3-13.1 12.4-14.5-15.8-43.4-38.6-96.5-39.3-33.1 4.1-71.7 20.7-100.6 45.5C916.4 110.4 893 166.2 893 222v4.1h-40.7l-17.2 23.4 2.8 8.3H893V486c0 50.3-6.2 53.1-55.1 57.9v21.4h170.9v-21.4c-55.8-6.2-55.1-7.6-55.1-62.7V257.9h147.5V486c0 50.3-2.8 53.1-51 57.9v21.4H1217v-21.4c-51.7-6.2-55.1-7.6-55.1-62.7V257.9h106.8c38.6 0 40.7 5.5 40.7 40V488c0 48.2-5.5 51-51 55.8v21.4h169.5v-21.4c-51.2-4.8-56.7-7.5-56.7-55.8zm-268.8-261.8H955v-18.6c0-62 17.2-146.1 87.5-146.1 46.9 0 71 26.2 86.1 47.5-17.2 31-25.5 65.5-25.5 101.3v15.8l-.7.1z" class="st0"/></svg>