<svg xmlns="http://www.w3.org/2000/svg" viewBox="0 0 137.26 76.69" width="137.26" height="76.69"><defs><style>.cls-1{fill:#b3b3b3}</style></defs><g id="Layer_2"><g id="Layer_1-2"><path d="M4.41 56.58c0-2.79-.08-7.42-.13-8.21C4.2 47.23 4 46.8 2.67 46.8H.61c-.26 0-.3-.22-.3-.44v-1c0-.22 0-.31.3-.31.48 0 2.06.13 5.68.13 4.24 0 6.08-.13 6.47-.13s.39.13.39.35v1c0 .21-.08.35-.43.35H10.1c-1.36 0-1.53.43-1.53 1.7 0 .57-.14 7.17-.14 10.23v3.75c0 .75 0 10.19.14 12 1 .09 9.61.17 11 0 2.58-.39 5.21-5.64 5.82-7.34.08-.18.17-.27.35-.18l.7.26c.13.09.13.14.08.4s-1.88 7.51-2.14 8.69c-.57 0-4-.08-7.86-.08H2.09c-.89 0-1.39.08-1.7.08S0 76.21 0 76v-1.1c0-.22 0-.31.31-.31H2.4c1.62 0 1.88-.61 1.88-1.18 0-.83.13-11.71.13-14.38z" class="cls-1"/><path d="M28.54 64.54a11 11 0 0 0-.13 2.1c0 4.28 2.71 7.51 6.2 7.51a5.92 5.92 0 0 0 5.29-3 .36.36 0 0 1 .39-.22l.57.31c.13 0 .22.17 0 .65a7.87 7.87 0 0 1-7 4.77 8 8 0 0 1-6.86-3.1c-1.53-2.23-1.92-3.85-1.92-6.91a9.88 9.88 0 0 1 2.75-7 8.11 8.11 0 0 1 6.25-2.31c5 0 6.43 4.71 6.43 6.42 0 .61-.53.7-1.23.7zm7-1.31c.83 0 1.18-.22 1.18-.61 0-1-.53-3.89-3.37-3.89-1.92 0-3.76 1.26-4.59 4.5zm8.78 10.44c-2-2.4-2.41-4-2.41-7.12a9.3 9.3 0 0 1 3.76-7 9.44 9.44 0 0 1 5.86-2.09A9.28 9.28 0 0 1 57.65 60a9.72 9.72 0 0 1 3 7.12A10 10 0 0 1 51 76.69a8.78 8.78 0 0 1-6.68-3.02zm12.63-7c0-4.85-3.54-7.91-5.77-7.91a4.24 4.24 0 0 0-3.37 1.39c-1.7 1.75-2.31 3.54-2.31 6.87a9.4 9.4 0 0 0 1.66 6.11 4.81 4.81 0 0 0 4.32 2.28c3.33-.03 5.52-4.1 5.52-8.77z" class="cls-1"/><path d="M60.49 60c-.26 0-.4-.13-.35-.56l.13-1.23c0-.26.17-.3.52-.3h2.54v-.79a12.3 12.3 0 0 1 2.93-8.22 9.35 9.35 0 0 1 7.08-3.45c2.09 0 4.28.83 5.28 2.45a8.69 8.69 0 0 1 7-3.32 12.12 12.12 0 0 1 4.81 1c.43.22.39.44.39.92-.09 1.31-.09 10.4-.09 12.8v13.89c0 1.13.39 1.53 1 1.53h2.06c.43 0 .52.13.52.39v.75c0 .26-.09.43-.31.43s-2-.13-4.89-.13-4.11.13-4.5.13c-.22 0-.31-.17-.31-.43v-.75c0-.3.09-.39.57-.39h1.71c.65 0 .87-.48.91-1V60h-9v13.6c.09.74.22 1.13 1.13 1.13h1.84c.39 0 .48.09.48.35v.7c0 .35-.09.52-.31.52s-1.87-.13-4.58-.13c-1.75 0-4 .13-4.33.13s-.35-.08-.35-.3v-1c0-.22.09-.31.44-.31h1.44c.83 0 1-.52 1-1.53V60h-9v13.6c.09.74.22 1.13 1.13 1.13h1.18c.4 0 .49.09.49.35v.7c0 .35-.09.52-.31.52s-1.88-.13-3.93-.13c-2.41 0-4.64.13-5 .13s-.35-.08-.35-.3v-1c0-.22.09-.31.44-.31H62c.83 0 1-.52 1-1.53V60zm6-2.09h9v-.79c0-3.41.74-5.9 1.79-7.39v-.08a3.86 3.86 0 0 1-3.37-1.36 2.61 2.61 0 0 0-2.27-.78A4.31 4.31 0 0 0 68 49c-1.61 2.06-1.53 5.9-1.53 7.61zm21.16 0c0-2.32 0-4-.13-7.08-.09-2.54-1.32-4.16-3.33-4.16a4.9 4.9 0 0 0-3.84 1.53c-1.88 2-1.71 5.82-1.71 8.88v.83zm10.25 6.63a11 11 0 0 0-.13 2.1c0 4.28 2.71 7.51 6.2 7.51a5.92 5.92 0 0 0 5.29-3 .36.36 0 0 1 .39-.22l.57.31c.13 0 .22.17 0 .65a7.87 7.87 0 0 1-7 4.77 8 8 0 0 1-6.86-3.1c-1.53-2.23-1.92-3.85-1.92-6.91a9.88 9.88 0 0 1 2.75-7 8.11 8.11 0 0 1 6.25-2.31c5 0 6.43 4.72 6.43 6.42 0 .61-.53.7-1.23.7zm6.95-1.31c.83 0 1.18-.22 1.18-.61 0-1-.53-3.89-3.37-3.89-1.92 0-3.76 1.26-4.59 4.5zm9.15 1.31c0-2.23-.35-2.67-1.57-3.32l-.83-.44c-.26-.09-.35-.13-.35-.31v-.26c0-.17.09-.26.35-.39l4.33-2.23a1.29 1.29 0 0 1 .61-.17c.26 0 .3.26.3.52L117 61h.18c1.31-2 3.36-3.8 5.24-3.8a2 2 0 0 1 2.23 1.92 2.11 2.11 0 0 1-1.84 2.14 2.9 2.9 0 0 1-1.26-.34 2.83 2.83 0 0 0-1.45-.35 3.08 3.08 0 0 0-2.57 1.83 4.52 4.52 0 0 0-.44 1.4v9.09c0 1.35.3 1.79 1.22 1.79h2.06c.26 0 .3.13.3.39v.79c0 .26 0 .39-.22.39s-2.27-.13-4.63-.13c-2.71 0-4.54.13-4.81.13s-.26-.08-.26-.43v-.75c0-.3.09-.39.48-.39H113c.65 0 1-.26 1-.83v-5.24zM4.6 11.35c0-2.64-.08-7-.12-7.76C4.4 2.52 4.19 2.1 3 2.1H1c-.24 0-.29-.2-.29-.41V.78C.72.58.77.5 1 .5c.47 0 2 .12 5.38.12 4 0 5.73-.12 6.1-.12s.37.12.37.33v.94c0 .21-.08.33-.41.33H10c-1.28 0-1.45.42-1.45 1.61 0 .54-.12 6.77-.12 9.66v3.55c0 .7 0 9.61.12 11.3.91.08 9.08.17 10.36 0 2.43-.37 4.91-5.32 5.49-6.93.08-.16.16-.25.33-.16l.66.24c.12.09.12.13.08.37s-1.77 7.1-2 8.22c-.54-.05-3.76-.09-7.43-.09H2.42c-.87 0-1.37.13-1.65.13s-.33-.09-.33-.29v-1c0-.21 0-.29.28-.29h2c1.53 0 1.78-.58 1.78-1.12 0-.78.12-11.06.12-13.57zm27.32 7.51a9.81 9.81 0 0 0-.13 2c0 4 2.56 7.09 5.86 7.09a5.58 5.58 0 0 0 5-2.8.34.34 0 0 1 .38-.21l.53.29c.13 0 .21.17 0 .62A7.44 7.44 0 0 1 37 30.33a7.56 7.56 0 0 1-6.48-2.93 9.85 9.85 0 0 1-1.81-6.52 9.26 9.26 0 0 1 2.6-6.56 7.63 7.63 0 0 1 5.9-2.19c4.74 0 6.06 4.46 6.06 6.07 0 .57-.49.66-1.15.66zm6.56-1.24c.78 0 1.11-.21 1.11-.58 0-.95-.49-3.67-3.18-3.67-1.81 0-3.54 1.2-4.33 4.25zm10 9.86c-1.89-2.27-2.27-3.8-2.27-6.73a8.79 8.79 0 0 1 3.55-6.64 8.94 8.94 0 0 1 5.53-2 8.78 8.78 0 0 1 5.78 2.39 9.2 9.2 0 0 1 2.8 6.73 9.42 9.42 0 0 1-9.12 9.08 8.34 8.34 0 0 1-6.29-2.83zm11.93-6.64c0-4.58-3.34-7.47-5.45-7.47a4 4 0 0 0-3.18 1.32c-1.6 1.65-2.18 3.34-2.18 6.48a8.81 8.81 0 0 0 1.57 5.77 4.55 4.55 0 0 0 4.08 2.15c3.12 0 5.14-3.84 5.14-8.25zm6.48-6.27c-.21 0-.29-.09-.21-.46l.16-1.24c.05-.24.17-.29.5-.29h2.39v-.74c0-4.08 1.16-6.76 2.77-8.58A8.85 8.85 0 0 1 79.24 0C81.18 0 83 .74 83 2.31a2 2 0 0 1-1.73 1.78 2.71 2.71 0 0 1-1.16-.25 4.77 4.77 0 0 1-1-.95 2.27 2.27 0 0 0-1.9-1 3.67 3.67 0 0 0-3.09 1.44c-1.53 1.94-1.45 5.53-1.45 8.42v.78h5c.28 0 .33.25.28.42l-.2 1.36c0 .16-.21.21-.54.21h-4.53v12.83c.09.7.21 1.07 1.08 1.07h2.35c.37 0 .45.08.45.33v.66c0 .33-.08.5-.29.5s-1.77-.13-5-.13c-2.27 0-4.37.13-4.7.13s-.33-.09-.33-.29v-.91c0-.21.08-.29.41-.29h2c.79 0 1-.49 1-1.44V14.57zm12.79 0c-.21 0-.29-.09-.21-.46l.17-1.24c0-.24.16-.29.49-.29h2.37v-.74c0-4.08 1.16-6.76 2.77-8.58A8.86 8.86 0 0 1 92 0c2 0 3.79.74 3.79 2.31a2 2 0 0 1-1.73 1.78 2.71 2.71 0 0 1-1.16-.25 4.77 4.77 0 0 1-1-.95 2.27 2.27 0 0 0-1.9-1 3.68 3.68 0 0 0-3.09 1.44c-1.53 1.94-1.45 5.53-1.45 8.42v.78h5c.29 0 .33.25.29.42l-.21 1.36c0 .16-.21.21-.54.21h-4.53v12.83c.08.7.2 1.07 1.07 1.07h2.35c.37 0 .45.08.45.33v.66c0 .33-.08.5-.28.5s-1.78-.13-5-.13c-2.27 0-4.37.13-4.7.13s-.33-.09-.33-.29v-.91c0-.21.08-.29.41-.29h2c.79 0 .95-.49 1-1.44V14.57zm22.28 3v9.65c0 .7.21 1.28 1.07 1.28h1.86c.37 0 .45.12.45.37v.7c0 .25-.08.42-.24.42s-2.11-.13-4.67-.13-4.29.13-4.66.13c-.21 0-.29-.17-.29-.42v-.7c0-.29.08-.37.54-.37h2c.45 0 .87-.29.91-1V14.13c0-2.93 0-6.68-.13-7.76a2.47 2.47 0 0 0-2.06-2.47L96 3.55c-.21-.08-.25-.13-.25-.21V3c0-.12.12-.2.37-.29a37.85 37.85 0 0 0 4.79-2.38 1.51 1.51 0 0 1 .86-.33c.29 0 .37.21.33.74 0 2.27-.16 10.85-.16 13.12zm8.37 1.32a10.9 10.9 0 0 0-.12 2c0 4 2.56 7.09 5.86 7.09a5.58 5.58 0 0 0 5-2.8.33.33 0 0 1 .37-.21l.54.29c.12 0 .21.17 0 .62a7.44 7.44 0 0 1-6.56 4.5 7.56 7.56 0 0 1-6.48-2.93 9.85 9.85 0 0 1-1.81-6.52 9.26 9.26 0 0 1 2.6-6.56 7.62 7.62 0 0 1 5.9-2.19c4.74 0 6.06 4.46 6.06 6.07 0 .57-.49.66-1.15.66zm6.56-1.24c.79 0 1.12-.21 1.12-.58 0-.95-.5-3.67-3.18-3.67-1.81 0-3.55 1.2-4.33 4.25zm10.28 1.24c0-2.11-.33-2.52-1.49-3.14l-.78-.41c-.25-.08-.33-.13-.33-.29v-.25c0-.16.08-.25.33-.37l4.1-2.13a1.22 1.22 0 0 1 .58-.17c.25 0 .29.25.29.5l.21 2.93h.16c1.24-1.9 3.18-3.59 5-3.59a1.86 1.86 0 0 1 2.11 1.81 2 2 0 0 1-1.74 2 2.63 2.63 0 0 1-1.19-.33 2.73 2.73 0 0 0-1.36-.33 3 3 0 0 0-2.44 1.74 4.27 4.27 0 0 0-.41 1.32v8.58c0 1.28.29 1.69 1.15 1.69h1.94c.25 0 .29.12.29.37v.74c0 .25 0 .38-.2.38s-2.15-.13-4.38-.13c-2.56 0-4.29.13-4.54.13s-.24-.09-.24-.42v-.7c0-.29.08-.37.45-.37h1.61c.62 0 .91-.25.91-.78v-5z" class="cls-1"/></g></g></svg>