<svg xmlns="http://www.w3.org/2000/svg" id="Layer_1" viewBox="0 0 800 389.8" width="800" height="389.8"><style>.st0{fill:#b3b3b3}</style><path d="M0 76.6h8.8V21.7H0V8.9h32.8v12.9h-8.7v53.9h19.3V65.1h15.3v24.4H0V76.6zm116 0h7.8v12.9h-20.4V82c-4 5.8-11.2 9-18.2 9-6.4 0-12.5-2.7-16.7-7.7-4.5-5.1-5.4-10.8-5.4-17.3V42.1h-7.8V29.2h21.5v32.6c0 3.8.1 8 2.3 11.3 2.2 3.5 6.1 5.2 10.1 5.2 3.8 0 7.8-1.9 10.1-5 2.6-3.6 2.6-7.7 2.6-11.9V42.1h-7.8V29.2h21.5v47.4h.4zm33.6-38.7c4.3-6.3 10.9-9.6 18.6-9.6 17.1 0 31 14 31 31 0 7.8-2.8 15.5-8.1 21.2-5.3 5.8-13.4 9.8-21.3 9.8-8 0-15.6-3.4-20.2-9.9v9H128V76.6h7.8V21.7H128V8.9h21.5c.1 0 .1 29 .1 29zM149 59c0 10.5 8.2 18.6 18.6 18.6 10.1 0 17.9-8.7 17.9-18.5 0-10-8.2-18.3-18.3-18.3S149 48.9 149 59zm103.3 22.3c-4.4 6.6-11.5 9.7-19.4 9.7-17.2 0-30.9-14.3-30.9-31.4 0-17.5 14-32.1 31.6-32.1 7.8 0 14.5 3.6 18.7 10.1V29h21.5v13h-7.6v34.5h7.6v12.9h-21.5v-8.1zm.2-22.3c0-9.9-8.2-17.9-18.2-17.9-10.3 0-18.2 8.5-18.2 18.6 0 9.8 8.2 17.9 17.9 17.9 10.5 0 18.5-8.3 18.5-18.6zm46.6 17.6h7.8v12.9H277V76.6h8.4V21.7h-7.8V8.9h21.5v67.7zm33.6 0h7.8v12.9h-29.4V76.6h7.9V42.1h-7.8V29.2h21.5v47.4zm0-53.1H319V8.9h13.7v14.6zm19.8 18.6h-7.8V29.2h21.5v8.6c3.6-6.6 10.4-9.9 17.8-9.9 6.5 0 13 2.7 17.4 7.4 5 5.6 5.1 10.8 5.1 17.7v23.6h7.8v12.9H385V76.6h7.8V57.1c0-3.7 0-7.6-2.3-10.8-2.5-3.3-6.5-4.9-10.6-4.9-4.2 0-8.5 1.7-10.9 5.1-2.6 3.4-2.6 8.6-2.6 12.7v17.5h7.8v12.9h-29.3v-13h7.8l-.2-34.5zm181.2 47.3h-12.8V77c-6.2 9.3-17 14-28 14-23.3 0-41.9-18.9-41.9-42.1 0-10.9 3.8-21.1 11.4-29.1 7.8-8.1 19.1-13.1 30.2-13.1 9.7 0 18 3.3 25.4 9.6V8.8h12.7v23.7H514c-2.6-3.5-5.7-6.1-9.2-7.8-3.5-1.8-7.4-2.7-11.9-2.7-15 0-26.5 11.7-26.5 26.6 0 14.8 11.5 27 26.4 27 10.7 0 19.8-5.8 23.7-15.8h-29.8V46.9h46.8l.2 42.5zm25.6-50c3.5-7.1 10.3-10.6 18-10.9v14.1c-4.4.2-8.5 1.4-11.9 4.4-4.5 3.8-5.2 8.7-5.2 14.3v15.2h7.8v12.9h-29.3V76.5h7.8V42.1h-7.8V29.2h20.6v10.2zm72.1 41.9C627 87.9 619.9 91 612 91c-17.2 0-30.9-14.3-30.9-31.4 0-17.5 14-32.1 31.6-32.1 7.8 0 14.5 3.6 18.7 10.1V29h21.5v13h-7.6v34.5h7.6v12.9h-21.5v-8.1zm.2-22.3c0-9.9-8.2-17.9-18.2-17.9-10.3 0-18.2 8.5-18.2 18.6 0 9.8 8.2 17.9 17.9 17.9 10.5 0 18.5-8.3 18.5-18.6zm32.2-16.9h-7.7V29.2h21.5v9.5c4.4-6.9 11.6-10.1 19.8-10.1 17.1 0 30.7 14 30.7 31 0 16.5-13.3 30.8-30 30.8-7.9 0-15.6-3-20.4-9.4v17.6h7.8v12.9h-29.3V98.6h7.7V42.1h-.1zm50.1 17.4c0-9.8-7.8-18.4-17.8-18.4-10.1 0-18.5 7.9-18.5 18.3 0 10 8.1 18.2 18.2 18.2 9.8 0 18.1-8.1 18.1-18.1zm38.2-21.3c3.8-6.8 10.3-10.4 18-10.4 7 0 13 3.3 17.1 8.8 4.5 6.1 5 12 5 19.2v20.8h7.8v12.9h-29.3V76.7h7.8V59.6c0-4.4.3-8.8-2-12.7-2.5-3.8-6.5-5.6-10.9-5.6-4.1 0-7.9 1.7-10.4 4.9-3 3.7-2.9 7.6-2.9 12.1v18.3h7.8v12.9h-29.3V76.6h7.8V21.7h-7.8V8.9h21.5v29.4l-.2-.1zm-729.7 337v-2.7h3.8l-2.9-6.6H9.9l-3 6.6h3.7v2.7H.3v-2.7h3.6l10.5-23.7h-3.9v-2.7h7.6l11.4 26.3h3.6v2.7l-10.7.1zm-5.7-25.7l-6 14h11.7c.1 0-5.7-14-5.7-14zm23.4 8.7c1-3 3.8-4.2 6.8-4.4v2.5c-4.7.4-6.8 3.1-6.8 7.7v8.6h3.6v2.5h-9.8v-2.5h3.6v-16.3h-3.6v-2.5h6.2v4.4zm15.1 14.5h5v2.5h-7.7v-18.8h-4.1v-2.5h4.1v-7.7h2.7v7.7h4.7v2.5h-4.7v16.3zm38.1-2c-1.8 3.1-5 5.1-8.7 5.1-3.4 0-7.3-2.1-9.2-5.1-1.1-1.7-1.9-4-1.9-6.1 0-6 5-11.1 10.9-11.1 3.7 0 7.2 1.9 8.9 5.3v-10.1h-3.6v-2.5H96v26.5h3.6v2.5h-6.2v-4.5zm.2-6.1c0-4.7-3.8-8.5-8.5-8.5-4.8 0-8.6 3.9-8.6 8.6 0 4.7 4 8.5 8.6 8.5 4.7.1 8.5-3.8 8.5-8.6zm13.3 8.1h3.6v2.5h-9.9v-2.5h3.7v-16.3h-3.6v-2.5h6.2v18.8zm0-22.3h-2.7v-4.2h2.7v4.2zm10.5 7.8c1-3 3.8-4.2 6.8-4.4v2.5c-4.7.4-6.8 3.1-6.8 7.7v8.6h3.6v2.5H111v-2.5h3.6v-16.3H111v-2.5h6.2l.1 4.4zm30.8 11.1c-1.8 4-5.8 6.5-10.1 6.5-6.1 0-11.1-4.9-11.1-11s4.8-11.2 10.9-11.2c6.4 0 11.2 4.9 11.2 11.2v.8h-19.5c.2 4.4 4 7.8 8.4 7.8 3.1 0 5.8-1.5 7.4-4.1h2.8zm-1.7-5.9c-.6-4.4-4.4-7.4-8.7-7.4-4.1 0-7.7 3.4-8.2 7.4h16.9zm24.9-3h-2.5c-1.5-2.5-4.4-4.1-7.3-4.1-4.7 0-8.4 3.8-8.4 8.5 0 4.8 3.8 8.4 8.6 8.4 3 0 6.1-1.7 7.3-4.5h3c-1.6 4.4-5.9 7.2-10.5 7.2-6.1 0-11.1-5-11.1-11 0-3 1.2-5.8 3.1-7.8 2-2.1 4.7-3.4 7.8-3.4 3 0 5.5 1.2 7.4 3.4v-3h2.5l.1 6.3zm8.6 12.3h5v2.5h-7.7v-18.8h-4.1v-2.5h4.1v-7.7h2.7v7.7h4.7v2.5h-4.7v16.3zm27.5-3.4c-1.8 4-5.8 6.5-10.1 6.5-6.1 0-11.1-4.9-11.1-11s4.8-11.2 10.9-11.2c6.4 0 11.2 4.9 11.2 11.2v.8h-19.5c.2 4.4 4 7.8 8.4 7.8 3.1 0 5.8-1.5 7.4-4.1h2.8zm-1.7-5.9c-.6-4.4-4.4-7.4-8.7-7.4-4.1 0-7.7 3.4-8.2 7.4h16.9zm23.7 7.3c-1.8 3.1-5 5.1-8.7 5.1-3.4 0-7.3-2.1-9.2-5.1-1.1-1.7-1.9-4-1.9-6.1 0-6 5-11.1 10.9-11.1 3.7 0 7.2 1.9 8.9 5.3v-10.1h-3.6v-2.5h6.2v26.5h3.6v2.5h-6.2v-4.5zm.1-6.1c0-4.7-3.8-8.5-8.5-8.5-4.8 0-8.6 3.9-8.6 8.6 0 4.7 4 8.5 8.6 8.5 4.7.1 8.5-3.8 8.5-8.6zm25.4-5.9c1.7-3.1 4.8-5.1 8.4-5.1 6.2 0 11.2 5 11.2 11.2 0 2.3-.8 4.5-1.8 6.1-1.5 2.5-5.1 5-9 5-3.7 0-6.9-1.8-8.8-5v4.4h-6.2v-2.5h3.6v-23.9h-3.6v-2.5h6.2v12.3zm16.9 5.9c0-4.6-3.8-8.4-8.4-8.4-4.8 0-8.6 3.7-8.6 8.5s3.9 8.4 8.6 8.4c4.7 0 8.4-3.8 8.4-8.5zm14.9 16h3.5v2.5h-9.8v-2.5h3.6l2.2-5.2-7.5-19h-3.4v-2.5h9.7v2.5h-3.4l6 15.6 6.4-15.6h-3.3v-2.5h9.7v2.5H297l-10.3 24.2zm48.4-31.7h-3.7v-2.7h10.3v2.7H338v23.7h3.7v2.7h-10.3v-2.7h3.7v-10.8h-14.4v10.8h3.7v2.7H314v-2.7h3.7v-23.7H314v-2.7h10.4v2.7h-3.7v10.5h14.4v-10.5zm29 20.4c-1.8 4-5.8 6.5-10.1 6.5-6.1 0-11.1-4.9-11.1-11s4.8-11.2 10.9-11.2c6.4 0 11.2 4.9 11.2 11.2v.8h-19.5c.2 4.4 4 7.8 8.4 7.8 3.1 0 5.8-1.5 7.4-4.1h2.8zm-1.7-5.9c-.6-4.4-4.4-7.4-8.7-7.4-4.1 0-7.7 3.4-8.2 7.4h16.9zm10.3-5.2c1-3 3.8-4.2 6.8-4.4v2.5c-4.7.4-6.8 3.1-6.8 7.7v8.6h3.6v2.5h-9.8v-2.5h3.6v-16.3h-3.6v-2.5h6.2v4.4zm14.6.5c1.7-3.1 4.8-5.1 8.4-5.1 6.2 0 11.2 5 11.2 11.2 0 2.3-.8 4.5-1.8 6.1-1.5 2.5-5.1 5-9 5-3.7 0-6.9-1.8-8.8-5v4.4H381v-2.5h3.6v-23.9H381v-2.5h6.2v12.3h.1zm16.9 5.9c0-4.6-3.8-8.4-8.5-8.4-4.8 0-8.6 3.7-8.6 8.5s3.9 8.4 8.6 8.4c4.8 0 8.5-3.8 8.5-8.5zm35.3 3.1v7.4h-19.1v-2.7h3.7v-23.7h-3.7V346h10.3v2.7H427v23.7h9.5v-4.8h3zm20.5 3.9c-1.4 2.6-4.1 4.1-7.1 4.1-3.1 0-6-2-7.3-4.1-.7-1.1-1.1-2.7-1.1-5.2v-10h-3.6v-2.5h6.2v11.5c0 2 .1 3.9 1.3 5.6 1.3 1.7 3 2.5 5.1 2.3s3.7-1 4.8-2.3c1.5-1.7 1.5-3.3 1.5-5.5v-9h-3.6V354h6.2v18.8h3.6v2.5h-6v-3.7zm13.4-12.9c1.7-3.1 4.8-5.1 8.4-5.1 6.2 0 11.2 5 11.2 11.2 0 2.3-.8 4.5-1.8 6.1-1.5 2.5-5.1 5-9 5-3.7 0-6.9-1.8-8.8-5v4.4h-6.2v-2.5h3.6v-23.9h-3.6v-2.5h6.2v12.3zm16.9 5.9c0-4.6-3.8-8.4-8.5-8.4-4.8 0-8.6 3.7-8.6 8.5s3.9 8.4 8.6 8.4c4.8 0 8.5-3.8 8.5-8.5zm23.3 6.2c-1.9 3.2-5 5-8.7 5-3.9 0-7.4-1.9-9.3-5-1-1.7-1.8-3.8-1.7-6.1 0-3.1.9-4.5 1.8-6.1 1.8-3.1 5.4-5 9.2-5s6.8 1.8 8.7 5v-4.7h6.2v2.5h-3.6v16.3h3.6v2.5h-6.2v-4.4zm-17.1-6.1c0 4.6 3.8 8.5 8.5 8.5 4.8 0 8.6-3.8 8.6-8.6 0-4.7-3.8-8.4-8.5-8.4s-8.6 3.8-8.6 8.5zm30.7 8h3.6v2.5h-10v-2.5h3.8v-23.9H521v-2.5h6.2v26.4zm11.2 0h3.6v2.5h-9.9v-2.5h3.7v-16.3h-3.6v-2.5h6.2v18.8zm0-22.3h-2.7v-4.2h2.7v4.2zm10.5 7.3c1.3-2.6 4.2-4.1 7.2-4.1 2.4 0 6 1.3 7.3 4.1.5 1 1.2 3 1.2 5.6v9.5h3.6v2.5h-9.8v-2.5h3.6v-8.5c0-1.9-.1-3.7-1-5.4-1.1-2-3.6-2.6-5.6-2.6-1.9 0-3.8.8-5 2.2-1.4 1.6-1.4 3.4-1.4 5.4v8.9h3.6v2.5h-9.8v-2.5h3.6v-16.3h-3.6V354h6.2v3.7h-.1zM71 259.3l-11.5-26.7H22.7l-11.6 26.7H2.9L36.7 180h8.9l34.1 79.3H71zm-29.8-70.2l-15.5 36.4h30.8l-15.3-36.4zm53 70.2l-24.7-58.6h8l20.7 49.2 21-49.2h8l-24.7 58.6h-8.3zm88.5 0V249h-.2c-4.8 7.3-13.3 11.7-22.8 11.7-17.6 0-31.5-13.3-31.5-30.8 0-17.6 14.4-30.6 31.5-30.6 9.7 0 18.1 4.4 22.8 11.8h.2v-10.3h7.5v58.6h-7.5v-.1zm.5-29.2c0-13.1-10.3-24.1-23.5-24.1-13.5 0-23.9 10.3-23.9 24.2 0 13.5 10.2 23.8 24 23.8 13 0 23.4-10.8 23.4-23.9zm60.4 29.2v-32.6c0-13.2-7.9-20.7-18.2-20.7-11.3 0-18.3 8.6-18.3 20.2v33.2h-7.5v-58.6h7.5v7.5h.2c3.7-5.7 10.4-9 18-9 16.1 0 25.8 11.1 25.8 27.4v32.6h-7.5zm23.8 0v-51.8h-12.3v-6.8h12.3V180h7.5v20.7h14v6.8h-14v51.8h-7.5zm78.5-29.2v-7.2h53.8c-1.7 21.3-19.8 37.8-41.9 37.8-21.8 0-42.5-17.4-42.5-41 0-22.7 19.2-41 42.4-41 17.8 0 32.9 11.3 37.5 22.5H386c-5.4-9.3-16.8-15.3-28.2-15.3-18.6 0-34.6 15-34.6 34 0 19.2 16 33.7 34.9 33.7 14.4 0 28.3-9.7 32-23.4h-44.2v-.1zm113.2 29.2V249h-.2c-4.8 7.3-13.3 11.7-22.8 11.7-17.6 0-31.5-13.3-31.5-30.8 0-17.6 14.4-30.6 31.5-30.6 9.7 0 18.1 4.4 22.8 11.8h.2v-10.3h7.5v58.6h-7.5v-.1zm.5-29.2c0-13.1-10.3-24.1-23.5-24.1-13.5 0-23.9 10.3-23.9 24.2 0 13.5 10.2 23.8 24 23.8 12.9 0 23.4-10.8 23.4-23.9zm16.3 29.2v-58.5h7.5v8.5h.2c2.6-6.1 7-9.4 16.5-10v7.9h-.1c-10.8 1.1-16.6 8.1-16.6 17.6v34.6l-7.5-.1zm78.9 0V249h-.2c-5.2 7.6-13.7 11.7-22.8 11.7-17.6 0-31.5-13.3-31.5-30.8 0-17.6 14.4-30.6 31.5-30.6 9.1 0 17.8 4.3 22.8 11.6h.2v-30.8h7.5v79.3l-7.5-.1zm.4-29.2c0-13.1-10.2-24.1-23.5-24.1-13.7 0-23.9 10.4-23.9 24.2 0 13.4 10.1 23.8 24 23.8 13 0 23.4-10.6 23.4-23.9zm21.8 2.7c.6 11.7 11.3 21.2 22.7 21.2 9.1 0 17.8-5.3 21-13.8h7.9c-4.5 12.7-16.3 20.6-28.8 20.6-16.6 0-30.5-13.5-30.5-30.6 0-17 14-30.8 30.4-30.8 17.6 0 30.8 15.1 30.8 31.3 0 .7-.1 1.5-.1 2.2H577v-.1zm45.7-6.8c-2.1-11.8-11.5-20-23-20-10.9 0-20.7 7.9-22.7 20h45.7z" class="st0"/></svg>