<svg xmlns="http://www.w3.org/2000/svg" id="Layer_1" width="1440" height="701.7" viewBox="0 0 1440 701.7"><style>.st0{fill:#b3b3b3}</style><path d="M30.6 151.4H46V55.6H30.6V33.1h57.3v22.5H72.7v94.2h33.7v-18.5h26.8v42.6H30.6v-22.5zm202.5 0h13.6v22.5H211v-13c-6.9 10.2-19.5 15.8-31.7 15.8-11.2 0-21.9-4.7-29.2-13.4-7.7-9.1-9.3-19.1-9.3-30.5V91.1h-13.6V68.6h37.6v56.9c0 6.7.2 14 4.1 19.7 3.9 6.1 10.6 9.1 17.7 9.1 6.7 0 13.6-3.3 17.7-8.7 4.5-6.3 4.5-13.4 4.5-20.7V91.1h-13.6V68.6h37.6v82.8zm58.7-67.6c7.5-11 19.1-16.7 32.5-16.7 29.8 0 54.2 24.4 54.2 54.2 0 13.6-4.9 27-14.2 37-9.3 10.2-23.4 17.1-37.2 17.1-14 0-27.2-5.9-35.3-17.3v15.8h-37.6v-22.5h13.6V55.6h-13.6V33.1h37.6v50.7zm-1 36.8c0 18.3 14.4 32.5 32.5 32.5 17.7 0 31.3-15.2 31.3-32.3 0-17.5-14.4-31.9-31.9-31.9s-31.9 14.2-31.9 31.7zm180.3 39c-7.7 11.6-20.1 16.9-33.9 16.9-30.1 0-54-25-54-54.8 0-30.5 24.4-56 55.2-56 13.6 0 25.4 6.3 32.7 17.7v-15h37.6v22.5h-13.2v60.3h13.2v22.5h-37.6v-14.1zm.4-39c0-17.3-14.4-31.3-31.7-31.3-17.9 0-31.7 14.8-31.7 32.5 0 17.1 14.4 31.3 31.3 31.3 18.1 0 32.1-14.5 32.1-32.5zm81.4 30.8h13.6v22.5h-52.2v-22.5h14.6V55.6h-13.6V33.1h37.6v118.3zm58.7 0h13.6v22.5h-51.4v-22.5h13.8V91.1H574V68.6h37.6v82.8zm0-92.8h-24V33.1h24v25.5zm34.5 32.5h-13.6V68.6h37.6v15c6.3-11.6 18.1-17.3 31.1-17.3 11.4 0 22.7 4.7 30.3 13 8.7 9.7 8.9 18.9 8.9 30.9v41.2H754v22.5h-51.2v-22.5h13.6v-34.1c0-6.5 0-13.2-4.1-18.9-4.3-5.7-11.4-8.5-18.5-8.5-7.3 0-14.8 3-19.1 8.9-4.5 5.9-4.5 15-4.5 22.1v30.5h13.6v22.5h-51.2v-22.5h13.6V91.1zm316.4 82.7h-22.3v-21.7c-10.8 16.2-29.6 24.4-48.9 24.4-40.6 0-73.1-32.9-73.1-73.5 0-19.1 6.7-36.8 19.9-50.8 13.6-14.2 33.3-22.9 52.8-22.9 16.9 0 31.5 5.7 44.3 16.7V33h22.1v41.4h-29.2c-4.5-6.1-9.9-10.6-16-13.6-6.1-3.2-13-4.7-20.7-4.7-26.2 0-46.3 20.5-46.3 46.5 0 25.8 20.1 47.1 46.1 47.1 18.7 0 34.5-10.2 41.4-27.6h-52V99.6h81.8v74.2zm44.8-87.3c6.1-12.4 17.9-18.5 31.5-19.1V92c-7.7.4-14.8 2.4-20.7 7.7-7.9 6.7-9.1 15.2-9.1 25v26.6h13.6v22.5h-51.2v-22.5H985V91.1h-13.6V68.6h35.9v17.9zm125.9 73.1c-7.7 11.6-20.1 16.9-33.9 16.9-30.1 0-54-25-54-54.8 0-30.5 24.4-56 55.2-56 13.6 0 25.4 6.3 32.7 17.7v-15h37.6v22.5h-13.2v60.3h13.2v22.5h-37.6v-14.1zm.3-39c0-17.3-14.4-31.3-31.7-31.3-17.9 0-31.7 14.8-31.7 32.5 0 17.1 14.4 31.3 31.3 31.3 18.2 0 32.1-14.5 32.1-32.5zm56.2-29.5h-13.4V68.6h37.6v16.6c7.7-12 20.3-17.7 34.5-17.7 29.8 0 53.6 24.4 53.6 54.2 0 28.8-23.2 53.8-52.4 53.8-13.8 0-27.2-5.3-35.7-16.4v30.7h13.6v22.5h-51.2v-22.5h13.4V91.1zm87.5 30.5c0-17.1-13.6-32.1-31.1-32.1-17.7 0-32.3 13.8-32.3 31.9 0 17.5 14.2 31.7 31.7 31.7 17.3 0 31.7-14.1 31.7-31.5zm66.8-37.2c6.7-11.8 17.9-18.1 31.5-18.1 12.2 0 22.7 5.7 29.8 15.4 7.9 10.6 8.7 20.9 8.7 33.5v36.3h13.6V174h-51.2v-22.5h13.6v-29.8c0-7.7.6-15.4-3.5-22.1-4.3-6.7-11.4-9.7-19.1-9.7-7.1 0-13.8 3-18.1 8.5-5.3 6.5-5.1 13.2-5.1 21.1v31.9h13.6v22.5h-51.2v-22.5h13.6V55.6h-13.6V33.1h37.6v51.3zM58.7 454.5v41.8h51.6v16.9H58.7v72.9H40.2V437.6h71.9v16.9H58.7zm82.2 39.4v51c0 14.8 3.7 27.8 21.3 27.8s21.3-13 21.3-27.8v-51h17.7v53c0 25.2-11.8 42.4-39 42.4s-39-17.1-39-42.4v-53h17.7zm104.2 92.2h-17.7v-75.7h-9.7v-16.6h9.7v-35.3h17.7v35.3h17.3v16.6h-17.3v75.7zm44-92.2v51c0 14.8 3.7 27.8 21.3 27.8s21.3-13 21.3-27.8v-51h17.7v53c0 25.2-11.8 42.4-39 42.4s-39-17.1-39-42.4v-53h17.7zm94.9 15h.6c4.3-10.8 13.4-17.7 25.2-17.7 5.1 0 10.2 1.8 14.6 4.5l-8.1 16.2c-3.2-2.8-6.7-3.7-10.8-3.7-19.1 0-21.5 17.7-21.5 32.7v45.3h-17.7V494H384v14.9zm132.8 77.2h-17.7v-14.4h-.4c-7.1 10.4-18.1 17.5-31.3 17.5-28.2 0-44.1-23.4-44.1-49.8 0-25.2 16.7-48.3 43.5-48.3 13.6 0 24.6 7.1 31.9 18.1h.4v-15.4h17.7v92.3zM500.1 540c0-17.9-10.8-33.1-29.9-33.1-18.3 0-29.2 16-29.2 33.1 0 17.3 10.4 33.5 29.2 33.5 19.3 0 29.9-15.4 29.9-33.5zM69.8 255.1v-4.7h6.6l-5-11.6H47.9l-5.2 11.6h6.4v4.7h-18v-4.7h6.3l18.4-41.3H49v-4.7h13.3l19.9 45.9h6.3v4.7H69.8zm-10-44.9l-10.4 24.4h20.5l-10.1-24.4zm40.9 15.2c1.7-5.2 6.6-7.4 11.9-7.6v4.4c-8.2.7-11.9 5.5-11.9 13.5v15h6.2v4.4H89.8v-4.4H96v-28.4h-6.2v-4.4h10.9v7.5zm26.3 25.3h8.8v4.4h-13.5v-32.8h-7.2v-4.4h7.2v-13.4h4.7v13.4h8.2v4.4H127v28.4zm66.6-3.5c-3.2 5.5-8.8 8.9-15.2 8.9-5.9 0-12.7-3.7-16-8.9-1.9-3-3.3-7-3.3-10.7 0-10.4 8.7-19.3 19-19.3 6.5 0 12.5 3.4 15.5 9.2v-17.6h-6.2v-4.4h10.9v46.2h6.2v4.4h-10.9v-7.8zm.2-10.7c0-8.2-6.7-14.8-14.9-14.8-8.4 0-15 6.8-15 15.1 0 8.2 6.9 14.9 15 14.9 8.4 0 14.9-6.8 14.9-15.2zm23.3 14.2h6.2v4.4H206v-4.4h6.4v-28.4h-6.2v-4.4h10.9v32.8zm0-38.9h-4.7v-7.3h4.7v7.3zm18.3 13.6c1.7-5.2 6.6-7.4 11.9-7.6v4.4c-8.2.7-11.9 5.5-11.9 13.5v15h6.2v4.4h-17.2v-4.4h6.2v-28.4h-6.2v-4.4h10.9v7.5zm53.8 19.3c-3.1 6.9-10.1 11.4-17.7 11.4-10.7 0-19.4-8.6-19.4-19.2s8.4-19.6 19.1-19.6c11.1 0 19.6 8.6 19.6 19.6v1.4h-34c.4 7.7 6.9 13.7 14.6 13.7 5.4 0 10.2-2.6 12.9-7.2h4.9zm-2.9-10.3c-1.1-7.6-7.7-12.9-15.2-12.9-7.2 0-13.5 5.9-14.4 12.9h29.6zm43.4-5.3h-4.4c-2.7-4.4-7.6-7.2-12.8-7.2-8.2 0-14.7 6.7-14.7 14.9 0 8.3 6.7 14.6 15 14.6 5.3 0 10.6-3 12.8-7.9h5.2c-2.8 7.7-10.3 12.6-18.4 12.6-10.6 0-19.3-8.8-19.3-19.2 0-5.3 2.1-10.2 5.5-13.7 3.5-3.6 8.2-6 13.6-6 5.2 0 9.6 2.1 13 6v-5.3h4.4v11.2zm15 21.6h8.8v4.4H340v-32.8h-7.2v-4.4h7.2v-13.4h4.7v13.4h8.2v4.4h-8.2v28.4zm48-6c-3.1 6.9-10.1 11.4-17.7 11.4-10.7 0-19.4-8.6-19.4-19.2s8.4-19.6 19.1-19.6c11.1 0 19.6 8.6 19.6 19.6v1.4h-34c.4 7.7 6.9 13.7 14.6 13.7 5.4 0 10.2-2.6 12.9-7.2h4.9zm-2.9-10.3c-1.1-7.6-7.7-12.9-15.2-12.9-7.2 0-13.5 5.9-14.4 12.9h29.6zm41.4 12.8c-3.2 5.5-8.8 8.9-15.2 8.9-5.9 0-12.7-3.7-16-8.9-1.9-3-3.3-7-3.3-10.7 0-10.4 8.7-19.3 19-19.3 6.5 0 12.5 3.4 15.5 9.2v-17.6H425v-4.4h10.9v46.2h6.2v4.4h-10.9v-7.8zm.1-10.7c0-8.2-6.7-14.8-14.9-14.8-8.4 0-15 6.8-15 15.1 0 8.2 6.9 14.9 15 14.9 8.4 0 14.9-6.8 14.9-15.2zm44.5-10.3c3-5.5 8.4-8.9 14.7-8.9 10.8 0 19.5 8.7 19.5 19.5 0 4-1.4 7.9-3.1 10.6-2.6 4.3-8.9 8.7-15.8 8.7-6.4 0-12.1-3.1-15.3-8.7v7.7h-10.9v-4.4h6.2v-41.8h-6.2v-4.4h10.9v21.7zm29.5 10.3c0-8.1-6.6-14.6-14.7-14.6-8.4 0-15 6.4-15 14.8s6.8 14.7 15.1 14.7c8.1 0 14.6-6.7 14.6-14.9zm25.9 28h6.1v4.4h-17.2v-4.4h6.2l3.8-9.1-13.1-33.1h-6v-4.4h17v4.4h-5.9l10.5 27.2 11.1-27.2H538v-4.4h16.9v4.4h-6l-17.7 42.2zm84.5-55.4h-6.5v-4.7h18v4.7h-6.5v41.3h6.5v4.7h-18v-4.7h6.5v-18.9h-25.2v18.9h6.5v4.7h-18.1v-4.7h6.5v-41.3h-6.5v-4.7H597v4.7h-6.5v18.4h25.2v-18.4zm50.7 35.6c-3.1 6.9-10.1 11.4-17.7 11.4-10.7 0-19.4-8.6-19.4-19.2s8.4-19.6 19.1-19.6c11.1 0 19.6 8.6 19.6 19.6v1.4h-34c.4 7.7 6.9 13.7 14.6 13.7 5.4 0 10.2-2.6 12.9-7.2h4.9zm-2.9-10.3c-1.1-7.6-7.7-12.9-15.2-12.9-7.2 0-13.5 5.9-14.4 12.9h29.6zm17.9-9c1.7-5.2 6.6-7.4 11.9-7.6v4.4c-8.2.7-11.9 5.5-11.9 13.5v15h6.2v4.4h-17.2v-4.4h6.2v-28.4h-6.2v-4.4h10.9v7.5zm25.5.8c3-5.5 8.4-8.9 14.7-8.9 10.8 0 19.5 8.7 19.5 19.5 0 4-1.4 7.9-3.1 10.6-2.6 4.3-8.9 8.7-15.8 8.7-6.4 0-12.1-3.1-15.3-8.7v7.7H696v-4.4h6.2v-41.8H696v-4.4h10.9v21.7zm29.6 10.3c0-8.1-6.6-14.6-14.8-14.6-8.4 0-15 6.4-15 14.8s6.8 14.7 15.1 14.7c8.2 0 14.7-6.7 14.7-14.9zM798 242v13h-33.3v-4.7h6.5V209h-6.5v-4.7h18v4.7h-6.5v41.3h16.6V242h5.2zm35.8 6.8c-2.4 4.5-7.1 7.2-12.4 7.2-5.5 0-10.4-3.5-12.7-7.2-1.2-2-1.9-4.8-1.9-9.1v-17.4h-6.2v-4.4h10.9V238c0 3.5.1 6.8 2.3 9.8 2.2 2.9 5.2 4.3 8.9 4 3.7-.3 6.5-1.8 8.4-4 2.6-3 2.7-5.7 2.7-9.6v-15.8h-6.2V218h10.9v32.8h6.3v4.4h-11v-6.4zm23.4-22.6c3-5.5 8.4-8.9 14.7-8.9 10.8 0 19.5 8.7 19.5 19.5 0 4-1.4 7.9-3.1 10.6-2.6 4.3-8.9 8.7-15.8 8.7-6.4 0-12.1-3.1-15.3-8.7v7.7h-10.9v-4.4h6.2v-41.8h-6.2v-4.4h10.9v21.7zm29.6 10.3c0-8.1-6.6-14.6-14.8-14.6-8.4 0-15 6.4-15 14.8s6.8 14.7 15.1 14.7c8.2 0 14.7-6.7 14.7-14.9zm40.7 10.9c-3.3 5.6-8.7 8.7-15.2 8.7-6.8 0-13-3.3-16.3-8.7-1.8-3-3.1-6.6-3-10.7 0-5.4 1.6-7.9 3.1-10.6 3.1-5.4 9.4-8.8 16.1-8.8s11.8 3.1 15.2 8.8v-8.2h10.8v4.4H932v28.4h6.2v4.4h-10.8v-7.7zm-29.8-10.7c0 8 6.7 14.8 14.8 14.8 8.4 0 15-6.7 15-15 0-8.2-6.7-14.7-14.8-14.7-8.2 0-15 6.7-15 14.9zm53.6 14h6.2v4.4H940v-4.4h6.7v-41.8h-6.2v-4.4h10.9v46.2zm19.5 0h6.2v4.4h-17.3v-4.4h6.4v-28.4h-6.2v-4.4h10.9v32.8zm0-38.9h-4.7v-7.3h4.7v7.3zm18.3 12.6c2.3-4.6 7.4-7.2 12.5-7.2 4.2 0 10.4 2.3 12.8 7.2.9 1.8 2.1 5.2 2.1 9.7v16.6h6.2v4.4h-17.2v-4.4h6.2v-14.9c0-3.3-.1-6.5-1.8-9.4-2-3.5-6.2-4.5-9.7-4.5-3.3 0-6.6 1.4-8.7 3.9-2.4 2.8-2.5 6-2.5 9.5v15.5h6.2v4.4H978v-4.4h6.2v-28.4H978V218h10.9v6.4zm-954 387.1h11.1c16.4 0 30 8.7 30 26.4 0 18.2-13.3 27-30.2 27H35.1v-53.4zm6.7 47.3h2.3c13.6 0 25.4-5.1 25.4-20.6 0-15.6-11.8-20.6-25.4-20.6h-2.3v41.2zm44.1-9.4c.1 5.7 3.9 11 10 11 4.9 0 7.5-2.5 9.9-6.5l5.4 3c-3.1 5.7-8.9 9.1-15.4 9.1-10.1 0-16.3-7.7-16.3-17.4 0-10.2 5.5-17.9 16.2-17.9 10.6 0 15.5 7.8 15.5 17.7v1H85.9zm19-4.8c-.8-5-4-8.3-9.1-8.3-5 0-8.7 3.5-9.4 8.3h18.5zm25.1-5.3c-.8-1.6-2.4-2.9-4.3-2.9-1.8 0-3.5 1.4-3.5 3.3 0 2.9 3.8 4.2 7.7 6s7.7 4.2 7.7 9.4c0 6.3-5.2 11-11.4 11-4.8 0-9.7-2.8-11.5-7.4l5.5-2.5c1.3 2.5 3 4.3 6 4.3 2.7 0 5-1.8 5-4.7 0-1.8-.9-2.6-2.3-3.6l-6.2-3.3c-3.7-2-6.4-3.8-6.4-8.4 0-5.4 4.4-9.6 9.8-9.6 4 0 7.3 2.2 9.1 5.8l-5.2 2.6zm22.9-22.7c0 2.4-2 4.3-4.4 4.3-2.4 0-4.4-1.9-4.4-4.3 0-2.5 2-4.5 4.4-4.5 2.5 0 4.4 2 4.4 4.5zm-1.2 48.3h-6.4v-33.2h6.4v33.2zm41.3-.6c0 11.4-3.3 19.6-16.2 19.6-9.2 0-15.9-5.7-16-15h6.4c0 6 4.1 9.4 9.9 9.4 7.9 0 9.5-5.4 9.5-12.2v-6.3h-.1c-2.6 3.8-6.6 6.3-11.3 6.3-10.2 0-15.9-8.4-15.9-17.9 0-9.1 6-17.4 15.6-17.4 5 0 8.9 2.6 11.6 6.7h.1v-5.7h6.4v32.5zm-6-16c0-6.5-3.9-11.9-10.8-11.9-6.6 0-10.5 5.7-10.5 11.9s3.8 12.1 10.5 12.1c7 0 10.8-5.5 10.8-12.1zm20.7-12.1h.1c2-3.5 6-5.5 10-5.5 9.4 0 11.8 6.3 11.8 14.4v19.8h-6.4v-19c0-5.7-.8-9.5-7.3-9.5-8.2 0-8.2 7.2-8.2 13.3v15.2h-6.4v-33.2h6.4v4.5zm34.5 13.2c.1 5.7 3.9 11 10 11 4.9 0 7.5-2.5 9.9-6.5l5.4 3c-3.1 5.7-8.9 9.1-15.4 9.1-10.1 0-16.3-7.7-16.3-17.4 0-10.2 5.5-17.9 16.2-17.9 10.6 0 15.5 7.8 15.5 17.7v1h-25.3zm18.9-4.8c-.8-5-4-8.3-9.1-8.3-5 0-8.7 3.5-9.4 8.3h18.5zm36.6 15.2h-.1c-2.6 3.8-6.6 6.3-11.3 6.3-10.2 0-15.9-8.4-15.9-17.9 0-9.1 6-17.4 15.6-17.4 5 0 8.9 2.6 11.6 6.5h.1v-33.9h6.4v61.5h-6.4v-5.1zm.4-11.5c0-6.5-3.9-11.9-10.8-11.9-6.6 0-10.5 5.7-10.5 11.9s3.8 12.1 10.5 12.1c7 0 10.8-5.5 10.8-12.1zm34.3-44.9h6.4v33.9h.1c2.6-4 6.6-6.5 11.6-6.5 9.6 0 15.6 8.3 15.6 17.4 0 9.5-5.7 17.9-15.9 17.9-4.7 0-8.7-2.6-11.3-6.3h-.1v5.2h-6.4v-61.6zm27.3 44.9c0-6.5-3.9-11.9-10.8-11.9-6.6 0-10.5 5.7-10.5 11.9s3.8 12.1 10.5 12.1c7 0 10.8-5.5 10.8-12.1zm7.3-16.6h7.4l11.2 21.1 10.4-21.1h7.2l-26.9 52.2h-7.2l13-24.7-15.1-27.5zm67.5 33.2h-6.7v-53.5h7.7c16.5 0 21.6 5.7 21.6 15.5 0 11.3-8.6 15.6-18.7 15.6h-3.8v22.4zm0-28.3h2.1c6.8 0 14.2-1.3 14.2-9.8 0-8.4-7.9-9.4-14.5-9.4h-1.8v19.2zm58.9 28.3H487v-5.2h-.1c-2.6 3.8-6.5 6.3-11.3 6.3-10.1 0-15.9-8.4-15.9-17.9 0-9.1 6-17.4 15.7-17.4 4.9 0 8.9 2.6 11.5 6.5h.1v-5.5h6.4v33.2zm-6.1-16.6c0-6.5-3.9-11.9-10.8-11.9-6.6 0-10.5 5.7-10.5 11.9s3.8 12.1 10.5 12.1c7 0 10.8-5.5 10.8-12.1zm20.5-16.6v18.4c0 5.3 1.3 10 7.7 10s7.7-4.7 7.7-10v-18.4h6.4v19.1c0 9.1-4.3 15.2-14 15.2s-14-6.2-14-15.2v-19.1h6.2zm36.8 33.2h-6.4v-61.5h6.4v61.5zm63.6 0h-8.1l-15.7-22.6h-2.8v22.6h-6.7v-53.5h8.1c4.8 0 9.9.1 14.1 2.5 4.5 2.6 7 7.7 7 12.8 0 7.7-5.1 14-12.8 15l16.9 23.2zm-26.6-28.1h2.1c6.8 0 14.2-1.3 14.2-9.8 0-8.4-7.9-9.6-14.5-9.6h-1.8v19.4zm34.9 12.6c.1 5.7 3.9 11 10 11 4.9 0 7.5-2.5 9.9-6.5l5.4 3c-3.1 5.7-8.9 9.1-15.4 9.1-10.1 0-16.3-7.7-16.3-17.4 0-10.2 5.5-17.9 16.2-17.9 10.6 0 15.5 7.8 15.5 17.7v1h-25.3zm19-4.8c-.8-5-4-8.3-9.1-8.3-5 0-8.7 3.5-9.4 8.3h18.5zm18.2-8.4h.1c2-3.5 6-5.5 10-5.5 9.4 0 11.8 6.3 11.8 14.4v19.8h-6.4v-19c0-5.7-.8-9.5-7.3-9.5-8.2 0-8.2 7.2-8.2 13.3v15.2h-6.4v-33.2h6.4v4.5zm37.1 0h.1c2-3.5 6-5.5 10-5.5 9.4 0 11.8 6.3 11.8 14.4v19.8h-6.4v-19c0-5.7-.8-9.5-7.3-9.5-8.2 0-8.2 7.2-8.2 13.3v15.2h-6.4v-33.2h6.4v4.5zm34.5 13.2c.1 5.7 3.9 11 10 11 4.9 0 7.5-2.5 9.9-6.5l5.4 3c-3.1 5.7-8.9 9.1-15.4 9.1-10.1 0-16.3-7.7-16.3-17.4 0-10.2 5.5-17.9 16.2-17.9 10.6 0 15.5 7.8 15.5 17.7v1h-25.3zm18.9-4.8c-.8-5-4-8.3-9.1-8.3-5 0-8.7 3.5-9.4 8.3h18.5zm18.7-7.5h.2c1.6-3.9 4.8-6.4 9.1-6.4 1.8 0 3.7.6 5.2 1.6l-2.9 5.8c-1.1-1-2.4-1.3-3.9-1.3-6.9 0-7.7 6.4-7.7 11.8v16.3h-6.4v-33.2h6.4v5.4z" class="st0"/></svg>