<svg xmlns="http://www.w3.org/2000/svg" id="Layer_1" viewBox="0 0 360 210" width="360" height="210"><style>.st0{fill:#2997ff}.st1{fill:#7fc1ff}.st2{fill:#a9d5ff}.st3{fill:#d4eaff}.st4{fill:#f26518}.st5{fill:#f6935d}.st6{fill:#fac1a3}.st7{fill:#fce0d1}.st8{fill:#888}</style><g id="bca49b8e-bea9-421a-a15d-4bd21fa839c7"><g id="f17c5fef-c825-48d8-84bd-fcc7d629be0e"><path d="M0 38.3h90v85.9H0V38.3z" class="st0"/><path d="M90 38.3h90v85.9H90V38.3z" class="st1"/><path d="M180 38.3h90v85.9h-90V38.3z" class="st2"/><path d="M270 38.3h90v85.9h-90V38.3z" class="st3"/><path d="M0 124.1h90V210H0v-85.9z" class="st4"/><path d="M90 124.1h90V210H90v-85.9z" class="st5"/><path d="M180 124.1h90V210h-90v-85.9z" class="st6"/><path d="M270 124.1h90V210h-90v-85.9z" class="st7"/><path d="M0 0h180v38.2H0V0z"/><path d="M180 0h180v38.2H180V0z" class="st8"/></g></g></svg>