<svg xmlns="http://www.w3.org/2000/svg" viewBox="0 0 646.34 189.57" width="646.34" height="189.57"><defs><style>.b7f895bc-dbd7-4e80-a9b6-dd5ab61be447{fill:#505150}</style></defs><g id="ef8a2430-2a5e-407e-82ef-803dd23697c2"><path id="f99afce0-4d87-4f83-89ce-8122f56046f1" d="M16.48 18.78A5.39 5.39 0 0 1 15 22.69c-1.22 1.27-3.15 1.89-5.86 1.89-2.92 0-4.76-.73-6-2.43-1-1.3-1.33-2.86-1.33-5.75V12c0-3.11.43-4.76 1.62-6.09s3-2.09 5.75-2.09c4.58 0 6.79 1.89 7 6l-4 .28C12 8.16 11 7.31 9.23 7.31c-2.32 0-3.06 1.22-3.06 5v3.74c0 3.82.74 5 3.09 5a2.77 2.77 0 0 0 3.14-2.75zm2.98-14.73h4.13v6.09a5.31 5.31 0 0 1 3.23-.88c2.35 0 4.05 1 4.73 2.84a10.9 10.9 0 0 1 .45 3.79v8.38h-4.16v-8.1c0-2.38-.62-3.4-2.09-3.4s-2.16 1.08-2.16 3.6v7.9h-4.13zM43 14.81c0-1.55-.68-2.26-2.15-2.26A3.35 3.35 0 0 0 38.12 14l-2.83-2a6.88 6.88 0 0 1 6-2.72c2.72 0 4.59.94 5.36 2.64a8.84 8.84 0 0 1 .51 3.68v8.69h-3.23l-.26-.76a5.49 5.49 0 0 1-3.88 1.07c-3.59 0-4.95-1.27-4.95-4.64 0-3.54 1.33-4.64 5.49-4.64H43zM40.84 18c-1.53 0-2.12.51-2.12 1.82s.56 1.67 2.15 1.67S43 21 43 19.2V18zm10.03-8.4H54l.29 1a4.56 4.56 0 0 1 3.48-1.36 4.84 4.84 0 0 1 3.91 1.67 4.37 4.37 0 0 1 3.88-1.67c2.49 0 4.08.94 4.76 2.84a11.07 11.07 0 0 1 .42 3.79v8.38h-4.15v-8c0-2.54-.51-3.54-1.84-3.54s-1.87 1.08-1.87 3.77v7.73h-4.14V16.4c0-2.66-.48-3.63-1.84-3.63S55 13.82 55 16.6v7.67h-4.13zm23.59-5.55h4.14v6.06a5.49 5.49 0 0 1 3.05-.85c3.88 0 5.5 2 5.5 6.6V18c0 4.67-1.62 6.59-5.52 6.59a4.81 4.81 0 0 1-3.74-1.21l-.26.9h-3.17zM83 16.17c0-2.52-.68-3.62-2.21-3.62s-2.23.88-2.23 2.8v3.15c0 1.92.68 2.8 2.23 2.8S83 20.22 83 17.67zm7.09-.34c0-4.64 1.9-6.57 6.49-6.57s6.42 1.93 6.42 6.57V18c0 4.65-1.87 6.54-6.49 6.54s-6.42-1.85-6.42-6.54zm8.81.32c0-2.61-.65-3.6-2.32-3.6s-2.35 1-2.35 3.6v1.58c0 2.58.65 3.57 2.35 3.57s2.32-1 2.32-3.57zm7.48-6.55h3.14l.54.94a3.51 3.51 0 0 1 2.81-1.28 6.25 6.25 0 0 1 3.28 1l-1.78 3.37a3 3 0 0 0-1.93-.82c-1.36 0-1.92 1.31-1.92 4.42v7.05h-4.14zm20.31 13.77c-.12.08-.2.17-.23.17a4.86 4.86 0 0 1-3.51 1c-3.91 0-5.52-1.92-5.52-6.59v-2.09c0-4.61 1.64-6.6 5.43-6.6a5.6 5.6 0 0 1 2.35.43 3.36 3.36 0 0 1 .51.28l.26.14V4.05h4.13v20.22h-3.17zm-5.16-5.7c0 2.55.65 3.63 2.24 3.63s2.21-.88 2.21-2.8v-3.15c0-1.92-.71-2.8-2.24-2.8s-2.21 1.1-2.21 3.62zm22.83 6.6H140V4.05h7.67c2.72 0 4.17.4 5.24 1.47a5.86 5.86 0 0 1 1.48 4.48c0 3.48-1 5.15-3.66 5.89l4.36 8.38h-4.81l-3.8-8h-2.12zm2.95-11.38c2 0 2.77-.74 2.77-2.69s-.76-2.69-2.83-2.69h-3v5.38zm9.91 2.94c0-4.64 1.9-6.57 6.49-6.57s6.45 1.93 6.45 6.57V18c0 4.65-1.87 6.54-6.48 6.54s-6.46-1.89-6.46-6.54zm8.81.32c0-2.61-.65-3.6-2.32-3.6s-2.36 1-2.36 3.6v1.58c0 2.58.66 3.57 2.36 3.57s2.32-1 2.32-3.57zm5.72-6.55h4.16l2.84 9.89 2.71-9.89h4.2l-5.1 15.47c-1.79 5.09-2.61 5.69-7.82 5.72v-3.35c2.41 0 2.75-.22 3.57-2.69l.28-.85zm23.54 5.21c0-1.55-.68-2.26-2.16-2.26a3.32 3.32 0 0 0-2.74 1.45l-2.84-2a6.9 6.9 0 0 1 6-2.72c2.72 0 4.59.94 5.35 2.64a8.84 8.84 0 0 1 .51 3.68v8.69h-3.23l-.25-.76a5.53 5.53 0 0 1-3.88 1.07c-3.6 0-5-1.27-5-4.64 0-3.54 1.33-4.64 5.49-4.64h2.7zM193.1 18c-1.52 0-2.12.51-2.12 1.82s.57 1.67 2.15 1.67 2.16-.51 2.16-2.3V18zm14.14-13.95V18c0 2.29.56 3 2.55 2.94h.42v3.34h-.59c-5.33 0-6.52-1.21-6.52-6.71V4.05zm11.24 17.39h2.35v2.83h-2.35zm7.99 0h2.35v2.83h-2.35zm7.99 0h2.35v2.83h-2.35zm7.98 0h2.35v2.83h-2.35zm7.99 0h2.35v2.83h-2.35zm7.99 0h2.35v2.83h-2.35zm7.99 0h2.35v2.83h-2.35zm7.98 0h2.35v2.83h-2.35zm7.99 0h2.35v2.83h-2.35zm7.99 0h2.35v2.83h-2.35zm7.99 0h2.35v2.83h-2.35zm7.98 0h2.35v2.83h-2.35zm7.99 0h2.35v2.83h-2.35zm7.99 0h2.35v2.83h-2.35zm7.98 0h2.36v2.83h-2.36zm7.99 0h2.35v2.83h-2.35zm7.99 0h2.35v2.83h-2.35zm7.99 0h2.35v2.83h-2.35zm7.98 0h2.35v2.83h-2.35zm7.99 0h2.35v2.83h-2.35zm7.99 0h2.35v2.83h-2.35zm7.99 0h2.35v2.83h-2.35zm7.98 0h2.35v2.83h-2.35zm7.99 0h2.35v2.83h-2.35zm7.99 0h2.35v2.83h-2.35zm7.99 0h2.35v2.83h-2.35zm7.98 0h2.35v2.83h-2.35zm7.99 0h2.35v2.83h-2.35zm7.99 0h2.35v2.83h-2.35zm7.98 0h2.35v2.83h-2.35zm7.99 0h2.35v2.83h-2.35zm7.99 0h2.35v2.83h-2.35zm7.99 0h2.35v2.83h-2.35zm7.98 0h2.35v2.83h-2.35zm7.99 0h2.35v2.83h-2.35zm7.95 0h2.35v2.83H498zm8 0h2.35v2.83H506zm8 0h2.35v2.83H514zm8 0h2.35v2.83H522zm8 0h2.35v2.83H530zm8 0h2.36v2.83H538zm8 0h2.35v2.83H546zm8 0h2.35v2.83H554zm7.94 0h2.35v2.83h-2.35zm7.98 0h2.35v2.83h-2.35zm7.99 0h2.35v2.83h-2.35zm7.99 0h2.35v2.83h-2.35zm7.99 0h2.35v2.83h-2.35zm11.59-1.53c.87 1.42 2.63 2.18 5 2.18 2.94 0 4.61-1.22 4.61-3.34a2.84 2.84 0 0 0-1.24-2.46c-.77-.51-.77-.51-3.77-1.22-4.13-1-5.83-2.61-5.83-5.55a4.88 4.88 0 0 1 2.46-4.45 6.67 6.67 0 0 1 2.86-.73V1.28h2.24v3.11a5.92 5.92 0 0 1 4.59 2.44L614.65 8a4.84 4.84 0 0 0-4.19-1.76c-2.43 0-3.88 1.16-3.88 3.12s1.22 2.92 4.7 3.74c2.66.62 3.23.82 4.22 1.47a4.52 4.52 0 0 1 1.93 4c0 3.17-1.9 5-5.58 5.41V28h-2.24v-4c-2.8-.14-5-1.22-6-2.92zm19.74-13.37l-3.49 1.53L621 6.2l5-2.15h1.62v20.22h-2.35zm11.92-2.49h9.12V6h-7.17l-.67 6.43a6.06 6.06 0 0 1 3-.76 5.28 5.28 0 0 1 4.33 2 7.35 7.35 0 0 1 1.07 4.45c0 2.12-.39 3.6-1.3 4.59a6 6 0 0 1-4.7 1.84c-3.28 0-5.18-1.5-5.55-4.34l2.24-.28a3.1 3.1 0 0 0 3.37 2.64c2.32 0 3.59-1.51 3.59-4.31 0-3.17-1.07-4.62-3.42-4.62a4.45 4.45 0 0 0-3.2 1.28l-1.7-.37zM3.12 54.35c.84 1.42 2.6 2.18 5 2.18 2.94 0 4.64-1.33 4.64-3.62a3.14 3.14 0 0 0-1.21-2.61c-.77-.54-.77-.54-3.74-1.27C3.62 48 2 46.37 2 43.28c0-3.46 2.32-5.5 6.2-5.5 2.72 0 4.76.91 5.84 2.55l-1.79 1.16a4.86 4.86 0 0 0-4.13-1.75c-2.38 0-3.83 1.27-3.83 3.4s1.19 3.08 4.65 4c2.72.65 3.2.85 4.19 1.53A4.72 4.72 0 0 1 15 52.79c0 3.69-2.47 5.73-6.94 5.73-3.29 0-5.58-1-6.83-3zM18.92 44h1.75l.23 1.19a5.28 5.28 0 0 1 4.1-1.43c3.68 0 5.35 2 5.35 6.32v2.15c0 4.3-1.67 6.29-5.35 6.29a5.41 5.41 0 0 1-3.88-1.31v7.42h-2.2zm9.23 6.18c0-3.12-1.13-4.59-3.45-4.59s-3.54 1.48-3.54 4.41v2.32c0 2.89 1.19 4.34 3.54 4.34s3.45-1.48 3.45-4.56zm14.47-1.27a3.59 3.59 0 0 0-.51-2.26 3.14 3.14 0 0 0-2.6-1 4.41 4.41 0 0 0-3.4 1.44l-1.56-1.19a6.43 6.43 0 0 1 5.16-2.12c2.21 0 3.76.71 4.56 2.07a6.57 6.57 0 0 1 .59 3.42v9h-1.78l-.17-1c-.91.94-2 1.28-4.14 1.28-3.65 0-5-1.14-5-4.22 0-3.29 1.36-4.39 5.41-4.39h3.42zm-3.2 2.7c-2.52 0-3.48.73-3.48 2.63s.82 2.41 3.34 2.41c1.56 0 2.44-.29 2.95-.94.31-.4.39-.82.39-1.9v-2.2zM49.76 44h1.76l.22 1.33a3.73 3.73 0 0 1 3.4-1.61 5.2 5.2 0 0 1 2.75.74L57 46.42a3.33 3.33 0 0 0-2-.68c-2.06 0-2.94 1.67-2.94 5.58v6.94h-2.3zm11.36-6h2.24v14.11L69.67 44h2.58l-4.84 6 5.38 8.18h-2.5l-4.24-6.51-2.69 3.34v3.17h-2.24zm17.02 0v15.73c0 2 .57 2.66 2.41 2.63h.73v1.9h-.82c-3.59 0-4.56-1-4.56-4.73V38zm6.06 0h2.24v3H84.2zm0 6.09h2.24v14.17H84.2zm7.22-.09h1.73l.17 1.59a4.28 4.28 0 0 1 4-1.87c2.52 0 4.14.91 4.79 2.75a11.3 11.3 0 0 1 .42 3.59v8.16h-2.23v-8c0-3.31-.94-4.61-3.23-4.61-2.47 0-3.43 1.5-3.43 5.35v7.22h-2.22zm24.76 13.16a5 5 0 0 1-3.94 1.36c-3.65 0-5.32-2-5.32-6.29v-2.15c0-4.34 1.67-6.32 5.38-6.32a5 5 0 0 1 4.16 1.56l.17-1.28h1.76v14.22c0 4.45-2 6.63-6.06 6.63-2.36 0-3.88-.68-5-2.24l1.67-1a3.65 3.65 0 0 0 3.2 1.44c2.63 0 3.82-1.41 3.91-4.58zm-7-5.07c0 3.08 1.11 4.56 3.46 4.56s3.54-1.45 3.54-4.34V50c0-2.89-1.19-4.36-3.54-4.36s-3.46 1.47-3.46 4.59zM127.36 38h2.38l3.83 16.6 4.56-16.6h1.67l4.56 16.6 3.85-16.6h2.38l-5.1 20.22h-2L139 42.15l-4.51 16.11h-2zm27.08 0h2.24v7.14a4.5 4.5 0 0 1 3.74-1.42c2.46 0 4.07.93 4.72 2.75a11 11 0 0 1 .43 3.59v8.16h-2.24v-8c0-3.31-.93-4.61-3.23-4.61s-3.42 1.53-3.42 5.24v7.33h-2.24zm16 0h2.24v3h-2.24zm0 6.09h2.24v14.17h-2.24zm5.98 1.82V44h1.72l.12-4.56h2.12V44h2.81v1.87h-2.81v7.85c0 2 .57 2.63 2.41 2.6h.48v1.9h-.51c-3.71 0-4.62-.91-4.62-4.73v-7.58zm12.35 6.29c0 2.89 1.38 4.45 4 4.45a3.77 3.77 0 0 0 3.23-1.39l1.67 1.07c-1.13 1.53-2.66 2.19-5.16 2.19-4.07 0-6-2.16-6-6.72v-1.21c0-4.71 1.79-6.83 5.78-6.83s5.78 2.12 5.78 6.83v1h-9.29zm7.13-2.29v-.23a5.06 5.06 0 0 0-.76-2.83 3.81 3.81 0 0 0-5.78.22 5.62 5.62 0 0 0-.59 2.61v.23zM206.33 38h2.38l3.82 16.6 4.56-16.6h1.67l4.56 16.6 3.85-16.6h2.38l-5.1 20.22h-2l-4.5-16.11-4.5 16.11h-2zm27.07 0h2.24v3h-2.24zm0 6.09h2.24v14.17h-2.24zm7.22-.09h1.73l.17 1.59a4.28 4.28 0 0 1 4-1.87c2.52 0 4.14.91 4.79 2.75a11.3 11.3 0 0 1 .42 3.59v8.16h-2.23v-8c0-3.31-.94-4.61-3.23-4.61-2.47 0-3.43 1.5-3.43 5.35v7.22h-2.24zm17.79 8.2c0 2.89 1.39 4.45 4 4.45a3.75 3.75 0 0 0 3.25-1.39l1.67 1.07c-1.13 1.53-2.66 2.19-5.15 2.19-4.08 0-6-2.16-6-6.72v-1.21c0-4.71 1.79-6.83 5.78-6.83s5.78 2.12 5.78 6.83v1h-9.29zm7.14-2.29v-.23a5.06 5.06 0 0 0-.77-2.83 3.81 3.81 0 0 0-5.78.22 5.75 5.75 0 0 0-.59 2.61v.23zM1.47 95.81c0-4.65 1.9-6.57 6.49-6.57s6.46 1.92 6.46 6.57V98c0 4.64-1.87 6.54-6.49 6.54S1.47 102.66 1.47 98zm8.81.31c0-2.6-.65-3.6-2.32-3.6s-2.35 1-2.35 3.6v1.59c0 2.57.65 3.56 2.35 3.56s2.32-1 2.32-3.56zm7.48-6.54h3.14l.54.93a3.49 3.49 0 0 1 2.8-1.27 6.17 6.17 0 0 1 3.29 1l-1.78 3.36a3 3 0 0 0-1.93-.82c-1.36 0-1.93 1.3-1.93 4.42v7h-4.13zM.51 130h4.36l3 14.41L11.53 130h3.37l3.68 14.41 3-14.41h4.36l-5.18 20.22h-3.91l-3.62-13.32-3.63 13.34H5.66zm26.77 11.8c0-4.65 1.89-6.57 6.48-6.57s6.46 1.92 6.46 6.57v2.2c0 4.64-1.87 6.54-6.49 6.54s-6.45-1.9-6.45-6.54zm8.8.31c0-2.61-.65-3.6-2.32-3.6s-2.35 1-2.35 3.6v1.58c0 2.58.65 3.57 2.35 3.57s2.32-1 2.32-3.57zm7.06-.31c0-4.65 1.89-6.57 6.48-6.57s6.46 1.92 6.46 6.57v2.2c0 4.64-1.87 6.54-6.49 6.54s-6.45-1.9-6.45-6.54zm8.8.31c0-2.61-.65-3.6-2.32-3.6s-2.35 1-2.35 3.6v1.58c0 2.58.65 3.57 2.35 3.57s2.32-1 2.32-3.57zm16.32 7.22a1.49 1.49 0 0 1-.23.17 4.86 4.86 0 0 1-3.51 1.05c-3.91 0-5.52-1.93-5.52-6.6v-2.13c0-4.61 1.64-6.59 5.44-6.59a5.66 5.66 0 0 1 2.35.42l.51.28.25.15V130h4.14v20.22h-3.18zm-5.16-5.69c0 2.55.66 3.62 2.24 3.62s2.21-.88 2.21-2.8v-3.15c0-1.92-.71-2.8-2.24-2.8s-2.21 1.11-2.21 3.63zm11.39-4.82v-3.25h1.64v-1.25c0-3.34 1.28-4.39 5.16-4.3h1.81v3h-.93c-1.65 0-1.9.17-1.9 1.58v.94h3v3.25h-3v11.42h-4.14v-11.39zm10.88 2.98c0-4.65 1.89-6.57 6.48-6.57s6.46 1.92 6.46 6.57v2.2c0 4.64-1.87 6.54-6.49 6.54s-6.45-1.9-6.45-6.54zm8.8.31c0-2.61-.65-3.6-2.32-3.6s-2.35 1-2.35 3.6v1.58c0 2.58.65 3.57 2.35 3.57s2.32-1 2.32-3.57zm7.48-6.54h3.15l.53.93a3.49 3.49 0 0 1 2.81-1.27 6.16 6.16 0 0 1 3.28 1l-1.78 3.37a2.94 2.94 0 0 0-1.93-.82c-1.36 0-1.92 1.3-1.92 4.41v7.06h-4.14zM122 149.33a1.49 1.49 0 0 1-.23.17 4.86 4.86 0 0 1-3.51 1.05c-3.91 0-5.52-1.93-5.52-6.6v-2.13c0-4.61 1.64-6.59 5.44-6.59a5.66 5.66 0 0 1 2.35.42l.51.28.25.15V130h4.14v20.22h-3.18zm-5.16-5.69c0 2.55.66 3.62 2.24 3.62s2.21-.88 2.21-2.8v-3.15c0-1.92-.71-2.8-2.24-2.8s-2.21 1.11-2.21 3.63zm17.95-5.89c0-3 .45-4.68 1.7-6 1.36-1.47 3.09-2.07 5.95-2.07 3.05 0 4.95.71 6.28 2.41 1 1.28 1.39 2.83 1.39 5.64v4.75c0 3-.45 4.68-1.7 6-1.36 1.47-3.09 2.07-6 2.07-3 0-4.93-.71-6.26-2.41-1-1.25-1.39-2.86-1.39-5.64zm11 .36c0-3.68-.82-4.89-3.29-4.89s-3.31 1.21-3.31 4.89v4c0 3.68.82 4.9 3.29 4.9s3.31-1.22 3.31-4.9zM157.9 130v14c0 2.29.57 3 2.55 2.94h.42v3.35h-.59c-5.32 0-6.51-1.22-6.51-6.72V130zm13.65 19.33c-.11.08-.2.17-.22.17a4.87 4.87 0 0 1-3.52 1.05c-3.9 0-5.52-1.93-5.52-6.6v-2.13c0-4.61 1.64-6.59 5.44-6.59a5.66 5.66 0 0 1 2.35.42l.51.28.25.15V130H175v20.22h-3.17zm-5.15-5.69c0 2.55.65 3.62 2.23 3.62s2.21-.88 2.21-2.8v-3.15c0-1.92-.7-2.8-2.23-2.8s-2.21 1.11-2.21 3.63zM184.86 130h12.58v3.54h-8.22v4.84h6.86v3.54h-6.86v8.3h-4.36zM207 140.78c0-1.56-.68-2.27-2.15-2.27a3.34 3.34 0 0 0-2.75 1.42l-2.83-2c1.28-1.81 3.32-2.71 6-2.71s4.58.93 5.35 2.63a8.84 8.84 0 0 1 .51 3.68v8.7h-3.23l-.25-.77a5.48 5.48 0 0 1-3.88 1.08c-3.6 0-5-1.28-5-4.65 0-3.54 1.33-4.64 5.49-4.64H207zm-2.18 3.2c-1.53 0-2.12.51-2.12 1.81s.57 1.67 2.15 1.67 2.15-.46 2.15-2.29V144zm11.88 1.84a2.9 2.9 0 0 0 3 1.53c1.78 0 2.6-.51 2.6-1.59 0-.79-.45-1.13-1.69-1.24-2.61-.29-3.23-.4-4.2-.85a3.65 3.65 0 0 1-2-3.63c0-3.09 2-4.81 5.5-4.81 2.89 0 4.76 1 6 3l-3.1 1.77a2.59 2.59 0 0 0-2.63-1.53c-1.22 0-1.9.51-1.9 1.42s.48 1.13 2.24 1.3c4.42.43 5.66 1.45 5.66 4.65s-2 4.73-6.31 4.73c-3.2 0-5.21-1-6.2-3zM229.13 130h4.14v6.08a5.32 5.32 0 0 1 3.22-.87c2.35 0 4 1 4.73 2.83a10.7 10.7 0 0 1 .43 3.79v8.39h-4.14v-8.1c0-2.38-.62-3.4-2.09-3.4s-2.15 1.07-2.15 3.59v7.91h-4.14zm16.26-.21h4.13v3.88h-4.13zm0 5.78h4.13v14.67h-4.13zm7.61 6.23c0-4.65 1.9-6.57 6.49-6.57s6.45 1.92 6.45 6.57v2.2c0 4.64-1.87 6.54-6.48 6.54S253 148.65 253 144zm8.81.31c0-2.61-.65-3.6-2.32-3.6s-2.35 1-2.35 3.6v1.58c0 2.58.65 3.57 2.35 3.57s2.32-1 2.32-3.57zm7.43-6.54h3.08l.34 1.1a4.67 4.67 0 0 1 3.86-1.44c2.43 0 4.1 1 4.81 2.83a11 11 0 0 1 .42 3.79v8.39h-4.13v-7.91c0-2.6-.57-3.59-2.07-3.59s-2.18 1-2.18 3.88v7.62h-4.13zm19.94 8.75c0 2 .93 3.06 2.72 3.06a3 3 0 0 0 2.88-1.56l3 1.73c-1.24 2.15-3.05 3-6.37 3-4.59 0-6.4-2-6.4-7.08v-.94c0-2.6.34-4.1 1.22-5.24 1-1.38 2.72-2.06 5.21-2.06 4.59 0 6.43 2.09 6.43 7.3V144h-8.72zm4.84-3.17v-.34a2.44 2.44 0 1 0-4.87 0v.34zm15.89 8.18c-.12.08-.2.17-.23.17a4.86 4.86 0 0 1-3.51 1.05c-3.91 0-5.52-1.93-5.52-6.6v-2.13c0-4.61 1.64-6.59 5.43-6.59a5.68 5.68 0 0 1 2.36.42l.51.28.25.15V130h4.13v20.22h-3.17zm-5.16-5.69c0 2.55.66 3.62 2.24 3.62s2.21-.88 2.21-2.8v-3.15c0-1.92-.71-2.8-2.24-2.8s-2.21 1.11-2.21 3.63zm30.66-2.64a3.42 3.42 0 1 1-3.42-3.34 3.31 3.31 0 0 1 3.42 3.34zm20.22-8.49l-3.49 1.49-.73-1.87 4.95-2.15H358v20.22h-2.35zm11.92-2.51h9.12v2h-7.16l-.68 6.43a6.07 6.07 0 0 1 3-.77 5.26 5.26 0 0 1 4.33 2 7.25 7.25 0 0 1 1.08 4.44c0 2.13-.4 3.6-1.31 4.59a6 6 0 0 1-4.7 1.84c-3.28 0-5.18-1.5-5.55-4.33l2.24-.29a3.1 3.1 0 0 0 3.37 2.64c2.32 0 3.6-1.5 3.6-4.31 0-3.17-1.08-4.61-3.43-4.61a4.44 4.44 0 0 0-3.2 1.27l-1.7-.37zM.79 164h2.38L7 180.6l4.55-16.6h1.68l4.56 16.6 3.85-16.6H24l-5.1 20.22h-2l-4.5-16.11-4.5 16.11h-2zm25.55 12c0-4.28 1.84-6.29 5.83-6.29s5.92 2 5.92 6.29v2.21c0 4.3-1.84 6.26-5.92 6.26s-5.83-2-5.83-6.26zm9.52.14c0-3.11-1.17-4.56-3.66-4.56s-3.62 1.45-3.62 4.56v1.93c0 3.09 1.16 4.53 3.62 4.53s3.66-1.44 3.66-4.53zm6.26-.14c0-4.28 1.84-6.29 5.83-6.29s5.92 2 5.92 6.29v2.21c0 4.3-1.84 6.26-5.92 6.26s-5.83-2-5.83-6.26zm9.51.14c0-3.11-1.16-4.56-3.65-4.56s-3.63 1.45-3.63 4.56v1.93c0 3.09 1.16 4.53 3.63 4.53s3.65-1.44 3.65-4.53zM67.46 183c-.08.05-.11.11-.14.11a4.61 4.61 0 0 1-.4.37 5.88 5.88 0 0 1-3.65 1c-3.71 0-5.38-2-5.38-6.29V176c0-4.33 1.67-6.32 5.32-6.32a6.37 6.37 0 0 1 3.12.71c.11.09.4.29.79.65V164h2.24v20.22H67.6zm-7.33-5c0 3.09 1.1 4.56 3.45 4.56s3.54-1.44 3.54-4.33V176c0-2.91-1.19-4.36-3.54-4.36s-3.45 1.48-3.45 4.59zm13.11-6.12V170H75v-2.3c0-2.89 1-3.76 4-3.71h1.3v1.84h-.82c-1.78-.05-2.24.37-2.24 2.16v2h3.23v1.87h-3.24v12.34H75v-12.32zM83.47 176c0-4.28 1.84-6.29 5.83-6.29s5.92 2 5.92 6.29v2.21c0 4.3-1.84 6.26-5.92 6.26s-5.83-2-5.83-6.26zm9.51.14c0-3.11-1.16-4.56-3.65-4.56s-3.63 1.42-3.63 4.57v1.93c0 3.09 1.16 4.53 3.63 4.53s3.67-1.44 3.67-4.53zm6.74-6.14h1.76l.23 1.33a3.71 3.71 0 0 1 3.39-1.62 5.2 5.2 0 0 1 2.75.74l-.93 1.93a3.32 3.32 0 0 0-2-.68c-2.07 0-3 1.67-3 5.58v6.93h-2.2zm20 13c-.09.05-.12.11-.14.11l-.4.37a5.9 5.9 0 0 1-3.65 1c-3.71 0-5.38-2-5.38-6.29V176c0-4.33 1.67-6.32 5.32-6.32a6.33 6.33 0 0 1 3.11.71 9.89 9.89 0 0 1 .8.65V164h2.24v20.22h-1.76zm-7.34-5c0 3.09 1.11 4.56 3.46 4.56s3.54-1.44 3.54-4.33V176c0-2.91-1.19-4.36-3.54-4.36s-3.46 1.48-3.46 4.59zm22.74 6.22h-2.35V164h6.94c2.41 0 3.77.43 4.82 1.48a5.56 5.56 0 0 1 1.44 4.16c0 3.31-1.33 5.07-4.16 5.61l4.44 9h-2.6l-4.16-8.72h-4.37zm4.62-10.67c2.64 0 3.88-1.22 3.88-3.8s-1.3-3.79-4.13-3.79h-4.39v7.59zm12.26 4.61c0 2.89 1.38 4.45 4 4.45a3.77 3.77 0 0 0 3.26-1.39l1.67 1.08c-1.13 1.53-2.66 2.18-5.16 2.18-4.07 0-6-2.15-6-6.71v-1.22c0-4.7 1.78-6.83 5.78-6.83s5.77 2.13 5.77 6.83v1H152zm7.13-2.29v-.23a5.08 5.08 0 0 0-.76-2.83 3.8 3.8 0 0 0-5.78.23 5.58 5.58 0 0 0-.59 2.6v.23zm6.87 5.35a4.58 4.58 0 0 0 3.82 1.39c2.41 0 3.6-.79 3.6-2.38a1.83 1.83 0 0 0-1-1.75 7.26 7.26 0 0 0-2.64-.6c-1.95-.28-2.86-.57-3.54-1.16a3.43 3.43 0 0 1-1.13-2.78c0-2.71 1.7-4.22 4.7-4.22 2.41 0 4.05.71 5.15 2.27l-1.7 1a3.72 3.72 0 0 0-3.28-1.45c-1.76 0-2.72.8-2.72 2.24a1.83 1.83 0 0 0 .88 1.64 6.1 6.1 0 0 0 2.24.54c2.18.31 3.11.57 3.88 1.13a3.77 3.77 0 0 1 1.27 3.15c0 2.8-1.87 4.19-5.66 4.19-2.67 0-4.56-.77-5.55-2.21zm15.21-3.06c0 2.89 1.38 4.45 4 4.45a3.77 3.77 0 0 0 3.26-1.39l1.67 1.08c-1.13 1.53-2.66 2.18-5.15 2.18-4.08 0-6-2.15-6-6.71v-1.22c0-4.7 1.79-6.83 5.78-6.83s5.78 2.13 5.78 6.83v1h-9.29zm7.13-2.29v-.23a5.08 5.08 0 0 0-.76-2.83 3.8 3.8 0 0 0-5.78.23 5.58 5.58 0 0 0-.59 2.6v.23zm6.46-5.87h1.76l.23 1.33a3.71 3.71 0 0 1 3.39-1.62 5.2 5.2 0 0 1 2.75.74l-.93 1.93a3.32 3.32 0 0 0-2-.68c-2.07 0-3 1.67-3 5.58v6.93h-2.2zm10.43 0h2.29l3.88 11.27 3.88-11.27h2.29l-5.15 14.21h-2zm17.24 8.16c0 2.89 1.39 4.45 4 4.45a3.78 3.78 0 0 0 3.26-1.39l1.67 1.08c-1.14 1.53-2.67 2.18-5.16 2.18-4.08 0-6-2.15-6-6.71v-1.22c0-4.7 1.78-6.83 5.78-6.83s5.77 2.13 5.77 6.83v1h-9.29zm7.14-2.29v-.23a5.08 5.08 0 0 0-.76-2.83 3.05 3.05 0 0 0-2.78-1.22 3 3 0 0 0-3 1.45 5.58 5.58 0 0 0-.6 2.6v.23zm6.6 5.55h2.55l-1.93 8.13h-2zM249.83 164h7.45c2.07 0 3.2.34 4.19 1.22a5.44 5.44 0 0 1 1.56 4 4.64 4.64 0 0 1-2.38 4.42l.26.17a3.6 3.6 0 0 1 1.64 1.47 6.31 6.31 0 0 1 .88 3.46 5.4 5.4 0 0 1-1.79 4.39c-1 .79-2 1.07-4 1.07h-7.85zm7.28 8.87a3.51 3.51 0 0 0 2.55-.74 3.74 3.74 0 0 0 1-2.72 3.56 3.56 0 0 0-1.16-2.83 3.67 3.67 0 0 0-2.41-.62h-4.92v6.91zm.43 9.4a3.4 3.4 0 0 0 2.52-.79 4.61 4.61 0 0 0-.14-5.95 3.34 3.34 0 0 0-2.38-.71h-5.35v7.45zm9.94-18.35h2.24v3h-2.24zm0 6.09h2.24v14.21h-2.24zm5.98 1.87V170h1.72l.12-4.56h2.12V170h2.8v1.87h-2.8v7.84c0 2 .57 2.64 2.41 2.61h.48v1.89h-.51c-3.71 0-4.62-.9-4.62-4.73v-7.61zm10.11 0V170h1.72l.12-4.56h2.12V170h2.8v1.87h-2.8v7.84c0 2 .57 2.64 2.41 2.61h.48v1.89h-.51c-3.71 0-4.62-.9-4.62-4.73v-7.61zm12.35 6.28c0 2.89 1.38 4.45 4 4.45a3.77 3.77 0 0 0 3.26-1.39l1.67 1.08c-1.13 1.53-2.66 2.18-5.16 2.18-4.07 0-6-2.15-6-6.71v-1.22c0-4.7 1.78-6.83 5.78-6.83s5.78 2.13 5.78 6.83v1h-9.29zm7.13-2.29v-.23a5.08 5.08 0 0 0-.76-2.83 3.8 3.8 0 0 0-5.78.23 5.58 5.58 0 0 0-.59 2.6v.23zm6.46-5.87h1.76l.22 1.33a3.74 3.74 0 0 1 3.4-1.62 5.2 5.2 0 0 1 2.75.74l-.93 1.93a3.33 3.33 0 0 0-2-.68c-2.06 0-2.94 1.67-2.94 5.58v6.93h-2.24zm11.3 11.22a4.6 4.6 0 0 0 3.83 1.39c2.4 0 3.59-.79 3.59-2.38a1.83 1.83 0 0 0-1-1.75 7.25 7.25 0 0 0-2.63-.6c-2-.28-2.86-.57-3.54-1.16a3.4 3.4 0 0 1-1.14-2.78c0-2.71 1.7-4.22 4.7-4.22 2.41 0 4 .71 5.16 2.27l-1.7 1a3.75 3.75 0 0 0-3.29-1.45c-1.75 0-2.71.8-2.71 2.24a1.84 1.84 0 0 0 .87 1.64 6.17 6.17 0 0 0 2.24.54c2.18.31 3.12.57 3.88 1.13a3.77 3.77 0 0 1 1.27 3.15c0 2.8-1.86 4.19-5.66 4.19-2.66 0-4.56-.77-5.55-2.21zm14.13.2h2.55l-1.92 8.13h-2zm13.8-1.1c.85 1.41 2.6 2.18 5 2.18 2.95 0 4.65-1.33 4.65-3.63a3.12 3.12 0 0 0-1.22-2.6c-.77-.54-.77-.54-3.74-1.28-4.16-1.05-5.78-2.66-5.78-5.75 0-3.45 2.33-5.49 6.2-5.49 2.72 0 4.76.9 5.84 2.55l-1.79 1.16a4.87 4.87 0 0 0-4.13-1.76c-2.38 0-3.82 1.28-3.82 3.4s1.19 3.09 4.64 4c2.72.65 3.2.85 4.19 1.53a4.7 4.7 0 0 1 1.9 4.16c0 3.68-2.46 5.72-6.94 5.72-3.28 0-5.58-1-6.82-3zm17.9-10.32v7.93a8.08 8.08 0 0 0 .36 2.86 2.68 2.68 0 0 0 2.72 1.75c2.35 0 3.29-1.5 3.29-5.32V170h2.24v14.21h-1.73l-.17-1.58a4.15 4.15 0 0 1-3.91 1.84c-2.44 0-4-.94-4.62-2.75a11.24 11.24 0 0 1-.42-3.57V170zM389 183.12a5 5 0 0 1-3.93 1.36c-3.66 0-5.33-2-5.33-6.29V176c0-4.33 1.67-6.32 5.38-6.32a5.08 5.08 0 0 1 4.17 1.56l.17-1.27h1.75v14.21c0 4.45-2 6.63-6.06 6.63-2.35 0-3.88-.68-4.95-2.24l1.67-1a3.65 3.65 0 0 0 3.2 1.45c2.63 0 3.82-1.42 3.91-4.59zm-7-5.07c0 3.09 1.1 4.56 3.46 4.56s3.54-1.44 3.54-4.33V176c0-2.88-1.19-4.36-3.54-4.36s-3.46 1.48-3.46 4.59zm22-3.17a3.7 3.7 0 0 0-.5-2.27 3.17 3.17 0 0 0-2.61-1 4.39 4.39 0 0 0-3.4 1.45l-1.56-1.19a6.41 6.41 0 0 1 5.16-2.13c2.21 0 3.76.71 4.56 2.07a6.59 6.59 0 0 1 .59 3.43v9h-1.78l-.17-1c-.91.94-2 1.28-4.14 1.28-3.65 0-5-1.13-5-4.22 0-3.29 1.36-4.39 5.41-4.39H404zm-3.2 2.69c-2.52 0-3.48.74-3.48 2.63s.82 2.41 3.34 2.41c1.56 0 2.44-.28 2.95-.93.31-.4.39-.83.39-1.9v-2.21zm10.3-7.57h1.76l.22 1.33a3.74 3.74 0 0 1 3.4-1.62 5.2 5.2 0 0 1 2.75.74l-.93 1.93a3.32 3.32 0 0 0-2-.68c-2.07 0-3 1.67-3 5.58v6.93h-2.2zm16.9 10.32c.85 1.41 2.61 2.18 5 2.18 2.94 0 4.64-1.33 4.64-3.63a3.1 3.1 0 0 0-1.22-2.6c-.76-.54-.76-.54-3.74-1.28-4.16-1.05-5.77-2.66-5.77-5.75 0-3.45 2.32-5.49 6.2-5.49 2.72 0 4.76.9 5.83 2.55l-1.78 1.16a4.89 4.89 0 0 0-4.16-1.76c-2.38 0-3.82 1.28-3.82 3.4s1.19 3.09 4.64 4c2.72.65 3.2.85 4.2 1.53a4.71 4.71 0 0 1 1.89 4.16c0 3.68-2.46 5.72-6.93 5.72-3.29 0-5.58-1-6.83-3zM441.78 170H444l4.17 11.67 3.75-11.67h2.26l-5.58 16.51c-1.3 3.59-2.07 4.19-5.75 4.22v-1.9c2.13 0 2.64-.37 3.46-2.55l.71-2.09zm15.69 0h1.75l.23 1.33a3.71 3.71 0 0 1 3.4-1.62 5.17 5.17 0 0 1 2.74.74l-.93 1.93a3.28 3.28 0 0 0-2-.68c-2.07 0-2.95 1.67-2.95 5.58v6.93h-2.23zm13.53 0v7.93a8 8 0 0 0 .37 2.86 2.68 2.68 0 0 0 2.72 1.75c2.35 0 3.29-1.5 3.29-5.32V170h2.23v14.21h-1.72l-.17-1.58a4.15 4.15 0 0 1-3.91 1.84c-2.44 0-4-.94-4.62-2.75a11.24 11.24 0 0 1-.42-3.57V170zm13.63 0h1.75l.23 1.19a5.29 5.29 0 0 1 4.14-1.48c3.68 0 5.35 2 5.35 6.32v2.15c0 4.31-1.67 6.29-5.35 6.29a5.41 5.41 0 0 1-3.88-1.3v7.42h-2.24zm9.23 6.17c0-3.11-1.13-4.59-3.45-4.59s-3.54 1.45-3.54 4.36v2.33q0 4.33 3.54 4.33c2.32 0 3.45-1.47 3.45-4.56zm7.19 5.25h2.55l-1.92 8.13h-2zm13.15-9.8c0-2.83.48-4.44 1.67-5.78a6.71 6.71 0 0 1 5.43-2.09c2.64 0 4.45.76 5.75 2.43 1 1.28 1.36 2.81 1.36 5.44v5c0 2.86-.45 4.44-1.67 5.77a6.69 6.69 0 0 1-5.44 2.1c-2.63 0-4.44-.77-5.72-2.44-1-1.27-1.38-2.83-1.38-5.43zm11.86.23c0-2.24-.28-3.46-1.1-4.5a4.92 4.92 0 0 0-7.51.25 7.43 7.43 0 0 0-.9 4.25v4.53c0 2.24.28 3.45 1.1 4.5a4.13 4.13 0 0 0 3.65 1.62 4.18 4.18 0 0 0 3.86-1.87 7.43 7.43 0 0 0 .9-4.25zm7.31-1.85h1.76l.22 1.33a3.74 3.74 0 0 1 3.4-1.62 5.2 5.2 0 0 1 2.75.74l-.94 1.93a3.28 3.28 0 0 0-2-.68c-2.06 0-2.94 1.67-2.94 5.58v6.93h-2.24zm18.95 4.88a3.63 3.63 0 0 0-.51-2.27 3.16 3.16 0 0 0-2.61-1 4.41 4.41 0 0 0-3.4 1.45l-1.55-1.19a6.37 6.37 0 0 1 5.15-2.13c2.21 0 3.77.71 4.56 2.07a6.58 6.58 0 0 1 .6 3.43v9h-1.79l-.17-1c-.9.94-2 1.28-4.13 1.28-3.66 0-5-1.13-5-4.22 0-3.29 1.36-4.39 5.41-4.39h3.43zm-3.2 2.69c-2.52 0-3.49.74-3.49 2.63s.83 2.41 3.35 2.41c1.55 0 2.43-.28 2.94-.93a2.79 2.79 0 0 0 .4-1.9v-2.21zm10.34-7.57h1.72l.17 1.58c.85-1.3 2.07-1.87 4-1.87 2.52 0 4.13.91 4.78 2.75a11.32 11.32 0 0 1 .43 3.6v8.15h-2.24v-7.95c0-3.32-.94-4.62-3.23-4.62-2.46 0-3.43 1.5-3.43 5.35v7.22h-2.23zm24.75 13.12a5 5 0 0 1-3.94 1.36c-3.65 0-5.32-2-5.32-6.29V176c0-4.33 1.67-6.32 5.38-6.32a5.08 5.08 0 0 1 4.16 1.56l.17-1.27h1.76v14.21c0 4.45-2 6.63-6.06 6.63-2.35 0-3.88-.68-5-2.24l1.67-1a3.66 3.66 0 0 0 3.2 1.45c2.64 0 3.83-1.42 3.91-4.59zm-7-5.07c0 3.09 1.1 4.56 3.45 4.56s3.54-1.44 3.54-4.33V176c0-2.88-1.19-4.36-3.54-4.36s-3.45 1.48-3.45 4.59zm15.92.11c0 2.89 1.39 4.45 4 4.45a3.75 3.75 0 0 0 3.25-1.39l1.62 1.08c-1.13 1.53-2.66 2.18-5.15 2.18-4.08 0-6-2.15-6-6.71v-1.22c0-4.7 1.78-6.83 5.77-6.83s5.78 2.13 5.78 6.83v1h-9.29zm7.14-2.29v-.23a5.08 5.08 0 0 0-.77-2.83 3.79 3.79 0 0 0-5.77.23 5.58 5.58 0 0 0-.6 2.6v.23z" class="b7f895bc-dbd7-4e80-a9b6-dd5ab61be447" transform="translate(-.51 -1.28)"/></g></svg>