<svg xmlns="http://www.w3.org/2000/svg" viewBox="0 0 679.01 433.3"><defs><style>.fb534922-a752-40e0-8328-8099f9308ac2{fill:#2997ff;}.b5ad5d94-de4c-4871-83e3-458e6dfe70f1{fill:#b3b3b3;}</style></defs><g id="bd3a562a-67d7-4e70-aecb-1f643c9b465e" data-name="Layer 2"><g id="f18eea45-8742-410c-84dd-6e76d8aa233f" data-name="Layer 1"><path class="fb534922-a752-40e0-8328-8099f9308ac2" d="M333.72,18.56,330.66,0H352.2c3.88,4.92,4.1,6.19,10.29,6.19h36.3l-3,12.37h-6.18l1.49-6.19H362.64c-7.23,0-9.84-1.86-13.27-6.18H337.81l2.09,12.37Zm68.2,6.26L395.73,62H333.79L327.6,24.82h19.46l7.15-9.32,12.08,9.32h6.11L368,21.47l4.55-5.89,12.07,9.32Zm-7.16,6.11H334.83l4.33,24.82h51.35l4.25-24.82Z" transform="translate(-0.45)"/><path class="fb534922-a752-40e0-8328-8099f9308ac2" d="M328.85,81.92h-2.31l-.24-4.52c-.1-1.59-.15-3.26-.1-4.53l-1.88,7.86h-2.24l-2-7.88a39.22,39.22,0,0,1,0,4.6l-.24,4.47h-2.3l.87-11.13h3l1.83,7.67L325,70.79h3Z" transform="translate(-0.45)"/><path class="fb534922-a752-40e0-8328-8099f9308ac2" d="M337.78,78.35h-5.33c.17,1.64.94,2.12,2,2.12a3.44,3.44,0,0,0,2.08-.74L337.5,81a5,5,0,0,1-3.23,1.16c-2.73,0-4.16-1.8-4.16-4.47s1.38-4.57,3.87-4.57,3.85,1.61,3.85,4.33C337.83,77.76,337.79,78.11,337.78,78.35Zm-2.22-1.53c0-1.28-.44-2.12-1.53-2.12-.9,0-1.45.6-1.58,2.22h3.11Z" transform="translate(-0.45)"/><path class="fb534922-a752-40e0-8328-8099f9308ac2" d="M346.62,75.71v6.21h-2.28V76.1c0-1-.37-1.25-.93-1.25A2,2,0,0,0,341.75,76v5.89h-2.29V73.4h2l.18,1.07a3.17,3.17,0,0,1,2.59-1.33A2.29,2.29,0,0,1,346.62,75.71Z" transform="translate(-0.45)"/><path class="fb534922-a752-40e0-8328-8099f9308ac2" d="M355.67,81.92h-2l-.12-1.14a2.86,2.86,0,0,1-2.59,1.4c-1.57,0-2.38-1-2.38-2.66V73.4h2.29v5.84c0,.93.3,1.23.93,1.23a1.86,1.86,0,0,0,1.56-1.11v-6h2.28Z" transform="translate(-0.45)"/><path class="fb534922-a752-40e0-8328-8099f9308ac2" d="M369.89,74.38c0,2.57-1.83,3.75-4.37,3.75h-1.27v3.79h-2.37V70.79h3.44C368.15,70.79,369.89,72,369.89,74.38Zm-2.44,0c0-1.3-.78-1.88-2.16-1.88h-1v3.89h1.07C366.62,76.39,367.45,75.89,367.45,74.38Z" transform="translate(-0.45)"/><path class="fb534922-a752-40e0-8328-8099f9308ac2" d="M376.31,73.28l-.37,2.21a2.94,2.94,0,0,0-.78-.11c-1,0-1.54.78-1.83,2.18v4.36h-2.28V73.4h2l.19,1.65a2.45,2.45,0,0,1,2.22-1.89A3,3,0,0,1,376.31,73.28Z" transform="translate(-0.45)"/><path class="fb534922-a752-40e0-8328-8099f9308ac2" d="M384.78,77.66c0,2.7-1.53,4.52-4.08,4.52s-4.09-1.69-4.09-4.52,1.53-4.52,4.1-4.52S384.78,74.83,384.78,77.66Zm-5.79,0c0,2,.58,2.81,1.71,2.81s1.7-.86,1.7-2.81-.58-2.81-1.69-2.81S379,75.71,379,77.66Z" transform="translate(-0.45)"/><path class="fb534922-a752-40e0-8328-8099f9308ac2" d="M388.78,81.07c0,2.68-1.3,3.62-3.24,4.37l-.76-1.65a2.4,2.4,0,0,0,1.72-2.58V73.4h2.28ZM389,70.34a1.33,1.33,0,0,1-1.4,1.34,1.34,1.34,0,1,1,0-2.67A1.33,1.33,0,0,1,389,70.34Z" transform="translate(-0.45)"/><path class="fb534922-a752-40e0-8328-8099f9308ac2" d="M398.16,78.35h-5.32c.16,1.64.93,2.12,2,2.12a3.42,3.42,0,0,0,2.08-.74l.95,1.29a5,5,0,0,1-3.24,1.16c-2.73,0-4.16-1.8-4.16-4.47s1.38-4.57,3.87-4.57,3.85,1.61,3.85,4.33C398.21,77.76,398.18,78.11,398.16,78.35Zm-2.22-1.53c0-1.28-.43-2.12-1.53-2.12-.9,0-1.45.6-1.57,2.22h3.1Z" transform="translate(-0.45)"/><path class="fb534922-a752-40e0-8328-8099f9308ac2" d="M406.26,74.17l-1,1.35a2.6,2.6,0,0,0-1.68-.61c-1.14,0-1.81.82-1.81,2.8s.72,2.64,1.8,2.64a2.91,2.91,0,0,0,1.69-.6l1,1.43a4.25,4.25,0,0,1-2.8,1c-2.54,0-4.1-1.74-4.1-4.46s1.58-4.58,4.07-4.58A4.08,4.08,0,0,1,406.26,74.17Z" transform="translate(-0.45)"/><path class="fb534922-a752-40e0-8328-8099f9308ac2" d="M412.66,81.52a4,4,0,0,1-2.22.66c-1.77,0-2.67-1-2.67-2.93V75H406.5V73.4h1.27V71.53l2.29-.27V73.4h2L411.79,75h-1.73V79.2c0,.84.27,1.16.85,1.16a2.06,2.06,0,0,0,1-.29Z" transform="translate(-0.45)"/><path class="fb534922-a752-40e0-8328-8099f9308ac2" d="M213,309.65l-3.05-18.56h21.54c3.87,4.92,4.1,6.19,10.28,6.19h36.3l-3,12.37h-6.19l1.49-6.18H241.91c-7.23,0-9.84-1.87-13.27-6.19H217.09l2.09,12.37Zm68.2,6.26L275,353.11H213.07l-6.19-37.2h19.45l7.16-9.31,12.07,9.31h6.12l-4.4-3.35,4.54-5.89L263.9,316ZM274,322H214.11l4.32,24.83h51.36L274,322Z" transform="translate(-0.45)"/><path class="fb534922-a752-40e0-8328-8099f9308ac2" d="M206.22,368.65H205V373h-2.37V361.88h3.48c3,0,4.48,1.08,4.48,3.33a3.05,3.05,0,0,1-2.2,3l2.88,4.79H208.6ZM205,367h1.23c1.24,0,1.92-.51,1.92-1.77s-.66-1.64-2.09-1.64H205Z" transform="translate(-0.45)"/><path class="fb534922-a752-40e0-8328-8099f9308ac2" d="M219.46,371.73l-.48,1.51a2.07,2.07,0,0,1-2-1.24,2.89,2.89,0,0,1-2.55,1.27,2.55,2.55,0,0,1-2.77-2.64c0-1.86,1.42-2.88,3.92-2.88h1v-.41c0-1.07-.45-1.4-1.52-1.4a7.66,7.66,0,0,0-2.25.45l-.53-1.53a8.83,8.83,0,0,1,3.15-.63c2.37,0,3.4,1,3.4,3v3.44C218.85,371.34,219.06,371.58,219.46,371.73Zm-2.86-1.05v-1.62h-.74c-1.26,0-1.87.45-1.87,1.38a1,1,0,0,0,1.11,1.19A1.68,1.68,0,0,0,216.6,370.68Z" transform="translate(-0.45)"/><path class="fb534922-a752-40e0-8328-8099f9308ac2" d="M229.94,373h-2.78l-1.22-6.48L224.72,373H222l-1.87-8.52h2.3l1,6.83,1.41-6.83h2.28l1.27,6.83,1.16-6.83h2.19Z" transform="translate(-0.45)"/><path class="fb534922-a752-40e0-8328-8099f9308ac2" d="M245,365.47c0,2.57-1.83,3.75-4.37,3.75h-1.27V373H237V361.88h3.45C243.26,361.88,245,363,245,365.47Zm-2.44,0c0-1.3-.77-1.88-2.16-1.88h-1v3.89h1.08C241.73,367.48,242.55,367,242.55,365.47Z" transform="translate(-0.45)"/><path class="fb534922-a752-40e0-8328-8099f9308ac2" d="M253.31,366.8V373H251v-5.82c0-1-.38-1.25-.94-1.25s-1.16.43-1.65,1.17V373h-2.28V361.1l2.28-.25v4.62a3.1,3.1,0,0,1,2.48-1.24A2.29,2.29,0,0,1,253.31,366.8Z" transform="translate(-0.45)"/><path class="fb534922-a752-40e0-8328-8099f9308ac2" d="M263.08,368.75c0,2.7-1.52,4.52-4.08,4.52s-4.09-1.69-4.09-4.52,1.53-4.52,4.11-4.52S263.08,365.92,263.08,368.75Zm-5.79,0c0,2,.58,2.82,1.71,2.82s1.7-.87,1.7-2.82-.58-2.81-1.68-2.81S257.29,366.8,257.29,368.75Z" transform="translate(-0.45)"/><path class="fb534922-a752-40e0-8328-8099f9308ac2" d="M269.92,372.61a4.06,4.06,0,0,1-2.22.66c-1.77,0-2.67-1-2.67-2.93V366.1h-1.27v-1.61H265v-1.87l2.28-.27v2.14h2l-.22,1.61h-1.74v4.19c0,.84.28,1.16.86,1.16a1.92,1.92,0,0,0,1-.29Z" transform="translate(-0.45)"/><path class="fb534922-a752-40e0-8328-8099f9308ac2" d="M278.31,368.75c0,2.7-1.53,4.52-4.08,4.52s-4.09-1.69-4.09-4.52,1.53-4.52,4.1-4.52S278.31,365.92,278.31,368.75Zm-5.79,0c0,2,.58,2.82,1.71,2.82s1.7-.87,1.7-2.82-.58-2.81-1.69-2.81S272.52,366.8,272.52,368.75Z" transform="translate(-0.45)"/><path class="fb534922-a752-40e0-8328-8099f9308ac2" d="M286,365.26l-.87,1.3a4,4,0,0,0-2.12-.67c-.76,0-1.18.3-1.18.77s.29.72,1.79,1.16c1.7.46,2.67,1.17,2.67,2.68,0,1.77-1.66,2.77-3.69,2.77A5,5,0,0,1,279.1,372l1.13-1.25a3.72,3.72,0,0,0,2.28.83c.85,0,1.4-.35,1.4-.93s-.31-.85-1.88-1.29-2.53-1.33-2.53-2.62,1.32-2.54,3.38-2.54A4.89,4.89,0,0,1,286,365.26Z" transform="translate(-0.45)"/><path class="fb534922-a752-40e0-8328-8099f9308ac2" d="M217.17,383.46c0,1.36-.94,2.24-2.17,3l2.34,2.18a11.49,11.49,0,0,0,.81-2.41l1.94.58a12,12,0,0,1-1.46,3l1.91,1.71-1.89,1-1.34-1.29a5.09,5.09,0,0,1-3.52,1.29c-2.32,0-3.89-1.23-3.89-3.11,0-1.35.75-2.23,2.18-3.15-1.07-1-1.54-1.7-1.54-2.75,0-1.4,1.08-2.64,3.3-2.64C215.91,380.92,217.17,382,217.17,383.46Zm-4.89,5.89c0,1,.74,1.56,1.88,1.56a2.93,2.93,0,0,0,2-.74l-2.75-2.62A2.12,2.12,0,0,0,212.28,389.35Zm.46-5.81c0,.63.31,1.07,1,1.74.8-.51,1.24-1,1.24-1.74a1,1,0,0,0-1.11-1.11A1,1,0,0,0,212.74,383.54Z" transform="translate(-0.45)"/><path class="fb534922-a752-40e0-8328-8099f9308ac2" d="M230.93,392.31h-2.88l-3.31-11.13h2.52l2.27,9.17,2.19-9.17h2.41Z" transform="translate(-0.45)"/><path class="fb534922-a752-40e0-8328-8099f9308ac2" d="M241.88,388.74h-5.32c.16,1.64.93,2.12,2,2.12a3.42,3.42,0,0,0,2.08-.74l1,1.29a5.07,5.07,0,0,1-3.23,1.16c-2.74,0-4.17-1.8-4.17-4.47s1.38-4.57,3.88-4.57,3.84,1.61,3.84,4.32C241.93,388.14,241.9,388.5,241.88,388.74Zm-2.22-1.53c0-1.29-.43-2.12-1.53-2.12-.9,0-1.44.59-1.57,2.22h3.1Z" transform="translate(-0.45)"/><path class="fb534922-a752-40e0-8328-8099f9308ac2" d="M250,384.56l-1,1.35a2.59,2.59,0,0,0-1.67-.61c-1.15,0-1.82.82-1.82,2.8s.72,2.63,1.8,2.63a2.89,2.89,0,0,0,1.69-.59l1,1.43a4.29,4.29,0,0,1-2.8,1c-2.54,0-4.1-1.74-4.1-4.46s1.57-4.58,4.07-4.58A4.11,4.11,0,0,1,250,384.56Z" transform="translate(-0.45)"/><path class="fb534922-a752-40e0-8328-8099f9308ac2" d="M256.39,391.91a4.09,4.09,0,0,1-2.22.66c-1.77,0-2.67-1-2.67-2.93v-4.25h-1.27v-1.6h1.27v-1.87l2.28-.27v2.14h2l-.22,1.6h-1.74v4.2c0,.84.27,1.16.85,1.16a2.06,2.06,0,0,0,1-.29Z" transform="translate(-0.45)"/><path class="fb534922-a752-40e0-8328-8099f9308ac2" d="M264.78,388.05c0,2.7-1.53,4.52-4.08,4.52s-4.09-1.69-4.09-4.52,1.53-4.52,4.1-4.52S264.78,385.22,264.78,388.05Zm-5.79,0c0,2,.58,2.81,1.71,2.81s1.7-.87,1.7-2.81-.58-2.82-1.69-2.82S259,386.1,259,388.05Z" transform="translate(-0.45)"/><path class="fb534922-a752-40e0-8328-8099f9308ac2" d="M271.74,383.67l-.37,2.21a2.82,2.82,0,0,0-.77-.12c-1,0-1.54.79-1.83,2.19v4.36h-2.29v-8.52h2l.19,1.65a2.45,2.45,0,0,1,2.22-1.9A2.91,2.91,0,0,1,271.74,383.67Z" transform="translate(-0.45)"/><path class="fb534922-a752-40e0-8328-8099f9308ac2" d="M278.59,384.56l-.86,1.3a4,4,0,0,0-2.13-.68c-.75,0-1.17.31-1.17.78s.29.72,1.78,1.16c1.71.46,2.67,1.17,2.67,2.68,0,1.77-1.65,2.77-3.68,2.77a5,5,0,0,1-3.47-1.24l1.12-1.26a3.76,3.76,0,0,0,2.29.84c.85,0,1.4-.35,1.4-.93s-.31-.86-1.89-1.29-2.52-1.33-2.52-2.62c0-1.45,1.32-2.54,3.38-2.54A4.8,4.8,0,0,1,278.59,384.56Z" transform="translate(-0.45)"/><path class="fb534922-a752-40e0-8328-8099f9308ac2" d="M106.69,153.34c10.07,0,6.34,14.46,6.34,14.46s14.46-4,14.46,5.89v27.88H89V153.34Zm1.94-4.92H84.11v57.84h48.22V171.6C132.33,165.86,116.31,148.42,108.63,148.42Z" transform="translate(-0.45)"/><path class="fb534922-a752-40e0-8328-8099f9308ac2" d="M8.22,227l-.48,1.51a2.07,2.07,0,0,1-2-1.24,2.89,2.89,0,0,1-2.55,1.27,2.55,2.55,0,0,1-2.77-2.64C.45,224,1.87,223,4.37,223h1v-.42c0-1.06-.45-1.4-1.52-1.4a7.66,7.66,0,0,0-2.25.45l-.53-1.53a8.83,8.83,0,0,1,3.15-.63c2.37,0,3.4,1.05,3.4,3v3.44C7.61,226.58,7.82,226.82,8.22,227Zm-2.86-1.05V224.3H4.62c-1.26,0-1.87.45-1.87,1.38a1,1,0,0,0,1.11,1.19A1.68,1.68,0,0,0,5.36,225.92Z" transform="translate(-0.45)"/><path class="fb534922-a752-40e0-8328-8099f9308ac2" d="M17.64,224c0,2.6-1.25,4.53-3.38,4.53a2.7,2.7,0,0,1-2.12-.91v3.94l-2.28.25V219.73h2l.13,1a3.07,3.07,0,0,1,2.46-1.24C16.68,219.47,17.64,221.23,17.64,224Zm-2.38,0c0-2.14-.56-2.83-1.49-2.83a2,2,0,0,0-1.63,1.11V226a1.67,1.67,0,0,0,1.45.84C14.63,226.81,15.26,226,15.26,224Z" transform="translate(-0.45)"/><path class="fb534922-a752-40e0-8328-8099f9308ac2" d="M27.13,224c0,2.6-1.26,4.53-3.38,4.53a2.68,2.68,0,0,1-2.12-.91v3.94l-2.28.25V219.73h2l.12,1a3.1,3.1,0,0,1,2.46-1.24C26.16,219.47,27.13,221.23,27.13,224Zm-2.38,0c0-2.14-.56-2.83-1.5-2.83a2,2,0,0,0-1.62,1.11V226a1.67,1.67,0,0,0,1.45.84C24.12,226.81,24.75,226,24.75,224Z" transform="translate(-0.45)"/><path class="fb534922-a752-40e0-8328-8099f9308ac2" d="M28.74,226.2v-9.86l2.28-.26v10c0,.37.13.57.47.57a1.06,1.06,0,0,0,.45-.1l.46,1.62a3.74,3.74,0,0,1-1.46.29A2.06,2.06,0,0,1,28.74,226.2Z" transform="translate(-0.45)"/><path class="fb534922-a752-40e0-8328-8099f9308ac2" d="M40.73,224.68H35.41c.16,1.65.93,2.13,2,2.13a3.48,3.48,0,0,0,2.07-.74l1,1.28a5,5,0,0,1-3.23,1.16c-2.74,0-4.17-1.8-4.17-4.47s1.38-4.57,3.88-4.57,3.84,1.61,3.84,4.33C40.78,224.09,40.75,224.44,40.73,224.68Zm-2.22-1.52c0-1.29-.43-2.13-1.52-2.13-.9,0-1.45.6-1.58,2.22h3.1Z" transform="translate(-0.45)"/><path class="fb534922-a752-40e0-8328-8099f9308ac2" d="M48.37,220.5l-.87,1.31a3.88,3.88,0,0,0-2.12-.68c-.76,0-1.17.31-1.17.77s.29.73,1.78,1.16c1.71.47,2.67,1.17,2.67,2.69,0,1.76-1.66,2.76-3.68,2.76a5.08,5.08,0,0,1-3.48-1.24L42.63,226a3.73,3.73,0,0,0,2.28.84c.86,0,1.4-.36,1.4-.94s-.3-.85-1.88-1.28-2.52-1.34-2.52-2.63,1.31-2.54,3.37-2.54A4.87,4.87,0,0,1,48.37,220.5Z" transform="translate(-0.45)"/><path class="fb534922-a752-40e0-8328-8099f9308ac2" d="M57.28,224.68H52c.16,1.65.93,2.13,2,2.13a3.48,3.48,0,0,0,2.08-.74l.95,1.28a5,5,0,0,1-3.24,1.16c-2.73,0-4.16-1.8-4.16-4.47s1.38-4.57,3.87-4.57,3.85,1.61,3.85,4.33C57.33,224.09,57.3,224.44,57.28,224.68Zm-2.22-1.52c0-1.29-.43-2.13-1.53-2.13-.9,0-1.45.6-1.57,2.22h3.1Z" transform="translate(-0.45)"/><path class="fb534922-a752-40e0-8328-8099f9308ac2" d="M66.16,224.68H60.83c.16,1.65.94,2.13,2,2.13a3.48,3.48,0,0,0,2.07-.74l.95,1.28a5,5,0,0,1-3.23,1.16c-2.73,0-4.17-1.8-4.17-4.47s1.39-4.57,3.88-4.57,3.84,1.61,3.84,4.33C66.2,224.09,66.17,224.44,66.16,224.68Zm-2.22-1.52c0-1.29-.44-2.13-1.53-2.13-.9,0-1.45.6-1.58,2.22h3.11Z" transform="translate(-0.45)"/><path class="fb534922-a752-40e0-8328-8099f9308ac2" d="M75.18,216.34v11.91h-2l-.13-1a2.87,2.87,0,0,1-2.45,1.3c-2.14,0-3.23-1.8-3.23-4.52s1.35-4.52,3.46-4.52a2.9,2.9,0,0,1,2.07.86v-4.25Zm-2.29,9.44V222a1.84,1.84,0,0,0-1.48-.81c-1,0-1.67.84-1.67,2.83s.61,2.82,1.53,2.82A1.89,1.89,0,0,0,72.89,225.78Z" transform="translate(-0.45)"/><path class="fb534922-a752-40e0-8328-8099f9308ac2" d="M77.06,222.32h5v1.8h-5Z" transform="translate(-0.45)"/><path class="fb534922-a752-40e0-8328-8099f9308ac2" d="M86.21,227.4c0,2.69-1.31,3.62-3.25,4.38l-.76-1.66a2.37,2.37,0,0,0,1.72-2.57v-7.82h2.29Zm.25-10.73a1.39,1.39,0,1,1-1.39-1.33A1.32,1.32,0,0,1,86.46,216.67Z" transform="translate(-0.45)"/><path class="fb534922-a752-40e0-8328-8099f9308ac2" d="M96.08,224c0,2.71-1.53,4.52-4.08,4.52s-4.09-1.69-4.09-4.52,1.53-4.52,4.1-4.52S96.08,221.16,96.08,224Zm-5.79,0c0,2,.58,2.82,1.71,2.82s1.7-.87,1.7-2.82-.58-2.81-1.69-2.81S90.29,222.05,90.29,224Z" transform="translate(-0.45)"/><path class="fb534922-a752-40e0-8328-8099f9308ac2" d="M104.94,222.05v6.2h-2.28v-5.82c0-1-.39-1.25-1-1.25a2.05,2.05,0,0,0-1.64,1.17v5.9H97.79V216.34l2.28-.24v4.61a3.09,3.09,0,0,1,2.48-1.24A2.29,2.29,0,0,1,104.94,222.05Z" transform="translate(-0.45)"/><path class="fb534922-a752-40e0-8328-8099f9308ac2" d="M114.19,222.05v6.2H111.9v-5.82c0-1-.37-1.25-.93-1.25s-1.17.43-1.66,1.19v5.88H107v-8.52h2l.17,1.08a3.2,3.2,0,0,1,2.59-1.34A2.3,2.3,0,0,1,114.19,222.05Z" transform="translate(-0.45)"/><path class="fb534922-a752-40e0-8328-8099f9308ac2" d="M123.43,222.05v6.2h-2.28v-5.82c0-1-.37-1.25-.93-1.25a2,2,0,0,0-1.66,1.19v5.88h-2.28v-8.52h2l.18,1.08a3.18,3.18,0,0,1,2.59-1.34A2.29,2.29,0,0,1,123.43,222.05Z" transform="translate(-0.45)"/><path class="fb534922-a752-40e0-8328-8099f9308ac2" d="M129.85,228.27a4.64,4.64,0,0,1-4.6,3.52l-.24-1.64c1.69-.22,2.27-.74,2.73-1.9H127l-2.66-8.52h2.43l1.71,7.05,1.8-7.05h2.36Z" transform="translate(-0.45)"/><path class="fb534922-a752-40e0-8328-8099f9308ac2" d="M133.18,222.32h5v1.8h-5Z" transform="translate(-0.45)"/><path class="fb534922-a752-40e0-8328-8099f9308ac2" d="M151.5,222.05v6.2h-2.29v-5.82c0-1-.38-1.25-.83-1.25-.63,0-1,.43-1.47,1.19v5.88h-2.28v-5.82c0-1-.39-1.25-.84-1.25-.62,0-1.06.43-1.48,1.19v5.88H140v-8.52h2l.16,1.08a3,3,0,0,1,2.48-1.34,2.05,2.05,0,0,1,2,1.4,3,3,0,0,1,2.54-1.4A2.28,2.28,0,0,1,151.5,222.05Z" transform="translate(-0.45)"/><path class="fb534922-a752-40e0-8328-8099f9308ac2" d="M160.77,224.68h-5.32c.16,1.65.93,2.13,2,2.13a3.48,3.48,0,0,0,2.07-.74l.95,1.28a5,5,0,0,1-3.23,1.16c-2.74,0-4.17-1.8-4.17-4.47s1.38-4.57,3.88-4.57,3.84,1.61,3.84,4.33C160.82,224.09,160.79,224.44,160.77,224.68Zm-2.22-1.52c0-1.29-.43-2.13-1.52-2.13-.9,0-1.45.6-1.58,2.22h3.1Z" transform="translate(-0.45)"/><path class="fb534922-a752-40e0-8328-8099f9308ac2" d="M169.62,222.05v6.2h-2.29v-5.82c0-1-.37-1.25-.93-1.25s-1.17.43-1.66,1.19v5.88h-2.28v-8.52h2l.17,1.08a3.2,3.2,0,0,1,2.59-1.34A2.3,2.3,0,0,1,169.62,222.05Z" transform="translate(-0.45)"/><path class="fb534922-a752-40e0-8328-8099f9308ac2" d="M178.67,228.25h-2l-.11-1.14a2.88,2.88,0,0,1-2.59,1.4c-1.58,0-2.38-1-2.38-2.65v-6.13h2.28v5.84c0,.93.31,1.24.94,1.24a1.9,1.9,0,0,0,1.56-1.11v-6h2.28Z" transform="translate(-0.45)"/><path class="fb534922-a752-40e0-8328-8099f9308ac2" d="M183.08,227.13a1.38,1.38,0,1,1-1.39-1.37A1.38,1.38,0,0,1,183.08,227.13Z" transform="translate(-0.45)"/><path class="fb534922-a752-40e0-8328-8099f9308ac2" d="M187.27,216.67a1.33,1.33,0,0,1-1.4,1.34,1.34,1.34,0,1,1,0-2.67A1.33,1.33,0,0,1,187.27,216.67ZM187,228.25h-2.29v-8.52H187Z" transform="translate(-0.45)"/><path class="fb534922-a752-40e0-8328-8099f9308ac2" d="M196.38,222.05v6.2h-2.29v-5.82c0-1-.37-1.25-.93-1.25a2,2,0,0,0-1.66,1.19v5.88h-2.28v-8.52h2l.18,1.08a3.18,3.18,0,0,1,2.59-1.34A2.3,2.3,0,0,1,196.38,222.05Z" transform="translate(-0.45)"/><path class="fb534922-a752-40e0-8328-8099f9308ac2" d="M205.8,216.34v11.91h-2l-.13-1a2.86,2.86,0,0,1-2.45,1.3c-2.13,0-3.23-1.8-3.23-4.52s1.35-4.52,3.46-4.52a2.9,2.9,0,0,1,2.07.86v-4.25Zm-2.29,9.44V222a1.84,1.84,0,0,0-1.47-.81c-1,0-1.68.84-1.68,2.83s.61,2.82,1.53,2.82A1.89,1.89,0,0,0,203.51,225.78Z" transform="translate(-0.45)"/><path class="fb534922-a752-40e0-8328-8099f9308ac2" d="M215.33,216.34v11.91h-2l-.12-1a2.89,2.89,0,0,1-2.45,1.3c-2.14,0-3.23-1.8-3.23-4.52s1.35-4.52,3.46-4.52a2.92,2.92,0,0,1,2.07.86v-4.25Zm-2.28,9.44V222a1.86,1.86,0,0,0-1.48-.81c-1,0-1.67.84-1.67,2.83s.61,2.82,1.53,2.82A1.89,1.89,0,0,0,213.05,225.78Z" transform="translate(-0.45)"/><path class="b5ad5d94-de4c-4871-83e3-458e6dfe70f1" d="M107.46,257.87c5,0,3.16,7.23,3.16,7.23s7.23-2,7.23,2.95V282H98.59V257.87Zm1-2.46H96.16v28.92h24.12V267C120.28,264.13,112.26,255.41,108.43,255.41Z" transform="translate(-0.45)"/><path class="b5ad5d94-de4c-4871-83e3-458e6dfe70f1" d="M89.41,295.33H88.25l-.12-2.26c0-.8-.07-1.63,0-2.27l-.94,3.94H86l-1-3.95a19.61,19.61,0,0,1,0,2.3l-.12,2.24H83.75l.44-5.56h1.5l.92,3.83.86-3.83H89Z" transform="translate(-0.45)"/><path class="b5ad5d94-de4c-4871-83e3-458e6dfe70f1" d="M93.88,293.54H91.21c.08.83.47,1.07,1,1.07a1.76,1.76,0,0,0,1-.37l.48.64a2.51,2.51,0,0,1-1.62.58A2,2,0,0,1,90,293.22c0-1.28.69-2.28,1.94-2.28s1.92.8,1.92,2.16C93.9,293.25,93.88,293.42,93.88,293.54Zm-1.11-.76c0-.64-.22-1.06-.77-1.06s-.72.3-.79,1.11h1.56Z" transform="translate(-0.45)"/><path class="b5ad5d94-de4c-4871-83e3-458e6dfe70f1" d="M98.3,292.23v3.1H97.16v-2.91c0-.49-.19-.63-.47-.63s-.59.22-.83.6v2.94H94.72v-4.26h1l.08.54a1.59,1.59,0,0,1,1.3-.67A1.15,1.15,0,0,1,98.3,292.23Z" transform="translate(-0.45)"/><path class="b5ad5d94-de4c-4871-83e3-458e6dfe70f1" d="M102.82,295.33h-1l0-.57a1.46,1.46,0,0,1-1.3.7c-.78,0-1.19-.51-1.19-1.33v-3.06h1.15V294c0,.46.15.62.46.62a.93.93,0,0,0,.78-.56v-3h1.14Z" transform="translate(-0.45)"/><path class="b5ad5d94-de4c-4871-83e3-458e6dfe70f1" d="M103.76,292.36h2.5v.9h-2.5Z" transform="translate(-0.45)"/><path class="b5ad5d94-de4c-4871-83e3-458e6dfe70f1" d="M109.3,295.33h-1.36l-1.39-4.26h1.23l.85,3.37.86-3.37h1.17Z" transform="translate(-0.45)"/><path class="b5ad5d94-de4c-4871-83e3-458e6dfe70f1" d="M114.27,291.34c0,.88-.47,1.53-2.15,3.11h2.27l-.12.88h-3.45v-.83c1.84-1.84,2.28-2.34,2.28-3.06a.7.7,0,0,0-.74-.75,1.26,1.26,0,0,0-1,.57l-.69-.55a2.18,2.18,0,0,1,1.81-.9A1.6,1.6,0,0,1,114.27,291.34Z" transform="translate(-0.45)"/><path class="b5ad5d94-de4c-4871-83e3-458e6dfe70f1" d="M116.33,294.77a.69.69,0,1,1-.69-.69A.69.69,0,0,1,116.33,294.77Z" transform="translate(-0.45)"/><path class="b5ad5d94-de4c-4871-83e3-458e6dfe70f1" d="M118.43,289.54a.67.67,0,0,1-.7.67.67.67,0,1,1,0-1.34A.67.67,0,0,1,118.43,289.54Zm-.13,5.79h-1.14v-4.26h1.14Z" transform="translate(-0.45)"/><path class="b5ad5d94-de4c-4871-83e3-458e6dfe70f1" d="M123,292.23v3.1h-1.14v-2.91c0-.49-.19-.63-.47-.63s-.58.22-.83.6v2.94H119.4v-4.26h1l.09.54a1.58,1.58,0,0,1,1.29-.67A1.15,1.15,0,0,1,123,292.23Z" transform="translate(-0.45)"/><path class="b5ad5d94-de4c-4871-83e3-458e6dfe70f1" d="M127.69,289.37v6h-1l-.07-.52a1.42,1.42,0,0,1-1.22.65c-1.07,0-1.62-.9-1.62-2.26s.68-2.26,1.73-2.26a1.46,1.46,0,0,1,1,.43v-2.13Zm-1.14,4.72v-1.9a.94.94,0,0,0-.74-.41c-.5,0-.84.42-.84,1.42s.31,1.41.77,1.41A.94.94,0,0,0,126.55,294.09Z" transform="translate(-0.45)"/><path class="b5ad5d94-de4c-4871-83e3-458e6dfe70f1" d="M132.46,289.37v6h-1l-.06-.52a1.43,1.43,0,0,1-1.22.65c-1.07,0-1.62-.9-1.62-2.26s.68-2.26,1.73-2.26a1.48,1.48,0,0,1,1,.43v-2.13Zm-1.14,4.72v-1.9a.94.94,0,0,0-.74-.41c-.5,0-.84.42-.84,1.42s.31,1.41.77,1.41A1,1,0,0,0,131.32,294.09Z" transform="translate(-0.45)"/><path class="b5ad5d94-de4c-4871-83e3-458e6dfe70f1" d="M107.46,315.46c5,0,3.16,7.23,3.16,7.23s7.23-2,7.23,2.94v13.94H98.59V315.46Zm1-2.46H96.16v28.92h24.12V324.59C120.28,321.72,112.26,313,108.43,313Z" transform="translate(-0.45)"/><path class="b5ad5d94-de4c-4871-83e3-458e6dfe70f1" d="M89.6,352.91H88.44l-.12-2.26c0-.79-.07-1.63,0-2.26l-.94,3.93H86.21l-1-3.94a19.61,19.61,0,0,1,0,2.3l-.12,2.23H83.94l.43-5.56h1.51l.91,3.84.86-3.84h1.52Z" transform="translate(-0.45)"/><path class="b5ad5d94-de4c-4871-83e3-458e6dfe70f1" d="M94.06,351.13H91.4c.08.82.46,1.06,1,1.06a1.72,1.72,0,0,0,1-.37l.47.64a2.48,2.48,0,0,1-1.61.58,2,2,0,0,1-2.09-2.23c0-1.29.7-2.29,1.94-2.29s1.92.81,1.92,2.17C94.08,350.83,94.07,351,94.06,351.13ZM93,350.37c0-.65-.22-1.07-.76-1.07s-.73.3-.79,1.11H93Z" transform="translate(-0.45)"/><path class="b5ad5d94-de4c-4871-83e3-458e6dfe70f1" d="M98.48,349.81v3.1H97.34V350c0-.49-.18-.62-.47-.62s-.58.21-.82.59v2.94H94.9v-4.26h1l.09.54a1.59,1.59,0,0,1,1.29-.67A1.15,1.15,0,0,1,98.48,349.81Z" transform="translate(-0.45)"/><path class="b5ad5d94-de4c-4871-83e3-458e6dfe70f1" d="M103,352.91h-1l-.06-.57a1.42,1.42,0,0,1-1.29.7c-.79,0-1.19-.5-1.19-1.32v-3.07h1.14v2.92c0,.47.15.62.47.62a1,1,0,0,0,.78-.55v-3H103Z" transform="translate(-0.45)"/><path class="b5ad5d94-de4c-4871-83e3-458e6dfe70f1" d="M104,350h2.49v.9H104Z" transform="translate(-0.45)"/><path class="b5ad5d94-de4c-4871-83e3-458e6dfe70f1" d="M109.48,352.91h-1.36l-1.39-4.26H108l.84,3.37.86-3.37h1.18Z" transform="translate(-0.45)"/><path class="b5ad5d94-de4c-4871-83e3-458e6dfe70f1" d="M113.78,352.91h-1.11v-4.29l-1.2.73-.49-.77,1.8-1.09h1Z" transform="translate(-0.45)"/><path class="b5ad5d94-de4c-4871-83e3-458e6dfe70f1" d="M116.15,352.35a.69.69,0,1,1-.7-.68A.69.69,0,0,1,116.15,352.35Z" transform="translate(-0.45)"/><path class="b5ad5d94-de4c-4871-83e3-458e6dfe70f1" d="M118.24,347.12a.7.7,0,1,1-.7-.66A.66.66,0,0,1,118.24,347.12Zm-.12,5.79H117v-4.26h1.15Z" transform="translate(-0.45)"/><path class="b5ad5d94-de4c-4871-83e3-458e6dfe70f1" d="M122.8,349.81v3.1h-1.15V350c0-.49-.18-.62-.46-.62a1,1,0,0,0-.83.59v2.94h-1.14v-4.26h1l.09.54a1.59,1.59,0,0,1,1.3-.67A1.15,1.15,0,0,1,122.8,349.81Z" transform="translate(-0.45)"/><path class="b5ad5d94-de4c-4871-83e3-458e6dfe70f1" d="M127.51,347v6h-1l-.06-.52a1.43,1.43,0,0,1-1.22.65c-1.07,0-1.62-.9-1.62-2.26s.67-2.26,1.73-2.26a1.48,1.48,0,0,1,1,.43v-2.12Zm-1.14,4.73v-1.91a.93.93,0,0,0-.74-.4c-.5,0-.84.42-.84,1.41s.3,1.41.76,1.41A1,1,0,0,0,126.37,351.68Z" transform="translate(-0.45)"/><path class="b5ad5d94-de4c-4871-83e3-458e6dfe70f1" d="M132.28,347v6h-1l-.06-.52A1.45,1.45,0,0,1,130,353c-1.07,0-1.61-.9-1.61-2.26s.67-2.26,1.73-2.26a1.44,1.44,0,0,1,1,.43v-2.12Zm-1.15,4.73v-1.91a.92.92,0,0,0-.74-.4c-.49,0-.83.42-.83,1.41s.3,1.41.76,1.41A.94.94,0,0,0,131.13,351.68Z" transform="translate(-0.45)"/><path class="fb534922-a752-40e0-8328-8099f9308ac2" d="M333.73,164.89l-3.06-18.56h21.55c3.87,4.92,4.1,6.19,10.28,6.19h36.3l-3,12.37h-6.19l1.49-6.18H362.65c-7.23,0-9.84-1.87-13.27-6.19H337.83l2.09,12.37Zm68.2,6.27-6.19,37.19H333.81l-6.19-37.19h19.45l7.16-9.32,12.07,9.32h6.12L368,167.8l4.54-5.89,12.08,9.32Zm-7.15,6.11H334.85l4.32,24.82h51.36l4.25-24.82Z" transform="translate(-0.45)"/><path class="fb534922-a752-40e0-8328-8099f9308ac2" d="M349.21,226.36h4.41l-.26,1.89h-6.52V217.13h2.37Z" transform="translate(-0.45)"/><path class="fb534922-a752-40e0-8328-8099f9308ac2" d="M357.49,216.67a1.33,1.33,0,0,1-1.4,1.34,1.34,1.34,0,1,1,0-2.67A1.33,1.33,0,0,1,357.49,216.67Zm-.26,11.58H355v-8.52h2.28Z" transform="translate(-0.45)"/><path class="fb534922-a752-40e0-8328-8099f9308ac2" d="M366.59,222.05v6.2h-2.28v-5.82c0-1-.37-1.25-.93-1.25a2,2,0,0,0-1.66,1.19v5.88h-2.28v-8.52h2l.18,1.08a3.18,3.18,0,0,1,2.59-1.34A2.29,2.29,0,0,1,366.59,222.05Z" transform="translate(-0.45)"/><path class="fb534922-a752-40e0-8328-8099f9308ac2" d="M371,228.25h-2.29V216.34l2.29-.26Zm2.46-4.77,3,4.77h-2.6l-2.75-4.66,2.73-3.86h2.36Z" transform="translate(-0.45)"/><path class="fb534922-a752-40e0-8328-8099f9308ac2" d="M383.25,220.5l-.87,1.31a3.88,3.88,0,0,0-2.12-.68c-.76,0-1.17.31-1.17.77s.29.73,1.78,1.16c1.71.47,2.67,1.17,2.67,2.69,0,1.76-1.66,2.76-3.68,2.76a5.08,5.08,0,0,1-3.48-1.24l1.13-1.25a3.73,3.73,0,0,0,2.28.84c.86,0,1.4-.36,1.4-.94s-.3-.85-1.88-1.28-2.52-1.34-2.52-2.63,1.32-2.54,3.37-2.54A4.87,4.87,0,0,1,383.25,220.5Z" transform="translate(-0.45)"/><path class="b5ad5d94-de4c-4871-83e3-458e6dfe70f1" d="M297.56,234.78a12.59,12.59,0,0,0,0,14.28l-1.46,1c-1.61-2.21-3.09-4.29-3.09-8.12s1.48-5.9,3.09-8.12Z" transform="translate(-0.45)"/><path class="b5ad5d94-de4c-4871-83e3-458e6dfe70f1" d="M306.73,243.27c0,2.61-1.26,4.54-3.38,4.54a2.69,2.69,0,0,1-2.12-.92v3.94l-2.29.26V239h2l.13,1a3.09,3.09,0,0,1,2.46-1.24C305.76,238.77,306.73,240.52,306.73,243.27Zm-2.38,0c0-2.14-.57-2.83-1.5-2.83a2,2,0,0,0-1.62,1.11v3.7a1.66,1.66,0,0,0,1.44.83C303.72,246.1,304.35,245.28,304.35,243.29Z" transform="translate(-0.45)"/><path class="b5ad5d94-de4c-4871-83e3-458e6dfe70f1" d="M308.33,245.49v-9.86l2.29-.25v10.05c0,.37.13.56.46.56a1,1,0,0,0,.45-.09l.47,1.62a3.78,3.78,0,0,1-1.46.29A2.07,2.07,0,0,1,308.33,245.49Z" transform="translate(-0.45)"/><path class="b5ad5d94-de4c-4871-83e3-458e6dfe70f1" d="M320.27,246.26l-.49,1.52a2.08,2.08,0,0,1-2-1.24,2.92,2.92,0,0,1-2.56,1.27,2.55,2.55,0,0,1-2.76-2.64c0-1.86,1.41-2.88,3.92-2.88h1v-.42c0-1.06-.45-1.39-1.51-1.39a7.66,7.66,0,0,0-2.25.45l-.53-1.53a8.83,8.83,0,0,1,3.15-.63c2.36,0,3.39,1,3.39,3v3.44C319.65,245.88,319.86,246.12,320.27,246.26Zm-2.87-1V243.6h-.74c-1.25,0-1.86.45-1.86,1.38a1,1,0,0,0,1.11,1.19A1.66,1.66,0,0,0,317.4,245.22Z" transform="translate(-0.45)"/><path class="b5ad5d94-de4c-4871-83e3-458e6dfe70f1" d="M328.32,239.8l-1,1.35a2.56,2.56,0,0,0-1.67-.61c-1.14,0-1.82.82-1.82,2.8s.73,2.64,1.81,2.64a2.88,2.88,0,0,0,1.68-.6l1,1.43a4.25,4.25,0,0,1-2.8,1c-2.54,0-4.1-1.74-4.1-4.46s1.58-4.58,4.07-4.58A4.1,4.1,0,0,1,328.32,239.8Z" transform="translate(-0.45)"/><path class="b5ad5d94-de4c-4871-83e3-458e6dfe70f1" d="M336.54,244h-5.32c.16,1.64.93,2.12,2,2.12a3.42,3.42,0,0,0,2.08-.74l.95,1.29a5,5,0,0,1-3.24,1.16c-2.73,0-4.16-1.8-4.16-4.47s1.38-4.57,3.87-4.57,3.85,1.61,3.85,4.33C336.59,243.39,336.55,243.74,336.54,244Zm-2.22-1.53c0-1.28-.43-2.12-1.53-2.12-.9,0-1.45.6-1.57,2.22h3.1Z" transform="translate(-0.45)"/><path class="b5ad5d94-de4c-4871-83e3-458e6dfe70f1" d="M345.56,235.63v11.92h-2l-.13-1a2.85,2.85,0,0,1-2.44,1.3c-2.14,0-3.24-1.8-3.24-4.52s1.35-4.52,3.46-4.52a2.93,2.93,0,0,1,2.08.85v-4.24Zm-2.28,9.45v-3.82a1.86,1.86,0,0,0-1.48-.8c-1,0-1.68.84-1.68,2.83,0,2.14.62,2.81,1.53,2.81A1.9,1.9,0,0,0,343.28,245.08Z" transform="translate(-0.45)"/><path class="b5ad5d94-de4c-4871-83e3-458e6dfe70f1" d="M354.23,236a1.4,1.4,0,1,1-1.4-1.33A1.33,1.33,0,0,1,354.23,236ZM354,247.55h-2.28V239H354Z" transform="translate(-0.45)"/><path class="b5ad5d94-de4c-4871-83e3-458e6dfe70f1" d="M363.33,241.34v6.21H361v-5.82c0-1-.37-1.25-.93-1.25s-1.17.43-1.65,1.18v5.89h-2.29V239h2l.17,1.08a3.17,3.17,0,0,1,2.59-1.34A2.29,2.29,0,0,1,363.33,241.34Z" transform="translate(-0.45)"/><path class="b5ad5d94-de4c-4871-83e3-458e6dfe70f1" d="M371.79,247.55h-2.37V236.42h2.37Z" transform="translate(-0.45)"/><path class="b5ad5d94-de4c-4871-83e3-458e6dfe70f1" d="M381.23,241.34v6.21h-2.29v-5.82c0-1-.37-1.25-.93-1.25s-1.17.43-1.66,1.18v5.89h-2.28V239h2l.18,1.08a3.17,3.17,0,0,1,2.59-1.34A2.29,2.29,0,0,1,381.23,241.34Z" transform="translate(-0.45)"/><path class="b5ad5d94-de4c-4871-83e3-458e6dfe70f1" d="M392.05,241.94c0,4.49-2.74,5.61-5.47,5.61H383.4V236.42h2.91C389.25,236.42,392.05,237.34,392.05,241.94Zm-6.29-3.78v7.65h1c1.63,0,2.87-.75,2.87-3.87s-1.3-3.78-2.91-3.78Z" transform="translate(-0.45)"/><path class="b5ad5d94-de4c-4871-83e3-458e6dfe70f1" d="M401,244h-5.33c.16,1.64.94,2.12,2,2.12a3.41,3.41,0,0,0,2.07-.74l.95,1.29a5,5,0,0,1-3.23,1.16c-2.73,0-4.16-1.8-4.16-4.47s1.38-4.57,3.87-4.57,3.84,1.61,3.84,4.33C401,243.39,401,243.74,401,244Zm-2.22-1.53c0-1.28-.44-2.12-1.53-2.12-.9,0-1.45.6-1.58,2.22h3.11Z" transform="translate(-0.45)"/><path class="b5ad5d94-de4c-4871-83e3-458e6dfe70f1" d="M408.59,239.8l-.86,1.3a4,4,0,0,0-2.13-.67c-.75,0-1.17.3-1.17.77s.29.72,1.78,1.16c1.71.46,2.67,1.17,2.67,2.68,0,1.77-1.65,2.77-3.68,2.77a5,5,0,0,1-3.47-1.24l1.12-1.25a3.84,3.84,0,0,0,2.29.83c.85,0,1.4-.35,1.4-.93s-.31-.85-1.89-1.29-2.52-1.33-2.52-2.62c0-1.45,1.32-2.54,3.38-2.54A4.84,4.84,0,0,1,408.59,239.8Z" transform="translate(-0.45)"/><path class="b5ad5d94-de4c-4871-83e3-458e6dfe70f1" d="M412.86,236a1.4,1.4,0,1,1-1.4-1.33A1.33,1.33,0,0,1,412.86,236Zm-.26,11.58h-2.29V239h2.29Z" transform="translate(-0.45)"/><path class="b5ad5d94-de4c-4871-83e3-458e6dfe70f1" d="M422.46,239.49a6.83,6.83,0,0,1-2.46.33,2.23,2.23,0,0,1,1.57,2.18c0,1.66-1.33,2.87-3.5,2.87a3.86,3.86,0,0,1-1-.12.7.7,0,0,0-.32.57c0,.29.14.56,1,.56H419c1.93,0,3.17,1,3.17,2.44,0,1.72-1.5,2.77-4.34,2.77-3.12,0-4-1-4-2.72h2.05c0,.81.35,1.16,2,1.16s2-.43,2-1.05-.44-.93-1.34-.93h-1.25c-1.79,0-2.53-.77-2.53-1.67a2,2,0,0,1,1-1.59,2.55,2.55,0,0,1-1.51-2.43c0-1.88,1.5-3.09,3.63-3.09a6.74,6.74,0,0,0,4-1Zm-5.91,2.34a1.38,1.38,0,0,0,1.42,1.56c.92,0,1.4-.55,1.4-1.6s-.47-1.49-1.42-1.49A1.36,1.36,0,0,0,416.55,241.83Z" transform="translate(-0.45)"/><path class="b5ad5d94-de4c-4871-83e3-458e6dfe70f1" d="M430.71,241.34v6.21h-2.29v-5.82c0-1-.37-1.25-.93-1.25a2,2,0,0,0-1.66,1.18v5.89h-2.28V239h2l.18,1.08a3.17,3.17,0,0,1,2.59-1.34A2.3,2.3,0,0,1,430.71,241.34Z" transform="translate(-0.45)"/><path class="b5ad5d94-de4c-4871-83e3-458e6dfe70f1" d="M436.54,241.92c0,3.83-1.48,5.91-3.09,8.12l-1.44-1a12.59,12.59,0,0,0,0-14.28l1.44-1C435.06,236,436.54,238.09,436.54,241.92Z" transform="translate(-0.45)"/><path class="fb534922-a752-40e0-8328-8099f9308ac2" d="M469.48,308.52,466.42,290H488c3.88,4.92,4.1,6.19,10.29,6.19h36.3l-3,12.37h-6.18l1.49-6.18H498.4c-7.23,0-9.84-1.87-13.27-6.19H473.58l2.08,12.37Zm68.2,6.26L531.49,352H469.55l-6.19-37.2h19.46l7.15-9.31,12.08,9.31h6.11l-4.4-3.35,4.55-5.89,12.07,9.32Zm-7.16,6.12H470.59l4.33,24.82h51.35l4.25-24.82Z" transform="translate(-0.45)"/><path class="fb534922-a752-40e0-8328-8099f9308ac2" d="M460.77,361.9l-1.12,1.3a3.76,3.76,0,0,0-2.47-.93c-1,0-1.62.41-1.62,1.2s.42,1.1,2.24,1.66c2,.64,3.29,1.48,3.29,3.54s-1.61,3.47-4.31,3.47a5.66,5.66,0,0,1-4.11-1.56l1.2-1.33a4.25,4.25,0,0,0,2.85,1.11c1.14,0,1.91-.55,1.91-1.53s-.43-1.27-2.12-1.79c-2.41-.75-3.38-1.72-3.38-3.41,0-1.89,1.64-3.13,3.89-3.13A5.09,5.09,0,0,1,460.77,361.9Z" transform="translate(-0.45)"/><path class="fb534922-a752-40e0-8328-8099f9308ac2" d="M469.6,371.88h-2l-.11-1.14a2.88,2.88,0,0,1-2.59,1.4c-1.58,0-2.38-1-2.38-2.65v-6.13h2.28v5.84c0,.93.31,1.24.93,1.24a1.88,1.88,0,0,0,1.56-1.11v-6h2.29Z" transform="translate(-0.45)"/><path class="fb534922-a752-40e0-8328-8099f9308ac2" d="M479.58,367.61c0,2.6-1.25,4.53-3.37,4.53a2.69,2.69,0,0,1-2.13-.92v3.94l-2.28.26V363.36h2l.13,1a3.09,3.09,0,0,1,2.46-1.24C478.62,363.1,479.58,364.86,479.58,367.61Zm-2.38,0c0-2.14-.56-2.83-1.49-2.83a2,2,0,0,0-1.63,1.11v3.7a1.68,1.68,0,0,0,1.45.84C476.58,370.44,477.2,369.62,477.2,367.62Z" transform="translate(-0.45)"/><path class="fb534922-a752-40e0-8328-8099f9308ac2" d="M489.07,367.61c0,2.6-1.25,4.53-3.38,4.53a2.67,2.67,0,0,1-2.12-.92v3.94l-2.28.26V363.36h2l.13,1a3.07,3.07,0,0,1,2.46-1.24C488.11,363.1,489.07,364.86,489.07,367.61Zm-2.38,0c0-2.14-.56-2.83-1.49-2.83a2,2,0,0,0-1.63,1.11v3.7a1.67,1.67,0,0,0,1.45.84C486.06,370.44,486.69,369.62,486.69,367.62Z" transform="translate(-0.45)"/><path class="fb534922-a752-40e0-8328-8099f9308ac2" d="M498.46,367.62c0,2.7-1.52,4.52-4.08,4.52s-4.09-1.69-4.09-4.52,1.53-4.52,4.1-4.52S498.46,364.79,498.46,367.62Zm-5.79,0c0,2,.58,2.82,1.71,2.82s1.7-.87,1.7-2.82-.58-2.81-1.69-2.81S492.67,365.68,492.67,367.62Z" transform="translate(-0.45)"/><path class="fb534922-a752-40e0-8328-8099f9308ac2" d="M505.43,363.25l-.37,2.2a3.41,3.41,0,0,0-.78-.11c-1,0-1.54.79-1.83,2.19v4.35h-2.28v-8.52h2l.19,1.66a2.46,2.46,0,0,1,2.22-1.9A3,3,0,0,1,505.43,363.25Z" transform="translate(-0.45)"/><path class="fb534922-a752-40e0-8328-8099f9308ac2" d="M511.67,371.48a4,4,0,0,1-2.22.66c-1.77,0-2.67-1-2.67-2.93V365h-1.27v-1.61h1.27v-1.87l2.28-.27v2.14h2L510.8,365h-1.74v4.2c0,.83.27,1.15.85,1.15a2,2,0,0,0,1-.29Z" transform="translate(-0.45)"/><path class="fb534922-a752-40e0-8328-8099f9308ac2" d="M516.65,360.75h6.47l-.26,1.73H519v3.15h3.35v1.72H519v4.53h-2.36Z" transform="translate(-0.45)"/><path class="fb534922-a752-40e0-8328-8099f9308ac2" d="M526.47,360.3a1.39,1.39,0,1,1-1.39-1.33A1.32,1.32,0,0,1,526.47,360.3Zm-.25,11.58h-2.29v-8.52h2.29Z" transform="translate(-0.45)"/><path class="fb534922-a752-40e0-8328-8099f9308ac2" d="M528.32,369.83V360l2.29-.26v10.05c0,.37.13.56.46.56a1,1,0,0,0,.45-.09l.47,1.62a3.74,3.74,0,0,1-1.46.29A2.06,2.06,0,0,1,528.32,369.83Z" transform="translate(-0.45)"/><path class="fb534922-a752-40e0-8328-8099f9308ac2" d="M540.32,368.31H535c.16,1.64.93,2.13,2,2.13a3.48,3.48,0,0,0,2.08-.74l.95,1.28a5,5,0,0,1-3.24,1.16c-2.73,0-4.16-1.8-4.16-4.47s1.38-4.57,3.88-4.57,3.84,1.61,3.84,4.33C540.37,367.72,540.34,368.07,540.32,368.31Zm-2.22-1.53c0-1.28-.43-2.12-1.53-2.12-.9,0-1.44.6-1.57,2.22h3.1Z" transform="translate(-0.45)"/><path class="fb534922-a752-40e0-8328-8099f9308ac2" d="M548,364.13l-.87,1.3a4,4,0,0,0-2.12-.67c-.76,0-1.18.3-1.18.77s.29.72,1.79,1.16c1.7.47,2.67,1.17,2.67,2.68,0,1.77-1.66,2.77-3.69,2.77a5.05,5.05,0,0,1-3.47-1.24l1.13-1.25a3.72,3.72,0,0,0,2.28.83c.85,0,1.4-.35,1.4-.93s-.31-.85-1.88-1.28-2.53-1.34-2.53-2.63,1.32-2.54,3.38-2.54A4.89,4.89,0,0,1,548,364.13Z" transform="translate(-0.45)"/><path class="b5ad5d94-de4c-4871-83e3-458e6dfe70f1" d="M476.15,385.17h-2.81v9.28H471v-9.28h-3v-1.85h8.4Z" transform="translate(-0.45)"/><path class="b5ad5d94-de4c-4871-83e3-458e6dfe70f1" d="M483.84,390.87h-5.32c.16,1.65.93,2.13,2,2.13a3.48,3.48,0,0,0,2.08-.74l.95,1.28a5,5,0,0,1-3.24,1.16c-2.73,0-4.16-1.8-4.16-4.47s1.38-4.57,3.87-4.57,3.85,1.61,3.85,4.33C483.89,390.28,483.86,390.63,483.84,390.87Zm-2.22-1.52c0-1.29-.43-2.13-1.53-2.13-.9,0-1.45.6-1.57,2.22h3.1Z" transform="translate(-0.45)"/><path class="b5ad5d94-de4c-4871-83e3-458e6dfe70f1" d="M492.51,394.45h-2.63l-1.62-3.3-1.59,3.3h-2.51L487,390l-2.51-4H487l1.34,2.83,1.3-2.83h2.44l-2.39,4Z" transform="translate(-0.45)"/><path class="b5ad5d94-de4c-4871-83e3-458e6dfe70f1" d="M498.62,394a4,4,0,0,1-2.22.66c-1.77,0-2.67-1-2.67-2.92v-4.25h-1.27v-1.61h1.27v-1.86l2.28-.28v2.14h2l-.22,1.61H496v4.2c0,.83.27,1.16.85,1.16a2.06,2.06,0,0,0,1-.29Z" transform="translate(-0.45)"/><path class="b5ad5d94-de4c-4871-83e3-458e6dfe70f1" d="M509.94,382.9l-.68,1.49a4.31,4.31,0,0,0-1.82-.4c-1,0-1.35.36-1.35,1.18v.75h4.75v8.53h-2.29v-6.92h-2.46v6.92h-2.28v-6.92h-1.32v-1.61h1.32v-.82c0-1.59,1-2.83,3.41-2.83A6.06,6.06,0,0,1,509.94,382.9Z" transform="translate(-0.45)"/><path class="b5ad5d94-de4c-4871-83e3-458e6dfe70f1" d="M512.93,392.39v-9.86l2.28-.26v10.05c0,.37.13.57.47.57a1.06,1.06,0,0,0,.45-.1l.46,1.62a3.74,3.74,0,0,1-1.46.29A2.06,2.06,0,0,1,512.93,392.39Z" transform="translate(-0.45)"/><path class="b5ad5d94-de4c-4871-83e3-458e6dfe70f1" d="M524.92,390.87H519.6c.16,1.65.93,2.13,2,2.13a3.48,3.48,0,0,0,2.07-.74l.95,1.28a5,5,0,0,1-3.23,1.16c-2.74,0-4.17-1.8-4.17-4.47s1.39-4.57,3.88-4.57S525,387.27,525,390C525,390.28,524.94,390.63,524.92,390.87Zm-2.21-1.52c0-1.29-.44-2.13-1.53-2.13-.9,0-1.45.6-1.58,2.22h3.11Z" transform="translate(-0.45)"/><path class="b5ad5d94-de4c-4871-83e3-458e6dfe70f1" d="M532.56,386.69l-.87,1.31a3.88,3.88,0,0,0-2.12-.68c-.76,0-1.17.31-1.17.77s.29.73,1.78,1.16c1.71.47,2.67,1.17,2.67,2.69,0,1.76-1.66,2.76-3.68,2.76a5.08,5.08,0,0,1-3.48-1.24l1.13-1.25a3.73,3.73,0,0,0,2.28.84c.86,0,1.4-.36,1.4-.94s-.3-.85-1.88-1.28-2.52-1.34-2.52-2.63,1.32-2.54,3.37-2.54A4.87,4.87,0,0,1,532.56,386.69Z" transform="translate(-0.45)"/><path class="b5ad5d94-de4c-4871-83e3-458e6dfe70f1" d="M446.92,413.74h-2.36V402.61h2.36Z" transform="translate(-0.45)"/><path class="b5ad5d94-de4c-4871-83e3-458e6dfe70f1" d="M456.36,407.53v6.21h-2.28v-5.82c0-1-.37-1.25-.93-1.25a2,2,0,0,0-1.66,1.19v5.88h-2.28v-8.52h2l.18,1.08A3.16,3.16,0,0,1,454,405,2.29,2.29,0,0,1,456.36,407.53Z" transform="translate(-0.45)"/><path class="b5ad5d94-de4c-4871-83e3-458e6dfe70f1" d="M464.4,406l-.86,1.3a4,4,0,0,0-2.13-.67c-.75,0-1.17.3-1.17.77s.29.72,1.78,1.16c1.71.46,2.67,1.17,2.67,2.68C464.69,413,463,414,461,414a5,5,0,0,1-3.47-1.24l1.12-1.25a3.82,3.82,0,0,0,2.29.83c.85,0,1.4-.35,1.4-.93s-.31-.85-1.89-1.29-2.52-1.33-2.52-2.62c0-1.45,1.32-2.54,3.38-2.54A4.86,4.86,0,0,1,464.4,406Z" transform="translate(-0.45)"/><path class="b5ad5d94-de4c-4871-83e3-458e6dfe70f1" d="M473.91,409.46c0,2.61-1.26,4.54-3.38,4.54a2.69,2.69,0,0,1-2.12-.92V417l-2.29.26V405.22h2l.13,1a3.1,3.1,0,0,1,2.46-1.24C472.94,405,473.91,406.71,473.91,409.46Zm-2.38,0c0-2.14-.56-2.83-1.5-2.83a2,2,0,0,0-1.62,1.11v3.7a1.66,1.66,0,0,0,1.45.83C470.9,412.29,471.53,411.47,471.53,409.48Z" transform="translate(-0.45)"/><path class="b5ad5d94-de4c-4871-83e3-458e6dfe70f1" d="M478.15,402.16a1.33,1.33,0,0,1-1.4,1.34,1.34,1.34,0,1,1,0-2.67A1.33,1.33,0,0,1,478.15,402.16Zm-.25,11.58h-2.29v-8.52h2.29Z" transform="translate(-0.45)"/><path class="b5ad5d94-de4c-4871-83e3-458e6dfe70f1" d="M485.36,405.11l-.37,2.2a2.92,2.92,0,0,0-.77-.11c-1.05,0-1.55.78-1.84,2.18v4.36H480.1v-8.52h2l.2,1.65A2.43,2.43,0,0,1,484.5,405,3,3,0,0,1,485.36,405.11Z" transform="translate(-0.45)"/><path class="b5ad5d94-de4c-4871-83e3-458e6dfe70f1" d="M493.19,412.46l-.48,1.51a2.07,2.07,0,0,1-2-1.24,2.89,2.89,0,0,1-2.55,1.27,2.55,2.55,0,0,1-2.77-2.64c0-1.86,1.42-2.88,3.93-2.88h1v-.41c0-1.07-.45-1.4-1.52-1.4a7.72,7.72,0,0,0-2.25.45l-.53-1.53a8.83,8.83,0,0,1,3.15-.63c2.37,0,3.4,1.05,3.4,3v3.44C492.58,412.07,492.79,412.31,493.19,412.46Zm-2.86-1v-1.62h-.74c-1.26,0-1.87.45-1.87,1.38a1,1,0,0,0,1.11,1.19A1.68,1.68,0,0,0,490.33,411.41Z" transform="translate(-0.45)"/><path class="b5ad5d94-de4c-4871-83e3-458e6dfe70f1" d="M500,413.34a4.06,4.06,0,0,1-2.22.66c-1.77,0-2.67-1-2.67-2.93v-4.24H493.8v-1.61h1.27v-1.87l2.28-.27v2.14h2l-.23,1.61h-1.74V411c0,.84.28,1.16.86,1.16a1.92,1.92,0,0,0,1-.29Z" transform="translate(-0.45)"/><path class="b5ad5d94-de4c-4871-83e3-458e6dfe70f1" d="M503.48,402.16a1.33,1.33,0,0,1-1.4,1.34,1.34,1.34,0,1,1,0-2.67A1.33,1.33,0,0,1,503.48,402.16Zm-.26,11.58h-2.28v-8.52h2.28Z" transform="translate(-0.45)"/><path class="b5ad5d94-de4c-4871-83e3-458e6dfe70f1" d="M513.11,409.48c0,2.7-1.53,4.52-4.08,4.52s-4.09-1.69-4.09-4.52S506.47,405,509,405,513.11,406.65,513.11,409.48Zm-5.79,0c0,2,.58,2.81,1.71,2.81s1.7-.86,1.7-2.81-.58-2.81-1.69-2.81S507.32,407.53,507.32,409.48Z" transform="translate(-0.45)"/><path class="b5ad5d94-de4c-4871-83e3-458e6dfe70f1" d="M522,407.53v6.21h-2.28v-5.82c0-1-.37-1.25-.93-1.25a2,2,0,0,0-1.66,1.19v5.88h-2.28v-8.52h2l.18,1.08a3.16,3.16,0,0,1,2.59-1.34A2.29,2.29,0,0,1,522,407.53Z" transform="translate(-0.45)"/><path class="b5ad5d94-de4c-4871-83e3-458e6dfe70f1" d="M534.4,402.19l-.67,1.5a4.35,4.35,0,0,0-1.82-.4c-1,0-1.35.35-1.35,1.17v.76h4.74v8.52H533v-6.91h-2.46v6.91h-2.28v-6.91H527v-1.61h1.32v-.82c0-1.59,1-2.83,3.41-2.83A6.2,6.2,0,0,1,534.4,402.19Z" transform="translate(-0.45)"/><path class="b5ad5d94-de4c-4871-83e3-458e6dfe70f1" d="M537.39,411.68v-9.85l2.29-.26v10.05c0,.37.12.56.46.56a1,1,0,0,0,.45-.09l.47,1.62a3.78,3.78,0,0,1-1.46.29A2.07,2.07,0,0,1,537.39,411.68Z" transform="translate(-0.45)"/><path class="b5ad5d94-de4c-4871-83e3-458e6dfe70f1" d="M549.39,410.17h-5.32c.16,1.64.93,2.12,2,2.12a3.42,3.42,0,0,0,2.08-.74l1,1.29a5,5,0,0,1-3.24,1.16c-2.73,0-4.16-1.8-4.16-4.47s1.38-4.57,3.87-4.57,3.85,1.61,3.85,4.33C549.44,409.58,549.41,409.93,549.39,410.17Zm-2.22-1.53c0-1.28-.43-2.12-1.53-2.12-.9,0-1.44.6-1.57,2.22h3.1Z" transform="translate(-0.45)"/><path class="b5ad5d94-de4c-4871-83e3-458e6dfe70f1" d="M557,406l-.87,1.3a4,4,0,0,0-2.12-.67c-.76,0-1.18.3-1.18.77s.29.72,1.79,1.16c1.7.46,2.67,1.17,2.67,2.68,0,1.77-1.66,2.77-3.69,2.77a5,5,0,0,1-3.47-1.24l1.13-1.25a3.79,3.79,0,0,0,2.28.83c.85,0,1.4-.35,1.4-.93s-.31-.85-1.88-1.29c-1.72-.48-2.53-1.33-2.53-2.62,0-1.45,1.32-2.54,3.38-2.54A4.89,4.89,0,0,1,557,406Z" transform="translate(-0.45)"/><path class="b5ad5d94-de4c-4871-83e3-458e6dfe70f1" d="M491.65,429.47h-5.32c.16,1.64.93,2.12,2,2.12a3.41,3.41,0,0,0,2.07-.74l.95,1.29a5.07,5.07,0,0,1-3.23,1.16c-2.74,0-4.17-1.81-4.17-4.47s1.39-4.57,3.88-4.57,3.84,1.61,3.84,4.32C491.7,428.87,491.67,429.23,491.65,429.47Zm-2.22-1.53c0-1.29-.43-2.12-1.52-2.12-.9,0-1.45.59-1.58,2.22h3.1Z" transform="translate(-0.45)"/><path class="b5ad5d94-de4c-4871-83e3-458e6dfe70f1" d="M498.47,432.64a4.06,4.06,0,0,1-2.22.66c-1.77,0-2.67-1-2.67-2.93v-4.25h-1.27v-1.6h1.27v-1.87l2.29-.27v2.14h2l-.23,1.6h-1.73v4.2c0,.84.27,1.16.85,1.16a2,2,0,0,0,1-.29Z" transform="translate(-0.45)"/><path class="b5ad5d94-de4c-4871-83e3-458e6dfe70f1" d="M505.6,425.29l-1,1.35a2.59,2.59,0,0,0-1.67-.61c-1.15,0-1.82.82-1.82,2.8s.72,2.63,1.8,2.63a2.89,2.89,0,0,0,1.69-.59l1,1.43a4.29,4.29,0,0,1-2.8,1c-2.54,0-4.1-1.74-4.1-4.46s1.57-4.58,4.06-4.58A4.12,4.12,0,0,1,505.6,425.29Z" transform="translate(-0.45)"/><path class="b5ad5d94-de4c-4871-83e3-458e6dfe70f1" d="M509.23,431.91a1.38,1.38,0,1,1-2.75,0,1.38,1.38,0,0,1,2.75,0Zm3.94,0a1.38,1.38,0,1,1-2.75,0,1.38,1.38,0,0,1,2.75,0Zm3.94,0a1.38,1.38,0,0,1-1.38,1.39,1.38,1.38,0,1,1,1.38-1.39Z" transform="translate(-0.45)"/><path class="fb534922-a752-40e0-8328-8099f9308ac2" d="M590.13,164.89l-3.06-18.56h21.54c3.88,4.92,4.1,6.19,10.29,6.19h36.3l-3,12.37H646l1.49-6.18H619.05c-7.23,0-9.84-1.87-13.27-6.19H594.23l2.08,12.37Zm68.2,6.27-6.19,37.19H590.2L584,171.16h19.46l7.15-9.32,12.08,9.32h6.11l-4.4-3.36,4.55-5.89L641,171.23Zm-7.16,6.11H591.24l4.33,24.82h51.35l4.25-24.82Z" transform="translate(-0.45)"/><path class="fb534922-a752-40e0-8328-8099f9308ac2" d="M571.73,225c0,2.49-2,3.23-4.74,3.23h-3.48V217.13h3c2.92,0,4.7.78,4.7,2.84a2.44,2.44,0,0,1-2,2.4C570.46,222.61,571.73,223.2,571.73,225Zm-5.85-6.19v2.81H567c1.12,0,1.8-.46,1.8-1.46s-.69-1.35-2.06-1.35Zm3.39,6.1c0-1.24-.87-1.68-2.06-1.68h-1.33v3.25H567C568.32,226.5,569.27,226.24,569.27,224.93Z" transform="translate(-0.45)"/><path class="fb534922-a752-40e0-8328-8099f9308ac2" d="M580.45,227l-.48,1.51a2.07,2.07,0,0,1-2-1.24,2.89,2.89,0,0,1-2.55,1.27,2.55,2.55,0,0,1-2.77-2.64c0-1.86,1.42-2.87,3.93-2.87h1v-.42c0-1.06-.45-1.4-1.52-1.4a7.66,7.66,0,0,0-2.25.45l-.53-1.53a8.83,8.83,0,0,1,3.15-.63c2.37,0,3.4,1.05,3.4,3v3.44C579.84,226.58,580.05,226.82,580.45,227Zm-2.86-1.05V224.3h-.74c-1.26,0-1.87.45-1.87,1.38a1,1,0,0,0,1.11,1.19A1.68,1.68,0,0,0,577.59,225.92Z" transform="translate(-0.45)"/><path class="fb534922-a752-40e0-8328-8099f9308ac2" d="M588.5,220.5l-1,1.35a2.66,2.66,0,0,0-1.68-.61c-1.14,0-1.81.82-1.81,2.8s.72,2.64,1.8,2.64a2.84,2.84,0,0,0,1.69-.6l1,1.43a4.25,4.25,0,0,1-2.79,1c-2.54,0-4.1-1.73-4.1-4.45s1.57-4.59,4.06-4.59A4.08,4.08,0,0,1,588.5,220.5Z" transform="translate(-0.45)"/><path class="fb534922-a752-40e0-8328-8099f9308ac2" d="M592.06,228.25h-2.29V216.34l2.29-.26Zm2.46-4.77,3,4.77h-2.6l-2.75-4.66,2.73-3.86h2.37Z" transform="translate(-0.45)"/><path class="fb534922-a752-40e0-8328-8099f9308ac2" d="M605.36,228.25h-2l-.11-1.14a2.88,2.88,0,0,1-2.59,1.4c-1.58,0-2.38-1-2.38-2.65v-6.13h2.28v5.84c0,.93.31,1.24.93,1.24a1.88,1.88,0,0,0,1.56-1.11v-6h2.29Z" transform="translate(-0.45)"/><path class="fb534922-a752-40e0-8328-8099f9308ac2" d="M615.34,224c0,2.6-1.25,4.53-3.37,4.53a2.7,2.7,0,0,1-2.13-.91v3.94l-2.28.25V219.73h2l.13,1a3.07,3.07,0,0,1,2.46-1.24C614.38,219.47,615.34,221.23,615.34,224ZM613,224c0-2.14-.56-2.83-1.49-2.83a2,2,0,0,0-1.63,1.11V226a1.68,1.68,0,0,0,1.45.84C612.34,226.81,613,226,613,224Z" transform="translate(-0.45)"/><path class="fb534922-a752-40e0-8328-8099f9308ac2" d="M629.06,220.71c0,2.57-1.83,3.75-4.37,3.75h-1.27v3.79h-2.37V217.13h3.44C627.32,217.13,629.06,218.28,629.06,220.71Zm-2.44,0c0-1.3-.78-1.88-2.16-1.88h-1v3.89h1.07C625.79,222.72,626.62,222.22,626.62,220.71Z" transform="translate(-0.45)"/><path class="fb534922-a752-40e0-8328-8099f9308ac2" d="M637,227l-.49,1.51a2.07,2.07,0,0,1-2-1.24,2.89,2.89,0,0,1-2.55,1.27,2.55,2.55,0,0,1-2.77-2.64c0-1.86,1.41-2.87,3.92-2.87h1v-.42c0-1.06-.45-1.4-1.51-1.4a7.66,7.66,0,0,0-2.25.45l-.53-1.53a8.83,8.83,0,0,1,3.15-.63c2.37,0,3.4,1.05,3.4,3v3.44C636.38,226.58,636.59,226.82,637,227Zm-2.87-1.05V224.3h-.73c-1.26,0-1.87.45-1.87,1.38a1,1,0,0,0,1.11,1.19A1.66,1.66,0,0,0,634.12,225.92Z" transform="translate(-0.45)"/><path class="fb534922-a752-40e0-8328-8099f9308ac2" d="M645,220.5l-1,1.35a2.66,2.66,0,0,0-1.68-.61c-1.14,0-1.81.82-1.81,2.8s.72,2.64,1.8,2.64a2.84,2.84,0,0,0,1.69-.6l1,1.43a4.25,4.25,0,0,1-2.79,1c-2.55,0-4.11-1.73-4.11-4.45s1.58-4.59,4.07-4.59A4.08,4.08,0,0,1,645,220.5Z" transform="translate(-0.45)"/><path class="fb534922-a752-40e0-8328-8099f9308ac2" d="M648.6,228.25h-2.29V216.34l2.29-.26Zm2.46-4.77,3,4.77h-2.6l-2.75-4.66,2.73-3.86h2.37Z" transform="translate(-0.45)"/><path class="fb534922-a752-40e0-8328-8099f9308ac2" d="M662,227l-.49,1.51a2.07,2.07,0,0,1-2-1.24,2.89,2.89,0,0,1-2.56,1.27,2.55,2.55,0,0,1-2.76-2.64c0-1.86,1.41-2.87,3.92-2.87h1v-.42c0-1.06-.45-1.4-1.51-1.4a7.66,7.66,0,0,0-2.25.45l-.53-1.53a8.83,8.83,0,0,1,3.15-.63c2.37,0,3.4,1.05,3.4,3v3.44C661.37,226.58,661.57,226.82,662,227Zm-2.87-1.05V224.3h-.74c-1.25,0-1.86.45-1.86,1.38,0,.76.38,1.19,1.11,1.19A1.66,1.66,0,0,0,659.11,225.92Z" transform="translate(-0.45)"/><path class="fb534922-a752-40e0-8328-8099f9308ac2" d="M671.24,220.2a7.05,7.05,0,0,1-2.46.32,2.24,2.24,0,0,1,1.57,2.19c0,1.65-1.33,2.86-3.5,2.86a3.93,3.93,0,0,1-1-.11.67.67,0,0,0-.32.56c0,.29.14.56,1,.56h1.3c1.93,0,3.17,1,3.17,2.45,0,1.72-1.49,2.76-4.34,2.76-3.12,0-4-1-4-2.71h2c0,.8.35,1.15,2,1.15s2-.43,2-1-.43-.94-1.33-.94h-1.26c-1.78,0-2.52-.77-2.52-1.67a2,2,0,0,1,1-1.59,2.54,2.54,0,0,1-1.51-2.43c0-1.88,1.5-3.09,3.64-3.09a6.76,6.76,0,0,0,4-1Zm-5.9,2.33a1.37,1.37,0,0,0,1.41,1.56c.92,0,1.4-.55,1.4-1.59s-.47-1.5-1.41-1.5A1.37,1.37,0,0,0,665.34,222.53Z" transform="translate(-0.45)"/><path class="fb534922-a752-40e0-8328-8099f9308ac2" d="M679.41,224.68h-5.33c.17,1.65.94,2.13,2,2.13a3.5,3.5,0,0,0,2.08-.74l.94,1.28a5,5,0,0,1-3.23,1.16c-2.73,0-4.16-1.8-4.16-4.47s1.38-4.57,3.87-4.57,3.85,1.61,3.85,4.33C679.46,224.09,679.42,224.44,679.41,224.68Zm-2.22-1.52c0-1.29-.44-2.13-1.53-2.13-.9,0-1.45.6-1.58,2.22h3.11Z" transform="translate(-0.45)"/><path class="fb534922-a752-40e0-8328-8099f9308ac2" d="M244,41.62a2.86,2.86,0,1,1,.56-5.66,2.41,2.41,0,0,1,.54.16,2.87,2.87,0,0,1,.49.26,3.83,3.83,0,0,1,.44.36,2.87,2.87,0,0,1,0,4,3.83,3.83,0,0,1-.44.36,2.87,2.87,0,0,1-.49.26,2.76,2.76,0,0,1-.54.16A2.6,2.6,0,0,1,244,41.62Z" transform="translate(-0.45)"/><path class="fb534922-a752-40e0-8328-8099f9308ac2" d="M241.17,261.62a2.86,2.86,0,0,1,2.86-2.86h0a2.86,2.86,0,0,1,2.86,2.86h0a2.85,2.85,0,0,1-2.86,2.86h0A2.85,2.85,0,0,1,241.17,261.62Zm0-13.92a2.86,2.86,0,0,1,2.86-2.86h0a2.86,2.86,0,0,1,2.86,2.86h0a2.86,2.86,0,0,1-2.86,2.86h0A2.86,2.86,0,0,1,241.17,247.7Zm0-13.93a2.86,2.86,0,0,1,2.86-2.86h0a2.86,2.86,0,0,1,2.86,2.86h0a2.86,2.86,0,0,1-2.86,2.86h0A2.86,2.86,0,0,1,241.17,233.77Zm0-13.93A2.86,2.86,0,0,1,244,217h0a2.86,2.86,0,0,1,2.86,2.86h0A2.86,2.86,0,0,1,244,222.7h0A2.86,2.86,0,0,1,241.17,219.84Zm0-13.93a2.86,2.86,0,0,1,2.86-2.86h0a2.86,2.86,0,0,1,2.86,2.86h0a2.86,2.86,0,0,1-2.86,2.86h0A2.86,2.86,0,0,1,241.17,205.91Zm0-13.93a2.86,2.86,0,0,1,2.86-2.86h0a2.86,2.86,0,0,1,2.86,2.86h0a2.86,2.86,0,0,1-2.86,2.86h0A2.86,2.86,0,0,1,241.17,192Zm0-13.93a2.86,2.86,0,0,1,2.86-2.86h0a2.86,2.86,0,0,1,2.86,2.86h0a2.86,2.86,0,0,1-2.86,2.86h0A2.86,2.86,0,0,1,241.17,178.05Zm0-13.93a2.86,2.86,0,0,1,2.86-2.86h0a2.86,2.86,0,0,1,2.86,2.86h0A2.86,2.86,0,0,1,244,167h0A2.86,2.86,0,0,1,241.17,164.12Zm0-13.93a2.86,2.86,0,0,1,2.86-2.86h0a2.86,2.86,0,0,1,2.86,2.86h0a2.86,2.86,0,0,1-2.86,2.86h0A2.86,2.86,0,0,1,241.17,150.19Zm0-13.93A2.86,2.86,0,0,1,244,133.4h0a2.86,2.86,0,0,1,2.86,2.86h0a2.86,2.86,0,0,1-2.86,2.86h0A2.86,2.86,0,0,1,241.17,136.26Zm0-13.92a2.86,2.86,0,0,1,2.86-2.86h0a2.86,2.86,0,0,1,2.86,2.86h0A2.87,2.87,0,0,1,244,125.2h0A2.87,2.87,0,0,1,241.17,122.34Zm0-13.93a2.86,2.86,0,0,1,2.86-2.86h0a2.86,2.86,0,0,1,2.86,2.86h0a2.87,2.87,0,0,1-2.86,2.86h0A2.87,2.87,0,0,1,241.17,108.41Zm0-13.93A2.86,2.86,0,0,1,244,91.62h0a2.86,2.86,0,0,1,2.86,2.86h0A2.86,2.86,0,0,1,244,97.34h0A2.86,2.86,0,0,1,241.17,94.48Zm0-13.93A2.86,2.86,0,0,1,244,77.69h0a2.86,2.86,0,0,1,2.86,2.86h0A2.86,2.86,0,0,1,244,83.41h0A2.86,2.86,0,0,1,241.17,80.55Zm0-13.93A2.86,2.86,0,0,1,244,63.76h0a2.86,2.86,0,0,1,2.86,2.86h0A2.86,2.86,0,0,1,244,69.48h0A2.86,2.86,0,0,1,241.17,66.62Zm0-13.93A2.86,2.86,0,0,1,244,49.83h0a2.86,2.86,0,0,1,2.86,2.86h0A2.86,2.86,0,0,1,244,55.55h0A2.86,2.86,0,0,1,241.17,52.69Z" transform="translate(-0.45)"/><path class="fb534922-a752-40e0-8328-8099f9308ac2" d="M244,278.41a2.85,2.85,0,0,1-2.87-2.85,2.6,2.6,0,0,1,.06-.56,3.08,3.08,0,0,1,.16-.54,2.34,2.34,0,0,1,.27-.49,2.94,2.94,0,0,1,.35-.44,3,3,0,0,1,4.05,0,3.34,3.34,0,0,1,.62.93,3.08,3.08,0,0,1,.16.54,2.59,2.59,0,0,1,0,.56,2.88,2.88,0,0,1-.83,2,2.94,2.94,0,0,1-.44.35,2.3,2.3,0,0,1-.49.26,2.43,2.43,0,0,1-.54.17A3.41,3.41,0,0,1,244,278.41Z" transform="translate(-0.45)"/><path class="fb534922-a752-40e0-8328-8099f9308ac2" d="M364.77,101.38a2.91,2.91,0,0,1-2-.84,2.86,2.86,0,0,1-.35-.43,3,3,0,0,1-.27-.5,3.24,3.24,0,0,1-.16-.53A2.64,2.64,0,0,1,362,98a3.24,3.24,0,0,1,.16-.53,3,3,0,0,1,.27-.5,2.86,2.86,0,0,1,.35-.43,3.13,3.13,0,0,1,.44-.36,2.87,2.87,0,0,1,.49-.26,2.41,2.41,0,0,1,.54-.16,2.83,2.83,0,0,1,2.93,1.21,3,3,0,0,1,.26.5,2.52,2.52,0,0,1,.17.53,3.16,3.16,0,0,1,0,1.12,2.52,2.52,0,0,1-.17.53,3,3,0,0,1-.26.5,2.86,2.86,0,0,1-.35.43,3.83,3.83,0,0,1-.44.36,2.87,2.87,0,0,1-.49.26,2.41,2.41,0,0,1-.54.16A2.6,2.6,0,0,1,364.77,101.38Z" transform="translate(-0.45)"/><path class="fb534922-a752-40e0-8328-8099f9308ac2" d="M361.91,114.66a2.87,2.87,0,0,1,2.86-2.86h0a2.86,2.86,0,0,1,2.86,2.86h0a2.86,2.86,0,0,1-2.86,2.86h0A2.87,2.87,0,0,1,361.91,114.66Z" transform="translate(-0.45)"/><path class="fb534922-a752-40e0-8328-8099f9308ac2" d="M364.77,133.66a2.86,2.86,0,0,1-2-4.88,2.17,2.17,0,0,1,.44-.36,2.87,2.87,0,0,1,.49-.26,3.09,3.09,0,0,1,.54-.17,3,3,0,0,1,1.11,0,3.09,3.09,0,0,1,.54.17,2.87,2.87,0,0,1,.49.26,2.48,2.48,0,0,1,.44.36,2.86,2.86,0,0,1,.83,2,3.64,3.64,0,0,1-.05.56,2.52,2.52,0,0,1-.17.53,2.87,2.87,0,0,1-.26.49,2.51,2.51,0,0,1-.35.44A2.91,2.91,0,0,1,364.77,133.66Z" transform="translate(-0.45)"/><path class="fb534922-a752-40e0-8328-8099f9308ac2" d="M244,41.62a2.86,2.86,0,1,1,.56-5.66,2.41,2.41,0,0,1,.54.16,2.87,2.87,0,0,1,.49.26,3.83,3.83,0,0,1,.44.36,2.87,2.87,0,0,1,0,4,3.83,3.83,0,0,1-.44.36,2.87,2.87,0,0,1-.49.26,2.76,2.76,0,0,1-.54.16A2.6,2.6,0,0,1,244,41.62Z" transform="translate(-0.45)"/><path class="fb534922-a752-40e0-8328-8099f9308ac2" d="M241.17,261.62a2.86,2.86,0,0,1,2.86-2.86h0a2.86,2.86,0,0,1,2.86,2.86h0a2.85,2.85,0,0,1-2.86,2.86h0A2.85,2.85,0,0,1,241.17,261.62Zm0-13.92a2.86,2.86,0,0,1,2.86-2.86h0a2.86,2.86,0,0,1,2.86,2.86h0a2.86,2.86,0,0,1-2.86,2.86h0A2.86,2.86,0,0,1,241.17,247.7Zm0-13.93a2.86,2.86,0,0,1,2.86-2.86h0a2.86,2.86,0,0,1,2.86,2.86h0a2.86,2.86,0,0,1-2.86,2.86h0A2.86,2.86,0,0,1,241.17,233.77Zm0-13.93A2.86,2.86,0,0,1,244,217h0a2.86,2.86,0,0,1,2.86,2.86h0A2.86,2.86,0,0,1,244,222.7h0A2.86,2.86,0,0,1,241.17,219.84Zm0-13.93a2.86,2.86,0,0,1,2.86-2.86h0a2.86,2.86,0,0,1,2.86,2.86h0a2.86,2.86,0,0,1-2.86,2.86h0A2.86,2.86,0,0,1,241.17,205.91Zm0-13.93a2.86,2.86,0,0,1,2.86-2.86h0a2.86,2.86,0,0,1,2.86,2.86h0a2.86,2.86,0,0,1-2.86,2.86h0A2.86,2.86,0,0,1,241.17,192Zm0-13.93a2.86,2.86,0,0,1,2.86-2.86h0a2.86,2.86,0,0,1,2.86,2.86h0a2.86,2.86,0,0,1-2.86,2.86h0A2.86,2.86,0,0,1,241.17,178.05Zm0-13.93a2.86,2.86,0,0,1,2.86-2.86h0a2.86,2.86,0,0,1,2.86,2.86h0A2.86,2.86,0,0,1,244,167h0A2.86,2.86,0,0,1,241.17,164.12Zm0-13.93a2.86,2.86,0,0,1,2.86-2.86h0a2.86,2.86,0,0,1,2.86,2.86h0a2.86,2.86,0,0,1-2.86,2.86h0A2.86,2.86,0,0,1,241.17,150.19Zm0-13.93A2.86,2.86,0,0,1,244,133.4h0a2.86,2.86,0,0,1,2.86,2.86h0a2.86,2.86,0,0,1-2.86,2.86h0A2.86,2.86,0,0,1,241.17,136.26Zm0-13.92a2.86,2.86,0,0,1,2.86-2.86h0a2.86,2.86,0,0,1,2.86,2.86h0A2.87,2.87,0,0,1,244,125.2h0A2.87,2.87,0,0,1,241.17,122.34Zm0-13.93a2.86,2.86,0,0,1,2.86-2.86h0a2.86,2.86,0,0,1,2.86,2.86h0a2.87,2.87,0,0,1-2.86,2.86h0A2.87,2.87,0,0,1,241.17,108.41Zm0-13.93A2.86,2.86,0,0,1,244,91.62h0a2.86,2.86,0,0,1,2.86,2.86h0A2.86,2.86,0,0,1,244,97.34h0A2.86,2.86,0,0,1,241.17,94.48Zm0-13.93A2.86,2.86,0,0,1,244,77.69h0a2.86,2.86,0,0,1,2.86,2.86h0A2.86,2.86,0,0,1,244,83.41h0A2.86,2.86,0,0,1,241.17,80.55Zm0-13.93A2.86,2.86,0,0,1,244,63.76h0a2.86,2.86,0,0,1,2.86,2.86h0A2.86,2.86,0,0,1,244,69.48h0A2.86,2.86,0,0,1,241.17,66.62Zm0-13.93A2.86,2.86,0,0,1,244,49.83h0a2.86,2.86,0,0,1,2.86,2.86h0A2.86,2.86,0,0,1,244,55.55h0A2.86,2.86,0,0,1,241.17,52.69Z" transform="translate(-0.45)"/><path class="fb534922-a752-40e0-8328-8099f9308ac2" d="M244,278.41a2.85,2.85,0,0,1-2.87-2.85,2.6,2.6,0,0,1,.06-.56,3.08,3.08,0,0,1,.16-.54,2.34,2.34,0,0,1,.27-.49,2.94,2.94,0,0,1,.35-.44,3,3,0,0,1,4.05,0,3.34,3.34,0,0,1,.62.93,3.08,3.08,0,0,1,.16.54,2.59,2.59,0,0,1,0,.56,2.88,2.88,0,0,1-.83,2,2.94,2.94,0,0,1-.44.35,2.3,2.3,0,0,1-.49.26,2.43,2.43,0,0,1-.54.17A3.41,3.41,0,0,1,244,278.41Z" transform="translate(-0.45)"/><path class="fb534922-a752-40e0-8328-8099f9308ac2" d="M108.22,41.62a2.86,2.86,0,1,1,.56-5.66,2.49,2.49,0,0,1,.53.16,3,3,0,0,1,.5.26,3.73,3.73,0,0,1,.43.36,2.85,2.85,0,0,1,0,4,3.73,3.73,0,0,1-.43.36,3,3,0,0,1-.5.26,2.49,2.49,0,0,1-.53.16A2.67,2.67,0,0,1,108.22,41.62Z" transform="translate(-0.45)"/><path class="fb534922-a752-40e0-8328-8099f9308ac2" d="M105.36,117.65a2.86,2.86,0,0,1,2.86-2.86h0a2.86,2.86,0,0,1,2.86,2.86h0a2.86,2.86,0,0,1-2.86,2.86h0A2.86,2.86,0,0,1,105.36,117.65Zm0-13.15a2.86,2.86,0,0,1,2.86-2.86h0a2.86,2.86,0,0,1,2.86,2.86h0a2.86,2.86,0,0,1-2.86,2.86h0A2.86,2.86,0,0,1,105.36,104.5Zm0-13.15a2.86,2.86,0,0,1,2.86-2.86h0a2.86,2.86,0,0,1,2.86,2.86h0a2.86,2.86,0,0,1-2.86,2.86h0A2.86,2.86,0,0,1,105.36,91.35Zm0-13.15a2.86,2.86,0,0,1,2.86-2.86h0a2.86,2.86,0,0,1,2.86,2.86h0a2.86,2.86,0,0,1-2.86,2.86h0A2.86,2.86,0,0,1,105.36,78.2Zm0-13.14a2.86,2.86,0,0,1,2.86-2.86h0a2.86,2.86,0,0,1,2.86,2.86h0a2.86,2.86,0,0,1-2.86,2.86h0A2.86,2.86,0,0,1,105.36,65.06Zm0-13.15a2.86,2.86,0,0,1,2.86-2.86h0a2.86,2.86,0,0,1,2.86,2.86h0a2.86,2.86,0,0,1-2.86,2.86h0A2.86,2.86,0,0,1,105.36,51.91Z" transform="translate(-0.45)"/><path class="fb534922-a752-40e0-8328-8099f9308ac2" d="M108.22,133.66a2.89,2.89,0,0,1-2-.84,2.85,2.85,0,0,1,0-4,2.42,2.42,0,0,1,.43-.36,3,3,0,0,1,.5-.26,3.27,3.27,0,0,1,.53-.17,3,3,0,0,1,1.12,0,3.27,3.27,0,0,1,.53.17,3,3,0,0,1,.5.26,2.42,2.42,0,0,1,.43.36,2.87,2.87,0,0,1,.84,2,2.74,2.74,0,0,1-.06.56,2.49,2.49,0,0,1-.16.53,2.87,2.87,0,0,1-.26.49,3.13,3.13,0,0,1-.36.44A2.89,2.89,0,0,1,108.22,133.66Z" transform="translate(-0.45)"/><path class="fb534922-a752-40e0-8328-8099f9308ac2" d="M500.52,41.62a2.86,2.86,0,0,1-2-4.88,3,3,0,0,1,.43-.36,3.29,3.29,0,0,1,.49-.26A2.76,2.76,0,0,1,500,36a2.64,2.64,0,0,1,1.12,0,2.49,2.49,0,0,1,.53.16,3,3,0,0,1,.5.26,3.73,3.73,0,0,1,.43.36,2.86,2.86,0,0,1-2,4.88Z" transform="translate(-0.45)"/><path class="fb534922-a752-40e0-8328-8099f9308ac2" d="M497.66,260.56a2.86,2.86,0,0,1,2.86-2.86h0a2.86,2.86,0,0,1,2.86,2.86h0a2.86,2.86,0,0,1-2.86,2.86h0A2.86,2.86,0,0,1,497.66,260.56Zm0-13.86a2.86,2.86,0,0,1,2.86-2.86h0a2.86,2.86,0,0,1,2.86,2.86h0a2.86,2.86,0,0,1-2.86,2.86h0A2.86,2.86,0,0,1,497.66,246.7Zm0-13.86a2.86,2.86,0,0,1,2.86-2.86h0a2.86,2.86,0,0,1,2.86,2.86h0a2.86,2.86,0,0,1-2.86,2.86h0A2.86,2.86,0,0,1,497.66,232.84Zm0-13.87a2.86,2.86,0,0,1,2.86-2.86h0a2.86,2.86,0,0,1,2.86,2.86h0a2.86,2.86,0,0,1-2.86,2.86h0A2.86,2.86,0,0,1,497.66,219Zm0-13.86a2.86,2.86,0,0,1,2.86-2.86h0a2.86,2.86,0,0,1,2.86,2.86h0a2.86,2.86,0,0,1-2.86,2.86h0A2.86,2.86,0,0,1,497.66,205.11Zm0-13.86a2.86,2.86,0,0,1,2.86-2.86h0a2.86,2.86,0,0,1,2.86,2.86h0a2.86,2.86,0,0,1-2.86,2.86h0A2.86,2.86,0,0,1,497.66,191.25Zm0-13.86a2.86,2.86,0,0,1,2.86-2.86h0a2.86,2.86,0,0,1,2.86,2.86h0a2.87,2.87,0,0,1-2.86,2.86h0A2.87,2.87,0,0,1,497.66,177.39Zm0-13.87a2.86,2.86,0,0,1,2.86-2.86h0a2.86,2.86,0,0,1,2.86,2.86h0a2.86,2.86,0,0,1-2.86,2.86h0A2.86,2.86,0,0,1,497.66,163.52Zm0-13.86a2.86,2.86,0,0,1,2.86-2.86h0a2.86,2.86,0,0,1,2.86,2.86h0a2.86,2.86,0,0,1-2.86,2.86h0A2.86,2.86,0,0,1,497.66,149.66Zm0-13.86a2.86,2.86,0,0,1,2.86-2.86h0a2.86,2.86,0,0,1,2.86,2.86h0a2.86,2.86,0,0,1-2.86,2.86h0A2.86,2.86,0,0,1,497.66,135.8Zm0-13.86a2.86,2.86,0,0,1,2.86-2.86h0a2.86,2.86,0,0,1,2.86,2.86h0a2.87,2.87,0,0,1-2.86,2.86h0A2.87,2.87,0,0,1,497.66,121.94Zm0-13.87a2.86,2.86,0,0,1,2.86-2.86h0a2.86,2.86,0,0,1,2.86,2.86h0a2.86,2.86,0,0,1-2.86,2.86h0A2.86,2.86,0,0,1,497.66,108.07Zm0-13.86a2.86,2.86,0,0,1,2.86-2.86h0a2.86,2.86,0,0,1,2.86,2.86h0a2.86,2.86,0,0,1-2.86,2.86h0A2.86,2.86,0,0,1,497.66,94.21Zm0-13.86a2.86,2.86,0,0,1,2.86-2.86h0a2.86,2.86,0,0,1,2.86,2.86h0a2.86,2.86,0,0,1-2.86,2.86h0A2.86,2.86,0,0,1,497.66,80.35Zm0-13.86a2.86,2.86,0,0,1,2.86-2.86h0a2.86,2.86,0,0,1,2.86,2.86h0a2.86,2.86,0,0,1-2.86,2.86h0A2.86,2.86,0,0,1,497.66,66.49Zm0-13.87a2.86,2.86,0,0,1,2.86-2.86h0a2.86,2.86,0,0,1,2.86,2.86h0a2.86,2.86,0,0,1-2.86,2.86h0A2.86,2.86,0,0,1,497.66,52.62Z" transform="translate(-0.45)"/><path class="fb534922-a752-40e0-8328-8099f9308ac2" d="M500.52,277.28a2.86,2.86,0,0,1-2-4.88,2.44,2.44,0,0,1,.43-.35,2.38,2.38,0,0,1,.5-.26,2.52,2.52,0,0,1,.53-.17,2.86,2.86,0,0,1,2.58,4.83,2.51,2.51,0,0,1-.44.35,2.3,2.3,0,0,1-.49.26,2.52,2.52,0,0,1-.53.17A3.53,3.53,0,0,1,500.52,277.28Z" transform="translate(-0.45)"/><path class="fb534922-a752-40e0-8328-8099f9308ac2" d="M621.17,41.62a2.86,2.86,0,0,1-2-4.88,3,3,0,0,1,.43-.36,3.29,3.29,0,0,1,.49-.26,2.76,2.76,0,0,1,.54-.16,2.64,2.64,0,0,1,1.12,0,2.49,2.49,0,0,1,.53.16,3,3,0,0,1,.5.26,3.73,3.73,0,0,1,.43.36,2.85,2.85,0,0,1,0,4A2.85,2.85,0,0,1,621.17,41.62Z" transform="translate(-0.45)"/><path class="fb534922-a752-40e0-8328-8099f9308ac2" d="M618.31,117.65a2.86,2.86,0,0,1,2.86-2.86h0a2.86,2.86,0,0,1,2.86,2.86h0a2.86,2.86,0,0,1-2.86,2.86h0A2.86,2.86,0,0,1,618.31,117.65Zm0-13.15a2.86,2.86,0,0,1,2.86-2.86h0A2.86,2.86,0,0,1,624,104.5h0a2.86,2.86,0,0,1-2.86,2.86h0A2.86,2.86,0,0,1,618.31,104.5Zm0-13.15a2.86,2.86,0,0,1,2.86-2.86h0A2.86,2.86,0,0,1,624,91.35h0a2.86,2.86,0,0,1-2.86,2.86h0A2.86,2.86,0,0,1,618.31,91.35Zm0-13.15a2.86,2.86,0,0,1,2.86-2.85h0A2.86,2.86,0,0,1,624,78.2h0a2.86,2.86,0,0,1-2.86,2.86h0A2.86,2.86,0,0,1,618.31,78.2Zm0-13.14a2.86,2.86,0,0,1,2.86-2.86h0A2.86,2.86,0,0,1,624,65.06h0a2.86,2.86,0,0,1-2.86,2.86h0A2.86,2.86,0,0,1,618.31,65.06Zm0-13.15a2.86,2.86,0,0,1,2.86-2.86h0A2.86,2.86,0,0,1,624,51.91h0a2.86,2.86,0,0,1-2.86,2.86h0A2.86,2.86,0,0,1,618.31,51.91Z" transform="translate(-0.45)"/><path class="fb534922-a752-40e0-8328-8099f9308ac2" d="M621.17,133.66a2.89,2.89,0,0,1-2-.84,2.85,2.85,0,0,1,0-4,2.94,2.94,0,0,1,4,0,2.86,2.86,0,0,1-2,4.88Z" transform="translate(-0.45)"/><path class="fb534922-a752-40e0-8328-8099f9308ac2" d="M244,41.62a2.86,2.86,0,1,1,.56-5.66,2.41,2.41,0,0,1,.54.16,2.87,2.87,0,0,1,.49.26,3.83,3.83,0,0,1,.44.36,2.87,2.87,0,0,1,0,4,3.83,3.83,0,0,1-.44.36,2.87,2.87,0,0,1-.49.26,2.76,2.76,0,0,1-.54.16A2.6,2.6,0,0,1,244,41.62Z" transform="translate(-0.45)"/><path class="fb534922-a752-40e0-8328-8099f9308ac2" d="M227.59,38.76a2.86,2.86,0,0,1,2.86-2.86h0a2.86,2.86,0,0,1,2.86,2.86h0a2.86,2.86,0,0,1-2.86,2.86h0A2.86,2.86,0,0,1,227.59,38.76Zm-13.58,0a2.86,2.86,0,0,1,2.86-2.86h0a2.86,2.86,0,0,1,2.86,2.86h0a2.86,2.86,0,0,1-2.86,2.86h0A2.86,2.86,0,0,1,214,38.76Zm-13.58,0a2.86,2.86,0,0,1,2.86-2.86h0a2.86,2.86,0,0,1,2.86,2.86h0a2.86,2.86,0,0,1-2.86,2.86h0A2.86,2.86,0,0,1,200.43,38.76Zm-13.58,0a2.86,2.86,0,0,1,2.86-2.86h0a2.86,2.86,0,0,1,2.86,2.86h0a2.86,2.86,0,0,1-2.86,2.86h0A2.86,2.86,0,0,1,186.85,38.76Zm-13.58,0a2.86,2.86,0,0,1,2.86-2.86h0A2.86,2.86,0,0,1,179,38.76h0a2.86,2.86,0,0,1-2.86,2.86h0A2.86,2.86,0,0,1,173.27,38.76Zm-13.58,0a2.85,2.85,0,0,1,2.86-2.86h0a2.86,2.86,0,0,1,2.85,2.86h0a2.86,2.86,0,0,1-2.85,2.86h0A2.85,2.85,0,0,1,159.69,38.76Zm-13.59,0A2.86,2.86,0,0,1,149,35.9h0a2.86,2.86,0,0,1,2.86,2.86h0A2.86,2.86,0,0,1,149,41.62h0A2.86,2.86,0,0,1,146.1,38.76Zm-13.58,0a2.86,2.86,0,0,1,2.86-2.86h0a2.86,2.86,0,0,1,2.86,2.86h0a2.86,2.86,0,0,1-2.86,2.86h0A2.86,2.86,0,0,1,132.52,38.76Zm-13.58,0a2.86,2.86,0,0,1,2.86-2.86h0a2.86,2.86,0,0,1,2.86,2.86h0a2.86,2.86,0,0,1-2.86,2.86h0A2.86,2.86,0,0,1,118.94,38.76Z" transform="translate(-0.45)"/><path class="fb534922-a752-40e0-8328-8099f9308ac2" d="M108.22,41.62a2.86,2.86,0,1,1,.56-5.66,2.49,2.49,0,0,1,.53.16,3,3,0,0,1,.5.26,3.73,3.73,0,0,1,.43.36,2.85,2.85,0,0,1,0,4,3.73,3.73,0,0,1-.43.36,3,3,0,0,1-.5.26,2.49,2.49,0,0,1-.53.16A2.67,2.67,0,0,1,108.22,41.62Z" transform="translate(-0.45)"/><path class="fb534922-a752-40e0-8328-8099f9308ac2" d="M302.83,41.62a2.6,2.6,0,0,1-.56-.06,2.76,2.76,0,0,1-.54-.16,2.87,2.87,0,0,1-.49-.26,3.83,3.83,0,0,1-.44-.36,2.87,2.87,0,0,1,0-4,3.83,3.83,0,0,1,.44-.36,2.87,2.87,0,0,1,.49-.26,2.41,2.41,0,0,1,.54-.16,2.86,2.86,0,1,1,.56,5.66Z" transform="translate(-0.45)"/><path class="fb534922-a752-40e0-8328-8099f9308ac2" d="M285.27,38.76a2.86,2.86,0,0,1,2.86-2.86h0A2.86,2.86,0,0,1,291,38.76h0a2.86,2.86,0,0,1-2.86,2.86h0A2.86,2.86,0,0,1,285.27,38.76Zm-14.7,0a2.86,2.86,0,0,1,2.86-2.86h0a2.86,2.86,0,0,1,2.86,2.86h0a2.86,2.86,0,0,1-2.86,2.86h0A2.86,2.86,0,0,1,270.57,38.76Zm-14.7,0a2.86,2.86,0,0,1,2.86-2.86h0a2.86,2.86,0,0,1,2.86,2.86h0a2.86,2.86,0,0,1-2.86,2.86h0A2.86,2.86,0,0,1,255.87,38.76Z" transform="translate(-0.45)"/><path class="fb534922-a752-40e0-8328-8099f9308ac2" d="M244,41.62a2.86,2.86,0,1,1,.56-5.66,2.41,2.41,0,0,1,.54.16,2.87,2.87,0,0,1,.49.26,3.83,3.83,0,0,1,.44.36,2.87,2.87,0,0,1,0,4,3.83,3.83,0,0,1-.44.36,2.87,2.87,0,0,1-.49.26,2.76,2.76,0,0,1-.54.16A2.6,2.6,0,0,1,244,41.62Z" transform="translate(-0.45)"/><path class="fb534922-a752-40e0-8328-8099f9308ac2" d="M500.52,41.62a2.86,2.86,0,0,1-2-4.88,3,3,0,0,1,.43-.36,3.29,3.29,0,0,1,.49-.26A2.76,2.76,0,0,1,500,36a2.64,2.64,0,0,1,1.12,0,2.49,2.49,0,0,1,.53.16,3,3,0,0,1,.5.26,3.73,3.73,0,0,1,.43.36,2.86,2.86,0,0,1-2,4.88Z" transform="translate(-0.45)"/><path class="fb534922-a752-40e0-8328-8099f9308ac2" d="M482.87,38.76a2.86,2.86,0,0,1,2.86-2.86h0a2.86,2.86,0,0,1,2.86,2.86h0a2.86,2.86,0,0,1-2.86,2.86h0A2.86,2.86,0,0,1,482.87,38.76Zm-14.79,0a2.86,2.86,0,0,1,2.86-2.86h0a2.86,2.86,0,0,1,2.86,2.86h0a2.86,2.86,0,0,1-2.86,2.86h0A2.86,2.86,0,0,1,468.08,38.76Zm-14.79,0a2.87,2.87,0,0,1,2.86-2.86h0A2.87,2.87,0,0,1,459,38.76h0a2.87,2.87,0,0,1-2.87,2.86h0A2.87,2.87,0,0,1,453.29,38.76Zm-14.78,0a2.86,2.86,0,0,1,2.86-2.86h0a2.86,2.86,0,0,1,2.86,2.86h0a2.86,2.86,0,0,1-2.86,2.86h0A2.86,2.86,0,0,1,438.51,38.76Z" transform="translate(-0.45)"/><path class="fb534922-a752-40e0-8328-8099f9308ac2" d="M426.58,41.62a2.87,2.87,0,0,1-2.86-2.86,3.53,3.53,0,0,1,0-.56,3.27,3.27,0,0,1,.17-.53,2.59,2.59,0,0,1,.62-.93,3,3,0,0,1,.43-.36,3.29,3.29,0,0,1,.49-.26A2.76,2.76,0,0,1,426,36a2.64,2.64,0,0,1,1.12,0,2.49,2.49,0,0,1,.53.16,3,3,0,0,1,.5.26,3.73,3.73,0,0,1,.43.36,2.85,2.85,0,0,1,0,4,3.73,3.73,0,0,1-.43.36,3,3,0,0,1-.5.26,3.27,3.27,0,0,1-.53.17A3.53,3.53,0,0,1,426.58,41.62Z" transform="translate(-0.45)"/><path class="fb534922-a752-40e0-8328-8099f9308ac2" d="M621.17,41.62a2.86,2.86,0,0,1-2-4.88,3,3,0,0,1,.43-.36,3.29,3.29,0,0,1,.49-.26,2.76,2.76,0,0,1,.54-.16,2.64,2.64,0,0,1,1.12,0,2.49,2.49,0,0,1,.53.16,3,3,0,0,1,.5.26,3.73,3.73,0,0,1,.43.36,2.85,2.85,0,0,1,0,4A2.85,2.85,0,0,1,621.17,41.62Z" transform="translate(-0.45)"/><path class="fb534922-a752-40e0-8328-8099f9308ac2" d="M604.9,38.76a2.86,2.86,0,0,1,2.86-2.86h0a2.86,2.86,0,0,1,2.86,2.86h0a2.86,2.86,0,0,1-2.86,2.86h0A2.86,2.86,0,0,1,604.9,38.76Zm-13.4,0a2.86,2.86,0,0,1,2.86-2.86h0a2.86,2.86,0,0,1,2.86,2.86h0a2.86,2.86,0,0,1-2.86,2.86h0A2.86,2.86,0,0,1,591.5,38.76Zm-13.41,0A2.86,2.86,0,0,1,581,35.9h0a2.86,2.86,0,0,1,2.86,2.86h0A2.86,2.86,0,0,1,581,41.62h0A2.86,2.86,0,0,1,578.09,38.76Zm-13.4,0a2.86,2.86,0,0,1,2.86-2.86h0a2.86,2.86,0,0,1,2.86,2.86h0a2.86,2.86,0,0,1-2.86,2.86h0A2.86,2.86,0,0,1,564.69,38.76Zm-13.41,0a2.86,2.86,0,0,1,2.86-2.86h0A2.86,2.86,0,0,1,557,38.76h0a2.86,2.86,0,0,1-2.86,2.86h0A2.86,2.86,0,0,1,551.28,38.76Zm-13.41,0a2.86,2.86,0,0,1,2.87-2.86h0a2.86,2.86,0,0,1,2.85,2.86h0a2.86,2.86,0,0,1-2.85,2.86h0A2.86,2.86,0,0,1,537.87,38.76Zm-13.4,0a2.86,2.86,0,0,1,2.86-2.86h0a2.86,2.86,0,0,1,2.86,2.86h0a2.86,2.86,0,0,1-2.86,2.86h0A2.86,2.86,0,0,1,524.47,38.76Zm-13.41,0a2.87,2.87,0,0,1,2.86-2.86h0a2.85,2.85,0,0,1,2.86,2.86h0a2.85,2.85,0,0,1-2.86,2.86h0A2.87,2.87,0,0,1,511.06,38.76Z" transform="translate(-0.45)"/><path class="fb534922-a752-40e0-8328-8099f9308ac2" d="M500.52,41.62a2.86,2.86,0,0,1-2-4.88,3,3,0,0,1,.43-.36,3.29,3.29,0,0,1,.49-.26A2.76,2.76,0,0,1,500,36a2.64,2.64,0,0,1,1.12,0,2.49,2.49,0,0,1,.53.16,3,3,0,0,1,.5.26,3.73,3.73,0,0,1,.43.36,2.86,2.86,0,0,1-2,4.88Z" transform="translate(-0.45)"/></g></g></svg>