<svg xmlns="http://www.w3.org/2000/svg" id="Layer_1" viewBox="0 0 1440 1351.8" width="1440" height="1351.8"><style>.st0{fill:#b3b3b3}</style><g id="Layer_2_1_"><path id="Layer_1-2" d="M87.1 945.7v-59.9c-1.6-19.6-8.8-28.2-34.3-28.2H24.5c-2.3 0-3.7 0-3.7-2.8v-18.4c0-3 1.4-5.2 5.8-5.2 7.3 0 77.3 2.3 90.4 2.3 16.8 0 78.8-2.3 84.7-2.3s6.5.8 6.5 3.7v17.5c0 3.7-1.4 5.1-5.8 5.1h-32.3c-18.9 0-28.2 5.8-29.9 29.9 0 9.5-2.8 39.3-2.8 74.3V1082c.7 22.6 14.1 31.4 38.7 31.4h27.5c2.3-.2 4.2 1.5 4.4 3.8v16.9c0 4.4-1.4 5.8-5.1 5.8-3.7 0-72.2-2.1-86.7-2.1-16.8 0-84.7 2.1-91.1 2.1-3.7 0-5.1-1.4-5.1-4.4v-17.9c0-3.5 1.4-4.2 5.8-4.2h19.8c18.4 2.5 35.4-10 38.6-28.2 2.8-35.8 3.8-71.8 3-107.8l-.1-31.7zm187.1 365.8c2.9-19.4 9-38.1 18.2-55.4 18.2-42.4 157.3-310.7 190.2-372.4H342.8c-29.1-1.1-56.4 13.7-71.5 38.6-5.1 8.1-7.2 8.8-14.1 8.8-6.9 0-10.9-7.2-6.5-14.1 10.9-19.6 53.1-99.9 54.7-105.6 1.6-5.8 5.1-8.8 7.2-8.8 2.1 0 13.1 1.4 13.1 5.1-.9 4.5-2.1 8.8-3.7 13.1-2.8 11.7 7.3 13.1 24.2 13.1h182.2c9.5 0 10.2 5.1 6.5 12.4-28.2 49.6-93.9 177.1-106.4 204.8-5.8 12.3-84.7 183.6-99.9 228.8-15.1 45.2-20.3 53.2-35 53.2-10.3.6-19.1-7.2-19.7-17.5 0-1.3.1-2.7.3-4.1zm313.4 0c2.8-19.4 9-38.1 18.2-55.4C624 1213.7 763.1 945.4 796 883.7H656.2c-29-1.1-56.3 13.7-71.3 38.6-5.1 8.1-7.2 8.8-14.1 8.8-6.9 0-10.9-7.2-6.5-14.1 10.9-19.6 53.1-99.9 54.7-105.6s5.1-8.8 7.2-8.8c2.1 0 13.1 1.4 13.1 5.1 0 3.7-3 8.1-3.7 13.1-2.8 11.7 7.3 13.1 24.2 13.1h183.6c9.5 0 10.2 5.1 6.5 12.4-28.2 49.6-93.9 177.1-106.4 204.8-5.8 12.3-84.7 183.6-99.9 228.8-15.1 45.2-20.5 53.2-35 53.2-10.1 1.8-19.8-5-21.6-15.1-.4-2.2-.4-4.4 0-6.5h.6zm310.7-346.1c0-161.1 138.4-277 210.6-306.9 5.5-2.5 11.4-4 17.4-4.5 5.3.4 9.4 4.8 9.5 10.2.2 3.9-2.1 7.4-5.8 8.8-75 35.7-137.7 113-159.6 220.9h2.1c21.2-22.1 51-33.9 81.6-32.1 75.1 0 124 66.4 124 134.2 0 64.8-44.5 150.8-147.3 150.8-75.7-.6-133.3-66.9-133.3-181.3l.8-.1zm219.2 21.9c0-52.5-31.2-97-78.7-97-62.7 0-82.3 45.2-82.3 94.1 0 108.6 37.9 137 78.7 137 48.1-.1 82.3-40.2 82.3-134.1zM159.2 269.1c0-9.5.7-43.6 0-101.3 0-24.9-3.7-40.8-17.5-40.8-10 .6-19.8 2.6-29.2 5.8l-51 16.8c-3 .7-5.8.7-7.2-2.3l-6.1-13c-1.4-3 0-5.9 4.4-8.8l151-86.7c3-2.4 6.5-3.9 10.3-4.4 4.4 0 5.1 4.4 5.1 10.2s-2.3 120.9-2.3 215v30.6c0 8.8.7 163.3.7 172.7.8 37.9 3.7 42.4 51.1 42.4h26.3c5.1 0 7.2 2.3 7.2 5.9V528c0 4.4-1.4 5.9-6.5 5.9l-113-2.3-113 2.3c-3.7 0-5.8-1.6-5.8-5.9v-17.7c0-3.5 4.4-4.4 10.2-4.4h34.2c47.5 0 48.9-2.1 50.4-40.8V295.6l.7-26.5zM705.8 45.4c3.6-.4 6.9 2.2 7.3 5.9v.6c0 3.7-.8 5.9-5.2 13.1s-63.4 116.7-92.5 188.8c-37.6 82.1-70.6 166.3-98.9 252.1-8.8 29.9-23.3 37.3-36.4 37.3-14.1 1.4-26.7-8.9-28.2-23-.1-1.3-.2-2.7-.1-4 0-18.2 16.1-48.2 25.6-67.8 12.3-24.9 139.1-266.8 180.8-349.1H486c-43.6 0-53.1 19.6-74.3 51-3.7 5.1-8.8 4.4-14.1 1.4-5.4-3-6.5-4.4-4.4-10.9l45.1-117.4c2.1-4.4 3-5.1 11.7-5.1 8.8 0 10.9 2.3 9.5 13.1-1.4 10.9 4.4 14.1 41.5 14.1l204.8-.1zm364.4 0c3.6-.4 6.9 2.2 7.3 5.9v.6c0 3.7 0 5.9-5.1 13.1s-63.8 116.7-92.1 188.8c-37.6 82.2-70.6 166.3-98.9 252.1-8.8 29.9-23.4 37.3-36.4 37.3-14.2 1.3-26.8-9.1-28.2-23.3-.1-1.2-.1-2.4-.1-3.7 0-18.2 16.1-48.2 25.6-67.8 12.4-24.9 139.1-266.8 180.8-349.1h-173c-43.8 0-53.2 19.6-74.4 51-3.7 5.1-8.8 4.4-14.1 1.4-5.4-3-6.5-4.4-4.4-10.9l45.5-117.4c2.3-4.4 3-5.1 11.7-5.1 8.8 0 10.9 2.3 9.5 13.1-1.4 10.9 4.4 14.1 41.5 14.1l204.8-.1zm96.2 457.7c-36.4-39.4-46.6-96.2-46.6-134.2-.2-96.9 39.9-189.6 110.7-255.8 31-30 67.4-53.9 107.2-70.6 8.5-4.1 17.6-6.8 27-7.9 4.4 0 8.8 2.1 8.8 7.2.4 4.9-2.2 9.6-6.6 11.7-58.3 26.1-154.5 106.4-172.7 226 27-23 61.6-35.1 97-33.8 91.1 0 128.9 80.9 128.9 128.2 0 67.8-19.6 98.9-45.2 125.4-26 29.6-64.2 45.7-103.5 43.8-48.8.1-83.1-13.7-105-40zM1358 396.6c0-64.8-32.1-119.5-88.1-119.5-42.4 0-63.4 17.5-72.2 35.7-11.3 24.9-16.8 52-16 79.4 0 37.3 5.8 127.1 93.9 127.1 16.2.5 82.4-7.4 82.4-122.7z" class="st0"/></g></svg>