<svg xmlns="http://www.w3.org/2000/svg" viewBox="0 0 99.13 93.06" width="99.13" height="93.06"><defs><style>.cls-1{fill:#b3b3b3}</style></defs><g id="Layer_2"><path id="Layer_1-2" d="M4.75 65.66v-4.24c-.11-1.39-.62-2-2.43-2h-2c-.16 0-.26 0-.26-.2v-1.3c0-.21.1-.37.41-.37.52 0 5.47.16 6.4.16 1.19 0 5.58-.16 6-.16s.46.06.46.26v1.24c0 .26-.1.36-.41.36h-2.29c-1.34 0-2 .41-2.12 2.12 0 .67-.2 2.78-.2 5.26v8.52c.05 1.6 1 2.22 2.74 2.22H13a.29.29 0 0 1 .31.3V79c0 .31-.1.41-.36.41s-5.11-.15-6.14-.15c-1.19 0-6 .15-6.45.15-.26 0-.36-.1-.36-.31v-1.27c0-.25.1-.3.41-.3h1.4a2.44 2.44 0 0 0 2.73-2 74.65 74.65 0 0 0 .21-7.63zM18 91.56a12.14 12.14 0 0 1 1.29-3.92c1.29-3 11.14-22 13.47-26.37h-9.9A5.66 5.66 0 0 0 17.8 64c-.36.57-.51.62-1 .62s-.77-.51-.46-1c.77-1.39 3.76-7.07 3.87-7.48s.36-.62.51-.62.93.1.93.36a7 7 0 0 1-.26.93c-.2.83.52.93 1.71.93H36c.67 0 .72.36.46.88-2 3.51-6.65 12.54-7.53 14.5-.41.87-6 13-7.07 16.2s-1.44 3.77-2.48 3.77A1.32 1.32 0 0 1 18 91.56zm22.19 0a11.91 11.91 0 0 1 1.29-3.92c1.29-3 11.14-22 13.47-26.37h-9.9A5.66 5.66 0 0 0 40 64c-.36.57-.51.62-1 .62s-.77-.51-.46-1c.77-1.39 3.76-7.07 3.87-7.48s.36-.62.51-.62.93.1.93.36-.21.57-.26.93c-.2.83.52.93 1.71.93h13c.67 0 .72.36.46.88-2 3.51-6.65 12.54-7.53 14.5-.41.87-6 13-7.07 16.2s-1.45 3.77-2.48 3.77a1.32 1.32 0 0 1-1.53-1.53zm22-24.51c0-11.41 9.8-19.61 14.91-21.73a3.82 3.82 0 0 1 1.23-.32.73.73 0 0 1 .67.72.62.62 0 0 1-.41.62c-5.31 2.53-9.75 8-11.3 15.64h.15a7.4 7.4 0 0 1 5.78-2.27c5.32 0 8.78 4.7 8.78 9.5 0 4.59-3.15 10.68-10.43 10.68-5.36-.04-9.44-4.74-9.44-12.84zm15.52 1.55c0-3.72-2.21-6.87-5.57-6.87-4.44 0-5.83 3.2-5.83 6.66 0 7.69 2.68 9.7 5.57 9.7 3.41 0 5.83-2.84 5.83-9.49zM9.86 17.75c0-.67.05-3.09 0-7.17 0-1.76-.26-2.89-1.24-2.89a7.89 7.89 0 0 0-2.07.41L2.94 9.29c-.21.05-.41.05-.51-.16L2 8.21c-.1-.21 0-.42.31-.62L13 1.45a1.45 1.45 0 0 1 .73-.31c.31 0 .36.31.36.72s-.16 8.56-.16 15.22v2.17c0 .62.05 11.56.05 12.23.06 2.68.26 3 3.62 3h1.86c.36 0 .51.16.51.42v1.18c0 .31-.1.42-.46.42l-8-.16-8 .16c-.26 0-.41-.11-.41-.42v-1.25c0-.25.31-.31.72-.31h2.42c3.36 0 3.46-.15 3.57-2.89v-12zm38.7-15.84a.47.47 0 0 1 .52.46c0 .26-.06.42-.37.93s-4.49 8.26-6.55 13.37a173.3 173.3 0 0 0-7 17.85c-.62 2.12-1.65 2.64-2.58 2.64a1.82 1.82 0 0 1-2-1.91c0-1.29 1.14-3.41 1.81-4.8.87-1.76 9.85-18.89 12.8-24.72H33c-3.09 0-3.76 1.39-5.26 3.61-.26.36-.62.31-1 .1s-.46-.31-.31-.77L29.62.36c.15-.31.21-.36.83-.36s.77.16.67.93.31 1 2.94 1zm25.8 0a.47.47 0 0 1 .52.46c0 .26 0 .42-.36.93S70 11.56 68 16.67a174 174 0 0 0-7 17.85c-.62 2.12-1.66 2.64-2.58 2.64a1.83 1.83 0 0 1-2-1.91c0-1.29 1.14-3.41 1.81-4.8.88-1.76 9.85-18.89 12.8-24.72H58.78c-3.1 0-3.77 1.39-5.27 3.61-.26.36-.62.31-1 .1s-.46-.31-.31-.77L55.42.36c.16-.31.21-.36.83-.36s.77.16.67.93.31 1 2.94 1zm6.81 32.41c-2.58-2.79-3.3-6.81-3.3-9.5a24.71 24.71 0 0 1 7.84-18.11 24.64 24.64 0 0 1 7.59-5 5.9 5.9 0 0 1 1.91-.56c.31 0 .62.15.62.51a.84.84 0 0 1-.47.83c-4.13 1.85-10.94 7.53-12.23 16A10 10 0 0 1 90 16.1c6.45 0 9.13 5.73 9.13 9.08 0 4.8-1.39 7-3.2 8.88a9.17 9.17 0 0 1-7.33 3.1c-3.45 0-5.88-.98-7.43-2.84zm13.57-7.54c0-4.59-2.27-8.46-6.24-8.46-3 0-4.49 1.24-5.11 2.53a12.7 12.7 0 0 0-1.13 5.62c0 2.64.41 9 6.65 9 1.14.03 5.83-.53 5.83-8.69z" class="cls-1"/></g></svg>