<?xml version="1.0" encoding="utf-8"?>
<!-- Generator: Adobe Illustrator 26.0.1, SVG Export Plug-In . SVG Version: 6.00 Build 0)  -->
<svg version="1.1" id="Layer_1" xmlns="http://www.w3.org/2000/svg" xmlns:xlink="http://www.w3.org/1999/xlink" x="0px" y="0px"
	 viewBox="0 0 349.1 54.5" style="enable-background:new 0 0 349.1 54.5;" xml:space="preserve">
<style type="text/css">
	.st0{fill:none;stroke:#00AEFF;stroke-width:0.5;stroke-miterlimit:10;}
</style>
<g id="b877493d-9141-4efa-b2d7-eb65f1c4ce25">
	<g id="ac78315b-56e4-4e19-bb15-0a221950f9bf">
		<path class="st0" d="M0,53.7h349.1 M0,31.5h349.1"/>
		<path d="M11.7,53.7v-1.4c5.4-0.3,5.7-0.6,5.7-4.2V29.4c0-2.5-0.3-2.6-2.5-2.8l-2.4-0.2v-1.2c3-0.4,6-1.2,8.9-2.4v25.3
			c0,3.7,0.3,3.9,5.7,4.2v1.4H11.7z M64.1,47.2c-0.6,2.2-1.5,4.7-2,6.5H43.8v-1.2c2.7-2.6,5.6-5.5,8-8.3c3.1-3.6,6-7.5,6-11.7
			c0-4-2.1-6.4-5.7-6.4c-3.4,0-5.5,2.6-6.7,4.5l-1.1-1l2.8-4c1.7-1.9,4.1-2.9,6.7-2.9c4.6,0,8.3,3.2,8.3,8.4c0,4.1-1.5,7.1-6.1,11.8
			c-2.1,2.2-5.2,5.2-7.2,7.2h9.3c2.6,0,3.4-0.2,5-3.3C63.1,46.8,64.1,47.2,64.1,47.2z M79.8,28.6l2.3-3.1c1.6-1.8,3.9-2.8,6.3-2.8
			c4.4,0,7.3,2.8,7.3,6.5c0,1.3-0.6,2.6-1.5,3.6c-1.1,1-2.2,1.9-3.4,2.6c4.5,1,7.2,3.9,7.2,7.5c0,7.9-9.3,11.3-12.8,11.3
			c-1.8,0-3.6-0.6-5.1-1.7c-0.5-0.4-0.7-1-0.7-1.6c0.1-0.7,0.5-1.4,1.1-1.8c0.4-0.3,0.9-0.3,1.3,0c1.6,1.6,3.7,2.5,6,2.6
			c3.5,0,6-2.6,6-7.3c0-4.5-3.3-6.2-6.4-6.2c-1.1,0-2.2,0.2-3.3,0.5l-0.3-1.5c4.3-1.4,7.8-3.4,7.8-7c0-2.9-1.8-4.5-4.7-4.5
			s-4.8,2-6.1,3.8C80.8,29.5,79.8,28.6,79.8,28.6z M129.7,44.8v3.7c0,3.2,0.2,3.5,3.6,3.8v1.4H122v-1.4c3.7-0.3,3.9-0.6,3.9-3.8
			v-3.7H113v-1.5c4.6-6.6,9.6-13.7,14.5-20.4h2.2v19.6h4.8v2.3H129.7z M125.9,28.1c-3.1,4.5-6.5,9.4-9.8,14.5h9.8V28.1z M166.8,23.4
			l0.3,0.4l-1.3,3.2h-11.2c-0.4,2.7-1.1,6.5-1.5,8.9c1.8-0.7,3.8-1.2,5.7-1.4c6,0,9.1,4.2,9.1,8.3c0,3.2-1.6,6.3-4.2,8.2
			c-2.4,2-5.5,3.2-8.6,3.4c-1.9,0-3.7-0.6-5.1-1.9c-0.7-0.6-0.9-1-0.8-1.7c0.1-0.7,0.5-1.3,1-1.7c0.4-0.4,1-0.4,1.4,0
			c1.6,1.7,3.8,2.6,6.1,2.7c4.1,0,6-3.5,6-7.2c0-4.3-2.6-7.3-8-7.3c-1.7,0-3.3,0.3-4.9,0.9l-0.1-0.2c0.7-3.8,1.8-10.7,2.3-14.5
			L166.8,23.4L166.8,23.4z M192,35.4c1-0.5,2-0.8,3.1-0.8c4.8,0,8.7,3.8,8.7,8.6v0.4c0,5.8-4.2,10.8-10,10.8s-10.1-4.7-10.1-12.2
			c0-10,7.6-16.3,13.5-18.3c1.8-0.5,3.6-1,5.5-1.3l0.3,1.6c-1.8,0.4-3.6,0.9-5.3,1.7c-4.6,2.1-8,6.3-8.9,11.2
			C188.8,37.1,192,35.4,192,35.4z M193.2,37.3c-1.7,0-3.3,0.5-4.7,1.4c-0.2,1.1-0.3,2.2-0.3,3.3c0,6.1,2.3,10.6,6.4,10.6
			c3.8,0,5-4,5-7.2C199.5,41.2,197.6,37.3,193.2,37.3z M239.2,24.1c-4.7,9.9-9.2,19.7-13.9,29.8l-3.5,0.3l-0.3-0.5
			c5.2-8.6,10-17.5,14.2-26.6h-10.4c-3.2,0-3.4,0.4-4.7,3.6h-1.5c0.5-2.7,0.7-5.2,0.9-7.2h18.9C238.9,23.5,239.2,24.1,239.2,24.1z
			 M263.9,22.8c4.7,0,7.9,3.3,7.9,7.2c0,1.4-0.4,2.8-1.4,3.9c-1.3,1.1-2.6,2.2-4,3.1c3.4,1.8,6.7,4.2,6.7,8.4c0,5.7-5.2,8.8-9.8,8.8
			c-5.4,0-9.4-3.1-9.4-8c-0.1-1.9,0.8-3.7,2.2-4.8c1.4-1.1,2.9-2.1,4.4-3c-3.2-1.8-5.4-4.2-5.4-7.6
			C255.2,26.5,258.6,22.8,263.9,22.8L263.9,22.8z M263.9,52.6c3.3,0,5.3-2.1,5.3-5.7c0-3.9-3.3-5.8-7.2-7.7
			c-2.5,1.3-4.1,3.9-4.1,6.7C257.9,50.4,260.7,52.6,263.9,52.6L263.9,52.6z M263.3,24.4c-2.9,0-4.4,2.3-4.4,5c0,3.6,2.4,4.9,6.2,6.9
			c2-1.3,3.2-3.6,3.2-6C268.3,26.2,265.8,24.4,263.3,24.4L263.3,24.4z M303.5,39.6l-3.3,1.7c-0.9,0.5-1.9,0.7-2.9,0.7
			c-5.2,0-8.8-4-8.8-9.1c0-5.5,4.4-10,9.9-10.1h0.1c6.3,0,9.8,5.5,9.8,12.2c0.1,8-4.8,15.3-12.3,18.2c-1.9,0.7-3.8,1.1-5.8,1.3
			l-0.4-1.4C296.8,52,302.3,46.5,303.5,39.6L303.5,39.6z M297.9,24.5c-3.8,0-5.1,3.6-5.1,7c0,4.3,2.4,7.8,6.5,7.8
			c1.6,0,3.1-0.5,4.4-1.4c0.1-1,0.2-2.1,0.2-3.2C303.9,30.4,302.6,24.5,297.9,24.5z M333.4,22.8c7.3,0,10,8.2,10,15.7
			c0,7.1-2.7,15.8-10,15.8s-10.2-8-10.2-15.7C323.3,31.5,326,22.8,333.4,22.8z M333.4,24.5c-4.5,0-5.6,7.1-5.6,14s1.4,14.1,5.6,14.1
			s5.6-7.3,5.6-14.1S337.8,24.5,333.4,24.5z"/>
		<path d="M5,8.3h3.4L8.3,9.2H4V0.9h1V8.3z M11,0.6c0,0.4-0.4,0.7-0.8,0.6c-0.3,0-0.6-0.3-0.6-0.6c0-0.4,0.4-0.7,0.8-0.6
			C10.7,0,11,0.3,11,0.6z M10.8,9.2h-1V2.9h1V9.2z M17.8,4.7v4.5h-1V4.8c0-1-0.4-1.3-1-1.3c-0.7,0-1.4,0.5-1.7,1.2v4.5h-1V2.9H14
			l0.1,1c0.4-0.7,1.2-1.1,2-1.1c0.9,0,1.7,0.7,1.7,1.7V4.7z M21.2,0.6c0,0.4-0.4,0.7-0.8,0.6c-0.3,0-0.6-0.3-0.6-0.6
			c0-0.4,0.4-0.7,0.8-0.6C21,0,21.2,0.3,21.2,0.6z M21,9.2h-1V2.9h1V9.2z M28.1,4.7v4.5h-1V4.8c0-1-0.4-1.3-1-1.3
			c-0.7,0-1.4,0.5-1.7,1.2v4.5h-1V2.9h0.9l0.1,1c0.4-0.7,1.2-1.1,2-1.1c0.9,0,1.7,0.7,1.7,1.7V4.7z M35.3,3.1
			c-0.6,0.1-1.2,0.2-1.8,0.2c0.7,0.2,1.1,0.9,1.1,1.6c0,1.2-0.9,2.1-2.1,2.1h-0.3c-0.3,0-0.5,0-0.8-0.1C31.2,7,31.1,7.3,31,7.5
			C31,7.8,31.2,8,31.9,8h1C34.2,8,35,8.7,35,9.7c0,1.2-1,1.9-2.9,1.9s-2.7-0.6-2.7-1.9h0.9c0,0.8,0.4,1.1,1.8,1.1s1.9-0.4,1.9-1
			s-0.5-0.9-1.3-0.9h-1c-1.1,0-1.6-0.6-1.6-1.2c0-0.5,0.3-0.9,0.7-1.1c-0.7-0.3-1.1-1-1.1-1.8c0-1.2,1-2.2,2.2-2.2h0.2
			c1,0.1,2-0.1,2.9-0.6C35,2,35.3,3.1,35.3,3.1z M30.8,4.9c-0.1,0.7,0.4,1.4,1.2,1.5h0.2c0.7,0.1,1.3-0.5,1.4-1.2V4.9
			c0.1-0.7-0.4-1.3-1.1-1.4h-0.3c-0.7,0-1.3,0.5-1.4,1.2C30.8,4.7,30.8,4.9,30.8,4.9z M43.6,0.7l-0.4,0.7c-0.4-0.2-0.9-0.3-1.4-0.3
			c-0.9,0-1.1,0.3-1.1,1v0.8h3.5v6.3h-1V3.7h-2.5v5.5h-1V3.7h-1V2.9h1V2c0-1,0.6-1.8,2.1-1.8C42.4,0.2,43,0.4,43.6,0.7z M51.6,3.1
			c-0.6,0.1-1.2,0.2-1.8,0.2c0.7,0.2,1.1,0.9,1.1,1.6C50.9,6.1,50,7,48.8,7h-0.3c-0.3,0-0.5,0-0.8-0.1c-0.2,0.1-0.3,0.4-0.3,0.6
			c0,0.3,0.2,0.5,0.9,0.5h1c1.3,0,2.1,0.7,2.1,1.7c0,1.2-1,1.9-2.9,1.9s-2.7-0.6-2.7-1.9h0.9c0,0.8,0.4,1.1,1.8,1.1s1.9-0.4,1.9-1
			s-0.5-1-1.3-1h-1c-1.1,0-1.6-0.6-1.6-1.2c0-0.5,0.3-0.9,0.7-1.1C46.4,6.4,46,5.7,46,4.9c0-1.2,1-2.2,2.2-2.2h0.2
			c1,0.1,2-0.1,2.9-0.5C51.3,2.2,51.6,3.1,51.6,3.1z M47,4.9c-0.1,0.7,0.4,1.4,1.2,1.5h0.2c0.7,0.1,1.3-0.5,1.4-1.2V4.9
			c0.1-0.7-0.4-1.3-1.1-1.4h-0.3c-0.7-0.1-1.3,0.4-1.4,1.2C47,4.7,47,4.9,47,4.9z M57.3,9.2h-0.9l-0.1-1c-0.4,0.7-1.2,1.2-2,1.2
			c-0.9,0-1.7-0.7-1.8-1.6V2.9h1v4.4c0,0.9,0.3,1.2,1,1.2c0.7-0.1,1.3-0.5,1.7-1.1V2.9h1L57.3,9.2z M62.9,2.8l-0.2,1
			c-0.2-0.1-0.4-0.1-0.5-0.1c-0.8,0-1.3,0.6-1.5,1.8v3.7h-1V2.9h0.9l0.1,1.3c0.2-0.8,0.9-1.4,1.7-1.5C62.5,2.7,62.7,2.8,62.9,2.8z
			 M68.6,6.4h-4.1c0.1,1.5,0.8,2.1,1.8,2.1c0.6,0,1.2-0.2,1.7-0.6l0.4,0.6C67.8,9,67,9.3,66.2,9.3c-1.8,0-2.8-1.3-2.8-3.3
			s1-3.3,2.6-3.3s2.6,1.2,2.6,3.1C68.6,5.8,68.6,6.4,68.6,6.4z M67.6,5.5c0-1.3-0.5-2-1.6-2c-0.9,0-1.5,0.6-1.6,2.1L67.6,5.5z
			 M74.2,3.5l-0.4,0.6c-0.5-0.4-1-0.5-1.6-0.5c-0.7,0-1.2,0.3-1.2,0.9s0.3,0.8,1.4,1c1.3,0.3,2.1,0.8,2.1,2c0,1.3-1.2,1.9-2.4,1.9
			c-0.9,0-1.7-0.3-2.3-0.8L70.3,8c0.5,0.4,1.1,0.6,1.8,0.6c0.9,0,1.4-0.4,1.4-1s-0.5-1-1.7-1.3s-1.9-0.9-1.9-1.8s1-1.7,2.2-1.7
			C72.9,2.7,73.6,3,74.2,3.5z"/>
	</g>
</g>
</svg>
