<?xml version="1.0" encoding="utf-8"?>
<!-- Generator: Adobe Illustrator 26.0.1, SVG Export Plug-In . SVG Version: 6.00 Build 0)  -->
<svg version="1.1" id="Layer_1" xmlns="http://www.w3.org/2000/svg" xmlns:xlink="http://www.w3.org/1999/xlink" x="0px" y="0px"
	 viewBox="0 0 344.9 105.2" style="enable-background:new 0 0 344.9 105.2;" xml:space="preserve">
<style type="text/css">
	.st0{fill:#2997FF;}
	.st1{fill:#505050;}
</style>
<g id="b877493d-9141-4efa-b2d7-eb65f1c4ce25">
	<g id="ac78315b-56e4-4e19-bb15-0a221950f9bf">
		<path d="M7.9,6.8c0,2.9-1.5,4.6-3.6,4.6S0.6,9.8,0.6,6.9s1.5-4.6,3.6-4.6S7.9,3.8,7.9,6.8z M1.7,6.8c0,2.6,1.1,3.6,2.5,3.6
			s2.6-1.1,2.6-3.6S5.8,3,4.2,3S1.7,4.1,1.7,6.8z M9.9,9.9V1.7l1.1-0.1V10c0,0.4,0.1,0.5,0.4,0.5c0.1,0,0.3,0,0.4-0.1l0.3,0.8
			c-0.3,0.1-0.5,0.2-0.9,0.2c-0.8,0-1.3-0.5-1.4-1.2C9.8,10,9.8,9.9,9.9,9.9z M18.7,1.6v9.5h-1l-0.1-1c-0.4,0.6-1.2,1.1-1.9,1.1
			c-1.6,0-2.6-1.4-2.6-3.5s1-3.5,2.7-3.5c0.8,0,1.4,0.3,1.8,0.9V1.5L18.7,1.6L18.7,1.6z M17.6,9.3V6c-0.3-0.5-1-0.9-1.6-1
			c-1.1,0-1.7,0.9-1.7,2.7s0.5,2.7,1.6,2.7C16.6,10.4,17.3,10,17.6,9.3z M25.2,4.9l-0.5,0.6C24.1,5.1,23.6,5,22.9,5
			c-0.8,0-1.3,0.3-1.3,1s0.4,0.9,1.5,1.2c1.4,0.4,2.3,1,2.3,2.1c0,1.4-1.3,2-2.6,2c-1,0-1.8-0.3-2.6-0.9l0.5-0.6
			c0.5,0.4,1.2,0.6,1.9,0.6c1,0,1.5-0.4,1.5-1.1c0-0.6-0.3-1-1.7-1.3c-1.4-0.3-2-1-2-1.9s1.1-1.8,2.4-1.8
			C23.8,4.2,24.6,4.5,25.2,4.9z M30.6,10.8c-0.4,0.3-1,0.4-1.5,0.4c-1,0.1-1.7-0.6-1.8-1.5V5.1h-1.2V4.3h1.2V2.7l1.1-0.1v1.7h1.6
			l-0.1,0.9h-1.5v4.2c0,0.8,0.2,1.1,0.9,1.1c0.3,0,0.6-0.1,1-0.3L30.6,10.8L30.6,10.8z M34.3,11.1c-0.3,1.5-1.5,2.6-3,2.7L31.2,13
			c1.1-0.1,1.9-0.9,2.1-1.8H33l-2.3-6.8h1.2l1.8,6l1.8-6h1.1C36.7,4.4,34.3,11.1,34.3,11.1z M37.8,9.9V1.7l1.1-0.1V10
			c0,0.4,0.1,0.5,0.4,0.5c0.1,0,0.3,0,0.4-0.1l0.3,0.8c-0.3,0.1-0.5,0.2-0.9,0.2c-0.8,0-1.3-0.5-1.4-1.2
			C37.8,10.2,37.8,9.9,37.8,9.9z M46.6,8.1h-4.4c0.1,1.6,0.9,2.3,1.9,2.3c0.6,0,1.3-0.2,1.8-0.6l0.4,0.6c-0.6,0.5-1.5,0.9-2.4,0.9
			c-1.8,0-3-1.3-3-3.4s1.1-3.6,2.8-3.6c1.7,0,2.8,1.3,2.8,3.3V8.1z M45.6,7.2C45.6,5.8,45,5,44,5c-1,0-1.6,0.6-1.6,2.3L45.6,7.2z
			 M56.2,1.9l-0.4,0.8c-0.4-0.2-1-0.3-1.5-0.3c-1,0-1.2,0.3-1.2,1.1v1h3.8v6.8h-1.1V5.3h-2.7v5.9H52V5.3h-1.1V4.4H52v-1
			c0-1.2,0.8-1.9,2.3-1.9C55,1.5,55.6,1.6,56.2,1.9L56.2,1.9z M64.8,4.6c-0.6,0.1-1.3,0.2-1.9,0.2C63.6,5,64,5.8,64,6.5
			c0,1.3-1,2.3-2.3,2.3h-0.3c-0.3,0-0.5,0-0.9-0.1c-0.2,0.1-0.3,0.4-0.3,0.6c0,0.3,0.2,0.5,1,0.5h1.1c1.4,0,2.3,0.8,2.3,1.8
			c0,1.3-1.1,2-3.1,2c-2,0-2.9-0.6-2.9-2h1c0,0.9,0.4,1.2,1.9,1.2s2-0.4,2-1.1c0-0.6-0.5-1-1.4-1H61c-1.2,0-1.7-0.6-1.7-1.3
			c0-0.5,0.3-1,0.8-1.2C59.3,8,58.9,7.3,59,6.4c0-1.3,1.1-2.4,2.4-2.4h0.2c1.1,0.1,2.1-0.1,3.1-0.5L64.8,4.6L64.8,4.6z M59.9,6.5
			c-0.1,0.8,0.4,1.5,1.3,1.6h0.2c0.8,0.1,1.4-0.5,1.5-1.3V6.5C63,5.8,62.5,5.1,61.8,5h-0.3c-0.8,0-1.4,0.5-1.5,1.3L59.9,6.5
			L59.9,6.5z M70.9,11.1h-1l-0.1-1.1c-0.4,0.8-1.3,1.3-2.1,1.3c-1,0-1.8-0.8-1.9-1.7V4.5h1.1v4.7c0,1,0.3,1.3,1.1,1.3
			c0.8-0.1,1.4-0.5,1.7-1.2V4.5h1.1L70.9,11.1L70.9,11.1z M76.9,4.3l-0.2,1.1c-0.2-0.1-0.4-0.1-0.6-0.1c-0.9,0-1.4,0.6-1.6,1.9V11
			h-1.1V4.3h1l0.1,1.4c0.2-0.9,1-1.5,1.8-1.5C76.4,4.2,76.7,4.2,76.9,4.3z M83.1,8.1h-4.4c0.1,1.6,0.9,2.3,1.9,2.3
			c0.6,0,1.3-0.2,1.8-0.6l0.4,0.6c-0.6,0.5-1.5,0.9-2.4,0.9c-1.8,0-3-1.3-3-3.4s1.1-3.6,2.8-3.6c1.7,0,2.8,1.3,2.8,3.3V8.1z M82,7.2
			C82,5.8,81.5,5,80.3,5c-1,0-1.6,0.6-1.6,2.3L82,7.2z M89.1,4.9l-0.4,0.6C88.1,5.1,87.6,5,86.9,5c-0.8,0-1.3,0.3-1.3,1
			s0.3,0.9,1.5,1.2c1.4,0.4,2.3,1,2.3,2.1c0,1.4-1.3,2-2.6,2c-1,0-1.8-0.3-2.5-0.9l0.5-0.6c0.5,0.4,1.2,0.6,1.9,0.6
			c0.9,0,1.5-0.4,1.5-1.1s-0.3-1-1.7-1.3c-1.4-0.3-2-1-2-1.9s1.1-1.8,2.4-1.8C87.6,4.2,88.4,4.5,89.1,4.9z M100.5,11
			c-0.3,0.1-0.6,0.2-1,0.2c-0.9,0-1.3-0.5-1.3-1.5V2.6c-0.5-0.1-1.1-0.2-1.5-0.2c-0.9,0-1.2,0.3-1.2,1v1h1.7l-0.1,0.9h-1.5V11h-1.1
			V5.1h-1.1V4.3h1.1v-1c0-1.1,0.8-1.9,2.1-1.9c0.5,0,1.1,0.1,1.6,0.2l1.1-0.1v8.1c0,0.4,0.1,0.5,0.4,0.5c0.1,0,0.3,0,0.4-0.1
			L100.5,11L100.5,11z M107.5,7.7c0,2.1-1.1,3.5-3,3.5c-1.9,0-3-1.4-3-3.5s1.1-3.5,3-3.5C106.5,4.2,107.5,5.6,107.5,7.7z M102.7,7.7
			c0,1.8,0.6,2.7,1.8,2.7c1.2,0,1.8-0.9,1.8-2.7S105.7,5,104.5,5C103.4,5,102.7,5.9,102.7,7.7z M115.6,11.1h-1.5l-1.3-5.8l-1.3,5.8
			h-1.4l-1.6-6.8h1.1l1.3,6l1.4-6h1.2l1.3,6l1.3-6h1.1C117.1,4.4,115.6,11.1,115.6,11.1z M6.5,23.2c0,2.1-1,3.5-2.7,3.5
			c-0.8,0-1.4-0.3-1.8-1l-0.1,0.9H1v-9.4L2,17v3.8c0.4-0.6,1.2-1.1,1.9-1.1C5.6,19.6,6.5,20.9,6.5,23.2z M5.4,23.2
			c0-1.9-0.6-2.7-1.6-2.7c-0.8,0-1.3,0.4-1.6,1.1v3.3c0.3,0.5,0.9,0.9,1.5,1C4.7,25.8,5.4,25,5.4,23.2z M13.5,23.6H9.1
			c0.1,1.6,0.9,2.3,1.9,2.3c0.6,0,1.3-0.2,1.8-0.6l0.4,0.6c-0.6,0.5-1.5,0.9-2.4,0.9c-1.8,0-3-1.3-3-3.4s1.1-3.6,2.8-3.6
			s2.8,1.3,2.8,3.3V23.6z M12.4,22.6c0-1.4-0.5-2.1-1.7-2.1c-1,0-1.6,0.6-1.7,2.3C9,22.7,12.4,22.6,12.4,22.6z M18.9,26.3
			c-0.4,0.3-1,0.4-1.5,0.4c-1,0.1-1.7-0.6-1.8-1.5v-4.5h-1.2v-0.9h1.2v-1.6l1.1-0.1v1.7h1.6l-0.1,0.9h-1.5v4.2
			c0,0.8,0.2,1.1,0.9,1.1c0.3,0,0.6-0.1,1-0.3C18.4,25.6,18.9,26.3,18.9,26.3z M23.4,26.3c-0.4,0.3-1,0.4-1.5,0.4
			c-1,0.1-1.7-0.6-1.8-1.5v-4.5h-1.2v-0.9h1.3v-1.6l1.1-0.1v1.7h1.6l-0.1,0.9h-1.5v4.2c0,0.8,0.2,1.1,0.9,1.1c0.3,0,0.6-0.1,1-0.3
			C23.1,25.6,23.4,26.3,23.4,26.3z M29.5,23.6h-4.4c0.1,1.6,0.9,2.3,1.9,2.3c0.6,0,1.3-0.2,1.7-0.6l0.5,0.6
			c-0.6,0.5-1.5,0.9-2.4,0.9c-1.8,0-3-1.3-3-3.4s1.1-3.6,2.8-3.6s2.8,1.3,2.8,3.3V23.6z M28.4,22.6c0-1.4-0.5-2.1-1.6-2.1
			c-1,0-1.6,0.6-1.6,2.3L28.4,22.6z M35,19.7l-0.2,1.1c-0.2-0.1-0.4-0.1-0.5-0.1c-0.9,0-1.4,0.6-1.6,1.9v3.9h-1.1v-6.8h1l0.1,1.4
			c0.2-0.9,1-1.5,1.8-1.6C34.5,19.6,34.7,19.6,35,19.7z M41.1,17.4c0,0.4-0.3,0.8-0.8,0.8s-0.8-0.3-0.8-0.8s0.3-0.8,0.8-0.8
			S41.1,16.8,41.1,17.4C41.1,17.3,41.1,17.4,41.1,17.4z M40.8,26.6h-1.1v-6.8h1.1V26.6z M48.4,21.7v4.8h-1.1v-4.7
			c0-1.1-0.4-1.4-1.1-1.4c-0.8,0-1.5,0.5-1.8,1.3v4.8h-1.1v-6.8h1l0.1,1.1c0.4-0.8,1.3-1.2,2.1-1.2c1,0,1.8,0.8,1.9,1.7
			C48.4,21.5,48.4,21.7,48.4,21.7L48.4,21.7z M57.7,19.7l-0.2,1.1c-0.2-0.1-0.4-0.1-0.6-0.1c-0.9,0-1.4,0.6-1.6,1.9v3.9h-1.1v-6.8h1
			l0.1,1.4c0.3-1.1,1-1.6,1.8-1.6C57.3,19.6,57.5,19.6,57.7,19.7z M64,26.6h-1l-0.1-1.1c-0.4,0.9-1.2,1.3-2.1,1.3
			c-1,0.1-1.8-0.8-1.9-1.7v-5.3h1.1v4.7c0,1,0.3,1.3,1.1,1.3c0.8,0,1.5-0.5,1.8-1.2v-4.8h1.1L64,26.6z M71.6,21.7v4.8h-1.1v-4.7
			c0-1.1-0.4-1.4-1.1-1.4c-0.8,0-1.5,0.5-1.8,1.3v4.8h-1.1v-6.8h1l0.1,1.1c0.4-0.8,1.3-1.2,2.1-1.2c1,0,1.8,0.8,1.8,1.8V21.7
			L71.6,21.7z M79,21.7v4.8h-1.1v-4.7c0-1.1-0.4-1.4-1.1-1.4c-0.8,0-1.5,0.5-1.8,1.3v4.8H74v-6.8h0.9l0.1,1.1
			c0.4-0.8,1.3-1.2,2.1-1.2c1-0.1,1.9,0.8,1.9,1.7L79,21.7L79,21.7z M82.7,17.4c0,0.4-0.3,0.8-0.8,0.8s-0.8-0.3-0.8-0.8
			s0.3-0.8,0.8-0.8C82.3,16.6,82.7,16.8,82.7,17.4C82.7,17.3,82.7,17.4,82.7,17.4z M82.4,26.6h-1.1v-6.8h1.1V26.6z M90,21.7v4.8
			h-1.1v-4.7c0-1.1-0.4-1.4-1.1-1.4c-0.8,0-1.5,0.5-1.8,1.3v4.8h-1.1v-6.8h1l0.1,1.1c0.4-0.8,1.3-1.2,2.1-1.2c1,0,1.8,0.8,1.8,1.8
			V21.7L90,21.7z M97.8,20c-0.6,0.1-1.3,0.2-1.9,0.2c0.8,0.2,1.2,1,1.2,1.7c0,1.3-1,2.3-2.3,2.3h-0.3c-0.3,0-0.5,0-0.9-0.1
			c-0.2,0.1-0.3,0.4-0.3,0.6c0,0.3,0.2,0.5,1,0.5h1.1c1.4,0,2.3,0.8,2.3,1.8c0,1.3-1.1,2-3.1,2s-2.9-0.6-2.9-2h1
			c0,0.9,0.4,1.2,1.9,1.2c1.5,0,2-0.4,2-1.1s-0.5-1-1.4-1H94c-1.2,0-1.7-0.6-1.7-1.3c0-0.5,0.3-1,0.8-1.2c-0.8-0.3-1.2-1.1-1.2-1.9
			c0-1.3,1.1-2.4,2.4-2.4h0.2c1.1,0.1,2.1-0.1,3.1-0.5L97.8,20L97.8,20z M92.8,22c-0.1,0.8,0.5,1.5,1.3,1.6h0.2
			c0.8,0.1,1.4-0.5,1.5-1.3V22c0.1-0.8-0.4-1.4-1.2-1.5h-0.3c-0.8,0-1.4,0.5-1.5,1.3L92.8,22L92.8,22z M105.8,26.3
			c-0.4,0.3-1,0.4-1.5,0.4c-1,0.1-1.7-0.6-1.8-1.5v-4.5h-1.2v-0.9h1.2v-1.6l1.1-0.1v1.7h1.6l-0.1,0.9h-1.5v4.2
			c0,0.8,0.2,1.1,0.9,1.1c0.3,0,0.6-0.1,1-0.3C105.4,25.6,105.8,26.3,105.8,26.3z M111.9,23.6h-4.4c0.1,1.6,0.9,2.3,1.9,2.3
			c0.6,0,1.3-0.2,1.8-0.6l0.4,0.6c-0.6,0.5-1.5,0.9-2.4,0.9c-1.8,0-3-1.3-3-3.4s1.1-3.6,2.8-3.6s2.8,1.3,2.8,3.3V23.6z M110.9,22.6
			c0-1.4-0.5-2.1-1.7-2.1c-1,0-1.6,0.6-1.7,2.3L110.9,22.6z M118.7,26.6h-1.3l-1.7-2.9l-1.7,2.9h-1.2l2.4-3.5l-2-3.2h1.3l1.5,2.6
			l1.5-2.6h1.2l-2,3.1L118.7,26.6z M123.3,26.3c-0.4,0.3-1,0.4-1.5,0.4c-1,0.1-1.7-0.6-1.8-1.5v-4.5h-1.2v-0.9h1.2v-1.6l1.1-0.1v1.7
			h1.6l-0.1,0.9H121v4.2c0,0.8,0.2,1.1,0.9,1.1c0.3,0,0.6-0.1,1-0.3C122.9,25.6,123.3,26.3,123.3,26.3z M125.7,25.8
			c0,0.4-0.3,0.9-0.8,0.9c-0.4,0-0.8-0.4-0.8-1c0-0.4,0.3-0.6,0.8-0.8C125.3,25,125.7,25.4,125.7,25.8L125.7,25.8z M6.1,43.2H3.6
			v7.9H2.6v-7.9H0v-1h6.2L6.1,43.2z M12.7,46.2V51h-1.1v-4.7c0-1.1-0.4-1.4-1.1-1.4C9.8,45,9,45.5,8.7,46.1v4.8H7.6v-9.3l1.1-0.1
			v3.9c0.4-0.6,1.3-1.1,2-1.1c1,0,1.8,0.8,1.9,1.8V46.2L12.7,46.2z M20,48h-4.4c0.1,1.6,0.9,2.3,1.9,2.3c0.6,0,1.3-0.2,1.8-0.6
			l0.4,0.6c-0.6,0.5-1.5,0.9-2.4,0.9c-1.8,0-3-1.3-3-3.4s1.1-3.6,2.8-3.6s2.8,1.3,2.8,3.3V48z M19,47.2c0-1.4-0.5-2.1-1.6-2.1
			c-1,0-1.6,0.6-1.6,2.3h3.3v-0.1H19z M24.6,51.1c-0.3,1.5-1.5,2.6-3,2.7L21.4,53c1.1-0.1,1.9-0.9,2.1-1.8h-0.4l-2.3-6.8h1.2l1.8,6
			l1.8-6h1.1C26.8,44.4,24.6,51.1,24.6,51.1z M29.3,42.1c0,0.2-0.1,0.5-0.2,0.8l-0.9,1.8h-0.8l0.5-1.9c-0.2-0.1-0.3-0.3-0.3-0.6
			c0-0.4,0.4-0.8,0.9-0.6C28.9,41.5,29.3,41.8,29.3,42.1L29.3,42.1z M34.6,44.3l-0.2,1.1c-0.2-0.1-0.4-0.1-0.5-0.1
			c-0.9,0-1.4,0.6-1.6,1.9v4h-1.1v-6.8h1l0.1,1.4c0.3-1.1,1-1.6,1.8-1.6C34.2,44.2,34.4,44.2,34.6,44.3z M40.7,48h-4.4
			c0.1,1.6,0.9,2.3,1.9,2.3c0.6,0,1.3-0.2,1.8-0.6l0.4,0.6c-0.6,0.5-1.5,0.9-2.4,0.9c-1.8,0-3-1.3-3-3.4s1.1-3.6,2.8-3.6
			s2.8,1.3,2.8,3.3C40.8,47.7,40.8,47.8,40.7,48z M39.7,47.2c0-1.4-0.5-2.1-1.6-2.1c-1,0-1.6,0.6-1.6,2.3h3.3v-0.1H39.7z M51.2,48
			h-4.4c0.1,1.6,0.9,2.3,1.9,2.3c0.6,0,1.3-0.2,1.8-0.6l0.4,0.6c-0.6,0.5-1.5,0.9-2.4,0.9c-1.8,0-3-1.3-3-3.4s1.1-3.6,2.8-3.6
			s2.8,1.3,2.8,3.3V48z M50.2,47.2c0-1.4-0.5-2.1-1.6-2.1c-1,0-1.6,0.6-1.6,2.3h3.2V47.2z M55.6,51h-1.3L52,44.3h1.2l1.8,5.8
			l1.8-5.8H58C58,44.3,55.6,51,55.6,51z M64.3,48h-4.4c0.1,1.6,0.9,2.3,1.9,2.3c0.6,0,1.3-0.2,1.8-0.6l0.4,0.6
			c-0.6,0.5-1.5,0.9-2.4,0.9c-1.8,0-3-1.3-3-3.4c0-2.1,1.1-3.6,2.8-3.6s2.8,1.3,2.8,3.3C64.4,47.7,64.3,47.9,64.3,48z M63.3,47.2
			c0-1.4-0.5-2.1-1.6-2.1c-1,0-1.6,0.6-1.6,2.3h3.3v-0.1H63.3z M71.4,46.2V51h-1.1v-4.7c0-1.1-0.4-1.4-1.1-1.4
			c-0.9,0-1.5,0.5-1.9,1.3V51h-1.1v-6.8h1l0.1,1.1c0.4-0.8,1.3-1.2,2.1-1.2c1-0.1,1.9,0.6,1.9,1.7V46.2L71.4,46.2z M82.2,50.5
			L82,51.2c-0.6,0-1.2-0.4-1.3-1.1c-0.4,0.6-1.2,1.1-2,1.1c-1.1,0.1-2-0.6-2.1-1.7v-0.3c0-1.5,1.1-2.3,2.9-2.3h1.1v-0.5
			c0-1-0.4-1.4-1.5-1.4c-0.6,0-1.3,0.1-1.8,0.3L77,44.6c0.8-0.3,1.5-0.4,2.3-0.4c1.6,0,2.4,0.9,2.4,2.3v3.1
			C81.6,50.2,81.8,50.4,82.2,50.5z M80.5,49.3v-1.6h-1c-1.3,0-1.9,0.4-1.9,1.4c-0.1,0.5,0.2,1.2,0.9,1.3h0.4
			C79.7,50.4,80.3,50,80.5,49.3z M86.6,51h-1.3L83,44.3h1.2l1.8,5.8l1.8-5.8H89L86.6,51z M95.2,50.5L95,51.2c-0.6,0-1.2-0.4-1.3-1.1
			c-0.4,0.6-1.2,1.1-2,1.1c-1.1,0.1-2-0.6-2.1-1.7v-0.3c0-1.5,1.1-2.3,2.9-2.3h1.1v-0.5c0-1-0.4-1.4-1.4-1.4c-0.6,0-1.3,0.1-1.8,0.3
			L90,44.6c0.8-0.3,1.5-0.4,2.3-0.4c1.6,0,2.4,0.9,2.4,2.3v3.1C94.7,50.2,94.9,50.4,95.2,50.5z M93.6,49.3v-1.6h-1
			c-1.3,0-1.9,0.4-1.9,1.4c-0.1,0.5,0.2,1.2,0.8,1.3H92C92.7,50.4,93.4,50,93.6,49.3z M98.4,41.8c0,0.4-0.3,0.8-0.8,0.8
			c-0.4,0-0.8-0.3-0.8-0.8c0-0.4,0.3-0.8,0.8-0.8C98.1,41.1,98.4,41.4,98.4,41.8z M98.2,51h-1.1v-6.8h1.1V51z M100.6,49.7v-8.1
			l1.1-0.1v8.4c0,0.3,0.1,0.5,0.4,0.5c0.1,0,0.3,0,0.4-0.1l0.3,0.8c-0.3,0.1-0.5,0.2-0.9,0.2c-0.8,0-1.3-0.5-1.4-1.2V49.7
			L100.6,49.7z M109.4,50.5l-0.2,0.8c-0.6,0-1.2-0.4-1.3-1.1c-0.4,0.6-1.2,1.1-2,1.1c-1.1,0.1-2-0.6-2.1-1.7v-0.3
			c0-1.5,1.1-2.3,2.9-2.3h1.1v-0.5c0-1-0.4-1.4-1.4-1.4c-0.6,0-1.3,0.1-1.8,0.3l-0.2-0.8c0.8-0.3,1.5-0.4,2.3-0.4
			c1.6,0,2.4,0.9,2.4,2.3v3.1C108.8,50.2,109,50.4,109.4,50.5z M107.7,49.3v-1.6h-1c-1.3,0-1.9,0.4-1.9,1.4c-0.1,0.6,0.3,1.2,1,1.3
			h0.3C106.8,50.4,107.4,50,107.7,49.3z M116.8,47.7c0,2.1-1,3.5-2.7,3.5c-0.8,0-1.4-0.3-1.8-0.9l-0.1,0.8h-0.9v-9.5l1.1-0.1v3.8
			c0.4-0.6,1.2-1.1,1.9-1.1C115.8,44.2,116.8,45.5,116.8,47.7L116.8,47.7z M115.7,47.7c0-1.9-0.6-2.7-1.6-2.7
			c-0.8,0-1.3,0.4-1.6,1.1v3.3c0.3,0.5,1,0.9,1.5,1C114.9,50.4,115.7,49.5,115.7,47.7z M118.7,49.7v-8.1l1.1-0.1v8.4
			c0,0.3,0.1,0.5,0.4,0.5c0.1,0,0.3,0,0.4-0.1l0.3,0.8c-0.3,0.1-0.5,0.2-0.9,0.2c-0.8,0-1.3-0.5-1.4-1.2V49.7L118.7,49.7z M127.5,48
			h-4.4c0.1,1.6,0.9,2.3,1.9,2.3c0.6,0,1.3-0.2,1.8-0.6l0.4,0.6c-0.6,0.5-1.5,0.9-2.4,0.9c-1.8,0-3-1.3-3-3.4c0-2.1,1.1-3.6,2.8-3.6
			s2.8,1.3,2.8,3.3C127.6,47.7,127.6,47.9,127.5,48z M126.4,47.2c0-1.4-0.5-2.1-1.7-2.1c-1,0-1.6,0.6-1.7,2.3h3.3L126.4,47.2z
			 M2.3,57.3c0,0.4-0.3,0.8-0.8,0.8H1.4c-0.4,0-0.8-0.2-0.9-0.6c0-0.4,0.2-0.8,0.6-0.9h0.2C1.9,56.5,2.3,56.8,2.3,57.3L2.3,57.3z
			 M2,66.5H1v-6.8H2V66.5z M9.5,61.6v4.8H8.5v-4.7c0-1.1-0.4-1.4-1.1-1.4c-0.8,0-1.5,0.5-1.8,1.3v4.8H4.5v-6.8h1l0.1,1.1
			C6,60,6.9,59.6,7.7,59.6c1,0,1.8,0.8,1.9,1.8C9.6,61.5,9.6,61.5,9.5,61.6L9.5,61.6z M19.5,60.4L19.1,61c-0.5-0.4-1.1-0.5-1.7-0.5
			c-0.9,0-1.3,0.4-1.3,1c0,0.5,0.3,0.9,1.5,1.1c1.4,0.4,2.3,1,2.3,2.1c0,1.4-1.3,2-2.6,2c-1,0-1.8-0.3-2.6-0.9l0.5-0.6
			c0.5,0.4,1.2,0.6,1.9,0.6c1,0,1.5-0.4,1.5-1.1s-0.3-1-1.7-1.3s-2-1.1-2-2c0-1,1.1-1.8,2.4-1.8C18,59.6,18.9,59.8,19.5,60.4z
			 M26.9,63.1c0,2.1-1.1,3.5-3,3.5s-3-1.4-3-3.5s1.1-3.5,3-3.5S26.9,61,26.9,63.1z M22.1,63.1c0,1.8,0.6,2.7,1.8,2.7
			c1.2,0,1.8-0.9,1.8-2.7c0-1.8-0.6-2.7-1.8-2.7C22.7,60.5,22.1,61.3,22.1,63.1z M37.4,61.6v4.8h-1.1v-4.7c0-1.1-0.4-1.4-1-1.4
			c-0.8,0-1.2,0.5-1.6,1.3v4.8h-1.1v-4.7c0-1.1-0.4-1.4-1-1.4c-0.8,0-1.2,0.5-1.6,1.3v4.8h-1.1v-6.8h0.8l0.1,1.1
			c0.4-0.8,1.2-1.2,2-1.2c0.8,0,1.5,0.5,1.7,1.3c0.4-0.8,1.2-1.2,2-1.3c1,0,1.8,0.9,1.8,1.8C37.4,61.5,37.4,61.6,37.4,61.6
			L37.4,61.6z M44.8,63.5h-4.3c0.1,1.6,0.9,2.3,1.9,2.3c0.6,0,1.3-0.2,1.8-0.6l0.4,0.6c-0.6,0.5-1.5,0.9-2.4,0.9c-1.8,0-3-1.3-3-3.4
			s1.1-3.6,2.8-3.6s2.8,1.3,2.8,3.3C44.9,63.1,44.8,63.3,44.8,63.5z M43.7,62.6c0-1.4-0.5-2.1-1.6-2.1c-1,0-1.6,0.6-1.6,2.3h3.2
			V62.6z M54.4,60.4L53.8,61c-0.5-0.4-1.1-0.5-1.7-0.5c-0.8,0-1.3,0.4-1.3,1c0,0.5,0.3,0.9,1.5,1.1c1.4,0.4,2.3,1,2.3,2.1
			c0,1.4-1.3,2-2.6,2c-1,0-1.8-0.3-2.5-0.9l0.5-0.6c0.5,0.4,1.2,0.6,1.9,0.6c0.9,0,1.5-0.4,1.5-1.1c0-0.6-0.3-1-1.7-1.3
			c-1.4-0.3-2-1-2-1.9c0-1,1.1-1.8,2.4-1.8C52.9,59.6,53.6,59.8,54.4,60.4z M61.2,65.9L61,66.7c-0.6,0-1.2-0.4-1.3-1.1
			c-0.4,0.6-1.2,1.1-2,1.1c-1.1,0.1-2-0.6-2.1-1.7v-0.3c0-1.5,1.1-2.3,2.9-2.3h1.1v-0.5c0-1-0.4-1.4-1.4-1.4c-0.6,0-1.3,0.1-1.8,0.3
			L56,60c0.8-0.3,1.5-0.4,2.3-0.4c1.6,0,2.4,0.9,2.4,2.3V65C60.7,65.6,60.9,65.8,61.2,65.9z M59.6,64.8v-1.6h-1
			c-1.3,0-1.9,0.4-1.9,1.4c-0.1,0.5,0.2,1.2,0.9,1.3H58C58.6,65.8,59.3,65.4,59.6,64.8z M68.2,61.6v4.8h-1.1v-4.7
			c0-1.1-0.4-1.4-1.1-1.4c-0.8,0-1.5,0.5-1.8,1.3v4.8h-1.1v-6.8h1l0.1,1.1c0.4-0.8,1.3-1.2,2.1-1.2c1,0,1.8,0.8,1.9,1.7
			C68.2,61.5,68.2,61.5,68.2,61.6L68.2,61.6z M74.6,60.4L74.2,61c-0.5-0.4-1.1-0.5-1.7-0.5c-0.8,0-1.3,0.4-1.3,1
			c0,0.5,0.3,0.9,1.5,1.1c1.4,0.4,2.3,1,2.3,2.1c0,1.4-1.3,2-2.6,2c-1,0-1.8-0.3-2.5-0.9l0.5-0.6c0.5,0.4,1.2,0.6,1.9,0.6
			c0.9,0,1.5-0.4,1.5-1.1c0-0.6-0.3-1-1.7-1.3c-1.4-0.3-2-1-2-1.9c0-1,1.1-1.8,2.4-1.8C73.2,59.6,74,59.9,74.6,60.4z M76,62.1h3.5v1
			H76V62.1z M85.7,60.4L85.2,61c-0.5-0.4-1.2-0.5-1.8-0.5c-0.8,0-1.3,0.4-1.3,1c0,0.5,0.3,0.9,1.5,1.1c1.4,0.4,2.3,1,2.3,2.1
			c0,1.4-1.3,2-2.6,2c-1,0-1.8-0.3-2.6-0.9l0.5-0.6c0.5,0.4,1.2,0.6,1.9,0.6c0.9,0,1.5-0.4,1.5-1.1c0-0.6-0.3-1-1.7-1.3s-2-1-2-1.9
			c0-1,1.1-1.8,2.4-1.8C84.3,59.6,85,59.9,85.7,60.4z M92.6,63.5h-4.4c0.1,1.6,0.9,2.3,1.9,2.3c0.6,0,1.3-0.2,1.8-0.6l0.4,0.6
			c-0.6,0.5-1.5,0.9-2.4,0.9c-1.8,0-3-1.3-3-3.4s1.1-3.6,2.8-3.6s2.8,1.3,2.8,3.3V63.5z M91.6,62.6c0-1.4-0.5-2.1-1.7-2.1
			c-1,0-1.6,0.6-1.7,2.3h3.3L91.6,62.6z M98.1,59.7l-0.2,1.1c-0.2,0-0.4-0.1-0.6-0.1c-0.9,0-1.4,0.6-1.7,1.9v4h-1.1v-6.8h1l0.1,1.4
			c0.2-0.9,1-1.5,1.8-1.6C97.7,59.6,97.9,59.6,98.1,59.7L98.1,59.7z M100.7,57.4c0,0.4-0.3,0.8-0.8,0.8c-0.4,0-0.8-0.3-0.8-0.8
			c0-0.4,0.3-0.8,0.8-0.8C100.4,56.5,100.7,56.9,100.7,57.4z M100.5,66.5h-1.1v-6.8h1.1V66.5z M104.2,58.8v1h1.7l-0.1,0.9h-1.5v5.9
			h-1.1v-5.9h-1.2v-0.9h1.2v-1c0-1,0.8-1.8,1.7-1.9h0.3c0.5,0,1.1,0.1,1.6,0.3l-0.3,0.8c-0.4-0.2-0.8-0.2-1.2-0.2
			C104.4,57.8,104.2,58.1,104.2,58.8z M114.1,66.3c-0.4,0.3-1,0.4-1.5,0.4c-1,0.1-1.7-0.6-1.8-1.5v-4.5h-1.2v-0.9h1.2v-1.6l1.1-0.1
			v1.7h1.6l-0.1,0.9h-1.5v4.2c0,0.8,0.2,1.1,0.9,1.1c0.3,0,0.6-0.1,1-0.3C113.6,65.6,114.1,66.3,114.1,66.3z M117.8,66.6
			c-0.3,1.5-1.5,2.6-3,2.7l-0.1-0.9c1.1-0.1,1.9-0.9,2.1-1.8h-0.3l-2.3-6.8h1.2l1.8,6l1.8-6h1.1C120.2,59.8,117.8,66.6,117.8,66.6z
			 M126.9,63.1c0,2-0.9,3.5-2.7,3.5c-0.8,0-1.4-0.2-1.8-0.9V69l-1.1,0.1v-9.4h1l0.1,1c0.4-0.6,1.2-1.1,2-1.1
			C126.3,59.6,126.9,61,126.9,63.1z M125.8,63.1c0-1.8-0.5-2.7-1.6-2.7c-0.8,0-1.4,0.4-1.7,1.1v3.3c0.3,0.5,1,0.9,1.5,0.9
			C125.2,65.8,125.8,65,125.8,63.1z M134,63.5h-4.4c0.1,1.6,0.9,2.3,1.9,2.3c0.6,0,1.3-0.2,1.8-0.6l0.4,0.6
			c-0.6,0.5-1.5,0.9-2.4,0.9c-1.8,0-3-1.3-3-3.4c0-2.1,1.1-3.6,2.8-3.6c1.7,0,2.8,1.3,2.8,3.3V63.5z M132.9,62.6
			c0-1.4-0.5-2.1-1.7-2.1c-1,0-1.6,0.6-1.6,2.3h3.3V62.6z M136.9,65.8c0,0.4-0.3,0.9-0.9,0.9c-0.4,0-0.9-0.3-0.9-0.9
			c0-0.4,0.3-0.9,0.9-0.9C136.5,65,136.9,65.4,136.9,65.8z"/>
		<path class="st0" d="M20.4,86.8h-1.1v-7.4l-2,1.3L16.8,80l2.6-1.6h1V86.8z M30.7,80.4c0,1.6-1.1,2.8-3.8,5.5h4l-0.1,1h-4.9V86
			c3.1-3.2,3.8-4.1,3.8-5.5c0.1-0.8-0.5-1.4-1.3-1.5h-0.2c-0.8,0-1.4,0.3-1.8,1l-0.8-0.5c0.6-0.9,1.6-1.3,2.6-1.3
			c1.3-0.1,2.4,0.9,2.6,2.1C30.7,80.3,30.7,80.4,30.7,80.4z M51.2,84.7h-1.1v2.1h-1.1v-2.1h-3.8v-0.8l2.6-5.8l0.9,0.4l-2.4,5.4h2.7
			l0.1-2.4h1v2.4h1.1C51.2,83.9,51.2,84.7,51.2,84.7z M60.5,79H57v2.7c0.4-0.2,0.9-0.3,1.4-0.3c1.3,0,2.5,1.1,2.5,2.4v0.3
			c0.1,1.5-1.1,2.8-2.6,2.9H58c-1,0-1.8-0.3-2.5-1.1l0.6-0.6c0.4,0.5,1.2,0.9,1.8,0.9c1.1,0,1.8-0.8,1.8-2s-0.8-1.8-1.6-1.8
			c-0.4,0-0.9,0.1-1.3,0.3h-0.9v-4.3h4.6C60.7,78.3,60.5,79,60.5,79z M71.2,83.8c0.1,1.5-1,2.9-2.5,3h-0.2c-2,0-2.9-1.7-2.9-4.2
			c0-2.9,1.2-4.7,3.2-4.7c0.6,0,1.2,0.2,1.7,0.5l-0.4,0.8c-0.4-0.2-0.9-0.3-1.3-0.3c-1.3,0-2,1.4-2.1,3.3c0.4-0.8,1.3-1.2,2.1-1.2
			c1.3,0,2.4,1.1,2.4,2.5C71.3,83.6,71.3,83.7,71.2,83.8z M70.1,83.8c0-1.4-0.6-1.9-1.4-1.9c-0.9,0-1.5,0.5-1.9,1.2
			c0,1.9,0.5,2.8,1.7,2.8S70.1,85.2,70.1,83.8L70.1,83.8z M80.5,79l-3.2,7.9l-1-0.3l3.1-7.5h-3.9v-0.9h4.9V79L80.5,79z M90.8,84.5
			c0,1.4-1.2,2.5-3,2.5s-2.9-1-2.9-2.5c0-1.1,0.8-1.9,1.7-2.3c-0.9-0.3-1.4-1.1-1.4-2c0.2-1.4,1.6-2.4,3-2.1
			c1.1,0.2,1.9,1.1,2.1,2.1c0,0.9-0.5,1.5-1.5,1.9C90.1,82.4,90.8,83.4,90.8,84.5z M89.6,84.5c0-1-0.5-1.4-1.9-1.8l-0.3-0.1
			c-0.9,0.3-1.4,1.1-1.4,1.9c0,1,0.6,1.5,1.8,1.5S89.6,85.4,89.6,84.5L89.6,84.5z M86.4,80.2c0,0.9,0.5,1.2,1.6,1.6l0.2,0.1
			c0.6-0.2,1.2-1,1.2-1.6c-0.1-0.9-0.8-1.4-1.6-1.4C87.1,78.9,86.5,79.4,86.4,80.2L86.4,80.2z M100.9,81.5c0,3.5-1.4,4.7-4.5,5.6
			l-0.2-0.9c2.3-0.6,3.5-1.6,3.6-3.6c-0.4,0.6-1.2,1.1-1.9,1.1c-1.4,0-2.5-1.2-2.4-2.6v-0.2c-0.1-1.5,1-2.7,2.5-2.8h0.2
			C100,78.1,100.9,79.3,100.9,81.5L100.9,81.5z M99.8,81.7c0-1.9-0.4-2.7-1.6-2.7c-1.2,0-1.6,0.8-1.6,2s0.6,1.8,1.5,1.8
			C98.8,82.8,99.5,82.3,99.8,81.7z M111.5,82.6c0,2.9-1,4.4-2.8,4.4c-1.8,0-2.8-1.6-2.8-4.4c0-2.8,1-4.4,2.8-4.4
			C110.5,78.2,111.5,79.7,111.5,82.6z M106.9,82.6c0,2.6,0.6,3.5,1.7,3.5c1.1,0,1.7-1.1,1.7-3.5c0-2.5-0.6-3.5-1.7-3.5
			C107.5,79,106.9,80,106.9,82.6z M20.4,102.2h-1.1v-6.1l-2,1.2l-0.5-0.8l2.7-1.6h1V102.2L20.4,102.2z M30.6,97.1
			c0,1.2-0.4,2.1-3.6,4.2h3.9l-0.1,1h-5.1v-0.9c3.4-2.5,4-3.2,4-4.2c0-0.8-0.5-1.4-1.3-1.4H28c-0.8,0-1.5,0.4-1.9,1.1l-0.6-0.5
			c0.6-0.9,1.6-1.4,2.7-1.4c1.3-0.2,2.5,0.8,2.6,2C30.6,96.9,30.6,97,30.6,97.1L30.6,97.1z M40.3,97c0,1-0.8,1.8-1.7,1.9
			c1.1,0,1.9,1,1.9,2v0.1c0,1.5-1.2,2.7-2.7,2.7h-0.3c-1,0-1.9-0.4-2.6-1.2l0.6-0.5c0.4,0.5,1.2,0.9,1.9,0.9c1,0.1,1.7-0.5,1.8-1.5
			v-0.3c0-1.2-0.6-1.6-1.8-1.6h-0.6l0.1-0.9h0.4c0.9,0.1,1.5-0.5,1.6-1.3v-0.2c0-0.9-0.5-1.3-1.5-1.3c-0.6,0-1.3,0.3-1.8,0.8
			L35.2,96c0.6-0.6,1.5-1,2.5-1c1.3-0.1,2.4,0.8,2.5,1.9C40.3,96.9,40.3,96.9,40.3,97L40.3,97z M40.3,80.1c0,1-0.8,1.8-1.7,1.9
			c1.1,0,1.9,1,1.9,2v0.1c0,1.5-1.2,2.7-2.7,2.7h-0.3c-1,0-1.9-0.4-2.6-1.2l0.6-0.5c0.4,0.5,1.2,0.9,1.9,0.9c1,0.1,1.7-0.5,1.8-1.5
			v-0.3c0-1.2-0.6-1.6-1.8-1.6h-0.6l0.1-0.9h0.4c0.9,0.1,1.5-0.5,1.6-1.3v-0.2c0-0.9-0.5-1.3-1.5-1.3c-0.6,0-1.3,0.3-1.8,0.8
			L35.2,79c0.6-0.6,1.5-1,2.5-1c1.3-0.1,2.4,0.8,2.5,1.9C40.3,80,40.3,80.1,40.3,80.1L40.3,80.1z M50.9,101.6h-1.1v1.9h-1.1v-1.9
			h-3.9v-0.8l2.6-6.1l0.9,0.4l-2.4,5.6h2.8l0.1-2.4h1v2.4h1.1V101.6L50.9,101.6z M59.6,95.8h-3.4v2.7c0.4-0.2,1-0.3,1.4-0.3
			c1.3,0,2.5,1.1,2.5,2.4v0.3c0.1,1.5-1.1,2.8-2.7,2.9H57c-1,0-1.8-0.3-2.5-1.1l0.6-0.6c0.4,0.5,1.2,0.9,1.9,0.9
			c1.1,0,1.8-0.8,1.8-2c0-1.3-0.8-1.8-1.6-1.8c-0.4,0-0.9,0.1-1.3,0.3h-0.9v-4.3h4.6C59.8,95.1,59.6,95.8,59.6,95.8z M70.4,99.3
			c0.1,1.5-1,2.9-2.5,3h-0.2c-2.1,0-2.9-1.7-2.9-4.2c0-2.9,1.2-4.7,3.2-4.7c0.6,0,1.3,0.2,1.8,0.5l-0.4,0.8
			c-0.4-0.2-0.9-0.3-1.3-0.3c-1.4,0-2.1,1.4-2.1,3.4c0.4-0.8,1.3-1.2,2.1-1.2c1.3,0,2.5,1.1,2.5,2.5C70.4,99.1,70.4,99.2,70.4,99.3
			L70.4,99.3z M69.4,99.3c0-1.4-0.6-1.9-1.5-1.9s-1.6,0.5-1.9,1.2c0,1.9,0.5,2.8,1.8,2.8C68.8,101.5,69.4,100.7,69.4,99.3L69.4,99.3
			z M79.8,95.8l-3.2,7.9l-1-0.3l3.1-7.5h-4v-0.9h5V95.8L79.8,95.8z M90.1,99.9c0,1.4-1.2,2.5-3,2.5c-1.8,0-2.9-1-2.9-2.5
			c0-1.1,0.8-1.9,1.7-2.3c-0.9-0.3-1.4-1.1-1.4-2c0.2-1.4,1.6-2.4,3-2.1c1.1,0.2,1.9,1.1,2.1,2.1c0,0.9-0.5,1.5-1.5,1.9
			C89.3,97.9,90.1,98.8,90.1,99.9z M89,99.9c0-1-0.5-1.4-1.9-1.8L86.7,98c-0.9,0.3-1.4,1.1-1.4,1.9c0,1,0.6,1.5,1.8,1.5
			C88.3,101.4,89,100.9,89,99.9L89,99.9z M85.8,95.6c0,0.9,0.5,1.2,1.6,1.6l0.2,0.1c0.6-0.2,1.2-1,1.2-1.6c-0.1-0.9-0.8-1.4-1.6-1.4
			C86.4,94.3,85.8,94.9,85.8,95.6L85.8,95.6z M100.2,98.2c0,3.3-1.4,4.6-4.5,5.6l-0.2-0.9c2.1-0.6,3.5-1.7,3.6-3.5
			c-0.4,0.6-1.2,1-1.9,1.1c-1.4,0-2.5-1.2-2.4-2.5v-0.2c-0.1-1.5,1.1-2.7,2.5-2.8h0.2C99.4,94.9,100.2,96.2,100.2,98.2L100.2,98.2z
			 M99.2,98.4c0-1.9-0.4-2.7-1.6-2.7S96,96.5,96,97.7c0,1.2,0.6,1.8,1.5,1.8C98.1,99.5,98.7,99.1,99.2,98.4z M111.6,98.6
			c0,2.4-1.4,3.8-3.3,3.8c-1.9,0-3.3-1.4-3.3-3.8s1.4-3.8,3.3-3.8C110.2,94.9,111.6,96.2,111.6,98.6z M106,98.6
			c0,2.1,1.1,2.9,2.3,2.9c1.2,0,2.3-0.9,2.3-2.9s-1.1-2.9-2.3-2.9C107.1,95.7,106,96.5,106,98.6z"/>
		<path class="st1" d="M174,7.1c-0.1,0.4-0.4,1.7-0.6,2.1h-6V8.9c1.2-0.1,1.3-0.2,1.3-1.3V2.5c0-1.1-0.1-1.2-1.2-1.3V0.9h3.4v0.3
			c-1.1,0.1-1.2,0.1-1.2,1.3v5.3c0,0.8,0.1,1,0.9,1h1c0.6,0,0.9-0.1,1.2-0.4c0.3-0.4,0.6-0.9,0.8-1.3L174,7.1L174,7.1z M177.9,3.4
			c1.5,0,2.8,1.2,2.8,2.7v0.1c0.1,1.6-1.1,3-2.7,3.1h-0.1c-1.6,0-2.9-1.3-2.9-2.8V6.4C175,4.8,176.1,3.4,177.9,3.4z M177.8,3.9
			c-0.8,0-1.5,0.8-1.5,2.3s0.8,2.8,1.8,2.8c0.8,0,1.5-0.5,1.5-2.4C179.5,5,178.8,3.9,177.8,3.9z M184.5,9.2h-3V8.9
			c0.9-0.1,0.9-0.1,0.9-1V5.3c0-0.9,0-0.9-0.8-1V4c0.6-0.1,1.3-0.3,1.8-0.5v1.4c0.4-0.6,1-1.4,1.6-1.4c0.3,0,0.8,0.2,0.8,0.5
			s-0.2,0.5-0.4,0.8c-0.1,0.1-0.2,0.1-0.3,0c-0.1-0.2-0.3-0.3-0.5-0.3c-0.2,0-0.8,0.4-1.1,1.1v2.4c0,0.9,0.1,1,1.1,1V9.2L184.5,9.2z
			 M190.9,8.1c-0.5,0.8-1.3,1.2-2.1,1.3c-1.4,0-2.6-1.2-2.6-2.6V6.8c0-0.9,0.3-1.6,0.9-2.3c0.4-0.5,1.2-1,1.9-1c1.1,0,1.9,0.9,1.9,2
			c0,0.2-0.1,0.4-0.2,0.4c-0.1,0-1.9,0.1-3.4,0.2c0,1.7,1,2.5,1.9,2.5c0.5,0,1.1-0.2,1.5-0.6L190.9,8.1L190.9,8.1z M188.7,3.9
			c-0.6,0-1.2,0.5-1.4,1.6h2.1c0.2,0,0.3-0.1,0.3-0.2C189.9,4.6,189.4,4,188.7,3.9z M198.8,9.2V8.9c0.8-0.1,0.9-0.1,0.9-1.1V5.7
			c0-1-0.3-1.5-1.1-1.5c-0.5,0-1.1,0.3-1.4,0.6v3c0,0.9,0.1,0.9,0.9,1v0.3h-2.8V8.8c0.9-0.1,1-0.1,1-1V5.6c0-1-0.3-1.5-1.1-1.5
			c-0.5,0.1-1.1,0.3-1.4,0.6v3c0,0.9,0.1,0.9,0.9,1V9h-2.9V8.7c0.9-0.1,1-0.1,1-1V5c0-0.9-0.1-0.9-0.8-1V3.8
			c0.6-0.1,1.2-0.2,1.8-0.5v1.1l1-0.6c0.3-0.2,0.6-0.3,1-0.3c0.6,0,1.2,0.4,1.4,1.1c0.3-0.3,0.6-0.5,1.1-0.8c0.3-0.2,0.6-0.3,1-0.3
			c1,0,1.6,0.8,1.6,2v2.5c0,0.9,0.1,0.9,0.9,1v0.3L198.8,9.2L198.8,9.2z M205.2,9.2V8.9c0.9-0.1,0.9-0.1,0.9-1.1V5.1
			c0-0.8,0-0.9-0.9-1V3.9c0.6-0.1,1.3-0.3,1.8-0.5v4.4c0,0.9,0.1,1,1,1.1v0.3L205.2,9.2L205.2,9.2z M206.6,2.1
			c-0.3,0-0.6-0.3-0.6-0.6c0-0.4,0.3-0.6,0.6-0.8c0.3,0,0.6,0.3,0.6,0.6C207.2,1.8,206.9,2.1,206.6,2.1z M208.6,3.9
			c0.6-0.1,1.3-0.3,1.8-0.5v1.1l1.1-0.6c0.2-0.1,0.5-0.2,0.8-0.2c1.3,0,2.3,1.1,2.3,2.4V6c-0.1,1.8-1.4,3.3-3.2,3.5
			c-0.3,0-0.6-0.1-1-0.2V11c0,1,0.1,1.1,1.1,1.1v0.3h-3.1v-0.3c0.9-0.1,1-0.1,1-1v-6c0-0.8,0-0.9-0.9-1L208.6,3.9L208.6,3.9z
			 M210.5,8.3c0.3,0.3,0.8,0.5,1.2,0.5c1.1,0,1.8-1,1.8-2.4s-0.9-2.1-1.7-2.1c-0.5,0-1,0.2-1.3,0.5V8.3z M218.9,5.1
			c-0.2-0.8-0.5-1.3-1.4-1.3c-0.4,0-0.8,0.3-0.8,0.8v0.1c0,0.5,0.4,0.9,1.1,1.2c1.1,0.5,1.6,1,1.6,1.7c-0.1,1.1-1,1.8-2,1.8h-0.1
			c-0.5,0-1.1-0.1-1.5-0.3c-0.1-0.4-0.2-1.1-0.2-1.5l0.3-0.1c0.2,0.9,0.6,1.5,1.6,1.5c0.4,0,0.9-0.3,0.9-0.9V8
			c0-0.5-0.3-0.9-1.1-1.2c-0.9-0.4-1.6-0.9-1.6-1.8c0.1-1,1-1.7,1.9-1.7h0.1c0.4,0,0.9,0.1,1.2,0.2c0,0.3,0.1,1.1,0.2,1.4L218.9,5.1
			L218.9,5.1z M226.5,8.9c-0.6,0.1-1.3,0.2-1.9,0.4v-1c-0.5,0.5-1.2,0.9-1.9,1c-0.9,0-1.6-0.5-1.6-1.9V4.9c0-0.6-0.1-0.8-0.4-0.9
			L220.3,4V3.6c0.6,0,1.3-0.1,1.8-0.2v3.6c0,1.1,0.6,1.5,1.2,1.5s1.1-0.2,1.4-0.6v-3c0-0.6-0.1-0.8-0.6-0.9h-0.4V3.8
			c0.6,0,1.4-0.1,2-0.2v4.3c0,0.6,0.1,0.8,0.6,0.8h0.3L226.5,8.9L226.5,8.9z M234.2,9.2V8.9c0.8-0.1,0.9-0.1,0.9-1.1V5.7
			c0-1-0.3-1.5-1.1-1.5c-0.5,0-1.1,0.3-1.4,0.6v3c0,0.9,0.1,0.9,0.9,1v0.3h-2.8V8.8c0.8-0.1,1-0.1,1-1V5.6c0-1-0.3-1.5-1.1-1.5
			c-0.5,0.1-1.1,0.3-1.4,0.6v3c0,0.9,0.1,0.9,0.9,1V9h-2.9V8.7c0.9-0.1,1-0.1,1-1V5c0-0.9,0-0.9-0.8-1V3.8c0.6-0.1,1.2-0.2,1.8-0.5
			v1.1l1-0.6c0.3-0.2,0.6-0.3,1-0.3c0.6,0,1.2,0.4,1.4,1.1c0.3-0.3,0.6-0.5,1-0.8c0.3-0.2,0.6-0.3,1.1-0.3c1,0,1.6,0.8,1.6,2v2.5
			c0,0.9,0.1,0.9,0.9,1v0.3L234.2,9.2L234.2,9.2z M246.9,8.9c-0.6,0.1-1.4,0.3-2,0.5V8.6L244.1,9c-0.3,0.2-0.6,0.3-1.1,0.4
			c-1.4-0.1-2.5-1.4-2.4-2.8c0-1.8,1.5-3.2,3.3-3.1c0.3,0,0.6,0,0.9,0.1V1.7c0-0.9-0.1-0.9-1-1V0.4c0.6-0.1,1.4-0.2,2-0.4v7.7
			c0,0.6,0.1,0.8,0.5,0.8h0.4L246.9,8.9L246.9,8.9z M244.9,4.6C244.5,4.2,244,4,243.5,4c-0.6,0-1.7,0.4-1.7,2.3c0,1.6,1,2.4,1.8,2.4
			c0.4,0,0.9-0.2,1.3-0.4L244.9,4.6L244.9,4.6z M250.4,3.4c1.5,0,2.8,1.2,2.8,2.7v0.2c0.1,1.6-1.1,3-2.7,3.1h-0.1
			c-1.6,0-2.8-1.3-2.9-2.8V6.5C247.4,4.8,248.7,3.5,250.4,3.4C250.3,3.4,250.3,3.4,250.4,3.4z M250.2,3.9c-0.8,0-1.5,0.8-1.5,2.3
			s0.8,2.8,1.7,2.8c0.9,0,1.5-0.5,1.5-2.4C251.9,5,251.4,3.9,250.2,3.9z M253.9,9.2V8.9c0.9-0.1,1-0.1,1-1V1.8c0-0.8-0.1-0.9-0.9-1
			V0.5c0.6-0.1,1.3-0.2,1.9-0.4V8c0,0.9,0.1,1,1,1v0.3h-3L253.9,9.2z M260.3,3.4c1.5,0,2.8,1.2,2.8,2.7v0.1c0.1,1.6-1.1,3-2.7,3.1
			h-0.1c-1.6,0-2.9-1.3-2.9-2.8V6.4C257.4,4.8,258.6,3.4,260.3,3.4z M260.2,3.9c-0.8,0-1.5,0.8-1.5,2.3s0.8,2.8,1.8,2.8
			c0.8,0,1.5-0.5,1.5-2.4C261.9,5,261.3,3.9,260.2,3.9z M267,9.2h-3V8.9c0.9-0.1,0.9-0.1,0.9-1V5.3c0-0.9-0.1-0.9-0.8-1V4
			c0.6-0.1,1.2-0.3,1.8-0.5v1.4c0.4-0.6,1-1.4,1.6-1.4c0.3,0,0.8,0.2,0.8,0.6c0,0.3-0.2,0.5-0.4,0.8c-0.1,0.1-0.2,0.1-0.3,0
			c-0.1-0.2-0.3-0.3-0.5-0.3s-0.8,0.4-1.1,1.1v2.4c0,0.9,0.1,1,1.1,1V9.2L267,9.2z M275.1,5.1c-0.2-0.8-0.5-1.3-1.4-1.3
			c-0.4,0-0.8,0.3-0.8,0.8v0.1c0,0.5,0.4,0.9,1.1,1.2c1.1,0.5,1.6,1,1.6,1.7c-0.1,1.1-1,1.8-2,1.8h-0.1c-0.5,0-1.1-0.1-1.5-0.3
			c-0.1-0.4-0.2-1.1-0.2-1.5l0.4-0.1c0.2,0.9,0.6,1.5,1.6,1.5c0.4,0,0.9-0.3,0.9-0.9V8c0-0.5-0.3-0.9-1.1-1.2C272.7,6.4,272,6,272,5
			c0.1-1,1-1.7,1.9-1.7h0.1c0.4,0,0.9,0.1,1.2,0.2c0,0.3,0.1,1.1,0.2,1.4L275.1,5.1L275.1,5.1z M276.5,9.2V8.9
			c0.9-0.1,0.9-0.1,0.9-1.1V5.1c0-0.8,0-0.9-0.9-1V3.9c0.6-0.1,1.3-0.3,1.8-0.5v4.4c0,0.9,0.1,1,1,1.1v0.3L276.5,9.2L276.5,9.2z
			 M277.9,2.1c-0.3,0-0.6-0.3-0.6-0.6c0-0.4,0.3-0.6,0.6-0.8c0.3,0,0.6,0.3,0.6,0.6C278.5,1.8,278.2,2.1,277.9,2.1z M282.5,9.2
			c-0.2,0.1-0.3,0.1-0.5,0.2c-0.9,0-1.3-0.5-1.3-1.5V4.1h-0.9V4l0.3-0.4h0.6V2.5c0.2-0.2,0.6-0.5,0.9-0.9h0.2v1.9h1.5
			c0.1,0.2,0.1,0.4-0.1,0.5h-1.5v3.3c0,1.1,0.4,1.2,0.8,1.2c0.3,0,0.5-0.1,0.8-0.2l0.1,0.3L282.5,9.2L282.5,9.2z M291,9.3
			c-0.2,0-0.4-0.1-0.6-0.2c-0.1-0.2-0.2-0.3-0.3-0.5c-0.4,0.4-1,0.6-1.5,0.9c-0.9,0-1.6-0.8-1.6-1.6c0-0.6,0.4-1.2,1.1-1.3
			c0.8-0.2,1.4-0.5,2-0.9V5.5c0-1-0.4-1.4-1.2-1.4c-0.2,0-0.4,0.1-0.6,0.3c-0.2,0.2-0.3,0.5-0.3,0.9c-0.1,0.2-0.2,0.3-0.3,0.3
			c-0.3,0-0.5-0.2-0.5-0.5c0-0.2,0.1-0.3,0.4-0.5c0.5-0.4,1.2-0.8,1.8-0.9c1,0,1.7,0.8,1.7,1.6v2.7c0,0.6,0.2,0.8,0.4,0.8
			c0.2,0,0.3-0.1,0.4-0.1l0.1,0.3L291,9.3L291,9.3z M290.1,6.1l-1.2,0.5c-0.5,0.2-0.8,0.4-0.8,1s0.3,1,0.9,1c0.4,0,0.8-0.2,1.1-0.4
			L290.1,6.1L290.1,6.1z M299.7,9.2V8.9c0.8-0.1,0.9-0.1,0.9-1.1V5.7c0-1-0.3-1.5-1.1-1.5c-0.5,0-1.1,0.3-1.4,0.6v3
			c0,0.9,0.1,0.9,0.9,1v0.3h-2.8V8.8c0.8-0.1,1-0.1,1-1V5.6c0-1-0.3-1.5-1.1-1.5c-0.5,0.1-1.1,0.3-1.4,0.6v3c0,0.9,0.1,0.9,0.9,1V9
			h-2.8V8.7c0.9-0.1,1-0.1,1-1V5c0-0.9,0-0.9-0.8-1V3.8c0.6-0.1,1.2-0.2,1.8-0.5v1.1l1-0.6c0.3-0.2,0.6-0.3,1.1-0.3
			c0.6,0,1.2,0.4,1.4,1.1c0.3-0.3,0.6-0.5,1-0.8c0.3-0.2,0.6-0.3,1.1-0.3c1,0,1.6,0.8,1.6,2v2.5c0,0.9,0.1,0.9,0.9,1v0.3L299.7,9.2
			L299.7,9.2z M307.8,8.1c-0.5,0.8-1.3,1.2-2.1,1.3c-1.4,0-2.6-1.3-2.5-2.7V6.6c0-0.9,0.3-1.6,0.9-2.3c0.4-0.5,1.2-1,1.9-1
			c1.1,0,1.9,0.9,1.9,2c0,0.2,0,0.4-0.2,0.4c-0.2,0-1.9,0.1-3.4,0.2c0,1.7,1.1,2.5,1.9,2.5c0.5,0,1.1-0.2,1.5-0.6L307.8,8.1
			L307.8,8.1z M305.6,3.9c-0.5,0-1.2,0.5-1.4,1.6h2.1c0.2,0,0.3-0.1,0.3-0.2C306.7,4.6,306.3,4,305.6,3.9
			C305.7,3.9,305.7,3.9,305.6,3.9z M311.2,9.2c-0.2,0.1-0.3,0.1-0.5,0.2c-0.9,0-1.3-0.5-1.3-1.5V4.1h-0.9V4l0.3-0.4h0.5V2.5
			c0.2-0.2,0.6-0.5,0.9-0.9h0.2v1.9h1.5c0.1,0.2,0.1,0.4-0.1,0.5h-1.4v3.3c0,1.1,0.4,1.2,0.8,1.2c0.3,0,0.5-0.1,0.8-0.2l0.1,0.3
			L311.2,9.2L311.2,9.2z M313.1,10.4c0.5-0.2,1.1-0.6,1.1-1.1c0-0.4-0.4-0.5-0.9-0.6c-0.1,0-0.2-0.1-0.2-0.4c0-0.3,0.3-0.6,0.6-0.6
			h0.1c0.6,0.1,1.2,0.6,1.1,1.4c-0.1,1-0.8,1.7-1.6,1.8L313.1,10.4z M323.4,9.3c-0.2,0-0.4-0.1-0.6-0.2c-0.1-0.2-0.2-0.3-0.3-0.5
			c-0.4,0.4-1,0.6-1.5,0.9c-0.9,0-1.6-0.8-1.6-1.6c0-0.6,0.4-1.2,1.1-1.3c0.8-0.2,1.4-0.5,2-0.9V5.5c0-1-0.4-1.4-1.2-1.4
			c-0.2,0-0.4,0.1-0.6,0.3c-0.2,0.2-0.3,0.5-0.3,0.9c0,0.2-0.2,0.3-0.4,0.3c-0.3,0-0.5-0.2-0.5-0.5c0-0.2,0.2-0.3,0.4-0.5
			c0.5-0.4,1.2-0.8,1.8-0.9c1,0,1.7,0.8,1.7,1.6v2.7c0,0.6,0.2,0.8,0.4,0.8c0.2,0,0.3-0.1,0.4-0.1l0.1,0.3L323.4,9.3L323.4,9.3z
			 M322.4,6.1l-1.2,0.5c-0.5,0.2-0.8,0.4-0.8,1s0.3,1,0.9,1h0.1c0.4,0,0.8-0.2,1.1-0.4L322.4,6.1L322.4,6.1z M328.6,9.2V8.9
			c0.8-0.1,0.9-0.2,0.9-1.1V5.7c0-0.9-0.3-1.5-1.2-1.5c-0.5,0-1.1,0.3-1.4,0.6v3c0,0.9,0.1,1,0.9,1v0.3H325V8.8c0.9-0.1,1-0.1,1-1
			V5.3c0-0.9-0.1-0.9-0.8-1V4c0.6-0.1,1.2-0.3,1.8-0.5v1.1l0.9-0.6c0.3-0.2,0.6-0.3,1.1-0.4c1.1,0,1.7,0.8,1.7,2v2.5
			c0,0.9,0.1,1,0.9,1v0.3H328.6L328.6,9.2z M338.3,8.9c-0.6,0.1-1.4,0.3-2,0.5V8.6L335.5,9c-0.3,0.2-0.6,0.3-1.1,0.4
			C333,9.3,331.9,8,332,6.6c0-1.8,1.5-3.2,3.3-3.1c0.3,0,0.6,0,0.9,0.1V1.7c0-0.9-0.1-0.9-1-1V0.4c0.6-0.1,1.4-0.2,2-0.4v7.7
			c0,0.6,0.1,0.8,0.5,0.8h0.4L338.3,8.9L338.3,8.9z M336.3,4.6C336,4.2,335.5,4,334.9,4c-0.6,0-1.7,0.4-1.7,2.3c0,1.6,1,2.4,1.8,2.4
			c0.4,0,0.9-0.2,1.3-0.4L336.3,4.6L336.3,4.6z M172.3,23.6c-0.5,0.8-1.3,1.2-2.3,1.3c-1.4,0-2.6-1.2-2.6-2.6v-0.1
			c0-1,0.4-1.9,1.3-2.6c0.5-0.4,1.3-0.8,1.9-0.8c0.4,0,0.9,0.1,1.2,0.3c0.1,0.1,0.2,0.2,0.2,0.4c0,0.3-0.2,0.5-0.4,0.5
			c-0.1,0-0.1,0-0.2-0.1c-0.3-0.3-0.9-0.5-1.3-0.5c-0.9,0-1.6,0.8-1.6,2c-0.1,1.2,0.8,2.3,1.9,2.4h0.1c0.6,0,1.2-0.2,1.6-0.8
			L172.3,23.6L172.3,23.6z M175.8,18.9c1.5,0,2.8,1.2,2.8,2.7v0.1c0.1,1.6-1.1,3-2.7,3.1h-0.1c-1.6,0-2.8-1.2-2.9-2.8v-0.1
			C172.9,20.3,174.1,19,175.8,18.9z M175.6,19.3c-0.8,0-1.5,0.8-1.5,2.3s0.8,2.8,1.8,2.8c0.8,0,1.5-0.5,1.5-2.4
			C177.4,20.5,176.8,19.3,175.6,19.3z M183.1,24.7v-0.3c0.8-0.1,0.9-0.2,0.9-1.1v-2.1c0-0.9-0.3-1.5-1.2-1.5c-0.5,0-1.1,0.3-1.4,0.6
			v3c0,0.9,0.1,1,0.9,1v0.4h-2.8v-0.3c0.9-0.1,1-0.1,1-1v-2.6c0-0.9-0.1-0.9-0.8-1v-0.3c0.6-0.1,1.2-0.2,1.8-0.5V20l0.9-0.6
			c0.3-0.2,0.6-0.3,1.1-0.4c1.1,0,1.7,0.8,1.7,2v2.5c0,0.9,0.1,1,0.9,1v0.2L183.1,24.7L183.1,24.7z M189.8,20.6
			c-0.2-0.8-0.5-1.3-1.4-1.3c-0.4,0-0.8,0.3-0.8,0.8v0.1c0,0.5,0.4,0.9,1.1,1.2c1.1,0.5,1.6,1,1.6,1.7c-0.1,1.1-1,1.8-2,1.8h-0.1
			c-0.5,0-1.1-0.1-1.5-0.3c-0.1-0.4-0.2-1.1-0.2-1.5l0.3-0.1c0.2,0.9,0.6,1.5,1.6,1.5c0.4,0,0.9-0.3,0.9-0.9v-0.1
			c0-0.5-0.3-0.9-1.1-1.2c-0.9-0.4-1.6-0.9-1.6-1.8c0.1-1,1-1.7,1.9-1.7h0.1c0.4,0,0.9,0.1,1.2,0.2c0,0.3,0.1,1.1,0.2,1.4
			L189.8,20.6L189.8,20.6z M196,23.6c-0.5,0.8-1.3,1.2-2.1,1.3c-1.4,0-2.6-1.2-2.6-2.6v-0.1c0-0.9,0.3-1.6,0.9-2.3
			c0.4-0.5,1.2-0.9,1.9-1c1.1,0,1.9,0.9,1.9,2c0,0.2-0.1,0.4-0.2,0.4s-1.9,0.1-3.4,0.2c0,1.7,1.1,2.5,1.9,2.5c0.5,0,1.1-0.2,1.5-0.6
			L196,23.6L196,23.6z M193.8,19.3c-0.6,0-1.2,0.5-1.4,1.6h2.3c0.2,0,0.3-0.1,0.3-0.2c0.1-0.6-0.4-1.3-1.1-1.3
			C193.9,19.3,193.8,19.3,193.8,19.3L193.8,19.3z M201.8,23.6c-0.5,0.8-1.3,1.2-2.3,1.3c-1.4,0-2.6-1.2-2.6-2.6v-0.1
			c0-1,0.4-1.9,1.3-2.6c0.5-0.4,1.3-0.8,1.9-0.8c0.4,0,0.9,0.1,1.2,0.3c0.1,0.1,0.2,0.2,0.2,0.4c0,0.3-0.2,0.5-0.4,0.5
			c-0.1,0-0.1,0-0.2-0.1c-0.3-0.3-0.9-0.5-1.3-0.5c-0.9,0-1.6,0.8-1.6,2c-0.1,1.2,0.8,2.3,1.9,2.4h0.1c0.6,0,1.2-0.2,1.6-0.8
			L201.8,23.6L201.8,23.6z M205.2,24.7c-0.2,0.1-0.3,0.1-0.5,0.2c-0.9,0-1.3-0.5-1.3-1.5v-3.8h-1l-0.1-0.1l0.3-0.4h0.6V18
			c0.2-0.2,0.6-0.5,0.9-0.9h0.2v1.9h1.5c0.1,0.2,0.1,0.4-0.1,0.5h-1.4v3.3c0,1.1,0.4,1.2,0.8,1.2s0.5-0.1,0.8-0.2l0.1,0.3
			L205.2,24.7z M211,23.6c-0.5,0.8-1.3,1.2-2.1,1.3c-1.4,0-2.6-1.2-2.6-2.6v-0.1c0-0.9,0.3-1.6,0.9-2.3c0.4-0.5,1.2-1,1.9-1
			c1.1,0,1.9,0.9,1.9,2c0,0.2,0,0.4-0.2,0.4c-0.2,0-1.9,0.1-3.4,0.2c0,1.7,1.1,2.5,1.9,2.5c0.5,0,1.1-0.2,1.5-0.6L211,23.6L211,23.6
			z M208.8,19.3c-0.6,0-1.2,0.5-1.4,1.6h2.3c0.2,0,0.3-0.1,0.3-0.2c0.1-0.6-0.4-1.3-1.1-1.3C209,19.3,208.8,19.3,208.8,19.3
			L208.8,19.3z M214.4,24.7c-0.2,0.1-0.3,0.1-0.5,0.2c-0.9,0-1.3-0.5-1.3-1.5v-3.8h-0.9v-0.1l0.3-0.4h0.6V18
			c0.2-0.2,0.6-0.5,0.9-0.9h0.2v1.9h1.5c0.1,0.2,0.1,0.4-0.1,0.5h-1.4v3.3c0,1.1,0.4,1.2,0.8,1.2s0.5-0.1,0.8-0.2l0.1,0.3
			L214.4,24.7z M221.9,24.3c-0.6,0.1-1.3,0.2-1.9,0.4v-1c-0.5,0.5-1.2,0.9-1.9,1c-0.9,0-1.6-0.5-1.6-1.9v-2.5c0-0.6-0.1-0.8-0.4-0.9
			l-0.3-0.1v-0.3c0.6,0,1.3-0.1,1.8-0.2v3.6c0,1.1,0.6,1.5,1.2,1.5s1.1-0.2,1.4-0.6v-3c0-0.6-0.1-0.8-0.6-0.9H219v-0.3
			c0.6,0,1.4-0.1,2-0.2v4.3c0,0.6,0.1,0.8,0.6,0.8h0.3L221.9,24.3L221.9,24.3z M227.2,23.6c-0.5,0.8-1.3,1.2-2.1,1.3
			c-1.4,0-2.6-1.2-2.6-2.6v-0.2c0-0.9,0.3-1.6,0.9-2.3c0.4-0.5,1.2-0.9,1.9-1c1.1,0,1.9,0.9,1.9,2c0,0.2,0,0.4-0.2,0.4
			s-1.9,0.1-3.4,0.2c0,1.7,1,2.5,1.9,2.5c0.5,0,1.1-0.2,1.5-0.6L227.2,23.6L227.2,23.6z M225,19.3c-0.6,0-1.2,0.5-1.4,1.6h2.3
			c0.2,0,0.3-0.1,0.3-0.2c0.1-0.6-0.4-1.3-1.1-1.3C225.1,19.3,225,19.3,225,19.3L225,19.3z M231,24.7h-3v-0.3c0.9-0.1,0.9-0.1,0.9-1
			v-2.7c0-0.9-0.1-0.9-0.8-1v-0.3c0.6-0.1,1.2-0.3,1.8-0.5v1.4c0.4-0.6,1-1.4,1.6-1.4c0.3,0,0.8,0.2,0.8,0.6c0,0.3-0.2,0.5-0.4,0.8
			c-0.1,0.1-0.2,0.1-0.3,0c-0.1-0.2-0.3-0.3-0.5-0.3c-0.3,0-0.8,0.4-1.1,1.1v2.4c0,0.9,0.1,1,1.1,1V24.7L231,24.7z M236.6,24.7v-0.3
			l0.9-0.1c0.5,0,0.6-0.1,0.6-0.9v-2.9c0-0.6-0.1-0.8-0.5-0.8h-0.8v-0.3c0.8-0.1,1.6-0.3,2.4-0.5v4.6c0,0.6,0.1,0.8,0.6,0.9l0.8,0.1
			v0.3h-4L236.6,24.7z M247.4,19.2c-0.6,1.1-2.3,4.2-3.9,7.4l-1,0.2l-0.1-0.2c1.4-2.1,2.8-4.4,4-6.6h-4v-1h4.9V19.2z M253.8,19.2
			c-0.6,1.1-2.3,4.2-3.9,7.4l-1,0.2l-0.1-0.2c1.4-2.1,2.8-4.4,4-6.6h-4v-1h4.9V19.2z M259.9,17.3c-1.7,0.3-3,1.5-3.6,3.1L257,20
			c0.3-0.1,0.5-0.2,0.9-0.2c1.2,0,2.1,1,2.1,2.1v0.2c0,1.5-1.1,2.7-2.6,2.7h-0.1c-1.3,0-2.6-1.1-2.6-3.1c0.1-2,1.4-3.8,3.3-4.5
			c0.5-0.2,1.1-0.3,1.6-0.4L259.9,17.3L259.9,17.3z M257.1,20.5c-0.3,0-0.8,0.1-1.1,0.3c-0.1,0.3-0.1,0.6-0.1,1
			c0,1.7,0.8,2.7,1.6,2.7c0.6,0,1.3-0.4,1.3-1.7C258.9,21.7,258.6,20.5,257.1,20.5L257.1,20.5z M268.7,23.6
			c-0.5,0.8-1.3,1.2-2.1,1.3c-1.4,0-2.6-1.2-2.6-2.6v-0.1c0-0.9,0.3-1.6,0.9-2.3c0.4-0.5,1.2-1,1.9-1c1.1,0,1.9,0.9,1.9,2
			c0,0.2-0.1,0.4-0.2,0.4c-0.1,0-1.9,0.1-3.4,0.2c0,1.7,1.1,2.5,1.9,2.5c0.5,0,1.1-0.2,1.5-0.6L268.7,23.6L268.7,23.6z M266.4,19.3
			c-0.6,0-1.2,0.5-1.4,1.6h2.3c0.2,0,0.3-0.1,0.3-0.2c0.1-0.6-0.4-1.3-1.1-1.3C266.5,19.3,266.5,19.3,266.4,19.3L266.4,19.3z
			 M269.3,24.7v-0.3c0.9-0.1,1-0.1,1-1v-6.1c0-0.8-0.1-0.9-0.9-1v-0.4c0.6-0.1,1.3-0.2,1.9-0.4v7.9c0,0.9,0.1,1,1,1v0.3H269.3
			L269.3,24.7z M272.9,24.7v-0.3c0.9-0.1,0.9-0.1,0.9-1.1v-2.7c0-0.8,0-0.9-0.9-1v-0.3c0.6-0.1,1.3-0.3,1.8-0.5v4.4
			c0,0.9,0.1,1,1,1.1v0.3L272.9,24.7L272.9,24.7z M274.1,17.6c-0.3,0-0.6-0.3-0.6-0.6c0-0.4,0.3-0.6,0.6-0.8c0.3,0,0.6,0.3,0.6,0.6
			C274.9,17.3,274.6,17.6,274.1,17.6C274.2,17.6,274.1,17.6,274.1,17.6z M278.8,24.7c-0.2,0.1-0.3,0.1-0.5,0.2
			c-0.9,0-1.3-0.5-1.3-1.5v-3.8h-0.9v-0.1l0.3-0.4h0.5V18c0.2-0.2,0.6-0.5,0.9-0.9h0.2v1.9h1.5c0.1,0.2,0.1,0.4-0.1,0.5H278v3.3
			c0,1.1,0.4,1.2,0.8,1.2c0.3,0,0.5-0.1,0.8-0.2l0.1,0.3L278.8,24.7L278.8,24.7z M280.6,25.8c0.5-0.2,1.1-0.6,1.1-1.1
			s-0.4-0.5-0.9-0.6c-0.1,0-0.2-0.1-0.2-0.4s0.3-0.6,0.6-0.6h0.1c0.6,0.1,1.2,0.6,1.1,1.4c-0.1,1-0.8,1.7-1.6,1.8L280.6,25.8z
			 M290.1,20.5c-0.2-0.8-0.5-1.3-1.4-1.3c-0.4,0-0.8,0.3-0.8,0.8V20c0,0.5,0.3,0.9,1.1,1.2c1.1,0.5,1.6,1,1.6,1.7
			c-0.1,1.1-1,1.8-2,1.8h-0.1c-0.5,0-1.1-0.1-1.5-0.3c-0.1-0.4-0.2-1.1-0.2-1.5l0.3-0.1c0.2,0.9,0.6,1.5,1.6,1.5
			c0.4,0,0.9-0.3,0.9-0.9v-0.1c0-0.5-0.3-0.9-1.1-1.2c-0.9-0.4-1.6-0.9-1.6-1.8c0.1-1,1-1.7,1.9-1.7h0.1c0.4,0,0.9,0.1,1.2,0.2
			c0,0.3,0.1,1.1,0.2,1.4L290.1,20.5L290.1,20.5z M296.3,23.6c-0.5,0.8-1.3,1.2-2.1,1.3c-1.4,0-2.6-1.2-2.6-2.6v-0.1
			c0-0.9,0.3-1.6,0.9-2.3c0.4-0.5,1.2-0.9,1.9-1c1.1,0,1.9,0.9,1.9,2c0,0.2,0,0.4-0.2,0.4c-0.2,0-1.9,0.1-3.4,0.2
			c0,1.7,1.1,2.5,1.9,2.5c0.5,0,1.1-0.2,1.5-0.6L296.3,23.6L296.3,23.6z M294.1,19.3c-0.5,0-1.2,0.5-1.4,1.6h2.1
			c0.2,0,0.3-0.1,0.3-0.2C295.3,20,294.8,19.4,294.1,19.3z M303.5,24.3c-0.6,0.1-1.4,0.2-2,0.5V24l-0.9,0.4c-0.3,0.2-0.6,0.3-1,0.4
			c-1.4-0.1-2.5-1.4-2.4-2.8c0-1.8,1.5-3.2,3.3-3.1c0.3,0,0.6,0,0.9,0.1v-1.9c0-0.9-0.1-0.9-1-1v-0.3c0.6-0.1,1.4-0.2,2-0.4v7.7
			c0,0.6,0.1,0.8,0.5,0.8h0.4V24.3L303.5,24.3z M301.5,20c-0.3-0.4-0.9-0.6-1.4-0.6c-0.6,0-1.7,0.4-1.7,2.3c0,1.6,1,2.4,1.8,2.4
			c0.4,0,0.9-0.2,1.3-0.4L301.5,20L301.5,20z M313.4,24.3c-0.6,0.1-1.4,0.3-2,0.5V24l-0.8,0.4c-0.3,0.2-0.6,0.3-1.1,0.4
			c-1.4-0.1-2.5-1.4-2.4-2.8c0-1.8,1.5-3.2,3.3-3.1c0.3,0,0.6,0,0.9,0.1v-1.9c0-0.9-0.1-0.9-1-1v-0.3c0.6-0.1,1.4-0.2,2-0.4v7.7
			c0,0.6,0.1,0.8,0.5,0.8h0.4L313.4,24.3L313.4,24.3z M311.3,20c-0.3-0.4-0.9-0.6-1.4-0.6c-0.6,0-1.7,0.4-1.7,2.3
			c0,1.6,1,2.4,1.8,2.4c0.4,0,0.9-0.2,1.3-0.4L311.3,20L311.3,20z M314,24.7v-0.3c0.9-0.1,0.9-0.1,0.9-1.1v-2.7c0-0.8,0-0.9-0.9-1
			v-0.3c0.6-0.1,1.3-0.3,1.8-0.5v4.4c0,0.9,0.1,1,1,1.1v0.3L314,24.7L314,24.7z M315.3,17.5c-0.3,0-0.6-0.3-0.6-0.6
			c0-0.4,0.3-0.6,0.6-0.8c0.3,0,0.6,0.3,0.6,0.6C316.1,17.3,315.7,17.6,315.3,17.5C315.3,17.6,315.3,17.6,315.3,17.5z M321.5,24.8
			c-0.2,0-0.4-0.1-0.6-0.2c-0.1-0.2-0.2-0.3-0.3-0.5c-0.4,0.4-1,0.6-1.5,0.9c-0.9,0-1.6-0.8-1.6-1.6c0-0.6,0.4-1.2,1.1-1.3
			c0.8-0.2,1.4-0.5,2-0.9v-0.2c0-1-0.4-1.4-1.2-1.4c-0.2,0-0.4,0.1-0.6,0.3c-0.2,0.2-0.3,0.5-0.3,0.9c-0.1,0.2-0.2,0.3-0.3,0.3
			c-0.3,0-0.5-0.2-0.5-0.5c0-0.2,0.1-0.3,0.4-0.5c0.5-0.4,1.2-0.8,1.8-0.9c1,0,1.7,0.8,1.7,1.6v2.7c0,0.6,0.2,0.8,0.4,0.8
			c0.2,0,0.3-0.1,0.4-0.1l0.1,0.3L321.5,24.8L321.5,24.8z M320.6,21.5l-1.2,0.5c-0.5,0.2-0.8,0.4-0.8,1s0.3,1,0.9,1
			c0.4,0,0.8-0.2,1.1-0.4L320.6,21.5L320.6,21.5z M330.2,24.7v-0.3c0.8-0.1,0.9-0.1,0.9-1.1v-2.1c0-1-0.3-1.5-1.1-1.5
			c-0.5,0.1-1.1,0.3-1.4,0.6v3c0,0.9,0.1,0.9,0.9,1v0.4h-2.8v-0.3c0.8-0.1,1-0.1,1-1v-2.3c0-1-0.3-1.5-1.1-1.5
			c-0.5,0.1-1.1,0.3-1.4,0.6v3c0,0.9,0.1,0.9,0.9,1v0.3h-2.8v-0.3c0.9-0.1,1-0.1,1-1v-2.7c0-0.9,0-0.9-0.8-1v-0.3
			c0.6-0.1,1.2-0.2,1.8-0.5v1.1l1-0.6c0.3-0.2,0.6-0.3,1.1-0.3c0.6,0,1.2,0.4,1.4,1.1c0.3-0.2,0.6-0.5,1-0.8
			c0.3-0.2,0.6-0.3,1.1-0.3c1,0,1.6,0.8,1.6,2v2.5c0,0.9,0.1,0.9,0.9,1v0.3H330.2L330.2,24.7z M171.1,40.1v-0.3
			c0.8-0.1,0.9-0.2,0.9-1.1v-2.1c0-0.9-0.3-1.5-1.2-1.5c-0.5,0-1.1,0.3-1.4,0.6v3c0,0.9,0.1,1,0.9,1V40h-2.8v-0.3c0.9-0.1,1-0.1,1-1
			v-2.6c0-0.9-0.1-0.9-0.8-1v-0.3c0.6-0.1,1.2-0.3,1.8-0.5v1.1l0.9-0.6c0.3-0.2,0.6-0.3,1.1-0.4c1.1,0,1.7,0.8,1.7,2v2.5
			c0,0.9,0.1,1,0.9,1v0.3H171.1z M177.3,34.3c1.5,0,2.8,1.2,2.8,2.7v0.2c0.1,1.6-1.1,3-2.7,3.1h-0.1c-1.6,0-2.8-1.3-2.8-2.8
			C174.4,35.7,175.7,34.3,177.3,34.3z M177.2,34.7c-0.8,0-1.5,0.8-1.5,2.3s0.8,2.8,1.7,2.8c0.8,0,1.5-0.5,1.5-2.4
			C178.9,35.9,178.3,34.7,177.2,34.7z M184.7,40.1v-0.3c0.8-0.1,0.9-0.2,0.9-1.1v-2.1c0-0.9-0.3-1.5-1.2-1.5c-0.5,0-1.1,0.3-1.4,0.6
			v3c0,0.9,0.1,1,0.9,1V40H181v-0.3c0.9-0.1,1-0.1,1-1v-2.6c0-0.9-0.1-0.9-0.8-1v-0.3c0.6-0.1,1.2-0.2,1.8-0.5v1.1l0.9-0.6
			c0.3-0.2,0.6-0.3,1.1-0.4c1.1,0,1.7,0.8,1.7,2v2.5c0,0.9,0.1,1,0.9,1v0.3H184.7L184.7,40.1z M194.3,39.8c-0.6,0.1-1.3,0.2-1.9,0.4
			v-1c-0.5,0.5-1.2,0.9-1.9,1c-0.9,0-1.6-0.5-1.6-1.9v-2.5c0-0.6-0.1-0.8-0.4-0.9l-0.3-0.1v-0.3c0.5,0,1.4-0.1,1.8-0.2V38
			c0,1.1,0.6,1.5,1.2,1.5s1.1-0.2,1.4-0.6v-3c0-0.6-0.1-0.8-0.6-0.9h-0.4v-0.3c0.6,0,1.4-0.1,2-0.2v4.3c0,0.6,0.1,0.8,0.6,0.8h0.3
			L194.3,39.8L194.3,39.8z M202,40.1v-0.3c0.8-0.1,0.9-0.1,0.9-1.1v-2.1c0-1-0.3-1.5-1.1-1.5c-0.5,0-1.1,0.3-1.4,0.6v3
			c0,0.9,0.1,0.9,0.9,1V40h-2.8v-0.3c0.8-0.1,1-0.1,1-1v-2.3c0-1-0.3-1.5-1.1-1.5c-0.5,0.1-1.1,0.3-1.4,0.6v3c0,0.9,0.1,0.9,0.9,1
			v0.3h-2.9v-0.3c0.9-0.1,1-0.1,1-1v-2.7c0-0.9-0.1-0.9-0.8-1v-0.3c0.6-0.1,1.2-0.2,1.8-0.5v1.1l1-0.6c0.3-0.2,0.6-0.3,1.1-0.3
			c0.6,0,1.2,0.4,1.4,1.1c0.3-0.3,0.6-0.5,1-0.8c0.3-0.2,0.6-0.3,1-0.3c1,0,1.6,0.8,1.6,2v2.5c0,0.9,0.1,0.9,0.9,1V40L202,40.1
			L202,40.1z M212.5,40.1v-0.3c0.8-0.1,0.9-0.1,0.9-1.1v-2.1c0-1-0.3-1.5-1.1-1.5c-0.5,0-1.1,0.3-1.4,0.6v3c0,0.9,0.1,0.9,0.9,1V40
			h-2.9v-0.3c0.9-0.1,1-0.1,1-1v-2.3c0-1-0.3-1.5-1.1-1.5c-0.5,0.1-1.1,0.3-1.4,0.6v3c0,0.9,0.1,0.9,0.9,1v0.3h-2.8v-0.3
			c0.9-0.1,1-0.1,1-1v-2.7c0-0.9,0-0.9-0.8-1v-0.3c0.6-0.1,1.2-0.2,1.8-0.5v1.1l1-0.6c0.3-0.2,0.6-0.3,1-0.3c0.6,0,1.2,0.4,1.4,1.1
			c0.3-0.3,0.6-0.5,1-0.8c0.3-0.2,0.6-0.3,1-0.3c1,0,1.6,0.8,1.6,2v2.5c0,0.9,0.1,0.9,0.9,1V40L212.5,40.1L212.5,40.1z M221.3,34.7
			c-0.6,0.1-0.9,0.2-1.1,1c-0.2,0.8-0.6,1.6-1.6,3.9c-0.5,1.2-0.9,2.4-1.3,3.5c-0.1,0.2-0.2,0.3-0.4,0.3c-0.4,0-0.8-0.2-0.8-0.6
			c0-0.1,0.1-0.3,0.3-0.4c0.3-0.2,0.6-0.5,0.9-1c0.2-0.5,0.4-1,0.5-1.2c0.1-0.2,0.1-0.3,0-0.5c-0.5-1.5-1.2-3-1.6-4
			c-0.3-0.8-0.4-0.9-1.1-1v-0.3h2.6v0.3c-0.6,0.1-0.6,0.2-0.5,0.6l1.3,3.2c0.3-0.9,0.9-2.4,1.2-3.1c0.1-0.5,0.1-0.6-0.6-0.8v-0.3
			h2.4L221.3,34.7L221.3,34.7z M228.1,40.1v-0.3c0.8-0.1,0.9-0.2,0.9-1.1v-2.1c0-0.9-0.3-1.5-1.2-1.5c-0.5,0-1.1,0.3-1.4,0.6v3
			c0,0.9,0.1,1,0.9,1V40h-2.8v-0.3c0.9-0.1,1-0.1,1-1v-2.6c0-0.9-0.1-0.9-0.8-1v-0.3c0.6-0.1,1.2-0.3,1.8-0.5v1.1l0.9-0.6
			c0.3-0.2,0.6-0.3,1.1-0.4c1.1,0,1.7,0.8,1.7,2v2.5c0,0.9,0.1,1,0.9,1v0.3H228.1L228.1,40.1z M231.6,40.1v-0.3
			c0.9-0.1,0.9-0.1,0.9-1.1V36c0-0.8,0-0.9-0.9-1v-0.3c0.6-0.1,1.3-0.2,1.8-0.4v4.4c0,0.9,0.1,1,1,1.1v0.3L231.6,40.1L231.6,40.1z
			 M232.9,33c-0.3,0-0.6-0.3-0.6-0.6c0-0.4,0.3-0.6,0.6-0.8c0.3,0,0.6,0.3,0.6,0.6C233.6,32.7,233.3,33,232.9,33z M237.7,34.4
			c0.2-0.1,0.3-0.1,0.5-0.1c1.5,0.1,2.6,1.3,2.6,2.7c0,1.8-1.4,3.2-3.2,3.2c-0.6,0-1.4-0.2-2-0.4v-7.2c0-0.8,0-0.9-0.9-1v-0.3
			c0.6-0.1,1.3-0.2,1.9-0.4V35L237.7,34.4z M236.6,38.6c0,0.1,0,0.3,0.1,0.4c0.3,0.4,0.8,0.8,1.3,0.6c1.1,0,1.7-1,1.7-2.4
			c0.1-1.2-0.6-2.1-1.8-2.4h-0.1c-0.3,0-0.8,0.1-1.1,0.2L236.6,38.6z M245.3,40.1v-0.3c0.8-0.1,0.9-0.1,0.9-1v-2.1
			c0-1.1-0.4-1.6-1.3-1.6c-0.5,0-1.1,0.2-1.4,0.6v3c0,0.9,0.1,1,0.9,1V40h-2.8v-0.3c0.8-0.1,1-0.1,1-1v-6.2c0-0.6,0-0.9-0.9-1v-0.3
			c0.6-0.1,1.3-0.2,1.9-0.4v4.4c0.5-0.5,1.2-0.9,1.8-1c1.1,0,1.8,0.6,1.8,2.1v2.3c0,0.9,0.1,1,0.9,1v0.3L245.3,40.1L245.3,40.1z
			 M256.5,39c-0.5,0.8-1.3,1.2-2.1,1.3c-1.4,0-2.6-1.2-2.6-2.6v-0.1c0-0.9,0.3-1.6,0.9-2.3c0.4-0.5,1.2-1,1.9-1c1.1,0,1.9,0.9,1.9,2
			c0,0.2-0.1,0.4-0.2,0.4c-0.1,0-1.9,0.1-3.4,0.2c0,1.7,1,2.5,1.9,2.5c0.5,0,1.1-0.2,1.5-0.6L256.5,39L256.5,39z M254.2,34.7
			c-0.6,0-1.2,0.5-1.4,1.6h2.1c0.2,0,0.3-0.1,0.3-0.2C255.4,35.5,254.9,34.8,254.2,34.7C254.3,34.7,254.3,34.7,254.2,34.7z
			 M263.6,39.8c-0.6,0.1-1.3,0.2-1.9,0.4v-1c-0.5,0.5-1.2,0.9-1.9,1c-0.9,0-1.6-0.5-1.6-1.9v-2.5c0-0.6-0.1-0.8-0.4-0.9l-0.3-0.1
			v-0.3c0.5,0,1.4-0.1,1.8-0.2V38c0,1.1,0.6,1.5,1.2,1.5c0.5,0,1.1-0.2,1.4-0.6v-3c0-0.6-0.1-0.8-0.6-0.9h-0.4v-0.3
			c0.6,0,1.4-0.1,2-0.2v4.3c0,0.6,0.1,0.8,0.6,0.8h0.3L263.6,39.8L263.6,39.8z M264.3,40.1v-0.3c0.9-0.1,0.9-0.1,0.9-1.1V36
			c0-0.8,0-0.9-0.9-1v-0.3c0.6-0.1,1.3-0.3,1.8-0.5v4.4c0,0.9,0.1,1,1,1.1V40L264.3,40.1L264.3,40.1z M265.6,33
			c-0.3,0-0.6-0.3-0.6-0.6c0-0.4,0.3-0.6,0.6-0.8c0.3,0,0.6,0.3,0.6,0.6C266.2,32.7,266,33,265.6,33z M271,36
			c-0.2-0.8-0.5-1.3-1.4-1.3c-0.4,0-0.8,0.3-0.9,0.8v0.1c0,0.5,0.4,0.9,1.1,1.2c1.1,0.5,1.7,1,1.7,1.7c-0.1,1.1-1,1.8-2,1.8h-0.1
			c-0.5,0-1.1-0.1-1.5-0.3c-0.1-0.4-0.2-1.1-0.2-1.5l0.4-0.1c0.2,0.9,0.6,1.5,1.6,1.5c0.4,0,0.9-0.3,0.9-0.9v-0.1
			c0-0.5-0.3-0.9-1.1-1.2c-0.9-0.4-1.6-0.9-1.6-1.8c0-1,0.9-1.7,1.8-1.7h0.2c0.4,0,0.9,0.1,1.2,0.2c0,0.3,0.1,1.1,0.2,1.4L271,36
			L271,36z M279.5,40.1v-0.3c0.8-0.1,0.9-0.1,0.9-1.1v-2.1c0-1-0.3-1.5-1.1-1.5c-0.5,0-1.1,0.3-1.4,0.6v3c0,0.9,0.1,0.9,0.9,1V40
			H276v-0.3c0.9-0.1,1-0.1,1-1v-2.3c0-1-0.3-1.5-1.1-1.5c-0.5,0.1-1.1,0.3-1.4,0.6v3c0,0.9,0.1,0.9,0.9,1v0.3h-2.8v-0.3
			c0.9-0.1,1-0.1,1-1v-2.7c0-0.9,0-0.9-0.8-1v-0.3c0.6-0.1,1.2-0.2,1.8-0.5v1.1l1-0.6c0.3-0.2,0.6-0.3,1.1-0.3
			c0.6,0,1.2,0.4,1.4,1.1c0.3-0.3,0.6-0.5,1.1-0.8c0.3-0.2,0.6-0.3,1-0.3c1,0,1.6,0.8,1.6,2v2.5c0,0.9,0.1,0.9,0.9,1V40L279.5,40.1
			L279.5,40.1z M285.8,34.3c1.5,0,2.8,1.2,2.8,2.7v0.2c0.1,1.6-1.1,3-2.7,3.1h-0.1c-1.6,0-2.8-1.3-2.9-2.8v-0.1
			C282.9,35.7,284.1,34.3,285.8,34.3z M285.7,34.7c-0.8,0-1.5,0.8-1.5,2.3s0.8,2.8,1.8,2.8c0.8,0,1.5-0.5,1.5-2.4
			C287.4,35.9,286.8,34.7,285.7,34.7z M295.9,39.8c-0.6,0.1-1.4,0.3-2,0.5v-0.9l-0.8,0.4c-0.3,0.2-0.6,0.3-1.1,0.4
			c-1.4-0.1-2.5-1.4-2.4-2.8c0-1.8,1.5-3.2,3.3-3.1c0.3,0,0.6,0,0.9,0.1v-1.9c0-0.9-0.1-0.9-1-1v-0.3c0.6-0.1,1.4-0.2,2-0.4v7.7
			c0,0.6,0.1,0.8,0.5,0.8h0.4L295.9,39.8L295.9,39.8z M293.9,35.5c-0.3-0.4-0.9-0.6-1.4-0.6c-0.6,0-1.7,0.4-1.7,2.3
			c0,1.6,1,2.4,1.8,2.4c0.4,0,0.9-0.2,1.3-0.4L293.9,35.5L293.9,35.5z M302,40.1c-0.2,0.1-0.3,0.1-0.5,0.2c-0.9,0-1.3-0.5-1.3-1.5
			v-3.8h-0.9V35l0.3-0.4h0.5v-1.1c0.2-0.2,0.6-0.5,0.9-0.9h0.2v1.9h1.5c0.1,0.2,0.1,0.4-0.1,0.5h-1.4v3.3c0,1.1,0.4,1.2,0.8,1.2
			c0.3,0,0.5-0.1,0.8-0.2l0.1,0.3L302,40.1L302,40.1z M303.4,40.1v-0.3c0.9-0.1,0.9-0.1,0.9-1.1V36c0-0.8,0-0.9-0.9-1v-0.3
			c0.6-0.1,1.3-0.2,1.8-0.4v4.4c0,0.9,0.1,1,1,1.1v0.3L303.4,40.1L303.4,40.1z M304.7,33c-0.3,0-0.6-0.3-0.6-0.6
			c0-0.4,0.3-0.6,0.6-0.8c0.3,0,0.6,0.3,0.6,0.6C305.3,32.7,305.1,33,304.7,33z M310.6,40.1v-0.3c0.8-0.1,0.9-0.2,0.9-1.1v-2.1
			c0-0.9-0.3-1.5-1.2-1.5c-0.5,0-1.1,0.3-1.4,0.6v3c0,0.9,0.1,1,0.9,1V40h-2.8v-0.3c0.9-0.1,1-0.1,1-1v-2.6c0-0.9-0.1-0.9-0.8-1
			v-0.3c0.6-0.1,1.2-0.2,1.8-0.5v1.1l0.9-0.6c0.3-0.2,0.6-0.3,1.1-0.4c1.1,0,1.7,0.8,1.7,2v2.5c0,0.9,0.1,1,0.9,1v0.3H310.6
			L310.6,40.1z M318.8,38.9c-0.5,0.8-1.3,1.2-2.1,1.3c-1.4,0-2.6-1.2-2.6-2.6v-0.1c0-1,0.4-1.9,1.3-2.6c0.5-0.4,1.3-0.8,1.9-0.8
			c0.4,0,0.9,0.1,1.2,0.3c0.1,0.1,0.2,0.2,0.2,0.3c0,0.3-0.2,0.5-0.4,0.5c-0.1,0-0.1,0-0.2-0.1c-0.3-0.3-0.9-0.5-1.3-0.5
			c-0.9,0-1.6,0.8-1.6,2c-0.1,1.2,0.8,2.3,1.9,2.4h0.1c0.6,0,1.2-0.2,1.6-0.8V38.9L318.8,38.9z M319.5,40.1v-0.3
			c0.9-0.1,0.9-0.1,0.9-1.1V36c0-0.8,0-0.9-0.9-1v-0.3c0.6-0.1,1.3-0.2,1.8-0.4v4.4c0,0.9,0.1,1,1,1.1v0.3L319.5,40.1L319.5,40.1z
			 M320.9,33c-0.3,0-0.6-0.3-0.6-0.6c0-0.4,0.3-0.6,0.6-0.8c0.3,0,0.6,0.3,0.6,0.6C321.5,32.7,321.2,33,320.9,33z M332.2,39.8
			c-0.6,0.1-1.3,0.2-1.9,0.4v-1c-0.5,0.5-1.2,0.9-1.9,1c-0.9,0-1.6-0.5-1.6-1.9v-2.5c0-0.6-0.1-0.8-0.4-0.9l-0.3-0.1v-0.3
			c0.5,0,1.4-0.1,1.8-0.2V38c0,1.1,0.5,1.5,1.2,1.5c0.5,0,1.1-0.2,1.4-0.6v-3c0-0.6-0.1-0.8-0.5-0.9h-0.4v-0.3c0.6,0,1.4-0.1,2-0.2
			v4.3c0,0.6,0.1,0.8,0.5,0.8h0.3L332.2,39.8L332.2,39.8z M336.5,40.1v-0.3c0.8-0.1,0.9-0.2,0.9-1.1v-2.1c0-0.9-0.3-1.5-1.2-1.5
			c-0.5,0-1.1,0.3-1.4,0.6v3c0,0.9,0.1,1,0.9,1V40h-2.8v-0.3c0.9-0.1,1-0.1,1-1v-2.6c0-0.9-0.1-0.9-0.8-1v-0.3
			c0.6-0.1,1.2-0.2,1.8-0.5v1.1l0.9-0.6c0.3-0.2,0.6-0.3,1.1-0.4c1.1,0,1.7,0.8,1.7,2v2.5c0,0.9,0.1,1,0.9,1v0.3H336.5L336.5,40.1z
			 M342.4,40.1c-0.2,0.1-0.3,0.1-0.5,0.2c-0.9,0-1.3-0.5-1.3-1.5v-3.8h-0.9V35l0.3-0.4h0.5v-1.1c0.2-0.2,0.6-0.5,0.9-0.9h0.2v1.9
			h1.5c0.1,0.2,0.1,0.4-0.1,0.5h-1.4v3.3c0,1.1,0.4,1.2,0.8,1.2c0.3,0,0.5-0.1,0.8-0.2l0.1,0.3L342.4,40.1L342.4,40.1z M173.6,55.2
			c-0.6,0.1-1.3,0.2-1.9,0.4v-1c-0.5,0.5-1.2,0.9-1.9,1c-0.9,0-1.6-0.5-1.6-1.9v-2.5c0-0.6-0.1-0.8-0.4-0.9l-0.3-0.1V50
			c0.6,0,1.3-0.1,1.8-0.2v3.6c0,1.1,0.6,1.5,1.2,1.5s1.1-0.2,1.4-0.6v-3c0-0.6-0.1-0.8-0.6-0.9h-0.4v-0.3c0.6,0,1.4-0.1,2-0.2v4.3
			c0,0.6,0.1,0.8,0.6,0.8h0.3L173.6,55.2L173.6,55.2z M176.8,55.5c-0.2,0.1-0.3,0.1-0.5,0.2c-0.9,0-1.3-0.5-1.3-1.5v-3.8h-0.9v-0.1
			l0.3-0.4h0.6v-1.1c0.2-0.2,0.6-0.5,0.9-0.9h0.2V50h1.5c0.1,0.2,0.1,0.4-0.1,0.5h-1.4v3.3c0,1.1,0.4,1.2,0.8,1.2
			c0.3,0,0.5-0.1,0.8-0.2l0.1,0.3L176.8,55.5z M181.9,55.5v-0.4l0.9-0.1c0.5,0,0.6-0.1,0.6-0.9v-2.9c0-0.6-0.1-0.8-0.5-0.8h-0.8
			v-0.3c0.8-0.1,1.6-0.3,2.4-0.5v4.6c0,0.6,0.1,0.8,0.6,0.9l0.8,0.1v0.4L181.9,55.5L181.9,55.5z M187.6,57.3
			c1.7-0.3,3.1-1.5,3.8-3.1l-0.5,0.2c-0.3,0.2-0.8,0.2-1.1,0.2c-1.2-0.1-2.1-1.1-2.1-2.4c0-1.4,1.1-2.6,2.5-2.6c1.7,0,2.5,1.5,2.5,3
			c0,2.1-1.4,4-3.3,4.6l-1.6,0.3V57.3z M189.9,50.2c-0.6,0-1.2,0.8-1.2,1.7c-0.1,1,0.5,1.9,1.6,2h0.2c0.3,0,0.6-0.1,1-0.2
			c0.1-0.3,0.1-0.6,0.1-1C191.5,51.9,191.3,50.2,189.9,50.2L189.9,50.2z M198.9,48.1c-1.7,0.3-3,1.5-3.6,3.1l0.8-0.3
			c0.3-0.1,0.5-0.2,0.9-0.2c1.2,0,2.1,1,2.1,2.1v0.2c0.1,1.5-1.1,2.7-2.5,2.8h-0.1c-1.3,0-2.6-1.1-2.6-3.1c0.1-2,1.4-3.8,3.3-4.5
			c0.5-0.2,1.1-0.3,1.6-0.4L198.9,48.1L198.9,48.1z M196.2,51.4c-0.4,0-0.8,0.1-1.1,0.3c-0.1,0.3-0.1,0.6-0.1,1
			c0,1.7,0.8,2.7,1.6,2.7c0.6,0,1.3-0.4,1.3-1.7C197.9,52.5,197.6,51.5,196.2,51.4L196.2,51.4z M205.3,53.8l-0.4,1.7h-4.6v-0.3
			c1.2-0.9,3-2.1,3-3.5c0.1-0.5-0.3-1.2-0.9-1.2h-0.2c-0.6,0.1-1.1,0.4-1.4,1l-0.3-0.2l0.6-0.9c0.3-0.4,1-0.8,1.5-0.6
			c1-0.1,1.8,0.6,1.8,1.7v0.1c0,0.6-0.3,1.3-0.9,1.7c-0.4,0.4-1,0.9-1.7,1.5h2c0.5,0,0.6-0.1,1.1-0.9L205.3,53.8L205.3,53.8z
			 M215.5,55.2c-0.6,0.1-1.4,0.3-2,0.5v-0.9l-0.8,0.4c-0.3,0.2-0.6,0.3-1,0.4c-1.4-0.1-2.5-1.4-2.4-2.8c0-1.8,1.5-3.2,3.3-3.1
			c0.3,0,0.6,0,0.9,0.1V48c0-0.9-0.1-0.9-1-1v-0.3c0.6-0.1,1.4-0.2,2-0.4V54c0,0.6,0.1,0.8,0.5,0.8h0.4L215.5,55.2L215.5,55.2z
			 M213.6,50.9c-0.3-0.4-0.9-0.6-1.4-0.6c-0.6,0-1.7,0.4-1.7,2.3c0,1.6,1,2.4,1.8,2.4c0.4,0,0.9-0.2,1.3-0.4L213.6,50.9L213.6,50.9z
			 M219,49.7c1.5,0,2.8,1.2,2.8,2.7v0.1c0.1,1.6-1.1,3-2.7,3.1H219c-1.6,0-2.9-1.3-2.9-2.8v-0.1C216.1,51.2,217.3,49.9,219,49.7z
			 M218.9,50.2c-0.8,0-1.5,0.8-1.5,2.3s0.8,2.8,1.8,2.8c0.8,0,1.5-0.5,1.5-2.4C220.6,51.5,220,50.2,218.9,50.2z M222.6,55.5v-0.3
			c0.9-0.1,1-0.1,1-1V48c0-0.8-0.1-0.9-0.9-1v-0.3c0.6-0.1,1.3-0.2,1.9-0.4v7.9c0,0.9,0.1,1,1,1v0.3L222.6,55.5L222.6,55.5z
			 M229,49.7c1.5,0,2.8,1.2,2.8,2.7v0.1c0.1,1.6-1.1,3-2.7,3.1H229c-1.6,0-2.8-1.2-2.9-2.8v-0.1C226,51.1,227.3,49.9,229,49.7
			C228.9,49.7,228.9,49.7,229,49.7z M228.8,50.2c-0.8,0-1.5,0.8-1.5,2.3s0.8,2.8,1.7,2.8c0.8,0,1.5-0.5,1.5-2.4
			C230.5,51.5,230,50.2,228.8,50.2z M235.5,55.5h-3v-0.3c0.9-0.1,0.9-0.1,0.9-1v-2.7c0-0.9,0-0.9-0.8-1v-0.4
			c0.6-0.1,1.3-0.3,1.8-0.5V51c0.4-0.6,1-1.4,1.6-1.4c0.3,0,0.6,0.2,0.8,0.5c0,0.3-0.2,0.5-0.4,0.8c-0.1,0.1-0.2,0.1-0.3,0
			c-0.1-0.2-0.3-0.3-0.5-0.3s-0.8,0.4-1.1,1.1V54c0,0.9,0.1,1,1.1,1V55.5L235.5,55.5z M242,54.5c-0.5,0.8-1.3,1.2-2.1,1.3
			c-1.4,0-2.6-1.2-2.6-2.6v-0.1c0-0.9,0.3-1.6,0.9-2.3c0.4-0.5,1.2-1,1.9-1c1.1,0,1.9,0.9,1.9,2c0,0.2,0,0.4-0.2,0.4
			c-0.2,0-1.9,0.1-3.4,0.2c0,1.7,1,2.5,1.9,2.5c0.5,0,1.1-0.2,1.5-0.6L242,54.5L242,54.5z M239.8,50.2c-0.6,0-1.2,0.5-1.4,1.6h2.1
			c0.2,0,0.3-0.1,0.3-0.2C241,50.9,240.5,50.3,239.8,50.2z M252.9,55.5v-0.3c0.8-0.1,0.9-0.1,0.9-1.1V52c0-1-0.3-1.5-1.1-1.5
			c-0.5,0-1.1,0.3-1.4,0.6v3c0,0.9,0.1,0.9,0.9,1v0.3h-2.8v-0.3c0.9-0.1,1-0.1,1-1v-2.3c0-1-0.3-1.5-1.1-1.5
			c-0.5,0.1-1.1,0.3-1.4,0.6v3c0,0.9,0.1,0.9,0.9,1v0.3h-2.8V55c0.9-0.1,1-0.1,1-1v-2.7c0-0.9,0-0.9-0.8-1v-0.2
			c0.6-0.1,1.2-0.2,1.8-0.5v1.1l1-0.6c0.3-0.2,0.6-0.3,1-0.3c0.6,0,1.2,0.4,1.4,1.1c0.3-0.3,0.6-0.5,1.1-0.8c0.3-0.2,0.6-0.3,1-0.3
			c1,0,1.6,0.8,1.6,2v2.5c0,0.9,0.1,0.9,0.9,1v0.3L252.9,55.5L252.9,55.5z M260.5,55.7c-0.2,0-0.4-0.1-0.6-0.2
			c-0.1-0.2-0.2-0.3-0.3-0.5c-0.4,0.4-1,0.6-1.5,0.9c-0.9,0-1.6-0.8-1.6-1.6c0-0.6,0.4-1.2,1.1-1.3c0.8-0.2,1.4-0.4,2-0.9v-0.2
			c0-1-0.4-1.4-1.2-1.4c-0.2,0-0.4,0.1-0.6,0.3c-0.1,0.2-0.3,0.5-0.3,0.9c0,0.2-0.2,0.3-0.4,0.3c-0.3,0-0.5-0.2-0.5-0.5
			c0-0.2,0.2-0.3,0.4-0.5c0.5-0.4,1.2-0.8,1.8-0.9c0.4,0,0.8,0.1,1.1,0.3c0.4,0.3,0.6,1,0.6,1.5v2.5c0,0.6,0.2,0.8,0.4,0.8
			s0.3-0.1,0.4-0.1l0.1,0.3L260.5,55.7L260.5,55.7z M259.6,52.5c-0.3,0.1-0.9,0.4-1.2,0.5c-0.5,0.2-0.8,0.4-0.8,1c0,0.5,0.3,1,0.9,1
			h0.1c0.4,0,0.8-0.2,1.1-0.4L259.6,52.5z M263.8,53.6c-0.2,0.1-0.4,0.4-0.4,0.6s0.2,0.5,0.8,0.5h1.5c0.9,0,1.9,0.3,1.9,1.5
			c0,1.2-1.6,2.6-3.3,2.6c-1.5,0-2.3-0.9-2.3-1.6c0-0.3,0.1-0.5,0.3-0.8c0.3-0.3,0.8-0.6,1.1-1c-0.4-0.1-0.8-0.3-1-0.6
			c-0.1-0.2-0.1-0.3-0.1-0.5c0.4-0.2,0.9-0.5,1.2-0.9L263.8,53.6z M264.4,53.8c-1.1,0.1-2-0.8-2.1-1.8v-0.1c0-1.2,1.1-2.1,2.3-2.1
			c0.4,0,0.9,0.1,1.2,0.3c0.5,0,1.2-0.1,1.7-0.2l0.1,0.1c-0.1,0.2-0.2,0.5-0.4,0.6c-0.2,0-0.6,0-0.8-0.1c0.2,0.3,0.3,0.8,0.3,1.2
			c0,1.2-1,2-2,2C264.6,53.8,264.5,53.8,264.4,53.8L264.4,53.8z M264.7,55.6c-0.4-0.1-0.9,0-1.2,0.2c-0.3,0.2-0.5,0.6-0.6,1.1
			c0,0.8,0.8,1.2,1.7,1.2c1.2,0,1.9-0.6,1.9-1.5c0-0.4-0.2-0.8-0.5-1C265.6,55.7,265.1,55.6,264.7,55.6L264.7,55.6z M264.4,50.1
			c-0.5,0-1.1,0.5-1.1,1.5c0,1,0.5,1.7,1.2,1.7c0.6,0,1.1-0.5,1.1-1.5C265.6,50.8,265.1,50.1,264.4,50.1z M271.7,55.5v-0.3
			c0.8-0.1,0.9-0.2,0.9-1.1V52c0-0.9-0.3-1.5-1.2-1.5c-0.5,0-1.1,0.3-1.4,0.6v3c0,0.9,0.1,1,0.9,1v0.3H268v-0.3c0.9-0.1,1-0.1,1-1
			v-2.6c0-0.9-0.1-0.9-0.8-1v-0.4c0.6-0.1,1.2-0.2,1.8-0.5v1.1l0.9-0.6c0.3-0.2,0.6-0.3,1.1-0.4c1.1,0,1.7,0.8,1.7,2v2.5
			c0,0.9,0.1,1,0.9,1v0.3L271.7,55.5L271.7,55.5z M279.3,55.7c-0.2,0-0.4-0.1-0.6-0.2c-0.1-0.2-0.2-0.3-0.3-0.5
			c-0.4,0.4-1,0.6-1.5,0.9c-0.9,0-1.6-0.8-1.6-1.6c0-0.6,0.4-1.2,1.1-1.3c0.8-0.2,1.4-0.4,2-0.9v-0.2c0-1-0.4-1.4-1.1-1.4
			c-0.2,0-0.4,0.1-0.6,0.3c-0.1,0.2-0.3,0.5-0.3,0.9c0,0.2-0.2,0.3-0.4,0.3c-0.3,0-0.5-0.2-0.5-0.5c0-0.2,0.2-0.3,0.4-0.5
			c0.5-0.4,1.2-0.8,1.8-0.9c0.4,0,0.8,0.1,1.1,0.3c0.4,0.3,0.6,1,0.6,1.5v2.5c0,0.6,0.2,0.8,0.4,0.8s0.3-0.1,0.4-0.1l0.1,0.3
			L279.3,55.7L279.3,55.7z M278.3,52.5c-0.3,0.1-0.9,0.4-1.2,0.5c-0.5,0.2-0.8,0.4-0.8,1c0,0.5,0.3,1,0.9,1c0.4,0,0.8-0.2,1.1-0.4
			L278.3,52.5L278.3,52.5z M288.1,55.7c-0.2,0-0.4-0.1-0.6-0.2c-0.1-0.2-0.2-0.3-0.3-0.5c-0.4,0.4-1,0.6-1.5,0.9
			c-0.9,0-1.6-0.8-1.6-1.6c0-0.6,0.4-1.2,1.1-1.3c0.8-0.2,1.4-0.5,2-0.9v-0.2c0-1-0.4-1.4-1.2-1.4c-0.2,0-0.4,0.1-0.6,0.3
			c-0.2,0.2-0.3,0.5-0.3,0.9c0,0.2-0.2,0.3-0.3,0.3c-0.3,0-0.5-0.2-0.5-0.5c0-0.2,0.1-0.3,0.4-0.5c0.5-0.4,1.2-0.8,1.8-0.9
			c1,0,1.7,0.8,1.7,1.6v2.7c0,0.6,0.2,0.8,0.4,0.8c0.2,0,0.3-0.1,0.4-0.1l0.1,0.3L288.1,55.7L288.1,55.7z M287.1,52.5l-1.2,0.5
			c-0.5,0.2-0.8,0.4-0.8,1c0,0.5,0.3,1,0.9,1c0.4,0,0.8-0.2,1.1-0.4L287.1,52.5L287.1,52.5z M289.5,55.5v-0.3c0.9-0.1,1-0.1,1-1V48
			c0-0.8-0.1-0.9-0.9-1v-0.3c0.6-0.1,1.3-0.2,1.9-0.4v7.9c0,0.9,0.1,1,1,1v0.3L289.5,55.5L289.5,55.5z M293,55.5v-0.3
			c0.9-0.1,0.9-0.1,0.9-1.1v-2.7c0-0.8,0-0.9-0.9-1v-0.3c0.6-0.1,1.3-0.3,1.8-0.5V54c0,0.9,0.1,1,1,1.1v0.3L293,55.5L293,55.5z
			 M294.3,48.5c-0.3,0-0.6-0.3-0.6-0.6c0-0.4,0.3-0.6,0.6-0.8c0.3,0,0.6,0.3,0.6,0.6C295,48.1,294.7,48.5,294.3,48.5z M299.5,58.6
			v-0.3c1.1-0.1,1.1-0.1,1.1-1.1v-2.1l-1.4,0.5c-1.5,0-2.8-1.2-2.8-2.7v-0.1c0.1-1.8,1.6-3.3,3.4-3.2c0.3,0,0.6,0.1,1,0.2
			c0.1,0,0.2,0.1,0.3,0.1s0.3-0.1,0.4-0.1v7.4c0,0.9,0.1,1,1,1.1v0.3H299.5z M300.6,50.8c-0.3-0.3-0.8-0.5-1.3-0.5
			c-0.9,0-1.8,0.8-1.8,2.3c-0.1,1.2,0.6,2.3,1.8,2.5c0.4,0.1,0.9,0,1.2-0.2v-4L300.6,50.8z M309.3,55.2c-0.6,0.1-1.3,0.2-1.9,0.4v-1
			c-0.5,0.5-1.2,0.9-1.9,1c-0.9,0-1.6-0.5-1.6-1.9v-2.5c0-0.6-0.1-0.8-0.4-0.9l-0.3-0.1V50c0.6,0,1.3-0.1,1.8-0.2v3.6
			c0,1.1,0.5,1.5,1.2,1.5c0.5,0,1.1-0.2,1.4-0.6v-3c0-0.6-0.1-0.8-0.5-0.9l-0.4-0.1V50c0.6,0,1.4-0.1,2-0.2V54
			c0,0.6,0.1,0.8,0.6,0.8h0.3L309.3,55.2L309.3,55.2z M314.1,55.7c-0.2,0-0.4-0.1-0.6-0.2c-0.1-0.2-0.2-0.3-0.3-0.5
			c-0.4,0.4-1,0.6-1.5,0.9c-0.9,0-1.6-0.8-1.6-1.6c0-0.6,0.4-1.2,1.1-1.3c0.8-0.2,1.4-0.4,2-0.9v-0.2c0-1-0.4-1.4-1.2-1.4
			c-0.2,0-0.4,0.1-0.6,0.3c-0.2,0.2-0.3,0.5-0.3,0.9c0,0.2-0.2,0.3-0.4,0.3c-0.3,0-0.5-0.2-0.5-0.5c0-0.2,0.2-0.3,0.4-0.5
			c0.5-0.4,1.2-0.8,1.8-0.9c0.4,0,0.8,0.1,1.1,0.3c0.4,0.3,0.6,1,0.6,1.5v2.5c0,0.6,0.2,0.8,0.4,0.8c0.2,0,0.3-0.1,0.4-0.1l0.1,0.3
			L314.1,55.7L314.1,55.7z M313.2,52.5c-0.3,0.1-0.9,0.4-1.2,0.5c-0.5,0.2-0.8,0.4-0.8,1c0,0.5,0.3,1,0.9,1h0.1
			c0.4,0,0.8-0.2,1.1-0.4L313.2,52.5L313.2,52.5z M322.8,55.5v-0.3c0.8-0.1,0.9-0.1,0.9-1.1V52c0-1-0.3-1.5-1.1-1.5
			c-0.5,0.1-1.1,0.3-1.4,0.6v3c0,0.9,0.1,0.9,0.9,1v0.3h-2.8v-0.3c0.8-0.1,1-0.1,1-1v-2.3c0-1-0.3-1.5-1.1-1.5
			c-0.5,0.1-1.1,0.3-1.4,0.6v3c0,0.9,0.1,0.9,0.9,1v0.3h-2.8V55c0.9-0.1,1-0.1,1-1v-2.7c0-0.9,0-0.9-0.8-1v-0.2
			c0.6-0.1,1.2-0.2,1.8-0.5v1.1l1-0.6c0.3-0.2,0.6-0.3,1.1-0.3c0.6,0,1.2,0.4,1.4,1.1c0.3-0.3,0.6-0.5,1.1-0.8
			c0.3-0.2,0.6-0.3,1-0.3c1,0,1.6,0.8,1.6,2v2.5c0,0.9,0.1,0.9,0.9,1v0.3L322.8,55.5L322.8,55.5z M330.3,55.7
			c-0.2,0-0.4-0.1-0.6-0.2c-0.1-0.2-0.2-0.3-0.3-0.5c-0.4,0.4-1,0.6-1.5,0.9c-0.9,0-1.6-0.8-1.6-1.6c0-0.6,0.4-1.2,1.1-1.3
			c0.8-0.2,1.4-0.4,2-0.9v-0.2c0-1-0.4-1.4-1.2-1.4c-0.2,0-0.4,0.1-0.6,0.3c-0.2,0.2-0.3,0.5-0.3,0.9c0,0.2-0.2,0.3-0.4,0.3
			c-0.3,0-0.5-0.2-0.5-0.5c0-0.2,0.2-0.3,0.4-0.5c0.5-0.4,1.2-0.8,1.8-0.9c0.4,0,0.8,0.1,1.1,0.3c0.4,0.3,0.6,1,0.6,1.5v2.5
			c0,0.6,0.2,0.8,0.4,0.8c0.2,0,0.3-0.1,0.4-0.1l0.1,0.3L330.3,55.7L330.3,55.7z M329.5,52.5c-0.3,0.1-0.9,0.4-1.2,0.5
			c-0.5,0.2-0.8,0.4-0.8,1c0,0.5,0.3,1,0.9,1h0.1c0.4,0,0.8-0.2,1.1-0.4L329.5,52.5L329.5,52.5z M172.1,69.9
			c-0.5,0.8-1.3,1.2-2.1,1.3c-1.4,0-2.6-1.2-2.6-2.6v-0.1c0-0.9,0.3-1.6,0.9-2.3c0.4-0.5,1.2-1,1.9-1c1.1,0,1.9,0.9,1.9,2
			c0,0.2,0,0.4-0.2,0.4c-0.2,0-1.9,0.1-3.4,0.2c0,1.7,1.1,2.5,1.9,2.5c0.5,0,1.1-0.2,1.5-0.6L172.1,69.9L172.1,69.9z M169.9,65.6
			c-0.6,0-1.2,0.5-1.4,1.6h2.3c0.2,0,0.3-0.1,0.3-0.2c0.1-0.6-0.4-1.3-1.1-1.3L169.9,65.6L169.9,65.6z M175.9,71h-3v-0.3
			c0.9-0.1,0.9-0.1,0.9-1V67c0-0.9-0.1-0.9-0.8-1v-0.3c0.6-0.1,1.3-0.3,1.8-0.5v1.4c0.4-0.6,1-1.4,1.6-1.4c0.3,0,0.8,0.2,0.8,0.5
			c0,0.3-0.2,0.5-0.4,0.8c-0.1,0.1-0.2,0.1-0.3,0c-0.1-0.2-0.3-0.3-0.5-0.3s-0.8,0.4-1.1,1.1v2.4c0,0.9,0.1,1,1.1,1V71L175.9,71z
			 M181.8,71.1c-0.2,0-0.4-0.1-0.6-0.2c-0.1-0.2-0.2-0.3-0.3-0.5c-0.4,0.4-1,0.6-1.5,0.9c-0.9,0-1.6-0.8-1.6-1.6
			c0-0.6,0.4-1.2,1.1-1.3c0.8-0.2,1.4-0.4,2-0.9v-0.2c0-1-0.4-1.4-1.1-1.4c-0.2,0-0.4,0.1-0.6,0.3c-0.1,0.2-0.3,0.5-0.3,0.9
			c0,0.2-0.2,0.3-0.4,0.3c-0.3,0-0.5-0.2-0.5-0.5c0-0.2,0.2-0.3,0.4-0.5c0.5-0.4,1.2-0.8,1.8-0.9c0.4,0,0.8,0.1,1.1,0.3
			c0.4,0.3,0.8,1,0.6,1.5v2.5c0,0.5,0.2,0.8,0.4,0.8s0.3-0.1,0.4-0.1l0.1,0.3L181.8,71.1L181.8,71.1z M180.9,67.9
			c-0.3,0.1-0.9,0.4-1.2,0.5c-0.5,0.2-0.8,0.4-0.8,1s0.3,1,0.9,1c0.4,0,0.8-0.2,1.1-0.4V67.9z M185.9,71c-0.2,0.1-0.3,0.1-0.5,0.2
			c-0.9,0-1.3-0.5-1.3-1.5v-3.8h-0.9v-0.1l0.3-0.3h0.6v-1.1c0.2-0.2,0.6-0.5,0.9-0.9h0.2v1.9h1.5c0.1,0.2,0.1,0.4-0.1,0.5h-1.4v3.3
			c0,1.1,0.4,1.2,0.8,1.2s0.5-0.1,0.8-0.2l0.1,0.3L185.9,71L185.9,71z M195.9,65.7c-0.6,0.1-0.8,0.2-1.1,1c-0.4,1.1-1.2,2.7-1.8,4.5
			h-0.4c-0.5-1.5-1.2-3-1.8-4.5c-0.3-0.8-0.4-0.9-1.1-1v-0.3h2.6v0.3c-0.8,0.1-0.8,0.2-0.5,0.8c0.3,0.9,0.9,2.3,1.2,3.1
			c0.4-1.2,0.9-2.1,1.2-3c0.2-0.6,0.2-0.8-0.6-0.9v-0.3h2.4L195.9,65.7L195.9,65.7z M199.1,65.2c1.5,0,2.8,1.2,2.8,2.7v0.2
			c0.1,1.6-1.1,3-2.7,3.1h-0.1c-1.6,0-2.8-1.3-2.9-2.8v-0.1C196.1,66.6,197.4,65.3,199.1,65.2C199,65.2,199.1,65.2,199.1,65.2z
			 M198.9,65.6c-0.8,0-1.5,0.8-1.5,2.3c0,1.5,0.8,2.9,1.8,2.9c0.9,0,1.5-0.5,1.5-2.4C200.7,66.8,200.1,65.6,198.9,65.6z M202.6,71
			v-0.3c0.9-0.1,1-0.1,1-1v-6.1c0-0.8-0.1-0.9-0.9-1v-0.3c0.6-0.1,1.3-0.2,1.9-0.4v7.9c0,0.9,0.1,1,1,1v0.3L202.6,71L202.6,71z
			 M212.3,70.8c-0.6,0.1-1.3,0.2-1.9,0.4v-1c-0.5,0.5-1.2,0.9-1.9,1c-0.9,0-1.6-0.5-1.6-1.9v-2.5c0-0.6-0.1-0.8-0.4-0.9l-0.3-0.1
			v-0.3c0.5,0,1.4-0.1,1.8-0.2v3.6c0,1.1,0.6,1.5,1.2,1.5c0.5,0,1.1-0.2,1.4-0.6v-3c0-0.6-0.1-0.8-0.6-0.9h-0.4v-0.3
			c0.6,0,1.4-0.1,2-0.2v4.3c0,0.6,0.1,0.8,0.6,0.8h0.3L212.3,70.8L212.3,70.8z M215.5,71c-0.2,0.1-0.3,0.1-0.5,0.2
			c-0.9,0-1.3-0.5-1.3-1.5v-3.8h-0.9v-0.1l0.3-0.3h0.6v-1.1c0.2-0.2,0.6-0.5,0.9-0.9h0.2v1.9h1.5c0.1,0.2,0.1,0.4-0.1,0.5h-1.4v3.3
			c0,1.1,0.4,1.2,0.8,1.2s0.5-0.1,0.8-0.2l0.1,0.3L215.5,71z M216.7,65.6c0.6-0.1,1.3-0.3,1.8-0.5v1.1l1.1-0.6
			c0.2-0.1,0.4-0.2,0.8-0.2c1.3,0,2.4,1.1,2.3,2.4v0.1c-0.1,1.8-1.4,3.3-3.2,3.5c-0.3,0-0.6-0.1-1-0.2v1.7c0,1,0.1,1.1,1.1,1.1v0.3
			h-3v-0.4c0.9-0.1,1-0.1,1-1v-5.9c0-0.8,0-0.9-0.9-1L216.7,65.6z M218.5,70c0.3,0.3,0.8,0.5,1.2,0.5c1.1,0,1.8-1,1.8-2.4
			s-0.9-2.1-1.7-2.1c-0.5,0-1,0.2-1.3,0.5V70z M227.6,71.1c-0.2,0-0.4-0.1-0.6-0.2c-0.1-0.2-0.2-0.3-0.3-0.5c-0.4,0.4-1,0.6-1.5,0.9
			c-0.9,0-1.6-0.8-1.6-1.6c0-0.6,0.4-1.2,1.1-1.3c0.8-0.2,1.4-0.4,2-0.9v-0.2c0-1-0.4-1.4-1.1-1.4c-0.2,0-0.4,0.1-0.6,0.3
			c-0.1,0.2-0.3,0.5-0.3,0.9c0,0.2-0.2,0.3-0.4,0.3c-0.3,0-0.5-0.2-0.5-0.5c0-0.2,0.2-0.3,0.4-0.5c0.5-0.4,1.2-0.8,1.8-0.9
			c0.4,0,0.8,0.1,1.1,0.3c0.4,0.3,0.8,1,0.6,1.5v2.5c0,0.5,0.2,0.8,0.4,0.8c0.2,0,0.3-0.1,0.4-0.1l0.1,0.3L227.6,71.1L227.6,71.1z
			 M226.8,67.9c-0.3,0.1-0.9,0.4-1.2,0.5c-0.5,0.2-0.8,0.4-0.8,1s0.3,1,0.9,1c0.4,0,0.8-0.2,1.1-0.4V67.9z M231.7,71
			c-0.2,0.1-0.3,0.1-0.5,0.2c-0.9,0-1.3-0.5-1.3-1.5v-3.8H229v-0.1l0.3-0.3h0.6v-1.1c0.2-0.2,0.6-0.5,0.9-0.9h0.2v1.9h1.5
			c0.1,0.2,0.1,0.4-0.1,0.5H231v3.3c0,1.1,0.4,1.2,0.8,1.2s0.5-0.1,0.8-0.2l0.1,0.3L231.7,71z M234.4,71.2c-0.4,0-0.8-0.3-0.8-0.8
			v-0.1c0-0.4,0.3-0.8,0.8-0.9h0.1c0.4,0,0.9,0.3,0.9,0.8C235.1,70.8,234.8,71.1,234.4,71.2L234.4,71.2z M248.1,62.9
			c-0.9,0-1.1,0.2-1.2,0.9v3.4c0.1,1.1-0.2,2.3-0.9,3.1c-0.6,0.5-1.5,0.9-2.4,0.9c-0.8,0-1.5-0.2-2.1-0.5c-0.9-0.8-1.3-1.8-1.2-3
			v-3.3c0-1.2-0.1-1.2-1.2-1.3v-0.3h3.4V63c-1.1,0.1-1.2,0.2-1.2,1.3v3.2c0,1.9,0.9,2.9,2.5,2.9c1.8,0,2.4-1.2,2.4-3.2v-1.3
			c0-1.2,0-1.7-0.1-2c0-0.5-0.3-0.8-1.3-0.9v-0.3h3.1L248.1,62.9L248.1,62.9z M250.8,71c-0.2,0.1-0.3,0.1-0.5,0.2
			c-0.9,0-1.3-0.5-1.3-1.5v-3.8h-0.9v-0.1l0.3-0.3h0.6v-1.1c0.2-0.2,0.6-0.5,0.9-0.9h0.2v1.9h1.5c0.1,0.2,0.1,0.4-0.1,0.5h-1.4v3.3
			c0,1.1,0.4,1.2,0.8,1.2s0.5-0.1,0.8-0.2l0.1,0.3L250.8,71z M263.7,65.7c-0.6,0.1-0.8,0.2-1.1,1c-0.4,1-1,2.8-1.5,4.5h-0.4
			c-0.5-1.4-1.1-2.7-1.5-4.1c-0.4,1.2-1.1,2.6-1.6,4.1h-0.4c-0.4-1.5-1-3-1.5-4.6c-0.2-0.6-0.3-0.8-1-0.9v-0.3h2.7v0.3
			c-0.8,0.1-0.9,0.2-0.6,0.8c0.3,1,0.6,2,1,3c0.5-1.3,1.1-2.7,1.5-4.1h0.3c0.4,1.3,1,2.7,1.5,4.1c0.3-0.8,0.6-2,1-3
			c0.2-0.6,0.1-0.8-0.9-0.9v-0.3h2.4L263.7,65.7L263.7,65.7z M264.2,71v-0.3c0.9-0.1,0.9-0.1,0.9-1.1v-2.7c0-0.9,0-0.9-0.9-1v-0.3
			c0.6-0.1,1.3-0.3,1.8-0.5v4.5c0,0.9,0.1,1,1,1.1V71L264.2,71L264.2,71z M265.5,63.9c-0.3,0-0.6-0.3-0.6-0.6c0-0.4,0.3-0.6,0.6-0.8
			c0.3,0,0.6,0.3,0.6,0.6C266.2,63.6,265.9,63.9,265.5,63.9z M270.9,66.9c-0.2-0.8-0.5-1.3-1.4-1.3c-0.4,0-0.8,0.3-0.9,0.8v0.1
			c0,0.5,0.4,0.9,1.1,1.2c1.1,0.5,1.7,1,1.7,1.7c-0.1,1.1-1,1.8-2,1.8h-0.1c-0.5,0-1.1-0.1-1.5-0.3c-0.1-0.4-0.2-1.1-0.2-1.5
			l0.4-0.1c0.2,0.9,0.6,1.5,1.6,1.5c0.4,0,0.9-0.3,0.9-0.9v-0.1c0-0.5-0.3-0.9-1.1-1.2c-0.9-0.4-1.6-0.9-1.6-1.7
			c0.1-1,1-1.7,1.9-1.7h0.1c0.4,0,0.9,0.1,1.3,0.2c0,0.3,0.1,1.1,0.2,1.4L270.9,66.9L270.9,66.9z M272.3,71v-0.3
			c0.9-0.1,0.9-0.1,0.9-1.1v-2.7c0-0.9,0-0.9-0.9-1v-0.3c0.6-0.1,1.3-0.3,1.8-0.5v4.5c0,0.9,0.1,1,1,1.1V71L272.3,71L272.3,71z
			 M273.7,63.9c-0.3,0-0.6-0.3-0.6-0.6c0-0.4,0.3-0.6,0.6-0.8c0.3,0,0.6,0.3,0.6,0.6C274.4,63.6,274,63.9,273.7,63.9z M283.6,69.9
			c-0.5,0.8-1.3,1.2-2.1,1.3c-1.4,0-2.6-1.2-2.6-2.6v-0.1c0-0.9,0.3-1.6,0.9-2.3c0.4-0.5,1.2-1,1.9-1c1.1,0,1.9,0.9,1.9,2
			c0,0.2,0,0.4-0.2,0.4c-0.2,0-1.9,0.1-3.4,0.2c0,1.7,1.1,2.5,1.9,2.5c0.5,0,1.1-0.2,1.5-0.6L283.6,69.9L283.6,69.9z M281.3,65.6
			c-0.5,0-1.2,0.5-1.4,1.6h2.1c0.2,0,0.3-0.1,0.3-0.2c0.1-0.6-0.4-1.3-1.1-1.3C281.4,65.6,281.4,65.6,281.3,65.6L281.3,65.6z
			 M288.1,71v-0.3c0.8-0.1,0.9-0.2,0.9-1.1v-2.1c0-0.9-0.3-1.5-1.2-1.5c-0.5,0-1.1,0.3-1.4,0.6v3.1c0,0.9,0.1,1,0.9,1V71h-2.8v-0.3
			c0.9-0.1,1-0.1,1-1V67c0-0.9-0.1-0.9-0.8-1v-0.3c0.6-0.1,1.2-0.2,1.8-0.5v1l0.9-0.5c0.3-0.2,0.6-0.3,1.1-0.4c1.1,0,1.7,0.8,1.7,2
			v2.5c0,0.9,0.1,1,0.9,1V71H288.1L288.1,71z M291.5,71v-0.3c0.9-0.1,0.9-0.1,0.9-1.1v-2.7c0-0.9,0-0.9-0.9-1v-0.3
			c0.6-0.1,1.3-0.3,1.8-0.5v4.5c0,0.9,0.1,1,1,1.1V71L291.5,71L291.5,71z M292.9,63.9c-0.3,0-0.6-0.3-0.6-0.6c0-0.4,0.3-0.6,0.6-0.8
			c0.3,0,0.6,0.3,0.6,0.6C293.5,63.6,293.2,63.9,292.9,63.9z M302.1,71v-0.3c0.8-0.1,0.9-0.1,0.9-1.1v-2.1c0-1-0.3-1.5-1.1-1.5
			c-0.5,0-1.1,0.3-1.4,0.6v3c0,0.9,0.1,0.9,0.9,1v0.3h-2.8v-0.3c0.8-0.1,1-0.1,1-1v-2.3c0-1-0.3-1.5-1.1-1.5
			c-0.5,0.1-1.1,0.3-1.4,0.6v3c0,0.9,0.1,0.9,0.9,1v0.3h-2.8v-0.3c0.9-0.1,1-0.1,1-1v-2.7c0-0.9,0-0.9-0.8-1v-0.3
			c0.6-0.1,1.2-0.2,1.8-0.5V66l1-0.6c0.3-0.2,0.6-0.3,1.1-0.3c0.6,0,1.2,0.4,1.4,1.1c0.3-0.3,0.6-0.5,1.1-0.8c0.3-0.2,0.6-0.3,1-0.3
			c1,0,1.6,0.8,1.6,2v2.5c0,0.9,0.1,0.9,0.9,1v0.3L302.1,71L302.1,71z M312.6,71.1c-0.2,0-0.4-0.1-0.6-0.2c-0.1-0.2-0.2-0.3-0.3-0.5
			c-0.4,0.4-1,0.6-1.5,0.9c-0.9,0-1.6-0.8-1.6-1.6c0-0.6,0.4-1.2,1.1-1.3c0.8-0.2,1.4-0.4,2-0.9v-0.2c0-1-0.4-1.4-1.1-1.4
			c-0.2,0-0.4,0.1-0.6,0.3c-0.2,0.2-0.3,0.5-0.3,0.9c0,0.2-0.2,0.3-0.4,0.3c-0.3,0-0.5-0.3-0.5-0.5s0.1-0.3,0.4-0.5
			c0.5-0.4,1.2-0.8,1.8-0.9c1,0,1.7,0.8,1.7,1.6v2.7c0,0.5,0.2,0.8,0.4,0.8c0.2,0,0.3-0.1,0.4-0.1l0.1,0.3L312.6,71.1L312.6,71.1z
			 M311.7,67.9c-0.3,0.1-0.9,0.4-1.2,0.5c-0.5,0.2-0.8,0.4-0.8,1c0,0.5,0.3,1,0.9,1c0.4,0,0.8-0.2,1.1-0.4L311.7,67.9L311.7,67.9z
			 M320.5,70.7c-0.6,0.1-1.4,0.3-2,0.5v-0.9l-0.9,0.4c-0.3,0.2-0.6,0.3-1,0.4c-1.4-0.1-2.5-1.4-2.4-2.8c0-1.8,1.5-3.2,3.3-3.1
			c0.3,0,0.6,0,0.9,0.1v-1.9c0-0.9-0.1-0.9-1-1v-0.3c0.6-0.1,1.4-0.2,2-0.4v7.7c0,0.6,0.1,0.8,0.5,0.8h0.4V70.7L320.5,70.7z
			 M318.5,66.4c-0.3-0.4-0.9-0.6-1.4-0.6c-0.6,0-1.7,0.4-1.7,2.3c0,1.6,1,2.4,1.8,2.4c0.4,0,0.9-0.2,1.3-0.4L318.5,66.4L318.5,66.4z
			 M324.4,66.9c-0.2-0.8-0.5-1.3-1.3-1.3c-0.4,0-0.8,0.3-0.9,0.8v0.1c0,0.5,0.4,0.9,1.1,1.2c1.1,0.5,1.6,1,1.6,1.7
			c-0.1,1.1-1,1.8-2,1.8h-0.1c-0.5,0-1-0.2-1.4-0.4c-0.1-0.4-0.2-1.1-0.2-1.5l0.4-0.1c0.2,0.9,0.6,1.5,1.6,1.5
			c0.4,0,0.9-0.3,0.9-0.9v-0.1c0-0.5-0.3-0.9-1.1-1.2c-0.9-0.4-1.6-0.9-1.6-1.7c0.1-1,0.9-1.7,1.9-1.7h0.1c0.4,0,0.9,0.1,1.2,0.2
			c0,0.3,0.1,1.1,0.2,1.4L324.4,66.9L324.4,66.9z M328.8,65.2c1.5,0,2.8,1.2,2.8,2.7v0.2c0.1,1.6-1.1,3-2.7,3.1h-0.1
			c-1.6,0-2.8-1.3-2.9-2.8v-0.1C325.9,66.6,327.1,65.3,328.8,65.2z M328.6,65.6c-0.8,0-1.5,0.8-1.5,2.3c0,1.5,0.6,2.9,1.7,2.9
			c0.9,0,1.5-0.5,1.5-2.4C330.4,66.8,329.8,65.6,328.6,65.6z M172.7,84.7l-0.4,1.7h-4.6v-0.3c1.1-0.9,3-2.1,3-3.5
			c0.1-0.5-0.3-1.2-0.9-1.2h-0.2c-0.6,0.1-1.1,0.4-1.4,1l-0.3-0.2l0.6-0.9c0.4-0.4,1-0.8,1.5-0.6c1-0.1,1.8,0.6,1.8,1.6v0.1
			c0,0.6-0.3,1.3-0.9,1.7c-0.4,0.4-1,0.9-1.7,1.5h2c0.5,0,0.6-0.1,1.1-0.9L172.7,84.7L172.7,84.7z M178.8,79c-1.7,0.3-3,1.5-3.6,3.1
			l0.8-0.3c0.3-0.1,0.5-0.2,0.9-0.2c1.2,0,2.1,1,2.1,2.1v0.2c0,1.5-1.1,2.7-2.6,2.7h-0.1c-1.3,0-2.6-1.1-2.6-3.1
			c0.1-2,1.4-3.8,3.3-4.5c0.5-0.2,1.1-0.3,1.6-0.4L178.8,79L178.8,79z M176.1,82.2c-0.3,0-0.8,0.1-1.1,0.3c-0.1,0.3-0.1,0.6-0.1,1
			c0,1.7,0.8,2.7,1.6,2.7c0.6,0,1.3-0.4,1.3-1.7C177.9,83.4,177.5,82.2,176.1,82.2L176.1,82.2z M185.4,86h-1.1v2.5h-1V86h-3.4v-0.4
			c1.3-1.6,2.6-3.3,3.9-4.9h0.5v4.6h1.2L185.4,86L185.4,86z M183.2,81.9c-1,1.2-1.7,2.1-2.5,3.3h2.5V81.9z M189,78.6
			c1.1-0.1,1.9,0.8,2,1.8v0.1c0,0.3-0.1,0.6-0.3,1c-0.3,0.3-0.6,0.5-1,0.8c0.9,0.5,1.6,1.1,1.6,2.1c0,1.3-1.1,2.3-2.4,2.3h-0.1
			c-1.2,0.1-2.3-0.8-2.4-1.9v-0.1c0-0.4,0.2-0.9,0.5-1.2c0.3-0.3,0.8-0.5,1.1-0.8c-0.8-0.3-1.3-1.1-1.3-1.9
			C186.9,79.4,187.8,78.6,189,78.6L189,78.6z M189,86.1c0.8,0,1.3-0.5,1.3-1.5c0-1-0.9-1.4-1.7-1.9c-0.6,0.3-1,1-1,1.7
			C187.5,85.2,188.2,86,189,86.1C188.9,86.1,189,86.1,189,86.1L189,86.1z M188.9,79c-0.6,0-1.1,0.4-1.1,1.1v0.2c0,1,0.6,1.3,1.5,1.7
			c0.4-0.3,0.8-0.9,0.8-1.5C190.1,79.6,189.4,79,188.9,79L188.9,79z M201.1,81.2c-0.6,0.1-0.8,0.2-1.1,1c-0.4,1.1-1.2,2.8-1.8,4.5
			h-0.4c-0.5-1.5-1.2-3-1.7-4.5c-0.3-0.8-0.4-0.9-1.1-1v-0.3h2.6v0.3c-0.8,0.1-0.8,0.2-0.5,0.8c0.3,0.9,0.9,2.3,1.2,3.1
			c0.4-1.2,0.9-2.1,1.2-3c0.2-0.6,0.2-0.8-0.6-0.9v-0.3h2.4V81.2L201.1,81.2z M206.1,85.3c-0.5,0.8-1.3,1.2-2.1,1.3
			c-1.4,0-2.6-1.2-2.6-2.6v-0.1c0-0.9,0.3-1.6,0.9-2.3c0.4-0.5,1.2-1,1.9-1c1.1,0,1.9,0.9,1.9,2c0,0.2,0,0.4-0.2,0.4
			s-1.9,0.1-3.4,0.2c0,1.7,1.1,2.5,1.9,2.5c0.5,0,1.1-0.2,1.5-0.6L206.1,85.3L206.1,85.3z M203.9,81.1c-0.6,0-1.2,0.5-1.4,1.6h2.3
			c0.2,0,0.3-0.1,0.3-0.2c0.1-0.6-0.4-1.3-1.1-1.3L203.9,81.1L203.9,81.1z M210.6,86.4v-0.3c0.8-0.1,0.9-0.2,0.9-1.1v-2.1
			c0-0.9-0.3-1.5-1.2-1.5c-0.5,0-1.1,0.3-1.4,0.6v3c0,0.9,0.1,1,0.9,1v0.3h-2.8V86c0.9-0.1,1-0.1,1-1v-2.6c0-0.9-0.1-0.9-0.8-1v-0.3
			c0.6-0.1,1.2-0.2,1.8-0.5v1.1l0.9-0.6c0.3-0.2,0.6-0.3,1.1-0.4c1.1,0,1.7,0.8,1.7,2v2.5c0,0.9,0.1,1,0.9,1v0.3H210.6z M214,86.4
			v-0.3c0.9-0.1,0.9-0.1,0.9-1.1v-2.7c0-0.8,0-0.9-0.9-1v-0.3c0.6-0.1,1.3-0.3,1.8-0.5v4.4c0,0.9,0.1,1,1,1.1v0.3L214,86.4L214,86.4
			z M215.4,79.3c-0.3,0-0.6-0.3-0.6-0.6c0-0.4,0.3-0.6,0.6-0.8c0.3,0,0.6,0.3,0.6,0.6C216,79,215.7,79.2,215.4,79.3z M221.6,86.5
			c-0.2,0-0.4-0.1-0.6-0.2c-0.2-0.1-0.3-0.3-0.3-0.5c-0.4,0.4-1,0.6-1.5,0.9c-0.9,0-1.6-0.8-1.6-1.6c0-0.6,0.4-1.2,1.1-1.3
			c0.8-0.2,1.4-0.4,2-0.9v-0.2c0-1-0.4-1.4-1.2-1.4c-0.2,0-0.4,0.1-0.6,0.3c-0.2,0.2-0.3,0.5-0.3,0.9c0,0.2-0.2,0.3-0.4,0.3
			c-0.3,0-0.5-0.2-0.5-0.5c0-0.2,0.2-0.3,0.4-0.5c0.5-0.4,1.2-0.8,1.8-0.9c1,0,1.7,0.8,1.7,1.6v2.7c0,0.6,0.2,0.8,0.4,0.8
			c0.2,0,0.3-0.1,0.4-0.1l0.1,0.3L221.6,86.5L221.6,86.5z M220.6,83.3l-1.2,0.5c-0.4,0.2-0.8,0.4-0.8,1s0.3,1,0.9,1
			c0.4,0,0.8-0.2,1.1-0.4V83.3z M230.3,86.4v-0.3c0.8-0.1,0.9-0.1,0.9-1.1v-2.1c0-1-0.3-1.5-1.1-1.5c-0.5,0-1.1,0.3-1.4,0.6v3
			c0,0.9,0.1,0.9,0.9,1v0.3h-2.8V86c0.8-0.1,1-0.1,1-1v-2.3c0-1-0.3-1.5-1.1-1.5c-0.5,0.1-1.1,0.3-1.4,0.6v3c0,0.9,0.1,0.9,0.9,1
			v0.3h-2.8v-0.3c0.9-0.1,1-0.1,1-1v-2.7c0-0.9-0.1-0.9-0.8-1v-0.3c0.6-0.1,1.2-0.2,1.8-0.5v1.1l1-0.6c0.3-0.2,0.6-0.3,1.1-0.3
			c0.6,0,1.2,0.4,1.4,1.1c0.3-0.3,0.6-0.5,1-0.8c0.3-0.2,0.6-0.3,1-0.3c1,0,1.6,0.8,1.6,2V85c0,0.9,0.1,0.9,0.9,1v0.3L230.3,86.4
			L230.3,86.4z M233.9,87.6c0.5-0.2,1.1-0.6,1.1-1.1s-0.4-0.5-0.9-0.6c-0.1,0-0.2-0.1-0.2-0.4c0-0.3,0.3-0.6,0.6-0.6h0.1
			c0.6,0.1,1.2,0.6,1.1,1.4c-0.1,1-0.8,1.7-1.6,1.8L233.9,87.6L233.9,87.6z M243.2,89.5v-0.3c1-0.1,1.1-0.1,1.1-1.1V86l-1.4,0.5
			c-1.5,0-2.8-1.2-2.8-2.7v-0.1c0.1-1.8,1.6-3.3,3.4-3.2c0.3,0,0.6,0.1,1,0.2c0.1,0,0.2,0.1,0.3,0.1s0.3-0.1,0.4-0.1h0.1v7.4
			c0,0.9,0.1,1,1,1.1v0.3H243.2L243.2,89.5z M244.2,81.7c-0.3-0.3-0.8-0.5-1.3-0.5c-0.9,0-1.7,0.8-1.7,2.3c-0.1,1.2,0.6,2.3,1.8,2.5
			h0.2c0.3,0,0.6-0.1,1-0.2L244.2,81.7L244.2,81.7z M252.9,86.1c-0.6,0.1-1.3,0.2-1.9,0.4v-1c-0.5,0.5-1.2,0.9-1.9,1
			c-0.9,0-1.6-0.5-1.6-1.9v-2.5c0-0.6-0.1-0.8-0.4-0.9l-0.3-0.1v-0.3c0.6,0,1.3-0.1,1.8-0.2v3.6c0,1.1,0.6,1.5,1.2,1.5
			s1.1-0.2,1.4-0.6v-3c0-0.6-0.1-0.8-0.6-0.9H250v-0.3c0.6,0,1.4-0.1,2-0.2V85c0,0.6,0.1,0.8,0.6,0.8h0.3L252.9,86.1L252.9,86.1z
			 M253.6,86.4v-0.3c0.9-0.1,0.9-0.1,0.9-1.1v-2.7c0-0.8,0-0.9-0.9-1v-0.3c0.6-0.1,1.3-0.3,1.8-0.5v4.4c0,0.9,0.1,1,1,1.1v0.3
			L253.6,86.4L253.6,86.4z M254.8,79.3c-0.3,0-0.6-0.3-0.6-0.6c0-0.4,0.3-0.6,0.6-0.8c0.3,0,0.6,0.3,0.6,0.6
			C255.5,79,255.2,79.3,254.8,79.3z M260.3,82.3c-0.2-0.8-0.5-1.3-1.4-1.3c-0.4,0-0.8,0.3-0.9,0.8v0.1c0,0.5,0.4,0.9,1.1,1.2
			c1.1,0.5,1.7,1,1.7,1.7c-0.1,1.1-1,1.8-2,1.8h-0.1c-0.5,0-1.1-0.1-1.5-0.3c-0.1-0.4-0.2-1.1-0.2-1.5l0.4-0.1
			c0.2,0.9,0.6,1.5,1.6,1.5c0.4,0,0.9-0.3,0.9-0.9v-0.1c0-0.5-0.3-0.9-1.1-1.2c-0.9-0.4-1.6-0.9-1.6-1.8c0.1-1,1-1.7,1.9-1.7h0.1
			c0.4,0,0.9,0.1,1.3,0.2c0,0.3,0.1,1.1,0.2,1.4L260.3,82.3L260.3,82.3z M266.3,83.1c1.4,0.1,3.1,0.6,3.1,2.4c0,0.9-0.4,1.7-1.2,2.1
			c-0.9,0.5-1.8,0.9-2.8,1l-0.1-0.4c0.8-0.1,3-0.5,3-2.4c0-1.4-1.5-1.6-2.8-1.7l0.5-3.2l3.2-0.2l-0.2,1l-2.7,0.2L266.3,83.1
			L266.3,83.1z M276.2,79c-1.7,0.3-3,1.5-3.6,3.1l0.8-0.3c0.3-0.1,0.5-0.2,0.9-0.2c1.2,0,2.1,1,2.1,2.1v0.2c0,1.5-1.1,2.7-2.6,2.7
			h-0.1c-1.3,0-2.6-1.1-2.6-3.1c0.1-2,1.4-3.8,3.3-4.5c0.5-0.2,1.1-0.3,1.6-0.4L276.2,79L276.2,79z M273.5,82.2
			c-0.3,0-0.8,0.1-1.1,0.3c-0.1,0.3-0.1,0.6-0.1,1c0,1.7,0.8,2.7,1.6,2.7c0.6,0,1.3-0.4,1.3-1.7C275.2,83.4,274.9,82.2,273.5,82.2
			L273.5,82.2z M282.6,80.9c-0.6,1.1-2.3,4.2-3.9,7.4l-1,0.2l-0.1-0.2c1.4-2.1,2.8-4.4,4-6.6h-4v-1h4.8L282.6,80.9z M286.4,78.6
			c1.1-0.1,1.9,0.8,2,1.8v0.1c0,0.3-0.1,0.6-0.3,1c-0.3,0.3-0.6,0.5-1,0.8c0.9,0.5,1.6,1.1,1.6,2.1c0,1.3-1.1,2.3-2.4,2.3h-0.1
			c-1.2,0.1-2.3-0.8-2.4-1.9v-0.1c0-0.4,0.2-0.9,0.5-1.2c0.3-0.3,0.8-0.5,1.1-0.8c-0.8-0.3-1.3-1.1-1.3-1.9
			C284.2,79.4,285.2,78.6,286.4,78.6L286.4,78.6z M286.4,86.1c0.8,0,1.2-0.5,1.2-1.5s-0.9-1.4-1.7-1.9c-0.6,0.3-1,1-1,1.7
			c-0.1,0.9,0.5,1.6,1.4,1.7L286.4,86.1L286.4,86.1z M286.1,79c-0.6,0-1.1,0.4-1.1,1.1v0.2c0,1,0.6,1.3,1.5,1.7
			c0.4-0.3,0.8-0.9,0.8-1.5C287.3,79.4,286.8,79,286.1,79L286.1,79z M295.2,84.7l-0.4,1.7h-4.6v-0.3c1.2-0.9,3-2.1,3-3.5
			c0.1-0.5-0.3-1.2-0.9-1.2H292c-0.6,0.1-1.1,0.4-1.4,1l-0.3-0.2l0.6-0.9c0.4-0.4,1-0.8,1.5-0.6c1,0,1.8,0.6,1.8,1.7v0.1
			c0,0.6-0.3,1.3-0.9,1.7c-0.4,0.4-1,0.9-1.7,1.5h2c0.5,0,0.6-0.1,1.1-0.9L295.2,84.7L295.2,84.7z M303.8,85.3
			c-0.5,0.8-1.3,1.2-2.1,1.3c-1.4,0-2.6-1.2-2.6-2.6v-0.1c0-0.9,0.3-1.6,0.9-2.3c0.4-0.5,1.2-1,1.9-1c1.1,0,1.9,0.9,1.9,2
			c0,0.2,0,0.4-0.2,0.4s-1.9,0.1-3.4,0.2c0,1.7,1.1,2.5,1.9,2.5c0.5,0,1.1-0.2,1.5-0.6L303.8,85.3L303.8,85.3z M301.6,81.1
			c-0.5,0-1.2,0.5-1.4,1.6h2.1c0.2,0,0.3-0.1,0.3-0.2c0.1-0.6-0.4-1.3-1.1-1.3C301.7,81.1,301.7,81.1,301.6,81.1L301.6,81.1z
			 M307.6,86.4v-0.3c0.5-0.1,0.6-0.1,0.4-0.5l-1-1.5c-0.3,0.4-0.5,1-0.9,1.4c-0.3,0.4-0.2,0.5,0.4,0.6v0.3h-2.5v-0.3
			c0.6,0,1.2-0.3,1.5-0.9s0.6-1,1.1-1.6l-1.1-1.7c-0.2-0.5-0.8-0.9-1.3-0.9v-0.3h2.6v0.3c-0.5,0.1-0.5,0.2-0.3,0.5l0.8,1.2
			c0.2-0.4,0.5-0.9,0.8-1.2c0.2-0.3,0.1-0.4-0.4-0.5v-0.3h2.4v0.3c-0.6,0-1.2,0.3-1.5,0.9c-0.2,0.2-0.5,0.6-1,1.3l1.2,1.9
			c0.5,0.8,0.6,0.9,1.4,1v0.3H307.6L307.6,86.4z M315.3,85.3c-0.5,0.8-1.3,1.2-2.1,1.3c-1.4,0-2.6-1.2-2.6-2.6v-0.1
			c0-0.9,0.3-1.6,0.9-2.3c0.4-0.5,1.2-1,1.9-1c1.1,0,1.9,0.9,1.9,2c0,0.2,0,0.4-0.2,0.4c-0.2,0-1.9,0.1-3.4,0.2
			c0,1.7,1.1,2.5,1.9,2.5c0.5,0,1.1-0.2,1.5-0.6L315.3,85.3L315.3,85.3z M313.1,81.1c-0.5,0-1.2,0.5-1.4,1.6h2.1
			c0.2,0,0.3-0.1,0.3-0.2c0.1-0.6-0.4-1.3-1.1-1.3C313.2,81.1,313.1,81.1,313.1,81.1L313.1,81.1z M319.1,86.4h-3v-0.3
			c0.9-0.1,0.9-0.1,0.9-1v-2.7c0-0.9,0-0.9-0.9-1v-0.3c0.6-0.1,1.3-0.3,1.8-0.5V82c0.4-0.6,1-1.4,1.6-1.4c0.3,0,0.6,0.2,0.8,0.5
			c0,0.3-0.2,0.5-0.4,0.8c-0.1,0.1-0.2,0.1-0.3,0c-0.1-0.2-0.3-0.3-0.5-0.3c-0.2,0-0.8,0.4-1.1,1.1V85c0,0.9,0.1,1,1.1,1L319.1,86.4
			L319.1,86.4z M325.6,85.2c-0.5,0.8-1.3,1.2-2.1,1.3c-1.4,0-2.6-1.2-2.6-2.6v-0.1c0-1,0.4-1.9,1.3-2.6c0.5-0.4,1.3-0.8,1.9-0.8
			c0.4,0,0.9,0.1,1.2,0.3c0.2,0.1,0.2,0.2,0.2,0.4c0,0.3-0.2,0.5-0.4,0.5c-0.1,0-0.1,0-0.2-0.1c-0.3-0.3-0.9-0.5-1.3-0.5
			c-0.9,0-1.6,0.8-1.6,2c-0.1,1.2,0.8,2.3,1.9,2.4h0.1c0.6,0,1.2-0.2,1.6-0.8V85.2L325.6,85.2z M326.4,86.4v-0.3
			c0.9-0.1,0.9-0.1,0.9-1.1v-2.7c0-0.8,0-0.9-0.9-1v-0.3c0.6-0.1,1.3-0.3,1.8-0.5v4.4c0,0.9,0.1,1,1,1.1v0.3L326.4,86.4L326.4,86.4z
			 M327.6,79.3c-0.3,0-0.6-0.3-0.6-0.6c0-0.4,0.3-0.6,0.6-0.8c0.3,0,0.6,0.3,0.6,0.6C328.3,79,328.1,79.2,327.6,79.3z M169.9,101.9
			c-0.2,0.1-0.3,0.1-0.5,0.2c-0.9,0-1.3-0.5-1.3-1.5v-3.8h-0.9v-0.1l0.3-0.4h0.5v-1.1c0.2-0.2,0.6-0.5,0.9-0.9h0.2v1.9h1.5
			c0.1,0.2,0.1,0.4-0.1,0.5h-1.4v3.3c0,1.1,0.4,1.2,0.8,1.2s0.5-0.1,0.8-0.2l0.1,0.3L169.9,101.9L169.9,101.9z M175.4,102
			c-0.2,0-0.4-0.1-0.6-0.2c-0.1-0.2-0.2-0.3-0.3-0.5c-0.4,0.4-1,0.6-1.5,0.9c-0.9,0-1.6-0.8-1.6-1.6c0-0.6,0.4-1.2,1.1-1.3
			c0.8-0.2,1.4-0.4,2-0.9v-0.2c0-1-0.4-1.4-1.1-1.4c-0.2,0-0.4,0.1-0.6,0.3c-0.1,0.2-0.3,0.5-0.3,0.9c0,0.2-0.2,0.3-0.4,0.3
			c-0.3,0-0.5-0.2-0.5-0.5c0-0.2,0.2-0.3,0.4-0.5c0.5-0.4,1.2-0.8,1.8-0.9c0.4,0,0.8,0.1,1.1,0.3c0.4,0.3,0.6,1,0.6,1.5v2.5
			c0,0.6,0.2,0.8,0.4,0.8s0.3-0.1,0.4-0.1l0.1,0.3L175.4,102L175.4,102z M174.4,98.7c-0.3,0.1-0.9,0.4-1.2,0.5
			c-0.5,0.2-0.8,0.4-0.8,1s0.3,1,0.9,1c0.4,0,0.8-0.2,1.1-0.4V98.7z M179.5,101.9c-0.2,0.1-0.3,0.1-0.5,0.2c-0.9,0-1.3-0.5-1.3-1.5
			v-3.8h-0.9v-0.1l0.3-0.4h0.6v-1.1c0.2-0.2,0.6-0.5,0.9-0.9h0.2v1.9h1.5c0.1,0.2,0.1,0.4-0.1,0.5h-1.4v3.3c0,1.1,0.4,1.2,0.8,1.2
			c0.3,0,0.5-0.1,0.8-0.2l0.1,0.3L179.5,101.9L179.5,101.9z M180.9,101.9v-0.3c0.9-0.1,0.9-0.1,0.9-1.1v-2.7c0-0.8,0-0.9-0.9-1v-0.3
			c0.6-0.1,1.3-0.3,1.8-0.5v4.4c0,0.9,0.1,1,1,1.1v0.3L180.9,101.9L180.9,101.9z M182.2,94.8c-0.3,0-0.6-0.3-0.6-0.6
			c0-0.4,0.3-0.6,0.6-0.8c0.3,0,0.6,0.3,0.6,0.6C182.9,94.5,182.6,94.8,182.2,94.8z M187.2,96.1c1.5,0,2.8,1.2,2.8,2.7v0.1
			c0.1,1.6-1.1,3-2.7,3.1h-0.1c-1.6,0-2.8-1.2-2.9-2.8v-0.1C184.3,97.5,185.5,96.2,187.2,96.1z M187.1,96.5c-0.8,0-1.5,0.8-1.5,2.3
			c0,1.5,0.8,2.8,1.8,2.8c0.8,0,1.5-0.5,1.5-2.4C188.8,97.7,188.2,96.5,187.1,96.5z M194.5,101.9v-0.3c0.8-0.1,0.9-0.2,0.9-1.1v-2.1
			c0-0.9-0.3-1.5-1.2-1.5c-0.5,0.1-1.1,0.3-1.4,0.8v3c0,0.9,0.1,1,0.9,1v0.3h-2.8v-0.3c0.9-0.1,1-0.1,1-1V98c0-0.9-0.1-0.9-0.8-1
			v-0.3c0.6-0.1,1.2-0.2,1.8-0.5v1.1l0.9-0.6c0.3-0.2,0.6-0.3,1.1-0.4c1.1,0,1.7,0.8,1.7,2v2.5c0,0.9,0.1,1,0.9,1v0.2L194.5,101.9
			L194.5,101.9z M207.1,101.5c-0.6,0.1-1.3,0.2-1.9,0.4v-1c-0.5,0.5-1.2,0.9-1.9,1c-0.9,0-1.6-0.5-1.6-1.9v-2.5
			c0-0.6-0.1-0.8-0.4-0.9l-0.3-0.1v-0.3c0.6,0,1.3-0.1,1.8-0.2v3.6c0,1.1,0.6,1.5,1.2,1.5s1.1-0.2,1.4-0.6v-3c0-0.6-0.1-0.8-0.6-0.9
			h-0.4v-0.3c0.6,0,1.4-0.1,2-0.2v4.3c0,0.6,0.1,0.8,0.6,0.8h0.3L207.1,101.5L207.1,101.5z M207.7,101.9v-0.3c0.9-0.1,1-0.1,1-1
			v-6.1c0-0.8-0.1-0.9-0.9-1v-0.4c0.6-0.1,1.3-0.2,1.9-0.4v7.9c0,0.9,0.1,1,1,1v0.3H207.7L207.7,101.9z M211.1,101.9v-0.3
			c0.9-0.1,1-0.1,1-1v-6.1c0-0.8-0.1-0.9-0.9-1v-0.4c0.6-0.1,1.3-0.2,1.9-0.4v7.9c0,0.9,0.1,1,1,1v0.3H211.1L211.1,101.9z
			 M218.6,102c-0.2,0-0.4-0.1-0.6-0.2c-0.1-0.2-0.2-0.3-0.3-0.5c-0.4,0.4-1,0.6-1.5,0.9c-0.9,0-1.6-0.8-1.6-1.6
			c0-0.6,0.4-1.2,1.1-1.3c0.8-0.2,1.4-0.4,2-0.9v-0.2c0-1-0.4-1.4-1.2-1.4c-0.2,0-0.4,0.1-0.6,0.3c-0.1,0.2-0.3,0.5-0.3,0.9
			c0,0.2-0.2,0.3-0.4,0.3c-0.3,0-0.5-0.2-0.5-0.5c0-0.2,0.2-0.3,0.4-0.5c0.5-0.4,1.2-0.8,1.8-0.9c0.4,0,0.8,0.1,1.1,0.3
			c0.4,0.3,0.6,1,0.6,1.5v2.5c0,0.6,0.2,0.8,0.4,0.8c0.2,0,0.3-0.1,0.4-0.1l0.1,0.3L218.6,102L218.6,102z M217.7,98.7
			c-0.3,0.1-0.9,0.4-1.2,0.5c-0.5,0.2-0.8,0.4-0.8,1s0.3,1,0.9,1c0.4,0,0.8-0.2,1.1-0.4V98.7z M227.4,101.9v-0.3
			c0.8-0.1,0.9-0.1,0.9-1.1v-2.1c0-1-0.3-1.5-1.1-1.5c-0.5,0-1.1,0.3-1.4,0.6v3c0,0.9,0.1,0.9,0.9,1v0.4h-2.8v-0.3
			c0.9-0.1,1-0.1,1-1v-2.3c0-1-0.3-1.5-1.1-1.5c-0.5,0.1-1.1,0.3-1.4,0.6v3c0,0.9,0.1,0.9,0.9,1v0.3h-2.8v-0.3c0.9-0.1,1-0.1,1-1
			v-2.7c0-0.9-0.1-0.9-0.8-1v-0.3c0.6-0.1,1.2-0.2,1.8-0.5V97l1-0.6c0.3-0.2,0.6-0.3,1-0.3c0.6,0,1.2,0.4,1.4,1.1
			c0.3-0.3,0.6-0.5,1-0.8c0.3-0.2,0.6-0.3,1.1-0.3c1,0,1.6,0.8,1.6,2v2.5c0,0.9,0.1,0.9,0.9,1v0.3H227.4L227.4,101.9z M235.7,100.8
			c-0.5,0.8-1.3,1.2-2.3,1.3c-1.4,0-2.6-1.2-2.6-2.6v-0.1c0-1,0.4-1.9,1.3-2.6c0.5-0.4,1.3-0.8,1.9-0.8c0.4,0,0.9,0.1,1.2,0.3
			c0.1,0.1,0.2,0.2,0.2,0.4c0,0.3-0.2,0.5-0.4,0.5c-0.1,0-0.1,0-0.2-0.1c-0.3-0.3-0.9-0.5-1.3-0.5c-0.9,0-1.6,0.8-1.6,2
			c-0.1,1.2,0.8,2.3,1.9,2.4h0.1c0.6,0,1.2-0.2,1.6-0.8L235.7,100.8L235.7,100.8z M239.2,96.1c1.5,0,2.8,1.2,2.8,2.7v0.1
			c0.1,1.6-1.1,3-2.7,3.1h-0.1c-1.6,0-2.8-1.2-2.9-2.8v-0.1C236.3,97.5,237.5,96.2,239.2,96.1z M239,96.5c-0.8,0-1.5,0.8-1.5,2.3
			c0,1.5,0.8,2.8,1.8,2.8c0.8,0,1.5-0.5,1.5-2.4C240.8,97.7,240.2,96.5,239,96.5z M245.7,101.9h-3v-0.3c0.9-0.1,0.9-0.1,0.9-1v-2.7
			c0-0.9,0-0.9-0.8-1v-0.3c0.6-0.1,1.3-0.3,1.8-0.5v1.4c0.4-0.6,1-1.4,1.6-1.4c0.3,0,0.8,0.2,0.8,0.5c0,0.3-0.2,0.5-0.4,0.8
			c-0.1,0.1-0.2,0.1-0.3,0c-0.1-0.2-0.3-0.3-0.5-0.3s-0.8,0.4-1.1,1.1v2.4c0,0.9,0.1,1,1.1,1V101.9L245.7,101.9z M247.8,96.5
			c0.6-0.1,1.3-0.3,1.8-0.5V97l1.1-0.6c0.2-0.1,0.5-0.2,0.8-0.2c1.3,0,2.3,1.1,2.3,2.4v0.1c-0.1,1.8-1.4,3.3-3.2,3.5
			c-0.3,0-0.6-0.1-0.9-0.2v1.7c0,1,0.1,1.1,1.1,1.1v0.4h-3v-0.3c0.9-0.1,1-0.1,1-1V98c0-0.8,0-0.9-0.9-1L247.8,96.5L247.8,96.5z
			 M249.6,100.9c0.3,0.3,0.8,0.5,1.2,0.5c1.1,0,1.8-1,1.8-2.4s-0.9-2.1-1.7-2.1c-0.5,0-1,0.2-1.3,0.5V100.9z M259.5,100.8
			c-0.5,0.8-1.3,1.2-2.1,1.3c-1.4,0-2.6-1.2-2.6-2.6v-0.1c0-0.9,0.3-1.6,0.9-2.3c0.4-0.5,1.2-1,1.9-1c1.1,0,1.9,0.9,1.9,2
			c0,0.2-0.1,0.4-0.2,0.4s-1.9,0.1-3.4,0.2c0,1.7,1,2.5,1.9,2.5c0.5,0,1.1-0.2,1.5-0.6L259.5,100.8L259.5,100.8z M257.2,96.5
			c-0.6,0-1.2,0.5-1.4,1.6h2.3c0.2,0,0.3-0.1,0.3-0.2c0.1-0.6-0.4-1.3-1.1-1.3C257.3,96.5,257.3,96.5,257.2,96.5L257.2,96.5z
			 M263.3,101.9h-3v-0.3c0.9-0.1,0.9-0.1,0.9-1v-2.7c0-0.9,0-0.9-0.8-1v-0.3c0.6-0.1,1.2-0.3,1.8-0.5v1.4c0.4-0.6,1-1.4,1.6-1.4
			c0.3,0,0.8,0.2,0.8,0.5c0,0.3-0.2,0.5-0.4,0.8c-0.1,0.1-0.2,0.1-0.3,0c-0.1-0.2-0.3-0.3-0.5-0.3s-0.8,0.4-1.1,1.1v2.4
			c0,0.9,0.1,1,1.1,1V101.9L263.3,101.9z M271.5,97.8c-0.2-0.8-0.5-1.3-1.4-1.3c-0.4,0-0.8,0.3-0.8,0.8v0.1c0,0.5,0.4,0.9,1.1,1.2
			c1.1,0.5,1.6,1,1.6,1.7c-0.1,1.1-1,1.8-2,1.8h-0.1c-0.5,0-1.1-0.1-1.5-0.3c-0.1-0.4-0.2-1.1-0.2-1.5l0.4-0.1
			c0.2,0.9,0.6,1.5,1.6,1.5c0.4,0,0.9-0.3,1-0.8v-0.1c0-0.5-0.3-0.9-1.1-1.2c-0.9-0.4-1.6-0.9-1.6-1.8c0.1-1,1-1.7,1.9-1.7h0.1
			c0.4,0,0.9,0.1,1.2,0.2c0,0.3,0.1,1.1,0.2,1.4L271.5,97.8z M279,101.5c-0.6,0.1-1.3,0.2-1.9,0.4v-1c-0.5,0.5-1.2,0.9-1.9,1
			c-0.9,0-1.6-0.5-1.6-1.9v-2.5c0-0.6-0.1-0.8-0.4-0.9l-0.3-0.1v-0.3c0.6,0,1.2-0.1,1.8-0.2v3.6c0,1.1,0.5,1.5,1.2,1.5
			c0.5,0,1-0.2,1.4-0.6v-3c0-0.6-0.1-0.8-0.5-0.9h-0.4v-0.3c0.6,0,1.4-0.1,2-0.2v4.3c0,0.6,0.1,0.8,0.5,0.8h0.3L279,101.5L279,101.5
			z M282.9,97.8c-0.2-0.8-0.5-1.3-1.4-1.3c-0.4,0-0.8,0.3-0.8,0.8v0.1c0,0.5,0.3,0.9,1.1,1.2c1.1,0.5,1.6,1,1.6,1.7
			c-0.1,1.1-1,1.8-2,1.8h-0.1c-0.5,0-1.1-0.1-1.5-0.3c-0.1-0.4-0.2-1.1-0.2-1.5l0.4-0.1c0.2,0.9,0.6,1.5,1.6,1.5
			c0.4,0,0.9-0.3,0.9-0.9v-0.1c0-0.5-0.3-0.9-1.1-1.2c-0.9-0.4-1.6-0.9-1.6-1.8c0.1-1,1-1.7,1.9-1.7h0.1c0.4,0,0.9,0.1,1.2,0.2
			c0,0.3,0.1,1.1,0.2,1.4L282.9,97.8L282.9,97.8z M289.3,100.8c-0.5,0.8-1.3,1.2-2.1,1.3c-1.4,0-2.6-1.2-2.6-2.6v-0.1
			c0-1,0.4-1.9,1.3-2.6c0.5-0.4,1.3-0.8,1.9-0.8c0.4,0,0.9,0.1,1.2,0.3c0.1,0.1,0.2,0.2,0.2,0.4c0,0.3-0.2,0.5-0.4,0.5
			c-0.1,0-0.1,0-0.2-0.1c-0.3-0.3-0.9-0.5-1.3-0.5c-0.9,0-1.6,0.8-1.6,2c-0.1,1.2,0.8,2.3,1.9,2.4h0.1c0.6,0,1.2-0.2,1.6-0.8V100.8
			L289.3,100.8z M290,101.9v-0.3c0.9-0.1,0.9-0.1,0.9-1.1v-2.7c0-0.8,0-0.9-0.9-1v-0.3c0.6-0.1,1.3-0.3,1.8-0.5v4.4
			c0,0.9,0.1,1,1,1.1v0.3L290,101.9L290,101.9z M291.3,94.8c-0.3,0-0.6-0.3-0.6-0.6c0-0.4,0.3-0.6,0.6-0.8c0.3,0,0.6,0.3,0.6,0.6
			C292,94.5,291.7,94.8,291.3,94.8z M293.3,96.5c0.6-0.1,1.3-0.3,1.8-0.5V97l1.1-0.6c0.2-0.1,0.5-0.2,0.8-0.2c1.3,0,2.3,1.1,2.3,2.4
			v0.1c-0.1,1.8-1.4,3.3-3.2,3.5c-0.3,0-0.6-0.1-1-0.2v1.7c0,1,0.1,1.1,1.1,1.1v0.4h-3v-0.3c0.9-0.1,1-0.1,1-1V98c0-0.8,0-0.9-0.9-1
			L293.3,96.5L293.3,96.5z M295.3,100.9c0.3,0.3,0.8,0.5,1.2,0.5c1.1,0,1.8-1,1.8-2.4s-0.9-2.1-1.7-2.1c-0.5,0.1-1,0.2-1.3,0.5
			V100.9z M300.2,101.9v-0.3c0.9-0.1,0.9-0.1,0.9-1.1v-2.7c0-0.8,0-0.9-0.9-1v-0.3c0.6-0.1,1.3-0.3,1.8-0.5v4.4c0,0.9,0.1,1,1,1.1
			v0.3L300.2,101.9L300.2,101.9z M301.6,94.8c-0.3,0-0.6-0.3-0.6-0.6c0-0.4,0.3-0.6,0.6-0.8c0.3,0,0.6,0.3,0.6,0.6
			C302.2,94.5,302,94.8,301.6,94.8z M306.2,101.9c-0.2,0.1-0.3,0.1-0.5,0.2c-0.9,0-1.3-0.5-1.3-1.5v-3.8h-0.9v-0.1l0.3-0.4h0.5v-1.1
			c0.2-0.2,0.6-0.5,0.9-0.9h0.2v1.9h1.5c0.1,0.2,0.1,0.4-0.1,0.5h-1.5v3.3c0,1.1,0.4,1.2,0.8,1.2c0.3,0,0.5-0.1,0.8-0.2l0.1,0.3
			L306.2,101.9z M310.4,101.9v-0.3c0.9-0.1,1-0.1,1-1v-6.1c0-0.8-0.1-0.9-0.9-1v-0.4c0.6-0.1,1.3-0.2,1.9-0.4v7.9c0,0.9,0.1,1,1,1
			v0.3H310.4z M316.8,96.1c1.5,0,2.8,1.2,2.8,2.7V99c0.1,1.6-1.1,3-2.7,3.1h-0.1c-1.6,0-2.8-1.2-2.9-2.8v-0.1
			C313.8,97.5,315.1,96.2,316.8,96.1C316.7,96.1,316.8,96.1,316.8,96.1z M316.6,96.5c-0.8,0-1.5,0.8-1.5,2.3c0,1.5,0.8,2.8,1.7,2.8
			c0.8,0,1.5-0.5,1.5-2.4C318.4,97.7,317.8,96.5,316.6,96.5z M323.1,96.2c0.2-0.1,0.3-0.1,0.5-0.1c1.5,0,2.6,1.3,2.6,2.7
			c0,1.8-1.4,3.2-3.2,3.2c-0.6,0-1.4-0.2-2-0.4v-7.2c0-0.8,0-0.9-0.9-1v-0.3c0.6-0.1,1.3-0.2,1.9-0.4v4.1L323.1,96.2z M322.1,100.3
			c0,0.1,0,0.3,0.1,0.4c0.3,0.4,0.8,0.8,1.3,0.6c1.1,0,1.6-1,1.6-2.4c0.1-1.2-0.6-2.1-1.8-2.4h-0.1c-0.3,0-0.8,0.1-1.1,0.2V100.3z
			 M330.1,96.1c1.5,0,2.8,1.2,2.8,2.7V99c0.1,1.6-1.1,3-2.7,3.1h-0.1c-1.6,0-2.8-1.2-2.9-2.8v-0.1C327.2,97.5,328.4,96.2,330.1,96.1
			z M330,96.5c-0.8,0-1.5,0.8-1.5,2.3c0,1.5,0.8,2.8,1.7,2.8c0.9,0,1.5-0.5,1.5-2.4C331.7,97.7,331.1,96.5,330,96.5z M336.8,101.9
			h-3v-0.3c0.9-0.1,0.9-0.1,0.9-1v-2.7c0-0.9,0-0.9-0.9-1v-0.3c0.6-0.1,1.3-0.3,1.8-0.5v1.4c0.4-0.6,1-1.4,1.6-1.4
			c0.3,0,0.6,0.2,0.8,0.5c0,0.3-0.2,0.5-0.4,0.8c-0.1,0.1-0.2,0.1-0.3,0c-0.1-0.2-0.3-0.3-0.5-0.3c-0.2,0-0.8,0.4-1.1,1.1v2.4
			c0,0.9,0.1,1,1.1,1L336.8,101.9L336.8,101.9z M341.4,101.9c-0.2,0.1-0.3,0.1-0.5,0.2c-0.9,0-1.3-0.5-1.3-1.5v-3.8h-1v-0.1l0.3-0.4
			h0.5v-1.1c0.2-0.2,0.6-0.5,0.9-0.9h0.2v1.9h1.5c0.1,0.2,0.1,0.4-0.1,0.5h-1.4v3.3c0,1.1,0.4,1.2,0.8,1.2c0.3,0,0.5-0.1,0.8-0.2
			l0.1,0.3L341.4,101.9z M343.9,102.1c-0.4,0-0.8-0.3-0.8-0.8v-0.1c0-0.4,0.3-0.8,0.8-0.9h0.1c0.4,0,0.8,0.3,0.9,0.8
			C344.8,101.6,344.5,102,343.9,102.1z"/>
	</g>
</g>
</svg>
