<svg xmlns="http://www.w3.org/2000/svg" viewBox="0 0 349.09 388.11" width="349.09" height="388.11"><defs><style>.bef07fd3-e5dd-417a-98ea-d69874527242{fill:none;stroke:#00aeff;stroke-miterlimit:10;stroke-width:.5px}.ba14d489-6f2b-41c7-b864-9efa7619d1bf{fill:#2997ff}.b1921560-a8f9-4f47-aff1-745c8a8f011f{fill:#505050}</style></defs><g id="b877493d-9141-4efa-b2d7-eb65f1c4ce25"><g id="ac78315b-56e4-4e19-bb15-0a221950f9bf"><path d="M0 53.78h349.09M0 31.65h349.09" class="bef07fd3-e5dd-417a-98ea-d69874527242"/><path d="M11.67 54.63v-1.36c5.4-.34 5.69-.59 5.69-4.24V30.35c0-2.48-.34-2.57-2.48-2.77l-2.38-.24v-1.22a39.88 39.88 0 0 0 8.9-2.38V49c0 3.7.29 3.9 5.74 4.24v1.36zm52.39-6.47c-.63 2.19-1.46 4.67-2 6.47H43.78v-1.17c2.67-2.63 5.59-5.5 8-8.27 3.07-3.6 6-7.49 6-11.72 0-4-2.14-6.37-5.69-6.37-3.36 0-5.45 2.62-6.72 4.52l-1.12-1L47 26.66a8.82 8.82 0 0 1 6.66-2.92c4.62 0 8.27 3.16 8.27 8.41 0 4.14-1.51 7.06-6.13 11.78-2.09 2.19-5.16 5.15-7.25 7.15h9.29c2.63 0 3.36-.25 5-3.31zm15.71-18.58l2.29-3.07a8.55 8.55 0 0 1 6.27-2.77c4.43 0 7.35 2.77 7.35 6.47a5.26 5.26 0 0 1-1.51 3.6 20.61 20.61 0 0 1-3.45 2.63c4.52 1 7.2 3.94 7.2 7.49 0 7.93-9.34 11.28-12.8 11.28a7.89 7.89 0 0 1-5.06-1.7 2.18 2.18 0 0 1-.73-1.61 2.87 2.87 0 0 1 1.12-1.84.92.92 0 0 1 1.27 0 8.92 8.92 0 0 0 6 2.58c3.5 0 6-2.62 6-7.34 0-4.48-3.31-6.23-6.42-6.23a12 12 0 0 0-3.26.54l-.34-1.46c4.33-1.41 7.83-3.36 7.83-7 0-2.87-1.85-4.52-4.67-4.52s-4.81 2-6.08 3.84zm49.96 16.19v3.7c0 3.21.19 3.46 3.65 3.8v1.36H122v-1.36c3.65-.34 3.9-.64 3.9-3.85v-3.65H113v-1.45c4.62-6.57 9.63-13.67 14.5-20.44h2.19v19.56h4.77v2.33zM125.89 29c-3.07 4.48-6.47 9.44-9.83 14.45h9.83zm40.95-4.68l.29.39-1.26 3.21h-11.19c-.44 2.68-1.07 6.47-1.51 8.86a22.46 22.46 0 0 1 5.74-1.42c6 0 9.15 4.24 9.15 8.27a10.34 10.34 0 0 1-4.18 8.18 14.94 14.94 0 0 1-8.61 3.4 7.21 7.21 0 0 1-5.06-1.9c-.68-.63-.88-1-.78-1.65a2.49 2.49 0 0 1 1-1.65 1 1 0 0 1 1.36 0 8.55 8.55 0 0 0 6.13 2.67c4.09 0 6-3.5 6-7.15 0-4.28-2.57-7.34-8-7.34a14.5 14.5 0 0 0-4.87.87l-.15-.19c.73-3.8 1.8-10.66 2.34-14.55zM192 36.29a6.87 6.87 0 0 1 3.11-.83 8.65 8.65 0 0 1 8.71 9c0 5.84-4.18 10.75-10 10.75s-10.12-4.72-10.12-12.16c0-10 7.64-16.34 13.48-18.34a41 41 0 0 1 5.49-1.26l.3 1.6a28.42 28.42 0 0 0-5.31 1.66 15.43 15.43 0 0 0-8.9 11.23zm1.17 1.94a9.59 9.59 0 0 0-4.72 1.37 16.65 16.65 0 0 0-.29 3.3c0 6.09 2.28 10.56 6.42 10.56 3.79 0 5-4 5-7.25-.05-4.03-2-7.98-6.42-7.98zM239.18 25c-4.67 9.87-9.2 19.7-13.92 29.77l-3.5.34-.34-.54a270.69 270.69 0 0 0 14.25-26.61h-10.41c-3.16 0-3.35.44-4.67 3.65h-1.51c.49-2.72.69-5.16.93-7.25h18.87zm24.75-1.26c4.67 0 7.93 3.26 7.93 7.2a5.94 5.94 0 0 1-1.36 3.94 41.89 41.89 0 0 1-4 3.11c3.36 1.85 6.67 4.19 6.67 8.42 0 5.69-5.16 8.8-9.78 8.8-5.4 0-9.39-3.11-9.39-8a5.78 5.78 0 0 1 2.24-4.82 44.77 44.77 0 0 1 4.38-3c-3.16-1.84-5.4-4.18-5.4-7.63-.04-4.28 3.41-8.02 8.71-8.02zm0 29.82c3.26 0 5.26-2.14 5.26-5.69 0-3.89-3.26-5.79-7.2-7.69a7.46 7.46 0 0 0-4.09 6.67c0 4.47 2.82 6.71 6.03 6.71zm-.63-28.22c-2.92 0-4.43 2.29-4.43 5 0 3.56 2.39 4.87 6.18 6.86a7.08 7.08 0 0 0 3.21-6c0-4.1-2.43-5.86-4.96-5.86zm40.18 15.18l-3.26 1.66a6.33 6.33 0 0 1-2.92.72c-5.2 0-8.75-4-8.75-9.09a10 10 0 0 1 10-10.07c6.27 0 9.78 5.54 9.78 12.16A19.35 19.35 0 0 1 296 54.09a22.89 22.89 0 0 1-5.79 1.27l-.4-1.36a16.47 16.47 0 0 0 13.67-13.48zm-5.54-15.08c-3.8 0-5.11 3.6-5.11 7 0 4.28 2.38 7.83 6.47 7.83a7.47 7.47 0 0 0 4.38-1.41 25.54 25.54 0 0 0 .19-3.16c0-4.32-1.22-10.26-5.93-10.26zm35.5-1.7c7.3 0 10 8.17 10 15.71 0 7.1-2.73 15.76-10 15.76s-10.16-8-10.16-15.71c0-7.1 2.77-15.76 10.16-15.76zm0 1.7c-4.52 0-5.64 7.15-5.64 14s1.36 14.11 5.64 14.11 5.56-7.29 5.56-14.1-1.23-14.01-5.56-14.01z" transform="translate(0 -.84)"/><path d="M0 146.12h349.09M0 123.99h349.09M0 240.27h349.09M0 218.14h349.09" class="bef07fd3-e5dd-417a-98ea-d69874527242"/><path d="M11.91 241.12v-1.41l3.12-.3c2.19-.19 2.43-.63 2.43-3.06v-10.8c0-2.53-.24-2.82-2.09-3l-2.92-.19V221a40.05 40.05 0 0 0 8.9-2.05v17.37c0 2.43.24 2.87 2.63 3.06l3 .3v1.41zM64 234.74l-1.5 6.38H45.09V240c4.28-3.21 11.28-8.17 11.28-13.23 0-2.44-1.36-4.62-4.42-4.62-2.58 0-4.43 2.33-5.4 3.64l-1.17-1 2.34-3.16a7.14 7.14 0 0 1 5.83-2.63 6.7 6.7 0 0 1 7.06 6.86c0 2.82-1.71 4.92-3.41 6.52-1.51 1.46-3.65 3.16-6.37 5.45h7.73c2.19 0 2.48-.54 4-3.36zm17.28-10.65l2.14-2.82a7.25 7.25 0 0 1 5.25-2.27c3.85 0 6.33 2.48 6.33 6a5.35 5.35 0 0 1-1.46 3.55c-.68.68-1.7 1.36-2.92 2.43 3.94.78 6.47 3.55 6.47 6.95 0 7.54-8.9 11.1-11.63 11.1a6.45 6.45 0 0 1-4.08-1.46 1.62 1.62 0 0 1-.59-1.9 3 3 0 0 1 1.07-1.31.87.87 0 0 1 1.27 0 6.82 6.82 0 0 0 4.62 2c2.58 0 5.25-2.24 5.25-6.57s-2.77-6-5.64-6a9.37 9.37 0 0 0-2.87.44l-.34-1.41c4.47-1.8 7-3.8 7-6.81a3.67 3.67 0 0 0-3.9-4c-1.94 0-3.55 1.46-4.91 3.16zm53.26 15.23h-4.13v9.39h-3.84v-9.39h-12.65v-1.76c4.77-6.22 9.68-12.64 14.45-18.53h2v17.56H135zm-8-15.18c-3.46 4.52-6.33 8.22-9.39 12.45h9.39zm28.46 4.52c5.3.3 11.86 2.48 11.86 8.86a9.78 9.78 0 0 1-4.42 8 19.77 19.77 0 0 1-10.66 3.51l-.24-1.56c2.82-.44 11.24-2.14 11.24-9 0-5.16-5.55-6.32-10.31-6.42l2.12-12.05 12.11-1-.73 3.55-10.12.88zm48.76-15.56c-7.58 2-12.11 6.37-13.76 11.53l2.82-1.12a9.74 9.74 0 0 1 3.21-.88c4.52 0 8.27 3.31 8.27 8.76a10 10 0 0 1-9.92 10.31c-4.92 0-9.59-4-9.59-11.53 0-8 5.79-14.11 12.55-17a30.05 30.05 0 0 1 6.08-1.65zm-10.26 12.26a8.4 8.4 0 0 0-3.89 1.07 12.56 12.56 0 0 0-.34 3.45c0 6.32 2.67 10 6.08 10 2.38 0 4.82-1.7 4.82-6.32 0-3.63-1.37-8.2-6.67-8.2zm45.92-5.01c-2.24 4.08-8.46 15.85-14.79 28l-3.74.73-.34-.64a282.16 282.16 0 0 0 15.08-25.1h-15v-3.55h18.49zm25.49-8.81c4.47 0 7.54 3.11 7.54 7.1a5.44 5.44 0 0 1-1.36 3.6 31.43 31.43 0 0 1-3.6 2.82c3.06 1.8 6.17 4 6.17 8.22 0 5-4.23 8.42-9.24 8.42s-8.9-3.31-8.9-7.78a6.24 6.24 0 0 1 2.14-4.58 41 41 0 0 1 4-2.91c-2.73-1.56-5-3.85-5-7.25a7.84 7.84 0 0 1 8.25-7.64zm.1 28.56c2.82 0 4.67-1.95 4.67-5.6s-3.07-5.35-6.52-7.25c-2.68 1.9-3.8 4.09-3.8 6.33 0 4.13 2.78 6.52 5.64 6.52zm-.64-26.91c-2.77 0-4 2.44-4 4.67 0 3.46 2.62 4.77 5.78 6.38a6.31 6.31 0 0 0 2.73-5.5c-.03-3.74-2.37-5.55-4.51-5.55zm25.63 34.3c5.3-1.22 11.82-4.33 14.06-11.68l-1.85.83a9.53 9.53 0 0 1-3.94 1c-4 0-8.17-3.65-8.17-8.9a9.66 9.66 0 0 1 9.48-9.78c6.52 0 9.44 5.74 9.44 11.39 0 9-6.28 15-12.75 17.46a37.17 37.17 0 0 1-6 1.22zm8.8-26.76c-2.57 0-4.57 2.78-4.57 6.52 0 5.31 3.31 7.74 6.67 7.74a7 7 0 0 0 3.45-.88 18.25 18.25 0 0 0 .34-3.55c-.04-3.26-.96-9.83-5.93-9.83zm36.4-1.73c5.79 0 9.29 4.82 9.29 10.9 0 7.39-4.82 11.82-9.88 11.82-5.69 0-9.63-4.43-9.63-11.14S329.56 219 335.2 219zm-.78 2.14c-3.6 0-5.5 3-5.5 8.76 0 6.08 2.78 9.68 6.33 9.68s5.3-3.06 5.3-8.85c0-5.96-2.55-9.61-6.13-9.61zM9.73 147v-1.4l2.33-.29c1.8-.24 2.09-.68 2.09-3.07V131.4c0-2.53-.39-2.78-2.48-3l-1.56-.19v-1.32a36.63 36.63 0 0 0 7.93-2v17.41c0 2.39.39 2.83 2.14 3.07l2.34.29V147zm46.21-6.41L54.43 147H37.06v-1.12c4.28-3.21 11.29-8.17 11.29-13.23 0-2.43-1.36-4.62-4.43-4.62-2.58 0-4.42 2.34-5.4 3.65l-1.17-1 2.34-3.16a7.14 7.14 0 0 1 5.84-2.63 6.69 6.69 0 0 1 7 6.86c0 2.82-1.7 4.91-3.4 6.52-1.51 1.46-3.65 3.16-6.38 5.45h7.74c2.19 0 2.48-.54 4-3.36zm14.15-10.65l2.14-2.82a7.22 7.22 0 0 1 5.26-2.29c3.84 0 6.32 2.48 6.32 6a5.28 5.28 0 0 1-1.46 3.55c-.68.68-1.7 1.36-2.92 2.43 3.94.78 6.47 3.56 6.47 7 0 7.54-8.9 11.09-11.63 11.09a6.45 6.45 0 0 1-4.08-1.46 1.6 1.6 0 0 1-.59-1.89 3.06 3.06 0 0 1 1.07-1.32.87.87 0 0 1 1.27 0 6.83 6.83 0 0 0 4.62 2c2.58 0 5.25-2.24 5.25-6.57s-2.77-6-5.64-6a9.12 9.12 0 0 0-2.87.44l-.3-1.46c4.48-1.8 7-3.79 7-6.81a3.67 3.67 0 0 0-3.89-4c-2 0-3.56 1.46-4.92 3.16zm52.34 15.22H118v9.39h-3.9v-9.39h-12.73v-1.75c4.82-6.22 9.78-12.69 14.59-18.58H118v17.61h4.91zm-8.32-15.22c-3.45 4.47-6.37 8.27-9.43 12.5h9.43zm26.17 4.57c5.31.29 11.87 2.48 11.87 8.85a9.78 9.78 0 0 1-4.42 8 19.84 19.84 0 0 1-10.66 3.5l-.24-1.55c2.82-.44 11.24-2.15 11.24-9 0-5.16-5.55-6.33-10.32-6.42l2.14-12.07 12.12-1-.73 3.55-10.12.88zm47.33-15.57c-7.58 2-12.11 6.38-13.76 11.53l2.82-1.12a9.9 9.9 0 0 1 3.21-.87c4.52 0 8.27 3.31 8.27 8.75a10 10 0 0 1-9.92 10.32c-4.92 0-9.59-4-9.59-11.53 0-8 5.79-14.11 12.55-17a30.05 30.05 0 0 1 6.08-1.65zm-10.26 12.26a8.52 8.52 0 0 0-3.89 1.07 12.67 12.67 0 0 0-.34 3.46c0 6.32 2.67 10 6.08 10 2.38 0 4.82-1.71 4.82-6.33-.02-3.63-1.37-8.2-6.67-8.2zm45.29-5.01c-2.24 4.09-8.47 15.86-14.79 28l-3.75.73-.34-.63a280.26 280.26 0 0 0 15.08-25.1h-15v-3.55h18.46zm23.93-8.8c4.48 0 7.54 3.11 7.54 7.1a5.46 5.46 0 0 1-1.36 3.6 31.43 31.43 0 0 1-3.6 2.82c3.06 1.8 6.18 4 6.18 8.22 0 5-4.24 8.42-9.25 8.42s-8.9-3.31-8.9-7.79a6.2 6.2 0 0 1 2.14-4.57 40.74 40.74 0 0 1 4-2.92c-2.72-1.55-5-3.84-5-7.25a7.84 7.84 0 0 1 8.25-7.63zm.1 28.55c2.82 0 4.67-1.94 4.67-5.59s-3.07-5.35-6.52-7.25c-2.68 1.9-3.8 4.09-3.8 6.32-.02 4.14 2.78 6.52 5.65 6.52zM246 119c-2.78 0-4 2.43-4 4.67 0 3.45 2.62 4.77 5.79 6.37a6.31 6.31 0 0 0 2.72-5.49c0-3.71-2.33-5.55-4.51-5.55zm25.38 34.34c5.3-1.22 11.82-4.33 14.06-11.68l-1.85.83a9.69 9.69 0 0 1-3.94 1c-4 0-8.17-3.65-8.17-8.9a9.65 9.65 0 0 1 9.48-9.78c6.52 0 9.44 5.74 9.44 11.38 0 9-6.28 15-12.75 17.47a38.2 38.2 0 0 1-6 1.21zm8.8-26.76c-2.58 0-4.57 2.77-4.57 6.52 0 5.3 3.31 7.73 6.66 7.73a7 7 0 0 0 3.46-.87 18.33 18.33 0 0 0 .34-3.55c0-3.26-.92-9.83-5.89-9.83zm37.31-1.75c5.89 0 10.27 4.43 10.27 11 0 6.72-4.87 11.73-10.66 11.73-6.13 0-10.31-4.87-10.31-11.24s4.72-11.49 10.7-11.49zm-.58 2.43c-4.09 0-6.52 3.46-6.52 8.81 0 4.81 3 9 7.39 9.09 4.14 0 6.38-3.31 6.38-8.7 0-5.55-3.16-9.2-7.25-9.2zM5 9.22h3.42l-.12.91H4V1.88h1zm6-7.68a.72.72 0 0 1-1.43 0 .72.72 0 0 1 1.43 0zm-.2 8.59h-1V3.82h1zm7.03-4.52v4.52h-1V5.75c0-1-.39-1.28-1-1.28a2 2 0 0 0-1.73 1.16v4.5h-1V3.82h.9l.09 1a2.36 2.36 0 0 1 2-1.1 1.71 1.71 0 0 1 1.74 1.89zm3.42-4.07a.72.72 0 0 1-1.43 0 .72.72 0 0 1 1.43 0zM21 10.13h-1V3.82h1zm7.06-4.52v4.52h-1V5.75c0-1-.38-1.28-1-1.28a2 2 0 0 0-1.69 1.16v4.5h-1V3.82h.87l.08 1a2.39 2.39 0 0 1 2-1.1 1.71 1.71 0 0 1 1.74 1.89zm7.24-1.54a6.51 6.51 0 0 1-1.83.19 1.66 1.66 0 0 1 1.11 1.62A2.12 2.12 0 0 1 32.2 8a2.31 2.31 0 0 1-.8-.12.76.76 0 0 0-.35.63c0 .3.19.54.86.54h1c1.29 0 2.12.73 2.12 1.71 0 1.21-1 1.9-2.9 1.9s-2.68-.61-2.68-1.88h.91c0 .75.36 1.09 1.77 1.09s1.89-.37 1.89-1-.5-.94-1.31-.94h-1c-1.1 0-1.6-.55-1.6-1.18a1.34 1.34 0 0 1 .68-1.1 1.82 1.82 0 0 1-1.06-1.76 2.21 2.21 0 0 1 2.4-2.18A5.43 5.43 0 0 0 35 3.15zm-4.52 1.79a1.32 1.32 0 0 0 1.39 1.47 1.29 1.29 0 0 0 1.38-1.47 1.28 1.28 0 0 0-1.41-1.45 1.3 1.3 0 0 0-1.36 1.45zm12.8-4.27l-.36.71a2.92 2.92 0 0 0-1.37-.3c-.86 0-1.13.33-1.13 1v.88h3.53v6.31h-1V4.6h-2.53v5.53h-1V4.6h-1v-.78h1v-.88c0-1 .64-1.78 2.09-1.78a3.76 3.76 0 0 1 1.77.43zm7.98 2.48a6.51 6.51 0 0 1-1.83.19 1.66 1.66 0 0 1 1.11 1.62A2.12 2.12 0 0 1 48.46 8a2.31 2.31 0 0 1-.8-.12.76.76 0 0 0-.35.63c0 .3.19.54.86.54h1c1.29 0 2.12.73 2.12 1.71 0 1.21-1 1.9-2.9 1.9s-2.68-.61-2.68-1.88h.91c0 .75.36 1.09 1.77 1.09s1.89-.37 1.89-1-.49-.97-1.28-.97h-1c-1.1 0-1.6-.55-1.6-1.18a1.34 1.34 0 0 1 .68-1.1A1.82 1.82 0 0 1 46 5.86a2.21 2.21 0 0 1 2.4-2.18 5.43 5.43 0 0 0 2.86-.53zM47 5.86a1.32 1.32 0 0 0 1.39 1.47 1.29 1.29 0 0 0 1.38-1.47 1.28 1.28 0 0 0-1.37-1.45A1.3 1.3 0 0 0 47 5.86zm10.29 4.27h-.86l-.07-1a2.15 2.15 0 0 1-2 1.16 1.69 1.69 0 0 1-1.76-1.95V3.82h1v4.41c0 .9.33 1.24 1 1.24a2 2 0 0 0 1.65-1.13V3.82h1zm5.58-6.38l-.19 1a1.84 1.84 0 0 0-.55-.07c-.8 0-1.27.57-1.55 1.81v3.66h-1V3.82h.86l.09 1.32a1.83 1.83 0 0 1 1.72-1.46 2.45 2.45 0 0 1 .62.07zm5.74 3.57h-4.07c.1 1.52.82 2.12 1.77 2.12A2.7 2.7 0 0 0 68 8.88l.44.6a3.34 3.34 0 0 1-2.17.79C64.5 10.27 63.48 9 63.48 7s1-3.35 2.59-3.35 2.56 1.18 2.56 3.09c0 .26-.01.45-.02.58zm-1-.84c0-1.27-.51-2-1.55-2-.88 0-1.46.62-1.55 2.1h3.1zm6.62-2.08l-.45.6a2.79 2.79 0 0 0-1.64-.55c-.74 0-1.21.35-1.21.89s.34.78 1.39 1c1.34.35 2.07.85 2.07 2 0 1.28-1.16 1.89-2.43 1.89a3.4 3.4 0 0 1-2.35-.83l.54-.61a2.82 2.82 0 0 0 1.78.63c.86 0 1.41-.39 1.41-1S73 7.54 71.78 7.2s-1.91-.92-1.91-1.81 1-1.71 2.23-1.71a3.3 3.3 0 0 1 2.13.72zM9.26 101.66c0 1.88-1.36 2.65-3.17 2.65H5v3.07H4v-8.25h2.09c1.97 0 3.17.8 3.17 2.53zm-1.11 0c0-1.27-.8-1.72-2.07-1.72H5v3.53h1c1.31.01 2.15-.37 2.15-1.8zm5.73-.66l-.19 1a2.31 2.31 0 0 0-.56-.07c-.8 0-1.27.58-1.54 1.81v3.66h-1v-6.31h.86l.1 1.32a1.81 1.81 0 0 1 1.71-1.46 2.53 2.53 0 0 1 .62.05zm6.12 3.22c0 2-1 3.31-2.78 3.31s-2.77-1.29-2.77-3.29 1-3.31 2.78-3.31S20 102.2 20 104.22zm-4.47 0c0 1.67.6 2.47 1.69 2.47s1.7-.8 1.7-2.49-.6-2.47-1.69-2.47-1.67.82-1.67 2.51zm11.47 0c0 1.93-.85 3.31-2.46 3.31a2.07 2.07 0 0 1-1.69-.76v3l-1 .12v-8.84h.87l.08.88a2.28 2.28 0 0 1 1.88-1c1.68 0 2.32 1.28 2.32 3.29zm-1.09 0c0-1.68-.49-2.49-1.48-2.49a2 2 0 0 0-1.58 1v3.13a1.7 1.7 0 0 0 1.45.82c1.09.02 1.7-.77 1.7-2.46zm8.09 0c0 2-1 3.31-2.78 3.31s-2.77-1.29-2.77-3.29 1-3.31 2.78-3.31S34 102.2 34 104.22zm-4.47 0c0 1.67.6 2.47 1.69 2.47s1.7-.8 1.7-2.49-.6-2.47-1.69-2.47-1.7.82-1.7 2.51zm9.62-3.22l-.15 1a2.29 2.29 0 0 0-.55-.07c-.81 0-1.27.58-1.55 1.81v3.66h-1v-6.31h.87l.09 1.32c.34-1 .92-1.46 1.72-1.46a2.51 2.51 0 0 1 .57.05zm4.4 6.11a2.43 2.43 0 0 1-1.39.42 1.56 1.56 0 0 1-1.66-1.77v-3.91h-1.1v-.78h1.1v-1.45l1-.11v1.56H43l-.11.78H41.5v3.86c0 .66.23 1 .79 1a1.7 1.7 0 0 0 .88-.27zm2.36-8.32a.72.72 0 1 1-.72-.69.68.68 0 0 1 .72.69zm-.21 8.59h-1v-6.31h1zm7.4-3.16c0 2-1 3.31-2.78 3.31s-2.77-1.29-2.77-3.29 1-3.31 2.78-3.31 2.77 1.27 2.77 3.29zm-4.47 0c0 1.67.6 2.47 1.69 2.47s1.7-.8 1.7-2.49-.59-2.47-1.69-2.47-1.7.82-1.7 2.51zm11.06-1.36v4.52h-1V103c0-1-.39-1.28-1-1.28a2 2 0 0 0-1.69 1.16v4.5h-1v-6.31h.86l.08 1a2.39 2.39 0 0 1 2-1.1 1.71 1.71 0 0 1 1.75 1.89zm6.89 3.96l-.24.71a1.24 1.24 0 0 1-1.17-1 2.14 2.14 0 0 1-1.9 1 1.82 1.82 0 0 1-2-1.91c0-1.34 1-2.06 2.73-2.06h1v-.51c0-.93-.45-1.29-1.36-1.29a5.43 5.43 0 0 0-1.7.34l-.25-.74a5.78 5.78 0 0 1 2.13-.43c1.5 0 2.18.77 2.18 2.07v2.93c.05.59.24.77.58.89zm-1.53-1.08v-1.51h-.9c-1.18 0-1.8.44-1.8 1.34a1 1 0 0 0 1.15 1.19 1.72 1.72 0 0 0 1.55-1.02zm3.17.44v-7.65l1-.12v7.75c0 .35.12.53.42.53a1.08 1.08 0 0 0 .42-.08l.27.71a1.86 1.86 0 0 1-.84.21 1.2 1.2 0 0 1-1.27-1.35zm13.26-2.91c0 2.72-1.39 4.26-3.45 4.26s-3.45-1.49-3.45-4.25S76 99 78 99s3.48 1.49 3.48 4.27zm-5.8 0c0 2.4 1 3.38 2.35 3.38s2.35-1 2.35-3.39-.9-3.42-2.35-3.42-2.35 1.02-2.35 3.44zm7.57 2.91v-7.65l1-.12v7.75c0 .35.12.53.42.53a1.12 1.12 0 0 0 .42-.08l.26.71a1.86 1.86 0 0 1-.84.21 1.2 1.2 0 0 1-1.26-1.35zm8.29-7.65v8.85h-.87l-.11-.89a2.13 2.13 0 0 1-1.84 1c-1.52 0-2.37-1.3-2.37-3.28s.92-3.32 2.47-3.32a2.28 2.28 0 0 1 1.71.79v-3.27zm-1 7.2v-3.15a1.81 1.81 0 0 0-1.5-.85c-1 0-1.6.83-1.6 2.51s.55 2.48 1.5 2.48a1.82 1.82 0 0 0 1.59-.99zm7.1-4.08l-.45.63a2.79 2.79 0 0 0-1.64-.55c-.74 0-1.21.35-1.21.89s.35.78 1.39 1.06c1.34.34 2.07.85 2.07 1.95 0 1.28-1.16 1.9-2.43 1.9a3.4 3.4 0 0 1-2.37-.83l.54-.61a2.87 2.87 0 0 0 1.79.62c.85 0 1.4-.38 1.4-1s-.32-.9-1.56-1.23-1.91-.93-1.91-1.82 1-1.71 2.23-1.71a3.3 3.3 0 0 1 2.15.7zm4.9 5.46a2.43 2.43 0 0 1-1.39.42 1.56 1.56 0 0 1-1.66-1.77v-3.91H98.4v-.78h1.09v-1.45l1-.11v1.56H102l-.11.78h-1.42v3.86c0 .66.23 1 .8 1a1.66 1.66 0 0 0 .87-.27zm3.52.31a3.15 3.15 0 0 1-2.84 2.49l-.12-.79a2.2 2.2 0 0 0 2-1.74h-.35l-2.13-6.31h1.08l1.74 5.58 1.7-5.58h1zm3.33-1.24v-7.65l1-.12v7.75c0 .35.12.53.42.53a1.08 1.08 0 0 0 .42-.08l.27.71a1.86 1.86 0 0 1-.84.21 1.2 1.2 0 0 1-1.27-1.35zm8.23-1.6h-4.07c.1 1.52.82 2.12 1.76 2.12a2.65 2.65 0 0 0 1.66-.57l.44.6a3.31 3.31 0 0 1-2.17.8c-1.74 0-2.76-1.24-2.76-3.24s1-3.36 2.59-3.36 2.57 1.19 2.57 3.09c0 .22-.01.42-.02.56zm-1-.84c0-1.28-.5-2-1.54-2-.88 0-1.47.63-1.55 2.1h3.09zM8.65 195.49H6.33v7.37h-1v-7.37H2.92v-.89h5.85zm5.46 6.8l-.24.71a1.24 1.24 0 0 1-1.18-1 2.12 2.12 0 0 1-1.89 1 1.83 1.83 0 0 1-2-1.91c0-1.34 1-2.06 2.74-2.06h1v-.5c0-.94-.44-1.3-1.36-1.3a5.3 5.3 0 0 0-1.7.35l-.25-.74a5.89 5.89 0 0 1 2.14-.44 1.9 1.9 0 0 1 2.18 2.08v2.93c.03.59.22.76.56.88zm-1.54-1.08v-1.51h-.9c-1.17 0-1.8.45-1.8 1.35a1 1 0 0 0 1.13 1.18 1.68 1.68 0 0 0 1.57-1.02zm8.43-1.52c0 2-.94 3.31-2.46 3.31a2.11 2.11 0 0 1-1.71-.86l-.1.72h-.89V194l1-.12v3.46a2.16 2.16 0 0 1 1.81-.95c1.47.01 2.35 1.2 2.35 3.3zm-1.09 0c0-1.81-.59-2.48-1.53-2.48a1.85 1.85 0 0 0-1.53 1v3.1a1.78 1.78 0 0 0 1.45.88c1 .01 1.64-.75 1.64-2.5zm7.58 3.17h-.87l-.07-1a2.17 2.17 0 0 1-2 1.16 1.69 1.69 0 0 1-1.76-1.93v-4.52h1V201c0 .9.33 1.24 1 1.24a2 2 0 0 0 1.65-1.13v-4.52h1zm2.21-1.2V194l1-.12v7.74c0 .35.12.53.42.53a1.09 1.09 0 0 0 .42-.07l.27.71a1.86 1.86 0 0 1-.84.2 1.2 1.2 0 0 1-1.27-1.33zm8.2.63l-.24.71a1.23 1.23 0 0 1-1.17-1 2.15 2.15 0 0 1-1.9 1 1.82 1.82 0 0 1-2-1.91c0-1.34 1-2.06 2.73-2.06h1v-.5c0-.94-.45-1.3-1.36-1.3a5.25 5.25 0 0 0-1.7.35l-.25-.74a5.84 5.84 0 0 1 2.13-.44 1.9 1.9 0 0 1 2.18 2.08v2.93c.05.59.25.76.58.88zm-1.53-1.08v-1.51h-.9c-1.18 0-1.8.45-1.8 1.35a1 1 0 0 0 1.15 1.18 1.7 1.7 0 0 0 1.55-1.02zm6.63-4.73l-.2 1a1.84 1.84 0 0 0-.55-.07c-.8 0-1.27.57-1.54 1.81v3.66h-1v-6.31h.86l.1 1.32a1.82 1.82 0 0 1 1.71-1.47 2.59 2.59 0 0 1 .62.06zm10.91 2.26c0 2.73-1.39 4.26-3.46 4.26S47 201.51 47 198.76s1.42-4.3 3.45-4.3 3.46 1.54 3.46 4.28zm-5.81 0c0 2.39 1 3.38 2.35 3.38s2.35-1 2.35-3.4-.89-3.42-2.35-3.42-2.35 1.03-2.35 3.46zm7.58 2.92V194l1-.12v7.74c0 .35.12.53.42.53a1.09 1.09 0 0 0 .42-.07l.27.71a1.86 1.86 0 0 1-.84.2 1.2 1.2 0 0 1-1.27-1.33zM64 194v8.85h-.87L63 202a2.12 2.12 0 0 1-1.83 1c-1.53 0-2.38-1.29-2.38-3.27s.92-3.33 2.47-3.33a2.27 2.27 0 0 1 1.72.8v-3.31zm-1 7.19v-3.14a1.8 1.8 0 0 0-1.5-.85c-1 0-1.61.83-1.61 2.5s.55 2.49 1.5 2.49a1.82 1.82 0 0 0 1.61-.99zm7.06-4.07l-.44.64a2.82 2.82 0 0 0-1.65-.55c-.74 0-1.21.35-1.21.89s.35.78 1.39 1.05c1.35.35 2.08.85 2.08 2 0 1.28-1.16 1.89-2.44 1.89a3.41 3.41 0 0 1-2.35-.83l.54-.61a2.84 2.84 0 0 0 1.79.63c.85 0 1.4-.39 1.4-1s-.32-.9-1.56-1.24-1.9-.92-1.9-1.81 1-1.72 2.23-1.72a3.35 3.35 0 0 1 2.12.66zm4.94 5.46a2.38 2.38 0 0 1-1.39.42 1.56 1.56 0 0 1-1.67-1.76v-3.91h-1.12v-.78h1.09v-1.45l1-.11v1.56h1.52l-.11.78h-1.4v3.86c0 .66.23 1 .79 1a1.71 1.71 0 0 0 .88-.26zm3.49.31a3.18 3.18 0 0 1-2.85 2.5l-.12-.79a2.23 2.23 0 0 0 2-1.74h-.35L75 196.55h1.08l1.74 5.58 1.71-5.58h1zm3.32-1.23V194l1-.12v7.74c0 .35.12.53.42.53a1.12 1.12 0 0 0 .42-.07l.26.71a1.86 1.86 0 0 1-.84.2 1.2 1.2 0 0 1-1.26-1.33zm8.19-1.61h-4c.09 1.52.81 2.12 1.76 2.12a2.7 2.7 0 0 0 1.65-.56l.45.6a3.36 3.36 0 0 1-2.17.79c-1.74 0-2.76-1.23-2.76-3.24s1-3.36 2.59-3.36 2.56 1.19 2.56 3.1c-.02.21-.03.42-.08.55zm-1-.84c0-1.27-.5-2-1.55-2-.87 0-1.46.62-1.54 2.1H89zm3.74 3.01a1.91 1.91 0 0 1-.2.8l-.78 1.79H91l.48-1.94a.82.82 0 0 1-.32-.65.77.77 0 1 1 1.54 0zm10.14-2.53c0 2-.94 3.31-2.46 3.31a2.12 2.12 0 0 1-1.71-.86l-.1.72h-.89V194l1-.12v3.46a2.16 2.16 0 0 1 1.81-.95c1.47.01 2.35 1.2 2.35 3.3zm-1.09 0c0-1.81-.59-2.48-1.52-2.48a1.87 1.87 0 0 0-1.54 1v3.1a1.78 1.78 0 0 0 1.45.88c.97.01 1.61-.75 1.61-2.5zm7.63.36h-4.07c.1 1.52.82 2.12 1.77 2.12a2.7 2.7 0 0 0 1.65-.56l.45.6a3.38 3.38 0 0 1-2.17.79c-1.74 0-2.76-1.23-2.76-3.24s1-3.36 2.59-3.36 2.56 1.19 2.56 3.1c0 .21-.01.42-.02.55zm-1-.84c0-1.27-.5-2-1.55-2-.87 0-1.46.62-1.55 2.1h3.1zm6.58-2.09l-.45.64a2.79 2.79 0 0 0-1.64-.55c-.74 0-1.21.35-1.21.89s.35.78 1.39 1.05c1.34.35 2.07.85 2.07 2 0 1.28-1.16 1.89-2.43 1.89a3.4 3.4 0 0 1-2.35-.83l.54-.61a2.82 2.82 0 0 0 1.79.63c.85 0 1.4-.39 1.4-1s-.32-.9-1.56-1.24-1.91-.92-1.91-1.81 1-1.72 2.23-1.72a3.36 3.36 0 0 1 2.13.66zm5 5.46a2.41 2.41 0 0 1-1.4.42 1.55 1.55 0 0 1-1.66-1.76v-3.91h-1.14v-.78h1.09v-1.45l1-.11v1.56h1.53l-.11.78h-1.42v3.86c0 .66.23 1 .8 1a1.65 1.65 0 0 0 .87-.26zm5.44-6.94v.91H127l-.11.78h-1.45v5.53h-1v-5.53h-1.12v-.78h1.12v-.9a1.7 1.7 0 0 1 1.91-1.76 3.36 3.36 0 0 1 1.5.32l-.32.73a2.73 2.73 0 0 0-1.12-.24c-.7 0-.97.3-.97.94zm7.85 4.05c0 2-1 3.31-2.78 3.31s-2.78-1.28-2.78-3.29 1-3.31 2.79-3.31 2.77 1.28 2.77 3.29zm-4.48 0c0 1.67.6 2.48 1.7 2.48s1.7-.81 1.7-2.5-.6-2.47-1.69-2.47-1.71.8-1.71 2.51zm9.63-3.21l-.2 1a1.84 1.84 0 0 0-.55-.07c-.8 0-1.27.57-1.54 1.81v3.66h-1v-6.31h.85l.1 1.32a1.82 1.82 0 0 1 1.71-1.47 2.59 2.59 0 0 1 .63.06zm8.67.6l-.49.63a2.17 2.17 0 0 0-1.37-.47c-1 0-1.69.81-1.69 2.5s.66 2.4 1.69 2.4a2.27 2.27 0 0 0 1.39-.49l.47.66a2.88 2.88 0 0 1-1.89.69c-1.68 0-2.74-1.21-2.74-3.25s1.05-3.35 2.74-3.35a2.75 2.75 0 0 1 1.89.68zm6.47 2.61c0 2-1 3.31-2.78 3.31s-2.77-1.28-2.77-3.29 1-3.31 2.78-3.31 2.77 1.28 2.77 3.29zm-4.47 0c0 1.67.6 2.48 1.69 2.48s1.7-.81 1.7-2.5-.6-2.47-1.69-2.47-1.7.8-1.7 2.51zm6.25 1.97V194l1-.12v7.74c0 .35.12.53.42.53a1.12 1.12 0 0 0 .42-.07l.26.71a1.86 1.86 0 0 1-.84.2 1.2 1.2 0 0 1-1.26-1.33zm8.2 1.2h-.86l-.07-1a2.17 2.17 0 0 1-2 1.16 1.69 1.69 0 0 1-1.77-1.93v-4.52h1V201c0 .9.33 1.24 1 1.24a2 2 0 0 0 1.65-1.13v-4.52h1zm10.27-4.52v4.52h-1v-4.38c0-1-.41-1.28-.94-1.28-.69 0-1.1.46-1.55 1.16v4.5h-1v-4.38c0-1-.41-1.28-.94-1.28-.69 0-1.11.46-1.55 1.16v4.5h-1v-6.31h.86l.08 1a2.21 2.21 0 0 1 1.86-1.11 1.59 1.59 0 0 1 1.59 1.17 2.21 2.21 0 0 1 1.89-1.17 1.71 1.71 0 0 1 1.7 1.9zm6.95 0v4.52h-1v-4.38c0-1-.39-1.28-1-1.28a2 2 0 0 0-1.69 1.16v4.5h-1v-6.31h.86l.08 1a2.4 2.4 0 0 1 2-1.11 1.72 1.72 0 0 1 1.75 1.9zm6.03-1.22l-.45.64a2.79 2.79 0 0 0-1.64-.55c-.74 0-1.21.35-1.21.89s.35.78 1.39 1.05c1.34.35 2.08.85 2.08 2 0 1.28-1.17 1.89-2.44 1.89a3.41 3.41 0 0 1-2.35-.83l.54-.61a2.82 2.82 0 0 0 1.79.63c.85 0 1.4-.39 1.4-1s-.32-.9-1.56-1.24-1.91-.92-1.91-1.81 1-1.72 2.24-1.72a3.35 3.35 0 0 1 2.12.66zm10.1 2.57c0 2-1 3.31-2.78 3.31s-2.77-1.28-2.77-3.29 1-3.31 2.78-3.31 2.77 1.28 2.77 3.29zm-4.47 0c0 1.67.6 2.48 1.69 2.48s1.7-.81 1.7-2.5-.6-2.47-1.69-2.47-1.7.8-1.7 2.51zm7.46-4.05v.91h1.56l-.11.78h-1.45v5.53h-1v-5.53h-1.11v-.78h1.11v-.9a1.71 1.71 0 0 1 1.92-1.76 3.36 3.36 0 0 1 1.5.32l-.32.73a2.73 2.73 0 0 0-1.12-.24c-.71 0-.98.3-.98.94zm9.95-1.32l-.36.7a3 3 0 0 0-1.37-.32c-.86 0-1.13.32-1.13 1v.88h3.53v6.31h-1v-5.53H207v5.53h-1v-5.53h-1v-.78h1v-.88c0-1 .65-1.78 2.1-1.78a3.65 3.65 0 0 1 1.75.4zm7.98 2.48a6.51 6.51 0 0 1-1.83.2 1.66 1.66 0 0 1 1.11 1.62 2.12 2.12 0 0 1-2.38 2.12 2.31 2.31 0 0 1-.8-.12.76.76 0 0 0-.35.63c0 .3.19.54.86.54h1c1.29 0 2.13.73 2.13 1.71 0 1.21-1 1.9-2.91 1.9s-2.68-.61-2.68-1.89h.91c0 .76.36 1.1 1.77 1.1s1.89-.38 1.89-1-.5-.93-1.31-.93h-1c-1.1 0-1.6-.55-1.6-1.18a1.34 1.34 0 0 1 .68-1.1 1.83 1.83 0 0 1-1.06-1.76 2.21 2.21 0 0 1 2.4-2.19 5.35 5.35 0 0 0 2.86-.52zm-4.52 1.79a1.32 1.32 0 0 0 1.39 1.47 1.29 1.29 0 0 0 1.38-1.47 1.28 1.28 0 0 0-1.41-1.45 1.3 1.3 0 0 0-1.36 1.45zm10.25 4.27h-.86l-.07-1a2.17 2.17 0 0 1-2 1.16 1.69 1.69 0 0 1-1.77-1.93v-4.52h1V201c0 .9.32 1.24 1 1.24a2 2 0 0 0 1.65-1.13v-4.52h1zm5.58-6.38l-.19 1a1.84 1.84 0 0 0-.55-.07c-.8 0-1.27.57-1.55 1.81v3.66h-1v-6.31h.86l.1 1.32a1.82 1.82 0 0 1 1.71-1.47 2.45 2.45 0 0 1 .62.06zm5.74 3.57h-4.07c.1 1.52.82 2.12 1.77 2.12a2.7 2.7 0 0 0 1.65-.56l.44.6a3.34 3.34 0 0 1-2.17.79c-1.74 0-2.75-1.23-2.75-3.24s1-3.36 2.59-3.36 2.56 1.19 2.56 3.1c0 .21-.01.42-.02.55zm-1-.84c0-1.27-.51-2-1.55-2-.88 0-1.46.62-1.55 2.1h3.1zm6.61-2.09l-.44.64a2.79 2.79 0 0 0-1.64-.55c-.75 0-1.21.35-1.21.89s.34.78 1.39 1.05c1.34.35 2.07.85 2.07 2 0 1.28-1.16 1.89-2.43 1.89a3.4 3.4 0 0 1-2.35-.83l.54-.61a2.82 2.82 0 0 0 1.78.63c.86 0 1.41-.39 1.41-1s-.33-.9-1.56-1.24-1.91-.92-1.91-1.81 1-1.72 2.23-1.72a3.31 3.31 0 0 1 2.12.66zM11.58 297.29c0 2.72-1.39 4.26-3.45 4.26s-3.45-1.49-3.45-4.25 1.41-4.3 3.45-4.3 3.45 1.51 3.45 4.29zm-5.8 0c0 2.4 1 3.38 2.35 3.38s2.35-1 2.35-3.39-.9-3.42-2.35-3.42-2.35 1.02-2.35 3.44zm7.57 2.91v-7.65l1-.12v7.75c0 .35.12.53.42.53a1.37 1.37 0 0 0 .42-.07l.26.7a1.86 1.86 0 0 1-.84.21 1.2 1.2 0 0 1-1.26-1.35zm8.29-7.65v8.85h-.87l-.11-.88a2.14 2.14 0 0 1-1.84 1c-1.52 0-2.37-1.3-2.37-3.28s.92-3.32 2.47-3.32a2.26 2.26 0 0 1 1.71.79v-3.31zm-1 7.2v-3.14a1.79 1.79 0 0 0-1.5-.85c-1 0-1.6.82-1.6 2.5s.55 2.48 1.5 2.48a1.82 1.82 0 0 0 1.59-.99zm7.1-4.08l-.45.64a2.79 2.79 0 0 0-1.64-.55c-.74 0-1.21.34-1.21.88s.35.78 1.39 1.06c1.34.35 2.07.85 2.07 1.95 0 1.29-1.16 1.9-2.43 1.9a3.4 3.4 0 0 1-2.35-.83l.54-.61a2.87 2.87 0 0 0 1.79.62c.85 0 1.4-.38 1.4-1s-.32-.9-1.56-1.23-1.91-.93-1.91-1.81 1-1.72 2.23-1.72a3.36 3.36 0 0 1 2.13.7zm4.91 5.46a2.48 2.48 0 0 1-1.4.42 1.55 1.55 0 0 1-1.66-1.77v-3.91H28.5v-.77h1.09v-1.46l1-.1v1.56h1.53l-.11.77h-1.42v3.87c0 .66.23 1 .8 1a1.66 1.66 0 0 0 .87-.27zm3.51.31a3.15 3.15 0 0 1-2.84 2.49l-.12-.79a2.2 2.2 0 0 0 2-1.74h-.35l-2.13-6.3h1.08l1.74 5.57 1.7-5.57h1zm3.33-1.24v-7.65l1-.12v7.75c0 .35.12.53.42.53a1.32 1.32 0 0 0 .42-.07l.27.7a1.86 1.86 0 0 1-.84.21 1.2 1.2 0 0 1-1.27-1.35zm8.23-1.6h-4.07c.1 1.52.82 2.12 1.76 2.12a2.7 2.7 0 0 0 1.66-.56l.44.6a3.34 3.34 0 0 1-2.17.79c-1.74 0-2.76-1.24-2.76-3.24s1-3.36 2.59-3.36 2.57 1.19 2.57 3.1c0 .21-.01.42-.02.55zm-1-.84c0-1.27-.51-2-1.55-2-.88 0-1.47.62-1.55 2.09h3.1zm9.9-4.9l-.36.71a3 3 0 0 0-1.37-.32c-.86 0-1.12.32-1.12 1v.88h3.52v6.3h-1v-5.53h-2.52v5.53h-1v-5.53h-1v-.77h1v-.88c0-1.06.65-1.79 2.1-1.79a3.72 3.72 0 0 1 1.75.4zm7.98 2.49a6.82 6.82 0 0 1-1.82.19 1.65 1.65 0 0 1 1.1 1.62 2.12 2.12 0 0 1-2.37 2.12 2.64 2.64 0 0 1-.81-.12.77.77 0 0 0-.35.62c0 .3.2.54.87.54h1c1.28 0 2.12.74 2.12 1.72 0 1.21-1 1.89-2.9 1.89s-2.69-.61-2.69-1.88h.91c0 .76.36 1.09 1.78 1.09s1.88-.37 1.88-1-.49-.93-1.31-.93H61c-1.11 0-1.61-.56-1.61-1.18a1.34 1.34 0 0 1 .68-1.1 1.83 1.83 0 0 1-1.05-1.77 2.21 2.21 0 0 1 2.4-2.18 5.22 5.22 0 0 0 2.85-.53zm-4.52 1.78a1.33 1.33 0 0 0 1.39 1.48 1.29 1.29 0 0 0 1.38-1.48 1.28 1.28 0 0 0-1.4-1.45 1.31 1.31 0 0 0-1.37 1.45zm10.26 4.27h-.87l-.07-1a2.16 2.16 0 0 1-2 1.17 1.69 1.69 0 0 1-1.76-1.93v-4.54h1v4.41c0 .9.33 1.23 1 1.23a2 2 0 0 0 1.64-1.12v-4.52h1zm5.58-6.4l-.19 1a1.91 1.91 0 0 0-.56-.07c-.8 0-1.27.57-1.54 1.81v3.65h-1v-6.3h.86l.1 1.31a1.81 1.81 0 0 1 1.7-1.4 3.12 3.12 0 0 1 .63 0zm5.73 3.6h-4.06c.09 1.52.81 2.12 1.76 2.12a2.68 2.68 0 0 0 1.65-.56l.45.6a3.36 3.36 0 0 1-2.17.79c-1.74 0-2.76-1.24-2.76-3.24s1-3.36 2.59-3.36 2.57 1.19 2.57 3.1c0 .21-.02.42-.03.55zm-1-.84c0-1.27-.5-2-1.55-2-.87 0-1.46.62-1.54 2.09h3.09zm6.62-2.09l-.45.64a2.79 2.79 0 0 0-1.64-.55c-.74 0-1.21.34-1.21.88s.35.78 1.39 1.06c1.35.35 2.08.85 2.08 1.95 0 1.29-1.17 1.9-2.44 1.9a3.41 3.41 0 0 1-2.35-.83l.54-.61a2.87 2.87 0 0 0 1.79.62c.85 0 1.4-.38 1.4-1s-.32-.9-1.56-1.23-1.9-.93-1.9-1.81 1-1.72 2.23-1.72a3.35 3.35 0 0 1 2.12.7zm10.64 5.67a1.91 1.91 0 0 1-.89.21c-.76 0-1.21-.46-1.21-1.36v-6.73a4.61 4.61 0 0 0-1.44-.21c-.8 0-1.09.3-1.09.93v.92h1.56l-.11.77h-1.45v5.53h-1v-5.53h-1v-.77h1v-.9c0-1.05.68-1.77 2-1.77a4.76 4.76 0 0 1 1.5.24l1-.13v7.64c0 .35.11.53.42.53a1.25 1.25 0 0 0 .41-.07zm6.55-3.1c0 2-1 3.31-2.78 3.31s-2.77-1.29-2.77-3.29 1-3.31 2.78-3.31 2.77 1.27 2.77 3.29zm-4.47 0c0 1.67.6 2.47 1.69 2.47s1.7-.8 1.7-2.49-.6-2.47-1.69-2.47-1.69.82-1.69 2.51zM112 301.4h-1.38l-1.15-5.4-1.2 5.39h-1.34l-1.5-6.3h1l1.18 5.6 1.3-5.6h1.13l1.24 5.6 1.2-5.6h1zM10.28 312.64c0 2-.94 3.31-2.46 3.31a2.15 2.15 0 0 1-1.72-.87l-.1.72h-.88V307l1-.12v3.47a2.16 2.16 0 0 1 1.81-.95c1.44-.05 2.35 1.14 2.35 3.24zm-1.09 0c0-1.81-.59-2.48-1.53-2.48a1.85 1.85 0 0 0-1.53 1v3.11a1.79 1.79 0 0 0 1.45.88c.97 0 1.61-.76 1.61-2.51zm7.63.36h-4.07c.1 1.52.82 2.12 1.76 2.12a2.7 2.7 0 0 0 1.66-.56l.44.6a3.34 3.34 0 0 1-2.17.79c-1.74 0-2.76-1.24-2.76-3.24s1-3.36 2.59-3.36 2.57 1.19 2.57 3.1c0 .21-.01.42-.02.55zm-1-.84c0-1.27-.51-2-1.55-2-.88 0-1.47.62-1.55 2.09h3.1zm5.94 3.37a2.45 2.45 0 0 1-1.39.42 1.56 1.56 0 0 1-1.67-1.76v-3.92h-1.09v-.77h1.09V308l1-.1v1.56h1.52l-.1.77h-1.41v3.87c0 .66.23 1 .79 1a1.78 1.78 0 0 0 .88-.26zm4.29 0a2.48 2.48 0 0 1-1.4.42 1.55 1.55 0 0 1-1.65-1.76v-3.92h-1.1v-.77H23V308l1-.1v1.56h1.53l-.11.77H24v3.87c0 .66.23 1 .8 1a1.74 1.74 0 0 0 .87-.26zm5.67-2.53h-4.07c.1 1.52.82 2.12 1.77 2.12a2.7 2.7 0 0 0 1.65-.56l.45.6a3.36 3.36 0 0 1-2.17.79c-1.74 0-2.76-1.24-2.76-3.24s1-3.36 2.59-3.36 2.56 1.19 2.56 3.1c0 .21-.01.42-.02.55zm-1-.84c0-1.27-.5-2-1.55-2-.87 0-1.46.62-1.55 2.09h3.1zm6.1-2.74l-.19 1a1.84 1.84 0 0 0-.55-.07c-.81 0-1.27.57-1.55 1.81v3.65h-1v-6.3h.87l.09 1.31a1.83 1.83 0 0 1 1.72-1.46 3.1 3.1 0 0 1 .61.06zm5.69-2.2a.72.72 0 1 1-.72-.7.68.68 0 0 1 .72.7zm-.2 8.58h-1v-6.3h1zm7.01-4.52v4.52h-1v-4.37c0-1-.39-1.29-1-1.29a2 2 0 0 0-1.7 1.17v4.49h-1v-6.3h.86l.08 1a2.4 2.4 0 0 1 2-1.11 1.71 1.71 0 0 1 1.76 1.89zm8.73-1.86l-.19 1a1.91 1.91 0 0 0-.56-.07c-.8 0-1.27.57-1.54 1.81v3.65h-1v-6.3h.86l.1 1.31c.34-1 .92-1.46 1.71-1.46a3.12 3.12 0 0 1 .62.06zm5.88 6.38h-.87l-.07-1A2.16 2.16 0 0 1 61 316a1.69 1.69 0 0 1-1.76-2v-4.5h1v4.41c0 .9.32 1.24 1 1.24a2 2 0 0 0 1.68-1.15v-4.5h1zm7.07-4.52v4.52h-1v-4.37c0-1-.38-1.29-1-1.29a2 2 0 0 0-1.69 1.17v4.49h-1v-6.3h.86l.09 1a2.38 2.38 0 0 1 2-1.11 1.71 1.71 0 0 1 1.74 1.89zm6.9 0v4.52h-1v-4.37c0-1-.39-1.29-1-1.29a2 2 0 0 0-1.69 1.17v4.49h-1v-6.3H74l.09 1a2.38 2.38 0 0 1 2-1.11 1.71 1.71 0 0 1 1.81 1.89zm3.42-4.06a.72.72 0 1 1-.72-.7.68.68 0 0 1 .72.7zm-.21 8.58h-1v-6.3h1zm7.02-4.52v4.52h-1v-4.37c0-1-.38-1.29-1-1.29a2 2 0 0 0-1.69 1.17v4.49h-1v-6.3h.87l.08 1a2.4 2.4 0 0 1 2-1.11 1.71 1.71 0 0 1 1.74 1.89zm7.24-1.53a6.9 6.9 0 0 1-1.83.19 1.65 1.65 0 0 1 1.11 1.62 2.13 2.13 0 0 1-2.38 2.12 2.31 2.31 0 0 1-.8-.12.75.75 0 0 0-.35.63c0 .29.19.54.86.54h1c1.29 0 2.13.73 2.13 1.71 0 1.21-1 1.89-2.91 1.89s-2.68-.61-2.68-1.88h.91c0 .76.36 1.09 1.77 1.09s1.89-.37 1.89-1-.5-.93-1.31-.93h-1c-1.1 0-1.6-.56-1.6-1.18a1.34 1.34 0 0 1 .68-1.1 1.84 1.84 0 0 1-1.06-1.77 2.21 2.21 0 0 1 2.4-2.18 5.24 5.24 0 0 0 2.86-.53zm-4.52 1.78a1.33 1.33 0 0 0 1.39 1.47 1.29 1.29 0 0 0 1.38-1.48 1.28 1.28 0 0 0-1.41-1.45 1.3 1.3 0 0 0-1.36 1.46zm12.05 4a2.43 2.43 0 0 1-1.39.42 1.55 1.55 0 0 1-1.66-1.76v-3.92h-1.1v-.77h1.1V308l1-.1v1.56h1.53l-.11.77h-1.42v3.87c0 .66.23 1 .8 1a1.77 1.77 0 0 0 .87-.26zm5.68-2.53h-4.07c.1 1.52.82 2.12 1.77 2.12a2.7 2.7 0 0 0 1.65-.56l.44.6a3.34 3.34 0 0 1-2.17.79c-1.73 0-2.75-1.24-2.75-3.24s1-3.36 2.59-3.36 2.56 1.19 2.56 3.1c0 .21-.01.42-.02.55zm-1-.84c0-1.27-.51-2-1.55-2-.87 0-1.46.62-1.55 2.09h3.1zm7.29 3.64h-1.23l-1.6-2.73-1.63 2.73h-1.14l2.2-3.33-1.94-3h1.18l1.37 2.36 1.38-2.36h1.14l-1.94 2.92zm4.35-.27a2.43 2.43 0 0 1-1.39.42 1.55 1.55 0 0 1-1.66-1.76v-3.92h-1.1v-.77h1.1V308l1-.1v1.56h1.53l-.11.77h-1.42v3.87c0 .66.23 1 .79 1a1.78 1.78 0 0 0 .88-.26zm2.2-.36a.76.76 0 0 1-.78.78.78.78 0 0 1 0-1.55.76.76 0 0 1 .78.77zM9.88 331.32H7.57v7.36h-1v-7.36H4.16v-.89H10zm6.12 2.84v4.52h-1v-4.38c0-1-.4-1.28-1-1.28a2.05 2.05 0 0 0-1.68 1.15v4.51h-1v-8.84l1-.12v3.56a2.35 2.35 0 0 1 1.92-1 1.72 1.72 0 0 1 1.76 1.88zm6.91 1.71h-4.06c.09 1.53.81 2.13 1.76 2.13a2.67 2.67 0 0 0 1.66-.57l.44.6a3.36 3.36 0 0 1-2.17.79c-1.74 0-2.76-1.23-2.76-3.23s1-3.36 2.59-3.36 2.57 1.19 2.57 3.09c0 .22-.02.42-.03.55zm-1-.84c0-1.27-.5-2-1.55-2-.87 0-1.46.62-1.54 2.1h3.09zm5.19 3.69a3.16 3.16 0 0 1-2.84 2.49l-.12-.79a2.2 2.2 0 0 0 2-1.74h-.35l-2.13-6.31h1.08l1.74 5.63 1.7-5.58h1zm4.39-8.34a1.43 1.43 0 0 1-.19.66l-.78 1.66h-.66l.47-1.76a.67.67 0 0 1-.29-.56.73.73 0 0 1 1.45 0zm5.02 1.92l-.19 1a1.88 1.88 0 0 0-.55-.07c-.81 0-1.28.58-1.55 1.81v3.66h-1v-6.31h.86l.1 1.32c.34-1 .92-1.46 1.72-1.46a2.51 2.51 0 0 1 .61.05zm5.73 3.57h-4.06c.09 1.53.81 2.13 1.76 2.13a2.65 2.65 0 0 0 1.66-.57l.44.6a3.36 3.36 0 0 1-2.17.79c-1.74 0-2.76-1.23-2.76-3.23s1-3.36 2.59-3.36 2.57 1.19 2.57 3.09a4 4 0 0 1-.03.55zm-1-.84c0-1.27-.5-2-1.54-2-.88 0-1.47.62-1.55 2.1h3.09zm10.76.84h-4.1c.09 1.53.81 2.13 1.76 2.13a2.65 2.65 0 0 0 1.66-.57l.44.6a3.36 3.36 0 0 1-2.17.79c-1.74 0-2.76-1.23-2.76-3.23s1-3.36 2.59-3.36 2.58 1.19 2.58 3.09a4 4 0 0 1 0 .55zm-1-.87c0-1.27-.5-2-1.54-2-.88 0-1.47.62-1.55 2.1H51zm5.13 3.68h-1.22l-2.2-6.31h1.1l1.72 5.41 1.69-5.41h1.07zm8.1-2.81h-4.07c.1 1.53.82 2.13 1.77 2.13a2.65 2.65 0 0 0 1.65-.57l.44.6a3.34 3.34 0 0 1-2.17.79c-1.74 0-2.76-1.23-2.76-3.23s1-3.36 2.6-3.36 2.56 1.19 2.56 3.09c0 .22-.01.42-.02.55zm-1-.84c0-1.27-.51-2-1.55-2-.88 0-1.46.62-1.55 2.1h3.1zm7.54-.87v4.52h-1v-4.38c0-1-.38-1.28-1-1.28a2 2 0 0 0-1.77 1.16v4.5h-1v-6.31h.86l.09 1a2.38 2.38 0 0 1 2-1.1 1.71 1.71 0 0 1 1.82 1.89zm10.1 3.96l-.24.7a1.22 1.22 0 0 1-1.17-1 2.15 2.15 0 0 1-1.9 1 1.82 1.82 0 0 1-2-1.9c0-1.35 1-2.07 2.74-2.07h1v-.5c0-.93-.45-1.29-1.36-1.29a5.48 5.48 0 0 0-1.7.34l-.25-.74a5.82 5.82 0 0 1 2.13-.43c1.5 0 2.18.77 2.18 2.07v2.93c.04.59.24.77.57.89zM79.34 337v-1.51h-.9c-1.18 0-1.8.44-1.8 1.34a1 1 0 0 0 1.15 1.19 1.72 1.72 0 0 0 1.55-1.02zm5.66 1.68h-1.23l-2.2-6.31h1.1l1.72 5.41 1.69-5.41h1.07zm8-.56l-.24.7a1.24 1.24 0 0 1-1.18-1 2.12 2.12 0 0 1-1.89 1 1.82 1.82 0 0 1-2-1.9c0-1.35 1-2.07 2.73-2.07h1v-.5c0-.93-.44-1.29-1.35-1.29a5.43 5.43 0 0 0-1.7.34l-.26-.74a5.87 5.87 0 0 1 2.14-.43c1.5 0 2.18.77 2.18 2.07v2.93c.08.59.27.77.57.89zM91.5 337v-1.51h-.89c-1.18 0-1.8.44-1.8 1.34a1 1 0 0 0 1.19 1.23 1.69 1.69 0 0 0 1.5-1.06zm4.5-6.91a.72.72 0 1 1-.72-.69.68.68 0 0 1 .72.69zm-.21 8.59h-1v-6.31h1zm2.21-1.2v-7.65l1-.12v7.75c0 .34.12.52.42.52a1.09 1.09 0 0 0 .42-.07l.26.71a1.8 1.8 0 0 1-.84.2 1.2 1.2 0 0 1-1.26-1.34zm8.23.64l-.24.7a1.24 1.24 0 0 1-1.18-1 2.12 2.12 0 0 1-1.89 1 1.82 1.82 0 0 1-2-1.9c0-1.35 1-2.07 2.73-2.07h1v-.5c0-.93-.44-1.29-1.35-1.29a5.54 5.54 0 0 0-1.71.34l-.25-.74a5.87 5.87 0 0 1 2.14-.43c1.5 0 2.18.77 2.18 2.07v2.93c.04.59.23.77.57.89zm-1.54-1.12v-1.51h-.9c-1.17 0-1.8.44-1.8 1.34a1.05 1.05 0 0 0 1.16 1.19 1.69 1.69 0 0 0 1.54-1.02zm8.46-1.49c0 2-.93 3.31-2.46 3.31A2.12 2.12 0 0 1 109 338l-.1.72h-.9v-8.85l1-.12v3.47a2.16 2.16 0 0 1 1.81-.95c1.43-.04 2.34 1.15 2.34 3.24zm-1.09 0c0-1.81-.59-2.48-1.52-2.48a1.87 1.87 0 0 0-1.54 1v3.11a1.79 1.79 0 0 0 1.45.87c.97-.01 1.61-.74 1.61-2.5zm2.86 1.97v-7.65l1-.12v7.75c0 .34.12.52.42.52a1.12 1.12 0 0 0 .42-.07l.26.71a1.86 1.86 0 0 1-.84.2 1.19 1.19 0 0 1-1.26-1.34zm8.23-1.61h-4.07c.1 1.53.82 2.13 1.77 2.13a2.65 2.65 0 0 0 1.65-.57l.44.6a3.34 3.34 0 0 1-2.17.79c-1.74 0-2.76-1.23-2.76-3.23s1-3.36 2.6-3.36 2.56 1.19 2.56 3.09c0 .22-.01.42-.02.55zm-1-.84c0-1.27-.51-2-1.55-2-.88 0-1.46.62-1.55 2.1h3.1zM6.33 344.49a.68.68 0 0 1-.72.7.7.7 0 1 1 0-1.39.68.68 0 0 1 .72.69zm-.2 8.59h-1v-6.31h1zm7.02-4.52v4.52h-1v-4.38c0-1-.39-1.28-1-1.28a2 2 0 0 0-1.69 1.16v4.5h-1v-6.31h.86l.08 1a2.39 2.39 0 0 1 2-1.1 1.71 1.71 0 0 1 1.75 1.89zm9.23-1.21l-.44.63a2.79 2.79 0 0 0-1.64-.55c-.75 0-1.21.35-1.21.89s.34.78 1.39 1.05c1.34.35 2.07.86 2.07 2 0 1.28-1.16 1.89-2.43 1.89a3.39 3.39 0 0 1-2.35-.82l.54-.61a2.87 2.87 0 0 0 1.78.62c.86 0 1.41-.39 1.41-1s-.33-.9-1.56-1.24-1.94-.98-1.94-1.87 1-1.71 2.23-1.71a3.25 3.25 0 0 1 2.15.72zm6.89 2.56c0 2-1 3.31-2.78 3.31s-2.77-1.28-2.77-3.28 1-3.31 2.78-3.31 2.77 1.27 2.77 3.28zm-4.47 0c0 1.66.6 2.47 1.69 2.47s1.7-.81 1.7-2.5-.6-2.47-1.69-2.47-1.7.84-1.7 2.53zm14.31-1.35v4.52h-1v-4.38c0-1-.4-1.28-.93-1.28-.7 0-1.11.47-1.55 1.16v4.5h-1v-4.38c0-1-.4-1.28-.93-1.28-.7 0-1.12.47-1.55 1.16v4.5h-1v-6.31H32l.08 1a2.17 2.17 0 0 1 1.86-1.1 1.57 1.57 0 0 1 1.58 1.16 2.25 2.25 0 0 1 1.9-1.16 1.7 1.7 0 0 1 1.69 1.89zm6.89 1.71h-4c.09 1.53.81 2.13 1.76 2.13a2.65 2.65 0 0 0 1.66-.57l.44.6a3.36 3.36 0 0 1-2.17.79c-1.74 0-2.76-1.23-2.76-3.23s1-3.36 2.59-3.36 2.57 1.19 2.57 3.09a4 4 0 0 1-.09.55zm-1-.84c0-1.27-.5-2-1.54-2-.88 0-1.47.63-1.55 2.1H45zm9.86-2.08l-.45.63a2.79 2.79 0 0 0-1.64-.55c-.74 0-1.21.35-1.21.89s.35.78 1.39 1.05c1.34.35 2.07.86 2.07 2 0 1.28-1.16 1.89-2.43 1.89a3.39 3.39 0 0 1-2.35-.82l.54-.61a2.87 2.87 0 0 0 1.79.62c.85 0 1.4-.39 1.4-1s-.32-.9-1.56-1.24-1.91-.92-1.91-1.81 1-1.71 2.23-1.71a3.3 3.3 0 0 1 2.13.66zm6.44 5.17l-.24.7a1.24 1.24 0 0 1-1.18-1 2.12 2.12 0 0 1-1.89 1 1.82 1.82 0 0 1-2-1.9c0-1.35 1-2.07 2.73-2.07h1v-.5c0-.93-.44-1.29-1.35-1.29a5.43 5.43 0 0 0-1.7.34l-.26-.74a5.87 5.87 0 0 1 2.14-.43c1.5 0 2.18.77 2.18 2.07v2.93c.04.59.27.77.57.89zm-1.54-1.08v-1.51h-.89c-1.18 0-1.8.44-1.8 1.34a1 1 0 0 0 1.15 1.19 1.69 1.69 0 0 0 1.54-1.02zm8.04-2.88v4.52h-1v-4.38c0-1-.39-1.28-1-1.28a2 2 0 0 0-1.7 1.16v4.5h-1v-6.31h.86l.08 1a2.39 2.39 0 0 1 2-1.1 1.71 1.71 0 0 1 1.76 1.89zm6.03-1.21l-.45.63a2.79 2.79 0 0 0-1.64-.55c-.74 0-1.21.35-1.21.89s.35.78 1.39 1.05c1.34.35 2.08.86 2.08 2 0 1.28-1.17 1.89-2.44 1.89a3.41 3.41 0 0 1-2.35-.82l.54-.61a2.87 2.87 0 0 0 1.79.62c.85 0 1.4-.39 1.4-1s-.32-.9-1.56-1.24-1.91-.92-1.91-1.81 1-1.71 2.24-1.71a3.29 3.29 0 0 1 2.12.66zm1.25 1.55h3.34v.86h-3.34zm9.03-1.55l-.44.63a2.82 2.82 0 0 0-1.65-.55c-.74 0-1.21.35-1.21.89s.35.78 1.4 1.05c1.34.35 2.07.86 2.07 2 0 1.28-1.16 1.89-2.43 1.89a3.42 3.42 0 0 1-2.36-.82l.54-.61a2.9 2.9 0 0 0 1.79.62c.85 0 1.4-.39 1.4-1s-.32-.9-1.55-1.24-1.91-.92-1.91-1.81 1-1.71 2.23-1.71a3.29 3.29 0 0 1 2.12.66zm6.47 2.92h-4.07c.1 1.53.82 2.13 1.77 2.13a2.65 2.65 0 0 0 1.65-.57l.45.6a3.38 3.38 0 0 1-2.17.79c-1.74 0-2.76-1.23-2.76-3.23s1-3.36 2.59-3.36 2.56 1.19 2.56 3.09c0 .22-.01.42-.02.55zm-1-.84c0-1.27-.51-2-1.55-2-.87 0-1.46.63-1.55 2.1h3.1zm6.1-2.73l-.19 1a2.29 2.29 0 0 0-.55-.07c-.81 0-1.27.58-1.55 1.81v3.66h-1v-6.31h.87l.09 1.32a1.83 1.83 0 0 1 1.72-1.46 2.51 2.51 0 0 1 .61.05zm2.47-2.21a.71.71 0 0 1-1.42 0 .71.71 0 0 1 1.42 0zm-.2 8.59h-1v-6.31h1zm3.42-7.22v.91h1.56l-.11.78h-1.45v5.53h-1v-5.53h-1.12v-.78h1.11v-.9a1.71 1.71 0 0 1 1.92-1.76 3.51 3.51 0 0 1 1.5.32l-.32.73a2.7 2.7 0 0 0-1.12-.23c-.71 0-.97.3-.97.93zm9.2 6.95a2.44 2.44 0 0 1-1.39.41 1.56 1.56 0 0 1-1.67-1.76v-3.91h-1.09v-.78h1.09v-1.45l1-.11v1.56H110l-.1.78h-1.42v3.86c0 .66.23 1 .79 1a1.7 1.7 0 0 0 .88-.27zm3.52.31a3.16 3.16 0 0 1-2.84 2.49l-.12-.79a2.2 2.2 0 0 0 2-1.74h-.35l-2.13-6.31h1.08l1.73 5.58 1.71-5.58h1zm8.55-3.21c0 1.94-.85 3.31-2.46 3.31a2.06 2.06 0 0 1-1.69-.75v3l-1 .12v-8.84h.86l.08.88a2.29 2.29 0 0 1 1.89-1c1.68 0 2.32 1.28 2.32 3.28zm-1.09 0c0-1.68-.49-2.48-1.47-2.48a2 2 0 0 0-1.59 1v3.13a1.7 1.7 0 0 0 1.45.82c1.06.02 1.61-.78 1.61-2.47zm7.63.36h-4.06c.09 1.53.81 2.13 1.76 2.13a2.67 2.67 0 0 0 1.66-.57l.44.6a3.36 3.36 0 0 1-2.17.79c-1.74 0-2.76-1.23-2.76-3.23s1-3.36 2.59-3.36 2.57 1.19 2.57 3.09c0 .22-.02.42-.03.55zm-1-.84c0-1.27-.5-2-1.55-2-.87 0-1.46.63-1.54 2.1h3.09zm3.7 3.01a.77.77 0 1 1-.77-.76.75.75 0 0 1 .77.76z" transform="translate(0 -.84)"/><path d="M23.19 372h-1v-6.93l-1.89 1.17-.44-.72L22.3 364h.89zm9.65-6c0 1.53-1 2.57-3.46 5.11H33l-.12.85h-4.65v-.8c2.86-3 3.55-3.78 3.55-5.11a1.28 1.28 0 0 0-1.35-1.39 2.09 2.09 0 0 0-1.69.89l-.66-.53a2.92 2.92 0 0 1 2.4-1.19 2.17 2.17 0 0 1 2.36 2.17zm9.05-.12a1.92 1.92 0 0 0 .24 3.8 2.46 2.46 0 0 1-2.69 2.45 3 3 0 0 1-2.39-1.07l.61-.56a2.29 2.29 0 0 0 1.74.8 1.53 1.53 0 0 0 1.67-1.62c0-1.14-.63-1.5-1.63-1.5h-.59l.12-.78h.41a1.39 1.39 0 0 0 1.49-1.46 1.23 1.23 0 0 0-1.38-1.27 2.3 2.3 0 0 0-1.68.72l-.53-.6a3.18 3.18 0 0 1 2.27-.94 2.1 2.1 0 0 1 2.34 2.03zM52 370h-1v2h-1v-2h-3.48v-.73l2.42-5.4.84.35-2.19 5H50l.1-2.2h.9v2.2h1zm8.59-5.24h-3.16v2.45a2.75 2.75 0 0 1 1.3-.32 2.24 2.24 0 0 1 2.27 2.53 2.58 2.58 0 0 1-2.73 2.71 3.11 3.11 0 0 1-2.34-1l.6-.59a2.24 2.24 0 0 0 1.74.77c1 0 1.69-.7 1.69-1.91s-.66-1.71-1.52-1.71a2.3 2.3 0 0 0-1.18.3h-.79v-4h4.27zm10.05 4.51a2.59 2.59 0 0 1-2.51 2.86c-1.93 0-2.65-1.62-2.65-3.88 0-2.66 1.13-4.4 3-4.4a2.87 2.87 0 0 1 1.62.48l-.4.67a2.38 2.38 0 0 0-1.24-.34c-1.2 0-1.91 1.26-2 3.15a2.3 2.3 0 0 1 2-1.08 2.23 2.23 0 0 1 2.18 2.54zm-1 0c0-1.3-.57-1.77-1.35-1.77a2.12 2.12 0 0 0-1.77 1.14c0 1.77.52 2.65 1.63 2.65s1.47-.78 1.47-1.99zm9.66-4.54l-3 7.36-.93-.3 2.94-7h-3.6V364h4.59zm9.6 5.12c0 1.34-1.13 2.28-2.75 2.28s-2.69-.94-2.69-2.26a2.22 2.22 0 0 1 1.61-2.11 2 2 0 0 1-1.28-1.87 2.43 2.43 0 0 1 4.79 0c0 .81-.46 1.35-1.38 1.82a2.31 2.31 0 0 1 1.7 2.14zm-1.06 0c0-.89-.46-1.27-1.75-1.73l-.32-.1a1.84 1.84 0 0 0-1.26 1.84c0 .91.64 1.44 1.66 1.44s1.67-.55 1.67-1.44zm-3-4c0 .82.52 1.14 1.47 1.47l.24.08a1.66 1.66 0 0 0 1.08-1.55 1.4 1.4 0 0 0-2.79 0zM98.33 367c0 3.28-1.33 4.41-4.21 5.25l-.24-.76c2.05-.59 3.33-1.55 3.41-3.42a2.17 2.17 0 0 1-1.84 1 2.3 2.3 0 0 1-2.2-2.57 2.47 2.47 0 0 1 2.53-2.64c1.71-.01 2.55 1.23 2.55 3.14zm-1 .22c0-1.82-.45-2.55-1.5-2.55s-1.53.67-1.53 1.86.57 1.73 1.39 1.73a1.9 1.9 0 0 0 1.61-1.05zm10.82.78c0 2.66-.88 4.14-2.64 4.14s-2.64-1.48-2.64-4.15.88-4.13 2.64-4.13 2.64 1.46 2.64 4.14zm-4.24 0c0 2.38.56 3.34 1.6 3.34s1.59-1 1.59-3.33-.56-3.33-1.59-3.33-1.6.92-1.6 3.32zm-80.72 18.38h-1v-5.67l-1.9 1.15-.45-.72 2.49-1.51h.87zm9.55-4.77c0 1.13-.36 2-3.42 3.92h3.55l-.12.85H28v-.8c3.25-2.34 3.67-2.95 3.67-3.93a1.28 1.28 0 0 0-1.41-1.31 2.15 2.15 0 0 0-1.78 1l-.65-.53a3 3 0 0 1 2.46-1.26 2.17 2.17 0 0 1 2.45 2.06zm9.07-.11a1.84 1.84 0 0 1-1.58 1.81 1.87 1.87 0 0 1 1.82 2 2.46 2.46 0 0 1-2.73 2.44 3 3 0 0 1-2.39-1.07l.6-.55a2.28 2.28 0 0 0 1.75.8 1.56 1.56 0 0 0 1.72-1.64c0-1.09-.6-1.53-1.69-1.53h-.6l.12-.79h.42a1.38 1.38 0 0 0 1.54-1.4c0-.76-.54-1.24-1.42-1.24a2.26 2.26 0 0 0-1.68.73l-.54-.61a3.24 3.24 0 0 1 2.31-.94 2.1 2.1 0 0 1 2.35 1.99zm9.92 4.38h-1v1.78h-1v-1.78h-3.64v-.71l2.42-5.66.84.35-2.19 5.24h2.6l.09-2.22h.86v2.22h1zm8.1-5.46h-3.16v2.45a2.62 2.62 0 0 1 1.31-.32 2.25 2.25 0 0 1 2.27 2.53 2.59 2.59 0 0 1-2.74 2.7 3.1 3.1 0 0 1-2.34-1l.59-.59a2.3 2.3 0 0 0 1.75.77c1 0 1.68-.7 1.68-1.91s-.65-1.71-1.51-1.71a2.46 2.46 0 0 0-1.18.3h-.79v-4H60zm10.1 3.25a2.61 2.61 0 0 1-2.56 2.86c-2 0-2.69-1.62-2.69-3.88 0-2.66 1.12-4.4 3-4.4a3 3 0 0 1 1.66.48l-.41.67a2.47 2.47 0 0 0-1.25-.34c-1.28 0-2 1.27-2 3.17a2.34 2.34 0 0 1 2-1.1 2.26 2.26 0 0 1 2.25 2.54zm-1 0c0-1.3-.59-1.76-1.39-1.76a2.16 2.16 0 0 0-1.82 1.15c0 1.75.51 2.64 1.67 2.64.99.03 1.52-.79 1.52-2zm9.65-3.28l-3 7.41-.93-.3 2.88-7.05h-3.69v-.82h4.74zm9.66 3.86c0 1.34-1.13 2.28-2.75 2.28s-2.69-.94-2.69-2.26a2.22 2.22 0 0 1 1.62-2.11 2 2 0 0 1-1.29-1.87 2.43 2.43 0 0 1 4.79 0c0 .81-.46 1.35-1.38 1.82a2.31 2.31 0 0 1 1.7 2.14zm-1 0c0-.89-.47-1.27-1.76-1.73l-.32-.1a1.84 1.84 0 0 0-1.26 1.84c0 .92.64 1.44 1.66 1.44s1.63-.55 1.63-1.44zm-3.06-4c0 .82.53 1.14 1.47 1.47l.24.08a1.66 1.66 0 0 0 1.08-1.55 1.4 1.4 0 0 0-2.79 0zm13.5 2.38c0 3.1-1.33 4.33-4.22 5.17l-.24-.76c2-.58 3.31-1.63 3.42-3.31a2.24 2.24 0 0 1-1.83.95 2.29 2.29 0 0 1-2.22-2.55 2.47 2.47 0 0 1 2.54-2.62c1.72 0 2.55 1.24 2.55 3.12zm-1 .23c0-1.8-.45-2.54-1.5-2.54s-1.54.67-1.54 1.83.57 1.73 1.4 1.73a1.93 1.93 0 0 0 1.61-1.02zm11.59.14c0 2.21-1.31 3.51-3.11 3.51s-3.1-1.29-3.1-3.51 1.3-3.5 3.1-3.5 3.11 1.28 3.11 3.5zm-5.2 0c0 1.95 1 2.7 2.09 2.7s2.09-.77 2.09-2.7-1-2.69-2.09-2.69-2.09.75-2.09 2.69z" class="ba14d489-6f2b-41c7-b864-9efa7619d1bf" transform="translate(0 -.84)"/><path d="M166.5 297.64c-.08.37-.44 1.62-.56 2h-5.57v-.33c1.09-.11 1.18-.17 1.18-1.19v-4.76c0-1-.12-1.08-1.08-1.18v-.33h3.22v.33c-1 .1-1.09.15-1.09 1.18v4.88c0 .73.09.9.78.91h.94c.62 0 .8-.07 1.07-.37a4.05 4.05 0 0 0 .73-1.23zm3.6-3.42a2.58 2.58 0 0 1 2.61 2.69 2.69 2.69 0 0 1-2.61 2.87 2.64 2.64 0 0 1-2.67-2.68 2.76 2.76 0 0 1 2.67-2.88zm-.15.41c-.73 0-1.39.71-1.39 2.1s.67 2.63 1.66 2.63c.74 0 1.36-.54 1.36-2.19 0-1.4-.58-2.54-1.58-2.54zm6.3 5h-2.76v-.33c.76-.08.83-.14.83-.91v-2.5c0-.79 0-.83-.74-.91v-.3a6.8 6.8 0 0 0 1.69-.49v1.32c.42-.63.92-1.29 1.52-1.29a.62.62 0 0 1 .7.58.81.81 0 0 1-.41.66.24.24 0 0 1-.31 0 .73.73 0 0 0-.54-.3c-.25 0-.7.37-1 1v2.25c0 .79.06.85 1 .93zm6-1.02a2.74 2.74 0 0 1-2 1.17 2.4 2.4 0 0 1-2.35-2.58 3.09 3.09 0 0 1 .78-2.1 2.43 2.43 0 0 1 1.79-.88 1.87 1.87 0 0 1 1.83 1.86c0 .24-.05.35-.24.4s-1.77.15-3.2.2c0 1.61.95 2.27 1.8 2.27a2.05 2.05 0 0 0 1.39-.61zm-2.06-3.93c-.55 0-1.09.51-1.26 1.49h2c.22 0 .29-.06.29-.24a1.11 1.11 0 0 0-1.03-1.25zm9.43 4.95v-.33c.71-.08.79-.12.79-1v-2c0-.85-.29-1.39-1-1.39a2.13 2.13 0 0 0-1.33.63v2.84c0 .75.11.81.77.89v.33h-2.57v-.33c.75-.08.86-.12.86-.91v-2.07c0-.88-.28-1.38-1-1.38a2.3 2.3 0 0 0-1.32.63v2.82c0 .79.08.83.77.91v.33H183v-.33c.79-.08.86-.12.86-.91v-2.46c0-.76-.05-.81-.72-.93v-.3a6.63 6.63 0 0 0 1.67-.48v1a8.15 8.15 0 0 1 .89-.63 1.63 1.63 0 0 1 .94-.31 1.4 1.4 0 0 1 1.31 1c.34-.27.65-.47 1-.68a1.88 1.88 0 0 1 .95-.31c.93 0 1.51.68 1.51 1.85v2.32c0 .8.07.83.75.91v.33zm6 0v-.33c.76-.08.84-.14.84-.95v-2.47c0-.74 0-.79-.75-.91v-.29a7.84 7.84 0 0 0 1.7-.48v4.15c0 .81.08.87.86.95v.33zm1.25-6.61a.66.66 0 0 1-.64-.63.64.64 0 0 1 .65-.66.62.62 0 0 1 .61.66.63.63 0 0 1-.62.61zm1.91 1.6a8 8 0 0 0 1.74-.52v1l1-.6a1.79 1.79 0 0 1 .7-.24 2.17 2.17 0 0 1 2.12 2.29 3.41 3.41 0 0 1-3 3.27 2 2 0 0 1-.85-.22v1.62c0 .89.09 1 1 1v.34h-2.85v-.34c.78-.08.88-.14.88-.94v-5.46c0-.72 0-.77-.79-.88zm1.74 4.1a1.7 1.7 0 0 0 1.14.47c1 0 1.71-.88 1.71-2.22s-.75-2-1.61-2a2.37 2.37 0 0 0-1.24.52zm7.88-2.93c-.22-.69-.53-1.17-1.26-1.17a.73.73 0 0 0-.74.78c0 .51.35.75 1 1.07 1 .49 1.54.85 1.54 1.64a1.78 1.78 0 0 1-2 1.67 3.2 3.2 0 0 1-1.43-.34c-.06-.35-.17-1-.21-1.4l.34-.06c.22.76.64 1.39 1.48 1.39a.8.8 0 0 0 .84-.82c0-.54-.33-.81-1-1.12-.84-.41-1.52-.8-1.52-1.66a1.67 1.67 0 0 1 1.87-1.55 5.81 5.81 0 0 1 1.15.16c0 .29.12 1 .18 1.33zm7.05 3.57a13.28 13.28 0 0 0-1.83.42v-.93a3 3 0 0 1-1.84.93c-.8 0-1.5-.5-1.5-1.8v-2.33c0-.65-.09-.72-.39-.78l-.34-.06v-.31a15.75 15.75 0 0 0 1.72-.22v3.39c0 1.05.55 1.35 1.09 1.35a1.88 1.88 0 0 0 1.3-.58v-2.79c0-.65-.14-.73-.55-.79l-.39-.05v-.31a17.47 17.47 0 0 0 1.89-.22v4c0 .6.09.68.55.71h.33zm7.19.27v-.33c.71-.08.79-.12.79-1v-2c0-.85-.28-1.39-1-1.39a2.18 2.18 0 0 0-1.33.63 5 5 0 0 1 0 .51v2.33c0 .75.1.81.76.89v.33h-2.56v-.33c.74-.08.85-.12.85-.91v-2.07c0-.88-.28-1.38-1-1.38a2.3 2.3 0 0 0-1.32.63v2.82c0 .79.09.83.77.91v.33H216v-.33c.79-.08.86-.12.86-.91v-2.46c0-.76 0-.81-.71-.93v-.3a6.68 6.68 0 0 0 1.66-.48v1a9.27 9.27 0 0 1 .89-.63 1.63 1.63 0 0 1 .95-.31 1.4 1.4 0 0 1 1.3 1c.34-.27.65-.47.95-.68a1.91 1.91 0 0 1 1-.31c.94 0 1.51.68 1.51 1.85v2.32c0 .8.07.83.76.91v.33zm11.86-.3a12.26 12.26 0 0 0-1.86.45V299l-.74.43a2.31 2.31 0 0 1-1 .35 2.5 2.5 0 0 1-2.23-2.64 3 3 0 0 1 3.1-2.92 2.66 2.66 0 0 1 .82.13v-1.76c0-.77-.09-.79-.94-.86v-.31a13.77 13.77 0 0 0 1.89-.41v7.23c0 .62.08.71.52.73h.39zm-1.86-4a1.5 1.5 0 0 0-1.26-.61c-.58 0-1.6.38-1.6 2.11 0 1.45.9 2.22 1.67 2.23a2.14 2.14 0 0 0 1.19-.43zm5.11-1.11a2.58 2.58 0 0 1 2.62 2.69 2.69 2.69 0 0 1-2.62 2.87 2.64 2.64 0 0 1-2.66-2.68 2.75 2.75 0 0 1 2.66-2.88zm-.14.41c-.73 0-1.39.71-1.39 2.1s.67 2.63 1.65 2.63c.75 0 1.37-.54 1.37-2.19 0-1.4-.58-2.54-1.63-2.54zm3.39 5v-.33c.77-.08.86-.14.86-.93v-5.74c0-.73-.06-.81-.82-.9v-.31a8.61 8.61 0 0 0 1.77-.41v7.36c0 .79.07.85.85.93v.33zm6-5.41a2.58 2.58 0 0 1 2.61 2.69 2.69 2.69 0 0 1-2.61 2.87 2.64 2.64 0 0 1-2.67-2.68 2.76 2.76 0 0 1 2.67-2.88zm-.15.41c-.73 0-1.39.71-1.39 2.1s.67 2.63 1.66 2.63c.74 0 1.36-.54 1.36-2.19.02-1.4-.55-2.54-1.61-2.54zm6.32 5h-2.76v-.33c.76-.08.83-.14.83-.91v-2.5c0-.79-.05-.83-.74-.91v-.3a7.05 7.05 0 0 0 1.69-.49v1.32c.42-.63.92-1.29 1.52-1.29a.63.63 0 0 1 .7.58.81.81 0 0 1-.41.66.24.24 0 0 1-.31 0 .73.73 0 0 0-.54-.3c-.25 0-.7.37-1 1v2.25c0 .79.06.85 1 .93zm7.63-3.84c-.21-.69-.52-1.17-1.26-1.17a.73.73 0 0 0-.74.78c0 .51.35.75 1 1.07 1 .49 1.55.85 1.55 1.64a1.79 1.79 0 0 1-2 1.67 3.24 3.24 0 0 1-1.43-.34c-.06-.35-.16-1-.21-1.4l.35-.06c.21.76.63 1.39 1.47 1.39a.8.8 0 0 0 .84-.82c0-.54-.32-.81-1-1.12-.84-.41-1.52-.8-1.52-1.66a1.67 1.67 0 0 1 1.87-1.55 5.81 5.81 0 0 1 1.15.16c0 .29.12 1 .18 1.33zm1.34 3.84v-.33c.75-.08.84-.14.84-.95v-2.47c0-.74 0-.79-.76-.91v-.29a7.68 7.68 0 0 0 1.7-.48v4.15c0 .81.09.87.87.95v.33zm1.24-6.61a.65.65 0 0 1-.63-.63.64.64 0 0 1 .65-.66.63.63 0 0 1 .61.66.64.64 0 0 1-.63.61zm4.3 6.6a1.2 1.2 0 0 1-.52.16c-.76 0-1.17-.47-1.17-1.43v-3.49h-.83l-.05-.14.33-.35h.56v-1c.23-.24.57-.55.8-.79h.18v1.78h1.36a.37.37 0 0 1-.07.49h-1.29v3.07c0 1 .38 1.15.69 1.15a1.77 1.77 0 0 0 .73-.19l.11.31zm7.94.16a.88.88 0 0 1-.56-.23 1.14 1.14 0 0 1-.29-.54 3.85 3.85 0 0 1-1.44.77 1.47 1.47 0 0 1-1.46-1.48 1.22 1.22 0 0 1 1-1.2 9.35 9.35 0 0 0 1.9-.78v-.24c0-.85-.44-1.34-1.06-1.34a.68.68 0 0 0-.56.28 2.59 2.59 0 0 0-.33.77c-.06.2-.16.28-.34.28a.58.58 0 0 1-.53-.53c0-.17.15-.31.39-.48a5.26 5.26 0 0 1 1.73-.84 1.58 1.58 0 0 1 1.62 1.72v2.31c0 .56.2.72.42.72a1 1 0 0 0 .43-.13l.12.34zm-.87-3l-1.12.51c-.45.2-.73.43-.73.87a.87.87 0 0 0 .86.92 1.59 1.59 0 0 0 1-.43zm8.98 2.85v-.33c.71-.08.79-.12.79-1v-2c0-.85-.28-1.39-1-1.39a2.18 2.18 0 0 0-1.33.63 5 5 0 0 1 0 .51v2.33c0 .75.11.81.77.89v.33h-2.56v-.33c.74-.08.85-.12.85-.91v-2.07c0-.88-.28-1.38-1-1.38a2.33 2.33 0 0 0-1.32.63v2.82c0 .79.09.83.77.91v.33h-2.58v-.33c.79-.08.87-.12.87-.91v-2.46c0-.76-.05-.81-.72-.93v-.3a6.68 6.68 0 0 0 1.66-.48v1a10.74 10.74 0 0 1 .89-.63 1.63 1.63 0 0 1 .95-.31 1.41 1.41 0 0 1 1.31 1c.33-.27.64-.47.94-.68a1.91 1.91 0 0 1 .95-.31c.94 0 1.51.68 1.51 1.85v2.32c0 .8.07.83.76.91v.33zm7.58-1.02a2.75 2.75 0 0 1-2 1.17 2.4 2.4 0 0 1-2.31-2.58 3.09 3.09 0 0 1 .78-2.1 2.47 2.47 0 0 1 1.79-.88 1.88 1.88 0 0 1 1.84 1.86c0 .24-.05.35-.24.4s-1.78.15-3.21.2c0 1.61.95 2.27 1.8 2.27a2.05 2.05 0 0 0 1.39-.61zm-2.07-3.93c-.55 0-1.09.51-1.26 1.49h2c.22 0 .29-.06.29-.24a1.11 1.11 0 0 0-1.03-1.25zm5.27 4.94a1.2 1.2 0 0 1-.51.16c-.77 0-1.18-.47-1.18-1.43v-3.49H292l-.05-.14.33-.35h.55v-1c.23-.24.58-.55.8-.79h.18v1.78h1.36a.36.36 0 0 1-.07.49h-1.29v3.07c0 1 .38 1.15.69 1.15a1.72 1.72 0 0 0 .73-.19l.11.31zm1.71 1.09c.54-.25 1-.57 1-1s-.35-.54-.77-.65c-.07 0-.19-.15-.19-.37a.61.61 0 0 1 .67-.6 1.14 1.14 0 0 1 1 1.27 1.94 1.94 0 0 1-1.54 1.73zm9.53-.93a.88.88 0 0 1-.56-.23 1.14 1.14 0 0 1-.29-.54 3.85 3.85 0 0 1-1.44.77 1.47 1.47 0 0 1-1.46-1.48 1.22 1.22 0 0 1 1-1.2 9.35 9.35 0 0 0 1.9-.78v-.24c0-.85-.43-1.34-1.06-1.34a.68.68 0 0 0-.56.28 2.37 2.37 0 0 0-.32.77.33.33 0 0 1-.35.28.58.58 0 0 1-.53-.53c0-.17.16-.31.4-.48a5.1 5.1 0 0 1 1.72-.84 1.58 1.58 0 0 1 1.62 1.72v2.31c0 .56.21.72.42.72a.94.94 0 0 0 .43-.13l.12.34zm-.87-3l-1.12.51c-.45.2-.73.43-.73.87a.87.87 0 0 0 .87.92 1.59 1.59 0 0 0 1-.43zm5.84 2.85v-.33c.7-.08.77-.16.77-1v-2c0-.84-.3-1.41-1.09-1.41a2.08 2.08 0 0 0-1.33.63v2.8c0 .83.07.85.78.93v.33h-2.59v-.33c.79-.09.86-.14.86-.93v-2.42c0-.78-.08-.81-.73-.92v-.31a7 7 0 0 0 1.68-.48v.95l.81-.56a1.91 1.91 0 0 1 1-.36c1 0 1.56.71 1.56 1.87v2.28c0 .82.07.85.76.93v.33zm8.99-.3a12.26 12.26 0 0 0-1.86.45V299l-.74.43a2.31 2.31 0 0 1-.95.35 2.5 2.5 0 0 1-2.23-2.64 3 3 0 0 1 3.1-2.92 2.66 2.66 0 0 1 .82.13v-1.76c0-.77-.08-.79-.94-.86v-.31a13.77 13.77 0 0 0 1.89-.41v7.23c0 .62.08.71.52.73h.39zm-1.86-4a1.5 1.5 0 0 0-1.26-.61c-.58 0-1.6.38-1.6 2.11 0 1.45.91 2.22 1.67 2.23a2.14 2.14 0 0 0 1.19-.43zM164.86 313a2.83 2.83 0 0 1-2.05 1.23 2.42 2.42 0 0 1-2.42-2.52 2.85 2.85 0 0 1 1.21-2.35 3.22 3.22 0 0 1 1.82-.69 1.77 1.77 0 0 1 1.12.33.37.37 0 0 1 .19.35.62.62 0 0 1-.43.54c-.06 0-.11 0-.23-.12a1.77 1.77 0 0 0-1.21-.51c-.79 0-1.49.67-1.49 1.92a2 2 0 0 0 1.83 2.22 1.91 1.91 0 0 0 1.46-.66zm3.33-4.38a2.58 2.58 0 0 1 2.61 2.69 2.69 2.69 0 0 1-2.61 2.87 2.63 2.63 0 0 1-2.66-2.68 2.75 2.75 0 0 1 2.66-2.88zm-.19.38c-.73 0-1.39.71-1.39 2.1s.68 2.63 1.66 2.63c.74 0 1.37-.54 1.37-2.19.04-1.37-.54-2.54-1.64-2.54zm7 5v-.33c.69-.08.77-.16.77-1v-2c0-.84-.3-1.41-1.1-1.41a2.1 2.1 0 0 0-1.33.63v2.8c0 .83.08.85.78.93v.38h-2.59v-.33c.79-.09.87-.14.87-.93v-2.44c0-.78-.09-.81-.74-.92v-.31a6.82 6.82 0 0 0 1.68-.48v1l.82-.56a1.88 1.88 0 0 1 1-.36c1 0 1.56.71 1.56 1.87v2.28c0 .82.08.85.77.93v.25zm6.22-3.81c-.22-.69-.53-1.17-1.26-1.17a.73.73 0 0 0-.74.78c0 .51.35.75 1 1.07 1 .49 1.54.85 1.54 1.64a1.78 1.78 0 0 1-1.95 1.67 3.2 3.2 0 0 1-1.43-.34c-.06-.35-.17-1-.21-1.4l.34-.06c.22.77.64 1.39 1.48 1.39a.8.8 0 0 0 .84-.82c0-.54-.33-.81-1-1.12-.84-.41-1.52-.8-1.52-1.66a1.67 1.67 0 0 1 1.87-1.55 5.81 5.81 0 0 1 1.15.16c0 .29.12 1 .18 1.33zM187 313a2.75 2.75 0 0 1-2 1.17 2.4 2.4 0 0 1-2.35-2.58 3.09 3.09 0 0 1 .78-2.1 2.5 2.5 0 0 1 1.79-.88 1.88 1.88 0 0 1 1.84 1.86c0 .24-.05.35-.24.4s-1.78.15-3.21.2c0 1.61 1 2.27 1.8 2.27a2 2 0 0 0 1.39-.61zm-2-3.92c-.55 0-1.09.52-1.26 1.49h2.05c.22 0 .29-.06.29-.24a1.11 1.11 0 0 0-1.08-1.25zm7.44 3.92a2.85 2.85 0 0 1-2.05 1.23 2.42 2.42 0 0 1-2.42-2.52 2.82 2.82 0 0 1 1.21-2.35 3.17 3.17 0 0 1 1.82-.69 1.77 1.77 0 0 1 1.12.33.39.39 0 0 1 .19.35.62.62 0 0 1-.43.54c-.06 0-.11 0-.23-.12a1.77 1.77 0 0 0-1.21-.51c-.8 0-1.49.67-1.49 1.92a2 2 0 0 0 1.82 2.22 1.93 1.93 0 0 0 1.47-.66zm3.11 1a1.24 1.24 0 0 1-.52.16c-.77 0-1.17-.47-1.17-1.43v-3.49H193l-.05-.14.33-.35h.55v-1c.22-.24.57-.55.8-.79h.18v1.78h1.37a.37.37 0 0 1-.07.49h-1.3v3.07c0 1 .39 1.15.7 1.15a1.77 1.77 0 0 0 .73-.19l.11.31zm5.45-1a2.74 2.74 0 0 1-2 1.17 2.4 2.4 0 0 1-2.35-2.58 3.09 3.09 0 0 1 .78-2.1 2.47 2.47 0 0 1 1.79-.88 1.87 1.87 0 0 1 1.83 1.86c0 .24 0 .35-.24.4s-1.77.15-3.2.2c0 1.61 1 2.27 1.8 2.27a2 2 0 0 0 1.39-.61zm-2-3.92c-.55 0-1.09.52-1.26 1.49h2.05c.22 0 .29-.06.29-.24a1.11 1.11 0 0 0-1.08-1.25zm5.25 4.92a1.24 1.24 0 0 1-.52.16c-.77 0-1.17-.47-1.17-1.43v-3.49h-.83v-.14l.33-.35h.55v-1c.22-.24.57-.55.8-.79h.18v1.78h1.37a.37.37 0 0 1-.07.49h-1.3v3.07c0 1 .39 1.15.7 1.15a1.77 1.77 0 0 0 .73-.19l.11.31zm6.93-.24a13.28 13.28 0 0 0-1.83.42v-.93a3 3 0 0 1-1.84.93c-.8 0-1.5-.49-1.5-1.8v-2.33c0-.65-.09-.72-.39-.78l-.34-.06v-.31a13.63 13.63 0 0 0 1.72-.22v3.39c0 1.05.55 1.35 1.09 1.35a1.91 1.91 0 0 0 1.3-.57v-2.8c0-.65-.15-.73-.55-.79l-.39-.05v-.31a16.89 16.89 0 0 0 1.88-.22v4c0 .6.1.69.56.71h.33zm4.96-.76a2.75 2.75 0 0 1-2 1.17 2.39 2.39 0 0 1-2.35-2.58 3 3 0 0 1 .78-2.1 2.47 2.47 0 0 1 1.78-.88 1.87 1.87 0 0 1 1.84 1.86c0 .24 0 .35-.24.4s-1.78.15-3.2.2c0 1.61.94 2.27 1.8 2.27a2 2 0 0 0 1.39-.61zm-2.06-3.93c-.56 0-1.1.52-1.26 1.49h2.05c.21 0 .29-.06.29-.24a1.11 1.11 0 0 0-1.08-1.24zm5.6 4.93h-2.76v-.33c.76-.08.83-.14.83-.91v-2.5c0-.79-.05-.83-.74-.91v-.3a7.05 7.05 0 0 0 1.69-.49v1.32c.42-.63.92-1.29 1.52-1.29a.63.63 0 0 1 .7.58.81.81 0 0 1-.41.66.24.24 0 0 1-.31 0 .73.73 0 0 0-.54-.3c-.26 0-.7.37-1 1v2.25c0 .79.06.85 1 .93z" class="b1921560-a8f9-4f47-aff1-745c8a8f011f" transform="translate(0 -.84)"/><path d="M224.94 314v-.34l.76-.08c.54-.05.6-.15.6-.75v-2.67c0-.62-.06-.69-.51-.74l-.72-.05v-.32a10.33 10.33 0 0 0 2.19-.5v4.28c0 .6.06.7.65.75l.73.08v.34zm10.06-5.09c-.55 1-2.08 3.91-3.64 6.9l-.93.18-.08-.16a68.09 68.09 0 0 0 3.72-6.19h-3.71v-.87h4.56zm5.86 0c-.55 1-2.09 3.91-3.65 6.9l-.92.18-.09-.16a68.09 68.09 0 0 0 3.72-6.19h-3.7v-.87h4.55zm5.71-1.79a4.5 4.5 0 0 0-3.39 2.85l.69-.28a2.53 2.53 0 0 1 .79-.21 2 2 0 0 1 2 2.15 2.46 2.46 0 0 1-2.44 2.55c-1.22 0-2.37-1-2.37-2.85a4.72 4.72 0 0 1 3.1-4.18 7 7 0 0 1 1.5-.41zm-2.53 3a2.07 2.07 0 0 0-1 .26 3.25 3.25 0 0 0-.08.85c0 1.56.66 2.47 1.5 2.47.58 0 1.18-.42 1.18-1.56.04-.87-.29-1.99-1.64-1.99z" class="ba14d489-6f2b-41c7-b864-9efa7619d1bf" transform="translate(0 -.84)"/><path d="M254.8 313a2.74 2.74 0 0 1-2 1.17 2.4 2.4 0 0 1-2.35-2.58 3.09 3.09 0 0 1 .78-2.1 2.47 2.47 0 0 1 1.79-.88 1.87 1.87 0 0 1 1.83 1.86c0 .24-.05.35-.24.4s-1.77.15-3.2.2c0 1.61 1 2.27 1.8 2.27a2 2 0 0 0 1.39-.61zm-2.06-3.93c-.55 0-1.09.52-1.26 1.49h2.05c.22 0 .29-.06.29-.24a1.11 1.11 0 0 0-1.08-1.24zm2.66 4.93v-.33c.77-.08.87-.14.87-.93V307c0-.73-.06-.8-.83-.9v-.31a8.73 8.73 0 0 0 1.78-.41v7.36c0 .79.07.85.85.93v.33zm3.29 0v-.33c.76-.08.84-.14.84-.95v-2.47c0-.74 0-.79-.75-.91v-.29a7.84 7.84 0 0 0 1.7-.48v4.15c0 .81.08.87.86.95v.33zm1.25-6.61a.65.65 0 0 1-.63-.63.64.64 0 0 1 .64-.66.62.62 0 0 1 .61.66.63.63 0 0 1-.62.66zm4.3 6.61a1.24 1.24 0 0 1-.52.16c-.77 0-1.18-.47-1.18-1.43v-3.49h-.82l-.05-.14.32-.35h.55v-1c.23-.24.58-.55.81-.79h.18v1.78h1.37a.37.37 0 0 1-.07.49h-1.3v3.07c0 1 .39 1.15.7 1.15a1.77 1.77 0 0 0 .73-.19l.11.31zm1.7 1.11c.54-.25 1-.57 1-1s-.35-.54-.77-.65c-.07 0-.19-.15-.19-.37a.61.61 0 0 1 .67-.6 1.14 1.14 0 0 1 1 1.27 1.94 1.94 0 0 1-1.53 1.73zm8.82-4.92c-.22-.69-.53-1.17-1.26-1.17a.73.73 0 0 0-.74.78c0 .51.34.75 1 1.07 1 .49 1.54.85 1.54 1.64a1.78 1.78 0 0 1-1.95 1.67 3.16 3.16 0 0 1-1.43-.34c-.06-.35-.17-1-.21-1.4l.34-.06c.22.77.64 1.39 1.48 1.39a.8.8 0 0 0 .84-.82c0-.54-.33-.81-1-1.12-.84-.41-1.53-.8-1.53-1.66a1.67 1.67 0 0 1 1.88-1.55 5.81 5.81 0 0 1 1.15.16c0 .29.12 1 .18 1.33zm5.8 2.81a2.75 2.75 0 0 1-2 1.17 2.4 2.4 0 0 1-2.35-2.58 3.09 3.09 0 0 1 .78-2.1 2.5 2.5 0 0 1 1.79-.88 1.87 1.87 0 0 1 1.83 1.86c0 .24 0 .35-.23.4s-1.78.15-3.21.2c0 1.61.95 2.27 1.8 2.27a2 2 0 0 0 1.39-.61zm-2.07-3.93c-.55 0-1.09.52-1.26 1.49h2c.22 0 .29-.06.29-.24a1.11 1.11 0 0 0-1.03-1.24zm8.8 4.66a11.73 11.73 0 0 0-1.86.45v-.78l-.75.43a2.29 2.29 0 0 1-.94.35 2.51 2.51 0 0 1-2.24-2.64 3 3 0 0 1 3.11-2.92 2.47 2.47 0 0 1 .82.14V307c0-.76-.09-.79-.94-.86v-.31a13.29 13.29 0 0 0 1.88-.41v7.23c0 .63.09.71.53.73h.39zm-1.86-4a1.5 1.5 0 0 0-1.26-.61c-.58 0-1.6.39-1.6 2.11 0 1.45.9 2.22 1.67 2.23a2.14 2.14 0 0 0 1.19-.43zm11.07 4a12.26 12.26 0 0 0-1.86.45v-.78l-.74.43a2.27 2.27 0 0 1-.95.35 2.5 2.5 0 0 1-2.23-2.64 3 3 0 0 1 3.11-2.92 2.41 2.41 0 0 1 .81.14V307c0-.76-.08-.79-.93-.86v-.31a13.29 13.29 0 0 0 1.88-.41v7.23c0 .63.08.71.53.73h.38zm-1.86-4a1.49 1.49 0 0 0-1.26-.61c-.57 0-1.59.39-1.59 2.11 0 1.45.9 2.22 1.67 2.23a2.11 2.11 0 0 0 1.18-.43zm2.43 4.27v-.33c.75-.08.84-.14.84-.95v-2.47c0-.74 0-.79-.76-.91v-.29a7.77 7.77 0 0 0 1.71-.48v4.15c0 .81.08.87.86.95v.33zm1.25-6.61a.66.66 0 0 1-.64-.63.64.64 0 0 1 .65-.66.63.63 0 0 1 .61.66.64.64 0 0 1-.62.66zm5.8 6.79a.88.88 0 0 1-.56-.23 1.14 1.14 0 0 1-.29-.54 3.85 3.85 0 0 1-1.44.77 1.47 1.47 0 0 1-1.46-1.48 1.22 1.22 0 0 1 1-1.2 9.35 9.35 0 0 0 1.9-.78v-.24c0-.85-.43-1.34-1.06-1.34a.68.68 0 0 0-.56.28 2.59 2.59 0 0 0-.33.77c-.06.2-.16.28-.34.28a.58.58 0 0 1-.53-.53c0-.17.15-.31.39-.48a5.26 5.26 0 0 1 1.73-.84 1.58 1.58 0 0 1 1.62 1.72v2.31c0 .56.2.72.42.72a1 1 0 0 0 .43-.13l.12.34zm-.87-3l-1.12.51c-.45.2-.73.43-.73.87a.87.87 0 0 0 .86.92 1.59 1.59 0 0 0 1-.43zm8.98 2.82v-.33c.71-.08.79-.12.79-1v-2c0-.85-.28-1.39-1-1.39a2.23 2.23 0 0 0-1.33.63 5 5 0 0 1 0 .51v2.33c0 .75.11.81.77.89v.36h-2.56v-.33c.74-.08.85-.12.85-.91v-2.07c0-.88-.27-1.38-1-1.38a2.33 2.33 0 0 0-1.32.63v2.82c0 .79.09.83.77.91v.33h-2.58v-.33c.79-.08.87-.12.87-.91v-2.46c0-.76-.05-.81-.72-.93v-.3a6.68 6.68 0 0 0 1.66-.48v1a8.87 8.87 0 0 1 .89-.62 1.6 1.6 0 0 1 .95-.32 1.41 1.41 0 0 1 1.31 1 11.21 11.21 0 0 1 .94-.67 1.83 1.83 0 0 1 .95-.32c.94 0 1.51.68 1.51 1.85v2.32c0 .8.07.83.76.91v.26zm-148.46 14.43v-.33c.7-.08.77-.16.77-1v-2c0-.84-.3-1.41-1.09-1.41a2.08 2.08 0 0 0-1.33.63v2.8c0 .83.07.85.78.93v.33h-2.59v-.33c.79-.09.86-.14.86-.93v-2.42c0-.78-.08-.81-.73-.92v-.31a7 7 0 0 0 1.68-.48v.95l.81-.56a1.91 1.91 0 0 1 1-.36c1 0 1.56.71 1.56 1.87v2.28c0 .82.07.85.76.93v.33zm5.87-5.43a2.58 2.58 0 0 1 2.62 2.69 2.69 2.69 0 0 1-2.62 2.87 2.64 2.64 0 0 1-2.64-2.66 2.75 2.75 0 0 1 2.64-2.9zm-.14.41c-.73 0-1.39.71-1.39 2.1s.67 2.63 1.65 2.63c.74 0 1.37-.54 1.37-2.19 0-1.38-.58-2.52-1.63-2.52zm6.98 5.02v-.33c.7-.08.77-.16.77-1v-2c0-.84-.3-1.41-1.09-1.41a2.1 2.1 0 0 0-1.34.63v2.8c0 .83.08.85.78.93v.33H173v-.33c.8-.09.87-.14.87-.93v-2.42c0-.78-.09-.81-.73-.92v-.31a6.87 6.87 0 0 0 1.67-.48v.95l.82-.56a1.91 1.91 0 0 1 1-.36c1 0 1.55.71 1.55 1.87v2.28c0 .82.08.85.77.93v.33zm8.92-.27a13.09 13.09 0 0 0-1.84.42v-.93a3 3 0 0 1-1.83.93c-.81 0-1.5-.5-1.5-1.8v-2.33c0-.65-.1-.72-.4-.78l-.34-.06v-.31c.52 0 1.31-.15 1.72-.22v3.39c0 1 .56 1.35 1.09 1.35a1.88 1.88 0 0 0 1.3-.58v-2.79c0-.65-.14-.73-.55-.79l-.39-.05v-.31a17.47 17.47 0 0 0 1.89-.22v4c0 .6.09.68.55.71h.34zm7.18.27v-.33c.71-.08.79-.12.79-1v-2c0-.85-.28-1.39-1-1.39a2.18 2.18 0 0 0-1.33.63 5 5 0 0 1 0 .51v2.33c0 .75.11.81.76.89v.33h-2.56v-.33c.74-.08.85-.12.85-.91v-2.07c0-.89-.28-1.38-1-1.38a2.33 2.33 0 0 0-1.32.63v2.82c0 .79.09.83.77.91v.33H186v-.33c.79-.08.87-.12.87-.91v-2.46c0-.76-.05-.81-.72-.93v-.3a6.68 6.68 0 0 0 1.66-.48v1a10.74 10.74 0 0 1 .89-.63 1.63 1.63 0 0 1 1-.31 1.41 1.41 0 0 1 1.31 1c.33-.27.64-.47.94-.68a1.91 1.91 0 0 1 .95-.31c.94 0 1.51.67 1.51 1.85v2.32c0 .8.07.83.76.91v.33zm9.81 0v-.33c.7-.08.79-.12.79-1v-2c0-.85-.29-1.39-1-1.39a2.13 2.13 0 0 0-1.33.63v2.84c0 .75.11.81.77.89v.33h-2.57v-.33c.75-.08.85-.12.85-.91v-2.07c0-.89-.27-1.38-1-1.38a2.3 2.3 0 0 0-1.32.63v2.82c0 .79.08.83.76.91v.33h-2.57v-.33c.79-.08.86-.12.86-.91v-2.46c0-.76 0-.81-.72-.93v-.3a6.75 6.75 0 0 0 1.67-.48v1a9 9 0 0 1 .88-.63 1.66 1.66 0 0 1 .95-.31 1.4 1.4 0 0 1 1.31 1c.34-.27.65-.47.95-.68a1.88 1.88 0 0 1 .94-.31c.94 0 1.52.67 1.52 1.85v2.32c0 .8.07.83.75.91v.33zm8.24-4.94c-.62.1-.75.19-1 .88s-.63 1.48-1.46 3.57a30.88 30.88 0 0 0-1.18 3.29c-.08.25-.21.31-.36.31a.69.69 0 0 1-.73-.58c0-.15.08-.26.26-.42a2.66 2.66 0 0 0 .8-.88c.25-.51.43-.93.49-1.08a.72.72 0 0 0 0-.5c-.47-1.36-1.11-2.84-1.47-3.7-.27-.66-.38-.81-1-.89v-.32h2.43v.32c-.55.08-.61.2-.46.65l1.16 2.95c.34-.83.82-2.16 1.07-2.92.15-.45.06-.58-.63-.68v-.32h2.19zm6.37 4.94v-.33c.7-.08.77-.16.77-1v-2c0-.84-.3-1.41-1.09-1.41a2.08 2.08 0 0 0-1.33.63v2.8c0 .83.07.85.78.93v.33h-2.59v-.33c.79-.09.86-.14.86-.93v-2.42c0-.78-.08-.81-.73-.92v-.31a7 7 0 0 0 1.68-.48v.95l.81-.56a1.91 1.91 0 0 1 1-.36c1 0 1.56.71 1.56 1.87v2.28c0 .82.07.85.77.93v.33zm3.19 0v-.33c.75-.08.83-.14.83-1v-2.47c0-.74 0-.79-.75-.91v-.29A7.68 7.68 0 0 0 222 323v4.15c0 .81.09.87.87 1v.33zm1.24-6.61a.65.65 0 0 1-.63-.63.64.64 0 0 1 .64-.66.63.63 0 0 1 .62.66.64.64 0 0 1-.63.63zm4.51 1.32a1.56 1.56 0 0 1 .53-.12 2.46 2.46 0 0 1 2.36 2.55 3 3 0 0 1-3 3 4.38 4.38 0 0 1-1.85-.44v-6.73c0-.74 0-.81-.8-.87v-.31a10.23 10.23 0 0 0 1.75-.41v3.75zm-1 3.9a1 1 0 0 0 .06.42 1.37 1.37 0 0 0 1.19.65c1 0 1.55-.89 1.55-2.24a1.94 1.94 0 0 0-1.83-2.18 2.35 2.35 0 0 0-1 .23zm8.06 1.39v-.33c.69-.08.79-.14.79-.93v-2c0-1-.39-1.5-1.19-1.49a1.74 1.74 0 0 0-1.27.62v2.83c0 .78.1.85.82.93v.33h-2.62v-.33c.7-.06.85-.12.85-.93v-5.78c0-.63 0-.79-.84-.86v-.31a7.28 7.28 0 0 0 1.79-.41v4.09a2.71 2.71 0 0 1 1.74-.88c1 0 1.67.62 1.67 2.05v2.12c0 .79.09.85.79.91v.33zm10.4-1.02a2.74 2.74 0 0 1-2 1.17 2.4 2.4 0 0 1-2.35-2.58 3.09 3.09 0 0 1 .78-2.1 2.43 2.43 0 0 1 1.79-.88 1.87 1.87 0 0 1 1.83 1.86c0 .24-.05.35-.24.4s-1.77.15-3.2.2c0 1.61.95 2.27 1.8 2.27a2.05 2.05 0 0 0 1.39-.61zm-2.06-3.93c-.55 0-1.09.51-1.26 1.49h2c.22 0 .29-.06.29-.24a1.11 1.11 0 0 0-1.03-1.25zm8.73 4.68a13.28 13.28 0 0 0-1.83.42v-.93a3 3 0 0 1-1.84.93c-.8 0-1.5-.5-1.5-1.8v-2.33c0-.65-.09-.72-.39-.78l-.34-.06v-.31c.52 0 1.31-.15 1.72-.22v3.39c0 1 .55 1.35 1.09 1.35a1.88 1.88 0 0 0 1.3-.58v-2.79c0-.65-.15-.73-.55-.79l-.39-.05v-.31a17.47 17.47 0 0 0 1.89-.22v4c0 .6.09.68.55.71h.33zm.59.27v-.33c.76-.08.84-.14.84-1v-2.47c0-.74 0-.79-.75-.91v-.29a7.68 7.68 0 0 0 1.7-.48v4.15c0 .81.09.87.86 1v.33zm1.25-6.61a.65.65 0 0 1-.63-.63.64.64 0 0 1 .64-.66.63.63 0 0 1 .62.66.64.64 0 0 1-.63.63zm5.09 2.77c-.22-.69-.53-1.17-1.26-1.17a.73.73 0 0 0-.75.78c0 .51.35.75 1 1.07 1 .49 1.55.85 1.55 1.64a1.79 1.79 0 0 1-2 1.67 3.16 3.16 0 0 1-1.43-.34c-.06-.35-.17-1-.22-1.4l.35-.06c.22.76.64 1.39 1.48 1.39a.8.8 0 0 0 .83-.82c0-.54-.32-.81-1-1.12-.84-.41-1.53-.8-1.53-1.66A1.67 1.67 0 0 1 256 323a5.7 5.7 0 0 1 1.15.16c0 .29.12 1 .18 1.33zm7.92 3.84v-.33c.7-.08.79-.12.79-1v-2c0-.85-.29-1.39-1-1.39a2.13 2.13 0 0 0-1.33.63v2.84c0 .75.11.81.77.89v.33h-2.57v-.33c.75-.08.85-.12.85-.91v-2.07c0-.89-.27-1.38-1-1.38a2.3 2.3 0 0 0-1.32.63v2.82c0 .79.08.83.76.91v.33h-2.57v-.33c.79-.08.86-.12.86-.91v-2.46c0-.76-.05-.81-.72-.93v-.3a6.75 6.75 0 0 0 1.67-.48v1a9 9 0 0 1 .88-.63 1.66 1.66 0 0 1 .95-.31 1.4 1.4 0 0 1 1.31 1c.34-.27.65-.47.95-.68a1.88 1.88 0 0 1 .94-.31c.94 0 1.52.67 1.52 1.85v2.32c0 .8.07.83.75.91v.33zm5.89-5.43a2.58 2.58 0 0 1 2.62 2.69 2.69 2.69 0 0 1-2.62 2.87 2.64 2.64 0 0 1-2.66-2.68 2.75 2.75 0 0 1 2.66-2.88zm-.14.41c-.73 0-1.4.71-1.4 2.1s.68 2.63 1.66 2.63c.74 0 1.37-.54 1.37-2.19 0-1.38-.58-2.52-1.63-2.52zm9.5 4.72a12.26 12.26 0 0 0-1.86.45v-.78l-.74.43a2.31 2.31 0 0 1-.95.35 2.5 2.5 0 0 1-2.23-2.64 3 3 0 0 1 3.1-2.92 2.66 2.66 0 0 1 .82.13v-1.76c0-.77-.08-.79-.94-.86v-.31a13.77 13.77 0 0 0 1.89-.41V327c0 .62.08.71.52.73h.39zm-1.86-4a1.5 1.5 0 0 0-1.26-.61c-.58 0-1.6.38-1.6 2.11 0 1.45.9 2.22 1.67 2.23a2.14 2.14 0 0 0 1.19-.43zm7.58 4.29a1.16 1.16 0 0 1-.51.16c-.77 0-1.18-.47-1.18-1.43v-3.49h-.82l-.05-.14.32-.35h.55v-1c.23-.24.58-.55.81-.79h.18v1.78h1.37a.37.37 0 0 1-.07.49h-1.3v3.07c0 1 .38 1.15.7 1.15a1.81 1.81 0 0 0 .73-.19l.11.31zm1.29.01v-.33c.76-.08.84-.14.84-1v-2.47c0-.74 0-.79-.76-.91v-.29A7.77 7.77 0 0 0 289 323v4.15c0 .81.08.87.86 1v.33zm1.25-6.61a.66.66 0 0 1-.64-.63.64.64 0 0 1 .65-.66.63.63 0 0 1 .61.66.64.64 0 0 1-.62.63zm5.46 6.61v-.33c.69-.08.76-.16.76-1v-2c0-.84-.3-1.41-1.09-1.41a2.08 2.08 0 0 0-1.33.63v2.8c0 .83.07.85.78.93v.33h-2.59v-.33c.79-.09.86-.14.86-.93v-2.42c0-.78-.08-.81-.73-.92v-.31a6.82 6.82 0 0 0 1.68-.48v.95l.82-.56a1.85 1.85 0 0 1 1-.36c1 0 1.56.71 1.56 1.87v2.28c0 .82.07.85.77.93v.33zm7.67-1.08a2.83 2.83 0 0 1-2.05 1.23 2.42 2.42 0 0 1-2.42-2.52 2.85 2.85 0 0 1 1.21-2.35 3.22 3.22 0 0 1 1.83-.69 1.73 1.73 0 0 1 1.11.33.36.36 0 0 1 .19.34.6.6 0 0 1-.43.54c-.06 0-.11 0-.23-.12a1.8 1.8 0 0 0-1.21-.5c-.79 0-1.49.67-1.49 1.92a2 2 0 0 0 1.83 2.22 1.91 1.91 0 0 0 1.46-.66zm.65 1.08v-.33c.76-.08.84-.14.84-1v-2.47c0-.74 0-.79-.75-.91v-.29a7.68 7.68 0 0 0 1.7-.43v4.15c0 .81.09.87.86 1v.33zm1.25-6.61a.65.65 0 0 1-.63-.63.64.64 0 0 1 .64-.66.63.63 0 0 1 .62.66.64.64 0 0 1-.63.63zm10.62 6.34a13.41 13.41 0 0 0-1.84.42v-.93a2.94 2.94 0 0 1-1.83.93c-.8 0-1.5-.5-1.5-1.8v-2.33c0-.65-.1-.72-.4-.78l-.33-.06v-.31c.51 0 1.31-.15 1.71-.22v3.39c0 1 .55 1.35 1.09 1.35a1.85 1.85 0 0 0 1.29-.58v-2.79c0-.65-.14-.73-.55-.79l-.38-.05v-.31a16.89 16.89 0 0 0 1.88-.22v4c0 .6.1.68.55.71h.34zm4.04.27v-.33c.7-.08.77-.16.77-1v-2c0-.84-.3-1.41-1.09-1.41a2.08 2.08 0 0 0-1.33.63v2.8c0 .83.07.85.78.93v.33h-2.59v-.33c.79-.09.86-.14.86-.93v-2.42c0-.78-.08-.81-.73-.92v-.31a6.82 6.82 0 0 0 1.68-.48v.95l.82-.56a1.85 1.85 0 0 1 1-.36c1 0 1.56.71 1.56 1.87v2.28c0 .82.07.85.77.93v.33zm5.47-.01a1.24 1.24 0 0 1-.52.16c-.77 0-1.18-.47-1.18-1.43v-3.49h-.82l-.05-.14.32-.35h.55v-1c.23-.24.58-.55.81-.79h.18v1.78h1.37a.37.37 0 0 1-.07.49h-1.3v3.07c0 1 .39 1.15.7 1.15a1.77 1.77 0 0 0 .73-.19l.11.31zm-157.45 14.14a13.09 13.09 0 0 0-1.84.42v-.93a3 3 0 0 1-1.83.93c-.81 0-1.5-.5-1.5-1.8v-2.33c0-.65-.1-.72-.4-.78l-.34-.06v-.31a13.63 13.63 0 0 0 1.72-.22v3.39c0 1.05.56 1.35 1.09 1.35a1.91 1.91 0 0 0 1.3-.57v-2.8c0-.65-.14-.73-.55-.79l-.39-.05v-.31a17.47 17.47 0 0 0 1.89-.22v4c0 .6.09.69.55.71h.34zm2.95.26a1.24 1.24 0 0 1-.52.16c-.76 0-1.17-.47-1.17-1.43v-3.49h-.83v-.14l.33-.35h.55v-1c.23-.24.57-.55.8-.79h.18v1.78h1.36a.37.37 0 0 1-.07.49h-1.29v3.07c0 1 .38 1.15.69 1.15a1.77 1.77 0 0 0 .73-.19l.11.31z" class="b1921560-a8f9-4f47-aff1-745c8a8f011f" transform="translate(0 -.84)"/><path d="M173.94 342.83v-.35l.77-.07c.53-.05.59-.15.59-.75V339c0-.62-.06-.69-.51-.74l-.72-.05v-.32a10.33 10.33 0 0 0 2.19-.5v4.28c0 .6.06.7.65.75l.73.07v.35zm5.23 1.57a4.41 4.41 0 0 0 3.47-2.88l-.46.21a2.42 2.42 0 0 1-1 .25 2.15 2.15 0 0 1-2-2.19 2.38 2.38 0 0 1 2.34-2.41c1.61 0 2.33 1.41 2.33 2.8a4.64 4.64 0 0 1-3.14 4.31 10 10 0 0 1-1.48.3zm2.17-6.59c-.63 0-1.13.68-1.13 1.6a1.69 1.69 0 0 0 1.65 1.91 1.82 1.82 0 0 0 .85-.21 4.33 4.33 0 0 0 .08-.88c0-.8-.23-2.42-1.45-2.42zm8.38-1.89a4.52 4.52 0 0 0-3.4 2.85l.7-.28a2.64 2.64 0 0 1 .79-.22 2 2 0 0 1 2 2.16 2.46 2.46 0 0 1-2.41 2.57c-1.21 0-2.36-1-2.36-2.85a4.71 4.71 0 0 1 3.09-4.18 7 7 0 0 1 1.5-.41zm-2.54 3a2 2 0 0 0-1 .26 2.9 2.9 0 0 0-.09.85c0 1.56.66 2.47 1.5 2.47.59 0 1.19-.42 1.19-1.56.05-.87-.29-1.94-1.6-1.94zm8.51 2.34l-.37 1.57H191v-.27c1.05-.79 2.78-2 2.78-3.27a1 1 0 0 0-1.09-1.14 1.84 1.84 0 0 0-1.33.9l-.29-.25.58-.78a1.73 1.73 0 0 1 1.43-.64 1.65 1.65 0 0 1 1.74 1.69 2.22 2.22 0 0 1-.84 1.6c-.37.36-.9.78-1.57 1.35h1.91c.54 0 .61-.13 1-.83z" class="ba14d489-6f2b-41c7-b864-9efa7619d1bf" transform="translate(0 -.84)"/><path d="M205.24 342.53a12.26 12.26 0 0 0-1.86.45v-.78l-.74.43a2.27 2.27 0 0 1-.95.35 2.5 2.5 0 0 1-2.23-2.64 3 3 0 0 1 3.11-2.92 2.38 2.38 0 0 1 .81.14v-1.77c0-.77-.08-.79-.93-.86v-.31a13.29 13.29 0 0 0 1.88-.41v7.23c0 .62.09.71.53.73h.38zm-1.86-4a1.49 1.49 0 0 0-1.26-.61c-.57 0-1.59.38-1.59 2.11 0 1.45.9 2.22 1.67 2.23a2.08 2.08 0 0 0 1.18-.43zm5.12-1.11a2.58 2.58 0 0 1 2.61 2.69 2.69 2.69 0 0 1-2.61 2.89 2.64 2.64 0 0 1-2.67-2.68 2.76 2.76 0 0 1 2.67-2.9zm-.15.41c-.73 0-1.39.71-1.39 2.1s.67 2.63 1.66 2.63c.74 0 1.36-.54 1.36-2.19.02-1.37-.57-2.54-1.63-2.54zm3.44 5v-.33c.76-.08.86-.14.86-.93v-5.74c0-.73-.06-.81-.83-.9v-.31a8.73 8.73 0 0 0 1.78-.41v7.36c0 .79.07.85.85.93v.33zm5.97-5.41a2.58 2.58 0 0 1 2.61 2.69 2.69 2.69 0 0 1-2.61 2.87 2.63 2.63 0 0 1-2.66-2.68 2.75 2.75 0 0 1 2.66-2.88zm-.14.41c-.74 0-1.39.71-1.39 2.1s.67 2.63 1.65 2.63c.74 0 1.37-.54 1.37-2.19 0-1.37-.58-2.54-1.63-2.54zm6.3 5h-2.76v-.33c.75-.08.82-.14.82-.91v-2.5c0-.79 0-.83-.74-.91v-.3a6.8 6.8 0 0 0 1.69-.49v1.32c.42-.63.93-1.29 1.53-1.29a.62.62 0 0 1 .69.58.81.81 0 0 1-.41.66.24.24 0 0 1-.31 0 .72.72 0 0 0-.54-.3c-.25 0-.69.37-1 1v2.25c0 .79.06.85 1 .93zm6-1.02a2.75 2.75 0 0 1-2 1.17 2.4 2.4 0 0 1-2.35-2.58 3.09 3.09 0 0 1 .78-2.1 2.47 2.47 0 0 1 1.79-.88 1.88 1.88 0 0 1 1.84 1.86c0 .24 0 .35-.24.4s-1.78.15-3.21.2c0 1.61.95 2.27 1.8 2.27a2.05 2.05 0 0 0 1.39-.61zm-2.07-3.93c-.55 0-1.09.52-1.26 1.49h2c.22 0 .29-.06.29-.24a1.11 1.11 0 0 0-1.03-1.25zm12.23 4.95v-.33c.71-.08.79-.12.79-1v-2c0-.85-.29-1.39-1-1.39a2.18 2.18 0 0 0-1.33.63v2.84c0 .75.11.81.77.89v.33h-2.57v-.33c.75-.08.86-.12.86-.91v-2.07c0-.88-.28-1.38-1-1.38a2.3 2.3 0 0 0-1.32.63v2.82c0 .79.08.83.77.91v.33h-2.58v-.33c.79-.08.86-.12.86-.91v-2.46c0-.76 0-.81-.72-.93v-.3a6.63 6.63 0 0 0 1.67-.48v1a8.15 8.15 0 0 1 .89-.63 1.63 1.63 0 0 1 .94-.31 1.4 1.4 0 0 1 1.31 1c.34-.27.65-.47 1-.68a1.88 1.88 0 0 1 .95-.31c.93 0 1.51.68 1.51 1.85v2.32c0 .8.07.83.75.91v.33zm7.07.17a.91.91 0 0 1-.57-.23 1.22 1.22 0 0 1-.28-.54 3.85 3.85 0 0 1-1.44.77 1.47 1.47 0 0 1-1.47-1.48 1.23 1.23 0 0 1 1-1.2 9 9 0 0 0 1.89-.78v-.24c0-.85-.43-1.34-1.05-1.34a.69.69 0 0 0-.57.28 2.61 2.61 0 0 0-.32.77.33.33 0 0 1-.35.28.58.58 0 0 1-.53-.53c0-.17.16-.31.4-.48a5.16 5.16 0 0 1 1.73-.84 1.6 1.6 0 0 1 1 .33 1.66 1.66 0 0 1 .61 1.39v2.31c0 .56.21.72.42.72a1 1 0 0 0 .44-.13l.12.34zm-.88-3c-.26.13-.84.39-1.11.51-.46.2-.74.43-.74.87a.87.87 0 0 0 .87.92 1.59 1.59 0 0 0 1-.43zm3.99 1.08a.89.89 0 0 0-.4.6c0 .22.2.46.74.46h1.35c.77 0 1.75.26 1.75 1.44s-1.48 2.43-3.07 2.43c-1.36 0-2.09-.8-2.11-1.5a.93.93 0 0 1 .3-.69 11.59 11.59 0 0 1 1-.86 1.6 1.6 0 0 1-.9-.65 1 1 0 0 1-.14-.51 2.61 2.61 0 0 0 1.1-.83zm.57.12a1.86 1.86 0 0 1-2-1.81 2.07 2.07 0 0 1 2.16-2 2.46 2.46 0 0 1 1.15.3 8.45 8.45 0 0 0 1.61-.18l.07.11a1.47 1.47 0 0 1-.44.63c-.18 0-.58-.05-.74-.06a1.88 1.88 0 0 1 .34 1.09 1.94 1.94 0 0 1-2.15 1.92zm.28 1.78a1.53 1.53 0 0 0-1.07.25 1.35 1.35 0 0 0-.58 1c0 .66.69 1.15 1.61 1.15 1.14 0 1.79-.58 1.79-1.35a.91.91 0 0 0-.53-.88 3.27 3.27 0 0 0-1.22-.15zm-.28-5.21c-.54 0-1 .49-1 1.44s.48 1.61 1.14 1.61 1-.47 1-1.44-.47-1.61-1.14-1.61zm6.81 5.06v-.33c.69-.08.76-.16.76-1v-2c0-.84-.3-1.41-1.09-1.41a2.08 2.08 0 0 0-1.33.63v2.8c0 .83.07.85.78.93v.33h-2.59v-.33c.79-.09.86-.14.86-.93v-2.42c0-.78-.08-.81-.73-.92v-.31a6.82 6.82 0 0 0 1.68-.48v.95l.82-.56a1.85 1.85 0 0 1 1-.36c1 0 1.56.71 1.56 1.87v2.28c0 .82.07.85.77.93v.33zm7.04.17a.86.86 0 0 1-.56-.23 1.14 1.14 0 0 1-.29-.54 3.85 3.85 0 0 1-1.44.77 1.47 1.47 0 0 1-1.46-1.48 1.22 1.22 0 0 1 1-1.2 9 9 0 0 0 1.89-.78v-.24c0-.85-.43-1.34-1.05-1.34a.69.69 0 0 0-.57.28 2.61 2.61 0 0 0-.32.77.33.33 0 0 1-.35.28.58.58 0 0 1-.53-.53c0-.17.16-.31.4-.48a5.16 5.16 0 0 1 1.73-.84 1.65 1.65 0 0 1 1 .33 1.69 1.69 0 0 1 .61 1.39v2.31c0 .56.2.72.42.72a1 1 0 0 0 .43-.13l.12.34zm-.88-3c-.26.13-.84.39-1.11.51-.46.2-.73.43-.73.87a.87.87 0 0 0 .86.92 1.59 1.59 0 0 0 1-.43zm9.05 3a.88.88 0 0 1-.56-.23 1.14 1.14 0 0 1-.29-.54 3.85 3.85 0 0 1-1.44.77 1.47 1.47 0 0 1-1.46-1.48 1.22 1.22 0 0 1 1-1.2 9.35 9.35 0 0 0 1.9-.78v-.24c0-.85-.44-1.34-1.06-1.34a.67.67 0 0 0-.56.28 2.35 2.35 0 0 0-.33.77.33.33 0 0 1-.34.28.58.58 0 0 1-.53-.53c0-.17.15-.31.39-.48a5.26 5.26 0 0 1 1.73-.84 1.58 1.58 0 0 1 1.62 1.72v2.31c0 .56.2.72.42.72a1 1 0 0 0 .43-.13l.12.34zm-.87-3l-1.12.51c-.46.2-.73.43-.73.87a.87.87 0 0 0 .86.92 1.61 1.61 0 0 0 1-.43zm2.22 2.83v-.33c.76-.08.86-.14.86-.93v-5.74c0-.73-.06-.81-.83-.9v-.31a8.73 8.73 0 0 0 1.78-.41v7.36c0 .79.07.85.85.93v.33zm3.28 0v-.33c.76-.08.84-.14.84-.95v-2.47c0-.74 0-.79-.75-.91v-.29a7.68 7.68 0 0 0 1.7-.48v4.15c0 .81.09.87.87.95v.33zm1.25-6.61a.65.65 0 0 1-.63-.63.64.64 0 0 1 .64-.66.63.63 0 0 1 .62.66.64.64 0 0 1-.63.63zm4.91 9.54v-.34c.95-.08 1-.14 1-1v-2l-1.29.51a2.54 2.54 0 0 1-2.6-2.58 3.11 3.11 0 0 1 3.23-3 3.75 3.75 0 0 1 .86.16.91.91 0 0 0 .32.06 1.63 1.63 0 0 0 .41-.13h.05v6.91c0 .83.09.88.93 1v.34zm1-7.34a1.69 1.69 0 0 0-1.19-.5c-.83 0-1.66.69-1.66 2.11a2 2 0 0 0 2.85 2.07zm8.08 4.14a13.28 13.28 0 0 0-1.83.42v-.93a3 3 0 0 1-1.84.93c-.8 0-1.5-.5-1.5-1.8v-2.33c0-.65-.09-.72-.39-.78l-.34-.06v-.31a13.63 13.63 0 0 0 1.72-.22v3.39c0 1.05.55 1.35 1.09 1.35a1.91 1.91 0 0 0 1.3-.57v-2.8c0-.65-.15-.73-.55-.79L290 338v-.31a16.89 16.89 0 0 0 1.88-.22v4c0 .6.1.69.56.71h.33zm4.46.44a.91.91 0 0 1-.57-.23 1.24 1.24 0 0 1-.29-.54 3.78 3.78 0 0 1-1.44.77 1.47 1.47 0 0 1-1.46-1.48 1.22 1.22 0 0 1 1-1.2 8.88 8.88 0 0 0 1.9-.78v-.24c0-.85-.43-1.34-1.06-1.34a.68.68 0 0 0-.56.28 2.37 2.37 0 0 0-.32.77.33.33 0 0 1-.35.28.58.58 0 0 1-.53-.53c0-.17.16-.31.4-.48a5.2 5.2 0 0 1 1.72-.84 1.63 1.63 0 0 1 1 .33 1.66 1.66 0 0 1 .61 1.39v2.31c0 .56.21.72.42.72a.94.94 0 0 0 .43-.13l.12.34zm-.88-3c-.26.13-.84.39-1.12.51-.45.2-.73.43-.73.87a.87.87 0 0 0 .87.92 1.59 1.59 0 0 0 1-.43zm8.99 2.83v-.33c.7-.08.79-.12.79-1v-2c0-.85-.29-1.39-1-1.39a2.23 2.23 0 0 0-1.34.63 3.18 3.18 0 0 1 0 .51v2.33c0 .75.11.81.77.89v.33H302v-.33c.74-.08.85-.12.85-.91v-2.07c0-.88-.27-1.38-1-1.38a2.3 2.3 0 0 0-1.32.63v2.82c0 .79.08.83.76.91v.33h-2.57v-.33c.79-.08.86-.12.86-.91v-2.46c0-.76 0-.81-.72-.93v-.3a6.75 6.75 0 0 0 1.67-.48v1a9 9 0 0 1 .88-.63 1.66 1.66 0 0 1 .95-.31 1.4 1.4 0 0 1 1.31 1c.33-.27.65-.47.95-.68a1.88 1.88 0 0 1 .94-.31c.94 0 1.51.68 1.51 1.85v2.32c0 .8.08.83.76.91v.33zm7.06.17a.9.9 0 0 1-.56-.23 1.24 1.24 0 0 1-.29-.54 3.78 3.78 0 0 1-1.44.77 1.47 1.47 0 0 1-1.46-1.48 1.22 1.22 0 0 1 1-1.2 8.88 8.88 0 0 0 1.9-.78v-.24c0-.85-.43-1.34-1.06-1.34a.68.68 0 0 0-.56.28 2.37 2.37 0 0 0-.32.77.33.33 0 0 1-.35.28.58.58 0 0 1-.53-.53c0-.17.16-.31.4-.48a5.1 5.1 0 0 1 1.72-.84 1.63 1.63 0 0 1 1 .33 1.66 1.66 0 0 1 .61 1.39v2.31c0 .56.21.72.42.72a.94.94 0 0 0 .43-.13l.12.34zm-.87-3c-.26.13-.84.39-1.12.51-.45.2-.73.43-.73.87a.87.87 0 0 0 .87.92 1.59 1.59 0 0 0 1-.43zm-146.75 16.21a2.75 2.75 0 0 1-2 1.17 2.4 2.4 0 0 1-2.35-2.58 3.09 3.09 0 0 1 .78-2.1 2.43 2.43 0 0 1 1.79-.88 1.87 1.87 0 0 1 1.83 1.86c0 .24 0 .35-.24.4s-1.77.15-3.2.2c0 1.61 1 2.27 1.8 2.27a2.05 2.05 0 0 0 1.39-.61zm-2.06-3.93c-.55 0-1.09.51-1.26 1.49h2.05c.22 0 .29-.06.29-.24a1.11 1.11 0 0 0-1.08-1.25zm5.6 4.95h-2.76v-.33c.76-.08.83-.14.83-.92v-2.49c0-.79-.05-.83-.74-.91v-.3a6.8 6.8 0 0 0 1.69-.49v1.32c.42-.63.92-1.29 1.52-1.29a.62.62 0 0 1 .7.58.81.81 0 0 1-.41.66.23.23 0 0 1-.31 0 .77.77 0 0 0-.54-.3c-.25 0-.7.38-1 1V356c0 .79.06.85 1 .93zm5.56.15a.91.91 0 0 1-.57-.23 1.22 1.22 0 0 1-.28-.54 3.85 3.85 0 0 1-1.44.77 1.48 1.48 0 0 1-1.47-1.48 1.23 1.23 0 0 1 1-1.2 9 9 0 0 0 1.89-.78v-.24c0-.85-.43-1.34-1-1.34a.71.71 0 0 0-.57.27 2.82 2.82 0 0 0-.32.78.33.33 0 0 1-.35.28.58.58 0 0 1-.53-.53c0-.17.16-.31.4-.48a5.16 5.16 0 0 1 1.73-.84 1.6 1.6 0 0 1 1 .33 1.66 1.66 0 0 1 .62 1.39v2.31c0 .55.2.72.42.72a1 1 0 0 0 .43-.13l.12.34zm-.88-3c-.26.13-.84.39-1.11.51-.46.2-.73.43-.73.87a.87.87 0 0 0 .86.92 1.59 1.59 0 0 0 1-.43zm4.63 2.84a1.16 1.16 0 0 1-.51.16c-.77 0-1.18-.47-1.18-1.43v-3.49h-.82v-.15l.32-.34h.55v-1c.23-.24.58-.55.81-.79h.18v1.78h1.37a.37.37 0 0 1-.07.49h-1.3v3.07c0 1 .39 1.15.7 1.15a1.81 1.81 0 0 0 .73-.19l.11.31zm9.36-4.93c-.64.08-.73.18-1 .9-.4 1-1.08 2.55-1.7 4.17h-.35c-.5-1.38-1.09-2.8-1.66-4.21-.27-.69-.37-.76-1-.86V352h2.45v.32c-.66.08-.69.17-.5.68.3.83.81 2.1 1.14 2.94.43-1.06.83-2.05 1.09-2.82.21-.58.17-.72-.62-.8V352h2.18zm2.93-.47a2.58 2.58 0 0 1 2.62 2.69 2.69 2.69 0 0 1-2.62 2.87 2.64 2.64 0 0 1-2.66-2.68 2.75 2.75 0 0 1 2.66-2.88zm-.14.41c-.73 0-1.39.71-1.39 2.1S189 357 190 357c.75 0 1.37-.54 1.37-2.19-.01-1.44-.59-2.58-1.64-2.58zm3.43 5v-.33c.77-.08.87-.14.87-.93v-5.74c0-.73-.06-.81-.83-.9V349a9.14 9.14 0 0 0 1.77-.41V356c0 .79.07.85.85.93v.33zm9.06-.23a13.41 13.41 0 0 0-1.84.42v-.93a2.94 2.94 0 0 1-1.83.93c-.8 0-1.5-.5-1.5-1.8v-2.33c0-.65-.1-.72-.4-.78l-.33-.06v-.31c.51 0 1.3-.15 1.71-.22v3.39c0 1.05.55 1.35 1.09 1.35a1.85 1.85 0 0 0 1.29-.58v-2.79c0-.65-.14-.73-.55-.79h-.38v-.31a16.89 16.89 0 0 0 1.88-.22v4c0 .6.1.68.55.71h.34zm2.95.22a1.16 1.16 0 0 1-.51.16c-.77 0-1.18-.47-1.18-1.43v-3.49h-.83v-.15l.32-.34h.55v-1c.23-.24.58-.55.81-.79h.18v1.78h1.37a.38.38 0 0 1-.08.49h-1.29v3.07c0 1 .38 1.15.69 1.15a1.82 1.82 0 0 0 .74-.19l.1.31zm1.1-5a8.22 8.22 0 0 0 1.74-.52v1l1-.6a1.81 1.81 0 0 1 .69-.24 2.17 2.17 0 0 1 2.13 2.29 3.41 3.41 0 0 1-3 3.27 2 2 0 0 1-.85-.22v1.62c0 .89.09 1 1 1v.34h-2.84v-.34c.78-.08.88-.14.88-.94v-5.46c0-.72 0-.77-.79-.88zm1.74 4.1a1.7 1.7 0 0 0 1.14.47c1 0 1.71-.88 1.71-2.22s-.76-2-1.61-2a2.37 2.37 0 0 0-1.24.52zm8.54 1.06a.91.91 0 0 1-.57-.23 1.22 1.22 0 0 1-.28-.54 3.85 3.85 0 0 1-1.44.77 1.48 1.48 0 0 1-1.47-1.48 1.23 1.23 0 0 1 1-1.2 9 9 0 0 0 1.89-.78v-.24c0-.85-.43-1.34-1-1.34a.71.71 0 0 0-.57.27 2.82 2.82 0 0 0-.32.78.33.33 0 0 1-.35.28.58.58 0 0 1-.53-.53c0-.17.16-.31.4-.48a5.16 5.16 0 0 1 1.73-.84 1.6 1.6 0 0 1 1 .33 1.66 1.66 0 0 1 .62 1.39v2.31c0 .55.2.72.42.72a1 1 0 0 0 .43-.13l.12.34zm-.88-3c-.26.13-.84.39-1.11.51-.46.2-.73.43-.73.87a.87.87 0 0 0 .86.92 1.59 1.59 0 0 0 1-.43zm4.64 2.84a1.24 1.24 0 0 1-.52.16c-.77 0-1.18-.47-1.18-1.43v-3.49h-.82v-.15l.32-.34h.55v-1c.23-.24.58-.55.81-.79h.18v1.78h1.37a.37.37 0 0 1-.07.49h-1.3v3.07c0 1 .39 1.15.7 1.15a1.81 1.81 0 0 0 .73-.19l.11.31zm2.46.18a.72.72 0 0 1-.74-.77.73.73 0 0 1 .74-.77.75.75 0 0 1 .75.77.73.73 0 0 1-.75.77zm12.82-7.63c-.76.05-1 .24-1.06.79v3.18a3.9 3.9 0 0 1-.84 2.89 3 3 0 0 1-2.21.77 3.27 3.27 0 0 1-2-.55 3.16 3.16 0 0 1-1.06-2.78V351c0-1.08-.1-1.15-1.06-1.24v-.33h3.16v.33c-1 .06-1.06.16-1.06 1.24v3c0 1.75.83 2.71 2.27 2.71 1.7 0 2.24-1.06 2.24-3.05v-1.22c0-1.11 0-1.56-.06-1.89 0-.54-.31-.74-1.2-.79v-.33h2.88zm2.5 7.45a1.24 1.24 0 0 1-.52.16c-.76 0-1.17-.47-1.17-1.43v-3.49h-.83v-.15l.33-.34h.55v-1c.23-.24.57-.55.8-.79h.18v1.78h1.36a.37.37 0 0 1-.07.49h-1.29v3.07c0 1 .38 1.15.69 1.15a1.77 1.77 0 0 0 .73-.19l.11.31zm12.07-4.93c-.61.1-.72.23-1 .9-.35.92-.93 2.59-1.44 4.17h-.38c-.47-1.28-1-2.53-1.43-3.76-.45 1.1-1 2.43-1.47 3.76h-.36c-.43-1.42-.88-2.84-1.38-4.28-.21-.65-.32-.72-.91-.79V352h2.5v.32c-.72.12-.77.18-.6.73.27.93.6 1.91.88 2.81.48-1.23 1-2.47 1.43-3.8h.33c.44 1.24.93 2.54 1.43 3.83.27-.73.65-1.9.88-2.78.16-.62.06-.68-.76-.79V352h2.25zm.43 4.94v-.33c.76-.08.84-.14.84-.95v-2.47c0-.75 0-.79-.75-.91v-.29a7.68 7.68 0 0 0 1.7-.48v4.2c0 .81.09.87.86.95v.33zm1.25-6.61a.65.65 0 0 1-.63-.63.64.64 0 0 1 .64-.66.63.63 0 0 1 .62.66.64.64 0 0 1-.63.63zm5.08 2.77c-.22-.69-.53-1.17-1.26-1.17a.73.73 0 0 0-.75.78c0 .51.35.75 1 1.07 1 .49 1.55.85 1.55 1.64a1.79 1.79 0 0 1-2 1.67 3.15 3.15 0 0 1-1.42-.34c-.06-.35-.17-1-.22-1.4l.35-.06c.21.76.63 1.39 1.47 1.39a.8.8 0 0 0 .84-.82c0-.54-.32-.81-1-1.13-.83-.4-1.52-.79-1.52-1.65a1.67 1.67 0 0 1 1.87-1.55 5.7 5.7 0 0 1 1.15.16c0 .29.12 1 .18 1.33zm1.33 3.84v-.33c.75-.08.84-.14.84-.95v-2.47c0-.75 0-.79-.76-.91v-.29a7.77 7.77 0 0 0 1.71-.48v4.2c0 .81.08.87.86.95v.33zm1.25-6.61a.66.66 0 0 1-.64-.63.64.64 0 0 1 .65-.66.63.63 0 0 1 .61.66.64.64 0 0 1-.62.63zm9.21 5.59a2.75 2.75 0 0 1-2 1.17 2.4 2.4 0 0 1-2.35-2.58 3.09 3.09 0 0 1 .78-2.1 2.43 2.43 0 0 1 1.79-.88 1.87 1.87 0 0 1 1.83 1.86c0 .24 0 .35-.24.4s-1.77.15-3.2.2c0 1.61.95 2.27 1.8 2.27a2.07 2.07 0 0 0 1.39-.61zm-2.06-3.93c-.55 0-1.09.51-1.26 1.49h2.05c.21 0 .29-.06.29-.24a1.11 1.11 0 0 0-1.08-1.25zm6.29 4.95v-.33c.69-.08.76-.16.76-1v-2c0-.84-.3-1.41-1.09-1.41a2.08 2.08 0 0 0-1.33.63V356c0 .83.07.85.78.93v.33h-2.59v-.33c.79-.09.86-.14.86-.93v-2.5c0-.78-.08-.81-.73-.92v-.31a6.82 6.82 0 0 0 1.68-.48v.94l.82-.55a1.85 1.85 0 0 1 1-.36c1 0 1.56.71 1.56 1.87V356c0 .82.07.85.77.93v.33zm3.18 0v-.33c.75-.08.84-.14.84-.95v-2.47c0-.75 0-.79-.76-.91v-.29a7.68 7.68 0 0 0 1.7-.48v4.2c0 .81.09.87.87.95v.33zm1.24-6.61a.65.65 0 0 1-.63-.63.64.64 0 0 1 .65-.66.63.63 0 0 1 .61.66.64.64 0 0 1-.63.63zm8.64 6.61v-.33c.7-.08.79-.12.79-1v-2c0-.85-.29-1.39-1-1.39a2.18 2.18 0 0 0-1.34.63 3.18 3.18 0 0 1 0 .51V356c0 .75.11.81.77.89v.33h-2.57v-.33c.74-.08.85-.12.85-.92v-2.06c0-.89-.27-1.38-1-1.38a2.3 2.3 0 0 0-1.32.63V356c0 .8.08.84.76.92v.33h-2.57v-.33c.79-.08.86-.12.86-.92v-2.5c0-.77 0-.81-.72-.93v-.3a6.75 6.75 0 0 0 1.67-.48v1a9 9 0 0 1 .88-.63 1.66 1.66 0 0 1 .95-.31 1.4 1.4 0 0 1 1.31 1c.33-.27.65-.47.95-.68a1.88 1.88 0 0 1 .94-.31c.94 0 1.51.67 1.51 1.85V356c0 .81.08.84.76.92v.33zm9.83.15a.88.88 0 0 1-.56-.23 1.14 1.14 0 0 1-.29-.54 3.85 3.85 0 0 1-1.44.77 1.47 1.47 0 0 1-1.46-1.48 1.22 1.22 0 0 1 1-1.2 9 9 0 0 0 1.89-.78v-.24c0-.85-.43-1.34-1.05-1.34a.69.69 0 0 0-.56.27 2.52 2.52 0 0 0-.33.78.33.33 0 0 1-.35.28.58.58 0 0 1-.52-.53c0-.17.15-.31.39-.48a5.26 5.26 0 0 1 1.73-.84 1.58 1.58 0 0 1 1.62 1.72v2.31c0 .55.2.72.42.72a1 1 0 0 0 .43-.13l.12.34zm-.88-3c-.26.13-.83.39-1.11.51-.46.2-.73.43-.73.87a.87.87 0 0 0 .86.92 1.56 1.56 0 0 0 1-.43zm8.19 2.55a12.26 12.26 0 0 0-1.86.45v-.78l-.75.43a2.24 2.24 0 0 1-.94.35 2.5 2.5 0 0 1-2.23-2.64 3 3 0 0 1 3.1-2.92 2.66 2.66 0 0 1 .82.13v-1.76c0-.77-.09-.79-.94-.86V349a13.77 13.77 0 0 0 1.89-.41v7.23c0 .62.08.71.52.73h.39zm-1.86-4a1.5 1.5 0 0 0-1.26-.61c-.58 0-1.6.38-1.6 2.11 0 1.45.9 2.22 1.67 2.23a2.14 2.14 0 0 0 1.19-.43zm5.49.46c-.21-.69-.52-1.17-1.25-1.17a.73.73 0 0 0-.75.78c0 .51.35.75 1 1.07 1 .49 1.55.85 1.55 1.64a1.79 1.79 0 0 1-2 1.67A3.15 3.15 0 0 1 304 357c-.06-.35-.17-1-.22-1.4l.35-.06c.21.76.63 1.39 1.47 1.39a.8.8 0 0 0 .84-.82c0-.54-.32-.81-1-1.13-.84-.4-1.52-.79-1.52-1.65a1.66 1.66 0 0 1 1.87-1.55 5.7 5.7 0 0 1 1.15.16c0 .29.12 1 .18 1.33zm4.12-1.57a2.58 2.58 0 0 1 2.62 2.69 2.69 2.69 0 0 1-2.62 2.87 2.64 2.64 0 0 1-2.66-2.68 2.75 2.75 0 0 1 2.66-2.88zm-.14.41c-.73 0-1.39.71-1.39 2.1S310 357 311 357c.75 0 1.37-.54 1.37-2.19.01-1.44-.57-2.58-1.62-2.58z" class="b1921560-a8f9-4f47-aff1-745c8a8f011f" transform="translate(0 -.84)"/><path d="M165.27 370.06l-.37 1.57h-4.28v-.27c1-.8 2.78-2 2.78-3.27a1 1 0 0 0-1.09-1.14 1.84 1.84 0 0 0-1.33.9l-.29-.25.58-.78a1.75 1.75 0 0 1 1.44-.64 1.64 1.64 0 0 1 1.73 1.69 2.22 2.22 0 0 1-.84 1.6c-.37.36-.89.78-1.57 1.35h1.91c.54 0 .61-.13 1-.83zm5.73-5.34a4.54 4.54 0 0 0-3.4 2.85l.7-.28a2.64 2.64 0 0 1 .79-.22 2 2 0 0 1 2 2.16 2.46 2.46 0 0 1-2.45 2.55c-1.21 0-2.36-1-2.36-2.85a4.72 4.72 0 0 1 3.09-4.18 7.13 7.13 0 0 1 1.5-.41zm-2.53 3a2.07 2.07 0 0 0-1 .26 2.9 2.9 0 0 0-.09.85c0 1.56.66 2.47 1.5 2.47.59 0 1.19-.42 1.19-1.56.05-.87-.29-1.99-1.59-1.99zm8.62 3.47h-1v2.31h-.95v-2.31H172v-.43c1.17-1.54 2.38-3.12 3.56-4.57h.5v4.33h1.14zm-2-3.74c-.85 1.11-1.55 2-2.31 3.07h2.31zm5.41-3.11a1.76 1.76 0 0 1 1.86 1.75 1.32 1.32 0 0 1-.34.89 6.7 6.7 0 0 1-.88.69c.75.45 1.52 1 1.52 2a2.15 2.15 0 0 1-2.28 2.08 2 2 0 0 1-2.19-1.92 1.53 1.53 0 0 1 .52-1.13 10 10 0 0 1 1-.72 2.08 2.08 0 0 1-1.22-1.79 1.93 1.93 0 0 1 2.01-1.85zm0 7c.7 0 1.16-.48 1.16-1.38s-.76-1.32-1.61-1.79a1.92 1.92 0 0 0-.94 1.56 1.47 1.47 0 0 0 1.41 1.65zm-.15-6.63a1 1 0 0 0-1 1.15c0 .85.65 1.17 1.43 1.57a1.55 1.55 0 0 0 .67-1.35c.02-.89-.55-1.33-1.08-1.33z" class="ba14d489-6f2b-41c7-b864-9efa7619d1bf" transform="translate(0 -.84)"/><path d="M191.81 366.69c-.64.08-.73.18-1 .9-.39 1-1.08 2.56-1.7 4.17h-.35c-.5-1.37-1.09-2.8-1.65-4.21-.28-.69-.38-.76-1-.86v-.32h2.45v.32c-.66.08-.69.17-.49.68.3.83.8 2.1 1.13 2.94.44-1.06.83-2.05 1.1-2.82.2-.58.16-.72-.63-.8v-.32h2.18zm4.61 3.92a2.72 2.72 0 0 1-2 1.17 2.4 2.4 0 0 1-2.35-2.58 3.09 3.09 0 0 1 .78-2.1 2.45 2.45 0 0 1 1.79-.88 1.87 1.87 0 0 1 1.83 1.86c0 .24 0 .35-.24.4s-1.77.15-3.2.2c0 1.61 1 2.27 1.8 2.27a2.05 2.05 0 0 0 1.39-.61zm-2.06-3.93c-.55 0-1.09.51-1.26 1.49h2.05c.22 0 .29-.06.29-.24a1.11 1.11 0 0 0-1.08-1.25zm6.29 4.95v-.33c.69-.08.77-.16.77-1v-2c0-.84-.3-1.41-1.1-1.41a2.08 2.08 0 0 0-1.33.63v2.8c0 .83.07.85.78.93v.33h-2.59v-.33c.79-.09.87-.14.87-.93v-2.42c0-.78-.09-.81-.74-.92v-.31a6.82 6.82 0 0 0 1.68-.48v.95l.82-.56a1.88 1.88 0 0 1 1-.36c1 0 1.56.71 1.56 1.87v2.28c0 .82.08.85.77.93v.33zm3.18 0v-.33c.75-.08.84-.14.84-.95v-2.47c0-.74 0-.79-.76-.91v-.29a7.77 7.77 0 0 0 1.71-.48v4.15c0 .81.08.87.86.95v.33zm1.25-6.61a.66.66 0 0 1-.64-.63.64.64 0 0 1 .65-.66.63.63 0 0 1 .61.66.64.64 0 0 1-.62.61zm5.8 6.76a.88.88 0 0 1-.56-.23 1.14 1.14 0 0 1-.32-.55 3.85 3.85 0 0 1-1.44.77 1.47 1.47 0 0 1-1.46-1.48 1.22 1.22 0 0 1 1-1.2 9.11 9.11 0 0 0 1.9-.78v-.24c0-.85-.43-1.34-1.06-1.34a.68.68 0 0 0-.56.28 2.37 2.37 0 0 0-.32.77.33.33 0 0 1-.35.28.58.58 0 0 1-.53-.53c0-.17.16-.31.4-.48a5.1 5.1 0 0 1 1.72-.84 1.58 1.58 0 0 1 1.62 1.72v2.31c0 .56.21.72.42.72a.94.94 0 0 0 .43-.13l.12.34zm-.87-3l-1.12.51c-.45.2-.73.43-.73.87a.87.87 0 0 0 .86.92 1.59 1.59 0 0 0 1-.43zm8.99 2.85v-.33c.71-.08.8-.12.8-1v-2c0-.85-.29-1.39-1-1.39a2.18 2.18 0 0 0-1.33.63 3.18 3.18 0 0 1 0 .51v2.33c0 .75.11.81.77.89v.33h-2.57v-.33c.74-.08.85-.12.85-.91v-2.07c0-.88-.27-1.38-1-1.38a2.27 2.27 0 0 0-1.31.63v2.82c0 .79.08.83.76.91v.33h-2.58v-.33c.8-.08.87-.12.87-.91v-2.46c0-.76-.05-.81-.72-.93v-.3a6.75 6.75 0 0 0 1.67-.48v1a9 9 0 0 1 .88-.63 1.66 1.66 0 0 1 1-.31 1.4 1.4 0 0 1 1.31 1c.33-.27.65-.47.94-.68a1.91 1.91 0 0 1 .95-.31c.94 0 1.51.68 1.51 1.85v2.32c0 .8.08.83.76.91v.33zm3.35 1.08c.54-.25 1-.57 1-1s-.35-.54-.77-.65c-.07 0-.19-.15-.19-.37a.61.61 0 0 1 .67-.6 1.14 1.14 0 0 1 1 1.27 1.94 1.94 0 0 1-1.54 1.73zm8.65 1.85v-.34c.95-.08 1-.14 1-1v-2l-1.28.51a2.55 2.55 0 0 1-2.61-2.58 3.11 3.11 0 0 1 3.23-3 3.63 3.63 0 0 1 .86.16.92.92 0 0 0 .33.06 1.73 1.73 0 0 0 .4-.13h.05v6.91c0 .83.08.88.92 1v.34zm1-7.34a1.66 1.66 0 0 0-1.19-.5c-.83 0-1.65.69-1.65 2.11a2 2 0 0 0 1.94 2.27 2 2 0 0 0 .9-.2zm8.05 4.14a13.28 13.28 0 0 0-1.83.42v-.93a3 3 0 0 1-1.84.93c-.8 0-1.5-.5-1.5-1.8v-2.33c0-.65-.09-.72-.39-.78l-.34-.06v-.31a15.75 15.75 0 0 0 1.72-.22v3.39c0 1.05.55 1.35 1.09 1.35a1.88 1.88 0 0 0 1.3-.58v-2.79c0-.65-.15-.73-.55-.79l-.39-.05v-.31a17.47 17.47 0 0 0 1.89-.22v4c0 .6.09.68.55.71h.33zm.6.27v-.33c.75-.08.83-.14.83-.95v-2.47c0-.74 0-.79-.75-.91v-.29a7.68 7.68 0 0 0 1.7-.48v4.15c0 .81.09.87.87.95v.33zm1.24-6.61a.65.65 0 0 1-.63-.63.64.64 0 0 1 .64-.66.63.63 0 0 1 .62.66.64.64 0 0 1-.63.61zm5.11 2.77c-.22-.69-.53-1.17-1.26-1.17a.73.73 0 0 0-.75.78c0 .51.35.75 1 1.07 1 .49 1.55.85 1.55 1.64a1.79 1.79 0 0 1-1.95 1.67 3.16 3.16 0 0 1-1.43-.34c-.06-.35-.17-1-.22-1.4l.35-.06c.22.76.64 1.39 1.48 1.39a.8.8 0 0 0 .84-.82c0-.54-.33-.81-1-1.12-.84-.41-1.53-.8-1.53-1.66a1.67 1.67 0 0 1 1.87-1.55 5.82 5.82 0 0 1 1.16.16c0 .29.12 1 .18 1.33z" class="b1921560-a8f9-4f47-aff1-745c8a8f011f" transform="translate(0 -.84)"/><path d="M252.55 368.56c1.3.07 2.92.61 2.92 2.18a2.39 2.39 0 0 1-1.09 2 4.81 4.81 0 0 1-2.62.87l-.06-.39c.69-.1 2.77-.52 2.77-2.22 0-1.27-1.37-1.55-2.55-1.58l.53-3 3-.25-.18.87-2.5.22zm9.24-3.84a4.54 4.54 0 0 0-3.4 2.85l.7-.28a2.64 2.64 0 0 1 .79-.22 2 2 0 0 1 2 2.16 2.46 2.46 0 0 1-2.45 2.55c-1.21 0-2.36-1-2.36-2.85a4.72 4.72 0 0 1 3.09-4.18 7 7 0 0 1 1.5-.41zm-2.53 3a2.07 2.07 0 0 0-1 .26 2.9 2.9 0 0 0-.09.85c0 1.56.66 2.47 1.5 2.47.59 0 1.19-.42 1.19-1.56.04-.87-.3-1.99-1.6-1.99zm8.53-1.21c-.56 1-2.09 3.91-3.65 6.9l-.92.18-.09-.16a68.09 68.09 0 0 0 3.72-6.19h-3.7v-.87h4.55zm3.49-2.17a1.76 1.76 0 0 1 1.86 1.75 1.32 1.32 0 0 1-.34.89 6.32 6.32 0 0 1-.89.69c.76.45 1.53 1 1.53 2a2.15 2.15 0 0 1-2.28 2.08 2 2 0 0 1-2.2-1.92 1.54 1.54 0 0 1 .53-1.13 9 9 0 0 1 1-.72 2.09 2.09 0 0 1-1.23-1.79 1.94 1.94 0 0 1 2.02-1.85zm0 7c.7 0 1.15-.48 1.15-1.38s-.75-1.32-1.6-1.79a1.92 1.92 0 0 0-.94 1.56 1.47 1.47 0 0 0 1.41 1.65zm-.15-6.63a1 1 0 0 0-1 1.15c0 .85.65 1.17 1.43 1.57a1.55 1.55 0 0 0 .67-1.35c.02-.89-.55-1.33-1.08-1.33zm8.34 5.35l-.37 1.57h-4.28v-.27c1.06-.8 2.78-2 2.78-3.27a1 1 0 0 0-1.09-1.14 1.86 1.86 0 0 0-1.33.9l-.29-.25.58-.78a1.75 1.75 0 0 1 1.44-.64 1.65 1.65 0 0 1 1.74 1.69 2.22 2.22 0 0 1-.84 1.6c-.37.36-.9.78-1.57 1.35h1.9c.54 0 .61-.13 1-.83z" class="ba14d489-6f2b-41c7-b864-9efa7619d1bf" transform="translate(0 -.84)"/><path d="M287.59 370.61a2.75 2.75 0 0 1-2 1.17 2.4 2.4 0 0 1-2.36-2.58 3.09 3.09 0 0 1 .78-2.1 2.47 2.47 0 0 1 1.79-.88 1.88 1.88 0 0 1 1.84 1.86c0 .24 0 .35-.24.4s-1.78.15-3.21.2c0 1.61.95 2.27 1.8 2.27a2.05 2.05 0 0 0 1.39-.61zm-2.07-3.93c-.55 0-1.09.51-1.26 1.49h2.05c.22 0 .29-.06.29-.24a1.11 1.11 0 0 0-1.08-1.25zm5.63 4.95v-.33c.52-.06.62-.15.42-.47l-.9-1.4c-.26.43-.53.85-.77 1.27s-.2.51.42.6v.33h-2.26v-.33a1.5 1.5 0 0 0 1.35-.77c.34-.47.65-.94 1-1.48l-1-1.61a1.22 1.22 0 0 0-1.18-.75v-.32h2.41v.32c-.5.07-.55.17-.33.52l.72 1.09c.22-.35.47-.76.68-1.12s.13-.43-.38-.49v-.32h2.18v.32a1.54 1.54 0 0 0-1.38.75c-.17.22-.46.62-.85 1.22l1.15 1.77c.46.66.59.77 1.32.87v.33zm7.12-1.02a2.75 2.75 0 0 1-2 1.17 2.4 2.4 0 0 1-2.36-2.58 3.09 3.09 0 0 1 .78-2.1 2.47 2.47 0 0 1 1.79-.88 1.88 1.88 0 0 1 1.84 1.86c0 .24-.05.35-.24.4s-1.78.15-3.21.2c0 1.61.95 2.27 1.8 2.27a2 2 0 0 0 1.39-.61zm-2.07-3.93c-.55 0-1.09.51-1.26 1.49h2.05c.22 0 .29-.06.29-.24a1.11 1.11 0 0 0-1.08-1.25zm5.61 4.95h-2.76v-.33c.75-.08.83-.14.83-.91v-2.5c0-.79-.05-.83-.75-.91v-.3a6.8 6.8 0 0 0 1.69-.49v1.32c.42-.63.93-1.29 1.53-1.29a.62.62 0 0 1 .69.58.82.82 0 0 1-.4.66.26.26 0 0 1-.32 0 .72.72 0 0 0-.54-.3c-.25 0-.69.37-1 1v2.25c0 .79.06.85 1 .93zm6.13-1.08a2.85 2.85 0 0 1-2.05 1.23 2.42 2.42 0 0 1-2.43-2.52 2.83 2.83 0 0 1 1.22-2.35 3.17 3.17 0 0 1 1.82-.69 1.71 1.71 0 0 1 1.11.33c.17.13.2.21.2.35a.61.61 0 0 1-.44.54c-.06 0-.1 0-.22-.13a1.82 1.82 0 0 0-1.21-.5c-.8 0-1.49.67-1.49 1.92a2 2 0 0 0 1.82 2.22 1.91 1.91 0 0 0 1.46-.66zm.65 1.08v-.33c.75-.08.84-.14.84-.95v-2.47c0-.74 0-.79-.76-.91v-.29a7.77 7.77 0 0 0 1.71-.48v4.15c0 .81.08.87.86.95v.33zm1.25-6.61a.66.66 0 0 1-.64-.63.64.64 0 0 1 .65-.66.63.63 0 0 1 .61.66.64.64 0 0 1-.62.61zM162.68 386a1.16 1.16 0 0 1-.51.16c-.77 0-1.18-.47-1.18-1.43v-3.49h-.83v-.14l.33-.35h.51v-1c.23-.24.58-.55.8-.79h.18v1.78h1.36a.36.36 0 0 1-.07.49h-1.29v3.07c0 1 .38 1.15.69 1.15a1.72 1.72 0 0 0 .73-.19l.11.31zm5.15.18a.91.91 0 0 1-.57-.23 1.22 1.22 0 0 1-.28-.54 3.85 3.85 0 0 1-1.44.77 1.48 1.48 0 0 1-1.47-1.48 1.23 1.23 0 0 1 1-1.2 9 9 0 0 0 1.89-.78v-.24c0-.85-.43-1.34-1-1.34a.69.69 0 0 0-.57.28 2.61 2.61 0 0 0-.32.77.33.33 0 0 1-.35.28.58.58 0 0 1-.53-.53c0-.17.16-.31.4-.48a5.16 5.16 0 0 1 1.73-.84 1.6 1.6 0 0 1 1 .33 1.67 1.67 0 0 1 .62 1.39v2.31c0 .56.2.72.42.72a1 1 0 0 0 .43-.13l.12.34zm-.88-3c-.26.13-.84.39-1.11.51-.46.2-.73.43-.73.87a.87.87 0 0 0 .86.92 1.59 1.59 0 0 0 1-.43zm4.63 2.82a1.16 1.16 0 0 1-.51.16c-.77 0-1.18-.47-1.18-1.43v-3.49h-.82v-.14l.32-.35h.55v-1c.23-.24.58-.55.81-.79h.18v1.78h1.37a.37.37 0 0 1-.07.49h-1.3v3.07c0 1 .39 1.15.7 1.15a1.81 1.81 0 0 0 .73-.19l.11.31zm1.29 0v-.33c.76-.08.84-.14.84-.95v-2.47c0-.74 0-.79-.76-.91v-.29a7.77 7.77 0 0 0 1.71-.48v4.15c0 .81.08.87.86.95v.33zm1.25-6.61a.66.66 0 0 1-.64-.63.64.64 0 0 1 .65-.66.62.62 0 0 1 .61.66.63.63 0 0 1-.62.66zm4.69 1.23a2.58 2.58 0 0 1 2.61 2.69 2.69 2.69 0 0 1-2.61 2.87 2.63 2.63 0 0 1-2.66-2.68 2.75 2.75 0 0 1 2.66-2.88zm-.15.41c-.73 0-1.39.71-1.39 2.1s.68 2.63 1.66 2.63c.74 0 1.37-.54 1.37-2.19 0-1.4-.58-2.57-1.64-2.57zm6.99 4.97v-.33c.69-.08.77-.16.77-1v-2c0-.84-.3-1.41-1.1-1.41a2.1 2.1 0 0 0-1.32.74v2.8c0 .83.08.85.78.93v.27h-2.59v-.33c.79-.09.87-.14.87-.93v-2.44c0-.78-.09-.81-.74-.92v-.31a6.82 6.82 0 0 0 1.68-.48v1l.82-.56a1.88 1.88 0 0 1 1-.36c1 0 1.56.71 1.56 1.87v2.28c0 .82.08.85.77.93v.25zm11.79-.24a13.28 13.28 0 0 0-1.83.42v-.93a3 3 0 0 1-1.84.93c-.8 0-1.5-.49-1.5-1.8v-2.33c0-.65-.09-.72-.39-.78l-.34-.06v-.31a13.63 13.63 0 0 0 1.72-.22v3.39c0 1.05.55 1.35 1.09 1.35a1.91 1.91 0 0 0 1.3-.57v-2.8c0-.65-.15-.73-.55-.79l-.39-.05v-.31a17.47 17.47 0 0 0 1.89-.22v4c0 .6.09.69.55.71h.33zm.43.24v-.33c.76-.08.86-.14.86-.93V379c0-.73-.06-.8-.83-.9v-.31a8.73 8.73 0 0 0 1.78-.41v7.36c0 .79.07.85.85.93v.33zm3.19 0v-.33c.77-.08.86-.14.86-.93V379c0-.73-.06-.8-.83-.9v-.31a8.57 8.57 0 0 0 1.78-.41v7.36c0 .79.07.85.85.93v.33zm7.09.18a.91.91 0 0 1-.57-.23 1.22 1.22 0 0 1-.28-.54 3.85 3.85 0 0 1-1.44.77 1.48 1.48 0 0 1-1.47-1.48 1.23 1.23 0 0 1 1-1.2 9 9 0 0 0 1.89-.78v-.24c0-.85-.43-1.34-1.05-1.34a.69.69 0 0 0-.57.28 2.61 2.61 0 0 0-.32.77.33.33 0 0 1-.35.28.58.58 0 0 1-.53-.53c0-.17.16-.31.4-.48a5.16 5.16 0 0 1 1.73-.84 1.6 1.6 0 0 1 1 .33 1.67 1.67 0 0 1 .62 1.39v2.31c0 .56.2.72.42.72a1 1 0 0 0 .43-.13l.12.34zm-.88-3c-.26.13-.84.39-1.11.51-.46.2-.73.43-.73.87a.87.87 0 0 0 .86.92 1.59 1.59 0 0 0 1-.43zm8.99 2.82v-.33c.71-.08.79-.12.79-1v-2c0-.85-.29-1.39-1-1.39a2.18 2.18 0 0 0-1.33.63v2.84c0 .75.11.81.77.89v.36h-2.57v-.33c.75-.08.86-.12.86-.91v-2.07c0-.88-.28-1.38-1-1.38a2.3 2.3 0 0 0-1.32.63v2.82c0 .79.08.83.77.91v.33h-2.58v-.33c.79-.08.86-.12.86-.91v-2.46c0-.76-.05-.81-.72-.93v-.3a6.63 6.63 0 0 0 1.67-.48v1a7 7 0 0 1 .89-.62 1.57 1.57 0 0 1 .94-.32 1.4 1.4 0 0 1 1.31 1c.34-.27.65-.47.95-.67a1.8 1.8 0 0 1 1-.32c.93 0 1.51.68 1.51 1.85v2.32c0 .8.07.83.75.91v.26zm7.74-1a2.83 2.83 0 0 1-2.05 1.23 2.42 2.42 0 0 1-2.42-2.52 2.85 2.85 0 0 1 1.21-2.35 3.22 3.22 0 0 1 1.82-.69 1.77 1.77 0 0 1 1.12.33.37.37 0 0 1 .19.35.62.62 0 0 1-.43.54c-.06 0-.11 0-.23-.12a1.77 1.77 0 0 0-1.21-.51c-.79 0-1.49.67-1.49 1.92a2 2 0 0 0 1.83 2.22 1.91 1.91 0 0 0 1.46-.66zm3.29-4.38a2.58 2.58 0 0 1 2.61 2.69 2.69 2.69 0 0 1-2.61 2.87 2.63 2.63 0 0 1-2.66-2.68 2.75 2.75 0 0 1 2.66-2.88zm-.15.41c-.73 0-1.39.71-1.39 2.1s.67 2.63 1.66 2.63c.74 0 1.37-.54 1.37-2.19 0-1.4-.58-2.57-1.64-2.57zm6.3 4.97h-2.75v-.33c.75-.08.82-.14.82-.91v-2.5c0-.79 0-.83-.74-.91v-.3a6.8 6.8 0 0 0 1.69-.49v1.32c.42-.63.92-1.29 1.52-1.29a.62.62 0 0 1 .7.58.79.79 0 0 1-.41.66.24.24 0 0 1-.31 0 .72.72 0 0 0-.54-.3c-.25 0-.7.37-1 1v2.25c0 .79.06.85 1 .93zm1.83-5a7.53 7.53 0 0 0 1.74-.52v1l1-.6a1.79 1.79 0 0 1 .7-.24 2.17 2.17 0 0 1 2.12 2.29 3.41 3.41 0 0 1-3 3.27 2 2 0 0 1-.83-.2v1.62c0 .89.09 1 1 1v.38h-2.84v-.34c.78-.08.87-.14.87-.94v-5.46c0-.72 0-.77-.79-.88zm1.74 4.1a1.7 1.7 0 0 0 1.14.47c1 0 1.71-.88 1.71-2.22s-.75-2-1.6-2a2.4 2.4 0 0 0-1.25.52zm9.2-.1a2.75 2.75 0 0 1-2 1.17 2.4 2.4 0 0 1-2.35-2.58 3.09 3.09 0 0 1 .78-2.1 2.47 2.47 0 0 1 1.79-.88 1.87 1.87 0 0 1 1.83 1.86c0 .24-.05.35-.24.4s-1.77.15-3.2.2c0 1.61.95 2.27 1.8 2.27a2 2 0 0 0 1.39-.61zm-2.06-3.93c-.55 0-1.09.52-1.26 1.49h2.05c.22 0 .29-.06.29-.24a1.11 1.11 0 0 0-1.08-1.24zm5.6 4.93H247v-.33c.76-.08.83-.14.83-.91v-2.5c0-.79 0-.83-.74-.91v-.3a6.92 6.92 0 0 0 1.69-.49v1.32c.42-.63.92-1.29 1.52-1.29a.62.62 0 0 1 .7.58.79.79 0 0 1-.41.66.24.24 0 0 1-.31 0 .73.73 0 0 0-.54-.3c-.25 0-.7.37-1 1v2.25c0 .79.06.85 1 .93zm7.63-3.81c-.21-.69-.52-1.17-1.26-1.17a.73.73 0 0 0-.74.78c0 .51.35.75 1 1.07 1 .49 1.55.85 1.55 1.64a1.79 1.79 0 0 1-2 1.67 3.24 3.24 0 0 1-1.43-.34c-.05-.35-.16-1-.21-1.4l.35-.06c.21.77.63 1.39 1.47 1.39a.8.8 0 0 0 .89-.77c0-.54-.32-.81-1-1.12-.84-.41-1.52-.8-1.52-1.66a1.67 1.67 0 0 1 1.87-1.55 5.81 5.81 0 0 1 1.15.16c0 .29.12 1 .18 1.33zm7.06 3.57a13.09 13.09 0 0 0-1.84.42v-.93a3 3 0 0 1-1.83.93c-.81 0-1.5-.49-1.5-1.8v-2.33c0-.65-.1-.72-.4-.78l-.33-.06v-.31a13.7 13.7 0 0 0 1.71-.22v3.39c0 1.05.55 1.35 1.09 1.35a1.9 1.9 0 0 0 1.29-.57v-2.8c0-.65-.14-.73-.55-.79l-.38-.05v-.31a17.21 17.21 0 0 0 1.88-.22v4c0 .6.1.69.55.71h.34zm3.66-3.57c-.22-.69-.53-1.17-1.26-1.17a.73.73 0 0 0-.74.78c0 .51.34.75 1 1.07 1 .49 1.54.85 1.54 1.64a1.78 1.78 0 0 1-2 1.67 3.16 3.16 0 0 1-1.43-.34c-.06-.35-.17-1-.22-1.4l.35-.06c.22.77.64 1.39 1.48 1.39a.8.8 0 0 0 .84-.82c0-.54-.33-.81-1-1.12-.84-.41-1.53-.8-1.53-1.66a1.67 1.67 0 0 1 1.88-1.55 5.81 5.81 0 0 1 1.15.16c0 .29.12 1 .18 1.33zM274 385a2.87 2.87 0 0 1-2 1.23 2.42 2.42 0 0 1-2.43-2.52 2.85 2.85 0 0 1 1.21-2.35 3.22 3.22 0 0 1 1.83-.69 1.73 1.73 0 0 1 1.11.33.37.37 0 0 1 .19.35.62.62 0 0 1-.43.54c-.06 0-.11 0-.23-.12a1.77 1.77 0 0 0-1.21-.51c-.79 0-1.48.67-1.48 1.92a2 2 0 0 0 1.82 2.22 1.91 1.91 0 0 0 1.46-.66zm.68 1v-.33c.75-.08.84-.14.84-.95v-2.47c0-.74 0-.79-.76-.91v-.29a7.68 7.68 0 0 0 1.7-.48v4.15c0 .81.09.87.87.95v.33zm1.24-6.61a.65.65 0 0 1-.63-.63.64.64 0 0 1 .65-.66.63.63 0 0 1 .61.66.64.64 0 0 1-.63.66zm1.91 1.61a7.38 7.38 0 0 0 1.74-.52v1l1-.6a1.79 1.79 0 0 1 .7-.24 2.17 2.17 0 0 1 2.12 2.29 3.41 3.41 0 0 1-3 3.27 2 2 0 0 1-.85-.22v1.62c0 .89.1 1 1 1v.4h-2.84v-.34c.78-.08.87-.14.87-.94v-5.46c0-.72 0-.77-.79-.88zm1.74 4.1a1.72 1.72 0 0 0 1.14.47c1 0 1.72-.88 1.72-2.22s-.76-2-1.61-2a2.43 2.43 0 0 0-1.25.52zm4.67.9v-.33c.76-.08.84-.14.84-.95v-2.47c0-.74 0-.79-.76-.91v-.29a7.77 7.77 0 0 0 1.71-.48v4.15c0 .81.08.87.86.95v.33zm1.25-6.61a.66.66 0 0 1-.64-.63.64.64 0 0 1 .65-.66.62.62 0 0 1 .61.66.63.63 0 0 1-.62.66zm4.29 6.61a1.16 1.16 0 0 1-.51.16c-.77 0-1.18-.47-1.18-1.43v-3.49h-.83v-.14l.32-.35h.55v-1c.23-.24.58-.55.81-.79h.18v1.78h1.37a.38.38 0 0 1-.08.49H289v3.07c0 1 .38 1.15.69 1.15a1.82 1.82 0 0 0 .74-.19l.1.31zm3.92 0v-.33c.76-.08.86-.14.86-.93V379c0-.73-.06-.8-.83-.9v-.31a8.73 8.73 0 0 0 1.78-.41v7.36c0 .79.07.85.85.93v.33zm5.97-5.38a2.58 2.58 0 0 1 2.62 2.69 2.69 2.69 0 0 1-2.62 2.87 2.63 2.63 0 0 1-2.67-2.68 2.75 2.75 0 0 1 2.67-2.88zm-.14.41c-.73 0-1.39.71-1.39 2.1s.67 2.63 1.65 2.63c.74 0 1.37-.54 1.37-2.19 0-1.4-.58-2.57-1.63-2.57zm6.06-.29a1.47 1.47 0 0 1 .52-.12 2.46 2.46 0 0 1 2.37 2.55 3 3 0 0 1-3 3 4.34 4.34 0 0 1-1.85-.44V379c0-.74 0-.81-.81-.87v-.31a10.36 10.36 0 0 0 1.76-.41v3.75zm-1 3.9a1 1 0 0 0 .06.42 1.36 1.36 0 0 0 1.18.65c1 0 1.55-.89 1.55-2.24a1.93 1.93 0 0 0-1.82-2.17 2.28 2.28 0 0 0-1 .22zm7.51-4.02a2.58 2.58 0 0 1 2.62 2.69 2.69 2.69 0 0 1-2.62 2.87 2.63 2.63 0 0 1-2.66-2.68 2.75 2.75 0 0 1 2.66-2.88zm-.1.38c-.73 0-1.39.71-1.39 2.1s.67 2.63 1.65 2.63c.75 0 1.37-.54 1.37-2.19-.04-1.37-.63-2.54-1.63-2.54zm6.26 5h-2.76v-.33c.76-.08.83-.14.83-.91v-2.5c0-.79-.05-.83-.75-.91v-.3a6.8 6.8 0 0 0 1.69-.49v1.32c.42-.63.93-1.29 1.53-1.29a.62.62 0 0 1 .69.58.8.8 0 0 1-.4.66.26.26 0 0 1-.32 0 .72.72 0 0 0-.54-.3c-.25 0-.69.37-1 1v2.25c0 .79.07.85 1 .93zm4.29 0a1.16 1.16 0 0 1-.51.16c-.77 0-1.18-.47-1.18-1.43v-3.49H320l-.05-.14.32-.35h.55v-1c.23-.24.58-.55.81-.79h.18v1.78h1.37a.37.37 0 0 1-.07.49h-1.3v3.07c0 1 .38 1.15.7 1.15a1.81 1.81 0 0 0 .73-.19l.11.31zm2.45.2a.72.72 0 0 1-.74-.77.72.72 0 0 1 .74-.76.74.74 0 0 1 .75.76.73.73 0 0 1-.75.77z" class="b1921560-a8f9-4f47-aff1-745c8a8f011f" transform="translate(0 -.84)"/></g></g></svg>