<?xml version="1.0" encoding="utf-8"?>
<!-- Generator: Adobe Illustrator 26.0.1, SVG Export Plug-In . SVG Version: 6.00 Build 0)  -->
<svg version="1.1" id="Layer_1" xmlns="http://www.w3.org/2000/svg" xmlns:xlink="http://www.w3.org/1999/xlink" x="0px" y="0px"
	 viewBox="0 0 349.1 55.2" style="enable-background:new 0 0 349.1 55.2;" xml:space="preserve">
<style type="text/css">
	.st0{fill:none;stroke:#00AEFF;stroke-width:0.5;stroke-miterlimit:10;}
</style>
<g id="b877493d-9141-4efa-b2d7-eb65f1c4ce25">
	<g id="ac78315b-56e4-4e19-bb15-0a221950f9bf">
		<path class="st0" d="M0,47.3h349.1 M0,25.1h349.1"/>
		<path d="M11.9,47.3v-1.4l3.1-0.3c2.2-0.2,2.4-0.6,2.4-3.1V31.7c0-2.5-0.2-2.8-2.1-3l-2.9-0.2v-1.4c3-0.3,6-1,8.9-2.1v17.4
			c0,2.4,0.2,2.9,2.6,3.1l3,0.3v1.4L11.9,47.3z M64,40.9l-1.5,6.4H45.1v-1.1C49.4,43,56.4,38,56.4,33c0-2.4-1.4-4.6-4.4-4.6
			c-2.6,0-4.4,2.3-5.4,3.6l-1.2-1l2.3-3.2c1.4-1.7,3.6-2.7,5.8-2.6c3.7-0.2,6.9,2.6,7.1,6.3V32c0,2.8-1.7,4.9-3.4,6.5
			c-1.5,1.5-3.7,3.2-6.4,5.4h7.7c2.2,0,2.5-0.5,4-3.4L64,40.9L64,40.9z M81.3,30.3l2.1-2.8c1.4-1.4,3.3-2.3,5.2-2.3
			c3.8,0,6.3,2.5,6.3,6c0,1.3-0.6,2.6-1.5,3.6c-0.7,0.7-1.7,1.4-2.9,2.4c3.9,0.8,6.5,3.6,6.5,6.9c0,7.5-8.9,11.1-11.6,11.1
			c-1.5,0-2.9-0.5-4.1-1.5c-0.6-0.4-0.9-1.2-0.6-1.9c0.2-0.5,0.6-1,1.1-1.3c0.3-0.4,0.9-0.4,1.2,0c1.2,1.2,2.9,1.9,4.6,2
			c2.6,0,5.2-2.2,5.2-6.6s-2.8-6-5.6-6c-1,0-1.9,0.1-2.9,0.4L84,38.9c4.5-1.8,7-3.8,7-6.8c0.2-2-1.3-3.8-3.3-4h-0.6
			c-1.9,0-3.6,1.5-4.9,3.2L81.3,30.3L81.3,30.3z M134.5,45.5h-4.1v9.4h-3.8v-9.4h-12.7v-1.8c4.8-6.2,9.7-12.6,14.5-18.5h2v17.6h4.6
			L134.5,45.5z M126.5,30.3c-3.5,4.5-6.3,8.2-9.4,12.4h9.4V30.3z M155,34.8c5.3,0.3,11.9,2.5,11.9,8.9c-0.1,3.2-1.7,6.2-4.4,8
			c-3.1,2.2-6.8,3.4-10.7,3.5l-0.2-1.6c2.8-0.4,11.2-2.1,11.2-9c0-5.2-5.6-6.3-10.3-6.4l2.1-12.1l12.1-1l-0.7,3.6l-10.1,0.9
			L155,34.8L155,34.8z M203.8,19.3c-7.6,2-12.1,6.4-13.8,11.5l2.8-1.1c1-0.5,2.1-0.8,3.2-0.9c4.5,0,8.3,3.3,8.3,8.8
			c0.2,5.5-4.2,10.1-9.7,10.3h-0.2c-4.9,0-9.6-4-9.6-11.5c0-8,5.8-14.1,12.6-17c2-0.8,4-1.3,6.1-1.6L203.8,19.3L203.8,19.3z
			 M193.5,31.5c-1.4,0-2.7,0.4-3.9,1.1c-0.3,1.1-0.4,2.3-0.3,3.4c0,6.3,2.7,10,6.1,10c2.4,0,4.8-1.7,4.8-6.3
			C200.2,36.1,198.8,31.5,193.5,31.5L193.5,31.5z M239.4,26.5c-2.2,4.1-8.5,15.9-14.8,28l-3.7,0.7l-0.3-0.6
			c5.5-8.1,10.5-16.5,15.1-25.1h-15V26h18.5L239.4,26.5z M264.9,17.7c4.5,0,7.5,3.1,7.5,7.1c0,1.3-0.5,2.6-1.4,3.6
			c-1.1,1-2.3,2-3.6,2.8c3.1,1.8,6.2,4,6.2,8.2c0,5-4.2,8.4-9.2,8.4s-8.9-3.3-8.9-7.8c0-1.8,0.8-3.4,2.1-4.6c1.3-1,2.6-2,4-2.9
			c-2.7-1.6-5-3.9-5-7.2c0.1-4.3,3.7-7.8,8-7.6H264.9z M265,46.3c2.8,0,4.7-1.9,4.7-5.6s-3.1-5.4-6.5-7.2c-2.7,1.9-3.8,4.1-3.8,6.3
			C259.4,43.9,262.1,46.3,265,46.3L265,46.3z M264.4,19.4c-2.8,0-4,2.4-4,4.7c0,3.5,2.6,4.8,5.8,6.4c1.8-1.2,2.8-3.3,2.7-5.5
			C268.9,21.2,266.5,19.4,264.4,19.4L264.4,19.4z M290,53.7c5.3-1.2,11.8-4.3,14.1-11.7l-1.9,0.8c-1.2,0.6-2.6,1-3.9,1
			c-4,0-8.2-3.6-8.2-8.9c-0.1-5.3,4.2-9.7,9.5-9.8c6.5,0,9.4,5.7,9.4,11.4c0,9-6.3,15-12.8,17.5c-2,0.6-4,1-6,1.2L290,53.7z
			 M298.8,26.9c-2.6,0-4.6,2.8-4.6,6.5c0,5.3,3.3,7.7,6.7,7.7c1.2,0,2.4-0.3,3.5-0.9c0.2-1.2,0.3-2.4,0.3-3.6
			C304.6,33.5,303.7,26.9,298.8,26.9z M335.2,25.2c5.8,0,9.3,4.8,9.3,10.9c0,7.4-4.8,11.8-9.9,11.8c-5.7,0-9.6-4.4-9.6-11.1
			S329.6,25.2,335.2,25.2L335.2,25.2z M334.4,27.3c-3.6,0-5.5,3-5.5,8.8c0,6.1,2.8,9.7,6.3,9.7s5.3-3.1,5.3-8.9
			C340.5,30.9,338,27.3,334.4,27.3L334.4,27.3z M8.6,1.7H6.3v7.4h-1V1.7H2.9V0.8h5.9C8.8,0.8,8.6,1.7,8.6,1.7z M14.1,8.5l-0.2,0.7
			c-0.6,0-1.1-0.4-1.2-1c-0.4,0.6-1.1,1-1.9,1c-1,0.1-1.9-0.6-2-1.6V7.3c0-1.3,1-2.1,2.7-2.1h1V4.7c0-0.9-0.4-1.3-1.4-1.3
			c-0.6,0-1.2,0.1-1.7,0.4L9.2,3c0.7-0.3,1.4-0.4,2.1-0.4c1-0.2,2,0.5,2.2,1.6v3.4C13.6,8.2,13.8,8.3,14.1,8.5L14.1,8.5z M12.6,7.4
			V5.9h-0.9c-1.2,0-1.8,0.4-1.8,1.4c-0.1,0.5,0.2,1.1,0.8,1.2H11C11.7,8.4,12.3,8,12.6,7.4L12.6,7.4z M21,5.9c0,2-0.9,3.3-2.5,3.3
			c-0.7,0-1.3-0.3-1.7-0.9L16.7,9h-0.9V0.1l1-0.1v3.5c0.4-0.6,1.1-1,1.8-0.9C20.1,2.6,21,3.8,21,5.9L21,5.9z M19.9,5.9
			c0-1.8-0.6-2.5-1.5-2.5c-0.7,0-1.2,0.4-1.5,1v3.1c0.3,0.5,0.8,0.9,1.5,0.9C19.3,8.4,19.9,7.6,19.9,5.9z M27.5,9h-0.9l-0.1-1
			c-0.4,0.7-1.2,1.2-2,1.2c-0.9,0-1.7-0.7-1.8-1.6V2.8h1v4.4c0,0.9,0.3,1.2,1,1.2c0.7-0.1,1.3-0.5,1.6-1.1V2.8h1L27.5,9L27.5,9z
			 M29.7,7.8V0.1l1-0.1v7.7c0,0.4,0.1,0.5,0.4,0.5c0.1,0,0.3,0,0.4-0.1l0.3,0.7C31.5,8.9,31.3,9,31,9C30.3,9,29.8,8.5,29.7,7.8
			L29.7,7.8L29.7,7.8z M37.9,8.5l-0.2,0.7c-0.6,0-1.1-0.4-1.2-1c-0.4,0.6-1.1,1-1.9,1c-1,0.1-1.9-0.6-2-1.6V7.3c0-1.3,1-2.1,2.7-2.1
			h1V4.7c0-0.9-0.5-1.3-1.4-1.3c-0.6,0-1.2,0.1-1.7,0.4L33,3c0.7-0.3,1.4-0.4,2.1-0.4c1-0.2,2,0.5,2.2,1.6v3.4
			C37.4,8.2,37.6,8.3,37.9,8.5L37.9,8.5z M36.4,7.4V5.9h-0.9c-1.2,0-1.8,0.4-1.8,1.4c-0.1,0.5,0.2,1.1,0.8,1.2h0.4
			C35.5,8.4,36.1,8,36.4,7.4L36.4,7.4z M43,2.6l-0.2,1c-0.2-0.1-0.4-0.1-0.5-0.1c-0.8,0-1.3,0.6-1.5,1.8V9h-1V2.7h0.9L40.8,4
			c0.2-0.8,0.9-1.4,1.7-1.5C42.6,2.6,42.8,2.6,43,2.6z M53.9,4.9c0,2.7-1.4,4.3-3.5,4.3S46.9,7.7,46.9,5s1.4-4.3,3.5-4.3
			S53.9,2.2,53.9,4.9z M48.1,4.9c0,2.4,1,3.4,2.3,3.4s2.3-1,2.3-3.4s-0.9-3.4-2.3-3.4S48.1,2.5,48.1,4.9z M55.7,7.8V0.1l1-0.1v7.7
			c0,0.4,0.1,0.5,0.4,0.5c0.1,0,0.3,0,0.4-0.1l0.3,0.7C57.5,8.9,57.3,9,57,9C56.3,9,55.8,8.5,55.7,7.8L55.7,7.8L55.7,7.8z M64,0.2
			v8.9h-0.9L63,8.2c-0.4,0.6-1.1,1-1.8,1c-1.5,0-2.4-1.3-2.4-3.3s0.9-3.3,2.5-3.3c0.7,0,1.3,0.3,1.7,0.8V0.1L64,0.2z M63,7.4V4.3
			c-0.3-0.5-0.9-0.8-1.5-0.9c-1,0-1.6,0.8-1.6,2.5s0.5,2.5,1.5,2.5C62.1,8.3,62.7,8,63,7.4z M70.1,3.3l-0.4,0.6
			c-0.5-0.4-1.1-0.5-1.7-0.6c-0.7,0-1.2,0.4-1.2,0.9s0.3,0.8,1.4,1.1c1.3,0.4,2.1,0.9,2.1,2c0,1.3-1.2,1.9-2.4,1.9
			c-0.9,0-1.7-0.3-2.3-0.8l0.5-0.6c0.5,0.4,1.1,0.6,1.8,0.6c0.8,0,1.4-0.4,1.4-1S69,6.5,67.7,6.2s-1.9-0.9-1.9-1.8s1-1.7,2.2-1.7
			C68.7,2.6,69.4,2.8,70.1,3.3z M75,8.7c-0.4,0.3-0.9,0.4-1.4,0.4c-0.9,0.1-1.6-0.6-1.7-1.4V3.5h-1.1V2.7h1.1V1.3l1-0.1v1.6h1.5
			l-0.1,0.8h-1.4v3.9c0,0.7,0.2,1,0.8,1c0.3,0,0.6-0.1,0.9-0.3C74.6,8.2,75,8.7,75,8.7z M78.5,9.1c-0.3,1.4-1.5,2.4-2.8,2.5
			l-0.1-0.8c1-0.1,1.8-0.8,2-1.7h-0.3l-2.2-6.3h1.1l1.7,5.6l1.7-5.6h1C80.6,2.8,78.5,9.1,78.5,9.1z M81.8,7.8V0.1l1-0.1v7.7
			c0,0.4,0.1,0.5,0.4,0.5c0.1,0,0.3,0,0.4-0.1l0.3,0.7C83.6,8.9,83.4,9,83.1,9C82.4,9,81.9,8.5,81.8,7.8L81.8,7.8L81.8,7.8z M90,6.2
			h-4c0.1,1.5,0.8,2.1,1.8,2.1c0.6,0,1.2-0.2,1.7-0.6l0.4,0.6c-0.6,0.5-1.4,0.8-2.2,0.8c-1.7,0-2.8-1.2-2.8-3.2s1-3.4,2.6-3.4
			s2.6,1.2,2.6,3.1C90.1,5.9,90,6.1,90,6.2L90,6.2z M89,5.4c0-1.3-0.5-2-1.6-2c-0.9,0-1.5,0.6-1.5,2.1H89C89,5.5,89,5.4,89,5.4z
			 M92.7,8.4c0,0.3-0.1,0.6-0.2,0.8L91.7,11H91l0.5-1.9c-0.2-0.2-0.3-0.4-0.3-0.6c0-0.4,0.3-0.8,0.8-0.8C92.4,7.6,92.7,8,92.7,8.4z
			 M102.9,5.9c0,2-0.9,3.3-2.5,3.3c-0.7,0-1.3-0.3-1.7-0.9L98.6,9h-0.9V0.1l1-0.1v3.5c0.4-0.6,1.1-1,1.8-0.9
			C102,2.6,102.9,3.8,102.9,5.9L102.9,5.9z M101.8,5.9c0-1.8-0.6-2.5-1.5-2.5c-0.7,0-1.2,0.4-1.5,1v3.1c0.3,0.5,0.8,0.9,1.4,0.9
			C101.2,8.4,101.8,7.6,101.8,5.9z M109.4,6.2h-4.1c0.1,1.5,0.8,2.1,1.8,2.1c0.6,0,1.2-0.2,1.7-0.6l0.4,0.6
			c-0.6,0.5-1.4,0.8-2.2,0.8c-1.7,0-2.8-1.2-2.8-3.2s1-3.4,2.6-3.4s2.6,1.2,2.6,3.1V6.2L109.4,6.2z M108.4,5.4c0-1.3-0.5-2-1.6-2
			c-0.9,0-1.5,0.6-1.6,2.1h3.1L108.4,5.4z M115,3.3l-0.4,0.6c-0.5-0.4-1-0.5-1.6-0.6c-0.7,0-1.2,0.4-1.2,0.9s0.3,0.8,1.4,1.1
			c1.3,0.4,2.1,0.9,2.1,2c0,1.3-1.2,1.9-2.4,1.9c-0.9,0-1.7-0.3-2.3-0.8l0.5-0.6c0.5,0.4,1.1,0.6,1.8,0.6c0.8,0,1.4-0.4,1.4-1
			s-0.3-0.9-1.6-1.2s-1.9-0.9-1.9-1.8s1-1.7,2.2-1.7C113.6,2.6,114.4,2.8,115,3.3z M120,8.7c-0.4,0.3-0.9,0.4-1.4,0.4
			c-0.9,0.1-1.6-0.6-1.7-1.4V3.5h-1.1V2.7h1.1V1.3l1-0.1v1.6h1.5l-0.1,0.8h-1.4v3.9c0,0.7,0.2,1,0.8,1c0.3,0,0.6-0.1,0.9-0.3
			C119.6,8.2,120,8.7,120,8.7z M125.4,1.8v0.9h1.6l-0.1,0.8h-1.4V9h-1V3.5h-1.1V2.7h1.1V1.8c0-0.9,0.7-1.7,1.6-1.8h0.3
			c0.5,0,1,0.1,1.5,0.3L127.6,1c-0.4-0.2-0.7-0.2-1.1-0.2C125.7,0.9,125.4,1.2,125.4,1.8z M133.3,5.9c0,2-1,3.3-2.8,3.3
			s-2.8-1.3-2.8-3.3s1-3.3,2.8-3.3S133.3,3.8,133.3,5.9z M128.8,5.9c0,1.7,0.6,2.5,1.7,2.5s1.7-0.8,1.7-2.5s-0.6-2.5-1.7-2.5
			S128.8,4.2,128.8,5.9z M138.4,2.6l-0.2,1c-0.2-0.1-0.4-0.1-0.6-0.1c-0.8,0-1.3,0.6-1.5,1.8V9h-1V2.7h0.9l0.1,1.3
			c0.2-0.8,0.9-1.4,1.7-1.5C138,2.6,138.2,2.6,138.4,2.6z M147.1,3.2l-0.5,0.6c-0.4-0.3-0.9-0.5-1.4-0.5c-1,0-1.7,0.8-1.7,2.5
			s0.7,2.4,1.7,2.4c0.5,0,1-0.2,1.4-0.5l0.5,0.7c-0.5,0.4-1.2,0.7-1.9,0.7c-1.7,0-2.7-1.2-2.7-3.2s1.1-3.4,2.7-3.4
			C145.9,2.5,146.6,2.8,147.1,3.2z M153.6,5.9c0,2-1,3.3-2.8,3.3S148,7.9,148,5.9s1-3.3,2.8-3.3S153.6,3.8,153.6,5.9z M149.1,5.9
			c0,1.7,0.6,2.5,1.7,2.5s1.7-0.8,1.7-2.5s-0.6-2.5-1.7-2.5S149.1,4.2,149.1,5.9z M155.4,7.8V0.1l1-0.1v7.7c0,0.4,0.1,0.5,0.4,0.5
			c0.1,0,0.3,0,0.4-0.1l0.3,0.7C157.2,8.9,157,9,156.7,9C156,9,155.5,8.5,155.4,7.8L155.4,7.8L155.4,7.8z M163.6,9h-0.9l-0.1-1
			c-0.4,0.7-1.2,1.2-2,1.2c-0.9,0.1-1.7-0.7-1.8-1.6V2.8h1v4.4c0,0.9,0.3,1.2,1,1.2c0.7-0.1,1.3-0.5,1.6-1.1V2.8h1L163.6,9L163.6,9z
			 M173.8,4.5V9h-1V4.6c0-1-0.4-1.3-0.9-1.3c-0.7,0-1.1,0.5-1.6,1.2V9h-1V4.6c0-1-0.4-1.3-0.9-1.3c-0.7,0-1.1,0.5-1.6,1.2V9h-1V2.7
			h0.9l0.1,1c0.4-0.7,1.1-1.1,1.9-1.1c0.7,0,1.4,0.5,1.6,1.2c0.4-0.7,1.1-1.1,1.9-1.2c0.9,0,1.7,0.8,1.7,1.7
			C173.8,4.4,173.8,4.4,173.8,4.5L173.8,4.5z M180.8,4.5V9h-1V4.6c0-1-0.4-1.3-1-1.3c-0.7,0-1.4,0.5-1.7,1.2V9h-1V2.7h0.9l0.1,1
			c0.4-0.7,1.2-1.1,2-1.1c0.9,0,1.7,0.7,1.8,1.7C180.8,4.4,180.8,4.4,180.8,4.5L180.8,4.5z M186.8,3.3l-0.4,0.6
			c-0.5-0.4-1-0.5-1.6-0.6c-0.7,0-1.2,0.4-1.2,0.9S184,5,185,5.3c1.3,0.4,2.1,0.9,2.1,2c0,1.3-1.2,1.9-2.4,1.9
			c-0.9,0-1.7-0.3-2.4-0.8l0.5-0.6c0.5,0.4,1.1,0.6,1.8,0.6c0.9,0,1.4-0.4,1.4-1s-0.3-0.9-1.6-1.2s-1.9-0.9-1.9-1.8s1-1.7,2.2-1.7
			C185.5,2.6,186.2,2.8,186.8,3.3L186.8,3.3z M196.9,5.9c0,2-1,3.3-2.8,3.3s-2.8-1.3-2.8-3.3s1-3.3,2.8-3.3S196.9,3.8,196.9,5.9z
			 M192.4,5.9c0,1.7,0.6,2.5,1.7,2.5s1.7-0.8,1.7-2.5s-0.6-2.5-1.7-2.5S192.4,4.2,192.4,5.9z M199.9,1.8v0.9h1.6l-0.1,0.8H200V9h-1
			V3.5h-1.1V2.7h1.1V1.8c0-0.9,0.7-1.7,1.6-1.8h0.3c0.5,0,1,0.1,1.5,0.3L202.1,1c-0.4-0.2-0.7-0.2-1.1-0.2
			C200.2,0.9,199.9,1.2,199.9,1.8z M209.9,0.5l-0.4,0.7c-0.4-0.2-0.9-0.3-1.4-0.3c-0.9,0-1.1,0.3-1.1,1v0.9h3.5v6.3h-1V3.6H207v5.5
			h-1V3.6h-1V2.8h1V1.9c0-1,0.6-1.8,2.1-1.8C208.7,0.1,209.3,0.2,209.9,0.5L209.9,0.5z M217.8,3c-0.6,0.2-1.2,0.2-1.8,0.2
			c0.7,0.2,1.1,0.9,1.1,1.6c0,1.2-0.9,2.1-2.1,2.1h-0.3c-0.3,0-0.5,0-0.8-0.1c-0.2,0.1-0.3,0.4-0.4,0.6c0,0.3,0.2,0.5,0.9,0.5h1
			c1.3,0,2.1,0.7,2.1,1.7c0,1.2-1,1.9-2.9,1.9s-2.7-0.6-2.7-1.9h0.9c0,0.8,0.4,1.1,1.8,1.1s1.9-0.4,1.9-1s-0.5-0.9-1.3-0.9h-1
			c-1.1,0-1.6-0.6-1.6-1.2c0-0.5,0.3-0.9,0.7-1.1c-0.7-0.3-1.1-1-1.1-1.8c0-1.2,1-2.2,2.2-2.2h0.2c1,0.1,2-0.1,2.9-0.5L217.8,3
			L217.8,3z M213.3,4.8c-0.1,0.7,0.4,1.4,1.2,1.5h0.2c0.7,0.1,1.3-0.5,1.4-1.2V4.8c0.1-0.7-0.4-1.3-1.1-1.4h-0.3
			c-0.7,0-1.3,0.5-1.4,1.2L213.3,4.8L213.3,4.8z M223.6,9h-0.9l-0.1-1c-0.4,0.7-1.2,1.2-2,1.2c-0.9,0.1-1.7-0.7-1.8-1.6V2.8h1v4.4
			c0,0.9,0.3,1.2,1,1.2c0.7-0.1,1.3-0.5,1.6-1.1V2.8h1L223.6,9L223.6,9z M229.1,2.6l-0.2,1c-0.2-0.1-0.4-0.1-0.6-0.1
			c-0.8,0-1.3,0.6-1.6,1.8V9h-1V2.7h0.9l0.1,1.3c0.2-0.8,0.9-1.4,1.7-1.5C228.7,2.6,228.9,2.6,229.1,2.6L229.1,2.6z M234.9,6.2h-4.1
			c0.1,1.5,0.8,2.1,1.8,2.1c0.6,0,1.2-0.2,1.6-0.6l0.4,0.6c-0.6,0.5-1.4,0.8-2.2,0.8c-1.7,0-2.8-1.2-2.8-3.2s1-3.4,2.6-3.4
			s2.6,1.2,2.6,3.1C234.9,5.9,234.9,6.1,234.9,6.2L234.9,6.2z M233.9,5.4c0-1.3-0.5-2-1.6-2c-0.9,0-1.5,0.6-1.6,2.1h3.1V5.4H233.9z
			 M240.5,3.3l-0.4,0.6c-0.5-0.4-1-0.5-1.6-0.6c-0.8,0-1.2,0.4-1.2,0.9s0.3,0.8,1.4,1.1c1.3,0.4,2.1,0.9,2.1,2
			c0,1.3-1.2,1.9-2.4,1.9c-0.9,0-1.7-0.3-2.4-0.8l0.5-0.6c0.5,0.4,1.1,0.6,1.8,0.6c0.9,0,1.4-0.4,1.4-1s-0.3-0.9-1.6-1.2
			s-1.9-0.9-1.9-1.8s1-1.7,2.2-1.7C239.1,2.6,239.9,2.8,240.5,3.3L240.5,3.3z"/>
	</g>
</g>
</svg>
