<svg xmlns="http://www.w3.org/2000/svg" viewBox="0 0 152.08 27.95" width="152.08" height="27.95"><defs><style>.cls-1{fill:#b3b3b3}</style></defs><g id="Layer_2"><path id="Layer_1-2" d="M71.2 5c-.48.71-.48 1.07-1.31 1.07a.9.9 0 0 0-.72-.36c0-.71.48-1.19.48-1.91h.24c0 .74.83.74 1.31 1.2zM81 5c.24-.48 1.07-.48 1.19-1.2h.24c0 .72.36 1.2.36 1.91-.36 0-.72.36-1.55.36A3.79 3.79 0 0 0 81 5zm-5 6.81c-1.08 0-3.7-4.54-3.7-5.38s.71-.72 1.19-.72a6.63 6.63 0 0 1 2.51.74 7.18 7.18 0 0 1 2.75-.72c.36 0 .36 0 .36.72s-1.94 5.38-3.11 5.38zm17.9 3.24a8.83 8.83 0 0 0 3.34 5.14c-8 4.06-12.06 4.42-13.14 4.42v-.72c3.23-1.19 5.14-4.54 6-8.84zm-6.33-2.15c.24.72.48.72 1.31 1v.24c-.83 0-.83.71-.83 1.55h-.24c0-.6-.48-.84-1.2-.84 0-.71.72-1.19.72-1.91zM84.1 11c.6 0 1.44 1.55 1.44 1.55a2.68 2.68 0 0 1-.36 1.56c-.48 0-6.09-.48-6.45-1.2-.48-1.07 3.34-5.37 3.7-5.37 1.08-.24 1.08 0 1.67.83zm0 7.17v2.63c-.59.83-.59 1.07-1.67.83-.36 0-4.18-4.3-3.7-5.37.36-.6 6-1.2 6.45-1.2a3.05 3.05 0 0 1 .36 1.68s-.84 1.42-1.44 1.42zM76 28c11.35 0 21.26-5.25 23.42-6.33 2.27 1.56 6.57 2.63 10.27 2.63a100.69 100.69 0 0 0 12.18-1.79 121.82 121.82 0 0 1 12.91-1.67c10.87 0 16.12 6.09 17.32 6.33v-.24c0-5.26-5-6.09-6.09-5.26v-1.24a1.12 1.12 0 0 0 1.07-1.08c0-1.43-2.27-2.62-2.51-2.62h-2.86v-.24a1.86 1.86 0 0 0 1.19-1.68 2.09 2.09 0 0 0-2.15-1.91c-2.27 0-8.84 5-11.35 5-1.19 0-1.55-.6-1.55-1.67s2.27-1.44 3-1.44c3.95 0 6.46-1.91 6.46-3 0-.84-.84-1.56-1.92-2 .36-1.08 1.92-1.44 1.92-3.35C137.27 5 134.76 5 134.16 5c0-1.56-.24-3.83-.24-3.83h-.84c-5.61 10.64-13.26 19.24-24.61 19.24-2.5 0-4.77-.24-5.61-1.08 2.51-1.19 12.07-7.52 12.9-8 .84 1.19 1.44 2.27 3 2.27 2.27 0 6.81-7.89 7.88-9.8-12.9-.36-13.14 1.2-13.14 2.63 0 .84.24 2.27 1.08 2.51-3.83 3.58-12.9 9.2-14 10A10.75 10.75 0 0 1 96.76 15c1.07 0 2.63.6 3.82.6 1.55 0 2.27-.84 2.27-1.55a2.52 2.52 0 0 0-2.63-2.27h-4.65c0-4.3.84-9.08 7.65-9.08.48 0 1.31.71 1.31.71a2.9 2.9 0 0 0-1.31 2.63c0 2.32 2.15 2.96 3.78 2.96 1.43 0 3-.6 3-3.23 0-2.31-1.76-5.77-6.78-5.77A10 10 0 0 0 92.7 9v2.87h-3.46A13.49 13.49 0 0 0 76 .84c-6.69 0-12.42 4.3-13.14 11H59A8.08 8.08 0 0 0 59.37 9c0-.6-1.07-9-10.51-9-4.86 0-6.93 3.46-6.93 5.73 0 2.63 1.56 3.23 3 3.23 1.67 0 3.94-.6 3.94-2.87a3.41 3.41 0 0 0-1.07-2.63s.59-.71 1.07-.71c6.69 0 7.53 4.78 7.53 9.08h-4.55a2.44 2.44 0 0 0-2.63 2.27A1.82 1.82 0 0 0 51 15.65c1.55 0 3.11-.6 4.3-.6A9.94 9.94 0 0 1 51.49 19c-1.2-.83-10.27-6.45-14.1-10 .84-.24 1.2-1.67 1.2-2.51 0-1.43-.36-3-13.26-2.63 1.19 1.91 5.73 9.8 8 9.8A2.62 2.62 0 0 0 36 11.35c1.19.48 10.63 6.81 13.26 8-.84.84-3.11 1.08-5.73 1.08-11.35 0-18.88-8.6-24.5-19.24h-.83A30.72 30.72 0 0 0 17.8 5c-.24 0-3.11 0-3.11 1.43 0 1.91 1.68 2.27 2 3.35-1.2.47-2 1.19-2 2 0 1.07 2.87 3 6.57 3 .72 0 3 .24 3 1.44s-.36 1.67-1.43 1.67c-2.75 0-9.92-5-11.35-5-1.2 0-2.87.72-2.87 1.91 0 .84 1.32 1.44 1.67 1.92H7.77a3 3 0 0 0-2.87 2.63 1.14 1.14 0 0 0 1.19 1.08v1.19C4.9 20.79 0 21.62 0 26.88v.24c1.08-.24 6.45-6.33 16.73-6.33A126.05 126.05 0 0 1 30 22.46a106.2 106.2 0 0 0 12.42 1.79c3.7 0 7.88-1.07 10.15-2.63C54.83 22.7 64.27 28 76 28zM62.12 15.05c.72 4.3 2.63 7.65 6.09 8.84v.72c-1.67 0-5.37-.36-13.38-4.42.72-1.2 3-3.46 3.47-5.14zM68.21 11V8.36c.24-.83.24-1.07 1.44-.83.24 0 4.06 4.3 3.82 5.37-.48.72-6.09 1.2-6.45 1.2a2.15 2.15 0 0 1-.48-1.56S67.38 11 68.21 11zm-3.46 1.9c0 .72.6 1.2.6 1.91a1.08 1.08 0 0 0-1.2.84h-.24c0-.84 0-1.55-.83-1.55v-.24c.83-.24 1.19-.24 1.43-1zm3.46 5.26c-.83 0-1.67-1.43-1.67-1.43a2.43 2.43 0 0 1 .46-1.68c.36 0 6 .6 6.45 1.2.24 1.07-3.58 5.37-3.82 5.37-1.2.24-1.2 0-1.44-.83zm2.51 4.54c.48.48.48 1.19 1.2 1.31v.24a4.27 4.27 0 0 0-2 .36 14.43 14.43 0 0 0-.72-1.43c.45 0 .69-.48 1.52-.48zm5.26 0c-.24.48-2.27.48-2.51.48-.48 0-.48 0-.48-.48 0-1.08 1.91-6 3-6s3.11 4.89 3.11 6c0 .48-.36.48-.36.48-.49 0-2.4 0-2.74-.48zm5.26 0c.83 0 1.19.48 1.55.48-.36.71-.36 1.07-.72 1.43a3.4 3.4 0 0 0-1.79-.36V24c.72-.11.72-.82.96-1.3z" class="cls-1"/></g></svg>