<svg xmlns="http://www.w3.org/2000/svg" fill-rule="evenodd" stroke-linejoin="round" stroke-miterlimit="2" clip-rule="evenodd" viewBox="0 0 1858 342" width="1858" height="342"><path fill="none" d="M0 0h1857.88v341.51H0z"/><clipPath id="a"><path d="M0 0h1857.88v341.51H0z"/></clipPath><g clip-path="url(#a)"><path fill="#231f20" fill-rule="nonzero" d="M992.665 278.224c10.215 0 14.595 5.838 18.975 5.838-4.38 8.757-4.38 13.135-8.76 17.513-10.215-4.378-13.134-4.378-21.891-4.378v-2.919c8.757-1.459 8.757-10.216 11.676-16.054zm-64.216 0c-2.919 5.838-27.73 5.838-30.649 5.838-5.838 0-5.838 0-5.838-5.838 0-13.135 23.352-72.973 36.487-72.973 14.594 0 37.945 59.838 37.945 72.973 0 5.838-4.378 5.838-4.378 5.838-5.838 0-29.189 0-33.567-5.838zm-64.216 0c5.837 5.838 5.837 14.595 14.594 16.054v2.919c-8.757 0-14.594 0-24.81 4.378-2.919-4.378-2.919-8.756-8.757-17.513 5.838 0 8.757-5.838 18.973-5.838zm-30.649-55.459c-10.216 0-20.432-17.514-20.432-17.514 0-5.837 0-13.135 5.838-20.432 4.378 0 72.972 7.297 78.81 14.595 2.919 13.135-43.783 65.675-46.702 65.675-14.595 2.919-14.595 0-17.514-10.216v-32.108zm-42.324-64.216c0 8.757 7.297 14.595 7.297 23.351-7.297 0-13.135 2.919-14.594 10.216h-2.919c0-10.216 0-18.972-10.216-18.972v-2.919c10.216-2.919 14.594-2.919 17.513-11.676h2.919zm42.324-23.351V103.09c2.919-10.216 2.919-13.135 17.514-10.216 2.919 0 49.621 52.54 46.702 65.675-5.838 8.757-74.432 14.595-78.81 14.595-5.838-5.838-5.838-14.595-5.838-18.973 0 0 10.216-18.973 20.432-18.973zm-74.432 49.621c8.757 52.54 32.108 93.405 74.432 108v8.756c-20.432 0-65.675-4.378-163.459-53.999 8.757-14.595 36.487-42.325 42.325-62.757h46.702zM928.449 342.44c138.651 0 259.781-64.216 286.051-77.351 27.73 18.973 80.27 32.108 125.51 32.108 23.36 0 86.11-10.216 148.87-21.892 64.21-10.216 129.89-20.432 157.62-20.432 132.81 0 197.03 74.432 211.62 77.351v-2.919c0-64.216-61.3-74.432-74.43-64.216v-14.594c2.92 0 13.13-2.919 13.13-13.136 0-17.513-27.73-32.108-30.65-32.108h-35.02v-2.918c7.29-2.919 14.59-10.217 14.59-20.433 0-14.594-14.59-23.351-26.27-23.351-27.73 0-108 61.297-138.65 61.297-14.59 0-18.97-7.297-18.97-20.432 0-14.595 27.73-17.514 36.49-17.514 48.16 0 78.81-23.351 78.81-36.486 0-10.216-10.22-18.973-23.35-24.811 4.37-13.135 23.35-17.513 23.35-40.864 0-17.514-30.65-17.514-37.95-17.514 0-18.973-2.92-46.702-2.92-46.702h-10.21c-68.6 129.891-162 234.972-300.65 234.972-30.65 0-58.38-2.919-68.59-13.136 30.64-14.594 147.4-91.945 157.62-97.783 10.21 14.595 17.51 27.73 36.48 27.73 27.73 0 83.19-96.324 96.33-119.675-157.62-4.379-160.54 14.594-160.54 32.108 0 10.216 2.92 27.729 13.13 30.648-46.7 43.784-157.62 112.378-170.75 122.594-17.52-10.216-40.87-33.567-46.71-48.162 13.14 0 32.11 7.297 46.71 7.297 18.97 0 27.73-10.216 27.73-18.972 0-14.595-14.6-27.73-32.11-27.73h-56.92c0-52.54 10.22-110.919 93.4-110.919 5.84 0 16.06 8.757 16.06 8.757-10.22 4.379-16.06 18.973-16.06 32.108 0 27.73 26.27 35.027 46.71 35.027 17.51 0 36.48-7.297 36.48-39.405 0-27.73-21.89-70.054-83.19-70.054-113.83 0-128.43 102.162-128.43 109.459v35.027h-42.32c-14.6-74.432-78.81-134.27-162.001-134.27-81.73 0-151.783 52.541-160.54 134.27h-46.703c4.379-10.216 4.379-24.811 4.379-35.027C725.585 103.09 712.45.928 597.153.928c-59.838 0-84.648 42.324-84.648 70.054 0 32.108 18.972 39.405 36.486 39.405 20.432 0 48.162-7.297 48.162-35.027 0-13.135-5.838-27.729-13.135-32.108 0 0 7.297-8.757 13.135-8.757 81.729 0 91.945 58.379 91.945 110.919h-55.459c-18.973 0-32.108 13.135-32.108 27.73 0 8.756 10.216 18.972 21.892 18.972 18.973 0 37.946-7.297 52.54-7.297-5.838 14.595-27.729 37.946-46.702 48.162-14.595-10.216-125.513-78.81-172.216-122.594 10.217-2.919 14.595-20.432 14.595-30.648 0-17.514-4.378-36.487-161.999-32.108 14.594 23.351 70.053 119.675 97.783 119.675 18.973 0 29.189-13.135 32.108-27.73 14.594 5.838 129.891 83.189 161.999 97.783-10.216 10.217-37.946 13.136-70.054 13.136-138.648 0-230.593-105.081-299.187-234.972h-10.217s-4.378 27.729-4.378 46.702c-2.919 0-37.946 0-37.946 17.514 0 23.351 20.433 27.729 24.811 40.864-14.595 5.838-24.811 14.595-24.811 24.811 0 13.135 35.027 36.486 80.27 36.486 8.757 0 36.487 2.919 36.487 17.514 0 13.135-4.379 20.432-17.514 20.432-33.567 0-121.135-61.297-138.648-61.297-14.594 0-35.027 8.757-35.027 23.351 0 10.216 16.054 17.514 20.433 23.351H95.101c-16.054 0-35.027 14.595-35.027 32.108 0 10.217 10.216 13.136 14.595 13.136v14.594c-14.595-10.216-74.432 0-74.432 64.216v2.919c13.135-2.919 78.81-77.351 204.323-77.351 29.189 0 96.324 10.216 161.999 20.432 64.216 11.676 128.432 21.892 151.783 21.892 45.243 0 96.324-13.135 124.054-32.108 27.729 13.135 143.026 77.351 286.053 77.351zm99.241-119.675v32.108c-7.3 10.216-7.3 13.135-20.43 10.216-4.38 0-51.082-52.54-45.244-65.675 4.378-7.298 72.974-14.595 78.814-14.595 4.37 7.297 4.37 14.595 4.37 20.432 0 0-10.21 17.514-17.51 17.514zm0-87.567c7.3 0 17.51 18.973 17.51 18.973 0 4.378 0 13.135-4.37 18.973-5.84 0-74.436-5.838-78.814-14.595-5.838-13.135 40.864-65.675 45.244-65.675 13.13-2.919 13.13 0 20.43 10.216v32.108zm42.33 23.351c2.91 8.757 5.83 8.757 16.05 11.676v2.919c-10.22 0-10.22 8.756-10.22 18.972h-2.92c0-7.297-5.83-10.216-14.59-10.216 0-8.756 8.76-14.594 8.76-23.351h2.92zm77.35 26.27c2.92 20.432 20.43 48.162 40.86 62.757-97.78 49.621-147.4 53.999-160.54 53.999v-8.756c39.41-14.595 62.76-55.46 72.97-108h46.71zm-218.921-39.405c-13.135 0-45.243-55.459-45.243-65.675 0-8.757 8.756-8.757 14.594-8.757 2.919 0 27.73 4.378 30.649 8.757 4.378-4.379 27.729-8.757 33.567-8.757 4.378 0 4.378 0 4.378 8.757 0 10.216-23.351 65.675-37.945 65.675zm61.297-83.189c2.919-5.838 13.134-5.838 14.594-14.594h2.92c0 8.756 4.38 14.594 4.38 23.351-4.38 0-8.76 4.378-18.975 4.378 0 0 0-4.378-2.919-13.135zm-119.676 0c-5.837 8.757-5.837 13.135-16.053 13.135 0 0-2.919-4.378-8.757-4.378 0-8.757 5.838-14.595 5.838-23.351h2.919c0 8.756 10.216 8.756 16.053 14.594z"/></g></svg>