<svg xmlns="http://www.w3.org/2000/svg" id="Layer_1" viewBox="0 0 1440 264.7" width="1440" height="264.7"><style>.st0{fill:#b3b3b3}</style><g id="Layer_2_1_"><path id="Layer_1-2" d="M674.3 47.7c-4.5 6.7-4.5 10.1-12.3 10.1-1.6-2.1-4.1-3.4-6.8-3.4 0-6.7 4.5-11.2 4.5-18h2.3c0 6.9 7.8 6.9 12.3 11.3zm92.3 0c2.3-4.5 10.1-4.5 11.2-11.3h2.3c0 6.8 3.4 11.3 3.4 18-3.4 0-6.8 3.4-14.6 3.4-.3-3.5-1.1-6.9-2.3-10.1zm-47.1 64.1c-10.2 0-34.8-42.7-34.8-50.7s6.7-6.8 11.2-6.8c8.3.7 16.3 3.1 23.6 7 8.1-4 16.9-6.3 25.9-6.8 3.4 0 3.4 0 3.4 6.8S730.5 112 719.5 112v-.2zm168.6 30.5c4.4 19.4 15.5 36.5 31.5 48.4-75.3 38.2-113.6 41.6-123.7 41.6v-6.8c30.4-11.2 48.4-42.7 56.5-83.2h35.7zM828.5 122c2.3 6.8 4.5 6.8 12.3 9.4v2.3c-7.8 0-7.8 6.7-7.8 14.6h-2.3c0-5.6-4.5-7.9-11.3-7.9 0-6.7 6.8-11.2 6.8-18l2.3-.4zm-32.7-17.8c5.6 0 13.6 14.6 13.6 14.6.4 5.1-.8 10.3-3.4 14.7-4.5 0-57.3-4.5-60.7-11.3-4.5-10.1 31.5-50.6 34.8-50.6 10.2-2.3 10.2 0 15.7 7.8v24.8zm0 67.5v24.8c-5.6 7.8-5.6 10.1-15.7 7.8-3.4 0-39.4-40.5-34.8-50.6 3.4-5.6 56.5-11.3 60.7-11.3 2.6 4.8 3.8 10.3 3.4 15.8 0 0-7.9 13.4-13.6 13.5zm-76.3 92.5c106.9 0 200.2-49.4 220.5-59.6 21.4 14.7 61.9 24.8 96.7 24.8 38.5-3.3 76.8-8.9 114.7-16.9 40.2-7.4 80.8-12.7 121.6-15.7 102.4 0 151.8 57.3 163.1 59.6v-2.3c0-49.5-47.1-57.3-57.3-49.5v-11.7c5.5-.2 9.9-4.7 10.1-10.2 0-13.5-21.4-24.7-23.6-24.7h-26.9v-2.3c6.6-2.5 11-8.8 11.2-15.8-.9-10.4-9.8-18.3-20.2-18-21.4 0-83.2 47.1-106.9 47.1-11.2 0-14.6-5.6-14.6-15.7s21.4-13.6 28.2-13.6c37.2 0 60.8-18 60.8-28.2 0-7.9-7.9-14.7-18.1-18.8 3.4-10.2 18.1-13.6 18.1-31.5-.4-13.6-24-13.6-29.7-13.6 0-14.7-2.3-36.1-2.3-36.1h-7.9c-52.8 100.2-124.9 181.2-231.7 181.2-23.5 0-44.9-2.3-52.8-10.2 23.6-11.2 113.7-70.8 121.5-75.3 7.9 11.2 13.6 21.4 28.2 21.4 21.4 0 64.1-74.3 74.2-92.3-121.5-3.4-123.7 11.3-123.7 24.8 0 7.9 2.3 21.4 10.2 23.6-36.1 33.7-121.5 86.6-131.8 94.2-15-9-27.4-21.8-36-37.1 10.1 0 24.8 5.6 36 5.6 14.6 0 21.4-7.9 21.4-14.6-1.2-12.6-12.1-22-24.8-21.4h-43.8c0-40.5 7.9-85.5 72-85.5 4.5 0 12.3 6.7 12.3 6.7-8.3 5.4-13 14.9-12.3 24.8 0 21.8 20.2 27.9 35.6 27.9 13.5 0 28.2-5.6 28.2-30.4 0-21.8-16.6-54.3-63.8-54.3-50.4-2.9-94.1 34.5-99.1 84.7v27h-32.6C833.1 52.2 780.7 8.6 719.5 8.5c-63 0-117 40.5-123.7 103.6h-36.3c2.7-8.6 3.9-17.7 3.5-26.7 0-5.6-10.1-84.7-99-84.7-45.8 0-65.3 32.6-65.3 54 0 24.8 14.7 30.4 28.2 30.4 15.7 0 37.1-5.6 37.1-27 .4-9.3-3.3-18.4-10.1-24.8 0 0 5.6-6.7 10.1-6.7 63 0 70.9 45 70.9 85.5h-42.8c-12.6-1-23.7 8.4-24.7 21.1v.3c1.2 8.3 8.3 14.5 16.8 14.6 14.6 0 29.3-5.6 40.5-5.6-8.2 15.5-20.7 28.4-35.9 37.2-11.3-7.8-96.7-60.7-132.8-94.2 7.9-2.3 11.3-15.7 11.3-23.6 0-13.5-3.4-28.2-124.9-24.8 11.2 18 54 92.3 75.3 92.3 12.7.3 23.6-9.1 25.1-21.8 11.2 4.5 100.1 64.1 124.9 75.3-7.9 7.9-29.3 10.2-54 10.2-106.9 0-177.8-81-230.7-181.2h-7.8c-2 11.9-3.3 23.9-3.8 35.9-2.3 0-29.3 0-29.3 13.5 0 18 15.8 21.4 18.8 31.5-11.3 4.4-18.8 11.2-18.8 18.8 0 10.1 27 28.2 61.9 28.2 6.8 0 28.2 2.3 28.2 13.6s-3.4 15.7-13.5 15.7C193 169 125.5 122 112 122c-11.3 0-27 6.8-27 18 0 7.9 12.4 13.6 15.7 18.1H77.1c-13.9.5-25.3 11-27 24.8.3 5.9 5.3 10.4 11.2 10.2v11.2c-11.2-7.8-57.3 0-57.3 49.5v2.3c10.2-2.3 60.7-59.6 157.5-59.6 41.9 3 83.6 8.3 125 15.7 38.6 7.9 77.7 13.5 117 16.9 34.8 0 74.2-10.1 95.6-24.8 21.1 10 110 59.9 220.4 59.9zM588.8 142.3c6.8 40.5 24.8 72 57.3 83.2v6.8c-15.7 0-50.6-3.4-126-41.6 6.8-11.3 28.2-32.6 32.7-48.4h36zm57.4-38.1V79.3c2.3-7.8 2.3-10.1 13.6-7.8 2.3 0 38.2 40.5 36 50.6-4.5 6.8-57.3 11.3-60.7 11.3-3.4-4.1-5-9.4-4.5-14.7-.1 0 7.8-14.5 15.6-14.5zM613.6 122c0 6.8 5.6 11.3 5.6 18-5.3-.7-10.2 2.7-11.3 7.9h-2.3c0-7.9 0-14.6-7.8-14.6V131c7.8-2.3 11.2-2.3 13.5-9.4l2.3.4zm32.6 49.6c-7.8 0-15.7-13.5-15.7-13.5-.6-5.6 1-11.3 4.3-15.8 3.4 0 56.5 5.6 60.7 11.3 2.3 10.1-33.7 50.6-36 50.6-11.3 2.3-11.3 0-13.6-7.8l.3-24.8zm23.6 42.7c4.5 4.5 4.5 11.2 11.3 12.3v2.3c-6.5-.4-12.9.8-18.8 3.4-2-4.6-4.3-9.1-6.8-13.5 4.2 0 6.5-4.5 14.3-4.5zm49.5 0c-2.3 4.5-21.4 4.5-23.6 4.5-4.5 0-4.5 0-4.5-4.5 0-10.2 18-56.5 28.2-56.5 10.3 0 29.3 46 29.3 56.5 0 4.5-3.4 4.5-3.4 4.5-4.6 0-22.6 0-25.8-4.5h-.2zm49.6 0c7.8 0 11.2 4.5 14.6 4.5-3.4 6.7-3.4 10.1-6.8 13.5-5.2-2.6-11-3.8-16.9-3.4v-2.4c6.8-1 6.8-7.7 9.1-12.2z" class="st0"/></g></svg>