<svg xmlns="http://www.w3.org/2000/svg" viewBox="0 0 854.56 936.45" width="854.56" height="936.45"><defs><style>.a54cc689-b519-4f97-8c1a-c1f012e6e52e,.adc12002-db74-441e-b4f1-51a13c9c0ccd,.b5649dc2-1ae8-4d11-a2dd-d5ee18140a98,.bdc9d013-1c47-4a52-836c-6631cfa7681c,.e68b3a70-f796-4d7a-b86c-a27dd79ad0c3,.f8edcedc-f82b-44cc-a593-393f76697a44{fill:none;stroke-miterlimit:10}.bdc9d013-1c47-4a52-836c-6631cfa7681c{stroke:#231f20}.f8edcedc-f82b-44cc-a593-393f76697a44{stroke:#ec1c24}.aaff58af-5a7c-4b8f-843f-54f3aba7079f{fill:#6d6e70}.e5f3def9-5003-43e8-a20e-96f0619faa91{fill:#b2b3b3}.adc12002-db74-441e-b4f1-51a13c9c0ccd{stroke:#969696}.b5649dc2-1ae8-4d11-a2dd-d5ee18140a98,.e68b3a70-f796-4d7a-b86c-a27dd79ad0c3{stroke:#dbdcdc}.b5649dc2-1ae8-4d11-a2dd-d5ee18140a98{stroke-dasharray:7.95 7.95}.a54cc689-b519-4f97-8c1a-c1f012e6e52e{stroke:#b2b3b3}.ec3c1bdc-7542-47dd-95ae-b77913bc276f{fill:#2997ff}.eb6788df-94a2-4aea-b8b2-b0c3a64f0a59{fill:#fff}</style></defs><g id="b85ef862-41b0-481d-a58d-86d63b71d1ef"><g id="ed1bb804-dae9-433c-ac95-cb9ad26e80c9"><path d="M727.35 20.45v50m-612-50v50m612 816v50m-612-50v50m-62-854h50m-50 792h50m636-792h50m-50 792h50" class="bdc9d013-1c47-4a52-836c-6631cfa7681c"/><path d="M17.02 163.45h810v630h-810z" class="f8edcedc-f82b-44cc-a593-393f76697a44" transform="rotate(90 421.685 478.115)"/><path d="M115.35 82.45h612v792h-612z" class="bdc9d013-1c47-4a52-836c-6631cfa7681c"/><path d="M762.67 136.45h-3.17v-16.59h3.17zm14.11-9.2v9.2h-3.07v-8.72c0-1.58-.6-2-1.56-2s-1.92.75-2.67 1.92v8.84h-3.07v-12.7h2.66l.24 1.66a4.73 4.73 0 0 1 3.87-2c2.28-.06 3.6 1.38 3.6 3.8zm12.02-2.35l-1.2 1.8a5.78 5.78 0 0 0-3.19-1c-1.22 0-1.92.5-1.92 1.27s.5 1.23 2.66 1.83c2.6.69 4.06 1.75 4.06 4 0 2.64-2.45 4-5.35 4a7.47 7.47 0 0 1-5.07-1.8l1.54-1.73a5.76 5.76 0 0 0 3.46 1.25c1.36 0 2.25-.58 2.25-1.54s-.5-1.39-2.88-2.06c-2.61-.72-3.77-2-3.77-3.84 0-2.12 2-3.7 4.9-3.7a7.18 7.18 0 0 1 4.51 1.52zm6.27-5.71a1.94 1.94 0 1 1-2-1.87 1.85 1.85 0 0 1 2 1.87zm-.39 17.26h-3.07v-12.7h3.07zm14.21-17.79v17.79h-2.71l-.22-1.61a4.25 4.25 0 0 1-3.62 2c-3.17 0-4.83-2.67-4.83-6.7s2-6.72 5.12-6.72a4.43 4.43 0 0 1 3.19 1.37v-6.43zm-3.07 14.19V127a3 3 0 0 0-2.43-1.35c-1.58 0-2.64 1.35-2.64 4.4 0 3.26.94 4.39 2.45 4.39a3 3 0 0 0 2.62-1.59zm17.06-1.8h-8c.24 2.59 1.44 3.43 3.12 3.43a5.26 5.26 0 0 0 3.17-1.13l1.27 1.75a7.27 7.27 0 0 1-4.7 1.71c-3.94 0-6-2.62-6-6.63s2-6.79 5.64-6.79 5.59 2.4 5.59 6.41c.03.41-.06.91-.09 1.25zm-3-2.14c0-2.09-.75-3.34-2.48-3.34-1.44 0-2.35 1-2.52 3.48h5zm-44.66 36.34h-3.1l-.43-6.94c-.14-2.45-.26-5-.22-6.77l-3 11.91h-3l-3.22-11.93a66.52 66.52 0 0 1-.09 6.89l-.41 6.84h-3.07l1.32-16.59h4.08l3 11.62 2.78-11.62h4.13zm13.22-1.73l-.65 2a2.85 2.85 0 0 1-2.8-1.85 4.39 4.39 0 0 1-3.82 1.9 3.77 3.77 0 0 1-4.08-3.92c0-2.76 2.06-4.24 5.76-4.24h1.61v-.72c0-1.66-.75-2.21-2.38-2.21a11.63 11.63 0 0 0-3.38.67l-.7-2.09a13.09 13.09 0 0 1 4.59-.91c3.4 0 4.89 1.56 4.89 4.37v5.33c0 1.07.34 1.43.96 1.67zm-4-1.71v-2.56h-1.27c-2 0-3 .72-3 2.21a1.68 1.68 0 0 0 1.8 1.92 2.75 2.75 0 0 0 2.49-1.57zm14.25-9.43l-.53 3a4 4 0 0 0-1.13-.15c-1.53 0-2.32 1.13-2.8 3.27v6.77h-3.08v-12.7h2.67l.29 2.5c.6-1.83 1.82-2.84 3.31-2.84a4.43 4.43 0 0 1 1.27.15zm12.65.84a11.29 11.29 0 0 1-3.67.43 3.35 3.35 0 0 1 2.3 3.27c0 2.47-1.92 4.27-5.11 4.27a5.25 5.25 0 0 1-1.51-.19 1.12 1.12 0 0 0-.53.93c0 .46.26.89 1.53.89h1.95c2.81 0 4.63 1.51 4.63 3.6 0 2.55-2.18 4.06-6.34 4.06-4.51 0-5.78-1.44-5.78-4h2.76c0 1.27.55 1.82 3.07 1.82s3.19-.67 3.19-1.68-.74-1.51-2.16-1.51h-1.92c-2.54 0-3.62-1.13-3.62-2.45a2.85 2.85 0 0 1 1.49-2.35 3.71 3.71 0 0 1-2.23-3.58c0-2.76 2.18-4.56 5.25-4.56a10.27 10.27 0 0 0 5.93-1.42zm-8.86 3.48a2.2 2.2 0 0 0 2.26 2.5c1.46 0 2.26-.91 2.26-2.52s-.77-2.4-2.31-2.4a2.16 2.16 0 0 0-2.21 2.42zm14.11-8.7a1.93 1.93 0 1 1-1.94-1.87 1.84 1.84 0 0 1 1.94 1.87zm-.38 17.26h-3.07v-12.7h3.07zm13.97-9.21v9.2h-3.07v-8.72c0-1.58-.6-2-1.56-2s-1.92.75-2.67 1.92v8.84h-3.07v-12.7h2.66l.24 1.66a4.73 4.73 0 0 1 3.87-2c2.28-.06 3.6 1.38 3.6 3.8zm-65.43 18.87a18.72 18.72 0 0 0 0 21.46l-2 1.32c-2.38-3.32-4.56-6.34-4.56-12s2.18-8.74 4.56-12.05zm14.45 14.35c0 3.65-2.9 4.78-6.93 4.78h-5v-16.59h4.35c4.27 0 6.86 1.2 6.86 4.23a3.61 3.61 0 0 1-3.07 3.57c1.9.36 3.79 1.25 3.79 4.01zm-8.76-9.48v4.49h1.95c1.72 0 2.85-.77 2.85-2.33s-1.15-2.16-3.31-2.16zm5.45 9.36c0-2-1.42-2.66-3.26-2.66h-2.19v5.18h1.85c2.09 0 3.6-.43 3.6-2.52zm9.41-12.36a1.94 1.94 0 1 1-1.95-1.87 1.85 1.85 0 0 1 1.95 1.87zm-.39 17.26h-3.07v-12.7h3.07zm13.97-9.2v9.2h-3.07v-8.72c0-1.58-.6-2-1.56-2s-1.92.75-2.67 1.92v8.84h-3.07v-12.7h2.67l.24 1.66a4.7 4.7 0 0 1 3.86-2c2.28-.05 3.6 1.38 3.6 3.8zm14.12-8.59v17.79h-2.72l-.21-1.61a4.25 4.25 0 0 1-3.63 2c-3.16 0-4.82-2.67-4.82-6.7s2-6.72 5.11-6.72a4.41 4.41 0 0 1 3.19 1.37v-6.43zm-3.08 14.19v-5.81a3 3 0 0 0-2.42-1.35c-1.58 0-2.64 1.35-2.64 4.4 0 3.26.94 4.39 2.45 4.39a3 3 0 0 0 2.56-1.63zM820 176.79a1.93 1.93 0 1 1-1.94-1.87 1.84 1.84 0 0 1 1.94 1.87zm-.38 17.26h-3.08v-12.7h3.08zm13.97-9.2v9.2h-3.08v-8.72c0-1.58-.6-2-1.56-2s-1.92.75-2.66 1.92v8.84h-3.07v-12.7h2.66l.24 1.66a4.73 4.73 0 0 1 3.87-2c2.28-.05 3.6 1.38 3.6 3.8zm14.54-2.85a11.29 11.29 0 0 1-3.67.43 3.35 3.35 0 0 1 2.3 3.27c0 2.47-1.92 4.27-5.11 4.27a5.25 5.25 0 0 1-1.51-.19 1.12 1.12 0 0 0-.53.93c0 .46.26.89 1.53.89h2c2.81 0 4.63 1.51 4.63 3.6 0 2.55-2.18 4.06-6.34 4.06-4.51 0-5.78-1.44-5.78-4h2.76c0 1.28.55 1.83 3.07 1.83s3.19-.67 3.19-1.68-.74-1.51-2.16-1.51h-1.92c-2.54 0-3.62-1.13-3.62-2.45a2.85 2.85 0 0 1 1.49-2.35 3.71 3.71 0 0 1-2.23-3.58c0-2.76 2.18-4.56 5.25-4.56a10.27 10.27 0 0 0 5.93-1.42zm-8.86 3.48a2.2 2.2 0 0 0 2.26 2.5c1.46 0 2.26-.91 2.26-2.52s-.77-2.4-2.31-2.4a2.16 2.16 0 0 0-2.21 2.44zm15.96.17c0 5.71-2.16 8.73-4.56 12l-1.94-1.32a18.72 18.72 0 0 0 0-21.46l1.94-1.32c2.4 3.36 4.56 6.38 4.56 12.1z" class="aaff58af-5a7c-4b8f-843f-54f3aba7079f" transform="translate(-.67)"/><path d="M207.15 842.93h-1.77v-5.81l-1.71 1-.79-1.21 2.66-1.54h1.61zm7.76-8.01l-7.37 14.38-1.39-.68 7.37-14.39zm3.5 10.33a2.7 2.7 0 0 1-2.84 2.78c-2.11 0-3-1.48-3-3.64 0-2.58 1.3-4.27 3.42-4.27a3.08 3.08 0 0 1 1.78.51l-.64 1.08a2.33 2.33 0 0 0-1.1-.31c-.92 0-1.5.74-1.59 2.09a2.31 2.31 0 0 1 1.7-.72 2.22 2.22 0 0 1 2.27 2.48zm-1.81 0c0-1-.35-1.3-1-1.3a1.56 1.56 0 0 0-1.17.58c0 1.57.31 2.18 1.1 2.18s1.07-.56 1.07-1.44zm-72.81-656.03H142v-5.81l-1.71 1-.79-1.2 2.66-1.55h1.61zm7.76-8.01l-7.37 14.39-1.39-.69 7.37-14.38zm3.5 10.34a2.7 2.7 0 0 1-2.84 2.77c-2.11 0-3-1.48-3-3.64 0-2.57 1.3-4.27 3.42-4.27a3.08 3.08 0 0 1 1.78.51l-.64 1.08a2.33 2.33 0 0 0-1.1-.31c-.92 0-1.5.74-1.59 2.09a2.35 2.35 0 0 1 1.7-.72 2.23 2.23 0 0 1 2.27 2.49zm-1.81 0c0-1-.35-1.29-1-1.29a1.58 1.58 0 0 0-1.17.57c0 1.57.31 2.18 1.1 2.18s1.07-.56 1.07-1.45zm-8.43 107.9c0 1.15-.66 2-3.11 4.1h3.3l-.19 1.39h-5.11v-1.28c2.65-2.49 3.28-3.17 3.28-4.05a.93.93 0 0 0-1-1 1.8 1.8 0 0 0-1.46.77l-1.06-.84a3.33 3.33 0 0 1 2.7-1.32c1.7.01 2.65 1.02 2.65 2.23zm6.74-2.45l-7.37 14.39-1.39-.69 7.37-14.38zm3.5 10.3a2.7 2.7 0 0 1-2.84 2.77c-2.11 0-3-1.48-3-3.64 0-2.57 1.3-4.26 3.42-4.26a3.08 3.08 0 0 1 1.78.5l-.64 1.08a2.33 2.33 0 0 0-1.1-.31c-.92 0-1.5.74-1.59 2.09a2.35 2.35 0 0 1 1.7-.72 2.23 2.23 0 0 1 2.27 2.49zm-1.81 0c0-1-.35-1.29-1-1.29a1.58 1.58 0 0 0-1.17.57c0 1.57.31 2.18 1.1 2.18s1.07-.56 1.07-1.45zM144.79 415a1.81 1.81 0 0 0 .28 3.6c0 1.28-1.08 2.36-3 2.36a3.44 3.44 0 0 1-2.7-1.15l1-.95a2.07 2.07 0 0 0 1.58.72c.74 0 1.26-.38 1.26-1.08s-.47-1.07-1.31-1.07h-.65l.22-1.22h.43c.7 0 1.15-.34 1.15-1s-.41-.86-1.06-.86a2.31 2.31 0 0 0-1.55.65l-.9-1a3.78 3.78 0 0 1 2.65-1c1.69 0 2.6.88 2.6 2zm6.76-2.29l-7.37 14.39-1.39-.69 7.37-14.41zm3.5 10.34a2.7 2.7 0 0 1-2.84 2.77c-2.11 0-3-1.48-3-3.64 0-2.57 1.3-4.26 3.42-4.26a3.08 3.08 0 0 1 1.78.5l-.64 1.08a2.33 2.33 0 0 0-1.1-.31c-.92 0-1.5.74-1.59 2.09a2.35 2.35 0 0 1 1.7-.72 2.23 2.23 0 0 1 2.27 2.49zm-1.81 0c0-1-.35-1.29-1-1.29a1.58 1.58 0 0 0-1.17.57c0 1.57.31 2.18 1.1 2.18s1.07-.51 1.07-1.45zm-8.03 111.8h-.9v1.62h-1.71v-1.62h-3.4v-1.2l2.25-4.88 1.51.56-1.96 4.19h1.57l.27-1.78h1.44v1.78h.9zm6.34-6.39l-7.37 14.39-1.39-.69 7.37-14.38zm3.5 10.34a2.7 2.7 0 0 1-2.84 2.77c-2.11 0-3-1.48-3-3.64 0-2.57 1.3-4.26 3.42-4.26a3.08 3.08 0 0 1 1.78.5l-.64 1.08a2.33 2.33 0 0 0-1.1-.31c-.92 0-1.5.74-1.59 2.09a2.35 2.35 0 0 1 1.7-.72 2.23 2.23 0 0 1 2.27 2.49zm-1.81 0c0-1-.35-1.29-1-1.29a1.58 1.58 0 0 0-1.17.57c0 1.57.31 2.18 1.1 2.18s1.07-.56 1.07-1.45zm-8.75 107.14h-2.94v1.58a3 3 0 0 1 1.23-.27 2.23 2.23 0 0 1 2.27 2.47c0 1.6-1.21 2.7-3.08 2.7a3.36 3.36 0 0 1-2.63-1.15l1-.95a1.91 1.91 0 0 0 1.52.73 1.18 1.18 0 0 0 1.29-1.33c0-.94-.47-1.24-1.11-1.24a1.89 1.89 0 0 0-1 .27h-1.26v-4.07h4.83zm7.06-1.73l-7.37 14.39-1.39-.69 7.37-14.38zm3.5 10.34a2.7 2.7 0 0 1-2.84 2.77c-2.11 0-3-1.48-3-3.64 0-2.57 1.3-4.26 3.42-4.26a3.08 3.08 0 0 1 1.78.5l-.64 1.08a2.33 2.33 0 0 0-1.1-.31c-.92 0-1.5.74-1.59 2.09a2.35 2.35 0 0 1 1.7-.72 2.23 2.23 0 0 1 2.27 2.49zm-1.81 0c0-1-.35-1.29-1-1.29a1.58 1.58 0 0 0-1.17.57c0 1.57.31 2.18 1.1 2.18s1.07-.56 1.07-1.45zm-8.12 110.85a2.7 2.7 0 0 1-2.85 2.77c-2.1 0-3-1.47-3-3.63 0-2.58 1.29-4.27 3.42-4.27a3.15 3.15 0 0 1 1.78.5l-.65 1.08a2.26 2.26 0 0 0-1.1-.3c-.92 0-1.49.74-1.58 2.08a2.33 2.33 0 0 1 1.69-.72 2.23 2.23 0 0 1 2.29 2.49zm-1.82 0c0-1-.34-1.3-1-1.3a1.55 1.55 0 0 0-1.17.58c0 1.56.3 2.18 1.09 2.18s1.08-.56 1.08-1.44zm8.25-5.4l-7.37 14.39-1.39-.69 7.37-14.38zm3.5 10.3a2.7 2.7 0 0 1-2.84 2.77c-2.11 0-3-1.48-3-3.64 0-2.57 1.3-4.26 3.42-4.26a3.08 3.08 0 0 1 1.78.5l-.64 1.08a2.33 2.33 0 0 0-1.1-.31c-.92 0-1.5.74-1.59 2.09a2.35 2.35 0 0 1 1.7-.72 2.23 2.23 0 0 1 2.27 2.49zm-1.81 0c0-1-.35-1.29-1-1.29a1.58 1.58 0 0 0-1.17.57c0 1.57.31 2.18 1.1 2.18s1.07-.56 1.07-1.45zM294 837.4c0 1.16-.67 2-3.11 4.11h3.27l-.18 1.38h-5.11v-1.27c2.65-2.49 3.28-3.17 3.28-4a.93.93 0 0 0-1-1 1.8 1.8 0 0 0-1.46.77l-1.06-.85a3.35 3.35 0 0 1 2.7-1.31c1.67-.04 2.67.97 2.67 2.17zm6.7-2.48l-7.36 14.38-1.39-.68 7.37-14.39zm3.51 10.33a2.71 2.71 0 0 1-2.84 2.78c-2.11 0-3-1.48-3-3.64 0-2.58 1.29-4.27 3.42-4.27a3.08 3.08 0 0 1 1.78.51l-.65 1.08a2.26 2.26 0 0 0-1.09-.31c-.92 0-1.5.74-1.59 2.09a2.29 2.29 0 0 1 1.69-.72 2.22 2.22 0 0 1 2.28 2.48zm-1.82 0c0-1-.34-1.3-.95-1.3a1.56 1.56 0 0 0-1.17.58c0 1.57.31 2.18 1.1 2.18s1.02-.56 1.02-1.44zm75.36-8.08a1.81 1.81 0 0 0 .27 3.6c0 1.28-1.08 2.36-3 2.36a3.44 3.44 0 0 1-2.7-1.15l1-1a2.07 2.07 0 0 0 1.59.72c.74 0 1.26-.38 1.26-1.08s-.47-1.06-1.32-1.06h-.64l.21-1.22h.43c.71 0 1.16-.35 1.16-1s-.42-.86-1.07-.86a2.28 2.28 0 0 0-1.54.65l-.9-1a3.76 3.76 0 0 1 2.64-1c1.69.09 2.61.96 2.61 2.04zm6.75-2.25l-7.36 14.38-1.39-.68 7.36-14.39zm3.5 10.33a2.71 2.71 0 0 1-2.84 2.78c-2.11 0-3-1.48-3-3.64 0-2.58 1.29-4.27 3.42-4.27a3.08 3.08 0 0 1 1.78.51l-.65 1.08a2.27 2.27 0 0 0-1.1-.31c-.91 0-1.49.74-1.58 2.09a2.29 2.29 0 0 1 1.69-.72 2.22 2.22 0 0 1 2.28 2.48zm-1.82 0c0-1-.34-1.3-.95-1.3a1.56 1.56 0 0 0-1.17.58c0 1.57.3 2.18 1.1 2.18s1.03-.56 1.03-1.44zm75.82-3.94h-.9v1.62h-1.71v-1.62h-3.4v-1.21l2.25-4.88 1.51.56-1.9 4.2h1.56l.27-1.78h1.44v1.8h.9zm6.3-6.39l-7.36 14.38-1.39-.68 7.36-14.39zm3.51 10.33A2.71 2.71 0 0 1 469 848c-2.1 0-3-1.48-3-3.64 0-2.58 1.29-4.27 3.42-4.27a3.1 3.1 0 0 1 1.78.51l-.65 1.08a2.27 2.27 0 0 0-1.1-.31c-.92 0-1.49.74-1.58 2.09a2.29 2.29 0 0 1 1.69-.72 2.22 2.22 0 0 1 2.25 2.51zm-1.82 0c0-1-.34-1.3-.95-1.3a1.55 1.55 0 0 0-1.17.58c0 1.57.3 2.18 1.09 2.18s1.04-.56 1.04-1.44zm75.01-8.6h-2.93v1.58a2.92 2.92 0 0 1 1.22-.27 2.23 2.23 0 0 1 2.27 2.47c0 1.6-1.21 2.7-3.08 2.7a3.39 3.39 0 0 1-2.63-1.15l1.05-1a1.86 1.86 0 0 0 1.51.74 1.19 1.19 0 0 0 1.3-1.33c0-.94-.47-1.24-1.12-1.24a1.92 1.92 0 0 0-1 .27h-1.26v-4.07h4.83zm7.1-1.73l-7.37 14.38-1.38-.68 7.36-14.39zm3.51 10.33a2.71 2.71 0 0 1-2.85 2.78c-2.1 0-3-1.48-3-3.64 0-2.58 1.3-4.27 3.42-4.27a3.11 3.11 0 0 1 1.79.51l-.65 1.08a2.3 2.3 0 0 0-1.1-.31c-.92 0-1.49.74-1.58 2.09a2.29 2.29 0 0 1 1.69-.72 2.23 2.23 0 0 1 2.28 2.48zm-1.82 0c0-1-.34-1.3-1-1.3a1.58 1.58 0 0 0-1.17.58c0 1.57.31 2.18 1.1 2.18s1.07-.56 1.07-1.44zm77.68-4.89a2.7 2.7 0 0 1-2.85 2.77c-2.1 0-3-1.48-3-3.64 0-2.57 1.29-4.27 3.42-4.27a3.1 3.1 0 0 1 1.78.51l-.65 1.08a2.27 2.27 0 0 0-1.1-.31c-.92 0-1.49.74-1.58 2.09a2.33 2.33 0 0 1 1.69-.72 2.23 2.23 0 0 1 2.29 2.49zm-1.82 0c0-1-.34-1.29-.95-1.29a1.57 1.57 0 0 0-1.17.57c0 1.57.3 2.18 1.09 2.18s1.03-.56 1.03-1.45zm8.25-5.44l-7.37 14.38-1.39-.68 7.37-14.39zm3.5 10.33a2.7 2.7 0 0 1-2.84 2.78c-2.11 0-3-1.48-3-3.64 0-2.58 1.3-4.27 3.42-4.27a3.08 3.08 0 0 1 1.78.51l-.64 1.08a2.33 2.33 0 0 0-1.1-.31c-.92 0-1.5.74-1.59 2.09a2.31 2.31 0 0 1 1.7-.72 2.22 2.22 0 0 1 2.27 2.48zm-1.81 0c0-1-.35-1.3-1-1.3a1.56 1.56 0 0 0-1.17.58c0 1.57.31 2.18 1.1 2.18s1.07-.56 1.07-1.44z" class="e5f3def9-5003-43e8-a20e-96f0619faa91" transform="translate(-.67)"/><path d="M129.55 17.86h6.65l-.36 2.59h-9.46V3.86h3.17zm18.63-2.81h-8c.24 2.59 1.44 3.43 3.12 3.43a5.25 5.25 0 0 0 3.16-1.13l1.28 1.75a7.31 7.31 0 0 1-4.71 1.71c-3.93 0-6.05-2.62-6.05-6.63 0-3.86 2-6.79 5.64-6.79s5.6 2.4 5.6 6.41c.03.41-.02.91-.04 1.25zm-3-2.14c0-2.09-.75-3.34-2.47-3.34-1.44 0-2.36 1-2.52 3.48h5zm9.26-6.5v1.34h2.35l-.34 2.25h-2v10.45h-3.07V10h-2.08V7.75h2.07V6.36c0-2.31 1.53-4 4.46-4a8.2 8.2 0 0 1 2.06.28l-.57 2.21a4.47 4.47 0 0 0-1.18-.17c-1.25-.03-1.7.53-1.7 1.73zm12.17 13.44a5.58 5.58 0 0 1-3.2 1c-2.49 0-3.81-1.44-3.81-4.15V10h-2V7.75h2V4.94l3.07-.36v3.17h3l-.36 2.25h-2.64v6.62c0 1.25.41 1.75 1.34 1.75a3.08 3.08 0 0 0 1.52-.45zm.16-8.14H174v2.45h-7.25zM186.26 13h-5.9v7.42h-3.17V3.86h3.17v6.65h5.9V3.86h3.19v16.59h-3.19zm17.23 5.72l-.64 2a2.85 2.85 0 0 1-2.85-1.81 4.38 4.38 0 0 1-3.82 1.9 3.77 3.77 0 0 1-4.08-3.92c0-2.76 2.07-4.24 5.76-4.24h1.61v-.72c0-1.66-.74-2.21-2.38-2.21a11.69 11.69 0 0 0-3.38.67l-.7-2.09a13.09 13.09 0 0 1 4.59-.91c3.41 0 4.89 1.56 4.89 4.37v5.33c.04 1.03.38 1.39 1 1.63zm-4-1.71v-2.56h-1.27c-2 0-3 .72-3 2.21a1.68 1.68 0 0 0 1.8 1.92 2.75 2.75 0 0 0 2.49-1.58zm17.08-5.76v9.2h-3.07v-8.72c0-1.58-.6-2-1.56-2s-1.92.75-2.66 1.92v8.84h-3.07V7.75h2.66l.24 1.66a4.72 4.72 0 0 1 3.86-2c2.28-.02 3.6 1.42 3.6 3.84zm14.07-8.59v17.79h-2.71l-.22-1.61a4.25 4.25 0 0 1-3.62 2c-3.17 0-4.83-2.67-4.83-6.7s2-6.72 5.11-6.72a4.45 4.45 0 0 1 3.2 1.37V2.33zm-3.07 14.19V11a3.07 3.07 0 0 0-2.43-1.35c-1.58 0-2.64 1.35-2.64 4.4 0 3.26.94 4.39 2.45 4.39a3 3 0 0 0 2.62-1.59zM252 9.14c0 3.82-2.76 5.52-6.51 5.52h-1.94v5.79h-3.17V3.86h4.9c4.17 0 6.72 1.71 6.72 5.28zm-3.31 0c0-2.09-1.28-2.95-3.44-2.95h-1.7v6.1h1.7c2.12 0 3.44-.72 3.44-3.15zm15.09 9.58l-.65 2a2.85 2.85 0 0 1-2.8-1.85 4.39 4.39 0 0 1-3.82 1.9 3.77 3.77 0 0 1-4.08-3.92c0-2.76 2.06-4.24 5.76-4.24h1.61v-.72c0-1.66-.75-2.21-2.38-2.21a11.63 11.63 0 0 0-3.38.67l-.7-2.09a13.09 13.09 0 0 1 4.59-.91c3.4 0 4.89 1.56 4.89 4.37v5.33c0 1.07.34 1.43.96 1.67zm-4-1.71v-2.56h-1.27c-2 0-3 .72-3 2.21a1.68 1.68 0 0 0 1.8 1.92A2.75 2.75 0 0 0 259.8 17zm17.75-8.59a11.29 11.29 0 0 1-3.67.43 3.35 3.35 0 0 1 2.31 3.27c0 2.47-1.92 4.27-5.12 4.27a5.25 5.25 0 0 1-1.51-.19 1.16 1.16 0 0 0-.53.93c0 .46.27.89 1.54.89h1.94c2.81 0 4.64 1.52 4.64 3.6 0 2.55-2.19 4.06-6.34 4.06-4.51 0-5.78-1.44-5.78-4h2.76c0 1.27.55 1.82 3.07 1.82s3.19-.67 3.19-1.68-.74-1.51-2.16-1.51H270c-2.55 0-3.63-1.13-3.63-2.45a2.87 2.87 0 0 1 1.49-2.35 3.71 3.71 0 0 1-2.28-3.51c0-2.76 2.19-4.56 5.26-4.56A10.29 10.29 0 0 0 276.77 6zm-8.85 3.48a2.2 2.2 0 0 0 2.25 2.5c1.47 0 2.26-.91 2.26-2.52s-.77-2.4-2.3-2.4a2.15 2.15 0 0 0-2.21 2.42zm20.93 3.15h-8c.24 2.59 1.44 3.43 3.12 3.43a5.28 5.28 0 0 0 3.17-1.13l1.27 1.75a7.31 7.31 0 0 1-4.71 1.71c-3.93 0-6-2.62-6-6.63 0-3.86 2-6.79 5.64-6.79s5.59 2.4 5.59 6.41c-.01.41-.06.91-.08 1.25zm-3-2.14c0-2.09-.74-3.34-2.47-3.34-1.44 0-2.35 1-2.52 3.48h5zm17.18-11.59a16.71 16.71 0 0 0-3.38 10.73 16.77 16.77 0 0 0 3.38 10.73l-2 1.32c-2.37-3.32-4.56-6.34-4.56-12s2.19-8.74 4.56-12zm8.28 19.13h-3.72l-2.66-16.59H309l1.61 13.78L316 3.86h3.24zm9.05-4.66c.07 2 1.08 2.64 2.47 2.64a5.46 5.46 0 0 0 3.31-1.18l1.18 1.92a8.19 8.19 0 0 1-4.83 1.64c-3.45 0-5.23-2.07-5.23-5.28 0-3.46 1.8-8.14 6.91-8.14 2.91 0 4.4 1.56 4.4 3.36 0 3.58-4.04 4.61-8.21 5.04zm5.09-4.92a1.28 1.28 0 0 0-1.44-1.3c-2.19 0-3.17 2.14-3.51 4.18 3.41-.31 4.95-1.25 4.95-2.88zm13.65-3.26l-.89 3a3.65 3.65 0 0 0-1.05-.15c-1.61 0-2.57 1.52-3.36 3.77l-.89 6.27h-3l1.77-12.7H335l-.1 2.47c.94-1.87 2.23-2.81 3.65-2.81a4.28 4.28 0 0 1 1.31.15zM349.53 9l-1.39 1.7a5.23 5.23 0 0 0-3.05-1c-1.32 0-2.06.5-2.06 1.34s.65 1.11 2.5 1.71c2.25.72 3.43 1.82 3.43 3.82 0 2.56-2.16 4.27-5.52 4.27a6.89 6.89 0 0 1-5-2l1.56-1.66a5.21 5.21 0 0 0 3.48 1.32c1.73 0 2.38-.86 2.38-1.63 0-1-.58-1.34-2.6-2-2.3-.74-3.31-1.77-3.31-3.6s1.71-3.86 5.11-3.86A6.54 6.54 0 0 1 349.53 9zm1.32 6.46c0-3.37 1.68-8.07 6.84-8.07 3.29 0 5.12 2.06 5.12 5.33s-1.66 8.09-6.84 8.09c-3.29 0-5.12-2.04-5.12-5.35zm8.81-3c0-1.92-.72-2.76-2.14-2.76-2.85 0-3.55 3.82-3.55 6 0 1.92.75 2.78 2.16 2.78 2.87 0 3.53-3.84 3.53-6zm11.52-3.05c0 6.29-2.35 10.05-6.33 14.73L363 22.75c3.5-4.29 5.14-8.42 5.14-13.7a15.1 15.1 0 0 0-2.07-7.85l2-1.18c1.65 2.71 3.11 5.31 3.11 9.39zM15.55 128.14c0 5.48-2.8 8.67-7.25 8.67s-7.3-3.1-7.3-8.64 2.83-8.67 7.27-8.67 7.28 3.1 7.28 8.64zm-11.18 0c0 4.46 1.51 6.21 3.93 6.21s3.92-1.75 3.92-6.24-1.42-6.21-3.92-6.21-3.93 1.8-3.93 6.27zm24.12 8.31h-2.66l-.17-1.78a4.29 4.29 0 0 1-3.89 2.14c-2.31 0-3.53-1.49-3.53-3.94v-9.12h3.07v8.74c0 1.48.48 2 1.54 2a3.1 3.1 0 0 0 2.57-1.8v-8.93h3.07zm10.92-.6a5.54 5.54 0 0 1-3.19 1c-2.5 0-3.82-1.44-3.82-4.15V126h-2v-2.21h2v-2.81l3.07-.36v3.17h3l-.36 2.21h-2.64v6.62c0 1.25.41 1.75 1.35 1.75a3 3 0 0 0 1.51-.45zm10.25-10.95l-1.2 1.8a5.83 5.83 0 0 0-3.2-1c-1.22 0-1.92.5-1.92 1.27s.51 1.23 2.67 1.83c2.59.69 4.06 1.75 4.06 4 0 2.64-2.45 4-5.36 4a7.44 7.44 0 0 1-5.06-1.8l1.53-1.73a5.78 5.78 0 0 0 3.46 1.25c1.37 0 2.26-.58 2.26-1.54s-.51-1.39-2.88-2.06c-2.62-.72-3.77-2-3.77-3.84 0-2.12 1.94-3.7 4.89-3.7a7.19 7.19 0 0 1 4.52 1.52zm6.26-5.71a1.93 1.93 0 1 1-1.92-1.87 1.84 1.84 0 0 1 1.92 1.87zm-.38 17.26h-3.08v-12.7h3.08zm14.21-17.79v17.79H67l-.21-1.61a4.26 4.26 0 0 1-3.63 2c-3.17 0-4.82-2.67-4.82-6.7s2-6.72 5.11-6.72a4.43 4.43 0 0 1 3.19 1.37v-6.43zm-3.08 14.19V127a3 3 0 0 0-2.42-1.35c-1.59 0-2.64 1.35-2.64 4.4 0 3.26.93 4.39 2.45 4.39a3 3 0 0 0 2.61-1.59zm17.07-1.8h-8c.24 2.59 1.44 3.43 3.12 3.43a5.28 5.28 0 0 0 3.17-1.13l1.27 1.75a7.31 7.31 0 0 1-4.71 1.71c-3.93 0-6-2.62-6-6.63s2-6.79 5.64-6.79 5.59 2.4 5.59 6.41c-.01.41-.06.91-.08 1.25zm-3-2.14c0-2.09-.74-3.34-2.47-3.34-1.44 0-2.35 1-2.52 3.48h5zm-63.07 36.34h-3.1l-.43-6.94c-.15-2.45-.27-5-.22-6.77l-3 11.91h-3l-3.24-11.93a63.9 63.9 0 0 1-.1 6.89l-.4 6.84H1.1l1.32-16.59H6.5l3 11.62 2.78-11.62h4.13zm13.22-1.73l-.65 2a2.85 2.85 0 0 1-2.81-1.85 4.37 4.37 0 0 1-3.81 1.9 3.77 3.77 0 0 1-4.08-3.92c0-2.76 2.06-4.24 5.76-4.24h1.6v-.72c0-1.66-.74-2.21-2.37-2.21a11.68 11.68 0 0 0-3.39.67l-.69-2.09a13.08 13.08 0 0 1 4.58-.91c3.41 0 4.9 1.56 4.9 4.37v5.33c0 1.07.33 1.43.96 1.67zm-4-1.71v-2.56h-1.26c-2 0-3 .72-3 2.21a1.68 1.68 0 0 0 1.8 1.92 2.74 2.74 0 0 0 2.47-1.57zm14.25-9.43l-.53 3a4 4 0 0 0-1.13-.15c-1.54 0-2.33 1.13-2.81 3.27v6.77H33.6v-12.7h2.66l.29 2.5c.6-1.83 1.83-2.84 3.31-2.84a4.45 4.45 0 0 1 1.28.15zm12.65.84a11.35 11.35 0 0 1-3.68.43 3.35 3.35 0 0 1 2.31 3.27c0 2.47-1.92 4.27-5.12 4.27a5.25 5.25 0 0 1-1.51-.19 1.15 1.15 0 0 0-.53.93c0 .46.27.89 1.54.89h2c2.8 0 4.63 1.51 4.63 3.6 0 2.55-2.19 4.06-6.34 4.06-4.51 0-5.78-1.44-5.78-4H44c0 1.27.55 1.82 3.07 1.82s3.19-.67 3.19-1.68-.74-1.51-2.16-1.51h-1.9c-2.54 0-3.62-1.13-3.62-2.45a2.86 2.86 0 0 1 1.48-2.35 3.71 3.71 0 0 1-2.23-3.58c0-2.76 2.19-4.56 5.26-4.56a10.29 10.29 0 0 0 5.91-1.4zm-8.86 3.48a2.2 2.2 0 0 0 2.25 2.5c1.47 0 2.26-.91 2.26-2.52s-.77-2.4-2.3-2.4a2.16 2.16 0 0 0-2.21 2.42zM59 148a1.93 1.93 0 1 1-1.94-1.87A1.84 1.84 0 0 1 59 148zm-.38 17.26h-3.04v-12.7h3.08zm14-9.21v9.2h-3.07v-8.72c0-1.58-.6-2-1.56-2s-1.92.75-2.66 1.92v8.84h-3.07v-12.7h2.66l.24 1.66a4.72 4.72 0 0 1 3.86-2c2.28-.06 3.6 1.38 3.6 3.8zM7.2 174.92a18.72 18.72 0 0 0 0 21.46l-2 1.32c-2.37-3.32-4.56-6.34-4.56-12s2.19-8.74 4.56-12.05zM20 180h-4.28v14.07h-3.19V180H8.06v-2.52h12.32zm12.67 4.85v9.2h-3.08v-8.72c0-1.58-.62-2-1.56-2s-1.92.75-2.66 1.9v8.86H22.3v-17.8l3.07-.32v6.89a4.57 4.57 0 0 1 3.69-1.86c2.26 0 3.61 1.45 3.61 3.85zm13.55 9.2h-2.66l-.17-1.78a4.27 4.27 0 0 1-3.89 2.14c-2.3 0-3.52-1.49-3.52-3.94v-9.12h3.07v8.74c0 1.48.48 2 1.53 2a3.09 3.09 0 0 0 2.57-1.8v-8.93h3.07zm20.43-9.2v9.2h-3.07v-8.72c0-1.58-.63-2-1.4-2-1 0-1.7.75-2.4 1.92v8.84h-3.07v-8.72c0-1.58-.65-2-1.39-2-1.08 0-1.73.75-2.42 1.92v8.84h-3.08v-12.7h2.67l.24 1.66a4.28 4.28 0 0 1 3.67-2 3.09 3.09 0 0 1 3.07 2.14 4.53 4.53 0 0 1 3.82-2.23c2.01 0 3.36 1.45 3.36 3.85zm14.73 2.84c0 4-1.89 6.72-5 6.72a4.19 4.19 0 0 1-3.38-1.66l-.19 1.3H70.1v-17.79l3.07-.33v6.86a4.24 4.24 0 0 1 3.51-1.8c2.95.01 4.7 2.45 4.7 6.7zm-3.21 0c0-3.39-1-4.4-2.47-4.4a3.07 3.07 0 0 0-2.53 1.71v5.62a2.79 2.79 0 0 0 2.36 1.46c1.56.02 2.64-1.2 2.64-4.39zm9.09 4.77a1.94 1.94 0 1 1-1.94-1.94 1.92 1.92 0 0 1 1.94 1.94zm-.67-4.27H84l-.38-10.73H87zm8.74-2.54c0 5.71-2.16 8.73-4.56 12l-2-1.32a18.68 18.68 0 0 0 0-21.46l2-1.32c2.4 3.36 4.56 6.38 4.56 12.1z" class="aaff58af-5a7c-4b8f-843f-54f3aba7079f" transform="translate(-.67)"/><path d="M169.96 136.45v684" class="adc12002-db74-441e-b4f1-51a13c9c0ccd"/><path d="M243.76 136.45v4" class="e68b3a70-f796-4d7a-b86c-a27dd79ad0c3"/><path d="M243.76 148.4v664.07" class="b5649dc2-1ae8-4d11-a2dd-d5ee18140a98"/><path d="M243.76 816.45v4m8-684v4" class="e68b3a70-f796-4d7a-b86c-a27dd79ad0c3"/><path d="M251.76 148.4v664.07" class="b5649dc2-1ae8-4d11-a2dd-d5ee18140a98"/><path d="M251.76 816.45v4" class="e68b3a70-f796-4d7a-b86c-a27dd79ad0c3"/><path d="M326.05 136.45v684m8-684v684" class="adc12002-db74-441e-b4f1-51a13c9c0ccd"/><path d="M408.35 136.45v4" class="e68b3a70-f796-4d7a-b86c-a27dd79ad0c3"/><path d="M408.35 148.4v664.07" class="b5649dc2-1ae8-4d11-a2dd-d5ee18140a98"/><path d="M408.35 816.45v4m8-684v4" class="e68b3a70-f796-4d7a-b86c-a27dd79ad0c3"/><path d="M416.35 148.4v664.07" class="b5649dc2-1ae8-4d11-a2dd-d5ee18140a98"/><path d="M416.35 816.45v4" class="e68b3a70-f796-4d7a-b86c-a27dd79ad0c3"/><path d="M490.65 136.45v684m8-684v684" class="adc12002-db74-441e-b4f1-51a13c9c0ccd"/><path d="M572.95 136.45v4" class="e68b3a70-f796-4d7a-b86c-a27dd79ad0c3"/><path d="M572.95 148.4v664.07" class="b5649dc2-1ae8-4d11-a2dd-d5ee18140a98"/><path d="M572.95 816.45v4m8-684v4" class="e68b3a70-f796-4d7a-b86c-a27dd79ad0c3"/><path d="M580.95 148.4v664.07" class="b5649dc2-1ae8-4d11-a2dd-d5ee18140a98"/><path d="M580.95 816.45v4" class="e68b3a70-f796-4d7a-b86c-a27dd79ad0c3"/><path d="M169.96 251.45h484.79m-484.79-8h484.79m-484.79 123.5h484.79m-484.79-8h484.79m-484.79 123.5h484.79m-484.79-8h484.79m-484.79 123.5h484.79m-484.79-8h484.79m-484.79 123.5h484.79m-484.79-8h484.79" class="a54cc689-b519-4f97-8c1a-c1f012e6e52e"/><path d="M654.75 136.45v684m-484.79-684h484.79m-484.79 684h484.79" class="adc12002-db74-441e-b4f1-51a13c9c0ccd"/><path d="M252.01 597.7h73.8v107.5h-73.8zm-82.05-346h156.1v107.5h-156.1z" class="ec3c1bdc-7542-47dd-95ae-b77913bc276f"/><path d="M278.87 655.87h-2.27v-9.79l-2.7 1.63-1-1.54 3.94-2.42h2zm15.26 0h-2.66l-2-3.78-1.95 3.78H285l3.17-5-2.84-4.5H288l1.63 3.24 1.6-3.24h2.5l-2.73 4.41zm10.87 0h-2.3v-9.79l-2.7 1.63-1-1.54 3.94-2.42h2zm-65.8-354.93c0 2.05-1.17 3.55-4.91 7.11h5.18l-.25 1.82h-7.54v-1.69c4.14-4.22 5.15-5.35 5.15-7.06a1.64 1.64 0 0 0-1.75-1.77 2.87 2.87 0 0 0-2.34 1.28l-1.41-1.11a4.75 4.75 0 0 1 3.93-2c2.5.02 3.94 1.53 3.94 3.42zm14.55 8.93h-2.67l-2-3.78-2 3.78h-2.53l3.16-5-2.84-4.5h2.63l1.62 3.24 1.6-3.24h2.5l-2.75 4.42zm10.83 0h-2.27v-9.79l-2.7 1.63-1-1.54 3.95-2.42h2z" class="eb6788df-94a2-4aea-b8b2-b0c3a64f0a59" transform="translate(-.67)"/><path d="M334.3 251.7h156.1v223H334.3zm0 230.75h320.69v222.67H334.3z" class="ec3c1bdc-7542-47dd-95ae-b77913bc276f"/><path d="M403 358.69c0 2.05-1.18 3.55-4.92 7.11h5.19l-.26 1.82h-7.54v-1.69c4.14-4.22 5.15-5.35 5.15-7.06a1.63 1.63 0 0 0-1.75-1.77 2.9 2.9 0 0 0-2.34 1.28l-1.4-1.11a4.73 4.73 0 0 1 3.92-2c2.55.02 3.95 1.53 3.95 3.42zm14.58 8.93h-2.67l-2-3.78-1.91 3.78h-2.54l3.17-5-2.85-4.5h2.63l1.62 3.24 1.61-3.24h2.5l-2.76 4.42zm12.58-8.93c0 2.05-1.17 3.55-4.91 7.11h5.18l-.25 1.82h-7.54v-1.69c4.14-4.22 5.15-5.35 5.15-7.06a1.64 1.64 0 0 0-1.79-1.77 2.87 2.87 0 0 0-2.34 1.28l-1.41-1.11a4.75 4.75 0 0 1 3.93-2c2.54.02 3.98 1.53 3.98 3.42zm56.1 236.74h-1.46v2.77h-2.25v-2.77h-5.15v-1.58l3.53-8 2 .74-3.09 7.08h2.77l.23-3h2v3h1.46zm14 2.77h-2.66l-2-3.78-1.95 3.78h-2.54l3.17-5-2.84-4.5h2.63l1.62 3.24 1.6-3.24h2.5l-2.75 4.43zm12.59-8.93c0 2.06-1.17 3.55-4.92 7.12h5.19l-.26 1.81h-7.54v-1.69c4.14-4.21 5.15-5.35 5.15-7.06a1.63 1.63 0 0 0-1.75-1.76 2.87 2.87 0 0 0-2.34 1.28l-1.4-1.12a4.73 4.73 0 0 1 3.92-2c2.51.02 3.95 1.53 3.95 3.42z" class="eb6788df-94a2-4aea-b8b2-b0c3a64f0a59" transform="translate(-.67)"/></g></g></svg>