<svg xmlns="http://www.w3.org/2000/svg" viewBox="0 0 486.43 215.54" width="486.43" height="215.54"><defs><style>.ad6f5b8d-827f-481a-acf8-57a0342e90bf{fill:#231f20}.aea33891-4e65-47ff-b298-e4a38270ad43{fill:none;stroke:#00aeef;stroke-miterlimit:10;stroke-width:.5px}</style></defs><g id="aa20623d-e580-482a-8e7e-16ba329ccaba"><g id="a29d51b8-7498-4c19-8373-cb34a10b2d70"><path d="M486.43 180.32L486 179a7.58 7.58 0 0 1-3.29.9c-1.32 0-3.07-.8-3.07-5.09v-13.67h5.67a1.5 1.5 0 0 0 .32-2.07h-6v-7.26l-.74-.11-3.45 3.5v3.87H473l-1.43 1.54.22.53h3.65v15.42c0 4.19 1.86 6.31 5.2 6.31a5.34 5.34 0 0 0 2.22-.69zm-15.85-.69l-1.48-.1c-2-.11-2.44-.48-2.44-3.13v-17.7a57 57 0 0 1-8.32 1v1.22c3.81.53 4.13.74 4.13 3.77V177a8.24 8.24 0 0 1-5.72 2.55c-2.39 0-4.67-1.27-4.67-6v-7.1c0-3.61 0-6.1.16-7.74a62.54 62.54 0 0 1-7.58 1v1.22c3 .59 3.24.8 3.24 3.71V175c0 5.72 3 7.9 6.57 7.9a7.59 7.59 0 0 0 4.08-1.33c1.48-.9 2.7-1.85 3.92-2.75v3.76l.32.32a58.35 58.35 0 0 1 7.79-1.91zm-48.28-1.9a9 9 0 0 1-5.09 1.8c-3.39 0-7.26-3.08-7.26-9.38 0-7.69 4.45-9.75 6.89-9.75a6.57 6.57 0 0 1 5.46 2.7zm8.21 1.8l-1.69-.16c-2-.21-2.34-.48-2.34-3.23V144.5a50.16 50.16 0 0 1-8.26 1.85v1.27c3.81.27 4.08.43 4.08 3.92V159a12.1 12.1 0 0 0-3.5-.59c-7.21 0-13.67 5.78-13.67 13.15s5.56 11.29 9.8 11.29a9.32 9.32 0 0 0 4.14-1.54l3.23-1.91v3.45a55.22 55.22 0 0 1 8.21-2zM392.3 160.4c2.92 0 4.72 2.54 4.66 5.3 0 .74-.31 1.06-1.27 1.06-3.07.1-6 .15-8.95.15.79-4.29 3.12-6.51 5.56-6.51m8.11 16.21a8.62 8.62 0 0 1-6 2.65c-3.71 0-7.85-3-7.9-10.17 6.31-.21 12.93-.74 13.83-.9s1.22-.64 1.22-1.7a8.21 8.21 0 0 0-7.95-8.06 10.79 10.79 0 0 0-7.79 3.87 13.68 13.68 0 0 0-3.5 9.28c0 6 3.82 11.29 10.34 11.29 1.64 0 5.3-1 8.64-5.14zm-23-11.6a38.75 38.75 0 0 0-1.17-5.67 12.15 12.15 0 0 0-4.71-.91c-4.88 0-8.06 3.13-8.06 6.84 0 4.08 3.44 5.83 6.63 7.32 2.64 1.21 4.18 2.49 4.18 4.82a3.7 3.7 0 0 1-3.76 3.71c-3.18 0-5.57-3.08-6.52-6.57l-1.38.26a25.12 25.12 0 0 0 .85 6.26 10.67 10.67 0 0 0 6.1 1.8c4.23 0 8.74-2.49 8.74-7.32 0-3.65-2.7-5.56-6.68-7.2-2.38-1-4.5-2.23-4.5-4.62a3.45 3.45 0 0 1 3.44-3.65c2.6 0 4.45 2.12 5.46 5.24zm-27.51-4.61c2.92 0 4.72 2.54 4.67 5.3 0 .74-.32 1.06-1.28 1.06-3.07.1-6 .15-9 .15.79-4.29 3.12-6.51 5.56-6.51m8.15 16.21a8.62 8.62 0 0 1-6 2.65c-3.71 0-7.85-3-7.9-10.17 6.31-.21 12.93-.74 13.83-.9s1.22-.64 1.22-1.7a8.21 8.21 0 0 0-7.95-8.06 10.81 10.81 0 0 0-7.79 3.87 13.68 13.68 0 0 0-3.5 9.28c0 6 3.82 11.29 10.34 11.29 1.64 0 5.3-1 8.64-5.14zm-20.88 5.62v-1.38c-3.39-.31-3.82-.63-3.82-4.13V144.5a41.25 41.25 0 0 1-7.84 1.85v1.27c3.34.27 3.66.43 3.66 4v25.07c0 3.5-.48 3.82-3.82 4.13v1.38zm-22.94-21.83c2.92 0 4.72 2.54 4.67 5.3 0 .74-.32 1.06-1.28 1.06-3.07.1-6 .15-8.95.15.79-4.29 3.12-6.51 5.56-6.51m8.11 16.21a8.62 8.62 0 0 1-6 2.65c-3.71 0-7.85-3-7.9-10.17 6.31-.21 12.93-.74 13.83-.9s1.22-.64 1.22-1.7a8.21 8.21 0 0 0-7.95-8.06 10.79 10.79 0 0 0-7.79 3.87 13.68 13.68 0 0 0-3.5 9.28c0 6 3.82 11.29 10.34 11.29 1.64 0 5.3-1 8.64-5.14zm-28.89 1.12a9 9 0 0 1-5.08 1.8c-3.4 0-7.26-3.08-7.26-9.38 0-7.69 4.45-9.75 6.89-9.75a6.55 6.55 0 0 1 5.45 2.7zm8.22 1.8l-1.7-.16c-2-.21-2.33-.48-2.33-3.23V144.5a50.06 50.06 0 0 1-8.27 1.85v1.27c3.82.27 4.08.43 4.08 3.92V159a12 12 0 0 0-3.49-.59c-7.21 0-13.68 5.78-13.68 13.15s5.57 11.29 9.81 11.29a9.34 9.34 0 0 0 4.13-1.54l3.23-1.91v3.45a55.27 55.27 0 0 1 8.22-2zm-28.25 2.7v-1.38c-3.39-.31-3.76-.63-3.76-4.24v-18.28a33.86 33.86 0 0 1-7.53 2.07v1.27c3.18.53 3.34.74 3.34 4v10.91c0 3.61-.37 3.93-3.71 4.24v1.38zm-6.2-28.41a2.71 2.71 0 0 0 2.7-2.7 2.65 2.65 0 0 0-2.65-2.76 2.73 2.73 0 0 0-2.7 2.76 2.77 2.77 0 0 0 2.65 2.7m-25.33 10c1.43-1.06 3.6-2.23 5.3-2.23 3.87 0 7.1 3.18 7.1 8.86 0 6-3 9.8-7.42 9.8a7.32 7.32 0 0 1-5-2.07zm0-1.75v-4.17a39.77 39.77 0 0 1-7.69 2.28v1.28c3.29.42 3.5.53 3.5 4v24c0 3.49-.48 3.81-3.87 4.13V195h12.56v-1.43c-4.13-.37-4.5-.64-4.5-4.66v-7a9.15 9.15 0 0 0 3.65 1c6.89-1.27 13.2-6.42 13.2-14.42 0-5.25-3.5-10-9.38-10a6 6 0 0 0-2.6.8zm-9.17 20.14v-1.38c-3.39-.31-3.77-.63-3.77-4.24v-18.26a33.92 33.92 0 0 1-7.52 2.07v1.27c3.18.53 3.34.74 3.34 4v10.91c0 3.61-.37 3.93-3.71 4.24v1.38zm-6.2-28.41a2.71 2.71 0 0 0 2.7-2.7 2.66 2.66 0 0 0-2.65-2.76 2.73 2.73 0 0 0-2.7 2.76 2.77 2.77 0 0 0 2.65 2.7m-16 23.91a9 9 0 0 1-5.08 1.8c-3.4 0-7.27-3.08-7.27-9.38 0-7.69 4.46-9.75 6.89-9.75a6.56 6.56 0 0 1 5.46 2.7zm8.22 1.8l-1.7-.16c-2-.21-2.33-.48-2.33-3.23V144.5a50.06 50.06 0 0 1-8.27 1.85v1.27c3.82.27 4.08.43 4.08 3.92V159a12 12 0 0 0-3.49-.59c-7.21 0-13.68 5.78-13.68 13.15s5.57 11.29 9.81 11.29a9.34 9.34 0 0 0 4.13-1.54l3.23-1.91v3.45a55.27 55.27 0 0 1 8.22-2zm-40.28 2.7v-1.38c-3.39-.31-3.76-.63-3.76-4.24v-18.26a34.16 34.16 0 0 1-7.53 2.07v1.27c3.18.53 3.34.74 3.34 4v10.91c0 3.61-.37 3.93-3.71 4.24v1.38zm-6.2-28.41a2.71 2.71 0 0 0 2.7-2.7 2.65 2.65 0 0 0-2.65-2.76 2.73 2.73 0 0 0-2.7 2.76 2.77 2.77 0 0 0 2.65 2.7m-15.91 23.93a9 9 0 0 1-5.09 1.8c-3.39 0-7.26-3.08-7.26-9.38 0-7.69 4.45-9.75 6.89-9.75a6.58 6.58 0 0 1 5.46 2.7zm8.21 1.8l-1.69-.16c-2-.21-2.34-.48-2.34-3.23V144.5a50.06 50.06 0 0 1-8.27 1.85v1.27c3.82.27 4.09.43 4.09 3.92V159a12.1 12.1 0 0 0-3.5-.59c-7.21 0-13.68 5.78-13.68 13.15s5.57 11.29 9.81 11.29a9.26 9.26 0 0 0 4.13-1.54l3.24-1.91v3.45a55.22 55.22 0 0 1 8.21-2zm-28.46 2.7v-1.38c-3.07-.31-3.34-.53-3.34-4.13v-10.23c0-5.14-2.65-8.06-6.84-8.06a8.2 8.2 0 0 0-4.4 1.59c-1.32.91-2.49 1.7-3.55 2.5v-4.24a32 32 0 0 1-7.36 2.17v1.22c2.86.53 3.18.69 3.18 4.08v11c0 3.5-.27 3.76-3.87 4.13v1.38h11.5v-1.38c-3.13-.31-3.45-.53-3.45-4.13v-12.49c1.59-1.37 3.66-2.7 5.78-2.7 3.55 0 4.82 2.39 4.82 6v8.85c0 3.66-.37 4.09-3.49 4.4v1.38zm-35.93-4.45a7.69 7.69 0 0 1-4.24 1.91 3.88 3.88 0 0 1-3.77-4.08c0-1.91 1.17-2.92 3.24-3.87 1.11-.53 3.65-1.65 4.77-2.23zm8.37 2.38l-.53-1.37a4.1 4.1 0 0 1-1.91.58c-.9 0-1.85-.8-1.85-3.18v-9.86c0-2.75-.53-4.93-2.39-6.46a6.85 6.85 0 0 0-4.34-1.44 23.68 23.68 0 0 0-8 3.71c-1 .75-1.7 1.33-1.7 2.12a2.59 2.59 0 0 0 2.33 2.28 1.48 1.48 0 0 0 1.54-1.22 7.62 7.62 0 0 1 1.59-3.49 3 3 0 0 1 2.38-1.06c2.65 0 4.46 2.17 4.46 6v1c-1.17.95-5 2.38-8.22 3.44-2.91 1-4.29 2.65-4.29 5.25a6.4 6.4 0 0 0 6.44 6.41c1.59 0 4.13-2 6.25-3.39a5.63 5.63 0 0 0 1.27 2.38 4.36 4.36 0 0 0 2.5 1zM82.73 165a40.1 40.1 0 0 0-1.16-5.67 12.25 12.25 0 0 0-4.72-.91c-4.88 0-8.06 3.13-8.06 6.84 0 4.08 3.45 5.83 6.63 7.32 2.65 1.21 4.19 2.49 4.19 4.82a3.71 3.71 0 0 1-3.77 3.71c-3.18 0-5.56-3.08-6.52-6.57l-1.37.26a25.19 25.19 0 0 0 .84 6.26 10.72 10.72 0 0 0 6.1 1.8c4.24 0 8.74-2.49 8.74-7.32 0-3.65-2.7-5.56-6.67-7.2-2.39-1-4.51-2.23-4.51-4.62a3.46 3.46 0 0 1 3.45-3.65c2.59 0 4.45 2.12 5.45 5.24zm-17.49 14.63l-1.48-.1c-2-.11-2.44-.48-2.44-3.13v-17.7a56.86 56.86 0 0 1-8.32 1v1.22c3.82.53 4.13.74 4.13 3.77V177a8.22 8.22 0 0 1-5.72 2.55c-2.39 0-4.66-1.27-4.66-6v-7.1c0-3.61 0-6.1.15-7.74a62.38 62.38 0 0 1-7.57 1v1.22c3 .59 3.23.8 3.23 3.71V175c0 5.72 3 7.9 6.57 7.9a7.59 7.59 0 0 0 4.08-1.33c1.49-.9 2.7-1.85 3.92-2.75v3.76l.32.32a58.73 58.73 0 0 1 7.79-1.9zm-29.52-3.28c-2.44 2.28-4.18 2.91-6.46 2.91-3 0-8-2.43-8-9.8 0-5.57 3.08-8.48 6.58-8.48a7.71 7.71 0 0 1 5.3 2.17c.47.43.74.58 1 .58a2.57 2.57 0 0 0 1.75-2.27 2 2 0 0 0-.85-1.65 7.86 7.86 0 0 0-4.71-1.38 14 14 0 0 0-8 3A12.75 12.75 0 0 0 17 171.79c0 5.67 3.93 11.08 10.6 11.08 3.13 0 6.68-2.33 9-5.41zm400.09-79.77c4.61 0 7.1 5 7.1 11.24 0 7.26-2.7 9.7-6 9.7-4.34 0-7.26-5-7.26-11.66 0-6 2.87-9.28 6.15-9.28m.53-1.75c-4.82 0-11.61 4-11.61 12.72a11.48 11.48 0 0 0 11.61 11.72c5.25 0 11.5-4.08 11.5-12.62a11.5 11.5 0 0 0-11.5-11.82m-22.95 5.62v-5.77a30.24 30.24 0 0 1-7.47 2.17V98c3 .43 3.29.64 3.29 4.14v11c0 3.5-.38 3.82-3.66 4.13v1.38h12.19v-1.38c-4.08-.31-4.35-.63-4.35-4.13v-9.7c1.17-3 2.86-4.56 4.24-4.56a2.84 2.84 0 0 1 2.23 1.12 1.23 1.23 0 0 0 1.43.1 2.74 2.74 0 0 0-1.38-5.25c-2.54 0-4.82 3-6.41 5.62zm-20.13-3.65c2.92 0 4.72 2.54 4.67 5.3 0 .74-.32 1.06-1.27 1.06-3.08.1-6 .15-9 .15.79-4.29 3.13-6.51 5.56-6.51m8.15 16.2a8.62 8.62 0 0 1-6 2.65c-3.71 0-7.84-3-7.9-10.17 6.31-.21 12.94-.74 13.84-.9s1.22-.64 1.22-1.7a8.22 8.22 0 0 0-8-8.06 10.81 10.81 0 0 0-7.8 3.87 13.67 13.67 0 0 0-3.49 9.28c0 6 3.81 11.29 10.33 11.29 1.64 0 5.3-1 8.64-5.14zm-29.47-12.56v-5.76a30.24 30.24 0 0 1-7.47 2.17V98c3 .43 3.29.64 3.29 4.14v11c0 3.5-.37 3.82-3.66 4.13v1.38h12.19v-1.38c-4.08-.31-4.35-.63-4.35-4.13v-9.7c1.17-3 2.87-4.56 4.24-4.56a2.84 2.84 0 0 1 2.23 1.12 1.24 1.24 0 0 0 1.43.1 3 3 0 0 0 1.7-2.6 3 3 0 0 0-3.08-2.65c-2.54 0-4.82 3-6.41 5.62zm-31.69 0v-5.76a30.24 30.24 0 0 1-7.47 2.17V98c3 .43 3.28.64 3.28 4.14v11c0 3.5-.37 3.82-3.65 4.13v1.38h12.19v-1.38c-4.08-.31-4.35-.63-4.35-4.13v-9.7c1.17-3 2.86-4.56 4.24-4.56a2.84 2.84 0 0 1 2.23 1.12 1.23 1.23 0 0 0 1.43.1 2.74 2.74 0 0 0-1.38-5.25c-2.54 0-4.82 3-6.41 5.62zM329.92 116l-1.48-.1c-2-.11-2.44-.48-2.44-3.13V95.1a57 57 0 0 1-8.32 1v1.22c3.81.53 4.13.74 4.13 3.77v12.34a8.22 8.22 0 0 1-5.72 2.55c-2.39 0-4.67-1.27-4.67-6v-7.1c0-3.61 0-6.1.16-7.74a62.54 62.54 0 0 1-7.58 1v1.22c3 .59 3.24.8 3.24 3.71v10.39c0 5.72 3 7.9 6.57 7.9a7.59 7.59 0 0 0 4.08-1.33c1.48-.9 2.7-1.85 3.92-2.75V119l.32.32a58.35 58.35 0 0 1 7.79-1.91zm-27.29.69l-.48-1.37a7.58 7.58 0 0 1-3.29.9c-1.32 0-3.07-.8-3.07-5.09V97.54h5.67a1.51 1.51 0 0 0 .32-2.07h-6v-7.26l-.74-.11-3.45 3.5v3.87h-2.44L287.73 97l.21.53h3.66V113c0 4.19 1.86 6.31 5.2 6.31a5.34 5.34 0 0 0 2.22-.69zm-23.48-2.54a7.69 7.69 0 0 1-4.24 1.91 3.88 3.88 0 0 1-3.77-4.08c0-1.91 1.17-2.92 3.24-3.87 1.11-.53 3.65-1.65 4.77-2.23zm8.37 2.38l-.53-1.37a4.1 4.1 0 0 1-1.91.58c-.9 0-1.85-.8-1.85-3.18v-9.86c0-2.75-.53-4.93-2.39-6.46a6.85 6.85 0 0 0-4.34-1.44 23.77 23.77 0 0 0-7.95 3.71c-1 .75-1.7 1.33-1.7 2.12a2.59 2.59 0 0 0 2.33 2.28 1.48 1.48 0 0 0 1.54-1.22 7.62 7.62 0 0 1 1.59-3.49 3 3 0 0 1 2.38-1.06c2.65 0 4.46 2.17 4.46 6v1c-1.17 1-5 2.38-8.22 3.44-2.91 1-4.29 2.65-4.29 5.25a6.4 6.4 0 0 0 6.36 6.47c1.59 0 4.13-2 6.25-3.39a5.63 5.63 0 0 0 1.27 2.38 4.36 4.36 0 0 0 2.5 1zm-33-16.11v-5.74a30.24 30.24 0 0 1-7.52 2.17V98c3 .43 3.29.64 3.29 4.14v11c0 3.5-.38 3.82-3.66 4.13v1.38h12.19v-1.38c-4.08-.31-4.35-.63-4.35-4.13v-9.7c1.17-3 2.86-4.56 4.24-4.56A2.84 2.84 0 0 1 261 100a1.23 1.23 0 0 0 1.43.1 2.74 2.74 0 0 0-1.43-5.27c-2.54 0-4.82 3-6.41 5.62zm-22.84 18.18v-1.38c-3-.31-3.44-.53-3.44-4.08v-10.2c0-5.19-2.6-8.11-6.73-8.11a7.33 7.33 0 0 0-4 1.38 49.54 49.54 0 0 0-4.4 3 6.33 6.33 0 0 0-5.88-4.35 7.88 7.88 0 0 0-4.35 1.44c-1.59 1-2.75 2-3.87 2.7v-4.32a32.58 32.58 0 0 1-7.36 2.17v1.22c3.07.47 3.23.74 3.23 4.13v11c0 3.45-.48 3.77-4 4.08v1.38h11.19v-1.38c-2.6-.31-3-.63-3-4.08v-12.48c1.59-1.33 3.65-2.76 5.77-2.76 3.24 0 4.61 2.17 4.61 6.1v9.11c0 3.5-.47 3.77-3.76 4.08v1.38H217v-1.38c-2.91-.31-3.39-.63-3.39-4v-10.31a12 12 0 0 0-.16-2.22c2-1.7 4-2.76 5.94-2.76 3.34 0 4.66 2.39 4.66 6.15V113c0 3.76-.58 4-3.71 4.29v1.38zm-50.4-4.45a7.66 7.66 0 0 1-4.24 1.91 3.88 3.88 0 0 1-3.77-4.08c0-1.91 1.17-2.92 3.24-3.87 1.11-.53 3.65-1.65 4.77-2.23zm8.37 2.38l-.53-1.37a4.1 4.1 0 0 1-1.91.58c-.9 0-1.85-.8-1.85-3.18v-9.86c0-2.75-.53-4.93-2.39-6.46a6.85 6.85 0 0 0-4.34-1.44 23.77 23.77 0 0 0-8 3.71c-1 .75-1.7 1.33-1.7 2.12a2.59 2.59 0 0 0 2.33 2.28 1.47 1.47 0 0 0 1.54-1.22 7.62 7.62 0 0 1 1.59-3.49 3 3 0 0 1 2.38-1.06c2.66 0 4.46 2.17 4.46 6v1c-1.17 1-5 2.38-8.22 3.44-2.91 1-4.29 2.65-4.29 5.25a6.4 6.4 0 0 0 6.36 6.47c1.59 0 4.13-2 6.25-3.39a5.63 5.63 0 0 0 1.27 2.38 4.36 4.36 0 0 0 2.5 1zm-25.76-15.15a40.1 40.1 0 0 0-1.16-5.67 12.21 12.21 0 0 0-4.72-.91c-4.87 0-8.06 3.13-8.06 6.84 0 4.08 3.45 5.83 6.63 7.32 2.65 1.21 4.19 2.49 4.19 4.82a3.71 3.71 0 0 1-3.77 3.71c-3.18 0-5.56-3.08-6.52-6.57l-1.37.26a25.19 25.19 0 0 0 .84 6.26 10.72 10.72 0 0 0 6.1 1.8c4.24 0 8.74-2.49 8.74-7.32 0-3.65-2.7-5.56-6.67-7.2-2.39-1-4.51-2.23-4.51-4.62a3.46 3.46 0 0 1 3.39-3.62c2.59 0 4.45 2.12 5.46 5.24zm-35.77-1.17c1.43-1.06 3.6-2.23 5.3-2.23 3.87 0 7.1 3.18 7.1 8.86 0 6-3 9.8-7.42 9.8a7.34 7.34 0 0 1-5-2.07zm0-1.75V94.3a39.89 39.89 0 0 1-7.68 2.28v1.28c3.28.42 3.49.53 3.49 4v24c0 3.49-.47 3.81-3.87 4.13v1.43h12.54v-1.43c-4.13-.37-4.5-.64-4.5-4.66v-7a9.16 9.16 0 0 0 3.66 1c6.89-1.33 13.24-6.48 13.24-14.48 0-5.25-3.49-10-9.38-10a5.93 5.93 0 0 0-2.59.8zm-9.17 20.14v-1.38c-3.39-.31-3.76-.63-3.76-4.24V94.73a33.86 33.86 0 0 1-7.53 2.07v1.27c3.18.53 3.34.74 3.34 4V113c0 3.61-.37 3.93-3.71 4.24v1.38zm-6.2-28.41a2.71 2.71 0 0 0 2.7-2.7 2.65 2.65 0 0 0-2.65-2.76 2.73 2.73 0 0 0-2.7 2.76 2.77 2.77 0 0 0 2.65 2.7m-8.85 22.53c-2.44 2.28-4.19 2.91-6.47 2.91-3 0-8-2.43-8-9.8 0-5.57 3.08-8.48 6.57-8.48a7.69 7.69 0 0 1 5.3 2.17c.48.43.75.58 1 .58a2.58 2.58 0 0 0 1.7-2.24 2 2 0 0 0-.85-1.65 7.92 7.92 0 0 0-4.72-1.38 14 14 0 0 0-8 3 12.75 12.75 0 0 0-5.3 10.39c0 5.67 3.92 11.08 10.6 11.08 3.13 0 6.68-2.33 9-5.41zM60.26 95.47h-10V94c0-3.71.74-6.2 1.59-7.53A4.41 4.41 0 0 1 56 84.18a6.93 6.93 0 0 1 5.83 3.39 14 14 0 0 0-1.06 2.71 15.88 15.88 0 0 0-.51 3.72zm22 23.16v-1.38c-3.4-.31-3.66-.63-3.66-3.92V94.78a52.25 52.25 0 0 1-9.91.69h-4.24v-2.12c0-3.82.58-6.68 1.64-8.06a4 4 0 0 1 3.55-2c2.65 0 4.14 1.91 5.25 3.13a1.14 1.14 0 0 0 1.69.16 4.63 4.63 0 0 0 1.22-1.33 1.73 1.73 0 0 0-.31-1.9 7.44 7.44 0 0 0-5.73-2.55A13.37 13.37 0 0 0 64 84.66c-.9-1.27-2.91-2.65-6.2-2.76a12.69 12.69 0 0 0-6.62 2.71 12.55 12.55 0 0 0-4.46 6 14.3 14.3 0 0 0-.58 3.82v1.06h-2.52L42.19 97l.21.53h3.71v15.58c0 3.6-.37 3.82-3.5 4.13v1.38h11.24v-1.32c-3.24-.37-3.55-.69-3.55-4.19V97.54h10v15.79c0 3.34-.32 3.61-3.39 3.92v1.38H68v-1.38c-3.18-.31-3.5-.63-3.5-3.92V97.54h7.26c2.6 0 2.7.42 2.7 2.81v13c0 3.34-.42 3.61-3.34 3.92v1.38zm-54.75-22c4.61 0 7.1 5 7.1 11.24 0 7.26-2.7 9.7-6 9.7-4.35 0-7.26-5-7.26-11.66 0-6 2.86-9.28 6.15-9.28m.5-1.8c-4.83 0-11.61 4-11.61 12.72A11.48 11.48 0 0 0 28 119.27c5.24 0 11.5-4.08 11.5-12.62A11.5 11.5 0 0 0 28 94.83M16.16 80.68c-3.33.85-6.89 3.13-6.89 6.89a5.2 5.2 0 0 0 5 5.36h.05a2.2 2.2 0 0 0 2.28-2c0-.69-.37-1-.69-1.06-1.8-.32-3.34-1.43-3.34-3.34 0-2.17 1.54-3.34 4.13-4.45zm-9.27 0C3.55 81.53 0 83.81 0 87.57a5.2 5.2 0 0 0 5 5.36 2.19 2.19 0 0 0 2.28-2 1 1 0 0 0-.74-1.06c-1.75-.32-3.28-1.43-3.28-3.34 0-2.17 1.53-3.34 4.13-4.45zM448.6 48.19a2.38 2.38 0 0 0-2.54 2.18c0 .9.37 1.27.64 1.32 1.85.43 3.33 1.65 3.33 3.55s-1.53 3.4-4.08 4.46l.59 1.53c3.23-.95 6.94-3.23 6.94-7.31 0-3.71-3-5.73-4.88-5.73m-5.35 4.93l-.48-1.37a7.58 7.58 0 0 1-3.28.9c-1.33 0-3.08-.8-3.08-5.09V33.94h5.68a1.51 1.51 0 0 0 .31-2.07h-6v-7.26l-.74-.11-3.43 3.5v3.87h-2.44l-1.43 1.54.21.53h3.66v15.42c0 4.19 1.85 6.31 5.19 6.31a5.33 5.33 0 0 0 2.23-.69zm-18-15.31a40.1 40.1 0 0 0-1.16-5.67 12.25 12.25 0 0 0-4.72-.91c-4.88 0-8.06 3.13-8.06 6.84 0 4.08 3.45 5.83 6.63 7.32 2.65 1.21 4.18 2.49 4.18 4.82a3.7 3.7 0 0 1-3.76 3.71c-3.18 0-5.56-3.08-6.52-6.57l-1.38.26a25.12 25.12 0 0 0 .85 6.26 10.69 10.69 0 0 0 6.1 1.8c4.24 0 8.74-2.49 8.74-7.32 0-3.65-2.7-5.56-6.68-7.2-2.38-1-4.5-2.23-4.5-4.62a3.45 3.45 0 0 1 3.44-3.65c2.6 0 4.46 2.12 5.46 5.24zm-27.53-4.61c2.92 0 4.72 2.54 4.67 5.3 0 .74-.32 1.06-1.27 1.06-3.08.1-6 .15-9 .15.79-4.29 3.13-6.51 5.56-6.51m8.11 16.21a8.61 8.61 0 0 1-6 2.65c-3.71 0-7.84-3-7.9-10.17 6.31-.21 12.94-.74 13.84-.9s1.22-.64 1.22-1.7a8.21 8.21 0 0 0-7.95-8.06 10.78 10.78 0 0 0-7.79 3.87 13.63 13.63 0 0 0-3.5 9.28c0 6 3.81 11.29 10.33 11.29 1.65 0 5.3-1 8.64-5.14zm-29.42-12.56v-5.77a30.43 30.43 0 0 1-7.48 2.17v1.16c3 .43 3.29.64 3.29 4.14v11c0 3.5-.37 3.82-3.66 4.13V55h12.19v-1.35c-4.08-.31-4.34-.63-4.34-4.13v-9.7c1.16-3 2.86-4.56 4.24-4.56a2.84 2.84 0 0 1 2.22 1.12 1.24 1.24 0 0 0 1.43.1 3 3 0 0 0 1.7-2.6 3 3 0 0 0-3.08-2.65c-2.54 0-4.82 3-6.41 5.62zM353.42 33c4.61 0 7.1 5 7.1 11.24 0 7.26-2.7 9.7-6 9.7-4.35 0-7.26-5-7.26-11.66 0-6 2.86-9.28 6.15-9.28m.53-1.75c-4.83 0-11.61 4-11.61 12.72A11.48 11.48 0 0 0 354 55.67c5.24 0 11.5-4.08 11.5-12.62A11.5 11.5 0 0 0 354 31.23m-32.92 4a8.88 8.88 0 0 1 4.14-1c4.4 0 8.11 3.5 8.11 9.54s-2.81 9.91-7.21 9.91a5 5 0 0 1-4.72-3 4.29 4.29 0 0 1-.32-1.81zm0-1.59V17.3a43.89 43.89 0 0 1-7.68 1.85v1.22c3.39.32 3.5.64 3.5 3.92v29.47a18.47 18.47 0 0 0 7.79 1.91 13.17 13.17 0 0 0 13.3-13.31c0-6.25-4.77-11.13-10.44-11.13a5.61 5.61 0 0 0-2.17.53zm-16.32 17a7.66 7.66 0 0 1-4.24 1.91 3.88 3.88 0 0 1-3.76-4.08c0-1.91 1.16-2.92 3.23-3.87 1.11-.53 3.66-1.65 4.77-2.23zm8.32 2.36l-.53-1.37a4.1 4.1 0 0 1-1.9.58c-.9 0-1.86-.8-1.86-3.18v-9.9c0-2.75-.53-4.93-2.38-6.46a6.9 6.9 0 0 0-4.35-1.44 23.77 23.77 0 0 0-7.95 3.71c-1 .75-1.7 1.33-1.7 2.12a2.59 2.59 0 0 0 2.34 2.28 1.47 1.47 0 0 0 1.53-1.22 7.73 7.73 0 0 1 1.59-3.49 3 3 0 0 1 2.39-1.06c2.65 0 4.45 2.17 4.45 6v.95c-1.17 1-5 2.38-8.21 3.44-2.92 1-4.3 2.65-4.3 5.25a6.4 6.4 0 0 0 6.36 6.47c1.59 0 4.14-2 6.26-3.39a5.42 5.42 0 0 0 1.27 2.38 4.3 4.3 0 0 0 2.49 1zm-23.9 2v-1.35c-3.39-.31-3.81-.63-3.81-4.13V17.3a41.56 41.56 0 0 1-7.85 1.85v1.27c3.34.27 3.66.43 3.66 4v25.1c0 3.5-.48 3.82-3.82 4.13V55zm-25-1.91l-.48-1.37a7.58 7.58 0 0 1-3.29.9c-1.32 0-3.07-.8-3.07-5.09V33.94H263a1.5 1.5 0 0 0 .32-2.07h-6v-7.26l-.74-.11-3.44 3.5v3.87h-2.43l-1.44 1.54.22.53h3.65v15.42c0 4.19 1.86 6.31 5.2 6.31a5.34 5.34 0 0 0 2.22-.69zM248.11 55v-1.35c-3.08-.31-3.34-.53-3.34-4.13V39.29c0-5.14-2.65-8.06-6.84-8.06a8.2 8.2 0 0 0-4.4 1.59c-1.32.91-2.49 1.7-3.55 2.5v-4.24a32 32 0 0 1-7.36 2.17v1.22c2.86.53 3.18.69 3.18 4.08v11c0 3.5-.27 3.76-3.87 4.13V55h11.5v-1.35c-3.13-.31-3.45-.53-3.45-4.13V37.06c1.59-1.37 3.66-2.7 5.78-2.7 3.55 0 4.82 2.39 4.82 6v8.85c0 3.66-.37 4.09-3.5 4.4V55zm-38.27-21.8c2.92 0 4.72 2.54 4.67 5.3 0 .74-.32 1.06-1.27 1.06-3.08.1-6 .15-9 .15.79-4.29 3.13-6.51 5.56-6.51m8.2 16.21a8.62 8.62 0 0 1-6 2.65c-3.71 0-7.84-3-7.9-10.17 6.31-.21 12.94-.74 13.84-.9s1.22-.64 1.22-1.7a8.22 8.22 0 0 0-7.95-8.06 10.81 10.81 0 0 0-7.8 3.87 13.67 13.67 0 0 0-3.49 9.28c0 6 3.81 11.29 10.33 11.29 1.64 0 5.3-1 8.64-5.14zM197 55v-1.35c-3.12-.26-3.49-.58-3.49-4.08V40.3c0-6.36-3-9.07-7.32-9.07-2.86 0-5.72 2-7.58 3.87V17.3a58.34 58.34 0 0 1-7.79 1.85v1.22c3.5.32 3.61.58 3.61 3.92v25.28c0 3.5-.48 3.82-3.66 4.08V55H182v-1.35c-3.13-.31-3.4-.69-3.4-4.08V37a7.47 7.47 0 0 1 5.52-2.7c3.55 0 5.19 2.17 5.19 6.51v8.8c0 3.45-.42 3.77-3.5 4.08V55zm-37.56-21.8c2.92 0 4.72 2.54 4.66 5.3 0 .74-.31 1.06-1.27 1.06-3.07.1-6 .15-9 .15.79-4.29 3.12-6.51 5.56-6.51m8.11 16.21a8.62 8.62 0 0 1-6 2.65c-3.71 0-7.85-3-7.9-10.17 6.31-.21 12.93-.74 13.83-.9s1.22-.64 1.22-1.7a8.21 8.21 0 0 0-7.95-8.06 10.79 10.79 0 0 0-7.79 3.87 13.68 13.68 0 0 0-3.5 9.28c0 6 3.82 11.29 10.34 11.29 1.64 0 5.3-1 8.64-5.14zm-29.42-12.56v-5.77a30.24 30.24 0 0 1-7.47 2.17v1.16c3 .43 3.28.64 3.28 4.14v11c0 3.5-.37 3.82-3.65 4.13V55h12.19v-1.35c-4.08-.31-4.35-.63-4.35-4.13v-9.7c1.17-3 2.86-4.56 4.24-4.56a2.84 2.84 0 0 1 2.23 1.12 1.23 1.23 0 0 0 1.43.1 3 3 0 0 0 1.69-2.6 3 3 0 0 0-3.07-2.65c-2.54 0-4.82 3-6.41 5.62zm-22 16.27l-.48-1.37a7.58 7.58 0 0 1-3.29.9c-1.32 0-3.07-.8-3.07-5.09V33.94h5.67a1.5 1.5 0 0 0 .32-2.07h-6v-7.26l-.74-.11-3.43 3.5v3.87h-2.43l-1.44 1.54.22.53h3.65v15.42c0 4.19 1.86 6.31 5.2 6.31a5.34 5.34 0 0 0 2.22-.69zm-18-15.31a38.75 38.75 0 0 0-1.17-5.67 12.17 12.17 0 0 0-4.72-.91c-4.87 0-8.05 3.13-8.05 6.84 0 4.08 3.44 5.83 6.62 7.32 2.65 1.21 4.19 2.49 4.19 4.82a3.7 3.7 0 0 1-3.76 3.71c-3.18 0-5.57-3.08-6.52-6.57l-1.38.26a25.12 25.12 0 0 0 .85 6.26 10.66 10.66 0 0 0 6.09 1.8c4.24 0 8.75-2.49 8.75-7.32 0-3.65-2.7-5.56-6.68-7.2-2.38-1-4.5-2.23-4.5-4.62a3.45 3.45 0 0 1 3.44-3.65c2.6 0 4.45 2.12 5.46 5.24zM70.56 33.2c2.92 0 4.72 2.54 4.67 5.3 0 .74-.32 1.06-1.28 1.06-3.07.1-6 .15-9 .15.79-4.29 3.12-6.51 5.56-6.51m8.11 16.21a8.62 8.62 0 0 1-6 2.65c-3.71 0-7.85-3-7.9-10.17 6.31-.21 12.93-.74 13.83-.9s1.22-.64 1.22-1.7a8.21 8.21 0 0 0-8-8.06A10.81 10.81 0 0 0 64 35.1a13.68 13.68 0 0 0-3.5 9.28c0 6 3.82 11.29 10.34 11.29 1.64 0 5.3-1 8.64-5.14zM57.79 55v-1.35C54.4 53.34 54 53 54 49.52V17.3a41.44 41.44 0 0 1-7.84 1.85v1.27c3.34.27 3.66.43 3.66 4v25.1c0 3.5-.48 3.82-3.82 4.13V55zM30.55 40.19H20.8c1.59-4.34 3.28-9 5-13.51h.1zM44.06 55v-1.45c-3.44-.32-4.13-.8-5.83-5.36C34.84 39 31.29 28.9 28 19.79l-1.64.47-11 27.83c-1.86 4.66-2.6 5-5.94 5.46V55H21v-1.45c-4-.37-4.45-.9-3.28-4.24.69-2.23 1.48-4.45 2.33-6.84h11.24c1.17 3.23 2.23 6.1 2.91 8.16s.22 2.49-3.12 2.92V55z" class="ad6f5b8d-827f-481a-acf8-57a0342e90bf"/><path d="M17.31 0v215.54" class="aea33891-4e65-47ff-b298-e4a38270ad43"/></g></g></svg>