<svg xmlns="http://www.w3.org/2000/svg" id="Layer_1" viewBox="0 0 320 233.3" width="320" height="233.3"><style>.st0{fill:#231f20}.st1{fill:#f26518}.st2{fill:#4d4d4d}</style><g id="f43f63e6-c5f9-402a-a1d4-9b0b658d3a0d"><g id="a52d280c-66fb-49c0-8781-4a139a80b8c5"><path d="M216.9 228.1c0 .8.7 1.4 1.4 1.4.8 0 1.4-.7 1.4-1.4s-.7-1.4-1.4-1.4-1.4.5-1.4 1.4m-8.6 1h5.7c.1-.3.2-.6.1-.9-.8-.2-1.6-.3-2.4-.4 0-.5-.1-1-.1-1.6v-4c.8-1.3 1.6-1.6 2.3-1.6h.5c.2.8.2 1.6.3 2.3.3.1.8.1 1.1 0 .2-1.2.4-2.3.4-3.6-.5-.2-1.1-.2-1.6-.2-1.2.1-2.3.8-2.9 1.9l-.3-1.8-.2-.2c-1 .1-2 .3-2.9.8 0 .2 0 .6.1.8.6.1 1.1.2 1.6.3v5.6c0 .4 0 .8-.1 1.2-.6.2-1.1.2-1.6.3-.1.6 0 .9 0 1.1m-7.2-8.2c.4-.2.9-.4 1.4-.4 1.8 0 2.2 1.2 2.2 2.6-.5 0-1.4.1-2.5.1h-2c0-.8.4-1.6.9-2.3m1.5 8.6c1.4-.2 2.7-.8 3.9-1.6 0-.2-.2-.6-.3-.8-1.1.4-2.2.7-3.3.8-2 0-2.7-2.1-2.8-3.7h6.1l.2-.2c.1-.4.1-.8.1-1.2 0-1.8-.8-3.7-3.6-3.7-2.6 0-4.4 2.7-4.4 5.3 0 2.8 1.2 5 4.2 5m-13.9-5.5c0-1.1.3-2.1 1-2.9.4-.2.9-.4 1.4-.4.8 0 1.6.2 2.5.5v5.2c-.8.8-1.9 1.6-2.6 1.6-1.6 0-2.4-2-2.3-4m1.8 5.5c1.2 0 2.2-.9 3.1-1.9.2.9.6 1.9 1.1 1.9.9-.1 1.7-.5 2.3-1.1 0-.2-.1-.6-.3-.8-.4.2-.9.2-1.3.3-.1-.6-.1-1.1-.1-1.6v-6.8c0-2.2 0-3.9.1-6l-.2-.2c-1.2.1-2.4.3-3.6.8 0 .2 0 .6.1.8.7.1 1.2.2 1.9.3v4.7c-.7-.4-1.5-.7-2.2-.8-2.3 0-4.4 2.3-4.4 5.2s1.1 5.2 3.5 5.2m-15.8-.3h4.8c.1-.3.2-.6.1-.9-.5-.2-1-.3-1.6-.4-.1-.5-.1-1-.1-1.6v-4.8c.8-.6 1.6-.9 2.6-.9 1.6 0 1.9 1.2 1.9 2.6v3.5c0 .4 0 .8-.1 1.2-.6.2-1.1.2-1.6.3 0 .3 0 .7.1.9h4.8c.1-.3.2-.6.2-.9-.5-.2-1-.3-1.6-.4-.1-.5-.1-1-.1-1.6v-3.9c0-2.3-1-3.3-2.8-3.3-1.2.1-2.5.6-3.5 1.4-.1-.4-.2-.9-.2-1.2l-.2-.2c-1 .1-2 .3-3 .8 0 .2 0 .6.1.8.6.1 1.1.2 1.6.3v5.6c0 .4 0 .8-.1 1.2-.6.2-1.1.2-1.6.3.1.6.1.9.3 1.2m-7.2-8.2c.4-.2.9-.4 1.4-.4 1.8 0 2.2 1.2 2.2 2.6-.5 0-1.4.1-2.5.1h-2c-.1-.9.3-1.7.9-2.3m1.4 8.5c1.4-.2 2.8-.7 4-1.5 0-.2-.2-.6-.3-.8-1.1.4-2.2.7-3.3.8-2 0-2.7-2.1-2.8-3.7h6.1l.2-.2c.1-.4.1-.8.1-1.2 0-1.8-.8-3.7-3.6-3.7-2.6 0-4.4 2.7-4.4 5.3-.2 2.8 1 5 4 5m-13.2-.3h5.7c.1-.3.2-.6.1-.9-.8-.2-1.6-.3-2.4-.4-.1-.5-.1-1-.1-1.6v-4c.8-1.3 1.6-1.6 2.3-1.6h.5c.2.8.2 1.5.2 2.3.3.2.8.2 1.1 0 .2-1.2.4-2.3.3-3.6-.5-.2-1.1-.2-1.6-.2-1.2.1-2.3.8-2.9 1.9l-.3-1.8-.2-.2c-1 .1-2 .3-2.9.8 0 .2 0 .6.1.8.6.1 1.1.2 1.6.3v5.6c0 .4 0 .8-.1 1.2-.6.2-1.1.2-1.6.3.1.5.1.8.2 1.1m-9.3 0h5.7c.1-.3.2-.6.1-.9-.8-.2-1.6-.3-2.5-.4 0-.5-.1-1-.1-1.6v-4c.8-1.3 1.5-1.6 2.3-1.6h.5c.2.8.2 1.5.2 2.3.3.2.8.2 1.1 0 .2-1.2.4-2.3.3-3.6-.5-.2-1.1-.2-1.6-.2-1.2.1-2.3.8-2.9 1.9l-.3-1.8-.2-.2c-1 .1-2 .3-2.9.8 0 .2 0 .6.1.8.6.1 1.1.2 1.6.3v5.6c0 .4 0 .8-.1 1.2-.6.2-1.1.2-1.6.3.1.5.1.9.3 1.1m-8.4.4c1.3 0 2.4-.9 3.4-2 .2 1 .5 2 1 2 .9-.1 1.7-.5 2.4-1.1 0-.2-.1-.6-.3-.8-.4.2-.9.2-1.3.3-.1-.6-.1-1.1-.1-1.6v-.8c0-2.3 0-3.9.1-6l-.2-.2H140c-.1.3-.1.7-.1.9.6.1 1.1.2 1.6.4v5.5c-.6.6-1.9 1.6-2.8 1.6-1.2 0-1.6-1-1.6-2.6 0-1.2 0-3.6.1-5.6l-.2-.2h-3c-.1.3-.1.7-.1.9.6.1 1.1.2 1.6.4v5.3c-.1 2.5.9 3.6 2.6 3.6m-9.7 0c2.2 0 3.8-1.2 3.8-3 0-3.3-5-2.6-5-4.7 0-.8.2-1.2 1.8-1.2.4 0 .9.1 1.3.2.2.5.2 1.1.2 1.6.3.2.8.2 1.1 0 .2-.8.3-1.6.3-2.6-1-.2-2-.4-3-.4-1.6 0-3.6.7-3.6 2.7 0 2.2 2.4 2.4 3.9 3.2.6.2 1 .8 1.1 1.4 0 1.2-.5 1.6-1.8 1.6-.7 0-1.2-.1-1.9-.3-.1-.7-.2-1.4-.2-2.1-.3-.2-.7-.2-1 0-.2 1-.3 2-.3 3 1.2.4 2.2.6 3.3.6m-13-1.4c-2.2 0-3-2.4-3-4.1 0-1.1.3-2.2 1-3 .4-.2.9-.4 1.4-.4 2.2 0 3 2.4 3 4.1 0 1.1-.3 2.2-1 3-.4.2-.8.4-1.4.4m-.3 1.3c2.9 0 4.6-2.8 4.6-5.3 0-2.8-1.3-5-4.4-5s-4.6 2.8-4.6 5.3c.1 2.9 1.5 5 4.4 5m-8.5 0c1.2 0 2.2-.4 3.2-1 0-.3-.1-.7-.3-.9-.7.2-1.3.4-2.1.4-.7 0-1-.8-1-2.2v-5h3.1c.1-.4.1-.8.1-1.2h-3.2v-2.7c-.3-.1-.7-.2-1.1-.1l-.7 2.8c-.5 0-1.1.1-1.6.2-.1.2-.1.6 0 .8.5.1 1.2.2 1.6.2v5.8c0 1.9.5 3 2 2.9m-14.1-8.5c.4-.2.9-.4 1.4-.4 1.8 0 2.2 1.2 2.2 2.6-.5 0-1.4.1-2.5.1h-2c.1-.9.4-1.7.9-2.3m1.5 8.6c1.4-.2 2.8-.7 4-1.5 0-.2-.2-.6-.3-.8-1.1.4-2.2.7-3.3.8-2 0-2.7-2.1-2.8-3.7h6.1l.2-.2c.1-.4.1-.8.1-1.2 0-1.8-.8-3.7-3.6-3.7-2.6 0-4.4 2.7-4.4 5.3-.2 2.7 1 4.9 4 5m-9.8-.1c2.2 0 3.8-1.2 3.8-3 0-3.3-5-2.6-5-4.7 0-.8.2-1.2 1.8-1.2.4 0 .9.1 1.3.2.2.5.2 1.1.2 1.6.3.2.8.2 1.1 0 .2-.8.3-1.6.3-2.6-1-.2-2-.4-3-.4-1.6 0-3.6.7-3.6 2.7 0 2.2 2.4 2.4 3.9 3.2.6.2 1 .8 1.1 1.4 0 1.2-.5 1.6-1.8 1.6-.7 0-1.2-.1-1.9-.3-.1-.7-.2-1.4-.2-2.1-.3-.2-.7-.2-1 0-.2 1-.4 2.1-.4 3 1.2.4 2.3.7 3.4.6m-11.5.1c1.3 0 2.4-.9 3.4-2 .2 1 .6 2 1 2 .9-.1 1.7-.5 2.4-1.1 0-.2-.1-.6-.3-.8-.4.2-.9.2-1.3.3-.1-.6-.1-1.1-.1-1.6v-.8c0-2.3 0-3.9.1-6l-.2-.2h-3.1c-.1.3-.1.7-.2.9.6.1 1.2.2 1.6.4v5.5c-.6.6-1.9 1.6-2.8 1.6-1.2 0-1.6-1-1.6-2.6v-5.6l-.2-.2h-3c-.1.3-.1.7-.2.9.6.1 1.1.2 1.6.4v5.3c.1 2.6 1 3.6 2.9 3.6m-11.6-.2h5.7c.1-.3.2-.6.2-.9-.8-.2-1.6-.3-2.5-.4 0-.5-.1-1-.1-1.6v-5.6h2.4c.1-.4.1-.8.1-1.2h-2.5v-.7c0-1.8.3-3.2.8-3.6.4-.2.9-.4 1.4-.4.3 0 .8 0 1.1.1.1.6.2 1.2.2 1.7.3.2.8.2 1.2.1.3-.9.4-1.8.5-2.7-.8-.3-1.7-.5-2.6-.5-2.6 0-4 2.3-4 5.9v.2c-.5.1-1.1.2-1.6.2-.1.2-.1.6 0 .8.5.1 1.1.2 1.6.2v6c0 .4 0 .8-.1 1.2-.6.2-1.1.2-1.6.3-.4.2-.3.6-.2.9m-7.3-8.3c.4-.2.9-.4 1.4-.4 1.8 0 2.2 1.2 2.2 2.6-.5 0-1.4.1-2.5.1h-2c.1-.9.5-1.7.9-2.3m1.5 8.5c1.4-.2 2.8-.7 4-1.5 0-.2-.1-.6-.3-.8-1.1.4-2.2.7-3.3.8-2 0-2.7-2.1-2.8-3.7H59l.2-.2c.1-.4.1-.8.1-1.2 0-1.8-.8-3.7-3.6-3.7-2.6 0-4.4 2.7-4.4 5.3-.2 2.7 1.1 4.9 4 5m-13.2-.4h5.7c.1-.3.2-.6.2-.9-.8-.2-1.6-.3-2.4-.4 0-.5-.1-1-.1-1.6v-4c.8-1.3 1.5-1.6 2.3-1.6h.6c.2.8.2 1.5.2 2.3.3.2.8.2 1.1.1.2-1.2.4-2.3.4-3.6-.5-.2-1.1-.2-1.6-.2-1.2.1-2.3.8-2.9 1.9l-.3-1.8-.2-.2c-1 .1-2 .3-2.9.8 0 .2 0 .6.1.8.6.1 1.1.2 1.6.3v5.6c0 .4 0 .8-.1 1.2-.6.2-1.1.2-1.6.3-.2.4-.2.8-.1 1m-10.1.1h4.8c.1-.3.1-.6.1-.9-.5-.2-1-.3-1.6-.4 0-.5-.1-1-.1-1.6v-6.8c0-2.2 0-3.9.1-6l-.2-.2c-1.2.1-2.2.3-3.4.8 0 .2 0 .6.1.8.6.1 1.1.2 1.6.3v11.5c0 .4 0 .8-.1 1.2-.6.2-1.1.2-1.6.3.2.4.2.7.3 1m-6.4 0h4.8c.1-.3.2-.6.2-.9-.5-.2-1-.3-1.6-.4 0-.5-.1-1-.1-1.6v-6.8c0-2.2 0-3.9.1-6l-.2-.2c-1.2.1-2.2.3-3.4.8 0 .2 0 .6.1.8.6.1 1.1.2 1.6.3v11.5c0 .4 0 .8-.1 1.2-.6.2-1.1.2-1.6.3.1.4.1.8.2 1m-6.4 0H24c.1-.3.2-.6.1-.9-.5-.2-1-.3-1.6-.4 0-.5-.1-1-.1-1.6v-1c0-2.2 0-3.9.1-6l-.2-.2c-1.2.1-2.3.3-3.4.8 0 .2 0 .6.1.8.6.1 1.1.2 1.6.3v5.7c0 .4 0 .8-.1 1.2-.6.2-1.1.3-1.6.4.2.3.2.7.3.9m2.2-11.5c.8-.1 1.4-.8 1.4-1.6-.1-.7-.6-1.2-1.2-1.2-.8.1-1.4.8-1.5 1.5.1.8.5 1.2 1.3 1.3m-6.8 11.8c1.2 0 2.2-.4 3.2-1 0-.3-.1-.7-.3-.9-.7.2-1.3.4-2.1.4-.7 0-1-.8-1-2.2v-5h3.2c.1-.4.1-.8.1-1.2h-3.2v-2.7c-.3-.1-.7-.2-1.1-.1l-.7 2.8c-.5 0-1.1.1-1.6.2-.1.2-.1.6 0 .8.5.1 1.2.2 1.6.2v5.8c-.1 1.8.4 2.9 1.9 2.9m-8.7-.1c2.2 0 3.8-1.2 3.8-3 0-3.3-5-2.6-5-4.7 0-.8.2-1.2 1.8-1.2.4 0 .9.1 1.3.2.2.5.2 1.1.2 1.6.3.2.8.2 1.1 0 .2-.8.3-1.6.3-2.6-1-.2-2-.4-3-.4-1.6 0-3.6.7-3.6 2.7 0 2.2 2.4 2.4 3.9 3.2.6.2 1 .8 1.1 1.4 0 1.2-.5 1.6-1.8 1.6-.7 0-1.2-.1-1.9-.3-.1-.7-.2-1.4-.2-2.1-.3-.2-.7-.2-1 0-.2 1-.3 2-.3 3 1.1.4 2.2.7 3.3.6m303.7-29.6c0-.4.2-.9.4-1.2 1.1-.5 2.2-.8 3.4-.9v2.4c-.7.6-1.4 1-2.2 1.1-.8.1-1.4-.4-1.6-1.2v-.2m.5 3c1.3-.2 2.5-.8 3.4-1.6.2 1 .6 1.6 1 1.6.9-.1 1.7-.5 2.4-1.1 0-.2-.1-.6-.3-.8-.4.2-.9.2-1.3.3-.1-.6-.1-1.1-.1-1.6v-3.8c0-2.8-2.1-3.2-3.3-3.2-1.3 0-2.6.4-3.6 1.1 0 .8.2 1.5.5 2.2.4.1.8.1 1.2-.2 0-.6 0-1.1.2-1.6.6-.1 1.1-.2 1.6-.2 1.4 0 1.7 1.1 1.7 2.6-2.6.5-5.6 1.6-5.6 3.9-.2 1.2.8 2.3 2 2.5h.3m-8.3-8.8c1.6 0 2.6 2 2.6 4 0 1.1-.3 2.2-1 3-.4.2-.8.4-1.3.4-1.1-.1-2.1-.5-2.8-1.2v-5.2c.7-.6 1.6-.9 2.5-1m-4.4 8.8c.5-.3 1-.8 1.3-1.2.9.7 2 1.1 3 1.2 2.5 0 4.3-2.8 4.3-5.3 0-3-1.5-4.9-3.7-4.9-1.2 0-2.3.4-3.1 1.2v-.9c0-2.2 0-3.9.1-6l-.2-.2c-1.2.1-2.3.3-3.4.8 0 .2 0 .6.1.8.6.1 1.1.2 1.6.3v11.6c0 .8-.2 1.6-.7 2.4.2.2.5.3.7.2m-6.7-8.8c1.6 0 2.6 2 2.6 4 0 1.1-.3 2.2-1 3-.4.2-.8.4-1.3.4-1.1-.1-2.1-.5-2.8-1.2V195c.7-.5 1.7-.8 2.5-.9m-4.3 8.9c.5-.3 1-.8 1.3-1.2.9.7 2 1.1 3 1.2 2.5 0 4.3-2.8 4.3-5.3 0-3-1.6-4.9-3.7-4.9-1.2 0-2.3.4-3.1 1.2v-1c0-2.2 0-3.9.1-6l-.2-.2c-1.2.1-2.3.3-3.4.8 0 .2 0 .6.1.8.6.1 1.1.2 1.6.3v11.6c0 .8-.2 1.6-.7 2.4.2.2.4.3.7.3m-9.2-12.4l.1 1.5 1.6 4.7h-3.9l2.2-6.2zm-6.6 12.1c.9 0 1.6-.1 2.4-.1.5 0 1.6 0 2.3.1.1-.3.2-.7.1-1l-1.8-.4 1.1-3.3h1.5c1 0 2.2 0 3.3.1l1.2 3.2-1.9.4c0 .3.1.7.2 1 .9 0 1.7-.1 2.6-.1.7 0 2 0 2.6.1.1-.3.2-.7.1-1-.5-.2-1-.3-1.6-.4l-4.4-12.6c-.6 0-1.2.1-1.8.3l-4.2 12.2c-.5.2-1.1.3-1.6.4-.3.5-.2.8-.1 1.1m-8.6-1.2c.5.1.8.6.8 1.1-.2 1-.6 1.8-1.3 2.5 0 .3.2.6.5.7 1.4-.7 2.9-2.5 2.9-4 .2-.8-.3-1.6-1.1-1.7-.2 0-.3-.1-.5 0-.7.1-1.3.7-1.3 1.4m-6-.1c-1.5 0-2-1.3-2-3.6-.1-1.3.4-2.6 1.2-3.6.4-.2.9-.4 1.5-.4 1.3 0 1.9 1.3 1.9 3.6 0 1.3-.4 2.6-1.2 3.6-.4.2-.9.4-1.4.4m-.9 1.4c3.3 0 5.3-2.7 5.3-6.3 0-1.7-.6-4-2.9-4-3.3 0-5.2 2.7-5.2 6.3-.1 1.7.6 4 2.8 4m-8.8-1.3c-1.5 0-2-1.3-2-3.6-.1-1.3.4-2.6 1.2-3.6.4-.2 1-.4 1.5-.4 1.3 0 1.9 1.3 1.9 3.6 0 1.3-.4 2.6-1.2 3.6-.4.2-.9.3-1.4.4m-.8 1.3c3.3 0 5.3-2.7 5.3-6.3 0-1.7-.6-4-2.9-4-3.3 0-5.2 2.7-5.2 6.3-.1 1.7.5 4 2.8 4m-7.2-.1c1.2-.2 2.2-.8 3-1.6-.1-.2-.2-.5-.4-.7-.6.2-1.2.5-1.9.6l1.6-12.3v-.5c0-.8-.4-1.2-1.2-1.2-.8 0-1.6.2-2.4.7-.1.2-.1.5 0 .8.6 0 1.2.1 1.7.2l-1.6 12c-.1.3-.1.7-.1 1.1.2.3.5.9 1.3.9m-9-.2c.9.1 1.8-.1 1.8-.5.2-1.9.5-4 .8-6 .7-.8 1.4-1.5 2.2-2 .3.2.7.6.9 1 .7-.2 1.2-.8 1.2-1.2 0-.8-.6-1.3-1.3-1.4-.9 0-2 .9-3 2.2v-.7c0-.8-.4-1.2-1.2-1.2-.8 0-1.6.2-2.4.7-.1.2-.1.5 0 .8.6 0 1.2.1 1.7.2l-.2 1.6c-.2 2.2-.7 4.4-1.1 6.7l.6-.2zm-5.9-8.5c.2-.1.6-.2.9-.2.8 0 1.3.9 1.3 1.8-1.2.8-2.4 1.4-3.7 1.8 0-1.2.5-2.5 1.5-3.4m-1.3 8.8c1.3 0 3.2-.8 5.1-2.2 0-.2-.2-.5-.4-.8-1.3.7-2.7 1.2-4.1 1.4-.6-.8-.9-1.7-.9-2.7 3-1 5.5-2.2 5.5-3 0-1.8-.8-3-2.4-3-2.6 0-5 2.4-5 6.3 0 .9.1 1.7.4 2.6.3.8 1 1.4 1.8 1.4m-7.4-.1c1.2 0 3-1.1 3.8-2-.1-.2-.2-.5-.4-.7-.8.4-1.7.8-2.6.9l.8-6.6v-.2h2.7c.2-.4.2-.8.2-1.2-.9-.1-1.9-.2-2.8-.2.2-1 .3-2 .6-3l-.2-.2c-.8-.1-1.8.1-1.9.5-.1.9-.2 1.7-.3 2.6h-1.6c-.4 0-.4.8-.4 1.3h1.8c-.1.5-.1 1.1-.2 1.6-.2 1.7-.4 3-.7 4.7-.1.3-.1.7-.1 1 .2.9.5 1.6 1.3 1.5m-10.5-4.2c-.1-1.6.4-3.2 1.5-4.4.3-.2.8-.2 1.1-.2.7 0 1.3.2 2 .4l-.8 5.5c-.9.8-2.1 1.3-3.2 1.5-.3-.3-.6-1.3-.6-2.8m.2 4.3c1.1 0 2.4-.8 3.7-1.9.1 1.1.2 1.8.8 1.8 1.2-.2 2.2-.8 3-1.6-.1-.2-.2-.5-.4-.7-.6.2-1.2.5-1.9.6l.8-6.6c.1-.3.2-.8.2-1.1-1.2-.5-2.4-.8-3.6-.8-3 0-4.7 3.3-4.7 6.6 0 .8.1 1.5.2 2.2.2.9 1 1.6 1.9 1.5m-16.6-.2c.8 0 1.6-.1 2.3-.3l4.2-11.5-.2 2.1 1.1 9.8c.8 0 1.4-.1 2.2-.3l4.8-12.3c.5-.1 1-.2 1.5-.4.1-.3.1-.7 0-1h-4.4c-.2.3-.2.7-.3 1l1.8.4-4 10.8.1-1.7-1.1-10.5c-.7 0-1.2.1-1.9.2l-4.5 12 .1-1.7-1-9 1.7-.4c.1-.3.1-.7 0-1h-5c-.2.3-.2.7-.3 1 .5.1 1 .2 1.5.4l1.4 12.4zm-15.7-.1c.8 0 1.6-.1 2.5-.1.7 0 2.4 0 3.2.1.1-.3.2-.6.2-.9-.8-.2-1.6-.3-2.5-.3 0-.5-.1-1-.1-1.6v-4c.8-1.3 1.6-1.6 2.3-1.6h.5c.2.8.2 1.5.2 2.3.3.2.8.2 1.1 0 .2-1.2.4-2.3.3-3.6-.5-.2-1.1-.2-1.6-.2-1.2.1-2.3.8-2.9 1.9l-.3-1.8-.2-.2c-1 .1-2 .3-3 .8 0 .2 0 .6.1.8.6.1 1.1.2 1.6.3v5.6c0 .4 0 .8-.1 1.2-.6.2-1.1.3-1.6.3.1.4.2.7.3 1m-7.3-8.2c.4-.2.9-.4 1.4-.4 1.8 0 2.2 1.3 2.2 2.6-.5.1-1.4.1-2.6.1h-2c.1-.9.5-1.7 1-2.3m1.5 8.5c1.4-.2 2.8-.7 4-1.5 0-.2-.1-.6-.3-.8-1.1.4-2.2.7-3.3.8-2 0-2.7-2-2.8-3.7h6.1l.2-.2c.1-.4.1-.8.1-1.2 0-1.8-.8-3.7-3.6-3.7-2.6 0-4.4 2.7-4.4 5.3-.2 2.7 1 4.9 4 5m-15.3-10.7c-.1-1.2.2-2.6.8-3.6.5-.3 1-.4 1.6-.4.8 0 1.7.2 2.5.5v4.2h-4.8v-.7zm-1.7 1.9v6c0 .4 0 .8-.1 1.2-.6.2-1.1.3-1.6.3 0 .3.1.7.2.9.8 0 1.6-.1 2.5-.1.8 0 2.1 0 3.2.1.1-.3.2-.6.1-.9-.8-.2-1.6-.3-2.4-.3-.1-.5-.1-1-.1-1.6V194h4.8v5.8c0 1.9.5 3 1.9 3 1.2-.1 2.2-.4 3.2-1 0-.3-.1-.7-.3-.9-.7.2-1.3.4-2.1.4-.7 0-1-.8-1-2.2v-5h3.1c.1-.4.1-.8.1-1.2l-3.2-.1v-5.2l-.2-.2c-1.2-.5-2.5-.8-3.8-.8-2.8 0-4.4 2.3-4.4 5.9v.2c-.5.1-1.1.2-1.6.2-.1.2 0 .6.1.8l1.6.3m-10.3 5.8c0-.4.2-.9.4-1.2 1.1-.5 2.2-.8 3.4-.9v2.4c-.7.6-1.4 1-2.2 1.1-.8.1-1.4-.4-1.6-1.2v-.2m.5 3c1.3-.2 2.5-.8 3.4-1.6.2 1 .6 1.6 1 1.6.9-.1 1.7-.5 2.4-1.1 0-.2-.1-.6-.3-.8-.4.2-.9.2-1.3.3-.1-.6-.1-1.1-.1-1.6v-3.8c0-2.8-2.1-3.2-3.2-3.2-1.3 0-2.6.4-3.6 1.1 0 .8.2 1.5.5 2.2.4.1.8.1 1.2-.2 0-.6 0-1.1.2-1.6.6-.1 1.1-.2 1.6-.2 1.4 0 1.7 1.1 1.7 2.6-2.6.5-5.6 1.6-5.6 3.9-.2 1.2.8 2.3 2 2.5-.1 0 0 0 .1-.1m-11.9 0c2.2 0 3.8-1.2 3.8-3 0-3.3-5-2.6-5-4.7 0-.8.2-1.2 1.8-1.2.4 0 .9.1 1.3.2.2.5.2 1.1.2 1.6.3.2.8.2 1.1.1.2-.8.3-1.6.3-2.6-1-.2-2-.4-3-.4-1.6 0-3.6.7-3.6 2.7 0 2.2 2.4 2.4 4 3.2.6.2 1 .8 1.1 1.4 0 1.2-.5 1.6-1.8 1.6-.7 0-1.2-.1-1.9-.3-.1-.7-.2-1.4-.2-2.1-.3-.2-.7-.2-1 0-.2 1-.3 2-.3 3 1 .3 2.1.5 3.2.5m-12.4-.2c.8 0 1.6-.1 2.5-.1.7 0 2.4 0 3.2.1.2-.3.3-.7.4-1-.8-.2-1.6-.3-2.5-.3 0-.5-.1-1-.1-1.6v-4c.8-1.3 1.6-1.6 2.3-1.6h.5c.2.8.2 1.5.2 2.3.3.2.8.2 1.1 0 .2-1.2.4-2.3.3-3.6-.5-.2-1.1-.2-1.6-.2-1.2.1-2.3.8-2.9 1.9l-.3-1.8-.2-.2c-1 .1-2 .3-2.9.8 0 .2 0 .6.1.8.6.1 1.1.2 1.6.3v5.6c0 .4 0 .8-.1 1.2-.6.2-1.1.3-1.6.3 0 .3.1.7.2.9m-8.7-2.6c0-.4.2-.9.4-1.2 1.1-.5 2.2-.8 3.4-.9v2.4c-.7.6-1.4 1-2.2 1.1-.8.1-1.4-.4-1.6-1.2v-.2m.6 3c1.3-.2 2.5-.8 3.4-1.6.2 1 .6 1.6 1 1.6.9-.1 1.7-.5 2.3-1.1 0-.2-.1-.6-.3-.8-.4.2-.9.2-1.3.3-.1-.6-.1-1.1-.1-1.6v-3.8c0-2.8-2.1-3.2-3.2-3.2-1.3 0-2.6.4-3.6 1.1 0 .8.2 1.5.5 2.2.4.1.8.1 1.2-.2 0-.6 0-1.1.2-1.6.6-.1 1.1-.2 1.6-.2 1.4 0 1.7 1.1 1.7 2.6-2.6.5-5.6 1.6-5.6 3.9-.2 1.2.8 2.3 2 2.5-.1 0 .1 0 .2-.1m-9.4-8.4c.4-.2.9-.4 1.4-.4 1.8 0 2.2 1.3 2.2 2.6-.5.1-1.4.1-2.6.1h-2c0-.9.4-1.8 1-2.3m1.4 8.5c1.4-.2 2.8-.7 4-1.5 0-.2-.2-.6-.3-.8-1.1.4-2.2.7-3.3.8-2 0-2.7-2-2.8-3.7h6.1l.2-.2c.1-.4.1-.8.1-1.2 0-1.8-.8-3.7-3.6-3.7-2.6 0-4.4 2.7-4.4 5.3-.3 2.7 1 4.9 4 5m-13.3 4.8c1.6 0 2.8-2.3 4-5.4l3-8.2 1.2-.3c0-.3 0-.7-.1-.9h-3.9c-.1.3-.2.6-.2.9l1.6.3-2.6 7.2-.1-1.5-2.1-5.7 1.6-.3c.1-.3 0-.7-.1-.9H84c-.1.3-.2.6-.2.9l1.2.3 3 8.4h.7l-.3.8c-.8 1.8-1.8 3.1-3.8 3.1h-.2c-.2.2-.3.6-.3.9.6.3 1.3.4 2 .4m-13-13.4c.4-.2.9-.4 1.4-.4 1.8 0 2.2 1.3 2.2 2.6-.5.1-1.4.1-2.6.1h-2c.1-.9.4-1.7 1-2.3m1.4 8.5c1.4-.2 2.8-.7 4-1.5 0-.2-.2-.6-.3-.8-1.1.4-2.2.7-3.3.8-2 0-2.7-2-2.8-3.7h6.1l.2-.2c.1-.4.1-.8.1-1.2 0-1.8-.8-3.7-3.6-3.7-2.6 0-4.4 2.7-4.4 5.3-.2 2.7 1 4.9 4 5m-9.7-.2c2.2 0 3.8-1.2 3.8-3 0-3.3-5-2.6-5-4.7 0-.8.2-1.2 1.8-1.2.4 0 .9.1 1.3.2.2.5.2 1.1.2 1.6.3.2.8.2 1.1.1.2-.8.3-1.6.3-2.6-1-.2-2-.4-3-.4-1.6 0-3.6.7-3.6 2.7 0 2.2 2.4 2.4 3.9 3.2.7.2 1.1.8 1.1 1.5 0 1.2-.5 1.6-1.8 1.6-.7 0-1.2-.1-1.9-.3-.1-.7-.2-1.4-.2-2.1-.3-.2-.7-.2-1 0-.2 1-.3 2-.3 3 1.1.3 2.2.5 3.3.4m-10.5-8.3c.4-.2.9-.4 1.4-.4 1.8 0 2.2 1.3 2.2 2.6-.5.1-1.4.1-2.5.1h-2.1c.1-.9.5-1.7 1-2.3m1.5 8.5c1.4-.2 2.8-.7 4-1.5 0-.2-.1-.6-.3-.8-1.1.4-2.2.7-3.3.8-2 0-2.7-2-2.8-3.7h6.1l.2-.2c.1-.4.1-.8.1-1.2 0-1.8-.8-3.7-3.6-3.7-2.6 0-4.4 2.7-4.4 5.3-.3 2.7 1 4.9 4 5m-16.4-.3c.8 0 1.6-.1 2.5-.1.5 0 1.7 0 2.3.1.1-.3.2-.6.2-.9-.5-.2-1-.3-1.6-.3 0-.5-.1-1-.1-1.6v-5.1c.8-.4 1.7-.6 2.6-.6 1.6 0 1.9 1.2 1.9 2.6v3.5c0 .4 0 .8-.1 1.2-.6.2-1.1.3-1.6.3 0 .3.1.7.2.9.8 0 1.6-.1 2.5-.1.5 0 1.7 0 2.3.1.1-.2.2-.6.2-.8-.5-.2-1-.3-1.6-.3 0-.5-.1-1-.1-1.6v-3.9c0-2.3-1-3.3-2.9-3.3-1.2 0-2.4.4-3.4 1.1v-.8c0-2.2 0-3.9.1-6l-.2-.2c-1.2.1-2.2.3-3.4.8 0 .2 0 .6.1.8.6.1 1.1.2 1.6.3v11.6c0 .4 0 .8-.1 1.2-.6.2-1.1.3-1.6.3 0 .3.1.7.2.9m-4.5.3c1.2-.1 2.2-.4 3.2-1 0-.3-.1-.7-.3-.9-.7.2-1.3.4-2.1.4-.7 0-1-.8-1-2.2v-5h3.1c.1-.4.1-.8.1-1.2l-3.2-.1V190c-.3-.1-.7-.2-1.1-.1l-.7 2.8c-.6 0-1.1.1-1.6.2-.1.2-.1.6 0 .8.6.1 1.2.2 1.6.2v5.8c.1 2 .5 3.1 2 3.2m-13.5-.4c.8 0 1.6-.1 2.5-.1.5 0 1.7 0 2.3.1.1-.3.2-.6.2-.9-.5-.2-1-.3-1.6-.3 0-.5-.1-1-.1-1.6v-6.8c0-2.2 0-3.9.1-6l-.2-.2c-1.2.1-2.2.3-3.4.8 0 .2 0 .6.1.8.6.1 1.1.2 1.6.3v11.6c0 .4 0 .8-.1 1.2-.6.2-1.1.3-1.6.3.1.2.1.6.2.8m-6.4.1c.8 0 1.6-.1 2.5-.1.5 0 1.7 0 2.3.1.1-.3.2-.6.1-.9-.5-.2-1-.3-1.6-.3 0-.5-.1-1-.1-1.6V193c0-2.2 0-3.9.1-6l-.2-.2c-1.2.1-2.3.3-3.4.8 0 .2 0 .6.1.8.6.1 1.1.2 1.6.3v11.6c0 .4 0 .8-.1 1.2-.6.2-1.1.3-1.6.3.2.3.3.6.3.8m-8.2-12.1l.1 1.5 1.6 4.7H4.6l2.2-6.2zM.2 202.6c.9 0 1.6-.1 2.4-.1.5 0 1.7 0 2.3.1.1-.2.1-.6.1-1l-1.8-.4 1.1-3.3h1.5c1 0 2.2 0 3.3.1l1.2 3.2-1.9.4c0 .3.1.7.2 1 .9 0 1.7-.1 2.6-.1.7 0 2 0 2.6.1.1-.3.2-.7.1-1-.5-.2-1-.3-1.6-.4l-4.4-12.7c-.6 0-1.2.1-1.8.3l-4.3 12.3c-.5.2-1.1.3-1.6.4-.2.4-.1.7 0 1.1M317 174.7c0 .8.7 1.5 1.5 1.5s1.5-.7 1.5-1.5c-.1-.8-.8-1.4-1.6-1.3-.7.1-1.3.7-1.4 1.3m-8.7 6.4c1.6 0 2.9-2.3 4-5.4l3.1-8.2 1.2-.3c0-.3 0-.7-.1-.9h-4c-.1.3-.2.6-.2.9l1.6.3-2.6 7.2-.1-1.5-2.1-5.7 1.6-.3c.1-.3 0-.7-.1-.9h-4.4c-.1.3-.2.6-.2.9l1.2.3 3.1 8.4h.7l-.3.8c-.8 1.8-1.8 3.1-3.8 3.1h-.2c-.2.2-.3.6-.3.9.5.2 1.2.4 1.9.4m-6.5-5c1.2 0 2.2-.4 3.2-1 0-.3-.1-.7-.3-.9-.7.2-1.3.4-2.1.4-.7 0-1-.8-1-2.2v-5h3.2c.1-.4.1-.8.1-1.2l-3.3-.1v-2.7c-.3-.1-.8-.2-1.1-.1l-.7 2.8c-.6 0-1.1.1-1.6.2-.1.2-.1.6 0 .8.6.1 1.2.2 1.6.2v5.8c0 2 .6 3.1 2 3m-9.4-.2c.8 0 1.6-.1 2.6-.1.5 0 1.7 0 2.3.1.1-.3.2-.6.1-.9-.5-.2-1.1-.3-1.6-.3 0-.5-.1-1-.1-1.6v-1c0-2.2 0-3.9.1-6l-.2-.2c-1.2.1-2.3.3-3.4.8 0 .2 0 .6.1.8.6.1 1.1.2 1.6.3v5.7c0 .4 0 .8-.1 1.2-.6.2-1.1.3-1.6.3.1.3.1.6.2.9m2.2-11.5c.8-.1 1.4-.8 1.5-1.6-.1-.7-.6-1.2-1.2-1.2-.8.1-1.4.8-1.5 1.6.1.7.6 1.2 1.2 1.2m-8.8 11.5c.8 0 1.6-.1 2.6-.1.5 0 1.7 0 2.3.1.1-.3.2-.6.1-.9-.5-.2-1.1-.3-1.6-.3 0-.5-.1-1-.1-1.6v-6.8c0-2.2 0-3.9.1-6l-.2-.2c-1.2.1-2.3.3-3.4.8 0 .2 0 .6.1.8.6.1 1.1.2 1.6.3v11.5c0 .4 0 .8-.1 1.2-.6.2-1.1.3-1.6.3 0 .4.1.7.2.9m-8.8-2.6c0-.4.2-.9.4-1.2 1.1-.6 2.2-.9 3.5-1v2.4c-.7.6-1.4 1-2.3 1.1-1.1 0-1.6-.7-1.6-1.4m.6 2.9c1.3-.2 2.6-.8 3.5-1.6.2 1 .6 1.6 1 1.6.9-.1 1.7-.5 2.4-1.1 0-.2-.1-.6-.3-.8-.4.2-.9.2-1.3.3-.1-.6-.1-1.1-.1-1.6V169c0-2.8-2.1-3.2-3.3-3.2-1.3 0-2.6.3-3.7 1.1 0 .8.2 1.5.5 2.2.4.1.8.1 1.2-.2 0-.6 0-1.1.2-1.6.6-.1 1.1-.2 1.6-.2 1.4 0 1.7 1.1 1.7 2.6-2.6.5-5.7 1.6-5.7 3.9-.1 1.2.8 2.3 2.1 2.5h.2m-6.9 0c1.2 0 2.2-.3 3.2-1 0-.3-.1-.7-.3-.9-.7.2-1.3.4-2.1.4-.7 0-1-.8-1-2.2v-5h3.2c.1-.4.1-.8.1-1.2l-3.3-.1v-2.7c-.3-.1-.8-.2-1.1-.1l-.7 2.8c-.6 0-1.1.1-1.6.2-.1.2-.1.6 0 .8.6.1 1.2.2 1.6.2v5.8c-.1 2 .4 3.1 2 3m-9.4-.2c.8 0 1.6-.1 2.6-.1.5 0 1.8 0 2.3.1.1-.3.2-.6.1-.9-.5-.2-1-.3-1.6-.3 0-.5-.1-1-.1-1.6v-1c0-2.2 0-3.9.1-6l-.2-.2c-1.2.1-2.3.3-3.4.8 0 .2 0 .6.1.8.6.1 1.1.2 1.6.3v5.7c0 .4 0 .8-.1 1.2-.6.2-1.1.3-1.6.3.1.4.2.6.2.9m2.2-11.5c.8-.1 1.4-.8 1.5-1.6-.1-.7-.6-1.2-1.2-1.2-.8.1-1.4.8-1.5 1.6.1.7.5 1.2 1.2 1.2m-10 11.6c.7 0 1.3-.1 2-.3l3-8.2 1.2-.3c0-.3 0-.7-.1-.9h-4c-.1.3-.2.6-.2.9l1.6.3-2.6 7.2-.1-1.5-2.1-5.7 1.6-.3c.1-.3 0-.7-.1-.9h-4.4c-.1.3-.2.6-.2.9l1.2.3 3.2 8.5zm-14.4-.1c.8 0 1.6-.1 2.6-.1.5 0 1.7 0 2.3.1.1-.3.2-.6.1-.9-.5-.2-1.1-.3-1.6-.3 0-.5-.1-1-.1-1.6v-6.8c0-2.2 0-3.9.1-6l-.2-.2c-1.2.1-2.3.3-3.4.8 0 .2 0 .6.1.8.6.1 1.1.2 1.6.3v11.5c0 .4 0 .8-.1 1.2-.6.2-1.1.3-1.6.3 0 .5.1.7.2.9m-8.8-2.6c0-.4.2-.9.4-1.2 1.1-.5 2.2-.8 3.5-.9v2.4c-.7.6-1.4 1-2.3 1.1-1.2 0-1.6-.6-1.6-1.4m.5 3c1.3-.2 2.6-.8 3.5-1.6.2 1 .6 1.6 1 1.6.9-.1 1.7-.5 2.4-1.1 0-.2-.1-.6-.3-.8-.4.2-.9.2-1.3.3-.1-.6-.1-1.1-.1-1.6v-3.9c0-2.8-2.1-3.2-3.3-3.2-1.3 0-2.6.3-3.7 1.1 0 .8.2 1.5.5 2.2.4.1.8.1 1.2-.2 0-.6 0-1.1.2-1.6.6-.1 1.1-.2 1.6-.2 1.4 0 1.7 1.1 1.7 2.6-2.6.5-5.7 1.6-5.7 3.9-.1 1.2.8 2.3 2.1 2.5h.2m-7.8 0c1.4-.1 2.7-.6 3.8-1.4 0-.3-.2-.6-.3-.8-1 .4-2.1.7-3.1.8-2.2 0-2.9-2.4-2.9-4 0-1.1.3-2.1 1.1-2.9.5-.2 1.1-.4 1.7-.4.5 0 1.1 0 1.6.1.1.6.2 1.2.2 1.7.4.2.8.2 1.2.1.3-.8.4-1.7.4-2.6-1.1-.4-2.2-.7-3.3-.6-2.8 0-4.6 2.7-4.6 5.2 0 2.6 1.2 4.8 4.2 4.8m-10.4-.3c.8 0 1.6-.1 2.6-.1.5 0 1.8 0 2.3.1.1-.3.2-.6.1-.9-.5-.2-1-.3-1.6-.3 0-.5-.1-1-.1-1.6v-1c0-2.2 0-3.9.1-6l-.2-.2c-1.2.1-2.3.3-3.4.8 0 .2 0 .6.1.8.6.1 1.1.2 1.6.3v5.7c0 .4 0 .8-.1 1.2-.6.2-1.1.3-1.6.3 0 .4.1.7.2.9m2.2-11.5c.8-.1 1.4-.8 1.5-1.6-.1-.7-.6-1.2-1.2-1.2-.8.1-1.4.8-1.5 1.6 0 .8.5 1.2 1.2 1.2m-7.8 11.8c2.2 0 3.9-1.2 3.9-3 0-3.3-5.1-2.6-5.1-4.7 0-.8.2-1.2 1.8-1.2.5 0 .9.1 1.3.2.2.5.2 1.1.2 1.6.3.2.8.2 1.1.1.2-.8.3-1.6.3-2.6-1-.2-2-.4-3-.4-1.7 0-3.6.7-3.6 2.7 0 2.2 2.4 2.4 4 3.2.6.2 1.1.8 1.1 1.4 0 1.2-.5 1.6-1.8 1.6-.7 0-1.3-.1-1.9-.3-.1-.7-.2-1.4-.2-2.1-.3-.2-.7-.2-1 0-.2 1-.4 2-.4 3 1 .3 2.2.5 3.3.5m-11.8 0c1.4 0 2.4-.9 3.4-2 .2 1 .6 2 1.1 2 .9-.1 1.7-.5 2.4-1.1 0-.2-.1-.6-.3-.8-.4.2-.9.2-1.3.3-.1-.6-.1-1.1-.1-1.6v-.8c0-2.3 0-3.9.1-6l-.2-.2h-.8c-.9 0-1.6 0-2.4-.1-.1.3-.1.7-.1.9.6.1 1.2.2 1.6.4v5.5c-.6.6-2 1.6-2.8 1.6-1.2 0-1.6-1-1.6-2.6 0-1.2 0-3.6.1-5.6l-.2-.2h-.9c-.9 0-1.6 0-2.4-.1-.1.3-.1.7-.1.9.6.1 1.1.2 1.6.4v5.4c0 2.7 1.1 3.7 2.9 3.7m-21.8-.4c.8 0 1.6-.1 2.6-.1.5 0 1.8 0 2.3.1.1-.3.2-.6.2-.9-.5-.2-1.1-.3-1.6-.3-.1-.5-.1-1-.1-1.6v-4.9c.7-.5 1.5-.8 2.3-.8 1.6 0 1.8 1.2 1.8 2.6v3.5c0 .4 0 .8-.1 1.2-.5.2-1 .2-1.5.3 0 .3.1.7.2.9.6 0 1.5-.1 2.3-.1.5 0 1.6 0 2.2.1.1-.3.1-.6.1-.9-.4-.2-.9-.3-1.3-.3 0-.5-.1-1-.1-1.6v-3.9c0-.3 0-.7-.1-1 .8-.5 1.6-.8 2.4-.9 1.6 0 1.8 1.2 1.8 2.6v3.5c0 .4 0 .8-.1 1.2-.6.2-1.1.3-1.6.3 0 .3.1.7.2.9.8 0 1.6-.1 2.6-.1.5 0 1.7 0 2.3.1.1-.3.2-.6.2-.9-.5-.2-1-.3-1.6-.3 0-.5-.1-1-.1-1.6v-3.9c0-2.3-1-3.3-2.8-3.3-1.3.1-2.6.7-3.4 1.6-.3-1.1-1.4-1.7-2.6-1.6-1.2.1-2.3.6-3.2 1.4-.1-.5-.2-.9-.2-1.2l-.2-.2c-1 .1-2 .3-3 .8 0 .2 0 .6.1.8.6.1 1.1.2 1.6.3v5.6c0 .4 0 .8-.1 1.2-.6.2-1.1.3-1.6.3 0 .5 0 .7.1 1.1m-11.6 0c.8 0 1.6-.1 2.6-.1s2.1 0 3.2.1c.1-.3.2-.6.1-.9-.8-.2-1.6-.3-2.5-.3-.1-.5-.1-1-.1-1.6v-5.6h2.5c.1-.4.1-.8.1-1.2l-2.6-.1v-.7c0-1.8.3-3.2.8-3.6.4-.2.9-.4 1.4-.4.4 0 .8 0 1.2.1.1.6.2 1.2.2 1.7.3.2.8.2 1.2.1.3-.9.5-1.8.5-2.7-.9-.3-1.8-.5-2.7-.5-2.6 0-4.1 2.3-4.1 5.9v.2c-.6.1-1.1.2-1.6.2-.1.2-.1.6 0 .8.5.1 1.1.2 1.6.2v6c0 .4 0 .8-.1 1.2-.6.2-1.1.3-1.6.3 0 .3 0 .7.2.9m-5.9-1.1c-2.2 0-3-2.4-3-4.1 0-1.1.3-2.2 1.1-3 .4-.2.9-.4 1.5-.4 2.2 0 3 2.4 3 4.1 0 1.1-.3 2.2-1.1 3-.5.2-1.1.4-1.5.4m-.4 1.3c3 0 4.6-2.8 4.6-5.3 0-2.8-1.4-5-4.4-5-3 0-4.6 2.8-4.6 5.3 0 3 1.4 5 4.4 5m-15.2-.2c.8 0 1.6-.1 2.6-.1.5 0 1.8 0 2.3.1.1-.3.2-.6.2-.9-.5-.2-1.1-.3-1.6-.3 0-.5-.1-1-.1-1.6v-6.8c0-2.2 0-3.9.1-6l-.2-.2c-1.2.1-2.3.3-3.4.8 0 .2 0 .6.1.8.6.1 1.1.2 1.6.3v11.6c0 .4 0 .8-.1 1.2-.6.2-1.1.3-1.6.3.1.3.1.5.1.8m-6.4 0c.8 0 1.6-.1 2.6-.1.5 0 1.7 0 2.3.1.1-.3.2-.6.1-.9-.5-.2-1.1-.3-1.6-.3 0-.5-.1-1-.1-1.6v-6.8c0-2.2 0-3.9.1-6l-.2-.2c-1.2.1-2.3.3-3.4.8 0 .2 0 .6.1.8.6.1 1.1.2 1.6.3v11.5c0 .4 0 .8-.1 1.2-.6.2-1.1.3-1.6.3 0 .4.1.7.2.9m-8.4.4c1.4 0 2.4-.9 3.4-2 .2 1 .6 2 1.1 2 .9-.1 1.7-.5 2.4-1.1 0-.2-.1-.6-.3-.8-.4.2-.9.2-1.3.3-.1-.6-.1-1.1-.1-1.6v-.8c0-2.3 0-3.9.1-6l-.2-.2h-.8c-.9 0-1.6 0-2.4-.1-.1.3-.2.7-.2.9.6.1 1.2.2 1.6.4v5.5c-.6.6-2 1.6-2.8 1.6-1.2 0-1.6-1-1.6-2.6v-5.6l-.2-.2h-.7c-.9 0-1.6 0-2.4-.1-.1.3-.1.7-.1.9.6.1 1.1.2 1.6.4v5.3c.1 2.7 1.1 3.8 2.9 3.8m-11.8-.4c.8 0 1.6-.1 2.6-.1.9 0 2.1 0 3.2.1.1-.3.2-.6.2-.9-.8-.2-1.6-.3-2.5-.3 0-.5-.1-1-.1-1.6v-5.6h2.5c.1-.4.1-.8.1-1.2l-2.6-.1v-.7c0-1.8.3-3.2.8-3.6.4-.2.9-.4 1.4-.4.3 0 .8 0 1.1.1.1.6.2 1.2.2 1.7.3.2.8.2 1.2.1.3-.9.4-1.8.5-2.7-.9-.3-1.8-.5-2.7-.5-2.6 0-4.1 2.3-4.1 5.9v.2c-.6.1-1.1.2-1.6.2-.1.2 0 .6.1.8.5.1 1.1.2 1.6.2v6c0 .4 0 .8-.1 1.2-.6.2-1.1.3-1.6.3-.4.3-.3.6-.2.9m-10.2-1.1c-2.2 0-3-2.4-3-4.1 0-1.1.3-2.2 1.1-3 .4-.2.9-.4 1.5-.4 2.2 0 3 2.4 3 4.1 0 1.1-.3 2.2-1.1 3-.5.2-1 .4-1.5.4m-.4 1.3c3 0 4.6-2.8 4.6-5.3 0-2.8-1.4-5-4.4-5s-4.6 2.8-4.6 5.3c0 3 1.4 5 4.4 5m-10.1 0c2.2 0 3.9-1.2 3.9-3 0-3.3-5.1-2.6-5.1-4.7 0-.8.2-1.2 1.8-1.2.5 0 .9.1 1.3.2.2.5.2 1.1.2 1.6.3.2.8.2 1.1.1.2-.8.4-1.6.4-2.6-1-.2-2-.4-3-.4-1.7 0-3.6.7-3.6 2.7 0 2.2 2.4 2.4 4 3.2.6.2 1.1.8 1.1 1.4 0 1.2-.5 1.6-1.8 1.6-.7 0-1.3-.1-1.9-.3-.1-.7-.2-1.4-.2-2.1-.3-.2-.7-.2-1 0-.2 1-.4 2-.4 3 1.1.3 2.1.5 3.2.5M76 170.6c0-1.1.3-2.1 1.1-2.9.4-.2.9-.4 1.5-.4.9 0 1.7.2 2.6.5v5.3c-.8.8-2 1.6-2.6 1.6-1.8-.1-2.6-2-2.6-4.1m1.9 5.5c1.2 0 2.3-.9 3.1-1.9.2.9.6 1.9 1.1 1.9.9-.1 1.7-.5 2.4-1.1 0-.2-.1-.6-.3-.8-.4.2-.9.2-1.3.3-.1-.6-.1-1.1-.1-1.6v-6.8c0-2.2 0-3.9.1-6l-.2-.2c-1.2.1-2.5.3-3.6.8-.1.2 0 .6.1.8.7.1 1.2.2 1.9.3v4.7c-.8-.4-1.5-.7-2.3-.8-2.3 0-4.4 2.3-4.4 5.2-.2 3 1 5.2 3.5 5.2m-11-8.5c.4-.2.9-.4 1.4-.4 1.9 0 2.2 1.3 2.2 2.6-.5.1-1.5.1-2.6.1h-2.1c.2-.9.5-1.6 1.1-2.3m1.5 8.5c1.5-.2 2.8-.7 4-1.5 0-.2-.2-.6-.3-.8-1.1.4-2.2.7-3.3.8-2.1 0-2.7-2-2.8-3.7h6.2l.2-.2c.1-.4.1-.8.1-1.2 0-1.8-.8-3.7-3.7-3.7-2.6 0-4.6 2.7-4.6 5.3-.1 2.8 1.2 4.9 4.2 5m-16.7-.3c.8 0 1.6-.1 2.6-.1.5 0 1.8 0 2.3.1.1-.3.2-.6.2-.9-.5-.2-1.1-.3-1.6-.3 0-.5-.1-1-.1-1.6v-4.8c.8-.6 1.6-.9 2.6-.9 1.6 0 1.9 1.2 1.9 2.6v3.5c0 .4 0 .8-.1 1.2-.6.2-1.1.3-1.6.3 0 .3.1.7.2.9.8 0 1.6-.1 2.6-.1.5 0 1.8 0 2.3.1.1-.3.2-.6.2-.9-.5-.2-1.1-.3-1.6-.3 0-.5-.1-1-.1-1.6v-3.8c0-2.3-1.1-3.3-2.9-3.3-1.3.1-2.6.6-3.6 1.4-.1-.4-.2-.9-.2-1.2l-.2-.2c-1 .1-2 .3-3 .8 0 .2 0 .6.1.8.6.1 1.1.2 1.6.3v5.6c0 .4 0 .8-.1 1.2-.6.2-1.1.3-1.6.3 0 .4 0 .7.1.9m-9.5.1c.8 0 1.6-.1 2.6-.1.7 0 2.5 0 3.2.1.1-.3.2-.6.2-.9-.8-.2-1.6-.3-2.5-.3 0-.5-.1-1-.1-1.6v-4c.8-1.3 1.6-1.6 2.3-1.6h.6c.2.8.2 1.5.2 2.3.3.1.8.1 1.1 0 .2-1.2.4-2.3.4-3.6-.6-.2-1.2-.2-1.6-.2-1.2.1-2.3.8-2.9 1.9l-.3-1.8-.2-.2c-1 .1-2 .3-3 .8 0 .2 0 .6.1.8.6.1 1.1.2 1.6.3v5.6c0 .4 0 .8-.1 1.2-.6.2-1.1.3-1.6.3-.1.3-.1.6 0 1m-8.5.2c1.4 0 2.4-.9 3.4-2 .2 1 .6 2 1.1 2 .8-.1 1.6-.5 2.3-1.1 0-.2-.1-.6-.3-.8-.4.2-.9.2-1.3.3-.1-.6-.1-1.1-.1-1.6v-.8c0-2.3 0-3.9.1-6l-.2-.2h-.8c-.9 0-1.6 0-2.4-.1-.1.3-.1.7-.2.9.6.1 1.2.2 1.6.4v5.5c-.6.6-2 1.6-2.8 1.6-1.2 0-1.6-1-1.6-2.6V166l-.2-.2h-.8c-.9 0-1.6 0-2.4-.1-.1.3-.2.7-.2.9.6.1 1.2.2 1.6.4v5.3c0 2.3 1 3.4 2.9 3.4m-8.7.4c1.2 0 2.3-.3 3.3-.9 0-.3-.1-.7-.3-.9-.7.2-1.3.4-2.1.4-.7 0-1-.8-1-2.2v-5h3.2c.1-.4.1-.8.1-1.2l-3.3-.1v-2.7c-.3-.1-.8-.2-1.1-.1l-.7 2.8c-.6 0-1.1.1-1.6.2-.1.2 0 .6 0 .8.6.1 1.2.2 1.6.2v5.8c0 1.9.5 3 1.9 2.9m-10.3-8.5c.4-.2.9-.4 1.4-.4 1.9 0 2.2 1.3 2.2 2.6-.5.1-1.5.1-2.6.1h-2.1c.2-.9.5-1.6 1.1-2.3m1.4 8.5c1.5-.2 2.8-.7 4-1.5 0-.3-.1-.6-.3-.8-1.1.4-2.2.7-3.3.8-2.1 0-2.7-2-2.9-3.7h6.2l.2-.2c.1-.4.1-.8.1-1.2 0-1.8-.8-3.7-3.7-3.7-2.6 0-4.6 2.7-4.6 5.3.1 2.8 1.3 4.9 4.3 5m-13.5-.3c.8 0 1.6-.1 2.6-.1.7 0 2.5 0 3.2.1.1-.3.2-.6.1-.9-.8-.2-1.6-.3-2.5-.3-.1-.5-.1-1-.1-1.6v-4c.8-1.3 1.6-1.6 2.3-1.6h.6c.2.8.2 1.5.2 2.3.3.1.8.1 1.1 0 .2-1.2.4-2.3.3-3.6-.5-.2-1.1-.2-1.6-.2-1.2.1-2.3.8-2.9 1.9-.1-.6-.2-1.1-.4-1.6L5 166c-1 .1-2.1.3-3 .8 0 .2 0 .6.1.8.6.1 1.1.2 1.6.3v5.6c0 .4 0 .8-.1 1.2-.6.2-1.1.3-1.6.3 0 .3 0 .7.2.9M309 154.5c1.6 0 2.9-2.3 4.1-5.4l3.1-8.2 1.2-.3c.1-.3 0-.7-.1-.9h-4c-.1.3-.2.6-.2.9l1.6.3-2.7 7.2-.1-1.5-2.2-5.7 1.6-.3c.1-.3 0-.7-.1-.9h-4.6c-.1.3-.2.6-.2.9l1.2.3 3.2 8.4h.7l-.3.8c-.8 1.8-1.9 3.1-3.9 3.1h-.2c-.2.2-.3.6-.3.9.7.1 1.5.4 2.2.4m-9.2-13.6c.4-.2.9-.4 1.5-.4 1.9 0 2.2 1.3 2.2 2.6-.5.1-1.5.1-2.6.1h-2.1c0-.9.5-1.6 1-2.3m1.4 8.5c1.5-.2 2.9-.7 4.1-1.5 0-.3-.2-.6-.3-.8-1.1.4-2.2.7-3.4.8-2.1 0-2.8-2-2.9-3.7h6.4l.2-.2c.1-.4.1-.8.1-1.2 0-1.8-.8-3.7-3.8-3.7-2.7 0-4.6 2.7-4.6 5.3 0 2.8 1.3 4.9 4.2 5m-16.9-.3c.8 0 1.7-.1 2.6-.1.5 0 1.8 0 2.4.1.1-.3.2-.6.2-.9-.5-.2-1.1-.3-1.6-.3 0-.5-.1-1-.1-1.6v-5.1c.8-.4 1.7-.6 2.6-.6 1.6 0 2 1.2 2 2.6v3.5c0 .4 0 .7-.1 1.2-.6.2-1.2.2-1.7.3 0 .3 0 .7.2.9.8 0 1.7-.1 2.6-.1.5 0 1.8 0 2.4.1.1-.3.2-.6.2-.9-.5-.2-1.1-.3-1.6-.3 0-.5-.1-1-.1-1.6v-3.9c0-2.3-1.1-3.3-3-3.3-1.2 0-2.5.4-3.5 1.1v-.8c0-2.2 0-3.9.1-6l-.2-.2c-1.2.1-2.3.3-3.5.8 0 .2 0 .6.1.8.6.1 1.1.2 1.6.3v11.6c0 .4 0 .8-.1 1.2-.6.2-1.2.2-1.7.3 0 .3.1.7.2.9m-4.8.3c1.2 0 2.3-.3 3.3-1 0-.3-.1-.7-.3-.9-.7.2-1.4.4-2.2.4-.7 0-1-.8-1-2.3v-5h3.2c.1-.4.1-.8.1-1.2l-3.3-.1v-2.7c-.3-.1-.8-.2-1.1-.1l-.8 2.8c-.6 0-1.1.1-1.6.2-.1.2 0 .6 0 .8.6.1 1.2.2 1.6.2v5.8c.2 2.2.7 3.2 2.1 3.1m-11.9.1c1.2 0 2.3-.3 3.3-1 0-.3-.1-.7-.3-.9-.7.2-1.4.4-2.2.4-.7 0-1-.8-1-2.3v-5h3.2c.1-.4.1-.8.1-1.2l-3.3-.1v-2.7c-.3-.1-.8-.2-1.1-.1l-.8 2.8c-.6 0-1.1.1-1.6.2-.1.2 0 .6 0 .8.6.1 1.2.2 1.6.2v5.8c.3 2.1.7 3.1 2.1 3.1m-11.4-3c0-.4.2-.9.4-1.2 1.1-.5 2.3-.8 3.5-.9v2.4c-.7.6-1.5 1-2.3 1.1-1.2 0-1.6-.6-1.6-1.4m.5 3c1.3-.2 2.6-.8 3.6-1.6.2 1 .7 1.6 1.1 1.6.9-.1 1.7-.5 2.4-1.1 0-.2-.1-.6-.3-.8-.4.2-.9.2-1.3.3-.1-.6-.1-1.1-.1-1.6v-3.9c0-2.8-2.1-3.2-3.4-3.2s-2.6.3-3.8 1.1c0 .8.2 1.5.5 2.2.4.1.8.1 1.2-.2 0-.6 0-1.1.2-1.6.6-.1 1.1-.2 1.6-.2 1.5 0 1.8 1.1 1.8 2.6-2.7.5-5.8 1.6-5.8 3.9-.1 1.2.8 2.4 2.1 2.5h.2m-15.5-.2c.8 0 1.7-.1 2.6-.1.5 0 1.8 0 2.4.1.1-.3.2-.6.1-.9-.5-.2-1.1-.3-1.6-.3-.1-.5-.1-1-.1-1.6v-5.1c.8-.4 1.7-.6 2.6-.6 1.6 0 2 1.2 2 2.6v3.5c0 .4 0 .7-.1 1.2-.6.2-1.2.2-1.7.3 0 .3.1.7.2.9.8 0 1.7-.1 2.6-.1.5 0 1.8 0 2.4.1.1-.3.2-.6.2-.9-.5-.2-1.1-.3-1.6-.3 0-.5-.1-1-.1-1.6v-3.9c0-2.3-1.1-3.3-2.9-3.3-1.2 0-2.5.4-3.5 1.1v-.8c0-2.2 0-3.9.1-6l-.2-.2c-1.2.1-2.3.3-3.5.8 0 .2 0 .6.1.8.6.1 1.1.2 1.6.3V147c0 .4 0 .8-.1 1.2-.6.2-1.2.2-1.7.3 0 .2 0 .5.2.8m-4.7.3c1.2 0 2.3-.3 3.3-1 0-.3-.1-.7-.3-.9-.7.2-1.4.4-2.1.4-.7 0-1-.8-1-2.3v-5h3.2c.1-.4.1-.8.1-1.2l-3.3-.1v-2.7c-.3-.1-.8-.2-1.1-.1l-.8 2.8c-.6 0-1.1.1-1.6.2-.1.2 0 .6 0 .8.6.1 1.2.2 1.6.2v5.8c0 2 .6 3.1 2 3.1m-15-8.5c.4-.2.9-.4 1.5-.4 1.9 0 2.2 1.3 2.2 2.6-.5.1-1.5.1-2.6.1h-2.2c.2-.9.6-1.7 1.1-2.3m1.5 8.5c1.5-.2 2.9-.7 4.1-1.5 0-.3-.1-.6-.3-.8-1.1.4-2.2.7-3.4.8-2.1 0-2.8-2-2.9-3.7h6.4l.2-.2c.1-.4.1-.8.1-1.2 0-1.8-.8-3.7-3.8-3.7-2.7 0-4.6 2.7-4.6 5.3-.1 2.8 1.2 4.9 4.2 5m-10.1-.1c2.2 0 4-1.2 4-3 0-3.3-5.2-2.6-5.2-4.7 0-.8.2-1.2 1.8-1.2.5 0 .9.1 1.3.2.2.5.2 1.1.2 1.6.3.2.8.2 1.1.1.2-.8.4-1.6.4-2.6-1-.2-2-.4-3-.4-1.7 0-3.7.7-3.7 2.7 0 2.2 2.5 2.4 4 3.2.7.3 1.1.8 1.1 1.4 0 1.2-.5 1.6-1.9 1.6-.7 0-1.3-.1-2-.3-.1-.7-.2-1.4-.2-2.1-.3-.2-.7-.2-1 0-.2 1-.4 2-.4 3 1.3.3 2.4.5 3.5.5m-10.1-.2c.8 0 1.7-.1 2.6-.1.5 0 1.8 0 2.4.1.1-.3.2-.6.1-.9-.5-.2-1.1-.3-1.6-.3 0-.5-.1-1-.1-1.6v-1c0-2.2 0-3.9.1-6l-.2-.2c-1.2.1-2.3.3-3.5.8 0 .2 0 .6.1.8.6.1 1.1.2 1.6.3v5.7c0 .4 0 .8-.1 1.2-.6.2-1.2.3-1.7.3.1.3.1.6.3.9m2.2-11.6c.8-.1 1.5-.8 1.5-1.6-.1-.7-.7-1.2-1.3-1.2-.8.1-1.4.8-1.5 1.6.1.8.6 1.2 1.3 1.2m-11.9 11.6c.8 0 1.7-.1 2.6-.1.8 0 2.5 0 3.3.1.1-.3.2-.6.1-.9-.8-.2-1.6-.3-2.5-.3-.1-.5-.1-1-.1-1.6v-4c.9-1.3 1.6-1.6 2.4-1.6h.6c.2.8.2 1.5.2 2.3.3.2.8.2 1.1 0 .2-1.2.4-2.3.4-3.6-.6-.2-1.2-.2-1.7-.2-1.2.1-2.4.8-3 1.9l-.3-1.8-.2-.2c-1.1.1-2.1.3-3 .8 0 .2 0 .6.1.8.6.1 1.1.2 1.6.3v5.6c0 .4 0 .8-.1 1.2-.6.2-1.2.2-1.7.3 0 .4 0 .6.2 1m-6.1-8.6c1.7 0 2.6 2 2.6 4 0 1.1-.3 2.2-1.1 3-.4.2-.9.4-1.3.4-1.1 0-2.2-.5-2.9-1.3v-5.2c.9-.5 1.7-.8 2.7-.9m-6.1 13.7c.9 0 1.7-.1 2.6-.1.8 0 2.2 0 3.3.1.1-.3.2-.6.1-.9-.8-.2-1.6-.3-2.5-.3 0-.5-.1-1-.1-1.6v-3c.8.6 1.7.9 2.6 1 2.6 0 4.4-2.8 4.4-5.3 0-3-1.6-4.9-3.9-4.9-1.2 0-2.5.5-3.4 1.3-.1-.3-.2-.8-.2-1.1l-.2-.2c-1.1.1-2.1.3-3 .8 0 .2 0 .6.1.8.6.1 1.1.2 1.6.3V152c0 .4 0 .8-.1 1.2-.6.2-1.2.2-1.7.3.3.3.3.6.4.9m-9.5-5.1c.8 0 1.7-.1 2.6-.1.8 0 2.6 0 3.3.1.1-.3.2-.6.1-.9-.8-.2-1.6-.3-2.5-.3-.1-.5-.1-1-.1-1.6v-4c.9-1.3 1.6-1.6 2.4-1.6h.6c.2.8.2 1.5.2 2.3.3.2.8.2 1.1 0 .2-1.2.4-2.3.4-3.6-.6-.2-1.2-.2-1.7-.2-1.2.1-2.4.8-3 1.9l-.3-1.8-.2-.2c-1.1.1-2.1.3-3 .8 0 .2 0 .6.1.8.6.1 1.1.2 1.6.3v5.6c0 .4 0 .8-.1 1.2-.6.2-1.2.2-1.7.3 0 .4.1.6.2 1m-8.7.2c1.4 0 2.5-.9 3.5-2 .2 1 .6 2 1.1 2 .9-.1 1.8-.4 2.5-1.1 0-.2-.1-.6-.3-.8-.4.2-.9.2-1.3.3-.1-.6-.1-1.1-.1-1.6v-.8c0-2.2 0-3.9.1-6l-.2-.2h-.8c-.9 0-1.6 0-2.5-.1-.1.3-.1.7-.1.9.6.1 1.2.2 1.6.4v5.5c-.6.6-2 1.6-2.9 1.6-1.2 0-1.6-1-1.6-2.6 0-1.2 0-3.6.1-5.6l-.2-.2h-.8c-.9 0-1.6 0-2.5-.1-.1.3-.1.7-.1.9.6.1 1.1.2 1.6.4v5.3c-.1 2.8 1 3.8 2.9 3.8m-10.1-.1c2.2 0 4-1.2 4-3 0-3.3-5.2-2.6-5.2-4.7 0-.8.2-1.2 1.8-1.2.5 0 .9.1 1.3.2.2.5.2 1.1.2 1.6.3.2.8.2 1.1.1.2-.8.4-1.6.4-2.6-1-.2-2-.4-3-.4-1.7 0-3.7.7-3.7 2.7 0 2.2 2.5 2.4 4 3.2.7.3 1.1.8 1.1 1.4 0 1.2-.5 1.6-1.9 1.6-.7 0-1.3-.1-2-.3-.1-.7-.2-1.4-.2-2.1-.3-.2-.7-.2-1 0-.2 1-.4 2-.4 3 1.3.4 2.4.6 3.5.5m-17-.1c.8 0 1.7-.1 2.6-.1.8 0 2.5 0 3.3.1.1-.3.2-.6.2-.9-.8-.2-1.6-.3-2.6-.3 0-.5-.1-1-.1-1.6v-4c.9-1.3 1.6-1.6 2.4-1.6h.6c.2.8.2 1.5.2 2.3.3.2.8.2 1.1 0 .2-1.2.4-2.3.4-3.6-.6-.2-1.2-.2-1.7-.2-1.2.1-2.4.8-3 1.9l-.3-1.8-.2-.2c-1.1.1-2.1.3-3 .8 0 .2 0 .6.1.8.6.1 1.1.2 1.6.3v5.6c0 .4 0 .8-.1 1.2-.6.2-1.2.2-1.7.3 0 .3 0 .6.2 1m-7.6-8.4c.4-.2.9-.4 1.5-.4 1.9 0 2.2 1.3 2.2 2.6-.5.1-1.5.1-2.6.1H127c.1-.8.4-1.6 1-2.3m1.5 8.6c1.5-.2 2.9-.7 4.1-1.5 0-.3-.1-.6-.3-.8-1.1.4-2.2.7-3.4.8-2.1 0-2.8-2-2.9-3.7h6.4l.2-.2c.1-.4.1-.8.1-1.2 0-1.8-.8-3.7-3.8-3.7-2.7 0-4.6 2.7-4.6 5.3-.1 2.8 1.1 4.9 4.2 5m-8.7-.1c1.2 0 2.3-.4 3.3-1 0-.3-.1-.7-.3-.9-.7.2-1.4.4-2.2.4-.7 0-1-.8-1-2.3v-5h3.2c.1-.4.1-.8.1-1.2l-3.3-.1v-2.7c-.3-.1-.8-.2-1.1-.1l-.8 2.8c-.6 0-1.1.1-1.6.2-.1.2-.1.6 0 .8.6.1 1.2.2 1.6.2v5.8c.1 2.2.6 3.1 2.1 3.1m-10.6-8.5c.4-.2.9-.4 1.5-.4 1.9 0 2.2 1.3 2.2 2.6-.5.1-1.5.1-2.6.1h-2.1c0-.8.4-1.6 1-2.3m1.4 8.5c1.5-.2 2.9-.7 4.1-1.5 0-.3-.2-.6-.3-.8-1.1.4-2.2.7-3.4.8-2.1 0-2.8-2-2.9-3.7h6.4l.2-.2c.1-.4.1-.8.1-1.2 0-1.8-.8-3.7-3.8-3.7-2.7 0-4.6 2.7-4.6 5.3-.1 2.8 1.2 5 4.2 5m-11.8-8.5c.4-.2.9-.4 1.5-.4 1.9 0 2.2 1.3 2.2 2.6-.6.1-1.5.1-2.6.1h-2.1c.1-.9.5-1.7 1-2.3m1.5 8.5c1.5-.2 2.9-.7 4.1-1.5 0-.3-.2-.6-.3-.8-1.1.4-2.2.7-3.4.8-2.1 0-2.8-2-2.9-3.7h6.4l.2-.2c.1-.4.1-.8.1-1.2 0-1.8-.8-3.7-3.8-3.7-2.7 0-4.6 2.7-4.6 5.3-.1 2.8 1.2 4.9 4.2 5m-17.5-.2c.7 0 1.4-.1 2.1-.3l2.2-7.7.2 1.6 1.7 6.4c.8 0 1.4-.1 2.2-.3l2.7-8.2 1.2-.3c0-.3 0-.7-.1-.9h-4c-.1.3-.2.6-.2.9l1.6.3-2.2 7.3-.2-1.5-1.9-7c-.7 0-1.2.1-1.8.2l-2.3 8.4-.1-1.5-1.8-5.7 1.6-.3c.1-.3 0-.7-.1-.9h-4.7c-.1.3-.2.6-.2.9l1.2.3 2.9 8.3zm-9.4.1c2.2 0 4-1.2 4-3 0-3.3-5.2-2.6-5.2-4.7 0-.8.2-1.2 1.8-1.2.5 0 .9.1 1.4.2.2.6.3 1.2.3 1.7.3.2.8.2 1.1.1.2-.8.4-1.6.4-2.6-1-.2-2-.4-3-.4-1.7 0-3.7.7-3.7 2.7 0 2.2 2.5 2.4 4 3.2.7.3 1.1.8 1.1 1.4 0 1.2-.5 1.6-1.9 1.6-.7 0-1.3-.1-1.9-.3-.1-.7-.2-1.4-.2-2.1-.3-.2-.7-.2-1 0-.2 1-.4 2-.4 3 1.1.4 2.2.6 3.3.6M61.4 148c.5.1.8.6.8 1.1-.2 1-.7 1.8-1.4 2.5 0 .3.2.6.5.7 1.5-.7 3-2.5 3-4 .1-.8-.6-1.5-1.3-1.6h-.2c-.7 0-1.3.6-1.4 1.3m-9 1.2c.8 0 1.7-.1 2.6-.1.7 0 2.5 0 3.3.1.1-.3.2-.6.2-.9-.8-.2-1.6-.3-2.5-.3 0-.5-.1-1-.1-1.6v-4c.8-1.3 1.6-1.6 2.4-1.6h.6c.2.8.2 1.5.2 2.3.3.2.8.2 1.1 0 .2-1.2.4-2.3.4-3.6-.6-.2-1.2-.2-1.7-.2-1.2.1-2.4.8-3 1.9l-.3-1.8-.2-.2c-1.1.1-2.1.3-3 .8 0 .2 0 .6.1.8.6.1 1.1.2 1.6.3v5.6c0 .4 0 .8-.1 1.2-.6.2-1.2.2-1.7.3 0 .3.1.7.1 1m-7.5-8.3c.4-.2.9-.4 1.5-.4 1.9 0 2.2 1.3 2.2 2.6-.6.1-1.5.1-2.6.1h-2.1c.1-.9.5-1.6 1-2.3m1.5 8.5c1.5-.2 2.9-.7 4.1-1.5 0-.3-.1-.6-.3-.8-1.1.4-2.2.7-3.4.8-2.1 0-2.8-2-2.9-3.7h6.4l.2-.2c.1-.4.1-.8.1-1.2 0-1.8-.8-3.7-3.8-3.7-2.7 0-4.6 2.7-4.6 5.3-.1 2.8 1.2 4.9 4.2 5M33 151.3c.1-.8.4-1.5 1-2.1.8.2 1.6.2 2.4.2 2.1 0 2.8.5 2.8 1.5 0 .7-.2 1.2-.6 1.7-.9.4-1.8.7-2.8.6-2.3 0-2.8-1.1-2.8-1.9m2.7-6.3c-1.3-.1-2.3-1.2-2.3-2.5 0-.7.3-1.2.8-1.7.4-.2.9-.2 1.3-.2 1.3-.1 2.4.9 2.5 2.2 0 .8-.2 1.4-.8 1.9-.4.2-1 .3-1.5.3m-.3 1.3c3 0 4.4-2 4.4-3.8 0-.8-.2-1.5-.7-2.1.9-.2 1.9-.6 2.5-.8 0-.6-.3-1.1-.8-1.4-.9.3-1.7.9-2.5 1.6-.8-.4-1.5-.6-2.3-.5-2.2-.2-4 1.5-4.2 3.6v.2c-.1 1.5.9 2.8 2.3 3-.6.5-.9 1.2-1 1.9 0 .3.1.6.2.8-1 .6-2.1 1.6-2.1 2.9 0 1.3 1.4 2.9 4 2.9 3.5 0 5.7-1.4 5.7-4.3 0-1.4-1.4-2.4-4.1-2.4-.7.1-1.4 0-2.1-.2-.1-.2-.1-.4-.1-.6 0-.3.1-.6.2-.8h.6m-13.5 5c.1-.8.4-1.5 1-2.1.8.2 1.6.2 2.4.2 2.1 0 2.8.5 2.8 1.5 0 .7-.2 1.2-.6 1.7-.9.4-1.8.7-2.8.6-2.3 0-2.8-1.1-2.8-1.9m2.6-6.3c-1.3-.1-2.3-1.2-2.3-2.5 0-.7.3-1.2.8-1.7.4-.2.9-.2 1.3-.2 1.3-.1 2.4.9 2.5 2.2 0 .8-.3 1.4-.8 1.9-.4.2-.9.3-1.5.3m-.3 1.3c3 0 4.4-2 4.4-3.8 0-.8-.2-1.5-.7-2.1.9-.2 1.9-.6 2.5-.8 0-.6-.3-1.1-.8-1.4-.9.3-1.7.9-2.5 1.6-.8-.4-1.5-.6-2.3-.5-2.2-.2-4 1.5-4.2 3.6v.2c-.1 1.5.9 2.8 2.3 3-.6.5-.9 1.2-1 1.9 0 .3.1.6.2.8-1 .6-2.1 1.6-2.1 2.9s1.4 2.9 4 2.9c3.5 0 5.7-1.4 5.7-4.3 0-1.4-1.4-2.4-4.1-2.4-.7.1-1.4 0-2.1-.2-.1-.2-.1-.4-.1-.6 0-.3.1-.6.2-.8h.6M14 149.2c.8 0 1.7-.1 2.6-.1.5 0 1.8 0 2.4.1.1-.3.2-.6.1-.9-.5-.2-1.1-.3-1.6-.3 0-.5-.1-1-.1-1.6v-1c0-2.2 0-3.9.1-6l-.2-.2c-1.2.1-2.3.3-3.5.8 0 .2 0 .6.1.8.6.1 1.1.2 1.6.3v6.8c-.6.2-1.2.3-1.7.3.1.4.2.7.2 1m2.3-11.6c.8-.1 1.5-.8 1.5-1.6-.1-.7-.7-1.2-1.2-1.2-.8.1-1.4.8-1.5 1.6 0 .8.5 1.2 1.2 1.2m-8.2 3.2c1.7 0 2.6 2 2.6 4 0 1.1-.4 2.2-1.1 3-.4.2-.8.4-1.3.4-1.1-.1-2.2-.5-2.9-1.3v-5.3c.9-.5 1.8-.8 2.7-.8m-4.5 8.8c.6-.3 1-.8 1.4-1.2.9.7 2 1.1 3.1 1.2 2.6 0 4.4-2.8 4.4-5.3 0-3-1.6-4.9-3.9-4.9-1.2 0-2.3.4-3.2 1.2v-.9c0-2.2 0-3.9.1-6l-.2-.2c-1.2.1-2.3.3-3.5.8 0 .2 0 .6.1.8.6.1 1.1.2 1.6.3V147c0 .8-.2 1.6-.7 2.4.2 0 .5.2.8.2m305.8-29.7c0-.4.2-.9.4-1.2 1.1-.5 2.2-.8 3.5-.9v2.4c-.7.6-1.4 1-2.3 1.1-1.2 0-1.6-.7-1.6-1.4m.5 3c1.3-.2 2.6-.8 3.5-1.6.2 1 .6 1.6 1 1.6.9-.1 1.7-.5 2.4-1.1 0-.2-.1-.6-.3-.8-.4.2-.9.2-1.3.3-.1-.6-.1-1.1-.1-1.6v-3.9c0-2.8-2.1-3.2-3.3-3.2-1.3 0-2.6.3-3.7 1.1 0 .8.2 1.5.5 2.2.4.1.8.1 1.2-.2 0-.6 0-1.1.2-1.6.6-.1 1.1-.2 1.6-.2 1.4 0 1.7 1.1 1.7 2.6-2.7.5-5.8 1.6-5.8 3.9-.1 1.2.8 2.4 2.1 2.5h.3m-12.3-.1c2.2 0 3.9-1.2 3.9-3 0-3.3-5.1-2.6-5.1-4.7 0-.8.2-1.2 1.8-1.2.5 0 .9.1 1.3.2.2.5.2 1.1.2 1.6.3.2.8.2 1.1.1.2-.8.4-1.6.4-2.6-1-.2-2-.4-3-.4-1.7 0-3.6.7-3.6 2.7 0 2.2 2.5 2.4 4 3.2.6.2 1.1.8 1.1 1.4 0 1.2-.5 1.6-1.8 1.6-.7 0-1.3-.1-1.9-.3-.1-.7-.2-1.4-.2-2.1-.3-.2-.7-.2-1 0-.2 1-.4 2-.4 3 1.1.3 2.2.5 3.2.5m-6.3-15.1c.5.1.8.5.8 1-.2.9-.6 1.7-1.2 2.3 0 .2.2.5.5.6 1.3-.6 2.8-2.3 2.8-3.7.1-.8-.5-1.4-1.2-1.5h-.2c-.9 0-1.4.6-1.5 1.3m-5.1 15.2c1.2 0 2.3-.3 3.3-1 0-.3-.1-.7-.3-.9-.7.2-1.4.4-2.1.4s-1-.8-1-2.2v-5h3.2c.1-.4.1-.8.1-1.2l-3.3-.1v-2.7c-.3-.1-.8-.2-1.1-.1l-.7 2.8c-.6 0-1.1.1-1.6.2-.1.2 0 .6.1.8.6.1 1.2.2 1.6.2v5.8c-.1 2 .4 3 1.8 3m-9.3-.3c.8 0 1.6-.1 2.6-.1.5 0 1.8 0 2.4.1.1-.3.2-.6.1-.9-.5-.2-1.1-.3-1.6-.3 0-.5-.1-1-.1-1.6v-1c0-2.3 0-3.9.1-6l-.2-.2c-1.2.1-2.3.3-3.4.8 0 .2 0 .6.1.8.6.1 1.1.2 1.6.3v5.7c0 .4 0 .8-.1 1.2-.6.2-1.1.3-1.6.3 0 .3 0 .6.1.9m2.2-11.6c.8-.1 1.4-.8 1.5-1.6-.1-.7-.6-1.2-1.2-1.2-.8.1-1.4.8-1.5 1.6.1.8.6 1.2 1.2 1.2m-10.7 11.9c1.2 0 2.3-.3 3.3-1 0-.3-.1-.7-.3-.9-.7.2-1.4.4-2.1.4-.7 0-1-.8-1-2.2v-5h3.2c.1-.4.1-.8.1-1.2l-3.3-.1v-2.7c-.3-.1-.8-.2-1.1-.1l-.7 2.8c-.6 0-1.1.1-1.6.2-.1.2-.1.6 0 .8.6.1 1.2.2 1.6.2v5.8c-.1 2 .4 3 1.9 3m-11.2 0c1.4 0 2.5-.9 3.5-2 .2 1 .6 2 1.1 2 .9-.1 1.8-.6 2.5-1.2 0-.2-.1-.6-.3-.8-.4.2-.9.2-1.3.3-.1-.6-.1-1.1-.1-1.6v-.8c0-2.3 0-3.9.1-6l-.2-.2h-.8c-.9 0-1.6 0-2.4-.1-.1.3-.1.7-.1.9.6.1 1.2.2 1.6.4v5.5c-.6.6-2 1.6-2.8 1.6-1.2 0-1.6-1-1.6-2.6v-5.6l-.2-.2h-.8c-.9 0-1.6 0-2.5-.1-.1.3-.1.7-.1.9.6.1 1.1.2 1.6.4v5.3c0 2.3 1 3.4 2.9 3.4m-10.5-6.5c1.7 0 3.1 1.1 3.1 2.6.1.9-.2 1.7-.9 2.3-.8.3-1.6.5-2.5.4h-2v-5.3h2.3zm-.3-5.9c1.2 0 2.3 1.1 2.3 2.3v.1c0 1.2-.8 2.2-2.7 2.2h-1.6V110c.7.1 1.4 0 2 0m.3 12.5c3.5 0 5-2.4 5-4.6 0-1.5-1-2.8-3.1-3.1 1.2-.5 2.1-1.6 2.1-3 0-1.7-1.5-3.1-3.2-3.1h-.2c-1 0-2.3.1-3.8.1H241c-.1.3-.2.7-.2 1 .7.1 1.2.2 1.8.4.1.8.1 1.6.1 2.8v6.1c0 .8 0 1.4-.1 2.2-.6.2-1.2.3-1.8.4 0 .3.1.7.2 1 .9 0 1.7-.1 2.6-.1 1.2-.1 2.2 0 3.2-.1m-15.4-1.1c0 .8.7 1.5 1.5 1.5s1.5-.7 1.5-1.5c-.1-.8-.8-1.4-1.6-1.3-.8.1-1.3.6-1.4 1.3m-7.8-7.1c.4-.2.9-.4 1.4-.4 1.9 0 2.2 1.3 2.2 2.6-.5.1-1.5.1-2.6.1h-2.1c.1-.9.5-1.7 1.1-2.3m1.4 8.5c1.5-.2 2.9-.7 4-1.5 0-.3-.1-.6-.3-.8-1.1.4-2.2.7-3.3.8-2.1 0-2.7-2-2.9-3.7h2.5c1.6 0 3 0 3.8.1l.2-.2c.1-.4.1-.8.1-1.2 0-1.8-.8-3.7-3.7-3.7-2.6 0-4.6 2.7-4.6 5.3-.1 2.7 1.2 4.9 4.2 4.9m-22.3-.3c.8 0 1.6-.1 2.6-.1.5 0 1.8 0 2.4.1.1-.3.2-.6.1-.9-.5-.2-1.1-.3-1.6-.3-.1-.5-.1-1-.1-1.6v-4.9c.7-.5 1.5-.8 2.3-.8 1.6 0 1.8 1.2 1.8 2.6v3.5c0 .4 0 .8-.1 1.2-.5.2-1 .2-1.5.3 0 .3.1.7.2.9.6 0 1.5-.1 2.3-.1.5 0 1.6 0 2.2.1.1-.3.1-.6.1-.9-.4-.2-.9-.3-1.4-.3v-5.4c0-.3 0-.7-.1-1 .8-.5 1.6-.8 2.5-.9 1.6 0 1.8 1.2 1.8 2.6v3.5c0 .4 0 .8-.1 1.2-.6.2-1.1.3-1.6.3 0 .3 0 .7.2.9.8 0 1.6-.1 2.6-.1.5 0 1.8 0 2.3.1.1-.3.2-.6.2-.9-.5-.2-1.1-.3-1.6-.3 0-.5-.1-1-.1-1.6v-3.9c0-2.3-1-3.3-2.8-3.3-1.3.1-2.6.7-3.4 1.6-.3-1.1-1.4-1.7-2.6-1.6-1.2.1-2.3.6-3.2 1.4-.1-.5-.2-.9-.2-1.2l-.2-.2c-1 .1-2.1.3-3 .8 0 .2 0 .6.1.8.6.1 1.1.2 1.6.3v5.6c0 .4 0 .8-.1 1.2-.6.2-1.1.3-1.6.3-.1.4-.1.7 0 1m-8.9-2.6c0-.4.2-.9.4-1.2 1.1-.5 2.2-.8 3.5-.9v2.4c-.7.6-1.4 1-2.3 1.1-1.1 0-1.6-.7-1.6-1.4m.5 3c1.3-.2 2.6-.8 3.5-1.6.2 1 .6 1.6 1 1.6.9-.1 1.7-.5 2.4-1.1 0-.2-.1-.6-.3-.8-.4.2-.9.2-1.3.3-.1-.6-.1-1.1-.1-1.6v-3.9c0-2.8-2.1-3.2-3.3-3.2-1.3 0-2.6.4-3.7 1.1 0 .8.2 1.5.5 2.2.4.1.8.1 1.2-.2 0-.6 0-1.1.2-1.6.6-.1 1.1-.2 1.6-.2 1.4 0 1.7 1.1 1.7 2.6-2.7.5-5.8 1.6-5.8 3.9-.1 1.2.8 2.4 2.1 2.5h.3m-11.7 1.8c.1-.8.4-1.5 1-2.1.8.2 1.6.2 2.4.2 2 0 2.7.5 2.7 1.5 0 .7-.2 1.2-.6 1.7-.8.4-1.8.7-2.8.6-2.2.1-2.7-1.1-2.7-1.9m2.6-6.3c-1.2 0-2.3-1.1-2.3-2.3v-.2c0-.7.3-1.3.8-1.7.4-.2.9-.2 1.3-.2 1.3-.1 2.4 1 2.4 2.3 0 .8-.2 1.4-.8 1.9-.4.1-.9.2-1.4.2m-.3 1.3c3 0 4.3-2 4.3-3.8 0-.8-.2-1.5-.7-2.1.8-.2 1.8-.6 2.4-.8 0-.6-.3-1.1-.8-1.4-.9.3-1.7.9-2.5 1.6-.7-.4-1.5-.6-2.3-.5-2.2-.2-4 1.5-4.1 3.6v.2c-.2 1.5.9 2.8 2.3 3-.6.5-.9 1.2-1 1.9 0 .3.1.6.2.8-1.2.5-1.9 1.6-2.1 2.9 0 1.4 1.4 2.9 4 2.9 3.5 0 5.7-1.4 5.7-4.3 0-1.4-1.3-2.4-4.1-2.4-.7 0-1.3 0-2-.2-.1-.2-.1-.4-.1-.6 0-.3.1-.6.2-.8h.6m-15.4-5.4c.4-.2.9-.4 1.4-.4 1.9 0 2.2 1.3 2.2 2.6-.5.1-1.5.1-2.6.1h-2.1c.2-.9.6-1.7 1.1-2.3m1.5 8.5c1.5-.2 2.9-.7 4-1.5 0-.3-.1-.6-.3-.8-1.1.4-2.2.7-3.4.8-2.1 0-2.7-2-2.9-3.7h2.5c1.6 0 3 0 3.8.1l.2-.2c.1-.4.1-.8.1-1.2 0-1.8-.8-3.7-3.7-3.7-2.6 0-4.6 2.7-4.6 5.3 0 2.7 1.3 4.9 4.3 4.9m-16.7-.3c.8 0 1.6-.1 2.6-.1.5 0 1.8 0 2.4.1.1-.3.2-.6.1-.9-.5-.2-1.1-.3-1.6-.3 0-.5-.1-1-.1-1.6v-5.1c.8-.4 1.7-.6 2.6-.6 1.6 0 1.9 1.2 1.9 2.6v3.5c0 .4 0 .8-.1 1.2-.6.2-1.2.3-1.7.3 0 .3.1.7.2.9.8 0 1.6-.1 2.6-.1.5 0 1.8 0 2.4.1.1-.3.2-.6.2-.9-.5-.2-1.1-.3-1.6-.3-.1-.5-.1-1-.1-1.6v-3.9c0-2.3-1.1-3.3-2.9-3.3-1.2 0-2.4.4-3.5 1.1v-.8c0-2.2 0-3.9.1-6l-.2-.2c-1.2.1-2.3.3-3.4.8 0 .2 0 .6.1.8.6.1 1.1.2 1.6.3V120c0 .4 0 .8-.1 1.2-.6.2-1.1.3-1.6.3-.1.4 0 .8.1 1m-4.7.4c1.2 0 2.3-.4 3.2-1 0-.3-.1-.7-.3-.9-.7.2-1.4.4-2.1.4s-1-.8-1-2.2v-5h3.2c.1-.4.1-.8.1-1.2l-3.3-.1v-2.7c-.3-.1-.8-.2-1.1-.1l-.7 2.8c-.6 0-1.1.1-1.6.2-.1.2-.1.6.1.8.6.1 1.2.2 1.6.2v5.8c0 1.9.5 3 1.9 3m-20-.4c.8 0 1.6-.1 2.6-.1.5 0 1.8 0 2.4.1.1-.3.2-.6.2-.9-.5-.2-1.1-.3-1.6-.3-.1-.5-.1-1-.1-1.6v-4.8c.8-.6 1.6-.9 2.6-.9 1.6 0 1.9 1.2 1.9 2.6v3.5c0 .4 0 .8-.1 1.2-.6.2-1.1.3-1.6.3 0 .3.1.7.1.9.8 0 1.7-.1 2.6-.1.5 0 1.8 0 2.3.1.1-.3.2-.6.2-.9-.5-.2-1.1-.3-1.6-.3-.1-.5-.1-1-.1-1.6v-3.9c0-2.3-1.1-3.3-2.9-3.3-1.3.1-2.6.6-3.6 1.4-.1-.4-.2-.9-.2-1.2l-.2-.2c-1 .1-2.1.3-3 .8 0 .2 0 .6.1.8.6.1 1.1.2 1.6.3v5.6c0 .4 0 .8-.1 1.2-.6.2-1.1.3-1.6.3.1.4.1.8.1 1m-6.6 0c.8 0 1.6-.1 2.6-.1.5 0 1.8 0 2.4.1.1-.3.2-.6.1-.9-.5-.2-1.1-.3-1.6-.3 0-.5-.1-1-.1-1.6v-1c0-2.3 0-3.9.1-6l-.2-.2c-1.2.1-2.3.3-3.4.8 0 .2 0 .6.1.8.6.1 1.1.2 1.6.3v5.7c0 .4 0 .8-.1 1.2-.6.2-1.1.3-1.6.3-.1.3 0 .7.1.9m2.2-11.6c.8-.1 1.5-.8 1.5-1.6-.1-.7-.6-1.2-1.2-1.2-.8.1-1.4.8-1.5 1.6 0 .8.5 1.2 1.2 1.2m-18.6 11.6c.8 0 1.6-.1 2.6-.1.5 0 1.8 0 2.4.1.1-.3.2-.6.1-.9-.5-.2-1.1-.3-1.6-.3 0-.5-.1-1-.1-1.6v-1.5l1.6-.4c.8 2.5 2.2 5 3.6 5 .9 0 1.8-.2 2.6-.5.1-.3 0-.6-.2-.8-.2.1-.4.1-.7.1-.7 0-1.3-.3-1.7-.9-.9-1.2-1.6-2.4-2.3-3.6l2.7-2.8c.5-.1 1-.2 1.4-.4 0-.3 0-.6-.1-.9h-4.3c-.1.3-.2.6-.2.9l1.3.3-1.9 2.3-1.7.8V113c0-2.2 0-3.9.1-6l-.2-.2c-1.2.1-2.3.3-3.4.8 0 .2 0 .6.1.8.6.1 1.1.2 1.6.3v11.5c0 .4 0 .8-.1 1.2-.6.2-1.1.3-1.6.3-.2.2-.1.6 0 .8m-5.4.4c1.4-.1 2.7-.6 3.9-1.4 0-.3-.2-.6-.3-.8-1 .4-2.1.7-3.1.8-2.2 0-2.9-2.4-2.9-4 0-1.1.3-2.1 1.1-2.9.5-.2 1.1-.4 1.7-.4.5 0 1.1 0 1.6.1.1.6.2 1.2.2 1.7.4.2.8.2 1.2.1.3-.8.5-1.7.4-2.6a9.6 9.6 0 0 0-3.3-.6c-2.8 0-4.6 2.7-4.6 5.2-.1 2.5 1.1 4.8 4.1 4.8m-12.9-3c0-.4.2-.9.4-1.2 1.1-.5 2.2-.8 3.5-.9v2.4c-.7.6-1.4 1-2.3 1.1-1.1 0-1.6-.7-1.6-1.4m.5 3c1.3-.2 2.6-.8 3.5-1.6.2 1 .6 1.6 1 1.6.9-.1 1.7-.5 2.4-1.1 0-.2-.1-.6-.3-.8-.4.2-.9.2-1.3.3-.1-.6-.1-1.1-.1-1.6v-3.9c0-2.8-2.1-3.2-3.3-3.2-1.3 0-2.6.4-3.7 1.1 0 .8.2 1.5.5 2.2.4.1.8.1 1.2-.2 0-.6 0-1.1.2-1.6.6-.1 1.1-.2 1.6-.2 1.4 0 1.7 1.1 1.7 2.6-2.7.5-5.8 1.6-5.8 3.9-.1 1.2.8 2.4 2.1 2.5h.3m-8.4-8.8c1.7 0 2.6 2 2.6 4 0 1.1-.3 2.2-1.1 3-.4.2-.8.4-1.3.4-1.1-.1-2.1-.5-2.9-1.2v-5.4c.8-.5 1.7-.8 2.7-.8m-4.5 8.8c.5-.3 1-.8 1.3-1.2.9.7 2 1.1 3.1 1.2 2.6 0 4.4-2.8 4.4-5.3 0-3-1.6-4.9-3.8-4.9-1.2 0-2.3.4-3.2 1.2v-1c0-2.2 0-3.9.1-6l-.2-.2c-1.2.1-2.3.3-3.5.8 0 .2 0 .6.1.8.6.1 1.1.2 1.6.3v11.5c0 .8-.2 1.6-.7 2.4.3.3.5.4.8.4m-10.8-.1c2.2 0 3.9-1.2 3.9-3 0-3.3-5.1-2.6-5.1-4.7 0-.8.2-1.2 1.8-1.2.5 0 .9.1 1.3.2.2.5.2 1.1.2 1.6.3.2.8.2 1.1.1.2-.8.3-1.6.3-2.6-1-.2-2-.4-3-.4-1.7 0-3.6.7-3.6 2.7 0 2.2 2.4 2.4 4 3.2.6.2 1.1.8 1.1 1.4 0 1.2-.5 1.6-1.8 1.6-.7 0-1.3-.1-1.9-.3-.1-.7-.2-1.4-.2-2.1-.3-.2-.7-.2-1 0-.2 1-.4 2-.4 3 1 .3 2.2.5 3.3.5m-10.7-8.5c.4-.2.9-.4 1.4-.4 1.9 0 2.2 1.3 2.2 2.6-.5.1-1.5.1-2.6.1h-2.1c.2-.9.5-1.7 1.1-2.3m1.4 8.5c1.5-.2 2.9-.7 4-1.5 0-.3-.2-.6-.3-.8-1.1.4-2.2.7-3.3.8-2.1 0-2.7-2-2.9-3.7h2.5c1.6 0 3 0 3.8.1l.2-.2c.1-.4.1-.8.1-1.2 0-1.8-.8-3.7-3.7-3.7-2.6 0-4.6 2.7-4.6 5.3.1 2.7 1.3 4.9 4.2 4.9m-13.9-5.6c0-1.1.3-2.1 1.1-2.9.4-.2.9-.4 1.5-.4.9 0 1.7.2 2.6.5v5.3c-.8.8-2 1.6-2.6 1.6-1.8 0-2.6-2-2.6-4.1m1.9 5.6c1.2 0 2.3-.9 3.1-1.9.2.9.6 1.9 1.1 1.9.9-.1 1.7-.5 2.3-1.1 0-.2-.1-.6-.3-.8-.4.2-.9.2-1.3.3-.1-.6-.1-1.1-.1-1.6v-6.8c0-2.2 0-3.9.1-6l-.2-.2c-1.2.1-2.5.3-3.7.8 0 .2 0 .6.1.8.7.1 1.2.2 1.9.3v4.7c-.8-.4-1.5-.7-2.3-.8-2.3 0-4.6 2.3-4.6 5.2.1 3 1.3 5.3 3.9 5.2m-11.1-8.5c.4-.2.9-.4 1.4-.4 1.9 0 2.2 1.3 2.2 2.6-.5.1-1.5.1-2.6.1h-2.1c.2-.9.5-1.7 1.1-2.3m1.4 8.5c1.5-.2 2.9-.7 4-1.5 0-.3-.1-.6-.3-.8-1.1.4-2.2.7-3.3.8-2.1 0-2.7-2-2.9-3.7h2.5c1.6 0 3 0 3.8.1l.2-.2c.1-.4.1-.8.1-1.2 0-1.8-.8-3.7-3.7-3.7-2.6 0-4.6 2.7-4.6 5.3 0 2.7 1.2 4.9 4.2 4.9m-17.3-.2c.7 0 1.4-.1 2.1-.3l2.2-7.7.1 1.6 1.7 6.4c.8 0 1.4-.1 2.1-.3l2.7-8.2 1.2-.3c0-.3 0-.7-.1-.9h-4c-.1.3-.2.6-.2.9l1.6.3-2.3 7.2-.1-1.5-1.9-7c-.6 0-1.2.1-1.8.2l-2.3 8.4-.1-1.5-1.8-5.7 1.6-.3c.1-.3 0-.7-.1-.9H13c-.1.3-.2.6-.2.9l1.2.3 2.8 8.4zm-9.7.2c2.5.2 4.6-1.7 4.8-4.3v-.3c0-2-1.6-3-3.3-3.6l-1.8-.7c-1-.3-2.2-1.2-2.2-2.3 0-.6.2-1.1.6-1.5.7-.2 1.3-.3 2-.3.8 0 1.6.1 2.4.2.2.7.2 1.3.3 2 .3.2.8.2 1.1.1.3-1 .4-2.1.5-3.1-1.3-.5-2.6-.8-4-.8-2.2 0-4.8 1-4.8 3.9 0 2.1 2 3 3.6 3.6l1.6.6c1.1.4 2.2 1.2 2.2 2.2.1.8-.2 1.6-.8 2.2-.6.3-1.3.5-2 .5-1 0-1.9-.1-2.8-.3-.4-.9-.5-1.7-.5-2.6-.3-.2-.8-.2-1.1-.1-.3 1.2-.5 2.3-.5 3.6 1.5.7 3 1.1 4.7 1m303.5-35.1c.4-.2.9-.4 1.4-.4 1.8 0 2.2 1.3 2.2 2.6-.5 0-1.4.1-2.6.1h-2.1c.2-.9.5-1.7 1.1-2.3m1.4 8.5c1.4-.2 2.8-.7 4-1.5 0-.3-.2-.6-.3-.8-1.1.4-2.2.7-3.3.8-2.1 0-2.7-2-2.8-3.7h6.2l.2-.2c.1-.4.1-.8.1-1.2 0-1.8-.8-3.7-3.7-3.7-2.6 0-4.4 2.7-4.4 5.3-.2 2.7 1 4.9 4 5m-9.8-.1c2.2 0 3.8-1.1 3.8-3 0-3.3-5-2.6-5-4.7 0-.8.2-1.2 1.8-1.2.4 0 .9.1 1.3.2.2.5.2 1.1.2 1.6.3.1.8.1 1.1 0 .2-.8.3-1.6.4-2.6-1-.2-2-.4-3-.4-1.6 0-3.6.7-3.6 2.7 0 2.2 2.4 2.4 4 3.2.6.2 1 .8 1.1 1.4 0 1.2-.5 1.5-1.8 1.5-.7 0-1.3-.1-1.9-.2-.1-.7-.2-1.4-.2-2.1-.3-.2-.7-.2-1 0-.2 1-.3 2-.4 3 1.1.4 2.2.6 3.2.6m-10.5-8.4c.4-.2.9-.4 1.4-.4 1.8 0 2.2 1.3 2.2 2.6-.5 0-1.4.1-2.6.1h-2c.1-.9.4-1.7 1-2.3m1.5 8.5c1.4-.2 2.8-.7 4-1.5 0-.3-.2-.6-.3-.8-1.1.4-2.2.7-3.3.8-2.1 0-2.7-2-2.8-3.7h6.2l.2-.2c.1-.4.1-.8.1-1.2 0-1.8-.8-3.7-3.7-3.7-2.6 0-4.4 2.7-4.4 5.3-.2 2.7 1 4.9 4 5m-16.6-.3h4.8c.1-.3.2-.6.1-.9-.5-.2-1-.3-1.6-.3 0-.5-.1-1-.1-1.6V88c.8-.4 1.7-.6 2.6-.6 1.6 0 1.9 1.2 1.9 2.6v3.4c0 .4 0 .8-.1 1.2-.6.2-1.1.3-1.6.3 0 .3.1.7.2.9h4.8c.1-.3.2-.6.2-.9-.5-.2-1.1-.3-1.6-.3 0-.5-.1-1-.1-1.6v-3.9c0-2.3-1-3.3-2.9-3.3-1.2 0-2.4.4-3.4 1.1v-.8c0-2.2 0-3.9.1-6l-.2-.2c-1.2.1-2.3.3-3.4.8 0 .2 0 .6.1.8.6.1 1.1.2 1.6.3v11.6c0 .4 0 .8-.1 1.2-.6.2-1.1.3-1.6.3l.3 1m-4.4.3c1.2 0 2.2-.4 3.2-1 0-.3-.1-.8-.4-1-.7.2-1.3.4-2.1.4-.7 0-1-.8-1-2.2v-5h3.1c.1-.4.1-.8.1-1.2h-3.2v-2.7c-.3-.1-.7-.2-1.1-.2l-.7 2.8c-.6 0-1.1.1-1.6.2-.1.2 0 .6 0 .8.5.1 1.2.2 1.6.2v5.8c.1 2.1.6 3.2 2.1 3.1m-14.6-8.5c.4-.2.9-.4 1.4-.4 1.8 0 2.2 1.3 2.2 2.6-.5 0-1.4.1-2.6.1h-2.1c.3-.9.6-1.7 1.1-2.3m1.4 8.5c1.4-.2 2.8-.7 4-1.5 0-.3-.2-.6-.3-.8-1.1.4-2.2.7-3.3.8-2.1 0-2.7-2-2.8-3.7h6.2l.2-.2c.1-.4.1-.8.1-1.2 0-1.8-.8-3.7-3.7-3.7-2.6 0-4.4 2.7-4.4 5.3-.2 2.7 1.1 4.9 4 5m-11.2-.3c.7 0 1.3-.1 1.9-.2l3-8.2 1.2-.3c0-.3 0-.7-.1-.9h-4c-.1.3-.2.6-.2.9l1.6.3-2.6 7.2-.1-1.5-2.1-5.7 1.6-.3c.1-.3 0-.7-.1-.9h-4.4c-.1.3-.2.6-.2.9l1.2.3 3.3 8.4zm-11.7-2.8c0-.4.2-.9.4-1.2 1.1-.5 2.2-.8 3.4-.8v2.4c-.7.6-1.4 1-2.2 1.1-.8.1-1.4-.4-1.6-1.2 0 0-.1-.1 0-.3m.5 3.1c1.3-.2 2.5-.8 3.4-1.6.2 1 .6 1.6 1 1.6.9-.1 1.7-.5 2.4-1.1 0-.2-.1-.6-.3-.8-.4.2-.9.2-1.3.3-.1-.6-.1-1.1-.1-1.6v-3.9c0-2.8-2.1-3.2-3.3-3.2-1.3 0-2.6.3-3.7 1.1 0 .8.2 1.5.5 2.2.4.1.8.1 1.2-.2 0-.6 0-1.1.2-1.6.6-.1 1.1-.2 1.6-.2 1.4 0 1.7 1.1 1.7 2.6-2.6.5-5.7 1.6-5.7 3.9-.2 1.2.8 2.3 2 2.5h.4m-15-.3h4.8c.1-.3.2-.6.1-.9-.5-.2-1-.3-1.6-.3 0-.5-.1-1-.1-1.6V88c.8-.4 1.7-.6 2.6-.6 1.6 0 1.9 1.2 1.9 2.6v3.4c0 .4 0 .8-.1 1.2-.6.2-1.1.3-1.6.3 0 .3.1.7.2.9h4.8c.1-.3.2-.6.2-.9-.5-.2-1.1-.3-1.6-.3 0-.5-.1-1-.1-1.6v-3.9c0-2.3-1-3.3-2.9-3.3-1.2 0-2.4.4-3.4 1.1v-.8c0-2.2 0-3.9.1-6l-.2-.2c-1.2.1-2.3.3-3.4.8 0 .2 0 .6.1.8.6.1 1.1.2 1.6.3v11.6c0 .4 0 .8-.1 1.2-.6.2-1.1.3-1.6.3l.3 1m-9.9-1.1c-2.2 0-3-2.4-3-4.1 0-1.1.3-2.2 1-3 .4-.2.9-.4 1.4-.4 2.2 0 3 2.4 3 4.1 0 1.1-.3 2.2-1.1 3-.2.2-.7.4-1.3.4m-.3 1.4c2.9 0 4.6-2.8 4.6-5.3 0-2.8-1.3-5-4.4-5-3 0-4.6 2.8-4.6 5.3 0 2.9 1.4 5 4.4 5m-8.6 0c1.2 0 2.2-.4 3.2-1 0-.3-.1-.7-.3-.9-.7.2-1.3.4-2.1.4-.7 0-1-.8-1-2.2v-5h3.1c.1-.4.1-.8.1-1.2h-3.2v-2.7c-.3-.1-.7-.2-1.1-.2l-.7 2.8c-.6 0-1.1.1-1.6.2-.1.2-.1.6 0 .8.6.1 1.2.2 1.6.2v5.8c0 2 .5 3.1 2 3m-14.5-8.5c.4-.2.9-.4 1.4-.4 1.8 0 2.2 1.3 2.2 2.6-.5 0-1.4.1-2.6.1h-2.1c.2-.9.5-1.7 1.1-2.3m1.4 8.5c1.4-.2 2.8-.7 4-1.5 0-.2-.1-.6-.3-.8-1.1.4-2.2.7-3.3.8-2.1 0-2.7-2-2.8-3.7h6.2l.2-.2c.1-.4.1-.8.1-1.2 0-1.8-.8-3.7-3.7-3.7-2.6 0-4.4 2.7-4.4 5.3-.2 2.7 1 4.9 4 5M180 96c2.2 0 3.8-1.1 3.8-3 0-3.3-5-2.6-5-4.7 0-.8.2-1.2 1.8-1.2.4 0 .9.1 1.3.2.2.5.2 1.1.2 1.6.3.1.8.1 1.1 0 .2-.8.3-1.6.3-2.6-1-.2-2-.4-3-.4-1.6 0-3.6.7-3.6 2.7 0 2.2 2.4 2.4 4 3.2.6.2 1.1.8 1.1 1.4 0 1.2-.5 1.5-1.8 1.5-.7 0-1.3-.1-1.9-.2-.1-.7-.2-1.4-.2-2.1-.3-.2-.7-.2-1 0-.2 1-.3 2-.3 3 .9.5 2.1.6 3.2.6m-9.9-.1h4.8c.1-.3.2-.6.1-.9-.5-.2-1-.3-1.6-.3 0-.5-.1-1-.1-1.6v-1c0-2.3 0-3.9.1-6l-.2-.2c-1.2.1-2.3.3-3.4.8 0 .2 0 .6.1.8.6.1 1.1.2 1.6.3v5.6c0 .4 0 .8-.1 1.2-.6.2-1.1.3-1.6.3.2.4.2.7.3 1m2.2-11.5c.8-.1 1.4-.8 1.4-1.6-.1-.7-.6-1.2-1.2-1.2-.8.1-1.4.8-1.4 1.6 0 .7.5 1.2 1.2 1.2m-11.6 11.5h5.7c.1-.3.2-.6.1-.9-.8-.2-1.6-.3-2.5-.3-.1-.5-.1-1-.1-1.6v-4c.8-1.4 1.6-1.6 2.3-1.6.2 0 .3 0 .5.1.2.8.2 1.5.2 2.3.3.2.8.2 1.1 0 .2-1.2.4-2.3.3-3.6-.5-.2-1.1-.2-1.6-.2-1.2.1-2.3.8-2.9 1.9l-.3-1.8-.2-.2c-1 .1-2 .3-3 .8 0 .2 0 .6.1.8.6.1 1.1.2 1.6.3v5.6c0 .4 0 .8-.1 1.2-.6.2-1.1.3-1.6.3.2.3.3.6.4.9m-5.8-8.6c1.7 0 2.6 2 2.6 4 0 1.1-.3 2.2-1 3-.4.2-.8.4-1.3.4-1.1 0-2.1-.5-2.8-1.3v-5.2c.7-.5 1.6-.9 2.5-.9M149 101h5.7c.1-.3.2-.6.1-.9-.8-.2-1.6-.3-2.5-.3 0-.5-.1-1-.1-1.6v-3c.8.6 1.6.9 2.6 1 2.5 0 4.3-2.8 4.3-5.3 0-3-1.6-4.9-3.8-4.9-1.2 0-2.4.5-3.3 1.3-.1-.3-.2-.8-.2-1.1l-.2-.2c-1 .1-2 .3-3 .8 0 .2 0 .6.1.8.6.1 1.1.2 1.6.3v10.8c0 .4 0 .8-.1 1.2-.5.2-1.1.3-1.6.3.2.3.2.5.4.8m-9.3-5.1h5.7c.1-.3.2-.6.1-.9-.8-.2-1.6-.3-2.5-.3 0-.5-.1-1-.1-1.6v-4c.8-1.4 1.6-1.6 2.3-1.6.2 0 .3 0 .5.1.2.8.2 1.5.2 2.3.3.1.8.1 1.1 0 .2-1.2.4-2.3.3-3.6-.5-.2-1.1-.2-1.6-.2-1.2.1-2.3.8-2.9 1.9l-.3-1.8-.2-.2c-1 .1-2 .3-3 .8 0 .2 0 .6.1.8.6.1 1.1.2 1.6.3v5.6c0 .4 0 .8-.1 1.2-.6.2-1.1.3-1.6.3.3.3.3.6.4.9m-8.4.2c1.4 0 2.4-.9 3.4-2 .2 1 .5 2 1 2 .9-.1 1.7-.5 2.4-1.1 0-.2-.1-.6-.3-.8-.4.2-.9.2-1.3.3-.1-.6-.1-1.1-.1-1.6v-.8c0-2.3 0-3.9.1-6l-.2-.2h-3.1c-.1.3-.1.7-.1.9.6.1 1.2.2 1.6.4v5.5c-.6.6-1.9 1.6-2.8 1.6-1.2 0-1.6-1-1.6-2.6 0-1.2 0-3.6.1-5.6l-.2-.2h-3.1c-.1.3-.1.7-.1.9.6.1 1.2.2 1.6.4v5.3c0 2.6 1 3.7 2.7 3.6m-9.7.1c2.2 0 3.8-1.1 3.8-3 0-3.3-5-2.6-5-4.7 0-.8.2-1.2 1.8-1.2.4 0 .9.1 1.3.2.2.5.2 1.1.2 1.6.3.1.8.1 1.1 0 .2-.8.3-1.6.3-2.6-1-.2-2-.4-3-.4-1.6 0-3.6.7-3.6 2.7 0 2.2 2.4 2.4 4 3.2.6.2 1 .8 1.1 1.4 0 1.2-.5 1.5-1.8 1.5-.7 0-1.3-.1-1.9-.2-.1-.7-.2-1.4-.2-2.1-.3-.2-.7-.2-1 0-.2 1-.3 2-.3 3 1 .3 2.1.6 3.2.6m-15.9-3c0-.4.2-.9.4-1.2 1.1-.5 2.2-.8 3.4-.8v2.4c-.7.6-1.4 1-2.2 1.1-.8.1-1.4-.4-1.6-1.2v-.3m.5 3c1.3-.2 2.5-.8 3.4-1.6.2 1 .6 1.6 1 1.6.9-.1 1.7-.5 2.4-1.1 0-.2-.1-.6-.3-.8-.4.2-.9.2-1.3.3-.1-.6-.1-1.1-.1-1.6v-3.9c0-2.8-2.1-3.2-3.3-3.2-1.3 0-2.6.4-3.7 1.1 0 .8.2 1.5.5 2.2.4.1.8.1 1.2-.2 0-.6 0-1.1.2-1.6.6-.1 1.1-.2 1.6-.2 1.4 0 1.7 1.1 1.7 2.6-2.6.5-5.7 1.6-5.7 3.9-.2 1.2.8 2.3 2 2.5h.4m-12 0c2.2 0 3.9-1.1 3.9-3 0-3.3-5-2.6-5-4.7 0-.8.2-1.2 1.8-1.2.4 0 .9.1 1.3.2.2.5.2 1.1.2 1.6.3.1.8.1 1.1 0 .2-.8.3-1.6.3-2.6-1-.2-2-.4-3-.4-1.6 0-3.6.7-3.6 2.7 0 2.2 2.4 2.4 4 3.2.6.2 1.1.8 1.1 1.4 0 1.2-.5 1.5-1.8 1.5-.7 0-1.3-.1-1.9-.2-.1-.7-.2-1.4-.2-2.1-.3-.2-.7-.2-1 0-.2 1-.3 2-.3 3 .9.3 2 .5 3.1.6M88 81.1c.5.1.8.5.8 1-.2.9-.6 1.7-1.2 2.3 0 .2.2.5.5.6 1.3-.6 2.7-2.3 2.7-3.7.1-.8-.5-1.4-1.2-1.5h-.2c-.8-.1-1.4.5-1.4 1.3m-5 15.1c1.2 0 2.2-.4 3.2-1 0-.3-.1-.8-.3-1-.7.2-1.3.4-2.1.4-.7 0-1-.8-1-2.2v-5H86v-1.3h-3.2v-2.7c-.3-.1-.7-.2-1.1-.2l-.7 2.9c-.6 0-1.1.1-1.6.2-.1.2-.1.6 0 .8.6.1 1.2.2 1.6.2v5.8c.1 2.1.6 3.2 2 3.1m-9.1-.3h4.8c.1-.3.2-.6.2-.9-.5-.2-1-.3-1.6-.3 0-.5-.1-1-.1-1.6v-1c0-2.3 0-3.9.1-6l-.1-.1c-1.2.1-2.3.3-3.4.8 0 .2 0 .6.1.8.6.1 1.1.2 1.6.3v5.6c0 .4 0 .8-.1 1.2-.6.2-1.1.3-1.6.3 0 .3 0 .6.1.9M76 84.3c.8-.1 1.4-.8 1.4-1.6-.1-.7-.6-1.2-1.2-1.2-.8.1-1.4.8-1.4 1.6 0 .7.6 1.3 1.2 1.2M64.7 94.8c.5.1.8.6.8 1.1-.2 1-.7 1.8-1.3 2.5 0 .3.2.6.5.7 1.4-.7 2.9-2.5 2.9-4 .1-.8-.5-1.5-1.3-1.6h-.2c-.8-.1-1.3.5-1.4 1.3m-10.4-4.1c0-1.1.3-2.1 1-2.9.4-.2.9-.4 1.4-.4.8 0 1.6.2 2.5.5v5.3c-.8.8-1.9 1.6-2.6 1.6-1.6-.1-2.4-2.1-2.3-4.1m1.9 5.5c1.2 0 2.2-.9 3.1-1.9.2.9.6 1.9 1.1 1.9.9-.1 1.7-.5 2.4-1.1 0-.2-.1-.6-.3-.8-.4.2-.9.2-1.3.3-.2-.5-.2-1-.2-1.6v-6.8c0-2.2 0-3.9.1-6l-.1-.1c-1.2.1-2.5.3-3.6.8 0 .2 0 .6.1.8.7.1 1.2.2 1.9.3v4.7c-.7-.4-1.5-.7-2.3-.8-2.3 0-4.4 2.3-4.4 5.2-.2 2.8 1.1 5 3.5 5.1m-10.9-8.5c.4-.2.9-.4 1.4-.4 1.8 0 2.2 1.3 2.2 2.6-.5 0-1.4.1-2.6.1h-2.1c.2-.9.6-1.7 1.1-2.3m1.5 8.5c1.4-.2 2.8-.7 4-1.5 0-.3-.2-.6-.3-.8-1.1.4-2.2.7-3.3.8-2.1 0-2.7-2-2.8-3.7h6.2l.2-.2c.1-.4.1-.8.1-1.2 0-1.8-.8-3.7-3.7-3.7-2.6 0-4.4 2.7-4.4 5.3-.2 2.7 1 4.9 4 5m-11.4-8.5c.4-.2.9-.4 1.4-.4 1.8 0 2.2 1.3 2.2 2.6-.5 0-1.4.1-2.6.1h-2.1c.1-.9.5-1.7 1.1-2.3m1.4 8.5c1.4-.2 2.8-.7 4-1.5 0-.3-.2-.6-.3-.8-1.1.4-2.2.7-3.3.8-2.1 0-2.7-2-2.8-3.7h6.1l.2-.2c.1-.4.1-.8.1-1.2 0-1.8-.8-3.7-3.7-3.7-2.6 0-4.4 2.7-4.4 5.3-.1 2.7 1.1 4.9 4.1 5M23 90.5c0-1.1.3-2.1 1.1-2.9.4-.2.9-.4 1.4-.4.8 0 1.6.2 2.5.5V93c-.8.8-1.9 1.6-2.6 1.6-1.7 0-2.4-2-2.4-4.1m1.8 5.6c1.2 0 2.2-.9 3.1-1.9.2.9.6 1.9 1.1 1.9.9-.1 1.7-.4 2.4-1 0-.2-.1-.6-.3-.8-.4.2-.9.2-1.3.3-.1-.6-.1-1.1-.1-1.6v-6.8c0-2.2 0-3.9.1-6l-.2-.2c-1.2.1-2.5.3-3.6.8 0 .2 0 .6.1.8.7.1 1.2.2 1.9.3v4.7c-.7-.4-1.5-.7-2.3-.8-2.3 0-4.4 2.3-4.4 5.2-.1 2.9 1.2 5.1 3.5 5.1m-15.9-.2h4.8c.1-.3.2-.6.1-.9-.5-.2-1-.3-1.6-.3-.1-.5-.1-1-.1-1.6v-4.8c.8-.6 1.6-.9 2.6-1 1.6 0 1.9 1.2 1.9 2.6v3.5c0 .4 0 .8-.1 1.2-.6.2-1.1.3-1.6.3 0 .3.1.7.1.9h4.9c.1-.3.2-.6.2-.9-.5-.2-1-.3-1.6-.3 0-.5-.1-1-.1-1.6v-3.9c0-2.3-1-3.3-2.9-3.3-1.3.1-2.5.6-3.5 1.4-.1-.4-.2-.9-.2-1.2l-.2-.2c-1 .1-2 .3-3 .8 0 .2 0 .6.1.8.6.1 1.1.2 1.6.3v5.6c0 .4 0 .8-.1 1.2-.6.2-1.1.3-1.6.3.2.5.2.7.3 1.1m-6.6 0h4.8c.1-.3.2-.6.1-.9-.5-.2-1-.3-1.6-.3 0-.5-.1-1-.1-1.6v-1c0-2.3 0-3.9.1-6l-.2-.2c-1.2.1-2.3.3-3.4.8 0 .2 0 .6.1.8.6.1 1.1.2 1.6.3v5.7c0 .4 0 .8-.1 1.2-.4.2-1 .3-1.5.3.1.3.1.6.2.9m2.1-11.5c.8-.1 1.5-.8 1.4-1.6-.1-.7-.6-1.2-1.2-1.2-.8.1-1.4.8-1.4 1.6 0 .6.6 1.2 1.2 1.2M307.8 64c0-1.1.4-2.1 1.1-2.9.5-.2 1-.4 1.5-.4.9 0 1.8.2 2.6.5v5.3c-.8.8-2.1 1.6-2.8 1.6-1.6-.1-2.4-2.1-2.4-4.1m2 5.5c1.2 0 2.4-.9 3.3-1.9.2.9.6 1.9 1.2 1.9.9-.1 1.7-.5 2.5-1.1 0-.2-.1-.6-.3-.8-.5.2-.9.2-1.4.3-.1-.6-.1-1.1-.1-1.6v-6.8c0-2.2 0-3.9.1-6l-.2-.2c-1.3.1-2.6.3-3.8.8 0 .2 0 .6.1.8.7.1 1.3.2 2 .3V60c-.8-.4-1.6-.7-2.4-.8-2.5 0-4.7 2.3-4.7 5.2-.1 2.9 1.2 5.1 3.7 5.1m-17-.2h5.1c.1-.3.2-.6.2-.9-.5-.2-1.1-.3-1.6-.3 0-.5-.1-1-.1-1.6v-4.8c.8-.6 1.7-.9 2.7-1 1.7 0 2 1.2 2 2.6v3.5c0 .4 0 .8-.1 1.2-.6.2-1.2.2-1.7.3 0 .3.1.7.2.9h5.1c.1-.3.2-.6.2-.9-.5-.2-1.1-.3-1.6-.3 0-.5-.1-1-.1-1.6v-3.9c0-2.3-1.1-3.3-3-3.3-1.3.1-2.6.6-3.7 1.4-.1-.4-.2-.9-.2-1.2l-.2-.2c-1.1.1-2.1.3-3.1.8 0 .2 0 .6.1.8.6.1 1.2.2 1.7.3v5.6c0 .4 0 .8-.1 1.2-.6.2-1.2.2-1.7.3-.1.4-.1.7-.1 1.1m-9-12.2l.1 1.5 1.7 4.7h-4.1l2.3-6.2zm-7 12.2h4.9c.1-.3.2-.7.2-1l-1.9-.4 1.2-3.3h1.6c1 0 2.3 0 3.5.1l1.2 3.2-2.1.4c0 .3.1.7.2 1h5.4c.1-.3.2-.7.1-1-.5-.2-1.1-.3-1.6-.4l-4.7-12.6c-.7 0-1.3.1-1.9.2l-4.4 12.3c-.6.2-1.2.3-1.7.4-.2.4-.1.7 0 1.1m-8.9-15c.5.1.8.5.8 1-.2.9-.6 1.7-1.3 2.3 0 .2.2.5.5.6 1.4-.7 2.9-2.3 2.9-3.7.1-.8-.5-1.4-1.2-1.5h-.2c-.8 0-1.4.6-1.5 1.3m-4 0c.5.1.8.5.8 1-.2.9-.7 1.7-1.3 2.3 0 .2.2.5.5.6 1.4-.7 2.9-2.3 2.9-3.7.1-.8-.5-1.4-1.2-1.5h-.2c-.7 0-1.4.6-1.5 1.3m-4.7 13.8c.1.8.8 1.5 1.6 1.4.8-.1 1.3-.7 1.4-1.4-.1-.8-.9-1.4-1.7-1.3-.6.1-1.2.6-1.3 1.3m-11-4.1c0-1.1.4-2.1 1.1-2.9.5-.2 1-.4 1.5-.4.9 0 1.8.2 2.6.5v5.3c-.8.8-2.1 1.6-2.8 1.6-1.6-.1-2.4-2.1-2.4-4.1m1.9 5.5c1.2 0 2.4-.9 3.3-1.9.2.9.6 1.9 1.2 1.9.9-.1 1.7-.5 2.5-1.1 0-.2-.1-.6-.3-.8-.5.2-.9.2-1.4.3-.1-.6-.1-1.1-.1-1.6v-6.8c0-2.2 0-3.9.1-6l-.2-.2c-1.3.1-2.6.3-3.8.8 0 .2 0 .6.1.8.7.1 1.3.2 2 .3V60c-.8-.4-1.6-.7-2.4-.8-2.5 0-4.7 2.3-4.7 5.2-.2 2.9 1.2 5.1 3.7 5.1M238.6 61c.4-.2 1-.4 1.5-.4 2 0 2.3 1.3 2.3 2.6-.6 0-1.5.1-2.6.1h-2.1c-.1-.9.3-1.7.9-2.3m1.5 8.5c1.5-.2 3-.7 4.2-1.5 0-.3-.2-.6-.4-.8-1.1.4-2.3.7-3.5.8-2.2 0-2.9-2-3-3.7h6.5l.2-.2c.1-.4.1-.8.1-1.2 0-1.8-.9-3.7-3.9-3.7-2.8 0-4.7 2.7-4.7 5.3 0 2.8 1.3 4.9 4.5 5m-14.3-.3h6c.1-.3.2-.6.2-.9-.8-.2-1.7-.3-2.6-.3 0-.5-.1-1-.1-1.6v-4c.9-1.4 1.6-1.6 2.5-1.6.2 0 .4 0 .6.1.2.8.2 1.5.2 2.3.3.2.8.2 1.2 0 .3-1.2.4-2.3.4-3.6-.6-.2-1.2-.2-1.7-.2-1.3.1-2.5.8-3 2-.1-.6-.2-1.2-.4-1.8l-.2-.2c-1.1.1-2.1.3-3.1.8 0 .2 0 .6.1.8.6.1 1.2.2 1.7.3v5.6c0 .4 0 .8-.1 1.2-.6.2-1.2.2-1.7.3-.1.2-.1.5 0 .8M218 61c.4-.2 1-.4 1.5-.4 2 0 2.3 1.3 2.3 2.6-.6 0-1.5.1-2.6.1H217c0-.9.4-1.7 1-2.3m1.5 8.5c1.5-.2 3-.7 4.2-1.5 0-.3-.2-.6-.4-.8-1.1.4-2.3.7-3.5.8-2.2 0-2.9-2-3-3.7h6.5l.2-.2c.1-.4.1-.8.1-1.2 0-1.8-.9-3.7-3.9-3.7-2.8 0-4.7 2.7-4.7 5.3 0 2.8 1.4 4.9 4.5 5M204.8 64c0-1.1.4-2.1 1.1-2.9.5-.2 1-.4 1.5-.4.9 0 1.8.2 2.6.5v5.3c-.8.8-2.1 1.6-2.8 1.6-1.6-.1-2.4-2.1-2.4-4.1m2 5.5c1.2 0 2.4-.9 3.3-1.9.2.9.6 1.9 1.2 1.9.9-.1 1.7-.5 2.5-1.1 0-.2-.1-.6-.3-.8-.5.2-.9.2-1.4.3-.1-.6-.1-1.1-.1-1.6v-6.8c0-2.2 0-3.9.1-6l-.2-.2c-1.3.1-2.6.3-3.8.8 0 .2 0 .6.1.8.7.1 1.3.2 2 .3V60c-.8-.4-1.6-.7-2.4-.8-2.5 0-4.7 2.3-4.7 5.2-.1 2.9 1.1 5.1 3.7 5.1m-10.4-.2h5.1c.1-.3.2-.6.2-.9-.5-.2-1.1-.3-1.6-.3-.1-.5-.1-1-.1-1.6v-6.8c0-2.2 0-3.9.1-6l-.2-.2c-1.2.1-2.4.3-3.6.8 0 .2 0 .6.1.8.6.1 1.2.2 1.7.3V67c0 .4 0 .8-.1 1.2-.6.2-1.2.2-1.7.3-.1.2 0 .5.1.8m-7 0h5.1c.1-.3.2-.6.2-.9-.5-.2-1.1-.3-1.6-.3-.1-.5-.1-1-.1-1.6v-1.1c0-2.2 0-3.9.1-6l-.2-.2c-1.2.1-2.4.3-3.6.8 0 .2 0 .6.1.8.6.1 1.2.2 1.7.3v5.7c0 .4 0 .8-.1 1.2-.6.2-1.2.3-1.7.3 0 .4.1.6.1 1m2.4-11.6c.8-.1 1.5-.8 1.5-1.6-.1-.7-.7-1.2-1.3-1.2-.8.1-1.5.8-1.5 1.6 0 .7.6 1.2 1.3 1.2m-16.7 11.6c.8 0 1.4-.1 2.1-.2l2.2-7.7.2 1.6 1.8 6.4c.8 0 1.5-.1 2.2-.2l2.8-8.2 1.2-.3c.1-.3 0-.7-.1-.9h-4.1c-.1.3-.2.6-.2.9l1.6.3-2.4 7.3-.2-1.5-2-7c-.7 0-1.2.1-1.9.2l-2.4 8.4-.1-1.5-1.9-5.7 1.6-.3c.1-.3 0-.7-.1-.9H171c-.1.2-.2.6-.2.9l1.2.3 3.1 8.1zM163.8 61c.4-.2 1-.4 1.5-.4 2 0 2.3 1.3 2.3 2.6-.6 0-1.5.1-2.6.1h-2.2c0-.9.4-1.7 1-2.3m1.4 8.5c1.5-.2 3-.7 4.2-1.5 0-.3-.2-.6-.3-.8-1.1.4-2.3.7-3.5.8-2.2 0-2.9-2-3-3.7h6.4l.2-.2c.1-.4.1-.8.1-1.2 0-1.8-.9-3.7-3.9-3.7-2.8 0-4.7 2.7-4.7 5.3.1 2.8 1.4 4.9 4.5 5m-10.9-8.8c1.8 0 2.7 2 2.7 4 0 1.1-.4 2.2-1.1 3-.4.2-.9.4-1.4.4-1.1-.1-2.2-.5-3-1.3v-5.2c.9-.5 1.8-.8 2.8-.9m-4.7 8.9c.6-.3 1-.8 1.4-1.2.9.8 2.1 1.1 3.2 1.2 2.6 0 4.6-2.8 4.6-5.3 0-3-1.6-4.9-4-4.9-1.2 0-2.4.4-3.3 1.2v-.9c0-2.2 0-3.9.1-6l-.2-.2c-1.2.1-2.4.3-3.6.8 0 .2 0 .6.1.8.6.1 1.2.2 1.7.3V67c0 .8-.2 1.6-.8 2.4.4.1.6.3.8.2m-18.3-.3h5.1c.1-.3.2-.6.2-.9-.5-.2-1.1-.3-1.6-.3-.1-.5-.1-1-.1-1.6V65l1.6-.4c.8 2.5 2.3 5 3.8 5 .9 0 1.8-.2 2.7-.5.1-.3 0-.6-.2-.8-.2 0-.5.1-.8.1-.8 0-1.4-.3-1.8-.9-.9-1.2-1.7-2.4-2.4-3.6l2.8-2.8 1.5-.3c0-.3 0-.6-.2-.9h-4.4c-.1.3-.2.6-.2.9l1.3.3-2 2.3-1.7.8V60c0-2.2 0-3.9.1-6l-.2-.2c-1.2.1-2.4.3-3.6.8 0 .2 0 .6.1.8.6.1 1.2.2 1.7.3v11.6c0 .4 0 .8-.1 1.2-.6.2-1.2.2-1.7.3-.1-.1 0 .2.1.5m-5.8-1.1c-2.3 0-3.1-2.4-3.1-4.1 0-1.1.3-2.2 1.1-3 .5-.2 1-.4 1.5-.4 2.3 0 3.1 2.4 3.1 4.1 0 1.1-.3 2.2-1.1 3-.4.3-.9.4-1.5.4m-.4 1.3c3 0 4.9-2.8 4.9-5.3 0-2.8-1.4-5-4.6-5-3.2 0-4.8 2.8-4.8 5.3 0 2.9 1.4 5 4.5 5m-11-1.4c-2.3 0-3.1-2.4-3.1-4.1 0-1.1.3-2.2 1.1-3 .4-.2 1-.4 1.5-.4 2.3 0 3.1 2.4 3.1 4.1 0 1.1-.3 2.2-1.1 3-.5.3-1 .4-1.5.4m-.4 1.4c3 0 4.9-2.8 4.9-5.3 0-2.8-1.4-5-4.6-5-3.2 0-4.9 2.8-4.9 5.3 0 2.9 1.5 5 4.6 5m-11.1-.2h5.1c.1-.3.2-.6.2-.9-.5-.2-1.1-.3-1.6-.3 0-.5-.1-1-.1-1.6v-6.8c0-2.2 0-3.9.1-6l-.2-.2c-1.2.1-2.4.3-3.6.8-.1.2 0 .6.1.8.6.1 1.2.2 1.7.3V67c0 .4 0 .8-.1 1.2-.6.2-1.2.2-1.7.3-.1.2 0 .5.1.8m-13.1.2c1.4 0 2.6-.9 3.6-2 .2 1 .6 2 1.1 2 .9-.1 1.7-.5 2.5-1.1 0-.2-.1-.6-.3-.8-.5.2-.9.2-1.4.3-.1-.6-.1-1.1-.1-1.6v-.7c0-2.2 0-3.9.1-6l-.2-.2h-3.3c-.1.3-.2.7-.2.9.6.1 1.2.2 1.7.4v5.5c-.6.6-2.1 1.6-3 1.6-1.2-.1-1.6-1-1.6-2.6 0-1.2 0-3.6.1-5.6l-.2-.2h-3.2c-.1.3-.2.7-.2.9.6.1 1.2.2 1.7.4V66c0 2.4 1 3.5 2.9 3.5m-10.4-1.4c-2.3 0-3.1-2.4-3.1-4.1 0-1.1.3-2.2 1.1-3 .4-.2 1-.4 1.5-.4 2.3 0 3.1 2.4 3.1 4.1 0 1.1-.3 2.2-1.1 3-.4.3-.9.4-1.5.4m-.4 1.4c3 0 4.9-2.8 4.9-5.3 0-2.8-1.4-5-4.6-5s-4.8 2.8-4.8 5.3c0 2.9 1.4 5 4.5 5m-14.4 5c1.6 0 3-2.3 4.2-5.4l3.2-8.2 1.2-.3c0-.3 0-.7-.1-.9h-4.1c-.1.3-.2.6-.2.9l1.6.3-2.5 7.1-.1-1.5-2.2-5.7 1.6-.3c.1-.3 0-.6-.1-.9h-4.6c-.1.2-.2.6-.2.9l1.2.3 3.2 8.4h.7l-.2.7c-.9 1.8-1.9 3.1-4 3.1h-.2c-.2.2-.3.6-.3.9.5.4 1.3.6 1.9.6m-16.5 0c1.6 0 3-2.3 4.2-5.4l3.2-8.2c.4-.1.9-.2 1.2-.3 0-.3 0-.7-.1-.9h-4.1c-.1.3-.2.6-.2.9l1.6.3L51 68v-1.5l-2.2-5.7 1.6-.3c.1-.3 0-.6-.1-.9h-4.6c-.1.2-.2.6-.2.9l1.2.3 3.2 8.4h.7l-.2.7c-.9 1.8-1.9 3.1-4 3.1h-.2c-.2.2-.3.6-.3.9.5.4 1.3.6 1.9.6m-10.2-8c0-.4.2-.9.4-1.2 1.2-.5 2.3-.8 3.6-.9v2.4c-.7.6-1.5 1-2.4 1.1-1.1 0-1.6-.6-1.6-1.4m.5 3c1.3-.2 2.6-.8 3.6-1.6.2 1 .7 1.6 1.1 1.6.9-.1 1.7-.5 2.5-1.1 0-.2-.1-.6-.3-.8-.5.2-.9.2-1.4.3-.1-.6-.1-1.1-.1-1.6v-3.9c0-2.8-2.2-3.2-3.5-3.2-1.4 0-2.7.3-3.9 1.1 0 .8.2 1.5.5 2.2.4.1.9.1 1.2-.2 0-.6 0-1.1.2-1.6.6-.1 1.2-.2 1.7-.2 1.5 0 1.8 1.1 1.8 2.6-2.8.5-6 1.6-6 3.9-.1 1.2.8 2.4 2.2 2.5.1.1.3.1.4 0m-8.5 0c2.2 0 4-1.1 4-3 0-3.3-5.4-2.6-5.4-4.7 0-.8.2-1.2 1.9-1.2.5 0 .9.1 1.4.2.2.5.2 1.1.2 1.6.3.1.8.1 1.1 0 .2-.8.4-1.6.4-2.6-1-.2-2.1-.4-3.1-.4-1.7 0-3.8.7-3.8 2.7 0 2.2 2.6 2.4 4.1 3.2.7.3 1.2.8 1.2 1.4 0 1.2-.5 1.5-1.9 1.5-.7 0-1.3-.1-2-.2-.1-.7-.2-1.4-.2-2.1-.3-.2-.7-.2-1 0-.2 1-.4 2-.4 3 1.2.4 2.4.5 3.5.6m-14.4-1.4c-2.3 0-3.1-2.4-3.1-4.1 0-1.1.3-2.2 1.1-3 .5-.2 1-.4 1.5-.4 2.3 0 3.1 2.4 3.1 4.1 0 1.1-.3 2.2-1.1 3-.5.3-1 .4-1.5.4m-.4 1.4c3 0 4.9-2.8 4.9-5.3 0-2.8-1.4-5-4.6-5s-4.9 2.8-4.9 5.3c0 2.9 1.4 5 4.6 5m-9.2 0c1.2 0 2.4-.3 3.4-1 0-.3-.1-.7-.3-.9-.7.2-1.4.4-2.2.4-.7 0-1-.8-1-2.3v-5h3.3c.1-.4.1-.8.1-1.2H5.4v-2.8c-.3-.1-.8-.2-1.1-.2l-.8 2.8c-.6 0-1.1.1-1.6.2-.1.2 0 .6 0 .8.6.1 1.2.2 1.6.2v5.8c.1 2.1.6 3.2 2.1 3.2" class="st0"/><path d="M247.6 231.6c-1.6-.1-3-.7-4.2-1.6-2-1.4-3.3-3.6-3.4-6.1 0 0 3.1-.7 3-3.5 0 0 .1-3.5-4.1-3.7-1.1-.1-2.2-.2-3.3-.1 0 0-2.2.2-3 .4-1.2.3-2.9 1-3 2.4 0 0 .1 1.4 1.4 1.4 0 0 1.3 0 1.3-1.1.1-.4-.2-.8-.6-1 .8-.6 1.6-.8 2.6-.8l-1.7 9.2c0 .8-.6 1.2-1.3 1.3l-.8.1-.2 1.1h6l.1-.9-.4-.1c-.5-.1-.9-.7-.8-1.2v-.2l.6-3c.4.1.8.1 1.2 0 .5 2.4 1.9 4.6 3.8 6.1 1.8 1.2 4 1.9 6.2 1.9l.6-.6zm-11.2-8.5l.9-5.1c3.6-.2 3.2 2.2 3.2 2.2-.6 3.7-4.1 2.9-4.1 2.9" class="st1"/><path d="M14 4.7l-1.7 2.1C11.2 5.7 9.6 5.1 8 5.1c-1.7 0-3 .8-3 2.2s.8 2 4 3c3.4 1.1 5.7 2.4 5.7 6 0 3.4-2.6 5.9-7.3 5.9-2.6 0-5-.9-7-2.6l1.9-2.1c1.3 1.2 3.1 1.9 5 1.9 2.1 0 3.5-1 3.5-2.9 0-1.6-.8-2.3-3.8-3.2-4-1.2-5.8-2.8-5.8-5.8 0-3.2 2.7-5.3 6.5-5.3 2.4 0 4.7.8 6.3 2.5zm12 16.5c-1.1.8-2.4 1.2-3.7 1.1-2.9 0-4.4-1.6-4.4-4.8V9.8h-2.3V7.2h2.3V3.9l3.6-.4v3.6h3.4l-.3 2.6h-3v7.6c0 1.5.5 2.1 1.6 2.1.7 0 1.2-.2 1.7-.5-.1 0 1.1 2.3 1.1 2.3zm14.4-6.7c0 4.6-2.6 7.8-6.9 7.8-4.4 0-6.8-2.9-6.8-7.8 0-4.6 2.6-7.8 6.9-7.8s6.8 3 6.8 7.8zm-10.1 0c0 3.5 1.1 5 3.1 5 2.1 0 3.1-1.6 3.1-5s-1.1-5-3.1-5-3.1 1.5-3.1 5zM52.4 7l-.6 3.5c-.4-.1-.8-.2-1.3-.2-1.7 0-2.6 1.3-3.2 3.8v7.8h-3.6V7.2h3l.3 2.9c.7-2.1 2.1-3.2 3.8-3.2.6-.1 1.1 0 1.6.1zm9.3 14.9c-1.1 3.5-3.3 5.6-7.6 6l-.4-2.6c2.9-.4 3.9-1.4 4.7-3.5h-1.2L52.5 7.2h3.8l3.1 12.3 3.3-12.3h3.6l-4.6 14.7zm25.7-6.2h-9.2c.2 3 1.6 4 3.6 4 1.3 0 2.6-.5 3.6-1.3l1.5 2c-1.5 1.2-3.5 2-5.4 2-4.6 0-6.9-3-6.9-7.6 0-4.4 2.3-7.8 6.5-7.8s6.4 2.8 6.4 7.4c0 .3-.1.9-.1 1.3zM84 13.2c0-2.4-.8-3.9-2.8-3.9-1.6 0-2.7 1.2-2.9 4h5.8l-.1-.1zm18.6-1.9v10.6H99V11.8c0-1.8-.7-2.4-1.8-2.4-1.3 0-2.2.8-3 2.2v10.2h-3.6V7.2h3l.2 1.9c1-1.5 2.6-2.3 4.4-2.3 2.9 0 4.4 1.7 4.4 4.5zm16.2-9.9v20.5h-3.1l-.2-1.8c-.9 1.4-2.5 2.3-4.2 2.3-3.6 0-5.5-3-5.5-7.8 0-4.6 2.3-7.8 5.9-7.8 1.4 0 2.7.6 3.7 1.6V.9c-.1 0 3.4.5 3.4.5zm-3.5 16.3V11c-.7-.9-1.6-1.5-2.8-1.6-1.8 0-3 1.6-3 5 0 3.8 1.1 5 2.8 5 1.3.2 2.1-.4 3-1.7zm19.6-2h-9.2c.2 3 1.6 4 3.6 4 1.3 0 2.6-.5 3.6-1.3l1.5 2c-1.5 1.2-3.5 2-5.4 2-4.6 0-6.9-3-6.9-7.6 0-4.4 2.4-7.8 6.5-7.8s6.4 2.8 6.4 7.4c0 .3-.1.9-.1 1.3zm-3.4-2.5c0-2.4-.8-3.9-2.8-3.9-1.6 0-2.7 1.2-2.9 4h5.8l-.1-.1zM146.8 7l-.6 3.5c-.4-.1-.8-.2-1.3-.2-1.7 0-2.6 1.3-3.2 3.8v7.8h-3.6V7.2h3l.3 2.9c.7-2.1 2.2-3.2 3.8-3.2.6-.1 1.1 0 1.6.1z" class="st2"/></g></g></svg>