<svg xmlns="http://www.w3.org/2000/svg" id="Layer_1" viewBox="0 0 387.4 282.4" width="387.4" height="282.4"><style>.st0{fill:#231f20}.st1{fill:#f26518}.st2{fill:#4d4d4d}</style><g id="f43f63e6-c5f9-402a-a1d4-9b0b658d3a0d"><g id="a52d280c-66fb-49c0-8781-4a139a80b8c5"><path d="M262.7 275c0 .9.8 1.7 1.7 1.7s1.7-.8 1.7-1.7-.8-1.7-1.7-1.7-1.7.7-1.7 1.7m-10.5 1.3h6.9c.1-.4.2-.7.1-1.1-1-.3-1.9-.4-2.9-.5 0-.6-.1-1.2-.1-1.9V268c1-1.6 1.9-2 2.8-2h.6c.2.9.3 1.9.4 2.8.4.1.9.1 1.3 0 .3-1.4.5-2.8.5-4.3-.6-.2-1.3-.3-2-.3-1.5.1-2.8 1-3.5 2.3-.1-.7-.2-1.5-.4-2.2l-.2-.2c-1.2.1-2.4.4-3.5.9 0 .3 0 .7.1 1 .7.1 1.3.2 2 .4v6.8c0 .5 0 .9-.1 1.4-.7.2-1.3.3-2 .4-.1.7 0 1 0 1.3m-8.7-9.9c.5-.3 1.1-.5 1.7-.5 2.2 0 2.6 1.5 2.6 3.1-.6 0-1.7.1-3 .1h-2.4c.1-.9.5-1.9 1.1-2.7m1.8 10.3c1.7-.2 3.3-.9 4.7-1.9 0-.3-.2-.7-.4-.9-1.3.5-2.6.8-4 .9-2.4 0-3.3-2.5-3.4-4.5h7.4l.2-.2c.1-.5.1-1 .1-1.5 0-2.2-1-4.5-4.4-4.5-3.2 0-5.4 3.3-5.4 6.4 0 3.4 1.5 6 5.1 6m-16.6-6.5c0-1.3.4-2.5 1.2-3.5.5-.3 1.1-.5 1.7-.5 1 0 2 .2 3 .6v6.3c-1 .9-2.3 1.9-3.2 1.9-1.8 0-2.8-2.4-2.7-4.8m2.2 6.6c1.4 0 2.7-1.1 3.8-2.3.2 1.1.7 2.3 1.3 2.3 1.1-.1 2.1-.6 2.8-1.3 0-.3-.1-.7-.4-.9-.5.2-1.1.3-1.6.4-.1-.7-.1-1.3-.1-2v-8.3c0-2.7 0-4.7.1-7.2l-.2-.2c-1.5.1-2.9.4-4.4.9 0 .3 0 .7.1 1 .8.1 1.5.2 2.3.4v5.7c-.8-.5-1.8-.8-2.7-.9-2.8 0-5.4 2.8-5.4 6.3s1.5 6.1 4.4 6.1m-19.1-.3h5.8c.1-.4.2-.7.1-1.1-.6-.2-1.2-.4-1.9-.5-.1-.6-.1-1.2-.1-1.9V267c.9-.7 2-1.1 3.1-1.1 2 0 2.3 1.4 2.3 3.2v4.2c0 .5 0 .9-.1 1.4-.7.2-1.3.3-2 .4 0 .4 0 .8.1 1.1h5.8c.1-.4.2-.7.2-1.1-.6-.2-1.2-.4-1.9-.5-.1-.6-.1-1.2-.1-1.9V268c0-2.8-1.2-4-3.4-4-1.5.1-3 .7-4.2 1.7-.1-.5-.2-1.1-.3-1.4l-.2-.2c-1.2.1-2.4.4-3.6.9 0 .3 0 .7.1 1 .7.1 1.3.2 2 .4v6.8c0 .5 0 .9-.1 1.4-.7.2-1.3.3-2 .4.1.6.2.9.4 1.3m-8.8-10c.5-.3 1.1-.5 1.7-.5 2.2 0 2.6 1.5 2.6 3.1-.6 0-1.7.1-3 .1h-2.4c0-.9.4-1.9 1.1-2.7m1.7 10.3c1.7-.2 3.4-.8 4.8-1.8 0-.3-.2-.7-.4-.9-1.3.5-2.6.8-4 .9-2.4 0-3.3-2.5-3.4-4.5h7.4l.2-.2c.1-.5.1-1 .1-1.5 0-2.2-1-4.5-4.4-4.5-3.2 0-5.4 3.3-5.4 6.4 0 3.5 1.5 6.1 5.1 6.1m-16-.3h6.9c.1-.4.2-.7.1-1.1-1-.2-1.9-.4-2.9-.5-.1-.6-.1-1.2-.1-1.9V268c1-1.6 1.9-2 2.8-2h.6c.2.9.3 1.8.3 2.8.4.2.9.2 1.3 0 .3-1.4.5-2.8.4-4.3-.6-.2-1.3-.3-2-.3-1.5.1-2.8 1-3.5 2.3-.1-.7-.2-1.5-.4-2.2l-.2-.2c-1.2.1-2.4.4-3.5.9 0 .3 0 .7.1 1 .7.1 1.3.2 2 .4v6.8c0 .5 0 .9-.1 1.4-.7.2-1.3.3-2 .4.1.6.1.9.2 1.3m-11.2 0h6.9c.1-.4.2-.7.1-1.1-1-.3-2-.4-3-.5 0-.6-.1-1.2-.1-1.9V268c1-1.6 1.8-2 2.8-2h.6c.2.9.3 1.8.3 2.8.4.2.9.2 1.3 0 .3-1.4.5-2.8.4-4.3-.6-.2-1.3-.3-2-.3-1.5.1-2.8 1-3.5 2.3-.1-.7-.2-1.5-.4-2.2l-.2-.2c-1.2.1-2.4.4-3.5.9 0 .3 0 .7.1 1 .7.1 1.3.2 2 .4v6.8c0 .5 0 .9-.1 1.4-.7.2-1.3.3-2 .4.1.6.1 1 .3 1.3m-10.2.4c1.6 0 2.9-1.1 4.1-2.4.2 1.2.6 2.4 1.2 2.4 1.1-.1 2.1-.6 2.9-1.3 0-.3-.1-.7-.4-.9-.5.2-1.1.3-1.6.4-.1-.7-.1-1.3-.1-2v-.9c0-2.8 0-4.7.1-7.2l-.2-.2h-3.8c-.1.4-.1.8-.1 1.1.7.1 1.3.3 1.9.5v6.7c-.7.7-2.3 2-3.4 2-1.4 0-2-1.2-2-3.2 0-1.5 0-4.4.1-6.8l-.2-.2H162c-.1.4-.1.8-.1 1.1.7.1 1.3.3 1.9.5v6.4c0 2.8 1.2 4.1 3.4 4.1m-11.7-.1c2.6 0 4.6-1.4 4.6-3.7 0-4-6.1-3.2-6.1-5.7 0-.9.2-1.5 2.2-1.5.5 0 1.1.1 1.6.2.2.6.3 1.3.3 1.9.4.2.9.2 1.3 0 .3-1 .4-2 .4-3.1-1.2-.3-2.4-.5-3.6-.5-2 0-4.3.8-4.3 3.3 0 2.7 2.9 2.9 4.7 3.9.7.3 1.2 1 1.3 1.7 0 1.5-.6 1.9-2.2 1.9-.8 0-1.5-.1-2.3-.4-.1-.8-.2-1.7-.2-2.5-.4-.2-.8-.2-1.2 0-.3 1.2-.4 2.4-.4 3.6 1.3.7 2.6.9 3.9.9m-15.7-1.7c-2.7 0-3.6-2.9-3.6-5 0-1.3.4-2.6 1.2-3.6.5-.3 1.1-.5 1.7-.5 2.7 0 3.6 2.9 3.6 5 0 1.3-.4 2.6-1.2 3.6-.5.3-1.1.5-1.7.5m-.4 1.6c3.5 0 5.5-3.4 5.5-6.4 0-3.4-1.6-6-5.3-6s-5.5 3.4-5.5 6.4c0 3.5 1.7 6 5.3 6m-10.3 0c1.4 0 2.7-.5 3.9-1.2 0-.4-.1-.8-.4-1.1-.8.3-1.6.5-2.5.5-.8 0-1.2-.9-1.2-2.7v-6h3.8c.1-.5.1-1 .1-1.5h-3.9v-3.3c-.4-.1-.8-.2-1.3-.1l-.8 3.4c-.6 0-1.3.1-1.9.3-.1.3-.1.7 0 1 .6.1 1.4.2 1.9.3v7c-.1 2.2.5 3.5 2.3 3.4M112 266.3c.5-.3 1.1-.5 1.7-.5 2.2 0 2.6 1.5 2.6 3.1-.6 0-1.7.1-3 .1h-2.4c.1-.9.5-1.9 1.1-2.7m1.8 10.4c1.7-.2 3.4-.8 4.8-1.8 0-.3-.2-.7-.4-.9-1.3.5-2.6.8-4 .9-2.4 0-3.3-2.5-3.4-4.5h7.4l.2-.2c.1-.5.1-1 .1-1.5 0-2.2-1-4.5-4.4-4.5-3.2 0-5.4 3.3-5.4 6.4 0 3.4 1.5 6 5.1 6.1m-11.8-.1c2.6 0 4.6-1.4 4.6-3.7 0-4-6.1-3.2-6.1-5.7 0-.9.2-1.5 2.2-1.5.5 0 1.1.1 1.6.2.2.6.3 1.3.3 1.9.4.2.9.2 1.3 0 .3-1 .4-2 .4-3.1-1.2-.3-2.4-.5-3.6-.5-2 0-4.3.8-4.3 3.3 0 2.7 2.9 2.9 4.7 3.9.7.3 1.2 1 1.3 1.7 0 1.5-.6 1.9-2.2 1.9-.8 0-1.5-.1-2.3-.4-.1-.8-.2-1.7-.2-2.5-.4-.2-.8-.2-1.2 0-.3 1.2-.5 2.5-.5 3.7 1.3.6 2.6.9 4 .8m-14 .1c1.6 0 2.9-1.1 4.1-2.4.2 1.2.7 2.4 1.2 2.4 1.1-.1 2.1-.6 2.9-1.3 0-.3-.1-.7-.4-.9-.5.2-1.1.3-1.6.4-.1-.7-.1-1.3-.1-2v-.9c0-2.8 0-4.7.1-7.2l-.2-.2h-3.8c-.1.4-.1.8-.2 1.1.7.1 1.4.3 2 .5v6.7c-.7.7-2.3 2-3.4 2-1.4 0-2-1.2-2-3.2v-6.8l-.2-.2h-3.6c-.1.4-.1.8-.2 1.1.7.1 1.3.3 1.9.5v6.4c.1 2.8 1.3 4.1 3.5 4m-14-.2h6.9c.1-.4.2-.7.2-1.1-1-.3-2-.4-3-.5 0-.6-.1-1.2-.1-1.9v-6.8h2.9c.1-.5.1-1 .1-1.5h-3v-.8c0-2.2.4-3.9.9-4.4.5-.3 1.1-.5 1.7-.5.4 0 .9 0 1.3.1.1.7.2 1.4.2 2.1.4.2.9.3 1.4.1.4-1.1.5-2.2.6-3.3-1-.4-2.1-.6-3.2-.6-3.1 0-4.9 2.8-4.9 7.1v.2c-.6.1-1.3.2-1.9.3-.1.3-.1.7 0 1 .6.1 1.3.2 1.9.3v7.3c0 .5 0 .9-.1 1.4-.7.2-1.3.3-2 .4-.2.3-.1.7.1 1.1m-8.8-10c.5-.3 1.1-.5 1.7-.5 2.2 0 2.6 1.5 2.6 3.1-.6 0-1.7.1-3 .1h-2.4c.1-1 .5-2 1.1-2.7m1.8 10.2c1.7-.2 3.4-.8 4.8-1.8 0-.3-.1-.7-.4-.9-1.3.5-2.6.8-4 .9-2.4 0-3.3-2.5-3.4-4.5h7.4l.2-.2c.1-.5.1-1 .1-1.5 0-2.2-1-4.5-4.4-4.5-3.2 0-5.4 3.3-5.4 6.4 0 3.4 1.5 6 5.1 6.1m-16-.4h6.9c.1-.4.2-.7.2-1.1-1-.3-1.9-.4-2.9-.5 0-.6-.1-1.2-.1-1.9V268c1-1.6 1.8-2 2.8-2h.7c.2.9.3 1.8.3 2.8.4.2.9.2 1.3.1.3-1.4.5-2.8.5-4.3-.6-.2-1.3-.3-2-.3-1.5.1-2.8 1-3.5 2.3-.1-.7-.2-1.5-.4-2.2l-.2-.2c-1.2.1-2.4.4-3.5.9 0 .3 0 .7.1 1 .7.1 1.3.2 2 .4v6.8c0 .5 0 .9-.1 1.4-.7.2-1.3.3-2 .4-.3.5-.2.9-.1 1.2m-12.2.1h5.8c.1-.4.1-.7.1-1.1-.6-.2-1.2-.4-1.9-.5 0-.6-.1-1.2-.1-1.9v-8.3c0-2.7 0-4.7.1-7.2l-.2-.2c-1.4.1-2.7.4-4.1.9 0 .3 0 .7.1 1 .7.1 1.3.2 2 .4v14c0 .5 0 .9-.1 1.4-.7.2-1.3.3-2 .4.1.4.1.7.3 1.1m-7.8 0h5.8c.1-.4.2-.7.2-1.1-.6-.2-1.2-.4-1.9-.5 0-.6-.1-1.2-.1-1.9v-8.3c0-2.7 0-4.7.1-7.2l-.2-.2c-1.4.1-2.7.4-4.1.9 0 .3 0 .7.1 1 .7.1 1.3.2 2 .4v14c0 .5 0 .9-.1 1.4-.7.2-1.3.3-2 .4.1.4.1.8.2 1.1m-7.7 0h5.8c.1-.4.2-.7.1-1.1-.6-.2-1.2-.4-1.9-.5 0-.6-.1-1.2-.1-1.9v-1.2c0-2.7 0-4.7.1-7.2l-.2-.2c-1.4.1-2.8.4-4.1.9 0 .3 0 .7.1 1 .7.1 1.3.2 2 .4v6.9c0 .5 0 .9-.1 1.4-.7.2-1.3.4-2 .5.1.3.1.7.3 1m2.6-13.9c1-.1 1.7-.9 1.7-1.9-.1-.8-.7-1.4-1.5-1.4-.9.1-1.7.9-1.8 1.8.1.8.7 1.3 1.5 1.4m-8.1 14.3c1.4 0 2.7-.5 3.9-1.2 0-.4-.1-.8-.4-1.1-.8.3-1.6.5-2.5.5-.8 0-1.2-.9-1.2-2.7v-6h3.8c.1-.5.1-1 .1-1.5h-3.9v-3.3c-.4-.1-.8-.2-1.3-.1l-.8 3.4c-.6 0-1.3.1-1.9.3-.1.3-.1.7 0 1 .6.1 1.4.2 1.9.3v7c-.1 2.1.5 3.4 2.3 3.4m-10.6-.1c2.6 0 4.6-1.4 4.6-3.7 0-4-6.1-3.2-6.1-5.7 0-.9.2-1.5 2.2-1.5.5 0 1.1.1 1.6.2.2.6.3 1.3.3 1.9.4.2.9.2 1.3 0 .3-1 .4-2 .4-3.1-1.2-.3-2.4-.5-3.6-.5-2 0-4.3.8-4.3 3.3 0 2.7 2.9 2.9 4.7 3.9.7.3 1.2 1 1.3 1.7 0 1.5-.6 1.9-2.2 1.9-.8 0-1.5-.1-2.3-.4-.1-.8-.2-1.7-.2-2.5-.4-.2-.8-.2-1.2 0-.3 1.2-.4 2.4-.4 3.6 1.3.7 2.6 1 3.9.9m367.8-35.8c0-.5.2-1.1.5-1.5 1.3-.6 2.7-1 4.1-1.1v2.9c-.8.7-1.7 1.2-2.7 1.3-.9.1-1.7-.5-1.9-1.4v-.2m.6 3.6c1.6-.2 3-.9 4.1-2 .2 1.2.7 2 1.2 2 1.1-.1 2.1-.6 2.9-1.3 0-.3-.1-.7-.4-.9-.5.2-1.1.3-1.6.4-.1-.7-.1-1.3-.1-2V236c0-3.4-2.5-3.9-4-3.9-1.6 0-3.1.5-4.4 1.3 0 .9.2 1.8.6 2.7.5.1 1 .1 1.5-.2 0-.7 0-1.3.2-2 .7-.1 1.3-.2 2-.2 1.7 0 2.1 1.3 2.1 3.2-3.2.6-6.8 1.9-6.8 4.7-.2 1.5.9 2.8 2.4 3h.4m-10-10.7c2 0 3.1 2.4 3.1 4.9 0 1.3-.4 2.6-1.2 3.6-.5.3-1 .5-1.6.5-1.3-.1-2.5-.6-3.4-1.5v-6.3c.9-.8 2-1.1 3.1-1.2m-5.3 10.7c.6-.4 1.2-.9 1.6-1.5 1.1.8 2.4 1.3 3.7 1.4 3 0 5.2-3.4 5.2-6.4 0-3.6-1.8-5.9-4.5-5.9-1.4 0-2.8.5-3.8 1.4v-1.1c0-2.7 0-4.7.1-7.2l-.2-.2c-1.4.1-2.8.4-4.1.9 0 .3 0 .7.1 1 .7.1 1.3.2 2 .4v14c0 1-.3 2-.8 2.9.1.2.4.4.7.3m-8.1-10.7c2 0 3.1 2.4 3.1 4.9 0 1.3-.4 2.6-1.2 3.6-.5.3-1 .5-1.6.5-1.3-.1-2.5-.6-3.4-1.5V235c.9-.6 2-1 3.1-1.1m-5.3 10.8c.6-.4 1.2-.9 1.6-1.5 1.1.8 2.4 1.3 3.7 1.4 3 0 5.2-3.4 5.2-6.4 0-3.6-1.9-5.9-4.5-5.9-1.4 0-2.8.5-3.8 1.4v-1.1c0-2.7 0-4.7.1-7.2l-.2-.2c-1.4.1-2.8.4-4.1.9 0 .3 0 .7.1 1 .7.1 1.3.2 2 .4v14c0 1-.3 2-.8 2.9.1.1.4.3.7.3m-11.1-15.1l.1 1.8 2 5.7h-4.7l2.6-7.5zm-8 14.7c1.1 0 2-.1 2.9-.1.6 0 2 0 2.8.1.1-.4.2-.8.1-1.2l-2.2-.5 1.3-4h1.8c1.2 0 2.6 0 4 .1l1.4 3.9-2.3.5c0 .4.1.8.2 1.2 1.1 0 2.1-.1 3.2-.1.8 0 2.4 0 3.1.1.1-.4.2-.8.1-1.2-.6-.2-1.2-.4-1.9-.5l-5.4-15.2c-.7 0-1.5.1-2.2.4l-5.1 14.8c-.6.2-1.3.4-2 .5 0 .4.1.8.2 1.2m-10.4-1.4c.6.1 1 .7 1 1.3-.2 1.2-.7 2.2-1.6 3 0 .4.3.7.6.8 1.7-.8 3.5-3 3.5-4.8.2-.9-.4-1.9-1.3-2.1-.2 0-.4-.1-.6 0-.9.1-1.6.8-1.6 1.7m-7.3-.1c-1.8 0-2.4-1.6-2.4-4.3-.1-1.6.5-3.1 1.5-4.4.5-.3 1.1-.5 1.8-.5 1.6 0 2.3 1.6 2.3 4.4 0 1.6-.5 3.1-1.5 4.3-.5.3-1.1.5-1.7.5m-1.1 1.7c4 0 6.4-3.3 6.4-7.6 0-2.1-.7-4.9-3.5-4.9-4 0-6.3 3.3-6.3 7.6-.1 2.2.7 4.9 3.4 4.9m-10.6-1.6c-1.8 0-2.4-1.6-2.4-4.3-.1-1.6.5-3.1 1.5-4.4.5-.3 1.2-.5 1.8-.5 1.6 0 2.3 1.6 2.3 4.4 0 1.6-.5 3.1-1.5 4.3-.5.3-1.1.4-1.7.5m-1 1.6c4 0 6.4-3.3 6.4-7.6 0-2.1-.7-4.9-3.5-4.9-4 0-6.3 3.3-6.3 7.6-.1 2.2.6 4.9 3.4 4.9m-8.7-.1c1.4-.2 2.7-.9 3.7-2-.1-.3-.3-.6-.5-.8-.7.3-1.5.6-2.3.7l2-14.9v-.6c0-1-.5-1.5-1.4-1.5-1 0-2 .3-2.9.8-.1.3-.1.6 0 .9.7 0 1.4.1 2.1.2l-2 14.5c-.1.4-.1.8-.1 1.3.1.7.4 1.4 1.4 1.4m-10.9-.2c1.1.1 2.2-.1 2.2-.6.3-2.3.6-4.9.9-7.2.8-1 1.7-1.8 2.7-2.4.4.3.8.7 1.1 1.2.8-.2 1.5-1 1.5-1.5 0-.9-.7-1.6-1.6-1.7-1.1 0-2.4 1.1-3.6 2.6v-.8c0-1-.5-1.5-1.4-1.5-1 0-2 .3-2.9.8-.1.3-.1.6 0 .9.7 0 1.4.1 2.1.2l-.2 1.9c-.3 2.6-.8 5.3-1.3 8.1h.5zm-7.2-10.3c.3-.1.7-.2 1.1-.2 1 0 1.6 1.1 1.6 2.2-1.4.9-2.9 1.7-4.5 2.2 0-1.6.6-3.1 1.8-4.2m-1.5 10.6c1.6 0 3.9-1 6.2-2.6 0-.3-.2-.6-.5-.9-1.6.8-3.3 1.4-5 1.7-.7-1-1.1-2.1-1.1-3.3 3.6-1.2 6.7-2.7 6.7-3.7 0-2.2-1-3.7-2.9-3.7-3.1 0-6 2.9-6 7.6 0 1.1.1 2.1.5 3.2.3 1 1.1 1.7 2.1 1.7m-9-.1c1.4 0 3.6-1.3 4.6-2.4-.1-.3-.2-.6-.5-.8-1 .5-2.1.9-3.2 1.1l1-8v-.3h3.3c.2-.5.3-1 .3-1.5-1.1-.1-2.3-.2-3.4-.2.2-1.2.4-2.4.7-3.6l-.2-.2c-1-.1-2.2.1-2.3.6-.1 1.1-.2 2.1-.4 3.2h-1.9c-.5 0-.5 1-.5 1.6h2.2c-.1.6-.1 1.3-.2 1.9-.3 2.1-.5 3.7-.8 5.7-.1.4-.1.8-.1 1.2.1 1 .4 1.8 1.4 1.7m-12.7-5.1c-.1-2 .5-3.9 1.8-5.4.4-.2.9-.2 1.3-.2.8 0 1.6.2 2.4.5l-.9 6.7c-1.1 1-2.5 1.6-3.9 1.8-.4-.4-.7-1.6-.7-3.4m.2 5.2c1.3 0 2.9-.9 4.5-2.3.1 1.3.3 2.2 1 2.2 1.4-.2 2.7-.9 3.7-2-.1-.3-.2-.6-.5-.8-.7.3-1.5.6-2.3.7l1-8c.1-.4.2-.9.3-1.3-1.4-.6-2.9-.9-4.4-.9-3.6 0-5.7 4-5.7 8 0 .9.1 1.8.3 2.7.1 1 1 1.8 2.1 1.7m-20.1-.2c.9 0 1.9-.1 2.8-.4l5.1-13.9-.2 2.5 1.3 11.8c.9 0 1.7-.1 2.6-.4l5.8-14.9c.6-.1 1.2-.2 1.8-.5.1-.4.1-.8 0-1.2h-5.4c-.2.4-.3.8-.4 1.2l2.2.5-4.8 13.1.1-2.1-1.3-12.7c-.8 0-1.5.1-2.3.3l-5.4 14.5.1-2.1-1.2-10.9 2.1-.5c.1-.4.1-.8 0-1.2h-6c-.2.4-.3.8-.4 1.2.6.1 1.2.2 1.8.5l1.7 15.2zm-19-.1c.9 0 2-.1 3-.1.8 0 2.9 0 3.9.1.1-.4.2-.7.2-1.1-1-.3-2-.4-3-.4 0-.6-.1-1.2-.1-1.9v-4.8c1-1.6 1.9-1.9 2.8-1.9h.6c.2.9.3 1.8.3 2.8.4.2.9.2 1.3 0 .3-1.4.5-2.8.4-4.3-.6-.2-1.3-.3-2-.3-1.5.1-2.8 1-3.5 2.3-.1-.7-.2-1.5-.4-2.2l-.2-.2c-1.2.1-2.4.4-3.6.9 0 .3 0 .7.1 1 .7.1 1.3.2 2 .4v6.8c0 .5 0 .9-.1 1.4-.7.2-1.3.4-2 .4.1.3.2.7.3 1.1m-8.8-10c.5-.3 1.1-.5 1.7-.5 2.2 0 2.6 1.6 2.6 3.1-.6.1-1.7.1-3.1.1h-2.4c.1-1 .6-1.9 1.2-2.7m1.8 10.3c1.7-.2 3.4-.8 4.8-1.8 0-.3-.1-.7-.4-.9-1.3.5-2.6.8-4 .9-2.4 0-3.3-2.4-3.4-4.5h7.4l.2-.2c.1-.5.1-1 .1-1.5 0-2.2-1-4.5-4.4-4.5-3.2 0-5.4 3.3-5.4 6.4 0 3.4 1.5 6 5.1 6.1m-18.5-13c-.1-1.5.2-3.1.9-4.4.6-.4 1.2-.5 1.9-.5 1 0 2.1.2 3 .6v5.1H183v-.8zm-2.1 2.4v7.3c0 .5 0 .9-.1 1.4-.7.2-1.3.4-2 .4 0 .4.1.8.2 1.1 1 0 2-.1 3-.1s2.5 0 3.9.1c.1-.4.2-.7.1-1.1-1-.3-2-.4-2.9-.4-.1-.6-.1-1.2-.1-1.9v-6.8h5.9v7c0 2.3.6 3.6 2.3 3.6 1.4-.1 2.7-.5 3.9-1.2 0-.4-.1-.8-.4-1.1-.8.3-1.6.5-2.5.5-.8 0-1.2-.9-1.2-2.7v-6h3.8c.1-.5.1-1 .1-1.5l-3.9-.1V226l-.2-.2c-1.4-.6-3-1-4.6-.9-3.4 0-5.3 2.8-5.3 7.1v.2c-.6.1-1.3.2-1.9.3-.1.3 0 .7.1 1l1.8.3m-12.5 7c0-.5.2-1.1.5-1.5 1.3-.6 2.7-1 4.1-1.1v2.9c-.8.7-1.7 1.2-2.7 1.3-.9.1-1.7-.5-1.9-1.4v-.2m.6 3.6c1.6-.2 3-.9 4.1-2 .2 1.2.7 2 1.2 2 1.1-.1 2.1-.6 2.9-1.3 0-.3-.1-.7-.4-.9-.5.2-1.1.3-1.6.4-.1-.7-.1-1.3-.1-2V236c0-3.4-2.5-3.9-3.9-3.9-1.6 0-3.1.5-4.4 1.3 0 .9.2 1.8.6 2.7.5.1 1 .1 1.4-.2 0-.7 0-1.3.2-2 .7-.1 1.3-.2 2-.2 1.7 0 2.1 1.3 2.1 3.2-3.2.6-6.8 1.9-6.8 4.7-.2 1.5.9 2.8 2.4 3 .1-.1.2-.1.3-.2m-14.4 0c2.6 0 4.6-1.4 4.6-3.7 0-4-6.1-3.2-6.1-5.7 0-.9.2-1.5 2.2-1.5.5 0 1.1.1 1.6.2.2.6.3 1.3.3 1.9.4.2.9.2 1.3.1.3-1 .4-2 .4-3.1-1.2-.3-2.4-.5-3.6-.5-2 0-4.4.8-4.4 3.3 0 2.7 2.9 2.9 4.8 3.9.7.3 1.2 1 1.3 1.7 0 1.5-.6 1.9-2.2 1.9-.8 0-1.5-.1-2.3-.4-.1-.8-.2-1.7-.2-2.5-.4-.2-.8-.2-1.2 0-.3 1.2-.4 2.4-.4 3.6 1.3.6 2.6.8 3.9.8m-15-.2c1 0 2-.1 3-.1.8 0 2.9 0 3.9.1.2-.4.4-.8.5-1.2-1-.3-2-.4-3-.4 0-.6-.1-1.2-.1-1.9v-4.8c1-1.6 1.9-1.9 2.8-1.9h.6c.2.9.3 1.8.3 2.8.4.2.9.2 1.3 0 .3-1.4.5-2.8.4-4.3-.6-.2-1.3-.3-2-.3-1.5.1-2.8 1-3.5 2.3-.1-.7-.2-1.5-.4-2.2l-.2-.2c-1.2.1-2.4.4-3.5.9 0 .3 0 .7.1 1 .7.1 1.3.2 2 .4v6.8c0 .5 0 .9-.1 1.4-.7.2-1.3.4-2 .4 0 .4.1.8.2 1.1m-10.5-3.3c0-.5.2-1.1.5-1.5 1.3-.6 2.7-1 4.1-1.1v2.9c-.8.7-1.7 1.2-2.7 1.3-.9.1-1.7-.5-1.9-1.4v-.2m.6 3.6c1.6-.2 3-.9 4.1-2 .2 1.2.7 2 1.2 2 1.1-.1 2.1-.6 2.8-1.3 0-.3-.1-.7-.4-.9-.5.2-1.1.3-1.6.4-.1-.7-.1-1.3-.1-2V236c0-3.4-2.5-3.9-3.9-3.9-1.6 0-3.1.5-4.4 1.3 0 .9.2 1.8.6 2.7.5.1 1 .1 1.4-.2 0-.7 0-1.3.2-2 .7-.1 1.3-.2 2-.2 1.7 0 2.1 1.3 2.1 3.2-3.2.6-6.8 1.9-6.8 4.7-.2 1.5.9 2.8 2.4 3 .1-.1.3-.1.4-.2m-11.4-10.2c.5-.3 1.1-.5 1.7-.5 2.2 0 2.6 1.6 2.6 3.1-.6.1-1.7.1-3.1.1h-2.4c.1-1 .5-2 1.2-2.7m1.7 10.3c1.7-.2 3.4-.8 4.8-1.8 0-.3-.2-.7-.4-.9-1.3.5-2.6.8-4 .9-2.4 0-3.3-2.4-3.4-4.5h7.4l.2-.2c.1-.5.1-1 .1-1.5 0-2.2-1-4.5-4.4-4.5-3.2 0-5.4 3.3-5.4 6.4 0 3.4 1.5 6 5.1 6.1m-16 5.9c1.9 0 3.4-2.8 4.8-6.6l3.7-10c.5-.1 1-.2 1.4-.4 0-.4 0-.8-.1-1.1h-4.7c-.1.4-.2.7-.2 1.1l1.9.4-3.1 8.7-.1-1.8-2.5-6.9 1.9-.4c.1-.4 0-.8-.1-1.1h-5.3c-.1.4-.2.7-.2 1.1.5.1.9.2 1.4.4l3.7 10.2h.8l-.4.9c-1 2.2-2.2 3.8-4.6 3.8h-.3c-.3.3-.4.7-.4 1.1.7.4 1.5.6 2.4.6m-15.8-16.3c.5-.3 1.1-.5 1.7-.5 2.2 0 2.6 1.6 2.6 3.1-.6.1-1.7.1-3.1.1h-2.4c.1-1 .5-2 1.2-2.7m1.7 10.3c1.7-.2 3.4-.8 4.8-1.8 0-.3-.2-.7-.4-.9-1.3.5-2.6.8-4 .9-2.4 0-3.3-2.4-3.4-4.5h7.4l.2-.2c.1-.5.1-1 .1-1.5 0-2.2-1-4.5-4.4-4.5-3.2 0-5.4 3.3-5.4 6.4 0 3.4 1.5 6 5.1 6.1m-11.8-.2c2.6 0 4.6-1.4 4.6-3.7 0-4-6.1-3.2-6.1-5.7 0-.9.2-1.5 2.2-1.5.5 0 1.1.1 1.6.2.2.6.3 1.3.3 1.9.4.2.9.2 1.3.1.3-1 .4-2 .4-3.1-1.2-.3-2.4-.5-3.6-.5-2 0-4.3.8-4.3 3.3 0 2.7 2.9 2.9 4.7 3.9.8.3 1.3 1 1.3 1.8 0 1.5-.6 1.9-2.2 1.9-.8 0-1.5-.1-2.3-.4-.1-.8-.2-1.7-.2-2.5-.4-.2-.8-.2-1.2 0-.3 1.2-.4 2.4-.4 3.6 1.3.6 2.6.8 3.9.7m-12.6-10.1c.5-.3 1.1-.5 1.7-.5 2.2 0 2.6 1.6 2.6 3.1-.6.1-1.7.1-3 .1h-2.5c.1-1 .5-2 1.2-2.7m1.7 10.3c1.7-.2 3.4-.8 4.8-1.8 0-.3-.1-.7-.4-.9-1.3.5-2.6.8-4 .9-2.4 0-3.3-2.4-3.4-4.5h7.4l.2-.2c.1-.5.1-1 .1-1.5 0-2.2-1-4.5-4.4-4.5-3.2 0-5.4 3.3-5.4 6.4 0 3.4 1.5 6 5.1 6.1m-19.8-.4c.9 0 2-.1 3-.1.6 0 2.1 0 2.8.1.1-.4.2-.7.2-1.1-.6-.2-1.2-.4-1.9-.4 0-.6-.1-1.2-.1-1.9v-6.2c1-.5 2.1-.7 3.2-.7 2 0 2.3 1.4 2.3 3.2v4.2c0 .5 0 .9-.1 1.4-.7.2-1.3.4-2 .4 0 .4.1.8.2 1.1 1 0 2-.1 3-.1.6 0 2.1 0 2.8.1.1-.3.2-.7.2-1-.6-.2-1.2-.4-1.9-.4 0-.6-.1-1.2-.1-1.9V236c0-2.8-1.2-4-3.5-4-1.5 0-2.9.5-4.1 1.3v-.9c0-2.7 0-4.7.1-7.2l-.2-.2c-1.4.1-2.7.4-4.1.9 0 .3 0 .7.1 1 .7.1 1.3.2 2 .4v14c0 .5 0 .9-.1 1.4-.7.2-1.3.4-2 .4 0 .4.1.8.2 1.1m-5.4.3c1.4-.1 2.7-.5 3.9-1.2 0-.4-.1-.8-.4-1.1-.8.3-1.6.5-2.5.5-.8 0-1.2-.9-1.2-2.7v-6h3.8c.1-.5.1-1 .1-1.5l-3.9-.1V229c-.4-.1-.8-.2-1.3-.1l-.8 3.4c-.7 0-1.3.1-1.9.3-.1.3-.1.7 0 1 .7.1 1.4.2 1.9.3v7c-.1 2.2.5 3.5 2.3 3.6m-16.4-.4c.9 0 2-.1 3-.1.6 0 2.1 0 2.8.1.1-.4.2-.7.2-1.1-.6-.2-1.2-.4-1.9-.4 0-.6-.1-1.2-.1-1.9v-8.3c0-2.7 0-4.7.1-7.2l-.2-.2c-1.4.1-2.7.4-4.1.9 0 .3 0 .7.1 1 .7.1 1.3.2 2 .4v14c0 .5 0 .9-.1 1.4-.7.2-1.3.4-2 .4.1.3.1.7.2 1m-7.7.1c1 0 2-.1 3-.1.6 0 2.1 0 2.8.1.1-.4.2-.7.1-1.1-.6-.2-1.2-.4-1.9-.4 0-.6-.1-1.2-.1-1.9v-8.3c0-2.7 0-4.7.1-7.2l-.2-.2c-1.4.1-2.8.4-4.1.9 0 .3 0 .7.1 1 .7.1 1.3.2 2 .4v14c0 .5 0 .9-.1 1.4-.7.2-1.3.4-2 .4.1.3.2.7.3 1m-10-14.7l.1 1.8 2 5.7H5.6l2.6-7.5zm-8 14.7c1.1 0 2-.1 2.9-.1.6 0 2.1 0 2.8.1.1-.3.1-.7.1-1.2l-2.2-.5 1.3-4h1.8c1.2 0 2.6 0 4 .1l1.4 3.9-2.3.5c0 .4.1.8.2 1.2 1.1 0 2.1-.1 3.2-.1.8 0 2.4 0 3.1.1.1-.4.2-.8.1-1.2-.6-.2-1.2-.4-1.9-.5l-5.4-15.4c-.7 0-1.5.1-2.2.4L2 242.4c-.6.2-1.3.4-2 .5 0 .4.1.8.2 1.3m383.7-33.8c0 1 .8 1.8 1.8 1.8s1.8-.8 1.8-1.8c-.1-1-1-1.7-1.9-1.6-.9.1-1.6.8-1.7 1.6m-10.6 7.7c1.9 0 3.5-2.8 4.9-6.6l3.8-10c.5-.1 1-.2 1.4-.4 0-.4 0-.8-.1-1.1h-4.9c-.1.4-.2.7-.2 1.1l2 .4-3.2 8.7-.1-1.8-2.5-6.9 2-.4c.1-.4 0-.8-.1-1.1h-5.4c-.1.4-.2.7-.2 1.1.5.1 1 .2 1.4.4l3.8 10.2h.8l-.4.9c-1 2.2-2.2 3.8-4.6 3.8h-.3c-.3.3-.4.7-.4 1.1.6.4 1.5.6 2.3.6m-7.8-6c1.4 0 2.7-.5 3.9-1.2 0-.4-.1-.8-.4-1.1-.8.3-1.6.5-2.5.5-.8 0-1.2-.9-1.2-2.7v-6h3.9c.1-.5.1-1 .1-1.5l-4-.1v-3.3c-.4-.1-.9-.2-1.3-.1l-.8 3.4c-.7 0-1.3.1-2 .3-.1.3-.1.7 0 1 .7.1 1.4.2 1.9.3v7c-.1 2.3.6 3.6 2.4 3.5m-11.4-.3c1 0 2-.1 3.1-.1.6 0 2.1 0 2.8.1.1-.4.2-.7.1-1.1-.6-.2-1.3-.4-1.9-.4 0-.6-.1-1.2-.1-1.9v-1.2c0-2.7 0-4.7.1-7.2l-.2-.2c-1.4.1-2.8.4-4.1.9 0 .3 0 .7.1 1 .7.1 1.3.2 2 .4v6.9c0 .5 0 .9-.1 1.4-.7.2-1.3.4-2 .4.1.3.1.7.2 1m2.7-13.9c1-.1 1.7-.9 1.8-1.9-.1-.8-.7-1.4-1.5-1.4-1 .1-1.7.9-1.8 1.9.1.8.7 1.4 1.5 1.4m-10.7 14c1 0 2-.1 3.1-.1.6 0 2.1 0 2.8.1.1-.4.2-.7.1-1.1-.6-.2-1.3-.4-1.9-.4 0-.6-.1-1.2-.1-1.9v-8.3c0-2.7 0-4.7.1-7.2l-.2-.2c-1.4.1-2.8.4-4.1.9 0 .3 0 .7.1 1 .7.1 1.3.2 2 .4v14c0 .5 0 .9-.1 1.4-.7.2-1.3.4-2 .4 0 .3.1.7.2 1m-10.6-3.2c0-.5.2-1.1.5-1.5 1.3-.7 2.7-1.1 4.2-1.2v2.9c-.8.7-1.7 1.2-2.8 1.3-1.3 0-1.9-.8-1.9-1.7m.6 3.6c1.6-.2 3.1-.9 4.2-2 .2 1.2.7 2 1.2 2 1.1-.1 2.1-.6 2.9-1.3 0-.3-.1-.7-.4-.9-.5.2-1.1.3-1.6.4-.1-.7-.1-1.3-.1-2v-4.7c0-3.4-2.5-3.9-4-3.9-1.6 0-3.1.4-4.5 1.3 0 .9.2 1.8.6 2.7.5.1 1 .1 1.5-.2 0-.7 0-1.3.2-2 .7-.1 1.3-.2 2-.2 1.7 0 2.1 1.3 2.1 3.2-3.2.6-6.9 1.9-6.9 4.7-.1 1.5 1 2.8 2.5 3 .1-.1.2-.1.3-.1m-8.3 0c1.4 0 2.7-.4 3.9-1.2 0-.4-.1-.8-.4-1.1-.8.3-1.6.5-2.5.5-.8 0-1.2-.9-1.2-2.7v-6h3.9c.1-.5.1-1 .1-1.5l-4-.1v-3.3c-.4-.1-.9-.2-1.3-.1l-.8 3.4c-.7 0-1.3.1-2 .3-.1.3-.1.7 0 1 .7.1 1.4.2 1.9.3v7c-.1 2.3.5 3.6 2.4 3.5m-11.4-.2c1 0 2-.1 3.1-.1.6 0 2.2 0 2.8.1.1-.4.2-.7.1-1.1-.6-.2-1.2-.4-1.9-.4 0-.6-.1-1.2-.1-1.9v-1.2c0-2.7 0-4.7.1-7.2l-.2-.2c-1.4.1-2.8.4-4.1.9 0 .3 0 .7.1 1 .7.1 1.3.2 2 .4v6.9c0 .5 0 .9-.1 1.4-.7.2-1.3.4-2 .4.1.3.2.6.2 1m2.7-14c1-.1 1.7-.9 1.8-1.9-.1-.8-.7-1.4-1.5-1.4-1 .1-1.7.9-1.8 1.9.1.8.7 1.4 1.5 1.4M307 212c.8 0 1.6-.1 2.4-.4l3.7-10c.5-.1 1-.2 1.4-.4 0-.4 0-.8-.1-1.1h-4.9c-.1.4-.2.7-.2 1.1l2 .4-3.2 8.7-.1-1.8-2.5-6.9 2-.4c.1-.4 0-.8-.1-1.1H302c-.1.4-.2.7-.2 1.1.5.1 1 .2 1.4.4L307 212zm-17.5-.1c1 0 2-.1 3.1-.1.6 0 2.1 0 2.8.1.1-.4.2-.7.1-1.1-.6-.2-1.3-.4-1.9-.4 0-.6-.1-1.2-.1-1.9v-8.3c0-2.7 0-4.7.1-7.2l-.2-.2c-1.4.1-2.8.4-4.1.9 0 .3 0 .7.1 1 .7.1 1.3.2 2 .4v14c0 .5 0 .9-.1 1.4-.7.2-1.3.4-2 .4 0 .4.1.7.2 1m-10.6-3.2c0-.5.2-1.1.5-1.5 1.3-.6 2.7-1 4.2-1.1v2.9c-.8.7-1.7 1.2-2.8 1.3-1.4.1-1.9-.6-1.9-1.6m.6 3.6c1.6-.2 3.1-.9 4.2-2 .2 1.2.7 2 1.2 2 1.1-.1 2.1-.6 2.9-1.3 0-.3-.1-.7-.4-.9-.5.2-1.1.3-1.6.4-.1-.7-.1-1.3-.1-2v-4.7c0-3.4-2.5-3.9-4-3.9-1.6 0-3.1.4-4.5 1.3 0 .9.2 1.8.6 2.7.5.1 1 .1 1.5-.2 0-.7 0-1.3.2-2 .7-.1 1.3-.2 2-.2 1.7 0 2.1 1.3 2.1 3.2-3.2.6-6.9 1.9-6.9 4.7-.1 1.5 1 2.8 2.5 3 0 0 .1 0 .3-.1m-9.4 0c1.7-.1 3.3-.7 4.6-1.7 0-.4-.2-.7-.4-.9-1.2.5-2.5.8-3.8.9-2.7 0-3.5-2.9-3.5-4.9 0-1.3.4-2.5 1.3-3.5.6-.3 1.3-.5 2.1-.5.6 0 1.3 0 1.9.1.1.7.2 1.4.2 2.1.5.3 1 .3 1.5.1.4-1 .5-2.1.5-3.2-1.3-.5-2.6-.8-4-.7-3.4 0-5.6 3.3-5.6 6.3 0 3.3 1.5 5.9 5.2 5.9m-12.7-.3c1 0 2-.1 3.1-.1.6 0 2.2 0 2.8.1.1-.4.2-.7.1-1.1-.6-.2-1.2-.4-1.9-.4 0-.6-.1-1.2-.1-1.9v-1.2c0-2.7 0-4.7.1-7.2l-.2-.2c-1.4.1-2.8.4-4.1.9 0 .3 0 .7.1 1 .7.1 1.3.2 2 .4v6.9c0 .5 0 .9-.1 1.4-.7.2-1.3.4-2 .4 0 .3.1.7.2 1m2.7-14c1-.1 1.7-.9 1.8-1.9-.1-.8-.7-1.4-1.5-1.4-1 .1-1.7.9-1.8 1.9 0 .9.7 1.4 1.5 1.4m-9.5 14.3c2.6 0 4.7-1.4 4.7-3.7 0-4-6.2-3.2-6.2-5.7 0-.9.2-1.5 2.2-1.5.6 0 1.1.1 1.6.2.2.6.3 1.3.3 1.9.4.2.9.2 1.3.1.3-1 .4-2 .4-3.1-1.2-.3-2.4-.5-3.6-.5-2.1 0-4.4.8-4.4 3.3 0 2.7 2.9 2.9 4.8 3.9.7.3 1.3.9 1.3 1.7 0 1.5-.6 1.9-2.2 1.9-.8 0-1.6-.1-2.3-.4-.1-.8-.2-1.7-.3-2.5-.4-.2-.8-.2-1.2 0-.3 1.2-.5 2.4-.5 3.6 1.4.6 2.8.8 4.1.8m-14.2.1c1.7 0 2.9-1.1 4.1-2.4.2 1.2.7 2.4 1.3 2.4 1.1-.1 2.1-.6 2.9-1.3 0-.3-.1-.7-.4-.9-.5.2-1.1.3-1.6.4-.1-.7-.1-1.3-.1-2v-.9c0-2.8 0-4.7.1-7.2l-.2-.2h-.9c-1.1 0-1.9 0-2.9-.1-.1.4-.1.8-.1 1.1.7.1 1.4.3 2 .5v6.7c-.7.7-2.4 1.9-3.4 1.9-1.4 0-2-1.2-2-3.2 0-1.5 0-4.4.1-6.8l-.2-.2H234c-1.1 0-1.9 0-2.9-.1-.1.4-.1.8-.1 1.1.7.1 1.3.3 2 .5v6.4c-.1 3 1.2 4.3 3.4 4.3m-26.4-.6c1 0 2-.1 3.1-.1.6 0 2.2 0 2.8.1.1-.4.2-.7.2-1.1-.6-.2-1.3-.4-1.9-.4-.1-.6-.1-1.2-.1-1.9v-5.9c.8-.6 1.8-.9 2.8-1 2 0 2.2 1.4 2.2 3.2v4.2c0 .5 0 .9-.1 1.4-.6.2-1.2.3-1.8.4 0 .4.1.8.2 1.1.7 0 1.8-.1 2.8-.1.6 0 1.9 0 2.6.1.1-.4.1-.7.1-1.1-.5-.2-1.1-.4-1.6-.4 0-.6-.1-1.2-.1-1.9v-4.7c0-.4 0-.8-.1-1.2.9-.6 1.9-1 2.9-1.1 2 0 2.2 1.4 2.2 3.2v4.2c0 .5 0 .9-.1 1.4-.7.2-1.3.4-2 .4 0 .4.1.8.2 1.1 1 0 2-.1 3.1-.1.6 0 2.1 0 2.8.1.1-.4.2-.7.2-1.1-.6-.2-1.2-.4-1.9-.4 0-.6-.1-1.2-.1-1.9v-4.7c0-2.8-1.2-4-3.4-4-1.6.1-3.1.8-4.1 1.9-.4-1.3-1.7-2.1-3.1-1.9-1.5.1-2.8.7-3.9 1.7-.1-.6-.2-1.1-.3-1.4l-.2-.2c-1.2.1-2.4.4-3.6.9 0 .3 0 .7.1 1 .7.1 1.3.2 2 .4v6.8c0 .5 0 .9-.1 1.4-.7.2-1.3.4-2 .4.1.5.1.8.2 1.2m-14 0c1 0 2-.1 3.1-.1s2.5 0 3.9.1c.1-.4.2-.7.1-1.1-1-.3-2-.4-3-.4-.1-.6-.1-1.2-.1-1.9v-6.8h3c.1-.5.1-1 .1-1.5l-3.1-.1v-.8c0-2.2.4-3.9.9-4.4.5-.3 1.1-.5 1.7-.5.5 0 .9 0 1.4.1.1.7.2 1.4.2 2.1.4.2.9.3 1.4.1.4-1.1.6-2.2.6-3.3a9.6 9.6 0 0 0-3.3-.6c-3.1 0-5 2.8-5 7.1v.3c-.7.1-1.3.2-2 .3-.1.3-.1.7 0 1 .6.1 1.3.2 1.9.3v7.3c0 .5 0 .9-.1 1.4-.7.2-1.3.4-2 .4 0 .4 0 .8.2 1.1m-6.8-1.4c-2.7 0-3.6-2.9-3.6-5 0-1.3.4-2.6 1.3-3.6.5-.3 1.1-.5 1.8-.5 2.7 0 3.7 2.9 3.7 5 0 1.3-.4 2.6-1.3 3.6-.7.3-1.3.5-1.9.5m-.5 1.6c3.6 0 5.6-3.4 5.6-6.4 0-3.4-1.7-6-5.4-6s-5.6 3.4-5.6 6.4c.1 3.5 1.8 6 5.4 6m-18.3-.3c1 0 2-.1 3.1-.1.6 0 2.2 0 2.8.1.1-.4.2-.7.2-1.1-.6-.2-1.3-.4-1.9-.4 0-.6-.1-1.2-.1-1.9v-8.3c0-2.7 0-4.7.1-7.2l-.2-.2c-1.4.1-2.8.4-4.1.9 0 .3 0 .7.1 1 .7.1 1.3.2 2 .4v14c0 .5 0 .9-.1 1.4-.7.2-1.3.4-2 .4 0 .4 0 .7.1 1m-7.8.1c1 0 2-.1 3.1-.1.6 0 2.1 0 2.8.1.1-.4.2-.7.1-1.1-.6-.2-1.3-.4-1.9-.4 0-.6-.1-1.2-.1-1.9v-8.3c0-2.7 0-4.7.1-7.2l-.2-.2c-1.4.1-2.8.4-4.1.9 0 .3 0 .7.1 1 .7.1 1.3.2 2 .4v14c0 .5 0 .9-.1 1.4-.7.2-1.3.4-2 .4 0 .3.1.7.2 1m-10.2.4c1.7 0 2.9-1.1 4.1-2.4.2 1.2.7 2.4 1.3 2.4 1.1-.1 2.1-.6 2.9-1.3 0-.3-.1-.7-.4-.9-.5.2-1.1.3-1.6.4-.1-.7-.1-1.3-.1-2v-.9c0-2.8 0-4.7.1-7.2l-.2-.2h-.9c-1.1 0-1.9 0-2.9-.1-.1.4-.2.8-.2 1.1.7.1 1.4.3 2 .5v6.7c-.7.7-2.4 1.9-3.4 1.9-1.4 0-2-1.2-2-3.2v-6.8l-.2-.2h-.8c-1.1 0-1.9 0-2.9-.1-.1.4-.1.8-.1 1.1.7.1 1.3.3 2 .5v6.4c-.1 3 1.2 4.3 3.3 4.3m-14.3-.5c1 0 2-.1 3.1-.1s2.5 0 3.9.1c.1-.4.2-.7.2-1.1-1-.3-2-.4-3-.4 0-.6-.1-1.2-.1-1.9v-6.8h3c.1-.5.1-1 .1-1.5l-3.1-.1v-.8c0-2.2.4-3.9.9-4.4.5-.3 1.1-.5 1.7-.5.4 0 .9 0 1.3.1.1.7.2 1.4.2 2.1.4.2.9.3 1.4.1.4-1.1.5-2.2.6-3.3a9.6 9.6 0 0 0-3.3-.6c-3.1 0-5 2.8-5 7.1v.3c-.7.1-1.3.2-2 .3-.1.3 0 .7.1 1 .6.1 1.3.2 1.9.3v7.3c0 .5 0 .9-.1 1.4-.7.2-1.3.4-2 .4 0 .3.1.7.2 1m-12.3-1.3c-2.7 0-3.7-2.9-3.7-5 0-1.3.4-2.6 1.3-3.6.5-.3 1.1-.5 1.8-.5 2.7 0 3.7 2.9 3.7 5 0 1.3-.4 2.6-1.3 3.6-.6.3-1.2.5-1.8.5m-.5 1.6c3.6 0 5.6-3.4 5.6-6.4 0-3.4-1.7-6-5.4-6s-5.6 3.4-5.6 6.4c.1 3.5 1.8 6 5.4 6m-12.2 0c2.6 0 4.7-1.4 4.7-3.7 0-4-6.2-3.2-6.2-5.7 0-.9.2-1.5 2.2-1.5.6 0 1.1.1 1.6.2.2.6.3 1.3.3 1.9.4.2.9.2 1.3.1.3-1 .5-2 .5-3.1-1.2-.3-2.4-.5-3.6-.5-2.1 0-4.4.8-4.4 3.3 0 2.7 2.9 2.9 4.8 3.9.7.3 1.3.9 1.3 1.7 0 1.5-.6 1.9-2.2 1.9-.8 0-1.6-.1-2.3-.4-.1-.8-.2-1.7-.2-2.5-.4-.2-.8-.2-1.2 0-.3 1.2-.5 2.4-.5 3.6 1.3.6 2.6.8 3.9.8m-21-6.7c0-1.3.4-2.5 1.3-3.5.5-.3 1.1-.5 1.8-.5 1.1 0 2.1.2 3.1.6v6.4c-1 .9-2.4 1.9-3.2 1.9-2 0-3-2.4-3-4.9m2.3 6.7c1.4 0 2.8-1.1 3.8-2.3.2 1.1.7 2.3 1.3 2.3 1.1-.1 2.1-.6 2.9-1.3 0-.3-.1-.7-.4-.9-.5.2-1.1.3-1.6.4-.1-.7-.1-1.3-.1-2V200c0-2.7 0-4.7.1-7.2l-.2-.2c-1.5.1-3 .4-4.4.9-.1.3 0 .7.1 1 .8.1 1.5.2 2.3.4v5.7c-.9-.5-1.8-.8-2.8-.9-2.8 0-5.4 2.8-5.4 6.3-.1 3.4 1.4 6.1 4.4 6.1M81 201.8c.5-.3 1.1-.5 1.7-.5 2.3 0 2.6 1.6 2.6 3.1-.6.1-1.8.1-3.1.1h-2.5c.2-1 .6-1.9 1.3-2.7m1.8 10.3c1.8-.2 3.4-.8 4.9-1.8 0-.3-.2-.7-.4-.9-1.3.5-2.6.8-4 .9-2.5 0-3.3-2.4-3.4-4.5h7.5l.2-.2c.1-.5.1-1 .1-1.5 0-2.2-1-4.5-4.5-4.5-3.2 0-5.5 3.3-5.5 6.4-.1 3.4 1.5 6 5.1 6.1m-20.2-.4c1 0 2-.1 3.1-.1.6 0 2.2 0 2.8.1.1-.4.2-.7.2-1.1-.6-.2-1.3-.4-1.9-.4 0-.6-.1-1.2-.1-1.9v-5.8c.9-.7 2-1.1 3.2-1.1 2 0 2.3 1.4 2.3 3.2v4.2c0 .5 0 .9-.1 1.4-.7.2-1.3.4-2 .4 0 .4.1.8.2 1.1 1 0 2-.1 3.1-.1.6 0 2.2 0 2.8.1.1-.4.2-.7.2-1.1-.6-.2-1.3-.4-1.9-.4 0-.6-.1-1.2-.1-1.9v-4.6c0-2.8-1.3-4-3.5-4-1.6.1-3.1.7-4.3 1.7-.1-.5-.2-1.1-.3-1.4l-.2-.2c-1.2.1-2.4.4-3.6.9 0 .3 0 .7.1 1 .7.1 1.3.2 2 .4v6.8c0 .5 0 .9-.1 1.4-.7.2-1.3.4-2 .4 0 .4 0 .8.1 1m-11.5.1c1 0 2-.1 3.1-.1.8 0 3 0 3.9.1.1-.4.2-.7.2-1.1-1-.3-2-.4-3-.4 0-.6-.1-1.2-.1-1.9v-4.8c1-1.6 1.9-1.9 2.8-1.9h.7c.2.9.3 1.8.3 2.8.4.1.9.1 1.3 0 .3-1.4.5-2.8.5-4.3-.7-.2-1.4-.3-2-.3-1.5.1-2.8 1-3.5 2.3-.1-.7-.2-1.5-.4-2.2l-.2-.2c-1.2.1-2.4.4-3.6.9 0 .3 0 .7.1 1 .7.1 1.3.2 2 .4v6.8c0 .5 0 .9-.1 1.4-.7.2-1.3.4-2 .4-.1.3-.1.7 0 1.1m-10.3.3c1.7 0 2.9-1.1 4.1-2.4.2 1.2.7 2.4 1.3 2.4 1-.1 2-.6 2.8-1.3 0-.3-.1-.7-.4-.9-.5.2-1.1.3-1.6.4-.1-.7-.1-1.3-.1-2v-.9c0-2.8 0-4.7.1-7.2l-.2-.2h-.9c-1.1 0-1.9 0-2.9-.1-.1.4-.1.8-.2 1.1.7.1 1.4.3 2 .5v6.7c-.7.7-2.4 1.9-3.4 1.9-1.4 0-2-1.2-2-3.2v-6.8l-.2-.2h-.9c-1.1 0-1.9 0-2.9-.1-.1.4-.2.8-.2 1.1.7.1 1.4.3 2 .5v6.4c0 2.8 1.2 4.1 3.5 4.1m-10.8.2c1.4 0 2.8-.4 4-1.1 0-.4-.1-.8-.4-1.1-.8.3-1.6.5-2.5.5-.8 0-1.2-.9-1.2-2.7v-6h3.9c.1-.5.1-1 .1-1.5l-4-.1v-3.3c-.4-.1-.9-.2-1.3-.1l-.8 3.4c-.7 0-1.3.1-2 .3-.1.3 0 .7 0 1 .7.1 1.4.2 1.9.3v7c0 2.2.6 3.5 2.3 3.4m-12.5-10.3c.5-.3 1.1-.5 1.7-.5 2.3 0 2.6 1.6 2.6 3.1-.6.1-1.8.1-3.1.1h-2.5c.2-1 .6-1.9 1.3-2.7m1.7 10.3c1.8-.2 3.4-.8 4.9-1.8 0-.4-.1-.7-.4-.9-1.3.5-2.6.8-4 .9-2.5 0-3.3-2.4-3.5-4.5h7.5l.2-.2c.1-.5.1-1 .1-1.5 0-2.2-1-4.5-4.5-4.5-3.2 0-5.5 3.3-5.5 6.4.1 3.4 1.6 6 5.2 6.1m-16.3-.4c1 0 2-.1 3.1-.1.8 0 3 0 3.9.1.1-.4.2-.7.1-1.1-1-.3-2-.4-3-.4-.1-.6-.1-1.2-.1-1.9v-4.8c1-1.6 1.9-1.9 2.8-1.9h.7c.2.9.3 1.8.3 2.8.4.1.9.1 1.3 0 .3-1.4.5-2.8.4-4.3-.6-.2-1.3-.3-2-.3-1.5.1-2.8 1-3.5 2.3-.1-.7-.3-1.3-.5-2l-.2-.2c-1.2.1-2.5.4-3.6.9 0 .3 0 .7.1 1 .7.1 1.3.2 2 .4v6.8c0 .5 0 .9-.1 1.4-.7.2-1.3.4-2 .4 0 .4 0 .8.2 1.1m371.5-26c1.9 0 3.5-2.8 5-6.6l3.8-10c.5-.1 1-.2 1.5-.4.1-.4 0-.8-.1-1.1h-4.9c-.1.4-.2.7-.2 1.1l2 .4-3.3 8.7-.1-1.8-2.6-6.9 2-.4c.1-.4 0-.8-.1-1.1h-5.5c-.1.4-.2.7-.2 1.1.5.1 1 .2 1.4.4l3.9 10.2h.8l-.4.9c-1 2.2-2.3 3.8-4.7 3.8h-.3c-.3.3-.4.7-.4 1.1.6.3 1.5.6 2.4.6M363 169.5c.5-.3 1.1-.5 1.8-.5 2.3 0 2.7 1.6 2.7 3.1-.6.1-1.8.1-3.1.1h-2.5c0-1 .5-1.9 1.1-2.7m1.8 10.3c1.8-.2 3.5-.8 5-1.8 0-.4-.2-.7-.4-.9-1.3.5-2.7.8-4.1.9-2.5 0-3.4-2.4-3.5-4.5h7.7l.2-.2c.1-.5.1-1 .1-1.5 0-2.2-1-4.5-4.6-4.5-3.3 0-5.6 3.3-5.6 6.4 0 3.4 1.6 6 5.2 6.1m-20.5-.4c1 0 2.1-.1 3.1-.1.6 0 2.2 0 2.9.1.1-.4.2-.7.2-1.1-.6-.2-1.3-.4-1.9-.4 0-.6-.1-1.2-.1-1.9v-6.2c1-.5 2.1-.7 3.2-.7 2 0 2.4 1.4 2.4 3.2v4.2c0 .5 0 .8-.1 1.4-.7.2-1.4.3-2.1.4 0 .4 0 .8.2 1.1 1 0 2.1-.1 3.1-.1.6 0 2.2 0 2.9.1.1-.4.2-.7.2-1.1-.6-.2-1.3-.4-2-.4 0-.6-.1-1.2-.1-1.9v-4.7c0-2.8-1.3-4-3.6-4-1.5 0-3 .5-4.2 1.3v-.9c0-2.7 0-4.7.1-7.2l-.2-.2c-1.4.1-2.8.4-4.2.9 0 .3 0 .7.1 1 .7.1 1.3.2 2 .4v14c0 .5 0 .9-.1 1.4-.7.2-1.4.3-2.1.4 0 .3.1.7.3 1m-5.8.4c1.4 0 2.8-.4 4-1.2 0-.4-.1-.8-.4-1.1-.8.3-1.7.5-2.6.5-.8 0-1.2-.9-1.2-2.8v-6h3.9c.1-.5.1-1 .1-1.5l-4-.1v-3.3c-.4-.1-.9-.2-1.3-.1l-.9 3.4c-.7 0-1.3.1-2 .3-.1.3 0 .7 0 1 .7.1 1.4.2 1.9.3v7c.2 2.4.8 3.7 2.5 3.6m-14.4.1c1.4 0 2.8-.4 4-1.2 0-.4-.1-.8-.4-1.1-.8.3-1.7.5-2.6.5-.8 0-1.2-.9-1.2-2.8v-6h3.9c.1-.5.1-1 .1-1.5l-4-.1v-3.3c-.4-.1-.9-.2-1.3-.1l-.9 3.4c-.7 0-1.3.1-2 .3-.1.3 0 .7 0 1 .7.1 1.4.2 1.9.3v7c.2 2.3.8 3.6 2.5 3.6m-13.9-3.6c0-.5.2-1.1.5-1.5 1.3-.6 2.8-1 4.2-1.1v2.9c-.8.7-1.8 1.2-2.8 1.3-1.4.1-1.9-.7-1.9-1.6m.6 3.6c1.6-.2 3.1-.9 4.3-2 .3 1.2.8 2 1.3 2 1.1-.1 2.1-.6 2.9-1.3 0-.3-.1-.7-.4-.9-.5.2-1.1.3-1.6.4-.1-.7-.1-1.3-.1-2v-4.7c0-3.4-2.5-3.9-4.1-3.9s-3.2.4-4.6 1.3c0 .9.2 1.8.6 2.7.5.1 1 .1 1.5-.2 0-.7 0-1.3.2-2 .7-.1 1.3-.2 2-.2 1.8 0 2.2 1.3 2.2 3.2-3.3.6-7 1.9-7 4.7-.1 1.5 1 2.9 2.5 3 0-.1.1-.1.3-.1m-18.7-.3c1 0 2.1-.1 3.1-.1.6 0 2.2 0 2.9.1.1-.4.2-.7.1-1.1-.6-.2-1.3-.4-1.9-.4-.1-.6-.1-1.2-.1-1.9V170c1-.5 2.1-.7 3.2-.7 2 0 2.4 1.4 2.4 3.2v4.2c0 .5 0 .8-.1 1.4-.7.2-1.4.3-2.1.4 0 .4.1.8.2 1.1 1 0 2.1-.1 3.1-.1.6 0 2.2 0 2.9.1.1-.4.2-.7.2-1.1-.6-.2-1.3-.4-2-.4 0-.6-.1-1.2-.1-1.9v-4.7c0-2.8-1.3-4-3.5-4-1.5 0-3 .5-4.2 1.3v-.9c0-2.7 0-4.7.1-7.2l-.2-.2c-1.4.1-2.8.4-4.2.9 0 .3 0 .7.1 1 .7.1 1.3.2 2 .4v14c0 .5 0 .9-.1 1.4-.7.2-1.4.3-2.1.4.1.3.1.7.3 1m-5.7.4c1.4 0 2.8-.4 4-1.2 0-.4-.1-.8-.4-1.1-.8.3-1.7.5-2.5.5s-1.2-.9-1.2-2.8v-6h3.9c.1-.5.1-1 .1-1.5l-4-.1v-3.3c-.4-.1-.9-.2-1.3-.1l-.9 3.4c-.7 0-1.3.1-2 .3-.1.3 0 .7 0 1 .7.1 1.5.2 1.9.3v7c0 2.3.7 3.6 2.4 3.6m-18.2-10.3c.5-.3 1.1-.5 1.8-.5 2.3 0 2.7 1.6 2.7 3.1-.6.1-1.8.1-3.1.1H267c.1-1 .6-1.9 1.2-2.7M270 180c1.8-.2 3.5-.8 5-1.8 0-.4-.1-.7-.4-.9-1.3.5-2.7.8-4.1.9-2.5 0-3.4-2.4-3.5-4.5h7.7l.2-.2c.1-.5.1-1 .1-1.5 0-2.2-1-4.5-4.6-4.5-3.3 0-5.6 3.3-5.6 6.4 0 3.4 1.6 6 5.2 6.1m-12.2-.1c2.7 0 4.8-1.4 4.8-3.7 0-4-6.3-3.2-6.3-5.7 0-.9.2-1.5 2.2-1.5.6 0 1.1.1 1.6.2.2.6.3 1.3.3 1.9.4.2.9.2 1.3.1.3-1 .5-2 .5-3.1-1.2-.3-2.4-.5-3.7-.5-2.1 0-4.5.8-4.5 3.3 0 2.7 3 2.9 4.9 3.9.8.4 1.3.9 1.3 1.7 0 1.5-.6 1.9-2.3 1.9-.8 0-1.6-.1-2.4-.4-.1-.8-.2-1.7-.2-2.5-.4-.2-.8-.2-1.2 0-.3 1.2-.5 2.4-.5 3.6 1.5.6 2.9.8 4.2.8m-12.2-.3c1 0 2.1-.1 3.1-.1.6 0 2.2 0 2.9.1.1-.4.2-.7.1-1.1-.6-.2-1.3-.4-1.9-.4 0-.6-.1-1.2-.1-1.9V175c0-2.7 0-4.7.1-7.2l-.2-.2c-1.4.1-2.8.4-4.2.9 0 .3 0 .7.1 1 .7.1 1.3.2 2 .4v6.9c0 .5 0 .9-.1 1.4-.7.2-1.4.4-2.1.4 0 .3.1.7.3 1m2.6-14c1-.1 1.8-.9 1.8-1.9-.1-.8-.8-1.4-1.6-1.4-1 .1-1.7.9-1.8 1.9.2.9.8 1.4 1.6 1.4m-14.4 14c1 0 2.1-.1 3.1-.1.9 0 3 0 4 .1.1-.4.2-.7.1-1.1-1-.2-2-.4-3-.4-.1-.6-.1-1.2-.1-1.9v-4.8c1.1-1.6 1.9-1.9 2.9-1.9h.7c.2.9.3 1.8.3 2.8.4.2.9.2 1.3 0 .3-1.4.5-2.8.5-4.3-.7-.2-1.4-.3-2.1-.3-1.5.1-2.9 1-3.6 2.3-.1-.7-.3-1.5-.4-2.2l-.2-.2c-1.3.1-2.5.4-3.7.9 0 .3 0 .7.1 1 .7.1 1.3.2 2 .4v6.8c0 .5 0 .9-.1 1.4-.7.2-1.4.3-2.1.4.1.4.1.7.3 1.1m-7.3-10.4c2.1 0 3.2 2.4 3.2 4.9 0 1.3-.4 2.6-1.3 3.6-.5.3-1.1.5-1.6.5-1.3 0-2.6-.6-3.5-1.6v-6.3c.9-.6 2-1 3.2-1.1m-7.4 16.6c1.1 0 2.1-.1 3.1-.1s2.6 0 4 .1c.1-.4.2-.7.1-1.1-1-.2-2-.4-3-.4 0-.6-.1-1.2-.1-1.9v-3.7c1 .7 2.1 1.1 3.2 1.2 3.1 0 5.4-3.4 5.4-6.4 0-3.6-1.9-5.9-4.7-5.9-1.5 0-3 .6-4.1 1.6-.1-.4-.2-.9-.3-1.3l-.2-.2c-1.3.1-2.5.4-3.7.9 0 .3 0 .7.1 1 .7.1 1.3.2 2 .4v13c0 .5 0 .9-.1 1.4-.7.2-1.4.3-2.1.4.2.3.3.7.4 1m-11.6-6.2c1 0 2.1-.1 3.1-.1.9 0 3.1 0 4 .1.1-.4.2-.7.1-1.1-1-.2-2-.4-3-.4-.1-.6-.1-1.2-.1-1.9v-4.8c1.1-1.6 1.9-1.9 2.9-1.9h.7c.2.9.3 1.8.3 2.8.4.2.9.2 1.3 0 .3-1.4.5-2.8.5-4.3-.7-.2-1.4-.3-2.1-.3-1.5.1-2.9 1-3.6 2.3-.1-.7-.2-1.5-.4-2.2l-.2-.2c-1.3.1-2.5.4-3.7.9 0 .3 0 .7.1 1 .7.1 1.3.2 2 .4v6.8c0 .5 0 .9-.1 1.4-.7.2-1.4.3-2.1.4.1.4.2.7.3 1.1m-10.5.3c1.7 0 3-1.1 4.2-2.4.2 1.2.7 2.4 1.3 2.4 1.1-.1 2.2-.5 3-1.3 0-.3-.1-.7-.4-.9-.5.2-1.1.3-1.6.4-.1-.7-.1-1.3-.1-2v-.9c0-2.7 0-4.7.1-7.2l-.2-.2h-.9c-1.1 0-1.9 0-3-.1-.1.4-.1.8-.1 1.1.7.1 1.4.3 2 .5v6.7c-.7.7-2.4 1.9-3.5 1.9-1.5 0-2-1.2-2-3.2 0-1.5 0-4.4.1-6.8l-.2-.2h-.9c-1.1 0-2 0-3-.1-.1.4-.1.8-.1 1.1.7.1 1.3.3 2 .5v6.4c-.3 3 1 4.3 3.3 4.3m-12.2-.1c2.7 0 4.8-1.4 4.8-3.7 0-4-6.3-3.2-6.3-5.7 0-.9.2-1.5 2.2-1.5.6 0 1.1.1 1.6.2.2.6.3 1.3.3 1.9.4.2.9.2 1.3.1.3-1 .5-2 .5-3.1-1.2-.3-2.4-.5-3.7-.5-2.1 0-4.5.8-4.5 3.3 0 2.7 3 2.9 4.9 3.9.8.4 1.3.9 1.3 1.7 0 1.5-.6 1.9-2.3 1.9-.8 0-1.6-.1-2.4-.4-.1-.8-.2-1.7-.3-2.5-.4-.2-.8-.2-1.2 0-.3 1.2-.5 2.4-.5 3.6 1.6.6 3 .9 4.3.8m-20.6-.2c1 0 2.1-.1 3.1-.1.9 0 3 0 4 .1.1-.4.2-.7.2-1.1-1-.2-2-.4-3.1-.4 0-.6-.1-1.2-.1-1.9v-4.8c1.1-1.6 1.9-1.9 2.9-1.9h.7c.2.9.3 1.8.3 2.8.4.2.9.2 1.3 0 .3-1.4.5-2.8.5-4.3-.7-.2-1.4-.3-2.1-.3-1.5.1-2.9 1-3.6 2.3-.1-.7-.2-1.5-.4-2.2l-.2-.2c-1.3.1-2.5.4-3.7.9 0 .3 0 .7.1 1 .7.1 1.3.2 2 .4v6.8c0 .5 0 .9-.1 1.4-.7.2-1.4.3-2.1.4.1.3.1.7.3 1.1m-9.2-10.1c.5-.3 1.1-.5 1.8-.5 2.3 0 2.7 1.6 2.7 3.1-.6.1-1.8.1-3.1.1h-2.5c0-.9.4-1.9 1.1-2.7m1.8 10.4c1.8-.2 3.5-.8 5-1.8 0-.4-.1-.7-.4-.9-1.3.5-2.7.8-4.1.9-2.5 0-3.4-2.4-3.5-4.5h7.7l.2-.2c.1-.5.1-1 .1-1.5 0-2.2-1-4.5-4.6-4.5-3.3 0-5.6 3.3-5.6 6.4 0 3.4 1.5 6 5.2 6.1m-10.5-.1c1.4 0 2.8-.5 4-1.2 0-.4-.1-.8-.4-1.1-.8.3-1.7.5-2.6.5-.8 0-1.2-.9-1.2-2.8v-6h3.9c.1-.5.1-1 .1-1.5l-4-.1v-3.3c-.4-.1-.9-.2-1.3-.1l-.9 3.4c-.7 0-1.3.1-2 .3-.1.3-.1.7 0 1 .7.1 1.4.2 1.9.3v7c0 2.4.7 3.6 2.5 3.6m-12.9-10.3c.5-.3 1.1-.5 1.8-.5 2.3 0 2.7 1.6 2.7 3.1-.6.1-1.8.1-3.1.1h-2.5c0-.9.4-1.9 1.1-2.7m1.8 10.3c1.8-.2 3.5-.8 5-1.8 0-.4-.2-.7-.4-.9-1.3.5-2.7.8-4.1.9-2.5 0-3.4-2.4-3.5-4.5h7.7l.2-.2c.1-.5.1-1 .1-1.5 0-2.2-1-4.5-4.6-4.5-3.3 0-5.6 3.3-5.6 6.4-.1 3.4 1.5 6.1 5.2 6.1m-14.3-10.4c.5-.3 1.1-.5 1.8-.5 2.3 0 2.7 1.6 2.7 3.1-.7.1-1.8.1-3.2.1h-2.5c.1-.9.5-1.9 1.2-2.7m1.8 10.4c1.8-.2 3.5-.8 5-1.8 0-.4-.2-.7-.4-.9-1.3.5-2.7.8-4.1.9-2.5 0-3.4-2.4-3.5-4.5h7.7l.2-.2c.1-.5.1-1 .1-1.5 0-2.2-1-4.5-4.6-4.5-3.3 0-5.6 3.3-5.6 6.4 0 3.4 1.5 6 5.2 6.1m-21.2-.3c.8 0 1.7-.1 2.5-.4l2.7-9.3.2 2 2.1 7.7c.9 0 1.7-.1 2.6-.4l3.3-9.9c.5-.1 1-.2 1.5-.4 0-.4 0-.8-.1-1.1h-4.8c-.1.4-.2.7-.2 1.1l2 .4-2.7 8.8-.2-1.8-2.3-8.5c-.8 0-1.5.1-2.2.2l-2.8 10.1-.1-1.8-2.2-6.9 2-.4c.1-.4 0-.8-.1-1.1H97c-.1.4-.2.7-.2 1.1.5.1 1 .2 1.4.4l3.3 10.2zm-11.4.1c2.7 0 4.8-1.4 4.8-3.7 0-4-6.3-3.2-6.3-5.7 0-.9.2-1.5 2.2-1.5.6 0 1.1.1 1.7.2.2.7.4 1.4.4 2.1.4.2.9.2 1.3.1.3-1 .5-2 .5-3.1-1.2-.3-2.4-.5-3.7-.5-2.1 0-4.5.8-4.5 3.3 0 2.7 3 2.9 4.9 3.9.8.4 1.3.9 1.3 1.7 0 1.5-.6 1.9-2.3 1.9-.8 0-1.6-.1-2.3-.4-.1-.8-.2-1.7-.2-2.5-.4-.2-.8-.2-1.2 0-.3 1.2-.5 2.4-.5 3.6 1.3.5 2.6.7 4 .7m-15.8-1.6c.6.1 1 .7 1 1.3-.2 1.2-.8 2.2-1.7 3 0 .4.3.7.6.8 1.8-.8 3.6-3 3.6-4.8.1-1-.7-1.8-1.6-1.9H76c-.8 0-1.5.7-1.6 1.6m-10.9 1.4c1 0 2.1-.1 3.1-.1.8 0 3 0 4 .1.1-.4.2-.7.2-1.1-1-.2-2-.4-3-.4 0-.6-.1-1.2-.1-1.9v-4.8c1-1.6 1.9-1.9 2.9-1.9h.7c.2.9.3 1.8.3 2.8.4.2.9.2 1.3 0 .3-1.4.5-2.8.5-4.3-.7-.2-1.4-.3-2.1-.3-1.5.1-2.9 1-3.6 2.3-.1-.7-.3-1.5-.4-2.2l-.2-.2c-1.3.1-2.5.4-3.7.9 0 .3 0 .7.1 1 .7.1 1.3.2 2 .4v6.8c0 .5 0 .9-.1 1.4-.7.2-1.4.3-2.1.4 0 .3.1.7.2 1.1m-9.1-10c.5-.3 1.1-.5 1.8-.5 2.3 0 2.7 1.6 2.7 3.1-.7.1-1.8.1-3.2.1h-2.5c.1-1 .5-1.9 1.2-2.7m1.8 10.3c1.8-.2 3.5-.8 5-1.8 0-.4-.1-.7-.4-.9-1.3.5-2.7.8-4.1.9-2.5 0-3.4-2.4-3.5-4.5h7.7l.2-.2c.1-.5.1-1 .1-1.5 0-2.2-1-4.5-4.6-4.5-3.3 0-5.6 3.3-5.6 6.4 0 3.4 1.5 6 5.2 6.1M40 182.1c.1-1 .5-1.8 1.2-2.5 1 .2 1.9.3 2.9.3 2.5 0 3.4.6 3.4 1.8 0 .8-.2 1.5-.7 2.1-1.1.5-2.2.8-3.4.7-2.8-.1-3.4-1.5-3.4-2.4m3.2-7.7c-1.6-.1-2.8-1.4-2.8-3 0-.8.4-1.5 1-2.1.5-.2 1.1-.3 1.6-.3 1.6-.1 2.9 1.1 3 2.7 0 .9-.3 1.7-1 2.3-.5.3-1.1.4-1.8.4m-.3 1.6c3.6 0 5.3-2.4 5.3-4.6 0-.9-.3-1.8-.8-2.5 1.1-.3 2.3-.7 3-1 0-.7-.4-1.3-.9-1.7-1.1.4-2.1 1.1-3 1.9-.9-.5-1.8-.7-2.8-.6-2.6-.2-4.9 1.8-5.1 4.4v.3c-.1 1.8 1.1 3.4 2.8 3.7-.7.6-1.1 1.4-1.2 2.3 0 .4.1.7.3 1-1.2.7-2.5 1.9-2.5 3.5s1.7 3.5 4.8 3.5c4.2 0 6.9-1.7 6.9-5.2 0-1.7-1.7-2.9-5-2.9-.8.1-1.7 0-2.5-.2-.1-.2-.1-.5-.1-.7 0-.4.1-.7.3-1 .2-.2.3-.2.5-.2m-16.4 6.1c.1-1 .5-1.8 1.2-2.5 1 .2 1.9.3 2.9.3 2.5 0 3.4.6 3.4 1.8 0 .8-.2 1.5-.7 2.1-1.1.5-2.2.8-3.4.7-2.8-.1-3.4-1.5-3.4-2.4m3.2-7.7c-1.6-.1-2.8-1.4-2.8-3 0-.8.4-1.5 1-2.1.5-.2 1.1-.3 1.6-.3 1.6-.1 2.9 1.1 3 2.7 0 .9-.4 1.7-1 2.3-.5.3-1.1.4-1.8.4m-.4 1.6c3.6 0 5.3-2.4 5.3-4.6 0-.9-.3-1.8-.8-2.5 1.1-.3 2.3-.7 3-1 0-.7-.4-1.3-.9-1.7-1.1.4-2.1 1.1-3 1.9-.9-.5-1.8-.7-2.8-.6-2.6-.2-4.9 1.8-5.1 4.4v.3c-.1 1.8 1.1 3.4 2.8 3.7-.7.6-1.1 1.4-1.2 2.3 0 .4.1.7.3 1-1.2.7-2.5 1.9-2.5 3.5s1.7 3.5 4.8 3.5c4.2 0 6.9-1.7 6.9-5.2 0-1.7-1.7-2.9-5-2.9-.8.1-1.7 0-2.5-.2-.1-.2-.1-.5-.1-.7 0-.4.1-.7.3-1 .2-.2.4-.2.5-.2M17 179.5c1 0 2.1-.1 3.1-.1.6 0 2.2 0 2.9.1.1-.4.2-.7.1-1.1-.6-.2-1.3-.4-1.9-.4 0-.6-.1-1.2-.1-1.9v-1.2c0-2.7 0-4.7.1-7.2l-.2-.2c-1.4.1-2.8.4-4.2.9 0 .3 0 .7.1 1 .7.1 1.3.2 2 .4v8.3c-.7.2-1.4.4-2.1.4 0 .3.1.7.2 1m2.7-14c1-.1 1.8-.9 1.8-1.9-.1-.8-.8-1.4-1.5-1.4-1 .1-1.7.9-1.8 1.9.1.9.7 1.4 1.5 1.4m-9.9 3.8c2.1 0 3.2 2.4 3.2 4.9 0 1.3-.5 2.6-1.3 3.6-.5.3-1 .5-1.6.5-1.3-.1-2.6-.6-3.5-1.6v-6.4c1-.6 2.1-1 3.2-1M4.3 180c.7-.4 1.2-.9 1.7-1.5 1.1.8 2.4 1.3 3.8 1.4 3.1 0 5.4-3.4 5.4-6.4 0-3.6-1.9-5.9-4.7-5.9-1.4 0-2.8.5-3.9 1.4v-1.1c0-2.7 0-4.7.1-7.2l-.2-.2c-1.4.1-2.8.4-4.2.9 0 .3 0 .7.1 1 .7.1 1.3.2 2 .4v14c0 1-.3 2-.8 2.9.1.1.4.3.7.3m370.4-36c0-.5.2-1.1.5-1.5 1.3-.6 2.7-1 4.2-1.1v2.9c-.8.7-1.7 1.2-2.8 1.3-1.4.1-1.9-.7-1.9-1.6m.6 3.6c1.6-.2 3.1-.9 4.2-2 .2 1.2.7 2 1.2 2 1.1-.1 2.1-.6 2.9-1.3 0-.3-.1-.7-.4-.9-.5.2-1.1.3-1.6.4-.1-.7-.1-1.3-.1-2v-4.7c0-3.4-2.5-3.9-4-3.9-1.6 0-3.2.4-4.5 1.3 0 .9.2 1.8.6 2.7.5.1 1 .1 1.5-.2 0-.7 0-1.3.2-2 .7-.1 1.3-.2 2-.2 1.7 0 2.1 1.3 2.1 3.2-3.3.6-7 1.9-7 4.7-.1 1.5 1 2.9 2.5 3 .1-.1.2-.1.4-.1m-14.9-.1c2.6 0 4.7-1.4 4.7-3.7 0-4-6.2-3.2-6.2-5.7 0-.9.2-1.5 2.2-1.5.6 0 1.1.1 1.6.2.2.6.3 1.3.3 1.9.4.2.9.2 1.3.1.3-1 .5-2 .5-3.1-1.2-.3-2.4-.5-3.6-.5-2.1 0-4.4.8-4.4 3.3 0 2.7 3 2.9 4.8 3.9.7.3 1.3.9 1.3 1.7 0 1.5-.6 1.9-2.2 1.9-.8 0-1.6-.1-2.3-.4-.1-.8-.2-1.7-.2-2.5-.4-.2-.8-.2-1.2 0-.3 1.2-.5 2.4-.5 3.6 1.3.6 2.6.8 3.9.8m-7.7-18.2c.6.1 1 .6.9 1.2-.2 1.1-.7 2.1-1.5 2.8 0 .3.3.6.6.7 1.6-.7 3.4-2.8 3.4-4.5.1-.9-.6-1.7-1.5-1.8h-.2c-.9 0-1.6.7-1.7 1.6m-6.1 18.3c1.4 0 2.8-.4 4-1.2 0-.4-.1-.8-.4-1.1-.8.3-1.7.5-2.5.5s-1.2-.9-1.2-2.7v-6h3.9c.1-.5.1-1 .1-1.5l-4-.1v-3.3c-.4-.1-.9-.2-1.3-.1l-.8 3.4c-.7 0-1.3.1-2 .3-.1.3 0 .7.1 1 .7.1 1.4.2 1.9.3v7c-.1 2.3.5 3.5 2.2 3.5m-11.3-.3c1 0 2-.1 3.1-.1.6 0 2.2 0 2.9.1.1-.4.2-.7.1-1.1-.6-.2-1.3-.4-1.9-.4 0-.6-.1-1.2-.1-1.9v-1.2c0-2.8 0-4.7.1-7.2l-.2-.2c-1.4.1-2.8.4-4.1.9 0 .3 0 .7.1 1 .7.1 1.3.2 2 .4v6.9c0 .5 0 .9-.1 1.4-.7.2-1.3.4-2 .4 0 .3 0 .7.1 1m2.7-14c1-.1 1.7-.9 1.8-1.9-.1-.8-.7-1.4-1.5-1.4-1 .1-1.7.9-1.8 1.9.1.9.7 1.4 1.5 1.4m-13 14.4c1.4 0 2.8-.4 4-1.2 0-.4-.1-.8-.4-1.1-.8.3-1.7.5-2.5.5s-1.2-.9-1.2-2.7v-6h3.9c.1-.5.1-1 .1-1.5l-4-.1v-3.3c-.4-.1-.9-.2-1.3-.1l-.8 3.4c-.7 0-1.3.1-2 .3-.1.3-.1.7 0 1 .7.1 1.4.2 1.9.3v7c-.1 2.3.5 3.5 2.3 3.5m-13.5 0c1.7 0 3-1.1 4.2-2.4.2 1.2.7 2.4 1.3 2.4 1.1-.1 2.2-.7 3-1.5 0-.3-.1-.7-.4-.9-.5.2-1.1.3-1.6.4-.1-.7-.1-1.3-.1-2v-.9c0-2.8 0-4.7.1-7.2l-.2-.2h-.9c-1.1 0-1.9 0-2.9-.1-.1.4-.1.8-.1 1.1.7.1 1.4.3 2 .5v6.7c-.7.7-2.4 1.9-3.4 1.9-1.5 0-2-1.2-2-3.2v-6.8l-.2-.2h-.9c-1.1 0-1.9 0-3-.1-.1.4-.1.8-.1 1.1.7.1 1.3.3 2 .5v6.4c0 2.8 1.2 4.1 3.5 4.1m-13-8.1c2.1 0 3.8 1.3 3.8 3.1.1 1.1-.3 2.1-1.1 2.8-.9.4-1.9.6-3 .5h-2.4v-6.4h2.7zm-.3-7.2c1.5 0 2.8 1.3 2.8 2.8v.1c0 1.4-1 2.7-3.3 2.7h-1.9v-5.5c.8 0 1.7-.1 2.4-.1m.4 15.2c4.2 0 6-2.9 6-5.6 0-1.8-1.2-3.4-3.8-3.8 1.5-.6 2.5-2 2.5-3.7 0-2.1-1.8-3.8-3.9-3.8h-.2c-1.2 0-2.8.1-4.6.1h-3.2c-.1.4-.2.8-.2 1.2.8.1 1.5.2 2.2.5.1.9.1 2 .1 3.4v7.4c0 .9 0 1.7-.1 2.6-.7.2-1.5.4-2.2.5 0 .4.1.8.2 1.2 1.1 0 2.1-.1 3.2-.1 1.5.1 2.7.2 4 .1m-18.7-1.4c0 1 .8 1.8 1.8 1.8s1.8-.8 1.8-1.8c-.1-1-1-1.7-1.9-1.6-1 .2-1.6.8-1.7 1.6m-9.5-8.6c.5-.3 1.1-.5 1.7-.5 2.3 0 2.6 1.6 2.6 3.1-.6.1-1.8.1-3.1.1h-2.5c.2-.9.6-1.9 1.3-2.7m1.8 10.3c1.8-.2 3.5-.8 4.9-1.8 0-.4-.1-.7-.4-.9-1.3.5-2.7.8-4 .9-2.5 0-3.3-2.4-3.5-4.5h3c1.9 0 3.6 0 4.6.1l.2-.2c.1-.5.1-1 .1-1.5 0-2.2-1-4.5-4.5-4.5-3.2 0-5.5 3.3-5.5 6.4-.1 3.4 1.5 6 5.1 6m-27-.3c1 0 2-.1 3.1-.1.6 0 2.2 0 2.9.1.1-.4.2-.7.1-1.1-.6-.2-1.3-.4-1.9-.4-.1-.6-.1-1.2-.1-1.9v-5.9c.8-.6 1.8-.9 2.8-1 2 0 2.2 1.4 2.2 3.2v4.2c0 .5 0 .9-.1 1.4-.6.2-1.2.3-1.8.4 0 .4.1.8.2 1.1.7 0 1.8-.1 2.8-.1.6 0 1.9 0 2.6.1.1-.4.1-.7.1-1.1-.5-.2-1.1-.4-1.7-.4v-6.6c0-.4 0-.8-.1-1.2.9-.6 1.9-1 3-1.1 2 0 2.2 1.4 2.2 3.2v4.2c0 .5 0 .9-.1 1.4-.7.2-1.3.4-2 .4 0 .4 0 .8.2 1.1 1 0 2-.1 3.1-.1.6 0 2.2 0 2.8.1.1-.4.2-.7.2-1.1-.6-.2-1.3-.4-1.9-.4 0-.6-.1-1.2-.1-1.9V139c0-2.8-1.2-4-3.4-4-1.6.1-3.1.8-4.1 1.9-.4-1.3-1.7-2.1-3.1-1.9-1.5.1-2.8.7-3.9 1.7-.1-.6-.2-1.1-.3-1.4l-.2-.2c-1.2.1-2.5.4-3.6.9 0 .3 0 .7.1 1 .7.1 1.3.2 2 .4v6.8c0 .5 0 .9-.1 1.4-.7.2-1.3.4-2 .4 0 .4 0 .8.1 1.2m-10.8-3.2c0-.5.2-1.1.5-1.5 1.3-.6 2.7-1 4.2-1.1v2.9c-.8.7-1.7 1.2-2.8 1.3-1.3.1-1.9-.7-1.9-1.6m.6 3.6c1.6-.2 3.1-.9 4.2-2 .3 1.2.7 2 1.2 2 1.1-.1 2.1-.6 2.9-1.3 0-.3-.1-.7-.4-.9-.5.2-1.1.3-1.6.4-.1-.7-.1-1.3-.1-2v-4.7c0-3.4-2.5-3.9-4-3.9-1.6 0-3.2.5-4.5 1.3 0 .9.2 1.8.6 2.7.5.1 1 .1 1.5-.2 0-.7 0-1.3.2-2 .7-.1 1.3-.2 2-.2 1.7 0 2.1 1.3 2.1 3.2-3.3.6-7 1.9-7 4.7-.1 1.5 1 2.9 2.5 3 .1-.1.2-.1.4-.1m-14.2 2.3c.1-1 .5-1.8 1.2-2.5.9.2 1.9.3 2.9.3 2.4 0 3.3.6 3.3 1.8 0 .8-.2 1.5-.7 2.1-1 .5-2.2.8-3.4.7-2.7-.1-3.3-1.5-3.3-2.4m3.2-7.7c-1.5 0-2.8-1.3-2.8-2.8v-.2c0-.8.4-1.6 1-2.1.5-.2 1.1-.3 1.6-.3 1.6-.1 2.9 1.2 2.9 2.8 0 .9-.3 1.7-1 2.3-.5.2-1.1.3-1.7.3m-.4 1.6c3.6 0 5.2-2.4 5.2-4.6 0-.9-.3-1.8-.8-2.5 1-.3 2.2-.7 2.9-1 0-.7-.4-1.3-.9-1.7-1.1.4-2.1 1.1-3 1.9-.8-.5-1.8-.7-2.8-.6-2.6-.2-4.8 1.8-5 4.4v.2c-.2 1.8 1.1 3.4 2.8 3.7-.7.6-1.1 1.4-1.2 2.3 0 .4.1.7.3 1-1.4.6-2.3 2-2.5 3.5 0 1.7 1.7 3.5 4.8 3.5 4.2 0 6.9-1.7 6.9-5.2 0-1.7-1.6-2.9-5-2.9-.8 0-1.6 0-2.4-.2-.1-.2-.1-.5-.1-.7 0-.4.1-.7.3-1 .1-.1.3-.1.5-.1m-18.6-6.6c.5-.3 1.1-.5 1.7-.5 2.3 0 2.6 1.6 2.6 3.1-.6.1-1.8.1-3.1.1H204c.2-.9.6-1.9 1.3-2.7m1.7 10.3c1.8-.2 3.5-.8 4.9-1.8 0-.4-.1-.7-.4-.9-1.3.5-2.7.8-4.1.9-2.5 0-3.3-2.4-3.5-4.5h3c1.9 0 3.6 0 4.6.1l.2-.2c.1-.5.1-1 .1-1.5 0-2.2-1-4.5-4.5-4.5-3.2 0-5.5 3.3-5.5 6.4.1 3.4 1.6 6 5.2 6m-20.2-.3c1 0 2-.1 3.1-.1.6 0 2.2 0 2.9.1.1-.4.2-.7.1-1.1-.6-.2-1.3-.4-1.9-.4 0-.6-.1-1.2-.1-1.9v-6.2c1-.5 2.1-.7 3.2-.7 2 0 2.3 1.4 2.3 3.2v4.2c0 .5 0 .9-.1 1.4-.7.2-1.4.4-2.1.4 0 .4.1.8.2 1.1 1 0 2-.1 3.1-.1.6 0 2.2 0 2.9.1.1-.4.2-.7.2-1.1-.6-.2-1.3-.4-1.9-.4-.1-.6-.1-1.2-.1-1.9v-4.7c0-2.8-1.3-4-3.5-4-1.5 0-2.9.5-4.2 1.3v-.9c0-2.7 0-4.7.1-7.2l-.2-.2c-1.4.1-2.8.4-4.1.9 0 .3 0 .7.1 1 .7.1 1.3.2 2 .4v13.9c0 .5 0 .9-.1 1.4-.7.2-1.3.4-2 .4-.1.4 0 .8.1 1.1m-5.6.4c1.4 0 2.8-.5 3.9-1.2 0-.4-.1-.8-.4-1.1-.8.3-1.7.5-2.5.5s-1.2-.9-1.2-2.7v-6h3.9c.1-.5.1-1 .1-1.5l-4-.1v-3.3c-.4-.1-.9-.2-1.3-.1l-.8 3.4c-.7 0-1.3.1-2 .3-.1.3-.1.7.1 1 .7.1 1.4.2 1.9.3v7c0 2.2.6 3.5 2.3 3.5m-24.2-.4c1 0 2-.1 3.1-.1.6 0 2.2 0 2.9.1.1-.4.2-.7.2-1.1-.6-.2-1.3-.4-1.9-.4-.1-.6-.1-1.2-.1-1.9V138c.9-.7 2-1.1 3.2-1.1 2 0 2.3 1.4 2.3 3.2v4.2c0 .5 0 .9-.1 1.4-.7.2-1.3.4-2 .4 0 .4.1.8.1 1.1 1 0 2.1-.1 3.1-.1.6 0 2.2 0 2.8.1.1-.4.2-.7.2-1.1-.6-.2-1.3-.4-1.9-.4-.1-.6-.1-1.2-.1-1.9v-4.7c0-2.8-1.3-4-3.5-4-1.6.1-3.1.7-4.3 1.7-.1-.5-.2-1.1-.3-1.4l-.2-.2c-1.2.1-2.5.4-3.6.9 0 .3 0 .7.1 1 .7.1 1.3.2 2 .4v6.8c0 .5 0 .9-.1 1.4-.7.2-1.3.4-2 .4 0 .4 0 .8.1 1.1m-8.1 0c1 0 2-.1 3.1-.1.6 0 2.2 0 2.9.1.1-.4.2-.7.1-1.1-.6-.2-1.3-.4-1.9-.4 0-.6-.1-1.2-.1-1.9v-1.2c0-2.8 0-4.7.1-7.2l-.2-.2c-1.4.1-2.8.4-4.1.9 0 .3 0 .7.1 1 .7.1 1.3.2 2 .4v6.9c0 .5 0 .9-.1 1.4-.7.2-1.3.4-2 .4-.1.3 0 .7.1 1m2.7-14c1-.1 1.8-.9 1.8-1.9-.1-.8-.7-1.4-1.5-1.4-1 .1-1.7.9-1.8 1.9 0 .9.7 1.4 1.5 1.4m-22.5 14c1 0 2-.1 3.1-.1.6 0 2.2 0 2.9.1.1-.4.2-.7.1-1.1-.6-.2-1.3-.4-1.9-.4 0-.6-.1-1.2-.1-1.9V142l1.9-.5c1 3 2.6 6 4.4 6 1.1 0 2.2-.2 3.2-.6.1-.4 0-.7-.3-1-.3.1-.5.1-.8.1-.8 0-1.6-.4-2.1-1.1-1.1-1.4-2-2.9-2.8-4.4l3.3-3.4c.6-.1 1.2-.3 1.7-.5 0-.4 0-.7-.1-1.1h-5.2c-.1.4-.2.7-.2 1.1l1.6.4-2.3 2.8-2.1.9v-5.1c0-2.7 0-4.7.1-7.2l-.2-.2c-1.4.1-2.8.4-4.1.9 0 .3 0 .7.1 1 .7.1 1.3.2 2 .4v13.9c0 .5 0 .9-.1 1.4-.7.2-1.3.4-2 .4-.3.3-.2.7-.1 1m-6.6.4c1.7-.1 3.3-.7 4.7-1.7 0-.4-.2-.7-.4-.9-1.2.5-2.5.8-3.8.9-2.7 0-3.5-2.9-3.5-4.9 0-1.3.4-2.5 1.3-3.5.6-.3 1.3-.5 2.1-.5.6 0 1.3 0 1.9.1.1.7.2 1.4.2 2.1.5.3 1 .3 1.5.1.4-1 .6-2.1.5-3.2-1.3-.5-2.6-.7-4-.7-3.4 0-5.6 3.3-5.6 6.3 0 3.2 1.5 5.9 5.1 5.9m-15.6-3.6c0-.5.2-1.1.5-1.5 1.3-.6 2.7-1 4.2-1.1v2.9c-.8.7-1.7 1.2-2.8 1.3-1.3.1-1.9-.7-1.9-1.6m.6 3.6c1.6-.2 3.1-.9 4.2-2 .3 1.2.7 2 1.2 2 1.1-.1 2.1-.6 2.9-1.3 0-.3-.1-.7-.4-.9-.5.2-1.1.3-1.6.4-.1-.7-.1-1.3-.1-2v-4.7c0-3.4-2.5-3.9-4-3.9-1.6 0-3.2.5-4.5 1.3 0 .9.2 1.8.6 2.7.5.1 1 .1 1.5-.2 0-.7 0-1.3.2-2 .7-.1 1.3-.2 2-.2 1.7 0 2.1 1.3 2.1 3.2-3.3.6-7 1.9-7 4.7-.1 1.5 1 2.9 2.5 3 .1-.1.3-.1.4-.1M97.4 137c2.1 0 3.2 2.4 3.2 4.9 0 1.3-.4 2.6-1.3 3.6-.5.3-1 .5-1.6.5-1.3-.1-2.5-.6-3.5-1.5V138c.9-.6 2-1 3.2-1m-5.5 10.7c.6-.4 1.2-.9 1.6-1.5 1.1.8 2.4 1.3 3.8 1.4 3.1 0 5.3-3.4 5.3-6.4 0-3.6-1.9-5.9-4.6-5.9-1.4 0-2.8.5-3.9 1.4v-1.2c0-2.7 0-4.7.1-7.2l-.2-.2c-1.4.1-2.8.4-4.2.9 0 .3 0 .7.1 1 .7.1 1.3.2 2 .4v13.9c0 1-.3 2-.8 2.9.2.3.5.5.8.5m-13.1-.2c2.6 0 4.7-1.4 4.7-3.7 0-4-6.2-3.2-6.2-5.7 0-.9.2-1.5 2.2-1.5.6 0 1.1.1 1.6.2.2.6.3 1.3.3 1.9.4.2.9.2 1.3.1.3-1 .4-2 .4-3.1-1.2-.3-2.4-.5-3.6-.5-2.1 0-4.4.8-4.4 3.3 0 2.7 2.9 2.9 4.8 3.9.7.3 1.3.9 1.3 1.7 0 1.5-.6 1.9-2.2 1.9-.8 0-1.6-.1-2.3-.4-.1-.8-.2-1.7-.2-2.5-.4-.2-.8-.2-1.2 0-.3 1.2-.5 2.4-.5 3.6 1.3.6 2.7.8 4 .8m-12.9-10.3c.5-.3 1.1-.5 1.7-.5 2.3 0 2.7 1.6 2.7 3.1-.6.1-1.8.1-3.1.1h-2.5c.1-.9.5-1.9 1.2-2.7m1.7 10.3c1.8-.2 3.5-.8 4.9-1.8 0-.4-.2-.7-.4-.9-1.3.5-2.6.8-4 .9-2.5 0-3.3-2.4-3.5-4.5h3c1.9 0 3.6 0 4.6.1l.2-.2c.1-.5.1-1 .1-1.5 0-2.2-1-4.5-4.5-4.5-3.2 0-5.5 3.3-5.5 6.4.1 3.4 1.6 6 5.1 6m-16.9-6.7c0-1.3.4-2.5 1.3-3.5.5-.3 1.1-.5 1.8-.5 1.1 0 2.1.3 3.1.6v6.4c-1 .9-2.4 1.9-3.2 1.9-2 0-3-2.4-3-4.9m2.3 6.7c1.4 0 2.8-1.1 3.8-2.3.2 1.1.7 2.3 1.3 2.3 1.1-.1 2.1-.6 2.8-1.3 0-.3-.1-.7-.4-.9-.5.2-1.1.3-1.6.4-.1-.7-.1-1.3-.1-2v-8.3c0-2.7 0-4.7.1-7.2l-.2-.2c-1.5.1-3 .4-4.5.9 0 .3 0 .7.1 1 .8.1 1.5.2 2.3.4v5.7c-.9-.5-1.8-.8-2.8-.9-2.8 0-5.5 2.8-5.5 6.3.1 3.5 1.6 6.2 4.7 6.1m-13.4-10.3c.5-.3 1.1-.5 1.7-.5 2.3 0 2.7 1.6 2.7 3.1-.6.1-1.8.1-3.1.1h-2.5c.1-.9.5-1.9 1.2-2.7m1.7 10.3c1.8-.2 3.5-.8 4.9-1.8 0-.4-.1-.7-.4-.9-1.3.5-2.6.8-4 .9-2.5 0-3.3-2.4-3.5-4.5h3c1.9 0 3.6 0 4.6.1l.2-.2c.1-.5.1-1 .1-1.5 0-2.2-1-4.5-4.5-4.5-3.2 0-5.5 3.3-5.5 6.4 0 3.4 1.5 6 5.1 6m-20.9-.2c.8 0 1.7-.1 2.5-.4l2.6-9.3.1 2 2.1 7.7c.9 0 1.7-.1 2.5-.4l3.3-9.9c.5-.1 1-.2 1.4-.4 0-.4 0-.8-.1-1.1H30c-.1.4-.2.7-.2 1.1l2 .4-2.8 8.7-.1-1.8-2.3-8.5c-.7 0-1.5.1-2.2.2l-2.8 10.1-.1-1.8-2.2-6.9 2-.4c.1-.4 0-.8-.1-1.1h-5.3c-.1.4-.2.7-.2 1.1.5.1 1 .2 1.4.4l3.3 10.3zm-11.8.2c3 .2 5.6-2.1 5.8-5.2v-.4c0-2.4-2-3.6-4-4.3l-2.2-.8c-1.2-.4-2.7-1.4-2.7-2.8 0-.7.2-1.3.7-1.8.8-.3 1.6-.4 2.4-.4 1 0 2 .1 2.9.3.2.8.3 1.6.4 2.4.4.2.9.2 1.3.1.4-1.2.5-2.5.6-3.8-1.6-.6-3.2-.9-4.9-.9-2.6 0-5.8 1.2-5.8 4.7 0 2.5 2.4 3.6 4.3 4.3l1.9.7c1.3.5 2.6 1.4 2.6 2.7.1.9-.2 1.9-.9 2.6-.7.4-1.6.6-2.4.6-1.2 0-2.3-.1-3.4-.4-.2-1-.3-2-.3-3.1-.4-.2-.9-.2-1.3-.1-.4 1.4-.6 2.8-.6 4.3 1.7 1 3.6 1.4 5.6 1.3M376.1 105c.5-.3 1.1-.5 1.7-.5 2.2 0 2.6 1.6 2.6 3.2-.6 0-1.7.1-3.1.1h-2.5c.2-1.1.6-2 1.3-2.8m1.7 10.3c1.7-.2 3.4-.8 4.9-1.8 0-.4-.2-.7-.4-.9-1.3.5-2.6.8-4 .9-2.5 0-3.3-2.4-3.4-4.5h7.5l.2-.2c.1-.5.1-1 .1-1.5 0-2.2-1-4.5-4.5-4.5-3.2 0-5.4 3.3-5.4 6.4-.1 3.4 1.4 6 5 6.1m-11.8-.1c2.6 0 4.6-1.3 4.6-3.7 0-4-6.1-3.2-6.1-5.7 0-.9.2-1.5 2.2-1.5.5 0 1.1.1 1.6.2.2.6.3 1.3.3 1.9.4.1.9.1 1.3 0 .3-1 .4-2 .5-3.1-1.2-.3-2.4-.5-3.6-.5-2 0-4.4.8-4.4 3.3 0 2.7 2.9 2.9 4.8 3.9.7.3 1.2 1 1.3 1.7 0 1.5-.6 1.8-2.2 1.8-.8 0-1.6-.1-2.3-.3-.1-.8-.2-1.7-.2-2.5-.4-.2-.8-.2-1.2 0-.3 1.2-.4 2.4-.5 3.7 1.3.5 2.6.8 3.9.8M353.2 105c.5-.3 1.1-.5 1.7-.5 2.2 0 2.6 1.6 2.6 3.2-.6 0-1.7.1-3.1.1H352c.1-1.1.5-2 1.2-2.8m1.8 10.3c1.7-.2 3.4-.8 4.9-1.8 0-.4-.2-.7-.4-.9-1.3.5-2.6.8-4 .9-2.5 0-3.3-2.4-3.4-4.5h7.5l.2-.2c.1-.5.1-1 .1-1.5 0-2.2-1-4.5-4.5-4.5-3.2 0-5.4 3.3-5.4 6.4-.1 3.4 1.4 6 5 6.1m-20-.3h5.8c.1-.4.2-.7.1-1.1-.6-.2-1.2-.4-1.9-.4 0-.6-.1-1.2-.1-1.9v-6.2c1-.5 2.1-.7 3.2-.7 2 0 2.3 1.4 2.3 3.2v4.1c0 .5 0 .9-.1 1.4-.7.2-1.3.4-2 .4 0 .4.1.8.2 1.1h5.8c.1-.4.2-.7.2-1.1-.6-.2-1.3-.4-1.9-.4 0-.6-.1-1.2-.1-1.9v-4.7c0-2.8-1.2-4-3.5-4-1.5 0-2.9.5-4.1 1.3v-1c0-2.7 0-4.7.1-7.2l-.2-.2c-1.4.1-2.8.4-4.1.9 0 .3 0 .7.1 1 .7.1 1.3.2 2 .4v14c0 .5 0 .9-.1 1.4-.7.2-1.3.4-2 .4l.3 1.2m-5.4.3c1.4 0 2.7-.5 3.9-1.2 0-.4-.1-.9-.5-1.2-.8.3-1.6.5-2.5.5-.8 0-1.2-.9-1.2-2.7v-6h3.8c.1-.5.1-1 .1-1.5h-3.9v-3.3c-.4-.1-.8-.2-1.3-.2l-.8 3.4c-.7 0-1.3.1-1.9.3-.1.3 0 .7 0 1 .6.1 1.4.2 1.9.3v7c0 2.4.6 3.7 2.4 3.6M312 105c.5-.3 1.1-.5 1.7-.5 2.2 0 2.6 1.6 2.6 3.2-.6 0-1.7.1-3.1.1h-2.5c.2-1.1.6-2 1.3-2.8m1.7 10.3c1.7-.2 3.4-.8 4.9-1.8 0-.4-.2-.7-.4-.9-1.3.5-2.6.8-4 .9-2.5 0-3.3-2.4-3.4-4.5h7.5l.2-.2c.1-.5.1-1 .1-1.5 0-2.2-1-4.5-4.5-4.5-3.2 0-5.4 3.3-5.4 6.4-.1 3.4 1.4 6 5 6.1m-13.6-.3c.8 0 1.6-.1 2.3-.3l3.7-10c.5-.1 1-.2 1.4-.4 0-.4 0-.8-.1-1.1h-4.8c-.1.4-.2.7-.2 1.1l1.9.4-3.1 8.7-.1-1.8-2.5-6.9 1.9-.4c.1-.4 0-.8-.1-1.1h-5.3c-.1.4-.2.7-.2 1.1.5.1 1 .2 1.4.4l3.8 10.3zm-14.2-3.4c0-.5.2-1.1.5-1.5 1.3-.6 2.7-.9 4.1-1v2.9c-.8.7-1.7 1.2-2.7 1.3-.9.1-1.7-.5-1.9-1.4 0 0-.1-.1 0-.3m.6 3.7c1.6-.2 3-.9 4.1-2 .3 1.2.7 2 1.2 2 1.1-.1 2.1-.6 2.9-1.3 0-.3-.1-.7-.4-.9-.5.2-1.1.3-1.6.4-.1-.7-.1-1.3-.1-2v-4.7c0-3.4-2.5-3.9-4-3.9-1.6 0-3.1.4-4.5 1.3 0 .9.2 1.8.6 2.7.5.1 1 .1 1.5-.2 0-.7 0-1.3.2-2 .7-.1 1.3-.2 2-.2 1.7 0 2.1 1.3 2.1 3.2-3.2.6-6.9 1.9-6.9 4.7-.2 1.5.9 2.8 2.4 3 .2-.1.3-.1.5-.1m-18.2-.3h5.8c.1-.4.2-.7.1-1.1-.6-.2-1.2-.4-1.9-.4 0-.6-.1-1.2-.1-1.9v-6.2c1-.5 2.1-.7 3.2-.7 2 0 2.3 1.4 2.3 3.2v4.1c0 .5 0 .9-.1 1.4-.7.2-1.3.4-2 .4 0 .4.1.8.2 1.1h5.8c.1-.4.2-.7.2-1.1-.6-.2-1.3-.4-1.9-.4 0-.6-.1-1.2-.1-1.9v-4.7c0-2.8-1.2-4-3.5-4-1.5 0-2.9.5-4.1 1.3v-1c0-2.7 0-4.7.1-7.2l-.2-.2c-1.4.1-2.8.4-4.1.9 0 .3 0 .7.1 1 .7.1 1.3.2 2 .4v14c0 .5 0 .9-.1 1.4-.7.2-1.3.4-2 .4l.3 1.2m-11.9-1.4c-2.7 0-3.6-2.9-3.6-5 0-1.3.4-2.6 1.2-3.6.5-.3 1.1-.5 1.7-.5 2.7 0 3.6 2.9 3.6 5 0 1.3-.4 2.6-1.3 3.6-.3.3-.9.5-1.6.5m-.4 1.7c3.5 0 5.6-3.4 5.6-6.4 0-3.4-1.6-6-5.3-6s-5.6 3.4-5.6 6.4c0 3.5 1.7 6 5.3 6m-10.4 0c1.4 0 2.7-.5 3.9-1.2 0-.4-.1-.8-.4-1.1-.8.3-1.6.5-2.5.5-.8 0-1.2-.9-1.2-2.7v-6h3.8c.1-.5.1-1 .1-1.5h-3.9V100c-.4-.1-.8-.2-1.3-.2l-.8 3.4c-.7 0-1.3.1-1.9.3-.1.3-.1.7 0 1 .7.1 1.4.2 1.9.3v7c-.1 2.3.5 3.6 2.3 3.5M228 105c.5-.3 1.1-.5 1.7-.5 2.2 0 2.6 1.6 2.6 3.2-.6 0-1.7.1-3.1.1h-2.5c.2-1.1.6-2 1.3-2.8m1.7 10.3c1.7-.2 3.4-.8 4.8-1.8 0-.3-.1-.7-.4-.9-1.3.5-2.6.8-4 .9-2.5 0-3.3-2.4-3.4-4.5h7.5l.2-.2c.1-.5.1-1 .1-1.5 0-2.2-1-4.5-4.5-4.5-3.2 0-5.4 3.3-5.4 6.4 0 3.4 1.5 6 5.1 6.1m-11.8-.2c2.6 0 4.6-1.3 4.6-3.7 0-4-6.1-3.2-6.1-5.7 0-.9.2-1.5 2.2-1.5.5 0 1.1.1 1.6.2.2.6.3 1.3.3 1.9.4.1.9.1 1.3 0 .3-1 .4-2 .4-3.1-1.2-.3-2.4-.5-3.6-.5-2 0-4.4.8-4.4 3.3 0 2.7 2.9 2.9 4.8 3.9.7.3 1.3 1 1.3 1.7 0 1.5-.6 1.8-2.2 1.8-.8 0-1.6-.1-2.3-.3-.1-.8-.2-1.7-.2-2.5-.4-.2-.8-.2-1.2 0-.3 1.2-.4 2.4-.4 3.7 1.2.6 2.6.8 3.9.8M206 115h5.8c.1-.4.2-.7.1-1.1-.6-.2-1.2-.4-1.9-.4 0-.6-.1-1.2-.1-1.9v-1.2c0-2.8 0-4.7.1-7.2l-.2-.2c-1.4.1-2.8.4-4.1.9 0 .3 0 .7.1 1 .7.1 1.3.2 2 .4v6.8c0 .5 0 .9-.1 1.4-.7.2-1.3.4-2 .4.1.3.2.7.3 1.1m2.6-14c1-.1 1.7-.9 1.7-1.9-.1-.8-.7-1.4-1.5-1.4-1 .1-1.7 1-1.7 1.9.1.8.7 1.4 1.5 1.4m-14 14h6.9c.1-.4.2-.7.1-1.1-1-.3-2-.4-3-.4-.1-.6-.1-1.2-.1-1.9v-4.8c1-1.7 1.9-2 2.8-2 .2 0 .4 0 .6.1.2.9.3 1.8.3 2.8.4.2.9.2 1.3 0 .3-1.4.5-2.8.4-4.3-.6-.2-1.3-.3-2-.3-1.5.1-2.8 1-3.5 2.3-.1-.7-.2-1.5-.4-2.2l-.2-.2c-1.2.1-2.4.4-3.6.9 0 .3 0 .7.1 1 .7.1 1.3.2 2 .4v6.8c0 .5 0 .9-.1 1.4-.7.2-1.3.4-2 .4.2.3.3.7.4 1.1m-7-10.5c2.1 0 3.1 2.4 3.1 4.9 0 1.3-.4 2.6-1.2 3.6-.5.3-1 .5-1.6.5-1.3 0-2.5-.6-3.4-1.6v-6.3c.9-.6 2-1 3.1-1.1m-7.2 16.6h6.9c.1-.4.2-.7.1-1.1-1-.3-2-.4-3-.4 0-.6-.1-1.2-.1-1.9V114c.9.7 2 1.1 3.1 1.2 3 0 5.2-3.4 5.2-6.4 0-3.6-1.9-5.9-4.6-5.9-1.5 0-2.9.6-4 1.6-.1-.4-.2-.9-.3-1.3l-.2-.2c-1.2.1-2.4.4-3.6.9 0 .3 0 .7.1 1 .7.1 1.3.2 2 .4v13.1c0 .5 0 .9-.1 1.4-.6.2-1.3.4-2 .4.3.3.3.6.5.9m-11.2-6.1h6.9c.1-.4.2-.7.1-1.1-1-.3-2-.4-3-.4 0-.6-.1-1.2-.1-1.9v-4.8c1-1.7 1.9-2 2.8-2 .2 0 .4 0 .6.1.2.9.3 1.8.3 2.8.4.1.9.1 1.3 0 .3-1.4.5-2.8.4-4.3-.6-.2-1.3-.3-2-.3-1.5.1-2.8 1-3.5 2.3-.1-.7-.2-1.5-.4-2.2l-.2-.2c-1.2.1-2.4.4-3.6.9 0 .3 0 .7.1 1 .7.1 1.3.2 2 .4v6.8c0 .5 0 .9-.1 1.4-.7.2-1.3.4-2 .4.2.3.3.7.4 1.1m-10.2.2c1.7 0 2.9-1.1 4.1-2.4.2 1.2.6 2.4 1.2 2.4 1.1-.1 2.1-.6 2.9-1.3 0-.3-.1-.7-.4-.9-.5.2-1.1.3-1.6.4-.1-.7-.1-1.3-.1-2v-.9c0-2.8 0-4.7.1-7.2l-.2-.2h-3.8c-.1.4-.1.8-.1 1.1.7.1 1.4.3 2 .5v6.7c-.7.7-2.3 2-3.4 2-1.4 0-2-1.2-2-3.2 0-1.5 0-4.4.1-6.8l-.2-.2h-3.8c-.1.4-.1.8-.1 1.1.7.1 1.4.3 2 .5v6.4c0 2.8 1.2 4.1 3.3 4m-11.7.1c2.6 0 4.6-1.3 4.6-3.7 0-4-6.1-3.2-6.1-5.7 0-.9.2-1.5 2.2-1.5.5 0 1.1.1 1.6.2.2.6.3 1.3.3 1.9.4.1.9.1 1.3 0 .3-1 .4-2 .4-3.1-1.2-.3-2.4-.5-3.7-.5-2 0-4.4.8-4.4 3.3 0 2.7 2.9 2.9 4.8 3.9.7.3 1.2 1 1.3 1.7 0 1.5-.6 1.8-2.2 1.8-.8 0-1.6-.1-2.3-.3-.1-.8-.2-1.7-.2-2.5-.4-.2-.8-.2-1.2 0-.3 1.2-.4 2.4-.4 3.7 1.3.5 2.6.8 4 .8m-19.3-3.6c0-.5.2-1.1.5-1.5 1.3-.6 2.7-.9 4.1-1v2.9c-.8.7-1.7 1.2-2.7 1.3-.9.1-1.7-.5-1.9-1.4v-.3m.6 3.6c1.6-.2 3-.9 4.1-2 .2 1.2.7 2 1.2 2 1.1-.1 2.1-.6 2.9-1.3 0-.3-.1-.7-.4-.9-.5.2-1.1.3-1.6.4-.1-.7-.1-1.3-.1-2v-4.7c0-3.4-2.5-3.9-4-3.9-1.6 0-3.1.5-4.5 1.3 0 .9.2 1.8.6 2.7.5.1 1 .1 1.5-.2 0-.7 0-1.3.2-2 .7-.1 1.3-.2 2-.2 1.7 0 2.1 1.3 2.1 3.2-3.2.6-6.9 1.9-6.9 4.7-.2 1.5.9 2.8 2.4 3 .2-.1.3-.1.5-.1m-14.6 0c2.6 0 4.7-1.3 4.7-3.7 0-4-6.1-3.2-6.1-5.7 0-.9.2-1.5 2.2-1.5.5 0 1.1.1 1.6.2.2.6.3 1.3.3 1.9.4.1.9.1 1.3 0 .3-1 .4-2 .4-3.1-1.2-.3-2.4-.5-3.6-.5-2 0-4.4.8-4.4 3.3 0 2.7 2.9 2.9 4.8 3.9.7.3 1.3 1 1.3 1.7 0 1.5-.6 1.8-2.2 1.8-.8 0-1.6-.1-2.3-.3-.1-.8-.2-1.7-.2-2.5-.4-.2-.8-.2-1.2 0-.3 1.2-.4 2.4-.4 3.7 1.2.5 2.5.7 3.8.8M106.5 97c.6.1 1 .6.9 1.2-.2 1.1-.7 2.1-1.5 2.8 0 .3.3.6.6.7 1.6-.7 3.3-2.8 3.3-4.5.1-.9-.6-1.7-1.4-1.8h-.2c-.9 0-1.6.7-1.7 1.6m-6 18.3c1.4 0 2.7-.5 3.9-1.2 0-.4-.1-.9-.4-1.2-.8.3-1.6.5-2.5.5-.8 0-1.2-.9-1.2-2.7v-6h3.8c.1-.5.1-1 .1-1.5h-3.9v-3.3c-.4-.1-.8-.2-1.3-.2l-.8 3.4c-.7 0-1.3.1-1.9.3-.1.3-.1.7 0 1 .7.1 1.4.2 1.9.3v7c0 2.4.6 3.7 2.3 3.6m-11-.3h5.8c.1-.4.2-.7.2-1.1-.6-.2-1.2-.4-1.9-.4 0-.6-.1-1.2-.1-1.9v-1.2c0-2.8 0-4.7.1-7.2l-.2-.2c-1.4.1-2.8.4-4.1.9 0 .3 0 .7.1 1 .7.1 1.3.2 2 .4v6.8c0 .5 0 .9-.1 1.4-.7.2-1.3.4-2 .4 0 .3.1.7.2 1.1m2.6-14.1c1-.1 1.7-.9 1.7-1.9-.1-.8-.7-1.4-1.5-1.4-1 .1-1.7 1-1.7 1.9 0 .8.7 1.5 1.5 1.4m-13.8 12.7c.6.1 1 .7 1 1.3-.2 1.2-.8 2.2-1.6 3 0 .4.3.7.6.8 1.7-.8 3.5-3 3.5-4.8.1-1-.6-1.8-1.6-1.9H80c-.9-.1-1.6.7-1.7 1.6m-12.5-5c0-1.3.4-2.5 1.2-3.5.5-.3 1.1-.5 1.7-.5 1 0 2 .3 3 .6v6.4c-1 .9-2.3 1.9-3.2 1.9-1.9 0-2.8-2.4-2.8-4.9m2.3 6.7c1.4 0 2.7-1.1 3.8-2.3.2 1.1.7 2.3 1.3 2.3 1.1-.1 2.1-.6 2.9-1.3 0-.3-.1-.7-.4-.9-.5.2-1.1.3-1.6.4-.1-.7-.1-1.3-.1-2v-8.3c0-2.7 0-4.7.1-7.2l-.2-.2c-1.5.1-3 .4-4.4.9 0 .3 0 .7.1 1 .8.1 1.5.2 2.3.4v5.7c-.8-.5-1.8-.8-2.8-.9-2.8 0-5.4 2.8-5.4 6.3 0 3.4 1.5 6 4.4 6.1M54.9 105c.5-.3 1.1-.5 1.7-.5 2.2 0 2.6 1.6 2.6 3.2-.6 0-1.7.1-3.1.1h-2.5c.2-1.1.6-2 1.3-2.8m1.8 10.3c1.7-.2 3.4-.8 4.8-1.8 0-.4-.2-.7-.4-.9-1.3.5-2.6.8-4 .9-2.5 0-3.3-2.4-3.4-4.5h7.5l.2-.2c.1-.5.1-1 .1-1.5 0-2.2-1-4.5-4.5-4.5-3.2 0-5.4 3.3-5.4 6.4 0 3.4 1.5 6 5.1 6.1M42.8 105c.5-.3 1.1-.5 1.7-.5 2.2 0 2.6 1.6 2.6 3.2-.6 0-1.7.1-3.1.1h-2.5c.2-1.1.7-2 1.3-2.8m1.8 10.3c1.7-.2 3.4-.8 4.8-1.8 0-.4-.2-.7-.4-.9-1.3.5-2.6.8-4 .9-2.5 0-3.3-2.4-3.4-4.5H49l.2-.2c.1-.5.1-1 .1-1.5 0-2.2-1-4.5-4.5-4.5-3.2 0-5.4 3.3-5.4 6.4.1 3.4 1.6 6 5.2 6.1m-16.8-6.8c0-1.3.4-2.5 1.3-3.5.5-.3 1.1-.5 1.7-.5 1 0 2 .3 3 .6v6.4c-1 .9-2.3 1.9-3.2 1.9-1.9 0-2.8-2.4-2.8-4.9m2.3 6.7c1.4 0 2.7-1.1 3.8-2.3.2 1.1.7 2.3 1.3 2.3 1.1-.1 2.1-.5 2.9-1.2 0-.3-.1-.7-.4-.9-.5.2-1.1.3-1.6.4-.1-.7-.1-1.3-.1-2v-8.3c0-2.7 0-4.7.1-7.2l-.2-.2c-1.5.1-3 .4-4.4.9 0 .3 0 .7.1 1 .8.1 1.5.2 2.3.4v5.7c-.8-.5-1.8-.8-2.8-.9-2.8 0-5.4 2.8-5.4 6.3 0 3.4 1.5 6 4.4 6m-19.3-.2h5.8c.1-.4.2-.7.1-1.1-.6-.2-1.2-.4-1.9-.4-.1-.6-.1-1.2-.1-1.9v-5.8c.9-.7 2-1.1 3.2-1.2 2 0 2.3 1.4 2.3 3.2v4.2c0 .5 0 .9-.1 1.4-.7.2-1.3.4-2 .4 0 .4.1.8.1 1.1h5.9c.1-.4.2-.7.2-1.1-.6-.2-1.2-.4-1.9-.4 0-.6-.1-1.2-.1-1.9v-4.7c0-2.8-1.2-4-3.5-4-1.6.1-3 .7-4.2 1.7-.1-.5-.2-1.1-.3-1.4l-.2-.2c-1.2.1-2.4.4-3.6.9 0 .3 0 .7.1 1 .7.1 1.3.2 2 .4v6.8c0 .5 0 .9-.1 1.4-.7.2-1.3.4-2 .4.1.4.2.7.3 1.2m-8-.1h5.8c.1-.4.2-.7.1-1.1-.6-.2-1.2-.4-1.9-.4 0-.6-.1-1.2-.1-1.9v-1.2c0-2.8 0-4.7.1-7.2l-.2-.2c-1.4.1-2.8.4-4.1.9 0 .3 0 .7.1 1 .7.1 1.3.2 2 .4v6.9c0 .5 0 .9-.1 1.4-.7.2-1.3.4-2 .4.1.3.2.7.3 1M5.4 101c1-.1 1.8-1 1.7-2-.1-.8-.7-1.4-1.5-1.4-1 .1-1.7 1-1.7 1.9 0 .8.7 1.5 1.5 1.5m367.3-24.7c0-1.3.5-2.5 1.3-3.5.6-.3 1.2-.5 1.8-.5 1.1 0 2.2.2 3.2.6v6.4c-1 .9-2.5 1.9-3.4 1.9-1.9 0-2.9-2.4-2.9-4.9m2.5 6.7c1.5 0 2.9-1.1 4-2.3.2 1.1.7 2.3 1.4 2.3 1.1-.1 2.1-.6 3-1.3 0-.3-.1-.7-.4-.9-.6.2-1.1.3-1.7.4-.1-.7-.1-1.3-.1-2v-8.3c0-2.7 0-4.7.1-7.2l-.2-.2c-1.6.1-3.1.4-4.6.9 0 .3 0 .7.1 1 .8.1 1.6.2 2.4.4v5.7c-.9-.5-1.9-.8-2.9-.9-3 0-5.7 2.8-5.7 6.3-.1 3.4 1.5 6.1 4.6 6.1m-20.6-.3h6.2c.1-.4.2-.7.2-1.1-.6-.2-1.3-.4-2-.4 0-.6-.1-1.2-.1-1.9v-5.8c1-.7 2.1-1.1 3.3-1.2 2.1 0 2.4 1.4 2.4 3.2v4.2c0 .5 0 .9-.1 1.4-.7.2-1.4.3-2.1.4 0 .4.1.8.2 1.1h6.2c.1-.4.2-.7.2-1.1-.6-.2-1.3-.4-2-.4 0-.6-.1-1.2-.1-1.9v-4.7c0-2.8-1.3-4-3.6-4-1.6.1-3.2.7-4.5 1.7-.1-.5-.2-1.1-.3-1.4l-.2-.2c-1.3.1-2.5.4-3.8.9 0 .3 0 .7.1 1 .7.1 1.4.2 2.1.4v6.8c0 .5 0 .9-.1 1.4-.7.2-1.4.3-2.1.4 0 .4 0 .8.1 1.2m-11-14.7l.1 1.8 2.1 5.7h-5l2.8-7.5zm-8.4 14.7h5.9c.1-.4.2-.8.2-1.2L339 81l1.4-4h1.9c1.2 0 2.8 0 4.2.1L348 81l-2.5.5c0 .4.1.8.2 1.2h6.6c.1-.4.2-.8.1-1.2-.6-.2-1.3-.4-2-.5l-5.7-15.2c-.8 0-1.6.1-2.3.3L337.1 81c-.7.2-1.4.4-2.1.5 0 .4.1.8.2 1.2m-10.8-18.1c.6.1 1 .6 1 1.2-.2 1.1-.7 2.1-1.6 2.8 0 .3.3.6.6.7 1.7-.8 3.5-2.8 3.5-4.5.1-.9-.6-1.7-1.5-1.8h-.2c-.9 0-1.7.7-1.8 1.6m-4.8 0c.6.1 1 .6 1 1.2-.2 1.1-.8 2.1-1.6 2.8 0 .3.3.6.6.7 1.7-.8 3.5-2.8 3.5-4.5.1-.9-.6-1.7-1.5-1.8h-.2c-.9 0-1.7.7-1.8 1.6m-5.7 16.7c.1 1 1 1.8 2 1.7.9-.1 1.6-.8 1.7-1.7-.1-1-1.1-1.7-2.1-1.6-.8.1-1.5.8-1.6 1.6m-13.4-5c0-1.3.5-2.5 1.3-3.5.6-.3 1.2-.5 1.8-.5 1.1 0 2.2.2 3.2.6v6.4c-1 .9-2.5 1.9-3.4 1.9-1.9 0-2.9-2.4-2.9-4.9m2.4 6.7c1.5 0 2.9-1.1 4-2.3.2 1.1.7 2.3 1.4 2.3 1.1-.1 2.1-.6 3-1.3 0-.3-.1-.7-.4-.9-.6.2-1.1.3-1.7.4-.1-.7-.1-1.3-.1-2v-8.3c0-2.7 0-4.7.1-7.2l-.2-.2c-1.6.1-3.1.4-4.6.9 0 .3 0 .7.1 1 .8.1 1.6.2 2.4.4v5.7c-.9-.5-1.9-.8-2.9-.9-3 0-5.7 2.8-5.7 6.3-.1 3.4 1.5 6.1 4.6 6.1m-14-10.3c.5-.3 1.2-.5 1.8-.5 2.4 0 2.8 1.6 2.8 3.2-.7 0-1.8.1-3.2.1h-2.6c0-1.1.5-2.1 1.2-2.8m1.8 10.3c1.8-.2 3.6-.8 5.1-1.8 0-.4-.2-.7-.5-.9-1.3.5-2.8.8-4.2.9-2.6 0-3.5-2.4-3.6-4.5h7.9l.2-.2c.1-.5.1-1 .1-1.5 0-2.2-1.1-4.5-4.7-4.5-3.4 0-5.7 3.3-5.7 6.4 0 3.4 1.6 6 5.4 6.1m-17.2-.4h7.3c.1-.4.2-.7.2-1.1-1-.2-2.1-.4-3.1-.4 0-.6-.1-1.2-.1-1.9v-4.8c1.1-1.7 2-2 3-2 .2 0 .5 0 .7.1.2.9.3 1.8.3 2.8.4.2.9.2 1.4 0 .4-1.4.5-2.8.5-4.3-.7-.2-1.4-.3-2.1-.3-1.6.1-3 1-3.7 2.4-.1-.7-.3-1.5-.5-2.2l-.2-.2c-1.3.1-2.5.4-3.8.9 0 .3 0 .7.1 1 .7.1 1.4.2 2.1.4v6.8c0 .5 0 .9-.1 1.4-.7.2-1.4.3-2.1.4-.1.3-.1.7.1 1m-9.5-9.9c.5-.3 1.2-.5 1.8-.5 2.4 0 2.8 1.6 2.8 3.2-.7 0-1.8.1-3.2.1h-2.6c0-1.1.5-2.1 1.2-2.8m1.8 10.3c1.8-.2 3.6-.8 5.1-1.8 0-.4-.2-.7-.5-.9-1.3.5-2.8.8-4.2.9-2.6 0-3.5-2.4-3.6-4.5h7.9l.2-.2c.1-.5.1-1 .1-1.5 0-2.2-1.1-4.5-4.7-4.5-3.4 0-5.7 3.3-5.7 6.4 0 3.4 1.6 6 5.4 6.1M248 76.3c0-1.3.5-2.5 1.3-3.5.6-.3 1.2-.5 1.8-.5 1.1 0 2.2.2 3.2.6v6.4c-1 .9-2.5 1.9-3.4 1.9-1.9 0-2.9-2.4-2.9-4.9m2.4 6.7c1.4 0 2.9-1.1 4-2.3.2 1.1.7 2.3 1.4 2.3 1.1-.1 2.1-.6 3-1.3 0-.3-.1-.7-.4-.9-.6.2-1.1.3-1.7.4-.1-.7-.1-1.3-.1-2v-8.3c0-2.7 0-4.7.1-7.2l-.2-.2c-1.6.1-3.1.4-4.6.9 0 .3 0 .7.1 1 .8.1 1.6.2 2.4.4v5.7c-.9-.5-1.9-.8-2.9-.9-3 0-5.7 2.8-5.7 6.3 0 3.4 1.5 6.1 4.6 6.1m-12.6-.3h6.2c.1-.4.2-.7.2-1.1-.6-.2-1.3-.4-2-.4-.1-.6-.1-1.2-.1-1.9V71c0-2.7 0-4.7.1-7.2l-.2-.2c-1.5.1-2.9.4-4.3.9 0 .3 0 .7.1 1 .7.1 1.4.2 2.1.4v14c0 .5 0 .9-.1 1.4-.7.2-1.4.3-2.1.4-.1.3 0 .7.1 1m-8.4 0h6.2c.1-.4.2-.7.2-1.1-.6-.2-1.3-.4-2-.4-.1-.6-.1-1.2-.1-1.9V78c0-2.7 0-4.7.1-7.2l-.2-.2c-1.5.1-2.9.4-4.3.9 0 .3 0 .7.1 1 .7.1 1.4.2 2.1.4v6.9c0 .5 0 .9-.1 1.4-.7.2-1.4.4-2.1.4-.1.4 0 .7.1 1.1m2.8-14c1-.1 1.8-.9 1.8-1.9-.1-.8-.8-1.4-1.6-1.4-1 .1-1.8.9-1.8 1.9.1.8.8 1.4 1.6 1.4M212 82.8c.9 0 1.7-.1 2.5-.3l2.7-9.3.2 2 2.2 7.7c.9 0 1.8-.1 2.6-.3l3.4-10c.5-.1 1-.2 1.5-.4.1-.4 0-.8-.1-1.1h-5c-.1.4-.2.7-.2 1.1l2 .4-2.9 8.8-.2-1.8-2.4-8.5c-.8 0-1.5.1-2.3.2l-2.9 10.1-.1-1.8-2.3-6.9 2-.4c.1-.4 0-.8-.1-1.1h-5.5c-.1.3-.2.7-.2 1.1.5.1 1 .2 1.4.4l3.7 10.1zm-13.7-10.1c.5-.3 1.2-.5 1.8-.5 2.4 0 2.8 1.6 2.8 3.2-.7 0-1.8.1-3.2.1H197c.1-1.1.6-2.1 1.3-2.8m1.8 10.3c1.8-.2 3.6-.8 5.1-1.8 0-.4-.2-.7-.4-.9-1.3.5-2.8.8-4.2.9-2.6 0-3.5-2.4-3.6-4.5h7.8l.2-.2c.1-.5.1-1 .1-1.5 0-2.2-1.1-4.5-4.7-4.5-3.4 0-5.7 3.3-5.7 6.4 0 3.4 1.6 6 5.4 6.1m-13.3-10.6c2.2 0 3.3 2.4 3.3 4.9 0 1.3-.5 2.6-1.3 3.6-.5.3-1.1.5-1.7.5-1.3-.1-2.6-.6-3.6-1.6v-6.3c1-.7 2.1-1 3.3-1.1m-5.7 10.7c.7-.4 1.2-.9 1.7-1.5 1.1.9 2.5 1.3 3.9 1.4 3.2 0 5.5-3.4 5.5-6.4 0-3.6-1.9-5.9-4.8-5.9-1.5 0-2.9.5-4 1.4V71c0-2.7 0-4.7.1-7.2l-.2-.2c-1.5.1-2.9.4-4.3.9 0 .3 0 .7.1 1 .7.1 1.4.2 2.1.4v14c0 1-.3 2-.9 2.9.3.2.6.4.8.3m-22.1-.4h6.2c.1-.4.2-.7.2-1.1-.6-.2-1.3-.4-2-.4-.1-.6-.1-1.2-.1-1.9v-1.8l1.9-.5c1 3 2.8 6 4.6 6 1.1 0 2.2-.2 3.3-.6.1-.4 0-.7-.3-1-.3 0-.6.1-.9.1-.9 0-1.7-.4-2.2-1.1-1.1-1.4-2.1-2.9-2.9-4.4l3.4-3.4c.6-.1 1.2-.2 1.8-.4 0-.4 0-.7-.2-1.1h-5.4c-.1.4-.2.7-.2 1.1l1.6.4-2.4 2.8-2.1.9v-5.1c0-2.7 0-4.7.1-7.2l-.2-.2c-1.5.1-2.9.4-4.3.9 0 .3 0 .7.1 1 .7.1 1.4.2 2.1.4v14c0 .5 0 .9-.1 1.4-.7.2-1.4.3-2.1.4-.1.1 0 .5.1.8m-7-1.3c-2.8 0-3.8-2.9-3.8-5 0-1.3.4-2.6 1.3-3.6.6-.3 1.2-.5 1.8-.5 2.8 0 3.8 2.9 3.8 5 0 1.3-.4 2.6-1.3 3.6-.5.4-1.1.5-1.8.5m-.5 1.6c3.7 0 5.9-3.4 5.9-6.4 0-3.4-1.7-6-5.6-6S146 74 146 77c0 3.5 1.8 6 5.5 6m-13.3-1.7c-2.8 0-3.8-2.9-3.8-5 0-1.3.4-2.6 1.3-3.6.5-.3 1.2-.5 1.8-.5 2.8 0 3.8 2.9 3.8 5 0 1.3-.4 2.6-1.3 3.6-.6.4-1.2.5-1.8.5m-.5 1.7c3.7 0 5.9-3.4 5.9-6.4 0-3.4-1.7-6-5.6-6s-5.9 3.4-5.9 6.4c0 3.5 1.8 6 5.6 6m-13.5-.3h6.2c.1-.4.2-.7.2-1.1-.6-.2-1.3-.4-2-.4 0-.6-.1-1.2-.1-1.9V71c0-2.7 0-4.7.1-7.2l-.2-.2c-1.5.1-2.9.4-4.3.9-.1.3 0 .7.1 1 .7.1 1.4.2 2.1.4v14c0 .5 0 .9-.1 1.4-.7.2-1.4.3-2.1.4-.1.3 0 .7.1 1m-15.8.3c1.7 0 3.1-1.1 4.3-2.4.2 1.2.7 2.4 1.3 2.4 1.1-.1 2.1-.6 3-1.3 0-.3-.1-.7-.4-.9-.6.2-1.1.3-1.7.4-.1-.7-.1-1.3-.1-2v-.9c0-2.7 0-4.7.1-7.2l-.2-.2h-4c-.1.4-.2.8-.2 1.1.7.1 1.4.3 2.1.5v6.7c-.7.7-2.5 2-3.6 2-1.5-.1-2-1.2-2-3.2 0-1.5 0-4.4.1-6.8l-.2-.2H103c-.1.4-.2.8-.2 1.1.7.1 1.4.3 2.1.5V79c-.1 2.7 1.2 4 3.5 4m-12.6-1.7c-2.8 0-3.8-2.9-3.8-5 0-1.3.4-2.6 1.3-3.6.5-.3 1.2-.5 1.8-.5 2.8 0 3.8 2.9 3.8 5 0 1.3-.4 2.6-1.3 3.6-.5.4-1.1.5-1.8.5m-.5 1.7c3.7 0 5.9-3.4 5.9-6.4 0-3.4-1.7-6-5.6-6S89.8 74 89.8 77c0 3.5 1.8 6 5.5 6m-17.4 6c2 0 3.6-2.8 5.1-6.6l3.9-10c.5-.1 1-.2 1.5-.4 0-.4 0-.8-.1-1.1h-5c-.1.4-.2.7-.2 1.1l2 .4-3.3 8.7-.1-1.8-2.7-6.9 2-.4c.1-.4 0-.7-.1-1.1h-5.6c-.1.3-.2.7-.2 1.1.5.1 1 .2 1.4.4l3.9 10.2h.8l-.2.8c-1.1 2.2-2.3 3.8-4.8 3.8h-.3c-.3.3-.4.7-.4 1.1.7.5 1.6.7 2.4.7m-20 0c2 0 3.6-2.8 5.1-6.6l3.9-10c.5-.1 1.1-.2 1.5-.4 0-.4 0-.8-.1-1.1h-5c-.1.4-.2.7-.2 1.1l2 .4-3.3 8.7-.1-1.8-2.7-6.9 2-.4c.1-.4 0-.7-.1-1.1h-5.6c-.1.3-.2.7-.2 1.1.5.1 1 .2 1.5.4l3.9 10.2h.8l-.3.8c-1.1 2.2-2.3 3.8-4.8 3.8h-.3c-.3.3-.4.7-.4 1.1.7.5 1.6.7 2.4.7m-12.4-9.6c0-.5.2-1.1.5-1.5 1.4-.6 2.8-1 4.3-1.1v2.9c-.8.7-1.8 1.2-2.9 1.3-1.3.1-1.9-.7-1.9-1.6m.6 3.6c1.6-.2 3.2-.9 4.4-2 .3 1.2.8 2 1.3 2 1.1-.1 2.1-.6 3-1.3 0-.3-.1-.7-.4-.9-.6.2-1.1.3-1.7.4-.1-.7-.1-1.3-.1-2v-4.7c0-3.4-2.6-3.9-4.2-3.9-1.7 0-3.3.4-4.7 1.3 0 .9.2 1.8.6 2.7.5.1 1.1.1 1.5-.2 0-.7 0-1.3.2-2 .7-.1 1.4-.2 2.1-.2 1.8 0 2.2 1.3 2.2 3.2-3.4.6-7.2 1.9-7.2 4.7-.1 1.5 1 2.9 2.6 3 .1 0 .3 0 .4-.1m-10.2 0c2.7 0 4.9-1.3 4.9-3.7 0-4-6.5-3.2-6.5-5.7 0-.9.2-1.5 2.3-1.5.6 0 1.1.1 1.7.2.2.6.3 1.3.3 1.9.4.1.9.1 1.3 0 .3-1 .5-2 .5-3.1-1.2-.3-2.5-.5-3.8-.5-2.1 0-4.6.8-4.6 3.3 0 2.7 3.1 2.9 5 3.9.8.4 1.4.9 1.4 1.7 0 1.5-.6 1.8-2.3 1.8-.8 0-1.6-.1-2.4-.3-.1-.8-.2-1.7-.3-2.5-.4-.2-.8-.2-1.2 0-.3 1.2-.5 2.4-.5 3.7 1.4.5 2.8.7 4.2.8m-17.5-1.7c-2.8 0-3.8-2.9-3.8-5 0-1.3.4-2.6 1.3-3.6.6-.3 1.2-.5 1.8-.5 2.8 0 3.8 2.9 3.8 5 0 1.3-.4 2.6-1.3 3.6-.6.4-1.2.5-1.8.5m-.5 1.7c3.7 0 5.9-3.4 5.9-6.4 0-3.4-1.7-6-5.6-6S12.3 74 12.3 77c0 3.5 1.8 6 5.6 6M6.8 83c1.4 0 2.9-.4 4.1-1.2 0-.4-.1-.8-.4-1.1-.8.3-1.7.5-2.6.5-.8 0-1.2-.9-1.2-2.8v-6h4c.1-.5.1-1 .1-1.5H6.5v-3.4c-.4-.1-.9-.2-1.3-.2l-.9 3.4c-.7 0-1.3.1-2 .3-.1.3 0 .7 0 1 .7.1 1.5.2 2 .3v7c0 2.4.7 3.7 2.5 3.7" class="st0"/><path d="M299.9 279.3c-1.9-.1-3.6-.8-5.1-2-2.4-1.7-4-4.4-4.1-7.4 0 0 3.8-.8 3.7-4.2 0 0 .1-4.2-5-4.5-1.3-.1-2.7-.2-4-.1 0 0-2.6.3-3.6.5-1.4.4-3.5 1.2-3.6 2.9 0 0 .1 1.7 1.7 1.7 0 0 1.6 0 1.6-1.3.1-.5-.2-1-.7-1.2.9-.7 2-1 3.1-.9l-2.1 11.1c0 .9-.7 1.5-1.6 1.6l-1 .1-.2 1.3h7.3l.1-1.1-.5-.1c-.6-.1-1.1-.8-.9-1.4v-.2l.7-3.6c.5.1.9.1 1.4 0 .6 2.9 2.3 5.5 4.6 7.4 2.2 1.5 4.8 2.3 7.5 2.3l.7-.9zM286.2 269l1.1-6.2c4.4-.2 3.9 2.7 3.9 2.7-.7 4.4-5 3.5-5 3.5" class="st1"/><path d="M17 4.5L14.9 7c-1.4-1.3-3.3-2-5.2-2-2.1 0-3.6.9-3.6 2.7s.9 2.4 4.8 3.6c4.1 1.3 6.9 2.9 6.9 7.3 0 4.1-3.2 7.1-8.8 7.1-3.1.1-6.1-1-8.4-3.1l2.3-2.5c1.6 1.5 3.8 2.3 6 2.3 2.5 0 4.2-1.2 4.2-3.5 0-1.9-1-2.8-4.6-3.9-4.9-1.5-7-3.4-7-7 0-3.9 3.3-6.4 7.9-6.4 2.8-.1 5.6.9 7.6 2.9zm14.5 20c-1.3.9-2.9 1.4-4.5 1.3-3.5 0-5.3-2-5.3-5.8v-9.3h-2.8V7.6h2.8v-4l4.3-.5v4.4h4.1l-.4 3.1H26v9.2c0 1.8.6 2.5 1.9 2.5.8 0 1.5-.2 2.1-.6l1.5 2.8zm17.4-8.1c0 5.6-3.1 9.4-8.4 9.4s-8.3-3.5-8.3-9.4c0-5.6 3.1-9.4 8.4-9.4s8.3 3.6 8.3 9.4zm-12.2 0c0 4.2 1.3 6.1 3.8 6.1s3.8-1.9 3.8-6.1-1.3-6.1-3.8-6.1-3.8 1.9-3.8 6.1zm26.7-9.1l-.7 4.2c-.5-.1-1-.2-1.6-.2-2.1 0-3.2 1.6-3.9 4.6v9.4h-4.3V7.6h3.7l.4 3.5c.8-2.5 2.5-3.9 4.6-3.9.6-.1 1.2 0 1.8.1zm11.3 18.1c-1.3 4.2-4 6.8-9.2 7.2l-.5-3.1c3.5-.5 4.7-1.7 5.7-4.2h-1.5L63.6 7.6h4.6L72 22.5l4-14.9h4.4l-5.7 17.8zm31.2-7.6H94.7c.3 3.6 2 4.8 4.4 4.8 1.6 0 3.2-.6 4.4-1.6l1.8 2.4c-1.8 1.5-4.2 2.4-6.6 2.4-5.5 0-8.4-3.6-8.4-9.2 0-5.4 2.8-9.5 7.9-9.5s7.8 3.4 7.8 9c0 .5-.1 1.2-.1 1.7zm-4.2-3c0-2.9-1-4.7-3.4-4.7-2 0-3.3 1.4-3.5 4.9h7l-.1-.2zm22.5-2.3v12.8h-4.3V13.1c0-2.2-.8-2.9-2.2-2.9-1.6 0-2.7 1-3.7 2.7v12.3h-4.3V7.6h3.7l.3 2.3c1.2-1.8 3.2-2.8 5.4-2.8 3.3 0 5.1 2 5.1 5.4zm19.7-12v24.8h-3.8l-.3-2.2c-1.1 1.7-3 2.8-5.1 2.8-4.4 0-6.7-3.7-6.7-9.4 0-5.5 2.8-9.4 7.1-9.4 1.7 0 3.3.7 4.5 1.9V0l4.3.5zm-4.3 19.8v-8.1c-.8-1.1-2-1.8-3.4-1.9-2.2 0-3.7 1.9-3.7 6.1 0 4.6 1.3 6.1 3.4 6.1 1.6.1 2.7-.7 3.7-2.2zm23.8-2.5h-11.1c.3 3.6 2 4.8 4.4 4.8 1.6 0 3.2-.6 4.4-1.6l1.8 2.4c-1.8 1.5-4.2 2.4-6.6 2.4-5.5 0-8.4-3.6-8.4-9.2 0-5.4 2.9-9.5 7.9-9.5s7.8 3.4 7.8 9c-.1.5-.2 1.2-.2 1.7zm-4.2-3c0-2.9-1-4.7-3.4-4.7-2 0-3.3 1.4-3.5 4.9h7l-.1-.2zm18.6-7.5l-.7 4.2c-.5-.1-1-.2-1.6-.2-2.1 0-3.2 1.6-3.9 4.6v9.4h-4.3V7.6h3.7l.4 3.5c.8-2.5 2.6-3.9 4.6-3.9.6-.1 1.2 0 1.8.1z" class="st2"/></g></g></svg>