<?xml version="1.0" encoding="utf-8"?>
<!-- Generator: Adobe Illustrator 26.0.1, SVG Export Plug-In . SVG Version: 6.00 Build 0)  -->
<svg version="1.1" id="Layer_1" xmlns="http://www.w3.org/2000/svg" xmlns:xlink="http://www.w3.org/1999/xlink" x="0px" y="0px"
	 viewBox="0 0 586.5 386.4" style="enable-background:new 0 0 586.5 386.4;" xml:space="preserve">
<style type="text/css">
	.st0{fill:#2997FF;}
</style>
<path class="st0" d="M176,48.7L168,0h56.6c10.3,12.9,10.8,16.2,26.9,16.2h95.2l-7.8,32.5h-16.5l3.8-16.2h-74.7
	c-18.9,0-25.7-5-34.8-16.2h-30l5.6,32.5L176,48.7L176,48.7z M354.9,65l-16.2,97.5H176.2L159.9,65h51l18.8-24.4L261.4,65h16
	l-11.6-8.9l11.9-15.5L309.3,65H354.9z M336,81.2H178.9l11.3,65h134.6L336,81.2z M407.6,272.6l-8-48.7h56.6
	c10.3,12.9,10.8,16.2,26.9,16.2h95.2l-7.8,32.5H554l3.8-16.2h-74.7c-18.9,0-25.7-5-34.8-16.2h-30l5.6,32.5L407.6,272.6L407.6,272.6
	L407.6,272.6z M586.5,288.9l-16.2,97.5H407.8l-16.3-97.5h51l18.8-24.4l31.7,24.4h16l-11.6-8.9l11.9-15.5l31.6,24.4H586.5
	L586.5,288.9z M567.6,305.1H410.5l11.3,65h134.6L567.6,305.1L567.6,305.1z M264.1,247.4c26.3,0,16.7,37.9,16.7,37.9
	s37.9-10.4,37.9,15.5v73H217.6V247.4L264.1,247.4L264.1,247.4z M269.3,234.7h-64.4v151.7h126.5v-90.9
	C331.4,280.4,289.3,234.7,269.3,234.7L269.3,234.7z M64.5,234.7H0v151.7h126.4v-91C126.4,280.2,84.7,234.7,64.5,234.7L64.5,234.7z
	 M113.8,373.8H12.6V247.4h46.8c25.9,0,16.4,37.9,16.4,37.9s37.9-10.7,37.9,15.8L113.8,373.8L113.8,373.8z M368.8,113
	c1-1,1.6-2.4,1.6-3.9c0-0.4,0-0.7-0.1-1.1s-0.2-0.7-0.3-1c-0.1-0.3-0.3-0.6-0.5-1c-0.2-0.3-0.4-0.6-0.7-0.8c-1.3-1.3-3.2-1.9-5-1.5
	c-0.3,0.1-0.7,0.2-1,0.3c-0.3,0.1-0.6,0.3-0.9,0.5s-0.6,0.4-0.8,0.7c-0.2,0.2-0.5,0.5-0.7,0.8s-0.4,0.6-0.5,1
	c-0.1,0.3-0.2,0.7-0.3,1c-0.1,0.4-0.1,0.7-0.1,1.1c0,1.4,0.6,2.9,1.6,3.9c0.3,0.3,0.5,0.5,0.8,0.7s0.6,0.4,0.9,0.5s0.7,0.2,1,0.3
	c0.4,0.1,0.7,0.1,1.1,0.1C366.4,114.6,367.8,114.1,368.8,113z M401.6,109.1c0-3,2.5-5.5,5.5-5.5s5.5,2.5,5.5,5.5s-2.5,5.5-5.5,5.5
	C404,114.6,401.6,112.2,401.6,109.1z M422.9,109.1c0-3,2.5-5.5,5.5-5.5s5.5,2.5,5.5,5.5s-2.5,5.5-5.5,5.5
	C425.3,114.6,422.9,112.2,422.9,109.1z M444.2,109.1c0-3,2.5-5.5,5.5-5.5s5.5,2.5,5.5,5.5s-2.5,5.5-5.5,5.5
	C446.6,114.6,444.2,112.2,444.2,109.1z M465.6,109.1c0-3,2.5-5.5,5.5-5.5s5.5,2.5,5.5,5.5s-2.5,5.5-5.5,5.5
	C468,114.6,465.6,112.2,465.6,109.1z M380.5,109.1c0-3,2.5-5.5,5.5-5.5s5.5,2.5,5.5,5.5s-2.5,5.5-5.5,5.5S380.5,112.2,380.5,109.1z
	 M493,113c0.2-0.2,0.5-0.5,0.7-0.8s0.4-0.6,0.5-1c0.1-0.3,0.2-0.7,0.3-1c0.1-0.4,0.1-0.7,0.1-1.1c0-1.4-0.6-2.9-1.6-3.9
	c-0.3-0.2-0.5-0.5-0.8-0.7s-0.6-0.4-1-0.5c-0.3-0.1-0.7-0.2-1-0.3c-1.8-0.4-3.7,0.2-5,1.5c-1,1-1.6,2.5-1.6,3.9c0,0.4,0,0.7,0.1,1.1
	s0.2,0.7,0.3,1c0.1,0.3,0.3,0.6,0.5,1c0.2,0.3,0.4,0.6,0.7,0.8c0.2,0.3,0.5,0.5,0.8,0.7s0.6,0.4,1,0.5c0.3,0.1,0.7,0.2,1,0.3
	c0.4,0.1,0.7,0.1,1.1,0.1C490.6,114.6,492,114.1,493,113z M483.6,199.1c0-3,2.5-5.5,5.5-5.5s5.5,2.5,5.5,5.5s-2.5,5.5-5.5,5.5
	S483.6,202.1,483.6,199.1z M483.6,176.6c0-3,2.5-5.5,5.5-5.5s5.5,2.5,5.5,5.5s-2.5,5.5-5.5,5.5S483.6,179.6,483.6,176.6z
	 M483.6,154.1c0-3,2.5-5.5,5.5-5.5s5.5,2.5,5.5,5.5s-2.5,5.5-5.5,5.5S483.6,157.1,483.6,154.1z M483.6,131.6c0-3,2.5-5.5,5.5-5.5
	s5.5,2.5,5.5,5.5s-2.5,5.5-5.5,5.5S483.6,134.7,483.6,131.6z M258.9,199.1c0-3,2.5-5.5,5.5-5.5s5.5,2.5,5.5,5.5s-2.5,5.5-5.5,5.5
	S258.9,202.1,258.9,199.1z M258.9,176.6c0-3,2.5-5.5,5.5-5.5s5.5,2.5,5.5,5.5s-2.5,5.5-5.5,5.5S258.9,179.6,258.9,176.6z
	 M268.3,225.4c0.2-0.2,0.5-0.5,0.7-0.8s0.4-0.6,0.5-0.9c0.1-0.3,0.2-0.7,0.3-1c0.1-0.4,0.1-0.7,0.1-1.1c0-1.5-0.6-2.9-1.6-3.9
	c-1.3-1.3-3.2-1.9-5-1.5c-0.3,0.1-0.7,0.2-1,0.3s-0.7,0.3-1,0.5s-0.6,0.4-0.8,0.7c-1,1-1.6,2.4-1.6,3.9c0,1.4,0.6,2.9,1.6,3.9
	s2.4,1.6,3.9,1.6C265.9,227,267.3,226.4,268.3,225.4z M133.5,113c0.2-0.3,0.5-0.5,0.7-0.8s0.4-0.6,0.5-1c0.1-0.3,0.2-0.7,0.3-1
	s0.1-0.7,0.1-1.1s0-0.7-0.1-1.1s-0.2-0.7-0.3-1s-0.3-0.6-0.5-1c-0.2-0.3-0.4-0.6-0.7-0.8c-1-1-2.4-1.6-3.9-1.6
	c-1.4,0-2.9,0.6-3.9,1.6c-0.2,0.3-0.5,0.5-0.7,0.8s-0.4,0.6-0.5,1c-0.1,0.3-0.2,0.7-0.3,1c-0.1,0.4-0.1,0.7-0.1,1.1s0,0.7,0.1,1.1
	s0.2,0.7,0.3,1c0.1,0.3,0.3,0.6,0.5,1c0.2,0.3,0.4,0.6,0.7,0.8c1,1,2.4,1.6,3.9,1.6C131,114.7,132.5,114.1,133.5,113z M103,109.1
	c0-3,2.5-5.5,5.5-5.5s5.5,2.5,5.5,5.5s-2.5,5.5-5.5,5.5C105.5,114.7,103,112.2,103,109.1z M81.9,109.1c0-3,2.5-5.5,5.5-5.5
	s5.5,2.5,5.5,5.5s-2.5,5.5-5.5,5.5C84.4,114.7,81.9,112.2,81.9,109.1z M70.3,113c1-1,1.6-2.4,1.6-3.9c0-0.4,0-0.7-0.1-1.1
	s-0.2-0.7-0.3-1c-0.1-0.3-0.3-0.6-0.5-1c-0.2-0.3-0.4-0.6-0.7-0.8c-1.3-1.3-3.2-1.9-5-1.5c-0.4,0.1-0.7,0.2-1,0.3
	c-0.3,0.1-0.7,0.3-1,0.5s-0.6,0.4-0.8,0.7c-0.3,0.2-0.5,0.5-0.7,0.8s-0.4,0.6-0.5,1s-0.2,0.7-0.3,1c-0.1,0.4-0.1,0.7-0.1,1.1
	s0,0.7,0.1,1.1s0.2,0.7,0.3,1s0.3,0.6,0.5,1c0.2,0.3,0.4,0.6,0.7,0.8c1,1,2.4,1.6,3.9,1.6C67.8,114.6,69.2,114.1,70.3,113z
	 M60.9,199.1c0-3,2.5-5.5,5.5-5.5s5.5,2.5,5.5,5.5s-2.5,5.5-5.5,5.5C63.3,204.5,60.9,202.1,60.9,199.1z M60.9,176.6
	c0-3,2.5-5.5,5.5-5.5s5.5,2.5,5.5,5.5s-2.5,5.5-5.5,5.5C63.3,182.1,60.9,179.6,60.9,176.6z M60.9,154.1c0-3,2.5-5.5,5.5-5.5
	s5.5,2.5,5.5,5.5s-2.5,5.5-5.5,5.5C63.3,159.6,60.9,157.1,60.9,154.1z M60.9,131.6c0-3,2.5-5.5,5.5-5.5s5.5,2.5,5.5,5.5
	s-2.5,5.5-5.5,5.5C63.3,137.1,60.9,134.7,60.9,131.6z M70.3,225.4c1-1,1.6-2.4,1.6-3.9s-0.6-2.9-1.6-3.9s-2.4-1.6-3.9-1.6
	s-2.9,0.6-3.9,1.6c-0.3,0.3-0.5,0.5-0.7,0.8s-0.4,0.6-0.5,1s-0.2,0.7-0.3,1s-0.1,0.7-0.1,1.1c0,1.4,0.6,2.9,1.6,3.9s2.4,1.6,3.9,1.6
	S69.2,226.4,70.3,225.4L70.3,225.4z"/>
<path class="st0" d="M220.5,118.4c0,4.5-3.2,6.6-7.8,6.6h-2.2v6.7h-4.2V112h6.1C217.4,112,220.5,114.1,220.5,118.4z M216.2,118.4
	c0-2.3-1.4-3.3-3.8-3.3h-1.8v6.9h1.9C214.7,122,216.2,121.1,216.2,118.4z M234.5,129.4l-0.8,2.6c-1.7-0.2-2.8-0.7-3.5-2.2
	c-1.1,1.7-2.7,2.2-4.5,2.2c-3.1,0-4.9-1.9-4.9-4.6c0-3.3,2.5-5.1,6.9-5.1h1.7v-0.7c0-1.9-0.8-2.5-2.6-2.5c-1,0-2.5,0.2-4,0.8
	l-0.9-2.7c1.9-0.7,3.9-1.1,5.6-1.1c4.2,0,6,1.8,6,5.3v6.1C233.4,128.7,233.8,129.2,234.5,129.4L234.5,129.4z M229.5,127.6v-2.9h-1.3
	c-2.2,0-3.3,0.8-3.3,2.5c0,1.3,0.7,2.1,2,2.1C227.9,129.2,228.8,128.7,229.5,127.6L229.5,127.6z M248.8,118l-1.7,2.4
	c-1-0.7-1.8-1.1-3-1.1c-2,0-3.2,1.5-3.2,5s1.2,4.6,3.2,4.6c1.1,0,1.9-0.3,3-1.1l1.7,2.6c-1.4,1.1-3,1.7-5,1.7
	c-4.5,0-7.3-3.1-7.3-7.9s2.8-8.1,7.2-8.1C245.8,116.2,247.3,116.8,248.8,118L248.8,118z M255.1,131.7H251v-21.1l4.1-0.5
	C255.1,110.1,255.1,131.7,255.1,131.7z M259.4,123.3l5.3,8.4h-4.6l-4.9-8.3l4.9-6.9h4.2C264.3,116.6,259.4,123.3,259.4,123.3z
	 M278.7,129.4l-0.8,2.6c-1.7-0.2-2.8-0.7-3.5-2.2c-1.1,1.7-2.7,2.2-4.5,2.2c-3.1,0-4.9-1.9-4.9-4.6c0-3.3,2.5-5.1,6.9-5.1h1.7v-0.7
	c0-1.9-0.8-2.5-2.6-2.5c-1,0-2.5,0.2-4,0.8l-0.9-2.7c1.9-0.7,3.9-1.1,5.6-1.1c4.2,0,6,1.8,6,5.3v6.1
	C277.7,128.7,278.1,129.2,278.7,129.4L278.7,129.4z M273.7,127.6v-2.9h-1.3c-2.2,0-3.3,0.8-3.3,2.5c0,1.3,0.7,2.1,2,2.1
	C272.2,129.2,273.1,128.7,273.7,127.6z M295.2,117.5c-1.1,0.4-2.6,0.6-4.4,0.6c1.8,0.8,2.8,2,2.8,3.9c0,2.9-2.4,5-6.2,5
	c-0.7,0-1.2-0.1-1.7-0.2c-0.3,0.2-0.6,0.6-0.6,1c0,0.5,0.2,1,1.7,1h2.3c3.4,0,5.6,1.8,5.6,4.3c0,3.1-2.6,4.9-7.7,4.9
	c-5.5,0-7-1.8-7-4.8h3.6c0,1.4,0.7,2.1,3.5,2.1c2.8,0,3.6-0.7,3.6-1.8c0-1-0.7-1.7-2.4-1.7h-2.2c-3.1,0-4.5-1.4-4.5-3
	c0-1.1,0.7-2.1,1.7-2.8c-1.9-1-2.6-2.4-2.6-4.3c0-3.3,2.6-5.5,6.4-5.5c3.5,0.1,5.2-0.8,7-1.8C294.2,114.4,295.2,117.5,295.2,117.5z
	 M284.7,121.6c0,1.7,1,2.7,2.5,2.7c1.7,0,2.5-1,2.5-2.8s-0.8-2.6-2.5-2.6C285.7,118.9,284.7,119.9,284.7,121.6z M309.7,125.4h-9.4
	c0.2,2.9,1.7,3.7,3.6,3.7c1.2,0,2.4-0.4,3.6-1.3l1.7,2.3c-1.5,1.2-3.4,2.1-5.7,2.1c-4.9,0-7.4-3.2-7.4-7.9c0-4.5,2.5-8.1,6.9-8.1
	c4.3,0,6.8,2.8,6.8,7.7C309.8,124.4,309.7,124.9,309.7,125.4z M305.7,122.7c0-2.3-0.7-3.7-2.7-3.7c-1.6,0-2.6,1.1-2.8,4h5.5
	L305.7,122.7L305.7,122.7z M23.9,358h-3.3v-15.5h3.3V358z M37,349.3v8.7h-3.2v-8.1c0-1.4-0.5-1.8-1.3-1.8c-0.9,0-1.6,0.6-2.3,1.7
	v8.2H27v-11.9h2.8l0.2,1.5c0.9-1.2,2.1-1.9,3.6-1.9C35.8,345.7,37,347.1,37,349.3L37,349.3z M52.1,350.2c0,6.3-3.8,7.8-7.6,7.8h-4.4
	v-15.5h4.1C48.2,342.5,52.1,343.7,52.1,350.2z M43.4,344.9v10.7h1.3c2.3,0,4-1.1,4-5.4c0-4.4-1.8-5.3-4.1-5.3L43.4,344.9L43.4,344.9
	z M64.6,353h-7.4c0.2,2.3,1.3,3,2.8,3c1,0,1.9-0.3,2.9-1l1.3,1.8c-1.2,0.9-2.6,1.6-4.5,1.6c-3.8,0-5.8-2.5-5.8-6.2
	c0-3.6,1.9-6.4,5.4-6.4c3.4,0,5.4,2.2,5.4,6C64.6,352.2,64.6,352.7,64.6,353z M61.5,350.9c0-1.8-0.6-3-2.1-3c-1.3,0-2,0.8-2.2,3.1
	h4.3V350.9z M75.2,347.2L74,349c-1-0.6-1.9-0.9-3-0.9s-1.6,0.4-1.6,1.1s0.4,1,2.5,1.6c2.4,0.7,3.7,1.6,3.7,3.7
	c0,2.5-2.3,3.9-5.1,3.9c-2.1,0-3.7-0.7-4.8-1.7l1.6-1.8c0.9,0.7,2,1.2,3.2,1.2s2-0.5,2-1.3c0-0.9-0.4-1.2-2.6-1.8
	c-2.4-0.7-3.5-1.9-3.5-3.7c0-2,1.8-3.5,4.7-3.5C72.6,345.7,74.1,346.3,75.2,347.2L75.2,347.2z M81.2,341.8c0,1.1-0.8,1.9-2,1.9
	c-1.1,0-1.9-0.8-1.9-1.9s0.8-1.9,1.9-1.9C80.4,340,81.2,340.8,81.2,341.8z M80.8,358h-3.2v-11.9h3.2V358z M94.6,346.8
	c-0.9,0.3-2,0.4-3.4,0.4c1.5,0.7,2.2,1.5,2.2,3.1c0,2.3-1.9,4-4.9,4c-0.5,0-1,0-1.4-0.2c-0.3,0.2-0.4,0.5-0.4,0.8
	c0,0.4,0.2,0.8,1.4,0.8h1.8c2.7,0,4.4,1.4,4.4,3.4c0,2.4-2.1,3.9-6.1,3.9c-4.4,0-5.5-1.4-5.5-3.8h2.9c0,1.1,0.5,1.6,2.8,1.6
	c2.2,0,2.8-0.6,2.8-1.5c0-0.8-0.6-1.3-1.9-1.3h-1.8c-2.5,0-3.5-1.1-3.5-2.3c0-0.9,0.5-1.7,1.4-2.2c-1.5-0.8-2.1-1.9-2.1-3.4
	c0-2.6,2.1-4.3,5.1-4.3c2.7,0.1,4.1-0.6,5.6-1.4L94.6,346.8z M86.3,350c0,1.4,0.8,2.2,2,2.2c1.3,0,2-0.8,2-2.2c0-1.4-0.7-2.1-2-2.1
	C87.1,347.9,86.3,348.7,86.3,350z M106.1,349.3v8.7h-3.2v-8.1c0-1.4-0.5-1.8-1.3-1.8c-0.9,0-1.6,0.6-2.3,1.7v8.2h-3.2v-11.9h2.8
	l0.2,1.5c0.9-1.2,2.1-1.9,3.6-1.9C104.8,345.7,106.1,347.1,106.1,349.3L106.1,349.3z M260.9,347.3c0,3.9-2.8,5.7-6.6,5.7h-1.9v5.8
	h-3.6v-16.9h5.2C258.3,341.8,260.9,343.6,260.9,347.3z M257.2,347.3c0-2-1.2-2.9-3.3-2.9h-1.6v5.9h1.6
	C256,350.3,257.2,349.6,257.2,347.3z M276.4,350.2c0,6.8-4.2,8.5-8.3,8.5h-4.8v-16.9h4.4C272.2,341.8,276.4,343.2,276.4,350.2
	L276.4,350.2z M266.9,344.4V356h1.5c2.5,0,4.4-1.1,4.4-5.9s-2-5.7-4.4-5.7H266.9z M279.2,341.8h9.8l-0.4,2.6h-5.8v4.8h5.1v2.6h-5.1
	v6.9h-3.6V341.8z M465.4,355.8h6.7l-0.4,2.9h-9.9v-16.9h3.6L465.4,355.8L465.4,355.8z M478,341.1c0,1.1-0.9,2-2.1,2s-2.1-0.9-2.1-2
	s0.9-2,2.1-2S478,340,478,341.1z M477.6,358.7h-3.5v-13h3.5V358.7z M491.9,349.3v9.4h-3.5v-8.8c0-1.5-0.6-1.9-1.4-1.9
	c-1,0-1.8,0.7-2.5,1.8v8.9H481v-13h3l0.3,1.6c1-1.3,2.3-2,3.9-2C490.5,345.4,491.9,346.8,491.9,349.3L491.9,349.3z M498.5,358.7H495
	v-18.1l3.5-0.4L498.5,358.7L498.5,358.7z M502.3,351.5l4.5,7.3h-4l-4.2-7.1l4.2-5.9h3.6L502.3,351.5z M517.2,346.9l-1.3,2
	c-1.1-0.7-2.1-1-3.2-1s-1.8,0.5-1.8,1.2c0,0.8,0.4,1.1,2.7,1.8c2.6,0.7,4.1,1.8,4.1,4.1c0,2.7-2.5,4.2-5.6,4.2
	c-2.2,0-4.1-0.8-5.3-1.9l1.7-1.9c1,0.8,2.2,1.3,3.5,1.3s2.1-0.5,2.1-1.4c0-1-0.5-1.3-2.9-2c-2.6-0.7-3.8-2-3.8-4
	c0-2.2,2-3.9,5.1-3.9C514.4,345.4,516,346,517.2,346.9L517.2,346.9z"/>
</svg>
