<?xml version="1.0" encoding="utf-8"?>
<!-- Generator: Adobe Illustrator 26.1.0, SVG Export Plug-In . SVG Version: 6.00 Build 0)  -->
<svg version="1.1" id="Layer_1" xmlns="http://www.w3.org/2000/svg" xmlns:xlink="http://www.w3.org/1999/xlink" x="0px" y="0px"
	 viewBox="0 0 71.7 86" style="enable-background:new 0 0 71.7 86;" xml:space="preserve">
<style type="text/css">
	.st0{fill:#2997FF;}
</style>
<path class="st0" d="M33.6,7.2c14.9,0,9.5,21.5,9.5,21.5s21.5-5.9,21.5,8.8v41.4H7.3V7.3L33.6,7.2L33.6,7.2z M36.5,0H0v86h71.7V34.4
	C71.7,25.9,47.9,0,36.5,0z"/>
<path class="st0" d="M30.7,45.2c0,2.8-2,4.1-4.8,4.1h-1.4v4.2h-2.6V41.3h3.8C28.8,41.3,30.7,42.6,30.7,45.2z M28,45.2
	c0-1.4-0.8-2.1-2.4-2.1h-1.1v4.3h1.2C27.1,47.4,28,46.9,28,45.2z M41.8,47.4c0,4.9-3,6.1-6,6.1h-3.5V41.3h3.2
	C38.8,41.3,41.8,42.3,41.8,47.4L41.8,47.4z M34.9,43.2v8.4h1c1.8,0,3.1-0.8,3.1-4.2c0-3.5-1.4-4.1-3.2-4.1L34.9,43.2L34.9,43.2z
	 M43.8,41.3h7.1l-0.3,1.9h-4.2v3.4h3.7v1.9h-3.7v5h-2.6V41.3L43.8,41.3z"/>
</svg>
