<svg xmlns="http://www.w3.org/2000/svg" id="Layer_1" viewBox="0 0 2846.5 2077.6" width="2846.5" height="2077.6"><style>.st0{fill:#2997ff}</style><path d="M956 277.6L913.8 21H1212c54.3 68 56.9 85.3 141.7 85.3h501.5l-41.1 171.2h-86.9l20-85.3h-393.5c-99.6 0-135.4-26.3-183.3-85.3h-158l29.5 171.2-85.9-.5zm942.4 85.8L1813.1 877H957l-85.9-513.6h268.7l99-128.5 167 128.5h84.3l-61.1-46.9 62.7-81.7 166.5 128.5h240.2zm-99.5 85.4H971.3l59.5 342.4h709.1l59-342.4zm664.3 875.5c138.6 0 88 199.7 88 199.7s199.7-54.8 199.7 81.7v384.6h-532.6v-665.9h244.9zm27.4-66.9h-339.3v799.2h666.4v-478.9c0-79.5-221.8-320.3-327.1-320.3zm-2122 0H28.8v799.2h665.9v-479.4c0-80.1-219.7-319.8-326.1-319.8zm259.7 732.8H95.2v-665.9h246.5c136.4 0 86.4 199.7 86.4 199.7s199.7-56.4 199.7 83.2l.5 383zM732.1 616.3c1.1-1.6 2.6-2.6 3.7-4.2s2.1-3.2 2.6-5.3c.5-1.6 1.1-3.7 1.6-5.3.5-1.6.5-3.7.5-5.8 0-2.1 0-3.7-.5-5.8-.5-2.1-1.1-3.7-1.6-5.3-.5-1.6-1.6-3.2-2.6-5.3-1.1-1.6-2.1-3.2-3.7-4.2-5.3-5.3-12.6-8.4-20.5-8.4-7.4 0-15.3 3.2-20.5 8.4-1.1 1.6-2.6 2.6-3.7 4.2s-2.1 3.2-2.6 5.3c-.5 1.6-1.1 3.7-1.6 5.3-.5 2.1-.5 3.7-.5 5.8 0 2.1 0 3.7.5 5.8s1.1 3.7 1.6 5.3c.5 1.6 1.6 3.2 2.6 5.3 1.1 1.6 2.1 3.2 3.7 4.2 5.3 5.3 12.6 8.4 20.5 8.4 7.3.6 15.2-2.6 20.5-8.4zm-160.7-20.5c0-15.8 13.2-29 29-29s29 13.2 29 29-13.2 29-29 29c-15.8.5-29-12.7-29-29zm-111.2 0c0-15.8 13.2-29 29-29s29 13.2 29 29-13.2 29-29 29c-15.8.5-29-12.7-29-29zm-61.1 20.5c5.3-5.3 8.4-12.6 8.4-20.5 0-2.1 0-3.7-.5-5.8-.5-2.1-1.1-3.7-1.6-5.3s-1.6-3.2-2.6-5.3c-1.1-1.6-2.1-3.2-3.7-4.2-6.8-6.8-16.9-10-26.3-7.9-2.1.5-3.7 1.1-5.3 1.6-1.6.5-3.7 1.6-5.3 2.6-1.6 1.1-3.2 2.1-4.2 3.7-1.6 1.1-2.6 2.6-3.7 4.2s-2.1 3.2-2.6 5.3-1.1 3.7-1.6 5.3c-.5 2.1-.5 3.7-.5 5.8 0 2.1 0 3.7.5 5.8s1.1 3.7 1.6 5.3 1.6 3.2 2.6 5.3c1.1 1.6 2.1 3.2 3.7 4.2 5.3 5.3 12.6 8.4 20.5 8.4 7.5-.1 14.8-2.7 20.6-8.5zm-49.5 453.6c0-15.8 13.2-29 29-29s29 13.2 29 29-13.2 29-29 29c-16.3-.6-29-13.2-29-29zm0-118.5c0-15.8 13.2-29 29-29s29 13.2 29 29-13.2 29-29 29c-16.3-.1-29-13.2-29-29zm0-118.6c0-15.8 13.2-29 29-29s29 13.2 29 29-13.2 29-29 29c-16.3 0-29-13.2-29-29zm0-118.5c0-15.8 13.2-29 29-29s29 13.2 29 29-13.2 29-29 29c-16.3 0-29-12.7-29-29zm49.5 494.1c5.3-5.3 8.4-12.6 8.4-20.5s-3.2-15.3-8.4-20.5c-5.3-5.3-12.6-8.4-20.5-8.4s-15.3 3.2-20.5 8.4c-1.6 1.6-2.6 2.6-3.7 4.2s-2.1 3.2-2.6 5.3c-.5 2.1-1.1 3.7-1.6 5.3-.5 1.6-.5 3.7-.5 5.8 0 7.4 3.2 15.3 8.4 20.5 5.3 5.3 12.6 8.4 20.5 8.4s14.7-3.2 20.5-8.5zm1615.8-583.7c7.9 0 15.3-3.2 20.5-8.4 1.6-1.1 2.6-2.6 3.7-4.2 1.1-2.1 2.1-3.7 2.6-5.3s1.1-3.2 1.6-5.3c.5-2.1.5-3.7.5-5.8 0-2.1 0-3.7-.5-5.8-.5-1.6-1.1-3.7-1.6-5.3-.5-2.1-1.6-3.7-2.6-5.3-1.1-1.6-2.6-2.6-3.7-4.2-5.3-5.3-13.2-8.4-20.5-8.4-7.9 0-15.3 3.2-20.5 8.4-1.6 1.1-2.6 2.6-3.7 4.2-1.1 2.1-2.1 3.7-2.6 5.3s-1.1 3.2-1.6 5.3c-.5 2.1-.5 3.7-.5 5.8 0 2.1 0 4.2.5 5.8s1.1 3.7 1.6 5.3c.5 2.1 1.6 3.7 2.6 5.3 1.1 1.6 2.6 2.6 3.7 4.2 5.2 5.8 13.1 9 20.5 8.4zm111.1 0c-15.8 0-29-13.2-29-29s13.2-29 29-29 29 13.2 29 29c0 16.4-13.2 29.6-29 29zm111.2 0c-15.8 0-29-13.2-29-29s13.2-29 29-29 29 13.2 29 29c-.1 16.4-13.2 29.6-29 29zm110.6 0c7.9 0 15.3-3.2 20.5-8.4 1.6-1.1 2.6-2.6 3.7-4.2 1.1-2.1 2.1-3.7 2.6-5.3s1.1-3.2 1.6-5.3c.5-2.1.5-3.7.5-5.8 0-2.1 0-3.7-.5-5.8-.5-1.6-1.1-3.2-1.6-5.3-.5-2.1-1.6-3.7-2.6-5.3s-2.1-3.2-3.7-4.2c-1.1-1.6-2.6-2.6-4.2-3.7s-3.7-2.1-5.3-2.6c-1.6-.5-3.2-1.1-5.3-1.6-9.5-2.1-19.5 1.1-26.3 7.9-1.6 1.1-2.6 2.6-3.7 4.2-1.1 2.1-2.1 3.7-2.6 5.3s-1.1 3.2-1.6 5.3c-.5 2.1-.5 3.7-.5 5.8 0 7.9 3.2 15.3 8.4 20.5 5.9 5.9 13.2 8.5 20.6 8.5zm0 474.2c-15.8 0-29-13.2-29-29s13.2-29 29-29 29 13.2 29 29-12.7 28.4-29 29zm0-118.6c-15.8 0-29-13.2-29-29s13.2-29 29-29 29 13.2 29 29-12.7 29-29 29zm0-118.5c-15.8 0-29-13.2-29-29s13.2-29 29-29 29 13.2 29 29-12.7 29-29 29zm0-118.5c-15.8 0-29-13.2-29-29s13.2-29 29-29 29 13.2 29 29c0 16.3-12.7 29-29 29zm-20.5 465.1c5.8 5.3 12.6 8.4 20.5 8.4s15.3-3.2 20.5-8.4 8.4-13.2 8.4-20.5c0-2.1 0-4.2-.5-5.8s-1.1-3.2-1.6-5.3-1.6-3.7-2.6-5.3-2.1-2.6-3.7-4.2c-5.3-5.3-12.6-8.4-20.5-8.4s-15.3 3.2-20.5 8.4c-5.3 5.3-8.4 12.6-8.4 20.5-.1 8 3.1 15.4 8.4 20.6z" class="st0"/><path d="M1221.1 626.3c0 20.1-14.4 29.3-34.2 29.3h-9.9v29.7h-18.5v-87.1h26.9c22.1 0 35.7 9.1 35.7 28.1zm-19.2 0c0-10.2-6-14.7-16.9-14.7h-8.2V642h8.4c10.3 0 16.7-3.9 16.7-15.7zm81.2 48.9l-3.8 11.8c-7.6-.8-12.6-3.1-15.4-9.7-4.8 7.2-12.1 9.9-20 9.9-13.3 0-21.7-8.6-21.7-20.6 0-14.6 11.1-22.5 30.7-22.5h7.7v-3.3c0-8.3-3.5-11-11.8-11-4.4 0-11 1.3-17.6 3.5l-4.2-12c8.3-3.3 17.1-4.9 24.7-4.9 18.5 0 26.6 8.2 26.6 23.3v26.9c.1 5.6 1.7 7.5 4.8 8.6zm-22.4-8.1v-12.7h-5.8c-9.8 0-14.6 3.5-14.6 10.8 0 5.9 3 9.3 8.7 9.3 5.1 0 9.1-2.6 11.7-7.4zm85.5-42.5l-7.8 10.6c-4.3-3.3-8.2-4.8-13.1-4.8-8.9 0-14.2 6.4-14.2 21.9s5.7 20.6 14.1 20.6c4.9 0 8.3-1.5 13.2-4.7l7.8 11.2c-6 4.9-13.1 7.8-21.9 7.8-19.9 0-32.1-13.6-32.1-34.9 0-21.1 12.3-35.9 31.8-35.9 9 .2 15.9 2.8 22.2 8.2zm27.8 60.7h-17.9V592l17.9-2v95.3zm19.3-37.4l23.3 37.4h-20.4l-21.5-36.5 21.4-30.2h18.5l-21.3 29.3zm85.5 27.3L1475 687c-7.6-.8-12.6-3.1-15.4-9.7-4.8 7.2-12.1 9.9-20 9.9-13.3 0-21.7-8.6-21.7-20.6 0-14.6 11.1-22.5 30.7-22.5h7.7v-3.3c0-8.3-3.5-11-11.8-11-4.4 0-11 1.3-17.6 3.5l-4.2-12c8.3-3.3 17.1-4.9 24.7-4.9 18.5 0 26.6 8.2 26.6 23.3v26.9c0 5.6 1.6 7.5 4.8 8.6zm-22.5-8.1v-12.7h-5.8c-9.8 0-14.6 3.5-14.6 10.8 0 5.9 3 9.3 8.7 9.3 5.1 0 9.1-2.6 11.7-7.4zm95-44.8c-4.9 1.9-11.2 2.5-19.3 2.5 8.2 3.7 12.3 8.7 12.3 17.1 0 13-10.4 22.4-27.4 22.4-2.9 0-5.4-.3-7.8-.9-1.5 1-2.5 2.6-2.5 4.4 0 2.3 1.1 4.4 7.7 4.4h10.2c15.1 0 24.8 8.1 24.8 19.1 0 13.5-11.7 21.7-34 21.7-24.4 0-31.1-7.9-31.1-21.3h16c0 6.3 2.8 9.1 15.5 9.1 12.3 0 15.6-3.4 15.6-8.2 0-4.5-3.4-7.3-10.4-7.3h-9.8c-14 0-19.8-6-19.8-13.1 0-4.8 3-9.4 7.8-12.5-8.3-4.5-11.8-10.4-11.8-19 0-14.7 11.7-24.2 28.5-24.2 15.4.4 23.2-3.5 31.2-8.1l4.3 13.9zm-46.2 18.2c0 7.7 4.3 12.2 11.1 12.2 7.2 0 11-4.3 11-12.5 0-7.9-3.7-11.7-11.1-11.7-6.9 0-11 4.7-11 12zm110.1 16.9h-41.7c1.3 12.8 7.3 16.6 15.9 16.6 5.7 0 10.4-1.8 16.2-5.8l7.4 10.1c-6.5 5.3-14.9 9.1-25.3 9.1-21.4 0-32.6-14.1-32.6-35 0-20.1 10.8-35.8 30.3-35.8 18.9 0 30.1 12.6 30.1 33.9.1 2.2-.2 5-.3 6.9zm-17.4-12c0-10.1-3.4-16.6-12-16.6-7 0-11.3 4.7-12.3 17.4h24.3v-.8zM2436.2 1678c0 26.2-18.6 38.1-44.5 38.1h-12.9v38.6h-24v-113.1h35c28.7 0 46.4 11.8 46.4 36.4zm-24.9 0c0-13.2-7.8-19.1-21.9-19.1h-10.6v39.6h11c13.2 0 21.5-5.1 21.5-20.5zm128.7 19.7c0 45.6-27.8 57.1-55.6 57.1H2452v-113.1h29.6c30-.1 58.4 9.2 58.4 56zm-63.9-38.5v77.8h9.8c16.5 0 29.1-7.7 29.1-39.4 0-32.4-13.2-38.4-29.6-38.4h-9.3zm82.2-17.6h65.7l-2.6 17.5h-39.1v32h34v17.5h-34v46.1h-24v-113.1zM141.1 1745.5h-18.5v-87.1h18.5v87.1zm73.9-48.6v48.6h-17.9v-45.6c0-7.7-2.9-9.8-7.3-9.8-5.2 0-9.2 3.4-13 9.3v46.1h-17.9v-66.7h15.6l1.4 8.4c5.3-6.7 11.8-10.4 20.3-10.4 11.7-.1 18.8 7.5 18.8 20.1zm84.7 4.6c0 35.1-21.4 43.9-42.8 43.9H232v-87.1h22.8c23 .1 44.9 7.2 44.9 43.2zm-49.2-29.5v59.9h7.6c12.7 0 22.4-5.9 22.4-30.3 0-24.9-10.2-29.6-22.8-29.6h-7.2zm118.9 45.5h-41.7c1.3 12.8 7.3 16.6 15.9 16.6 5.7 0 10.4-1.8 16.2-5.8l7.4 10.1c-6.5 5.3-14.9 9.1-25.3 9.1-21.4 0-32.6-14.1-32.6-35 0-20.1 10.8-35.8 30.3-35.8 18.9 0 30.1 12.6 30.1 33.9.1 2.3-.2 5-.3 6.9zm-17.4-11.9c0-10.1-3.4-16.6-12-16.6-7 0-11.3 4.7-12.3 17.4H352v-.8zm77.2-20.8l-6.8 10.2c-5.4-3.4-10.8-5.3-16.6-5.3-5.9 0-9.2 2.4-9.2 6 0 3.9 2.3 5.7 14 9.1 13.3 3.7 20.9 9.2 20.9 21 0 13.8-13 21.7-28.8 21.7-11.6 0-20.9-3.9-27.2-9.7l8.8-9.8c5 3.9 11.2 6.5 17.9 6.5s11-2.8 11-7.3c0-5-2.4-6.7-14.7-10.1-13.5-3.8-19.8-10.4-19.8-20.5 0-11.3 10.3-19.9 26.4-19.9 9.6 0 17.8 3.1 24.1 8.1zm33.4-30c0 5.9-4.5 10.4-11 10.4-6.4 0-10.8-4.5-10.8-10.4s4.4-10.4 10.8-10.4 11 4.5 11 10.4zm-2 90.7h-17.9v-66.7h17.9v66.7zm77.1-63.1c-4.9 1.9-11.2 2.5-19.3 2.5 8.2 3.7 12.3 8.7 12.3 17.1 0 13-10.4 22.4-27.4 22.4-2.9 0-5.4-.3-7.8-.9-1.5 1-2.5 2.6-2.5 4.4 0 2.3 1.1 4.4 7.7 4.4h10.2c15.1 0 24.8 8.1 24.8 19.1 0 13.5-11.7 21.7-34 21.7-24.4 0-31.1-7.9-31.1-21.3h16c0 6.3 2.8 9.1 15.5 9.1 12.3 0 15.6-3.4 15.6-8.2 0-4.5-3.4-7.3-10.4-7.3h-9.8c-14 0-19.8-6-19.8-13.1 0-4.8 3-9.4 7.8-12.5-8.3-4.5-11.8-10.4-11.8-19 0-14.7 11.7-24.2 28.5-24.2 15.4.4 23.2-3.5 31.2-8.1l4.3 13.9zm-46.2 18.3c0 7.7 4.3 12.2 11.1 12.2 7.2 0 11-4.3 11-12.5 0-7.9-3.7-11.7-11.1-11.7-6.8 0-11 4.7-11 12zm110.8-3.8v48.6h-17.9v-45.6c0-7.7-2.9-9.8-7.3-9.8-5.2 0-9.2 3.4-13 9.3v46.1h-17.9v-66.7h15.6l1.4 8.4c5.3-6.7 11.8-10.4 20.3-10.4 11.7-.1 18.8 7.5 18.8 20.1z" class="st0"/></svg>