<svg xmlns="http://www.w3.org/2000/svg" id="Layer_1" viewBox="0 0 586.5 386.4" width="586.5" height="386.4"><style>.st0{fill:#2997ff}</style><path d="M176 48.7L168 0h56.6c10.3 12.9 10.8 16.2 26.9 16.2h95.2l-7.8 32.5h-16.5l3.8-16.2h-74.7c-18.9 0-25.7-5-34.8-16.2h-30l5.6 32.5-16.3-.1zM354.9 65l-16.2 97.5H176.2L159.9 65h51l18.8-24.4L261.4 65h16l-11.6-8.9 11.9-15.5L309.3 65h45.6zM336 81.2H178.9l11.3 65h134.6l11.2-65zm71.6 183.5l-8-48.7h56.6c10.3 12.9 10.8 16.2 26.9 16.2h95.2l-7.8 32.5H554l3.8-16.2h-74.7c-18.9 0-25.7-5-34.8-16.2h-30l5.6 32.5h-16.3v-.1zM586.5 281l-16.2 97.5H407.8L391.5 281h51l18.8-24.4L493 281h16l-11.6-8.9 11.9-15.5 31.6 24.4h45.6zm-18.9 16.2H410.5l11.3 65h134.6l11.2-65zm-303.5-49.8c26.3 0 16.7 37.9 16.7 37.9s37.9-10.4 37.9 15.5v73H217.6V247.4h46.5zm5.2-12.7h-64.4v151.7h126.5v-90.9c0-15.1-42.1-60.8-62.1-60.8zm27.5 83.3h-15.1v21.1h5.2v-8.4h8.5v-4.2h-8.5v-4h9.9V318zm-28.1 0h-9.2v21.1h9.2c3.1 0 5.5-1 7.3-3.1 3.2-3.8 3.4-11.7-.4-15.4-1.7-1.7-4-2.6-6.9-2.6zm-4 4.5h2.8c2.7 0 4.6 1 5.3 3.7.4 1.5.5 3.9-.1 5.4-.7 2-2.2 3-4.4 3h-3.6v-12.1zM249 318h-9.5v21.1h5.2v-7.4h4.4c3.5 0 6.1-1.6 7-4.4.5-1.6.5-3.4 0-5.1-1-2.6-3.5-4.2-7.1-4.2zm-4.3 4.2h3.2c1.4 0 2.7.2 3.3 1.3.4.9.4 1.9 0 2.8-.6 1.2-2 1.3-3.3 1.3h-3.2v-5.4zM64.5 234.7H0v151.7h126.4v-91c0-15.2-41.7-60.7-61.9-60.7zm49.3 139.1H12.6V247.4h46.8c25.9 0 16.4 37.9 16.4 37.9s37.9-10.7 37.9 15.8l.1 72.7zm255-260.8c1-1 1.6-2.4 1.6-3.9 0-.4 0-.7-.1-1.1s-.2-.7-.3-1c-.1-.3-.3-.6-.5-1-.2-.3-.4-.6-.7-.8-1.3-1.3-3.2-1.9-5-1.5-.3.1-.7.2-1 .3-.3.1-.6.3-.9.5s-.6.4-.8.7c-.2.2-.5.5-.7.8s-.4.6-.5 1c-.1.3-.2.7-.3 1-.1.4-.1.7-.1 1.1 0 1.4.6 2.9 1.6 3.9.3.3.5.5.8.7s.6.4.9.5.7.2 1 .3c.4.1.7.1 1.1.1 1.5 0 2.9-.5 3.9-1.6zm32.8-3.9c0-3 2.5-5.5 5.5-5.5s5.5 2.5 5.5 5.5-2.5 5.5-5.5 5.5c-3.1 0-5.5-2.4-5.5-5.5zm21.3 0c0-3 2.5-5.5 5.5-5.5s5.5 2.5 5.5 5.5-2.5 5.5-5.5 5.5c-3.1 0-5.5-2.4-5.5-5.5zm21.3 0c0-3 2.5-5.5 5.5-5.5s5.5 2.5 5.5 5.5-2.5 5.5-5.5 5.5c-3.1 0-5.5-2.4-5.5-5.5zm21.4 0c0-3 2.5-5.5 5.5-5.5s5.5 2.5 5.5 5.5-2.5 5.5-5.5 5.5c-3.1 0-5.5-2.4-5.5-5.5zm-85.1 0c0-3 2.5-5.5 5.5-5.5s5.5 2.5 5.5 5.5-2.5 5.5-5.5 5.5-5.5-2.4-5.5-5.5zM493 113c.2-.2.5-.5.7-.8s.4-.6.5-1c.1-.3.2-.7.3-1 .1-.4.1-.7.1-1.1 0-1.4-.6-2.9-1.6-3.9-.3-.2-.5-.5-.8-.7s-.6-.4-1-.5c-.3-.1-.7-.2-1-.3-1.8-.4-3.7.2-5 1.5-1 1-1.6 2.5-1.6 3.9 0 .4 0 .7.1 1.1s.2.7.3 1c.1.3.3.6.5 1 .2.3.4.6.7.8.2.3.5.5.8.7s.6.4 1 .5c.3.1.7.2 1 .3.4.1.7.1 1.1.1 1.5 0 2.9-.5 3.9-1.6zm-9.4 86.1c0-3 2.5-5.5 5.5-5.5s5.5 2.5 5.5 5.5-2.5 5.5-5.5 5.5-5.5-2.5-5.5-5.5zm0-22.5c0-3 2.5-5.5 5.5-5.5s5.5 2.5 5.5 5.5-2.5 5.5-5.5 5.5-5.5-2.5-5.5-5.5zm0-22.5c0-3 2.5-5.5 5.5-5.5s5.5 2.5 5.5 5.5-2.5 5.5-5.5 5.5-5.5-2.5-5.5-5.5zm0-22.5c0-3 2.5-5.5 5.5-5.5s5.5 2.5 5.5 5.5-2.5 5.5-5.5 5.5-5.5-2.4-5.5-5.5zm-224.7 67.5c0-3 2.5-5.5 5.5-5.5s5.5 2.5 5.5 5.5-2.5 5.5-5.5 5.5-5.5-2.5-5.5-5.5zm0-22.5c0-3 2.5-5.5 5.5-5.5s5.5 2.5 5.5 5.5-2.5 5.5-5.5 5.5-5.5-2.5-5.5-5.5zm9.4 48.8c.2-.2.5-.5.7-.8s.4-.6.5-.9c.1-.3.2-.7.3-1 .1-.4.1-.7.1-1.1 0-1.5-.6-2.9-1.6-3.9-1.3-1.3-3.2-1.9-5-1.5-.3.1-.7.2-1 .3s-.7.3-1 .5-.6.4-.8.7c-1 1-1.6 2.4-1.6 3.9 0 1.4.6 2.9 1.6 3.9s2.4 1.6 3.9 1.6c1.5-.1 2.9-.7 3.9-1.7zM133.5 113c.2-.3.5-.5.7-.8s.4-.6.5-1c.1-.3.2-.7.3-1s.1-.7.1-1.1 0-.7-.1-1.1-.2-.7-.3-1-.3-.6-.5-1c-.2-.3-.4-.6-.7-.8-1-1-2.4-1.6-3.9-1.6-1.4 0-2.9.6-3.9 1.6-.2.3-.5.5-.7.8s-.4.6-.5 1c-.1.3-.2.7-.3 1-.1.4-.1.7-.1 1.1s0 .7.1 1.1.2.7.3 1c.1.3.3.6.5 1 .2.3.4.6.7.8 1 1 2.4 1.6 3.9 1.6 1.4.1 2.9-.5 3.9-1.6zm-30.5-3.9c0-3 2.5-5.5 5.5-5.5s5.5 2.5 5.5 5.5-2.5 5.5-5.5 5.5c-3 .1-5.5-2.4-5.5-5.5zm-21.1 0c0-3 2.5-5.5 5.5-5.5s5.5 2.5 5.5 5.5-2.5 5.5-5.5 5.5c-3 .1-5.5-2.4-5.5-5.5zM70.3 113c1-1 1.6-2.4 1.6-3.9 0-.4 0-.7-.1-1.1s-.2-.7-.3-1c-.1-.3-.3-.6-.5-1-.2-.3-.4-.6-.7-.8-1.3-1.3-3.2-1.9-5-1.5-.4.1-.7.2-1 .3-.3.1-.7.3-1 .5s-.6.4-.8.7c-.3.2-.5.5-.7.8s-.4.6-.5 1-.2.7-.3 1c-.1.4-.1.7-.1 1.1s0 .7.1 1.1.2.7.3 1 .3.6.5 1c.2.3.4.6.7.8 1 1 2.4 1.6 3.9 1.6 1.4 0 2.8-.5 3.9-1.6zm-9.4 86.1c0-3 2.5-5.5 5.5-5.5s5.5 2.5 5.5 5.5-2.5 5.5-5.5 5.5c-3.1-.1-5.5-2.5-5.5-5.5zm0-22.5c0-3 2.5-5.5 5.5-5.5s5.5 2.5 5.5 5.5-2.5 5.5-5.5 5.5c-3.1 0-5.5-2.5-5.5-5.5zm0-22.5c0-3 2.5-5.5 5.5-5.5s5.5 2.5 5.5 5.5-2.5 5.5-5.5 5.5c-3.1 0-5.5-2.5-5.5-5.5zm0-22.5c0-3 2.5-5.5 5.5-5.5s5.5 2.5 5.5 5.5-2.5 5.5-5.5 5.5c-3.1 0-5.5-2.4-5.5-5.5zm9.4 93.8c1-1 1.6-2.4 1.6-3.9s-.6-2.9-1.6-3.9-2.4-1.6-3.9-1.6-2.9.6-3.9 1.6c-.3.3-.5.5-.7.8s-.4.6-.5 1-.2.7-.3 1-.1.7-.1 1.1c0 1.4.6 2.9 1.6 3.9s2.4 1.6 3.9 1.6 2.8-.6 3.9-1.6zm380.3 113v-19h4.9v14.7h7.6v4.3h-12.5zm15.1 0v-19h4.9v19h-4.9zm21.2 0l-8-11.5v11.5H474v-19h5l7.7 10.9v-10.9h4.9v19h-4.7zm19.3 0l-5-7.1-1.3 1.6v5.5H495v-19h4.9v7.8l5.8-7.8h6l-7.4 8.9 7.8 10.1h-5.9zm8.7-6.4c1.4 1.4 3.5 2.5 6.1 2.5 1.7 0 2.7-.7 2.7-1.6 0-1.1-1.2-1.5-3.2-1.9-3.1-.6-7.5-1.4-7.5-5.9 0-3.2 2.7-5.9 7.6-5.9 3 0 5.7.9 7.7 2.6l-2.7 3.5c-1.6-1.3-3.7-2-5.3-2-1.6 0-2.2.7-2.2 1.5 0 1 1.2 1.3 3.3 1.7 3.1.7 7.5 1.6 7.5 5.9 0 3.8-2.8 6.3-7.9 6.3-3.8 0-6.5-1.2-8.4-3l2.3-3.7zm-495.2 3.1v-13H23v13h-3.3zm14.2 0l-5.5-7.9v7.9H25v-13h3.5l5.3 7.5V322h3.4v13h-3.3zm5.2 0v-13h5.5c4.1 0 7.1 2.5 7.1 6.5s-3 6.5-7 6.5h-5.6zm3.3-3h2.1c2.3 0 3.6-1.7 3.6-3.6 0-2-1.2-3.6-3.6-3.6h-2.1v7.2zm10.5 3v-13h9.6v2.8h-6.2v2.2h6.1v2.9h-6.1v2.3h6.2v2.8h-9.6zm12-4.4c.9.9 2.4 1.7 4.2 1.7 1.2 0 1.9-.5 1.9-1.1 0-.7-.8-1-2.2-1.3-2.2-.4-5.2-1-5.2-4.1 0-2.2 1.9-4.1 5.2-4.1 2.1 0 3.9.6 5.3 1.8l-1.8 2.4c-1.1-.9-2.5-1.3-3.7-1.3-1.1 0-1.5.5-1.5 1 0 .7.8.9 2.2 1.2 2.2.5 5.1 1.1 5.1 4 0 2.6-1.9 4.4-5.4 4.4-2.6 0-4.5-.8-5.8-2.1l1.7-2.5zm10.6 4.4v-13h3.4v13h-3.4zm11.7-13.3c2.9 0 4.6 1.4 5.6 3l-2.8 1.5c-.5-.9-1.5-1.5-2.8-1.5-2.1 0-3.6 1.6-3.6 3.8 0 2.1 1.5 3.8 3.6 3.8 1 0 1.9-.4 2.5-.8v-1.1h-3v-2.8H93v5.1c-1.4 1.5-3.3 2.5-5.8 2.5-3.9 0-7.1-2.6-7.1-6.8.1-4.1 3.2-6.7 7.1-6.7zm16.3 13.3l-5.5-7.9v7.9h-3.4v-13h3.5l5.3 7.5V322h3.4v13h-3.3z" class="st0"/></svg>