<svg xmlns="http://www.w3.org/2000/svg" viewBox="0 0 858.36 389.71" width="858.36" height="389.71"><defs><style>.b39a355b-49ff-4676-9060-47775b8ca8d5{fill:#231f20}</style></defs><g id="b461f78a-14f5-44e6-87a9-9d0b1053b30d"><path id="e05f4972-9767-43a9-8320-b674845cff9f" d="M639.37 225.43a2.37 2.37 0 1 0 2.39 2.39 2.38 2.38 0 0 0-2.39-2.39m-10.45-5.88h-7.35v-1.42c0-2.78 1.22-4.08 3.82-4.08s3.53 1.09 3.53 3.7zm-7.35.76h11.17a7.17 7.17 0 0 0-13-4.07 9.21 9.21 0 0 0-2 5.58 8.47 8.47 0 0 0 8.18 8.48c3.44 0 6-2.27 6.63-5.88h-.84a5.79 5.79 0 0 1-5.83 5 4.11 4.11 0 0 1-3.36-1.47c-.76-.92-1-2-1-4.45zm-9-18.43h-6.46v.76h3.24v26.48h-3.24v.76h9.65v-.76h-3.19zm-12.33 20.61c0 5.12-.89 7-3.32 7-2.73 0-4.79-3.23-4.79-7.52 0-4.74 2-7.89 5-7.89a2.74 2.74 0 0 1 2.69 1.64 9.18 9.18 0 0 1 .46 3.73zm-8.24-8.85h-6v.75h2.81v25.94H586v.75h9.4v-.75H592v-13.89c1.46 2.85 2.77 3.86 5.16 3.86 3.82 0 6.92-4 6.92-8.86 0-4.66-3-8.22-6.83-8.22-2.4 0-4 1.13-5.25 3.81zm-20.95 7.09c.09-3.61.13-3.95.46-4.62a4 4 0 0 1 3.78-2.06 4.18 4.18 0 0 1 3.7 1.77c.42.71.63 2.3.63 4.91v2.05a14.93 14.93 0 0 1-.5 4.62 4 4 0 0 1-3.83 2.06 4.16 4.16 0 0 1-3.65-1.76c-.46-.76-.46-1-.59-4.92zm4.29-7.51a8.55 8.55 0 1 0 8.18 8.64c0-4.87-3.56-8.64-8.18-8.64m-15.16 6.33h-7.34v-1.42c0-2.78 1.21-4.08 3.82-4.08s3.52 1.09 3.52 3.7zm-7.34.76H564a7.17 7.17 0 0 0-13-4.07 9.28 9.28 0 0 0-2 5.58 8.47 8.47 0 0 0 8.18 8.48c3.44 0 6-2.27 6.63-5.88H563a5.78 5.78 0 0 1-5.83 5 4.11 4.11 0 0 1-3.36-1.47c-.75-.92-1-2-1-4.45zm-11 2.18c0 5.12-.88 7-3.31 7-2.73 0-4.79-3.23-4.79-7.52 0-4.74 2-7.89 4.95-7.89a2.72 2.72 0 0 1 2.69 1.64 9 9 0 0 1 .46 3.73zm-8.19-8.85h-6v.75h2.81v25.94h-2.81v.75H537v-.75h-3.36v-13.89c1.48 2.85 2.78 3.86 5.17 3.86 3.82 0 6.92-4 6.92-8.86 0-4.66-3-8.22-6.84-8.22-2.39 0-4 1.13-5.25 3.81zm-32.31 6.46a14.92 14.92 0 0 1 .42-4.12 2.69 2.69 0 0 1 2.77-1.93c3 0 5 3 5 7.77 0 4.58-1.93 7.64-4.83 7.64a2.9 2.9 0 0 1-2.81-1.89c-.38-.92-.5-2.1-.5-4.62zm8.27 9.78h6v-.76h-2.81v-27.24h-6.59v.76h3.36V217c-1.38-2.73-2.86-3.77-5.21-3.77-4 0-7 3.56-7 8.51s3 8.57 7.09 8.57c2.35 0 3.7-1.05 5.08-4zm-28.21-16.24h-6v.75h2.81v14.73h-2.81v.76h8.81v-.76h-2.77v-6.72c0-3 .21-4.65.72-5.66a4.74 4.74 0 0 1 4.11-2.56c1.89 0 2.77 1.09 2.77 3.44v11.5h-2.81v.76H495v-.76h-2.77v-10.37a5.36 5.36 0 0 0-1.13-3.86 5.6 5.6 0 0 0-4.24-1.67c-2.23 0-3.74.79-5.46 2.81zm-13.05-11.21a2.25 2.25 0 0 0 0 4.49 2.25 2.25 0 1 0 0-4.49m1.93 11.21h-6v.75H467v14.73h-2.81v.76H473v-.76h-2.77zm-18.22 5.74l5.38-5h2.81v-.75h-8.19v.75H456l-7.09 6.5 6.25 8.23h-2.27v.76h8.9v-.76h-2zm-4-17.5h-6v.76h2.81v26.48H442v.76h8.81v-.76h-2.77zm-22.25 12.51h4v-.75h-4v-7.14c0-2.18.13-2.77.63-3.49a2.35 2.35 0 0 1 1.89-.88 1.8 1.8 0 0 1 1.47.51 2 2 0 0 0-.84 1.72 1.57 1.57 0 0 0 1.43 1.76c.79 0 1.42-.8 1.42-1.85 0-1.63-1.42-2.81-3.4-2.81a5.32 5.32 0 0 0-4.11 2.1c-1.3 1.64-1.72 3.15-1.72 6.43v3.65h-3.65v.75h3.65v14.73h-3.65v.76h10.57v-.76h-3.69zm-21.7 6.34c.09-3.61.13-3.95.46-4.62a4 4 0 0 1 3.78-2.06 4.19 4.19 0 0 1 3.7 1.77c.42.71.63 2.3.63 4.91v2.05a14.52 14.52 0 0 1-.51 4.62 3.94 3.94 0 0 1-3.82 2.06 4.16 4.16 0 0 1-3.65-1.76c-.46-.76-.46-1-.59-4.92zm4.29-7.51a8.55 8.55 0 1 0 8.18 8.64 8.34 8.34 0 0 0-8.18-8.64m-22.71.08h-.55l-.59 1.51a5.94 5.94 0 0 0-4.06-1.59 4.84 4.84 0 0 0-5 5 4.5 4.5 0 0 0 3.9 4.74l3.23.67c1.81.34 2.69 1.18 2.69 2.53a3.59 3.59 0 0 1-3.82 3.27 5 5 0 0 1-4.33-2.56 8.5 8.5 0 0 1-1.13-3.24h-.71v6.21h.42l1-1.6c1.76 1.55 2.89 2 4.61 2a5.2 5.2 0 0 0 5.29-5.54c0-3-1.46-4.62-4.74-5.29l-1.89-.38c-2.4-.46-3.24-1.05-3.24-2.1 0-1.64 1.6-2.94 3.58-2.94a4.61 4.61 0 0 1 4.7 4.07h.71zm-36.77.34h-6v.75h2.81v14.73h-2.81v.76h8.81v-.76h-2.77v-7.18c0-2.89.12-4.15.5-5.16a4.17 4.17 0 0 1 3.78-2.6c1.81 0 2.82 1.09 2.82 3.15v11.79h-2.82v.76H362v-.76h-2.78v-7.89c0-3 .13-3.95.76-5a4.14 4.14 0 0 1 3.57-2.06c1.85 0 2.73 1 2.73 3.15v11.79h-2.78v.76h8.81v-.76h-2.77v-11.28c0-3.27-1.38-4.61-4.7-4.61a7.46 7.46 0 0 0-5.63 2.26c-.88-1.64-2.14-2.26-4.53-2.26a7.7 7.7 0 0 0-5.75 2.26zm-11.12-11.76h-6.46v.76h3.23v26.48h-3.23v.76H341v-.76h-3.19zm-13.18 21a10.58 10.58 0 0 1-.37 3.27 3.83 3.83 0 0 1-3.41 2.48 2.65 2.65 0 0 1-2.73-2.9 3.59 3.59 0 0 1 1.89-3.23c1.22-.71 2.27-.92 4.62-1zm0-2a16.06 16.06 0 0 0-5.92.88c-2.43 1-3.77 2.64-3.77 4.7 0 2.35 1.72 3.86 4.4 3.86 2.39 0 4-1.05 5.29-3.4.34 2.43 1.22 3.4 3.15 3.4 1 0 1.47-.17 2.85-1.18l-.38-.5a1.78 1.78 0 0 1-1.25.63c-.84 0-1.14-.46-1.14-1.76V218c0-1.76-.38-2.77-1.3-3.53a7 7 0 0 0-4.41-1.29c-3.27 0-6.12 1.88-6.12 4 0 1.09.63 1.85 1.51 1.85a1.55 1.55 0 0 0 1.51-1.68 2 2 0 0 0-.55-1.34 1.2 1.2 0 0 1-.29-.59c0-.67 1.89-1.55 3.44-1.55 2.06 0 3 .88 3 2.72zm-36.85-.76a14.92 14.92 0 0 1 .42-4.12 2.69 2.69 0 0 1 2.77-1.93c3 0 5 3 5 7.77 0 4.58-1.94 7.64-4.84 7.64a2.9 2.9 0 0 1-2.81-1.89 12.61 12.61 0 0 1-.5-4.62zm8.27 9.78h6v-.76h-2.81v-27.26h-6.59v.76H296V217c-1.38-2.73-2.86-3.77-5.21-3.77-4 0-7 3.56-7 8.51s3 8.57 7.09 8.57c2.35 0 3.7-1.05 5.08-4zm-19.14-10.33h-7.35v-1.42c0-2.78 1.22-4.08 3.82-4.08s3.53 1.09 3.53 3.7zm-7.35.76h11.17a7.17 7.17 0 0 0-13-4.07 9.21 9.21 0 0 0-2 5.58 8.47 8.47 0 0 0 8.18 8.48c3.44 0 6-2.27 6.63-5.88h-.84a5.79 5.79 0 0 1-5.83 5 4.11 4.11 0 0 1-3.36-1.47c-.76-.92-1-2-1-4.45zm-17.79 12.5h6.51c2.34 0 2.34 0 2.89.21a1.58 1.58 0 0 1 1 1.68c0 3.2-3.28 5.84-7.31 5.84-3.27 0-5.46-1.8-5.46-4.45a4.19 4.19 0 0 1 1.56-3.28zm.12-15c0-2.77.76-3.74 3-3.74s2.9.72 2.9 3.53v2.73c0 3-.63 3.82-2.94 3.82s-2.94-.8-2.94-3.82zm-.37 11.33c-1.94 0-2.9-.5-2.9-1.51s1.09-2.18 3-3.31a8 8 0 0 0 3.24.67c3.61 0 6.37-2.48 6.37-5.75a5.64 5.64 0 0 0-1.21-3.74c.5-.5.88-.76 1.21-.76a.53.53 0 0 1 .59.51c.17 1.05.46 1.42 1.22 1.42s1.26-.58 1.26-1.55a1.65 1.65 0 0 0-1.85-1.63c-1 0-1.64.37-2.94 1.59a6.05 6.05 0 0 0-4.66-1.84c-3.73 0-6.41 2.43-6.41 5.83a5.58 5.58 0 0 0 2.47 4.79 5.26 5.26 0 0 1-.55.42 12.44 12.44 0 0 0-1.38 1 5.1 5.1 0 0 0-1.89 3.78c0 1.93 1 3.14 3.19 3.73-2.35 1-3.19 2-3.19 3.7 0 2.85 3.19 4.91 7.55 4.91 5.09 0 8.61-3.19 8.61-7.81 0-1.85-.55-3.15-1.55-3.82-.8-.5-1.64-.63-3.65-.63zM233 232.81h6.51c2.34 0 2.34 0 2.89.21a1.58 1.58 0 0 1 1 1.68c0 3.2-3.28 5.84-7.31 5.84-3.27 0-5.46-1.8-5.46-4.45a4.19 4.19 0 0 1 1.56-3.28zm.12-15c0-2.77.76-3.74 3-3.74s2.9.72 2.9 3.53v2.73c0 3-.63 3.82-2.94 3.82s-2.94-.8-2.94-3.82zm-.38 11.33c-1.93 0-2.89-.5-2.89-1.51s1.09-2.18 3-3.31a8 8 0 0 0 3.24.67c3.61 0 6.37-2.48 6.37-5.75a5.59 5.59 0 0 0-1.22-3.74c.51-.5.89-.76 1.22-.76a.53.53 0 0 1 .59.51c.17 1.05.46 1.42 1.22 1.42s1.26-.58 1.26-1.55a1.65 1.65 0 0 0-1.85-1.63c-1 0-1.64.37-2.94 1.59a6.05 6.05 0 0 0-4.66-1.84c-3.73 0-6.42 2.43-6.42 5.83a5.59 5.59 0 0 0 2.48 4.79c-.26.21-.26.21-.55.42a12.44 12.44 0 0 0-1.38 1 5.1 5.1 0 0 0-1.89 3.78c0 1.93 1 3.14 3.19 3.73-2.35 1-3.19 2-3.19 3.7 0 2.85 3.19 4.91 7.55 4.91 5.08 0 8.61-3.19 8.61-7.81 0-1.85-.55-3.15-1.55-3.82-.8-.5-1.64-.63-3.65-.63zm-10.87-9.57h-7.34v-1.42c0-2.78 1.22-4.08 3.82-4.08s3.52 1.09 3.52 3.7zm-7.34.76h11.17a7.16 7.16 0 0 0-13-4.07 9.22 9.22 0 0 0-2 5.58 8.48 8.48 0 0 0 8.18 8.48c3.45 0 6-2.27 6.63-5.88h-.83a5.8 5.8 0 0 1-5.84 5 4.12 4.12 0 0 1-3.34-1.44c-.75-.92-1-2-1-4.45zM203.46 223a19.35 19.35 0 0 1-.25 3.87 3 3 0 0 1-3.11 2.56 4.6 4.6 0 0 1-3.74-2.1 11 11 0 0 1-1.3-5.92c0-4.45 1.93-7.39 4.92-7.39a3.18 3.18 0 0 1 2.94 1.6c.42.79.54 1.72.54 4zm-8.31-21.15h-6v.76h2.81v26.48h-2.81v.76h6V227c1.47 2.44 2.77 3.32 5 3.32 4 0 7.17-3.78 7.17-8.69s-3-8.39-7.09-8.39c-2.31 0-3.78 1-5.12 3.52zm-32.32 18.25a14.92 14.92 0 0 1 .42-4.12 2.69 2.69 0 0 1 2.77-1.93c3 0 5 3 5 7.77 0 4.58-1.94 7.64-4.83 7.64a2.91 2.91 0 0 1-2.82-1.89c-.38-.92-.5-2.1-.5-4.62zm8.27 9.78h6v-.76h-2.81v-27.24h-6.59v.76h3.36V217c-1.38-2.73-2.85-3.77-5.2-3.77-4 0-7 3.56-7 8.51s3 8.57 7.09 8.57c2.35 0 3.7-1.05 5.08-4zm-28.21-16.24h-6v.75h2.81v14.73h-2.81v.76h8.82v-.76h-2.78v-6.72c0-3 .21-4.65.72-5.66a4.74 4.74 0 0 1 4.11-2.56c1.89 0 2.77 1.09 2.77 3.44v11.5h-2.81v.76h8.81v-.76h-2.77v-10.37a5.31 5.31 0 0 0-1.13-3.86 5.58 5.58 0 0 0-4.24-1.67c-2.22 0-3.74.79-5.46 2.81zm-14 9.23a10.52 10.52 0 0 1-.38 3.27 3.82 3.82 0 0 1-3.4 2.48 2.65 2.65 0 0 1-2.73-2.9 3.59 3.59 0 0 1 1.89-3.23c1.22-.71 2.27-.92 4.62-1zm0-2a16.06 16.06 0 0 0-5.92.88c-2.43 1-3.78 2.64-3.78 4.7 0 2.35 1.72 3.86 4.41 3.86 2.39 0 4-1.05 5.29-3.4.34 2.43 1.22 3.4 3.14 3.4 1 0 1.47-.17 2.86-1.18l-.38-.5a1.8 1.8 0 0 1-1.26.63c-.84 0-1.13-.46-1.13-1.76V218c0-1.76-.38-2.77-1.3-3.53a7.05 7.05 0 0 0-4.41-1.29c-3.27 0-6.12 1.88-6.12 4 0 1.09.62 1.85 1.5 1.85a1.55 1.55 0 0 0 1.51-1.68 2 2 0 0 0-.54-1.34c-.21-.3-.3-.46-.3-.59 0-.67 1.9-1.55 3.45-1.55 2.06 0 3 .88 3 2.72zm-27.16-6.47h4.45v-.75h-4.45V207h-.42c-.79 2.82-3.39 6-5.53 6.8v.63h2.73v11c0 1.93.16 2.69.79 3.48a4.25 4.25 0 0 0 3.44 1.43 3.9 3.9 0 0 0 4.32-3.53h-.84c-.33 1.6-1 2.27-2.39 2.27-1.51 0-2.1-.8-2.1-2.73zm-10.37-.75h-6v.75h2.82v7.09a14.68 14.68 0 0 1-.8 5.5 4.56 4.56 0 0 1-4.16 2.35c-2.22 0-2.9-1.05-2.9-4.36v-11.34h-6v.75h2.81v10c0 2.14.21 3.23.88 4.11a5.74 5.74 0 0 0 4.65 1.81 5.93 5.93 0 0 0 5.55-2.94v2.52h6v-.76h-2.82zm-32 7.09c.09-3.61.13-3.95.46-4.62a4 4 0 0 1 3.78-2.06 4.18 4.18 0 0 1 3.7 1.77c.42.71.63 2.3.63 4.91v2.05a14.52 14.52 0 0 1-.51 4.62 3.94 3.94 0 0 1-3.82 2.06 4.15 4.15 0 0 1-3.6-1.77c-.46-.76-.46-1-.59-4.92zm4.28-7.51a8.55 8.55 0 1 0 8.19 8.64 8.34 8.34 0 0 0-8.19-8.64M48.21 223a19.35 19.35 0 0 1-.21 3.9 3 3 0 0 1-3.11 2.56 4.6 4.6 0 0 1-3.74-2.1 11 11 0 0 1-1.3-5.92c0-4.45 1.93-7.39 4.91-7.39a3.19 3.19 0 0 1 3 1.6c.42.79.54 1.72.54 4zm-8.31-21.12h-6v.76h2.81v26.48h-2.85v.76h6V227c1.47 2.44 2.77 3.32 5 3.32 4 0 7.18-3.78 7.18-8.69s-3-8.39-7.09-8.39c-2.31 0-3.78 1-5.12 3.52zm-13.18 21a10.22 10.22 0 0 1-.38 3.27 3.81 3.81 0 0 1-3.4 2.48 2.65 2.65 0 0 1-2.73-2.9 3.59 3.59 0 0 1 1.89-3.23c1.22-.71 2.27-.92 4.62-1zm0-2a16.06 16.06 0 0 0-5.92.88c-2.43 1-3.77 2.64-3.77 4.7 0 2.35 1.71 3.86 4.4 3.86 2.39 0 4-1.05 5.29-3.4.34 2.43 1.22 3.4 3.15 3.4 1 0 1.47-.17 2.85-1.18l-.38-.5a1.8 1.8 0 0 1-1.26.63c-.84 0-1.13-.46-1.13-1.76V218c0-1.76-.38-2.77-1.3-3.53a7 7 0 0 0-4.41-1.29c-3.27 0-6.12 1.88-6.12 4 0 1.09.62 1.85 1.5 1.85a1.55 1.55 0 0 0 1.52-1.68 2 2 0 0 0-.55-1.34 1.2 1.2 0 0 1-.29-.59c0-.67 1.89-1.55 3.44-1.55 2.06 0 3 .88 3 2.72zm816.05-51.15a15.35 15.35 0 0 1 .41-4.11 2.64 2.64 0 0 1 2.71-1.93c3 0 4.84 3 4.84 7.76 0 4.58-1.89 7.64-4.72 7.64a2.83 2.83 0 0 1-2.74-1.88 12.64 12.64 0 0 1-.5-4.62zm8.08 9.78h5.9v-.75H854v-27.24h-6.44v.75h3.28v14.35c-1.35-2.72-2.78-3.77-5.08-3.77-3.94 0-6.8 3.56-6.8 8.52s2.94 8.56 6.92 8.56c2.3 0 3.61-1.05 5-3.94zm-18.45-10.32h-7.17v-1.43c0-2.77 1.19-4.07 3.73-4.07s3.44 1.09 3.44 3.69zm-7.17.75h10.9a7 7 0 0 0-7-7.09 6.88 6.88 0 0 0-5.69 3 9.37 9.37 0 0 0-1.92 5.58c0 4.58 3.68 8.48 8 8.48 3.36 0 5.86-2.26 6.48-5.88h-.82a5.7 5.7 0 0 1-5.7 5 4 4 0 0 1-3.28-1.47c-.73-.92-.94-2-.94-4.45zm-8.57-18.42h-6.31v.75h3.16v26.49h-3.16v.75h9.43v-.75h-3.12zm-11.31 17.67h-7.18v-1.43c0-2.77 1.19-4.07 3.73-4.07s3.45 1.09 3.45 3.69zm-7.18.75h10.91a7 7 0 0 0-7-7.09 6.9 6.9 0 0 0-5.7 3 9.37 9.37 0 0 0-1.92 5.58c0 4.58 3.68 8.48 8 8.48 3.36 0 5.86-2.26 6.47-5.88h-.82a5.69 5.69 0 0 1-5.69 5 4 4 0 0 1-3.29-1.47c-.73-.92-.94-2-.94-4.45zm-13.6 10h1.27L792 164h1.84v-.75h-6v.75h3.24l-4.67 12-4.59-12h3.24v-.75h-8.94v.75h2.09zm-13.94-7.43a10.7 10.7 0 0 1-.37 3.28 3.73 3.73 0 0 1-3.32 2.47 2.62 2.62 0 0 1-2.67-2.89 3.59 3.59 0 0 1 1.85-3.23c1.19-.72 2.21-.93 4.51-1zm0-2a15.32 15.32 0 0 0-5.78.88c-2.38 1-3.69 2.65-3.69 4.7 0 2.35 1.68 3.86 4.3 3.86 2.34 0 3.9-1.05 5.17-3.4.33 2.44 1.19 3.4 3.07 3.4 1 0 1.43-.17 2.79-1.17l-.37-.51a1.7 1.7 0 0 1-1.23.63c-.82 0-1.11-.46-1.11-1.76v-9.45c0-1.76-.37-2.77-1.27-3.52a6.76 6.76 0 0 0-4.3-1.3c-3.2 0-6 1.89-6 4 0 1.09.61 1.84 1.47 1.84a1.53 1.53 0 0 0 1.47-1.68 2 2 0 0 0-.53-1.34 1.16 1.16 0 0 1-.29-.59c0-.67 1.85-1.55 3.37-1.55 2 0 2.91.88 2.91 2.73zm-17.88-7.22h-5.89v.71h2.74v14.74h-2.74v.75h8.6v-.75h-2.71v-4.87c0-3.45.13-4.66.82-6.59s1.44-2.9 2.26-2.9c.37 0 .53.21.57.67 0 1.43.49 2.1 1.43 2.1s1.6-.84 1.6-2.1a2.14 2.14 0 0 0-2.29-2.22 3.73 3.73 0 0 0-3.16 1.84 14.49 14.49 0 0 0-1.23 2.77zm-12.83.75h4.35v-.75h-4.35v-6.69h-.41c-.77 2.81-3.31 6-5.4 6.8v.6h2.66v11c0 1.93.17 2.69.78 3.49a4.1 4.1 0 0 0 3.36 1.42 3.83 3.83 0 0 0 4.22-3.52h-.82c-.33 1.59-1 2.26-2.34 2.26-1.47 0-2.05-.79-2.05-2.72zm-20.51 5.17h-7.17v-1.43c0-2.77 1.18-4.07 3.72-4.07s3.45 1.09 3.45 3.69zm-7.17.75h10.9a7 7 0 0 0-7-7.09 6.87 6.87 0 0 0-5.69 3 9.38 9.38 0 0 0-1.93 5.58c0 4.58 3.69 8.48 8 8.48 3.36 0 5.86-2.26 6.47-5.88h-.82a5.69 5.69 0 0 1-5.69 5 3.94 3.94 0 0 1-3.28-1.47c-.74-.92-.94-2-.94-4.45zm-19.89-18.42h-5.89v.75h2.74v26.49h-2.74v.75h8.6v-.75h-2.71v-6.68a14.7 14.7 0 0 1 .7-5.33 4.87 4.87 0 0 1 4.39-2.94c2.17 0 3 1.05 3 3.7v11.25h-2.75v.75h8.6v-.75h-2.7v-11.27c0-3.15-1.64-4.66-5.12-4.66-2.63 0-4.19.75-6.16 2.93zm-21.24 34.37c2.46-2.23 3.76-4.58 3.76-6.88s-1.46-4.2-3.39-4.2a2.47 2.47 0 0 0-2.5 2.69c0 1.38.74 2.3 1.88 2.3a1.83 1.83 0 0 0 1.73-2 3 3 0 0 0-.05-.63 2.46 2.46 0 0 1 1.4 2.48c0 1.72-1 3.31-3.32 5.75zM655 182.45h6.36c2.29 0 2.29 0 2.83.21s.94.8.94 1.68c0 3.19-3.19 5.83-7.13 5.83-3.2 0-5.33-1.8-5.33-4.45a4.23 4.23 0 0 1 1.51-3.27zm.13-15c0-2.77.74-3.73 2.91-3.73s2.83.71 2.83 3.52v2.73c0 3-.61 3.82-2.87 3.82s-2.87-.79-2.87-3.82zm-.37 11.34c-1.89 0-2.83-.51-2.83-1.52s1.07-2.18 2.95-3.31a7.67 7.67 0 0 0 3.16.67c3.53 0 6.23-2.47 6.23-5.75a5.74 5.74 0 0 0-1.19-3.74c.49-.5.86-.75 1.19-.75a.52.52 0 0 1 .57.5c.17 1 .45 1.43 1.19 1.43s1.23-.59 1.23-1.55a1.63 1.63 0 0 0-1.8-1.64c-.94 0-1.6.38-2.87 1.59a5.88 5.88 0 0 0-4.55-1.84c-3.65 0-6.27 2.43-6.27 5.83a5.61 5.61 0 0 0 2.42 4.79 6.35 6.35 0 0 1-.54.42 11.51 11.51 0 0 0-1.35 1 5.11 5.11 0 0 0-1.84 3.77c0 1.93 1 3.15 3.11 3.74-2.29 1-3.11 2-3.11 3.69 0 2.86 3.11 4.91 7.37 4.91 5 0 8.41-3.19 8.41-7.81 0-1.84-.53-3.14-1.51-3.82-.79-.5-1.61-.62-3.57-.62zm-19.88-15.49H629v.7h2.74v14.74H629v.75h8.6v-.75h-2.7V172c0-3 .2-4.66.69-5.67a4.64 4.64 0 0 1 4-2.56c1.84 0 2.7 1.09 2.7 3.44v11.51h-2.75v.75h8.61v-.75h-2.71v-10.33a5.43 5.43 0 0 0-1.1-3.86 5.36 5.36 0 0 0-4.14-1.68c-2.17 0-3.65.79-5.33 2.81zm-12.5-11.21a2.25 2.25 0 0 0 0 4.49 2.25 2.25 0 0 0 0-4.49m1.88 11.21h-5.9v.7h2.75v14.74h-2.75v.75H627v-.75h-2.71zm-21.93-11.75h-5.9v.75h2.75v26.49h-2.75v.75h8.61v-.75h-2.71v-6.68a14.7 14.7 0 0 1 .7-5.33 4.84 4.84 0 0 1 4.38-2.94c2.18 0 3 1.05 3 3.7v11.25h-2.75v.75h8.61v-.75h-2.71v-11.28c0-3.15-1.64-4.66-5.12-4.66-2.62 0-4.18.75-6.15 2.93zM589.9 164h4.34v-.75h-4.34v-6.65h-.41c-.78 2.81-3.32 6-5.41 6.8v.6h2.66v11c0 1.93.17 2.69.78 3.49a4.12 4.12 0 0 0 3.36 1.42 3.85 3.85 0 0 0 4.23-3.52h-.83c-.32 1.59-1 2.26-2.33 2.26-1.48 0-2.05-.79-2.05-2.72zm-19.76 6.34c.08-3.61.12-4 .45-4.62a3.83 3.83 0 0 1 3.69-2.05 4.07 4.07 0 0 1 3.61 1.76c.41.71.62 2.31.62 4.91v2.06a15 15 0 0 1-.51 4.6 3.82 3.82 0 0 1-3.73 2.05 4 4 0 0 1-3.57-1.76c-.45-.75-.45-1-.57-4.91zm4.18-7.51a8.56 8.56 0 1 0 8 8.64c0-4.87-3.48-8.64-8-8.64m-23.41.42H545v.75h2.74v14.74H545v.75h8.6v-.75h-2.71V172c0-3 .21-4.66.7-5.67a4.64 4.64 0 0 1 4-2.56c1.85 0 2.71 1.09 2.71 3.44v11.51h-2.75v.75h8.6v-.75h-2.7v-10.33a4.85 4.85 0 0 0-5.24-5.54c-2.18 0-3.65.79-5.34 2.81zm-30.14 0h-5.9v.75h2.75v14.74h-2.75v.75h8.6v-.75h-2.7V172c0-3 .2-4.66.69-5.67a4.64 4.64 0 0 1 4-2.56c1.84 0 2.7 1.09 2.7 3.44v11.51h-2.75v.75h8.61v-.75h-2.71v-10.33a5.43 5.43 0 0 0-1.1-3.86 5.36 5.36 0 0 0-4.14-1.68c-2.18 0-3.65.79-5.33 2.81zm-14.88 0H500v.75h2.75v14.74H500v.75h8.6v-.75h-2.7v-4.87c0-3.45.12-4.66.82-6.59s1.43-2.9 2.25-2.9c.37 0 .53.21.58.67 0 1.43.49 2.1 1.43 2.1s1.6-.84 1.6-2.1a2.14 2.14 0 0 0-2.3-2.22 3.7 3.7 0 0 0-3.15 1.84 13.88 13.88 0 0 0-1.23 2.77zm-13.4 9.23a10.7 10.7 0 0 1-.37 3.28 3.73 3.73 0 0 1-3.33 2.47 2.62 2.62 0 0 1-2.66-2.89 3.6 3.6 0 0 1 1.84-3.23c1.19-.72 2.22-.93 4.52-1zm0-2a15.38 15.38 0 0 0-5.79.88c-2.37 1-3.68 2.65-3.68 4.7 0 2.35 1.68 3.86 4.3 3.86 2.34 0 3.9-1.05 5.17-3.4.33 2.44 1.18 3.4 3.07 3.4 1 0 1.43-.17 2.78-1.17l-.37-.51a1.7 1.7 0 0 1-1.22.63c-.82 0-1.11-.46-1.11-1.76v-9.45c0-1.76-.37-2.77-1.27-3.52a6.76 6.76 0 0 0-4.3-1.3c-3.2 0-6 1.89-6 4 0 1.09.62 1.84 1.47 1.84A1.53 1.53 0 0 0 487 167a2 2 0 0 0-.53-1.34 1.16 1.16 0 0 1-.29-.59c0-.67 1.85-1.55 3.37-1.55 2 0 2.91.88 2.91 2.73zm-15.91-1.3h-7.18v-1.43c0-2.77 1.19-4.07 3.73-4.07s3.45 1.09 3.45 3.69zm-7.18.75h10.91a7 7 0 0 0-7-7.09 6.9 6.9 0 0 0-5.7 3 9.37 9.37 0 0 0-1.92 5.58c0 4.58 3.69 8.48 8 8.48 3.36 0 5.86-2.26 6.47-5.88h-.82a5.69 5.69 0 0 1-5.69 5 3.93 3.93 0 0 1-3.28-1.47c-.74-.92-1-2-1-4.45zm-28.75-.21a15.35 15.35 0 0 1 .41-4.11 2.64 2.64 0 0 1 2.71-1.93c3 0 4.84 3 4.84 7.76 0 4.58-1.89 7.64-4.72 7.64a2.85 2.85 0 0 1-2.75-1.88 12.71 12.71 0 0 1-.49-4.62zm8.08 9.78h5.9v-.75h-2.75v-27.23h-6.43v.75h3.28v14.35c-1.35-2.72-2.79-3.77-5.09-3.77-3.93 0-6.8 3.56-6.8 8.52s3 8.56 6.93 8.56c2.3 0 3.61-1.05 5-3.94zm-16.73-28h-6.3v.75h3.15v26.49h-3.15v.75h9.42v-.75H432zm-9.88 11.75h-5.9v.75H419v7.1a15 15 0 0 1-.78 5.5 4.44 4.44 0 0 1-4.06 2.35c-2.17 0-2.83-1.05-2.83-4.37v-11.31h-5.9v.73h2.75v10c0 2.14.2 3.23.86 4.11a5.57 5.57 0 0 0 4.55 1.8A5.72 5.72 0 0 0 419 177v2.51h5.86v-.75h-2.71zm-31 7.09c.09-3.61.12-4 .45-4.62a3.85 3.85 0 0 1 3.7-2.05 4 4 0 0 1 3.6 1.76c.41.71.62 2.31.62 4.91v2.06a15.4 15.4 0 0 1-.49 4.6 3.84 3.84 0 0 1-3.73 2.05 4 4 0 0 1-3.57-1.76c-.46-.75-.46-1-.58-4.91zm4.19-7.51a8.56 8.56 0 1 0 8 8.64c0-4.87-3.48-8.64-8-8.64m-11 11.38a7.07 7.07 0 0 1-1.36 2.81 5.83 5.83 0 0 1-4.42 2.05 3.69 3.69 0 0 1-3.32-1.72c-.54-.88-.74-2.18-.74-4.79v-2.64c0-4.53 1.27-6.3 4.47-6.3 1.63 0 3.2.55 3.2 1.14 0 .12-.05.21-.25.42a2.7 2.7 0 0 0-.7 1.84c0 1.18.66 2 1.6 2s1.64-.8 1.64-2c0-2.44-2.34-4.24-5.53-4.24a8.3 8.3 0 0 0-8.24 8.6c0 4.75 3.44 8.48 7.83 8.48a6.41 6.41 0 0 0 4.95-2.14 7.2 7.2 0 0 0 1.69-3.56zm-38.68-4.5a15.35 15.35 0 0 1 .41-4.11 2.65 2.65 0 0 1 2.71-1.93c3 0 4.84 3 4.84 7.76 0 4.58-1.88 7.64-4.72 7.64a2.83 2.83 0 0 1-2.74-1.88 12.64 12.64 0 0 1-.5-4.62zm8.08 9.78h5.9v-.75h-2.81v-27.22h-6.43v.75h3.28v14.35c-1.35-2.72-2.79-3.77-5.08-3.77-3.94 0-6.8 3.56-6.8 8.52s2.94 8.56 6.92 8.56c2.3 0 3.61-1.05 5-3.94zm-27.3-16.24h-5.9v.75h2.75v14.74h-2.75v.75h8.61v-.75h-2.71V172c0-3 .2-4.66.7-5.67a4.61 4.61 0 0 1 4-2.56c1.85 0 2.71 1.09 2.71 3.44v11.51H331v.75h8.6v-.75h-2.71v-10.33a4.84 4.84 0 0 0-5.24-5.54c-2.17 0-3.65.79-5.33 2.81zM313 172.5a10.7 10.7 0 0 1-.37 3.28 3.74 3.74 0 0 1-3.32 2.47 2.62 2.62 0 0 1-2.67-2.89 3.57 3.57 0 0 1 1.85-3.23c1.18-.72 2.21-.93 4.51-1zm0-2a15.38 15.38 0 0 0-5.79.88c-2.37 1-3.68 2.65-3.68 4.7 0 2.35 1.68 3.86 4.3 3.86 2.34 0 3.9-1.05 5.17-3.4.33 2.44 1.18 3.4 3.07 3.4 1 0 1.43-.17 2.78-1.17l-.36-.51a1.7 1.7 0 0 1-1.23.63c-.82 0-1.11-.46-1.11-1.76v-9.45c0-1.76-.37-2.77-1.27-3.52a6.76 6.76 0 0 0-4.3-1.3c-3.2 0-6 1.89-6 4 0 1.09.61 1.84 1.47 1.84a1.53 1.53 0 0 0 1.47-1.68 2 2 0 0 0-.53-1.34 1.16 1.16 0 0 1-.29-.59c0-.67 1.85-1.55 3.37-1.55 2 0 2.91.88 2.91 2.73zm-25-1.31h-7.17v-1.43c0-2.77 1.19-4.07 3.73-4.07s3.44 1.09 3.44 3.69zm-7.17.75h10.9a7 7 0 0 0-7-7.09 6.88 6.88 0 0 0-5.69 3 9.38 9.38 0 0 0-1.93 5.58c0 4.58 3.69 8.48 8 8.48 3.36 0 5.86-2.26 6.48-5.88h-.82a5.7 5.7 0 0 1-5.7 5 4 4 0 0 1-3.28-1.47c-.74-.92-.94-2-.94-4.45zm-19.8-.21a15.35 15.35 0 0 1 .41-4.11 2.63 2.63 0 0 1 2.71-1.93c3 0 4.84 3 4.84 7.76 0 4.58-1.89 7.64-4.72 7.64a2.85 2.85 0 0 1-2.75-1.88 12.71 12.71 0 0 1-.49-4.62zm8.08 9.78H275v-.75h-2.75v-27.24h-6.43v.75h3.28v14.35c-1.35-2.72-2.79-3.77-5.09-3.77-3.93 0-6.8 3.56-6.8 8.52s2.95 8.56 6.93 8.56c2.29 0 3.61-1.05 5-3.94zm-19.51-7a11 11 0 0 1-.37 3.28 3.74 3.74 0 0 1-3.32 2.47 2.61 2.61 0 0 1-2.67-2.89 3.57 3.57 0 0 1 1.85-3.23c1.18-.72 2.21-.93 4.51-1zm0-2a15.38 15.38 0 0 0-5.79.88c-2.37 1-3.68 2.65-3.68 4.7 0 2.35 1.68 3.86 4.3 3.86 2.34 0 3.9-1.05 5.17-3.4.32 2.44 1.18 3.4 3.07 3.4 1 0 1.43-.17 2.78-1.17l-.36-.51a1.7 1.7 0 0 1-1.24.63c-.82 0-1.1-.46-1.1-1.76v-9.45c0-1.76-.37-2.77-1.27-3.52a6.76 6.76 0 0 0-4.3-1.3c-3.2 0-6 1.89-6 4 0 1.09.62 1.84 1.48 1.84a1.53 1.53 0 0 0 1.47-1.68 2 2 0 0 0-.53-1.34 1.16 1.16 0 0 1-.29-.59c0-.67 1.85-1.55 3.37-1.55 2 0 2.91.88 2.91 2.73zm-17.88-7.22h-5.9v.71h2.75v14.74h-2.75v.75h8.61v-.75h-2.71v-4.87c0-3.45.12-4.66.82-6.59s1.44-2.9 2.26-2.9c.36 0 .53.21.57.67 0 1.43.49 2.1 1.43 2.1s1.6-.84 1.6-2.1a2.14 2.14 0 0 0-2.3-2.22 3.71 3.71 0 0 0-3.15 1.84 13.88 13.88 0 0 0-1.23 2.77zm-12.83.75h4.34v-.75h-4.34v-6.69h-.41c-.78 2.81-3.32 6-5.41 6.8v.6h2.67v11c0 1.93.16 2.69.78 3.49a4.08 4.08 0 0 0 3.35 1.42 3.84 3.84 0 0 0 4.23-3.52h-.82c-.33 1.59-1 2.26-2.34 2.26-1.48 0-2.05-.79-2.05-2.72zm-29.16 6.34c.08-3.61.12-4 .45-4.62a3.83 3.83 0 0 1 3.69-2.05 4.07 4.07 0 0 1 3.61 1.76c.41.71.62 2.31.62 4.91v2.06a15 15 0 0 1-.5 4.62 3.82 3.82 0 0 1-3.73 2.05 4 4 0 0 1-3.57-1.76c-.45-.75-.45-1-.57-4.91zm4.18-7.51a8.26 8.26 0 0 0-8 8.52c0 4.79 3.56 8.56 8 8.56a8.27 8.27 0 0 0 8-8.44c0-4.87-3.48-8.64-8-8.64m-23.41.42h-5.9v.71h2.75v14.74h-2.75v.75h8.61v-.75h-2.71V172c0-3 .21-4.66.7-5.67a4.64 4.64 0 0 1 4-2.56c1.85 0 2.71 1.09 2.71 3.44v11.51h-2.75v.75h8.6v-.75h-2.7v-10.33a4.85 4.85 0 0 0-5.24-5.54c-2.18 0-3.65.79-5.34 2.81zm682.56-49.63h4.42v-.76h-4.42v-6.67h-.41c-.79 2.81-3.37 6-5.5 6.8v.63h2.71v11c0 1.93.17 2.68.79 3.48a4.19 4.19 0 0 0 3.41 1.42 3.89 3.89 0 0 0 4.3-3.52h-.84c-.33 1.6-1 2.27-2.37 2.27-1.5 0-2.09-.8-2.09-2.73zm-20.92-.76h-6v.76h2.79v14.73h-2.79v.75h8.75v-.75h-2.75v-6.72c0-3 .21-4.66.71-5.66a4.71 4.71 0 0 1 4.08-2.56c1.88 0 2.76 1.09 2.76 3.44v11.5h-2.8v.75h8.75v-.75h-2.75V118a5.34 5.34 0 0 0-1.12-3.86 5.54 5.54 0 0 0-4.21-1.68c-2.21 0-3.71.8-5.42 2.81zm-15.3 0h-6v.76h2.79v14.73h-2.79v.75h8.75v-.75h-2.75v-4.87c0-3.44.13-4.66.83-6.59s1.46-2.9 2.29-2.9c.38 0 .55.21.59.68 0 1.42.5 2.09 1.46 2.09s1.62-.84 1.62-2.09a2.16 2.16 0 0 0-2.33-2.23 3.78 3.78 0 0 0-3.21 1.85 13.44 13.44 0 0 0-1.25 2.77zM803 122.14a10.58 10.58 0 0 1-.37 3.27 3.81 3.81 0 0 1-3.38 2.48 2.64 2.64 0 0 1-2.71-2.9 3.59 3.59 0 0 1 1.88-3.23c1.21-.71 2.25-.92 4.58-1zm0-2a16.33 16.33 0 0 0-5.88.88c-2.41 1-3.74 2.65-3.74 4.71 0 2.35 1.7 3.85 4.37 3.85 2.38 0 4-1.05 5.25-3.39.34 2.43 1.21 3.39 3.12 3.39 1 0 1.46-.16 2.84-1.17l-.38-.5a1.78 1.78 0 0 1-1.25.63c-.83 0-1.12-.46-1.12-1.77v-9.44c0-1.77-.38-2.77-1.29-3.53a7 7 0 0 0-4.38-1.3c-3.25 0-6.08 1.89-6.08 4 0 1.09.62 1.85 1.5 1.85a1.55 1.55 0 0 0 1.5-1.68 2 2 0 0 0-.54-1.35 1.23 1.23 0 0 1-.3-.58c0-.67 1.88-1.56 3.42-1.56 2 0 3 .89 3 2.73zm-16.34-1.3h-7.3v-1.44c0-2.78 1.21-4.08 3.8-4.08s3.5 1.09 3.5 3.7zm-7.3.75h11.09a7.11 7.11 0 0 0-12.92-4.07 9.28 9.28 0 0 0-2 5.58 8.44 8.44 0 0 0 8.12 8.48c3.41 0 6-2.26 6.58-5.87h-.83a5.76 5.76 0 0 1-5.79 5 4.08 4.08 0 0 1-3.34-1.47c-.75-.92-1-2-1-4.45zm-8.88-18.42h-6.41v.75h3.21v26.49h-3.21v.75h9.58v-.75h-3.17zm-30.88 18.21a15 15 0 0 1 .41-4.11 2.68 2.68 0 0 1 2.75-1.93c3 0 4.93 3 4.93 7.76 0 4.58-1.92 7.65-4.8 7.65a2.88 2.88 0 0 1-2.79-1.89c-.38-.92-.5-2.1-.5-4.62zm8.21 9.78h6v-.75h-2.8v-27.26h-6.54v.75h3.34v14.36c-1.37-2.73-2.84-3.78-5.17-3.78-4 0-6.91 3.57-6.91 8.52s3 8.56 7 8.56c2.34 0 3.68-1 5.05-3.94zm-20-7a10.58 10.58 0 0 1-.37 3.27 3.81 3.81 0 0 1-3.38 2.48 2.64 2.64 0 0 1-2.71-2.9 3.59 3.59 0 0 1 1.87-3.23c1.21-.71 2.26-.92 4.59-1zm0-2a16.29 16.29 0 0 0-5.81.84c-2.41 1-3.74 2.65-3.74 4.71 0 2.35 1.7 3.85 4.37 3.85 2.37 0 4-1.05 5.25-3.39.34 2.43 1.21 3.39 3.12 3.39 1 0 1.46-.16 2.84-1.17l-.38-.5a1.78 1.78 0 0 1-1.25.63c-.83 0-1.13-.46-1.13-1.77v-9.44c0-1.77-.37-2.77-1.28-3.53a7 7 0 0 0-4.38-1.3c-3.25 0-6.08 1.89-6.08 4 0 1.09.62 1.85 1.5 1.85a1.55 1.55 0 0 0 1.5-1.68 2 2 0 0 0-.55-1.35 1.18 1.18 0 0 1-.29-.58c0-.67 1.88-1.56 3.42-1.56 2 0 3 .89 3 2.73zm-26.18-19h-6v.75h2.79v26.49h-2.79v.75h8.74v-.75h-2.75v-6.68a14.43 14.43 0 0 1 .71-5.33 4.94 4.94 0 0 1 4.46-2.93c2.21 0 3.09 1 3.09 3.69v11.25h-2.8v.75h8.75v-.75h-2.75v-11.26c0-3.15-1.66-4.66-5.21-4.66-2.66 0-4.25.76-6.25 2.94zm-21.22 17.67h-7.29v-1.43c0-2.78 1.21-4.08 3.79-4.08s3.5 1.09 3.5 3.7zm-7.29.75h11.08a7.1 7.1 0 0 0-12.91-4.07 9.28 9.28 0 0 0-2 5.58 8.44 8.44 0 0 0 8.12 8.48c3.41 0 6-2.26 6.58-5.87h-.83a5.77 5.77 0 0 1-5.8 5 4.07 4.07 0 0 1-3.33-1.47c-.75-.92-1-2-1-4.45zm-20.38-18.42h-6v.75h2.8v26.49h-2.8v.75h8.75v-.75h-2.75v-6.68a14.43 14.43 0 0 1 .71-5.33 4.93 4.93 0 0 1 4.46-2.93c2.21 0 3.08 1 3.08 3.69v11.25h-2.79v.75h8.8v-.75h-2.75v-11.26c0-3.15-1.67-4.66-5.21-4.66-2.67 0-4.25.76-6.25 2.94zm-18.3 11.42h-.54l-.59 1.51a5.91 5.91 0 0 0-4-1.6 4.83 4.83 0 0 0-5 5 4.49 4.49 0 0 0 3.87 4.74l3.21.67c1.79.34 2.67 1.18 2.67 2.52a3.58 3.58 0 0 1-3.8 3.28 4.94 4.94 0 0 1-4.29-2.56 8.4 8.4 0 0 1-1.13-3.24h-.7v6.2h.41l1-1.59c1.75 1.55 2.88 2 4.59 2a5.17 5.17 0 0 0 5.24-5.53c0-3-1.45-4.62-4.7-5.3l-1.88-.37c-2.37-.46-3.21-1-3.21-2.1 0-1.64 1.58-2.94 3.55-2.94a4.58 4.58 0 0 1 4.67 4.07h.7zm-19.05 9.57a10.58 10.58 0 0 1-.37 3.27 3.79 3.79 0 0 1-3.38 2.48A2.64 2.64 0 0 1 609 125a3.6 3.6 0 0 1 1.88-3.23c1.21-.71 2.25-.92 4.58-1zm0-2a16.29 16.29 0 0 0-5.88.88c-2.41 1-3.74 2.65-3.74 4.71 0 2.35 1.7 3.85 4.37 3.85 2.38 0 4-1.05 5.25-3.39.34 2.43 1.21 3.39 3.13 3.39 1 0 1.45-.16 2.83-1.17l-.38-.5a1.78 1.78 0 0 1-1.25.63c-.83 0-1.12-.46-1.12-1.77v-9.44c0-1.77-.38-2.77-1.29-3.53a7 7 0 0 0-4.38-1.3c-3.25 0-6.08 1.89-6.08 4 0 1.09.62 1.85 1.5 1.85a1.55 1.55 0 0 0 1.5-1.68 2 2 0 0 0-.55-1.35 1.28 1.28 0 0 1-.29-.58c0-.67 1.88-1.56 3.42-1.56 2 0 3 .89 3 2.73zm-35.39-.79a14.89 14.89 0 0 1 .42-4.11 2.68 2.68 0 0 1 2.75-1.93c3 0 4.92 3 4.92 7.76 0 4.58-1.92 7.65-4.79 7.65a2.88 2.88 0 0 1-2.8-1.89 12.61 12.61 0 0 1-.5-4.62zm8.22 9.78h6v-.75h-2.79v-27.24h-6.54v.75h3.34v14.36c-1.38-2.73-2.84-3.78-5.17-3.78-4 0-6.91 3.57-6.91 8.52s3 8.56 7 8.56c2.34 0 3.67-1 5-3.94zm-27.91-16.24h-6v.76h2.79v14.73h-2.79v.75h8.75v-.75h-2.76v-6.72c0-3 .21-4.66.71-5.66a4.73 4.73 0 0 1 4.09-2.56c1.88 0 2.75 1.09 2.75 3.44v11.5h-2.79v.75h8.75v-.75h-2.75V118a5.34 5.34 0 0 0-1.12-3.86 5.54 5.54 0 0 0-4.21-1.68c-2.21 0-3.72.8-5.43 2.81zm-13.79 9.24a10.58 10.58 0 0 1-.37 3.27 3.81 3.81 0 0 1-3.38 2.48 2.64 2.64 0 0 1-2.71-2.9 3.59 3.59 0 0 1 1.88-3.23c1.2-.71 2.25-.92 4.58-1zm0-2a16.29 16.29 0 0 0-5.88.88c-2.41 1-3.75 2.65-3.75 4.71 0 2.35 1.71 3.85 4.38 3.85 2.37 0 4-1.05 5.25-3.39.33 2.43 1.21 3.39 3.12 3.39 1 0 1.46-.16 2.83-1.17l-.37-.5a1.78 1.78 0 0 1-1.25.63c-.83 0-1.13-.46-1.13-1.77v-9.44c0-1.77-.37-2.77-1.29-3.53a6.93 6.93 0 0 0-4.37-1.3c-3.25 0-6.08 1.89-6.08 4 0 1.09.62 1.85 1.49 1.85a1.55 1.55 0 0 0 1.5-1.68 2 2 0 0 0-.54-1.35 1.28 1.28 0 0 1-.29-.58c0-.67 1.88-1.56 3.42-1.56 2.05 0 3 .89 3 2.73zm-26.47 15.4c2.51-2.22 3.83-4.57 3.83-6.88s-1.49-4.19-3.45-4.19a2.49 2.49 0 0 0-2.54 2.68c0 1.39.75 2.31 1.91 2.31a1.84 1.84 0 0 0 1.75-2 3.78 3.78 0 0 0 0-.63 2.44 2.44 0 0 1 1.42 2.47c0 1.72-1 3.32-3.38 5.75zm-9.8-16.7H503v-1.44c0-2.78 1.2-4.08 3.79-4.08s3.5 1.09 3.5 3.7zm-7.29.75H514a7.1 7.1 0 0 0-12.91-4.07 9.29 9.29 0 0 0-2 5.58 8.45 8.45 0 0 0 8.12 8.48c3.42 0 6-2.26 6.59-5.87h-.8a5.76 5.76 0 0 1-5.79 5 4 4 0 0 1-3.33-1.47c-.76-.92-1-2-1-4.45zm-17.6 12.51h6.47c2.33 0 2.33 0 2.87.21a1.57 1.57 0 0 1 1 1.68c0 3.19-3.25 5.84-7.25 5.84-3.26 0-5.42-1.81-5.42-4.45a4.22 4.22 0 0 1 1.54-3.28zm.13-15c0-2.77.75-3.74 3-3.74s2.88.71 2.88 3.53v2.72c0 3-.63 3.83-2.92 3.83s-2.92-.8-2.92-3.83zm-.37 11.33c-1.92 0-2.88-.5-2.88-1.51s1.08-2.19 3-3.31a8.06 8.06 0 0 0 3.21.66c3.58 0 6.33-2.47 6.33-5.75a5.67 5.67 0 0 0-1.2-3.73c.5-.51.87-.76 1.2-.76a.54.54 0 0 1 .59.51c.16 1 .45 1.42 1.2 1.42s1.25-.59 1.25-1.55a1.63 1.63 0 0 0-1.83-1.63c-1 0-1.62.37-2.91 1.59a6 6 0 0 0-4.63-1.85c-3.71 0-6.37 2.44-6.37 5.83a5.59 5.59 0 0 0 2.45 4.79 6.35 6.35 0 0 1-.54.42 13.75 13.75 0 0 0-1.37 1 5.11 5.11 0 0 0-1.88 3.78c0 1.92 1 3.14 3.17 3.73-2.33 1-3.17 2-3.17 3.69 0 2.86 3.17 4.91 7.5 4.91 5.05 0 8.54-3.18 8.54-7.8 0-1.85-.54-3.15-1.53-3.82-.8-.5-1.63-.63-3.63-.63zm-12.6-15.49h-6v.76h2.79v14.73h-2.79v.75h8.74v-.75h-2.75v-4.87c0-3.44.13-4.66.84-6.59s1.45-2.9 2.29-2.9c.37 0 .54.21.58.68 0 1.42.5 2.09 1.46 2.09s1.63-.84 1.63-2.09a2.17 2.17 0 0 0-2.34-2.23 3.78 3.78 0 0 0-3.21 1.85 13.44 13.44 0 0 0-1.25 2.77zm-13.79 9.24a10.52 10.52 0 0 1-.38 3.27 3.79 3.79 0 0 1-3.38 2.48 2.65 2.65 0 0 1-2.71-2.9 3.6 3.6 0 0 1 1.88-3.23c1.21-.71 2.25-.92 4.59-1zm0-2a16.25 16.25 0 0 0-5.88.88c-2.42 1-3.75 2.65-3.75 4.71 0 2.35 1.71 3.85 4.37 3.85 2.38 0 4-1.05 5.26-3.39.33 2.43 1.2 3.39 3.12 3.39 1 0 1.46-.16 2.83-1.17l-.37-.5a1.8 1.8 0 0 1-1.26.63c-.83 0-1.12-.46-1.12-1.77v-9.44c0-1.77-.37-2.77-1.29-3.53a7 7 0 0 0-4.37-1.3c-3.25 0-6.09 1.89-6.09 4 0 1.09.63 1.85 1.5 1.85a1.55 1.55 0 0 0 1.5-1.68 2 2 0 0 0-.54-1.35 1.18 1.18 0 0 1-.29-.58c0-.67 1.88-1.56 3.42-1.56 2 0 3 .89 3 2.73zm-26.18-19h-6v.75h2.79v26.49h-2.79v.75h8.75v-.75h-2.75v-6.68a14.7 14.7 0 0 1 .7-5.33 5 5 0 0 1 4.47-2.93c2.21 0 3.08 1 3.08 3.69v11.25H438v.75h8.75v-.75H444v-11.28c0-3.15-1.67-4.66-5.21-4.66-2.67 0-4.25.76-6.25 2.94zm-8.09 22.71a7.14 7.14 0 0 1-1.38 2.81 6 6 0 0 1-4.5 2.06 3.78 3.78 0 0 1-3.37-1.72c-.54-.88-.75-2.19-.75-4.79v-2.65c0-4.53 1.29-6.29 4.54-6.29 1.66 0 3.25.54 3.25 1.13 0 .13-.05.21-.25.42a2.69 2.69 0 0 0-.71 1.85c0 1.17.67 2 1.62 2a1.74 1.74 0 0 0 1.67-2c0-2.43-2.38-4.24-5.63-4.24a8.36 8.36 0 0 0-8.36 8.6c0 4.75 3.49 8.48 8 8.48a6.59 6.59 0 0 0 5-2.13 7.11 7.11 0 0 0 1.71-3.57zm-17.8-11.29h-.55l-.58 1.51a5.91 5.91 0 0 0-4-1.6 4.82 4.82 0 0 0-5 5 4.49 4.49 0 0 0 3.86 4.74l3.22.67c1.79.34 2.66 1.18 2.66 2.52a3.57 3.57 0 0 1-3.79 3.28 5 5 0 0 1-4.3-2.56 8.59 8.59 0 0 1-1.12-3.24h-.7v6.2h.41l1-1.59c1.75 1.55 2.87 2 4.58 2a5.18 5.18 0 0 0 5.25-5.53c0-3-1.45-4.62-4.7-5.3l-1.88-.37c-2.38-.46-3.21-1-3.21-2.1 0-1.64 1.58-2.94 3.54-2.94a4.58 4.58 0 0 1 4.67 4.07h.71zm-17.84-10.9a2.24 2.24 0 0 0 0 4.48 2.24 2.24 0 1 0 0-4.48m1.91 11.2h-6v.76h2.79v14.73h-2.79v.75h8.74v-.75h-2.75zm-22.38 6.46a15.41 15.41 0 0 1 .41-4.11 2.68 2.68 0 0 1 2.75-1.93c3 0 4.93 3 4.93 7.76 0 4.58-1.92 7.65-4.8 7.65a2.88 2.88 0 0 1-2.79-1.89c-.38-.92-.5-2.1-.5-4.62zm8.21 9.78h6v-.75h-2.8v-27.24h-6.54v.75h3.34v14.36c-1.38-2.73-2.84-3.78-5.17-3.78-4 0-6.91 3.57-6.91 8.52s3 8.56 7 8.56c2.34 0 3.67-1 5.05-3.94zm-25.31-16.57h-.54l-.58 1.51a5.91 5.91 0 0 0-4-1.6 4.83 4.83 0 0 0-5 5 4.49 4.49 0 0 0 3.88 4.74l3.2.67c1.8.34 2.67 1.18 2.67 2.52a3.57 3.57 0 0 1-3.79 3.28 4.94 4.94 0 0 1-4.29-2.56 8.24 8.24 0 0 1-1.13-3.24h-.71v6.2h.42l1-1.59c1.75 1.55 2.87 2 4.58 2a5.18 5.18 0 0 0 5.25-5.53c0-3-1.45-4.62-4.71-5.3l-1.87-.37c-2.38-.46-3.21-1-3.21-2.1 0-1.64 1.58-2.94 3.54-2.94a4.58 4.58 0 0 1 4.67 4.07h.7zm-17.83-10.87a2.24 2.24 0 0 0 0 4.48 2.24 2.24 0 1 0 0-4.48m1.91 11.2h-6v.76h2.8v14.73h-2.8v.75h8.75v-.75h-2.75zm-22.47-11.75h-6v.75h2.79v26.49h-2.79v.75h8.75v-.75h-2.76v-6.68a14.43 14.43 0 0 1 .71-5.33 5 5 0 0 1 4.46-2.93c2.21 0 3.09 1 3.09 3.69v11.25h-2.8v.75h8.75v-.75h-2.75v-11.25c0-3.15-1.66-4.66-5.2-4.66-2.67 0-4.26.76-6.26 2.94zM282 119.36a14.5 14.5 0 0 1 .42-4.11 2.67 2.67 0 0 1 2.75-1.93c3 0 4.92 3 4.92 7.76 0 4.58-1.92 7.65-4.8 7.65a2.88 2.88 0 0 1-2.79-1.89c-.38-.92-.5-2.1-.5-4.62zm8.21 9.78h6v-.75h-2.81v-27.24h-6.54v.75h3.33v14.36c-1.38-2.73-2.83-3.78-5.17-3.78-4 0-6.91 3.57-6.91 8.52s3 8.56 7 8.56c2.33 0 3.66-1 5-3.94zm-18.93-10.32H264v-1.42c0-2.78 1.21-4.08 3.79-4.08s3.5 1.09 3.5 3.7zm-7.29.75h11.08a7.1 7.1 0 0 0-12.91-4.07 9.29 9.29 0 0 0-2 5.58 8.45 8.45 0 0 0 8.12 8.48c3.42 0 6-2.26 6.59-5.87h-.84a5.76 5.76 0 0 1-5.79 5 4 4 0 0 1-3.33-1.47c-.75-.92-1-2-1-4.45zm-14 10h1.29l6.3-15.9h1.87v-.76h-6.13v.76h3.3l-4.75 11.92-4.67-11.92h3.29v-.76h-9.08v.76h2.12zm-13.87-27.87a2.24 2.24 0 0 0 0 4.48 2.24 2.24 0 1 0 0-4.48m1.88 11.2h-6v.76h2.79v14.73H232v.75h8.74v-.75H238zm-12.72 5.92H218v-1.42c0-2.78 1.21-4.08 3.79-4.08s3.5 1.09 3.5 3.7zm-7.29.75h11.08a7.1 7.1 0 0 0-12.91-4.07 9.29 9.29 0 0 0-2 5.58 8.44 8.44 0 0 0 8.12 8.48c3.42 0 6-2.26 6.58-5.87h-.83a5.76 5.76 0 0 1-5.79 5 4.08 4.08 0 0 1-3.34-1.47c-.75-.92-.95-2-.95-4.45zm-6.99 4.29a7 7 0 0 1-1.38 2.81 6 6 0 0 1-4.5 2.06 3.78 3.78 0 0 1-3.37-1.72c-.55-.88-.76-2.19-.76-4.79v-2.65c0-4.53 1.3-6.29 4.55-6.29 1.66 0 3.25.54 3.25 1.13 0 .13 0 .21-.25.42a2.69 2.69 0 0 0-.71 1.85c0 1.17.67 2 1.62 2a1.74 1.74 0 0 0 1.67-2c0-2.43-2.37-4.24-5.62-4.24a8.36 8.36 0 0 0-8.37 8.6c0 4.75 3.49 8.48 7.95 8.48a6.59 6.59 0 0 0 5-2.13 7.11 7.11 0 0 0 1.71-3.57zm-20.72-5H183v-1.46c0-2.78 1.2-4.08 3.79-4.08s3.5 1.09 3.5 3.7zm-7.29.75h11.08a7.1 7.1 0 0 0-12.91-4.07 9.29 9.29 0 0 0-2 5.58 8.45 8.45 0 0 0 8.12 8.48c3.42 0 6-2.26 6.59-5.87h-.84a5.76 5.76 0 0 1-5.79 5 4 4 0 0 1-3.33-1.47c-.75-.92-1-2-1-4.45zm-12.34-6.67h-6v.76h2.79v14.73h-2.79v.75h8.75v-.75h-2.75v-4.87c0-3.44.12-4.66.83-6.59s1.46-2.9 2.29-2.9c.37 0 .54.21.58.68 0 1.42.5 2.09 1.46 2.09s1.63-.84 1.63-2.09a2.16 2.16 0 0 0-2.33-2.23 3.76 3.76 0 0 0-3.21 1.85 13.44 13.44 0 0 0-1.25 2.77zM842.68 69a15.08 15.08 0 0 1 .41-4.12 2.66 2.66 0 0 1 2.73-1.88c3 0 4.87 3 4.87 7.77 0 4.58-1.9 7.64-4.75 7.64a2.86 2.86 0 0 1-2.77-1.89 12.65 12.65 0 0 1-.49-4.61zm8.13 9.78h6V78H854V50.79h-6.48v.75h3.3v14.35c-1.36-2.73-2.8-3.77-5.12-3.77-4 0-6.85 3.56-6.85 8.51s3 8.57 7 8.57c2.31 0 3.63-1 5-3.94zm-19.73-7a10.7 10.7 0 0 1-.37 3.28 3.77 3.77 0 0 1-3.35 2.47 2.62 2.62 0 0 1-2.68-2.89 3.61 3.61 0 0 1 1.86-3.24c1.2-.71 2.23-.92 4.54-1zm0-2a15.57 15.57 0 0 0-5.82.88c-2.4 1-3.72 2.64-3.72 4.7 0 2.35 1.69 3.86 4.34 3.86 2.35 0 3.92-1 5.2-3.4.34 2.44 1.2 3.4 3.09 3.4 1 0 1.45-.17 2.81-1.17l-.37-.51a1.76 1.76 0 0 1-1.24.63c-.82 0-1.11-.46-1.11-1.76v-9.47c0-1.76-.37-2.77-1.28-3.52a6.85 6.85 0 0 0-4.33-1.3c-3.23 0-6 1.88-6 4 0 1.1.61 1.85 1.48 1.85a1.54 1.54 0 0 0 1.49-1.68 2 2 0 0 0-.54-1.34 1.3 1.3 0 0 1-.29-.59c0-.67 1.86-1.55 3.39-1.55 2 0 2.93.88 2.93 2.73zm-25.84-19h-5.94v.75h2.76V78h-2.76v.75h8.7V78h-2.72v-6.65a14.41 14.41 0 0 1 .7-5.33 4.89 4.89 0 0 1 4.42-2.94c2.19 0 3.06 1 3.06 3.69V78h-2.77v.75h8.67V78h-2.73V66.77c0-3.14-1.65-4.65-5.16-4.65-2.64 0-4.21.75-6.19 2.93zM774.83 69a15 15 0 0 1 .42-4.12A2.66 2.66 0 0 1 778 63c3 0 4.88 3 4.88 7.77 0 4.58-1.9 7.64-4.75 7.64a2.86 2.86 0 0 1-2.77-1.89 12.58 12.58 0 0 1-.5-4.61zm8.17 9.78h5.94V78h-2.76V50.79h-6.48v.75h3.3v14.35c-1.36-2.73-2.81-3.77-5.12-3.77-4 0-6.85 3.56-6.85 8.51s3 8.57 7 8.57c2.32 0 3.64-1 5-3.94zm-27.61-16.24h-5.94v.75h2.77V78h-2.77v.75h8.67V78h-2.73v-6.69c0-3 .21-4.66.71-5.67a4.66 4.66 0 0 1 4-2.56c1.86 0 2.73 1.09 2.73 3.44V78h-2.73v.75h8.67V78H766V67.65a4.84 4.84 0 0 0-5.28-5.53c-2.19 0-3.68.79-5.37 2.81zm-12.67-11.21a2.25 2.25 0 0 0 0 4.49 2.25 2.25 0 0 0 0-4.49m1.9 11.21h-5.94v.75h2.76V78h-2.76v.75h8.67V78h-2.73zm-17.75 5.74l5.29-5h2.76v-.75h-8v.75h3.88l-7 6.51 6.13 8.21h-2.23v.75h8.75V78h-2zM723 50.79h-6v.75h2.76V78H717v.75h8.66V78H723zM705 62.2h-.54l-.58 1.51a5.81 5.81 0 0 0-4-1.59 4.8 4.8 0 0 0-4.95 5 4.48 4.48 0 0 0 3.83 4.74l3.18.68c1.78.34 2.65 1.17 2.65 2.52a3.56 3.56 0 0 1-3.76 3.27 4.89 4.89 0 0 1-4.26-2.56 8.55 8.55 0 0 1-1.11-3.23h-.7v6.21h.41l.95-1.59c1.73 1.55 2.85 2 4.54 2 3.06 0 5.2-2.31 5.2-5.54 0-3-1.44-4.62-4.66-5.29l-1.84-.33c-2.35-.46-3.18-1-3.18-2.1a3.26 3.26 0 0 1 3.51-2.9c2.44 0 4.13 1.51 4.63 4.08h.7zm-17.57-10.87a2.25 2.25 0 0 0 0 4.49 2.25 2.25 0 0 0 0-4.49m1.9 11.21h-5.94v.75h2.76V78h-2.76v.75h8.66V78h-2.72zm-22.17-11.75h-5.94v.75H664V78h-2.77v.75h8.67V78h-2.73v-6.65a14.62 14.62 0 0 1 .7-5.33 4.89 4.89 0 0 1 4.43-2.94c2.19 0 3.05 1 3.05 3.69V78h-2.76v.75h8.66V78h-2.72V66.77c0-3.14-1.65-4.65-5.16-4.65-2.64 0-4.22.75-6.2 2.93zm-12.63 12.5h4.38v-.75h-4.38v-6.68h-.41c-.78 2.82-3.34 6-5.45 6.8v.63h2.69v11c0 1.93.16 2.69.78 3.48a4.15 4.15 0 0 0 3.38 1.43 3.86 3.86 0 0 0 4.26-3.52H659c-.33 1.59-1 2.26-2.35 2.26-1.49 0-2.07-.8-2.07-2.73zm-20.49 0H638v-.75h-4V55.4c0-2.18.12-2.77.62-3.48a2.27 2.27 0 0 1 1.86-.89 1.74 1.74 0 0 1 1.44.51 2 2 0 0 0-.82 1.72c0 1 .58 1.76 1.4 1.76s1.4-.8 1.4-1.85c0-1.63-1.4-2.8-3.34-2.8a5.18 5.18 0 0 0-4 2.09c-1.28 1.64-1.69 3.15-1.69 6.43v3.65h-3.6v.75h3.6V78h-3.6v.75h10.4V78H634zm-21.18 6.34c.08-3.61.13-3.95.46-4.62A3.87 3.87 0 0 1 617 63a4.08 4.08 0 0 1 3.64 1.77c.41.71.62 2.31.62 4.91v2.05a15.31 15.31 0 0 1-.49 4.62 3.87 3.87 0 0 1-3.77 2.01 4.06 4.06 0 0 1-3.59-1.76c-.45-.76-.45-1-.58-4.92zm4.22-7.51a8.55 8.55 0 1 0 8 8.64c0-4.87-3.51-8.64-8-8.64m-23.84 6.34H586V67c0-2.77 1.2-4.08 3.76-4.08s3.47 1.1 3.47 3.7zm-7.23.75h11a7 7 0 0 0-7.07-7.09 6.94 6.94 0 0 0-5.73 3 9.33 9.33 0 0 0-1.94 5.58 8.41 8.41 0 0 0 8 8.48c3.38 0 5.9-2.27 6.52-5.88H596a5.73 5.73 0 0 1-5.74 5 4 4 0 0 1-3.3-1.47c-.74-.92-1-2-1-4.45zm-19.36-6.67h-5.94v.75h2.77V78h-2.77v.75h8.67V78h-2.73v-6.69c0-3 .21-4.66.7-5.67a4.68 4.68 0 0 1 4-2.56c1.86 0 2.73 1.09 2.73 3.44V78h-2.77v.75H580V78h-2.7V67.65a4.84 4.84 0 0 0-5.3-5.53c-2.19 0-3.68.79-5.37 2.81zM545.77 51.2a6.43 6.43 0 0 1 6.23 4.07c.63 1.72.75 3.32.75 9.7 0 5.33-.12 7-.54 8.61a6.82 6.82 0 0 1-12.76.67c-.66-1.68-.79-3.32-.79-9.45 0-5.58.08-7.22.54-8.81a6.32 6.32 0 0 1 6.53-4.79m0-.83a10.86 10.86 0 0 0-8.18 3.94A15.64 15.64 0 0 0 534 64.76a15.84 15.84 0 0 0 3.05 9.87 10.86 10.86 0 0 0 8.68 4.57c6.52 0 11.68-6.25 11.68-14.27a15.71 15.71 0 0 0-3.05-10 10.83 10.83 0 0 0-8.63-4.57m-27.72 24a2.36 2.36 0 0 0-2.31 2.39 2.33 2.33 0 0 0 2.35 2.35 2.37 2.37 0 0 0 0-4.74m-16.48 7.39H508c2.31 0 2.31 0 2.84.21a1.56 1.56 0 0 1 1 1.67c0 3.2-3.22 5.84-7.19 5.84-3.22 0-5.37-1.8-5.37-4.45a4.19 4.19 0 0 1 1.53-3.27zm.13-15c0-2.77.74-3.74 2.93-3.74s2.85.72 2.85 3.53v2.73c0 3-.62 3.82-2.89 3.82s-2.89-.8-2.89-3.82zM501.33 78c-1.9 0-2.85-.51-2.85-1.52s1.07-2.18 3-3.31a7.8 7.8 0 0 0 3.18.67c3.56 0 6.28-2.48 6.28-5.75a5.7 5.7 0 0 0-1.2-3.74c.5-.5.87-.75 1.2-.75a.51.51 0 0 1 .57.5c.17 1.05.46 1.43 1.2 1.43s1.24-.59 1.24-1.56a1.63 1.63 0 0 0-1.81-1.63c-.95 0-1.61.37-2.89 1.59a6 6 0 0 0-4.59-1.84c-3.67 0-6.31 2.43-6.31 5.83a5.61 5.61 0 0 0 2.43 4.79c-.25.21-.25.21-.53.42a12.87 12.87 0 0 0-1.37 1 5.12 5.12 0 0 0-1.88 3.81c0 1.93 1 3.15 3.13 3.73-2.31 1-3.13 2-3.13 3.7 0 2.85 3.13 4.91 7.42 4.91 5 0 8.47-3.19 8.47-7.81 0-1.85-.54-3.15-1.52-3.82-.79-.5-1.62-.62-3.6-.62zm-20.1-15.49h-6v.75H478V78h-2.77v.75H484V78h-2.72v-6.69c0-3 .2-4.66.7-5.67a4.66 4.66 0 0 1 4.02-2.56c1.85 0 2.72 1.09 2.72 3.44V78h-2.77v.75h8.67V78h-2.73V67.65a5.37 5.37 0 0 0-1.11-3.86 5.44 5.44 0 0 0-4.17-1.67c-2.19 0-3.67.79-5.36 2.81zm-12.68-11.18a2.25 2.25 0 0 0 0 4.49 2.25 2.25 0 0 0 0-4.49m1.9 11.21h-5.94v.75h2.77V78h-2.77v.75h8.67V78h-2.73zm-22.16-11.75h-6v.75h2.77V78h-2.77v.75H451V78h-2.72v-6.65A14.41 14.41 0 0 1 449 66a4.89 4.89 0 0 1 4.42-2.94c2.19 0 3.06 1 3.06 3.69V78h-2.78v.75h8.66V78h-2.72V66.77c0-3.14-1.65-4.65-5.16-4.65-2.64 0-4.21.75-6.19 2.93zm-12.63 12.5H440v-.75h-4.37v-6.68h-.42c-.78 2.82-3.34 6-5.44 6.8v.63h2.68v11c0 1.93.17 2.69.78 3.48a4.17 4.17 0 0 0 3.39 1.43 3.86 3.86 0 0 0 4.25-3.52h-.83c-.33 1.59-1 2.26-2.35 2.26-1.48 0-2.06-.8-2.06-2.73zm-20 6.34c.08-3.61.12-3.95.45-4.62a3.89 3.89 0 0 1 3.74-2.01 4.07 4.07 0 0 1 3.63 1.77c.42.71.63 2.31.63 4.91v2.05a14.88 14.88 0 0 1-.5 4.62 3.86 3.86 0 0 1-3.76 2.06 4.09 4.09 0 0 1-3.6-1.76c-.45-.76-.45-1-.57-4.92zm4.21-7.51a8.55 8.55 0 1 0 8.05 8.64c0-4.87-3.51-8.64-8.05-8.64m-23.66.42h-5.94v.75h2.77V78h-2.77v.75H399V78h-2.73v-6.69c0-3 .21-4.66.7-5.67a4.69 4.69 0 0 1 4.03-2.56c1.86 0 2.72 1.09 2.72 3.44V78h-2.77v.75h8.67V78h-2.72V67.65a4.84 4.84 0 0 0-5.29-5.53c-2.19 0-3.67.79-5.37 2.81zm-21.65.75H379v-.75h-4.38v-6.68h-.41c-.78 2.82-3.34 6-5.44 6.8v.63h2.68v11c0 1.93.17 2.69.78 3.48a4.15 4.15 0 0 0 3.38 1.43 3.86 3.86 0 0 0 4.26-3.52H379c-.33 1.59-1 2.26-2.35 2.26-1.49 0-2.07-.8-2.07-2.73zm-10-.75h-5.95v.75h2.77v7.09a15.1 15.1 0 0 1-.78 5.51 4.51 4.51 0 0 1-4.09 2.35c-2.19 0-2.85-1-2.85-4.37V62.54h-5.94v.75h2.76v10c0 2.14.21 3.23.87 4.12a5.62 5.62 0 0 0 4.58 1.8 5.79 5.79 0 0 0 5.45-2.94v2.52h5.9V78h-2.72zm-31.34 7.09c.09-3.61.13-3.95.46-4.62A3.87 3.87 0 0 1 337.4 63a4.07 4.07 0 0 1 3.6 1.72c.41.71.62 2.31.62 4.91v2.05a14.88 14.88 0 0 1-.5 4.62 3.84 3.84 0 0 1-3.75 2.06 4.08 4.08 0 0 1-3.6-1.76c-.45-.76-.45-1-.58-4.92zm4.22-7.51a8.56 8.56 0 1 0 8 8.64c0-4.87-3.5-8.64-8-8.64m-15 9.82a20.11 20.11 0 0 1-.25 3.86 2.91 2.91 0 0 1-3.06 2.56 4.49 4.49 0 0 1-3.68-2.1 11 11 0 0 1-1.28-5.92c0-4.45 1.9-7.39 4.84-7.39a3.12 3.12 0 0 1 2.89 1.6c.41.8.54 1.72.54 4zm-8.19-21.15h-5.94v.75h2.77V78h-2.77v.75h5.94v-2.86c1.45 2.43 2.73 3.31 5 3.31 4 0 7.06-3.78 7.06-8.69s-3-8.39-7-8.39c-2.28 0-3.72 1-5 3.52zm-12.79 21a10.7 10.7 0 0 1-.37 3.28 3.77 3.77 0 0 1-3.35 2.47 2.62 2.62 0 0 1-2.74-2.91 3.61 3.61 0 0 1 1.86-3.24c1.2-.71 2.23-.92 4.54-1zm0-2a15.57 15.57 0 0 0-5.82.88c-2.39 1-3.71 2.64-3.71 4.7 0 2.35 1.69 3.86 4.33 3.86 2.35 0 3.92-1 5.2-3.4.33 2.44 1.2 3.4 3.1 3.4 1 0 1.44-.17 2.8-1.17l-.37-.51a1.74 1.74 0 0 1-1.24.63c-.82 0-1.11-.46-1.11-1.76v-9.48c0-1.76-.37-2.77-1.28-3.52a6.85 6.85 0 0 0-4.33-1.3c-3.23 0-6 1.88-6 4 0 1.1.62 1.85 1.48 1.85a1.54 1.54 0 0 0 1.49-1.66 2 2 0 0 0-.54-1.34 1.3 1.3 0 0 1-.29-.59c0-.67 1.86-1.55 3.39-1.55 2 0 2.93.88 2.93 2.73zm-24.95-6.47h3.92v-.75h-3.92V55.4c0-2.18.12-2.77.61-3.48A2.3 2.3 0 0 1 279 51a1.75 1.75 0 0 1 1.45.51 2 2 0 0 0-.82 1.72c0 1 .57 1.76 1.4 1.76s1.4-.8 1.4-1.85c0-1.63-1.4-2.8-3.34-2.8a5.2 5.2 0 0 0-4.09 2.12c-1.28 1.64-1.69 3.15-1.69 6.43v3.65h-3.59v.75h3.59V78h-3.59v.75h10.4V78h-3.63zm-10.73-12.5h-6.38v.75h3.18V78h-3.18v.75h9.49V78h-3.13zm-11.5 17.64h-7.22V67c0-2.77 1.2-4.08 3.76-4.08s3.46 1.1 3.46 3.7zm-7.22.75h11a7 7 0 0 0-12.8-4.07 9.38 9.38 0 0 0-1.93 5.58c0 4.58 3.7 8.48 8 8.48 3.39 0 5.91-2.27 6.52-5.88h-.82a5.73 5.73 0 0 1-5.74 5 4 4 0 0 1-3.3-1.47c-.75-.92-.95-2-.95-4.45zm-7.55-7H239l-.58 1.51a5.79 5.79 0 0 0-4-1.59 4.8 4.8 0 0 0-4.95 5 4.48 4.48 0 0 0 3.83 4.74l3.19.68c1.77.34 2.64 1.17 2.64 2.52a3.55 3.55 0 0 1-3.76 3.27 4.9 4.9 0 0 1-4.26-2.56 8.55 8.55 0 0 1-1.11-3.21h-.7v6.21h.41l.95-1.59c1.74 1.55 2.85 2 4.55 2 3 0 5.2-2.31 5.2-5.54 0-3-1.45-4.62-4.67-5.29l-1.89-.36c-2.35-.46-3.18-1-3.18-2.1a3.26 3.26 0 0 1 3.51-2.9 4.55 4.55 0 0 1 4.63 4h.7zm-36 .34h-5.94v.75h2.76V78h-2.76v.75h8.66V78h-2.72v-7.16c0-2.89.12-4.15.5-5.16a4.08 4.08 0 0 1 3.71-2.6c1.78 0 2.77 1.09 2.77 3.15V78h-2.77v.75h8.67V78h-2.72v-7.9c0-3 .12-3.94.74-5a4 4 0 0 1 3.51-2.06c1.82 0 2.69 1 2.69 3.15V78h-2.77v.75h8.67V78h-2.73V66.73c0-3.27-1.36-4.61-4.62-4.61a7.33 7.33 0 0 0-5.54 2.26c-.86-1.64-2.1-2.26-4.45-2.26a7.51 7.51 0 0 0-5.66 2.26zm-12.67-11.22a2.25 2.25 0 0 0 0 4.49 2.25 2.25 0 0 0 0-4.49m1.9 11.21h-5.94v.75h2.76V78h-2.76v.75h8.66V78h-2.72zm-22.17-11.75h-5.94v.75h2.76V78h-2.76v.75h8.67V78h-2.73v-6.65a14.62 14.62 0 0 1 .7-5.33 4.89 4.89 0 0 1 4.42-2.94c2.19 0 3.06 1 3.06 3.69V78H176v.75h8.67V78h-2.73V66.77c0-3.14-1.64-4.65-5.15-4.65-2.65 0-4.22.75-6.2 2.93zm683.76-38.95h-.56l-.6 1.5a6.22 6.22 0 0 0-4.17-1.59 4.9 4.9 0 0 0-5.14 5 4.54 4.54 0 0 0 4 4.75l3.3.67c1.84.34 2.74 1.18 2.74 2.52 0 1.81-1.76 3.28-3.9 3.28a5.11 5.11 0 0 1-4.41-2.57 8.15 8.15 0 0 1-1.15-3.23h-.73v6.21h.43l1-1.59c1.8 1.55 3 2 4.71 2a5.24 5.24 0 0 0 5.39-5.54c0-3-1.49-4.62-4.83-5.29l-1.93-.38c-2.44-.46-3.3-1-3.3-2.09 0-1.64 1.63-2.94 3.64-2.94a4.66 4.66 0 0 1 4.8 4.07h.73zm-18.54 6.25h-7.49v-1.43c0-2.77 1.24-4.07 3.89-4.07s3.6 1.09 3.6 3.69zm-7.49.75h11.38a7.17 7.17 0 0 0-7.32-7.09 7.32 7.32 0 0 0-6 3 9.15 9.15 0 0 0-2 5.58 8.56 8.56 0 0 0 8.35 8.48 6.66 6.66 0 0 0 6.8-5.81h-.86a5.87 5.87 0 0 1-5.95 5 4.22 4.22 0 0 1-3.42-1.47c-.77-.93-1-2-1-4.46zM818.88.42h-6.59v.75h3.3v26.49h-3.3v.75h9.84v-.75h-3.25zM806 21.57a19.07 19.07 0 0 1-.26 3.86 3 3 0 0 1-3.13 2.57 4.69 4.69 0 0 1-3.81-2.1 10.77 10.77 0 0 1-1.33-5.9c0-4.44 2-7.38 5-7.38a3.26 3.26 0 0 1 3 1.59c.43.8.56 1.72.56 4zM797.56.42h-6.16v.75h2.86v26.49h-2.86v.75h6.16v-2.89c1.5 2.43 2.82 3.31 5.14 3.31 4.11 0 7.32-3.77 7.32-8.69s-3.08-8.39-7.24-8.39c-2.35 0-3.85 1-5.22 3.52zm-10.79 11.75h-6.16v.75h2.87V20a14.23 14.23 0 0 1-.82 5.5 4.68 4.68 0 0 1-4.24 2.35c-2.27 0-2.95-1.05-2.95-4.37V12.17h-6.16v.75h2.87v10c0 2.15.21 3.24.89 4.12a6 6 0 0 0 4.75 1.8 6.06 6.06 0 0 0 5.66-2.93v2.51h6.12v-.75h-2.83zm-32.88 7.09c.08-3.61.13-3.94.47-4.62a4.07 4.07 0 0 1 3.86-2.05 4.31 4.31 0 0 1 3.78 1.76c.42.71.64 2.31.64 4.91v2.06a14.88 14.88 0 0 1-.51 4.62 4.06 4.06 0 0 1-3.9 2.06 4.29 4.29 0 0 1-3.73-1.77c-.47-.75-.47-1-.6-4.91zm4.37-7.51a8.43 8.43 0 0 0-8.35 8.52 8.35 8.35 0 1 0 16.7.12 8.38 8.38 0 0 0-8.35-8.64m-17.43.42h-6.16v.75h2.87v14.74h-2.87v.75h9v-.75h-2.83v-4.87c0-3.44.13-4.66.86-6.59s1.5-2.9 2.35-2.9c.39 0 .56.21.61.67 0 1.43.51 2.1 1.49 2.1s1.67-.84 1.67-2.1a2.19 2.19 0 0 0-2.39-2.22 3.9 3.9 0 0 0-3.3 1.85 13.64 13.64 0 0 0-1.29 2.77zm-13.83.75h4.54v-.75H727V5.5h-.42c-.82 2.81-3.47 6-5.65 6.8v.62h2.78v11c0 1.93.17 2.69.81 3.49a4.38 4.38 0 0 0 3.48 1.42c2.53 0 3.94-1.13 4.41-3.52h-.85c-.35 1.59-1.08 2.27-2.45 2.27-1.54 0-2.14-.8-2.14-2.73zm-25.31 21.87c2.57-2.22 3.94-4.57 3.94-6.88s-1.54-4.2-3.55-4.2a2.54 2.54 0 0 0-2.62 2.69c0 1.39.78 2.3 2 2.3a1.85 1.85 0 0 0 1.8-2 3.9 3.9 0 0 0 0-.63 2.45 2.45 0 0 1 1.46 2.48c0 1.72-1 3.31-3.47 5.75zm-17.26-3.44h6.64c2.4 0 2.4 0 2.95.21a1.57 1.57 0 0 1 1 1.68c0 3.19-3.35 5.84-7.46 5.84-3.34 0-5.57-1.81-5.57-4.46a4.13 4.13 0 0 1 1.59-3.27zm.13-15c0-2.77.77-3.73 3.05-3.73s2.95.71 2.95 3.52v2.73c0 3-.64 3.82-3 3.82s-3-.79-3-3.82zm-.38 11.34c-2 0-3-.5-3-1.52s1.12-2.18 3.09-3.31a8.32 8.32 0 0 0 3.3.67c3.68 0 6.5-2.47 6.5-5.75a5.59 5.59 0 0 0-1.2-3.78c.51-.5.9-.75 1.24-.75a.54.54 0 0 1 .6.5c.17 1.05.47 1.43 1.24 1.43s1.29-.59 1.29-1.55a1.67 1.67 0 0 0-1.89-1.63c-1 0-1.67.38-3 1.6a6.27 6.27 0 0 0-4.76-1.85c-3.81 0-6.55 2.43-6.55 5.83a5.53 5.53 0 0 0 2.53 4.79 6.8 6.8 0 0 1-.56.42 14.58 14.58 0 0 0-1.41 1 5.05 5.05 0 0 0-1.93 3.78c0 1.92 1 3.14 3.26 3.73-2.4 1-3.26 2-3.26 3.69 0 2.86 3.26 4.91 7.71 4.91 5.18 0 8.77-3.18 8.77-7.81 0-1.84-.55-3.14-1.58-3.81-.81-.5-1.67-.63-3.72-.63zm-21.24-15.52h-6.16v.75h2.87v14.74h-2.87v.75h9v-.75h-2.83v-6.72c0-3 .22-4.66.73-5.67a4.86 4.86 0 0 1 4.2-2.56c1.93 0 2.83 1.09 2.83 3.45v11.5h-2.87v.75h9v-.75H674V17.29a5.25 5.25 0 0 0-1.15-3.86 5.78 5.78 0 0 0-4.33-1.68c-2.27 0-3.81.8-5.57 2.81zM649.42 1a2.26 2.26 0 0 0-2.27 2.22 2.27 2.27 0 0 0 2.27 2.26 2.29 2.29 0 0 0 2.31-2.22A2.28 2.28 0 0 0 649.42 1m2 11.2h-6.16v.75h2.87v14.71h-2.87v.75h9v-.75h-2.83zM628 .42h-6.16v.75h2.87v26.49h-2.87v.75h9v-.75H628V21a14.13 14.13 0 0 1 .73-5.33 5.07 5.07 0 0 1 4.58-2.94c2.27 0 3.17 1 3.17 3.7v11.23h-2.87v.75h9v-.75h-2.83V16.41c0-3.15-1.7-4.66-5.35-4.66-2.74 0-4.36.75-6.42 2.94zm-13.48 12.5h4.53v-.75h-4.53V5.5h-.43c-.82 2.81-3.47 6-5.65 6.8v.62h2.78v11c0 1.93.17 2.69.81 3.49a4.39 4.39 0 0 0 3.51 1.42c2.53 0 3.94-1.13 4.41-3.52h-.85c-.35 1.59-1.07 2.27-2.44 2.27-1.55 0-2.14-.8-2.14-2.73zm-21.11 6.34c.08-3.61.13-3.94.47-4.62a4.06 4.06 0 0 1 3.85-2.05 4.32 4.32 0 0 1 3.78 1.76c.42.71.64 2.31.64 4.91v2.06a14.48 14.48 0 0 1-.52 4.62 4 4 0 0 1-3.9 2.06 4.27 4.27 0 0 1-3.73-1.77c-.47-.75-.47-1-.6-4.91zm4.37-7.51a8.43 8.43 0 0 0-8.35 8.52 8.35 8.35 0 1 0 16.69.12 8.37 8.37 0 0 0-8.34-8.64m-24.92.42h-6.16v.75h2.87v14.74h-2.87v.75h9v-.75h-2.83v-6.72c0-3 .21-4.66.73-5.67a4.86 4.86 0 0 1 4.2-2.56c1.92 0 2.82 1.09 2.82 3.45v11.5h-2.87v.75h9v-.75h-2.82V17.29a5.25 5.25 0 0 0-1.16-3.86 5.74 5.74 0 0 0-4.32-1.68c-2.27 0-3.81.8-5.57 2.81zm-25 .75H552v-.75h-4.07V5c0-2.18.13-2.77.64-3.48a2.4 2.4 0 0 1 1.93-.88 1.85 1.85 0 0 1 1.5.5 2 2 0 0 0-.86 1.72 1.58 1.58 0 0 0 1.46 1.77 1.66 1.66 0 0 0 1.4-1.82c0-1.64-1.44-2.81-3.46-2.81a5.45 5.45 0 0 0-4.19 2.09c-1.35 1.64-1.75 3.15-1.75 6.43v3.65h-3.73v.75h3.73v14.74h-3.73v.75h10.79v-.75h-3.77zm-22.35 6.34c.09-3.61.13-3.94.47-4.62a4.07 4.07 0 0 1 3.86-2.05 4.31 4.31 0 0 1 3.77 1.76c.43.71.64 2.31.64 4.91v2.06a14.57 14.57 0 0 1-.51 4.62 4.05 4.05 0 0 1-3.9 2.06 4.29 4.29 0 0 1-3.73-1.77c-.47-.75-.47-1-.6-4.91zm4.37-7.51a8.43 8.43 0 0 0-8.34 8.52 8.35 8.35 0 1 0 16.69.12 8.38 8.38 0 0 0-8.35-8.64m-37.56 6.88a14.84 14.84 0 0 1 .42-4.11 2.75 2.75 0 0 1 2.83-1.93c3.08 0 5.06 3 5.06 7.76 0 4.58-2 7.65-4.93 7.65a3 3 0 0 1-2.87-1.89c-.39-.93-.51-2.1-.51-4.62zm8.44 9.78h6.15v-.75h-2.87V.42h-6.72v.75h3.44v14.36c-1.42-2.73-2.92-3.78-5.32-3.78-4.11 0-7.1 3.57-7.1 8.52s3.07 8.56 7.23 8.56c2.4 0 3.77-1 5.19-3.94zM480.88 1a2.26 2.26 0 0 0-2.27 2.22 2.29 2.29 0 0 0 4.57 0 2.27 2.27 0 0 0-2.3-2.22m2 11.2h-6.16v.75h2.87v14.71h-2.87v.75h9v-.75h-2.83zm-14.46 9.24a10.21 10.21 0 0 1-.39 3.27 3.89 3.89 0 0 1-3.47 2.48 2.67 2.67 0 0 1-2.78-2.9 3.56 3.56 0 0 1 1.88-3.29c1.25-.72 2.32-.93 4.72-1zm0-2a16.65 16.65 0 0 0-6 .88c-2.49 1-3.85 2.65-3.85 4.7 0 2.35 1.75 3.86 4.49 3.86 2.44 0 4.07-1 5.4-3.4.34 2.44 1.24 3.4 3.2 3.4 1 0 1.5-.17 2.92-1.17l-.39-.5a1.85 1.85 0 0 1-1.29.63c-.85 0-1.15-.47-1.15-1.77v-9.49c0-1.77-.39-2.78-1.33-3.53a7.26 7.26 0 0 0-4.49-1.3c-3.34 0-6.25 1.89-6.25 4a1.64 1.64 0 0 0 1.54 1.84 1.56 1.56 0 0 0 1.46-1.59 2 2 0 0 0-.56-1.35 1.21 1.21 0 0 1-.3-.59c0-.67 1.93-1.55 3.51-1.55 2.1 0 3.05.88 3.05 2.73zm-19.14-7.22h-6.17v.75h2.87v14.69h-2.87v.75h9v-.75h-2.82v-4.87c0-3.44.12-4.66.85-6.59s1.5-2.9 2.36-2.9c.38 0 .55.21.59.67 0 1.43.52 2.1 1.5 2.1s1.67-.84 1.67-2.1a2.19 2.19 0 0 0-2.4-2.22 3.9 3.9 0 0 0-3.29 1.85 13.19 13.19 0 0 0-1.28 2.77zm-13 .75h4.07v-.75h-4.07V5c0-2.18.13-2.77.64-3.48a2.4 2.4 0 0 1 1.93-.88 1.85 1.85 0 0 1 1.5.5 2 2 0 0 0-.86 1.72 1.58 1.58 0 0 0 1.46 1.77 1.67 1.67 0 0 0 1.46-1.85c0-1.64-1.46-2.81-3.47-2.81a5.45 5.45 0 0 0-4.2 2.09c-1.32 1.64-1.75 3.15-1.75 6.43v3.65h-3.79v.75h3.73v14.77h-3.73v.75H440v-.75h-3.77zm-14.48 8.44a10.57 10.57 0 0 1-.38 3.27 3.92 3.92 0 0 1-3.48 2.48 2.67 2.67 0 0 1-2.78-2.9 3.55 3.55 0 0 1 1.93-3.26c1.24-.72 2.31-.93 4.71-1zm0-2a16.65 16.65 0 0 0-6 .88c-2.48 1-3.85 2.65-3.85 4.7 0 2.35 1.75 3.86 4.49 3.86 2.44 0 4.07-1 5.4-3.4.34 2.44 1.24 3.4 3.21 3.4 1 0 1.5-.17 2.91-1.17l-.39-.5a1.85 1.85 0 0 1-1.28.63c-.86 0-1.16-.47-1.16-1.77v-9.46c0-1.77-.38-2.78-1.32-3.53a7.31 7.31 0 0 0-4.5-1.3c-3.34 0-6.25 1.89-6.25 4a1.64 1.64 0 0 0 1.54 1.84 1.56 1.56 0 0 0 1.5-1.59 2 2 0 0 0-.56-1.35 1.21 1.21 0 0 1-.3-.59c0-.67 1.93-1.55 3.52-1.55 2.1 0 3 .88 3 2.73zm-26.14-7.55h-.56l-.6 1.5a6.18 6.18 0 0 0-4.15-1.59 4.89 4.89 0 0 0-5.13 5 4.54 4.54 0 0 0 4 4.75l3.29.67c1.85.34 2.75 1.18 2.75 2.52 0 1.81-1.76 3.28-3.9 3.28a5.11 5.11 0 0 1-4.41-2.57 8.14 8.14 0 0 1-1.16-3.23h-.72v6.21h.43l1-1.59c1.79 1.55 3 2 4.71 2a5.24 5.24 0 0 0 5.39-5.54c0-3-1.49-4.62-4.84-5.29l-1.92-.38c-2.45-.46-3.3-1-3.3-2.09 0-1.64 1.63-2.94 3.64-2.94a4.67 4.67 0 0 1 4.8 4.07h.72zM377 1a2.26 2.26 0 0 0-2.27 2.22A2.27 2.27 0 0 0 377 5.45a2.29 2.29 0 0 0 2.31-2.22A2.28 2.28 0 0 0 377 1m2 11.2h-6.16v.75h2.87v14.71h-2.87v.75h9v-.75H379zm-34.36 7.09c.09-3.61.13-3.94.47-4.62a4.07 4.07 0 0 1 3.89-2.08 4.31 4.31 0 0 1 3.77 1.76c.43.71.64 2.31.64 4.91v2.06a14.57 14.57 0 0 1-.51 4.62A4.05 4.05 0 0 1 349 28a4.29 4.29 0 0 1-3.73-1.77c-.47-.75-.47-1-.6-4.91zm4.36-7.54a8.43 8.43 0 0 0-8.35 8.52 8.35 8.35 0 1 0 16.7.12 8.38 8.38 0 0 0-8.35-8.64M323.33.42h-6.16v.75H320v26.49h-2.87v.75h9v-.75h-2.83V21a14.13 14.13 0 0 1 .73-5.33 5.07 5.07 0 0 1 4.58-2.94c2.28 0 3.17 1 3.17 3.7v11.23h-2.87v.75h9v-.75h-2.82V16.41c0-3.15-1.71-4.66-5.35-4.66-2.74 0-4.37.75-6.43 2.94zm-15.41 28.41h1.24l5.14-15.91h1.89v-.75h-5.61v.75h2.74l-3.68 11.55-4.71-12.3H304l-3.85 12.3-4.32-11.55h3.12v-.75H290v.75h2.19l6.2 15.87h1.29l3.64-11.33zm-37.48-16.66h-6.16v.75h2.87v14.74h-2.87v.75h9v-.75h-2.82v-4.87c0-3.44.13-4.66.85-6.59s1.5-2.9 2.36-2.9c.38 0 .56.21.6.67 0 1.43.51 2.1 1.5 2.1s1.67-.84 1.67-2.1a2.2 2.2 0 0 0-2.4-2.22 3.89 3.89 0 0 0-3.29 1.85 13.11 13.11 0 0 0-1.29 2.77zm-13.35 5.92h-7.5v-1.43c0-2.77 1.24-4.07 3.9-4.07s3.6 1.09 3.6 3.69zm-7.5.75H261a7.17 7.17 0 0 0-7.32-7.09 7.32 7.32 0 0 0-5.95 3 9.09 9.09 0 0 0-2 5.58 8.56 8.56 0 0 0 8.27 8.5 6.68 6.68 0 0 0 6.81-5.83H260a5.88 5.88 0 0 1-6 5 4.2 4.2 0 0 1-3.42-1.47c-.78-.93-1-2-1-4.46zM238.21 1a2.26 2.26 0 0 0-2.27 2.22 2.29 2.29 0 0 0 4.57 0 2.27 2.27 0 0 0-2.3-2.22m2 11.2H234v.75h2.87v14.71H234v.75h9v-.75h-2.83zm-23.29 6.46a14.74 14.74 0 0 1 .43-4.11 2.75 2.75 0 0 1 2.83-1.93c3.09 0 5.05 3 5.05 7.76 0 4.58-2 7.65-4.92 7.65a3 3 0 0 1-2.87-1.89c-.39-.93-.52-2.1-.52-4.62zm8.44 9.78h6.16v-.75h-2.86V.42h-6.76v.75h3.42v14.36c-1.41-2.73-2.91-3.78-5.31-3.78-4.11 0-7.1 3.57-7.1 8.52s3.08 8.56 7.23 8.56c2.4 0 3.77-1 5.18-3.94zM207.38.42h-6.59v.75h3.3v26.49h-3.3v.75h9.84v-.75h-3.25zm-21.57 18.84c.08-3.61.12-3.94.46-4.62a4.07 4.07 0 0 1 3.86-2.05 4.31 4.31 0 0 1 3.77 1.76c.43.71.64 2.31.64 4.91v2.06a14.57 14.57 0 0 1-.51 4.62 4 4 0 0 1-3.9 2.06 4.29 4.29 0 0 1-3.73-1.77c-.47-.75-.47-1-.59-4.91zm4.36-7.51a8.43 8.43 0 0 0-8.34 8.52 8.35 8.35 0 1 0 16.69.12 8.38 8.38 0 0 0-8.35-8.64m-12.67.09h-.5l-.6 1.5a6.22 6.22 0 0 0-4.15-1.59 4.9 4.9 0 0 0-5.14 5 4.54 4.54 0 0 0 4 4.75l3.3.67c1.84.34 2.74 1.18 2.74 2.52 0 1.81-1.76 3.28-3.9 3.28a5.14 5.14 0 0 1-4.42-2.57 8.48 8.48 0 0 1-1.15-3.23h-.72v6.21h.43l1-1.59c1.8 1.55 2.95 2 4.71 2a5.24 5.24 0 0 0 5.39-5.54c0-3-1.49-4.62-4.83-5.29l-1.93-.38c-2.44-.46-3.3-1-3.3-2.09 0-1.64 1.63-2.94 3.64-2.94a4.67 4.67 0 0 1 4.8 4.07h.72zM97.2 117.22H43.77L70.62 38zm1.88 4.83l18 52.63H91.56v4.83h73v-4.83h-20.4L85.39.42h-7.25L17.19 174.68H0v4.83h47.53v-4.83H23.9l18-52.63zM571.84 331.1H588v-2.77h-16.16v-24.59h-1.52c-2.88 10.36-12.3 22.11-20.06 25.05v2.31h9.9v40.53c0 7.12.6 9.9 2.88 12.84 2.73 3.39 7 5.24 12.45 5.24 9 0 14-4.16 15.68-13h-3c-1.21 5.87-3.8 8.35-8.66 8.35-5.48 0-7.62-2.94-7.62-10.06zm-37-2.77H513v2.77h10.19v26.13c0 9.14-1.21 16.88-2.88 20.28-2.74 5.41-8.54 8.66-15.07 8.66-8.07 0-10.51-3.87-10.51-16.08v-41.76h-21.89v2.77H483v36.82c0 7.89.76 11.91 3.17 15.16 3.2 4.17 9.28 6.63 16.89 6.63 9.29 0 14.76-2.92 20.09-10.81v9.27h21.75v-2.77h-10.01zm-115.41 26.12c.31-13.3.46-14.54 1.69-17 2-4.64 7.29-7.58 13.69-7.58 5.93 0 10.81 2.32 13.4 6.5 1.52 2.62 2.28 8.5 2.28 18.09V362c0 8.06-.76 14.71-1.83 17-2.12 4.79-7.3 7.57-13.85 7.57-5.93 0-10.81-2.47-13.24-6.49-1.68-2.79-1.68-3.71-2.14-18.11zM435 326.78c-16.43 0-29.66 14.06-29.66 31.38 0 17.65 13.23 31.55 29.66 31.55s29.66-14.06 29.66-31.08c0-17.94-12.91-31.85-29.66-31.85M379.61 363c0 6.82-.31 11.77-.91 14.24-1.37 6.19-5.18 9.43-11.27 9.43-5.32 0-10.05-2.78-13.55-7.73-3.05-4.64-4.72-12.06-4.72-21.82 0-16.39 7-27.22 17.81-27.22 4.88 0 8.68 2.16 10.66 5.88 1.52 2.94 2 6.34 2 14.69zm-30.14-78h-21.9v2.77h10.2v97.63h-10.2v2.77h21.9v-10.66c5.32 9 10 12.2 18.26 12.2 14.61 0 26-13.9 26-32 0-17.79-10.94-30.92-25.7-30.92-8.38 0-13.71 3.7-18.57 13zm-47.13 77.33q0 8.13-1.37 12.07c-2.13 5.41-7.15 9.12-12.34 9.12-5.94 0-9.9-4.18-9.9-10.67a13.26 13.26 0 0 1 6.86-11.85c4.42-2.63 8.23-3.4 16.75-3.71zm0-7.42c-11 .31-16 1.08-21.47 3.25-8.82 3.55-13.68 9.74-13.68 17.32 0 8.66 6.22 14.21 15.95 14.21 8.69 0 14.47-3.86 19.2-12.51 1.21 9 4.4 12.51 11.38 12.51 3.66 0 5.33-.62 10.35-4.31l-1.36-1.86c-1.83 1.7-3 2.32-4.57 2.32-3 0-4.11-1.7-4.11-6.5v-34.79c0-6.49-1.36-10.21-4.71-13-3.64-3.09-9.57-4.78-16-4.78-11.88 0-22.21 7-22.21 14.83 0 4 2.27 6.81 5.47 6.81s5.48-2.63 5.48-6.19c0-1.85-.46-2.78-2-5a4.49 4.49 0 0 1-1.07-2.16c0-2.48 6.85-5.72 12.48-5.72 7.47 0 10.82 3.24 10.82 10.05z" class="b39a355b-49ff-4676-9060-47775b8ca8d5"/></g></svg>