<svg xmlns="http://www.w3.org/2000/svg" id="Layer_1" viewBox="0 0 363 296.8" width="363" height="296.8"><style>.st0{fill:#787878}.st1{fill:#2997ff}</style><g id="a5aa1b63-5bd2-4389-81ed-966d048faa97"><g id="b1839b9b-9fd0-4519-ba49-b37fc5dce2e2"><path d="M363 296.8h-50.1v-3H363v3zm-157.9 0H150v-3h55.1v3zM363 282.4h-88.1v-3H363v3zm-140.9 0H134v-3h88.1v3zM363 268h-88.1v-3H363v3zm-140.9 0H134v-3h88.1v3zM363 253.6h-88.1v-3H363v3zm-140.9 0H134v-3h88.1v3zM363 239.2h-88.1v-3H363v3zm-140.9 0H134v-3h88.1v3zM363 224.8h-88.1v-3H363v3zm-140.9 0H134v-3h88.1v3zM356 126.1h-88.1v-3H356v3zm-133.9 0H134v-3h88.1v3zm-133.9 0H.1v-3h88.1v3zM356 111.7h-74.1v-3H356v3zm-146.9 0H146v-3h63.1v3zm-135.9 0H.1v-3h73.1v3zM356 97.3h-88.1v-3H356v3zm-133.9 0H134v-3h88.1v3zm-133.9 0H.1v-3h88.1v3zM356 82.9h-74.1v-3H356v3zm-146.9 0H146v-3h63.1v3zm-135.9 0H.1v-3h73.1v3zM356 68.5h-88.1v-3H356v3zm-133.9 0H134v-3h88.1v3zm-133.9 0H.1v-3h88.1v3zM356 54.1h-74.1v-3H356v3zm-146.9 0H146v-3h63.1v3zm-135.9 0H.1v-3h73.1v3z" class="st0"/><path d="M6.6 10.2H2.9l-.7 2.6H0L3.4 1.7H6l3.4 11.1H7.2l-.6-2.6zm-.5-1.6L4.7 3.3 3.3 8.6h2.8zm4.4 2.2V.9l2.1-.2v10.1c0 .4.1.6.5.6.2 0 .3 0 .5-.1l.5 1.4c-.4.2-.9.3-1.4.3-1.1.1-2-.7-2.1-1.7-.1-.2-.1-.3-.1-.5zm7.2-9.6c0 .7-.6 1.3-1.3 1.3-.7 0-1.3-.6-1.3-1.3 0-.7.6-1.3 1.3-1.3.7 0 1.3.6 1.3 1.3zm-.3 11.5h-2.1V4.3h2.1v8.4zm9.8-8c-.8.3-1.6.4-2.4.3.9.3 1.6 1.2 1.5 2.2 0 1.6-1.3 2.8-3.4 2.8-.3 0-.7 0-1-.1-.2.1-.3.4-.4.6 0 .3.2.6 1 .6h1.3c1.9 0 3.1 1 3.1 2.4 0 1.7-1.5 2.7-4.2 2.7-3 0-3.9-1-3.9-2.7h1.8c0 .9.4 1.2 2 1.2s2.1-.5 2.1-1.1-.5-1-1.4-1h-1.2c-1.7 0-2.4-.8-2.4-1.6 0-.7.4-1.3 1-1.6C19.8 9 19.2 8 19.2 7c0-1.8 1.5-3 3.5-3 1.4.1 2.8-.2 4-.9l.5 1.6zm-5.9 2.4c-.1.8.5 1.5 1.3 1.7h.2c1 0 1.5-.6 1.5-1.7s-.5-1.6-1.5-1.6c-.8 0-1.5.6-1.5 1.4v.2zm14-.5v6.1h-2V6.9c0-1.1-.4-1.4-1-1.4-.8.1-1.5.6-1.8 1.3v5.9h-2.1V4.3h1.8l.2 1.1c.6-.8 1.5-1.3 2.6-1.3 1.3-.1 2.3.9 2.4 2.1-.1.1-.1.3-.1.4zm8.5 4.4h4.4l-.2 1.8h-6.3V1.7h2.1V11zm12.4-1.8h-5.3c.2 1.7 1 2.3 2.1 2.3.8 0 1.5-.3 2.1-.8l.9 1.2c-.9.7-2 1.1-3.1 1.1-2.6 0-4-1.8-4-4.4s1.4-4.5 3.8-4.5 3.7 1.6 3.7 4.3c-.1.2-.1.5-.2.8zm-2-1.5c0-1.4-.5-2.2-1.7-2.2-1 0-1.6.6-1.7 2.3l3.4-.1zm6.2-4.3v.9H62l-.2 1.5h-1.3v7h-2v-7H57V4.3h1.4v-.9c0-1.5 1-2.7 3-2.7.5 0 .9.1 1.4.2l-.4 1.5c-.3-.1-.5-.1-.8-.1-.9-.1-1.2.3-1.2 1.1zm8.1 9c-.6.4-1.4.6-2.1.6-1.7 0-2.5-1-2.5-2.8V5.8h-1.3V4.3h1.3V2.4l2-.2v2.1h2l-.2 1.5h-1.8v4.5c0 .8.3 1.2.9 1.2.4 0 .7-.1 1-.3l.7 1.2zM4.8 27.5H3.5V32H1.4V20.9h3.3c2.9 0 4.4 1 4.4 3.2 0 1.4-.9 2.6-2.2 3L9.7 32H7.3l-2.5-4.5zM3.5 26h1.3c1.3 0 2.1-.5 2.1-1.9s-.7-1.7-2.2-1.7H3.5V26zm14.3 4.8l-.4 1.4c-.8 0-1.6-.5-1.9-1.2-.5.8-1.5 1.3-2.5 1.2-1.4.1-2.6-.9-2.7-2.3v-.3c0-1.8 1.4-2.8 3.8-2.8h1.1v-.5c0-1.1-.5-1.5-1.6-1.5-.8 0-1.5.2-2.3.5l-.5-1.4c1-.4 2-.6 3-.7 2.3 0 3.3 1 3.3 2.9v3.6c.1.7.3 1 .7 1.1zm-2.6-1.1V28h-.9c-1.3 0-2 .5-2 1.5-.1.6.3 1.2.9 1.3h.3c.7-.1 1.4-.5 1.7-1.1zM27 23.9c-.8.2-1.6.3-2.5.3.9.3 1.6 1.2 1.5 2.2 0 1.6-1.3 2.9-3.4 2.9-.3 0-.7 0-1-.1-.2.1-.4.4-.4.6 0 .3.2.6 1 .6h1.3c1.9 0 3.1 1 3.1 2.4 0 1.7-1.5 2.7-4.2 2.7-3 0-3.9-1-3.9-2.7h1.8c0 .8.4 1.2 2 1.2s2.1-.5 2.1-1.1-.5-1-1.4-1h-1.2c-1.7 0-2.4-.8-2.4-1.6 0-.7.4-1.3 1-1.6-1-.4-1.6-1.4-1.5-2.4 0-1.8 1.5-3 3.5-3 1.4.1 2.8-.2 4-.9l.6 1.5zm-5.9 2.3c-.1.8.5 1.5 1.3 1.7h.2c1 0 1.5-.6 1.5-1.7s-.5-1.6-1.5-1.6c-.8 0-1.5.6-1.5 1.4v.2zm6.6-.1h4.8v1.6h-4.8v-1.6zm10.4 1.4h-1.3V32h-2.1V20.9H38c2.9 0 4.4 1 4.4 3.2 0 1.4-.9 2.6-2.2 3l3 4.8h-2.5l-2.6-4.4zM36.7 26H38c1.3 0 2-.5 2-1.9s-.7-1.7-2.2-1.7h-1.1V26zm9.9-5.6c0 .7-.5 1.3-1.2 1.4-.7 0-1.3-.5-1.4-1.2 0-.7.5-1.3 1.2-1.4h.1c.7 0 1.2.5 1.3 1.2zM46.3 32h-2v-8.5h2V32zm9.8-8.1c-.8.2-1.6.3-2.5.3.9.3 1.6 1.2 1.5 2.2 0 1.6-1.3 2.9-3.4 2.9-.3 0-.7 0-1-.1-.2.1-.3.4-.3.6 0 .3.2.6 1 .6h1.3c1.9 0 3.1 1 3.1 2.4 0 1.7-1.5 2.7-4.2 2.7-3 0-3.8-1-3.8-2.7h1.8c0 .8.4 1.2 2 1.2s2.1-.5 2.1-1.1-.5-1-1.4-1H51c-1.7 0-2.4-.8-2.4-1.6 0-.7.4-1.3 1-1.6-.9-.4-1.5-1.4-1.5-2.4 0-1.8 1.5-3 3.5-3 1.4.1 2.8-.2 4-.9l.5 1.5zm-5.9 2.3c-.1.8.5 1.5 1.3 1.7h.2c1 0 1.5-.6 1.5-1.7s-.5-1.6-1.5-1.6c-.8 0-1.5.6-1.5 1.4v.2zm14-.4V32h-2v-5.8c0-1.1-.4-1.4-1-1.4-.8.1-1.4.6-1.8 1.3V32h-2.1V20.1l2-.2v4.6c.6-.8 1.5-1.3 2.5-1.3 1.3-.1 2.4.9 2.4 2.2.1.1.1.3 0 .4zm7.2 5.8c-.6.4-1.4.7-2.1.7-1.7 0-2.6-1-2.6-2.8V25h-1.3v-1.5h1.3v-1.9l2-.2v2.1h2l-.2 1.5h-1.7v4.4c0 .8.3 1.2.9 1.2.4 0 .7-.1 1-.3l.7 1.3zm69-21.4h-3.7l-.7 2.6h-2.2l3.4-11.1h2.7l3.4 11.1h-2.2l-.7-2.6zm-.4-1.6l-1.4-5.3-1.4 5.3h2.8zm4.4 2.2V.9l2.1-.2v10.1c0 .4.1.6.5.6.2 0 .3 0 .5-.1l.4 1.4c-.4.2-.9.3-1.4.3-1.1.1-2-.7-2.1-1.8v-.4zm7.2-9.6c-.1.7-.7 1.2-1.4 1.1-.6-.1-1-.5-1.1-1.1.1-.7.7-1.2 1.4-1.2.5.1 1 .6 1.1 1.2zm-.3 11.5h-2.1V4.3h2.1v8.4zm9.8-8c-.8.2-1.6.3-2.4.3.9.3 1.6 1.2 1.5 2.2 0 1.6-1.3 2.8-3.4 2.8-.3 0-.7 0-1-.1-.2.1-.3.4-.4.6 0 .3.2.6 1 .6h1.3c1.9 0 3.1 1 3.1 2.4 0 1.7-1.5 2.7-4.2 2.7-3 0-3.9-1-3.9-2.7h1.8c0 .9.4 1.2 2 1.2s2.1-.5 2.1-1.1-.5-1-1.4-1H156c-1.7 0-2.4-.8-2.4-1.6 0-.7.4-1.3 1-1.6-.9-.4-1.5-1.4-1.5-2.4 0-1.8 1.5-3 3.5-3 1.4.1 2.8-.2 4-.9l.5 1.6zm-5.9 2.4c-.1.8.5 1.5 1.3 1.7h.2c1 0 1.5-.6 1.5-1.7s-.5-1.6-1.5-1.6c-.8 0-1.5.6-1.5 1.4v.2zm14-.5v6.1h-2.1V6.9c0-1.1-.4-1.4-1-1.4-.8.1-1.5.6-1.8 1.3v5.9h-2V4.3h1.8l.2 1.1c.6-.8 1.5-1.3 2.6-1.3 1.3 0 2.3 1 2.3 2.2v.3zm13.9-4L182 3.9c-.6-.5-1.3-.8-2-.8-1.5 0-2.7 1.1-2.7 4.1s1.1 4.1 2.7 4.1c.8 0 1.6-.3 2.3-.9l1 1.2c-.9.9-2.1 1.4-3.3 1.4-2.9 0-4.9-2-4.9-5.8s2.1-5.7 4.8-5.7c1.2-.1 2.3.4 3.2 1.1zm8.1 6.6h-5.3c.2 1.7 1 2.3 2.1 2.3.8 0 1.5-.3 2.1-.8l.9 1.2c-.9.7-2 1.1-3.1 1.1-2.6 0-4-1.8-4-4.4s1.4-4.5 3.8-4.5 3.7 1.6 3.7 4.3c-.1.2-.2.5-.2.8zm-2-1.5c0-1.4-.5-2.2-1.6-2.2-1 0-1.6.6-1.7 2.3l3.3-.1zM200 6.6v6.1h-2V6.9c0-1.1-.4-1.4-1-1.4-.8.1-1.5.6-1.8 1.3v5.9h-2.1V4.3h1.8l.1 1.1c.6-.8 1.6-1.3 2.6-1.3 1.3-.1 2.3.9 2.4 2.1v.4zm7.2 5.8c-.6.4-1.4.6-2.1.6-1.7 0-2.6-1-2.6-2.8V5.8h-1.3V4.3h1.3V2.4l2-.2v2.1h2l-.2 1.5h-1.8v4.5c0 .8.3 1.2.9 1.2.4 0 .7-.1 1-.3l.8 1.2zm7.7-3.2h-5.3c.2 1.7 1 2.3 2.1 2.3.8 0 1.5-.3 2.1-.8l.9 1.2c-.9.7-2 1.1-3.1 1.1-2.6 0-4-1.8-4-4.4s1.4-4.5 3.8-4.5 3.7 1.6 3.7 4.3c-.1.2-.1.5-.2.8zM213 7.7c0-1.4-.5-2.2-1.6-2.2-1 0-1.6.6-1.7 2.3l3.3-.1zm8.8-3.5l-.4 2c-.2-.1-.5-.1-.8-.1-1 0-1.6.8-1.9 2.2v4.5h-2.1V4.3h1.8l.2 1.7c.2-1.1 1.1-1.8 2.2-1.9.5 0 .8 0 1 .1zm52.6 6h-3.7l-.7 2.6h-2.2l3.4-11.1h2.6l3.4 11.1H275l-.6-2.6zm-.4-1.6l-1.4-5.3-1.4 5.3h2.8zm4.4 2.2V.9l2-.2v10.1c0 .4.1.6.5.6.2 0 .3 0 .5-.1l.5 1.4c-.4.2-.9.3-1.4.3-1.1.1-2-.7-2.1-1.8v-.4zm7.1-9.6c-.1.7-.8 1.2-1.5 1-.5-.1-.9-.5-1-1 .1-.7.7-1.2 1.4-1.2.6.1 1.1.6 1.1 1.2zm-.2 11.5h-2V4.3h2v8.4zm9.8-8c-.8.2-1.6.3-2.5.3.9.3 1.6 1.2 1.5 2.2 0 1.6-1.3 2.8-3.4 2.8-.3 0-.7 0-1-.1-.2.1-.3.4-.4.6 0 .3.2.6 1 .6h1.3c1.9 0 3.1 1 3.1 2.4 0 1.7-1.5 2.7-4.2 2.7-3 0-3.9-1-3.9-2.7h1.9c0 .9.4 1.2 2 1.2s2.1-.5 2.1-1.1-.5-1-1.4-1H290c-1.7 0-2.4-.8-2.4-1.6 0-.7.4-1.3 1-1.6-.9-.4-1.5-1.4-1.5-2.4 0-1.8 1.5-3 3.5-3 1.4.1 2.8-.2 4-.9l.5 1.6zm-5.9 2.4c-.1.8.5 1.6 1.3 1.7h.2c1 0 1.5-.6 1.5-1.7s-.5-1.6-1.5-1.6c-.8 0-1.5.6-1.5 1.4v.2zm14-.5v6.1h-2V6.9c0-1.1-.4-1.4-1-1.4-.8.1-1.5.6-1.8 1.3v5.9h-2V4.3h1.8l.2 1.1c.6-.8 1.6-1.3 2.6-1.3 1.3-.1 2.3.9 2.4 2.2-.2.1-.2.2-.2.3zm9.8 1.7h-1.4v4.4h-2.1v-11h3.3c2.9 0 4.4 1 4.4 3.3 0 1.4-.9 2.6-2.2 3l2.9 4.8h-2.4L313 8.3zm-1.3-1.5h1.3c1.3 0 2-.5 2-1.8s-.6-1.7-2.2-1.7h-1.1v3.5zm9.9-5.6c-.1.7-.7 1.2-1.4 1.2-.6-.1-1.1-.5-1.2-1.2.1-.7.7-1.2 1.4-1.2.6.1 1.1.6 1.2 1.2zm-.3 11.5h-2V4.3h2v8.4zm9.8-8c-.8.2-1.6.3-2.5.3.9.3 1.6 1.2 1.5 2.2 0 1.6-1.3 2.8-3.4 2.8-.3 0-.7 0-1-.1-.2.1-.3.4-.4.6 0 .3.2.6 1 .6h1.3c1.9 0 3.1 1 3.1 2.4 0 1.7-1.5 2.7-4.2 2.7-3 0-3.9-1-3.9-2.7h1.8c0 .9.4 1.2 2 1.2s2.1-.5 2.1-1.1-.5-1-1.4-1H326c-1.7 0-2.4-.8-2.4-1.6 0-.7.4-1.3 1-1.6-.9-.4-1.5-1.4-1.5-2.4 0-1.8 1.5-3 3.5-3 1.4.1 2.8-.2 4-.9l.5 1.6zm-5.9 2.4c-.1.8.5 1.5 1.3 1.7h.2c1 0 1.5-.6 1.5-1.7s-.5-1.6-1.5-1.6c-.8 0-1.5.6-1.5 1.4v.2zm14-.5v6.1h-2V6.9c0-1.1-.4-1.4-1-1.4-.8.1-1.5.6-1.8 1.3v5.9h-2V.9l2-.2v4.6c.6-.8 1.5-1.3 2.5-1.2 1.3 0 2.3 1 2.3 2.3v.2zm7.2 5.8c-.6.4-1.4.6-2.1.6-1.7 0-2.5-1-2.5-2.8V5.8h-1.3V4.3h1.3V2.4l2-.2v2.1h2l-.2 1.5h-1.8v4.5c0 .8.3 1.2.9 1.2.4 0 .7-.1 1-.3l.7 1.2zm-73.7 15.1h-1.3V32h-2.1V20.9h3.3c2.9 0 4.4 1 4.4 3.2 0 1.4-.9 2.6-2.2 3l2.9 4.8h-2.4l-2.6-4.4zm-1.3-1.5h1.3c1.3 0 2-.5 2-1.9s-.7-1.7-2.2-1.7h-1.1V26zm14.3 4.8l-.4 1.4c-.8 0-1.6-.5-1.9-1.2-.6.9-1.5 1.3-2.5 1.3-1.4.1-2.6-.9-2.7-2.3v-.3c0-1.8 1.4-2.8 3.8-2.8h1.1v-.5c0-1.1-.5-1.5-1.6-1.5-.8 0-1.5.2-2.2.5l-.5-1.4c1-.4 2-.6 3.1-.7 2.3 0 3.3 1 3.3 2.9v3.6c-.1.6.1.9.5 1zm-2.6-1.1V28h-.9c-1.3 0-2 .5-2 1.5-.1.6.3 1.2.9 1.3h.3c.7-.1 1.3-.5 1.7-1.1zm11.8-5.8c-.8.2-1.6.3-2.5.3 1 .3 1.6 1.2 1.6 2.2 0 1.6-1.3 2.9-3.4 2.9-.3 0-.7 0-1-.1-.2.1-.3.4-.4.6 0 .3.2.6 1 .6h1.3c1.9 0 3.1 1 3.1 2.4 0 1.7-1.5 2.7-4.2 2.7-3 0-3.9-1-3.9-2.7h1.8c0 .8.4 1.2 2 1.2s2.1-.5 2.1-1.1-.5-1-1.4-1h-1.3c-1.7 0-2.4-.8-2.4-1.6 0-.7.4-1.3 1-1.6-.9-.4-1.5-1.4-1.5-2.4 0-1.8 1.5-3 3.5-3 1.4.1 2.8-.2 4-.9l.6 1.5zm-5.9 2.3c-.1.8.5 1.5 1.3 1.7h.2c1 0 1.5-.6 1.5-1.7s-.5-1.6-1.5-1.6c-.8 0-1.5.6-1.5 1.4v.2zm13.3 4h4.4l-.2 1.7h-6.3v-11h2.1v9.3zm12.4-1.8h-5.3c.2 1.7 1 2.3 2.1 2.3.8 0 1.5-.3 2.1-.8l.8 1.2c-.9.7-2 1.2-3.1 1.2-2.6 0-4-1.8-4-4.4s1.3-4.6 3.7-4.6 3.7 1.6 3.7 4.3v.8zm-2-1.5c0-1.4-.5-2.2-1.6-2.2-1 0-1.6.6-1.7 2.3h3.3v-.1zm6.2-4.3v.9h1.6l-.2 1.5h-1.4v7h-2v-7h-1.4v-1.5h1.4v-.9c0-1.5 1-2.7 3-2.7.5 0 .9.1 1.4.2l-.4 1.5c-.3-.1-.5-.1-.8-.1-.9-.1-1.2.3-1.2 1.1zm8.1 9c-.6.4-1.4.7-2.1.6-1.7 0-2.5-1-2.5-2.8V25H321v-1.5h1.3v-1.9l2-.2v2.1h2l-.2 1.5h-1.8v4.4c0 .8.3 1.2.9 1.2.4 0 .7-.1 1-.3l.8 1.3zm-184.3 161l-1.1 1.2c-.6-.5-1.3-.8-2-.8-1.5 0-2.7 1.1-2.7 4.1s1.1 4.1 2.7 4.1c.8 0 1.6-.3 2.3-.9l1 1.2c-.9.9-2.1 1.4-3.3 1.3-2.9 0-4.9-2-4.9-5.8s2.1-5.8 4.8-5.8c1.2.3 2.4.7 3.2 1.4zm8.2 6.6h-5.3c.2 1.7 1 2.3 2.1 2.3.8 0 1.5-.3 2.1-.8l.9 1.2c-.9.7-2 1.1-3.1 1.1-2.6 0-4-1.7-4-4.4s1.4-4.5 3.8-4.5 3.7 1.6 3.7 4.3c-.2.2-.2.6-.2.8zm-2-1.4c0-1.4-.5-2.2-1.6-2.2-1 0-1.6.6-1.7 2.3l3.3-.1zm10.8-1.2v6.1h-2.1V197c0-1.1-.4-1.4-1-1.4s-1.3.5-1.8 1.3v5.9h-2.1v-8.5h1.8l.2 1.1c.6-.8 1.5-1.3 2.6-1.3 1.3-.1 2.3.9 2.4 2.2v.3zm7.1 5.8c-.6.4-1.4.7-2.1.6-1.7 0-2.6-1-2.6-2.8v-4.5h-1.3v-1.5h1.3v-1.9l2-.2v2.1h2l-.2 1.5h-1.7v4.4c0 .8.3 1.2.9 1.2.4 0 .7-.1 1-.3l.7 1.4zm7.8-3.2h-5.3c.2 1.7 1 2.3 2.1 2.3.8 0 1.5-.3 2.1-.8l.8 1.2c-.9.7-2 1.1-3.1 1.1-2.6 0-4-1.7-4-4.4s1.4-4.5 3.8-4.5 3.7 1.6 3.7 4.3c-.1.2-.1.6-.1.8zm-2-1.4c0-1.4-.5-2.2-1.6-2.2-1 0-1.6.6-1.7 2.3l3.3-.1zm8.9-3.6l-.4 2c-.2-.1-.5-.1-.8-.1-1 0-1.6.8-1.9 2.2v4.5h-2v-8.5h1.8l.2 1.7c.2-1.1 1.1-1.8 2.2-1.9.4 0 .6.1.9.1zm.4 2.8h4.8v1.6h-4.8V197zm9.2 4.2c0 2.6-1.4 3.5-3.2 4.1l-.6-1.5c1.4-.6 1.7-1.3 1.7-2.6v-9.4h2.1v9.4zm9.2 1.6h-1.8l-.1-1.2c-.5.9-1.5 1.5-2.6 1.4-1.5 0-2.4-1-2.4-2.6v-6.1h2.1v5.8c0 1 .3 1.3 1 1.3.7-.1 1.4-.5 1.7-1.2v-5.9h2l.1 8.5zm8.1-7.7l-.8 1.2c-.6-.4-1.4-.7-2.1-.7-.8 0-1.3.3-1.3.8s.3.8 1.8 1.2c1.7.5 2.7 1.2 2.7 2.7 0 1.8-1.6 2.7-3.6 2.7-1.2 0-2.4-.4-3.4-1.2l1-1.1c.7.5 1.5.8 2.3.8.9 0 1.5-.4 1.5-1s-.3-.9-1.9-1.4c-1.8-.5-2.5-1.3-2.5-2.6 0-1.4 1.3-2.5 3.3-2.5 1.1.1 2.1.4 3 1.1zm6.7 7.3c-.6.4-1.4.7-2.1.6-1.7 0-2.6-1-2.6-2.8v-4.5h-1.3v-1.5h1.3v-1.9l2.1-.2v2.1h2l-.2 1.5h-1.8v4.4c0 .8.3 1.2.9 1.2.4 0 .7-.1 1-.3l.7 1.4zm3.5-11.2c-.1.7-.7 1.2-1.4 1.2-.6-.1-1.1-.5-1.2-1.2.1-.7.7-1.2 1.4-1.2.6.1 1.1.6 1.2 1.2zm-.3 11.5h-2v-8.5h2v8.5zm4.7-9.3v.9h2l-.2 1.5H223v7h-2v-7h-1.4v-1.5h1.4v-.9c0-1.5 1-2.7 3-2.7.8 0 1.5.2 2.2.5l-.6 1.4c-.4-.2-.9-.3-1.4-.3-.9-.1-1.2.3-1.2 1.1z"/><path d="M230.4 202.8c-.5 2-2.3 3.4-4.4 3.4l-.2-1.5c1.2 0 2.3-.8 2.7-2h-.7l-2.7-8.5h2.2l1.8 7.1 1.9-7.1h2.1l-2.7 8.6zm42.3-4.5h-1.3v4.4h-2.1v-11.1h3.3c2.9 0 4.4 1.1 4.4 3.2 0 1.4-.9 2.6-2.2 3l2.9 4.8h-2.4l-2.6-4.3zm-1.3-1.5h1.3c1.3 0 2-.5 2-1.9s-.7-1.7-2.2-1.7h-1.1v3.6zm9.8-5.6c0 .7-.5 1.3-1.2 1.3s-1.3-.5-1.3-1.2.5-1.3 1.2-1.3 1.3.5 1.3 1.2zm-.2 11.6h-2v-8.5h2v8.5zm9.8-8c-.8.2-1.6.3-2.5.3.9.3 1.6 1.2 1.5 2.2 0 1.6-1.3 2.9-3.4 2.9-.3 0-.7 0-1-.1-.2.1-.3.4-.4.6 0 .3.2.6 1 .6h1.3c1.9 0 3.1 1 3.1 2.4 0 1.7-1.5 2.7-4.2 2.7-3 0-3.9-1-3.9-2.6h1.8c0 .8.4 1.2 2 1.2s2.1-.4 2.1-1.1-.5-1-1.4-1h-1.3c-1.7 0-2.4-.8-2.4-1.6 0-.7.4-1.3 1-1.6-.9-.4-1.5-1.4-1.5-2.4 0-1.8 1.5-3 3.5-3 1.4.1 2.8-.2 4-.9l.7 1.4zm-5.9 2.3c-.1.8.5 1.5 1.3 1.7h.2c1 0 1.5-.6 1.5-1.7s-.5-1.6-1.5-1.6c-.8 0-1.5.6-1.5 1.4v.2zm14-.5v6.1h-2V197c0-1.1-.4-1.4-1-1.4-.8.1-1.4.6-1.8 1.3v5.9h-2V191l2-.2v4.6c.6-.8 1.5-1.2 2.5-1.2 1.3 0 2.3.9 2.4 2.2-.1 0-.1.1-.1.2zm7.2 5.8c-.6.4-1.4.7-2.1.6-1.7 0-2.5-1-2.5-2.8v-4.5h-1.3v-1.5h1.3v-1.9l2-.2v2.1h2l-.2 1.5h-1.8v4.4c0 .8.3 1.2.9 1.2.4 0 .7-.1 1-.3l.7 1.4zm.1-5.4h4.8v1.6h-4.8V197zm9.2 4.2c0 2.6-1.4 3.5-3.2 4.1l-.6-1.5c1.5-.6 1.7-1.3 1.7-2.6v-9.4h2.1v9.4zm9.2 1.6h-1.8l-.1-1.2c-.5.9-1.5 1.5-2.6 1.4-1.5 0-2.4-1-2.4-2.6v-6.1h2v5.8c0 1 .3 1.3 1 1.3.7-.1 1.4-.5 1.7-1.2v-5.9h2l.2 8.5zm8.1-7.7l-.8 1.2c-.6-.4-1.4-.7-2.1-.7-.8 0-1.3.3-1.3.8s.3.8 1.8 1.2c1.7.5 2.7 1.2 2.7 2.7 0 1.8-1.6 2.7-3.6 2.7-1.2 0-2.4-.4-3.4-1.2l1-1.1c.7.5 1.5.8 2.3.8.9 0 1.5-.4 1.5-1s-.3-.9-1.9-1.4c-1.8-.5-2.5-1.3-2.5-2.6 0-1.4 1.3-2.5 3.3-2.5 1.1.1 2.1.4 3 1.1zm6.7 7.3c-.6.4-1.4.7-2.1.6-1.7 0-2.5-1-2.5-2.8v-4.5h-1.3v-1.5h1.3v-1.9l2-.2v2.1h2l-.2 1.5h-1.8v4.4c0 .8.3 1.2.9 1.2.4 0 .7-.1 1-.3l.7 1.4zm3.5-11.2c0 .7-.5 1.3-1.2 1.3s-1.3-.5-1.3-1.2.5-1.3 1.2-1.3 1.2.5 1.3 1.2zm-.3 11.5h-2v-8.5h2v8.5zm4.7-9.3v.9h2l-.2 1.5h-1.8v7h-2v-7h-1.4v-1.5h1.4v-.9c0-1.5 1-2.7 3-2.7.8 0 1.5.2 2.2.5l-.6 1.4c-.4-.2-.9-.3-1.4-.3-.9-.1-1.2.3-1.2 1.1z"/><path d="M354.7 202.8c-.5 2-2.3 3.5-4.4 3.4l-.2-1.5c1.2 0 2.3-.8 2.7-2h-.7l-2.7-8.5h2.2l1.8 7.1 1.9-7.1h2.1l-2.7 8.6z"/></g></g><g id="a5aa1b63-5bd2-4389-81ed-966d048faa97_00000011012384151423154590000001717939535606092977_"><g id="b1839b9b-9fd0-4519-ba49-b37fc5dce2e2_00000121262934696855523590000009136739886577948837_"><path d="M49.6 296.8H-.5v-3h50.1v3zm38.1-14.4H-.5v-3h88.1v3zm0-14.4H-.5v-3h88.1v3zm0-14.4H-.5v-3h88.1v3zm0-14.4H-.5v-3h88.1v3zm0-14.4H-.5v-3h88.1v3zM2.9 201.1h4.4l-.2 1.7H.8v-11.1h2.1v9.4zm12.5-1.9H10c.2 1.7 1 2.3 2.1 2.3.8 0 1.5-.3 2.1-.8l.9 1.2c-.9.7-2 1.1-3.1 1.1-2.6 0-4-1.7-4-4.4s1.4-4.5 3.8-4.5 3.7 1.6 3.7 4.3c-.1.2-.1.6-.1.8zm-2-1.4c0-1.4-.5-2.2-1.6-2.2-1 0-1.6.6-1.7 2.3l3.3-.1zm6.1-4.4v.9h1.6l-.2 1.5h-1.4v7h-2.1v-7h-1.3v-1.5h1.3v-.9c0-1.5 1-2.7 3-2.7.5 0 .9.1 1.4.2l-.4 1.5c-.3-.1-.5-.1-.8-.1-.8-.1-1.1.3-1.1 1.1zm8.1 9c-.6.4-1.4.7-2.1.6-1.7 0-2.5-1-2.5-2.8v-4.5h-1.3v-1.5H23v-1.9l2-.2v2.1h2l-.2 1.5H25v4.4c0 .8.3 1.2.9 1.2.4 0 .7-.1 1-.3l.7 1.4zm.1-5.4h4.8v1.6h-4.8V197zm9.3 4.2c0 2.6-1.4 3.5-3.2 4.1l-.6-1.5c1.4-.6 1.7-1.3 1.7-2.6v-9.4H37v9.4zm9.2 1.6h-1.8l-.1-1.2c-.5.9-1.5 1.5-2.6 1.4-1.5 0-2.3-1-2.3-2.6v-6.1h2v5.8c0 1 .3 1.3 1 1.3.8 0 1.4-.5 1.7-1.2v-5.9h2l.1 8.5zm8.1-7.7l-.8 1.2c-.6-.4-1.4-.7-2.1-.7-.8 0-1.3.3-1.3.8s.3.8 1.8 1.2c1.7.5 2.7 1.2 2.7 2.7 0 1.8-1.6 2.7-3.6 2.7-1.2 0-2.4-.4-3.4-1.2l1-1.1c.7.5 1.5.8 2.3.8.9 0 1.5-.4 1.5-1s-.3-.9-1.9-1.4c-1.8-.5-2.5-1.3-2.5-2.6 0-1.4 1.3-2.5 3.3-2.5 1 .1 2.1.4 3 1.1zm6.7 7.3c-.6.4-1.4.7-2.1.6-1.7 0-2.5-1-2.5-2.8v-4.5H55v-1.5h1.3v-1.9l2.1-.2v2.1h2l-.2 1.5h-1.8v4.4c0 .8.3 1.2.9 1.2.4 0 .7-.1 1-.3l.7 1.4zm3.4-11.2c0 .7-.5 1.3-1.2 1.3s-1.3-.5-1.3-1.2.5-1.3 1.2-1.3 1.3.5 1.3 1.2zm-.2 11.5h-2v-8.5h2v8.5zm4.7-9.3v.9h2l-.2 1.5h-1.8v7h-2v-7h-1.5v-1.5h1.4v-.9c0-1.5 1-2.7 3-2.7.8 0 1.5.2 2.2.5l-.6 1.4c-.4-.2-.9-.3-1.4-.3-.8-.1-1.1.3-1.1 1.1z" class="st1"/><path d="M76.3 202.8c-.5 2-2.3 3.4-4.4 3.4l-.2-1.5c1.2 0 2.3-.8 2.7-2h-.7l-2.7-8.5h2.2l1.8 7.1 1.9-7.1H79l-2.7 8.6z" class="st1"/></g></g><g id="ade7f196-bb75-4440-8df9-77fbbb86f832"><path id="b3134d78-f3d9-425f-ba55-ae83e0bdd3a0" d="M46.7 173.1c1-1.7 2.2-3.4 3.7-4.7l4.9-4.2 4.4 4.9-16.3 14.3-16-14.5 3.9-4.4 4.9 4.4c1.5 1.2 2.7 2.7 3.7 4.4v-24.6h6.6l.2 24.4z" class="st1"/></g></svg>