<?xml version="1.0" encoding="utf-8"?>
<!-- Generator: Adobe Illustrator 26.0.3, SVG Export Plug-In . SVG Version: 6.00 Build 0)  -->
<svg version="1.1" id="Layer_1" xmlns="http://www.w3.org/2000/svg" xmlns:xlink="http://www.w3.org/1999/xlink" x="0px" y="0px"
	 viewBox="0 0 400 330.1" style="enable-background:new 0 0 400 330.1;" xml:space="preserve">
<style type="text/css">
	.st0{fill:#505050;}
	.st1{fill:#2997FF;}
</style>
<g id="a5aa1b63-5bd2-4389-81ed-966d048faa97">
	<g id="b1839b9b-9fd0-4519-ba49-b37fc5dce2e2">
		<path class="st0" d="M400,330.1h-55.1v-3.3H400V330.1z M226.2,330.1h-60.6v-3.3h60.6L226.2,330.1L226.2,330.1z M400,314.3h-96.9
			V311H400V314.3z M244.9,314.3H148V311h96.9V314.3z M400,298.4h-96.9v-3.3H400V298.4z M244.9,298.4H148v-3.3h96.9V298.4z
			 M400,282.6h-96.9v-3.3H400V282.6z M244.9,282.6H148v-3.3h96.9V282.6z M400,266.8h-96.9v-3.3H400V266.8z M244.9,266.8H148v-3.3
			h96.9V266.8z M400,250.8h-96.9v-3.3H400V250.8z M244.9,250.8H148v-3.3h96.9V250.8z M392.2,142.3h-97V139h96.9L392.2,142.3
			L392.2,142.3z M244.9,142.3h-97V139h96.9L244.9,142.3L244.9,142.3z M392.2,126.5h-81.5v-3.3h81.5V126.5z M230.6,126.5h-69.5v-3.3
			h69.4L230.6,126.5z M392.2,110.6h-97v-3.3h96.9L392.2,110.6z M244.9,110.6h-97v-3.3h96.9L244.9,110.6L244.9,110.6z M392.2,94.8
			h-81.5v-3.3h81.5V94.8z M230.6,94.8h-69.5v-3.3h69.4L230.6,94.8z M392.2,78.9h-97v-3.3h96.9L392.2,78.9z M244.9,78.9h-97v-3.3
			h96.9L244.9,78.9L244.9,78.9z M392.2,63h-81.5v-3.3h81.5V63z M230.6,63h-69.5v-3.3h69.4L230.6,63z M155.1,14.8H151l-0.8,2.8h-2.4
			l3.8-12.2h2.9l3.8,12.2H156C156,17.6,155.1,14.8,155.1,14.8z M154.6,13L153,7.2l-1.6,5.8L154.6,13L154.6,13z M159.4,15.5V4.6
			l2.3-0.2v11.1c0,0.5,0.1,0.7,0.6,0.7c0.2,0,0.4,0,0.6-0.1l0.4,1.5c-0.4,0.2-1,0.4-1.6,0.4c-1.2,0.1-2.2-0.8-2.3-2
			C159.4,16,159.4,15.5,159.4,15.5z M167.4,4.9c-0.1,0.8-0.8,1.3-1.6,1.2c-0.6-0.1-1.1-0.5-1.2-1.2c0.1-0.8,0.8-1.3,1.6-1.3
			C166.8,3.7,167.2,4.1,167.4,4.9z M167,17.5h-2.3V8.2h2.3V17.5z M177.8,8.8c-0.9,0.2-1.8,0.3-2.6,0.3c1,0.3,1.8,1.3,1.6,2.4
			c0,1.8-1.4,3.1-3.8,3.1c-0.4,0-0.8,0-1.1-0.1c-0.2,0.1-0.4,0.5-0.4,0.7c0,0.3,0.2,0.7,1.1,0.7h1.4c2.1,0,3.4,1.1,3.4,2.6
			c0,1.8-1.6,2.9-4.6,2.9c-3.3,0-4.3-1.1-4.3-2.9h2c0,0.9,0.4,1.3,2.2,1.3s2.3-0.4,2.3-1.2s-0.6-1.1-1.6-1.1H172
			c-1.9,0-2.6-0.9-2.6-1.8c0-0.8,0.4-1.5,1.1-1.8c-1-0.5-1.6-1.5-1.6-2.7c0-2,1.6-3.3,3.9-3.3c1.6,0.1,3.1-0.2,4.4-1L177.8,8.8
			L177.8,8.8z M171.3,11.3c-0.1,0.9,0.6,1.7,1.4,1.8h0.2c1.1,0,1.6-0.7,1.6-1.8c0-1.2-0.6-1.8-1.6-1.8c-0.9,0-1.6,0.7-1.6,1.5
			L171.3,11.3L171.3,11.3z M186.7,10.8v6.7h-2.3v-6.4c0-1.2-0.4-1.5-1.1-1.5c-0.9,0.1-1.6,0.7-2,1.5v6.5h-2.2V8.3h2l0.2,1.2
			c0.6-0.9,1.6-1.5,2.9-1.5c1.4,0,2.6,1.1,2.6,2.4C186.8,10.6,186.8,10.8,186.7,10.8L186.7,10.8z M202,6.4l-1.2,1.3
			c-0.6-0.5-1.4-0.9-2.2-0.9c-1.6,0-2.9,1.2-2.9,4.5s1.2,4.5,2.9,4.5c0.9,0,1.8-0.3,2.6-1l1.1,1.3c-1,1-2.3,1.5-3.6,1.5
			c-3.2,0-5.4-2.2-5.4-6.4s2.3-6.2,5.3-6.2C199.8,5.1,201,5.6,202,6.4L202,6.4z M210.9,13.6H205c0.2,1.8,1.1,2.5,2.3,2.5
			c0.9,0,1.6-0.3,2.3-0.9l1,1.3c-1,0.8-2.2,1.2-3.4,1.2c-2.9,0-4.4-2-4.4-4.8c0-3,1.6-5,4.2-5s4.1,1.8,4.1,4.8
			C211,12.9,211,13.4,210.9,13.6L210.9,13.6z M208.7,12.1c0-1.5-0.6-2.4-1.8-2.4c-1.1,0-1.8,0.7-1.9,2.5
			C205.1,12.2,208.7,12,208.7,12.1z M220.6,10.8v6.7h-2.2v-6.4c0-1.2-0.4-1.5-1.1-1.5c-0.9,0.1-1.6,0.7-2,1.5v6.5H213V8.3h2l0.1,1.2
			c0.6-0.9,1.8-1.5,2.9-1.5c1.4-0.1,2.6,1,2.6,2.3C220.7,10.5,220.7,10.7,220.6,10.8L220.6,10.8z M228.5,17.1
			c-0.6,0.5-1.6,0.7-2.3,0.7c-1.9,0-2.9-1.1-2.9-3.1v-5h-1.4V8.2h1.4V6.1l2.2-0.2v2.3h2.2l-0.2,1.7h-1.9v5c0,0.9,0.4,1.3,1,1.3
			c0.4,0,0.8-0.1,1.1-0.3L228.5,17.1L228.5,17.1z M237.1,13.6h-5.9c0.2,1.8,1.1,2.5,2.3,2.5c0.9,0,1.6-0.3,2.3-0.9l1,1.3
			c-1,0.8-2.2,1.2-3.4,1.2c-2.9,0-4.4-2-4.4-4.8c0-3,1.6-5,4.2-5s4.1,1.8,4.1,4.8C237.1,12.9,237.1,13.4,237.1,13.6L237.1,13.6z
			 M234.9,12.1c0-1.5-0.6-2.4-1.8-2.4c-1.1,0-1.8,0.7-1.9,2.5C231.2,12.2,234.9,12,234.9,12.1z M244.7,8.2l-0.4,2.2
			c-0.2-0.1-0.6-0.1-0.9-0.1c-1.1,0-1.8,0.9-2.1,2.4v5H239V8.2h2l0.2,1.8c0.2-1.2,1.2-2,2.4-2.1C244,8,244.4,8.1,244.7,8.2z
			 M302.6,14.8h-4.1l-0.8,2.8h-2.4l3.8-12.2h2.9l3.8,12.2h-2.4C303.4,17.6,302.6,14.8,302.6,14.8z M302,13l-1.5-5.8L299,13H302z
			 M306.8,15.5V4.6l2.2-0.2v11.1c0,0.5,0.1,0.7,0.5,0.7c0.2,0,0.4,0,0.5-0.1l0.5,1.5c-0.5,0.2-1,0.4-1.5,0.4c-1.2,0.1-2.2-0.8-2.3-2
			L306.8,15.5L306.8,15.5z M314.8,4.9c-0.1,0.8-0.9,1.3-1.6,1.1c-0.5-0.1-1-0.5-1.1-1.1c0.1-0.8,0.8-1.3,1.5-1.3
			C314.2,3.7,314.7,4.1,314.8,4.9z M314.4,17.5h-2.2V8.2h2.2V17.5z M325.2,8.8c-0.9,0.2-1.8,0.3-2.8,0.3c1,0.3,1.8,1.3,1.6,2.4
			c0,1.8-1.5,3.1-3.8,3.1c-0.4,0-0.8,0-1.1-0.1c-0.2,0.1-0.4,0.5-0.5,0.7c0,0.3,0.2,0.7,1.1,0.7h1.5c2.1,0,3.4,1.1,3.4,2.6
			c0,1.8-1.6,2.9-4.6,2.9c-3.3,0-4.3-1.1-4.3-2.9h2.1c0,0.9,0.5,1.3,2.2,1.3s2.3-0.4,2.3-1.2s-0.5-1.1-1.5-1.1h-1.3
			c-1.9,0-2.6-0.9-2.6-1.8c0-0.8,0.5-1.5,1.1-1.8c-1-0.5-1.6-1.5-1.6-2.7c0-2,1.6-3.3,3.9-3.3c1.5,0.1,3.1-0.2,4.4-1L325.2,8.8
			L325.2,8.8z M318.7,11.3c-0.1,0.9,0.5,1.8,1.5,1.8h0.2c1.1,0,1.6-0.7,1.6-1.8c0-1.2-0.5-1.8-1.6-1.8c-0.9,0-1.6,0.7-1.6,1.5
			L318.7,11.3z M334.1,10.8v6.7h-2.2v-6.4c0-1.2-0.5-1.5-1.1-1.5c-0.9,0.1-1.6,0.7-2,1.5v6.5h-2.2V8.3h2l0.2,1.2
			c0.6-0.9,1.8-1.5,2.9-1.5c1.5-0.1,2.5,1,2.6,2.4C334.1,10.6,334.1,10.7,334.1,10.8L334.1,10.8z M345,12.8h-1.5v4.8h-2.3V5.4h3.6
			c3.2,0,4.9,1.1,4.9,3.5c0,1.5-1,2.8-2.4,3.3l3.2,5.3h-2.6C347.8,17.4,345,12.7,345,12.8L345,12.8z M343.5,11h1.5
			c1.5,0,2.2-0.5,2.2-2.1c0-1.5-0.6-1.8-2.4-1.8h-1.2C343.5,7,343.5,11,343.5,11z M354.4,4.9c-0.1,0.8-0.8,1.3-1.5,1.3
			c-0.6-0.1-1.2-0.5-1.3-1.3c0.1-0.8,0.8-1.3,1.5-1.3C353.8,3.7,354.3,4.2,354.4,4.9z M354.1,17.5h-2.2V8.2h2.2V17.5z M364.8,8.8
			C363.9,9,363,9.1,362,9.1c1,0.3,1.8,1.3,1.6,2.4c0,1.8-1.5,3.1-3.8,3.1c-0.4,0-0.8,0-1.1-0.1c-0.2,0.1-0.4,0.5-0.5,0.7
			c0,0.3,0.2,0.7,1.1,0.7h1.5c2.1,0,3.4,1.1,3.4,2.6c0,1.8-1.6,2.9-4.6,2.9c-3.3,0-4.3-1.1-4.3-2.9h2c0,0.9,0.5,1.3,2.2,1.3
			s2.3-0.4,2.3-1.2s-0.5-1.1-1.5-1.1h-1.5c-1.9,0-2.6-0.9-2.6-1.8c0-0.8,0.5-1.5,1.1-1.8c-1-0.5-1.6-1.5-1.6-2.7
			c0-2,1.6-3.3,3.9-3.3c1.5,0.1,3.1-0.2,4.4-1C364,6.9,364.8,8.8,364.8,8.8z M358.3,11.3c-0.1,0.9,0.5,1.7,1.5,1.8h0.2
			c1.1,0,1.6-0.7,1.6-1.8c0-1.2-0.5-1.8-1.6-1.8c-0.9,0-1.6,0.7-1.6,1.5L358.3,11.3z M373.8,10.8v6.7h-2.2v-6.4
			c0-1.2-0.5-1.5-1.1-1.5c-0.9,0.1-1.6,0.7-2,1.5v6.5h-2.2v-13l2.2-0.2v5c0.6-0.9,1.6-1.5,2.8-1.3c1.5,0,2.5,1.1,2.5,2.5L373.8,10.8
			L373.8,10.8z M381.6,17.1c-0.6,0.5-1.5,0.7-2.3,0.7c-1.9,0-2.8-1.1-2.8-3.1v-5H375V8.2h1.5V6.1l2.2-0.2v2.3h2.2l-0.2,1.7h-2v5
			c0,0.9,0.4,1.3,1,1.3c0.5,0,0.8-0.1,1.1-0.3C380.9,15.8,381.7,17.2,381.6,17.1L381.6,17.1z M300.5,33.8H299v4.8h-2.3V26.5h3.6
			c3.2,0,4.9,1.1,4.9,3.5c0,1.6-1,2.8-2.4,3.3l3.2,5.3h-2.6L300.5,33.8L300.5,33.8z M299.1,32.1h1.5c1.5,0,2.2-0.6,2.2-2
			s-0.8-1.8-2.4-1.8h-1.2L299.1,32.1z M314.8,37.5l-0.5,1.6c-0.9,0-1.8-0.6-2.1-1.3c-0.6,1-1.6,1.4-2.8,1.4c-1.5,0.1-2.9-1-3-2.6
			v-0.3c0-2,1.5-3.1,4.2-3.1h1.2v-0.6c0-1.2-0.5-1.7-1.8-1.7c-0.9,0-1.6,0.2-2.4,0.4l-0.5-1.6c1.1-0.4,2.2-0.7,3.4-0.8
			c2.5,0,3.6,1.1,3.6,3.2v4.2C314.2,37,314.4,37.2,314.8,37.5L314.8,37.5z M312,36.1v-1.8h-1c-1.5,0-2.2,0.6-2.2,1.7
			c-0.1,0.7,0.4,1.3,1,1.4h0.4C310.9,37.2,311.6,36.8,312,36.1L312,36.1z M324.9,29.9c-0.9,0.2-1.8,0.3-2.8,0.3
			c1.1,0.3,1.8,1.3,1.8,2.4c0,1.8-1.5,3.1-3.8,3.1c-0.4,0-0.8,0-1.1-0.1c-0.2,0.1-0.4,0.4-0.5,0.7c0,0.3,0.2,0.7,1.1,0.7h1.5
			c2.1,0,3.4,1.1,3.4,2.7c0,1.8-1.6,2.9-4.6,2.9c-3.3,0-4.3-1.1-4.3-2.9h2c0,0.9,0.5,1.3,2.2,1.3s2.3-0.6,2.3-1.2s-0.5-1.1-1.5-1.1
			h-1.5c-1.9,0-2.6-0.9-2.6-1.8c0-0.8,0.5-1.4,1.1-1.8c-1-0.4-1.6-1.6-1.6-2.7c0-2,1.6-3.3,3.9-3.3c1.5,0.1,3.1-0.2,4.4-1
			C324.3,28.1,324.9,29.9,324.9,29.9z M318.5,32.4c-0.1,0.9,0.5,1.7,1.5,1.8h0.2c1.1,0,1.6-0.7,1.6-1.8s-0.5-1.8-1.6-1.8
			c-0.9,0-1.6,0.7-1.6,1.6L318.5,32.4z M333.1,36.8h4.9l-0.2,1.8h-7V26.5h2.3L333.1,36.8L333.1,36.8z M346.7,34.7h-5.9
			c0.2,1.8,1.1,2.6,2.3,2.6c0.9,0,1.6-0.3,2.3-0.9l0.9,1.3c-1,0.8-2.2,1.3-3.4,1.3c-2.9,0-4.4-2-4.4-4.8c0-2.9,1.5-5.1,4-5.1
			s4,1.8,4,4.8C346.8,34.1,346.7,34.5,346.7,34.7z M344.5,33.2c0-1.6-0.5-2.4-1.8-2.4c-1.1,0-1.8,0.7-1.9,2.6L344.5,33.2L344.5,33.2
			z M351.4,28.3v1h1.8L353,31h-1.5v7.7h-2.2V31h-1.5v-1.7h1.5v-1c0-1.7,1.1-2.9,3.3-2.9c0.5,0,1,0.1,1.5,0.2l-0.5,1.7
			c-0.4-0.1-0.5-0.1-0.9-0.1C351.7,27.1,351.4,27.5,351.4,28.3z M360.3,38.2c-0.6,0.4-1.5,0.8-2.3,0.7c-1.9,0-2.8-1.1-2.8-3.1v-4.9
			h-1.5v-1.7h1.5v-2.1l2.2-0.2v2.4h2.2l-0.2,1.7h-2v4.8c0,0.9,0.4,1.3,1,1.3c0.5,0,0.8-0.1,1.1-0.3
			C359.5,36.7,360.3,38.3,360.3,38.2L360.3,38.2z M157.6,215.5l-1.2,1.3c-0.6-0.5-1.4-0.9-2.2-0.9c-1.6,0-2.9,1.2-2.9,4.5
			s1.2,4.5,2.9,4.5c0.9,0,1.8-0.4,2.6-1l1.1,1.3c-1,1-2.3,1.5-3.6,1.5c-3.2,0-5.4-2.2-5.4-6.4s2.3-6.4,5.3-6.4
			C155.5,214.2,156.7,214.6,157.6,215.5L157.6,215.5z M166.5,222.8h-5.9c0.2,1.9,1.1,2.5,2.3,2.5c0.9,0,1.6-0.4,2.3-0.9l1,1.3
			c-1,0.8-2.2,1.2-3.4,1.2c-2.9,0-4.4-1.9-4.4-4.9s1.6-5,4.2-5s4.1,1.8,4.1,4.8C166.6,222.1,166.6,222.4,166.5,222.8L166.5,222.8z
			 M164.3,221.2c0-1.5-0.6-2.4-1.8-2.4c-1.1,0-1.8,0.6-1.9,2.5L164.3,221.2z M176.2,219.9v6.7h-2.3v-6.4c0-1.2-0.4-1.5-1.1-1.5
			c-0.6,0-1.4,0.5-2,1.5v6.5h-2.3v-9.4h2l0.2,1.2c0.6-0.9,1.6-1.5,2.9-1.5c1.4-0.1,2.6,1,2.6,2.4L176.2,219.9L176.2,219.9z
			 M184.1,226.2c-0.6,0.5-1.6,0.8-2.3,0.6c-1.9,0-2.9-1.1-2.9-3.1v-5h-1.4v-1.6h1.4V215l2.2-0.2v2.3h2.2l-0.2,1.6h-1.9v4.9
			c0,0.9,0.4,1.3,1,1.3c0.4,0,0.8-0.1,1.1-0.4L184.1,226.2L184.1,226.2z M192.6,222.8h-5.9c0.2,1.9,1.1,2.5,2.3,2.5
			c0.9,0,1.6-0.4,2.3-0.9l0.9,1.3c-1,0.8-2.2,1.2-3.4,1.2c-2.9,0-4.4-1.9-4.4-4.9s1.6-5,4.2-5s4.1,1.8,4.1,4.8
			C192.7,222.1,192.7,222.4,192.6,222.8L192.6,222.8z M190.4,221.2c0-1.5-0.6-2.4-1.8-2.4c-1.1,0-1.8,0.6-1.9,2.5L190.4,221.2z
			 M200.2,217.3l-0.4,2.2c-0.2-0.1-0.6-0.1-0.9-0.1c-1.1,0-1.8,0.9-2.1,2.4v5h-2.2v-9.4h2l0.2,1.9c0.2-1.2,1.2-2,2.4-2.1
			C199.6,217.2,200,217.2,200.2,217.3L200.2,217.3z M200.6,220.2h5.3v1.8h-5.3V220.2z M210.9,224.9c0,2.9-1.6,3.9-3.5,4.5l-0.6-1.6
			c1.6-0.6,1.9-1.5,1.9-2.9v-10.4h2.3L210.9,224.9L210.9,224.9z M220.9,226.6h-2l-0.1-1.3c-0.6,1-1.6,1.6-2.9,1.5
			c-1.6,0-2.6-1.1-2.6-2.9v-6.6h2.3v6.4c0,1.1,0.4,1.5,1.1,1.5c0.8-0.1,1.6-0.5,1.9-1.3v-6.5h2.2L220.9,226.6L220.9,226.6z
			 M229.8,218.1l-0.9,1.3c-0.6-0.5-1.6-0.8-2.3-0.8c-0.9,0-1.4,0.4-1.4,0.9s0.4,0.9,2,1.3c1.9,0.5,2.9,1.3,2.9,3c0,2-1.8,3-3.9,3
			c-1.3,0-2.6-0.5-3.8-1.3l1.1-1.2c0.8,0.5,1.6,0.9,2.6,0.9s1.6-0.5,1.6-1.1s-0.4-1-2.1-1.5c-2-0.5-2.8-1.5-2.8-2.9
			c0-1.5,1.4-2.8,3.6-2.8C227.7,217,228.9,217.5,229.8,218.1L229.8,218.1z M237.3,226.2c-0.6,0.5-1.6,0.8-2.3,0.6
			c-1.9,0-2.9-1.1-2.9-3.1v-5h-1.4v-1.6h1.4V215l2.3-0.2v2.3h2.2l-0.2,1.6h-2v4.9c0,0.9,0.4,1.3,1,1.3c0.4,0,0.8-0.1,1.1-0.4
			L237.3,226.2L237.3,226.2z M241,214c-0.1,0.8-0.8,1.3-1.6,1.3c-0.6-0.1-1.2-0.5-1.3-1.3c0.1-0.8,0.8-1.3,1.6-1.3
			C240.5,212.8,240.9,213.2,241,214z M240.8,226.6h-2.2v-9.3h2.2V226.6z M245.8,216.4v1h2.2l-0.2,1.6h-2v7.7h-2.2V219H242v-1.6h1.6
			v-1c0-1.6,1.1-3,3.3-3c0.9,0,1.6,0.2,2.4,0.5l-0.6,1.5c-0.4-0.2-1-0.4-1.6-0.4C246.3,215,245.8,215.5,245.8,216.4L245.8,216.4z"/>
		<path class="st0" d="M254,226.7c-0.6,2.2-2.6,3.8-4.9,3.8l-0.2-1.6c1.3,0,2.6-0.9,2.9-2.2H251l-2.9-9.4h2.4l2,7.8l2.1-7.8h2.3
			L254,226.7z M300.5,221.7H299v4.9h-2.3v-12.2h3.6c3.2,0,4.9,1.2,4.9,3.5c0,1.5-1,2.9-2.4,3.3l3.2,5.3h-2.6L300.5,221.7
			L300.5,221.7z M299.1,220.1h1.5c1.5,0,2.2-0.5,2.2-2.1s-0.8-1.9-2.4-1.9h-1.2L299.1,220.1z M310,213.9c0,0.8-0.5,1.5-1.3,1.5
			s-1.5-0.5-1.5-1.3s0.5-1.5,1.3-1.5C309.3,212.5,309.9,213.1,310,213.9C310,213.8,310,213.9,310,213.9z M309.7,226.6h-2.2v-9.4h2.2
			V226.6z M320.4,217.8c-0.9,0.2-1.8,0.4-2.8,0.4c1,0.4,1.8,1.3,1.6,2.4c0,1.8-1.5,3.2-3.8,3.2c-0.4,0-0.8,0-1.1-0.1
			c-0.2,0.1-0.4,0.5-0.5,0.6c0,0.4,0.2,0.6,1.1,0.6h1.5c2.1,0,3.4,1.1,3.4,2.6c0,1.9-1.6,3-4.6,3c-3.3,0-4.3-1.1-4.3-2.9h2
			c0,0.9,0.5,1.3,2.2,1.3s2.3-0.5,2.3-1.2s-0.5-1.1-1.5-1.1h-1.5c-1.9,0-2.6-0.9-2.6-1.8c0-0.8,0.5-1.5,1.1-1.8
			c-1-0.5-1.6-1.5-1.6-2.6c0-2,1.6-3.3,3.9-3.3c1.5,0.1,3.1-0.2,4.4-1L320.4,217.8L320.4,217.8z M313.9,220.3
			c-0.1,0.9,0.5,1.6,1.5,1.9h0.2c1.1,0,1.6-0.6,1.6-1.9s-0.5-1.8-1.6-1.8c-0.9,0-1.6,0.6-1.6,1.5L313.9,220.3z M329.3,219.9v6.7
			h-2.2v-6.4c0-1.2-0.5-1.5-1.1-1.5c-0.9,0.1-1.5,0.6-2,1.5v6.5h-2.2v-13l2.2-0.2v5c0.6-0.9,1.6-1.3,2.8-1.3c1.5,0,2.5,1,2.6,2.4
			C329.3,219.6,329.3,219.8,329.3,219.9L329.3,219.9z M337.3,226.2c-0.6,0.5-1.5,0.8-2.3,0.6c-1.9,0-2.8-1.1-2.8-3.1v-5h-1.5v-1.6
			h1.5V215l2.2-0.2v2.3h2.2l-0.2,1.6h-2v4.9c0,0.9,0.4,1.3,1,1.3c0.5,0,0.8-0.1,1.1-0.4L337.3,226.2L337.3,226.2z M337.4,220.2h5.3
			v1.8h-5.3V220.2z M347.5,224.8c0,2.9-1.5,3.9-3.5,4.5l-0.6-1.6c1.6-0.6,1.9-1.5,1.9-2.9v-10.4h2.3L347.5,224.8L347.5,224.8z
			 M357.6,226.6h-2l-0.1-1.3c-0.5,1-1.6,1.6-2.9,1.5c-1.6,0-2.6-1.1-2.6-2.9v-6.6h2.2v6.4c0,1.1,0.4,1.5,1.1,1.5
			c0.8-0.1,1.5-0.5,1.9-1.3v-6.6h2.2L357.6,226.6L357.6,226.6z M366.5,218.1l-0.9,1.3c-0.6-0.5-1.5-0.8-2.3-0.8
			c-0.9,0-1.5,0.4-1.5,0.9s0.4,0.9,2,1.3c1.9,0.5,3,1.3,3,3c0,2-1.8,3-4,3c-1.3,0-2.6-0.5-3.8-1.3l1.1-1.2c0.8,0.5,1.6,0.9,2.5,0.9
			c1,0,1.6-0.5,1.6-1.1s-0.4-1-2.1-1.5c-2-0.5-2.8-1.5-2.8-2.9c0-1.5,1.5-2.8,3.6-2.8C364.4,217,365.7,217.4,366.5,218.1
			L366.5,218.1z M374,226.1c-0.6,0.5-1.5,0.8-2.3,0.6c-1.9,0-2.8-1.1-2.8-3.1v-5h-1.5V217h1.5v-2.1l2.2-0.2v2.3h2.2l-0.2,1.6h-2v4.9
			c0,0.9,0.4,1.3,1,1.3c0.5,0,0.8-0.1,1.1-0.4L374,226.1L374,226.1z M377.8,213.9c0,0.8-0.5,1.5-1.3,1.5s-1.5-0.5-1.5-1.3
			s0.5-1.5,1.3-1.5C377.1,212.5,377.8,213,377.8,213.9C377.8,213.8,377.8,213.9,377.8,213.9z M377.4,226.6h-2.2v-9.4h2.2V226.6z
			 M382.7,216.3v1h2.2l-0.2,1.6h-2v7.7h-2.2v-7.7H379v-1.6h1.5v-1c0-1.6,1.1-3,3.3-3c0.9,0,1.6,0.2,2.4,0.5l-0.6,1.5
			c-0.5-0.2-1-0.4-1.5-0.4C383,215,382.8,215.5,382.7,216.3L382.7,216.3z"/>
		<path class="st0" d="M390.8,226.7c-0.5,2.2-2.5,3.9-4.9,3.8l-0.2-1.6c1.3,0,2.5-0.9,3-2.2h-0.8l-3-9.4h2.4l2,7.8l2.1-7.8h2.3
			L390.8,226.7z"/>
	</g>
</g>
<g id="a5aa1b63-5bd2-4389-81ed-966d048faa97_00000008862318163370947660000000211903929632960393_">
	<path id="b1839b9b-9fd0-4519-ba49-b37fc5dce2e2_00000031893896382790775230000010546914935983676318_" class="st0" d="M97.1,142.3
		h-97V139H97L97.1,142.3z M80.6,126.5H0.1v-3.3h80.4L80.6,126.5z M97.1,110.6h-97v-3.3H97L97.1,110.6z M80.6,94.8H0.1v-3.3h80.4
		L80.6,94.8z M97.1,78.9h-97v-3.3H97L97.1,78.9z M80.6,63H0.1v-3.3h80.4L80.6,63z M7.2,14.8h-4l-0.8,2.8H0L3.8,5.4h2.9l3.8,12.2H8
		L7.2,14.8z M6.7,13.1L5.1,7.3l-1.5,5.8H6.7z M11.5,15.5V4.6l2.3-0.2v11.1c0,0.5,0.1,0.7,0.6,0.7c0.2,0,0.4,0,0.6-0.1l0.6,1.5
		c-0.4,0.2-1,0.4-1.6,0.4c-1.2,0.1-2.2-0.8-2.3-1.8C11.5,15.8,11.5,15.6,11.5,15.5z M19.5,4.9c0,0.8-0.6,1.5-1.5,1.5
		c-0.8,0-1.5-0.7-1.5-1.5s0.6-1.5,1.5-1.5C18.8,3.5,19.5,4.1,19.5,4.9z M19.2,17.5h-2.3V8.2h2.3V17.5z M29.9,8.8
		C29,9,28.1,9.1,27.1,9.1c1,0.3,1.8,1.3,1.6,2.4c0,1.8-1.5,3.1-3.8,3.1c-0.4,0-0.8,0-1.1-0.1c-0.2,0.1-0.4,0.5-0.5,0.7
		c0,0.3,0.2,0.7,1.1,0.7h1.5c2.1,0,3.4,1.1,3.4,2.6c0,1.8-1.6,2.9-4.6,2.9c-3.3,0-4.3-1.1-4.3-2.9h2c0,0.9,0.5,1.3,2.2,1.3
		s2.4-0.5,2.4-1.2s-0.5-1.1-1.5-1.1h-1.3c-1.9,0-2.6-0.9-2.6-1.8c0-0.8,0.5-1.5,1.1-1.8c-1-0.5-1.6-1.5-1.6-2.7c0-2,1.6-3.3,3.9-3.3
		c1.5,0.1,3.1-0.2,4.4-1C29.4,6.9,29.9,8.8,29.9,8.8z M23.5,11.3C23.4,12.2,24,13,25,13.1h0.2c1.1,0,1.6-0.7,1.6-1.8
		c0-1.2-0.5-1.8-1.6-1.8c-0.9,0-1.6,0.7-1.6,1.5C23.5,11.1,23.5,11.3,23.5,11.3z M38.8,10.8v6.7h-2.2v-6.4c0-1.2-0.5-1.5-1.1-1.5
		c-0.9,0.1-1.7,0.7-2,1.5v6.5h-2.3V8.3h2l0.2,1.2C34.1,8.6,35.1,8,36.2,8c1.5-0.1,2.5,1,2.7,2.3C39,10.5,38.9,10.7,38.8,10.8z
		 M48.2,15.7H53l-0.3,1.8h-6.9V5.3H48C48,5.3,48.2,15.7,48.2,15.7z M61.9,13.6h-5.8c0.2,1.8,1.1,2.5,2.3,2.5c0.9,0,1.7-0.3,2.3-0.9
		l1,1.3c-1,0.8-2.2,1.2-3.4,1.2c-2.8,0-4.4-2-4.4-4.8c0-3,1.5-5,4.2-5s4,1.8,4,4.8C61.9,12.9,61.9,13.4,61.9,13.6z M59.7,12.1
		c0-1.5-0.5-2.4-1.8-2.4c-1.1,0-1.8,0.7-1.8,2.5C56,12.2,59.8,12,59.7,12.1z M66.4,7.3v1h1.8L68,9.9h-1.4v7.7h-2.2V9.9h-1.5V8.2h1.5
		v-1c0-1.7,1.1-3,3.3-3c0.6,0,1,0.1,1.6,0.2l-0.4,1.7C68.5,6,68.1,6,67.9,6C66.8,6,66.5,6.3,66.4,7.3z M75.3,17.1
		c-0.7,0.5-1.6,0.7-2.3,0.7c-1.8,0-2.8-1.1-2.8-3.1v-5h-1.4V8.2h1.4V6.1l2.2-0.2v2.3h2.2l-0.2,1.7h-2v5c0,0.9,0.3,1.3,1,1.3
		c0.4,0,0.8-0.1,1.1-0.3C74.6,15.8,75.3,17.2,75.3,17.1z M5.3,33.8H3.8v4.8H1.5V26.5h3.6c3.2,0,4.8,1.1,4.8,3.5c0,1.6-1,2.8-2.4,3.3
		l3.2,5.3H8.1C8,38.6,5.3,33.9,5.3,33.8z M3.9,32.1h1.5c1.4,0,2.3-0.6,2.3-2s-0.8-1.8-2.4-1.8H3.8C3.8,28.2,3.8,32.1,3.9,32.1z
		 M19.6,37.5l-0.5,1.6c-0.9,0-1.8-0.6-2.1-1.3c-0.6,0.9-1.6,1.4-2.8,1.4c-1.6,0.1-2.9-1-2.9-2.6v-0.3c0-2,1.6-3.1,4.2-3.1h1.2v-0.6
		c0-1.2-0.5-1.7-1.8-1.7c-0.9,0-1.6,0.2-2.6,0.4l-0.6-1.6c1.1-0.4,2.2-0.7,3.3-0.8c2.6,0,3.7,1.1,3.7,3.2v4.2
		C18.9,37,19.1,37.2,19.6,37.5z M16.7,36.1v-1.8h-1c-1.4,0-2.2,0.6-2.2,1.7c-0.1,0.7,0.4,1.3,1,1.4h0.4
		C15.6,37.3,16.4,36.8,16.7,36.1z M29.7,29.9c-0.9,0.2-1.8,0.3-2.8,0.3c1,0.3,1.8,1.3,1.6,2.4c0,1.8-1.5,3.1-3.8,3.1
		c-0.4,0-0.8,0-1.1-0.1c-0.2,0.1-0.5,0.4-0.5,0.7s0.2,0.7,1.1,0.7h1.5c2.1,0,3.4,1.1,3.4,2.7c0,1.8-1.6,2.9-4.6,2.9
		c-3.3,0-4.3-1.1-4.3-2.9h2c0,0.9,0.5,1.3,2.2,1.3s2.3-0.6,2.3-1.2s-0.5-1.1-1.5-1.1H24c-1.9,0-2.6-0.9-2.6-1.8
		c0-0.8,0.5-1.4,1.1-1.8c-1.1-0.4-1.8-1.6-1.6-2.7c0-2,1.6-3.3,3.9-3.3c1.5,0.1,3.1-0.2,4.4-1C29.2,28.1,29.7,29.9,29.7,29.9z
		 M23.2,32.4c-0.1,0.9,0.5,1.7,1.5,1.8h0.2c1.1,0,1.6-0.7,1.6-1.8s-0.5-1.8-1.6-1.8c-0.9,0-1.6,0.7-1.6,1.6
		C23.2,32.2,23.2,32.4,23.2,32.4z M30.5,32.3h5.3v1.8h-5.3V32.3z M41.9,33.9h-1.4v4.8h-2.3V26.5h3.7c3.2,0,4.8,1.1,4.8,3.5
		c0,1.6-1,2.8-2.4,3.3l3.3,5.3h-2.8C44.8,38.6,41.9,33.9,41.9,33.9z M40.4,32.1h1.5c1.5,0,2.2-0.6,2.2-2.1c0-1.4-0.8-1.8-2.4-1.8
		h-1.2L40.4,32.1z M51.2,26.1c0,0.8-0.5,1.4-1.3,1.6c-0.8,0-1.5-0.6-1.5-1.3c0-0.8,0.5-1.4,1.3-1.6h0.1
		C50.6,24.6,51.2,25.1,51.2,26.1C51.2,26,51.2,26.1,51.2,26.1z M51,38.7h-2.2v-9.3H51V38.7z M61.7,29.9c-0.9,0.2-1.8,0.3-2.8,0.3
		c1,0.3,1.8,1.3,1.7,2.4c0,1.8-1.5,3.1-3.8,3.1c-0.3,0-0.8,0-1.1-0.1c-0.2,0.1-0.3,0.4-0.3,0.7s0.2,0.7,1.1,0.7H58
		c2.1,0,3.4,1.1,3.4,2.7c0,1.8-1.7,2.9-4.6,2.9c-3.3,0-4.2-1.1-4.2-2.9h2c0,0.9,0.5,1.3,2.2,1.3s2.3-0.4,2.3-1.2s-0.5-1.1-1.5-1.1
		h-1.3c-1.8,0-2.7-0.9-2.7-1.8c0-0.8,0.5-1.4,1.1-1.8c-1.1-0.4-1.8-1.4-1.7-2.7c0-2,1.7-3.3,3.8-3.3c1.5,0.1,3.1-0.2,4.4-1
		C61.2,28.1,61.7,29.9,61.7,29.9z M55.2,32.4c-0.1,0.9,0.5,1.7,1.5,1.8h0.2c1.1,0,1.7-0.7,1.7-1.8s-0.5-1.8-1.7-1.8
		c-0.9,0-1.7,0.7-1.7,1.6V32.4z M70.8,32v6.7h-2.2v-6.4c0-1.2-0.4-1.6-1.1-1.6c-0.9,0.1-1.6,0.7-2,1.4v6.5h-2.3v-13l2.2-0.2v5.1
		c0.7-0.9,1.7-1.4,2.8-1.4c1.4-0.1,2.7,1,2.7,2.4C70.9,31.5,70.8,32,70.8,32z M78.6,38.2c-0.7,0.4-1.4,0.8-2.3,0.8
		c-1.8,0-2.8-1.1-2.8-3.1V31H72v-1.7h1.4v-2.1l2.2-0.2v2.3h2.2L77.6,31h-1.8v4.8c0,0.9,0.3,1.3,1,1.3c0.4,0,0.8-0.1,1.1-0.3
		C77.8,36.8,78.5,38.3,78.6,38.2L78.6,38.2z"/>
</g>
<path class="st1" d="M55.2,330.1H0.1v-3.3h55.1C55.2,326.8,55.2,330.1,55.2,330.1z M97.1,314.3h-97V311H97L97.1,314.3L97.1,314.3z
	 M97.1,298.5h-97v-3.3H97C97,295.2,97.1,298.5,97.1,298.5z M97.1,282.6h-97v-3.3H97C97,279.3,97.1,282.6,97.1,282.6z M97.1,266.8
	h-97v-3.3H97C97,263.5,97.1,266.8,97.1,266.8z M97.1,250.8h-97v-3.3H97C97,247.5,97.1,250.8,97.1,250.8z M3.8,224.7h4.8l-0.2,1.9
	H1.5v-12.1h2.3V224.7L3.8,224.7z M17.5,222.7h-5.9c0.2,1.9,1.1,2.5,2.3,2.5c0.9,0,1.6-0.4,2.3-0.9l1,1.3c-1,0.8-2.2,1.2-3.4,1.2
	c-2.9,0-4.4-1.9-4.4-4.9s1.6-5,4.2-5s4.1,1.8,4.1,4.8C17.6,222.1,17.5,222.4,17.5,222.7L17.5,222.7z M15.3,221.2
	c0-1.5-0.6-2.4-1.8-2.4c-1.1,0-1.8,0.6-1.9,2.5C11.7,221.3,15.3,221.2,15.3,221.2z M22.1,216.3v1h1.8l-0.2,1.6h-1.5v7.7h-2.3v-7.7
	h-1.5v-1.6h1.5v-1c0-1.6,1.1-3,3.3-3c0.5,0,1,0.1,1.5,0.2l-0.5,1.6c-0.4-0.1-0.5-0.1-0.9-0.1C22.4,215,22.1,215.5,22.1,216.3z
	 M31,226.2c-0.6,0.5-1.5,0.8-2.3,0.6c-1.9,0-2.8-1.1-2.8-3.1v-5h-1.5v-1.6H26V215l2.2-0.2v2.3h2.2l-0.2,1.6h-2v4.9
	c0,0.9,0.4,1.3,1,1.3c0.5,0,0.8-0.1,1.1-0.4L31,226.2L31,226.2z M31.1,220.2h5.3v1.8h-5.3C31.1,222,31.1,220.2,31.1,220.2z
	 M41.2,224.8c0,2.9-1.5,3.9-3.5,4.5l-0.7-1.6c1.5-0.6,1.8-1.5,1.8-2.9v-10.4h2.3C41.2,214.5,41.2,224.8,41.2,224.8z M51.4,226.6h-2
	l-0.1-1.3c-0.5,1-1.7,1.6-2.8,1.5c-1.7,0-2.5-1.1-2.5-2.9v-6.6h2.2v6.4c0,1.1,0.3,1.5,1.1,1.5c0.9,0,1.5-0.5,1.8-1.3v-6.6h2.2
	L51.4,226.6L51.4,226.6z M60.3,218.1l-0.9,1.3c-0.7-0.5-1.5-0.8-2.3-0.8c-0.9,0-1.5,0.4-1.5,0.9s0.3,0.9,2,1.3c1.8,0.5,3,1.3,3,3
	c0,2-1.8,3-4,3c-1.3,0-2.7-0.5-3.8-1.3l1.1-1.2c0.8,0.5,1.7,0.9,2.5,0.9c1,0,1.7-0.5,1.7-1.1s-0.3-1-2.1-1.5c-2-0.5-2.8-1.5-2.8-2.9
	c0-1.5,1.5-2.8,3.7-2.8C58.2,217,59.3,217.4,60.3,218.1L60.3,218.1z M67.7,226.1c-0.7,0.5-1.6,0.8-2.3,0.6c-1.8,0-2.8-1.1-2.8-3.1
	v-5h-1.5V217h1.5v-2.1l2.3-0.2v2.3h2.2l-0.2,1.6h-2v4.9c0,0.9,0.3,1.3,1,1.3c0.4,0,0.8-0.1,1.1-0.4C67,224.4,67.7,226.1,67.7,226.1z
	 M71.5,213.9c0,0.8-0.6,1.5-1.3,1.5s-1.4-0.5-1.4-1.3s0.6-1.5,1.3-1.5C70.9,212.5,71.4,213,71.5,213.9
	C71.5,213.8,71.5,213.8,71.5,213.9z M71.2,226.6H69v-9.4h2.2C71.2,217.2,71.2,226.6,71.2,226.6z M76.3,216.3v1h2.2l-0.2,1.6h-2v7.7
	h-2.2v-7.7h-1.7v-1.6H74v-1c0-1.6,1.1-3,3.3-3c0.9,0,1.7,0.2,2.4,0.5l-0.7,1.5c-0.4-0.2-1-0.4-1.6-0.4
	C76.7,215,76.4,215.5,76.3,216.3z"/>
<path class="st1" d="M84.5,226.7c-0.6,2.2-2.6,3.8-4.8,3.8l-0.2-1.6c1.3,0,2.6-0.9,2.9-2.2h-0.8l-2.9-9.4h2.4l2,7.8l2.1-7.8h2.3
	C87.5,217.2,84.5,226.7,84.5,226.7z"/>
<g id="ade7f196-bb75-4440-8df9-77fbbb86f832">
	<path id="b3134d78-f3d9-425f-ba55-ae83e0bdd3a0" class="st1" d="M52,194.1c1.1-1.9,2.4-3.8,4-5.1l5.4-4.6l4.8,5.4l-18,15.8
		l-17.6-16l4.3-4.9l5.4,4.9c1.7,1.3,3,2.9,4,4.9v-27.1h7.2L52,194.1L52,194.1z"/>
</g>
</svg>
