<svg xmlns="http://www.w3.org/2000/svg" viewBox="0 0 810.32 389.81" width="810.32" height="389.81"><defs><style>.b30cc1bc-86a9-4841-becd-3baebaa5fec4{fill:#231f20}</style></defs><g id="baf2fbe5-9be3-421b-a27c-440838b3883b"><g id="fda9e30c-6803-4cd9-a0ff-2e185c155781"><path d="M730.51 244.83l.71 1 3.14-.28-.24-3-.83-1.19-3.14.27zm-16-16.37a7.88 7.88 0 0 1 3.54-.67c2.46 0 4 1.23 4 4.21a13.24 13.24 0 0 1-.16 2l-8.82.32a17.49 17.49 0 0 1 1.43-5.89m4.41-3a8.83 8.83 0 0 0-6.08 2.06c-1.43 1.35-2.86 4.37-2.86 8.74 0 5.8 1.87 9.85 7.87 9.85a16.65 16.65 0 0 0 3.57-.36l3.57-1.43-.55-1.9a12.41 12.41 0 0 1-5.08 1.11c-5.13 0-6.2-2.86-6.32-7l11.67-.8a20.19 20.19 0 0 0 .4-3.81c0-4.53-2.34-6.47-6.19-6.47m-18.23-2.94v20.92l-2.7 1.19.12 1.11.83.28 7.86-.36-.16-1.23-2.82-1.63V223l-1.42-5.21-1-.23-3.86 1.23.2 1.35zm-13.94 5.76c3.06 0 4 2.22 4 6.79 0 3.85-.55 6.51-1.11 7.63a7 7 0 0 1-3.3.67 8.12 8.12 0 0 1-4.45-1.55v-12a9.93 9.93 0 0 1 4.85-1.58m-6.63-2.58l-1-.24-3.09 1.23.31 1.31 2.39 2.5v20.93l-2 .87.08 1.12 4.72.87 3.54-1.23-.2-1.31-2.94-1.23v-5.92a8.72 8.72 0 0 0 5.09 1.58 6 6 0 0 0 4.53-1.83c1.26-1.46 2.38-4.6 2.38-9.49 0-6-1.19-9.33-6.36-9.33a11.28 11.28 0 0 0-3.34.52l-3 2.22zm-12.24 16.88a8.78 8.78 0 0 1-3.85.91c-4.73 0-5.2-3.53-5.2-7.47a17.3 17.3 0 0 1 1.27-7 9.11 9.11 0 0 1 3.73-.87c4.73 0 5.17 4.17 5.17 7.66a20.21 20.21 0 0 1-1.12 6.76m1.39 1.63c1.59-1.79 2.74-4.49 2.74-8.59 0-6.19-1.74-10.16-7.14-10.16-3.07 0-5.09.75-6.2 1.86-1.43 1.35-2.94 4.37-2.94 8.86 0 6.36 1.55 9.93 7.94 9.93 2.67 0 4.69-.88 5.6-1.9m-28.75-15.74a7.89 7.89 0 0 1 3.53-.67c2.47 0 4 1.23 4 4.21a13.24 13.24 0 0 1-.16 2l-8.82.32a17.49 17.49 0 0 1 1.43-5.89m4.41-3a8.83 8.83 0 0 0-6.08 2.06c-1.43 1.35-2.85 4.37-2.85 8.74 0 5.8 1.86 9.85 7.86 9.85a16.65 16.65 0 0 0 3.57-.36l3.57-1.43-.55-1.9a12.41 12.41 0 0 1-5.08 1.11c-5.13 0-6.2-2.86-6.32-7l11.67-.8a20.19 20.19 0 0 0 .4-3.81c0-4.53-2.34-6.47-6.19-6.47M624 228.16c3.06 0 4 2.22 4 6.79 0 3.85-.55 6.51-1.11 7.63a7 7 0 0 1-3.3.67 8.12 8.12 0 0 1-4.45-1.55v-12a9.93 9.93 0 0 1 4.85-1.58m-6.63-2.58l-1-.24-3.09 1.23.32 1.31 2.38 2.5v20.93l-2 .87.08 1.12 4.72.87 3.54-1.23-.2-1.31-2.94-1.23v-5.92a8.72 8.72 0 0 0 5.09 1.51 5.9 5.9 0 0 0 4.52-1.83c1.27-1.46 2.38-4.6 2.38-9.49 0-6-1.18-9.33-6.35-9.33a11.17 11.17 0 0 0-3.33.52l-3 2.22zm-19.9 4.52v11.44a6.13 6.13 0 0 1-4.29 1.71c-3.5 0-4.26-3.49-4.26-7 0-3.7.6-6.08 1.44-7.55a5.59 5.59 0 0 1 2.42-.63 7 7 0 0 1 4.69 2m2 15.73l4-.28-.12-1.27-2.74-3.09V223l-1.42-5.21-1-.23-3.86 1.23.2 1.35 2.9 2.42v4.76a6 6 0 0 0-4.73-1.82c-5.28 0-6.87 4.09-6.87 11.24 0 5.2 1.31 9.33 6 9.33a10 10 0 0 0 3.73-.52l2.35-2.1zm-22.75-2.82l-.28 2.5 1.39.36 5.2-.36-.12-1.27-3.06-1.47v-12.21c0-3.61-1.23-5-4.52-5a9.86 9.86 0 0 0-4 .91l-3.69 2.7-1.47-3.37-1-.24-3.06 1.23.28 1.31 2.42 2.5v12.83l-2.66 1.07.08 1.11 1.43.4 8.78-.28-.12-1.23-4.31-1.83v-11.44c2.9-2 4.88-2.78 6.32-2.78 1.78 0 2.46.88 2.46 2.82zm-23.12-22.2l.84 1 2.62-.67-.84-3.54-.87-1.07-2.66.76zm1.43 4.77l-1-.24-3.06 1.23.28 1.31 2.42 2.5v13.09l-2.66 1.19.08 1.11.84.28 7.86-.36-.12-1.23-2.86-1.63v-13zm-22.63-3.18v21.07l-2.66 1.19.11 1.11.84.28 7.86-.36-.16-1.23-2.82-1.63v-4l2-.2c1.11 1.95 3 5.4 5.75 7.31l5.49-.28-.24-1.59-2.9-1c-1.75-1-4.45-4.05-5.84-6.23a56.71 56.71 0 0 0 7.63-9.89l-.76-1-4.65-.36-.75.16-1 1.67 2.14 1.51a18.46 18.46 0 0 1-5 7.34l-1.91.16V223l-1.43-5.21-1-.23-3.85 1.23.2 1.35zm-24.91 4.84l3.78 1.63v14.34l-2.66 1.07.08 1.11 1.43.4 8.77-.28-.12-1.23-4.37-1.79v-13.6l5.2-.91.08-2.06h-5.28a16 16 0 0 1 .84-5.37 5.9 5.9 0 0 1 2.3-.4 7.63 7.63 0 0 1 1 .08l3.18 1.43 1-.51.16-2.86a13.93 13.93 0 0 0-4.29-.63c-2.38 0-4.65.87-5.64 2.3s-1.42 2.78-1.62 6h-3.7zm-7.5 15.22a8.78 8.78 0 0 1-3.85.91c-4.73 0-5.21-3.53-5.21-7.47a17.3 17.3 0 0 1 1.27-7 9.12 9.12 0 0 1 3.74-.87c4.72 0 5.16 4.17 5.16 7.66a20.51 20.51 0 0 1-1.11 6.76m1.39 1.63c1.58-1.79 2.73-4.49 2.73-8.59 0-6.19-1.74-10.16-7.14-10.16-3.06 0-5.09.75-6.2 1.86-1.43 1.35-2.94 4.37-2.94 8.86 0 6.36 1.55 9.93 7.95 9.93a7.73 7.73 0 0 0 5.6-1.9m-26.25-17.36a16.86 16.86 0 0 0-6.16-1.31 8.48 8.48 0 0 0-4.93 1.23 5 5 0 0 0-2.06 4.09 4.57 4.57 0 0 0 1.55 3.69c2.42 2.07 6.19 2.26 8.22 3.78a2.7 2.7 0 0 1 1.08 2.38 6.29 6.29 0 0 1-.6 2.58 11.65 11.65 0 0 1-3.42.44 13.8 13.8 0 0 1-3.42-.4l-2.42-2.7-1.27.4.4 3.65a16.2 16.2 0 0 0 6.67 1.35 8.69 8.69 0 0 0 5-1.31 5.33 5.33 0 0 0 2.15-4.61 4.31 4.31 0 0 0-1.91-4c-2.46-2-6.27-2.15-7.94-3.65a2.58 2.58 0 0 1-.92-2.23 4.11 4.11 0 0 1 .48-2.06 13.58 13.58 0 0 1 3.06-.36 10.41 10.41 0 0 1 3 .4l1.91 2.34 1.23-.32zm-22.6 16.28l-.28 2.5 1.39.36 5.2-.36-.12-1.27-3.06-1.47v-12.2c0-3.61-1.23-5-4.52-5a9.64 9.64 0 0 0-4 .91l-3.5 2.54c-.36-2.46-1.67-3.45-4.41-3.45a9.82 9.82 0 0 0-4 .91l-3.3 2.6-1.43-3.33-1-.24-3.05 1.23.28 1.31 2.42 2.5v12.83l-2.66 1.07.08 1.11 1.43.4 8.77-.28-.12-1.23-4.37-1.79v-11.45c2.86-1.95 4.53-2.75 6-2.75 1.79 0 2.47.88 2.47 2.82v14.42l1.42.36 6.2-.36-.12-1.27-4.37-1.63v-11.56c2.9-2 4.88-2.78 6.31-2.78 1.79 0 2.47.88 2.47 2.82zm-34.55-20.61v21.08l-2.7 1.19.12 1.11.83.28 7.86-.36-.16-1.23-2.82-1.63V223l-1.43-5.21-1-.23-3.85 1.23.2 1.35zm-16 20.85c-3.5 0-4.26-3.49-4.26-7 0-3.7.6-6.08 1.44-7.55a5.59 5.59 0 0 1 2.42-.63 7.14 7.14 0 0 1 4.85 2.1v11.2a6.16 6.16 0 0 1-4.45 1.83m6.43 2.58l4.05-.28-.16-1.27-2.74-3.09V229l2.82-1.71-.24-1.42-4.32-.4L407 228c-1.71-1.87-2.94-2.5-5.36-2.5-5.28 0-6.87 4.09-6.87 11.24 0 5.2 1.31 9.33 6 9.33a10 10 0 0 0 3.73-.52l2.46-2.18zm-30.34-15.73v11.44a6.13 6.13 0 0 1-4.29 1.71c-3.5 0-4.25-3.49-4.25-7 0-3.7.6-6.08 1.43-7.55a5.59 5.59 0 0 1 2.42-.63 7 7 0 0 1 4.69 2m2 15.73l4-.28-.12-1.27-2.74-3.09V223l-1.43-5.21-1-.23-3.86 1.23.2 1.35 2.9 2.42v4.76a6 6 0 0 0-4.73-1.82c-5.28 0-6.86 4.09-6.86 11.24 0 5.2 1.3 9.33 6 9.33a10.07 10.07 0 0 0 3.74-.52l2.34-2.1zm-28.83-17.48a7.89 7.89 0 0 1 3.53-.67c2.47 0 4 1.23 4 4.21a13.24 13.24 0 0 1-.16 2l-8.82.32a17.49 17.49 0 0 1 1.43-5.89m4.41-3a8.83 8.83 0 0 0-6.08 2.06c-1.43 1.35-2.85 4.37-2.85 8.74 0 5.8 1.86 9.85 7.86 9.85a16.65 16.65 0 0 0 3.57-.36l3.58-1.43-.56-1.9a12.38 12.38 0 0 1-5.08 1.11c-5.13 0-6.2-2.86-6.32-7l11.68-.8a20.18 20.18 0 0 0 .39-3.81c0-4.53-2.34-6.47-6.19-6.47m-17.71 4.8v11.4a6.23 6.23 0 0 1-4.33 1.71c-3.5 0-4.25-3.49-4.25-7 0-3.7.59-6.08 1.43-7.55a5.56 5.56 0 0 1 2.42-.63 6.84 6.84 0 0 1 4.73 2m5.71-4.4l-4.32-.4-.87 2.42a6.14 6.14 0 0 0-5.29-2.42c-5.28 0-6.87 4.09-6.87 11.24 0 5.2 1.31 9.33 6 9.33a10 10 0 0 0 3.73-.52l1.91-1.7c-.08 3.41-.4 5.32-.76 6.15a6.42 6.42 0 0 1-3.73 1.24l-5.36-1.12-.68 1 1.63 2.81c4.69 0 7.47-.55 9.73-2.5 1.63-1.43 2.34-3.45 2.34-8.93V229l2.78-1.71zm-26.13 4.4v11.4a6.23 6.23 0 0 1-4.33 1.71c-3.49 0-4.25-3.49-4.25-7 0-3.7.6-6.08 1.43-7.55a5.63 5.63 0 0 1 2.42-.63 6.84 6.84 0 0 1 4.73 2m5.72-4.4l-4.33-.4-.87 2.42a6.13 6.13 0 0 0-5.28-2.42c-5.29 0-6.87 4.09-6.87 11.24 0 5.2 1.31 9.33 6 9.33a10 10 0 0 0 3.74-.52l1.9-1.7c-.07 3.41-.39 5.32-.75 6.15a6.42 6.42 0 0 1-3.74 1.24l-5.36-1.12-.67 1 1.62 2.81c4.69 0 7.47-.55 9.74-2.5 1.62-1.43 2.34-3.45 2.34-8.93V229l2.78-1.71zm-32.57 2.61a7.93 7.93 0 0 1 3.54-.67c2.46 0 4 1.23 4 4.21a13.24 13.24 0 0 1-.16 2l-8.82.32a17.74 17.74 0 0 1 1.43-5.89m4.42-3a8.85 8.85 0 0 0-6.09 2.06c-1.42 1.35-2.85 4.37-2.85 8.74 0 5.8 1.86 9.85 7.86 9.85a16.83 16.83 0 0 0 3.58-.36l3.57-1.43-.56-1.9a12.34 12.34 0 0 1-5.08 1.11c-5.13 0-6.2-2.86-6.32-7l11.68-.8a20.19 20.19 0 0 0 .4-3.81c0-4.53-2.34-6.47-6.19-6.47m-25.74 4.4a9.89 9.89 0 0 1 4.84-1.58c3.06 0 4 2.22 4 6.79 0 3.85-.64 6.4-1.2 7.51a6.88 6.88 0 0 1-3.37.79 10.44 10.44 0 0 1-4.29-.75zm-3.18 12.24l.6 3.06a16.23 16.23 0 0 0 5.51.95c6.6 0 9.06-4 9.06-11.36 0-6-1.19-9.29-6.35-9.29a11.23 11.23 0 0 0-3.34.52l-2.3 1.7V223l-1.43-5.21-1-.23-3.86 1.23.2 1.35 2.9 2.42zm-17.59-11.88v11.44a6.13 6.13 0 0 1-4.29 1.71c-3.5 0-4.26-3.49-4.26-7 0-3.7.6-6.08 1.43-7.55a5.67 5.67 0 0 1 2.43-.63 7 7 0 0 1 4.69 2m2 15.73l4-.28-.12-1.27-2.74-3.09V223l-1.43-5.21-1-.23-3.85 1.23.2 1.35 2.9 2.42v4.76a6 6 0 0 0-4.73-1.82c-5.28 0-6.87 4.09-6.87 11.24 0 5.2 1.31 9.33 6 9.33a10 10 0 0 0 3.73-.52l2.34-2.1zM228 243.12l-.28 2.5 1.39.36 5.2-.36-.12-1.27-3.06-1.47v-12.39c0-3.61-1.23-5-4.52-5a9.86 9.86 0 0 0-4 .91l-3.69 2.7-1.47-3.37-1-.24-3.06 1.23.28 1.31 2.42 2.5v12.83l-2.66 1.07.08 1.11 1.43.4 8.78-.28-.12-1.23-4.38-1.79v-11.48c2.91-2 4.89-2.78 6.32-2.78 1.79 0 2.47.88 2.47 2.82zm-27.69.24c-3.5 0-4.25-3.49-4.25-7 0-3.7.6-6.08 1.43-7.55a5.63 5.63 0 0 1 2.43-.63 7.16 7.16 0 0 1 4.85 2.1v11.2a6.17 6.17 0 0 1-4.46 1.83m6.44 2.58l4-.28-.15-1.27-2.74-3.09V229l2.82-1.71-.24-1.42-4.33-.4-.91 2.5c-1.71-1.87-2.94-2.5-5.36-2.5-5.29 0-6.87 4.09-6.87 11.24 0 5.2 1.31 9.33 6 9.33a10.07 10.07 0 0 0 3.74-.52l2.46-2.18zM170 227.35l3.82 1.51-.16 2.3v10.89c0 3.37 1.94 4 4.32 4a12.72 12.72 0 0 0 1.27-.08l1.63-.76-.24-1.42c-2.26-.24-3.85-.52-3.85-2.23V231.2l-.16-2.42 5.52-.87.08-2.06h-5.56L177 222l-.75-.15-2.86 1 .4 3h-3.58zm-18-1.66l-1-.24-3 1.23.28 1.31 2.42 2.5v10.21c0 3.57 1.43 5.4 4.64 5.4a12.52 12.52 0 0 0 4.41-.84l2.91-2.61 1.94 3.29 4-.28-.12-1.27-2.74-3.09v-11.52l-2.58-4.09-1-.24-3.06 1.23.28 1.31 3.22 2.86v9.45c-2.79 2.51-4.26 3-5.85 3-2.3 0-2.93-1-2.93-3.61v-9.93zm-12 16.88a8.82 8.82 0 0 1-3.86.91c-4.72 0-5.2-3.53-5.2-7.47a17.3 17.3 0 0 1 1.27-7 9.11 9.11 0 0 1 3.73-.87c4.73 0 5.17 4.17 5.17 7.66a20.51 20.51 0 0 1-1.11 6.76m1.39 1.63c1.58-1.79 2.73-4.49 2.73-8.59 0-6.19-1.74-10.16-7.14-10.16-3.06 0-5.09.75-6.2 1.86-1.43 1.35-2.94 4.37-2.94 8.86 0 6.36 1.55 9.93 7.94 9.93a7.74 7.74 0 0 0 5.61-1.9M111 229.85a9.93 9.93 0 0 1 4.85-1.58c3.06 0 4 2.22 4 6.79 0 3.85-.63 6.4-1.19 7.51a6.92 6.92 0 0 1-3.38.79 10.44 10.44 0 0 1-4.29-.75zm-3.17 12.24l.59 3.06a16.29 16.29 0 0 0 5.52.95c6.6 0 9.06-4 9.06-11.36 0-6-1.2-9.29-6.36-9.29a11.28 11.28 0 0 0-3.34.52l-2.3 1.7V223l-1.43-5.21-1-.23-3.85 1.23.2 1.35 2.9 2.42zm-15 1.27c-3.49 0-4.25-3.49-4.25-7 0-3.7.6-6.08 1.43-7.55a5.63 5.63 0 0 1 2.42-.63 7.12 7.12 0 0 1 4.85 2.1v11.2a6.13 6.13 0 0 1-4.45 1.83m6.43 2.58l4.06-.28-.16-1.27-2.74-3.09V229l2.82-1.71-.24-1.42-4.33-.4-.87 2.53c-1.71-1.87-2.94-2.5-5.37-2.5-5.28 0-6.86 4.09-6.86 11.24 0 5.2 1.3 9.33 6 9.33a10.07 10.07 0 0 0 3.74-.52l2.46-2.18zM69 230.21v11.44a6.16 6.16 0 0 1-4.29 1.71c-3.5 0-4.26-3.49-4.26-7 0-3.7.6-6.08 1.43-7.55a5.63 5.63 0 0 1 2.43-.63 7 7 0 0 1 4.69 2m2 15.73l4-.28-.12-1.27-2.74-3.09V223l-1.43-5.21-1-.23-3.85 1.23.2 1.35 2.9 2.42v4.76a6 6 0 0 0-4.73-1.82c-5.28 0-6.87 4.09-6.87 11.24 0 5.2 1.31 9.33 6 9.33a10 10 0 0 0 3.74-.52l2.34-2.1zm-28.85-17.45a7.93 7.93 0 0 1 3.54-.67c2.46 0 4 1.23 4 4.21a13.24 13.24 0 0 1-.16 2l-8.82.32a17.74 17.74 0 0 1 1.43-5.89m4.42-3a8.81 8.81 0 0 0-6.08 2.06c-1.43 1.35-2.86 4.37-2.86 8.74 0 5.8 1.87 9.85 7.86 9.85a16.83 16.83 0 0 0 3.58-.36l3.57-1.43-.56-1.9a12.34 12.34 0 0 1-5.07 1.13c-5.12 0-6.2-2.86-6.32-7l11.68-.8a20.19 20.19 0 0 0 .4-3.81c0-4.53-2.34-6.47-6.19-6.47m-18.23-2.94v20.9l-2.7 1.19.11 1.11.84.28 7.86-.36-.16-1.23-2.82-1.63V223L30 217.74l-1-.23-3.85 1.23.2 1.35zm-17.21 6a7.93 7.93 0 0 1 3.54-.67c2.47 0 4 1.23 4 4.21a14.48 14.48 0 0 1-.15 2l-8.82.32a17.53 17.53 0 0 1 1.42-5.89m4.42-3a8.83 8.83 0 0 0-6.08 2.06c-1.43 1.35-2.86 4.37-2.86 8.74 0 5.8 1.87 9.85 7.86 9.85a16.76 16.76 0 0 0 3.58-.36l3.57-1.43-.56-1.9a12.34 12.34 0 0 1-5.05 1.09c-5.12 0-6.2-2.86-6.31-7l11.67-.8a20.19 20.19 0 0 0 .4-3.81c0-4.53-2.34-6.47-6.19-6.47m784.07-42.79l10.68-1-.28-2.46-10.68 1zm-20.42-11l.2 1.39 2.11 1.23c.87 5.44 3.05 11.71 4.88 17.39l2.07-.16h2.34a78.88 78.88 0 0 0 5.52-15l1-2.7-1.27-2.18-4-.32-.83.16-.88 1.71 3.06 1.27c0 5.2-1.19 10.24-3.85 14.1h-.68a71.54 71.54 0 0 1-3.93-14.1l3.1-1.27-.44-1.59-1.74-.2zm-12.11 17.55c-3.5 0-4.25-3.49-4.25-6.95 0-3.7.6-6.08 1.43-7.55a5.59 5.59 0 0 1 2.42-.63 7.12 7.12 0 0 1 4.85 2.1v11.2a6.13 6.13 0 0 1-4.45 1.83m6.43 2.58l4.05-.28-.16-1.27-2.74-3.09v-12.32l2.82-1.71-.24-1.42-4.32-.4-.91 2.5c-1.71-1.86-2.94-2.5-5.37-2.5-5.28 0-6.86 4.09-6.86 11.24 0 5.2 1.3 9.33 6 9.33a10.07 10.07 0 0 0 3.74-.52l2.46-2.18zM746 176.33v12.83l-2.66 1.07.12 1.11 1.43.4 9.73-.28-.12-1.23-5.32-2V179c1.15-2.58 2.42-3.89 3.25-4.25a4.39 4.39 0 0 1 2.74.92l1.36-.24.27-3.61a4.46 4.46 0 0 0-2.22-.48 8.21 8.21 0 0 0-3.14.71l-2.32 3.95-1.71-4.44-1-.24-3.1 1.23.32 1.31zm-17.47-3.13l3.81 1.5-.14 2.3v10.88c0 3.37 1.95 4 4.33 4 .43 0 .87 0 1.27-.08l1.63-.75-.24-1.43c-2.26-.24-3.85-.52-3.85-2.23v-10.34l-.16-2.43 5.52-.87.08-2.06h-5.56l.24-3.86-.76-.15-2.85 1 .39 3h-3.57zm-21 1.1a7.86 7.86 0 0 1 3.53-.67c2.46 0 4 1.23 4 4.21a13.24 13.24 0 0 1-.16 2l-8.83.32a17.45 17.45 0 0 1 1.44-5.89m4.4-3a8.84 8.84 0 0 0-6.08 2.06c-1.42 1.35-2.85 4.37-2.85 8.74 0 5.8 1.86 9.85 7.86 9.85a16.83 16.83 0 0 0 3.58-.36l3.57-1.42-.56-1.91a12.34 12.34 0 0 1-5.08 1.11c-5.12 0-6.2-2.86-6.32-7l11.68-.8a20.19 20.19 0 0 0 .4-3.81c0-4.53-2.34-6.47-6.2-6.47M693.89 189l-.24 2.5 1.39.36 5.19-.36-.15-1.27-3.08-1.51v-12.39c0-3.61-1.23-5-4.48-5a10 10 0 0 0-4.06.91l-3.34 2.46v-5.87l-1.42-5.21-1-.23-3.85 1.23.2 1.35 2.9 2.42v20.81l-2.66 1.07.12 1.11 1.43.4 8.73-.28-.11-1.23-4.34-1.79V177c2.87-1.95 4.85-2.74 6.32-2.74 1.79 0 2.43.87 2.43 2.82zm-30.06.68v1.27c.67.16 1.27.56 1.27 1.11a20.48 20.48 0 0 1-.71 4.84l1.31.68a13.87 13.87 0 0 0 2.69-7.66c0-1.31-.91-2.15-2.73-2.39zm-7.67-13.55v11.4a6.22 6.22 0 0 1-4.32 1.71c-3.5 0-4.26-3.49-4.26-6.95 0-3.7.6-6.08 1.43-7.55a5.63 5.63 0 0 1 2.43-.63 6.84 6.84 0 0 1 4.72 2m5.72-4.4l-4.33-.4-.87 2.42a6.13 6.13 0 0 0-5.28-2.42c-5.28 0-6.87 4.09-6.87 11.24 0 5.2 1.31 9.33 6 9.33a10 10 0 0 0 3.74-.52l1.9-1.7c-.08 3.41-.39 5.32-.75 6.15a6.42 6.42 0 0 1-3.73 1.24l-5.37-1.12-.67 1 1.62 2.81c4.69 0 7.47-.55 9.74-2.5 1.62-1.43 2.34-3.45 2.34-8.93v-13.49l2.78-1.71zM635.39 189l-.28 2.5 1.39.36 5.2-.36-.12-1.27-3.05-1.47v-12.43c0-3.61-1.23-5-4.53-5a9.82 9.82 0 0 0-4 .91l-3.7 2.7-1.46-3.37-1-.24-3.06 1.23.27 1.31 2.43 2.5v12.83l-2.66 1.07.08 1.11 1.43.4 8.77-.28-.12-1.23-4.37-1.79V177c2.9-2 4.89-2.78 6.32-2.78 1.79 0 2.46.87 2.46 2.82zm-23.11-22.2l.83 1 2.62-.68-.83-3.53-.87-1.08-2.67.76zm1.43 4.77l-1-.24-3.05 1.23.27 1.31 2.43 2.5v12.91l-2.66 1.19.08 1.11.83.28 7.86-.36-.12-1.23-2.86-1.63v-13zM601.2 189l-.24 2.5 1.39.36 5.2-.36-.16-1.27-3.06-1.47v-12.43c0-3.61-1.23-5-4.48-5a10 10 0 0 0-4.05.91l-3.34 2.46v-5.87l-1.46-5.25-1-.23-3.86 1.23.2 1.35 2.9 2.42v20.81l-2.66 1.07.12 1.11 1.43.4 8.74-.28-.12-1.23-4.33-1.79V177c2.86-1.95 4.84-2.74 6.31-2.74 1.79 0 2.43.87 2.43 2.82zm-29-15.76l3.81 1.5-.16 2.31v10.88c0 3.37 1.94 4 4.32 4a12.53 12.53 0 0 0 1.27-.08l1.63-.75-.24-1.43c-2.26-.24-3.85-.52-3.85-2.23v-10.39l-.16-2.43 5.52-.87.08-2.06h-5.56l.24-3.86-.75-.15-2.86 1 .4 3h-3.57zm-7.27 15.21a8.86 8.86 0 0 1-3.86.91c-4.73 0-5.2-3.53-5.2-7.47a17.3 17.3 0 0 1 1.27-7 9.11 9.11 0 0 1 3.73-.87c4.73 0 5.17 4.17 5.17 7.67a20.23 20.23 0 0 1-1.11 6.75m1.39 1.63c1.58-1.79 2.73-4.49 2.73-8.58 0-6.2-1.74-10.17-7.14-10.17-3.06 0-5.09.75-6.2 1.86-1.43 1.35-2.93 4.37-2.93 8.86 0 6.36 1.54 9.93 7.94 9.93 2.66 0 4.69-.88 5.6-1.9M543.65 189l-.28 2.5 1.39.36 5.2-.36-.12-1.27-3.06-1.47v-12.43c0-3.61-1.23-5-4.52-5a9.82 9.82 0 0 0-4 .91l-3.7 2.7-1.47-3.37-1-.24-3.09 1.19.27 1.31 2.43 2.5v12.83l-2.66 1.07.08 1.11 1.43.4 8.77-.28-.12-1.23-4.37-1.79V177c2.9-2 4.89-2.78 6.32-2.78 1.79 0 2.46.87 2.46 2.82zm-30.25 0l-.28 2.5 1.39.36 5.2-.36-.12-1.27-3.06-1.47v-12.43c0-3.61-1.23-5-4.52-5a9.82 9.82 0 0 0-4 .91l-3.69 2.7-1.47-3.37-1-.24-3.06 1.23.28 1.31 2.42 2.5v12.83l-2.66 1.07.08 1.11 1.43.4 8.78-.28-.12-1.23-4.38-1.79V177c2.9-2 4.89-2.78 6.32-2.78 1.79 0 2.47.87 2.47 2.82zm-28.6-12.63v12.83l-2.66 1.07.12 1.11 1.43.4 9.72-.28-.11-1.23-5.33-2V179c1.15-2.58 2.43-3.89 3.26-4.25a4.41 4.41 0 0 1 2.74.92l1.35-.24.28-3.61a4.5 4.5 0 0 0-2.23-.48 8.16 8.16 0 0 0-3.13.71l-2.35 3.95-1.7-4.44-1-.24-3.1 1.23.32 1.31zm-16.13 12.83c-3.49 0-4.25-3.49-4.25-6.95 0-3.7.6-6.08 1.43-7.55a5.63 5.63 0 0 1 2.43-.63 7.12 7.12 0 0 1 4.84 2.1v11.2a6.13 6.13 0 0 1-4.45 1.83m6.44 2.58l4.05-.28-.16-1.27-2.74-3.09v-12.32l2.82-1.71-.24-1.42-4.33-.4-.91 2.5c-1.71-1.86-2.94-2.5-5.36-2.5-5.28 0-6.87 4.09-6.87 11.24 0 5.2 1.31 9.33 6 9.33a10 10 0 0 0 3.74-.52l2.46-2.18zm-29-17.48a7.93 7.93 0 0 1 3.54-.67c2.46 0 4 1.23 4 4.21a13.24 13.24 0 0 1-.16 2l-8.83.32a17.74 17.74 0 0 1 1.43-5.89m4.41-3a8.84 8.84 0 0 0-6.08 2.06c-1.42 1.35-2.85 4.37-2.85 8.74 0 5.8 1.86 9.85 7.86 9.85a16.83 16.83 0 0 0 3.58-.36l3.57-1.42-.56-1.91a12.34 12.34 0 0 1-5.08 1.11c-5.13 0-6.2-2.86-6.32-7l11.68-.8a20.19 20.19 0 0 0 .4-3.81c0-4.53-2.34-6.47-6.2-6.47m-25.32 4.76v11.44a6.16 6.16 0 0 1-4.18 1.74c-3.5 0-4.26-3.49-4.26-6.95 0-3.7.6-6.08 1.43-7.55a5.63 5.63 0 0 1 2.43-.63 7 7 0 0 1 4.69 2m2 15.73l4-.28-.12-1.27-2.74-3.09v-18.37l-1.43-5.21-1-.23-3.85 1.23.2 1.35 2.9 2.42v4.76a6 6 0 0 0-4.73-1.82c-5.28 0-6.87 4.09-6.87 11.24 0 5.2 1.31 9.33 6 9.33a10 10 0 0 0 3.74-.52l2.34-2.1zm-22.91-23.43v20.89l-2.71 1.19.12 1.11.84.28 7.86-.36-.16-1.23-2.82-1.63v-19.83l-1.43-5.21-1-.23-3.85 1.23.2 1.35zm-21.69 3.18l-1-.24-3.06 1.23.28 1.31 2.42 2.5v10.21c0 3.58 1.43 5.4 4.64 5.4a12.61 12.61 0 0 0 4.42-.84l2.89-2.61 1.95 3.29 4-.28-.12-1.27-2.74-3.09v-11.54l-2.58-4.09-1-.24-3.06 1.23.28 1.31 3.21 2.86v9.45c-2.78 2.51-4.24 3-5.84 3-2.3 0-2.94-1-2.94-3.61v-9.93zm-12 16.88a8.86 8.86 0 0 1-3.86.91c-4.73 0-5.2-3.53-5.2-7.47a17.3 17.3 0 0 1 1.27-7 9.12 9.12 0 0 1 3.74-.87c4.72 0 5.16 4.17 5.16 7.67a20.49 20.49 0 0 1-1.11 6.75M372 190c1.58-1.79 2.73-4.49 2.73-8.58 0-6.2-1.74-10.17-7.14-10.17-3.06 0-5.09.75-6.2 1.86-1.43 1.35-2.94 4.37-2.94 8.86 0 6.36 1.55 9.93 7.95 9.93a7.73 7.73 0 0 0 5.6-1.9m-17.4 0l-.56-2.11a9.47 9.47 0 0 1-4.76 1.27c-4.37 0-5.25-2.58-5.25-7.19a19.18 19.18 0 0 1 1.27-7.51 8.17 8.17 0 0 1 3.22-.67 5.72 5.72 0 0 1 1.19.12l3.26 2.42 1-.52.16-3.49a11.41 11.41 0 0 0-5.12-1.07c-5.29 0-8.1 3.77-8.1 11 0 6.71 2.3 9.65 7.46 9.65a12.91 12.91 0 0 0 3.5-.44zm-30.05-14v11.44a6.16 6.16 0 0 1-4.29 1.71c-3.5 0-4.26-3.49-4.26-6.95 0-3.7.6-6.08 1.43-7.55a5.63 5.63 0 0 1 2.43-.63 7 7 0 0 1 4.69 2m2 15.73l4-.28-.12-1.27-2.74-3.09v-18.32l-1.43-5.21-1-.23-3.85 1.23.2 1.35 2.9 2.42v4.76a6 6 0 0 0-4.73-1.82c-5.28 0-6.87 4.09-6.87 11.24 0 5.2 1.31 9.33 6 9.33a10 10 0 0 0 3.74-.52l2.34-2.1zM303.83 189l-.27 2.5 1.39.36 5.2-.36-.12-1.27-3.03-1.51v-12.39c0-3.61-1.23-5-4.53-5a9.82 9.82 0 0 0-4 .91l-3.69 2.7-1.47-3.37-1-.24-3.06 1.23.28 1.31 2.42 2.5v12.83l-2.66 1.07.08 1.11 1.43.4 8.78-.28-.12-1.23-4.38-1.79V177c2.9-2 4.89-2.78 6.32-2.78 1.79 0 2.46.87 2.46 2.82zm-27.68.24c-3.5 0-4.25-3.49-4.25-6.95 0-3.7.59-6.08 1.43-7.55a5.6 5.6 0 0 1 2.43-.63 7.12 7.12 0 0 1 4.84 2.1v11.2a6.13 6.13 0 0 1-4.45 1.83m6.43 2.58l4.05-.28-.16-1.27-2.74-3.09v-12.36l2.82-1.71-.23-1.42-4.33-.4-.91 2.5c-1.71-1.86-2.94-2.5-5.36-2.5-5.29 0-6.88 4.09-6.88 11.24 0 5.2 1.32 9.33 6 9.33a10 10 0 0 0 3.73-.52l2.47-2.18zm-36.37-17.52a7.93 7.93 0 0 1 3.54-.67c2.46 0 4 1.23 4 4.21a13.24 13.24 0 0 1-.16 2l-8.82.32a17.74 17.74 0 0 1 1.43-5.89m4.41-3a8.8 8.8 0 0 0-6.07 2.06c-1.43 1.35-2.86 4.37-2.86 8.74 0 5.8 1.86 9.85 7.86 9.85a16.83 16.83 0 0 0 3.58-.36l3.57-1.42-.56-1.91a12.34 12.34 0 0 1-5.08 1.11c-5.12 0-6.2-2.86-6.32-7l11.68-.8a20.19 20.19 0 0 0 .4-3.81c0-4.53-2.34-6.47-6.2-6.47m-17.91 4.76v11.44a6.13 6.13 0 0 1-4.29 1.71c-3.49 0-4.25-3.49-4.25-6.95 0-3.7.6-6.08 1.43-7.55a5.63 5.63 0 0 1 2.42-.63 7 7 0 0 1 4.69 2m2 15.73l4-.28-.12-1.27-2.74-3.09v-18.34l-1.43-5.21-1-.23-3.85 1.23.19 1.35 2.9 2.42v4.76a6 6 0 0 0-4.73-1.82c-5.28 0-6.86 4.09-6.86 11.24 0 5.2 1.3 9.33 6 9.33a10.07 10.07 0 0 0 3.74-.52l2.34-2.1zm-27.61-2.58c-3.49 0-4.25-3.49-4.25-6.95 0-3.7.6-6.08 1.43-7.55a5.63 5.63 0 0 1 2.43-.63 7.12 7.12 0 0 1 4.84 2.1v11.2a6.13 6.13 0 0 1-4.45 1.83m6.44 2.58l4.05-.28-.16-1.27-2.74-3.09v-12.31l2.82-1.71-.24-1.42-4.33-.4-.91 2.5c-1.71-1.86-2.94-2.5-5.36-2.5-5.29 0-6.87 4.09-6.87 11.24 0 5.2 1.31 9.33 6 9.33a10 10 0 0 0 3.74-.52l2.46-2.18zm-27.52-15.45v12.83l-2.66 1.07.12 1.11 1.42.4 9.73-.28-.12-1.23-5.32-2V179c1.15-2.58 2.42-3.89 3.26-4.25a4.43 4.43 0 0 1 2.74.92l1.35-.24.28-3.61a4.53 4.53 0 0 0-2.23-.48 8.26 8.26 0 0 0-3.14.71l-2.3 3.95-1.7-4.44-1-.24-3.09 1.23.31 1.31zm-17.48-3.13l3.81 1.5-.15 2.31v10.88c0 3.37 1.94 4 4.32 4a12.72 12.72 0 0 0 1.27-.08l1.63-.75-.24-1.43c-2.26-.24-3.85-.52-3.85-2.23v-10.34l-.16-2.43 5.52-.87.08-2.06h-5.56l.24-3.86-.76-.15-2.85 1 .4 3h-3.58zm-14.68 15.21a8.82 8.82 0 0 1-3.86.91c-4.72 0-5.2-3.53-5.2-7.47a17.3 17.3 0 0 1 1.27-7 9.11 9.11 0 0 1 3.73-.87c4.73 0 5.17 4.17 5.17 7.67a20.49 20.49 0 0 1-1.11 6.75m1.39 1.63c1.58-1.79 2.73-4.49 2.73-8.58 0-6.2-1.74-10.17-7.14-10.17-3.06 0-5.09.75-6.2 1.86-1.43 1.35-2.94 4.37-2.94 8.86 0 6.36 1.55 9.93 7.94 9.93a7.74 7.74 0 0 0 5.61-1.9M132.6 189l-.28 2.5 1.39.36 5.2-.36-.12-1.27-3.06-1.47v-12.43c0-3.61-1.23-5-4.52-5a9.86 9.86 0 0 0-4 .91l-3.69 2.7-1.52-3.41-1-.24-3 1.23.28 1.31 2.42 2.5v12.83l-2.7 1.07.08 1.11 1.43.4 8.78-.28-.12-1.23-4.37-1.79V177c2.9-2 4.88-2.78 6.32-2.78 1.78 0 2.46.87 2.46 2.82zm-36.45-15.8l3.81 1.5-.15 2.3v10.88c0 3.37 1.94 4 4.32 4 .43 0 .87 0 1.27-.08l1.6-.8-.24-1.43c-2.27-.24-3.85-.52-3.85-2.23v-10.29l-.16-2.43 5.52-.87.08-2.06h-5.56l.23-3.86-.75-.15-2.85 1 .39 3h-3.54zM88.68 189l-.27 2.5 1.38.36 5.2-.36-.12-1.27-3.06-1.47v-12.43c0-3.61-1.22-5-4.52-5a9.82 9.82 0 0 0-4 .91l-3.7 2.7-1.46-3.37-1-.24-3.06 1.23.28 1.31 2.42 2.5v12.83l-2.66 1.07.08 1.11 1.43.4 8.77-.28-.12-1.23-4.37-1.79V177c2.9-2 4.89-2.78 6.32-2.78 1.79 0 2.46.87 2.46 2.82zm-28.59-12.67v12.83l-2.66 1.07.12 1.11 1.43.4 9.72-.28-.12-1.23-5.32-2V179c1.15-2.58 2.42-3.89 3.26-4.25a4.43 4.43 0 0 1 2.74.92l1.35-.24.27-3.61a4.46 4.46 0 0 0-2.22-.48 8.26 8.26 0 0 0-3.14.71L63.18 176l-1.7-4.44-1-.24-3.1 1.23.32 1.31zM44 189.2c-3.49 0-4.25-3.49-4.25-6.95 0-3.7.6-6.08 1.43-7.55a5.59 5.59 0 0 1 2.42-.63 7.12 7.12 0 0 1 4.85 2.1v11.2A6.13 6.13 0 0 1 44 189.2m6.43 2.58l4.06-.28-.16-1.27-2.74-3.09v-12.32l2.82-1.71-.24-1.42-4.33-.4-.91 2.5c-1.71-1.86-2.94-2.5-5.37-2.5-5.28 0-6.86 4.09-6.86 11.24 0 5.2 1.3 9.33 6 9.33a10.07 10.07 0 0 0 3.74-.52l2.46-2.18zM21.44 174.3a7.91 7.91 0 0 1 3.54-.67c2.46 0 4 1.23 4 4.21a13.24 13.24 0 0 1-.16 2l-8.82.32a17.74 17.74 0 0 1 1.43-5.89m4.41-3a8.84 8.84 0 0 0-6.08 2.06c-1.43 1.35-2.85 4.37-2.85 8.74 0 5.8 1.86 9.85 7.86 9.85a16.83 16.83 0 0 0 3.58-.36l3.57-1.42-.56-1.91a12.34 12.34 0 0 1-5.08 1.11c-5.13 0-6.2-2.86-6.32-7l11.68-.8a20.19 20.19 0 0 0 .4-3.81c0-4.53-2.34-6.47-6.2-6.47m-18.22-2.91v20.89l-2.7 1.19.08 1.11.84.28 7.86-.36-.16-1.23-2.82-1.63v-19.81l-1.43-5.21-1-.23-3.85 1.23.19 1.35zm787.21-46.46v11.45a6 6 0 0 1-4.22 1.7c-3.44 0-4.19-3.49-4.19-6.95 0-3.69.59-6.08 1.41-7.55a5.57 5.57 0 0 1 2.39-.63 6.81 6.81 0 0 1 4.61 2m2 15.73l3.95-.28-.12-1.26L798 133v-18.37l-1.4-5.2-1-.24-3.79 1.23.2 1.35 2.85 2.42V119a5.81 5.81 0 0 0-4.65-1.82c-5.2 0-6.76 4.09-6.76 11.24 0 5.2 1.29 9.33 5.9 9.33a9.67 9.67 0 0 0 3.67-.52l2.31-2.1zm-27-2.58c-3.44 0-4.19-3.49-4.19-6.95 0-3.69.59-6.08 1.41-7.55a5.57 5.57 0 0 1 2.39-.63 7 7 0 0 1 4.77 2.1v11.21a6 6 0 0 1-4.38 1.82m6.33 2.58l4-.28-.16-1.26-2.7-3.1v-12.34L780 119l-.24-1.42-4.25-.4-.9 2.5c-1.68-1.86-2.9-2.5-5.28-2.5-5.2 0-6.76 4.09-6.76 11.24 0 5.2 1.29 9.33 5.9 9.33a9.67 9.67 0 0 0 3.67-.52l2.43-2.18zm-22.43-2.82l-.23 2.5 1.37.36 5.11-.36-.15-1.27-3-1.47v-12.41c0-3.61-1.21-5-4.42-5a9.73 9.73 0 0 0-4 .91l-3.28 2.46v-5.87l-1.41-5.2-1-.24-3.79 1.23.19 1.35 2.86 2.42V135l-2.62 1.07.12 1.11 1.4.4 8.6-.28-.12-1.23-4.26-1.79v-11.47c2.81-2 4.77-2.74 6.22-2.74 1.76 0 2.38.87 2.38 2.82zm-34.92-14.65a7.56 7.56 0 0 1 3.48-.68c2.43 0 4 1.23 4 4.21a14.48 14.48 0 0 1-.15 2l-8.68.32a17.78 17.78 0 0 1 1.4-5.88m4.35-3a8.61 8.61 0 0 0-6 2.06c-1.4 1.35-2.81 4.38-2.81 8.74 0 5.8 1.84 9.85 7.74 9.85a16.22 16.22 0 0 0 3.52-.36l3.51-1.42-.54-1.91a12 12 0 0 1-5 1.11c-5 0-6.1-2.86-6.22-7l11.49-.8a20.86 20.86 0 0 0 .39-3.81c0-4.53-2.3-6.47-6.09-6.47m-17.8 17.67l-.23 2.5 1.37.36 5.11-.36-.15-1.3-3-1.47v-12.36c0-3.61-1.21-5-4.41-5a9.69 9.69 0 0 0-4 .91l-3.29 2.46v-5.87l-1.4-5.2-1-.24-3.79 1.23.2 1.35 2.85 2.42V135l-2.62 1.07.12 1.11 1.41.4 8.59-.28-.11-1.23-4.27-1.79v-11.47c2.82-2 4.77-2.74 6.22-2.74 1.76 0 2.38.87 2.38 2.82zm-24.94-16.28a16.54 16.54 0 0 0-6.06-1.31 8.24 8.24 0 0 0-4.85 1.23 5 5 0 0 0-2 4.09 4.64 4.64 0 0 0 1.52 3.7c2.39 2.06 6.1 2.26 8.1 3.77a2.72 2.72 0 0 1 1.05 2.38 6.41 6.41 0 0 1-.58 2.58 11.27 11.27 0 0 1-3.37.44 13.38 13.38 0 0 1-3.36-.4l-2.38-2.7-1.25.4.39 3.65a15.72 15.72 0 0 0 6.56 1.35 8.5 8.5 0 0 0 5-1.31 5.35 5.35 0 0 0 2.11-4.6 4.34 4.34 0 0 0-1.88-4c-2.42-2-6.18-2.14-7.82-3.65a2.61 2.61 0 0 1-.9-2.23 4.21 4.21 0 0 1 .47-2.06 13.16 13.16 0 0 1 3-.36 10.13 10.13 0 0 1 3 .4l1.87 2.34 1.21-.32zM653.57 135c-3.44 0-4.18-3.49-4.18-6.95 0-3.69.58-6.08 1.41-7.55a5.53 5.53 0 0 1 2.38-.63A7 7 0 0 1 658 122v11.21a6 6 0 0 1-4.38 1.82m6.33 2.58l4-.28-.16-1.26L661 133v-12.34l2.78-1.71-.24-1.42-4.25-.4-.9 2.5c-1.68-1.86-2.89-2.5-5.28-2.5-5.2 0-6.76 4.09-6.76 11.24 0 5.2 1.29 9.33 5.9 9.33a9.67 9.67 0 0 0 3.67-.52l2.43-2.18zm-28.85-15.73v11.45a6 6 0 0 1-4.23 1.7c-3.44 0-4.18-3.49-4.18-6.95 0-3.69.59-6.08 1.41-7.55a5.57 5.57 0 0 1 2.38-.63 6.81 6.81 0 0 1 4.62 2m2 15.73l3.94-.28-.11-1.26-2.7-3.1v-18.36l-1.4-5.2-1-.24-3.83 1.23.19 1.35 2.86 2.42V119a5.82 5.82 0 0 0-4.66-1.82c-5.19 0-6.75 4.09-6.75 11.24 0 5.2 1.28 9.33 5.9 9.33a9.67 9.67 0 0 0 3.67-.52l2.31-2.1zm-22.27-2.82l-.28 2.5 1.37.36 5.12-.36-.12-1.27-3-1.47v-12.4c0-3.61-1.21-5-4.45-5a9.52 9.52 0 0 0-3.95.91l-3.64 2.7-1.44-3.37-1-.24-3 1.23.28 1.31 2.38 2.5V135l-2.62 1.07.08 1.11 1.41.4 8.63-.28-.11-1.23-4.31-1.79v-11.43c2.86-2 4.81-2.78 6.22-2.78 1.76 0 2.43.87 2.43 2.82zm-27.12.24c-3.44 0-4.19-3.49-4.19-6.95 0-3.69.59-6.08 1.41-7.55a5.57 5.57 0 0 1 2.38-.63A7 7 0 0 1 588 122v11.21a6 6 0 0 1-4.38 1.82m6.33 2.58l4-.28-.15-1.26-2.7-3.1v-12.31l2.77-1.71-.23-1.42-4.26-.4-.9 2.5c-1.68-1.86-2.89-2.5-5.27-2.5-5.2 0-6.76 4.09-6.76 11.24 0 5.2 1.28 9.33 5.89 9.33a9.73 9.73 0 0 0 3.68-.52l2.43-2.18zm-28.86-2.14v1.27c.67.16 1.26.56 1.26 1.11a20.42 20.42 0 0 1-.71 4.84l1.29.68a14 14 0 0 0 2.65-7.66c0-1.31-.89-2.15-2.69-2.38zm-15.28-15.33a7.56 7.56 0 0 1 3.48-.68c2.43 0 3.95 1.23 3.95 4.21a13.24 13.24 0 0 1-.16 2l-8.67.32a17.54 17.54 0 0 1 1.4-5.88m4.34-3a8.6 8.6 0 0 0-6 2.06c-1.4 1.35-2.81 4.38-2.81 8.74 0 5.8 1.84 9.85 7.74 9.85a16.29 16.29 0 0 0 3.52-.36l3.51-1.42-.55-1.91a12 12 0 0 1-5 1.11c-5 0-6.1-2.86-6.21-7l11.49-.8a20.86 20.86 0 0 0 .39-3.81c0-4.53-2.31-6.47-6.1-6.47m-17.31 4.8v11.41a6.11 6.11 0 0 1-4.26 1.7c-3.44 0-4.18-3.49-4.18-6.95 0-3.69.58-6.08 1.4-7.55a5.65 5.65 0 0 1 2.39-.63 6.69 6.69 0 0 1 4.65 2m5.63-4.4l-4.26-.4-.86 2.42a6 6 0 0 0-5.2-2.42c-5.2 0-6.76 4.09-6.76 11.24 0 5.2 1.29 9.33 5.9 9.33a9.76 9.76 0 0 0 3.68-.52l1.87-1.7c-.08 3.41-.39 5.32-.74 6.16a6.33 6.33 0 0 1-3.68 1.23l-5.27-1.11-.66 1 1.59 2.81c4.62 0 7.36-.55 9.58-2.49 1.6-1.43 2.3-3.46 2.3-8.94v-13.43l2.74-1.71zM508 122.17V135l-2.62 1.07.12 1.11 1.41.4 9.57-.28-.12-1.23-5.24-2v-9.22c1.14-2.58 2.39-3.89 3.21-4.25a4.33 4.33 0 0 1 2.7.92l1.32-.24.28-3.61a4.36 4.36 0 0 0-2.19-.48 7.79 7.79 0 0 0-3.09.72l-2.35 3.9-1.67-4.44-1-.24-3.05 1.23.32 1.31zM492.23 135c-3.44 0-4.18-3.49-4.18-6.95 0-3.69.58-6.08 1.4-7.55a5.65 5.65 0 0 1 2.39-.63 7 7 0 0 1 4.77 2.1v11.21a6 6 0 0 1-4.38 1.82m6.33 2.58l4-.28-.16-1.26-2.7-3.1v-12.28l2.78-1.71-.24-1.42-4.25-.4-.9 2.5c-1.68-1.86-2.89-2.5-5.28-2.5-5.2 0-6.76 4.09-6.76 11.24 0 5.2 1.29 9.33 5.9 9.33a9.76 9.76 0 0 0 3.68-.52L497 135zm-22.43-2.82l-.23 2.5 1.37.36 5.11-.36-.15-1.27-3-1.47v-12.35c0-3.61-1.21-5-4.41-5a9.69 9.69 0 0 0-4 .91l-3.29 2.46v-5.87l-1.4-5.2-1-.24-3.79 1.23.19 1.35 2.86 2.42V135l-2.62 1.07.12 1.11 1.4.4 8.6-.28-.12-1.23-4.26-1.79v-11.47c2.82-2 4.77-2.74 6.22-2.74 1.76 0 2.38.87 2.38 2.82zM459 135.88l-.55-2.11a9.12 9.12 0 0 1-4.69 1.27c-4.3 0-5.16-2.58-5.16-7.19a19.41 19.41 0 0 1 1.25-7.51 7.87 7.87 0 0 1 3.16-.67 5.55 5.55 0 0 1 1.18.12l3.2 2.42 1-.52.15-3.49a11 11 0 0 0-5-1.07c-5.2 0-8 3.77-8 11 0 6.71 2.27 9.65 7.35 9.65a12.45 12.45 0 0 0 3.44-.44zm-18.33-17.36a16.49 16.49 0 0 0-6.06-1.31 8.19 8.19 0 0 0-4.84 1.23 5 5 0 0 0-2 4.09 4.64 4.64 0 0 0 1.52 3.7c2.38 2.06 6.09 2.26 8.09 3.77a2.7 2.7 0 0 1 1.06 2.38 6.41 6.41 0 0 1-.59 2.58 11.25 11.25 0 0 1-3.36.44 13.41 13.41 0 0 1-3.37-.4l-2.38-2.7-1.25.4.39 3.65a15.73 15.73 0 0 0 6.57 1.35 8.47 8.47 0 0 0 5-1.31 5.35 5.35 0 0 0 2.11-4.6 4.34 4.34 0 0 0-1.88-4c-2.42-2-6.17-2.14-7.81-3.65a2.58 2.58 0 0 1-.9-2.23 4.2 4.2 0 0 1 .46-2.06 13.24 13.24 0 0 1 3-.36 10.11 10.11 0 0 1 3 .4l1.88 2.34 1.2-.32zm-22.37-5.92l.82 1 2.58-.68-.82-3.53-.86-1.08-2.62.76zm1.41 4.77l-1-.24-3 1.23.28 1.31 2.38 2.51v12.9l-2.62 1.19.08 1.11.82.28 7.73-.36-.11-1.23-2.82-1.63v-13zm-12 4.52v11.45a6 6 0 0 1-4.22 1.7c-3.44 0-4.19-3.49-4.19-6.95 0-3.69.59-6.08 1.41-7.55a5.65 5.65 0 0 1 2.39-.63 6.81 6.81 0 0 1 4.61 2m2 15.73l3.95-.28-.12-1.26-2.69-3.1v-18.37l-1.41-5.2-1-.24-3.79 1.23.2 1.35 2.85 2.42V119a5.8 5.8 0 0 0-4.65-1.82c-5.2 0-6.76 4.09-6.76 11.24 0 5.2 1.29 9.33 5.9 9.33a9.76 9.76 0 0 0 3.68-.52l2.3-2.1zm-24.91-19.1a16.44 16.44 0 0 0-6.05-1.31 8.24 8.24 0 0 0-4.85 1.23 5 5 0 0 0-2 4.09 4.64 4.64 0 0 0 1.52 3.7c2.39 2.06 6.1 2.26 8.1 3.77a2.72 2.72 0 0 1 1 2.38 6.41 6.41 0 0 1-.52 2.6 11.27 11.27 0 0 1-3.37.44 13.33 13.33 0 0 1-3.36-.4l-2.38-2.7-1.25.4.39 3.65a15.69 15.69 0 0 0 6.56 1.35 8.5 8.5 0 0 0 5-1.31 5.37 5.37 0 0 0 2.1-4.6 4.33 4.33 0 0 0-1.87-4c-2.42-2-6.17-2.14-7.82-3.65a2.61 2.61 0 0 1-.9-2.23 4.21 4.21 0 0 1 .47-2.06 13.22 13.22 0 0 1 3-.36 10.13 10.13 0 0 1 3 .4l1.87 2.34 1.21-.32zm-22.38-5.92l.82 1 2.57-.68-.82-3.53-.86-1.08-2.61.76zm1.4 4.77l-1-.24-3 1.23.27 1.31 2.38 2.51v12.9l-2.61 1.19.08 1.11.82.28 7.73-.36-.12-1.23-2.81-1.63v-13zm-12.2 17.41l-.23 2.5 1.37.36 5.11-.36-.15-1.27-3-1.47v-12.39c0-3.61-1.21-5-4.41-5a9.69 9.69 0 0 0-4 .91L343 120.5v-5.87l-1.4-5.2-1-.24-3.79 1.23.19 1.35 2.86 2.42V135l-2.62 1.07.12 1.11 1.41.4 8.59-.28-.12-1.23-4.24-1.79v-11.47c2.82-2 4.77-2.74 6.22-2.74 1.76 0 2.38.87 2.38 2.82zm-28.77-12.91v11.45a6 6 0 0 1-4.23 1.7c-3.44 0-4.18-3.49-4.18-6.95 0-3.69.59-6.08 1.41-7.55a5.57 5.57 0 0 1 2.38-.63 6.84 6.84 0 0 1 4.62 2m2 15.73l3.94-.28-.11-1.26L326 133v-18.37l-1.4-5.2-1-.24-3.79 1.23.19 1.35 2.86 2.42V119a5.82 5.82 0 0 0-4.66-1.82c-5.2 0-6.76 4.09-6.76 11.24 0 5.2 1.29 9.33 5.9 9.33a9.73 9.73 0 0 0 3.68-.52l2.31-2.1zm-28.26-17.47a7.56 7.56 0 0 1 3.48-.68c2.43 0 3.95 1.23 3.95 4.21a13.1 13.1 0 0 1-.15 2l-8.68.32a17.78 17.78 0 0 1 1.4-5.88m4.34-3a8.62 8.62 0 0 0-6 2.06c-1.4 1.35-2.81 4.38-2.81 8.74 0 5.8 1.84 9.85 7.74 9.85a16.29 16.29 0 0 0 3.52-.36l3.52-1.43-.55-1.91a12 12 0 0 1-5 1.11c-5 0-6.1-2.86-6.21-7l11.49-.8a20.86 20.86 0 0 0 .39-3.81c0-4.53-2.3-6.47-6.1-6.47m-30.36.4l.19 1.39 2.07 1.23c.87 5.44 3 11.72 4.81 17.39l2-.16H282a79.59 79.59 0 0 0 5.43-15l1-2.7-1.25-2.18-3.95-.32-.82.16-.86 1.71 3 1.27c0 5.2-1.17 10.24-3.79 14.1h-.66a72.25 72.25 0 0 1-3.88-14.1l3.06-1.27-.43-1.59-1.73-.2zm-7.3-4.93l.81 1 2.58-.68-.82-3.53-.86-1.08-2.61.76zm1.4 4.77l-1-.24-3 1.23.27 1.31 2.38 2.51v12.9l-2.62 1.19.08 1.11.82.28 7.74-.36-.12-1.23-2.81-1.63v-13zm-18.13 2.78a7.5 7.5 0 0 1 3.48-.68c2.42 0 4 1.23 4 4.21a13.24 13.24 0 0 1-.16 2l-8.68.32a17.5 17.5 0 0 1 1.41-5.88m4.34-3a8.64 8.64 0 0 0-6 2.06c-1.4 1.35-2.8 4.38-2.8 8.74 0 5.8 1.83 9.85 7.73 9.85a16.22 16.22 0 0 0 3.52-.36l3.52-1.42-.55-1.91a12 12 0 0 1-5 1.11c-5.05 0-6.1-2.86-6.22-7l11.49-.8a20 20 0 0 0 .39-3.81c0-4.53-2.3-6.47-6.09-6.47m-12.51 18.78l-.55-2.11a9.1 9.1 0 0 1-4.69 1.27c-4.3 0-5.15-2.58-5.15-7.19a19.43 19.43 0 0 1 1.24-7.51 7.91 7.91 0 0 1 3.17-.67 5.52 5.52 0 0 1 1.17.12l3.21 2.42 1-.52.15-3.49a11.06 11.06 0 0 0-5-1.07c-5.2 0-8 3.77-8 11 0 6.71 2.27 9.65 7.34 9.65a12.4 12.4 0 0 0 3.44-.44zm-28.29-15.73a7.53 7.53 0 0 1 3.48-.68c2.42 0 3.95 1.23 3.95 4.21a13.24 13.24 0 0 1-.16 2l-8.68.32a17.5 17.5 0 0 1 1.41-5.88m4.34-3a8.64 8.64 0 0 0-6 2.06c-1.4 1.35-2.8 4.38-2.8 8.74 0 5.8 1.83 9.85 7.73 9.85a16.22 16.22 0 0 0 3.52-.36l3.52-1.42-.55-1.91a12 12 0 0 1-5 1.11c-5 0-6.1-2.86-6.22-7l11.49-.8a20 20 0 0 0 .39-3.81c0-4.53-2.3-6.47-6.09-6.47m-22.23 5V135l-2.62 1.07.12 1.11 1.4.4 9.57-.28-.11-1.23-5.24-2v-9.22c1.13-2.58 2.38-3.89 3.2-4.25a4.29 4.29 0 0 1 2.7.92l1.33-.24.27-3.61a4.36 4.36 0 0 0-2.19-.48 7.83 7.83 0 0 0-3.09.72l-2.3 3.92-1.68-4.44-1-.24-3.05 1.23.31 1.31zm-17.45-.28v11.45a6 6 0 0 1-4.22 1.7c-3.44 0-4.18-3.49-4.18-6.95 0-3.69.58-6.08 1.4-7.55a5.61 5.61 0 0 1 2.39-.63 6.81 6.81 0 0 1 4.61 2m2 15.73l4-.28-.12-1.26-2.7-3.1v-18.31l-1.4-5.2-1-.24-3.79 1.23.2 1.35 2.85 2.42V119a5.8 5.8 0 0 0-4.65-1.82c-5.2 0-6.76 4.09-6.76 11.24 0 5.2 1.29 9.33 5.9 9.33a9.76 9.76 0 0 0 3.68-.52l2.3-2.1zm-27-2.58c-3.44 0-4.18-3.49-4.18-6.95 0-3.69.58-6.08 1.4-7.55a5.65 5.65 0 0 1 2.39-.63 7 7 0 0 1 4.77 2.1v11.21a6 6 0 0 1-4.38 1.82m6.33 2.58l4-.28-.16-1.26-2.7-3.1v-12.28L160 119l-.23-1.42-4.26-.4-.9 2.5c-1.68-1.86-2.89-2.5-5.28-2.5-5.2 0-6.76 4.09-6.76 11.24 0 5.2 1.29 9.33 5.9 9.33a9.73 9.73 0 0 0 3.68-.52l2.42-2.18zm-22.42-2.82l-.24 2.5 1.37.36 5.12-.36-.16-1.27-3-1.47v-12.35c0-3.61-1.21-5-4.41-5a9.69 9.69 0 0 0-4 .91L125 120.5v-5.87l-1.4-5.2-1-.24-3.79 1.23.2 1.35 2.85 2.42V135l-2.62 1.07.12 1.11 1.4.4 8.6-.28-.11-1.23-4.25-1.79v-11.47c2.82-2 4.77-2.74 6.22-2.74 1.76 0 2.39.87 2.39 2.82zM794.6 67.73v11.45a6.34 6.34 0 0 1-4.36 1.7c-3.56 0-4.32-3.49-4.32-6.95 0-3.69.6-6.08 1.45-7.55a5.94 5.94 0 0 1 2.46-.63 7.16 7.16 0 0 1 4.77 2m2.06 15.73l4.07-.28-.12-1.26-2.78-3.1V60.47l-1.45-5.2-1-.24-3.92 1.23.2 1.35 3 2.42v4.77a6.07 6.07 0 0 0-4.87-1.8c-5.37 0-7 4.09-7 11.24 0 5.21 1.33 9.33 6.1 9.33a10.55 10.55 0 0 0 3.81-.57l2.38-2.11zm-23.26-2.84l-.29 2.5 1.42.36 5.28-.36-.12-1.27-3.11-1.47V68c0-3.61-1.25-5-4.6-5a10 10 0 0 0-4.08.92l-3.76 2.69-1.49-3.37-1-.24-3.11 1.23.28 1.31 2.46 2.5v12.8l-2.7 1.07.08 1.12 1.45.39 8.92-.28-.12-1.23-4.44-1.78V68.69c2.95-2 5-2.78 6.42-2.78 1.82 0 2.51.87 2.51 2.82zm-23.63-22.2l.85 1 2.66-.68-.85-3.53-.89-1.07-2.7.75zm1.45 4.77l-1-.24-3.12 1.23.28 1.31 2.47 2.49v12.9l-2.71 1.19.08 1.11.85.28 8-.36-.12-1.23-2.95-1.6v-13zM728.08 60v20.92l-2.71 1.19.12 1.11.85.28 8-.36-.16-1.23-2.87-1.62v-4l2-.19c1.13 1.94 3.07 5.4 5.86 7.3l5.57-.27-.24-1.59-3-1c-1.78-1-4.52-4-5.94-6.23a56.19 56.19 0 0 0 7.76-9.89l-.77-1-4.72-.36-.77.16-1 1.67 2.18 1.51a18.55 18.55 0 0 1-5 7.35l-1.94.15V60.47l-1.45-5.2-1-.24-3.91 1.23.2 1.35zm-15.72 4.33a17.51 17.51 0 0 0-6.26-1.31 8.74 8.74 0 0 0-5 1.23 4.93 4.93 0 0 0-2.1 4.12 4.56 4.56 0 0 0 1.57 3.7c2.46 2.06 6.3 2.26 8.36 3.77a2.67 2.67 0 0 1 1.07 2.38 6.33 6.33 0 0 1-.6 2.59 12.43 12.43 0 0 1-3.48.43 14.21 14.21 0 0 1-3.47-.4l-2.45-2.7-1.29.4.41 3.66a16.68 16.68 0 0 0 6.78 1.34 9 9 0 0 0 5.1-1.31 5.3 5.3 0 0 0 2.18-4.6 4.28 4.28 0 0 0-1.94-4c-2.5-2-6.38-2.15-8.08-3.66a2.57 2.57 0 0 1-.93-2.23 4 4 0 0 1 .49-2.06 14 14 0 0 1 3.11-.36 10.76 10.76 0 0 1 3.07.4l1.94 2.34 1.25-.32zM689 58.44l.85 1 2.66-.68-.85-3.53-.89-1.07-2.7.75zm1.45 4.77l-1-.24-3.11 1.23.28 1.31 2.44 2.49v12.9l-2.71 1.19.08 1.11.85.28 8-.36-.12-1.23-2.91-1.62v-13zm-12.86 17.43l-.25 2.5 1.41.36 5.29-.36-.16-1.27-3.11-1.47V68c0-3.61-1.25-5-4.56-5a10.12 10.12 0 0 0-4.12.92l-3.39 2.45v-5.9l-1.46-5.2-1-.24-3.92 1.23.2 1.35 3 2.42v20.81l-2.71 1.07.13 1.12 1.45.39 8.88-.28-.12-1.23-4.4-1.78V68.65c2.9-2 4.92-2.74 6.42-2.74 1.82 0 2.47.87 2.47 2.82zM648 64.88l3.88 1.5-.17 2.31v10.88c0 3.38 2 4 4.4 4 .45 0 .89 0 1.29-.08l1.66-.75-.24-1.43c-2.31-.24-3.92-.51-3.92-2.22V68.73l-.16-2.42 5.61-.88.08-2.06h-5.65l.24-3.85-.77-.16-2.9 1 .4 3h-3.65zm-22.86 0L629 66.5v14.34l-2.7 1.07.08 1.12 1.45.39 8.92-.28-.12-1.23-4.44-1.78V66.34l5.29-.91.08-2.06h-5.37A15.73 15.73 0 0 1 633 58a6.35 6.35 0 0 1 2.34-.39 8.1 8.1 0 0 1 1 .08l3.23 1.43 1-.52.16-2.86a14.69 14.69 0 0 0-4.36-.63c-2.43 0-4.73.87-5.73 2.3s-1.45 2.78-1.66 6h-3.75zm-7.76 15.21a9 9 0 0 1-3.92.91c-4.81 0-5.29-3.53-5.29-7.46a17.11 17.11 0 0 1 1.29-7 9.57 9.57 0 0 1 3.8-.87c4.8 0 5.25 4.17 5.25 7.67a20.11 20.11 0 0 1-1.13 6.75m1.41 1.63c1.61-1.79 2.78-4.49 2.78-8.58 0-6.2-1.77-10.17-7.26-10.17-3.11 0-5.18.76-6.31 1.87-1.45 1.35-3 4.36-3 8.86 0 6.35 1.57 9.92 8.08 9.92 2.7 0 4.76-.87 5.69-1.9M580.76 66a8 8 0 0 1 3.6-.68c2.5 0 4.08 1.23 4.08 4.22a13.12 13.12 0 0 1-.16 2l-9 .32a17.35 17.35 0 0 1 1.48-5.86m4.49-3a9.11 9.11 0 0 0-6.18 2c-1.45 1.35-2.91 4.38-2.91 8.74 0 5.8 1.9 9.85 8 9.85a17.31 17.31 0 0 0 3.64-.36l3.63-1.42-.56-1.91a12.6 12.6 0 0 1-5.18 1.1c-5.21 0-6.3-2.86-6.42-7l11.87-.79a20.19 20.19 0 0 0 .4-3.81c0-4.53-2.37-6.48-6.29-6.48m-18.5 17.67l-.28 2.5 1.41.36 5.28-.36-.16-1.22-3.11-1.47V68c0-3.61-1.25-5-4.6-5a10 10 0 0 0-4.08.92l-3.75 2.69-1.46-3.4-1-.21-3.11 1.23.28 1.31 2.46 2.5v12.8l-2.7 1.07L552 83l1.45.39 8.93-.28-.13-1.23-4.44-1.78V68.69c2.95-2 5-2.78 6.42-2.78 1.82 0 2.51.87 2.51 2.82zM543.2 80a10.6 10.6 0 0 1-4.32 1c-6 0-6.39-4.37-6.39-10.64a28.49 28.49 0 0 1 1.66-9.81 12.18 12.18 0 0 1 4.57-.84c5.9 0 6.14 5.88 6.14 10.57a27.34 27.34 0 0 1-1.66 9.77m1.8 1.27c1.89-2.34 2.9-5.76 2.9-10.88 0-9-1.41-13.42-8.48-13.42-3.19 0-5.53.75-6.87 2.06-1.77 1.74-3.1 5.84-3.1 12.19 0 8.42 1.69 12.35 8.24 12.35 3.59 0 6.26-1 7.31-2.3m-32.68 1l.73 1 3.19-.27-.24-3-.85-1.19-3.19.28zm-8.24-14.58v11.44a6.44 6.44 0 0 1-4.4 1.7c-3.56 0-4.33-3.49-4.33-6.95 0-3.69.61-6.08 1.46-7.55a5.87 5.87 0 0 1 2.46-.63 7 7 0 0 1 4.81 2m5.81-4.4l-4.4-.4-.88 2.42a6.29 6.29 0 0 0-5.4-2.37c-5.37 0-7 4.09-7 11.24 0 5.21 1.33 9.33 6.09 9.33a10.58 10.58 0 0 0 3.8-.51l1.94-1.71c-.08 3.41-.41 5.32-.77 6.16a6.67 6.67 0 0 1-3.8 1.23L494 87.6l-.68 1 1.68 2.81c4.77 0 7.6-.56 9.9-2.5 1.65-1.43 2.38-3.46 2.38-8.94V66.5l2.82-1.7zm-27.08 17.29l-.28 2.5 1.41.36 5.29-.36-.12-1.27L486 80.4V68c0-3.61-1.25-5-4.6-5a10 10 0 0 0-4.08.92l-3.76 2.69-1.49-3.37-1-.24-3.07 1.2.29 1.31L470.7 68v12.84l-2.7 1.07.08 1.12 1.45.39 8.92-.28-.12-1.23-4.45-1.78V68.69c2.95-2 5-2.78 6.43-2.78 1.82 0 2.5.87 2.5 2.82zm-23.62-22.2l.84 1 2.66-.68-.84-3.53-.85-1.07-2.7.75zm1.45 4.77l-1-.24-3.11 1.23.28 1.31 2.46 2.49v12.9l-2.71 1.19.08 1.11.85.28 8-.36-.12-1.23-2.91-1.62v-13zm-12.85 17.43l-.24 2.5 1.41.36 5.29-.36-.16-1.27L451 80.4V68c0-3.61-1.25-5-4.56-5a10.12 10.12 0 0 0-4.12.92l-3.4 2.45v-5.9l-1.45-5.2-1-.24-3.91 1.23.2 1.35 2.92 2.39v20.84L433 81.91l.12 1.12 1.46.39 8.88-.28-.12-1.23-4.41-1.78V68.65c2.91-2 4.93-2.74 6.43-2.74 1.81 0 2.46.87 2.46 2.82zm-29.6-15.76l3.87 1.5-.16 2.31v10.88c0 3.38 2 4 4.4 4 .44 0 .89 0 1.29-.08l1.66-.75-.25-1.46c-2.31-.24-3.92-.51-3.92-2.22V68.73l-.16-2.42 5.61-.88.08-2.06H425l.25-3.85-.77-.16-2.9 1 .4 3h-3.63zm-7.52 15.21a8.91 8.91 0 0 1-3.92.91c-4.81 0-5.29-3.53-5.29-7.46a17.28 17.28 0 0 1 1.29-7 9.61 9.61 0 0 1 3.8-.87c4.81 0 5.25 4.17 5.25 7.67a20.11 20.11 0 0 1-1.13 6.75m1.41 1.63c1.62-1.79 2.79-4.49 2.79-8.58 0-6.2-1.78-10.17-7.27-10.17-3.11 0-5.17.76-6.3 1.87-1.45 1.35-3 4.36-3 8.86 0 6.35 1.57 9.92 8.07 9.92 2.7 0 4.76-.87 5.69-1.9m-23.16-1.08l-.28 2.5 1.41.36 5.28-.36-.12-1.27-3.11-1.47V68c0-3.61-1.25-5-4.59-5a10 10 0 0 0-4.09.92l-3.75 2.69-1.49-3.37-1-.24-3.16 1.2.28 1.31 2.47 2.5v12.83l-2.71 1.07.08 1.12 1.46.39 8.92-.28-.13-1.23-4.37-1.78V68.69c2.95-2 5-2.78 6.42-2.78 1.82 0 2.51.87 2.51 2.82zm-38.29-15.76l3.88 1.5-.16 2.31v10.88c0 3.38 2 4 4.4 4 .44 0 .88 0 1.28-.08l1.66-.75-.24-1.43c-2.3-.24-3.92-.51-3.92-2.22V68.73l-.16-2.42 5.61-.88.08-2.06h-5.65l.25-3.85-.77-.16-2.91 1 .41 3h-3.63zm-18.46-1.67l-1-.24L328 64.2l.28 1.31 2.5 2.49v10.2c0 3.58 1.45 5.4 4.72 5.4a13.22 13.22 0 0 0 4.49-.83l2.94-2.62 2 3.29 4.08-.28-.12-1.26-2.79-3.1V67.3l-2.62-4.09-1-.24-3.11 1.23.28 1.31 3.27 2.86v9.46c-2.82 2.5-4.32 3-5.94 3-2.34 0-3-1-3-3.61V67.3zm-12.36 16.88a8.94 8.94 0 0 1-3.92.91c-4.81 0-5.29-3.53-5.29-7.46a17.11 17.11 0 0 1 1.29-7 9.61 9.61 0 0 1 3.8-.87c4.81 0 5.25 4.17 5.25 7.67a19.86 19.86 0 0 1-1.13 6.75m1.41 1.63c1.61-1.79 2.78-4.49 2.78-8.58 0-6.2-1.77-10.17-7.26-10.17-3.11 0-5.17.76-6.3 1.87-1.46 1.35-3 4.36-3 8.86 0 6.35 1.58 9.92 8.08 9.92 2.7 0 4.77-.87 5.69-1.9m-31-14.34a10.1 10.1 0 0 1 4.93-1.59c3.11 0 4.08 2.22 4.08 6.79 0 3.86-.65 6.4-1.21 7.51a7 7 0 0 1-3.44.79 10.65 10.65 0 0 1-4.36-.75zM287 79.61l.61 3.06a16.8 16.8 0 0 0 5.61 1c6.71 0 9.21-4.05 9.21-11.35 0-6-1.21-9.3-6.46-9.3a11.52 11.52 0 0 0-3.39.52l-2.35 1.7v-4.77l-1.45-5.2-1-.24-3.91 1.23.2 1.35L287 60zm-15.35 1.27c-3.55 0-4.32-3.49-4.32-6.95 0-3.69.61-6.08 1.46-7.55a5.87 5.87 0 0 1 2.46-.63 7.31 7.31 0 0 1 4.93 2.1v11.21a6.34 6.34 0 0 1-4.53 1.82m6.54 2.58l4.12-.28-.16-1.26-2.79-3.1V66.5l2.87-1.7-.23-1.43-4.4-.4-.93 2.5A6.38 6.38 0 0 0 271.2 63c-5.37 0-7 4.09-7 11.24 0 5.21 1.33 9.33 6.09 9.33a10.58 10.58 0 0 0 3.8-.51l2.5-2.19zm-38.53-18.58l3.83 1.62v14.34l-2.7 1.07.08 1.12 1.45.39 8.92-.28-.12-1.23-4.44-1.78V66.34l5.29-.91.08-2.06h-5.37a15.73 15.73 0 0 1 .85-5.37 6.35 6.35 0 0 1 2.34-.39 8 8 0 0 1 1 .08l3.23 1.43 1-.52.16-2.86a14.69 14.69 0 0 0-4.36-.63c-2.43 0-4.73.87-5.73 2.3s-1.45 2.78-1.66 6h-3.75zM231.54 60v20.92l-2.75 1.19.12 1.11.85.28 8-.36-.16-1.23-2.87-1.62V60.47l-1.45-5.2-1-.24-3.92 1.23.21 1.35zm-17.62 6a8 8 0 0 1 3.6-.68c2.5 0 4.08 1.23 4.08 4.22a12.09 12.09 0 0 1-.17 2l-9 .32a17.11 17.11 0 0 1 1.49-5.86m4.48-3a9.11 9.11 0 0 0-6.18 2c-1.45 1.35-2.9 4.38-2.9 8.74 0 5.8 1.9 9.85 8 9.85a17.31 17.31 0 0 0 3.64-.36l3.63-1.42-.59-1.88a12.67 12.67 0 0 1-5.15 1.07c-5.22 0-6.31-2.86-6.42-7l11.87-.79a20.19 20.19 0 0 0 .4-3.81c0-4.53-2.38-6.48-6.3-6.48M204 64.36a17.46 17.46 0 0 0-6.26-1.31 8.67 8.67 0 0 0-5 1.23 4.92 4.92 0 0 0-2.1 4.09 4.56 4.56 0 0 0 1.57 3.7c2.46 2.06 6.3 2.26 8.36 3.77a2.67 2.67 0 0 1 1.09 2.38 6.33 6.33 0 0 1-.6 2.59 12.39 12.39 0 0 1-3.48.43 14.21 14.21 0 0 1-3.47-.4l-2.47-2.7-1.28.4.4 3.66a16.68 16.68 0 0 0 6.78 1.34 9 9 0 0 0 5.13-1.31 5.3 5.3 0 0 0 2.18-4.6 4.28 4.28 0 0 0-1.94-4c-2.5-2-6.38-2.15-8.08-3.66a2.57 2.57 0 0 1-.93-2.23 4 4 0 0 1 .49-2.06 14 14 0 0 1 3.11-.36 10.76 10.76 0 0 1 3.07.4l1.94 2.34 1.25-.32zm-23.1 16.28l-.28 2.5 1.41.36 5.29-.36-.13-1.27-3.09-1.47V68c0-3.61-1.25-5-4.59-5a9.89 9.89 0 0 0-4.09.92l-3.55 2.53c-.36-2.45-1.69-3.45-4.48-3.45a10 10 0 0 0-4.08.92l-3.43 2.65-1.45-3.33-1-.24-3.11 1.23.28 1.31 2.47 2.5v12.8l-2.71 1.07.08 1.12 1.45.39 8.93-.28-.12-1.23-4.45-1.78V68.65c2.91-2 4.61-2.74 6.06-2.74 1.82 0 2.51.87 2.51 2.82v14.41l1.45.36 6.3-.36-.12-1.27-4.45-1.62V68.69c2.95-2 5-2.78 6.42-2.78 1.82 0 2.51.87 2.51 2.82zm-35.38-22.2l.85 1 2.66-.68-.85-3.53-.88-1.07-2.71.75zm1.48 4.77l-1-.21-3.1 1.23.28 1.31 2.44 2.46v12.9l-2.7 1.19.08 1.11.85.28 8-.36-.13-1.23-2.9-1.62v-13zm-12.85 17.43l-.24 2.5 1.41.36 5.28-.36-.16-1.27-3.11-1.47V68c0-3.61-1.25-5-4.55-5a10.2 10.2 0 0 0-4.13.92l-3.39 2.45v-5.9l-1.45-5.2-1-.24-3.91 1.23.2 1.35L122 60v20.84l-2.7 1.07.12 1.12 1.45.39 8.88-.28-.12-1.23-4.4-1.78V68.65c2.91-2 4.93-2.74 6.42-2.74 1.82 0 2.47.87 2.47 2.82z" class="b30cc1bc-86a9-4841-becd-3baebaa5fec4"/><path d="M799.23 10.2a16.8 16.8 0 0 0-6.12-1.3 8.36 8.36 0 0 0-4.89 1.22 5 5 0 0 0-2 4.09 4.6 4.6 0 0 0 1.53 3.7c2.4 2.06 6.16 2.26 8.17 3.77a2.7 2.7 0 0 1 1.06 2.38 6.34 6.34 0 0 1-.59 2.59 11.45 11.45 0 0 1-3.39.44 13.64 13.64 0 0 1-3.4-.4L787.16 24l-1.26.4.39 3.66a16 16 0 0 0 6.63 1.34 8.63 8.63 0 0 0 5-1.3 5.35 5.35 0 0 0 2.12-4.61 4.3 4.3 0 0 0-1.89-4c-2.44-2-6.23-2.15-7.89-3.66a2.56 2.56 0 0 1-.9-2.22 4.25 4.25 0 0 1 .47-2.07 13.41 13.41 0 0 1 3-.36 10.27 10.27 0 0 1 3 .4l1.89 2.34 1.22-.31zm-28.43 1.63a7.7 7.7 0 0 1 3.52-.68c2.44 0 4 1.23 4 4.22a14.35 14.35 0 0 1-.15 2l-8.77.32a17.7 17.7 0 0 1 1.42-5.88m4.38-3a8.7 8.7 0 0 0-6 2.06c-1.42 1.35-2.84 4.37-2.84 8.73 0 5.8 1.85 9.85 7.81 9.85a16.52 16.52 0 0 0 3.55-.36l3.54-1.42-.54-1.91a12.13 12.13 0 0 1-5 1.12c-5.09 0-6.16-2.87-6.28-7l11.6-.79a20.18 20.18 0 0 0 .39-3.81c0-4.53-2.32-6.47-6.15-6.47m-18-2.95v20.9L754.45 28l.12 1.12.83.27 7.8-.35-.15-1.24-2.8-1.62V6.31l-1.42-5.2-1-.24L754 2.1l.2 1.35zm-18.61 7.35a9.73 9.73 0 0 1 4.81-1.59c3 0 4 2.22 4 6.79 0 3.86-.63 6.4-1.19 7.51a6.7 6.7 0 0 1-3.35.8 10.13 10.13 0 0 1-4.26-.76zm-3.15 12.23l.59 3.06a15.86 15.86 0 0 0 5.48.95c6.55 0 9-4.05 9-11.35 0-6-1.18-9.29-6.31-9.29a11.08 11.08 0 0 0-3.31.51L738.53 11V6.31l-1.42-5.2-1-.24-3.81 1.23.2 1.36 2.88 2.42zM714.88 9.06l-1-.24-3 1.23.28 1.31 2.41 2.5v10.21c0 3.57 1.41 5.39 4.6 5.39a12.61 12.61 0 0 0 4.39-.83l2.86-2.63 1.92 3.29 4-.27-.12-1.27-2.72-3.1v-11.5l-2.56-4.09-1-.24-3 1.23.28 1.31 3.2 2.86v9.45c-2.77 2.5-4.23 3-5.81 3-2.28 0-2.92-1-2.92-3.61v-9.91zM703 25.93a8.6 8.6 0 0 1-3.83.92c-4.7 0-5.17-3.54-5.17-7.47a17.61 17.61 0 0 1 1.26-7 9.22 9.22 0 0 1 3.71-.87c4.7 0 5.13 4.17 5.13 7.67a20.48 20.48 0 0 1-1.1 6.75m1.38 1.63c1.57-1.79 2.72-4.49 2.72-8.58 0-6.2-1.74-10.16-7.1-10.16-3 0-5 .75-6.16 1.86-1.41 1.35-2.91 4.37-2.91 8.86 0 6.35 1.54 9.92 7.88 9.92 2.65 0 4.66-.87 5.57-1.9m-27.09-13.71v12.83l-2.65 1.07.12 1.12 1.42.39 9.66-.27-.12-1.24-5.28-2v-9.24c1.14-2.58 2.4-3.89 3.23-4.24a4.35 4.35 0 0 1 2.72.91l1.34-.24.27-3.61a4.46 4.46 0 0 0-2.21-.47 7.88 7.88 0 0 0-3.11.71l-2.33 3.93-1.7-4.45-1-.23-3.04 1.18.31 1.32zM660 10.72l3.78 1.51-.16 2.3v10.88c0 3.38 1.94 4 4.3 4a12.52 12.52 0 0 0 1.26-.08l1.62-.75-.24-1.42c-2.25-.24-3.82-.52-3.82-2.23V14.57l-.16-2.42 5.48-.87.08-2.07h-5.52l.23-3.85-.75-.16-2.83 1 .39 3h-3.54zm-14 16.44v1.27c.67.16 1.26.56 1.26 1.12a20.48 20.48 0 0 1-.71 4.84l1.3.67a13.91 13.91 0 0 0 2.68-7.66c0-1.31-.91-2.14-2.72-2.38zm-7.56-13.54V25a6.23 6.23 0 0 1-4.3 1.71c-3.48 0-4.23-3.5-4.23-6.95 0-3.7.59-6.09 1.42-7.55a5.57 5.57 0 0 1 2.41-.64 6.77 6.77 0 0 1 4.7 2m5.67-4.41l-4.29-.39-.82 2.46a6.07 6.07 0 0 0-5.25-2.41c-5.24 0-6.82 4.08-6.82 11.23 0 5.21 1.3 9.33 6 9.33a10.09 10.09 0 0 0 3.71-.51l1.9-1.71a20.26 20.26 0 0 1-.75 6.16 6.44 6.44 0 0 1-3.79 1.23l-5.33-1.11-.67 1 1.62 2.82c4.65 0 7.42-.56 9.66-2.5 1.62-1.43 2.33-3.46 2.33-8.94V12.34l2.76-1.7zm-26.22 17.32l-.27 2.52 1.38.35 5.16-.35-.16-1.29-3-1.46v-12.4c0-3.61-1.22-5-4.49-5a9.53 9.53 0 0 0-4 .91l-3.67 2.69-1.44-3.4-1-.23-3 1.22.27 1.31 2.41 2.5v12.83l-2.64 1.07.08 1.12 1.42.39 8.71-.27-.12-1.24-4.36-1.75V14.53c2.88-2 4.86-2.78 6.28-2.78 1.77 0 2.44.87 2.44 2.82zM595 4.29l.83 1 2.6-.67-.83-3.54-.87-1.08-2.64.75zm1.42 4.77l-1-.24-3 1.22.28 1.32 2.4 2.5v12.9L592.43 28l.08 1.12.82.27 7.81-.35-.14-1.29-2.84-1.62v-13zM584 26.48l-.19 2.52 1.37.35 5.17-.35-.16-1.28-3-1.46V13.85c0-3.61-1.22-5-4.45-5a9.67 9.67 0 0 0-4 .91l-3.32 2.46V6.31L574 1.11l-1-.24-3.87 1.23.2 1.36 2.88 2.42v20.8l-2.64 1.07.12 1.12 1.41.39 8.68-.27-.12-1.24-4.3-1.75V14.49c2.84-2 4.81-2.74 6.27-2.74 1.78 0 2.41.87 2.41 2.82zm-28.7-15.76l3.79 1.51-.16 2.3v10.88c0 3.38 1.93 4 4.3 4 .43 0 .86 0 1.26-.08l1.61-.75-.23-1.42c-2.25-.24-3.83-.52-3.83-2.23V14.57l-.15-2.42 5.48-.87.08-2.07h-5.52l.23-3.85-.75-.16-2.83 1 .39 3h-3.55zm-7.16 15.21a8.57 8.57 0 0 1-3.83.92c-4.69 0-5.17-3.54-5.17-7.47a17.61 17.61 0 0 1 1.26-7 9.23 9.23 0 0 1 3.72-.87c4.69 0 5.12 4.17 5.12 7.67a20.48 20.48 0 0 1-1.1 6.75m1.38 1.63c1.57-1.79 2.72-4.49 2.72-8.58 0-6.2-1.74-10.16-7.1-10.16-3 0-5 .75-6.15 1.86-1.42 1.35-2.92 4.37-2.92 8.86 0 6.35 1.54 9.92 7.89 9.92 2.64 0 4.65-.87 5.56-1.9m-22.47-1.08l-.27 2.52 1.38.35 5.16-.35-.12-1.28-3-1.46V13.85c0-3.61-1.22-5-4.49-5a9.53 9.53 0 0 0-4 .91L518 12.42l-1.46-3.37-1-.23-3 1.22.28 1.31 2.4 2.5v12.83l-2.64 1.07.08 1.12 1.42.39 8.71-.27-.12-1.24-4.34-1.75V14.53c2.88-2 4.86-2.78 6.28-2.78 1.77 0 2.44.87 2.44 2.82zm-35.73-15.76l3.75 1.62v14.34l-2.64 1.07.08 1.12 1.42.39 8.71-.27-.12-1.24-4.34-1.75V12.19l5.17-.91.07-2.07h-5.24a16.28 16.28 0 0 1 .82-5.36 5.87 5.87 0 0 1 2.28-.4 7.49 7.49 0 0 1 1 .08L505.44 5l1-.52.16-2.85a13.74 13.74 0 0 0-4.24-.63c-2.37 0-4.61.87-5.6 2.3s-1.42 2.78-1.61 6h-3.67zm-7.4 15.21a8.54 8.54 0 0 1-3.83.92c-4.69 0-5.17-3.54-5.17-7.47a17.39 17.39 0 0 1 1.27-7 9.13 9.13 0 0 1 3.7-.87c4.7 0 5.14 4.17 5.14 7.67a20.44 20.44 0 0 1-1.11 6.75m1.38 1.63c1.58-1.79 2.7-4.49 2.7-8.56 0-6.2-1.73-10.16-7.1-10.16-3 0-5.05.75-6.15 1.86-1.42 1.35-2.92 4.37-2.92 8.86 0 6.35 1.54 9.92 7.89 9.92 2.64 0 4.65-.87 5.56-1.9m-29.06-14V25a6.14 6.14 0 0 1-4.22 1.73c-3.47 0-4.22-3.5-4.22-6.95 0-3.7.6-6.09 1.42-7.55a5.57 5.57 0 0 1 2.41-.64 6.9 6.9 0 0 1 4.66 2m2 15.72l4-.27-.12-1.27-2.72-3.1V6.31L458 1.11l-1-.24-3.84 1.23.2 1.36 2.88 2.42v4.76a5.87 5.87 0 0 0-4.7-1.82c-5.25 0-6.82 4.08-6.82 11.23 0 5.21 1.3 9.33 5.95 9.33a10.09 10.09 0 0 0 3.71-.51l2.33-2.1zm-22.82-25l.82 1 2.6-.67-.87-3.57-.84-1.07-2.64.75zm1.42 4.77l-1-.24-3 1.22.28 1.32 2.41 2.5v12.9l-2.7 1.22.08 1.12.83.27 7.81-.35-.12-1.24-2.85-1.62v-13zM419.7 26.73c-3.47 0-4.22-3.5-4.22-6.95 0-3.7.59-6.09 1.42-7.55a5.57 5.57 0 0 1 2.41-.64 7 7 0 0 1 4.81 2.1V24.9a6.1 6.1 0 0 1-4.42 1.83m6.39 2.57l4-.27-.09-1.27-2.72-3.1V12.34l2.8-1.7-.24-1.43-4.29-.39-.9 2.49c-1.7-1.86-2.93-2.49-5.33-2.49-5.25 0-6.82 4.08-6.82 11.23 0 5.21 1.3 9.33 5.95 9.33a10.12 10.12 0 0 0 3.71-.51l2.45-2.18zm-27.27-15.45v12.83l-2.65 1.07.12 1.12 1.42.39 9.66-.27-.12-1.24-5.29-2v-9.24c1.15-2.58 2.41-3.89 3.24-4.24a4.37 4.37 0 0 1 2.72.91l1.34-.24.28-3.61a4.46 4.46 0 0 0-2.21-.47 7.93 7.93 0 0 0-3.12.71l-2.33 3.93-1.69-4.45-1-.23-3.06 1.18.32 1.32zm-17.5-3.13l3.74 1.62v14.34l-2.64 1.07.08 1.12 1.42.39 8.71-.27-.12-1.24-4.33-1.75V12.19l5.16-.91.08-2.07h-5.24a16.08 16.08 0 0 1 .82-5.36 5.92 5.92 0 0 1 2.29-.4 7.63 7.63 0 0 1 1 .08L395.43 5l1-.52.15-2.85a13.68 13.68 0 0 0-4.22-.63c-2.37 0-4.62.87-5.6 2.3s-1.42 2.78-1.62 6h-3.67zm-12.41 16c-3.48 0-4.23-3.5-4.23-6.95 0-3.7.59-6.09 1.42-7.55a5.57 5.57 0 0 1 2.41-.64 7.09 7.09 0 0 1 4.82 2.1V24.9a6.13 6.13 0 0 1-4.42 1.83m6.38 2.57l4-.27-.16-1.27-2.73-3.1V12.34l2.81-1.7-.21-1.43-4.3-.39-.9 2.49c-1.7-1.86-2.92-2.49-5.33-2.49-5.24 0-6.82 4.08-6.82 11.23 0 5.21 1.3 9.33 6 9.33a10.09 10.09 0 0 0 3.71-.51l2.45-2.18zM349.9 10.2a16.84 16.84 0 0 0-6.12-1.3 8.36 8.36 0 0 0-4.89 1.22 5 5 0 0 0-2.05 4.09 4.61 4.61 0 0 0 1.54 3.7c2.4 2.06 6.15 2.26 8.17 3.77a2.7 2.7 0 0 1 1.06 2.38 6.34 6.34 0 0 1-.59 2.59 11.47 11.47 0 0 1-3.4.44 13.62 13.62 0 0 1-3.39-.4l-2.4-2.69-1.26.4.43 3.6a16 16 0 0 0 6.62 1.34 8.64 8.64 0 0 0 5-1.3 5.35 5.35 0 0 0 2.12-4.61 4.3 4.3 0 0 0-1.89-4c-2.44-2-6.23-2.15-7.89-3.66a2.56 2.56 0 0 1-.9-2.22 4.14 4.14 0 0 1 .47-2.07 13.34 13.34 0 0 1 3-.36 10.32 10.32 0 0 1 3 .4l1.89 2.34 1.22-.31zm-22.66-5.91l.82 1 2.6-.67-.83-3.54L329 0l-2.64.75zm1.41 4.77l-1-.24-3 1.22.28 1.32 2.4 2.5v12.9L324.67 28l.08 1.12.83.27 7.8-.35-.11-1.24-2.85-1.62v-13zm-18.89 16.87a8.53 8.53 0 0 1-3.82.92c-4.7 0-5.17-3.54-5.17-7.47a17.61 17.61 0 0 1 1.26-7 9.18 9.18 0 0 1 3.71-.87c4.7 0 5.13 4.17 5.13 7.67a20.18 20.18 0 0 1-1.11 6.75m1.38 1.63c1.58-1.79 2.72-4.49 2.72-8.58 0-6.2-1.73-10.16-7.1-10.16-3 0-5.05.75-6.15 1.86-1.42 1.35-2.92 4.37-2.92 8.86 0 6.35 1.54 9.92 7.89 9.92 2.65 0 4.66-.87 5.56-1.9m-22.5-1.08L288.4 29l1.38.35 5.16-.35-.15-1.28-3-1.46V13.85c0-3.61-1.22-5-4.45-5a9.74 9.74 0 0 0-4 .91L280 12.19V6.31l-1.42-5.2-1-.24-3.85 1.23.2 1.36 2.88 2.42v20.8l-2.65 1.07.12 1.12 1.42.39 8.68-.27-.12-1.24L280 26V14.49c2.84-2 4.81-2.74 6.27-2.74 1.78 0 2.41.87 2.41 2.82zM256.11 9.25l.47 2.78a52.05 52.05 0 0 1-3.94 14.1h-.55a89.55 89.55 0 0 1-3-14.1l3.83-1.27-.48-1.59-1.77-.17-7.3.23.2 1.39 2.05 1.24a114.57 114.57 0 0 0 4.14 17.38l2.05-.15h2.49A121.77 121.77 0 0 0 257.69 16h.2a122.67 122.67 0 0 0 3.19 13.25l1.54-.15h2.92A121.24 121.24 0 0 0 270 14.38l1-3-1.22-2.19-3.95-.31-1.34.16-.55 1.7 3.35 1.31a34.28 34.28 0 0 1-3.63 14.06h-.67a93.45 93.45 0 0 1-3-13.74L259.74 9l-.74-.22zm-31.94 4.6v12.83l-2.64 1.07.12 1.12 1.41.39 9.66-.27-.12-1.24-5.28-2v-9.24c1.14-2.58 2.41-3.89 3.23-4.24a4.35 4.35 0 0 1 2.72.91l1.35-.24.27-3.61a4.43 4.43 0 0 0-2.21-.47 7.88 7.88 0 0 0-3.11.71l-2.33 3.93-1.69-4.45-1-.23-3.06 1.18.31 1.32zm-17.19-2a7.7 7.7 0 0 1 3.52-.68c2.44 0 4 1.23 4 4.22a13.12 13.12 0 0 1-.16 2l-8.76.32a17.7 17.7 0 0 1 1.42-5.88m4.38-3a8.7 8.7 0 0 0-6 2.06c-1.42 1.35-2.84 4.37-2.84 8.73 0 5.8 1.85 9.85 7.81 9.85a16.52 16.52 0 0 0 3.55-.36l3.55-1.42-.56-1.91a12 12 0 0 1-5 1.12c-5.09 0-6.16-2.87-6.28-7l11.6-.79a20.18 20.18 0 0 0 .39-3.81c0-4.53-2.32-6.47-6.15-6.47M193.2 4.29l.82 1 2.6-.67-.82-3.54-.87-1.08-2.64.75zm1.42 4.77l-1-.24-3 1.22.28 1.32 2.41 2.5v12.9L190.63 28l.08 1.12.83.27 7.81-.35-.12-1.24-2.84-1.62v-13zm-12.17 4.52V25a6.14 6.14 0 0 1-4.27 1.71c-3.47 0-4.22-3.5-4.22-6.95 0-3.7.59-6.09 1.42-7.55a5.57 5.57 0 0 1 2.41-.64 6.9 6.9 0 0 1 4.66 2m2 15.72l4-.27-.12-1.27-2.73-3.1V6.31l-1.41-5.2-1-.24-3.82 1.23.19 1.36 2.89 2.42v4.76a5.88 5.88 0 0 0-4.7-1.82c-5.25 0-6.82 4.08-6.82 11.23 0 5.21 1.3 9.33 5.95 9.33a10.12 10.12 0 0 0 3.71-.51l2.33-2.1zm-22.7-23.42v20.89L159.07 28l.12 1.12.83.27 7.8-.35-.16-1.24-2.8-1.62V6.31l-1.41-5.2-1-.24-3.81 1.23.19 1.35zM151 25.93a8.57 8.57 0 0 1-3.83.92c-4.69 0-5.17-3.54-5.17-7.47a17.61 17.61 0 0 1 1.26-7 9.23 9.23 0 0 1 3.72-.87c4.69 0 5.12 4.17 5.12 7.67a20.48 20.48 0 0 1-1.1 6.75m1.38 1.63c1.57-1.79 2.72-4.49 2.72-8.58 0-6.2-1.74-10.16-7.1-10.16-3 0-5.05.75-6.16 1.86-1.41 1.35-2.91 4.37-2.91 8.86 0 6.35 1.54 9.92 7.89 9.92 2.64 0 4.65-.87 5.56-1.9M133.89 10.2a16.75 16.75 0 0 0-6.11-1.3 8.36 8.36 0 0 0-4.89 1.22 5 5 0 0 0-2 4.09 4.61 4.61 0 0 0 1.54 3.7c2.4 2.06 6.15 2.26 8.16 3.77a2.68 2.68 0 0 1 1.07 2.38 6.5 6.5 0 0 1-.59 2.59 11.47 11.47 0 0 1-3.4.44 13.56 13.56 0 0 1-3.39-.4L121.83 24l-1.27.4.44 3.6a16 16 0 0 0 6.62 1.34 8.61 8.61 0 0 0 5-1.3 5.36 5.36 0 0 0 2.13-4.61 4.3 4.3 0 0 0-1.89-4c-2.45-2-6.23-2.15-7.89-3.66a2.57 2.57 0 0 1-.91-2.22 4.25 4.25 0 0 1 .47-2.07 13.48 13.48 0 0 1 3-.36 10.27 10.27 0 0 1 3 .4l1.9 2.34 1.22-.31zm-77.63 6.89h3.48c5.93 19.64 12.07 44 17.18 69.35H35.8c5.32-26.39 11.87-49.5 20.46-69.35M0 130.63l.41 5.73 7.57 2 44.6-1.36-.82-6.35-22.3-8.18c1.23-8.39 2.66-16.57 4.09-24.55h45.83c1.84 9.21 3.48 18.62 4.91 27.82l-16.78 4.91.41 5.73 7.57 2 44.6-1.43-.82-6.35-17.59-8.18A1168.72 1168.72 0 0 0 73 2.36L61.78 5.22 23.93 2.77l-2.24 8 19.43 7.77c-8.39 27.83-20.25 74.06-27.21 107.2zm512.36 204.85l11.24 4.36-.47 6.68v31.55c0 9.78 5.72 11.51 12.74 11.51 1.29 0 2.58-.12 3.74-.23l4.8-2.19-.7-4.14c-6.67-.69-11.35-1.49-11.35-6.44v-29.94l-.47-7 16.27-2.53.23-6H532l.7-11.17-2.23-.46-8.41 3 1.17 8.64h-10.52zm-53.51-4.84l-2.92-.69-9 3.57.81 3.8 7.14 7.25v29.59c0 10.36 4.21 15.65 13.68 15.65a38 38 0 0 0 13-2.42l8.54-7.59 5.73 9.55 11.82-.81-.36-3.67-8.08-9V342.5l-7.58-11.86-2.93-.64-9 3.57.83 3.8 9.48 8.29V373c-8.19 7.25-12.52 8.75-17.21 8.75-6.79 0-8.67-2.88-8.67-10.48V342.5zM423 379.57a26 26 0 0 1-11.36 2.65c-13.94 0-15.34-10.25-15.34-21.64 0-9.45 2-16.59 3.74-20.28a27.68 27.68 0 0 1 11-2.53c13.93 0 15.23 12.09 15.23 22.23a57.87 57.87 0 0 1-3.27 19.57m4.1 4.72c4.67-5.18 8.06-13 8.06-24.87 0-18-5.14-29.47-21.06-29.47-9 0-15 2.19-18.27 5.4-4.21 3.92-8.65 12.67-8.65 25.69 0 18.42 4.57 28.77 23.4 28.77 7.85 0 13.83-2.54 16.52-5.52m-89.81-41.57c4-2.42 9.37-4.6 14.29-4.6 9 0 11.83 6.44 11.83 19.69 0 11.17-1.88 18.54-3.52 21.76a20.44 20.44 0 0 1-10 2.3c-4.81 0-9-.57-12.65-2.18zM328 378.19l1.76 8.85c3.73 1.61 10.75 2.77 16.26 2.77 19.43 0 26.68-11.74 26.68-32.92 0-17.39-3.51-26.94-18.72-26.94a33.78 33.78 0 0 0-9.83 1.5l-6.8 4.94V322.7l-4.2-15.08-2.92-.69-11.36 3.57.59 3.91 8.54 7zm-44.5 3.68c-10.31 0-12.53-10.13-12.53-20.14 0-10.72 1.76-17.63 4.22-21.89a16.86 16.86 0 0 1 7.14-1.84c6.09 0 10.66 2.88 14.28 6.1v32.48a18.31 18.31 0 0 1-13.11 5.29m19 7.48l11.93-.81-.47-3.67-8.07-9v-35.7l8.31-4.95-.7-4.13-12.84-1.09-2.66 7.2c-5-5.4-8.65-7.25-15.8-7.25-15.56 0-20.24 11.85-20.24 32.58 0 15.08 3.86 27.05 17.67 27.05 4.8 0 7.85-.35 11-1.5l7.25-6.32z" class="b30cc1bc-86a9-4841-becd-3baebaa5fec4"/></g></g></svg>