<svg xmlns="http://www.w3.org/2000/svg" id="Layer_1" width="360" height="338.2" viewBox="0 0 360 338.2"><style>.st0{fill:#787878}.st1{fill:#2997ff}.st2{enable-background:new}</style><g id="a5aa1b63-5bd2-4389-81ed-966d048faa97"><g id="b1839b9b-9fd0-4519-ba49-b37fc5dce2e2"><path d="M360 338.2h-49.6v-3H360v3zm-156.4 0H149v-3h54.5l.1 3zM360 324h-87.2v-3H360v3zm-139.6 0h-87.2v-3h87.2v3zM360 309.7h-87.2v-3H360v3zm-139.6 0h-87.2v-3h87.2v3zM360 295.5h-87.2v-3H360v3zm-139.6 0h-87.2v-3h87.2v3zM360 281.2h-87.2v-3H360v3zm-139.6 0h-87.2v-3h87.2v3zM360 266.9h-87.2v-3H360v3zm-139.6 0h-87.2v-3h87.2v3zM353 169.2h-87.3v-3h87.2l.1 3zm-132.6 0h-87.3v-3h87.2l.1 3zM353 155h-73.4v-3H353v3zm-145.5 0H145v-3h62.5v3zM353 140.7h-87.3v-3h87.2l.1 3zm-132.6 0h-87.3v-3h87.2l.1 3zM353 126.4h-73.4v-3H353v3zm-145.5 0H145v-3h62.5v3zM353 112.1h-87.3v-3h87.2l.1 3zm-132.6 0h-87.3v-3h87.2l.1 3zM353 97.8h-73.4v-3H353v3zm-145.5 0H145v-3h62.5v3z" class="st0"/><path d="M139.6 54.5h-3.7l-.7 2.5H133l3.4-11h2.6l3.4 11h-2.1l-.7-2.5zm-.5-1.7l-1.4-5.2-1.4 5.2h2.8zm4.4 2.3v-9.8l2.1-.2v10c0 .5.1.6.5.6.2 0 .4 0 .5-.1l.4 1.4c-.4.2-.9.4-1.4.4-1.1.1-2-.7-2.1-1.8v-.5zm7.2-9.6c-.1.7-.7 1.2-1.4 1.1-.5-.1-1-.5-1.1-1.1.1-.7.7-1.2 1.4-1.2.5.2.9.5 1.1 1.2zm-.4 11.4h-2.1v-8.4h2.1v8.4zM160 49c-.8.2-1.6.3-2.3.3.9.3 1.6 1.2 1.4 2.2 0 1.6-1.3 2.8-3.4 2.8-.4 0-.7 0-1-.1-.2.1-.4.5-.4.6 0 .3.2.6 1 .6h1.3c1.9 0 3.1 1 3.1 2.3 0 1.6-1.4 2.6-4.1 2.6-3 0-3.9-1-3.9-2.6h1.8c0 .8.4 1.2 2 1.2s2.1-.4 2.1-1.1-.5-1-1.4-1h-1.3c-1.7 0-2.3-.8-2.3-1.6 0-.7.4-1.4 1-1.6-.9-.5-1.4-1.4-1.4-2.4 0-1.8 1.4-3 3.5-3 1.4.1 2.8-.2 4-.9l.3 1.7zm-5.8 2.3c-.1.8.5 1.5 1.3 1.6h.2c1 0 1.4-.6 1.4-1.6 0-1.1-.5-1.6-1.4-1.6-.8 0-1.4.6-1.4 1.4l-.1.2zm13.8-.5v6h-2V51c0-1.1-.4-1.3-1-1.3-.8.1-1.4.6-1.8 1.3v6h-2v-8.4h1.8l.2 1.1c.5-.8 1.4-1.3 2.6-1.3 1.3 0 2.3 1 2.3 2.2 0 .1 0 .3-.1.2zm13.8-3.9l-1.1 1.2c-.5-.5-1.3-.8-2-.8-1.4 0-2.6 1.1-2.6 4 0 3 1.1 4.1 2.6 4.1.8 0 1.6-.3 2.3-.9l1 1.2c-.9.9-2.1 1.4-3.2 1.4-2.9 0-4.9-2-4.9-5.8s2.1-5.6 4.8-5.6c1.1 0 2.2.5 3.1 1.2zm8 6.5h-5.3c.2 1.6 1 2.2 2.1 2.2.8 0 1.4-.3 2.1-.8l.9 1.2c-.9.7-2 1.1-3.1 1.1-2.6 0-4-1.8-4-4.3 0-2.7 1.4-4.5 3.8-4.5 2.3 0 3.7 1.6 3.7 4.3-.1.1-.1.6-.2.8zm-2-1.4c0-1.4-.5-2.2-1.6-2.2-1 0-1.6.6-1.7 2.2.1.1 3.3-.1 3.3 0zm10.7-1.2v6h-2V51c0-1.1-.4-1.3-1-1.3-.8.1-1.4.6-1.8 1.3v6h-2.1v-8.4h1.8l.1 1.1c.5-.8 1.6-1.3 2.6-1.3 1.3-.1 2.3.9 2.3 2.1.2.1.2.3.1.3zm7.1 5.7c-.5.5-1.4.6-2.1.6-1.7 0-2.6-1-2.6-2.8v-4.5h-1.3v-1.3h1.3v-1.9l2-.2v2.1h2l-.2 1.5H203v4.5c0 .8.4 1.2.9 1.2.4 0 .7-.1 1-.3l.7 1.1zm7.8-3.1h-5.3c.2 1.6 1 2.2 2.1 2.2.8 0 1.4-.3 2.1-.8l.9 1.2c-.9.7-2 1.1-3.1 1.1-2.6 0-4-1.8-4-4.3 0-2.7 1.4-4.5 3.8-4.5 2.3 0 3.7 1.6 3.7 4.3-.2.1-.2.6-.2.8zm-2-1.4c0-1.4-.5-2.2-1.6-2.2-1 0-1.6.6-1.7 2.2 0 .1 3.3-.1 3.3 0zm8.8-3.5l-.4 2c-.2-.1-.5-.1-.8-.1-1 0-1.6.8-1.9 2.2v4.5H215v-8.5h1.8l.2 1.6c.2-1.1 1.1-1.8 2.2-1.9.4 0 .8.1 1 .2zm52.1 5.9h-3.7l-.7 2.5h-2.2l3.4-11h2.6l3.4 11h-2.2l-.6-2.5zm-.5-1.6l-1.3-5.2-1.4 5.2h2.7zm4.3 2.3v-9.8l2-.2v10c0 .5.1.6.4.6.2 0 .4 0 .5-.1l.5 1.4c-.5.2-.9.4-1.4.4-1.1.1-2-.7-2.1-1.8l.1-.5zm7.2-9.6c-.1.7-.8 1.2-1.4 1-.4-.1-.9-.5-1-1 .1-.7.7-1.2 1.4-1.2.5.2.9.5 1 1.2zm-.3 11.4h-2v-8.4h2v8.4zm9.7-7.9c-.8.2-1.6.3-2.5.3.9.3 1.6 1.2 1.4 2.2 0 1.6-1.4 2.8-3.4 2.8-.4 0-.7 0-1-.1-.2.1-.4.5-.5.6 0 .3.2.6 1 .6h1.4c1.9 0 3.1 1 3.1 2.3 0 1.6-1.4 2.6-4.1 2.6-3 0-3.9-1-3.9-2.6h1.9c0 .8.5 1.2 2 1.2s2.1-.4 2.1-1.1c0-.7-.4-1-1.3-1h-1.2c-1.7 0-2.3-.8-2.3-1.6 0-.7.5-1.4 1-1.6-.9-.5-1.4-1.4-1.4-2.4 0-1.8 1.4-3 3.5-3 1.4.1 2.8-.2 4-.9l.2 1.7zm-5.9 2.3c-.1.8.4 1.6 1.4 1.6h.2c1 0 1.4-.6 1.4-1.6 0-1.1-.4-1.6-1.4-1.6-.8 0-1.4.6-1.4 1.4l-.2.2zm13.9-.5v6h-2V51c0-1.1-.4-1.3-1-1.3-.8.1-1.4.6-1.8 1.3v6h-2v-8.4h1.8l.2 1.1c.5-.8 1.6-1.3 2.6-1.3 1.3-.1 2.2.9 2.3 2.2-.1.1-.1.2-.1.2zm9.8 1.8h-1.4V57H307V46h3.2c2.9 0 4.4 1 4.4 3.2 0 1.3-.9 2.5-2.2 3l2.9 4.8H313c0-.2-2.5-4.4-2.5-4.4zm-1.4-1.6h1.4c1.4 0 2-.5 2-1.9 0-1.3-.5-1.6-2.2-1.6h-1.1c-.1-.1-.1 3.5-.1 3.5zm9.9-5.5c-.1.7-.7 1.2-1.4 1.2-.5-.1-1.1-.5-1.2-1.2.1-.7.7-1.2 1.4-1.2.6.2 1.1.6 1.2 1.2zm-.3 11.4h-2v-8.4h2v8.4zm9.6-7.9c-.8.2-1.6.3-2.5.3.9.3 1.6 1.2 1.4 2.2 0 1.6-1.3 2.8-3.4 2.8-.4 0-.7 0-1-.1-.2.1-.4.5-.5.6 0 .3.2.6 1 .6h1.4c1.9 0 3.1 1 3.1 2.3 0 1.6-1.4 2.6-4.1 2.6-3 0-3.9-1-3.9-2.6h1.8c0 .8.5 1.2 2 1.2s2.1-.4 2.1-1.1c0-.7-.5-1-1.4-1h-1.4c-1.7 0-2.3-.8-2.3-1.6 0-.7.4-1.4 1-1.6-.9-.5-1.4-1.4-1.4-2.4 0-1.8 1.4-3 3.5-3 1.3.1 2.8-.2 4-.9l.6 1.7zm-5.8 2.3c-.1.8.4 1.5 1.3 1.6h.2c1 0 1.4-.6 1.4-1.6 0-1.1-.5-1.6-1.4-1.6-.8 0-1.4.6-1.4 1.4l-.1.2zm13.9-.5v6h-2V51c0-1.1-.4-1.3-1-1.3-.8.1-1.4.6-1.8 1.3v6h-2V45.3l2-.2v4.5c.5-.8 1.4-1.3 2.5-1.2 1.4 0 2.2 1 2.2 2.2l.1.2zm7 5.7c-.5.5-1.4.6-2.1.6-1.7 0-2.5-1-2.5-2.8v-4.5h-1.4v-1.4h1.4v-1.9l2-.2v2.1h2l-.2 1.5h-1.8v4.5c0 .8.4 1.2.9 1.2s.7-.1 1-.3c.1 0 .8 1.3.7 1.2zm-73 15h-1.3v4.3H267V65h3.2c2.9 0 4.4 1 4.4 3.2 0 1.4-.9 2.5-2.2 3l2.9 4.8H273l-2.6-4.5zm-1.2-1.5h1.4c1.4 0 2-.5 2-1.8s-.7-1.6-2.2-1.6h-1.1l-.1 3.4zm14.1 4.9l-.4 1.4c-.8 0-1.6-.5-1.9-1.2-.5.9-1.4 1.3-2.5 1.3-1.4.1-2.6-.9-2.7-2.3v-.3c0-1.8 1.3-2.8 3.8-2.8h1.1v-.5c0-1.1-.5-1.5-1.6-1.5-.8 0-1.4.2-2.2.4l-.4-1.4c1-.4 2-.6 3.1-.7 2.2 0 3.2 1 3.2 2.9V74c0 .4.2.6.5.9zm-2.5-1.3V72h-.9c-1.4 0-2 .5-2 1.5-.1.6.4 1.2.9 1.3h.4c.6-.2 1.2-.6 1.6-1.2zm11.6-5.6c-.8.2-1.6.3-2.5.3 1 .3 1.6 1.2 1.6 2.2 0 1.6-1.4 2.8-3.4 2.8-.4 0-.7 0-1-.1-.2.1-.4.4-.5.6 0 .3.2.6 1 .6h1.3c1.9 0 3.1 1 3.1 2.4 0 1.6-1.4 2.6-4.1 2.6-3 0-3.9-1-3.9-2.6h1.8c0 .8.5 1.2 2 1.2s2.1-.5 2.1-1.1c0-.5-.5-1-1.4-1h-1.4c-1.7 0-2.3-.8-2.3-1.6 0-.7.4-1.3 1-1.6-.9-.4-1.4-1.4-1.4-2.4 0-1.8 1.4-3 3.5-3 1.4.1 2.8-.2 4-.9l.5 1.6zm-5.8 2.3c-.1.8.5 1.5 1.4 1.6h.2c1 0 1.4-.6 1.4-1.6s-.5-1.6-1.4-1.6c-.8 0-1.4.6-1.4 1.4-.1 0-.2.2-.2.2zm13.2 3.9h4.4l-.2 1.6h-6.3V65h2.1v9.2zm12.2-1.8h-5.3c.2 1.6 1 2.3 2.1 2.3.8 0 1.4-.3 2.1-.8l.8 1.2c-.9.7-2 1.2-3.1 1.2-2.6 0-4-1.8-4-4.3 0-2.6 1.4-4.6 3.6-4.6s3.6 1.6 3.6 4.3c.3.1.2.5.2.7zm-2-1.4c0-1.4-.4-2.2-1.6-2.2-1 0-1.6.6-1.7 2.3l3.3-.1zm6.3-4.4v.9h1.6l-.2 1.5h-1.4v7h-2v-7H313v-1.5h1.4v-.9c0-1.5 1-2.6 3-2.6.4 0 .9.1 1.3.2l-.4 1.5c-.4-.1-.5-.1-.8-.1-1-.1-1.2.3-1.2 1zm8 8.9c-.5.4-1.4.7-2.1.6-1.7 0-2.5-1-2.5-2.8v-4.4h-1.4v-1.5h1.4v-1.9l2-.2v2.2h2l-.2 1.5h-1.8v4.3c0 .8.4 1.2.9 1.2.4 0 .7-.1 1-.3 0 0 .7 1.4.7 1.3zM141.8 235.1l-1.1 1.2c-.5-.4-1.3-.8-2-.8-1.4 0-2.6 1.1-2.6 4.1s1.1 4.1 2.6 4.1c.8 0 1.6-.4 2.3-.9l1 1.2c-.9.9-2.1 1.3-3.2 1.3-2.9 0-4.9-2-4.9-5.8s2.1-5.8 4.8-5.8c1.3.2 2.3.6 3.1 1.4zm8.1 6.5h-5.3c.2 1.7 1 2.2 2.1 2.2.8 0 1.4-.4 2.1-.8l.9 1.2c-.9.7-2 1.1-3.1 1.1-2.6 0-4-1.7-4-4.4s1.4-4.5 3.8-4.5c2.3 0 3.7 1.6 3.7 4.3-.2.3-.2.6-.2.9zm-2-1.4c0-1.3-.5-2.2-1.6-2.2-1 0-1.6.5-1.7 2.2h3.3zm10.7-1.2v6h-2.1v-5.8c0-1.1-.4-1.4-1-1.4-.5 0-1.3.4-1.8 1.4v5.8h-2.1v-8.5h1.8l.2 1.1c.5-.8 1.4-1.4 2.6-1.4 1.3-.1 2.3.9 2.3 2.2l.1.6zm7.1 5.7c-.5.4-1.4.7-2.1.5-1.7 0-2.6-1-2.6-2.8V238h-1.3v-1.4h1.3v-1.9l2-.2v2.1h2l-.2 1.4h-1.7v4.4c0 .8.4 1.2.9 1.2.4 0 .7-.1 1-.4l.7 1.5zm7.6-3.1H168c.2 1.7 1 2.2 2.1 2.2.8 0 1.4-.4 2.1-.8l.8 1.2c-.9.7-2 1.1-3.1 1.1-2.6 0-4-1.7-4-4.4s1.4-4.5 3.8-4.5 3.7 1.6 3.7 4.3c0 .3 0 .6-.1.9zm-1.9-1.4c0-1.3-.5-2.2-1.6-2.2-1 0-1.6.5-1.7 2.2h3.3zm8.8-3.5l-.4 2c-.2-.1-.5-.1-.8-.1-1 0-1.6.8-1.9 2.2v4.5h-2v-8.5h1.8l.2 1.7c.2-1.1 1.1-1.8 2.2-1.9.3 0 .7 0 .9.1zm.3 2.6h4.8v1.6h-4.8v-1.6zm9.3 4.2c0 2.6-1.4 3.5-3.2 4.1l-.5-1.4c1.4-.5 1.7-1.3 1.7-2.6v-9.4h2.1l-.1 9.3zm9 1.6H197l-.1-1.2c-.5.9-1.4 1.4-2.6 1.4-1.4 0-2.3-1-2.3-2.6v-5.9h2.1v5.8c0 1 .4 1.4 1 1.4.7-.1 1.4-.4 1.7-1.2V237h2v8.1zm8-7.7l-.8 1.2c-.5-.5-1.4-.7-2.1-.7-.8 0-1.3.4-1.3.8s.4.8 1.8 1.2c1.7.4 2.6 1.2 2.6 2.7 0 1.8-1.6 2.7-3.5 2.7-1.2 0-2.3-.4-3.4-1.2l1-1.1c.7.4 1.4.8 2.3.8s1.4-.4 1.4-1-.4-.9-1.9-1.4c-1.8-.4-2.5-1.3-2.5-2.6 0-1.4 1.3-2.5 3.2-2.5 1.3.1 2.4.6 3.2 1.1zm6.8 7.3c-.5.4-1.4.7-2.1.5-1.7 0-2.6-1-2.6-2.8V238h-1.3v-1.4h1.3v-1.9l2.1-.2v2.1h2l-.2 1.4H211v4.4c0 .8.4 1.2.9 1.2.4 0 .7-.1 1-.4l.7 1.5zm3.3-11c-.1.7-.7 1.2-1.4 1.2-.5-.1-1.1-.4-1.2-1.2.1-.7.7-1.2 1.4-1.2.7.2 1.1.5 1.2 1.2zm-.2 11.4h-2v-8.4h2v8.4zm4.5-9.2v.9h2l-.2 1.4h-1.8v6.9h-2v-6.9h-1.4v-1.4h1.4v-.9c0-1.4 1-2.7 3-2.7.8 0 1.4.2 2.2.4l-.5 1.4c-.4-.2-.9-.4-1.4-.4-.8 0-1.3.5-1.3 1.3z"/><path d="M228.6 245.2c-.5 2-2.3 3.4-4.4 3.4l-.2-1.4c1.2 0 2.3-.8 2.6-2h-.7l-2.6-8.5h2.2l1.8 7 1.9-7h2.1l-2.7 8.5zm41.9-4.5h-1.4v4.4H267v-11h3.2c2.9 0 4.4 1.1 4.4 3.1 0 1.4-.9 2.6-2.2 3l2.9 4.8H273l-2.5-4.3zm-1.3-1.5h1.4c1.4 0 2-.4 2-1.9s-.7-1.7-2.2-1.7h-1.1l-.1 3.6zm9.8-5.6c0 .7-.5 1.3-1.2 1.3s-1.4-.4-1.4-1.2.5-1.4 1.2-1.4c.8.1 1.3.6 1.4 1.3 0-.1 0 0 0 0zm-.3 11.5h-2v-8.5h2v8.5zm9.7-8c-.8.2-1.6.4-2.5.4.9.4 1.6 1.2 1.4 2.2 0 1.6-1.3 2.9-3.4 2.9-.4 0-.7 0-1-.1-.2.1-.4.4-.5.5 0 .4.2.5 1 .5h1.4c1.9 0 3.1 1 3.1 2.3 0 1.7-1.4 2.7-4.1 2.7-3 0-3.9-1-3.9-2.6h1.8c0 .8.5 1.2 2 1.2s2.1-.4 2.1-1.1c0-.6-.4-1-1.3-1H283c-1.7 0-2.3-.8-2.3-1.6 0-.7.4-1.3 1-1.6-.9-.5-1.4-1.4-1.4-2.3 0-1.8 1.4-3 3.5-3 1.3.1 2.8-.2 4-.9l.6 1.5zm-5.9 2.3c-.1.8.5 1.4 1.4 1.7h.2c1 0 1.4-.5 1.4-1.7s-.5-1.6-1.4-1.6c-.8 0-1.4.5-1.4 1.3l-.2.3zm13.9-.4v6h-2v-5.8c0-1.1-.5-1.4-1-1.4-.8.1-1.4.5-1.8 1.4v5.8h-2v-11.7l2-.2v4.5c.5-.8 1.4-1.2 2.5-1.2 1.4 0 2.2.9 2.3 2.2v.4zm7.2 5.7c-.5.4-1.3.7-2.1.5-1.7 0-2.5-1-2.5-2.8V238h-1.4v-1.4h1.4v-1.9l2-.2v2.1h2l-.2 1.4H301v4.4c0 .8.4 1.2.9 1.2s.7-.1 1-.4l.7 1.5zm.1-5.4h4.8v1.6h-4.8v-1.6zm9.1 4.1c0 2.6-1.4 3.5-3.1 4.1l-.5-1.4c1.4-.5 1.7-1.4 1.7-2.6v-9.4h2.1l-.2 9.3zm9 1.7H320l-.1-1.2c-.4.9-1.4 1.4-2.6 1.4-1.4 0-2.3-1-2.3-2.6v-5.9h2v5.8c0 1 .4 1.4 1 1.4.7-.1 1.4-.4 1.7-1.2v-5.9h2l.1 8.2zm8.1-7.7l-.8 1.2c-.5-.4-1.4-.7-2.1-.7-.8 0-1.3.4-1.3.8 0 .5.4.8 1.8 1.2 1.7.4 2.7 1.2 2.7 2.7 0 1.8-1.6 2.7-3.6 2.7-1.2 0-2.3-.4-3.4-1.2l1-1.1c.7.4 1.4.8 2.2.8.9 0 1.4-.4 1.4-1s-.4-.9-1.9-1.4c-1.8-.4-2.5-1.3-2.5-2.6 0-1.4 1.4-2.5 3.2-2.5 1.4.1 2.5.5 3.3 1.1zm6.7 7.2c-.5.4-1.4.7-2.1.5-1.7 0-2.5-1-2.5-2.8v-4.5h-1.4v-1.4h1.4v-1.9l2-.2v2.1h2l-.2 1.4H334v4.4c0 .8.4 1.2.9 1.2.4 0 .7-.1 1-.4l.7 1.6zm3.4-11c0 .7-.5 1.3-1.2 1.3s-1.4-.4-1.4-1.2.4-1.4 1.2-1.4c.8.1 1.4.5 1.4 1.3 0-.1 0 0 0 0zm-.3 11.5h-2v-8.5h2v8.5zm4.7-9.3v.9h2l-.2 1.4h-1.8v6.9h-2v-6.9H341v-1.4h1.4v-.9c0-1.4 1-2.7 3-2.7.8 0 1.4.2 2.2.4l-.5 1.3c-.5-.2-.9-.4-1.4-.4-1 .2-1.2.7-1.3 1.4z"/><path d="M351.7 245.2c-.5 2-2.2 3.5-4.4 3.4l-.2-1.4c1.2 0 2.2-.8 2.7-2h-.7l-2.7-8.5h2.2l1.8 7 1.9-7h2.1l-2.7 8.5z"/></g></g><g id="a5aa1b63-5bd2-4389-81ed-966d048faa97_00000008862318163370947660000000211903929632960393_"><path id="b1839b9b-9fd0-4519-ba49-b37fc5dce2e2_00000031893896382790775230000010546914935983676318_" d="M87.4 169.2H.1v-3h87.2l.1 3zM72.5 155H.1v-3h72.4v3zm14.9-14.3H.1v-3h87.2l.1 3zm-14.9-14.3H.1v-3h72.4v3zm14.9-14.3H.1v-3h87.2l.1 3zM72.5 97.8H.1v-3h72.4v3zm-66-43.3H2.9L2.2 57H0l3.4-11H6l3.4 11H7.2l-.7-2.5zM6 52.9l-1.4-5.2-1.4 5.2H6zm4.4 2.2v-9.8l2.1-.2v10c0 .5.1.6.5.6.2 0 .4 0 .5-.1L14 57c-.4.2-.9.4-1.4.4-1.1.1-2-.7-2.1-1.6-.1-.5-.1-.6-.1-.7zm7.1-9.6c0 .7-.5 1.4-1.3 1.4-.7 0-1.4-.6-1.4-1.4 0-.7.5-1.3 1.4-1.3.7.1 1.3.6 1.3 1.3zm-.2 11.4h-2.1v-8.4h2.1v8.4zm9.6-7.9c-.8.2-1.6.3-2.5.3.9.3 1.6 1.2 1.4 2.2 0 1.6-1.3 2.8-3.4 2.8-.4 0-.7 0-1-.1-.2.1-.4.5-.4.6 0 .3.2.6 1 .6h1.4c1.9 0 3.1 1 3.1 2.3 0 1.6-1.4 2.6-4.1 2.6-3 0-3.9-1-3.9-2.6h1.8c0 .8.4 1.2 2 1.2s2.2-.5 2.2-1.1-.4-1-1.3-1H22c-1.7 0-2.3-.8-2.3-1.6 0-.7.4-1.4 1-1.6-.9-.5-1.4-1.4-1.4-2.4 0-1.8 1.4-3 3.5-3 1.4.1 2.8-.2 4-.9l.1 1.7zm-5.8 2.3c-.1.8.5 1.5 1.4 1.6h.2c1 0 1.4-.6 1.4-1.6 0-1.1-.4-1.6-1.4-1.6-.8 0-1.4.6-1.4 1.3-.2.1-.2.3-.2.3zm13.8-.5v6h-2V51c0-1.1-.5-1.3-1-1.3-.8.1-1.5.6-1.8 1.3v6H28v-8.4h1.8l.2 1.1c.6-.8 1.5-1.3 2.5-1.3 1.3-.1 2.2.9 2.4 2.1.2.1.1.3 0 .3zm8.5 4.5h4.3l-.3 1.6h-6.2v-11h2l.2 9.4zm12.3-1.9h-5.2c.2 1.6 1 2.2 2.1 2.2.8 0 1.5-.3 2.1-.8l.9 1.2c-.9.7-2 1.1-3.1 1.1-2.5 0-4-1.8-4-4.3 0-2.7 1.3-4.5 3.8-4.5 2.4 0 3.6 1.6 3.6 4.3-.2.1-.2.6-.2.8zm-2-1.4c0-1.4-.4-2.2-1.6-2.2-1 0-1.6.6-1.6 2.2-.1.1 3.3-.1 3.2 0zm6.1-4.3v.9h1.6l-.2 1.4h-1.3v7h-2v-7h-1.4v-1.5H58v-.9c0-1.5 1-2.7 3-2.7.5 0 .9.1 1.4.2l-.4 1.5c-.4-.1-.7-.1-.9-.1-1 0-1.3.3-1.3 1.2zm8 8.8c-.6.4-1.4.6-2.1.6-1.6 0-2.5-1-2.5-2.8v-4.5h-1.3v-1.3h1.3v-1.9l2-.2v2.1h2L67 50h-1.8v4.5c0 .8.3 1.2.9 1.2.4 0 .7-.1 1-.3 0 0 .7 1.2.7 1.1zm-63 15.1H3.4v4.3h-2V65h3.2c2.9 0 4.3 1 4.3 3.2 0 1.4-.9 2.5-2.2 3L9.6 76H7.3c-.1-.1-2.5-4.4-2.5-4.4zM3.5 70h1.4c1.3 0 2.1-.5 2.1-1.8s-.7-1.6-2.2-1.6H3.4c0-.1 0 3.4.1 3.4zm14.1 4.9l-.5 1.4c-.8 0-1.6-.5-1.9-1.2-.5.8-1.4 1.3-2.5 1.3-1.4.1-2.6-.9-2.6-2.3v-.3c0-1.8 1.4-2.8 3.8-2.8H15v-.5c0-1.1-.4-1.5-1.6-1.5-.8 0-1.4.2-2.3.4l-.5-1.4c1-.4 2-.6 3-.7 2.3 0 3.3 1 3.3 2.9V74c.1.4.3.6.7.9zM15 73.6V72h-.9c-1.3 0-2 .5-2 1.5-.1.6.4 1.2.9 1.3h.4c.6-.1 1.4-.6 1.6-1.2zM26.7 68c-.8.2-1.6.3-2.5.3.9.3 1.6 1.2 1.4 2.2 0 1.6-1.3 2.8-3.4 2.8-.4 0-.7 0-1-.1-.2.1-.5.4-.5.6 0 .3.2.6 1 .6h1.4c1.9 0 3.1 1 3.1 2.4 0 1.6-1.4 2.6-4.1 2.6-3 0-3.9-1-3.9-2.6H20c0 .8.4 1.2 2 1.2s2-.5 2-1-.4-1-1.4-1h-1.1c-1.7 0-2.3-.8-2.3-1.6 0-.7.4-1.3 1-1.6-1-.4-1.6-1.4-1.4-2.4 0-1.8 1.4-3 3.5-3 1.4.1 2.8-.2 4-.9 0-.1.4 1.5.4 1.5zm-5.8 2.3c-.1.8.5 1.5 1.4 1.6h.2c1 0 1.4-.6 1.4-1.6s-.5-1.6-1.4-1.6c-.8 0-1.4.6-1.4 1.4-.2 0-.2.2-.2.2zm6.5-.1h4.8v1.6h-4.8v-1.6zm10.3 1.4h-1.3V76h-2.1V65h3.3c2.9 0 4.3 1 4.3 3.2 0 1.4-.9 2.5-2.2 3l3 4.8h-2.5c.1-.1-2.5-4.4-2.5-4.4zM36.4 70h1.4c1.3 0 2-.5 2-1.9 0-1.3-.7-1.6-2.2-1.6h-1.1l-.1 3.5zm9.7-5.4c0 .7-.5 1.3-1.2 1.4-.7 0-1.4-.5-1.4-1.2s.5-1.3 1.2-1.4h.1c.7-.1 1.3.3 1.3 1.2 0-.1 0 0 0 0zM45.9 76h-2v-8.4h2V76zm9.6-8c-.8.2-1.6.3-2.5.3.9.3 1.6 1.2 1.5 2.2 0 1.6-1.3 2.8-3.4 2.8-.3 0-.7 0-1-.1-.2.1-.3.4-.3.6s.2.6 1 .6h1.3c1.9 0 3.1 1 3.1 2.4 0 1.6-1.5 2.6-4.1 2.6-3 0-3.8-1-3.8-2.6h1.8c0 .8.5 1.2 2 1.2s2.1-.4 2.1-1.1c0-.7-.5-1-1.3-1h-1.2c-1.6 0-2.4-.8-2.4-1.6 0-.7.5-1.3 1-1.6-1-.4-1.6-1.3-1.5-2.4 0-1.8 1.5-3 3.4-3 1.4.1 2.8-.2 4-.9l.3 1.6zm-5.8 2.3c-.1.8.5 1.5 1.3 1.6h.2c1 0 1.5-.6 1.5-1.6s-.5-1.6-1.5-1.6c-.8 0-1.5.6-1.5 1.4v.2zm14-.4v6h-2v-5.8c0-1.1-.4-1.4-1-1.4-.8.1-1.4.6-1.8 1.3v5.8h-2.1V64.2l2-.2v4.6c.6-.8 1.5-1.3 2.5-1.3 1.3-.1 2.4.9 2.4 2.2.1 0 0 .4 0 .4zm7 5.6c-.6.4-1.3.7-2.1.7-1.6 0-2.5-1-2.5-2.8V69h-1.3v-1.5h1.3v-1.9l2-.2v2.1h2l-.3 1.5h-1.6v4.3c0 .8.3 1.2.9 1.2.4 0 .7-.1 1-.3-.1 0 .5 1.4.6 1.3z" class="st1"/></g><g id="a5aa1b63-5bd2-4389-81ed-966d048faa97_00000011012384151423154590000001717939535606092977_"><g id="b1839b9b-9fd0-4519-ba49-b37fc5dce2e2_00000121262934696855523590000009136739886577948837_"><path d="M49.7 338.2H.1v-3h49.6v3zM87.4 324H.1v-3h87.2l.1 3zm0-14.2H.1v-3h87.2l.1 3zm0-14.3H.1v-3h87.2l.1 3zm0-14.2H.1v-3h87.2l.1 3zm0-14.4H.1v-3h87.2l.1 3zm-84-23.5h4.3l-.2 1.7H1.4v-10.9h2.1v9.2zm12.4-1.8h-5.3c.2 1.7 1 2.2 2.1 2.2.8 0 1.4-.4 2.1-.8l.9 1.2c-.9.7-2 1.1-3.1 1.1-2.6 0-4-1.7-4-4.4s1.4-4.5 3.8-4.5 3.7 1.6 3.7 4.3c-.2.3-.2.6-.2.9zm-2-1.4c0-1.3-.5-2.2-1.6-2.2-1 0-1.6.5-1.7 2.2 0 .1 3.3 0 3.3 0zm6.1-4.4v.9h1.6l-.2 1.4H20v6.9h-2.1v-6.9h-1.4v-1.4h1.4v-.9c0-1.4 1-2.7 3-2.7.4 0 .9.1 1.4.2l-.5 1.4c-.4-.1-.5-.1-.8-.1-.8 0-1.1.5-1.1 1.2zm8 8.9c-.5.4-1.4.7-2.1.5-1.7 0-2.5-1-2.5-2.8V238H22v-1.4h1.4v-1.9l2-.2v2.1h2l-.2 1.4h-1.8v4.4c0 .8.4 1.2.9 1.2s.7-.1 1-.4l.6 1.5zm.1-5.4h4.8v1.6H28v-1.6zm9.1 4.1c0 2.6-1.4 3.5-3.2 4.1l-.6-1.4c1.4-.5 1.6-1.4 1.6-2.6v-9.4H37c.1.1.1 9.3.1 9.3zm9.2 1.7h-1.8l-.1-1.2c-.5.9-1.5 1.4-2.5 1.4-1.5 0-2.2-1-2.2-2.6v-5.9h2v5.8c0 1 .3 1.4 1 1.4.8 0 1.3-.4 1.6-1.2v-5.9h2v8.2zm8-7.7l-.8 1.2c-.6-.4-1.4-.7-2.1-.7-.8 0-1.4.4-1.4.8 0 .5.3.8 1.8 1.2 1.6.4 2.7 1.2 2.7 2.7 0 1.8-1.6 2.7-3.6 2.7-1.2 0-2.4-.4-3.4-1.2l1-1.1c.7.4 1.5.8 2.2.8.9 0 1.5-.4 1.5-1s-.3-.9-1.9-1.4c-1.8-.4-2.5-1.3-2.5-2.6 0-1.4 1.3-2.5 3.3-2.5 1.3.1 2.3.5 3.2 1.1zm6.6 7.2c-.6.4-1.4.7-2.1.5-1.6 0-2.5-1-2.5-2.8v-4.5H55v-1.4h1.4v-1.9l2.1-.2v2.1h2l-.2 1.4h-1.8v4.4c0 .8.3 1.2.9 1.2.4 0 .7-.1 1-.4l.5 1.6zm3.5-11c0 .7-.5 1.3-1.2 1.3s-1.3-.4-1.3-1.2.5-1.4 1.2-1.4c.7.1 1.2.5 1.3 1.3 0-.1 0-.1 0 0zm-.3 11.5h-2v-8.5h2v8.5zm4.6-9.3v.9h2l-.2 1.4h-1.8v6.9h-2v-6.9h-1.5v-1.4h1.4v-.9c0-1.4 1-2.7 3-2.7.8 0 1.5.2 2.2.4l-.6 1.3c-.4-.2-.9-.4-1.4-.4-.8.2-1 .7-1.1 1.4z" class="st1"/><path d="M76.1 245.2c-.5 2-2.3 3.4-4.3 3.4l-.2-1.4c1.2 0 2.3-.8 2.6-2h-.7l-2.6-8.5H73l1.8 7 1.9-7h2.1c0-.1-2.7 8.5-2.7 8.5z" class="st1"/></g></g><g id="ade7f196-bb75-4440-8df9-77fbbb86f832"><path id="b3134d78-f3d9-425f-ba55-ae83e0bdd3a0" d="M46.8 215.8c1-1.7 2.2-3.4 3.6-4.6l4.9-4.1 4.3 4.9-16.2 14.2-15.8-14.4 3.9-4.4 4.9 4.4c1.5 1.2 2.7 2.6 3.6 4.4v-24.4h6.5l.3 24z" class="st1"/></g><g id="ade7f196-bb75-4440-8df9-77fbbb86f832_00000176002669851961313950000010862363193908654733_"><path id="b3134d78-f3d9-425f-ba55-ae83e0bdd3a0_00000011732398274524852020000015159844400216033956_" d="M46.8 24.2c1-1.7 2.2-3.4 3.6-4.6l4.9-4.1 4.3 4.9-16 14L27.7 20l3.9-4.4 4.9 4.4c1.5 1.2 2.7 2.7 3.6 4.4V0h6.5c-.1 0 .2 24.2.2 24.2z" class="st1"/></g><g class="st2"><path d="M44.6 180.6c0 2.6-1.5 4.4-4 4.4s-4-1.7-4-4.4c0-2.6 1.5-4.4 4-4.4 2.6-.1 4 1.6 4 4.4zm-5.7 0c0 2 .6 2.9 1.8 2.9 1.2 0 1.8-.9 1.8-2.9s-.6-2.9-1.8-2.9c-1.1.1-1.8.9-1.8 2.9zm12.6-4.2l-.4 2c-.3-.1-.5-.1-.8-.1-1 0-1.5.8-1.9 2.2v4.4h-2v-8.3h1.8l.2 1.7c.5-1.2 1.2-1.9 2.2-1.9.4-.2.7-.2.9 0z" class="st1"/></g></svg>