<svg xmlns="http://www.w3.org/2000/svg" viewBox="0 0 363.02 296.83" width="363.02" height="296.83"><defs><style>.a64a2a40-0886-486c-83fb-41a794ff8fa6{fill:none;stroke:#787878;stroke-miterlimit:10;stroke-width:3px}</style></defs><g id="a5aa1b63-5bd2-4389-81ed-966d048faa97"><g id="b1839b9b-9fd0-4519-ba49-b37fc5dce2e2"><path d="M.08 52.6h73.13M.08 67.01h88.14M.08 81.42h73.13M.08 95.82h88.14M.08 110.23h73.13M.08 124.64h88.14M356.01 52.6h-74.12m74.12 14.41h-88.13m88.13 14.41h-74.12m74.12 14.4h-88.13m88.13 14.41h-74.12m74.12 14.41h-88.13M145.99 52.6h63.12m-75.13 14.41h88.13m-76.12 14.41h63.12m-75.13 14.4h88.13m-76.12 14.41h63.12m-59.12 185.1h55.11m-71.12-170.69h88.13M.08 223.3h88.14M.08 237.71h88.14M.08 252.11h88.14M.08 266.52h88.14M.08 280.93h88.14M.08 295.33h50.11m312.83-72.03h-88.14m88.14 14.41h-88.14m88.14 14.4h-88.14m88.14 14.41h-88.14m88.14 14.41h-88.14m88.14 14.4H312.9M133.98 223.3h88.13m-88.13 14.41h88.13m-88.13 14.4h88.13m-88.13 14.41h88.13m-88.13 14.41h88.13" class="a64a2a40-0886-486c-83fb-41a794ff8fa6"/><path d="M6.55 11H2.88l-.69 2.56H0L3.44 2.47h2.61l3.43 11.06H7.24zm-.42-1.6L4.71 4.08 3.3 9.37zm4.38 2.19V1.67l2.05-.23v10.09c0 .4.13.59.48.59a1.32 1.32 0 0 0 .47-.08l.49 1.44a3.39 3.39 0 0 1-1.37.29 1.94 1.94 0 0 1-2.12-2.18zM17.67 2a1.29 1.29 0 0 1-2.58 0 1.29 1.29 0 0 1 2.58 0zm-.26 11.51h-2.05V5.06h2.05zm9.79-8a7.71 7.71 0 0 1-2.45.29A2.22 2.22 0 0 1 26.29 8c0 1.65-1.28 2.85-3.41 2.85a3.63 3.63 0 0 1-1-.12.77.77 0 0 0-.35.62c0 .3.18.59 1 .59h1.3c1.87 0 3.09 1 3.09 2.4 0 1.7-1.46 2.71-4.22 2.71-3 0-3.86-1-3.86-2.66h1.84c0 .85.37 1.22 2 1.22s2.13-.45 2.13-1.12-.5-1-1.44-1h-1.23c-1.69 0-2.41-.75-2.41-1.63a1.9 1.9 0 0 1 1-1.57 2.48 2.48 0 0 1-1.49-2.39c0-1.84 1.46-3 3.51-3a6.86 6.86 0 0 0 4-.94zm-5.9 2.32a1.47 1.47 0 0 0 1.5 1.67c1 0 1.51-.61 1.51-1.69s-.52-1.6-1.54-1.6a1.44 1.44 0 0 0-1.47 1.62zm14.01-.43v6.13h-2V7.72c0-1.06-.4-1.36-1-1.36a2.17 2.17 0 0 0-1.78 1.28v5.89H28.4V5.06h1.78l.16 1.11a3.14 3.14 0 0 1 2.57-1.35 2.28 2.28 0 0 1 2.4 2.58zm8.52 4.4h4.43L48 13.53h-6.29V2.47h2.12zm12.41-1.87h-5.31c.16 1.73 1 2.29 2.08 2.29a3.46 3.46 0 0 0 2.11-.76l.88 1.17a4.89 4.89 0 0 1-3.14 1.14c-2.62 0-4-1.75-4-4.42s1.36-4.53 3.76-4.53 3.73 1.6 3.73 4.27c-.06.28-.09.61-.11.84zm-2-1.43c0-1.39-.5-2.22-1.65-2.22-1 0-1.57.64-1.68 2.32h3.33zm6.18-4.34v.9H62l-.23 1.47h-1.35v7h-2.05v-7H57V5.06h1.38v-.93c0-1.53 1-2.69 3-2.69a4.92 4.92 0 0 1 1.37.2l-.38 1.47a3 3 0 0 0-.82-.11c-.83 0-1.13.36-1.13 1.16zm8.11 8.97a3.73 3.73 0 0 1-2.13.64c-1.66 0-2.54-1-2.54-2.77V6.53h-1.33V5.06h1.33V3.19l2-.24v2.11h2l-.2 1.47H65.9V11c0 .83.28 1.17.9 1.17a2.11 2.11 0 0 0 1-.3zM4.83 28.29H3.49v4.44H1.38V21.67h3.29c2.9 0 4.39 1 4.39 3.25a3 3 0 0 1-2.24 3l2.9 4.82H7.28zm-1.34-1.52H4.8c1.31 0 2.05-.52 2.05-1.85s-.69-1.71-2.22-1.71H3.49zm14.34 4.81l-.43 1.36a1.91 1.91 0 0 1-1.88-1.24A2.9 2.9 0 0 1 13 33a2.51 2.51 0 0 1-2.72-2.61c0-1.84 1.37-2.83 3.84-2.83h1.07v-.48c0-1.11-.5-1.48-1.58-1.48a7.66 7.66 0 0 0-2.26.45l-.47-1.39a8.8 8.8 0 0 1 3.04-.66c2.27 0 3.27 1 3.27 2.91v3.56c0 .71.22.95.64 1.11zm-2.66-1.14v-1.71h-.85c-1.33 0-2 .48-2 1.47a1.12 1.12 0 0 0 1.2 1.28 1.83 1.83 0 0 0 1.65-1.04zM27 24.71a7.71 7.71 0 0 1-2.45.29 2.22 2.22 0 0 1 1.53 2.17c0 1.65-1.28 2.85-3.41 2.85a3.61 3.61 0 0 1-1-.12.75.75 0 0 0-.36.62c0 .3.18.59 1 .59h1.29c1.88 0 3.09 1 3.09 2.4 0 1.7-1.45 2.71-4.22 2.71-3 0-3.86-1-3.86-2.66h1.84c0 .85.37 1.22 2.05 1.22s2.13-.45 2.13-1.12-.5-1-1.44-1h-1.25c-1.7 0-2.42-.75-2.42-1.63a1.9 1.9 0 0 1 1-1.57 2.48 2.48 0 0 1-1.52-2.4c0-1.84 1.46-3 3.51-3a6.86 6.86 0 0 0 3.95-.94zM21.09 27a1.47 1.47 0 0 0 1.5 1.67c1 0 1.51-.61 1.51-1.69s-.51-1.6-1.54-1.6A1.44 1.44 0 0 0 21.09 27zm6.57-.1h4.84v1.64h-4.84zm10.41 1.39h-1.35v4.44h-2.11V21.67h3.3c2.89 0 4.38 1 4.38 3.25a3 3 0 0 1-2.24 3L43 32.73h-2.48zm-1.35-1.52H38c1.32 0 2-.52 2-1.85s-.69-1.71-2.22-1.71h-1.06zm9.87-5.55A1.29 1.29 0 1 1 45.3 20a1.22 1.22 0 0 1 1.29 1.22zm-.25 11.51h-2.05v-8.47h2.05zm9.79-8.02a7.71 7.71 0 0 1-2.45.29 2.22 2.22 0 0 1 1.54 2.17c0 1.65-1.28 2.85-3.41 2.85a3.63 3.63 0 0 1-1-.12.74.74 0 0 0-.35.62c0 .3.17.59 1 .59h1.3c1.87 0 3.09 1 3.09 2.4 0 1.7-1.46 2.71-4.23 2.71-3 0-3.85-1-3.85-2.66h1.84c0 .85.37 1.22 2.05 1.22s2.12-.45 2.12-1.12-.49-1-1.44-1h-1.27c-1.69 0-2.41-.75-2.41-1.63a1.88 1.88 0 0 1 1-1.57 2.48 2.48 0 0 1-1.49-2.39c0-1.84 1.46-3 3.51-3a6.89 6.89 0 0 0 3.95-.94zM50.23 27a1.47 1.47 0 0 0 1.5 1.67c1 0 1.5-.61 1.5-1.69s-.51-1.6-1.53-1.6A1.44 1.44 0 0 0 50.23 27zm14.01-.4v6.13h-2v-5.81c0-1.06-.41-1.36-1-1.36a2.2 2.2 0 0 0-1.77 1.26v5.91h-2.14V20.88l2.05-.2v4.59A3 3 0 0 1 61.84 24a2.3 2.3 0 0 1 2.4 2.6zm7.19 5.73a3.73 3.73 0 0 1-2.13.67c-1.67 0-2.55-1-2.55-2.77v-4.5h-1.33v-1.47h1.33v-1.87l2-.24v2.11h2l-.21 1.47H68.8v4.42c0 .83.27 1.17.9 1.17a2.11 2.11 0 0 0 1-.3zM140.45 11h-3.67l-.69 2.56h-2.19l3.44-11.06H140l3.42 11.06h-2.24zM140 9.37l-1.4-5.29-1.4 5.29zm4.41 2.22V1.67l2.05-.23v10.09c0 .4.13.59.48.59a1.22 1.22 0 0 0 .46-.08l.45 1.44a3.43 3.43 0 0 1-1.37.29 1.94 1.94 0 0 1-2.07-2.18zM151.56 2A1.29 1.29 0 0 1 149 2a1.29 1.29 0 0 1 2.57 0zm-.25 11.51h-2.05V5.06h2.05zm9.79-8a7.71 7.71 0 0 1-2.45.29 2.22 2.22 0 0 1 1.54 2.2c0 1.65-1.28 2.85-3.41 2.85a3.63 3.63 0 0 1-1-.12.74.74 0 0 0-.35.62c0 .3.17.59 1 .59h1.3c1.87 0 3.09 1 3.09 2.4 0 1.7-1.46 2.71-4.23 2.71-3 0-3.85-1-3.85-2.66h1.84c0 .85.37 1.22 2 1.22s2.12-.45 2.12-1.12-.49-1-1.44-1H156c-1.69 0-2.41-.75-2.41-1.63a1.88 1.88 0 0 1 1-1.57 2.48 2.48 0 0 1-1.49-2.39c0-1.84 1.46-3 3.51-3a6.89 6.89 0 0 0 4-.94zm-5.9 2.32a1.47 1.47 0 0 0 1.5 1.67c1 0 1.5-.61 1.5-1.69s-.51-1.6-1.53-1.6a1.44 1.44 0 0 0-1.47 1.62zm14.01-.43v6.13h-2.05V7.72c0-1.06-.4-1.36-1-1.36a2.17 2.17 0 0 0-1.77 1.28v5.89h-2V5.06h1.78l.16 1.11a3.14 3.14 0 0 1 2.57-1.35 2.28 2.28 0 0 1 2.31 2.58zm13.86-4L182 4.64a3.2 3.2 0 0 0-2-.78c-1.54 0-2.72 1.12-2.72 4.11s1.15 4.1 2.72 4.1a3.59 3.59 0 0 0 2.26-.89l1 1.24a4.66 4.66 0 0 1-3.33 1.35c-2.87 0-4.87-2-4.87-5.8s2.12-5.74 4.84-5.74a4.6 4.6 0 0 1 3.17 1.17zm8.14 6.53h-5.31c.16 1.73 1 2.29 2.08 2.29a3.46 3.46 0 0 0 2.11-.76l.85 1.17a4.89 4.89 0 0 1-3.14 1.14c-2.62 0-4-1.75-4-4.42s1.36-4.53 3.76-4.53 3.73 1.6 3.73 4.27c-.03.28-.06.61-.08.84zm-2-1.43c0-1.39-.5-2.22-1.65-2.22-1 0-1.57.64-1.68 2.32h3.33zM200 7.4v6.13h-2V7.72c0-1.06-.4-1.36-1-1.36a2.17 2.17 0 0 0-1.77 1.28v5.89h-2.05V5.06h1.77l.05 1.11a3.17 3.17 0 0 1 2.58-1.35A2.28 2.28 0 0 1 200 7.4zm7.16 5.73a3.68 3.68 0 0 1-2.12.64c-1.67 0-2.55-1-2.55-2.77V6.53h-1.33V5.06h1.33V3.19l2-.24v2.11h2l-.21 1.47h-1.76V11c0 .83.27 1.17.9 1.17a2 2 0 0 0 1-.3zm7.78-3.2h-5.31c.16 1.73 1 2.29 2.08 2.29a3.49 3.49 0 0 0 2.11-.76l.85 1.17a4.89 4.89 0 0 1-3.14 1.14c-2.62 0-4-1.75-4-4.42s1.36-4.53 3.76-4.53S215 6.42 215 9.09c0 .28 0 .61-.06.84zM213 8.5c0-1.39-.5-2.22-1.65-2.22-1 0-1.57.64-1.68 2.32H213zm8.82-3.5l-.35 2a3 3 0 0 0-.75-.09c-1 0-1.56.75-1.88 2.17v4.52h-2.05V5.06h1.78l.19 1.67A2.38 2.38 0 0 1 221 4.84a2.91 2.91 0 0 1 .82.16zm52.6 6h-3.66l-.69 2.56h-2.19l3.44-11.06h2.61l3.42 11.06h-2.24zM274 9.37l-1.43-5.29-1.41 5.29zm4.39 2.22V1.67l2.05-.23v10.09c0 .4.13.59.48.59a1.3 1.3 0 0 0 .46-.08l.45 1.44a3.44 3.44 0 0 1-1.38.29 1.94 1.94 0 0 1-2.06-2.18zM285.54 2A1.29 1.29 0 0 1 283 2a1.29 1.29 0 0 1 2.57 0zm-.25 11.51h-2.05V5.06h2.05zm9.79-8a7.71 7.71 0 0 1-2.45.29 2.22 2.22 0 0 1 1.54 2.2c0 1.65-1.28 2.85-3.41 2.85a3.63 3.63 0 0 1-1-.12.74.74 0 0 0-.35.62c0 .3.17.59 1 .59h1.3c1.87 0 3.09 1 3.09 2.4 0 1.7-1.46 2.71-4.23 2.71-3 0-3.86-1-3.86-2.66h1.85c0 .85.36 1.22 2 1.22s2.13-.45 2.13-1.12-.49-1-1.44-1H290c-1.69 0-2.42-.75-2.42-1.63a1.89 1.89 0 0 1 1-1.57 2.48 2.48 0 0 1-1.49-2.39c0-1.84 1.46-3 3.5-3a6.9 6.9 0 0 0 4-.94zm-5.91 2.32a1.48 1.48 0 0 0 1.51 1.67c1 0 1.5-.61 1.5-1.69s-.51-1.6-1.53-1.6a1.44 1.44 0 0 0-1.48 1.62zm14.02-.43v6.13h-2.05V7.72c0-1.06-.4-1.36-1-1.36a2.17 2.17 0 0 0-1.77 1.28v5.89h-2.05V5.06h1.77l.16 1.11a3.17 3.17 0 0 1 2.58-1.35 2.28 2.28 0 0 1 2.36 2.58zm9.86 1.69h-1.35v4.44h-2.11V2.47h3.3c2.89 0 4.38 1 4.38 3.25a3 3 0 0 1-2.24 3l2.9 4.82h-2.43zm-1.35-1.52h1.3c1.31 0 2-.52 2-1.85S314.38 4 312.84 4h-1.14zM321.57 2A1.29 1.29 0 0 1 319 2a1.29 1.29 0 0 1 2.57 0zm-.25 11.51h-2.05V5.06h2.05zm9.79-8a7.71 7.71 0 0 1-2.45.29A2.22 2.22 0 0 1 330.2 8c0 1.65-1.28 2.85-3.41 2.85a3.63 3.63 0 0 1-1-.12.74.74 0 0 0-.35.62c0 .3.18.59 1 .59h1.3c1.87 0 3.09 1 3.09 2.4 0 1.7-1.46 2.71-4.23 2.71-3 0-3.85-1-3.85-2.66h1.84c0 .85.37 1.22 2 1.22s2.13-.45 2.13-1.12-.5-1-1.44-1h-1.29c-1.69 0-2.41-.75-2.41-1.63a1.9 1.9 0 0 1 1-1.57 2.48 2.48 0 0 1-1.49-2.39c0-1.84 1.46-3 3.51-3a6.86 6.86 0 0 0 4-.94zm-5.9 2.32a1.47 1.47 0 0 0 1.5 1.67c1 0 1.51-.61 1.51-1.69s-.52-1.6-1.54-1.6a1.44 1.44 0 0 0-1.47 1.62zm14.01-.43v6.13h-2V7.72c0-1.06-.42-1.36-1-1.36a2.2 2.2 0 0 0-1.78 1.26v5.91h-2.05V1.68l2.05-.2v4.59a3 3 0 0 1 2.46-1.25 2.3 2.3 0 0 1 2.32 2.58zm7.19 5.73a3.73 3.73 0 0 1-2.13.64c-1.67 0-2.55-1-2.55-2.77V6.53h-1.33V5.06h1.33V3.19l2-.24v2.11h2l-.21 1.47h-1.76V11c0 .83.27 1.17.9 1.17a2.11 2.11 0 0 0 1-.3zm-73.7 15.16h-1.34v4.44h-2.12V21.67h3.3c2.9 0 4.39 1 4.39 3.25a3 3 0 0 1-2.24 3l2.89 4.82h-2.43zm-1.34-1.52h1.31c1.31 0 2.05-.52 2.05-1.85s-.69-1.71-2.23-1.71h-1.13zm14.33 4.81l-.43 1.36a1.9 1.9 0 0 1-1.87-1.24 2.91 2.91 0 0 1-2.55 1.3 2.51 2.51 0 0 1-2.72-2.61c0-1.84 1.38-2.83 3.84-2.83h1.08v-.48c0-1.11-.5-1.48-1.59-1.48a7.66 7.66 0 0 0-2.25.45l-.47-1.39a8.72 8.72 0 0 1 3.06-.66c2.27 0 3.26 1 3.26 2.91v3.56c0 .71.23.95.64 1.11zm-2.65-1.14v-1.71h-.85c-1.33 0-2 .48-2 1.47a1.12 1.12 0 0 0 1.21 1.28 1.84 1.84 0 0 0 1.64-1.04zm11.82-5.73a7.71 7.71 0 0 1-2.45.29 2.22 2.22 0 0 1 1.58 2.17c0 1.65-1.28 2.85-3.41 2.85a3.63 3.63 0 0 1-1-.12.74.74 0 0 0-.35.62c0 .3.18.59 1 .59h1.3c1.87 0 3.09 1 3.09 2.4 0 1.7-1.46 2.71-4.22 2.71-3 0-3.86-1-3.86-2.66h1.84c0 .85.37 1.22 2.05 1.22s2.13-.45 2.13-1.12-.5-1-1.44-1h-1.29c-1.69 0-2.41-.75-2.41-1.63a1.9 1.9 0 0 1 1-1.57 2.48 2.48 0 0 1-1.49-2.39c0-1.84 1.46-3 3.51-3a6.86 6.86 0 0 0 3.95-.94zM289 27a1.47 1.47 0 0 0 1.5 1.67c1 0 1.51-.61 1.51-1.69s-.52-1.6-1.54-1.6A1.44 1.44 0 0 0 289 27zm13.28 4h4.43l-.24 1.73h-6.3V21.67h2.11zm12.42-1.87h-5.32c.16 1.73 1 2.29 2.08 2.29a3.49 3.49 0 0 0 2.12-.76l.84 1.17a4.86 4.86 0 0 1-3.13 1.17c-2.63 0-4-1.75-4-4.42S308.61 24 311 24s3.72 1.6 3.72 4.27c.02.3-.01.63-.02.86zm-2-1.43c0-1.39-.49-2.22-1.65-2.22-1 0-1.57.64-1.68 2.32h3.33zm6.17-4.34v.9h1.57l-.22 1.47h-1.35v7h-2.05v-7h-1.38v-1.47h1.38v-.93c0-1.53 1-2.69 3-2.69a5.05 5.05 0 0 1 1.38.2l-.39 1.47a3 3 0 0 0-.78-.11c-.86 0-1.16.36-1.16 1.16zm8.13 8.97a3.69 3.69 0 0 1-2.13.64c-1.66 0-2.54-1-2.54-2.77v-4.47H321v-1.47h1.33v-1.87l2.05-.24v2.11h2l-.21 1.47h-1.76v4.42c0 .83.27 1.17.89 1.17a2.08 2.08 0 0 0 1-.3zM3.49 201.82h4.43l-.24 1.73h-6.3v-11.06h2.11zM15.91 200h-5.32c.16 1.73 1 2.29 2.08 2.29a3.54 3.54 0 0 0 2.12-.75l.85 1.17a4.9 4.9 0 0 1-3.14 1.13c-2.63 0-4-1.74-4-4.41s1.37-4.53 3.77-4.53 3.73 1.6 3.73 4.27c0 .22-.08.56-.09.83zm-2-1.42c0-1.4-.49-2.23-1.65-2.23-1 0-1.56.64-1.68 2.32h3.33zm6.17-4.39v.9h1.57l-.22 1.47h-1.35v7H18v-7h-1.34v-1.47H18v-.93c0-1.54 1-2.69 3-2.69a5.41 5.41 0 0 1 1.38.19l-.38 1.47a3 3 0 0 0-.78-.11c-.83-.02-1.14.37-1.14 1.17zm8.11 8.96a3.61 3.61 0 0 1-2.13.64c-1.66 0-2.54-1-2.54-2.77v-4.46h-1.33v-1.47h1.33v-1.88l2.05-.24v2.12h2l-.21 1.47h-1.79V201c0 .83.27 1.17.89 1.17a2 2 0 0 0 1-.31zm.11-5.42h4.84v1.63H28.3zm9.24 4.21c0 2.57-1.43 3.5-3.25 4.09l-.56-1.52c1.44-.56 1.68-1.26 1.68-2.65v-9.37h2.13zm9.17 1.61h-1.78l-.11-1.18a2.86 2.86 0 0 1-2.6 1.42c-1.53 0-2.35-1-2.35-2.62v-6.08h2.05v5.82c0 1 .32 1.33 1 1.33a2 2 0 0 0 1.71-1.2v-5.95h2.05zm8.11-7.7l-.8 1.2a3.94 3.94 0 0 0-2.13-.68c-.82 0-1.28.33-1.28.84s.34.82 1.78 1.22c1.73.47 2.7 1.17 2.7 2.67 0 1.76-1.63 2.69-3.57 2.69a5 5 0 0 1-3.38-1.2l1-1.15a3.8 3.8 0 0 0 2.3.83c.92 0 1.51-.38 1.51-1s-.34-.93-1.92-1.38c-1.75-.48-2.52-1.31-2.52-2.56 0-1.41 1.3-2.46 3.27-2.46a4.78 4.78 0 0 1 3.04.98zm6.75 7.3a3.66 3.66 0 0 1-2.13.64c-1.66 0-2.54-1-2.54-2.77v-4.46h-1.33v-1.47h1.33v-1.88L59 193v2.12h2l-.2 1.47H59V201c0 .83.27 1.17.89 1.17a2 2 0 0 0 1-.31zM65 192a1.29 1.29 0 1 1-1.29-1.24A1.23 1.23 0 0 1 65 192zm-.25 11.51h-2v-8.46h2zm4.71-9.32v.9h2l-.22 1.47h-1.78v7h-2v-7H66v-1.47h1.38v-.93c0-1.54 1-2.69 3-2.69a5.11 5.11 0 0 1 2.19.49l-.57 1.38a3.33 3.33 0 0 0-1.4-.32c-.84-.02-1.14.37-1.14 1.17z" transform="translate(0 -.77)"/><path d="M76.82 203.59a4.54 4.54 0 0 1-4.4 3.45l-.21-1.49a2.81 2.81 0 0 0 2.7-2h-.7l-2.69-8.46h2.18l1.84 7.1 1.92-7.1h2.11zm65.91-10.17l-1.07 1.25a3.18 3.18 0 0 0-2-.78c-1.53 0-2.72 1.12-2.72 4.11s1.15 4.1 2.72 4.1a3.6 3.6 0 0 0 2.26-.9l1 1.25a4.63 4.63 0 0 1-3.33 1.34c-2.86 0-4.86-2-4.86-5.79s2.11-5.75 4.83-5.75a4.65 4.65 0 0 1 3.17 1.17zm8.15 6.58h-5.32c.16 1.73 1 2.29 2.08 2.29a3.54 3.54 0 0 0 2.12-.75l.85 1.17a4.9 4.9 0 0 1-3.14 1.13c-2.63 0-4-1.74-4-4.41s1.36-4.53 3.77-4.53 3.73 1.6 3.73 4.27c-.04.22-.08.56-.09.83zm-2-1.42c0-1.4-.49-2.23-1.65-2.23-1 0-1.57.64-1.68 2.32h3.33zm10.77-1.16v6.13h-2.05v-5.81c0-1.05-.4-1.36-1-1.36s-1.28.5-1.78 1.28v5.89h-2.05v-8.46h1.78l.16 1.1a3.13 3.13 0 0 1 2.57-1.34 2.28 2.28 0 0 1 2.37 2.57zm7.18 5.73a3.66 3.66 0 0 1-2.13.64c-1.66 0-2.55-1-2.55-2.77v-4.46h-1.32v-1.47h1.32v-1.88l2-.24v2.12h2l-.21 1.47h-1.74V201c0 .83.28 1.17.9 1.17a2 2 0 0 0 1-.31zm7.78-3.15h-5.32c.16 1.73 1 2.29 2.08 2.29a3.56 3.56 0 0 0 2.12-.75l.84 1.17a4.85 4.85 0 0 1-3.13 1.13c-2.63 0-4-1.74-4-4.41s1.36-4.53 3.76-4.53 3.73 1.6 3.73 4.27c-.04.22-.07.56-.08.83zm-2-1.42c0-1.4-.5-2.23-1.65-2.23-1 0-1.57.64-1.68 2.32h3.33zm8.87-3.58l-.35 2a2.52 2.52 0 0 0-.75-.1c-1 0-1.55.75-1.87 2.18v4.51h-2v-8.46h1.78l.19 1.66a2.37 2.37 0 0 1 2.21-1.89 2.89 2.89 0 0 1 .79.1zm.4 2.73h4.84v1.63h-4.84zm9.24 4.21c0 2.57-1.43 3.5-3.25 4.09l-.56-1.52c1.44-.56 1.68-1.26 1.68-2.65v-9.37h2.13zm9.17 1.61h-1.78l-.11-1.18a2.86 2.86 0 0 1-2.6 1.42c-1.53 0-2.35-1-2.35-2.62v-6.08h2.05v5.82c0 1 .32 1.33 1 1.33a2.06 2.06 0 0 0 1.72-1.2v-5.95h2zm8.11-7.7l-.8 1.2a3.94 3.94 0 0 0-2.13-.68c-.82 0-1.28.33-1.28.84s.33.82 1.77 1.22c1.73.47 2.71 1.17 2.71 2.67 0 1.76-1.63 2.69-3.57 2.69a4.94 4.94 0 0 1-3.38-1.2l1-1.15a3.78 3.78 0 0 0 2.3.83c.91 0 1.51-.38 1.51-1s-.34-.93-1.92-1.38c-1.75-.48-2.52-1.31-2.52-2.56 0-1.41 1.3-2.46 3.27-2.46a4.8 4.8 0 0 1 3.04.98zm6.75 7.3a3.66 3.66 0 0 1-2.13.64c-1.66 0-2.55-1-2.55-2.77v-4.46h-1.32v-1.47h1.32v-1.88l2.05-.24v2.12h2l-.21 1.47h-1.76V201c0 .83.28 1.17.9 1.17a2 2 0 0 0 1-.31zm3.42-11.15a1.29 1.29 0 0 1-2.57 0 1.29 1.29 0 0 1 2.57 0zm-.25 11.51h-2v-8.46h2zm4.68-9.32v.9h2l-.23 1.47H223v7h-2v-7h-1.38v-1.47H221v-.93c0-1.54 1-2.69 3-2.69a5.12 5.12 0 0 1 2.2.49l-.59 1.38a3.33 3.33 0 0 0-1.4-.32c-.87-.02-1.21.37-1.21 1.17z" transform="translate(0 -.77)"/><path d="M230.4 203.59A4.54 4.54 0 0 1 226 207l-.21-1.49a2.81 2.81 0 0 0 2.7-2h-.7l-2.69-8.46h2.18l1.84 7.1 1.92-7.1h2.11zm42.31-4.47h-1.34v4.43h-2.12v-11.06h3.3c2.9 0 4.39 1.06 4.39 3.25a3 3 0 0 1-2.24 3l2.89 4.82h-2.43zm-1.34-1.52h1.31c1.31 0 2.05-.53 2.05-1.86S274 194 272.5 194h-1.13zm9.87-5.6a1.29 1.29 0 1 1-1.3-1.24 1.24 1.24 0 0 1 1.3 1.24zm-.24 11.55h-2.05v-8.46H281zm9.78-8.02a7.43 7.43 0 0 1-2.45.29 2.23 2.23 0 0 1 1.53 2.18c0 1.65-1.28 2.85-3.41 2.85a3.27 3.27 0 0 1-1-.13.77.77 0 0 0-.36.62c0 .31.18.6 1 .6h1.3c1.87 0 3.08 1 3.08 2.4 0 1.69-1.45 2.7-4.22 2.7-3 0-3.86-1-3.86-2.65h1.84c0 .84.37 1.21 2.05 1.21s2.13-.45 2.13-1.12-.5-1-1.44-1h-1.28c-1.7 0-2.42-.75-2.42-1.63a1.93 1.93 0 0 1 1-1.57 2.46 2.46 0 0 1-1.49-2.38c0-1.84 1.46-3 3.51-3a6.86 6.86 0 0 0 3.95-.95zm-5.91 2.32a1.47 1.47 0 0 0 1.5 1.67c1 0 1.51-.61 1.51-1.68s-.51-1.6-1.54-1.6a1.43 1.43 0 0 0-1.47 1.61zm14.02-.43v6.13h-2.05v-5.81c0-1.05-.42-1.36-1-1.36a2.24 2.24 0 0 0-1.78 1.27v5.9h-2v-11.84l2-.21v4.59a3.06 3.06 0 0 1 2.47-1.24 2.29 2.29 0 0 1 2.36 2.57zm7.18 5.73a3.66 3.66 0 0 1-2.13.64c-1.66 0-2.54-1-2.54-2.77v-4.46h-1.33v-1.47h1.33v-1.88l2.05-.24v2.12h2l-.2 1.47h-1.76V201c0 .83.27 1.17.89 1.17a2 2 0 0 0 1-.31zm.11-5.42H311v1.63h-4.84zm9.23 4.21c0 2.57-1.42 3.5-3.25 4.09l-.56-1.52c1.45-.56 1.69-1.26 1.69-2.65v-9.37h2.12zm9.17 1.61h-1.77l-.11-1.18a2.86 2.86 0 0 1-2.6 1.42c-1.53 0-2.35-1-2.35-2.62v-6.08h2.05v5.82c0 1 .32 1.33 1 1.33a2.06 2.06 0 0 0 1.72-1.2v-5.95h2zm8.12-7.7l-.8 1.2a3.94 3.94 0 0 0-2.13-.68c-.82 0-1.28.33-1.28.84s.33.82 1.77 1.22c1.73.47 2.71 1.17 2.71 2.67 0 1.76-1.63 2.69-3.57 2.69a4.94 4.94 0 0 1-3.38-1.2l1-1.15a3.78 3.78 0 0 0 2.3.83c.91 0 1.51-.38 1.51-1s-.34-.93-1.92-1.38c-1.75-.48-2.52-1.31-2.52-2.56 0-1.41 1.3-2.46 3.27-2.46a4.8 4.8 0 0 1 3.04.98zm6.75 7.3a3.66 3.66 0 0 1-2.13.64c-1.67 0-2.55-1-2.55-2.77v-4.46h-1.32v-1.47h1.32v-1.88l2.05-.24v2.12h2l-.21 1.47h-1.76V201c0 .83.28 1.17.9 1.17a2 2 0 0 0 1-.31zm3.42-11.15a1.29 1.29 0 1 1-1.3-1.24 1.24 1.24 0 0 1 1.3 1.24zm-.26 11.51h-2v-8.46h2zm4.72-9.32v.9h2l-.23 1.47h-1.81v7h-2v-7h-1.38v-1.47h1.38v-.93c0-1.54 1-2.69 3-2.69a5.12 5.12 0 0 1 2.2.49l-.6 1.38a3.26 3.26 0 0 0-1.39-.32c-.86-.02-1.17.37-1.17 1.17z" transform="translate(0 -.77)"/><path d="M354.69 203.59a4.53 4.53 0 0 1-4.4 3.45l-.2-1.49a2.81 2.81 0 0 0 2.7-2h-.7l-2.69-8.46h2.17l1.84 7.1 1.93-7.1h2.11z" transform="translate(0 -.77)"/></g></g></svg>