<svg xmlns="http://www.w3.org/2000/svg" id="Layer_1" viewBox="0 0 800 384.8" width="800" height="384.8"><style>.st0{fill:#231f20}</style><g id="baf2fbe5-9be3-421b-a27c-440838b3883b"><g id="fda9e30c-6803-4cd9-a0ff-2e185c155781"><path d="M721.2 241.7l.7 1 3.1-.3-.2-3-.8-1.2-3.1.3.3 3.2zm-15.8-16.1c1.1-.5 2.3-.7 3.5-.7 2.4 0 3.9 1.2 3.9 4.2 0 .7-.1 1.3-.2 2l-8.7.3c.2-2.1.7-4 1.5-5.8m4.4-3c-2.2-.1-4.3.6-6 2-1.4 1.3-2.8 4.3-2.8 8.6 0 5.7 1.8 9.7 7.8 9.7 1.2 0 2.4-.1 3.5-.4l3.5-1.4-.5-1.9c-1.6.7-3.3 1.1-5 1.1-5.1 0-6.1-2.8-6.2-6.9l11.5-.8c.3-1.2.4-2.5.4-3.8-.1-4.3-2.4-6.3-6.2-6.2m-18-3v20.7l-2.7 1.2.1 1.1.8.3 7.8-.4-.2-1.2-2.8-1.6v-19.5l-1.4-5.1-1-.2-3.8 1.2.2 1.3 3 2.2zm-13.8 5.7c3 0 3.9 2.2 3.9 6.7 0 3.8-.5 6.4-1.1 7.5-1 .5-2.1.7-3.3.7-1.6-.1-3.1-.6-4.4-1.5v-11.8c1.5-1 3.2-1.5 4.9-1.6m-6.6-2.6l-1-.2-3.1 1.2.3 1.3 2.4 2.5v20.7l-2 .9.1 1.1 4.7.9 3.5-1.2-.2-1.3-2.9-1.2v-5.8c1.5 1 3.2 1.6 5 1.6 1.7.1 3.3-.6 4.5-1.8 1.2-1.4 2.3-4.5 2.3-9.4 0-5.9-1.2-9.2-6.3-9.2-1.1 0-2.2.2-3.3.5l-3 2.2-1-2.8zm-12 16.7c-1.2.6-2.5.9-3.8.9-4.7 0-5.1-3.5-5.1-7.4-.1-2.4.4-4.7 1.3-6.9 1.2-.5 2.4-.8 3.7-.9 4.7 0 5.1 4.1 5.1 7.6-.1 2.3-.5 4.6-1.2 6.7m1.3 1.6c1.6-1.8 2.7-4.4 2.7-8.5 0-6.1-1.7-10-7-10-3 0-5 .7-6.1 1.8-1.4 1.3-2.9 4.3-2.9 8.7 0 6.3 1.5 9.8 7.8 9.8 2.6.1 4.6-.8 5.5-1.8m-28.4-15.5c1.1-.5 2.3-.7 3.5-.7 2.4 0 3.9 1.2 3.9 4.2 0 .7-.1 1.3-.2 2l-8.7.3c.2-2 .7-4 1.5-5.8m4.4-3c-2.2-.1-4.3.6-6 2-1.4 1.3-2.8 4.3-2.8 8.6 0 5.7 1.8 9.7 7.8 9.7 1.2 0 2.4-.1 3.5-.4l3.5-1.4-.5-1.9c-1.6.7-3.3 1.1-5 1.1-5.1 0-6.1-2.8-6.2-6.9l11.5-.8c.3-1.2.4-2.5.4-3.8-.1-4.3-2.4-6.2-6.2-6.2m-20.6 2.8c3 0 3.9 2.2 3.9 6.7 0 3.8-.5 6.4-1.1 7.5-1 .5-2.1.7-3.3.7-1.6-.1-3.1-.6-4.4-1.5v-11.8c1.5-1.1 3.1-1.6 4.9-1.6m-6.6-2.6l-1-.2-3.1 1.2.3 1.3 2.3 2.5v20.7l-2 .9.1 1.1 4.7.9 3.5-1.2-.2-1.3-2.9-1.2v-5.8c1.5 1 3.2 1.5 5 1.5 1.7.1 3.3-.6 4.5-1.8 1.3-1.4 2.3-4.5 2.3-9.4 0-5.9-1.2-9.2-6.3-9.2-1.1 0-2.2.2-3.3.5l-3 2.2-.9-2.7zm-19.6 4.4v11.3c-1.1 1.1-2.7 1.7-4.2 1.7-3.5 0-4.2-3.4-4.2-6.9 0-3.7.6-6 1.4-7.5.7-.4 1.6-.6 2.4-.6 1.7.1 3.3.8 4.6 2m1.9 15.5l3.9-.3-.1-1.3-2.6-3v-17.9l-1.4-5.1-1-.2-3.8 1.2.2 1.3 2.9 2.4v4.7c-1.2-1.3-2.9-1.9-4.7-1.8-5.2 0-6.8 4-6.8 11.1 0 5.1 1.3 9.2 5.9 9.2 1.2.1 2.5-.1 3.7-.5l2.3-2.1 1.5 2.3zm-22.4-2.8l-.3 2.5 1.4.4 5.1-.4-.1-1.3-3-1.5v-12.1c0-3.6-1.2-4.9-4.5-4.9-1.4 0-2.7.3-3.9.9l-3.6 2.7-1.5-3.3-1-.2-3 1.2.3 1.3 2.4 2.5v12.7l-2.6 1.1.1 1.1 1.4.4 8.7-.3-.1-1.2-4.3-1.8v-11.3c2.9-2 4.8-2.7 6.2-2.7 1.8 0 2.4.9 2.4 2.8l-.1 11.4zm-22.9-21.9l.8 1 2.6-.7-.8-3.5-.9-1.1-2.6.8.9 3.5zm1.5 4.7l-1-.2-3 1.2.3 1.3 2.4 2.5v12.9l-2.6 1.2.1 1.1.8.3 7.8-.4-.1-1.2-2.8-1.6v-12.8l-1.9-4.3zm-22.4-3.1v20.8l-2.6 1.2.1 1.1.8.3 7.8-.4-.2-1.2-2.8-1.6v-3.9l2-.2c1.1 1.9 3 5.3 5.7 7.2l5.4-.3-.2-1.6-2.9-1c-1.7-1-4.4-4-5.8-6.2 2.9-3 5.4-6.2 7.5-9.8l-.8-1-4.6-.4-.7.2-1 1.6 2.1 1.5c-1 2.8-2.7 5.3-4.9 7.2l-1.9.2V220l-1.4-5.1-1-.2-3.8 1.2.2 1.3 3 2.3zm-24.6 4.8l3.7 1.6V240l-2.6 1.1.1 1.1 1.4.4 8.7-.3-.1-1.2-4.3-1.8v-13.4l5.1-.9.1-2h-5.2c0-1.8.3-3.6.8-5.3.7-.3 1.5-.4 2.3-.4.3 0 .7 0 1 .1l3.1 1.4 1-.5.2-2.8c-1.4-.4-2.8-.6-4.2-.6-2.3 0-4.6.9-5.6 2.3s-1.4 2.7-1.6 5.9h-3.7l-.2 1.2zm-7.4 15c-1.2.6-2.5.9-3.8.9-4.7 0-5.1-3.5-5.1-7.4-.1-2.4.4-4.7 1.3-6.9 1.2-.5 2.4-.8 3.7-.9 4.7 0 5.1 4.1 5.1 7.6-.1 2.3-.5 4.5-1.2 6.7m1.4 1.6c1.6-1.8 2.7-4.4 2.7-8.5 0-6.1-1.7-10-7-10-3 0-5 .7-6.1 1.8-1.4 1.3-2.9 4.3-2.9 8.7 0 6.3 1.5 9.8 7.8 9.8 2 .2 4-.5 5.5-1.8m-25.9-17.1c-1.9-.8-4-1.2-6.1-1.3-1.7-.1-3.4.3-4.9 1.2-1.3.9-2 2.4-2 4-.1 1.4.5 2.7 1.5 3.6 2.4 2 6.1 2.2 8.1 3.7.7.5 1.1 1.4 1.1 2.3 0 .9-.2 1.7-.6 2.5-1.1.3-2.2.5-3.4.4-1.1 0-2.3-.1-3.4-.4l-2.4-2.7-1.3.4.4 3.6c2.1.9 4.3 1.4 6.6 1.3 1.7.1 3.5-.4 4.9-1.3 1.4-1.1 2.2-2.8 2.1-4.6.1-1.6-.6-3.1-1.9-3.9-2.4-2-6.2-2.1-7.8-3.6-.6-.5-1-1.4-.9-2.2 0-.7.1-1.4.5-2 1-.2 2-.4 3-.4s2 .1 3 .4l1.9 2.3 1.2-.3.4-3zm-22.3 16l-.3 2.5 1.4.4 5.1-.4-.1-1.3-3-1.5v-12c0-3.6-1.2-4.9-4.5-4.9-1.4 0-2.7.3-3.9.9L438 226c-.4-2.4-1.6-3.4-4.4-3.4-1.4 0-2.7.3-3.9.9l-3.3 2.6-1.4-3.3-1-.2-3 1.2.3 1.3 2.4 2.5v12.7l-2.6 1.1.1 1.1 1.4.4 8.7-.3-.1-1.2-4.3-1.8v-11.3c2.8-1.9 4.5-2.7 5.9-2.7 1.8 0 2.4.9 2.4 2.8v14.2l1.4.4 6.1-.4-.1-1.3-4.3-1.6v-11.4c2.9-2 4.8-2.7 6.2-2.7 1.8 0 2.4.9 2.4 2.8l-.1 11.4zm-34.2-20.3v20.8l-2.7 1.2.1 1.1.8.3 7.8-.4-.2-1.2-2.8-1.6v-19.5l-1.4-5.1-1-.2-3.8 1.2.2 1.3 3 2.1zm-15.7 20.6c-3.5 0-4.2-3.4-4.2-6.9 0-3.7.6-6 1.4-7.5.7-.4 1.6-.6 2.4-.6 1.8.1 3.5.8 4.8 2.1v11.1c-1.2 1.1-2.8 1.7-4.4 1.8m6.3 2.5l4-.3-.2-1.3-2.7-3.1V226l2.8-1.7-.2-1.4-4.3-.4-.8 2.5c-1.7-1.8-2.9-2.5-5.3-2.5-5.2 0-6.8 4-6.8 11.1 0 5.1 1.3 9.2 5.9 9.2 1.2.1 2.5-.1 3.7-.5l2.4-2.2 1.5 2.5zm-30-15.6v11.3c-1.1 1.1-2.7 1.7-4.2 1.7-3.5 0-4.2-3.4-4.2-6.9 0-3.7.6-6 1.4-7.5.7-.4 1.6-.6 2.4-.6 1.8.1 3.4.8 4.6 2m2 15.5l3.9-.3-.1-1.3-2.7-3.1V220l-1.4-5.1-1-.2-3.8 1.2.2 1.3 2.9 2.4v4.7c-1.2-1.3-2.9-1.9-4.7-1.8-5.2 0-6.8 4-6.8 11.1 0 5.1 1.3 9.2 5.9 9.2 1.3.1 2.5-.1 3.7-.5l2.3-2.1 1.6 2.3zm-28.4-17.2c1.1-.5 2.3-.7 3.5-.7 2.4 0 3.9 1.2 3.9 4.2 0 .7-.1 1.3-.2 2l-8.7.3c.2-2 .6-4 1.5-5.8m4.3-3c-2.2-.1-4.3.6-6 2-1.4 1.3-2.8 4.3-2.8 8.6 0 5.7 1.8 9.7 7.8 9.7 1.2 0 2.4-.1 3.5-.4l3.5-1.4-.6-1.9c-1.6.7-3.3 1.1-5 1.1-5.1 0-6.1-2.8-6.2-6.9l11.5-.8c.2-1.2.4-2.5.4-3.8 0-4.3-2.3-6.2-6.1-6.2m-17.5 4.7v11.3c-1.2 1.1-2.7 1.7-4.3 1.7-3.5 0-4.2-3.4-4.2-6.9 0-3.7.6-6 1.4-7.5.7-.4 1.6-.6 2.4-.6 1.8 0 3.5.7 4.7 2m5.6-4.4l-4.3-.4-.9 2.4c-1.2-1.6-3.2-2.5-5.2-2.4-5.2 0-6.8 4-6.8 11.1 0 5.1 1.3 9.2 5.9 9.2 1.2.1 2.5-.1 3.7-.5l1.9-1.7c-.1 3.4-.4 5.3-.8 6.1-1.1.8-2.4 1.2-3.7 1.2l-5.3-1.1-.7 1 1.6 2.8c4.6 0 7.4-.5 9.6-2.5 1.6-1.4 2.3-3.4 2.3-8.8v-12.9l2.7-1.7v-1.8zm-25.8 4.4v11.3c-1.2 1.1-2.7 1.7-4.3 1.7-3.4 0-4.2-3.4-4.2-6.9 0-3.7.6-6 1.4-7.5.7-.4 1.6-.6 2.4-.6 1.8-.1 3.5.6 4.7 2m5.7-4.5l-4.3-.4-.9 2.4c-1.2-1.6-3.2-2.5-5.2-2.4-5.2 0-6.8 4-6.8 11.1 0 5.1 1.3 9.2 5.9 9.2 1.3.1 2.5-.1 3.7-.5l1.9-1.7c-.1 3.4-.4 5.3-.7 6.1-1.1.8-2.4 1.2-3.7 1.2l-5.3-1.1-.7 1 1.6 2.8c4.6 0 7.4-.5 9.6-2.5 1.6-1.4 2.3-3.4 2.3-8.8v-12.8l2.7-1.7-.1-1.9zm-32.2 2.6c1.1-.5 2.3-.7 3.5-.7 2.4 0 3.9 1.2 3.9 4.2 0 .7-.1 1.3-.2 2l-8.7.3c.3-2 .7-4 1.5-5.8m4.4-3c-2.2-.1-4.3.6-6 2-1.4 1.3-2.8 4.3-2.8 8.6 0 5.7 1.8 9.7 7.8 9.7 1.2 0 2.4-.1 3.5-.4l3.5-1.4-.6-1.9c-1.6.7-3.3 1.1-5 1.1-5.1 0-6.1-2.8-6.2-6.9l11.5-.8c.3-1.2.4-2.5.4-3.8 0-4.3-2.3-6.2-6.1-6.2m-25.4 4.4c1.4-.9 3.1-1.5 4.8-1.6 3 0 3.9 2.2 3.9 6.7 0 3.8-.6 6.3-1.2 7.4-1 .5-2.2.8-3.3.8-1.4.1-2.9-.2-4.2-.7v-12.6zm-3.2 12l.6 3c1.7.6 3.6.9 5.4.9 6.5 0 8.9-3.9 8.9-11.2 0-5.9-1.2-9.2-6.3-9.2-1.1 0-2.2.2-3.3.5l-2.3 1.7v-4.1l-1.4-5.1-1-.2-3.8 1.2.2 1.3 2.9 2.4.1 18.8zm-17.3-11.7v11.3c-1.1 1.1-2.7 1.7-4.2 1.7-3.5 0-4.2-3.4-4.2-6.9 0-3.7.6-6 1.4-7.5.7-.4 1.6-.6 2.4-.6 1.7.1 3.3.8 4.6 2m1.9 15.5l3.9-.3-.1-1.3-2.7-3.1V220l-1.4-5.1-1-.2-3.8 1.2.2 1.3 2.9 2.4v4.7c-1.2-1.3-2.9-1.9-4.7-1.8-5.2 0-6.8 4-6.8 11.1 0 5.1 1.3 9.2 5.9 9.2 1.2.1 2.5-.1 3.7-.5l2.3-2.1 1.6 2.1zm-22.2-2.3l-.3 2.5 1.4.4 5.1-.4-.1-1.3-3-1.5v-12.2c0-3.6-1.2-4.9-4.5-4.9-1.4 0-2.7.3-3.9.9l-3.6 2.7-1.5-3.3-1-.2-3 1.2.3 1.3 2.4 2.5v12.7l-2.6 1.1.1 1.1 1.4.4 8.7-.3-.1-1.2-4.3-1.8v-11.3c2.9-2 4.8-2.7 6.2-2.7 1.8 0 2.4.9 2.4 2.8l-.1 11.5zm-27.3.3c-3.5 0-4.2-3.4-4.2-6.9 0-3.7.6-6 1.4-7.5.7-.4 1.6-.6 2.4-.6 1.8.1 3.5.8 4.8 2.1v11.1c-1.2 1.1-2.8 1.7-4.4 1.8m6.3 2.5l3.9-.3-.1-1.3-2.7-3.1V226l2.8-1.7-.2-1.4-4.3-.4-.9 2.5c-1.7-1.8-2.9-2.5-5.3-2.5-5.2 0-6.8 4-6.8 11.1 0 5.1 1.3 9.2 5.9 9.2 1.3.1 2.5-.1 3.7-.5l2.4-2.2 1.6 2.7zm-36.3-18.3l3.8 1.5-.2 2.3V239c0 3.3 1.9 3.9 4.3 3.9.4 0 .8 0 1.3-.1l1.6-.8-.2-1.4c-2.2-.2-3.8-.5-3.8-2.2v-10.2l-.2-2.4 5.4-.9.1-2h-5.5l.3-3.8-.7-.1-2.8 1 .4 3H168l-.2 1.5zm-17.7-1.7l-1-.2-3 1.2.3 1.3 2.4 2.5v10.1c0 3.5 1.4 5.3 4.6 5.3 1.5 0 3-.3 4.4-.8l2.9-2.6 1.9 3.2 3.9-.3-.1-1.3-2.7-3.1v-11.4l-2.5-4-1-.2-3 1.2.3 1.3 3.2 2.8v9.3c-2.8 2.5-4.2 3-5.8 3-2.3 0-2.9-1-2.9-3.6v-9.8l-1.9-3.9zm-11.9 16.7c-1.2.6-2.5.9-3.8.9-4.7 0-5.1-3.5-5.1-7.4-.1-2.4.4-4.7 1.3-6.9 1.2-.5 2.4-.8 3.7-.9 4.7 0 5.1 4.1 5.1 7.6-.1 2.3-.4 4.5-1.2 6.7m1.4 1.6c1.6-1.8 2.7-4.4 2.7-8.5 0-6.1-1.7-10-7-10-3 0-5 .7-6.1 1.8-1.4 1.3-2.9 4.3-2.9 8.7 0 6.3 1.5 9.8 7.8 9.8 2 .2 4-.5 5.5-1.8m-30-14.2c1.4-.9 3.1-1.5 4.8-1.6 3 0 3.9 2.2 3.9 6.7 0 3.8-.6 6.3-1.2 7.4-1 .5-2.2.8-3.3.8-1.4.1-2.9-.2-4.2-.7v-12.6zm-3.1 12.1l.6 3c1.7.6 3.6.9 5.4.9 6.5 0 8.9-3.9 8.9-11.2 0-5.9-1.2-9.2-6.3-9.2-1.1 0-2.2.2-3.3.5l-2.3 1.7v-4.6l-1.4-5.1-1-.2-3.8 1.2.2 1.3 2.9 2.4.1 19.3zm-14.9 1.3c-3.4 0-4.2-3.4-4.2-6.9 0-3.7.6-6 1.4-7.5.7-.4 1.6-.6 2.4-.6 1.8.1 3.5.8 4.8 2.1v11.1c-1.1 1.1-2.7 1.7-4.4 1.8m6.4 2.5l4-.3-.2-1.3-2.7-3.1V226l2.8-1.7-.2-1.4-4.3-.4-.9 2.5c-1.7-1.8-2.9-2.5-5.3-2.5-5.2 0-6.8 4-6.8 11.1 0 5.1 1.3 9.2 5.9 9.2 1.3.1 2.5-.1 3.7-.5l2.4-2.2 1.6 2.7zm-29.9-15.5v11.3c-1.1 1.1-2.7 1.7-4.2 1.7-3.5 0-4.2-3.4-4.2-6.9 0-3.7.6-6 1.4-7.5.7-.4 1.6-.6 2.4-.6 1.7 0 3.4.7 4.6 2m2 15.5l3.9-.3-.1-1.3-2.7-3.1v-18l-1.4-5.1-1-.2L65 216l.2 1.3 2.9 2.4v4.7c-1.2-1.3-2.9-1.9-4.7-1.8-5.2 0-6.8 4-6.8 11.1 0 5.1 1.3 9.2 5.9 9.2 1.3.1 2.5-.1 3.7-.5l2.3-2.1 1.6 2.5zm-28.5-17.2c1.1-.5 2.3-.7 3.5-.7 2.4 0 3.9 1.2 3.9 4.2 0 .7-.1 1.3-.2 2l-8.7.3c.2-2.1.7-4 1.5-5.8m4.4-3c-2.2-.1-4.3.6-6 2-1.4 1.3-2.8 4.3-2.8 8.6 0 5.7 1.8 9.7 7.8 9.7 1.2 0 2.4-.1 3.5-.4l3.5-1.4-.6-1.9c-1.6.7-3.3 1.1-5 1.1-5.1 0-6.1-2.8-6.2-6.9l11.5-.8c.3-1.2.4-2.5.4-3.8 0-4.3-2.3-6.2-6.1-6.2m-18-2.9v20.6l-2.7 1.2.1 1.1.8.3 7.8-.4-.2-1.2-2.8-1.6v-19.5l-1.5-5.2-1-.2-3.8 1.2.2 1.3 3.1 2.4zm-17 5.9c1.1-.5 2.3-.7 3.5-.7 2.4 0 3.9 1.2 3.9 4.2 0 .7-.1 1.3-.1 2l-8.7.3c.1-2 .6-4 1.4-5.8m4.3-3c-2.2-.1-4.3.6-6 2-1.4 1.3-2.8 4.3-2.8 8.6 0 5.7 1.8 9.7 7.8 9.7 1.2 0 2.4-.1 3.5-.4l3.5-1.4-.6-1.9c-1.6.7-3.3 1.1-5 1.1-5.1 0-6.1-2.8-6.2-6.9l11.5-.8c.3-1.2.4-2.5.4-3.8.1-4.3-2.2-6.2-6.1-6.2m774.2-42.3l10.5-1-.3-2.4-10.5 1 .3 2.4zm-20.2-10.8l.2 1.4 2.1 1.2c.9 5.4 3 11.6 4.8 17.2l2-.2h2.3c2.3-4.7 4.1-9.7 5.4-14.8l1-2.7-1.3-2.2-3.9-.3-.8.2-.9 1.7 3 1.3c0 5.1-1.2 10.1-3.8 13.9h-.7c-1.8-4.5-3.1-9.2-3.9-13.9l3.1-1.3-.4-1.6-1.7-.2-6.5.3zm-12 17.3c-3.5 0-4.2-3.4-4.2-6.9 0-3.7.6-6 1.4-7.5.7-.4 1.6-.6 2.4-.6 1.8.1 3.5.8 4.8 2.1V185c-1.1 1.2-2.7 1.8-4.4 1.8m6.4 2.5l4-.3-.2-1.3-2.7-3.1v-12.2l2.8-1.7-.2-1.4-4.3-.4-.9 2.5c-1.7-1.8-2.9-2.5-5.3-2.5-5.2 0-6.8 4-6.8 11.1 0 5.1 1.3 9.2 5.9 9.2 1.3.1 2.5-.1 3.7-.5l2.4-2.2 1.6 2.8zm-27.2-15.2v12.7l-2.6 1.1.1 1.1 1.4.4 9.6-.3-.1-1.2-5.3-2v-9.1c1.1-2.5 2.4-3.8 3.2-4.2 1 0 1.9.3 2.7.9l1.3-.2.3-3.6c-.7-.3-1.4-.5-2.2-.5-1.1 0-2.1.3-3.1.7l-2.3 3.9-1.7-4.4-1-.2-3.1 1.2.3 1.3 2.5 2.4zm-17.2-3.1l3.8 1.5-.1 2.3v10.7c0 3.3 1.9 3.9 4.3 3.9.4 0 .9 0 1.3-.1l1.6-.7-.2-1.4c-2.2-.2-3.8-.5-3.8-2.2v-10.2l-.2-2.4 5.4-.9.1-2H726l.2-3.8-.8-.1-2.8 1 .4 3h-3.5l-.2 1.4zm-20.8 1.1c1.1-.5 2.3-.7 3.5-.7 2.4 0 3.9 1.2 3.9 4.2 0 .7-.1 1.3-.2 2l-8.7.3c.2-2 .7-4 1.5-5.8m4.3-3c-2.2-.1-4.3.6-6 2-1.4 1.3-2.8 4.3-2.8 8.6 0 5.7 1.8 9.7 7.8 9.7 1.2 0 2.4-.1 3.5-.4l3.5-1.4-.6-1.9c-1.6.7-3.3 1.1-5 1.1-5.1 0-6.1-2.8-6.2-6.9l11.5-.8c.3-1.2.4-2.5.4-3.8.1-4.3-2.2-6.2-6.1-6.2m-17.7 17.5l-.2 2.5 1.4.4 5.1-.4-.1-1.3-3-1.5v-12.2c0-3.6-1.2-4.9-4.4-4.9-1.4 0-2.7.3-4 .9l-3.3 2.4v-5.8l-1.4-5.1-1-.2-3.8 1.2.2 1.3 2.9 2.4v20.5l-2.6 1.1.1 1.1 1.4.4 8.6-.3-.1-1.2-4.3-1.8v-11.3c2.8-1.9 4.8-2.7 6.2-2.7 1.8 0 2.4.9 2.4 2.8l-.1 11.7zm-29.7.7v1.3c.7.2 1.3.6 1.3 1.1 0 1.6-.3 3.2-.7 4.8l1.3.7c1.6-2.2 2.5-4.8 2.7-7.6 0-1.3-.9-2.1-2.7-2.4l-1.9 2.1zm-7.6-13.4v11.3c-1.2 1.1-2.7 1.7-4.3 1.7-3.5 0-4.2-3.4-4.2-6.9 0-3.7.6-6 1.4-7.5.7-.4 1.6-.6 2.4-.6 1.8 0 3.5.7 4.7 2m5.7-4.4l-4.3-.4-.9 2.4c-1.2-1.6-3.2-2.5-5.2-2.4-5.2 0-6.8 4-6.8 11.1 0 5.1 1.3 9.2 5.9 9.2 1.3.1 2.5-.1 3.7-.5l1.9-1.7c-.1 3.4-.4 5.3-.7 6.1-1.1.8-2.4 1.2-3.7 1.2l-5.3-1.1-.7 1 1.6 2.8c4.6 0 7.4-.5 9.6-2.5 1.6-1.4 2.3-3.4 2.3-8.8v-13.3l2.7-1.7-.1-1.4zm-26.2 17.1l-.3 2.5 1.4.4 5.1-.4-.1-1.3-3-1.5V174c0-3.6-1.2-4.9-4.5-4.9-1.4 0-2.7.3-3.9.9l-3.7 2.7-1.4-3.3-1-.2-3 1.2.3 1.3 2.4 2.5v12.7L613 188l.1 1.1 1.4.4 8.7-.3-.1-1.2-4.3-1.8v-11.3c2.9-2 4.8-2.7 6.2-2.7 1.8 0 2.4.9 2.4 2.8l-.1 11.6zm-22.8-21.9l.8 1 2.6-.7-.8-3.5-.9-1.1-2.6.8.9 3.5zm1.4 4.7l-1-.2-3 1.2.3 1.3 2.4 2.5v12.7l-2.6 1.2.1 1.1.8.3 7.8-.4-.1-1.2-2.8-1.6v-12.8l-1.9-4.1zm-12.4 17.2l-.2 2.5 1.4.4 5.1-.4-.2-1.3-3-1.5V174c0-3.6-1.2-4.9-4.4-4.9-1.4 0-2.7.3-4 .9l-3.3 2.4v-5.8l-1.4-5.2-1-.2-3.8 1.2.2 1.3 2.9 2.4v20.5l-2.6 1.1.1 1.1 1.4.4 8.6-.3-.1-1.2-4.3-1.8v-11.3c2.8-1.9 4.8-2.7 6.2-2.7 1.8 0 2.4.9 2.4 2.8v11.9zM564.9 171l3.8 1.5-.2 2.3v10.7c0 3.3 1.9 3.9 4.3 3.9.4 0 .8 0 1.3-.1l1.6-.7-.2-1.4c-2.2-.2-3.8-.5-3.8-2.2v-10.3l-.2-2.4 5.4-.9.1-2h-5.5l.2-3.8-.7-.1-2.8 1 .4 3H565l-.1 1.5zm-7.2 15c-1.2.6-2.5.9-3.8.9-4.7 0-5.1-3.5-5.1-7.4-.1-2.4.4-4.7 1.3-6.9 1.2-.5 2.4-.8 3.7-.9 4.7 0 5.1 4.1 5.1 7.6-.1 2.3-.4 4.6-1.2 6.7m1.4 1.6c1.6-1.8 2.7-4.4 2.7-8.5 0-6.1-1.7-10-7-10-3 0-5 .7-6.1 1.8-1.4 1.3-2.9 4.3-2.9 8.7 0 6.3 1.5 9.8 7.8 9.8 2.6.1 4.6-.7 5.5-1.8m-22.4-1l-.3 2.5 1.4.4 5.1-.4-.1-1.3-3-1.5V174c0-3.6-1.2-4.9-4.5-4.9-1.4 0-2.7.3-3.9.9l-3.7 2.7-1.5-3.3-1-.2-3.1 1.2.3 1.3 2.4 2.5v12.7l-2.6 1.1.1 1.1 1.4.4 8.7-.3-.1-1.2-4.3-2v-11.3c2.9-2 4.8-2.7 6.2-2.7 1.8 0 2.4.9 2.4 2.8l.1 11.8zm-29.8 0l-.3 2.5 1.4.4 5.1-.4-.1-1.3-3-1.5V174c0-3.6-1.2-4.9-4.5-4.9-1.4 0-2.7.3-3.9.9l-3.6 2.7-1.5-3.3-1-.2-3 1.2.3 1.3 2.4 2.5v12.7l-2.6 1.1.1 1.1 1.4.4 8.7-.3-.1-1.2-4.3-1.8v-11.3c2.9-2 4.8-2.7 6.2-2.7 1.8 0 2.4.9 2.4 2.8l-.1 11.6zm-28.3-12.5v12.7l-2.6 1.1.1 1.1 1.4.4 9.6-.3-.1-1.2-5.3-2v-9.2c1.1-2.5 2.4-3.8 3.2-4.2 1 0 1.9.3 2.7.9l1.3-.2.3-3.6c-.7-.3-1.4-.5-2.2-.5-1.1 0-2.1.3-3.1.7l-2.3 3.9-1.7-4.4-1-.2-3.1 1.2.3 1.3 2.5 2.5zm-15.9 12.7c-3.4 0-4.2-3.4-4.2-6.9 0-3.7.6-6 1.4-7.5.7-.4 1.6-.6 2.4-.6 1.8.1 3.5.8 4.8 2.1V185c-1.2 1.2-2.7 1.8-4.4 1.8m6.4 2.5l4-.3-.2-1.3-2.7-3.1v-12.2l2.8-1.7-.2-1.4-4.3-.4-.9 2.5c-1.7-1.8-2.9-2.5-5.3-2.5-5.2 0-6.8 4-6.8 11.1 0 5.1 1.3 9.2 5.9 9.2 1.3.1 2.5-.1 3.7-.5l2.4-2.2 1.6 2.8zm-28.7-17.2c1.1-.5 2.3-.7 3.5-.7 2.4 0 3.9 1.2 3.9 4.2 0 .7-.1 1.3-.2 2l-8.7.3c.2-2 .7-4 1.5-5.8m4.4-3c-2.2-.1-4.3.6-6 2-1.4 1.3-2.8 4.3-2.8 8.6 0 5.7 1.8 9.7 7.8 9.7 1.2 0 2.4-.1 3.5-.4l3.5-1.4-.6-1.9c-1.6.7-3.3 1.1-5 1.1-5.1 0-6.1-2.8-6.2-6.9l11.5-.8c.3-1.2.4-2.5.4-3.8 0-4.3-2.3-6.2-6.1-6.2m-25 4.7v11.3c-1.1 1.1-2.6 1.7-4.1 1.7-3.5 0-4.2-3.4-4.2-6.9 0-3.7.6-6 1.4-7.5.7-.4 1.6-.6 2.4-.6 1.7.1 3.4.8 4.6 2m1.9 15.6l3.9-.3-.1-1.3-2.7-3.1v-18.1l-1.4-5.1-1-.2-3.8 1.2.2 1.3 2.9 2.4v4.7c-1.2-1.3-2.9-1.9-4.7-1.8-5.2 0-6.8 4-6.8 11.1 0 5.1 1.3 9.2 5.9 9.2 1.3.1 2.5-.1 3.7-.5l2.3-2.1 1.6 2.6zm-22.6-23.2v20.6l-2.7 1.2.1 1.1.8.3 7.8-.4-.2-1.2-2.8-1.6v-19.6l-1.4-5.1-1-.2-3.8 1.2.2 1.3 3 2.4zm-21.4 3.2l-1-.2-3 1.2.3 1.3 2.4 2.5v10.1c0 3.5 1.4 5.3 4.6 5.3 1.5 0 3-.3 4.4-.8l2.9-2.6 1.9 3.2 3.9-.3-.1-1.3-2.7-3.1v-11.4l-2.5-4-1-.2-3 1.2.3 1.3 3.2 2.8v9.3c-2.7 2.5-4.2 3-5.8 3-2.3 0-2.9-1-2.9-3.6v-9.8l-1.9-3.9zM366 186c-1.2.6-2.5.9-3.8.9-4.7 0-5.1-3.5-5.1-7.4-.1-2.4.4-4.7 1.3-6.9 1.2-.5 2.4-.8 3.7-.9 4.7 0 5.1 4.1 5.1 7.6-.1 2.3-.5 4.6-1.2 6.7m1.3 1.6c1.6-1.8 2.7-4.4 2.7-8.5 0-6.1-1.7-10-7-10-3 0-5 .7-6.1 1.8-1.4 1.3-2.9 4.3-2.9 8.7 0 6.3 1.5 9.8 7.8 9.8 2 .2 3.9-.5 5.5-1.8m-17.2 0l-.6-2.1c-1.4.8-3 1.3-4.7 1.3-4.3 0-5.2-2.5-5.2-7.1-.1-2.5.3-5.1 1.3-7.4 1-.4 2.1-.7 3.2-.7.4 0 .8 0 1.2.1l3.2 2.4 1-.5.2-3.4c-1.6-.7-3.3-1.1-5.1-1.1-5.2 0-8 3.7-8 10.9 0 6.6 2.3 9.5 7.4 9.5 1.2 0 2.3-.1 3.5-.4l2.6-1.5zm-29.7-13.8v11.3c-1.1 1.1-2.7 1.7-4.2 1.7-3.5 0-4.2-3.4-4.2-6.9 0-3.7.6-6 1.4-7.5.7-.4 1.6-.6 2.4-.6 1.7.1 3.4.8 4.6 2m2 15.5l3.9-.3-.1-1.3-2.7-3.1v-18.1l-1.4-5.1-1-.2-3.8 1.2.2 1.3 2.9 2.4v4.7c-1.2-1.3-2.9-1.9-4.7-1.8-5.2 0-6.8 4-6.8 11.1 0 5.1 1.3 9.2 5.9 9.2 1.3.1 2.5-.1 3.7-.5l2.3-2.1 1.6 2.6zm-22.4-2.7l-.3 2.5 1.4.4 5.1-.4-.1-1.3-3-1.5v-12.2c0-3.6-1.2-4.9-4.5-4.9-1.4 0-2.7.3-3.9.9l-3.6 2.7-1.5-3.3-1-.2-3 1.2.3 1.3 2.4 2.5V187l-2.6 1.1.1 1.1 1.4.4 8.7-.3-.1-1.2-4.3-1.8V175c2.9-2 4.8-2.7 6.2-2.7 1.8 0 2.4.9 2.4 2.8l-.1 11.5zm-27.4.2c-3.5 0-4.2-3.4-4.2-6.9 0-3.7.6-6 1.4-7.5.7-.4 1.6-.6 2.4-.6 1.8.1 3.5.8 4.8 2.1V185c-1.1 1.2-2.7 1.9-4.4 1.8m6.4 2.6l4-.3-.2-1.3-2.7-3.1v-12.2l2.8-1.7-.2-1.4-4.3-.4-.9 2.5c-1.7-1.8-2.9-2.5-5.3-2.5-5.2 0-6.8 4-6.8 11.1 0 5.1 1.3 9.2 5.9 9.2 1.2.1 2.5-.1 3.7-.5l2.4-2.2 1.6 2.8zm-35.9-17.3c1.1-.5 2.3-.7 3.5-.7 2.4 0 3.9 1.2 3.9 4.2 0 .7-.1 1.3-.2 2l-8.7.3c.2-2 .7-4 1.5-5.8m4.3-3c-2.2-.1-4.3.6-6 2-1.4 1.3-2.8 4.3-2.8 8.6 0 5.7 1.8 9.7 7.8 9.7 1.2 0 2.4-.1 3.5-.4l3.5-1.4-.6-1.9c-1.6.7-3.3 1.1-5 1.1-5.1 0-6.1-2.8-6.2-6.9l11.5-.8c.3-1.2.4-2.5.4-3.8 0-4.3-2.3-6.2-6.1-6.2m-17.7 4.7v11.3c-1.1 1.1-2.7 1.7-4.2 1.7-3.4 0-4.2-3.4-4.2-6.9 0-3.7.6-6 1.4-7.5.7-.4 1.6-.6 2.4-.6 1.7.1 3.4.8 4.6 2m2 15.5l3.9-.3-.1-1.3-2.7-3.1v-18.1l-1.4-5.1-1-.2-3.8 1.2.2 1.3 2.9 2.4v4.7c-1.2-1.3-2.9-1.9-4.7-1.8-5.2 0-6.8 4-6.8 11.1 0 5.1 1.3 9.2 5.9 9.2 1.3.1 2.5-.1 3.7-.5l2.3-2.1 1.6 2.6zm-27.2-2.5c-3.4 0-4.2-3.4-4.2-6.9 0-3.7.6-6 1.4-7.5.7-.4 1.6-.6 2.4-.6 1.8.1 3.5.8 4.8 2.1V185c-1.2 1.1-2.8 1.8-4.4 1.8m6.3 2.5l4-.3-.2-1.3-2.7-3.1v-12.2l2.8-1.7-.2-1.4-4.3-.4-.9 2.5c-1.7-1.8-2.9-2.5-5.3-2.5-5.2 0-6.8 4-6.8 11.1 0 5.1 1.3 9.2 5.9 9.2 1.3.1 2.5-.1 3.7-.5l2.4-2.2 1.6 2.8zm-27.2-15.2v12.7l-2.6 1.1.1 1.1 1.4.4 9.6-.3-.1-1.2-5.3-2v-9.1c1.1-2.5 2.4-3.8 3.2-4.2 1 0 1.9.3 2.7.9l1.3-.2.3-3.6c-.7-.3-1.4-.5-2.2-.5-1.1 0-2.1.3-3.1.7l-2.3 3.9-1.7-4.4-1-.2-3.1 1.2.3 1.3 2.5 2.4zm-17.2-3.1l3.8 1.5-.1 2.3v10.7c0 3.3 1.9 3.9 4.3 3.9.4 0 .8 0 1.3-.1l1.6-.7-.2-1.4c-2.2-.2-3.8-.5-3.8-2.2v-10.2l-.2-2.4 5.4-.9.1-2H173l.2-3.8-.8-.1-2.8 1 .4 3h-3.5l-.1 1.4zm-14.5 15c-1.2.6-2.5.9-3.8.9-4.7 0-5.1-3.5-5.1-7.4-.1-2.4.4-4.7 1.3-6.9 1.2-.5 2.4-.8 3.7-.9 4.7 0 5.1 4.1 5.1 7.6-.1 2.3-.5 4.5-1.2 6.7m1.4 1.6c1.6-1.8 2.7-4.4 2.7-8.5 0-6.1-1.7-10-7-10-3 0-5 .7-6.1 1.8-1.4 1.3-2.9 4.3-2.9 8.7 0 6.3 1.5 9.8 7.8 9.8 1.9.2 3.9-.5 5.5-1.8m-22.4-1l-.3 2.5 1.4.4 5.1-.4-.1-1.3-3-1.5V174c0-3.6-1.2-4.9-4.5-4.9-1.4 0-2.7.3-3.9.9l-3.6 2.7-1.5-3.4-1-.2-3 1.2.3 1.3 2.4 2.5v12.7l-2.7 1.1.1 1.1 1.4.4 8.7-.3-.1-1.2-4.3-1.8v-11.3c2.9-2 4.8-2.7 6.2-2.7 1.8 0 2.4.9 2.4 2.8v11.7zm-36-15.6l3.8 1.5-.1 2.3v10.7c0 3.3 1.9 3.9 4.3 3.9.4 0 .9 0 1.3-.1l1.6-.8-.2-1.4c-2.2-.2-3.8-.5-3.8-2.2v-10.2l-.2-2.4 5.4-.9.1-2h-5.5l.2-3.8-.7-.1-2.8 1 .4 3H95l-.1 1.5zm-7.3 15.6l-.3 2.5 1.4.4 5.1-.4-.1-1.3-3-1.5V174c0-3.6-1.2-4.9-4.5-4.9-1.4 0-2.7.3-3.9.9l-3.7 2.7-1.4-3.3-1-.2-3 1.2.3 1.3 2.4 2.5v12.7l-2.6 1.1.1 1.1 1.4.4 8.7-.3-.1-1.2-4.3-1.8v-11.3c2.9-2 4.8-2.7 6.2-2.7 1.8 0 2.4.9 2.4 2.8l-.1 11.6zm-28.3-12.5v12.7l-2.6 1.1.1 1.1 1.4.4 9.6-.3-.1-1.2-5.3-2v-9.1c1.1-2.5 2.4-3.8 3.2-4.2 1 0 1.9.3 2.7.9l1.3-.2.3-3.6c-.7-.3-1.4-.5-2.2-.5-1.1 0-2.1.3-3.1.7l-2.3 3.9-1.7-4.4-1-.2-3.1 1.2.3 1.3 2.5 2.4zm-15.9 12.7c-3.4 0-4.2-3.4-4.2-6.9 0-3.7.6-6 1.4-7.5.7-.4 1.6-.6 2.4-.6 1.8.1 3.5.8 4.8 2.1V185c-1.1 1.2-2.7 1.8-4.4 1.8m6.4 2.5l4-.3-.2-1.3-2.7-3.1v-12.2l2.8-1.7-.2-1.4-4.3-.4-.9 2.5c-1.7-1.8-2.9-2.5-5.3-2.5-5.2 0-6.8 4-6.8 11.1 0 5.1 1.3 9.2 5.9 9.2 1.3.1 2.5-.1 3.7-.5l2.4-2.2 1.6 2.8zm-28.6-17.2c1.1-.5 2.3-.7 3.5-.7 2.4 0 3.9 1.2 3.9 4.2 0 .7-.1 1.3-.2 2l-8.7.3c.2-2 .7-4 1.5-5.8m4.3-3c-2.2-.1-4.3.6-6 2-1.4 1.3-2.8 4.3-2.8 8.6 0 5.7 1.8 9.7 7.8 9.7 1.2 0 2.4-.1 3.5-.4l3.5-1.4-.6-1.9c-1.6.7-3.3 1.1-5 1.1-5.1 0-6.1-2.8-6.2-6.9l11.5-.8c.3-1.2.4-2.5.4-3.8 0-4.3-2.3-6.2-6.1-6.2m-18-2.9v20.6L4.9 188l.1 1.1.8.3 7.8-.4-.2-1.2-2.8-1.6v-19.6l-1.4-5.1-1-.2-3.8 1.2.2 1.3 2.9 2.4zm777.2-45.9v11.3c-1.1 1.1-2.6 1.7-4.2 1.7-3.4 0-4.1-3.4-4.1-6.9 0-3.6.6-6 1.4-7.5.7-.4 1.5-.6 2.4-.6 1.7.1 3.3.8 4.5 2m2 15.6l3.9-.3-.1-1.2-2.6-3.1v-18.1l-1.4-5.1-1-.2-3.7 1.2.2 1.3 2.8 2.4v4.7c-1.2-1.3-2.9-1.9-4.6-1.8-5.1 0-6.7 4-6.7 11.1 0 5.1 1.3 9.2 5.8 9.2 1.2.1 2.5-.1 3.6-.5l2.3-2.1 1.5 2.5zm-26.7-2.6c-3.4 0-4.1-3.4-4.1-6.9 0-3.6.6-6 1.4-7.5.7-.4 1.5-.6 2.4-.6 1.8.1 3.5.8 4.7 2.1v11.1c-1.2 1.2-2.7 1.9-4.4 1.8m6.3 2.6l3.9-.3-.2-1.2-2.7-3.1v-12.2l2.7-1.6-.2-1.4-4.2-.4-.9 2.5c-1.7-1.8-2.9-2.5-5.2-2.5-5.1 0-6.7 4-6.7 11.1 0 5.1 1.3 9.2 5.8 9.2 1.2.1 2.5-.1 3.6-.5l2.4-2.2 1.7 2.6zm-22.2-2.8l-.2 2.5 1.4.4 5-.4-.1-1.3-3-1.5v-12.3c0-3.6-1.2-4.9-4.4-4.9-1.4 0-2.7.3-3.9.9l-3.2 2.4v-5.8l-1.4-5.1-1-.2-3.7 1.2.2 1.3 2.8 2.4v20.5l-2.6 1.1.1 1.1 1.4.4 8.5-.3-.1-1.2-4.2-1.8v-11.3c2.8-2 4.7-2.7 6.1-2.7 1.7 0 2.3.9 2.3 2.8v11.8zm-34.4-14.5c1.1-.5 2.3-.7 3.4-.7 2.4 0 3.9 1.2 3.9 4.2 0 .7-.1 1.3-.1 2l-8.6.3c.1-2 .6-3.9 1.4-5.8m4.3-3c-2.2-.1-4.3.6-5.9 2-1.4 1.3-2.8 4.3-2.8 8.6 0 5.7 1.8 9.7 7.6 9.7 1.2 0 2.3-.1 3.5-.4l3.5-1.4-.5-1.9c-1.5.7-3.2 1.1-4.9 1.1-4.9 0-6-2.8-6.1-6.9l11.3-.8c.2-1.2.4-2.5.4-3.8-.1-4.2-2.4-6.2-6.1-6.2m-17.6 17.5l-.2 2.5 1.4.4 5-.4-.1-1.3-3-1.5v-12.2c0-3.6-1.2-4.9-4.4-4.9-1.4 0-2.7.3-3.9.9L688 119v-5.8l-1.4-5.1-1-.2-3.7 1.2.2 1.3 2.8 2.4v20.5l-2.6 1.1.1 1.1 1.4.4 8.5-.3-.1-1.2-4.2-1.8v-11.3c2.8-2 4.7-2.7 6.1-2.7 1.7 0 2.3.9 2.3 2.8v11.7zM671.8 117c-1.9-.8-3.9-1.2-6-1.3-1.7-.1-3.4.3-4.8 1.2-1.3 1-2 2.5-2 4-.1 1.4.5 2.7 1.5 3.7 2.4 2 6 2.2 8 3.7.7.6 1.1 1.4 1 2.3 0 .9-.2 1.7-.6 2.5-1.1.3-2.2.5-3.3.4-1.1 0-2.2-.1-3.3-.4l-2.3-2.7-1.2.4.4 3.6c2 .9 4.2 1.4 6.5 1.3 1.7.1 3.5-.4 4.9-1.3 1.4-1.1 2.2-2.8 2.1-4.5.1-1.6-.6-3.1-1.9-3.9-2.4-2-6.1-2.1-7.7-3.6-.6-.5-1-1.4-.9-2.2 0-.7.1-1.4.5-2 1-.2 2-.4 3-.4s2 .1 3 .4l1.8 2.3 1.2-.3.1-3.2zm-26.6 16.3c-3.4 0-4.1-3.4-4.1-6.9 0-3.6.6-6 1.4-7.5.7-.4 1.5-.6 2.3-.6 1.8.1 3.5.8 4.8 2.1v11.1c-1.1 1.2-2.7 1.8-4.4 1.8m6.3 2.6l3.9-.3-.2-1.2-2.8-3v-12.2l2.7-1.7-.2-1.4-4.2-.4-.9 2.5c-1.7-1.8-2.9-2.5-5.2-2.5-5.1 0-6.7 4-6.7 11.1 0 5.1 1.3 9.2 5.8 9.2 1.2.1 2.5-.1 3.6-.5l2.4-2.2 1.8 2.6zm-28.4-15.6v11.3c-1.1 1.1-2.6 1.7-4.2 1.7-3.4 0-4.1-3.4-4.1-6.9 0-3.6.6-6 1.4-7.5.7-.4 1.5-.6 2.3-.6 1.7.1 3.4.8 4.6 2m1.9 15.6l3.9-.3-.1-1.2-2.7-3.1v-18.1l-1.4-5.1-1-.2-3.7 1.1.2 1.3 2.8 2.4v4.7c-1.2-1.3-2.9-1.9-4.6-1.8-5.1 0-6.7 4-6.7 11.1 0 5.1 1.3 9.2 5.8 9.2 1.2.1 2.5-.1 3.6-.5l2.3-2.1 1.6 2.6zm-21.9-2.8l-.3 2.5 1.4.4 5.1-.4-.1-1.3-3-1.5v-12.2c0-3.6-1.2-4.9-4.4-4.9-1.3 0-2.7.3-3.9.9l-3.6 2.7-1.4-3.3-1-.2-3 1.2.3 1.3 2.3 2.5v12.6l-2.6 1.1.1 1.1 1.4.4 8.5-.3-.1-1.2-4.3-1.8v-11.3c2.8-2 4.7-2.7 6.1-2.7 1.7 0 2.4.9 2.4 2.8l.1 11.6zm-26.8.2c-3.4 0-4.1-3.4-4.1-6.9 0-3.6.6-6 1.4-7.5.7-.4 1.5-.6 2.3-.6 1.7.1 3.4.8 4.6 2.1v11.1c-1.1 1.2-2.7 1.8-4.2 1.8m6.1 2.6l3.9-.3-.1-1.2-2.7-3.1v-12.2l2.7-1.7-.2-1.4-4.2-.4-.9 2.5c-1.7-1.8-2.9-2.5-5.2-2.5-5.1 0-6.7 4-6.7 11.1 0 5.1 1.3 9.2 5.8 9.2 1.2.1 2.5-.1 3.6-.5l2.4-2.2 1.6 2.7zm-28.5-2.2v1.3c.7.2 1.2.6 1.2 1.1 0 1.6-.3 3.2-.7 4.8l1.3.7c1.6-2.2 2.5-4.8 2.6-7.6 0-1.3-.9-2.1-2.7-2.3l-1.7 2zm-15-15.1c1.1-.5 2.3-.7 3.4-.7 2.4 0 3.9 1.2 3.9 4.2 0 .7-.1 1.3-.2 2l-8.6.3c.2-2 .7-4 1.5-5.8m4.2-3c-2.2-.1-4.3.6-5.9 2-1.4 1.3-2.8 4.3-2.8 8.6 0 5.7 1.8 9.7 7.6 9.7 1.2 0 2.3-.1 3.5-.4l3.5-1.4-.5-1.9c-1.5.7-3.2 1.1-4.9 1.1-4.9 0-6-2.8-6.1-6.9l11.3-.8c.2-1.2.4-2.5.4-3.8-.1-4.3-2.3-6.2-6.1-6.2m-17.1 4.7v11.3c-1.1 1.1-2.6 1.7-4.2 1.7-3.4 0-4.1-3.4-4.1-6.9 0-3.6.6-6 1.4-7.5.7-.4 1.5-.6 2.4-.6 1.7.1 3.3.8 4.5 2m5.6-4.3l-4.2-.4-.8 2.4c-1.2-1.6-3.1-2.5-5.1-2.4-5.1 0-6.7 4-6.7 11.1 0 5.1 1.3 9.2 5.8 9.2 1.2.1 2.5-.1 3.6-.5l1.8-1.7c-.1 3.4-.4 5.3-.7 6.1-1.1.8-2.3 1.2-3.6 1.2l-5.2-1.1-.7 1 1.6 2.8c4.6 0 7.3-.5 9.5-2.5 1.6-1.4 2.3-3.4 2.3-8.8v-13.3l2.7-1.7-.3-1.4zm-30.1 4.6v12.7l-2.6 1.1.1 1.1 1.4.4 9.4-.3-.1-1.2-5.2-2v-9.1c1.1-2.5 2.4-3.8 3.2-4.2 1 0 1.9.3 2.7.9l1.3-.2.3-3.6c-.7-.3-1.4-.5-2.2-.5-1.1 0-2.1.3-3.1.7l-2.3 3.9-1.6-4.4-1-.2-3 1.2.3 1.3 2.4 2.4zM486 133.3c-3.4 0-4.1-3.4-4.1-6.9 0-3.6.6-6 1.4-7.5.7-.4 1.5-.6 2.4-.6 1.8.1 3.5.8 4.7 2.1v11.1c-1.2 1.2-2.8 1.8-4.4 1.8m6.2 2.5l3.9-.3-.2-1.2-2.7-3.1v-12.1l2.7-1.7-.2-1.4-4.2-.4-.9 2.5c-1.7-1.8-2.9-2.5-5.2-2.5-5.1 0-6.7 4-6.7 11.1 0 5.1 1.3 9.2 5.8 9.2 1.2.1 2.5-.1 3.6-.5l2.3-2.2 1.8 2.6zm-22.1-2.8l-.2 2.5 1.4.4 5-.4-.1-1.3-3-1.5v-12.2c0-3.6-1.2-4.9-4.4-4.9-1.4 0-2.7.3-3.9.9l-3.2 2.4v-5.8l-1.4-5.1-1-.2-3.7 1.2.2 1.3 2.8 2.4v20.5l-2.6 1.1.1 1.1 1.4.4 8.5-.3-.1-1.2-4.2-1.8v-11.3c2.8-2 4.7-2.7 6.1-2.7 1.7 0 2.3.9 2.3 2.8V133zm-16.9 1.1l-.5-2.1c-1.4.8-3 1.3-4.6 1.3-4.2 0-5.1-2.5-5.1-7.1-.1-2.5.3-5 1.2-7.4 1-.4 2-.7 3.1-.7.4 0 .8 0 1.2.1l3.2 2.4 1-.5.1-3.4c-1.5-.7-3.2-1.1-4.9-1.1-5.1 0-7.9 3.7-7.9 10.9 0 6.6 2.2 9.5 7.3 9.5 1.1 0 2.3-.1 3.4-.4l2.5-1.5zM435.1 117c-1.9-.8-3.9-1.2-6-1.3-1.7-.1-3.4.3-4.8 1.2-1.3 1-2 2.5-2 4-.1 1.4.5 2.7 1.5 3.7 2.3 2 6 2.2 8 3.7.7.6 1.1 1.4 1 2.3 0 .9-.2 1.7-.6 2.5-1.1.3-2.2.5-3.3.4-1.1 0-2.2-.1-3.3-.4l-2.3-2.7-1.3.6.4 3.6c2 .9 4.3 1.4 6.5 1.3 1.7.1 3.5-.4 4.9-1.3 1.4-1.1 2.2-2.8 2.1-4.5.1-1.6-.6-3.1-1.9-3.9-2.4-2-6.1-2.1-7.7-3.6-.6-.5-1-1.4-.9-2.2 0-.7.1-1.4.5-2 1-.2 2-.4 3-.4s2 .1 3 .4l1.9 2.3 1.2-.3.1-3.4zm-22.1-5.8l.8 1 2.5-.7-.8-3.5-.8-1.1-2.6.8.9 3.5zm1.4 4.7l-1-.2-3 1.2.3 1.3 2.3 2.5v12.7l-2.6 1.2.1 1.1.8.3 7.6-.4-.1-1.2-2.8-1.6V120l-1.6-4.1zm-11.9 4.4v11.3c-1.1 1.1-2.6 1.7-4.2 1.7-3.4 0-4.1-3.4-4.1-6.9 0-3.6.6-6 1.4-7.5.7-.4 1.5-.6 2.4-.6 1.7.1 3.3.8 4.5 2m2 15.6l3.9-.3-.1-1.2-2.7-3.1v-18.1l-1.4-5.1-1-.2-3.7 1.2.2 1.3 2.8 2.4v4.7c-1.2-1.3-2.9-1.9-4.6-1.8-5.1 0-6.7 4-6.7 11.1 0 5.1 1.3 9.2 5.8 9.2 1.2.1 2.5-.1 3.6-.5l2.3-2.1 1.6 2.5zM379.9 117c-1.9-.8-3.9-1.2-6-1.3-1.7-.1-3.4.3-4.8 1.2-1.3 1-2 2.5-2 4-.1 1.4.5 2.7 1.5 3.7 2.4 2 6 2.2 8 3.7.7.6 1.1 1.5 1 2.3 0 .9-.2 1.8-.5 2.6-1.1.3-2.2.5-3.3.4-1.1 0-2.2-.1-3.3-.4l-2.3-2.7-1.2.4.4 3.6c2 .9 4.2 1.4 6.5 1.3 1.7.1 3.5-.4 4.9-1.3 1.4-1.1 2.2-2.8 2.1-4.5.2-1.6-.6-3.1-1.8-3.9-2.4-2-6.1-2.1-7.7-3.6-.6-.5-1-1.4-.9-2.2 0-.7.1-1.4.5-2 1-.2 2-.4 3-.4s2 .1 3 .4l1.8 2.3 1.2-.3-.1-3.3zm-22.1-5.8l.8 1 2.5-.7-.8-3.5-.8-1.1-2.6.8.9 3.5zm1.4 4.7l-1-.2-3 1.2.3 1.3 2.3 2.5v12.7l-2.6 1.2.1 1.1.8.3 7.6-.4-.1-1.2-2.8-1.6V120l-1.6-4.1zm-12.1 17.2l-.2 2.5 1.4.4 5-.4-.1-1.3-3-1.5v-12.2c0-3.6-1.2-4.9-4.4-4.9-1.4 0-2.7.3-3.9.9l-3.3 2.4v-5.8l-1.4-5.1-1-.2-3.7 1.2.2 1.3 2.8 2.4v20.5l-2.6 1.1.1 1.1 1.4.4 8.5-.3-.1-1.2-4.2-1.8v-11.3c2.8-2 4.7-2.7 6.1-2.7 1.7 0 2.3.9 2.3 2.8l.1 11.7zm-28.4-12.8v11.3c-1.1 1.1-2.6 1.7-4.2 1.7-3.4 0-4.1-3.4-4.1-6.9 0-3.6.6-6 1.4-7.5.7-.4 1.5-.6 2.3-.6 1.8.1 3.4.8 4.6 2m2 15.6l3.9-.3-.1-1.2-2.6-3.1v-18.1l-1.4-5.1-1-.2-3.7 1.2.2 1.3 2.8 2.4v4.7c-1.2-1.3-2.9-1.9-4.6-1.8-5.1 0-6.7 4-6.7 11.1 0 5.1 1.3 9.2 5.8 9.2 1.2.1 2.5-.1 3.6-.5l2.3-2.1 1.5 2.5zm-27.9-17.3c1.1-.5 2.3-.7 3.4-.7 2.4 0 3.9 1.2 3.9 4.2 0 .7 0 1.3-.1 2l-8.6.3c.2-2 .6-3.9 1.4-5.8m4.3-3c-2.2-.1-4.3.6-5.9 2-1.4 1.3-2.8 4.3-2.8 8.6 0 5.7 1.8 9.7 7.6 9.7 1.2 0 2.3-.1 3.5-.4l3.5-1.4-.5-1.9c-1.5.7-3.2 1.1-4.9 1.1-4.9 0-6-2.8-6.1-6.9l11.3-.8c.2-1.2.4-2.5.4-3.8-.1-4.3-2.4-6.2-6.1-6.2m-30 .4l.2 1.4 2 1.2c.9 5.4 3 11.6 4.7 17.2l2-.2h2.3c2.3-4.7 4.1-9.7 5.4-14.8l1-2.7-1.2-2.2-3.9-.3-.8.2-.8 1.7 3 1.3c0 5.1-1.2 10.1-3.7 13.9h-.7c-1.7-4.5-3-9.2-3.8-13.9l3-1.3-.4-1.6-1.7-.2-6.6.3zm-7.2-4.8l.8 1 2.5-.7-.8-3.5-.8-1.1-2.6.8.9 3.5zm1.4 4.7l-1-.2-3 1.2.3 1.3 2.3 2.5v12.7l-2.6 1.2.1 1.1.8.3 7.6-.4-.1-1.2-2.8-1.6V120l-1.6-4.1zm-17.9 2.7c1.1-.5 2.3-.7 3.4-.7 2.4 0 3.9 1.2 3.9 4.2 0 .7-.1 1.3-.2 2l-8.6.3c.3-2 .7-4 1.5-5.8m4.3-3c-2.2-.1-4.3.6-5.9 2-1.4 1.3-2.8 4.3-2.8 8.6 0 5.7 1.8 9.7 7.6 9.7 1.2 0 2.3-.1 3.5-.4l3.5-1.4-.5-1.9c-1.5.7-3.2 1.1-4.9 1.1-5 0-6-2.8-6.1-6.9l11.3-.8c.2-1.2.4-2.5.4-3.8-.1-4.3-2.3-6.2-6.1-6.2m-12.3 18.5l-.5-2.1c-1.4.8-3 1.3-4.6 1.3-4.2 0-5.1-2.5-5.1-7.1-.1-2.5.3-5 1.2-7.4 1-.4 2.1-.7 3.1-.7.4 0 .8 0 1.2.1l3.2 2.4 1-.5.1-3.4c-1.5-.7-3.2-1.1-4.9-1.1-5.1 0-7.9 3.7-7.9 10.9 0 6.6 2.2 9.5 7.2 9.5 1.1 0 2.3-.1 3.4-.4l2.6-1.5zm-28-15.5c1.1-.5 2.3-.7 3.4-.7 2.4 0 3.9 1.2 3.9 4.2 0 .7-.1 1.3-.2 2l-8.6.3c.3-2 .7-4 1.5-5.8m4.3-3c-2.2-.1-4.3.6-5.9 2-1.4 1.3-2.8 4.3-2.8 8.6 0 5.7 1.8 9.7 7.6 9.7 1.2 0 2.3-.1 3.5-.4l3.5-1.4-.5-1.9c-1.5.7-3.2 1.1-4.9 1.1-4.9 0-6-2.8-6.1-6.9l11.3-.8c.2-1.2.4-2.5.4-3.8-.1-4.3-2.3-6.2-6.1-6.2m-21.9 5v12.7l-2.6 1.1.1 1.1 1.4.4 9.4-.3-.1-1.2-5.2-2v-9.1c1.1-2.5 2.3-3.8 3.2-4.2 1 0 1.9.3 2.7.9l1.3-.2.3-3.6c-.7-.3-1.4-.5-2.2-.5-1.1 0-2.1.3-3.1.7l-2.3 3.9-1.7-4.4-1-.2-3 1.2.3 1.3 2.5 2.4zm-17.3-.3v11.3c-1.1 1.1-2.6 1.7-4.2 1.7-3.4 0-4.1-3.4-4.1-6.9 0-3.6.6-6 1.4-7.5.7-.4 1.5-.6 2.4-.6 1.7.1 3.3.8 4.5 2m2 15.5l3.9-.3-.1-1.2-2.7-3.1v-18.1l-1.4-5.1-1-.2-3.7 1.2.2 1.3 2.8 2.4v4.7c-1.2-1.3-2.9-1.9-4.6-1.8-5.1 0-6.7 4-6.7 11.1 0 5.1 1.3 9.2 5.8 9.2 1.2.1 2.5-.1 3.6-.5l2.3-2.1 1.6 2.5zm-26.6-2.5c-3.4 0-4.1-3.4-4.1-6.9 0-3.6.6-6 1.4-7.5.7-.4 1.5-.6 2.4-.6 1.8.1 3.5.8 4.7 2.1v11.1c-1.3 1.2-2.8 1.8-4.4 1.8m6.2 2.5l3.9-.3-.2-1.2-2.7-3.1v-12.1l2.7-1.6-.2-1.4-4.2-.4-.9 2.5c-1.7-1.8-2.9-2.5-5.2-2.5-5.1 0-6.7 4-6.7 11.1 0 5.1 1.3 9.2 5.8 9.2 1.2.1 2.5-.1 3.6-.5l2.4-2.2 1.7 2.5zM132 133l-.2 2.5 1.4.4 5.1-.4-.2-1.3-3-1.5v-12.2c0-3.6-1.2-4.9-4.4-4.9-1.4 0-2.7.3-3.9.9l-3.3 2.4v-5.8L122 108l-1-.2-3.7 1.2.2 1.3 2.8 2.4v20.5l-2.6 1.1.1 1.1 1.4.4 8.5-.3-.1-1.2-4.2-1.8v-11.3c2.8-2 4.7-2.7 6.1-2.7 1.7 0 2.4.9 2.4 2.8l.1 11.7zm652.5-66.1v11.3c-1.2 1.1-2.7 1.7-4.3 1.7-3.5 0-4.3-3.4-4.3-6.9 0-3.6.6-6 1.4-7.5.8-.4 1.6-.6 2.4-.6 1.8.1 3.5.8 4.8 2m2 15.5l4-.3-.1-1.2-2.7-3.1V59.7l-1.4-5.1-1-.2-3.9 1.2.2 1.3 3 2.4V64c-1.3-1.3-3-1.9-4.8-1.8-5.3 0-6.9 4-6.9 11.1 0 5.1 1.3 9.2 6 9.2 1.3 0 2.6-.1 3.8-.6l2.3-2.1 1.5 2.6zm-22.9-2.8l-.3 2.5 1.4.4 5.2-.4-.1-1.3-3.1-1.5V67.1c0-3.6-1.2-4.9-4.5-4.9-1.4 0-2.8.3-4 .9l-3.7 2.7-1.5-3.3-1-.2-3.1 1.2.3 1.3 2.4 2.5v12.6l-2.7 1.1.1 1 1.4.4 8.8-.3-.1-1.2-4.4-1.8V67.8c2.9-2 4.9-2.7 6.3-2.7 1.8 0 2.5.9 2.5 2.8l.1 11.7zm-23.4-21.9l.8 1 2.6-.7-.8-3.5-.9-1.1-2.7.7 1 3.6zm1.5 4.7l-1-.2-3.1 1.2.3 1.3 2.4 2.5v12.7l-2.7 1.2.1 1.1.8.3 7.9-.4-.1-1.2-2.9-1.6V66.4l-1.7-4zm-22.9-3.2v20.7l-2.7 1.2.1 1.1.8.3 7.9-.4-.2-1.2-2.8-1.6v-3.9l2-.2c1.1 1.9 3 5.3 5.8 7.2l5.5-.3-.2-1.6-3-1c-1.8-1-4.5-3.9-5.9-6.2 2.9-3 5.5-6.2 7.7-9.8l-.8-1-4.7-.4-.8.2-1 1.6 2.2 1.5c-1 2.8-2.7 5.3-4.9 7.3l-1.8.3V59.7l-1.4-5.1-1-.2-3.9 1.2.2 1.3 2.9 2.3zm-15.5 4.3c-2-.8-4.1-1.2-6.2-1.3-1.7-.1-3.5.3-4.9 1.2-1.3.9-2.1 2.5-2.1 4.1-.1 1.4.5 2.7 1.6 3.7 2.4 2 6.2 2.2 8.3 3.7.7.5 1.1 1.4 1.1 2.3 0 .9-.2 1.8-.6 2.6-1.1.3-2.3.4-3.4.4-1.2 0-2.3-.1-3.4-.4l-2.4-2.7-1.3.4.4 3.6c2.1.9 4.4 1.4 6.7 1.3 1.8.1 3.5-.4 5-1.3 1.4-1 2.3-2.8 2.2-4.5.1-1.6-.6-3.1-1.9-3.9-2.5-2-6.3-2.1-8-3.6-.7-.5-1-1.4-.9-2.2 0-.7.1-1.4.5-2 1-.2 2-.4 3.1-.4 1 0 2 .1 3 .4l1.9 2.3 1.2-.3.1-3.4zm-23.1-5.8l.8 1 2.6-.7-.8-3.5-.9-1.1-2.7.7 1 3.6zm1.5 4.7l-1-.2-3.1 1.2.3 1.3 2.4 2.5v12.7l-2.7 1.2.1 1.1.8.3 7.9-.4-.1-1.2-2.9-1.6V66.4l-1.7-4zM669 79.6l-.2 2.5 1.4.4 5.2-.4-.2-1.3-3.1-1.5V67.1c0-3.6-1.2-4.9-4.5-4.9-1.4 0-2.8.3-4.1.9l-3.3 2.4v-5.8l-1.4-5.1-1-.2-3.9 1.2.2 1.3 3 2.4v20.5l-2.7 1.1.1 1.1 1.4.4 8.8-.3-.1-1.2-4.3-1.8V67.8c2.9-2 4.9-2.7 6.3-2.7 1.8 0 2.4.9 2.4 2.8v11.7zm-29.3-15.5l3.8 1.5-.2 2.3v10.7c0 3.3 2 3.9 4.3 3.9.4 0 .9 0 1.3-.1l1.6-.7-.2-1.4c-2.3-.2-3.9-.5-3.9-2.2V67.9l-.2-2.4 5.5-.9.1-2h-5.6l.2-3.8-.8-.2-2.9 1 .4 3h-3.6l.2 1.5zm-22.5 0l3.8 1.6v14.2l-2.7 1.1.1 1.1 1.4.4 8.8-.3-.1-1.2-4.4-1.8V65.5l5.2-.9.1-2h-5.3c0-1.8.2-3.6.8-5.3.7-.3 1.5-.4 2.3-.4.3 0 .7 0 1 .1l3.2 1.4 1-.5.2-2.8c-1.4-.4-2.8-.6-4.3-.6-2.4 0-4.7.9-5.7 2.3s-1.4 2.7-1.6 5.9h-3.7l-.1 1.4zm-7.7 15c-1.2.6-2.5.9-3.9.9-4.7 0-5.2-3.5-5.2-7.4-.1-2.4.4-4.7 1.3-6.9 1.2-.5 2.5-.8 3.8-.9 4.7 0 5.2 4.1 5.2 7.6-.1 2.3-.4 4.5-1.2 6.7m1.4 1.6c1.6-1.8 2.7-4.4 2.7-8.5 0-6.1-1.7-10-7.2-10-3.1 0-5.1.8-6.2 1.8-1.4 1.3-3 4.3-3 8.7 0 6.3 1.6 9.8 8 9.8 2.7.1 4.8-.8 5.7-1.8m-37.5-15.5c1.1-.5 2.3-.7 3.6-.7 2.5 0 4 1.2 4 4.2 0 .7-.1 1.3-.2 2l-8.9.3c.1-2.1.6-4 1.5-5.8m4.4-3c-2.2-.1-4.4.6-6.1 2-1.4 1.3-2.9 4.3-2.9 8.6 0 5.7 1.9 9.7 7.9 9.7 1.2 0 2.4-.1 3.6-.4l3.6-1.4-.6-1.9c-1.6.7-3.4 1.1-5.1 1.1-5.1 0-6.2-2.8-6.3-6.9l11.7-.8c.3-1.2.4-2.5.4-3.8 0-4.4-2.3-6.3-6.2-6.2m-18.3 17.4l-.3 2.5 1.4.4 5.2-.4-.2-1.2-3.1-1.5V67.1c0-3.6-1.2-4.9-4.5-4.9-1.4 0-2.8.3-4 .9l-3.7 2.7-1.4-3.4-1-.2-3.1 1.2.3 1.3 2.4 2.5v12.6l-2.7 1.1.1 1.1 1.4.4 8.8-.3-.1-1.2-4.4-1.8V67.8c2.9-2 4.9-2.7 6.3-2.7 1.8 0 2.5.9 2.5 2.8l.1 11.7zm-23.2-.6c-1.3.6-2.8 1-4.3 1-5.9 0-6.3-4.3-6.3-10.5 0-3.3.5-6.6 1.6-9.7 1.4-.6 3-.8 4.5-.8 5.8 0 6.1 5.8 6.1 10.4.1 3.3-.5 6.5-1.6 9.6m1.8 1.3c1.9-2.3 2.9-5.7 2.9-10.7 0-8.9-1.4-13.2-8.4-13.2-3.1 0-5.5.7-6.8 2-1.7 1.7-3.1 5.8-3.1 12 0 8.3 1.7 12.2 8.1 12.2 3.6 0 6.2-1 7.3-2.3m-32.3 1l.7 1 3.1-.3-.2-3-.8-1.2-3.1.3.3 3.2zm-8.1-14.4v11.3c-1.2 1.1-2.7 1.7-4.3 1.7-3.5 0-4.3-3.4-4.3-6.9 0-3.6.6-6 1.4-7.5.8-.4 1.6-.6 2.4-.6 1.8 0 3.5.7 4.8 2m5.7-4.4l-4.3-.4-.9 2.4c-1.3-1.6-3.3-2.5-5.3-2.3-5.3 0-6.9 4-6.9 11.1 0 5.1 1.3 9.2 6 9.2 1.3.1 2.5-.1 3.8-.5l1.9-1.7c-.1 3.4-.4 5.3-.8 6.1-1.1.8-2.4 1.2-3.8 1.2l-5.4-1.1-.7 1 1.7 2.8c4.7 0 7.5-.6 9.8-2.5 1.6-1.4 2.3-3.4 2.3-8.8V65.7l2.8-1.7-.2-1.5zm-26.7 17.1l-.3 2.5 1.4.4 5.2-.4-.1-1.3-3.1-1.5V67.1c0-3.6-1.2-4.9-4.5-4.9-1.4 0-2.8.3-4 .9l-3.7 2.7-1.5-3.3-1-.2-3 1.2.3 1.3 2.4 2.5V80l-2.7 1.1.1 1.1 1.4.4 8.8-.3-.1-1.2-4.4-1.8V67.8c2.9-2 4.9-2.7 6.3-2.7 1.8 0 2.5.9 2.5 2.8v11.7zm-23.4-21.9l.8 1 2.6-.7-.8-3.5-.8-1.1-2.7.7.9 3.6zm1.5 4.7l-1-.2-3.1 1.2.3 1.3 2.4 2.5v12.7l-2.7 1.2.1 1.1.8.3 7.9-.4-.1-1.2-2.9-1.6V66.4l-1.7-4zm-12.7 17.2l-.2 2.5 1.4.4 5.2-.4-.2-1.3-3.1-1.5V67.1c0-3.6-1.2-4.9-4.5-4.9-1.4 0-2.8.3-4.1.9l-3.4 2.4v-5.8l-1.4-5.1-1-.2-3.9 1.2.2 1.3 2.9 2.4v20.6l-2.6 1.1.1 1.1 1.4.4 8.8-.3-.1-1.2-4.4-1.8V67.8c2.9-2 4.9-2.7 6.3-2.7 1.8 0 2.4.9 2.4 2.8l.2 11.7zm-29.2-15.5l3.8 1.5-.2 2.3v10.7c0 3.3 2 3.9 4.3 3.9.4 0 .9 0 1.3-.1l1.6-.7-.2-1.4c-2.3-.2-3.9-.5-3.9-2.2V67.9l-.2-2.4 5.5-.9.1-2h-5.5l.2-3.8-.8-.2-2.9 1 .4 3H413l-.1 1.5zm-7.5 15c-1.2.6-2.5.9-3.9.9-4.7 0-5.2-3.5-5.2-7.4-.1-2.4.4-4.7 1.3-6.9 1.2-.5 2.5-.8 3.8-.9 4.7 0 5.2 4.1 5.2 7.6 0 2.3-.4 4.5-1.2 6.7m1.4 1.6c1.6-1.8 2.8-4.4 2.8-8.5 0-6.1-1.8-10-7.2-10-3.1 0-5.1.8-6.2 1.8-1.4 1.3-3 4.3-3 8.7 0 6.3 1.6 9.8 8 9.8 2.7.1 4.7-.8 5.6-1.8m-22.9-1.1l-.3 2.5 1.4.4 5.2-.4-.1-1.3-3.1-1.5V67.1c0-3.6-1.2-4.9-4.5-4.9-1.4 0-2.8.3-4 .9l-3.7 2.7-1.5-3.3-1-.2-3.1 1.2.3 1.3 2.4 2.5V80l-2.7 1.1.1 1.1 1.4.4 8.8-.3-.1-1.2-4.3-1.8V67.8c2.9-2 4.9-2.7 6.3-2.7 1.8 0 2.5.9 2.5 2.8v11.7zm-37.8-15.5l3.8 1.5-.2 2.3v10.7c0 3.3 2 3.9 4.3 3.9.4 0 .9 0 1.3-.1l1.6-.7-.2-1.4c-2.3-.2-3.9-.5-3.9-2.2V67.9l-.2-2.4 5.5-.9.1-2h-5.6l.2-3.8-.8-.2-2.9 1 .4 3h-3.6l.2 1.5zm-18.2-1.7l-1-.2-3.1 1.2.3 1.3 2.5 2.5v10.1c0 3.5 1.4 5.3 4.7 5.3 1.5 0 3-.3 4.4-.8l2.9-2.6 2 3.2 4-.3-.1-1.2-2.8-3.1V66.4l-2.6-4-1-.2-3.1 1.2.3 1.3 3.2 2.8v9.3c-2.8 2.5-4.3 3-5.9 3-2.3 0-3-1-3-3.6v-9.8l-1.7-4zm-12.2 16.7c-1.2.6-2.5.9-3.9.9-4.7 0-5.2-3.5-5.2-7.4-.1-2.4.4-4.7 1.3-6.9 1.2-.5 2.5-.8 3.8-.9 4.7 0 5.2 4.1 5.2 7.6-.1 2.3-.4 4.5-1.2 6.7m1.4 1.6c1.6-1.8 2.7-4.4 2.7-8.5 0-6.1-1.7-10-7.2-10-3.1 0-5.1.8-6.2 1.8-1.4 1.3-3 4.3-3 8.7 0 6.3 1.6 9.8 8 9.8 2.7.1 4.8-.8 5.7-1.8m-30.6-14.2c1.5-.9 3.1-1.5 4.9-1.6 3.1 0 4 2.2 4 6.7 0 3.8-.6 6.3-1.2 7.4-1 .5-2.2.8-3.4.8-1.5.1-2.9-.2-4.3-.7V66.5zm-3.2 12.1l.6 3c1.8.6 3.6 1 5.5 1 6.6 0 9.1-4 9.1-11.2 0-5.9-1.2-9.2-6.4-9.2-1.1 0-2.3.2-3.3.5l-2.3 1.7v-4.7l-1.4-5.1-1-.2-3.9 1.2.2 1.3 2.9 2.4v19.3zm-15.1 1.2c-3.5 0-4.3-3.4-4.3-6.9 0-3.6.6-6 1.4-7.5.8-.4 1.6-.6 2.4-.6 1.8.1 3.6.8 4.9 2.1V78c-1.1 1.2-2.7 1.9-4.4 1.8m6.4 2.6l4.1-.3-.2-1.2-2.8-3.1V65.7l2.8-1.7-.2-1.4-4.3-.4-.9 2.5c-1.3-1.7-3.3-2.6-5.4-2.4-5.3 0-6.9 4-6.9 11.1 0 5.1 1.3 9.2 6 9.2 1.3.1 2.5-.1 3.8-.5l2.5-2.2 1.5 2.5zm-38-18.3l3.8 1.6v14.2l-2.7 1.1.1 1.1 1.4.4 8.8-.3-.1-1.2-4.4-1.8V65.5l5.2-.9.1-2h-5.3c0-1.8.3-3.6.8-5.3.7-.3 1.5-.4 2.3-.4.3 0 .7 0 1 .1l3.2 1.4 1-.5.2-2.9c-1.4-.4-2.8-.6-4.3-.6-2.4 0-4.7.9-5.7 2.3s-1.4 2.7-1.6 5.9h-3.7l-.1 1.5zm-8-4.9v20.7l-2.7 1.2.1 1.1.8.3 7.9-.4-.2-1.2-2.8-1.6V59.7l-1.4-5.1-1-.2-3.9 1.2.2 1.3 3 2.3zm-17.4 6c1.1-.5 2.3-.7 3.6-.7 2.5 0 4 1.2 4 4.2 0 .7-.1 1.3-.2 2l-8.9.3c.2-2.1.7-4 1.5-5.8m4.4-3c-2.2-.1-4.4.6-6.1 2-1.4 1.3-2.9 4.3-2.9 8.6 0 5.7 1.9 9.7 7.9 9.7 1.2 0 2.4-.1 3.6-.4l3.6-1.4-.6-1.9c-1.6.7-3.3 1.1-5.1 1.1-5.2 0-6.2-2.8-6.3-6.9l11.7-.8c.3-1.2.4-2.5.4-3.8 0-4.4-2.3-6.3-6.2-6.2m-14.2 1.3c-2-.8-4.1-1.2-6.2-1.3-1.7-.1-3.5.3-4.9 1.2-1.3.9-2.1 2.4-2.1 4-.1 1.4.5 2.7 1.6 3.7 2.4 2 6.2 2.2 8.3 3.7.7.5 1.2 1.4 1.1 2.3 0 .9-.2 1.8-.6 2.6-1.1.3-2.3.4-3.4.4-1.2 0-2.3-.1-3.4-.4l-2.4-2.7-1.3.4.4 3.6c2.1.9 4.4 1.4 6.7 1.3 1.8.1 3.5-.4 5.1-1.3 1.4-1 2.3-2.8 2.2-4.5.1-1.6-.6-3.1-1.9-3.9-2.5-2-6.3-2.1-8-3.6-.7-.5-1-1.4-.9-2.2 0-.7.1-1.4.5-2 1-.2 2-.4 3.1-.4 1 0 2 .1 3 .4l1.9 2.3 1.2-.3v-3.3zm-22.8 16.1l-.3 2.5 1.4.4 5.2-.4-.1-1.3-3.1-1.5V67.1c0-3.6-1.2-4.9-4.5-4.9-1.4 0-2.8.3-4 .9l-3.5 2.5c-.4-2.4-1.7-3.4-4.4-3.4-1.4 0-2.8.3-4 .9l-3.4 2.6-1.4-3.3-1-.2-3.1 1.2.3 1.3 2.4 2.5v12.6l-2.7 1.1.1 1.1 1.4.4 8.8-.3-.1-1.2-4.4-1.8V67.8c2.9-2 4.6-2.7 6-2.7 1.8 0 2.5.9 2.5 2.8v14.2l1.4.4 6.2-.4-.1-1.3-4.4-1.6V67.8c2.9-2 4.9-2.7 6.3-2.7 1.8 0 2.5.9 2.5 2.8v11.7zm-34.9-21.9l.8 1 2.6-.7-.8-3.5-.9-1.1-2.7.7 1 3.6zm1.4 4.7l-1-.2-3.1 1.2.3 1.3 2.4 2.4v12.7L141 81l.1 1.1.8.3 7.9-.4-.1-1.2-2.9-1.6V66.4l-1.7-4zm-12.7 17.2l-.2 2.5 1.4.4 5.2-.4-.2-1.3-3.1-1.5V67.1c0-3.6-1.2-4.9-4.5-4.9-1.4 0-2.8.3-4.1.9l-3.3 2.4v-5.8l-1.4-5.1-1-.2-3.9 1.2.2 1.3 2.9 2.4v20.6l-2.7 1.1.1 1.1 1.4.4 8.8-.3-.1-1.2-4.3-1.8V67.8c2.9-2 4.9-2.7 6.3-2.7 1.8 0 2.4.9 2.4 2.8l.1 11.7z" class="st0"/><path d="M789.1 10.1c-1.9-.8-4-1.2-6-1.3-1.7-.1-3.4.3-4.8 1.2-1.3 1-2 2.5-2 4-.1 1.4.5 2.7 1.5 3.7 2.4 2 6.1 2.2 8.1 3.7.7.6 1.1 1.4 1 2.3 0 .9-.2 1.8-.6 2.6-1.1.3-2.2.5-3.3.4-1.1 0-2.3-.1-3.4-.4l-2.4-2.7-1.2.4.4 3.6c2.1.9 4.3 1.4 6.5 1.3 1.7.1 3.5-.4 4.9-1.3 1.4-1.1 2.2-2.8 2.1-4.6.2-1.6-.6-3.1-1.9-3.9-2.4-2-6.2-2.1-7.8-3.6-.6-.5-1-1.4-.9-2.2 0-.7.1-1.4.5-2 1-.2 2-.3 3-.4 1 0 2 .1 3 .4l1.9 2.3 1.2-.3.2-3.2zM761 11.7c1.1-.5 2.3-.7 3.5-.7 2.4 0 3.9 1.2 3.9 4.2 0 .7-.1 1.3-.1 2l-8.7.3c.1-2 .6-4 1.4-5.8m4.3-3c-2.2-.1-4.3.6-5.9 2-1.4 1.3-2.8 4.3-2.8 8.6 0 5.7 1.8 9.7 7.7 9.7 1.2 0 2.4-.1 3.5-.4l3.5-1.4-.5-1.9c-1.5.7-3.2 1.1-4.9 1.1-5 0-6.1-2.8-6.2-6.9l11.5-.8c.2-1.2.4-2.5.4-3.8-.1-4.3-2.4-6.2-6.3-6.2m-17.7-2.9v20.6l-2.8 1.2.1 1.1.8.3 7.7-.3-.1-1.2-2.8-1.6V6.2l-1.4-5.1-1-.2-3.8 1.2.2 1.3 3.1 2.4zM729.3 13c1.4-.9 3.1-1.5 4.7-1.6 3 0 3.9 2.2 3.9 6.7 0 3.8-.6 6.3-1.2 7.4-1 .5-2.2.8-3.3.8-1.4.1-2.9-.2-4.2-.8l.1-12.5zm-3.1 12.1l.6 3c1.7.6 3.6.9 5.4.9 6.5 0 8.9-4 8.9-11.2 0-5.9-1.2-9.2-6.2-9.2-1.1 0-2.2.2-3.3.5l-2.4 1.7V6.2l-1.4-5.1-1-.2-3.8 1.2.2 1.3 2.8 2.4.2 19.3zM705.8 8.9l-1-.2-3 1.2.3 1.3 2.4 2.5v10.1c0 3.5 1.4 5.3 4.5 5.3 1.5 0 2.9-.3 4.3-.8l2.8-2.6 1.9 3.2 3.9-.3-.1-1.3-2.7-3.1V13l-2.5-4-1-.2-3 1.2.3 1.3 3.2 2.8v9.3c-2.7 2.5-4.2 3-5.7 3-2.3 0-2.9-1-2.9-3.6V13l-1.7-4.1zM694 25.6c-1.2.6-2.5.9-3.8.9-4.6 0-5.1-3.5-5.1-7.4-.1-2.4.4-4.7 1.2-6.9 1.1-.5 2.4-.8 3.7-.9 4.6 0 5.1 4.1 5.1 7.6 0 2.3-.3 4.6-1.1 6.7m1.4 1.6c1.5-1.8 2.7-4.4 2.7-8.5 0-6.1-1.7-10-7-10-3 0-4.9.7-6.1 1.8-1.4 1.3-2.9 4.3-2.9 8.7 0 6.3 1.5 9.8 7.8 9.8 2.6.1 4.6-.8 5.5-1.8m-26.7-13.5v12.7l-2.6 1.1.1 1.1 1.4.4 9.5-.3-.1-1.2-5.2-2v-9.1c1.1-2.5 2.4-3.8 3.2-4.2 1 0 1.9.3 2.7.9l1.3-.2.3-3.6c-.7-.3-1.4-.5-2.2-.5-1.1 0-2.1.2-3.1.6l-2.3 3.9-1.7-4.4-1-.2-3 1.2.3 1.3 2.4 2.5zm-17.1-3.1l3.7 1.5-.2 2.3v10.7c0 3.3 1.9 3.9 4.2 3.9.4 0 .8 0 1.2-.1l1.6-.7-.2-1.4c-2.2-.2-3.8-.5-3.8-2.2V14.4l-.2-2.4 5.4-.9.1-2H658l.2-3.8-.7-.2-2.8 1 .4 3h-3.5v1.5zm-13.8 16.2v1.3c.7.2 1.2.6 1.2 1.1 0 1.6-.3 3.2-.7 4.8l1.3.7c1.6-2.2 2.5-4.8 2.6-7.6 0-1.3-.9-2.1-2.7-2.3l-1.7 2zm-7.5-13.4v11.2c-1.1 1.1-2.7 1.7-4.2 1.7-3.4 0-4.2-3.5-4.2-6.9 0-3.7.6-6 1.4-7.5.7-.4 1.5-.6 2.4-.6 1.7.1 3.4.9 4.6 2.1m5.6-4.4l-4.2-.4-.8 2.4c-1.2-1.6-3.2-2.5-5.2-2.4-5.2 0-6.7 4-6.7 11.1 0 5.1 1.3 9.2 5.9 9.2 1.2.1 2.5-.1 3.7-.5l1.9-1.7c.1 2.1-.2 4.1-.7 6.1-1.1.8-2.4 1.2-3.7 1.2l-5.3-1.1-.7 1 1.6 2.8c4.6 0 7.3-.6 9.5-2.5 1.6-1.4 2.3-3.4 2.3-8.8V12.2l2.7-1.7-.3-1.5zM610 26.1l-.3 2.5 1.4.3 5.1-.3-.2-1.3-3-1.4V13.7c0-3.6-1.2-4.9-4.4-4.9-1.4 0-2.7.3-3.9.9l-3.6 2.7-1.4-3.4-1-.2-3 1.2.3 1.3 2.4 2.5v12.7l-2.6 1.1.1 1.1 1.4.4 8.6-.3-.1-1.2-4.3-1.7V14.3c2.8-2 4.8-2.7 6.2-2.7 1.7 0 2.4.9 2.4 2.8l-.1 11.7zM587.4 4.2l.8 1 2.6-.7-.8-3.4-.9-1.1-2.6.7.9 3.5zm1.4 4.7l-1-.2-3 1.2.3 1.3 2.4 2.5v12.7l-2.6 1.2.1 1.1.8.3 7.7-.3-.1-1.3-2.8-1.6V13l-1.8-4.1zm-12.2 17.2l-.2 2.5 1.4.3 5.1-.3-.2-1.3-3-1.4V13.7c0-3.6-1.2-4.9-4.4-4.9-1.4 0-2.7.3-3.9.9l-3.3 2.4V6.2l-1.4-5.1-1-.2-3.8 1.2.2 1.3 2.8 2.4v20.5l-2.6 1.1.1 1.1 1.4.4 8.6-.3-.1-1.2-4.2-1.7V14.3c2.8-2 4.7-2.7 6.2-2.7 1.8 0 2.4.9 2.4 2.8l-.1 11.7zm-28.4-15.5l3.7 1.5-.2 2.3v10.7c0 3.3 1.9 3.9 4.2 3.9.4 0 .8 0 1.2-.1l1.6-.7-.2-1.4c-2.2-.2-3.8-.5-3.8-2.2V14.4l-.1-2.4 5.4-.9.1-2h-5.4l.2-3.8-.7-.2-2.8 1 .4 3h-3.5l-.1 1.5zm-7 15c-1.2.6-2.5.9-3.8.9-4.6 0-5.1-3.5-5.1-7.4-.1-2.4.4-4.7 1.2-6.9 1.2-.5 2.4-.8 3.7-.9 4.6 0 5.1 4.1 5.1 7.6 0 2.3-.4 4.6-1.1 6.7m1.3 1.6c1.5-1.8 2.7-4.4 2.7-8.5 0-6.1-1.7-10-7-10-3 0-4.9.7-6.1 1.8-1.4 1.3-2.9 4.3-2.9 8.7 0 6.3 1.5 9.8 7.8 9.8 2.6.1 4.6-.8 5.5-1.8m-22.2-1.1l-.3 2.5 1.4.3 5.1-.3-.1-1.3-3-1.4V13.7c0-3.6-1.2-4.9-4.4-4.9-1.4 0-2.7.3-3.9.9l-3.7 2.6-1.4-3.4-1-.2-3 1.2.3 1.3 2.4 2.5v12.7l-2.6 1.1.1 1.1 1.4.4 8.6-.3-.1-1.2-4.3-1.7V14.3c2.8-2 4.8-2.7 6.2-2.7 1.7 0 2.4.9 2.4 2.8v11.7zm-35.2-15.5l3.7 1.6v14.2l-2.6 1.1.1 1.1 1.4.4 8.6-.3-.1-1.2-4.3-1.7V12l5.1-.9.1-2h-5.2c0-1.8.2-3.6.8-5.3.7-.3 1.5-.4 2.3-.4.3 0 .7 0 1 .1l3.1 1.5 1-.5.2-2.8c-1.5-.5-2.9-.7-4.3-.7-2.3 0-4.6.9-5.5 2.3S489 6 488.8 9.2h-3.6l-.1 1.4zm-7.3 15c-1.2.6-2.5.9-3.8.9-4.6 0-5.1-3.5-5.1-7.4-.1-2.4.4-4.7 1.3-6.9 1.1-.5 2.4-.8 3.7-.9 4.6 0 5.1 4.1 5.1 7.6-.1 2.3-.5 4.6-1.2 6.7m1.3 1.6c1.6-1.8 2.7-4.4 2.7-8.5 0-6.1-1.7-10-7-10-3 0-5 .7-6.1 1.8-1.4 1.3-2.9 4.3-2.9 8.7 0 6.3 1.5 9.8 7.8 9.8 2.6.1 4.6-.8 5.5-1.8m-28.7-13.8v11.3c-1.1 1.1-2.6 1.7-4.2 1.7-3.4 0-4.2-3.5-4.2-6.9 0-3.7.6-6 1.4-7.5.7-.4 1.5-.6 2.4-.6 1.8.1 3.4.8 4.6 2m2 15.5l3.9-.3-.1-1.3-2.7-3.1v-18l-1.4-5.1-1-.2-3.8 1.2.2 1.3 2.8 2.4v4.7c-1.2-1.3-2.9-1.9-4.6-1.8-5.2 0-6.7 4-6.7 11.1 0 5.1 1.3 9.2 5.9 9.2 1.2.1 2.5-.1 3.7-.5l2.3-2.1 1.5 2.5zM429.9 4.3l.8 1 2.6-.7-.9-3.5-.8-1.1-2.6.7.9 3.6zm1.4 4.7l-1-.2-3 1.2.3 1.3 2.4 2.5v12.7l-2.7 1.2.1 1.1.8.3 7.7-.3-.1-1.2L433 26V13l-1.7-4zm-16.9 17.4c-3.4 0-4.2-3.5-4.2-6.9 0-3.7.6-6 1.4-7.5.7-.4 1.5-.6 2.4-.6 1.8 0 3.5.8 4.7 2.1v11.1c-1.1 1.2-2.7 1.8-4.3 1.8m6.3 2.5l3.9-.3-.1-1.3-2.7-3.1v-12l2.8-1.7-.2-1.4-4.2-.4-.9 2.5c-1.7-1.8-2.9-2.5-5.3-2.5-5.2 0-6.7 4-6.7 11.1 0 5.1 1.3 9.2 5.9 9.2 1.2.1 2.5-.1 3.7-.5l2.4-2.2 1.4 2.6zm-27-15.2v12.7l-2.6 1.1.1 1.1 1.4.4 9.5-.3-.1-1.2-5.2-2v-9.1c1.1-2.5 2.4-3.8 3.2-4.2 1 0 1.9.3 2.7.9l1.3-.2.3-3.6c-.7-.3-1.4-.5-2.2-.5-1.1 0-2.1.3-3.1.7l-2.3 3.9L395 9l-1-.2-3 1.2.3 1.3 2.4 2.4zm-17.2-3.1l3.7 1.6v14.2l-2.6 1.1.1 1.1 1.4.4 8.6-.3-.1-1.2-4.3-1.7V12l5.1-.9.1-2h-5.2c0-1.8.2-3.6.8-5.3.7-.3 1.5-.4 2.3-.4.3 0 .7 0 1 .1l3.1 1.5 1-.5.1-2.8c-1.3-.4-2.8-.6-4.2-.6-2.3 0-4.6.9-5.5 2.3s-1.4 2.7-1.6 5.9h-3.6l-.2 1.3zm-12.3 15.8c-3.4 0-4.2-3.5-4.2-6.9 0-3.7.6-6 1.4-7.5.7-.4 1.5-.6 2.4-.6 1.8.1 3.5.8 4.8 2.1v11.1c-1.2 1.2-2.7 1.8-4.4 1.8m6.3 2.5l3.9-.3-.2-1.3-2.7-3.1v-12l2.8-1.7-.2-1.4-4.2-.4-.9 2.5c-1.7-1.8-2.9-2.5-5.3-2.5-5.2 0-6.7 4-6.7 11.1 0 5.1 1.3 9.2 5.9 9.2 1.2.1 2.5-.1 3.7-.5l2.4-2.2 1.5 2.6zm-25.1-18.8c-1.9-.8-4-1.2-6-1.3-1.7-.1-3.4.3-4.8 1.2-1.3.9-2 2.4-2 4-.1 1.4.5 2.7 1.5 3.7 2.4 2 6.1 2.2 8.1 3.7.7.6 1.1 1.4 1 2.3 0 .9-.2 1.8-.6 2.6-1.1.3-2.2.5-3.4.4-1.1 0-2.3-.1-3.3-.4l-2.4-2.7-1.2.4.4 3.6c2.1.9 4.3 1.4 6.5 1.3 1.7.1 3.5-.4 4.9-1.3 1.4-1.1 2.2-2.8 2.1-4.6.2-1.6-.6-3.1-1.9-3.9-2.4-2-6.2-2.1-7.8-3.6-.6-.5-1-1.4-.9-2.2 0-.7.1-1.4.5-2 1-.2 2-.3 3-.4 1 0 2 .1 3 .4l1.9 2.3 1.2-.3.2-3.2zm-22.3-5.9l.8 1 2.6-.7-.8-3.5-.9-1-2.6.7.9 3.5zm1.4 4.7l-1-.2-3 1.2.3 1.3 2.4 2.5v12.7l-2.6 1.2.1 1.1.8.3 7.7-.3-.1-1.2-2.8-1.6V13l-1.8-4.1zm-18.7 16.7c-1.2.6-2.5.9-3.8.9-4.6 0-5.1-3.5-5.1-7.4-.1-2.4.4-4.7 1.2-6.9 1.1-.5 2.4-.8 3.7-.9 4.6 0 5.1 4.1 5.1 7.6 0 2.3-.3 4.6-1.1 6.7m1.4 1.6c1.6-1.8 2.7-4.4 2.7-8.5 0-6.1-1.7-10-7-10-3 0-5 .7-6.1 1.8-1.4 1.3-2.9 4.3-2.9 8.7 0 6.3 1.5 9.8 7.8 9.8 2.6.1 4.6-.8 5.5-1.8M285 26.1l-.2 2.5 1.4.3 5.1-.3-.1-1.3-3-1.4V13.7c0-3.6-1.2-4.9-4.4-4.9-1.4 0-2.7.3-3.9.9l-3.3 2.4V6.2L275 1.1l-1-.2-3.8 1.2.2 1.3 2.8 2.4v20.5l-2.6 1.1.1 1.1 1.4.4 8.6-.3-.1-1.2-4.2-1.7V14.3c2.8-2 4.7-2.7 6.2-2.7 1.8 0 2.4.9 2.4 2.8v11.7zm-32.2-17l.5 2.7c-.6 4.8-1.9 9.5-3.9 13.9h-.5c-1.4-4.6-2.4-9.2-3-13.9l3.8-1.3-.5-1.6-1.7-.2-7.2.2.2 1.4 2 1.2c.9 5.8 2.3 11.6 4.1 17.2l2-.1h2.5c1.4-4.2 2.5-8.6 3.3-12.9h.2c.8 4.4 1.9 8.8 3.1 13.1l1.5-.1h2.9c1.8-4.7 3.2-9.6 4.4-14.5l1-3-1.2-2.2-3.9-.3-1.3.2-.5 1.7 3.3 1.3c-.2 4.8-1.4 9.6-3.6 13.9h-.7c-1.3-4.4-2.3-9-3-13.6l-.2-3.3-.7-.2-2.9.4zm-31.5 4.6v12.7l-2.6 1.1.1 1.1 1.4.4 9.5-.3-.1-1.2-5.2-2v-9.1c1.1-2.5 2.4-3.8 3.2-4.2 1 0 1.9.3 2.7.9l1.3-.2.3-3.6c-.7-.3-1.4-.5-2.2-.5-1.1 0-2.1.3-3.1.7l-2.3 3.9-1.7-4.4-1-.2-3 1.2.3 1.3 2.4 2.4zm-17-2c1.1-.5 2.3-.7 3.5-.7 2.4 0 3.9 1.2 3.9 4.2 0 .7-.1 1.3-.2 2l-8.6.3c.2-2 .7-4 1.4-5.8m4.4-3c-2.2-.1-4.3.6-5.9 2-1.4 1.3-2.8 4.3-2.8 8.6 0 5.7 1.8 9.7 7.7 9.7 1.2 0 2.4-.1 3.5-.4l3.5-1.4-.6-1.9c-1.5.7-3.2 1.1-4.9 1.1-5 0-6.1-2.8-6.2-6.9l11.5-.8c.2-1.2.4-2.5.4-3.8-.1-4.3-2.4-6.2-6.2-6.2m-18-4.5l.8 1 2.6-.7-.8-3.5-.9-1-2.6.7.9 3.5zm1.4 4.7l-1-.2-3 1.2.3 1.3 2.4 2.5v12.7l-2.6 1.2.1 1.1.8.3 7.7-.3-.1-1.2-2.8-1.6V13l-1.8-4.1zm-12 4.5v11.3c-1.1 1.1-2.6 1.7-4.2 1.7-3.4 0-4.2-3.5-4.2-6.9 0-3.7.6-6 1.4-7.5.7-.4 1.5-.6 2.4-.6 1.8.1 3.4.8 4.6 2m2 15.5l3.9-.3-.1-1.3-2.7-3.1v-18l-1.4-5.1-1-.2-3.8 1.2.2 1.3 2.9 2.4v4.7c-1.2-1.3-2.9-1.9-4.6-1.8-5.2 0-6.7 4-6.7 11.1 0 5.1 1.3 9.2 5.9 9.2 1.2.1 2.5-.1 3.7-.5l2.3-2.1 1.4 2.5zM159.7 5.8v20.6l-2.6 1.2.1 1.1.8.3 7.7-.3-.2-1.2-2.8-1.6V6.2l-1.4-5.1-1-.2-3.8 1.2.2 1.3 3 2.4zm-10.6 19.8c-1.2.6-2.5.9-3.8.9-4.6 0-5.1-3.5-5.1-7.4-.1-2.4.4-4.7 1.2-6.9 1.2-.5 2.4-.8 3.7-.9 4.6 0 5.1 4.1 5.1 7.6 0 2.3-.4 4.6-1.1 6.7m1.3 1.6c1.6-1.8 2.7-4.4 2.7-8.5 0-6.1-1.7-10-7-10-3 0-5 .7-6.1 1.8-1.4 1.3-2.9 4.3-2.9 8.7 0 6.3 1.5 9.8 7.8 9.8 2.7.1 4.6-.8 5.5-1.8m-18.2-17.1c-1.9-.8-4-1.2-6-1.3-1.7-.1-3.4.3-4.8 1.2-1.3 1-2 2.5-2 4-.1 1.4.5 2.7 1.5 3.7 2.4 2 6.1 2.2 8.1 3.7.7.5 1.1 1.4 1.1 2.3 0 .9-.2 1.8-.6 2.6-1.1.3-2.2.5-3.4.4-1.1 0-2.3-.1-3.3-.4l-2.4-2.7-1.3.4.4 3.6c2.1.9 4.3 1.4 6.5 1.3 1.7.1 3.5-.4 4.9-1.3 1.4-1.1 2.2-2.8 2.1-4.6.2-1.6-.6-3.1-1.9-3.9-2.4-2-6.2-2.1-7.8-3.6-.6-.5-1-1.4-.9-2.2 0-.7.1-1.4.5-2 1-.2 2-.3 3-.4 1 0 2 .1 3 .4l1.9 2.3 1.2-.3.2-3.2zm-76.7 6.8H59c5.9 19.4 11.9 43.4 17 68.5H35.3c5.3-26.1 11.8-48.9 20.2-68.5M0 129l.4 5.7 7.5 2 44-1.3-.8-6.3-22-8.1c1.2-8.3 2.6-16.4 4-24.2h45.2c1.8 9.1 3.4 18.4 4.8 27.5L66.7 129l.4 5.7 7.5 2 44-1.4-.8-6.3-17.4-8.1C93 80.9 83.6 41.3 72.1 2.3L61 5.2 23.6 2.7l-2.2 7.9 19.2 7.7c-8.3 27.5-20 73.1-26.9 105.8L0 129zm505.8 202.2l11.1 4.3-.5 6.6v31.1c0 9.7 5.6 11.4 12.6 11.4 1.3 0 2.5-.1 3.7-.2l4.7-2.2-.7-4.1c-6.6-.7-11.2-1.5-11.2-6.4v-29.6l-.5-6.9 16.1-2.5.2-5.9h-16.2l.7-11-2.2-.5-8.3 3 1.2 8.5h-10.4l-.3 4.4zm-52.8-4.8l-2.9-.7-8.9 3.5.8 3.8 7 7.2v29.2c0 10.2 4.2 15.5 13.5 15.5 4.4 0 8.7-.8 12.8-2.4l8.4-7.5 5.7 9.4 11.7-.8-.4-3.6-8-8.9v-32.9l-7.5-11.7-2.9-.6-8.9 3.5.8 3.8 9.4 8.2v27c-8.1 7.2-12.4 8.6-17 8.6-6.7 0-8.6-2.8-8.6-10.3v-28.4l-5-11.9zm-35.4 48.3c-3.5 1.7-7.3 2.6-11.2 2.6-13.8 0-15.1-10.1-15.1-21.4 0-9.3 2-16.4 3.7-20 3.4-1.6 7.1-2.4 10.9-2.5 13.8 0 15 11.9 15 21.9 0 6.7-1.1 13.2-3.3 19.4m4.1 4.7c4.6-5.1 8-12.8 8-24.6 0-17.8-5.1-29.1-20.8-29.1-8.9 0-14.8 2.2-18 5.3-4.2 3.9-8.5 12.5-8.5 25.4 0 18.2 4.5 28.4 23.1 28.4 7.6 0 13.5-2.5 16.2-5.4m-88.7-41c3.9-2.4 9.3-4.5 14.1-4.5 8.9 0 11.7 6.4 11.7 19.4 0 11-1.9 18.3-3.5 21.5-3 1.6-6.4 2.4-9.9 2.3-4.7 0-8.9-.6-12.5-2.2l.1-36.5zm-9.2 35l1.7 8.7c3.7 1.6 10.6 2.7 16.1 2.7 19.2 0 26.3-11.6 26.3-32.5 0-17.2-3.5-26.6-18.5-26.6-3.3 0-6.6.5-9.7 1.5l-6.7 4.9v-13.5l-4.1-14.9-2.9-.7-11.2 3.5.6 3.9 8.4 6.9v56.1zm-43.9 3.6c-10.2 0-12.4-10-12.4-19.9 0-10.6 1.7-17.4 4.2-21.6 2.2-1.1 4.6-1.7 7-1.8 6 0 10.5 2.8 14.1 6v32.1c-3.4 3.4-8.1 5.3-12.9 5.2m18.7 7.4l11.8-.8-.4-3.6-8-8.9v-35.2l8.2-4.9-.7-4.1-12.7-1.1-2.6 7.1c-4.9-5.3-8.5-7.2-15.6-7.2-15.4 0-20 11.7-20 32.2 0 14.9 3.8 26.7 17.4 26.7 4.7 0 7.8-.3 10.9-1.5l7.2-6.2 4.5 7.5z" class="st0"/></g></g></svg>