<svg xmlns="http://www.w3.org/2000/svg" id="Layer_1" viewBox="0 0 362.7 341.5" width="362.7" height="341.5"><style>.st0{fill:#787878}.st1{fill:#2997ff}.st2{enable-background:new}</style><g id="a5aa1b63-5bd2-4389-81ed-966d048faa97"><g id="b1839b9b-9fd0-4519-ba49-b37fc5dce2e2"><path d="M363.5 341.6h-50.1v-3h50.1v3zm-158 0h-55.1v-3h55.1v3zm158-14.4h-88.1v-3h88.1v3zm-141 0h-88.1v-3h88.1v3zm141-14.4h-88.1v-3h88.1v3zm-141 0h-88.1v-3h88.1v3zm141-14.4h-88.1v-3h88.1v3zm-141 0h-88.1v-3h88.1v3zm141-14.4h-88.1v-3h88.1v3zm-141 0h-88.1v-3h88.1v3zm141-14.5h-88.1v-3h88.1v3zm-141 0h-88.1v-3h88.1v3zm133.9-98.6h-88.1v-3h88.1v3zm-133.9 0h-88.1v-3h88.1v3zm133.9-14.4h-74.1v-3h74.1v3zm-146.9 0h-63.1v-3h63.1v3zm146.9-14.4h-88.1v-3h88.1v3zm-133.9 0h-88.1v-3h88.1v3zm133.9-14.4h-74.1v-3h74.1v3zm-146.9 0h-63.1v-3h63.1v3zm146.9-14.4h-88.1v-3h88.1v3zm-133.9 0h-88.1v-3h88.1v3zm133.9-14.5h-74.1v-3h74.1v3zm-146.9 0h-63.1v-3h63.1v3z" class="st0"/><path d="M140.9 55h-3.7l-.7 2.6h-2.2l3.4-11.1h2.7l3.4 11.1h-2.2l-.7-2.6zm-.5-1.7L139 48l-1.4 5.3h2.8zm4.4 2.3v-9.9l2.1-.2v10.1c0 .4.1.6.5.6.2 0 .3 0 .5-.1l.4 1.4c-.4.2-.9.3-1.4.3-1.1.1-2-.7-2.1-1.8v-.4zM152 46c-.1.7-.7 1.2-1.4 1.1-.6-.1-1-.5-1.1-1.1.1-.7.7-1.2 1.4-1.2.6.1 1 .5 1.1 1.2zm-.3 11.5h-2.1V49h2.1v8.5zm9.8-8c-.8.2-1.6.3-2.4.3.9.3 1.6 1.2 1.5 2.2 0 1.6-1.3 2.8-3.4 2.8-.3 0-.7 0-1-.1-.2.1-.3.4-.4.6 0 .3.2.6 1 .6h1.3c1.9 0 3.1 1 3.1 2.4 0 1.7-1.5 2.7-4.2 2.7-3 0-3.9-1-3.9-2.7h1.8c0 .8.4 1.2 2 1.2s2.1-.4 2.1-1.1c0-.7-.5-1-1.4-1h-1.3c-1.7 0-2.4-.8-2.4-1.6 0-.7.4-1.3 1-1.6-.9-.4-1.5-1.4-1.5-2.4 0-1.8 1.5-3 3.5-3 1.4.1 2.8-.2 4-.9l.6 1.6zm-5.9 2.3c-.1.8.5 1.5 1.3 1.7h.2c1 0 1.5-.6 1.5-1.7s-.5-1.6-1.5-1.6c-.8 0-1.5.6-1.5 1.4v.2zm14-.4v6.1h-2.1v-5.8c0-1.1-.4-1.4-1-1.4-.8.1-1.5.6-1.8 1.3v5.9h-2V49h1.8l.2 1.1c.6-.8 1.5-1.3 2.6-1.3 1.3 0 2.3 1 2.3 2.2.1.1.1.3 0 .4zm13.9-4l-1.1 1.2c-.6-.5-1.3-.8-2-.8-1.5 0-2.7 1.1-2.7 4.1s1.1 4.1 2.7 4.1c.8 0 1.6-.3 2.3-.9l1 1.2c-.9.9-2.1 1.4-3.3 1.3-2.9 0-4.9-2-4.9-5.8s2.1-5.7 4.8-5.7c1.2.1 2.3.5 3.2 1.3zm8.1 6.5h-5.3c.2 1.7 1 2.3 2.1 2.3.8 0 1.5-.3 2.1-.8l.9 1.2c-.9.7-2 1.1-3.1 1.1-2.6 0-4-1.8-4-4.4 0-2.7 1.4-4.5 3.8-4.5s3.7 1.6 3.7 4.3c-.1.2-.1.6-.2.8zm-2-1.4c0-1.4-.5-2.2-1.6-2.2-1 0-1.6.6-1.7 2.3l3.3-.1zm10.8-1.1v6.1h-2v-5.8c0-1.1-.4-1.4-1-1.4-.8.1-1.5.6-1.8 1.3v5.9h-2.1V49h1.8l.1 1.1c.6-.8 1.6-1.3 2.6-1.3 1.3-.1 2.3.9 2.4 2.1.1.2.1.3 0 .5zm7.2 5.7c-.6.4-1.4.6-2.1.6-1.7 0-2.6-1-2.6-2.8v-4.5h-1.3V49h1.3v-1.9l2-.2V49h2l-.2 1.5H205V55c0 .8.3 1.2.9 1.2.4 0 .7-.1 1-.3l.7 1.2zm7.8-3.2h-5.3c.2 1.7 1 2.3 2.1 2.3.8 0 1.5-.3 2.1-.8l.9 1.2c-.9.7-2 1.1-3.1 1.1-2.6 0-4-1.8-4-4.4 0-2.7 1.4-4.5 3.8-4.5s3.7 1.6 3.7 4.3c-.2.2-.2.6-.2.8zm-2-1.4c0-1.4-.5-2.2-1.6-2.2-1 0-1.6.6-1.7 2.3l3.3-.1zm8.9-3.5l-.4 2c-.2-.1-.5-.1-.8-.1-1 0-1.6.8-1.9 2.2v4.5h-2.1V49h1.8l.2 1.7c.2-1.1 1.1-1.8 2.2-1.9.4 0 .7.1 1 .2zm52.6 6h-3.7l-.7 2.6h-2.2l3.4-11.1h2.6l3.4 11.1h-2.2l-.6-2.6zm-.5-1.7L273 48l-1.4 5.3h2.8zm4.4 2.3v-9.9l2-.2v10.1c0 .4.1.6.5.6.2 0 .3 0 .5-.1l.5 1.4c-.4.2-.9.3-1.4.3-1.1.1-2-.7-2.1-1.8v-.4zM286 46c-.1.7-.8 1.2-1.5 1-.5-.1-.9-.5-1-1 .1-.7.7-1.2 1.4-1.2.6.1 1 .5 1.1 1.2zm-.3 11.5h-2V49h2v8.5zm9.8-8c-.8.2-1.6.3-2.5.3.9.3 1.6 1.2 1.5 2.2 0 1.6-1.3 2.8-3.4 2.8-.3 0-.7 0-1-.1-.2.1-.3.4-.4.6 0 .3.2.6 1 .6h1.3c1.9 0 3.1 1 3.1 2.4 0 1.7-1.5 2.7-4.2 2.7-3 0-3.9-1-3.9-2.7h1.9c0 .8.4 1.2 2 1.2s2.1-.4 2.1-1.1c0-.7-.5-1-1.4-1h-1.2c-1.7 0-2.4-.8-2.4-1.6 0-.7.4-1.3 1-1.6-.9-.4-1.5-1.4-1.5-2.4 0-1.8 1.5-3 3.5-3 1.4.1 2.8-.2 4-.9l.5 1.6zm-5.9 2.3c-.1.8.5 1.6 1.3 1.7h.2c1 0 1.5-.6 1.5-1.7s-.5-1.6-1.5-1.6c-.8 0-1.5.6-1.5 1.4v.2zm14-.4v6.1h-2v-5.8c0-1.1-.4-1.4-1-1.4-.8.1-1.5.6-1.8 1.3v5.9h-2V49h1.8l.2 1.1c.6-.8 1.6-1.3 2.6-1.3 1.3-.1 2.3.9 2.4 2.2-.2.1-.2.2-.2.4zm9.9 1.7h-1.4v4.4H310V46.4h3.3c2.9 0 4.4 1 4.4 3.2 0 1.4-.9 2.6-2.2 3l2.9 4.8H316l-2.5-4.3zm-1.4-1.6h1.3c1.3 0 2-.5 2-1.9 0-1.3-.6-1.7-2.2-1.7h-1.1v3.6zM322 46c-.1.7-.7 1.2-1.4 1.2-.6-.1-1.1-.5-1.2-1.2.1-.7.7-1.2 1.4-1.2.7.1 1.1.5 1.2 1.2zm-.2 11.5h-2V49h2v8.5zm9.7-8c-.8.2-1.6.3-2.5.3.9.3 1.6 1.2 1.5 2.2 0 1.6-1.3 2.8-3.4 2.8-.3 0-.7 0-1-.1-.2.1-.3.4-.4.6 0 .3.2.6 1 .6h1.3c1.9 0 3.1 1 3.1 2.4 0 1.7-1.5 2.7-4.2 2.7-3 0-3.9-1-3.9-2.7h1.8c0 .8.4 1.2 2 1.2s2.1-.4 2.1-1.1c0-.7-.5-1-1.4-1h-1.3c-1.7 0-2.4-.8-2.4-1.6 0-.7.4-1.3 1-1.6-.9-.4-1.5-1.4-1.5-2.4 0-1.8 1.5-3 3.5-3 1.4.1 2.8-.2 4-.9l.7 1.6zm-5.9 2.3c-.1.8.5 1.5 1.3 1.7h.2c1 0 1.5-.6 1.5-1.7s-.5-1.6-1.5-1.6c-.8 0-1.5.6-1.5 1.4v.2zm14.1-.4v6.1h-2v-5.8c0-1.1-.4-1.4-1-1.4-.8.1-1.5.6-1.8 1.3v5.9h-2V45.7l2-.2V50c.6-.8 1.5-1.3 2.5-1.2 1.3 0 2.3 1 2.3 2.3v.3zm7.1 5.7c-.6.4-1.4.6-2.1.6-1.7 0-2.5-1-2.5-2.8v-4.5h-1.3V49h1.3v-1.9l2-.2V49h2l-.2 1.5h-1.8V55c0 .8.3 1.2.9 1.2.4 0 .7-.1 1-.3l.7 1.2zm-73.7 15.2h-1.3v4.4h-2.1V65.6h3.3c2.9 0 4.4 1 4.4 3.2 0 1.4-.9 2.6-2.2 3l2.9 4.8h-2.4l-2.6-4.3zm-1.3-1.6h1.3c1.3 0 2-.5 2-1.8s-.7-1.7-2.2-1.7h-1.1v3.5zm14.3 4.9l-.4 1.4c-.8 0-1.6-.5-1.9-1.2-.6.9-1.5 1.3-2.5 1.3-1.4.1-2.6-.9-2.7-2.3v-.3c0-1.8 1.4-2.8 3.8-2.8h1.1v-.5c0-1.1-.5-1.5-1.6-1.5-.8 0-1.5.2-2.2.4l-.5-1.4c1-.4 2-.6 3.1-.7 2.3 0 3.3 1 3.3 2.9v3.6c-.1.7.1.9.5 1.1zm-2.6-1.2v-1.7h-.9c-1.3 0-2 .5-2 1.5-.1.6.3 1.2.9 1.3h.3c.7-.1 1.4-.5 1.7-1.1zm11.8-5.7c-.8.2-1.6.3-2.5.3 1 .3 1.6 1.2 1.6 2.2 0 1.7-1.3 2.8-3.4 2.8-.3 0-.7 0-1-.1-.2.1-.3.4-.4.6 0 .3.2.6 1 .6h1.3c1.9 0 3.1 1 3.1 2.4 0 1.7-1.5 2.7-4.2 2.7-3 0-3.9-1-3.9-2.7h1.8c0 .8.4 1.2 2 1.2s2.1-.5 2.1-1.1-.5-1-1.4-1h-1.3c-1.7 0-2.4-.8-2.4-1.6 0-.7.4-1.3 1-1.6-.9-.4-1.5-1.4-1.5-2.4 0-1.8 1.5-3 3.5-3 1.4.1 2.8-.2 4-.9l.6 1.6zm-5.9 2.3c-.1.8.5 1.5 1.3 1.7h.2c1 0 1.5-.6 1.5-1.7s-.5-1.6-1.5-1.6c-.8 0-1.5.6-1.5 1.4v.2zm13.3 4h4.4l-.2 1.7h-6.3V65.6h2.1V75zm12.4-1.9h-5.3c.2 1.7 1 2.3 2.1 2.3.8 0 1.5-.3 2.1-.8l.8 1.2c-.9.7-2 1.2-3.1 1.2-2.6 0-4-1.8-4-4.4 0-2.7 1.3-4.6 3.7-4.6s3.7 1.6 3.7 4.3c.1.2 0 .6 0 .8zm-2-1.4c0-1.4-.5-2.2-1.6-2.2-1 0-1.6.6-1.7 2.3l3.3-.1zm6.2-4.4v.9h1.6l-.2 1.5h-1.4v7h-2v-7h-1.4v-1.5h1.4v-.9c0-1.5 1-2.7 3-2.7.5 0 .9.1 1.4.2l-.4 1.5c-.3-.1-.5-.1-.8-.1-.9 0-1.2.3-1.2 1.1zm8.1 9c-.6.4-1.4.7-2.1.6-1.7 0-2.5-1-2.5-2.8v-4.5h-1.3v-1.5h1.3v-1.9l2-.2v2.1h2l-.2 1.5h-1.8V74c0 .8.3 1.2.9 1.2.4 0 .7-.1 1-.3l.7 1.4zM143.2 237.4l-1.1 1.2c-.6-.5-1.3-.8-2-.8-1.5 0-2.7 1.1-2.7 4.1s1.1 4.1 2.7 4.1c.8 0 1.6-.3 2.3-.9l1 1.2c-.9.9-2.1 1.4-3.3 1.3-2.9 0-4.9-2-4.9-5.8s2.1-5.8 4.8-5.8c1.2.2 2.3.6 3.2 1.4zm8.1 6.6H146c.2 1.7 1 2.3 2.1 2.3.8 0 1.5-.3 2.1-.8l.9 1.2c-.9.7-2 1.1-3.1 1.1-2.6 0-4-1.7-4-4.4s1.4-4.5 3.8-4.5 3.7 1.6 3.7 4.3c-.1.2-.2.5-.2.8zm-2-1.4c0-1.4-.5-2.2-1.6-2.2-1 0-1.6.6-1.7 2.3l3.3-.1zm10.8-1.2v6.1H158v-5.8c0-1.1-.4-1.4-1-1.4s-1.3.5-1.8 1.3v5.9h-2.1V239h1.8l.2 1.1c.6-.8 1.5-1.3 2.6-1.3 1.3-.1 2.3.9 2.4 2.2v.4zm7.2 5.7c-.6.4-1.4.7-2.1.6-1.7 0-2.6-1-2.6-2.8v-4.5h-1.3v-1.5h1.3V237l2-.2v2.1h2l-.2 1.5h-1.7v4.4c0 .8.3 1.2.9 1.2.4 0 .7-.1 1-.3l.7 1.4zm7.7-3.1h-5.3c.2 1.7 1 2.3 2.1 2.3.8 0 1.5-.3 2.1-.8l.8 1.2c-.9.7-2 1.1-3.1 1.1-2.6 0-4-1.7-4-4.4s1.4-4.5 3.8-4.5 3.7 1.6 3.7 4.3c0 .2 0 .5-.1.8zm-2-1.4c0-1.4-.5-2.2-1.6-2.2-1 0-1.6.6-1.7 2.3l3.3-.1zm8.9-3.6l-.4 2c-.2-.1-.5-.1-.8-.1-1 0-1.6.8-1.9 2.2v4.5h-2v-8.5h1.8l.2 1.7c.2-1.1 1.1-1.8 2.2-1.9.4 0 .7 0 .9.1zm.4 2.7h4.8v1.6h-4.8v-1.6zm9.3 4.2c0 2.6-1.4 3.5-3.2 4.1l-.6-1.5c1.4-.6 1.7-1.3 1.7-2.6v-9.4h2.1v9.4zm9.1 1.6h-1.8l-.1-1.2c-.5.9-1.5 1.5-2.6 1.4-1.5 0-2.4-1-2.4-2.6V239h2.1v5.8c0 1 .3 1.3 1 1.3.7-.1 1.4-.5 1.7-1.2V239h2l.1 8.5zm8.1-7.7l-.8 1.2c-.6-.4-1.4-.7-2.1-.7-.8 0-1.3.3-1.3.8s.3.8 1.8 1.2c1.7.5 2.7 1.2 2.7 2.7 0 1.8-1.6 2.7-3.6 2.7-1.2 0-2.4-.4-3.4-1.2l1-1.1c.7.5 1.5.8 2.3.8.9 0 1.5-.4 1.5-1s-.3-.9-1.9-1.4c-1.8-.5-2.5-1.3-2.5-2.6 0-1.4 1.3-2.5 3.3-2.5 1.1.1 2.2.5 3 1.1zm6.8 7.3c-.6.4-1.4.7-2.1.6-1.7 0-2.6-1-2.6-2.8v-4.5h-1.3v-1.5h1.3V237l2.1-.2v2.1h2l-.2 1.5H213v4.4c0 .8.3 1.2.9 1.2.4 0 .7-.1 1-.3l.7 1.4zM219 236c-.1.7-.7 1.2-1.4 1.2-.6-.1-1.1-.5-1.2-1.2.1-.7.7-1.2 1.4-1.2.7.1 1.1.5 1.2 1.2zm-.2 11.5h-2V239h2v8.5zm4.6-9.3v.9h2l-.2 1.5h-1.8v7h-2v-7H220v-1.5h1.4v-.9c0-1.5 1-2.7 3-2.7.8 0 1.5.2 2.2.5l-.6 1.4c-.4-.2-.9-.3-1.4-.3-.8-.1-1.2.3-1.2 1.1z"/><path d="M230.8 247.6c-.5 2-2.3 3.4-4.4 3.4l-.2-1.5c1.2 0 2.3-.8 2.7-2h-.7l-2.7-8.5h2.2l1.8 7.1 1.9-7.1h2.1l-2.7 8.6zm42.3-4.5h-1.3v4.4h-2.1v-11.1h3.3c2.9 0 4.4 1.1 4.4 3.2 0 1.4-.9 2.6-2.2 3l2.9 4.8h-2.4l-2.6-4.3zm-1.3-1.5h1.3c1.3 0 2-.5 2-1.9s-.7-1.7-2.2-1.7h-1.1v3.6zm9.9-5.6c0 .7-.5 1.3-1.2 1.3s-1.3-.5-1.3-1.2.5-1.3 1.2-1.3c.7-.1 1.2.4 1.3 1.2 0-.1 0 0 0 0zm-.3 11.5h-2V239h2v8.5zm9.8-8c-.8.2-1.6.3-2.5.3.9.3 1.6 1.2 1.5 2.2 0 1.6-1.3 2.9-3.4 2.9-.3 0-.7 0-1-.1-.2.1-.3.4-.4.6 0 .3.2.6 1 .6h1.3c1.9 0 3.1 1 3.1 2.4 0 1.7-1.5 2.7-4.2 2.7-3 0-3.9-1-3.9-2.6h1.8c0 .8.4 1.2 2 1.2s2.1-.4 2.1-1.1-.5-1-1.4-1h-1.3c-1.7 0-2.4-.8-2.4-1.6 0-.7.4-1.3 1-1.6-.9-.4-1.5-1.4-1.5-2.4 0-1.8 1.5-3 3.5-3 1.4.1 2.8-.2 4-.9l.7 1.4zm-5.9 2.3c-.1.8.5 1.5 1.3 1.7h.2c1 0 1.5-.6 1.5-1.7s-.5-1.6-1.5-1.6c-.8 0-1.5.6-1.5 1.4v.2zm14-.4v6.1h-2v-5.8c0-1.1-.4-1.4-1-1.4-.8.1-1.4.6-1.8 1.3v5.9h-2v-11.8l2-.2v4.6c.6-.8 1.5-1.2 2.5-1.2 1.3 0 2.3.9 2.4 2.2-.1 0-.1.2-.1.3zm7.2 5.7c-.6.4-1.4.7-2.1.6-1.7 0-2.5-1-2.5-2.8v-4.5h-1.3v-1.5h1.3V237l2-.2v2.1h2l-.2 1.5h-1.8v4.4c0 .8.3 1.2.9 1.2.4 0 .7-.1 1-.3l.7 1.4zm.1-5.4h4.8v1.6h-4.8v-1.6zm9.2 4.2c0 2.6-1.4 3.5-3.2 4.1l-.6-1.5c1.5-.6 1.7-1.3 1.7-2.6v-9.4h2.1v9.4zm9.2 1.6h-1.8l-.1-1.2c-.5.9-1.5 1.5-2.6 1.4-1.5 0-2.4-1-2.4-2.6V239h2v5.8c0 1 .3 1.3 1 1.3.7-.1 1.4-.5 1.7-1.2V239h2l.2 8.5zm8.1-7.7l-.8 1.2c-.6-.4-1.4-.7-2.1-.7-.8 0-1.3.3-1.3.8s.3.8 1.8 1.2c1.7.5 2.7 1.2 2.7 2.7 0 1.8-1.6 2.7-3.6 2.7-1.2 0-2.4-.4-3.4-1.2l1-1.1c.7.5 1.5.8 2.3.8.9 0 1.5-.4 1.5-1s-.3-.9-1.9-1.4c-1.8-.5-2.5-1.3-2.5-2.6 0-1.4 1.3-2.5 3.3-2.5 1.1.1 2.2.5 3 1.1zm6.8 7.3c-.6.4-1.4.7-2.1.6-1.7 0-2.5-1-2.5-2.8v-4.5H334v-1.5h1.3V237l2-.2v2.1h2l-.2 1.5h-1.8v4.4c0 .8.3 1.2.9 1.2.4 0 .7-.1 1-.3l.7 1.4zm3.4-11.1c0 .7-.5 1.3-1.2 1.3s-1.3-.5-1.3-1.2.5-1.3 1.2-1.3c.7-.1 1.3.4 1.3 1.2 0-.1 0 0 0 0zm-.3 11.5h-2V239h2v8.5zm4.8-9.3v.9h2l-.2 1.5h-1.8v7h-2v-7h-1.4v-1.5h1.4v-.9c0-1.5 1-2.7 3-2.7.8 0 1.5.2 2.2.5l-.6 1.4c-.4-.2-.9-.3-1.4-.3-.9-.1-1.2.3-1.2 1.1z"/><path d="M355.1 247.6c-.5 2-2.3 3.5-4.4 3.4l-.2-1.5c1.2 0 2.3-.8 2.7-2h-.7l-2.7-8.5h2.2l1.8 7.1 1.9-7.1h2.1l-2.7 8.6z"/></g></g><g id="a5aa1b63-5bd2-4389-81ed-966d048faa97_00000008862318163370947660000000211903929632960393_"><path id="b1839b9b-9fd0-4519-ba49-b37fc5dce2e2_00000031893896382790775230000010546914935983676318_" d="M88.1 170.9H0v-3h88.1v3zm-15-14.4H0v-3h73.1v3zm15-14.4H0v-3h88.1v3zm-15-14.4H0v-3h73.1v3zm15-14.4H0v-3h88.1v3zm-15-14.5H0v-3h73.1v3zM6.5 55H2.8l-.7 2.6H-.1l3.4-11.1H6l3.4 11.1H7.2L6.5 55zM6 53.4l-1.4-5.3-1.4 5.3H6zm4.4 2.2v-9.9l2.1-.2v10.1c0 .4.1.6.5.6.2 0 .3 0 .5-.1l.5 1.4c-.4.2-.9.3-1.4.3-1.1.1-2-.7-2.1-1.7-.1-.2-.1-.4-.1-.5zm7.2-9.6c0 .7-.6 1.3-1.3 1.3-.7 0-1.3-.6-1.3-1.3s.6-1.3 1.3-1.3c.7 0 1.3.6 1.3 1.3zm-.3 11.5h-2.1V49h2.1v8.5zm9.8-8c-.8.2-1.6.3-2.5.3.9.3 1.6 1.2 1.5 2.2 0 1.6-1.3 2.8-3.4 2.8-.3 0-.7 0-1-.1-.2.1-.3.4-.4.6 0 .3.2.6 1 .6h1.3c1.9 0 3.1 1 3.1 2.4 0 1.7-1.5 2.7-4.2 2.7-3 0-3.9-1-3.9-2.7h1.8c0 .8.4 1.2 2 1.2s2.1-.4 2.1-1.1c0-.7-.5-1-1.4-1h-1.2c-1.7 0-2.4-.8-2.4-1.6 0-.7.4-1.3 1-1.6-.9-.4-1.5-1.4-1.5-2.4 0-1.8 1.5-3 3.5-3 1.4.1 2.8-.2 4-.9l.6 1.6zm-5.9 2.3c-.1.8.5 1.5 1.3 1.7h.2c1 0 1.5-.6 1.5-1.7s-.5-1.6-1.5-1.6c-.8 0-1.5.6-1.5 1.4v.2zm14-.4v6.1h-2v-5.8c0-1.1-.4-1.4-1-1.4-.8.1-1.5.6-1.8 1.3v5.9h-2.1V49h1.8l.2 1.1c.6-.8 1.5-1.3 2.6-1.3 1.3-.1 2.3.9 2.4 2.1 0 .2-.1.3-.1.5zm8.5 4.4h4.4l-.3 1.7h-6.3V46.4h2.1l.1 9.4zm12.5-1.9h-5.3c.2 1.7 1 2.3 2.1 2.3.8 0 1.5-.3 2.1-.8l.9 1.2c-.9.7-2 1.1-3.1 1.1-2.6 0-4-1.8-4-4.4 0-2.7 1.4-4.5 3.8-4.5s3.7 1.6 3.7 4.3c-.2.2-.2.6-.2.8zm-2-1.4c0-1.4-.5-2.2-1.7-2.2-1 0-1.6.6-1.7 2.3l3.4-.1zm6.1-4.4v.9h1.6l-.2 1.5h-1.3v7h-2v-7H57V49h1.4v-.9c0-1.5 1-2.7 3-2.7.5 0 .9.1 1.4.2l-.4 1.5c-.4-.1-.7-.1-.9-.1-.9 0-1.2.3-1.2 1.1zm8.1 9c-.6.4-1.4.6-2.1.6-1.7 0-2.5-1-2.5-2.8v-4.5h-1.3V49h1.3v-1.9l2-.2V49h2l-.2 1.5h-1.8V55c0 .8.3 1.2.9 1.2.4 0 .7-.1 1-.3l.7 1.2zM4.7 72.3H3.4v4.4H1.3V65.6h3.3c2.9 0 4.4 1 4.4 3.2 0 1.4-.9 2.6-2.2 3l2.9 4.8H7.2l-2.5-4.3zm-1.3-1.6h1.3c1.3 0 2.1-.5 2.1-1.8s-.7-1.7-2.2-1.7H3.4v3.5zm14.3 4.9l-.4 1.4c-.8 0-1.6-.5-1.9-1.2-.6.8-1.5 1.3-2.5 1.3-1.4.1-2.6-.9-2.7-2.3v-.3c0-1.8 1.4-2.8 3.8-2.8h1.1v-.5c0-1.1-.5-1.5-1.6-1.5-.8 0-1.5.2-2.3.4l-.5-1.4c1-.4 2-.6 3-.7 2.3 0 3.3 1 3.3 2.9v3.6c.1.7.3.9.7 1.1zm-2.6-1.2v-1.7h-.9c-1.3 0-2 .5-2 1.5-.1.6.3 1.2.9 1.3h.3c.7 0 1.4-.5 1.7-1.1zm11.8-5.7c-.8.2-1.6.3-2.5.3.9.3 1.6 1.2 1.5 2.2 0 1.6-1.3 2.8-3.4 2.8-.3 0-.7 0-1-.1-.2.1-.4.4-.4.6 0 .3.2.6 1 .6h1.3c1.9 0 3.1 1 3.1 2.4 0 1.7-1.5 2.7-4.2 2.7-3 0-3.9-1-3.9-2.7h1.8c0 .8.4 1.2 2 1.2s2.1-.5 2.1-1.1-.5-1-1.4-1h-1.2c-1.7 0-2.4-.8-2.4-1.6 0-.7.4-1.3 1-1.6-1-.4-1.6-1.4-1.5-2.4 0-1.8 1.5-3 3.5-3 1.4.1 2.8-.2 4-.9l.6 1.6zM21 71c-.1.8.5 1.5 1.3 1.7h.2c1 0 1.5-.6 1.5-1.7s-.5-1.6-1.5-1.6c-.8 0-1.5.6-1.5 1.4v.2zm6.6-.1h4.8v1.6h-4.8v-1.6zM38 72.3h-1.3v4.4h-2.1V65.6h3.3c2.9 0 4.4 1 4.4 3.2 0 1.4-.9 2.6-2.2 3l3 4.8h-2.5L38 72.3zm-1.4-1.6h1.3c1.3 0 2-.5 2-1.9 0-1.3-.7-1.7-2.2-1.7h-1.1v3.6zm9.9-5.5c0 .7-.5 1.3-1.2 1.4-.7 0-1.3-.5-1.4-1.2 0-.7.5-1.3 1.2-1.4h.1c.7-.1 1.3.4 1.3 1.2 0-.1 0 0 0 0zm-.2 11.5h-2v-8.5h2v8.5zm9.7-8c-.8.2-1.6.3-2.5.3.9.3 1.6 1.2 1.5 2.2 0 1.7-1.3 2.8-3.4 2.8-.3 0-.7 0-1-.1-.2.1-.3.4-.3.6 0 .3.2.6 1 .6h1.3c1.9 0 3.1 1 3.1 2.4 0 1.7-1.5 2.7-4.2 2.7-3 0-3.8-1-3.8-2.7h1.8c0 .8.4 1.2 2 1.2s2.1-.4 2.1-1.1-.5-1-1.4-1H51c-1.7 0-2.4-.8-2.4-1.6 0-.7.4-1.3 1-1.6-1-.4-1.6-1.3-1.5-2.4 0-1.8 1.5-3 3.5-3 1.4.1 2.8-.2 4-.9l.4 1.6zM50.1 71c-.1.8.5 1.5 1.3 1.7h.2c1 0 1.5-.6 1.5-1.7s-.5-1.6-1.5-1.6c-.8 0-1.5.6-1.5 1.4v.2zm14.1-.4v6.1h-2v-5.8c0-1.1-.4-1.4-1-1.4-.8.1-1.4.6-1.8 1.3v5.9h-2.1V64.9l2-.2v4.6c.6-.8 1.5-1.3 2.5-1.3 1.3-.1 2.4.9 2.4 2.2v.4zm7.1 5.7c-.6.4-1.3.7-2.1.7-1.7 0-2.6-1-2.6-2.8v-4.5h-1.3v-1.5h1.3v-1.9l2-.2v2.1h2l-.2 1.5h-1.7v4.4c0 .8.3 1.2.9 1.2.4 0 .7-.1 1-.3l.7 1.3z" class="st1"/></g><g id="a5aa1b63-5bd2-4389-81ed-966d048faa97_00000011012384151423154590000001717939535606092977_"><g id="b1839b9b-9fd0-4519-ba49-b37fc5dce2e2_00000121262934696855523590000009136739886577948837_"><path d="M50.1 341.6H0v-3h50.1v3zm38-14.4H0v-3h88.1v3zm0-14.4H0v-3h88.1v3zm0-14.4H0v-3h88.1v3zm0-14.4H0v-3h88.1v3zm0-14.5H0v-3h88.1v3zM3.4 245.8h4.4l-.2 1.7H1.3v-11.1h2.1v9.4zm12.4-1.8h-5.3c.2 1.7 1 2.3 2.1 2.3.8 0 1.5-.3 2.1-.8l.9 1.2c-.9.7-2 1.1-3.1 1.1-2.6 0-4-1.7-4-4.4s1.4-4.5 3.8-4.5 3.7 1.6 3.7 4.3c-.1.2-.2.5-.2.8zm-2-1.4c0-1.4-.5-2.2-1.6-2.2-1 0-1.6.6-1.7 2.3l3.3-.1zm6.2-4.4v.9h1.6l-.2 1.5H20v7h-2.1v-7h-1.3v-1.5h1.3v-.9c0-1.5 1-2.7 3-2.7.5 0 .9.1 1.4.2l-.4 1.5c-.3-.1-.5-.1-.8-.1-.8-.1-1.1.3-1.1 1.1zm8.1 8.9c-.6.4-1.4.7-2.1.6-1.7 0-2.5-1-2.5-2.8v-4.5h-1.3v-1.5h1.3V237l2-.2v2.1h2l-.2 1.5h-1.8v4.4c0 .8.3 1.2.9 1.2.4 0 .7-.1 1-.3l.7 1.4zm.1-5.4H33v1.6h-4.8v-1.6zm9.2 4.2c0 2.6-1.4 3.5-3.2 4.1l-.6-1.5c1.4-.6 1.7-1.3 1.7-2.6v-9.4h2.1v9.4zm9.2 1.6h-1.8l-.1-1.2c-.5.9-1.5 1.5-2.6 1.4-1.5 0-2.3-1-2.3-2.6V239h2v5.8c0 1 .3 1.3 1 1.3.8 0 1.4-.5 1.7-1.2V239h2l.1 8.5zm8.1-7.7l-.8 1.2c-.6-.4-1.4-.7-2.1-.7-.8 0-1.3.3-1.3.8s.3.8 1.8 1.2c1.7.5 2.7 1.2 2.7 2.7 0 1.8-1.6 2.7-3.6 2.7-1.2 0-2.4-.4-3.4-1.2l1-1.1c.7.5 1.5.8 2.3.8.9 0 1.5-.4 1.5-1s-.3-.9-1.9-1.4c-1.8-.5-2.5-1.3-2.5-2.6 0-1.4 1.3-2.5 3.3-2.5 1.1.1 2.1.5 3 1.1zm6.7 7.3c-.6.4-1.4.7-2.1.6-1.7 0-2.5-1-2.5-2.8v-4.5h-1.3v-1.5h1.3V237l2.1-.2v2.1h2l-.2 1.5h-1.8v4.4c0 .8.3 1.2.9 1.2.4 0 .7-.1 1-.3l.6 1.4zm3.5-11.1c0 .7-.5 1.3-1.2 1.3s-1.3-.5-1.3-1.2.5-1.3 1.2-1.3c.7-.1 1.2.4 1.3 1.2 0-.1 0-.1 0 0zm-.3 11.5h-2V239h2v8.5zm4.7-9.3v.9h2l-.2 1.5h-1.8v7h-2v-7h-1.5v-1.5h1.4v-.9c0-1.5 1-2.7 3-2.7.8 0 1.5.2 2.2.5l-.6 1.4c-.4-.2-.9-.3-1.4-.3-.8-.1-1.1.3-1.1 1.1z" class="st1"/><path d="M76.7 247.6c-.5 2-2.3 3.4-4.4 3.4l-.2-1.5c1.2 0 2.3-.8 2.7-2h-.7l-2.7-8.5h2.2l1.8 7.1 1.9-7.1h2.1l-2.7 8.6z" class="st1"/></g></g><g id="ade7f196-bb75-4440-8df9-77fbbb86f832"><path id="b3134d78-f3d9-425f-ba55-ae83e0bdd3a0" d="M47.1 217.9c1-1.7 2.2-3.4 3.7-4.7l4.9-4.2 4.4 4.9-16.3 14.3-16-14.5 3.9-4.4 4.9 4.4c1.5 1.2 2.7 2.7 3.7 4.4v-24.6h6.6l.2 24.4z" class="st1"/></g><g id="ade7f196-bb75-4440-8df9-77fbbb86f832_00000176002669851961313950000010862363193908654733_"><path id="b3134d78-f3d9-425f-ba55-ae83e0bdd3a0_00000011732398274524852020000015159844400216033956_" d="M47.1 24.4c1-1.7 2.2-3.4 3.7-4.7l4.9-4.2 4.4 4.9-16.2 14.3-16-14.5 3.9-4.4 4.9 4.4c1.5 1.2 2.7 2.7 3.7 4.4V0H47l.1 24.4z" class="st1"/></g><g class="st2"><path d="M45 182.4c0 2.7-1.5 4.5-4 4.5s-4-1.7-4-4.5c0-2.6 1.5-4.5 4-4.5 2.6 0 4 1.7 4 4.5zm-5.8 0c0 2 .6 2.9 1.8 2.9 1.2 0 1.8-.9 1.8-2.9s-.6-2.9-1.8-2.9c-1.1 0-1.8.9-1.8 2.9zm12.7-4.3l-.4 2c-.3-.1-.4-.1-.8-.1-1 0-1.5.8-1.9 2.2v4.5h-2v-8.4h1.8l.2 1.7c.4-1.2 1.2-1.9 2.2-1.9.4-.1.7-.1.9 0z" class="st1"/></g></svg>