<svg xmlns="http://www.w3.org/2000/svg" id="Layer_1" width="1440" height="706.7" viewBox="0 0 1440 706.7"><style>.st0{fill:#b3b3b3}.st1{fill:red}</style><path d="M227.9 605.3c0 24.3.8 57.8 2.3 72.2h-16.7c-2.3-9.9-3-33.4-3-69.9-15.2 47.9-38 78.3-92.7 78.3-73 0-98-67.6-98-142.1v-.8c0-123.1 60.8-173.3 148.2-173.3h41.8V232.1c0-35.7-7.6-95-74.5-95-76 0-78.3 68.4-78.3 113.2v7.6H38v-7.6c0-55.5 8.4-130 97.3-130 78.3.8 92.7 60.8 92.7 111.7v373.3zm-19-218.9h-43.3C65.3 386.4 37.9 460.1 37.9 543v.8c0 69.9 24.3 125.4 80.6 125.4 75.2 0 90.4-82.8 90.4-177.8v-105zM1321.5 467c0 101.1 5.3 201.4 7.6 210.5h-298.7c-3-18.2-6.8-41.8-8.4-55.5-43.3 49.4-107.2 70.7-201.4 70.7-130 0-223.4-66.9-223.4-185.4 0-134.5 113.2-198.4 335.2-198.4 44.8 0 57.8 0 82.1.8v-25.1c0-32.7-8.4-52.4-50.2-52.4-35.7 0-45.6 22-49.4 44.8H629.2c2.3-73 50.2-197.6 340.5-197.6 300.2 0 353.4 120.1 353.4 217.4V467h-1.6zM1013 431.3c-7.6 0-19.8-.8-42.6-.8-42.6 0-65.4 16.7-65.4 47.9 0 25.8 17.5 41.8 44.8 41.8 38 0 63.1-15.2 63.1-78.3l.1-10.6z" class="st0"/><path d="M1356.5 14l12.9 19.8c3.8 5.3 6.1 9.9 9.1 15.2h.8c3-5.3 6.1-10.6 9.1-15.2l12.9-19.8h18.2l-31.9 44.8 32.7 47.9h-19l-13.7-20.5c-3.8-5.3-6.8-10.6-9.9-16h-.8c-3 5.3-6.1 10.6-9.9 16l-13.7 20.5h-18.2l32.7-47.1-31.1-45.6h19.8z" class="st1"/></svg>