<svg xmlns="http://www.w3.org/2000/svg" viewBox="0 0 216.97 96.63" width="216.97" height="96.63"><defs><style>.cls-1{fill:#b3b3b3}</style></defs><g id="Layer_2"><path id="Layer_1-2" d="M202 94.56l-1.32-11.45h-.56c-5.07 7.14-14.84 13.52-27.79 13.52-18.4 0-27.79-12.95-27.79-26.1 0-22 19.53-34 54.64-33.8v-1.87c0-7.51-2.07-21-20.66-21a45.27 45.27 0 0 0-23.65 6.76L151.06 9.7c7.51-4.88 18.4-8.08 29.86-8.08 27.78 0 34.54 19 34.54 37.18v34A127.47 127.47 0 0 0 217 94.56zm-2.5-46.37C181.48 47.81 161 51 161 68.65c0 10.71 7.14 15.78 15.59 15.78a22.61 22.61 0 0 0 22-15.21 17.35 17.35 0 0 0 .91-5.22zM67.31 80.24c3.34 0 6.26-1.67 7.3-3.13.83-1 1.25-1.46 2.08-.83l2.09 1.66c.62.63 1 1.67-.21 3.75-1.67 3.13-5.63 10.22-16.26 10.22-7.5 0-12.92-5.42-14.79-14h-.42c-4.38 5.21-11.25 9.59-20.63 12.72-4 1.25-7.71 1.25-12.3 1.25-5 0-12.5-4.17-12.5-17.3C1.67 65 6 56.69 22.51 49.39c9.38-4.17 20.21-9.17 23.55-12.09V24c-.42-3.55-.63-9-2.92-11.67s-6.46-4.62-12.51-4.62c-4.16 0-10.62 1.67-13.54 4.38s-1 5.83-1 9.58c0 7.3-2.5 11.88-11 11.88-3.33 0-5-1.87-5-6.67C0 20.22 5.83 12.3 14.38 7.29 23.13 2.08 30.43 0 39.8 0c9.8 0 13.76 2.92 16.68 5.63 4.37 4.37 4.58 9.17 4.58 14.79v44.19c0 11.87 2.5 15.63 6.25 15.63zM45.85 43.56c-7.5 5.62-27.93 9.79-27.93 27.09 0 7.71 4.59 11.46 10.84 11.46 6 0 17.09-7.29 17.09-12.92z" class="cls-1"/></g></svg>