<svg xmlns="http://www.w3.org/2000/svg" id="Layer_1" width="1440" height="641.3" viewBox="0 0 1440 641.3"><style>.st0{fill:#b3b3b3}</style><path id="Layer_2_1_" d="M1330.7 623.2l-8.7-75.5h-3.7c-33.4 47.1-97.8 89.1-183.1 89.1-121.3 0-183.1-85.3-183.1-172 0-145 128.7-224.1 360.1-222.7v-12.3c0-49.5-13.6-138.4-136.1-138.4-55.1.2-109 15.6-155.9 44.5l-25.1-72c49.5-32.2 121.3-53.2 196.8-53.2 183.1 0 227.6 125.2 227.6 245v224.1c-.7 48 2.7 96 10.1 143.4h-98.9zm-16.5-305.6c-118.8-2.5-253.7 18.5-253.7 134.8 0 70.6 47.1 104 102.7 104 65 1.8 123.7-38.8 145-100.2 3.7-11.1 5.8-22.7 6-34.4V317.6zM443.1 528.8c22 0 41.3-11 48.1-20.6 5.5-6.6 8.2-9.6 13.7-5.5l13.8 10.9c4.1 4.2 6.6 11-1.4 24.7-11 20.6-37.1 67.3-107.2 67.3-49.4 0-85.1-35.7-97.5-92.3h-2.8c-28.9 34.3-74.1 63.2-136 83.8-26.4 8.2-50.8 8.2-81.1 8.2-33 0-82.4-27.5-82.4-114 0-63.1 28.5-117.9 137.3-166C209.7 298 281 265.1 303 245.8v-87.6c-2.8-23.4-4.2-59.3-19.2-76.9-15.1-17.6-42.6-30.4-82.4-30.4-27.4 0-70 11-89.2 28.9s-6.6 38.4-6.6 63.1c0 48.1-16.5 78.3-72.5 78.3-21.9 0-33-12.3-33-44C-.5 133.3 37.9 81.1 94.3 48 151.9 13.7 200 0 261.8 0c64.6 0 90.7 19.2 109.9 37.1 28.8 28.8 30.2 60.4 30.2 97.5v291.2c0 78.2 16.5 103 41.2 103zM301.7 287.1c-49.4 37-184.1 64.5-184.1 178.5 0 50.8 30.2 75.5 71.4 75.5 39.5 0 112.6-48 112.6-85.1V287.1z" class="st0"/></svg>