<svg xmlns="http://www.w3.org/2000/svg" viewBox="0 0 241.08 42.92" width="241.08" height="42.92"><defs><style>.bda77f04-63f5-47ff-ab9f-e28e0a96d19e{fill:#00aeef}.a2b38cab-5f25-4137-a21d-dfcaf91b3ddf,.b499eca4-881a-466f-8e0f-ebdd7bc85137,.fdfc3f1d-53cd-42eb-8239-83048094e1bd{fill:none;stroke-miterlimit:10;stroke-width:.5px}.a2b38cab-5f25-4137-a21d-dfcaf91b3ddf{stroke:#00aeef}.b499eca4-881a-466f-8e0f-ebdd7bc85137{stroke:#faa61a}.fdfc3f1d-53cd-42eb-8239-83048094e1bd{stroke:#ec008c}.b17692c6-1c53-47ba-83a0-9df5d7c7df72{fill:#010101}.b021be26-09fe-4eaa-9803-784cd945b01f{fill:#ec008c}.ff580187-929c-485c-a3e0-f8dfbb8ba97c{fill:#faa61a}</style></defs><g id="efa1845d-36d0-49fd-8c74-e566bb4bce4b"><g id="bfb5ded5-5cf6-4ae2-b6e8-0db1598ccf4f"><circle cx="178.2" cy="5.76" r="1.16" class="bda77f04-63f5-47ff-ab9f-e28e0a96d19e"/><circle cx="178.2" cy="41.76" r="1.16" class="bda77f04-63f5-47ff-ab9f-e28e0a96d19e"/><path d="M101.24 5.76h76.96m-76.96 36h76.96" class="a2b38cab-5f25-4137-a21d-dfcaf91b3ddf"/><path d="M5.93 23.36a2.15 2.15 0 0 1-1.83 2.16 2.16 2.16 0 0 1 2.12 2.27A2.9 2.9 0 0 1 3 30.66 3.5 3.5 0 0 1 .21 29.4l.79-.71a2.65 2.65 0 0 0 2 .92 1.73 1.73 0 0 0 1.89-1.83c0-1.29-.72-1.68-1.86-1.68h-.7l.16-1h.47a1.58 1.58 0 0 0 1.7-1.65A1.4 1.4 0 0 0 3.08 22a2.63 2.63 0 0 0-1.93.84l-.67-.77A3.77 3.77 0 0 1 3.15 21a2.48 2.48 0 0 1 2.78 2.36zm7.96 3.95a3.06 3.06 0 0 1-3 3.35c-2.29 0-3.15-1.87-3.15-4.56C7.76 23 9.09 21 11.3 21a3.31 3.31 0 0 1 1.93.58l-.5.85a2.82 2.82 0 0 0-1.44-.4C9.93 22 9.11 23.42 9 25.56a2.64 2.64 0 0 1 2.26-1.23c1.41 0 2.63.98 2.63 2.98zm-1.3.05c0-1.49-.63-2-1.51-2a2.43 2.43 0 0 0-2 1.29c0 2.05.6 3 1.85 3 1.07-.01 1.66-.92 1.66-2.29zm9.27-.56c0 2.24-1 3.86-2.9 3.86a2.38 2.38 0 0 1-1.96-.84v3.5l-1.28.16V23.11h1.1l.1 1a2.7 2.7 0 0 1 2.19-1.17c1.98 0 2.75 1.53 2.75 3.86zm-1.39 0c0-1.92-.56-2.83-1.67-2.83a2.26 2.26 0 0 0-1.8 1.15v3.6a1.92 1.92 0 0 0 1.63.89c1.2 0 1.84-.88 1.84-2.81zm7.24 3.36a2.85 2.85 0 0 1-1.65.5 1.85 1.85 0 0 1-2-2.1v-4.45h-1.28v-1h1.29v-1.66l1.28-.16v1.82h1.76l-.14 1h-1.62v4.39c0 .75.24 1.1.89 1.1a2 2 0 0 0 1-.3z" class="bda77f04-63f5-47ff-ab9f-e28e0a96d19e" transform="translate(-.21 -.58)"/><path d="M23.89 18.07V5.76h82.31m-82.31 26.3v9.7h82.31" class="a2b38cab-5f25-4137-a21d-dfcaf91b3ddf"/><path d="M34.25 20.89h75m-75 11.85h72" class="b499eca4-881a-466f-8e0f-ebdd7bc85137"/><path d="M34.25 10.53h75" class="fdfc3f1d-53cd-42eb-8239-83048094e1bd"/><path d="M44.21 32.56c2.42 0 2.85-.61 2.85-4.21V17c0-3.59-.43-4.21-2.85-4.21V12l5.4-.9v12.2a6.36 6.36 0 0 1 4.72-2.59c3.31 0 4.43 2.3 4.43 5.36v2.27c0 3.6.46 4.21 2.88 4.21v.76h-8v-.76c2.26 0 2.55-.5 2.55-4.21v-2.08c0-2.34-.83-3.85-2.7-3.85A3.94 3.94 0 0 0 49.61 26v2.34c0 3.74.29 4.21 2.27 4.21v.76h-7.67zm18.9 0c.72 0 1.7-.54 3.14-2.09l2.69-2.91-2.44-3.39c-1.26-1.72-2-2.12-3.17-2.12v-.72h7.27v.72c-2 0-2.27.43-1 2.12l1.18 1.62 1.48-1.62c1.37-1.51.65-2.12-.76-2.12v-.72h5.87v.72c-1 0-2 .61-3.45 2.12l-2.42 2.6 2.67 3.7c1.15 1.62 2 2.09 3.42 2.09v.76H70v-.76c1.94 0 2.05-.72 1.08-2.09l-1.4-1.94-1.78 1.94c-1.37 1.51-1 2.09.76 2.09v.76h-5.55zm15.89 9c2.42 0 2.85-.58 2.85-4.18V26.55c0-3.6-.43-4.18-2.85-4.18v-.75l4.83-.9a14.31 14.31 0 0 1 .54 2.19 5.61 5.61 0 0 1 4.46-2.19A6.43 6.43 0 0 1 95 27.3a6.47 6.47 0 0 1-6.23 6.63 5.64 5.64 0 0 1-4.43-2.16v5.61c0 3.6.47 4.18 2.85 4.18v.76H79zM92.09 27.3c0-2.87-1.29-5.14-4.07-5.14A4.1 4.1 0 0 0 84.35 25v4.64A4.07 4.07 0 0 0 88 32.49c2.8 0 4.09-2.31 4.09-5.19z" class="b17692c6-1c53-47ba-83a0-9df5d7c7df72" transform="translate(-.21 -.58)"/><path d="M101.24 17.47h77.01m-77.01 15.27h77.01" class="b499eca4-881a-466f-8e0f-ebdd7bc85137"/><path d="M106.25 7.14h72" class="fdfc3f1d-53cd-42eb-8239-83048094e1bd"/><circle cx="178.2" cy="7.14" r="1.16" class="b021be26-09fe-4eaa-9803-784cd945b01f"/><circle cx="178.2" cy="17.47" r="1.16" class="ff580187-929c-485c-a3e0-f8dfbb8ba97c"/><circle cx="178.2" cy="32.74" r="1.16" class="ff580187-929c-485c-a3e0-f8dfbb8ba97c"/><path d="M196.12 24.68h-1l-1.17-2-1.17 2h-.94l1.66-2.51-1.5-2.24h1l1 1.74 1-1.74h.94l-1.46 2.21zm.26-3.17h2.55v.7h-2.55zm7.53-.24v3.41h-.83v-3.29c0-.71-.31-.92-.76-.92a1.45 1.45 0 0 0-1.19.83v3.38h-.83V18l.83-.09v2.65a1.7 1.7 0 0 1 1.4-.77 1.31 1.31 0 0 1 1.38 1.48zm5.19 1.32h-3c.08 1.1.59 1.52 1.27 1.52a2 2 0 0 0 1.24-.42l.36.5a2.59 2.59 0 0 1-1.66.59c-1.32 0-2.1-.92-2.1-2.43s.75-2.53 2-2.53 2 .89 2 2.34c-.09.17-.1.32-.11.43zm-.8-.67c0-.93-.37-1.44-1.12-1.44s-1 .44-1.1 1.5h2.22zm3.1-3.7a.59.59 0 1 1-.59-.57.56.56 0 0 1 .59.57zm-.17 6.46h-.82v-4.75h.82zm5.51-4.53a4.77 4.77 0 0 1-1.38.14 1.24 1.24 0 0 1 .83 1.2 1.61 1.61 0 0 1-1.81 1.61 2 2 0 0 1-.6-.09.58.58 0 0 0-.23.44c0 .22.13.39.62.39h.76c1 0 1.62.56 1.62 1.31 0 .92-.76 1.44-2.23 1.44s-2-.47-2-1.44h.68c0 .54.25.8 1.29.8s1.39-.27 1.39-.74-.36-.68-1-.68H214c-.85 0-1.23-.42-1.23-.9a1.05 1.05 0 0 1 .52-.84 1.36 1.36 0 0 1-.8-1.31 1.7 1.7 0 0 1 1.83-1.66 4.08 4.08 0 0 0 2.17-.42zm-3.39 1.33a1 1 0 0 0 1 1.07c.65 0 1-.39 1-1.08a.92.92 0 0 0-1-1 1 1 0 0 0-1 1.01zm7.83-.21v3.41h-.83v-3.29c0-.71-.3-.92-.75-.92a1.45 1.45 0 0 0-1.2.83v3.38h-.83V18l.83-.09v2.65a1.7 1.7 0 0 1 1.4-.77 1.31 1.31 0 0 1 1.38 1.48zm4.02 3.19a1.75 1.75 0 0 1-1.06.32 1.19 1.19 0 0 1-1.28-1.35v-2.86H222v-.64h.83v-1.07l.83-.1v1.17h1.13l-.09.64h-1v2.83c0 .48.15.7.57.7a1.29 1.29 0 0 0 .63-.19z" class="ff580187-929c-485c-a3e0-f8dfbb8ba97c" transform="translate(-.21 -.58)"/><path d="M196.74 38.68c0 1.42-1 2-2.41 2h-.78V43h-.86v-6.2h1.63c1.5-.04 2.42.57 2.42 1.88zm-.91 0c0-.93-.6-1.26-1.52-1.26h-.76V40h.75c.92 0 1.53-.26 1.53-1.31zm5.67 1.91c0 1.47-.78 2.48-2.12 2.48s-2.11-1-2.11-2.47.77-2.49 2.12-2.49 2.11.97 2.11 2.48zm-3.34 0c0 1.23.43 1.81 1.22 1.81s1.23-.58 1.23-1.82-.44-1.81-1.22-1.81-1.23.58-1.23 1.83zm5.67-4.08a.55.55 0 0 1-.59.56.54.54 0 0 1-.57-.56.55.55 0 0 1 .57-.57.56.56 0 0 1 .59.57zm-.16 6.49h-.83v-4.78h.83zm5.26-3.44V43h-.83v-3.32c0-.71-.29-.92-.74-.92a1.41 1.41 0 0 0-1.21.84V43h-.83v-4.78h.68l.07.7a1.75 1.75 0 0 1 1.45-.81 1.3 1.3 0 0 1 1.41 1.45zm4.07 3.19a1.82 1.82 0 0 1-1.06.32 1.19 1.19 0 0 1-1.28-1.35v-2.86h-.83v-.64h.83v-1.07l.83-.1v1.17h1.13l-.09.64h-1v2.83c0 .47.15.7.57.7a1.26 1.26 0 0 0 .63-.19zm6.69-5.38l-.47.53a2.13 2.13 0 0 0-1.42-.54c-.62 0-1.11.28-1.11.88s.24.77 1.36 1.11 1.83.7 1.83 1.89-.82 1.83-2.21 1.83a2.9 2.9 0 0 1-2.11-.8l.47-.52a2.44 2.44 0 0 0 1.63.62c.73 0 1.33-.36 1.33-1.11s-.29-.87-1.34-1.19c-1.21-.37-1.84-.83-1.84-1.8a1.74 1.74 0 0 1 2-1.62 2.68 2.68 0 0 1 1.88.72zm2.37-.86a.58.58 0 0 1-1.16 0 .58.58 0 0 1 1.16 0zM221.9 43h-.83v-4.78h.83zm4.46-4.15l-2.47 3.42h2.5l-.1.69H223v-.62l2.47-3.42h-2.26v-.7h3.2zm4.64 2.03h-3c.08 1.09.59 1.52 1.27 1.52a2 2 0 0 0 1.24-.42l.36.5a2.59 2.59 0 0 1-1.66.59c-1.32 0-2.1-.92-2.1-2.43s.75-2.53 2-2.53 2 .89 2 2.34c-.11.17-.11.32-.11.43zm-.8-.67c0-.93-.37-1.44-1.12-1.44s-1 .44-1.1 1.49h2.22z" class="bda77f04-63f5-47ff-ab9f-e28e0a96d19e" transform="translate(-.21 -.58)"/><path d="M196.86 5.84c0 1.31-1 1.76-2.46 1.76h-1.71V1.4h1.47c1.53 0 2.43.48 2.43 1.56a1.38 1.38 0 0 1-1.16 1.36c.72.13 1.43.46 1.43 1.52zm-3.31-3.77V4h.94c.69 0 1.23-.35 1.23-1s-.55-1-1.47-1zM196 5.84c0-.88-.65-1.16-1.39-1.16h-1v2.24h.85c.85 0 1.54-.18 1.54-1.08zm6-.62c0 1.47-.77 2.49-2.11 2.49s-2.12-1-2.12-2.48.77-2.48 2.12-2.48 2.11.97 2.11 2.47zm-3.34 0c0 1.24.43 1.81 1.23 1.81s1.22-.57 1.22-1.82-.43-1.81-1.22-1.81-1.22.6-1.22 1.83zM207 1v6.6h-.73l-.09-.66a1.57 1.57 0 0 1-1.36.77c-1.16 0-1.79-1-1.79-2.46s.7-2.5 1.86-2.5a1.72 1.72 0 0 1 1.28.58V.85zm-.83 5.4V4a1.36 1.36 0 0 0-1.1-.62c-.71 0-1.15.59-1.15 1.82s.39 1.82 1.08 1.82a1.37 1.37 0 0 0 1.18-.67zm4.42 1.23a2.43 2.43 0 0 1-2.21 1.89l-.09-.65a1.61 1.61 0 0 0 1.5-1.27h-.27l-1.6-4.74h.88L210.07 7l1.25-4.14h.85zM219 4.69h-2.6V7.6h-.85V1.4h.85V4h2.6V1.4h.86v6.2H219zm6.18.82h-3c.08 1.1.59 1.52 1.28 1.52a2 2 0 0 0 1.23-.41l.36.49a2.59 2.59 0 0 1-1.66.6c-1.32 0-2.09-.93-2.09-2.43s.74-2.53 2-2.53 1.95.89 1.95 2.34c-.05.16-.06.31-.07.42zm-.8-.66c0-.93-.37-1.44-1.11-1.44s-1.05.44-1.11 1.49h2.22zm3.1-3.7a.55.55 0 0 1-.59.55.54.54 0 0 1-.57-.55.55.55 0 0 1 .57-.57.56.56 0 0 1 .59.57zm-.16 6.45h-.83V2.86h.83zm5.51-4.53a4.52 4.52 0 0 1-1.39.15 1.24 1.24 0 0 1 .84 1.19A1.61 1.61 0 0 1 230.47 6a2 2 0 0 1-.61-.08.57.57 0 0 0-.23.44c0 .21.13.38.62.38h.75c1 0 1.62.56 1.62 1.32 0 .92-.76 1.44-2.23 1.44s-2-.48-2-1.44h.75c0 .54.24.79 1.28.79s1.39-.26 1.39-.74-.36-.67-.95-.67h-.75c-.85 0-1.23-.43-1.23-.9a1 1 0 0 1 .53-.84 1.36 1.36 0 0 1-.8-1.32 1.68 1.68 0 0 1 1.82-1.65 4.18 4.18 0 0 0 2.17-.42zm-3.4 1.33a1 1 0 0 0 1 1.08.94.94 0 0 0 1-1.08.92.92 0 0 0-1-1.06 1 1 0 0 0-1 1.06zm7.83-.2v3.4h-.82V4.31c0-.71-.31-.91-.76-.91a1.47 1.47 0 0 0-1.2.82V7.6h-.83V1l.83-.09v2.6a1.72 1.72 0 0 1 1.41-.76 1.3 1.3 0 0 1 1.37 1.45zm4.03 3.18a1.81 1.81 0 0 1-1.07.33 1.19 1.19 0 0 1-1.28-1.35V3.5h-.82v-.64h.82V1.78l.83-.09v1.17h1.13l-.09.64h-1v2.82c0 .48.16.7.57.7a1.32 1.32 0 0 0 .63-.18z" class="b021be26-09fe-4eaa-9803-784cd945b01f" transform="translate(-.21 -.58)"/><path d="M127.3 33.48v-1c2.09-.22 2.38-.4 2.38-2.77V23.8c0-3-1.16-4.5-3.57-4.46a5.13 5.13 0 0 0-3.81 1.87v8.5c0 2.33.29 2.55 2.45 2.77v1h-7.85v-1c2.09-.18 2.55-.36 2.55-2.77V12.36c0-1.91-.1-2.38-2.52-2.6v-.93a22.07 22.07 0 0 0 5.37-1.23v12.28c1.29-1.3 3.27-2.63 5.22-2.63 3 0 5 1.84 5 6.16v6.33c0 2.38.29 2.56 2.38 2.74v1zm17.14 0v-1c1.55-.18 1.87-.44 1.26-1.41l-2.7-4.21c-.79 1.3-1.59 2.56-2.31 3.82s-.61 1.54 1.26 1.8v1h-6.8v-1c2.27-.29 2.74-.54 4.07-2.31 1-1.4 1.94-2.8 3-4.42l-3.09-4.86c-1.08-1.73-1.52-2-3.53-2.24v-1h7.23v1c-1.51.22-1.65.51-1 1.55l2.17 3.28c.68-1.05 1.4-2.27 2.05-3.35s.39-1.3-1.15-1.48v-1h6.55v1c-2 .22-2.7.36-4.14 2.24-.51.68-1.37 1.87-2.56 3.67l3.46 5.32c1.36 2 1.76 2.31 4 2.6v1zm8.42-15.04a23.41 23.41 0 0 0 5.22-1.55v2.88c.11-.07 3-1.73 3.13-1.8a5.08 5.08 0 0 1 2.09-.72c4 0 6.37 3.31 6.37 6.88 0 5.47-4.32 8.92-9 9.79a6 6 0 0 1-2.56-.65v4.86c0 2.66.29 2.88 3.06 3.13v1h-8.53v-1c2.34-.25 2.63-.43 2.63-2.84V22c0-2.16-.07-2.31-2.38-2.63zm5.22 12.31a5.2 5.2 0 0 0 3.42 1.4c3.13 0 5.15-2.63 5.15-6.66 0-3.88-2.27-6.08-4.82-6.08a7.22 7.22 0 0 0-3.75 1.59z" class="b17692c6-1c53-47ba-83a0-9df5d7c7df72" transform="translate(-.21 -.58)"/></g></g></svg>