<svg xmlns="http://www.w3.org/2000/svg" id="Layer_1" viewBox="0 0 241.1 42.9" width="241.1" height="42.9"><style>.st0{fill:#00aeef}.st1{stroke:#00aeef}.st1,.st2,.st3{fill:none;stroke-width:.5;stroke-miterlimit:10}.st2{stroke:#faa61a}.st3{stroke:#ec008c}.st4{fill:#ec008c}.st5{fill:#faa61a}.st6{fill:#010101}.st7{fill:#797979}</style><g id="efa1845d-36d0-49fd-8c74-e566bb4bce4b"><g id="bfb5ded5-5cf6-4ae2-b6e8-0db1598ccf4f"><circle cx="178.2" cy="5.8" r="1.2" class="st0"/><circle cx="178.2" cy="41.8" r="1.2" class="st0"/><path d="M101.2 5.8h77m-77 36h77" class="st1"/><path d="M5.7 22.8c0 1.1-.8 2-1.8 2.2C5.1 25 6 26 6 27.2v.1c0 1.6-1.3 2.9-2.9 2.9h-.3c-1.1 0-2.1-.4-2.8-1.3l.8-.7c.5.5 1.2.8 2 .8 1 .1 1.8-.6 1.9-1.6v-.3c0-1.3-.7-1.7-1.9-1.7h-.7l.2-1h.5c.9.1 1.6-.6 1.7-1.5v-.2c0-.8-.6-1.4-1.3-1.5H3c-.7 0-1.4.3-1.9.8l-.7-.8c.7-.7 1.7-1.1 2.7-1.1 1.4-.2 2.6.8 2.8 2.2-.2.3-.2.4-.2.5zm8 3.9c.2 1.7-1.1 3.2-2.8 3.3h-.2c-2.3 0-3.2-1.9-3.2-4.6 0-3.1 1.4-5.1 3.6-5.1.7 0 1.4.2 1.9.6l-.5.9c-.4-.3-.9-.4-1.4-.4-1.4 0-2.2 1.4-2.3 3.5.5-.8 1.3-1.2 2.3-1.2 1.4.1 2.6 1 2.6 3zm-1.3.1c0-1.5-.6-2-1.5-2-.8.1-1.6.5-2 1.3 0 2 .6 3 1.9 3 1 0 1.6-.9 1.6-2.3zm9.3-.6c0 2.2-1 3.9-2.9 3.9-.7 0-1.5-.3-2-.8v3.5l-1.3.2V22.5h1.1l.1 1c.5-.7 1.3-1.2 2.2-1.2 2 .1 2.8 1.6 2.8 3.9zm-1.4 0c0-1.9-.6-2.8-1.7-2.8-.8.1-1.4.5-1.8 1.1v3.6c.4.6 1 .9 1.6.9 1.2 0 1.9-.8 1.9-2.8zm7.2 3.4c-.5.3-1.1.5-1.6.5-1 .1-1.9-.7-2-1.7v-4.9h-1.3v-1h1.3v-1.7l1.3-.2v1.8H27l-.1 1h-1.6v4.4c0 .8.2 1.1.9 1.1.4 0 .7-.1 1-.3l.3 1z" class="st0"/><path d="M23.9 18.1V5.8h82.3M23.9 32.1v9.7h82.3" class="st1"/><path d="M34.2 20.9h75m-75 11.8h72" class="st2"/><path d="M34.2 10.5h75" class="st3"/><path d="M101.2 17.5h77m-77 15.2h77" class="st2"/><path d="M106.2 7.1h72m-144 34.7h141.3" class="st3"/><circle cx="178.2" cy="7.1" r="1.2" class="st4"/><circle cx="178.2" cy="17.5" r="1.2" class="st5"/><circle cx="178.2" cy="32.7" r="1.2" class="st5"/><path d="M195.9 24.1h-1l-1.2-2-1.2 2h-.9l1.7-2.5-1.5-2.2h1l1 1.7 1-1.7h.9l-1.5 2.2 1.7 2.5zm.3-3.2h2.6v.7h-2.6v-.7zm7.5-.2v3.4h-.8v-3.3c0-.7-.3-.9-.8-.9s-1 .4-1.2.8v3.4h-.8v-6.7l.8-.1V20c.3-.5.8-.8 1.4-.8.7 0 1.3.5 1.4 1.2v.3zm5.2 1.3h-3c.1 1.1.6 1.5 1.3 1.5.4 0 .9-.1 1.2-.4l.4.5c-.5.4-1.1.6-1.7.6-1.3 0-2.1-.9-2.1-2.4s.8-2.5 2-2.5 2 .9 2 2.3c-.1.2-.1.3-.1.4zm-.8-.7c0-.9-.4-1.4-1.1-1.4s-1 .4-1.1 1.5l2.2-.1zm3.1-3.7c0 .3-.2.6-.6.6-.3 0-.6-.2-.6-.6s.2-.6.6-.6c.3.1.6.3.6.6zm-.2 6.5h-.8v-4.8h.8v4.8zm5.5-4.5c-.5.1-.9.2-1.4.1.5.2.8.7.8 1.2 0 .9-.7 1.6-1.6 1.6h-.2c-.2 0-.4 0-.6-.1-.1.1-.2.3-.2.4 0 .2.1.4.6.4h.8c1 0 1.6.6 1.6 1.3 0 .9-.8 1.4-2.2 1.4s-2-.5-2-1.4h.7c0 .5.2.8 1.3.8s1.4-.3 1.4-.7-.4-.7-1-.7h-.7c-.9 0-1.2-.4-1.2-.9 0-.3.2-.7.5-.8-.5-.2-.8-.8-.8-1.3 0-.9.8-1.7 1.7-1.7h.1c.7.1 1.5-.1 2.2-.4l.2.8zm-3.4 1.3c0 .6.4 1 .9 1.1h.1c.6 0 1-.4 1-1.1 0-.5-.3-1-.8-1h-.2c-.5 0-1 .4-1 1zm7.9-.2v3.4h-.8v-3.3c0-.7-.3-.9-.8-.9s-1 .4-1.2.8v3.4h-.8v-6.7l.8-.1V20c.3-.5.8-.8 1.4-.8.7 0 1.3.5 1.4 1.2v.3zm4 3.2c-.3.2-.7.3-1.1.3-.7.1-1.2-.4-1.3-1.1V20h-.9v-.6h.8v-1.1l.8-.1v1.2h1.1l-.1.6h-1v2.8c0 .5.1.7.6.7.2 0 .4-.1.6-.2l.5.6z" class="st5"/><path d="M196.5 38.1c0 1.4-1 2-2.4 2h-.8v2.3h-.9v-6.2h1.6c1.6 0 2.5.6 2.5 1.9zm-.9 0c0-.9-.6-1.3-1.5-1.3h-.8v2.6h.8c.9 0 1.5-.2 1.5-1.3zm5.7 1.9c0 1.5-.8 2.5-2.1 2.5s-2.1-1-2.1-2.5.8-2.5 2.1-2.5 2.1 1 2.1 2.5zm-3.4 0c0 1.2.4 1.8 1.2 1.8s1.2-.6 1.2-1.8-.4-1.8-1.2-1.8-1.2.6-1.2 1.8zm5.7-4.1c0 .3-.2.6-.5.6h-.1c-.3 0-.6-.2-.6-.5v-.1c0-.3.2-.6.5-.6.4 0 .7.3.7.6zm-.1 6.5h-.8v-4.8h.8v4.8zm5.2-3.4v3.4h-.8v-3.3c0-.7-.3-.9-.7-.9-.5 0-1 .4-1.2.8v3.4h-.8v-4.8h.7l.1.7c.3-.5.9-.8 1.4-.8.7-.1 1.3.5 1.4 1.2-.1.1-.1.2-.1.3zm4.1 3.2c-.3.2-.7.3-1.1.3-.7.1-1.2-.4-1.3-1.1v-3.2h-.8v-.6h.8v-1.1l.8-.1v1.2h1.1l-.1.6h-1V41c0 .5.1.7.6.7.2 0 .4-.1.6-.2l.4.7zm6.7-5.4l-.5.5c-.4-.3-.9-.5-1.4-.5-.6 0-1.1.3-1.1.9s.2.8 1.4 1.1 1.8.7 1.8 1.9-.8 1.8-2.2 1.8c-.8 0-1.5-.3-2.1-.8l.5-.5c.4.4 1 .6 1.6.6.7 0 1.3-.4 1.3-1.1s-.3-.9-1.3-1.2c-1.2-.4-1.8-.8-1.8-1.8.1-1 .9-1.7 1.8-1.6h.2c.6 0 1.3.2 1.8.7zm2.3-.9c0 .3-.3.6-.6.6s-.6-.3-.6-.6.3-.6.6-.6.6.3.6.6zm-.1 6.5h-.8v-4.8h.8v4.8zm4.4-4.1l-2.5 3.4h2.5l-.1.7h-3.3v-.6l2.5-3.4H223v-.7h3.2l-.1.6zm4.7 2h-3c.1 1.1.6 1.5 1.3 1.5.4 0 .9-.1 1.2-.4l.4.5c-.5.4-1.1.6-1.7.6-1.3 0-2.1-.9-2.1-2.4s.8-2.5 2-2.5 2 .9 2 2.3c-.1.1-.1.3-.1.4zm-.8-.7c0-.9-.4-1.4-1.1-1.4s-1 .4-1.1 1.5l2.2-.1z" class="st0"/><path d="M196.6 5.3c0 1.3-1 1.8-2.5 1.8h-1.7V.8h1.5c1.5 0 2.4.5 2.4 1.6 0 .7-.5 1.3-1.2 1.4.8.1 1.5.4 1.5 1.5zm-3.3-3.8v1.9h.9c.7 0 1.2-.3 1.2-1s-.6-1-1.5-1l-.6.1zm2.5 3.8c0-.9-.6-1.2-1.4-1.2h-1v2.2h.9c.8 0 1.5-.1 1.5-1zm6-.7c0 1.5-.8 2.5-2.1 2.5s-2.1-1-2.1-2.5.8-2.5 2.1-2.5 2.1 1 2.1 2.5zm-3.4 0c0 1.2.4 1.8 1.2 1.8s1.2-.6 1.2-1.8-.4-1.8-1.2-1.8-1.1.6-1.2 1.8zm8.4-4.2V7h-.7l-.1-.6c-.3.5-.8.8-1.4.8-1.2 0-1.8-1-1.8-2.5s.7-2.5 1.9-2.5c.5 0 1 .2 1.3.6V.3l.8.1zm-.8 5.4V3.4c-.2-.4-.7-.6-1.1-.6-.7 0-1.1.6-1.1 1.8s.4 1.8 1.1 1.8c.4 0 .8-.2 1.1-.6zm4.4 1.3c-.2 1-1.1 1.8-2.2 1.9l-.1-.6c.7 0 1.3-.6 1.5-1.3h-.3l-1.6-4.7h.9l1.3 4.1 1.2-4.1h.9l-1.6 4.7zm8.4-3h-2.6V7h-.9V.8h.9v2.6h2.6V.8h.9V7h-.9V4.1zm6.2.8h-3c.1 1.1.6 1.5 1.3 1.5.4 0 .9-.1 1.2-.4l.4.5c-.5.4-1.1.6-1.7.6-1.3 0-2.1-.9-2.1-2.4s.7-2.5 2-2.5 1.9.9 1.9 2.3v.4zm-.8-.6c0-.9-.4-1.4-1.1-1.4s-1.1.4-1.1 1.5l2.2-.1zm3.1-3.7c0 .3-.2.6-.5.6s-.6-.2-.6-.5.2-.6.5-.6c.3-.1.6.1.6.5 0-.1 0 0 0 0zm-.2 6.4h-.8V2.3h.8V7zm5.5-4.5c-.5.1-.9.2-1.4.2.5.2.8.7.8 1.2 0 .9-.7 1.6-1.6 1.6h-.2c-.2 0-.4 0-.6-.1-.1.1-.2.3-.2.4 0 .2.1.4.6.4h.8c1 0 1.6.6 1.6 1.3 0 .9-.8 1.4-2.2 1.4s-2-.5-2-1.4h.8c0 .5.2.8 1.3.8s1.4-.3 1.4-.7-.4-.7-.9-.7h-.8c-.9 0-1.2-.4-1.2-.9 0-.4.2-.7.5-.8-.5-.2-.8-.8-.8-1.3 0-.9.8-1.7 1.7-1.7h.1c.7.1 1.5-.1 2.2-.4l.1.7zm-3.4 1.3c0 .6.4 1 .9 1.1h.1c.5 0 1-.3 1-.9v-.2c.1-.5-.3-1-.8-1.1h-.2c-.5.1-1 .5-1 1.1zm7.8-.2V7h-.8V3.7c0-.7-.3-.9-.8-.9s-1 .4-1.2.8V7h-.8V.4l.8-.1v2.6c.3-.5.8-.8 1.4-.8.7 0 1.3.5 1.4 1.2.1.2.1.2 0 .3zm4.1 3.2c-.3.2-.7.3-1.1.3-.7.1-1.2-.4-1.3-1.1V2.9h-.8v-.6h.8V1.2l.8-.1v1.2h1.1l-.1.6h-1v2.8c0 .5.2.7.6.7.2 0 .4-.1.6-.2l.4.6z" class="st4"/><path d="M44 32c2.4 0 2.8-.6 2.8-4.2V16.4c0-3.6-.4-4.2-2.8-4.2v-.8l5.4-.9v12.2c1.1-1.5 2.8-2.5 4.7-2.6 3.3 0 4.4 2.3 4.4 5.4v2.3c0 3.6.5 4.2 2.9 4.2v.8h-8V32c2.3 0 2.5-.5 2.5-4.2v-2.1c0-2.3-.8-3.9-2.7-3.9-2 0-3.7 1.6-3.9 3.6v2.3c0 3.7.3 4.2 2.3 4.2v.8H44V32zm18.9 0c.7 0 1.7-.5 3.1-2.1l2.7-2.9-2.4-3.4c-1.3-1.7-2-2.1-3.2-2.1v-.7h7.3v.7c-2 0-2.3.4-1 2.1l1.2 1.6 1.5-1.6c1.4-1.5.7-2.1-.8-2.1v-.7h5.9v.7c-1 0-2 .6-3.4 2.1l-2.4 2.6 2.7 3.7c1.2 1.6 2 2.1 3.4 2.1v.8h-7.6V32c1.9 0 2.1-.7 1.1-2.1L69.5 28l-1.8 1.9c-1.4 1.5-1 2.1.8 2.1v.8H63l-.1-.8zm15.9 9c2.4 0 2.8-.6 2.8-4.2V26c0-3.6-.4-4.2-2.8-4.2V21l4.8-.9c.2.7.4 1.4.5 2.2 1.1-1.4 2.7-2.2 4.5-2.2 3.5.1 6.3 3.1 6.2 6.6.1 3.5-2.7 6.5-6.2 6.6-1.7 0-3.4-.8-4.4-2.2v5.6c0 3.6.5 4.2 2.8 4.2v.8h-8.2V41zm13.1-14.3c0-2.9-1.3-5.1-4.1-5.1-1.7.1-3.2 1.2-3.7 2.8V29c.5 1.6 2 2.8 3.7 2.9 2.8 0 4.1-2.3 4.1-5.2zm35.2 6.2v-1c2.1-.2 2.4-.4 2.4-2.8v-5.9c0-3-1.2-4.5-3.6-4.5-1.5 0-2.9.7-3.8 1.9v8.5c0 2.3.3 2.6 2.4 2.8v1h-7.8v-1c2.1-.2 2.6-.4 2.6-2.8V11.8c0-1.9-.1-2.4-2.5-2.6v-1c1.8-.2 3.6-.6 5.4-1.2v12.3c1.3-1.3 3.3-2.6 5.2-2.6 3 0 5 1.8 5 6.2v6.3c0 2.4.3 2.6 2.4 2.7v1h-7.7zm17.1 0v-1c1.6-.2 1.9-.4 1.3-1.4l-2.7-4.2c-.8 1.3-1.6 2.6-2.3 3.8s-.6 1.5 1.3 1.8v1H135v-1c2.3-.3 2.7-.5 4.1-2.3 1-1.4 1.9-2.8 3-4.4l-3.1-4.9c-1.1-1.7-1.5-2-3.5-2.2v-1h7.2v1c-1.5.2-1.6.5-1 1.5l2.2 3.3c.7-1 1.4-2.3 2.1-3.4s.4-1.3-1.1-1.5v-1h6.6v1c-2 .2-2.7.4-4.1 2.2-.5.7-1.4 1.9-2.6 3.7l3.5 5.3c1.4 2 1.8 2.3 4 2.6v1h-8.1zm8.4-15c1.8-.3 3.5-.8 5.2-1.5v2.9c.1-.1 3-1.7 3.1-1.8.6-.4 1.3-.6 2.1-.7 4 0 6.4 3.3 6.4 6.9 0 5.5-4.3 8.9-9 9.8-.9 0-1.8-.2-2.6-.7v4.9c0 2.7.3 2.9 3.1 3.1v1h-8.5v-1c2.3-.2 2.6-.4 2.6-2.8V21.4c0-2.2-.1-2.3-2.4-2.6v-.9zm5.3 12.3c.9.9 2.1 1.4 3.4 1.4 3.1 0 5.1-2.6 5.1-6.7 0-3.9-2.3-6.1-4.8-6.1-1.4.2-2.7.7-3.8 1.6l.1 9.8z" class="st6"/></g></g><path d="M47.5 7.2h.8l-1.1-1.1-1.1 1.1h.8v1.9h-.8l1.1 1.1 1.1-1.1h-.8z" class="st7"/></svg>