<svg xmlns="http://www.w3.org/2000/svg" viewBox="0 0 680.54 397.28"><defs><style>.a2dc00b6-c20c-479c-9392-51102ec84a2f{fill:#e6e6e6;}.a65ac20c-9d73-485a-a13b-e34e61732588,.afe3a7f6-67e2-426b-a9f5-a2935b7061a8,.bd9de88d-26ed-4a40-885b-30e6b8630966{fill:none;stroke-miterlimit:10;}.afe3a7f6-67e2-426b-a9f5-a2935b7061a8{stroke:#000;stroke-width:0.5px;}.a65ac20c-9d73-485a-a13b-e34e61732588{stroke:#b3b3b3;}.a65ac20c-9d73-485a-a13b-e34e61732588,.bd9de88d-26ed-4a40-885b-30e6b8630966{stroke-width:0.71px;}.bd9de88d-26ed-4a40-885b-30e6b8630966{stroke:#ffb400;}.a82a3545-31fd-41f2-9812-c234ec864a4d{fill:#ffb400;}</style></defs><g id="f825ca0d-bbfb-4e92-901f-7e919697cc94" data-name="Layer 2"><g id="a5b5c96c-c433-44e1-ac37-10739e86265f" data-name="Layer 1"><rect class="a2dc00b6-c20c-479c-9392-51102ec84a2f" x="75.72" y="44.29" width="226.77" height="264.64"/><rect class="a2dc00b6-c20c-479c-9392-51102ec84a2f" x="378.05" y="44.38" width="226.6" height="264.44"/><rect class="afe3a7f6-67e2-426b-a9f5-a2935b7061a8" x="0.27" y="0.31" width="340" height="396.67"/><rect class="afe3a7f6-67e2-426b-a9f5-a2935b7061a8" x="340.27" y="0.31" width="340" height="396.67"/><line class="a65ac20c-9d73-485a-a13b-e34e61732588" x1="0.27" y1="0.31" x2="680.27" y2="396.97"/><line class="a65ac20c-9d73-485a-a13b-e34e61732588" x1="680.27" y1="0.31" x2="0.27" y2="396.97"/><line class="a65ac20c-9d73-485a-a13b-e34e61732588" x1="0.27" y1="396.97" x2="340.27" y2="0.31"/><line class="a65ac20c-9d73-485a-a13b-e34e61732588" x1="680.27" y1="396.97" x2="340.27" y2="0.31"/><line class="bd9de88d-26ed-4a40-885b-30e6b8630966" x1="226.94" y1="132.53" x2="226.94" y2="0.31"/><line class="bd9de88d-26ed-4a40-885b-30e6b8630966" x1="453.6" y1="132.53" x2="453.6" y2="0.31"/><line class="bd9de88d-26ed-4a40-885b-30e6b8630966" x1="226.94" y1="0.31" x2="453.6" y2="132.53"/><line class="bd9de88d-26ed-4a40-885b-30e6b8630966" x1="453.6" y1="0.31" x2="226.94" y2="132.53"/><circle class="a82a3545-31fd-41f2-9812-c234ec864a4d" cx="604.64" cy="44.38" r="2.59"/><circle class="a82a3545-31fd-41f2-9812-c234ec864a4d" cx="75.72" cy="44.29" r="2.59"/><circle class="a82a3545-31fd-41f2-9812-c234ec864a4d" cx="604.64" cy="308.82" r="2.59"/><circle class="a82a3545-31fd-41f2-9812-c234ec864a4d" cx="75.72" cy="308.94" r="2.59"/><circle class="a82a3545-31fd-41f2-9812-c234ec864a4d" cx="378.05" cy="44.38" r="2.59"/><circle class="a82a3545-31fd-41f2-9812-c234ec864a4d" cx="302.49" cy="44.29" r="2.59"/></g></g></svg>