<svg xmlns="http://www.w3.org/2000/svg" id="Layer_1" viewBox="0 0 1440 840.6" width="1440" height="840.6"><style>.st0{fill:#e6e6e6}.st1,.st2,.st3{fill:none;stroke:#000;stroke-width:1.054;stroke-miterlimit:10}.st2,.st3{stroke:#b3b3b3;stroke-width:2}.st3{stroke:#ffb400}.st4{fill:#ffb400}</style><path d="M165.5 96.8h475.3v554.7H165.5V96.8zm633.7.2h474.9v554.2H799.2V97z" class="st0"/><path d="M7.4 4.6H720V836H7.4V4.6zm712.6 0h712.6V836H720V4.6z" class="st1"/><path d="M7.4 4.6L1432.6 836m0-831.4L7.4 836m0 0L720 4.6M1432.6 836L720 4.6" class="st2"/><path d="M482.5 281.8V4.6m475 277.2V4.6m-475 0l475.1 277.1m-.1-277.1l-475 277.2" class="st3"/><circle cx="1274.1" cy="97" r="5.4" class="st4"/><circle cx="165.5" cy="96.8" r="5.4" class="st4"/><circle cx="1274.1" cy="651.2" r="5.4" class="st4"/><circle cx="165.5" cy="651.5" r="5.4" class="st4"/><circle cx="799.2" cy="97" r="5.4" class="st4"/><circle cx="640.8" cy="96.8" r="5.4" class="st4"/></svg>