<svg xmlns="http://www.w3.org/2000/svg" viewBox="0 0 960.76 560.86" width="960.76" height="560.86"><defs><style>.cls-1{fill:#e6e6e6}.cls-2,.cls-3,.cls-4{fill:none;stroke-miterlimit:10}.cls-2{stroke:#000;stroke-width:.71px}.cls-3{stroke:#b3b3b3}.cls-4{stroke:#ffb400}.cls-5{fill:#ffb400}</style></defs><g id="Layer_2"><g id="Layer_1-2"><path d="M106.9 62.53h320.15v373.61H106.9zm426.81.12h319.9v373.32h-319.9z" class="cls-1"/><path d="M.38.43h480v560H.38zm480 0h480v560h-480z" class="cls-2"/><path d="M.38.43l960 560m0-560l-960 560m0 0l480-560m480 560l-480-560" class="cls-3"/><path d="M320.38 187.1V.43m320 186.67V.43m-320 0l320 186.67m0-186.67l-320 186.67" class="cls-4"/><circle cx="853.62" cy="62.65" r="3.66" class="cls-5"/><circle cx="106.9" cy="62.53" r="3.66" class="cls-5"/><circle cx="853.62" cy="435.98" r="3.66" class="cls-5"/><circle cx="106.9" cy="436.16" r="3.66" class="cls-5"/><circle cx="533.71" cy="62.65" r="3.66" class="cls-5"/><circle cx="427.05" cy="62.53" r="3.66" class="cls-5"/></g></g></svg>