<?xml version="1.0" encoding="utf-8"?>
<!-- Generator: Adobe Illustrator 26.1.0, SVG Export Plug-In . SVG Version: 6.00 Build 0)  -->
<svg version="1.1" id="Layer_1" xmlns="http://www.w3.org/2000/svg" xmlns:xlink="http://www.w3.org/1999/xlink" x="0px" y="0px"
	 viewBox="0 0 600 350" style="enable-background:new 0 0 600 350;" xml:space="preserve">
<style type="text/css">
	.st0{fill-rule:evenodd;clip-rule:evenodd;fill:#6A6A6A;}
	.st1{fill-rule:evenodd;clip-rule:evenodd;fill:#B1B1B1;}
	.st2{fill-rule:evenodd;clip-rule:evenodd;fill:#CDCDCD;}
	.st3{fill-rule:evenodd;clip-rule:evenodd;fill:#FFFFFF;}
	.st4{fill:#F26518;}
	.st5{fill:#696969;}
	.st6{fill:#676767;}
	.st7{fill:#C5C5C5;}
	.st8{fill:#2997FF;}
	.st9{fill:none;stroke:#FFFFFF;stroke-width:4;stroke-miterlimit:10;}
	.st10{fill:#00ABBB;}
	.st11{fill:#0083CA;}
	.st12{fill:#00AF00;}
</style>
<path class="st0" d="M63.1,43.9c0.3-5,1.2-9.5,2.2-12.7c2.8,1.8,6.4,4.7,9.8,8.3c1.9-4.6,4.4-8.5,6.4-11.2c2,2.7,4.5,6.6,6.4,11.2
	c3.4-3.7,7-6.5,9.8-8.3c1,3.2,1.9,7.7,2.2,12.7c4.4-2.3,8.8-3.7,12.1-4.4c-0.2,3.3-0.8,7.9-2.3,12.7c4.9-0.6,9.6-0.5,12.9,0
	c-1.3,3.1-3.5,7.2-6.5,11.1c4.9,1.1,9.1,2.9,12.1,4.4c-2.3,2.5-5.7,5.5-9.9,8.2c4.2,2.7,7.6,5.8,9.9,8.2c-3,1.5-7.3,3.2-12.1,4.4
	c3,4,5.2,8.1,6.5,11.1c-3.3,0.4-7.9,0.6-12.9,0c1.5,4.8,2.1,9.3,2.3,12.7c-3.3-0.8-7.7-2.2-12.1-4.4c-0.3,5-1.2,9.5-2.2,12.7
	c-2.8-1.8-6.4-4.7-9.8-8.3c-1.9,4.6-4.4,8.5-6.4,11.2c-2-2.7-4.5-6.6-6.4-11.2c-3.4,3.7-7,6.5-9.8,8.3c-1-3.2-2-7.7-2.2-12.7
	c-4.4,2.3-8.8,3.7-12.1,4.4c0.2-3.3,0.8-7.9,2.3-12.7c-5,0.6-9.5,0.4-12.9,0c1.3-3.1,3.5-7.2,6.5-11.1c-4.9-1.1-9.1-2.8-12.1-4.4
	c2.3-2.5,5.7-5.5,9.9-8.2c-4.2-2.7-7.6-5.8-9.9-8.2c3-1.5,7.3-3.2,12.1-4.4c-3-4-5.2-8-6.5-11.1c3.3-0.4,7.9-0.6,12.9,0
	c-1.5-4.8-2.1-9.3-2.3-12.7C54.2,40.2,58.6,41.6,63.1,43.9z"/>
<path class="st1" d="M54.4,80.6c-3.5-1.2-6.8-2.9-9.8-4.8c2.9-1.9,6.2-3.6,9.8-4.8c-2.9-2.3-5.4-5.1-7.5-7.8
	c3.4-0.8,7.1-1.3,10.8-1.2c-1.9-3.2-3.4-6.6-4.4-9.9c3.5,0.4,7.1,1.2,10.5,2.6c-0.7-3.7-0.9-7.4-0.7-10.8c3.1,1.6,6.2,3.6,9,6
	c0.6-3.7,1.7-7.2,3-10.4c2.4,2.5,4.6,5.5,6.4,8.8c1.8-3.3,4-6.2,6.4-8.8c1.4,3.2,2.5,6.8,3,10.4c2.8-2.5,5.9-4.5,9-6
	c0.2,3.5,0,7.2-0.7,10.8c3.5-1.4,7.1-2.2,10.6-2.6c-1,3.3-2.4,6.8-4.4,9.9c3.7-0.1,7.4,0.4,10.8,1.2c-2.1,2.8-4.6,5.5-7.5,7.8
	c3.5,1.2,6.8,2.9,9.8,4.8c-2.9,1.9-6.2,3.6-9.8,4.8c2.9,2.3,5.4,5.1,7.5,7.8c-3.4,0.8-7.1,1.3-10.8,1.2c1.9,3.2,3.4,6.6,4.4,9.9
	c-3.5-0.4-7.1-1.2-10.6-2.6c0.7,3.7,0.9,7.4,0.7,10.8c-3.1-1.6-6.2-3.6-9-6.1c-0.6,3.7-1.7,7.2-3,10.4c-2.4-2.6-4.6-5.5-6.4-8.8
	c-1.8,3.3-4,6.2-6.4,8.8c-1.4-3.2-2.5-6.8-3-10.4c-2.8,2.5-5.9,4.5-9,6.1c-0.2-3.5,0-7.2,0.7-10.8c-3.5,1.4-7.1,2.2-10.5,2.6
	c1-3.3,2.4-6.8,4.4-9.9c-3.7,0.1-7.4-0.4-10.8-1.2C48.9,85.7,51.4,82.9,54.4,80.6L54.4,80.6z"/>
<path class="st2" d="M81.5,75.8C81.5,75.8,81.5,75.8,81.5,75.8C81.5,75.8,81.5,75.8,81.5,75.8C81.5,75.8,81.5,75.8,81.5,75.8
	C81.5,75.8,81.5,75.8,81.5,75.8z M78.2,57.2c0.6-3.2,1.8-6.2,3.3-9c1.5,2.8,2.7,5.8,3.3,9c1.7-2.8,3.8-5.2,6.2-7.3
	c0.5,3.1,0.5,6.3,0,9.6c2.5-2.1,5.3-3.6,8.3-4.8c-0.6,3.1-1.7,6.2-3.3,9c3.1-1.1,6.3-1.6,9.4-1.7c-1.7,2.7-3.7,5.2-6.1,7.3
	c3.3,0,6.4,0.7,9.4,1.7c-2.5,2-5.2,3.6-8.3,4.8c3.1,1.2,5.8,2.8,8.3,4.8c-3,1-6.2,1.6-9.4,1.7c2.5,2.1,4.5,4.6,6.1,7.3
	c-3.2-0.1-6.3-0.6-9.4-1.7c1.6,2.8,2.6,5.9,3.3,9c-2.9-1.2-5.8-2.7-8.3-4.8c0.5,3.2,0.5,6.4,0,9.6c-2.4-2.1-4.5-4.5-6.2-7.3
	c-0.6,3.2-1.8,6.2-3.3,9c-1.5-2.8-2.7-5.8-3.3-9c-1.7,2.8-3.8,5.2-6.2,7.3c-0.5-3.1-0.5-6.3,0-9.6c-2.5,2.1-5.3,3.6-8.3,4.8
	c0.6-3.1,1.7-6.2,3.3-9c-3.1,1.1-6.3,1.6-9.4,1.7c1.7-2.7,3.7-5.2,6.1-7.3c-3.3,0-6.4-0.7-9.4-1.7c2.5-2,5.2-3.6,8.3-4.8
	c-3-1.2-5.8-2.8-8.3-4.8c3-1,6.2-1.6,9.4-1.7c-2.5-2.1-4.5-4.6-6.1-7.3c3.2,0.1,6.3,0.6,9.4,1.7c-1.6-2.8-2.6-5.9-3.3-9
	c2.9,1.2,5.8,2.7,8.3,4.8c-0.5-3.2-0.5-6.5,0-9.6C74.5,52,76.6,54.4,78.2,57.2z"/>
<path class="st3" d="M78.2,66.7c-0.6-3.3-0.5-6.5,0-9.5c1.6,2.7,2.7,5.8,3.3,8.9c0.6-3.3,1.7-6.3,3.3-8.9c0.6,3,0.6,6.2,0,9.5
	c1.7-2.9,3.8-5.3,6.1-7.2c-0.5,3-1.5,6-3.2,8.9c2.6-2.2,5.3-3.7,8.2-4.7c-1.5,2.7-3.5,5.1-6.1,7.3c3-1.1,6.2-1.6,9.3-1.6
	c-2.4,2.1-5.2,3.7-8.2,4.8c3.4,0,6.5,0.6,9.3,1.7c-2.9,1.1-6,1.7-9.3,1.7c3.2,1.1,5.9,2.8,8.2,4.8c-3.1,0-6.2-0.4-9.3-1.6
	c2.6,2.2,4.6,4.6,6.1,7.3c-3-1-5.8-2.6-8.2-4.7c1.7,2.9,2.7,5.9,3.2,8.9c-2.5-2-4.5-4.5-6.1-7.2c0.6,3.3,0.5,6.5,0,9.5
	c-1.6-2.7-2.7-5.8-3.3-8.9c-0.6,3.3-1.7,6.3-3.3,8.9c-0.6-3-0.6-6.2,0-9.5c-1.7,2.9-3.8,5.3-6.1,7.2c0.5-3,1.5-6,3.2-8.9
	C72.7,85.4,70,87,67.1,88c1.5-2.7,3.5-5.1,6.1-7.3c-3.2,1.2-6.3,1.6-9.3,1.6c2.3-2,5-3.6,8.2-4.8c-3.4,0-6.5-0.6-9.3-1.7
	c2.9-1.1,6-1.7,9.3-1.7c-3-1.1-5.8-2.7-8.2-4.8c3,0,6.2,0.4,9.3,1.6c-2.5-2-4.5-4.5-6.1-7.3c2.9,1,5.7,2.5,8.2,4.7
	c-1.7-2.9-2.7-5.9-3.2-8.9C74.5,61.4,76.6,63.8,78.2,66.7L78.2,66.7z"/>
<path class="st0" d="M94.1-1.1v23.2h3.4v-2.2c1.4,1.9,3,2.8,5.3,2.8c4.3,0,7.3-3.5,7.3-9c0-5.7-3.1-9.1-7.3-9.1
	c-2.3,0-4.1,1-5.3,2.8v-8.5L94.1-1.1C94.1-1.2,94.1-1.1,94.1-1.1z M102.1,7.7c2.7,0,4.4,2.1,4.4,6c0,3.7-1.7,5.8-4.4,5.8
	c-2.9,0-4.5-2-4.5-5.9C97.6,9.7,99.1,7.7,102.1,7.7z M120.5,7.7c2.7,0,4.4,2.1,4.4,5.8c0,3.9-1.7,6-4.4,6c-2.9,0-4.5-2-4.5-5.8
	C115.9,9.7,117.6,7.7,120.5,7.7z M116,20c1.2,1.7,3,2.6,5.3,2.6c4.2,0,7.3-3.5,7.3-9.1c0-5.5-3-9-7.3-9c-2.3,0-3.9,0.9-5.3,2.9V5
	h-3.4v23.8h3.5L116,20C116,20,116,20,116,20z"/>
<path class="st4" d="M153.4,100.1c-14.3,0-25.9,11.6-25.9,25.9s11.6,25.9,25.9,25.9s25.9-11.6,25.9-25.9S167.7,100.1,153.4,100.1z
	 M134.7,126c0-10.3,8.4-18.7,18.7-18.7c3.8,0,7.4,1.2,10.4,3.2l-25.9,25.9C135.8,133.3,134.7,129.7,134.7,126L134.7,126z
	 M153.4,144.7c-3.8,0-7.4-1.2-10.4-3.1l25.9-25.9c2,3,3.1,6.5,3.1,10.4C172,136.3,163.6,144.7,153.4,144.7L153.4,144.7z"/>
<path class="st5" d="M465.8,74.7l-1.1-0.6c-2-1.2-2.8-3.4-4.1-5.2c-0.4-0.6-1.1-1.1-1.5-1.7c-1.5-3.9-2.6-7.8-3-12.3
	c-0.3-1.2-0.6-2.2-1.1-3.3c-1.9-3-4.2-5.6-6.5-8.4c-0.2-0.1-0.5-0.3-0.6-0.6l-7.9-6.7c-1-0.8-2.2-1.3-3.2-1.7
	c-1.7-0.7-3.9-0.5-5.6,0.2c-1.7,0.9-3.2,2.2-5,2.8c-2.6,1.2-5.6,1.3-7.8,3.4c-1.3,1.2-2.4,2.9-4.4,2.6c-2.2-0.1-4.1,0.7-5.8,2
	c-1.5,1.3-2.9,2.9-4.8,3.3c-1.7,0.7-3.7,0.4-5.4,1c-2.6,0.7-4.8,2.8-7.1,4.5c-2.4,1.3-4.5,2.8-7.4,2.8c-1.9-0.1-3.7-1.3-4.3-3.2
	c-0.5-2.2,0.1-4.3,1.7-5.6c1.7-2,4.4-3.2,5.8-5.6c0.8-1.2,0.7-3.2-0.3-4.4c-1.7-1.9-4.3-1.9-6.6-2.4c-1.5-0.4-2.6-1.5-4.2-2.9
	c-0.5,0.8-0.7,1.5-0.6,2.6c0.3,2.2,1.9,4.1,3.9,4.8c1.1,0.5,2.6,0.1,3.7,0.4c0.3,0.2,0.7,0.5,0.7,0.9c-0.1,0.3-0.1,0.7-0.4,0.9
	c-1.9,1.7-3.9,3.1-5.4,5c-1.7,1.9-1.9,5-1,7.3c1,2.6,3.7,4.4,6.3,4.7c1.9,0.3,3.6-0.2,5.4-0.6c0.2,0,0.3,0.3,0.4,0.4
	c0.2,1.5,0,2.9,0.3,4.3s0.7,2.2,1.1,3.5c0.1,0.5,0,1-0.3,1.3c-1,0.8-1.9,1.3-3,1.7l-2.6,0.2l-0.5,0.2c-1,1.2-1,2.4-1.5,3.6
	c-0.8,1.3-2.2,1.9-3.5,2.8c-0.4,0.7-0.8,1.3-1.3,1.9c-0.5,0.4-1,0.5-1.5,0.6c-1,1.1-1.1,2.4-1.3,3.9c1.5,0.1,3,0.9,4.5,0.1
	c1.3-0.6,1.5-2.2,2.4-3c0.8-0.8,1.9-0.2,2.8,0c1.3,0.1,2.2-0.8,3.3-1.3c0.8-0.5,1.5-1.3,2.2-1.9c1.5-0.7,3.7-0.3,5.2,0
	c1.3,0.3,2.6,0.1,3.7-0.4c1.1-0.6,2-1.3,3.2-1.7c1-0.6,1.5-1.7,1.9-2.8c0.4-0.9,1.3-1.5,1.1-2.6c-0.3-0.2-0.6-0.7-1-0.7
	c-0.5,0.8-0.9,1.5-1.5,2.2c-2.2,3-5.8,3.6-9.3,3.6c-3.7-0.2-6.9,1-9.5,3.8c-0.1,0.1-0.4,0-0.5-0.1c-0.1-0.4,0.2-0.7,0.4-1
	c2.4-3.2,5.8-3.9,9.5-4c2-0.2,4-0.5,5.6-1.3c1.9-1,3.2-2.9,4-4.8c0.5-2.2,0.6-4.4,1.1-6.5c0.1-0.2,0.3-0.3,0.5-0.2
	c0.2,0,0.4,0.2,0.4,0.4c-0.4,2-0.6,4.5,0.2,6.5c1.5,2.2,4.5,0.7,6.6,0.6c2.2-0.2,4.3,0.7,6.5,0.8c1.1-0.1,2.2,0.3,3.1-0.4
	c0.2-0.3,0-0.8-0.1-1.2c0-0.6-0.5-1.5,0.1-1.9c0.1-0.1,0.5-0.1,0.6,0.1c0.3,0.8,0.4,1.7,1,2.4c1.1,1.3,2.6,2.4,4.1,3.2
	c1.5,1,2.6,2.4,2.8,4.1c0,0.9-0.8,1.5-1.5,1.9c-1.1,0.6-2.4,1-3.7,0.9c-1.7-0.9-2.2-2.8-3.4-4.1c-0.6-0.6-1.5-0.8-2.4-0.7
	c-1,0.1-1.9,0.1-2.8,0.4c-0.3,0.2-0.3,0.5-0.3,0.8c0.6,1.2,1.3,2.2,1.9,3.3c0.8,0.5,1.9-0.3,2.6,0.6c0.6,0.9,1,1.9,1.9,2.6
	s2.2,1.1,3.2,0.6c2.6-0.8,5-1.5,7.3-2.8h0.3c1-0.1,1.9,0,2.6-0.7c0.8-1.1,1.3-2.1,1.9-3.2c0.6-0.7,0.3-1.9,0.1-2.8
	c-1.1-1.3-1.7-3-2.4-4.6c-0.6-0.2-1.1-0.5-1.7-0.5c-0.3,0.1-0.7,0.1-0.9,0.4l2.6,5.2c0.2,0.4,0.4,1,0.3,1.5c-0.4,1.2-1,2.2-1.9,3
	c-0.2,0.1-0.4,0.2-0.5,0c0.3-1.2,0.9-2.4,0.8-3.7l-2.6-4.7c-0.3-0.7-0.8-1.2-0.8-1.9c0-0.3,0.3-0.6,0.6-0.7c1.1-0.3,2.6-0.3,3.4-1.2
	c1.1-1.9,1.9-3.5,2.2-5.6c0.1-0.1,0.1-0.3,0.3-0.3s0.2,0.2,0.3,0.3c0.4,2.2-0.1,4.6-1.5,6.5c-0.1,0.2-0.2,0.5,0.1,0.7
	c1.3,0.4,2.6,0,3.7-0.6c1.3,0,2.6-0.3,3.9-0.5c0.2,0,0.3,0.2,0.3,0.3c-0.9,1-1.3,2.1-1.5,3.2c-1,1-2.4,1.9-2.6,3.4
	c0.2,0.7,0.9,0,1.3,0.1c0.2,0,0.3,0.2,0.3,0.4l-1,1.5c-0.5,0.9,0.1,1.9,0.1,2.8c0.3,0.7,1.1,1,1.7,1c1.5,0,2.8-0.6,4.2-1.1
	c1.5-0.6,3.2-0.6,4.9-0.3c1.5-0.1,2.8-1.1,3.9-2.2c0.7,0,1.3,0.4,1.7,0.9c1.9,1.9,4.2,2.8,6.8,2.8l0.2-0.1c0.2-0.2,0.1-0.5-0.1-0.6
	l-1.5-0.8c-1.1-0.7-2.4-1.5-2.8-2.8c-0.3-1.2-0.9-2.4-1.5-3.4c-0.2-0.5-0.8-0.9-1-1.5c0,0,0.1-0.1,0.2-0.1c1.7,0.7,2.8,2.4,3.6,3.9
	c1.3,1.7,3.1,3.2,5.6,2.8l0.2-0.2C465.9,75,465.9,74.8,465.8,74.7L465.8,74.7z M437.8,51.1L437.8,51.1l-0.1,0.1
	c-0.1,0.1-0.3,0.2-0.4,0.2c-0.1,0-0.3-0.1-0.4-0.2l-0.1-0.1v-0.1c-0.3-1.3-0.6-2.7-1.1-4c-0.1-0.2-0.3-0.5-0.4-0.7
	c-0.4-0.5-0.8-1.2-0.5-1.9l0.1-0.1c0.3-0.3,0.8-0.3,1.2-0.2h0.1l0.1,0.1c0.5,0.5,0.7,0.9,1,1.3l0.2,0.3
	C438.2,47.4,438.2,49.3,437.8,51.1L437.8,51.1z M450.5,73.5L450.5,73.5c-0.6,0.2-1.1,0.3-1.7,0.3c-0.2,0-0.5,0-0.6-0.1l-0.1-0.1
	c-0.2-0.1-0.7-0.3-0.5-0.8c0.3-0.9,1.2-2,2.4-2.2c0.6,0,1,0.2,1.1,0.6C451.2,71.7,451.3,72.9,450.5,73.5L450.5,73.5z M454.6,64.1
	l-0.1,0.1c-0.1,0.1-0.1,0.1-0.1,0.3c-0.1,0.3-0.2,0.7-0.7,0.8c-0.1,0-0.1,0.1-0.2,0.1c-0.1,0-0.2,0-0.3-0.1
	c-0.2-0.1-0.3-0.3-0.3-0.6c0-0.1,0-0.3-0.1-0.4c-0.1-0.7-0.1-1.4-0.5-1.9l-0.5-0.5c-0.5-0.5-1-1.1-1.5-1.2c-0.5,0.1-0.8,0.6-1.1,1.1
	c-0.1,0.1-0.1,0.1-0.1,0.2c-0.1,0.1-0.1,0.2-0.3,0.3c-0.2,0.1-0.4,0-0.5-0.1l-0.1-0.1c-0.3-0.8,0.1-1.6,0.4-2.2
	c0.1-0.2,0.3-0.4,0.3-0.6l0.1-0.1c0.1-0.1,0.3-0.5,0.4-0.7c0.2-0.5,0.4-1,0.8-1.2c0.3-0.1,0.6-0.1,1,0l0.1,0.1
	c0.6,0.4,0.9,1,1.1,1.4c0.2,0.3,0.3,0.6,0.5,0.8C454,60.6,455.1,62.1,454.6,64.1L454.6,64.1z M473.1,75.1l0.2,0.2
	c2.4,0.4,4.3-1.1,5.6-2.8c0.8-1.5,1.9-3.2,3.6-3.9c0.1,0,0.2,0.1,0.2,0.1c-0.2,0.6-0.8,1-1,1.5c-0.6,1-1.2,2.2-1.5,3.4
	c-0.4,1.3-1.7,2.1-2.8,2.8l-1.5,0.8c-0.3,0.1-0.3,0.4-0.1,0.6l0.2,0.1c2.7,0.1,5-0.8,6.8-2.8c0.4-0.5,1-0.9,1.7-0.9
	c1.1,1.1,2.4,2.1,3.9,2.2c1.7-0.3,3.4-0.3,4.9,0.3c1.3,0.5,2.7,1.1,4.2,1.1c0.6,0,1.4-0.3,1.7-1c0-0.9,0.6-1.9,0.1-2.8l-1-1.5
	c0-0.2,0.1-0.4,0.3-0.4c0.4-0.1,1.1,0.6,1.3-0.1c-0.1-1.5-1.6-2.4-2.6-3.4c-0.2-1.2-0.6-2.2-1.5-3.2c0-0.1,0.1-0.3,0.3-0.3
	c1.3,0.2,2.6,0.5,3.9,0.5c1.1,0.6,2.4,1,3.7,0.6c0.3-0.2,0.3-0.5,0.1-0.7c-1.3-1.9-1.9-4.2-1.5-6.5c0.1-0.1,0.1-0.3,0.3-0.3
	s0.2,0.2,0.3,0.3c0.3,2.1,1,3.8,2.2,5.6c0.8,0.8,2.2,0.8,3.4,1.2c0.3,0.1,0.6,0.4,0.6,0.7c0,0.8-0.5,1.2-0.8,1.9l-2.6,4.7
	c-0.1,1.3,0.5,2.6,0.8,3.7c-0.1,0.2-0.3,0.1-0.5,0c-0.9-0.8-1.5-1.9-1.9-3c-0.1-0.5,0.1-1.1,0.3-1.5l2.6-5.2
	c-0.2-0.3-0.6-0.3-0.9-0.4c-0.6,0-1.1,0.3-1.7,0.5c-0.6,1.6-1.3,3.3-2.4,4.6c-0.2,0.9-0.5,2.1,0.1,2.8c0.6,1.2,1.1,2.1,1.9,3.2
	c0.7,0.7,1.7,0.6,2.6,0.7h0.3c2.3,1.3,4.7,2.1,7.3,2.8c1,0.5,2.3,0.1,3.2-0.6c0.9-0.7,1.3-1.7,1.9-2.6c0.7-0.9,1.8-0.1,2.6-0.6
	c0.6-1.1,1.3-2.2,1.9-3.3c0-0.3,0-0.6-0.3-0.8c-0.9-0.3-1.9-0.3-2.8-0.4c-0.9-0.1-1.9,0.1-2.4,0.7c-1.2,1.3-1.7,3.2-3.4,4.1
	c-1.3,0.1-2.6-0.3-3.7-0.9c-0.7-0.4-1.5-1-1.5-1.9c0.1-1.7,1.3-3.1,2.8-4.1c1.5-0.8,3-1.9,4.1-3.2c0.6-0.8,0.6-1.7,1-2.4
	c0.1-0.3,0.5-0.3,0.6-0.1c0.6,0.4,0.1,1.3,0.1,1.9c-0.1,0.4-0.3,0.8-0.1,1.2c0.9,0.7,2,0.3,3.1,0.4c2.2-0.1,4.2-1,6.5-0.8
	c2.2,0.1,5.1,1.6,6.7-0.6c0.8-2.1,0.6-4.5,0.2-6.5c0-0.2,0.2-0.4,0.4-0.4c0.2-0.1,0.4,0,0.5,0.2c0.6,2,0.6,4.3,1.2,6.5
	c0.8,1.9,2.1,3.8,4,4.8c1.7,0.8,3.6,1.2,5.6,1.3c3.7,0.1,7.1,0.8,9.5,4c0.2,0.3,0.5,0.6,0.4,1c-0.1,0.1-0.4,0.3-0.5,0.1
	c-2.6-2.8-5.8-4-9.5-3.8c-3.5,0-7-0.6-9.3-3.6c-0.6-0.7-1-1.4-1.5-2.2c-0.4,0-0.6,0.5-1,0.7c-0.1,1.1,0.8,1.7,1.2,2.6
	c0.5,1,1,2.2,1.9,2.8c1.2,0.3,2.1,1.1,3.2,1.7c1.1,0.5,2.4,0.7,3.7,0.4c1.5-0.3,3.7-0.7,5.2,0c0.8,0.5,1.5,1.3,2.2,1.9
	c1.1,0.5,2,1.4,3.3,1.3c0.9-0.2,2-0.8,2.8,0c1,0.8,1.2,2.4,2.4,3c1.5,0.8,3,0,4.5-0.1c-0.2-1.5-0.4-2.8-1.3-3.9
	c-0.6-0.1-1-0.2-1.5-0.6c-0.6-0.5-1-1.2-1.3-1.9c-1.3-0.8-2.8-1.4-3.5-2.8c-0.6-1.2-0.6-2.4-1.5-3.6l-0.5-0.2l-2.6-0.2
	c-1.1-0.4-2-1-3-1.7c-0.3-0.3-0.5-0.8-0.3-1.3c0.5-1.3,0.8-2.2,1.2-3.5s0.1-2.8,0.3-4.3c0.1-0.1,0.2-0.4,0.4-0.4
	c1.8,0.4,3.5,0.9,5.4,0.6c2.6-0.3,5.4-2,6.3-4.7c0.9-2.2,0.7-5.4-1-7.3c-1.5-1.9-3.5-3.4-5.4-5c-0.3-0.2-0.3-0.6-0.4-0.9
	c0-0.4,0.4-0.7,0.7-0.9c1.2-0.3,2.6,0.1,3.7-0.4c2-0.7,3.6-2.6,3.9-4.8c0.1-1-0.1-1.8-0.6-2.6c-1.5,1.4-2.7,2.6-4.2,2.9
	c-2.4,0.6-4.9,0.6-6.7,2.4c-1,1.2-1.1,3.3-0.3,4.4c1.3,2.4,4.1,3.5,5.8,5.6c1.6,1.3,2.2,3.5,1.7,5.6c-0.6,1.9-2.4,3.1-4.3,3.2
	c-2.9,0.1-5-1.4-7.4-2.8c-2.3-1.7-4.5-3.8-7.1-4.5c-1.7-0.6-3.7-0.3-5.4-1c-1.9-0.4-3.3-2-4.8-3.3c-1.7-1.3-3.6-2.2-5.8-2
	c-2,0.3-3.1-1.5-4.4-2.6c-2.2-2-5.2-2.2-7.8-3.4c-1.9-0.6-3.3-1.9-5-2.8c-1.7-0.7-3.9-0.9-5.6-0.2c-1,0.5-2.2,1-3.2,1.7l-7.9,6.7
	c-0.1,0.3-0.4,0.5-0.6,0.6c-2.3,2.8-4.6,5.4-6.5,8.4c-0.6,1.1-0.8,2.2-1.1,3.3c-0.4,4.5-1.5,8.4-3,12.3c-0.4,0.6-1.1,1.1-1.5,1.7
	c-1.3,1.8-2,4-4.1,5.2l-1.1,0.6C473.2,74.8,473.2,75,473.1,75.1L473.1,75.1z M501.5,45.8l0.2-0.3c0.3-0.5,0.6-0.9,1-1.3l0.1-0.1h0.1
	c0.4-0.1,0.9-0.1,1.2,0.2l0.1,0.1c0.4,0.8-0.1,1.4-0.5,1.9c-0.1,0.3-0.3,0.5-0.4,0.7c-0.5,1.3-0.8,2.7-1.1,4v0.1l-0.1,0.1
	c-0.1,0.1-0.3,0.2-0.4,0.2c-0.1,0-0.3-0.1-0.4-0.2l-0.1-0.1v-0.1C500.9,49.3,500.9,47.3,501.5,45.8L501.5,45.8z M488,71.2
	c0.1-0.4,0.5-0.6,1.1-0.6c1.1,0.3,2,1.3,2.4,2.2c0.3,0.5-0.3,0.8-0.5,0.8l-0.1,0.1c-0.2,0.1-0.5,0.1-0.6,0.1c-0.5,0-1.1-0.1-1.6-0.3
	l-0.1-0.1C487.8,72.9,487.9,71.7,488,71.2L488,71.2z M486,59.5c0.2-0.2,0.3-0.5,0.5-0.8c0.3-0.5,0.6-1,1.1-1.4l0.1-0.1
	c0.4-0.1,0.7-0.1,1,0c0.5,0.2,0.6,0.7,0.8,1.2c0.1,0.3,0.3,0.6,0.4,0.7l0.1,0.1c0.1,0.2,0.2,0.4,0.3,0.6c0.3,0.6,0.7,1.3,0.4,2.2
	l-0.1,0.1c-0.1,0.1-0.3,0.2-0.5,0.1c-0.1-0.1-0.2-0.1-0.3-0.3c0-0.1-0.1-0.1-0.1-0.2c-0.3-0.5-0.7-1-1.1-1.1c-0.5,0.1-1,0.6-1.5,1.2
	l-0.5,0.5c-0.3,0.5-0.4,1.2-0.5,1.9c-0.1,0.2-0.1,0.3-0.1,0.4c0,0.3-0.1,0.4-0.3,0.6c-0.1,0.1-0.2,0.1-0.3,0.1
	c-0.1,0-0.1-0.1-0.2-0.1c-0.5-0.1-0.6-0.6-0.7-0.8c0-0.1,0-0.2-0.1-0.3l-0.1-0.1C484,62.1,485.1,60.6,486,59.5L486,59.5z
	 M528.9,83.4c0.8,0,1.5,0.3,2.1,0.9c0.5,0.6,0.8,1.3,0.8,2.1c0,0.8-0.3,1.5-0.8,2.1c-0.5,0.6-1.2,0.9-2.1,0.9s-1.5-0.3-2.1-0.9
	c-0.5-0.6-0.8-1.3-0.8-2.1c0-0.8,0.3-1.5,0.8-2.1C527.3,83.8,528,83.4,528.9,83.4 M532.2,86.3c0-0.9-0.3-1.7-1-2.4
	c-0.7-0.6-1.4-1-2.4-1s-1.7,0.3-2.4,1c-0.7,0.7-1,1.4-1,2.4s0.3,1.7,1,2.4c0.7,0.7,1.4,1,2.4,1s1.7-0.3,2.4-1
	C531.8,88.1,532.2,87.3,532.2,86.3 M529.8,85.6c0,0.3-0.1,0.5-0.4,0.6c-0.1,0.1-0.3,0.1-0.6,0.1h-0.6V85h0.5c0.3,0,0.6,0.1,0.8,0.1
	C529.6,85.2,529.8,85.4,529.8,85.6 M527.5,84.5v3.7h0.6v-1.4h0.5c0.3,0,0.6,0.1,0.7,0.1c0.2,0.1,0.3,0.4,0.3,0.9v0.5h0.6l-0.1-0.1
	c0-0.1-0.1-0.1-0.1-0.2v-0.6c0-0.2-0.1-0.3-0.2-0.6c-0.1-0.2-0.4-0.3-0.6-0.3c0.2-0.1,0.4-0.1,0.5-0.2c0.2-0.1,0.3-0.4,0.3-0.8
	c0-0.5-0.2-0.8-0.6-1c-0.2-0.1-0.5-0.1-1-0.1L527.5,84.5L527.5,84.5L527.5,84.5z"/>
<path class="st6" d="M498.4,95.9h-4.5v8.9c0,2.9,3.1,5.4,6.9,5.4s7.1-2.5,7.1-5.4v-8.9h-4.5v8.1c0,1.3-1.1,2.4-2.5,2.4
	s-2.5-1.1-2.5-2.4V95.9z M421.7,91v18.5H417V87.1h8.4c3.7,0,6.7,3,6.7,6.7c0,3.1-2.2,5.7-5.1,6.4l6.5,9.3h-5.6l-4.7-7.3v-5.3h1.1
	c1.7,0,3.2-1.3,3.2-2.9c0-1.7-1.3-2.9-3.1-2.9L421.7,91L421.7,91L421.7,91z M460.4,86v11.1c-1.2-1.2-2.7-1.8-4.4-1.8
	c-3.6,0-6.7,3.2-6.7,7.3c0,4.1,3,7.3,6.7,7.3c1.7,0,3.4-0.7,4.4-1.9v1.5h4.5V86H460.4z M457.3,106.1c-1.8,0-3.3-1.7-3.3-3.6
	c0-2,1.4-3.6,3.3-3.6c1.8,0,3.3,1.7,3.3,3.6C460.6,104.5,459.1,106.1,457.3,106.1z M488.4,97.4c1.2-1.2,2-2.7,2-4.3
	c0-1.5-0.6-2.9-1.6-4.1c-1.1-1.2-3-1.8-5.4-1.8h-7.5v22.4h9.8c3.7-0.1,6.8-2.9,6.8-6.4C492.3,100.6,491.4,98.7,488.4,97.4z
	 M484.7,105.7h-4.3V91.2h3c1.3,0,2.4,1,2.4,2.3s-1.1,2.4-2.4,2.4h-1.6v4.1h2.9c1.6,0,2.8,1.3,2.8,2.9
	C487.5,104.4,486.4,105.6,484.7,105.7L484.7,105.7z"/>
<path class="st5" d="M510,86h4.5v23.5h-4.5L510,86z M517.6,86h4.5v23.5h-4.5V86z M440.2,95.1c-4,0-7.4,3.4-7.4,7.5s3.3,7.5,7.4,7.5
	c3.1,0,5.5-1.4,6.7-3.6l-3.6-1.7c-0.5,1.1-1.6,1.7-2.8,1.7c-1.6,0-3-1.3-3-2.9h9.8c0-0.3,0.1-0.6,0.1-1
	C447.4,97.7,444.3,95.1,440.2,95.1L440.2,95.1z M437.5,100.9c0-1.5,1.2-2.8,2.7-2.8c1.5,0,2.7,1.2,2.7,2.8H437.5z"/>
<path class="st7" d="M497.3,80.4c-1.8,0-3.4-0.6-4.7-1.1l-0.4-0.1c-0.5-0.2-1.2-0.3-1.9-0.3c-0.5,0-1,0-1.6,0.1c-0.1,0-0.3,0-0.4,0
	c-0.1,0-0.1,0-0.2,0c-1.6-0.1-2.9-0.8-4-1.6c-2.2,2-4.9,3.1-8,3.1h-0.3c-0.5,0-1-0.2-1.4-0.4l-0.2-0.1c-0.1-0.1-0.3-0.2-0.4-0.3
	c-0.5-0.5-0.8-1.1-0.9-1.7c0,0,0,0,0,0c-0.6-0.1-1.1-0.3-1.5-0.8l-0.2-0.2c-0.6-0.6-0.9-1.5-0.8-2.3c0.1-0.4,0.2-0.8,0.4-1.1
	c0.3-0.5,0.7-0.9,1.2-1.2l1.1-0.5c0.8-0.5,1.4-1.4,2-2.6c0.3-0.6,0.7-1.2,1.1-1.8c0.4-0.5,0.8-0.9,1.1-1.2c0.1-0.1,0.2-0.2,0.3-0.2
	c1.6-4.3,2.4-7.6,2.7-11.2c0-0.2,0-0.3,0.1-0.5l0.1-0.4c0.3-1.1,0.6-2.2,1.2-3.4l0.1-0.2c1.7-2.8,3.8-5.3,5.8-7.7
	c0.3-0.3,0.6-0.7,0.8-1c0.1-0.2,0.3-0.3,0.5-0.4c0.1-0.2,0.3-0.3,0.4-0.5l7.9-6.7c0,0,0,0,0.1,0c1.2-1,2.5-1.5,3.6-2
	c0,0,0.2-0.1,0.2-0.1c1-0.4,2.1-0.6,3.2-0.6c-7.3-11.6-20.2-19.3-35-19.3s-27.7,7.7-35,19.3c1.2,0,2.3,0.2,3.2,0.6
	c0,0,0.2,0.1,0.2,0.1c1.1,0.5,2.5,1.1,3.6,2c0,0,0,0,0.1,0l7.9,6.7c0.2,0.1,0.3,0.3,0.4,0.5c0.2,0.1,0.3,0.3,0.5,0.4
	c0.3,0.3,0.6,0.7,0.8,1c2,2.4,4.1,4.9,5.8,7.7l0.1,0.2c0.6,1.2,1,2.3,1.2,3.4l0.1,0.4c0,0.2,0.1,0.3,0.1,0.5
	c0.3,3.5,1.1,6.9,2.7,11.2c0.1,0.1,0.2,0.2,0.3,0.2c0.4,0.3,0.8,0.7,1.1,1.2c0.4,0.6,0.8,1.2,1.1,1.8c0.7,1.1,1.2,2.1,2,2.6l1.1,0.5
	c0.3,0.1,0.5,0.3,0.7,0.5c0.2,0.2,0.4,0.5,0.5,0.7c0.2,0.3,0.4,0.7,0.4,1.1c0.1,0.8-0.1,1.7-0.8,2.3l-0.2,0.2
	c-0.4,0.4-0.9,0.7-1.5,0.8c0,0,0,0,0,0c-0.1,0.6-0.4,1.2-0.9,1.7c-0.1,0.1-0.3,0.2-0.4,0.3l-0.2,0.1c-0.4,0.3-0.9,0.4-1.4,0.4H463
	c-3.1,0-5.8-1-8-3.1c-1.1,0.8-2.4,1.4-4,1.6c-0.1,0-0.2,0-0.3,0c-0.1,0-0.3,0-0.4,0c-0.6-0.1-1.1-0.1-1.6-0.1
	c-0.7,0-1.4,0.1-1.9,0.3l-0.4,0.2c-1.4,0.5-2.9,1.1-4.7,1.1c-1.7,0-3.2-0.8-4-2.1c-0.2,0.3-0.4,0.6-0.5,0.8
	c5.4,6.7,12.7,11.6,21.2,14v-9h8.3v10.4c2.4,0.2,4.8,0.1,7.1-0.1v-9.1h9.5c3,0,5.3,0.8,6.8,2.5l0,0.1c0.2,0.3,0.5,0.6,0.7,0.9
	c4.1-2.5,7.8-5.7,10.8-9.5c-0.2-0.3-0.4-0.6-0.5-0.8C500.4,79.6,499,80.4,497.3,80.4L497.3,80.4z"/>
<path class="st4" d="M568.4,100.1c-14.3,0-25.9,11.6-25.9,25.9s11.6,25.9,25.9,25.9s25.9-11.6,25.9-25.9S582.7,100.1,568.4,100.1z
	 M549.7,126c0-10.3,8.4-18.7,18.7-18.7c3.8,0,7.4,1.2,10.4,3.2l-25.9,25.9C550.8,133.3,549.7,129.7,549.7,126z M568.4,144.7
	c-3.8,0-7.4-1.2-10.4-3.1l25.9-25.9c2,3,3.2,6.5,3.2,10.4C587.1,136.3,578.7,144.7,568.4,144.7L568.4,144.7z"/>
<path class="st8" d="M8.4,307.2l3.8-6.5c0.8-1.5,2.6-1.5,3.5-0.7c0.5,0.3,8.9,6.5,15.7,6.5c5.4,0,9.5-3.5,9.5-8
	c0-5.3-4.5-9-13.2-12.5c-9.8-4-19.6-10.2-19.6-22.5c0-9.3,6.9-20,23.4-20c10.6,0,18.7,5.4,20.8,7c1,0.6,1.3,2.4,0.6,3.4l-4,5.9
	c-0.8,1.2-2.4,2.1-3.6,1.2c-0.8-0.5-8.8-5.7-14.5-5.7c-5.9,0-9.2,4-9.2,7.3c0,4.9,3.9,8.2,12.3,11.7c10.1,4.1,21.8,10.1,21.8,23.5
	c0,10.7-9.3,20.6-23.9,20.6c-13.1,0-20.8-6.1-22.9-8.1C8,309.4,7.4,308.9,8.4,307.2L8.4,307.2z M85.3,291.1c4.2,0,7.6,1.1,7.6,1.1
	c0.1-5.3-1.6-7.2-5.4-7.2s-9.3,0.8-11.7,1.6c-1.5,0.4-2.2-0.5-2.4-1.9l-0.9-5.4c-0.3-1.6,0.5-2.3,1.5-2.6c0.8-0.3,7.5-2,14.2-2
	c13,0,16,6.8,16,18.1v22.6c0,1-0.9,2-2,2h-3.8c-0.7,0-1.2-0.3-1.8-1.5l-1.2-2.8c-2.4,2.2-6.2,5.3-12.7,5.3
	c-8.3,0-14.1-5.4-14.1-14.3C68.6,296.8,74.7,291.1,85.3,291.1z M85.5,309.6c3.3,0,6.6-2.8,7.2-4.1v-5.7c0,0-2.8-1.2-5.8-1.2
	c-4.1,0-6.8,2.3-6.8,5.6C80.1,307.3,82.3,309.6,85.5,309.6z M107.9,312.4l2.8-5.6c0.4-1,1.5-1.2,2.4-0.7c0,0,4.7,2.5,9.5,2.5
	c2.1,0,3.5-0.8,3.5-2.6c0-1.9-1.5-3-7-5.2c-8-3.1-11.8-7.4-11.8-13.7c0-6.4,4.7-12.3,15.3-12.3c6.1,0,10.6,1.8,12.8,3.2
	c0.9,0.6,1.5,1.8,0.9,2.8l-2.6,5.3c-0.5,0.9-1.7,1-2.5,0.7c0,0-4.7-2.2-8.6-2.2c-2.5,0-3.5,1-3.5,2.4c0,1.9,1.9,2.5,5.7,4.1
	c8,3.1,14.1,6.6,14.1,14.7c0,6.9-6,12.7-16.6,12.7c-6.9,0-11.7-2.2-13.8-3.9C107.9,314.1,107.5,313.2,107.9,312.4L107.9,312.4z
	 M142.1,246.5c0-1,0.9-2,2-2h8.9c1,0,2,0.9,2,2v31.6c2.1-1.6,6.1-3.4,11-3.4c13.2,0,18.6,10.2,18.6,20.7v20c0,1-0.9,2-2,2h-8.4
	c-1.1,0-2-0.9-2-2v-20.1c0-5.7-3.2-9.4-8.2-9.4c-4.8,0-8,3.1-9.1,7.4v22.1c0,1.1-0.6,2-2.2,2h-8.6c-1,0-2-0.9-2-2L142.1,246.5
	L142.1,246.5z"/>
<g>
	<path class="st9" d="M71.2,245.9c0.2-0.7,1-1.4,1.9-1.4h7.5c1.5,0,2.3,1.1,1.9,2.6L62.1,316c-0.2,0.7-1.2,1.4-1.9,1.4h-7.6
		c-1.3,0-2.3-1.1-1.9-2.6C50.8,314.8,71.2,245.9,71.2,245.9z"/>
	<path class="st4" d="M71.2,245.9c0.2-0.7,1-1.4,1.9-1.4h7.5c1.5,0,2.3,1.1,1.9,2.6L62.1,316c-0.2,0.7-1.2,1.4-1.9,1.4h-7.6
		c-1.3,0-2.3-1.1-1.9-2.6C50.8,314.8,71.2,245.9,71.2,245.9z"/>
</g>
<path class="st10" d="M378.7,311l0.3-0.3c0.2-0.2,0.5-0.2,0.7,0.1c1,0.9,6.8,6,15.6,6c8.3,0,15.8-5.5,15.8-12.3
	c0-8.5-6.8-11.5-16.7-14.2c-9.4-2.6-16.3-5.5-16.3-14.6c0-6.3,4.8-13.6,17-13.6c7.8,0,13.5,4,13.5,4c0.2,0.2,0.3,0.4,0.2,0.6
	l-0.3,0.5c-0.2,0.2-0.3,0.3-0.6,0.2c0,0-5.5-3.8-12.7-3.8c-11.3,0-15.6,6.5-15.6,12.2c0,7.9,6.1,10.7,15.3,13.2
	c10.9,3,17.7,6.5,17.7,15.6c0,7.5-8.1,13.7-17.2,13.7c-9.3,0-15.6-5.5-16.6-6.5C378.4,311.5,378.4,311.3,378.7,311L378.7,311z
	 M497.2,261.6c0.1-0.2,0.2-0.3,0.4-0.3h0.2c0.2,0,0.3,0.2,0.4,0.3l23.5,55.3c0.1,0.2,0,0.4-0.2,0.5l-0.7,0.2
	c-0.2,0.1-0.3-0.1-0.4-0.2l-6.9-16.3h-31.8l-7,16.3c-0.1,0.2-0.2,0.3-0.4,0.2l-0.7-0.2c-0.2-0.1-0.3-0.2-0.2-0.5L497.2,261.6z
	 M512.8,299.7l-15.1-35.6l-15.5,35.6H512.8z M526.4,263.5c0-0.3,0.2-0.5,0.5-0.5h16.2c9.8,0,17.8,7.9,17.8,17.6
	c0,9.8-8,17.8-17.8,17.8h-15.4v18.5c0,0.3-0.2,0.5-0.5,0.5H527c-0.3,0-0.5-0.2-0.5-0.5L526.4,263.5L526.4,263.5z M543.2,296.9
	c9,0,16.3-7.4,16.3-16.4c0-8.9-7.4-16.2-16.4-16.2h-15.3v32.6H543.2z"/>
<path class="st11" d="M423.4,280.9c-0.1,0-0.1,0-0.2,0c-0.2-0.1-0.3-0.3-0.2-0.5c4.7-10.6,16.3-16.5,27.6-13.9
	c0.2,0,0.4,0.3,0.3,0.5s-0.3,0.4-0.5,0.3c-11-2.4-22.1,3.2-26.7,13.5C423.7,280.8,423.6,280.9,423.4,280.9L423.4,280.9z"/>
<path class="st11" d="M444.9,318.5c-15.8,0-28.7-12.9-28.7-28.7s12.9-28.7,28.7-28.7s28.7,12.9,28.7,28.7S460.7,318.5,444.9,318.5z
	 M444.9,262.4c-15.1,0-27.4,12.3-27.4,27.4s12.3,27.4,27.4,27.4s27.4-12.3,27.4-27.4S460.1,262.4,444.9,262.4z M457.4,241.6
	c-0.1,0-0.1,0-0.2,0c-0.2-0.1-0.3-0.3-0.2-0.5c2.8-6.4,9.8-9.9,16.6-8.4c0.2,0.1,0.4,0.3,0.3,0.5s-0.3,0.4-0.5,0.3
	c-1-0.2-2-0.3-3-0.3c-5.5,0-10.5,3.2-12.7,8.2C457.7,241.5,457.5,241.6,457.4,241.6L457.4,241.6z"/>
<path class="st11" d="M470.1,263.2c-9.5,0-17.3-7.8-17.3-17.3s7.8-17.3,17.3-17.3s17.3,7.8,17.3,17.3S479.7,263.2,470.1,263.2z
	 M470.1,229.8c-8.9,0-16.1,7.2-16.1,16.1s7.2,16.1,16.1,16.1c8.9,0,16.1-7.2,16.1-16.1S479,229.8,470.1,229.8z M433.3,227.2
	c-0.1,0-0.1,0-0.2,0c-0.2-0.1-0.3-0.3-0.2-0.5c0,0,0,0,0,0c1.6-3.5,5.1-5.8,9-5.8c0.7,0,1.4,0.1,2.1,0.2c0.2,0.1,0.4,0.3,0.3,0.5
	s-0.3,0.4-0.5,0.3c-0.6-0.1-1.3-0.2-2-0.2c-3.5,0-6.8,2.1-8.2,5.3C433.6,227.1,433.4,227.2,433.3,227.2L433.3,227.2z"/>
<path class="st11" d="M440.9,241.2c-6.4,0-11.6-5.2-11.6-11.6s5.2-11.6,11.6-11.6s11.6,5.2,11.6,11.6
	C452.5,236,447.3,241.2,440.9,241.2z M440.9,219.2c-5.7,0-10.4,4.6-10.4,10.4s4.6,10.4,10.4,10.4s10.4-4.6,10.4-10.4
	C451.2,223.9,446.6,219.2,440.9,219.2z"/>
<path class="st12" d="M204.5,327.4V322c0-1.2,1-2.1,2.1-2.1h20.1l-2.5,4.3h-15.5v3.6C207.5,327.1,206,326.9,204.5,327.4z
	 M208.9,344.1h-0.1V344l-4.3-5.5v7.8c0,1.2,1,2.1,2.1,2.1h5.6L208.9,344.1L208.9,344.1z M228.8,336.9v7.3h-4.2l-2.5,4.3h8.9
	c1.2,0,2.1-1,2.1-2.1v-16.8L228.8,336.9z M217.4,349.1c0.9-0.1,1.7-0.6,2.1-1.3l16.1-28.8c0.8-1.3,0.3-2.9-1-3.7
	c-1.3-0.7-2.9-0.3-3.7,1c0,0,0,0,0,0l-14.1,25.3l-8.6-11.1c-0.9-1.2-2.6-1.4-3.8-0.5c0,0,0,0,0,0c-1.2,0.9-1.4,2.6-0.5,3.8
	c0,0,0,0,0,0l11.1,14.3c0.5,0.7,1.3,1,2.1,1C217.3,349.2,217.4,349.2,217.4,349.1L217.4,349.1z M565.5,327.4V322
	c0-1.2,1-2.1,2.2-2.1h20.1l-2.5,4.3h-15.5v3.6C568.5,327.1,567,326.9,565.5,327.4z M569.9,344.1L569.9,344.1l-0.1-0.1l-4.3-5.5v7.8
	c0,1.2,1,2.1,2.2,2.1h5.6L569.9,344.1L569.9,344.1z M589.8,336.9v7.3h-4.2l-2.5,4.3h8.9c1.2,0,2.2-1,2.2-2.1v-16.8L589.8,336.9z
	 M578.4,349.1c0.9-0.1,1.7-0.6,2.2-1.3l16.1-28.8c0.8-1.3,0.3-2.9-1-3.7c-1.3-0.7-2.9-0.3-3.7,1c0,0,0,0,0,0l-14.1,25.3l-8.6-11.1
	c-0.9-1.2-2.6-1.4-3.8-0.5s-1.4,2.6-0.5,3.8l11.1,14.3c0.5,0.7,1.3,1,2.1,1C578.3,349.2,578.4,349.2,578.4,349.1L578.4,349.1z"/>
</svg>
