<svg xmlns="http://www.w3.org/2000/svg" id="Layer_1" viewBox="0 0 590 158.01" width="590" height="158.01"><style>.st0{fill:#2997ff}.st1{fill:#fff}</style><path d="M146.64 158.01H16.72C7.49 158.01 0 150.52 0 141.29V16.72C0 7.49 7.49 0 16.72 0h129.92c9.23 0 16.72 7.49 16.72 16.72v124.57c0 9.23-7.48 16.72-16.72 16.72z" class="st0"/><path d="M136.6 148.92h-15.58c-7.73 0-10.53-5.61-11.45-7.45-.04-.08-.08-.16-.11-.24L102.55 126H58.02l-6.86 15.11c-2 4.82-6.44 7.81-11.62 7.81H23.96c-3.65 0-6.95-1.75-8.83-4.68-1.87-2.92-2.08-6.63-.57-9.91l55.7-120.52c.03-.06.06-.13.09-.19 1.85-3.71 5.25-5.84 9.31-5.84h1.79c2.39 0 6.77.76 9.31 5.84.04.07.07.14.1.22l55.15 120.52c1.5 3.26 1.29 6.96-.58 9.88-1.87 2.92-5.17 4.68-8.83 4.68zm-3.32-8.74c0 .01.01.01.01.02l-.01-.02zM73.07 92.12h14.34l-7.24-15.94-7.1 15.94z" class="st1"/><path d="M20.92 137.26L76.61 16.74c.54-1.07 1.43-1.97 3.04-1.97h1.79c1.79 0 2.51.9 3.04 1.97l55.15 120.52c1.07 2.33-.36 4.66-3.04 4.66h-15.58c-2.69 0-3.94-1.07-5.19-3.58L107.05 119H53.51l-8.77 19.34c-.72 1.79-2.33 3.58-5.19 3.58H23.96c-2.68 0-4.11-2.33-3.04-4.66zm77.36-38.14l-17.91-39.4h-.54l-17.55 39.4h36zM444.17 0H314.25c-9.23 0-16.72 7.49-16.72 16.72v124.57c0 9.23 7.49 16.72 16.72 16.72h129.92c9.23 0 16.72-7.49 16.72-16.72V16.72c0-9.23-7.48-16.72-16.72-16.72zm-1.65 143.94c-1.78 2.78-4.91 4.44-8.38 4.44h-15.58c-7.4 0-10.09-5.39-10.98-7.16-.04-.07-.07-.15-.1-.22l-7.05-15.54h-45.21l-7 15.43c-1.92 4.62-6.17 7.49-11.13 7.49H321.5c-3.47 0-6.6-1.66-8.38-4.44-1.77-2.77-1.97-6.28-.54-9.4l55.69-120.52.09-.18c1.76-3.53 4.98-5.55 8.83-5.55h1.79c2.26 0 6.42.72 8.83 5.55.03.07.06.13.1.2l55.15 120.52c1.43 3.1 1.23 6.61-.54 9.38z" class="st0"/><path d="M369.78 92.65h15.99l-8.08-17.77zm101.13 44.61L526.6 16.74c.54-1.07 1.43-1.97 3.04-1.97h1.79c1.79 0 2.51.9 3.04 1.97l55.15 120.52c1.07 2.33-.36 4.66-3.04 4.66H571c-2.69 0-3.94-1.07-5.19-3.58L557.04 119H503.5l-8.77 19.34c-.72 1.79-2.33 3.58-5.19 3.58h-15.58c-2.69 0-4.12-2.33-3.05-4.66zm77.37-38.14l-17.91-39.4h-.54l-17.55 39.4h36z" class="st0"/></svg>