<svg xmlns="http://www.w3.org/2000/svg" id="Express" viewBox="0 0 600 118.53" width="600" height="118.53"><style>.st0{fill:#dbdada}.st1{fill:#2997ff}.st2{fill:#f47920}.st3{fill:#472f92}</style><path d="M598.29 67.06c0-4.28-3.04-7.42-7.23-7.42-4.18 0-7.23 3.14-7.23 7.42s3.04 7.41 7.23 7.41 7.23-3.13 7.23-7.41zm-9.13.38v4.85h-1.57v-10.7h3.9c2.28 0 3.33 1 3.33 2.95 0 1.19-.81 2.14-1.86 2.28v.05c.9.14 1.24.95 1.43 2.43.14.95.33 2.61.67 3h-1.86c-.43-1-.38-2.43-.72-3.61-.28-.9-.76-1.24-1.8-1.24h-1.52v-.01zm1.95-1.38c1.52 0 1.95-.81 1.95-1.52 0-.85-.43-1.52-1.95-1.52h-1.95v3.04h1.95zm-8.99 1c0-5.28 4.19-8.84 8.94-8.84 4.76 0 8.94 3.57 8.94 8.84 0 5.28-4.18 8.84-8.94 8.84-4.75 0-8.94-3.56-8.94-8.84zm-30.97 7.3L540.84 62.8l-10.21 11.56h-21.49l21.01-23.6-21.01-23.6h22.16l10.41 11.46 10.01-11.46h21.39l-20.9 23.5 21.19 23.7zm-83.29 0V0h41.28v16.58h-23.79v10.58h23.79V43.1h-23.79v14.64h23.79v16.62zM450.45 0v30.43h-.19c-3.86-4.43-8.67-5.97-14.26-5.97-11.45 0-20.07 7.78-23.1 18.07-3.45-11.33-12.35-18.28-25.55-18.28-10.72 0-19.18 4.81-23.6 12.65v-9.74h-22.16V16.58h24.18V0h-43.93v74.36h19.75V43.1h19.69c-.59 2.3-.9 4.75-.9 7.35 0 15.51 11.85 26.4 26.97 26.4 12.72 0 21.1-5.97 25.53-16.86h-16.93c-2.29 3.27-4.03 4.24-8.6 4.24-5.31 0-9.88-4.63-9.88-10.12h34.47c1.49 12.32 11.09 22.95 24.26 22.95 5.68 0 10.88-2.79 14.06-7.51h.19v4.81h17.41V0h-17.41zm-72.43 43.33c1.1-4.72 4.76-7.81 9.34-7.81 5.03 0 8.51 2.99 9.43 7.81h-18.77zm61.87 19.71c-6.42 0-10.41-5.98-10.41-12.23 0-6.67 3.47-13.09 10.41-13.09 7.19 0 10.06 6.42 10.06 13.09-.01 6.34-3.04 12.23-10.06 12.23zm27.98 48.5V84.89h14.72v1.99H470.3v9.82h11.77v1.99H470.3v10.85h12.84v1.99h-15.27zm17.03 0l7.18-9.57-6.81-9.05h2.76l5.56 7.4 5.45-7.4h2.76l-6.92 9.05 7.21 9.57h-2.79l-5.96-7.92-5.67 7.92h-2.77zm21.86 6.99h-2.25V98.48c0-1.84 0-3.72-.11-5.56h2.21l.07 2.8c1.4-2.21 3.23-3.24 6-3.24 5.74 0 8.2 4.75 8.2 9.75 0 5.01-2.46 9.76-8.2 9.76-2.58 0-4.6-.99-5.93-3.13v9.67zm11.74-16.3c0-3.97-1.66-7.87-6.07-7.87-4.16 0-5.67 3.43-5.67 7.87 0 4.46 1.51 7.87 5.67 7.87 4.41 0 6.07-3.89 6.07-7.87zm13.93-7.58c-3.72 0-5.01 3.13-5.01 6.37v10.53h-2.25V98.4c0-1.8-.03-3.64-.11-5.48h2.21l.14 2.69c1.11-2.13 2.95-3.13 5.41-3.13.33 0 .7.03 1.03.07v2.25c-.5-.08-.9-.15-1.42-.15zm4.19 7.98c0 4.19 1.99 7.65 6.07 7.65 3.16 0 4.64-2.09 5.19-4.19h2.14c-1 3.9-3.39 5.89-7.62 5.89-5.67 0-8.17-4.2-8.17-9.42 0-5.34 2.61-10.08 8.47-10.08 5.93 0 7.51 5.19 7.51 10.15h-13.59zm.07-1.69h11.11c0-3.64-1.73-6.77-5.26-6.77-3.2 0-5.41 2.43-5.85 6.77zm22.27 11.04c-3.82 0-6.69-1.8-6.69-5.89h2.24c0 2.79 1.84 4.19 4.56 4.19 2.54 0 4.52-1.21 4.52-3.71 0-2.25-2.32-2.84-4.75-3.53-2.94-.85-6.15-1.77-6.15-5.37 0-4.01 3.35-5.19 6.48-5.19 3.6 0 6.29 1.4 6.4 5.26h-2.25c-.11-2.2-1.69-3.46-4.08-3.46-1.88 0-4.16.73-4.16 3.16 0 2.21 2.28 2.84 4.71 3.5 2.95.81 6.18 1.69 6.18 5.3.02 4.2-3.22 5.74-7.01 5.74zm15.57 0c-3.83 0-6.7-1.8-6.7-5.89h2.25c0 2.79 1.84 4.19 4.57 4.19 2.54 0 4.52-1.21 4.52-3.71 0-2.25-2.32-2.84-4.75-3.53-2.94-.85-6.14-1.77-6.14-5.37 0-4.01 3.35-5.19 6.48-5.19 3.6 0 6.29 1.4 6.4 5.26h-2.24c-.11-2.2-1.69-3.46-4.08-3.46-1.88 0-4.16.73-4.16 3.16 0 2.21 2.28 2.84 4.71 3.5 2.94.81 6.18 1.69 6.18 5.3-.01 4.2-3.25 5.74-7.04 5.74z" class="st0"/><path d="M509.25 27.16V43.1h-23.79v14.64h23.79v16.62l21.01-23.6z" class="st1"/><path d="M276.45 67.06c0-4.28-3.04-7.42-7.23-7.42-4.18 0-7.23 3.14-7.23 7.42s3.04 7.41 7.23 7.41 7.23-3.13 7.23-7.41zm-9.13.38v4.85h-1.57v-10.7h3.9c2.28 0 3.33 1 3.33 2.95 0 1.19-.81 2.14-1.86 2.28v.05c.9.14 1.24.95 1.43 2.43.14.95.33 2.61.67 3h-1.86c-.43-1-.38-2.43-.72-3.61-.28-.9-.76-1.24-1.8-1.24h-1.52v-.01zm1.95-1.38c1.52 0 1.95-.81 1.95-1.52 0-.85-.43-1.52-1.95-1.52h-1.95v3.04h1.95zm-8.99 1c0-5.28 4.19-8.84 8.94-8.84 4.76 0 8.94 3.57 8.94 8.84 0 5.28-4.18 8.84-8.94 8.84-4.75 0-8.94-3.56-8.94-8.84zm-30.97 7.3L219 62.8l-10.21 11.56H187.3l21.01-23.6-21.01-23.6h22.16l10.41 11.46 10.01-11.46h21.39l-20.9 23.5 21.19 23.7zm-83.28 0V0h41.27v16.58h-23.79v10.58h23.79V43.1h-23.79v14.64h23.79v16.62z" class="st2"/><path d="M128.61 0v30.43h-.19c-3.86-4.43-8.67-5.97-14.26-5.97-11.45 0-20.07 7.78-23.1 18.07-3.45-11.33-12.35-18.28-25.55-18.28-10.72 0-19.18 4.81-23.6 12.65v-9.74H19.75V16.58h24.18V0H0v74.36h19.75V43.1h19.69c-.59 2.3-.9 4.75-.9 7.35 0 15.51 11.85 26.4 26.97 26.4 12.72 0 21.1-5.97 25.53-16.86H74.12c-2.29 3.27-4.03 4.24-8.6 4.24-5.31 0-9.88-4.63-9.88-10.12h34.47c1.49 12.32 11.09 22.95 24.26 22.95 5.68 0 10.88-2.79 14.06-7.51h.19v4.81h17.41V0h-17.42zM56.18 43.33c1.1-4.72 4.76-7.81 9.34-7.81 5.03 0 8.51 2.99 9.43 7.81H56.18zm61.87 19.71c-6.42 0-10.41-5.98-10.41-12.23 0-6.67 3.47-13.09 10.41-13.09 7.19 0 10.06 6.42 10.06 13.09 0 6.34-3.04 12.23-10.06 12.23zm27.98 48.5V84.89h14.72v1.99h-12.29v9.82h11.77v1.99h-11.77v10.85h12.84v1.99h-15.27zm17.03 0l7.18-9.57-6.81-9.05h2.76l5.56 7.4 5.45-7.4h2.76l-6.92 9.05 7.21 9.57h-2.79l-5.96-7.92-5.67 7.92h-2.77zm21.86 6.99h-2.25V98.48c0-1.84 0-3.72-.11-5.56h2.21l.07 2.8c1.4-2.21 3.23-3.24 6-3.24 5.74 0 8.2 4.75 8.2 9.75 0 5.01-2.46 9.76-8.2 9.76-2.58 0-4.6-.99-5.93-3.13v9.67zm11.74-16.3c0-3.97-1.66-7.87-6.07-7.87-4.16 0-5.67 3.43-5.67 7.87 0 4.46 1.51 7.87 5.67 7.87 4.41 0 6.07-3.89 6.07-7.87zm13.93-7.58c-3.72 0-5.01 3.13-5.01 6.37v10.53h-2.25V98.4c0-1.8-.03-3.64-.11-5.48h2.21l.14 2.69c1.11-2.13 2.95-3.13 5.41-3.13.33 0 .7.03 1.03.07v2.25c-.5-.08-.9-.15-1.42-.15zm4.19 7.98c0 4.19 1.99 7.65 6.07 7.65 3.16 0 4.64-2.09 5.19-4.19h2.14c-1 3.9-3.39 5.89-7.62 5.89-5.67 0-8.17-4.2-8.17-9.42 0-5.34 2.61-10.08 8.47-10.08 5.93 0 7.51 5.19 7.51 10.15h-13.59zm.07-1.69h11.11c0-3.64-1.73-6.77-5.26-6.77-3.2 0-5.41 2.43-5.85 6.77zm22.27 11.04c-3.82 0-6.69-1.8-6.69-5.89h2.24c0 2.79 1.84 4.19 4.56 4.19 2.54 0 4.52-1.21 4.52-3.71 0-2.25-2.32-2.84-4.75-3.53-2.94-.85-6.15-1.77-6.15-5.37 0-4.01 3.35-5.19 6.48-5.19 3.6 0 6.29 1.4 6.4 5.26h-2.25c-.11-2.2-1.69-3.46-4.08-3.46-1.88 0-4.16.73-4.16 3.16 0 2.21 2.28 2.84 4.71 3.5 2.95.81 6.18 1.69 6.18 5.3.02 4.2-3.22 5.74-7.01 5.74zm15.57 0c-3.83 0-6.7-1.8-6.7-5.89h2.25c0 2.79 1.84 4.19 4.57 4.19 2.54 0 4.52-1.21 4.52-3.71 0-2.25-2.32-2.84-4.75-3.53-2.94-.85-6.14-1.77-6.14-5.37 0-4.01 3.35-5.19 6.48-5.19 3.6 0 6.29 1.4 6.4 5.26h-2.24c-.11-2.2-1.69-3.46-4.08-3.46-1.88 0-4.16.73-4.16 3.16 0 2.21 2.28 2.84 4.71 3.5 2.94.81 6.18 1.69 6.18 5.3-.01 4.2-3.25 5.74-7.04 5.74z" class="st3"/></svg>