<svg xmlns="http://www.w3.org/2000/svg" id="a" viewBox="0 0 821.26 486.7" width="821.26" height="486.7"><defs><style>.b{fill:#2997ff}.c{stroke-dasharray:0 0 0 7.81}.c,.d,.e,.f,.g,.h,.i,.j{fill:none;stroke:#2997ff;stroke-linecap:round;stroke-linejoin:round;stroke-width:4px}.d{stroke-dasharray:0 0 0 8}.e{stroke-dasharray:0 0 0 7.88}.g{stroke-dasharray:0 0 0 8.05}.h{stroke-dasharray:0 0 0 7.74}.k{isolation:isolate}.i{stroke-dasharray:0 0 0 7.42}.j{stroke-dasharray:0 0 0 8.88}</style></defs><path d="M394.2 25l-4.1-25h29c5.3 6.6 5.5 8.3 13.8 8.3h48.7l-4 16.6h-8.4l1.9-8.3h-38.2c-9.7 0-13.1-2.6-17.8-8.3h-15.5l2.9 16.7h-8.3zm68.1 8.3l-16.2-12.5-6.1 7.9 5.9 4.6h-8.2l-16.1-12.5-9.6 12.5h-26.1l8.4 49.9h83.2l8.2-49.9h-23.4zm8 41.6h-68.9l-5.8-33.3H476l-5.7 33.3zM187.8 193.6l-4.1-25h29c5.3 6.6 5.5 8.3 13.8 8.3h48.7l-4 16.6h-8.4l1.9-8.3h-38.2c-9.7 0-13.1-2.6-17.8-8.3h-15.5l2.9 16.7h-8.3zm68.1 8.3l-16.2-12.5-6.1 7.9 5.9 4.6h-8.2l-16.1-12.5-9.6 12.5h-26.1l8.4 49.9h83.2l8.2-49.9h-23.4zm8 41.6H195l-5.8-33.3h80.4l-5.7 33.3z" class="b"/><g class="k"><path d="M321.18 106.73l-.43 1.36c-.94-.08-1.55-.4-1.87-1.23-.61.9-1.52 1.26-2.54 1.26-1.68 0-2.72-1.07-2.72-2.61 0-1.84 1.38-2.83 3.84-2.83h1.07v-.48c0-1.1-.5-1.47-1.58-1.47-.58 0-1.39.16-2.26.45l-.46-1.39c1.04-.4 2.11-.61 3.06-.61 2.27 0 3.27 1.04 3.27 2.91v3.55c0 .69.22.93.64 1.09zm-2.66-1.14v-1.71h-.85c-1.33 0-1.98.48-1.98 1.47 0 .82.42 1.28 1.2 1.28.7 0 1.25-.37 1.63-1.04zm11.99-1.97c0 2.59-1.2 4.5-3.35 4.5-.86 0-1.6-.3-2.13-.93v3.95l-2.05.22V99.4h1.79l.11 1.04c.67-.88 1.57-1.28 2.48-1.28 2.21 0 3.14 1.74 3.14 4.45zm-2.15.02c0-2.14-.58-2.93-1.6-2.93-.72 0-1.33.5-1.73 1.15v3.81c.4.59.91.88 1.55.88 1.12 0 1.78-.87 1.78-2.91zm11.58-.02c0 2.59-1.2 4.5-3.35 4.5-.86 0-1.6-.3-2.13-.93v3.95l-2.05.22V99.4h1.79l.11 1.04c.67-.88 1.57-1.28 2.48-1.28 2.21 0 3.14 1.74 3.14 4.45zm-2.15.02c0-2.14-.58-2.93-1.6-2.93-.72 0-1.33.5-1.73 1.15v3.81c.4.59.91.88 1.55.88 1.12 0 1.78-.87 1.78-2.91zm3.95 2.3v-9.92l2.05-.22v10.08c0 .4.13.59.48.59.18 0 .34-.03.46-.08l.45 1.44c-.35.16-.85.29-1.38.29-1.3 0-2.06-.78-2.06-2.18zm11.7-1.66h-5.31c.16 1.73.96 2.29 2.08 2.29.75 0 1.38-.24 2.11-.75l.85 1.17c-.83.67-1.86 1.14-3.14 1.14-2.62 0-4.03-1.75-4.03-4.42s1.36-4.53 3.76-4.53 3.73 1.6 3.73 4.27c0 .27-.03.61-.05.83zm-1.98-1.42c0-1.39-.5-2.22-1.65-2.22-.96 0-1.57.64-1.68 2.32h3.33v-.1zm9.55-2.68l-.8 1.2c-.7-.45-1.38-.69-2.13-.69-.82 0-1.28.34-1.28.85 0 .56.34.82 1.78 1.22 1.73.46 2.71 1.17 2.71 2.67 0 1.76-1.63 2.69-3.57 2.69-1.46 0-2.59-.5-3.38-1.2l1.02-1.15c.66.5 1.44.83 2.3.83.91 0 1.5-.38 1.5-1.02 0-.7-.34-.93-1.92-1.38-1.74-.48-2.51-1.31-2.51-2.56 0-1.41 1.3-2.46 3.27-2.46 1.22 0 2.21.38 3.01 1.01zm8.8 4.1h-5.31c.16 1.73.96 2.29 2.08 2.29.75 0 1.38-.24 2.11-.75l.85 1.17c-.83.67-1.86 1.14-3.14 1.14-2.62 0-4.03-1.75-4.03-4.42s1.36-4.53 3.76-4.53 3.73 1.6 3.73 4.27c0 .27-.03.61-.05.83zm-1.98-1.42c0-1.39-.5-2.22-1.65-2.22-.96 0-1.57.64-1.68 2.32h3.33v-.1zm10.76 1.42h-5.31c.16 1.73.96 2.29 2.08 2.29.75 0 1.38-.24 2.11-.75l.85 1.17c-.83.67-1.86 1.14-3.14 1.14-2.62 0-4.03-1.75-4.03-4.42s1.36-4.53 3.76-4.53 3.73 1.6 3.73 4.27c0 .27-.03.61-.05.83zm-1.98-1.42c0-1.39-.5-2.22-1.65-2.22-.96 0-1.57.64-1.68 2.32h3.33v-.1zm10.91-6.84v11.86h-1.81l-.14-1.07c-.51.77-1.33 1.31-2.42 1.31-2.11 0-3.22-1.78-3.22-4.47s1.31-4.48 3.41-4.48c.9 0 1.6.38 2.13.91v-4.29l2.05.22zm-2.05 9.46v-3.87c-.45-.54-.93-.9-1.62-.9-1.06 0-1.76.9-1.76 2.93 0 2.18.62 2.93 1.63 2.93.75 0 1.26-.37 1.74-1.09zm4.08-3.43h4.83v1.63h-4.83v-1.63zm8.91 5.08c0 2.59-1.18 3.46-3.09 4.23l-.66-1.49c1.1-.51 1.7-.94 1.7-2.61v-7.84h2.05v7.72zm.27-10.76c0 .69-.53 1.23-1.3 1.23s-1.28-.54-1.28-1.23.53-1.25 1.28-1.25 1.3.54 1.3 1.25zm9.59 7.27c0 2.67-1.49 4.48-3.99 4.48s-3.99-1.7-3.99-4.48 1.49-4.46 4-4.46 3.97 1.7 3.97 4.46zm-5.81 0c0 2.03.62 2.93 1.82 2.93s1.83-.91 1.83-2.93-.62-2.91-1.81-2.91-1.84.91-1.84 2.91zm14.61-1.89v6.13h-2.05v-5.81c0-1.06-.42-1.36-1.04-1.36-.72 0-1.28.5-1.78 1.26v5.91h-2.05V96.04l2.05-.21v4.59c.66-.8 1.44-1.25 2.46-1.25 1.5 0 2.4.98 2.4 2.58zm9.21 0v6.13h-2.05v-5.81c0-1.06-.4-1.36-1.04-1.36-.74 0-1.28.5-1.78 1.28v5.89h-2.05v-8.47h1.78l.16 1.1c.66-.85 1.5-1.34 2.58-1.34 1.52 0 2.4.96 2.4 2.58zm9.22 0v6.13h-2.05v-5.81c0-1.06-.4-1.36-1.04-1.36-.74 0-1.28.5-1.78 1.28v5.89h-2.05v-8.47h1.78l.16 1.1c.66-.85 1.5-1.34 2.58-1.34 1.52 0 2.4.96 2.4 2.58zm6.34 6.16c-.64 1.98-1.89 3.26-4.4 3.46l-.21-1.49c1.68-.26 2.22-.8 2.71-2h-.7l-2.69-8.47h2.18l1.84 7.11 1.92-7.11h2.11l-2.75 8.5zm3.43-5.86h4.83v1.63h-4.83v-1.63zm14.09.45c0 3.6-1.31 5.62-3.86 5.62s-3.86-2.02-3.86-5.62 1.33-5.59 3.86-5.59 3.86 2 3.86 5.59zm-5.6 0c0 3.01.56 4.07 1.75 4.07s1.75-1.02 1.75-4.07-.56-4.03-1.75-4.03-1.75 1.06-1.75 4.03zm13.57-1.71l-.43 3.25h.99v1.41h-1.18l-.32 2.43h-1.71l.32-2.43h-2l-.32 2.43h-1.7l.32-2.43h-.96v-1.41h1.14l.43-3.25h-.98v-1.42h1.17l.29-2.26h1.71l-.3 2.26h2l.3-2.26h1.71l-.3 2.26h.98v1.42h-1.15zm-1.71 0h-2l-.43 3.25h2l.43-3.25zm11.53 1.71c0 3.6-1.31 5.62-3.86 5.62s-3.86-2.02-3.86-5.62 1.33-5.59 3.86-5.59 3.86 2 3.86 5.59zm-5.6 0c0 3.01.56 4.07 1.74 4.07s1.75-1.02 1.75-4.07-.56-4.03-1.75-4.03-1.74 1.06-1.74 4.03zm7.16-.45h4.83v1.63h-4.83v-1.63zm15.38 5.83h-2.56l-1.28-6.64-1.31 6.64h-2.51l-1.87-8.47h2.05l1.18 6.96 1.47-6.96h2.1l1.34 6.96 1.26-6.96h1.97l-1.84 8.47zm10.68-4.24c0 2.67-1.49 4.48-3.99 4.48s-3.99-1.7-3.99-4.48 1.49-4.46 4-4.46 3.97 1.7 3.97 4.46zm-5.81 0c0 2.03.62 2.93 1.82 2.93s1.83-.91 1.83-2.93-.62-2.91-1.81-2.91-1.84.91-1.84 2.91zm12.72-4.34l-.35 1.98c-.26-.06-.45-.1-.75-.1-1.02 0-1.55.75-1.87 2.18v4.51h-2.05V99.4h1.78l.19 1.67c.4-1.22 1.22-1.89 2.21-1.89.3 0 .58.03.85.11zm8-3.28v11.86h-1.81l-.14-1.07c-.51.77-1.33 1.31-2.42 1.31-2.11 0-3.22-1.78-3.22-4.47s1.31-4.48 3.41-4.48c.9 0 1.6.38 2.13.91v-4.29l2.05.22zm-2.05 9.46v-3.87c-.45-.54-.93-.9-1.62-.9-1.06 0-1.76.9-1.76 2.93 0 2.18.62 2.93 1.63 2.93.75 0 1.26-.37 1.74-1.09zm15.66-3.73v6.13h-2.05v-5.81c0-1.06-.42-1.36-.93-1.36-.7 0-1.14.5-1.6 1.28v5.89h-2.05v-5.81c0-1.06-.43-1.36-.93-1.36-.72 0-1.15.5-1.62 1.28v5.89h-2.05v-8.47h1.78l.16 1.1c.61-.85 1.38-1.34 2.45-1.34.99 0 1.73.53 2.05 1.42.64-.88 1.42-1.42 2.54-1.42 1.34 0 2.24.98 2.24 2.58zm9.19 4.98l-.43 1.36c-.94-.08-1.55-.4-1.87-1.23-.61.9-1.52 1.26-2.54 1.26-1.68 0-2.72-1.07-2.72-2.61 0-1.84 1.38-2.83 3.84-2.83h1.07v-.48c0-1.1-.5-1.47-1.58-1.47-.58 0-1.39.16-2.26.45l-.46-1.39c1.04-.4 2.11-.61 3.06-.61 2.27 0 3.26 1.04 3.26 2.91v3.55c0 .69.22.93.64 1.09zm-2.66-1.14v-1.71h-.85c-1.33 0-1.98.48-1.98 1.47 0 .82.42 1.28 1.2 1.28.71 0 1.25-.37 1.63-1.04zm9.49-6.29l-.35 1.98c-.26-.06-.45-.1-.75-.1-1.02 0-1.55.75-1.87 2.18v4.51h-2.05V99.4h1.78l.19 1.67c.4-1.22 1.22-1.89 2.21-1.89.3 0 .58.03.85.11zm3.29 8.58h-2.05V96.02l2.05-.22v12.08zm2.26-4.74l3.09 4.74h-2.35l-2.91-4.63 2.83-3.84h2.16l-2.82 3.73z" class="b"/></g><g class="k"><path d="M176.84 263.78h6.26l-.22 1.57h-3.92v3.31h3.41v1.57h-3.41v4.61h-2.11v-11.06zm14.62 6.82c0 2.67-1.49 4.48-3.99 4.48s-3.99-1.7-3.99-4.48 1.49-4.46 4-4.46 3.97 1.7 3.97 4.46zm-5.81 0c0 2.03.62 2.93 1.82 2.93s1.82-.91 1.82-2.93-.62-2.91-1.81-2.91-1.84.91-1.84 2.91zm12.72-4.34l-.35 1.98c-.26-.06-.45-.1-.75-.1-1.02 0-1.55.75-1.87 2.18v4.51h-2.05v-8.47h1.78l.19 1.67c.4-1.22 1.22-1.89 2.21-1.89.3 0 .58.03.85.11zm13.09 1.04c0 2.54-1.84 3.68-4.34 3.68h-1.3v3.86h-2.11v-11.06h3.27c2.79 0 4.48 1.14 4.48 3.52zm-2.21 0c0-1.39-.85-1.97-2.29-1.97h-1.14v4.07h1.14c1.41 0 2.29-.48 2.29-2.1zm8.53-1.04l-.35 1.98c-.26-.06-.45-.1-.75-.1-1.02 0-1.55.75-1.87 2.18v4.51h-2.05v-8.47h1.78l.19 1.67c.4-1.22 1.22-1.89 2.21-1.89.3 0 .58.03.85.11zm8.39 4.34c0 2.67-1.49 4.48-3.99 4.48s-3.99-1.7-3.99-4.48 1.49-4.46 4-4.46 3.97 1.7 3.97 4.46zm-5.81 0c0 2.03.62 2.93 1.82 2.93s1.82-.91 1.82-2.93-.62-2.91-1.81-2.91-1.84.91-1.84 2.91zm14.77-7.62v11.86h-1.81l-.14-1.07c-.51.77-1.33 1.31-2.42 1.31-2.11 0-3.22-1.78-3.22-4.47s1.31-4.48 3.41-4.48c.9 0 1.6.38 2.13.91v-4.29l2.05.22zm-2.05 9.46v-3.87c-.45-.54-.93-.9-1.62-.9-1.06 0-1.76.9-1.76 2.93 0 2.18.62 2.93 1.63 2.93.75 0 1.26-.37 1.74-1.09zm11.18 2.4h-1.78l-.11-1.18c-.62.96-1.42 1.42-2.59 1.42-1.54 0-2.35-.99-2.35-2.62v-6.08h2.05v5.83c0 .99.32 1.33 1.02 1.33s1.28-.46 1.71-1.2v-5.96h2.05v8.47zm8.59-7.71l-.91 1.23c-.56-.42-1.07-.61-1.71-.61-1.18 0-1.9.86-1.9 2.9s.75 2.77 1.9 2.77c.64 0 1.09-.21 1.71-.61l.91 1.3c-.77.62-1.65.98-2.74.98-2.45 0-3.97-1.7-3.97-4.4s1.52-4.54 3.95-4.54c1.1 0 1.95.3 2.75.99zm6.34 7.31c-.61.43-1.38.64-2.13.64-1.66-.02-2.54-.96-2.54-2.77v-4.47h-1.33v-1.47h1.33v-1.87l2.05-.24v2.11h1.97l-.21 1.47h-1.76v4.42c0 .83.27 1.17.9 1.17.32 0 .64-.1 1.01-.3l.72 1.31zm3.42-11.11c0 .69-.53 1.23-1.3 1.23s-1.28-.54-1.28-1.23.53-1.25 1.28-1.25 1.3.54 1.3 1.25zm-.26 11.51h-2.05v-8.47h2.05v8.47zm9.87-4.24c0 2.67-1.49 4.48-3.99 4.48s-3.99-1.7-3.99-4.48 1.49-4.46 4-4.46 3.97 1.7 3.97 4.46zm-5.81 0c0 2.03.62 2.93 1.82 2.93s1.82-.91 1.82-2.93-.62-2.91-1.81-2.91-1.84.91-1.84 2.91zm14.61-1.89v6.13h-2.05v-5.81c0-1.06-.4-1.36-1.04-1.36-.74 0-1.28.5-1.78 1.28v5.89h-2.05v-8.47h1.78l.16 1.1c.66-.85 1.5-1.34 2.58-1.34 1.52 0 2.4.96 2.4 2.58z" class="b"/></g><path d="M427.2 381.1h-33v77.6h64.7v-46.6c0-7.8-21.3-31-31.7-31zm-26.5 71.1v-64.7h23.9c13.3 0 8.4 19.4 8.4 19.4s19.4-5.5 19.4 8.1l.1 37.3-51.8-.1z" class="b"/><g class="k"><path d="M405.23 470.89l-1.07 1.25c-.64-.51-1.3-.78-2.05-.78-1.54 0-2.72 1.12-2.72 4.11s1.15 4.1 2.72 4.1c.96 0 1.62-.42 2.26-.9l.99 1.25c-.67.69-1.83 1.34-3.33 1.34-2.87 0-4.87-2.03-4.87-5.79s2.11-5.75 4.83-5.75c1.41 0 2.32.42 3.23 1.17zm12.03 10.13h-2.06l-.29-4.63c-.1-1.63-.18-3.35-.14-4.51l-2.02 7.94h-2l-2.14-7.96c.06 1.49.03 3.01-.06 4.59l-.27 4.56h-2.05l.88-11.06h2.72l1.97 7.75 1.86-7.75h2.75l.86 11.06zm6.09-4.2v4.19h-2.14v-4.18l-3.55-6.88H420l2.34 5.14 2.34-5.14h2.24l-3.55 6.87zm6.93 4.2h-2.11v-11.06h2.11v11.06zm2.39-6.05l4.13 6.05h-2.51l-3.91-5.91 3.83-5.15h2.29l-3.83 5.01zm7.23 4.99c0 .7-.58 1.3-1.31 1.3s-1.28-.59-1.28-1.3.56-1.3 1.28-1.3 1.31.58 1.31 1.3zm8.7-.09l-.43 1.36c-.94-.08-1.55-.4-1.87-1.23-.61.9-1.52 1.26-2.54 1.26-1.68 0-2.72-1.07-2.72-2.61 0-1.84 1.38-2.83 3.84-2.83h1.07v-.48c0-1.1-.5-1.47-1.58-1.47-.58 0-1.39.16-2.26.45l-.46-1.39c1.04-.4 2.11-.61 3.06-.61 2.27 0 3.26 1.04 3.26 2.91v3.55c0 .69.22.93.64 1.09zm-2.66-1.14v-1.71h-.85c-1.33 0-1.98.48-1.98 1.47 0 .82.42 1.28 1.2 1.28.71 0 1.25-.37 1.63-1.04zm6.77-9.22c0 .69-.53 1.23-1.3 1.23s-1.28-.54-1.28-1.23.53-1.25 1.28-1.25 1.3.54 1.3 1.25zm-.26 11.51h-2.05v-8.47h2.05v8.47z" class="b"/></g><path d="M328.6 381.1h-33v77.6h64.7v-46.6c0-7.8-21.3-31-31.7-31zm-26.5 71.1v-64.7H326c13.3 0 8.4 19.4 8.4 19.4s19.4-5.5 19.4 8.1l.1 37.3-51.8-.1z" class="b"/><g class="k"><path d="M308.09 476.58h-1.34v4.43h-2.11v-11.06h3.3c2.9 0 4.39 1.06 4.39 3.25 0 1.5-.74 2.4-2.24 2.99l2.9 4.82h-2.43l-2.45-4.43zm-1.34-1.52h1.31c1.31 0 2.05-.53 2.05-1.86 0-1.2-.69-1.71-2.22-1.71h-1.14v3.57zm15.47-4.05l-1.14 1.18c-.75-.59-1.38-.88-2.32-.88-1.57 0-2.91 1.18-2.91 4.16s.9 4.16 2.62 4.16c.62 0 1.23-.13 1.76-.43v-2.88h-1.66l-.22-1.57h3.97v5.41c-1.1.67-2.42 1.09-3.81 1.09-3.15 0-4.88-1.99-4.88-5.78s2.3-5.76 5.07-5.76c1.54 0 2.59.51 3.52 1.3zm10.17 6.82c0 2.43-1.94 3.19-4.63 3.19h-3.33v-11.06h2.9c2.85 0 4.58.8 4.58 2.82 0 1.38-.99 2.16-2.05 2.38 1.26.24 2.53.83 2.53 2.67zm-5.84-6.32v2.99h1.3c1.15 0 1.9-.51 1.9-1.55 0-1.12-.77-1.44-2.21-1.44h-.99zm3.63 6.24c0-1.33-.94-1.78-2.18-1.78h-1.46v3.46h1.23c1.39 0 2.4-.29 2.4-1.68zm5.99 2.21c0 .7-.58 1.3-1.31 1.3s-1.28-.59-1.28-1.3.56-1.3 1.28-1.3 1.31.58 1.31 1.3zm8.7-.09l-.43 1.36c-.94-.08-1.55-.4-1.87-1.23-.61.9-1.52 1.26-2.54 1.26-1.68 0-2.72-1.07-2.72-2.61 0-1.84 1.38-2.83 3.84-2.83h1.07v-.48c0-1.1-.5-1.47-1.58-1.47-.58 0-1.39.16-2.26.45l-.46-1.39c1.04-.4 2.11-.61 3.06-.61 2.27 0 3.27 1.04 3.27 2.91v3.55c0 .69.22.93.64 1.09zm-2.66-1.14v-1.71h-.85c-1.33 0-1.98.48-1.98 1.47 0 .82.42 1.28 1.2 1.28.7 0 1.25-.37 1.63-1.04zm6.77-9.22c0 .69-.53 1.23-1.3 1.23s-1.28-.54-1.28-1.23.53-1.25 1.28-1.25 1.3.54 1.3 1.25zm-.26 11.51h-2.05v-8.47h2.05v8.47z" class="b"/></g><path d="M230.1 381.1h-33v77.6h64.7v-46.6c0-7.8-21.3-31-31.7-31zm-26.5 71.1v-64.7h23.9c13.3 0 8.4 19.4 8.4 19.4s19.4-5.5 19.4 8.1l.1 37.3-51.8-.1z" class="b"/><g class="k"><path d="M210.96 471.08l-1.04 1.2c-.8-.66-1.57-.94-2.48-.94-.99 0-1.71.45-1.71 1.31 0 .8.43 1.15 2.27 1.73 1.94.61 3.28 1.41 3.28 3.49s-1.55 3.39-4.19 3.39c-1.76 0-3.07-.62-3.99-1.52l1.09-1.22c.82.69 1.7 1.1 2.85 1.1s2.03-.58 2.03-1.65c0-.93-.46-1.34-2.19-1.87-2.32-.72-3.33-1.65-3.33-3.33 0-1.84 1.58-3.06 3.76-3.06 1.62 0 2.69.48 3.65 1.36zm9.55 5.68c0 2.59-1.2 4.5-3.35 4.5-.86 0-1.6-.3-2.13-.93v3.95l-2.05.22v-11.96h1.79l.11 1.04c.67-.88 1.57-1.28 2.48-1.28 2.21 0 3.14 1.74 3.14 4.45zm-2.15.02c0-2.14-.58-2.93-1.6-2.93-.72 0-1.33.5-1.73 1.15v3.81c.4.59.91.88 1.55.88 1.12 0 1.78-.87 1.78-2.91zm11.51 0c0 2.67-1.49 4.48-3.99 4.48s-3.99-1.7-3.99-4.48 1.49-4.46 4-4.46 3.97 1.7 3.97 4.46zm-5.81 0c0 2.03.62 2.93 1.82 2.93s1.82-.91 1.82-2.93-.62-2.91-1.81-2.91-1.84.91-1.84 2.91zm12.58 3.84c-.61.43-1.38.64-2.13.64-1.66-.02-2.54-.96-2.54-2.77v-4.47h-1.33v-1.47h1.33v-1.87l2.05-.24v2.11h1.97l-.21 1.47h-1.76v4.42c0 .83.27 1.17.9 1.17.32 0 .64-.1 1.01-.3l.72 1.31zm3.23-.66c0 .7-.58 1.3-1.31 1.3s-1.28-.59-1.28-1.3.56-1.3 1.28-1.3 1.31.58 1.31 1.3zm8.7-.09l-.43 1.36c-.94-.08-1.55-.4-1.87-1.23-.61.9-1.52 1.26-2.54 1.26-1.68 0-2.72-1.07-2.72-2.61 0-1.84 1.38-2.83 3.84-2.83h1.07v-.48c0-1.1-.5-1.47-1.58-1.47-.58 0-1.39.16-2.26.45l-.46-1.39c1.04-.4 2.11-.61 3.06-.61 2.27 0 3.27 1.04 3.27 2.91v3.55c0 .69.22.93.64 1.09zm-2.66-1.14v-1.71h-.85c-1.33 0-1.98.48-1.98 1.47 0 .82.42 1.28 1.2 1.28.7 0 1.25-.37 1.63-1.04zm6.77-9.22c0 .69-.53 1.23-1.3 1.23s-1.28-.54-1.28-1.23.53-1.25 1.28-1.25 1.3.54 1.3 1.25zm-.26 11.51h-2.05v-8.47h2.05v8.47z" class="b"/></g><path d="M132.8 381.1h-33v77.6h64.7v-46.6c0-7.8-21.3-31-31.7-31zm-26.5 71.1v-64.7h23.9c13.3 0 8.4 19.4 8.4 19.4s19.4-5.5 19.4 8.1l.1 37.3-51.8-.1z" class="b"/><g class="k"><path d="M96.28 471.01l-1.14 1.18c-.75-.59-1.38-.88-2.32-.88-1.57 0-2.91 1.18-2.91 4.16s.9 4.16 2.62 4.16c.62 0 1.23-.13 1.76-.43v-2.88h-1.66l-.22-1.57h3.97v5.41c-1.1.67-2.42 1.09-3.81 1.09-3.15 0-4.88-1.99-4.88-5.78s2.3-5.76 5.07-5.76c1.54 0 2.59.51 3.52 1.3zm7.15 1.43l-.35 1.98c-.26-.06-.45-.1-.75-.1-1.02 0-1.55.75-1.87 2.18v4.51h-2.05v-8.47h1.78l.19 1.67c.4-1.22 1.22-1.89 2.21-1.89.3 0 .58.03.85.11zm7.85 4.98h-5.31c.16 1.73.96 2.29 2.08 2.29.75 0 1.38-.24 2.11-.75l.85 1.17c-.83.67-1.86 1.14-3.14 1.14-2.62 0-4.03-1.75-4.03-4.42s1.36-4.53 3.76-4.53 3.73 1.6 3.73 4.27c0 .27-.03.61-.05.83zM109.3 476c0-1.39-.5-2.22-1.65-2.22-.96 0-1.57.64-1.68 2.32h3.33v-.1zm7.86 5.05c-.64 1.98-1.89 3.26-4.4 3.46l-.21-1.49c1.68-.26 2.23-.8 2.71-2h-.7l-2.69-8.47h2.18l1.84 7.11 1.92-7.11h2.11l-2.75 8.5zm9.55-7.73l-.8 1.2c-.7-.45-1.38-.69-2.13-.69-.82 0-1.28.34-1.28.85 0 .56.34.82 1.78 1.22 1.73.46 2.71 1.17 2.71 2.67 0 1.76-1.63 2.69-3.57 2.69-1.46 0-2.59-.5-3.38-1.2l1.02-1.15c.66.5 1.44.83 2.3.83.91 0 1.5-.38 1.5-1.02 0-.7-.34-.93-1.92-1.38-1.74-.48-2.51-1.31-2.51-2.56 0-1.41 1.3-2.46 3.27-2.46 1.22 0 2.21.38 3.01 1.01zm8.06-.02l-.91 1.23c-.56-.42-1.07-.61-1.71-.61-1.18 0-1.9.86-1.9 2.9s.75 2.77 1.9 2.77c.64 0 1.09-.21 1.71-.61l.91 1.3c-.77.62-1.65.98-2.74.98-2.45 0-3.97-1.7-3.97-4.4s1.52-4.54 3.95-4.54c1.1 0 1.95.3 2.75.99zm8.26 6.57l-.43 1.36c-.94-.08-1.55-.4-1.87-1.23-.61.9-1.52 1.26-2.54 1.26-1.68 0-2.72-1.07-2.72-2.61 0-1.84 1.38-2.83 3.84-2.83h1.07v-.48c0-1.1-.5-1.47-1.58-1.47-.58 0-1.39.16-2.26.45l-.46-1.39c1.04-.4 2.11-.61 3.06-.61 2.27 0 3.27 1.04 3.27 2.91v3.55c0 .69.22.93.64 1.09zm-2.66-1.14v-1.71h-.85c-1.33 0-1.98.48-1.98 1.47 0 .82.42 1.28 1.2 1.28.7 0 1.25-.37 1.63-1.04zm4.26.35v-9.92l2.05-.22v10.08c0 .4.13.59.48.59.18 0 .34-.03.46-.08l.45 1.44c-.35.16-.85.29-1.38.29-1.3 0-2.06-.78-2.06-2.18zm11.69-1.66h-5.31c.16 1.73.96 2.29 2.08 2.29.75 0 1.38-.24 2.11-.75l.85 1.17c-.83.67-1.86 1.14-3.14 1.14-2.62 0-4.03-1.75-4.03-4.42s1.36-4.53 3.76-4.53 3.73 1.6 3.73 4.27c0 .27-.03.61-.05.83zm-1.98-1.42c0-1.39-.5-2.22-1.65-2.22-.96 0-1.57.64-1.68 2.32h3.33v-.1zm5.69 3.96c0 .7-.58 1.3-1.31 1.3s-1.28-.59-1.28-1.3.56-1.3 1.28-1.3 1.31.58 1.31 1.3zm8.71-.09l-.43 1.36c-.94-.08-1.55-.4-1.87-1.23-.61.9-1.52 1.26-2.54 1.26-1.68 0-2.72-1.07-2.72-2.61 0-1.84 1.38-2.83 3.84-2.83h1.07v-.48c0-1.1-.5-1.47-1.58-1.47-.58 0-1.39.16-2.26.45l-.46-1.39c1.04-.4 2.11-.61 3.06-.61 2.27 0 3.27 1.04 3.27 2.91v3.55c0 .69.22.93.64 1.09zm-2.66-1.14v-1.71h-.85c-1.33 0-1.98.48-1.98 1.47 0 .82.42 1.28 1.2 1.28.7 0 1.25-.37 1.63-1.04zm6.77-9.22c0 .69-.53 1.23-1.3 1.23s-1.28-.54-1.28-1.23.53-1.25 1.28-1.25 1.3.54 1.3 1.25zm-.26 11.51h-2.05v-8.47h2.05v8.47z" class="b"/></g><path d="M33 381.1H0v77.6h64.7v-46.6c0-7.8-21.3-31-31.7-31zM6.5 452.2v-64.7h23.9c13.3 0 8.4 19.4 8.4 19.4s19.4-5.5 19.4 8.1l.1 37.3-51.8-.1z" class="b"/><g class="k"><path d="M12.16 477.83c0 2.43-1.94 3.19-4.63 3.19H4.2v-11.06h2.9c2.85 0 4.58.8 4.58 2.82 0 1.38-.99 2.16-2.05 2.38 1.26.24 2.53.83 2.53 2.67zm-5.84-6.32v2.99h1.3c1.15 0 1.9-.51 1.9-1.55 0-1.12-.77-1.44-2.21-1.44h-.99zm3.63 6.24c0-1.33-.94-1.78-2.18-1.78H6.31v3.46h1.23c1.39 0 2.4-.29 2.4-1.68zm3.87 1.33v-9.92l2.05-.22v10.08c0 .4.13.59.48.59.18 0 .34-.03.46-.08l.45 1.44c-.35.16-.85.29-1.38.29-1.3 0-2.06-.78-2.06-2.18zm11.65.79l-.43 1.36c-.94-.08-1.55-.4-1.87-1.23-.61.9-1.52 1.26-2.54 1.26-1.68 0-2.72-1.07-2.72-2.61 0-1.84 1.38-2.83 3.84-2.83h1.07v-.48c0-1.1-.5-1.47-1.58-1.47-.58 0-1.39.16-2.26.45l-.46-1.39c1.04-.4 2.11-.61 3.06-.61 2.27 0 3.27 1.04 3.27 2.91v3.55c0 .69.22.93.64 1.09zm-2.66-1.14v-1.71h-.85c-1.33 0-1.98.48-1.98 1.47 0 .82.42 1.28 1.2 1.28.7 0 1.25-.37 1.63-1.04zm10.66-5.43l-.91 1.23c-.56-.42-1.07-.61-1.71-.61-1.18 0-1.9.86-1.9 2.9s.75 2.77 1.9 2.77c.64 0 1.09-.21 1.71-.61l.91 1.3c-.77.62-1.65.98-2.74.98-2.45 0-3.97-1.7-3.97-4.4s1.52-4.54 3.95-4.54c1.1 0 1.95.3 2.75.99zm3.5 7.72h-2.05v-11.86l2.05-.22v12.08zm2.26-4.74l3.09 4.74h-2.35l-2.91-4.63 2.83-3.84h2.16l-2.82 3.73zm6.32 3.68c0 .7-.58 1.3-1.31 1.3s-1.28-.59-1.28-1.3.56-1.3 1.28-1.3 1.31.58 1.31 1.3zm8.71-.09l-.43 1.36c-.94-.08-1.55-.4-1.87-1.23-.61.9-1.52 1.26-2.54 1.26-1.68 0-2.72-1.07-2.72-2.61 0-1.84 1.38-2.83 3.84-2.83h1.07v-.48c0-1.1-.5-1.47-1.58-1.47-.58 0-1.39.16-2.26.45l-.46-1.39c1.04-.4 2.11-.61 3.06-.61 2.27 0 3.27 1.04 3.27 2.91v3.55c0 .69.22.93.64 1.09zm-2.66-1.14v-1.71h-.85c-1.33 0-1.98.48-1.98 1.47 0 .82.42 1.28 1.2 1.28.7 0 1.25-.37 1.63-1.04zm6.77-9.22c0 .69-.53 1.23-1.3 1.23s-1.28-.54-1.28-1.23.53-1.25 1.28-1.25 1.3.54 1.3 1.25zm-.26 11.51h-2.05v-8.47h2.05v8.47z" class="b"/></g><path d="M363.3 49.7H233.4" class="e"/><path d="M229.4 57.5v97.6" class="c"/><path d="M507 49.7h130" class="e"/><path d="M32.3 363.4V330" class="i"/><path d="M40.4 326.3h382.1" class="g"/><path d="M426.5 333.7v33.4" class="i"/><path d="M132.2 344.2v22.2m199.6-22.2v22.2" class="j"/><path d="M232 335.3v35.5m0-84.1v35.5" class="d"/><path d="M648.6 49.7h89" class="h"/><path d="M741.5 57.5v97.6" class="c"/><g class="k"><path d="M667.61 273.93l-.43 1.36c-.94-.08-1.55-.4-1.87-1.23-.61.9-1.52 1.26-2.54 1.26-1.68 0-2.72-1.07-2.72-2.61 0-1.84 1.38-2.83 3.84-2.83h1.07v-.48c0-1.1-.5-1.47-1.58-1.47-.58 0-1.39.16-2.26.45l-.46-1.39c1.04-.4 2.11-.61 3.06-.61 2.27 0 3.26 1.04 3.26 2.91v3.55c0 .69.22.93.64 1.09zm-2.66-1.14v-1.71h-.85c-1.33 0-1.98.48-1.98 1.47 0 .82.42 1.28 1.2 1.28.71 0 1.25-.37 1.63-1.04zm11.99-1.96c0 2.59-1.2 4.5-3.35 4.5-.86 0-1.6-.3-2.13-.93v3.95l-2.05.22v-11.96h1.79l.11 1.04c.67-.88 1.57-1.28 2.48-1.28 2.21 0 3.14 1.74 3.14 4.45zm-2.14.02c0-2.14-.58-2.93-1.6-2.93-.72 0-1.33.5-1.73 1.15v3.81c.4.59.91.88 1.55.88 1.12 0 1.78-.87 1.78-2.91zm11.56-.02c0 2.59-1.2 4.5-3.35 4.5-.86 0-1.6-.3-2.13-.93v3.95l-2.05.22v-11.96h1.79l.11 1.04c.67-.88 1.57-1.28 2.48-1.28 2.21 0 3.14 1.74 3.14 4.45zm-2.14.02c0-2.14-.58-2.93-1.6-2.93-.72 0-1.33.5-1.73 1.15v3.81c.4.59.91.88 1.55.88 1.12 0 1.78-.87 1.78-2.91zm3.95 2.3v-9.92l2.05-.22v10.08c0 .4.13.59.48.59.18 0 .34-.03.46-.08l.45 1.44c-.35.16-.85.29-1.38.29-1.3 0-2.07-.78-2.07-2.18zm11.7-1.67h-5.31c.16 1.73.96 2.29 2.08 2.29.75 0 1.38-.24 2.11-.75l.85 1.17c-.83.67-1.86 1.14-3.14 1.14-2.62 0-4.03-1.75-4.03-4.42s1.36-4.53 3.76-4.53 3.73 1.6 3.73 4.27c0 .27-.03.61-.05.83zm-1.99-1.42c0-1.39-.5-2.22-1.65-2.22-.96 0-1.57.64-1.68 2.32h3.33v-.1zm9.55-2.68l-.8 1.2c-.7-.45-1.38-.69-2.13-.69-.82 0-1.28.34-1.28.85 0 .56.34.82 1.78 1.22 1.73.46 2.71 1.17 2.71 2.67 0 1.76-1.63 2.69-3.57 2.69-1.46 0-2.59-.5-3.38-1.2l1.02-1.15c.66.5 1.44.83 2.3.83.91 0 1.5-.38 1.5-1.02 0-.7-.34-.93-1.92-1.38-1.74-.48-2.51-1.31-2.51-2.56 0-1.41 1.3-2.46 3.27-2.46 1.22 0 2.21.38 3.01 1.01zm8.8 4.1h-5.31c.16 1.73.96 2.29 2.08 2.29.75 0 1.38-.24 2.11-.75l.85 1.17c-.83.67-1.86 1.14-3.14 1.14-2.62 0-4.03-1.75-4.03-4.42s1.36-4.53 3.76-4.53 3.73 1.6 3.73 4.27c0 .27-.03.61-.05.83zm-1.99-1.42c0-1.39-.5-2.22-1.65-2.22-.96 0-1.57.64-1.68 2.32h3.33v-.1zm10.78 1.42h-5.31c.16 1.73.96 2.29 2.08 2.29.75 0 1.38-.24 2.11-.75l.85 1.17c-.83.67-1.86 1.14-3.14 1.14-2.62 0-4.03-1.75-4.03-4.42s1.36-4.53 3.76-4.53 3.73 1.6 3.73 4.27c0 .27-.03.61-.05.83zm-1.99-1.42c0-1.39-.5-2.22-1.65-2.22-.96 0-1.57.64-1.68 2.32h3.33v-.1zm10.92-6.84v11.86h-1.81l-.14-1.07c-.51.77-1.33 1.31-2.42 1.31-2.11 0-3.22-1.78-3.22-4.47s1.31-4.48 3.41-4.48c.9 0 1.6.38 2.13.91v-4.29l2.05.22zm-2.05 9.46v-3.87c-.45-.54-.93-.9-1.62-.9-1.06 0-1.76.9-1.76 2.93 0 2.18.62 2.93 1.63 2.93.75 0 1.26-.37 1.75-1.09zm4.07-3.42h4.83v1.63h-4.83v-1.63zm8.92 5.07c0 2.59-1.18 3.46-3.09 4.23l-.66-1.49c1.1-.51 1.7-.94 1.7-2.61v-7.84h2.05v7.72zm.27-10.76c0 .69-.53 1.23-1.3 1.23s-1.28-.54-1.28-1.23.53-1.25 1.28-1.25 1.3.54 1.3 1.25zm9.59 7.27c0 2.67-1.49 4.48-3.99 4.48s-3.99-1.7-3.99-4.48 1.49-4.46 4-4.46 3.97 1.7 3.97 4.46zm-5.81 0c0 2.03.62 2.93 1.82 2.93s1.83-.91 1.83-2.93-.62-2.91-1.81-2.91-1.84.91-1.84 2.91zm14.6-1.89v6.13h-2.05v-5.81c0-1.06-.42-1.36-1.04-1.36-.72 0-1.28.5-1.78 1.26v5.91h-2.05v-11.84l2.05-.21v4.59c.66-.8 1.44-1.25 2.46-1.25 1.5 0 2.4.98 2.4 2.58zm9.22 0v6.13h-2.05v-5.81c0-1.06-.4-1.36-1.04-1.36-.74 0-1.28.5-1.78 1.28v5.89h-2.05v-8.47h1.78l.16 1.1c.66-.85 1.5-1.34 2.58-1.34 1.52 0 2.4.96 2.4 2.58zm9.22 0v6.13h-2.05v-5.81c0-1.06-.4-1.36-1.04-1.36-.74 0-1.28.5-1.78 1.28v5.89h-2.05v-8.47h1.78l.16 1.1c.66-.85 1.5-1.34 2.58-1.34 1.52 0 2.4.96 2.4 2.58zm6.33 6.17c-.64 1.98-1.89 3.26-4.4 3.46l-.21-1.49c1.68-.26 2.22-.8 2.71-2h-.7l-2.69-8.47h2.18l1.84 7.11 1.92-7.11h2.11l-2.75 8.5zm5.34-1.09c0 .7-.58 1.3-1.31 1.3s-1.28-.59-1.28-1.3.56-1.3 1.28-1.3 1.31.58 1.31 1.3zm9.35-3.2c0 2.59-1.2 4.5-3.35 4.5-.86 0-1.6-.3-2.13-.93v3.95l-2.05.22v-11.96h1.79l.11 1.04c.67-.88 1.57-1.28 2.48-1.28 2.21 0 3.14 1.74 3.14 4.45zm-2.14.02c0-2.14-.58-2.93-1.6-2.93-.72 0-1.33.5-1.73 1.15v3.81c.4.59.91.88 1.55.88 1.12 0 1.78-.87 1.78-2.91zm11.12-7.63v11.86h-1.81l-.14-1.07c-.51.77-1.33 1.31-2.42 1.31-2.11 0-3.22-1.78-3.22-4.47s1.31-4.48 3.41-4.48c.9 0 1.6.38 2.13.91v-4.29l2.05.22zm-2.05 9.46v-3.87c-.45-.54-.93-.9-1.62-.9-1.06 0-1.76.9-1.76 2.93 0 2.18.62 2.93 1.63 2.93.75 0 1.26-.37 1.74-1.09zm6.76-6.96v.9h2.03l-.22 1.47h-1.81v7h-2.05v-7h-1.38v-1.47h1.38v-.93c0-1.54 1.02-2.69 2.98-2.69.85 0 1.54.19 2.19.5l-.59 1.38c-.51-.24-.99-.32-1.39-.32-.83 0-1.14.37-1.14 1.17z" class="b"/></g><path d="M742.2 173.2h-33v77.6h64.7v-46.6c0-7.8-21.3-31-31.7-31zm-26.5 71.1v-64.7h23.9c13.3 0 8.4 19.4 8.4 19.4s19.4-5.5 19.4 8.1l.1 37.3h-51.8v-.1zm21-23.8H723v-13.7h13.7v13.7zm19.9 0h-13.7v-13.7h13.7v13.7zm-19.9 17.2H723V224h13.7v13.7zm19.9 0h-13.7V224h13.7v13.7z" class="b"/></svg>