<?xml version="1.0" encoding="utf-8"?>
<!-- Generator: Adobe Illustrator 26.1.0, SVG Export Plug-In . SVG Version: 6.00 Build 0)  -->
<svg version="1.1" id="Layer_1" xmlns="http://www.w3.org/2000/svg" xmlns:xlink="http://www.w3.org/1999/xlink" x="0px" y="0px"
	 viewBox="0 0 686.9 486.7" style="enable-background:new 0 0 686.9 486.7;" xml:space="preserve">
<style type="text/css">
	.st0{fill:#2997FF;}
	.st1{enable-background:new    ;}
	.st2{fill:none;stroke:#2997FF;stroke-width:4;stroke-linecap:round;stroke-linejoin:round;stroke-dasharray:0,7.877;}
	.st3{fill:none;stroke:#2997FF;stroke-width:4;stroke-linecap:round;stroke-linejoin:round;stroke-dasharray:0,7.8103;}
	.st4{fill:none;stroke:#2997FF;stroke-width:4;stroke-linecap:round;stroke-linejoin:round;stroke-dasharray:0,7.4201;}
	.st5{fill:none;stroke:#2997FF;stroke-width:4;stroke-linecap:round;stroke-linejoin:round;stroke-dasharray:0,8.045;}
	.st6{fill:none;stroke:#2997FF;stroke-width:4;stroke-linecap:round;stroke-linejoin:round;stroke-dasharray:0,8.8802;}
	
		.st7{fill:none;stroke:#2997FF;stroke-width:4;stroke-linecap:round;stroke-linejoin:round;stroke-miterlimit:10;stroke-dasharray:0,8;}
</style>
<path class="st0" d="M394.2,25l-4.1-25h29c5.3,6.6,5.5,8.3,13.8,8.3h48.7l-4,16.6h-8.4l1.9-8.3h-38.2c-9.7,0-13.1-2.6-17.8-8.3
	h-15.5l2.9,16.7C402.5,25,394.2,25,394.2,25z M462.3,33.3l-16.2-12.5l-6.1,7.9l5.9,4.6h-8.2l-16.1-12.5L412,33.3h-26.1l8.4,49.9
	h83.2l8.2-49.9L462.3,33.3L462.3,33.3z M470.3,74.9h-68.9l-5.8-33.3H476L470.3,74.9L470.3,74.9z M187.8,193.6l-4.1-25h29
	c5.3,6.6,5.5,8.3,13.8,8.3h48.7l-4,16.6h-8.4l1.9-8.3h-38.2c-9.7,0-13.1-2.6-17.8-8.3h-15.5l2.9,16.7H187.8z M255.9,201.9
	l-16.2-12.5l-6.1,7.9l5.9,4.6h-8.2l-16.1-12.5l-9.6,12.5h-26.1l8.4,49.9h83.2l8.2-49.9L255.9,201.9L255.9,201.9z M263.9,243.5H195
	l-5.8-33.3h80.4L263.9,243.5z"/>
<g class="st1">
	<path class="st0" d="M321.2,106.7l-0.4,1.4c-0.9-0.1-1.6-0.4-1.9-1.2c-0.6,0.9-1.5,1.3-2.5,1.3c-1.7,0-2.7-1.1-2.7-2.6
		c0-1.8,1.4-2.8,3.8-2.8h1.1v-0.5c0-1.1-0.5-1.5-1.6-1.5c-0.6,0-1.4,0.2-2.3,0.4l-0.5-1.4c1-0.4,2.1-0.6,3.1-0.6
		c2.3,0,3.3,1,3.3,2.9v3.6C320.5,106.3,320.8,106.6,321.2,106.7z M318.5,105.6v-1.7h-0.8c-1.3,0-2,0.5-2,1.5c0,0.8,0.4,1.3,1.2,1.3
		C317.6,106.6,318.1,106.3,318.5,105.6z"/>
	<path class="st0" d="M330.5,103.6c0,2.6-1.2,4.5-3.3,4.5c-0.9,0-1.6-0.3-2.1-0.9v4l-2,0.2v-12h1.8l0.1,1c0.7-0.9,1.6-1.3,2.5-1.3
		C329.6,99.2,330.5,100.9,330.5,103.6z M328.4,103.6c0-2.1-0.6-2.9-1.6-2.9c-0.7,0-1.3,0.5-1.7,1.2v3.8c0.4,0.6,0.9,0.9,1.6,0.9
		C327.7,106.6,328.4,105.7,328.4,103.6z"/>
	<path class="st0" d="M339.9,103.6c0,2.6-1.2,4.5-3.3,4.5c-0.9,0-1.6-0.3-2.1-0.9v4l-2,0.2v-12h1.8l0.1,1c0.7-0.9,1.6-1.3,2.5-1.3
		C339,99.2,339.9,100.9,339.9,103.6z M337.8,103.6c0-2.1-0.6-2.9-1.6-2.9c-0.7,0-1.3,0.5-1.7,1.2v3.8c0.4,0.6,0.9,0.9,1.6,0.9
		C337.1,106.6,337.8,105.7,337.8,103.6z"/>
	<path class="st0" d="M341.7,105.9V96l2-0.2v10.1c0,0.4,0.1,0.6,0.5,0.6c0.2,0,0.3,0,0.5-0.1l0.4,1.4c-0.4,0.2-0.8,0.3-1.4,0.3
		C342.5,108.1,341.7,107.3,341.7,105.9z"/>
	<path class="st0" d="M353.4,104.3h-5.3c0.2,1.7,1,2.3,2.1,2.3c0.8,0,1.4-0.2,2.1-0.8l0.8,1.2c-0.8,0.7-1.9,1.1-3.1,1.1
		c-2.6,0-4-1.7-4-4.4c0-2.6,1.4-4.5,3.8-4.5c2.4,0,3.7,1.6,3.7,4.3C353.5,103.7,353.5,104.1,353.4,104.3z M351.5,102.9
		c0-1.4-0.5-2.2-1.6-2.2c-1,0-1.6,0.6-1.7,2.3L351.5,102.9L351.5,102.9z"/>
	<path class="st0" d="M361,100.2l-0.8,1.2c-0.7-0.4-1.4-0.7-2.1-0.7c-0.8,0-1.3,0.3-1.3,0.8c0,0.6,0.3,0.8,1.8,1.2
		c1.7,0.5,2.7,1.2,2.7,2.7c0,1.8-1.6,2.7-3.6,2.7c-1.5,0-2.6-0.5-3.4-1.2l1-1.2c0.7,0.5,1.4,0.8,2.3,0.8c0.9,0,1.5-0.4,1.5-1
		c0-0.7-0.3-0.9-1.9-1.4c-1.7-0.5-2.5-1.3-2.5-2.6c0-1.4,1.3-2.5,3.3-2.5C359.2,99.2,360.2,99.6,361,100.2z"/>
	<path class="st0" d="M369.8,104.3h-5.3c0.2,1.7,1,2.3,2.1,2.3c0.8,0,1.4-0.2,2.1-0.8l0.8,1.2c-0.8,0.7-1.9,1.1-3.1,1.1
		c-2.6,0-4-1.7-4-4.4c0-2.6,1.4-4.5,3.8-4.5c2.4,0,3.7,1.6,3.7,4.3C369.9,103.7,369.8,104.1,369.8,104.3z M367.8,102.9
		c0-1.4-0.5-2.2-1.6-2.2c-1,0-1.6,0.6-1.7,2.3L367.8,102.9L367.8,102.9z"/>
	<path class="st0" d="M378.6,104.3h-5.3c0.2,1.7,1,2.3,2.1,2.3c0.8,0,1.4-0.2,2.1-0.8l0.8,1.2c-0.8,0.7-1.9,1.1-3.1,1.1
		c-2.6,0-4-1.7-4-4.4c0-2.6,1.4-4.5,3.8-4.5c2.4,0,3.7,1.6,3.7,4.3C378.6,103.7,378.6,104.1,378.6,104.3z M376.6,102.9
		c0-1.4-0.5-2.2-1.6-2.2c-1,0-1.6,0.6-1.7,2.3L376.6,102.9L376.6,102.9z"/>
	<path class="st0" d="M387.5,96v11.9h-1.8l-0.1-1.1c-0.5,0.8-1.3,1.3-2.4,1.3c-2.1,0-3.2-1.8-3.2-4.5c0-2.6,1.3-4.5,3.4-4.5
		c0.9,0,1.6,0.4,2.1,0.9v-4.3L387.5,96z M385.5,105.5v-3.9c-0.4-0.5-0.9-0.9-1.6-0.9c-1.1,0-1.8,0.9-1.8,2.9c0,2.2,0.6,2.9,1.6,2.9
		C384.5,106.6,385,106.2,385.5,105.5z"/>
	<path class="st0" d="M389.5,102.1h4.8v1.6h-4.8V102.1z"/>
	<path class="st0" d="M398.5,107.1c0,2.6-1.2,3.5-3.1,4.2l-0.7-1.5c1.1-0.5,1.7-0.9,1.7-2.6v-7.8h2V107.1z M398.7,96.4
		c0,0.7-0.5,1.2-1.3,1.2c-0.8,0-1.3-0.5-1.3-1.2c0-0.7,0.5-1.2,1.3-1.2C398.2,95.1,398.7,95.7,398.7,96.4z"/>
	<path class="st0" d="M408.3,103.6c0,2.7-1.5,4.5-4,4.5s-4-1.7-4-4.5c0-2.7,1.5-4.5,4-4.5C406.8,99.2,408.3,100.9,408.3,103.6z
		 M402.5,103.6c0,2,0.6,2.9,1.8,2.9c1.2,0,1.8-0.9,1.8-2.9c0-2-0.6-2.9-1.8-2.9C403.1,100.7,402.5,101.6,402.5,103.6z"/>
	<path class="st0" d="M417.1,101.7v6.1h-2v-5.8c0-1.1-0.4-1.4-1-1.4c-0.7,0-1.3,0.5-1.8,1.3v5.9h-2V96l2-0.2v4.6
		c0.7-0.8,1.4-1.2,2.5-1.2C416.2,99.2,417.1,100.1,417.1,101.7z"/>
	<path class="st0" d="M426.3,101.7v6.1h-2v-5.8c0-1.1-0.4-1.4-1-1.4c-0.7,0-1.3,0.5-1.8,1.3v5.9h-2v-8.5h1.8l0.2,1.1
		c0.7-0.8,1.5-1.3,2.6-1.3C425.5,99.2,426.3,100.1,426.3,101.7z"/>
	<path class="st0" d="M435.5,101.7v6.1h-2v-5.8c0-1.1-0.4-1.4-1-1.4c-0.7,0-1.3,0.5-1.8,1.3v5.9h-2v-8.5h1.8l0.2,1.1
		c0.7-0.8,1.5-1.3,2.6-1.3C434.7,99.2,435.5,100.1,435.5,101.7z"/>
	<path class="st0" d="M441.9,107.9c-0.6,2-1.9,3.3-4.4,3.5l-0.2-1.5c1.7-0.3,2.2-0.8,2.7-2h-0.7l-2.7-8.5h2.2l1.8,7.1l1.9-7.1h2.1
		L441.9,107.9z"/>
	<path class="st0" d="M445.3,102.1h4.8v1.6h-4.8V102.1z"/>
	<path class="st0" d="M459.4,102.5c0,3.6-1.3,5.6-3.9,5.6c-2.5,0-3.9-2-3.9-5.6c0-3.6,1.3-5.6,3.9-5.6
		C458.1,96.9,459.4,98.9,459.4,102.5z M453.8,102.5c0,3,0.6,4.1,1.7,4.1s1.7-1,1.7-4.1c0-3-0.6-4-1.7-4S453.8,99.5,453.8,102.5z"/>
	<path class="st0" d="M467.4,100.8l-0.4,3.2h1v1.4h-1.2l-0.3,2.4h-1.7l0.3-2.4h-2l-0.3,2.4H461l0.3-2.4h-1V104h1.1l0.4-3.2h-1v-1.4
		h1.2l0.3-2.3h1.7l-0.3,2.3h2l0.3-2.3h1.7l-0.3,2.3h1v1.4H467.4z M465.7,100.8h-2l-0.4,3.2h2L465.7,100.8z"/>
	<path class="st0" d="M477.2,102.5c0,3.6-1.3,5.6-3.9,5.6c-2.5,0-3.9-2-3.9-5.6c0-3.6,1.3-5.6,3.9-5.6
		C475.9,96.9,477.2,98.9,477.2,102.5z M471.6,102.5c0,3,0.6,4.1,1.7,4.1c1.2,0,1.7-1,1.7-4.1c0-3-0.6-4-1.7-4
		C472.2,98.5,471.6,99.5,471.6,102.5z"/>
	<path class="st0" d="M478.8,102.1h4.8v1.6h-4.8V102.1z"/>
	<path class="st0" d="M494.1,107.9h-2.6l-1.3-6.6l-1.3,6.6h-2.5l-1.9-8.5h2l1.2,7l1.5-7h2.1l1.3,7l1.3-7h2L494.1,107.9z"/>
	<path class="st0" d="M504.8,103.6c0,2.7-1.5,4.5-4,4.5s-4-1.7-4-4.5c0-2.7,1.5-4.5,4-4.5C503.3,99.2,504.8,100.9,504.8,103.6z
		 M499,103.6c0,2,0.6,2.9,1.8,2.9c1.2,0,1.8-0.9,1.8-2.9c0-2-0.6-2.9-1.8-2.9C499.6,100.7,499,101.6,499,103.6z"/>
	<path class="st0" d="M511.7,99.3l-0.4,2c-0.3-0.1-0.4-0.1-0.8-0.1c-1,0-1.6,0.8-1.9,2.2v4.5h-2v-8.5h1.8l0.2,1.7
		c0.4-1.2,1.2-1.9,2.2-1.9C511.2,99.2,511.5,99.2,511.7,99.3z"/>
	<path class="st0" d="M519.7,96v11.9h-1.8l-0.1-1.1c-0.5,0.8-1.3,1.3-2.4,1.3c-2.1,0-3.2-1.8-3.2-4.5c0-2.6,1.3-4.5,3.4-4.5
		c0.9,0,1.6,0.4,2.1,0.9v-4.3L519.7,96z M517.7,105.5v-3.9c-0.4-0.5-0.9-0.9-1.6-0.9c-1.1,0-1.8,0.9-1.8,2.9c0,2.2,0.6,2.9,1.6,2.9
		C516.7,106.6,517.2,106.2,517.7,105.5z"/>
	<path class="st0" d="M533.3,101.7v6.1h-2v-5.8c0-1.1-0.4-1.4-0.9-1.4c-0.7,0-1.1,0.5-1.6,1.3v5.9h-2v-5.8c0-1.1-0.4-1.4-0.9-1.4
		c-0.7,0-1.2,0.5-1.6,1.3v5.9h-2v-8.5h1.8l0.2,1.1c0.6-0.8,1.4-1.3,2.4-1.3c1,0,1.7,0.5,2,1.4c0.6-0.9,1.4-1.4,2.5-1.4
		C532.4,99.2,533.3,100.1,533.3,101.7z"/>
	<path class="st0" d="M542.5,106.7l-0.4,1.4c-0.9-0.1-1.6-0.4-1.9-1.2c-0.6,0.9-1.5,1.3-2.5,1.3c-1.7,0-2.7-1.1-2.7-2.6
		c0-1.8,1.4-2.8,3.8-2.8h1.1v-0.5c0-1.1-0.5-1.5-1.6-1.5c-0.6,0-1.4,0.2-2.3,0.4l-0.5-1.4c1-0.4,2.1-0.6,3.1-0.6
		c2.3,0,3.3,1,3.3,2.9v3.6C541.9,106.3,542.1,106.6,542.5,106.7z M539.9,105.6v-1.7H539c-1.3,0-2,0.5-2,1.5c0,0.8,0.4,1.3,1.2,1.3
		C538.9,106.6,539.5,106.3,539.9,105.6z"/>
	<path class="st0" d="M549.4,99.3l-0.4,2c-0.3-0.1-0.4-0.1-0.8-0.1c-1,0-1.6,0.8-1.9,2.2v4.5h-2v-8.5h1.8l0.2,1.7
		c0.4-1.2,1.2-1.9,2.2-1.9C548.8,99.2,549.1,99.2,549.4,99.3z"/>
	<path class="st0" d="M552.7,107.9h-2V96l2-0.2V107.9z M554.9,103.1l3.1,4.7h-2.4l-2.9-4.6l2.8-3.8h2.2L554.9,103.1z"/>
</g>
<g class="st1">
	<path class="st0" d="M176.8,263.8h6.3l-0.2,1.6h-3.9v3.3h3.4v1.6h-3.4v4.6h-2.1V263.8z"/>
	<path class="st0" d="M191.5,270.6c0,2.7-1.5,4.5-4,4.5s-4-1.7-4-4.5c0-2.7,1.5-4.5,4-4.5C190,266.1,191.5,267.8,191.5,270.6z
		 M185.7,270.6c0,2,0.6,2.9,1.8,2.9c1.2,0,1.8-0.9,1.8-2.9c0-2-0.6-2.9-1.8-2.9C186.3,267.7,185.7,268.6,185.7,270.6z"/>
	<path class="st0" d="M198.4,266.3l-0.4,2c-0.3-0.1-0.4-0.1-0.8-0.1c-1,0-1.6,0.8-1.9,2.2v4.5h-2v-8.5h1.8l0.2,1.7
		c0.4-1.2,1.2-1.9,2.2-1.9C197.8,266.2,198.1,266.2,198.4,266.3z"/>
	<path class="st0" d="M211.5,267.3c0,2.5-1.8,3.7-4.3,3.7h-1.3v3.9h-2.1v-11.1h3.3C209.8,263.8,211.5,264.9,211.5,267.3z
		 M209.3,267.3c0-1.4-0.8-2-2.3-2h-1.1v4.1h1.1C208.4,269.4,209.3,268.9,209.3,267.3z"/>
	<path class="st0" d="M217.8,266.3l-0.4,2c-0.3-0.1-0.4-0.1-0.8-0.1c-1,0-1.6,0.8-1.9,2.2v4.5h-2v-8.5h1.8l0.2,1.7
		c0.4-1.2,1.2-1.9,2.2-1.9C217.2,266.2,217.5,266.2,217.8,266.3z"/>
	<path class="st0" d="M226.2,270.6c0,2.7-1.5,4.5-4,4.5s-4-1.7-4-4.5c0-2.7,1.5-4.5,4-4.5C224.7,266.1,226.2,267.8,226.2,270.6z
		 M220.4,270.6c0,2,0.6,2.9,1.8,2.9c1.2,0,1.8-0.9,1.8-2.9c0-2-0.6-2.9-1.8-2.9C221,267.7,220.4,268.6,220.4,270.6z"/>
	<path class="st0" d="M235.1,263v11.9h-1.8l-0.1-1.1c-0.5,0.8-1.3,1.3-2.4,1.3c-2.1,0-3.2-1.8-3.2-4.5c0-2.6,1.3-4.5,3.4-4.5
		c0.9,0,1.6,0.4,2.1,0.9v-4.3L235.1,263z M233.1,272.4v-3.9c-0.4-0.5-0.9-0.9-1.6-0.9c-1.1,0-1.8,0.9-1.8,2.9c0,2.2,0.6,2.9,1.6,2.9
		C232.1,273.5,232.6,273.2,233.1,272.4z"/>
	<path class="st0" d="M244.3,274.8h-1.8l-0.1-1.2c-0.6,1-1.4,1.4-2.6,1.4c-1.5,0-2.4-1-2.4-2.6v-6.1h2v5.8c0,1,0.3,1.3,1,1.3
		s1.3-0.5,1.7-1.2v-6h2V274.8z"/>
	<path class="st0" d="M252.9,267.1l-0.9,1.2c-0.6-0.4-1.1-0.6-1.7-0.6c-1.2,0-1.9,0.9-1.9,2.9c0,2,0.8,2.8,1.9,2.8
		c0.6,0,1.1-0.2,1.7-0.6l0.9,1.3c-0.8,0.6-1.6,1-2.7,1c-2.4,0-4-1.7-4-4.4s1.5-4.5,4-4.5C251.2,266.1,252.1,266.4,252.9,267.1z"/>
	<path class="st0" d="M259.2,274.4c-0.6,0.4-1.4,0.6-2.1,0.6c-1.7,0-2.5-1-2.5-2.8v-4.5h-1.3v-1.5h1.3v-1.9l2-0.2v2.1h2l-0.2,1.5
		h-1.8v4.4c0,0.8,0.3,1.2,0.9,1.2c0.3,0,0.6-0.1,1-0.3L259.2,274.4z"/>
	<path class="st0" d="M262.6,263.3c0,0.7-0.5,1.2-1.3,1.2c-0.8,0-1.3-0.5-1.3-1.2c0-0.7,0.5-1.2,1.3-1.2
		C262.1,262.1,262.6,262.6,262.6,263.3z M262.4,274.8h-2v-8.5h2V274.8z"/>
	<path class="st0" d="M272.2,270.6c0,2.7-1.5,4.5-4,4.5s-4-1.7-4-4.5c0-2.7,1.5-4.5,4-4.5C270.7,266.1,272.2,267.8,272.2,270.6z
		 M266.4,270.6c0,2,0.6,2.9,1.8,2.9c1.2,0,1.8-0.9,1.8-2.9c0-2-0.6-2.9-1.8-2.9C267,267.7,266.4,268.6,266.4,270.6z"/>
	<path class="st0" d="M281,268.7v6.1h-2V269c0-1.1-0.4-1.4-1-1.4c-0.7,0-1.3,0.5-1.8,1.3v5.9h-2v-8.5h1.8l0.2,1.1
		c0.7-0.8,1.5-1.3,2.6-1.3C280.1,266.1,281,267.1,281,268.7z"/>
</g>
<path class="st0" d="M427.2,381.1h-33v77.6h64.7v-46.6C458.9,404.3,437.6,381.1,427.2,381.1z M400.7,452.2v-64.7h23.9
	c13.3,0,8.4,19.4,8.4,19.4s19.4-5.5,19.4,8.1l0.1,37.3L400.7,452.2L400.7,452.2z"/>
<g class="st1">
	<path class="st0" d="M405.2,470.9l-1.1,1.2c-0.6-0.5-1.3-0.8-2-0.8c-1.5,0-2.7,1.1-2.7,4.1c0,2.9,1.2,4.1,2.7,4.1
		c1,0,1.6-0.4,2.3-0.9l1,1.2c-0.7,0.7-1.8,1.3-3.3,1.3c-2.9,0-4.9-2-4.9-5.8c0-3.7,2.1-5.7,4.8-5.7
		C403.4,469.7,404.3,470.1,405.2,470.9z"/>
	<path class="st0" d="M417.3,481h-2.1l-0.3-4.6c-0.1-1.6-0.2-3.3-0.1-4.5l-2,7.9h-2l-2.1-8c0.1,1.5,0,3-0.1,4.6l-0.3,4.6h-2
		l0.9-11.1h2.7l2,7.7l1.9-7.7h2.8L417.3,481z"/>
	<path class="st0" d="M423.4,476.8v4.2h-2.1v-4.2l-3.6-6.9h2.3l2.3,5.1l2.3-5.1h2.2L423.4,476.8z"/>
	<path class="st0" d="M430.3,481h-2.1V470h2.1V481z M432.7,475l4.1,6.1h-2.5l-3.9-5.9l3.8-5.2h2.3L432.7,475z"/>
	<path class="st0" d="M439.9,480c0,0.7-0.6,1.3-1.3,1.3c-0.7,0-1.3-0.6-1.3-1.3c0-0.7,0.6-1.3,1.3-1.3
		C439.3,478.7,439.9,479.2,439.9,480z"/>
	<path class="st0" d="M448.6,479.9l-0.4,1.4c-0.9-0.1-1.6-0.4-1.9-1.2c-0.6,0.9-1.5,1.3-2.5,1.3c-1.7,0-2.7-1.1-2.7-2.6
		c0-1.8,1.4-2.8,3.8-2.8h1.1v-0.5c0-1.1-0.5-1.5-1.6-1.5c-0.6,0-1.4,0.2-2.3,0.4l-0.5-1.4c1-0.4,2.1-0.6,3.1-0.6
		c2.3,0,3.3,1,3.3,2.9v3.6C448,479.5,448.2,479.7,448.6,479.9z M445.9,478.7V477h-0.8c-1.3,0-2,0.5-2,1.5c0,0.8,0.4,1.3,1.2,1.3
		C445,479.8,445.6,479.4,445.9,478.7z"/>
	<path class="st0" d="M452.7,469.5c0,0.7-0.5,1.2-1.3,1.2c-0.8,0-1.3-0.5-1.3-1.2c0-0.7,0.5-1.2,1.3-1.2
		C452.2,468.3,452.7,468.8,452.7,469.5z M452.5,481h-2v-8.5h2V481z"/>
</g>
<path class="st0" d="M328.6,381.1h-33v77.6h64.7v-46.6C360.3,404.3,339,381.1,328.6,381.1L328.6,381.1z M302.1,452.2v-64.7H326
	c13.3,0,8.4,19.4,8.4,19.4s19.4-5.5,19.4,8.1l0.1,37.3L302.1,452.2L302.1,452.2z"/>
<g class="st1">
	<path class="st0" d="M308.1,476.6h-1.3v4.4h-2.1V470h3.3c2.9,0,4.4,1.1,4.4,3.2c0,1.5-0.7,2.4-2.2,3l2.9,4.8h-2.4L308.1,476.6z
		 M306.7,475.1h1.3c1.3,0,2-0.5,2-1.9c0-1.2-0.7-1.7-2.2-1.7h-1.1V475.1z"/>
	<path class="st0" d="M322.2,471l-1.1,1.2c-0.8-0.6-1.4-0.9-2.3-0.9c-1.6,0-2.9,1.2-2.9,4.2c0,3,0.9,4.2,2.6,4.2
		c0.6,0,1.2-0.1,1.8-0.4v-2.9h-1.7l-0.2-1.6h4v5.4c-1.1,0.7-2.4,1.1-3.8,1.1c-3.2,0-4.9-2-4.9-5.8c0-3.7,2.3-5.8,5.1-5.8
		C320.2,469.7,321.3,470.2,322.2,471z"/>
	<path class="st0" d="M332.4,477.8c0,2.4-1.9,3.2-4.6,3.2h-3.3V470h2.9c2.8,0,4.6,0.8,4.6,2.8c0,1.4-1,2.2-2,2.4
		C331.1,475.4,332.4,476,332.4,477.8z M326.5,471.5v3h1.3c1.2,0,1.9-0.5,1.9-1.6c0-1.1-0.8-1.4-2.2-1.4H326.5z M330.2,477.8
		c0-1.3-0.9-1.8-2.2-1.8h-1.5v3.5h1.2C329.2,479.4,330.2,479.1,330.2,477.8z"/>
	<path class="st0" d="M336.2,480c0,0.7-0.6,1.3-1.3,1.3c-0.7,0-1.3-0.6-1.3-1.3c0-0.7,0.6-1.3,1.3-1.3
		C335.6,478.7,336.2,479.2,336.2,480z"/>
	<path class="st0" d="M344.9,479.9l-0.4,1.4c-0.9-0.1-1.6-0.4-1.9-1.2c-0.6,0.9-1.5,1.3-2.5,1.3c-1.7,0-2.7-1.1-2.7-2.6
		c0-1.8,1.4-2.8,3.8-2.8h1.1v-0.5c0-1.1-0.5-1.5-1.6-1.5c-0.6,0-1.4,0.2-2.3,0.4l-0.5-1.4c1-0.4,2.1-0.6,3.1-0.6
		c2.3,0,3.3,1,3.3,2.9v3.6C344.2,479.5,344.5,479.7,344.9,479.9z M342.2,478.7V477h-0.8c-1.3,0-2,0.5-2,1.5c0,0.8,0.4,1.3,1.2,1.3
		C341.3,479.8,341.8,479.4,342.2,478.7z"/>
	<path class="st0" d="M349,469.5c0,0.7-0.5,1.2-1.3,1.2c-0.8,0-1.3-0.5-1.3-1.2c0-0.7,0.5-1.2,1.3-1.2
		C348.5,468.3,349,468.8,349,469.5z M348.7,481h-2v-8.5h2V481z"/>
</g>
<path class="st0" d="M230.1,381.1h-33v77.6h64.7v-46.6C261.8,404.3,240.5,381.1,230.1,381.1L230.1,381.1z M203.6,452.2v-64.7h23.9
	c13.3,0,8.4,19.4,8.4,19.4s19.4-5.5,19.4,8.1l0.1,37.3L203.6,452.2L203.6,452.2z"/>
<g class="st1">
	<path class="st0" d="M211,471.1l-1,1.2c-0.8-0.7-1.6-0.9-2.5-0.9c-1,0-1.7,0.4-1.7,1.3c0,0.8,0.4,1.2,2.3,1.7
		c1.9,0.6,3.3,1.4,3.3,3.5c0,2-1.6,3.4-4.2,3.4c-1.8,0-3.1-0.6-4-1.5l1.1-1.2c0.8,0.7,1.7,1.1,2.8,1.1c1.2,0,2-0.6,2-1.6
		c0-0.9-0.5-1.3-2.2-1.9c-2.3-0.7-3.3-1.6-3.3-3.3c0-1.8,1.6-3.1,3.8-3.1C208.9,469.7,210,470.2,211,471.1z"/>
	<path class="st0" d="M220.5,476.8c0,2.6-1.2,4.5-3.3,4.5c-0.9,0-1.6-0.3-2.1-0.9v4l-2,0.2v-12h1.8l0.1,1c0.7-0.9,1.6-1.3,2.5-1.3
		C219.6,472.3,220.5,474.1,220.5,476.8z M218.4,476.8c0-2.1-0.6-2.9-1.6-2.9c-0.7,0-1.3,0.5-1.7,1.2v3.8c0.4,0.6,0.9,0.9,1.6,0.9
		C217.7,479.7,218.4,478.8,218.4,476.8z"/>
	<path class="st0" d="M229.9,476.8c0,2.7-1.5,4.5-4,4.5s-4-1.7-4-4.5c0-2.7,1.5-4.5,4-4.5C228.4,472.3,229.9,474,229.9,476.8z
		 M224.1,476.8c0,2,0.6,2.9,1.8,2.9c1.2,0,1.8-0.9,1.8-2.9c0-2-0.6-2.9-1.8-2.9C224.7,473.9,224.1,474.8,224.1,476.8z"/>
	<path class="st0" d="M236.6,480.6c-0.6,0.4-1.4,0.6-2.1,0.6c-1.7,0-2.5-1-2.5-2.8V474h-1.3v-1.5h1.3v-1.9l2-0.2v2.1h2l-0.2,1.5H234
		v4.4c0,0.8,0.3,1.2,0.9,1.2c0.3,0,0.6-0.1,1-0.3L236.6,480.6z"/>
	<path class="st0" d="M239.9,480c0,0.7-0.6,1.3-1.3,1.3c-0.7,0-1.3-0.6-1.3-1.3c0-0.7,0.6-1.3,1.3-1.3
		C239.3,478.7,239.9,479.2,239.9,480z"/>
	<path class="st0" d="M248.6,479.9l-0.4,1.4c-0.9-0.1-1.6-0.4-1.9-1.2c-0.6,0.9-1.5,1.3-2.5,1.3c-1.7,0-2.7-1.1-2.7-2.6
		c0-1.8,1.4-2.8,3.8-2.8h1.1v-0.5c0-1.1-0.5-1.5-1.6-1.5c-0.6,0-1.4,0.2-2.3,0.4l-0.5-1.4c1-0.4,2.1-0.6,3.1-0.6
		c2.3,0,3.3,1,3.3,2.9v3.6C247.9,479.5,248.2,479.7,248.6,479.9z M245.9,478.7V477h-0.8c-1.3,0-2,0.5-2,1.5c0,0.8,0.4,1.3,1.2,1.3
		C245,479.8,245.5,479.4,245.9,478.7z"/>
	<path class="st0" d="M252.7,469.5c0,0.7-0.5,1.2-1.3,1.2c-0.8,0-1.3-0.5-1.3-1.2c0-0.7,0.5-1.2,1.3-1.2
		C252.2,468.3,252.7,468.8,252.7,469.5z M252.4,481h-2v-8.5h2V481z"/>
</g>
<path class="st0" d="M132.8,381.1h-33v77.6h64.7v-46.6C164.5,404.3,143.2,381.1,132.8,381.1z M106.3,452.2v-64.7h23.9
	c13.3,0,8.4,19.4,8.4,19.4s19.4-5.5,19.4,8.1l0.1,37.3L106.3,452.2L106.3,452.2z"/>
<g class="st1">
	<path class="st0" d="M96.3,471l-1.1,1.2c-0.8-0.6-1.4-0.9-2.3-0.9c-1.6,0-2.9,1.2-2.9,4.2c0,3,0.9,4.2,2.6,4.2
		c0.6,0,1.2-0.1,1.8-0.4v-2.9h-1.7l-0.2-1.6h4v5.4c-1.1,0.7-2.4,1.1-3.8,1.1c-3.2,0-4.9-2-4.9-5.8c0-3.7,2.3-5.8,5.1-5.8
		C94.3,469.7,95.3,470.2,96.3,471z"/>
	<path class="st0" d="M103.4,472.4l-0.4,2c-0.3-0.1-0.4-0.1-0.8-0.1c-1,0-1.6,0.8-1.9,2.2v4.5h-2v-8.5h1.8l0.2,1.7
		c0.4-1.2,1.2-1.9,2.2-1.9C102.9,472.3,103.2,472.4,103.4,472.4z"/>
	<path class="st0" d="M111.3,477.4H106c0.2,1.7,1,2.3,2.1,2.3c0.8,0,1.4-0.2,2.1-0.8l0.8,1.2c-0.8,0.7-1.9,1.1-3.1,1.1
		c-2.6,0-4-1.7-4-4.4c0-2.6,1.4-4.5,3.8-4.5c2.4,0,3.7,1.6,3.7,4.3C111.3,476.9,111.3,477.2,111.3,477.4z M109.3,476
		c0-1.4-0.5-2.2-1.6-2.2c-1,0-1.6,0.6-1.7,2.3L109.3,476L109.3,476z"/>
	<path class="st0" d="M117.2,481c-0.6,2-1.9,3.3-4.4,3.5l-0.2-1.5c1.7-0.3,2.2-0.8,2.7-2h-0.7l-2.7-8.5h2.2l1.8,7.1l1.9-7.1h2.1
		L117.2,481z"/>
	<path class="st0" d="M126.7,473.3l-0.8,1.2c-0.7-0.4-1.4-0.7-2.1-0.7c-0.8,0-1.3,0.3-1.3,0.8c0,0.6,0.3,0.8,1.8,1.2
		c1.7,0.5,2.7,1.2,2.7,2.7c0,1.8-1.6,2.7-3.6,2.7c-1.5,0-2.6-0.5-3.4-1.2l1-1.2c0.7,0.5,1.4,0.8,2.3,0.8c0.9,0,1.5-0.4,1.5-1
		c0-0.7-0.3-0.9-1.9-1.4c-1.7-0.5-2.5-1.3-2.5-2.6c0-1.4,1.3-2.5,3.3-2.5C124.9,472.3,125.9,472.7,126.7,473.3z"/>
	<path class="st0" d="M134.8,473.3l-0.9,1.2c-0.6-0.4-1.1-0.6-1.7-0.6c-1.2,0-1.9,0.9-1.9,2.9c0,2,0.8,2.8,1.9,2.8
		c0.6,0,1.1-0.2,1.7-0.6l0.9,1.3c-0.8,0.6-1.6,1-2.7,1c-2.4,0-4-1.7-4-4.4s1.5-4.5,4-4.5C133.1,472.3,134,472.6,134.8,473.3z"/>
	<path class="st0" d="M143,479.9l-0.4,1.4c-0.9-0.1-1.6-0.4-1.9-1.2c-0.6,0.9-1.5,1.3-2.5,1.3c-1.7,0-2.7-1.1-2.7-2.6
		c0-1.8,1.4-2.8,3.8-2.8h1.1v-0.5c0-1.1-0.5-1.5-1.6-1.5c-0.6,0-1.4,0.2-2.3,0.4l-0.5-1.4c1-0.4,2.1-0.6,3.1-0.6
		c2.3,0,3.3,1,3.3,2.9v3.6C142.4,479.5,142.6,479.7,143,479.9z M140.4,478.7V477h-0.8c-1.3,0-2,0.5-2,1.5c0,0.8,0.4,1.3,1.2,1.3
		C139.4,479.8,140,479.4,140.4,478.7z"/>
	<path class="st0" d="M144.6,479.1v-9.9l2-0.2V479c0,0.4,0.1,0.6,0.5,0.6c0.2,0,0.3,0,0.5-0.1l0.4,1.4c-0.4,0.2-0.8,0.3-1.4,0.3
		C145.4,481.3,144.6,480.5,144.6,479.1z"/>
	<path class="st0" d="M156.3,477.4H151c0.2,1.7,1,2.3,2.1,2.3c0.8,0,1.4-0.2,2.1-0.8l0.8,1.2c-0.8,0.7-1.9,1.1-3.1,1.1
		c-2.6,0-4-1.7-4-4.4c0-2.6,1.4-4.5,3.8-4.5c2.4,0,3.7,1.6,3.7,4.3C156.4,476.9,156.3,477.2,156.3,477.4z M154.3,476
		c0-1.4-0.5-2.2-1.6-2.2c-1,0-1.6,0.6-1.7,2.3L154.3,476L154.3,476z"/>
	<path class="st0" d="M160,480c0,0.7-0.6,1.3-1.3,1.3c-0.7,0-1.3-0.6-1.3-1.3c0-0.7,0.6-1.3,1.3-1.3C159.5,478.7,160,479.2,160,480z
		"/>
	<path class="st0" d="M168.7,479.9l-0.4,1.4c-0.9-0.1-1.6-0.4-1.9-1.2c-0.6,0.9-1.5,1.3-2.5,1.3c-1.7,0-2.7-1.1-2.7-2.6
		c0-1.8,1.4-2.8,3.8-2.8h1.1v-0.5c0-1.1-0.5-1.5-1.6-1.5c-0.6,0-1.4,0.2-2.3,0.4l-0.5-1.4c1-0.4,2.1-0.6,3.1-0.6
		c2.3,0,3.3,1,3.3,2.9v3.6C168.1,479.5,168.3,479.7,168.7,479.9z M166.1,478.7V477h-0.8c-1.3,0-2,0.5-2,1.5c0,0.8,0.4,1.3,1.2,1.3
		C165.2,479.8,165.7,479.4,166.1,478.7z"/>
	<path class="st0" d="M172.9,469.5c0,0.7-0.5,1.2-1.3,1.2c-0.8,0-1.3-0.5-1.3-1.2c0-0.7,0.5-1.2,1.3-1.2
		C172.3,468.3,172.9,468.8,172.9,469.5z M172.6,481h-2v-8.5h2V481z"/>
</g>
<path class="st0" d="M33,381.1H0v77.6h64.7v-46.6C64.7,404.3,43.4,381.1,33,381.1z M6.5,452.2v-64.7h23.9c13.3,0,8.4,19.4,8.4,19.4
	s19.4-5.5,19.4,8.1l0.1,37.3L6.5,452.2L6.5,452.2z"/>
<g class="st1">
	<path class="st0" d="M12.2,477.8c0,2.4-1.9,3.2-4.6,3.2H4.2V470h2.9c2.8,0,4.6,0.8,4.6,2.8c0,1.4-1,2.2-2,2.4
		C10.9,475.4,12.2,476,12.2,477.8z M6.3,471.5v3h1.3c1.2,0,1.9-0.5,1.9-1.6c0-1.1-0.8-1.4-2.2-1.4H6.3z M10,477.8
		c0-1.3-0.9-1.8-2.2-1.8H6.3v3.5h1.2C8.9,479.4,10,479.1,10,477.8z"/>
	<path class="st0" d="M13.8,479.1v-9.9l2-0.2V479c0,0.4,0.1,0.6,0.5,0.6c0.2,0,0.3,0,0.5-0.1l0.4,1.4c-0.4,0.2-0.8,0.3-1.4,0.3
		C14.6,481.3,13.8,480.5,13.8,479.1z"/>
	<path class="st0" d="M25.5,479.9l-0.4,1.4c-0.9-0.1-1.6-0.4-1.9-1.2c-0.6,0.9-1.5,1.3-2.5,1.3c-1.7,0-2.7-1.1-2.7-2.6
		c0-1.8,1.4-2.8,3.8-2.8h1.1v-0.5c0-1.1-0.5-1.5-1.6-1.5c-0.6,0-1.4,0.2-2.3,0.4l-0.5-1.4c1-0.4,2.1-0.6,3.1-0.6
		c2.3,0,3.3,1,3.3,2.9v3.6C24.8,479.5,25.1,479.7,25.5,479.9z M22.8,478.7V477H22c-1.3,0-2,0.5-2,1.5c0,0.8,0.4,1.3,1.2,1.3
		C21.9,479.8,22.4,479.4,22.8,478.7z"/>
	<path class="st0" d="M33.5,473.3l-0.9,1.2c-0.6-0.4-1.1-0.6-1.7-0.6c-1.2,0-1.9,0.9-1.9,2.9c0,2,0.8,2.8,1.9,2.8
		c0.6,0,1.1-0.2,1.7-0.6l0.9,1.3c-0.8,0.6-1.6,1-2.7,1c-2.4,0-4-1.7-4-4.4s1.5-4.5,4-4.5C31.8,472.3,32.7,472.6,33.5,473.3z"/>
	<path class="st0" d="M37,481h-2v-11.9l2-0.2V481z M39.2,476.3l3.1,4.7H40l-2.9-4.6l2.8-3.8H42L39.2,476.3z"/>
	<path class="st0" d="M45.6,480c0,0.7-0.6,1.3-1.3,1.3c-0.7,0-1.3-0.6-1.3-1.3c0-0.7,0.6-1.3,1.3-1.3C45,478.7,45.6,479.2,45.6,480z
		"/>
	<path class="st0" d="M54.3,479.9l-0.4,1.4c-0.9-0.1-1.6-0.4-1.9-1.2c-0.6,0.9-1.5,1.3-2.5,1.3c-1.7,0-2.7-1.1-2.7-2.6
		c0-1.8,1.4-2.8,3.8-2.8h1.1v-0.5c0-1.1-0.5-1.5-1.6-1.5c-0.6,0-1.4,0.2-2.3,0.4l-0.5-1.4c1-0.4,2.1-0.6,3.1-0.6
		c2.3,0,3.3,1,3.3,2.9v3.6C53.6,479.5,53.8,479.7,54.3,479.9z M51.6,478.7V477h-0.8c-1.3,0-2,0.5-2,1.5c0,0.8,0.4,1.3,1.2,1.3
		C50.7,479.8,51.2,479.4,51.6,478.7z"/>
	<path class="st0" d="M58.4,469.5c0,0.7-0.5,1.2-1.3,1.2c-0.8,0-1.3-0.5-1.3-1.2c0-0.7,0.5-1.2,1.3-1.2
		C57.8,468.3,58.4,468.8,58.4,469.5z M58.1,481h-2v-8.5h2V481z"/>
</g>
<path class="st2" d="M363.3,49.7H233.4"/>
<path class="st3" d="M229.4,57.5v97.6"/>
<path class="st2" d="M507,49.7h130"/>
<path class="st4" d="M32.3,363.4V330"/>
<path class="st5" d="M40.4,326.3h382.1"/>
<path class="st4" d="M426.5,333.7v33.4"/>
<path class="st6" d="M132.2,344.2v22.2 M331.8,344.2v22.2"/>
<path class="st7" d="M232,335.3v35.5 M232,286.7v35.5"/>
<path class="st3" d="M648.5,57.5v97.6"/>
<g class="st1">
	<path class="st0" d="M622.7,273.4h4.4l-0.2,1.7h-6.3V264h2.1V273.4z"/>
	<path class="st0" d="M635.7,270.8c0,2.7-1.5,4.5-4,4.5s-4-1.7-4-4.5c0-2.7,1.5-4.5,4-4.5C634.2,266.4,635.7,268.1,635.7,270.8z
		 M629.9,270.8c0,2,0.6,2.9,1.8,2.9c1.2,0,1.8-0.9,1.8-2.9c0-2-0.6-2.9-1.8-2.9C630.5,267.9,629.9,268.8,629.9,270.8z"/>
	<path class="st0" d="M644.9,267.1c-0.6,0.2-1.4,0.3-2.4,0.3c1,0.5,1.5,1.1,1.5,2.2c0,1.6-1.3,2.8-3.4,2.8c-0.4,0-0.7,0-1-0.1
		c-0.2,0.1-0.4,0.4-0.4,0.6c0,0.3,0.2,0.6,1,0.6h1.3c1.9,0,3.1,1,3.1,2.4c0,1.7-1.5,2.7-4.2,2.7c-3,0-3.9-1-3.9-2.7h1.8
		c0,0.8,0.4,1.2,2,1.2c1.6,0,2.1-0.4,2.1-1.1c0-0.6-0.5-1-1.4-1h-1.3c-1.7,0-2.4-0.8-2.4-1.6c0-0.6,0.4-1.2,1-1.6
		c-1-0.5-1.5-1.3-1.5-2.4c0-1.8,1.5-3,3.5-3c2,0,2.9-0.4,4-0.9L644.9,267.1z M639,269.4c0,1,0.6,1.7,1.5,1.7c1,0,1.5-0.6,1.5-1.7
		c0-1.1-0.5-1.6-1.5-1.6C639.6,267.8,639,268.4,639,269.4z"/>
	<path class="st0" d="M653.5,270.8c0,2.7-1.5,4.5-4,4.5s-4-1.7-4-4.5c0-2.7,1.5-4.5,4-4.5C652,266.4,653.5,268.1,653.5,270.8z
		 M647.7,270.8c0,2,0.6,2.9,1.8,2.9c1.2,0,1.8-0.9,1.8-2.9c0-2-0.6-2.9-1.8-2.9C648.4,267.9,647.7,268.8,647.7,270.8z"/>
	<path class="st0" d="M657.3,274c0,0.7-0.6,1.3-1.3,1.3c-0.7,0-1.3-0.6-1.3-1.3c0-0.7,0.6-1.3,1.3-1.3
		C656.7,272.7,657.3,273.3,657.3,274z"/>
	<path class="st0" d="M666.6,270.8c0,2.6-1.2,4.5-3.3,4.5c-0.9,0-1.6-0.3-2.1-0.9v4l-2,0.2v-12h1.8l0.1,1c0.7-0.9,1.6-1.3,2.5-1.3
		C665.7,266.4,666.6,268.1,666.6,270.8z M664.5,270.8c0-2.1-0.6-2.9-1.6-2.9c-0.7,0-1.3,0.5-1.7,1.2v3.8c0.4,0.6,0.9,0.9,1.6,0.9
		C663.8,273.8,664.5,272.9,664.5,270.8z"/>
	<path class="st0" d="M675.6,263.2v11.9h-1.8l-0.1-1.1c-0.5,0.8-1.3,1.3-2.4,1.3c-2.1,0-3.2-1.8-3.2-4.5c0-2.6,1.3-4.5,3.4-4.5
		c0.9,0,1.6,0.4,2.1,0.9V263L675.6,263.2z M673.5,272.7v-3.9c-0.4-0.5-0.9-0.9-1.6-0.9c-1.1,0-1.8,0.9-1.8,2.9
		c0,2.2,0.6,2.9,1.6,2.9C672.5,273.8,673.1,273.4,673.5,272.7z"/>
	<path class="st0" d="M680.3,265.7v0.9h2l-0.2,1.5h-1.8v7h-2v-7h-1.4v-1.5h1.4v-0.9c0-1.5,1-2.7,3-2.7c0.8,0,1.5,0.2,2.2,0.5
		l-0.6,1.4c-0.5-0.2-1-0.3-1.4-0.3C680.6,264.6,680.3,264.9,680.3,265.7z"/>
</g>
<path class="st0" d="M649.2,173.2h-33v77.6h64.7v-46.6C680.9,196.4,659.6,173.2,649.2,173.2L649.2,173.2z M622.7,244.3v-64.7h23.9
	c13.3,0,8.4,19.4,8.4,19.4s19.4-5.5,19.4,8.1l0.1,37.3h-51.8L622.7,244.3L622.7,244.3z M643.7,220.5H630v-13.7h13.7V220.5z
	 M663.6,220.5h-13.7v-13.7h13.7V220.5z M643.7,237.7H630V224h13.7V237.7L643.7,237.7z M663.6,237.7h-13.7V224h13.7V237.7
	L663.6,237.7z"/>
</svg>
