<svg xmlns="http://www.w3.org/2000/svg" viewBox="0 0 776.7 486.7" width="776.7" height="486.7"><path fill="#2997ff" d="M394.2 25l-4.1-25h29c5.3 6.6 5.5 8.3 13.8 8.3h48.7l-4 16.6h-8.4l1.9-8.3h-38.2c-9.7 0-13.1-2.6-17.8-8.3h-15.5l2.9 16.7h-8.3zm68.1 8.3l-16.2-12.5-6.1 7.9 5.9 4.6h-8.2l-16.1-12.5-9.6 12.5h-26.1l8.4 49.9h83.2l8.2-49.9h-23.4zm8 41.6h-68.9l-5.8-33.3H476l-5.7 33.3zM187.8 193.6l-4.1-25h29c5.3 6.6 5.5 8.3 13.8 8.3h48.7l-4 16.6h-8.4l1.9-8.3h-38.2c-9.7 0-13.1-2.6-17.8-8.3h-15.5l2.9 16.7h-8.3zm68.1 8.3l-16.2-12.5-6.1 7.9 5.9 4.6h-8.2l-16.1-12.5-9.6 12.5h-26.1l8.4 49.9h83.2l8.2-49.9h-23.4zm8 41.6H195l-5.8-33.3h80.4l-5.7 33.3z"/><g fill="#2997ff"><path d="M607.4 266.3l-.4 2c-.3-.1-.4-.1-.8-.1-1 0-1.6.8-1.9 2.2v4.5h-2v-8.5h1.8l.2 1.7c.4-1.2 1.2-1.9 2.2-1.9.4 0 .6 0 .9.1zm7.9 4.9H610c.2 1.7 1 2.3 2.1 2.3.8 0 1.4-.2 2.1-.8l.8 1.2c-.8.7-1.9 1.1-3.1 1.1-2.6 0-4-1.7-4-4.4 0-2.6 1.4-4.5 3.8-4.5s3.7 1.6 3.7 4.3c-.1.3-.1.6-.1.8zm-2-1.4c0-1.4-.5-2.2-1.6-2.2-1 0-1.6.6-1.7 2.3l3.3-.1zm10.6 3.9l-.4 1.4c-.9-.1-1.6-.4-1.9-1.2-.6.9-1.5 1.3-2.5 1.3-1.7 0-2.7-1.1-2.7-2.6 0-1.8 1.4-2.8 3.8-2.8h1.1v-.5c0-1.1-.5-1.5-1.6-1.5-.6 0-1.4.2-2.3.4l-.5-1.4c1-.4 2.1-.6 3.1-.6 2.3 0 3.3 1 3.3 2.9v3.6c-.1.6.2.8.6 1zm-2.7-1.1v-1.7h-.8c-1.3 0-2 .5-2 1.5 0 .8.4 1.3 1.2 1.3.7-.1 1.2-.5 1.6-1.1zm11.6-9.6v11.9H631l-.1-1.1c-.5.8-1.3 1.3-2.4 1.3-2.1 0-3.2-1.8-3.2-4.5 0-2.6 1.3-4.5 3.4-4.5.9 0 1.6.4 2.1.9v-4.3l2 .3zm-2.1 9.4v-3.9c-.4-.5-.9-.9-1.6-.9-1.1 0-1.8.9-1.8 2.9 0 2.2.6 2.9 1.6 2.9.8.1 1.3-.2 1.8-1zm15.7-3.7v6.1h-2V269c0-1.1-.4-1.4-.9-1.4-.7 0-1.1.5-1.6 1.3v5.9h-2V269c0-1.1-.4-1.4-.9-1.4-.7 0-1.2.5-1.6 1.3v5.9h-2v-8.5h1.8l.2 1.1c.6-.8 1.4-1.3 2.4-1.3s1.7.5 2 1.4c.6-.9 1.4-1.4 2.5-1.4 1.2 0 2.1 1 2.1 2.6zm9.2 2.5h-5.3c.2 1.7 1 2.3 2.1 2.3.8 0 1.4-.2 2.1-.8l.8 1.2c-.8.7-1.9 1.1-3.1 1.1-2.6 0-4-1.7-4-4.4 0-2.6 1.4-4.5 3.8-4.5s3.7 1.6 3.7 4.3c0 .3-.1.6-.1.8zm-2-1.4c0-1.4-.5-2.2-1.6-2.2-1 0-1.6.6-1.7 2.3l3.3-.1zm5.7 4c0 .7-.6 1.3-1.3 1.3-.7 0-1.3-.6-1.3-1.3 0-.7.6-1.3 1.3-1.3.7 0 1.3.6 1.3 1.3zm6.2.6c-.6.4-1.4.6-2.1.6-1.7 0-2.5-1-2.5-2.8v-4.5h-1.3v-1.5h1.3v-1.9l2-.2v2.1h2l-.2 1.5h-1.8v4.4c0 .8.3 1.2.9 1.2.3 0 .6-.1 1-.3l.7 1.4z"/><path d="M673.5 274.8h-2.4l-1.7-3.4-1.7 3.4h-2.3l2.8-4.5-2.5-4h2.3l1.4 2.9 1.4-2.9h2.2l-2.4 3.9 2.9 4.6zm6-.4c-.6.4-1.4.6-2.1.6-1.7 0-2.5-1-2.5-2.8v-4.5h-1.3v-1.5h1.3v-1.9l2-.2v2.1h2l-.2 1.5h-1.8v4.4c0 .8.3 1.2.9 1.2.3 0 .6-.1 1-.3l.7 1.4z"/></g><path fill="#2997ff" d="M321.2 106.7l-.4 1.4c-.9-.1-1.6-.4-1.9-1.2-.6.9-1.5 1.3-2.5 1.3-1.7 0-2.7-1.1-2.7-2.6 0-1.8 1.4-2.8 3.8-2.8h1.1v-.5c0-1.1-.5-1.5-1.6-1.5-.6 0-1.4.2-2.3.4l-.5-1.4c1-.4 2.1-.6 3.1-.6 2.3 0 3.3 1 3.3 2.9v3.6c-.1.6.2.9.6 1zm-2.7-1.1v-1.7h-.8c-1.3 0-2 .5-2 1.5 0 .8.4 1.3 1.2 1.3.7-.1 1.2-.4 1.6-1.1zm12-2c0 2.6-1.2 4.5-3.3 4.5-.9 0-1.6-.3-2.1-.9v4l-2 .2v-12h1.8l.1 1c.7-.9 1.6-1.3 2.5-1.3 2.1.1 3 1.8 3 4.5zm-2.1 0c0-2.1-.6-2.9-1.6-2.9-.7 0-1.3.5-1.7 1.2v3.8c.4.6.9.9 1.6.9 1 0 1.7-.9 1.7-3zm11.5 0c0 2.6-1.2 4.5-3.3 4.5-.9 0-1.6-.3-2.1-.9v4l-2 .2v-12h1.8l.1 1c.7-.9 1.6-1.3 2.5-1.3 2.1.1 3 1.8 3 4.5zm-2.1 0c0-2.1-.6-2.9-1.6-2.9-.7 0-1.3.5-1.7 1.2v3.8c.4.6.9.9 1.6.9 1 0 1.7-.9 1.7-3zm3.9 2.3V96l2-.2v10.1c0 .4.1.6.5.6.2 0 .3 0 .5-.1l.4 1.4c-.4.2-.8.3-1.4.3-1.2 0-2-.8-2-2.2zm11.7-1.6h-5.3c.2 1.7 1 2.3 2.1 2.3.8 0 1.4-.2 2.1-.8l.8 1.2c-.8.7-1.9 1.1-3.1 1.1-2.6 0-4-1.7-4-4.4 0-2.6 1.4-4.5 3.8-4.5s3.7 1.6 3.7 4.3c0 .2 0 .6-.1.8zm-1.9-1.4c0-1.4-.5-2.2-1.6-2.2-1 0-1.6.6-1.7 2.3l3.3-.1zm9.5-2.7l-.8 1.2c-.7-.4-1.4-.7-2.1-.7-.8 0-1.3.3-1.3.8 0 .6.3.8 1.8 1.2 1.7.5 2.7 1.2 2.7 2.7 0 1.8-1.6 2.7-3.6 2.7-1.5 0-2.6-.5-3.4-1.2l1-1.2c.7.5 1.4.8 2.3.8.9 0 1.5-.4 1.5-1 0-.7-.3-.9-1.9-1.4-1.7-.5-2.5-1.3-2.5-2.6 0-1.4 1.3-2.5 3.3-2.5 1.2.2 2.2.6 3 1.2zm8.8 4.1h-5.3c.2 1.7 1 2.3 2.1 2.3.8 0 1.4-.2 2.1-.8l.8 1.2c-.8.7-1.9 1.1-3.1 1.1-2.6 0-4-1.7-4-4.4 0-2.6 1.4-4.5 3.8-4.5s3.7 1.6 3.7 4.3c0 .2-.1.6-.1.8zm-2-1.4c0-1.4-.5-2.2-1.6-2.2-1 0-1.6.6-1.7 2.3l3.3-.1zm10.8 1.4h-5.3c.2 1.7 1 2.3 2.1 2.3.8 0 1.4-.2 2.1-.8l.8 1.2c-.8.7-1.9 1.1-3.1 1.1-2.6 0-4-1.7-4-4.4 0-2.6 1.4-4.5 3.8-4.5s3.7 1.6 3.7 4.3c-.1.2-.1.6-.1.8zm-2-1.4c0-1.4-.5-2.2-1.6-2.2-1 0-1.6.6-1.7 2.3l3.3-.1zm10.9-6.9v11.9h-1.8l-.1-1.1c-.5.8-1.3 1.3-2.4 1.3-2.1 0-3.2-1.8-3.2-4.5 0-2.6 1.3-4.5 3.4-4.5.9 0 1.6.4 2.1.9v-4.3l2 .3zm-2 9.5v-3.9c-.4-.5-.9-.9-1.6-.9-1.1 0-1.8.9-1.8 2.9 0 2.2.6 2.9 1.6 2.9.8.1 1.3-.3 1.8-1zm4-3.4h4.8v1.6h-4.8v-1.6zm9 5c0 2.6-1.2 3.5-3.1 4.2l-.7-1.5c1.1-.5 1.7-.9 1.7-2.6v-7.8h2v7.7zm.2-10.7c0 .7-.5 1.2-1.3 1.2s-1.3-.5-1.3-1.2.5-1.2 1.3-1.2c.8-.1 1.3.5 1.3 1.2zm9.6 7.2c0 2.7-1.5 4.5-4 4.5s-4-1.7-4-4.5c0-2.7 1.5-4.5 4-4.5 2.5.1 4 1.8 4 4.5zm-5.8 0c0 2 .6 2.9 1.8 2.9 1.2 0 1.8-.9 1.8-2.9s-.6-2.9-1.8-2.9c-1.2 0-1.8.9-1.8 2.9zm14.6-1.9v6.1h-2V102c0-1.1-.4-1.4-1-1.4-.7 0-1.3.5-1.8 1.3v5.9h-2V96l2-.2v4.6c.7-.8 1.4-1.2 2.5-1.2 1.4 0 2.3.9 2.3 2.5zm9.2 0v6.1h-2V102c0-1.1-.4-1.4-1-1.4-.7 0-1.3.5-1.8 1.3v5.9h-2v-8.5h1.8l.2 1.1c.7-.8 1.5-1.3 2.6-1.3 1.4.1 2.2 1 2.2 2.6zm9.3 0v6.1h-2V102c0-1.1-.4-1.4-1-1.4-.7 0-1.3.5-1.8 1.3v5.9h-2v-8.5h1.8l.2 1.1c.7-.8 1.5-1.3 2.6-1.3 1.3.1 2.2 1 2.2 2.6zm6.3 6.2c-.6 2-1.9 3.3-4.4 3.5l-.2-1.5c1.7-.3 2.2-.8 2.7-2h-.7l-2.7-8.5h2.2l1.8 7.1 1.9-7.1h2.1l-2.7 8.5zm3.4-5.8h4.8v1.6h-4.8v-1.6zm14.1.4c0 3.6-1.3 5.6-3.9 5.6-2.5 0-3.9-2-3.9-5.6 0-3.6 1.3-5.6 3.9-5.6 2.6 0 3.9 2 3.9 5.6zm-5.6 0c0 3 .6 4.1 1.7 4.1s1.7-1 1.7-4.1c0-3-.6-4-1.7-4s-1.7 1-1.7 4zm13.6-1.7l-.4 3.2h1v1.4h-1.2l-.3 2.4h-1.7l.3-2.4h-2l-.3 2.4H461l.3-2.4h-1V104h1.1l.4-3.2h-1v-1.4h1.2l.3-2.3h1.7l-.3 2.3h2l.3-2.3h1.7l-.3 2.3h1v1.4h-1zm-1.7 0h-2l-.4 3.2h2l.4-3.2zm11.5 1.7c0 3.6-1.3 5.6-3.9 5.6-2.5 0-3.9-2-3.9-5.6 0-3.6 1.3-5.6 3.9-5.6 2.6 0 3.9 2 3.9 5.6zm-5.6 0c0 3 .6 4.1 1.7 4.1 1.2 0 1.7-1 1.7-4.1 0-3-.6-4-1.7-4s-1.7 1-1.7 4zm7.2-.4h4.8v1.6h-4.8v-1.6zm15.3 5.8h-2.6l-1.3-6.6-1.3 6.6h-2.5l-1.9-8.5h2l1.2 7 1.5-7h2.1l1.3 7 1.3-7h2l-1.8 8.5zm10.7-4.3c0 2.7-1.5 4.5-4 4.5s-4-1.7-4-4.5c0-2.7 1.5-4.5 4-4.5 2.5.1 4 1.8 4 4.5zm-5.8 0c0 2 .6 2.9 1.8 2.9 1.2 0 1.8-.9 1.8-2.9s-.6-2.9-1.8-2.9c-1.2 0-1.8.9-1.8 2.9zm12.7-4.3l-.4 2c-.3-.1-.4-.1-.8-.1-1 0-1.6.8-1.9 2.2v4.5h-2v-8.5h1.8l.2 1.7c.4-1.2 1.2-1.9 2.2-1.9.4 0 .7 0 .9.1zm8-3.3v11.9h-1.8l-.1-1.1c-.5.8-1.3 1.3-2.4 1.3-2.1 0-3.2-1.8-3.2-4.5 0-2.6 1.3-4.5 3.4-4.5.9 0 1.6.4 2.1.9v-4.3l2 .3zm-2 9.5v-3.9c-.4-.5-.9-.9-1.6-.9-1.1 0-1.8.9-1.8 2.9 0 2.2.6 2.9 1.6 2.9.8.1 1.3-.3 1.8-1zm15.6-3.8v6.1h-2V102c0-1.1-.4-1.4-.9-1.4-.7 0-1.1.5-1.6 1.3v5.9h-2V102c0-1.1-.4-1.4-.9-1.4-.7 0-1.2.5-1.6 1.3v5.9h-2v-8.5h1.8l.2 1.1c.6-.8 1.4-1.3 2.4-1.3s1.7.5 2 1.4c.6-.9 1.4-1.4 2.5-1.4 1.2.1 2.1 1 2.1 2.6zm9.2 5l-.4 1.4c-.9-.1-1.6-.4-1.9-1.2-.6.9-1.5 1.3-2.5 1.3-1.7 0-2.7-1.1-2.7-2.6 0-1.8 1.4-2.8 3.8-2.8h1.1v-.5c0-1.1-.5-1.5-1.6-1.5-.6 0-1.4.2-2.3.4l-.5-1.4c1-.4 2.1-.6 3.1-.6 2.3 0 3.3 1 3.3 2.9v3.6c0 .6.2.9.6 1zm-2.6-1.1v-1.7h-.9c-1.3 0-2 .5-2 1.5 0 .8.4 1.3 1.2 1.3.7-.1 1.3-.4 1.7-1.1zm9.5-6.3l-.4 2c-.3-.1-.4-.1-.8-.1-1 0-1.6.8-1.9 2.2v4.5h-2v-8.5h1.8l.2 1.7c.4-1.2 1.2-1.9 2.2-1.9.3 0 .6 0 .9.1zm3.3 8.6h-2V96l2-.2v12.1zm2.2-4.8l3.1 4.7h-2.4l-2.9-4.6 2.8-3.8h2.2l-2.8 3.7zM176.8 263.8h6.3l-.2 1.6H179v3.3h3.4v1.6H179v4.6h-2.1v-11.1zm14.7 6.8c0 2.7-1.5 4.5-4 4.5s-4-1.7-4-4.5c0-2.7 1.5-4.5 4-4.5s4 1.7 4 4.5zm-5.8 0c0 2 .6 2.9 1.8 2.9 1.2 0 1.8-.9 1.8-2.9s-.6-2.9-1.8-2.9c-1.2 0-1.8.9-1.8 2.9zm12.7-4.3l-.4 2c-.3-.1-.4-.1-.8-.1-1 0-1.6.8-1.9 2.2v4.5h-2v-8.5h1.8l.2 1.7c.4-1.2 1.2-1.9 2.2-1.9.3 0 .6 0 .9.1zm13.1 1c0 2.5-1.8 3.7-4.3 3.7h-1.3v3.9h-2.1v-11.1h3.3c2.7 0 4.4 1.1 4.4 3.5zm-2.2 0c0-1.4-.8-2-2.3-2h-1.1v4.1h1.1c1.4 0 2.3-.5 2.3-2.1zm8.5-1l-.4 2c-.3-.1-.4-.1-.8-.1-1 0-1.6.8-1.9 2.2v4.5h-2v-8.5h1.8l.2 1.7c.4-1.2 1.2-1.9 2.2-1.9.3 0 .6 0 .9.1zm8.4 4.3c0 2.7-1.5 4.5-4 4.5s-4-1.7-4-4.5c0-2.7 1.5-4.5 4-4.5s4 1.7 4 4.5zm-5.8 0c0 2 .6 2.9 1.8 2.9 1.2 0 1.8-.9 1.8-2.9s-.6-2.9-1.8-2.9c-1.2 0-1.8.9-1.8 2.9zm14.7-7.6v11.9h-1.8l-.1-1.1c-.5.8-1.3 1.3-2.4 1.3-2.1 0-3.2-1.8-3.2-4.5 0-2.6 1.3-4.5 3.4-4.5.9 0 1.6.4 2.1.9v-4.3l2 .3zm-2 9.4v-3.9c-.4-.5-.9-.9-1.6-.9-1.1 0-1.8.9-1.8 2.9 0 2.2.6 2.9 1.6 2.9.8.1 1.3-.2 1.8-1zm11.2 2.4h-1.8l-.1-1.2c-.6 1-1.4 1.4-2.6 1.4-1.5 0-2.4-1-2.4-2.6v-6.1h2v5.8c0 1 .3 1.3 1 1.3s1.3-.5 1.7-1.2v-6h2v8.6zm8.6-7.7l-.9 1.2c-.6-.4-1.1-.6-1.7-.6-1.2 0-1.9.9-1.9 2.9s.8 2.8 1.9 2.8c.6 0 1.1-.2 1.7-.6l.9 1.3c-.8.6-1.6 1-2.7 1-2.4 0-4-1.7-4-4.4s1.5-4.5 4-4.5c1-.1 1.9.2 2.7.9zm6.3 7.3c-.6.4-1.4.6-2.1.6-1.7 0-2.5-1-2.5-2.8v-4.5h-1.3v-1.5h1.3v-1.9l2-.2v2.1h2l-.2 1.5h-1.8v4.4c0 .8.3 1.2.9 1.2.3 0 .6-.1 1-.3l.7 1.4zm3.4-11.1c0 .7-.5 1.2-1.3 1.2s-1.3-.5-1.3-1.2.5-1.2 1.3-1.2 1.3.5 1.3 1.2zm-.2 11.5h-2v-8.5h2v8.5zm9.8-4.2c0 2.7-1.5 4.5-4 4.5s-4-1.7-4-4.5c0-2.7 1.5-4.5 4-4.5s4 1.7 4 4.5zm-5.8 0c0 2 .6 2.9 1.8 2.9 1.2 0 1.8-.9 1.8-2.9s-.6-2.9-1.8-2.9c-1.2 0-1.8.9-1.8 2.9zm14.6-1.9v6.1h-2V269c0-1.1-.4-1.4-1-1.4-.7 0-1.3.5-1.8 1.3v5.9h-2v-8.5h1.8l.2 1.1c.7-.8 1.5-1.3 2.6-1.3 1.3 0 2.2 1 2.2 2.6zm146.2 112.4h-33v77.6h64.7v-46.6c0-7.8-21.3-31-31.7-31zm-26.5 71.1v-64.7h23.9c13.3 0 8.4 19.4 8.4 19.4s19.4-5.5 19.4 8.1l.1 37.3-51.8-.1zm4.5 18.7l-1.1 1.2c-.6-.5-1.3-.8-2-.8-1.5 0-2.7 1.1-2.7 4.1 0 2.9 1.2 4.1 2.7 4.1 1 0 1.6-.4 2.3-.9l1 1.2c-.7.7-1.8 1.3-3.3 1.3-2.9 0-4.9-2-4.9-5.8 0-3.7 2.1-5.7 4.8-5.7 1.4.1 2.3.5 3.2 1.3zm12.1 10.1h-2.1l-.3-4.6c-.1-1.6-.2-3.3-.1-4.5l-2 7.9h-2l-2.1-8c.1 1.5 0 3-.1 4.6l-.3 4.6h-2l.9-11.1h2.7l2 7.7 1.9-7.7h2.8l.7 11.1zm6.1-4.2v4.2h-2.1v-4.2l-3.6-6.9h2.3l2.3 5.1 2.3-5.1h2.2l-3.4 6.9zm6.9 4.2h-2.1v-11h2.1v11zm2.4-6l4.1 6.1h-2.5l-3.9-5.9 3.8-5.2h2.3l-3.8 5zm7.2 5c0 .7-.6 1.3-1.3 1.3-.7 0-1.3-.6-1.3-1.3 0-.7.6-1.3 1.3-1.3.7 0 1.3.5 1.3 1.3zm8.7-.1l-.4 1.4c-.9-.1-1.6-.4-1.9-1.2-.6.9-1.5 1.3-2.5 1.3-1.7 0-2.7-1.1-2.7-2.6 0-1.8 1.4-2.8 3.8-2.8h1.1v-.5c0-1.1-.5-1.5-1.6-1.5-.6 0-1.4.2-2.3.4l-.5-1.4c1-.4 2.1-.6 3.1-.6 2.3 0 3.3 1 3.3 2.9v3.6c0 .6.2.8.6 1zm-2.7-1.2V477h-.8c-1.3 0-2 .5-2 1.5 0 .8.4 1.3 1.2 1.3.7 0 1.3-.4 1.6-1.1zm6.8-9.2c0 .7-.5 1.2-1.3 1.2s-1.3-.5-1.3-1.2.5-1.2 1.3-1.2 1.3.5 1.3 1.2zm-.2 11.5h-2v-8.5h2v8.5zm-123.9-99.9h-33v77.6h64.7v-46.6c0-7.8-21.3-31-31.7-31zm-26.5 71.1v-64.7H326c13.3 0 8.4 19.4 8.4 19.4s19.4-5.5 19.4 8.1l.1 37.3-51.8-.1zm6 24.4h-1.3v4.4h-2.1v-11h3.3c2.9 0 4.4 1.1 4.4 3.2 0 1.5-.7 2.4-2.2 3l2.9 4.8h-2.4l-2.6-4.4zm-1.4-1.5h1.3c1.3 0 2-.5 2-1.9 0-1.2-.7-1.7-2.2-1.7h-1.1v3.6zm15.5-4.1l-1.1 1.2c-.8-.6-1.4-.9-2.3-.9-1.6 0-2.9 1.2-2.9 4.2s.9 4.2 2.6 4.2c.6 0 1.2-.1 1.8-.4v-2.9h-1.7l-.2-1.6h4v5.4c-1.1.7-2.4 1.1-3.8 1.1-3.2 0-4.9-2-4.9-5.8 0-3.7 2.3-5.8 5.1-5.8 1.4 0 2.5.5 3.4 1.3zm10.2 6.8c0 2.4-1.9 3.2-4.6 3.2h-3.3v-11h2.9c2.8 0 4.6.8 4.6 2.8 0 1.4-1 2.2-2 2.4 1.1.2 2.4.8 2.4 2.6zm-5.9-6.3v3h1.3c1.2 0 1.9-.5 1.9-1.6s-.8-1.4-2.2-1.4h-1zm3.7 6.3c0-1.3-.9-1.8-2.2-1.8h-1.5v3.5h1.2c1.5-.1 2.5-.4 2.5-1.7zm6 2.2c0 .7-.6 1.3-1.3 1.3-.7 0-1.3-.6-1.3-1.3 0-.7.6-1.3 1.3-1.3.7 0 1.3.5 1.3 1.3zm8.7-.1l-.4 1.4c-.9-.1-1.6-.4-1.9-1.2-.6.9-1.5 1.3-2.5 1.3-1.7 0-2.7-1.1-2.7-2.6 0-1.8 1.4-2.8 3.8-2.8h1.1v-.5c0-1.1-.5-1.5-1.6-1.5-.6 0-1.4.2-2.3.4l-.5-1.4c1-.4 2.1-.6 3.1-.6 2.3 0 3.3 1 3.3 2.9v3.6c-.1.6.2.8.6 1zm-2.7-1.2V477h-.8c-1.3 0-2 .5-2 1.5 0 .8.4 1.3 1.2 1.3.7 0 1.2-.4 1.6-1.1zm6.8-9.2c0 .7-.5 1.2-1.3 1.2s-1.3-.5-1.3-1.2.5-1.2 1.3-1.2 1.3.5 1.3 1.2zm-.3 11.5h-2v-8.5h2v8.5zm-118.6-99.9h-33v77.6h64.7v-46.6c0-7.8-21.3-31-31.7-31zm-26.5 71.1v-64.7h23.9c13.3 0 8.4 19.4 8.4 19.4s19.4-5.5 19.4 8.1l.1 37.3-51.8-.1zm7.4 18.9l-1 1.2c-.8-.7-1.6-.9-2.5-.9-1 0-1.7.4-1.7 1.3 0 .8.4 1.2 2.3 1.7 1.9.6 3.3 1.4 3.3 3.5 0 2-1.6 3.4-4.2 3.4-1.8 0-3.1-.6-4-1.5l1.1-1.2c.8.7 1.7 1.1 2.8 1.1 1.2 0 2-.6 2-1.6 0-.9-.5-1.3-2.2-1.9-2.3-.7-3.3-1.6-3.3-3.3 0-1.8 1.6-3.1 3.8-3.1 1.5-.1 2.6.4 3.6 1.3zm9.5 5.7c0 2.6-1.2 4.5-3.3 4.5-.9 0-1.6-.3-2.1-.9v4l-2 .2v-12h1.8l.1 1c.7-.9 1.6-1.3 2.5-1.3 2.1 0 3 1.8 3 4.5zm-2.1 0c0-2.1-.6-2.9-1.6-2.9-.7 0-1.3.5-1.7 1.2v3.8c.4.6.9.9 1.6.9 1-.1 1.7-1 1.7-3zm11.5 0c0 2.7-1.5 4.5-4 4.5s-4-1.7-4-4.5c0-2.7 1.5-4.5 4-4.5s4 1.7 4 4.5zm-5.8 0c0 2 .6 2.9 1.8 2.9 1.2 0 1.8-.9 1.8-2.9s-.6-2.9-1.8-2.9c-1.2 0-1.8.9-1.8 2.9zm12.5 3.8c-.6.4-1.4.6-2.1.6-1.7 0-2.5-1-2.5-2.8V474h-1.3v-1.5h1.3v-1.9l2-.2v2.1h2l-.2 1.5H234v4.4c0 .8.3 1.2.9 1.2.3 0 .6-.1 1-.3l.7 1.3zm3.3-.6c0 .7-.6 1.3-1.3 1.3-.7 0-1.3-.6-1.3-1.3 0-.7.6-1.3 1.3-1.3.7 0 1.3.5 1.3 1.3zm8.7-.1l-.4 1.4c-.9-.1-1.6-.4-1.9-1.2-.6.9-1.5 1.3-2.5 1.3-1.7 0-2.7-1.1-2.7-2.6 0-1.8 1.4-2.8 3.8-2.8h1.1v-.5c0-1.1-.5-1.5-1.6-1.5-.6 0-1.4.2-2.3.4l-.5-1.4c1-.4 2.1-.6 3.1-.6 2.3 0 3.3 1 3.3 2.9v3.6c-.1.6.2.8.6 1zm-2.7-1.2V477h-.8c-1.3 0-2 .5-2 1.5 0 .8.4 1.3 1.2 1.3.7 0 1.2-.4 1.6-1.1zm6.8-9.2c0 .7-.5 1.2-1.3 1.2s-1.3-.5-1.3-1.2.5-1.2 1.3-1.2 1.3.5 1.3 1.2zm-.3 11.5h-2v-8.5h2v8.5zm-119.6-99.9h-33v77.6h64.7v-46.6c0-7.8-21.3-31-31.7-31zm-26.5 71.1v-64.7h23.9c13.3 0 8.4 19.4 8.4 19.4s19.4-5.5 19.4 8.1l.1 37.3-51.8-.1zm-10 18.8l-1.1 1.2c-.8-.6-1.4-.9-2.3-.9-1.6 0-2.9 1.2-2.9 4.2s.9 4.2 2.6 4.2c.6 0 1.2-.1 1.8-.4v-2.9h-1.7l-.2-1.6h4v5.4c-1.1.7-2.4 1.1-3.8 1.1-3.2 0-4.9-2-4.9-5.8 0-3.7 2.3-5.8 5.1-5.8 1.4 0 2.4.5 3.4 1.3zm7.1 1.4l-.4 2c-.3-.1-.4-.1-.8-.1-1 0-1.6.8-1.9 2.2v4.5h-2v-8.5h1.8l.2 1.7c.4-1.2 1.2-1.9 2.2-1.9.4 0 .7.1.9.1zm7.9 5H106c.2 1.7 1 2.3 2.1 2.3.8 0 1.4-.2 2.1-.8l.8 1.2c-.8.7-1.9 1.1-3.1 1.1-2.6 0-4-1.7-4-4.4 0-2.6 1.4-4.5 3.8-4.5s3.7 1.6 3.7 4.3c-.1.3-.1.6-.1.8zm-2-1.4c0-1.4-.5-2.2-1.6-2.2-1 0-1.6.6-1.7 2.3l3.3-.1zm7.9 5c-.6 2-1.9 3.3-4.4 3.5l-.2-1.5c1.7-.3 2.2-.8 2.7-2h-.7l-2.7-8.5h2.2l1.8 7.1 1.9-7.1h2.1l-2.7 8.5zm9.5-7.7l-.8 1.2c-.7-.4-1.4-.7-2.1-.7-.8 0-1.3.3-1.3.8 0 .6.3.8 1.8 1.2 1.7.5 2.7 1.2 2.7 2.7 0 1.8-1.6 2.7-3.6 2.7-1.5 0-2.6-.5-3.4-1.2l1-1.2c.7.5 1.4.8 2.3.8.9 0 1.5-.4 1.5-1 0-.7-.3-.9-1.9-1.4-1.7-.5-2.5-1.3-2.5-2.6 0-1.4 1.3-2.5 3.3-2.5 1.2.2 2.2.6 3 1.2zm8.1 0l-.9 1.2c-.6-.4-1.1-.6-1.7-.6-1.2 0-1.9.9-1.9 2.9s.8 2.8 1.9 2.8c.6 0 1.1-.2 1.7-.6l.9 1.3c-.8.6-1.6 1-2.7 1-2.4 0-4-1.7-4-4.4s1.5-4.5 4-4.5c1-.1 1.9.2 2.7.9zm8.2 6.6l-.4 1.4c-.9-.1-1.6-.4-1.9-1.2-.6.9-1.5 1.3-2.5 1.3-1.7 0-2.7-1.1-2.7-2.6 0-1.8 1.4-2.8 3.8-2.8h1.1v-.5c0-1.1-.5-1.5-1.6-1.5-.6 0-1.4.2-2.3.4l-.5-1.4c1-.4 2.1-.6 3.1-.6 2.3 0 3.3 1 3.3 2.9v3.6c0 .6.2.8.6 1zm-2.6-1.2V477h-.8c-1.3 0-2 .5-2 1.5 0 .8.4 1.3 1.2 1.3.6 0 1.2-.4 1.6-1.1zm4.2.4v-9.9l2-.2v10c0 .4.1.6.5.6.2 0 .3 0 .5-.1l.4 1.4c-.4.2-.8.3-1.4.3-1.2.1-2-.7-2-2.1zm11.7-1.7H151c.2 1.7 1 2.3 2.1 2.3.8 0 1.4-.2 2.1-.8l.8 1.2c-.8.7-1.9 1.1-3.1 1.1-2.6 0-4-1.7-4-4.4 0-2.6 1.4-4.5 3.8-4.5s3.7 1.6 3.7 4.3c0 .3-.1.6-.1.8zm-2-1.4c0-1.4-.5-2.2-1.6-2.2-1 0-1.6.6-1.7 2.3l3.3-.1zm5.7 4c0 .7-.6 1.3-1.3 1.3-.7 0-1.3-.6-1.3-1.3 0-.7.6-1.3 1.3-1.3.8 0 1.3.5 1.3 1.3zm8.7-.1l-.4 1.4c-.9-.1-1.6-.4-1.9-1.2-.6.9-1.5 1.3-2.5 1.3-1.7 0-2.7-1.1-2.7-2.6 0-1.8 1.4-2.8 3.8-2.8h1.1v-.5c0-1.1-.5-1.5-1.6-1.5-.6 0-1.4.2-2.3.4l-.5-1.4c1-.4 2.1-.6 3.1-.6 2.3 0 3.3 1 3.3 2.9v3.6c0 .6.2.8.6 1zm-2.6-1.2V477h-.8c-1.3 0-2 .5-2 1.5 0 .8.4 1.3 1.2 1.3.7 0 1.2-.4 1.6-1.1zm6.8-9.2c0 .7-.5 1.2-1.3 1.2s-1.3-.5-1.3-1.2.5-1.2 1.3-1.2c.7 0 1.3.5 1.3 1.2zm-.3 11.5h-2v-8.5h2v8.5zM33 381.1H0v77.6h64.7v-46.6c0-7.8-21.3-31-31.7-31zM6.5 452.2v-64.7h23.9c13.3 0 8.4 19.4 8.4 19.4s19.4-5.5 19.4 8.1l.1 37.3-51.8-.1zm5.7 25.6c0 2.4-1.9 3.2-4.6 3.2H4.2v-11h2.9c2.8 0 4.6.8 4.6 2.8 0 1.4-1 2.2-2 2.4 1.2.2 2.5.8 2.5 2.6zm-5.9-6.3v3h1.3c1.2 0 1.9-.5 1.9-1.6s-.8-1.4-2.2-1.4h-1zm3.7 6.3c0-1.3-.9-1.8-2.2-1.8H6.3v3.5h1.2c1.4-.1 2.5-.4 2.5-1.7zm3.8 1.3v-9.9l2-.2v10c0 .4.1.6.5.6.2 0 .3 0 .5-.1l.4 1.4c-.4.2-.8.3-1.4.3-1.2.1-2-.7-2-2.1zm11.7.8l-.4 1.4c-.9-.1-1.6-.4-1.9-1.2-.6.9-1.5 1.3-2.5 1.3-1.7 0-2.7-1.1-2.7-2.6 0-1.8 1.4-2.8 3.8-2.8h1.1v-.5c0-1.1-.5-1.5-1.6-1.5-.6 0-1.4.2-2.3.4l-.5-1.4c1-.4 2.1-.6 3.1-.6 2.3 0 3.3 1 3.3 2.9v3.6c-.1.6.2.8.6 1zm-2.7-1.2V477H22c-1.3 0-2 .5-2 1.5 0 .8.4 1.3 1.2 1.3.7 0 1.2-.4 1.6-1.1zm10.7-5.4l-.9 1.2c-.6-.4-1.1-.6-1.7-.6-1.2 0-1.9.9-1.9 2.9s.8 2.8 1.9 2.8c.6 0 1.1-.2 1.7-.6l.9 1.3c-.8.6-1.6 1-2.7 1-2.4 0-4-1.7-4-4.4s1.5-4.5 4-4.5c1-.1 1.9.2 2.7.9zM37 481h-2v-11.9l2-.2V481zm2.2-4.7l3.1 4.7H40l-2.9-4.6 2.8-3.8H42l-2.8 3.7zm6.3 3.7c0 .7-.6 1.3-1.3 1.3-.7 0-1.3-.6-1.3-1.3 0-.7.6-1.3 1.3-1.3.8 0 1.3.5 1.3 1.3zm8.8-.1l-.4 1.4c-.9-.1-1.6-.4-1.9-1.2-.6.9-1.5 1.3-2.5 1.3-1.7 0-2.7-1.1-2.7-2.6 0-1.8 1.4-2.8 3.8-2.8h1.1v-.5c0-1.1-.5-1.5-1.6-1.5-.6 0-1.4.2-2.3.4l-.5-1.4c1-.4 2.1-.6 3.1-.6 2.3 0 3.3 1 3.3 2.9v3.6c-.1.6.1.8.6 1zm-2.7-1.2V477h-.8c-1.3 0-2 .5-2 1.5 0 .8.4 1.3 1.2 1.3.7 0 1.2-.4 1.6-1.1zm6.8-9.2c0 .7-.5 1.2-1.3 1.2s-1.3-.5-1.3-1.2.5-1.2 1.3-1.2c.7 0 1.3.5 1.3 1.2zm-.3 11.5h-2v-8.5h2v8.5z"/><g fill="none" stroke="#2997ff" stroke-linecap="round" stroke-linejoin="round" stroke-width="4"><path stroke-dasharray="0 7.88" d="M363.3 49.7H233.4"/><path stroke-dasharray="0 7.81" d="M229.4 57.5v97.6"/></g><g fill="none" stroke="#2997ff" stroke-linecap="round" stroke-linejoin="round" stroke-width="4"><path stroke-dasharray="0 7.88" d="M507 49.7h130"/><path stroke-dasharray="0 7.81" d="M640.9 57.5v97.6"/></g><path fill="#2997ff" d="M641.5 173.2h-33v77.6h64.8v-46.6c0-7.7-21.5-31-31.8-31zm25.3 71.1h-51.7v-64.6h23.8c13.4 0 8.6 19.4 8.6 19.4s19.4-5.3 19.4 7.9l-.1 37.3zm-9.8-35.2h-32.2c-.6 0-1-.4-1-1s.4-1 1-1H657c.6 0 1 .4 1 1s-.4 1-1 1zm0 7.6h-32.2c-.6 0-1-.4-1-1s.4-1 1-1H657c.6 0 1 .4 1 1s-.4 1-1 1zm0 7.5h-32.2c-.6 0-1-.4-1-1s.4-1 1-1H657c.6 0 1 .4 1 1s-.4 1-1 1zm0 7.6h-32.2c-.6 0-1-.4-1-1s.4-1 1-1H657c.6 0 1 .4 1 1s-.4 1-1 1z"/><g fill="none" stroke="#2997ff" stroke-linecap="round" stroke-linejoin="round" stroke-width="4"><path stroke-dasharray="0 7.42" d="M32.3 363.4V330"/><path stroke-dasharray="0 8.04" d="M40.4 326.3h382.1"/><path stroke-dasharray="0 7.42" d="M426.5 333.7v33.4"/></g><path fill="none" stroke="#2997ff" stroke-dasharray="0 8.88" stroke-linecap="round" stroke-linejoin="round" stroke-width="4" d="M132.2 344.2v22.2m199.6-22.2v22.2"/><path fill="none" stroke="#2997ff" stroke-dasharray="0 8" stroke-linecap="round" stroke-linejoin="round" stroke-miterlimit="10" stroke-width="4" d="M232 335.3v35.5m0-84.1v35.5"/><g fill="none" stroke="#2997ff" stroke-linecap="round" stroke-linejoin="round" stroke-width="4"><path stroke-dasharray="0 7.74" d="M648.6 49.7h89"/><path stroke-dasharray="0 7.81" d="M741.5 57.5v97.6"/></g><path fill="#2997ff" d="M715.7 273.4h4.4l-.2 1.7h-6.3V264h2.1v9.4zm13-2.6c0 2.7-1.5 4.5-4 4.5s-4-1.7-4-4.5c0-2.7 1.5-4.5 4-4.5 2.5.1 4 1.8 4 4.5zm-5.8 0c0 2 .6 2.9 1.8 2.9 1.2 0 1.8-.9 1.8-2.9s-.6-2.9-1.8-2.9c-1.2 0-1.8.9-1.8 2.9zm15-3.7c-.6.2-1.4.3-2.4.3 1 .5 1.5 1.1 1.5 2.2 0 1.6-1.3 2.8-3.4 2.8-.4 0-.7 0-1-.1-.2.1-.4.4-.4.6 0 .3.2.6 1 .6h1.3c1.9 0 3.1 1 3.1 2.4 0 1.7-1.5 2.7-4.2 2.7-3 0-3.9-1-3.9-2.7h1.8c0 .8.4 1.2 2 1.2s2.1-.4 2.1-1.1c0-.6-.5-1-1.4-1h-1.3c-1.7 0-2.4-.8-2.4-1.6 0-.6.4-1.2 1-1.6-1-.5-1.5-1.3-1.5-2.4 0-1.8 1.5-3 3.5-3s2.9-.4 4-.9l.6 1.6zm-5.9 2.3c0 1 .6 1.7 1.5 1.7 1 0 1.5-.6 1.5-1.7s-.5-1.6-1.5-1.6c-.9 0-1.5.6-1.5 1.6zm14.5 1.4c0 2.7-1.5 4.5-4 4.5s-4-1.7-4-4.5c0-2.7 1.5-4.5 4-4.5 2.5.1 4 1.8 4 4.5zm-5.8 0c0 2 .6 2.9 1.8 2.9 1.2 0 1.8-.9 1.8-2.9s-.6-2.9-1.8-2.9c-1.1 0-1.8.9-1.8 2.9zm9.6 3.2c0 .7-.6 1.3-1.3 1.3-.7 0-1.3-.6-1.3-1.3 0-.7.6-1.3 1.3-1.3.7 0 1.3.6 1.3 1.3zm9.3-3.2c0 2.6-1.2 4.5-3.3 4.5-.9 0-1.6-.3-2.1-.9v4l-2 .2v-12h1.8l.1 1c.7-.9 1.6-1.3 2.5-1.3 2.1.1 3 1.8 3 4.5zm-2.1 0c0-2.1-.6-2.9-1.6-2.9-.7 0-1.3.5-1.7 1.2v3.8c.4.6.9.9 1.6.9 1 0 1.7-.9 1.7-3zm11.1-7.6v11.9h-1.8l-.1-1.1c-.5.8-1.3 1.3-2.4 1.3-2.1 0-3.2-1.8-3.2-4.5 0-2.6 1.3-4.5 3.4-4.5.9 0 1.6.4 2.1.9V263l2 .2zm-2.1 9.5v-3.9c-.4-.5-.9-.9-1.6-.9-1.1 0-1.8.9-1.8 2.9 0 2.2.6 2.9 1.6 2.9.8.1 1.4-.3 1.8-1zm6.8-7v.9h2l-.2 1.5h-1.8v7h-2v-7h-1.4v-1.5h1.4v-.9c0-1.5 1-2.7 3-2.7.8 0 1.5.2 2.2.5l-.6 1.4c-.5-.2-1-.3-1.4-.3-.9 0-1.2.3-1.2 1.1zm-31.1-92.5h-33v77.6h64.7v-46.6c0-7.8-21.3-31-31.7-31zm-26.5 71.1v-64.7h23.9c13.3 0 8.4 19.4 8.4 19.4s19.4-5.5 19.4 8.1l.1 37.3h-51.8v-.1zm21-23.8H723v-13.7h13.7v13.7zm19.9 0h-13.7v-13.7h13.7v13.7zm-19.9 17.2H723V224h13.7v13.7zm19.9 0h-13.7V224h13.7v13.7z"/></svg>