<svg xmlns="http://www.w3.org/2000/svg" id="Layer_1" viewBox="0 0 600 86.48" width="600" height="86.48"><style>.st0{fill:#2997ff}</style><path d="M600 44.79c-30.97 24.4-73.9 34.48-112.5 33.18-25.86-.81-50.74-12.08-75-20.86-18.61-6.61-36.94-10.08-56.25-9.1-44.82.9-87.92 12.69-131.25 24.16-37.34 9.74-74.36 15.53-112.5 14.08C76.07 84.69 39.41 73.89 9.37 52.34 6.25 50.09 3.12 47.68 0 44.79v-3C11.12 31.75 24.3 24.1 37.5 17.95 96.83-9.35 163.38-1.32 225 14.4c37.3 9.7 74.24 20.23 112.5 23.1 12.49.92 25 1.8 37.5.66 38.42-3.09 73.69-28.56 112.5-29.54 25.71-.86 50.57 3.02 75 12.24 10.39 4.01 20.99 9.26 30.47 15.67 2.42 1.67 4.71 3.3 7.03 5.27v2.99z" class="st0"/></svg>