<?xml version="1.0" encoding="utf-8"?>
<!-- Generator: Adobe Illustrator 26.0.3, SVG Export Plug-In . SVG Version: 6.00 Build 0)  -->
<svg version="1.1" id="Layer_1" xmlns="http://www.w3.org/2000/svg" xmlns:xlink="http://www.w3.org/1999/xlink" x="0px" y="0px"
	 viewBox="0 0 600 171.06" style="enable-background:new 0 0 600 171.06;" xml:space="preserve">
<style type="text/css">
	.st0{fill:#2997FF;}
	.st1{fill:#72BAFF;}
</style>
<path class="st0" d="M4.85,119.75L59.3,1.93C59.82,0.88,60.7,0,62.27,0h1.75c1.75,0,2.45,0.88,2.98,1.93l53.92,117.82
	c1.05,2.28-0.35,4.55-2.98,4.55h-15.23c-2.63,0-3.85-1.05-5.08-3.5l-8.58-18.91H36.71l-8.58,18.91c-0.7,1.75-2.28,3.5-5.08,3.5H7.83
	C5.2,124.3,3.8,122.02,4.85,119.75z M80.48,82.46L62.97,43.94h-0.52L45.29,82.46H80.48z M84.33,6.3c-1.05-2.28,0.35-4.55,2.98-4.55
	h17.86c1.58,0,2.63,1.05,2.98,1.93l33.61,75.28h1.22l33.61-75.28c0.35-0.87,1.4-1.93,2.98-1.93h17.86c2.63,0,4.03,2.28,2.98,4.55
	l-54.27,117.82c-0.52,1.05-1.4,1.93-2.98,1.93h-1.75c-1.58,0-2.45-0.88-2.98-1.93L84.33,6.3z M205.83,5.08
	c0-1.75,1.57-3.33,3.33-3.33h16.28c1.75,0,3.33,1.58,3.33,3.33v115.9c0,1.75-1.58,3.33-3.33,3.33h-16.28
	c-1.75,0-3.33-1.58-3.33-3.33V5.08z M243.12,5.08c0-1.75,1.4-3.33,3.33-3.33h16.11c1.75,0,3.33,1.58,3.33,3.33v98.21h44.64
	c1.93,0,3.33,1.58,3.33,3.33v14.36c0,1.75-1.4,3.33-3.33,3.33h-64.08c-1.93,0-3.33-1.58-3.33-3.33L243.12,5.08L243.12,5.08z
	 M321.03,5.08c0-1.75,1.57-3.33,3.33-3.33h16.28c1.75,0,3.33,1.58,3.33,3.33v115.9c0,1.75-1.58,3.33-3.33,3.33h-16.28
	c-1.75,0-3.33-1.58-3.33-3.33V5.08z M415.91,0c35.01,0,63.03,28.19,63.03,63.2s-28.01,62.85-63.03,62.85s-62.85-27.84-62.85-62.85
	S380.9,0,415.91,0z M415.91,103.29c22.06,0,40.27-18.03,40.27-40.09s-18.21-40.44-40.27-40.44s-40.09,18.38-40.09,40.44
	S393.85,103.29,415.91,103.29z M487.87,3.15c0-1.75,1.57-3.15,3.33-3.15h4.38l72.83,77.38h0.17V5.08c0-1.75,1.4-3.33,3.33-3.33H588
	c1.75,0,3.33,1.58,3.33,3.33V122.9c0,1.75-1.58,3.15-3.33,3.15h-4.2l-73.18-80.36h-0.18v75.28c0,1.75-1.4,3.33-3.33,3.33h-15.93
	c-1.75,0-3.33-1.58-3.33-3.33V3.15H487.87z"/>
<path class="st1" d="M10.05,143.13c0-0.4,0.32-0.77,0.77-0.77h11.56c4.85,0,8.81,3.88,8.81,8.69c0,3.72-2.47,6.75-5.98,8.17
	l5.54,10.27c0.28,0.53,0,1.17-0.69,1.17h-4.24c-0.36,0-0.57-0.2-0.65-0.36l-5.38-10.71H15.3v10.31c0,0.4-0.36,0.77-0.77,0.77h-3.72
	c-0.45,0-0.77-0.36-0.77-0.77L10.05,143.13L10.05,143.13z M21.94,155.26c2.14,0,4-1.86,4-4.12c0-2.14-1.86-3.92-4-3.92h-6.59v8.05
	h6.59V155.26z M66.07,143.13c0-0.4,0.32-0.77,0.77-0.77H83.3c0.44,0,0.77,0.36,0.77,0.77v3.31c0,0.4-0.32,0.77-0.77,0.77H71.33v6.63
	h9.98c0.41,0,0.77,0.36,0.77,0.77v3.36c0,0.44-0.36,0.77-0.77,0.77h-9.98v7.08H83.3c0.44,0,0.77,0.36,0.77,0.77v3.32
	c0,0.4-0.32,0.77-0.77,0.77H66.84c-0.45,0-0.77-0.36-0.77-0.77V143.13L66.07,143.13z M117.29,166.7l1.46-2.51
	c0.32-0.57,1.01-0.57,1.37-0.28c0.2,0.12,3.48,2.51,6.1,2.51c2.1,0,3.68-1.37,3.68-3.11c0-2.06-1.74-3.48-5.13-4.85
	c-3.8-1.54-7.6-3.96-7.6-8.73c0-3.6,2.67-7.76,9.1-7.76c4.12,0,7.28,2.1,8.09,2.71c0.4,0.24,0.53,0.93,0.24,1.33l-1.54,2.3
	c-0.32,0.48-0.93,0.81-1.41,0.48c-0.32-0.2-3.4-2.22-5.62-2.22c-2.3,0-3.56,1.54-3.56,2.83c0,1.9,1.5,3.19,4.77,4.53
	c3.92,1.58,8.45,3.92,8.45,9.14c0,4.16-3.6,8-9.3,8c-5.09,0-8.09-2.38-8.89-3.15C117.13,167.55,116.93,167.34,117.29,166.7
	L117.29,166.7z M182.46,141.95c8.09,0,14.55,6.51,14.55,14.59c0,8.09-6.47,14.51-14.55,14.51s-14.51-6.43-14.51-14.51
	C167.94,148.46,174.37,141.95,182.46,141.95z M182.46,165.81c5.09,0,9.3-4.16,9.3-9.26c0-5.09-4.2-9.34-9.3-9.34
	s-9.26,4.25-9.26,9.34S177.36,165.81,182.46,165.81z M231.41,143.13c0-0.4,0.32-0.77,0.77-0.77h11.56c4.85,0,8.81,3.88,8.81,8.69
	c0,3.72-2.46,6.75-5.98,8.17l5.54,10.27c0.28,0.53,0,1.17-0.69,1.17h-4.25c-0.36,0-0.57-0.2-0.65-0.36l-5.38-10.71h-4.49v10.31
	c0,0.4-0.36,0.77-0.77,0.77h-3.72c-0.45,0-0.77-0.36-0.77-0.77v-26.77L231.41,143.13z M243.29,155.26c2.14,0,4-1.86,4-4.12
	c0-2.14-1.86-3.92-4-3.92h-6.59v8.05h6.59V155.26z M291.23,147.21h-6.19c-0.45,0-0.77-0.36-0.77-0.77v-3.31
	c0-0.4,0.32-0.77,0.77-0.77h17.67c0.45,0,0.77,0.36,0.77,0.77v3.31c0,0.4-0.32,0.77-0.77,0.77h-6.18v22.68
	c0,0.4-0.36,0.77-0.77,0.77H292c-0.42-0.01-0.76-0.35-0.77-0.77L291.23,147.21L291.23,147.21z M379.72,155.34v-0.08l-0.85-0.93
	c-1.62-1.7-2.79-3.44-2.75-5.82c0-3.07,2.55-6.55,7.64-6.55c4.53,0,7.64,2.95,7.64,6.59c0,4.16-4.12,6.63-4.93,7.36l4.65,4.69
	c0.65-1.29,1.17-2.95,1.45-4.49c0.16-0.85,0.41-1.29,1.33-1.01l2.22,0.65c1.05,0.28,0.77,1.17,0.69,1.58
	c-0.69,2.91-1.98,5.46-2.51,6.43l3.6,3.4c0.49,0.49,0.89,0.93-0.08,1.86l-1.66,1.7c-0.49,0.44-1.13,0.53-1.78-0.12l-2.91-2.95
	c-0.73,0.85-3.56,3.44-8.81,3.44c-5.13,0-8.53-3.48-8.53-7.6C374.14,158.13,378.99,155.78,379.72,155.34L379.72,155.34z
	 M383.2,166.74c3.03,0,4.61-1.7,5.22-2.38l-6.03-6.39c-0.65,0.4-3.44,1.74-3.44,4.97C378.95,165.16,380.81,166.74,383.2,166.74z
	 M387.04,148.79c0-1.54-1.33-3.03-3.44-3.03c-1.86,0-2.99,1.25-2.99,2.75c-0.04,1.42,0.89,2.35,2.1,3.64l0.89,0.89
	C384.21,152.67,387.04,151.29,387.04,148.79L387.04,148.79z M468.16,166.7l1.45-2.51c0.32-0.57,1.01-0.57,1.37-0.28
	c0.2,0.12,3.48,2.51,6.11,2.51c2.1,0,3.68-1.37,3.68-3.11c0-2.06-1.74-3.48-5.13-4.85c-3.8-1.54-7.6-3.96-7.6-8.73
	c0-3.6,2.67-7.76,9.1-7.76c4.12,0,7.28,2.1,8.08,2.71c0.41,0.24,0.53,0.93,0.24,1.33l-1.54,2.3c-0.32,0.48-0.93,0.81-1.41,0.48
	c-0.32-0.2-3.4-2.22-5.62-2.22c-2.31,0-3.56,1.54-3.56,2.83c0,1.9,1.5,3.19,4.77,4.53c3.92,1.58,8.45,3.92,8.45,9.14
	c0,4.16-3.6,8-9.3,8c-5.09,0-8.08-2.38-8.89-3.15C468,167.55,467.8,167.34,468.16,166.7L468.16,166.7z M520.84,143.13
	c0-0.4,0.32-0.77,0.77-0.77h9.5c4.97,0,9.06,4.04,9.06,8.93c0,5.01-4.08,9.1-9.02,9.1h-5.05v9.5c0,0.4-0.36,0.77-0.77,0.77h-3.72
	c-0.45,0-0.77-0.36-0.77-0.77V143.13L520.84,143.13z M530.78,155.46c2.27,0,4.16-1.82,4.16-4.2c0-2.22-1.9-3.92-4.16-3.92h-4.69
	v8.13h4.69V155.46z M568.62,169.61l12.57-27.21c0.12-0.24,0.32-0.45,0.69-0.45h0.41c0.41,0,0.57,0.2,0.69,0.45l12.45,27.21
	c0.24,0.52-0.08,1.05-0.69,1.05h-3.52c-0.61,0-0.89-0.24-1.17-0.81l-1.98-4.37h-12.09l-1.98,4.37c-0.16,0.41-0.52,0.81-1.17,0.81
	h-3.52C568.7,170.66,568.37,170.13,568.62,169.61L568.62,169.61z M586.08,161l-4.04-8.89h-0.12l-3.96,8.89H586.08z"/>
</svg>
