<svg xmlns="http://www.w3.org/2000/svg" viewBox="0 0 535.1 391.2" width="535.1" height="391.2"><path d="M150.3 33.7h8.4l-.5 3.3h-12V16h4v17.7z"/><path d="M173.1 29c0 5.1-2.8 8.5-7.6 8.5-4.7 0-7.6-3.2-7.6-8.5 0-5.1 2.8-8.5 7.6-8.5s7.6 3.2 7.6 8.5zM162 29c0 3.9 1.2 5.6 3.5 5.6s3.5-1.7 3.5-5.6c0-3.8-1.2-5.5-3.4-5.5-2.4-.1-3.6 1.6-3.6 5.5zm26.9-7.2c-1.2.4-2.7.5-4.7.5 1.9.9 2.9 2.1 2.9 4.1 0 3.1-2.4 5.4-6.5 5.4-.7 0-1.3-.1-1.9-.2-.4.3-.7.7-.7 1.2 0 .6.3 1.1 1.9 1.1h2.5c3.6 0 5.9 1.9 5.9 4.6 0 3.2-2.8 5.1-8 5.1-5.7 0-7.3-1.8-7.3-5.1h3.5c0 1.6.7 2.3 3.9 2.3 3.1 0 4-.9 4-2.1 0-1.2-.9-1.9-2.7-1.9h-2.4c-3.2 0-4.6-1.4-4.6-3.1 0-1.1.7-2.3 1.9-3-2-1-2.8-2.5-2.8-4.5 0-3.5 2.8-5.8 6.7-5.8 3.8.1 5.6-.8 7.5-1.8l.9 3.2zm-11.2 4.4c0 1.9 1.1 3.2 2.9 3.2 1.9 0 2.9-1.2 2.9-3.2s-1-3-2.9-3c-1.9-.1-2.9 1.1-2.9 3z"/><path d="M203.4 29c0 5.1-2.8 8.5-7.6 8.5-4.7 0-7.6-3.2-7.6-8.5 0-5.1 2.8-8.5 7.6-8.5s7.6 3.2 7.6 8.5zm-11.1 0c0 3.9 1.2 5.6 3.5 5.6s3.5-1.7 3.5-5.6c0-3.8-1.2-5.5-3.4-5.5-2.4-.1-3.6 1.6-3.6 5.5zm-10.6 9.4h-2.4c-.4 0-.9 0-1.3-.1v.3c0 .4.1.5.1.5s.4.3 2.3.3c2.1 0 2.5-.4 2.5-.4v-.2c0-.4-1.1-.4-1.2-.4zm-16.2-13.5c-.6 0-2 0-2 4s1.3 4 1.9 4 1.9 0 1.9-4c.1-4-1.2-4-1.8-4zm15 2.9c.5 0 1.3 0 1.3-1.7 0-1.1-.2-1.5-1.4-1.5-.3 0-1.3 0-1.3 1.5.1 1.7 1 1.7 1.4 1.7zm4.1 4.8c1.2.2 2.2.7 3 1.3-.4-.9-.6-1.8-.8-2.9-.6.7-1.3 1.2-2.2 1.6z"/><path d="M195.8 24.9c-.6 0-2 0-2 4s1.3 4 1.9 4 1.9 0 1.9-4c.1-4-1.2-4-1.8-4z"/><path d="M204.6 10.7h-62c-2.9 0-5.2 2.3-5.2 5.2v27.2c0 2.9 2.3 5.2 5.2 5.2h62c2.9 0 5.2-2.3 5.2-5.2V15.9c0-2.9-2.3-5.2-5.2-5.2zM195.8 39c-2.5 0-4.6-.8-6.1-2.2.2.5.2 1.1.2 1.7 0 2.1-.9 3.9-2.7 5.1-1.6 1.1-3.9 1.6-6.8 1.6-8 0-8.9-3.8-8.9-6.6 0-.8.7-1.5 1.5-1.5h1.7c-.8-.7-1.3-1.6-1.5-2.4-1.5 2.7-4.3 4.4-7.7 4.4-2.3 0-4.2-.6-5.7-1.8-.1.8-.8 1.3-1.5 1.3h-12c-.8 0-1.5-.7-1.5-1.5V16c0-.8.7-1.5 1.5-1.5h4c.8 0 1.5.7 1.5 1.5v16.2h4.9c-.2-1-.4-2.1-.4-3.2 0-6 3.7-10 9.1-10 3.4 0 6 1.4 7.5 3.9 1.3-2.4 4-3.9 7.4-3.9 3.6.1 5-.7 6.8-1.6.4-.2.9-.2 1.3-.1.4.2.7.5.9 1l.8 2.6c1.5-1.2 3.4-1.8 5.6-1.8 5.6 0 9.1 3.8 9.1 10 .1 5.9-3.6 9.9-9 9.9z"/><path d="M252 .8v120.9H95.1V.8H252m.8-.8H94.4v122.4h158.4V0z"/><path d="M105.1 60.2h137v53h-137zm45.2-26.5h8.4l-.5 3.3h-12V16h4v17.7z"/><path d="M173.1 29c0 5.1-2.8 8.5-7.6 8.5-4.7 0-7.6-3.2-7.6-8.5 0-5.1 2.8-8.5 7.6-8.5s7.6 3.2 7.6 8.5zM162 29c0 3.9 1.2 5.6 3.5 5.6s3.5-1.7 3.5-5.6c0-3.8-1.2-5.5-3.4-5.5-2.4-.1-3.6 1.6-3.6 5.5zm26.9-7.2c-1.2.4-2.7.5-4.7.5 1.9.9 2.9 2.1 2.9 4.1 0 3.1-2.4 5.4-6.5 5.4-.7 0-1.3-.1-1.9-.2-.4.3-.7.7-.7 1.2 0 .6.3 1.1 1.9 1.1h2.5c3.6 0 5.9 1.9 5.9 4.6 0 3.2-2.8 5.1-8 5.1-5.7 0-7.3-1.8-7.3-5.1h3.5c0 1.6.7 2.3 3.9 2.3 3.1 0 4-.9 4-2.1 0-1.2-.9-1.9-2.7-1.9h-2.4c-3.2 0-4.6-1.4-4.6-3.1 0-1.1.7-2.3 1.9-3-2-1-2.8-2.5-2.8-4.5 0-3.5 2.8-5.8 6.7-5.8 3.8.1 5.6-.8 7.5-1.8l.9 3.2zm-11.2 4.4c0 1.9 1.1 3.2 2.9 3.2 1.9 0 2.9-1.2 2.9-3.2s-1-3-2.9-3c-1.9-.1-2.9 1.1-2.9 3z"/><path d="M203.4 29c0 5.1-2.8 8.5-7.6 8.5-4.7 0-7.6-3.2-7.6-8.5 0-5.1 2.8-8.5 7.6-8.5s7.6 3.2 7.6 8.5zm-11.1 0c0 3.9 1.2 5.6 3.5 5.6s3.5-1.7 3.5-5.6c0-3.8-1.2-5.5-3.4-5.5-2.4-.1-3.6 1.6-3.6 5.5z"/><path d="M181.7 38.4h-2.4c-.4 0-.9 0-1.3-.1v.3c0 .4.1.5.1.5s.4.3 2.3.3c2.1 0 2.5-.4 2.5-.4v-.2c0-.4-1.1-.4-1.2-.4zm-16.2-13.5c-.6 0-2 0-2 4s1.3 4 1.9 4 1.9 0 1.9-4c.1-4-1.2-4-1.8-4zm15 2.9c.5 0 1.3 0 1.3-1.7 0-1.1-.2-1.5-1.4-1.5-.3 0-1.3 0-1.3 1.5.1 1.7 1 1.7 1.4 1.7zm4.1 4.8c1.2.2 2.2.7 3 1.3-.4-.9-.6-1.8-.8-2.9-.6.7-1.3 1.2-2.2 1.6zm11.2-7.7c-.6 0-2 0-2 4s1.3 4 1.9 4 1.9 0 1.9-4c.1-4-1.2-4-1.8-4z"/><path d="M204.6 10.7h-62c-2.9 0-5.2 2.3-5.2 5.2v27.2c0 2.9 2.3 5.2 5.2 5.2h62c2.9 0 5.2-2.3 5.2-5.2V15.9c0-2.9-2.3-5.2-5.2-5.2zM195.8 39c-2.5 0-4.6-.8-6.1-2.2.2.5.2 1.1.2 1.7 0 2.1-.9 3.9-2.7 5.1-1.6 1.1-3.9 1.6-6.8 1.6-8 0-8.9-3.8-8.9-6.6 0-.8.7-1.5 1.5-1.5h1.7c-.8-.7-1.3-1.6-1.5-2.4-1.5 2.7-4.3 4.4-7.7 4.4-2.3 0-4.2-.6-5.7-1.8-.1.8-.8 1.3-1.5 1.3h-12c-.8 0-1.5-.7-1.5-1.5V16c0-.8.7-1.5 1.5-1.5h4c.8 0 1.5.7 1.5 1.5v16.2h4.9c-.2-1-.4-2.1-.4-3.2 0-6 3.7-10 9.1-10 3.4 0 6 1.4 7.5 3.9 1.3-2.4 4-3.9 7.4-3.9 3.6.1 5-.7 6.8-1.6.4-.2.9-.2 1.3-.1.4.2.7.5.9 1l.8 2.6c1.5-1.2 3.4-1.8 5.6-1.8 5.6 0 9.1 3.8 9.1 10 .1 5.9-3.6 9.9-9 9.9z"/><g fill="#fff"><path d="M150.3 90.9h8.4l-.5 3.3h-12v-21h4v17.7z"/><path d="M173.1 86.1c0 5.1-2.8 8.5-7.6 8.5-4.7 0-7.6-3.2-7.6-8.5 0-5.1 2.8-8.5 7.6-8.5s7.6 3.2 7.6 8.5zm-11.1 0c0 3.9 1.2 5.6 3.5 5.6s3.5-1.7 3.5-5.6c0-3.8-1.2-5.5-3.4-5.5-2.4 0-3.6 1.7-3.6 5.5zm26.9-7.2c-1.2.4-2.7.5-4.7.5 1.9.9 2.9 2.1 2.9 4.1 0 3.1-2.4 5.4-6.5 5.4-.7 0-1.3-.1-1.9-.2-.4.3-.7.7-.7 1.2 0 .6.3 1.1 1.9 1.1h2.5c3.6 0 5.9 1.9 5.9 4.6 0 3.2-2.8 5.1-8 5.1-5.7 0-7.3-1.8-7.3-5.1h3.5c0 1.6.7 2.3 3.9 2.3 3.1 0 4-.9 4-2.1 0-1.2-.9-1.9-2.7-1.9h-2.4c-3.2 0-4.6-1.4-4.6-3.1 0-1.1.7-2.3 1.9-3-2-1-2.8-2.5-2.8-4.5 0-3.5 2.8-5.8 6.7-5.8 3.8.1 5.6-.8 7.5-1.8l.9 3.2zm-11.2 4.4c0 1.9 1.1 3.2 2.9 3.2 1.9 0 2.9-1.2 2.9-3.2s-1-3-2.9-3-2.9 1.2-2.9 3z"/><path d="M203.4 86.1c0 5.1-2.8 8.5-7.6 8.5-4.7 0-7.6-3.2-7.6-8.5 0-5.1 2.8-8.5 7.6-8.5s7.6 3.2 7.6 8.5zm-11.1 0c0 3.9 1.2 5.6 3.5 5.6s3.5-1.7 3.5-5.6c0-3.8-1.2-5.5-3.4-5.5-2.4 0-3.6 1.7-3.6 5.5z"/><path d="M181.7 95.6h-2.4c-.4 0-.9 0-1.3-.1v.3c0 .4.1.5.1.5s.4.3 2.3.3c2.1 0 2.5-.4 2.5-.4V96c0-.4-1.1-.4-1.2-.4zm-16.2-13.5c-.6 0-2 0-2 4s1.3 4 1.9 4 1.9 0 1.9-4c.1-4-1.2-4-1.8-4zm15 2.9c.5 0 1.3 0 1.3-1.7 0-1.1-.2-1.5-1.4-1.5-.3 0-1.3 0-1.3 1.5.1 1.7 1 1.7 1.4 1.7zm4.1 4.8c1.2.2 2.2.7 3 1.3-.4-.9-.6-1.8-.8-2.9-.6.7-1.3 1.2-2.2 1.6zm11.2-7.7c-.6 0-2 0-2 4s1.3 4 1.9 4 1.9 0 1.9-4c.1-4-1.2-4-1.8-4z"/><path d="M204.6 67.9h-62c-2.9 0-5.2 2.3-5.2 5.2v27.2c0 2.9 2.3 5.2 5.2 5.2h62c2.9 0 5.2-2.3 5.2-5.2V73.1c0-2.9-2.3-5.2-5.2-5.2zm-8.8 28.3c-2.5 0-4.6-.8-6.1-2.2.2.5.2 1.1.2 1.7 0 2.1-.9 3.9-2.7 5.1-1.6 1.1-3.9 1.6-6.8 1.6-8 0-8.9-3.8-8.9-6.6 0-.8.7-1.5 1.5-1.5h1.7c-.8-.7-1.3-1.6-1.5-2.4-1.5 2.7-4.3 4.4-7.7 4.4-2.3 0-4.2-.6-5.7-1.8-.1.8-.8 1.3-1.5 1.3h-12c-.8 0-1.5-.7-1.5-1.5v-21c0-.8.7-1.5 1.5-1.5h4c.8 0 1.5.7 1.5 1.5v16.2h4.9c-.2-1-.4-2.1-.4-3.2 0-6 3.7-10 9.1-10 3.4 0 6 1.4 7.5 3.9 1.3-2.4 4-3.9 7.4-3.9 3.6.1 5-.7 6.8-1.6.4-.2.9-.2 1.3-.1.4.2.7.5.9 1l.8 2.6c1.5-1.2 3.4-1.8 5.6-1.8 5.6 0 9.1 3.8 9.1 10 .1 5.7-3.6 9.8-9 9.8z"/></g><path fill="#2997ff" d="M144.8 151.8c0 3.7-2.9 4.8-7 4.8h-5v-16.8h4.4c4.3 0 6.9 1.2 6.9 4.3 0 2.1-1.5 3.3-3.1 3.6 1.9.4 3.8 1.3 3.8 4.1zm-8.8-9.6v4.5h2c1.7 0 2.9-.8 2.9-2.4 0-1.7-1.2-2.2-3.4-2.2H136zm5.5 9.5c0-2-1.4-2.7-3.3-2.7H136v5.2h1.9c2 0 3.6-.4 3.6-2.5zm5.8 2v-15.1l3.1-.3v15.3c0 .6.2.9.7.9.3 0 .5 0 .7-.1l.7 2.2c-.5.2-1.3.4-2.1.4-1.9 0-3.1-1.2-3.1-3.3zm17.7 1.2l-.7 2.1c-1.4-.1-2.4-.6-2.8-1.9-.9 1.4-2.3 1.9-3.9 1.9-2.5 0-4.1-1.6-4.1-4 0-2.8 2.1-4.3 5.8-4.3h1.6v-.7c0-1.7-.8-2.2-2.4-2.2-.9 0-2.1.2-3.4.7l-.7-2.1c1.6-.6 3.2-.9 4.6-.9 3.4 0 5 1.6 5 4.4v5.4c0 1 .4 1.3 1 1.6zm-4-1.8v-2.6h-1.3c-2 0-3 .7-3 2.2 0 1.2.6 1.9 1.8 1.9 1.1.1 1.9-.4 2.5-1.5zm16.2-8.2l-1.4 1.9c-.8-.6-1.6-.9-2.6-.9-1.8 0-2.9 1.3-2.9 4.4 0 3.1 1.1 4.2 2.9 4.2 1 0 1.7-.3 2.6-.9l1.4 2c-1.2.9-2.5 1.5-4.2 1.5-3.7 0-6-2.6-6-6.7s2.3-6.9 6-6.9c1.7-.1 2.9.4 4.2 1.4zm5.3 11.7h-3.1v-18l3.1-.3v18.3zm3.4-7.2l4.7 7.2H187l-4.4-7 4.3-5.8h3.3l-4.3 5.6zm9.6 5.6c0 1.1-.9 2-2 2s-1.9-.9-1.9-2 .8-2 1.9-2c1.1 0 2 .9 2 2zm13.2-.1l-.7 2.1c-1.4-.1-2.4-.6-2.8-1.9-.9 1.4-2.3 1.9-3.9 1.9-2.5 0-4.1-1.6-4.1-4 0-2.8 2.1-4.3 5.8-4.3h1.6v-.7c0-1.7-.8-2.2-2.4-2.2-.9 0-2.1.2-3.4.7l-.7-2.1c1.6-.6 3.2-.9 4.6-.9 3.4 0 5 1.6 5 4.4v5.4c0 1 .4 1.3 1 1.6zm-4-1.8v-2.6h-1.3c-2 0-3 .7-3 2.2 0 1.2.6 1.9 1.8 1.9 1 .1 1.9-.4 2.5-1.5zm10.2-13.9c0 1-.8 1.9-2 1.9-1.1 0-1.9-.8-1.9-1.9 0-1.1.8-1.9 1.9-1.9 1.2 0 2 .8 2 1.9zm-.4 17.4h-3.1v-12.8h3.1v12.8z"/><g fill="#bcbec0"><path d="M338.2 33.7h8.4l-.5 3.3h-12V16h4v17.7z"/><path d="M361 29c0 5.1-2.8 8.5-7.6 8.5-4.7 0-7.6-3.2-7.6-8.5 0-5.1 2.8-8.5 7.6-8.5s7.6 3.2 7.6 8.5zm-11 0c0 3.9 1.2 5.6 3.5 5.6s3.5-1.7 3.5-5.6c0-3.8-1.2-5.5-3.4-5.5-2.4-.1-3.6 1.6-3.6 5.5zm26.8-7.2c-1.2.4-2.7.5-4.7.5 1.9.9 2.9 2.1 2.9 4.1 0 3.1-2.4 5.4-6.5 5.4-.7 0-1.3-.1-1.9-.2-.4.3-.7.7-.7 1.2 0 .6.3 1.1 1.9 1.1h2.5c3.6 0 5.9 1.9 5.9 4.6 0 3.2-2.8 5.1-8 5.1-5.7 0-7.3-1.8-7.3-5.1h3.5c0 1.6.7 2.3 3.9 2.3 3.1 0 4-.9 4-2.1 0-1.2-.9-1.9-2.7-1.9h-2.4c-3.2 0-4.6-1.4-4.6-3.1 0-1.1.7-2.3 1.9-3-2-1-2.8-2.5-2.8-4.5 0-3.5 2.8-5.8 6.7-5.8 3.8.1 5.6-.8 7.5-1.8l.9 3.2zm-11.2 4.4c0 1.9 1.1 3.2 2.9 3.2 1.9 0 2.9-1.2 2.9-3.2s-1-3-2.9-3c-1.9-.1-2.9 1.1-2.9 3z"/><path d="M391.3 29c0 5.1-2.8 8.5-7.6 8.5-4.7 0-7.6-3.2-7.6-8.5 0-5.1 2.8-8.5 7.6-8.5s7.6 3.2 7.6 8.5zm-11 0c0 3.9 1.2 5.6 3.5 5.6s3.5-1.7 3.5-5.6c0-3.8-1.2-5.5-3.4-5.5-2.4-.1-3.6 1.6-3.6 5.5z"/></g><g fill="#505050"><path d="M369.7 38.4h-2.4c-.4 0-.9 0-1.3-.1v.3c0 .4.1.5.1.5s.4.3 2.3.3c2.1 0 2.5-.4 2.5-.4v-.2c0-.4-1.1-.4-1.2-.4zm-16.2-13.5c-.6 0-2 0-2 4s1.3 4 1.9 4c.6 0 1.9 0 1.9-4 .1-4-1.2-4-1.8-4zm15 2.9c.5 0 1.3 0 1.3-1.7 0-1.1-.2-1.5-1.4-1.5-.3 0-1.3 0-1.3 1.5 0 1.7 1 1.7 1.4 1.7zm4.1 4.8c1.2.2 2.2.7 3 1.3-.4-.9-.6-1.8-.8-2.9-.6.7-1.4 1.2-2.2 1.6zm11.2-7.7c-.6 0-2 0-2 4s1.3 4 1.9 4c.6 0 1.9 0 1.9-4 .1-4-1.2-4-1.8-4z"/><path d="M392.5 10.7h-62c-2.9 0-5.2 2.3-5.2 5.2v27.2c0 2.9 2.3 5.2 5.2 5.2h62c2.9 0 5.2-2.3 5.2-5.2V15.9c.1-2.9-2.3-5.2-5.2-5.2zM383.8 39c-2.5 0-4.6-.8-6.1-2.2.2.5.2 1.1.2 1.7 0 2.1-.9 3.9-2.7 5.1-1.6 1.1-3.9 1.6-6.8 1.6-8 0-8.9-3.8-8.9-6.6 0-.8.7-1.5 1.5-1.5h1.7c-.8-.7-1.3-1.6-1.5-2.4-1.5 2.7-4.3 4.4-7.7 4.4-2.3 0-4.2-.6-5.7-1.8-.1.8-.8 1.3-1.5 1.3h-12c-.8 0-1.5-.7-1.5-1.5V16c0-.8.7-1.5 1.5-1.5h4c.8 0 1.5.7 1.5 1.5v16.2h4.9c-.2-1-.4-2.1-.4-3.2 0-6 3.7-10 9.1-10 3.4 0 6 1.4 7.5 3.9 1.3-2.4 4-3.9 7.4-3.9 3.6.1 5-.7 6.8-1.6.4-.2.9-.2 1.3-.1.4.2.7.5.9 1l.8 2.6c1.5-1.2 3.4-1.8 5.6-1.8 5.6 0 9.1 3.8 9.1 10 .1 5.9-3.6 9.9-9 9.9z"/></g><path d="M440 .8v120.9H283.1V.8H440m.7-.8H282.3v122.4h158.4V0z"/><path fill="#2997ff" d="M309.8 141.4l-1.7 1.8c-1.1-.9-2.1-1.3-3.5-1.3-2.4 0-4.4 1.8-4.4 6.3 0 4.6 1.4 6.3 4 6.3.9 0 1.9-.2 2.7-.7v-4.4h-2.5l-.3-2.4h6v8.2c-1.7 1-3.7 1.7-5.8 1.7-4.8 0-7.4-3-7.4-8.8 0-5.7 3.5-8.7 7.7-8.7 2.2.1 3.8.8 5.2 2zm10.8 2.2l-.5 3c-.4-.1-.7-.1-1.1-.1-1.6 0-2.4 1.1-2.8 3.3v6.8H313v-12.8h2.7l.3 2.5c.6-1.8 1.8-2.9 3.4-2.9.4 0 .8.1 1.2.2zm11.9 7.5h-8.1c.2 2.6 1.5 3.5 3.2 3.5 1.1 0 2.1-.4 3.2-1.1l1.3 1.8c-1.3 1-2.8 1.7-4.8 1.7-4 0-6.1-2.6-6.1-6.7 0-3.9 2.1-6.9 5.7-6.9s5.7 2.4 5.7 6.5c0 .4 0 .9-.1 1.2zm-3-2.1c0-2.1-.8-3.4-2.5-3.4-1.5 0-2.4 1-2.5 3.5h5v-.1zm12 7.7c-1 3-2.9 5-6.7 5.2l-.3-2.3c2.5-.4 3.4-1.2 4.1-3h-1.1l-4.1-12.8h3.3l2.8 10.8 2.9-10.8h3.2l-4.1 12.9zm14.4-11.8l-1.2 1.8c-1.1-.7-2.1-1-3.2-1-1.2 0-1.9.5-1.9 1.3 0 .9.5 1.2 2.7 1.8 2.6.7 4.1 1.8 4.1 4.1 0 2.7-2.5 4.1-5.4 4.1-2.2 0-3.9-.8-5.1-1.8l1.6-1.7c1 .8 2.2 1.3 3.5 1.3 1.4 0 2.3-.6 2.3-1.6 0-1.1-.5-1.4-2.9-2.1-2.6-.7-3.8-2-3.8-3.9 0-2.1 2-3.7 5-3.7 1.6-.1 3.1.5 4.3 1.4zm12.3 0l-1.4 1.9c-.8-.6-1.6-.9-2.6-.9-1.8 0-2.9 1.3-2.9 4.4 0 3.1 1.1 4.2 2.9 4.2 1 0 1.7-.3 2.6-.9l1.4 2c-1.2.9-2.5 1.5-4.2 1.5-3.7 0-6-2.6-6-6.7s2.3-6.9 6-6.9c1.7-.1 3 .4 4.2 1.4zm12.5 10l-.7 2.1c-1.4-.1-2.4-.6-2.8-1.9-.9 1.4-2.3 1.9-3.9 1.9-2.5 0-4.1-1.6-4.1-4 0-2.8 2.1-4.3 5.8-4.3h1.6v-.7c0-1.7-.8-2.2-2.4-2.2-.9 0-2.1.2-3.4.7l-.7-2.1c1.6-.6 3.2-.9 4.6-.9 3.4 0 5 1.6 5 4.4v5.4c0 1 .4 1.3 1 1.6zm-4-1.8v-2.6h-1.3c-2 0-3 .7-3 2.2 0 1.2.6 1.9 1.8 1.9 1.1.1 1.9-.4 2.5-1.5zm6.4.6v-15.1l3.1-.3v15.3c0 .6.2.9.7.9.3 0 .5 0 .7-.1l.7 2.2c-.5.2-1.3.4-2.1.4-1.9 0-3.1-1.2-3.1-3.3zm17.8-2.6h-8.1c.2 2.6 1.5 3.5 3.2 3.5 1.1 0 2.1-.4 3.2-1.1l1.3 1.8c-1.3 1-2.8 1.7-4.8 1.7-4 0-6.1-2.6-6.1-6.7 0-3.9 2.1-6.9 5.7-6.9s5.7 2.4 5.7 6.5c-.1.4-.1.9-.1 1.2zm-3-2.1c0-2.1-.8-3.4-2.5-3.4-1.5 0-2.4 1-2.5 3.5h5v-.1zm8.6 6c0 1.1-.9 2-2 2s-1.9-.9-1.9-2 .8-2 1.9-2c1.1 0 2 .9 2 2zm13.2-.1l-.7 2.1c-1.4-.1-2.4-.6-2.8-1.9-.9 1.4-2.3 1.9-3.9 1.9-2.5 0-4.1-1.6-4.1-4 0-2.8 2.1-4.3 5.8-4.3h1.6v-.7c0-1.7-.8-2.2-2.4-2.2-.9 0-2.1.2-3.4.7l-.7-2.1c1.6-.6 3.2-.9 4.6-.9 3.4 0 5 1.6 5 4.4v5.4c0 1 .4 1.3 1 1.6zm-4-1.8v-2.6h-1.3c-2 0-3 .7-3 2.2 0 1.2.6 1.9 1.8 1.9 1.1.1 1.9-.4 2.5-1.5zm10.2-13.9c0 1-.8 1.9-2 1.9-1.1 0-1.9-.8-1.9-1.9 0-1.1.8-1.9 1.9-1.9 1.2 0 2 .8 2 1.9zm-.3 17.4h-3.1v-12.8h3.1v12.8z"/><path fill="#505050" d="M313.2 94.6h-1.4v-8.2l1.4-.2v8.4zm1.5-3.3l2.1 3.3h-1.6l-2-3.2 2-2.7h1.5l-2 2.6zm2.5-2h4.4v1.1h-4.4v-1.1zm0 2.2h4.4v1.1h-4.4v-1.1zm8.7 3.1h-1.4v-6l-1.7 1-.6-1 2.4-1.5h1.2v7.5zm6.9-3.7c0 2.5-.9 3.9-2.7 3.9-1.7 0-2.7-1.4-2.7-3.9s.9-3.9 2.7-3.9c1.8 0 2.7 1.4 2.7 3.9zm-3.8 0c0 2.1.4 2.8 1.2 2.8.8 0 1.2-.7 1.2-2.8 0-2.1-.4-2.8-1.2-2.8-.9 0-1.2.7-1.2 2.8zm10.1 0c0 2.5-.9 3.9-2.7 3.9-1.7 0-2.7-1.4-2.7-3.9s.9-3.9 2.7-3.9c1.8 0 2.7 1.4 2.7 3.9zm-3.8 0c0 2.1.4 2.8 1.2 2.8s1.2-.7 1.2-2.8c0-2.1-.4-2.8-1.2-2.8s-1.2.7-1.2 2.8zm8.5-1.9c0 1.2-.8 1.9-1.9 1.9-1.1 0-1.9-.8-1.9-1.9s.8-1.9 1.9-1.9c1.1-.1 1.9.7 1.9 1.9zm-2.7 0c0 .5.2 1 .8 1 .6 0 .8-.5.8-1s-.2-1-.8-1c-.6-.1-.8.4-.8 1zm6.2-1.7l-5.1 7.7-.9-.6 5.1-7.7.9.6zm1.3 5.5c0 1.2-.8 1.9-1.9 1.9s-1.9-.8-1.9-1.9.8-1.9 1.9-1.9 1.9.8 1.9 1.9zm-2.7 0c0 .5.2 1 .8 1 .6 0 .8-.5.8-1s-.2-1-.8-1c-.6 0-.8.5-.8 1zm38.2 1.8h-1.4v-8.2l1.4-.2v8.4zm1.5-3.3l2.1 3.3h-1.6l-2-3.2 2-2.7h1.5l-2 2.6zm2.5-2h4.4v1.1h-4.4v-1.1zm0 2.2h4.4v1.1h-4.4v-1.1zm9.6-2.6c0 .9-.6 1.5-1.4 1.7.9.1 1.7.7 1.7 1.8 0 1.3-1 2.3-2.7 2.3-1 0-1.8-.4-2.4-1.1l.8-.8c.5.5 1 .7 1.5.7.8 0 1.3-.5 1.3-1.2 0-.9-.5-1.2-1.3-1.2h-.6l.2-1h.4c.7 0 1.2-.4 1.2-1.1 0-.6-.4-1-1.1-1-.6 0-1 .2-1.5.7l-.8-.7c.7-.6 1.4-1 2.3-1 1.6 0 2.4.9 2.4 1.9zm6.5 2c0 2.5-.9 3.9-2.7 3.9-1.7 0-2.7-1.4-2.7-3.9s.9-3.9 2.7-3.9c1.8 0 2.7 1.4 2.7 3.9zm-3.8 0c0 2.1.4 2.8 1.2 2.8s1.2-.7 1.2-2.8c0-2.1-.4-2.8-1.2-2.8s-1.2.7-1.2 2.8zm8.5-1.9c0 1.2-.8 1.9-1.9 1.9-1.1 0-1.9-.8-1.9-1.9s.9-2 1.9-2c1.1 0 1.9.8 1.9 2zm-2.7 0c0 .5.2 1 .8 1 .6 0 .8-.5.8-1s-.2-1-.8-1c-.6-.1-.8.4-.8 1zm6.2-1.7l-5.1 7.7-.9-.6 5.1-7.7.9.6zm1.3 5.5c0 1.2-.8 1.9-1.9 1.9-1.1 0-1.9-.8-1.9-1.9s.8-1.9 1.9-1.9c1.1 0 1.9.8 1.9 1.9zm-2.7 0c0 .5.2 1 .8 1 .6 0 .8-.5.8-1s-.2-1-.8-1c-.6 0-.8.5-.8 1z"/><g fill="#f26518"><path d="M55.9 255.7h8.4l-.5 3.3h-12v-21h4v17.7z"/><path d="M78.7 251c0 5.1-2.8 8.5-7.6 8.5-4.7 0-7.6-3.2-7.6-8.5 0-5.1 2.8-8.5 7.6-8.5s7.6 3.2 7.6 8.5zm-11.1 0c0 3.9 1.2 5.6 3.5 5.6s3.5-1.7 3.5-5.6c0-3.8-1.2-5.5-3.4-5.5-2.3-.1-3.6 1.6-3.6 5.5zm26.9-7.2c-1.2.4-2.7.5-4.7.5 1.9.9 2.9 2.1 2.9 4.1 0 3.1-2.4 5.4-6.5 5.4-.7 0-1.3-.1-1.9-.2-.4.3-.7.7-.7 1.2 0 .6.3 1.1 1.9 1.1H88c3.6 0 5.9 1.9 5.9 4.6 0 3.2-2.8 5.1-8 5.1-5.7 0-7.3-1.8-7.3-5.1h3.5c0 1.6.7 2.3 3.9 2.3 3.1 0 4-.9 4-2.1 0-1.2-.9-1.9-2.7-1.9h-2.4c-3.2 0-4.6-1.4-4.6-3.1 0-1.1.7-2.3 1.9-3-2-1-2.8-2.5-2.8-4.5 0-3.5 2.8-5.8 6.7-5.8 3.8.1 5.6-.8 7.5-1.8l.9 3.2zm-11.2 4.4c0 1.9 1.1 3.2 2.9 3.2 1.9 0 2.9-1.2 2.9-3.2s-1-3-2.9-3c-1.9-.1-2.9 1.1-2.9 3z"/><path d="M109 251c0 5.1-2.8 8.5-7.6 8.5-4.7 0-7.6-3.2-7.6-8.5 0-5.1 2.8-8.5 7.6-8.5s7.6 3.2 7.6 8.5zm-11.1 0c0 3.9 1.2 5.6 3.5 5.6s3.5-1.7 3.5-5.6c0-3.8-1.2-5.5-3.4-5.5-2.3-.1-3.6 1.6-3.6 5.5z"/></g><g fill="#2997ff"><path d="M87.3 260.4h-2.4c-.4 0-.9 0-1.3-.1v.3c0 .4.1.5.1.5s.4.3 2.3.3c2.1 0 2.5-.4 2.5-.4v-.2c0-.4-1.1-.4-1.2-.4zm-16.2-13.5c-.6 0-2 0-2 4s1.3 4 1.9 4c.6 0 1.9 0 1.9-4 .1-4-1.1-4-1.8-4zm15 2.9c.5 0 1.3 0 1.3-1.7 0-1.1-.2-1.5-1.4-1.5-.3 0-1.3 0-1.3 1.5.1 1.7 1 1.7 1.4 1.7zm4.1 4.8c1.2.2 2.2.7 3 1.3-.4-.9-.6-1.8-.8-2.9-.6.7-1.3 1.2-2.2 1.6zm11.2-7.7c-.6 0-2 0-2 4s1.3 4 1.9 4c.6 0 1.9 0 1.9-4 .2-4-1.1-4-1.8-4z"/><path d="M110.2 232.7h-62c-2.9 0-5.2 2.3-5.2 5.2v27.2c0 2.9 2.3 5.2 5.2 5.2h62c2.9 0 5.2-2.3 5.2-5.2v-27.2c0-2.9-2.3-5.2-5.2-5.2zm-8.8 28.3c-2.5 0-4.6-.8-6.1-2.2.2.5.2 1.1.2 1.7 0 2.1-.9 3.9-2.7 5.1-1.6 1.1-3.9 1.6-6.8 1.6-8 0-8.9-3.8-8.9-6.6 0-.8.7-1.5 1.5-1.5h1.7c-.8-.7-1.3-1.6-1.5-2.4-1.5 2.7-4.3 4.4-7.7 4.4-2.3 0-4.2-.6-5.7-1.8-.1.8-.8 1.3-1.5 1.3h-12c-.8 0-1.5-.7-1.5-1.5v-21c0-.8.7-1.5 1.5-1.5h4c.8 0 1.5.7 1.5 1.5v16.2h4.9c-.2-1-.4-2.1-.4-3.2 0-6 3.7-10 9.1-10 3.4 0 6 1.4 7.5 3.9 1.3-2.4 4-3.9 7.4-3.9 3.6.1 5-.7 6.8-1.6.4-.2.9-.2 1.3-.1.4.2.7.5.9 1l.8 2.6c1.5-1.2 3.4-1.8 5.6-1.8 5.6 0 9.1 3.8 9.1 10 .1 5.8-3.5 9.8-9 9.8z"/></g><path d="M157.6 222.8v120.9H.8V222.8h156.8m.8-.8H0v122.4h158.4V222z"/><path fill="#505050" d="M40.3 316.6h-1.4v-6l-1.7 1-.6-.9 2.4-1.5h1.2v7.4zm6.1-5.5c0 1.3-.7 2.2-3 4.4h3.2l-.2 1.1h-4.6v-1c2.5-2.6 3.2-3.3 3.2-4.3 0-.7-.4-1.1-1.1-1.1-.6 0-1 .2-1.4.8l-.9-.7c.6-.8 1.4-1.2 2.4-1.2 1.5-.1 2.4.9 2.4 2zm5.4-.2c0 .9-.6 1.5-1.4 1.7.9.1 1.7.7 1.7 1.8 0 1.3-1 2.3-2.7 2.3-1 0-1.8-.4-2.4-1.1l.8-.8c.5.5 1 .7 1.5.7.8 0 1.3-.5 1.3-1.2 0-.9-.5-1.2-1.3-1.2h-.6l.2-1h.4c.7 0 1.2-.4 1.2-1.1 0-.6-.4-1-1.1-1-.6 0-1 .2-1.5.7l-.7-.8c.7-.6 1.4-1 2.3-1 1.5.1 2.3 1 2.3 2zm6.8-1.3l-.7.9c-.4-.4-.9-.5-1.4-.5-1.1 0-1.9.8-1.9 2.8 0 2 .8 2.8 1.9 2.8.7 0 1.1-.3 1.6-.6l.7.9c-.5.5-1.3.9-2.3.9-2 0-3.4-1.4-3.4-4s1.5-4 3.3-4c.9 0 1.6.3 2.2.8zm50.8 5.3h-.9v1.7h-1.4v-1.7h-3.2v-1l2.2-4.9 1.2.5-1.9 4.3h1.7l.1-1.9h1.2v1.9h.9v1.1zm5-4.7h-2.8v1.8c.4-.2.8-.3 1.1-.3 1.2 0 2.1.9 2.1 2.4s-1.1 2.6-2.8 2.6c-1 0-1.8-.4-2.3-1l.8-.8c.4.5.9.7 1.5.7.8 0 1.3-.5 1.3-1.5s-.5-1.4-1.2-1.4c-.3 0-.6.1-1 .3h-1v-3.9h4.3v1.1zm6.6 3.9c0 1.6-1 2.7-2.5 2.7-1.9 0-2.7-1.5-2.7-3.6 0-2.5 1.2-4.1 3-4.1.7 0 1.2.2 1.6.5l-.5.9c-.3-.2-.7-.3-1.1-.3-.9 0-1.5.9-1.6 2.4.5-.6 1-.8 1.7-.8 1.2-.1 2.1.7 2.1 2.3zm-1.4 0c0-1.1-.4-1.4-1-1.4-.5 0-1 .3-1.3.8 0 1.6.4 2.3 1.2 2.3.7-.1 1.1-.7 1.1-1.7zm7.8-4.5l-.7.9c-.4-.4-.9-.5-1.4-.5-1.1 0-1.9.8-1.9 2.8 0 2 .8 2.8 1.9 2.8.7 0 1.1-.3 1.6-.6l.7.9c-.5.5-1.3.9-2.3.9-2 0-3.4-1.4-3.4-4s1.5-4 3.3-4c.9 0 1.6.3 2.2.8z"/><path fill="#2997ff" d="M53 363.5l-1.6 1.8c-1.2-1-2.4-1.4-3.8-1.4-1.5 0-2.6.7-2.6 2 0 1.2.7 1.7 3.4 2.6 2.9.9 5 2.1 5 5.3 0 3-2.4 5.1-6.4 5.1-2.7 0-4.7-.9-6-2.3l1.7-1.8c1.2 1 2.6 1.7 4.3 1.7 1.8 0 3.1-.9 3.1-2.5 0-1.4-.7-2-3.3-2.8-3.5-1.1-5-2.5-5-5 0-2.8 2.4-4.6 5.7-4.6 2.4-.1 4 .6 5.5 1.9zm14.5 8.6c0 3.9-1.8 6.8-5.1 6.8-1.3 0-2.4-.5-3.2-1.4v6l-3.1.3v-18.1h2.7l.2 1.6c1-1.3 2.4-1.9 3.8-1.9 3.3 0 4.7 2.6 4.7 6.7zm-3.3.1c0-3.3-.9-4.4-2.4-4.4-1.1 0-2 .8-2.6 1.7v5.8c.6.9 1.4 1.3 2.4 1.3 1.6 0 2.6-1.3 2.6-4.4zm17.5 0c0 4.1-2.3 6.8-6 6.8s-6-2.6-6-6.8c0-4 2.3-6.8 6.1-6.8 3.7 0 5.9 2.6 5.9 6.8zm-8.8 0c0 3.1.9 4.4 2.8 4.4s2.8-1.4 2.8-4.4c0-3.1-.9-4.4-2.7-4.4-2 0-2.9 1.3-2.9 4.4zM92 378c-.9.7-2.1 1-3.2 1-2.5 0-3.9-1.5-3.9-4.2V368h-2v-2.2h2V363l3.1-.4v3.2h3l-.3 2.2H88v6.7c0 1.3.4 1.8 1.4 1.8.5 0 1-.1 1.5-.5l1.1 2zm4.9-1c0 1.1-.9 2-2 2s-1.9-.9-1.9-2 .8-2 1.9-2c1.1 0 2 .9 2 2zm13.2-.1l-.7 2.1c-1.4-.1-2.4-.6-2.8-1.9-.9 1.4-2.3 1.9-3.9 1.9-2.5 0-4.1-1.6-4.1-4 0-2.8 2.1-4.3 5.8-4.3h1.6v-.7c0-1.7-.8-2.2-2.4-2.2-.9 0-2.1.2-3.4.7l-.7-2.1c1.6-.6 3.2-.9 4.6-.9 3.4 0 5 1.6 5 4.4v5.4c0 1 .3 1.3 1 1.6zm-4.1-1.8v-2.6h-1.3c-2 0-3 .7-3 2.2 0 1.2.6 1.9 1.8 1.9 1.1.1 2-.4 2.5-1.5zm10.3-13.9c0 1-.8 1.9-2 1.9-1.1 0-1.9-.8-1.9-1.9 0-1.1.8-1.9 1.9-1.9 1.2 0 2 .8 2 1.9zm-.4 17.4h-3.1v-12.8h3.1v12.8z"/><g fill="#f26518"><path d="M243.8 255.7h8.4l-.5 3.3h-12v-21h4v17.7z"/><path d="M266.6 251c0 5.1-2.8 8.5-7.6 8.5-4.7 0-7.6-3.2-7.6-8.5 0-5.1 2.8-8.5 7.6-8.5s7.6 3.2 7.6 8.5zm-11 0c0 3.9 1.2 5.6 3.5 5.6s3.5-1.7 3.5-5.6c0-3.8-1.2-5.5-3.4-5.5-2.4-.1-3.6 1.6-3.6 5.5zm26.9-7.2c-1.2.4-2.7.5-4.7.5 1.9.9 2.9 2.1 2.9 4.1 0 3.1-2.4 5.4-6.5 5.4-.7 0-1.3-.1-1.9-.2-.4.3-.7.7-.7 1.2 0 .6.3 1.1 1.9 1.1h2.5c3.6 0 5.9 1.9 5.9 4.6 0 3.2-2.8 5.1-8 5.1-5.7 0-7.3-1.8-7.3-5.1h3.5c0 1.6.7 2.3 3.9 2.3 3.1 0 4-.9 4-2.1 0-1.2-.9-1.9-2.7-1.9h-2.4c-3.2 0-4.6-1.4-4.6-3.1 0-1.1.7-2.3 1.9-3-2-1-2.8-2.5-2.8-4.5 0-3.5 2.8-5.8 6.7-5.8 3.8.1 5.6-.8 7.5-1.8l.9 3.2zm-11.3 4.4c0 1.9 1.1 3.2 2.9 3.2 1.9 0 2.9-1.2 2.9-3.2s-1-3-2.9-3c-1.8-.1-2.9 1.1-2.9 3z"/><path d="M297 251c0 5.1-2.8 8.5-7.6 8.5-4.7 0-7.6-3.2-7.6-8.5 0-5.1 2.8-8.5 7.6-8.5s7.6 3.2 7.6 8.5zm-11.1 0c0 3.9 1.2 5.6 3.5 5.6s3.5-1.7 3.5-5.6c0-3.8-1.2-5.5-3.4-5.5-2.4-.1-3.6 1.6-3.6 5.5z"/></g><g fill="#2997ff"><path d="M275.3 260.4h-2.4c-.4 0-.9 0-1.3-.1v.3c0 .4.1.5.1.5s.4.3 2.3.3c2.1 0 2.5-.4 2.5-.4v-.2c0-.4-1.1-.4-1.2-.4zm-16.2-13.5c-.6 0-2 0-2 4s1.3 4 1.9 4c.6 0 1.9 0 1.9-4 .1-4-1.2-4-1.8-4zm15 2.9c.5 0 1.3 0 1.3-1.7 0-1.1-.2-1.5-1.4-1.5-.3 0-1.3 0-1.3 1.5.1 1.7 1 1.7 1.4 1.7zm4.1 4.8c1.2.2 2.2.7 3 1.3-.4-.9-.6-1.8-.8-2.9-.6.7-1.3 1.2-2.2 1.6zm11.2-7.7c-.6 0-2 0-2 4s1.3 4 1.9 4c.6 0 1.9 0 1.9-4 .1-4-1.2-4-1.8-4z"/><path d="M298.2 232.7h-62c-2.9 0-5.2 2.3-5.2 5.2v27.2c0 2.9 2.3 5.2 5.2 5.2h62c2.9 0 5.2-2.3 5.2-5.2v-27.2c0-2.9-2.3-5.2-5.2-5.2zm-8.8 28.3c-2.5 0-4.6-.8-6.1-2.2.2.5.2 1.1.2 1.7 0 2.1-.9 3.9-2.7 5.1-1.6 1.1-3.9 1.6-6.8 1.6-8 0-8.9-3.8-8.9-6.6 0-.8.7-1.5 1.5-1.5h1.7c-.8-.7-1.3-1.6-1.5-2.4-1.5 2.7-4.3 4.4-7.7 4.4-2.3 0-4.2-.6-5.7-1.8-.1.8-.8 1.3-1.5 1.3h-12c-.8 0-1.5-.7-1.5-1.5v-21c0-.8.7-1.5 1.5-1.5h4c.8 0 1.5.7 1.5 1.5v16.2h4.9c-.2-1-.4-2.1-.4-3.2 0-6 3.7-10 9.1-10 3.4 0 6 1.4 7.5 3.9 1.3-2.4 4-3.9 7.4-3.9 3.6.1 5-.7 6.8-1.6.4-.2.9-.2 1.3-.1.4.2.7.5.9 1l.8 2.6c1.5-1.2 3.4-1.8 5.6-1.8 5.6 0 9.1 3.8 9.1 10 .1 5.8-3.6 9.8-9 9.8z"/></g><path d="M345.6 222.8v120.9H188.7V222.8h156.9m.8-.8H188v122.4h158.4V222z"/><path fill="#f26518" d="M209 296.8h-.9v3.1h-1.5v-7.6h2.3c2 0 3 .7 3 2.2 0 1-.5 1.7-1.5 2.1l2 3.3h-1.7l-1.7-3.1zm-.9-1h.9c.9 0 1.4-.4 1.4-1.3 0-.8-.5-1.2-1.5-1.2h-.8v2.5zm5-1.3h4.4v1.1h-4.4v-1.1zm0 2.3h4.4v1.1h-4.4v-1.1zm10.9 3.1h-1.6l-1.5-3.1-1.5 3.1h-1.6l2.2-4.1-2-3.6h1.6l1.3 2.6 1.3-2.6h1.6l-2 3.5 2.2 4.2zm6.2 0h-1.6l-1.5-3.1-1.5 3.1H224l2.2-4.1-2-3.6h1.6l1.3 2.6 1.3-2.6h1.6l-2 3.5 2.2 4.2zm6.2 0h-1.6l-1.5-3.1-1.5 3.1h-1.6l2.2-4.1-2-3.6h1.6l1.3 2.6 1.3-2.6h1.6l-2 3.5 2.2 4.2z"/><g fill="#f26518"><path d="M258.3 293l-.8.8c-.5-.4-1-.6-1.6-.6-1.1 0-2 .8-2 2.9 0 2.1.6 2.9 1.8 2.9.4 0 .9-.1 1.2-.3v-2h-1.1l-.2-1.1h2.7v3.7c-.8.5-1.7.8-2.6.8-2.2 0-3.4-1.4-3.4-4s1.6-4 3.5-4c1.1 0 1.8.3 2.5.9zm1.2 1.5h4.4v1.1h-4.4v-1.1zm0 2.3h4.4v1.1h-4.4v-1.1zm10.9 3.1h-1.6l-1.5-3.1-1.5 3.1h-1.6l2.2-4.1-2-3.6h1.6l1.3 2.6 1.3-2.6h1.6l-2 3.5 2.2 4.2zm6.2 0H275l-1.5-3.1-1.5 3.1h-1.6l2.2-4.1-2-3.6h1.6l1.3 2.6 1.3-2.6h1.6l-2 3.5 2.2 4.2z"/><path d="M282.8 299.9h-1.6l-1.5-3.1-1.5 3.1h-1.6l2.2-4.1-2-3.6h1.6l1.3 2.6 1.3-2.6h1.6l-2 3.5 2.2 4.2z"/></g><g fill="#f26518"><path d="M304.3 297.7c0 1.7-1.3 2.2-3.2 2.2h-2.3v-7.6h2c2 0 3.2.6 3.2 1.9 0 1-.7 1.5-1.4 1.6.8.2 1.7.6 1.7 1.9zm-4-4.4v2.1h.9c.8 0 1.3-.4 1.3-1.1 0-.8-.5-1-1.5-1h-.7zm2.5 4.3c0-.9-.7-1.2-1.5-1.2h-1v2.4h.9c.9 0 1.6-.2 1.6-1.2zm2.5-3.1h4.4v1.1h-4.4v-1.1zm0 2.3h4.4v1.1h-4.4v-1.1zm10.9 3.1h-1.6l-1.5-3.1-1.5 3.1H310l2.2-4.1-2-3.6h1.6l1.3 2.6 1.3-2.6h1.6l-2 3.5 2.2 4.2z"/><path d="M322.4 299.9h-1.6l-1.5-3.1-1.5 3.1h-1.6l2.2-4.1-2-3.6h1.6l1.3 2.6 1.3-2.6h1.6l-2 3.5 2.2 4.2zm6.2 0H327l-1.5-3.1-1.5 3.1h-1.6l2.2-4.1-2-3.6h1.6l1.3 2.6 1.3-2.6h1.6l-2 3.5 2.2 4.2z"/></g><g fill="#2997ff"><path d="M208.6 319.8h-.9v3.1h-1.5v-7.6h2.3c2 0 3 .7 3 2.2 0 1-.5 1.7-1.5 2.1l2 3.3h-1.7l-1.7-3.1zm-.9-1h.9c.9 0 1.4-.4 1.4-1.3 0-.8-.5-1.2-1.5-1.2h-.8v2.5zm5-1.3h4.4v1.1h-4.4v-1.1zm0 2.3h4.4v1.1h-4.4v-1.1zm8.9.2v2.9h-1.5V320l-2.5-4.8h1.6l1.6 3.5 1.6-3.5h1.5l-2.3 4.8zm6.4 0v2.9h-1.5V320l-2.5-4.8h1.6l1.6 3.5 1.6-3.5h1.5L228 320zm6.3 0v2.9h-1.5V320l-2.5-4.8h1.6l1.6 3.5 1.6-3.5h1.5l-2.3 4.8zm23.6-4l-.8.8c-.5-.4-1-.6-1.6-.6-1.1 0-2 .8-2 2.9 0 2.1.6 2.9 1.8 2.9.4 0 .9-.1 1.2-.3v-2h-1.1l-.2-1.1h2.7v3.7c-.8.5-1.7.8-2.6.8-2.2 0-3.4-1.4-3.4-4s1.6-4 3.5-4c1.1 0 1.9.3 2.5.9zm1.2 1.5h4.4v1.1h-4.4v-1.1zm0 2.3h4.4v1.1h-4.4v-1.1zm9 .2v2.9h-1.5V320l-2.5-4.8h1.6l1.6 3.5 1.6-3.5h1.5l-2.3 4.8z"/><path d="M274.4 320v2.9h-1.5V320l-2.5-4.8h1.6l1.6 3.5 1.6-3.5h1.5l-2.3 4.8zm6.4 0v2.9h-1.5V320l-2.5-4.8h1.6l1.6 3.5 1.6-3.5h1.5l-2.3 4.8zm23.1.7c0 1.7-1.3 2.2-3.2 2.2h-2.3v-7.6h2c2 0 3.2.6 3.2 1.9 0 1-.7 1.5-1.4 1.6.8.2 1.7.6 1.7 1.9zm-4-4.4v2.1h.9c.8 0 1.3-.4 1.3-1.1 0-.8-.5-1-1.5-1h-.7zm2.5 4.3c0-.9-.7-1.2-1.5-1.2h-1v2.4h.9c.9 0 1.6-.2 1.6-1.2zm2.5-3.1h4.4v1.1h-4.4v-1.1zm0 2.3h4.4v1.1h-4.4v-1.1zm8.9.2v2.9h-1.5V320l-2.5-4.8h1.6l1.6 3.5 1.6-3.5h1.5l-2.3 4.8zm6.4 0v2.9h-1.5V320l-2.5-4.8h1.6l1.6 3.5 1.6-3.5h1.5l-2.3 4.8zm6.3 0v2.9H325V320l-2.5-4.8h1.6l1.6 3.5 1.6-3.5h1.5l-2.3 4.8z"/></g><path fill="#2997ff" d="M239 371.9h-2v6.7h-3.2v-16.8h5c4.4 0 6.7 1.6 6.7 4.9 0 2.3-1.1 3.6-3.4 4.5l4.4 7.3h-3.7l-3.8-6.6zm-2-2.3h2c2 0 3.1-.8 3.1-2.8 0-1.8-1-2.6-3.4-2.6H237v5.4zm23.5-6.2l-1.7 1.8c-1.1-.9-2.1-1.3-3.5-1.3-2.4 0-4.4 1.8-4.4 6.3 0 4.6 1.4 6.3 4 6.3.9 0 1.9-.2 2.7-.7v-4.4h-2.5l-.3-2.4h6v8.2c-1.7 1-3.7 1.7-5.8 1.7-4.8 0-7.4-3-7.4-8.8 0-5.7 3.5-8.7 7.7-8.7 2.2.1 3.8.8 5.2 2zm15.4 10.4c0 3.7-2.9 4.8-7 4.8h-5v-16.8h4.4c4.3 0 6.9 1.2 6.9 4.3 0 2.1-1.5 3.3-3.1 3.6 1.9.4 3.8 1.3 3.8 4.1zm-8.9-9.6v4.5h2c1.7 0 2.9-.8 2.9-2.4 0-1.7-1.2-2.2-3.4-2.2H267zm5.6 9.5c0-2-1.4-2.7-3.3-2.7H267v5.2h1.9c2.1 0 3.7-.4 3.7-2.5zm9 3.3c0 1.1-.9 2-2 2s-1.9-.9-1.9-2 .8-2 1.9-2c1.2 0 2 .9 2 2zm13.2-.1l-.7 2.1c-1.4-.1-2.4-.6-2.8-1.9-.9 1.4-2.3 1.9-3.9 1.9-2.5 0-4.1-1.6-4.1-4 0-2.8 2.1-4.3 5.8-4.3h1.6v-.7c0-1.7-.8-2.2-2.4-2.2-.9 0-2.1.2-3.4.7l-.7-2.1c1.6-.6 3.2-.9 4.6-.9 3.4 0 5 1.6 5 4.4v5.4c.1 1 .4 1.3 1 1.6zm-4-1.8v-2.6h-1.3c-2 0-3 .7-3 2.2 0 1.2.6 1.9 1.8 1.9 1.1.1 1.9-.4 2.5-1.5zm10.3-13.9c0 1-.8 1.9-2 1.9-1.1 0-1.9-.8-1.9-1.9 0-1.1.8-1.9 1.9-1.9 1.2 0 2 .8 2 1.9zm-.4 17.4h-3.1v-12.8h3.1v12.8z"/><g fill="#f26518"><path d="M432.6 259.7h8.4l-.5 3.3h-12v-21h4v17.7z"/><path d="M455.4 255c0 5.1-2.8 8.5-7.6 8.5-4.7 0-7.6-3.2-7.6-8.5 0-5.1 2.8-8.5 7.6-8.5s7.6 3.2 7.6 8.5zm-11.1 0c0 3.9 1.2 5.6 3.5 5.6s3.5-1.7 3.5-5.6c0-3.8-1.2-5.5-3.4-5.5-2.3-.1-3.6 1.6-3.6 5.5zm26.9-7.2c-1.2.4-2.7.5-4.7.5 1.9.9 2.9 2.1 2.9 4.1 0 3.1-2.4 5.4-6.5 5.4-.7 0-1.3-.1-1.9-.2-.4.3-.7.7-.7 1.2 0 .6.3 1.1 1.9 1.1h2.5c3.6 0 5.9 1.9 5.9 4.6 0 3.2-2.8 5.1-8 5.1-5.7 0-7.3-1.8-7.3-5.1h3.5c0 1.6.7 2.3 3.9 2.3 3.1 0 4-.9 4-2.1 0-1.2-.9-1.9-2.7-1.9h-2.4c-3.2 0-4.6-1.4-4.6-3.1 0-1.1.7-2.3 1.9-3-2-1-2.8-2.5-2.8-4.5 0-3.5 2.8-5.8 6.7-5.8 3.8.1 5.6-.8 7.5-1.8l.9 3.2zm-11.2 4.4c0 1.9 1.1 3.2 2.9 3.2 1.9 0 2.9-1.2 2.9-3.2s-1-3-2.9-3c-1.9-.1-2.9 1.1-2.9 3z"/><path d="M485.7 255c0 5.1-2.8 8.5-7.6 8.5-4.7 0-7.6-3.2-7.6-8.5 0-5.1 2.8-8.5 7.6-8.5s7.6 3.2 7.6 8.5zm-11 0c0 3.9 1.2 5.6 3.5 5.6s3.5-1.7 3.5-5.6c0-3.8-1.2-5.5-3.4-5.5-2.4-.1-3.6 1.6-3.6 5.5z"/></g><g fill="#2997ff"><path d="M464 264.4h-2.4c-.4 0-.9 0-1.3-.1v.3c0 .4.1.5.1.5s.4.3 2.3.3c2.1 0 2.5-.4 2.5-.4v-.2c0-.4-1-.4-1.2-.4zm-16.2-13.5c-.6 0-2 0-2 4s1.3 4 1.9 4c.6 0 1.9 0 1.9-4 .1-4-1.1-4-1.8-4zm15.1 2.9c.5 0 1.3 0 1.3-1.7 0-1.1-.2-1.5-1.4-1.5-.3 0-1.3 0-1.3 1.5 0 1.7 1 1.7 1.4 1.7zm4.1 4.8c1.2.2 2.2.7 3 1.3-.4-.9-.6-1.8-.8-2.9-.6.7-1.4 1.2-2.2 1.6zm11.2-7.7c-.6 0-2 0-2 4s1.3 4 1.9 4c.6 0 1.9 0 1.9-4 .1-4-1.2-4-1.8-4z"/><path d="M486.9 236.7h-62c-2.9 0-5.2 2.3-5.2 5.2v27.2c0 2.9 2.3 5.2 5.2 5.2h62c2.9 0 5.2-2.3 5.2-5.2v-27.2c0-2.9-2.3-5.2-5.2-5.2zm-8.8 28.3c-2.5 0-4.6-.8-6.1-2.2.2.5.2 1.1.2 1.7 0 2.1-.9 3.9-2.7 5.1-1.6 1.1-3.9 1.6-6.8 1.6-8 0-8.9-3.8-8.9-6.6 0-.8.7-1.5 1.5-1.5h1.7c-.8-.7-1.3-1.6-1.5-2.4-1.5 2.7-4.3 4.4-7.7 4.4-2.3 0-4.2-.6-5.7-1.8-.1.8-.8 1.3-1.5 1.3h-12c-.8 0-1.5-.7-1.5-1.5v-21c0-.8.7-1.5 1.5-1.5h4c.8 0 1.5.7 1.5 1.5v16.2h4.9c-.2-1-.4-2.1-.4-3.2 0-6 3.7-10 9.1-10 3.4 0 6 1.4 7.5 3.9 1.3-2.4 4-3.9 7.4-3.9 3.6.1 5-.7 6.8-1.6.4-.2.9-.2 1.3-.1.4.2.7.5.9 1l.8 2.6c1.5-1.2 3.4-1.8 5.6-1.8 5.6 0 9.1 3.8 9.1 10 .1 5.8-3.5 9.8-9 9.8z"/></g><path d="M534.4 226.8v120.9H377.5V226.8h156.9m.7-.8H376.7v122.4h158.4V226z"/><g fill="#f26518"><path d="M404.7 300.9l-.7.9c-.4-.4-.9-.5-1.4-.5-1.1 0-1.9.8-1.9 2.8 0 2 .8 2.8 1.9 2.8.7 0 1.1-.3 1.6-.6l.7.9c-.5.5-1.3.9-2.3.9-2 0-3.4-1.4-3.4-4s1.5-4 3.3-4c.9 0 1.6.3 2.2.8zm.2 1.6h4.4v1.1h-4.4v-1.1zm0 2.3h4.4v1.1h-4.4v-1.1zm11 3.1h-1.6l-1.5-3.1-1.5 3.1h-1.6l2.2-4.1-2-3.6h1.6l1.3 2.6 1.3-2.6h1.6l-2 3.5 2.2 4.2zm6.2 0h-1.6l-1.5-3.1-1.5 3.1h-1.6l2.2-4.1-2-3.6h1.6l1.3 2.6 1.3-2.6h1.6l-2 3.5 2.2 4.2zm13.6 0h-1.4l-.2-3.2c-.1-1.1-.1-2.3-.1-3.1l-1.4 5.5h-1.4l-1.5-5.5v3.2l-.2 3.1h-1.4l.6-7.6h1.9l1.4 5.3 1.3-5.3h1.9l.5 7.6zm1.1-5.4h4.4v1.1h-4.4v-1.1zm0 2.3h4.4v1.1h-4.4v-1.1zm10.9 3.1h-1.6l-1.5-3.1-1.5 3.1h-1.6l2.2-4.1-2-3.6h1.6l1.3 2.6 1.3-2.6h1.6l-2 3.5 2.2 4.2z"/><path d="M453.9 307.9h-1.6l-1.5-3.1-1.5 3.1h-1.6l2.2-4.1-2-3.6h1.6l1.3 2.6 1.3-2.6h1.6l-2 3.5 2.2 4.2zm9.5-2.9v2.9h-1.5V305l-2.5-4.8h1.6l1.6 3.5 1.6-3.5h1.5l-2.3 4.8zm3-2.5h4.4v1.1h-4.4v-1.1zm0 2.3h4.4v1.1h-4.4v-1.1zm10.9 3.1h-1.6l-1.5-3.1-1.5 3.1h-1.6l2.2-4.1-2-3.6h1.6l1.3 2.6 1.3-2.6h1.6l-2 3.5 2.2 4.2zm6.2 0h-1.6l-1.5-3.1-1.5 3.1h-1.6l2.2-4.1-2-3.6h1.6l1.3 2.6 1.3-2.6h1.6l-2 3.5 2.2 4.2zm7.9 0h-1.5v-7.6h1.5v7.6zm1.6-4.2l2.9 4.2h-1.7l-2.7-4.1 2.6-3.6h1.6l-2.7 3.5zm3.1-1.2h4.4v1.1h-4.4v-1.1zm0 2.3h4.4v1.1h-4.4v-1.1zm10.9 3.1h-1.6l-1.5-3.1-1.5 3.1h-1.6l2.2-4.1-2-3.6h1.6l1.3 2.6 1.3-2.6h1.6l-2 3.5 2.2 4.2zm6.2 0h-1.6l-1.5-3.1-1.5 3.1H507l2.2-4.1-2-3.6h1.6l1.3 2.6 1.3-2.6h1.6l-2 3.5 2.2 4.2z"/></g><g fill="#2997ff"><path d="M403.5 318.9l-.7.9c-.4-.4-.9-.5-1.4-.5-1.1 0-1.9.8-1.9 2.8 0 2 .8 2.8 1.9 2.8.7 0 1.1-.3 1.6-.6l.7.9c-.5.5-1.3.9-2.3.9-2 0-3.4-1.4-3.4-4s1.5-4 3.3-4c.9 0 1.6.3 2.2.8zm.3 1.6h4.4v1.1h-4.4v-1.1zm0 2.3h4.4v1.1h-4.4v-1.1zm8.9.2v2.9h-1.5V323l-2.5-4.8h1.6l1.6 3.5 1.6-3.5h1.5l-2.3 4.8z"/><path d="M419 323v2.9h-1.5V323l-2.5-4.8h1.6l1.6 3.5 1.6-3.5h1.5L419 323zm16.1 2.9h-1.4l-.2-3.2c-.1-1.1-.1-2.3-.1-3.1L432 325h-1.4l-1.5-5.5v3.2l-.2 3.1h-1.4l.6-7.6h1.9l1.4 5.3 1.3-5.3h1.9l.5 7.7zm1.1-5.4h4.4v1.1h-4.4v-1.1zm0 2.3h4.4v1.1h-4.4v-1.1zm8.9.2v2.9h-1.5V323l-2.5-4.8h1.6l1.6 3.5 1.6-3.5h1.5l-2.3 4.8zm6.4 0v2.9H450V323l-2.5-4.8h1.6l1.6 3.5 1.6-3.5h1.5l-2.3 4.8zm11.8 0v2.9h-1.5V323l-2.5-4.8h1.6l1.6 3.5 1.6-3.5h1.5l-2.3 4.8zm3.1-2.5h4.4v1.1h-4.4v-1.1zm0 2.3h4.4v1.1h-4.4v-1.1zm8.9.2v2.9h-1.5V323l-2.5-4.8h1.6l1.6 3.5 1.6-3.5h1.5l-2.3 4.8zm6.4 0v2.9h-1.5V323l-2.5-4.8h1.6l1.6 3.5 1.6-3.5h1.5l-2.3 4.8zm10.3 2.9h-1.5v-7.6h1.5v7.6zm1.6-4.2l2.9 4.2h-1.7l-2.7-4.1 2.6-3.6h1.6l-2.7 3.5zm3-1.2h4.4v1.1h-4.4v-1.1zm0 2.3h4.4v1.1h-4.4v-1.1zm9 .2v2.9h-1.5V323l-2.5-4.8h1.6l1.6 3.5 1.6-3.5h1.5l-2.3 4.8z"/><path d="M511.9 323v2.9h-1.5V323l-2.5-4.8h1.6l1.6 3.5 1.6-3.5h1.5l-2.3 4.8z"/></g><path fill="#2997ff" d="M425.8 367.2l-1.6 1.9c-1-.8-2-1.2-3.1-1.2-2.3 0-4.1 1.7-4.1 6.2 0 4.4 1.7 6.2 4.1 6.2 1.5 0 2.5-.6 3.4-1.4l1.5 1.9c-1 1-2.8 2-5 2-4.3 0-7.4-3.1-7.4-8.8 0-5.6 3.2-8.7 7.3-8.7 2.1.2 3.5.8 4.9 1.9zm18.3 15.4H441l-.4-7c-.1-2.5-.3-5.1-.2-6.8l-3.1 12h-3l-3.3-12.1c.1 2.3 0 4.6-.1 7l-.4 6.9h-3.1l1.3-16.8h4.1l3 11.8 2.8-11.8h4.2l1.3 16.8zm9.2-6.4v6.4H450v-6.3l-5.4-10.4h3.5l3.5 7.8 3.5-7.8h3.4l-5.2 10.3zm10.5 6.4h-3.2v-16.8h3.2v16.8zm3.6-9.2l6.3 9.2h-3.8l-5.9-9 5.8-7.8h3.5l-5.9 7.6zm11 7.6c0 1.1-.9 2-2 2s-1.9-.9-1.9-2 .8-2 1.9-2c1.1 0 2 .9 2 2zm13.2-.1l-.7 2.1c-1.4-.1-2.4-.6-2.8-1.9-.9 1.4-2.3 1.9-3.9 1.9-2.5 0-4.1-1.6-4.1-4 0-2.8 2.1-4.3 5.8-4.3h1.6v-.7c0-1.7-.8-2.2-2.4-2.2-.9 0-2.1.2-3.4.7l-.7-2.1c1.6-.6 3.2-.9 4.6-.9 3.4 0 5 1.6 5 4.4v5.4c0 1 .4 1.3 1 1.6zm-4-1.8v-2.6h-1.3c-2 0-3 .7-3 2.2 0 1.2.6 1.9 1.8 1.9 1.1.1 1.9-.4 2.5-1.5zm10.3-13.9c0 1-.8 1.9-2 1.9-1.1 0-1.9-.8-1.9-1.9 0-1.1.8-1.9 1.9-1.9 1.2 0 2 .8 2 1.9zm-.4 17.4h-3.1v-12.8h3.1v12.8z"/></svg>