<svg xmlns="http://www.w3.org/2000/svg" id="Layer_1" viewBox="0 0 645.04 114.01" width="645.04" height="114.01"><style>.st0{fill:#a7a9ac}.st1{fill:#2997ff}.st2{fill:#f2c6ae}.st3{fill:#505050}</style><path d="M51.25 63.2H11.94C5.34 63.2 0 57.85 0 51.26V11.94C0 5.34 5.35 0 11.94 0h39.32c6.6 0 11.94 5.35 11.94 11.94v39.32c0 6.59-5.35 11.94-11.95 11.94zm175.65 0h-39.32c-6.6 0-11.94-5.35-11.94-11.94V11.94c0-6.6 5.35-11.94 11.94-11.94h39.32c6.6 0 11.94 5.35 11.94 11.94v39.32c0 6.59-5.35 11.94-11.94 11.94z"/><path d="M246.38 82.69h-39.32c-6.6 0-11.94-5.35-11.94-11.94V31.43c0-6.6 5.35-11.94 11.94-11.94h39.32c6.6 0 11.94 5.35 11.94 11.94v39.32c.01 6.59-5.34 11.94-11.94 11.94z" class="st0"/><path d="M412.29 63.2h-39.32c-6.6 0-11.94-5.35-11.94-11.94V11.94c0-6.6 5.35-11.94 11.94-11.94h39.32c6.6 0 11.94 5.35 11.94 11.94v39.32c0 6.59-5.35 11.94-11.94 11.94z" class="st1"/><path d="M431.77 82.69h-39.32c-6.6 0-11.94-5.35-11.94-11.94V31.43c0-6.6 5.35-11.94 11.94-11.94h39.32c6.6 0 11.94 5.35 11.94 11.94v39.32c.01 6.59-5.34 11.94-11.94 11.94z" class="st2"/><path d="M597.67 63.2h-39.32c-6.6 0-11.94-5.35-11.94-11.94V11.94c0-6.6 5.35-11.94 11.94-11.94h39.32c6.6 0 11.94 5.35 11.94 11.94v39.32c0 6.59-5.35 11.94-11.94 11.94z" class="st1"/><path d="M617.15 82.69h-39.32c-6.6 0-11.94-5.35-11.94-11.94V31.43c0-6.6 5.35-11.94 11.94-11.94h39.32c6.6 0 11.94 5.35 11.94 11.94v39.32c.01 6.59-5.34 11.94-11.94 11.94z" class="st2"/><path d="M21.79 105.16c0 2.43-1.94 3.19-4.63 3.19h-3.33V97.29h2.9c2.85 0 4.58.8 4.58 2.82 0 1.38-.99 2.16-2.05 2.38 1.26.24 2.53.83 2.53 2.67zm-5.84-6.32v2.99h1.3c1.15 0 1.9-.51 1.9-1.55 0-1.12-.77-1.44-2.21-1.44h-.99zm3.63 6.24c0-1.33-.94-1.78-2.18-1.78h-1.46v3.46h1.23c1.4 0 2.41-.28 2.41-1.68zm3.55 1.33v-9.92l2.05-.22v10.08c0 .4.13.59.48.59.18 0 .34-.03.46-.08l.45 1.44c-.35.16-.85.29-1.38.29-1.29 0-2.06-.78-2.06-2.18zm11.33.79l-.43 1.36c-.94-.08-1.55-.4-1.87-1.23-.61.9-1.52 1.26-2.54 1.26-1.68 0-2.72-1.07-2.72-2.61 0-1.84 1.38-2.83 3.84-2.83h1.07v-.48c0-1.1-.5-1.47-1.58-1.47-.58 0-1.39.16-2.26.45l-.46-1.39c1.04-.4 2.11-.61 3.06-.61 2.27 0 3.27 1.04 3.27 2.91v3.55c-.02.69.2.93.62 1.09zm-2.66-1.14v-1.71h-.85c-1.33 0-1.98.48-1.98 1.47 0 .82.42 1.28 1.2 1.28.7 0 1.25-.37 1.63-1.04zm10.34-5.43l-.91 1.23c-.56-.42-1.07-.61-1.71-.61-1.18 0-1.91.86-1.91 2.9 0 2.05.75 2.77 1.91 2.77.64 0 1.09-.21 1.71-.61l.91 1.3c-.77.62-1.65.98-2.74.98-2.45 0-3.97-1.7-3.97-4.4s1.52-4.55 3.95-4.55c1.11 0 1.96.31 2.76.99zm3.18 7.72h-2.05V96.49l2.05-.22v12.08zm2.26-4.74l3.09 4.74h-2.35l-2.91-4.63 2.83-3.84h2.16l-2.82 3.73zm144.97-5.26l-1.14 1.18c-.75-.59-1.38-.88-2.32-.88-1.57 0-2.91 1.18-2.91 4.16 0 3.03.9 4.16 2.62 4.16.62 0 1.23-.13 1.76-.43v-2.88h-1.66l-.22-1.57h3.97v5.41c-1.1.67-2.42 1.09-3.81 1.09-3.15 0-4.88-1.99-4.88-5.78 0-3.75 2.3-5.76 5.07-5.76 1.54 0 2.6.51 3.52 1.3zm6.84 1.42l-.35 1.98c-.26-.06-.45-.1-.75-.1-1.02 0-1.55.75-1.87 2.18v4.51h-2.05v-8.47h1.78l.19 1.67c.4-1.22 1.22-1.89 2.21-1.89.29.01.56.04.84.12zm7.53 4.98h-5.31c.16 1.73.96 2.29 2.08 2.29.75 0 1.38-.24 2.11-.75l.85 1.17c-.83.67-1.86 1.14-3.14 1.14-2.62 0-4.03-1.75-4.03-4.42 0-2.58 1.36-4.53 3.76-4.53 2.37 0 3.73 1.6 3.73 4.27 0 .27-.03.6-.05.83zm-1.98-1.43c0-1.39-.5-2.22-1.65-2.22-.96 0-1.57.64-1.68 2.32h3.33v-.1zm7.53 5.06c-.64 1.98-1.89 3.26-4.4 3.46l-.21-1.49c1.68-.26 2.23-.8 2.71-2h-.7l-2.69-8.47h2.18l1.84 7.11 1.92-7.11h2.11l-2.76 8.5zm9.24-7.73l-.8 1.2c-.7-.45-1.38-.69-2.13-.69-.82 0-1.28.34-1.28.85 0 .56.34.82 1.78 1.22 1.73.46 2.7 1.17 2.7 2.67 0 1.76-1.63 2.69-3.57 2.69-1.46 0-2.59-.5-3.38-1.2l1.02-1.15c.66.5 1.44.83 2.3.83.91 0 1.5-.38 1.5-1.02 0-.7-.34-.93-1.92-1.38-1.74-.48-2.51-1.31-2.51-2.56 0-1.41 1.3-2.47 3.27-2.47 1.22 0 2.22.39 3.02 1.01zm7.74-.02l-.91 1.23c-.56-.42-1.07-.61-1.71-.61-1.18 0-1.9.86-1.9 2.9 0 2.05.75 2.77 1.9 2.77.64 0 1.09-.21 1.71-.61l.91 1.3c-.77.62-1.65.98-2.74.98-2.45 0-3.97-1.7-3.97-4.4s1.52-4.55 3.95-4.55c1.11 0 1.96.31 2.76.99zm7.94 6.57l-.43 1.36c-.94-.08-1.55-.4-1.87-1.23-.61.9-1.52 1.26-2.54 1.26-1.68 0-2.72-1.07-2.72-2.61 0-1.84 1.38-2.83 3.84-2.83h1.07v-.48c0-1.1-.5-1.47-1.58-1.47-.58 0-1.39.16-2.26.45l-.46-1.39c1.04-.4 2.11-.61 3.06-.61 2.27 0 3.27 1.04 3.27 2.91v3.55c-.02.69.2.93.62 1.09zm-2.66-1.14v-1.71h-.85c-1.33 0-1.99.48-1.99 1.47 0 .82.42 1.28 1.2 1.28.71 0 1.25-.37 1.64-1.04zm3.93.35v-9.92l2.05-.22v10.08c0 .4.13.59.48.59.18 0 .34-.03.46-.08l.45 1.44c-.35.16-.85.29-1.38.29-1.29 0-2.06-.78-2.06-2.18zm11.38-1.66h-5.31c.16 1.73.96 2.29 2.08 2.29.75 0 1.38-.24 2.11-.75l.85 1.17c-.83.67-1.86 1.14-3.14 1.14-2.62 0-4.03-1.75-4.03-4.42 0-2.58 1.36-4.53 3.76-4.53 2.37 0 3.73 1.6 3.73 4.27 0 .27-.03.6-.05.83zm-1.98-1.43c0-1.39-.5-2.22-1.65-2.22-.96 0-1.57.64-1.68 2.32h3.33v-.1zm117.88-4.91l-1.04 1.2c-.8-.66-1.57-.94-2.48-.94-.99 0-1.71.45-1.71 1.31 0 .8.43 1.15 2.27 1.73 1.94.61 3.28 1.41 3.28 3.49 0 1.98-1.55 3.39-4.19 3.39-1.76 0-3.07-.62-3.99-1.52l1.09-1.22c.82.69 1.7 1.1 2.85 1.1 1.18 0 2.03-.58 2.03-1.65 0-.93-.46-1.34-2.19-1.87-2.32-.72-3.33-1.65-3.33-3.33 0-1.84 1.58-3.06 3.76-3.06 1.62.01 2.69.49 3.65 1.37zm9.23 5.68c0 2.59-1.2 4.5-3.35 4.5-.86 0-1.6-.3-2.13-.93v3.95l-2.05.22V99.88h1.79l.11 1.04c.67-.88 1.57-1.28 2.48-1.28 2.22 0 3.15 1.75 3.15 4.45zm-2.14.02c0-2.14-.58-2.93-1.6-2.93-.72 0-1.33.5-1.73 1.15v3.81c.4.59.91.88 1.55.88 1.12 0 1.78-.86 1.78-2.91zm11.18 0c0 2.67-1.49 4.48-3.99 4.48s-3.99-1.7-3.99-4.48c0-2.66 1.49-4.47 4-4.47s3.98 1.7 3.98 4.47zm-5.81 0c0 2.03.62 2.93 1.83 2.93s1.82-.91 1.82-2.93-.62-2.91-1.81-2.91c-1.2-.01-1.84.91-1.84 2.91zm12.26 3.84c-.61.43-1.38.64-2.13.64-1.67-.02-2.54-.96-2.54-2.77v-4.47h-1.33v-1.47h1.33v-1.87l2.05-.24v2.11H390l-.21 1.47h-1.76v4.42c0 .83.27 1.17.9 1.17.32 0 .64-.1 1.01-.3l.72 1.31zm12.03-9.73l-1.07 1.25c-.64-.51-1.3-.78-2.05-.78-1.54 0-2.72 1.12-2.72 4.11 0 2.91 1.15 4.1 2.72 4.1.96 0 1.62-.42 2.26-.9l.99 1.25c-.67.69-1.82 1.34-3.33 1.34-2.87 0-4.87-2.03-4.87-5.79 0-3.71 2.11-5.75 4.83-5.75 1.42 0 2.33.41 3.24 1.17zm8.35 5.89c0 2.67-1.49 4.48-3.99 4.48s-3.99-1.7-3.99-4.48c0-2.66 1.49-4.47 4-4.47s3.98 1.7 3.98 4.47zm-5.81 0c0 2.03.62 2.93 1.83 2.93s1.83-.91 1.83-2.93-.62-2.91-1.81-2.91c-1.21-.01-1.85.91-1.85 2.91zm7.28 2.3v-9.92l2.05-.22v10.08c0 .4.13.59.48.59.18 0 .34-.03.46-.08l.45 1.44c-.35.16-.85.29-1.38.29-1.29 0-2.06-.78-2.06-2.18zm11.91-2.3c0 2.67-1.49 4.48-3.99 4.48s-3.99-1.7-3.99-4.48c0-2.66 1.49-4.47 4-4.47s3.98 1.7 3.98 4.47zm-5.81 0c0 2.03.62 2.93 1.82 2.93s1.83-.91 1.83-2.93-.62-2.91-1.81-2.91c-1.2-.01-1.84.91-1.84 2.91zm14.11 4.24h-1.78l-.11-1.18c-.62.96-1.42 1.42-2.59 1.42-1.54 0-2.35-.99-2.35-2.62v-6.08h2.05v5.83c0 .99.32 1.33 1.02 1.33s1.28-.46 1.71-1.2v-5.96h2.05v8.46zm7.11-8.58l-.35 1.98c-.26-.06-.45-.1-.75-.1-1.02 0-1.55.75-1.87 2.18v4.51h-2.05v-8.47h1.78l.19 1.67c.4-1.22 1.22-1.89 2.21-1.89.29.01.56.04.84.12zm6.43.88l-.8 1.2c-.7-.45-1.38-.69-2.13-.69-.82 0-1.28.34-1.28.85 0 .56.34.82 1.78 1.22 1.73.46 2.71 1.17 2.71 2.67 0 1.76-1.63 2.69-3.57 2.69-1.46 0-2.59-.5-3.38-1.2l1.02-1.15c.66.5 1.44.83 2.3.83.91 0 1.5-.38 1.5-1.02 0-.7-.34-.93-1.92-1.38-1.75-.48-2.51-1.31-2.51-2.56 0-1.41 1.3-2.47 3.26-2.47 1.23 0 2.22.39 3.02 1.01zm95.49.16c0 2.54-1.84 3.68-4.34 3.68h-1.3v3.86H534V97.29h3.27c2.78 0 4.48 1.14 4.48 3.52zm-2.21 0c0-1.39-.85-1.97-2.29-1.97h-1.14v4.07h1.14c1.41 0 2.29-.48 2.29-2.1zm8.21-1.04l-.35 1.98c-.26-.06-.45-.1-.75-.1-1.02 0-1.55.75-1.87 2.18v4.51h-2.05v-8.47h1.78l.19 1.67c.4-1.22 1.22-1.89 2.21-1.89.29.01.56.04.84.12zm8.06 4.34c0 2.67-1.49 4.48-3.99 4.48s-3.99-1.7-3.99-4.48c0-2.66 1.49-4.47 4-4.47s3.98 1.7 3.98 4.47zm-5.81 0c0 2.03.62 2.93 1.83 2.93 1.2 0 1.82-.91 1.82-2.93s-.62-2.91-1.81-2.91c-1.2-.01-1.84.91-1.84 2.91zm13.57-3.48l-.91 1.23c-.56-.42-1.07-.61-1.71-.61-1.18 0-1.9.86-1.9 2.9 0 2.05.75 2.77 1.9 2.77.64 0 1.09-.21 1.71-.61l.91 1.3c-.77.62-1.65.98-2.74.98-2.45 0-3.97-1.7-3.97-4.4s1.52-4.55 3.95-4.55c1.11 0 1.96.31 2.76.99zm7.82 4.12h-5.31c.16 1.73.96 2.29 2.08 2.29.75 0 1.38-.24 2.11-.75l.85 1.17c-.83.67-1.86 1.14-3.14 1.14-2.62 0-4.03-1.75-4.03-4.42 0-2.58 1.36-4.53 3.76-4.53 2.37 0 3.73 1.6 3.73 4.27 0 .27-.03.6-.05.83zm-1.98-1.43c0-1.39-.5-2.22-1.65-2.22-.96 0-1.57.64-1.68 2.32h3.33v-.1zm9.23-2.67l-.8 1.2c-.7-.45-1.38-.69-2.13-.69-.82 0-1.28.34-1.28.85 0 .56.34.82 1.78 1.22 1.73.46 2.71 1.17 2.71 2.67 0 1.76-1.63 2.69-3.57 2.69-1.46 0-2.59-.5-3.38-1.2l1.02-1.15c.66.5 1.44.83 2.3.83.91 0 1.5-.38 1.5-1.02 0-.7-.34-.93-1.92-1.38-1.74-.48-2.51-1.31-2.51-2.56 0-1.41 1.3-2.47 3.27-2.47 1.22 0 2.21.39 3.01 1.01zm7.14 0l-.8 1.2c-.71-.45-1.38-.69-2.13-.69-.82 0-1.28.34-1.28.85 0 .56.34.82 1.78 1.22 1.73.46 2.71 1.17 2.71 2.67 0 1.76-1.63 2.69-3.57 2.69-1.46 0-2.59-.5-3.38-1.2l1.03-1.15c.66.5 1.44.83 2.3.83.91 0 1.5-.38 1.5-1.02 0-.7-.34-.93-1.92-1.38-1.75-.48-2.51-1.31-2.51-2.56 0-1.41 1.3-2.47 3.27-2.47 1.21 0 2.2.39 3 1.01zm12.78-2.43l-1.07 1.25c-.64-.51-1.3-.78-2.05-.78-1.54 0-2.72 1.12-2.72 4.11 0 2.91 1.15 4.1 2.72 4.1.96 0 1.62-.42 2.26-.9l.99 1.25c-.67.69-1.83 1.34-3.33 1.34-2.87 0-4.87-2.03-4.87-5.79 0-3.71 2.11-5.75 4.83-5.75 1.42 0 2.33.41 3.24 1.17zm8.35 5.89c0 2.67-1.49 4.48-3.99 4.48s-3.99-1.7-3.99-4.48c0-2.66 1.49-4.47 4-4.47s3.98 1.7 3.98 4.47zm-5.81 0c0 2.03.62 2.93 1.82 2.93s1.83-.91 1.83-2.93-.62-2.91-1.81-2.91c-1.2-.01-1.84.91-1.84 2.91zm7.28 2.3v-9.92l2.05-.22v10.08c0 .4.13.59.48.59.18 0 .34-.03.46-.08l.45 1.44c-.35.16-.85.29-1.38.29-1.29 0-2.06-.78-2.06-2.18zm11.91-2.3c0 2.67-1.49 4.48-3.99 4.48s-3.99-1.7-3.99-4.48c0-2.66 1.49-4.47 4-4.47s3.98 1.7 3.98 4.47zm-5.81 0c0 2.03.62 2.93 1.82 2.93s1.83-.91 1.83-2.93-.62-2.91-1.81-2.91c-1.2-.01-1.84.91-1.84 2.91zm14.11 4.24h-1.78l-.11-1.18c-.62.96-1.42 1.42-2.59 1.42-1.54 0-2.35-.99-2.35-2.62v-6.08h2.05v5.83c0 .99.32 1.33 1.02 1.33s1.28-.46 1.71-1.2v-5.96h2.05v8.46zm7.11-8.58l-.35 1.98c-.26-.06-.45-.1-.75-.1-1.02 0-1.55.75-1.87 2.18v4.51h-2.05v-8.47h1.78l.19 1.67c.4-1.22 1.22-1.89 2.21-1.89.29.01.56.04.84.12zm6.43.88l-.8 1.2c-.7-.45-1.38-.69-2.13-.69-.82 0-1.28.34-1.28.85 0 .56.34.82 1.78 1.22 1.73.46 2.71 1.17 2.71 2.67 0 1.76-1.63 2.69-3.57 2.69-1.46 0-2.59-.5-3.38-1.2l1.02-1.15c.66.5 1.44.83 2.3.83.91 0 1.5-.38 1.5-1.02 0-.7-.34-.93-1.92-1.38-1.75-.48-2.51-1.31-2.51-2.56 0-1.41 1.3-2.47 3.26-2.47 1.23 0 2.22.39 3.02 1.01z" class="st3"/></svg>