<?xml version="1.0" encoding="UTF-8"?><svg id="a" xmlns="http://www.w3.org/2000/svg" viewBox="0 0 260 260"><defs><style>.b{fill:#b3b3b3;}.c{fill:#2997ff;}.d,.e{stroke-width:2px;}.d,.e,.f{fill:none;stroke:#2997ff;}.d,.f{stroke-linecap:round;stroke-linejoin:round;}.e{stroke-miterlimit:10;}.f{stroke-width:.5px;}</style></defs><line class="f" x1="93.29" y1="170.7" x2="178.56" y2="170.7"/><g><path class="c" d="M53.89,184.15c0,4.11-2.11,6.5-5.44,6.5s-5.46-2.32-5.46-6.48,2.12-6.5,5.46-6.5,5.44,2.32,5.44,6.48Zm-8.39,.02c0,3.35,1.13,4.66,2.95,4.66s2.93-1.31,2.93-4.68-1.06-4.66-2.93-4.66-2.95,1.33-2.95,4.68Z"/><path class="c" d="M60.24,190.38h-2.75l-3.15-9.52h2.5l2.03,7.67,2.09-7.67h2.38l-3.1,9.52Z"/><path class="c" d="M72.05,186.32h-5.98c.18,1.94,1.08,2.57,2.34,2.57,.85,0,1.55-.27,2.38-.85l.95,1.31c-.94,.76-2.09,1.28-3.53,1.28-2.95,0-4.54-1.96-4.54-4.97s1.53-5.1,4.23-5.1,4.2,1.8,4.2,4.81c0,.31-.04,.68-.05,.94Zm-2.23-1.6c0-1.57-.56-2.5-1.85-2.5-1.08,0-1.76,.72-1.89,2.61h3.75v-.11Z"/><path class="c" d="M79.43,180.72l-.4,2.23c-.29-.07-.5-.11-.85-.11-1.15,0-1.75,.85-2.11,2.45v5.08h-2.3v-9.52h2l.22,1.87c.45-1.37,1.37-2.12,2.48-2.12,.34,0,.65,.04,.95,.13Z"/><path class="c" d="M86.67,181.71l-.9,1.35c-.79-.5-1.55-.77-2.39-.77-.92,0-1.44,.38-1.44,.95,0,.63,.38,.92,2,1.37,1.94,.52,3.04,1.31,3.04,3.01,0,1.98-1.84,3.03-4.02,3.03-1.64,0-2.92-.56-3.8-1.35l1.15-1.3c.74,.56,1.62,.94,2.59,.94,1.03,0,1.69-.43,1.69-1.15,0-.79-.38-1.04-2.16-1.55-1.96-.54-2.83-1.48-2.83-2.88,0-1.58,1.46-2.77,3.67-2.77,1.37,0,2.48,.43,3.39,1.13Z"/><path class="c" d="M96.19,183.48v6.9h-2.3v-6.54c0-1.19-.47-1.53-1.17-1.53-.81,0-1.44,.56-2,1.42v6.64h-2.3v-13.32l2.3-.23v5.17c.74-.9,1.62-1.4,2.77-1.4,1.69,0,2.7,1.1,2.7,2.9Z"/><path class="c" d="M106.81,185.6c0,3.01-1.67,5.04-4.48,5.04s-4.48-1.91-4.48-5.04,1.67-5.02,4.5-5.02,4.47,1.91,4.47,5.02Zm-6.54,0c0,2.29,.7,3.29,2.05,3.29s2.05-1.03,2.05-3.29-.7-3.28-2.03-3.28-2.07,1.03-2.07,3.28Z"/><path class="c" d="M116.96,185.6c0,3.01-1.67,5.04-4.48,5.04s-4.48-1.91-4.48-5.04,1.67-5.02,4.5-5.02,4.47,1.91,4.47,5.02Zm-6.54,0c0,2.29,.7,3.29,2.05,3.29s2.05-1.03,2.05-3.29-.7-3.28-2.03-3.28-2.07,1.03-2.07,3.28Z"/><path class="c" d="M124.22,189.92c-.68,.49-1.55,.72-2.39,.72-1.87-.02-2.86-1.08-2.86-3.12v-5.02h-1.49v-1.66h1.49v-2.11l2.3-.27v2.38h2.21l-.23,1.66h-1.98v4.97c0,.94,.31,1.31,1.01,1.31,.36,0,.72-.11,1.13-.34l.81,1.48Z"/></g><line class="d" x1="141.27" y1="174.64" x2="126.19" y2="189.73"/><path class="b" d="M105.26,137.79h3.54c4.13,20.37,14.02,30.85,29.38,30.85,12.4,0,21.7-8.12,21.7-19.19,0-5.61-2.66-10.78-7.53-14.62-3.69-2.95-6.2-4.28-19.19-9.89-10.19-4.28-16.39-7.97-20.08-11.96-4.43-4.87-7.09-11.66-7.09-18.31,0-14.17,11.07-24.51,26.13-24.51,9.3,0,15.5,2.8,22.73,10.48,2.21-2.66,3.54-5.76,3.84-8.71h3.1v25.83h-3.1c-3.99-15.21-13.58-24.21-26.28-24.21-9.89,0-16.83,6.2-16.83,15.21,0,4.87,2.21,9.01,6.64,12.84,3.25,2.8,7.38,5.17,16.83,9.3,15.21,6.79,19.04,8.86,22.88,12.55,5.46,5.02,8.42,12.11,8.42,20.23,0,16.98-12.4,28.49-30.85,28.49-10.78,0-19.93-4.13-27.02-12.4-1.62,2.36-2.81,5.61-3.69,9.6h-3.54v-31.59Z"/><circle class="e" cx="161.43" cy="71.33" r="7.86"/><line class="d" x1="174.57" y1="63.46" x2="161.29" y2="63.46"/><g><path class="c" d="M186.02,52.68l-1.17,1.35c-.9-.74-1.76-1.06-2.79-1.06-1.12,0-1.93,.5-1.93,1.48,0,.9,.49,1.3,2.56,1.94,2.18,.68,3.69,1.58,3.69,3.93s-1.75,3.82-4.72,3.82c-1.98,0-3.46-.7-4.48-1.71l1.22-1.37c.92,.77,1.91,1.24,3.21,1.24s2.29-.65,2.29-1.85c0-1.04-.52-1.51-2.47-2.11-2.61-.81-3.75-1.85-3.75-3.75,0-2.07,1.78-3.44,4.23-3.44,1.82,0,3.03,.54,4.11,1.53Z"/><path class="c" d="M196.41,59.07c0,2.92-1.35,5.06-3.76,5.06-.97,0-1.8-.34-2.39-1.04v4.45l-2.3,.25v-13.45h2.02l.13,1.17c.76-.99,1.76-1.44,2.79-1.44,2.49,0,3.53,1.96,3.53,5.01Zm-2.41,.02c0-2.41-.65-3.29-1.8-3.29-.81,0-1.49,.56-1.94,1.3v4.29c.45,.67,1.03,.99,1.75,.99,1.26,0,2-.97,2-3.28Z"/><path class="c" d="M205.77,63.86h-2l-.13-1.33c-.7,1.08-1.6,1.6-2.92,1.6-1.73,0-2.65-1.12-2.65-2.95v-6.84h2.3v6.55c0,1.12,.36,1.49,1.15,1.49s1.44-.52,1.93-1.35v-6.7h2.3v9.52Z"/><path class="c" d="M213.76,54.21l-.4,2.23c-.29-.07-.5-.11-.85-.11-1.15,0-1.75,.85-2.11,2.45v5.08h-2.3v-9.52h2l.22,1.87c.45-1.37,1.37-2.12,2.49-2.12,.34,0,.65,.04,.95,.13Z"/></g><g><path class="c" d="M189.03,101.34c0,2.74-2.18,3.58-5.2,3.58h-3.75v-12.44h3.26c3.21,0,5.15,.9,5.15,3.17,0,1.55-1.12,2.43-2.3,2.68,1.42,.27,2.84,.94,2.84,3.01Zm-6.57-7.11v3.37h1.46c1.3,0,2.14-.58,2.14-1.75,0-1.26-.86-1.62-2.48-1.62h-1.12Zm4.09,7.02c0-1.49-1.06-2-2.45-2h-1.64v3.89h1.39c1.57,0,2.7-.32,2.7-1.89Z"/><path class="c" d="M198.45,100.87h-5.98c.18,1.94,1.08,2.57,2.34,2.57,.85,0,1.55-.27,2.38-.85l.96,1.31c-.94,.76-2.09,1.28-3.53,1.28-2.95,0-4.54-1.96-4.54-4.97s1.53-5.1,4.23-5.1,4.2,1.8,4.2,4.81c0,.31-.04,.68-.05,.94Zm-2.23-1.6c0-1.57-.56-2.5-1.85-2.5-1.08,0-1.76,.72-1.89,2.61h3.75v-.11Z"/><path class="c" d="M207.79,103.63l-.49,1.53c-1.06-.09-1.75-.45-2.11-1.39-.68,1.01-1.71,1.42-2.86,1.42-1.89,0-3.06-1.21-3.06-2.93,0-2.07,1.55-3.19,4.32-3.19h1.21v-.54c0-1.24-.56-1.66-1.78-1.66-.65,0-1.57,.18-2.54,.5l-.52-1.57c1.17-.45,2.38-.68,3.44-.68,2.56,0,3.67,1.17,3.67,3.28v4c0,.77,.25,1.04,.72,1.22Zm-2.99-1.28v-1.93h-.96c-1.49,0-2.23,.54-2.23,1.66,0,.92,.47,1.44,1.35,1.44,.79,0,1.4-.41,1.84-1.17Z"/><path class="c" d="M211.77,104.92h-2.3v-13.34l2.3-.25v13.59Zm2.54-5.33l3.47,5.33h-2.65l-3.28-5.2,3.19-4.32h2.43l-3.17,4.2Z"/></g><circle class="e" cx="163.36" cy="97.06" r="7.86"/><line class="d" x1="176.5" y1="104.92" x2="163.22" y2="104.92"/><g><path class="c" d="M70.12,107.9l-1.17,1.35c-.9-.74-1.76-1.06-2.79-1.06-1.12,0-1.93,.5-1.93,1.48,0,.9,.49,1.3,2.56,1.94,2.18,.68,3.69,1.58,3.69,3.93s-1.75,3.82-4.72,3.82c-1.98,0-3.46-.7-4.48-1.71l1.22-1.37c.92,.77,1.91,1.24,3.21,1.24s2.29-.65,2.29-1.85c0-1.04-.52-1.51-2.47-2.11-2.61-.81-3.75-1.85-3.75-3.75,0-2.07,1.78-3.44,4.23-3.44,1.82,0,3.02,.54,4.11,1.53Z"/><path class="c" d="M80.51,114.29c0,2.92-1.35,5.06-3.76,5.06-.97,0-1.8-.34-2.39-1.04v4.45l-2.3,.25v-13.45h2.02l.13,1.17c.76-.99,1.76-1.44,2.79-1.44,2.48,0,3.53,1.96,3.53,5Zm-2.41,.02c0-2.41-.65-3.29-1.8-3.29-.81,0-1.49,.56-1.94,1.3v4.29c.45,.67,1.03,.99,1.75,.99,1.26,0,2-.97,2-3.28Z"/><path class="c" d="M84.88,106.13c0,.77-.59,1.39-1.46,1.39s-1.44-.61-1.44-1.39,.59-1.4,1.44-1.4,1.46,.61,1.46,1.4Zm-.29,12.95h-2.3v-9.53h2.3v9.53Z"/><path class="c" d="M94.71,112.18v6.9h-2.3v-6.54c0-1.19-.45-1.53-1.17-1.53-.83,0-1.44,.56-2,1.44v6.63h-2.3v-9.53h2l.18,1.24c.74-.95,1.69-1.51,2.9-1.51,1.71,0,2.7,1.08,2.7,2.9Z"/><path class="c" d="M104.74,115.03h-5.98c.18,1.95,1.08,2.58,2.34,2.58,.85,0,1.55-.27,2.38-.85l.95,1.31c-.94,.76-2.09,1.28-3.53,1.28-2.95,0-4.54-1.96-4.54-4.97s1.53-5.1,4.23-5.1,4.2,1.8,4.2,4.81c0,.31-.04,.68-.05,.94Zm-2.23-1.6c0-1.57-.56-2.5-1.85-2.5-1.08,0-1.76,.72-1.89,2.61h3.75v-.11Z"/></g><line class="d" x1="132.3" y1="118.81" x2="108.68" y2="118.81"/></svg>