<?xml version="1.0" encoding="UTF-8"?><svg id="a" xmlns="http://www.w3.org/2000/svg" viewBox="0 0 260 260"><defs><style>.b{fill:#b3b3b3;}.c{fill:#2997ff;}.d{fill:none;stroke:#2997ff;stroke-linecap:round;stroke-linejoin:round;stroke-width:2px;}</style></defs><path class="b" d="M140.89,156.55c-.27,6.91-4.39,11.17-11.03,11.17-5.85,0-9.17-2.92-10.37-9.3-9.17,6.51-15.68,9.3-21.53,9.3-7.71,0-13.29-4.79-13.29-11.43,0-7.98,7.18-14.36,24.72-21.53l10.1-4.12v-2.66c0-5.45-.13-6.91-1.06-8.77-1.86-3.72-5.85-5.72-11.17-5.72-4.25,0-7.98,1.06-9.44,2.92-1.06,1.2-1.2,1.59-1.73,4.39-.53,3.85-2.53,5.98-5.32,5.98-2.39,0-3.99-1.6-3.99-3.85,0-2.39,1.73-5.05,4.65-7.44,4.12-3.19,9.84-4.79,17.15-4.79,9.04,0,15.15,2.66,18.48,7.84,1.59,2.66,1.86,4.39,1.86,10.9v21.67q0,7.58,.53,9.04c.67,1.86,1.99,2.79,3.59,2.79,2.79,0,4.79-2.26,5.45-6.38h2.39Zm-28.58-19.94c-11.03,4.52-16.75,10.23-16.75,17.15,0,5.45,3.19,9.17,7.71,9.17,3.99,0,9.84-2.92,16.22-8.11v-21.13l-7.18,2.92Z"/><g><path class="c" d="M38.44,96.03h-3.24v10.55h-2.4v-10.55h-3.35v-1.89h9.24l-.25,1.89Z"/><path class="c" d="M46.94,102.53h-5.98c.18,1.94,1.08,2.57,2.34,2.57,.85,0,1.55-.27,2.38-.85l.95,1.31c-.94,.76-2.09,1.28-3.53,1.28-2.95,0-4.54-1.96-4.54-4.97s1.53-5.1,4.23-5.1,4.2,1.8,4.2,4.81c0,.31-.04,.68-.05,.94Zm-2.23-1.6c0-1.57-.56-2.5-1.85-2.5-1.08,0-1.76,.72-1.89,2.61h3.75v-.11Z"/><path class="c" d="M56.64,105.28l-.49,1.53c-1.06-.09-1.75-.45-2.11-1.39-.68,1.01-1.71,1.42-2.86,1.42-1.89,0-3.06-1.21-3.06-2.93,0-2.07,1.55-3.19,4.32-3.19h1.21v-.54c0-1.24-.56-1.66-1.78-1.66-.65,0-1.57,.18-2.54,.5l-.52-1.57c1.17-.45,2.38-.68,3.44-.68,2.56,0,3.67,1.17,3.67,3.28v4c0,.77,.25,1.04,.72,1.22Zm-2.99-1.28v-1.93h-.95c-1.49,0-2.23,.54-2.23,1.66,0,.92,.47,1.44,1.35,1.44,.79,0,1.4-.41,1.84-1.17Z"/><path class="c" d="M64.33,96.93l-.4,2.23c-.29-.07-.5-.11-.85-.11-1.15,0-1.75,.85-2.11,2.45v5.08h-2.3v-9.52h2l.22,1.87c.45-1.37,1.37-2.12,2.48-2.12,.34,0,.65,.04,.95,.13Z"/><path class="c" d="M73.33,93.24v13.34h-2.03l-.16-1.21c-.58,.86-1.49,1.48-2.72,1.48-2.38,0-3.62-2-3.62-5.02s1.48-5.04,3.83-5.04c1.01,0,1.8,.43,2.39,1.03v-4.83l2.3,.25Zm-2.3,10.64v-4.36c-.5-.61-1.04-1.01-1.82-1.01-1.19,0-1.98,1.01-1.98,3.29,0,2.45,.7,3.29,1.84,3.29,.85,0,1.42-.41,1.96-1.22Z"/><path class="c" d="M81.68,96.93l-.4,2.23c-.29-.07-.5-.11-.85-.11-1.15,0-1.75,.85-2.11,2.45v5.08h-2.3v-9.52h2l.22,1.87c.45-1.37,1.37-2.12,2.48-2.12,.34,0,.65,.04,.95,.13Z"/><path class="c" d="M91.11,101.81c0,3.01-1.67,5.04-4.48,5.04s-4.48-1.91-4.48-5.04,1.67-5.02,4.5-5.02,4.47,1.91,4.47,5.02Zm-6.54,0c0,2.29,.7,3.29,2.05,3.29s2.05-1.03,2.05-3.29-.7-3.28-2.03-3.28-2.07,1.03-2.07,3.28Z"/><path class="c" d="M101.7,101.79c0,2.92-1.35,5.06-3.76,5.06-.97,0-1.8-.34-2.39-1.04v4.45l-2.3,.25v-13.45h2.02l.13,1.17c.76-.99,1.76-1.44,2.79-1.44,2.48,0,3.53,1.96,3.53,5.01Zm-2.41,.02c0-2.41-.65-3.29-1.8-3.29-.81,0-1.49,.56-1.94,1.3v4.29c.45,.67,1.03,.99,1.75,.99,1.26,0,2-.97,2-3.28Z"/><path class="c" d="M37.42,111.27l-.7,1.53c-.58-.27-1.26-.45-2.02-.45-1.22,0-1.55,.43-1.55,1.33v.97h5.29v9.52h-2.3v-7.87h-2.99v7.87h-2.3v-7.87h-1.49v-1.66h1.49v-1.01c0-1.75,1.06-3.06,3.66-3.06,1.21,0,2.14,.31,2.92,.68Z"/><path class="c" d="M48.92,117.28v6.9h-2.3v-6.54c0-1.19-.45-1.53-1.17-1.53-.83,0-1.44,.56-2,1.44v6.63h-2.3v-9.52h2l.18,1.24c.74-.95,1.69-1.51,2.9-1.51,1.71,0,2.7,1.08,2.7,2.9Z"/><path class="c" d="M54.1,111.23c0,.77-.59,1.39-1.46,1.39s-1.44-.61-1.44-1.39,.59-1.4,1.44-1.4,1.46,.61,1.46,1.4Zm-.29,12.95h-2.3v-9.52h2.3v9.52Z"/><path class="c" d="M64.26,122.88l-.49,1.53c-1.06-.09-1.75-.45-2.11-1.39-.68,1.01-1.71,1.42-2.86,1.42-1.89,0-3.06-1.21-3.06-2.94,0-2.07,1.55-3.19,4.32-3.19h1.21v-.54c0-1.24-.56-1.66-1.78-1.66-.65,0-1.57,.18-2.54,.5l-.52-1.57c1.17-.45,2.38-.68,3.44-.68,2.56,0,3.67,1.17,3.67,3.28v4c0,.77,.25,1.04,.72,1.22Zm-2.99-1.28v-1.93h-.95c-1.49,0-2.23,.54-2.23,1.66,0,.92,.47,1.44,1.35,1.44,.79,0,1.4-.41,1.84-1.17Z"/><path class="c" d="M66.05,122v-11.16l2.3-.25v11.34c0,.45,.14,.67,.54,.67,.2,0,.38-.04,.52-.09l.5,1.62c-.4,.18-.95,.32-1.55,.32-1.46,0-2.32-.88-2.32-2.45Z"/></g><g><path class="c" d="M160.07,146.92h7.04l-.25,1.76h-4.41v3.73h3.84v1.76h-3.84v5.19h-2.38v-12.44Z"/><path class="c" d="M170.79,146.41c0,.77-.59,1.39-1.46,1.39s-1.44-.61-1.44-1.39,.59-1.4,1.44-1.4,1.46,.61,1.46,1.4Zm-.29,12.95h-2.3v-9.53h2.3v9.53Z"/><path class="c" d="M180.97,152.46v6.9h-2.3v-6.54c0-1.19-.45-1.53-1.17-1.53-.83,0-1.44,.56-2,1.44v6.63h-2.3v-9.53h2l.18,1.24c.74-.95,1.69-1.51,2.9-1.51,1.71,0,2.7,1.08,2.7,2.9Z"/><path class="c" d="M186.16,146.41c0,.77-.59,1.39-1.46,1.39s-1.44-.61-1.44-1.39,.59-1.4,1.44-1.4,1.46,.61,1.46,1.4Zm-.29,12.95h-2.3v-9.53h2.3v9.53Z"/><path class="c" d="M196.31,158.06l-.49,1.53c-1.06-.09-1.75-.45-2.11-1.39-.68,1.01-1.71,1.42-2.86,1.42-1.89,0-3.06-1.21-3.06-2.93,0-2.07,1.55-3.19,4.32-3.19h1.21v-.54c0-1.24-.56-1.66-1.78-1.66-.65,0-1.57,.18-2.54,.5l-.52-1.57c1.17-.45,2.38-.68,3.44-.68,2.56,0,3.67,1.17,3.67,3.28v4c0,.77,.25,1.04,.72,1.22Zm-2.99-1.28v-1.93h-.95c-1.49,0-2.23,.54-2.23,1.66,0,.92,.47,1.44,1.35,1.44,.79,0,1.4-.41,1.84-1.17Z"/><path class="c" d="M198.11,157.18v-11.16l2.3-.25v11.34c0,.45,.14,.67,.54,.67,.2,0,.38-.04,.52-.09l.5,1.62c-.4,.18-.95,.32-1.55,.32-1.46,0-2.32-.88-2.32-2.45Z"/></g><g><path class="c" d="M148.9,90.96h-3.24v10.55h-2.4v-10.55h-3.35v-1.89h9.24l-.25,1.89Z"/><path class="c" d="M159.64,101.51h-2.88l-1.44-7.47-1.48,7.47h-2.83l-2.11-9.52h2.3l1.33,7.83,1.66-7.83h2.36l1.51,7.83,1.42-7.83h2.21l-2.07,9.52Z"/><path class="c" d="M171.65,96.74c0,3.01-1.67,5.04-4.48,5.04s-4.48-1.91-4.48-5.04,1.67-5.02,4.5-5.02,4.47,1.91,4.47,5.02Zm-6.54,0c0,2.29,.7,3.29,2.05,3.29s2.05-1.03,2.05-3.29-.7-3.28-2.03-3.28-2.07,1.03-2.07,3.28Z"/><path class="c" d="M173.35,94.96h5.44v1.84h-5.44v-1.84Z"/><path class="c" d="M187.49,92.85l-.9,1.35c-.79-.5-1.55-.77-2.39-.77-.92,0-1.44,.38-1.44,.95,0,.63,.38,.92,2,1.37,1.94,.52,3.04,1.31,3.04,3.01,0,1.98-1.84,3.02-4.02,3.02-1.64,0-2.92-.56-3.8-1.35l1.15-1.3c.74,.56,1.62,.94,2.59,.94,1.03,0,1.69-.43,1.69-1.15,0-.79-.38-1.04-2.16-1.55-1.96-.54-2.83-1.48-2.83-2.88,0-1.58,1.46-2.77,3.67-2.77,1.37,0,2.48,.43,3.38,1.13Z"/><path class="c" d="M195.08,101.06c-.68,.49-1.55,.72-2.39,.72-1.87-.02-2.86-1.08-2.86-3.11v-5.02h-1.49v-1.66h1.49v-2.11l2.3-.27v2.38h2.21l-.23,1.66h-1.98v4.97c0,.94,.31,1.31,1.01,1.31,.36,0,.72-.11,1.13-.34l.81,1.48Z"/><path class="c" d="M204.43,96.74c0,3.01-1.67,5.04-4.48,5.04s-4.48-1.91-4.48-5.04,1.67-5.02,4.5-5.02,4.47,1.91,4.47,5.02Zm-6.54,0c0,2.29,.7,3.29,2.05,3.29s2.05-1.03,2.05-3.29-.7-3.28-2.03-3.28-2.07,1.03-2.07,3.28Z"/><path class="c" d="M212.2,91.86l-.4,2.23c-.29-.07-.5-.11-.85-.11-1.15,0-1.75,.85-2.11,2.45v5.08h-2.3v-9.52h2l.22,1.87c.45-1.37,1.37-2.12,2.48-2.12,.34,0,.65,.04,.95,.13Z"/><path class="c" d="M221.04,97.46h-5.98c.18,1.94,1.08,2.57,2.34,2.57,.85,0,1.55-.27,2.38-.85l.95,1.31c-.94,.76-2.09,1.28-3.53,1.28-2.95,0-4.54-1.96-4.54-4.97s1.53-5.1,4.23-5.1,4.2,1.8,4.2,4.81c0,.31-.04,.68-.05,.94Zm-2.23-1.6c0-1.57-.56-2.5-1.85-2.5-1.08,0-1.76,.72-1.89,2.61h3.75v-.11Z"/><path class="c" d="M227.64,101.55c-.72,2.23-2.12,3.67-4.95,3.89l-.23-1.67c1.89-.29,2.5-.9,3.04-2.25h-.79l-3.02-9.52h2.45l2.07,7.99,2.16-7.99h2.38l-3.1,9.56Z"/><path class="c" d="M149.36,110.09c-.72,.25-1.62,.32-2.75,.32,1.15,.52,1.73,1.26,1.73,2.45,0,1.85-1.44,3.21-3.83,3.21-.41,0-.77-.04-1.13-.14-.23,.16-.4,.41-.4,.7,0,.34,.2,.67,1.15,.67h1.46c2.11,0,3.48,1.13,3.48,2.7,0,1.91-1.64,3.04-4.75,3.04-3.38,0-4.34-1.08-4.34-2.99h2.07c0,.95,.41,1.37,2.3,1.37s2.39-.5,2.39-1.26c0-.7-.56-1.13-1.62-1.13h-1.44c-1.91,0-2.72-.85-2.72-1.84,0-.67,.41-1.33,1.12-1.76-1.17-.61-1.67-1.46-1.67-2.68,0-2.07,1.64-3.42,3.94-3.42,2.25,.05,3.29-.45,4.45-1.06l.58,1.84Zm-6.64,2.61c0,1.15,.63,1.87,1.69,1.87s1.69-.68,1.69-1.89-.58-1.8-1.73-1.8c-1.04,0-1.66,.72-1.66,1.82Z"/><path class="c" d="M150.6,116.93v-11.16l2.3-.25v11.34c0,.45,.14,.67,.54,.67,.2,0,.38-.04,.52-.09l.5,1.62c-.4,.18-.95,.32-1.55,.32-1.46,0-2.32-.88-2.32-2.45Z"/><path class="c" d="M160.52,119.15c-.72,2.23-2.12,3.67-4.95,3.89l-.23-1.67c1.89-.29,2.5-.9,3.04-2.25h-.79l-3.02-9.52h2.45l2.07,7.99,2.16-7.99h2.38l-3.1,9.56Z"/><path class="c" d="M173.45,114.32c0,2.92-1.35,5.06-3.76,5.06-.97,0-1.8-.34-2.39-1.04v4.45l-2.3,.25v-13.45h2.02l.13,1.17c.76-.99,1.76-1.44,2.79-1.44,2.48,0,3.53,1.96,3.53,5.01Zm-2.41,.02c0-2.41-.65-3.29-1.8-3.29-.81,0-1.49,.56-1.94,1.3v4.29c.45,.67,1.03,.99,1.75,.99,1.26,0,2-.97,2-3.28Z"/><path class="c" d="M183.37,112.21v6.9h-2.3v-6.54c0-1.19-.47-1.53-1.17-1.53-.81,0-1.44,.56-2,1.42v6.64h-2.3v-13.32l2.3-.23v5.17c.74-.9,1.62-1.4,2.77-1.4,1.69,0,2.7,1.1,2.7,2.9Z"/></g><line class="d" x1="90.69" y1="122.98" x2="72.77" y2="122.98"/><line class="d" x1="157.62" y1="159.36" x2="139.7" y2="159.36"/><line class="d" x1="139.05" y1="102.16" x2="129.66" y2="111.54"/></svg>