<?xml version="1.0" encoding="UTF-8"?><svg id="a" xmlns="http://www.w3.org/2000/svg" viewBox="0 0 260 260"><defs><style>.b{fill:#b3b3b3;}.c{fill:#2997ff;}.d{fill:none;stroke:#2997ff;stroke-linecap:round;stroke-linejoin:round;stroke-width:2px;}</style></defs><path class="b" d="M70.77,122.42c4.39-4.12,13.69-9.04,19.94-9.04,3.32,0,8.24,.8,9.97,1.46,.4,.13,1.33-.4,1.33-1.06,.13-1.99,.27-3.99,.27-9.7,.13-12.23-.13-16.75-.4-19.14-.13-1.99-.4-2.39-6.38-3.19-.66-.13-.93-.66-1.06-1.06l-.27-.8c-.13-.53-.13-.8,.27-.93,5.58-2.39,9.17-3.85,14.22-7.04,.27-.13,1.33-.4,1.59-.4,.53,0,.93,1.06,.93,2.13-.13,11.96-.8,39.08-.8,54.5v16.75c0,4.12,.13,11.03,.8,14.36,.4,1.86,.93,1.99,1.59,1.99,1.73,0,5.05-1.33,6.51-1.99,.53-.13,1.33-.4,1.46,.13,.4,1.2,.66,2.92,.66,3.72,0,1.2-.93,1.33-1.6,1.46-3.72,1.2-14.09,3.72-15.15,3.72-.8,0-2.13-1.2-2.39-2.66-.13-1.86-.27-5.32-.27-6.65-9.44,4.65-18.21,7.97-19.94,7.97-5.32,0-10.9-3.59-13.42-6.11-5.32-5.05-7.71-12.63-7.71-17.15,0-6.38,1.86-13.96,9.84-21.27Zm4.25,1.2c-2.92,3.06-5.18,7.84-5.18,13.16,0,2.26,.13,12.23,7.04,18.21,4.52,3.99,8.11,4.25,11.7,4.25,2.79,0,9.44-1.73,11.7-3.32,1.33-.8,1.33-1.06,1.46-1.99,.66-4.65,.53-22.73-.13-27.51-.13-1.33-.27-1.86-2.13-3.19-3.85-2.66-9.04-3.99-14.22-3.99-1.86,0-7.04,1.33-10.23,4.39Z"/><g><path class="c" d="M136.05,92.83h-4.12l-.77,2.88h-2.47l3.87-12.44h2.93l3.85,12.44h-2.52l-.77-2.88Zm-.47-1.8l-1.6-5.94-1.58,5.94h3.19Z"/><path class="c" d="M147.05,87.05l-.9,1.35c-.79-.5-1.55-.77-2.39-.77-.92,0-1.44,.38-1.44,.95,0,.63,.38,.92,2,1.37,1.94,.52,3.04,1.31,3.04,3.01,0,1.98-1.84,3.02-4.02,3.02-1.64,0-2.92-.56-3.8-1.35l1.15-1.3c.74,.56,1.62,.94,2.59,.94,1.03,0,1.69-.43,1.69-1.15,0-.79-.38-1.04-2.16-1.55-1.96-.54-2.83-1.48-2.83-2.88,0-1.58,1.46-2.77,3.67-2.77,1.37,0,2.48,.43,3.38,1.13Z"/><path class="c" d="M156.12,87.03l-1.03,1.39c-.63-.47-1.21-.68-1.93-.68-1.33,0-2.14,.97-2.14,3.26s.85,3.11,2.14,3.11c.72,0,1.22-.23,1.93-.68l1.03,1.46c-.86,.7-1.85,1.1-3.08,1.1-2.75,0-4.47-1.91-4.47-4.95s1.71-5.11,4.45-5.11c1.24,0,2.2,.34,3.1,1.12Z"/><path class="c" d="M165.29,91.66h-5.98c.18,1.94,1.08,2.57,2.34,2.57,.85,0,1.55-.27,2.38-.85l.95,1.31c-.94,.76-2.09,1.28-3.53,1.28-2.95,0-4.54-1.96-4.54-4.97s1.53-5.1,4.23-5.1,4.2,1.8,4.2,4.81c0,.31-.04,.68-.05,.94Zm-2.23-1.6c0-1.57-.56-2.5-1.85-2.5-1.08,0-1.76,.72-1.89,2.61h3.75v-.11Z"/><path class="c" d="M175.15,88.82v6.9h-2.3v-6.54c0-1.19-.45-1.53-1.17-1.53-.83,0-1.44,.56-2,1.44v6.63h-2.3v-9.52h2l.18,1.24c.74-.95,1.69-1.51,2.9-1.51,1.71,0,2.7,1.08,2.7,2.9Z"/><path class="c" d="M185.7,82.37v13.34h-2.03l-.16-1.21c-.58,.86-1.5,1.48-2.72,1.48-2.38,0-3.62-2-3.62-5.02s1.48-5.04,3.83-5.04c1.01,0,1.8,.43,2.39,1.03v-4.83l2.3,.25Zm-2.3,10.64v-4.36c-.5-.61-1.04-1.01-1.82-1.01-1.19,0-1.98,1.01-1.98,3.29,0,2.45,.7,3.29,1.84,3.29,.85,0,1.42-.41,1.96-1.22Z"/><path class="c" d="M196.19,91.66h-5.98c.18,1.94,1.08,2.57,2.34,2.57,.85,0,1.55-.27,2.38-.85l.96,1.31c-.94,.76-2.09,1.28-3.53,1.28-2.95,0-4.54-1.96-4.54-4.97s1.53-5.1,4.23-5.1,4.2,1.8,4.2,4.81c0,.31-.04,.68-.05,.94Zm-2.23-1.6c0-1.57-.56-2.5-1.85-2.5-1.08,0-1.76,.72-1.89,2.61h3.75v-.11Z"/><path class="c" d="M203.93,86.06l-.4,2.23c-.29-.07-.5-.11-.85-.11-1.15,0-1.75,.85-2.11,2.45v5.08h-2.3v-9.52h2l.22,1.87c.45-1.37,1.37-2.12,2.49-2.12,.34,0,.65,.04,.95,.13Z"/></g><line class="d" x1="125.78" y1="95.71" x2="107.86" y2="95.71"/></svg>