<?xml version="1.0" encoding="UTF-8"?><svg id="a" xmlns="http://www.w3.org/2000/svg" viewBox="0 0 260 260"><defs><style>.b{fill:#b3b3b3;}.c{fill:#2997ff;}.d{fill:none;stroke:#2997ff;stroke-linecap:round;stroke-linejoin:round;stroke-width:2px;}</style></defs><path class="b" d="M104.58,123.89c-.13-.66-.93-1.06-7.44-1.99-.53-.13-.67-.4-.4-.93,1.2-2.53,1.33-2.79,1.86-2.92,5.32-1.73,8.77-3.19,14.75-5.32h.4c.27,0,.27,.27,.27,.93-.53,9.04-1.2,26.85-1.2,33.76s0,9.3,.13,10.9c.27,1.86,.53,2.79,1.73,2.66,4.52-.27,5.58-.27,5.98-.27s1.06,.8,1.06,1.2l-.53,3.32c0,.67-.4,.67-.93,.67-3.32,0-6.65-.27-10.77-.27-5.72,0-11.17,.8-11.56,.8-.66,0-.93-.13-1.06-.66-.27-1.06-.27-2.39-.27-3.06,0-.4,.27-.53,.53-.53,5.05-.53,5.98-.93,6.78-4.52,.53-2.26,1.33-11.7,1.06-20.07l-.4-13.69Zm12.1-36.02c0,4.25-2.92,6.78-6.25,6.78-2.92,0-5.45-2.26-5.45-5.58,0-4.25,3.32-6.78,6.25-6.78,3.32,0,5.45,2.66,5.45,5.58Z"/><g><path class="c" d="M133.72,64.49h-3.24v10.55h-2.39v-10.55h-3.35v-1.89h9.24l-.25,1.89Z"/><path class="c" d="M138,62.09c0,.77-.59,1.39-1.46,1.39s-1.44-.61-1.44-1.39,.59-1.4,1.44-1.4,1.46,.61,1.46,1.4Zm-.29,12.95h-2.3v-9.52h2.3v9.52Z"/><path class="c" d="M145.91,74.59c-.68,.49-1.55,.72-2.39,.72-1.87-.02-2.86-1.08-2.86-3.11v-5.02h-1.5v-1.66h1.5v-2.11l2.3-.27v2.38h2.21l-.23,1.66h-1.98v4.97c0,.94,.31,1.31,1.01,1.31,.36,0,.72-.11,1.13-.34l.81,1.48Z"/><path class="c" d="M152.66,74.59c-.68,.49-1.55,.72-2.39,.72-1.87-.02-2.86-1.08-2.86-3.11v-5.02h-1.5v-1.66h1.5v-2.11l2.3-.27v2.38h2.21l-.23,1.66h-1.98v4.97c0,.94,.31,1.31,1.01,1.31,.36,0,.72-.11,1.13-.34l.81,1.48Z"/><path class="c" d="M153.75,72.86v-11.16l2.3-.25v11.34c0,.45,.14,.67,.54,.67,.2,0,.38-.04,.52-.09l.5,1.62c-.4,.18-.95,.32-1.55,.32-1.46,0-2.32-.88-2.32-2.45Z"/><path class="c" d="M166.91,70.99h-5.98c.18,1.94,1.08,2.57,2.34,2.57,.85,0,1.55-.27,2.38-.85l.95,1.31c-.94,.76-2.09,1.28-3.53,1.28-2.95,0-4.54-1.96-4.54-4.97s1.53-5.1,4.23-5.1,4.2,1.8,4.2,4.81c0,.31-.04,.68-.05,.94Zm-2.23-1.6c0-1.57-.56-2.5-1.85-2.5-1.08,0-1.76,.72-1.89,2.61h3.75v-.11Z"/></g><line class="d" x1="123.88" y1="75.68" x2="114.49" y2="85.07"/></svg>