<?xml version="1.0" encoding="UTF-8"?><svg id="a" xmlns="http://www.w3.org/2000/svg" viewBox="0 0 260 260"><defs><style>.b{fill:#b3b3b3;}.c{fill:#2997ff;}.d{fill:none;stroke:#2997ff;stroke-linecap:round;stroke-linejoin:round;stroke-width:2px;}</style></defs><path class="b" d="M141.11,99.79h-3.06c-2.53-14.89-8.37-19.94-22.46-19.01h-17.28v37.48h8.24c10.37,.27,13.29-2.66,13.29-12.76v-.8h3.32v31.24h-3.32v-1.33c-.13-10.77-3.19-13.82-13.29-13.42h-8.24v22.06c-.27,18.34,.66,20.07,11.3,20.07h3.06v3.06h-41.21v-3.06h2.79c10.5,0,11.43-1.73,11.3-20.07v-43.46c.13-17.94-.67-19.27-11.96-19.01h-1.6v-3.06h68.32l.8,22.06Z"/><g><path class="c" d="M164.34,78.35c0,2.74-2.18,3.58-5.2,3.58h-3.75v-12.44h3.26c3.21,0,5.15,.9,5.15,3.17,0,1.55-1.12,2.43-2.3,2.68,1.42,.27,2.84,.94,2.84,3.01Zm-6.57-7.11v3.37h1.46c1.3,0,2.14-.58,2.14-1.75,0-1.26-.86-1.62-2.48-1.62h-1.12Zm4.09,7.02c0-1.49-1.06-2-2.45-2h-1.64v3.89h1.39c1.57,0,2.7-.32,2.7-1.89Z"/><path class="c" d="M174.06,80.64l-.49,1.53c-1.06-.09-1.75-.45-2.11-1.39-.68,1.01-1.71,1.42-2.86,1.42-1.89,0-3.06-1.21-3.06-2.93,0-2.07,1.55-3.19,4.32-3.19h1.21v-.54c0-1.24-.56-1.66-1.78-1.66-.65,0-1.57,.18-2.54,.5l-.52-1.57c1.17-.45,2.38-.68,3.44-.68,2.56,0,3.67,1.17,3.67,3.28v4c0,.77,.25,1.04,.72,1.22Zm-2.99-1.28v-1.93h-.95c-1.49,0-2.23,.54-2.23,1.66,0,.92,.47,1.44,1.35,1.44,.79,0,1.4-.41,1.84-1.17Z"/><path class="c" d="M181.74,72.28l-.4,2.23c-.29-.07-.5-.11-.85-.11-1.15,0-1.75,.85-2.11,2.45v5.08h-2.3v-9.52h2l.22,1.87c.45-1.37,1.37-2.12,2.48-2.12,.34,0,.65,.04,.95,.13Z"/><path class="c" d="M191.61,77.16c0,2.97-1.42,5.04-3.76,5.04-1.04,0-1.91-.47-2.52-1.24l-.14,.97h-2.03v-13.34l2.3-.25v5.15c.61-.85,1.53-1.35,2.63-1.35,2.21,0,3.53,1.84,3.53,5.02Zm-2.41,0c0-2.54-.76-3.29-1.85-3.29-.83,0-1.44,.56-1.89,1.3v4.21c.41,.68,1.04,1.1,1.76,1.1,1.17,0,1.98-.92,1.98-3.31Z"/></g><line class="d" x1="153.28" y1="82.58" x2="143.89" y2="91.97"/></svg>