<?xml version="1.0" encoding="UTF-8"?><svg id="a" xmlns="http://www.w3.org/2000/svg" viewBox="0 0 260 260"><defs><style>.b{fill:#b3b3b3;}.c{fill:#2997ff;}.d{fill:none;stroke:#2997ff;stroke-linecap:round;stroke-linejoin:round;stroke-width:2px;}</style></defs><path class="b" d="M155.15,90.26c9.04,8.91,11.7,21,11.7,30.17,0,13.82-4.92,27.51-15.95,35.75-9.3,7.04-15.42,9.17-18.48,10.5-.4,.13-1.06,1.59-.8,2.26,4.52,10.1,13.29,17.15,22.2,20.47,6.38,2.39,12.76,3.85,17.94,3.59,7.04-.27,8.37-.8,8.91-.93,.27,0,1.33,.27,1.73,1.06,.4,1.06,.13,.67-.93,2.39-3.06,.93-11.83,2.26-17.81,2.26-4.52,0-8.91-.4-14.75-1.73-7.31-1.73-13.03-5.05-18.87-10.24-3.46-3.06-7.98-9.17-10.9-13.56-2.13-3.46-4.52-4.25-8.37-5.45-4.65-1.33-15.15-4.52-21.4-10.23-6.11-5.32-14.89-16.62-14.89-32.57,0-9.57,1.99-24.06,17.15-36.29,6.51-5.32,18.34-10.9,29.38-10.9s24.46,3.72,34.16,13.42Zm-55.29-1.59c-9.7,7.84-13.56,18.74-13.56,34.29,0,7.58,2.39,18.88,7.98,26.32,8.64,11.83,22.86,14.75,28.31,14.75,3.06,0,13.82-2.66,20.87-9.84,7.97-8.24,12.1-17.55,12.1-30.84,0-9.3-1.99-20.34-10.5-29.24-7.58-8.11-15.55-12.23-28.31-12.23-4.52,0-10.5,1.6-16.88,6.78Z"/><g><path class="c" d="M171.82,159.77h-3.24v10.55h-2.39v-10.55h-3.35v-1.89h9.24l-.25,1.89Z"/><path class="c" d="M180.35,169.02l-.49,1.53c-1.06-.09-1.75-.45-2.11-1.39-.68,1.01-1.71,1.42-2.86,1.42-1.89,0-3.06-1.21-3.06-2.93,0-2.07,1.55-3.19,4.32-3.19h1.21v-.54c0-1.24-.56-1.66-1.78-1.66-.65,0-1.57,.18-2.54,.5l-.52-1.57c1.17-.45,2.38-.68,3.44-.68,2.56,0,3.67,1.17,3.67,3.28v4c0,.77,.25,1.04,.72,1.22Zm-2.99-1.28v-1.93h-.95c-1.49,0-2.23,.54-2.23,1.66,0,.92,.47,1.44,1.35,1.44,.79,0,1.41-.41,1.84-1.17Z"/><path class="c" d="M184.97,157.38c0,.77-.59,1.39-1.46,1.39s-1.44-.61-1.44-1.39,.59-1.4,1.44-1.4,1.46,.61,1.46,1.4Zm-.29,12.95h-2.3v-9.53h2.3v9.53Z"/><path class="c" d="M187.28,168.14v-11.16l2.3-.25v11.34c0,.45,.14,.67,.54,.67,.2,0,.38-.04,.52-.09l.5,1.62c-.4,.18-.95,.32-1.55,.32-1.46,0-2.32-.88-2.32-2.45Z"/></g><line class="d" x1="161.3" y1="171.64" x2="149.32" y2="183.62"/></svg>