<?xml version="1.0" encoding="UTF-8"?><svg id="a" xmlns="http://www.w3.org/2000/svg" viewBox="0 0 260 260"><defs><style>.b{fill:#b3b3b3;}.c{fill:#2997ff;}.d{fill:none;stroke:#2997ff;stroke-linecap:round;stroke-linejoin:round;stroke-width:2px;}</style></defs><path class="b" d="M161.96,127.28c-.67,0-.93,.66-1.33,1.33-14.89,28.71-35.75,43.86-53.83,43.86-8.91,0-15.55-3.46-18.21-6.91-1.86-2.39-2.92-5.05-2.92-7.44,0-2.92,4.52-6.38,5.85-6.38,.53,0,1.33,.67,1.99,3.06,1.99,7.71,8.51,10.9,14.89,10.9,24.46,.27,45.99-29.38,60.08-66.59,2.79-7.18,5.45-15.29,6.51-17.81,.27-1.06,.93-1.46,1.73-1.99,2.13-1.06,7.98-5.45,9.44-6.38,.4,0,1.46,1.06,1.33,1.46-.93,6.65-1.06,46.66,.13,68.99,.53,12.1,1.46,13.42,5.32,13.42h7.44c.93,.4-.8,3.85-2.26,3.85-1.33,0-9.44-.4-14.75-.4-4.52,0-11.03,.67-13.16,.67-2.39,0-3.32-.53-3.99-2.26-.13-.67,.4-1.33,.8-1.33,9.04-.13,11.03-.53,11.17-3.72,.13-7.71,.93-21,.93-25.25,0-.67-1.2-1.33-1.86-1.33l-15.29,.27Zm15.82-5.85c.4-.13,1.2-.66,1.33-2.53,.27-5.98,.27-24.06,.8-33.36,.13-1.2-1.33-1.99-1.6-1.06-2.53,9.04-10.77,30.17-13.69,35.49-.13,.66-.13,1.59,.67,1.59,2.26,0,10.1,.13,12.49-.13Z"/><line class="d" x1="108.93" y1="147.08" x2="108.93" y2="164.02"/><g><path class="c" d="M68.51,132.75l-1.17,1.35c-.9-.74-1.76-1.06-2.79-1.06-1.12,0-1.93,.5-1.93,1.48,0,.9,.49,1.3,2.56,1.94,2.18,.68,3.69,1.58,3.69,3.92s-1.75,3.82-4.72,3.82c-1.98,0-3.46-.7-4.48-1.71l1.22-1.37c.92,.77,1.91,1.24,3.21,1.24s2.29-.65,2.29-1.85c0-1.04-.52-1.51-2.47-2.11-2.61-.81-3.75-1.85-3.75-3.75,0-2.07,1.78-3.44,4.23-3.44,1.82,0,3.02,.54,4.1,1.53Z"/><path class="c" d="M80.39,143.93h-2.88l-1.44-7.47-1.48,7.47h-2.83l-2.11-9.52h2.3l1.33,7.83,1.66-7.83h2.36l1.51,7.83,1.42-7.83h2.21l-2.07,9.52Z"/><path class="c" d="M91.66,142.63l-.49,1.53c-1.06-.09-1.75-.45-2.11-1.39-.68,1.01-1.71,1.42-2.86,1.42-1.89,0-3.06-1.21-3.06-2.93,0-2.07,1.55-3.19,4.32-3.19h1.21v-.54c0-1.24-.56-1.66-1.78-1.66-.65,0-1.57,.18-2.54,.5l-.52-1.57c1.17-.45,2.38-.68,3.44-.68,2.56,0,3.67,1.17,3.67,3.28v4c0,.77,.25,1.04,.72,1.22Zm-2.99-1.28v-1.93h-.95c-1.49,0-2.23,.54-2.23,1.66,0,.92,.47,1.44,1.35,1.44,.79,0,1.4-.41,1.84-1.17Z"/><path class="c" d="M100.12,135.27l-.9,1.35c-.79-.5-1.55-.77-2.39-.77-.92,0-1.44,.38-1.44,.95,0,.63,.38,.92,2,1.37,1.94,.52,3.04,1.31,3.04,3.01,0,1.98-1.84,3.02-4.02,3.02-1.64,0-2.92-.56-3.8-1.35l1.15-1.3c.74,.56,1.62,.94,2.59,.94,1.03,0,1.69-.43,1.69-1.15,0-.79-.38-1.04-2.16-1.55-1.96-.54-2.83-1.48-2.83-2.88,0-1.58,1.46-2.77,3.67-2.77,1.37,0,2.48,.43,3.39,1.13Z"/><path class="c" d="M110,137.03v6.9h-2.3v-6.54c0-1.19-.47-1.53-1.17-1.53-.81,0-1.44,.56-2,1.42v6.64h-2.3v-13.32l2.3-.23v5.17c.74-.9,1.62-1.4,2.77-1.4,1.69,0,2.7,1.1,2.7,2.9Z"/></g></svg>