<?xml version="1.0" encoding="UTF-8"?><svg id="a" xmlns="http://www.w3.org/2000/svg" viewBox="0 0 260 260"><defs><style>.b{fill:#b3b3b3;}.c{fill:#2997ff;}.d{fill:none;stroke:#2997ff;stroke-linecap:round;stroke-linejoin:round;stroke-width:2px;}</style></defs><path class="b" d="M94.37,116.39c4.27,8.92,7.97,22.01,8.44,35.1h5.12c-1.99-14.61-3.42-27.98-3.42-40.32v-21.34h15.37v80.35h-18.12l-17.08-34.91c-4.36-8.92-6.83-19.16-7.02-28.74h-5.12c2.28,14.32,3.42,27.51,3.42,39.56v24.09h-15.37V89.83h20.96l12.81,26.56Z"/><g><path class="c" d="M139.75,147.86h-2.38v-12.44h2.38v12.44Z"/><path class="c" d="M150.33,140.96v6.9h-2.3v-6.54c0-1.19-.45-1.53-1.17-1.53-.83,0-1.44,.56-2,1.44v6.63h-2.3v-9.52h2l.18,1.24c.74-.95,1.69-1.51,2.9-1.51,1.71,0,2.7,1.08,2.7,2.9Z"/><path class="c" d="M155.23,147.86h-2.3v-13.34l2.3-.25v13.59Zm2.54-5.33l3.47,5.33h-2.65l-3.28-5.2,3.19-4.32h2.43l-3.17,4.2Z"/><path class="c" d="M172.49,147.41c-.68,.49-1.55,.72-2.39,.72-1.87-.02-2.86-1.08-2.86-3.12v-5.02h-1.49v-1.66h1.49v-2.11l2.3-.27v2.38h2.21l-.23,1.66h-1.98v4.97c0,.94,.31,1.31,1.01,1.31,.36,0,.72-.11,1.13-.34l.81,1.48Z"/><path class="c" d="M179.4,138.21l-.4,2.23c-.29-.07-.5-.11-.85-.11-1.15,0-1.75,.85-2.11,2.45v5.08h-2.3v-9.52h2l.22,1.87c.45-1.37,1.37-2.12,2.48-2.12,.34,0,.65,.04,.95,.13Z"/><path class="c" d="M188.13,146.56l-.49,1.53c-1.06-.09-1.75-.45-2.11-1.39-.68,1.01-1.71,1.42-2.86,1.42-1.89,0-3.06-1.21-3.06-2.93,0-2.07,1.55-3.19,4.32-3.19h1.21v-.54c0-1.24-.56-1.66-1.78-1.66-.65,0-1.57,.18-2.54,.5l-.52-1.57c1.17-.45,2.38-.68,3.44-.68,2.56,0,3.67,1.17,3.67,3.28v4c0,.77,.25,1.04,.72,1.22Zm-2.99-1.28v-1.93h-.95c-1.49,0-2.23,.54-2.23,1.66,0,.92,.47,1.44,1.35,1.44,.79,0,1.41-.41,1.84-1.17Z"/><path class="c" d="M198.63,143.07c0,2.92-1.35,5.06-3.76,5.06-.97,0-1.8-.34-2.39-1.04v4.45l-2.3,.25v-13.45h2.02l.13,1.17c.76-.99,1.76-1.44,2.79-1.44,2.49,0,3.53,1.96,3.53,5.01Zm-2.41,.02c0-2.41-.65-3.29-1.8-3.29-.81,0-1.5,.56-1.94,1.3v4.29c.45,.67,1.03,.99,1.75,.99,1.26,0,2-.97,2-3.28Z"/></g><line class="d" x1="105.94" y1="147.86" x2="132.89" y2="147.86"/></svg>