<?xml version="1.0" encoding="UTF-8"?><svg id="a" xmlns="http://www.w3.org/2000/svg" viewBox="0 0 260 260"><defs><style>.b{fill:#b3b3b3;}.c{fill:#2997ff;}.d{fill:none;stroke:#2997ff;stroke-linecap:round;stroke-linejoin:round;stroke-width:2px;}</style></defs><g><path class="c" d="M157.26,104.3l-1.21,1.4c-.72-.58-1.46-.88-2.3-.88-1.73,0-3.06,1.26-3.06,4.63s1.3,4.61,3.06,4.61c1.08,0,1.82-.47,2.54-1.01l1.12,1.41c-.76,.77-2.05,1.51-3.75,1.51-3.22,0-5.47-2.29-5.47-6.52s2.38-6.46,5.44-6.46c1.58,0,2.61,.47,3.64,1.31Z"/><path class="c" d="M164.4,106.05l-.4,2.23c-.29-.07-.5-.11-.85-.11-1.15,0-1.75,.85-2.11,2.45v5.08h-2.3v-9.53h2l.22,1.87c.45-1.37,1.37-2.12,2.49-2.12,.34,0,.65,.04,.95,.13Z"/><path class="c" d="M173.84,110.93c0,3.01-1.67,5.04-4.48,5.04s-4.48-1.91-4.48-5.04,1.67-5.02,4.5-5.02,4.46,1.91,4.46,5.02Zm-6.54,0c0,2.29,.7,3.29,2.05,3.29s2.05-1.03,2.05-3.29-.7-3.28-2.03-3.28-2.07,1.03-2.07,3.28Z"/><path class="c" d="M182.38,107.04l-.9,1.35c-.79-.5-1.55-.77-2.39-.77-.92,0-1.44,.38-1.44,.95,0,.63,.38,.92,2,1.37,1.95,.52,3.04,1.31,3.04,3.01,0,1.98-1.84,3.02-4.01,3.02-1.64,0-2.92-.56-3.8-1.35l1.15-1.3c.74,.56,1.62,.94,2.59,.94,1.03,0,1.69-.43,1.69-1.15,0-.79-.38-1.04-2.16-1.55-1.96-.54-2.83-1.48-2.83-2.88,0-1.58,1.46-2.77,3.67-2.77,1.37,0,2.48,.43,3.38,1.13Z"/><path class="c" d="M190.77,107.04l-.9,1.35c-.79-.5-1.55-.77-2.39-.77-.92,0-1.44,.38-1.44,.95,0,.63,.38,.92,2,1.37,1.94,.52,3.04,1.31,3.04,3.01,0,1.98-1.84,3.02-4.01,3.02-1.64,0-2.92-.56-3.8-1.35l1.15-1.3c.74,.56,1.62,.94,2.59,.94,1.03,0,1.69-.43,1.69-1.15,0-.79-.38-1.04-2.16-1.55-1.96-.54-2.83-1.48-2.83-2.88,0-1.58,1.46-2.77,3.67-2.77,1.37,0,2.49,.43,3.39,1.13Z"/><path class="c" d="M155.19,124.64l-.9,1.35c-.79-.5-1.55-.77-2.39-.77-.92,0-1.44,.38-1.44,.95,0,.63,.38,.92,2,1.37,1.95,.52,3.04,1.31,3.04,3.01,0,1.98-1.84,3.03-4.01,3.03-1.64,0-2.92-.56-3.8-1.35l1.15-1.3c.74,.56,1.62,.94,2.59,.94,1.03,0,1.69-.43,1.69-1.15,0-.79-.38-1.04-2.16-1.55-1.96-.54-2.83-1.48-2.83-2.88,0-1.58,1.46-2.77,3.67-2.77,1.37,0,2.48,.43,3.38,1.13Z"/><path class="c" d="M162.78,132.85c-.68,.49-1.55,.72-2.39,.72-1.87-.02-2.86-1.08-2.86-3.12v-5.02h-1.49v-1.66h1.49v-2.11l2.3-.27v2.38h2.21l-.23,1.66h-1.98v4.97c0,.94,.31,1.31,1.01,1.31,.36,0,.72-.11,1.13-.34l.81,1.48Z"/><path class="c" d="M169.7,123.65l-.4,2.23c-.29-.07-.5-.11-.85-.11-1.15,0-1.75,.85-2.11,2.45v5.08h-2.3v-9.52h2l.22,1.87c.45-1.37,1.37-2.12,2.49-2.12,.34,0,.65,.04,.95,.13Z"/><path class="c" d="M179.13,128.53c0,3.01-1.67,5.04-4.48,5.04s-4.48-1.91-4.48-5.04,1.67-5.02,4.5-5.02,4.47,1.91,4.47,5.02Zm-6.54,0c0,2.29,.7,3.29,2.05,3.29s2.05-1.03,2.05-3.29-.7-3.28-2.04-3.28-2.07,1.03-2.07,3.28Z"/><path class="c" d="M183.55,133.3h-2.3v-13.34l2.3-.25v13.59Zm2.54-5.33l3.47,5.33h-2.65l-3.28-5.2,3.19-4.32h2.43l-3.17,4.2Z"/><path class="c" d="M198.48,129.25h-5.98c.18,1.94,1.08,2.57,2.34,2.57,.85,0,1.55-.27,2.38-.85l.96,1.31c-.94,.76-2.09,1.28-3.53,1.28-2.95,0-4.54-1.96-4.54-4.97s1.53-5.1,4.23-5.1,4.2,1.8,4.2,4.81c0,.31-.04,.68-.05,.94Zm-2.23-1.6c0-1.57-.56-2.5-1.85-2.5-1.08,0-1.76,.72-1.89,2.61h3.75v-.11Z"/></g><path class="b" d="M95.74,156.45c4.59-.22,7.6-1.07,9.05-2.56,1.45-1.49,2.17-4.64,2.17-9.44v-41.67h-11.1v-4.35h11.1c0-6.84,.93-12.61,2.8-17.33,3.55-9.04,10.08-13.56,19.57-13.56,3.81,0,7.23,.76,10.24,2.27,3.01,1.52,4.52,3.55,4.52,6.1,0,1.43-.52,2.7-1.55,3.83s-2.28,1.69-3.75,1.69c-1.25,0-2.33-.38-3.23-1.14s-1.98-2.09-3.23-3.99l-1.1-1.69c-.6-.91-1.31-1.68-2.13-2.3-.82-.63-1.96-.94-3.42-.94-3.27,0-5.49,1.62-6.65,4.87-.65,1.73-.97,4-.97,6.81v15.38h16.16v4.35h-16.16v41.67c0,4.89,.66,8.02,1.98,9.38,1.32,1.36,4.77,2.24,10.35,2.63v1.82h-34.66v-1.82Z"/><g><path class="c" d="M68.56,54.46h-4.43v5.56h-2.38v-12.44h2.38v4.99h4.43v-4.99h2.39v12.44h-2.39v-5.56Z"/><path class="c" d="M82.13,55.26c0,3.01-1.67,5.04-4.48,5.04s-4.48-1.91-4.48-5.04,1.67-5.02,4.5-5.02,4.47,1.91,4.47,5.02Zm-6.54,0c0,2.29,.7,3.29,2.05,3.29s2.05-1.03,2.05-3.29-.7-3.28-2.04-3.28-2.07,1.03-2.07,3.28Z"/><path class="c" d="M92.64,55.26c0,3.01-1.67,5.04-4.48,5.04s-4.48-1.91-4.48-5.04,1.67-5.02,4.5-5.02,4.46,1.91,4.46,5.02Zm-6.54,0c0,2.29,.7,3.29,2.05,3.29s2.05-1.03,2.05-3.29-.7-3.28-2.03-3.28-2.07,1.03-2.07,3.28Z"/><path class="c" d="M97.07,60.03h-2.3v-13.34l2.3-.25v13.59Zm2.54-5.33l3.47,5.33h-2.65l-3.28-5.2,3.19-4.32h2.43l-3.17,4.2Z"/></g><line class="d" x1="105.24" y1="60.14" x2="114.63" y2="69.53"/><line class="d" x1="135.71" y1="104.71" x2="145.1" y2="114.1"/><g><path class="c" d="M169.22,74.14c0,2.74-2.18,3.58-5.2,3.58h-3.75v-12.44h3.26c3.21,0,5.15,.9,5.15,3.17,0,1.55-1.12,2.43-2.3,2.68,1.42,.27,2.84,.94,2.84,3.01Zm-6.57-7.11v3.37h1.46c1.3,0,2.14-.58,2.14-1.75,0-1.26-.86-1.62-2.48-1.62h-1.12Zm4.09,7.02c0-1.49-1.06-2-2.45-2h-1.64v3.89h1.39c1.57,0,2.7-.32,2.7-1.89Z"/><path class="c" d="M178.94,76.43l-.49,1.53c-1.06-.09-1.75-.45-2.11-1.39-.68,1.01-1.71,1.42-2.86,1.42-1.89,0-3.06-1.21-3.06-2.93,0-2.07,1.55-3.19,4.32-3.19h1.21v-.54c0-1.24-.56-1.66-1.78-1.66-.65,0-1.57,.18-2.54,.5l-.52-1.57c1.17-.45,2.38-.68,3.44-.68,2.56,0,3.67,1.17,3.67,3.28v4c0,.77,.25,1.04,.72,1.22Zm-2.99-1.28v-1.93h-.96c-1.49,0-2.23,.54-2.23,1.66,0,.92,.47,1.44,1.35,1.44,.79,0,1.4-.41,1.84-1.17Z"/><path class="c" d="M180.73,75.54v-11.16l2.3-.25v11.34c0,.45,.14,.67,.54,.67,.2,0,.38-.04,.52-.09l.5,1.62c-.4,.18-.96,.32-1.55,.32-1.46,0-2.32-.88-2.32-2.45Z"/><path class="c" d="M186.08,75.54v-11.16l2.3-.25v11.34c0,.45,.14,.67,.54,.67,.2,0,.38-.04,.52-.09l.5,1.62c-.4,.18-.96,.32-1.55,.32-1.46,0-2.32-.88-2.32-2.45Z"/><path class="c" d="M166.98,82.41l-.7,1.53c-.58-.27-1.26-.45-2.02-.45-1.22,0-1.55,.43-1.55,1.33v.97h5.29v9.52h-2.3v-7.87h-2.99v7.87h-2.3v-7.87h-1.5v-1.66h1.5v-1.01c0-1.75,1.06-3.06,3.66-3.06,1.21,0,2.14,.31,2.92,.68Z"/><path class="c" d="M178.49,88.43v6.9h-2.3v-6.54c0-1.19-.45-1.53-1.17-1.53-.83,0-1.44,.56-2,1.44v6.63h-2.3v-9.52h2l.18,1.24c.74-.95,1.69-1.51,2.9-1.51,1.71,0,2.7,1.08,2.7,2.9Z"/><path class="c" d="M183.67,82.38c0,.77-.59,1.39-1.46,1.39s-1.44-.61-1.44-1.39,.59-1.4,1.44-1.4,1.46,.61,1.46,1.4Zm-.29,12.95h-2.3v-9.52h2.3v9.52Z"/><path class="c" d="M193.82,94.03l-.49,1.53c-1.06-.09-1.75-.45-2.11-1.39-.68,1.01-1.71,1.42-2.86,1.42-1.89,0-3.06-1.21-3.06-2.94,0-2.07,1.55-3.19,4.32-3.19h1.21v-.54c0-1.24-.56-1.66-1.78-1.66-.65,0-1.57,.18-2.54,.5l-.52-1.57c1.17-.45,2.38-.68,3.44-.68,2.56,0,3.67,1.17,3.67,3.28v4c0,.77,.25,1.04,.72,1.22Zm-2.99-1.28v-1.93h-.95c-1.49,0-2.23,.54-2.23,1.66,0,.92,.47,1.44,1.35,1.44,.79,0,1.41-.41,1.84-1.17Z"/><path class="c" d="M195.62,93.14v-11.16l2.3-.25v11.34c0,.45,.14,.67,.54,.67,.2,0,.38-.04,.52-.09l.5,1.62c-.4,.18-.95,.32-1.55,.32-1.46,0-2.32-.88-2.32-2.45Z"/></g><line class="d" x1="142.99" y1="76.85" x2="156.27" y2="76.85"/></svg>