<?xml version="1.0" encoding="UTF-8"?><svg id="a" xmlns="http://www.w3.org/2000/svg" viewBox="0 0 260 260"><defs><style>.b{fill:#b3b3b3;}.c{fill:#2997ff;}</style></defs><path class="b" d="M107.04,126.11c-.8,.67-1.06,2.79-1.06,9.7v16.61c0,3.46,0,4.52,.4,5.18,.53,.67,1.06,.93,2.53,.93l7.04-.27c.53,0,1.06,.66,1.06,1.2l-.53,3.86h-17.28c-2.53,0-5.58,.27-6.65,.27-.53,0-.8-.4-.4-1.33l1.2-2.79c3.06-1.06,3.72-1.46,3.99-3.19,.27-1.46,.27-4.25,.27-16.48v-12.49c0-2.92-.27-3.72-5.58-5.32-.93-.27-1.59-1.99-1.33-2.79,5.05-3.32,9.17-5.45,13.42-8.24,.53-.4,1.33-.53,1.73-.53s.67,.8,.53,2.13c-.13,3.32-.53,6.11-.4,9.44l1.06,4.12Z"/><path class="c" d="M105.97,121.99c2.92-1.06,11.43-7.84,12.63-8.51,1.33-.93,2.79-1.86,3.72-1.86,3.32,0,7.04,3.06,7.04,5.85,0,1.59-2.92,5.32-4.25,6.25-.53,.53-1.2,1.06-1.99,1.06-.53,0-.93-.27-1.33-.8-1.2-1.46-2.66-3.06-5.05-3.06-3.19,0-7.18,2.92-9.7,5.18l-1.06-4.12Z"/><g><path class="c" d="M143.89,108.74h-4.12l-.77,2.88h-2.47l3.87-12.44h2.93l3.85,12.44h-2.52l-.77-2.88Zm-.47-1.8l-1.6-5.94-1.58,5.94h3.19Z"/><path class="c" d="M154.11,101.97l-.4,2.23c-.29-.07-.5-.11-.85-.11-1.15,0-1.75,.85-2.11,2.45v5.08h-2.3v-9.53h2l.22,1.87c.45-1.37,1.37-2.12,2.49-2.12,.34,0,.65,.04,.95,.13Z"/><path class="c" d="M168.13,104.73v6.9h-2.3v-6.54c0-1.19-.47-1.53-1.04-1.53-.79,0-1.28,.56-1.8,1.44v6.63h-2.3v-6.54c0-1.19-.49-1.53-1.04-1.53-.81,0-1.3,.56-1.82,1.44v6.63h-2.3v-9.53h2l.18,1.24c.68-.95,1.55-1.51,2.75-1.51,1.12,0,1.94,.59,2.3,1.6,.72-.99,1.6-1.6,2.86-1.6,1.51,0,2.52,1.1,2.52,2.9Z"/></g></svg>