<svg xmlns="http://www.w3.org/2000/svg" id="Layer_1" viewBox="0 0 422.1 213.43" width="422.1" height="213.43"><defs><style>.cls-1{fill:#00a1e4}.cls-2{fill:#231f20}.cls-3{fill:#808285}.cls-4,.cls-5{stroke:red;stroke-width:.25px;fill:none;stroke-miterlimit:10}.cls-5{stroke:#4f99ff;stroke-width:.5px}</style></defs><path d="M60 60h362M60 72h362M60 84h362M60 96h362M60 108h362M60 120h362M60 132h362M60 144h362M60 156h362M60 168h362M60 180h362M60 192h362M60 204h362" class="cls-5"/><path d="M159.73 149.68c1.67 0 3.12 1.26 3.12 3.14 0 2.02-1.4 3.32-3.2 3.32s-3.18-1.39-3.18-3.19c0-1.7 1.21-3.27 3.26-3.27zm-.2.39c-1.07 0-2.03.89-2.03 2.63s.96 3.04 2.32 3.04c1.12 0 2.01-.83 2.01-2.67 0-1.96-1.07-3-2.3-3zm9.49 5.92v-.3c.56-.06.64-.1.64-.74v-1.6c0-.68-.26-1.09-.83-1.09-.37 0-.71.2-1.08.5 0 .12.03.24.03.41v1.84c0 .59.1.64.63.69v.3h-2.1v-.3c.6-.06.69-.1.69-.72v-1.64c0-.71-.26-1.09-.82-1.09-.37 0-.74.24-1.06.5v2.23c0 .62.08.66.59.72v.3h-2.07v-.3c.64-.06.69-.1.69-.72v-1.96c0-.61-.05-.65-.58-.74v-.27c.47-.07.94-.19 1.37-.38v.77c.2-.15.4-.31.72-.5.23-.14.45-.25.77-.25.47 0 .87.28 1.07.78.27-.21.51-.37.76-.53.22-.14.49-.25.78-.25.76 0 1.24.54 1.24 1.49v1.83c0 .62.07.66.62.72v.31h-2.05zm5.48 0v-.3c.55-.06.61-.13.61-.75v-1.6c0-.67-.26-1.09-.87-1.09-.39 0-.76.22-1.07.49v2.22c0 .65.05.66.63.72v.3h-2.11v-.3c.64-.07.69-.11.69-.72v-1.95c0-.62-.07-.65-.59-.73V152c.5-.08.97-.2 1.38-.38v.75c.19-.14.4-.28.65-.44.27-.17.53-.29.81-.29.77 0 1.27.57 1.27 1.5v1.82c0 .63.06.66.63.72v.3h-2.02zm2.64 0v-.3c.61-.06.68-.1.68-.76V153c0-.59-.02-.64-.62-.72v-.27c.53-.09 1-.21 1.4-.38v3.3c0 .65.07.7.7.76v.3h-2.16zm1.54-5.76c0 .28-.23.53-.53.53-.28 0-.53-.25-.53-.53 0-.32.25-.55.54-.55s.52.24.52.55zm6.53 5.76v-.3c.56-.06.64-.1.64-.74v-1.6c0-.68-.26-1.09-.83-1.09-.37 0-.71.2-1.08.5 0 .12.03.24.03.41v1.84c0 .59.1.64.63.69v.3h-2.1v-.3c.6-.06.69-.1.69-.72v-1.64c0-.71-.26-1.09-.82-1.09-.37 0-.74.24-1.06.5v2.23c0 .62.08.66.59.72v.3h-2.07v-.3c.64-.06.69-.1.69-.72v-1.96c0-.61-.05-.65-.58-.74v-.27c.47-.07.94-.19 1.37-.38v.77c.2-.15.4-.31.72-.5.23-.14.45-.25.77-.25.47 0 .87.28 1.07.78.27-.21.51-.37.76-.53.22-.14.49-.25.78-.25.76 0 1.24.54 1.24 1.49v1.83c0 .62.07.66.62.72v.31h-2.05zm6.25-.81c-.64.76-1.33.92-1.65.92-1.18 0-1.91-.96-1.91-2.1 0-.65.24-1.24.62-1.66.41-.46.94-.7 1.46-.7.88 0 1.52.74 1.52 1.55 0 .2-.04.29-.2.33-.27.05-1.48.12-2.61.16 0 1.22.76 1.73 1.43 1.73.41 0 .8-.17 1.16-.49l.17.25zm-1.7-3.14c-.46 0-.9.43-1.02 1.2.53 0 1.09 0 1.65-.03.19 0 .24-.05.24-.2 0-.5-.34-.98-.88-.98zm3.94 4.07c-.62 0-.96-.37-.96-1.14v-2.78h-.67l-.05-.13.27-.3h.45v-.83c.18-.18.49-.44.67-.62l.15.02c-.02.4-.03 1.03-.03 1.43h1.1c.09.1.07.34-.06.43h-1.04v2.43c0 .76.31.9.55.9.23 0 .46-.09.59-.16l.09.28-.62.33c-.18.09-.35.14-.44.14zm7.56-.92c-.64.76-1.33.92-1.65.92-1.18 0-1.91-.96-1.91-2.1 0-.65.24-1.24.62-1.66.41-.46.94-.7 1.46-.7.88 0 1.52.74 1.52 1.55 0 .2-.04.29-.2.33-.27.05-1.48.12-2.61.16 0 1.22.76 1.73 1.43 1.73.41 0 .8-.17 1.16-.49l.17.25zm-1.7-3.14c-.46 0-.9.43-1.02 1.2.53 0 1.09 0 1.65-.03.19 0 .24-.05.24-.2 0-.5-.34-.98-.88-.98zm7.18 3.73c-.48.07-1 .19-1.52.34v-.73c-.52.42-.93.73-1.47.73-.65 0-1.22-.4-1.22-1.47v-1.81c0-.53-.07-.58-.33-.64l-.27-.05v-.28c.44-.02 1.04-.1 1.42-.17-.03.32-.03.81-.03 1.4v1.31c0 .83.44 1.07.87 1.07.36 0 .7-.15 1.04-.46v-2.18c0-.53-.1-.59-.43-.64l-.33-.04v-.28c.59-.03 1.23-.11 1.55-.17v3.19c0 .49.08.56.45.57h.27v.31zm5.89.22v-.3c.56-.06.64-.1.64-.74v-1.6c0-.68-.26-1.09-.83-1.09-.37 0-.71.2-1.08.5 0 .12.03.24.03.41v1.84c0 .59.1.64.63.69v.3h-2.1v-.3c.6-.06.69-.1.69-.72v-1.64c0-.71-.26-1.09-.82-1.09-.37 0-.74.24-1.06.5v2.23c0 .62.08.66.59.72v.3h-2.07v-.3c.64-.06.69-.1.69-.72v-1.96c0-.61-.05-.65-.58-.74v-.27c.47-.07.94-.19 1.37-.38v.77c.2-.15.4-.31.72-.5.23-.14.45-.25.77-.25.47 0 .87.28 1.07.78.27-.21.51-.37.76-.53.22-.14.49-.25.78-.25.76 0 1.24.54 1.24 1.49v1.83c0 .62.07.66.62.72v.31h-2.05zm5.12 0v-.3c.61-.06.68-.1.68-.76v-1.93c0-.59-.02-.64-.62-.72v-.27c.53-.09 1-.21 1.4-.38v3.3c0 .65.07.7.7.76v.3h-2.16zm1.54-5.76c0 .28-.23.53-.53.53-.28 0-.53-.25-.53-.53 0-.32.25-.55.54-.55s.52.24.52.55zm1.08 1.73c.44-.06 1-.23 1.44-.41v.76c.11-.06.75-.43.87-.49.2-.1.4-.18.55-.18 1.05 0 1.71.91 1.71 1.87 0 1.46-1.16 2.37-2.42 2.59-.3-.01-.57-.1-.71-.17v1.2c0 .66.07.73.83.79v.31h-2.33v-.31c.64-.06.71-.12.71-.74v-4.25c0-.58-.03-.61-.65-.69v-.29zm1.44 3.28c.22.22.59.38.91.38.85 0 1.37-.71 1.37-1.75s-.6-1.61-1.28-1.61c-.33 0-.75.21-1.01.41v2.58zm6.42-2.31c-.18-.58-.45-.94-1-.94-.35 0-.62.23-.62.61s.28.58.84.83c.83.37 1.26.67 1.26 1.33 0 .88-.81 1.34-1.61 1.34-.5 0-.96-.15-1.16-.27-.06-.26-.15-.86-.19-1.14l.32-.06c.19.64.54 1.11 1.18 1.11.38 0 .69-.24.69-.64 0-.42-.26-.64-.78-.88-.7-.32-1.26-.63-1.26-1.33s.59-1.25 1.53-1.25c.41 0 .76.09.95.13.04.27.12.87.16 1.08l-.32.08zm5.81 2.84c-.48.07-1 .19-1.52.34v-.73c-.52.42-.93.73-1.47.73-.65 0-1.22-.4-1.22-1.47v-1.81c0-.53-.07-.58-.33-.64l-.27-.05v-.28c.44-.02 1.04-.1 1.42-.17-.03.32-.03.81-.03 1.4v1.31c0 .83.44 1.07.87 1.07.36 0 .7-.15 1.04-.46v-2.18c0-.53-.1-.59-.43-.64l-.33-.04v-.28c.59-.03 1.23-.11 1.55-.17v3.19c0 .49.08.56.45.57h.27v.31zm3.34.22v-.3c.55-.06.61-.13.61-.75v-1.6c0-.67-.26-1.09-.87-1.09-.39 0-.76.22-1.07.49v2.22c0 .65.05.66.63.72v.3h-2.11v-.3c.64-.07.69-.11.69-.72v-1.95c0-.62-.07-.65-.59-.73v-.28c.5-.08.97-.2 1.38-.38v.75c.19-.14.4-.28.65-.44.27-.17.53-.29.81-.29.77 0 1.27.57 1.27 1.5v1.82c0 .63.06.66.63.72v.3h-2.02zm4.09.11c-.62 0-.96-.37-.96-1.14v-2.78h-.67l-.05-.13.27-.3h.45v-.83c.18-.18.49-.44.67-.62l.15.02c-.02.4-.03 1.03-.03 1.43h1.1c.09.1.07.34-.06.43h-1.04v2.43c0 .76.31.9.55.9.23 0 .46-.09.59-.16l.09.28-.62.33c-.18.09-.35.14-.44.14zm7.56-.92c-.64.76-1.33.92-1.65.92-1.18 0-1.91-.96-1.91-2.1 0-.65.24-1.24.62-1.66.41-.46.94-.7 1.46-.7.88 0 1.52.74 1.52 1.55 0 .2-.04.29-.2.33-.27.05-1.48.12-2.61.16 0 1.22.76 1.73 1.43 1.73.41 0 .8-.17 1.16-.49l.17.25zm-1.7-3.14c-.46 0-.9.43-1.02 1.2.53 0 1.09 0 1.65-.03.19 0 .24-.05.24-.2 0-.5-.34-.98-.88-.98zm3.94 4.07c-.62 0-.96-.37-.96-1.14v-2.78h-.67l-.05-.13.27-.3h.45v-.83c.18-.18.49-.44.67-.62l.15.02c-.02.4-.03 1.03-.03 1.43h1.1c.09.1.07.34-.06.43h-1.04v2.43c0 .76.31.9.55.9.23 0 .46-.09.59-.16l.09.28-.62.33c-.18.09-.35.14-.44.14zm6.13-.34c-.48.07-1 .19-1.52.34v-.73c-.52.42-.93.73-1.47.73-.65 0-1.22-.4-1.22-1.47v-1.81c0-.53-.07-.58-.33-.64l-.27-.05v-.28c.44-.02 1.04-.1 1.42-.17-.03.32-.03.81-.03 1.4v1.31c0 .83.44 1.07.87 1.07.36 0 .7-.15 1.04-.46v-2.18c0-.53-.1-.59-.43-.64l-.33-.04v-.28c.59-.03 1.23-.11 1.55-.17v3.19c0 .49.08.56.45.57h.27v.31zm5.89.22v-.3c.56-.06.64-.1.64-.74v-1.6c0-.68-.26-1.09-.83-1.09-.37 0-.71.2-1.08.5 0 .12.03.24.03.41v1.84c0 .59.1.64.63.69v.3h-2.1v-.3c.6-.06.69-.1.69-.72v-1.64c0-.71-.26-1.09-.82-1.09-.37 0-.74.24-1.06.5v2.23c0 .62.08.66.59.72v.3h-2.07v-.3c.64-.06.69-.1.69-.72v-1.96c0-.61-.05-.65-.58-.74v-.27c.47-.07.94-.19 1.37-.38v.77c.2-.15.4-.31.72-.5.23-.14.45-.25.77-.25.47 0 .87.28 1.07.78.27-.21.51-.37.76-.53.22-.14.49-.25.78-.25.76 0 1.24.54 1.24 1.49v1.83c0 .62.07.66.62.72v.31h-2.05zm9.43-3.94c-.53.06-.6.15-.85.7-.32.75-.91 2.15-1.38 3.34h-.32c-.36-.97-.88-2.25-1.34-3.36-.22-.54-.31-.6-.81-.68v-.3h2.01v.3c-.53.06-.56.12-.4.54.24.63.66 1.69.91 2.32.33-.79.66-1.64.87-2.23.17-.47.12-.56-.48-.63v-.3h1.78v.3zm3.84 3.13c-.64.76-1.33.92-1.65.92-1.18 0-1.91-.96-1.91-2.1 0-.65.24-1.24.62-1.66.41-.46.94-.7 1.46-.7.88 0 1.52.74 1.52 1.55 0 .2-.04.29-.2.33-.27.05-1.48.12-2.61.16 0 1.22.76 1.73 1.43 1.73.41 0 .8-.17 1.16-.49l.17.25zm-1.7-3.14c-.46 0-.9.43-1.02 1.2.53 0 1.09 0 1.65-.03.19 0 .24-.05.24-.2 0-.5-.34-.98-.88-.98zm5.19 3.95v-.3c.55-.06.61-.13.61-.75v-1.6c0-.67-.26-1.09-.87-1.09-.39 0-.76.22-1.07.49v2.22c0 .65.05.66.63.72v.3h-2.11v-.3c.64-.07.69-.11.69-.72v-1.95c0-.62-.07-.65-.59-.73v-.28c.5-.08.97-.2 1.38-.38v.75c.19-.14.4-.28.65-.44.27-.17.53-.29.81-.29.77 0 1.27.57 1.27 1.5v1.82c0 .63.06.66.63.72v.3h-2.02zm5.83.11v-.62l-.6.35c-.37.21-.65.27-.75.27-.78 0-1.82-.76-1.82-2.11s1.18-2.35 2.52-2.35c.12 0 .45.02.65.1v-1.3c0-.59-.07-.62-.76-.67v-.29c.46-.06 1.19-.19 1.56-.31v5.67c0 .5.08.56.44.58l.31.02v.31c-.2.04-.95.15-1.54.35zm0-3.58c-.23-.33-.63-.47-1.02-.47-.42 0-1.27.29-1.27 1.68 0 1.17.74 1.75 1.33 1.75.33 0 .72-.17.96-.35v-2.61zm5.16 3.58c-.15 0-.35-.08-.45-.18a.954.954 0 0 1-.24-.44c-.39.27-.87.62-1.19.62-.68 0-1.19-.57-1.19-1.21 0-.47.26-.8.81-.98.61-.2 1.35-.46 1.54-.62v-.18c0-.67-.35-1.03-.84-1.03-.22 0-.36.1-.46.21-.11.13-.17.35-.26.62-.05.16-.14.23-.3.23-.19 0-.44-.2-.44-.43 0-.14.13-.26.32-.4.28-.19.86-.55 1.41-.67.29 0 .6.09.83.27.35.29.49.64.49 1.12v1.83c0 .44.16.57.34.57.11 0 .24-.05.36-.11l.11.3-.85.48zm-.71-2.43c-.22.11-.67.3-.92.4-.34.15-.57.33-.57.69 0 .5.39.72.68.72.26 0 .58-.14.81-.35v-1.47zm4.82 2.32v-.3c.55-.06.61-.13.61-.75v-1.6c0-.67-.26-1.09-.87-1.09-.39 0-.76.22-1.07.49v2.22c0 .65.05.66.63.72v.3h-2.11v-.3c.64-.07.69-.11.69-.72v-1.95c0-.62-.07-.65-.59-.73v-.28c.5-.08.97-.2 1.38-.38v.75c.19-.14.4-.28.65-.44.27-.17.53-.29.81-.29.77 0 1.27.57 1.27 1.5v1.82c0 .63.06.66.63.72v.3h-2.02zm4.09.11c-.62 0-.96-.37-.96-1.14v-2.78h-.67l-.05-.13.27-.3h.45v-.83c.18-.18.49-.44.67-.62l.15.02c-.02.4-.03 1.03-.03 1.43h1.1c.09.1.07.34-.06.43h-1.04v2.43c0 .76.31.9.55.9.23 0 .46-.09.59-.16l.09.28-.62.33c-.18.09-.35.14-.44.14zm1.52-.11v-.3c.61-.06.68-.1.68-.76v-1.93c0-.59-.02-.64-.62-.72v-.27c.53-.09 1-.21 1.4-.38v3.3c0 .65.07.7.7.76v.3h-2.16zm1.54-5.76c0 .28-.23.53-.53.53-.28 0-.53-.25-.53-.53 0-.32.25-.55.54-.55s.52.24.52.55zm4.29 5.87c-.15 0-.35-.08-.45-.18a.954.954 0 0 1-.24-.44c-.39.27-.87.62-1.19.62-.68 0-1.19-.57-1.19-1.21 0-.47.26-.8.81-.98.61-.2 1.35-.46 1.54-.62v-.18c0-.67-.35-1.03-.84-1.03-.22 0-.36.1-.46.21-.11.13-.17.35-.26.62-.05.16-.14.23-.3.23-.19 0-.44-.2-.44-.43 0-.14.13-.26.32-.4.28-.19.86-.55 1.41-.67.29 0 .6.09.83.27.35.29.49.64.49 1.12v1.83c0 .44.16.57.34.57.11 0 .24-.05.36-.11l.11.3-.85.48zm-.71-2.43c-.22.11-.67.3-.92.4-.34.15-.57.33-.57.69 0 .5.39.72.68.72.26 0 .58-.14.81-.35v-1.47zm6.99-.74c-.18-.58-.45-.94-1-.94-.35 0-.62.23-.62.61s.28.58.84.83c.83.37 1.26.67 1.26 1.33 0 .88-.81 1.34-1.61 1.34-.5 0-.96-.15-1.16-.27-.06-.26-.15-.86-.19-1.14l.32-.06c.19.64.54 1.11 1.18 1.11.38 0 .69-.24.69-.64 0-.42-.26-.64-.78-.88-.7-.32-1.26-.63-1.26-1.33s.59-1.25 1.53-1.25c.41 0 .76.09.95.13.04.27.12.87.16 1.08l-.32.08zm1.18 3.06v-.3c.61-.06.68-.1.68-.76v-1.93c0-.59-.02-.64-.62-.72v-.27c.53-.09 1-.21 1.4-.38v3.3c0 .65.07.7.7.76v.3h-2.16zm1.54-5.76c0 .28-.23.53-.53.53s-.53-.25-.53-.53c0-.32.25-.55.54-.55s.52.24.52.55zm3.98 5.76v-.3c.55-.06.61-.13.61-.75v-1.6c0-.67-.26-1.09-.87-1.09-.39 0-.76.22-1.07.49v2.22c0 .65.05.66.63.72v.3h-2.11v-.3c.64-.07.69-.11.69-.72v-1.95c0-.62-.07-.65-.59-.73v-.28c.5-.08.97-.2 1.38-.38v.75c.19-.14.4-.28.65-.44.27-.17.53-.29.81-.29.77 0 1.27.57 1.27 1.5v1.82c0 .63.06.66.63.72v.3h-2.02zm8.69-.81c-.64.76-1.33.92-1.65.92-1.18 0-1.91-.96-1.91-2.1 0-.65.24-1.24.62-1.66.41-.46.94-.7 1.46-.7.88 0 1.52.74 1.52 1.55 0 .2-.04.29-.2.33-.27.05-1.48.12-2.61.16 0 1.22.76 1.73 1.43 1.73.41 0 .8-.17 1.16-.49l.17.25zm-1.7-3.14c-.46 0-.9.43-1.02 1.2.53 0 1.09 0 1.65-.03.19 0 .24-.05.24-.2 0-.5-.34-.98-.88-.98zm5.19 3.95v-.3c.55-.06.61-.13.61-.75v-1.6c0-.67-.26-1.09-.87-1.09-.39 0-.76.22-1.07.49v2.22c0 .65.05.66.63.72v.3h-2.11v-.3c.64-.07.69-.11.69-.72v-1.95c0-.62-.07-.65-.59-.73v-.28c.5-.08.97-.2 1.38-.38v.75c.19-.14.4-.28.65-.44.27-.17.53-.29.81-.29.77 0 1.27.57 1.27 1.5v1.82c0 .63.06.66.63.72v.3h-2.02zm5.83.11v-.62l-.6.35c-.37.21-.65.27-.75.27-.78 0-1.82-.76-1.82-2.11s1.18-2.35 2.52-2.35c.12 0 .45.02.65.1v-1.3c0-.59-.07-.62-.76-.67v-.29c.46-.06 1.19-.19 1.56-.31v5.67c0 .5.08.56.44.58l.31.02v.31c-.2.04-.95.15-1.54.35zm0-3.58c-.23-.33-.63-.47-1.02-.47-.42 0-1.27.29-1.27 1.68 0 1.17.74 1.75 1.33 1.75.33 0 .72-.17.96-.35v-2.61zm2.04 3.46v-.3c.61-.06.68-.1.68-.76V153c0-.59-.02-.64-.62-.72v-.27c.53-.09 1-.21 1.4-.38v3.3c0 .65.07.7.7.76v.3h-2.16zm1.54-5.76c0 .28-.23.53-.53.53-.28 0-.53-.25-.53-.53 0-.32.25-.55.54-.55s.52.24.52.55zm-194.55 13.42c1.26 0 2.17.93 2.17 2.16 0 1.57-1.2 2.3-2.17 2.3-1.37 0-2.21-1.09-2.21-2.16 0-1.51 1.21-2.3 2.22-2.3zm-1.27 2.02c0 1.22.57 2.07 1.37 2.07.6 0 1.12-.44 1.12-1.72 0-1.14-.49-2.01-1.34-2.01-.59 0-1.15.54-1.15 1.66zm7.54 2.44v-.62c-.17.1-.44.25-.61.35-.38.21-.66.27-.77.27-.8 0-1.86-.76-1.86-2.11s1.2-2.35 2.57-2.35c.13 0 .46.02.67.1v-1.3c0-.59-.07-.62-.78-.67v-.29c.47-.06 1.22-.19 1.59-.31v5.67c0 .5.08.56.45.58l.32.02v.31c-.21.04-.97.15-1.57.35zm0-3.58c-.23-.33-.65-.47-1.04-.47-.43 0-1.3.29-1.3 1.68 0 1.17.75 1.75 1.36 1.75.34 0 .73-.17.98-.35v-2.61zm2.13 3.46v-.3c.63-.06.69-.1.69-.76V165c0-.59-.02-.64-.63-.72v-.27c.55-.09 1.02-.21 1.43-.38v3.3c0 .65.07.7.71.76v.3H155zm1.57-5.76c0 .28-.23.53-.54.53a.55.55 0 0 1-.54-.53c0-.32.26-.55.55-.55s.53.24.53.55zm2.74 5.87c-.63 0-.98-.37-.98-1.14v-2.78h-.68l-.05-.13.27-.3h.46v-.83c.19-.18.5-.44.68-.62l.15.02c-.02.4-.03 1.03-.03 1.43h1.12c.1.1.07.34-.06.43h-1.06v2.43c0 .76.32.9.57.9.23 0 .47-.09.61-.16l.1.28-.64.33c-.18.09-.36.14-.45.14zm7.81-.92c-.65.76-1.35.92-1.68.92-1.2 0-1.95-.96-1.95-2.1 0-.65.24-1.24.63-1.66.42-.46.96-.7 1.49-.7.9 0 1.55.74 1.55 1.55 0 .2-.04.29-.2.33-.28.05-1.51.12-2.66.16 0 1.22.78 1.73 1.46 1.73.42 0 .82-.17 1.18-.49l.17.25zm-1.73-3.14c-.47 0-.92.43-1.04 1.2.54 0 1.11 0 1.69-.03.19 0 .24-.05.24-.2 0-.5-.34-.98-.9-.98zm4.07 4.07c-.63 0-.98-.37-.98-1.14v-2.78h-.68l-.05-.13.27-.3h.46v-.83c.19-.18.5-.44.68-.62l.15.02c-.02.4-.03 1.03-.03 1.43h1.12c.1.1.07.34-.06.43h-1.06v2.43c0 .76.32.9.57.9.23 0 .47-.09.61-.16l.1.28-.64.33c-.18.09-.36.14-.45.14zm4.82-4.35v-.19c0-.68.26-1.37.85-1.87.35-.3.74-.47 1.12-.52.34 0 .65.12.82.31.09.11.1.21.06.34-.03.1-.14.24-.24.32-.11.07-.19.06-.3-.02-.18-.16-.47-.39-.79-.39-.71 0-.71.94-.71 1.65v.37h1.08c.06.09 0 .35-.11.43h-.97v2.75c0 .67.09.68.87.75v.3h-2.37v-.3c.64-.07.7-.1.7-.71v-2.79h-.7l-.05-.12.23-.31h.51zm5.56 4.35c-.15 0-.36-.08-.46-.18a.871.871 0 0 1-.24-.44c-.4.27-.89.62-1.21.62-.69 0-1.21-.57-1.21-1.21 0-.47.27-.8.82-.98.62-.2 1.38-.46 1.58-.62v-.18c0-.67-.36-1.03-.85-1.03-.22 0-.37.1-.47.21-.12.13-.18.35-.27.62-.05.16-.15.23-.3.23-.19 0-.45-.2-.45-.43 0-.14.13-.26.33-.4.28-.19.88-.55 1.44-.67.3 0 .62.09.85.27.35.29.5.64.5 1.12v1.83c0 .44.16.57.34.57.11 0 .25-.05.36-.11l.11.3-.87.48zm-.73-2.43c-.23.11-.69.3-.94.4-.35.15-.58.33-.58.69 0 .5.39.72.7.72.26 0 .59-.14.83-.35v-1.47zm4.14 2.43c-1.26 0-2.02-1.02-2.02-2.04 0-.77.34-1.39.99-1.87.53-.4 1.13-.55 1.52-.55.47 0 .79.14.93.26.14.11.16.18.16.29 0 .23-.25.45-.37.45-.05 0-.1-.02-.19-.09-.32-.26-.64-.42-.99-.42-.64 0-1.22.53-1.22 1.52 0 1.32.92 1.76 1.49 1.76.4 0 .76-.11 1.21-.53l.18.24c-.44.56-1.11.98-1.71.98zm4.36 0c-1.26 0-2.02-1.02-2.02-2.04 0-.77.34-1.39.99-1.87.53-.4 1.13-.55 1.52-.55.47 0 .79.14.93.26.14.11.16.18.16.29 0 .23-.25.45-.37.45-.05 0-.1-.02-.19-.09-.32-.26-.64-.42-.99-.42-.64 0-1.22.53-1.22 1.52 0 1.32.92 1.76 1.49 1.76.4 0 .76-.11 1.21-.53l.18.24c-.44.56-1.11.98-1.71.98zm5.51 0c-.15 0-.36-.08-.46-.18a.871.871 0 0 1-.24-.44c-.4.27-.89.62-1.21.62-.69 0-1.21-.57-1.21-1.21 0-.47.27-.8.82-.98.62-.2 1.38-.46 1.58-.62v-.18c0-.67-.36-1.03-.85-1.03-.22 0-.37.1-.47.21-.12.13-.18.35-.27.62-.05.16-.15.23-.3.23-.19 0-.45-.2-.45-.43 0-.14.13-.26.33-.4.28-.19.88-.55 1.44-.67.3 0 .62.09.85.27.35.29.5.64.5 1.12v1.83c0 .44.16.57.34.57.11 0 .25-.05.36-.11l.11.3-.87.48zm-.73-2.43c-.23.11-.69.3-.94.4-.35.15-.58.33-.58.69 0 .5.39.72.7.72.26 0 .59-.14.83-.35v-1.47zm4.09-1.92c.18-.08.37-.11.49-.11 1.07 0 1.95.9 1.95 2.04 0 1.35-1.17 2.43-2.48 2.43-.43 0-.97-.1-1.52-.35v-5.28c0-.58-.04-.64-.67-.69v-.29c.47-.05 1.12-.19 1.48-.32v2.88l.75-.31zm-.75 3.12c0 .15.02.24.05.33.1.21.49.49.97.49.79 0 1.27-.67 1.27-1.76s-.69-1.73-1.48-1.73c-.3 0-.62.09-.82.18v2.48zm6.28-3.22c1.26 0 2.17.93 2.17 2.16 0 1.57-1.2 2.3-2.17 2.3-1.37 0-2.21-1.09-2.21-2.16 0-1.51 1.21-2.3 2.22-2.3zm-1.27 2.02c0 1.22.57 2.07 1.37 2.07.6 0 1.12-.44 1.12-1.72 0-1.14-.49-2.01-1.34-2.01-.59 0-1.15.54-1.15 1.66zm4.88 2.45c-.36 0-.62-.26-.62-.64 0-.35.26-.63.62-.63s.64.28.64.63c0 .38-.27.64-.64.64zm9.6-.44c.8-.07.83-.12.83-1.15v-3.82c-.79 1.74-1.99 4.3-2.4 5.28h-.28c-.4-1.04-1.41-3.48-2.16-5.19-.14 2.94-.16 4-.16 4.22.01.51.26.59.94.65v.32h-2.38v-.32c.57-.06.81-.15.89-.67.06-.39.09-1.06.3-4.08.04-.6-.04-.73-.92-.8v-.31h1.78l2.12 4.74 2.26-4.74h1.81v.31c-.85.09-.96.14-.94.9l.04 3.5c.04 1.02.07 1.07.94 1.15v.31h-2.66v-.31zm6.46.43c-.15 0-.36-.08-.46-.18a.871.871 0 0 1-.24-.44c-.4.27-.89.62-1.21.62-.69 0-1.21-.57-1.21-1.21 0-.47.27-.8.82-.98.62-.2 1.38-.46 1.58-.62v-.18c0-.67-.36-1.03-.85-1.03-.22 0-.37.1-.47.21-.12.13-.18.35-.27.62-.05.16-.15.23-.3.23-.19 0-.45-.2-.45-.43 0-.14.13-.26.33-.4.28-.19.88-.55 1.44-.67.3 0 .62.09.85.27.35.29.5.64.5 1.12v1.83c0 .44.16.57.34.57.11 0 .25-.05.36-.11l.11.3-.87.48zm-.73-2.43c-.23.11-.69.3-.94.4-.35.15-.58.33-.58.69 0 .5.39.72.7.72.26 0 .59-.14.83-.35v-1.47zm3.92.98c-.18 0-.36-.02-.54-.07-.2.17-.27.33-.27.43 0 .16.16.36.6.36.38 0 .8-.01 1.12-.01.65 0 1.46.21 1.46 1.15 0 1.02-1.21 1.91-2.53 1.91-1.12 0-1.74-.64-1.76-1.2 0-.23.1-.4.26-.56.2-.2.56-.48.77-.63-.35-.1-.6-.31-.73-.5a.903.903 0 0 1-.12-.42c.34-.14.67-.41.86-.65-.48-.23-.82-.65-.82-1.25 0-1.08 1.02-1.58 1.79-1.58.33 0 .67.08.97.23.48 0 1.05-.07 1.34-.14l.06.09c-.07.15-.24.44-.39.52-.14 0-.45-.04-.59-.05.16.21.28.5.28.84 0 1.02-.88 1.52-1.76 1.52zm.25 1.41c-.51 0-.69.05-.86.18-.32.23-.5.51-.5.77 0 .51.54.9 1.32.9.92 0 1.46-.46 1.46-1.06 0-.31-.16-.56-.42-.67-.25-.1-.58-.12-.99-.12zm-.24-4.1c-.43 0-.83.38-.83 1.12s.39 1.23.92 1.23c.44-.01.82-.36.82-1.12 0-.72-.36-1.23-.91-1.23zm5.74 4.03v-.3c.56-.06.62-.13.62-.75v-1.6c0-.67-.27-1.09-.89-1.09-.4 0-.77.22-1.09.49v2.22c0 .65.06.66.64.72v.3h-2.15v-.3c.66-.07.7-.11.7-.72v-1.95c0-.62-.07-.65-.6-.73v-.28c.51-.08.99-.2 1.41-.38v.75c.19-.14.41-.28.66-.44.27-.17.54-.29.83-.29.79 0 1.3.57 1.3 1.5v1.82c0 .63.06.66.64.72v.3h-2.06zm5.93.11c-.15 0-.36-.08-.46-.18a.871.871 0 0 1-.24-.44c-.4.27-.89.62-1.21.62-.69 0-1.21-.57-1.21-1.21 0-.47.27-.8.82-.98.62-.2 1.38-.46 1.58-.62v-.18c0-.67-.36-1.03-.85-1.03-.22 0-.37.1-.47.21-.12.13-.18.35-.27.62-.05.16-.15.23-.3.23-.19 0-.45-.2-.45-.43 0-.14.13-.26.33-.4.28-.19.88-.55 1.44-.67.3 0 .62.09.85.27.35.29.5.64.5 1.12v1.83c0 .44.16.57.34.57.11 0 .25-.05.36-.11l.11.3-.87.48zm-.73-2.43c-.23.11-.69.3-.94.4-.35.15-.58.33-.58.69 0 .5.39.72.7.72.26 0 .59-.14.83-.35v-1.47zm3.56 2.43c-.63 0-.98-.37-.98-1.14v-2.78h-.68l-.05-.13.27-.3h.46v-.83c.19-.18.5-.44.68-.62l.15.02c-.02.4-.03 1.03-.03 1.43h1.12c.1.1.07.34-.06.43h-1.06v2.43c0 .76.32.9.57.9.23 0 .47-.09.61-.16l.1.28-.64.33c-.18.09-.36.14-.45.14zm5.11-.92c-.65.76-1.35.92-1.68.92-1.2 0-1.95-.96-1.95-2.1 0-.65.24-1.24.63-1.66.42-.46.96-.7 1.49-.7.9 0 1.55.74 1.55 1.55 0 .2-.04.29-.2.33-.28.05-1.51.12-2.66.16 0 1.22.78 1.73 1.46 1.73.42 0 .82-.17 1.18-.49l.17.25zm-1.73-3.14c-.47 0-.92.43-1.04 1.2.54 0 1.11 0 1.69-.03.19 0 .24-.05.24-.2 0-.5-.34-.98-.9-.98zm10.5 3.95v-.3c.57-.06.66-.1.66-.74v-1.6c0-.68-.26-1.09-.85-1.09-.38 0-.73.2-1.1.5 0 .12.03.24.03.41v1.84c0 .59.1.64.64.69v.3h-2.14v-.3c.61-.06.7-.1.7-.72v-1.64c0-.71-.26-1.09-.83-1.09-.38 0-.76.24-1.08.5V167c0 .62.08.66.6.72v.3h-2.11v-.3c.66-.06.7-.1.7-.72v-1.96c0-.61-.05-.65-.6-.74v-.27c.48-.07.96-.19 1.4-.38v.77c.2-.15.41-.31.73-.5.23-.14.46-.25.78-.25.48 0 .89.28 1.09.78.27-.21.52-.37.77-.53.22-.14.5-.25.8-.25.77 0 1.26.54 1.26 1.49v1.83c0 .62.07.66.64.72v.31h-2.09zm5.16 2.24v-.31c.8-.07.85-.11.85-.76v-1.45l-1.05.4c-1.45 0-2.17-1.13-2.17-2.06 0-1.41 1.27-2.4 2.67-2.4.32.02.61.08.73.12.14.04.18.05.27.05.06 0 .2-.04.34-.1l.04.03c0 .2-.03.39-.03 1.02v4.41c0 .64.07.67.76.75v.31h-2.42zm-.13-6.17c-.64 0-1.35.54-1.35 1.68 0 1.24.82 1.81 1.57 1.81.32 0 .56-.08.76-.17v-2.91c-.22-.26-.66-.4-.98-.4zm7.79 3.7c-.49.07-1.02.19-1.55.34v-.73c-.53.42-.95.73-1.51.73-.66 0-1.25-.4-1.25-1.47v-1.81c0-.53-.07-.58-.34-.64l-.28-.05v-.28c.45-.02 1.06-.1 1.45-.17-.03.32-.03.81-.03 1.4v1.31c0 .83.45 1.07.89 1.07.36 0 .72-.15 1.06-.46v-2.18c0-.53-.1-.59-.44-.64l-.34-.04v-.28c.6-.03 1.25-.11 1.58-.17v3.19c0 .49.08.56.46.57h.28v.31zm.59.22v-.3c.63-.06.69-.1.69-.76v-1.93c0-.59-.02-.64-.63-.72v-.27c.55-.09 1.02-.21 1.43-.38v3.3c0 .65.07.7.71.76v.3h-2.21zm1.57-5.76c0 .28-.23.53-.54.53s-.54-.25-.54-.53c0-.32.26-.55.55-.55s.53.24.53.55zm3.28 1.52c.18-.08.37-.11.49-.11 1.07 0 1.95.9 1.95 2.04 0 1.35-1.17 2.43-2.48 2.43-.43 0-.97-.1-1.52-.35v-5.28c0-.58-.04-.64-.67-.69v-.29c.47-.05 1.12-.19 1.48-.32v2.88l.75-.31zm-.75 3.12c0 .15.02.24.05.33.1.21.49.49.97.49.79 0 1.27-.67 1.27-1.76s-.69-1.73-1.48-1.73c-.3 0-.62.09-.82.18v2.48zm8.8.9c-.49.07-1.02.19-1.55.34v-.73c-.53.42-.95.73-1.51.73-.66 0-1.25-.4-1.25-1.47v-1.81c0-.53-.07-.58-.34-.64l-.28-.05v-.28c.45-.02 1.06-.1 1.45-.17-.03.32-.03.81-.03 1.4v1.31c0 .83.45 1.07.89 1.07.36 0 .72-.15 1.06-.46v-2.18c0-.53-.1-.59-.44-.64l-.34-.04v-.28c.6-.03 1.25-.11 1.58-.17v3.19c0 .49.08.56.46.57h.28v.31zm3.13-2.84c-.19-.58-.46-.94-1.02-.94-.36 0-.63.23-.63.61s.28.58.86.83c.85.37 1.29.67 1.29 1.33 0 .88-.83 1.34-1.65 1.34-.51 0-.98-.15-1.18-.27-.06-.26-.16-.86-.19-1.14l.33-.06c.19.64.56 1.11 1.21 1.11.39 0 .7-.24.7-.64 0-.42-.27-.64-.8-.88-.71-.32-1.28-.63-1.28-1.33s.6-1.25 1.56-1.25c.42 0 .77.09.97.13.04.27.12.87.17 1.08l-.32.08zm7 3.17c-.15 0-.36-.08-.46-.18a.871.871 0 0 1-.24-.44c-.4.27-.89.62-1.21.62-.69 0-1.21-.57-1.21-1.21 0-.47.27-.8.82-.98.62-.2 1.38-.46 1.58-.62v-.18c0-.67-.36-1.03-.85-1.03-.22 0-.37.1-.47.21-.12.13-.18.35-.27.62-.05.16-.15.23-.3.23-.19 0-.45-.2-.45-.43 0-.14.13-.26.33-.4.28-.19.88-.55 1.44-.67.3 0 .62.09.85.27.35.29.5.64.5 1.12v1.83c0 .44.16.57.34.57.11 0 .25-.05.36-.11l.11.3-.87.48zm-.73-2.43c-.23.11-.69.3-.94.4-.35.15-.58.33-.58.69 0 .5.39.72.7.72.26 0 .59-.14.83-.35v-1.47zm4.65 2.32v-.3c.63-.06.69-.1.69-.76v-1.93c0-.59-.02-.64-.63-.72v-.27c.55-.09 1.02-.21 1.43-.38v3.3c0 .65.07.7.71.76v.3h-2.21zm1.57-5.76c0 .28-.23.53-.54.53s-.54-.25-.54-.53c0-.32.26-.55.55-.55s.53.24.53.55zm4.11 5.76v-.3c.56-.06.62-.13.62-.75v-1.6c0-.67-.27-1.09-.89-1.09-.4 0-.77.22-1.09.49v2.22c0 .65.06.66.64.72v.3h-2.15v-.3c.66-.07.7-.11.7-.72v-1.95c0-.62-.07-.65-.6-.73v-.28c.51-.08.99-.2 1.41-.38v.75c.19-.14.41-.28.66-.44.27-.17.54-.29.83-.29.79 0 1.3.57 1.3 1.5v1.82c0 .63.06.66.64.72v.3h-2.06zm4.22.11c-.63 0-.98-.37-.98-1.14v-2.78h-.68l-.05-.13.27-.3h.46v-.83c.19-.18.5-.44.68-.62l.15.02c-.02.4-.03 1.03-.03 1.43h1.12c.1.1.07.34-.06.43h-1.06v2.43c0 .76.32.9.57.9.23 0 .47-.09.61-.16l.1.28-.64.33c-.18.09-.36.14-.45.14zm5.11-.92c-.65.76-1.35.92-1.68.92-1.2 0-1.95-.96-1.95-2.1 0-.65.24-1.24.63-1.66.42-.46.96-.7 1.49-.7.9 0 1.55.74 1.55 1.55 0 .2-.04.29-.2.33-.28.05-1.51.12-2.66.16 0 1.22.78 1.73 1.46 1.73.42 0 .82-.17 1.18-.49l.17.25zm-1.73-3.14c-.47 0-.92.43-1.04 1.2.54 0 1.11 0 1.69-.03.19 0 .24-.05.24-.2 0-.5-.34-.98-.9-.98zm7.96 3.95v-.3c.57-.06.66-.1.66-.74v-1.6c0-.68-.26-1.09-.85-1.09-.38 0-.73.2-1.1.5 0 .12.03.24.03.41v1.84c0 .59.1.64.64.69v.3h-2.14v-.3c.61-.06.7-.1.7-.72v-1.64c0-.71-.26-1.09-.83-1.09-.38 0-.76.24-1.08.5v2.23c0 .62.08.66.6.72v.3h-2.11v-.3c.66-.06.7-.1.7-.72v-1.96c0-.61-.05-.65-.6-.74v-.27c.48-.07.96-.19 1.4-.38v.77c.2-.15.41-.31.73-.5.23-.14.46-.25.78-.25.48 0 .89.28 1.09.78.27-.21.52-.37.77-.53.22-.14.5-.25.8-.25.77 0 1.26.54 1.26 1.49v1.83c0 .62.07.66.64.72v.31h-2.09zm2.66-4.03c.45-.06 1.02-.23 1.47-.41v.76c.11-.06.76-.43.89-.49.2-.1.41-.18.56-.18 1.07 0 1.75.91 1.75 1.87 0 1.46-1.19 2.37-2.47 2.59-.3-.01-.58-.1-.72-.17v1.2c0 .66.07.73.85.79v.31h-2.38v-.31c.65-.06.73-.12.73-.74v-4.25c0-.58-.03-.61-.66-.69v-.29zm1.47 3.28c.22.22.6.38.93.38.87 0 1.4-.71 1.4-1.75s-.61-1.61-1.3-1.61c-.34 0-.77.21-1.03.41v2.58zm6.3-3.59c1.26 0 2.17.93 2.17 2.16 0 1.57-1.2 2.3-2.17 2.3-1.37 0-2.21-1.09-2.21-2.16 0-1.51 1.21-2.3 2.22-2.3zm-1.27 2.02c0 1.22.57 2.07 1.37 2.07.6 0 1.12-.44 1.12-1.72 0-1.14-.49-2.01-1.34-2.01-.59 0-1.15.54-1.15 1.66zm9.08 2.32h-2.3v-.3c.63-.06.68-.1.68-.72v-1.97c0-.62-.04-.65-.61-.72v-.27c.5-.08.95-.19 1.41-.38v1.05c.37-.53.79-1.03 1.26-1.03.37 0 .59.23.59.47s-.16.46-.35.55c-.1.06-.18.04-.26-.02-.15-.14-.27-.23-.45-.23-.22 0-.59.31-.79.82v1.73c0 .62.04.67.81.73v.3zm5.14-.81c-.65.76-1.35.92-1.68.92-1.2 0-1.95-.96-1.95-2.1 0-.65.24-1.24.63-1.66.42-.46.96-.7 1.49-.7.9 0 1.55.74 1.55 1.55 0 .2-.04.29-.2.33-.28.05-1.51.12-2.66.16 0 1.22.78 1.73 1.46 1.73.42 0 .82-.17 1.18-.49l.17.25zm-1.73-3.14c-.47 0-.92.43-1.04 1.2.54 0 1.11 0 1.69-.03.19 0 .24-.05.24-.2 0-.5-.34-.98-.9-.98zm4.97 2.07h-2.34l.08-.61h2.34l-.08.61zm-195.06 13.99c-1.27 0-2.03-1.02-2.03-2.04 0-.77.35-1.39 1-1.87.54-.4 1.14-.55 1.53-.55.47 0 .79.14.94.26.14.11.16.18.16.29 0 .23-.26.45-.37.45-.05 0-.1-.02-.19-.09-.32-.26-.65-.42-1-.42-.64 0-1.22.53-1.22 1.52 0 1.32.93 1.76 1.5 1.76.41 0 .76-.11 1.22-.53l.18.24c-.45.56-1.12.98-1.72.98zm6.05-.92c-.66.76-1.36.92-1.7.92-1.21 0-1.96-.96-1.96-2.1 0-.65.24-1.24.64-1.66.43-.46.96-.7 1.5-.7.9 0 1.57.74 1.57 1.55 0 .2-.04.29-.2.33-.28.05-1.52.12-2.68.16 0 1.22.78 1.73 1.48 1.73.42 0 .83-.17 1.19-.49l.17.25zm-1.75-3.14c-.47 0-.92.43-1.04 1.2.54 0 1.12 0 1.7-.03.19 0 .25-.05.25-.2 0-.5-.35-.98-.9-.98zm2.53-.08c.46-.06 1.03-.23 1.48-.41v.76c.11-.06.77-.43.9-.49.2-.1.41-.18.56-.18 1.08 0 1.76.91 1.76 1.87 0 1.46-1.2 2.37-2.49 2.59-.31-.01-.59-.1-.73-.17v1.2c0 .66.07.73.85.79v.31h-2.39v-.31c.66-.06.73-.12.73-.74v-4.25c0-.58-.03-.61-.67-.69v-.29zm1.48 3.28c.22.22.61.38.94.38.87 0 1.41-.71 1.41-1.75s-.62-1.61-1.31-1.61c-.34 0-.77.21-1.04.41v2.58zm7.8-.06c-.66.76-1.36.92-1.7.92-1.21 0-1.96-.96-1.96-2.1 0-.65.24-1.24.64-1.66.43-.46.96-.7 1.5-.7.9 0 1.57.74 1.57 1.55 0 .2-.04.29-.2.33-.28.05-1.52.12-2.68.16 0 1.22.78 1.73 1.48 1.73.42 0 .83-.17 1.19-.49l.17.25zm-1.75-3.14c-.47 0-.92.43-1.04 1.2.54 0 1.12 0 1.7-.03.19 0 .25-.05.25-.2 0-.5-.35-.98-.9-.98zm4.85 3.95h-2.32v-.3c.63-.06.69-.1.69-.72v-1.97c0-.62-.04-.65-.62-.72v-.27c.5-.08.95-.19 1.43-.38v1.05c.37-.53.79-1.03 1.27-1.03.37 0 .59.23.59.47s-.17.46-.35.55c-.1.06-.18.04-.26-.02-.15-.14-.28-.23-.45-.23-.22 0-.59.31-.8.82v1.73c0 .62.04.67.82.73v.3zm1.64 0v-.3c.63-.06.7-.1.7-.76v-1.93c0-.59-.02-.64-.63-.72v-.27c.55-.09 1.03-.21 1.44-.38v3.3c0 .65.07.7.72.76v.3h-2.23zm1.58-5.76c0 .28-.24.53-.54.53-.29 0-.55-.25-.55-.53 0-.32.26-.55.56-.55s.53.24.53.55zm3.86 2.7c-.19-.58-.46-.94-1.03-.94-.36 0-.64.23-.64.61s.28.58.87.83c.85.37 1.3.67 1.3 1.33 0 .88-.84 1.34-1.66 1.34-.51 0-.98-.15-1.19-.27-.06-.26-.16-.86-.19-1.14l.33-.06c.19.64.56 1.11 1.21 1.11.39 0 .71-.24.71-.64 0-.42-.27-.64-.81-.88-.72-.32-1.29-.63-1.29-1.33s.6-1.25 1.57-1.25c.43 0 .78.09.98.13.04.27.12.87.17 1.08l-.32.08zm7.17 3.17v-.62c-.17.1-.45.25-.62.35-.39.21-.67.27-.78.27-.8 0-1.87-.76-1.87-2.11s1.21-2.35 2.59-2.35c.13 0 .46.02.67.1v-1.3c0-.59-.07-.62-.78-.67v-.29c.47-.06 1.23-.19 1.6-.31v5.67c0 .5.08.56.45.58l.32.02v.31c-.21.04-.97.15-1.58.35zm0-3.58c-.24-.33-.65-.47-1.04-.47-.43 0-1.31.29-1.31 1.68 0 1.17.76 1.75 1.37 1.75.34 0 .74-.17.98-.35v-2.61zm4.43-.88c1.27 0 2.18.93 2.18 2.16 0 1.57-1.21 2.3-2.19 2.3a2.17 2.17 0 0 1-2.22-2.16c0-1.51 1.22-2.3 2.23-2.3zm-1.28 2.02c0 1.22.57 2.07 1.38 2.07.6 0 1.13-.44 1.13-1.72 0-1.14-.49-2.01-1.35-2.01-.59 0-1.16.54-1.16 1.66zm4.13 2.02c.64-.06.72-.11.72-.73v-4.47c0-.59-.05-.64-.69-.7v-.29c.55-.05 1.18-.21 1.5-.32v5.79c0 .62.07.67.73.73v.3h-2.26v-.3zm5.15-4.04c1.27 0 2.18.93 2.18 2.16 0 1.57-1.21 2.3-2.19 2.3a2.17 2.17 0 0 1-2.22-2.16c0-1.51 1.22-2.3 2.23-2.3zm-1.28 2.02c0 1.22.57 2.07 1.38 2.07.6 0 1.13-.44 1.13-1.72 0-1.14-.49-2.01-1.35-2.01-.59 0-1.16.54-1.16 1.66zm6.55 2.32h-2.32v-.3c.63-.06.69-.1.69-.72V177c0-.62-.04-.65-.62-.72v-.27c.5-.08.95-.19 1.43-.38v1.05c.37-.53.79-1.03 1.27-1.03.37 0 .59.23.59.47s-.17.46-.35.55c-.1.06-.18.04-.26-.02-.15-.14-.28-.23-.45-.23-.22 0-.59.31-.8.82v1.73c0 .62.04.67.82.73v.3zm7.38.11c-.15 0-.36-.08-.46-.18a.89.89 0 0 1-.25-.44c-.41.27-.89.62-1.22.62-.7 0-1.22-.57-1.22-1.21 0-.47.27-.8.83-.98.63-.2 1.39-.46 1.59-.62v-.18c0-.67-.36-1.03-.86-1.03-.22 0-.37.1-.47.21-.12.13-.18.35-.27.62-.05.16-.15.23-.3.23-.19 0-.45-.2-.45-.43 0-.14.13-.26.33-.4.28-.19.88-.55 1.46-.67.3 0 .62.09.85.27.36.29.51.64.51 1.12v1.83c0 .44.17.57.35.57.11 0 .25-.05.37-.11l.11.3-.88.48zm-.73-2.43c-.23.11-.69.3-.95.4-.35.15-.59.33-.59.69 0 .5.4.72.7.72.27 0 .6-.14.83-.35v-1.47zm6.92 2.1c-.49.07-1.03.19-1.56.34v-.73c-.53.42-.96.73-1.52.73-.67 0-1.25-.4-1.25-1.47v-1.81c0-.53-.08-.58-.34-.64l-.28-.05v-.28c.45-.02 1.07-.1 1.46-.17-.03.32-.03.81-.03 1.4v1.31c0 .83.46 1.07.9 1.07.37 0 .72-.15 1.07-.46v-2.18c0-.53-.1-.59-.44-.64l-.34-.04v-.28c.61-.03 1.26-.11 1.59-.17v3.19c0 .49.08.56.47.57h.28v.31zm2.16.34c-.64 0-.99-.37-.99-1.14v-2.78h-.69l-.05-.13.28-.3h.46v-.83c.19-.18.5-.44.69-.62l.16.02c-.02.4-.03 1.03-.03 1.43h1.13c.1.1.07.34-.06.43h-1.07v2.43c0 .76.32.9.57.9.23 0 .47-.09.61-.16l.1.28-.64.33c-.18.09-.36.14-.46.14zm8.64-4.05c-.54.06-.62.15-.87.7-.33.75-.94 2.15-1.42 3.34h-.32c-.37-.97-.91-2.25-1.38-3.36-.22-.54-.32-.6-.84-.68v-.3h2.07v.3c-.55.06-.57.12-.41.54.24.63.68 1.69.94 2.32.34-.79.68-1.64.9-2.23.17-.47.12-.56-.5-.63v-.3h1.83v.3zm4.02 3.13c-.66.76-1.36.92-1.7.92-1.21 0-1.96-.96-1.96-2.1 0-.65.24-1.24.64-1.66.43-.46.96-.7 1.5-.7.9 0 1.57.74 1.57 1.55 0 .2-.04.29-.2.33-.28.05-1.52.12-2.68.16 0 1.22.78 1.73 1.48 1.73.42 0 .83-.17 1.19-.49l.17.25zm-1.75-3.14c-.47 0-.92.43-1.04 1.2.54 0 1.12 0 1.7-.03.19 0 .25-.05.25-.2 0-.5-.35-.98-.9-.98zm5.41 3.95v-.3c.56-.06.62-.13.62-.75v-1.6c0-.67-.27-1.09-.9-1.09-.4 0-.78.22-1.1.49v2.22c0 .65.06.66.65.72v.3h-2.17v-.3c.66-.07.71-.11.71-.72v-1.95c0-.62-.07-.65-.61-.73v-.28c.51-.08 1-.2 1.42-.38v.75c.2-.14.42-.28.67-.44.28-.17.54-.29.83-.29.79 0 1.31.57 1.31 1.5v1.82c0 .63.06.66.65.72v.3h-2.08zm4.28.11c-.64 0-.99-.37-.99-1.14v-2.78h-.69l-.05-.13.28-.3h.46v-.83c.19-.18.5-.44.69-.62l.16.02c-.02.4-.03 1.03-.03 1.43h1.13c.1.1.07.34-.06.43h-1.07v2.43c0 .76.32.9.57.9.23 0 .47-.09.61-.16l.1.28-.64.33c-.18.09-.36.14-.46.14zm5.17-.92c-.66.76-1.36.92-1.7.92-1.21 0-1.96-.96-1.96-2.1 0-.65.24-1.24.64-1.66.43-.46.96-.7 1.5-.7.9 0 1.57.74 1.57 1.55 0 .2-.04.29-.2.33-.28.05-1.52.12-2.68.16 0 1.22.78 1.73 1.48 1.73.42 0 .83-.17 1.19-.49l.17.25zm-1.75-3.14c-.47 0-.92.43-1.04 1.2.54 0 1.12 0 1.7-.03.19 0 .25-.05.25-.2 0-.5-.35-.98-.9-.98zm8 3.95v-.3c.56-.06.62-.13.62-.75v-1.6c0-.67-.27-1.09-.9-1.09-.4 0-.78.22-1.1.49v2.22c0 .65.06.66.65.72v.3h-2.17v-.3c.66-.07.71-.11.71-.72v-1.95c0-.62-.07-.65-.61-.73v-.28c.51-.08 1-.2 1.42-.38v.75c.2-.14.42-.28.67-.44.28-.17.54-.29.83-.29.79 0 1.31.57 1.31 1.5v1.82c0 .63.06.66.65.72v.3h-2.08zm5.04-4.35c1.27 0 2.18.93 2.18 2.16 0 1.57-1.21 2.3-2.19 2.3a2.17 2.17 0 0 1-2.22-2.16c0-1.51 1.22-2.3 2.23-2.3zm-1.28 2.02c0 1.22.57 2.07 1.38 2.07.6 0 1.13-.44 1.13-1.72 0-1.14-.49-2.01-1.35-2.01-.59 0-1.16.54-1.16 1.66zm7.11 2.32v-.3c.56-.06.62-.13.62-.75v-1.6c0-.67-.27-1.09-.9-1.09-.4 0-.78.22-1.1.49v2.22c0 .65.06.66.65.72v.3h-2.17v-.3c.66-.07.71-.11.71-.72v-1.95c0-.62-.07-.65-.61-.73V176c.51-.08 1-.2 1.42-.38v.75c.2-.14.42-.28.67-.44.28-.17.54-.29.83-.29.79 0 1.31.57 1.31 1.5v1.82c0 .63.06.66.65.72v.3h-2.08zm6.47-.81c-.66.76-1.36.92-1.7.92-1.21 0-1.96-.96-1.96-2.1 0-.65.24-1.24.64-1.66.43-.46.96-.7 1.5-.7.9 0 1.57.74 1.57 1.55 0 .2-.04.29-.2.33-.28.05-1.52.12-2.68.16 0 1.22.78 1.73 1.48 1.73.42 0 .83-.17 1.19-.49l.17.25zm-1.75-3.14c-.47 0-.92.43-1.04 1.2.54 0 1.12 0 1.7-.03.19 0 .25-.05.25-.2 0-.5-.35-.98-.9-.98zm8.83 3.14c-.66.76-1.36.92-1.7.92-1.21 0-1.96-.96-1.96-2.1 0-.65.24-1.24.64-1.66.43-.46.96-.7 1.5-.7.9 0 1.57.74 1.57 1.55 0 .2-.04.29-.2.33-.28.05-1.52.12-2.68.16 0 1.22.78 1.73 1.48 1.73.42 0 .83-.17 1.19-.49l.17.25zm-1.75-3.14c-.47 0-.92.43-1.04 1.2.54 0 1.12 0 1.7-.03.19 0 .25-.05.25-.2 0-.5-.35-.98-.9-.98zm5.16.9c-.19-.58-.46-.94-1.03-.94-.36 0-.64.23-.64.61s.28.58.87.83c.85.37 1.3.67 1.3 1.33 0 .88-.84 1.34-1.66 1.34-.51 0-.98-.15-1.19-.27-.06-.26-.16-.86-.19-1.14l.33-.06c.19.64.56 1.11 1.21 1.11.39 0 .71-.24.71-.64 0-.42-.27-.64-.81-.88-.72-.32-1.29-.63-1.29-1.33s.6-1.25 1.57-1.25c.43 0 .78.09.98.13.04.27.12.87.17 1.08l-.32.08zm2.72 3.17c-.64 0-.99-.37-.99-1.14v-2.78h-.69l-.05-.13.28-.3h.46v-.83c.19-.18.5-.44.69-.62l.16.02c-.02.4-.03 1.03-.03 1.43h1.13c.1.1.07.34-.06.43h-1.07v2.43c0 .76.32.9.57.9.23 0 .47-.09.61-.16l.1.28-.64.33c-.18.09-.36.14-.46.14zm1.64-.11v-.3c.63-.06.7-.1.7-.76v-1.93c0-.59-.02-.64-.63-.72v-.27c.55-.09 1.03-.21 1.44-.38v3.3c0 .65.07.7.72.76v.3h-2.23zm1.58-5.76c0 .28-.24.53-.54.53-.29 0-.55-.25-.55-.53 0-.32.26-.55.56-.55s.53.24.53.55zm8.72 5.53c-.49.07-1.03.19-1.56.34v-.73c-.53.42-.96.73-1.52.73-.67 0-1.25-.4-1.25-1.47v-1.81c0-.53-.08-.58-.34-.64l-.28-.05v-.28c.45-.02 1.07-.1 1.46-.17-.03.32-.03.81-.03 1.4v1.31c0 .83.46 1.07.9 1.07.37 0 .72-.15 1.07-.46v-2.18c0-.53-.1-.59-.44-.64l-.34-.04v-.28c.61-.03 1.26-.11 1.59-.17v3.19c0 .49.08.56.47.57h.28v.31zm2.16.34c-.64 0-.99-.37-.99-1.14v-2.78h-.69l-.05-.13.28-.3h.46v-.83c.19-.18.5-.44.69-.62l.16.02c-.02.4-.03 1.03-.03 1.43h1.13c.1.1.07.34-.06.43h-1.07v2.43c0 .76.32.9.57.9.23 0 .47-.09.61-.16l.1.28-.64.33c-.18.09-.36.14-.46.14zm4.9-4.35v-.19c0-.68.26-1.37.85-1.87.35-.3.74-.47 1.13-.52.34 0 .66.12.82.31.09.11.1.21.06.34-.03.1-.14.24-.24.32-.11.07-.19.06-.3-.02-.18-.16-.48-.39-.8-.39-.72 0-.71.94-.71 1.65v.37h1.08c.06.09 0 .35-.11.43h-.98v2.75c0 .67.09.68.88.75v.3h-2.39v-.3c.64-.07.71-.1.71-.71v-2.79h-.71l-.05-.12.24-.31h.52zm7.19 4.01c-.49.07-1.03.19-1.56.34v-.73c-.53.42-.96.73-1.52.73-.67 0-1.25-.4-1.25-1.47v-1.81c0-.53-.08-.58-.34-.64l-.28-.05v-.28c.45-.02 1.07-.1 1.46-.17-.03.32-.03.81-.03 1.4v1.31c0 .83.46 1.07.9 1.07.37 0 .72-.15 1.07-.46v-2.18c0-.53-.1-.59-.44-.64l-.34-.04v-.28c.61-.03 1.26-.11 1.59-.17v3.19c0 .49.08.56.47.57h.28v.31zm2.41-1.12c-.18 0-.37-.02-.54-.07-.2.17-.27.33-.27.43 0 .16.16.36.61.36.38 0 .8-.01 1.13-.01.66 0 1.47.21 1.47 1.15 0 1.02-1.22 1.91-2.55 1.91-1.13 0-1.76-.64-1.77-1.2 0-.23.1-.4.26-.56.2-.2.57-.48.78-.63a1.3 1.3 0 0 1-.73-.5.903.903 0 0 1-.12-.42c.34-.14.67-.41.87-.65-.48-.23-.83-.65-.83-1.25 0-1.08 1.02-1.58 1.8-1.58.33 0 .67.08.98.23.48 0 1.06-.07 1.35-.14l.06.09c-.07.15-.24.44-.39.52-.14 0-.46-.04-.6-.05.16.21.28.5.28.84 0 1.02-.89 1.52-1.77 1.52zm.25 1.41c-.51 0-.7.05-.87.18-.32.23-.5.51-.5.77 0 .51.54.9 1.33.9.93 0 1.47-.46 1.47-1.06 0-.31-.16-.56-.43-.67-.25-.1-.58-.12-1-.12zm-.24-4.1c-.44 0-.84.38-.84 1.12s.39 1.23.93 1.23c.45-.01.83-.36.83-1.12 0-.72-.37-1.23-.92-1.23zm3 4.03v-.3c.63-.06.7-.1.7-.76V177c0-.59-.02-.64-.63-.72v-.27c.55-.09 1.03-.21 1.44-.38v3.3c0 .65.07.7.72.76v.3h-2.23zm1.58-5.76c0 .28-.24.53-.54.53-.29 0-.55-.25-.55-.53 0-.32.26-.55.56-.55s.53.24.53.55zm4.49 5.87c-.15 0-.36-.08-.46-.18a.89.89 0 0 1-.25-.44c-.41.27-.89.62-1.22.62-.7 0-1.22-.57-1.22-1.21 0-.47.27-.8.83-.98.63-.2 1.39-.46 1.59-.62v-.18c0-.67-.36-1.03-.86-1.03-.22 0-.37.1-.47.21-.12.13-.18.35-.27.62-.05.16-.15.23-.3.23-.19 0-.45-.2-.45-.43 0-.14.13-.26.33-.4.28-.19.88-.55 1.46-.67.3 0 .62.09.85.27.36.29.51.64.51 1.12v1.83c0 .44.17.57.35.57.11 0 .25-.05.37-.11l.11.3-.88.48zm-.73-2.43c-.23.11-.69.3-.95.4-.35.15-.59.33-.59.69 0 .5.4.72.7.72.27 0 .6-.14.83-.35v-1.47zm7.33-.74c-.19-.58-.46-.94-1.03-.94-.36 0-.64.23-.64.61s.28.58.87.83c.85.37 1.3.67 1.3 1.33 0 .88-.84 1.34-1.66 1.34-.51 0-.98-.15-1.19-.27-.06-.26-.16-.86-.19-1.14l.33-.06c.19.64.56 1.11 1.21 1.11.39 0 .71-.24.71-.64 0-.42-.27-.64-.81-.88-.72-.32-1.29-.63-1.29-1.33s.6-1.25 1.57-1.25c.43 0 .78.09.98.13.04.27.12.87.17 1.08l-.32.08zm6.05 2.84c-.49.07-1.03.19-1.56.34v-.73c-.53.42-.96.73-1.52.73-.67 0-1.25-.4-1.25-1.47v-1.81c0-.53-.08-.58-.34-.64l-.28-.05v-.28c.45-.02 1.07-.1 1.46-.17-.03.32-.03.81-.03 1.4v1.31c0 .83.46 1.07.9 1.07.37 0 .72-.15 1.07-.46v-2.18c0-.53-.1-.59-.44-.64l-.34-.04v-.28c.61-.03 1.26-.11 1.59-.17v3.19c0 .49.08.56.47.57h.28v.31zm3.51.22v-.3c.56-.06.62-.13.62-.75v-1.6c0-.67-.27-1.09-.9-1.09-.4 0-.78.22-1.1.49v2.22c0 .65.06.66.65.72v.3h-2.17v-.3c.66-.07.71-.11.71-.72v-1.95c0-.62-.07-.65-.61-.73V176c.51-.08 1-.2 1.42-.38v.75c.2-.14.42-.28.67-.44.28-.17.54-.29.83-.29.79 0 1.31.57 1.31 1.5v1.82c0 .63.06.66.65.72v.3h-2.08zm4.28.11c-.64 0-.99-.37-.99-1.14v-2.78h-.69l-.05-.13.28-.3h.46v-.83c.19-.18.5-.44.69-.62l.16.02c-.02.4-.03 1.03-.03 1.43h1.13c.1.1.07.34-.06.43h-1.07v2.43c0 .76.32.9.57.9.23 0 .47-.09.61-.16l.1.28-.64.33c-.18.09-.36.14-.46.14zm1.64-.11v-.3c.63-.06.7-.1.7-.76V177c0-.59-.02-.64-.63-.72v-.27c.55-.09 1.03-.21 1.44-.38v3.3c0 .65.07.7.72.76v.3h-2.23zm1.58-5.76c0 .28-.24.53-.54.53-.29 0-.55-.25-.55-.53 0-.32.26-.55.56-.55s.53.24.53.55zm3.86 2.7c-.19-.58-.46-.94-1.03-.94-.36 0-.64.23-.64.61s.28.58.87.83c.85.37 1.3.67 1.3 1.33 0 .88-.84 1.34-1.66 1.34-.51 0-.98-.15-1.19-.27-.06-.26-.16-.86-.19-1.14l.33-.06c.19.64.56 1.11 1.21 1.11.39 0 .71-.24.71-.64 0-.42-.27-.64-.81-.88-.72-.32-1.29-.63-1.29-1.33s.6-1.25 1.57-1.25c.43 0 .78.09.98.13.04.27.12.87.17 1.08l-.32.08zm-193.6 15.18c-.15 0-.35-.08-.45-.18a.954.954 0 0 1-.24-.44c-.39.27-.87.62-1.19.62-.68 0-1.19-.57-1.19-1.21 0-.47.26-.8.8-.98.61-.2 1.34-.46 1.54-.62v-.18c0-.67-.35-1.03-.84-1.03-.22 0-.36.1-.46.21-.11.13-.17.35-.26.62-.05.16-.14.23-.3.23-.19 0-.44-.2-.44-.43 0-.14.13-.26.32-.4.28-.19.86-.55 1.41-.67.29 0 .6.09.83.27.35.29.49.64.49 1.12v1.83c0 .44.16.57.34.57.11 0 .24-.05.36-.11l.11.3-.85.48zm-.71-2.43c-.22.11-.67.3-.92.4-.34.15-.57.33-.57.69 0 .5.39.72.68.72.26 0 .58-.14.81-.35v-1.47zm6.64 2.1c-.48.07-1 .19-1.51.34v-.73c-.52.42-.93.73-1.47.73-.65 0-1.22-.4-1.22-1.47v-1.81c0-.53-.07-.58-.33-.64l-.27-.05v-.28c.44-.02 1.03-.1 1.42-.17-.03.32-.03.81-.03 1.4v1.31c0 .83.44 1.07.87 1.07.36 0 .7-.15 1.03-.46v-2.18c0-.53-.1-.59-.43-.64l-.33-.04v-.28c.59-.03 1.23-.11 1.55-.17v3.19c0 .49.08.56.45.57h.27v.31zm2.03.34c-.62 0-.96-.37-.96-1.14v-2.78h-.67l-.05-.13.27-.3h.45v-.83c.18-.18.49-.44.67-.62l.15.02c-.02.4-.03 1.03-.03 1.43h1.1c.09.1.07.34-.06.43h-1.03v2.43c0 .76.31.9.55.9.23 0 .46-.09.59-.16l.09.28-.62.33c-.18.09-.35.14-.44.14zm4.65 0c-.15 0-.35-.08-.45-.18a.954.954 0 0 1-.24-.44c-.39.27-.87.62-1.19.62-.68 0-1.19-.57-1.19-1.21 0-.47.26-.8.8-.98.61-.2 1.34-.46 1.54-.62v-.18c0-.67-.35-1.03-.84-1.03-.22 0-.36.1-.46.21-.11.13-.17.35-.26.62-.05.16-.14.23-.3.23-.19 0-.44-.2-.44-.43 0-.14.13-.26.32-.4.28-.19.86-.55 1.41-.67.29 0 .6.09.83.27.35.29.49.64.49 1.12v1.83c0 .44.16.57.34.57.11 0 .24-.05.36-.11l.11.3-.85.48zm-.71-2.43c-.22.11-.67.3-.92.4-.34.15-.57.33-.57.69 0 .5.39.72.68.72.26 0 .58-.14.81-.35v-1.47zm4.8-.82l-.32.08c-.18-.58-.45-.94-1-.94-.35 0-.62.23-.62.61s.28.58.84.83c.83.37 1.26.67 1.26 1.33 0 .88-.81 1.34-1.61 1.34-.5 0-.96-.15-1.16-.27-.06-.26-.15-.86-.19-1.14l.32-.06c.19.64.54 1.11 1.18 1.11.38 0 .68-.24.68-.64 0-.42-.26-.64-.78-.88-.7-.32-1.25-.63-1.25-1.33s.59-1.25 1.52-1.25c.41 0 .76.09.95.13.04.27.12.87.16 1.08zm7.4-.8c-.53.06-.6.15-.85.7-.32.75-.91 2.15-1.38 3.34h-.32c-.36-.97-.88-2.25-1.34-3.36-.22-.54-.31-.6-.81-.68v-.3h2.01v.3c-.53.06-.56.12-.4.54.24.63.66 1.69.91 2.32.33-.79.66-1.64.87-2.23.17-.47.12-.56-.48-.63v-.3h1.78v.3zm2.45-.41c1.23 0 2.12.93 2.12 2.16 0 1.57-1.18 2.3-2.13 2.3-1.34 0-2.16-1.09-2.16-2.16 0-1.51 1.18-2.3 2.17-2.3zm-1.24 2.02c0 1.22.55 2.07 1.34 2.07.58 0 1.1-.44 1.1-1.72 0-1.14-.48-2.01-1.31-2.01-.58 0-1.12.54-1.12 1.66zm3.94 2.02c.62-.06.7-.11.7-.73v-4.47c0-.59-.05-.64-.67-.7v-.29c.53-.05 1.14-.21 1.46-.32v5.79c0 .62.07.67.71.73v.3h-2.19v-.3zm4.93-4.04c1.23 0 2.12.93 2.12 2.16 0 1.57-1.18 2.3-2.13 2.3-1.34 0-2.16-1.09-2.16-2.16 0-1.51 1.18-2.3 2.17-2.3zm-1.24 2.02c0 1.22.55 2.07 1.34 2.07.58 0 1.1-.44 1.1-1.72 0-1.14-.48-2.01-1.31-2.01-.58 0-1.12.54-1.12 1.66zm6.28 2.32h-2.25v-.3c.62-.06.67-.1.67-.72v-1.97c0-.62-.04-.65-.6-.72v-.27c.49-.08.93-.19 1.38-.38v1.05c.36-.53.77-1.03 1.23-1.03.36 0 .57.23.57.47s-.16.46-.34.55c-.1.06-.18.04-.25-.02-.15-.14-.27-.23-.44-.23-.21 0-.58.31-.77.82v1.73c0 .62.04.67.8.73v.3zm4.97-.81c-.64.76-1.32.92-1.65.92-1.17 0-1.91-.96-1.91-2.1 0-.65.24-1.24.62-1.66.41-.46.93-.7 1.46-.7.88 0 1.52.74 1.52 1.55 0 .2-.04.29-.2.33-.27.05-1.47.12-2.61.16 0 1.22.76 1.73 1.43 1.73.41 0 .8-.17 1.16-.49l.17.25zm-1.7-3.14c-.46 0-.89.43-1.01 1.2.53 0 1.09 0 1.65-.03.19 0 .24-.05.24-.2 0-.5-.34-.98-.88-.98zm7.73 3.95v-.3c.55-.06.64-.1.64-.74v-1.6c0-.68-.26-1.09-.83-1.09-.37 0-.71.2-1.07.5 0 .12.03.24.03.41v1.84c0 .59.1.64.62.69v.3H195v-.3c.59-.06.69-.1.69-.72v-1.64c0-.71-.26-1.09-.81-1.09-.37 0-.74.24-1.06.5v2.23c0 .62.07.66.59.72v.3h-2.06v-.3c.64-.06.69-.1.69-.72v-1.96c0-.61-.05-.65-.58-.74v-.27c.47-.07.93-.19 1.37-.38v.77c.2-.15.4-.31.72-.5.23-.14.45-.25.76-.25.47 0 .87.28 1.07.78.27-.21.51-.37.76-.53.22-.14.49-.25.78-.25.76 0 1.24.54 1.24 1.49v1.83c0 .62.07.66.62.72v.31h-2.05zm8.53-.81c-.64.76-1.32.92-1.65.92-1.17 0-1.91-.96-1.91-2.1 0-.65.24-1.24.62-1.66.41-.46.93-.7 1.46-.7.88 0 1.52.74 1.52 1.55 0 .2-.04.29-.2.33-.27.05-1.47.12-2.61.16 0 1.22.76 1.73 1.43 1.73.41 0 .8-.17 1.16-.49l.17.25zm-1.7-3.14c-.46 0-.89.43-1.01 1.2.53 0 1.09 0 1.65-.03.19 0 .24-.05.24-.2 0-.5-.34-.98-.88-.98zm4.64 3.95v-.3c.41-.04.49-.12.33-.37l-.7-1.08c-.21.33-.43.68-.61.99-.17.31-.16.4.33.46v.3h-1.83v-.3c.6-.07.72-.14 1.07-.6.28-.38.53-.74.83-1.18l-.84-1.29c-.28-.43-.39-.51-.94-.57v-.3h1.97v.3c-.38.05-.44.12-.25.41l.55.84c.17-.26.38-.59.54-.86.16-.27.09-.34-.3-.38v-.3h1.78v.3c-.55.06-.74.1-1.09.55-.16.21-.39.53-.72 1l.92 1.39c.37.52.48.63 1.07.69v.3h-2.1zm2.35-4.03c.44-.06 1-.23 1.43-.41v.76c.11-.06.75-.43.87-.49.2-.1.4-.18.54-.18 1.05 0 1.71.91 1.71 1.87 0 1.46-1.16 2.37-2.42 2.59-.3-.01-.57-.1-.71-.17v1.2c0 .66.07.73.83.79v.31h-2.32v-.31c.64-.06.71-.12.71-.74v-4.25c0-.58-.03-.61-.65-.69v-.29zm1.43 3.28c.22.22.59.38.91.38.85 0 1.37-.71 1.37-1.75s-.6-1.61-1.27-1.61c-.33 0-.75.21-1.01.41v2.58zm3.73.45c.62-.06.7-.11.7-.73v-4.47c0-.59-.05-.64-.67-.7v-.29c.53-.05 1.14-.21 1.46-.32v5.79c0 .62.07.67.71.73v.3h-2.19v-.3zm2.74.3v-.3c.61-.06.68-.1.68-.76v-1.93c0-.59-.02-.64-.62-.72v-.27c.53-.09 1-.21 1.4-.38v3.3c0 .65.07.7.69.76v.3h-2.16zm1.54-5.76c0 .28-.23.53-.52.53-.28 0-.53-.25-.53-.53 0-.32.25-.55.54-.55s.52.24.52.55zm2.92 4.41c-.18 0-.36-.02-.52-.07-.2.17-.26.33-.26.43 0 .16.16.36.59.36.37 0 .78-.01 1.09-.01.64 0 1.43.21 1.43 1.15 0 1.02-1.19 1.91-2.48 1.91-1.1 0-1.71-.64-1.72-1.2 0-.23.09-.4.25-.56.2-.2.55-.48.75-.63-.34-.1-.58-.31-.71-.5a.903.903 0 0 1-.12-.42c.33-.14.65-.41.84-.65-.47-.23-.8-.65-.8-1.25 0-1.08.99-1.58 1.75-1.58.32 0 .65.08.95.23.47 0 1.03-.07 1.31-.14l.06.09c-.07.15-.24.44-.38.52-.14 0-.44-.04-.58-.05.16.21.27.5.27.84 0 1.02-.86 1.52-1.72 1.52zm.24 1.41c-.5 0-.68.05-.84.18-.31.23-.49.51-.49.77 0 .51.53.9 1.29.9.9 0 1.43-.46 1.43-1.06 0-.31-.15-.56-.41-.67-.25-.1-.56-.12-.97-.12zm-.24-4.1c-.42 0-.82.38-.82 1.12s.38 1.23.9 1.23c.43-.01.8-.36.8-1.12 0-.72-.36-1.23-.89-1.23zm6.28 3.22c-.64.76-1.32.92-1.65.92-1.17 0-1.91-.96-1.91-2.1 0-.65.24-1.24.62-1.66.41-.46.93-.7 1.46-.7.88 0 1.52.74 1.52 1.55 0 .2-.04.29-.2.33-.27.05-1.47.12-2.61.16 0 1.22.76 1.73 1.43 1.73.41 0 .8-.17 1.16-.49l.17.25zm-1.7-3.14c-.46 0-.89.43-1.01 1.2.53 0 1.09 0 1.65-.03.19 0 .24-.05.24-.2 0-.5-.34-.98-.88-.98zm7.44 3.95v-.3c.55-.06.6-.13.6-.75v-1.6c0-.67-.26-1.09-.87-1.09-.39 0-.76.22-1.07.49v2.22c0 .65.05.66.63.72v.3h-2.1v-.3c.64-.07.69-.11.69-.72v-1.95c0-.62-.07-.65-.59-.73V188c.5-.08.97-.2 1.38-.38v.75c.19-.14.4-.28.65-.44.27-.17.53-.29.81-.29.77 0 1.27.57 1.27 1.5v1.82c0 .63.06.66.63.72v.3h-2.02zm2.63 0v-.3c.61-.06.68-.1.68-.76V189c0-.59-.02-.64-.62-.72v-.27c.53-.09 1-.21 1.4-.38v3.3c0 .65.07.7.69.76v.3h-2.16zm1.54-5.76c0 .28-.23.53-.52.53-.28 0-.53-.25-.53-.53 0-.32.25-.55.54-.55s.52.24.52.55zm3.89 5.45c.55-.06.63-.1.63-.72v-1.57c0-.79-.31-1.17-.94-1.17-.37 0-.75.18-1.02.5v2.24c0 .61.07.67.65.72v.3h-2.12v-.3c.57-.05.69-.1.69-.72v-4.5c0-.53-.03-.62-.68-.68v-.29c.53-.05 1.13-.19 1.47-.32v3.15c.35-.35.88-.69 1.4-.69.8 0 1.34.5 1.34 1.64v1.69c0 .62.07.67.64.72v.3h-2.06v-.3zm2.66.3v-.3c.61-.06.68-.1.68-.76v-1.93c0-.59-.02-.64-.62-.72V188c.53-.09 1-.21 1.4-.38v3.3c0 .65.07.7.69.76v.3h-2.16zm1.54-5.76c0 .28-.23.53-.52.53-.28 0-.53-.25-.53-.53 0-.32.25-.55.54-.55s.52.24.52.55zm1.08 5.45c.62-.06.7-.11.7-.73v-4.47c0-.59-.05-.64-.67-.7v-.29c.53-.05 1.14-.21 1.46-.32v5.79c0 .62.07.67.71.73v.3h-2.19v-.3zm2.65 0c.62-.06.7-.11.7-.73v-4.47c0-.59-.05-.64-.67-.7v-.29c.53-.05 1.14-.21 1.46-.32v5.79c0 .62.07.67.71.73v.3h-2.19v-.3zm6.31-.51c-.64.76-1.32.92-1.65.92-1.17 0-1.91-.96-1.91-2.1 0-.65.24-1.24.62-1.66.41-.46.93-.7 1.46-.7.88 0 1.52.74 1.52 1.55 0 .2-.04.29-.2.33-.27.05-1.47.12-2.61.16 0 1.22.76 1.73 1.43 1.73.41 0 .8-.17 1.16-.49l.17.25zm-1.7-3.14c-.46 0-.9.43-1.01 1.2.53 0 1.09 0 1.65-.03.19 0 .24-.05.24-.2 0-.5-.34-.98-.88-.98zm4.94.9c-.18-.58-.45-.94-1-.94-.35 0-.62.23-.62.61s.28.58.84.83c.83.37 1.26.67 1.26 1.33 0 .88-.81 1.34-1.61 1.34-.5 0-.96-.15-1.16-.27-.06-.26-.15-.86-.19-1.14l.32-.06c.19.64.54 1.11 1.18 1.11.38 0 .68-.24.68-.64 0-.42-.26-.64-.78-.88-.7-.32-1.25-.63-1.25-1.33s.59-1.25 1.52-1.25c.41 0 .76.09.95.13.04.27.12.87.16 1.08l-.32.08zm2.57 3.17c-.62 0-.96-.37-.96-1.14v-2.78h-.67l-.05-.13.27-.3h.45v-.83c.18-.18.49-.44.67-.62l.15.02c-.02.4-.03 1.03-.03 1.43h1.1c.09.1.07.34-.06.43h-1.03v2.43c0 .76.31.9.55.9.23 0 .46-.09.59-.16l.09.28-.62.33c-.18.09-.35.14-.44.14zm1.82.76c.49-.21.81-.49.81-.84s-.27-.44-.64-.54c-.07-.01-.17-.12-.17-.3 0-.25.19-.49.56-.49s.88.34.88 1.06c0 .78-.71 1.25-1.29 1.42l-.14-.31zm6.99 1.37v-.31c.78-.07.83-.11.83-.76v-1.45l-1.03.4c-1.42 0-2.12-1.13-2.12-2.06 0-1.41 1.24-2.4 2.61-2.4.32.02.6.08.71.12.13.04.17.05.26.05.06 0 .19-.04.34-.1l.04.03c0 .2-.03.39-.03 1.02v4.41c0 .64.07.67.74.75v.31h-2.36zm-.13-6.17c-.63 0-1.32.54-1.32 1.68 0 1.24.8 1.81 1.53 1.81.32 0 .55-.08.74-.17v-2.91c-.21-.26-.64-.4-.96-.4zm7.57 3.7c-.48.07-1 .19-1.51.34v-.73c-.52.42-.93.73-1.47.73-.65 0-1.22-.4-1.22-1.47v-1.81c0-.53-.07-.58-.33-.64l-.27-.05v-.28c.44-.02 1.03-.1 1.42-.17-.03.32-.03.81-.03 1.4v1.31c0 .83.44 1.07.87 1.07.36 0 .7-.15 1.03-.46v-2.18c0-.53-.1-.59-.43-.64l-.33-.04v-.28c.59-.03 1.23-.11 1.55-.17v3.19c0 .49.08.56.45.57h.27v.31zm4.11-.59c-.64.76-1.32.92-1.65.92-1.17 0-1.91-.96-1.91-2.1 0-.65.24-1.24.62-1.66.41-.46.93-.7 1.46-.7.88 0 1.52.74 1.52 1.55 0 .2-.04.29-.2.33-.27.05-1.47.12-2.61.16 0 1.22.76 1.73 1.43 1.73.41 0 .8-.17 1.16-.49l.17.25zm-1.7-3.14c-.46 0-.9.43-1.01 1.2.53 0 1.09 0 1.65-.03.19 0 .24-.05.24-.2 0-.5-.34-.98-.88-.98zm4.55-.08c.44-.06 1-.23 1.43-.41v.76c.11-.06.75-.43.87-.49.2-.1.4-.18.54-.18 1.05 0 1.71.91 1.71 1.87 0 1.46-1.16 2.37-2.42 2.59-.3-.01-.57-.1-.71-.17v1.2c0 .66.07.73.83.79v.31h-2.32v-.31c.64-.06.71-.12.71-.74v-4.25c0-.58-.03-.61-.65-.69v-.29zm1.43 3.28c.22.22.59.38.91.38.85 0 1.37-.71 1.37-1.75s-.6-1.61-1.27-1.61c-.33 0-.75.21-1.01.41v2.58zm6.07.75h-2.25v-.3c.61-.06.67-.1.67-.72v-1.97c0-.62-.04-.65-.6-.72v-.27c.49-.08.93-.19 1.38-.38v1.05c.36-.53.77-1.03 1.23-1.03.36 0 .57.23.57.47s-.16.46-.34.55c-.1.06-.18.04-.25-.02-.15-.14-.27-.23-.44-.23-.21 0-.58.31-.77.82v1.73c0 .62.04.67.8.73v.3zm4.97-.81c-.64.76-1.32.92-1.65.92-1.17 0-1.91-.96-1.91-2.1 0-.65.24-1.24.62-1.66.41-.46.93-.7 1.46-.7.88 0 1.52.74 1.52 1.55 0 .2-.04.29-.2.33-.27.05-1.47.12-2.61.16 0 1.22.76 1.73 1.43 1.73.41 0 .8-.17 1.16-.49l.17.25zm-1.7-3.14c-.46 0-.9.43-1.01 1.2.53 0 1.09 0 1.65-.03.19 0 .24-.05.24-.2 0-.5-.34-.98-.88-.98zm7.73 3.95v-.3c.55-.06.64-.1.64-.74v-1.6c0-.68-.26-1.09-.83-1.09-.37 0-.71.2-1.07.5 0 .12.03.24.03.41v1.84c0 .59.1.64.62.69v.3h-2.1v-.3c.59-.06.69-.1.69-.72v-1.64c0-.71-.26-1.09-.81-1.09-.37 0-.74.24-1.06.5v2.23c0 .62.07.66.59.72v.3h-2.06v-.3c.64-.06.69-.1.69-.72V189c0-.61-.05-.65-.58-.74v-.27c.47-.07.93-.19 1.37-.38v.77c.2-.15.4-.31.72-.5.23-.14.45-.25.76-.25.47 0 .87.28 1.07.78.27-.21.51-.37.76-.53.22-.14.49-.25.78-.25.76 0 1.24.54 1.24 1.49v1.83c0 .62.07.66.62.72v.31h-2.05zm2.55-4.03c.44-.06 1-.23 1.43-.41v.76c.11-.06.75-.43.87-.49.2-.1.4-.18.54-.18 1.05 0 1.71.91 1.71 1.87 0 1.46-1.16 2.37-2.42 2.59-.3-.01-.57-.1-.71-.17v1.2c0 .66.07.73.83.79v.31h-2.32v-.31c.64-.06.71-.12.71-.74v-4.25c0-.58-.03-.61-.65-.69v-.29zm1.43 3.28c.22.22.59.38.91.38.85 0 1.37-.71 1.37-1.75s-.6-1.61-1.27-1.61c-.33 0-.75.21-1.01.41v2.58zm6.11-3.59c1.23 0 2.12.93 2.12 2.16 0 1.57-1.18 2.3-2.13 2.3-1.34 0-2.16-1.09-2.16-2.16 0-1.51 1.18-2.3 2.17-2.3zm-1.24 2.02c0 1.22.55 2.07 1.34 2.07.58 0 1.1-.44 1.1-1.72 0-1.14-.48-2.01-1.31-2.01-.58 0-1.12.54-1.12 1.66zm6.62-.74c-.18-.58-.45-.94-1-.94-.35 0-.62.23-.62.61s.28.58.84.83c.83.37 1.26.67 1.26 1.33 0 .88-.81 1.34-1.61 1.34-.5 0-.96-.15-1.16-.27-.06-.26-.15-.86-.19-1.14l.32-.06c.19.64.54 1.11 1.18 1.11.38 0 .68-.24.68-.64 0-.42-.26-.64-.78-.88-.7-.32-1.25-.63-1.25-1.33s.59-1.25 1.52-1.25c.41 0 .76.09.95.13.04.27.12.87.16 1.08l-.32.08zm5.94 0c-.18-.58-.45-.94-1-.94-.35 0-.62.23-.62.61s.28.58.84.83c.83.37 1.26.67 1.26 1.33 0 .88-.81 1.34-1.61 1.34-.5 0-.96-.15-1.16-.27-.06-.26-.15-.86-.19-1.14l.32-.06c.19.64.54 1.11 1.18 1.11.38 0 .68-.24.68-.64 0-.42-.26-.64-.78-.88-.7-.32-1.25-.63-1.25-1.33s.59-1.25 1.52-1.25c.41 0 .76.09.95.13.04.27.12.87.16 1.08l-.32.08zm1.17 3.06v-.3c.61-.06.68-.1.68-.76v-1.93c0-.59-.02-.64-.61-.72v-.27c.53-.09 1-.21 1.4-.38v3.3c0 .65.07.7.69.76v.3h-2.16zm1.54-5.76c0 .28-.23.53-.52.53-.28 0-.53-.25-.53-.53 0-.32.25-.55.54-.55s.52.24.52.55zm6.52 5.76v-.3c.55-.06.64-.1.64-.74v-1.6c0-.68-.26-1.09-.83-1.09-.37 0-.71.2-1.07.5 0 .12.03.24.03.41v1.84c0 .59.1.64.62.69v.3h-2.1v-.3c.59-.06.69-.1.69-.72v-1.64c0-.71-.26-1.09-.81-1.09-.37 0-.74.24-1.06.5v2.23c0 .62.08.66.59.72v.3h-2.06v-.3c.64-.06.69-.1.69-.72V189c0-.61-.05-.65-.58-.74v-.27c.47-.07.93-.19 1.37-.38v.77c.2-.15.4-.31.72-.5.23-.14.45-.25.76-.25.47 0 .87.28 1.07.78.27-.21.51-.37.76-.53.22-.14.49-.25.78-.25.76 0 1.24.54 1.24 1.49v1.83c0 .62.07.66.62.72v.31h-2.05zm5.13-1.85h-2.29l.07-.61h2.3l-.08.61zm-197.24 9.85c.46-.06 1.03-.23 1.48-.41v.76c.11-.06.77-.43.9-.49.2-.1.41-.18.56-.18 1.08 0 1.76.91 1.76 1.87 0 1.46-1.2 2.37-2.49 2.59-.31-.01-.59-.1-.73-.17v1.2c0 .66.07.73.85.79v.31h-2.39v-.31c.66-.06.73-.12.73-.74v-4.25c0-.58-.03-.61-.67-.69v-.29zm1.48 3.28c.22.22.61.38.94.38.87 0 1.41-.71 1.41-1.75s-.62-1.61-1.31-1.61c-.34 0-.77.21-1.04.41v2.58zm6.37-3.59c1.27 0 2.18.93 2.18 2.16 0 1.57-1.21 2.3-2.19 2.3a2.17 2.17 0 0 1-2.22-2.16c0-1.51 1.22-2.3 2.23-2.3zm-1.28 2.02c0 1.22.57 2.07 1.38 2.07.6 0 1.13-.44 1.13-1.72 0-1.14-.49-2.01-1.35-2.01-.59 0-1.16.54-1.16 1.66zm6.55 2.32h-2.32v-.3c.63-.06.69-.1.69-.72v-1.97c0-.62-.04-.65-.62-.72v-.27c.5-.08.95-.19 1.43-.38v1.05c.37-.53.79-1.03 1.27-1.03.37 0 .59.23.59.47s-.17.46-.35.55c-.1.06-.18.04-.26-.02-.15-.14-.28-.23-.45-.23-.22 0-.59.31-.8.82v1.73c0 .62.04.67.82.73v.3zm1.64 0v-.3c.63-.06.7-.1.7-.76v-1.93c0-.59-.02-.64-.63-.72v-.27c.55-.09 1.03-.21 1.44-.38v3.3c0 .65.07.7.72.76v.3h-2.23zm1.58-5.76c0 .28-.24.53-.54.53-.29 0-.55-.25-.55-.53 0-.32.26-.55.56-.55s.53.24.53.55zm3.32 1.52c.18-.08.37-.11.49-.11 1.08 0 1.97.9 1.97 2.04 0 1.35-1.18 2.43-2.5 2.43-.43 0-.97-.1-1.53-.35v-5.28c0-.58-.04-.64-.68-.69v-.29a7.81 7.81 0 0 0 1.49-.32v2.88l.76-.31zm-.76 3.12c0 .15.02.24.05.33.1.21.49.49.98.49.8 0 1.28-.67 1.28-1.76s-.7-1.73-1.49-1.73c-.3 0-.63.09-.82.18v2.48zm8.89.9c-.49.07-1.03.19-1.56.34v-.73c-.53.42-.96.73-1.52.73-.67 0-1.25-.4-1.25-1.47v-1.81c0-.53-.08-.58-.34-.64l-.28-.05v-.28c.45-.02 1.07-.1 1.46-.17-.03.32-.03.81-.03 1.4v1.31c0 .83.46 1.07.9 1.07.37 0 .72-.15 1.07-.46v-2.18c0-.53-.1-.59-.44-.64l-.34-.04v-.28c.61-.03 1.26-.11 1.59-.17v3.19c0 .49.08.56.47.57h.28v.31zm3.18-2.84c-.19-.58-.46-.94-1.03-.94-.36 0-.64.23-.64.61s.28.58.87.83c.85.37 1.3.67 1.3 1.33 0 .88-.84 1.34-1.66 1.34-.51 0-.98-.15-1.19-.27-.06-.26-.16-.86-.19-1.14l.33-.06c.19.64.56 1.11 1.21 1.11.39 0 .71-.24.71-.64 0-.42-.27-.64-.81-.88-.72-.32-1.29-.63-1.29-1.33s.6-1.25 1.57-1.25c.43 0 .78.09.98.13.04.27.12.87.17 1.08l-.32.08zm1.49 3.93c.51-.21.84-.49.84-.84s-.28-.44-.66-.54c-.07-.01-.17-.12-.17-.3 0-.25.19-.49.57-.49s.9.34.9 1.06c0 .78-.73 1.25-1.33 1.42l-.15-.31zm9.54-4.81c-.54.06-.62.15-.87.7-.33.75-.94 2.15-1.42 3.34h-.32c-.37-.97-.91-2.25-1.38-3.36-.22-.54-.32-.6-.84-.68v-.3h2.07v.3c-.55.06-.57.12-.41.54.24.63.68 1.69.94 2.32.34-.79.68-1.64.9-2.23.17-.47.12-.56-.5-.63v-.3h1.83v.3zm2.59-.41c1.27 0 2.18.93 2.18 2.16 0 1.57-1.21 2.3-2.19 2.3a2.17 2.17 0 0 1-2.22-2.16c0-1.51 1.22-2.3 2.23-2.3zm-1.28 2.02c0 1.22.57 2.07 1.38 2.07.6 0 1.13-.44 1.13-1.72 0-1.14-.49-2.01-1.35-2.01-.59 0-1.16.54-1.16 1.66zm4.13 2.02c.64-.06.72-.11.72-.73v-4.47c0-.59-.05-.64-.69-.7v-.29c.55-.05 1.18-.21 1.5-.32v5.79c0 .62.07.67.73.73v.3h-2.26v-.3zm7.72.08c-.49.07-1.03.19-1.56.34v-.73c-.53.42-.96.73-1.52.73-.67 0-1.25-.4-1.25-1.47v-1.81c0-.53-.08-.58-.34-.64l-.28-.05v-.28c.45-.02 1.07-.1 1.46-.17-.03.32-.03.81-.03 1.4v1.31c0 .83.46 1.07.9 1.07.37 0 .72-.15 1.07-.46v-2.18c0-.53-.1-.59-.44-.64l-.34-.04v-.28c.61-.03 1.26-.11 1.59-.17v3.19c0 .49.08.56.47.57h.28v.31zm.53-3.81c.46-.06 1.03-.23 1.48-.41v.76c.11-.06.77-.43.9-.49.2-.1.41-.18.56-.18 1.08 0 1.76.91 1.76 1.87 0 1.46-1.2 2.37-2.49 2.59-.31-.01-.59-.1-.73-.17v1.2c0 .66.07.73.85.79v.31h-2.39v-.31c.66-.06.73-.12.73-.74v-4.25c0-.58-.03-.61-.67-.69v-.29zm1.48 3.28c.22.22.61.38.94.38.87 0 1.41-.71 1.41-1.75s-.62-1.61-1.31-1.61c-.34 0-.77.21-1.04.41v2.58zm5.6.87c-.64 0-.99-.37-.99-1.14v-2.78h-.69l-.05-.13.28-.3h.46v-.83c.19-.18.5-.44.69-.62l.16.02c-.02.4-.03 1.03-.03 1.43h1.13c.1.1.07.34-.06.43h-1.07v2.43c0 .76.32.9.57.9.23 0 .47-.09.61-.16l.1.28-.64.33c-.18.09-.36.14-.46.14zm4.86 0c-.15 0-.36-.08-.46-.18a.89.89 0 0 1-.25-.44c-.41.27-.89.62-1.22.62-.7 0-1.22-.57-1.22-1.21 0-.47.27-.8.83-.98.63-.2 1.39-.46 1.59-.62v-.18c0-.67-.36-1.03-.86-1.03-.22 0-.37.1-.47.21-.12.13-.18.35-.27.62-.05.16-.15.23-.3.23-.19 0-.45-.2-.45-.43 0-.14.13-.26.33-.4.28-.19.88-.55 1.46-.67.3 0 .62.09.85.27.36.29.51.64.51 1.12v1.83c0 .44.17.57.35.57.11 0 .25-.05.37-.11l.11.3-.88.48zm-.73-2.43c-.23.11-.69.3-.95.4-.35.15-.59.33-.59.69 0 .5.4.72.7.72.27 0 .6-.14.83-.35v-1.47zm3.61 2.43c-.64 0-.99-.37-.99-1.14v-2.78h-.69l-.05-.13.28-.3h.46v-.83c.19-.18.5-.44.69-.62l.16.02c-.02.4-.03 1.03-.03 1.43h1.13c.1.1.07.34-.06.43h-1.07v2.43c0 .76.32.9.57.9.23 0 .47-.09.61-.16l.1.28-.64.33c-.18.09-.36.14-.46.14zm6.38-.34c-.49.07-1.03.19-1.56.34v-.73c-.53.42-.96.73-1.52.73-.67 0-1.25-.4-1.25-1.47v-1.81c0-.53-.08-.58-.34-.64l-.28-.05v-.28c.45-.02 1.07-.1 1.46-.17-.03.32-.03.81-.03 1.4v1.31c0 .83.46 1.07.9 1.07.37 0 .72-.15 1.07-.46v-2.18c0-.53-.1-.59-.44-.64l-.34-.04v-.28c.61-.03 1.26-.11 1.59-.17v3.19c0 .49.08.56.47.57h.28v.31zm2.95.22h-2.32v-.3c.63-.06.69-.1.69-.72V201c0-.62-.04-.65-.62-.72v-.27c.5-.08.95-.19 1.43-.38v1.05c.37-.53.79-1.03 1.27-1.03.37 0 .59.23.59.47s-.17.46-.35.55c-.1.06-.18.04-.26-.02-.15-.14-.28-.23-.45-.23-.22 0-.59.31-.8.82v1.73c0 .62.04.67.82.73v.3zm7.37.11c-.15 0-.36-.08-.46-.18a.89.89 0 0 1-.25-.44c-.41.27-.89.62-1.22.62-.7 0-1.22-.57-1.22-1.21 0-.47.27-.8.83-.98.63-.2 1.39-.46 1.59-.62v-.18c0-.67-.36-1.03-.86-1.03-.22 0-.37.1-.47.21-.12.13-.18.35-.27.62-.05.16-.15.23-.3.23-.19 0-.45-.2-.45-.43 0-.14.13-.26.33-.4.28-.19.88-.55 1.46-.67.3 0 .62.09.85.27.36.29.51.64.51 1.12v1.83c0 .44.17.57.35.57.11 0 .25-.05.37-.11l.11.3-.88.48zm-.73-2.43c-.23.11-.69.3-.95.4-.35.15-.59.33-.59.69 0 .5.4.72.7.72.27 0 .6-.14.83-.35v-1.47zm6.92 2.1c-.49.07-1.03.19-1.56.34v-.73c-.53.42-.96.73-1.52.73-.67 0-1.25-.4-1.25-1.47v-1.81c0-.53-.08-.58-.34-.64l-.28-.05v-.28c.45-.02 1.07-.1 1.46-.17-.03.32-.03.81-.03 1.4v1.31c0 .83.46 1.07.9 1.07.37 0 .72-.15 1.07-.46v-2.18c0-.53-.1-.59-.44-.64l-.34-.04v-.28c.61-.03 1.26-.11 1.59-.17v3.19c0 .49.08.56.47.57h.28v.31zm3.91.34v-.62c-.17.1-.45.25-.62.35-.39.21-.67.27-.78.27-.8 0-1.87-.76-1.87-2.11s1.21-2.35 2.59-2.35c.13 0 .46.02.67.1v-1.3c0-.59-.07-.62-.78-.67v-.29c.47-.06 1.23-.19 1.6-.31v5.67c0 .5.08.56.45.58l.32.02v.31c-.21.04-.97.15-1.58.35zm0-3.58c-.24-.33-.65-.47-1.04-.47-.43 0-1.31.29-1.31 1.68 0 1.17.76 1.75 1.37 1.75.34 0 .74-.17.98-.35v-2.61zm5.38 3.58c-.15 0-.36-.08-.46-.18a.89.89 0 0 1-.25-.44c-.41.27-.89.62-1.22.62-.7 0-1.22-.57-1.22-1.21 0-.47.27-.8.83-.98.63-.2 1.39-.46 1.59-.62v-.18c0-.67-.36-1.03-.86-1.03-.22 0-.37.1-.47.21-.12.13-.18.35-.27.62-.05.16-.15.23-.3.23-.19 0-.45-.2-.45-.43 0-.14.13-.26.33-.4.28-.19.88-.55 1.46-.67.3 0 .62.09.85.27.36.29.51.64.51 1.12v1.83c0 .44.17.57.35.57.11 0 .25-.05.37-.11l.11.3-.88.48zm-.73-2.43c-.23.11-.69.3-.95.4-.35.15-.59.33-.59.69 0 .5.4.72.7.72.27 0 .6-.14.83-.35v-1.47zm8.04 2.43v-.62c-.17.1-.45.25-.62.35-.39.21-.67.27-.78.27-.8 0-1.87-.76-1.87-2.11s1.21-2.35 2.59-2.35c.13 0 .46.02.67.1v-1.3c0-.59-.07-.62-.78-.67v-.29c.47-.06 1.23-.19 1.6-.31v5.67c0 .5.08.56.45.58l.32.02v.31c-.21.04-.97.15-1.58.35zm0-3.58c-.24-.33-.65-.47-1.04-.47-.43 0-1.31.29-1.31 1.68 0 1.17.76 1.75 1.37 1.75.34 0 .74-.17.98-.35v-2.61zm7 3.24c-.49.07-1.03.19-1.56.34v-.73c-.53.42-.96.73-1.52.73-.67 0-1.25-.4-1.25-1.47v-1.81c0-.53-.08-.58-.34-.64l-.28-.05v-.28c.45-.02 1.07-.1 1.46-.17-.03.32-.03.81-.03 1.4v1.31c0 .83.46 1.07.9 1.07.37 0 .72-.15 1.07-.46v-2.18c0-.53-.1-.59-.44-.64l-.34-.04v-.28c.61-.03 1.26-.11 1.59-.17v3.19c0 .49.08.56.47.57h.28v.31zm3.51.22v-.3c.56-.06.62-.13.62-.75v-1.6c0-.67-.27-1.09-.9-1.09-.4 0-.78.22-1.1.49v2.22c0 .65.06.66.65.72v.3h-2.17v-.3c.66-.07.71-.11.71-.72v-1.95c0-.62-.07-.65-.61-.73V200c.51-.08 1-.2 1.42-.38v.75c.2-.14.42-.28.67-.44.28-.17.54-.29.83-.29.79 0 1.31.57 1.31 1.5v1.82c0 .63.06.66.65.72v.3h-2.08zm4.28.11c-.64 0-.99-.37-.99-1.14v-2.78h-.69l-.05-.13.28-.3h.46v-.83c.19-.18.5-.44.69-.62l.16.02c-.02.4-.03 1.03-.03 1.43h1.13c.1.1.07.34-.06.43h-1.07v2.43c0 .76.32.9.57.9.23 0 .47-.09.61-.16l.1.28-.64.33c-.18.09-.36.14-.46.14zm7.92-.92c-.66.76-1.36.92-1.7.92-1.21 0-1.96-.96-1.96-2.1 0-.65.24-1.24.64-1.66.43-.46.96-.7 1.5-.7.9 0 1.57.74 1.57 1.55 0 .2-.04.29-.2.33-.28.05-1.52.12-2.68.16 0 1.22.78 1.73 1.48 1.73.42 0 .83-.17 1.19-.49l.17.25zm-1.75-3.14c-.47 0-.92.43-1.04 1.2.54 0 1.12 0 1.7-.03.19 0 .25-.05.25-.2 0-.5-.35-.98-.9-.98zm4.13 4.07c-.64 0-.99-.37-.99-1.14v-2.78h-.69l-.05-.13.28-.3h.46v-.83c.19-.18.5-.44.69-.62l.16.02c-.02.4-.03 1.03-.03 1.43h1.13c.1.1.07.34-.06.43h-1.07v2.43c0 .76.32.9.57.9.23 0 .47-.09.61-.16l.1.28-.64.33c-.18.09-.36.14-.46.14zm4.12-4.14c.46-.06 1.03-.23 1.48-.41v.76c.11-.06.77-.43.9-.49.2-.1.41-.18.56-.18 1.08 0 1.76.91 1.76 1.87 0 1.46-1.2 2.37-2.49 2.59-.31-.01-.59-.1-.73-.17v1.2c0 .66.07.73.85.79v.31h-2.39v-.31c.66-.06.73-.12.73-.74v-4.25c0-.58-.03-.61-.67-.69v-.29zm1.48 3.28c.22.22.61.38.94.38.87 0 1.41-.71 1.41-1.75s-.62-1.61-1.31-1.61c-.34 0-.77.21-1.04.41v2.58zm7.27.87c-.15 0-.36-.08-.46-.18a.89.89 0 0 1-.25-.44c-.41.27-.89.62-1.22.62-.7 0-1.22-.57-1.22-1.21 0-.47.27-.8.83-.98.63-.2 1.39-.46 1.59-.62v-.18c0-.67-.36-1.03-.86-1.03-.22 0-.37.1-.47.21-.12.13-.18.35-.27.62-.05.16-.15.23-.3.23-.19 0-.45-.2-.45-.43 0-.14.13-.26.33-.4.28-.19.88-.55 1.46-.67.3 0 .62.09.85.27.36.29.51.64.51 1.12v1.83c0 .44.17.57.35.57.11 0 .25-.05.37-.11l.11.3-.88.48zm-.73-2.43c-.23.11-.69.3-.95.4-.35.15-.59.33-.59.69 0 .5.4.72.7.72.27 0 .6-.14.83-.35v-1.47zm6.81 2.43c-1.27 0-2.03-1.02-2.03-2.04 0-.77.35-1.39 1-1.87.54-.4 1.14-.55 1.53-.55.47 0 .79.14.94.26.14.11.16.18.16.29 0 .23-.26.45-.37.45-.05 0-.1-.02-.19-.09-.32-.26-.65-.42-1-.42-.64 0-1.22.53-1.22 1.52 0 1.32.93 1.76 1.5 1.76.41 0 .76-.11 1.22-.53l.18.24c-.45.56-1.12.98-1.72.98zm4.62-4.46c1.27 0 2.18.93 2.18 2.16 0 1.57-1.21 2.3-2.19 2.3a2.17 2.17 0 0 1-2.22-2.16c0-1.51 1.22-2.3 2.23-2.3zm-1.28 2.02c0 1.22.57 2.07 1.38 2.07.6 0 1.13-.44 1.13-1.72 0-1.14-.49-2.01-1.35-2.01-.59 0-1.16.54-1.16 1.66zm6.55 2.32h-2.32v-.3c.63-.06.69-.1.69-.72v-1.97c0-.62-.04-.65-.62-.72v-.27c.5-.08.95-.19 1.43-.38v1.05c.37-.53.79-1.03 1.27-1.03.37 0 .59.23.59.47s-.17.46-.35.55c-.1.06-.18.04-.26-.02-.15-.14-.28-.23-.45-.23-.22 0-.59.31-.8.82v1.73c0 .62.04.67.82.73v.3zm9.65 0v-.3c.57-.06.66-.1.66-.74v-1.6c0-.68-.27-1.09-.85-1.09-.38 0-.73.2-1.11.5 0 .12.03.24.03.41v1.84c0 .59.1.64.64.69v.3h-2.16v-.3c.61-.06.71-.1.71-.72v-1.64c0-.71-.26-1.09-.84-1.09-.38 0-.76.24-1.09.5v2.23c0 .62.08.66.61.72v.3h-2.13v-.3c.66-.06.71-.1.71-.72v-1.96c0-.61-.05-.65-.6-.74v-.27c.48-.07.96-.19 1.41-.38v.77c.21-.15.41-.31.74-.5.24-.14.46-.25.79-.25.48 0 .89.28 1.1.78.28-.21.53-.37.78-.53.22-.14.5-.25.8-.25.78 0 1.27.54 1.27 1.49v1.83c0 .62.07.66.64.72v.31h-2.11zm5.07-4.35c1.27 0 2.18.93 2.18 2.16 0 1.57-1.21 2.3-2.19 2.3a2.17 2.17 0 0 1-2.22-2.16c0-1.51 1.22-2.3 2.23-2.3zm-1.28 2.02c0 1.22.57 2.07 1.38 2.07.6 0 1.13-.44 1.13-1.72 0-1.14-.49-2.01-1.35-2.01-.59 0-1.16.54-1.16 1.66zm4.13 2.02c.64-.06.72-.11.72-.73v-4.47c0-.59-.05-.64-.69-.7v-.29c.55-.05 1.18-.21 1.5-.32v5.79c0 .62.07.67.73.73v.3h-2.26v-.3zm7.72.08c-.49.07-1.03.19-1.56.34v-.73c-.53.42-.96.73-1.52.73-.67 0-1.25-.4-1.25-1.47v-1.81c0-.53-.08-.58-.34-.64l-.28-.05v-.28c.45-.02 1.07-.1 1.46-.17-.03.32-.03.81-.03 1.4v1.31c0 .83.46 1.07.9 1.07.37 0 .72-.15 1.07-.46v-2.18c0-.53-.1-.59-.44-.64l-.34-.04v-.28c.61-.03 1.26-.11 1.59-.17v3.19c0 .49.08.56.47.57h.28v.31zm6.14.22v-.3c.57-.06.66-.1.66-.74v-1.6c0-.68-.27-1.09-.85-1.09-.38 0-.73.2-1.11.5 0 .12.03.24.03.41v1.84c0 .59.1.64.64.69v.3h-2.16v-.3c.61-.06.71-.1.71-.72v-1.64c0-.71-.26-1.09-.84-1.09-.38 0-.76.24-1.09.5v2.23c0 .62.08.66.61.72v.3h-2.13v-.3c.66-.06.71-.1.71-.72v-1.96c0-.61-.05-.65-.6-.74v-.27c.48-.07.96-.19 1.41-.38v.77c.21-.15.41-.31.74-.5.24-.14.46-.25.79-.25.48 0 .89.28 1.1.78.28-.21.53-.37.78-.53.22-.14.5-.25.8-.25.78 0 1.27.54 1.27 1.49v1.83c0 .62.07.66.64.72v.31h-2.11zm18.32-48.8c-.63.76-1.32.92-1.64.92-1.17 0-1.9-.96-1.9-2.1 0-.65.24-1.24.62-1.66.41-.46.93-.7 1.45-.7.88 0 1.52.74 1.52 1.55 0 .2-.04.29-.2.33-.27.05-1.47.12-2.6.16 0 1.22.76 1.73 1.43 1.73.41 0 .8-.17 1.15-.49l.17.25zm-1.69-3.14c-.46 0-.89.43-1.01 1.2.52 0 1.09 0 1.65-.03.18 0 .24-.05.24-.2 0-.5-.34-.98-.88-.98zm3.93 4.07c-.62 0-.96-.37-.96-1.14v-2.78h-.67l-.05-.13.27-.3h.45v-.83c.18-.18.49-.44.67-.62l.15.02c-.02.4-.03 1.03-.03 1.43h1.09c.09.1.07.34-.06.43h-1.03v2.43c0 .76.31.9.55.9.23 0 .46-.09.59-.16l.09.28-.62.33c-.18.09-.35.14-.44.14zm3.75-.11v-.3c.61-.06.68-.1.68-.76v-1.93c0-.59-.02-.64-.61-.72v-.27c.53-.09.99-.21 1.4-.38v3.3c0 .65.07.7.69.76v.3h-2.16zm1.54-5.76c0 .28-.23.53-.52.53-.28 0-.53-.25-.53-.53 0-.32.25-.55.54-.55s.51.24.51.55zm3.66 2.7c-.18-.58-.45-.94-1-.94-.35 0-.62.23-.62.61s.27.58.84.83c.83.37 1.26.67 1.26 1.33 0 .88-.81 1.34-1.61 1.34-.5 0-.95-.15-1.16-.27-.06-.26-.15-.86-.18-1.14l.32-.06c.19.64.54 1.11 1.18 1.11.38 0 .68-.24.68-.64 0-.42-.26-.64-.78-.88-.7-.32-1.25-.63-1.25-1.33s.58-1.25 1.52-1.25c.41 0 .75.09.95.13.04.27.12.87.16 1.08l-.31.08zm2.56 3.17c-.62 0-.96-.37-.96-1.14v-2.78h-.67l-.05-.13.27-.3h.45v-.83c.18-.18.49-.44.67-.62l.15.02c-.02.4-.03 1.03-.03 1.43h1.09c.09.1.07.34-.06.43h-1.03v2.43c0 .76.31.9.55.9.23 0 .46-.09.59-.16l.09.28-.62.33c-.18.09-.35.14-.44.14zm1.51-.11v-.3c.61-.06.68-.1.68-.76v-1.93c0-.59-.02-.64-.61-.72v-.27c.53-.09.99-.21 1.4-.38v3.3c0 .65.07.7.69.76v.3h-2.16zm1.54-5.76c0 .28-.23.53-.52.53-.28 0-.53-.25-.53-.53 0-.32.25-.55.54-.55s.51.24.51.55zm3.35 1.41c1.23 0 2.11.93 2.11 2.16 0 1.57-1.17 2.3-2.12 2.3-1.34 0-2.15-1.09-2.15-2.16 0-1.51 1.18-2.3 2.16-2.3zm-1.24 2.02c0 1.22.55 2.07 1.33 2.07.58 0 1.09-.44 1.09-1.72 0-1.14-.47-2.01-1.31-2.01-.58 0-1.12.54-1.12 1.66zm6.82 2.32v-.3c.55-.06.6-.13.6-.75v-1.6c0-.67-.26-1.09-.87-1.09-.39 0-.76.22-1.07.49v2.22c0 .65.05.66.63.72v.3h-2.1v-.3c.64-.07.69-.11.69-.72v-1.95c0-.62-.07-.65-.59-.73v-.28c.5-.08.97-.2 1.37-.38v.75c.19-.14.4-.28.65-.44.27-.17.53-.29.81-.29.77 0 1.27.57 1.27 1.5v1.82c0 .63.06.66.63.72v.3h-2.02zm5.09-3.06c-.18-.58-.45-.94-1-.94-.35 0-.62.23-.62.61s.27.58.84.83c.83.37 1.26.67 1.26 1.33 0 .88-.81 1.34-1.61 1.34-.5 0-.95-.15-1.16-.27-.06-.26-.15-.86-.18-1.14l.32-.06c.19.64.54 1.11 1.18 1.11.38 0 .68-.24.68-.64 0-.42-.26-.64-.78-.88-.7-.32-1.25-.63-1.25-1.33s.58-1.25 1.52-1.25c.41 0 .75.09.95.13.04.27.12.87.16 1.08l-.31.08zm4.8 2.25c-.63.76-1.32.92-1.64.92-1.17 0-1.9-.96-1.9-2.1 0-.65.24-1.24.62-1.66.41-.46.93-.7 1.45-.7.88 0 1.52.74 1.52 1.55 0 .2-.04.29-.2.33-.27.05-1.47.12-2.6.16 0 1.22.76 1.73 1.43 1.73.41 0 .8-.17 1.15-.49l.17.25zm-1.69-3.14c-.46 0-.89.43-1.01 1.2.52 0 1.09 0 1.65-.03.18 0 .24-.05.24-.2 0-.5-.34-.98-.88-.98zm4.54-.08c.44-.06.99-.23 1.43-.41v.76c.11-.06.75-.43.87-.49.2-.1.4-.18.54-.18 1.05 0 1.71.91 1.71 1.87 0 1.46-1.16 2.37-2.42 2.59-.3-.01-.57-.1-.7-.17v1.2c0 .66.07.73.83.79v.31h-2.32v-.31c.64-.06.71-.12.71-.74v-4.25c0-.58-.03-.61-.65-.69v-.29zm1.43 3.28c.22.22.59.38.91.38.85 0 1.37-.71 1.37-1.75s-.6-1.61-1.27-1.61c-.33 0-.75.21-1.01.41v2.58zm6.11-3.59c1.23 0 2.11.93 2.11 2.16 0 1.57-1.17 2.3-2.12 2.3-1.34 0-2.15-1.09-2.15-2.16 0-1.51 1.18-2.3 2.16-2.3zm-1.24 2.02c0 1.22.55 2.07 1.33 2.07.58 0 1.09-.44 1.09-1.72 0-1.14-.47-2.01-1.31-2.01-.58 0-1.12.54-1.12 1.66zm6.61-.74c-.18-.58-.45-.94-1-.94-.35 0-.62.23-.62.61s.27.58.84.83c.83.37 1.26.67 1.26 1.33 0 .88-.81 1.34-1.61 1.34-.5 0-.95-.15-1.16-.27-.06-.26-.15-.86-.18-1.14l.32-.06c.19.64.54 1.11 1.18 1.11.38 0 .68-.24.68-.64 0-.42-.26-.64-.78-.88-.7-.32-1.25-.63-1.25-1.33s.58-1.25 1.52-1.25c.41 0 .75.09.95.13.04.27.12.87.16 1.08l-.31.08zm2.56 3.17c-.62 0-.96-.37-.96-1.14v-2.78h-.67l-.05-.13.27-.3h.45v-.83c.18-.18.49-.44.67-.62l.15.02c-.02.4-.03 1.03-.03 1.43h1.09c.09.1.07.34-.06.43h-1.03v2.43c0 .76.31.9.55.9.23 0 .46-.09.59-.16l.09.28-.62.33c-.18.09-.35.14-.44.14zm1.51-.11v-.3c.61-.06.68-.1.68-.76v-1.93c0-.59-.02-.64-.61-.72v-.27c.53-.09.99-.21 1.4-.38v3.3c0 .65.07.7.69.76v.3h-2.16zm1.54-5.76c0 .28-.23.53-.52.53-.28 0-.53-.25-.53-.53 0-.32.25-.55.54-.55s.51.24.51.55zm5.84 5.53c-.48.07-.99.19-1.51.34v-.73c-.52.42-.93.73-1.47.73-.65 0-1.22-.4-1.22-1.47v-1.81c0-.53-.07-.58-.33-.64l-.27-.05v-.28c.44-.02 1.03-.1 1.41-.17-.03.32-.03.81-.03 1.4v1.31c0 .83.44 1.07.87 1.07.36 0 .7-.15 1.03-.46v-2.18c0-.53-.1-.59-.43-.64l-.33-.04v-.28c.59-.03 1.22-.11 1.54-.17v3.19c0 .49.08.56.45.57h.27v.31zM357.09 168v-.3c.54-.06.59-.13.59-.75v-1.6c0-.67-.26-1.09-.85-1.09-.38 0-.74.22-1.05.49v2.22c0 .65.05.66.62.72v.3h-2.07v-.3c.63-.07.68-.11.68-.72v-1.95c0-.62-.07-.65-.58-.73v-.28c.49-.08.96-.2 1.35-.38v.75c.19-.14.4-.28.64-.44.26-.17.52-.29.79-.29.75 0 1.25.57 1.25 1.5v1.82c0 .63.06.66.62.72v.3h-1.98zm4.69-4.35c1.21 0 2.08.93 2.08 2.16 0 1.57-1.16 2.3-2.09 2.3-1.32 0-2.12-1.09-2.12-2.16 0-1.51 1.16-2.3 2.13-2.3zm-1.22 2.02c0 1.22.54 2.07 1.31 2.07.57 0 1.08-.44 1.08-1.72 0-1.14-.47-2.01-1.29-2.01-.57 0-1.1.54-1.1 1.66zm6.66 2.32v-.3c.54-.06.59-.13.59-.75v-1.6c0-.67-.26-1.09-.85-1.09-.38 0-.74.22-1.05.49v2.22c0 .65.05.66.62.72v.3h-2.07v-.3c.63-.07.68-.11.68-.72v-1.95c0-.62-.07-.65-.58-.73V164c.49-.08.96-.2 1.35-.38v.75c.19-.14.4-.28.64-.44.26-.17.52-.29.79-.29.75 0 1.25.57 1.25 1.5v1.82c0 .63.06.66.62.72v.3h-1.98zm4.96-3.06c-.18-.58-.44-.94-.98-.94-.34 0-.61.23-.61.61s.27.58.83.83c.81.37 1.24.67 1.24 1.33 0 .88-.8 1.34-1.58 1.34-.49 0-.94-.15-1.14-.27-.05-.26-.15-.86-.18-1.14l.31-.06c.18.64.53 1.11 1.16 1.11.37 0 .67-.24.67-.64 0-.42-.26-.64-.77-.88-.69-.32-1.23-.63-1.23-1.33s.58-1.25 1.5-1.25c.41 0 .74.09.93.13.04.27.12.87.16 1.08l-.31.08zm4.68 2.25c-.62.76-1.3.92-1.62.92-1.15 0-1.87-.96-1.87-2.1 0-.65.23-1.24.61-1.66.41-.46.92-.7 1.43-.7.86 0 1.49.74 1.49 1.55 0 .2-.03.29-.19.33-.27.05-1.45.12-2.56.16 0 1.22.75 1.73 1.41 1.73.4 0 .79-.17 1.13-.49l.17.25zm-1.67-3.14c-.45 0-.88.43-1 1.2.52 0 1.07 0 1.62-.03.18 0 .23-.05.23-.2 0-.5-.33-.98-.86-.98zm4.71 6.19v-.31c.76-.07.82-.11.82-.76v-1.45l-1.01.4c-1.4 0-2.08-1.13-2.08-2.06 0-1.41 1.22-2.4 2.56-2.4.31.02.59.08.7.12.13.04.17.05.26.05.06 0 .19-.04.33-.1l.04.03c0 .2-.03.39-.03 1.02v4.41c0 .64.07.67.73.75v.31h-2.32zm-.12-6.17c-.62 0-1.29.54-1.29 1.68 0 1.24.79 1.81 1.51 1.81.31 0 .54-.08.73-.17v-2.91c-.21-.26-.63-.4-.94-.4zm7.39 3.7c-.47.07-.98.19-1.49.34v-.73c-.51.42-.91.73-1.45.73-.64 0-1.2-.4-1.2-1.47v-1.81c0-.53-.07-.58-.32-.64l-.27-.05v-.28c.43-.02 1.02-.1 1.39-.17-.03.32-.03.81-.03 1.4v1.31c0 .83.43 1.07.86 1.07.35 0 .69-.15 1.02-.46v-2.18c0-.53-.1-.59-.42-.64l-.33-.04v-.28c.58-.03 1.2-.11 1.52-.17v3.19c0 .49.08.56.45.57h.27v.31zm3.55.34a.72.72 0 0 1-.44-.18.854.854 0 0 1-.23-.44c-.39.27-.85.62-1.17.62-.66 0-1.17-.57-1.17-1.21 0-.47.26-.8.79-.98.6-.2 1.32-.46 1.51-.62v-.18c0-.67-.35-1.03-.82-1.03-.21 0-.35.1-.45.21-.11.13-.17.35-.26.62-.05.16-.14.23-.29.23-.18 0-.43-.2-.43-.43 0-.14.13-.26.32-.4.27-.19.84-.55 1.39-.67.29 0 .59.09.81.27.34.29.48.64.48 1.12v1.83c0 .44.16.57.33.57.11 0 .24-.05.35-.11l.1.3-.83.48zm-.7-2.43c-.22.11-.66.3-.9.4-.33.15-.56.33-.56.69 0 .5.38.72.67.72.25 0 .57-.14.8-.35v-1.47zm7.18 2.32v-.3c.54-.06.63-.1.63-.74v-1.6c0-.68-.25-1.09-.81-1.09-.36 0-.7.2-1.05.5 0 .12.03.24.03.41v1.84c0 .59.1.64.61.69v.3h-2.06v-.3c.58-.06.68-.1.68-.72v-1.64c0-.71-.25-1.09-.8-1.09-.36 0-.73.24-1.04.5v2.23c0 .62.07.66.58.72v.3h-2.03v-.3c.63-.06.68-.1.68-.72v-1.96c0-.61-.05-.65-.57-.74v-.27c.46-.07.92-.19 1.34-.38v.77c.2-.15.39-.31.7-.5.22-.14.44-.25.75-.25.46 0 .85.28 1.05.78.26-.21.5-.37.74-.53.21-.14.48-.25.76-.25.74 0 1.21.54 1.21 1.49v1.83c0 .62.07.66.61.72v.31h-2.01zm7.83.11a.72.72 0 0 1-.44-.18.854.854 0 0 1-.23-.44c-.39.27-.85.62-1.17.62-.66 0-1.17-.57-1.17-1.21 0-.47.26-.8.79-.98.6-.2 1.32-.46 1.51-.62v-.18c0-.67-.35-1.03-.82-1.03-.21 0-.35.1-.45.21-.11.13-.17.35-.26.62-.05.16-.14.23-.29.23-.18 0-.43-.2-.43-.43 0-.14.13-.26.32-.4.27-.19.84-.55 1.39-.67.29 0 .59.09.81.27.34.29.48.64.48 1.12v1.83c0 .44.16.57.33.57.11 0 .24-.05.35-.11l.1.3-.83.48zm-.7-2.43c-.22.11-.66.3-.9.4-.33.15-.56.33-.56.69 0 .5.38.72.67.72.25 0 .57-.14.8-.35v-1.47zm5.06 2.43v-.62c-.16.1-.42.25-.59.35-.37.21-.64.27-.74.27-.77 0-1.78-.76-1.78-2.11s1.16-2.35 2.47-2.35c.12 0 .44.02.64.1v-1.3c0-.59-.07-.62-.75-.67v-.29c.45-.06 1.17-.19 1.53-.31v5.67c0 .5.08.56.43.58l.3.02v.31c-.2.04-.93.15-1.51.35zm0-3.58c-.23-.33-.62-.47-1-.47-.41 0-1.25.29-1.25 1.68 0 1.17.72 1.75 1.31 1.75.33 0 .7-.17.94-.35v-2.61zm1.95 3.46v-.3c.6-.06.67-.1.67-.76v-1.93c0-.59-.02-.64-.6-.72V164c.52-.09.98-.21 1.38-.38v3.3c0 .65.07.7.68.76v.3h-2.12zm1.51-5.76c0 .28-.23.53-.52.53-.28 0-.52-.25-.52-.53 0-.32.25-.55.53-.55s.51.24.51.55zm1.02 1.73c.44-.06.98-.23 1.41-.41v.76c.11-.06.73-.43.86-.49.19-.1.39-.18.54-.18 1.03 0 1.68.91 1.68 1.87 0 1.46-1.14 2.37-2.38 2.59-.29-.01-.56-.1-.69-.17v1.2c0 .66.07.73.81.79v.31h-2.28v-.31c.63-.06.7-.12.7-.74v-4.25c0-.58-.03-.61-.63-.69v-.29zm1.41 3.28c.21.22.58.38.9.38.83 0 1.35-.71 1.35-1.75s-.59-1.61-1.25-1.61c-.33 0-.74.21-.99.41v2.58zm3.72.75v-.3c.6-.06.67-.1.67-.76v-1.93c0-.59-.02-.64-.6-.72V164c.52-.09.98-.21 1.38-.38v3.3c0 .65.07.7.68.76v.3h-2.12zm1.51-5.76c0 .28-.23.53-.52.53-.28 0-.52-.25-.52-.53 0-.32.25-.55.53-.55s.51.24.51.55zm-63.02 17.89c-.15 0-.35-.08-.45-.18a.954.954 0 0 1-.24-.44c-.39.27-.87.62-1.19.62-.68 0-1.19-.57-1.19-1.21 0-.47.26-.8.8-.98.61-.2 1.34-.46 1.54-.62v-.18c0-.67-.35-1.03-.84-1.03-.22 0-.36.1-.46.21-.11.13-.17.35-.26.62-.05.16-.14.23-.3.23-.19 0-.44-.2-.44-.43 0-.14.13-.26.32-.4.28-.19.86-.55 1.41-.67.29 0 .6.09.83.27.35.29.49.64.49 1.12v1.83c0 .44.16.57.34.57.11 0 .24-.05.36-.11l.11.3-.85.48zm-.71-2.43c-.22.11-.67.3-.92.4-.34.15-.57.33-.57.69 0 .5.39.72.68.72.26 0 .58-.14.81-.35v-1.47zm3.95-1.92c.18-.08.36-.11.47-.11 1.04 0 1.91.9 1.91 2.04 0 1.35-1.14 2.43-2.42 2.43-.42 0-.95-.1-1.48-.35v-5.28c0-.58-.04-.64-.66-.69v-.29a7.38 7.38 0 0 0 1.45-.32v2.88l.73-.31zm-.73 3.12c0 .15.02.24.05.33.1.21.48.49.95.49.78 0 1.24-.67 1.24-1.76s-.68-1.73-1.45-1.73c-.29 0-.61.09-.8.18v2.48zm6.09-3.22c1.23 0 2.12.93 2.12 2.16 0 1.57-1.18 2.3-2.13 2.3-1.34 0-2.16-1.09-2.16-2.16 0-1.51 1.18-2.3 2.17-2.3zm-1.24 2.02c0 1.22.55 2.07 1.34 2.07.58 0 1.1-.44 1.1-1.72 0-1.14-.48-2.01-1.31-2.01-.58 0-1.12.54-1.12 1.66zm6.28 2.32h-2.25v-.3c.62-.06.67-.1.67-.72v-1.97c0-.62-.04-.65-.6-.72v-.27c.49-.08.93-.19 1.38-.38v1.05c.36-.53.77-1.03 1.23-1.03.36 0 .57.23.57.47s-.16.46-.34.55c-.1.06-.18.04-.25-.02-.15-.14-.27-.23-.44-.23-.21 0-.58.31-.77.82v1.73c0 .62.04.67.8.73v.3zm3.69 0h-2.25v-.3c.62-.06.67-.1.67-.72v-1.97c0-.62-.04-.65-.6-.72v-.27c.49-.08.93-.19 1.38-.38v1.05c.36-.53.77-1.03 1.23-1.03.36 0 .57.23.57.47s-.16.46-.34.55c-.1.06-.18.04-.25-.02-.15-.14-.27-.23-.44-.23-.21 0-.58.31-.77.82v1.73c0 .62.04.67.8.73v.3zm3.59-4.35c1.23 0 2.12.93 2.12 2.16 0 1.57-1.18 2.3-2.13 2.3-1.34 0-2.16-1.09-2.16-2.16 0-1.51 1.18-2.3 2.17-2.3zm-1.24 2.02c0 1.22.55 2.07 1.34 2.07.58 0 1.1-.44 1.1-1.72 0-1.14-.48-2.01-1.31-2.01-.58 0-1.12.54-1.12 1.66zm7.83 2.44c-.62 0-.96-.37-.96-1.14v-2.78h-.67l-.05-.13.27-.3h.45v-.83c.18-.18.49-.44.67-.62l.15.02c-.02.4-.03 1.03-.03 1.43h1.1c.09.1.07.34-.06.43h-1.03v2.43c0 .76.31.9.55.9.23 0 .46-.09.59-.16l.09.28-.62.33c-.18.09-.35.14-.44.14zm4.95-.92c-.64.76-1.32.92-1.65.92-1.17 0-1.91-.96-1.91-2.1 0-.65.24-1.24.62-1.66.41-.46.93-.7 1.46-.7.88 0 1.52.74 1.52 1.55 0 .2-.04.29-.2.33-.27.05-1.47.12-2.61.16 0 1.22.76 1.73 1.43 1.73.41 0 .8-.17 1.16-.49l.17.25zm-1.7-3.14c-.46 0-.89.43-1.01 1.2.53 0 1.09 0 1.65-.03.19 0 .24-.05.24-.2 0-.5-.34-.98-.88-.98zm7.86 4.07v-.62l-.6.35c-.37.21-.65.27-.75.27-.78 0-1.82-.76-1.82-2.11s1.18-2.35 2.52-2.35c.12 0 .45.02.65.1v-1.3c0-.59-.07-.62-.76-.67v-.29c.46-.06 1.19-.19 1.55-.31v5.67c0 .5.08.56.44.58l.31.02v.31c-.2.04-.95.15-1.53.35zm0-3.58c-.23-.33-.63-.47-1.01-.47-.42 0-1.27.29-1.27 1.68 0 1.17.73 1.75 1.33 1.75.33 0 .72-.17.95-.35v-2.61zm4.22-.88c1.23 0 2.12.93 2.12 2.16 0 1.57-1.18 2.3-2.13 2.3-1.34 0-2.16-1.09-2.16-2.16 0-1.51 1.18-2.3 2.17-2.3zm-1.24 2.02c0 1.22.55 2.07 1.34 2.07.58 0 1.1-.44 1.1-1.72 0-1.14-.48-2.01-1.31-2.01-.58 0-1.12.54-1.12 1.66zm3.94 2.02c.62-.06.7-.11.7-.73v-4.47c0-.59-.05-.64-.67-.7v-.29c.53-.05 1.14-.21 1.46-.32v5.79c0 .62.07.67.71.73v.3h-2.19v-.3zm4.93-4.04c1.23 0 2.12.93 2.12 2.16 0 1.57-1.18 2.3-2.13 2.3-1.34 0-2.16-1.09-2.16-2.16 0-1.51 1.18-2.3 2.17-2.3zm-1.24 2.02c0 1.22.55 2.07 1.34 2.07.58 0 1.1-.44 1.1-1.72 0-1.14-.48-2.01-1.31-2.01-.58 0-1.12.54-1.12 1.66zM413 180h-2.25v-.3c.61-.06.67-.1.67-.72v-1.97c0-.62-.04-.65-.6-.72v-.27c.49-.08.93-.19 1.38-.38v1.05c.36-.53.77-1.03 1.23-1.03.36 0 .57.23.57.47s-.16.46-.34.55c-.1.06-.18.04-.25-.02-.15-.14-.27-.23-.44-.23-.21 0-.58.31-.77.82v1.73c0 .62.04.67.8.73v.3zm4.97-.81c-.64.76-1.32.92-1.65.92-1.17 0-1.91-.96-1.91-2.1 0-.65.24-1.24.62-1.66.41-.46.93-.7 1.46-.7.88 0 1.52.74 1.52 1.55 0 .2-.04.29-.2.33-.27.05-1.47.12-2.61.16 0 1.22.76 1.73 1.43 1.73.41 0 .8-.17 1.16-.49l.17.25zm-1.7-3.14c-.46 0-.9.43-1.01 1.2.53 0 1.09 0 1.65-.03.19 0 .24-.05.24-.2 0-.5-.34-.98-.88-.98zm4.64 3.95h-2.25v-.3c.61-.06.67-.1.67-.72v-1.97c0-.62-.04-.65-.6-.72v-.27c.49-.08.93-.19 1.38-.38v1.05c.36-.53.77-1.03 1.23-1.03.36 0 .57.23.57.47s-.16.46-.34.55c-.1.06-.18.04-.25-.02-.15-.14-.27-.23-.44-.23-.21 0-.58.31-.77.82v1.73c0 .62.04.67.8.73v.3zm-62.83 11.19c-.66.76-1.37.92-1.7.92-1.22 0-1.97-.96-1.97-2.1 0-.65.24-1.24.64-1.66.43-.46.97-.7 1.51-.7.91 0 1.57.74 1.57 1.55 0 .2-.04.29-.2.33-.28.05-1.53.12-2.7.16 0 1.22.79 1.73 1.48 1.73.42 0 .83-.17 1.2-.49l.17.25zm-1.76-3.14c-.48 0-.93.43-1.05 1.2.54 0 1.13 0 1.71-.03.19 0 .25-.05.25-.2 0-.5-.35-.98-.91-.98zm4.15 4.07c-.64 0-1-.37-1-1.14v-2.78h-.69l-.05-.13.28-.3h.46v-.83c.19-.18.5-.44.69-.62l.16.02c-.02.4-.03 1.03-.03 1.43h1.13c.1.1.07.34-.06.43h-1.07v2.43c0 .76.32.9.57.9.24 0 .48-.09.61-.16l.1.28-.65.33c-.18.09-.36.14-.46.14zm6.54-4.46c1.27 0 2.19.93 2.19 2.16 0 1.57-1.22 2.3-2.2 2.3-1.39 0-2.23-1.09-2.23-2.16 0-1.51 1.22-2.3 2.24-2.3zm-1.28 2.02c0 1.22.57 2.07 1.38 2.07.6 0 1.14-.44 1.14-1.72 0-1.14-.49-2.01-1.36-2.01-.6 0-1.16.54-1.16 1.66zm7.67 2.44v-.62c-.17.1-.45.25-.62.35-.39.21-.67.27-.78.27-.81 0-1.88-.76-1.88-2.11s1.22-2.35 2.6-2.35c.13 0 .46.02.68.1v-1.3c0-.59-.07-.62-.79-.67v-.29c.48-.06 1.24-.19 1.61-.31v5.67c0 .5.08.56.45.58l.32.02v.31c-.21.04-.98.15-1.59.35zm0-3.58c-.24-.33-.65-.47-1.05-.47-.44 0-1.32.29-1.32 1.68 0 1.17.76 1.75 1.38 1.75.34 0 .74-.17.99-.35v-2.61zm2.19 3.46v-.3c.63-.06.7-.1.7-.76v-1.93c0-.59-.02-.64-.64-.72v-.27c.55-.09 1.03-.21 1.45-.38v3.3c0 .65.07.7.72.76v.3h-2.24zm1.59-5.76c0 .28-.24.53-.54.53-.29 0-.55-.25-.55-.53 0-.32.26-.55.56-.55s.53.24.53.55zm7.15 5.87c-.15 0-.36-.08-.46-.18a.89.89 0 0 1-.25-.44c-.41.27-.9.62-1.23.62-.7 0-1.23-.57-1.23-1.21 0-.47.27-.8.83-.98.63-.2 1.39-.46 1.6-.62v-.18c0-.67-.37-1.03-.86-1.03-.22 0-.37.1-.48.21-.12.13-.18.35-.27.62-.05.16-.15.23-.31.23-.19 0-.45-.2-.45-.43 0-.14.13-.26.33-.4.28-.19.89-.55 1.46-.67.3 0 .62.09.86.27.36.29.51.64.51 1.12v1.83c0 .44.17.57.35.57.11 0 .25-.05.37-.11l.11.3-.88.48zm-.74-2.43c-.23.11-.7.3-.95.4-.35.15-.59.33-.59.69 0 .5.4.72.7.72.27 0 .6-.14.84-.35v-1.47zm4.17-1.92c.18-.08.37-.11.49-.11 1.08 0 1.98.9 1.98 2.04 0 1.35-1.18 2.43-2.51 2.43-.43 0-.98-.1-1.54-.35v-5.28c0-.58-.04-.64-.68-.69v-.29c.47-.05 1.13-.19 1.5-.32v2.88l.76-.31zm-.76 3.12c0 .15.02.24.06.33.1.21.49.49.98.49.8 0 1.29-.67 1.29-1.76s-.7-1.73-1.5-1.73c-.3 0-.63.09-.83.18v2.48zm6.39-3.22c1.27 0 2.19.93 2.19 2.16 0 1.57-1.22 2.3-2.2 2.3-1.39 0-2.23-1.09-2.23-2.16 0-1.51 1.22-2.3 2.24-2.3zm-1.28 2.02c0 1.22.57 2.07 1.38 2.07.6 0 1.14-.44 1.14-1.72 0-1.14-.49-2.01-1.36-2.01-.6 0-1.16.54-1.16 1.66zm6.58 2.32h-2.33v-.3c.64-.06.69-.1.69-.72v-1.97c0-.62-.04-.65-.62-.72v-.27c.51-.08.96-.19 1.43-.38v1.05c.37-.53.79-1.03 1.28-1.03.38 0 .59.23.59.47s-.17.46-.35.55c-.1.06-.18.04-.26-.02-.15-.14-.28-.23-.46-.23-.22 0-.6.31-.8.82v1.73c0 .62.04.67.82.73v.3zm5.23-.81c-.66.76-1.37.92-1.7.92-1.22 0-1.97-.96-1.97-2.1 0-.65.24-1.24.64-1.66.43-.46.97-.7 1.51-.7.91 0 1.57.74 1.57 1.55 0 .2-.04.29-.2.33-.28.05-1.53.12-2.7.16 0 1.22.79 1.73 1.48 1.73.42 0 .83-.17 1.2-.49l.17.25zm-1.76-3.14c-.48 0-.93.43-1.05 1.2.54 0 1.13 0 1.71-.03.19 0 .25-.05.25-.2 0-.5-.35-.98-.91-.98zm8.09 3.95v-.3c.57-.06.66-.1.66-.74v-1.6c0-.68-.27-1.09-.86-1.09-.38 0-.74.2-1.11.5 0 .12.03.24.03.41v1.84c0 .59.1.64.65.69v.3h-2.17v-.3c.62-.06.71-.1.71-.72v-1.64c0-.71-.26-1.09-.84-1.09-.38 0-.77.24-1.1.5v2.23c0 .62.08.66.61.72v.3h-2.14v-.3c.66-.06.71-.1.71-.72v-1.96c0-.61-.05-.65-.6-.74v-.27c.48-.07.97-.19 1.42-.38v.77c.21-.15.41-.31.74-.5.24-.14.46-.25.79-.25.48 0 .9.28 1.1.78.28-.21.53-.37.78-.53.23-.14.5-.25.81-.25.78 0 1.28.54 1.28 1.49v1.83c0 .62.07.66.65.72v.31h-2.12zm2.72-4.03c.46-.06 1.03-.23 1.48-.41v.76c.11-.06.77-.43.9-.49.2-.1.42-.18.56-.18 1.08 0 1.77.91 1.77 1.87 0 1.46-1.2 2.37-2.5 2.59-.31-.01-.59-.1-.73-.17v1.2c0 .66.07.73.86.79v.31h-2.41v-.31c.66-.06.74-.12.74-.74v-4.25c0-.58-.03-.61-.67-.69v-.29zm1.48 3.28c.23.22.61.38.95.38.88 0 1.42-.71 1.42-1.75s-.62-1.61-1.32-1.61c-.34 0-.78.21-1.05.41v2.58zm6.41-3.59c1.27 0 2.19.93 2.19 2.16 0 1.57-1.22 2.3-2.2 2.3-1.39 0-2.23-1.09-2.23-2.16 0-1.51 1.22-2.3 2.24-2.3zm-1.28 2.02c0 1.22.57 2.07 1.38 2.07.6 0 1.13-.44 1.13-1.72 0-1.14-.49-2.01-1.36-2.01-.6 0-1.16.54-1.16 1.66zM354.34 204v-.3c.62-.06.69-.1.69-.76v-1.93c0-.59-.02-.64-.63-.72v-.27c.54-.09 1.02-.21 1.43-.38v3.3c0 .65.07.7.71.76v.3h-2.21zm1.57-5.76c0 .28-.23.53-.54.53a.55.55 0 0 1-.54-.53c0-.32.26-.55.55-.55s.53.24.53.55zm6.7 5.76v-.3c.57-.06.65-.1.65-.74v-1.6c0-.68-.26-1.09-.84-1.09-.38 0-.72.2-1.1.5 0 .12.03.24.03.41v1.84c0 .59.1.64.64.69v.3h-2.14v-.3c.61-.06.7-.1.7-.72v-1.64c0-.71-.26-1.09-.83-1.09-.38 0-.76.24-1.08.5v2.23c0 .62.08.66.6.72v.3h-2.11v-.3c.65-.06.7-.1.7-.72v-1.96c0-.61-.05-.65-.6-.74v-.27c.48-.07.95-.19 1.4-.38v.77c.2-.15.41-.31.73-.5.23-.14.46-.25.78-.25.48 0 .89.28 1.09.78.27-.21.52-.37.77-.53.22-.14.5-.25.79-.25.77 0 1.26.54 1.26 1.49v1.83c0 .62.07.66.64.72v.31h-2.09zm7.53-.22c-.49.07-1.02.19-1.55.34v-.73c-.53.42-.95.73-1.5.73-.66 0-1.24-.4-1.24-1.47v-1.81c0-.53-.07-.58-.34-.64l-.28-.05v-.28c.45-.02 1.06-.1 1.45-.17-.03.32-.03.81-.03 1.4v1.31c0 .83.45 1.07.89 1.07.36 0 .71-.15 1.06-.46v-2.18c0-.53-.1-.59-.44-.64l-.34-.04v-.28c.6-.03 1.25-.11 1.58-.17v3.19c0 .49.08.56.46.57h.28v.31zm3.13-2.84c-.19-.58-.46-.94-1.02-.94-.36 0-.63.23-.63.61s.28.58.86.83c.84.37 1.29.67 1.29 1.33 0 .88-.83 1.34-1.64 1.34-.51 0-.98-.15-1.18-.27-.06-.26-.16-.86-.19-1.14l.32-.06c.19.64.55 1.11 1.2 1.11.39 0 .7-.24.7-.64 0-.42-.27-.64-.8-.88-.71-.32-1.28-.63-1.28-1.33s.6-1.25 1.56-1.25c.42 0 .77.09.97.13.04.27.12.87.17 1.08l-.32.08zm9.24 3.06v-.3c.57-.06.65-.1.65-.74v-1.6c0-.68-.26-1.09-.84-1.09-.38 0-.72.2-1.1.5 0 .12.03.24.03.41v1.84c0 .59.1.64.64.69v.3h-2.14v-.3c.61-.06.7-.1.7-.72v-1.64c0-.71-.26-1.09-.83-1.09-.38 0-.76.24-1.08.5v2.23c0 .62.08.66.6.72v.3h-2.11v-.3c.65-.06.7-.1.7-.72v-1.96c0-.61-.05-.65-.6-.74v-.27c.48-.07.95-.19 1.4-.38v.77c.2-.15.41-.31.73-.5.23-.14.46-.25.78-.25.48 0 .89.28 1.09.78.27-.21.52-.37.77-.53.22-.14.5-.25.79-.25.77 0 1.26.54 1.26 1.49v1.83c0 .62.07.66.64.72v.31h-2.09zm5.95.11c-.15 0-.36-.08-.46-.18a.871.871 0 0 1-.24-.44c-.4.27-.89.62-1.21.62-.69 0-1.21-.57-1.21-1.21 0-.47.27-.8.82-.98.62-.2 1.37-.46 1.57-.62v-.18c0-.67-.36-1.03-.85-1.03-.22 0-.37.1-.47.21-.12.13-.18.35-.27.62-.05.16-.15.23-.3.23-.19 0-.45-.2-.45-.43 0-.14.13-.26.33-.4.28-.19.87-.55 1.44-.67.3 0 .61.09.85.27.35.29.5.64.5 1.12v1.83c0 .44.16.57.34.57.11 0 .25-.05.36-.11l.11.3-.87.48zm-.73-2.43c-.22.11-.69.3-.94.4-.35.15-.58.33-.58.69 0 .5.39.72.69.72.26 0 .59-.14.83-.35v-1.47zm2.1 2.32v-.3c.62-.06.69-.1.69-.76v-1.93c0-.59-.02-.64-.63-.72v-.27c.54-.09 1.02-.21 1.43-.38v3.3c0 .65.07.7.71.76v.3h-2.21zm1.57-5.76c0 .28-.23.53-.54.53a.55.55 0 0 1-.54-.53c0-.32.26-.55.55-.55s.53.24.53.55zm3.47 1.41c1.25 0 2.16.93 2.16 2.16 0 1.57-1.2 2.3-2.17 2.3-1.37 0-2.2-1.09-2.2-2.16 0-1.51 1.2-2.3 2.21-2.3zm-1.27 2.02c0 1.22.57 2.07 1.36 2.07.59 0 1.12-.44 1.12-1.72 0-1.14-.49-2.01-1.34-2.01-.59 0-1.14.54-1.14 1.66zm10.43 1.51c-.65.76-1.35.92-1.68.92-1.2 0-1.95-.96-1.95-2.1 0-.65.24-1.24.63-1.66.42-.46.95-.7 1.49-.7.9 0 1.55.74 1.55 1.55 0 .2-.04.29-.2.33-.28.05-1.5.12-2.66.16 0 1.22.78 1.73 1.46 1.73.42 0 .82-.17 1.18-.49l.17.25zm-1.73-3.14c-.47 0-.91.43-1.03 1.2.54 0 1.11 0 1.69-.03.19 0 .24-.05.24-.2 0-.5-.34-.98-.9-.98zm5.72 4.07c-.15 0-.36-.08-.46-.18a.871.871 0 0 1-.24-.44c-.4.27-.89.62-1.21.62-.69 0-1.21-.57-1.21-1.21 0-.47.27-.8.82-.98.62-.2 1.37-.46 1.57-.62v-.18c0-.67-.36-1.03-.85-1.03-.22 0-.37.1-.47.21-.12.13-.18.35-.27.62-.05.16-.15.23-.3.23-.19 0-.45-.2-.45-.43 0-.14.13-.26.33-.4.28-.19.87-.55 1.44-.67.3 0 .61.09.85.27.35.29.5.64.5 1.12v1.83c0 .44.16.57.34.57.11 0 .25-.05.36-.11l.11.3-.87.48zm-.73-2.43c-.22.11-.69.3-.94.4-.35.15-.58.33-.58.69 0 .5.39.72.69.72.26 0 .59-.14.83-.35v-1.47zm3.56 2.43c-.63 0-.98-.37-.98-1.14v-2.78h-.68l-.05-.13.27-.3h.46v-.83c.19-.18.5-.44.68-.62l.15.02c-.02.4-.03 1.03-.03 1.43h1.12c.1.1.07.34-.06.43h-1.06v2.43c0 .76.32.9.56.9.23 0 .47-.09.61-.16l.1.28-.64.33c-.18.09-.35.14-.45.14zm1.6-.11v-.3c.62-.06.69-.1.69-.76v-1.93c0-.59-.02-.64-.63-.72v-.27c.54-.09 1.02-.21 1.43-.38v3.3c0 .65.07.7.71.76v.3h-2.21zm1.57-5.76c0 .28-.23.53-.54.53a.55.55 0 0 1-.54-.53c0-.32.26-.55.55-.55s.53.24.53.55zm1.24 5.76v-.3c.62-.06.69-.1.69-.76v-1.93c0-.59-.02-.64-.63-.72v-.27c.54-.09 1.02-.21 1.43-.38v3.3c0 .65.07.7.71.76v.3h-2.21zm1.57-5.76c0 .28-.23.53-.54.53a.55.55 0 0 1-.54-.53c0-.32.26-.55.55-.55s.53.24.53.55zm3.79 2.7c-.19-.58-.46-.94-1.02-.94-.36 0-.63.23-.63.61s.28.58.86.83c.84.37 1.29.67 1.29 1.33 0 .88-.83 1.34-1.64 1.34-.51 0-.98-.15-1.18-.27-.06-.26-.16-.86-.19-1.14l.32-.06c.19.64.55 1.11 1.2 1.11.39 0 .7-.24.7-.64 0-.42-.27-.64-.8-.88-.71-.32-1.28-.63-1.28-1.33s.6-1.25 1.56-1.25c.42 0 .77.09.97.13.04.27.12.87.17 1.08l-.32.08z" class="cls-2"/><path d="M60.2 64.35v-1.79h7.27v1.79h-2.58V72h-2.13v-7.65h-2.55zm10.53-1.79v3.63h3.52v-3.63h2.13V72h-2.13v-3.95h-3.52V72H68.6v-9.44h2.13zm9.65 0V72h-2.13v-9.44h2.13zm4.29 7.83c.98 0 1.5-.41 1.5-1.03 0-.58-.45-.92-1.58-1.32-1.58-.56-2.6-1.42-2.6-2.8 0-1.61 1.35-2.83 3.57-2.83 1.08 0 1.85.21 2.41.48l-.47 1.71c-.37-.18-1.05-.45-1.97-.45s-1.37.43-1.37.91c0 .6.52.86 1.75 1.33 1.67.62 2.45 1.49 2.45 2.83 0 1.58-1.21 2.93-3.81 2.93-1.07 0-2.14-.29-2.67-.59l.43-1.76c.57.3 1.45.59 2.37.59zm10.09-7.83V72h-2.13v-9.44h2.13zm4.29 7.83c.98 0 1.5-.41 1.5-1.03 0-.58-.45-.92-1.58-1.32-1.58-.56-2.6-1.42-2.6-2.8 0-1.61 1.35-2.83 3.57-2.83 1.08 0 1.85.21 2.41.48l-.47 1.71c-.37-.18-1.05-.45-1.97-.45s-1.37.43-1.37.91c0 .6.52.86 1.75 1.33 1.67.62 2.45 1.49 2.45 2.83 0 1.58-1.21 2.93-3.81 2.93-1.07 0-2.14-.29-2.67-.59l.43-1.76c.57.3 1.45.59 2.37.59zm10.14-.81l-.67 2.42h-2.21l2.88-9.44h2.79l2.94 9.44h-2.3l-.73-2.42h-2.71zm2.4-1.59l-.59-2.01c-.16-.56-.33-1.27-.47-1.82h-.03c-.14.56-.28 1.27-.43 1.82l-.56 2h2.09zm9.86 2.4c.98 0 1.5-.41 1.5-1.03 0-.58-.45-.92-1.58-1.32-1.58-.56-2.6-1.42-2.6-2.8 0-1.61 1.35-2.83 3.57-2.83 1.08 0 1.85.21 2.41.48l-.47 1.71c-.37-.18-1.05-.45-1.97-.45s-1.37.43-1.37.91c0 .6.52.86 1.75 1.33 1.67.62 2.45 1.49 2.45 2.83 0 1.58-1.21 2.93-3.81 2.93-1.07 0-2.14-.29-2.67-.59l.43-1.76c.57.3 1.45.59 2.37.59zm4.4-6.04v-1.79h7.27v1.79h-2.58V72h-2.13v-7.65h-2.55zm11.23-1.87c1.4 0 2.38.21 3.06.75.56.45.87 1.11.87 1.98 0 1.2-.86 2.03-1.67 2.32v.04c.65.26 1.02.89 1.26 1.76.29 1.07.58 2.3.76 2.66h-2.19c-.15-.27-.38-1.03-.65-2.2-.26-1.18-.66-1.5-1.54-1.51h-.63v3.71h-2.12v-9.31c.69-.12 1.7-.2 2.84-.2zm-.72 4.26h.84c1.06 0 1.69-.54 1.69-1.36 0-.86-.59-1.31-1.57-1.31-.51 0-.81.03-.96.07v2.6zm8.5 2.83l-.67 2.42h-2.21l2.88-9.44h2.79l2.94 9.44h-2.3l-.73-2.42h-2.71zm2.4-1.59l-.59-2.01c-.16-.56-.33-1.27-.47-1.82h-.03c-.14.56-.28 1.27-.43 1.82l-.56 2h2.09zm7.48-5.5c1.31 0 2.26.25 2.89.76.6.47 1 1.26 1 2.18s-.3 1.71-.86 2.24c-.73.69-1.82 1-3.07 1-.28 0-.54-.02-.73-.05v3.38h-2.12v-9.32c.66-.11 1.58-.2 2.88-.2zm-.06 4.54c1.13 0 1.83-.57 1.83-1.53 0-.87-.59-1.39-1.67-1.39-.42 0-.72.03-.87.07v2.79c.18.04.4.06.71.06zm5.31-4.46h2.13v7.65h3.76V72h-5.89v-9.44zm9.29 0V72h-2.13v-9.44h2.13zm1.86 9.44v-9.44h2.49l1.96 3.46c.57.99 1.12 2.17 1.54 3.24h.04c-.13-1.25-.17-2.52-.17-3.95v-2.75h1.96V72h-2.24l-2.02-3.64c-.56-1.02-1.18-2.23-1.64-3.34h-.05c.07 1.26.09 2.59.09 4.13v2.84h-1.96zm15.27-3.99h-3.47v2.25h3.88v1.75h-6.02v-9.44h5.82v1.75h-3.68v1.97h3.47v1.73z" class="cls-3"/><path d="M68.37 82.64h-8.79v-1.6h19.48v1.6h-8.79V108h-1.9V82.64zm13.3-3.04h1.9v12.63h.08c.55-1.07 1.48-2.1 2.62-2.77 1.1-.68 2.41-1.1 3.87-1.1 1.82 0 6.67.91 6.67 8.06V108h-1.9V96.63c0-3.46-1.36-6.61-5.29-6.61-2.72 0-4.97 1.96-5.79 4.35-.2.57-.26 1.11-.26 1.89V108h-1.9V79.6zm23.93 3.71c0 .89-.59 1.66-1.6 1.66-.87 0-1.48-.77-1.48-1.66s.67-1.66 1.55-1.66 1.53.75 1.53 1.66zM103.11 108V88.8h1.9V108h-1.9zm7.57-2.52c1.03.65 2.58 1.33 4.32 1.33 3.02 0 4.46-1.66 4.46-3.66 0-2.11-1.27-3.24-4.04-4.33-3.14-1.22-4.87-2.93-4.87-5.26 0-2.77 2.18-5.2 5.91-5.2 1.77 0 3.26.53 4.26 1.22l-.76 1.55c-.66-.47-1.9-1.16-3.8-1.16-2.44 0-3.74 1.57-3.74 3.32 0 2.01 1.36 2.86 3.98 3.94 3.1 1.23 4.94 2.77 4.94 5.68 0 3.29-2.55 5.51-6.48 5.51-1.85 0-3.6-.53-4.88-1.33l.7-1.61zm26.96-22.17c0 .89-.59 1.66-1.6 1.66-.87 0-1.48-.77-1.48-1.66s.67-1.66 1.55-1.66 1.53.75 1.53 1.66zM135.15 108V88.8h1.9V108h-1.9zm7.57-2.52c1.03.65 2.58 1.33 4.32 1.33 3.02 0 4.46-1.66 4.46-3.66 0-2.11-1.27-3.24-4.04-4.33-3.14-1.22-4.87-2.93-4.87-5.26 0-2.77 2.18-5.2 5.91-5.2 1.77 0 3.26.53 4.26 1.22l-.76 1.55c-.66-.47-1.9-1.16-3.8-1.16-2.44 0-3.74 1.57-3.74 3.32 0 2.01 1.36 2.86 3.98 3.94 3.1 1.23 4.94 2.77 4.94 5.68 0 3.29-2.55 5.51-6.48 5.51-1.85 0-3.6-.53-4.88-1.33l.7-1.61zm27.11-22.24v5.56h5.47v1.54h-5.47v12.48c0 2.44.76 3.97 2.82 3.97.99 0 1.69-.13 2.18-.3l.23 1.47c-.62.26-1.49.46-2.65.46-1.4 0-2.56-.44-3.31-1.36-.87-1.01-1.17-2.62-1.17-4.58V90.34h-3.24V88.8h3.24v-4.94l1.9-.62zm9.72-3.64h1.9v12.63h.08c.55-1.07 1.48-2.1 2.62-2.77 1.1-.68 2.41-1.1 3.87-1.1 1.82 0 6.67.91 6.67 8.06V108h-1.9V96.63c0-3.46-1.36-6.61-5.29-6.61-2.72 0-4.97 1.96-5.79 4.35-.2.57-.26 1.11-.26 1.89V108h-1.9V79.6zm21.73 18.62c0 6.13 3.34 8.56 7.3 8.56 2.8 0 4.25-.56 5.34-1.09l.49 1.5c-.74.4-2.71 1.23-6.06 1.23-5.52 0-8.95-4.02-8.95-9.64 0-6.41 3.67-10.42 8.63-10.42 6.29 0 7.48 5.91 7.48 8.68 0 .54 0 .84-.06 1.18h-14.17zm12.24-1.52c.05-2.68-1.07-6.76-5.74-6.76-4.22 0-6.05 3.8-6.4 6.76h12.14zm17.56-15.66V92.9h14.87V81.04h1.9V108h-1.9V94.51h-14.87V108h-1.9V81.04h1.9zm29.48 2.9h-.08l-4.25 2.49-.47-1.51 4.93-2.92h1.73v26h-1.86V83.94zm25.53-1.3h-8.79v-1.6h19.48v1.6h-8.79V108h-1.9V82.64zm14.83.67c0 .89-.59 1.66-1.6 1.66-.87 0-1.48-.77-1.48-1.66s.67-1.66 1.55-1.66 1.53.75 1.53 1.66zM298.43 108V88.8h1.9V108h-1.9zm11-24.76v5.56h5.47v1.54h-5.47v12.48c0 2.44.76 3.97 2.82 3.97.99 0 1.69-.13 2.18-.3l.23 1.47c-.62.26-1.49.46-2.65.46-1.4 0-2.56-.44-3.31-1.36-.87-1.01-1.17-2.62-1.17-4.58V90.34h-3.24V88.8h3.24v-4.94l1.9-.62zm9.72-3.64h1.9V108h-1.9V79.6zm8.77 18.62c0 6.13 3.34 8.56 7.3 8.56 2.8 0 4.25-.56 5.34-1.09l.49 1.5c-.74.4-2.71 1.23-6.06 1.23-5.52 0-8.95-4.02-8.95-9.64 0-6.41 3.67-10.42 8.63-10.42 6.29 0 7.48 5.91 7.48 8.68 0 .54 0 .84-.06 1.18h-14.17zm12.24-1.52c.05-2.68-1.07-6.76-5.74-6.76-4.22 0-6.05 3.8-6.4 6.76h12.14z" class="cls-1"/><path d="M60 0v213M132 0v213M144 0v213M0 144h422.1M0 132h422.1M216 0v213M228 0v213M300 0v213M312 0v213M384 0v213M396 0v213" class="cls-4"/></svg>