<?xml version="1.0" encoding="UTF-8"?><svg id="a" xmlns="http://www.w3.org/2000/svg" viewBox="0 0 260 260"><defs><style>.b{fill:#b3b3b3;}.c{fill:#2997ff;}.d{stroke-linecap:round;stroke-linejoin:round;}.d,.e{fill:none;stroke:#2997ff;stroke-width:2px;}.e{stroke-miterlimit:10;}</style></defs><path class="b" d="M116.49,169.32c2.13-.27,5.71-.8,7.71-1.06,3.72-.66,5.32-1.46,5.72-4.25,.4-2.13,1.2-11.03,1.2-30.7v-13.42c0-24.32-.13-29.11-.67-29.11h-12.23c-12.76,0-17.68,2.26-18.61,2.79-1.73,1.2-2.66,3.59-4.39,8.64-.13,.4-.53,.53-1.06,.27-.93-.53-3.06-2.39-3.32-2.66,1.99-3.72,4.52-9.44,7.31-19.01,.53-.13,1.46,0,2.53,.4,.93,.13,1.06,.27,1.2,.8-.13,2.26,.13,3.32,1.06,3.59,1.06,.27,3.06,.4,6.11,.4,4.12,.13,9.3,.13,21.67,.13,14.36,0,26.05,0,34.16-.27,4.12-.13,6.38-.4,7.71-.8,.8-.27,1.33-1.2,2.26-3.85,0-.4,.13-.4,.53-.4,.53,0,2.53,.66,3.46,1.33,.13,.13,.13,.66-.13,1.59-2.66,6.78-2.79,9.97-3.46,17.54,0,.67-.4,1.06-1.46,1.06-.53,0-1.6-.13-2.26-.27-.4-.13-.53-.4-.53-.67,0-1.2,.27-5.71,.27-6.78,0-.8-.53-1.99-2.13-2.39-1.2-.53-7.31-1.46-16.75-1.46h-9.84c-1.06,0-1.33,.8-1.46,3.72-.13,2.13-.53,8.64-.53,26.58v13.29c0,19.67,.4,25.12,.93,27.65,.4,2.26,1.2,3.86,2.79,4.65,2.53,1.46,8.51,2.26,11.56,2.53,.67,0,.8,.13,.8,.27l-.53,2.66c-.13,.53-.27,.8-.93,.8-.8,0-12.89-.4-19.41-.4-5.98,0-16.08,.53-17.15,.53-1.2,0-1.59-.4-1.73-1.06l-.4-2.66Z"/><line class="d" x1="118.54" y1="89.85" x2="118.54" y2="118.93"/><line class="d" x1="150.31" y1="89.85" x2="118.54" y2="118.93"/><circle class="e" cx="99.81" cy="81.99" r="7.86"/><line class="d" x1="91.95" y1="68.85" x2="91.95" y2="82.13"/><g><path class="c" d="M99.99,53.11l-1.17,1.35c-.9-.74-1.76-1.06-2.79-1.06-1.12,0-1.93,.5-1.93,1.48,0,.9,.49,1.3,2.56,1.94,2.18,.68,3.69,1.58,3.69,3.93s-1.75,3.82-4.72,3.82c-1.98,0-3.46-.7-4.48-1.71l1.22-1.37c.92,.77,1.91,1.24,3.21,1.24s2.29-.65,2.29-1.85c0-1.04-.52-1.51-2.47-2.11-2.61-.81-3.75-1.85-3.75-3.75,0-2.07,1.78-3.44,4.23-3.44,1.82,0,3.03,.54,4.11,1.53Z"/><path class="c" d="M110.37,59.51c0,2.92-1.35,5.06-3.76,5.06-.97,0-1.8-.34-2.39-1.04v4.45l-2.3,.25v-13.45h2.02l.13,1.17c.76-.99,1.76-1.44,2.79-1.44,2.49,0,3.53,1.96,3.53,5.01Zm-2.41,.02c0-2.41-.65-3.29-1.8-3.29-.81,0-1.49,.56-1.94,1.3v4.29c.45,.67,1.03,.99,1.75,.99,1.26,0,2-.97,2-3.28Z"/><path class="c" d="M119.73,64.3h-2l-.13-1.33c-.7,1.08-1.6,1.6-2.92,1.6-1.73,0-2.65-1.12-2.65-2.95v-6.84h2.3v6.55c0,1.12,.36,1.49,1.15,1.49s1.44-.52,1.93-1.35v-6.7h2.3v9.52Z"/><path class="c" d="M127.72,54.65l-.4,2.23c-.29-.07-.5-.11-.85-.11-1.15,0-1.75,.85-2.11,2.45v5.08h-2.3v-9.52h2l.22,1.87c.45-1.37,1.37-2.12,2.49-2.12,.34,0,.65,.04,.95,.13Z"/></g><g><path class="c" d="M88.44,128.97h-4.12l-.77,2.88h-2.47l3.87-12.44h2.93l3.85,12.44h-2.52l-.77-2.88Zm-.47-1.8l-1.6-5.94-1.58,5.94h3.19Z"/><path class="c" d="M98.31,122.21l-.4,2.23c-.29-.07-.5-.11-.85-.11-1.15,0-1.75,.85-2.11,2.45v5.08h-2.3v-9.52h2l.22,1.87c.45-1.37,1.37-2.12,2.48-2.12,.34,0,.65,.04,.95,.13Z"/><path class="c" d="M111.97,124.96v6.9h-2.3v-6.54c0-1.19-.47-1.53-1.04-1.53-.79,0-1.28,.56-1.8,1.44v6.63h-2.3v-6.54c0-1.19-.49-1.53-1.04-1.53-.81,0-1.3,.56-1.82,1.44v6.63h-2.3v-9.52h2l.18,1.24c.68-.95,1.55-1.51,2.75-1.51,1.12,0,1.94,.59,2.3,1.6,.72-.99,1.6-1.6,2.86-1.6,1.51,0,2.52,1.1,2.52,2.9Z"/><path class="c" d="M120.63,123.2l-.9,1.35c-.79-.5-1.55-.77-2.39-.77-.92,0-1.44,.38-1.44,.95,0,.63,.38,.92,2,1.37,1.94,.52,3.04,1.31,3.04,3.01,0,1.98-1.84,3.03-4.02,3.03-1.64,0-2.92-.56-3.8-1.35l1.15-1.3c.74,.56,1.62,.94,2.59,.94,1.03,0,1.69-.43,1.69-1.15,0-.79-.38-1.04-2.16-1.55-1.96-.54-2.83-1.48-2.83-2.88,0-1.58,1.46-2.77,3.67-2.77,1.37,0,2.48,.43,3.38,1.13Z"/></g></svg>