<?xml version="1.0" encoding="UTF-8"?><svg id="a" xmlns="http://www.w3.org/2000/svg" viewBox="0 0 260 260"><defs><style>.b{fill:#b3b3b3;}.c{fill:#2997ff;}.d{stroke-linecap:round;stroke-linejoin:round;}.d,.e{fill:none;stroke:#2997ff;stroke-width:2px;}.e{stroke-miterlimit:10;}</style></defs><path class="b" d="M107.87,163.23c.13-.66,.27-1.2,.93-1.33,4.25-.8,5.32-1.06,5.85-2.79,.93-3.06,1.46-14.75,1.46-34.96,0-11.3,.27-23.53-.13-35.22-.13-4.39-.53-5.32-1.73-6.38-1.73-1.46-3.19-2.53-3.85-3.06-.93-.66-.8-1.59-.53-2.13,.8-.8,12.36-5.45,13.16-5.58,1.46-.27,1.86,.13,1.86,1.86,0,1.86,.27,6.25,0,19.94l-.8,41.87c0,1.33,.27,1.6,.66,1.6,.13,0,1.59-.8,3.46-2.39,1.06-.8,12.63-10.37,16.22-14.22,.93-.8,.13-1.6-1.06-1.6h-3.46c-.4,0-.67-.27-.53-.8l.53-2.66c.13-.8,.4-1.06,.93-1.06,7.18,0,16.22-.4,23-1.06,.8,0,.8,.13,.8,.4,0,.93,0,1.6-.13,2.39-.27,1.06-.8,1.2-1.73,1.33-4.25,.66-7.98,1.99-11.43,4.25-3.46,2.39-9.57,7.31-15.82,12.36-1.2,1.06-1.73,1.73-.4,3.19,2.66,2.92,13.56,13.16,18.34,17.28,6.65,5.98,7.31,6.51,14.49,7.44,.66,.13,.66,.53,.66,3.46,0,.53-.13,.66-.66,.66-1.73,0-3.99,0-6.51-.13-3.46-.27-6.38,0-15.55,.27-.66,0-.8-.13-.93-.53l-.53-1.46c-.66-1.73-.4-1.99,0-1.99,3.59-.4,4.39-.8,3.46-1.59-6.78-6.38-13.29-12.63-19.67-18.87-1.86-1.73-3.19-2.26-3.72-2.26-.4,0-.4,.8-.53,2.79-.13,1.6-.13,3.06-.13,9.7,0,7.44,.8,9.04,1.6,9.04,1.06,0,4.39-.27,5.85-.27,.66,0,.66,.13,.66,1.33s-.13,2.26-.53,3.19c-.13,.4-.67,.66-1.33,.66-.8,0-3.06-.27-9.17-.27-4.25,0-10.23,.27-12.63,.27-.66,0-.93-.13-.8-.8l.4-1.86Z"/><g><path class="c" d="M174.24,123.4h-4.12l-.77,2.88h-2.47l3.87-12.44h2.93l3.85,12.44h-2.52l-.77-2.88Zm-.47-1.8l-1.6-5.94-1.58,5.94h3.19Z"/><path class="c" d="M184.46,116.63l-.4,2.23c-.29-.07-.5-.11-.85-.11-1.15,0-1.75,.85-2.11,2.45v5.08h-2.3v-9.52h2l.22,1.87c.45-1.37,1.37-2.12,2.48-2.12,.34,0,.65,.04,.95,.13Z"/><path class="c" d="M198.48,119.39v6.9h-2.3v-6.54c0-1.19-.47-1.53-1.04-1.53-.79,0-1.28,.56-1.8,1.44v6.63h-2.3v-6.54c0-1.19-.49-1.53-1.04-1.53-.81,0-1.3,.56-1.82,1.44v6.63h-2.3v-9.52h2l.18,1.24c.68-.95,1.55-1.51,2.75-1.51,1.12,0,1.94,.59,2.3,1.6,.72-.99,1.6-1.6,2.86-1.6,1.51,0,2.52,1.1,2.52,2.9Z"/></g><line class="d" x1="164.14" y1="125.49" x2="144.22" y2="125.49"/><g><path class="c" d="M177.22,155.22h4.99l-.27,1.94h-7.09v-12.44h2.38v10.5Z"/><path class="c" d="M191.19,153.11h-5.98c.18,1.94,1.08,2.57,2.34,2.57,.85,0,1.55-.27,2.38-.85l.95,1.31c-.94,.76-2.09,1.28-3.53,1.28-2.95,0-4.54-1.96-4.54-4.97s1.53-5.1,4.23-5.1,4.2,1.8,4.2,4.81c0,.31-.04,.68-.05,.94Zm-2.23-1.6c0-1.57-.56-2.5-1.85-2.5-1.08,0-1.76,.72-1.89,2.61h3.75v-.11Z"/><path class="c" d="M201.6,148.14c-.72,.25-1.62,.32-2.75,.32,1.15,.52,1.73,1.26,1.73,2.45,0,1.85-1.44,3.21-3.83,3.21-.41,0-.77-.04-1.13-.14-.23,.16-.4,.41-.4,.7,0,.34,.2,.67,1.15,.67h1.46c2.11,0,3.48,1.13,3.48,2.7,0,1.91-1.64,3.04-4.75,3.04-3.38,0-4.34-1.08-4.34-2.99h2.07c0,.95,.41,1.37,2.3,1.37s2.39-.5,2.39-1.26c0-.7-.56-1.13-1.62-1.13h-1.44c-1.91,0-2.72-.85-2.72-1.84,0-.67,.41-1.33,1.12-1.76-1.17-.61-1.67-1.46-1.67-2.68,0-2.07,1.64-3.42,3.94-3.42,2.25,.05,3.29-.45,4.45-1.06l.58,1.84Zm-6.64,2.61c0,1.15,.63,1.87,1.69,1.87s1.69-.68,1.69-1.89-.58-1.8-1.73-1.8c-1.04,0-1.66,.72-1.66,1.82Z"/></g><line class="d" x1="170.39" y1="157.16" x2="152.47" y2="157.16"/><g><path class="c" d="M67.55,91.18l-1.17,1.35c-.9-.74-1.76-1.06-2.79-1.06-1.12,0-1.93,.5-1.93,1.48,0,.9,.49,1.3,2.56,1.94,2.18,.68,3.69,1.58,3.69,3.93s-1.75,3.82-4.72,3.82c-1.98,0-3.46-.7-4.48-1.71l1.22-1.37c.92,.77,1.91,1.24,3.21,1.24s2.29-.65,2.29-1.85c0-1.04-.52-1.51-2.47-2.11-2.61-.81-3.75-1.85-3.75-3.75,0-2.07,1.78-3.44,4.23-3.44,1.82,0,3.02,.54,4.1,1.53Z"/><path class="c" d="M74.97,101.91c-.68,.49-1.55,.72-2.39,.72-1.87-.02-2.86-1.08-2.86-3.11v-5.02h-1.49v-1.66h1.49v-2.11l2.3-.27v2.38h2.21l-.23,1.66h-1.98v4.97c0,.94,.31,1.31,1.01,1.31,.36,0,.72-.11,1.13-.34l.81,1.48Z"/><path class="c" d="M83.36,98.31h-5.98c.18,1.94,1.08,2.57,2.34,2.57,.85,0,1.55-.27,2.38-.85l.95,1.31c-.94,.76-2.09,1.28-3.53,1.28-2.95,0-4.54-1.96-4.54-4.97s1.53-5.1,4.23-5.1,4.2,1.8,4.2,4.81c0,.31-.04,.68-.05,.94Zm-2.23-1.6c0-1.57-.56-2.5-1.85-2.5-1.08,0-1.76,.72-1.89,2.61h3.75v-.11Z"/><path class="c" d="M97.7,95.46v6.9h-2.3v-6.54c0-1.19-.47-1.53-1.04-1.53-.79,0-1.28,.56-1.8,1.44v6.63h-2.3v-6.54c0-1.19-.49-1.53-1.04-1.53-.81,0-1.3,.56-1.82,1.44v6.63h-2.3v-9.52h2l.18,1.24c.68-.95,1.55-1.51,2.75-1.51,1.12,0,1.94,.59,2.3,1.6,.72-.99,1.6-1.6,2.86-1.6,1.51,0,2.52,1.1,2.52,2.9Z"/></g><line class="d" x1="118.09" y1="101.1" x2="101.84" y2="101.1"/><g><path class="c" d="M72.36,143.81h-3.1l-1.89-9.92-1.94,9.92h-3.01l-2.25-12.44h2.36l1.58,10.55,2.03-10.55h2.52l2,10.55,1.73-10.55h2.25l-2.29,12.44Z"/><path class="c" d="M83.25,142.51l-.49,1.53c-1.06-.09-1.75-.45-2.11-1.39-.68,1.01-1.71,1.42-2.86,1.42-1.89,0-3.06-1.21-3.06-2.93,0-2.07,1.55-3.19,4.32-3.19h1.21v-.54c0-1.24-.56-1.66-1.78-1.66-.65,0-1.57,.18-2.54,.5l-.52-1.57c1.17-.45,2.38-.68,3.44-.68,2.56,0,3.67,1.17,3.67,3.28v4c0,.77,.25,1.04,.72,1.22Zm-2.99-1.28v-1.93h-.95c-1.49,0-2.23,.54-2.23,1.66,0,.92,.47,1.44,1.35,1.44,.79,0,1.4-.41,1.84-1.17Z"/><path class="c" d="M87.51,130.86c0,.77-.59,1.39-1.46,1.39s-1.44-.61-1.44-1.39,.59-1.4,1.44-1.4,1.46,.61,1.46,1.4Zm-.29,12.95h-2.3v-9.52h2.3v9.52Z"/><path class="c" d="M95.99,135.15l-.9,1.35c-.79-.5-1.55-.77-2.39-.77-.92,0-1.44,.38-1.44,.95,0,.63,.38,.92,2,1.37,1.94,.52,3.04,1.31,3.04,3.01,0,1.98-1.84,3.02-4.02,3.02-1.64,0-2.92-.56-3.8-1.35l1.15-1.3c.74,.56,1.62,.94,2.59,.94,1.03,0,1.69-.43,1.69-1.15,0-.79-.38-1.04-2.16-1.55-1.96-.54-2.83-1.48-2.83-2.88,0-1.58,1.46-2.77,3.67-2.77,1.37,0,2.48,.43,3.39,1.13Z"/><path class="c" d="M103.23,143.36c-.68,.49-1.55,.72-2.4,.72-1.87-.02-2.86-1.08-2.86-3.11v-5.02h-1.49v-1.66h1.49v-2.11l2.3-.27v2.38h2.21l-.23,1.66h-1.98v4.97c0,.94,.31,1.31,1.01,1.31,.36,0,.72-.11,1.13-.34l.81,1.48Z"/></g><ellipse class="e" cx="126.55" cy="135.94" rx="13.68" ry="7.86"/><line class="d" x1="107.58" y1="143.81" x2="126.55" y2="143.81"/></svg>