<?xml version="1.0" encoding="UTF-8"?><svg id="a" xmlns="http://www.w3.org/2000/svg" viewBox="0 0 260 260"><defs><style>.b{fill:#b3b3b3;}.c{fill:#2997ff;}.d{fill:none;stroke:#2997ff;stroke-linecap:round;stroke-linejoin:round;stroke-width:2px;}</style></defs><path class="b" d="M140.59,196.86c7.98-.66,8.64-5.45,9.04-8.24,.27-2.53,1.06-10.5,1.06-30.31v-15.29c0-8.64-.67-15.82-.93-17.28-.27-1.46-.67-2.13-5.18-2.13-.53,0-1.33-.27-1.86-2.66,3.72-3.46,9.44-7.31,13.03-9.97,1.33-.93,1.73-.93,2.39-.8,.53,.13,.53,.27,.53,.8v9.17c6.51-2.66,17.68-6.91,19.27-6.91,4.52,0,10.1,1.86,14.09,5.58,6.25,5.58,8.11,13.03,8.11,18.87,0,7.44-4.12,15.02-8.91,19.14-2.13,1.99-9.44,6.51-16.75,9.3-1.33,.53-2.92,.53-3.85,.53-4.52,0-8.37-.8-10.5-1.46-.13-.13-.93,.53-1.06,1.33-.27,1.73-.4,11.83-.4,15.82,0,11.3,.8,11.56,2.79,11.7,2.79,.13,4.39,.27,7.97,.27,.93,0,1.06,.27,.93,.8l-.67,2.13c-.27,1.33-.4,1.46-1.33,1.46-5.58,.4-21.4,1.2-26.32,1.33-.27,0-.4-.13-.53-.4l-.93-2.79Zm45.72-70.18c-3.85-4.39-9.17-6.78-14.09-6.78-4.52,0-10.77,2.39-13.42,4.79-.4,.27-.4,1.33-.4,2.92v8.24c0,7.44,.53,12.76,1.2,18.61,.13,.93,.4,1.46,1.59,2.26,3.72,2.53,8.51,3.59,12.89,3.59s7.84-1.46,10.9-3.72c3.46-2.39,6.78-7.44,6.78-14.89,0-5.98-1.33-10.5-5.45-15.02Z"/><g><path class="c" d="M179.12,184.03c0,2.9-1.6,3.94-3.66,4.61l-.63-1.71c1.62-.63,1.89-1.42,1.89-2.99v-10.53h2.4v10.62Z"/><path class="c" d="M190.25,181.08c0,3.01-1.67,5.04-4.48,5.04s-4.48-1.91-4.48-5.04,1.67-5.02,4.5-5.02,4.47,1.91,4.47,5.02Zm-6.54,0c0,2.29,.7,3.29,2.05,3.29s2.05-1.03,2.05-3.29-.7-3.28-2.04-3.28-2.07,1.03-2.07,3.28Z"/><path class="c" d="M194.96,172.9c0,.77-.59,1.39-1.46,1.39s-1.44-.61-1.44-1.39,.59-1.4,1.44-1.4,1.46,.61,1.46,1.4Zm-.29,12.95h-2.3v-9.52h2.3v9.52Z"/><path class="c" d="M205.15,178.95v6.9h-2.3v-6.54c0-1.19-.45-1.53-1.17-1.53-.83,0-1.44,.56-2,1.44v6.63h-2.3v-9.52h2l.18,1.24c.74-.95,1.69-1.51,2.9-1.51,1.71,0,2.7,1.08,2.7,2.9Z"/><path class="c" d="M213.23,185.4c-.68,.49-1.55,.72-2.4,.72-1.87-.02-2.86-1.08-2.86-3.11v-5.02h-1.5v-1.66h1.5v-2.11l2.3-.27v2.38h2.21l-.23,1.66h-1.98v4.97c0,.94,.31,1.31,1.01,1.31,.36,0,.72-.11,1.13-.34l.81,1.48Z"/></g><line class="d" x1="160.91" y1="167.73" x2="173.58" y2="180.4"/><g><path class="c" d="M57.66,177.57c0,5.04-3.08,6.28-6.05,6.28h-3.38v-12.44h3.06c3.28,0,6.37,1.01,6.37,6.16Zm-7.06-4.38v8.88h1.17c1.85,0,3.39-.83,3.39-4.5s-1.62-4.38-3.46-4.38h-1.1Z"/><path class="c" d="M67.58,179.81h-5.98c.18,1.94,1.08,2.57,2.34,2.57,.85,0,1.55-.27,2.38-.85l.95,1.31c-.94,.76-2.09,1.28-3.53,1.28-2.95,0-4.54-1.96-4.54-4.97s1.53-5.1,4.23-5.1,4.2,1.8,4.2,4.81c0,.31-.04,.68-.05,.94Zm-2.23-1.6c0-1.57-.56-2.5-1.85-2.5-1.08,0-1.76,.72-1.89,2.61h3.75v-.11Z"/><path class="c" d="M76.09,175.2l-.9,1.35c-.79-.5-1.55-.77-2.39-.77-.92,0-1.44,.38-1.44,.95,0,.63,.38,.92,2,1.37,1.94,.52,3.04,1.31,3.04,3.01,0,1.98-1.84,3.02-4.02,3.02-1.64,0-2.92-.56-3.8-1.35l1.15-1.3c.74,.56,1.62,.94,2.59,.94,1.03,0,1.69-.43,1.69-1.15,0-.79-.38-1.04-2.16-1.55-1.96-.54-2.83-1.48-2.83-2.88,0-1.58,1.46-2.77,3.67-2.77,1.37,0,2.48,.43,3.38,1.13Z"/><path class="c" d="M85.17,175.18l-1.03,1.39c-.63-.47-1.21-.68-1.93-.68-1.33,0-2.14,.97-2.14,3.26s.85,3.11,2.14,3.11c.72,0,1.22-.23,1.93-.68l1.03,1.46c-.86,.7-1.85,1.1-3.08,1.1-2.75,0-4.47-1.91-4.47-4.95s1.71-5.11,4.45-5.11c1.24,0,2.2,.34,3.1,1.12Z"/><path class="c" d="M94.33,179.81h-5.98c.18,1.94,1.08,2.57,2.34,2.57,.85,0,1.55-.27,2.38-.85l.95,1.31c-.94,.76-2.09,1.28-3.53,1.28-2.95,0-4.54-1.96-4.54-4.97s1.53-5.1,4.23-5.1,4.2,1.8,4.2,4.81c0,.31-.04,.68-.05,.94Zm-2.23-1.6c0-1.57-.56-2.5-1.85-2.5-1.08,0-1.76,.72-1.89,2.61h3.75v-.11Z"/><path class="c" d="M104.19,176.96v6.9h-2.3v-6.54c0-1.19-.45-1.53-1.17-1.53-.83,0-1.44,.56-2,1.44v6.63h-2.3v-9.52h2l.18,1.24c.74-.95,1.69-1.51,2.9-1.51,1.71,0,2.7,1.08,2.7,2.9Z"/><path class="c" d="M114.74,170.52v13.34h-2.03l-.16-1.21c-.58,.86-1.49,1.48-2.72,1.48-2.38,0-3.62-2-3.62-5.02s1.48-5.04,3.83-5.04c1.01,0,1.8,.43,2.39,1.03v-4.83l2.3,.25Zm-2.3,10.64v-4.36c-.5-.61-1.04-1.01-1.82-1.01-1.19,0-1.98,1.01-1.98,3.29,0,2.45,.7,3.29,1.84,3.29,.85,0,1.42-.41,1.96-1.22Z"/><path class="c" d="M125.23,179.81h-5.98c.18,1.94,1.08,2.57,2.34,2.57,.85,0,1.55-.27,2.38-.85l.95,1.31c-.94,.76-2.09,1.28-3.53,1.28-2.95,0-4.54-1.96-4.54-4.97s1.53-5.1,4.23-5.1,4.2,1.8,4.2,4.81c0,.31-.04,.68-.05,.94Zm-2.23-1.6c0-1.57-.56-2.5-1.85-2.5-1.08,0-1.76,.72-1.89,2.61h3.75v-.11Z"/><path class="c" d="M132.97,174.21l-.4,2.23c-.29-.07-.5-.11-.85-.11-1.15,0-1.75,.85-2.11,2.45v5.08h-2.3v-9.52h2l.22,1.87c.45-1.37,1.37-2.12,2.48-2.12,.34,0,.65,.04,.95,.13Z"/></g><line class="d" x1="154.56" y1="183.86" x2="133.63" y2="183.86"/><g><path class="c" d="M95.15,97.31h-4.12l-.77,2.88h-2.47l3.87-12.44h2.93l3.85,12.44h-2.52l-.77-2.88Zm-.47-1.8l-1.6-5.94-1.58,5.94h3.19Z"/><path class="c" d="M106.33,91.52l-1.03,1.39c-.63-.47-1.21-.68-1.93-.68-1.33,0-2.14,.97-2.14,3.26s.85,3.11,2.14,3.11c.72,0,1.22-.23,1.93-.68l1.03,1.46c-.86,.7-1.85,1.1-3.08,1.1-2.75,0-4.47-1.91-4.47-4.95s1.71-5.11,4.45-5.11c1.24,0,2.2,.34,3.1,1.12Z"/><path class="c" d="M115.01,100.19h-2l-.13-1.33c-.7,1.08-1.6,1.6-2.92,1.6-1.73,0-2.65-1.12-2.65-2.95v-6.84h2.3v6.55c0,1.12,.36,1.49,1.15,1.49s1.44-.52,1.93-1.35v-6.7h2.3v9.52Z"/><path class="c" d="M122.83,99.74c-.68,.49-1.55,.72-2.4,.72-1.87-.02-2.86-1.08-2.86-3.11v-5.02h-1.49v-1.66h1.49v-2.11l2.3-.27v2.38h2.21l-.23,1.66h-1.98v4.97c0,.94,.31,1.31,1.01,1.31,.36,0,.72-.11,1.13-.34l.81,1.48Z"/><path class="c" d="M131.22,96.14h-5.98c.18,1.94,1.08,2.57,2.34,2.57,.85,0,1.55-.27,2.38-.85l.95,1.31c-.94,.76-2.09,1.28-3.53,1.28-2.95,0-4.54-1.96-4.54-4.97s1.53-5.1,4.23-5.1,4.2,1.8,4.2,4.81c0,.31-.04,.68-.05,.94Zm-2.23-1.6c0-1.57-.56-2.5-1.85-2.5-1.08,0-1.76,.72-1.89,2.61h3.75v-.11Z"/><path class="c" d="M72.36,117.34c-.68,.49-1.55,.72-2.39,.72-1.87-.02-2.86-1.08-2.86-3.11v-5.02h-1.49v-1.66h1.49v-2.11l2.3-.27v2.38h2.21l-.23,1.66h-1.98v4.97c0,.94,.31,1.31,1.01,1.31,.36,0,.72-.11,1.13-.34l.81,1.48Z"/><path class="c" d="M80.75,113.74h-5.98c.18,1.94,1.08,2.57,2.34,2.57,.85,0,1.55-.27,2.38-.85l.95,1.31c-.94,.76-2.09,1.28-3.53,1.28-2.95,0-4.54-1.96-4.54-4.97s1.53-5.1,4.23-5.1,4.2,1.8,4.2,4.81c0,.31-.04,.68-.05,.94Zm-2.23-1.6c0-1.57-.56-2.5-1.85-2.5-1.08,0-1.76,.72-1.89,2.61h3.75v-.11Z"/><path class="c" d="M88.13,108.14l-.4,2.23c-.29-.07-.5-.11-.85-.11-1.15,0-1.75,.85-2.11,2.45v5.08h-2.3v-9.52h2l.22,1.87c.45-1.37,1.37-2.12,2.48-2.12,.34,0,.65,.04,.95,.13Z"/><path class="c" d="M101.8,110.9v6.9h-2.3v-6.54c0-1.19-.47-1.53-1.04-1.53-.79,0-1.28,.56-1.8,1.44v6.63h-2.3v-6.54c0-1.19-.49-1.53-1.04-1.53-.81,0-1.3,.56-1.82,1.44v6.63h-2.3v-9.52h2l.18,1.24c.68-.95,1.55-1.51,2.75-1.51,1.12,0,1.94,.59,2.3,1.6,.72-.99,1.6-1.6,2.86-1.6,1.51,0,2.52,1.1,2.52,2.9Z"/><path class="c" d="M106.62,104.85c0,.77-.59,1.39-1.46,1.39s-1.44-.61-1.44-1.39,.59-1.4,1.44-1.4,1.46,.61,1.46,1.4Zm-.29,12.95h-2.3v-9.52h2.3v9.52Z"/><path class="c" d="M116.45,110.9v6.9h-2.3v-6.54c0-1.19-.45-1.53-1.17-1.53-.83,0-1.44,.56-2,1.44v6.63h-2.3v-9.52h2l.18,1.24c.74-.95,1.69-1.51,2.9-1.51,1.71,0,2.7,1.08,2.7,2.9Z"/><path class="c" d="M126.42,116.5l-.49,1.53c-1.06-.09-1.75-.45-2.11-1.39-.68,1.01-1.71,1.42-2.86,1.42-1.89,0-3.06-1.21-3.06-2.94,0-2.07,1.55-3.19,4.32-3.19h1.21v-.54c0-1.24-.56-1.66-1.78-1.66-.65,0-1.57,.18-2.54,.5l-.52-1.57c1.17-.45,2.38-.68,3.44-.68,2.56,0,3.67,1.17,3.67,3.28v4c0,.77,.25,1.04,.72,1.22Zm-2.99-1.28v-1.93h-.95c-1.49,0-2.23,.54-2.23,1.66,0,.92,.47,1.44,1.35,1.44,.79,0,1.4-.41,1.84-1.17Z"/><path class="c" d="M127.86,115.62v-11.16l2.3-.25v11.34c0,.45,.14,.67,.54,.67,.2,0,.38-.04,.52-.09l.5,1.62c-.4,.18-.95,.32-1.55,.32-1.46,0-2.32-.88-2.32-2.45Z"/></g><line class="d" x1="133.04" y1="98.33" x2="148.13" y2="113.42"/></svg>