<?xml version="1.0" encoding="UTF-8"?><svg id="a" xmlns="http://www.w3.org/2000/svg" viewBox="0 0 260 260"><defs><style>.b{fill:#b3b3b3;}.c{fill:#2997ff;}.d{stroke-linecap:round;stroke-linejoin:round;}.d,.e{fill:none;stroke:#2997ff;stroke-width:2px;}.e{stroke-miterlimit:10;}</style></defs><path class="b" d="M146.5,115.38c.93,.53,1.99,.53,2.26,.53,1.86,.13,10.23-1.59,13.29-1.59,.93,0,2.53,1.33,2.66,1.73,.13,.13,.4,3.32,.4,3.85,0,.66-.8,1.59-2.13,1.59-1.73,0-5.58,.13-11.83,0,2.26,3.46,3.99,7.44,3.99,11.03,0,9.17-6.51,17.54-16.75,21.67-5.45,2.26-8.51,3.85-11.56,5.58-.8,.4-1.2,1.2-1.2,1.6,0,2.53,3.19,3.72,7.18,3.72,.93,0,10.5-.4,11.3-.4,5.45,0,10.23,.53,15.02,3.85,1.99,1.33,3.72,4.79,3.72,9.44,0,4.25-1.2,6.11-4.92,10.63-6.65,8.24-12.76,10.5-15.68,11.7-3.19,1.06-9.57,1.99-13.29,1.99-13.82,0-19.41-6.91-19.41-11.96,0-4.79,1.73-8.37,5.05-10.77,3.46-2.39,5.85-4.25,9.97-7.31-5.18-2.26-8.91-3.85-8.91-7.84,0-1.06,0-1.6,.66-2.53,1.33-1.2,7.71-4.65,13.16-7.31-4.52-1.2-7.58-2.39-11.03-5.45-3.72-3.32-5.85-8.24-5.85-13.42,0-7.31,3.59-12.63,9.04-17.01,4.25-3.19,9.97-5.98,15.95-5.98,2.66,0,6.65,1.33,8.91,2.66Zm5.05,74.83c2.53-2.26,4.79-4.92,4.79-8.51,0-1.86,0-3.99-2.79-6.11-3.06-2.13-6.78-2.92-11.43-2.92-4.39,0-10.23,.53-13.42,1.33-1.33,.27-3.06,1.2-5.45,3.32-3.72,3.19-5.18,6.91-5.18,9.04,0,2.39,2.53,9.3,16.22,9.3,8.51,0,13.69-2.26,17.28-5.45Zm-7.84-66.33c-1.86-2.92-5.85-5.85-11.56-5.85-2.53,0-4.92,.93-7.44,3.06-2.66,2.13-3.99,5.98-3.99,9.84,0,5.05,2.39,11.03,6.38,14.22,4.39,3.46,7.44,4.12,9.7,4.12,5.32,0,10.5-3.06,10.5-12.49,0-4.39-1.06-9.17-3.59-12.89Z"/><circle class="e" cx="164.87" cy="117" r="7.86"/><g><path class="c" d="M63.62,163.68h4.99l-.27,1.94h-7.09v-12.44h2.38v10.5Z"/><path class="c" d="M72.47,152.68c0,.77-.59,1.39-1.46,1.39s-1.44-.61-1.44-1.39,.59-1.4,1.44-1.4,1.46,.61,1.46,1.4Zm-.29,12.95h-2.3v-9.52h2.3v9.52Z"/><path class="c" d="M82.3,158.73v6.9h-2.3v-6.54c0-1.19-.45-1.53-1.17-1.53-.83,0-1.44,.56-2,1.44v6.63h-2.3v-9.52h2l.18,1.24c.74-.95,1.69-1.51,2.9-1.51,1.71,0,2.7,1.08,2.7,2.9Z"/><path class="c" d="M86.84,165.62h-2.3v-13.34l2.3-.25v13.59Zm2.54-5.33l3.48,5.33h-2.65l-3.28-5.2,3.19-4.32h2.43l-3.17,4.2Z"/></g><line class="d" x1="117.68" y1="164.36" x2="96.76" y2="164.36"/><g><path class="c" d="M66.99,127.22c0,2.74-2.18,3.58-5.2,3.58h-3.75v-12.44h3.26c3.21,0,5.15,.9,5.15,3.17,0,1.55-1.12,2.43-2.3,2.68,1.42,.27,2.84,.94,2.84,3.01Zm-6.57-7.11v3.37h1.46c1.3,0,2.14-.58,2.14-1.75,0-1.26-.86-1.62-2.48-1.62h-1.12Zm4.09,7.02c0-1.49-1.06-2-2.45-2h-1.64v3.89h1.39c1.57,0,2.7-.32,2.7-1.89Z"/><path class="c" d="M77,126.04c0,3.01-1.67,5.04-4.48,5.04s-4.48-1.91-4.48-5.04,1.67-5.02,4.5-5.02,4.46,1.91,4.46,5.02Zm-6.54,0c0,2.29,.7,3.29,2.05,3.29s2.05-1.03,2.05-3.29-.7-3.28-2.03-3.28-2.07,1.03-2.07,3.28Z"/><path class="c" d="M88.36,130.81h-2.88l-1.44-7.47-1.48,7.47h-2.83l-2.11-9.52h2.3l1.33,7.83,1.66-7.83h2.36l1.51,7.83,1.42-7.83h2.21l-2.07,9.52Z"/><path class="c" d="M91.51,128.63v-11.16l2.3-.25v11.34c0,.45,.14,.67,.54,.67,.2,0,.38-.04,.52-.09l.5,1.62c-.4,.18-.95,.32-1.55,.32-1.46,0-2.32-.88-2.32-2.45Z"/></g><line class="d" x1="116.27" y1="129.54" x2="100.02" y2="129.54"/><g><path class="c" d="M63.62,184.03h4.99l-.27,1.94h-7.09v-12.44h2.38v10.5Z"/><path class="c" d="M77.82,181.2c0,3.01-1.67,5.04-4.48,5.04s-4.48-1.91-4.48-5.04,1.67-5.02,4.5-5.02,4.46,1.91,4.46,5.02Zm-6.54,0c0,2.29,.7,3.29,2.05,3.29s2.05-1.03,2.05-3.29-.7-3.28-2.03-3.28-2.07,1.03-2.07,3.28Z"/><path class="c" d="M87.97,181.2c0,3.01-1.67,5.04-4.48,5.04s-4.48-1.91-4.48-5.04,1.67-5.02,4.5-5.02,4.46,1.91,4.46,5.02Zm-6.54,0c0,2.29,.7,3.29,2.05,3.29s2.05-1.03,2.05-3.29-.7-3.28-2.03-3.28-2.07,1.03-2.07,3.28Z"/><path class="c" d="M98.2,181.19c0,2.92-1.35,5.06-3.76,5.06-.97,0-1.8-.34-2.39-1.04v4.45l-2.3,.25v-13.45h2.02l.13,1.17c.76-.99,1.76-1.44,2.79-1.44,2.48,0,3.53,1.96,3.53,5.01Zm-2.41,.02c0-2.41-.65-3.29-1.8-3.29-.81,0-1.49,.56-1.94,1.3v4.29c.45,.67,1.03,.99,1.75,.99,1.26,0,2-.97,2-3.28Z"/></g><line class="d" x1="133.96" y1="184.71" x2="102.4" y2="184.71"/><line class="d" x1="178.01" y1="124.86" x2="164.74" y2="124.86"/><g><path class="c" d="M143.3,90.33l-1.21,1.4c-.72-.58-1.46-.88-2.3-.88-1.73,0-3.06,1.26-3.06,4.63s1.3,4.61,3.06,4.61c1.08,0,1.82-.47,2.54-1.01l1.12,1.4c-.76,.77-2.05,1.51-3.75,1.51-3.22,0-5.47-2.29-5.47-6.52s2.38-6.46,5.44-6.46c1.58,0,2.61,.47,3.64,1.31Z"/><path class="c" d="M152.69,96.96c0,3.01-1.67,5.04-4.48,5.04s-4.48-1.91-4.48-5.04,1.67-5.02,4.5-5.02,4.46,1.91,4.46,5.02Zm-6.54,0c0,2.29,.7,3.29,2.05,3.29s2.05-1.03,2.05-3.29-.7-3.28-2.03-3.28-2.07,1.03-2.07,3.28Z"/><path class="c" d="M162.03,101.73h-2l-.13-1.33c-.7,1.08-1.6,1.6-2.92,1.6-1.73,0-2.65-1.12-2.65-2.95v-6.84h2.3v6.55c0,1.12,.36,1.49,1.15,1.49s1.44-.52,1.93-1.35v-6.7h2.3v9.52Z"/><path class="c" d="M172.15,94.83v6.9h-2.3v-6.54c0-1.19-.45-1.53-1.17-1.53-.83,0-1.44,.56-2,1.44v6.63h-2.3v-9.52h2l.18,1.24c.74-.95,1.69-1.51,2.9-1.51,1.71,0,2.7,1.08,2.7,2.9Z"/><path class="c" d="M179.87,101.28c-.68,.49-1.55,.72-2.39,.72-1.87-.02-2.86-1.08-2.86-3.11v-5.02h-1.49v-1.66h1.49v-2.11l2.3-.27v2.38h2.21l-.23,1.66h-1.98v4.97c0,.94,.31,1.31,1.01,1.31,.36,0,.72-.11,1.13-.34l.81,1.48Z"/><path class="c" d="M188.26,97.68h-5.98c.18,1.94,1.08,2.57,2.34,2.57,.85,0,1.55-.27,2.38-.85l.96,1.31c-.94,.76-2.09,1.28-3.53,1.28-2.95,0-4.54-1.96-4.54-4.97s1.53-5.1,4.23-5.1,4.2,1.8,4.2,4.81c0,.31-.04,.68-.05,.94Zm-2.23-1.6c0-1.57-.56-2.5-1.85-2.5-1.08,0-1.76,.72-1.89,2.61h3.75v-.11Z"/><path class="c" d="M195.64,92.08l-.4,2.23c-.29-.07-.5-.11-.85-.11-1.15,0-1.75,.85-2.11,2.45v5.08h-2.3v-9.52h2l.22,1.87c.45-1.37,1.37-2.12,2.48-2.12,.34,0,.65,.04,.95,.13Z"/></g><g><path class="c" d="M186.44,114.18h-4.59v3.48h4v1.76h-4v3.65h4.92v1.78h-7.29v-12.44h7.22l-.25,1.76Z"/><path class="c" d="M196.09,123.56l-.49,1.53c-1.06-.09-1.75-.45-2.11-1.39-.68,1.01-1.71,1.42-2.86,1.42-1.89,0-3.06-1.21-3.06-2.93,0-2.07,1.55-3.19,4.32-3.19h1.21v-.54c0-1.24-.56-1.66-1.78-1.66-.65,0-1.57,.18-2.54,.5l-.52-1.57c1.17-.45,2.38-.68,3.44-.68,2.56,0,3.67,1.17,3.67,3.28v4c0,.77,.25,1.04,.72,1.22Zm-2.99-1.28v-1.93h-.96c-1.49,0-2.23,.54-2.23,1.66,0,.92,.47,1.44,1.35,1.44,.79,0,1.4-.41,1.84-1.17Z"/><path class="c" d="M203.42,115.21l-.4,2.23c-.29-.07-.5-.11-.85-.11-1.15,0-1.75,.85-2.11,2.45v5.08h-2.3v-9.52h2l.22,1.87c.45-1.37,1.37-2.12,2.49-2.12,.34,0,.65,.04,.95,.13Z"/></g><line class="d" x1="133.14" y1="102" x2="133.14" y2="131.08"/></svg>