<?xml version="1.0" encoding="UTF-8"?><svg id="a" xmlns="http://www.w3.org/2000/svg" viewBox="0 0 260 260"><defs><style>.b{fill:none;}.c{fill:#b3b3b3;}.d{fill:#2997ff;}</style></defs><g><path class="d" d="M89.4,221.97c0,2.74-2.18,3.58-5.2,3.58h-3.75v-12.44h3.26c3.21,0,5.15,.9,5.15,3.17,0,1.55-1.12,2.43-2.3,2.68,1.42,.27,2.84,.94,2.84,3.01Zm-6.57-7.11v3.37h1.46c1.3,0,2.14-.58,2.14-1.75,0-1.26-.86-1.62-2.48-1.62h-1.12Zm4.09,7.02c0-1.49-1.06-2-2.45-2h-1.64v3.89h1.39c1.57,0,2.7-.32,2.7-1.89Z"/><path class="d" d="M99.76,220.78c0,3.01-1.67,5.04-4.48,5.04s-4.48-1.91-4.48-5.04,1.67-5.02,4.5-5.02,4.47,1.91,4.47,5.02Zm-6.54,0c0,2.29,.7,3.29,2.05,3.29s2.05-1.03,2.05-3.29-.7-3.28-2.03-3.28-2.07,1.03-2.07,3.28Z"/><path class="d" d="M111.48,225.55h-2.88l-1.44-7.47-1.48,7.47h-2.83l-2.11-9.52h2.3l1.33,7.83,1.66-7.83h2.36l1.51,7.83,1.42-7.83h2.21l-2.07,9.52Z"/><path class="d" d="M114.99,223.38v-11.16l2.3-.25v11.34c0,.45,.14,.67,.54,.67,.2,0,.38-.04,.52-.09l.5,1.62c-.4,.18-.95,.32-1.55,.32-1.46,0-2.32-.88-2.32-2.45Z"/><path class="d" d="M132.74,215.65c0,1.53-1.08,2.5-2.45,3.37l2.77,2.61c.36-.77,.7-1.73,.95-2.81l2,.59c-.47,1.4-1.03,2.54-1.64,3.44l2.11,1.91-1.85,1.06-1.57-1.51c-1.08,1.01-2.36,1.51-3.96,1.51-2.52,0-4.27-1.35-4.27-3.44,0-1.53,.9-2.54,2.48-3.55-1.17-1.13-1.75-1.91-1.75-3.1,0-1.55,1.19-2.9,3.57-2.9,2.21,0,3.6,1.21,3.6,2.81Zm-5.49,6.63c0,1.13,.88,1.84,2.21,1.84,.95,0,1.69-.34,2.38-.95l-3.21-3.08c-.95,.65-1.39,1.31-1.39,2.2Zm.56-6.54c0,.76,.4,1.28,1.21,2.05,.95-.61,1.51-1.21,1.51-2.05s-.52-1.33-1.37-1.33-1.35,.54-1.35,1.33Z"/><path class="d" d="M150.67,214.37l-1.17,1.35c-.9-.74-1.76-1.06-2.79-1.06-1.12,0-1.93,.5-1.93,1.48,0,.9,.49,1.3,2.56,1.95,2.18,.68,3.69,1.58,3.69,3.92s-1.75,3.82-4.72,3.82c-1.98,0-3.46-.7-4.48-1.71l1.22-1.37c.92,.77,1.91,1.24,3.21,1.24s2.29-.65,2.29-1.85c0-1.04-.52-1.51-2.47-2.11-2.61-.81-3.75-1.85-3.75-3.75,0-2.07,1.78-3.44,4.23-3.44,1.82,0,3.02,.54,4.1,1.53Z"/><path class="d" d="M160.75,221.5h-5.98c.18,1.94,1.08,2.57,2.34,2.57,.85,0,1.55-.27,2.38-.85l.95,1.31c-.94,.76-2.09,1.28-3.53,1.28-2.95,0-4.54-1.96-4.54-4.97s1.53-5.1,4.23-5.1,4.2,1.8,4.2,4.81c0,.31-.04,.68-.05,.94Zm-2.23-1.6c0-1.57-.56-2.5-1.85-2.5-1.08,0-1.76,.72-1.89,2.61h3.75v-.11Z"/><path class="d" d="M168.49,215.9l-.4,2.23c-.29-.07-.5-.11-.85-.11-1.15,0-1.75,.85-2.11,2.45v5.08h-2.3v-9.52h2l.22,1.87c.45-1.37,1.37-2.12,2.48-2.12,.34,0,.65,.04,.95,.13Z"/><path class="d" d="M172.48,212.61c0,.77-.59,1.39-1.46,1.39s-1.44-.61-1.44-1.39,.59-1.4,1.44-1.4,1.46,.61,1.46,1.4Zm-.29,12.95h-2.3v-9.52h2.3v9.52Z"/><path class="d" d="M177.5,215.02v1.01h2.29l-.25,1.66h-2.03v7.87h-2.3v-7.87h-1.55v-1.66h1.55v-1.04c0-1.73,1.15-3.02,3.35-3.02,.95,0,1.73,.22,2.47,.56l-.67,1.55c-.58-.27-1.12-.36-1.57-.36-.94,0-1.28,.41-1.28,1.31Z"/></g><g><path class="b" d="M163.43,145.22c0,4.52,1.2,6.91,6.25,6.91,1.06,0,3.58-.77,6.2-1.75,1-.37,2.01-.78,2.97-1.18,1.73-1.33,2.79-2.13,3.19-3.85,.13-1.73,.4-6.38,.4-8.11,0-.66-.27-1.2-.66-1.2-4.51,.7-8.18,1.48-11.11,2.44-2.6,.85-4.6,1.83-6.04,3.01-.67,.4-1.2,1.33-1.2,3.72Z"/><path class="b" d="M68.92,144.29c0,5.45,3.19,9.17,7.71,9.17,1.34,0,2.9-.34,4.62-.98,3.38-1.26,7.37-3.69,11.6-7.13v-21.13l-7.18,2.92c-4.18,1.71-7.6,3.6-10.23,5.66-4.31,3.37-6.52,7.2-6.52,11.49Z"/><path class="c" d="M106.41,153.46c-1.59,0-2.92-.93-3.59-2.79q-.53-1.46-.53-9.04v-21.67c0-6.51-.27-8.24-1.86-10.9-3.32-5.18-9.44-7.84-18.48-7.84-4.45,0-8.3,.6-11.56,1.78l1.91,2.96c1.83-1.25,4.9-1.95,8.33-1.95,5.32,0,9.3,1.99,11.17,5.72,.93,1.86,1.06,3.32,1.06,8.77v2.66l-10.1,4.12c-3.65,1.49-6.84,2.95-9.62,4.4l2.32,3.12c2.63-2.06,6.05-3.94,10.23-5.66l7.18-2.92v21.13c-4.23,3.44-8.22,5.87-11.6,7.13l.31,3.23c3.32-1.51,7.02-3.73,11.29-6.77,1.2,6.38,4.52,9.3,10.37,9.3,6.65,0,10.77-4.25,11.03-11.17h-2.39c-.67,4.12-2.66,6.38-5.45,6.38Z"/><path class="d" d="M64.8,106.01c-2.92,2.39-4.65,5.05-4.65,7.44,0,2.26,1.6,3.85,3.99,3.85,2.79,0,4.78-2.13,5.32-5.98,.53-2.79,.66-3.19,1.73-4.39,.28-.36,.67-.68,1.11-.98l-1.91-2.96c-2.1,.76-3.97,1.76-5.58,3.01Z"/><path class="d" d="M76.63,153.46c-4.52,0-7.71-3.72-7.71-9.17,0-4.29,2.21-8.12,6.52-11.49l-2.32-3.12c-10.59,5.5-15.1,10.82-15.1,17.14,0,6.65,5.58,11.43,13.29,11.43,3.12,0,6.44-.8,10.24-2.54l-.31-3.23c-1.71,.64-3.27,.98-4.62,.98Z"/><path class="c" d="M200.78,150.67c-.13,0-4.39,1.99-6.91,1.99-1.99,0-3.19-2.39-3.19-9.7,0-9.7,.27-18.88,.27-28.18,0-1.33-.13-3.72-2.26-5.98-2.13-2.39-4.79-4.79-10.77-4.79-1.99,0-3.72,.53-6.38,1.46-1.43,.46-3.78,1.63-6.24,3.09l2.1,2.37c1.02-.34,2.79-.68,5.34-.68,3.06,0,6.38,.93,7.44,1.86,1.33,1.2,2.39,4.12,2.39,10.1,0,2.66,0,8.91-.4,9.97-4.44,.79-8.65,1.78-12.71,3.08l1.21,3.21c2.92-.95,6.6-1.73,11.11-2.44,.4,0,.66,.53,.66,1.2,0,1.73-.27,6.38-.4,8.11-.4,1.73-1.46,2.53-3.19,3.85-.95,.4-1.97,.81-2.97,1.18l1.01,3.58c1.85-.76,3.58-1.46,4.88-1.97,1.33,5.45,3.06,6.78,5.32,6.78,3.99-.13,12.5-2.26,14.09-3.19,.4-.27,.66-.93,.66-1.46l.13-2.26c0-.4-.93-1.33-1.2-1.2Z"/><path class="d" d="M155.85,116.24c-.4,.8-.8,1.73-.8,2.53,0,.53,.93,1.46,1.46,1.46,.93,0,1.6-.13,2.13-.27l6.38-1.99c.66-.27,.66-.8,.66-1.73,0-4.25,.4-4.79,1.06-5.05,.16-.08,.38-.17,.64-.25l-2.1-2.37c-3.96,2.35-8.21,5.47-9.44,7.68Z"/><path class="d" d="M169.68,152.13c-5.05,0-6.25-2.39-6.25-6.91,0-2.39,.53-3.32,1.2-3.72,1.44-1.19,3.44-2.17,6.04-3.01l-1.21-3.21c-3.47,1.11-6.84,2.44-10.15,4.1-3.46,1.73-5.45,3.85-5.45,6.51,0,5.32,1.86,8.51,3.72,10.1,3.19,2.26,5.85,2.39,7.31,2.39,1.16,0,7.04-2.39,12-4.41l-1.01-3.58c-2.62,.98-5.15,1.75-6.2,1.75Z"/></g></svg>