<?xml version="1.0" encoding="UTF-8"?><svg id="a" xmlns="http://www.w3.org/2000/svg" viewBox="0 0 260 260"><defs><style>.b{fill:#b3b3b3;}.c{fill:#2997ff;}</style></defs><g><g><path class="b" d="M80.74,127.34c-.13-.66-.93-1.06-7.44-1.99-.53-.13-.67-.4-.4-.93,1.2-2.53,1.33-2.79,1.86-2.92,5.32-1.73,8.77-3.19,14.75-5.32h.4c.27,0,.27,.27,.27,.93-.53,9.04-1.2,26.85-1.2,33.76s0,9.3,.13,10.9c.27,1.86,.53,2.79,1.73,2.66,4.52-.27,5.58-.27,5.98-.27s1.06,.8,1.06,1.2l-.53,3.32c0,.67-.4,.67-.93,.67-3.32,0-6.65-.27-10.77-.27-5.72,0-11.17,.8-11.56,.8-.66,0-.93-.13-1.06-.66-.27-1.06-.27-2.39-.27-3.06,0-.4,.27-.53,.53-.53,5.05-.53,5.98-.93,6.78-4.52,.53-2.26,1.33-11.7,1.06-20.07l-.4-13.69Z"/><path class="c" d="M92.83,91.32c0,4.25-2.92,6.78-6.25,6.78-2.92,0-5.45-2.26-5.45-5.58,0-4.25,3.32-6.78,6.25-6.78,3.32,0,5.45,2.66,5.45,5.58Z"/></g><path class="b" d="M186.45,173.81c-5.9,.11-6.81,.11-12.37,.45l-.57-.79c.34-6.02,.68-11.24,.68-23.84,0-21.68-.34-25.77-1.13-32.47l.57-.79c4.88-.79,6.58-1.02,12.26-2.27l1.13,.68c-.34,5.9-.68,12.03-.68,26.68,0,21.12,.23,23.95,.68,31.67l-.57,.68Z"/><path class="c" d="M186.56,98.32c-5.79,.23-7.04,.34-12.6,.91l-.68-.68c.11-1.48,.11-3.07,.11-4.54,0-2.04-.11-3.86-.23-6.13l.79-.68c5.9-.45,6.92-.57,12.6-1.14l.68,.68c-.11,4.65-.11,5.79,0,10.79l-.68,.79Z"/></g><g><path class="c" d="M90.03,215h-3.24v10.55h-2.4v-10.55h-3.35v-1.89h9.24l-.25,1.89Z"/><path class="c" d="M94.32,212.61c0,.77-.59,1.39-1.46,1.39s-1.44-.61-1.44-1.39,.59-1.4,1.44-1.4,1.46,.61,1.46,1.4Zm-.29,12.95h-2.3v-9.53h2.3v9.53Z"/><path class="c" d="M102.22,225.1c-.68,.49-1.55,.72-2.39,.72-1.87-.02-2.86-1.08-2.86-3.11v-5.02h-1.49v-1.66h1.49v-2.11l2.3-.27v2.38h2.21l-.23,1.66h-1.98v4.97c0,.94,.31,1.31,1.01,1.31,.36,0,.72-.11,1.13-.34l.81,1.48Z"/><path class="c" d="M108.97,225.1c-.68,.49-1.55,.72-2.39,.72-1.87-.02-2.86-1.08-2.86-3.11v-5.02h-1.49v-1.66h1.49v-2.11l2.3-.27v2.38h2.21l-.23,1.66h-1.98v4.97c0,.94,.31,1.31,1.01,1.31,.36,0,.72-.11,1.13-.34l.81,1.48Z"/><path class="c" d="M110.07,223.38v-11.16l2.3-.25v11.34c0,.45,.14,.67,.54,.67,.2,0,.38-.04,.52-.09l.5,1.62c-.4,.18-.95,.32-1.55,.32-1.46,0-2.32-.88-2.32-2.45Z"/><path class="c" d="M123.23,221.5h-5.98c.18,1.95,1.08,2.58,2.34,2.58,.85,0,1.55-.27,2.38-.85l.95,1.31c-.94,.76-2.09,1.28-3.53,1.28-2.95,0-4.54-1.96-4.54-4.97s1.53-5.1,4.23-5.1,4.2,1.8,4.2,4.81c0,.31-.04,.68-.05,.94Zm-2.23-1.6c0-1.57-.56-2.5-1.85-2.5-1.08,0-1.76,.72-1.89,2.61h3.75v-.11Z"/><path class="c" d="M137.61,214.37l-1.17,1.35c-.9-.74-1.76-1.06-2.79-1.06-1.12,0-1.93,.5-1.93,1.48,0,.9,.49,1.3,2.56,1.94,2.18,.68,3.69,1.58,3.69,3.93s-1.75,3.82-4.72,3.82c-1.98,0-3.46-.7-4.48-1.71l1.22-1.37c.92,.77,1.91,1.24,3.21,1.24s2.29-.65,2.29-1.85c0-1.04-.52-1.51-2.47-2.11-2.61-.81-3.75-1.85-3.75-3.75,0-2.07,1.78-3.44,4.23-3.44,1.82,0,3.03,.54,4.11,1.53Z"/><path class="c" d="M147.67,218.66v6.9h-2.3v-6.54c0-1.19-.47-1.53-1.17-1.53-.81,0-1.44,.56-2,1.42v6.64h-2.3v-13.32l2.3-.23v5.17c.74-.9,1.62-1.4,2.77-1.4,1.69,0,2.7,1.1,2.7,2.9Z"/><path class="c" d="M158,224.26l-.49,1.53c-1.06-.09-1.75-.45-2.11-1.39-.68,1.01-1.71,1.42-2.86,1.42-1.89,0-3.06-1.21-3.06-2.93,0-2.07,1.55-3.19,4.32-3.19h1.21v-.54c0-1.24-.56-1.66-1.78-1.66-.65,0-1.57,.18-2.54,.5l-.52-1.57c1.17-.45,2.38-.68,3.44-.68,2.56,0,3.67,1.17,3.67,3.28v4c0,.77,.25,1.04,.72,1.22Zm-2.99-1.28v-1.93h-.96c-1.49,0-2.23,.54-2.23,1.66,0,.92,.47,1.44,1.35,1.44,.79,0,1.4-.41,1.84-1.17Z"/><path class="c" d="M168.5,220.76c0,2.92-1.35,5.06-3.76,5.06-.97,0-1.8-.34-2.39-1.04v4.45l-2.3,.25v-13.45h2.02l.13,1.17c.76-.99,1.76-1.44,2.79-1.44,2.49,0,3.53,1.96,3.53,5Zm-2.41,.02c0-2.41-.65-3.29-1.8-3.29-.81,0-1.5,.56-1.94,1.3v4.29c.45,.67,1.03,.99,1.75,.99,1.26,0,2-.97,2-3.28Z"/><path class="c" d="M178.43,221.5h-5.98c.18,1.95,1.08,2.58,2.34,2.58,.85,0,1.55-.27,2.38-.85l.96,1.31c-.94,.76-2.09,1.28-3.53,1.28-2.95,0-4.54-1.96-4.54-4.97s1.53-5.1,4.23-5.1,4.2,1.8,4.2,4.81c0,.31-.04,.68-.05,.94Zm-2.23-1.6c0-1.57-.56-2.5-1.85-2.5-1.08,0-1.76,.72-1.89,2.61h3.75v-.11Z"/></g></svg>