<?xml version="1.0" encoding="UTF-8"?><svg id="a" xmlns="http://www.w3.org/2000/svg" viewBox="0 0 260 260"><defs><style>.b{fill:#b3b3b3;}.c{fill:#2997ff;}</style></defs><g><path class="c" d="M95.04,221.97c0,2.74-2.18,3.58-5.2,3.58h-3.75v-12.44h3.26c3.21,0,5.15,.9,5.15,3.17,0,1.55-1.12,2.43-2.3,2.68,1.42,.27,2.85,.94,2.85,3.01Zm-6.57-7.11v3.37h1.46c1.3,0,2.14-.58,2.14-1.75,0-1.26-.86-1.62-2.48-1.62h-1.12Zm4.09,7.02c0-1.49-1.06-2-2.45-2h-1.64v3.89h1.39c1.57,0,2.7-.32,2.7-1.89Z"/><path class="c" d="M105.41,220.78c0,3.01-1.67,5.04-4.48,5.04s-4.48-1.91-4.48-5.04,1.67-5.02,4.5-5.02,4.47,1.91,4.47,5.02Zm-6.54,0c0,2.29,.7,3.29,2.05,3.29s2.05-1.03,2.05-3.29-.7-3.28-2.04-3.28-2.07,1.03-2.07,3.28Z"/><path class="c" d="M117.12,225.55h-2.88l-1.44-7.47-1.48,7.47h-2.83l-2.11-9.52h2.3l1.33,7.83,1.66-7.83h2.36l1.51,7.83,1.42-7.83h2.21l-2.07,9.52Z"/><path class="c" d="M120.63,223.38v-11.16l2.3-.25v11.34c0,.45,.14,.67,.54,.67,.2,0,.38-.04,.52-.09l.5,1.62c-.4,.18-.95,.32-1.55,.32-1.46,0-2.32-.88-2.32-2.45Z"/><path class="c" d="M138.38,215.65c0,1.53-1.08,2.5-2.45,3.37l2.77,2.61c.36-.77,.7-1.73,.95-2.81l2,.59c-.47,1.4-1.03,2.54-1.64,3.44l2.11,1.91-1.85,1.06-1.57-1.51c-1.08,1.01-2.36,1.51-3.96,1.51-2.52,0-4.27-1.35-4.27-3.44,0-1.53,.9-2.54,2.48-3.55-1.17-1.13-1.75-1.91-1.75-3.1,0-1.55,1.19-2.9,3.56-2.9,2.21,0,3.6,1.21,3.6,2.81Zm-5.49,6.63c0,1.13,.88,1.84,2.21,1.84,.96,0,1.69-.34,2.38-.95l-3.21-3.08c-.95,.65-1.39,1.31-1.39,2.2Zm.56-6.54c0,.76,.4,1.28,1.21,2.05,.96-.61,1.51-1.21,1.51-2.05s-.52-1.33-1.37-1.33-1.35,.54-1.35,1.33Z"/><path class="c" d="M151,223.61h4.99l-.27,1.94h-7.09v-12.44h2.38v10.5Z"/><path class="c" d="M164.97,221.5h-5.98c.18,1.94,1.08,2.57,2.34,2.57,.85,0,1.55-.27,2.38-.85l.96,1.31c-.94,.76-2.09,1.28-3.53,1.28-2.95,0-4.54-1.96-4.54-4.97s1.53-5.1,4.23-5.1,4.2,1.8,4.2,4.81c0,.31-.04,.68-.05,.94Zm-2.23-1.6c0-1.57-.56-2.5-1.85-2.5-1.08,0-1.76,.72-1.89,2.61h3.75v-.11Z"/><path class="c" d="M175.37,216.53c-.72,.25-1.62,.32-2.75,.32,1.15,.52,1.73,1.26,1.73,2.45,0,1.86-1.44,3.21-3.83,3.21-.42,0-.77-.04-1.13-.14-.23,.16-.4,.41-.4,.7,0,.34,.2,.67,1.15,.67h1.46c2.11,0,3.47,1.13,3.47,2.7,0,1.91-1.64,3.04-4.75,3.04-3.39,0-4.34-1.08-4.34-2.99h2.07c0,.95,.41,1.37,2.3,1.37s2.39-.5,2.39-1.26c0-.7-.56-1.13-1.62-1.13h-1.44c-1.91,0-2.72-.85-2.72-1.84,0-.67,.41-1.33,1.12-1.76-1.17-.61-1.67-1.46-1.67-2.68,0-2.07,1.64-3.42,3.94-3.42,2.25,.05,3.29-.45,4.45-1.06l.58,1.84Zm-6.64,2.61c0,1.15,.63,1.87,1.69,1.87s1.69-.68,1.69-1.89-.58-1.8-1.73-1.8c-1.04,0-1.66,.72-1.66,1.82Z"/></g><g><path class="c" d="M79.65,101.69c0,5.58-2.53,10.77-5.85,14.62-.04,.04-.07,.08-.11,.12l5.1,3.13c5.1-3.4,11.76-9.39,11.76-18,0-6.65-2.92-13.03-9.44-17.55-3.28-2.41-7.03-3.91-10.94-4.8l-4.7,4.03c8.93,2.64,14.17,10.37,14.17,18.45Z"/><path class="b" d="M75.27,122.96c-.13-.93,.13-1.33,1.06-1.86,.74-.43,1.58-.95,2.46-1.53l-5.1-3.13c-4.65,5.34-11.15,6.66-22.75,6.66-1.73,0-3.19-.27-3.85-.4-.4-.53-.93-1.06-.93-13.16s.27-19.27,.93-23.39c.4-1.06,.66-1.73,1.86-2.26,1.73-.93,4.65-1.59,9.7-1.59,2.47,0,4.75,.34,6.83,.96l4.7-4.03c-3.84-.88-7.83-1.18-11.66-1.18-2.92,0-6.78,.13-12.23,.53-5.58,.53-11.7,.53-18.88,.66-.27,.27-.4,.67-.4,.93l.4,2.79c8.64,1.99,9.17,2.92,9.3,6.65,.13,7.18,.4,16.61,.4,24.19v15.55c0,15.68-.4,27.12-1.73,29.38-.93,1.99-4.92,2.79-7.58,3.32-.13,.8,.13,3.19,.66,3.72,.13,.13,.53,.13,2.13,.13,.8,0,3.32-.4,8.11-.4,5.05,0,15.15,.13,16.61,.13,1.33,0,1.73,0,1.86-.27,.13-.53,.8-2.53,.93-3.19-2.92-.66-8.77-1.59-10.23-2.79-.53-.53-1.2-1.59-1.33-3.59-.27-8.51-.4-16.62-.4-26.18,0-1.06,.93-1.73,1.86-1.99,.8-.27,2.39-.4,6.78-.4,5.12,0,7.69,.23,9.58,1.67l11.72-3.04c-.42-1.24-.69-2.23-.83-2.88Z"/><path class="c" d="M109.43,164.56c-12.36-6.11-18.48-12.36-24.72-21.93-4.6-6.8-7.32-13-8.61-16.79l-11.72,3.04c1.4,1.07,2.43,2.81,3.85,5.64,4.79,8.91,9.04,16.48,14.75,21.8,7.31,6.65,15.42,10.9,27.12,12.23,.27,0,.66-1.6,.66-2.66,0-.4-.13-.66-1.33-1.33Z"/></g><g><path class="c" d="M192.72,83.69c5.62,2.61,8.62,8.89,8.62,17.64,0,6.83-1.72,11.75-5.44,14.98l3.24,4.33c10.35-3.45,16.31-10.7,16.31-20.22,0-7.19-3.4-12.94-10.32-17.12-2.88-1.81-6.36-3.14-10.59-4.04l-2.69,4.04c.29,.13,.59,.25,.87,.4Z"/><path class="b" d="M190.63,122.5c3.1-.36,5.94-1,8.51-1.86l-3.24-4.33c-3.68,3.2-9.3,4.75-17.16,4.88h-6.01l-1.44,.13v-39.98c2.48-.13,3.92-.26,5.62-.26,6.63,0,11.46,.68,14.94,2.22l2.69-4.04c-4.61-.98-10.11-1.45-16.71-1.45-3.4,0-12.67,.26-19.86,.65l-12.54,.65v3.01h1.57c11.11-.26,12.02,1.04,11.76,18.68v42.86c.26,17.9-.78,19.6-11.11,19.6h-2.74v3h41.68v-3h-4.18c-10.32,0-11.37-1.7-11.11-19.6v-19.47h3.53c2.37-.19,4.2,.31,6.92,2.88l12.88-1.64c-1.44-1.28-2.75-2.25-3.99-2.94Z"/><path class="c" d="M236.5,163.26c-9.02,0-15.68-4.83-26-18.82-6.84-9.35-11.84-15.42-15.87-19.02l-12.88,1.64c2.83,2.67,6.61,7.59,12.95,16.33,7.58,11.11,15.03,20.12,19.08,22.87h23.39v-3h-.65Z"/></g></svg>