<?xml version="1.0" encoding="UTF-8"?><svg id="a" xmlns="http://www.w3.org/2000/svg" viewBox="0 0 260 260"><defs><style>.b{fill:#b3b3b3;}.c{fill:#2997ff;}.d{fill:none;stroke:#2997ff;stroke-linecap:round;stroke-linejoin:round;stroke-width:2px;}</style></defs><path class="b" d="M136.57,117.77c2.13,2.26,3.72,4.92,4.79,8.11,1.06-.13,3.99-.93,4.39-.53,.4,.27,.4,.53,.13,1.06-.27,1.2-1.06,3.46-2.26,3.72-10.23,2.26-26.58,5.45-32.43,7.18-.67,.13-.93,1.06-.93,2.39,.4,14.75,7.71,20.07,16.75,20.07,6.11,0,11.3-2.53,15.82-6.51,.4-.53,1.99-.4,1.86-.13-.13,2.79-.27,3.72-.93,4.52-5.45,4.65-11.96,7.18-16.35,8.51-1.73,.53-3.32,.67-4.52,.67-8.91,0-14.75-5.58-16.35-7.18-1.99-2.13-5.98-8.11-5.98-16.88,0-11.7,6.91-20.6,13.42-25.52,3.06-2.39,7.98-4.25,11.83-4.25,4.25,0,8.64,2.53,10.77,4.79Zm-15.68,0c-.93,0-2.13,.53-3.46,1.33-4.25,3.06-6.25,9.17-6.11,14.49,5.85-1.73,12.49-2.79,19.54-4.52,.8-.27,1.46-.67,1.46-2.13,0-2.92-5.45-9.17-11.43-9.17Z"/><g><path class="c" d="M144.73,99.04h-4.59v3.48h4v1.76h-4v3.66h4.92v1.78h-7.29v-12.44h7.22l-.25,1.76Z"/><path class="c" d="M151.48,109.76c-.72,2.23-2.12,3.67-4.95,3.89l-.23-1.67c1.89-.29,2.5-.9,3.04-2.25h-.79l-3.02-9.52h2.45l2.07,8,2.16-8h2.38l-3.1,9.56Z"/><path class="c" d="M163.63,105.67h-5.98c.18,1.95,1.08,2.57,2.34,2.57,.85,0,1.55-.27,2.38-.85l.95,1.31c-.94,.76-2.09,1.28-3.53,1.28-2.95,0-4.54-1.96-4.54-4.97s1.53-5.1,4.23-5.1,4.2,1.8,4.2,4.81c0,.31-.04,.68-.05,.94Zm-2.23-1.6c0-1.57-.56-2.5-1.85-2.5-1.08,0-1.76,.72-1.89,2.61h3.75v-.11Z"/></g><line class="d" x1="134.99" y1="111.04" x2="123" y2="123.02"/></svg>