<?xml version="1.0" encoding="UTF-8"?><svg id="a" xmlns="http://www.w3.org/2000/svg" viewBox="0 0 260 260"><defs><style>.b{fill:#b3b3b3;}.c{fill:#2997ff;}</style></defs><g><path class="c" d="M64.45,216.76h-2.38v-12.44h2.38v12.44Z"/><path class="c" d="M75.03,209.87v6.9h-2.3v-6.54c0-1.19-.45-1.53-1.17-1.53-.83,0-1.44,.56-2,1.44v6.62h-2.3v-9.52h2l.18,1.24c.74-.95,1.69-1.51,2.9-1.51,1.71,0,2.7,1.08,2.7,2.9Z"/><path class="c" d="M83.11,216.31c-.68,.49-1.55,.72-2.39,.72-1.87-.02-2.86-1.08-2.86-3.11v-5.02h-1.49v-1.66h1.49v-2.11l2.3-.27v2.38h2.21l-.23,1.66h-1.98v4.97c0,.94,.31,1.31,1.01,1.31,.36,0,.72-.11,1.13-.34l.81,1.48Z"/><path class="c" d="M91.86,212.71h-5.98c.18,1.95,1.08,2.57,2.34,2.57,.85,0,1.55-.27,2.38-.85l.95,1.31c-.94,.76-2.09,1.28-3.53,1.28-2.95,0-4.54-1.96-4.54-4.97s1.53-5.1,4.23-5.1,4.2,1.8,4.2,4.81c0,.31-.04,.68-.05,.94Zm-2.23-1.6c0-1.57-.56-2.5-1.85-2.5-1.08,0-1.76,.72-1.89,2.61h3.75v-.11Z"/><path class="c" d="M99.6,207.11l-.4,2.23c-.29-.07-.5-.11-.85-.11-1.15,0-1.75,.85-2.11,2.45v5.08h-2.3v-9.52h2l.22,1.87c.45-1.37,1.37-2.12,2.48-2.12,.34,0,.65,.04,.95,.13Z"/><path class="c" d="M103.6,203.82c0,.77-.59,1.39-1.46,1.39s-1.44-.61-1.44-1.39,.59-1.4,1.44-1.4,1.46,.61,1.46,1.4Zm-.29,12.95h-2.3v-9.52h2.3v9.52Z"/><path class="c" d="M114.4,211.99c0,3.01-1.67,5.04-4.48,5.04s-4.48-1.91-4.48-5.04,1.67-5.02,4.5-5.02,4.46,1.91,4.46,5.02Zm-6.54,0c0,2.29,.7,3.29,2.05,3.29s2.05-1.03,2.05-3.29-.7-3.28-2.03-3.28-2.07,1.03-2.07,3.28Z"/><path class="c" d="M122.17,207.11l-.4,2.23c-.29-.07-.5-.11-.85-.11-1.15,0-1.75,.85-2.11,2.45v5.08h-2.3v-9.52h2l.22,1.87c.45-1.37,1.37-2.12,2.48-2.12,.34,0,.65,.04,.95,.13Z"/><path class="c" d="M135.87,206.86c0,1.53-1.08,2.5-2.45,3.37l2.77,2.61c.36-.77,.7-1.73,.96-2.81l2,.59c-.47,1.4-1.03,2.54-1.64,3.44l2.11,1.91-1.85,1.06-1.57-1.51c-1.08,1.01-2.36,1.51-3.96,1.51-2.52,0-4.27-1.35-4.27-3.44,0-1.53,.9-2.54,2.49-3.55-1.17-1.13-1.75-1.91-1.75-3.1,0-1.55,1.19-2.9,3.57-2.9,2.21,0,3.6,1.21,3.6,2.81Zm-5.49,6.63c0,1.13,.88,1.84,2.21,1.84,.95,0,1.69-.34,2.38-.96l-3.21-3.08c-.95,.65-1.39,1.31-1.39,2.2Zm.56-6.54c0,.76,.4,1.28,1.21,2.05,.95-.61,1.51-1.21,1.51-2.05s-.52-1.33-1.37-1.33-1.35,.54-1.35,1.33Z"/><path class="c" d="M154.5,205.37l-1.21,1.4c-.72-.58-1.46-.88-2.3-.88-1.73,0-3.06,1.26-3.06,4.63s1.3,4.61,3.06,4.61c1.08,0,1.82-.47,2.54-1.01l1.12,1.4c-.76,.77-2.05,1.51-3.75,1.51-3.22,0-5.47-2.29-5.47-6.52s2.38-6.46,5.44-6.46c1.58,0,2.61,.47,3.64,1.31Z"/><path class="c" d="M164.26,211.99c0,3.01-1.67,5.04-4.48,5.04s-4.48-1.91-4.48-5.04,1.67-5.02,4.5-5.02,4.47,1.91,4.47,5.02Zm-6.54,0c0,2.29,.7,3.29,2.05,3.29s2.05-1.03,2.05-3.29-.7-3.28-2.04-3.28-2.07,1.03-2.07,3.28Z"/><path class="c" d="M172.03,207.11l-.4,2.23c-.29-.07-.5-.11-.85-.11-1.15,0-1.75,.85-2.11,2.45v5.08h-2.3v-9.52h2l.22,1.87c.45-1.37,1.37-2.12,2.49-2.12,.34,0,.65,.04,.95,.13Z"/><path class="c" d="M181.21,209.87v6.9h-2.3v-6.54c0-1.19-.45-1.53-1.17-1.53-.83,0-1.44,.56-2,1.44v6.62h-2.3v-9.52h2l.18,1.24c.74-.95,1.69-1.51,2.9-1.51,1.71,0,2.7,1.08,2.7,2.9Z"/><path class="c" d="M191.6,212.71h-5.98c.18,1.95,1.08,2.57,2.34,2.57,.85,0,1.55-.27,2.38-.85l.96,1.31c-.94,.76-2.09,1.28-3.53,1.28-2.95,0-4.54-1.96-4.54-4.97s1.53-5.1,4.23-5.1,4.2,1.8,4.2,4.81c0,.31-.04,.68-.05,.94Zm-2.23-1.6c0-1.57-.56-2.5-1.85-2.5-1.08,0-1.76,.72-1.89,2.61h3.75v-.11Z"/><path class="c" d="M199.34,207.11l-.4,2.23c-.29-.07-.5-.11-.85-.11-1.15,0-1.75,.85-2.11,2.45v5.08h-2.3v-9.52h2l.22,1.87c.45-1.37,1.37-2.12,2.49-2.12,.34,0,.65,.04,.95,.13Z"/></g><g><path class="b" d="M111.55,95.9c-1.2,0-2.53,.13-4.79,.27-1.99,.13-4.39,.13-13.96,.13-.4,.27-1.06,2.92-1.06,3.72,7.58,.93,8.24,1.73,8.24,2.53s-1.2,4.12-2.53,8.11c-2.26,6.25-7.58,19.01-9.97,23.79-.27,.53-1.2,.53-1.33,0-.2-.52-.4-1.04-.6-1.58l-4.95,9.89c.52,1.57,1.04,3.14,1.56,4.72,.4,1.2,.93,1.46,1.46,1.46,1.6,0,2.79-.4,3.19-1.6,.4-1.33,2.13-5.05,4.52-10.23,3.32-7.04,11.96-26.72,14.22-31.1,1.99-3.72,2.79-5.32,4.79-5.98,1.86-.66,1.86-.8,1.86-1.59v-1.86c0-.66-.27-.66-.66-.66Z"/><path class="c" d="M75.4,103.21c-.66-2.13,.13-2.53,4.65-3.46,.66-.4,.66-1.59,.66-3.85-5.32,.27-11.3,.4-19.14,.4-.8,0-1.33,.13-1.46,1.06-.27,.8-.53,2.26-.53,2.79,6.11,.93,6.25,.8,8.51,7.71,.27,.8,.4,1.73-.13,2.66-3.42,8.49-6.24,14.57-9.95,22.49l2.27,5.22c2.33-5.35,5.12-11.55,9.95-21.86,.27-.53,.66-.4,.8,.13,3.4,8.38,6.6,17.24,9.61,26.25l4.95-9.89c-3.33-8.85-7.16-20.26-10.17-29.66Z"/><path class="b" d="M57.46,134.18c-.13,.27-.8,.67-1.06-.13-4.39-10.5-10.37-26.58-11.17-29.38-.8-3.72-.4-4.12,5.05-5.18l-.8-2.39c-.13-.93-.4-1.2-1.33-1.2-5.72,0-11.03,.4-17.41,.4-.53,0-.66,.13-.8,.93l-.93,2.26c-.13,.53,0,.66,.4,.8,4.39,.66,5.32,1.46,7.44,6.65,6.11,14.89,11.03,26.85,15.42,40.01,.27,1.06,.53,1.59,.93,1.73,.53,.27,.8,.27,1.73,.27,.8,0,1.06-.67,1.33-1.33,1.39-3.28,2.62-6.18,4.01-9.38l-2.27-5.22c-.18,.39-.36,.78-.55,1.17Z"/><path class="b" d="M218.01,93.51v3.06h1.33c3.59,.13,5.32,1.33,5.32,3.46q0,.8-1.86,5.85l-10.65,27.29,1.77,3.73,11.81-30.23c3.19-8.64,3.85-9.44,8.64-10.1h1.06v-3.06h-17.41Z"/><polygon class="c" points="210.96 136.18 194.88 93.51 192.35 93.51 175.74 136.18 174.64 133.24 169.91 146.14 171.09 149.2 174.01 149.2 190.23 106.67 206.18 149.2 209.1 149.2 213.91 136.9 212.14 133.17 210.96 136.18"/><path class="b" d="M164.97,107.47c-2.39-5.58-2.66-6.38-2.66-7.71,0-2.26,1.86-3.19,6.25-3.19h.93v-3.06h-24.46v3.06h.93c3.85,.13,5.58,1.46,7.04,5.72,.4,.8,1.06,2.79,1.73,4.39l15.17,39.47,4.73-12.89-9.67-25.78Z"/></g></svg>