<?xml version="1.0" encoding="UTF-8"?><svg id="a" xmlns="http://www.w3.org/2000/svg" viewBox="0 0 260 260"><defs><style>.b{fill:#b3b3b3;}.c{fill:#2997ff;}</style></defs><g><path class="c" d="M107.67,212.62h-3.24v10.55h-2.39v-10.55h-3.35v-1.89h9.24l-.25,1.89Z"/><path class="c" d="M117.14,216.28v6.9h-2.3v-6.54c0-1.19-.47-1.53-1.17-1.53-.81,0-1.44,.56-2,1.42v6.64h-2.3v-13.32l2.3-.23v5.17c.74-.9,1.62-1.4,2.77-1.4,1.69,0,2.7,1.1,2.7,2.9Z"/><path class="c" d="M127.53,219.12h-5.98c.18,1.94,1.08,2.57,2.34,2.57,.85,0,1.55-.27,2.38-.85l.96,1.31c-.94,.76-2.09,1.28-3.53,1.28-2.95,0-4.54-1.96-4.54-4.97s1.53-5.1,4.23-5.1,4.2,1.8,4.2,4.81c0,.31-.04,.68-.05,.94Zm-2.23-1.6c0-1.57-.56-2.5-1.85-2.5-1.08,0-1.76,.72-1.89,2.61h3.75v-.11Z"/><path class="c" d="M141.96,212.62h-3.24v10.55h-2.4v-10.55h-3.35v-1.89h9.24l-.25,1.89Z"/><path class="c" d="M150.5,221.88l-.49,1.53c-1.06-.09-1.75-.45-2.11-1.39-.68,1.01-1.71,1.42-2.86,1.42-1.89,0-3.06-1.21-3.06-2.93,0-2.07,1.55-3.19,4.32-3.19h1.21v-.54c0-1.24-.56-1.66-1.78-1.66-.65,0-1.57,.18-2.54,.5l-.52-1.57c1.17-.45,2.38-.68,3.44-.68,2.56,0,3.67,1.17,3.67,3.28v4c0,.77,.25,1.04,.72,1.22Zm-2.99-1.28v-1.93h-.96c-1.49,0-2.23,.54-2.23,1.66,0,.92,.47,1.44,1.35,1.44,.79,0,1.4-.41,1.84-1.17Z"/><path class="c" d="M155.12,210.23c0,.77-.59,1.39-1.46,1.39s-1.44-.61-1.44-1.39,.59-1.4,1.44-1.4,1.46,.61,1.46,1.4Zm-.29,12.95h-2.3v-9.52h2.3v9.52Z"/><path class="c" d="M157.42,221v-11.16l2.3-.25v11.34c0,.45,.14,.67,.54,.67,.2,0,.38-.04,.52-.09l.5,1.62c-.4,.18-.96,.32-1.55,.32-1.46,0-2.32-.88-2.32-2.45Z"/></g><g><path class="c" d="M239.85,180.52c-.37-.75-1.37-1-1.62-1-.5,.12-1.75,.62-8.36,.87-4.87,.25-10.85-1.12-16.84-3.37-8.36-3.12-16.59-9.73-20.83-19.21-.25-.62,.37-2,.75-2.12,1-.44,2.36-.97,4.07-1.75l-2.98-3.67c-4.49,2.06-8.65,2.92-10.32,2.92-1.56,0-3.88-.26-6.58-.93l-1.83,4.45c2.14,.82,3.72,1.86,5.17,4.21,2.74,4.12,6.99,9.86,10.23,12.73,5.49,4.87,10.85,7.98,17.72,9.61,5.49,1.25,9.61,1.62,13.85,1.62,5.61,0,13.85-1.25,16.72-2.12,1-1.62,1.25-1.25,.87-2.25Z"/><path class="b" d="M157.13,139.35c-5.24-6.99-7.48-17.59-7.48-24.7,0-14.6,3.62-24.83,12.73-32.19,5.99-4.87,11.6-6.36,15.84-6.36,11.98,0,19.46,3.87,26.57,11.48,7.98,8.36,9.86,18.71,9.86,27.45,0,12.48-3.87,21.21-11.35,28.94-2.74,2.79-6.08,4.85-9.26,6.31l2.98,3.67c3.18-1.46,7.59-3.8,13.27-8.11,10.35-7.74,14.97-20.59,14.97-33.56,0-8.61-2.49-19.96-10.98-28.32-9.11-9.11-21.33-12.6-32.06-12.6s-21.46,5.24-27.57,10.23c-14.22,11.48-16.09,25.08-16.09,34.06,0,14.97,8.23,25.58,13.97,30.57,5.86,5.36,15.72,8.36,20.09,9.61,.99,.31,1.88,.59,2.69,.9l1.83-4.45c-6.18-1.52-14.35-5.2-19.99-12.92Z"/></g><g><path class="c" d="M126.11,166.3c-1.37,5.61-5.61,8.23-13.1,8.23-4.87,0-11.98-1.37-17.96-3.49-17.09-5.74-24.08-7.24-34.68-7.24-1.25,0-2,0-3.62,.12l18.34-10.11c.52-.18,1-.34,1.45-.5l-2.57-3.64c-3.1,1.66-6.62,2.72-10.54,3.16l-.83,3.25c.79-.04,1.59-.09,2.51-.14l-11.23,6.49c-1,.5-1.75,.87-4.49,2.37-1.62,.75-2.99,1.5-5.36,2.74-5.49,2.75-5.86,3.12-5.86,4.87,0,1.25,.87,2,2.12,2s2.12-.5,5.11-3.12c4.37-3.62,6.99-4.62,11.6-4.62,6.99,0,13.72,2.62,24.45,9.36,11.48,7.36,16.47,9.23,24.7,9.23,12.48,0,20.84-6.99,22.58-18.96h-2.62Z"/><path class="b" d="M59.24,153.08c-9.48,0-16.97-2.87-22.46-8.48-5.74-5.99-9.11-17.59-9.11-31.94,0-12.1,3.12-23.7,8.11-29.69,5.11-6.24,13.47-9.86,22.96-9.86,8.23,0,15.59,2.75,20.96,7.86,6.61,6.24,10.35,17.72,10.35,32.19,0,18.39-5.63,30.9-16.09,36.53l2.57,3.64c3.29-1.13,4.73-1.68,7.03-3,12.98-7.11,20.59-20.96,20.59-37.3,0-12.85-4.87-24.45-13.22-31.81-7.98-6.99-20.21-11.23-32.56-11.23-26.32,0-44.79,17.59-44.79,42.67s18.34,43.54,45.29,43.54c1.47,0,2.59-.04,3.72-.1l.83-3.25c-1.35,.15-2.74,.23-4.18,.23Z"/></g></svg>