<svg xmlns="http://www.w3.org/2000/svg" width="480.85" height="157.11" viewBox="0 0 480.85 157.11"><defs><style>.d{fill:#b3b3b3}.e{fill:none;stroke:#2997ff;stroke-miterlimit:10;stroke-width:2px}</style></defs><g id="b"><g id="c"><path d="M202.88 139.31c-12.86 0-20.52 1.17-25.59 1.56-.39-.65-.52-3.25 0-3.9 1.95-.39 4.16-.91 5.59-1.3 2.6-.91 3.12-2.21 3.51-6.36.13-3.9.26-11.82.39-32.87.13-17.15 0-22.73-.26-27.28-.13-2.47-.65-3.64-1.95-4.42-1.43-.78-3.51-1.3-6.11-1.69-.39-.65-.26-2.86.26-3.38 4.55-.65 12.73-3.38 17.41-5.98.26-.26 1.04.65 1.04.91-.26 1.69-.39 5.85-.39 8.18 0 .26.52.39.65.26 8.7-5.97 14.29-7.92 18.58-7.92 5.2 0 9.87 2.6 12.86 5.98 4.42 4.94 6.11 11.56 6.11 17.02 0 10.91-4.29 18.19-11.3 23.9-6.37 5.07-15.2 7.79-21.3 7.79-1.3 0-3.38-.39-5.2-.78-.13-.13-.65.26-.65.39 0 8.83.13 15.72.39 20.26.13 2.86.91 4.29 3.9 4.81 1.69.39 5.07.78 7.79 1.04.39.65.13 3.38-.52 3.77h-5.2zm-4.94-72.22c-.65.39-1.3 1.69-1.3 2.73-.26 3.25-.13 20.26-.13 24.68.13 2.86 1.17 4.81 2.6 5.98 2.6 2.08 5.97 3.12 10.26 3.12 2.73 0 6.11-.91 9.09-3.51 3.9-3.25 5.98-9.35 5.98-16.76 0-5.85-1.43-11.43-4.42-15.2-2.99-3.64-6.75-5.2-11.04-5.2-3.64 0-7.79 1.56-11.04 4.16zm64.96-13.25c.65 1.82 1.3 6.24 1.17 8.57 5.33-5.58 11.82-8.57 18.71-8.57 14.81 0 25.33 11.43 25.33 27.54 0 17.02-10.91 28.97-26.37 28.97-6.88 0-11.69-2.08-17.67-7.79v20c-.26 14.03.13 14.81 7.79 14.94h.78v2.99h-27.41v-2.99h1.82c7.66-.13 7.92-.78 7.79-14.94V75.02c.26-14.16-.13-14.81-7.79-15.07h-1.82v-2.99c3.77-.39 9.61-1.56 15.98-3.12h1.69zm1.17 44.56c4.81 5.85 9.74 8.57 15.46 8.57 4.42 0 8.83-2.08 12.21-5.72 3.77-4.16 5.71-11.04 5.71-20.13s-2.34-15.85-7.53-19.87c-2.99-2.47-6.36-3.64-10-3.64-5.98 0-10.78 2.73-15.85 8.96V98.4z" class="d"/><path d="M197.94 66.74c-.65.39-1.3 1.69-1.3 2.73-.26 3.25-.13 20.26-.13 24.68.13 2.86 1.17 4.81 2.6 5.97 2.6 2.08 5.97 3.12 10.26 3.12 2.73 0 6.11-.91 9.09-3.51 3.9-3.25 5.98-9.35 5.98-16.76 0-5.84-1.43-11.43-4.42-15.2-2.99-3.64-6.75-5.2-11.04-5.2-3.64 0-7.79 1.56-11.04 4.16zm66.13 31.31c4.81 5.85 9.74 8.57 15.46 8.57 4.42 0 8.83-2.08 12.21-5.72 3.77-4.16 5.71-11.04 5.71-20.13s-2.34-15.85-7.54-19.87c-2.99-2.47-6.36-3.64-10-3.64-5.97 0-10.78 2.73-15.85 8.96v31.83z" class="e"/><path d="M407.64 81.25c0 10-4.03 18.71-12.08 23.77-3.51 2.34-9.61 4.81-15.07 4.81-18.97 0-25.85-14.42-25.85-27.8 0-10.26 4.68-17.15 11.3-21.69 4.68-2.99 10.91-5.2 17.02-5.2 15.59 0 24.68 11.56 24.68 26.11zm-35.33-19.23c-3.38 2.21-6.62 6.88-6.62 16.76 0 15.33 7.66 25.72 18.06 25.72 2.73 0 5.72-.65 7.92-2.73 3.51-3.25 4.94-8.44 4.94-16.37 0-15.07-7.01-25.2-18.06-25.2-2.08 0-4.55.65-6.24 1.82zm103.74 20.14c0 16.24-11.82 28.19-27.8 28.19-6.37 0-13.77-2.47-18.32-6.23-6.11-5.07-9.61-13.12-9.61-22.47 0-15.72 12.21-27.8 27.93-27.8s27.8 12.08 27.8 28.32zm-45.07 0c0 17.54 5.2 25.33 17.15 25.33s17.28-7.79 17.28-24.94-5.46-25.72-17.15-25.72-17.28 8.18-17.28 25.33z" class="d"/><path d="M372.31 61.68c-3.38 2.21-6.62 6.88-6.62 16.76 0 15.33 7.66 25.72 18.05 25.72 2.73 0 5.72-.65 7.92-2.73 3.51-3.25 4.94-8.44 4.94-16.37 0-15.07-7.02-25.2-18.06-25.2-2.08 0-4.55.65-6.23 1.82zm58.67 20.13c0 17.54 5.2 25.33 17.15 25.33s17.28-7.79 17.28-24.94-5.46-25.72-17.15-25.72-17.28 8.18-17.28 25.33z" class="e"/><path d="M5.07 102.72c1.82-.52 2.6-2.34 2.73-4.55.26-4.03.26-13.12.26-21.3 0-5.07-.13-8.44-.26-10.39-.39-1.82-1.95-3.12-6.75-4.94-.26-.78.13-2.6.65-2.99 5.2-.52 12.73-2.99 15.98-4.81.13.13.52.52.52.91-.13 1.43-.26 5.2-.26 7.4 0 .26.39.39.65.26 6.75-5.58 13.12-8.44 17.67-8.44 5.58 0 9.61 2.47 12.47 6.75 2.47 3.9 3.38 9.09 3.38 15.33 0 7.27 0 18.96.26 23.51 0 1.04.39 2.08 1.3 2.47 2.08 1.04 3.9 1.3 6.5 1.69.39.65.26 3.12-.39 3.77-1.82 0-5.72-.39-12.47-.39-5.98 0-9.74.26-12.86.39-.39-.52-.52-3.25 0-3.77 2.47-.26 4.55-.65 5.33-.91 1.82-.65 2.21-1.95 2.34-5.33.13-7.27.26-20.39-.39-25.2-.26-2.08-1.17-5.59-3.64-7.66-1.82-1.69-4.29-2.99-8.05-2.99s-7.79 1.56-10.78 4.16c-.78.78-1.3 1.95-1.3 4.68 0 9.22 0 21.82.26 27.8.13 2.99.65 3.9 2.47 4.42 1.43.52 3.38.78 5.46 1.04.26.52.13 3.12-.39 3.77-1.95 0-5.58-.39-12.73-.39-6.37 0-11.04.39-12.6.39-.52-.52-.52-3.25 0-3.77 1.82-.26 3.12-.52 4.68-.91zM88.9 52.58c.65 1.69 1.56 7.4 1.69 10.78 5.97-7.14 12.86-10.78 20.13-10.78 6.5 0 11.69 2.47 14.29 6.75 1.82 3.12 2.21 5.07 2.21 13.38v16.37c-.26 14.03.13 14.81 7.66 14.94h.91v2.99H108.9v-2.99h1.3c3.9.13 5.72-.52 6.88-2.47.52-1.04.65-1.82.78-4.29v-1.3l.13-6.88V72.19c0-7.53-.26-8.7-1.69-11.04-1.69-2.86-4.94-4.55-8.96-4.55-6.24 0-11.69 3.64-16.76 11.04v21.43c-.26 14.03.13 14.81 7.79 14.94h.78V107H72.78v-2.99h.91c7.66-.13 7.92-.78 7.79-14.94V73.48c.13-14.16-.13-14.81-7.79-15.07h-.91v-2.86c5.46-.65 8.83-1.43 14.29-2.99h1.82z" class="d"/><path d="M34.42 107.4c-.39-.52-.52-3.25 0-3.77 2.47-.26 4.55-.65 5.33-.91 1.82-.65 2.21-1.95 2.34-5.33.13-7.27.26-20.39-.39-25.2-.26-2.08-1.17-5.59-3.64-7.66-1.82-1.69-4.29-2.99-8.05-2.99s-7.79 1.56-10.78 4.16c-.78.78-1.3 1.95-1.3 4.68 0 9.22 0 21.82.26 27.8.13 2.99.65 3.9 2.47 4.42 1.43.52 3.38.78 5.46 1.04.26.52.13 3.12-.39 3.77m83.17-.4v-2.99h1.3c3.9.13 5.72-.52 6.88-2.47.52-1.04.65-1.82.78-4.29v-1.3l.13-6.88V72.19c0-7.53-.26-8.7-1.69-11.04-1.69-2.86-4.94-4.55-8.96-4.55-6.24 0-11.69 3.64-16.76 11.04v21.43c-.26 14.03.13 14.81 7.79 14.94h.78V107" class="e"/></g></g></svg>