<svg xmlns="http://www.w3.org/2000/svg" id="Layer_1" width="480" height="73.6" viewBox="0 0 480 73.6"><style>.st0{fill:#b3b3b3}.st1{fill:none;stroke:#2997ff;stroke-width:1.715;stroke-linecap:round;stroke-linejoin:round}</style><g id="ad6548bb-9c4d-407c-9915-b2dde55d8b92"><g id="b01ea5f5-87c6-4fff-8991-01651ec9d55d"><path d="M.4.9c1.9 0 6 .3 10.9.3 4.5 0 8.6-.3 10.7-.3.6.3.6 2.7.3 3.3-1.5.2-2.9.4-4.4.9-.7.3-1 .9-.9 1.6 1.3 4.4 9.1 25 9.9 26.8.1.3.4.1.6 0 2.3-5.6 7.1-17.9 8.7-23.2 1.1-3.6.3-4.5-.9-5-1.6-.5-3.3-.9-5-1-.3-.6 0-3 .4-3.3 1.2 0 5.7.3 10 .3 3.9 0 7.8-.3 9.2-.3.4.3.3 2.7 0 3.3-1.4.2-2.7.4-4 .8-2.1.8-3.1 2.2-4.4 5-3 6.6-6.4 15-10.5 25.3-2.1 4.8-3 8.1-3.8 10.6-1.7-.2-3.5-.1-5.2.1-.9-3-1.9-6.2-3.3-9.8-3.1-8.3-6.9-18-9-23.2-2.5-6-2.7-6.9-5.5-7.8-1.1-.6-2.6-.9-4.1-1C-.1 3.2 0 2 .4.9zm80.5 46.2L65 11.1c-2.9-6.7-3.9-7.8-7.7-8.1h-.6V.4H77V3h-.8c-3.7 0-5 .7-5 2.6 0 1.1.1 1.5 2.1 5.9l12.2 27.2 10.9-24.3c2.2-4.9 2.6-6 2.6-7.5 0-2.2-1.7-3.7-4.5-3.8h-.9V.4h15.2V3l-1 .1c-3.6.9-5.3 3.3-9 11.9L84.1 47.1h-3.2zM160.7.9c2 0 6 .3 10.8.3s9.7-.3 11.3-.3c.4.3.5 2.7.3 3.3-1.4.2-2.7.5-4.1.9-.7.3-1 1.1-.9 1.9 1.9 6.3 9.3 25.3 10 26.8.1 0 .3.1.4 0 3.4-7.4 8.4-19.8 9.2-25.4.3-1.2.3-2.6-1.9-3.3-1.6-.4-3.3-.7-4.9-.9-.3-1.1-.1-2.2.4-3.3 1.4 0 5.7.3 9.6.3s7.3-.3 10.4-.3c.4.4.4 2.6.1 3.3-1.4.1-2.7.4-4 .9-2 .6-3.3 2.1-4.4 5-7.3 19.5-16.1 38.3-26.3 56.4-1.3 2.3-2.7 4.7-3.4 6.3l-.8.4c-2.1-.6-4.1-1.6-5.8-3-.2-.6-.2-1.2-.1-1.8 3.7-4.5 12.3-15.6 16.4-24.4 0-.1-.7-1.5-.9-2-2.5-6.3-7.2-18.7-10.7-26.9-2.9-7.2-4.1-9.3-7.2-10.1-1.1-.3-2-.4-3.8-.7-.4-.8-.2-3.1.3-3.4zm98.3 11c2.3-5.2 2.3-5.2 2.3-6.1 0-1.5-2.1-2.7-5.2-2.7h-.9V.4H271V3h-.5c-4.5.4-6 2-9 9.8L241.4 61c-3.7 8.9-6.1 11.9-9.8 11.9-2.1 0-3.6-1.4-3.6-3.3 0-2.7 1.5-4.5 5.7-6.3 4.5-2 5-2.5 6.7-6.3l4.2-10.7-17-36.2c-2.7-6-3.8-7-7.8-7.2h-.8V.4h20.6V3h-.6c-3.4.1-4.9.8-4.9 2.2 0 .8 0 .8 2.1 5.3l12.3 26.3L259 11.9zm64.1-11c1.8 0 5.6.3 11.1.3 3.9 0 9.3-.3 11.4-.3.4.3.4 2.6.1 3.3-1.5.3-3.6.7-4.4.9-.9.2-1.4 1-1.2 1.9 0 .1 0 .2.1.3.9 4.4 6.3 22.1 7.7 26.3.3 0 .3.1.4-.1 2.9-7.1 8.8-22.6 10.7-29.6 1.8.2 3.7.2 5.5-.1.6 2.3 1.5 5.2 2.9 9 2.7 8.1 7 19.3 7.8 21.2.1 0 .3.3.4 0 2-5.1 7.2-20.6 8.2-25.2.3-1.8.3-2.7-1.9-3.4-1.7-.5-3.4-.9-5.1-1-.3-.8 0-2.7.4-3.3 1.5 0 6.3.3 9.9.3 4.5 0 7.5-.3 9.7-.3.4 1 .4 2.2 0 3.3-1 .1-2.1.3-3 .8-3 .9-3.9 2.3-5.1 5.1-2.6 6.4-10.7 28.8-13 35.8-1.8-.2-3.7-.2-5.5.1-2-6.9-9.3-26.2-10.7-29.5-.2-.1-.4-.1-.5.1-2.2 6.1-8.5 21.3-11.1 29.3-1.8-.3-3.6-.3-5.3 0-2.3-8.9-7.9-27.4-10.5-34.3-1.7-4.5-2.3-5.9-4.8-6.7-1.4-.3-2.8-.6-4.2-.7-.6-1.2-.5-2.4 0-3.5zm132.4 46.2l-13.4-35.7-13.6 35.7H426l-13.7-35.7c-.6-1.4-1.1-3-1.5-3.7-1.2-3.6-2.7-4.6-5.9-4.8h-.8V.4h20.5V3h-.8c-3.7 0-5.2.8-5.2 2.7 0 1.1.3 1.8 2.2 6.4l9 24L443.9.4h2.1l13.5 35.8 9.9-25.4c1.5-4.2 1.5-4.2 1.5-4.9 0-1.8-1.5-2.7-4.5-2.9h-1.1V.4H480V3h-.9c-4 .6-4.5 1.2-7.3 8.5l-14 35.7-2.3-.1z" class="st0"/><path d="M22.3 4.2c-1.5.2-2.9.4-4.4.9-.7.3-1 .9-.9 1.6 1.3 4.4 9.1 25 9.9 26.8.1.3.4.1.6 0 2.3-5.6 7.1-17.9 8.7-23.2 1.1-3.6.3-4.5-.9-5-1.6-.5-3.3-.9-5-1M77 3h-.8c-3.7 0-5 .7-5 2.6 0 1.1.1 1.5 2.1 5.9l12.2 27.2 10.9-24.3c2.2-4.9 2.6-6 2.6-7.5 0-2.2-1.7-3.7-4.5-3.8h-.9M183 4.2c-1.4.2-2.7.5-4.1.9-.7.3-1 1.1-.9 1.9 1.9 6.3 9.3 25.3 10 26.8.1 0 .3.1.4 0 3.4-7.4 8.4-19.8 9.2-25.4.3-1.2.3-2.6-1.9-3.3-1.6-.4-3.3-.7-4.9-.9M239.6 3h-.5c-3.4.1-4.9.8-4.9 2.2 0 .8 0 .8 2.1 5.3l12.3 26.3 10.4-25c2.3-5.2 2.3-5.2 2.3-6.1 0-1.5-2.1-2.7-5.2-2.7h-.9m90.4 1.2c-1.5.3-3.6.7-4.4.9-.9.2-1.4 1-1.2 1.9 0 .1 0 .2.1.3.9 4.4 6.3 22.1 7.7 26.3.3 0 .3.1.4-.1 2.9-7.1 8.8-22.6 10.7-29.6 1.8.2 3.7.2 5.5-.1.6 2.3 1.5 5.2 2.9 9 2.7 8.1 7 19.3 7.8 21.2.1 0 .3.3.4 0 2-5.1 7.2-20.6 8.2-25.2.3-1.8.3-2.7-1.9-3.4-1.7-.5-3.4-.9-5.1-1m48-1.4h-.8c-3.7 0-5.2.8-5.2 2.7 0 1.1.3 1.8 2.2 6.4l9 24 14-35.7h2.1l13.5 35.8 9.9-25.4c1.5-4.2 1.5-4.2 1.5-4.9 0-1.8-1.5-2.7-4.5-2.9h-1.1" class="st1"/></g></g></svg>