<svg xmlns="http://www.w3.org/2000/svg" id="a" viewBox="0 0 307.4 299.8" width="307.4" height="299.8"><style>.st0{fill:#b3b3b3}.st1{fill:#2997ff}</style><path d="M304.9 287.8c-29.3-.4-36.5 0-62.6 1.1l-2.2-2.5c1.1-29.7 2.2-51.7 2.2-91.2 0-51.4-1.1-64-4-91.5l2.2-2.2 62.2-10.9 2.5 2.9c-.4 30.8-1.1 61.9-1.1 92.6 0 49.9 1.5 71.3 3.3 99.1l-2.5 2.6zm-5.1-229.4c-25.7 3.3-32.6 4-57.2 8.3l-2.5-2.2c.4-6.9.4-14.1.4-21 0-8.7-.4-16.3-1.1-29.3l2.2-2.5 59-7.2 2.2 2.2-1.1 49.2-1.9 2.5z" class="st0"/><path d="M226.2 289.9h-.1c-1.9-.1-3.5-1.7-3.4-3.7.2-4.1.3-8.1.4-11.9.9-24.2 1.7-45.2 1.7-79.1 0-50.9-1-63.2-4-91.2-.2-1.9 1.2-3.7 3.1-3.9 2-.2 3.7 1.2 3.9 3.1 2.8 27.1 4 40.1 4 91.9 0 34.1-.8 55.1-1.7 79.4-.1 3.9-.3 7.8-.4 11.9-.1 2-1.6 3.5-3.5 3.5z" class="st1"/><path d="M16.6 31.6C16.6 14.1 31.2 0 48.2 0s31.5 14.1 31.5 31.5-14.1 31.6-31.5 31.6S16.6 49 16.6 31.6zM22 292.9V92.6h52.7V293c0-.1-52.7-.1-52.7-.1z" class="st0"/><path d="M7.4 296.4c-1.9 0-3.5-1.6-3.5-3.5V92.5c0-1.9 1.6-3.5 3.5-3.5s3.5 1.6 3.5 3.5v200.4c.1 2-1.5 3.5-3.5 3.5z" class="st1"/></svg>