<?xml version="1.0" encoding="utf-8"?>
<!-- Generator: Adobe Illustrator 26.2.1, SVG Export Plug-In . SVG Version: 6.00 Build 0)  -->
<svg version="1.1" id="a" xmlns="http://www.w3.org/2000/svg" xmlns:xlink="http://www.w3.org/1999/xlink" x="0px" y="0px"
	 viewBox="0 0 127.4 58.3" style="enable-background:new 0 0 127.4 58.3;" xml:space="preserve">
<style type="text/css">
	.st0{fill:#B3B3B3;}
	.st1{fill:#2997FF;}
</style>
<g>
	<path class="st0" d="M28.8,0L28.8,0l-0.1,3.1h0.1c12.1,0,17.7,8.4,17.7,26.5S41,55.4,28.7,55.4S11,47.3,11,29.2V29H0
		c0.1,9.5,3.7,17.7,9.9,22.9c4.7,3.9,12.3,6.4,18.9,6.4c16.5,0,28.7-12.3,28.7-29.1S45.2,0,28.8,0z"/>
	<path class="st1" d="M28.8,3.1V0C12.6,0,0,12.5,0,28.7V29h11C11,11.5,16.8,3.1,28.8,3.1z"/>
	<path class="st0" d="M101.3,0v9.4c13.2,0.5,14.5,6,14.5,16.8v5.3c0,11.4-1.4,17.3-16.4,17.3S83,43,83,31.4v-1.7H71.3
		c0.1,17.5,2.9,28.6,28.1,28.6s28-10.9,28-29.7S125.4,0.5,101.3,0L101.3,0z"/>
	<path class="st1" d="M83,26.4c0-11.4,1.4-16.9,16.4-16.9c0.7,0,1.3,0,1.9,0V0c-0.6,0-1.2,0-1.9,0C73.6,0,71.3,10.2,71.3,28.6v1.1
		H83V26.4z"/>
</g>
</svg>
