<svg xmlns="http://www.w3.org/2000/svg" id="a" width="598.97" height="61.19" viewBox="0 0 598.97 61.19"><defs><style>.b{fill:#b3b3b3}.c{fill:#2997ff}.d{fill:none;stroke:#2997ff;stroke-miterlimit:10;stroke-width:2px}</style></defs><path d="M463.25 54.21c1.82-.52 2.6-2.34 2.73-4.55.26-4.03.26-13.12.26-21.3 0-5.07-.13-8.44-.26-10.39-.39-1.82-1.95-3.12-6.75-4.94-.26-.78.13-2.6.65-2.99 5.2-.52 12.73-2.99 15.98-4.81.13.13.52.52.52.91-.13 1.43-.26 5.2-.26 7.4 0 .26.39.39.65.26 6.75-5.58 13.12-8.44 17.67-8.44 5.58 0 9.61 2.47 12.47 6.75 2.47 3.9 3.38 9.09 3.38 15.33 0 7.27 0 18.96.26 23.51 0 1.04.39 2.08 1.3 2.47 2.08 1.04 3.9 1.3 6.5 1.69.39.65.26 3.12-.39 3.77-1.82 0-5.72-.39-12.47-.39-5.98 0-9.74.26-12.86.39-.39-.52-.52-3.25 0-3.77 2.47-.26 4.55-.65 5.33-.91 1.82-.65 2.21-1.95 2.34-5.33.13-7.27.26-20.39-.39-25.2-.26-2.08-1.17-5.59-3.64-7.66-1.82-1.69-4.29-2.99-8.05-2.99s-7.79 1.56-10.78 4.16c-.78.78-1.3 1.95-1.3 4.68 0 9.22 0 21.82.26 27.8.13 2.99.65 3.9 2.47 4.42 1.43.52 3.38.78 5.46 1.04.26.52.13 3.12-.39 3.77-1.95 0-5.58-.39-12.73-.39-6.37 0-11.04.39-12.6.39-.52-.52-.52-3.25 0-3.77 1.82-.26 3.12-.52 4.68-.91zm88.83-50.14c.65 1.69 1.56 7.4 1.69 10.78 5.97-7.14 12.86-10.78 20.13-10.78 6.5 0 11.69 2.47 14.29 6.75 1.82 3.12 2.21 5.07 2.21 13.38v16.37c-.26 14.03.13 14.81 7.66 14.94h.91v2.99h-26.89v-2.99h1.3c3.9.13 5.72-.52 6.88-2.47.52-1.04.65-1.82.78-4.29v-1.3l.13-6.88V23.68c0-7.53-.26-8.7-1.69-11.04-1.69-2.86-4.94-4.55-8.96-4.55-6.24 0-11.69 3.64-16.76 11.04v21.43c-.26 14.03.13 14.81 7.79 14.94h.78v2.99h-26.37V55.5h.91c7.66-.13 7.92-.78 7.79-14.94V24.97c.13-14.16-.13-14.81-7.79-15.07h-.91V7.04c5.46-.65 8.83-1.43 14.29-2.99h1.82z" class="b"/><path d="M492.6 58.88c-.39-.52-.52-3.25 0-3.77 2.47-.26 4.55-.65 5.33-.91 1.82-.65 2.21-1.95 2.34-5.33.13-7.27.26-20.39-.39-25.2-.26-2.08-1.17-5.59-3.64-7.66-1.82-1.69-4.29-2.99-8.05-2.99s-7.79 1.56-10.78 4.16c-.78.78-1.3 1.95-1.3 4.68 0 9.22 0 21.82.26 27.8.13 2.99.65 3.9 2.47 4.42 1.43.52 3.38.78 5.46 1.04.26.52.13 3.12-.39 3.77m88.17-.4V55.5h1.3c3.9.13 5.72-.52 6.88-2.47.52-1.04.65-1.82.78-4.29v-1.3l.13-6.88V23.68c0-7.53-.26-8.7-1.69-11.04-1.69-2.86-4.94-4.55-8.96-4.55-6.24 0-11.69 3.64-16.76 11.04v21.43c-.26 14.03.13 14.81 7.79 14.94h.78v2.99" class="d"/><path d="M214.31 13.01c-.26.26-.78 0-.78-.26 0-1.95.13-6.62.13-7.53-.13-.26-.26-.52-.39-.65-3.51 1.95-10.26 4.16-16.24 4.81-.52.26-.91 2.6-.52 3.12 2.47.78 4.68 1.56 6.11 2.86 1.17 1.04 1.17 2.86 1.17 3.64 0 8.7 0 22.21-.39 29.36-.13 2.86-.52 4.42-2.73 5.07-1.3.39-2.6.65-4.94 1.04-.65.39-.65 3.25 0 3.77 3.25 0 5.98-.39 12.73-.39 5.33 0 9.74.39 12.73.39.52-.52.78-3.25.26-3.77-2.08-.39-3.9-.65-4.94-.91-2.21-.52-2.73-2.08-2.73-3.77-.26-6.1-.13-21.95-.13-30.4 0-1.24.71-2.24 1.57-3.01v-4.06c-.31.23-.61.46-.92.71z" class="b"/><path d="M231.97 4.69c-3.73 0-9.74 2.27-16.75 7.61v4.06s.08-.07.12-.11c3.51-2.73 7.66-4.03 10.52-4.03 5.37 0 8.18 2.74 9.66 5.77l9.04-5.87c-2.67-4.35-6.97-7.44-12.6-7.44z" class="c"/><path d="M288.87 54.44c-3.38-.52-5.33-.78-6.88-1.69-.91-.52-1.3-1.82-1.3-2.73 0-5.33 0-17.41-.13-24.42 0-13.38-6.11-20.91-16.11-20.91-4.94 0-11.56 3.38-18.32 8.7-.26.13-.65.26-.91-.13-.2-.39-.42-.76-.65-1.13L235.53 18c.63 1.29 1.02 2.64 1.25 3.84.78 3.9.65 21.04.26 27.15-.13 2.86-.65 3.9-2.34 4.42-1.56.52-2.99.65-5.2 1.04-.52.52-.52 3.38 0 3.77 2.34 0 8.18-.39 12.08-.39 5.59 0 9.48.26 13.12.39.52-.39.91-3.25.39-3.77-2.6-.39-3.9-.65-5.58-1.17-1.17-.52-2.08-1.3-2.08-3.12-.26-5.46-.13-15.72-.13-22.73 0-3.9-.13-6.88-.52-9.35 0-.26 0-.78.26-.91 3.9-3.25 8.05-4.68 11.43-4.68 8.05 0 10.91 5.71 11.56 10 .78 3.9.52 17.41.39 24.42-.13 4.16-.39 5.71-2.34 6.36-1.43.52-2.6.78-4.94 1.17-.52.39-.39 3.38 0 3.77 3.25-.26 6.62-.39 13.12-.39 5.33 0 9.61.39 11.95.39.52-.26.91-3.25.65-3.77z" class="b"/><path d="M343.75 3.39c-7.29 0-13.29 3.18-19 9.98v3.75c2.44-2.65 3.85-4.17 4.32-4.63 3.51-2.99 7.53-4.68 11.17-4.68 4.16 0 7.66 1.95 9.35 5.2.72 1.52 1.09 2.75 1.28 5.37l8.3-5.27c-2.54-6.37-7.74-9.71-15.42-9.71z" class="c"/><path d="M323.87 14.43c0-4.42-.65-7.92-1.95-11.04h-.65c-2.86 1.04-10.65 2.6-14.94 2.86v2.99h.65c7.66.26 7.92.91 7.79 14.94V39.9c.13 14.16-.13 14.81-7.79 14.94h-.65v2.99h25.59v-2.99h-.65c-7.27-.26-7.66-1.04-7.4-14.94V18.07c.31-.34.59-.65.88-.95v-3.75l-.88 1.06zm80.28 40.4c-7.53-.13-7.92-.91-7.66-14.94V24.17c0-9.87-.39-11.82-2.73-14.94-2.6-3.51-8.05-5.84-13.64-5.84-7.53 0-12.73 2.99-20.26 11.69-.2-.69-.44-1.35-.69-1.98l-8.3 5.27c.11 1.64.15 3.82.15 6.97v14.55c.13 14.16-.13 14.81-7.79 14.94h-.78v2.99h25.33v-2.99h-.39c-7.01-.26-7.4-1.04-7.14-14.94V19.24c5.85-7.79 10.91-11.3 16.63-11.3 3.64 0 6.62 1.3 8.31 3.64 1.69 2.08 2.08 4.29 2.08 10.91V39.9c.13 14.16-.13 14.68-7.79 14.94h-.52v2.99h26.11v-2.99h-.91zM31.71 1.65h-.07v3.08h.07c12.06 0 17.69 8.44 17.69 26.54s-5.5 25.74-17.83 25.74-17.69-8.05-17.69-26.14v-.23H2.89c.08 9.52 3.68 17.71 9.91 22.88 4.69 3.89 12.33 6.43 18.9 6.43 16.49 0 28.68-12.33 28.68-29.09S48.06 1.65 31.71 1.65z" class="b"/><path d="M31.64 4.73V1.65C15.45 1.68 2.89 14.14 2.89 30.33v.3h10.99c.05-17.5 5.79-25.87 17.76-25.9z" class="c"/><path d="M104.16 1.68v9.43c13.25.46 14.52 5.96 14.52 16.78v5.29c0 11.42-1.37 17.35-16.39 17.35s-16.4-5.92-16.4-17.45v-1.73H74.15c.1 17.54 2.86 28.59 28.13 28.59s28.03-10.9 28.03-29.72-2.02-28.05-26.16-28.54z" class="b"/><path d="M85.89 28c0-11.42 1.37-16.92 16.4-16.92.65 0 1.27.01 1.87.04V1.68c-.61-.01-1.23-.02-1.87-.02-25.81 0-28.14 10.15-28.14 28.56v1.13h11.74V28z" class="c"/></svg>