<svg xmlns="http://www.w3.org/2000/svg" id="a" viewBox="0 0 127.4 58.3" width="127.4" height="58.3"><style>.st0{fill:#b3b3b3}.st1{fill:#2997ff}</style><path d="M28.8 0l-.1 3.1h.1c12.1 0 17.7 8.4 17.7 26.5S41 55.4 28.7 55.4 11 47.3 11 29.2V29H0c.1 9.5 3.7 17.7 9.9 22.9 4.7 3.9 12.3 6.4 18.9 6.4 16.5 0 28.7-12.3 28.7-29.1S45.2 0 28.8 0z" class="st0"/><path d="M28.8 3.1V0C12.6 0 0 12.5 0 28.7v.3h11c0-17.5 5.8-25.9 17.8-25.9z" class="st1"/><path d="M101.3 0v9.4c13.2.5 14.5 6 14.5 16.8v5.3c0 11.4-1.4 17.3-16.4 17.3S83 43 83 31.4v-1.7H71.3c.1 17.5 2.9 28.6 28.1 28.6s28-10.9 28-29.7S125.4.5 101.3 0z" class="st0"/><path d="M83 26.4C83 15 84.4 9.5 99.4 9.5h1.9V0h-1.9C73.6 0 71.3 10.2 71.3 28.6v1.1H83v-3.3z" class="st1"/></svg>