<svg xmlns="http://www.w3.org/2000/svg" id="a" viewBox="0 0 114.9 43.6" width="114.9" height="43.6"><style>.st0{fill:#2997ff}.st1{fill:#b3b3b3}</style><path d="M114.9 43.6H0c-.1 0-.2-.1-.2-.2s.1-.2.2-.2h114.9c.1 0 .2.1.2.2s-.1.2-.2.2zm0-42.1H0c-.1 0-.2-.1-.2-.2S-.1 1 0 1h114.9c.1 0 .2.1.2.2s-.1.3-.2.3z" class="st0"/><path d="M66.4 39.5c1.5-.4 2.1-1.9 2.2-3.7.2-3.2.2-10.6.2-17.2 0-4.1-.1-6.8-.2-8.4-.3-1.5-1.6-2.5-5.4-4-.2-.6.1-2.1.5-2.4 4.2-.3 10.2-2.3 12.9-3.8.1.1.4.4.4.7-.1 1.1-.2 4.2-.2 6 0 .2.3.3.5.2C82.8 2.4 87.9.1 91.6.1c4.5 0 7.8 2 10.1 5.4 2 3.2 2.7 7.3 2.7 12.4 0 5.9 0 15.3.2 19 0 .8.3 1.7 1 2 1.7.8 3.2 1 5.2 1.4.3.5.2 2.5-.3 3-1.5 0-4.6-.3-10.1-.3-4.8 0-7.9.2-10.4.3-.3-.4-.4-2.6 0-3 2-.2 3.7-.5 4.3-.7 1.5-.5 1.8-1.6 1.9-4.3.1-5.9.2-16.5-.3-20.3-.2-1.7-.9-4.5-2.9-6.2-1.4-1.5-3.4-2.5-6.5-2.5s-6.3 1.3-8.7 3.4c-.6.6-1 1.6-1 3.8 0 7.4 0 17.6.2 22.4.1 2.4.5 3.2 2 3.6 1.1.4 2.7.6 4.4.8.2.4.1 2.5-.3 3-1.6 0-4.5-.3-10.3-.3-5.1 0-8.9.3-10.2.3-.4-.4-.4-2.6 0-3 1.5-.2 2.5-.4 3.8-.8zm-50-4.4c2.9-3.7 6.8-9 8.6-11.8.1-.2.1-.6 0-.8-2.6-4.6-5.3-9.3-7.3-12.6-2.9-4.6-4-5-9.9-5.7-.1-.5 0-2.8.4-3 2.4 0 5.9.3 10.8.3 4.5 0 7.8-.2 9.1-.3.3.3.4 2.4.2 3-1.1.2-2.5.4-3 .6-.6.2-.8.7-.5 1.5 1.4 2.6 3.8 7 5.8 10.3.1.2.4.2.5 0 2.8-4 5.2-7.9 6-9.6.3-.9.1-1.7-.9-2.1-.7-.2-1.8-.4-3.7-.6-.3-.6-.2-2.6.2-3 1.6 0 5.1.3 8.1.3 4.2 0 7.1-.2 9-.3.4.4.5 2.5.2 3-5.9.9-6.5 1.3-10 5.8-2.4 3.2-4.8 6.8-6.8 9.7-.1.2-.2.6 0 .8 2 3.7 4.4 7.9 6.5 11 4.7 7.3 4.9 7.8 12.1 8.6.3.5.1 2.7-.4 3-2.1 0-6.6-.3-10.6-.3-5.1 0-8.6.2-10.5.3-.4-.4-.5-2.5-.3-3 1.4-.2 2.7-.4 3.4-.7 1.1-.5.8-1.3.5-1.8-1.5-2.8-4.1-7.3-6.3-10.9-.1-.2-.5-.3-.6 0-3.8 5.6-5.7 8.7-6.5 10.4-.4.8-.1 1.9.9 2.2.9.3 2 .5 3.9.8.3.5 0 2.6-.4 3-2.1 0-6-.3-9.8-.3s-6.9.2-8.5.3c-.4-.4-.5-2.5-.1-3 6.3-.8 6.8-1.3 9.9-5.1z" class="st1"/></svg>