<svg xmlns="http://www.w3.org/2000/svg" width="392.01" height="86.36" viewBox="0 0 392.01 86.36"><defs><style>.d{fill:#b3b3b3}.e{fill:#2997ff}.f{fill:none;stroke:#2997ff;stroke-linecap:round;stroke-linejoin:round;stroke-width:2px}</style></defs><g id="b"><g id="c"><path d="M341.41 12.94c1.91-1.07 4.08-1.84 6.49-2.24l-1.55-3.82c-3.54.87-6.98 2.19-10.14 3.9l1.87 4.62c1.02-.91 2.13-1.74 3.33-2.45z" class="e"/><path d="M328.85 40.53c0-.74.02-1.47.05-2.2.39-9.4 3.36-17.74 9.19-22.94l-1.87-4.62c-4.69 2.53-8.75 5.88-11.58 9.8-3.79 5.21-6.2 11.11-6.99 17.76a41.22 41.22 0 0 0-.29 4.9c0 2.09.13 4.16.37 6.19.04.32.09.63.13.94l11.38-3.77c-.25-2.03-.39-4.06-.39-6.06z" class="d"/><path d="M355.97 5.66c-3.2 0-6.45.43-9.62 1.21l1.55 3.82c1.29-.22 2.65-.34 4.08-.34 6.1 0 11.15 1.76 15.38 4.7 9.27 6.46 13.5 18.66 13.5 31.34 0 10.8-2.58 20.54-9.86 26.41-3.05 2.58-7.63 4.11-12.56 4.11-5.98 0-10.56-1.41-14.67-3.99-5.58-3.62-9.47-9.19-11.88-15.49l-11.06 3.66a36.83 36.83 0 0 0 6.63 10.3c6.1 6.57 15.26 10.68 26.53 10.68s23.59-5.28 30.87-15.38c4.81-6.69 7.16-14.09 7.16-24.42 0-19.13-12.09-36.62-36.04-36.62z" class="d"/><path d="M329.66 49.42c-.17-.94-.3-1.88-.42-2.82l-11.38 3.77c.53 3.74 1.5 7.34 2.96 10.74l11.06-3.66c-.98-2.58-1.73-5.28-2.23-8.02zm-103.33-6.19c0-1.97.06-3.84.17-5.63h-14.42c-.2 1.61-.31 3.25-.31 4.92 0 2.11.14 4.16.4 6.16h14.31c-.09-1.74-.14-3.55-.14-5.45zm23.63-34.64c1.9 0 3.68.16 5.34.48V4.86c-1.74-.23-3.52-.35-5.34-.35s-3.72.13-5.52.37v4.23c1.72-.34 3.55-.52 5.52-.52z" class="e"/><path d="M255.3 4.86v4.22c12.31 2.37 18.11 13.56 18.11 34.69 0 23.45-7.28 34.11-23.63 34.11-15.05 0-22.26-9.04-23.31-29.19h-14.31c1.29 10.14 5.78 18.78 12.75 24.57 6.22 5.15 16.34 8.53 25.05 8.53 21.85 0 38.02-16.34 38.02-38.55 0-20.34-13.72-35.9-32.68-38.38z" class="d"/><path d="M244.44 9.1V4.87c-17.17 2.34-30.26 15.49-32.37 32.73h14.42c1.02-16.98 6.88-26.3 17.94-28.5zm-99.75 72.69c-19.4 0-30.74-14.17-30.74-38.49s11.79-38.8 31.49-38.8 30.73 14.17 30.73 38.49-11.94 38.79-31.48 38.79zm.45-65.05c-10.14 0-15.07 8.21-15.07 25.96s4.77 26.86 15.07 26.86 14.92-8.35 14.92-26.86-4.77-25.96-14.92-25.96z" class="d"/><path d="M144.69 81.79c-19.4 0-30.74-14.17-30.74-38.49s11.79-38.8 31.49-38.8 30.73 14.17 30.73 38.49-11.94 38.79-31.48 38.79z" class="f"/><path d="M40.2 4.5c22.75 0 39.31 16.22 39.31 38.86S62.95 82.22 40.2 82.22 1 66.01 1 43.37 17.56 4.5 40.2 4.5zm0 14.19c-13.86 0-22.75 10.59-22.75 24.67s8.9 24.67 22.75 24.67 22.87-10.7 22.87-24.67-9.01-24.67-22.87-24.67z" class="d"/><path d="M40.2 4.78c22.75 0 39.31 16.22 39.31 38.86S62.95 82.5 40.2 82.5 1 66.28 1 43.64 17.56 4.78 40.2 4.78zM249.87 1v84.36m89.51-81.49l30.6 78.61" class="f"/></g></g></svg>