<svg xmlns="http://www.w3.org/2000/svg" id="a" viewBox="0 0 300.46 77.73" width="300.46" height="77.73"><defs><style>.b{fill:#b3b3b3}</style></defs><path d="M76.22 38.73c0 22.21-16.17 38.55-38.02 38.55-8.71 0-18.83-3.38-25.05-8.53C4.8 61.83 0 50.81 0 38.02 0 16.52 16.7 0 38.2 0s38.02 16.52 38.02 38.73zm-61.65 0c0 23.99 7.11 34.64 23.45 34.64s23.63-10.66 23.63-34.11S54.19 4.09 38.2 4.09 14.57 15.28 14.57 38.73zm133.78 38.55c-19.4 0-30.74-14.17-30.74-38.49S129.4 0 149.1 0s30.73 14.17 30.73 38.49-11.94 38.79-31.48 38.79zm.45-65.05c-10.14 0-15.07 8.21-15.07 25.96s4.77 26.86 15.07 26.86 14.92-8.35 14.92-26.86-4.77-25.96-14.92-25.96zM259.28 0c22.75 0 39.31 16.22 39.31 38.86s-16.56 38.86-39.31 38.86-39.2-16.22-39.2-38.86S236.64 0 259.28 0zm0 14.19c-13.86 0-22.75 10.59-22.75 24.67s8.9 24.67 22.75 24.67 22.87-10.7 22.87-24.67-9.01-24.67-22.87-24.67z" class="b"/></svg>