<svg xmlns="http://www.w3.org/2000/svg" id="a" viewBox="0 0 702.48 185.8" width="702.48" height="185.8"><defs><style>.b{fill:#b3b3b3}.c{fill:#2997ff}</style></defs><path d="M0 135.82h702.48v1H0zm0-78.79h702.48v1H0z" class="c"/><path d="M12.31 129.5c2.8-.8 4-3.6 4.2-7 .4-6.2.4-20.2.4-32.8 0-7.8-.2-13-.4-16-.6-2.8-3-4.8-10.4-7.6-.4-1.2.2-4 1-4.6 8-.8 19.6-4.6 24.6-7.4.2.2.8.8.8 1.4-.2 2.2-.4 8-.4 11.4 0 .4.6.6 1 .4 10.4-8.6 20.2-13 27.2-13 8.6 0 14.8 3.8 19.2 10.4 3.8 6 5.2 14 5.2 23.6 0 11.2 0 29.2.4 36.2 0 1.6.6 3.2 2 3.8 3.2 1.6 6 2 10 2.6.6 1 .4 4.8-.6 5.8-2.8 0-8.8-.6-19.2-.6-9.2 0-15 .4-19.8.6-.6-.8-.8-5 0-5.8 3.8-.4 7-1 8.2-1.4 2.8-1 3.4-3 3.6-8.2.2-11.2.4-31.4-.6-38.8-.4-3.2-1.8-8.6-5.6-11.8-2.8-2.6-6.6-4.6-12.4-4.6s-12 2.4-16.6 6.4c-1.2 1.2-2 3-2 7.2 0 14.2 0 33.6.4 42.8.2 4.6 1 6 3.8 6.8 2.2.8 5.2 1.2 8.4 1.6.4.8.2 4.8-.6 5.8-3 0-8.6-.6-19.6-.6-9.8 0-17 .6-19.4.6-.8-.8-.8-5 0-5.8 2.8-.4 4.8-.8 7.2-1.4zm178-35.5c0 15.4-6.2 28.8-18.6 36.6-5.4 3.6-14.8 7.4-23.2 7.4-29.2 0-39.8-22.2-39.8-42.8 0-15.8 7.2-26.4 17.4-33.4 7.2-4.6 16.8-8 26.2-8 24 0 38 17.8 38 40.2zm-54.4-29.6c-5.2 3.4-10.2 10.6-10.2 25.8 0 23.6 11.8 39.6 27.8 39.6 4.2 0 8.8-1 12.2-4.2 5.4-5 7.6-13 7.6-25.2 0-23.2-10.8-38.8-27.8-38.8-3.2 0-7 1-9.6 2.8zm66.8-51.9c4.8 0 14.8.6 25.6.6 13.4 0 19.4-.6 25-.6.6 1 .6 5-.2 5.6-3.6.6-7.4 1.2-9.6 1.8-4 1.2-5.4 2.8-5.6 9.2-.4 7.4-.2 17.6-.2 37.2 0 .8.4 1.8 1 2 1.4.2 5 .4 34 .4 22-.2 29.6-.2 31.4-.4.6 0 1.2-.8 1.2-1.2 0-10.4 0-33-.4-40.2-.2-3.2-1.2-5.6-4-6.6-3-1-6.6-1.6-11.8-2.2-1-.8-.8-4.8.2-5.8 4.6 0 14.4.8 25 .8 10 0 21.6-.6 24.8-.6.6.8.8 4.8 0 5.6-4.4.6-7.8 1.2-10.4 2-4.4 1.4-5.2 3.6-5.6 10.8-.4 7-.4 18.8-.4 42.6 0 17.4 0 39.4.4 46.2.6 5.6 1.8 7.8 5.6 9 2.8 1 6.6 1.6 12.8 2.2.6.8.4 5.2-.8 5.8-6 0-16.6-.6-26.8-.6s-20.2.4-25.4.6c-.8-.8-.8-4.8 0-5.8 5.2-.6 8.2-1 11.4-2 3.6-1 4.8-3 5.2-9.2.2-5.8.2-27.6.2-40.2 0-.6-.6-1.4-1.2-1.4-3.8-.2-20.8-.2-31.8-.2-15.6 0-32 0-34 .2-.4 0-.6 1-.6 1.2 0 11 0 34 .2 38.2.4 6.8 1.2 9.6 6.2 11 3 .8 6 1.6 12 2.4.8 1 0 5.4-.8 5.8-3.8 0-13.2-.6-26-.6-11.8 0-22.6.6-26.6.6-.8-.8-.8-5-.2-5.8 4.8-.6 8-1.2 10.8-1.8 5.8-1.8 6.4-5.4 7-14.6 0-6.8.2-23.8.2-41.2 0-19.4-.2-40.6-.4-44.2-.4-5.6-1.6-7.8-5.6-8.8-3-1-6.6-1.4-12-2.2-.8-.8-.6-4.8.2-5.6zm171.79 109c-12-13.2-17.2-30-17.2-48 0-14.8 4.4-27.6 12.4-38.6 11-15.2 32.8-25.4 53.4-25.4 40.8 0 61.4 29.8 61.4 62.4 0 17.6-4 30.2-12.2 41.6-12.4 17.2-32.6 26.2-52.6 26.2s-34.8-7-45.2-18.2zm74.2 2.4c12.4-10 16.8-26.6 16.8-45 0-21.6-7.2-42.4-23-53.4-7.2-5-15.8-8-26.2-8-7 0-13 1.6-18 4.4-14.6 8.6-21.4 26.6-21.4 47s7.8 43.8 25.4 55.2c7 4.4 14.8 6.8 25 6.8 8.4 0 16.2-2.6 21.4-7zm142.46 7.5c-5.2 2.4-21 7.4-26 7.6-.6 0-1.2-1.2-1.4-2.6-.2-1.6-.4-6.8-.4-9.8 0-.6-.6-.8-1-.8-9 6.4-21.2 11.8-28 11.8-8.4 0-16.4-3.8-21.8-10.6-5.8-7-9-17.2-9-28.4 0-12.6 5.6-24.8 14.6-32.2 8.2-6.8 23.4-12.6 36-12.6 3.2 0 6.8.6 9 .8.2 0 .8-.4.8-.8 0-23.4 0-29.8-.4-34.8-.4-3.8-1.2-5.4-4.2-6.4-2.6-.8-7.8-1.6-11.6-2-.6-1.2-.4-4.8.8-5.4 13 0 26.2-3 32.4-5.2.4.2 1.2 2.2 1 2.8-1.8 3-2 6-2.2 15-.4 10.8-.8 26.4-.8 57.4 0 23.2 0 39.6.2 44 .2 6 1.8 6.4 3.8 6.8 2.4.4 5.8.2 9.2 0 .2 1-.4 4.6-1 5.4zm-63.2-63.2c-5.6 5.2-8.6 13.8-8.6 24.2 0 21.6 11.6 32.8 26.8 32.8 6 0 11.4-2 15.6-5.4 1-1 1.6-2.8 1.6-4.2.4-4.8.6-30.4.4-39.4-.2-4.2-1-6.8-4.4-9.2-4.2-3.2-10-4.6-16.4-4.6-5.6 0-11 1.8-15 5.8zm115 115.2c-19.8 0-31.6 1.8-39.4 2.4-.6-1-.8-5 0-6 3-.6 6.4-1.4 8.6-2 4-1.4 4.8-3.4 5.4-9.8.2-6 .4-18.2.6-50.6.2-26.4 0-35-.4-42-.2-3.8-1-5.6-3-6.8-2.2-1.2-5.4-2-9.4-2.6-.6-1-.4-4.4.4-5.2 7-1 19.6-5.2 26.8-9.2.4-.4 1.6 1 1.6 1.4-.4 2.6-.6 9-.6 12.6 0 .4.8.6 1 .4 13.4-9.2 22-12.2 28.6-12.2 8 0 15.2 4 19.8 9.2 6.8 7.6 9.4 17.8 9.4 26.2 0 16.8-6.6 28-17.4 36.8-9.8 7.8-23.4 12-32.8 12-2 0-5.2-.6-8-1.2-.2-.2-1 .4-1 .6 0 13.6.2 24.2.6 31.2.2 4.4 1.4 6.6 6 7.4 2.6.6 7.8 1.2 12 1.6.6 1 .2 5.2-.8 5.8h-8zm-7.6-111.2c-1 .6-2 2.6-2 4.2-.4 5-.2 31.2-.2 38 .2 4.4 1.8 7.4 4 9.2 4 3.2 9.2 4.8 15.8 4.8 4.2 0 9.4-1.4 14-5.4 6-5 9.2-14.4 9.2-25.8 0-9-2.2-17.6-6.8-23.4-4.6-5.6-10.4-8-17-8-5.6 0-12 2.4-17 6.4z" class="b"/></svg>