<svg xmlns="http://www.w3.org/2000/svg" id="a" viewBox="0 0 498.68 161.43" width="498.68" height="161.43"><defs><style>.b{fill:none}.c{fill:#b3b3b3}.d{fill:#2997ff}</style></defs><path d="M183.2 132.13c-.2 3.4-1.4 6.2-4.2 7-2.4.6-4.4 1-7.2 1.4-.8.8-.8 5 0 5.8 2.4 0 9.6-.6 19.4-.6 11 0 16.6.6 19.6.6.8-1 1-5 .6-5.8-3.2-.4-6.2-.8-8.4-1.6-2.8-.8-3.6-2.2-3.8-6.8 0-.15-.01-.3-.02-.46h-15.95c0 .15-.02.31-.03.46z" class="d"/><path d="M263.8 140.53c-4-.6-6.8-1-10-2.6-1.4-.6-2-2.2-2-3.8-.4-7-.4-25-.4-36.2 0-9.6-1.4-17.6-5.2-23.6-4.4-6.6-10.6-10.4-19.2-10.4-7 0-16.8 4.4-27.2 13-.4.2-1 0-1-.4v-.37l-15.64 7.02s.03.1.04.15c.2 3 .4 8.2.4 16 0 12.31 0 25.94-.37 32.34h15.95c-.38-9.37-.38-28.37-.38-42.34 0-4.2.8-6 2-7.2 4.6-4 10.8-6.4 16.6-6.4s9.6 2 12.4 4.6c3.8 3.2 5.2 8.6 5.6 11.8 1 7.4.8 27.6.6 38.8-.2 5.2-.8 7.2-3.6 8.2-1.2.4-4.4 1-8.2 1.4-.8.8-.6 5 0 5.8 4.8-.2 10.6-.6 19.8-.6 10.4 0 16.4.6 19.2.6 1-1 1.2-4.8.6-5.8z" class="c"/><path d="M199.2 65.13c0-.6-.6-1.2-.8-1.4-5 2.8-16.6 6.6-24.6 7.4-.8.6-1.4 3.4-1 4.6 7.27 2.75 9.71 4.73 10.36 7.45l15.64-7.02c.01-3.44.2-8.91.4-11.03z" class="d"/><path d="M337.07 76.63c-4.2-3.2-10-4.6-16.4-4.6-5.6 0-11 1.8-15 5.8-5.6 5.2-8.6 13.8-8.6 24.2 0 21.6 11.6 32.8 26.8 32.8 6 0 11.4-2 15.6-5.4 1-1 1.6-2.8 1.6-4.2.4-4.8.6-30.4.4-39.4-.2-4.2-1-6.8-4.4-9.2z" class="b"/><path d="M359.67 12.43c.2-.6-.6-2.6-1-2.8-6.2 2.2-19.4 5.2-32.4 5.2-1.2.6-1.4 4.2-.8 5.4 3.8.4 9 1.2 11.6 2 1.11.37 1.92.83 2.52 1.44h17.98c.2-6.16.58-8.71 2.1-11.24z" class="d"/><path d="M369.87 135.63c-3.4.2-6.8.4-9.2 0-2-.4-3.6-.8-3.8-6.8-.2-4.4-.2-20.8-.2-44 0-31 .4-46.6.8-57.4.03-1.39.06-2.63.1-3.76h-17.98c1.02 1.05 1.43 2.57 1.68 4.95.4 5 .4 11.4.4 34.8 0 .4-.6.8-.8.8-2.2-.2-5.8-.8-9-.8-12.6 0-27.8 5.8-36 12.6-9 7.4-14.6 19.6-14.6 32.2 0 11.2 3.2 21.4 9 28.4 5.4 6.8 13.4 10.6 21.8 10.6 6.8 0 19-5.4 28-11.8.4 0 1 .2 1 .8 0 3 .2 8.2.4 9.8.2 1.4.8 2.6 1.4 2.6 5-.2 20.8-5.2 26-7.6.6-.8 1.2-4.4 1-5.4zm-28.8-10.4c0 1.4-.6 3.2-1.6 4.2-4.2 3.4-9.6 5.4-15.6 5.4-15.2 0-26.8-11.2-26.8-32.8 0-10.4 3-19 8.6-24.2 4-4 9.4-5.8 15-5.8 6.4 0 12.2 1.4 16.4 4.6 3.4 2.4 4.2 5 4.4 9.2.2 9 0 34.6-.4 39.4z" class="c"/><path d="M19.85 83.18h-4.82l-2.94-15.43-3.02 15.43H4.4L.9 63.83h3.67l2.46 16.41 3.16-16.41h3.92l3.11 16.41 2.69-16.41h3.5l-3.56 19.35zm17.95-6.3h-9.3c.28 3.02 1.68 4 3.64 4 1.32 0 2.41-.42 3.7-1.32l1.48 2.04c-1.46 1.18-3.25 1.99-5.49 1.99-4.59 0-7.06-3.05-7.06-7.73s2.38-7.92 6.58-7.92 6.52 2.8 6.52 7.48c0 .48-.06 1.06-.08 1.46zm-3.47-2.49c0-2.44-.87-3.89-2.88-3.89-1.68 0-2.74 1.12-2.94 4.06h5.82v-.17zm19.09-11.96v20.75h-3.16l-.25-1.88c-.9 1.34-2.32 2.3-4.23 2.3-3.7 0-5.63-3.11-5.63-7.81s2.3-7.84 5.96-7.84c1.57 0 2.8.67 3.72 1.6v-7.5l3.58.39zm-3.58 16.55V72.2c-.78-.95-1.62-1.57-2.83-1.57-1.85 0-3.08 1.57-3.08 5.12 0 3.81 1.09 5.12 2.86 5.12 1.32 0 2.21-.64 3.05-1.9zm20.72-9.83c-1.12.39-2.52.5-4.28.5 1.79.81 2.69 1.96 2.69 3.81 0 2.88-2.24 4.98-5.96 4.98-.64 0-1.2-.06-1.76-.22-.36.25-.62.64-.62 1.09 0 .53.31 1.04 1.79 1.04h2.27c3.28 0 5.4 1.76 5.4 4.2 0 2.97-2.55 4.73-7.39 4.73-5.26 0-6.75-1.68-6.75-4.65h3.22c0 1.48.64 2.13 3.58 2.13s3.72-.78 3.72-1.96c0-1.09-.87-1.76-2.52-1.76h-2.24c-2.97 0-4.23-1.32-4.23-2.86 0-1.04.64-2.07 1.74-2.74-1.82-.95-2.6-2.27-2.6-4.17 0-3.22 2.55-5.32 6.13-5.32 3.5.08 5.12-.7 6.92-1.65l.9 2.86zm-10.33 4.06c0 1.79.98 2.91 2.63 2.91s2.63-1.06 2.63-2.94-.9-2.8-2.69-2.8c-1.62 0-2.58 1.12-2.58 2.83zm24.41 3.67h-9.3c.28 3.02 1.68 4 3.64 4 1.32 0 2.41-.42 3.7-1.32l1.48 2.04c-1.46 1.18-3.25 1.99-5.49 1.99-4.59 0-7.06-3.05-7.06-7.73s2.38-7.92 6.58-7.92 6.52 2.8 6.52 7.48c0 .48-.06 1.06-.08 1.46zm-3.47-2.49c0-2.44-.87-3.89-2.88-3.89-1.68 0-2.74 1.12-2.94 4.06h5.82v-.17zm25.85-8.6l-1.82 2.1c-1.4-1.15-2.74-1.65-4.34-1.65-1.74 0-3 .78-3 2.3 0 1.4.76 2.02 3.98 3.02 3.39 1.06 5.74 2.46 5.74 6.1s-2.72 5.94-7.34 5.94c-3.08 0-5.38-1.09-6.97-2.66l1.9-2.13c1.43 1.2 2.97 1.93 4.98 1.93s3.56-1.01 3.56-2.88c0-1.62-.81-2.35-3.84-3.28-4.06-1.26-5.82-2.88-5.82-5.82 0-3.22 2.77-5.35 6.58-5.35 2.83 0 4.7.84 6.38 2.38zm15.68 11.09h-9.3c.28 3.02 1.68 4 3.64 4 1.32 0 2.41-.42 3.7-1.32l1.48 2.04c-1.46 1.18-3.25 1.99-5.49 1.99-4.59 0-7.06-3.05-7.06-7.73s2.38-7.92 6.58-7.92 6.52 2.8 6.52 7.48c0 .48-.06 1.06-.08 1.46zm-3.47-2.49c0-2.44-.87-3.89-2.88-3.89-1.68 0-2.74 1.12-2.94 4.06h5.82v-.17zm15.5-6.22l-.62 3.47a4.91 4.91 0 0 0-1.32-.17c-1.79 0-2.72 1.32-3.28 3.81v7.9h-3.58V68.37h3.11l.34 2.91c.7-2.13 2.13-3.3 3.86-3.3.53 0 1.01.06 1.48.2zm6.22-5.12c0 1.2-.92 2.16-2.27 2.16s-2.24-.95-2.24-2.16.92-2.18 2.24-2.18 2.27.95 2.27 2.18zm-.45 20.13h-3.58V68.37h3.58v14.81zm8.26-16.38v1.57h3.56l-.39 2.58h-3.16v12.24h-3.58V70.95h-2.41v-2.58h2.41v-1.62c0-2.69 1.79-4.7 5.21-4.7 1.48 0 2.69.34 3.84.87l-1.04 2.41c-.9-.42-1.74-.56-2.44-.56-1.46 0-1.99.64-1.99 2.04zm-106 61.37h10.95l-.39 2.74h-6.86v5.8h5.96v2.74h-5.96v8.06h-3.7v-19.35zm24.3 19.35h-3.11l-.2-2.07c-1.09 1.68-2.49 2.49-4.54 2.49-2.69 0-4.12-1.74-4.12-4.59v-10.64h3.58v10.19c0 1.74.56 2.32 1.79 2.32s2.24-.81 3-2.1V132.7h3.58v14.81zm4.03-3.39v-17.36l3.58-.39v17.64c0 .7.22 1.04.84 1.04.31 0 .59-.06.81-.14l.78 2.52c-.62.28-1.48.5-2.41.5-2.27 0-3.61-1.37-3.61-3.81zm8.32 0v-17.36l3.58-.39v17.64c0 .7.22 1.04.84 1.04.31 0 .59-.06.81-.14l.78 2.52c-.62.28-1.48.5-2.41.5-2.27 0-3.61-1.37-3.61-3.81zm27.61-14l-1.82 2.1c-1.4-1.15-2.74-1.65-4.34-1.65-1.74 0-3 .78-3 2.3 0 1.4.76 2.02 3.98 3.02 3.39 1.06 5.74 2.46 5.74 6.1s-2.72 5.94-7.34 5.94c-3.08 0-5.38-1.09-6.97-2.66l1.9-2.13c1.43 1.2 2.97 1.93 4.98 1.93s3.56-1.01 3.56-2.88c0-1.62-.81-2.35-3.84-3.28-4.06-1.26-5.82-2.88-5.82-5.82 0-3.22 2.77-5.35 6.58-5.35 2.83 0 4.7.84 6.38 2.38zm15.68 11.09h-9.3c.28 3.02 1.68 4 3.64 4 1.32 0 2.41-.42 3.7-1.32l1.48 2.04c-1.46 1.18-3.25 1.99-5.49 1.99-4.59 0-7.06-3.05-7.06-7.73s2.38-7.92 6.58-7.92 6.52 2.8 6.52 7.48c0 .48-.06 1.06-.08 1.46zm-3.47-2.49c0-2.44-.87-3.89-2.88-3.89-1.68 0-2.74 1.12-2.94 4.06h5.82v-.17zm15.51-6.22l-.62 3.47a4.91 4.91 0 0 0-1.32-.17c-1.79 0-2.72 1.32-3.28 3.81v7.9h-3.58v-14.81h3.11l.34 2.91c.7-2.13 2.13-3.3 3.86-3.3.53 0 1.01.06 1.48.2zm6.21-5.12c0 1.2-.92 2.16-2.27 2.16s-2.24-.95-2.24-2.16.92-2.18 2.24-2.18 2.27.95 2.27 2.18zm-.45 20.13h-3.58v-14.81h3.58v14.81zm8.27-16.38v1.57h3.56l-.39 2.58h-3.16v12.24h-3.58v-12.24h-2.41v-2.58h2.41v-1.62c0-2.69 1.79-4.7 5.21-4.7 1.48 0 2.69.34 3.84.87l-1.04 2.41c-.9-.42-1.74-.56-2.44-.56-1.46 0-1.99.64-1.99 2.04zM390.05 15.02h-6.89v8.65h-3.7V4.33h3.7v7.76h6.89V4.33h3.72v19.34h-3.72v-8.65zm20.1 6.64l-.76 2.38c-1.65-.14-2.72-.7-3.28-2.16-1.06 1.57-2.66 2.21-4.45 2.21-2.94 0-4.76-1.88-4.76-4.56 0-3.22 2.41-4.96 6.72-4.96h1.88v-.84c0-1.93-.87-2.58-2.77-2.58-1.01 0-2.44.28-3.95.78l-.81-2.44c1.82-.7 3.7-1.06 5.35-1.06 3.98 0 5.71 1.82 5.71 5.1v6.22c0 1.2.39 1.62 1.12 1.9zm-4.65-1.99v-3h-1.48c-2.32 0-3.47.84-3.47 2.58 0 1.43.73 2.24 2.1 2.24 1.23 0 2.18-.64 2.86-1.82zm7.45.62V2.93l3.58-.39v17.63c0 .7.22 1.04.84 1.04.31 0 .59-.06.81-.14l.78 2.52c-.62.28-1.48.5-2.41.5-2.27 0-3.61-1.37-3.61-3.81zm12.55-13v1.57h3.56l-.39 2.58h-3.16v12.24h-3.58V11.44h-2.41V8.86h2.41V7.24c0-2.69 1.79-4.7 5.21-4.7 1.48 0 2.69.34 3.84.87l-1.04 2.41c-.9-.42-1.74-.56-2.44-.56-1.46 0-1.99.64-1.99 2.04zm24.78-1l-1.82 2.1c-1.4-1.15-2.74-1.65-4.34-1.65-1.74 0-3 .78-3 2.3 0 1.4.76 2.02 3.98 3.02 3.39 1.06 5.74 2.46 5.74 6.1s-2.72 5.94-7.34 5.94c-3.08 0-5.38-1.09-6.97-2.66l1.9-2.13c1.43 1.2 2.97 1.93 4.98 1.93s3.56-1.01 3.56-2.88c0-1.62-.81-2.35-3.84-3.28-4.06-1.26-5.82-2.88-5.82-5.82 0-3.22 2.77-5.35 6.58-5.35 2.83 0 4.7.84 6.38 2.38zm15.68 11.08h-9.3c.28 3.02 1.68 4 3.64 4 1.32 0 2.41-.42 3.7-1.32l1.48 2.04c-1.46 1.18-3.25 1.99-5.49 1.99-4.59 0-7.06-3.05-7.06-7.73s2.38-7.92 6.58-7.92 6.52 2.8 6.52 7.48c0 .48-.06 1.06-.08 1.46zm-3.47-2.49c0-2.44-.87-3.89-2.88-3.89-1.68 0-2.74 1.12-2.94 4.06h5.82v-.17zM478 8.67l-.62 3.47a4.91 4.91 0 0 0-1.32-.17c-1.79 0-2.72 1.32-3.28 3.81v7.9h-3.58V8.86h3.11l.34 2.91c.7-2.13 2.13-3.3 3.86-3.3.53 0 1.01.06 1.48.2zm6.21-5.13c0 1.2-.92 2.16-2.27 2.16s-2.24-.95-2.24-2.16.92-2.18 2.24-2.18 2.27.95 2.27 2.18zm-.45 20.13h-3.58V8.86h3.58v14.81zm8.26-16.38v1.57h3.56l-.39 2.58h-3.16v12.24h-3.58V11.44h-2.41V8.86h2.41V7.24c0-2.69 1.79-4.7 5.21-4.7 1.48 0 2.69.34 3.84.87l-1.04 2.41c-.9-.42-1.74-.56-2.44-.56-1.46 0-1.99.64-1.99 2.04z" class="d"/></svg>