<svg xmlns="http://www.w3.org/2000/svg" id="Layer_1" width="320" height="349.6" viewBox="0 0 320 349.6"><style>.st0{fill:#b3b3b3}</style><path d="M86.1 252.2c1.2 0 3.8.2 6.5.2h9.7c1.9 0 4.4-.1 5.5-.2l.2.2c-.4 1.5-.7 4.7-.9 6.7-.2.2-1.3.2-1.5.1-.1-1.4-.3-2.3-.6-3-.4-1.2-.9-1.7-2.5-1.9-.9-.1-6.9-.1-7.5 0-.3.1-.6.7-.6.9-.1 2.8-.1 8.1-.1 10.4 0 .1.1.3.2.3 2 .1 5.7.1 7.5-.1 1.1-.1 1.4-.7 1.7-1.5.2-.6.4-1.2.6-2 .3-.1 1.4-.1 1.7.1-.1.9-.3 2.9-.3 4.7 0 1.8.1 3.2.1 4.4-.2.2-1.4.3-1.7.1-.1-1-.2-1.4-.4-2-.2-.7-.6-1.3-1.7-1.4-1.5-.1-5.5-.1-7.3-.1-.1 0-.2.2-.2.4 0 2.3 0 7.4.1 9.8 0 .9.6 1.7 1.1 1.9.9.2 5.2.3 7.3.3 2.1-.1 2.8-.5 3.6-1.7.8-.9 1.8-2.8 2.5-4.3.2-.1 1.2.3 1.4.6-.2 1.5-1.3 5.2-2.1 6.7-.3.6-.6.8-3.1.8-4.1 0-7.7-.2-12.7-.2-3.3 0-5.7.1-7.7.1-.2-.1-.2-1.2-.1-1.4 1.5-.1 2.8-.2 3.7-.5 1.2-.3 1.5-.9 1.7-2.7.1-.9.1-6.3.1-11.9 0-4.4 0-8.9-.1-9.7-.1-1.7-.3-2.2-1.5-2.5-.7-.2-1.5-.3-2.6-.5-.4 0-.2-.8 0-1.1zm58.8 20.2l-.7 10.1h-27v-1.1h.7c3.9-.1 4.3-.7 4.2-7.3v-16c.1-6.4-.2-7.1-3.9-7.1h-.4v-1.1h23.3l.7 8.1h-1.1c-1.3-6-3.1-7.3-9.6-7.1h-4.5v13.7h3.5c4.1 0 4.9-.7 4.9-4.5v-.4h1.1V271H135v-.3c-.1-4.1-.9-4.8-4.8-4.7h-3.6v7.7c0 7.5.2 7.9 4.7 7.9h2.5c5.2.2 8.1-2.5 9.8-9h1.2l.1-.2zm29.8-20.2c1.1 0 2.8.1 5.7.1 2.8 0 4.7-.1 7.9-.1 3.3 0 8.7 1.1 8.7 6.9 0 2.8-1.9 5.1-4.7 6.3-.1.1-.1.1 0 .2 3.9.9 6.9 3.2 6.9 7.6 0 4.1-2.4 6.8-6.1 8.4-2.3.9-5 1.2-7.6 1.2-2.2 0-7.9-.2-11.1-.1-.2-.1-.3-1.3-.1-1.4.9-.1 2.3-.2 3.1-.4 1.1-.3 1.4-.7 1.6-2.5.1-1.6.1-5.9.1-11.1 0-6.1.1-9.3-.1-11.1-.1-1.3-.5-1.8-1.3-2.1-.7-.2-1.9-.3-2.8-.4-.4-.2-.4-1.4-.2-1.5zm8.8 1.9c-.2.1-.4.6-.4.8-.1 1.4-.1 6.6-.1 10.1 0 .1.1.2.2.2.6.1 1.7.1 3.1.1 2.4 0 3.3-.2 3.9-.6 1.6-.9 2.3-2.7 2.3-4.6 0-4.3-2.7-6.3-7.3-6.3-.5.3-1.1.3-1.7.3zm11 20.2c0-4.7-3.3-7.2-8.9-7.2-.7 0-2 0-2.3.1-.1 0-.2.1-.2.2 0 3.1 0 9.1.1 11.1.1.7.6 1.5 1.1 1.9.9.6 2.7.7 3.8.7 3.9-.1 6.4-2.2 6.4-6.8zm17.8-24.6c4.9-.2 4.9-.2 6.1-.2 3.8 0 6.7.4 8.8 1.3 3 1.3 4.7 3.6 4.7 6.5 0 4.1-3.1 6.8-9.2 7.7 7.1.6 11.1 3.6 11.1 8.7 0 3.1-1.7 5.9-4.3 7.3-2.1 1.1-4.5 1.5-9.9 1.5h-12.9v-1.2h1.2c3.9 0 4.3-.7 4.1-7.3v-15.9c.1-6.8-.2-7.3-4.4-7.1h-.7v-1.1l5.4-.2zm5.4 14.8c6.6 0 9-1.8 9-6.9 0-3.3-.9-5.2-3.1-6.3-1-.4-2.6-.7-5.1-.7-.7 0-1.2 0-1.9.1v13.7l1.1.1zm-1 8.4c0 4.1.1 5.7.3 6.6.3 1.3 1.3 1.9 3.6 1.9 5.1 0 7.7-2.7 7.7-7.8 0-5.8-2.7-8-9.9-8-.7 0-.7 0-1.8.1l.1 7.2zm57.8-3.8c0-.2.1-.4.2-.4.4.1 1.2.1 1.9.1 1.5 0 2.5-.2 3.4-.7 2.3-1.3 3-3.6 3-6.3 0-4.5-2.3-7.8-7.9-7.8-.5 0-1.7.1-2.1.2-.1.1-.3.3-.4.7-.1 1.1-.1 3.7-.1 11.6 0 5.6-.1 9.3.1 11.9.1 1.7.4 2.1 1.8 2.5.7.2 1.7.3 2.9.4.2.2.1 1.3-.1 1.4-1.4 0-4.9-.1-6.8-.1-2.3 0-5.3.1-6.4.1-.2-.2-.2-1.2-.1-1.3 1-.1 2-.2 2.6-.4 1.2-.3 1.4-.9 1.5-2.8.1-1.7.1-5.7.1-11 0-5.7.1-8.9-.1-10.5-.1-1.7-.4-2.3-1.7-2.6-.7-.1-1.4-.3-2.4-.4-.2-.2-.1-1.2.1-1.3.8 0 3.5.1 5.8.1 2.9 0 5.1-.1 7.9-.1 1.7 0 4.7.3 6.5 1.9 1.7 1.3 3.1 3.3 3.1 6.6 0 4.5-2.7 7.3-5.2 8.5-1.7.9-3.5 1.2-5.1 1.2-.9 0-1.5-.1-2.1-.2-.1-.3-.4-1.1-.4-1.3zm28.4 5c-.1 6.7.3 7.3 4.1 7.3h1.1v1.1h-14.9v-1.1h.9c3.9 0 4.2-.7 4.1-7.3V258c.1-6.6-.2-7.1-4.4-7h-.6v-1.1l4.1-.1c5.1-.2 5.4-.2 7.7-.2 5.2 0 7.9.5 10.1 1.8 2.7 1.7 3.9 3.9 3.9 7.1s-1.5 5.9-3.9 7.3c-1.7 1-4.1 1.4-8.5 1.4h-3.7v6.9zm2.4-8.1c3.2 0 4.5-.3 5.9-1.3 1.7-1.3 2.7-3.3 2.7-6.1s-.9-5.1-2.5-6.3c-1.3-1.1-3-1.5-6.2-1.5-1 0-1.5.1-2.3.1V266h2.4zM1.5 252.2c.9 0 3.4.1 6 .1h11.6c1.9 0 3.7-.1 4.7-.2.1 0 .2.2.2.3-.3 1.2-.7 4.2-.7 6.9-.1.2-1.3.3-1.6.1-.2-1.6-.4-2.5-.7-3.3-.4-1.1-.9-1.7-2.2-1.7-1.7-.1-7.1-.1-8.3 0-.3.1-.6.6-.6.9-.1 2.8-.1 7.7-.1 11.1 0 .1.2.2.2.2 2.2 0 6.3 0 7.9-.1 1.3-.1 1.7-.7 2-1.6.2-.6.4-1.3.6-2.1.3-.1 1.4-.1 1.7.1-.1 1.1-.3 3.2-.3 4.9s.1 3.3.1 4.7c-.2.2-1.2.2-1.6.1-.2-1-.4-1.6-.6-2.1-.3-1-.9-1.5-1.7-1.6-1.7-.1-7-.1-8.1-.1-.1 0-.2.2-.2.2 0 3 0 7.1.1 9.1.1 1.7.3 2.3 1.7 2.6.9.2 2 .3 3.3.4.2.2.1 1.2-.1 1.4-1.6 0-3.7-.1-7.3-.1-3 0-4.7.1-6.3.1-.2-.1-.2-1.2 0-1.4 1.1-.1 2-.2 2.6-.4 1.3-.3 1.7-.9 1.7-2.6.1-1.7.1-5.3.1-11.1 0-5.4 0-9-.1-10.5-.1-1.7-.2-2.1-1.3-2.5-.7-.2-1.5-.3-2.8-.5-.1 0 0-1.1.1-1.3zm55.6 5.8H56c-.9-5.5-3.1-7.3-8.3-7h-6.4v13.8h3.1c3.9.1 4.9-.9 4.9-4.7v-.3h1.2v11.5h-1.2v-.5c-.1-3.9-1.2-5.1-4.9-4.9h-3.1v8.1c-.1 6.8.2 7.3 4.1 7.3h1.1v1.1H31.3v-1.1h1c3.9 0 4.2-.7 4.1-7.3v-16c.1-6.6-.2-7.1-4.4-7h-.6v-1.1h25.2c.1 0 .5 8.1.5 8.1zm50.4 64.8c0 2.3-1.2 4.1-5.1 6.8-.1.1-.1.2 0 .2 4.4 2.8 6.2 4.7 6.2 8.1 0 4.3-4.4 8.1-9.7 8.1-6.7 0-9.1-4.1-9.1-7.3 0-2.2.8-3.8 6.1-7.5.1-.1.1-.2.1-.3-3.8-2.5-4.9-4.9-4.9-7.3 0-2.3 1.1-4.4 2.8-5.8 1.6-1.2 3.6-2.1 6-2.1 4.4 0 7.6 3 7.6 7.1zm-2.8 17.1c0-3.3-1.9-5-7-7.9-.1-.1-.3-.1-.4 0-2.6 2.2-3.7 3.9-3.7 6.1 0 3.2 2.5 6.3 6.4 6.3 2.5 0 4.7-1.5 4.7-4.5zm-10-18c0 3.1 2 4.7 6 7 .1.1.3.1.4 0 2.5-2.1 3.1-3.9 3.1-5.7 0-3.5-2.1-5.9-5.2-5.9-2.7.2-4.3 1.9-4.3 4.6zm43 15.6c0 5.2-4.1 8.9-10.3 8.9-5.7 0-10-3.7-10-8.7 0-4.3 2.9-7.6 7.8-8.5-4.1-1-6.8-4.1-6.8-7.9 0-4.7 3.9-8 9.1-8 5.2 0 9.2 3.4 9.2 8 0 4.1-2.5 6.9-7.1 7.9 4.9.4 8.1 3.8 8.1 8.3zm-16.2.3c0 2.7.4 4.3 1.4 5.5s2.7 2 4.6 2c2.1 0 4.1-.9 5.1-2.1.9-1.2 1.2-3 1.2-5.5 0-3.1-.7-5.2-1.9-6.3-1-.9-2.8-1.5-4.4-1.5-4-.2-6 2.5-6 7.9zm.8-16.8c0 5 1.7 7.6 5.1 7.6 3.7 0 5.5-2.5 5.5-7.2 0-2.7-.4-4.2-1.5-5.5-.9-1-2.3-1.7-3.9-1.7-3.4 0-5.2 2.4-5.2 6.8zm73.9-2.7c-.2.8-1.1 2.5-2.1 3.3-.6.5-1.1.7-1.7.7-2.2 0-4.4-.2-5.2-.3-.3 0-.6.3-.7.4-.6 1-1.3 3-1.7 4-.1.3.1.7.2.7 2.3 1.2 6.7 3.3 9.1 5.1 2.8 2 3.9 4.1 3.9 7.1 0 6.3-6.3 10.3-11.5 10.3-3.3 0-5.3-1.2-6.4-2.4-.3-.3-.7-1.1-.7-1.6 0-.6.5-2 .9-2.5.1-.1.6-.2.7-.2 1.3 2.3 3.9 4.5 7.7 4.5 3.3 0 5.6-2.2 5.6-5.5 0-2.9-.9-4.7-4.1-7-2.8-2-6.6-3.6-7.9-4.4-.1-.2-.2-1.2-.1-1.5.9-2.9 3.6-8.9 4.5-10.3.3-.2.7-.7 1.1-.6 1 0 3.7.3 5.5.2 1.2 0 1.7-.2 2.5-.7-.1.1.5.4.4.7zm15.3 12.7l.7-15h12.5c-1.3 3.1-1.6 3.3-3.1 3.2h-8.4l-.4 10c1.8-2.2 3.6-3.1 5.9-3.1 5.2 0 9.1 4.7 9.1 10.6 0 7.1-4.5 11.7-11.4 11.7-2.5 0-4.4-.7-6.1-2-1.2-.9-1.9-2.1-1.9-3s.7-1.5 1.6-1.5c1.1 0 1.4.4 2.1 2.5.8 2.1 2 3 4.3 3 2.2 0 3.9-.9 5.4-2.8 1.3-1.7 1.9-4.2 1.9-7.9 0-3.9-.7-6.3-2.4-7.9-.9-.9-2.1-1.3-3.4-1.3-2.1 0-4 1.3-5.2 3.6l-1.2-.1zm79-12.1c-1.5 5.3-11.9 26.5-13.2 30-.1.1-.2.2-.3.2-.4-.1-1.6-.6-1.8-.9-.1-.1-.1-.6 0-.7 2.6-5.7 10.7-21.1 11.9-25.1 0-.1-.1-.2-.1-.2-2-.1-9.7-.1-12.1.1-1.4.1-1.9.5-3.5 3.7-.2.1-1.3-.2-1.3-.4.7-2.1 1.5-5.3 1.9-7.7.7.2 2.3.4 3.9.4h9.5c1.7 0 3.9 0 5.1-.1-.2.1 0 .5 0 .7zm10.6-3.6h.9c.1.7.2.7 2.3.8h12.5l-8.7 26.3c-1.7 4.9-2.3 6-3.7 6-.9 0-1.4-.7-1.4-1.5 0-.6.1-1.1.7-2.2.1-.2.3-.7.6-1.3.5-1 .7-1.6.7-1.7l9.7-22.5h-11.3c-2-.1-2.3.3-3.1 2.7h-1.1l1.9-6.6zm-282.9 7.1c0 3.2-2.3 5.2-4.3 6.6-.1.1-.1.2 0 .2 3.3 1 6.9 3.2 6.9 7.7 0 3.6-2.1 6.5-4.9 8.3-2.3 1.5-4.7 2.3-7.5 2.3-1.9 0-3.3-.3-4.3-.8-.7-.4-1-.7-1.5-1.7-.4-.9-.8-2.5-.9-3.6.1-.2 1-.7 1.2-.7.9 1.8 1.7 3 3 3.8 1.2.7 2.6 1 4.5 1 2.9 0 6.1-1.9 6.1-6.3.1-4.1-2.9-7.2-7.6-7.2-.4 0-1 0-1.7.1-.1-.2.5-1.7.7-1.9 4.7-.9 6.4-3.3 6.4-6.1 0-2.9-1.8-5.2-4.9-5.2-2.1 0-3.9 1-5.7 2.8-.2.1-.7-.9-.7-1.2 1.7-2 4.9-4.9 8.5-4.9 3.8.1 6.6 3.2 6.7 6.8zm21.3 5.4c4.6 0 7.6 3.4 7.6 8.5 0 5.9-4.4 10-10.7 10-4.1 0-7.9-2.2-7.9-4.6 0-.9.7-1.7 1.6-1.7s1.3.4 1.9 2.1c.7 2.1 2.1 3.1 4.3 3.1 4.3 0 6.8-3.3 6.8-9.1 0-4.4-1.9-7.3-4.7-7.3-1.3 0-2.1.4-3.7 2-.2.2-.4.3-.7.3-.4 0-.7-.3-.7-.8s.3-.7 2.5-2.3c2.4-1.7 3.4-2.5 4.3-3.6 1.2-1.3 1.9-3.1 1.9-5.1 0-3.2-1.8-5.2-4.7-5.2-3.1 0-5.5 2.2-5.5 4.9 0 1.3.3 2 1.5 3.2.1.1.2.2.2.3 0 .3-1.3 1-2 1-1 0-2.1-1.8-2.1-3.6 0-3.9 3.7-7 8.7-7 4.7 0 7.9 2.5 7.9 5.9 0 2-1.1 3.9-3.6 5.9-.4.4-.4.4-3.3 2.3-.7.4-.7.4-1 .7.5.1.8.1 1.4.1zM24.7 191.1c-1.7-.8-3.7-1.1-6.1-1.1-7.1 0-11.1 5.2-11.1 13.5 0 7.9 4.3 14.5 13.1 14.5 2.1 0 4.1-.6 5.4-1.7 1.2-.9 2.4-2.7 3.7-4.8.2 0 1.1.4 1.2.8-.5 2.1-2.6 5.9-3.7 6.6-1.4.5-4.5 1.2-7.5 1.2-10.9 0-17-6-17-16.1 0-5.3 2.4-10.6 7.8-13.5 2.6-1.4 5.8-2.3 10-2.3s7.4.9 9.7.9c-.3 1.7-.7 5.3-.8 7.6-.2.2-1.5.3-1.5.1-.7-3.9-1.4-4.9-3.2-5.7zM69 207v11.4h-1c-.2-1.1-.9-2.6-1.6-3.4-2.9 3.2-6.6 4.9-11.1 4.9-9.6 0-16.1-6.7-16.1-16.3 0-10.4 6.6-17.5 16.1-17.5 4.3 0 8.7 1.9 11.1 4.8.7-1.2 1.1-2.8 1.3-4.2h1l.3 12.4h-1c-.5-3-1.3-5.4-2.5-7.1-1.9-2.8-5.5-4.7-9.3-4.7-7.1 0-11.3 6-11.3 16.1 0 9.2 4.5 15.1 11.5 15.1 2.2 0 4.5-.7 6.5-1.9 2.5-1.6 4.7-5.5 5.1-9.6h1zm53.2 8.7c-2.9-3.2-4.2-7.3-4.2-11.8 0-3.6 1.1-6.8 3.1-9.5 2.7-3.7 8.1-6.3 13.1-6.3 10 0 15.1 7.3 15.1 15.3 0 4.3-.9 7.3-3 10.2-3.1 4.2-8 6.4-12.9 6.4-4.8.1-8.7-1.5-11.2-4.3zm18.2.6c3.1-2.5 4.1-6.5 4.1-11.1 0-5.3-1.7-10.4-5.7-13.1-1.7-1.2-3.9-2-6.4-2-1.7 0-3.2.4-4.4 1.1-3.6 2.1-5.2 6.5-5.2 11.5 0 5.1 1.9 10.8 6.3 13.5 1.7 1.1 3.6 1.7 6.1 1.7 2 .1 3.9-.5 5.2-1.6zm44.7-25.9c3.3 2.9 5.2 7.4 5.2 12.4 0 10.1-7.1 17-17.8 17s-17.8-6.9-17.8-17.3c0-9.7 7.3-16.5 17.5-16.5 4.9 0 9.7 1.7 12.9 4.4zm-21.6.7c-2 2.3-3.2 6.9-3.2 11.7 0 5.7 1.3 10.2 3.6 12.5 2.1 2.2 5.1 3.3 8.9 3.3 7.8 0 12.1-5.6 12.1-15.7 0-5.7-1.5-10.2-4.1-12.7-2.1-2-5-3.1-8.2-3.1-3.9.1-7.2 1.6-9.1 4zm108 37.9c-2.3 0-4.5-.7-7.1-2.1-3.1-1.7-4.6-2.9-7.7-4.7-1.3-.9-2.8-1.7-4.9-2-2.9-.4-5.4-1.1-7.7-2.8-4.1-2.9-6-7.9-6-13.2 0-3.3.9-6.6 2.7-9.1 2.9-4.2 8.3-6.7 13.7-6.7 9.2 0 14.9 6.8 14.9 15.3 0 5-1.6 8.9-4.1 11.6-1.8 1.9-4.2 3.4-6.7 4.3 1.3.4 3.7 1.5 4.7 2 5.5 2.7 8.9 3.9 11.7 3.9 2.6.1 4.7-.4 6.5-1.3.2.1.3 1.2.1 1.5-3.1 2.2-6.8 3.3-10.1 3.3zm-28.7-26.3c0 8.8 4.8 15.4 12.7 15.4 5.3 0 9.1-5.2 9.1-13 0-7.7-3.6-14.9-12.1-14.9-6.8.1-9.7 6.3-9.7 12.5zm52.2 17c-.9.1-1.5.1-2.5.1-10.6 0-17.8-6.9-17.8-17.1 0-9.9 7.3-16.8 17.5-16.8 4.9 0 9.7 1.7 12.8 4.4 3.3 2.9 5.2 7.4 5.2 12.5 0 6.4-3 11.9-8.1 14.7-1 .6-1.7.8-3.3 1.3l-7.1 4.1c.7-.1.9-.1 1.4-.1 4.1 0 6.9.6 13.7 2.8 2.3.9 5.1 1.3 7.1 1.3 2.9 0 4.7-1 5.1-3.2h1c-.7 4.7-3.9 7.4-8.9 7.4-3.2 0-5.2-.7-9.7-3.6-4.2-2.7-6.9-3.7-9.7-3.7-1.8 0-2.8.4-4.6 1.8-1.2 1-1.5 1.2-2 1.2s-.9-.3-.9-.8c0-.7.1-.9 2.3-1.9.9-.5 1.5-.8 2.1-1.1 1.1-.6 1.3-.7 1.7-.9l4.7-2.4zm-11.5-28.6c-2 2.3-3.2 6.9-3.2 11.7 0 5.7 1.3 10.2 3.6 12.5 2.1 2.2 5.1 3.3 8.9 3.3 7.8 0 12.1-5.6 12.1-15.7 0-5.7-1.5-10.2-4.1-12.7-2.1-2-5-3.1-8.2-3.1-3.8.1-7.1 1.6-9.1 4zM5.7 155.9c2.5-5.9 7.1-18.4 8.1-21.5.4-1 .7-2.1.9-2.8.2 0 .8.1 1.7.1s1.5-.1 1.7-.1c.2.7.4 1.7.8 2.5.9 2.8 6.4 18.3 8.1 22.4 1.4 3.3 1.7 3.6 5.3 3.9.2.1.1 1.2-.1 1.4-1.3-.1-3.8-.1-6-.1-2.4 0-5.4.1-6.4.1-.1-.2-.2-1.2-.1-1.4 1.1-.1 2-.3 2.7-.6s.7-.8.6-1.2c-.6-2.1-2.1-6.3-2.9-8.4-.1-.1-.3-.3-.4-.3-.7-.1-2.4 0-4.7 0-3.1 0-3.5-.1-4.1 0-.2 0-.4.3-.5.4-.9 2.7-2.5 6.8-2.7 7.9-.1.9.1 1.3 1.6 1.7.6.1 1.4.3 2.3.4.1.2.1 1.2-.1 1.4-1 0-3.6-.1-6.3-.1-2.8 0-4.3.1-5.2.1-.2-.2-.2-1.2 0-1.4 3.5-.2 4.1-.6 5.7-4.4zm9.4-19.2c-.9 2.5-2.8 8-3.7 10.6 0 .2.1.3.2.3.5.1 2.1.1 3.9.1 1.2 0 2.8 0 3.3-.1.1 0 .2-.2.1-.4-.9-3.1-2.8-8.5-3.6-10.6 0 .1-.2.1-.2.1zm31.4 13.1l-.9 2.1c-1.7 3.9-1.9 4.7-1.9 5.9 0 1.7 1.3 3 3.2 3h.4v1.1h-9.7v-1.1l.4-.1c2.6-.6 3.5-1.7 5.3-6.5l1.2-2.8 9.5-22.8h.9l10.9 26c2.1 5.2 2.5 5.5 5.1 6h.3v1.1H58.4v-1.1h.4c2.8 0 3.6-.4 3.6-1.7 0-.6 0-.6-1.1-3.1l-2.5-6H46.5zm6.2-15.1l-5.8 13.9h11.6l-5.8-13.9zm44.5-3.2c1.2 0 3.9.1 6 .1 2.9 0 5.5-.1 6.3-.1.2.1.3 1.2.1 1.3-1.1.2-1.9.4-2.5.6-.9.2-.9.9-.7 1.5 1.5 4.2 7.1 19.1 8 21.3.1 0 .1 0 .2-.1 1.2-2.7 6.3-15.8 7.7-20.1.6-1.8.3-2.5-1.1-2.8-.7-.1-1.5-.3-2.7-.5-.1-.2-.1-1.3.1-1.3.8 0 2.8.1 5.8.1 2.6 0 3.9-.1 5.1-.1.2.1.2 1.2 0 1.3-.9.1-1.5.3-2.1.5-1.5.5-2 1.5-3.1 4.2-1.5 3.5-4.8 11.7-7.3 17.7-1.2 2.9-2.1 5.4-2.5 6.9-.7-.1-2.2-.1-2.9 0-.5-1.9-1.2-4.1-2.1-6.7-2.5-6.6-5.5-14.7-6.9-18.3-1.1-2.7-1.7-3.5-3.1-3.9-.7-.1-1.3-.3-2.3-.4-.3 0-.3-1.1 0-1.2zm54.7 31.1l-11.3-26c-.1-.2-.6-1.3-.9-2.4-1.2-2.9-2.2-3.8-4.9-3.9h-.5v-1.1h14.1v1.1h-.3c-3.1 0-4.1.4-4.1 1.8 0 .7.1.9 1.1 3.3l9.4 21.7 7.5-18c1.3-3.2 1.9-4.9 1.9-5.9 0-1.8-1.2-2.8-3.4-2.9h-.5v-1.1h10v1.1h-.3c-2.5.4-3.4 1.6-5.5 6.8l-1.1 2.5-9.7 23.1-1.5-.1zm44-20.3c.9 0 2.7.1 4.7.1s4.3-.1 5-.1c.2.1.2 1.2.1 1.4-.7.1-1.5.2-1.8.4-.4.1-.4.7-.4.9.9 2.8 4.1 11.1 4.4 11.8.1 0 .1.1.2 0 1.5-3.2 3.7-8.7 4-11.1.1-.6.1-1.1-.9-1.4-.5-.1-1.3-.3-2.1-.4-.1-.3 0-1.2.2-1.4.6 0 2.5.1 4.2.1s3.2-.1 4.6-.1c.2.2.2 1.1.1 1.4-.7.1-1.3.2-1.7.4-.9.2-1.5.9-1.9 2.2-3.5 9.1-7.3 17.5-11.6 24.8-.6 1-1.2 2.1-1.5 2.8l-.3.2c-.7-.1-2.1-.9-2.5-1.3-.1-.1-.1-.7-.1-.8 1.7-2 5.4-6.9 7.2-10.8 0-.1-.3-.7-.4-.9-1.1-2.8-3.2-8.2-4.7-11.9-1.3-3.2-1.8-4.1-3.2-4.4-.5-.1-.9-.2-1.7-.3-.2-.5-.1-1.6.1-1.6zm42.5 4.8c1-2.3 1-2.3 1-2.7 0-.7-.9-1.2-2.3-1.2h-.4v-1.1h7v1.1h-.2c-2 .2-2.7.9-3.9 4.3l-8.9 21.2c-1.7 3.9-2.7 5.2-4.3 5.2-.9 0-1.6-.6-1.6-1.4 0-1.2.7-2 2.5-2.8 2-.9 2.2-1.1 2.9-2.8l1.9-4.7-7.5-15.9c-1.2-2.7-1.7-3.1-3.4-3.2h-.4V142h9.1v1.1h-.2c-1.5.1-2.1.3-2.1.9 0 .3 0 .3.9 2.3l5.5 11.6 4.4-10.8zm31.2-4.8c.9 0 2.7.1 4.8.1 2 0 3.8-.1 4.7-.1.2.1.2 1.2.1 1.4-.7.1-1.5.2-1.9.4-.4.1-.4.6-.4.7.6 1.9 4 11 4.3 11.8.1.1.2.1.2 0 1-2.5 3.1-7.9 3.9-10.3.5-1.6.1-2-.4-2.2-.7-.2-1.3-.3-2.2-.4-.1-.2 0-1.3.2-1.4.6 0 2.5.1 4.4.1 1.7 0 3.4-.1 4-.1.2.1.1 1.2 0 1.4-.6.1-1.1.1-1.7.3-.9.3-1.3.9-1.9 2.2-1.3 2.9-2.8 6.6-4.7 11.1-.9 2.1-1.3 3.6-1.7 4.7-.6-.1-1.8-.1-2.3.1-.4-1.3-.9-2.7-1.4-4.3-1.3-3.7-3.1-7.9-3.9-10.3-1.1-2.7-1.2-3.1-2.4-3.4-.6-.2-1.2-.3-1.9-.4-.2-.3.1-1.3.2-1.4zm38.2 20.3l-7-15.9c-1.3-2.9-1.7-3.4-3.3-3.6h-.2V142h8.9v1.1h-.3c-1.7 0-2.2.3-2.2 1.1 0 .5.1.7.9 2.6l5.3 11.9 4.8-10.7c.9-2.1 1.1-2.7 1.1-3.3 0-.9-.7-1.7-2-1.7h-.4v-1h6.5v1.1l-.4.1c-1.6.4-2.3 1.4-3.9 5.2l-6.3 14.1-1.5.1zm-298-56.5c-4.9 0-7.7.4-9.7.6-.1-.2-.2-1.2 0-1.5.7-.1 1.6-.3 2.1-.5.9-.3 1.2-.9 1.3-2.4s.1-4.4.1-12.4c.1-6.5 0-8.6-.1-10.3-.1-.9-.2-1.3-.7-1.7-.6-.3-1.3-.5-2.3-.7-.1-.2-.1-1.1.1-1.3 1.7-.2 4.8-1.3 6.6-2.3.1-.1.4.2.4.3-.1.7-.1 2.2-.1 3.1 0 .1.2.1.2.1 3.3-2.3 5.4-3 7-3 2 0 3.7.9 4.9 2.3 1.7 1.9 2.3 4.3 2.3 6.4 0 4.1-1.7 6.9-4.3 9-2.4 1.9-5.7 2.9-8.1 2.9-.5 0-1.3-.1-2-.3-.1-.1-.2.1-.2.1 0 3.3.1 5.9.1 7.7.1 1.1.3 1.7 1.5 1.8.7.1 1.9.3 2.9.4.1.2.1 1.3-.2 1.4l-1.8.3zM7.9 78.8c-.2.1-.5.7-.5 1-.1 1.2-.1 7.7-.1 9.3.1 1.1.4 1.8.9 2.3.9.8 2.3 1.2 3.9 1.2 1 0 2.3-.3 3.4-1.3 1.5-1.2 2.3-3.6 2.3-6.3 0-2.2-.6-4.3-1.7-5.7-1.1-1.3-2.5-2-4.1-2-1.3 0-2.9.5-4.1 1.5zm26.3-5c.2.7.5 2.3.4 3.2 2-2.1 4.4-3.2 7.1-3.2 5.6 0 9.6 4.3 9.6 10.4 0 6.4-4.1 10.9-10 10.9-2.6 0-4.4-.8-6.7-2.9v7.6c-.1 5.3.1 5.6 2.9 5.7h.3v1.1H27.5v-1.1h.7c2.9-.1 3-.3 2.9-5.7V81.9c.1-5.3-.1-5.6-2.9-5.7h-.7V75c1.4-.1 3.6-.6 6-1.2h.7zm.5 16.8c1.8 2.2 3.7 3.2 5.9 3.2 1.7 0 3.3-.8 4.7-2.1 1.4-1.6 2.1-4.1 2.1-7.6 0-3.6-.9-6-2.8-7.5-1.1-.9-2.4-1.3-3.8-1.3-2.3 0-4.1 1-6 3.3l-.1 12zm74.6 15.5c-3.9.1-6.5.6-7.9.6-.2-.2-.2-1.2-.1-1.3.9-.1 1.9-.4 2.5-.6.9-.3 1.3-.8 1.4-2.3.1-1.7.1-5.9.1-9.7 0-.1-.1-.1-.2-.1-1.8 1.2-4.7 2.3-6.3 2.3-4.7 0-8.1-4.1-8.1-9.9 0-3.4 1.7-6.3 3.9-8.1 2.4-1.7 6.1-2.8 9-2.8 1.8 0 4.6.5 6.2.9-.2.6-.5 1.6-.6 2.4-.1 1.7-.1 5-.1 7.1 0 4.8 0 15.1.1 17.3.1 1.5.3 2 1.5 2.1.6.1 1.3.2 2.3.3.1.2.1 1.2-.1 1.4h-3.6v.4zM94.7 83.5c0 5.6 3.2 8.6 7.2 8.6 1.1 0 2.1-.2 3.1-.9.2-.1.3-.6.3-.7 0-4.7 0-10.3-.2-11.9 0-.2-.3-.9-.5-1.2-.6-.4-2-1.1-4.3-1.1-3.3.2-5.6 2.6-5.6 7.2zm43.5-9.7v25.9c-.1 5.3.1 5.6 2.9 5.7h.6v1.1H131v-1.1h.8c2.9-.1 3-.3 2.9-5.7v-7.1c-2.4 1.7-4.7 2.5-7.1 2.5-5.7 0-9.7-4.3-9.7-10.3 0-6.1 4.3-11 9.9-11 2.3 0 3.9.6 6.8 2.5.8-.5 1.8-1.4 2.7-2.5h.9zm-3.5 4.1c-1.8-1.7-4-2.6-6-2.6-1.8 0-3.6.8-4.7 2.1-1.3 1.6-2 4.1-2 7.7 0 5.7 2.3 8.9 6.4 8.9 2 0 4.5-.9 6.3-2.4V77.9zm50.3-1.2c0 .1.2.1.3.1 2.3-1.3 5.1-2.5 6.6-2.5 2.5 0 4.3 1.1 5.5 2.5 1.7 1.9 2.1 4.5 2.1 6.3 0 4.3-1.7 7.3-4.3 9.2-2.1 1.6-5.3 2.7-7.3 2.7-1.7 0-3.1-.3-4.3-.7-.6-.1-1.2-.2-2.3.1-.1 0-.3-.2-.3-.3.1-2.5.2-4.9.2-11.9 0-6-.1-14.3-.2-16.4-.1-.9-.2-1.1-1-1.3-.6-.2-1.5-.3-2.5-.4-.2-.2-.1-1.1.1-1.3 2.5-.1 6-.9 7.7-1.5.1 0 .3.5.3.7-.4.6-.6 1.3-.6 9.7V77h-.1l.1-.3zm.6 1.5c-.2.1-.4.3-.5.7-.1 1.1-.1 7.8.1 9.8.1 1.9.4 2.3.9 2.7 1.2.9 2.7 1.3 4 1.3 1.5 0 2.8-.4 3.9-1.7 1.1-1.2 1.7-3.6 1.7-5.8 0-2.8-.7-4.5-1.6-5.8-1.3-1.7-3-2.3-4.7-2.3-1.4 0-3.1.6-3.8 1.1zm23.5 16.9V68.7c.1-4.7-.3-5.3-2.8-5.4h-.3v-1.2c1.5.1 5.3-.6 6.1-1h.6v15.7c2.3-2 4.6-3 7-3 5.7 0 9.7 4.4 9.7 10.5 0 6.3-4.2 10.8-10 10.8-3 0-5.1-1.1-6.6-3.6-.8.7-2.1 2.7-2.5 3.6h-1.2zm3.5-9.1c.1 3.4.1 3.6.6 4.7.9 2.1 3.1 3.3 5.3 3.3 4.2 0 6.8-3.7 6.8-9.9 0-5.7-2.3-9.1-6.3-9.1-2.2 0-4.3 1-6.3 3.1l-.1 7.9zm77.6 7.3c-1.3.6-5.1 1.8-6.3 1.9-.1 0-.3-.3-.3-.7-.1-.4-.1-1.7-.1-2.4 0-.1-.1-.2-.2-.2-2.2 1.6-5.2 2.9-6.9 2.9-2.1 0-4-.9-5.3-2.6-1.4-1.7-2.2-4.2-2.2-7 0-3.1 1.3-6.1 3.6-7.9 2-1.7 5.7-3.1 8.9-3.1.8 0 1.7.1 2.2.2.1 0 .2-.1.2-.2 0-5.7 0-7.3-.1-8.5-.1-.9-.3-1.3-1-1.6-.7-.2-1.9-.4-2.8-.5-.1-.3-.1-1.2.2-1.3 3.2 0 6.4-.7 7.9-1.3.1.1.3.6.2.7-.4.7-.5 1.5-.6 3.7-.1 2.7-.2 6.5-.2 14.1 0 5.7 0 9.7.1 10.8.1 1.5.4 1.6.9 1.7.6.1 1.4.1 2.3 0-.2.3-.4 1.2-.5 1.3zm-15.5-15.5c-1.3 1.3-2.1 3.3-2.1 5.9 0 5.3 2.8 8.1 6.6 8.1 1.5 0 2.8-.5 3.9-1.3.2-.2.4-.7.4-1 .1-1.2.1-7.4.1-9.7-.1-1-.2-1.7-1.1-2.3-1-.8-2.5-1.1-4-1.1s-2.8.5-3.8 1.4zm38.2-8.9c.1-5.3-.1-5.5-2.9-5.7h-.5v-1.1c1.7 0 4.5-.4 6.4-1h.5v26.5c-.1 5.3.1 5.6 2.9 5.7h.3v1.1c-1.7.1-4.4.3-6.3.7-.2-.9-.3-1.9-.3-3.1 0-.1 0-.3.1-.6-2.5 2.5-4.9 3.6-7.6 3.6-5.2 0-9.4-4.7-9.4-10.5 0-6.2 4.1-10.8 9.6-10.8 2.5 0 5.2 1.1 7.1 2.9l.1-7.7zm0 9.2c-2.3-2-4.2-2.8-6.4-2.8-4.1 0-6.3 3.2-6.3 9.1 0 5.8 2.5 9.3 6.5 9.3 2.3 0 4.6-1.2 6.3-3.5l-.1-12.1zM83.5 31.7c.7-.2.9-.9 1-1.7.1-1.5.1-4.9.1-8.1 0-1.9-.1-3.2-.1-3.9-.1-.7-.7-1.2-2.5-1.9-.1-.3.1-.9.2-1.1 2-.2 4.8-1.1 6-1.8.1.1.2.2.2.3-.1.6-.1 2-.1 2.8 0 .1.1.1.2.1 2.5-2.1 4.9-3.2 6.7-3.2 2.1 0 3.6.9 4.7 2.5.9 1.5 1.3 3.4 1.3 5.8 0 2.8 0 7.1.1 8.9 0 .4.1.8.5.9.8.4 1.5.5 2.5.7.1.2.1 1.2-.1 1.4-.7 0-2.1-.1-4.7-.1-2.3 0-3.7.1-4.9.1-.1-.2-.2-1.2 0-1.4.9-.1 1.7-.2 2-.3.7-.2.9-.7.9-2 .1-2.8.1-7.7-.1-9.5-.1-.8-.4-2.1-1.3-2.9-.7-.7-1.7-1.1-3.1-1.1s-2.9.6-4.1 1.6c-.3.3-.5.7-.5 1.7 0 3.5 0 8.2.1 10.5.1 1.1.2 1.5.9 1.7.6.2 1.3.3 2.1.4.1.2.1 1.2-.1 1.4-.7 0-2.1-.1-4.8-.1-2.4 0-4.1.1-4.7.1-.2-.2-.2-1.2 0-1.4.4-.2 1-.3 1.6-.4zm32-19c.2.7.6 2.8.7 4.1 2.3-2.7 4.9-4.1 7.6-4.1 2.5 0 4.4.9 5.4 2.5.7 1.2.9 1.9.9 5.1v6.2c-.1 5.3.1 5.6 2.9 5.7h.3v1.1h-10.1v-1.1h.5c1.5.1 2.1-.2 2.6-.9.2-.4.2-.7.3-1.7v-.5l.1-2.6v-6.3c0-2.8-.1-3.3-.7-4.1-.7-1.1-1.9-1.7-3.3-1.7-2.3 0-4.4 1.3-6.3 4.1v8.1c-.1 5.3.1 5.6 2.9 5.7h.3v1.1h-10v-1.1h.3c2.9-.1 3-.3 2.9-5.7v-5.9c.1-5.3-.1-5.6-2.9-5.7h-.3v-1.1c2.1-.2 3.3-.6 5.4-1.1-.1-.1.5-.1.5-.1zm152.1 1.8c2-.1 5.6-.4 6.8-.8-.1 1.2-.3 3.8-.3 9.6 0 2.6.1 4.2.2 5 .4 1.6 1.5 2.8 4 2.8 1.5 0 2.8-.5 4-1.5.3-.2.5-.7.6-1.2.1-.7.1-4.7 0-10.7-.1-.6-.2-1.2-.9-1.4-.7-.2-1.7-.3-3.1-.6-.1-.3.1-1.2.2-1.3 2.6 0 6.7-.4 7.8-.7-.1.9-.1 2.4-.1 4.3l-.1 11.1c.1 1.3.3 1.7 1.1 1.8.7.1 1.3-.1 2.1-.1.1.2 0 1.2-.2 1.4-1.8.7-5.4 1.7-6.3 2-.1 0-.2-.2-.3-.4-.1-.6-.1-2-.1-2.8 0-.1-.2-.2-.3-.1-2.8 2.3-4.9 3.1-6.5 3.1-4.8 0-5.8-3.3-5.9-6.6 0-2.3.1-7.5 0-9.6-.1-.9-.2-1.4-.8-1.7-.4-.1-1.3-.3-2.3-.4.1-.2.1-1.1.4-1.2zm48.1 12.2c-.1 5.3.1 5.6 2.8 5.7h.2v1.1c-2.5.1-4.1.2-5.3.8h-.3c-.6-.9-.8-2.4-.9-4.7-1.8 2.9-4.7 4.7-7.6 4.7-2.3 0-4.4-1.1-5.4-2.8-.6-.9-.7-2.2-.7-4.3v-6.7c.1-5.3-.1-5.6-2.9-5.7h-.3v-1.1h6.7v13.7c0 2.3.1 3 .7 3.8.7.9 1.9 1.5 3.1 1.5 1.7 0 3.6-.9 4.9-2.5 1.3-1.5 1.5-2.3 1.5-5.2v-4.4c.1-5.3-.1-5.6-2.9-5.7h-.5v-1.2h6.9v13zM.3 1.7C3.2 1.5 6.2.7 7.6 0c.1.1.3.6.3.7-.4.8-.4 1.3-.6 4.6v10.8c0 .1.1.1.2.1 2.5-2 4.9-2.9 6.7-2.9 3.9 0 6.1 3.1 6.1 7.9 0 2.7 0 7 .1 9.1 0 .6.2.9.7 1.2.7.4 1.4.4 2.4.6.1.1.1 1.3-.2 1.4-.9 0-2.8-.1-4.9-.1-1.9 0-4 .1-4.7.1-.2-.2-.2-1.2-.1-1.4.8-.1 1.5-.2 2-.3.7-.2.9-.6.9-2.5.1-2.4.1-7.3-.2-9.6-.2-1.3-1.3-3.6-4.6-3.6-1.2 0-2.7.5-3.9 1.3-.4.3-.6.9-.6 1.2 0 3.3 0 9.5.1 10.9.1 1.6.2 2 1.3 2.3.6.1.9.2 1.9.3.2.2.1 1.2-.1 1.4-.7 0-2.3-.1-5.1-.1-2.5 0-3.9.1-4.7.1-.2-.2-.2-1.2 0-1.4.9-.1 1.3-.2 1.7-.3.9-.2 1.1-.7 1.2-2 .1-1.2.1-7 .1-8.1 0-11.9 0-15.1-.1-16.9 0-.9-.2-1.4-.8-1.5C2 3.1 1.1 3.1.3 3 .1 2.8.1 1.7.3 1.7zm35.2 15c2-2.8 4.3-4 7.1-4 2.5 0 4.7.9 5.7 2.7.7 1.1.9 2.4.9 5.7v5.5c-.1 5.3.1 5.6 2.9 5.7h.4v1.1h-10v-1.1h.4c2.9-.1 3-.3 2.9-5.7v-5.9c0-2.8-.2-3.9-.7-4.7-.7-1.1-2-1.7-3.6-1.7-2.4 0-4.6 1.6-6 4.3v7.9c-.1 5.3.1 5.6 2.9 5.7h.3v1.1h-10v-1.1h.5c1.5.1 2.1-.2 2.6-.9.2-.4.3-.7.3-1.7.1-.2.1-.7.1-1.6V6.8c.1-3.7-.4-4.6-2.9-4.6h-.4V1.1c1.6.1 5.4-.5 6.3-1h.5c-.2 0-.2 16.6-.2 16.6zm128.6 15c.9-.2.9-.9 1-1.9.1-2.7.1-7.8.1-11.1 0-.3 0-.9-.4-1.3-.6-.5-1.3-.8-2.3-1.1-.1-.2 0-1.1.2-1.2 2.3-.2 4.8-1.1 6.1-1.8.1.1.1.1.1.2 0 .3-.1 2.1-.1 2.8 0 .1.2.2.3.1 2.8-2.2 5.2-3.1 6.7-3.1 2.3 0 4 1.3 5 3.2.1.1.2.1.3.1 2.5-2 5.1-3.3 6.9-3.3 3.8 0 6.1 2.8 6.1 7.9.1 2.7.1 7.2.1 9.2 0 .3.1.9.5 1 .6.3 1.3.4 2.6.7.1.2-.1 1.3-.2 1.4-.9 0-2.5-.1-4.5-.1-2.5 0-3.7.1-4.9.1-.1-.1-.2-1.3 0-1.4.9-.1 1.3-.2 1.9-.4.7-.2.9-.9.9-2.4.1-2.7.1-7.7-.1-9.2-.2-1.7-1.3-3.8-4.3-3.8-1.3 0-2.8.6-4.3 1.7-.1.1-.1.2-.1.3.1.9.2 2.1.2 3.6 0 2.7-.1 6.5.1 8.6 0 .7.3.9.8 1.2.7.2 1.1.3 2.1.4.2.2.1 1.3-.1 1.4-1.3-.1-2.8-.1-4.9-.1-1.5 0-3.7.1-4.6.1-.2-.1-.2-1.2 0-1.4.9-.1 1.3-.2 2-.4s.9-.6.9-1.7c.1-2.3.2-8.8-.1-10.3s-1.2-3.6-4.1-3.6c-1.1 0-2.7.5-3.9 1.5-.3.3-.7.7-.7 1.2 0 3.2-.1 9.2.1 11.5 0 .7.2 1.2 1 1.4.4.1 1.1.2 1.9.3.2.2.1 1.2-.1 1.4-1.1 0-2.8-.1-4.8-.1-2.5 0-3.6.1-4.8.1-.2-.2-.2-1.3 0-1.4.4-.1.8-.2 1.4-.3zm43.4-18.9c.5 1.2.7 2.5.7 4.1 2.3-2.8 4.7-4.1 7.5-4.1 3.2 0 5.2 1.5 6.1 4.4 2.8-3.3 4.8-4.4 7.7-4.4 2.1 0 4.1.9 5.1 2.2.9 1.2 1 1.9 1 5.7v5.9c-.1 5.3.1 5.6 2.9 5.7h.3v1.1h-9.9v-1.1h.2c2.9-.1 3-.3 2.9-5.7V20c0-2.5-.1-3.3-.8-4.1-.7-.9-1.7-1.3-3.1-1.3-2.1 0-4.1 1.3-6.3 4.3v7.8c-.1 5.2.1 5.5 2.7 5.7h.1v1.1H215v-1.1h.3c2.9-.1 3-.3 2.9-5.7v-5.5c0-3.1-.1-3.7-.6-4.7-.7-1.2-2-2-3.6-2-1.3 0-2.9.7-4.2 1.7-.2.2-.9.9-2 2.1v8.3c-.1 5.2.1 5.5 2.8 5.7h.2v1.1h-9.7v-1.1h.2c2.9-.1 3-.3 2.9-5.7v-5.9c.1-5.3-.1-5.5-2.9-5.7h-.2v-1.1c1.7-.1 4.6-.7 5.7-1.1h.7z" class="st0"/></svg>