<svg xmlns="http://www.w3.org/2000/svg" viewBox="0 0 303.53 296.4" width="303.53" height="296.4"><defs><style>.d{fill:#b3b3b3}.e{fill:#2997ff}.f{fill:none;stroke:#2997ff;stroke-linecap:round;stroke-linejoin:round;stroke-width:7.06px}</style></defs><g id="b"><g id="c"><path d="M301 287.73c-29.31-.36-36.55 0-62.6 1.09l-2.17-2.53c1.09-29.67 2.17-51.74 2.17-91.18 0-51.38-1.09-64.04-3.98-91.54l2.17-2.17 62.24-10.86 2.53 2.89c-.36 30.76-1.09 61.87-1.09 92.63 0 49.93 1.45 71.28 3.26 99.14l-2.53 2.53z" class="d"/><path d="M295.93 58.33c-25.69 3.26-32.57 3.98-57.17 8.32l-2.53-2.17c.36-6.87.36-14.11.36-20.99 0-8.68-.36-16.28-1.09-29.31l2.17-2.53 58.98-7.24 2.17 2.17-1.09 49.21-1.81 2.53z" class="e"/><path d="M222.27 286.28c1.09-29.67 2.17-51.74 2.17-91.18 0-51.38-1.09-64.04-3.98-91.54" class="f"/><circle cx="44.27" cy="31.53" r="31.53" class="e"/><path d="M18.14 92.51h52.68v200.36H18.14z" class="d"/><path d="M3.53 292.87V92.51" class="f"/></g></g></svg>