<svg xmlns="http://www.w3.org/2000/svg" id="a" viewBox="0 0 626.4 88.3" width="626.4" height="88.3"><style>.st0{fill:#b3b3b3}.st1{fill:#2997ff}.st2{fill:none}</style><path d="M31.7 19.4c-3.6 0-8.6 1.1-12.9 2.8l1.4 3.6c1.6-.8 3.4-1.2 4.8-1.2 5.1 0 10.3 2.8 13.2 5.2 6.1 5.5 9.3 14 9.3 23.3s-3.5 14.2-7 17.7c-.6.6-1.4 1-2.2 1.4l1.5 3.9c2.4-1 4.9-2.3 7.3-3.8 1.6-1 10.6-8.7 10.6-23.5.1-20-16.7-29.4-26-29.4z" class="st0"/><path d="M33 73.4c-3.6 0-9.3-1.3-14.7-7-3.2-3.5-7.4-8.9-7.4-18.3S12.6 32.7 17 28c.9-.9 2-1.7 3.2-2.2l-1.4-3.6c-1.3.5-2.5 1.1-3.7 1.7-3.8 2-6.4 4.4-9.4 8.4C2.3 36.7 0 43.6 0 49.5c0 4.8 1.6 12.7 6.2 18.8 5.5 7.3 16.6 10.5 21.5 10.5 4 0 8-.9 12.1-2.6l-1.5-3.9c-1.8.8-4 1.1-5.3 1.1zm77.1-.4c-11.6 0-20.2-11.6-20.2-28.8 0-11 3.6-16.3 7.4-18.8.6-.4 1.3-.8 2.1-1.1l-1.5-4.6c-2.8 1-5.4 2.3-7.7 3.8-7.4 5.1-12.7 12.8-12.7 24.3 0 15 7.7 31.1 28.9 31.1 3.4 0 7-.8 10.2-2.1l-1.5-4.7c-1.6.7-3.4.9-5 .9z" class="st1"/><path d="M109.2 17.8c-3.8 0-7.7.8-11.3 2l1.5 4.6c1.6-.6 3.3-.9 4.9-.9 12.4 0 20.2 11.3 20.2 28.2 0 8.9-1.6 14.7-5.5 18.3-1.1 1.1-2.4 1.8-3.8 2.3l1.5 4.7c2.6-1 4.9-2.2 6.7-3.3 9-5.7 13.5-15.4 13.5-26.6 0-16.4-10.2-29.3-27.7-29.3zM210.3 30c-.3.3-.8 0-.8-.3 0-2 .1-6.6.1-7.5-.1-.3-.3-.5-.4-.6-3.5 2-10.3 4.2-16.2 4.8-.5.3-.9 2.6-.5 3.1 2.5.8 4.7 1.6 6.1 2.9 1.2 1 1.2 2.9 1.2 3.6 0 8.7 0 22.2-.4 29.4-.1 2.9-.5 4.4-2.7 5.1-1.3.4-2.6.7-4.9 1-.6.4-.6 3.2 0 3.8 3.2 0 6-.4 12.7-.4 5.3 0 9.7.4 12.7.4.5-.5.8-3.2.3-3.8-2.1-.4-3.9-.7-4.9-.9-2.2-.5-2.7-2.1-2.7-3.8-.3-6.1-.1-22-.1-30.4 0-1.2.7-2.2 1.6-3v-4.1c-.5.2-.8.4-1.1.7z" class="st0"/><path d="M227.9 21.6c-3.7 0-9.7 2.3-16.8 7.6v4.1l.1-.1c3.5-2.7 7.7-4 10.5-4 5.4 0 8.2 2.7 9.7 5.8l9-5.9c-2.6-4.4-6.9-7.5-12.5-7.5z" class="st1"/><path d="M284.8 71.4c-3.4-.5-5.3-.8-6.9-1.7-.9-.5-1.3-1.8-1.3-2.7 0-5.3 0-17.4-.1-24.4 0-13.4-6.1-20.9-16.1-20.9-4.9 0-11.6 3.4-18.3 8.7-.3.1-.6.3-.9-.1-.2-.4-.4-.8-.6-1.1l-9 5.9c.6 1.3 1 2.6 1.2 3.8.8 3.9.6 21 .3 27.1-.1 2.9-.6 3.9-2.3 4.4-1.6.5-3 .7-5.2 1-.5.5-.5 3.4 0 3.8 2.3 0 8.2-.4 12.1-.4 5.6 0 9.5.3 13.1.4.5-.4.9-3.2.4-3.8-2.6-.4-3.9-.7-5.6-1.2-1.2-.5-2.1-1.3-2.1-3.1-.3-5.5-.1-15.7-.1-22.7 0-3.9-.1-6.9-.5-9.4 0-.3 0-.8.3-.9 3.9-3.2 8-4.7 11.4-4.7 8 0 10.9 5.7 11.6 10 .8 3.9.5 17.4.4 24.4-.1 4.2-.4 5.7-2.3 6.4-1.4.5-2.6.8-4.9 1.2-.5.4-.4 3.4 0 3.8 3.2-.3 6.6-.4 13.1-.4 5.3 0 9.6.4 12 .4.2-.3.6-3.3.3-3.8z" class="st0"/><path d="M339.7 20.3c-7.3 0-13.3 3.2-19 10v3.8c2.4-2.6 3.9-4.2 4.3-4.6 3.5-3 7.5-4.7 11.2-4.7 4.2 0 7.7 2 9.4 5.2.7 1.5 1.1 2.8 1.3 5.4l8.3-5.3c-2.6-6.4-7.8-9.8-15.5-9.8z" class="st1"/><path d="M319.8 31.4c0-4.4-.6-7.9-2-11h-.6c-2.9 1-10.6 2.6-14.9 2.9v3h.6c7.7.3 7.9.9 7.8 14.9v15.7c.1 14.2-.1 14.8-7.8 14.9h-.6v3h25.6v-3h-.6c-7.3-.3-7.7-1-7.4-14.9V35c.3-.3.6-.7.9-1v-3.8c-.4.5-.7.8-1 1.2zm80.3 40.4c-7.5-.1-7.9-.9-7.7-14.9V41.1c0-9.9-.4-11.8-2.7-14.9-2.6-3.5-8-5.8-13.6-5.8-7.5 0-12.7 3-20.3 11.7-.2-.7-.4-1.4-.7-2l-8.3 5.3c.1 1.6.1 3.8.1 7v14.5c.1 14.2-.1 14.8-7.8 14.9h-.8v3h25.3v-3h-.4c-7-.3-7.4-1-7.1-14.9V36.2c5.9-7.8 10.9-11.3 16.6-11.3 3.6 0 6.6 1.3 8.3 3.6 1.7 2.1 2.1 4.3 2.1 10.9v17.4c.1 14.2-.1 14.7-7.8 14.9h-.5v3H401v-3l-.9.1z" class="st0"/><path d="M484.9 21.4c-.1 0-.5-.1-.7.1-2.2 6.5-7.5 21.2-9.7 28.1 0 .5.1.8.5.9 1.3.1 5.5.1 10.4.1 3.1 0 7.4 0 8.7-.1.3 0 .7-.5.4-1-2.6-8.1-7.5-22.5-9.6-28.1zm76.9 31.7h30.6l-15.3-36.9z" class="st2"/><path d="M494 14.7c-.9-2.5-1.6-4.8-2.1-6.8-.4 0-1.7.1-4.3.1-2.2 0-3.8-.1-4.3-.1-.3 1.8-1.2 4.7-2.2 7.4-2.1 6.1-9.3 25.7-15.5 41.8h6.5c.3-.3.6-.5.9-.5 1.6-.1 2.5 0 10.8 0 5.8 0 10.4-.1 12.2 0 .2 0 .6.2.9.5h12.3c-6-16.1-13.4-37.3-15.2-42.4zm.1 35.8c-1.3.1-5.6.1-8.7.1-4.9 0-9.1 0-10.4-.1-.4-.1-.5-.4-.5-.9 2.2-6.9 7.5-21.6 9.7-28.1.1-.3.5-.1.7-.1 2.1 5.6 7 20 9.6 28.1.3.5-.1 1-.4 1z" class="st0"/><path d="M515.5 74c-1.4-3.3-3.8-9.6-6.4-16.9h-12.3c.1.1.2.3.3.4 2.3 5.7 6.1 16.3 7.7 22h13.4c-.8-1.3-1.6-3.1-2.7-5.5z" class="st1"/><path d="M518.2 79.6h-13.4c0 .1.1.2.1.3.4 1.2.3 2.5-1.4 3.2-2 .7-4.3 1-7.1 1.4-.5.5-.3 3.2.1 3.8 2.7-.1 10.7-.4 17-.4 5.8 0 12.5.3 15.8.4.4-.5.8-3.4.3-3.8-6.8-.8-9.1-1.4-11.4-4.9z" class="st0"/><path d="M459.4 72.5c-1.4 3.2-2.5 5.4-3.6 7.1h8.8v-.7c.3-3.1 4.4-14 7-21 .1-.2.2-.4.4-.6h-6.5c-2.2 5.7-4.3 11-6.1 15.2z" class="st1"/><path d="M444.2 84.6c-.5.5-.5 3.2 0 3.8 2.5 0 6.5-.4 13.9-.4s13.9.4 16.6.4c.4-.5.7-3.2.3-3.8-2.5-.3-4.7-.7-6.2-1-3.6-.9-4.2-2.2-4.2-4h-8.8c-2.4 3.5-5.2 4.2-11.6 5zM583.1 0h-2.5l-23.8 57.2h3.3l.4-1h32.9l.4 1H607L583.1 0zm-21.3 53.1l15.3-36.9 15.3 36.9h-30.6z" class="st0"/><path d="M612 69l-5-11.8h-13.2l6.2 14.9c2.4 5.3 2.8 6.4 3 7.5h13.8c-1.2-2.3-2.7-5.6-4.8-10.6z" class="st1"/><path d="M625.7 84.9c-4.5-.8-6.5-1.5-8.8-5.4H603v.9c0 3.5-2.3 4.6-9.6 4.6h-1v3h34v-3l-.7-.1z" class="st0"/><path d="M555.5 60.3l-3.1 7.4c-2.2 5.7-3.8 9.4-5.6 11.9h6.9c-.2-.8-.4-1.6-.4-2.5 0-3 .7-5.2 5.1-15.5l1.8-4.4h-3.3l-1.4 3.1z" class="st1"/><path d="M538.2 84.8l-1.2.1v3h25.7v-3h-1c-4 0-7-2.1-8.1-5.4h-6.9c-2.2 3.2-4.6 4.4-8.5 5.3z" class="st0"/></svg>