<?xml version="1.0" encoding="utf-8"?>
<!-- Generator: Adobe Illustrator 26.2.1, SVG Export Plug-In . SVG Version: 6.00 Build 0)  -->
<svg version="1.1" id="a" xmlns="http://www.w3.org/2000/svg" xmlns:xlink="http://www.w3.org/1999/xlink" x="0px" y="0px"
	 viewBox="0 0 626.4 88.3" style="enable-background:new 0 0 626.4 88.3;" xml:space="preserve">
<style type="text/css">
	.st0{fill:#B3B3B3;}
	.st1{fill:#2997FF;}
	.st2{fill:none;}
</style>
<g>
	<g>
		<path class="st0" d="M31.7,19.4c-3.6,0-8.6,1.1-12.9,2.8l1.4,3.6c1.6-0.8,3.4-1.2,4.8-1.2c5.1,0,10.3,2.8,13.2,5.2
			c6.1,5.5,9.3,14,9.3,23.3s-3.5,14.2-7,17.7c-0.6,0.6-1.4,1-2.2,1.4l1.5,3.9c2.4-1,4.9-2.3,7.3-3.8c1.6-1,10.6-8.7,10.6-23.5
			C57.8,28.8,41,19.4,31.7,19.4L31.7,19.4z"/>
		<path class="st1" d="M33,73.4c-3.6,0-9.3-1.3-14.7-7c-3.2-3.5-7.4-8.9-7.4-18.3s1.7-15.4,6.1-20.1c0.9-0.9,2-1.7,3.2-2.2l-1.4-3.6
			c-1.3,0.5-2.5,1.1-3.7,1.7c-3.8,2-6.4,4.4-9.4,8.4C2.3,36.7,0,43.6,0,49.5c0,4.8,1.6,12.7,6.2,18.8c5.5,7.3,16.6,10.5,21.5,10.5
			c4,0,8-0.9,12.1-2.6l-1.5-3.9C36.5,73.1,34.3,73.4,33,73.4L33,73.4z"/>
		<path class="st1" d="M110.1,73c-11.6,0-20.2-11.6-20.2-28.8c0-11,3.6-16.3,7.4-18.8c0.6-0.4,1.3-0.8,2.1-1.1l-1.5-4.6
			c-2.8,1-5.4,2.3-7.7,3.8c-7.4,5.1-12.7,12.8-12.7,24.3c0,15,7.7,31.1,28.9,31.1c3.4,0,7-0.8,10.2-2.1l-1.5-4.7
			C113.5,72.8,111.7,73,110.1,73L110.1,73z"/>
		<path class="st0" d="M109.2,17.8c-3.8,0-7.7,0.8-11.3,2l1.5,4.6c1.6-0.6,3.3-0.9,4.9-0.9c12.4,0,20.2,11.3,20.2,28.2
			c0,8.9-1.6,14.7-5.5,18.3c-1.1,1.1-2.4,1.8-3.8,2.3l1.5,4.7c2.6-1,4.9-2.2,6.7-3.3c9-5.7,13.5-15.4,13.5-26.6
			C136.9,30.7,126.7,17.8,109.2,17.8L109.2,17.8z"/>
	</g>
	<g>
		<g>
			<path class="st0" d="M210.3,30c-0.3,0.3-0.8,0-0.8-0.3c0-2,0.1-6.6,0.1-7.5c-0.1-0.3-0.3-0.5-0.4-0.6c-3.5,2-10.3,4.2-16.2,4.8
				c-0.5,0.3-0.9,2.6-0.5,3.1c2.5,0.8,4.7,1.6,6.1,2.9c1.2,1,1.2,2.9,1.2,3.6c0,8.7,0,22.2-0.4,29.4c-0.1,2.9-0.5,4.4-2.7,5.1
				c-1.3,0.4-2.6,0.7-4.9,1c-0.6,0.4-0.6,3.2,0,3.8c3.2,0,6-0.4,12.7-0.4c5.3,0,9.7,0.4,12.7,0.4c0.5-0.5,0.8-3.2,0.3-3.8
				c-2.1-0.4-3.9-0.7-4.9-0.9c-2.2-0.5-2.7-2.1-2.7-3.8c-0.3-6.1-0.1-22-0.1-30.4c0-1.2,0.7-2.2,1.6-3v-4.1
				C210.9,29.5,210.6,29.7,210.3,30L210.3,30z"/>
			<path class="st1" d="M227.9,21.6c-3.7,0-9.7,2.3-16.8,7.6v4.1c0,0,0.1-0.1,0.1-0.1c3.5-2.7,7.7-4,10.5-4c5.4,0,8.2,2.7,9.7,5.8
				l9-5.9C237.8,24.7,233.5,21.6,227.9,21.6L227.9,21.6z"/>
			<path class="st0" d="M284.8,71.4c-3.4-0.5-5.3-0.8-6.9-1.7c-0.9-0.5-1.3-1.8-1.3-2.7c0-5.3,0-17.4-0.1-24.4
				c0-13.4-6.1-20.9-16.1-20.9c-4.9,0-11.6,3.4-18.3,8.7c-0.3,0.1-0.6,0.3-0.9-0.1c-0.2-0.4-0.4-0.8-0.6-1.1l-9,5.9
				c0.6,1.3,1,2.6,1.2,3.8c0.8,3.9,0.6,21,0.3,27.1c-0.1,2.9-0.6,3.9-2.3,4.4c-1.6,0.5-3,0.7-5.2,1c-0.5,0.5-0.5,3.4,0,3.8
				c2.3,0,8.2-0.4,12.1-0.4c5.6,0,9.5,0.3,13.1,0.4c0.5-0.4,0.9-3.2,0.4-3.8c-2.6-0.4-3.9-0.7-5.6-1.2c-1.2-0.5-2.1-1.3-2.1-3.1
				c-0.3-5.5-0.1-15.7-0.1-22.7c0-3.9-0.1-6.9-0.5-9.4c0-0.3,0-0.8,0.3-0.9c3.9-3.2,8-4.7,11.4-4.7c8,0,10.9,5.7,11.6,10
				c0.8,3.9,0.5,17.4,0.4,24.4c-0.1,4.2-0.4,5.7-2.3,6.4c-1.4,0.5-2.6,0.8-4.9,1.2c-0.5,0.4-0.4,3.4,0,3.8c3.2-0.3,6.6-0.4,13.1-0.4
				c5.3,0,9.6,0.4,12,0.4C284.7,74.9,285.1,71.9,284.8,71.4L284.8,71.4z"/>
		</g>
		<g>
			<path class="st1" d="M339.7,20.3c-7.3,0-13.3,3.2-19,10v3.8c2.4-2.6,3.9-4.2,4.3-4.6c3.5-3,7.5-4.7,11.2-4.7c4.2,0,7.7,2,9.4,5.2
				c0.7,1.5,1.1,2.8,1.3,5.4l8.3-5.3C352.6,23.7,347.4,20.3,339.7,20.3L339.7,20.3z"/>
			<path class="st0" d="M319.8,31.4c0-4.4-0.6-7.9-2-11h-0.6c-2.9,1-10.6,2.6-14.9,2.9v3h0.6c7.7,0.3,7.9,0.9,7.8,14.9v15.7
				c0.1,14.2-0.1,14.8-7.8,14.9h-0.6v3h25.6v-3h-0.6c-7.3-0.3-7.7-1-7.4-14.9V35c0.3-0.3,0.6-0.7,0.9-1v-3.8
				C320.4,30.7,320.1,31,319.8,31.4L319.8,31.4z"/>
			<path class="st0" d="M400.1,71.8c-7.5-0.1-7.9-0.9-7.7-14.9V41.1c0-9.9-0.4-11.8-2.7-14.9c-2.6-3.5-8-5.8-13.6-5.8
				c-7.5,0-12.7,3-20.3,11.7c-0.2-0.7-0.4-1.4-0.7-2l-8.3,5.3c0.1,1.6,0.1,3.8,0.1,7v14.5c0.1,14.2-0.1,14.8-7.8,14.9h-0.8v3h25.3
				v-3h-0.4c-7-0.3-7.4-1-7.1-14.9V36.2c5.9-7.8,10.9-11.3,16.6-11.3c3.6,0,6.6,1.3,8.3,3.6c1.7,2.1,2.1,4.3,2.1,10.9v17.4
				c0.1,14.2-0.1,14.7-7.8,14.9h-0.5v3H401v-3L400.1,71.8L400.1,71.8z"/>
		</g>
	</g>
	<g>
		<path class="st2" d="M484.9,21.4c-0.1,0-0.5-0.1-0.7,0.1c-2.2,6.5-7.5,21.2-9.7,28.1c0,0.5,0.1,0.8,0.5,0.9
			c1.3,0.1,5.5,0.1,10.4,0.1c3.1,0,7.4,0,8.7-0.1c0.3,0,0.7-0.5,0.4-1C491.9,41.4,487,27,484.9,21.4L484.9,21.4z"/>
		<polygon class="st2" points="561.8,53.1 592.4,53.1 577.1,16.2 		"/>
		<path class="st0" d="M494,14.7c-0.9-2.5-1.6-4.8-2.1-6.8c-0.4,0-1.7,0.1-4.3,0.1c-2.2,0-3.8-0.1-4.3-0.1c-0.3,1.8-1.2,4.7-2.2,7.4
			c-2.1,6.1-9.3,25.7-15.5,41.8h6.5c0.3-0.3,0.6-0.5,0.9-0.5c1.6-0.1,2.5,0,10.8,0c5.8,0,10.4-0.1,12.2,0c0.2,0,0.6,0.2,0.9,0.5
			h12.3C503.2,41,495.8,19.8,494,14.7L494,14.7z M494.1,50.5c-1.3,0.1-5.6,0.1-8.7,0.1c-4.9,0-9.1,0-10.4-0.1
			c-0.4-0.1-0.5-0.4-0.5-0.9c2.2-6.9,7.5-21.6,9.7-28.1c0.1-0.3,0.5-0.1,0.7-0.1c2.1,5.6,7,20,9.6,28.1
			C494.8,50,494.4,50.5,494.1,50.5L494.1,50.5z"/>
		<path class="st1" d="M515.5,74c-1.4-3.3-3.8-9.6-6.4-16.9h-12.3c0.1,0.1,0.2,0.3,0.3,0.4c2.3,5.7,6.1,16.3,7.7,22h13.4
			C517.4,78.2,516.6,76.4,515.5,74L515.5,74z"/>
		<path class="st0" d="M518.2,79.6h-13.4c0,0.1,0.1,0.2,0.1,0.3c0.4,1.2,0.3,2.5-1.4,3.2c-2,0.7-4.3,1-7.1,1.4
			c-0.5,0.5-0.3,3.2,0.1,3.8c2.7-0.1,10.7-0.4,17-0.4c5.8,0,12.5,0.3,15.8,0.4c0.4-0.5,0.8-3.4,0.3-3.8
			C522.8,83.7,520.5,83.1,518.2,79.6L518.2,79.6z"/>
		<path class="st1" d="M459.4,72.5c-1.4,3.2-2.5,5.4-3.6,7.1h8.8c0-0.2,0-0.5,0-0.7c0.3-3.1,4.4-14,7-21c0.1-0.2,0.2-0.4,0.4-0.6
			h-6.5C463.3,63,461.2,68.3,459.4,72.5L459.4,72.5z"/>
		<path class="st0" d="M444.2,84.6c-0.5,0.5-0.5,3.2,0,3.8c2.5,0,6.5-0.4,13.9-0.4c7.4,0,13.9,0.4,16.6,0.4c0.4-0.5,0.7-3.2,0.3-3.8
			c-2.5-0.3-4.7-0.7-6.2-1c-3.6-0.9-4.2-2.2-4.2-4h-8.8C453.4,83.1,450.6,83.8,444.2,84.6L444.2,84.6z"/>
		<path class="st0" d="M583.1,0h-2.5l-23.8,57.2h3.3l0.4-1h32.9l0.4,1h13.2L583.1,0z M561.8,53.1l15.3-36.9l15.3,36.9H561.8
			L561.8,53.1z"/>
		<path class="st1" d="M612,69l-5-11.8h-13.2l6.2,14.9c2.4,5.3,2.8,6.4,3,7.5h13.8C615.6,77.3,614.1,74,612,69L612,69z"/>
		<path class="st0" d="M625.7,84.9c-4.5-0.8-6.5-1.5-8.8-5.4H603c0,0.3,0,0.5,0,0.9c0,3.5-2.3,4.6-9.6,4.6h-1v3h34v-3L625.7,84.9
			L625.7,84.9z"/>
		<path class="st1" d="M555.5,60.3l-3.1,7.4c-2.2,5.7-3.8,9.4-5.6,11.9h6.9c-0.2-0.8-0.4-1.6-0.4-2.5c0-3,0.7-5.2,5.1-15.5l1.8-4.4
			h-3.3L555.5,60.3L555.5,60.3z"/>
		<path class="st0" d="M538.2,84.8l-1.2,0.1v3h25.7v-3h-1c-4,0-7-2.1-8.1-5.4h-6.9C544.5,82.7,542.1,83.9,538.2,84.8L538.2,84.8z"/>
	</g>
</g>
</svg>
