<?xml version="1.0" encoding="UTF-8"?><svg id="a" xmlns="http://www.w3.org/2000/svg" viewBox="0 0 680 88.33"><defs><style>.b{fill:none;}.c{fill:#b3b3b3;}.d{fill:#2997ff;}</style></defs><g><path class="c" d="M31.69,19.37c-3.58,0-8.55,1.12-12.9,2.84l1.42,3.64c1.62-.8,3.35-1.24,4.79-1.24,5.09,0,10.32,2.76,13.23,5.23,6.11,5.52,9.3,13.96,9.3,23.26s-3.49,14.25-6.98,17.74c-.61,.57-1.37,1.03-2.19,1.4l1.53,3.9c2.42-1,4.86-2.28,7.35-3.85,1.6-1.02,10.61-8.72,10.61-23.55,0-19.92-16.86-29.37-26.17-29.37Z"/><path class="d" d="M33,73.45c-3.63,0-9.3-1.31-14.68-6.98-3.2-3.49-7.41-8.87-7.41-18.32s1.74-15.41,6.11-20.06c.91-.91,2.03-1.67,3.21-2.25l-1.42-3.64c-1.3,.51-2.54,1.07-3.68,1.67-3.78,2.04-6.4,4.36-9.45,8.43C2.33,36.67,0,43.64,0,49.46c0,4.8,1.6,12.65,6.25,18.75,5.52,7.27,16.57,10.47,21.52,10.47,4.02,0,8.04-.86,12.13-2.55l-1.53-3.9c-1.88,.86-4.05,1.21-5.37,1.21Z"/><path class="d" d="M110.09,73.01c-11.63,0-20.21-11.63-20.21-28.79,0-11.05,3.63-16.28,7.41-18.75,.62-.43,1.35-.79,2.11-1.09l-1.5-4.56c-2.81,1-5.44,2.3-7.74,3.76-7.41,5.09-12.65,12.79-12.65,24.28,0,14.97,7.71,31.11,28.93,31.11,3.38,0,6.99-.85,10.2-2.05l-1.54-4.69c-1.64,.56-3.38,.78-5.03,.78Z"/><path class="c" d="M109.22,17.77c-3.83,0-7.71,.78-11.3,2.05l1.5,4.56c1.56-.61,3.31-.94,4.86-.94,12.36,0,20.21,11.34,20.21,28.2,0,8.87-1.6,14.68-5.52,18.32-1.13,1.07-2.45,1.79-3.84,2.27l1.54,4.69c2.58-.97,4.91-2.16,6.66-3.33,9.01-5.67,13.52-15.41,13.52-26.6,0-16.28-10.18-29.22-27.62-29.22Z"/></g><g><g><path class="c" d="M231.27,29.95c-.26,.26-.78,0-.78-.26,0-1.95,.13-6.62,.13-7.53-.13-.26-.26-.52-.39-.65-3.51,1.95-10.26,4.16-16.24,4.81-.52,.26-.91,2.6-.52,3.12,2.47,.78,4.68,1.56,6.11,2.86,1.17,1.04,1.17,2.86,1.17,3.64,0,8.7,0,22.21-.39,29.36-.13,2.86-.52,4.42-2.73,5.07-1.3,.39-2.6,.65-4.94,1.04-.65,.39-.65,3.25,0,3.77,3.25,0,5.98-.39,12.73-.39,5.33,0,9.74,.39,12.73,.39,.52-.52,.78-3.25,.26-3.77-2.08-.39-3.9-.65-4.94-.91-2.21-.52-2.73-2.08-2.73-3.77-.26-6.1-.13-21.95-.13-30.4,0-1.24,.71-2.24,1.57-3.01v-4.06c-.31,.23-.61,.46-.92,.71Z"/><path class="d" d="M248.93,21.64c-3.73,0-9.74,2.27-16.75,7.61v4.06s.08-.07,.12-.11c3.51-2.73,7.66-4.03,10.52-4.03,5.37,0,8.18,2.74,9.66,5.77l9.04-5.87c-2.67-4.35-6.97-7.44-12.6-7.44Z"/><path class="c" d="M305.83,71.39c-3.38-.52-5.33-.78-6.88-1.69-.91-.52-1.3-1.82-1.3-2.73,0-5.33,0-17.41-.13-24.42,0-13.38-6.11-20.91-16.11-20.91-4.94,0-11.56,3.38-18.32,8.7-.26,.13-.65,.26-.91-.13-.2-.39-.42-.76-.65-1.13l-9.04,5.87c.63,1.29,1.02,2.64,1.25,3.84,.78,3.9,.65,21.04,.26,27.15-.13,2.86-.65,3.9-2.34,4.42-1.56,.52-2.99,.65-5.2,1.04-.52,.52-.52,3.38,0,3.77,2.34,0,8.18-.39,12.08-.39,5.59,0,9.48,.26,13.12,.39,.52-.39,.91-3.25,.39-3.77-2.6-.39-3.9-.65-5.58-1.17-1.17-.52-2.08-1.3-2.08-3.12-.26-5.46-.13-15.72-.13-22.73,0-3.9-.13-6.88-.52-9.35,0-.26,0-.78,.26-.91,3.9-3.25,8.05-4.68,11.43-4.68,8.05,0,10.91,5.71,11.56,10,.78,3.9,.52,17.41,.39,24.42-.13,4.16-.39,5.71-2.34,6.36-1.43,.52-2.6,.78-4.94,1.17-.52,.39-.39,3.38,0,3.77,3.25-.26,6.62-.39,13.12-.39,5.33,0,9.61,.39,11.95,.39,.52-.26,.91-3.25,.65-3.77Z"/></g><g><path class="d" d="M360.71,20.34c-7.29,0-13.29,3.18-19,9.98v3.75c2.44-2.65,3.85-4.17,4.32-4.63,3.51-2.99,7.53-4.68,11.17-4.68,4.16,0,7.66,1.95,9.35,5.2,.72,1.52,1.09,2.75,1.28,5.37l8.3-5.27c-2.54-6.37-7.74-9.71-15.42-9.71Z"/><path class="c" d="M340.83,31.38c0-4.42-.65-7.92-1.95-11.04h-.65c-2.86,1.04-10.65,2.6-14.94,2.86v2.99h.65c7.66,.26,7.92,.91,7.79,14.94v15.72c.13,14.16-.13,14.81-7.79,14.94h-.65v2.99h25.59v-2.99h-.65c-7.27-.26-7.66-1.04-7.4-14.94v-21.82c.31-.34,.59-.65,.88-.95v-3.75c-.29,.35-.58,.7-.88,1.06Z"/><path class="c" d="M421.11,71.78c-7.53-.13-7.92-.91-7.66-14.94v-15.72c0-9.87-.39-11.82-2.73-14.94-2.6-3.51-8.05-5.84-13.64-5.84-7.53,0-12.73,2.99-20.26,11.69-.2-.69-.44-1.35-.69-1.98l-8.3,5.27c.11,1.64,.15,3.82,.15,6.97v14.55c.13,14.16-.13,14.81-7.79,14.94h-.78v2.99h25.33v-2.99h-.39c-7.01-.26-7.4-1.04-7.14-14.94v-20.65c5.85-7.79,10.91-11.3,16.63-11.3,3.64,0,6.62,1.3,8.31,3.64,1.69,2.08,2.08,4.29,2.08,10.91v17.41c.13,14.16-.13,14.68-7.79,14.94h-.52v2.99h26.11v-2.99h-.91Z"/></g></g><g><path class="b" d="M538.43,21.43c-.13,0-.52-.13-.65,.13-2.21,6.5-7.53,21.17-9.74,28.06,0,.52,.13,.78,.52,.91,1.3,.13,5.46,.13,10.39,.13,3.12,0,7.4,0,8.7-.13,.26,0,.65-.52,.39-1.04-2.6-8.05-7.53-22.47-9.61-28.06Z"/><polygon class="b" points="615.31 53.13 645.97 53.13 630.64 16.24 615.31 53.13"/><path class="c" d="M547.52,14.68c-.91-2.47-1.56-4.81-2.08-6.75-.39,0-1.69,.13-4.29,.13-2.21,0-3.77-.13-4.29-.13-.26,1.82-1.17,4.68-2.21,7.4-2.1,6.12-9.27,25.67-15.55,41.84h6.49c.26-.28,.59-.53,.88-.53,1.56-.13,2.47,0,10.78,0,5.85,0,10.39-.13,12.21,0,.18,0,.6,.25,.89,.53h12.29c-5.92-16.19-13.34-37.38-15.14-42.49Zm.13,35.85c-1.3,.13-5.59,.13-8.7,.13-4.94,0-9.09,0-10.39-.13-.39-.13-.52-.39-.52-.91,2.21-6.88,7.53-21.56,9.74-28.06,.13-.26,.52-.13,.65-.13,2.08,5.59,7.01,20,9.61,28.06,.26,.52-.13,1.04-.39,1.04Z"/><path class="d" d="M569.09,74.04c-1.41-3.34-3.77-9.61-6.43-16.88h-12.29c.13,.13,.23,.26,.28,.38,2.29,5.73,6.08,16.33,7.7,22h13.44c-.84-1.35-1.66-3.12-2.69-5.51Z"/><path class="c" d="M571.78,79.55h-13.44c.03,.11,.07,.23,.1,.34,.39,1.17,.26,2.47-1.43,3.25-1.95,.65-4.29,1.04-7.14,1.43-.52,.52-.26,3.25,.13,3.77,2.73-.13,10.65-.39,17.02-.39,5.85,0,12.47,.26,15.85,.39,.39-.52,.78-3.38,.26-3.77-6.79-.85-9.13-1.44-11.34-5.01Z"/><path class="d" d="M512.97,72.48c-1.36,3.17-2.45,5.43-3.59,7.07h8.77c0-.23,0-.46,.02-.7,.26-3.12,4.42-14.03,7.01-21.04,.06-.17,.22-.42,.42-.64h-6.49c-2.25,5.8-4.39,11.17-6.14,15.32Z"/><path class="c" d="M497.77,84.56c-.52,.52-.52,3.25,0,3.77,2.47,0,6.49-.39,13.9-.39s13.9,.39,16.63,.39c.39-.52,.65-3.25,.26-3.77-2.47-.26-4.68-.65-6.23-1.04-3.58-.92-4.18-2.16-4.18-3.97h-8.77c-2.47,3.53-5.22,4.22-11.61,5.01Z"/><path class="c" d="M636.61,0h-2.47l-23.78,57.17h3.35l.43-1.05h32.86l.44,1.05h13.18L636.61,0Zm-21.3,53.13l15.33-36.89,15.33,36.89h-30.66Z"/><path class="d" d="M665.58,68.98l-4.96-11.81h-13.18l6.19,14.93c2.36,5.33,2.85,6.45,2.96,7.46h13.83c-1.32-2.24-2.75-5.55-4.83-10.57Z"/><path class="c" d="M679.22,84.95c-4.54-.83-6.51-1.5-8.81-5.4h-13.83c.03,.27,.03,.53,.03,.86,0,3.51-2.34,4.55-9.61,4.55h-1.04v2.99h34.03v-2.99h-.78Z"/><path class="d" d="M609.08,60.27l-3.12,7.4c-2.18,5.67-3.85,9.37-5.63,11.87h6.92c-.24-.78-.38-1.62-.38-2.52,0-2.99,.65-5.2,5.07-15.46l1.78-4.4h-3.35l-1.29,3.11Z"/><path class="c" d="M591.8,84.82l-1.17,.13v2.99h25.72v-2.99h-1.04c-3.99,0-7.04-2.12-8.07-5.4h-6.92c-2.25,3.16-4.68,4.4-8.53,5.27Z"/></g></svg>