<svg xmlns="http://www.w3.org/2000/svg" id="Layer_1" width="480" height="524.6" viewBox="0 0 480 524.6"><style>.st0{fill:#505050}</style><path d="M129.1 378.3c1.8 0 5.7.3 9.8.3h14.5c2.8 0 6.6-.1 8.2-.3l.3.3c-.6 2.2-1.1 7.1-1.4 10.1-.3.3-2 .3-2.3.2-.2-2.1-.5-3.4-.9-4.5-.6-1.8-1.3-2.6-3.7-2.8-1.4-.1-10.3-.1-11.2 0-.5.2-.9 1-.9 1.4-.1 4.2-.1 12.2-.1 15.6 0 .2.2.5.3.5 3 .1 8.6.1 11.2-.2 1.6-.2 2.1-1 2.6-2.2.3-.9.6-1.8.9-3 .4-.2 2.1-.2 2.5.2-.2 1.4-.5 4.3-.5 7s.1 4.8.2 6.6c-.3.3-2.1.4-2.6.1-.2-1.5-.3-2.1-.6-3-.3-1-.9-2-2.6-2.1-2.2-.2-8.3-.2-11-.2-.2 0-.3.3-.3.6 0 3.4 0 11.1.2 14.7 0 1.4.9 2.6 1.7 2.8 1.4.3 7.8.4 10.9.4 3.1-.1 4.2-.7 5.4-2.5 1.2-1.4 2.7-4.2 3.7-6.5.3-.1 1.8.4 2.1.9-.3 2.3-2 7.8-3.1 10.1-.4.9-.9 1.2-4.6 1.2-6.2 0-11.5-.3-19.1-.3-4.9 0-8.6.2-11.6.2-.3-.2-.3-1.8-.1-2.1 2.3-.2 4.2-.3 5.6-.7 1.8-.4 2.3-1.4 2.6-4 .1-1.4.1-9.4.1-17.8 0-6.6 0-13.3-.1-14.6-.2-2.6-.4-3.3-2.2-3.7-1-.3-2.2-.5-3.9-.7-.5-.3-.3-1.6 0-2zm88.2 30.3l-1 15.2h-40.5v-1.7h1c5.9-.1 6.5-1 6.3-11v-24c.2-9.6-.3-10.6-5.8-10.6h-.6v-1.7h35l1.1 12.2h-1.7c-2-9-4.6-10.9-14.4-10.6H190V397h5.2c6.2 0 7.4-1.1 7.4-6.7v-.6h1.7v16.8h-1.7v-.5c-.2-6.1-1.3-7.2-7.2-7H190v11.6c0 11.2.3 11.8 7.1 11.8h3.7c7.8.3 12.2-3.7 14.7-13.5h1.8v-.3zm44.8-30.3c1.7 0 4.2.2 8.5.2 4.2 0 7-.2 11.8-.2 5 0 13 1.6 13 10.3 0 4.2-2.9 7.7-7.1 9.4-.2.1-.2.2 0 .3 5.8 1.4 10.4 4.8 10.4 11.4 0 6.1-3.6 10.2-9.2 12.6-3.4 1.4-7.5 1.8-11.4 1.8-3.3 0-11.9-.3-16.7-.2-.3-.2-.4-1.9-.1-2.1 1.4-.2 3.4-.3 4.7-.6 1.6-.4 2.1-1.1 2.4-3.7.2-2.4.2-8.8.2-16.7 0-9.2.1-13.9-.1-16.7-.1-2-.7-2.7-2-3.1-1-.3-2.9-.5-4.2-.6-.6-.2-.5-1.9-.2-2.1zm13.2 2.9c-.3.2-.6.9-.6 1.2-.1 2.1-.2 9.9-.2 15.1 0 .2.2.3.3.3.9.1 2.6.2 4.6.2 3.6 0 5-.3 5.9-.9 2.4-1.4 3.4-4 3.4-6.9 0-6.4-4-9.4-11-9.4-.6.3-1.6.3-2.4.4zm16.4 30.2c0-7-5-10.8-13.3-10.8-1.1 0-3 0-3.5.2-.2 0-.3.2-.3.3 0 4.6 0 13.6.2 16.6.2 1 .9 2.3 1.7 2.8 1.3.9 4 1 5.7 1 5.8 0 9.5-3.2 9.5-10.1zm26.8-36.8c7.3-.3 7.3-.3 9.2-.3 5.7 0 10.1.6 13.2 2 4.5 1.9 7 5.4 7 9.7 0 6.2-4.7 10.2-13.8 11.5 10.7.9 16.6 5.4 16.6 13 0 4.7-2.5 8.9-6.5 11-3.1 1.7-6.7 2.3-14.9 2.3H310V422h1.8c5.8 0 6.4-1 6.2-11v-23.9c.2-10.2-.3-10.9-6.6-10.7h-1.1v-1.7l8.2-.1zm8.1 22.1c9.9 0 13.5-2.7 13.5-10.4 0-4.9-1.4-7.8-4.6-9.4-1.5-.6-3.9-1-7.6-1-1.1 0-1.8 0-2.9.2v20.6h1.6zm-1.6 12.7c0 6.2.2 8.6.5 9.9.5 2 2 2.8 5.4 2.8 7.7 0 11.6-4.1 11.6-11.7 0-8.7-4.1-12-14.9-12-1 0-1.1 0-2.7.1l.1 10.9zm86.8-5.7c0-.3.2-.6.3-.6.6.2 1.8.2 2.9.2 2.2 0 3.7-.3 5.1-1.1 3.4-1.9 4.5-5.4 4.5-9.4 0-6.7-3.4-11.7-11.8-11.7-.7 0-2.6.1-3.1.3-.2.2-.5.5-.6 1-.1 1.7-.2 5.5-.2 17.4 0 8.4-.1 13.9.1 17.8.2 2.6.6 3.2 2.7 3.7 1.1.3 2.6.4 4.4.6.3.3.2 1.9-.1 2.1-2.1 0-7.3-.2-10.2-.2-3.4 0-7.9.2-9.6.2-.3-.3-.3-1.8-.1-2 1.5-.2 3-.3 3.9-.6 1.8-.5 2.1-1.4 2.3-4.2.2-2.6.2-8.6.2-16.5 0-8.5.1-13.4-.1-15.7-.2-2.6-.6-3.4-2.6-3.9-1-.2-2.1-.4-3.6-.6-.3-.3-.1-1.8.2-2 1.2 0 5.2.2 8.7.2 4.4 0 7.6-.2 11.9-.2 2.6 0 7 .5 9.8 2.8 2.5 1.9 4.6 5 4.6 9.9 0 6.7-4 11-7.8 12.7-2.6 1.4-5.2 1.8-7.7 1.8-1.3 0-2.3-.1-3.1-.3-.6-.3-1-1.4-1-1.7zm42.6 7.4c-.2 10.1.4 11 6.2 11h1.6v1.7h-22.4v-1.7h1.3c5.8 0 6.3-1 6.2-11V387c.2-9.9-.3-10.6-6.6-10.5h-.9v-1.7l6.1-.2c7.6-.3 8.1-.3 11.5-.3 7.8 0 11.9.7 15.2 2.7 4.1 2.5 5.9 5.8 5.9 10.6s-2.2 8.9-5.9 11c-2.6 1.5-6.1 2.1-12.7 2.1h-5.6l.1 10.4zm3.5-12.1c4.8 0 6.7-.4 8.9-2 2.6-1.9 4.1-5 4.1-9.2 0-4.2-1.4-7.7-3.7-9.5-2-1.6-4.5-2.2-9.3-2.2-1.5 0-2.3.1-3.4.2V399h3.4zM2.3 378.3c1.4 0 5.1.2 9 .2h17.4c2.9 0 5.6-.2 7-.3.2 0 .3.3.3.4-.5 1.8-1 6.3-1.1 10.4-.2.3-2 .5-2.4.2-.3-2.4-.6-3.7-1.1-5-.6-1.6-1.4-2.5-3.3-2.6-2.6-.1-10.6-.2-12.4 0-.5.1-.9.9-.9 1.4-.1 4.2-.2 11.6-.2 16.6 0 .2.3.3.3.3 3.3 0 9.5 0 11.9-.2 1.9-.2 2.6-1.1 3-2.4.3-.9.6-2 .9-3.2.5-.2 2.1-.1 2.6.2-.2 1.7-.4 4.8-.4 7.4 0 2.6.1 5 .2 7-.3.3-1.8.3-2.4.2-.3-1.5-.6-2.4-.9-3.2-.4-1.5-1.3-2.3-2.6-2.4-2.6-.2-10.5-.2-12.2-.2-.2 0-.3.3-.3.3 0 4.5 0 10.6.2 13.7.1 2.5.4 3.4 2.6 3.9 1.4.3 3 .4 4.9.6.3.3.2 1.8-.1 2.1-2.4 0-5.6-.2-11-.2-4.5 0-7 .2-9.4.2-.3-.2-.3-1.8 0-2.1 1.7-.2 3-.3 3.9-.6 2-.5 2.5-1.3 2.6-3.9.1-2.6.1-7.9.1-16.7 0-8.1 0-13.5-.2-15.8-.1-2.5-.3-3.1-1.9-3.7-1-.3-2.3-.5-4.2-.7-.3 0-.1-1.6.1-1.9zm83.3 8.7h-1.7c-1.4-8.2-4.6-11-12.4-10.5h-9.6v20.7h4.6c5.8.2 7.4-1.4 7.4-7v-.4h1.8v17.3h-1.8v-.8c-.1-5.9-1.8-7.7-7.4-7.4h-4.6v12.2c-.2 10.2.3 11 6.2 11h1.7v1.7H47v-1.7h1.5c5.8 0 6.3-1 6.2-11V387c.1-9.9-.3-10.6-6.6-10.5h-.9v-1.7H85l.6 12.2zm75.7 97.3c0 3.4-1.8 6.1-7.7 10.2-.1.1-.1.3 0 .3 6.6 4.2 9.3 7 9.3 12.1 0 6.5-6.6 12.2-14.5 12.2-10 0-13.6-6.2-13.6-11 0-3.3 1.2-5.7 9.1-11.2.2-.2.2-.3.1-.4-5.7-3.8-7.4-7.3-7.4-11 0-3.4 1.7-6.6 4.2-8.7 2.4-1.8 5.4-3.1 9-3.1 6.6-.1 11.5 4.4 11.5 10.6zm-4.3 25.6c0-4.9-2.9-7.5-10.5-11.8-.1-.1-.5-.1-.6 0-3.9 3.3-5.5 5.8-5.5 9.2 0 4.8 3.7 9.4 9.6 9.4 3.7 0 7-2.3 7-6.8zm-15-27c0 4.6 3 7 9 10.5.2.2.5.2.6 0 3.7-3.1 4.6-5.9 4.6-8.5 0-5.2-3.2-8.8-7.8-8.8-3.9.1-6.4 2.7-6.4 6.8zm64.6 23.4c0 7.8-6.2 13.3-15.4 13.3-8.6 0-15-5.6-15-13.1 0-6.5 4.4-11.4 11.7-12.7-6.2-1.5-10.2-6.2-10.2-11.9 0-7 5.8-12 13.6-12s13.8 5.1 13.8 12c0 6.1-3.8 10.4-10.6 11.9 7.2.6 12.1 5.8 12.1 12.5zm-24.4.4c0 4.1.6 6.4 2.1 8.3 1.5 1.8 4.1 3 6.9 3 3.2 0 6.2-1.3 7.6-3.2 1.3-1.8 1.8-4.5 1.8-8.2 0-4.7-1-7.8-2.9-9.5-1.5-1.4-4.2-2.3-6.6-2.3-5.9-.2-8.9 3.9-8.9 11.9zm1.2-25.2c0 7.5 2.6 11.4 7.7 11.4 5.5 0 8.3-3.7 8.3-10.8 0-4.1-.6-6.3-2.3-8.2-1.4-1.5-3.5-2.6-5.9-2.6-5 0-7.8 3.6-7.8 10.2zm110.9-4.1c-.3 1.2-1.7 3.7-3.1 5-.9.7-1.6 1-2.6 1-3.3 0-6.6-.3-7.8-.4-.4 0-.9.4-1 .6-.9 1.5-2 4.5-2.6 6-.2.4.1 1 .3 1 3.4 1.8 10.1 5 13.7 7.7 4.2 3 5.9 6.1 5.9 10.6 0 9.4-9.4 15.5-17.3 15.5-4.9 0-8-1.8-9.6-3.6-.5-.5-1-1.6-1-2.4 0-.9.7-3 1.4-3.8.1-.2.9-.3 1-.3 2 3.4 5.9 6.7 11.6 6.7 5 0 8.4-3.3 8.4-8.3 0-4.4-1.4-7-6.2-10.5-4.2-3-9.9-5.4-11.9-6.6-.2-.3-.3-1.8-.2-2.2 1.3-4.4 5.4-13.4 6.7-15.4.4-.3 1-1 1.6-.9 1.5 0 5.5.4 8.2.3 1.8 0 2.6-.3 3.7-1.1.1.2.9.7.8 1.1zm23 19.2l1.1-22.5h18.7c-2 4.6-2.4 4.9-4.7 4.8h-12.6l-.6 15c2.7-3.3 5.4-4.7 8.9-4.7 7.8 0 13.7 7 13.7 15.9 0 10.6-6.7 17.6-17.1 17.6-3.7 0-6.6-1-9.1-3-1.8-1.4-2.8-3.1-2.8-4.5 0-1.3 1-2.3 2.4-2.3 1.6 0 2.1.6 3.2 3.7 1.2 3.2 3 4.5 6.5 4.5 3.3 0 5.9-1.4 8.1-4.2 1.9-2.6 2.9-6.3 2.9-11.8 0-5.9-1.1-9.5-3.6-11.8-1.4-1.4-3.2-2-5.1-2-3.1 0-6 1.9-7.8 5.4l-2.1-.1zm118.4-18.3c-2.3 8-17.9 39.7-19.8 45-.1.2-.3.3-.4.3-.6-.1-2.4-.9-2.7-1.3-.2-.2-.1-.9 0-1 3.9-8.5 16-31.6 17.8-37.6 0-.2-.1-.3-.2-.3-3-.1-14.6-.2-18.1.2-2.1.2-2.9.7-5.2 5.6-.3.2-1.9-.3-2-.6 1-3.2 2.2-7.9 2.8-11.6 1.1.3 3.5.6 5.8.6h14.2c2.6 0 5.9 0 7.7-.2-.1.1.2.7.1.9zm15.9-5.4h1.4c.2 1.1.3 1.1 3.4 1.2h18.8l-13 39.5c-2.5 7.3-3.4 9-5.6 9-1.3 0-2.1-1-2.1-2.2 0-.9.2-1.7 1-3.3.2-.3.4-1 .9-2 .7-1.5 1.1-2.4 1.1-2.5l14.6-33.8h-17c-3-.1-3.5.4-4.7 4h-1.6l2.8-9.9zM27.3 483.7c0 4.8-3.4 7.8-6.5 9.9-.1.1-.1.3 0 .3 4.9 1.5 10.4 4.8 10.4 11.6 0 5.4-3.1 9.8-7.3 12.5-3.4 2.2-7 3.4-11.2 3.4-2.8 0-4.9-.4-6.4-1.2-1-.6-1.5-1.1-2.3-2.6-.6-1.4-1.2-3.7-1.4-5.4.1-.3 1.5-1 1.8-1 1.3 2.7 2.6 4.5 4.5 5.7 1.8 1.1 3.9 1.5 6.7 1.5 4.4 0 9.1-2.9 9.1-9.5.1-6.2-4.4-10.8-11.4-10.8-.6 0-1.5 0-2.6.2-.2-.3.7-2.6 1-2.8 7-1.4 9.6-4.9 9.6-9.1 0-4.3-2.7-7.8-7.4-7.8-3.2 0-5.9 1.5-8.6 4.2-.3.1-1.1-1.4-1.1-1.8 2.6-3 7.3-7.3 12.7-7.3 6.1-.1 10.3 4.5 10.4 10zm32 8c6.9 0 11.4 5.1 11.4 12.7 0 8.8-6.6 15-16.1 15-6.1 0-11.8-3.3-11.8-6.9 0-1.4 1-2.6 2.4-2.6s2 .6 2.8 3.1c1 3.1 3.1 4.6 6.4 4.6 6.5 0 10.2-4.9 10.2-13.7 0-6.6-2.8-11-7-11-2 0-3.1.6-5.5 3-.3.3-.6.5-1 .5-.6 0-1.1-.5-1.1-1.2s.4-1.1 3.7-3.4c3.6-2.6 5.1-3.7 6.5-5.4 1.8-2 2.8-4.7 2.8-7.7 0-4.8-2.7-7.8-7-7.8-4.6 0-8.2 3.3-8.2 7.4 0 2 .4 3 2.2 4.8.2.2.3.3.3.5 0 .5-2 1.5-3 1.5-1.5 0-3.1-2.7-3.1-5.4 0-5.9 5.6-10.5 13-10.5 7 0 11.9 3.7 11.9 8.9 0 3-1.7 5.8-5.4 8.8-.6.6-.6.6-5 3.5-1 .6-1 .6-1.5 1.1.7.3 1.2.2 2.1.2zm-22.2-205c-2.5-1.2-5.6-1.6-9.1-1.6-10.6 0-16.7 7.8-16.7 20.2 0 11.8 6.5 21.7 19.6 21.7 3.1 0 6.2-.9 8.1-2.6 1.8-1.4 3.6-4 5.5-7.2.3 0 1.6.6 1.8 1.2-.7 3.1-3.9 8.9-5.6 9.9-2.1.7-6.7 1.8-11.2 1.8-16.4 0-25.5-9-25.5-24.2 0-7.9 3.6-15.9 11.7-20.2 3.9-2.1 8.7-3.4 15-3.4s11.1 1.3 14.5 1.4c-.4 2.6-1.1 8-1.2 11.4-.3.3-2.2.5-2.3.2-.9-5.9-1.9-7.4-4.6-8.6zm66.4 23.8v17.1H102c-.3-1.7-1.4-3.9-2.4-5.1-4.3 4.8-9.9 7.3-16.6 7.3-14.4 0-24.1-10-24.1-24.5 0-15.6 9.9-26.3 24.1-26.3 6.5 0 13 2.8 16.6 7.2 1-1.8 1.7-4.2 1.9-6.3h1.5l.4 18.6H102c-.7-4.5-2-8.1-3.8-10.7-2.9-4.2-8.3-7-13.9-7-10.6 0-16.9 9-16.9 24.2 0 13.8 6.7 22.7 17.3 22.7 3.3 0 6.7-1 9.8-2.9 3.7-2.4 7-8.2 7.7-14.4h1.4l-.1.1zm79.8 13c-4.4-4.8-6.3-11-6.3-17.7 0-5.4 1.6-10.2 4.6-14.2 4.1-5.6 12.1-9.4 19.6-9.4 15 0 22.6 11 22.6 23 0 6.5-1.4 11-4.5 15.3-4.6 6.3-12 9.6-19.4 9.6-7 .1-12.8-2.4-16.6-6.6zm27.3.9c4.6-3.7 6.2-9.8 6.2-16.6 0-7.9-2.6-15.6-8.5-19.6-2.6-1.8-5.8-3-9.6-3-2.6 0-4.8.6-6.6 1.6-5.4 3.1-7.8 9.8-7.8 17.3 0 7.7 2.9 16.2 9.4 20.2 2.6 1.6 5.4 2.6 9.2 2.6 2.9.1 5.8-.8 7.7-2.5zm67.1-38.8c4.9 4.3 7.8 11.1 7.8 18.6 0 15.2-10.7 25.5-26.7 25.5-16.1 0-26.7-10.4-26.7-26 0-14.5 11-24.7 26.3-24.7 7.3 0 14.5 2.5 19.3 6.6zm-32.5 1.1c-3 3.5-4.8 10.4-4.8 17.5 0 8.5 2 15.3 5.4 18.8 3.2 3.3 7.7 5 13.3 5 11.7 0 18.2-8.4 18.2-23.5 0-8.6-2.2-15.3-6.1-19-3.1-3-7.5-4.6-12.3-4.6-5.8-.1-10.8 2.1-13.7 5.8zm162.1 56.8c-3.5 0-6.7-1.1-10.6-3.1-4.6-2.6-6.9-4.3-11.6-7.1-2-1.3-4.2-2.6-7.4-3-4.4-.6-8.1-1.7-11.6-4.2-6.2-4.4-9-11.8-9-19.8 0-5 1.4-9.9 4-13.7 4.3-6.3 12.4-10.1 20.5-10.1 13.8 0 22.4 10.2 22.4 23 0 7.5-2.4 13.3-6.1 17.4-2.7 2.9-6.3 5.1-10.1 6.4 2 .6 5.5 2.3 7 3 8.2 4.1 13.3 5.9 17.6 5.9 3.9.1 7-.6 9.7-2 .3.2.4 1.8.2 2.3-4.5 3.3-10.1 5-15 5zm-43.1-39.4c0 13.2 7.2 23.1 19 23.1 7.9 0 13.7-7.8 13.7-19.5 0-11.6-5.4-22.4-18.1-22.4-10.2.1-14.6 9.4-14.6 18.8zm78.3 25.5c-1.4.1-2.2.2-3.7.2-15.9 0-26.7-10.4-26.7-25.7 0-14.8 10.9-25.2 26.3-25.2 7.3 0 14.5 2.6 19.2 6.6 4.9 4.3 7.8 11.1 7.8 18.7 0 9.6-4.5 17.8-12.2 22-1.5.9-2.5 1.2-5 2l-10.6 6.1c1-.1 1.4-.1 2.1-.1 6.2 0 10.4.9 20.5 4.2 3.5 1.3 7.7 2 10.6 2 4.4 0 7-1.5 7.7-4.8h1.5c-1 7-5.9 11.1-13.3 11.1-4.8 0-7.8-1.1-14.6-5.4-6.3-4-10.3-5.5-14.5-5.5-2.7 0-4.2.6-6.9 2.7-1.8 1.5-2.3 1.8-3 1.8-.7 0-1.3-.4-1.3-1.2 0-1 .2-1.3 3.4-2.9 1.4-.7 2.2-1.2 3.1-1.6 1.6-.9 2-1.1 2.6-1.4l7-3.6zm-17.2-42.9c-3 3.5-4.8 10.4-4.8 17.5 0 8.5 2 15.3 5.4 18.8 3.2 3.3 7.7 5 13.3 5 11.7 0 18.2-8.4 18.2-23.5 0-8.6-2.2-15.3-6.1-19-3.1-3-7.5-4.6-12.3-4.6-5.8-.1-10.8 2.1-13.7 5.8zM8.6 233.9c3.7-8.9 10.6-27.6 12.2-32.3.6-1.5 1.1-3.1 1.3-4.2.3 0 1.2.1 2.5.1 1.4 0 2.2-.1 2.5-.1.3 1.1.6 2.5 1.2 3.8 1.4 4.2 9.6 27.4 12.2 33.6 2.1 4.9 2.6 5.4 7.9 5.9.3.2.1 1.8-.2 2.1-1.9-.1-5.7-.2-9-.2-3.6 0-8.1.2-9.6.2-.2-.3-.3-1.8-.1-2.1 1.6-.2 3-.4 4.1-.9 1-.4 1-1.2.9-1.8-.9-3.1-3.1-9.4-4.4-12.6-.1-.2-.5-.5-.6-.5-1-.1-3.6 0-7 0-4.7 0-5.2-.1-6.1 0-.3 0-.6.4-.7.6-1.4 4-3.8 10.2-4 11.9-.1 1.3.1 2 2.4 2.6.9.2 2.1.4 3.5.6.2.3.1 1.8-.2 2.1-1.5 0-5.4-.2-9.4-.2-4.2 0-6.5.2-7.8.2-.3-.3-.3-1.8 0-2.1 5.1-.5 6-1.1 8.4-6.7zm14.1-28.8c-1.3 3.7-4.2 12-5.5 15.9 0 .3.1.4.3.5.7.1 3.1.1 5.9.1 1.8 0 4.2 0 4.9-.1.2 0 .3-.3.2-.6-1.4-4.6-4.2-12.7-5.4-15.9-.2 0-.4 0-.4.1zm47 19.6l-1.3 3.1c-2.6 5.8-2.9 7-2.9 8.8 0 2.6 2 4.5 4.8 4.5h.6v1.7H56.4v-1.7l.6-.1c3.9-.9 5.2-2.5 8-9.7l1.8-4.2L81 192.9h1.4l16.4 39c3.2 7.8 3.7 8.3 7.7 9h.4v1.7H87.6V241h.6c4.2 0 5.4-.6 5.4-2.6 0-.9 0-.9-1.7-4.7l-3.7-9H69.7zm9.3-22.6L70.3 223h17.4L79 202.1zm66.8-4.9c1.8 0 5.8.2 9 .2 4.4 0 8.3-.2 9.4-.2.3.2.4 1.8.1 2-1.6.3-2.9.6-3.8.9-1.3.3-1.4 1.3-1 2.3 2.2 6.3 10.6 28.7 12 32 .1 0 .2 0 .3-.1 1.8-4.1 9.5-23.7 11.6-30.1.9-2.7.5-3.8-1.7-4.2-1.1-.2-2.3-.4-4-.7-.2-.3-.1-1.9.2-2 1.2 0 4.2.2 8.7.2 3.9 0 5.9-.2 7.7-.2.3.2.3 1.8 0 2-1.3.2-2.3.4-3.2.7-2.3.7-3 2.2-4.7 6.3-2.3 5.2-7.2 17.5-10.9 26.6-1.8 4.4-3.1 8.1-3.8 10.4-1.1-.2-3.3-.2-4.4 0-.7-2.9-1.8-6.2-3.1-10-3.7-9.9-8.2-22.1-10.4-27.4-1.7-4.1-2.6-5.2-4.7-5.9-1-.2-2-.4-3.4-.6-.4-.4-.3-2 .1-2.2zm82.1 46.7l-16.9-39c-.2-.3-.9-1.9-1.4-3.6-1.8-4.4-3.3-5.7-7.3-5.9h-.7v-1.7h21.1v1.7h-.4c-4.7 0-6.2.6-6.2 2.7 0 1 .1 1.4 1.7 4.9l14.1 32.6 11.2-27c2-4.8 2.9-7.4 2.9-8.8 0-2.7-1.8-4.2-5.1-4.3h-.7v-1.7h15v1.7h-.5c-3.7.6-5.1 2.4-8.2 10.2l-1.7 3.7-14.6 34.7-2.3-.2zm66-30.4c1.4 0 4 .2 7.1.2s6.4-.2 7.5-.2c.3.2.3 1.8.2 2.1-1.1.2-2.2.3-2.7.6-.6.2-.6 1-.6 1.3 1.3 4.2 6.1 16.7 6.6 17.7.1 0 .2.1.3 0 2.3-4.8 5.5-13.1 6-16.7.2-.9.2-1.7-1.3-2.1-.7-.2-1.9-.4-3.2-.6-.2-.4 0-1.8.3-2.1.9 0 3.7.2 6.3.2 2.6 0 4.8-.2 6.9-.2.3.3.3 1.7.1 2.1-1.1.2-1.9.3-2.6.6-1.4.3-2.2 1.4-2.9 3.3-5.2 13.7-11 26.3-17.4 37.2-.9 1.5-1.8 3.1-2.3 4.2l-.5.3c-1-.2-3.1-1.4-3.8-2-.1-.2-.2-1-.1-1.2 2.5-3 8.1-10.3 10.8-16.2 0-.1-.4-1-.6-1.4-1.6-4.2-4.8-12.3-7-17.8-1.9-4.8-2.7-6.1-4.8-6.6-.7-.2-1.4-.3-2.6-.4-.2-.7 0-2.3.3-2.3zm63.7 7.2c1.5-3.4 1.5-3.4 1.5-4.1 0-1-1.4-1.8-3.4-1.8h-.6v-1.7h10.5v1.7h-.3c-3 .3-4 1.4-5.9 6.5l-13.3 31.8c-2.5 5.9-4.1 7.8-6.5 7.8-1.4 0-2.4-.9-2.4-2.1 0-1.8 1-3 3.7-4.2 3-1.4 3.3-1.6 4.4-4.2l2.8-7-11.2-23.8c-1.8-4-2.6-4.6-5.1-4.8h-.6v-1.7h13.6v1.7h-.3c-2.3.1-3.2.5-3.2 1.4 0 .5 0 .5 1.4 3.5l8.2 17.4 6.7-16.4zm46.8-7.2c1.3 0 4 .2 7.2.2 3 0 5.7-.2 7-.2.3.2.3 1.8.2 2.1-1.1.2-2.2.3-2.9.6-.6.2-.6.9-.6 1.1.9 2.9 6 16.5 6.5 17.7.1.2.3.1.3 0 1.5-3.7 4.7-11.8 5.8-15.4.7-2.4.2-3-.6-3.3-1-.3-2-.5-3.3-.6-.2-.3 0-2 .3-2.1.9 0 3.7.2 6.6.2 2.6 0 5.1-.2 6-.2.3.2.2 1.8 0 2.1-.9.2-1.7.2-2.6.5-1.4.5-2 1.4-2.9 3.3-2 4.3-4.2 9.9-7 16.7-1.3 3.1-1.9 5.4-2.5 7-.9-.1-2.7-.1-3.4.1-.6-2-1.3-4.1-2.1-6.5-2-5.5-4.6-11.9-5.9-15.4-1.6-4-1.8-4.6-3.6-5.1-.9-.3-1.8-.4-2.9-.6-.2-.6.2-2.1.4-2.2zm57.3 30.4l-10.5-23.8c-1.9-4.4-2.6-5.1-5-5.4h-.3V213h13.4v1.7h-.5c-2.5 0-3.3.4-3.3 1.7 0 .7.1 1 1.4 3.9l8 17.9 7.2-16.1c1.4-3.2 1.7-4 1.7-5 0-1.4-1.1-2.5-3-2.6h-.6V213h9.8v1.7l-.6.1c-2.4.6-3.5 2.1-5.9 7.8l-9.5 21.2-2.3.1zm-447-84.8c-7.3 0-11.6.6-14.5.9-.2-.3-.3-1.8 0-2.2 1.1-.2 2.4-.5 3.1-.7 1.4-.5 1.8-1.3 2-3.6.1-2.2.2-6.6.2-18.6.1-9.7 0-12.9-.2-15.4-.1-1.4-.3-2-1.1-2.6-.9-.4-2-.7-3.4-1-.2-.3-.2-1.6.2-1.9 2.6-.3 7.2-1.9 9.9-3.4.2-.2.6.3.6.5-.2 1-.2 3.3-.2 4.6 0 .2.3.2.3.2 4.9-3.4 8.1-4.5 10.5-4.5 3 0 5.6 1.4 7.3 3.4 2.6 2.8 3.4 6.5 3.4 9.6 0 6.2-2.5 10.3-6.4 13.5-3.6 2.9-8.6 4.4-12.1 4.4-.7 0-1.9-.2-3-.4-.1-.1-.3.2-.3.2 0 5 .1 8.9.2 11.5.1 1.6.5 2.5 2.2 2.7 1 .2 2.9.4 4.4.6.2.3.1 1.9-.3 2.1l-2.8.1zm-2.8-40.9c-.3.2-.7 1-.7 1.5-.2 1.8-.1 11.5-.1 13.9.1 1.6.6 2.7 1.4 3.4 1.4 1.2 3.4 1.8 5.8 1.8 1.5 0 3.4-.5 5.1-2 2.2-1.8 3.4-5.4 3.4-9.4 0-3.3-.9-6.5-2.6-8.6-1.7-2-3.8-3-6.2-3-1.9.1-4.3.9-6.1 2.4zm39.4-7.5c.3 1 .7 3.5.6 4.8 3-3.1 6.6-4.8 10.6-4.8 8.4 0 14.4 6.5 14.4 15.6 0 9.6-6.2 16.4-15 16.4-3.9 0-6.6-1.2-10-4.4v11.4c-.2 7.9.1 8.4 4.4 8.5h.4v1.7H41.3v-1.7h1c4.3-.1 4.5-.4 4.4-8.5v-26.9c.2-8-.1-8.4-4.4-8.6h-1v-1.7c2.1-.2 5.4-.9 9-1.8h1zm.8 25.2c2.7 3.3 5.5 4.8 8.8 4.8 2.6 0 5-1.2 7-3.2 2.1-2.4 3.2-6.2 3.2-11.4 0-5.4-1.4-9-4.2-11.2-1.7-1.4-3.6-2-5.7-2-3.4 0-6.1 1.5-9 5l-.1 18zm111.8 23.2c-5.9.2-9.7.9-11.8.9-.3-.3-.3-1.8-.1-2 1.4-.2 2.9-.6 3.7-.9 1.4-.4 1.9-1.2 2.1-3.5.1-2.5.2-8.8.2-14.5 0-.2-.2-.2-.3-.2-2.7 1.8-7 3.4-9.4 3.4-7 0-12.2-6.1-12.2-14.8 0-5.1 2.5-9.4 5.9-12.1 3.6-2.6 9.1-4.2 13.5-4.2 2.7 0 6.9.7 9.3 1.4-.3.9-.7 2.4-.9 3.6-.2 2.6-.2 7.5-.2 10.6 0 7.2 0 22.6.2 26 .2 2.2.4 3 2.2 3.2.9.2 1.9.3 3.4.5.2.3.1 1.8-.2 2.1h-5.4v.5zm-21.8-33.9c0 8.4 4.8 12.9 10.8 12.9 1.6 0 3.2-.3 4.7-1.3.3-.2.4-.9.4-1 0-7 0-15.4-.3-17.8 0-.3-.4-1.4-.7-1.8-.9-.6-3-1.7-6.5-1.7-5 .2-8.4 3.9-8.4 10.7zm65.2-14.5v38.9c-.2 7.9.1 8.4 4.4 8.5h.9v1.7h-16.1v-1.7h1.2c4.3-.1 4.5-.4 4.4-8.5V139c-3.6 2.6-7 3.7-10.6 3.7-8.6 0-14.5-6.4-14.5-15.5 0-9.2 6.5-16.5 14.9-16.5 3.4 0 5.8.9 10.2 3.8 1.2-.7 2.7-2.1 4.1-3.8h1.1zm-5.2 6.1c-2.7-2.6-6-3.9-9-3.9-2.7 0-5.4 1.2-7 3.2-1.9 2.4-3 6.2-3 11.5 0 8.6 3.4 13.3 9.6 13.3 3 0 6.7-1.4 9.4-3.6v-20.5zm75.4-1.8c0 .2.3.2.4.2 3.4-2 7.6-3.7 9.9-3.7 3.7 0 6.5 1.6 8.3 3.8 2.6 2.8 3.2 6.7 3.2 9.4 0 6.4-2.6 11-6.5 13.8-3.1 2.4-7.9 4.1-10.9 4.1-2.5 0-4.6-.4-6.5-1-.9-.2-1.8-.3-3.4.1-.2 0-.5-.3-.5-.4.2-3.7.3-7.4.3-17.8 0-9-.1-21.5-.3-24.6-.1-1.3-.3-1.7-1.5-2-.9-.3-2.2-.5-3.7-.6-.3-.3-.2-1.6.2-1.9 3.7-.2 9-1.4 11.6-2.2.2 0 .5.7.4 1-.6.9-.9 2-.9 14.5v7.8h-.2v-.5zm.9 2.3c-.3.2-.6.5-.7 1.1-.2 1.6-.2 11.7.1 14.7.1 2.8.6 3.4 1.3 4.1 1.8 1.4 4.1 1.9 6 1.9 2.3 0 4.2-.6 5.8-2.6 1.6-1.8 2.6-5.4 2.6-8.7 0-4.2-1-6.7-2.4-8.7-2-2.6-4.5-3.4-7.1-3.4-2 0-4.6.9-5.6 1.6zm35.3 25.4v-39.6c.2-7-.4-8-4.2-8.1h-.5v-1.8c2.3.1 8-.9 9.2-1.5h.9v23.5c3.4-3 6.9-4.5 10.5-4.5 8.5 0 14.6 6.6 14.6 15.8 0 9.4-6.3 16.2-15 16.2-4.5 0-7.6-1.7-9.9-5.4-1.2 1-3.1 4-3.8 5.4h-1.8zm5.2-13.7c.1 5.1.1 5.4.9 7 1.4 3.1 4.6 5 8 5 6.3 0 10.2-5.6 10.2-14.8 0-8.6-3.4-13.6-9.4-13.6-3.3 0-6.4 1.5-9.5 4.7l-.2 11.7zm116.4 11c-1.9.9-7.7 2.7-9.5 2.8-.2 0-.4-.4-.5-1-.1-.6-.2-2.6-.2-3.6 0-.2-.2-.3-.3-.3-3.3 2.4-7.8 4.3-10.3 4.3-3.1 0-6-1.4-8-3.9-2.1-2.6-3.3-6.3-3.3-10.5 0-4.6 2-9.1 5.4-11.8 3-2.6 8.6-4.6 13.3-4.6 1.2 0 2.6.2 3.3.3.1 0 .3-.2.3-.3 0-8.6 0-11-.2-12.7-.2-1.4-.4-2-1.5-2.4-1-.3-2.9-.6-4.2-.7-.2-.4-.2-1.8.3-2 4.8 0 9.6-1.1 11.9-1.9.2.1.4.9.3 1-.6 1.1-.7 2.2-.9 5.5-.2 4-.3 9.7-.3 21.1 0 8.6 0 14.6.1 16.2.1 2.2.6 2.4 1.4 2.6.9.2 2.1.1 3.4 0 0 .3-.3 1.7-.5 1.9zm-23.2-23.3c-2 1.9-3.1 5-3.1 8.9 0 7.9 4.2 12.1 9.9 12.1 2.2 0 4.2-.7 5.8-2 .3-.3.6-1 .6-1.5.2-1.8.2-11.1.2-14.5-.1-1.5-.3-2.6-1.6-3.4-1.5-1.2-3.7-1.7-6-1.7-2.4 0-4.4.7-5.8 2.1zm57.2-13.3c.2-7.9-.1-8.3-4.4-8.5h-.7v-1.6c2.6 0 6.7-.6 9.6-1.5h.7v39.8c-.2 8 .1 8.4 4.4 8.6h.4v1.6c-2.6.1-6.6.4-9.4 1-.3-1.4-.4-2.8-.4-4.6 0-.1 0-.4.1-.9-3.7 3.7-7.4 5.4-11.4 5.4-7.8 0-14.1-7-14.1-15.8 0-9.3 6.2-16.2 14.4-16.2 3.8 0 7.8 1.6 10.7 4.3l.1-11.6zm0 13.8c-3.4-3-6.3-4.2-9.6-4.2-6.1 0-9.4 4.8-9.4 13.6 0 8.7 3.7 13.9 9.7 13.9 3.5 0 6.9-1.8 9.4-5.2v-18.1h-.1zM125.2 47.5c1-.3 1.4-1.4 1.5-2.6.2-2.3.2-7.4.2-12.1 0-2.9-.1-4.8-.2-5.9-.2-1-1.1-1.8-3.8-2.8-.2-.4.1-1.4.3-1.7 3-.3 7.2-1.7 9-2.7.1.1.3.3.3.5-.1.9-.2 3-.2 4.2 0 .2.2.2.3.2 3.8-3.1 7.4-4.8 10-4.8 3.1 0 5.4 1.4 7 3.8 1.4 2.2 1.9 5.1 1.9 8.7 0 4.2 0 10.7.2 13.3 0 .6.2 1.2.7 1.4 1.2.6 2.2.7 3.7 1 .2.3.2 1.8-.2 2.1-1 0-3.2-.2-7-.2-3.4 0-5.5.2-7.3.2-.2-.3-.3-1.8 0-2.1 1.4-.2 2.6-.3 3-.5 1-.3 1.3-1.1 1.4-3 .1-4.2.2-11.6-.2-14.2-.2-1.2-.6-3.1-2-4.3-1-1-2.5-1.7-4.6-1.7-2.1 0-4.4.9-6.1 2.4-.4.4-.7 1.1-.7 2.6 0 5.2 0 12.3.2 15.7.1 1.7.3 2.2 1.4 2.6.9.3 1.9.4 3.1.6.2.3.1 1.8-.2 2.1-1.1 0-3.1-.2-7.2-.2-3.6 0-6.2.2-7.1.2-.3-.3-.3-1.8 0-2.1.9-.4 1.7-.5 2.6-.7zm48.1-28.4c.3 1 .9 4.2 1 6.1 3.4-4.1 7.3-6.1 11.4-6.1 3.7 0 6.6 1.4 8.1 3.8 1 1.8 1.3 2.9 1.3 7.6v9.3c-.2 7.9.1 8.4 4.3 8.5h.5v1.6h-15.2v-1.7h.7c2.2.1 3.2-.3 3.9-1.4.3-.6.3-1 .4-2.5v-.7l.1-3.9v-9.5c0-4.2-.2-4.9-1-6.2-1-1.6-2.8-2.6-5-2.6-3.5 0-6.6 2-9.4 6.2v12.2c-.2 7.9.1 8.4 4.4 8.5h.4V50h-15v-1.7h.5c4.3-.1 4.5-.4 4.4-8.5V31c.1-8-.1-8.4-4.4-8.6h-.5v-1.6c3.1-.3 5-.9 8.1-1.7h1zm228.1 2.6c3-.1 8.4-.6 10.2-1.2-.2 1.8-.4 5.7-.4 14.4 0 3.9.1 6.3.3 7.5.6 2.4 2.3 4.2 6 4.2 2.2 0 4.2-.7 6-2.3.4-.3.7-1 .9-1.8.1-1 .1-7.1 0-16-.1-.9-.3-1.8-1.4-2.1-1-.3-2.6-.5-4.7-.9-.2-.4.1-1.8.3-2 3.9 0 10-.6 11.7-1-.2 1.4-.2 3.6-.2 6.4l-.1 16.7c.1 2 .4 2.6 1.6 2.7 1.1.1 2-.1 3.1-.2.1.3 0 1.8-.3 2.1-2.7 1.1-8.1 2.6-9.5 3-.2 0-.3-.3-.4-.6-.1-.9-.1-3-.1-4.2 0-.2-.3-.3-.4-.2-4.2 3.5-7.4 4.6-9.7 4.6-7.2 0-8.7-5-8.8-9.9 0-3.5.2-11.2 0-14.4-.1-1.3-.3-2.1-1.2-2.6-.6-.2-2-.4-3.4-.6.1-.1.1-1.4.5-1.6zM473.6 40c-.2 7.9.1 8.4 4.2 8.6h.3v1.7c-3.8.1-6.2.3-8 1.2h-.4c-.9-1.4-1.2-3.6-1.3-7-2.7 4.3-7 7-11.4 7-3.4 0-6.6-1.7-8.1-4.2-.9-1.4-1.1-3.3-1.1-6.5V30.7c.2-7.9-.1-8.4-4.4-8.5h-.4v-1.7h10.1v20.6c0 3.5.2 4.5 1 5.7 1 1.4 2.8 2.2 4.7 2.2 2.6 0 5.4-1.4 7.4-3.7 1.9-2.2 2.3-3.5 2.3-7.8v-6.6c.2-7.9-.1-8.4-4.4-8.5h-.7v-1.8h10.3V40h-.1zM.4 2.5C4.8 2.2 9.2 1 11.4 0c.2.1.5.9.5 1-.6 1.2-.7 2-.9 7v16.2c0 .2.2.2.3.1 3.8-3 7.4-4.4 10-4.4 5.8 0 9.1 4.6 9.1 11.8 0 4.1 0 10.5.1 13.7 0 .9.3 1.4 1 1.8 1 .6 2.1.6 3.6.9.2.2.1 2-.3 2.1-1.3 0-4.2-.2-7.4-.2-2.9 0-6 .2-7 .2-.3-.3-.3-1.8-.1-2.1 1.2-.2 2.2-.3 3-.5 1.1-.3 1.4-.9 1.4-3.8.1-3.6.2-11-.3-14.4-.3-2-2-5.4-6.9-5.4-1.8 0-4.1.7-5.8 2-.6.4-.9 1.4-.9 1.8 0 5 0 14.2.2 16.3.2 2.4.3 3 1.9 3.4.9.2 1.4.3 2.8.4.3.3.2 1.8-.1 2.1-1 0-3.4-.2-7.7-.2-3.7 0-5.8.2-7 .2-.3-.3-.3-1.8 0-2.1 1.3-.2 2-.3 2.6-.5 1.4-.3 1.7-1 1.8-3 .2-1.8.2-10.5.2-12.2 0-17.8 0-22.6-.2-25.3C5.2 5.8 5 5.1 4 5c-1-.3-2.3-.4-3.5-.5-.4-.3-.4-1.9-.1-2zm52.9 22.6c3-4.2 6.5-6 10.7-6 3.8 0 7 1.4 8.6 4 1 1.6 1.4 3.6 1.4 8.6v8.2c-.2 7.9.1 8.4 4.4 8.5h.6V50H63.7v-1.7h.6c4.3-.1 4.5-.4 4.4-8.5V31c0-4.2-.3-5.8-1.1-7-1.1-1.6-3-2.6-5.4-2.6-3.6 0-6.9 2.4-9 6.5v11.9c-.2 7.9.1 8.4 4.4 8.5h.4V50H43v-1.7h.7c2.2.1 3.2-.3 3.9-1.4.3-.6.4-1 .4-2.5.1-.3.1-1.1.1-2.4V10.2c.2-5.6-.6-6.9-4.4-6.9h-.6V1.7c2.4.1 8.1-.8 9.4-1.5h.7c.1 0 .1 24.9.1 24.9zm192.8 22.4c1.3-.3 1.4-1.3 1.5-2.9.2-4.1.2-11.7.2-16.6 0-.4 0-1.4-.6-2-.9-.7-2-1.2-3.4-1.6-.2-.3 0-1.6.3-1.8 3.4-.3 7.2-1.6 9.2-2.7.1.1.2.2.2.3 0 .5-.1 3.1-.1 4.2 0 .2.3.3.4.2 4.2-3.3 7.8-4.7 10-4.7 3.4 0 6 2 7.5 4.8.2.2.3.2.5.1 3.8-3 7.6-4.9 10.4-4.9 5.7 0 9.1 4.2 9.1 11.8.1 4 .1 10.8.1 13.8 0 .5.2 1.3.7 1.5.9.5 2 .6 3.9 1 .2.3-.1 2-.3 2.1-1.4 0-3.7-.2-6.7-.2-3.7 0-5.6.1-7.4.2-.2-.2-.3-1.9 0-2.1 1.4-.2 2-.3 2.8-.6 1.1-.3 1.3-1.3 1.4-3.6.1-4 .2-11.6-.2-13.8-.3-2.5-2-5.7-6.5-5.7-1.9 0-4.2.9-6.5 2.6-.2.1-.2.3-.2.5.2 1.4.3 3.1.3 5.4 0 4-.1 9.8.1 12.9 0 1 .5 1.4 1.2 1.8 1 .3 1.7.4 3.1.6.3.3.1 1.9-.2 2.1-2-.1-4.2-.2-7.4-.2-2.2 0-5.5.2-6.9.2-.3-.2-.3-1.8 0-2.1 1.3-.2 2-.3 3-.6s1.3-.9 1.4-2.6c.2-3.4.3-13.2-.2-15.4-.4-2.3-1.8-5.4-6.2-5.4-1.6 0-4 .7-5.9 2.3-.5.4-1 1-1 1.8 0 4.8-.1 13.8.1 17.2 0 1 .3 1.8 1.5 2.1.6.2 1.6.3 2.8.5.3.3.2 1.8-.2 2.1-1.7 0-4.2-.2-7.2-.2-3.8 0-5.4.2-7.2.2-.3-.3-.3-1.9 0-2.1 1.1-.1 1.8-.3 2.6-.5zm65.1-28.3c.7 1.8 1.1 3.7 1.1 6.2 3.4-4.2 7-6.2 11.2-6.2 4.8 0 7.8 2.3 9.1 6.6 4.2-4.9 7.2-6.6 11.5-6.6 3.1 0 6.2 1.4 7.7 3.3 1.4 1.8 1.5 2.9 1.5 8.5v8.9c-.2 7.9.1 8.4 4.3 8.5h.5V50h-14.8v-1.7h.3c4.3-.2 4.5-.4 4.4-8.5V30c0-3.7-.2-5-1.2-6.2-1-1.4-2.6-2-4.7-2-3.2 0-6.1 2-9.4 6.4v11.7c-.2 7.8.1 8.3 4.1 8.5h.2v1.7h-14.4v-1.7h.4c4.3-.1 4.5-.4 4.4-8.5v-8.2c0-4.6-.2-5.6-.9-7-1-1.8-3-3-5.4-3-2 0-4.3 1-6.3 2.6-.3.3-1.3 1.4-3 3.1v12.4c-.2 7.8.1 8.3 4.2 8.5h.3V50h-14.5v-1.7h.3c4.3-.1 4.5-.4 4.4-8.5V31c.1-7.9-.1-8.3-4.4-8.5h-.3v-1.7c2.5-.2 6.9-1 8.5-1.6h.9z" class="st0"/></svg>