<svg xmlns="http://www.w3.org/2000/svg" id="a" width="464.3" height="119.33" viewBox="0 0 464.3 119.33"><defs><style>.b{fill:#b3b3b3}.c{fill:#2997ff}</style></defs><path d="M12.41 77.92c0 3.89-.17 24-.34 28.06-.17 4.73-.84 6.25-3.72 7.27-1.52.51-3.21.85-6.08 1.18-.68.68-.68 4.23 0 4.9 2.87 0 7.61-.51 16.23-.51 9.8 0 15.55.51 17.75.51.68-.68 1.01-4.23.17-4.9-3.04-.34-4.39-.68-6.42-1.01-3.55-1.18-4.06-2.54-4.39-7.94-.34-4.73-.34-25.86-.34-37.52 0-1.01.68-3.04 2.03-4.06 3.89-2.87 8.96-4.56 13.18-4.56 10.99 0 14.87 7.61 15.72 12.17 1.18 7.78.84 24.68.68 32.96-.17 6.76-.85 7.94-3.38 8.79-1.69.51-4.06.85-6.76 1.18-.51.68-.51 4.23.17 4.9 2.2-.17 9.47-.51 16.06-.51 7.44 0 14.03.51 16.9.51.85-.34 1.18-4.39.68-4.9-3.38-.51-5.92-.68-8.28-2.03-1.35-.85-2.2-2.2-2.2-4.23-.17-7.44-.17-22.14-.17-31.44 0-16.56-7.61-27.04-20.96-27.04-6.08 0-14.2 3.38-22.99 10.14-.34.17-.84.17-.84-.17 0-3.99 0-20.27.1-31.55H12.24c.16 8 .16 21.9.16 49.8z" class="b"/><path d="M27.11 6.59c0-.51-.68-2.2-1.18-2.37C20.69 6.59 10.71 8.96.57 9.8c-.68.34-.85 3.89 0 4.39 3.04.34 6.08.68 8.11 1.18 2.37.51 2.87 2.03 3.21 4.56.16 1.99.27 4.44.35 8.17h12.94c.02-2.09.04-4 .07-5.64.17-11.49.51-13.18 1.86-15.89zm95.15-2.19h-1.69c-3.04 1.69-16.06 3.72-21.63 3.55v3.89h1.18c8.62 0 10.48 2.87 10.14 15.72v.57h12V4.4z" class="c"/><path d="M169.75 95.5V76.74c0-11.32-.68-15.89-3.04-19.61-3.72-5.92-10.99-9.13-19.78-9.13-9.8 0-17.75 4.39-24.68 13.86V28.12h-12v72.62c0 2.87 0 4.56-.17 5.41 0 3.21-.17 4.23-1.01 5.58-1.52 2.37-3.89 3.38-8.96 3.21h-1.69v3.89h34.65v-3.89h-.68c-9.97-.17-10.48-1.18-10.14-19.44V68.12c4.9-9.63 12.34-15.04 20.62-15.04 5.41 0 9.8 2.03 12.34 5.75 1.86 2.87 2.54 6.76 2.54 16.23v20.45c.17 18.42-.17 19.27-10.14 19.44h-1.52v3.89h35.16v-3.89h-1.35c-9.97-.17-10.48-1.18-10.14-19.44z" class="b"/><path d="M356.67 29.98c-.4 0-.94 0-1.61.13l-9.1 1.74c-1.34.27-1.74.67-1.74 2.01v7.91h13.52V31.72c0-1.47-.4-1.74-1.07-1.74zm20.87 84.98c1.07-.54 1.47-.8 1.47-1.47 0-.27-.13-.8-.27-1.34l-1.87-6.83c-.27-.94-.4-1.61-1.21-1.61-.27 0-.67 0-1.2.27-2.83 1.19-5.22 2.2-8.09 2.54v11.57c3.82-.5 7.72-1.55 11.17-3.14zm-4.15-53.13c1.34 0 1.74-.4 2.01-1.74l1.47-6.29c.13-.54.27-.94.27-1.34 0-.67-.4-1.07-1.74-1.07h-9.03v10.44h7.02z" class="c"/><path d="M344.22 51.39h-9.23c-1.74 0-2.14.4-2.14 2.01v6.42c0 1.61.4 2.01 2.14 2.01h9.23v36.4c0 12.04 3.21 20.21 17.26 20.21 1.58 0 3.23-.12 4.89-.34v-11.57c-.67.08-1.35.13-2.08.13-5.35 0-6.56-1.87-6.56-9.77V61.83h8.64V51.39h-8.64v-9.62h-13.52v9.62z" class="b"/><path d="M458.28 102.38c-2.67 1.51-5.04 2.31-7.38 2.5v13.53c4.81-.63 9.5-2.29 13.4-5.06l-6.02-10.97zm-15.93-74.14l-17.13 2.01v11.52h17.13V28.24z" class="c"/><path d="M449.85 104.92c-5.22 0-7.49-2.81-7.49-9.77V58.22h8.55V45.91h-8.55v-4.14h-17.13v4.14h-11.11v12.31h11.11v37.34c0 15.12 7.36 23.02 21.28 23.15 1.47 0 2.94-.1 4.4-.29v-13.53c-.35.03-.7.04-1.05.04z" class="b"/><path d="M457.07 58.22l1.74-12.32h-7.91v12.32h6.17zM224.41 1.97c0-.83 0-1.34-.17-1.5-.5-.5-1.67-.67-2.5-.17-4.17 2.5-13.19 7.68-15.02 9.35-.67.67-.83 1.34-.17 1.84 5.84 5.17 6.18 5.34 6.18 15.86v.77h11.38c.08-7.95.3-16.6.3-26.15z" class="c"/><path d="M277.33 113.82c-6.68-2-7.35-2.5-7.35-8.18.17-12.02.5-22.03.5-26.88 0-12.85-2.5-26.71-18.03-26.71-3 0-6.01.67-9.35 1.67-4.67 1.5-14.36 6.18-18.03 7.68-.33.17-1-.67-1-1V33.36c0-1.71.01-3.46.03-5.24h-11.38v66.33c0 15.86-.67 16.36-9.35 20.37-.67.33-.83.67-.33 1.67l1 2.34c.17.5.5.5 1.5.33 6.68-1 15.19-1.17 28.38-1.17.67 0 .83 0 .83-.67-.33-4.34-.5-4.84-1.17-4.67-7.85-.67-8.51-1.67-9.01-5.84-.5-4.84-1-9.01-1-17.69v-18.2c0-3.51.67-4.34 2-5.01 5.01-2.84 11.85-5.34 16.86-5.34 3.5 0 6.68.33 10.68 3.51 3.67 2.84 6.68 7.01 6.68 23.37 0 6.18.17 11.35-.67 18.36-.5 4.34-1.17 5.34-4.17 6.84-1.67.83-4.51 1.67-5.01 2-.5.33-.67.5-.33 2.67.17 1.84.33 2 1 2 .83 0 7.85-1 16.03-1h11.02c1.17 0 1.33-.17 1.33-1.17v-2.5c0-.5-.33-.5-1.67-.83z" class="b"/></svg>