<?xml version="1.0" encoding="utf-8"?>
<!-- Generator: Adobe Illustrator 26.2.1, SVG Export Plug-In . SVG Version: 6.00 Build 0)  -->
<svg version="1.1" id="a" xmlns="http://www.w3.org/2000/svg" xmlns:xlink="http://www.w3.org/1999/xlink" x="0px" y="0px"
	 viewBox="0 0 150.8 115.1" style="enable-background:new 0 0 150.8 115.1;" xml:space="preserve">
<style type="text/css">
	.st0{fill:#B3B3B3;}
	.st1{fill:#2997FF;}
</style>
<g>
	<path class="st0" d="M12.4,73.7c0,3.9-0.2,24-0.3,28.1c-0.2,4.7-0.8,6.2-3.7,7.3c-1.5,0.5-3.2,0.8-6.1,1.2c-0.7,0.7-0.7,4.2,0,4.9
		c2.9,0,7.6-0.5,16.2-0.5c9.8,0,15.5,0.5,17.7,0.5c0.7-0.7,1-4.2,0.2-4.9c-3-0.3-4.4-0.7-6.4-1c-3.5-1.2-4.1-2.5-4.4-7.9
		c-0.3-4.7-0.3-25.9-0.3-37.5c0-1,0.7-3,2-4.1c3.9-2.9,9-4.6,13.2-4.6c11,0,14.9,7.6,15.7,12.2c1.2,7.8,0.8,24.7,0.7,33
		c-0.2,6.8-0.8,7.9-3.4,8.8c-1.7,0.5-4.1,0.8-6.8,1.2c-0.5,0.7-0.5,4.2,0.2,4.9c2.2-0.2,9.5-0.5,16.1-0.5c7.4,0,14,0.5,16.9,0.5
		c0.8-0.3,1.2-4.4,0.7-4.9c-3.4-0.5-5.9-0.7-8.3-2c-1.3-0.8-2.2-2.2-2.2-4.2c-0.2-7.4-0.2-22.1-0.2-31.4c0-16.6-7.6-27-21-27
		c-6.1,0-14.2,3.4-23,10.1c-0.3,0.2-0.8,0.2-0.8-0.2c0-4,0-20.3,0.1-31.5h-13C12.4,31.9,12.4,45.8,12.4,73.7L12.4,73.7z"/>
	<path class="st1" d="M27.1,2.4c0-0.5-0.7-2.2-1.2-2.4C20.7,2.4,10.7,4.7,0.6,5.6c-0.7,0.3-0.9,3.9,0,4.4c3,0.3,6.1,0.7,8.1,1.2
		c2.4,0.5,2.9,2,3.2,4.6c0.2,2,0.3,4.4,0.4,8.2h12.9c0-2.1,0-4,0.1-5.6C25.4,6.8,25.8,5.1,27.1,2.4L27.1,2.4z"/>
	<path class="st1" d="M128.5,25.8c-0.4,0-0.9,0-1.6,0.1l-9.1,1.7c-1.3,0.3-1.7,0.7-1.7,2v7.9h13.5v-10
		C129.5,26,129.1,25.8,128.5,25.8z M149.3,110.7c1.1-0.5,1.5-0.8,1.5-1.5c0-0.3-0.1-0.8-0.3-1.3l-1.9-6.8c-0.3-0.9-0.4-1.6-1.2-1.6
		c-0.3,0-0.7,0-1.2,0.3c-2.8,1.2-5.2,2.2-8.1,2.5v11.6C142,113.4,145.9,112.3,149.3,110.7L149.3,110.7z M145.2,57.6
		c1.3,0,1.7-0.4,2-1.7l1.5-6.3c0.1-0.5,0.3-0.9,0.3-1.3c0-0.7-0.4-1.1-1.7-1.1h-9v10.4C138.2,57.6,145.2,57.6,145.2,57.6z"/>
	<path class="st0" d="M116,47.2h-9.2c-1.7,0-2.1,0.4-2.1,2v6.4c0,1.6,0.4,2,2.1,2h9.2V94c0,12,3.2,20.2,17.3,20.2
		c1.6,0,3.2-0.1,4.9-0.3v-11.6c-0.7,0.1-1.4,0.1-2.1,0.1c-5.4,0-6.6-1.9-6.6-9.8V57.6h8.6V47.2h-8.6v-9.6H116L116,47.2L116,47.2z"/>
</g>
</svg>
