<svg xmlns="http://www.w3.org/2000/svg" id="Layer_1" viewBox="0 0 326 339.1" width="326" height="339.1"><style>.st0{fill:#b3b3b3}</style><path d="M8.7 26.4v4.2h-.6c0-.3-.1-1.6 0-2.6-.4 1.8-1.2 2.9-3.1 2.9-1.7 0-3.1-.6-3.1-4.2V12.6h.6v14c0 2.5.6 3.9 2.5 3.9 2 0 3.1-1.4 3.1-6.5V12.6h.6v13.8zm32-.2v4.4h-1.3c0-.3-.1-1.3-.1-2-.5 1.7-1.5 2.3-3.1 2.3-1.3 0-3.4-.3-3.4-4.5V12.6h1.4V26c0 2.6.7 3.6 2.3 3.6 1.4 0 2.8-.8 2.8-5.4V12.6h1.4v13.6zm31.4-.2v4.6h-1.7c0-.3-.1-1.3-.1-2-.5 1.7-1.6 2.3-3.2 2.3-1.3 0-3.5-.4-3.5-4.6V12.5h1.8v13.4c0 2.5.7 3.4 2.2 3.4 1.3 0 2.7-.8 2.7-5V12.5h1.8V26zm31.6-.2v4.8h-2.2c-.1-.3-.1-1.3-.1-1.9-.5 1.7-1.7 2.2-3.2 2.2-1.4 0-3.5-.5-3.5-4.6V12.4H97v13.3c0 2.3.6 3.1 2 3.1 1.3 0 2.4-.8 2.4-4.5V12.4h2.3v13.4zm31.3-.1v5h-2.4c-.1-.3-.1-1.3-.1-1.9-.6 1.7-1.7 2.2-3.3 2.2s-3.6-.6-3.6-4.7v-14h2.6v13.3c0 2.2.6 3 1.9 3 1.3 0 2.3-.8 2.3-4.3v-12h2.6v13.4zm31.8-.3v5.2h-3.1c-.1-.4-.1-1.3-.1-1.8-.6 1.6-1.9 2.1-3.4 2.1-1.6 0-3.6-.7-3.6-4.8v-14h3.2v13.2c0 1.9.5 2.7 1.8 2.7s2-.8 2-3.6V12.1h3.2v13.3zm31 0v5.2h-3.1c-.1-.4-.1-1.3-.1-1.8-.6 1.6-1.9 2.1-3.4 2.1-1.6 0-3.6-.7-3.6-4.8v-14h3.2v13.2c0 1.9.5 2.7 1.8 2.7s2-.8 2-3.6V12.1h3.2v13.3zm31.6-.2v5.4h-3.5c-.1-.4-.1-1.3-.1-1.8-.7 1.6-1.9 2-3.5 2-1.7 0-3.7-.8-3.7-4.9V12h3.7v13.1c0 1.7.5 2.5 1.6 2.5 1.2 0 1.8-.8 1.8-3.2V12h3.7v13.2zm31.8-.6v6h-4.5c-.1-.4-.1-1.2-.2-1.6-.8 1.5-2.1 2-3.6 2-1.9 0-3.8-.9-3.8-4.9V11.7h4.6V25c0 1.3.4 2 1.3 2 1 0 1.4-.7 1.4-2.5V11.7h4.6v12.9h.2zm32-.8c0 3.7 0 5.6.1 6.8h-5.5c-.1-.5-.1-1.1-.2-1.5-1 1.4-2.2 1.8-3.7 1.8-2 0-3.8-.9-3.8-4.9V11.2h5.7v13.6c0 .8.2 1.3.8 1.3.7 0 .9-.5.9-1.7V11.2h5.7v12.6zm31 0c0 3.7 0 5.6.1 6.8h-5.5c-.1-.5-.1-1.1-.2-1.5-1 1.4-2.2 1.8-3.7 1.8-2 0-3.8-.9-3.8-4.9V11.2h5.7v13.6c0 .8.2 1.3.8 1.3.7 0 .9-.5.9-1.7V11.2h5.7v12.6zM11.3 92.7v4.4h-.6c0-.7-.1-3.1-.1-3.7-.5 2.2-1.7 4-4.3 4-2.1 0-4-1-4-5.3v-13H3v13c0 2.5.6 4.6 3.4 4.6 2.4 0 4.3-1.7 4.3-7.1V79.1h.6v13.6zm32.6-.3v4.7h-1.5c-.1-.5-.1-1.2-.1-2.7-.5 1.9-2.2 3-4.5 3-1.8 0-4.5-.6-4.5-5.4V79h1.6v12.6c0 2.7.8 4.3 3.2 4.3 2.2 0 4.1-1.5 4.1-6V79.1h1.6l.1 13.3zm31.3-.1v4.8h-1.9c-.1-.5-.1-1.2-.1-2.6-.6 1.8-2.2 2.9-4.4 2.9-1.9 0-4.5-.7-4.5-5.4V79h2.1v12.5c0 2.5.8 4.1 3 4.1s3.8-1.4 3.8-5.7V79h2.1l-.1 13.3zm31.4-.2v5h-2.5c-.1-.5-.1-1.2-.1-2.4-.7 1.8-2.2 2.8-4.3 2.8s-4.6-.9-4.6-5.4V78.8h2.7v12.5c0 2.3.7 3.8 2.7 3.8s3.4-1.2 3.4-5.2V78.8h2.7v13.3zm31.3-.1v5.1h-2.8c-.1-.5-.1-1.3-.1-2.4-.7 1.8-2.2 2.7-4.3 2.7s-4.6-.9-4.6-5.5V78.8h3v12.5c0 2.2.6 3.6 2.6 3.6s3.3-1.2 3.3-4.9V78.8h3l-.1 13.2zm31.6-.2v5.3h-3.6c-.1-.6-.1-1.3-.2-2.2-.8 1.8-2.2 2.5-4.2 2.5-2.5 0-4.6-1.2-4.6-5.5V78.6h3.7V91c0 2 .5 3.2 2.2 3.2s2.8-1 2.8-4.3V78.6h3.7v13.2h.2zm31.4-.2v5.5h-4.1c-.1-.6-.1-1.4-.2-2-.8 1.7-2.2 2.4-4.1 2.4-2.6 0-4.7-1.3-4.7-5.6V78.5h4.3v12.4c0 1.8.4 2.9 1.9 2.9s2.5-.9 2.5-3.8V78.5h4.3l.1 13.1zm31.9-.4v5.9h-5.2c-.1-.6-.2-1.4-.2-1.9-.9 1.7-2.3 2.2-4.2 2.2-2.8 0-4.6-1.4-4.6-5.6V78.1h5.5v12.6c0 1.5.3 2.2 1.5 2.2s1.8-.7 1.8-2.9V78h5.5l-.1 13.2zm32.3-.7v6.6h-6.6c-.1-.6-.2-1.4-.3-1.9-1.1 1.6-2.4 2.2-4.4 2.2-2.8 0-4.6-1.4-4.6-5.6v-14h7v13c0 1 .2 1.5.9 1.5s.9-.6.9-1.6V77.8h7l.1 12.7zm31 0v6.6h-6.6c-.1-.6-.2-1.4-.3-1.9-1.1 1.6-2.5 2.2-4.4 2.2-2.8 0-4.6-1.4-4.6-5.6v-14h7v13c0 1 .2 1.5.9 1.5s.9-.6.9-1.6V77.8h7v12.7h.1zM15.2 158.8c0 1.8 0 4 .1 4.8h-.6c-.1-.2-.2-2.3-.2-4.1-.7 2.7-2.3 4.4-5.9 4.4-3.2 0-5.7-1.7-5.7-7v-11.2h.7v11.4c0 2.8.8 6.1 5 6.1 3.8 0 5.9-2.1 5.9-7.5v-10h.7v13.1zm31.3-.2c0 2 0 4.1.1 4.9h-1.7c-.1-.5-.1-1.8-.1-3.3-.6 2-2.6 3.6-5.5 3.6-2.3 0-5.5-.8-5.5-6.1v-12.2h1.8v11.8c0 2.6.8 4.9 4 4.9 3 0 5.1-2.1 5.1-6.6v-10.1h1.8v13.1zm31.4-.1c0 2.1 0 4.2.1 5h-2.2c-.1-.5-.1-1.7-.2-3.1-.7 2-2.6 3.5-5.4 3.5-2.5 0-5.5-1-5.5-6.2v-12.2H67v11.7c0 2.5.8 4.6 3.8 4.6 2.8 0 4.8-1.9 4.8-6.2v-10.1h2.3v13zm31.6-.1c0 2.3 0 4.3.1 5.2h-2.9c-.1-.5-.1-1.6-.2-2.9-.8 2-2.7 3.2-5.3 3.2-2.8 0-5.6-1.4-5.6-6.3v-12.3h3V157c0 2.4.8 4.3 3.5 4.3 2.6 0 4.4-1.8 4.4-5.8v-10.2h3v13.1zm31.2-.1c0 2.4 0 4.3.1 5.2h-3.2c-.1-.5-.1-1.6-.2-2.8-.9 2-2.7 3.1-5.3 3.1-3 0-5.6-1.6-5.6-6.3v-12.3h3.3v11.7c0 2.3.7 4.1 3.4 4.1s4.2-1.7 4.2-5.5v-10.2h3.4l-.1 13zm31.7-.2c0 2.6 0 4.5.1 5.4h-4.1c-.1-.5-.1-1.4-.2-2.5-1 1.9-2.8 2.8-5.2 2.8-3.4 0-5.7-2-5.7-6.4V145h4.2v11.6c0 2.1.7 3.6 3 3.6s3.7-1.4 3.7-5V145h4.3l-.1 13.1zm31.5-.1c0 2.7 0 4.6.1 5.5h-4.8c-.1-.6-.1-1.4-.2-2.2-1.1 1.9-2.8 2.6-5.1 2.6-3.7 0-5.8-2.3-5.8-6.5V145h4.9v11.6c0 2 .7 3.3 2.7 3.3s3.3-1.3 3.3-4.5V145h4.9v13zm32.4-.3c0 3.1 0 4.8.1 5.8H230c-.1-.5-.2-1.4-.2-2-1.2 1.8-2.8 2.4-5.1 2.4-3.9 0-5.8-2.4-5.8-6.6v-12.7h6.6v11.7c0 1.6.5 2.6 1.9 2.6 1.5 0 2.3-1 2.3-3.4v-10.8h6.6v13zm32.9-.5v6.3h-8.7c-.1-.4-.2-1.6-.2-1.9-1.2 1.5-2.6 2.4-5.2 2.4-3.9 0-5.7-2.1-5.7-6.5v-13.1h9v11.8c0 1.1.2 1.7.9 1.7.8 0 .9-.6.9-1.9v-11.6h9v12.8zM16.4 225.1v4.9h-.7c0-.2-.1-2.7-.1-4.4-.8 2.7-2.8 4.8-6.4 4.8-2.5 0-6.2-1.1-6.2-6.7v-11.5h.7V224c0 2.9 1.5 5.8 5.5 5.8 3.7 0 6.4-2.5 6.4-7.7v-9.8h.8v12.8zm31.1-.4v5.3h-1.8c-.1-.5-.1-1.6-.1-3.1-.8 2.1-2.6 3.5-5.8 3.5-2.6 0-5.9-1-5.9-6.5V212h1.8v11.5c0 2.6.8 5.1 4.4 5.1 4 0 5.5-2.2 5.5-7.4v-9.3h1.9v12.8zm31.3 0v5.3h-2.3c-.1-.5-.1-1.6-.1-2.9-.8 2.1-2.6 3.4-5.7 3.4-2.8 0-6-1.2-6-6.6v-12h2.4v11.4c0 2.5.8 4.9 4.1 4.9 3.7 0 5.1-2.1 5.1-7v-9.4h2.4l.1 12.9zm31.5 0v5.3h-3.1c-.1-.5-.1-1.6-.1-2.7-.9 2-2.7 3.2-5.5 3.2-3.1 0-6-1.5-6-6.7v-12h3.1v11.3c0 2.4.8 4.6 3.8 4.6 3.4 0 4.7-1.9 4.7-6.4v-9.5h3.2l-.1 12.9zm31.3-.1v5.3h-3.4c-.1-.5-.1-1.6-.1-2.6-.9 2-2.7 3.1-5.4 3.1-3.2 0-6.1-1.7-6.1-6.7v-12h3.5V223c0 2.3.7 4.4 3.6 4.4 3.2 0 4.4-1.8 4.4-6.1v-9.6h3.5v12.9zm31.7 0v5.4h-4.4c-.1-.5-.1-1.5-.1-2.4-1 1.9-2.7 2.8-5.3 2.8-3.6 0-6.2-2-6.2-6.8v-12.1h4.5v11.2c0 2.2.7 4.1 3.2 4.1 2.7 0 3.8-1.5 3.8-5.4v-9.8h4.5v13zm31.4 0v5.4h-5.1c-.1-.5-.1-1.5-.1-2.1-1.1 1.9-2.8 2.6-5.1 2.6-3.8 0-6.2-2.3-6.2-6.9v-12.1h5.1v11.1c0 2.1.6 3.8 2.9 3.8 2.4 0 3.3-1.2 3.3-4.9v-9.9h5.2v13zm32.6-.7v6h-6.9c-.1-.4-.1-1.5-.1-2-1.2 1.8-2.8 2.5-5.2 2.5-4.1 0-6.2-2.5-6.2-6.9v-12.4h7v11.2c0 1.7.5 2.9 2.1 2.9s2.3-.9 2.3-3.7v-10.4h7v12.8zm33.4-1.1v7.1h-9.4c-.1-.4-.1-1.5-.1-1.9-1.3 1.7-3 2.5-5.5 2.5-4.2 0-6.1-2.4-6.1-6.8v-12.9h9.6v11.6c0 1.2.2 1.7 1 1.7s1-.6 1-2.1v-11.2h9.6l-.1 12zm31 0v7.1h-9.4c-.1-.4-.1-1.5-.1-1.9-1.3 1.7-3 2.5-5.5 2.5-4.2 0-6.1-2.4-6.1-6.8v-12.9h9.6v11.6c0 1.2.2 1.7 1 1.7s1-.6 1-2.1v-11.2h9.6l-.1 12zm-283 68v5.6H18c0-.6-.1-3.6 0-5.2-1.2 3.8-3.5 5.6-7.6 5.6-3.5 0-7.2-1.6-7.2-7.5v-11H4v11.1c0 3.6 1.8 6.7 6.4 6.7 5.4 0 7.5-4 7.5-9.2v-8.6h.8v12.5zm31 .3v5.3h-2c-.1-.5-.1-2-.1-3.6-.9 2.4-2.7 4.1-6.7 4.1s-6.8-2-6.8-7.2v-11.3h2.1v10.8c0 2.9 1.2 5.7 4.9 5.7 4.5 0 6.5-2.6 6.5-8.5v-8h2.1v12.7zm31.5 0v5.3h-2.6c-.1-.5-.1-1.9-.1-3.3-.9 2.2-2.6 3.8-6.6 3.8s-6.8-2.1-6.8-7.3v-11.3h2.7V289c0 2.8 1.1 5.4 4.6 5.4 4.2 0 6.1-2.5 6.1-8.1v-8.1h2.7v12.9zm31.5 0v5.3h-3.3c-.1-.5-.1-1.8-.1-3.1-.9 2.1-2.6 3.6-6.5 3.6s-6.8-2.1-6.8-7.4v-11.3h3.4v10.7c0 2.8 1.1 5.1 4.3 5.1 3.9 0 5.6-2.3 5.6-7.6v-8.2h3.4v12.9zm31.4 0v5.3h-3.9c-.1-.5-.1-1.7-.1-2.9-.9 1.9-2.5 3.4-6.5 3.4s-6.9-2.1-6.9-7.5v-11.3h4v10.6c0 2.7 1 4.9 4.1 4.9 3.7 0 5.2-2.1 5.2-7.2v-8.3h4l.1 13zm31.8-.1v5.4h-5c-.1-.5-.1-1.5-.1-2.5-.9 1.6-2.4 3-6.3 3s-6.9-2.2-6.9-7.6V278h5.1v10.5c0 2.6 1 4.5 3.7 4.5 3.2 0 4.5-1.9 4.5-6.5V278h5.1v13h-.1zm31.6 0v5.4h-5.7c-.1-.5-.1-1.4-.1-2.2-.9 1.5-2.4 2.7-6.2 2.7s-6.9-2.3-6.9-7.7v-11.4h5.9v10.4c0 2.5.9 4.1 3.4 4.1 2.9 0 3.9-1.7 3.9-5.9v-8.6h5.9l-.2 13.2zm33-.6v6h-7.8c-.1-.5-.1-1.3-.1-2-1.1 1.4-2.5 2.5-6.3 2.5-4.1 0-7.1-2.5-7.1-7.7v-11.7h8v10.6c0 2.1.7 3.4 2.5 3.4 2.1 0 2.9-1.3 2.9-4.6v-9.4h8l-.1 12.9zm34-1.1v7.2h-10.8c-.1-.5-.1-1.5-.2-2-1.3 1.4-2.8 2.5-6.5 2.5-4.5 0-7.3-2.8-7.3-7.5v-12.3h11v11.2c0 1.5.4 2.3 1.3 2.3 1.1 0 1.5-.9 1.5-2.8v-10.7h10.9l.1 12.1zM7.5 59.7c-.4 1.8-.7 3.5-.8 4.2h-.6c0-.3.2-1.5.5-2.5-.7 1.7-1.8 2.8-3.5 2.8-1.5 0-3.1-.7-2.3-4.2l3-14.1h.6l-2.9 14c-.5 2.5-.1 3.8 1.8 3.8 1.7 0 3.1-1.2 4.2-6.4l2.4-11.4h.6l-3 13.8zm32-.3c-.4 2-.8 3.9-.9 4.5h-1.3c0-.3.2-1.2.4-2-.8 1.7-1.9 2.3-3.4 2.3-1.2 0-3.3-.4-2.4-4.6l2.9-13.7h1.3l-2.8 13.3c-.6 2.6-.1 3.7 1.4 3.7 1.4 0 3-.9 4-5.5L41 45.9h1.3l-2.8 13.5zm31.4-.2c-.5 2.1-.8 4-.9 4.6h-1.7c0-.3.2-1.2.3-1.9-.9 1.7-2 2.2-3.4 2.2-1.3 0-3.4-.5-2.4-4.7l2.9-13.7h1.7L64.6 59c-.5 2.5-.1 3.5 1.3 3.5 1.3 0 2.8-.9 3.7-5.1l2.5-11.7h1.7l-2.9 13.5zm31.7-.2c-.5 2.3-.9 4.1-1 4.8h-2.2c0-.3.2-1.1.3-1.8-.9 1.7-2 2.1-3.5 2.1-1.3 0-3.4-.6-2.5-4.9l2.9-13.6h2.2L96 58.9c-.5 2.3-.1 3.2 1.2 3.2s2.6-.9 3.4-4.7l2.5-11.9h2.2L102.6 59zm31.3-.1c-.5 2.4-.9 4.2-1 5h-2.4c0-.3.2-1.1.3-1.8-1 1.7-2 2.1-3.5 2.1-1.3 0-3.4-.6-2.5-5l2.9-13.6h2.5l-2.8 13.3c-.5 2.2-.1 3.1 1.2 3.1s2.4-.9 3.2-4.4l2.5-12h2.5l-2.9 13.3zm31.8-.3c-.6 2.6-.9 4.4-1.1 5.2h-3.1c0-.4.1-1 .3-1.7-1.1 1.6-2 1.9-3.5 1.9-1.4 0-3.5-.7-2.5-5.3l2.9-13.5h3.1L159 58.5c-.4 1.9-.1 2.7 1.1 2.7 1.2 0 2.1-.9 2.7-3.8l2.6-12.2h3.2l-2.9 13.4zm31 0c-.6 2.6-.9 4.4-1.1 5.2h-3.1c0-.4.1-1 .3-1.7-1.1 1.6-2 1.9-3.5 1.9-1.4 0-3.5-.7-2.5-5.3l2.9-13.5h3.1L190 58.5c-.4 1.9-.1 2.7 1.1 2.7 1.2 0 2.1-.9 2.7-3.8l2.6-12.2h3.2l-2.9 13.4zm31.6-.2c-.6 2.7-.9 4.5-1.1 5.4h-3.6c0-.4.1-1 .2-1.6-1.1 1.6-2 1.9-3.5 1.9s-3.6-.8-2.6-5.5l2.9-13.5h3.6l-2.8 13.3c-.4 1.7-.1 2.4 1 2.4 1.2 0 1.9-.9 2.4-3.4l2.6-12.3h3.7c0 .1-2.8 13.3-2.8 13.3zm31.9-.6c-.7 3.2-1.1 5-1.2 6h-4.5c0-.4.1-1 .2-1.5-1.1 1.5-2.1 1.8-3.6 1.8-1.6 0-3.6-.9-2.7-5.4l2.9-13.9h4.5l-2.9 13.5c-.3 1.3-.1 1.9.8 1.9 1 0 1.5-.8 1.8-2.5l2.7-12.9h4.6c.2.1-2.6 13.1-2.6 13zm32.1-.8c-.8 3.7-1.3 5.7-1.4 6.8h-5.5c0-.4.1-1 .2-1.5-1 1.3-2.3 1.8-3.7 1.8-1.9 0-3.7-1.1-2.9-5.1l3.1-14.7h5.6l-2.9 13.8c-.2.8-.1 1.3.5 1.3.7 0 1-.7 1.2-1.5l2.9-13.6h5.6L292.3 57zm31 0c-.8 3.7-1.3 5.7-1.4 6.8h-5.5c0-.4.1-1 .2-1.5-1 1.3-2.3 1.8-3.7 1.8-1.9 0-3.7-1.1-2.9-5.1l3.1-14.7h5.6l-2.9 13.8c-.2.8-.1 1.3.5 1.3.7 0 1-.7 1.2-1.5l2.9-13.6h5.6L323.3 57zM10.2 125.9c-.4 1.8-.8 3.7-.9 4.4h-.6c.1-.7.5-2.7.6-3.3-1 2.3-2.6 3.6-4.8 3.6-1.7 0-4-.7-3-5l2.8-13.2h.6l-2.8 13.2c-.6 2.5-.1 4.4 2.4 4.4 2.2 0 4.5-1.7 5.6-6.8l2.3-10.9h.6c.1 0-2.8 13.6-2.8 13.6zm32.2-.3c-.4 2-.8 3.9-.9 4.7H40c0-.4.3-2 .4-2.7-.9 1.9-2.4 3-4.6 3-1.7 0-4.4-.6-3.3-5.4l2.7-13h1.5L34 124.8c-.6 2.7-.2 4.4 2.1 4.4 2.2 0 4.2-1.5 5.2-6.1l2.3-10.8h1.5l-2.7 13.3zm31.4-.1c-.5 2.1-.8 4-1 4.8h-1.9c0-.4.3-1.9.4-2.6-1 1.8-2.4 2.9-4.6 2.9-1.8 0-4.4-.8-3.4-5.4l2.8-13h2l-2.7 12.5c-.5 2.5-.2 4.2 2 4.2 2.1 0 4-1.4 4.9-5.8l2.3-10.9h2l-2.8 13.3zm31.5-.2c-.5 2.3-.9 4.1-1 5h-2.5c0-.4.2-1.8.4-2.4-1.1 1.8-2.4 2.7-4.5 2.7-2 0-4.4-1.1-3.4-5.5l2.8-13.1h2.6L97 124.4c-.5 2.3-.2 3.9 1.9 3.9 1.9 0 3.6-1.3 4.4-5.3l2.3-11h2.6c-.1.1-2.9 13.3-2.9 13.3zm31.3-.1c-.5 2.4-.9 4.2-1 5.1h-2.8c0-.5.2-1.7.3-2.3-1.1 1.8-2.4 2.6-4.5 2.6s-4.4-1.2-3.5-5.5l2.8-13.1h2.9l-2.6 12.4c-.5 2.2-.2 3.8 1.8 3.8 1.9 0 3.4-1.3 4.2-5.1l2.3-11.1h2.9l-2.8 13.2zm31.6-.2c-.5 2.6-.9 4.4-1 5.3h-3.5c0-.5.2-1.5.3-2-1.2 1.7-2.4 2.3-4.4 2.3-2.3 0-4.4-1.5-3.6-5.6l2.8-13.2h3.6l-2.6 12.3c-.4 2-.2 3.4 1.6 3.4 1.7 0 3-1.2 3.7-4.6l2.4-11.2h3.6l-2.9 13.3zm31.5-.2c-.6 2.7-.9 4.5-1.1 5.5h-4.1c0-.6.2-1.4.2-1.9-1.2 1.6-2.5 2.2-4.4 2.2-2.4 0-4.4-1.7-3.6-5.7l2.8-13.2h4.2l-2.6 12.2c-.4 1.8-.2 3.2 1.5 3.2 1.6 0 2.7-1.1 3.3-4.2l2.4-11.2h4.2l-2.8 13.1zm32.1-.4c-.6 3.1-1.1 5.1-1.2 5.9h-5.3c0-.6.1-1.3.2-1.8-1.3 1.6-2.5 2.1-4.4 2.1-2.7 0-4.4-1.9-3.6-5.8l2.9-13.4h5.4l-2.7 12.6c-.3 1.5-.2 2.5 1.1 2.5 1.2 0 1.9-.9 2.4-3.1l2.5-11.9h5.4l-2.7 12.9zm32.4-.7c-.8 3.7-1.2 6.1-1.3 6.6h-6.7c0-.6.1-1.3.2-1.8-1.3 1.6-2.6 2.1-4.4 2.1-2.9 0-4.4-1.8-3.5-6l2.9-13.6h6.9l-2.8 13.2c-.2 1-.1 1.5.6 1.5s1-.6 1.2-1.6L260 111h6.9l-2.7 12.7zm31 0c-.8 3.7-1.2 6.1-1.3 6.6h-6.7c0-.6.1-1.3.2-1.8-1.3 1.6-2.6 2.1-4.4 2.1-2.9 0-4.4-1.8-3.5-6l2.9-13.6h6.9l-2.8 13.2c-.2 1-.1 1.5.6 1.5s1-.6 1.2-1.6L291 111h6.9l-2.7 12.7zM14.1 192c-.4 1.8-.8 3.9-1 4.8h-.6c0-.4.4-2.4.9-4.2-1.3 2.5-3.2 4.5-6.8 4.5-2.4 0-5.3-1.1-4.2-6.5l2.5-11.7h.7l-2.5 11.9c-.6 2.8 0 5.6 3.7 5.6 3.3 0 6.3-2.1 7.5-7.5l2.1-10.1h.7l-3 13.2zm31.1-.2c-.4 2-.8 4.1-1 4.9h-1.7c.1-.5.3-2.1.6-3.2-1 1.8-2.8 3.6-5.8 3.6-2.4 0-5.3-1.2-4.2-6.5l2.5-11.9h1.7l-2.5 11.4c-.6 3-.3 5.3 2.8 5.3 2.9 0 5.3-1.9 6.4-7l2.1-9.7H48l-2.8 13.1zm31.4-.1c-.5 2.1-.8 4.1-1 5h-2.1c.1-.5.3-2 .5-3-1.1 1.8-2.9 3.4-5.7 3.4-2.6 0-5.3-1.5-4.2-6.6l2.5-11.9h2.2L66.4 190c-.6 2.8-.3 5 2.7 5 2.7 0 5-1.8 6.1-6.6l2.1-9.8h2.2l-2.9 13.1zm31.5-.1c-.5 2.3-.9 4.2-1 5.2h-2.8c.1-.5.3-1.9.5-2.8-1.2 1.8-2.9 3.1-5.6 3.1-2.9 0-5.3-1.8-4.2-6.7l2.5-11.9h2.9L97.9 190c-.5 2.6-.2 4.6 2.4 4.6 2.5 0 4.6-1.6 5.6-6.1l2.1-9.9h2.9l-2.8 13zm31.3-.1c-.5 2.4-.9 4.3-1 5.2h-3.1c.1-.5.3-1.8.4-2.6-1.2 1.8-2.9 2.9-5.6 2.9-3 0-5.2-2-4.2-6.7l2.5-11.9h3.2l-2.4 11.5c-.5 2.5-.2 4.4 2.3 4.4s4.4-1.6 5.3-5.9l2.1-10h3.3l-2.8 13.1zm31.7-.1c-.5 2.6-.9 4.4-1.1 5.4h-4c.1-.6.2-1.6.4-2.3-1.4 1.8-3 2.6-5.4 2.6-3.3 0-5.2-2.4-4.3-6.8l2.5-12h4.1l-2.4 11.5c-.5 2.2-.1 3.9 2.1 3.9s3.8-1.4 4.6-5.2l2.2-10.2h4.1l-2.8 13.1zm31.5-.2c-.6 2.7-.9 4.5-1.1 5.5h-4.6c.1-.6.2-1.5.3-2-1.4 1.8-3 2.3-5.3 2.3-3.5 0-5.2-2.7-4.3-6.9l2.6-12h4.7l-2.4 11.6c-.4 2-.1 3.5 1.9 3.5s3.4-1.2 4.2-4.7l2.2-10.4h4.8l-3 13.1zm32.4-.3c-.6 3.1-1 4.8-1.1 5.8h-6.3c0-.5.1-1.3.2-1.8-1.4 1.6-2.9 2.2-5.2 2.2-3.8 0-5.3-2.7-4.4-6.8l2.6-12.4h6.4l-2.5 11.7c-.4 1.6-.1 2.7 1.3 2.7s2.4-.9 2.9-3.5l2.3-10.9h6.4l-2.6 13zm33.1-.5c-.8 3.6-1 5.2-1.2 6.3h-8.6c0-.4.1-1.2.1-1.7-1.2 1.3-2.5 2.2-5.1 2.2-4 0-5.6-2.1-4.7-6.5l2.8-13.1h8.8l-2.6 12c-.2 1.1-.1 1.7.6 1.7.6 0 .9-.6 1.2-1.9l2.5-11.7h8.8l-2.6 12.7zM14.8 258.3c-.4 1.8-.9 4.1-.9 4.9h-.6c0-.2.4-2.6.8-4.4-1.4 2.7-3.4 4.8-7.3 4.8-2.5 0-5.7-1.3-4.5-6.5l2.5-11.8h.7l-2.6 12.1c-.6 2.8.1 5.6 4.1 5.6s6.8-2.6 8-8.1l2-9.5h.7l-2.9 12.9zm31.2.1c-.4 1.6-.7 3.4-.9 4.8h-1.7c0-.6.4-2.4.6-3.5-1.1 2.1-3.2 3.9-6.3 3.9-3.2 0-5.5-1.7-4.4-6.8l2.5-11.6h1.7L35 256.7c-.6 2.6-.6 5.2 2.9 5.2 3.2 0 6-2.4 7.2-8.2l1.8-8.6h1.8L46 258.4zm31.3-.1c-.4 1.6-.7 3.4-.9 4.9h-2.2c0-.6.3-2.3.6-3.4-1.2 2.1-3.3 3.7-6.2 3.7-3.3 0-5.5-1.8-4.4-6.8l2.5-11.7h2.2l-2.5 11.5c-.6 2.5-.5 4.9 2.8 4.9 3.1 0 5.7-2.3 6.8-7.8l1.9-8.7h2.3l-2.9 13.4zm31.6 0c-.4 1.6-.7 3.4-.9 4.9h-3c0-.6.3-2.2.5-3.1-1.2 2.1-3.3 3.5-6.1 3.5-3.3 0-5.5-1.9-4.5-6.7l2.6-11.9h2.9L98 256.5c-.5 2.4-.4 4.5 2.6 4.5s5.2-2.1 6.3-7.2l1.9-8.8h3l-2.9 13.3zm31.3 0c-.4 1.6-.7 3.4-.9 4.9H136c0-.6.3-2.1.5-3-1.3 2.1-3.3 3.4-6.1 3.4-3.3 0-5.5-2-4.5-6.7l2.6-12h3.3l-2.5 11.6c-.5 2.3-.4 4.2 2.4 4.2s5-2 6-7l1.9-8.9h3.3l-2.7 13.5zm31.7-.1c-.4 1.6-.7 3.5-1 5h-4.1c0-.5.3-2 .4-2.8-1.3 2-3.4 3.1-6 3.1-3.4 0-5.5-2.2-4.5-6.6l2.6-12.2h4.2l-2.5 11.7c-.4 2.1-.2 3.6 2.2 3.6s4.4-1.8 5.4-6.3l1.9-9h4.2l-2.8 13.5zm31.4 0c-.4 1.6-.7 3.5-1 5h-4.8c0-.5.2-1.9.4-2.6-1.4 2-3.4 2.9-5.9 2.9-3.5 0-5.4-2.3-4.6-6.6l2.6-12.4h4.9l-2.5 11.8c-.4 1.9-.1 3.2 2 3.2s4-1.7 4.9-5.8l2-9.1h4.9l-2.9 13.6zm32.6-.4c-.5 2.3-.8 4.1-1.1 5.4h-6.6c0-.5.1-1.6.3-2.2-1.4 1.8-3.2 2.6-5.7 2.6-3.8 0-5.5-2.6-4.6-6.9l2.6-12.4h6.6l-2.5 11.8c-.4 1.6-.1 2.5 1.4 2.5s2.8-1.2 3.4-4.3l2.1-10h6.7l-2.6 13.5zm33.2-.8c-.8 3.5-1 5.2-1.2 6.2h-9c0-.4 0-1.2.1-1.7-1.5 1.4-2.7 2.2-5.5 2.2-4.3 0-5.5-3-4.5-7.5l2.6-12.2h9.1l-2.5 11.8c-.2 1.2-.1 1.7.6 1.7.6 0 1.1-.6 1.4-2.1l2.4-11.4h9.2l-2.7 13zm31 0c-.8 3.5-1 5.2-1.2 6.2h-9c0-.4 0-1.2.1-1.7-1.5 1.4-2.7 2.2-5.5 2.2-4.3 0-5.5-3-4.5-7.5l2.6-12.2h9.1l-2.5 11.8c-.2 1.2-.1 1.7.6 1.7.6 0 1.1-.6 1.4-2.1l2.4-11.4h9.2l-2.7 13zM17.4 324.1c-.4 1.8-1 4.8-1.1 5.6h-.7c0-.6.6-3.5 1-5.1-1.9 3.7-4.8 5.5-8.7 5.5-3.4 0-6.5-1.5-5.3-7.2L5 311.6h.7L3.3 323c-.7 3.4 0 6.4 4.8 6.4s8.2-3.2 9.4-8.9l1.9-8.9h.6l-2.6 12.5zm30.8.7c-.3 1.6-.7 3.3-.9 4.8h-2c0-.6.3-2.4.6-3.7-1.4 2.3-3 4.2-7.3 4.2-4 0-6.4-2.4-5.3-7.6l2.3-10.9h2L35.4 322c-.6 2.9-.5 6.2 3.6 6.2 4.3 0 7-2.9 8.4-9.1l1.6-7.5h2l-2.8 13.2zm31.4 0c-.3 1.6-.7 3.3-.9 4.9h-2.6c0-.5.3-2.2.6-3.4-1.3 2.1-2.9 3.9-7.1 3.9-4 0-6.4-2.4-5.3-7.6l2.3-11h2.6L66.9 322c-.6 2.9-.4 5.9 3.3 5.9 4.1 0 6.6-2.8 7.9-8.7l1.6-7.6h2.6l-2.7 13.2zm31.4 0c-.3 1.6-.7 3.4-.9 4.9h-3.2c0-.5.3-2 .5-3.1-1.3 2-2.8 3.6-6.9 3.6s-6.4-2.4-5.3-7.6l2.4-11.1h3.3l-2.2 10.4c-.6 2.9-.4 5.6 3 5.6 3.9 0 6.2-2.8 7.4-8.2l1.7-7.8h3.2l-3 13.3zm31.4-.1c-.3 1.6-.7 3.4-.9 4.9h-3.8c0-.5.2-1.8.5-2.9-1.3 1.8-2.7 3.4-6.8 3.4s-6.5-2.4-5.4-7.6l2.4-11.2h3.8l-2.2 10.4c-.6 2.8-.4 5.3 2.8 5.3 3.8 0 5.9-2.8 6.9-7.8l1.7-7.9h3.8l-2.8 13.4zm31.7 0c-.4 1.6-.7 3.4-1 5h-4.8c0-.5.2-1.5.4-2.5-1.2 1.5-2.6 3-6.4 3s-6.5-2.3-5.4-7.6l2.4-11.4h4.9l-2.2 10.3c-.6 2.8-.3 4.7 2.3 4.7 3.5 0 5.2-2.7 6.1-7l1.7-8.1h4.8l-2.8 13.6zm31.5-.1c-.4 1.6-.7 3.5-1 5h-5.5c0-.5.2-1.3.3-2.1-1.2 1.4-2.5 2.7-6.2 2.7-3.9 0-6.5-2.3-5.4-7.6l2.5-11.5h5.6l-2.2 10.3c-.6 2.8-.3 4.3 2 4.3 3.2 0 4.7-2.7 5.5-6.4l1.8-8.2h5.6l-3 13.5zm36.1-1c-.8 3.5-1 5-1.1 6h-10.3c0-.4.1-1.3.2-1.8-1.2 1.1-3.1 2.3-6.4 2.3-5 0-6.9-2.6-5.8-7.8l2.5-11.9h10.5l-2.4 11.4c-.3 1.5-.1 2.3.8 2.3 1 0 1.6-.7 2.2-3.2l2.2-10.5h10.4l-2.8 13.2zm31 0c-.8 3.5-1 5-1.1 6h-10.3c0-.4.1-1.3.2-1.8-1.2 1.1-3.1 2.3-6.4 2.3-5 0-6.9-2.6-5.8-7.8l2.5-11.9h10.5l-2.4 11.4c-.3 1.5-.1 2.3.8 2.3 1 0 1.6-.7 2.2-3.2l2.2-10.5h10.4l-2.8 13.2z" class="st0"/></svg>