<svg xmlns="http://www.w3.org/2000/svg" id="Layer_1" viewBox="0 0 307 415.6" width="307" height="415.6"><defs><style>.cls-1{fill:#00aeef}.cls-2{fill:#e6e7e8}.cls-3{fill:#231f20}.cls-4{stroke:#231f20;stroke-miterlimit:10}.cls-4,.cls-5,.cls-6{fill:none}.cls-5{stroke:#00aeef}.cls-6{stroke:#000}</style></defs><path d="M45.5 55.1h216v324h-216z" class="cls-4"/><path d="M32.85 139.74h241.29v144H32.85z" class="cls-2" transform="rotate(90 153.5 211.74)"/><path d="M45.38 27.97v18m-27 9h18m-18 324.25h18m9 27v-18M261.62 27.97v18m27 9h-18m18 324.25h-18m-9 27v-18" class="cls-6"/><path d="M.5 19.1h306v396H.5z" class="cls-5"/><path d="M103.9 8.85h3.32l-.18 1.3h-4.73V1.86h1.58v6.99zm9.31-1.4h-3.98c.12 1.3.72 1.72 1.56 1.72.56 0 1.03-.18 1.58-.56l.64.88c-.62.5-1.39.85-2.35.85-1.97 0-3.02-1.31-3.02-3.31s1.02-3.39 2.82-3.39 2.79 1.2 2.79 3.2c0 .2-.02.46-.04.62zm-1.49-1.07c0-1.04-.37-1.67-1.24-1.67-.72 0-1.18.48-1.26 1.74h2.49v-.07zm6.54 3.47c-.46.32-1.03.48-1.6.48-1.25-.01-1.91-.72-1.91-2.07V4.91h-1v-1.1h1v-1.4l1.54-.18v1.58h1.48l-.16 1.1h-1.32v3.31c0 .62.2.88.67.88.24 0 .48-.07.76-.23l.54.98zm4.5 0c-.46.32-1.03.48-1.6.48-1.25-.01-1.91-.72-1.91-2.07V4.91h-1v-1.1h1v-1.4l1.54-.18v1.58h1.48l-.16 1.1h-1.32v3.31c0 .62.2.88.67.88.24 0 .48-.07.76-.23l.54.98zm5.83-2.4h-3.98c.12 1.3.72 1.72 1.56 1.72.56 0 1.03-.18 1.58-.56l.64.88c-.62.5-1.39.85-2.35.85-1.97 0-3.02-1.31-3.02-3.31s1.02-3.39 2.82-3.39 2.79 1.2 2.79 3.2c0 .2-.02.46-.04.62zm-1.49-1.07c0-1.04-.37-1.67-1.24-1.67-.72 0-1.18.48-1.26 1.74h2.49v-.07zm6.65-2.66l-.26 1.49c-.19-.05-.34-.07-.56-.07-.77 0-1.16.56-1.4 1.63v3.38h-1.54V3.8h1.33l.14 1.25c.3-.91.91-1.42 1.66-1.42.23 0 .43.02.64.08zm9.82.78c0 1.91-1.38 2.76-3.25 2.76h-.97v2.89h-1.58V1.86h2.45c2.09 0 3.36.85 3.36 2.64zm-1.66 0c0-1.04-.64-1.48-1.71-1.48h-.85v3.05h.85c1.06 0 1.71-.36 1.71-1.57zm6.4-.78l-.26 1.49c-.19-.05-.34-.07-.56-.07-.77 0-1.16.56-1.4 1.63v3.38h-1.54V3.8h1.33l.14 1.25c.3-.91.91-1.42 1.66-1.42.23 0 .43.02.64.08zm2.66-2.2c0 .52-.4.92-.97.92s-.96-.41-.96-.92.4-.94.96-.94.97.41.97.94zm-.19 8.62h-1.54V3.8h1.54v6.34zm6.98-4.59v4.59h-1.54V5.79c0-.79-.3-1.02-.78-1.02-.55 0-.96.37-1.33.96v4.41h-1.54V3.8h1.33l.12.83c.49-.64 1.13-1.01 1.93-1.01 1.14 0 1.8.72 1.8 1.93zm5.39 4.3c-.46.32-1.03.48-1.6.48-1.25-.01-1.91-.72-1.91-2.07V4.91h-1v-1.1h1v-1.4l1.54-.18v1.58h1.47l-.16 1.1h-1.32v3.31c0 .62.2.88.67.88.24 0 .48-.07.75-.23l.54.98zm5.83-2.4H165c.12 1.3.72 1.72 1.56 1.72.56 0 1.03-.18 1.58-.56l.64.88c-.62.5-1.39.85-2.35.85-1.97 0-3.02-1.31-3.02-3.31s1.02-3.39 2.82-3.39 2.79 1.2 2.79 3.2c0 .2-.02.46-.04.62zm-1.49-1.07c0-1.04-.37-1.67-1.24-1.67-.72 0-1.17.48-1.26 1.74h2.5v-.07zm8.19-5.12v8.89h-1.36l-.11-.8c-.38.58-.99.98-1.81.98-1.58 0-2.41-1.33-2.41-3.35s.98-3.36 2.55-3.36c.67 0 1.2.29 1.59.68V1.09l1.54.17zm-1.54 7.09v-2.9c-.34-.41-.7-.67-1.21-.67-.79 0-1.32.67-1.32 2.19 0 1.63.47 2.19 1.22 2.19.56 0 .95-.28 1.31-.82zm12.22-3.85c0 1.91-1.38 2.76-3.25 2.76h-.97v2.89h-1.58V1.86h2.45c2.09 0 3.36.85 3.36 2.64zm-1.66 0c0-1.04-.64-1.48-1.71-1.48h-.85v3.05h.85c1.05 0 1.71-.36 1.71-1.57zm7.55 4.78l-.32 1.02c-.71-.06-1.16-.3-1.4-.92-.46.67-1.14.95-1.91.95-1.26 0-2.04-.8-2.04-1.95 0-1.38 1.03-2.12 2.88-2.12h.8V5.9c0-.83-.37-1.1-1.19-1.1-.43 0-1.04.12-1.69.34l-.35-1.04c.78-.3 1.58-.46 2.29-.46 1.7 0 2.45.78 2.45 2.18v2.66c0 .52.17.7.48.82zm-1.99-.85V7.15h-.64c-1 0-1.49.36-1.49 1.1 0 .61.31.96.9.96.53 0 .94-.28 1.22-.78zm8.87-4.29c-.48.17-1.08.22-1.84.22.77.35 1.15.84 1.15 1.63 0 1.24-.96 2.13-2.55 2.13-.28 0-.52-.02-.76-.1-.16.11-.26.28-.26.47 0 .23.13.44.77.44h.97c1.4 0 2.31.76 2.31 1.8 0 1.27-1.09 2.03-3.17 2.03-2.25 0-2.89-.72-2.89-1.99h1.38c0 .64.28.91 1.54.91s1.59-.34 1.59-.84c0-.47-.37-.76-1.08-.76h-.96c-1.27 0-1.81-.56-1.81-1.22 0-.44.28-.89.74-1.18-.78-.41-1.12-.97-1.12-1.79 0-1.38 1.09-2.28 2.63-2.28 1.5.04 2.19-.3 2.96-.71l.38 1.22zm-4.43 1.74c0 .77.42 1.25 1.13 1.25s1.13-.46 1.13-1.26-.38-1.2-1.15-1.2c-.7 0-1.1.48-1.1 1.21zm10.46 1.57h-3.98c.12 1.3.72 1.72 1.56 1.72.56 0 1.03-.18 1.58-.56l.64.88c-.62.5-1.39.85-2.35.85-1.97 0-3.02-1.31-3.02-3.31s1.02-3.39 2.82-3.39 2.79 1.2 2.79 3.2c0 .2-.03.46-.04.62zm-1.49-1.07c0-1.04-.37-1.67-1.24-1.67-.72 0-1.18.48-1.26 1.74h2.49v-.07z" class="cls-1"/><path d="M144.2 50.11h-1.51v-6.52l-1.8 1.09-.67-1.03 2.63-1.61h1.36v8.07zm6.56-5.95c0 1.37-.78 2.36-3.27 4.74h3.45l-.17 1.21h-5.03v-1.13c2.76-2.81 3.43-3.56 3.43-4.7 0-.74-.47-1.18-1.16-1.18-.64 0-1.06.26-1.56.85l-.94-.74c.65-.84 1.5-1.32 2.61-1.32 1.67 0 2.63 1.01 2.63 2.27zm5.96.17l-.68.92c-.42-.31-.8-.46-1.28-.46-.89 0-1.43.65-1.43 2.17s.56 2.07 1.43 2.07c.48 0 .82-.16 1.28-.46l.68.97c-.58.47-1.23.73-2.05.73-1.83 0-2.97-1.27-2.97-3.3s1.14-3.41 2.96-3.41c.83 0 1.46.23 2.06.74zm9.51 1.19v4.59h-1.54v-4.35c0-.79-.31-1.02-.7-1.02-.53 0-.85.37-1.2.96v4.41h-1.54v-4.35c0-.79-.32-1.02-.7-1.02-.54 0-.86.37-1.21.96v4.41h-1.54v-6.34h1.33l.12.83c.46-.64 1.03-1.01 1.83-1.01.74 0 1.29.4 1.54 1.07.48-.66 1.07-1.07 1.91-1.07 1.01 0 1.68.73 1.68 1.93zm105.4 168.58c0 1.37-.78 2.36-3.27 4.74h3.46l-.17 1.21h-5.03v-1.13c2.76-2.81 3.43-3.56 3.43-4.7 0-.74-.47-1.18-1.16-1.18-.63 0-1.05.26-1.56.85l-.94-.74c.65-.84 1.5-1.32 2.62-1.32 1.67 0 2.63 1.01 2.63 2.27zm6.98 1.92c0 2.7-.98 4.21-2.89 4.21s-2.89-1.51-2.89-4.21 1-4.19 2.89-4.19 2.89 1.5 2.89 4.19zm-4.2 0c0 2.25.42 3.05 1.31 3.05s1.31-.77 1.31-3.05-.42-3.02-1.31-3.02-1.31.79-1.31 3.02zm10.3-1.76l-.68.92c-.42-.31-.8-.46-1.28-.46-.89 0-1.43.65-1.43 2.17s.56 2.08 1.43 2.08c.48 0 .82-.16 1.28-.46l.68.97c-.58.47-1.24.73-2.05.73-1.83 0-2.97-1.27-2.97-3.3s1.14-3.41 2.96-3.41c.83 0 1.46.23 2.06.74zm9.5 1.19v4.59h-1.54v-4.35c0-.79-.31-1.02-.7-1.02-.53 0-.85.37-1.2.96v4.41h-1.54v-4.35c0-.79-.32-1.02-.7-1.02-.54 0-.86.37-1.21.96v4.41h-1.54v-6.35h1.33l.12.83c.46-.64 1.03-1.01 1.83-1.01.74 0 1.3.4 1.54 1.07.48-.66 1.07-1.07 1.91-1.07 1.01 0 1.68.73 1.68 1.93z" class="cls-3"/></svg>