<svg xmlns="http://www.w3.org/2000/svg" id="Layer_1" viewBox="0 0 844.4 1299.1" width="844.4" height="1299.1"><style>.st0{fill:none;stroke:#231f20;stroke-width:2;stroke-miterlimit:10}.st1{fill:#00aeef}.st2{fill:#231f20}.st3{fill:#00a651}.st4,.st5,.st6{fill:none;stroke-miterlimit:10}.st4{stroke-width:2;stroke:#00aeef}.st5{stroke:#ed1c24}.st6{stroke:#00a651;stroke-width:2}.st7{fill:#fff}.st8{fill:#ed1c24}</style><path d="M33.4 16.2v24.9M1 48.6h25.2M1 1215h24.4M819.1 48.6h24.3M819.1 1215h24.3M811 16.2v24.3M33.4 1223v24.4m777.6-24.3v24.4" class="st0"/><path d="M198.8 1275.2c0 7.6-5.5 11-13 11h-3.9v11.6h-6.3v-33.2h9.8c8.3.1 13.4 3.5 13.4 10.6zm-6.6 0c0-4.2-2.5-5.9-6.9-5.9h-3.4v12.2h3.4c4.3 0 6.9-1.4 6.9-6.3zm25.6-3.1l-1.1 5.9c-.8-.2-1.3-.3-2.3-.3-3.1 0-4.7 2.3-5.6 6.5v13.5h-6.1v-25.4h5.3l.6 5c1.2-3.7 3.7-5.7 6.6-5.7 1 .2 1.8.3 2.6.5zm10.6-8.8c0 2.1-1.6 3.7-3.9 3.7s-3.8-1.6-3.8-3.7 1.6-3.8 3.8-3.8 3.9 1.7 3.9 3.8zm-.7 34.6h-6.1v-25.4h6.1v25.4zm27.9-18.4v18.4h-6.1v-17.4c0-3.2-1.2-4.1-3.1-4.1-2.2 0-3.8 1.5-5.3 3.8v17.7H235v-25.4h5.3l.5 3.3c2-2.5 4.5-4 7.7-4 4.5 0 7.1 2.8 7.1 7.7zm21.6 17.2c-1.8 1.3-4.1 1.9-6.4 1.9-5-.1-7.6-2.9-7.6-8.3v-13.4h-4v-4.4h4v-5.6l6.1-.7v6.3h5.9l-.6 4.4h-5.3v13.2c0 2.5.8 3.5 2.7 3.5 1 0 1.9-.3 3-.9l2.2 4zm37.7-11.6c0 8-4.5 13.4-12 13.4s-12-5.1-12-13.4 4.5-13.4 12-13.4 12 5.1 12 13.4zm-17.4 0c0 6.1 1.9 8.8 5.5 8.8s5.5-2.7 5.5-8.8-1.9-8.7-5.4-8.7-5.6 2.7-5.6 8.7zm43.8-5.6v18.4h-6.1v-17.4c0-3.2-1.2-4.1-3.1-4.1-2.2 0-3.8 1.5-5.3 3.8v17.7h-6.1v-25.4h5.3l.5 3.3c2-2.5 4.5-4 7.7-4 4.5 0 7.1 2.8 7.1 7.7zm32.4 18.4h-6v-26.1l-7.2 4.4-2.7-4.1 10.5-6.4h5.4v32.2zm25.9-24.7c0 4-2.5 6.6-6.3 7.6 4 .4 7.3 2.9 7.3 7.9 0 5.5-4.3 9.9-11.7 9.9-4.4 0-8-1.6-10.5-4.7l3.4-3.3c2.2 2.2 4.2 3.1 6.7 3.1 3.5 0 5.7-2.1 5.7-5.4 0-3.8-2.2-5.2-5.8-5.2h-2.5l.7-4.4h1.7c3 0 5.2-1.7 5.2-4.9 0-2.6-1.9-4.2-4.8-4.2-2.5 0-4.5.9-6.5 2.8l-3.1-3.4c2.9-2.7 6.2-4.1 10.1-4.1 6.8.1 10.4 3.8 10.4 8.3zm12.5-8.3c0 1-.3 2-1.1 3.7l-3.1 6.5h-3.5l2-7.3c-1-.7-1.5-1.7-1.5-2.9 0-1.9 1.6-3.5 3.6-3.5s3.6 1.5 3.6 3.5zm9.2 0c0 1-.3 2-1.1 3.7l-3.1 6.5h-3.5l2-7.3c-1-.7-1.5-1.7-1.5-2.9 0-1.9 1.6-3.5 3.6-3.5s3.6 1.5 3.6 3.5zm38.1 33h-7.1l-5.2-10.1-5.2 10.1h-6.8l8.5-13.4-7.6-12h7l4.3 8.6 4.3-8.6h6.7l-7.3 11.8 8.4 13.6zm28.9 0h-6v-26.1l-7.2 4.4-2.7-4.1 10.5-6.4h5.4v32.2zm28.8-20.4c0 13.3-5.9 18.5-18.8 21.6l-1.3-4.4c8.1-2.1 12.7-5.2 13.5-11.6-1.5 2-3.8 3.4-6.9 3.4-5 0-9.1-4-9.1-10.5s5-10.9 11.2-10.9c7.6-.1 11.4 5 11.4 12.4zm-6.3 1.2c.1-6.7-1.4-9.1-5-9.1-3.1 0-5.1 2.2-5.1 6.3 0 4.4 2 6.1 4.6 6.1 2.2 0 4.1-1.2 5.5-3.3zm17.6-13.8c0 1-.3 2-1.1 3.7l-3.1 6.5h-3.5l2-7.3c-1-.7-1.5-1.7-1.5-2.9 0-1.9 1.6-3.5 3.7-3.5s3.5 1.5 3.5 3.5zm9.2 0c0 1-.3 2-1.1 3.7l-3.1 6.5h-3.5l2-7.3c-1-.7-1.5-1.7-1.5-2.9 0-1.9 1.6-3.5 3.7-3.5s3.5 1.5 3.5 3.5zm34.7 9.9l-2.4 3.6c-2.1-1.3-4.1-2.1-6.4-2.1-2.5 0-3.8 1-3.8 2.5 0 1.7 1 2.4 5.3 3.7 5.2 1.4 8.1 3.5 8.1 8 0 5.3-4.9 8.1-10.7 8.1-4.4 0-7.8-1.5-10.1-3.6l3.1-3.5c2 1.5 4.3 2.5 6.9 2.5 2.7 0 4.5-1.2 4.5-3.1 0-2.1-1-2.8-5.8-4.1-5.2-1.4-7.5-3.9-7.5-7.7 0-4.2 3.9-7.4 9.8-7.4 3.6.1 6.6 1.2 9 3.1zm26.4 4.7v18.4h-6.1v-17.4c0-3.2-1.2-4.1-3.1-4.1-2.2 0-3.8 1.5-5.3 3.8v17.7h-6.1v-35.5l6.1-.6v13.8c2-2.4 4.3-3.7 7.4-3.7 4.4-.1 7.1 2.8 7.1 7.6zm27.7 7.6h-15.9c.5 5.2 2.9 6.9 6.2 6.9 2.3 0 4.1-.7 6.3-2.3l2.5 3.5c-2.5 2-5.6 3.4-9.4 3.4-7.9 0-12.1-5.2-12.1-13.2s4.1-13.6 11.3-13.6 11.2 4.8 11.2 12.8c0 .8-.1 1.8-.1 2.5zm-6-4.3c0-4.2-1.5-6.7-4.9-6.7-2.9 0-4.7 1.9-5 7h10l-.1-.3zm32.3 4.3h-15.9c.5 5.2 2.9 6.9 6.2 6.9 2.3 0 4.1-.7 6.3-2.3l2.5 3.5c-2.5 2-5.6 3.4-9.4 3.4-7.9 0-12.1-5.2-12.1-13.2s4.1-13.6 11.3-13.6 11.2 4.8 11.2 12.8c.1.8 0 1.8-.1 2.5zm-5.9-4.3c0-4.2-1.5-6.7-4.9-6.7-2.9 0-4.7 1.9-5 7h10l-.1-.3zm26.1 13.9c-1.8 1.3-4.1 1.9-6.4 1.9-5-.1-7.6-2.9-7.6-8.3v-13.4h-4v-4.4h4v-5.6l6.1-.7v6.3h5.9l-.6 4.4H665v13.2c0 2.5.8 3.5 2.7 3.5 1 0 1.9-.3 3-.9l2.2 4z" class="st1"/><path d="M45.2 29c0 2.3-1.1 3.9-2.9 3.9-.8 0-1.4-.3-1.9-.8v3.5l-1.8.2V25.3h1.6l.1.9c.6-.8 1.4-1.1 2.2-1.1 1.9 0 2.7 1.5 2.7 3.9zm-1.9 0c0-1.9-.5-2.6-1.4-2.6-.6 0-1.2.4-1.5 1v3.3c.3.5.8.8 1.4.8 1 0 1.5-.7 1.5-2.5zm9.2 2.7l-.4 1.2c-.8-.1-1.4-.3-1.6-1.1-.5.8-1.3 1.1-2.2 1.1-1.5 0-2.4-.9-2.4-2.3 0-1.6 1.2-2.5 3.4-2.5h.9v-.4c0-1-.4-1.3-1.4-1.3-.5 0-1.2.1-2 .4l-.4-1.2c.9-.3 1.8-.5 2.7-.5 2 0 2.9.9 2.9 2.6v3.1c-.1.5.1.7.5.9zm-2.3-1v-1.5h-.7c-1.2 0-1.7.4-1.7 1.3 0 .7.4 1.1 1.1 1.1.5 0 .9-.3 1.3-.9zm8-5.5l-.3 1.7c-.2-.1-.4-.1-.7-.1-.9 0-1.4.7-1.6 1.9v3.9h-1.8v-7.4h1.6l.2 1.5c.3-1.1 1.1-1.7 1.9-1.7.2.1.5.1.7.2zm6.5 6.5l-.4 1.2c-.8-.1-1.4-.3-1.6-1.1-.5.8-1.3 1.1-2.2 1.1-1.5 0-2.4-.9-2.4-2.3 0-1.6 1.2-2.5 3.4-2.5h.9v-.4c0-1-.4-1.3-1.4-1.3-.5 0-1.2.1-2 .4l-.4-1.2c.9-.3 1.8-.5 2.7-.5 2 0 2.9.9 2.9 2.6v3.1c-.1.5.1.7.5.9zm-2.3-1v-1.5h-.7c-1.2 0-1.7.4-1.7 1.3 0 .7.4 1.1 1.1 1.1.5 0 .9-.3 1.3-.9zm9.8-8.4v10.4h-1.6l-.1-.9c-.4.7-1.2 1.2-2.1 1.2-1.9 0-2.8-1.6-2.8-3.9s1.2-3.9 3-3.9c.8 0 1.4.3 1.9.8v-3.8l1.7.1zm-1.8 8.3v-3.4c-.4-.5-.8-.8-1.4-.8-.9 0-1.5.8-1.5 2.6 0 1.9.6 2.6 1.4 2.6.7-.1 1.1-.4 1.5-1zm5.7-8c0 .6-.5 1.1-1.1 1.1s-1.1-.5-1.1-1.1.5-1.1 1.1-1.1 1.1.5 1.1 1.1zm-.3 10.1H74v-7.4h1.8v7.4zm6.8-6.7l-.7 1.1c-.6-.4-1.2-.6-1.9-.6s-1.1.3-1.1.7c0 .5.3.7 1.6 1.1 1.5.4 2.4 1 2.4 2.3 0 1.5-1.4 2.3-3.1 2.3-1.3 0-2.3-.4-3-1.1l.9-1c.6.4 1.3.7 2 .7.8 0 1.3-.3 1.3-.9s-.3-.8-1.7-1.2c-1.5-.4-2.2-1.2-2.2-2.2 0-1.2 1.1-2.2 2.9-2.2 1.1.1 2 .4 2.6 1zm.9 1.6h4.2V29h-4.2v-1.4zm11.6 4.1l-.4 1.2c-.8-.1-1.4-.3-1.6-1.1-.5.8-1.3 1.1-2.2 1.1-1.5 0-2.4-.9-2.4-2.3 0-1.6 1.2-2.5 3.4-2.5h.9v-.4c0-1-.4-1.3-1.4-1.3-.5 0-1.2.1-2 .4l-.4-1.2c.9-.3 1.9-.5 2.7-.5 2 0 2.9.9 2.9 2.6v3.1c-.1.5.1.7.5.9zm-2.4-1v-1.5H92c-1.2 0-1.7.4-1.7 1.3 0 .7.4 1.1 1.1 1.1.5 0 1-.3 1.3-.9zm3.5.3v-8.7l1.8-.2v8.8c0 .3.1.5.4.5.1 0 .3 0 .4-.1l.4 1.3c-.3.1-.7.2-1.2.2-1.1.1-1.8-.6-1.8-1.8zm9.9.7l-.4 1.2c-.8-.1-1.4-.3-1.6-1.1-.5.8-1.3 1.1-2.2 1.1-1.5 0-2.4-.9-2.4-2.3 0-1.6 1.2-2.5 3.4-2.5h.9v-.4c0-1-.4-1.3-1.4-1.3-.5 0-1.2.1-2 .4l-.4-1.2c.9-.3 1.9-.5 2.7-.5 2 0 2.9.9 2.9 2.6v3.1c-.1.5.1.7.5.9zm-2.3-1v-1.5h-.8c-1.2 0-1.7.4-1.7 1.3 0 .7.4 1.1 1.1 1.1.5 0 1-.3 1.4-.9zm5.6-8.1c0 .6-.5 1.1-1.1 1.1s-1.1-.5-1.1-1.1.5-1.1 1.1-1.1 1.1.5 1.1 1.1zm-.2 10.1h-1.8v-7.4h1.8v7.4zm7.9-5.4v5.4h-1.8v-5.1c0-.9-.4-1.2-.9-1.2-.6 0-1.1.4-1.6 1.1v5.2H111v-7.4h1.6l.1 1c.6-.7 1.3-1.2 2.2-1.2 1.4 0 2.2.8 2.2 2.2zm1.4.3h4.2V29h-4.2v-1.4zm12 .4c0 3.2-1.1 4.9-3.4 4.9s-3.4-1.8-3.4-4.9 1.2-4.9 3.4-4.9 3.4 1.7 3.4 4.9zm-4.9 0c0 2.6.5 3.6 1.5 3.6s1.5-.9 1.5-3.6-.5-3.5-1.5-3.5-1.5.9-1.5 3.5zm9.9 4.7h-1.8v-7.6l-2.1 1.3-.8-1.2 3.1-1.9h1.6v9.4zm8.4-4.7c0 3.2-1.1 4.9-3.4 4.9s-3.4-1.8-3.4-4.9 1.2-4.9 3.4-4.9 3.4 1.7 3.4 4.9zm-4.8 0c0 2.6.5 3.6 1.5 3.6s1.5-.9 1.5-3.6-.5-3.5-1.5-3.5-1.5.9-1.5 3.5zm5.9-.4h4.2V29H145v-1.4zm12.3 1.4c0 2.3-1.1 3.9-2.9 3.9-.8 0-1.4-.3-1.9-.8v3.5l-1.8.2V25.3h1.6l.1.9c.6-.8 1.4-1.1 2.2-1.1 1.9 0 2.7 1.5 2.7 3.9zm-1.9 0c0-1.9-.5-2.6-1.4-2.6-.6 0-1.2.4-1.5 1v3.3c.4.5.8.8 1.4.8 1 0 1.6-.7 1.5-2.5zm9.8 0c0 2.3-1.3 3.9-3.5 3.9s-3.5-1.5-3.5-3.9 1.3-3.9 3.5-3.9 3.5 1.5 3.5 3.9zm-5 0c0 1.8.6 2.6 1.6 2.6s1.6-.8 1.6-2.6-.6-2.6-1.6-2.6-1.6.8-1.6 2.6zm11.4-3l-.7 1.1c-.6-.4-1.2-.6-1.9-.6s-1.1.3-1.1.7c0 .5.3.7 1.6 1.1 1.5.4 2.4 1 2.4 2.3 0 1.5-1.4 2.3-3.1 2.3-1.3 0-2.3-.4-3-1.1l.9-1c.6.4 1.3.7 2 .7.8 0 1.3-.3 1.3-.9s-.3-.8-1.7-1.2c-1.5-.4-2.2-1.2-2.2-2.2 0-1.2 1.1-2.2 2.9-2.2 1.1.1 1.9.4 2.6 1zm5.6 6.3c-.5.4-1.2.6-1.9.6-1.5 0-2.2-.8-2.2-2.4v-3.9H172v-1.3h1.2v-1.6l1.8-.2v1.8h1.7l-.2 1.3H175v3.9c0 .7.2 1 .8 1 .3 0 .6-.1.9-.3l.5 1.1zm6.6-2.8h-4.6c.1 1.5.8 2 1.8 2 .7 0 1.2-.2 1.9-.7l.7 1c-.7.6-1.6 1-2.8 1-2.3 0-3.5-1.5-3.5-3.9s1.2-4 3.3-4 3.3 1.4 3.3 3.7c-.1.4-.1.7-.1.9zm-1.8-1.2c0-1.2-.4-1.9-1.4-1.9-.8 0-1.4.6-1.5 2l2.9-.1zm7.5-3.1l-.3 1.7c-.2-.1-.4-.1-.7-.1-.9 0-1.4.7-1.6 1.9v3.9h-1.8v-7.4h1.6l.2 1.5c.4-1.1 1.1-1.7 1.9-1.7.2.1.4.1.7.2zm1.5 6.6c0 .6-.5 1.1-1.1 1.1s-1.1-.5-1.1-1.1c0-.6.5-1.1 1.1-1.1s1.1.4 1.1 1.1zm7.9-2.8c0 2.3-1.1 3.9-2.9 3.9-.8 0-1.4-.3-1.9-.8v3.5l-1.8.2V25.3h1.6l.1.9c.6-.8 1.4-1.1 2.2-1.1 1.9 0 2.7 1.5 2.7 3.9zm-1.9 0c0-1.9-.5-2.6-1.4-2.6-.6 0-1.2.4-1.5 1v3.3c.4.5.8.8 1.4.8.9 0 1.5-.7 1.5-2.5zm9.4-6.7v10.4h-1.6l-.1-.9c-.4.7-1.2 1.2-2.1 1.2-1.9 0-2.8-1.6-2.8-3.9s1.1-3.9 3-3.9c.8 0 1.4.3 1.9.8v-3.8l1.7.1zm-1.8 8.3v-3.4c-.4-.5-.8-.8-1.4-.8-.9 0-1.5.8-1.5 2.6 0 1.9.6 2.6 1.4 2.6.7-.1 1.1-.4 1.5-1zm5.7-6.1v.8h1.8l-.2 1.3h-1.6v6.1h-1.8v-6.1h-1.2v-1.3h1.2v-.8c0-1.3.9-2.3 2.6-2.3.7 0 1.3.2 1.9.4l-.5 1.2c-.5-.2-.9-.3-1.2-.3-.7 0-1 .3-1 1z" class="st2"/><path d="M347.6 97.6h-6V71.5l-7.2 4.4-2.7-4.1 10.5-6.4h5.4v32.2zm26.3-23.8c0 5.5-3.1 9.5-13.1 19h13.8l-.7 4.9h-20.1v-4.5c11-11.2 13.7-14.3 13.7-18.8 0-3-1.9-4.7-4.7-4.7-2.5 0-4.2 1.1-6.2 3.4l-3.7-3c2.6-3.4 6-5.3 10.5-5.3 6.7-.1 10.5 3.9 10.5 9zm12-9.2c0 1-.3 2-1.1 3.7l-3.1 6.5h-3.5l2-7.3c-1-.7-1.5-1.7-1.5-2.9 0-1.9 1.6-3.5 3.6-3.5s3.6 1.5 3.6 3.5zm9.3 0c0 1-.3 2-1.1 3.7l-3.1 6.5h-3.5l2-7.3c-1-.7-1.5-1.7-1.5-2.9 0-1.9 1.6-3.5 3.6-3.5s3.6 1.5 3.6 3.5zm38.1 33h-7.1L421 87.5l-5.2 10.1H409l8.5-13.4-7.6-12h7l4.3 8.6 4.3-8.6h6.7L424.8 84l8.5 13.6zm28.9 0h-6V71.5l-7.2 4.4-2.7-4.1 10.5-6.4h5.4v32.2zm30-8.7c0 5.3-4.7 9.4-12 9.4s-11.7-4.1-11.7-9.3c0-3.9 2.3-6.5 6.1-8.2-3.5-1.9-4.8-4.5-4.8-7.6 0-5.3 4.8-8.5 10.6-8.5S491 67.6 491 73c0 3-1.7 5.4-5.3 7.3 4.3 1.9 6.5 4.8 6.5 8.6zm-6.2 0c0-3-1.6-4.4-5.9-5.9l-1.5-.5c-2.6 1.4-3.9 3.5-3.9 6.4 0 3.1 2.2 4.9 5.7 4.9s5.6-2.1 5.6-4.9zm-10.3-15.6c0 2.7 1.7 3.9 4.8 5.1l.9.3c2.5-1.6 3.5-3.2 3.5-5.5 0-2.5-1.6-4.2-4.6-4.2-2.7 0-4.6 1.5-4.6 4.3zm26.9-8.7c0 1-.3 2-1.1 3.7l-3.1 6.5h-3.5l2-7.3c-1-.7-1.5-1.7-1.5-2.9 0-1.9 1.6-3.5 3.7-3.5s3.5 1.5 3.5 3.5zm9.3 0c0 1-.3 2-1.1 3.7l-3.1 6.5h-3.5l2-7.3c-1-.7-1.5-1.7-1.5-2.9 0-1.9 1.6-3.5 3.7-3.5s3.5 1.5 3.5 3.5z" class="st3"/><path d="M1 16.2h842.4v1231.2H1V16.2z" class="st4"/><path d="M25.3 40.5h793.8v1182.6H25.3V40.5z" class="st5"/><path d="M33.4 48.6H811V1215H33.4V48.6z" class="st6"/><path d="M620.9 0h180.6v38.4H620.9V0z" class="st7"/><path d="M641.4 24c0 7.2-2.6 11.2-7.7 11.2s-7.7-4-7.7-11.2 2.7-11.2 7.7-11.2 7.7 4 7.7 11.2zm-11.2 0c0 6 1.1 8.1 3.5 8.1s3.5-2.1 3.5-8.1-1.1-8.1-3.5-8.1-3.5 2.1-3.5 8.1zm18.6 8.6c0 1.4-1.2 2.6-2.6 2.6s-2.6-1.2-2.6-2.6 1.1-2.6 2.6-2.6 2.6 1.2 2.6 2.6zm9.4 2.1h-4V17.3l-4.8 2.9-1.8-2.8 7-4.3h3.6v21.6zm17.6-15.9c0 3.7-2.1 6.3-8.7 12.6h9.2l-.5 3.2h-13.4v-3c7.4-7.5 9.2-9.5 9.2-12.5 0-2-1.2-3.1-3.1-3.1-1.7 0-2.8.7-4.2 2.3l-2.5-2c1.7-2.2 4-3.5 7-3.5 4.4 0 6.9 2.7 7 6zm15.8-2.6h-8.1v5.3c1.1-.5 2.2-.8 3.3-.8 3.6 0 6.2 2.6 6.2 6.9s-3.2 7.5-8 7.5c-3 0-5.1-1.2-6.8-3l2.3-2.2c1.2 1.3 2.6 2.1 4.3 2.1 2.4 0 3.9-1.5 3.9-4.3 0-3-1.5-4-3.5-4-1 0-1.8.2-2.8.7h-2.9V13.2H692l-.4 3zm7.8-3.5c0 .7-.2 1.3-.7 2.5l-2.1 4.3h-2.3l1.3-4.9c-.6-.5-1-1.1-1-2 0-1.3 1.1-2.3 2.4-2.3s2.4 1.1 2.4 2.4zm6.2 0c0 .7-.2 1.3-.7 2.5l-2.1 4.3h-2.3l1.3-4.9c-.6-.5-1-1.1-1-2 0-1.3 1.1-2.3 2.4-2.3s2.4 1.1 2.4 2.4zm27.8 15.6c0 4.9-3.9 6.4-9.2 6.4h-6.7V12.6h5.8c5.7 0 9.2 1.6 9.2 5.6 0 2.8-2 4.3-4.1 4.8 2.5.5 5 1.7 5 5.3zm-11.7-12.6v6h2.6c2.3 0 3.8-1 3.8-3.1 0-2.2-1.5-2.9-4.4-2.9h-2zm7.3 12.5c0-2.7-1.9-3.6-4.3-3.6h-2.9v6.9h2.5c2.7 0 4.7-.5 4.7-3.3zm7.7 2.6V11l4.1-.5v20.2c0 .8.3 1.2 1 1.2.3 0 .7-.1.9-.2l.9 2.9c-.7.3-1.7.6-2.8.6-2.5 0-4-1.6-4.1-4.4zm23.4-3.3h-10.6c.3 3.5 1.9 4.6 4.2 4.6 1.5 0 2.8-.5 4.2-1.5l1.7 2.3c-1.7 1.3-3.7 2.3-6.3 2.3-5.2 0-8.1-3.5-8.1-8.8s2.7-9.1 7.5-9.1 7.5 3.2 7.5 8.5c0 .6 0 1.3-.1 1.7zm-3.9-2.8c0-2.8-1-4.5-3.3-4.5-1.9 0-3.1 1.3-3.4 4.6h6.7v-.1zm21.5 2.8h-10.6c.3 3.5 1.9 4.6 4.2 4.6 1.5 0 2.8-.5 4.2-1.5l1.7 2.3c-1.7 1.3-3.7 2.3-6.3 2.3-5.2 0-8.1-3.5-8.1-8.8s2.7-9.1 7.5-9.1 7.5 3.2 7.5 8.5c0 .6 0 1.3-.1 1.7zm-4-2.8c0-2.8-1-4.5-3.3-4.5-1.9 0-3.1 1.3-3.4 4.6h6.7v-.1zM795.6 11v23.7H792l-.3-2.1c-1 1.5-2.7 2.6-4.8 2.6-4.2 0-6.4-3.6-6.4-8.9s2.6-9 6.8-9c1.8 0 3.2.8 4.3 1.8v-8.6l4 .5zm-4.1 18.9v-7.7c-.9-1.1-1.9-1.8-3.2-1.8-2.1 0-3.5 1.8-3.5 5.9 0 4.3 1.2 5.9 3.3 5.9 1.4-.1 2.4-.8 3.4-2.3z" class="st8"/></svg>