<svg xmlns="http://www.w3.org/2000/svg" id="Layer_1" viewBox="0 0 307 416.08" width="307" height="416.08"><defs><style>.cls-1{fill:#00a651}.cls-2{fill:#b3b3b3}.cls-3{fill:#505050}.cls-4,.cls-5{stroke:#00aeef;fill:none;stroke-miterlimit:10}.cls-5{stroke:#b3b3b3;stroke-width:.5px}</style></defs><path d="M54.5 45.5h198v306h-198z" class="cls-4"/><path d="M67.25 406.18c0 1.91-1.38 2.76-3.25 2.76h-.97v2.89h-1.58v-8.29h2.45c2.09 0 3.36.85 3.36 2.64zm-1.66 0c0-1.04-.64-1.48-1.71-1.48h-.85v3.05h.85c1.06 0 1.71-.36 1.71-1.57zm6.4-.78l-.26 1.49c-.19-.05-.34-.07-.56-.07-.77 0-1.16.56-1.4 1.63v3.38h-1.54v-6.34h1.33l.14 1.25c.3-.91.91-1.42 1.66-1.42.23 0 .43.02.64.08zm2.67-2.19c0 .52-.4.92-.97.92s-.96-.41-.96-.92.4-.94.96-.94.97.41.97.94zm-.19 8.62h-1.54v-6.34h1.54v6.34zm6.98-4.59v4.59h-1.54v-4.35c0-.79-.3-1.02-.78-1.02-.55 0-.96.37-1.33.96v4.41h-1.54v-6.34h1.33l.12.83c.49-.64 1.13-1.01 1.93-1.01 1.14 0 1.8.72 1.8 1.93zm5.39 4.29c-.46.32-1.03.48-1.6.48-1.25-.01-1.91-.72-1.91-2.07v-3.35h-1v-1.1h1v-1.4l1.54-.18v1.58h1.48l-.16 1.1h-1.32v3.31c0 .62.2.88.67.88.24 0 .48-.07.76-.23l.54.98zm9.43-2.88c0 2-1.12 3.36-2.99 3.36s-2.99-1.27-2.99-3.36 1.12-3.35 3-3.35 2.97 1.27 2.97 3.35zm-4.35 0c0 1.52.47 2.2 1.37 2.2s1.37-.68 1.37-2.2-.47-2.18-1.35-2.18-1.38.68-1.38 2.18zm10.95-1.41v4.59h-1.54v-4.35c0-.79-.3-1.02-.78-1.02-.55 0-.96.37-1.33.96v4.41h-1.54v-6.34h1.33l.12.83c.49-.64 1.13-1.01 1.93-1.01 1.14 0 1.8.72 1.8 1.93zm4.66 3.14v-7.44l1.54-.17v7.56c0 .3.1.44.36.44.13 0 .25-.02.35-.06l.34 1.08c-.26.12-.64.22-1.03.22-.97 0-1.55-.59-1.55-1.63zm8.77-1.25h-3.98c.12 1.29.72 1.71 1.56 1.71.56 0 1.03-.18 1.58-.56l.64.88c-.62.5-1.39.85-2.35.85-1.97 0-3.02-1.31-3.02-3.31s1.02-3.39 2.82-3.39 2.79 1.2 2.79 3.2c0 .2-.02.46-.04.62zm-1.49-1.07c0-1.04-.37-1.67-1.24-1.67-.72 0-1.18.48-1.26 1.74h2.49v-.07zm6.54 3.47c-.46.32-1.03.48-1.6.48-1.25-.01-1.91-.72-1.91-2.07v-3.35h-1v-1.1h1v-1.4l1.54-.18v1.58h1.48l-.16 1.1h-1.32v3.31c0 .62.2.88.67.88.24 0 .48-.07.76-.23l.54.98zm4.5 0c-.46.32-1.03.48-1.6.48-1.25-.01-1.91-.72-1.91-2.07v-3.35h-1v-1.1h1v-1.4l1.54-.18v1.58h1.48l-.16 1.1h-1.32v3.31c0 .62.2.88.67.88.24 0 .48-.07.76-.23l.54.98zm5.83-2.4h-3.98c.12 1.29.72 1.71 1.56 1.71.56 0 1.03-.18 1.58-.56l.64.88c-.62.5-1.39.85-2.35.85-1.97 0-3.02-1.31-3.02-3.31s1.02-3.39 2.82-3.39 2.79 1.2 2.79 3.2c0 .2-.02.46-.04.62zm-1.49-1.07c0-1.04-.37-1.67-1.24-1.67-.72 0-1.18.48-1.26 1.74h2.49v-.07zm6.65-2.66l-.26 1.49c-.19-.05-.34-.07-.56-.07-.77 0-1.16.56-1.4 1.63v3.38h-1.54v-6.34h1.33l.14 1.25c.3-.91.91-1.42 1.66-1.42.23 0 .43.02.64.08zm1.49 5.64c0 .31-.1.6-.31 1.08l-.78 1.77h-.94l.49-2.06a.955.955 0 0 1-.41-.8c0-.54.42-.96.96-.96s.98.42.98.97zm9.84-1.38c0 1.32-1.16 2.35-3 2.35s-2.93-1.02-2.93-2.33c0-.98.58-1.63 1.54-2.04-.86-.47-1.21-1.12-1.21-1.91 0-1.32 1.2-2.12 2.64-2.12s2.64.72 2.64 2.06c0 .74-.42 1.36-1.33 1.82 1.1.49 1.66 1.2 1.66 2.16zm-1.56 0c0-.76-.4-1.09-1.48-1.49l-.37-.13c-.65.35-.97.86-.97 1.6s.55 1.24 1.42 1.24 1.4-.52 1.4-1.21zm-2.55-3.9c0 .68.43.98 1.21 1.27l.23.08c.64-.4.86-.79.86-1.37 0-.64-.4-1.05-1.15-1.05-.7 0-1.15.36-1.15 1.07zm6.95 5.28c0 .53-.43.97-.98.97s-.96-.44-.96-.97.42-.97.96-.97.98.43.98.97zm5.86-6.14h-3.02v2c.41-.2.83-.3 1.22-.3 1.34 0 2.31.96 2.31 2.6s-1.19 2.81-3.01 2.81c-1.13 0-1.92-.46-2.54-1.14l.88-.82c.44.49.96.77 1.63.77.9 0 1.46-.58 1.46-1.62 0-1.12-.55-1.5-1.29-1.5-.37 0-.67.08-1.04.28h-1.09v-4.22h4.68l-.18 1.14zm2.95-1.31c0 .25-.07.49-.28.92l-.78 1.63h-.86l.49-1.83c-.24-.18-.38-.42-.38-.73 0-.48.41-.86.91-.86s.9.38.9.88zm2.31 0c0 .25-.07.49-.28.92l-.78 1.63h-.86l.49-1.83c-.24-.18-.38-.42-.38-.73 0-.48.41-.86.91-.86s.9.38.9.88zm9.53 8.24h-1.77l-1.31-2.52-1.29 2.52h-1.69l2.11-3.35-1.9-3h1.75l1.08 2.16 1.07-2.16h1.67l-1.83 2.95 2.12 3.39zm7.23 0h-1.51v-6.52l-1.8 1.09-.67-1.03 2.63-1.61h1.36v8.07zm5.21 0h-1.51v-6.52l-1.8 1.09-.67-1.03 2.63-1.61h1.36v8.07zm3.48-8.24c0 .25-.07.49-.28.92l-.78 1.63h-.86l.49-1.83c-.24-.18-.38-.42-.38-.73 0-.48.41-.86.91-.86s.9.38.9.88zm2.31 0c0 .25-.07.49-.28.92l-.78 1.63h-.86l.49-1.83c-.24-.18-.38-.42-.38-.73 0-.48.41-.86.91-.86s.9.38.9.88zm8.06 7.94c-.46.32-1.03.48-1.6.48-1.25-.01-1.91-.72-1.91-2.07v-3.35h-1v-1.1h1v-1.4l1.54-.18v1.58h1.47l-.16 1.1h-1.32v3.31c0 .62.2.88.67.88.24 0 .48-.07.76-.23l.54.98zm7.23.3h-1.92l-.96-4.98-.98 4.98h-1.88l-1.4-6.34h1.54l.89 5.22 1.1-5.22h1.57l1.01 5.22.95-5.22h1.47l-1.38 6.34zm8-3.18c0 2-1.12 3.36-2.99 3.36s-2.99-1.27-2.99-3.36 1.12-3.35 3-3.35 2.97 1.27 2.97 3.35zm-4.35 0c0 1.52.47 2.2 1.37 2.2s1.37-.68 1.37-2.2-.47-2.18-1.36-2.18-1.38.68-1.38 2.18zm13.05-2.59l-.6.9c-.53-.34-1.03-.52-1.59-.52-.61 0-.96.25-.96.64 0 .42.25.61 1.33.91 1.29.35 2.03.88 2.03 2 0 1.32-1.22 2.01-2.67 2.01-1.09 0-1.94-.37-2.53-.9l.77-.86c.49.37 1.08.62 1.73.62.68 0 1.13-.29 1.13-.77 0-.53-.25-.7-1.44-1.03-1.31-.36-1.88-.98-1.88-1.92 0-1.05.97-1.85 2.45-1.85.91 0 1.65.29 2.25.76zm3.14-2.85c0 .52-.4.92-.97.92s-.96-.41-.96-.92.4-.94.96-.94.97.41.97.94zm-.19 8.62h-1.54v-6.34h1.54v6.34zm7.1-8.89v8.89h-1.35l-.11-.8c-.38.58-1 .98-1.81.98-1.58 0-2.41-1.33-2.41-3.35s.98-3.36 2.55-3.36c.67 0 1.2.29 1.59.68v-3.21l1.54.17zm-1.54 7.09v-2.9c-.33-.41-.7-.67-1.21-.67-.79 0-1.32.67-1.32 2.19 0 1.63.47 2.2 1.22 2.2.56 0 .95-.28 1.31-.82zm8.53-.9h-3.98c.12 1.29.72 1.71 1.56 1.71.56 0 1.03-.18 1.58-.56l.64.88c-.62.5-1.39.85-2.35.85-1.97 0-3.02-1.31-3.02-3.31s1.02-3.39 2.82-3.39 2.79 1.2 2.79 3.2c0 .2-.02.46-.04.62zm-1.49-1.07c0-1.04-.37-1.67-1.24-1.67-.72 0-1.18.48-1.26 1.74h2.49v-.07zm8.19-5.12v8.89h-1.35l-.11-.8c-.38.58-1 .98-1.81.98-1.58 0-2.41-1.33-2.41-3.35s.98-3.36 2.55-3.36c.67 0 1.2.29 1.59.68v-3.21l1.54.17zm-1.54 7.09v-2.9c-.33-.41-.7-.67-1.21-.67-.79 0-1.32.67-1.32 2.19 0 1.63.47 2.2 1.22 2.2.56 0 .95-.28 1.31-.82z" class="cls-1"/><path d="M103.57 131.31h-2.38v-12.44h2.38v12.44zm10.59-6.9v6.9h-2.3v-6.54c0-1.19-.45-1.53-1.17-1.53-.83 0-1.44.56-2 1.44v6.63h-2.3v-9.52h2l.18 1.24c.74-.95 1.69-1.51 2.9-1.51 1.71 0 2.7 1.08 2.7 2.9zm7.07 6.9h-2.75l-3.15-9.52h2.5l2.03 7.67 2.09-7.67h2.38l-3.1 9.52zm7.07-12.95c0 .77-.59 1.39-1.46 1.39s-1.44-.61-1.44-1.39.59-1.4 1.44-1.4 1.46.61 1.46 1.4zm-.29 12.95h-2.3v-9.52h2.3v9.52zm8.19-.45c-.68.49-1.55.72-2.4.72-1.87-.02-2.86-1.08-2.86-3.11v-5.02h-1.49v-1.66h1.49v-2.11l2.3-.27v2.38h2.21l-.23 1.66h-1.98v4.97c0 .94.31 1.31 1.01 1.31.36 0 .72-.11 1.13-.34l.81 1.48zm8.95-.85l-.49 1.53c-1.06-.09-1.75-.45-2.11-1.39-.68 1.01-1.71 1.42-2.86 1.42-1.89 0-3.06-1.21-3.06-2.94 0-2.07 1.55-3.19 4.32-3.19h1.21v-.54c0-1.24-.56-1.66-1.78-1.66-.65 0-1.57.18-2.54.5l-.52-1.57c1.17-.45 2.38-.68 3.44-.68 2.56 0 3.67 1.17 3.67 3.28v4c0 .77.25 1.04.72 1.22zm-2.99-1.28v-1.93h-.95c-1.49 0-2.23.54-2.23 1.66 0 .92.47 1.44 1.35 1.44.79 0 1.4-.41 1.84-1.17zm10.51 2.13c-.68.49-1.55.72-2.39.72-1.87-.02-2.86-1.08-2.86-3.11v-5.02h-1.49v-1.66h1.49v-2.11l2.3-.27v2.38h2.21l-.23 1.66h-1.98v4.97c0 .94.31 1.31 1.01 1.31.36 0 .72-.11 1.13-.34l.81 1.48zm3.86-12.5c0 .77-.59 1.39-1.46 1.39s-1.44-.61-1.44-1.39.59-1.4 1.44-1.4 1.46.61 1.46 1.4zm-.29 12.95h-2.3v-9.52h2.3v9.52zm11.09-4.77c0 3.01-1.67 5.04-4.48 5.04s-4.48-1.91-4.48-5.04 1.67-5.02 4.5-5.02 4.47 1.91 4.47 5.02zm-6.54 0c0 2.29.7 3.29 2.05 3.29s2.05-1.03 2.05-3.29-.7-3.28-2.04-3.28-2.07 1.03-2.07 3.28zm16.44-2.13v6.9h-2.3v-6.54c0-1.19-.45-1.53-1.17-1.53-.83 0-1.44.56-2 1.44v6.63h-2.3v-9.52h2l.18 1.24c.74-.95 1.69-1.51 2.9-1.51 1.71 0 2.7 1.08 2.7 2.9zm13.01 4.02h-4.12l-.77 2.88h-2.47l3.87-12.44h2.93l3.85 12.44h-2.52l-.77-2.88zm-.47-1.8l-1.6-5.94-1.58 5.94h3.19zm10.69-4.97l-.4 2.23c-.29-.07-.5-.11-.85-.11-1.15 0-1.75.85-2.11 2.45v5.08h-2.3v-9.52h2l.22 1.87c.45-1.37 1.37-2.12 2.48-2.12.34 0 .65.04.95.13zm6.9 9.2c-.68.49-1.55.72-2.39.72-1.87-.02-2.86-1.08-2.86-3.11v-5.02h-1.5v-1.66h1.5v-2.11l2.3-.27v2.38h2.21l-.23 1.66h-1.98v4.97c0 .94.31 1.31 1.01 1.31.36 0 .72-.11 1.13-.34l.81 1.48z" class="cls-2"/><path d="M59.94 357.29c0 .97-.45 1.68-1.25 1.68-.32 0-.6-.11-.8-.35v1.48l-.77.08v-4.48h.67l.04.39c.25-.33.59-.48.93-.48.83 0 1.18.65 1.18 1.67zm-.8 0c0-.8-.22-1.1-.6-1.1-.27 0-.5.19-.65.43v1.43c.15.22.34.33.58.33.42 0 .67-.32.67-1.09zm4.05 1.16l-.16.51c-.35-.03-.58-.15-.7-.46-.23.34-.57.47-.95.47-.63 0-1.02-.4-1.02-.98 0-.69.52-1.06 1.44-1.06h.4v-.18c0-.41-.19-.55-.59-.55-.22 0-.52.06-.85.17l-.17-.52c.39-.15.79-.23 1.15-.23.85 0 1.22.39 1.22 1.09v1.33c0 .26.08.35.24.41zm-1-.43v-.64h-.32c-.5 0-.74.18-.74.55 0 .31.16.48.45.48.26 0 .47-.14.61-.39zm3.56-2.35l-.13.74c-.1-.02-.17-.04-.28-.04-.38 0-.58.28-.7.82v1.69h-.77v-3.17h.67l.07.62c.15-.46.46-.71.83-.71.11 0 .22.01.32.04zm2.91 2.78l-.16.51c-.35-.03-.58-.15-.7-.46-.23.34-.57.47-.95.47-.63 0-1.02-.4-1.02-.98 0-.69.52-1.06 1.44-1.06h.4v-.18c0-.41-.19-.55-.59-.55-.22 0-.52.06-.85.17l-.17-.52c.39-.15.79-.23 1.15-.23.85 0 1.22.39 1.22 1.09v1.33c0 .26.08.35.24.41zm-1-.43v-.64h-.32c-.5 0-.74.18-.74.55 0 .31.16.48.45.48.26 0 .47-.14.61-.39zm4.33-3.58v4.44h-.68l-.05-.4c-.19.29-.5.49-.91.49-.79 0-1.21-.67-1.21-1.67s.49-1.68 1.28-1.68c.34 0 .6.14.8.34v-1.61l.77.08zm-.77 3.54v-1.45c-.17-.2-.35-.34-.61-.34-.4 0-.66.34-.66 1.1 0 .82.23 1.1.61 1.1.28 0 .47-.14.65-.41zm2.54-3.41c0 .26-.2.46-.49.46s-.48-.2-.48-.46.2-.47.48-.47.49.2.49.47zm-.1 4.31h-.77v-3.17h.77v3.17zM76.7 356l-.3.45c-.26-.17-.52-.26-.8-.26-.31 0-.48.13-.48.32 0 .21.13.31.67.46.65.17 1.01.44 1.01 1 0 .66-.61 1.01-1.34 1.01-.55 0-.97-.19-1.27-.45l.38-.43c.25.19.54.31.86.31.34 0 .56-.14.56-.38 0-.26-.13-.35-.72-.52-.65-.18-.94-.49-.94-.96 0-.53.49-.92 1.22-.92.46 0 .83.14 1.13.38zm.51.7h1.81v.61h-1.81v-.61zm5.06 1.75l-.16.51c-.35-.03-.58-.15-.7-.46-.23.34-.57.47-.95.47-.63 0-1.02-.4-1.02-.98 0-.69.52-1.06 1.44-1.06h.4v-.18c0-.41-.19-.55-.59-.55-.22 0-.52.06-.85.17l-.17-.52c.39-.15.79-.23 1.15-.23.85 0 1.22.39 1.22 1.09v1.33c0 .26.08.35.24.41zm-1-.43v-.64h-.32c-.5 0-.74.18-.74.55 0 .31.16.48.45.48.26 0 .47-.14.61-.39zm1.6.14v-3.72l.77-.08v3.78c0 .15.05.22.18.22.07 0 .13-.01.17-.03l.17.54c-.13.06-.32.11-.52.11-.49 0-.77-.29-.77-.82zm4.36.29l-.16.51c-.35-.03-.58-.15-.7-.46-.23.34-.57.47-.95.47-.63 0-1.02-.4-1.02-.98 0-.69.52-1.06 1.44-1.06h.4v-.18c0-.41-.19-.55-.59-.55-.22 0-.52.06-.85.17l-.17-.52c.39-.15.79-.23 1.15-.23.85 0 1.22.39 1.22 1.09v1.33c0 .26.08.35.24.41zm-1-.43v-.64h-.32c-.5 0-.74.18-.74.55 0 .31.16.48.45.48.26 0 .47-.14.61-.39zm2.55-3.45c0 .26-.2.46-.49.46s-.48-.2-.48-.46.2-.47.48-.47.49.2.49.47zm-.1 4.31h-.77v-3.17h.77v3.17zm3.49-2.29v2.3h-.77v-2.18c0-.4-.15-.51-.39-.51-.28 0-.48.19-.67.48v2.21h-.77v-3.17h.67l.06.41c.25-.32.56-.5.97-.5.57 0 .9.36.9.97zm.73.11h1.81v.61H92.9v-.61zm4.71-.7l-.3.45c-.26-.17-.52-.26-.8-.26-.31 0-.48.13-.48.32 0 .21.13.31.67.46.65.17 1.01.44 1.01 1 0 .66-.61 1.01-1.34 1.01-.55 0-.97-.19-1.27-.45l.38-.43c.25.19.54.31.86.31.34 0 .56-.14.56-.38 0-.26-.13-.35-.72-.52-.65-.18-.94-.49-.94-.96 0-.53.49-.92 1.22-.92.46 0 .83.14 1.13.38zm3.28 2.45l-.16.51c-.35-.03-.58-.15-.7-.46-.23.34-.57.47-.95.47-.63 0-1.02-.4-1.02-.98 0-.69.52-1.06 1.44-1.06h.4v-.18c0-.41-.19-.55-.59-.55-.22 0-.52.06-.85.17l-.17-.52c.39-.15.79-.23 1.15-.23.85 0 1.22.39 1.22 1.09v1.33c0 .26.08.35.24.41zm-1-.43v-.64h-.32c-.5 0-.74.18-.74.55 0 .31.16.48.45.48.26 0 .47-.14.61-.39zm3.16.86h-.92l-1.05-3.17h.83l.68 2.55.7-2.55h.79l-1.03 3.17zm4.06-1.35h-1.99c.06.65.36.86.78.86.28 0 .52-.09.79-.28l.32.44c-.31.25-.7.43-1.18.43-.98 0-1.51-.65-1.51-1.66s.51-1.7 1.41-1.7 1.4.6 1.4 1.6c0 .1-.01.23-.02.31zm-.74-.53c0-.52-.19-.83-.62-.83-.36 0-.59.24-.63.87h1.25V357zm1.3-.3h1.81v.61h-1.81v-.61zm4.36 2.03c-.23.16-.52.24-.8.24-.62 0-.95-.36-.95-1.04v-1.67h-.5v-.55h.5v-.7l.77-.09v.79h.74l-.08.55h-.66v1.65c0 .31.1.44.34.44.12 0 .24-.04.38-.11l.27.49zm3.01-2.14v2.3h-.77v-2.18c0-.4-.16-.51-.39-.51-.27 0-.48.19-.67.47v2.21h-.77v-4.44l.77-.08v1.72c.25-.3.54-.47.92-.47.56 0 .9.37.9.97zm3.47.94h-1.99c.06.65.36.86.78.86.28 0 .52-.09.79-.28l.32.44c-.31.25-.7.43-1.18.43-.98 0-1.51-.65-1.51-1.66s.51-1.7 1.41-1.7 1.4.6 1.4 1.6c0 .1-.01.23-.02.31zm-.74-.53c0-.52-.19-.83-.62-.83-.36 0-.59.24-.63.87h1.25V357zm1.3-.3h1.81v.61h-1.81v-.61zm5.21-2.26v4.44h-.68l-.05-.4c-.19.29-.5.49-.91.49-.79 0-1.21-.67-1.21-1.67s.49-1.68 1.28-1.68c.34 0 .6.14.8.34v-1.61l.77.08zm-.77 3.54v-1.45c-.17-.2-.35-.34-.61-.34-.4 0-.66.34-.66 1.1 0 .82.23 1.1.61 1.1.28 0 .47-.14.65-.41zm4.25.47l-.16.51c-.35-.03-.58-.15-.7-.46-.23.34-.57.47-.95.47-.63 0-1.02-.4-1.02-.98 0-.69.52-1.06 1.44-1.06h.4v-.18c0-.41-.19-.55-.59-.55-.22 0-.52.06-.85.17l-.17-.52c.39-.15.79-.23 1.15-.23.85 0 1.22.39 1.22 1.09v1.33c0 .26.08.35.24.41zm-1-.43v-.64h-.32c-.5 0-.74.18-.74.55 0 .31.16.48.45.48.26 0 .47-.14.61-.39zm3.51.71c-.23.16-.52.24-.8.24-.62 0-.95-.36-.95-1.04v-1.67h-.5v-.55h.5v-.7l.77-.09v.79h.74l-.08.55h-.66v1.65c0 .31.1.44.34.44.12 0 .24-.04.38-.11l.27.49zm2.92-1.2h-1.99c.06.65.36.86.78.86.28 0 .52-.09.79-.28l.32.44c-.31.25-.7.43-1.18.43-.98 0-1.51-.65-1.51-1.66s.51-1.7 1.41-1.7 1.4.6 1.4 1.6c0 .1-.01.23-.02.31zm-.74-.53c0-.52-.19-.83-.62-.83-.36 0-.59.24-.63.87h1.25V357zm2.13 1.49c0 .26-.22.49-.49.49s-.48-.22-.48-.49.21-.49.48-.49.49.22.49.49zm3.26-.04l-.16.51c-.35-.03-.58-.15-.7-.46-.23.34-.57.47-.95.47-.63 0-1.02-.4-1.02-.98 0-.69.52-1.06 1.44-1.06h.4v-.18c0-.41-.19-.55-.59-.55-.22 0-.52.06-.85.17l-.17-.52c.39-.15.79-.23 1.15-.23.85 0 1.22.39 1.22 1.09v1.33c0 .26.08.35.24.41zm-1-.43v-.64h-.32c-.5 0-.74.18-.74.55 0 .31.16.48.45.48.26 0 .47-.14.61-.39zm2.55-3.45c0 .26-.2.46-.49.46s-.48-.2-.48-.46.2-.47.48-.47.49.2.49.47zm-.1 4.31h-.77v-3.17h.77v3.17z" class="cls-3"/><path d="M124.61 31.53v4.59h-1.54v-4.35c0-.79-.31-1.02-.7-1.02-.53 0-.85.37-1.2.96v4.41h-1.54v-4.35c0-.79-.32-1.02-.7-1.02-.54 0-.86.37-1.21.96v4.41h-1.54v-6.34h1.33l.12.83c.46-.64 1.03-1.01 1.83-1.01.74 0 1.3.4 1.54 1.07.48-.66 1.07-1.07 1.91-1.07 1.01 0 1.68.73 1.68 1.93zm6.89 3.73l-.32 1.02c-.71-.06-1.16-.3-1.4-.92-.46.67-1.14.95-1.91.95-1.26 0-2.04-.8-2.04-1.95 0-1.38 1.03-2.12 2.88-2.12h.8v-.36c0-.83-.37-1.1-1.19-1.1-.43 0-1.04.12-1.69.34l-.35-1.04c.78-.3 1.58-.46 2.29-.46 1.7 0 2.45.78 2.45 2.18v2.66c0 .52.17.7.48.82zm-1.99-.85v-1.28h-.64c-1 0-1.49.36-1.49 1.1 0 .61.31.96.9.96.53 0 .94-.28 1.22-.78zm8.48 1.71h-1.77l-1.31-2.52-1.29 2.52h-1.69l2.11-3.35-1.9-3h1.75l1.08 2.16 1.07-2.16h1.67l-1.83 2.95 2.12 3.39zm2.6-8.62c0 .52-.4.92-.97.92s-.96-.41-.96-.92.4-.94.96-.94.97.41.97.94zm-.19 8.62h-1.54v-6.34h1.54v6.34zm10.2-4.59v4.59h-1.54v-4.35c0-.79-.31-1.02-.7-1.02-.53 0-.85.37-1.2.96v4.41h-1.54v-4.35c0-.79-.32-1.02-.7-1.02-.54 0-.86.37-1.21.96v4.41h-1.54v-6.34h1.33l.12.83c.46-.64 1.03-1.01 1.83-1.01.74 0 1.3.4 1.54 1.07.48-.66 1.07-1.07 1.91-1.07 1.01 0 1.68.73 1.68 1.93zm6.79 4.59h-1.33l-.08-.89c-.47.72-1.07 1.07-1.94 1.07-1.15 0-1.76-.74-1.76-1.97v-4.56h1.53v4.37c0 .74.24 1 .77 1s.96-.35 1.28-.9v-4.46h1.54v6.34zm10.2-4.59v4.59h-1.54v-4.35c0-.79-.31-1.02-.7-1.02-.53 0-.85.37-1.2.96v4.41h-1.54v-4.35c0-.79-.32-1.02-.7-1.02-.54 0-.86.37-1.21.96v4.41h-1.54v-6.34h1.33l.12.83c.46-.64 1.03-1.01 1.83-1.01.74 0 1.3.4 1.54 1.07.48-.66 1.07-1.07 1.91-1.07 1.01 0 1.68.73 1.68 1.93zm9.1-2.34h-3.02v2c.41-.2.83-.3 1.22-.3 1.34 0 2.32.96 2.32 2.6s-1.19 2.81-3.01 2.81c-1.13 0-1.92-.46-2.54-1.14l.88-.82c.44.49.96.77 1.63.77.9 0 1.46-.58 1.46-1.62 0-1.12-.55-1.5-1.29-1.5-.37 0-.67.08-1.04.28h-1.09v-4.22h4.68l-.18 1.14zm3.39 6.14c0 .53-.43.97-.98.97s-.96-.44-.96-.97.42-.97.96-.97.98.43.98.97zm5.85-6.14h-3.02v2c.41-.2.83-.3 1.22-.3 1.34 0 2.32.96 2.32 2.6s-1.19 2.81-3.01 2.81c-1.13 0-1.92-.46-2.54-1.14l.88-.82c.44.49.96.77 1.63.77.9 0 1.46-.58 1.46-1.62 0-1.12-.55-1.5-1.29-1.5-.37 0-.67.08-1.04.28h-1.09v-4.22h4.68l-.18 1.14zm2.96-1.3c0 .25-.07.49-.28.92l-.78 1.63h-.86l.49-1.83c-.24-.18-.38-.42-.38-.73 0-.48.41-.86.91-.86s.9.38.9.88zm2.31 0c0 .25-.07.49-.28.92l-.78 1.63h-.86l.49-1.83c-.24-.18-.38-.42-.38-.73 0-.48.41-.86.91-.86s.9.38.9.88z" class="cls-2"/><path d="M305.5 1.5v394H1.5V1.5h304m1-1H.5v396h306V.5z" class="cls-1"/><path d="M62.26 39.07h182.48" class="cls-5"/><path d="M59.25 39.07c1.42.53 3.18 1.43 4.27 2.38l-.86-2.38.86-2.38c-1.09.95-2.85 1.85-4.27 2.38zm188.5 0c-1.42.53-3.18 1.43-4.27 2.38l.86-2.38-.86-2.38c1.09.95 2.85 1.85 4.27 2.38zM38.92 227.67h4.59v1.54h-4.35c-.79 0-1.02.31-1.02.7 0 .53.37.85.96 1.2h4.41v1.54h-4.35c-.79 0-1.02.32-1.02.7 0 .54.37.86.96 1.21h4.41v1.54h-6.34v-1.33l.83-.12c-.64-.46-1.01-1.03-1.01-1.83 0-.74.4-1.3 1.07-1.54-.66-.48-1.07-1.07-1.07-1.91 0-1.01.73-1.68 1.93-1.68zm3.73-6.89l1.02.32c-.06.71-.3 1.16-.92 1.4.67.46.95 1.14.95 1.91 0 1.26-.8 2.04-1.95 2.04-1.38 0-2.12-1.03-2.12-2.88v-.8h-.36c-.83 0-1.1.37-1.1 1.19 0 .43.12 1.04.34 1.69l-1.04.35c-.3-.78-.46-1.58-.46-2.29 0-1.7.78-2.45 2.18-2.45h2.66c.52 0 .7-.17.82-.48zm-.85 1.99h-1.28v.64c0 1 .36 1.49 1.1 1.49.61 0 .96-.31.96-.9 0-.53-.28-.94-.78-1.22zm1.72-8.48v1.77L41 217.37l2.52 1.29v1.69l-3.35-2.11-3 1.9v-1.75l2.16-1.08-2.16-1.07v-1.67l2.95 1.83 3.39-2.12zm-8.63-2.6c.52 0 .92.4.92.97s-.41.96-.92.96-.94-.4-.94-.96.41-.97.94-.97zm8.62.19v1.54h-6.34v-1.54h6.34zm-4.59-10.2h4.59v1.54h-4.35c-.79 0-1.02.31-1.02.7 0 .53.37.85.96 1.2h4.41v1.54h-4.35c-.79 0-1.02.32-1.02.7 0 .54.37.86.96 1.21h4.41v1.54h-6.34v-1.33l.83-.12c-.64-.46-1.01-1.03-1.01-1.83 0-.74.4-1.3 1.07-1.54-.66-.48-1.07-1.07-1.07-1.91 0-1.01.73-1.68 1.93-1.68zm4.6-6.78v1.33l-.89.08c.72.47 1.07 1.07 1.07 1.94 0 1.15-.74 1.76-1.97 1.76h-4.56v-1.54h4.37c.74 0 1-.24 1-.77s-.35-.96-.9-1.28h-4.46v-1.54h6.34zm-4.6-10.21h4.59v1.54h-4.35c-.79 0-1.02.31-1.02.7 0 .53.37.85.96 1.2h4.41v1.54h-4.35c-.79 0-1.02.32-1.02.7 0 .54.37.86.96 1.21h4.41v1.54h-6.34v-1.33l.83-.12c-.64-.46-1.01-1.03-1.01-1.83 0-.74.4-1.3 1.07-1.54-.66-.48-1.07-1.07-1.07-1.91 0-1.01.73-1.68 1.93-1.68zm2.42-10.2c1.32 0 2.35 1.16 2.35 3s-1.02 2.93-2.33 2.93c-.98 0-1.63-.58-2.04-1.54-.47.86-1.12 1.21-1.91 1.21-1.32 0-2.12-1.2-2.12-2.64s.72-2.64 2.06-2.64c.74 0 1.36.42 1.82 1.33.49-1.1 1.2-1.66 2.16-1.66zm-3.9 4.11c.68 0 .98-.43 1.27-1.21l.08-.23c-.4-.64-.79-.86-1.37-.86-.64 0-1.06.4-1.06 1.15 0 .7.36 1.15 1.07 1.15zm3.9-2.55c-.76 0-1.09.4-1.49 1.48l-.13.37c.35.65.86.97 1.6.97.77 0 1.24-.55 1.24-1.42s-.52-1.4-1.21-1.4zm1.38-4.41c.53 0 .97.43.97.98s-.44.96-.97.96-.97-.42-.97-.96.43-.98.97-.98zm-6.14-5.85v3.02h2c-.2-.41-.3-.83-.3-1.22 0-1.34.96-2.31 2.6-2.31s2.81 1.19 2.81 3.01c0 1.13-.46 1.92-1.14 2.54l-.82-.88c.49-.44.77-.96.77-1.63 0-.9-.58-1.46-1.62-1.46-1.12 0-1.5.55-1.5 1.3 0 .37.08.67.28 1.04v1.09h-4.22v-4.68l1.14.18zm-1.3-5.27c.25 0 .49.07.92.28l1.63.78v.86l-1.83-.49c-.18.24-.42.38-.73.38-.48 0-.86-.41-.86-.91s.38-.9.88-.9zm0 2.31c.25 0 .49.07.92.28l1.63.78v.86l-1.83-.49c-.18.24-.42.38-.73.38-.48 0-.86-.41-.86-.91s.38-.9.88-.9z" class="cls-2"/><path d="M46.46 343.98V53.02" class="cls-5"/><path d="M46.46 347c.53-1.42 1.43-3.18 2.38-4.27l-2.38.86-2.38-.86c.95 1.09 1.85 2.85 2.38 4.27zm0-297c.53 1.42 1.43 3.18 2.38 4.27l-2.38-.86-2.38.86c.95-1.09 1.85-2.85 2.38-4.27z" class="cls-2"/></svg>