<svg xmlns="http://www.w3.org/2000/svg" id="Layer_1" width="80" height="22.2" viewBox="0 0 80 22.2"><style>.st0{fill:#2997ff}.st1{fill:#fff}</style><g id="a99fefd7-084b-4ee4-8106-f179c5a7cea8"><g id="bf8ecbdf-9776-4f7c-9b6c-3b3276017fa6"><path d="M3.5 0h73C78.4 0 80 1.6 80 3.5v15.2c0 1.9-1.6 3.5-3.5 3.5h-73c-1.9 0-3.5-1.6-3.5-3.5V3.5C0 1.6 1.6 0 3.5 0z" class="st0"/><path d="M22.2 11.8H20V19H7v-7.2H5l8.6-8.6 3.6 3.6V3.9h2.2v5c0 .1 2.8 2.9 2.8 2.9zm-5 .8c0-2.1-3-2.6-3.6-.6-.7-2-3.6-1.4-3.6.6 0 1.4 1.7 2.9 3.6 4.9 1.9-1.9 3.6-3.4 3.6-4.9zm14.5 4.6l1.8-12.4h2.6l-.7 4.9h4l.7-4.9h2.6L41 17.2h-2.6l.7-5.4h-4l-.8 5.4h-2.6zm11.1-3.8c0-2.6 1.3-6.1 5.2-6.1 2.5 0 3.9 1.5 3.9 4 0 2.6-1.3 6.1-5.2 6.1-2.5.1-3.9-1.4-3.9-4zm6.5-2.1c0-1.4-.5-1.9-1.4-1.9-2 0-2.5 2.8-2.5 4.3 0 1.4.5 1.9 1.4 1.9 2.1 0 2.5-2.8 2.5-4.3zm16.6-1l-1 6.9h-2.5l.9-6.4c.2-1.1-.2-1.4-.6-1.4-.7 0-1.4 1-2.1 2.2l-.8 5.4h-2.5l.9-6.4c.2-1.1-.2-1.4-.6-1.4-.7 0-1.4 1-2.1 2.3l-.7 5.5h-2.5l1.4-9.5h2.2l-.1 1.6c.8-1.2 1.8-1.9 3-1.9 1.1 0 1.9.6 2.1 1.8.8-1.1 1.8-1.8 3-1.8 1.5.2 2.3 1.3 2 3.1zm3.3 3.5c.1 1.4.8 1.8 1.8 1.8.9 0 1.6-.3 2.5-.9l1 1.5c-1 .7-2.2 1.3-3.7 1.3-2.6 0-4-1.6-4-4 0-2.6 1.4-6.1 5.3-6.1 2.2 0 3.4 1.2 3.4 2.6-.1 2.6-3.3 3.4-6.3 3.8zm3.6-3.7c0-.4-.2-.9-1-.9-1.5 0-2.2 1.5-2.4 3 2.4-.3 3.4-1.1 3.4-2.1z" class="st1"/></g></g></svg>