<svg xmlns="http://www.w3.org/2000/svg" id="Layer_1" width="1440" height="1440" viewBox="0 0 1440 1440"><style>.st0{fill:#9f9f9f}.st1{fill:#7f7f80}.st2{fill:#3f3f40}.st3{fill:#efeff0}.st4{fill:#5f5f60}.st5{fill:#dfdfdf}</style><path d="M1343 952.2c0-46.1 0-322.8-138.4-461.2-92.2-138.4-138.3-230.6-276.7-138.4-221.7 161.2-549.2 313.7-863 434.2L1265.5 1287c49.8-122.5 77.5-236 77.5-334.8z"/><path d="M974.1 264h123v123h-123z" class="st0"/><path d="M1097.1 264h123v123h-123z" class="st1"/><path d="M1097.1 387h123v123h-123z" class="st2"/><path d="M1220 387h123v123h-123z" class="st3"/><path d="M1220 509.9h123v123h-123z" class="st1"/><path d="M974.1 387h123v123h-123zm123 122.9h123v123h-123z"/><path d="M974.1 509.9h123v123h-123z"/><path d="M851.2 509.9h123v123h-123zm-123 0h123v123h-123z"/><path d="M605.3 509.9h123v123h-123z"/><path d="M482.3 509.9h123v123h-123z" class="st4"/><path d="M359.4 509.9h123v123h-123z" class="st5"/><path d="M851.2 387h123v123h-123z"/><path d="M851.2 264h123v123h-123z" class="st0"/><path d="M728.2 387h123v123h-123z" class="st2"/><path d="M605.3 387h123v123h-123z" class="st3"/></svg>