<svg xmlns="http://www.w3.org/2000/svg" id="Layer_1" width="1440" height="1440" viewBox="0 0 1440 1440"><style>.st0{fill:#999}.st1{fill:#2997ff}.st2{fill:none;stroke:#2997ff;stroke-width:3;stroke-miterlimit:10}</style><path d="M184.3 422.5c-8.3 7.1-16.3 12.1-24 15s-16 4.4-24.8 4.4c-14.6 0-25.8-3.6-33.6-10.7S90.2 415 90.2 403.9c0-6.5 1.5-12.4 4.4-17.8 3-5.4 6.8-9.7 11.6-12.9 4.8-3.2 10.2-5.7 16.2-7.4 4.4-1.2 11.1-2.3 20-3.4 18.2-2.2 31.5-4.7 40.1-7.7.1-3.1.1-5 .1-5.9 0-9.2-2.1-15.6-6.4-19.4-5.7-5.1-14.3-7.6-25.6-7.6-10.6 0-18.4 1.9-23.4 5.6-5 3.7-8.8 10.3-11.2 19.7l-22-3c2-9.4 5.3-17 9.9-22.8s11.2-10.2 19.9-13.4c8.7-3.1 18.7-4.7 30.1-4.7 11.3 0 20.5 1.3 27.6 4s12.3 6 15.6 10.1c3.3 4 5.7 9.1 7 15.3.7 3.8 1.1 10.7 1.1 20.7v30c0 20.9.5 34.1 1.4 39.7 1 5.5 2.9 10.8 5.7 15.9h-23.5c-2.4-4.7-3.9-10.2-4.5-16.4zm-1.9-50.2c-8.2 3.3-20.4 6.2-36.7 8.5-9.2 1.3-15.8 2.8-19.6 4.5-3.8 1.7-6.8 4.1-8.9 7.3-2.1 3.2-3.1 6.8-3.1 10.7 0 6 2.3 11 6.8 15s11.2 6 19.9 6 16.4-1.9 23.1-5.7c6.7-3.8 11.7-9 14.9-15.6 2.4-5.1 3.6-12.6 3.6-22.5v-8.2z"/><path d="M79.9 177.6l19.8-51.5h7.3l21.1 51.5h-7.8l-6-15.6H92.8l-5.7 15.6h-7.2zm14.9-21.1h17.5l-5.4-14.3c-1.6-4.3-2.9-7.9-3.7-10.7-.7 3.3-1.6 6.6-2.8 9.8l-5.6 15.2zm37.9 21.1v-37.3h5.7v5.7c1.5-2.6 2.8-4.4 4-5.2s2.6-1.3 4.1-1.3c2.1 0 4.3.7 6.5 2l-2.2 5.9c-1.5-.9-3.1-1.4-4.6-1.4-1.4 0-2.6.4-3.7 1.2-1.1.8-1.9 2-2.4 3.5-.7 2.2-1.1 4.7-1.1 7.4v19.5h-6.3zm24.1-44.2v-7.3h6.3v7.3h-6.3zm0 44.2v-37.3h6.3v37.3h-6.3zm40.3-4.6c-2.3 2-4.6 3.4-6.8 4.2s-4.5 1.2-7 1.2c-4.1 0-7.3-1-9.5-3s-3.3-4.6-3.3-7.7c0-1.8.4-3.5 1.2-5s1.9-2.7 3.3-3.6c1.3-.9 2.9-1.6 4.6-2.1 1.2-.3 3.1-.6 5.6-.9 5.1-.6 8.9-1.3 11.3-2.2v-1.7c0-2.6-.6-4.4-1.8-5.4-1.6-1.4-4-2.1-7.2-2.1-3 0-5.2.5-6.6 1.6-1.4 1-2.5 2.9-3.1 5.5l-6.2-.8c.6-2.6 1.5-4.8 2.8-6.4 1.3-1.6 3.2-2.9 5.6-3.8 2.4-.9 5.3-1.3 8.5-1.3s5.8.4 7.8 1.1c2 .8 3.5 1.7 4.4 2.8s1.6 2.6 2 4.3c.2 1.1.3 3 .3 5.8v8.4c0 5.9.1 9.6.4 11.2.3 1.6.8 3.1 1.6 4.5h-6.6c-.7-1.3-1.1-2.8-1.3-4.6zm-.5-14.1c-2.3.9-5.7 1.7-10.3 2.4-2.6.4-4.4.8-5.5 1.3s-1.9 1.2-2.5 2.1c-.6.9-.9 1.9-.9 3 0 1.7.6 3.1 1.9 4.2 1.3 1.1 3.1 1.7 5.6 1.7 2.4 0 4.6-.5 6.5-1.6s3.3-2.5 4.2-4.4c.7-1.4 1-3.5 1-6.3v-2.4zm16.1 18.7v-51.5h6.3v51.5h-6.3zM577.6 126h7.1v21.3h26.5V126h7.1v51.6h-7.1v-24.2h-26.5v24.2h-7.1V126zm74.2 15c2.5 1.3 4.4 2.9 5.7 4.9 1.3 1.9 2.1 4.1 2.5 6.6.4 1.7.6 4.5.6 8.3h-27.4c.1 3.8 1 6.9 2.7 9.2s4.3 3.5 7.8 3.5c3.3 0 5.9-1.1 7.8-3.3 1.1-1.3 1.9-2.7 2.3-4.4h6.2c-.2 1.4-.7 2.9-1.6 4.6-.9 1.7-2 3.1-3.1 4.2-1.9 1.9-4.3 3.1-7.1 3.8-1.5.4-3.2.6-5.1.6-4.7 0-8.6-1.7-11.8-5.1s-4.9-8.2-4.9-14.3c0-6 1.6-11 4.9-14.7 3.3-3.8 7.5-5.7 12.8-5.7 2.7-.1 5.2.6 7.7 1.8zm2.3 14.8c-.3-2.7-.8-4.9-1.8-6.6-1.7-3-4.6-4.6-8.6-4.6-2.9 0-5.3 1-7.3 3.1s-3 4.8-3.1 8h20.8v.1zm14.7-29.8h6.3v51.6h-6.3V126zm18.9 14l10.1 30.7 10.5-30.7h6.9L701 177.6h-6.7L680.4 140h7.3zm56.2 1c2.5 1.3 4.4 2.9 5.7 4.9 1.3 1.9 2.1 4.1 2.5 6.6.4 1.7.6 4.5.6 8.3h-27.4c.1 3.8 1 6.9 2.7 9.2s4.3 3.5 7.8 3.5c3.3 0 5.9-1.1 7.8-3.3 1.1-1.3 1.9-2.7 2.3-4.4h6.2c-.2 1.4-.7 2.9-1.6 4.6-.9 1.7-2 3.1-3.1 4.2-1.9 1.9-4.3 3.1-7.1 3.8-1.5.4-3.2.6-5.1.6-4.7 0-8.6-1.7-11.8-5.1-3.2-3.4-4.9-8.2-4.9-14.3 0-6 1.6-11 4.9-14.7 3.3-3.8 7.5-5.7 12.8-5.7 2.6-.1 5.2.6 7.7 1.8zm2.2 14.8c-.3-2.7-.8-4.9-1.8-6.6-1.7-3-4.6-4.6-8.6-4.6-2.9 0-5.3 1-7.3 3.1s-3 4.8-3.1 8h20.8v.1zm15.8-26.3h6.4V140h6v5.2h-6v24.6c0 1.3.4 2.2 1.3 2.6.5.3 1.3.4 2.5.4h1c.4 0 .8-.1 1.2-.1v5c-.7.2-1.5.4-2.3.5s-1.6.1-2.5.1c-3 0-5-.8-6-2.3s-1.6-3.5-1.6-5.9v-24.9h-5.1V140h5.1v-10.5zm18.8-3.5h6.4v7.2h-6.4V126zm0 14.2h6.4v37.5h-6.4v-37.5zm40.8 1.8c2.7 2.1 4.3 5.6 4.8 10.7h-6.2c-.4-2.3-1.2-4.2-2.6-5.8-1.3-1.5-3.5-2.3-6.4-2.3-4 0-6.9 2-8.6 5.9-1.1 2.6-1.7 5.7-1.7 9.4 0 3.8.8 6.9 2.4 9.5 1.6 2.6 4.1 3.9 7.5 3.9 2.6 0 4.7-.8 6.2-2.4 1.5-1.6 2.6-3.8 3.2-6.6h6.2c-.7 5-2.5 8.6-5.3 11-2.8 2.3-6.4 3.5-10.8 3.5-4.9 0-8.8-1.8-11.8-5.4-2.9-3.6-4.4-8.1-4.4-13.5 0-6.6 1.6-11.8 4.8-15.4 3.2-3.7 7.3-5.5 12.3-5.5 4.3-.1 7.8.9 10.4 3zm31.3 12.8c1.5-.2 2.4-.8 2.9-1.8.3-.6.4-1.4.4-2.4 0-2.2-.8-3.7-2.3-4.7s-3.7-1.5-6.6-1.5c-3.3 0-5.6.9-7 2.7-.8 1-1.3 2.5-1.5 4.4h-5.9c.1-4.7 1.6-7.9 4.5-9.7s6.2-2.7 10.1-2.7c4.4 0 8 .8 10.8 2.5 2.7 1.7 4.1 4.3 4.1 7.9v21.7c0 .7.1 1.2.4 1.6.3.4.8.6 1.7.6.3 0 .6 0 .9-.1s.7-.1 1.1-.2v4.7c-1 .3-1.7.5-2.2.5-.5.1-1.2.1-2.1.1-2.2 0-3.8-.8-4.7-2.3-.5-.8-.9-2-1.1-3.5-1.3 1.7-3.1 3.2-5.6 4.4-2.5 1.2-5.2 1.9-8 1.9-3.5 0-6.3-1.1-8.6-3.2s-3.3-4.8-3.3-8c0-3.5 1.1-6.2 3.3-8.1 2.2-1.9 5-3.1 8.6-3.5l10.1-1.3zm-13.3 17.1c1.3 1.1 2.9 1.6 4.7 1.6 2.2 0 4.4-.5 6.5-1.5 3.5-1.7 5.3-4.5 5.3-8.4v-5.1c-.8.5-1.8.9-3 1.2s-2.4.6-3.6.7l-3.8.5c-2.3.3-4 .8-5.2 1.4-2 1.1-2.9 2.9-2.9 5.3 0 1.8.7 3.3 2 4.3z" class="st0"/><path d="M737.1 360c5.2-.7 8.6-2.8 10.4-6.4 1-2 1.5-4.8 1.5-8.6 0-7.6-2.7-13.1-8.2-16.6-5.4-3.4-13.2-5.1-23.4-5.1-11.7 0-20 3.1-24.9 9.4-2.7 3.5-4.5 8.7-5.4 15.5h-21c.4-16.4 5.8-27.7 16-34.1 10.3-6.4 22.2-9.6 35.7-9.6 15.7 0 28.5 3 38.3 8.9 9.7 5.9 14.6 15.2 14.6 27.7v76.3c0 2.3.5 4.2 1.4 5.6 1 1.4 3 2.1 6.1 2.1 1 0 2.1-.1 3.4-.2s2.6-.3 4-.6v16.4c-3.5 1-6.2 1.6-8 1.9-1.8.2-4.3.4-7.5.4-7.7 0-13.4-2.7-16.9-8.2-1.8-2.9-3.1-7-3.9-12.2-4.6 5.9-11.2 11.1-19.7 15.4-8.6 4.4-18 6.5-28.4 6.5-12.4 0-22.5-3.7-30.4-11.2-7.9-7.4-11.8-16.8-11.8-28 0-12.3 3.9-21.8 11.6-28.5 7.7-6.7 17.9-10.9 30.5-12.5l36-4.3zm-47.4 60.1c4.7 3.7 10.4 5.5 16.9 5.5 7.9 0 15.6-1.8 23-5.4 12.5-6 18.7-15.8 18.7-29.5v-17.9c-2.7 1.7-6.3 3.2-10.6 4.3-4.3 1.2-8.6 2-12.7 2.5l-13.6 1.7c-8.1 1.1-14.3 2.8-18.4 5.1-7 3.9-10.4 10-10.4 18.5 0 6.5 2.4 11.5 7.1 15.2z" class="st1"/><path d="M191.5 807.7l22.1 2.9c-2.4 15.2-8.6 27.2-18.5 35.8-10 8.6-22.2 12.9-36.7 12.9-18.2 0-32.7-5.9-43.8-17.8-11-11.9-16.6-28.9-16.6-51 0-14.3 2.4-26.9 7.1-37.6 4.7-10.7 12-18.8 21.7-24.2s20.3-8.1 31.7-8.1c14.4 0 26.2 3.6 35.3 10.9 9.2 7.3 15 17.6 17.6 31l-21.9 3.4c-2.1-8.9-5.8-15.6-11.1-20.1s-11.7-6.7-19.2-6.7c-11.3 0-20.5 4.1-27.6 12.2-7.1 8.1-10.6 21-10.6 38.5 0 17.8 3.4 30.8 10.2 38.8 6.8 8.1 15.7 12.1 26.7 12.1 8.8 0 16.2-2.7 22.1-8.1 6.1-5.3 9.9-13.6 11.5-24.9z"/><path d="M760.9 729.7c9.5 7.3 15.1 19.9 17 37.8H756c-1.3-8.2-4.4-15.1-9.1-20.5-4.7-5.5-12.4-8.2-22.9-8.2-14.3 0-24.6 7-30.7 21-4 9.1-6 20.3-6 33.6 0 13.4 2.8 24.7 8.5 33.8s14.6 13.7 26.7 13.7c9.3 0 16.7-2.8 22.2-8.5s9.2-13.5 11.3-23.3h22c-2.5 17.7-8.7 30.7-18.7 38.9s-22.8 12.3-38.3 12.3c-17.5 0-31.4-6.4-41.8-19.2-10.4-12.8-15.6-28.7-15.6-47.9 0-23.5 5.7-41.8 17.1-54.8 11.4-13.1 25.9-19.6 43.6-19.6 14.9-.1 27.2 3.5 36.6 10.9z" class="st1"/><path d="M182.4 1282.8l3.2 19.9c-6.3 1.3-12 2-17 2-8.2 0-14.5-1.3-19-3.9s-7.7-6-9.5-10.2-2.7-13.1-2.7-26.5v-76.3H121v-17.5h16.5v-32.8l22.4-13.5v46.3h22.6v17.5h-22.6v77.6c0 6.4.4 10.5 1.2 12.4.8 1.8 2.1 3.3 3.9 4.4 1.8 1.1 4.4 1.6 7.7 1.6 2.3-.1 5.6-.4 9.7-1z"/><path d="M705.4 1131.8h22.7v37.3h21.4v18.4h-21.4v87.3c0 4.7 1.6 7.8 4.7 9.4 1.7.9 4.7 1.4 8.7 1.4 1.1 0 2.2 0 3.5-.1s2.7-.2 4.4-.4v17.9c-2.6.7-5.3 1.3-8.1 1.6-2.8.3-5.8.5-9.1.5-10.5 0-17.6-2.7-21.4-8.1-3.7-5.4-5.6-12.3-5.6-20.9v-88.6h-18.1v-18.4h18.1v-37.3h.2z" class="st1"/><path d="M1283.4 445.5c-14.5 12.3-28.4 21-41.7 26-13.4 5.1-27.7 7.6-43 7.6-25.3 0-44.7-6.2-58.3-18.5-13.6-12.4-20.4-28.1-20.4-47.4 0-11.3 2.6-21.6 7.7-30.9s11.8-16.8 20.2-22.4c8.3-5.6 17.7-9.9 28.1-12.8 7.7-2 19.2-4 34.7-5.9 31.5-3.8 54.7-8.2 69.6-13.4.1-5.3.2-8.7.2-10.2 0-15.9-3.7-27.1-11.1-33.6-10-8.8-24.8-13.2-44.4-13.2-18.4 0-31.9 3.2-40.6 9.6s-15.2 17.8-19.4 34.1l-38.2-5.2c3.5-16.3 9.2-29.5 17.1-39.6 7.9-10 19.4-17.8 34.5-23.2 15-5.4 32.4-8.1 52.2-8.1 19.7 0 35.6 2.3 47.9 6.9 12.3 4.6 21.3 10.4 27.1 17.5 5.8 7 9.8 15.9 12.1 26.6 1.3 6.6 2 18.6 2 36v52c0 36.3.8 59.2 2.5 68.8s4.9 18.8 9.9 27.6h-40.8c-4.1-8-6.7-17.5-7.9-28.3zm-3.2-87.2c-14.2 5.8-35.4 10.7-63.7 14.7-16 2.3-27.4 4.9-34 7.8s-11.8 7.1-15.4 12.7-5.4 11.7-5.4 18.5c0 10.4 3.9 19.1 11.8 26s19.4 10.4 34.6 10.4c15 0 28.4-3.3 40.1-9.9s20.3-15.6 25.8-27c4.2-8.8 6.3-21.8 6.3-39v-14.2h-.1zm17.2 467.1l38.4 5c-4.2 26.4-14.9 47.2-32.2 62.1-17.3 15-38.5 22.4-63.6 22.4-31.5 0-56.8-10.3-76-30.9-19.2-20.6-28.7-50.1-28.7-88.6 0-24.9 4.1-46.6 12.4-65.3 8.2-18.6 20.8-32.6 37.6-42 16.8-9.3 35.2-14 55-14 25 0 45.5 6.3 61.4 19 15.9 12.6 26.1 30.6 30.6 53.9l-37.9 5.9c-3.6-15.5-10-27.1-19.2-34.9-9.2-7.8-20.3-11.7-33.3-11.7-19.7 0-35.6 7-47.9 21.1s-18.4 36.4-18.4 66.9c0 30.9 5.9 53.4 17.8 67.4 11.8 14 27.3 21 46.4 21 15.3 0 28.1-4.7 38.4-14.1 10-9.2 16.5-23.7 19.2-43.2zm-26 493.9l5.6 34.5c-11 2.3-20.8 3.5-29.5 3.5-14.2 0-25.1-2.2-33-6.7-7.8-4.5-13.3-10.4-16.5-17.7-3.2-7.3-4.8-22.7-4.8-46.1v-132.5h-28.6v-30.4h28.6v-57l38.8-23.4v80.4h39.2v30.4H1232v134.6c0 11.1.7 18.3 2.1 21.5s3.6 5.7 6.7 7.6 7.6 2.8 13.3 2.8c4.5 0 10.2-.5 17.3-1.5z"/><path d="M1251.5 337c9-1.1 15-4.9 18-11.1 1.7-3.4 2.6-8.4 2.6-14.9 0-13.2-4.7-22.8-14.2-28.8-9.4-6-23-8.9-40.6-8.9-20.3 0-34.8 5.5-43.3 16.4-4.8 6-7.9 15-9.3 27h-36.4c.7-28.4 10-48.2 27.8-59.3 17.8-11.1 38.5-16.7 62-16.7 27.3 0 49.4 5.1 66.5 15.4 16.9 10.3 25.3 26.3 25.3 48.1v132.4c0 4 .8 7.2 2.5 9.7 1.7 2.4 5.2 3.6 10.5 3.6 1.7 0 3.7-.1 5.9-.3s4.5-.5 6.9-1v28.5c-6.1 1.7-10.7 2.8-13.9 3.2-3.2.4-7.5.6-13 .6-13.4 0-23.2-4.7-29.3-14.2-3.2-5-5.4-12.1-6.7-21.2-7.9 10.3-19.4 19.2-34.3 26.8-14.9 7.6-31.3 11.4-49.2 11.4-21.5 0-39.1-6.5-52.8-19.4-13.7-12.9-20.5-29.1-20.5-48.5 0-21.3 6.7-37.8 20.2-49.5 13.4-11.7 31.1-18.9 52.9-21.6l62.4-7.7zm-82.2 104.4c8.2 6.4 18 9.6 29.3 9.6 13.7 0 27-3.1 39.9-9.4 21.7-10.4 32.5-27.5 32.5-51.2v-31.1c-4.8 3-10.9 5.5-18.4 7.5s-14.9 3.4-22.1 4.3l-23.6 3c-14.1 1.9-24.8 4.8-31.9 8.8-12.1 6.7-18.1 17.4-18.1 32.1 0 11.2 4.1 19.9 12.4 26.4zm136 248.5c16.4 12.7 26.3 34.6 29.6 65.7H1297c-2.3-14.3-7.6-26.2-15.8-35.7-8.2-9.5-21.5-14.2-39.7-14.2-24.9 0-42.6 12.1-53.3 36.4-6.9 15.7-10.4 35.2-10.4 58.2 0 23.2 4.9 42.8 14.7 58.7 9.8 15.9 25.3 23.8 46.4 23.8 16.2 0 29-4.9 38.5-14.8s16-23.4 19.6-40.5h37.9c-4.3 30.8-15.2 53.3-32.5 67.5s-39.5 21.4-66.6 21.4c-30.4 0-54.6-11.1-72.6-33.3-18.1-22.2-27.1-49.9-27.1-83.1 0-40.8 9.9-72.5 29.7-95.2 19.8-22.7 45-34 75.7-34 26.1.1 47.4 6.4 63.8 19.1zm-107 367.3h39.5v64.8h37.1v31.9h-37.1v151.5c0 8.1 2.7 13.5 8.2 16.3 3 1.6 8.1 2.4 15.2 2.4 1.9 0 3.9 0 6.1-.1s4.7-.3 7.6-.7v31c-4.5 1.3-9.1 2.2-14 2.8-4.8.6-10.1.9-15.7.9-18.2 0-30.6-4.7-37.1-14s-9.8-21.4-9.8-36.3V1154h-31.4v-32h31.4v-64.8z" class="st2"/></svg>