<svg xmlns="http://www.w3.org/2000/svg" id="f7eab563-1ea6-4b40-adb6-610a0ac7dfa1" width="346.21" height="370.26" viewBox="0 0 346.21 370.26"><defs><style>.e37c3dd7-f63a-4058-a1f7-fd933934065a{fill:#505050}</style></defs><path d="M229.32 243.86a110 110 0 0 0-.56 11.74c0 6.72 1.68 10.07 15.66 10.07 55.37 0 76.58-65.44 76.58-119.67 0-72.71-46.42-125.29-120.25-125.29-114.1 0-168.35 105.15-168.35 199.12 0 78.86 40.83 128.64 117.46 128.64 22.37 0 59.84-5.59 89.48-17.34l7.84 20.7c-31.89 12.86-70.48 18.45-101.24 18.45-90.61 0-146-61-146-147.09C0 111.3 81.1 0 205.83 0c85.57 0 140.38 63.2 140.38 144.3 0 66.56-30.76 142.63-111.3 142.63-12.86 0-25.17-2.8-33-7.83l-4.47-6.16 13.42-107.38h-1.68C174 245 133.68 293.08 111.86 293.08c-14 0-17.9-15.66-17.9-37.48 0-39.71 25.73-177.86 73.27-177.86 6.72 0 28.53 3.36 52 10.07 1.68-5.59 4.47-15.66 12.86-15.66 3.92 0 10.07 2.24 15.11 5zM165 102.91c-20.14 0-41.39 86.7-41.39 139.83 0 5.59 3.35 7.27 6.15 7.27 22.93 0 78.3-118 85.57-139.27-16.21-4.47-33-7.83-50.33-7.83z" class="e37c3dd7-f63a-4058-a1f7-fd933934065a"/></svg>