<svg xmlns="http://www.w3.org/2000/svg" id="Layer_1" viewBox="0 0 1440 1440" width="1440" height="1440"><style>.st0{fill:none}.st1{fill:#2997ff}.st2{fill:none;stroke:#2997ff;stroke-width:2;stroke-miterlimit:10}.st3{fill:#b3b3b3}.st4{fill:#505050}</style><path d="M858.3 499L744.5 371v115.1c0 18.2 2.7 29.4 8.2 33.7s17.4 6.5 35.9 6.7v2.4h93.6c-3.4-6.2-8.6-13.3-15.8-21.2-3.6-3.8-6.3-6.7-8.1-8.7z" class="st0"/><path d="M641.2 550.2c11.7-1.3 23.2-2.4 34.5-3 11.3-.7 24.2-1 38.5-1 9.4 0 20.3.3 32.7 1 12.3.7 26.3 1.7 41.7 3V529H641.2v21.2zm241-21.2c2.9 5.5 4.4 10.3 4.4 14.5l.3 6.7c16.6-1.6 27.7-2.5 33.2-2.9 5.5-.3 10-.5 13.6-.5 7.6 0 16.2.3 25.8.8 9.5.6 20.8 1.4 33.8 2.5l.9-21.2h-112v.1z" class="st1"/><path d="M303.5 512.9c-7.6-9.7-43.4-47.6-77.9-87.6-6.9-8.3-13.8-15.9-17.2-15.9-2.8 0-3.4 4.1-3.4 5.5-3.4 9-3.4 75.2.7 95.8 1.4 9.5 4.1 14.4 11.7 18.1h86c6-3.5 5.7-8.7.1-15.9z" class="st0"/><path d="M294.5 532.2c-9 2.1-15.2 5.5-15.2 9.7 0 6.2 7.6 9 17.2 9h31c35.9 0 70.3 4.1 86.2 4.1 8.3 0 17.2-1.4 17.2-8.3 0-2.8-4.8-8.3-16.5-11-8.1-1.8-14.9-4-20.9-6.7h-90.3c-2 1.2-4.9 2.3-8.7 3.2zM114.6 535c-9 2.8-15.9 5.5-15.9 10.3 0 5.5 7.6 7.6 15.9 7.6 15.2 0 33.8-2.8 57.9-2.8 17.2 0 40 1.4 57.2 1.4 7.6 0 16.5-1.4 16.5-7.6 0-5.5-6.9-8.3-15.2-10.3-5.8-1.5-10.3-3-13.8-4.7H133c-4.5 2.2-10.5 4.1-18.4 6.1z" class="st1"/><path d="M211.2 1171.9c.1 29.8.5 59.7 1.2 89.5l56 9.9v5.2h85.3l-95.8-152.6-46.7 48z" class="st0"/><path d="M98.7 1295.5h169.6v-19H98.7v19zm255-19l11.9 19h91v-19H353.7z" class="st1"/><path d="M88.4 563.9h1263.2M88.4 1308.2h1263.2" class="st2"/><path d="M150 603.5c1.8.4 2.4.4 3.3.7.4 0 1.1.7 1.1 2.1.1 2.1 1.2 6.3 1.2 9.7 0 1.1-.5 1.9-1.1 1.9-.5 0-1.1-.7-1.6-2-.9-2.4-2-4.5-3.3-6.2-1.9-2.4-7-5.5-14.1-5.5-15 0-23.9 12.3-23.9 26.2 0 6.2 1.4 11.8 4 16 4.7 7.9 13.1 12.1 21.3 12.1 1.1 0 5.5-.5 7.9-2.1.7-.4 1.8-3.4 1.8-4.6 0-3.1-.1-8.1-.3-9.2-.6-2-1.3-3.7-7.9-4.1-1.3-.1-2.3-.8-2.3-1.5 0-.6 1-1.2 2.6-1.2s8 .4 10.6.4c2.1 0 5.1-.4 7.9-.4 1.4 0 2.4.4 2.4 1.1 0 .6-1 1.1-2 1.5-2.6.8-2.8 1.8-3.2 2.7-.4 1-.4 7.3-.4 10.9 0 1.4.8 2.3 1.2 2.6 1.6.9 1.5 1.1 1.5 1.6 0 .4-.4 1-1.3 1.2-1.6.4-4.6 1.1-8 2.1-3.8 1.1-9.2 1.6-12.1 1.6-9.9 0-18-3.2-23.4-8-4-3.9-9.1-11.1-9.1-21.6 0-7.8 2.7-15.8 9.9-22.2 5.5-4.9 14-7.9 22.5-7.9 6.5.1 11.1 1.3 14.8 2.1zm36.1 24.8c1.3 1.8 1.8 3.6 1.8 7.3 0 3.4-.4 14.5-.4 15.5 0 4 2.8 4.4 3.5 4.4.4 0 2.4-.6 3.3-1.3.3-.2.4 0 .5.3.3.3.3.8.3.9 0 1.7-4 5.5-7.9 5.5-2 0-4.6-1.1-5.6-4.4 0-.1-.4-.4-.5-.4-3.3 2.3-7 3.8-7.9 4-1 .4-3.1.5-3.5.5-3.1 0-6.1-3.8-6.1-8.2 0-1.6.7-3.3 1.7-4.5.9-1.1 2.2-1.6 3.5-2.2 1.3-.5 8.4-2.5 10.3-3.1 2-.6 2.6-1.1 2.6-1.6.1-.8.2-6.2.2-7.2 0-2.2-2.6-5.9-6.9-5.9-1.8 0-3 .5-3.6 1-.5.3-.8 1.8-.6 3.6 0 .3-.4.8-.5 1-.9.7-5.3 2.9-5.7 2.9-.5 0-1.1-.7-1.1-1.1 0-2.6 2.5-5 6.6-7.7 2.6-1.8 6.5-3.3 8.2-3.3 4.3-.2 6.5 2 7.8 4zm-5.8 26.2c.5-.4 1.1-2 1.1-2.2.2-2.1.2-5.1.2-6.9 0-.3-.4-.7-.7-.7-2.5 0-6.7 1.5-9.1 2.6-.9.6-1.8 1.2-1.8 3.3 0 3.9 3.7 5.3 5.5 5.3 1.4.1 3.1-.5 4.8-1.4zm18.4-27.3c2.9-1 5.6-2.3 6.5-2.8 1.1-.7 1.5-1.1 1.8-1.1.4 0 .8.8.8 1.1 0 1.6-.2 3.2-.2 4.8 0 .4.4.4.6.4 3.4-3.3 7.3-5.5 10-5.5 3.6 0 4.4 2.2 4.4 3 0 .2-.3.8-.5 1.2-1 1.4-3.1 3.8-3.6 4-.2.1-1-.1-1.2-.3-1-.9-3.1-1.9-4.8-1.9-1.5 0-3 .3-3.9 1.2-.6.7-.9 1.5-.9 1.9 0 1.8.4 17.7.5 19 .2 2.6.7 4.2 2.3 4.5 1.1.3 2.7.7 4 1.1 1.4.4 1.6 1.1 1.6 1.4 0 .4-.8.8-2.1.8-2.2 0-5.3-.4-10.4-.4-2.6 0-3.7.4-5.8.4-1 0-1.8-.4-1.8-1.1 0-.5 1.1-.9 1.8-1.1 3.4-1.1 3.7-2 3.8-7.3v-16.8c0-.9 0-2-1-2.6-2.1-1.7-3-2-3-2.4-.1-.2.1-1.1 1.1-1.5zm48.4 1.1c1.3 1.8 1.8 3.6 1.8 7.3 0 3.4-.4 14.5-.4 15.5 0 4 2.8 4.4 3.5 4.4.4 0 2.4-.6 3.3-1.3.3-.2.4 0 .5.3.3.3.3.8.3.9 0 1.7-4 5.5-7.9 5.5-2 0-4.6-1.1-5.6-4.4 0-.1-.4-.4-.5-.4-3.3 2.3-7 3.8-7.9 4-1 .4-3.1.5-3.5.5-3.1 0-6.1-3.8-6.1-8.2 0-1.6.7-3.3 1.7-4.5.9-1.1 2.2-1.6 3.5-2.2 1.3-.5 8.4-2.5 10.3-3.1 2-.6 2.6-1.1 2.6-1.6.1-.8.2-6.2.2-7.2 0-2.2-2.6-5.9-6.9-5.9-1.8 0-3 .5-3.6 1-.5.3-.8 1.8-.6 3.6 0 .3-.4.8-.5 1-.9.7-5.3 2.9-5.7 2.9-.5 0-1.1-.7-1.1-1.1 0-2.6 2.5-5 6.6-7.7 2.6-1.8 6.5-3.3 8.2-3.3 4.3-.2 6.5 2 7.8 4zm-5.8 26.2c.5-.4 1.1-2 1.1-2.2.2-2.1.2-5.1.2-6.9 0-.3-.4-.7-.7-.7-2.5 0-6.7 1.5-9.1 2.6-.9.6-1.8 1.2-1.8 3.3 0 3.9 3.7 5.3 5.5 5.3 1.4.1 3.1-.5 4.8-1.4zm19.1-27.2c1.8-.7 5.7-3 6.7-3.6.4-.3.5-.4.7-.4.4.1 1.1.7 1.1.9 0 1.2-.4 3.7-.4 4.6 0 .3.2.9.5.5 2.2-1.8 7.7-5.1 11.8-5.1 3.2 0 5.3.6 6.9 1.8 1.6 1.1 2.5 2.5 2.8 3.1.2.4.4.5.7.4 1.7-1.2 4-2.6 6.2-3.8 2-1 4-1.4 5.6-1.4 3.3 0 5.7 1.1 7.6 3 1.9 2.2 2.7 5.3 2.9 8.4.4 4.6.2 10.7.2 18 .1 1.6.6 3.3 3.8 4.1 1.1.4 1.7.7 1.7 1.2 0 .6-.8 1-2.5 1-1.8 0-4.1-.3-6.3-.3-2.6 0-4 .2-6 .2-1.7 0-2.2-.5-2.2-1.1 0-.5 1-.9 1.9-1.1 2.8-.9 3.2-1.9 3.2-5 0-2.1-.2-12-.2-14.9 0-3.1-.5-4.3-1.4-5.9-1.1-1.7-3-3.1-6.7-3.1-4 0-5.5 1.7-6.8 2.7-.3.3-.9 1.9-.9 2.6 0 .6-.2 17.2 0 19.2.3 2.8.7 3.7 3.7 4.4 1 .3 1.8.8 1.8 1.2 0 .6-.7 1.1-2.1 1.1-1.9 0-4.6-.2-6.6-.2-1.8 0-4.4.2-6.2.2-2 0-2.3-.7-2.3-1.1 0-.3.4-.9 1.8-1.2 3-.7 3.3-1.6 3.3-4.8v-17.2c0-2.6-.5-3.7-1.1-4.5-1.1-1.5-3.4-2.6-6.6-2.6-2.9 0-4.9 1.1-7 2.7-.6.5-.9 1.2-1 2.2-.2 2.3-.2 13.4-.2 20.1 0 1.7.4 3.1 3.2 4 1.7.5 2.4.9 2.4 1.6 0 .6-1.2.9-2.4.9-.4 0-3.6-.2-7-.2-2.9 0-4.7.3-6.6.3-1.3 0-2.2-.4-2.2-1 0-.4.5-1 2.1-1.3 2.8-.7 3.3-2 3.7-5.8.2-2.6.3-11.4.3-17.4 0-.4.2-1.6-.6-2.4-2.5-2.3-3.1-2.7-3.1-3.2 0-.7.8-1.3 1.8-1.8zm98.5 14.8c0 7.3-4.4 13-7.7 15.1-3.5 2.6-7 3.5-10.9 3.5-4 0-8.4-1.8-11.7-4.6-3.8-3.1-6.5-9.1-6.5-13.5 0-6.7 2.8-10.9 6.2-13.7 2.7-2.4 7.1-4.8 13-4.8 8.8 0 17.6 6.9 17.6 18zm-25-12.8c-2.3 2.1-4.3 6.7-4.3 11.3 0 2.9.4 5.6 1.1 7.8 2.2 6.6 7.2 9.8 11.4 9.8 1 0 2.9-.4 5.4-2.9 2.2-2.4 4-7.8 4-11.6 0-4.6-1.1-9.6-4.4-13.5-1.9-2.1-5.1-3.4-7.4-3.4-1.9 0-3.9.9-5.8 2.5zm32-2.7c1.5-.5 4.7-1.7 5.9-2.6.9-.5 1.7-1 2.1-1s.9 1 .9 1.3c0 1.5-.4 3.6-.4 4.4 0 .4.4.3.5.3 3.5-2.4 8.1-4.8 11.8-4.8 4.3 0 6.8 1.9 8 3.3 1.9 2.3 3.1 6.3 3.1 10.7 0 1.7.2 14.8.3 16 .2 1.3 1.1 2.5 3.3 3.1 1.7.4 2.2.9 2.2 1.5s-1.2 1-2.6 1c-2 0-4-.2-6.5-.2-2.2 0-4.9.2-6.1.2-.8 0-2-.4-2-1.1 0-.6 1-1.1 2-1.5 2.1-.8 2.6-1.5 2.7-4.4.2-2.9.3-13.6.3-16.1 0-3.2-1.6-5.7-2.6-6.5-1-.7-3.6-1.7-5.6-1.7-3.9 0-6.2 1.3-7.8 2.8-.3.3-.9 1.3-.9 2.1 0 1.1 0 20.1.1 21.1.1 1.2.4 1.9 3.3 2.7.9.3 1.6.8 1.6 1.3 0 .6-1 1.1-2.2 1.1-1.1 0-3.5-.1-5.4-.1-3.3 0-5.8.3-7.3.3-1.3 0-2.3-.4-2.3-1.1 0-.6.9-1.1 1.8-1.3 2.9-.9 3.4-1.8 3.7-4.9.3-2.6.4-10.3.4-19.3 0-1-.2-1.8-2.1-3.4-1.1-.8-1.7-1.2-1.7-1.5-.1-.6.9-1.4 1.5-1.7zm67.2-2.1c.4.1.6-.5.7-1 .4-2.4.2-15.8-.1-18-.1-.4-.1-1.5-4.1-3.6-.8-.4-.9-.6-.9-.8 0-.4 1-1.4 1.5-1.5 2-.3 6.7-1.6 9-2.5.5-.2.8-.3 1.1-.3.3 0 .8.6.7 1.4-.4 4.7-.8 7.8-.8 34.8 0 17 .2 18.4.2 20.1.2 3.3.9 3.6 1.4 3.6 1 0 3.9-.6 4.8-.7.4 0 .5.4.5.5 0 .6-1.1 2.1-1.5 2.2-1.7.3-6.2 1.1-7.9 1.8-2 .7-2.7.9-3.2.9-.4 0-1-.7-1-1.1 0-.8.2-2.4.2-3.6 0-.4-.4-.5-.5-.5-4 3.6-8.5 4.4-11.4 4.4-4.2 0-8.3-1.9-11-4.8-2.8-3.2-4.2-7.7-4.2-12.1 0-8.6 5-13.6 9.3-16.2 4-2.5 9.2-3.3 11.6-3.3 3.2-.1 4.6.1 5.6.3zm-15.7 5.6c-1.7 1.7-3.7 6.2-3.7 11.1 0 7 4.9 15.1 12.5 15.1 2.8 0 4.8-1 6.4-2.1.2-.2 1.3-3 1.4-5.8.1-5.6 0-10.5-.3-14.6-.1-.7-.9-2.3-1.9-3.3-2.5-2.5-5.8-3.4-7.6-3.4-2.8-.1-5.2 1.4-6.8 3zm-284.5 749.1c0-5.7-3.4-8.3-11.1-11.3l-3.3-1.3c-9-3.5-15.1-8.6-15.1-17.6 0-10.1 8.5-16.3 19.7-16.3 5.9 0 10.6 1.8 14.3 4.7l-.5 11.4h-5.3l-2.5-13.3 5.6 2.9v4.4c-4.3-4.2-7.6-5.7-12.2-5.7-6.9 0-12.1 3.4-12.1 10 0 5.5 3.6 8.8 10 11.3l3.4 1.3c11.6 4.5 16.1 9.6 16.1 17.9 0 10.4-8.7 16.7-20.8 16.7-6.6 0-13-2.1-17.1-4.7l.5-12.3h5.3l2.3 13.6-5.7-2.5v-4.2c5.5 4 8.4 5.7 14.4 5.7 8.6 0 14.1-3.8 14.1-10.7zm13-6.9c0-14.6 9.9-22.2 20.1-22.2 9.9 0 20.1 7.6 20.1 22.2s-10.1 21.8-20.1 21.8c-10.2.1-20.1-7.1-20.1-21.8zm32.2 0c0-11.8-4.5-18.2-12.1-18.2-7.8 0-12.1 6.4-12.1 18.2 0 11.8 4.3 17.9 12.1 17.9 7.6 0 12.1-6.1 12.1-17.9zm24.6 5.1c0 7.8 2.3 10.6 7.1 10.6 4.5 0 9.1-2.2 13.5-6.6h1.8v4.5h-4.5l3.1-1.3c-5 6.8-11 9.6-16.7 9.6-7 0-11.4-4.2-11.4-15.8l.3-23.2 1.8 1.7-8.2-1.8v-3.1l12.7-1.1.9.9-.4 12.3v13.3zm20.9 16.3l-1.2-10.3.3-28.3 1.8 1.7-8.2-1.8v-3.1l12.5-1.1.9.9-.3 12.3v26.3l-2.1-2.1 8.2 1.8v3.1l-11.9.6zm23.6-19.2v-4.1c0-4.8-.1-7.6-.3-11.1l-7-.8v-3.1l12-5.3 1.3.9 1.1 11v12.5c0 5.5.1 14.5.3 18.5H247c.1-3.9.2-13 .2-18.5zm-6.6 15.4l9.7-1.8h1.8l9.7 1.8v3.1h-21.1l-.1-3.1zm10.1-27.2h5l-2.2.6c2.8-8.2 8.2-13.1 13.4-13.1 2.6 0 5.2 1.2 6.2 3 0 4.1-1.6 6.4-5.1 6.4-2 0-3.7-.8-5.3-2.1l-2.4-2 4.3-.9c-5.5 2.8-8.6 7.2-10.6 14h-3.3v-5.9zm31.5 8.8c0 11.1 5.9 17.2 14.2 17.2 5.1 0 9.6-2.5 12.3-6.9l2.1 1.1c-2.4 7.3-8 11.4-16.3 11.4-12.1 0-19.6-8.4-19.6-21.9 0-13.8 9.7-22.1 20.2-22.1 7.8 0 14.3 4.8 15.5 11.4-.4 2.2-1.8 3.3-4 3.3-2.9 0-4-1.8-4.7-4l-2.2-7.7 4 3.3c-3-1.6-6-2.2-8.4-2.2-7.6-.3-13.1 5.8-13.1 17.1zm70.4-4.5c0 2-.3 3.8-.6 4.9h-32.5v-3.7h20.9c4.2 0 5.2-2 5.2-4.5 0-5-4.2-9.6-9.8-9.6-5.6 0-12.1 4.8-12.1 17.3 0 11.2 5.6 17.2 14.4 17.2 5.6 0 9.2-2.6 12.3-6.2l2 1.6c-3.2 6.2-8.8 10.2-16.8 10.2-11.8 0-19.4-8.2-19.4-21.6 0-13.5 9.2-22.4 20.1-22.4 9 0 16.3 6.1 16.3 16.8zm55.7 12.2c0-5.7-3.4-8.3-11.1-11.3l-3.3-1.3c-9-3.5-15.1-8.6-15.1-17.6 0-10.1 8.5-16.3 19.7-16.3 5.9 0 10.6 1.8 14.3 4.7l-.5 11.4H407l-2.5-13.3 5.6 2.9v4.4c-4.3-4.2-7.6-5.7-12.2-5.7-6.9 0-12.1 3.4-12.1 10 0 5.5 3.6 8.8 10 11.3l3.4 1.3c11.6 4.5 16.1 9.6 16.1 17.9 0 10.4-8.7 16.7-20.8 16.7-6.6 0-13-2.1-17.1-4.7l.5-12.3h5.3l2.3 13.6-5.7-2.5v-4.2c5.5 4 8.4 5.7 14.4 5.7 8.5 0 14.1-3.8 14.1-10.7zm49.2-12.2c0 2-.3 3.8-.6 4.9h-32.5v-3.7h20.9c4.2 0 5.2-2 5.2-4.5 0-5-4.2-9.6-9.8-9.6-5.6 0-12.1 4.8-12.1 17.3 0 11.2 5.6 17.2 14.4 17.2 5.6 0 9.2-2.6 12.3-6.2l2 1.6c-3.2 6.2-8.8 10.2-16.8 10.2-11.8 0-19.4-8.2-19.4-21.6 0-13.5 9.2-22.4 20.1-22.4 9.1 0 16.3 6.1 16.3 16.8zm13.1 7.5v-4.1c0-4.8-.1-7.6-.3-11.1l-7-.8v-3.1l12-5.3 1.3.9 1.1 11v12.5c0 5.5.1 14.5.3 18.5h-7.6c.1-3.9.2-13 .2-18.5zm-6.6 15.4l9.7-1.8h1.8l9.7 1.8v3.1H464v-3.1zm10.1-27.2h5l-2.2.6c2.8-8.2 8.2-13.1 13.4-13.1 2.6 0 5.2 1.2 6.2 3 0 4.1-1.6 6.4-5.1 6.4-2 0-3.7-.8-5.3-2.1l-2.4-2 4.3-.9c-5.5 2.8-8.6 7.2-10.6 14h-3.3v-5.9zm31 30.3c.2-4 .3-13 .3-18.5v-4.1c0-4.8-.1-7.6-.3-11.1l-7.2-.8v-3.1l13.3-5.3 1.3.9-.3 11.9v11.6c0 5.5.1 14.5.3 18.5h-7.4zm13.6-3.1v3.1h-20.2v-3.1l9.7-1.8h1.8l8.7 1.8zm-15.8-55.2c0-3.3 2.6-5.5 5.8-5.5s5.8 2.2 5.8 5.5-2.6 5.5-5.8 5.5-5.8-2.3-5.8-5.5zm27.3 21.2h-7.4v-3.8l9.9-1.3-2.6 1.3c.9-10.1 2.3-15.5 6.2-19.7 3.8-4.1 8.3-5.4 12.2-5.4 4.1 0 7.5 1.3 8.4 4.7-.2 2.2-2.1 3.9-5.3 3.9-2.2 0-4.1-.9-6.2-2.5l-4.3-3.3 7.4-1.8 2 2.6c-1-.5-2.4-1.1-3.4-1.1-2.6 0-5.6 1.9-7.3 4.9-2 3.5-3.3 9.4-2.6 20.2v19.8c0 6.2.1 12.3.3 18.5H530c.2-6.2.3-12.3.3-18.5v-18.5h-.1zm15.3 34v3.1H523v-3.1l9.9-1.8h1.8l10.8 1.8zm3.9-38.6v4.6h-15.7v-4.6h15.7z" class="st3"/><path d="M887.8 1241.1c.6 4.6 1.9 13.6 1.9 23.1v20.4h-10.8v-54.1h16l13.7 43.3c-.8-5-1.9-12.9-1.9-22.6v-20.7h10.8v54.1H902l-14.2-43.5zm77.3 22.6c0 13.9-7.4 22.2-20.1 22.2-12.7 0-20.1-8.1-20.1-22.1 0-13.2 7.4-22.1 20.1-22.1 12.8 0 20.1 8.7 20.1 22zm-27.5.1c0 9.2 2.3 13 7.4 13s7.4-3.8 7.4-13.1c0-9-2.3-12.9-7.4-12.9s-7.4 3.9-7.4 13zm59.9 22c-10.8 0-16-5.9-16-15.4v-18.8h-8.7v-8.5h8.7v-9l12.3-1.5v10.5h13.3l-1.2 8.5h-12.1v18.8c0 4.1 1.8 5.7 5.9 5.7 2.9 0 5.3-.8 7.3-1.9l4.1 7.9c-3.3 2.1-7.9 3.7-13.6 3.7zm101.1-13.2l5.5 7.8c-3.7 3.1-9 5.5-15.4 5.5-13.4 0-21.4-8.8-21.4-21.8s8.3-22.4 21.6-22.4c6.2 0 11 1.8 15.1 5.2l-5.3 7.4c-2.8-2-5.9-3.1-9.3-3.1-5.6 0-9.3 3.5-9.3 12.9 0 9.2 3.9 12 9.2 12 3.5 0 6.4-1.5 9.3-3.5zm28-1.2c0 4.1 1.6 5.3 4.2 5.3 2.5 0 5.3-1.7 7-4.5v-29.1h12.3v41.4h-10.8l-.5-4.8c-2.8 4.1-7.7 6.2-12.7 6.2-8 0-11.9-5-11.9-12.9v-29.9h12.3l.1 28.3zm72.5-7.7c0 12.8-5.9 22.2-15.9 22.2-4.1 0-7.3-1.5-9.8-4.3v19l-12.3 1.3v-58.7h10.9l.5 4.6c3.4-4.2 7.6-6 11.5-6 10.7-.1 15.1 8.4 15.1 21.9zm-25.7-8.1v17.5c1.7 2.5 3.5 3.7 6.1 3.7 4.4 0 6.9-3.6 6.9-12.9 0-10.3-2.3-13-6.2-13-2.9-.1-5.1 1.7-6.8 4.7zm72.5 8.1c0 12.8-5.9 22.2-15.9 22.2-4.1 0-7.3-1.5-9.8-4.3v19l-12.3 1.3v-58.7h10.9l.5 4.6c3.4-4.2 7.6-6 11.5-6 10.7-.1 15.1 8.4 15.1 21.9zm-25.7-8.1v17.5c1.7 2.5 3.5 3.7 6.1 3.7 4.4 0 6.9-3.6 6.9-12.9 0-10.3-2.3-13-6.2-13-2.9-.1-5.1 1.7-6.8 4.7zm55.1 21.3c3.7 0 7.3-1.3 10.6-3.4l4.9 6.7c-3.9 3.4-9.5 5.7-16.5 5.7-14.2 0-21.5-9.1-21.5-22 0-12.2 7.2-22.2 20.2-22.2 11.9 0 19.4 8 19.4 21.3 0 1.4-.1 3.2-.2 4.4h-26.8c.8 6.8 4.6 9.5 9.9 9.5zm-10.1-17h15.2c-.1-6-2.2-10-7.4-10-4.4 0-7.3 3.2-7.8 10zm72.1-33.3v57.9h-10.9l-.6-4.5c-2.3 3.2-6 5.9-11.5 5.9-10.3 0-15.2-8.8-15.2-22.2 0-12.8 6.3-22 16.5-22 3.7 0 6.9 1.3 9.4 3.9v-20.3l12.3 1.3zm-25.5 37.2c0 10.2 2.7 13 6.4 13 2.8 0 5-1.8 6.8-4.8v-17.9c-1.7-2.2-3.5-3.4-6.1-3.4-4.3 0-7.1 3.8-7.1 13.1zm-201.7-776.4l-6.2 7.6c-3-2.4-6.6-4-10.8-4-6.9 0-12.3 5.5-12.3 18.8 0 13 5.1 18.6 12.6 18.6 5.4 0 8.7-2.4 11.7-4.8l5.8 7.4c-4 4.1-9.8 7.3-18.2 7.3-14.7 0-25.1-9.9-25.1-28.5 0-18.1 11-28.3 25.3-28.3 7.7 0 12.7 2.2 17.2 5.9zm19.3 36.5c0 4.1 1.6 5.3 4.2 5.3 2.5 0 5.3-1.7 7-4.5v-29.1h12.3V537h-10.8l-.5-4.8c-2.8 4.1-7.7 6.2-12.7 6.2-8 0-11.9-5-11.9-12.9v-29.9h12.3l.1 28.3zm72.6-7.8c0 12.8-5.9 22.2-15.9 22.2-4.1 0-7.3-1.5-9.8-4.3v19l-12.3 1.3v-58.7h10.9l.5 4.6c3.4-4.2 7.6-6 11.5-6 10.7-.1 15.1 8.4 15.1 21.9zm-25.8-8v17.5c1.7 2.5 3.5 3.7 6.1 3.7 4.4 0 6.9-3.6 6.9-12.9 0-10.3-2.3-13-6.2-13-2.9-.1-5 1.7-6.8 4.7zm72.6 8c0 12.8-5.9 22.2-15.9 22.2-4.1 0-7.3-1.5-9.8-4.3v19l-12.3 1.3v-58.7h10.9l.5 4.6c3.4-4.2 7.6-6 11.5-6 10.7-.1 15.1 8.4 15.1 21.9zm-25.8-8v17.5c1.7 2.5 3.5 3.7 6.1 3.7 4.4 0 6.9-3.6 6.9-12.9 0-10.3-2.3-13-6.2-13-2.9-.1-5 1.7-6.8 4.7zm55.2 21.2c3.7 0 7.3-1.3 10.6-3.4l4.9 6.7c-3.9 3.4-9.5 5.7-16.5 5.7-14.2 0-21.5-9.1-21.5-22 0-12.2 7.2-22.2 20.2-22.2 11.9 0 19.4 8 19.4 21.3 0 1.4-.1 3.2-.2 4.4h-26.8c.7 6.9 4.6 9.5 9.9 9.5zm-10.2-16.9h15.2c-.1-6-2.2-10-7.4-10-4.3 0-7.2 3.1-7.8 10zm72.2-33.3V537h-10.9l-.6-4.5c-2.3 3.2-6 5.9-11.5 5.9-10.3 0-15.2-8.8-15.2-22.2 0-12.8 6.3-22 16.5-22 3.7 0 6.9 1.3 9.4 3.9v-20.3l12.3 1.3zm-25.5 37.1c0 10.2 2.7 13 6.4 13 2.8 0 5-1.8 6.8-4.8v-17.9c-1.7-2.2-3.5-3.4-6.1-3.4-4.3.1-7.1 3.8-7.1 13.1z" class="st4"/><path d="M641.6 598.4l6 .3c2 .1 3.9.1 5.8.1 1.6 0 3.4 0 5.4-.1s4.1-.1 6.3-.3v2.9h-.7c-1.9 0-3.3.2-4.2.6s-1.6 1.1-2 2.1c-.2.7-.4 1.7-.5 3.2s-.2 3.9-.2 7.2v30c0 3.4.1 5.8.2 7.1s.4 2.4.8 3.1c.4.7 1 1.2 2 1.5s2.3.5 4.1.5h.9v3c-2.5-.1-4.7-.2-6.8-.3s-3.8-.1-5.2-.1c-1.7 0-3.5 0-5.6.1s-4.3.1-6.6.3v-3h.9c1.8 0 3.1-.2 4.1-.5s1.6-.8 2-1.5c.4-.8.7-2 .8-3.8.2-1.8.2-5 .2-9.6v-23.6c0-4.5-.1-7.7-.2-9.6-.1-1.9-.3-3.2-.6-4-.3-1-1-1.7-1.9-2.1s-2.3-.6-4.2-.6h-.8v-2.9zm51.3 17.9c6 0 11 2 15 6.1s6 9.1 6 15.1c0 6.6-2.1 12.1-6.3 16.7s-9.3 6.8-15.5 6.8-11.2-2.1-15.1-6.2-5.9-9.3-5.9-15.6 2.1-11.7 6.4-16.1 9.5-6.8 15.4-6.8zm-1.1 4.5c-3.8 0-6.9 1.4-9.3 4.2s-3.5 6.6-3.5 11.3c0 6 1.3 10.9 3.9 14.7 2.6 3.8 6 5.6 10.1 5.6 4 0 7.2-1.5 9.6-4.5 2.4-3 3.6-7 3.6-12.2 0-5.6-1.4-10.2-4.1-13.8-2.6-3.5-6.1-5.3-10.3-5.3zm25.4-3.3c1.5.1 3 .2 4.3.3s2.5.1 3.6.1c1.4 0 2.9 0 4.4-.1s3.1-.1 4.6-.3v2.9h-.6c-1.6 0-2.7.2-3.3.7s-.9 1.2-.9 2.4c0 .4.1.9.2 1.5s.3 1.3.6 2l8.3 23.8 11.3-24-.8-2.4c-.6-1.6-1.2-2.7-1.8-3.2s-1.7-.7-3.1-.7h-1.2v-2.9c1.7.1 3.2.2 4.6.3 1.4.1 2.7.1 3.8.1 1.5 0 3.1 0 4.6-.1s3.2-.1 4.8-.3v2.9h-1.2c-1.2 0-2 .2-2.6.6s-.8 1-.8 1.9c0 .5.1 1.1.2 1.8.2.7.4 1.4.7 2.3l8 23.4 1.4-3.5c5.6-14.4 8.4-22.3 8.4-23.7 0-1.1-.3-1.8-.9-2.2s-1.8-.6-3.5-.6h-.8v-2.9l3.9.3c1.3.1 2.5.1 3.8.1 1 0 2.2 0 3.4-.1s2.5-.1 3.9-.3v2.9c-.9 0-1.7.1-2.3.4-.6.2-1.1.6-1.4 1.1-.6.9-1.9 3.8-3.9 8.5s-6.1 14.9-12.4 30.5h-3.1l-10.1-28.8c-3.4 6.5-6.1 12-8.2 16.6s-3.8 8.6-5.1 12.2h-3c-2.3-6.3-5-14.1-8.2-23.2s-5.1-14.3-5.8-15.5c-.4-.6-.8-1.1-1.3-1.4-.5-.3-1.1-.4-1.8-.4h-.6v-3h-.1zm109 36l1.2 2.7c-2.1 1.5-4.1 2.7-5.9 3.6s-3.2 1.3-4.3 1.3c-1.8 0-3.2-.5-4.1-1.6s-1.4-2.7-1.5-4.9c-3.1 2.1-5.7 3.6-7.8 4.5s-3.9 1.4-5.5 1.4c-2.9 0-5.3-1.1-7.3-3.3-1.9-2.2-2.9-4.8-2.9-8 0-5.4 5.8-9.4 17.3-12.1 2.7-.6 4.8-1.1 6.4-1.5v-2.1c.1-1.9.1-3.1.1-3.7 0-3-.6-5.2-1.8-6.6s-3.1-2.1-5.6-2.1-4.4.5-5.8 1.4-2.1 2.1-2.1 3.7v1.1c0 .9-.4 1.6-1.3 2.2-.9.6-1.9.9-3.1.9-1 0-1.8-.2-2.3-.5s-.7-.9-.7-1.6c0-2.3 1.9-4.8 5.8-7.7 3.9-2.8 7.9-4.2 12-4.2 4 0 7 1.1 9.1 3.3s3.1 5.4 3.1 9.6c0 2.3-.1 5.8-.4 10.6-.3 4.8-.4 8.4-.4 10.8 0 1.9.2 3.1.6 3.8.4.7 1.2 1 2.2 1 .5 0 1.1-.1 1.8-.4.7-.5 1.7-1 3.2-1.6zm-14.7-14.6c-.5.1-1.4.4-2.4.6-9.3 2.5-14 5.6-14 9 0 1.9.6 3.4 1.8 4.6 1.2 1.2 2.8 1.8 4.8 1.8 1.2 0 2.6-.3 4.2-.9 1.6-.6 3.4-1.6 5.5-3l.1-12.1zm31.9-23.1l-.5 7.2c3.2-2.3 6.1-4.1 8.4-5.1 2.4-1.1 4.6-1.6 6.6-1.6 4.2 0 7.4 1.2 9.5 3.6 2.1 2.4 3.2 5.9 3.2 10.7v18.5c0 3.2.3 5.3.9 6.3.6 1 1.7 1.5 3.3 1.5h1v3c-2.6-.2-4.5-.3-5.8-.3-1.3-.1-2.4-.1-3.3-.1-1.4 0-2.9 0-4.5.1s-3.2.2-4.9.3v-3h.6c3.7 0 5.5-3.4 5.6-10.1v-.9l.1-9.2V635c0-5.3-.6-8.8-1.8-10.5s-3.4-2.6-6.4-2.6c-1.7 0-3.5.4-5.5 1.2s-4.2 2-6.4 3.5c-.1 3-.2 5.8-.3 8.4-.1 2.6-.1 5-.1 7.2v5.9c0 3.8.3 6.2.8 7.2.6 1 1.7 1.5 3.3 1.5h1.1v3c-2.5-.2-4.4-.3-5.8-.3-1.4-.1-2.6-.1-3.5-.1s-2 0-3.4.1-3.4.2-5.9.3v-3h.8c3.6 0 5.4-3.5 5.4-10.4V644l.1-10.5v-4.3c0-2.8-.2-4.6-.6-5.5-.4-.9-1.2-1.3-2.4-1.3-.2 0-.5 0-.9.1s-.7.1-1.1.3l-.5-2.7c2.1-.4 4.3-.9 6.5-1.6s4.1-1.7 6.4-2.7z" class="st3"/><path d="M209.1 67.7c.7-2.8-3.4-9-4.8-9-3.4 0-6.9 2.1-13.8 6.2-18.6 11.7-53.1 19.3-60 21.4-5.5 2.1-9 6.2-9 9 0 1.8 2.4 4.5 6.5 7.8l79.8-21.3c.4-7.1.9-12 1.3-14.1z" class="st1"/><path d="M313.2 329.5c31-21.4 42.8-28.3 80-36.5 2-.5 7.9-3.7 11.3-8.4L265 294.1c.3 1.9 2.3 3.7 6.1 4.4 31 4.8 29 11.7 26.2 15.2-12.4 17.9-50.3 53.1-73.1 74.5-4.8 4.1-10.3 9-13.8 9-3.4 0-4.1-2.1-5.5-6.2-2.1-6.2-2.1-42.8-2.1-69.6 0-51.6 2.1-192.9 4.9-239.7L128 103.1c.8.6 1.6 1.3 2.5 1.9 19.3 11.7 20.7 15.9 20.7 17.9 2.1 17.9 4.1 56.5 4.1 145.5 0 91.7-2.1 223.4-4.8 236.5-2.5 12.3-5.6 19-17.3 24.3h84.2c-7.6-3.7-10.3-8.6-11.7-18.1-4.1-20.7-4.1-86.9-.7-95.8 0-1.4.7-5.5 3.4-5.5 3.4 0 10.3 7.6 17.2 15.9 34.5 40 70.3 77.9 77.9 87.6 5.6 7.1 5.9 12.4-.1 16h90.3c-10.3-4.7-18.2-10.7-26-18.1-21.4-21.7-87.6-93.4-111.1-122.4-.7-1.4-.7-4.1.7-6.9 2.8-4.8 35.2-37.2 55.9-52.4z"/><path d="M407 277.8c0-2.1-2.1-4.8-4.8-4.8-23.4 0-47.6 8.3-93.1 8.3h-32.4c-4.8 0-11.7 9.7-11.7 12.4 0 .1 0 .3.1.4l139.5-9.5c1.4-2 2.4-4.3 2.4-6.8zM750 29.7c-17.7 6.5-35.5 12.2-53.2 17s-35.8 9-54.2 12.6l3 13.2 104-25.5c.2-5.7.3-11.5.4-17.3z" class="st1"/><path d="M752.8 519.9c-5.5-4.3-8.2-15.5-8.2-33.7V364.6c0-22 .5-63.7 1.5-125.2.9-56.9 2.1-121.1 3.5-192.4l-104 25.5 2 8.7c.7 0 1.9-.2 3.7-.7 7.2-1.3 12.3-2 15.5-2 10.5 0 17.8 4.7 21.7 14.1s5.9 27.9 5.9 55.6c0 9.9-.3 27.4-.8 52.7-.6 25.3-1 45.2-1.2 59.8l-.7 65.3c0 4.5-.1 11.1-.3 19.9-.7 94.5-2.7 147.5-6.1 158.9-2.7 8.1-7 13.8-12.8 17-5.8 3.3-14.6 4.9-26.3 4.9h-5v2.4h147.5v-2.4c-18.5-.3-30.4-2.6-35.9-6.8z"/><path d="M967.1 219.9c-12.8.7-25 1.2-36.7 1.5s-22.6.5-32.7.5c-7.6 0-16.8-.2-27.4-.5-10.7-.3-23.1-.8-37.2-1.5v9.9h134.1l-.1-9.9z" class="st1"/><path d="M984.5 527.3c-17.5 0-35.8-11.1-54.9-33.3-4.3-4.9-7.5-8.6-9.8-11.1L800.4 354.2c8.3-7.4 20-18 35-31.6 58.4-53.6 99.5-80.5 123.6-80.5 2.2 0 4 .1 5.2.2 1.2.1 2.3.2 3.2.2l-.2-12.7H833.1v13h4.7c7.6 0 13.6.8 17.8 2.4 4.3 1.6 6.4 3.7 6.4 6.4 0 8.1-22.7 32.8-68 74.1-20.7 18.6-37.1 33.8-49.5 45.5L858.3 499c1.8 2 4.5 4.9 8.1 8.8 7.2 7.9 12.4 15 15.8 21.2h112.1v-2.1c-1.1 0-2.4.1-3.9.2s-3.4.2-5.9.2z"/><path d="M278.6 968.7h160.1v12.5H278.6v-12.5z" class="st1"/><path d="M296.7 1084.1l77.2-79.3 64.8-9.9v-13.7H278.6v13.7l50.9 12.9L211 1131.6v-243l2.8-97.9-9.7-5.5-105.5 31v24.1l57.2 6.9v303.4c0 36.9-.4 73.8-1.2 110.8l-56 9.9v5.2h169.6v-5.2l-56-9.9c-.7-29.8-1-59.7-1.2-89.5l46.7-48 95.8 152.6h102.9v-5.2h.2l-45.4-8.2-114.5-179z"/></svg>