<svg xmlns="http://www.w3.org/2000/svg" id="Layer_1" viewBox="0 0 1210 1132" width="1210" height="1132"><style>.st0{fill:#2997ff}.st1{fill:none;stroke:#2997ff;stroke-width:2.6667;stroke-miterlimit:10}.st2{fill:#505050}.st3{fill:#b3b3b3}</style><path d="M609.1 14.8h15.3v199.3h-15.3V14.8z" class="st0"/><path d="M581.1 214.2h43.3M581.1 14.8h43.3" class="st1"/><path d="M299.6 158.1c0 .8-.2 1.6-1.4 1.6-1.8 0-7-.6-15.6-.6-10 0-13.4.6-15.4.6-1.6 0-1.8-.8-1.8-1.8v-3.6c0-1 .2-1.8 1.6-1.8h5.2c4.4 0 6.6-.8 8.2-2.4 3.8-3.4 22.4-28.2 25.8-32-7.6-11.8-19-28.2-23.6-33.2-1.6-2-4.4-2.8-7.2-2.8h-5.6c-1.2 0-1.4-.8-1.4-1.4v-4c0-1.4.2-1.8 1.6-1.8 1.6 0 7 .6 16.4.6s16.8-.6 18.6-.6c1 0 1.2.6 1.2 1.8v3.8c0 1.2-.4 1.6-1.2 1.6h-1.8c-3.2 0-3.2 3.2-.8 6.8l12.4 19.6 15.2-20c1.8-2.4 1.2-6.4-2.2-6.4h-2.4c-1 0-1.2-.6-1.2-1.4v-4.2c0-1.2.2-1.6 1-1.6 2.4 0 5.8.6 17.2.6 8 0 10-.6 11.4-.6 1.6 0 1.8.8 1.8 2v3.6c0 1.2-.2 1.6-1.6 1.6h-3.2c-3.8 0-5.8.8-7.8 2.4-3.4 2.8-20.4 23.8-24.6 29 8 11.8 16 24.2 24.8 34.8 2.4 2.8 5.2 4.2 8.8 4.2h3.2c.8 0 1 .4 1 1.6v4c0 .8-.2 1.6-1.4 1.6-1.8 0-5.6-.6-15.4-.6-11.4 0-17.4.6-19.6.6-1.4 0-1.6-.8-1.6-1.8v-3.4c0-1.4.2-2 1.6-2h3c2.2 0 3.4-3 1.2-6.4l-14.4-23c-2.8 4-16 21.8-17.4 25-1 2.2-.2 4.4 2.2 4.4h4.2c.8 0 1 .8 1 1.6v4zm90.8-58.6c0 10.4 0 40.6.2 46.8.2 3.4 1 6.2 5.2 6.2h9c1.8 0 2.2.6 2.2 1.8v3.4c0 1.2-.4 2-1.2 2-1.4 0-10.2-.6-22.6-.6-12.8 0-20.8.6-22.6.6-1 0-1.4-.8-1.4-2v-3.4c0-1.4.4-1.8 2.6-1.8h9.6c2.2 0 4.2-1.4 4.4-5 .2-6.2.2-40.6.2-52.2V82.7c0-14.2-.2-32.4-.6-37.6-.4-6.8-3.6-10-10-12l-4-1.4c-1-.4-1.2-.6-1.2-1v-1.6c0-.6.6-1 1.8-1.4 7-3.2 16-6.8 23.4-11.6 1.8-1.2 3-1.6 4.2-1.6 1.4 0 1.8 1 1.6 3.6-.2 11-.8 52.6-.8 63.6v17.8zm35.4 3c0-4.8-1.4-7.6-7.2-10.8l-4.6-2.6c-1.4-.6-1.4-1.2-1.4-1.8v-1.6c0-.6.4-1 1.4-1.4l19.2-9.6c1.6-.8 3.2-1.6 4.6-1.6 1 0 1.4 1 1.4 4l.8 9.6h.6c5.4-7 15.8-13.4 29.2-13.4 10.2 0 17 4.4 22.8 9.8 7.6 7.6 10.8 15.8 10.8 31.2 0 26.2-18.2 47.2-43.2 47.2-5.4 0-13.8-.8-20-3.4v42.2c0 5.6 1.4 6.6 4.4 6.6h8.8c1.6 0 1.8.8 1.8 2v3.4c0 1.2-.4 1.8-1.8 1.8-1 0-7.8-.6-20.6-.6-11.6 0-18.6.6-20.2.6-1.4 0-1.8-.6-1.8-1.8v-3.6c0-1 .4-1.8 2.4-1.8h7.8c3.4 0 3.8-2 4.2-5 .6-4.4.6-15.2.6-34.8v-64.6zm14.4 36.6c0 4.4.4 8 4.2 10.6 5.6 4 11.8 5.4 20 5.4 11.4 0 23.2-8.6 23.2-33.4 0-28-12.6-39.2-26-39.2-8.4 0-16.6 4.8-21.4 12.8v43.8z" class="st2"/><path d="M609.1 352.8h15.3v299.3h-15.3V352.8z" class="st0"/><path d="M581.1 652.2h43.3m-43.3-299.4h43.3" class="st1"/><path d="M194 568.6c0 1.2-.3 2.4-2.1 2.4-2.7 0-10.5-.9-23.4-.9-15 0-20.1.9-23.1.9-2.4 0-2.7-1.2-2.7-2.7v-5.4c0-1.5.3-2.7 2.4-2.7h7.8c6.6 0 9.9-1.2 12.3-3.6 5.7-5.1 33.6-42.3 38.7-48-11.4-17.7-28.5-42.3-35.4-49.8-2.4-3-6.6-4.2-10.8-4.2h-8.4c-1.8 0-2.1-1.2-2.1-2.1v-6c0-2.1.3-2.7 2.4-2.7 2.4 0 10.5.9 24.6.9s25.2-.9 27.9-.9c1.5 0 1.8.9 1.8 2.7v5.7c0 1.8-.6 2.4-1.8 2.4h-2.7c-4.8 0-4.8 4.8-1.2 10.2l18.6 29.4 22.8-30c2.7-3.6 1.8-9.6-3.3-9.6h-3.6c-1.5 0-1.8-.9-1.8-2.1v-6.3c0-1.8.3-2.4 1.5-2.4 3.6 0 8.7.9 25.8.9 12 0 15-.9 17.1-.9 2.4 0 2.7 1.2 2.7 3v5.4c0 1.8-.3 2.4-2.4 2.4h-4.8c-5.7 0-8.7 1.2-11.7 3.6-5.1 4.2-30.6 35.7-36.9 43.5 12 17.7 24 36.3 37.2 52.2 3.6 4.2 7.8 6.3 13.2 6.3h4.8c1.2 0 1.5.6 1.5 2.4v6c0 1.2-.3 2.4-2.1 2.4-2.7 0-8.4-.9-23.1-.9-17.1 0-26.1.9-29.4.9-2.1 0-2.4-1.2-2.4-2.7v-5.1c0-2.1.3-3 2.4-3h4.5c3.3 0 5.1-4.5 1.8-9.6L209 516.1c-4.2 6-24 32.7-26.1 37.5-1.5 3.3-.3 6.6 3.3 6.6h6.3c1.2 0 1.5 1.2 1.5 2.4v6zm136.2-87.9c0 15.6 0 60.9.3 70.2.3 5.1 1.5 9.3 7.8 9.3h13.5c2.7 0 3.3.9 3.3 2.7v5.1c0 1.8-.6 3-1.8 3-2.1 0-15.3-.9-33.9-.9-19.2 0-31.2.9-33.9.9-1.5 0-2.1-1.2-2.1-3v-5.1c0-2.1.6-2.7 3.9-2.7h14.4c3.3 0 6.3-2.1 6.6-7.5.3-9.3.3-60.9.3-78.3v-18.9c0-21.3-.3-48.6-.9-56.4-.6-10.2-5.4-15-15-18l-6-2.1c-1.5-.6-1.8-.9-1.8-1.5v-2.4c0-.9.9-1.5 2.7-2.1 10.5-4.8 24-10.2 35.1-17.4 2.7-1.8 4.5-2.4 6.3-2.4 2.1 0 2.7 1.5 2.4 5.4-.3 16.5-1.2 78.9-1.2 95.4v26.7zm53.1 4.5c0-7.2-2.1-11.4-10.8-16.2l-6.9-3.9c-2.1-.9-2.1-1.8-2.1-2.7V460c0-.9.6-1.5 2.1-2.1l28.8-14.4c2.4-1.2 4.8-2.4 6.9-2.4 1.5 0 2.1 1.5 2.1 6l1.2 14.4h.9c8.1-10.5 23.7-20.1 43.8-20.1 15.3 0 25.5 6.6 34.2 14.7 11.4 11.4 16.2 23.7 16.2 46.8 0 39.3-27.3 70.8-64.8 70.8-8.1 0-20.7-1.2-30-5.1v63.3c0 8.4 2.1 9.9 6.6 9.9h13.2c2.4 0 2.7 1.2 2.7 3v5.1c0 1.8-.6 2.7-2.7 2.7-1.5 0-11.7-.9-30.9-.9-17.4 0-27.9.9-30.3.9-2.1 0-2.7-.9-2.7-2.7v-5.4c0-1.5.6-2.7 3.6-2.7h11.7c5.1 0 5.7-3 6.3-7.5.9-6.6.9-22.8.9-52.2v-96.9zm21.6 54.9c0 6.6.6 12 6.3 15.9 8.4 6 17.7 8.1 30 8.1 17.1 0 34.8-12.9 34.8-50.1 0-42-18.9-58.8-39-58.8-12.6 0-24.9 7.2-32.1 19.2v65.7z" class="st2"/><path d="M609.1 790.8h15.3v299.3h-15.3V790.8z" class="st0"/><path d="M581.1 1090.2h43.3m-43.3-299.4h43.3" class="st1"/><path d="M88.4 1006.1c0 1.6-.4 3.2-2.8 3.2-3.6 0-14-1.2-31.2-1.2-20 0-26.8 1.2-30.8 1.2-3.2 0-3.6-1.6-3.6-3.6v-7.2c0-2 .4-3.6 3.2-3.6h10.4c8.8 0 13.2-1.6 16.4-4.8 7.6-6.8 44.8-56.4 51.6-64-15.2-23.6-38-56.4-47.2-66.4-3.2-4-8.8-5.6-14.4-5.6H28.8c-2.4 0-2.8-1.6-2.8-2.8v-8c0-2.8.4-3.6 3.2-3.6 3.2 0 14 1.2 32.8 1.2s33.6-1.2 37.2-1.2c2 0 2.4 1.2 2.4 3.6v7.6c0 2.4-.8 3.2-2.4 3.2h-3.6c-6.4 0-6.4 6.4-1.6 13.6l24.8 39.2 30.4-40c3.6-4.8 2.4-12.8-4.4-12.8H140c-2 0-2.4-1.2-2.4-2.8v-8.4c0-2.4.4-3.2 2-3.2 4.8 0 11.6 1.2 34.4 1.2 16 0 20-1.2 22.8-1.2 3.2 0 3.6 1.6 3.6 4v7.2c0 2.4-.4 3.2-3.2 3.2h-6.4c-7.6 0-11.6 1.6-15.6 4.8-6.8 5.6-40.8 47.6-49.2 58 16 23.6 32 48.4 49.6 69.6 4.8 5.6 10.4 8.4 17.6 8.4h6.4c1.6 0 2 .8 2 3.2v8c0 1.6-.4 3.2-2.8 3.2-3.6 0-11.2-1.2-30.8-1.2-22.8 0-34.8 1.2-39.2 1.2-2.8 0-3.2-1.6-3.2-3.6v-6.8c0-2.8.4-4 3.2-4h6c4.4 0 6.8-6 2.4-12.8l-28.8-46c-5.6 8-32 43.6-34.8 50-2 4.4-.4 8.8 4.4 8.8h8.4c1.6 0 2 1.6 2 3.2v8zM270 888.9c0 20.8 0 81.2.4 93.6.4 6.8 2 12.4 10.4 12.4h18c3.6 0 4.4 1.2 4.4 3.6v6.8c0 2.4-.8 4-2.4 4-2.8 0-20.4-1.2-45.2-1.2-25.6 0-41.6 1.2-45.2 1.2-2 0-2.8-1.6-2.8-4v-6.8c0-2.8.8-3.6 5.2-3.6H232c4.4 0 8.4-2.8 8.8-10 .4-12.4.4-81.2.4-104.4v-25.2c0-28.4-.4-64.8-1.2-75.2-.8-13.6-7.2-20-20-24l-8-2.8c-2-.8-2.4-1.2-2.4-2v-3.2c0-1.2 1.2-2 3.6-2.8 14-6.4 32-13.6 46.8-23.2 3.6-2.4 6-3.2 8.4-3.2 2.8 0 3.6 2 3.2 7.2-.4 22-1.6 105.2-1.6 127.2v35.6zm70.8 6c0-9.6-2.8-15.2-14.4-21.6l-9.2-5.2c-2.8-1.2-2.8-2.4-2.8-3.6v-3.2c0-1.2.8-2 2.8-2.8l38.4-19.2c3.2-1.6 6.4-3.2 9.2-3.2 2 0 2.8 2 2.8 8l1.6 19.2h1.2c10.8-14 31.6-26.8 58.4-26.8 20.4 0 34 8.8 45.6 19.6 15.2 15.2 21.6 31.6 21.6 62.4 0 52.4-36.4 94.4-86.4 94.4-10.8 0-27.6-1.6-40-6.8v84.4c0 11.2 2.8 13.2 8.8 13.2H396c3.2 0 3.6 1.6 3.6 4v6.8c0 2.4-.8 3.6-3.6 3.6-2 0-15.6-1.2-41.2-1.2-23.2 0-37.2 1.2-40.4 1.2-2.8 0-3.6-1.2-3.6-3.6v-7.2c0-2 .8-3.6 4.8-3.6h15.6c6.8 0 7.6-4 8.4-10 1.2-8.8 1.2-30.4 1.2-69.6V894.9zm28.8 73.2c0 8.8.8 16 8.4 21.2 11.2 8 23.6 10.8 40 10.8 22.8 0 46.4-17.2 46.4-66.8 0-56-25.2-78.4-52-78.4-16.8 0-33.2 9.6-42.8 25.6v87.6z" class="st2"/><path d="M706.8 125.8c0 22.2-9.8 30.8-31.4 35.9l-2.2-7.3c13.4-3.5 21.1-8.7 22.6-19.4-2.6 3.3-6.3 5.6-11.5 5.6-8.3 0-15.1-6.6-15.1-17.5 0-11.3 8.3-18.2 18.7-18.2 12.5 0 18.9 8.5 18.9 20.9zm-10.5 1.9c.2-11.1-2.4-15.2-8.4-15.2-5.2 0-8.5 3.6-8.5 10.5 0 7.4 3.4 10.2 7.7 10.2 3.7 0 6.8-2 9.2-5.5zm57.2 10.7c0 13-6 22.5-16.7 22.5-4.3 0-8-1.5-10.6-4.6V176l-10.2 1.1v-59.8h9l.6 5.2c3.4-4.4 7.8-6.4 12.4-6.4 10.9.1 15.5 8.8 15.5 22.3zm-10.7.1c0-10.7-2.9-14.6-8-14.6-3.6 0-6.6 2.5-8.6 5.8v19c2 3 4.6 4.4 7.8 4.4 5.5 0 8.8-4.4 8.8-14.6zm44.6 19.2c-3 2.2-6.9 3.2-10.6 3.2-8.3-.1-12.7-4.8-12.7-13.8v-22.3h-6.6v-7.4h6.6V108l10.2-1.2v10.6h9.8l-1 7.4h-8.8v22.1c0 4.2 1.4 5.8 4.5 5.8 1.6 0 3.2-.5 5-1.5l3.6 6.5zm24-36.6h32.1v8.1h-32.1v-8.1zm0 16.1h32.1v8.2h-32.1v-8.2zm84.8 22.5h-10.1v-43.5l-12 7.3-4.5-6.9 17.5-10.7h9v53.8zm48.3-18h-26.6c.8 8.6 4.8 11.4 10.4 11.4 3.8 0 6.9-1.2 10.6-3.8l4.2 5.8c-4.2 3.4-9.3 5.7-15.7 5.7-13.1 0-20.2-8.7-20.2-22.1 0-12.9 6.8-22.6 18.8-22.6 11.8 0 18.6 8 18.6 21.4.1 1.4 0 3.1-.1 4.2zm-9.9-7.1c0-7-2.5-11.1-8.2-11.1-4.8 0-7.8 3.2-8.4 11.6h16.6v-.5zm75.2-5.5v30.6h-10.2v-29c0-5.3-2.1-6.8-4.6-6.8-3.5 0-5.7 2.5-8 6.4v29.4h-10.2v-29c0-5.3-2.2-6.8-4.6-6.8-3.6 0-5.8 2.5-8.1 6.4v29.4h-10.2v-42.3h8.9l.8 5.5c3-4.2 6.9-6.7 12.2-6.7 5 0 8.6 2.6 10.2 7.1 3.2-4.4 7.1-7.1 12.7-7.1 6.7 0 11.1 4.9 11.1 12.9zM694.8 571h-10.1v-43.5l-12 7.3-4.5-6.9 17.5-10.7h9V571zm23.7-5.3c0 3.5-2.9 6.5-6.6 6.5-3.6 0-6.4-3-6.4-6.5 0-3.6 2.8-6.5 6.4-6.5 3.7 0 6.6 2.9 6.6 6.5zm39-40.9h-20.2v13.4c2.7-1.4 5.5-2 8.2-2 9 0 15.4 6.4 15.4 17.4 0 11-7.9 18.7-20.1 18.7-7.5 0-12.8-3-17-7.6l5.8-5.4c3 3.3 6.4 5.1 10.9 5.1 6 0 9.8-3.8 9.8-10.8 0-7.4-3.7-10-8.6-10-2.5 0-4.5.6-7 1.8h-7.3v-28.2h31.2l-1.1 7.6zm47.1 28.2H778c.8 8.6 4.8 11.4 10.4 11.4 3.8 0 6.9-1.2 10.6-3.8l4.2 5.8c-4.2 3.4-9.3 5.7-15.7 5.7-13.1 0-20.2-8.7-20.2-22.1 0-12.9 6.8-22.6 18.8-22.6 11.8 0 18.6 8 18.6 21.4.2 1.4 0 3.1-.1 4.2zm-9.9-7.1c0-7-2.5-11.1-8.2-11.1-4.8 0-7.8 3.2-8.4 11.6h16.6v-.5zm75.3-5.5V571h-10.2v-29c0-5.3-2.1-6.8-4.6-6.8-3.5 0-5.7 2.5-8 6.4V571H837v-29c0-5.3-2.2-6.8-4.6-6.8-3.6 0-5.8 2.5-8.1 6.4V571h-10.2v-42.3h8.9l.8 5.5c3-4.2 6.9-6.7 12.2-6.7 5 0 8.6 2.6 10.2 7.1 3.2-4.4 7.1-7.1 12.7-7.1 6.6 0 11.1 4.9 11.1 12.9zm29.9-8H932v8.1h-32.1v-8.1zm0 16.1H932v8.2h-32.1v-8.2zm84.8 22.5h-10.1v-43.5l-12 7.3-4.5-6.9 17.5-10.7h9V571zm43.2-41.1c0 6.7-4.2 11-10.5 12.6 6.7.6 12.2 4.8 12.2 13.1 0 9.2-7.2 16.6-19.5 16.6-7.4 0-13.3-2.7-17.4-7.8l5.7-5.4c3.6 3.6 7 5.2 11.2 5.2 5.8 0 9.5-3.4 9.5-9 0-6.4-3.6-8.6-9.7-8.6h-4.2l1.2-7.3h2.9c5 0 8.6-2.9 8.6-8.2 0-4.4-3.1-7-7.9-7-4.2 0-7.4 1.5-10.8 4.7l-5.2-5.7c4.8-4.6 10.4-6.9 16.9-6.9 11.1 0 17 6.2 17 13.7zm21.3 35.8c0 3.5-2.9 6.5-6.6 6.5-3.6 0-6.4-3-6.4-6.5 0-3.6 2.8-6.5 6.4-6.5 3.7 0 6.6 2.9 6.6 6.5zm39-40.9H1068v13.4c2.7-1.4 5.5-2 8.2-2 9 0 15.4 6.4 15.4 17.4 0 11-7.9 18.7-20.1 18.7-7.5 0-12.8-3-17-7.6l5.8-5.4c3 3.3 6.4 5.1 10.9 5.1 6 0 9.8-3.8 9.8-10.8 0-7.4-3.7-10-8.6-10-2.5 0-4.5.6-7 1.8h-7.3v-28.2h31.2l-1.1 7.6zm50.1 24.9c0 13-6 22.5-16.7 22.5-4.3 0-8-1.5-10.6-4.6v19.8l-10.2 1.1v-59.8h9l.6 5.2c3.4-4.4 7.8-6.4 12.4-6.4 10.9 0 15.5 8.7 15.5 22.2zm-10.7.1c0-10.7-2.9-14.6-8-14.6-3.6 0-6.6 2.5-8.6 5.8v19c2 3 4.6 4.4 7.8 4.4 5.5 0 8.8-4.4 8.8-14.6zm44.6 19.2c-3 2.2-6.9 3.2-10.6 3.2-8.3-.1-12.7-4.8-12.7-13.8V536h-6.6v-7.4h6.6v-9.4l10.2-1.2v10.6h9.8l-1 7.4h-8.8v22.1c0 4.2 1.4 5.8 4.5 5.8 1.6 0 3.2-.5 5-1.5l3.6 6.6zM702.6 969.6c0 9.1-5.2 15.8-21.8 31.6h23l-1.1 8.1h-33.5v-7.5c18.4-18.7 22.9-23.8 22.9-31.4 0-5-3.1-7.8-7.8-7.8-4.2 0-7 1.8-10.4 5.7l-6.2-5c4.3-5.6 10-8.8 17.4-8.8 11.1 0 17.5 6.7 17.5 15.1zm43.4 21.7h-26.6c.8 8.6 4.8 11.4 10.4 11.4 3.8 0 6.9-1.2 10.6-3.8l4.2 5.8c-4.2 3.4-9.3 5.7-15.7 5.7-13.1 0-20.2-8.7-20.2-22.1 0-12.9 6.8-22.6 18.8-22.6 11.8 0 18.6 8 18.6 21.4.1 1.4 0 3.1-.1 4.2zm-9.9-7.1c0-7-2.5-11.1-8.2-11.1-4.8 0-7.8 3.2-8.4 11.6h16.6v-.5zm75.3-5.5v30.6h-10.2v-29c0-5.3-2.1-6.8-4.6-6.8-3.5 0-5.7 2.5-8 6.4v29.4h-10.2v-29c0-5.3-2.2-6.8-4.6-6.8-3.6 0-5.8 2.5-8.1 6.4v29.4h-10.2V967h8.9l.8 5.5c3-4.2 6.9-6.7 12.2-6.7 5 0 8.6 2.6 10.2 7.1 3.2-4.4 7.1-7.1 12.7-7.1 6.6 0 11.1 4.9 11.1 12.9zm29.9-8h32.1v8.1h-32.1v-8.1zm0 16.1h32.1v8.2h-32.1v-8.2zm84.8 22.5H916v-43.5l-12 7.3-4.5-6.9 17.5-10.7h9v53.8zm50.1-14.5c0 8.8-7.8 15.7-20 15.7-12.1 0-19.5-6.8-19.5-15.5 0-6.6 3.8-10.9 10.2-13.6-5.8-3.1-8.1-7.4-8.1-12.7 0-8.8 8-14.2 17.6-14.2 9.5 0 17.6 4.8 17.6 13.8 0 5-2.8 9-8.9 12.2 7.4 3.2 11.1 7.9 11.1 14.3zm-10.4 0c0-5-2.6-7.3-9.8-9.9l-2.5-.9c-4.3 2.3-6.5 5.8-6.5 10.6 0 5.1 3.7 8.2 9.4 8.2 6 .1 9.4-3.3 9.4-8zm-17.1-26c0 4.6 2.9 6.6 8.1 8.5l1.5.6c4.2-2.6 5.8-5.3 5.8-9.1 0-4.2-2.6-7-7.7-7-4.6-.1-7.7 2.3-7.7 7zm73.9 19.2c0 13-6 22.5-16.7 22.5-4.3 0-8-1.5-10.6-4.6v19.8l-10.2 1.1V967h9l.6 5.2c3.4-4.4 7.8-6.4 12.4-6.4 10.9 0 15.5 8.7 15.5 22.2zm-10.7.1c0-10.7-2.9-14.6-8-14.6-3.6 0-6.6 2.5-8.6 5.8v19c2 3 4.6 4.4 7.8 4.4 5.5 0 8.8-4.4 8.8-14.6zm44.7 19.2c-3 2.2-6.9 3.2-10.6 3.2-8.3-.1-12.7-4.8-12.7-13.8v-22.3h-6.6V967h6.6v-9.4l10.2-1.2V967h9.8l-1 7.4h-8.8v22.1c0 4.2 1.4 5.8 4.5 5.8 1.6 0 3.2-.5 5-1.5l3.6 6.5z" class="st3"/></svg>