<svg xmlns="http://www.w3.org/2000/svg" viewBox="0 0 1273.96 1251.15" width="1273.96" height="1251.15"><defs><style>.a669f743-6fab-45ae-aa3c-1e2b999244b3{fill:#505050}</style></defs><g id="bc4aceac-07c1-437a-bded-eeab9107d5a7"><g id="a467e7cb-cda1-4af0-9370-662f6b461be7"><path d="M106 998.64c-69.86 0-98.42-33.11-98.42-99.94S36.15 798.46 106 798.46c70.17 0 98.72 35.24 98.72 100.24s-28.54 99.94-98.72 99.94zm0-182.26c-23.39 0-34.63 13.37-34.63 82 0 68 11.24 82 34.63 82 23.69 0 34.93-13.06 34.93-82 .01-68.63-11.23-82-34.93-82zm203.23 177.7h-96.9v-17.92c16.7 0 19.74-5.47 19.74-18.23V820.64c0-14-3-18.23-19.74-18.23v-17.92l82.32-4.56c0 35.84-7 64.4-9.12 86H288c13.06-28.56 30.38-40.4 58.63-40.4 38.88 0 55.59 21.26 55.59 61.66v70.77c0 12.76 5.77 18.23 19.74 18.23v17.92h-96.33v-17.95c12.76 0 15.49-3.65 15.49-12.15v-71.08c0-20-6.68-28.86-22.78-28.86-10.94 0-25.21 10.33-25.21 29.16V964c0 8.5 3 12.15 16.1 12.15zm215.66 0H428v-17.92c16.7 0 19.74-5.47 19.74-18.23v-93.25c0-14-3-18.23-19.44-18.23v-17.92h73.2c-.3 12.76-.6 22.18-.91 37.37h3c13.06-28.56 30.38-40.4 58.63-40.4 38.88 0 55.58 21.26 55.58 61.66v70.77c0 12.76 5.77 18.23 19.75 18.23v17.92H541.3v-17.92c12.75 0 15.49-3.65 15.49-12.15v-71.08c0-20-6.68-28.86-22.78-28.86-10.94 0-25.22 10.33-25.22 29.16V964c0 8.5 3 12.15 16.1 12.15zm204.43 4.56c-62.88 0-89-31-88.7-88.7s25.82-86 88.7-86 88.7 29.16 88.7 86c-.02 56.5-25.82 88.7-88.7 88.7zm0-156.74c-16.1 0-25.21 7.9-25.21 67.74s9.11 70.77 25.21 70.77c15.8 0 24.91-11.24 24.91-70.77s-9.11-67.74-24.91-67.74zM0 1246.59v-18.22c23.69 0 23.09-2.13 23.09-39.49v-75.94c0-37.36.6-39.49-23.09-39.49v-18.22h178v80.19h-15.19c-12.45-44.65-29.76-61.06-79-62v81.71c23.69-1.82 41.31-17 41.92-37.06h15.18c-.6 15.8-.3 31.29-.3 45 0 13.37-.3 29.16.3 45h-15.15c-.61-21.57-17-36.15-41.92-37.67v18.53c0 37.36 2.73 39.49 30.68 39.49v18.22zM260.93 1078c63.18 0 82.93 17.62 82.93 67.43 0 16.71-1.52 42.53-1.52 56.81 0 12.45 1.21 17.31 7 17.31s9.72-9.11 8.21-45.26H373c4 56.8-8.81 75.33-38.28 75.33-25.51 0-37.05-11.84-38-37.66h-3.34c-8.5 18.53-26.73 37.66-58.62 37.66-41.92 0-55.59-16.7-55.59-45.26 0-28.85 17.31-45.56 54.37-46.17 45.57-.61 48.6-13.36 48.6-31.59v-3c0-22.17-13.06-30.37-37.05-30.37a67.35 67.35 0 0 0-24 4.55l1.52 4.26a48.87 48.87 0 0 1 6.38-.61c17 0 25.21 6.38 25.21 19.74 0 11.85-6.38 21.87-31 21.87-20.36 0-33.42-8.81-33.42-25.21.07-24.63 20.12-39.83 71.15-39.83zm21.26 115.12v-27.32c-17.92 7.89-50.42 4.25-50.42 31.59 0 13.67 7.9 20.65 23.39 20.65 17.62-.04 27.03-9.42 27.03-24.91zM449 1081.05h41.92v18.22H449v101.15c0 16.41 2.13 23.09 9.72 23.09 6.69 0 11.55-7 11.55-39.79v-9.42h18.52c.31 4 .31 7.9.31 11.85 0 42.83-9.42 63.48-46.17 63.48-35.85 0-54.68-8.81-54.68-53.76v-96.6h-19.48v-18.22c30.68 0 55.89-19.14 62.88-45.26H449zm130.88 25.21h20.35v17.92h-20.35v86.27c0 12.75 4.86 18.22 28 18.22v17.92H496v-17.92c19.44 0 23.09-5.47 23.09-18.22v-86.27H500.9v-17.92h25.22v-6.08c-18.84-5.46-32.51-13.67-32.51-36.75 0-27.34 21.57-41.92 60.76-41.92 38 0 55.28 16.71 55.28 39.49 0 19.74-10.63 29.16-26.12 29.16-20.36 0-27.65-11.54-27.65-24.91 0-15.19 11.55-22.78 23.09-22.78a40 40 0 0 1 8.2.61l1.22-2.74a39.13 39.13 0 0 0-20.36-5.16c-16.4 0-30.37 9.42-30.37 31.59 0 26.43 17.01 39.49 42.22 39.49zM692.57 1078c63.18 0 82.93 17.62 82.93 67.43 0 16.71-1.52 42.53-1.52 56.81 0 12.45 1.21 17.31 7 17.31s9.72-9.11 8.2-45.26h15.49c4 56.8-8.81 75.33-38.28 75.33-25.51 0-37-11.84-38-37.66h-3.35c-8.5 18.53-26.73 37.66-58.62 37.66-41.92 0-55.59-16.7-55.59-45.26 0-28.85 17.32-45.56 54.37-46.17 45.57-.61 48.6-13.36 48.6-31.59v-3c0-22.17-13.06-30.37-37.05-30.37a67.35 67.35 0 0 0-24 4.55l1.52 4.26a48.87 48.87 0 0 1 6.38-.61c17 0 25.21 6.38 25.21 19.74 0 11.85-6.38 21.87-31 21.87-20.36 0-33.42-8.81-33.42-25.21.05-24.63 20.1-39.83 71.13-39.83zm21.26 115.12v-27.32c-17.92 7.89-50.42 4.25-50.42 31.59 0 13.67 7.9 20.65 23.39 20.65 17.62-.04 27.03-9.42 27.03-24.91zM918.27 1218c24 0 36.45-11.24 37.36-31.89h18.22c0 39.18-17 65-75 65-47.39 0-84.45-21.87-84.45-88.7 0-61.66 36.45-86 83.23-86 53.46 0 74.42 20.35 74.42 51.34 0 21.26-13.06 34.93-32.81 34.93-24.3 0-31.28-12.15-31.28-27.34 0-18.23 10.33-29.47 24.91-29.47a31.4 31.4 0 0 1 7 .92l1.52-5.17a52.57 52.57 0 0 0-23.39-5.16c-20.65 0-39.79 7.9-39.79 64.09-.04 45.95 13.63 57.45 40.06 57.45zm170.73 33.15c-52.55 0-93.56-15.8-93.56-88.7 0-61.66 34.63-86 88.7-86 62.27 0 80.8 32.5 80.8 75 0 6.68-.31 13.06-.61 20h-105.1c2.13 36.45 15.19 48.9 48 48.9 24.3 0 38.88-8.2 39.19-28.55h18.22c-.03 35.96-17.04 59.35-75.64 59.35zm-30.07-97.81h51c-.91-48.3-10.33-58.62-26.12-58.62s-23.99 10.02-24.9 58.62zM3.32 222.54H31.1V9H3.32V0H172c63.25 0 93.7 21.08 93.7 67.6 0 26.77-9 44.17-31.12 56.55-19.41 11-42.84 11.38-71.62 11.38h-36.49v87h31.45v9.7H3.32zm128.17-96.71c25.43 0 34.47-7 34.47-36.48V45.51C166 16.06 156.92 9 131.49 9h-5v116.83zm229.89-56.22c63.25 0 101.73 35.8 101.73 84.33s-38.48 84.66-101.73 84.66c-63.58 0-101.73-37.15-101.73-84.66s38.15-84.33 101.73-84.33zm16.73 29.78c0-14.73-5-21.75-16.73-21.75s-16.73 7-16.73 21.75v108.76c0 15.06 4.68 21.75 16.73 21.75s16.73-6.69 16.73-21.75zM488.55 238.6h-8l-2.71-60.6h8.36c17.74 33.46 49.2 52.2 77 52.2 16.4 0 25.1-6.36 25.1-16.73 0-16.06-21.75-20.75-59.23-32.12-30.46-9.37-49.53-32.13-49.53-58.23 0-30.79 24.76-53.54 60.91-53.54 15.39 0 30.78 3 46.84 9.37l27.45-9.37h6.69l.67 52.53h-6.36C600.32 93 571.87 77 547.78 77 534.39 77 527 82.66 527 91.69c0 14.73 14.72 18.41 40.16 26.1 42.83 12.72 64.25 29.12 64.25 61.91 0 37.15-23.43 58.56-64.92 58.56-18.41 0-32.8-3.68-50.2-12zM664.23 82.66h-20.74v-8.37c36.81-1 66.25-20.41 91-58.23h6.69v58.23H778v8.37h-36.8v114.78c0 12.71 1.67 18.4 10.71 18.4 11 0 20.08-13.05 23.42-37.81h7c-1.34 37.48-27.44 60.57-69.27 60.57-32.79 0-48.86-12-48.86-36.48z" class="a669f743-6fab-45ae-aa3c-1e2b999244b3"/><path d="M864.68 161.63v19.75c0 29.44 13.06 44.84 37.82 44.84 25.43 0 45.18-11.38 62.58-35.47l6.35 4.35c-16.39 28.77-46.18 43.5-89.68 43.5-63.58 0-100.06-36.48-100.06-84.66 0-47.86 37.15-84.33 98-84.33 61.24 0 96.38 32.79 96.71 92zm33.47-62.24c0-14.73-5-21.75-16.73-21.75s-16.74 7-16.74 21.75v54.55h33.47zm87.01 123.82h19.41V82.66h-19.41v-8.37h46.18a204.78 204.78 0 0 0 43.83-4.68h5.69v39.15h2.68c13.72-27.11 29.78-39.15 53.54-39.15 24.1 0 38.49 14.72 38.49 37.81 0 22.09-14.73 36.48-37.48 36.48-20.42 0-34.47-12.72-34.47-27.78v-4.68c0-5.36-1-8-3.68-8-7 0-18.07 27.11-18.07 59.24v60.57h25.76v9H985.16zM265.68 333.74c0 33.46-23.76 49.53-75.63 52.2v5.36c54.88 1.67 81 20.08 81 58.56 0 42.5-33.13 60.57-101.73 60.57H5.33v-9.7H31.1v-213.5H5.33v-9h164c65.56-.04 96.35 15.02 96.35 55.51zm-132.85 50.53c24.43 0 33.79-4.68 33.79-31.46V320c0-23.76-9-32.79-31.79-32.79h-6v97zm.67 116.46c27.1 0 36.81-5.69 36.81-35.14v-36.48c0-26.43-10-36.14-34.81-36.14h-6.69v107.76zm254.33-152.94c63.24 0 101.73 35.81 101.73 84.33s-38.49 84.67-101.73 84.67c-63.59 0-101.73-37.15-101.73-84.67s38.14-84.33 101.73-84.33zm16.73 29.79c0-14.73-5-21.75-16.73-21.75s-16.74 7-16.74 21.75v108.76c0 15.06 4.69 21.75 16.74 21.75s16.73-6.69 16.73-21.75zM687.67 273.5h5.68v228.56h18.74v8.37h-41.83a204.78 204.78 0 0 0-43.83 4.68h-5.69v-36.47c-6.36 24.09-25.77 38.15-54.55 38.15-40.16 0-66.26-33.8-66.26-84.67 0-50.19 26.44-84.33 65.26-84.33 26.43 0 46.18 12.39 51.53 27.45v-88.68h-25.43v-8.37h52.54a204.23 204.23 0 0 0 43.84-4.69zM598.32 493c13.38 0 17.73-17.07 17.73-49.86v-30.42c0-28.12-4.68-42.84-18.4-42.84-12 0-15.06 10-15.06 33.13v60.57c0 20.08 4.35 29.42 15.73 29.42zm221.2-145.21c63.24 0 101.73 35.81 101.73 84.33s-38.49 84.67-101.73 84.67c-63.58 0-101.73-37.15-101.73-84.67s38.15-84.33 101.73-84.33zm16.73 29.79c0-14.73-5-21.75-16.73-21.75s-16.73 7-16.73 21.75v108.76c0 15.06 4.68 21.75 16.73 21.75s16.73-6.69 16.73-21.75zm92.36 123.82h19.08V360.85h-19.08v-8.37h43.51a204.13 204.13 0 0 0 43.83-4.69h5.69l-.33 31.8h3.34c10.38-20.42 30.46-31.8 56.56-31.8 40.49 0 50.19 22.43 50.19 61.91v91.7h18.74v9H1044.4v-9h10.37V393.64c0-11.71-3.35-17.4-10.71-17.4-12.38 0-19.41 14.05-19.41 41.16v84H1035v9H928.61zm226.22 0h21.75V360.85h-19.41v-8.37h47.19a204.23 204.23 0 0 0 43.84-4.69h5.68V501.4H1274v9h-119.17zm59.23-230.57c27.11 0 41.5 11.38 41.5 31.12s-14.39 31.12-41.5 31.12-41.49-11.38-41.49-31.12 14.43-31.12 41.49-31.12z" class="a669f743-6fab-45ae-aa3c-1e2b999244b3"/></g></g></svg>