<svg xmlns="http://www.w3.org/2000/svg" viewBox="0 0 1403.99 1274.82" width="1403.99" height="1274.82"><defs><style>.fce37c8a-0132-4fd9-820e-c1213659ab97{fill:#b3b3b3}.a8f0f69c-cb5a-41d5-b94f-3ee0404b7cf4{fill:#505050}.a8398965-d704-4718-b5e1-b75fe4f73432{fill:none;stroke:#2997ff;stroke-width:5.55px}</style></defs><g id="bd258156-f53d-4511-954d-3e3f98fcc596"><g id="bdf59f24-7dfd-492a-b1e2-8161faa6a3b1"><path d="M366.18 632.68v-17.53c51.34-5 53.22-8.77 52.59-75.76l.63-255.45c-51.34 114.57-134 293.64-155.91 348.74h-16.27c-21.29-57-92-229.16-139.63-342.48C97 509.34 96.32 558.8 96.32 570.7c.63 35.06 16.28 40.07 58.86 44.45v17.53H6.79v-17.53c36.31-3.76 51.34-11.27 56.35-45.08C66.9 542.52 67.52 520 83.8 291.45c2.5-32.56-3.8-43.2-58.8-48.21v-17.53h108.89l138.37 317.44 148.39-317.44h109.57v17.53c-53.85 6.26-60.73 11.89-59.48 55.72l2.5 240.43c2.51 67 4.39 70.12 59.48 75.76v17.53zm458.92 0v-12.55c36.76-3.59 38.1-6.28 37.65-54.24L863.2 383c-36.75 82-95.92 210.23-111.61 249.67h-11.65C724.7 591.89 674 468.62 640 387.49c-7.62 156.89-8.07 192.3-8.07 200.81.45 25.11 11.65 28.69 42.13 31.83v12.55H567.81v-12.55c26-2.69 36.76-8.07 40.34-32.27 2.69-19.73 3.14-35.86 14.79-199.47 1.8-23.31-2.68-30.93-42.13-34.52v-12.55h78l99.07 227.26L864.1 341.32h78.44v12.55c-38.55 4.49-43.48 8.52-42.58 39.9l1.79 172.12c1.79 48 3.14 50.21 42.58 54.24v12.55zm561.13-274.24c-47 3.13-50.72 6.89-50.09 50.09l1.86 157.16c1.88 43.2 5.64 45.7 48.84 49.46v17.53h-144.62v-17.53c41.32-3.76 45.71-6.26 46.33-49.46l.63-180.32c-37.57 80.76-95.8 211-110.2 247.31h-17.53c-14.4-38.19-68.25-165.92-102.68-246.06-2.51 90.78-6.26 170.93-5 196.6.62 22.54 9.39 28.17 46.33 31.93v17.53H977.37v-17.53c31.93-3.13 42-10.64 45.08-30.68 3.76-23.17 10-105.19 13.15-186.58 1.25-28.8-3.13-35.69-47.58-39.45v-17.53h101.43l96.42 211 99.55-211h100.81z"/><path d="M827 1272v-23.23c68.05-6.64 70.54-11.62 69.71-100.41l.83-338.56C829.53 961.7 720 1199 691 1272h-21.62c-28.21-75.51-122-303.7-185-453.9-14.11 290.43-14.94 356-14.94 371.75.83 46.47 21.58 53.11 78 58.92V1272h-196.7v-23.23c48.13-5 68.05-14.94 74.68-59.75 5-36.51 5.81-66.38 27.39-369.26 3.32-43.15-5-57.25-78-63.89v-23.2h144.38l183.38 420.71 196.67-420.71h145.21v23.24c-71.36 8.3-80.49 15.76-78.83 73.85l3.32 318.64c3.32 88.79 5.81 92.94 78.83 100.41V1272z" class="fce37c8a-0132-4fd9-820e-c1213659ab97"/><path d="M24.27 32.62l14.11 21.6h-9.72L16.13 33.77h-5.4v20.45H2.38V4.54H16.2c12.75 0 19.37 4.75 19.37 14.4 0 7.27-4.9 11.73-11.3 13.68zm-7.56-21.89h-6v16.92h6.19c6.34 0 9.94-2.45 9.94-8.71.02-5.83-3.29-8.21-10.13-8.21zm46.22 38.16a17.36 17.36 0 0 0 10-3.31l3.45 4.9a22 22 0 0 1-13.82 4.68c-11.88 0-18.36-8.07-18.36-19.95 0-11.38 6.55-20 17.35-20 10.08 0 16.42 7.2 16.42 19a25.06 25.06 0 0 1-.22 3.6H52.56c.5 7.77 4.9 11.08 10.37 11.08zM52.49 32.33h17.64c-.14-7.2-3.1-11.16-8.5-11.16-5.04 0-8.63 3.53-9.14 11.16zm70.7-14.26c-3 1-6.55 1.23-11 1.23 4.53 2.09 6.91 5.11 6.91 9.72 0 7.42-5.69 12.82-15 12.82a15.74 15.74 0 0 1-5.18-.65 4 4 0 0 0-1.66 3.17c0 1.51.86 2.88 4.68 2.88h6.62c8.14 0 13.9 4.46 13.9 10.58 0 7.56-6.69 11.95-19 11.95-13.1 0-16.92-4.1-16.92-11.81h7.2c0 4 1.8 5.91 9.79 5.91s10.81-2 10.81-5.54c0-3.1-2.89-4.83-7.35-4.83h-6.55C93.17 53.5 90 50.12 90 46.16c0-2.52 1.44-5 4.18-6.84-4.54-2.38-6.49-5.69-6.49-10.66 0-8 6.49-13.47 15.85-13.47 9.14.08 13-1.58 17.57-3.81zM95.9 28.66c0 4.75 2.6 7.92 7.78 7.92 4.82 0 7.34-2.88 7.34-8.07s-2.44-7.7-7.41-7.7c-5.19 0-7.71 3.19-7.71 7.85zm44.43 14.11c0 4.47 1.8 6.27 5.4 6.27s7-2.38 8.85-5.33V16.2h8.07v38h-7l-.5-4.9a15 15 0 0 1-11.95 5.84c-7.42 0-11-4.25-11-11.38V16.2h8.07zm51.84 1.08c0 3.53 2.37 4.83 5.76 4.83a15.79 15.79 0 0 0 6-1.3L206 53a20.58 20.58 0 0 1-9.79 2.16c-7.63 0-12.1-4.54-12.1-12V6.84h-11.46V.94h19.52zm58.46 5.83l-1.87 5.48c-3.67-.44-6.48-1.95-7.85-5.26-2.81 3.53-7.27 5.26-12.1 5.26-7.77 0-12.53-4.76-12.53-11.81 0-7.92 6.49-12.46 18.08-12.46h5.4v-2.45c0-5-3.1-6.91-8.43-6.91a32 32 0 0 0-10.08 1.94l-2-5.68a38.46 38.46 0 0 1 13.32-2.6c10.22 0 15.19 4.76 15.19 12.75v17c-.01 2.94.86 4.06 2.87 4.74zm-10.87-5.32v-8.43h-4.47c-7.56 0-10.51 2.67-10.51 7.13 0 4 2.16 6.19 6.41 6.19a10.19 10.19 0 0 0 8.57-4.89zm54.79-28.16l-1.37 14h-5.76v-7.73c-5.4.14-9.29 4.46-11.52 11.88v14.11h7.63v5.76h-21.31v-5.76h5.62V22h-5.62v-5.8H274l1.4 8.8c2.88-6.34 6.84-9.72 13.39-9.72a17.12 17.12 0 0 1 5.76.92zM37 95l-4.32 5.18a15.87 15.87 0 0 0-10.3-3.67c-7.41 0-13.68 5.19-13.68 19.23 0 13.75 5.91 19.08 13.76 19.08 5.32 0 8.49-2.09 11.23-4.25l4 5.11c-3.31 3.24-8.28 5.91-15.55 5.91C9.5 141.56 0 132.56 0 115.71s9.94-25.78 22-25.78c6.8 0 11 1.8 15 5.07zm40.83 41.08L76 141.56c-3.67-.44-6.48-1.95-7.85-5.26-2.8 3.53-7.27 5.26-12.09 5.26-7.78 0-12.53-4.76-12.53-11.81 0-7.92 6.48-12.46 18.07-12.46H67v-2.45c0-5-3.09-6.91-8.42-6.91a32 32 0 0 0-10.08 1.94l-2-5.68a38.46 38.46 0 0 1 13.32-2.6C70 101.59 75 106.35 75 114.34v17c0 2.94.82 4.1 2.83 4.74zM67 130.76v-8.43h-4.5c-7.56 0-10.5 2.67-10.5 7.13 0 4 2.16 6.19 6.41 6.19a10.17 10.17 0 0 0 8.59-4.89zm54.47-9.22c0 11.59-5 20-14.69 20a12.19 12.19 0 0 1-9.65-4.18v17.86l-8.07.93V102.6h7l.5 4.9a13.66 13.66 0 0 1 11.09-5.91c10 0 13.82 7.85 13.82 19.95zm-24.34-8.28V131a8.74 8.74 0 0 0 7.49 4.25c5.47 0 8.35-4.17 8.35-13.68 0-9.79-2.52-13.82-7.56-13.82-3.6.04-6.41 2.56-8.28 5.51zM153 134.72h10.37v5.9h-29.74v-5.9h11.31v-26.21H134v-5.91h19zm-.29-45.66a5.26 5.26 0 1 1-5.25-5.06 5 5 0 0 1 5.25 5.06zm43.42 52.5c-8.86 0-13.54-5-13.54-12.46v-20.59h-8.42v-5.91h8.42v-8.49l8.07-.94v9.43h12.88l-.93 5.91h-12V129c0 4.1 1.94 6.05 6.62 6.05a14.45 14.45 0 0 0 7.06-1.8l2.88 5.32a21 21 0 0 1-11.04 2.99zm54.5-5.48l-1.87 5.48c-3.67-.44-6.48-1.95-7.85-5.26-2.81 3.53-7.27 5.26-12.1 5.26-7.77 0-12.53-4.76-12.53-11.81 0-7.92 6.49-12.46 18.08-12.46h5.4v-2.45c0-5-3.1-6.91-8.43-6.91a32 32 0 0 0-10.08 1.94l-2-5.68a38.46 38.46 0 0 1 13.32-2.6c10.22 0 15.19 4.76 15.19 12.75v17c-.01 2.94.86 4.1 2.87 4.74zm-10.87-5.32v-8.43h-4.47c-7.56 0-10.51 2.67-10.51 7.13 0 4 2.16 6.19 6.41 6.19a10.19 10.19 0 0 0 8.57-4.89zm38.81-.51c0 3.53 2.37 4.83 5.76 4.83a15.79 15.79 0 0 0 6.05-1.3l2 5.62a20.58 20.58 0 0 1-9.79 2.16c-7.63 0-12.1-4.54-12.1-12V93.24h-11.44v-5.9h19.52zm332.21-75.09c-8.07 0-14.12-2.52-18.29-6.63l4.61-5.11a19.21 19.21 0 0 0 13.68 5.18c5.61 0 10.29-2.66 10.29-8 0-4.39-2.23-6.48-10.15-8.86-10.58-3.09-16.06-7-16.06-14.76 0-8.13 7.28-13.46 17.07-13.46 7.13 0 12.38 2.16 16.63 6l-4.39 5a17.83 17.83 0 0 0-11.74-4.39c-5.11 0-9 2.09-9 6.41 0 3.89 2.74 5.69 11.6 8.28 8.42 2.52 14.76 6.05 14.76 15.41 0 8.77-6.99 14.93-19.01 14.93zm56.81-9.87l3.67 5.19a21.24 21.24 0 0 1-13.32 4.68c-11.74 0-18.51-7.85-18.51-19.73 0-11.6 6.91-20.24 18.65-20.24a20 20 0 0 1 13.18 4.61l-3.75 5a16.42 16.42 0 0 0-9.28-3.17c-6.05 0-10.23 4.25-10.23 13.76s4.32 13.1 10.23 13.1a16.73 16.73 0 0 0 9.36-3.2zM715 49.68l-1.87 5.48c-3.67-.44-6.48-1.95-7.85-5.26-2.81 3.53-7.27 5.26-12.09 5.26-7.78 0-12.53-4.76-12.53-11.81 0-7.92 6.48-12.46 18.07-12.46h5.4v-2.45c0-5-3.1-6.91-8.42-6.91a32 32 0 0 0-10.08 1.94l-2-5.68a38.46 38.46 0 0 1 13.37-2.6c10.23 0 15.19 4.76 15.19 12.75v17c-.04 2.94.81 4.06 2.81 4.74zm-10.87-5.32v-8.43h-4.43c-7.56 0-10.52 2.67-10.52 7.13 0 4 2.16 6.19 6.41 6.19a10.19 10.19 0 0 0 8.57-4.89zm38.87-.51c0 3.53 2.37 4.83 5.76 4.83a15.79 15.79 0 0 0 6-1.3l2 5.62a20.58 20.58 0 0 1-9.76 2.16c-7.63 0-12.1-4.54-12.1-12V6.84h-11.45V.94H743zm43.53 5.04a17.36 17.36 0 0 0 10-3.31l3.45 4.9a22.06 22.06 0 0 1-13.82 4.68c-11.88 0-18.36-8.07-18.36-19.95 0-11.38 6.55-20 17.35-20 10.08 0 16.42 7.2 16.42 19a26.6 26.6 0 0 1-.22 3.6h-25.2c.51 7.77 4.9 11.08 10.38 11.08zm-10.44-16.56h17.64c-.15-7.2-3.1-11.16-8.5-11.16-5.04 0-8.64 3.53-9.14 11.16zM843.05.94v53.28h-7.13l-.58-4.68a12.59 12.59 0 0 1-10.65 5.62c-9.8 0-14.33-8-14.33-19.95 0-11.59 5.68-20 15-20a12.23 12.23 0 0 1 9.64 4.16V0zm-24.12 34.27c0 9.72 2.88 13.83 7.92 13.83 3.6 0 6.26-2.45 8.13-5.48V25.63a9 9 0 0 0-7.49-4.24c-5.4 0-8.56 4.32-8.56 13.82zM631 95l-4.32 5.18a15.87 15.87 0 0 0-10.3-3.67c-7.41 0-13.68 5.19-13.68 19.23 0 13.75 5.91 19.08 13.76 19.08 5.32 0 8.49-2.09 11.23-4.25l4 5.11c-3.31 3.24-8.28 5.91-15.55 5.91-12.68 0-22.18-9-22.18-25.85s9.94-25.78 22-25.78C622.8 89.93 627 91.73 631 95zm40.83 41.08l-1.83 5.48c-3.67-.44-6.48-1.95-7.85-5.26-2.8 3.53-7.27 5.26-12.09 5.26-7.78 0-12.53-4.76-12.53-11.81 0-7.92 6.48-12.46 18.07-12.46h5.4v-2.45c0-5-3.09-6.91-8.42-6.91a32 32 0 0 0-10.08 1.94l-2-5.68a38.46 38.46 0 0 1 13.32-2.6c10.23 0 15.19 4.76 15.19 12.75v17c-.01 2.94.81 4.1 2.82 4.74zM661 130.76v-8.43h-4.5c-7.56 0-10.52 2.67-10.52 7.13 0 4 2.16 6.19 6.41 6.19a10.17 10.17 0 0 0 8.61-4.89zm54.47-9.22c0 11.59-5 20-14.69 20a12.19 12.19 0 0 1-9.65-4.18v17.86l-8.07.93V102.6h7l.5 4.9a13.66 13.66 0 0 1 11.09-5.91c10 0 13.82 7.85 13.82 19.95zm-24.34-8.28V131a8.74 8.74 0 0 0 7.49 4.25c5.47 0 8.35-4.17 8.35-13.68 0-9.79-2.52-13.82-7.56-13.82-3.6.04-6.41 2.56-8.28 5.51zM747 134.72h10.37v5.9h-29.74v-5.9h11.31v-26.21H728v-5.91h19zm-.29-45.66a5.26 5.26 0 1 1-5.25-5.06 5 5 0 0 1 5.25 5.06zm43.42 52.5c-8.86 0-13.54-5-13.54-12.46v-20.59h-8.42v-5.91h8.42v-8.49l8.07-.94v9.43h12.88l-.93 5.91h-12V129c0 4.1 1.94 6.05 6.62 6.05a14.45 14.45 0 0 0 7.06-1.8l2.88 5.32a21 21 0 0 1-11.04 2.99zm54.5-5.48l-1.87 5.48c-3.67-.44-6.48-1.95-7.85-5.26-2.81 3.53-7.27 5.26-12.1 5.26-7.77 0-12.52-4.76-12.52-11.81 0-7.92 6.48-12.46 18.07-12.46h5.4v-2.45c0-5-3.1-6.91-8.43-6.91a32 32 0 0 0-10.08 1.94l-2-5.68a38.46 38.46 0 0 1 13.32-2.6c10.22 0 15.19 4.76 15.19 12.75v17c-.01 2.94.86 4.1 2.87 4.74zm-10.87-5.32v-8.43h-4.47c-7.56 0-10.51 2.67-10.51 7.13 0 4 2.16 6.19 6.41 6.19a10.19 10.19 0 0 0 8.57-4.89zm38.81-.51c0 3.53 2.37 4.83 5.76 4.83a15.79 15.79 0 0 0 6-1.3l2 5.62a20.58 20.58 0 0 1-9.79 2.16c-7.63 0-12.1-4.54-12.1-12V93.24h-11.39v-5.9h19.52zm133.7-97.63l14.11 21.6h-9.72l-12.53-20.45h-5.4v20.45h-8.35V4.54h13.82c12.75 0 19.37 4.75 19.37 14.4 0 7.27-4.9 11.73-11.3 13.68zm-7.56-21.89h-6v16.92h6.19c6.34 0 9.94-2.45 9.94-8.71.02-5.83-3.29-8.21-10.13-8.21zm46.22 38.16a17.36 17.36 0 0 0 10-3.31l3.45 4.9a22 22 0 0 1-13.82 4.68c-11.88 0-18.36-8.07-18.36-19.95 0-11.38 6.55-20 17.35-20 10.08 0 16.42 7.2 16.42 19a25.06 25.06 0 0 1-.22 3.6h-25.2c.51 7.77 4.91 11.08 10.38 11.08zm-10.44-16.56h17.64c-.14-7.2-3.1-11.16-8.5-11.16-5.04 0-8.63 3.53-9.14 11.16zM1103 49.68l-1.87 5.48c-3.67-.44-6.48-1.95-7.85-5.26-2.81 3.53-7.27 5.26-12.09 5.26-7.78 0-12.53-4.76-12.53-11.81 0-7.92 6.48-12.46 18.07-12.46h5.4v-2.45c0-5-3.1-6.91-8.42-6.91a32 32 0 0 0-10.08 1.94l-2-5.68a38.46 38.46 0 0 1 13.32-2.6c10.23 0 15.19 4.76 15.19 12.75v17c.01 2.94.86 4.06 2.86 4.74zm-10.87-5.32v-8.43h-4.46c-7.56 0-10.52 2.67-10.52 7.13 0 4 2.16 6.19 6.41 6.19a10.19 10.19 0 0 0 8.6-4.89zm38.87-.51c0 3.53 2.37 4.83 5.76 4.83a15.79 15.79 0 0 0 6-1.3l2 5.62a20.58 20.58 0 0 1-9.79 2.16c-7.63 0-12.1-4.54-12.1-12V6.84h-11.45V.94H1131zm83.77 11.31c-8.06 0-14.11-2.52-18.29-6.63l4.61-5.11a19.23 19.23 0 0 0 13.68 5.18c5.62 0 10.3-2.66 10.3-8 0-4.39-2.23-6.48-10.15-8.86-10.59-3.09-16.06-7-16.06-14.76 0-8.13 7.27-13.46 17.07-13.46 7.12 0 12.38 2.16 16.63 6l-4.39 5a17.83 17.83 0 0 0-11.74-4.39c-5.11 0-9 2.09-9 6.41 0 3.89 2.74 5.69 11.59 8.28 8.43 2.52 14.76 6.05 14.76 15.41 0 8.77-6.98 14.93-19.01 14.93zM1277.63 26v28.22h-7.13V27.07c0-4-.29-5.61-2.52-5.61-1.87 0-3.74 1.08-5.61 3.81v29h-6.56v-27.2c0-4-.28-5.61-2.52-5.61-1.94 0-3.74 1.08-5.61 3.81v29h-7.2v-38h6l.57 4.11c2.16-3 4.47-5.12 8.14-5.12a6.22 6.22 0 0 1 6.48 4.83c2.16-2.88 4.68-4.83 8.35-4.83 4.37-.07 7.61 2.31 7.61 10.74zM1319 49.68l-1.87 5.48c-3.67-.44-6.48-1.95-7.85-5.26-2.81 3.53-7.27 5.26-12.1 5.26-7.77 0-12.53-4.76-12.53-11.81 0-7.92 6.48-12.46 18.08-12.46h5.4v-2.45c0-5-3.1-6.91-8.43-6.91a32 32 0 0 0-10.08 1.94l-2-5.68a38.46 38.46 0 0 1 13.32-2.6c10.22 0 15.19 4.76 15.19 12.75v17c.02 2.94.87 4.06 2.87 4.74zm-10.87-5.32v-8.43h-4.47c-7.56 0-10.51 2.67-10.51 7.13 0 4 2.16 6.19 6.41 6.19a10.19 10.19 0 0 0 8.6-4.89zm38.87-.51c0 3.53 2.38 4.83 5.76 4.83a15.71 15.71 0 0 0 6-1.3l2 5.62a20.58 20.58 0 0 1-9.79 2.16c-7.64 0-12.1-4.54-12.1-12V6.84h-11.45V.94H1347zm43.16 0c0 3.53 2.38 4.83 5.76 4.83a15.75 15.75 0 0 0 6-1.3l2 5.62a20.61 20.61 0 0 1-9.79 2.16c-7.64 0-12.1-4.54-12.1-12V6.84h-11.45V.94h19.51zM1019 95l-4.32 5.18a15.87 15.87 0 0 0-10.3-3.67c-7.41 0-13.68 5.19-13.68 19.23 0 13.75 5.91 19.08 13.76 19.08 5.32 0 8.49-2.09 11.23-4.25l4 5.11c-3.31 3.24-8.28 5.91-15.55 5.91-12.68 0-22.18-9-22.18-25.85s9.94-25.78 22-25.78c6.84-.03 11.04 1.77 15.04 5.04zm40.83 41.08l-1.87 5.48c-3.67-.44-6.48-1.95-7.85-5.26-2.81 3.53-7.27 5.26-12.09 5.26-7.78 0-12.53-4.76-12.53-11.81 0-7.92 6.48-12.46 18.07-12.46h5.4v-2.45c0-5-3.09-6.91-8.42-6.91a32 32 0 0 0-10.08 1.94l-2-5.68a38.46 38.46 0 0 1 13.32-2.6c10.23 0 15.19 4.76 15.19 12.75v17c.03 2.94.85 4.1 2.86 4.74zm-10.83-5.32v-8.43h-4.46c-7.56 0-10.52 2.67-10.52 7.13 0 4 2.16 6.19 6.41 6.19a10.17 10.17 0 0 0 8.57-4.89zm54.47-9.22c0 11.59-5 20-14.69 20a12.19 12.19 0 0 1-9.65-4.18v17.86l-8.07.93V102.6h7l.5 4.9a13.66 13.66 0 0 1 11.09-5.91c10 0 13.82 7.85 13.82 19.95zm-24.34-8.28V131a8.74 8.74 0 0 0 7.49 4.25c5.47 0 8.35-4.17 8.35-13.68 0-9.79-2.52-13.82-7.56-13.82-3.6.04-6.41 2.56-8.28 5.51zm55.87 21.46h10.37v5.9h-29.74v-5.9h11.31v-26.21h-11v-5.91h19zm-.29-45.66a5.26 5.26 0 1 1-5.25-5.11 5 5 0 0 1 5.25 5.11zm43.42 52.5c-8.86 0-13.54-5-13.54-12.46v-20.59h-8.42v-5.91h8.42v-8.49l8.07-.94v9.43h12.88l-.93 5.91h-11.95V129c0 4.1 1.94 6.05 6.62 6.05a14.45 14.45 0 0 0 7.06-1.8l2.88 5.32a21 21 0 0 1-11.09 2.99zm54.5-5.48l-1.87 5.48c-3.67-.44-6.48-1.95-7.85-5.26-2.81 3.53-7.27 5.26-12.1 5.26-7.77 0-12.52-4.76-12.52-11.81 0-7.92 6.48-12.46 18.07-12.46h5.4v-2.45c0-5-3.1-6.91-8.43-6.91a32 32 0 0 0-10.08 1.94l-2-5.68a38.46 38.46 0 0 1 13.32-2.6c10.22 0 15.19 4.76 15.19 12.75v17c-.01 2.94.86 4.1 2.87 4.74zm-10.87-5.32v-8.43h-4.47c-7.56 0-10.51 2.67-10.51 7.13 0 4 2.16 6.19 6.41 6.19a10.19 10.19 0 0 0 8.57-4.89zm38.81-.51c0 3.53 2.37 4.83 5.76 4.83a15.79 15.79 0 0 0 6.05-1.3l2 5.62a20.58 20.58 0 0 1-9.79 2.16c-7.63 0-12.1-4.54-12.1-12V93.24h-11.45v-5.9h19.52z" class="a8f0f69c-cb5a-41d5-b94f-3ee0404b7cf4"/><path d="M1077.11 764.37c-86.93 5.79-93.88 12.75-92.72 92.72l3.47 290.91c3.48 80 10.44 84.61 90.41 91.57V1272H810.53v-32.45c76.5-7 84.61-11.6 85.77-91.57l1.16-333.81c-69.55 149.52-177.34 390.6-204 457.83H661c-26.66-70.7-126.34-307.15-190.09-455.52-4.64 168.07-11.59 316.43-9.27 364 1.15 41.73 17.38 52.16 85.77 59.12v32.4H320.24v-32.45c59.11-5.8 77.66-19.71 83.45-56.8 7-42.88 18.55-194.72 24.34-345.4 2.32-53.32-5.79-66.07-88.09-73v-32.44h187.77l178.5 390.61L890.5 731.91h186.61z" class="a8398965-d704-4718-b5e1-b75fe4f73432"/></g></g></svg>