<svg xmlns="http://www.w3.org/2000/svg" viewBox="0 0 1403.99 1274.82"><defs><style>.fce37c8a-0132-4fd9-820e-c1213659ab97{fill:#b3b3b3;}.a8f0f69c-cb5a-41d5-b94f-3ee0404b7cf4{fill:#505050;}.a8398965-d704-4718-b5e1-b75fe4f73432{fill:none;stroke:#2997ff;stroke-width:5.55px;}</style></defs><g id="bd258156-f53d-4511-954d-3e3f98fcc596" data-name="Layer 2"><g id="bdf59f24-7dfd-492a-b1e2-8161faa6a3b1" data-name="Layer 1"><path d="M366.18,632.68V615.15c51.34-5,53.22-8.77,52.59-75.76l.63-255.45c-51.34,114.57-134,293.64-155.91,348.74H247.22c-21.29-57-92-229.16-139.63-342.48C97,509.34,96.32,558.8,96.32,570.7c.63,35.06,16.28,40.07,58.86,44.45v17.53H6.79V615.15c36.31-3.76,51.34-11.27,56.35-45.08C66.9,542.52,67.52,520,83.8,291.45,86.3,258.89,80,248.25,25,243.24V225.71H133.89L272.26,543.15,420.65,225.71H530.22v17.53c-53.85,6.26-60.73,11.89-59.48,55.72l2.5,240.43c2.51,67,4.39,70.12,59.48,75.76v17.53Z"/><path d="M825.1,632.68V620.13c36.76-3.59,38.1-6.28,37.65-54.24L863.2,383c-36.75,82-95.92,210.23-111.61,249.67H739.94C724.7,591.89,674,468.62,640,387.49c-7.62,156.89-8.07,192.3-8.07,200.81.45,25.11,11.65,28.69,42.13,31.83v12.55H567.81V620.13c26-2.69,36.76-8.07,40.34-32.27,2.69-19.73,3.14-35.86,14.79-199.47,1.8-23.31-2.68-30.93-42.13-34.52V341.32h78l99.07,227.26L864.1,341.32h78.44v12.55c-38.55,4.49-43.48,8.52-42.58,39.9l1.79,172.12c1.79,48,3.14,50.21,42.58,54.24v12.55Z"/><path d="M1386.23,358.44c-47,3.13-50.72,6.89-50.09,50.09L1338,565.69c1.88,43.2,5.64,45.7,48.84,49.46v17.53H1242.22V615.15c41.32-3.76,45.71-6.26,46.33-49.46l.63-180.32c-37.57,80.76-95.8,211-110.2,247.31h-17.53c-14.4-38.19-68.25-165.92-102.68-246.06-2.51,90.78-6.26,170.93-5,196.6.62,22.54,9.39,28.17,46.33,31.93v17.53H977.37V615.15c31.93-3.13,42-10.64,45.08-30.68,3.76-23.17,10-105.19,13.15-186.58,1.25-28.8-3.13-35.69-47.58-39.45V340.91h101.43l96.42,211,99.55-211h100.81Z"/><path class="fce37c8a-0132-4fd9-820e-c1213659ab97" d="M827,1272v-23.23c68.05-6.64,70.54-11.62,69.71-100.41l.83-338.56C829.53,961.7,720,1199,691,1272H669.38c-28.21-75.51-122-303.7-185-453.9-14.11,290.43-14.94,356-14.94,371.75.83,46.47,21.58,53.11,78,58.92V1272H350.74v-23.23c48.13-5,68.05-14.94,74.68-59.75,5-36.51,5.81-66.38,27.39-369.26,3.32-43.15-5-57.25-78-63.89V732.67H519.19l183.38,420.71L899.24,732.67h145.21v23.24c-71.36,8.3-80.49,15.76-78.83,73.85l3.32,318.64c3.32,88.79,5.81,92.94,78.83,100.41V1272Z"/><path class="a8f0f69c-cb5a-41d5-b94f-3ee0404b7cf4" d="M24.27,32.62l14.11,21.6H28.66L16.13,33.77h-5.4V54.22H2.38V4.54H16.2c12.75,0,19.37,4.75,19.37,14.4C35.57,26.21,30.67,30.67,24.27,32.62ZM16.71,10.73h-6V27.65h6.19c6.34,0,9.94-2.45,9.94-8.71C26.86,13.11,23.55,10.73,16.71,10.73Z"/><path class="a8f0f69c-cb5a-41d5-b94f-3ee0404b7cf4" d="M62.93,48.89a17.36,17.36,0,0,0,10-3.31l3.45,4.9a22,22,0,0,1-13.82,4.68c-11.88,0-18.36-8.07-18.36-19.95,0-11.38,6.55-20,17.35-20,10.08,0,16.42,7.2,16.42,19a25.06,25.06,0,0,1-.22,3.6H52.56C53.06,45.58,57.46,48.89,62.93,48.89ZM52.49,32.33H70.13c-.14-7.2-3.1-11.16-8.5-11.16C56.59,21.17,53,24.7,52.49,32.33Z"/><path class="a8f0f69c-cb5a-41d5-b94f-3ee0404b7cf4" d="M123.19,18.07c-3,1-6.55,1.23-11,1.23,4.53,2.09,6.91,5.11,6.91,9.72,0,7.42-5.69,12.82-15,12.82a15.74,15.74,0,0,1-5.18-.65,4,4,0,0,0-1.66,3.17c0,1.51.86,2.88,4.68,2.88h6.62c8.14,0,13.9,4.46,13.9,10.58,0,7.56-6.69,11.95-19,11.95-13.1,0-16.92-4.1-16.92-11.81h7.2c0,4,1.8,5.91,9.79,5.91s10.81-2,10.81-5.54c0-3.1-2.89-4.83-7.35-4.83h-6.55C93.17,53.5,90,50.12,90,46.16c0-2.52,1.44-5,4.18-6.84-4.54-2.38-6.49-5.69-6.49-10.66,0-8,6.49-13.47,15.85-13.47,9.14.08,13-1.58,17.57-3.81ZM95.9,28.66c0,4.75,2.6,7.92,7.78,7.92,4.82,0,7.34-2.88,7.34-8.07s-2.44-7.7-7.41-7.7C98.42,20.81,95.9,24,95.9,28.66Z"/><path class="a8f0f69c-cb5a-41d5-b94f-3ee0404b7cf4" d="M140.33,42.77c0,4.47,1.8,6.27,5.4,6.27s7-2.38,8.85-5.33V16.2h8.07v38h-7l-.5-4.9a15,15,0,0,1-11.95,5.84c-7.42,0-11-4.25-11-11.38V16.2h8.07Z"/><path class="a8f0f69c-cb5a-41d5-b94f-3ee0404b7cf4" d="M192.17,43.85c0,3.53,2.37,4.83,5.76,4.83a15.79,15.79,0,0,0,6-1.3L206,53a20.58,20.58,0,0,1-9.79,2.16c-7.63,0-12.1-4.54-12.1-12V6.84H172.65V.94h19.52Z"/><path class="a8f0f69c-cb5a-41d5-b94f-3ee0404b7cf4" d="M250.63,49.68l-1.87,5.48c-3.67-.44-6.48-1.95-7.85-5.26-2.81,3.53-7.27,5.26-12.1,5.26-7.77,0-12.53-4.76-12.53-11.81,0-7.92,6.49-12.46,18.08-12.46h5.4V28.44c0-5-3.1-6.91-8.43-6.91a32,32,0,0,0-10.08,1.94l-2-5.68a38.46,38.46,0,0,1,13.32-2.6c10.22,0,15.19,4.76,15.19,12.75v17C247.75,47.88,248.62,49,250.63,49.68Zm-10.87-5.32V35.93h-4.47c-7.56,0-10.51,2.67-10.51,7.13,0,4,2.16,6.19,6.41,6.19A10.19,10.19,0,0,0,239.76,44.36Z"/><path class="a8f0f69c-cb5a-41d5-b94f-3ee0404b7cf4" d="M294.55,16.2l-1.37,14h-5.76V22.47c-5.4.14-9.29,4.46-11.52,11.88V48.46h7.63v5.76H262.22V48.46h5.62V22h-5.62V16.2H274L275.4,25c2.88-6.34,6.84-9.72,13.39-9.72A17.12,17.12,0,0,1,294.55,16.2Z"/><path class="a8f0f69c-cb5a-41d5-b94f-3ee0404b7cf4" d="M37,95l-4.32,5.18a15.87,15.87,0,0,0-10.3-3.67c-7.41,0-13.68,5.19-13.68,19.23,0,13.75,5.91,19.08,13.76,19.08,5.32,0,8.49-2.09,11.23-4.25l4,5.11c-3.31,3.24-8.28,5.91-15.55,5.91C9.5,141.56,0,132.56,0,115.71S9.94,89.93,22,89.93C28.8,89.93,33,91.73,37,95Z"/><path class="a8f0f69c-cb5a-41d5-b94f-3ee0404b7cf4" d="M77.83,136.08,76,141.56c-3.67-.44-6.48-1.95-7.85-5.26-2.8,3.53-7.27,5.26-12.09,5.26-7.78,0-12.53-4.76-12.53-11.81,0-7.92,6.48-12.46,18.07-12.46H67v-2.45c0-5-3.09-6.91-8.42-6.91a32,32,0,0,0-10.08,1.94l-2-5.68a38.46,38.46,0,0,1,13.32-2.6C70,101.59,75,106.35,75,114.34v17C75,134.28,75.82,135.44,77.83,136.08ZM67,130.76v-8.43H62.5C54.94,122.33,52,125,52,129.46c0,4,2.16,6.19,6.41,6.19A10.17,10.17,0,0,0,67,130.76Z"/><path class="a8f0f69c-cb5a-41d5-b94f-3ee0404b7cf4" d="M121.47,121.54c0,11.59-5,20-14.69,20a12.19,12.19,0,0,1-9.65-4.18v17.86l-8.07.93V102.6h7l.5,4.9a13.66,13.66,0,0,1,11.09-5.91C117.65,101.59,121.47,109.44,121.47,121.54Zm-24.34-8.28V131a8.74,8.74,0,0,0,7.49,4.25c5.47,0,8.35-4.17,8.35-13.68,0-9.79-2.52-13.82-7.56-13.82C101.81,107.79,99,110.31,97.13,113.26Z"/><path class="a8f0f69c-cb5a-41d5-b94f-3ee0404b7cf4" d="M153,134.72h10.37v5.9H133.63v-5.9h11.31V108.51H134V102.6h19Zm-.29-45.66A5.26,5.26,0,1,1,147.46,84,5,5,0,0,1,152.71,89.06Z"/><path class="a8f0f69c-cb5a-41d5-b94f-3ee0404b7cf4" d="M196.13,141.56c-8.86,0-13.54-5-13.54-12.46V108.51h-8.42V102.6h8.42V94.11l8.07-.94v9.43h12.88l-.93,5.91h-12V129c0,4.1,1.94,6.05,6.62,6.05a14.45,14.45,0,0,0,7.06-1.8l2.88,5.32A21,21,0,0,1,196.13,141.56Z"/><path class="a8f0f69c-cb5a-41d5-b94f-3ee0404b7cf4" d="M250.63,136.08l-1.87,5.48c-3.67-.44-6.48-1.95-7.85-5.26-2.81,3.53-7.27,5.26-12.1,5.26-7.77,0-12.53-4.76-12.53-11.81,0-7.92,6.49-12.46,18.08-12.46h5.4v-2.45c0-5-3.1-6.91-8.43-6.91a32,32,0,0,0-10.08,1.94l-2-5.68a38.46,38.46,0,0,1,13.32-2.6c10.22,0,15.19,4.76,15.19,12.75v17C247.75,134.28,248.62,135.44,250.63,136.08Zm-10.87-5.32v-8.43h-4.47c-7.56,0-10.51,2.67-10.51,7.13,0,4,2.16,6.19,6.41,6.19A10.19,10.19,0,0,0,239.76,130.76Z"/><path class="a8f0f69c-cb5a-41d5-b94f-3ee0404b7cf4" d="M278.57,130.25c0,3.53,2.37,4.83,5.76,4.83a15.79,15.79,0,0,0,6.05-1.3l2,5.62a20.58,20.58,0,0,1-9.79,2.16c-7.63,0-12.1-4.54-12.1-12V93.24H259.05v-5.9h19.52Z"/><path class="a8f0f69c-cb5a-41d5-b94f-3ee0404b7cf4" d="M610.78,55.16c-8.07,0-14.12-2.52-18.29-6.63l4.61-5.11a19.21,19.21,0,0,0,13.68,5.18c5.61,0,10.29-2.66,10.29-8,0-4.39-2.23-6.48-10.15-8.86-10.58-3.09-16.06-7-16.06-14.76,0-8.13,7.28-13.46,17.07-13.46,7.13,0,12.38,2.16,16.63,6l-4.39,5a17.83,17.83,0,0,0-11.74-4.39c-5.11,0-9,2.09-9,6.41,0,3.89,2.74,5.69,11.6,8.28,8.42,2.52,14.76,6.05,14.76,15.41C629.79,49,622.8,55.16,610.78,55.16Z"/><path class="a8f0f69c-cb5a-41d5-b94f-3ee0404b7cf4" d="M667.59,45.29l3.67,5.19a21.24,21.24,0,0,1-13.32,4.68c-11.74,0-18.51-7.85-18.51-19.73,0-11.6,6.91-20.24,18.65-20.24a20,20,0,0,1,13.18,4.61l-3.75,5a16.42,16.42,0,0,0-9.28-3.17c-6.05,0-10.23,4.25-10.23,13.76s4.32,13.1,10.23,13.1A16.73,16.73,0,0,0,667.59,45.29Z"/><path class="a8f0f69c-cb5a-41d5-b94f-3ee0404b7cf4" d="M715,49.68l-1.87,5.48c-3.67-.44-6.48-1.95-7.85-5.26-2.81,3.53-7.27,5.26-12.09,5.26-7.78,0-12.53-4.76-12.53-11.81,0-7.92,6.48-12.46,18.07-12.46h5.4V28.44c0-5-3.1-6.91-8.42-6.91a32,32,0,0,0-10.08,1.94l-2-5.68A38.46,38.46,0,0,1,697,15.19c10.23,0,15.19,4.76,15.19,12.75v17C712.15,47.88,713,49,715,49.68Zm-10.87-5.32V35.93H699.7c-7.56,0-10.52,2.67-10.52,7.13,0,4,2.16,6.19,6.41,6.19A10.19,10.19,0,0,0,704.16,44.36Z"/><path class="a8f0f69c-cb5a-41d5-b94f-3ee0404b7cf4" d="M743,43.85c0,3.53,2.37,4.83,5.76,4.83a15.79,15.79,0,0,0,6-1.3l2,5.62A20.58,20.58,0,0,1,747,55.16c-7.63,0-12.1-4.54-12.1-12V6.84H723.45V.94H743Z"/><path class="a8f0f69c-cb5a-41d5-b94f-3ee0404b7cf4" d="M786.53,48.89a17.36,17.36,0,0,0,10-3.31l3.45,4.9a22.06,22.06,0,0,1-13.82,4.68c-11.88,0-18.36-8.07-18.36-19.95,0-11.38,6.55-20,17.35-20,10.08,0,16.42,7.2,16.42,19a26.6,26.6,0,0,1-.22,3.6h-25.2C776.66,45.58,781.05,48.89,786.53,48.89ZM776.09,32.33h17.64c-.15-7.2-3.1-11.16-8.5-11.16C780.19,21.17,776.59,24.7,776.09,32.33Z"/><path class="a8f0f69c-cb5a-41d5-b94f-3ee0404b7cf4" d="M843.05.94V54.22h-7.13l-.58-4.68a12.59,12.59,0,0,1-10.65,5.62c-9.8,0-14.33-8-14.33-19.95,0-11.59,5.68-20,15-20A12.23,12.23,0,0,1,835,19.37V0ZM818.93,35.21c0,9.72,2.88,13.83,7.92,13.83,3.6,0,6.26-2.45,8.13-5.48V25.63a9,9,0,0,0-7.49-4.24C822.09,21.39,818.93,25.71,818.93,35.21Z"/><path class="a8f0f69c-cb5a-41d5-b94f-3ee0404b7cf4" d="M631,95l-4.32,5.18a15.87,15.87,0,0,0-10.3-3.67c-7.41,0-13.68,5.19-13.68,19.23,0,13.75,5.91,19.08,13.76,19.08,5.32,0,8.49-2.09,11.23-4.25l4,5.11c-3.31,3.24-8.28,5.91-15.55,5.91-12.68,0-22.18-9-22.18-25.85s9.94-25.78,22-25.78C622.8,89.93,627,91.73,631,95Z"/><path class="a8f0f69c-cb5a-41d5-b94f-3ee0404b7cf4" d="M671.83,136.08,670,141.56c-3.67-.44-6.48-1.95-7.85-5.26-2.8,3.53-7.27,5.26-12.09,5.26-7.78,0-12.53-4.76-12.53-11.81,0-7.92,6.48-12.46,18.07-12.46H661v-2.45c0-5-3.09-6.91-8.42-6.91a32,32,0,0,0-10.08,1.94l-2-5.68a38.46,38.46,0,0,1,13.32-2.6c10.23,0,15.19,4.76,15.19,12.75v17C669,134.28,669.82,135.44,671.83,136.08ZM661,130.76v-8.43H656.5c-7.56,0-10.52,2.67-10.52,7.13,0,4,2.16,6.19,6.41,6.19A10.17,10.17,0,0,0,661,130.76Z"/><path class="a8f0f69c-cb5a-41d5-b94f-3ee0404b7cf4" d="M715.47,121.54c0,11.59-5,20-14.69,20a12.19,12.19,0,0,1-9.65-4.18v17.86l-8.07.93V102.6h7l.5,4.9a13.66,13.66,0,0,1,11.09-5.91C711.65,101.59,715.47,109.44,715.47,121.54Zm-24.34-8.28V131a8.74,8.74,0,0,0,7.49,4.25c5.47,0,8.35-4.17,8.35-13.68,0-9.79-2.52-13.82-7.56-13.82C695.81,107.79,693,110.31,691.13,113.26Z"/><path class="a8f0f69c-cb5a-41d5-b94f-3ee0404b7cf4" d="M747,134.72h10.37v5.9H727.63v-5.9h11.31V108.51H728V102.6h19Zm-.29-45.66A5.26,5.26,0,1,1,741.46,84,5,5,0,0,1,746.71,89.06Z"/><path class="a8f0f69c-cb5a-41d5-b94f-3ee0404b7cf4" d="M790.13,141.56c-8.86,0-13.54-5-13.54-12.46V108.51h-8.42V102.6h8.42V94.11l8.07-.94v9.43h12.88l-.93,5.91h-12V129c0,4.1,1.94,6.05,6.62,6.05a14.45,14.45,0,0,0,7.06-1.8l2.88,5.32A21,21,0,0,1,790.13,141.56Z"/><path class="a8f0f69c-cb5a-41d5-b94f-3ee0404b7cf4" d="M844.63,136.08l-1.87,5.48c-3.67-.44-6.48-1.95-7.85-5.26-2.81,3.53-7.27,5.26-12.1,5.26-7.77,0-12.52-4.76-12.52-11.81,0-7.92,6.48-12.46,18.07-12.46h5.4v-2.45c0-5-3.1-6.91-8.43-6.91a32,32,0,0,0-10.08,1.94l-2-5.68a38.46,38.46,0,0,1,13.32-2.6c10.22,0,15.19,4.76,15.19,12.75v17C841.75,134.28,842.62,135.44,844.63,136.08Zm-10.87-5.32v-8.43h-4.47c-7.56,0-10.51,2.67-10.51,7.13,0,4,2.16,6.19,6.41,6.19A10.19,10.19,0,0,0,833.76,130.76Z"/><path class="a8f0f69c-cb5a-41d5-b94f-3ee0404b7cf4" d="M872.57,130.25c0,3.53,2.37,4.83,5.76,4.83a15.79,15.79,0,0,0,6-1.3l2,5.62a20.58,20.58,0,0,1-9.79,2.16c-7.63,0-12.1-4.54-12.1-12V93.24H853.05v-5.9h19.52Z"/><path class="a8f0f69c-cb5a-41d5-b94f-3ee0404b7cf4" d="M1006.27,32.62l14.11,21.6h-9.72L998.13,33.77h-5.4V54.22h-8.35V4.54H998.2c12.75,0,19.37,4.75,19.37,14.4C1017.57,26.21,1012.67,30.67,1006.27,32.62Zm-7.56-21.89h-6V27.65h6.19c6.34,0,9.94-2.45,9.94-8.71C1008.86,13.11,1005.55,10.73,998.71,10.73Z"/><path class="a8f0f69c-cb5a-41d5-b94f-3ee0404b7cf4" d="M1044.93,48.89a17.36,17.36,0,0,0,10-3.31l3.45,4.9a22,22,0,0,1-13.82,4.68c-11.88,0-18.36-8.07-18.36-19.95,0-11.38,6.55-20,17.35-20,10.08,0,16.42,7.2,16.42,19a25.06,25.06,0,0,1-.22,3.6h-25.2C1035.06,45.58,1039.46,48.89,1044.93,48.89Zm-10.44-16.56h17.64c-.14-7.2-3.1-11.16-8.5-11.16C1038.59,21.17,1035,24.7,1034.49,32.33Z"/><path class="a8f0f69c-cb5a-41d5-b94f-3ee0404b7cf4" d="M1103,49.68l-1.87,5.48c-3.67-.44-6.48-1.95-7.85-5.26-2.81,3.53-7.27,5.26-12.09,5.26-7.78,0-12.53-4.76-12.53-11.81,0-7.92,6.48-12.46,18.07-12.46h5.4V28.44c0-5-3.1-6.91-8.42-6.91a32,32,0,0,0-10.08,1.94l-2-5.68a38.46,38.46,0,0,1,13.32-2.6c10.23,0,15.19,4.76,15.19,12.75v17C1100.15,47.88,1101,49,1103,49.68Zm-10.87-5.32V35.93h-4.46c-7.56,0-10.52,2.67-10.52,7.13,0,4,2.16,6.19,6.41,6.19A10.19,10.19,0,0,0,1092.16,44.36Z"/><path class="a8f0f69c-cb5a-41d5-b94f-3ee0404b7cf4" d="M1131,43.85c0,3.53,2.37,4.83,5.76,4.83a15.79,15.79,0,0,0,6-1.3l2,5.62a20.58,20.58,0,0,1-9.79,2.16c-7.63,0-12.1-4.54-12.1-12V6.84h-11.45V.94H1131Z"/><path class="a8f0f69c-cb5a-41d5-b94f-3ee0404b7cf4" d="M1214.77,55.16c-8.06,0-14.11-2.52-18.29-6.63l4.61-5.11a19.23,19.23,0,0,0,13.68,5.18c5.62,0,10.3-2.66,10.3-8,0-4.39-2.23-6.48-10.15-8.86-10.59-3.09-16.06-7-16.06-14.76,0-8.13,7.27-13.46,17.07-13.46,7.12,0,12.38,2.16,16.63,6l-4.39,5a17.83,17.83,0,0,0-11.74-4.39c-5.11,0-9,2.09-9,6.41,0,3.89,2.74,5.69,11.59,8.28,8.43,2.52,14.76,6.05,14.76,15.41C1233.78,49,1226.8,55.16,1214.77,55.16Z"/><path class="a8f0f69c-cb5a-41d5-b94f-3ee0404b7cf4" d="M1277.63,26V54.22h-7.13V27.07c0-4-.29-5.61-2.52-5.61-1.87,0-3.74,1.08-5.61,3.81v29h-6.56V27.07c0-4-.28-5.61-2.52-5.61-1.94,0-3.74,1.08-5.61,3.81v29h-7.2v-38h6l.57,4.11c2.16-3,4.47-5.12,8.14-5.12a6.22,6.22,0,0,1,6.48,4.83c2.16-2.88,4.68-4.83,8.35-4.83C1274.39,15.19,1277.63,17.57,1277.63,26Z"/><path class="a8f0f69c-cb5a-41d5-b94f-3ee0404b7cf4" d="M1319,49.68l-1.87,5.48c-3.67-.44-6.48-1.95-7.85-5.26-2.81,3.53-7.27,5.26-12.1,5.26-7.77,0-12.53-4.76-12.53-11.81,0-7.92,6.48-12.46,18.08-12.46h5.4V28.44c0-5-3.1-6.91-8.43-6.91a32,32,0,0,0-10.08,1.94l-2-5.68a38.46,38.46,0,0,1,13.32-2.6c10.22,0,15.19,4.76,15.19,12.75v17C1316.15,47.88,1317,49,1319,49.68Zm-10.87-5.32V35.93h-4.47c-7.56,0-10.51,2.67-10.51,7.13,0,4,2.16,6.19,6.41,6.19A10.19,10.19,0,0,0,1308.16,44.36Z"/><path class="a8f0f69c-cb5a-41d5-b94f-3ee0404b7cf4" d="M1347,43.85c0,3.53,2.38,4.83,5.76,4.83a15.71,15.71,0,0,0,6-1.3l2,5.62a20.58,20.58,0,0,1-9.79,2.16c-7.64,0-12.1-4.54-12.1-12V6.84h-11.45V.94H1347Z"/><path class="a8f0f69c-cb5a-41d5-b94f-3ee0404b7cf4" d="M1390.16,43.85c0,3.53,2.38,4.83,5.76,4.83a15.75,15.75,0,0,0,6-1.3l2,5.62a20.61,20.61,0,0,1-9.79,2.16c-7.64,0-12.1-4.54-12.1-12V6.84h-11.45V.94h19.51Z"/><path class="a8f0f69c-cb5a-41d5-b94f-3ee0404b7cf4" d="M1019,95l-4.32,5.18a15.87,15.87,0,0,0-10.3-3.67c-7.41,0-13.68,5.19-13.68,19.23,0,13.75,5.91,19.08,13.76,19.08,5.32,0,8.49-2.09,11.23-4.25l4,5.11c-3.31,3.24-8.28,5.91-15.55,5.91-12.68,0-22.18-9-22.18-25.85s9.94-25.78,22-25.78C1010.8,89.93,1015,91.73,1019,95Z"/><path class="a8f0f69c-cb5a-41d5-b94f-3ee0404b7cf4" d="M1059.83,136.08l-1.87,5.48c-3.67-.44-6.48-1.95-7.85-5.26-2.81,3.53-7.27,5.26-12.09,5.26-7.78,0-12.53-4.76-12.53-11.81,0-7.92,6.48-12.46,18.07-12.46h5.4v-2.45c0-5-3.09-6.91-8.42-6.91a32,32,0,0,0-10.08,1.94l-2-5.68a38.46,38.46,0,0,1,13.32-2.6c10.23,0,15.19,4.76,15.19,12.75v17C1057,134.28,1057.82,135.44,1059.83,136.08ZM1049,130.76v-8.43h-4.46c-7.56,0-10.52,2.67-10.52,7.13,0,4,2.16,6.19,6.41,6.19A10.17,10.17,0,0,0,1049,130.76Z"/><path class="a8f0f69c-cb5a-41d5-b94f-3ee0404b7cf4" d="M1103.47,121.54c0,11.59-5,20-14.69,20a12.19,12.19,0,0,1-9.65-4.18v17.86l-8.07.93V102.6h7l.5,4.9a13.66,13.66,0,0,1,11.09-5.91C1099.65,101.59,1103.47,109.44,1103.47,121.54Zm-24.34-8.28V131a8.74,8.74,0,0,0,7.49,4.25c5.47,0,8.35-4.17,8.35-13.68,0-9.79-2.52-13.82-7.56-13.82C1083.81,107.79,1081,110.31,1079.13,113.26Z"/><path class="a8f0f69c-cb5a-41d5-b94f-3ee0404b7cf4" d="M1135,134.72h10.37v5.9h-29.74v-5.9h11.31V108.51h-11V102.6h19Zm-.29-45.66a5.26,5.26,0,1,1-5.25-5.11A5,5,0,0,1,1134.71,89.06Z"/><path class="a8f0f69c-cb5a-41d5-b94f-3ee0404b7cf4" d="M1178.13,141.56c-8.86,0-13.54-5-13.54-12.46V108.51h-8.42V102.6h8.42V94.11l8.07-.94v9.43h12.88l-.93,5.91h-11.95V129c0,4.1,1.94,6.05,6.62,6.05a14.45,14.45,0,0,0,7.06-1.8l2.88,5.32A21,21,0,0,1,1178.13,141.56Z"/><path class="a8f0f69c-cb5a-41d5-b94f-3ee0404b7cf4" d="M1232.63,136.08l-1.87,5.48c-3.67-.44-6.48-1.95-7.85-5.26-2.81,3.53-7.27,5.26-12.1,5.26-7.77,0-12.52-4.76-12.52-11.81,0-7.92,6.48-12.46,18.07-12.46h5.4v-2.45c0-5-3.1-6.91-8.43-6.91a32,32,0,0,0-10.08,1.94l-2-5.68a38.46,38.46,0,0,1,13.32-2.6c10.22,0,15.19,4.76,15.19,12.75v17C1229.75,134.28,1230.62,135.44,1232.63,136.08Zm-10.87-5.32v-8.43h-4.47c-7.56,0-10.51,2.67-10.51,7.13,0,4,2.16,6.19,6.41,6.19A10.19,10.19,0,0,0,1221.76,130.76Z"/><path class="a8f0f69c-cb5a-41d5-b94f-3ee0404b7cf4" d="M1260.57,130.25c0,3.53,2.37,4.83,5.76,4.83a15.79,15.79,0,0,0,6.05-1.3l2,5.62a20.58,20.58,0,0,1-9.79,2.16c-7.63,0-12.1-4.54-12.1-12V93.24h-11.45v-5.9h19.52Z"/><path class="a8398965-d704-4718-b5e1-b75fe4f73432" d="M1077.11,764.37c-86.93,5.79-93.88,12.75-92.72,92.72L987.86,1148c3.48,80,10.44,84.61,90.41,91.57V1272H810.53v-32.45c76.5-7,84.61-11.6,85.77-91.57l1.16-333.81c-69.55,149.52-177.34,390.6-204,457.83H661c-26.66-70.7-126.34-307.15-190.09-455.52-4.64,168.07-11.59,316.43-9.27,364,1.15,41.73,17.38,52.16,85.77,59.12V1272H320.24v-32.45c59.11-5.8,77.66-19.71,83.45-56.8,7-42.88,18.55-194.72,24.34-345.4,2.32-53.32-5.79-66.07-88.09-73V731.91H527.71l178.5,390.61L890.5,731.91h186.61Z"/></g></g></svg>