<svg xmlns="http://www.w3.org/2000/svg" width="70" height="90" viewBox="0 0 70 90"><path d="M70 50V15L55 0H0v90h70V75h-5v10H5V5h45v15h15v30z"/><path d="M49 65.1v5.1h-3.6v-15h6c1.1 0 2.2.2 3 .6.9.4 1.6 1 2 1.8.5.8.7 1.7.7 2.6 0 1.5-.5 2.6-1.6 3.5-1 .9-2.5 1.3-4.3 1.3H49zm0-2.8h2.4c.7 0 1.2-.2 1.6-.5s.5-.8.5-1.5-.2-1.3-.6-1.7-.8-.6-1.5-.6H49v4.3zm17.1 3.9c0-.5-.2-.9-.6-1.2s-1-.6-2-.9-1.7-.6-2.3-.9c-1.9-.9-2.9-2.3-2.9-3.9 0-.8.2-1.6.7-2.2s1.2-1.1 2-1.5c.9-.4 1.9-.5 3-.5s2 .2 2.9.6c.9.4 1.5.9 2 1.6.5.7.7 1.5.7 2.4H66c0-.6-.2-1.1-.6-1.4-.4-.3-.9-.5-1.5-.5s-1.2.1-1.5.4c-.4.3-.6.6-.6 1.1 0 .4.2.7.6 1 .4.3 1.1.6 2.2 1 1 .3 1.9.7 2.5 1.1 1.6.9 2.4 2.2 2.4 3.8 0 1.3-.5 2.3-1.5 3.1s-2.3 1.1-4.1 1.1c-1.2 0-2.3-.2-3.3-.7s-1.7-1-2.2-1.8c-.5-.8-.7-1.6-.7-2.6h3.6c0 .8.2 1.4.6 1.8.4.4 1.1.6 2 .6.6 0 1.1-.1 1.4-.4.6-.3.8-.7.8-1.1z"/></svg>