<svg xmlns="http://www.w3.org/2000/svg" width="70" height="90" viewBox="0 0 70 90"><path d="M70 50V15L55 0H0v90h70V75h-5v10H5V5h45v15h15v30z"/><path d="M46.2 63c0 1.5-.3 2.7-.8 3.9-.5 1.1-1.3 2-2.3 2.6-1 .6-2.1.9-3.4.9s-2.4-.3-3.4-.9c-1-.6-1.8-1.4-2.3-2.5-.6-1.1-.8-2.3-.9-3.7v-.8c0-1.5.3-2.8.8-3.9s1.3-2 2.3-2.6c1-.6 2.1-.9 3.4-.9 1.3 0 2.4.3 3.4.9 1 .6 1.8 1.5 2.3 2.6.5 1.1.8 2.4.8 3.8.1-.1.1.6.1.6zm-3.6-.6c0-1.5-.2-2.6-.7-3.4-.5-.8-1.2-1.2-2.1-1.2-1.8 0-2.8 1.4-2.9 4.1V63c0 1.5.2 2.6.7 3.4s1.2 1.2 2.2 1.2c.9 0 1.6-.4 2.1-1.2s.7-1.9.7-3.3v-.7zM59 58h-4.5v12.2H51V58h-4.4v-2.8H59V58zm10.4 6.2h-5.8v5.9H60V55.2h10V58h-6.4v3.4h5.8v2.8z"/></svg>