<svg xmlns="http://www.w3.org/2000/svg" viewBox="0 0 71 89" width="71" height="89"><path d="M29.2 67.3l1.3-3.7.4-1.7h.1l.4 1.7 1.3 3.7h2l1.2-11.9h-2.2l-.4 6.6-.1 1.5-.3-1.3-1-3.2h-1.7l-1 3.2-.3 1.3h-.1v-1.4l-.6-6.7h-2.3l1.2 11.9zm10.1-1.5c.4.5.8 1 1.4 1.3.6.3 1.3.5 2.1.5 1.5 0 2.6-.5 3.4-1.6.8-1.1 1.1-2.6 1.1-4.5 0-.9-.1-1.7-.2-2.5-.2-.8-.4-1.4-.8-2-.4-.5-.8-1-1.4-1.3-.6-.3-1.3-.5-2.1-.5s-1.4.1-2 .4-1 .7-1.4 1.2-.7 1.2-.8 1.9c-.2.8-.3 1.6-.3 2.6 0 .9.1 1.7.2 2.5.2.8.5 1.5.8 2zm1.9-7.5c.3-.7.8-1 1.6-1 .5 0 .8.1 1.1.3.3.2.5.5.6.9s.2.8.3 1.3.1 1 .1 1.6c0 .7 0 1.3-.1 1.8s-.2.9-.3 1.3c-.2.3-.4.6-.6.8-.3.2-.6.2-1 .2s-.8-.1-1.1-.3-.5-.5-.6-.9c-.1-.4-.2-.8-.3-1.3s-.1-1-.1-1.6c0-1.4.1-2.4.4-3.1zm12.1 4.2h4.9v-2.1h-4.9v-2.9h5.3v-2.1H51v11.9h2.3zm11.9 0h4.9v-2.1h-4.9v-2.9h5.3v-2.1h-7.6v11.9h2.3z"/><path d="M70.5 49.5v-35l-15-15H.5v90h70v-15h-5v10h-60v-80h45v15h15v30z"/></svg>