<svg xmlns="http://www.w3.org/2000/svg" id="Layer_1" width="933.2" height="910.7" viewBox="0 0 933.2 910.7"><style>.st0{fill:#2997ff}.st1{fill:none}.st2{fill:#999}.st3{fill:#4c4c4c}</style><path d="M132.2 178.4c-22.5 6.3-35.6 14.2-43.9 20.5-19.5 13.2-47.4 39.1-47.4 86.4 0 34.7 11.7 56.6 27.8 72.7 13.7 13.7 40 23.4 62.5 23.4 61.5 0 81.5-41.5 84.5-54.2 0-3.4 0-10.7-2-10.7s-3.4.5-6.3 4.4c-18.1 24.9-37.1 29.3-61 29.3-17.6 0-36.1-6.8-47.8-20-11.7-12.7-21-35.6-21-62.5 0-56.1 29.3-68.8 51.8-68.8 14.6 0 29.3 8.3 40 17.1 2 2 4.4 2 6.8 2 2 0 18.1-11.7 18.1-18.1 0-6.8-1.5-11.2-14.2-16.6-5.4-2.4-12.2-4.4-23.4-5.9-3.4-.5-6.7-2.8-7.3-3.8l-15.8 3.9c-.5.4-1 .7-1.4.9zm223.1 163.1c-10.3 7.3-19.5 12.2-31.2 12.2-7.8 0-19.5-2.9-25.4-7.3-6.8-5.9-10.3-12.2-10.3-25.9 0-19.5 1-95.2 2-105.5 0-1 2.9-4.9 6.8-4.9 7.3 0 50.8-2 54.2-2 3.4 0 5.9-3.9 5.9-5.9 0-6.8 0-12.2-.5-14.6-1-4.4-2.9-4.9-5.4-4.9h-57.1c-4.4 0-5.4-2-5.4-6.3 0-2.3 0-4.6-.1-6.9h-31c-.5 2.7-1.1 5-1.7 7.4-1 3.4-2.4 5.4-6.3 7.3-6.8 3.9-29.8 13.2-29.8 19 0 2.9 2.4 3.9 6.3 5.4 1.5.5 20 .5 22.9 1.5 1.5.5 3.4 2 3.4 9.3 0 22-1 64.9-1 113.3 0 10.3 2.9 24.4 10.3 31.7 7.3 9.8 22.5 18.1 36.6 18.1 23.4 0 43-9.8 57.1-25.4 2.9-2.9 4.9-9.3 4.9-11.7.2-5.4-2.7-5.4-5.2-3.9z"/><path d="M280.6 106.6c-9.3-22.9-31.7-43.9-72.7-43.9-44.9 0-82.5 33.7-82.5 82 0 12.2 3.9 23.4 8.8 31.2.3.6-.1 1.1-.6 1.6l15.8-3.9v-.1c-2-3.9-3.9-12.7-3.9-22 0-31.2 12.2-64.9 56.6-64.9 30.3 0 57.1 21 57.1 68.4 0 6.1-.5 10.7-1.3 14.6h31c-.5-29.3-3.7-51.2-8.3-63z" class="st0"/><path d="M788.7 204.3c-20 0-31.7 4.4-37.1 8.3-2.4 2-4.9 6.3-6.3 15.1-2.4 14.6-2.9 64.9-1.5 85.4 1 8.8 2.9 17.1 6.3 21.5 13.2 18.6 35.6 28.8 48.3 28.8 5.4 0 15.6-2.4 22-8.3 24.9-20.5 32.7-57.1 32.7-71.3 0-10.7 0-37.6-20.5-59.1-12.2-13.1-32.7-20.4-43.9-20.4z" class="st1"/><path d="M609.5 177.4c-15.1 0-28.3 4.9-37.6 10.3-19 11.2-29.3 26.9-29.3 46.4 0 20.5 11.2 35.6 25.9 45.9 14.2 9.3 22.9 14.2 36.6 22 18.6 9.8 23.9 22 23.9 32.2 0 19.5-13.7 32.7-33.2 32.7-12.7 0-32.2-9.8-46.4-34.7-2.9-5.9-7.3-10.3-11.2-10.3-1.5 0-5.4 2.9-5.4 8.8 0 18.6 9.8 36.6 11.7 39.1 8.3 8.3 32.2 11.7 45.4 11.7 17.6 0 35.2-6.3 45.9-12.2 13.2-8.3 28.8-23.9 28.8-46.4 0-21-11.2-38.6-39.5-54.2-36.1-19-50.3-27.8-50.3-49.3 0-9.3 8.3-27.8 29.3-27.8 16.1 0 27.8 7.3 36.1 23.4 2.9 4.9 7.8 13.2 9.8 13.2 3.4 0 7.3-5.9 7.3-7.8 0-3.4-.5-19-1.5-24.9-.5-4.4-2-7.8-4.4-8.8-4.9-2-8.3-3.4-13.7-5.9l-3.9-2.9c-.9-1.3-1.8-2.7-2.7-4.1h-17.8c.7 2.2-.5 3.6-3.8 3.6z"/><path d="M745.7 87.6c0-23.4-3.9-27.8-10.3-25.9-8.8 2.4-28.3 2-45.4 2-43.9 0-84.5 29.3-84.5 78.1 0 8.3 2.9 22 7.3 30.8.2.4.4.9.5 1.3h17.8c-3.6-6.2-6.1-14.2-6.1-27.6 0-32.2 18.6-60.1 56.6-60.1 30.8 0 28.8 12.2 28.8 28.8v84.6l34.1-23.9c.2-32.4 1.2-57.8 1.2-88.1z" class="st0"/><path d="M868.8 206.7c-14.6-16.1-36.6-26.9-54.7-26.9-13.7 0-26.4 2.9-33.7 6.3-6.8 2.9-20 8.3-32.2 16.6-1.5 1-3.4-2.4-3.4-4.4-.1-8-.1-15.6-.1-22.8l-34.1 23.9v36c0 50.3-2.4 190.4-3.4 209.5-2 35.2-2.9 39.5-29.3 45.4-7.8 1.5-11.7 4.9-11.7 6.3 0 4.9 6.8 6.8 14.2 6.8 14.6 0 20-1.5 31.7-1.5 18.6 0 47.4 2.4 57.6 2.4 6.3 0 13.2-2.4 13.2-6.3 0-3.4-4.4-5.9-14.2-8.3-18.1-5.9-22-12.2-23.4-24.9-1.5-13.7-1.5-33.7-1.5-81 0-2.4 3.4-6.3 4.9-6.3 6.3 1 15.6 1.5 26.4 1.5 22 0 48.3-3.4 75.2-24.4 31.2-23.4 41.5-59.6 41.5-84-.1-26.8-11.3-50.7-23-63.9zm-48.4 148.5c-6.3 5.9-16.6 8.3-22 8.3-12.7 0-35.2-10.3-48.3-28.8-3.4-4.4-5.4-12.7-6.3-21.5-1.5-20.5-1-70.8 1.5-85.4 1.5-8.8 3.9-13.2 6.3-15.1 5.4-3.9 17.1-8.3 37.1-8.3 11.2 0 31.7 7.3 43.9 20.5 20.5 21.5 20.5 48.3 20.5 59.1 0 14-7.8 50.6-32.7 71.2z"/><path d="M59.1 477c0-17.1 10.1-25.8 21.7-25.8 6.8 0 10.9 2.1 14.8 5.8l-4.7 4.8c-3-2.7-6-4-9.9-4-7 0-13.2 5-13.2 19.2 0 13.9 4 19.4 11.9 19.4 3 0 5.8-.7 8.2-2.1v-13.7h-8.4l-.9-6.4H96v24.1c-4.7 2.7-9.8 4.5-16.7 4.5-12.6.1-20.2-8.6-20.2-25.8zm78.9 20.4l-1.9 5.5c-3.7-.4-6.5-1.9-7.8-5.3-2.8 3.5-7.3 5.3-12.1 5.3-7.8 0-12.5-4.8-12.5-11.8 0-7.9 6.5-12.5 18.1-12.5h5.4v-2.4c0-5-3.1-6.9-8.4-6.9-2.5 0-6.3.6-10.1 1.9l-2-5.7c4.8-1.8 9.4-2.6 13.3-2.6 10.2 0 15.2 4.8 15.2 12.7v17c-.1 3 .8 4.2 2.8 4.8zm-10.8-5.3v-8.4h-4.5c-7.6 0-10.5 2.7-10.5 7.1 0 4 2.2 6.2 6.4 6.2 3.3 0 6.7-1.8 8.6-4.9zm52.4-43.4V502h-7.1l-.6-4.7c-2.5 3.6-6.2 5.6-10.7 5.6-9.8 0-14.3-8-14.3-19.9 0-11.6 5.7-20 15-20 4 0 7.1 1.4 9.6 4.2v-19.4l8.1.9zm-24.1 34.2c0 9.7 2.9 13.8 7.9 13.8 3.6 0 6.3-2.4 8.1-5.5v-17.9c-1.9-2.7-4.4-4.2-7.5-4.2-5.3 0-8.5 4.3-8.5 13.8zm67.1 12.6l-.9 6.5h-29.2v-6l20.2-25.6h-18.6v-6.5h28.2v5.9l-20.1 25.6h20.4zm45.5-12.6c0 12.1-6.2 20-17.2 20-11.1 0-17.2-7.6-17.2-19.9 0-11.9 6.2-20 17.3-20s17.1 7.8 17.1 19.9zm-26 0c0 9.4 2.9 13.8 8.7 13.8 5.8 0 8.7-4.3 8.7-13.8 0-9.4-2.9-13.7-8.6-13.7-5.8 0-8.8 4.3-8.8 13.7zm69.2 0c0 12.1-6.2 20-17.2 20-11.1 0-17.2-7.6-17.2-19.9 0-11.9 6.2-20 17.3-20s17.1 7.8 17.1 19.9zm-26 0c0 9.4 2.9 13.8 8.7 13.8 5.8 0 8.7-4.3 8.7-13.8 0-9.4-2.9-13.7-8.6-13.7-5.8 0-8.8 4.3-8.8 13.7zm45 19h-8.1v-53.3l8.1-.9v54.2zm9.9-21l16.9 21h-9.9l-16.3-20.8 15.3-17.2h9.4l-15.4 17zm47.1 10.7c0-3.1-1.2-4.5-9.1-6.6-7.6-1.9-12.5-4.6-12.5-11.2s5.8-10.9 15.2-10.9c6.4 0 11 1.9 14.5 4.4l-3.5 5.1c-3-1.9-6.3-3.4-10.8-3.4-5.2 0-7.2 1.7-7.2 4.2 0 2.9 2.1 4 9.6 6 7.4 2 12.3 4.6 12.3 11.8 0 8.3-8.1 11.8-16.8 11.8-7.1 0-12.1-2.3-15.6-5.3l4.2-4.9c3 2.4 6.9 4.1 11.4 4.1 5.1.1 8.3-1.9 8.3-5.1zm41.7 5.8c0 3.1-2.3 5.5-5.5 5.5-3 0-5.4-2.4-5.4-5.5 0-3 2.4-5.4 5.4-5.4 3.2 0 5.5 2.5 5.5 5.4zm-2-12.6h-6.8l-1-32.5h8.8l-1 32.5zM87.6 849.5l14.1 21.6H92l-12.5-20.5h-5.4v20.5h-8.4v-49.7h13.8c12.7 0 19.4 4.8 19.4 14.4 0 7.3-4.9 11.7-11.3 13.7zM80 827.6h-6v16.9h6.2c6.3 0 9.9-2.4 9.9-8.7.1-5.8-3.2-8.2-10.1-8.2zm46.3 38.2c3.7 0 6.8-1.2 10-3.3l3.5 4.9c-3.5 2.9-8.5 4.7-13.8 4.7-11.9 0-18.4-8.1-18.4-19.9 0-11.4 6.6-20 17.4-20 10.1 0 16.4 7.2 16.4 19 0 1.3-.1 2.7-.2 3.6H116c.4 7.6 4.8 11 10.3 11zm-10.5-16.6h17.6c-.1-7.2-3.1-11.2-8.5-11.2-5 0-8.6 3.6-9.1 11.2zm70.7-14.3c-3 1-6.6 1.2-11 1.2 4.5 2.1 6.9 5.1 6.9 9.7 0 7.4-5.7 12.8-15 12.8-2.2 0-3.7-.1-5.2-.6-1 .7-1.7 1.9-1.7 3.2 0 1.5.9 2.9 4.7 2.9h6.6c8.1 0 13.9 4.5 13.9 10.6 0 7.6-6.7 12-19 12-13.1 0-16.9-4.1-16.9-11.8h7.2c0 4 1.8 5.9 9.8 5.9 7.9 0 10.8-2 10.8-5.5 0-3.1-2.9-4.8-7.3-4.8h-6.6c-7.2 0-10.4-3.4-10.4-7.3 0-2.5 1.4-5 4.2-6.8-4.5-2.4-6.5-5.7-6.5-10.7 0-8 6.5-13.5 15.8-13.5 9.1.1 13-1.6 17.6-3.8l2.1 6.5zm-27.3 10.6c0 4.8 2.6 7.9 7.8 7.9 4.8 0 7.3-2.9 7.3-8.1 0-5.1-2.4-7.7-7.4-7.7-5.2.1-7.7 3.2-7.7 7.9zm44.5 14.1c0 4.5 1.8 6.3 5.4 6.3 3.5 0 7-2.4 8.9-5.3v-27.5h8.1v38h-7l-.5-4.9c-2.8 3.8-7.5 5.8-12 5.8-7.4 0-10.9-4.2-10.9-11.4V833h8.1v26.6zm51.8 1.1c0 3.5 2.4 4.8 5.8 4.8 2.2 0 4.1-.5 6-1.3l2 5.6c-2.2 1.2-5.5 2.2-9.8 2.2-7.6 0-12.1-4.5-12.1-12v-36.3H236v-5.9h19.5v42.9zm58.5 5.8l-1.9 5.5c-3.7-.4-6.5-1.9-7.8-5.3-2.8 3.5-7.3 5.3-12.1 5.3-7.8 0-12.5-4.8-12.5-11.8 0-7.9 6.5-12.5 18.1-12.5h5.4v-2.4c0-5-3.1-6.9-8.4-6.9-2.5 0-6.3.6-10.1 1.9l-2-5.7c4.8-1.8 9.4-2.6 13.3-2.6 10.2 0 15.2 4.8 15.2 12.7v17c-.1 3 .7 4.2 2.8 4.8zm-10.9-5.3v-8.4h-4.5c-7.6 0-10.5 2.7-10.5 7.1 0 4 2.2 6.2 6.4 6.2 3.3 0 6.7-1.8 8.6-4.9zm54.8-28.1l-1.4 14h-5.8v-7.8c-5.4.1-9.3 4.5-11.5 11.9v14.1h7.6v5.8h-21.3v-5.8h5.6v-26.5h-5.6V833h11.7l1.4 8.8c2.9-6.3 6.8-9.7 13.4-9.7 2.4 0 4.1.4 5.9 1zm55.9-11.7h8.3v42.7h22.3l-.9 7h-29.7v-49.7zm61.7 43.8h10.4v5.9h-29.7v-5.9h11.3V839h-10.9v-5.9h19v32.1zm-.3-45.7c0 2.9-2.2 5-5.3 5-3.2 0-5.3-2.2-5.3-5 0-2.9 2.1-5.1 5.3-5.1 3.2 0 5.3 2.2 5.3 5.1zm56.9 15.4c-3 1-6.6 1.2-11 1.2 4.5 2.1 6.9 5.1 6.9 9.7 0 7.4-5.7 12.8-15 12.8-2.2 0-3.7-.1-5.2-.6-1 .7-1.7 1.9-1.7 3.2 0 1.5.9 2.9 4.7 2.9h6.6c8.1 0 13.9 4.5 13.9 10.6 0 7.6-6.7 12-19 12-13.1 0-16.9-4.1-16.9-11.8h7.2c0 4 1.8 5.9 9.8 5.9 7.9 0 10.8-2 10.8-5.5 0-3.1-2.9-4.8-7.3-4.8h-6.6c-7.2 0-10.4-3.4-10.4-7.3 0-2.5 1.4-5 4.2-6.8-4.5-2.4-6.5-5.7-6.5-10.7 0-8 6.5-13.5 15.8-13.5 9.1.1 13-1.6 17.6-3.8l2.1 6.5zm-27.3 10.6c0 4.8 2.6 7.9 7.8 7.9 4.8 0 7.3-2.9 7.3-8.1 0-5.1-2.4-7.7-7.4-7.7-5.2.1-7.7 3.2-7.7 7.9zm68.4 21l-1.9 5.5c-3.7-.4-6.5-1.9-7.8-5.3-2.8 3.5-7.3 5.3-12.1 5.3-7.8 0-12.5-4.8-12.5-11.8 0-7.9 6.5-12.5 18.1-12.5h5.4v-2.4c0-5-3.1-6.9-8.4-6.9-2.5 0-6.3.6-10.1 1.9l-2-5.7c4.8-1.8 9.4-2.6 13.3-2.6 10.2 0 15.2 4.8 15.2 12.7v17c-.1 3 .7 4.2 2.8 4.8zm-10.9-5.3v-8.4h-4.5c-7.6 0-10.5 2.7-10.5 7.1 0 4 2.2 6.2 6.4 6.2 3.3 0 6.7-1.8 8.6-4.9zM605 872c-8.9 0-13.5-5-13.5-12.5V839h-8.4v-5.9h8.4v-8.5l8.1-.9v9.4h12.9l-.9 5.9h-12v20.5c0 4.1 1.9 6 6.6 6 2.7 0 5.1-.7 7.1-1.8l2.9 5.3c-2.9 1.9-6.9 3-11.2 3zm30.6-12.4c0 4.5 1.8 6.3 5.4 6.3 3.5 0 7-2.4 8.9-5.3v-27.5h8.1v38h-7l-.5-4.9c-2.8 3.8-7.5 5.8-12 5.8-7.4 0-10.9-4.2-10.9-11.4V833h8.1v26.6zm67.9-26.5l-1.4 14h-5.8v-7.8c-5.4.1-9.3 4.5-11.5 11.9v14.1h7.6v5.8h-21.3v-5.8h5.6v-26.5h-5.6V833h11.7l1.4 8.8c2.9-6.3 6.8-9.7 13.4-9.7 2.4 0 4.1.4 5.9 1zm27.5 32.7c3.7 0 6.8-1.2 10-3.3l3.5 4.9c-3.5 2.9-8.5 4.7-13.8 4.7-11.9 0-18.4-8.1-18.4-19.9 0-11.4 6.6-20 17.4-20 10.1 0 16.4 7.2 16.4 19 0 1.3-.1 2.7-.2 3.6h-25.2c.5 7.6 4.9 11 10.3 11zm-10.4-16.6h17.6c-.1-7.2-3.1-11.2-8.5-11.2-5 0-8.6 3.6-9.1 11.2z" class="st2"/><path d="M108.6 695.7c-1.9 0-2.8 3-2.8 6.3 0 4.4 0 58.6 1.1 65.5.8 8.5 3.6 12.9 13.2 15.7 5 1.4 7.4 2.8 7.4 5s-3.9 3.6-8 3.6c-3.6 0-20.4-1.1-25.9-1.1-9.1 0-18.4 1.4-20.6 1.4-3.3 0-6.3-1.4-6.3-3.3 0-1.4 2.8-3.6 5.8-4.4 12.1-3.6 12.4-6.1 13.2-18.7-.3-8.5.6-52 0-65.8 0-1.4-1.4-2.8-3-3l-9.9-.3c-1.9 0-3-2.2-3-5 .3-1.1 9.4-5.5 12.9-8 2.5-1.7 3.6-2.5 3.6-4.7 0-13.8 3-26.7 7.7-36.9 5.2-11.3 15.4-22.8 27-30 6.6-4.4 19.3-10.7 32.2-10.7 13.8 0 23.9 4.4 29.7 10.5.6.8 1.7.5 2.2 0 9.6-9.9 25.6-17.6 39.9-17.6 18.4 0 25.3 7.4 28.9 12.4 1.7 2.5 2.2 3.9 2.2 6.3 0 6.6-10.5 13.5-14 13.5-1.4 0-5-3.6-10.5-8.5-6.1-6.3-13.2-9.6-21.7-9.9-6.9 0-11.8 2.5-17.1 8.3-6.6 7.7-13.8 25.9-13.8 64.1 0 .8 0 3 2.2 3h26.4c24.5.3 28.9-1.7 33.9-3 2.8-.8 5-1.9 7.4-1.9 1.7 0 1.7 8 1.7 23.7 0 53.9 0 63.3.8 72.4.6 5.2 3.6 6.9 12.1 9.4 5.2 1.7 5.8 2.8 5.8 4.7 0 2.2-3 3-6.3 3-6.9 0-14-.8-21.5-.8-9.1 0-17.1 1.1-23.4 1.1-3 0-5.2-1.1-5.2-3.3 0-1.7 1.4-2.8 5.8-4.4 7.4-3 10.2-5 10.5-9.6 1.1-17.1 1.4-65.5 1.4-74 0-1.7-1.7-3.9-2.8-3.9-7.7-.8-35-.8-47.3-.3-.3 0-1.9.8-1.9 2.8 0 6.3.3 65 .5 68.5 0 10.5-.8 13.2 16.2 16.8 5 1.1 6.1 3.3 6.1 4.4 0 1.9-3.6 3-6.9 3s-19.3-1.1-26.7-1.1c-9.4 0-16.5 1.1-23.1 1.1-3 0-6.1-1.1-6.1-3s3-3.6 5.5-4.1c12.1-3.3 13.8-6.3 13.8-19.3 0-9.4.5-50.9.5-67.2 0-1.1-1.7-2.5-2.5-2.5h-47.3zm47.3-12.4c1.1 0 2.5-1.1 2.5-2.2 0-21.2 6.1-39.6 12.7-51.7.3-.6 0-2.2-.6-3-5-6.1-15.1-12.9-31.7-12.9-7.7 0-15.7 4.7-21.7 13.2-6.1 7.7-11 25.3-11 53.4 0 1.1.8 3.3 2.8 3.3h47z" class="st3"/></svg>