<svg xmlns="http://www.w3.org/2000/svg" viewBox="0 0 1397 625.23"><defs><style>.a6264c62-c6f5-41fc-b68d-cacf597cda39{fill:#505050;}.bdb25e1d-7d95-4979-bf34-b564433c3ecf{fill:#2997ff;}</style></defs><g id="a68faca6-358c-4a59-94e0-a045b758e363" data-name="Layer 2"><g id="e2778cb2-8364-4e38-978c-946f858687c4" data-name="Layer 1"><path class="a6264c62-c6f5-41fc-b68d-cacf597cda39" d="M199.94,184.18q11.48-24.33,29.23-36t42.75-11.66q45.63,0,64.38,35.32t18.76,133V524.16H298.28V307.54q0-80.1-9-99.53t-32.61-19.43q-27,0-37,20.78t-10,98.18V524.16H153V307.54q0-81.12-9.63-100t-34.64-18.92q-24.68,0-34.3,20.78t-9.63,98.18V524.16H8.32V145.66H64.76V178.1q11.14-20.28,27.88-30.92t38-10.65q25.68,0,42.75,11.83T199.94,184.18Z"/><path class="a6264c62-c6f5-41fc-b68d-cacf597cda39" d="M495,147H654.14V475.84H777.5v48.32H468.61V475.84H592V195.34H495ZM592,0h62.18V78.4H592Z"/><path class="a6264c62-c6f5-41fc-b68d-cacf597cda39" d="M1279.6,145.66,1144.08,326.8l148.7,197.36h-72L1110,372.42,999.44,524.16h-72l148.7-197.36L940.63,145.66h68.94L1110,282.53l99.69-136.87Z"/><path class="bdb25e1d-7d95-4979-bf34-b564433c3ecf" d="M0,619.23a6,6,0,0,1,6-6H6a6,6,0,0,1,6,6h0a6,6,0,0,1-6,6H6A6,6,0,0,1,0,619.23Zm0-20a6,6,0,0,1,6-6H6a6,6,0,0,1,6,6h0a6,6,0,0,1-6,6H6A6,6,0,0,1,0,599.23Zm0-20a6,6,0,0,1,6-6H6a6,6,0,0,1,6,6h0a6,6,0,0,1-6,6H6A6,6,0,0,1,0,579.23Zm0-20a6,6,0,0,1,6-6H6a6,6,0,0,1,6,6h0a6,6,0,0,1-6,6H6A6,6,0,0,1,0,559.23Zm0-20a6,6,0,0,1,6-6H6a6,6,0,0,1,6,6h0a6,6,0,0,1-6,6H6A6,6,0,0,1,0,539.23Zm0-20a6,6,0,0,1,6-6H6a6,6,0,0,1,6,6h0a6,6,0,0,1-6,6H6A6,6,0,0,1,0,519.23Zm0-20a6,6,0,0,1,6-6H6a6,6,0,0,1,6,6h0a6,6,0,0,1-6,6H6A6,6,0,0,1,0,499.23Zm0-20a6,6,0,0,1,6-6H6a6,6,0,0,1,6,6h0a6,6,0,0,1-6,6H6A6,6,0,0,1,0,479.23Zm0-20a6,6,0,0,1,6-6H6a6,6,0,0,1,6,6h0a6,6,0,0,1-6,6H6A6,6,0,0,1,0,459.23Zm0-20a6,6,0,0,1,6-6H6a6,6,0,0,1,6,6h0a6,6,0,0,1-6,6H6A6,6,0,0,1,0,439.23Zm0-20a6,6,0,0,1,6-6H6a6,6,0,0,1,6,6h0a6,6,0,0,1-6,6H6A6,6,0,0,1,0,419.23Zm0-20a6,6,0,0,1,6-6H6a6,6,0,0,1,6,6h0a6,6,0,0,1-6,6H6A6,6,0,0,1,0,399.23Zm0-20a6,6,0,0,1,6-6H6a6,6,0,0,1,6,6h0a6,6,0,0,1-6,6H6A6,6,0,0,1,0,379.23Zm0-20a6,6,0,0,1,6-6H6a6,6,0,0,1,6,6h0a6,6,0,0,1-6,6H6A6,6,0,0,1,0,359.23Zm0-20a6,6,0,0,1,6-6H6a6,6,0,0,1,6,6h0a6,6,0,0,1-6,6H6A6,6,0,0,1,0,339.23Zm0-20a6,6,0,0,1,6-6H6a6,6,0,0,1,6,6h0a6,6,0,0,1-6,6H6A6,6,0,0,1,0,319.23Zm0-20a6,6,0,0,1,6-6H6a6,6,0,0,1,6,6h0a6,6,0,0,1-6,6H6A6,6,0,0,1,0,299.23Zm0-20a6,6,0,0,1,6-6H6a6,6,0,0,1,6,6h0a6,6,0,0,1-6,6H6A6,6,0,0,1,0,279.23Zm0-20a6,6,0,0,1,6-6H6a6,6,0,0,1,6,6h0a6,6,0,0,1-6,6H6A6,6,0,0,1,0,259.23Zm0-20a6,6,0,0,1,6-6H6a6,6,0,0,1,6,6h0a6,6,0,0,1-6,6H6A6,6,0,0,1,0,239.23Zm0-20a6,6,0,0,1,6-6H6a6,6,0,0,1,6,6h0a6,6,0,0,1-6,6H6A6,6,0,0,1,0,219.23Zm0-20a6,6,0,0,1,6-6H6a6,6,0,0,1,6,6h0a6,6,0,0,1-6,6H6A6,6,0,0,1,0,199.23Zm0-20a6,6,0,0,1,6-6H6a6,6,0,0,1,6,6h0a6,6,0,0,1-6,6H6A6,6,0,0,1,0,179.23Zm0-20a6,6,0,0,1,6-6H6a6,6,0,0,1,6,6h0a6,6,0,0,1-6,6H6A6,6,0,0,1,0,159.23Zm0-20a6,6,0,0,1,6-6H6a6,6,0,0,1,6,6h0a6,6,0,0,1-6,6H6A6,6,0,0,1,0,139.23Zm0-20a6,6,0,0,1,6-6H6a6,6,0,0,1,6,6h0a6,6,0,0,1-6,6H6A6,6,0,0,1,0,119.23Zm0-20a6,6,0,0,1,6-6H6a6,6,0,0,1,6,6h0a6,6,0,0,1-6,6H6A6,6,0,0,1,0,99.23Zm0-20a6,6,0,0,1,6-6H6a6,6,0,0,1,6,6h0a6,6,0,0,1-6,6H6A6,6,0,0,1,0,79.23Z"/><path class="bdb25e1d-7d95-4979-bf34-b564433c3ecf" d="M463,619.23a6,6,0,0,1,6-6h0a6,6,0,0,1,6,6h0a6,6,0,0,1-6,6h0A6,6,0,0,1,463,619.23Zm0-20a6,6,0,0,1,6-6h0a6,6,0,0,1,6,6h0a6,6,0,0,1-6,6h0A6,6,0,0,1,463,599.23Zm0-20a6,6,0,0,1,6-6h0a6,6,0,0,1,6,6h0a6,6,0,0,1-6,6h0A6,6,0,0,1,463,579.23Zm0-20a6,6,0,0,1,6-6h0a6,6,0,0,1,6,6h0a6,6,0,0,1-6,6h0A6,6,0,0,1,463,559.23Zm0-20a6,6,0,0,1,6-6h0a6,6,0,0,1,6,6h0a6,6,0,0,1-6,6h0A6,6,0,0,1,463,539.23Zm0-20a6,6,0,0,1,6-6h0a6,6,0,0,1,6,6h0a6,6,0,0,1-6,6h0A6,6,0,0,1,463,519.23Zm0-20a6,6,0,0,1,6-6h0a6,6,0,0,1,6,6h0a6,6,0,0,1-6,6h0A6,6,0,0,1,463,499.23Zm0-20a6,6,0,0,1,6-6h0a6,6,0,0,1,6,6h0a6,6,0,0,1-6,6h0A6,6,0,0,1,463,479.23Zm0-20a6,6,0,0,1,6-6h0a6,6,0,0,1,6,6h0a6,6,0,0,1-6,6h0A6,6,0,0,1,463,459.23Zm0-20a6,6,0,0,1,6-6h0a6,6,0,0,1,6,6h0a6,6,0,0,1-6,6h0A6,6,0,0,1,463,439.23Zm0-20a6,6,0,0,1,6-6h0a6,6,0,0,1,6,6h0a6,6,0,0,1-6,6h0A6,6,0,0,1,463,419.23Zm0-20a6,6,0,0,1,6-6h0a6,6,0,0,1,6,6h0a6,6,0,0,1-6,6h0A6,6,0,0,1,463,399.23Zm0-20a6,6,0,0,1,6-6h0a6,6,0,0,1,6,6h0a6,6,0,0,1-6,6h0A6,6,0,0,1,463,379.23Zm0-20a6,6,0,0,1,6-6h0a6,6,0,0,1,6,6h0a6,6,0,0,1-6,6h0A6,6,0,0,1,463,359.23Zm0-20a6,6,0,0,1,6-6h0a6,6,0,0,1,6,6h0a6,6,0,0,1-6,6h0A6,6,0,0,1,463,339.23Zm0-20a6,6,0,0,1,6-6h0a6,6,0,0,1,6,6h0a6,6,0,0,1-6,6h0A6,6,0,0,1,463,319.23Zm0-20a6,6,0,0,1,6-6h0a6,6,0,0,1,6,6h0a6,6,0,0,1-6,6h0A6,6,0,0,1,463,299.23Zm0-20a6,6,0,0,1,6-6h0a6,6,0,0,1,6,6h0a6,6,0,0,1-6,6h0A6,6,0,0,1,463,279.23Zm0-20a6,6,0,0,1,6-6h0a6,6,0,0,1,6,6h0a6,6,0,0,1-6,6h0A6,6,0,0,1,463,259.23Zm0-20a6,6,0,0,1,6-6h0a6,6,0,0,1,6,6h0a6,6,0,0,1-6,6h0A6,6,0,0,1,463,239.23Zm0-20a6,6,0,0,1,6-6h0a6,6,0,0,1,6,6h0a6,6,0,0,1-6,6h0A6,6,0,0,1,463,219.23Zm0-20a6,6,0,0,1,6-6h0a6,6,0,0,1,6,6h0a6,6,0,0,1-6,6h0A6,6,0,0,1,463,199.23Zm0-20a6,6,0,0,1,6-6h0a6,6,0,0,1,6,6h0a6,6,0,0,1-6,6h0A6,6,0,0,1,463,179.23Zm0-20a6,6,0,0,1,6-6h0a6,6,0,0,1,6,6h0a6,6,0,0,1-6,6h0A6,6,0,0,1,463,159.23Zm0-20a6,6,0,0,1,6-6h0a6,6,0,0,1,6,6h0a6,6,0,0,1-6,6h0A6,6,0,0,1,463,139.23Zm0-20a6,6,0,0,1,6-6h0a6,6,0,0,1,6,6h0a6,6,0,0,1-6,6h0A6,6,0,0,1,463,119.23Zm0-20a6,6,0,0,1,6-6h0a6,6,0,0,1,6,6h0a6,6,0,0,1-6,6h0A6,6,0,0,1,463,99.23Zm0-20a6,6,0,0,1,6-6h0a6,6,0,0,1,6,6h0a6,6,0,0,1-6,6h0A6,6,0,0,1,463,79.23Z"/><path class="bdb25e1d-7d95-4979-bf34-b564433c3ecf" d="M926,619.23a6,6,0,0,1,6-6h0a6,6,0,0,1,6,6h0a6,6,0,0,1-6,6h0A6,6,0,0,1,926,619.23Zm0-20a6,6,0,0,1,6-6h0a6,6,0,0,1,6,6h0a6,6,0,0,1-6,6h0A6,6,0,0,1,926,599.23Zm0-20a6,6,0,0,1,6-6h0a6,6,0,0,1,6,6h0a6,6,0,0,1-6,6h0A6,6,0,0,1,926,579.23Zm0-20a6,6,0,0,1,6-6h0a6,6,0,0,1,6,6h0a6,6,0,0,1-6,6h0A6,6,0,0,1,926,559.23Zm0-20a6,6,0,0,1,6-6h0a6,6,0,0,1,6,6h0a6,6,0,0,1-6,6h0A6,6,0,0,1,926,539.23Zm0-20a6,6,0,0,1,6-6h0a6,6,0,0,1,6,6h0a6,6,0,0,1-6,6h0A6,6,0,0,1,926,519.23Zm0-20a6,6,0,0,1,6-6h0a6,6,0,0,1,6,6h0a6,6,0,0,1-6,6h0A6,6,0,0,1,926,499.23Zm0-20a6,6,0,0,1,6-6h0a6,6,0,0,1,6,6h0a6,6,0,0,1-6,6h0A6,6,0,0,1,926,479.23Zm0-20a6,6,0,0,1,6-6h0a6,6,0,0,1,6,6h0a6,6,0,0,1-6,6h0A6,6,0,0,1,926,459.23Zm0-20a6,6,0,0,1,6-6h0a6,6,0,0,1,6,6h0a6,6,0,0,1-6,6h0A6,6,0,0,1,926,439.23Zm0-20a6,6,0,0,1,6-6h0a6,6,0,0,1,6,6h0a6,6,0,0,1-6,6h0A6,6,0,0,1,926,419.23Zm0-20a6,6,0,0,1,6-6h0a6,6,0,0,1,6,6h0a6,6,0,0,1-6,6h0A6,6,0,0,1,926,399.23Zm0-20a6,6,0,0,1,6-6h0a6,6,0,0,1,6,6h0a6,6,0,0,1-6,6h0A6,6,0,0,1,926,379.23Zm0-20a6,6,0,0,1,6-6h0a6,6,0,0,1,6,6h0a6,6,0,0,1-6,6h0A6,6,0,0,1,926,359.23Zm0-20a6,6,0,0,1,6-6h0a6,6,0,0,1,6,6h0a6,6,0,0,1-6,6h0A6,6,0,0,1,926,339.23Zm0-20a6,6,0,0,1,6-6h0a6,6,0,0,1,6,6h0a6,6,0,0,1-6,6h0A6,6,0,0,1,926,319.23Zm0-20a6,6,0,0,1,6-6h0a6,6,0,0,1,6,6h0a6,6,0,0,1-6,6h0A6,6,0,0,1,926,299.23Zm0-20a6,6,0,0,1,6-6h0a6,6,0,0,1,6,6h0a6,6,0,0,1-6,6h0A6,6,0,0,1,926,279.23Zm0-20a6,6,0,0,1,6-6h0a6,6,0,0,1,6,6h0a6,6,0,0,1-6,6h0A6,6,0,0,1,926,259.23Zm0-20a6,6,0,0,1,6-6h0a6,6,0,0,1,6,6h0a6,6,0,0,1-6,6h0A6,6,0,0,1,926,239.23Zm0-20a6,6,0,0,1,6-6h0a6,6,0,0,1,6,6h0a6,6,0,0,1-6,6h0A6,6,0,0,1,926,219.23Zm0-20a6,6,0,0,1,6-6h0a6,6,0,0,1,6,6h0a6,6,0,0,1-6,6h0A6,6,0,0,1,926,199.23Zm0-20a6,6,0,0,1,6-6h0a6,6,0,0,1,6,6h0a6,6,0,0,1-6,6h0A6,6,0,0,1,926,179.23Zm0-20a6,6,0,0,1,6-6h0a6,6,0,0,1,6,6h0a6,6,0,0,1-6,6h0A6,6,0,0,1,926,159.23Zm0-20a6,6,0,0,1,6-6h0a6,6,0,0,1,6,6h0a6,6,0,0,1-6,6h0A6,6,0,0,1,926,139.23Zm0-20a6,6,0,0,1,6-6h0a6,6,0,0,1,6,6h0a6,6,0,0,1-6,6h0A6,6,0,0,1,926,119.23Zm0-20a6,6,0,0,1,6-6h0a6,6,0,0,1,6,6h0a6,6,0,0,1-6,6h0A6,6,0,0,1,926,99.23Zm0-20a6,6,0,0,1,6-6h0a6,6,0,0,1,6,6h0a6,6,0,0,1-6,6h0A6,6,0,0,1,926,79.23Z"/><path class="bdb25e1d-7d95-4979-bf34-b564433c3ecf" d="M1385,619.23a6,6,0,0,1,6-6h0a6,6,0,0,1,6,6h0a6,6,0,0,1-6,6h0A6,6,0,0,1,1385,619.23Zm0-20a6,6,0,0,1,6-6h0a6,6,0,0,1,6,6h0a6,6,0,0,1-6,6h0A6,6,0,0,1,1385,599.23Zm0-20a6,6,0,0,1,6-6h0a6,6,0,0,1,6,6h0a6,6,0,0,1-6,6h0A6,6,0,0,1,1385,579.23Zm0-20a6,6,0,0,1,6-6h0a6,6,0,0,1,6,6h0a6,6,0,0,1-6,6h0A6,6,0,0,1,1385,559.23Zm0-20a6,6,0,0,1,6-6h0a6,6,0,0,1,6,6h0a6,6,0,0,1-6,6h0A6,6,0,0,1,1385,539.23Zm0-20a6,6,0,0,1,6-6h0a6,6,0,0,1,6,6h0a6,6,0,0,1-6,6h0A6,6,0,0,1,1385,519.23Zm0-20a6,6,0,0,1,6-6h0a6,6,0,0,1,6,6h0a6,6,0,0,1-6,6h0A6,6,0,0,1,1385,499.23Zm0-20a6,6,0,0,1,6-6h0a6,6,0,0,1,6,6h0a6,6,0,0,1-6,6h0A6,6,0,0,1,1385,479.23Zm0-20a6,6,0,0,1,6-6h0a6,6,0,0,1,6,6h0a6,6,0,0,1-6,6h0A6,6,0,0,1,1385,459.23Zm0-20a6,6,0,0,1,6-6h0a6,6,0,0,1,6,6h0a6,6,0,0,1-6,6h0A6,6,0,0,1,1385,439.23Zm0-20a6,6,0,0,1,6-6h0a6,6,0,0,1,6,6h0a6,6,0,0,1-6,6h0A6,6,0,0,1,1385,419.23Zm0-20a6,6,0,0,1,6-6h0a6,6,0,0,1,6,6h0a6,6,0,0,1-6,6h0A6,6,0,0,1,1385,399.23Zm0-20a6,6,0,0,1,6-6h0a6,6,0,0,1,6,6h0a6,6,0,0,1-6,6h0A6,6,0,0,1,1385,379.23Zm0-20a6,6,0,0,1,6-6h0a6,6,0,0,1,6,6h0a6,6,0,0,1-6,6h0A6,6,0,0,1,1385,359.23Zm0-20a6,6,0,0,1,6-6h0a6,6,0,0,1,6,6h0a6,6,0,0,1-6,6h0A6,6,0,0,1,1385,339.23Zm0-20a6,6,0,0,1,6-6h0a6,6,0,0,1,6,6h0a6,6,0,0,1-6,6h0A6,6,0,0,1,1385,319.23Zm0-20a6,6,0,0,1,6-6h0a6,6,0,0,1,6,6h0a6,6,0,0,1-6,6h0A6,6,0,0,1,1385,299.23Zm0-20a6,6,0,0,1,6-6h0a6,6,0,0,1,6,6h0a6,6,0,0,1-6,6h0A6,6,0,0,1,1385,279.23Zm0-20a6,6,0,0,1,6-6h0a6,6,0,0,1,6,6h0a6,6,0,0,1-6,6h0A6,6,0,0,1,1385,259.23Zm0-20a6,6,0,0,1,6-6h0a6,6,0,0,1,6,6h0a6,6,0,0,1-6,6h0A6,6,0,0,1,1385,239.23Zm0-20a6,6,0,0,1,6-6h0a6,6,0,0,1,6,6h0a6,6,0,0,1-6,6h0A6,6,0,0,1,1385,219.23Zm0-20a6,6,0,0,1,6-6h0a6,6,0,0,1,6,6h0a6,6,0,0,1-6,6h0A6,6,0,0,1,1385,199.23Zm0-20a6,6,0,0,1,6-6h0a6,6,0,0,1,6,6h0a6,6,0,0,1-6,6h0A6,6,0,0,1,1385,179.23Zm0-20a6,6,0,0,1,6-6h0a6,6,0,0,1,6,6h0a6,6,0,0,1-6,6h0A6,6,0,0,1,1385,159.23Zm0-20a6,6,0,0,1,6-6h0a6,6,0,0,1,6,6h0a6,6,0,0,1-6,6h0A6,6,0,0,1,1385,139.23Zm0-20a6,6,0,0,1,6-6h0a6,6,0,0,1,6,6h0a6,6,0,0,1-6,6h0A6,6,0,0,1,1385,119.23Zm0-20a6,6,0,0,1,6-6h0a6,6,0,0,1,6,6h0a6,6,0,0,1-6,6h0A6,6,0,0,1,1385,99.23Zm0-20a6,6,0,0,1,6-6h0a6,6,0,0,1,6,6h0a6,6,0,0,1-6,6h0A6,6,0,0,1,1385,79.23Z"/></g></g></svg>