<svg xmlns="http://www.w3.org/2000/svg" id="Layer_1" viewBox="0 0 1440 1712.3" width="1440" height="1712.3"><style>.st0{fill:none;stroke:#b3b3b3;stroke-width:1.2217;stroke-miterlimit:10}.st1{fill:#999}.st2{fill:none;stroke:#2997ff;stroke-width:7.3302;stroke-miterlimit:10}</style><path d="M93.5 610.2c29.1 0 34 .9 59.9.9.9 0 4.5 3.6 4.9 5.8 5.4 16.5 8.1 21.5 17 40.7 25 52.8 76.9 160.1 83.2 168.6.9 1.3 3.6 2.7 4.5 1.3 4-7.6 87.7-165.5 94.8-184.3.4-1.8 7.6-17 10.3-25.9.4-2.2 4-6.3 4.9-6.3 16.1 0 52.3-1.3 56.4-1.3 5.8 0 11.6.9 11.6 4.9 0 3.1-3.6 5.8-11.6 7.2-7.2 1.3-13.4 3.1-20.1 5.8-6.7 2.7-13.9 11.2-13.9 34.4 0 124.3 4.9 181.1 6.3 193.7 2.7 20.1 7.6 24.6 29.1 30.9 8.1 1.8 12.1 5.4 12.1 8.5 0 3.6-6.3 5.8-13 5.8-4.9 0-39.4-2.2-55.9-2.2-8.5 0-23.3 1.3-34 1.3-4.9 0-12.1-1.8-12.1-6.3 0-4 5.4-6.3 11.6-8.1 18.3-5.4 19.2-15.7 20.6-32.2 1.8-20.1.9-149.8-.4-172.6 0-3.1-1.8-5.8-4.5-1.3-4.9 8.5-55 106.9-72.5 143.6-10.7 23.3-21 46.5-27.7 64-4.9 13-7.2 12.5-10.3 12.5-2.7 0-5.4-3.6-6.7-8.5-3.1-11.2-8.1-25.9-16.5-47.4-24.2-59-60.8-129.7-77.4-167.7-1.3-3.1-2.7-3.6-3.1 1.3-3.6 18.8-8.5 131.5-7.2 172.6.9 22.8 4.5 29.1 27.3 36.2 9.8 2.7 12.1 4.5 12.1 8.5 0 3.6-4.9 5.4-12.1 5.4-14.3 0-33.1-1.3-44.7-1.3-10.7 0-24.6 1.3-35.8 1.3-6.7 0-11.6-1.3-11.6-6.3 0-1.8 3.1-4.9 8.9-6.3 27.7-8.1 30.4-15.7 34-41.1 4.5-30.9 14.3-159.7 15.2-193.2 0-3.6-.9-20.6-20.1-25.9-7.6-2.2-13.4-4-19.2-5.4-3.1-.9-7.2-4-7.2-7.2-.1-4.4 3.1-4.4 12.9-4.4zm682.1 140.9c0 62.6-30.9 106.5-63.5 129.7-28.2 19.7-65.3 25.9-88.1 25.9-45.6 0-89-19.7-116.3-51-23.7-26.4-37.1-62.6-37.1-101.1 0-55 24.2-93 58.1-120.3 21.9-17.9 60.4-31.3 91.7-31.3 85.9.1 155.2 63.2 155.2 148.1zM548.8 643.3c-19.7 19.2-34.9 52.8-34.9 105.1 0 66.6 49.2 143.1 120.8 143.1 37.1 0 54.1-16.1 59-21.5 17.9-16.1 38-52.3 38-105.6 0-48.8-21-95.7-54.1-122.6-18.3-14.8-46.5-24.2-67.1-24.2-18.7.2-46 10.1-61.7 25.7zm392.7-28.6c3.6 12.1 11.2 32.2 19.7 55.5 23.3 65.3 56.8 153.9 64.4 172.2 14.8 36.7 21.9 40.3 42 45.2 7.2 2.2 10.7 4.5 10.7 7.6 0 3.1-3.1 5.8-14.3 5.8-14.8 0-36.7-2.2-56.4-2.2-14.3 0-20.6.9-31.8.9s-13.9-3.1-13.9-5.4c0-2.2 2.7-5.8 10.7-7.2 21.5-4.5 19.7-13.4 17.9-22.8-3.6-18.3-14.8-47.9-25-76.5-.4-1.8-2.2-4.5-15.2-4.5-24.6 0-64 .4-73.4 1.8-1.8 0-4 2.2-4.9 3.6-11.6 29.1-23.3 67.1-23.3 78.3 0 5.4 1.8 13 21.9 19.2 7.6 2.2 12.1 4.9 12.1 8.1 0 4.5-6.7 5.8-12.5 5.8-7.6 0-18.8-1.3-35.3-1.3-16.5 0-39.8 2.2-46.5 2.2-8.1 0-10.3-1.8-10.3-4.5s3.1-6.7 9.8-8.9c22.4-7.6 28.2-8.9 41.1-38 10.3-22.8 61.3-157.9 80.1-203.5 2.7-6.3 3.1-8.9 4-11.6.4-1.3 1.3-4 3.1-7.6 2.7-4.5 7.6-13 10.7-17.9 3.1-3.6 4.9-5.8 7.2-5.8 2.1-.1 3.9 1.7 7.4 11.5zm14.3 144.9c-7.6-22.8-30.9-89.9-34.9-96.2-1.3-2.7-2.2-3.1-3.6 0-8.1 21.5-31.3 84.1-34.9 98-.4 1.8.4 3.1 2.2 3.1 17.9-.4 55 0 69.8-1.3.6 0 1.9-2.2 1.4-3.6zm97.5-150.7c8.9 0 25 2.2 47 2.2 15.7 0 34-.9 44.3-.9 5.8 0 10.7 2.2 10.7 5.4 0 3.1-2.2 6.7-10.7 8.1-23.7 4.5-22.8 14.3-21 21.5 7.6 23.3 55.9 148.5 72 187 .9.9 3.1 3.6 4.5.4 3.6-9.4 52.3-124.3 72.5-172.6 10.7-25-1.3-30.4-20.6-36.2-6.3-1.8-9.8-5.4-9.8-8.1 0-3.1 5.8-5.4 13-5.4 10.3 0 20.6.9 35.8.9 13 0 30.9-1.8 40.3-1.8 6.3 0 13 1.8 13 5.8 0 3.6-5.4 6.3-11.6 7.6-19.7 4.9-29.5 15.7-38.9 35.3-20.6 44.7-31.8 64-59 131.5-25.9 63.1-31.8 74.2-42 108.2-1.8 4.9-4.9 9.8-9.4 9.8-2.7 0-6.3-3.1-7.2-8.1-2.7-13-10.3-40.3-23.3-72.9-15.2-40.7-57.7-148.9-64.4-165-8.9-22.4-18.3-33.5-38-39.4-5.4-1.8-10.3-3.6-10.3-7.6-.3-3.5 6.4-5.7 13.1-5.7z"/><path d="M39.5 610.3h1377.7M39.5 901h1377.7" class="st0"/><path d="M62.4 958.4c.3 2.9 1.1 11.3 1.1 19.1v21.8h-7.2v-48.1h10.5l15.3 40.9c-.3-2.9-1.1-10.3-1.1-19v-21.9h7.2v48.1H77.7l-15.3-40.9zm68.3 22.4c0 11.7-6 19.4-16.6 19.4-10.7 0-16.6-7.4-16.6-19.3 0-11.5 6-19.4 16.7-19.4s16.5 7.6 16.5 19.3zm-25.1.1c0 9.1 2.8 13.3 8.4 13.3 5.6 0 8.4-4.2 8.4-13.4 0-9.1-2.8-13.2-8.4-13.2-5.5 0-8.4 4.1-8.4 13.3zm67.2-18.4l-1.3 13.6h-5.6v-7.5c-5.2.1-9 4.3-11.1 11.5v13.7h7.4v5.6h-20.6v-5.6h5.4v-25.6h-5.4v-5.6H153l1.4 8.5c2.8-6.1 6.6-9.4 13-9.4 2-.1 3.7.2 5.4.8zm42.8 9.5v27.3h-6.9V973c0-3.8-.3-5.4-2.4-5.4-1.8 0-3.6 1-5.4 3.7v28h-6.3V973c0-3.8-.3-5.4-2.4-5.4-1.9 0-3.6 1-5.4 3.7v28h-7v-36.8h5.8l.6 4c2.1-2.9 4.3-4.9 7.9-4.9 2.8 0 5.2 1.2 6.3 4.7 2.1-2.8 4.5-4.7 8.1-4.7 3.9-.1 7.1 2.2 7.1 10.4zm40 22.9l-1.8 5.3c-3.6-.4-6.3-1.9-7.6-5.1-2.7 3.4-7 5.1-11.7 5.1-7.5 0-12.1-4.6-12.1-11.4 0-7.7 6.3-12 17.5-12h5.2v-2.4c0-4.8-3-6.7-8.1-6.7-2.4 0-6.1.6-9.7 1.9l-2-5.5c4.6-1.7 9.1-2.5 12.9-2.5 9.9 0 14.7 4.6 14.7 12.3v16.4c-.1 2.8.8 3.9 2.7 4.6zm-10.5-5.2v-8.1h-4.3c-7.3 0-10.2 2.6-10.2 6.9 0 3.9 2.1 6 6.2 6 3.2 0 6.5-1.8 8.3-4.8zm37.5-.5c0 3.4 2.3 4.7 5.6 4.7 2.1 0 4-.5 5.9-1.3l1.9 5.4c-2.2 1.2-5.4 2.1-9.5 2.1-7.4 0-11.7-4.4-11.7-11.6v-35.1h-11.1v-5.7h18.9v41.5zm41.8 0c0 3.4 2.3 4.7 5.6 4.7 2.1 0 4-.5 5.9-1.3l1.9 5.4c-2.2 1.2-5.4 2.1-9.5 2.1-7.4 0-11.7-4.4-11.7-11.6v-35.1h-11.1v-5.7h18.9v41.5zm45.1 10.2c-2.8 8.4-7.7 14-18 14.9l-1-5.9c7.5-1.2 9.8-3.9 11.8-9.2h-2.6l-12.4-36.8h8.3l9.3 31.3 9.4-31.3h8l-12.8 37zm85.4-10.1c0-3-1.2-4.4-8.8-6.3-7.3-1.9-12.1-4.5-12.1-10.9 0-6.3 5.6-10.6 14.7-10.6 6.2 0 10.7 1.8 14 4.2l-3.3 4.9c-2.9-1.9-6.1-3.3-10.4-3.3-5 0-7 1.6-7 4 0 2.8 2 3.8 9.3 5.9 7.2 1.9 11.9 4.5 11.9 11.4 0 8-7.8 11.4-16.2 11.4-6.8 0-11.7-2.2-15.1-5.2l4.1-4.7c2.9 2.3 6.7 4 11 4 4.9.1 7.9-1.7 7.9-4.8zm37 4.8c3.6 0 6.5-1.1 9.7-3.2l3.3 4.7c-3.4 2.8-8.2 4.5-13.4 4.5-11.5 0-17.8-7.8-17.8-19.3 0-11 6.3-19.4 16.8-19.4 9.8 0 15.9 7 15.9 18.4 0 1.3-.1 2.6-.2 3.5h-24.4c.6 7.6 4.8 10.8 10.1 10.8zm-10.1-16h17.1c-.1-7-3-10.8-8.2-10.8-4.9 0-8.4 3.4-8.9 10.8zm55.4 22.1c-8.6 0-13.1-4.8-13.1-12v-19.9H516v-5.7h8.1v-8.2l7.8-.9v9.1h12.5l-.9 5.7h-11.6V988c0 4 1.9 5.9 6.4 5.9 2.6 0 4.9-.7 6.8-1.7l2.8 5.2c-2.7 1.6-6.6 2.8-10.7 2.8zm82.5-.9l-4.2-26.1-4.5 26.1h-9.5l-6.2-36.8h7.5l3.8 31.9 5.2-27.2h7.8l4.7 27.2 3.8-31.9h7.2l-6 36.8h-9.6zm42.9-5.8h10v5.7h-28.8v-5.7h10.9v-25.4h-10.6v-5.7h18.4v31.1zm-.3-44.1c0 2.8-2.1 4.9-5.1 4.9-3.1 0-5.1-2.1-5.1-4.9s2-4.9 5.1-4.9c3-.1 5.1 2.1 5.1 4.9zm42 50.8c-8.6 0-13.1-4.8-13.1-12v-19.9H683v-5.7h8.1v-8.2l7.8-.9v9.1h12.5l-.9 5.7H699V988c0 4 1.9 5.9 6.4 5.9 2.6 0 4.9-.7 6.8-1.7l2.8 5.2c-2.7 1.6-6.6 2.8-10.7 2.8zm29.6-33.2c3-3.6 7.1-5.5 11.4-5.5 6.9 0 10.2 4 10.2 10.9v26.8h-7.8v-25.6c0-4.4-1.6-6.1-5.3-6.1-3.5 0-6.6 2.6-8.6 5.4v26.3H726v-51.5l7.8-.8V967zM841 980.8c0 11.7-6 19.4-16.6 19.4-10.7 0-16.6-7.4-16.6-19.3 0-11.5 6-19.4 16.7-19.4 10.6 0 16.5 7.6 16.5 19.3zm-25.1.1c0 9.1 2.8 13.3 8.4 13.3 5.6 0 8.4-4.2 8.4-13.4 0-9.1-2.8-13.2-8.4-13.2-5.5 0-8.4 4.1-8.4 13.3zm54.7 18.4h-9.1l-13-36.8h8.4l9.3 30.3 9.4-30.3h8l-13 36.8zm39.1-5.2c3.6 0 6.5-1.1 9.7-3.2l3.3 4.7c-3.4 2.8-8.2 4.5-13.4 4.5-11.5 0-17.8-7.8-17.8-19.3 0-11 6.3-19.4 16.8-19.4 9.8 0 15.9 7 15.9 18.4 0 1.3-.1 2.6-.2 3.5h-24.4c.6 7.6 4.8 10.8 10.1 10.8zm-10.1-16h17.1c-.1-7-3-10.8-8.2-10.8-4.9 0-8.4 3.4-8.9 10.8zm67-15.6l-1.3 13.6h-5.6v-7.5c-5.2.1-9 4.3-11.1 11.5v13.7h7.4v5.6h-20.6v-5.6h5.4v-25.6h-5.4v-5.6h11.4l1.4 8.5c2.8-6.1 6.6-9.4 13-9.4 2.1-.1 3.7.2 5.4.8zm31.5 26.8c0-3-1.2-4.4-8.8-6.3-7.3-1.9-12.1-4.5-12.1-10.9 0-6.3 5.6-10.6 14.7-10.6 6.2 0 10.7 1.8 14 4.2l-3.3 4.9c-2.9-1.9-6.1-3.3-10.4-3.3-5 0-7 1.6-7 4 0 2.8 2 3.8 9.3 5.9 7.2 1.9 11.9 4.5 11.9 11.4 0 8-7.8 11.4-16.2 11.4-6.8 0-11.7-2.2-15.1-5.2l4.1-4.7c2.9 2.3 6.7 4 11 4 4.8.1 7.9-1.7 7.9-4.8zm28.2-22.3c3-3.6 7.1-5.5 11.4-5.5 6.9 0 10.2 4 10.2 10.9v26.8h-7.8v-25.6c0-4.4-1.6-6.1-5.3-6.1-3.5 0-6.6 2.6-8.6 5.4v26.3h-7.8v-51.5l7.8-.8V967zm65.4 13.8c0 11.7-6 19.4-16.6 19.4-10.7 0-16.6-7.4-16.6-19.3 0-11.5 6-19.4 16.7-19.4 10.6 0 16.5 7.6 16.5 19.3zm-25.1.1c0 9.1 2.8 13.3 8.4 13.3 5.6 0 8.4-4.2 8.4-13.4 0-9.1-2.8-13.2-8.4-13.2-5.5 0-8.4 4.1-8.4 13.3zm66.8-.1c0 11.7-6 19.4-16.6 19.4-10.7 0-16.6-7.4-16.6-19.3 0-11.5 6-19.4 16.7-19.4s16.5 7.6 16.5 19.3zm-25 .1c0 9.1 2.8 13.3 8.4 13.3 5.6 0 8.4-4.2 8.4-13.4 0-9.1-2.8-13.2-8.4-13.2-5.6 0-8.4 4.1-8.4 13.3zm55.5 19.3c-8.6 0-13.1-4.8-13.1-12v-19.9h-8.1v-5.7h8.1v-8.2l7.8-.9v9.1h12.5l-.9 5.7h-11.6V988c0 4 1.9 5.9 6.4 5.9 2.6 0 4.9-.7 6.8-1.7l2.8 5.2c-2.7 1.6-6.6 2.8-10.7 2.8zm43.1-10.9c0-3-1.2-4.4-8.8-6.3-7.3-1.9-12.1-4.5-12.1-10.9 0-6.3 5.6-10.6 14.7-10.6 6.2 0 10.7 1.8 14 4.2l-3.3 4.9c-2.9-1.9-6.1-3.3-10.4-3.3-5 0-7 1.6-7 4 0 2.8 2 3.8 9.3 5.9 7.2 1.9 11.9 4.5 11.9 11.4 0 8-7.8 11.4-16.2 11.4-6.8 0-11.7-2.2-15.1-5.2l4.1-4.7c2.9 2.3 6.7 4 11 4 4.8.1 7.9-1.7 7.9-4.8z" class="st1"/><path d="M93.5 1170.7c29.1 0 34 .9 59.9.9.9 0 4.5 3.6 4.9 5.8 5.4 16.5 8.1 21.5 17 40.7 25 52.8 76.9 160.1 83.2 168.6.9 1.3 3.6 2.7 4.5 1.3 4-7.6 87.7-165.5 94.8-184.3.4-1.8 7.6-17 10.3-25.9.4-2.2 4-6.3 4.9-6.3 16.1 0 52.3-1.3 56.4-1.3 5.8 0 11.6.9 11.6 4.9 0 3.1-3.6 5.8-11.6 7.2-7.2 1.3-13.4 3.1-20.1 5.8-6.7 2.7-13.9 11.2-13.9 34.4 0 124.3 4.9 181.1 6.3 193.7 2.7 20.1 7.6 24.6 29.1 30.9 8.1 1.8 12.1 5.4 12.1 8.5 0 3.6-6.3 5.8-13 5.8-4.9 0-39.4-2.2-55.9-2.2-8.5 0-23.3 1.3-34 1.3-4.9 0-12.1-1.8-12.1-6.3 0-4 5.4-6.3 11.6-8.1 18.3-5.4 19.2-15.7 20.6-32.2 1.8-20.1.9-149.8-.4-172.6 0-3.1-1.8-5.8-4.5-1.3-4.9 8.5-55 106.9-72.5 143.6-10.7 23.3-21 46.5-27.7 64-4.9 13-7.2 12.5-10.3 12.5-2.7 0-5.4-3.6-6.7-8.5-3.1-11.2-8.1-25.9-16.5-47.4-24.2-59-60.8-129.7-77.4-167.7-1.3-3.1-2.7-3.6-3.1 1.3-3.6 18.8-8.5 131.5-7.2 172.6.9 22.8 4.5 29.1 27.3 36.2 9.8 2.7 12.1 4.5 12.1 8.5 0 3.6-4.9 5.4-12.1 5.4-14.3 0-33.1-1.3-44.7-1.3-10.7 0-24.6 1.3-35.8 1.3-6.7 0-11.6-1.3-11.6-6.3 0-1.8 3.1-4.9 8.9-6.3 27.7-8.1 30.4-15.7 34-41.1 4.5-30.9 14.3-159.7 15.2-193.2 0-3.6-.9-20.6-20.1-25.9-7.6-2.2-13.4-4-19.2-5.4-3.1-.9-7.2-4-7.2-7.2-.1-4.4 3.1-4.4 12.9-4.4zm675.7 140.5c0 59.7-29.4 101.5-60.5 123.6-26.9 18.8-62.2 24.7-84 24.7-43.5 0-84.8-18.8-110.9-48.6-22.6-25.2-35.4-59.7-35.4-96.4 0-52.4 23-88.7 55.4-114.7 20.9-17.1 57.6-29.8 87.4-29.8 82 0 148 60.2 148 141.2zm-216.1-102.8c-18.8 18.3-33.3 50.3-33.3 100.2 0 63.5 46.9 136.4 115.1 136.4 35.4 0 51.6-15.4 56.3-20.5 17.1-15.3 36.2-49.9 36.2-100.6 0-46.5-20-91.2-51.6-116.8-17.5-14.1-44.3-23-64-23-17.8 0-43.8 9.4-58.7 24.3zm381.4-27c3.5 11.8 10.9 31.5 19.3 54.2 22.8 63.9 55.6 150.5 63 168.4 14.4 35.9 21.4 39.4 41.1 44.2 7 2.2 10.5 4.4 10.5 7.4 0 3.1-3.1 5.7-14 5.7-14.4 0-35.9-2.2-55.1-2.2-14 0-20.1.9-31.1.9-10.9 0-13.6-3.1-13.6-5.2 0-2.2 2.6-5.7 10.5-7 21-4.4 19.3-13.1 17.5-22.3-3.5-17.9-14.4-46.8-24.5-74.8-.4-1.7-2.2-4.4-14.9-4.4-24.1 0-62.6.4-71.8 1.8-1.8 0-3.9 2.2-4.8 3.5-11.4 28.4-22.7 65.6-22.7 76.6 0 5.2 1.8 12.7 21.4 18.8 7.4 2.2 11.8 4.8 11.8 7.9 0 4.4-6.6 5.7-12.2 5.7-7.4 0-18.4-1.3-34.6-1.3-16.2 0-38.9 2.2-45.5 2.2-7.9 0-10.1-1.8-10.1-4.4s3.1-6.6 9.6-8.7c21.9-7.4 27.6-8.8 40.3-37.2 10.1-22.3 59.9-154.4 78.3-199.1 2.6-6.1 3.1-8.8 3.9-11.4.4-1.3 1.3-3.9 3.1-7.4 2.6-4.4 7.4-12.7 10.5-17.5 3.1-3.5 4.8-5.7 7-5.7 1.9-.1 3.6 1.7 7.1 11.3zm14 141.7c-7.4-22.3-30.2-87.9-34.1-94.1-1.3-2.6-2.2-3.1-3.5 0-7.9 21-30.6 82.3-34.1 95.8-.4 1.8.4 3.1 2.2 3.1 17.5-.4 53.8 0 68.3-1.3.3 0 1.7-2.2 1.2-3.5zm106.6-150.3c8.6 0 24.2 2.2 45.4 2.2 15.1 0 32.9-.9 42.8-.9 5.6 0 10.4 2.2 10.4 5.2s-2.2 6.5-10.4 7.8c-22.9 4.3-22.1 13.8-20.3 20.8 7.4 22.5 54.1 143.6 69.6 180.8.9.9 3 3.5 4.3.4 3.5-9.1 50.6-120.2 70.1-166.9 10.4-24.2-1.3-29.4-19.9-35-6.1-1.7-9.5-5.2-9.5-7.8 0-3 5.6-5.2 12.5-5.2 9.9 0 19.9.9 34.6.9 12.5 0 29.8-1.7 38.9-1.7 6.1 0 12.5 1.7 12.5 5.6 0 3.5-5.2 6.1-11.2 7.4-19 4.8-28.5 15.1-37.6 34.2-19.9 43.2-30.7 61.8-57.1 127.2-25.1 61-30.7 71.8-40.7 104.7-1.7 4.8-4.8 9.5-9.1 9.5-2.6 0-6.1-3-6.9-7.8-2.6-12.5-9.9-38.9-22.5-70.5-14.7-39.4-55.8-144-62.3-159.6-8.6-21.6-17.7-32.4-36.8-38.1-5.2-1.7-9.9-3.5-9.9-7.4.1-3.6 6.6-5.8 13.1-5.8z"/><path d="M39.5 1170.8h1377.7M39.5 1461.4h1377.7" class="st0"/><path d="M74.6 1555c-12 0-18.2-9.8-18.2-24.9 0-14.8 6.2-25.1 18.2-25.1s18.2 9.9 18.2 25c0 14.9-6.2 25-18.2 25zm0-43.6c-7.1 0-10 6.3-10 18.7 0 12.4 3.1 18.6 10 18.6 7.1 0 10-6.3 10-18.7-.1-12.3-2.9-18.6-10-18.6zm46.3 42.7h-9.1l-13-36.8h8.4l9.3 30.3 9.4-30.3h8l-13 36.8zm39-5.1c3.6 0 6.5-1.1 9.7-3.2l3.3 4.7c-3.4 2.8-8.2 4.5-13.4 4.5-11.5 0-17.8-7.8-17.8-19.3 0-11 6.3-19.4 16.8-19.4 9.8 0 15.9 7 15.9 18.4 0 1.3-.1 2.6-.2 3.5h-24.4c.6 7.5 4.8 10.8 10.1 10.8zm-10.1-16.1h17.1c-.1-7-3-10.8-8.2-10.8-4.9 0-8.4 3.5-8.9 10.8zm67-15.6l-1.3 13.6h-5.6v-7.5c-5.2.1-9 4.3-11.1 11.5v13.7h7.4v5.6h-20.6v-5.6h5.4V1523h-5.4v-5.6H197l1.4 8.5c2.8-6.1 6.6-9.4 13-9.4 2.1-.1 3.8.3 5.4.8zm31.5 26.8c0-3-1.2-4.4-8.8-6.3-7.3-1.9-12.1-4.5-12.1-10.9 0-6.3 5.6-10.6 14.7-10.6 6.2 0 10.7 1.8 14 4.2l-3.3 4.9c-2.9-1.9-6.1-3.3-10.4-3.3-5 0-7 1.6-7 4 0 2.8 2 3.8 9.3 5.9 7.2 1.9 11.9 4.5 11.9 11.4 0 8-7.8 11.4-16.2 11.4-6.8 0-11.7-2.2-15.1-5.2l4.1-4.7c2.9 2.3 6.7 4 11 4 4.8.2 7.9-1.7 7.9-4.8zm28.3-22.2c3-3.6 7.1-5.5 11.4-5.5 6.9 0 10.2 4 10.2 10.9v26.8h-7.8v-25.6c0-4.4-1.6-6.1-5.3-6.1-3.5 0-6.6 2.6-8.6 5.4v26.3h-7.8v-51.5l7.8-.8v20.1zm65.3 13.7c0 11.7-6 19.4-16.6 19.4-10.7 0-16.6-7.4-16.6-19.3 0-11.5 6-19.4 16.7-19.4s16.5 7.6 16.5 19.3zm-25.1.1c0 9.1 2.8 13.3 8.4 13.3 5.6 0 8.4-4.2 8.4-13.4 0-9.1-2.8-13.2-8.4-13.2-5.5 0-8.4 4.2-8.4 13.3zm66.9-.1c0 11.7-6 19.4-16.6 19.4-10.7 0-16.6-7.4-16.6-19.3 0-11.5 6-19.4 16.7-19.4s16.5 7.6 16.5 19.3zm-25.1.1c0 9.1 2.8 13.3 8.4 13.3 5.6 0 8.4-4.2 8.4-13.4 0-9.1-2.8-13.2-8.4-13.2-5.5 0-8.4 4.2-8.4 13.3zm55.5 19.3c-8.6 0-13.1-4.8-13.1-12v-20h-8.1v-5.7h8.1v-8.2l7.8-.9v9.1h12.5l-.9 5.7h-11.6v19.8c0 4 1.9 5.9 6.4 5.9 2.6 0 4.9-.7 6.8-1.7l2.8 5.2c-2.7 1.7-6.6 2.8-10.7 2.8zm43.1-10.9c0-3-1.2-4.4-8.8-6.3-7.3-1.9-12.1-4.5-12.1-10.9 0-6.3 5.6-10.6 14.7-10.6 6.2 0 10.7 1.8 14 4.2l-3.3 4.9c-2.9-1.9-6.1-3.3-10.4-3.3-5 0-7 1.6-7 4 0 2.8 2 3.8 9.3 5.9 7.2 1.9 11.9 4.5 11.9 11.4 0 8-7.8 11.4-16.2 11.4-6.8 0-11.7-2.2-15.1-5.2l4.1-4.7c2.9 2.3 6.7 4 11 4 4.9.2 7.9-1.7 7.9-4.8zm94.9-17.3v27.3h-6.9v-26.3c0-3.8-.3-5.4-2.4-5.4-1.8 0-3.6 1-5.4 3.7v28H531v-26.3c0-3.8-.3-5.4-2.4-5.4-1.9 0-3.6 1-5.4 3.7v28h-7v-36.8h5.8l.6 4c2.1-2.9 4.3-4.9 7.9-4.9 2.8 0 5.2 1.2 6.3 4.7 2.1-2.8 4.5-4.7 8.1-4.7 4.1 0 7.2 2.3 7.2 10.4zm40.1 22.9l-1.8 5.3c-3.6-.4-6.3-1.9-7.6-5.1-2.7 3.4-7 5.1-11.7 5.1-7.5 0-12.1-4.6-12.1-11.4 0-7.7 6.3-12 17.5-12h5.2v-2.4c0-4.8-3-6.7-8.1-6.7-2.4 0-6.1.6-9.7 1.9l-2-5.5c4.6-1.7 9.1-2.5 12.9-2.5 9.9 0 14.7 4.6 14.7 12.3v16.4c-.1 2.9.7 4 2.7 4.6zm-10.5-5.1v-8.1h-4.3c-7.3 0-10.2 2.6-10.2 6.9 0 3.9 2.1 6 6.2 6 3.2-.1 6.4-1.8 8.3-4.8zm21.3-27.3h6.8l.6 4.8c3.1-3.8 7.5-5.8 11.9-5.8 6.8 0 10.2 4 10.2 10.9v26.8h-7.8v-22.9c0-6.4-.8-8.8-5.2-8.8-3.6 0-6.7 2.6-8.6 5.4v26.4H603v-36.8zm49.6 25.7c0 4.3 1.7 6.1 5.2 6.1 3.4 0 6.8-2.3 8.6-5.2v-26.6h7.8v36.8h-6.8l-.5-4.7c-2.7 3.7-7.2 5.6-11.6 5.6-7.2 0-10.6-4.1-10.6-11v-26.7h7.8v25.7zm64.9 6.7l-1.8 5.3c-3.6-.4-6.3-1.9-7.6-5.1-2.7 3.4-7 5.1-11.7 5.1-7.5 0-12.1-4.6-12.1-11.4 0-7.7 6.3-12 17.5-12h5.2v-2.4c0-4.8-3-6.7-8.1-6.7-2.4 0-6.1.6-9.7 1.9l-2-5.5c4.6-1.7 9.1-2.5 12.9-2.5 9.9 0 14.7 4.6 14.7 12.3v16.4c-.1 2.9.8 4 2.7 4.6zm-10.5-5.1v-8.1h-4.3c-7.3 0-10.2 2.6-10.2 6.9 0 3.9 2.1 6 6.2 6 3.2-.1 6.5-1.8 8.3-4.8zm37.5-.5c0 3.4 2.3 4.7 5.6 4.7 2.1 0 4-.5 5.9-1.3l1.9 5.4c-2.2 1.2-5.4 2.1-9.5 2.1-7.4 0-11.7-4.4-11.7-11.6v-35.1h-11.1v-5.7h18.9v41.5zm41.8 0c0 3.4 2.3 4.7 5.6 4.7 2.1 0 4-.5 5.9-1.3l1.9 5.4c-2.2 1.2-5.4 2.1-9.5 2.1-7.4 0-11.7-4.4-11.7-11.6v-35.1h-11.1v-5.7h18.9v41.5zm45.1 10.1c-2.8 8.4-7.7 14-18 14.9l-1-5.9c7.5-1.2 9.8-3.9 11.8-9.2h-2.6l-12.4-36.8h8.3l9.3 31.3 9.4-31.3h8l-12.8 37zm95.7-36.9l-1.3 13.6h-5.6v-7.5c-5.2.1-9 4.3-11.1 11.5v13.7h7.4v5.6h-20.6v-5.6h5.4V1523h-5.4v-5.6h11.4l1.4 8.5c2.8-6.1 6.6-9.4 13-9.4 2.1-.1 3.7.3 5.4.8zm26.7 31.7c3.6 0 6.5-1.1 9.7-3.2l3.3 4.7c-3.4 2.8-8.2 4.5-13.4 4.5-11.5 0-17.8-7.8-17.8-19.3 0-11 6.3-19.4 16.8-19.4 9.8 0 15.9 7 15.9 18.4 0 1.3-.1 2.6-.2 3.5h-24.4c.5 7.5 4.8 10.8 10.1 10.8zm-10.1-16.1h17.1c-.1-7-3-10.8-8.2-10.8-4.9 0-8.4 3.5-8.9 10.8zm68-6.1v27.3h-6.9v-26.3c0-3.8-.3-5.4-2.4-5.4-1.8 0-3.6 1-5.4 3.7v28h-6.3v-26.3c0-3.8-.3-5.4-2.4-5.4-1.9 0-3.6 1-5.4 3.7v28h-7v-36.8h5.8l.6 4c2.1-2.9 4.3-4.9 7.9-4.9 2.8 0 5.2 1.2 6.3 4.7 2.1-2.8 4.5-4.7 8.1-4.7 4 0 7.1 2.3 7.1 10.4zm40.5 8.8c0 11.7-6 19.4-16.6 19.4-10.7 0-16.6-7.4-16.6-19.3 0-11.5 6-19.4 16.7-19.4 10.6.1 16.5 7.6 16.5 19.3zm-25.1.1c0 9.1 2.8 13.3 8.4 13.3 5.6 0 8.4-4.2 8.4-13.4 0-9.1-2.8-13.2-8.4-13.2-5.5 0-8.4 4.2-8.4 13.3zm54.7 18.4h-9.1l-13-36.8h8.4l9.3 30.3 9.4-30.3h8l-13 36.8zm39.1-5.1c3.6 0 6.5-1.1 9.7-3.2l3.3 4.7c-3.4 2.8-8.2 4.5-13.4 4.5-11.5 0-17.8-7.8-17.8-19.3 0-11 6.3-19.4 16.8-19.4 9.8 0 15.9 7 15.9 18.4 0 1.3-.1 2.6-.2 3.5h-24.4c.6 7.5 4.8 10.8 10.1 10.8zm-10.1-16.1h17.1c-.1-7-3-10.8-8.2-10.8-4.9 0-8.4 3.5-8.9 10.8zm64.8-30.3v51.5h-6.9l-.6-4.5c-2.4 3.5-6 5.4-10.3 5.4-9.5 0-13.9-7.7-13.9-19.3 0-11.2 5.5-19.4 14.6-19.4 3.8 0 6.9 1.4 9.3 4v-18.7l7.8 1zm-23.4 33.1c0 9.4 2.8 13.4 7.7 13.4 3.5 0 6.1-2.4 7.9-5.3v-17.3c-1.8-2.6-4.2-4.1-7.2-4.1-5.3-.1-8.4 4.1-8.4 13.3zm56.9 12.1c0 2.2-.6 4-2 7l-5.4 12.3h-6.1l3.3-14.1c-1.6-1.1-2.6-3.1-2.6-5.2 0-3.5 2.8-6.3 6.3-6.3 3.7.1 6.5 2.9 6.5 6.3zM81.2 1662.1c0 3.4 2.3 4.7 5.6 4.7 2.1 0 4-.5 5.9-1.3l1.9 5.4c-2.2 1.2-5.4 2.1-9.5 2.1-7.4 0-11.7-4.4-11.7-11.6v-35.1H62.3v-5.7h18.9v41.5zm56.9-8.4c0 11.7-6 19.4-16.6 19.4-10.7 0-16.6-7.4-16.6-19.3 0-11.5 6-19.4 16.7-19.4s16.5 7.6 16.5 19.3zm-25 .1c0 9.1 2.8 13.3 8.4 13.3 5.6 0 8.4-4.2 8.4-13.4 0-9.1-2.8-13.2-8.4-13.2-5.6 0-8.4 4.1-8.4 13.3zm66.8-.1c0 11.7-6 19.4-16.6 19.4-10.7 0-16.6-7.4-16.6-19.3 0-11.5 6-19.4 16.7-19.4s16.5 7.6 16.5 19.3zm-25.1.1c0 9.1 2.8 13.3 8.4 13.3 5.6 0 8.4-4.2 8.4-13.4 0-9.1-2.8-13.2-8.4-13.2-5.5 0-8.4 4.1-8.4 13.3zm43.6 18.4h-7.8v-51.5l7.8-.9v52.4zm9.5-20.4l16.4 20.3h-9.5L199 1652l14.8-16.6h9.1l-15 16.4zm45.5 10.4c0-3-1.2-4.4-8.8-6.3-7.3-1.9-12.1-4.5-12.1-10.9 0-6.3 5.6-10.6 14.7-10.6 6.2 0 10.7 1.8 14 4.2l-3.3 4.9c-2.9-1.9-6.1-3.3-10.4-3.3-5 0-7 1.6-7 4 0 2.8 2 3.8 9.3 5.9 7.2 1.9 11.9 4.5 11.9 11.4 0 8-7.8 11.4-16.2 11.4-6.8 0-11.7-2.2-15.1-5.2l4.1-4.7c2.9 2.3 6.7 4 11 4 4.9.1 7.9-1.7 7.9-4.8zm81.3 10l-4.2-26.1-4.5 26.1h-9.5l-6.2-36.8h7.5l3.8 31.9 5.2-27.2h7.8l4.7 27.2 3.8-31.9h7.2l-6 36.8h-9.6zm54.4-36.8l-1.3 13.6h-5.6v-7.5c-5.2.1-9 4.3-11.1 11.5v13.7h7.4v5.6h-20.6v-5.6h5.4V1641h-5.4v-5.6h11.4l1.4 8.5c2.8-6.1 6.6-9.4 13-9.4 2 0 3.7.3 5.4.9zm41.5 18.3c0 11.7-6 19.4-16.6 19.4-10.7 0-16.6-7.4-16.6-19.3 0-11.5 6-19.4 16.7-19.4 10.6 0 16.5 7.6 16.5 19.3zm-25.1.1c0 9.1 2.8 13.3 8.4 13.3 5.6 0 8.4-4.2 8.4-13.4 0-9.1-2.8-13.2-8.4-13.2-5.5 0-8.4 4.1-8.4 13.3zm35.5-18.4h6.8l.6 4.8c3.1-3.8 7.5-5.8 11.9-5.8 6.8 0 10.2 4 10.2 10.9v26.8h-7.8v-22.9c0-6.4-.8-8.8-5.2-8.8-3.6 0-6.7 2.6-8.6 5.4v26.4H441v-36.8zm74.8 1.8c-2.9 1-6.3 1.2-10.7 1.2 4.4 2 6.7 4.9 6.7 9.4 0 7.2-5.5 12.4-14.6 12.4-2.1 0-3.6-.1-5-.6-1 .7-1.6 1.9-1.6 3.1 0 1.5.8 2.8 4.5 2.8h6.4c7.9 0 13.4 4.3 13.4 10.2 0 7.3-6.5 11.6-18.4 11.6-12.7 0-16.4-4-16.4-11.4h7c0 3.9 1.7 5.7 9.5 5.7 7.7 0 10.4-2 10.4-5.4 0-3-2.8-4.7-7.1-4.7h-6.3c-7 0-10-3.3-10-7.1 0-2.4 1.4-4.9 4-6.6-4.4-2.3-6.3-5.5-6.3-10.3 0-7.7 6.3-13 15.3-13 8.8.1 12.6-1.5 17-3.7l2.2 6.4zm-26.4 10.2c0 4.6 2.5 7.7 7.5 7.7 4.7 0 7.1-2.8 7.1-7.8 0-4.9-2.4-7.5-7.2-7.5-4.9 0-7.4 3.1-7.4 7.6z" class="st1"/><ellipse cx="631.7" cy="350.6" class="st2" rx="76.4" ry="34.1"/><ellipse cx="1187.4" cy="350.6" class="st2" rx="76.4" ry="34.1"/><ellipse cx="618.3" cy="63" class="st2" rx="76.4" ry="34.1"/><ellipse cx="931.5" cy="63" class="st2" rx="76.4" ry="34.1"/><path d="M93.5 56.7c29.1 0 34 .9 59.9.9.9 0 4.5 3.6 4.9 5.8 5.4 16.5 8.1 21.5 17 40.7 25 52.8 76.9 160.1 83.2 168.6.9 1.3 3.6 2.7 4.5 1.3 4-7.6 87.7-165.5 94.8-184.3.4-1.8 7.6-17 10.3-25.9.4-2.2 4-6.3 4.9-6.3 16.1 0 52.3-1.3 56.4-1.3 5.8 0 11.6.9 11.6 4.9 0 3.1-3.6 5.8-11.6 7.2-7.2 1.3-13.4 3.1-20.1 5.8-6.7 2.7-13.9 11.2-13.9 34.4 0 124.3 4.9 181.1 6.3 193.7 2.7 20.1 7.6 24.6 29.1 30.9 8.1 1.8 12.1 5.4 12.1 8.5 0 3.6-6.3 5.8-13 5.8-4.9 0-39.4-2.2-55.9-2.2-8.5 0-23.3 1.3-34 1.3-4.9 0-12.1-1.8-12.1-6.3 0-4 5.4-6.3 11.6-8.1 18.3-5.4 19.2-15.7 20.6-32.2 1.8-20.1.9-149.8-.4-172.6 0-3.1-1.8-5.8-4.5-1.3-4.9 8.5-55 106.9-72.5 143.6-10.7 23.3-21 46.5-27.7 64-4.9 13-7.2 12.5-10.3 12.5-2.7 0-5.4-3.6-6.7-8.5-3.1-11.2-8.1-25.9-16.5-47.4-24.2-59-60.8-129.7-77.4-167.7-1.3-3.1-2.7-3.6-3.1 1.3-3.6 18.8-8.5 131.5-7.2 172.6.9 22.8 4.5 29.1 27.3 36.2 9.8 2.7 12.1 4.5 12.1 8.5 0 3.6-4.9 5.4-12.1 5.4-14.3 0-33.1-1.3-44.7-1.3-10.7 0-24.6 1.3-35.8 1.3-6.7 0-11.6-1.3-11.6-6.3 0-1.8 3.1-4.9 8.9-6.3 27.7-8.1 30.4-15.7 34-41.1 4.5-30.9 14.3-159.7 15.2-193.2 0-3.6-.9-20.6-20.1-25.9-7.6-2.2-13.4-4-19.2-5.4-3.1-.9-7.2-4-7.2-7.2-.1-4.4 3.1-4.4 12.9-4.4zm682.1 140.9c0 62.6-30.9 106.5-63.5 129.7-28.2 19.7-65.3 25.9-88.1 25.9-45.6 0-89-19.7-116.3-51-23.7-26.4-37.1-62.6-37.1-101.1 0-55 24.2-93 58.1-120.3 21.9-17.9 60.4-31.3 91.7-31.3 85.9.1 155.2 63.2 155.2 148.1zM548.8 89.8c-19.7 19.2-34.9 52.8-34.9 105.1 0 66.6 49.2 143.1 120.8 143.1 37.1 0 54.1-16.1 59-21.5 17.9-16.1 38-52.3 38-105.6 0-48.8-21-95.7-54.1-122.6-18.3-14.8-46.5-24.2-67.1-24.2-18.7.2-46 10.1-61.7 25.7zm392.7-28.6c3.6 12.1 11.2 32.2 19.7 55.5 23.3 65.3 56.8 153.9 64.4 172.2 14.8 36.7 21.9 40.3 42 45.2 7.2 2.2 10.7 4.5 10.7 7.6 0 3.1-3.1 5.8-14.3 5.8-14.8 0-36.7-2.2-56.4-2.2-14.3 0-20.6.9-31.8.9s-13.9-3.1-13.9-5.4c0-2.2 2.7-5.8 10.7-7.2 21.5-4.5 19.7-13.4 17.9-22.8-3.6-18.3-14.8-47.9-25-76.5-.4-1.8-2.2-4.5-15.2-4.5-24.6 0-64 .4-73.4 1.8-1.8 0-4 2.2-4.9 3.6-11.6 29.1-23.3 67.1-23.3 78.3 0 5.4 1.8 13 21.9 19.2 7.6 2.2 12.1 4.9 12.1 8.1 0 4.5-6.7 5.8-12.5 5.8-7.6 0-18.8-1.3-35.3-1.3-16.5 0-39.8 2.2-46.5 2.2-8.1 0-10.3-1.8-10.3-4.5s3.1-6.7 9.8-8.9c22.4-7.6 28.2-8.9 41.1-38 10.3-22.8 61.3-157.9 80.1-203.5 2.7-6.3 3.1-8.9 4-11.6.4-1.3 1.3-4 3.1-7.6 2.7-4.5 7.6-13 10.7-17.9 3.1-3.6 4.9-5.8 7.2-5.8 2.1-.1 3.9 1.7 7.4 11.5zm14.3 144.9c-7.6-22.8-30.9-89.9-34.9-96.2-1.3-2.7-2.2-3.1-3.6 0-8.1 21.5-31.3 84.1-34.9 98-.4 1.8.4 3.1 2.2 3.1 17.9-.4 55 0 69.8-1.3.6 0 1.9-2.2 1.4-3.6zm97.5-150.7c8.9 0 25 2.2 47 2.2 15.7 0 34-.9 44.3-.9 5.8 0 10.7 2.2 10.7 5.4 0 3.1-2.2 6.7-10.7 8.1-23.7 4.5-22.8 14.3-21 21.5 7.6 23.3 55.9 148.5 72 187 .9.9 3.1 3.6 4.5.4 3.6-9.4 52.3-124.3 72.5-172.6 10.7-25-1.3-30.4-20.6-36.2-6.3-1.8-9.8-5.4-9.8-8.1 0-3.1 5.8-5.4 13-5.4 10.3 0 20.6.9 35.8.9 13 0 30.9-1.8 40.3-1.8 6.3 0 13 1.8 13 5.8 0 3.6-5.4 6.3-11.6 7.6-19.7 4.9-29.5 15.7-38.9 35.3-20.6 44.7-31.8 64-59 131.5-25.9 63.1-31.8 74.2-42 108.2-1.8 4.9-4.9 9.8-9.4 9.8-2.7 0-6.3-3.1-7.2-8.1-2.7-13-10.3-40.3-23.3-72.9-15.2-40.7-57.7-148.9-64.4-165-8.9-22.4-18.3-33.5-38-39.4-5.4-1.8-10.3-3.6-10.3-7.6-.3-3.5 6.4-5.7 13.1-5.7z"/><path d="M39.5 56.8h1377.7M39.5 347.5h1377.7" class="st0"/><path d="M76.2 440.7h-8.1v-41.5H53.7v-6.5H91l-.8 6.5h-14v41.5zm31-32.3c3-3.6 7.1-5.5 11.4-5.5 6.9 0 10.2 4 10.2 10.9v26.8H121V415c0-4.4-1.6-6.1-5.3-6.1-3.5 0-6.6 2.6-8.6 5.4v26.3h-7.8v-51.5l7.8-.8v20.1zm50.4 27.1c3.6 0 6.5-1.1 9.7-3.2l3.3 4.7c-3.4 2.8-8.2 4.5-13.4 4.5-11.5 0-17.8-7.8-17.8-19.3 0-11 6.3-19.4 16.8-19.4 9.8 0 15.9 7 15.9 18.4 0 1.3-.1 2.6-.2 3.5h-24.4c.6 7.6 4.8 10.8 10.1 10.8zm-10.1-16h17.1c-.1-7-3-10.8-8.2-10.8-4.9 0-8.4 3.4-8.9 10.8zm56.7 11.2c0-3-1.2-4.4-8.8-6.3-7.3-1.9-12.1-4.5-12.1-10.9 0-6.3 5.6-10.6 14.7-10.6 6.2 0 10.7 1.8 14 4.2l-3.3 4.9c-2.9-1.9-6.1-3.3-10.4-3.3-5 0-7 1.6-7 4 0 2.8 2 3.8 9.3 5.9 7.2 2 11.9 4.5 11.9 11.4 0 8-7.8 11.4-16.2 11.4-6.8 0-11.7-2.2-15.1-5.2l4.1-4.7c2.9 2.3 6.7 4 11 4 4.9.2 7.9-1.7 7.9-4.8zm37 4.8c3.6 0 6.5-1.1 9.7-3.2l3.3 4.7c-3.4 2.8-8.2 4.5-13.4 4.5-11.5 0-17.8-7.8-17.8-19.3 0-11 6.3-19.4 16.8-19.4 9.8 0 15.9 7 15.9 18.4 0 1.3-.1 2.6-.2 3.5h-24.4c.6 7.6 4.8 10.8 10.1 10.8zm-10.1-16h17.1c-.1-7-3-10.8-8.2-10.8-4.9 0-8.4 3.4-8.9 10.8zm108.1 16.8l-1.8 5.3c-3.6-.4-6.3-1.9-7.6-5.1-2.7 3.4-7 5.1-11.7 5.1-7.5 0-12.1-4.6-12.1-11.4 0-7.7 6.3-12 17.5-12h5.2v-2.4c0-4.8-3-6.7-8.1-6.7-2.4 0-6.1.6-9.7 1.9l-2-5.5c4.6-1.7 9.1-2.5 12.9-2.5 9.9 0 14.7 4.6 14.7 12.3v16.4c-.1 2.8.7 4 2.7 4.6zm-10.5-5.2V423h-4.3c-7.3 0-10.2 2.6-10.2 6.9 0 3.9 2.1 6 6.2 6 3.2 0 6.5-1.8 8.3-4.8zm53-27.2l-1.3 13.6h-5.6V410c-5.2.1-9 4.3-11.1 11.5v13.7h7.4v5.6h-20.6v-5.6h5.4v-25.6h-5.4V404h11.4l1.4 8.5c2.8-6.1 6.6-9.4 13-9.4 2-.1 3.7.2 5.4.8zm26.6 31.6c3.6 0 6.5-1.1 9.7-3.2l3.3 4.7c-3.4 2.8-8.2 4.5-13.4 4.5-11.5 0-17.8-7.8-17.8-19.3 0-11 6.3-19.4 16.8-19.4 9.8 0 15.9 7 15.9 18.4 0 1.3-.1 2.6-.2 3.5h-24.4c.6 7.6 4.8 10.8 10.1 10.8zm-10.1-16h17.1c-.1-7-3-10.8-8.2-10.8-4.9 0-8.4 3.4-8.9 10.8zm108.5 2.7c0 11.7-6 19.4-16.6 19.4-10.7 0-16.6-7.4-16.6-19.3 0-11.5 6-19.4 16.7-19.4s16.5 7.6 16.5 19.3zm-25 .1c0 9.1 2.8 13.3 8.4 13.3 5.6 0 8.4-4.2 8.4-13.4 0-9.1-2.8-13.2-8.4-13.2-5.6 0-8.4 4.2-8.4 13.3zm54.7 18.4h-9.1l-13-36.8h8.4l9.3 30.3 9.4-30.3h8l-13 36.8zm39.1-5.2c3.6 0 6.5-1.1 9.7-3.2l3.3 4.7c-3.4 2.8-8.2 4.5-13.4 4.5-11.5 0-17.8-7.8-17.8-19.3 0-11 6.3-19.4 16.8-19.4 9.8 0 15.9 7 15.9 18.4 0 1.3-.1 2.6-.2 3.5h-24.4c.5 7.6 4.8 10.8 10.1 10.8zm-10.1-16h17.1c-.1-7-3-10.8-8.2-10.8-5 0-8.5 3.4-8.9 10.8zm66.9-15.6l-1.3 13.6h-5.6V410c-5.2.1-9 4.3-11.1 11.5v13.7h7.4v5.6h-20.6v-5.6h5.4v-25.6h-5.4V404h11.4l1.4 8.5c2.8-6.1 6.6-9.4 13-9.4 2.1-.1 3.8.2 5.4.8zm31.5 26.8c0-3-1.2-4.4-8.8-6.3-7.3-1.9-12.1-4.5-12.1-10.9 0-6.3 5.6-10.6 14.7-10.6 6.2 0 10.7 1.8 14 4.2l-3.3 4.9c-2.9-1.9-6.1-3.3-10.4-3.3-5 0-7 1.6-7 4 0 2.8 2 3.8 9.3 5.9 7.2 2 11.9 4.5 11.9 11.4 0 8-7.8 11.4-16.2 11.4-6.8 0-11.7-2.2-15.1-5.2l4.1-4.7c2.9 2.3 6.7 4 11 4 4.9.2 7.9-1.7 7.9-4.8zm28.3-22.3c3-3.6 7.1-5.5 11.4-5.5 6.9 0 10.2 4 10.2 10.9v26.8H706V415c0-4.4-1.6-6.1-5.3-6.1-3.5 0-6.6 2.6-8.6 5.4v26.3h-7.8v-51.5l7.8-.8v20.1zm65.3 13.8c0 11.7-6 19.4-16.6 19.4-10.7 0-16.6-7.4-16.6-19.3 0-11.5 6-19.4 16.7-19.4s16.5 7.6 16.5 19.3zm-25.1.1c0 9.1 2.8 13.3 8.4 13.3 5.6 0 8.4-4.2 8.4-13.4 0-9.1-2.8-13.2-8.4-13.2-5.5 0-8.4 4.2-8.4 13.3zm66.9-.1c0 11.7-6 19.4-16.6 19.4-10.7 0-16.6-7.4-16.6-19.3 0-11.5 6-19.4 16.7-19.4 10.6 0 16.5 7.6 16.5 19.3zm-25.1.1c0 9.1 2.8 13.3 8.4 13.3 5.6 0 8.4-4.2 8.4-13.4 0-9.1-2.8-13.2-8.4-13.2-5.5 0-8.4 4.2-8.4 13.3zm55.5 19.3c-8.6 0-13.1-4.8-13.1-12v-19.9h-8.1V404h8.1v-8.2l7.8-.9v9.1h12.5l-.9 5.7h-11.6v19.8c0 4 1.9 5.9 6.4 5.9 2.6 0 4.9-.7 6.8-1.7l2.8 5.2c-2.7 1.6-6.6 2.7-10.7 2.7zm43.1-10.9c0-3-1.2-4.4-8.8-6.3-7.3-1.9-12.1-4.5-12.1-10.9 0-6.3 5.6-10.6 14.7-10.6 6.2 0 10.7 1.8 14 4.2l-3.3 4.9c-2.9-1.9-6.1-3.3-10.4-3.3-5 0-7 1.6-7 4 0 2.8 2 3.8 9.3 5.9 7.2 2 11.9 4.5 11.9 11.4 0 8-7.8 11.4-16.2 11.4-6.8 0-11.7-2.2-15.1-5.2l4.1-4.7c2.9 2.3 6.7 4 11 4 4.9.2 7.9-1.7 7.9-4.8z" class="st1"/></svg>