<svg xmlns="http://www.w3.org/2000/svg" id="Layer_1" viewBox="0 0 1440 1244" width="1440" height="1244"><style>.st0{fill:#2997ff}.st1{fill:#505050}.st2{fill:#999}.st3{fill:#fff}</style><circle cx="45.6" cy="113.3" r="34.2" class="st0"/><path d="M129.6 102.4h4.6V129h-4.6v-3.7c-1.5 2-4.4 4.5-9.1 4.5-6.7 0-12.9-4.7-12.9-14.1 0-9.2 6.1-13.9 12.9-13.9 5.1 0 7.9 2.8 9.1 4.4v-3.8zm-17.3 13.3c0 5.7 3.2 10 8.7 10 5.6 0 8.8-4.7 8.8-9.9 0-6.8-4.7-9.9-8.8-9.9-4.6 0-8.7 3.3-8.7 9.8zm50.1 13.3h-4.6V82.3h4.6v23.8c3.1-3.9 7.2-4.4 9.1-4.4 8.3 0 12.9 6.9 12.9 14.1 0 7.3-4.7 13.9-12.7 13.9-4.3 0-7.3-1.9-9.3-4.5v3.8zm17.3-13.1c0-6.5-4.4-10-8.7-10s-8.8 3.5-8.8 9.9c0 5.4 3.5 9.9 8.9 9.9 5.3 0 8.6-4.5 8.6-9.8zm47.5-6c-2.4-3.1-6-4-8.3-4-4.9 0-9.4 3.5-9.4 9.9s4.6 9.9 9.3 9.9c2.8 0 6.1-1.2 8.6-4.2v5.5c-2.9 2.1-6 2.8-8.4 2.8-8.3 0-14.2-5.9-14.2-13.9 0-8.1 6-14.1 14.2-14.1 4.2 0 7 1.7 8.3 2.6v5.5zm42.4-27.6h4.6V129h-4.6v-3.7c-1.5 2-4.4 4.5-9.1 4.5-6.7 0-12.9-4.7-12.9-14.1 0-9.2 6.1-13.9 12.9-13.9 5.1 0 7.9 2.8 9.1 4.4V82.3zm-17.2 33.4c0 5.7 3.2 10 8.7 10 5.6 0 8.8-4.7 8.8-9.9 0-6.8-4.7-9.9-8.8-9.9-4.6 0-8.7 3.3-8.7 9.8zm69 6.5c-.8 1.5-1.9 3.1-3.3 4.3-2.4 2.2-5.4 3.3-8.8 3.3-6.4 0-13.1-4-13.1-13.9 0-7.9 4.9-14.1 12.9-14.1 5.2 0 8.4 2.6 10 4.9 1.7 2.4 2.6 6.5 2.5 10h-20.7c.1 5.5 3.8 9 8.4 9 2.2 0 3.9-.6 5.4-1.9 1.2-1 2.2-2.4 2.8-3.6l3.9 2zm-4.5-9.4c-.8-4.2-3.9-6.9-7.8-6.9s-7.1 2.9-7.8 6.9h15.6zm31.4-6.1V129h-4.6v-22.3h-2.6v-4.2h2.6V90.9c0-2.4.2-5.5 2.6-7.5 1.3-1.1 3.2-1.7 5.3-1.7 1.7 0 2.8.4 3.3.6v4.5c-1-.4-2-.6-3-.6s-2.2.3-2.9 1.4c-.6 1-.6 2.4-.6 3.8v11.1h6.5v4.2h-6.6zm45.9-4.3h4.6v25.9c0 2.9 0 7-2.6 10.4-2 2.7-5.6 4.9-10.6 4.9-4.5 0-7.7-1.8-9.5-3.6-1.8-1.8-3.5-4.7-3.5-8.6h4.5c0 2.2.9 4.2 2 5.5 1.9 2.1 4.4 2.6 6.4 2.6 3.3 0 5.5-1.2 7-3.7 1.3-2.2 1.5-4.5 1.5-6.8v-3.8c-1.5 2-4.4 4.5-9.1 4.5-3.9 0-7-1.5-9.1-3.6-1.8-1.8-3.8-5.1-3.8-10.5 0-5.2 1.9-8.4 3.8-10.3 2.2-2.2 5.5-3.6 9.1-3.6 3.9 0 7 1.7 9.1 4.4v-3.7zm-14.6 6c-2.2 2.3-2.7 5.1-2.7 7.3 0 2.3.4 5.4 3 7.8 1.5 1.3 3.3 2.2 5.7 2.2 2.4 0 4.4-.8 5.8-2.2 1.8-1.7 3-4.5 3-7.7s-1.2-5.9-2.8-7.5c-1.5-1.5-3.6-2.4-6-2.4-2.8 0-4.7 1.2-6 2.5zm42.8-26.1h4.6v23.2c.8-1.1 3.2-3.7 7.6-3.7 3.1 0 6 1.3 7.6 3.6 1.3 2 1.5 4.2 1.5 7.1V129h-4.6v-16.3c0-1.6-.1-3.5-1.2-4.9-.9-1.2-2.3-1.9-4.4-1.9-1.6 0-3.3.4-4.7 2-1.8 2.1-1.9 5.2-1.9 7.2V129h-4.6V82.3zm47.3 6.8c1.8 0 3.3 1.5 3.3 3.3s-1.5 3.3-3.3 3.3c-1.8 0-3.3-1.5-3.3-3.3s1.5-3.3 3.3-3.3zm2.3 13.3V129h-4.6v-26.6h4.6zm25.9-13.3c1.8 0 3.3 1.5 3.3 3.3s-1.5 3.3-3.3 3.3c-1.8 0-3.3-1.5-3.3-3.3s1.5-3.3 3.3-3.3zm2.3 13.3v41.3h-4.6v-41.3h4.6zm28.3-20.1v30l9.7-9.9h6l-11.4 11.4 13.4 15.2h-6l-10.6-12.1-1.2 1.2V129h-4.6V82.3h4.7zm41.9 0V129h-4.6V82.3h4.6zm23.6 20.1h4.6v2.8c1.5-2.2 3.8-3.5 6.6-3.5 4.8 0 6.7 3.4 7.2 4.3 2.6-4 6.2-4.3 8-4.3 7.9 0 8.6 6.6 8.6 10.4V129h-4.6v-16.1c0-3-.4-7-4.7-7-5.3 0-5.9 5.1-5.9 8.3V129h-4.6v-15.7c0-1.9.1-7.4-4.8-7.4-5.2 0-5.8 5.4-5.8 8.6V129H594v-26.6zm58.7 0h4.6v3.1c.8-1.1 3.2-3.7 7.6-3.7 3.1 0 6 1.3 7.6 3.6 1.3 2 1.5 4.2 1.5 7.1V129h-4.6v-16.3c0-1.6-.1-3.5-1.2-4.9-.9-1.2-2.3-1.9-4.4-1.9-1.6 0-3.3.4-4.7 2-1.8 2.1-1.9 5.2-1.9 7.2V129h-4.6v-26.6zm43.4 13.4c0-8.1 6-14 14.1-14s14.1 6 14.1 14-6 14-14.1 14-14.1-5.9-14.1-14zm4.7 0c0 6.5 4.6 9.9 9.3 9.9 4.8 0 9.3-3.4 9.3-9.9s-4.5-9.9-9.3-9.9c-4.8 0-9.3 3.5-9.3 9.9zm50 27.9h-4.6v-41.3h4.6v3.7c3.1-3.9 7.2-4.4 9.1-4.4 8.3 0 12.9 6.9 12.9 14.1 0 7.3-4.7 13.9-12.7 13.9-4.3 0-7.3-1.9-9.3-4.5v18.5zm17.3-27.8c0-6.5-4.4-10-8.7-10-4.3 0-8.8 3.5-8.8 9.9 0 5.4 3.5 9.9 8.9 9.9 5.3 0 8.6-4.5 8.6-9.8zm47-13.5h4.6v41.3h-4.6v-18.4c-1.5 2-4.4 4.5-9.1 4.5-6.7 0-12.9-4.7-12.9-14.1 0-9.2 6.1-13.9 12.9-13.9 5.1 0 7.9 2.8 9.1 4.4v-3.8zm-17.3 13.3c0 5.7 3.2 10 8.7 10 5.6 0 8.8-4.7 8.8-9.9 0-6.8-4.7-9.9-8.8-9.9-4.5 0-8.7 3.3-8.7 9.8zm45.5-13.3h4.6v2.9c.4-.7 2.4-3.5 6-3.5 1.4 0 2.9.5 4.1 1.1l-2.2 4.2c-1-.7-2-.9-2.7-.9-1.9 0-3 .8-3.7 1.7-.8 1-1.5 2.8-1.5 7.2v14h-4.6v-26.7zm44.8 6.2c-.6-1.5-2-2.7-3.7-2.7-1.7 0-3.2 1-3.2 3 0 1.9 1.3 2.5 4.3 3.8 3.8 1.6 5.6 2.8 6.7 4.1 1.2 1.4 1.4 2.8 1.4 4.3 0 5.6-4 8.7-9.2 8.7-1.1 0-7-.1-9.3-6.8l4-1.7c.5 1.4 2 4.4 5.4 4.4 3 0 4.4-2.2 4.4-4.2 0-2.5-1.8-3.3-4.3-4.4-3.2-1.4-5.2-2.4-6.5-3.9-1-1.3-1.2-2.6-1.2-3.9 0-4.7 3.3-7.4 7.7-7.4 1.4 0 5.2.3 7.3 4.8l-3.8 1.9zm31.2-1.9V129h-4.6v-22.3h-2.8v-4.2h2.8v-9.6h4.6v9.6h4.6v4.2h-4.6zm28.5 11.2c0 1.9 0 4 1.3 5.7.7.9 2.1 2 4.7 2s4-1.2 4.7-2c1.3-1.7 1.3-3.8 1.3-5.7v-15.5h4.6v16c0 3.3-.3 5.7-2.4 8-2.4 2.5-5.5 3.3-8.1 3.3s-5.8-.8-8.1-3.3c-2.1-2.3-2.4-4.7-2.4-8v-16h4.6v15.5zm41.4-15.5l7.9 17.9 7.9-17.9h5.1L997 130.7l-13.1-28.3h5.3zm42.1 0l7.9 18 8.3-20.1 8.3 20.1 7.9-18h5.1l-13.2 28.4-8.2-19.8-8.2 19.8-13.1-28.4h5.2zm64.7 12.4l-9.7-12.4h5.6l6.8 9 7-9h5.6l-9.7 12.4 11 14.1h-5.6l-8.4-10.8-8.4 10.8h-5.6l11.4-14.1zm44.9 11.7l-12.2-24.1h5.2l9.4 19 8.6-19h5.1l-19.5 41.3h-5.1l8.5-17.2zm41.4-1.7h18.4v4.2H1173l19.2-22.3h-15.5v-4.2h24.7l-19.1 22.3zM134.7 260.6h-5.1v-4.2h-.1c-2.6 3.3-6.1 5-10.4 5-8.8 0-14.4-7.5-14.4-15.8 0-8.6 5.4-15.9 14.5-15.9 4.1 0 7.8 1.9 10.3 5.1h.1v-4.3h5.1v30.1zm-24.8-15.3c0 5.9 3.5 11.5 9.9 11.5 6.6 0 10-5.3 10-11.4 0-6-3.8-10.9-10.1-10.9-5.9 0-9.8 5.1-9.8 10.8zm53.7-37.5h5.1v27h.1c2.4-3.2 6.2-5.1 10.3-5.1 9 0 14.5 7.4 14.5 15.9 0 8.4-5.6 15.9-14.4 15.9-4.2 0-7.9-1.7-10.4-5h-.1v4.2h-5.1v-52.9zm4.9 37.5c0 5.9 3.5 11.5 9.9 11.5 6.6 0 10-5.3 10-11.4 0-6-3.8-10.9-10.1-10.9-6 0-9.8 5.1-9.8 10.8zm74.4-5.8h-.1c-2.4-3-5.3-5.1-9.3-5.1-6.2 0-10.6 5.1-10.6 11.1s4.1 11.1 10.4 11.1c4.3 0 7.3-1.9 9.8-5.2h.1v6.8c-2.9 2-6 3.1-9.5 3.1-9.1 0-16-6.8-16-15.9 0-9 7.2-15.9 16.1-15.9 3.3 0 6.6 1.1 9.3 3v7zm50.1 17h-.1c-2.5 3.3-6.3 5-10.4 5-8.8 0-14.4-7.5-14.4-15.8 0-8.6 5.4-15.9 14.5-15.9 4 0 7.9 1.9 10.3 5.1h.1v-27h5.1v52.8H293v-4.2zm-19.6-11.2c0 5.9 3.5 11.5 9.9 11.5 6.6 0 10-5.3 10-11.4 0-6-3.8-10.9-10.1-10.9-6 0-9.8 5.1-9.8 10.8zm56.5 1.4c.1 5.6 4 10 9.9 10 4.4 0 7.2-2.6 9.2-6.2l4.4 2.5c-2.9 5.4-7.7 8.4-13.9 8.4-9 0-14.7-6.8-14.7-15.5 0-8.9 5.2-16.3 14.6-16.3 9.7 0 14.8 8 14.3 17h-23.8zm18.2-4.4c-.7-4.4-4.4-7.9-8.8-7.9s-8.5 3.5-9.2 7.9h18zm37.7 18.3h-5.1v-25.3h-2.8v-4.7h2.8v-12c0-2.5 0-5.6 1.3-7.8 1.7-2.7 4.7-3.8 7.7-3.8 1.2 0 2.4.3 3.6.6v5.2c-1.2-.4-2.2-.7-3.5-.7-4.2 0-4.2 2.9-4.2 8.3v10.2h7.6v4.7h-7.6v25.3zm58.9-1.4c0 4.8 0 9-3.1 12.9-2.8 3.6-7.2 5.3-11.6 5.3-8.4 0-14.6-5.3-14.8-13.8h5.1c.1 5.6 4.1 9.1 9.6 9.1 7.9 0 9.7-5.8 9.7-12.6v-3.6h-.1c-2.4 3.1-6.4 5-10.4 5-8.8 0-14.3-7.4-14.3-15.7 0-8.4 5.6-16 14.5-16 4.2 0 7.8 1.9 10.2 5.1h.1v-4.3h5.1v28.6zm-24.8-13.9c0 5.9 3.5 11.5 9.9 11.5 6.6 0 10-5.3 10-11.4 0-6-3.8-10.9-10.1-10.9-6 0-9.8 5.1-9.8 10.8zm59.6-37.5V234l.1.1c2.1-2.9 4.9-4.5 8.6-4.5 8.3 0 10.2 6 10.2 13.1v17.9h-5.1v-17c0-4.9-.4-9.2-6.3-9.2-7 0-7.5 6.5-7.5 11.9v14.3h-5.1v-52.8h5.1zm55.5 11.4c0 2-1.7 3.6-3.6 3.6s-3.6-1.6-3.6-3.6 1.7-3.6 3.6-3.6 3.6 1.6 3.6 3.6zm-1.1 41.4h-5.1v-30.1h5.1v30.1zm37.6-41.4c0 2-1.7 3.6-3.6 3.6s-3.6-1.6-3.6-3.6 1.7-3.6 3.6-3.6 3.6 1.6 3.6 3.6zm-1.1 58.3h-5.1v-47h5.1v47zm35.3-35.8l10.9-11.1h6.8l-12.9 12.8 15.3 17.3H619l-12-13.8-1.3 1.3v12.4h-5.1v-52.8h5.1v33.9zm49.9 18.9h-5.1v-52.8h5.1v52.8zm34.4-26.8h.1c1.6-2.5 4.2-4.1 7.2-4.1 3.5 0 6.7 1.9 8.3 5 1.8-3.3 5.4-5 9-5 7.7 0 9.6 6.3 9.6 12.6v18.3h-5.1v-17.5c0-3.9-.3-8.7-5.5-8.7-5.9 0-6.5 5.7-6.5 10.2v15.9H702v-17.1c0-3.7-.4-9.1-5.4-9.1-6 0-6.7 6.1-6.7 10.6v15.6h-5.1v-30.1h5.1v3.4zm68.8.4h.1c2.1-2.9 4.9-4.5 8.6-4.5 8.3 0 10.2 6 10.2 13.1v17.9h-5.1v-17c0-4.9-.4-9.2-6.3-9.2-7 0-7.5 6.5-7.5 11.9v14.3h-5.1v-30.1h5.1v3.6zm45.7 11.5c0-8.8 7-15.9 15.8-15.9s15.8 7.1 15.8 15.9-7 15.8-15.8 15.8-15.8-7-15.8-15.8zm5.1-.1c0 6.1 4.4 11.1 10.7 11.1 6.3 0 10.7-5 10.7-11.1s-4.4-11.1-10.7-11.1c-6.3 0-10.7 5-10.7 11.1zm58.2-10.8h.1c2.5-3.3 6.2-5.1 10.4-5.1 8.8 0 14.4 7.6 14.4 15.9 0 8.6-5.4 15.8-14.5 15.8-4.1 0-7.9-1.8-10.3-5.1h-.1v21.1h-5.1v-47h5.1v4.4zm-.3 10.5c0 5.9 3.5 11.5 9.9 11.5 6.6 0 10-5.3 10-11.4 0-6-3.8-10.9-10.1-10.9-6 0-9.8 5.1-9.8 10.8zm79.5 32.2h-5.1v-21.1h-.1c-2.4 3.3-6.3 5.1-10.3 5.1-9 0-14.5-7.2-14.5-15.7 0-8.4 5.5-16 14.4-16 4.1 0 7.9 1.8 10.4 5.1h.1v-4.3h5.1v46.9zm-24.8-32.2c0 5.9 3.5 11.5 9.9 11.5 6.6 0 10-5.3 10-11.4 0-6-3.8-10.9-10.1-10.9-5.9 0-9.8 5.1-9.8 10.8zm58.8-11.5h.1c1.8-2.4 3.3-4.1 6.7-4.1 1.7 0 3.1.6 4.6 1.4l-2.4 4.7c-1-.7-1.7-1.3-3.1-1.3-5.6 0-5.9 7.2-5.9 11.1v15h-5.1v-30.1h5.1v3.3zm48.5 3.7c-.7-1.6-2.2-3.1-4.1-3.1-1.8 0-3.7 1.4-3.7 3.3 0 2.8 3.5 3.8 7 5.2 3.5 1.5 7 3.6 7 8.6 0 5.7-4.6 9.8-10.2 9.8-5.1 0-9-2.9-10.6-7.6l4.5-1.9c1.3 2.8 2.8 4.8 6.1 4.8 2.8 0 4.9-1.9 4.9-4.6 0-6.7-13.6-4.4-13.6-13.9 0-5.1 4.1-8.5 9-8.5 3.5 0 6.7 2.4 8 5.6l-4.3 2.3zm38.4 23.1h-5.1v-25.3h-3.1v-4.7h3.1v-10.8h5.1v10.8h5.4v4.7h-5.4v25.3zm34.5-13.3c0 5.1.6 9.4 6.8 9.4s6.8-4.4 6.8-9.4v-16.8h5.1v17.3c0 8-3 13.6-11.9 13.6s-11.9-5.6-11.9-13.6v-17.3h5.1v16.8zm57.7 3.5l9-20.2h5.8l-14.7 32.1-14.8-32.1h5.8l8.9 20.2zm49.4.1l9.3-22.7 9.4 22.7 9-20.4h5.8l-14.9 32.2-9.3-22.4-9.3 22.4-14.8-32.2h5.8l9 20.4zm55.4-20.3h6.3l7.9 10.2 7.9-10.2h6.4l-11 14.1 12.5 16h-6.2l-9.5-12.2-9.6 12.2h-6.4l12.8-16-11.1-14.1zm49.5 0h6l10.6 21.6 9.7-21.6h5.8l-22.2 47h-5.8l9.7-19.7-13.8-27.3zm83.5 25.3v4.7h-31.1l21.7-25.3h-17.7v-4.7h28l-21.6 25.3h20.7z"/><path d="M901.1 813.9h.8c12.5-17.1 28.9-26.6 50.9-26.6 49.4 0 60.8 35.7 60.8 77.5v106h-30.4V870.1c0-28.9-2.3-54.7-37.6-54.7-41.8 0-44.5 38.8-44.5 70.7v84.7h-30.4V792.2h30.4v21.7z" class="st0"/><path d="M93 734.1c0 11-9 19.7-19.7 19.7s-19.7-8.6-19.7-19.7c0-10.7 9-19.7 19.7-19.7s19.7 9 19.7 19.7zm-5.9 314.5H59.5V795.2h27.6v253.4zm230.3-249.1h28.9V966h-28.9v-23.3c-9.6 12.4-27.7 28.1-57 28.1-42.1 0-81-29.7-81-88.2 0-57.4 38.5-87 81-87 32.1 0 49.3 17.6 57 27.7v-23.8zm-108.3 83.1c0 35.7 20.1 62.6 54.6 62.6 35.3 0 55.4-29.3 55.4-62.2 0-42.9-29.7-61.8-55.4-61.8-28.5 0-54.6 20.9-54.6 61.4z" class="st1"/><path d="M347.2 966h-29.6v-24h-.7c-15.2 19.2-35.5 28.8-59.9 28.8-51 0-83.2-43.3-83.2-91.3 0-49.6 31.4-92.1 83.6-92.1 23.7 0 45.1 11.1 59.5 29.6h.7v-24.8h29.6V966zm-143.1-88.7c0 34 20 66.2 56.9 66.2 38.1 0 58.1-30.7 58.1-65.8 0-34.8-21.8-62.9-58.4-62.9-34.5 0-56.6 29.9-56.6 62.5zM59 729.4c10.5 0 19.1 8.6 19.1 19.1s-8.6 19.1-19.1 19.1-19.1-8.6-19.1-19.1 8.6-19.1 19.1-19.1zm13.4 77.9v241.6h-27V807.3h27z" class="st0"/><path d="M109.1 395.2h12.5v4.2h-12.5v14.1h-5.6v-33.1h20.4l-.6 4.2h-14.2v10.6zm26.7 10.8c0 3 1.2 4.2 3.6 4.2 2.4 0 4.7-1.6 5.9-3.6v-18.3h5.4v25.3H146l-.3-3.3c-1.9 2.5-5 3.9-8 3.9-4.9 0-7.3-2.8-7.3-7.6v-18.4h5.4V406zm37.2 8.2c-5.9 0-9-3.3-9-8.3v-13.7h-5.6v-3.9h5.6v-5.7l5.4-.6v6.3h8.6l-.6 3.9h-8v13.7c0 2.7 1.3 4 4.4 4 1.8 0 3.4-.5 4.7-1.2l1.9 3.6c-1.8 1.1-4.5 1.9-7.4 1.9zm20.4-8.2c0 3 1.2 4.2 3.6 4.2 2.4 0 4.7-1.6 5.9-3.6v-18.3h5.4v25.3h-4.7l-.3-3.3c-1.9 2.5-5 3.9-8 3.9-4.9 0-7.3-2.8-7.3-7.6v-18.4h5.4V406zm45.3-17.8l-.9 9.4H234v-5.2c-3.6.1-6.2 3-7.7 7.9v9.4h5.1v3.8h-14.2v-3.8h3.7V392h-3.7v-3.8h7.8l1 5.9c1.9-4.2 4.6-6.5 8.9-6.5 1.4 0 2.6.3 3.8.6zm28.3 22.4l-1.2 3.6c-2.4-.3-4.3-1.3-5.2-3.5-1.9 2.4-4.8 3.5-8.1 3.5-5.2 0-8.4-3.2-8.4-7.9 0-5.3 4.3-8.3 12-8.3h3.6v-1.6c0-3.3-2.1-4.6-5.6-4.6-1.7 0-4.2.4-6.7 1.3l-1.3-3.8c3.2-1.2 6.3-1.7 8.9-1.7 6.8 0 10.1 3.2 10.1 8.5v11.3c-.1 2 .5 2.7 1.9 3.2zm-7.3-3.6v-5.6h-3c-5 0-7 1.8-7 4.8 0 2.7 1.4 4.1 4.3 4.1 2.2 0 4.5-1.2 5.7-3.3zm53.4-5.2h-4v11.8h-5.5v-33.1h9.2c8.4 0 13.3 3.4 13.3 10.4 0 7.7-5.4 10.9-13 10.9zm0-17.2h-4v12.9h4.1c4.2 0 7.1-1.6 7.1-6.7-.1-4.4-2.9-6.2-7.2-6.2zm40.3 26l-1.2 3.6c-2.4-.3-4.3-1.3-5.2-3.5-1.9 2.4-4.8 3.5-8.1 3.5-5.2 0-8.4-3.2-8.4-7.9 0-5.3 4.3-8.3 12-8.3h3.6v-1.6c0-3.3-2.1-4.6-5.6-4.6-1.7 0-4.2.4-6.7 1.3l-1.3-3.8c3.2-1.2 6.3-1.7 8.9-1.7 6.8 0 10.1 3.2 10.1 8.5v11.3c-.1 2 .5 2.7 1.9 3.2zm-7.3-3.6v-5.6h-3c-5 0-7 1.8-7 4.8 0 2.7 1.4 4.1 4.3 4.1 2.2 0 4.5-1.2 5.7-3.3zm36.5-18.8l-.9 9.4h-3.8v-5.2c-3.6.1-6.2 3-7.7 7.9v9.4h5.1v3.8h-14.2v-3.8h3.7V392h-3.7v-3.8h7.8l1 5.9c1.9-4.2 4.6-6.5 8.9-6.5 1.5 0 2.7.3 3.8.6zm28.4 22.4l-1.2 3.6c-2.4-.3-4.3-1.3-5.2-3.5-1.9 2.4-4.8 3.5-8.1 3.5-5.2 0-8.4-3.2-8.4-7.9 0-5.3 4.3-8.3 12-8.3h3.6v-1.6c0-3.3-2.1-4.6-5.6-4.6-1.7 0-4.2.4-6.7 1.3l-1.3-3.8c3.2-1.2 6.3-1.7 8.9-1.7 6.8 0 10.1 3.2 10.1 8.5v11.3c-.1 2 .5 2.7 1.9 3.2zm-7.3-3.6v-5.6h-3c-5 0-7 1.8-7 4.8 0 2.7 1.4 4.1 4.3 4.1 2.2 0 4.5-1.2 5.7-3.3zm27.6 6.6h-5.6V385h-10v-4.5h25.7l-.6 4.5h-9.6v28.6zm29.4.1c-1.9 5.8-5.3 9.6-12.4 10.3l-.7-4c5.1-.8 6.8-2.7 8.1-6.3h-1.8l-8.5-25.3h5.7l6.4 21.6 6.5-21.6h5.5l-8.8 25.3zm37-12.8c0 7.7-3.4 13.3-9.8 13.3-2.6 0-4.8-.9-6.4-2.8v11.9l-5.4.6v-35.7h4.7l.3 3.3c1.9-2.6 4.6-3.9 7.4-3.9 6.6 0 9.2 5.2 9.2 13.3zm-16.3-5.6v11.9c1.2 1.8 2.9 2.8 5 2.8 3.6 0 5.6-2.8 5.6-9.1 0-6.5-1.7-9.2-5-9.2-2.5 0-4.3 1.7-5.6 3.6zm34.8 14.7c2.4 0 4.5-.8 6.7-2.2l2.3 3.3c-2.4 1.9-5.7 3.1-9.2 3.1-7.9 0-12.2-5.4-12.2-13.3 0-7.6 4.4-13.3 11.6-13.3 6.7 0 10.9 4.8 10.9 12.7 0 .9 0 1.8-.1 2.4h-16.8c.3 5.1 3.2 7.3 6.8 7.3zm-6.9-11H521c-.1-4.8-2.1-7.4-5.7-7.4-3.3 0-5.7 2.3-6 7.4zm-398.2 72.8c-5.4 0-9.4-1.7-12.2-4.4l3.1-3.4c2.4 2.2 5.2 3.5 9.1 3.5 3.7 0 6.9-1.8 6.9-5.3 0-2.9-1.5-4.3-6.8-5.9-7.1-2.1-10.7-4.7-10.7-9.8 0-5.4 4.8-9 11.4-9 4.8 0 8.3 1.4 11.1 4l-2.9 3.3c-2.4-2-5.1-2.9-7.8-2.9-3.4 0-6 1.4-6 4.3 0 2.6 1.8 3.8 7.7 5.5 5.6 1.7 9.8 4 9.8 10.3-.1 5.7-4.7 9.8-12.7 9.8zm30.7-4.2c2.4 0 4.5-.8 6.7-2.2l2.3 3.3c-2.4 1.9-5.7 3.1-9.2 3.1-7.9 0-12.2-5.4-12.2-13.3 0-7.6 4.4-13.3 11.6-13.3 6.7 0 10.9 4.8 10.9 12.7 0 .9 0 1.8-.1 2.4H135c.3 5.1 3.2 7.3 6.8 7.3zm-6.9-11h11.8c-.1-4.8-2.1-7.4-5.7-7.4-3.4 0-5.8 2.3-6.1 7.4zm38.1 15.2c-5.9 0-9-3.3-9-8.3v-13.7h-5.6v-3.9h5.6v-5.7l5.4-.6v6.3h8.6l-.6 3.9h-8v13.7c0 2.7 1.3 4 4.4 4 1.8 0 3.4-.5 4.7-1.2l1.9 3.6c-1.8 1.1-4.5 1.9-7.4 1.9zm68-14.5c0 12.1-1.3 18.3-7.2 18.3-3.9 0-5.6-3.9-5.7-6.8h-.2c-1 2.3-2.9 4.6-6.6 4.6-5.4 0-7.4-4.7-7.4-11 0-8.2 3.4-12.6 9.7-12.6 2.3 0 4.6.5 7.2 1.9V466c0 4.6 1.2 5.8 2.8 5.8 2.5 0 2.6-5.4 2.6-14.3 0-9.5-1.6-16.1-10-16.1-3.3 0-6.8 1-10.8 4.4l-2.6-3c4.3-3.8 8.8-5.4 13.4-5.4 12.1 0 14.8 9.3 14.8 19.9zm-22.3 5.1c0 4.6.8 7.3 3.3 7.3 2.9 0 3.7-2.5 4.1-3.9v-11.7c-.9-.4-1.6-.6-2.6-.6-3.7 0-4.8 2.8-4.8 8.9zm77.2-2.4c0 7.1-4.6 11.8-10.9 11.8-8.3 0-11.5-6.7-11.5-16 0-11 4.9-18.4 13.1-18.4 2.7 0 4.9.8 6.8 2l-2.1 3.5c-1.4-.9-3.1-1.4-4.8-1.4-4.5 0-7.3 4.5-7.6 11.8 2.1-2.7 4.7-3.9 7.6-3.9 5.2 0 9.4 3.5 9.4 10.6zm-5.4.2c0-5.1-2-6.9-5-6.9-2.6 0-4.9 1.5-6.4 3.9.1 7.2 1.8 10.5 6 10.5 3.6 0 5.4-3 5.4-7.5zm34.3 3.4h-3.9v7.6h-5.2v-7.6H302v-3.7l9.5-22.4 4.5 1.8-8.4 20.2h8.2l.5-8.8h4.6v8.8h3.9v4.1zm28.9-5.1c0 7.7-3.4 13.3-9.8 13.3-2.6 0-4.8-.9-6.4-2.8v11.9l-5.4.6v-35.7h4.7l.3 3.3c1.9-2.6 4.6-3.9 7.4-3.9 6.6 0 9.2 5.2 9.2 13.3zm-16.3-5.6v11.9c1.2 1.8 2.9 2.8 5 2.8 3.6 0 5.6-2.8 5.6-9.1 0-6.5-1.7-9.2-5-9.2-2.4 0-4.3 1.7-5.6 3.6zm37.2 18.9c-5.9 0-9-3.3-9-8.3v-13.7H360v-3.9h5.6v-5.7l5.4-.6v6.3h8.6l-.6 3.9h-8v13.7c0 2.7 1.3 4 4.4 4 1.8 0 3.4-.5 4.7-1.2l1.9 3.6c-1.8 1.1-4.5 1.9-7.4 1.9zM33.7 1144.7c-5.4 0-9.4-1.7-12.2-4.4l3.1-3.4c2.4 2.2 5.2 3.5 9.1 3.5 3.7 0 6.9-1.8 6.9-5.3 0-2.9-1.5-4.3-6.8-5.9-7.1-2.1-10.7-4.7-10.7-9.8 0-5.4 4.8-9 11.4-9 4.8 0 8.3 1.4 11.1 4l-2.9 3.3c-2.4-2-5.1-2.9-7.8-2.9-3.4 0-6 1.4-6 4.3 0 2.6 1.8 3.8 7.7 5.5 5.6 1.7 9.8 4 9.8 10.3 0 5.8-4.7 9.8-12.7 9.8zm33.2-4.5h6.9v3.9H54v-3.9h7.5v-17.5h-7.3v-3.9h12.7v21.4zm-.2-30.4c0 1.9-1.4 3.4-3.5 3.4s-3.5-1.4-3.5-3.4 1.4-3.4 3.5-3.4c2.1-.1 3.5 1.4 3.5 3.4zm35.3 30l-.6 4.3H82v-3.9l13.5-17.1H83v-4.3h18.8v3.9l-13.4 17.1H102zm20.1.8c2.4 0 4.5-.8 6.7-2.2l2.3 3.3c-2.4 1.9-5.7 3.1-9.2 3.1-7.9 0-12.2-5.4-12.2-13.3 0-7.6 4.4-13.3 11.6-13.3 6.7 0 10.9 4.8 10.9 12.7 0 .9 0 1.8-.1 2.4h-16.8c.2 5.1 3.1 7.3 6.8 7.3zm-7-11.1h11.8c-.1-4.8-2.1-7.4-5.7-7.4-3.4 0-5.8 2.3-6.1 7.4zm74.5 11.6l-1.2 3.6c-2.4-.3-4.3-1.3-5.2-3.5-1.9 2.4-4.8 3.5-8.1 3.5-5.2 0-8.4-3.2-8.4-7.9 0-5.3 4.3-8.3 12-8.3h3.6v-1.6c0-3.3-2.1-4.6-5.6-4.6-1.7 0-4.2.4-6.7 1.3l-1.3-3.8c3.2-1.2 6.3-1.7 8.9-1.7 6.8 0 10.1 3.2 10.1 8.5v11.3c0 2 .6 2.8 1.9 3.2zm-7.2-3.6v-5.6h-3c-5 0-7 1.8-7 4.8 0 2.7 1.4 4.1 4.3 4.1 2.1 0 4.4-1.2 5.7-3.3zm34.9-28.9v35.5h-4.8l-.4-3.1c-1.7 2.4-4.1 3.7-7.1 3.7-6.5 0-9.6-5.3-9.6-13.3 0-7.7 3.8-13.3 10-13.3 2.6 0 4.8 1 6.4 2.8V1108l5.5.6zm-16 22.9c0 6.5 1.9 9.2 5.3 9.2 2.4 0 4.2-1.6 5.4-3.6v-12c-1.2-1.8-2.9-2.8-5-2.8-3.6-.1-5.7 2.8-5.7 9.2zm42.2 7.3c0 9.5-6 13.7-16.8 15.7l-.9-4.1c7.5-1.4 12.3-4.2 12.3-11.2v-16.4h-10v-3.9h15.4v19.9zm-.7-29c0 1.9-1.4 3.4-3.5 3.4s-3.5-1.4-3.5-3.4 1.4-3.4 3.5-3.4c2.1-.1 3.5 1.4 3.5 3.4zm17.3 26.7c0 3 1.2 4.2 3.6 4.2 2.4 0 4.7-1.6 5.9-3.6v-18.3h5.4v25.3h-4.7l-.3-3.3c-1.9 2.5-5 3.9-8 3.9-4.9 0-7.3-2.8-7.3-7.6v-18.4h5.4v17.8zm38.1.8c0-2.1-.8-3-6-4.4-5-1.3-8.4-3.1-8.4-7.5s3.9-7.3 10.1-7.3c4.3 0 7.3 1.2 9.6 2.9l-2.3 3.4c-2-1.3-4.2-2.3-7.2-2.3-3.5 0-4.8 1.1-4.8 2.8 0 1.9 1.4 2.6 6.4 4 4.9 1.3 8.2 3.1 8.2 7.9 0 5.5-5.4 7.9-11.2 7.9-4.7 0-8.1-1.5-10.4-3.6l2.8-3.3c2 1.6 4.6 2.7 7.6 2.7 3.5.2 5.6-1.1 5.6-3.2zm27.9 7.4c-5.9 0-9-3.3-9-8.3v-13.7h-5.6v-3.9h5.6v-5.7l5.4-.6v6.3h8.6l-.6 3.9h-8v13.7c0 2.7 1.3 4 4.4 4 1.8 0 3.4-.5 4.7-1.2l1.9 3.6c-1.9 1.2-4.6 1.9-7.4 1.9zm26.4-4.1c2.4 0 4.5-.8 6.7-2.2l2.3 3.3c-2.4 1.9-5.7 3.1-9.2 3.1-7.9 0-12.2-5.4-12.2-13.3 0-7.6 4.4-13.3 11.6-13.3 6.7 0 10.9 4.8 10.9 12.7 0 .9 0 1.8-.1 2.4h-16.8c.2 5.1 3.1 7.3 6.8 7.3zm-7-11.1h11.8c-.1-4.8-2.1-7.4-5.7-7.4-3.4 0-5.8 2.3-6.1 7.4zm44.6-20.9v35.5h-4.8l-.4-3.1c-1.7 2.4-4.1 3.7-7.1 3.7-6.5 0-9.6-5.3-9.6-13.3 0-7.7 3.8-13.3 10-13.3 2.6 0 4.8 1 6.4 2.8V1108l5.5.6zm-16 22.9c0 6.5 1.9 9.2 5.3 9.2 2.4 0 4.2-1.6 5.4-3.6v-12c-1.2-1.8-2.9-2.8-5-2.8-3.6-.1-5.7 2.8-5.7 9.2zm67.2 13.2c-5.9 0-9-3.3-9-8.3v-13.7h-5.6v-3.9h5.6v-5.7l5.4-.6v6.3h8.6l-.6 3.9h-8v13.7c0 2.7 1.3 4 4.4 4 1.8 0 3.4-.5 4.7-1.2l1.9 3.6c-1.9 1.2-4.6 1.9-7.4 1.9zm36.6-13.3c0 8.1-4.1 13.3-11.5 13.3s-11.5-5.1-11.5-13.3c0-7.9 4.1-13.3 11.5-13.3s11.5 5.2 11.5 13.3zm-17.3.1c0 6.3 1.9 9.2 5.8 9.2s5.8-2.9 5.8-9.2c0-6.2-1.9-9.1-5.8-9.1-3.8-.1-5.8 2.8-5.8 9.1zm68 5.8c0-2.1-.8-3-6-4.4-5-1.3-8.4-3.1-8.4-7.5s3.9-7.3 10.1-7.3c4.3 0 7.3 1.2 9.6 2.9l-2.3 3.4c-2-1.3-4.2-2.3-7.2-2.3-3.5 0-4.8 1.1-4.8 2.8 0 1.9 1.4 2.6 6.4 4 4.9 1.3 8.2 3.1 8.2 7.9 0 5.5-5.4 7.9-11.2 7.9-4.7 0-8.1-1.5-10.4-3.6l2.8-3.3c2 1.6 4.6 2.7 7.6 2.7 3.5.2 5.6-1.1 5.6-3.2zm19.5-15.4c2.1-2.5 4.9-3.8 7.9-3.8 4.8 0 7.1 2.8 7.1 7.5v18.5h-5.4v-17.7c0-3-1.1-4.2-3.6-4.2-2.4 0-4.6 1.8-5.9 3.7v18.1h-5.4v-35.5l5.4-.6v14zm45 9.5c0 8.1-4.1 13.3-11.5 13.3s-11.5-5.1-11.5-13.3c0-7.9 4.1-13.3 11.5-13.3s11.5 5.2 11.5 13.3zm-17.3.1c0 6.3 1.9 9.2 5.8 9.2s5.8-2.9 5.8-9.2c0-6.2-1.9-9.1-5.8-9.1-3.8-.1-5.8 2.8-5.8 9.1zm37.6 12.6l-2.9-18-3.1 18h-6.6l-4.3-25.3h5.2l2.6 22 3.6-18.8h5.4l3.3 18.8 2.6-22h5l-4.1 25.3h-6.7zM47 1177.6c-2 .7-4.4.8-7.3.8 3 1.4 4.6 3.4 4.6 6.5 0 4.9-3.8 8.5-10 8.5-1.4 0-2.4-.1-3.5-.4-.7.5-1.1 1.3-1.1 2.1 0 1 .6 1.9 3.1 1.9h4.4c5.4 0 9.3 3 9.3 7.1 0 5-4.5 8-12.7 8-8.7 0-11.3-2.7-11.3-7.9h4.8c0 2.7 1.2 3.9 6.5 3.9s7.2-1.3 7.2-3.7c0-2.1-1.9-3.2-4.9-3.2h-4.4c-4.8 0-6.9-2.3-6.9-4.9 0-1.7 1-3.4 2.8-4.6-3-1.6-4.3-3.8-4.3-7.1 0-5.3 4.3-9 10.6-9 6.1 0 8.7-1.1 11.7-2.5l1.4 4.5zm-18.2 7.1c0 3.2 1.7 5.3 5.2 5.3 3.2 0 4.9-1.9 4.9-5.4 0-3.4-1.6-5.1-4.9-5.1-3.5-.1-5.2 2.1-5.2 5.2zm35.4 10.1c0 2.4 1.6 3.2 3.8 3.2 1.4 0 2.7-.3 4-.9l1.3 3.7c-1.5.8-3.7 1.4-6.5 1.4-5.1 0-8.1-3-8.1-8V1170h-7.6v-3.9h13v28.7zm31.1 7c-1.9 5.8-5.3 9.6-12.4 10.3l-.7-4c5.1-.8 6.8-2.7 8.1-6.3h-1.8l-8.5-25.3h5.7l6.4 21.6 6.5-21.6h5.5l-8.8 25.3zm37-12.8c0 7.7-3.4 13.3-9.8 13.3-2.6 0-4.8-.9-6.4-2.8v11.9l-5.4.6v-35.7h4.7l.3 3.3c1.9-2.6 4.6-3.9 7.4-3.9 6.6 0 9.2 5.2 9.2 13.3zm-16.2-5.5v11.9c1.2 1.8 2.9 2.8 5 2.8 3.6 0 5.6-2.8 5.6-9.1 0-6.5-1.7-9.2-5-9.2-2.5-.1-4.4 1.6-5.6 3.6zm28.8-4c2.1-2.5 4.9-3.8 7.9-3.8 4.8 0 7.1 2.8 7.1 7.5v18.5h-5.4V1184c0-3-1.1-4.2-3.6-4.2-2.4 0-4.6 1.8-5.9 3.7v18.1h-5.4v-35.5l5.4-.6v14zm72.4-13.3v35.5h-4.8l-.4-3.1c-1.7 2.4-4.1 3.7-7.1 3.7-6.5 0-9.6-5.3-9.6-13.3 0-7.7 3.8-13.3 10-13.3 2.6 0 4.8 1 6.4 2.8v-12.9l5.5.6zm-16 22.8c0 6.5 1.9 9.2 5.3 9.2 2.4 0 4.2-1.6 5.4-3.6v-12c-1.2-1.8-2.9-2.8-5-2.8-3.6 0-5.7 2.9-5.7 9.2zm38.4 8.8h6.9v3.9h-19.8v-3.9h7.5v-17.5H227v-3.9h12.7v21.4zm-.2-30.4c0 1.9-1.4 3.4-3.5 3.4s-3.5-1.4-3.5-3.4c0-1.9 1.4-3.4 3.5-3.4 2.1-.1 3.5 1.4 3.5 3.4zm38.2-.3l-1.6 3.7c-1.7-.7-3.6-1.1-5.4-1.1-3.3 0-4.9 1.2-4.9 3.9v4.5h8.5l-.6 4h-7.9v19.5h-5.4v-19.5h-5.8v-4h5.8v-4.6c0-4.8 3.9-8.1 9.7-8.1 3.1.2 5.5.8 7.6 1.7zm28.8 0l-1.6 3.7c-1.7-.7-3.6-1.1-5.4-1.1-3.3 0-4.9 1.2-4.9 3.9v4.5h8.5l-.6 4h-7.9v19.5h-5.4v-19.5h-5.8v-4h5.8v-4.6c0-4.8 3.9-8.1 9.7-8.1 3.1.2 5.5.8 7.6 1.7zm17.2 31.1c2.4 0 4.5-.8 6.7-2.2l2.3 3.3c-2.4 1.9-5.7 3.1-9.2 3.1-7.9 0-12.2-5.4-12.2-13.3 0-7.6 4.4-13.3 11.6-13.3 6.7 0 10.9 4.8 10.9 12.7 0 .9 0 1.8-.1 2.4h-16.8c.2 5.1 3.1 7.3 6.8 7.3zm-7-11.1h11.8c-.1-4.8-2.1-7.4-5.7-7.4-3.4 0-5.8 2.3-6.1 7.4zm46.2-10.7l-.9 9.4h-3.8v-5.2c-3.6.1-6.2 3-7.7 7.9v9.4h5.1v3.8h-14.2v-3.8h3.7v-17.7h-3.7v-3.8h7.8l1 5.9c1.9-4.2 4.6-6.5 8.9-6.5 1.5 0 2.6.2 3.8.6zm18.4 21.8c2.4 0 4.5-.8 6.7-2.2l2.3 3.3c-2.4 1.9-5.7 3.1-9.2 3.1-7.9 0-12.2-5.4-12.2-13.3 0-7.6 4.4-13.3 11.6-13.3 6.7 0 10.9 4.8 10.9 12.7 0 .9 0 1.8-.1 2.4h-16.8c.2 5.1 3.1 7.3 6.8 7.3zm-7-11.1h11.8c-.1-4.8-2.1-7.4-5.7-7.4-3.4 0-5.8 2.3-6.1 7.4zm24.4-10.7h4.7l.4 3.3c2.1-2.6 5.1-4 8.2-4 4.7 0 7.1 2.8 7.1 7.5v18.5h-5.4v-15.8c0-4.4-.5-6.1-3.6-6.1-2.5 0-4.6 1.8-6 3.7v18.2h-5.4v-25.3zm47.3 19.4l2.4 3.5c-2.2 1.9-5.5 3.1-8.9 3.1-7.8 0-12.3-5.2-12.3-13.2 0-7.7 4.6-13.5 12.4-13.5 3.5 0 6.3 1.1 8.8 3.1l-2.5 3.4c-2-1.3-4-2.1-6.2-2.1-4 0-6.8 2.8-6.8 9.2 0 6.3 2.9 8.7 6.8 8.7 2.4-.1 4.4-1 6.3-2.2zm21.7 2.4c2.4 0 4.5-.8 6.7-2.2l2.3 3.3c-2.4 1.9-5.7 3.1-9.2 3.1-7.9 0-12.2-5.4-12.2-13.3 0-7.6 4.4-13.3 11.6-13.3 6.7 0 10.9 4.8 10.9 12.7 0 .9 0 1.8-.1 2.4h-16.8c.2 5.1 3.1 7.3 6.8 7.3zm-7-11.1h11.8c-.1-4.8-2.1-7.4-5.7-7.4-3.4 0-5.8 2.3-6.1 7.4zm39.1 7.8c0-2.1-.8-3-6-4.4-5-1.3-8.4-3.1-8.4-7.5s3.9-7.3 10.1-7.3c4.3 0 7.3 1.2 9.6 2.9l-2.3 3.4c-2-1.3-4.2-2.3-7.2-2.3-3.5 0-4.8 1.1-4.8 2.8 0 1.9 1.4 2.6 6.4 4 4.9 1.3 8.2 3.1 8.2 7.9 0 5.5-5.4 7.9-11.2 7.9-4.7 0-8.1-1.5-10.4-3.6l2.8-3.3c2 1.6 4.6 2.7 7.6 2.7 3.5.2 5.6-1.1 5.6-3.2zm351.8-50.8h-9.7V1111h9.1c6.2 0 12.1 1.9 12.1 8.4 0 4.1-3 6.4-6.1 7.2 3.6.6 7.6 2.5 7.6 8-.1 7.4-6.5 9.5-13 9.5zm-.2-28.9h-4v9.6h4.3c3.7 0 5.6-1.4 5.6-4.9.1-3.4-2.1-4.7-5.9-4.7zm.7 13.7h-4.7v10.9h4.5c3.2 0 6.7-.8 6.7-5.2.1-4.5-2.8-5.7-6.5-5.7zm40.6 2.5c0 8.1-4.1 13.3-11.5 13.3s-11.5-5.1-11.5-13.3c0-7.9 4.1-13.3 11.5-13.3s11.5 5.2 11.5 13.3zm-17.3.1c0 6.3 1.9 9.2 5.8 9.2s5.8-2.9 5.8-9.2c0-6.2-1.9-9.1-5.8-9.1-3.9-.1-5.8 2.8-5.8 9.1zm38.2 13.2c-5.9 0-9-3.3-9-8.3v-13.7H899v-3.9h5.6v-5.7l5.4-.6v6.3h8.6l-.6 3.9h-8v13.7c0 2.7 1.3 4 4.4 4 1.8 0 3.4-.5 4.7-1.2l1.9 3.6c-1.9 1.2-4.5 1.9-7.4 1.9zm20.4-22.8c2.1-2.5 4.9-3.8 7.9-3.8 4.8 0 7.1 2.8 7.1 7.5v18.5h-5.4v-17.7c0-3-1.1-4.2-3.6-4.2-2.4 0-4.6 1.8-5.9 3.7v18.1h-5.4v-35.5l5.4-.6v14zm66.9 15.4c0-2.1-.8-3-6-4.4-5-1.3-8.4-3.1-8.4-7.5s3.9-7.3 10.1-7.3c4.3 0 7.3 1.2 9.6 2.9l-2.3 3.4c-2-1.3-4.2-2.3-7.2-2.3-3.5 0-4.8 1.1-4.8 2.8 0 1.9 1.4 2.6 6.4 4 4.9 1.3 8.2 3.1 8.2 7.9 0 5.5-5.4 7.9-11.2 7.9-4.7 0-8.1-1.5-10.4-3.6l2.8-3.3c2 1.6 4.6 2.7 7.6 2.7 3.5.2 5.6-1.1 5.6-3.2zm25.5 3.3c2.4 0 4.5-.8 6.7-2.2l2.3 3.3c-2.4 1.9-5.7 3.1-9.2 3.1-7.9 0-12.2-5.4-12.2-13.3 0-7.6 4.4-13.3 11.6-13.3 6.7 0 10.9 4.8 10.9 12.7 0 .9 0 1.8-.1 2.4h-16.8c.2 5.1 3.2 7.3 6.8 7.3zm-6.9-11.1h11.8c-.1-4.8-2.1-7.4-5.7-7.4-3.4 0-5.8 2.3-6.1 7.4zm38.1 15.2c-5.9 0-9-3.3-9-8.3v-13.7h-5.6v-3.9h5.6v-5.7l5.4-.6v6.3h8.6l-.6 3.9h-8v13.7c0 2.7 1.3 4 4.4 4 1.8 0 3.4-.5 4.7-1.2l1.9 3.6c-1.9 1.2-4.5 1.9-7.4 1.9zm67.9-14.5c0 12.1-1.3 18.3-7.2 18.3-3.9 0-5.6-3.9-5.7-6.8h-.2c-1 2.3-2.9 4.6-6.6 4.6-5.4 0-7.4-4.7-7.4-11 0-8.2 3.4-12.6 9.7-12.6 2.3 0 4.6.5 7.2 1.9v14.3c0 4.6 1.2 5.8 2.8 5.8 2.5 0 2.6-5.4 2.6-14.3 0-9.5-1.6-16.1-10-16.1-3.3 0-6.8 1-10.8 4.4l-2.6-3c4.3-3.8 8.8-5.4 13.4-5.4 12.2 0 14.8 9.3 14.8 19.9zm-22.2 5.2c0 4.6.8 7.3 3.3 7.3 2.9 0 3.7-2.5 4.1-3.9v-11.7c-.9-.4-1.6-.6-2.6-.6-3.7 0-4.8 2.7-4.8 8.9zm70.4 1.9c0-2.1-.8-3-6-4.4-5-1.3-8.4-3.1-8.4-7.5s3.9-7.3 10.1-7.3c4.3 0 7.3 1.2 9.6 2.9l-2.3 3.4c-2-1.3-4.2-2.3-7.2-2.3-3.5 0-4.8 1.1-4.8 2.8 0 1.9 1.4 2.6 6.4 4 4.9 1.3 8.2 3.1 8.2 7.9 0 5.5-5.4 7.9-11.2 7.9-4.7 0-8.1-1.5-10.4-3.6l2.8-3.3c2 1.6 4.6 2.7 7.6 2.7 3.5.2 5.6-1.1 5.6-3.2zm35.5 3.8l-1.2 3.6c-2.4-.3-4.3-1.3-5.2-3.5-1.9 2.4-4.8 3.5-8.1 3.5-5.2 0-8.4-3.2-8.4-7.9 0-5.3 4.3-8.3 12-8.3h3.6v-1.6c0-3.3-2.1-4.6-5.6-4.6-1.7 0-4.2.4-6.7 1.3l-1.3-3.8c3.2-1.2 6.3-1.7 8.9-1.7 6.8 0 10.1 3.2 10.1 8.5v11.3c-.1 2 .5 2.8 1.9 3.2zm-7.3-3.6v-5.6h-3c-5 0-7 1.8-7 4.8 0 2.7 1.4 4.1 4.3 4.1 2.2 0 4.5-1.2 5.7-3.3zm37.3-12.2v18.8h-4.8V1126c0-2.6-.2-3.7-1.7-3.7-1.2 0-2.5.7-3.7 2.5v19.3h-4.4V1126c0-2.6-.2-3.7-1.7-3.7-1.3 0-2.5.7-3.7 2.5v19.3h-4.8v-25.3h4l.4 2.7c1.4-2 3-3.4 5.4-3.4 1.9 0 3.6.8 4.3 3.2 1.4-1.9 3.1-3.2 5.6-3.2 2.9 0 5.1 1.6 5.1 7.2zm17.6 15.3c2.4 0 4.5-.8 6.7-2.2l2.3 3.3c-2.4 1.9-5.7 3.1-9.2 3.1-7.9 0-12.2-5.4-12.2-13.3 0-7.6 4.4-13.3 11.6-13.3 6.7 0 10.9 4.8 10.9 12.7 0 .9 0 1.8-.1 2.4H1250c.2 5.1 3.2 7.3 6.8 7.3zm-6.9-11.1h11.8c-.1-4.8-2.1-7.4-5.7-7.4-3.4 0-5.8 2.3-6.1 7.4zm67.8 7.8c0-2.1-.8-3-6-4.4-5-1.3-8.4-3.1-8.4-7.5s3.9-7.3 10.1-7.3c4.3 0 7.3 1.2 9.6 2.9l-2.3 3.4c-2-1.3-4.2-2.3-7.2-2.3-3.5 0-4.8 1.1-4.8 2.8 0 1.9 1.4 2.6 6.4 4 4.9 1.3 8.2 3.1 8.2 7.9 0 5.5-5.4 7.9-11.2 7.9-4.7 0-8.1-1.5-10.4-3.6l2.8-3.3c2 1.6 4.6 2.7 7.6 2.7 3.5.2 5.6-1.1 5.6-3.2zm28 2.9h6.9v3.9h-19.8v-3.9h7.5v-17.5h-7.3v-3.9h12.7v21.4zm-.2-30.4c0 1.9-1.4 3.4-3.5 3.4s-3.5-1.4-3.5-3.4 1.4-3.4 3.5-3.4c2-.1 3.5 1.4 3.5 3.4zm35.3 30l-.6 4.3h-19.4v-3.9l13.5-17.1h-12.4v-4.3h18.8v3.9l-13.4 17.1h13.5zm20 .8c2.4 0 4.5-.8 6.7-2.2l2.3 3.3c-2.4 1.9-5.7 3.1-9.2 3.1-7.9 0-12.2-5.4-12.2-13.3 0-7.6 4.4-13.3 11.6-13.3 6.7 0 10.9 4.8 10.9 12.7 0 .9 0 1.8-.1 2.4H1394c.2 5.1 3.2 7.3 6.8 7.3zm-6.9-11.1h11.8c-.1-4.8-2.1-7.4-5.7-7.4-3.4 0-5.8 2.3-6.1 7.4z" class="st2"/><path d="M58.3 124.5v6.1H35.4v-6.1h8.5v-21.3l-7.3 4.6-3.4-5.6 11.4-6.9h7.1v29.2h6.6z" class="st3"/><circle cx="45.6" cy="238.1" r="34.2" class="st0"/><path d="M56.5 229.3c0 5.7-3.5 10.4-14.3 19.9h15.1l-.9 6.2H33v-5.7c11.6-11.3 15.3-15.5 15.3-19.7 0-2.9-1.7-4.6-4.7-4.6-2.7 0-4.5 1.1-6.4 3.6l-4.9-3.7c2.7-3.7 6.3-6.1 12-6.1 8.1 0 12.2 4.7 12.2 10.1z" class="st3"/><circle cx="45.6" cy="398.1" r="17.1" class="st0"/><path d="M52 403.7v3.1H40.5v-3.1h4.3V393l-3.6 2.3-1.7-2.8 5.7-3.5h3.6v14.6H52z" class="st3"/><circle cx="632.3" cy="398.1" r="17.1" class="st0"/><path d="M637.8 393.7c0 2.9-1.8 5.2-7.1 10h7.5l-.4 3.1H626v-2.9c5.8-5.6 7.6-7.7 7.6-9.8 0-1.4-.8-2.3-2.4-2.3-1.3 0-2.2.5-3.2 1.8l-2.4-1.9c1.3-1.8 3.2-3 6-3 4.1 0 6.2 2.3 6.2 5z" class="st3"/><path d="M695.7 393.4h12.5v4.2h-12.5v14.1h-5.6v-33.1h20.4l-.6 4.2h-14.2v10.6zm26.8 10.7c0 3 1.2 4.2 3.6 4.2 2.4 0 4.7-1.6 5.9-3.6v-18.3h5.4v25.3h-4.7l-.3-3.3c-1.9 2.5-5 3.9-8 3.9-4.9 0-7.3-2.8-7.3-7.6v-18.4h5.4v17.8zm37.2 8.2c-5.9 0-9-3.3-9-8.3v-13.7h-5.6v-3.9h5.6v-5.7l5.4-.6v6.3h8.6l-.6 3.9h-8V404c0 2.7 1.3 4 4.4 4 1.8 0 3.4-.5 4.7-1.2l1.9 3.6c-1.9 1.2-4.6 1.9-7.4 1.9zm20.4-8.2c0 3 1.2 4.2 3.6 4.2 2.4 0 4.7-1.6 5.9-3.6v-18.3h5.4v25.3h-4.7l-.3-3.3c-1.9 2.5-5 3.9-8 3.9-4.9 0-7.3-2.8-7.3-7.6v-18.4h5.4v17.8zm45.2-17.7l-.9 9.4h-3.8v-5.2c-3.6.1-6.2 3-7.7 7.9v9.4h5.1v3.8h-14.2v-3.8h3.7v-17.7h-3.7v-3.8h7.8l1 5.9c1.9-4.2 4.6-6.5 8.9-6.5 1.5-.1 2.7.2 3.8.6zm28.3 22.3l-1.2 3.6c-2.4-.3-4.3-1.3-5.2-3.5-1.9 2.4-4.8 3.5-8.1 3.5-5.2 0-8.4-3.2-8.4-7.9 0-5.3 4.3-8.3 12-8.3h3.6v-1.6c0-3.3-2.1-4.6-5.6-4.6-1.7 0-4.2.4-6.7 1.3l-1.3-3.8c3.2-1.2 6.3-1.7 8.9-1.7 6.8 0 10.1 3.2 10.1 8.5v11.3c0 2 .6 2.8 1.9 3.2zm-7.2-3.6v-5.6h-3c-5 0-7 1.8-7 4.8 0 2.7 1.4 4.1 4.3 4.1 2.2 0 4.4-1.2 5.7-3.3zm52.9 7.2c-5.4 0-9.4-1.7-12.2-4.4l3.1-3.4c2.4 2.2 5.2 3.5 9.1 3.5 3.7 0 6.9-1.8 6.9-5.3 0-2.9-1.5-4.3-6.8-5.9-7.1-2.1-10.7-4.7-10.7-9.8 0-5.4 4.8-9 11.4-9 4.8 0 8.3 1.4 11.1 4l-2.9 3.3c-2.4-2-5.1-2.9-7.8-2.9-3.4 0-6 1.4-6 4.3 0 2.6 1.8 3.8 7.7 5.5 5.6 1.7 9.8 4 9.8 10.3 0 5.8-4.7 9.8-12.7 9.8zm33.2 0c-5.9 0-9-3.3-9-8.3v-13.7h-5.6v-3.9h5.6v-5.7l5.4-.6v6.3h8.6l-.6 3.9h-8V404c0 2.7 1.3 4 4.4 4 1.8 0 3.4-.5 4.7-1.2l1.9 3.6c-1.9 1.2-4.6 1.9-7.4 1.9zm36.3-3.6l-1.2 3.6c-2.4-.3-4.3-1.3-5.2-3.5-1.9 2.4-4.8 3.5-8.1 3.5-5.2 0-8.4-3.2-8.4-7.9 0-5.3 4.3-8.3 12-8.3h3.6v-1.6c0-3.3-2.1-4.6-5.6-4.6-1.7 0-4.2.4-6.7 1.3l-1.3-3.8c3.2-1.2 6.3-1.7 8.9-1.7 6.8 0 10.1 3.2 10.1 8.5v11.3c0 2 .6 2.8 1.9 3.2zm-7.2-3.6v-5.6h-3c-5 0-7 1.8-7 4.8 0 2.7 1.4 4.1 4.3 4.1 2.2 0 4.4-1.2 5.7-3.3zm14.7-18.7h4.7l.4 3.3c2.1-2.6 5.1-4 8.2-4 4.7 0 7.1 2.8 7.1 7.5v18.5h-5.4v-15.8c0-4.4-.5-6.1-3.6-6.1-2.5 0-4.6 1.8-6 3.7v18.2h-5.4v-25.3zm49.1-10.2v35.5h-4.8l-.4-3.1c-1.7 2.4-4.1 3.7-7.1 3.7-6.5 0-9.6-5.3-9.6-13.3 0-7.7 3.8-13.3 10-13.3 2.6 0 4.8 1 6.4 2.8v-12.9l5.5.6zm-16.1 22.8c0 6.5 1.9 9.2 5.3 9.2 2.4 0 4.2-1.6 5.4-3.6v-12c-1.2-1.8-2.9-2.8-5-2.8-3.6 0-5.7 2.9-5.7 9.2zm45.9 9.7l-1.2 3.6c-2.4-.3-4.3-1.3-5.2-3.5-1.9 2.4-4.8 3.5-8.1 3.5-5.2 0-8.4-3.2-8.4-7.9 0-5.3 4.3-8.3 12-8.3h3.6v-1.6c0-3.3-2.1-4.6-5.6-4.6-1.7 0-4.2.4-6.7 1.3l-1.3-3.8c3.2-1.2 6.3-1.7 8.9-1.7 6.8 0 10.1 3.2 10.1 8.5v11.3c0 2 .6 2.8 1.9 3.2zm-7.2-3.6v-5.6h-3c-5 0-7 1.8-7 4.8 0 2.7 1.4 4.1 4.3 4.1 2.2 0 4.4-1.2 5.7-3.3zm36.5-18.7l-.9 9.4h-3.8v-5.2c-3.6.1-6.2 3-7.7 7.9v9.4h5.1v3.8H1063v-3.8h3.7v-17.7h-3.7v-3.8h7.8l1 5.9c1.9-4.2 4.6-6.5 8.9-6.5 1.5-.1 2.7.2 3.8.6zm27.3-10.2v35.5h-4.8l-.4-3.1c-1.7 2.4-4.1 3.7-7.1 3.7-6.5 0-9.6-5.3-9.6-13.3 0-7.7 3.8-13.3 10-13.3 2.6 0 4.8 1 6.4 2.8v-12.9l5.5.6zm-16.1 22.8c0 6.5 1.9 9.2 5.3 9.2 2.4 0 4.2-1.6 5.4-3.6v-12c-1.2-1.8-2.9-2.8-5-2.8-3.6 0-5.7 2.9-5.7 9.2zm65.8-13.3c6.7 0 9.5 5.2 9.5 13.3 0 7.7-3.6 13.3-10.1 13.3-2.7 0-5-1-6.6-3.1l-.3 2.5h-4.8v-35.5l5.4-.6v13.8c1.6-2.3 4.1-3.7 6.9-3.7zm3.7 13.3c0-6.5-1.9-9.2-5.2-9.2-2.4 0-4.2 1.7-5.5 3.6v11.9c1.2 1.8 2.9 2.9 5 2.9 3.6.1 5.7-2.8 5.7-9.2zm26.2 12.8c-1.9 5.8-5.3 9.6-12.4 10.3l-.7-4c5.1-.8 6.8-2.7 8.1-6.3h-1.8l-8.5-25.3h5.7l6.4 21.6 6.5-21.6h5.5l-8.8 25.3zm48.2-8.1l-2.3 8h-5.7l10.6-33.1h6.9l10.6 33.1h-5.9l-2.3-8h-11.9zm10.7-4.3l-4.8-16.5-4.8 16.5h9.6zm34.3-23.2v35.5h-4.8l-.4-3.1c-1.7 2.4-4.1 3.7-7.1 3.7-6.5 0-9.6-5.3-9.6-13.3 0-7.7 3.8-13.3 10-13.3 2.6 0 4.8 1 6.4 2.8v-12.9l5.5.6zm-16.1 22.8c0 6.5 1.9 9.2 5.3 9.2 2.4 0 4.2-1.6 5.4-3.6v-12c-1.2-1.8-2.9-2.8-5-2.8-3.6 0-5.7 2.9-5.7 9.2zm46.2 0c0 8.1-4.1 13.3-11.5 13.3s-11.5-5.1-11.5-13.3c0-7.9 4.1-13.3 11.5-13.3s11.5 5.2 11.5 13.3zm-17.3 0c0 6.3 1.9 9.2 5.8 9.2s5.8-2.9 5.8-9.2c0-6.2-1.9-9.1-5.8-9.1-3.8 0-5.8 2.9-5.8 9.1zm36.9-13.3c6.7 0 9.5 5.2 9.5 13.3 0 7.7-3.6 13.3-10.1 13.3-2.7 0-5-1-6.6-3.1l-.3 2.5h-4.8v-35.5l5.4-.6v13.8c1.6-2.3 4.1-3.7 6.9-3.7zm3.7 13.3c0-6.5-1.9-9.2-5.2-9.2-2.4 0-4.2 1.7-5.5 3.6v11.9c1.2 1.8 2.9 2.9 5 2.9 3.6.1 5.7-2.8 5.7-9.2zm24.1 9.2c2.4 0 4.5-.8 6.7-2.2l2.3 3.3c-2.4 1.9-5.7 3.1-9.2 3.1-7.9 0-12.2-5.4-12.2-13.3 0-7.6 4.4-13.3 11.6-13.3 6.7 0 10.9 4.8 10.9 12.7 0 .9 0 1.8-.1 2.4h-16.8c.2 5.1 3.1 7.3 6.8 7.3zm-7-11.1h11.8c-.1-4.8-2.1-7.4-5.7-7.4-3.3 0-5.7 2.3-6.1 7.4zm-657.4 72.8c-5.4 0-9.4-1.7-12.2-4.4l3.1-3.4c2.4 2.2 5.2 3.5 9.1 3.5 3.7 0 6.9-1.8 6.9-5.3 0-2.9-1.5-4.3-6.8-5.9-7.1-2.1-10.7-4.7-10.7-9.8 0-5.4 4.8-9 11.4-9 4.8 0 8.3 1.4 11.1 4l-2.9 3.3c-2.4-2-5.1-2.9-7.8-2.9-3.4 0-6 1.4-6 4.3 0 2.6 1.8 3.8 7.7 5.5 5.6 1.7 9.8 4 9.8 10.3 0 5.8-4.6 9.8-12.7 9.8zm30.8-4.1c2.4 0 4.5-.8 6.7-2.2l2.3 3.3c-2.4 1.9-5.7 3.1-9.2 3.1-7.9 0-12.2-5.4-12.2-13.3 0-7.6 4.4-13.3 11.6-13.3 6.7 0 10.9 4.8 10.9 12.7 0 .9 0 1.8-.1 2.4h-16.8c.2 5.1 3.2 7.3 6.8 7.3zm-7-11.1h11.8c-.1-4.8-2.1-7.4-5.7-7.4-3.3 0-5.7 2.3-6.1 7.4zm38.2 15.2c-5.9 0-9-3.3-9-8.3v-13.7h-5.6V444h5.6v-5.7l5.4-.6v6.3h8.6l-.6 3.9h-8v13.7c0 2.7 1.3 4 4.4 4 1.8 0 3.4-.5 4.7-1.2l1.9 3.6c-1.9 1.2-4.6 1.9-7.4 1.9zm67.9-14.5c0 12.1-1.3 18.3-7.2 18.3-3.9 0-5.6-3.9-5.7-6.8h-.2c-1 2.3-2.9 4.6-6.6 4.6-5.4 0-7.4-4.7-7.4-11 0-8.2 3.4-12.6 9.7-12.6 2.3 0 4.6.5 7.2 1.9v14.3c0 4.6 1.2 5.8 2.8 5.8 2.5 0 2.6-5.4 2.6-14.3 0-9.5-1.6-16.1-10-16.1-3.3 0-6.8 1-10.8 4.4l-2.6-3c4.3-3.8 8.8-5.4 13.4-5.4 12.1 0 14.8 9.3 14.8 19.9zm-22.2 5.2c0 4.6.8 7.3 3.3 7.3 2.9 0 3.7-2.5 4.1-3.9v-11.7c-.9-.4-1.6-.6-2.6-.6-3.7-.1-4.8 2.7-4.8 8.9zm77.2-2.5c0 7.1-4.6 11.8-10.9 11.8-8.3 0-11.5-6.7-11.5-16 0-11 4.9-18.4 13.1-18.4 2.7 0 4.9.8 6.8 2L878 441c-1.4-.9-3.1-1.4-4.8-1.4-4.5 0-7.3 4.5-7.6 11.8 2.1-2.7 4.7-3.9 7.6-3.9 5.2 0 9.4 3.6 9.4 10.6zm-5.4.3c0-5.1-2-6.9-5-6.9-2.6 0-4.9 1.5-6.4 3.9.1 7.2 1.8 10.5 6 10.5 3.5 0 5.4-3.1 5.4-7.5zm34.3 3.3h-3.9v7.6h-5.2v-7.6h-13.7V458l9.5-22.4 4.5 1.8-8.4 20.2h8.2l.5-8.8h4.6v8.8h3.9v4.1zm28.8-5.1c0 7.7-3.4 13.3-9.8 13.3-2.6 0-4.8-.9-6.4-2.8V479l-5.4.6V444h4.7l.3 3.3c1.9-2.6 4.6-3.9 7.4-3.9 6.7-.1 9.2 5.1 9.2 13.2zm-16.2-5.5V463c1.2 1.8 2.9 2.8 5 2.8 3.6 0 5.6-2.8 5.6-9.1 0-6.5-1.7-9.2-5-9.2-2.5-.1-4.4 1.6-5.6 3.6zm37.2 18.8c-5.9 0-9-3.3-9-8.3v-13.7h-5.6V444h5.6v-5.7l5.4-.6v6.3h8.6l-.6 3.9h-8v13.7c0 2.7 1.3 4 4.4 4 1.8 0 3.4-.5 4.7-1.2l1.9 3.6c-1.9 1.2-4.6 1.9-7.4 1.9z" class="st2"/><path d="M893.7 813.1H921v18.2c4.9-6.5 19-22 45.2-22 18.6 0 35.7 7.6 45.2 21.7 8 11.8 9.1 24.7 9.1 42.2v97.7h-27.4V874c0-9.5-.8-20.5-7.2-28.9-5.3-6.8-13.7-11.4-25.8-11.4-9.5 0-19.8 2.7-27.7 12.2-10.6 12.5-11.4 31.2-11.4 42.6V971h-27.4V813.1z" class="st1"/></svg>