<svg xmlns="http://www.w3.org/2000/svg" id="Layer_1" viewBox="0 0 913.5 265" width="913.5" height="265"><style>.st0{fill:#505050}.st1{fill:#f26518}.st2{fill:#2997ff}</style><g id="ade7f196-bb75-4440-8df9-77fbbb86f832"><g id="b3134d78-f3d9-425f-ba55-ae83e0bdd3a0"><path d="M168.4 68.7L157 80.2c-4.9-5-11.7-7.7-18.6-7.6-8.4 0-14 3.9-14 10.2 0 5.3 3.5 7.9 15.4 11.8 14.9 4.9 23.7 12.1 23.7 26.2 0 15.3-10.5 32.5-39.4 32.5-15.8 0-26.6-6-33.6-13.4l12.4-12.3c5.6 6 13.5 9.3 21.7 9.1 10.1 0 16.2-4.7 16.2-12.5 0-6-3.6-9.2-14.5-13.1-17.4-5.9-24.5-13.6-24.5-25.8 0-14 11.2-28.8 35.8-28.8 13.4.1 23.2 4.5 30.8 12.2zm35.3 44.1l-6.2 7.2c-1.9-2-4.6-3-7.4-3-8.6 0-10.8 10.5-10.8 17.7 0 6 2.6 7.8 6.6 7.8 3 0 5.3-1 8.4-3l4.6 8.1c-4.2 3.2-9.4 4.9-14.6 4.9-11.4 0-18.1-7.1-18.1-18.3 0-11 6.5-26.9 23.8-26.9 5.2-.2 10.1 1.8 13.7 5.5z" class="st0"/><path d="M242.4 111.8l-3.9 27.2c-.3 2.8-.2 4.2 2.1 5.1l-3.6 8.2c-4.6-.4-8.6-2.5-9.8-7-3 4.2-7 7.3-12.6 7.3-9 0-13.8-6.6-13.8-16.9 0-12.2 6.4-28.3 24.3-28.3 6 0 11.9 1.5 17.3 4.4zm-28.8 23.8c0 6 2 7.7 4.8 7.7 3 0 5.7-2.2 8.1-5.9l3-20.2c-1.5-.6-3.1-.8-4.7-.8-8.4-.1-11.2 10.9-11.2 19.2zm44.2 4.1c-.2 2.1.4 2.8 1.7 2.8.7 0 1.4-.2 2.1-.4l1.5 8.8c-2.5 1.1-5.3 1.6-8 1.6-7.1 0-10.9-4.3-9.7-12.5l6.8-48.2 12.5-1.4-6.9 49.3zm19.8-4c.3 5.7 3.5 7.5 7.6 7.5 3.6 0 6.9-1.3 10.8-3.9l4.5 7.5c-4.9 3.6-10.8 5.6-16.9 5.7-12.4 0-18.5-7.2-18.5-18 0-11.5 6.2-27.2 24.1-27.2 10.3 0 15.7 5.2 15.7 11.6 0 11.9-13.9 15.5-27.3 16.8zm14.8-16.2c0-1.8-1-3.8-4.1-3.8-6.1 0-9 6.2-10.1 12.3 10.6-.7 14.2-4.5 14.2-8.5zm58-27.7l-8.4 59.4h-11l.1-6.1c-2.7 4.1-6.9 7.4-12.6 7.4-8.9 0-13.4-6.5-13.4-17.1 0-11.6 5.8-28.1 20.3-28.1 3.7-.1 7.3 1.4 9.8 4.1l2.8-20.9 12.4 1.3zm-32.5 43.7c0 6 1.9 7.8 4.6 7.8 3.6 0 6.6-3.6 9.2-7.8l2.2-15.8c-1.4-1.9-3.6-3-5.9-3-7.8-.2-10.1 11.7-10.1 18.8zM193.4 166l-11.2 11c-4.5-3.8-8.9-5.9-15-5.9-18.9 0-24.7 25.6-24.7 41.3 0 14.5 6.1 20.5 15.8 20.5 7.1 0 12.7-3.5 18.1-7.5l8.2 12.6c-8.1 7.3-18.6 11.3-29.5 11.4-20.4 0-34.1-12.9-34.1-37 0-24.5 12.3-57 46-57 11.6 0 20.2 3.8 26.4 10.6zm36 41.8l-3.9 27.2c-.3 2.8-.2 4.2 2.1 5.1l-3.6 8.2c-4.6-.4-8.6-2.5-9.8-7-3 4.2-7 7.3-12.6 7.3-9 0-13.8-6.6-13.8-16.9 0-12.2 6.4-28.3 24.3-28.3 6.1 0 12 1.5 17.3 4.4zm-28.8 23.8c0 6 2 7.7 4.8 7.7 3 0 5.7-2.2 8.1-5.9l3-20.2c-1.5-.6-3.1-.8-4.7-.8-8.3-.1-11.2 10.9-11.2 19.2zm36.7-26.9h11v4.7c4.3-4.6 8.6-6.1 12.5-6.1 8.6 0 13.1 6 13.1 16.6 0 12.2-5.7 28.6-22.6 28.6-2.6.1-5.2-.3-7.6-1.2l-2.4 16.3-12.4 1.4 8.4-60.3zm23.8 15.4c0-5.9-2.2-7.5-5.1-7.5-3 0-5.7 1.8-8.1 4.9l-2.9 20.8c1.7.7 3.5 1 5.4 1 7.8 0 10.7-11.2 10.7-19.2zm27.1 27.1h-12.4l5.9-42.5h12.4l-5.9 42.5zm-5.6-56.9c0-4.4 3.5-7.9 7.9-7.9h.3c4 0 6.6 2.6 6.6 6.3 0 4.4-3.6 8-8 8h-.2c-3.9 0-6.6-2.7-6.6-6.4zm28.8 42.8c-.6 4.1.5 5.4 2.9 5.4 1.7-.1 3.3-.6 4.8-1.4l3.3 8.2c-3.5 2-7.5 3.1-11.6 3.1-8.8 0-13.2-5.5-11.8-15.4l2.8-19.6H296l1.2-8.8h6.4l2.6-9.4 10.7-1.2-1.5 10.6h9.8l-2.6 8.8h-8.3l-2.9 19.7z" class="st0"/><path d="M364.3 207.8l-3.9 27.2c-.3 2.8-.2 4.2 2.1 5.1l-3.6 8.2c-4.6-.4-8.6-2.5-9.8-7-3 4.2-7 7.3-12.6 7.3-9 0-13.8-6.6-13.8-16.9 0-12.2 6.4-28.3 24.3-28.3 6 0 12 1.5 17.3 4.4zm-28.8 23.8c0 6 2 7.7 4.8 7.7 3 0 5.7-2.2 8.1-5.9l3-20.2c-1.5-.6-3.1-.8-4.7-.8-8.3-.1-11.2 10.9-11.2 19.2zm44.3 4.1c-.2 2.1.4 2.8 1.7 2.8.7 0 1.4-.2 2.1-.4l1.5 8.8c-2.5 1.1-5.3 1.6-8 1.6-7.1 0-10.9-4.3-9.7-12.5l6.8-48.2 12.5-1.4-6.9 49.3z" class="st0"/><path d="M422.6 208.8l-5.5 6.8c-2.9-2.1-6.4-3.2-10-3.3-3.8 0-5.7 1.4-5.7 3.5 0 2.2 1.8 3 8.2 5 7.1 2.3 11 6.2 11 12.9 0 7.9-6 14.8-19 14.8-7.6 0-14-3-17.7-7l6.3-6.6c3.1 2.9 7.2 4.5 11.4 4.5 4.5 0 6.6-1.9 6.6-4.2 0-2.8-1.7-3.6-8.4-5.9-7.3-2.5-10.8-6-10.8-12.3 0-7.3 6.2-13.7 17.9-13.7 5.8-.1 11.3 1.8 15.7 5.5zm182.1-107.9l-7 6.8c-2.8-2.3-5.5-3.7-9.3-3.7-11.7 0-15.3 15.8-15.3 25.6 0 9 3.8 12.7 9.8 12.7 4.4 0 7.8-2.2 11.2-4.6l5 7.8c-5 4.5-11.5 7-18.2 7-12.6 0-21.1-8-21.1-22.9 0-15.2 7.6-35.3 28.5-35.3 7.2.1 12.5 2.4 16.4 6.6z" class="st0"/><path d="M640.8 111.8l-3.9 27.2c-.3 2.8-.2 4.2 2.1 5.1l-3.6 8.2c-4.6-.4-8.6-2.5-9.8-7-3 4.2-7 7.3-12.6 7.3-9 0-13.8-6.6-13.8-16.9 0-12.2 6.4-28.3 24.3-28.3 6 0 12 1.5 17.3 4.4zM612 135.6c0 6 2 7.7 4.8 7.7 3 0 5.7-2.2 8.1-5.9l3-20.2c-1.5-.6-3.1-.8-4.7-.8-8.3-.1-11.2 10.9-11.2 19.2zm35.5-26.9h11v4.7c4.3-4.6 8.6-6.1 12.5-6.1 8.6 0 13.1 6 13.1 16.6 0 12.2-5.7 28.6-22.6 28.6-2.6.1-5.2-.3-7.6-1.2l-2.4 16.3L639 169l8.5-60.3zm23.8 15.4c0-5.9-2.2-7.5-5.1-7.5-3 0-5.7 1.8-8.1 4.9l-2.9 20.8c1.7.7 3.5 1 5.4 1 7.8 0 10.7-11.2 10.7-19.2zm25.9 27.1h-12.4l5.9-42.5h12.4l-5.9 42.5zm-5.6-56.9c0-4.4 3.5-7.9 7.9-7.9h.3c4 0 6.6 2.6 6.6 6.3 0 4.4-3.6 8-8 8h-.2c-3.9 0-6.6-2.7-6.6-6.4zm27.6 42.8c-.6 4.1.5 5.4 2.9 5.4 1.7-.1 3.3-.6 4.8-1.4l3.3 8.2c-3.5 2-7.5 3.1-11.6 3.1-8.8 0-13.2-5.5-11.8-15.4l2.8-19.6h-5.8l1.2-8.8h6.4l2.6-9.4 10.7-1.2-1.5 10.6h9.8l-2.6 8.8h-8.3l-2.9 19.7z" class="st0"/><path d="M770.9 111.8L767 139c-.3 2.8-.2 4.2 2.1 5.1l-3.6 8.2c-4.6-.4-8.6-2.5-9.8-7-3 4.2-7 7.3-12.6 7.3-9 0-13.8-6.6-13.8-16.9 0-12.2 6.4-28.3 24.3-28.3 6 0 12 1.5 17.3 4.4zm-28.8 23.8c0 6 2 7.7 4.8 7.7 3 0 5.7-2.2 8.1-5.9l3-20.2c-1.5-.6-3.1-.8-4.7-.8-8.3-.1-11.2 10.9-11.2 19.2zm43 4.1c-.2 2.1.4 2.8 1.7 2.8.7 0 1.4-.2 2.1-.4l1.5 8.8c-2.5 1.1-5.3 1.6-8 1.6-7.1 0-10.9-4.3-9.7-12.5l6.8-48.2 12.5-1.4-6.9 49.3zm44.8-26.9l-5.5 6.8c-2.9-2.1-6.4-3.2-10-3.3-3.8 0-5.7 1.4-5.7 3.5 0 2.2 1.8 3 8.2 5 7.1 2.3 11 6.2 11 12.9 0 7.9-6 14.8-19 14.8-7.6 0-14-3-17.7-7l6.3-6.6c3.1 2.9 7.2 4.5 11.4 4.5 4.5 0 6.6-1.9 6.6-4.2 0-2.8-1.7-3.6-8.4-5.9-7.3-2.5-10.8-6-10.8-12.3 0-7.3 6.2-13.7 17.9-13.7 5.8-.1 11.4 1.8 15.7 5.5zM600.8 219.4h-16.3l-10.2-44.6c.4 8.3 0 16.6-1.2 24.9l-2.8 19.7h-11.4l7.8-55.4h16.2l10.5 44.6c-.5-7.6-.3-15.2.8-22.7l3.1-21.8h11.4l-7.9 55.3zm7.2-16.7c0-11.8 5.8-27.1 23.7-27.1 11.3 0 17.8 7 17.8 18.1-.1 11.7-5.8 27.1-23.7 27.1-11.3-.1-17.8-6.9-17.8-18.1zm28.7-9.9c0-5.6-2-8-5.9-8-8.4 0-10.1 12.2-10.1 18.6 0 5.6 1.9 8 5.9 8 8.4.1 10-12.1 10.1-18.6zm29.1 12.5c-.6 4.1.5 5.4 2.9 5.4 1.7-.1 3.3-.6 4.8-1.4l3.3 8.2c-3.5 2-7.5 3.1-11.6 3.1-8.8 0-13.2-5.5-11.8-15.4l2.8-19.6h-5.8l1.2-8.8h6.4l2.6-9.4 10.7-1.2-1.5 10.6h9.8l-2.6 8.8h-8.3l-2.9 19.7zm70-35.4l-6.8 6.9c-3-3-7-4.6-11.2-4.6-5 0-8.4 2.3-8.4 6.2 0 3.2 2.1 4.7 9.3 7.1 9 3 14.2 7.3 14.2 15.8 0 9.2-6.3 19.5-23.7 19.5-9.5 0-16-3.6-20.2-8.1l7.4-7.4c3.4 3.6 8.1 5.6 13 5.4 6.1 0 9.8-2.8 9.8-7.5 0-3.6-2.2-5.5-8.7-7.8-10.5-3.5-14.7-8.2-14.7-15.5 0-8.4 6.7-17.3 21.5-17.3 8.1 0 14 2.6 18.5 7.3zm35.8 11.1l-6.2 7.2c-1.9-2-4.6-3-7.4-3-8.6 0-10.8 10.5-10.8 17.7 0 6 2.6 7.8 6.6 7.8 3 0 5.3-1 8.4-3l4.6 8.1c-4.2 3.2-9.4 4.9-14.6 4.9-11.4 0-18.1-7.1-18.1-18.3 0-11 6.5-26.9 23.8-26.9 5.2-.1 10.1 1.9 13.7 5.5z" class="st0"/><path d="M809 180l-3.9 27.2c-.3 2.8-.2 4.2 2.1 5.1l-3.6 8.2c-4.6-.4-8.6-2.5-9.8-7-3 4.2-7 7.3-12.6 7.3-9 0-13.8-6.6-13.8-16.9 0-12.2 6.4-28.3 24.3-28.3 6.1 0 12 1.5 17.3 4.4zm-28.8 23.8c0 6 2 7.7 4.8 7.7 3 0 5.7-2.2 8.1-5.9l3-20.2c-1.5-.6-3.1-.8-4.7-.8-8.3-.1-11.1 10.9-11.2 19.2zm43.1 4.1c-.2 2.1.4 2.8 1.7 2.8.7 0 1.4-.2 2.1-.4l1.5 8.8c-2.5 1.1-5.3 1.6-8 1.6-7.1 0-10.9-4.3-9.7-12.5l6.8-48.2 12.5-1.4-6.9 49.3zm18.6-4c.3 5.7 3.4 7.5 7.6 7.5 3.6 0 6.9-1.3 10.8-3.9l4.5 7.5c-4.9 3.6-10.8 5.6-16.9 5.7-12.4 0-18.5-7.2-18.5-18 0-11.5 6.2-27.2 24.1-27.2 10.3 0 15.7 5.2 15.7 11.6 0 12-13.9 15.5-27.3 16.8zm14.7-16.2c0-1.8-1-3.8-4.1-3.8-6.1 0-9 6.2-10.1 12.3 10.7-.7 14.2-4.5 14.2-8.5zm56.9-27.7l-8.3 59.4h-11l.1-6.1c-2.7 4.1-6.9 7.4-12.6 7.4-8.9 0-13.4-6.5-13.4-17.1 0-11.6 5.8-28.1 20.3-28.1 3.7-.1 7.3 1.4 9.8 4.1l2.9-20.9 12.2 1.3zM881 203.7c0 6 1.9 7.8 4.6 7.8 3.6 0 6.6-3.6 9.2-7.8l2.2-15.8c-1.4-1.9-3.6-3-5.9-3-7.8-.2-10 11.8-10.1 18.8z" class="st0"/><path d="M65.1 11.2c-14.9-14.9-39-14.9-53.9 0s-14.9 39 0 53.9 39 14.9 53.9 0 14.9-39 0-53.9zm-6.7 6.6c9.9 9.9 11.2 25.6 3.1 37l-40.1-40c11.4-8.2 27.1-6.9 37 3zM17.8 58.4c-9.9-9.9-11.2-25.6-3.1-37l40.1 40.1c-11.4 8.2-27.1 6.9-37-3.1z" class="st1"/><path d="M528.1 75.5c-1.7 0-3.2-.8-4.1-2.2l-16.4-24.4c-1.5-2.3-.9-5.4 1.4-6.9s5.4-.9 6.9 1.4l11.5 17.2 27.8-57c1.2-2.5 4.2-3.5 6.7-2.3s3.5 4.2 2.3 6.7l-31.7 64.8c-.8 1.6-2.4 2.7-4.2 2.8l-.2-.1z" class="st2"/><path d="M95.8 81.1c-.7-.4-1.4-.9-1.9-1.5l-1.7-2 2-1.8 5.9 6.6-5.9 6.5-1.8-1.6 1.8-2c.5-.6 1.1-1.1 1.8-1.5H86V81l9.8.1zm35.2 2.5c.7.4 1.4.9 1.9 1.5l1.8 2-2 1.8-5.9-6.5 5.9-6.5 1.8 1.6-1.8 2c-.5.6-1.1 1.2-1.8 1.5h10v2.7l-9.9-.1z" class="st1"/><path d="M554.6 121.7c-.7-.4-1.4-.9-1.9-1.5l-1.7-2 2-1.8 5.9 6.5-5.9 6.5-1.8-1.6 1.8-2c.5-.6 1.1-1.1 1.8-1.5h-10v-2.7l9.8.1zm24.6 2.6c.7.4 1.4.9 1.9 1.5l1.7 2-2 1.8-5.8-6.6 5.9-6.5 1.8 1.6-1.8 2c-.5.6-1.1 1.1-1.8 1.5h10v2.7h-9.9z" class="st2"/></g></g></svg>