<svg xmlns="http://www.w3.org/2000/svg" viewBox="0 0 1365.69 1379.51" width="1365.69" height="1379.51"><defs><style>.b67d1be7-d278-415b-baf5-ad0b23e64654{fill:#505050}.be0679ca-af1b-438c-9455-9493f89e1985{fill:#2997ff}</style></defs><g id="f5652fa5-fb5a-4556-bec8-00dfeef876b9"><g id="b1be4e97-edc7-41ba-9dc1-1b923fd1324b"><path d="M622.42 325.35h55.9v314.42c0 34.94 0 84.62-31.06 126.55-24.07 32.6-68.32 59.78-128.87 59.78-55.12 0-93.16-21.74-114.9-43.48s-41.93-56.67-41.93-104h55.13c0 27.17 10.86 51.24 24.84 66.76 23.29 25.62 52.79 31.06 77.63 31.06 39.6 0 66.77-14 85.4-45 16.31-26.4 17.86-55.12 17.86-82.29v-46.64c-18.63 24.06-53.57 54.34-110.24 54.34-47.36 0-85.4-18.63-110.25-43.47-21.73-21.74-46.58-62.11-46.58-127.33 0-62.88 23.29-101.7 46.58-125 27.18-26.39 66.77-43.48 110.25-43.48 47.35 0 84.62 20.19 110.24 53.57zm-177 72.2c-27.17 27.95-32.61 62.11-32.61 88.5 0 27.95 5.44 66 36.49 94.72 17.86 16.3 39.6 26.39 69.1 26.39s52.78-9.31 70.6-27.16c21.73-21 36.48-55.12 36.48-93.16s-14-71.42-34.16-90.83c-17.85-17.86-44.25-28.73-73-28.73-34.09-.01-57.38 14.72-72.91 30.27zm241.82 682.76h-19.82c-15 0-24.62.69-38.29 8.21 15.73 23.24 23.25 49.91 23.25 77.94 0 73.15-54 129.89-127.16 129.89-21.88 0-41-4.1-60.85-11.62-11.62 9.57-32.13 21.88-32.13 40.33 0 47.86 251.58-12.3 251.58 130.58 0 28-8.88 98.45-160 98.45-123.06 0-161.34-47.86-161.34-94.35 0-39 34.18-60.16 65.63-73.83-22.56-8.89-47.18-25.3-47.18-52.64 0-33.5 26-43.76 47.18-69-27.35-32.13-41.71-54.69-41.71-99.13 0-76.57 57.43-129.9 133.32-129.9q45.12 0 82 26.67c24.61-18.46 53.32-32.14 85.45-28.72zm-202.36 320c-28.71 5.46-71.1 22.56-71.1 56.74 0 52 76.57 54.69 112.8 54.69 38.29 0 106-7.52 106-59.48 0-39.65-62.9-44.43-91.61-46.49zm36.23-324.74c-51.27 0-83.4 43.07-83.4 91.61 0 47.17 29.4 88.87 78.62 88.87 54.69 0 84.77-37.6 84.77-89.55 0-49.27-26.66-90.97-79.99-90.97zm791.31-750.67h55.9v322.19h-55.9v-45c-18.63 24.06-53.57 54.34-110.24 54.34-81.52 0-156.83-57.45-156.83-170.8 0-111 74.53-168.46 156.83-168.46 62.1 0 95.49 34.16 110.24 53.57zM1102.8 485.6c0 69.1 38.82 121.12 105.59 121.12 68.32 0 107.13-56.68 107.13-120.34 0-83.07-57.45-119.56-107.13-119.56-55.12 0-105.59 40.37-105.59 118.78zm194.79 937.5l-5.46-47.86c-30.77 30.08-65 58.8-109.39 58.8-58.11 0-104.6-48.54-104.6-108 0-108 113.49-131.26 196.89-153.82l17.1-4.79v-21.19c0-43.07-29.4-66.32-71.79-66.32-41.7 0-70.42 27.35-92.29 59.48l-37.6-28c31.45-45.12 72.46-76.57 129.89-76.57 51.28 0 125.11 31.45 125.11 117.59v187.32c.68 28-.68 56.75 10.25 83.41zm-26.66-205.78c-50.59 15-142.88 35.55-142.88 103.23 0 31.45 24.61 62.9 56.74 62.9 42.39 0 81.36-29.4 107.34-61.53v-110.75z" class="b67d1be7-d278-415b-baf5-ad0b23e64654" transform="translate(-2.62 -174.58)"/><path d="M24.1 242.23c-9.47 0-16.57-3-21.48-7.78l5.41-6a22.62 22.62 0 0 0 16.07 6.09c6.6 0 12.09-3.13 12.09-9.39 0-5.16-2.62-7.61-11.92-10.4-12.43-3.64-18.86-8.29-18.86-17.34 0-9.55 8.54-15.81 20-15.81 8.38 0 14.55 2.54 19.54 7l-5.16 5.84a20.85 20.85 0 0 0-13.78-5.16c-6 0-10.57 2.45-10.57 7.52 0 4.57 3.21 6.68 13.61 9.73 9.89 3 17.34 7.1 17.34 18.09.04 10.43-8.17 17.61-22.29 17.61zm58.52-8.03h12.17v6.93H59.87v-6.93h13.28v-30.78H60.29v-6.94h22.33zm-.34-53.61a6.18 6.18 0 1 1-6.18-6 5.92 5.92 0 0 1 6.18 6zM109 196.48h8.2l.68 5.84a18.66 18.66 0 0 1 14.46-7c8.28 0 12.43 4.91 12.43 13.28v32.55h-9.47v-27.84c0-7.78-.93-10.74-6.34-10.74-4.4 0-8.12 3.13-10.49 6.51v32H109zm90.82 2.2c-3.47 1.19-7.7 1.44-12.94 1.44 5.33 2.45 8.12 6 8.12 11.42 0 8.71-6.68 15.05-17.68 15.05a18.51 18.51 0 0 1-6.09-.76 4.68 4.68 0 0 0-1.94 3.72c0 1.77 1 3.38 5.5 3.38h7.78c9.55 0 16.32 5.24 16.32 12.43 0 8.88-7.87 14-22.33 14-15.39 0-19.87-4.82-19.87-13.87h8.46c0 4.74 2.11 6.94 11.5 6.94s12.68-2.37 12.68-6.52c0-3.63-3.38-5.66-8.62-5.66H173c-8.46 0-12.18-4-12.18-8.63 0-3 1.69-5.92 4.91-8-5.33-2.79-7.61-6.68-7.61-12.52 0-9.38 7.61-15.81 18.6-15.81 10.74.09 15.31-1.86 20.63-4.48zm-32 12.43c0 5.59 3 9.31 9.13 9.31 5.67 0 8.63-3.39 8.63-9.48s-2.88-9-8.71-9c-6.14-.04-9.1 3.68-9.1 9.17zM230.09 229c0 4.14 2.79 5.66 6.76 5.66a18.5 18.5 0 0 0 7.15-1.56l2.36 6.6a24.22 24.22 0 0 1-11.5 2.53c-9 0-14.2-5.32-14.2-14.12v-42.62h-13.49v-6.93h22.92zm51.16 5.88A20.4 20.4 0 0 0 293 231l4.06 5.75a25.93 25.93 0 0 1-16.24 5.49c-13.95 0-21.56-9.47-21.56-23.42 0-13.36 7.7-23.51 20.38-23.51 11.84 0 19.28 8.46 19.28 22.33a30.5 30.5 0 0 1-.25 4.22h-29.6c.59 9.14 5.75 13.02 12.18 13.02zM269 215.43h20.7c-.17-8.46-3.63-13.11-10-13.11-5.89 0-10.12 4.14-10.7 13.11zm110.25 26.8c-9.47 0-16.57-3-21.48-7.78l5.41-6a22.62 22.62 0 0 0 16.07 6.09c6.6 0 12.09-3.13 12.09-9.39 0-5.16-2.62-7.61-11.92-10.4-12.43-3.64-18.86-8.29-18.86-17.34 0-9.55 8.54-15.81 20-15.81 8.38 0 14.55 2.54 19.54 7l-5.1 5.86a20.85 20.85 0 0 0-13.78-5.16c-6 0-10.57 2.45-10.57 7.52 0 4.57 3.21 6.68 13.61 9.73 9.89 3 17.34 7.1 17.34 18.09-.02 10.41-8.23 17.59-22.35 17.59zm58.43 0c-10.4 0-15.89-5.83-15.89-14.63v-24.18h-9.9v-6.94h9.9v-10l9.47-1.1v11.07h15.13l-1.1 6.94h-14v24.1c0 4.82 2.28 7.1 7.78 7.1a16.9 16.9 0 0 0 8.28-2.11l3.39 6.26a24.87 24.87 0 0 1-13.06 3.49zm64.52-23.51c0 14.21-7.27 23.51-20.21 23.51s-20.21-9-20.21-23.42c0-13.95 7.27-23.51 20.3-23.51s20.12 9.22 20.12 23.42zm-30.44.09c0 11.08 3.38 16.15 10.23 16.15s10.23-5.07 10.23-16.24c0-11-3.38-16.06-10.14-16.06s-10.32 5.07-10.32 16.15zm81.52-22.33L551.67 213h-6.76v-9.13c-6.35.17-10.91 5.24-13.53 13.95v16.58h9v6.76h-25v-6.76h6.59v-31.15h-6.59v-6.77h13.78l1.69 10.32c3.39-7.44 8-11.41 15.73-11.41a20.43 20.43 0 0 1 6.7 1.09zm32.38 38.4a20.46 20.46 0 0 0 11.76-3.88l4.06 5.75a26 26 0 0 1-16.24 5.49c-14 0-21.57-9.47-21.57-23.42 0-13.36 7.7-23.51 20.38-23.51 11.84 0 19.29 8.46 19.29 22.33a30.35 30.35 0 0 1-.26 4.22h-29.6c.6 9.14 5.75 13.02 12.18 13.02zm-12.26-19.45h20.72c-.17-8.46-3.64-13.11-10-13.11-5.9 0-10.12 4.14-10.72 13.11zM640 241.3c-3.38 10.15-9.38 17-21.9 18.1l-1.1-7.1c9-1.44 11.92-4.74 14.29-11.17H628l-15-44.65h10l11.24 38.06 11.42-38.06h9.72zM30.19 972.13h-9.81v-50.4H2.79v-7.94H48l-1 7.94H30.19zm51.16 0l-5.08-31.71-5.41 31.71H59.28l-7.53-44.65h9.13l4.65 38.73 6.26-33.06h9.47L87 966.21l4.65-38.73h8.8l-7.27 44.65zm65.7-22.41c0 14.21-7.27 23.51-20.21 23.51s-20.21-9-20.21-23.42c0-13.95 7.27-23.51 20.3-23.51s20.12 9.22 20.12 23.42zm-30.44.09c0 11.08 3.38 16.15 10.23 16.15s10.23-5.07 10.23-16.24c0-11-3.38-16.06-10.14-16.06s-10.32 5.07-10.32 16.15zM227 973.23c-9.47 0-16.57-3-21.48-7.78l5.42-6a22.58 22.58 0 0 0 16.06 6.09c6.6 0 12.1-3.13 12.1-9.39 0-5.16-2.62-7.61-11.93-10.4-12.43-3.64-18.85-8.29-18.85-17.34 0-9.55 8.54-15.81 20-15.81 8.37 0 14.54 2.54 19.53 7l-5.16 5.84A20.85 20.85 0 0 0 229 920.3c-6 0-10.57 2.45-10.57 7.52 0 4.57 3.21 6.68 13.61 9.73 9.9 3 17.34 7.1 17.34 18.09-.01 10.41-8.21 17.59-22.38 17.59zm58.47 0c-10.4 0-15.89-5.83-15.89-14.63v-24.18h-9.9v-6.94h9.9v-10l9.47-1.1v11.07h15.13l-1.09 6.94h-14v24.1c0 4.82 2.28 7.1 7.78 7.1a17 17 0 0 0 8.29-2.11l3.38 6.26a24.87 24.87 0 0 1-13.07 3.49zM350 949.72c0 14.21-7.28 23.51-20.22 23.51s-20.21-9-20.21-23.42c0-13.95 7.28-23.51 20.3-23.51S350 935.52 350 949.72zm-30.45.09c0 11.08 3.38 16.15 10.23 16.15S340 960.89 340 949.72c0-11-3.39-16.06-10.15-16.06s-10.3 5.07-10.3 16.15zm81.52-22.33L399.46 944h-6.76v-9.13c-6.35.17-10.91 5.24-13.53 13.95v16.58h9v6.76h-25v-6.76h6.6v-31.15h-6.6v-6.77h13.78l1.69 10.32c3.39-7.44 8-11.42 15.73-11.42a20.42 20.42 0 0 1 6.7 1.1zm32.39 38.4a20.43 20.43 0 0 0 11.75-3.88l4.06 5.75a26 26 0 0 1-16.27 5.48c-13.95 0-21.56-9.47-21.56-23.42 0-13.36 7.69-23.51 20.38-23.51 11.84 0 19.28 8.46 19.28 22.32a32.19 32.19 0 0 1-.25 4.23h-29.6c.62 9.15 5.75 13.03 12.21 13.03zm-12.27-19.45h20.72c-.17-8.46-3.64-13.11-10-13.11-5.91 0-10.12 4.14-10.72 13.11zm66.64 25.87c-3.39 10.15-9.39 17-21.91 18.1l-1.18-7.1c9.05-1.44 11.92-4.74 14.29-11.17h-3.21l-15.05-44.65h10.06l11.25 38.06 11.41-38.06h9.73z" class="be0679ca-af1b-438c-9455-9493f89e1985" transform="translate(-2.62 -174.58)"/></g></g></svg>