<svg xmlns="http://www.w3.org/2000/svg" id="Layer_1" viewBox="0 0 1440 1070" width="1440" height="1070"><style>.st0{fill:#b3b3b3}.st1{fill:#505050}.st2{fill:#2997ff}</style><path d="M29.8 28.5h-17v-6H54v6H36.8v46.9h-7.1V28.5h.1zm35.3-8.9v23c1.9-3.4 5.5-6.6 12-6.6 6.2 0 13 3.3 13 14.8v24.6h-6.7V51.9c0-6.5-2.7-10.2-8.4-10.2-6.9 0-10 4.6-10 12.6v21.1h-6.7V19.6h6.8zm38.8 37.7c.1 7.8 4 13.5 10.6 13.5 6.1 0 8.1-3.2 9.3-6h6.8c-1.5 4.9-5.7 11.6-16.3 11.6-12.1 0-17-9.9-17-19.8 0-11.5 5.8-20.6 17.5-20.6 12.5 0 16.5 10 16.5 18.2 0 1.2 0 2.2-.1 3.2h-27.3v-.1zm20.5-4.6c-.1-6.4-3.3-11.5-9.8-11.5-6.8 0-9.8 4.7-10.5 11.5h20.3zm56.9 17.2c-2 4-5.5 6.5-12.2 6.5-8.7 0-16-6.9-16-19.8S160.8 36 170 36c7.1 0 10.3 3.3 11.2 5.8-.1-1.4.1-3.3.2-4.9h6.3c-.1 4-.1 7.1-.1 10.6v43h-6.5V69.9h.2zm-10.6.8c8.4 0 10.8-5.8 10.8-14.7 0-9-2.2-14.3-10.5-14.3-7.2 0-10.9 6.1-10.9 14.6-.1 7.8 3.3 14.4 10.6 14.4zm57.9-6.5c0 3.8.1 9 .1 11.2h-6.5c-.2-1-.2-3.3-.3-5.8-1.9 4.3-5.5 6.7-11.6 6.7-6.5 0-12.8-3.3-12.8-14.1V36.9h6.6v23.9c0 5 1.6 9.7 8 9.7 7.1 0 9.8-4 9.8-13.6V36.8h6.7v27.4zm9.8-36.3v-8.3h6.7v8.3h-6.7zm0 9h6.7v38.5h-6.7V36.9zm46.9 26.7c-1.6 6.6-6.1 12.7-15.9 12.7-10.6 0-17.2-7.6-17.2-20 0-10.9 6.2-20.4 17.6-20.4 11.1 0 15 7.9 15.4 12.8h-6.6c-.9-3.9-3.3-7.3-9-7.3-6.8 0-10.6 5.9-10.6 14.6 0 8.8 3.7 14.7 10.4 14.7 4.8 0 7.6-2.6 9.2-7.1h6.7zm13.3-8.3c3.2-3.8 11.7-12.7 16.9-18.4h8l-14.5 15 16.2 23.6h-7.8l-12.9-19.2-5.8 5.5v13.7H292V19.6h6.7v35.7h-.1zm47.8-35.7h6.7v22.7c1.7-3.3 5.2-6.4 12.2-6.4 9.7 0 15.8 8 15.8 19.4 0 11.7-5.9 21-16.8 21-6.2 0-9.4-2.3-11.3-6 0 2-.2 4-.3 5.1h-6.4c.1-4.3.1-8.7.1-12.9V19.6zm17.4 22c-8.2 0-11.1 5.5-11.1 14.7 0 8.1 2.6 14.4 10.7 14.4 6.8 0 10.9-5.9 10.9-15.2 0-8.3-3.8-13.9-10.5-13.9zm24.5 5.8c0-5.4-.1-8.4-.1-10.5h6.5c.1 1.1.2 4.1.2 7.8 2-5.2 6.5-8.6 12.9-8.7v6.6c-7.9.2-12.9 4.4-12.9 14.1v18.7h-6.7v-28h.1zm57.8 8.6c0 11.2-6.4 20.3-18.2 20.3-11 0-17.7-8.5-17.7-20.1 0-11.4 6.5-20.2 18.2-20.2 10.7 0 17.7 8 17.7 20zm-29.1.1c0 8.5 4.3 14.7 11.2 14.7 7 0 11-5.9 11-14.6s-4-14.7-11.2-14.7-11 5.9-11 14.6zm39-19.2c4.8 18.1 7.5 28.4 8.2 32.4h.1c.7-3.6 3.4-13.2 8.9-32.4h6.5c6 21.8 7.8 28.1 8.4 31.6h.1c1-4.1 2.5-9.9 8.5-31.6h6.8l-11.9 38.5h-7.2c-3.7-14.1-7.4-27.1-8.3-31.2h-.1c-.7 4.2-4.1 16-8.4 31.2h-7.4L449 36.9h7zm52.2 9.7c0-3.3 0-6.8-.1-9.7h6.5c.2 1.1.3 5.2.3 6.3 1.5-3.3 4.6-7.2 12.1-7.2 7.3 0 12.9 4.4 12.9 14.7v24.8h-6.7V51.6c0-5.9-2.3-9.7-8.1-9.7-7.3 0-10.2 5.5-10.2 13.3v20.4h-6.7v-29zm60.3 28.8V42.3h-6.2v-5.4h6.2v-4.6c0-7.1 2.7-13.4 11.2-13.4 1.4 0 3.3.2 4.3.5v5.7c-.9-.2-2.4-.4-3.3-.4-4 0-5.5 2.4-5.5 8.1V37h7.8v5.4h-7.8v33.1l-6.7-.1zM620.3 56c0 11.2-6.4 20.3-18.2 20.3-11 0-17.7-8.5-17.7-20.1 0-11.4 6.5-20.2 18.2-20.2 10.7 0 17.7 8 17.7 20zm-29.1.1c0 8.5 4.3 14.7 11.2 14.7 7 0 11-5.9 11-14.6s-4-14.7-11.2-14.7-11 5.9-11 14.6zm38.2-19.2c5.5 8.6 7.8 12.2 9.1 14.4h.1c1.7-2.4 4.9-7.4 9.4-14.4h7.4l-13 18.5 13.1 20h-7.7c-4.7-7.5-8-12.7-9.5-15.2h-.1c-1.3 2.1-4.4 7.3-9.4 15.2h-7.4l12.9-19.2-12.5-19.3h7.6zm54.9 0v39.8c0 10.6-2.5 14.6-10.9 14.6-.5 0-2-.1-2.6-.2v-5.6c.5.1 1.1.1 1.4.1 4.6 0 5.3-2.4 5.3-7.8v-41h6.8v.1zm-6.7-9v-8.3h6.7v8.3h-6.7zm47.5 36.3c0 3.8.1 9 .1 11.2h-6.5c-.2-1-.2-3.3-.3-5.8-1.9 4.3-5.5 6.7-11.6 6.7-6.5 0-12.8-3.3-12.8-14.1V36.9h6.6v23.9c0 5 1.6 9.7 8 9.7 7.1 0 9.8-4 9.8-13.6V36.8h6.7v27.4zm9.8-17.4c0-3.3 0-6.8-.1-10h6.4c.2 1.1.3 4 .3 5.9 1.7-3.4 5.1-6.8 11.2-6.8 5.5 0 9.2 2.7 10.7 6.9 2.1-3.6 5.7-6.9 12.2-6.9 6.3 0 12.2 3.7 12.2 14.1v25.3h-6.5V50.8c0-4.4-1.6-9.1-7.6-9.1-6.3 0-9 4.7-9 11.6v22.1h-6.5V51.1c0-4.9-1.4-9.3-7.4-9.3-6.2 0-9.1 5-9.1 12.3v21.4h-6.6V46.8h-.2zm62.8 43.8V46.4c0-3.2 0-6.5-.1-9.4h6.5c.2 1.3.2 3.6.2 6.1 2.1-4 6-7 12.6-7 8.9 0 15.4 7.4 15.4 19.2 0 13.8-7.4 21.2-16.7 21.2-6.2 0-9.5-2.6-11.2-5.7v19.8h-6.7zm17.5-48.9c-8 0-11.2 5-11.2 14.4 0 9 2.6 14.6 10.6 14.6 7.1 0 10.8-5.8 10.8-15.3.1-8.2-3.7-13.7-10.2-13.7zm28.2 22.7c1.1 4.2 4.2 6.7 9.4 6.7 5.6 0 7.8-2.4 7.8-5.9 0-3.6-1.7-5.3-9.1-7.1-11-2.7-13.3-6.1-13.3-11.3 0-5.4 4-10.8 13.9-10.8 10 0 14.1 5.8 14.5 11.1h-6.4c-.6-2.4-2.5-5.9-8.4-5.9-5.4 0-7.1 2.6-7.1 5.1 0 2.9 1.6 4.3 8.7 6 11.7 2.8 14.1 6.7 14.1 12.4 0 6.8-5.4 11.7-15 11.7-10 0-14.9-5-15.9-11.9l6.8-.1zm82-8.4c0 11.2-6.4 20.3-18.2 20.3-11 0-17.7-8.5-17.7-20.1 0-11.4 6.5-20.2 18.2-20.2 10.7 0 17.7 8 17.7 20zm-29 .1c0 8.5 4.3 14.7 11.2 14.7 7 0 11-5.9 11-14.6s-4-14.7-11.2-14.7-11 5.9-11 14.6zm38.5-19.2c5.2 15.7 9 27.5 10.2 32.3h.1c.9-4.3 5-15.8 10.8-32.3h6.8l-14.1 38.5h-7.4l-13.5-38.5h7.1zm36.6 20.4c.1 7.8 4 13.5 10.6 13.5 6.1 0 8.1-3.2 9.3-6h6.8c-1.5 4.9-5.7 11.6-16.3 11.6-12.1 0-17-9.9-17-19.8 0-11.5 5.8-20.6 17.5-20.6 12.5 0 16.5 10 16.5 18.2 0 1.2 0 2.2-.1 3.2h-27.3v-.1zm20.5-4.6c-.1-6.4-3.3-11.5-9.8-11.5-6.8 0-9.8 4.7-10.5 11.5H992zm13.7-5.3c0-5.4-.1-8.4-.1-10.5h6.5c.1 1.1.2 4.1.2 7.8 2-5.2 6.5-8.6 12.9-8.7v6.6c-7.9.2-12.9 4.4-12.9 14.1v18.7h-6.7v-28h.1zm38-10.5h6.7V25.5h6.6v11.4h8.5v5.4h-8.5v22.6c0 3.8.9 5.7 4.4 5.7.9 0 2.3-.1 3.3-.3v5c-1.6.6-3.9.7-5.8.7-6 0-8.6-3.1-8.6-9.5V42.3h-6.7l.1-5.4zm34.1-17.3v23c1.9-3.4 5.5-6.6 12-6.6 6.2 0 13 3.3 13 14.8v24.6h-6.7V51.9c0-6.5-2.7-10.2-8.4-10.2-6.9 0-10 4.6-10 12.6v21.1h-6.7V19.6h6.8zm38.7 37.7c.1 7.8 4 13.5 10.6 13.5 6.1 0 8.1-3.2 9.3-6h6.8c-1.5 4.9-5.7 11.6-16.3 11.6-12.1 0-17-9.9-17-19.8 0-11.5 5.8-20.6 17.5-20.6 12.5 0 16.5 10 16.5 18.2 0 1.2 0 2.2-.1 3.2h-27.3v-.1zm20.6-4.6c-.1-6.4-3.3-11.5-9.8-11.5-6.8 0-9.8 4.7-10.5 11.5h20.3zm31.4 22.7V19.6h6.7v55.8h-6.7zm44.8-8.4c0 3.6.3 7.3.5 8.4h-6.4c-.3-.8-.5-2.7-.6-5-1.4 2.5-4.5 5.9-11.9 5.9-9.1 0-13-5.9-13-11.8 0-8.6 6.8-12.5 18.2-12.5h6.5v-3.3c0-3.4-1.1-7.5-8.3-7.5-6.4 0-7.5 3.2-8.2 6.2h-6.5c.5-5.3 3.8-11.4 14.9-11.4 9.4 0 14.7 3.9 14.7 12.6V67h.1zm-6.6-10.3h-6.2c-7.7 0-11.8 2.1-11.8 7.5 0 4 2.7 6.9 7.5 6.9 9.3 0 10.5-6.2 10.5-13.2v-1.2zm12.4 13.3l22.2-27.5h-21.1v-5.6h28.7v5.5L1227 69.8h23l-1.1 5.6h-29.8V70zm40.6-33.1c6.2 18.5 9.7 28.7 10.7 32.6h.1c1.2-4.4 4-13.2 10.3-32.6h6.7l-13.8 40.3c-3.9 11.3-6.8 14.1-14.7 14.1-1.2 0-2.7-.1-4.2-.2v-5.8c1 .1 2.1.2 3.2.2 4.9 0 6.7-2.1 9-8.5l-14.4-40.1h7.1zm82.6-17.3v45c0 3.6 0 7.1.1 10.9h-6.4c-.2-1-.4-4-.4-5.5-1.9 4-5.8 6.4-12.1 6.4-10 0-16-8.1-16-19.8 0-11.9 6.6-20.6 17.3-20.6 6.8 0 9.9 2.7 10.9 4.9V19.6h6.6zm-17.5 51.1c9 0 11-6.7 11-15.1 0-8.6-1.8-14-10.5-14-6.8 0-11 5.4-11 14.7.1 9.3 4.5 14.4 10.5 14.4zm60.4-14.7c0 11.2-6.4 20.3-18.2 20.3-11 0-17.7-8.5-17.7-20.1 0-11.4 6.5-20.2 18.2-20.2 10.7 0 17.7 8 17.7 20zm-29 .1c0 8.5 4.3 14.7 11.2 14.7 7 0 11-5.9 11-14.6s-4-14.7-11.2-14.7-11 5.9-11 14.6zm68.4 15.8c0 12.4-5.1 19.4-17.7 19.4-11.7 0-15.3-6.5-16-11.8h6.8c1.1 4.3 4.6 6.5 9.5 6.5 8.7 0 10.9-5.5 10.9-14.4v-3.1c-2.1 4.3-5.5 6.8-12 6.8-9.5 0-16-7.8-16-19.1 0-12.5 7.4-20.2 16.6-20.2 7.4 0 10.5 3.4 11.3 6 .1-1.7.3-4.3.4-5.1h6.2c0 2.2-.1 7.4-.1 11.1l.1 23.9zm-17.1-2.3c8.3 0 10.7-5.6 10.7-14.1 0-8.7-2.3-13.8-10.5-13.8-7.1 0-10.8 6-10.8 14.3.1 8 4.3 13.6 10.6 13.6z" class="st0"/><path d="M34.4 228.4H18l1.2-5.6h39.5l-1.2 5.6H41l-10 47.3h-6.6l10-47.3zm30.1-8.5h6.3l-5 23.4c2.7-3.8 6.6-6.9 12.8-6.9 5.8 0 12.2 2.9 9.7 14.5l-5.2 24.8h-6.3l5-23.8c1.4-6.5-.2-10-5.9-10-6.4 0-10.9 5.2-12.5 12.5l-4.6 21.3h-6.2l11.9-55.8zm36.3 37.5c-.2 1.5-.3 2.4-.3 3.6 0 6.5 3.1 10.2 8.5 10.2 5.6 0 8.2-3.1 10-6.4h6.5c-2.5 6-7.2 11.6-17.3 11.6-9.7 0-14.1-6.4-14.1-15.3 0-10.9 5.9-24.8 20.2-24.8 10.3 0 13.8 6.8 13.8 13.8 0 2.4-.3 4.6-1 7.2h-26.3v.1zm20.9-4.8c.2-1 .2-1.9.2-2.8 0-5.2-2.4-8.3-8-8.3-5.9 0-10.1 4-12.1 11.1h19.9zm52.9 17.3c-3 4-6.8 6.5-13 6.5-6.5 0-12.2-4.6-12.2-14.7 0-12.8 8.2-25.3 20.2-25.3 6.7 0 9.8 3 10.6 5.9.5-2.3 1.1-4.3 1.4-5.2h6.2c-.6 2.4-1.4 6-2.6 11.6l-9 42.1H170l4.6-20.9zm-18.6-8.7c0 6.2 2.7 9.8 8 9.8 7.8 0 12.1-7.1 13.8-15.6 1.6-8 .2-13.6-7.8-13.6-8.9 0-14 10.5-14 19.4zm65.5 4.1c-.8 3.5-1.4 7.2-2 10.3h-6.2c.1-1.2.6-4.6 1.1-6.6-2.6 4.4-6.9 7.4-12.9 7.4-7.1 0-11.6-4-9.4-14.2l5.5-25.1h6.2l-5.2 24.5c-1.1 4.9-.9 9.4 5.4 9.4 5.9 0 11-4.5 13.3-15.4l4-18.5h6.3l-6.1 28.2zm15.9-28.2h6.3l-8.2 38.5h-6.2l8.1-38.5zm3.6-17.2h6.3l-1.7 8.3h-6.3l1.7-8.3zm36.6 44.2c-2.6 7.4-8 12.3-17.1 12.3-9.4 0-14-6.2-14-15 0-11.6 6.5-25 19.9-25 10.9 0 13.9 7.8 13.5 13.1h-6.2c-.2-4.3-2.1-7.9-7.7-7.9-9 0-13 11-13 19.4 0 7.3 3.3 10.3 8.4 10.3 4.4 0 7.8-2.7 9.9-7.1h6.3v-.1zm14.8-9.2c3.9-3.5 14.5-12.6 20.2-17.7h8c-5.8 5.1-11.6 10.1-17.3 15l10.2 23.6h-7.1l-8.1-19.6-7.2 5.6-3 14h-6.3l11.9-55.8h6.2l-7.5 34.9zm54-35h6.3l-4.9 23c2.5-3.6 6.6-6.5 12.5-6.5 7.9 0 12.5 5.3 12.5 14.3 0 12-6.5 25.8-20.4 25.8-5.8 0-9.2-2.7-10.5-6-.5 1.9-1.1 4.3-1.4 5.2h-6.2c.5-1.8 1.3-5.5 2.4-10.3l9.7-45.5zm20 31.3c0-6.1-2.7-9.3-8.1-9.3-7.2 0-11.9 6.6-13.6 14.7-1.8 8.9.6 14.4 8 14.4 9.3 0 13.7-11.4 13.7-19.8zm34.1-8.3c-7.4.5-12.8 6.1-14.7 14.7l-3.9 18h-6.2l5.8-27.1c.8-3.8 1.6-7.8 2.2-11.4h6.1c-.1 1-.7 4.9-1.4 8.1 2.8-5.5 7.7-8.9 13.5-8.9l-1.4 6.6zm35.5 9.4c0 10.2-5.7 24.2-20.5 24.2-9.3 0-14.4-5.9-14.4-15.5 0-10.7 6.5-24.5 20.4-24.5 8.7-.1 14.5 5.6 14.5 15.8zm-28.5 8.6c0 6.5 3 10.3 8.7 10.3 9.3 0 13.4-11 13.4-19.2 0-6.5-2.8-10.4-8.7-10.4-9 0-13.4 11.1-13.4 19.3zm40.9-23.8c1 16 1.4 27.4 1.4 32.2h.1c1.7-4 4.6-10.3 15.4-32.2h6.3c1.1 22.5 1.3 28.1 1.1 31.7h.1c1.7-4 5.8-12.5 15.6-31.7h6.5l-20.1 38.5H468c-.8-13.3-1.5-25.7-1.4-30.7h-.1c-1.9 4.9-7.3 15.7-14.7 30.7h-7l-2.7-38.5h6.3zM499 247c.7-3.3 1.3-6.6 1.9-9.8h6.2c-.1 1.2-.9 5.5-1.1 6.5 2.2-3.5 5.9-7.3 12.9-7.3 7.4 0 11.9 4.3 9.6 15.2l-5 24.1h-6.3l5-23.9c1.3-5.8-.1-9.8-5.9-9.8-7.1 0-11.2 6.6-12.9 14.4l-4.1 19.3h-6.2L499 247zm52.7 28.8l7-33.4h-6.2l1.2-5.2h6.1l1.2-5.5c1.5-7.1 5.2-12.5 12.8-12.5 1.8 0 3.6.3 4.5.6l-1.2 5.4c-.8-.2-2.2-.4-3.1-.4-3.6 0-5.7 2.4-6.7 7l-1.2 5.5h7.6l-1.1 5.2H565l-7 33.4-6.3-.1zm55-23.5c0 10.2-5.7 24.2-20.5 24.2-9.3 0-14.4-5.9-14.4-15.5 0-10.7 6.5-24.5 20.4-24.5 8.7-.1 14.5 5.6 14.5 15.8zm-28.5 8.6c0 6.5 3 10.3 8.7 10.3 9.3 0 13.4-11 13.4-19.2 0-6.5-2.8-10.4-8.7-10.4-9 0-13.4 11.1-13.4 19.3zm40.6-23.8c3.3 7.2 5.6 12.5 6.5 14.4h.1c2.1-2.6 5.9-7.1 11.9-14.4h7.4l-16.5 18.8 9.1 19.7h-6.9c-3-6.5-5.7-12.6-6.8-14.9h-.1c-1.5 2.1-5.9 7.6-12 14.9h-7.3l16.6-19.7-8.7-18.8h6.7zm54.7 0l-8.7 41c-1.8 8.7-4.6 13.5-12.6 13.5-1.3 0-2.7-.2-3.7-.3l1.4-5.5c.7.1 1.3.2 1.9.2 4.6 0 5.6-2.4 6.9-8.4l8.6-40.4 6.2-.1zm-4.4-8.9l1.7-8.3h6.3l-1.7 8.3h-6.3zm38 37.1c-.8 3.5-1.4 7.2-2 10.3h-6.2c.1-1.2.6-4.6 1.1-6.6-2.6 4.4-6.9 7.4-12.9 7.4-7.1 0-11.6-4-9.4-14.2l5.5-25.1h6.2l-5.2 24.5c-1.1 4.9-.9 9.4 5.4 9.4 5.9 0 11-4.5 13.3-15.4l4-18.5h6.3l-6.1 28.2zm13.6-17.4c.8-3.6 1.4-7.1 2.1-10.8h6.2c-.1 1-.5 4-1 5.9 2.4-3.6 5.6-6.7 11.6-6.7 5.3 0 8.3 2.4 8.9 7.1 2.7-3.8 6.5-7.1 12.8-7.1 6.4 0 11.5 3.7 9.2 14.3l-5.3 25H759l5.1-24.2c1-4.5.8-9.5-5.4-9.5-6 0-9.6 5.3-10.9 11.8l-4.6 22H737l4.9-23.6c1.3-6 .6-10.2-5-10.2-6.2 0-10 5.7-11.4 12.5l-4.4 21.2h-6.2l5.8-27.7zm60.1.6c1.1-5.2 1.9-9 2.3-11.3h6.2c-.1.8-.8 4.3-1.2 6.6 2.7-4.1 6.8-7.4 13.1-7.4 7.8 0 12.2 5.8 12.2 14.6 0 12.6-7.2 25.5-20.3 25.5-6.3 0-9.4-3-10.7-5.9l-4.3 20.3h-6.3l9-42.4zm12.5 22.5c9.3 0 13.6-10.9 13.6-19.4 0-6.4-3-9.7-8-9.7-7.2 0-12.2 7.1-13.8 14.7-1.7 8.5.4 14.4 8.2 14.4zm29.3-6.9c.4 4 2.8 7.2 9 7.2 5.2 0 7.9-2.6 7.9-6.2s-2.6-5.3-8.1-7.3c-8.3-2.9-10.8-5.8-10.8-10.3 0-6 4.6-11.2 13.9-11.2 10 0 13.7 5.6 13.5 11.1h-6.4c-.2-2.7-1.5-6.1-7.8-6.1-4 0-6.9 2-6.9 5.5 0 2.7 2.2 4 7.7 5.9 8.1 2.9 11.3 6.2 11.3 11.5 0 7.7-6.2 12.2-15.4 12.2-9.8 0-14.5-5.1-14.5-12.3h6.6zm81.7-11.8c0 10.2-5.7 24.2-20.5 24.2-9.3 0-14.4-5.9-14.4-15.5 0-10.7 6.5-24.5 20.4-24.5 8.7-.1 14.5 5.6 14.5 15.8zm-28.5 8.6c0 6.5 3 10.3 8.7 10.3 9.3 0 13.4-11 13.4-19.2 0-6.5-2.8-10.4-8.7-10.4-9 0-13.4 11.1-13.4 19.3zm40.2-23.8c2.1 16.6 3.3 27.7 3.5 32.6h.1c1.7-4.1 12.5-23.3 17.5-32.6h6.6l-21.6 38.5h-7.4l-4.9-38.5h6.2zm33.1 20.3c-.2 1.5-.3 2.4-.3 3.6 0 6.5 3.1 10.2 8.5 10.2 5.6 0 8.2-3.1 10-6.4h6.5c-2.5 6-7.2 11.6-17.3 11.6-9.7 0-14.1-6.4-14.1-15.3 0-10.9 5.9-24.8 20.2-24.8 10.3 0 13.8 6.8 13.8 13.8 0 2.4-.3 4.6-1 7.2h-26.3v.1zm20.9-4.8c.2-1 .2-1.9.2-2.8 0-5.2-2.4-8.3-8-8.3-5.9 0-10.1 4-12.1 11.1H970zm34.1-9.7c-7.4.5-12.8 6.1-14.7 14.7l-3.9 18h-6.2l5.8-27.1c.8-3.8 1.6-7.8 2.2-11.4h6.1c-.1 1-.7 4.9-1.4 8.1 2.8-5.5 7.7-8.9 13.5-8.9l-1.4 6.6zm20.6-5.8h6.5l2.4-11.1h6.2l-2.4 11.1h8.2l-1.1 5.2h-8.2l-4.9 23.3c-.8 3.5-.6 5.2 2.7 5.2 1.1 0 2.7-.1 3.8-.4l-1.1 5c-1.7.6-3.6.6-5.3.6-6.1 0-8-2.9-6.7-9.3l5.2-24.5h-6.4l1.1-5.1zm30-17.2h6.3l-5 23.4c2.7-3.8 6.6-6.9 12.8-6.9 5.8 0 12.2 2.9 9.7 14.5l-5.2 24.8h-6.3l5-23.8c1.4-6.5-.2-10-5.9-10-6.4 0-10.9 5.2-12.5 12.5l-4.6 21.3h-6.2l11.9-55.8zm36.3 37.5c-.2 1.5-.3 2.4-.3 3.6 0 6.5 3.1 10.2 8.5 10.2 5.6 0 8.2-3.1 10-6.4h6.5c-2.5 6-7.2 11.6-17.3 11.6-9.7 0-14.1-6.4-14.1-15.3 0-10.9 5.9-24.8 20.2-24.8 10.3 0 13.8 6.8 13.8 13.8 0 2.4-.3 4.6-1 7.2H1091v.1zm20.9-4.8c.2-1 .2-1.9.2-2.8 0-5.2-2.4-8.3-8-8.3-5.9 0-10.1 4-12.1 11.1h19.9zm26.6 23.1l11.8-55.8h6.3l-11.9 55.8h-6.2zm46.7-9.6c-.7 3.3-1.6 8.1-1.8 9.6h-6.2c.2-1.4.5-3.8 1-5.9-1.9 3.1-5.2 6.7-13.1 6.7-7.8 0-10.6-5.1-10.6-9.7 0-10.9 10.3-13.4 18-14.1 4-.3 7.4-.3 9.3-.4l.5-2.6c.7-3.6.5-8.4-6.9-8.4-6.5 0-8.3 3.4-9.4 6.4h-6.5c1.4-5.8 5.6-11.2 16.4-11.2 8.8 0 14.6 4 12.6 13.2l-3.3 16.4zm-4.3-9.3c-2.1.1-4.6.1-7.9.5-6.2.6-11.8 2.4-11.8 8.5 0 2.9 1.9 5.4 6.2 5.4 8.4 0 11.7-6.5 13.4-13.8l.1-.6zm9.7 13.9l25.9-28.3h-20l1.1-5.2h27.5l-1.2 5.3-25.5 28h21.7l-2 5.2h-28.7l1.2-5zm44.9-33.6c2.4 17.1 3.9 29.8 4.1 33.6h.1c2.2-4.2 7-14.9 16.9-33.6h6.7l-21.4 40.7c-6.7 12.8-10.3 13.8-17.3 13.8-1.6 0-3.5-.2-4.4-.5l1.3-5.5c.8.2 1.7.3 3.5.3 5 0 6.8-2.1 10.3-8.1l-5.9-40.7h6.1zm86.5-17.2l-9.5 45.1c-.8 3.6-1.5 7.2-2.1 10.7h-6.2c.1-1.1.5-3.6 1.1-6.1-2.6 4-6.4 6.8-12.8 6.8-8.3 0-12.5-6.2-12.5-15 0-11.3 6.8-25.1 20.2-25.1 6.5 0 9.9 3.5 10.7 6l4.8-22.5 6.3.1zm-35.3 41c0 6.8 3 10 8.1 10 8 0 12.2-7.2 13.8-15.7 1.7-8.1-.8-13.2-8.2-13.2-9-.1-13.7 10.3-13.7 18.9zm69.8-8.6c0 10.2-5.7 24.2-20.5 24.2-9.3 0-14.4-5.9-14.4-15.5 0-10.7 6.5-24.5 20.4-24.5 8.7-.1 14.5 5.6 14.5 15.8zm-28.5 8.6c0 6.5 3 10.3 8.7 10.3 9.3 0 13.4-11 13.4-19.2 0-6.5-2.8-10.4-8.7-10.4-9 0-13.4 11.1-13.4 19.3zm63.5 11c-2.6 12.2-6.4 19.7-19.7 19.7-12.8 0-14.4-7.1-14.4-11.6h6.4c0 3.5 2.4 6.6 8.7 6.6 8.1 0 10.6-5.5 12.8-14.6l.8-3.4c-2.7 4.3-6.6 7-12.5 7-7.7 0-12.5-5.4-12.5-14.8 0-11.5 6.9-24.3 19.5-24.3 6.7 0 10.1 3.4 10.9 6.2.5-1.8 1.1-4.4 1.6-5.5h6c-.8 3-1.6 6.8-2.3 10.2l-5.3 24.5zm-23.9-11.6c0 6.5 2.9 9.8 8.1 9.8 7.1 0 11.5-6.7 13.2-14.7 1.6-7.4-.2-13.5-8.1-13.5-8.5-.1-13.2 9.3-13.2 18.4z" class="st1"/><path d="M22.1 703.7l5.3-.6c1.8-.2 2.1-.2 2.2-1.1.1-1.7.2-2.9.2-5.9v-42.2h-3.1c-1.5 0-3.8.2-4.6.2-4.7.3-5.8.4-6.3 2-.6 1.7-.9 4-1.7 8.6h-2.8l-1-15.4c7.9.3 15.5.5 23.5.5 7.7 0 15.5-.2 23.2-.5l-.9 15.4h-2.8c-.7-4.5-1.2-6.8-1.7-8.6-.5-1.7-1.5-1.8-6.3-2-.9 0-3.5-.2-4.5-.2h-3.3v42.2c0 2.9.1 4.1.2 5.9.1.9.4.9 2.2 1.1l5.4.6v3.8c-3.9-.3-7.6-.5-11.6-.5-3.8 0-7.7.2-11.5.5v-3.8h-.1zm36.1.2l3.9-.6c1.8-.3 2.1-.3 2.2-1.2.1-1.7.2-2.8.2-5.8v-26.5c0-12-.6-19.9-1.9-27.6 2.9-.7 5.3-1.5 7.8-2.8l1 .9v30.4c5.5-3.5 9.9-5 14.5-5 6.8 0 9.5 3.9 9.5 13.9v16.7c0 2.9.1 4 .2 5.8.1.9.4.9 2.2 1.2l3.9.6v3.4c-3.9-.2-5.8-.3-9.6-.3s-6.1.1-9.8.3v-3.4l3.9-.6c1.8-.4 2-.3 2.1-1.2.1-1.7.2-2.8.2-5.8v-13.2c0-9-2-11.9-7.6-11.9-3.4 0-6.3 1.7-7.7 4.2-1.4 2.5-1.7 5-1.7 8.5v12.4c0 2.9.1 4 .2 5.8.1.9.3.8 2.1 1.2l4 .6v3.4c-3.9-.2-6-.3-9.8-.3s-6.1.1-9.7.3l-.1-3.4zm46.4-15.9c0-13.4 7.1-22.2 17.3-22.2 7.7 0 12.6 5.3 12.6 13.7 0 1.7-.1 3.1-.5 5h-22.9c-.1.6-.1 1.4-.1 1.7 0 10.3 4.5 15.7 12.8 15.7 3.7 0 6.4-1 10.2-3.2l1.7 2.8c-6.3 4.7-11.2 6.7-16.3 6.7-8.9 0-14.8-7.9-14.8-20.2zm22.7-9c.1-.6.1-1.1.1-1.6 0-4.1-2.8-6.9-6.6-6.9-5.3 0-8.3 3.6-9.3 9.9l15.8-1.4zm26.2 11.6c0-13.9 7.6-24.8 17.2-24.8 2.5 0 4.7.5 8.4 2.2 2.1-.6 4.4-1.6 6.3-2.8l1.1.9c-.7 5.9-.7 11.7-.7 17.6v31.1c0 2.6 0 4.9.1 5.6.1.8.2 1 1 1 .3 0 1.3-.1 1.7-.1s1.8-.1 3.3-.1v4c-6.2.2-14.2 1.7-20 4.2l-1.4-3.9c1.7-.8 5.4-2 6.7-2.4.9-.3 1.2-.5 1.4-.7.2-.4.4-1.6.4-6.3v-12.8c-5.8 3.6-9.8 4.9-14.2 4.9-7.2 0-11.3-6.6-11.3-17.6zm23.3 8.7c1.7-2.3 2.2-5.4 2.2-12.7v-12c-3.7-2.2-5.9-3-8.7-3-6 0-9.6 5.7-9.6 15.9 0 9.8 2.8 15.2 8.8 15.2 2.8 0 5.5-1.2 7.3-3.4zm19.7-21.5c0-2.4.1-4.3 0-5.7-.1-.9-.3-1-2.2-1.3l-4-.6v-3.4l13.2-.6v25.5c0 8.4 1.7 11 6.6 11 2.8 0 5.9-1.3 7.7-3.8 1.3-1.9 1.6-4.1 1.6-7.7v-13.4c0-2.4-.1-4.3-.2-5.7-.1-.9-.3-1-2.2-1.3l-4-.5v-3.4l13.2-.6v25.4c0 3.9.2 8.3.8 10.2l7.3.6.1 2-13.3 3.9c-.7-1.4-1.4-3.4-1.6-5.1h-.3c-4.2 2.8-9.2 5-13.7 5-6.4 0-9.2-4.1-9.2-13.9v-16.6h.2z" class="st0"/><path d="M234.1 703.9l3.9-.6c1.8-.4 2.1-.4 2.2-1.3.1-1.7.1-2.8.1-5.8V685c0-4.8 0-6.9-.5-12l-5.7-1.2v-2.1c4.1-.8 7.8-2.3 11.5-4.2l2 1.2c-.4 3.8-.4 7.6-.4 11.5v18.1c0 2.9.1 4 .2 5.8.1.9.3.9 2.1 1.3l4 .6v3.3c-3.9-.2-6.4-.3-9.8-.3-3.8 0-6.1.1-9.7.3l.1-3.4zm4.7-57.5l8.1-2.7 1.2 1.2-2.9 13-3.2 1.2-3.2-12.7zm36.1 19.4c4.5 0 8.5 2.1 8.5 4.4 0 1.7-.6 2.8-2 5.1-2.8-2.1-5.2-2.8-8-2.8-6.3 0-10.4 4.8-10.4 14.1 0 10.5 4.7 15.5 11.9 15.5 3 0 5.3-.8 9-2.7l1.6 2.8c-6.1 4.1-10.1 5.9-14.5 5.9-8.7 0-14.5-6.6-14.5-18.2 0-13.4 8.7-24.1 18.4-24.1zm11 38.1l3.9-.6c1.8-.3 2.1-.3 2.2-1.2.1-1.7.2-2.8.2-5.8v-26.5c0-11.8-.6-19.9-1.8-27.6 3.2-.8 4.7-1.3 7.7-2.8l1 .9v56c0 2.9.1 4 .2 5.8.1.9.3.9 2.1 1.2l3.9.6v3.4c-3.9-.2-5.9-.3-9.7-.3-3.8 0-6.1.1-9.7.3v-3.4zm21.5-26.4c1.9-1.9 4-3.9 5-6.5l-3.9-.9v-3.4c3.2.2 5.5.2 8.3.2 2.5 0 4.9 0 7.6-.2v3.4c-4.5 1.1-8 4.3-11.2 7.5l-6.4 6.2 11.9 13.3c3.2 3.8 5.7 5.9 10 6.9v3.3h-7.2c-2.5 0-3.1-.4-4.3-1.9l-18.1-19.9 8.3-8zm37.2-7.7c0-11.9-.6-19.9-1.8-27.6 3-.7 5.1-1.6 7.7-2.8l1.1.8v30.6c5.7-3.8 9.8-5 14.3-5 7.4 0 11.5 5.8 11.5 17.3 0 16.3-6.6 25.1-18.5 25.1-3.5 0-5.5-.6-8.6-2.2l-4.2 3.8-1.4-.8v-39.2h-.1zm14.4 33.5c6.8 0 11.2-5.3 11.2-17.4 0-9.7-3.2-14.7-9.1-14.7-3.5 0-6.3 1.4-7.9 4.2-1.6 2.7-1.7 5.8-1.7 9.3v15c2.1 2.4 4.4 3.6 7.5 3.6zm22.1.6l3.9-.6c1.8-.3 2.1-.3 2.2-1.2.1-1.7.1-2.8.1-5.8v-23.2l-6.1-1.4v-2.1c4.1-.8 7.9-2.4 11.1-4.3l1.6.9.2 8.7h.3c2.1-5 4.7-9.2 8-9.2 1.7 0 4.1.5 6.2 1.4.8.4 1.5.9 1.5 1.8 0 1.3-.6 3.1-1.7 5-1.7-.7-3.6-1.4-5.7-1.4-4.1 0-7 4.1-7.7 8.5-.6 2.6-.6 4.3-.6 7.7v7.6c0 2.9.1 3.9.2 5.8.1.9.4 1 2.1 1.2l6.1.6v3.4c-3.8-.2-8.2-.3-11.9-.3-3.7 0-6.1.1-9.7.3v-3.4h-.1zm47.8-38.1c10.7 0 16.8 6.4 16.8 19.5 0 13.3-5.7 22.9-18.9 22.9-10.7 0-16.9-6.9-16.9-19.7 0-13.9 7.2-22.7 19-22.7zm9.7 21.4c0-10-4-16.8-10.6-16.8-7.2 0-11 6.1-11 16.2 0 10.4 4 16.9 11.1 16.9 8.7 0 10.5-8.2 10.5-16.3zm12.8-13.5c-.7-2.6-1-3.1-2.3-3.3l-1.7-.4v-3.4c2.8.2 6.1.3 9.1.3 2.9 0 5.8-.1 8.7-.3v3.4l-3.9.7c-1.8.3-2.8.6-2.8 1.6 0 .8.2 1.9.6 3.5l1.5 6.1c1.1 4 3.1 11.7 4.2 16.9h.4c1.9-6.4 4.4-13.2 6.5-19.5 1.5-4.1 2.9-9.4 3.6-12.6h5.7l4.2 15.2c1.3 4.5 3.1 11.7 4.3 16.9h.4c2-7 4.3-13.6 6.3-20.1 1.1-3.5 1.6-5.6 1.6-6.4 0-.9-.4-1.4-1.8-1.6l-3.8-.6v-3.4c2.8.2 5.5.3 8.3.3 2.6 0 4.8-.1 7.4-.3v3.4l-3.7.6c-1.6 5-3.9 11.4-5.9 17-2 5.6-4.9 14-6.6 20.1h-5.8l-4.9-17.6c-1.4-5.1-2.8-10.3-3.7-13.9h-.3c-1.3 4.8-2.9 9.3-4.3 13.1-3 8.4-4.9 14.2-5.9 18.2h-5.9l-9.5-33.9z" class="st0"/><path d="M507.4 703.9l3.9-.6c1.8-.3 2.1-.3 2.2-1.2.1-1.7.1-2.8.1-5.8v-23.2l-6.1-1.4v-2.1c4.1-.9 7.8-2.4 11.5-4.3l1.6.9v4.7h.3c4.9-3.5 9.6-5.1 14.2-5.1 6.8 0 9.5 4 9.5 14v16.5c0 2.9.1 4 .2 5.8.1.9.3.9 2.1 1.2l3.9.6v3.4c-3.9-.2-5.9-.3-9.7-.3s-6.1.1-9.7.3v-3.4l3.9-.6c1.8-.4 2.1-.3 2.2-1.2.1-1.7.2-2.8.2-5.8V683c0-8.7-1.9-11.7-7.6-11.7-3.5 0-6.3 1.7-7.7 4.2-1.5 2.5-1.7 5.1-1.7 8.6v12.2c0 2.9.1 4 .2 5.8.1.9.3.8 2.1 1.2l4 .6v3.4c-3.9-.2-6-.3-9.8-.3s-6.1.1-9.7.3v-3.4h-.1zm59.8 0l3.9-.6c2-.3 2.3-.4 2.3-1.4.1-2 .1-2.9.1-5.6v-25.7l-6.2-.3v-3.2l6.2-.5c.5-7.6 1.6-12.3 3.4-16.7 1.6-3.8 5.2-10.6 10-10.6 2.1 0 7.3 1 7.3 3.7 0 1.5-.5 2.9-1.6 4.8-2.5-1-3.9-1.5-5.9-1.5-5.6 0-6.3 6.2-6.3 18.2v1.8l10.2-.5v5.7l-10.2-.6v25.4c0 2.9.1 3.9.2 5.8.1.9.4 1 2.2 1.2l6.1.6v3.4c-3.6-.2-8.1-.3-11.9-.3s-6.5.1-9.8.3v-3.4zm43.7-38.1c10.7 0 16.8 6.4 16.8 19.5 0 13.3-5.7 22.9-18.9 22.9-10.7 0-16.9-6.9-16.9-19.7 0-13.9 7.2-22.7 19-22.7zm9.7 21.4c0-10-4-16.8-10.6-16.8-7.2 0-11 6.1-11 16.2 0 10.4 4 16.9 11.1 16.9 8.7 0 10.5-8.2 10.5-16.3zm7.5 16.7l4-.8c2.1-3.1 4-5.7 6-8.4 1.7-2.2 4.8-6.2 6.1-8.3l-8.5-12.7c-1.7-2.7-2.2-3-4.1-3.4l-1.6-.4v-3.4c3.2.3 5.4.3 8.4.3 3.1 0 6.1-.1 9.1-.3v3.4l-3.4.6c-.9.2-1.3.5-1.3 1s.3.9 1 2l5 7.6 3.6-5.1c2.1-2.9 2.4-3.9 2.4-4.5 0-.6-.5-.9-1.5-1.1l-2.8-.6v-3.4c2.8.2 4.9.3 7.7.3 2.6 0 4.9-.1 7.4-.3v3.4l-4.3 1c-1.8 2.7-4.1 6-5.1 7.3-1.1 1.4-3.7 4.9-4.9 6.6l9.6 14.3c2.2 3.3 3 3.9 5 4.2l2.1.4v3.7c-3-.2-6.2-.3-9.5-.3s-6.4.1-9.8.3v-3.4l4.3-.6c.9-.1 1.4-.3 1.4-.8s-.2-.9-.6-1.7l-7.2-10.6-5.5 7.8c-1.7 2.7-2.3 3.5-2.3 4.4 0 .6.4.8 1.5.9l4.1.6v3.4c-3.1-.2-5.9-.3-8.8-.3-2.8 0-5 .1-7.7.3v-3.4h.2zm60.2-7.2v-11.6c0-5.4-.1-7.5-.6-12l-5.5-1.3v-2.1c4-.9 7.7-2.1 11.4-4.2l1.9 1.2c-.4 4.3-.3 8.8-.3 13.2v17.3c0 9.6-.9 15-2.8 18.4-2.4 4.4-6 7.5-13.6 12.5l-2.2-2.9c3.9-2.7 6.9-5.2 9-9.5 2.3-4.3 2.7-10.3 2.7-19zm-1.7-50.3l8.1-2.7 1.1 1.2-2.8 13-3.3 1.2-3.1-12.7zm20.1 31.4c0-2.4.1-4.3 0-5.7-.1-.9-.3-1-2.2-1.3l-4-.6v-3.4l13.2-.6v25.5c0 8.4 1.7 11 6.6 11 2.8 0 5.9-1.3 7.7-3.8 1.3-1.9 1.6-4.1 1.6-7.7v-13.4c0-2.4-.1-4.3-.2-5.7-.1-.9-.3-1-2.2-1.3l-3.9-.6v-3.4l13.2-.6v25.4c0 3.9.2 8.3.8 10.2l7.3.6.1 2-13.3 3.9c-.7-1.4-1.4-3.4-1.6-5.1h-.3c-4.2 2.8-9.2 5-13.7 5-6.4 0-9.2-4.1-9.2-13.9v-16.5h.1z" class="st0"/><path d="M744.3 703.9l3.9-.6c1.8-.3 2.1-.3 2.2-1.2.1-1.7.1-2.8.1-5.8v-23.2l-6.1-1.4v-2c4-.9 7.8-2.4 11.4-4.4l1.7 1v4.5l.3.1c4.8-3.4 9.5-5.1 13.6-5.1s6.6 2.2 8 5.8h.2c5-4 10.6-5.8 14.9-5.8 8.9 0 9.1 9.2 9.1 15.9v14.6c0 2.9.1 4 .2 5.8.1.9.4.9 2.2 1.2l3.9.6v3.4c-3.9-.2-5.9-.3-9.7-.3s-6.1.1-9.8.3v-3.4l3.9-.6c1.8-.3 2-.3 2.1-1.2.1-1.7.2-2.8.2-5.8v-13.7c0-5-.1-11.4-7-11.4-2.8 0-5.4 1.1-7 3.3-2 2.6-2.1 5.9-2.1 9.8v12c0 2.9.1 4 .2 5.8.1.9.4.9 2.2 1.2l3.9.6v3.4c-3.9-.2-5.7-.3-9.5-.3s-6.1.1-9.7.3v-3.4l3.9-.6c1.8-.3 2-.3 2.1-1.2.1-1.7.2-2.8.2-5.8v-13.7c0-5.9-.6-11.4-6.8-11.4-3.7 0-6.6 1.8-7.8 4.3-1.3 2.6-1.5 5-1.5 8.6v12.2c0 2.9.1 4 .2 5.8.1.9.3.9 2.1 1.2l3.9.6v3.4c-3.9-.2-5.9-.3-9.7-.3s-6.1.1-9.7.3v-3.4h-.2z" class="st0"/><path d="M822.4 715.1c0 2.5.1 4.2.2 5.7.1.8.5 1.1 1.3 1.1.4 0 1.2-.1 1.7-.2.8-.1 3.7-.3 5-.4v3.9c-6.9.4-14 1.7-19.9 4.2l-1.4-3.5c1.2-.6 3.1-1.3 4.3-1.7 1.1-.4 1.5-.6 1.7-.8.3-.4.4-1.1.4-6.1v-44.2l-6.1-1.4v-2.1c4-.8 7.7-2.3 11.4-4.3l1.7.9v4.6h.3c4.7-3.6 9.5-5 14-5 7.7 0 11.6 6 11.6 17.6 0 16-6.6 24.8-18.5 24.8-2.3 0-4.7-.4-7.2-1.7v8.6h-.5zm7.5-11.7c6.7 0 11.1-5.3 11.1-17.5 0-9.7-3.1-14.6-9.1-14.6-3.7 0-6.5 1.7-8.1 4.5-1.3 2.4-1.5 5.4-1.5 8.8v15.2c2.5 2.6 4.7 3.6 7.6 3.6zm21.6-.3c0-1.6 2-3.4 3-4.4 2.6 1.9 5.1 3.3 8.1 3.3 3.6 0 6.5-2.5 6.5-6.3 0-3.3-1.8-4.7-8-7.8-5.5-2.8-8.3-4.6-8.3-8.7 0-2.3 1.4-5.4 4.1-8.4 2.6-3 5.1-4.9 8.7-4.9 2.1 0 4.4.6 6.8 1.5 1.3.6 1.7 1 1.7 1.9 0 1.1-.7 2.8-1.8 4.8-2.8-1.4-5.3-2.2-8-2.2-3 0-5 1.9-5 4.7 0 2.6 1.6 4.2 7.4 7.1 6.9 3.3 8.9 5.1 8.9 9.2 0 2.9-1.7 6.5-4.2 9.4-3.1 3.7-6.7 6.1-10.4 6.1-2.4 0-5.1-1-7.8-2.7-1.3-1-1.7-1.6-1.7-2.6zm61.8-37.3c10.7 0 16.8 6.4 16.8 19.5 0 13.3-5.7 22.9-18.9 22.9-10.7 0-16.9-6.9-16.9-19.7 0-13.9 7.3-22.7 19-22.7zm9.8 21.4c0-10-4-16.8-10.6-16.8-7.2 0-11 6.1-11 16.2 0 10.4 4 16.9 11.1 16.9 8.6 0 10.5-8.2 10.5-16.3zm12.5-14.5c-.6-1.7-.9-2.1-2.3-2.4l-1.6-.3v-3.4c2.8.2 5.8.3 8.7.3s5.4-.1 8.8-.3v3.4l-4.5.7c-1.7.2-2 .6-2 1.4 0 .5.2.9.6 2l2.7 7.7c1.8 5.3 4.1 11.8 5.8 17.7h.4c2.1-5.7 4.5-11.8 6.7-17.6 2.1-5.5 3.3-8.8 3.3-9.7 0-.9-.3-1.2-1.9-1.5l-3.5-.7v-3.4c2.7.2 5.3.3 7.9.3 2.8 0 5.1-.1 7.6-.3v3.4l-3.7.6c-1.8 5-4.6 11.6-6.9 17-2.6 6.1-5.9 14.6-7.8 20H948l-12.4-34.9zm36.2 15.3c0-13.4 7.1-22.2 17.3-22.2 7.7 0 12.6 5.3 12.6 13.7 0 1.7-.1 3.1-.5 5h-22.9c-.1.6-.1 1.4-.1 1.7 0 10.3 4.5 15.7 12.8 15.7 3.7 0 6.4-1 10.2-3.2l1.7 2.8c-6.3 4.7-11.2 6.7-16.3 6.7-8.9 0-14.8-7.9-14.8-20.2zm22.7-9c.1-.6.1-1.1.1-1.6 0-4.1-2.8-6.9-6.6-6.9-5.3 0-8.3 3.6-9.3 9.9l15.8-1.4zm10.8 24.9l3.9-.6c1.8-.3 2.1-.3 2.2-1.2.1-1.7.1-2.8.1-5.8v-23.2l-6.1-1.4v-2.1c4.1-.8 7.9-2.4 11.1-4.3l1.6.9.2 8.7h.3c2.1-5 4.7-9.2 8-9.2 1.7 0 4.1.5 6.2 1.4.8.4 1.5.9 1.5 1.8 0 1.3-.6 3.1-1.7 5-1.7-.7-3.6-1.4-5.7-1.4-4.1 0-7 4.1-7.7 8.5-.6 2.6-.6 4.3-.6 7.7v7.6c0 2.9.1 3.9.2 5.8.1.9.4 1 2.1 1.2l6.1.6v3.4c-3.8-.2-8.2-.3-11.9-.3s-6.1.1-9.7.3l-.1-3.4zm47.1-10.5v-22.8l-4-.2v-3l4-.4v-10c2.4-.9 3.9-1.9 5.9-3.5l1.6 1.1c-.5 4-.6 7.9-.6 11.9l11.5-.7v5.7l-11.5-.7v20.3c0 9.1 1.2 11.6 6.2 11.6 1.9 0 3.8-.3 6.3-.8l.8 2.6c-5.9 2.8-9.5 3.9-12.8 3.9-2.5 0-4-.8-5.4-2.8-1.9-3-2-6.4-2-12.2zm20.2 10.5l3.9-.6c1.8-.3 2.1-.3 2.2-1.2.1-1.7.2-2.8.2-5.8v-26.5c0-12-.6-19.9-1.9-27.6 2.9-.7 5.3-1.5 7.8-2.8l1 .9v30.4c5.5-3.5 9.9-5 14.5-5 6.8 0 9.5 3.9 9.5 13.9v16.7c0 2.9.1 4 .2 5.8.1.9.4.9 2.2 1.2l3.9.6v3.4c-3.9-.2-5.8-.3-9.6-.3s-6.1.1-9.8.3v-3.4l3.9-.6c1.8-.4 2-.3 2.1-1.2.1-1.7.2-2.8.2-5.8v-13.2c0-9-2-11.9-7.6-11.9-3.4 0-6.3 1.7-7.7 4.2-1.4 2.5-1.7 5-1.7 8.5v12.4c0 2.9.1 4 .2 5.8.1.9.3.8 2.1 1.2l4 .6v3.4c-3.9-.2-6-.3-9.8-.3s-6.1.1-9.7.3l-.1-3.4zM1119 688c0-13.4 7.1-22.2 17.3-22.2 7.7 0 12.6 5.3 12.6 13.7 0 1.7-.1 3.1-.5 5h-22.9c-.1.6-.1 1.4-.1 1.7 0 10.3 4.5 15.7 12.8 15.7 3.7 0 6.4-1 10.2-3.2l1.7 2.8c-6.3 4.7-11.2 6.7-16.3 6.7-8.9 0-14.8-7.9-14.8-20.2zm22.7-9c.1-.6.1-1.1.1-1.6 0-4.1-2.8-6.9-6.6-6.9-5.3 0-8.3 3.6-9.3 9.9l15.8-1.4zm24.7 24.9l3.9-.6c1.8-.3 2.1-.3 2.2-1.2.1-1.7.2-2.8.2-5.8v-26.5c0-11.8-.6-19.9-1.8-27.6 3.4-.7 5-1.5 7.6-2.8l1.1.9v56c0 2.9.1 4 .2 5.8.1.9.3.9 2.1 1.2l3.9.6v3.4c-3.9-.2-6-.3-9.8-.3s-5.9.1-9.6.3v-3.4zm21.6-7.7c0-2 .6-3.2 2.4-4.5 3.9-2.9 10.4-5.8 18.4-8.2v-3c0-6.4-1.7-9.2-6.7-9.2-3 0-6 1.2-9.5 3.5l-1.8-3.1c5.9-4 10.9-5.9 15.5-5.9 8 0 8.9 5 8.9 11.6 0 4.2-.4 8.4-.4 12.6 0 5.7.2 9.4.8 11.9l7.3.6.1 2-13 3.9c-.6-1.4-1.1-3.3-1.3-5.1h-.3c-4.1 3.1-8.6 5-12.2 5-6.3-.1-8.2-6.7-8.2-12.1zm12 6.6c6.1 0 8.9-5 8.9-10.7v-3.3c-9.8 1.4-13.7 4.2-13.7 8.7 0 3.3 1.6 5.3 4.8 5.3zm43.5-31.6h-7.3c-5.5 0-6.2.4-6.7 1.7-.6 1.5-1 5.6-1 8.4h-3.9v-14.8c4.1.3 7.5.4 12.2.4 4.3 0 10-.1 15-.4l1.1 1.6-20.4 34.6h4.3c7.4 0 9.9-.3 10.6-.8.8-.6 1.5-3.4 1.7-9.2h3.6v14.6c-4.5-.2-10.2-.3-15.1-.3-4.5 0-8.9.1-13.4.3l-.9-1.5 20.2-34.6zm14.7 1.5c-.6-1.5-.9-2.2-2.2-2.4l-1.7-.3v-3.4c3 .2 5.7.3 8.6.3 2.8 0 5.8-.1 9.1-.3v3.4l-4.7.7c-1.6.2-1.9.5-1.9 1.3 0 .6.2 1.2.5 2.2l2.4 6.8c1.5 4.2 4.2 12.5 6.1 18.3h.3l6.8-17.3c2.4-6.1 3.3-9 3.3-9.8 0-.8-.3-1-1.9-1.4l-3.5-.7v-3.4c2.8.2 5.2.3 7.9.3 2.6 0 5-.1 7.6-.3v3.4l-3.7.6c-2.1 5.4-4.5 11.1-6.8 16.4-2.6 6.1-10.2 25.7-12.1 30.8-1.3 3.2-3.2 7.8-4 9.2-.7 1.4-1.7 1.8-3 1.8-1.7 0-3.6-1.1-5.6-3.3 4-3.9 8.2-10.6 11.3-17.7l-12.8-35.2zm52 18.1c0-14 7.5-25 17.1-25 2.3 0 5 .6 8.3 2.1v-2.2c0-7.9-.6-15.8-1.8-23.5 2.8-.6 5-1.6 7.5-2.8l1.2.9v46c0 10.6.4 13.3.9 15.6l7.3.6.1 2-13.3 3.9c-.8-1.5-1.4-3.3-1.6-5.1h-.3c-5.7 3.8-10.1 5-14.3 5-7.1-.1-11.1-6.5-11.1-17.5zm23.1 8.8c2-2.2 2.2-4.6 2.2-8.4v-17c-3.2-1.8-5.6-2.6-8.7-2.6-5.9 0-9.5 5.4-9.5 15.9 0 10.3 2.8 15.3 8.5 15.3 2.8 0 5.6-1 7.5-3.2zm37-33.8c10.7 0 16.8 6.4 16.8 19.5 0 13.3-5.7 22.9-18.9 22.9-10.7 0-16.9-6.9-16.9-19.7 0-13.9 7.2-22.7 19-22.7zm9.7 21.4c0-10-4-16.8-10.6-16.8-7.2 0-11 6.1-11 16.2 0 10.4 4 16.9 11.1 16.9 8.7 0 10.5-8.2 10.5-16.3zm11.8 16c1.5-3.2 5.4-7.6 8.3-9.8-3.8-1.4-7.9-4.6-7.9-12 0-9.1 6.8-15.5 15.6-15.5 3 0 5.4.7 7 1.7l9.1-5.9c1.1 1.3 2.3 4 2.6 6.1l-8 2.5c1.8 2 2.9 4.5 2.9 8.4 0 10.1-8.4 15.5-17.1 15.5-2.8 2.2-4.3 4.4-4.3 5.7 0 1 .8 1.2 4.4 1.2 12.5 0 22.7.6 22.7 9.3 0 8.5-10.2 18.3-23.7 18.3-8.8 0-12.8-4.8-12.8-10.4 0-2.6 3.1-7.4 7.8-11.3l-.1-.4c-1.3 0-4-.4-5.3-.9l-1.2-2.5zm13.8 20.4c8.4 0 14.5-5.6 14.5-11.1 0-5.4-6.7-5.6-13.8-5.6-3.8 0-9 5-9 10.2.1 3.6 2.4 6.5 8.3 6.5zm8.8-43.2c0-6.1-3.3-9.8-8.1-9.8-4.9 0-7.5 3.3-7.5 8.8 0 6.1 3.3 9.9 8.1 9.9 4.9 0 7.5-3.6 7.5-8.9z" class="st0"/><path d="M12.9 849.5c4.4.2 16.5.4 20.7.4 4 0 16-.2 20.8-.4l-2.7 16.6h-2.3c-.6-9.3-.7-10.6-1.7-11.3-1.2-.7-3.9-1.2-9.6-1.2h-1.7L32 896.7c-.4 3.2-.5 4.9-.5 5.8 0 .8.2 1 2 1.2l6.7.6-.3 3.4c-4.8-.3-8.6-.5-12.3-.5-4 0-7.6.2-11.3.5l.7-3.4 5.4-.6c1.4-.2 1.7-.4 2-.6.5-.5.6-2.1 1.1-6.3l4.5-43.1h-1.7c-6.6 0-9.4.6-10.2 1.3-1.1.7-1.6 2.3-3.8 11.2h-2.2l.8-16.7zm48 43h.6c7.3-16.8 15.1-26.4 20.1-26.4 2.2 0 3 1.3 3 3.9 0 1.2-.2 3.5-.3 4.8l-2.4 24.4c-.2 1.4-.3 2.8-.3 3.3 0 .7.1 1 1.6 1.3l5 .9-.2 2.5c-4 0-8.2.4-11.8 1l-1-1.4 3.1-30.3c.1-.8.1-1.6.1-2 0-.6-.2-.9-.6-.9-2.2 0-7.1 7.8-9.7 12.9-2.8 5.3-5.5 11.7-7.7 18-.9 2.7-1.1 3-2.1 3h-3.5l-.6-.8 4-38.7c.8-8.5 1.6-17.2 1.5-26l6.4-1.9 1.1.9-6.3 51.5zm54.9.1c-6.5 10.5-12.7 15.9-18.3 15.9-3.9 0-5.6-2.9-5.6-10.1 0-8 3.9-32.3 13.5-32.3 5.3 0 12.5 2.2 12.5 5.9 0 4.5-7.4 10.9-19.9 17.1-.3 2.1-.4 4.4-.3 6.2.1 4.5 1 6.4 2.8 6.4 2.8 0 6.5-3 12.4-11l2.9 1.9zm-4.2-18.7c0-1.5-2.8-2.6-5.8-2.6-4.4 0-6.7 9.5-7.3 13.2 9.3-5 13.1-8.5 13.1-10.6zm47.6 43.7c-.2 1.4-.2 2.4-.2 3.3 0 .7.1.9.7.9.5 0 1.3-.1 1.7-.2.6-.1 2.4-.3 3.4-.3l-.5 4c-5.4.4-13.3 1.7-19.4 4.2l.4-4.2c1.7-.7 3.6-1.3 4.8-1.7 2.6-.8 2.6-1.2 3.1-5.2l4.6-37h-.4c-7.1 15.7-15.4 27-20.6 27-2.4 0-3.6-2.5-3.6-7.1 0-4.9 1.2-14.1 4.3-22 2.8-7.4 6.1-13.3 10.6-13.3 3.2 0 7.3 1.1 10.6 2.2.8-2.5 1.1-3.2 2.3-3.2.6 0 2.2.4 3.4.8l-5.2 51.8zm-9.8-46.5c-3 0-5.7 4.3-7.5 10.7-1.6 5.2-2.3 11.6-2.3 16.2 0 2.3.2 2.8 1 2.8.6 0 1.1-.4 2.8-2.5 5.6-7 10.3-16 14.4-25.9-2.2-.6-5.6-1.3-8.4-1.3zm46.3 10.1h-.4c-6.8 15.5-15.2 27.3-20.3 27.3-2.3 0-3.2-1.7-3.2-4.5 0-1.5.3-3.1.5-4.2l4-27.7-6.1-1.5.1-1.9 11.1-2.6 1.4.8-4.5 30.9c-.1.9-.2 1.5-.2 2 0 .6 0 1 .6 1 .9 0 2-1.6 3.9-4.4 6.1-8.6 11.5-20.5 13.9-27.9.5-1.6.9-2.5 2-2.5s2.6.4 4 1l-3.4 32.1c-.1 1.4-.3 2.8-.3 3.3 0 .7.2 1 1.7 1.3l5 .9-.2 2.5c-4.1 0-8.2.4-11.9 1l-1.1-1.4 3.4-25.5z" class="st1"/><path d="M221.6 867.1c-.6 3-1.2 7.5-1.6 11.4l-1.9 18.4c-.3 2.8-.5 4.7-.5 5.7 0 .6.4 1 2 1.2l3.7.6-.3 3.1c-3.3-.2-6.4-.3-9-.3-2.5 0-5.8.1-9.2.3l.5-3.1 3.7-.6c1.3-.2 1.7-.3 2.1-.6.4-.4.6-1.1 1.1-6.2l2.6-25-6.1-1.4.2-1.9 11.5-2.6 1.2 1zm2.2-21.1l-3.8 13.1-2.9.7-1.3-13.2 7.1-1.7.9 1.1zm26.1 46.3c-5.7 10.3-11.9 16.2-17.1 16.2-3.5 0-4.7-2.8-4.7-10.3 0-13.8 5.1-32.1 12.4-32.1 2 0 6.3.8 9.6 1.9 1 .5 1.9.9 1.9 1.8 0 1-.6 2.8-1.7 4.4-3.5-1.2-7-2.2-9.4-2.2-5.3 0-7.3 14-7.3 22.1 0 5.1 1.1 7.5 2.5 7.5 2 0 4.9-2.8 10.4-11.1l3.4 1.8zm11.8-6.1h.7c4.5-8.6 12.4-20.1 19.3-20.1 2.1 0 3.4 1.3 3.4 4.7 0 7.3-2.8 15.8-8.4 24.7 2.8 3.4 6.2 8.5 8.4 12.4l-3 2.2c-4.6-5.7-9.9-11.5-15.3-16.4 1-1.5 2.4-3 3.6-4 1.1.9 1.6 1.2 2.1 1.2 3.6 0 6.4-11.3 6.4-15.5 0-1.6-.5-2.2-1.2-2.2-2.2 0-5.2 3.8-7.7 7.2-4.5 6.3-8 13.2-9.8 24-.6 3.1-.8 3.4-2.1 3.4h-3.2l-.6-.8 4-38.7c.8-8.5 1.6-17.2 1.5-26l6.5-1.9 1 .9-5.6 44.9zm50.2-.3h.4c5.8-11.9 12.9-19.8 18.4-19.8 2.6 0 3.9 2.2 3.9 7.4 0 8.2-2.7 20.2-6.1 27.2-3.2 6.8-6.1 7.8-8.8 7.8-2.6 0-5.4-.8-9.9-2.3-.1 1.3-.6 1.7-1.8 1.7h-2.8l-.6-.8 4-39c.8-8.5 1.5-17.1 1.5-26l6.5-1.9.8.7-5.5 45zm6.4 17.4c2 0 3.5-.3 5.3-3.7 2.3-4.1 4.8-14.9 4.8-21.8 0-3.5-.7-4.5-1.8-4.5-4.2 0-11.8 12.9-16.6 27.9 3 1.2 6.4 2.1 8.3 2.1zm30.1-18.4h.7c2.8-7.1 6.2-13.6 9.2-17.2 1-1.1 2.1-1.7 3.1-1.7 1.1 0 2.9.4 4.6 1 1.2.5 1.7.9 1.7 1.8 0 1.3-.8 3.2-1.9 5-1.3-.6-2.8-1.1-3.8-1.1-1.9 0-4.6 2.8-7.5 7.8-3.9 6.7-7.2 16.4-7.2 21.5 0 .9.3 1.2 2.3 1.5l6.7.9-.4 3.1c-3.2-.2-7.8-.3-10.8-.3s-7.3 0-10.6.3l.4-3.1 4.5-.7c1.3-.3 1.7-.7 1.9-2.6l3-29.2-6.1-1.4.2-1.9 11.1-2.6 1.4 1-2.5 17.9zm36.8 15.2c-4.2 5-9.1 8.4-12.6 8.4-3.9 0-5.8-3.7-5.8-13.1 0-7.9 2.2-19.8 6.2-26.4 1.3-2 2.6-2.8 5.1-2.8 3.8 0 8.9.8 12.1 1.8 3.7 1.1 4.3 2.7 4.3 5.9.1 9-3.3 19-9.3 26.2zm2.4-26.9c-1.6-1.2-6.3-1.7-8.4-1.7-1.9 0-2.9.6-3.7 2.7-1.7 5.2-2.8 11.9-2.8 18.4s1.4 9.5 2.9 9.5c1.4 0 2.8-.7 4.9-3.2 4.4-5 8.2-14.9 8.2-22.8 0-1.5-.3-2.4-1.1-2.9zm9.1-4.6l11-2.6 1.4.8L406 891c-.3 2.3-.6 5.4-.6 7.5h.6c1.9-4 6.3-10.6 9.2-14.7 4.9-7.2 7.1-11.4 8.5-16.8 1-.2 2.5-.6 3.3-1.1l1.3.6c.1 1.1.2 3.3.2 4.7 0 2.4-.1 6.5-.2 8.4-.2 3.2-.4 6.6-.4 10 0 4.7.4 8.2 1.1 10.7 5-4.9 11.6-14.3 11.6-21.9 0-3.3-.6-6.6-2-11.3 1.7-.8 3.5-1.1 4.6-1.1.7 0 1.2.2 1.5.8 1.1 2.5 1.7 6.9 1.7 10.3 0 2.8-.8 6.1-2.8 9.7-3.9 7.1-8.9 14.2-13.3 19.5l-5.6 2.2c-1.7-4.8-2.6-10.2-2.6-16.8 0-4.1.2-9 .6-12.8-2.6 4.3-5.9 8.7-8.5 12.8-2.5 3.9-6 9.7-8.1 14.4l-6.3 2.3c-.2-1.2-.4-2.3-.4-3.8 0-3.2.2-5.3.6-8.8l2.6-24.1-6-1.3.1-1.8zm61.6 23.9h.6c7.3-16.8 15-26.4 20-26.4 2.3 0 3.1 1.3 3.1 3.9 0 1.2-.3 3.5-.4 4.8l-2.4 24.4c-.1 1.4-.3 2.8-.3 3.3 0 .7.2 1 1.6 1.3l5.1.9-.2 2.5c-4.1 0-8.2.4-11.9 1l-1-1.4 3.2-30.3c.1-.8.1-1.6.1-2 0-.6-.3-.9-.7-.9-2.2 0-7 7.8-9.6 12.9-2.8 5.3-5.6 11.7-7.7 18-1 2.7-1.1 3-2.1 3h-3.5l-.6-.8 3.6-34.8-6.1-1.4.2-1.9 11.2-2.6 1.3.8-3.5 25.7zm66.1-21.1l-10.2-.4-2.1 26.1c-1 12.4-2 17.2-4.6 21.5-2.6 4.6-8.8 11.5-15.5 11.5-3.9 0-6.1-.9-6.1-2.5 0-1 .7-2.8 1.7-4.6 2.7.8 4.3 1.3 6.1 1.3 2.8 0 4.8-.7 6.2-2.7 3.9-4.9 5.1-13.1 6-23l2.4-27.7-5.8-.3.4-3.6 5.7-.2c.9-8.4 2-13.9 5.1-19.5 2.6-4.3 5.5-6.9 8.4-6.9 1.7 0 4.6.5 6.6 1.2 1 .4 1.6.9 1.6 1.7 0 1.2-.6 3-1.5 4.7-2.8-1-5.8-1.7-7.6-1.7-1.7 0-3 .9-3.8 2.7-1.7 4.2-2.6 12.9-2.9 17.3l10.2-.4-.3 5.5zm16.7 28.7c-4.2 5-9.1 8.4-12.6 8.4-3.9 0-5.8-3.7-5.8-13.1 0-7.9 2.2-19.8 6.2-26.4 1.3-2 2.6-2.8 5.1-2.8 3.8 0 8.9.8 12.1 1.8 3.7 1.1 4.3 2.7 4.3 5.9.2 9-3.3 19-9.3 26.2zm2.4-26.9c-1.6-1.2-6.3-1.7-8.4-1.7-1.9 0-2.9.6-3.7 2.7-1.7 5.2-2.8 11.9-2.8 18.4s1.4 9.5 2.9 9.5c1.4 0 2.8-.7 4.9-3.2 4.4-5 8.2-14.9 8.2-22.8 0-1.5-.3-2.4-1.1-2.9zm23.9 8.5l2.1-2.6c2.8-3.7 6.5-9.4 8.5-13.3 1.8.8 4 2.6 5.2 3.9-3.1 3.2-8.2 9.3-11.4 13.5l-2.5 3.2 2 4.6c1.1 2.5 3.9 8 5.3 10.3l7.1-.3.6 2.5c-4.5 1.2-8.5 3-11.7 5l-7.4-17.4-3.5 4.7c-2.6 3.6-5 7.2-6.7 11.4l-5.5 1.2-1.6-1.8 15.2-20.1-1.9-4.3c-1.9-4.5-4.7-9.8-6.7-13.1l.6-1.7 5.4-1.1 6.9 15.4zm44.2-14.8c-.8 3.8-1.1 7.7-1.5 11.6l-.9 10.8c-.7 9.3-1.9 19.9-5.9 27.8-3.8 7.5-9.9 11.6-13.8 11.6-2 0-5.6-1.1-8.2-2.5l.6-2.7c1.7.1 3.4.1 4.7.1 5.5 0 8.8-1.5 11.4-6.6 2.8-5.5 4.6-18.8 5.4-29.3l1.2-15.8-6-1.4.2-1.9 11.5-2.6 1.3.9zM613 846l-3.6 13.1-3 .7-1.4-13.2 7.1-1.7.9 1.1zm29.3 35.2h-.3c-6.8 15.5-15.2 27.3-20.3 27.3-2.3 0-3.2-1.7-3.2-4.5 0-1.5.3-3.1.5-4.2l4-27.7-6.1-1.5.1-1.9 11.1-2.6 1.4.8-4.5 30.9c-.1.9-.2 1.5-.2 2 0 .6 0 1 .6 1 .9 0 2-1.6 3.9-4.4 6.1-8.6 11.5-20.5 13.9-27.9.5-1.6.9-2.5 2-2.5s2.6.4 4 1l-3.4 32.1c-.1 1.4-.3 2.8-.3 3.3 0 .7.2 1 1.7 1.3l5 .9-.2 2.5c-4.1 0-8.2.4-11.9 1l-1.1-1.4 3.3-25.5zm22.6 10.2h.6c6.8-15.5 13.9-25.3 18.8-25.3 2 0 3 1.3 3 3.7 0 1.2-.1 2.8-.3 4.1l-2.5 17.5h.6c6.7-15.8 13.8-25.3 18.4-25.3 2.2 0 3.1 1.3 3.1 3.8 0 1.1-.1 2.5-.3 4l-2.7 25.3c-.2 1.4-.3 2.8-.3 3.3 0 .7.2 1 1.7 1.3l5 .9-.2 2.5c-4 0-8 .4-11.7 1l-1.1-1.4 3.2-30.3c.1-.9.1-1.5.1-2 0-.6-.1-.9-.5-.9-2.2 0-6.5 8.4-8.7 13-2.8 5.6-5.7 12.1-7.8 18.4-.8 2.4-.7 2.5-1.8 2.5h-3.1l-.6-.8 3.2-30.2c.1-.9.2-1.6.2-2 0-.7-.3-.9-.6-.9-2.3 0-6.4 7.8-9 12.9-2.7 5.5-5.4 11.8-7.3 17.4-1 3.2-1.3 3.6-2.2 3.6h-3.5l-.6-.8 3.6-34.8-6.1-1.4.2-1.9 11-2.6 1.3.8-3.1 24.6zm61.6-31.3l-1 8c3.3-1.5 6.3-2 9.1-2 6.1 0 9.4 3.2 9.4 9.5 0 12.7-8.9 28.2-22.6 32.7l-1 9.8c-.2 1-.3 2.3-.3 3.1 0 .7.3.9.9.9.5 0 1.6-.1 2.8-.3 1.2-.2 3.4-.4 4.6-.4l-.5 4.2c-6.1.1-13.2 1.5-19.5 3.9l.4-4.1c.9-.4 1.9-.6 2.8-1 2.2-.8 2.4-1.2 2.8-5l4.5-43.1c-1.2.7-3.5 2.3-4.5 3.2l-2-2.6c1.8-1.9 5-4.4 7.1-5.6.3-3.4.3-8 .2-10.4l5.1-1.8 1.7 1zm-4.6 43.1c9.4-3.9 16-15.1 16-24.4 0-5-2-7.5-6.1-7.5-2.4 0-4.6.6-6.7 1.8l-3.2 30.1zm35.8-31.9c-2.8 0-4.5 1.8-4.5 4.3 0 2.4 2.2 5.1 5.3 8.6 3.6 3.9 6.6 7.6 6.6 11.7 0 5.2-6.1 12.6-11.9 12.6-2.5 0-9.1-2.6-9.1-5 0-1.1 1-2.7 2.8-4.2 2.9 2.3 5.1 3.5 7.2 3.5 3 0 5.2-1.8 5.2-5 0-3-3-7.1-5.9-10.2-3-3.7-5.9-7-5.9-10.5 0-4.7 6.1-11.1 11.2-11.1 4.2 0 7.9 1.5 7.9 3.3 0 .8-.5 2.1-1.8 4.3-2.7-1.4-5-2.3-7.1-2.3zm44.4 28.8c-4.2 5-9.1 8.4-12.6 8.4-3.9 0-5.8-3.7-5.8-13.1 0-7.9 2.2-19.8 6.2-26.4 1.3-2 2.6-2.8 5.1-2.8 3.8 0 8.9.8 12.1 1.8 3.7 1.1 4.3 2.7 4.3 5.9.2 9-3.3 19-9.3 26.2zm2.4-26.9c-1.6-1.2-6.3-1.7-8.4-1.7-1.9 0-2.9.6-3.7 2.7-1.7 5.2-2.8 11.9-2.8 18.4s1.4 9.5 2.9 9.5c1.4 0 2.8-.7 4.9-3.2 4.4-5 8.2-14.9 8.2-22.8 0-1.5-.3-2.4-1.1-2.9zm8.2-4.6l9-2.7 1.3.9c1.4 6.9 1.8 12.9 1.8 21.6 0 4.5-.2 9.1-.5 11.7 8.3-8.3 12.2-15.6 12.2-22.4 0-3.8-.8-7.4-1.9-10.6 1.8-.8 3.7-1.1 4.9-1.1.7 0 1.2.4 1.7 1.8.7 2.3 1.3 5.2 1.3 9.1 0 9.3-11.4 22.8-17.3 29l-5.9 2.5-1.2-1.5c.6-6.1.8-12.4.8-18.5 0-7-.5-12.6-1.1-16.5l-5.1-1.3v-2zm56.6 24c-6.5 10.5-12.7 15.9-18.3 15.9-3.9 0-5.6-2.9-5.6-10.1 0-8 3.9-32.3 13.5-32.3 5.3 0 12.5 2.2 12.5 5.9 0 4.5-7.4 10.9-19.9 17.1-.3 2.1-.4 4.4-.3 6.2.1 4.5 1 6.4 2.8 6.4 2.8 0 6.5-3 12.4-11l2.9 1.9zm-4.2-18.7c0-1.5-2.8-2.6-5.8-2.6-4.4 0-6.7 9.5-7.3 13.2 9.2-5 13.1-8.5 13.1-10.6zm18.4 11h.7c2.8-7.1 6.2-13.6 9.2-17.2 1-1.1 2.1-1.7 3.1-1.7 1.1 0 2.9.4 4.6 1 1.2.5 1.7.9 1.7 1.8 0 1.3-.8 3.2-1.9 5-1.3-.6-2.8-1.1-3.8-1.1-1.9 0-4.6 2.8-7.5 7.8-3.9 6.7-7.2 16.4-7.2 21.5 0 .9.3 1.2 2.3 1.5l6.7.9-.4 3.1c-3.2-.2-7.8-.3-10.8-.3s-7.2 0-10.6.3l.4-3.1 4.5-.7c1.3-.3 1.7-.7 1.9-2.6l3-29.2-6.1-1.4.2-1.9 11.1-2.6 1.4 1-2.5 17.9zm52.7-13.7l-9.5-.3-2.1 20.1c-.3 2.9-.4 4.7-.4 6.6 0 5.7 3.6 5.8 9.9 5.8l.5 2.2c-5 1.7-8.1 2.7-10.2 2.7-3.9 0-6.3-3.5-6.3-9 0-1.6.1-3.2.3-4.7l2.5-24-4.3-.3.4-3.4 4.4-.2 1.1-9.9c2-.3 3.5-.6 5.3-1.5l1.2 1c-.7 3-1.4 6.9-1.7 10l9.6-.4-.7 5.3zm8.1 21.3h.6c7.3-16.8 15.1-26.4 20.1-26.4 2.2 0 3 1.3 3 3.9 0 1.2-.2 3.5-.3 4.8l-2.4 24.4c-.2 1.4-.3 2.8-.3 3.3 0 .7.1 1 1.6 1.3l5 .9-.2 2.5c-4 0-8.2.4-11.8 1l-1-1.4 3.1-30.3c.1-.8.1-1.6.1-2 0-.6-.2-.9-.6-.9-2.2 0-7.1 7.8-9.7 12.9-2.8 5.3-5.5 11.7-7.7 18-.9 2.7-1.1 3-2.1 3h-3.5l-.6-.8 4-38.7c.8-8.5 1.6-17.2 1.5-26l6.4-1.9 1.1.9-6.3 51.5zm54.9.1c-6.5 10.5-12.7 15.9-18.3 15.9-3.9 0-5.6-2.9-5.6-10.1 0-8 3.9-32.3 13.5-32.3 5.3 0 12.5 2.2 12.5 5.9 0 4.5-7.4 10.9-19.9 17.1-.3 2.1-.4 4.4-.3 6.2.1 4.5 1 6.4 2.8 6.4 2.8 0 6.5-3 12.4-11l2.9 1.9zm-4.2-18.7c0-1.5-2.8-2.6-5.8-2.6-4.4 0-6.7 9.5-7.3 13.2 9.3-5 13.1-8.5 13.1-10.6zm30.7 23c-.3 2.8-.5 4.7-.5 5.7 0 .7.4 1 2 1.2l3.7.6-.2 3.1c-3.4-.2-6.5-.3-9-.3-2.6 0-5.8.1-9.1.3l.4-3.1 3.8-.6c1.3-.2 1.7-.3 2-.6.4-.4.6-1.1 1.1-6.2l3-28.9c.8-8.5 1.5-17.3 1.5-26l6.2-1.9 1 .8-5.9 55.9zm33.7-15.4h-.4c-7.1 15.7-15.4 27-20.6 27-2.4 0-3.6-2.5-3.6-7.1 0-4.9 1.2-14.1 4.3-22 2.8-7.4 6.1-13.3 10.6-13.3 3.2 0 7.3 1.1 10.6 2.2.8-2.5 1.1-3.2 2.3-3.2.6 0 2.2.4 3.4.8l-3.5 33.3c-.1 1.4-.3 2.8-.3 3.3 0 .7.3 1 1.7 1.3l5 .9-.1 2.5c-4.1 0-8.2.4-11.9 1l-1.1-1.4 3.6-25.3zm-8.5-10.4c-3 0-5.7 4.3-7.5 10.7-1.6 5.2-2.3 11.6-2.3 16.2 0 2.3.2 2.8 1 2.8.6 0 1.1-.4 2.8-2.5 5.6-7 10.3-16 14.4-25.9-2.2-.6-5.6-1.3-8.4-1.3z" class="st1"/><path d="M1072.4 870.7l.5-4.8c7.4.8 13.3 1.2 18.4 1.2 3.8 0 4.7-.2 6.9-1.2l1.6 1.7-19.9 29.7 17.3 14-2.2 2.8c-3.2-2.3-16-10.5-18.4-10.5-1.1 0-2.1 1.2-3.2 2.8-.6.8-1 1-1.6 1s-2.2-1.1-3-2.1c7.7-11.2 15.5-23.5 20.9-34h-16.5l-.8-.6z" class="st1"/><path d="M1128.4 901.2c-.9 8.9-2 13-4.9 17.5-2.9 5.2-9.5 11.5-16 11.5-3.1 0-11.5-2-11.5-4.8 0-1.5 1-3.3 1.9-4.4 3.7 2 7.7 3.3 11.7 3.3 2.4 0 4.4-.8 6.3-2.9 5-5.7 6-12.9 7.3-24.8.6-7.3 1.4-11.7 2.1-15.4h-.4c-6.7 15.5-15.2 27.3-20.3 27.3-2.3 0-3.2-1.7-3.2-4.5 0-1.5.2-3.1.4-4.2l4.1-27.7-6.1-1.5.1-1.9 11.1-2.6 1.3.9-4.4 30.8c-.1.8-.2 1.4-.2 1.9 0 .6.1 1 .6 1 .9 0 2-1.5 3.9-4.3 6.1-8.6 11.5-20.5 13.9-27.9.5-1.6.9-2.5 2-2.5s2.3.3 3.8 1l-3.5 34.2zm43.3 5.6l3.6-25.3h-.4c-7.1 15.7-15.4 27-20.6 27-2.4 0-3.6-2.5-3.6-7.1 0-4.9 1.2-14.1 4.3-22 2.8-7.4 6.1-13.3 10.6-13.3 3.2 0 6.8 1.1 10.2 2.2l.4-3.2c1-7.7 1.2-15.3 1.2-23l6.3-1.9.9.7-6.2 58.4c-.1 1.4-.3 2.8-.3 3.3 0 .7.3 1 1.7 1.3l5 .9-.1 2.5c-4.1 0-8.2.4-11.9 1l-1.1-1.5zm-5-35.7c-3 0-5.7 4.3-7.5 10.7-1.6 5.2-2.3 11.6-2.3 16.2 0 2.3.2 2.8 1 2.8.6 0 1.1-.4 2.8-2.5 5.6-7 10.3-16 14.4-25.9-2.2-.6-5.6-1.3-8.4-1.3zm40.4 29c-4.2 5-9.1 8.4-12.6 8.4-3.9 0-5.8-3.7-5.8-13.1 0-7.9 2.2-19.8 6.2-26.4 1.3-2 2.6-2.8 5.1-2.8 3.8 0 8.9.8 12.1 1.8 3.7 1.1 4.3 2.7 4.3 5.9.2 9-3.3 19-9.3 26.2zm2.4-26.9c-1.6-1.2-6.3-1.7-8.4-1.7-1.9 0-2.9.6-3.7 2.7-1.7 5.2-2.8 11.9-2.8 18.4s1.4 9.5 2.9 9.5c1.4 0 2.8-.7 4.9-3.2 4.4-5 8.2-14.9 8.2-22.8 0-1.5-.3-2.4-1.1-2.9zm8.6 28.9l6.4-6c-2-2.8-3-7.4-3-11.8 0-11 2.9-18.3 7.9-18.3 2.5 0 5.1 1.1 8.6 3.5l4.9-8c1.7.9 3.7 2.7 4.8 4l-6.5 6.1c2.4 1.8 5.5 4.9 5.5 7.5 0 7.7-15.7 17.3-22 20.4 6.3.9 14 2.9 17.5 4.5 2.8 1.3 4.4 2.8 4.4 4.9 0 4.3-3.9 9.6-11.1 14.2-7.1 4.4-12.8 5.8-15.9 5.8-1.3 0-2.4-.5-3.1-1.4-1.8-2.3-2.8-6.7-2.8-10.6 0-3.7 2.2-4 5.2-4 0 5 .6 10.5 4.3 10.5 1.9 0 5-.8 8.9-3 5.3-3.1 8.1-6.2 8.1-9.1 0-1.2-.9-1.9-2.5-2.8-3.1-1.6-11.8-3.8-18.7-4.5l-.9-1.9zm12-10.9c1 0 3.1-1.5 6-4.2 2.8-2.6 4-4.7 4-6.4 0-1.5-.9-3.4-4.7-6.3-2.8-2.4-5-3.2-6.1-3.2-1.7 0-2.5 3-2.5 8.4 0 6.9 1.4 11.7 3.3 11.7z" class="st1"/><path d="M30.5 406.2c-8.1 0-14.1-2.5-18.3-6.6l4.6-5.1c3.5 3.2 7.8 5.2 13.7 5.2 5.6 0 10.3-2.7 10.3-8 0-4.4-2.2-6.5-10.2-8.9-10.6-3.1-16.1-7.1-16.1-14.8 0-8.1 7.3-13.5 17.1-13.5 7.1 0 12.4 2.2 16.6 6l-4.4 5c-3.5-3-7.6-4.4-11.7-4.4-5.1 0-9 2.1-9 6.4 0 3.9 2.7 5.7 11.6 8.3 8.4 2.5 14.8 6 14.8 15.4 0 8.9-7 15-19 15zm45.8-11.3c0 3.5 2.4 4.8 5.8 4.8 2.2 0 4.1-.5 6-1.3l2 5.6c-2.2 1.2-5.5 2.2-9.8 2.2-7.6 0-12.1-4.5-12.1-12v-36.3H56.8V352h19.5v42.9zm58.5 5.8l-1.9 5.5c-3.7-.4-6.5-1.9-7.8-5.3-2.8 3.5-7.3 5.3-12.1 5.3-7.8 0-12.5-4.8-12.5-11.8 0-7.9 6.5-12.5 18.1-12.5h5.4v-2.4c0-5-3.1-6.9-8.4-6.9-2.5 0-6.3.6-10.1 1.9l-2-5.7c4.8-1.8 9.4-2.6 13.3-2.6 10.2 0 15.2 4.8 15.2 12.7v17c-.1 3 .8 4.2 2.8 4.8zm-10.9-5.3V387h-4.5c-7.6 0-10.5 2.7-10.5 7.1 0 4 2.2 6.2 6.4 6.2 3.3 0 6.7-1.8 8.6-4.9zm22.1-28.2h7l.6 5c3.2-3.9 7.7-6 12.3-6 7.1 0 10.6 4.2 10.6 11.3v27.7h-8.1v-23.6c0-6.6-.8-9.1-5.4-9.1-3.7 0-6.9 2.7-8.9 5.5v27.3H146v-38.1zm63.9 39c-8.9 0-13.5-5-13.5-12.5v-20.6H188v-5.9h8.4v-8.5l8.1-.9v9.4h12.9l-.9 5.9h-12v20.5c0 4.1 1.9 6 6.6 6 2.7 0 5.1-.7 7.1-1.8l2.9 5.3c-2.9 2-7 3.1-11.2 3.1zm39.6-6.3c3.7 0 6.8-1.2 10-3.3l3.5 4.9c-3.5 2.9-8.5 4.7-13.8 4.7-11.9 0-18.4-8.1-18.4-19.9 0-11.4 6.6-20 17.4-20 10.1 0 16.4 7.2 16.4 19 0 1.3-.1 2.7-.2 3.6h-25.2c.4 7.7 4.8 11 10.3 11zM239 383.4h17.6c-.1-7.2-3.1-11.2-8.5-11.2-5 0-8.6 3.5-9.1 11.2zm67-31.4v53.3h-7.1l-.6-4.7c-2.5 3.6-6.2 5.6-10.7 5.6-9.8 0-14.3-8-14.3-19.9 0-11.6 5.7-20 15-20 4 0 7.1 1.4 9.6 4.2v-19.4l8.1.9zm-24.1 34.3c0 9.7 2.9 13.8 7.9 13.8 3.6 0 6.3-2.4 8.1-5.5v-17.9c-1.9-2.7-4.4-4.2-7.5-4.2-5.4-.1-8.5 4.3-8.5 13.8zm94.2 19.9c-8.1 0-14.1-2.5-18.3-6.6l4.6-5.1c3.5 3.2 7.8 5.2 13.7 5.2 5.6 0 10.3-2.7 10.3-8 0-4.4-2.2-6.5-10.2-8.9-10.6-3.1-16.1-7.1-16.1-14.8 0-8.1 7.3-13.5 17.1-13.5 7.1 0 12.4 2.2 16.6 6l-4.4 5c-3.5-3-7.6-4.4-11.7-4.4-5.1 0-9 2.1-9 6.4 0 3.9 2.7 5.7 11.6 8.3 8.4 2.5 14.8 6 14.8 15.4 0 8.9-7 15-19 15zm61.1-5.5l-1.9 5.5c-3.7-.4-6.5-1.9-7.8-5.3-2.8 3.5-7.3 5.3-12.1 5.3-7.8 0-12.5-4.8-12.5-11.8 0-7.9 6.5-12.5 18.1-12.5h5.4v-2.4c0-5-3.1-6.9-8.4-6.9-2.5 0-6.3.6-10.1 1.9l-2-5.7c4.8-1.8 9.4-2.6 13.3-2.6 10.2 0 15.2 4.8 15.2 12.7v17c-.1 3 .8 4.2 2.8 4.8zm-10.9-5.3V387h-4.5c-7.6 0-10.5 2.7-10.5 7.1 0 4 2.2 6.2 6.4 6.2 3.3 0 6.7-1.8 8.6-4.9zm22.1-28.2h7l.6 5c3.2-3.9 7.7-6 12.3-6 7.1 0 10.6 4.2 10.6 11.3v27.7h-8.1v-23.6c0-6.6-.8-9.1-5.4-9.1-3.7 0-6.9 2.7-8.9 5.5v27.3h-8.1v-38.1zm65.2 27.8c0-3.1-1.2-4.5-9.1-6.6-7.6-1.9-12.5-4.6-12.5-11.2s5.8-10.9 15.2-10.9c6.4 0 11 1.9 14.5 4.4l-3.5 5.1c-3-1.9-6.3-3.4-10.8-3.4-5.2 0-7.2 1.7-7.2 4.2 0 2.9 2.1 4 9.6 6 7.4 2 12.3 4.6 12.3 11.8 0 8.3-8.1 11.8-16.8 11.8-7.1 0-12.1-2.3-15.6-5.3l4.2-4.9c3 2.4 6.9 4.1 11.4 4.1 5.2 0 8.3-2 8.3-5.1zm78.5 11.2c-8.1 0-14.1-2.5-18.3-6.6l4.6-5.1c3.5 3.2 7.8 5.2 13.7 5.2 5.6 0 10.3-2.7 10.3-8 0-4.4-2.2-6.5-10.2-8.9-10.6-3.1-16.1-7.1-16.1-14.8 0-8.1 7.3-13.5 17.1-13.5 7.1 0 12.4 2.2 16.6 6l-4.4 5c-3.5-3-7.6-4.4-11.7-4.4-5.1 0-9 2.1-9 6.4 0 3.9 2.7 5.7 11.6 8.3 8.4 2.5 14.8 6 14.8 15.4 0 8.9-7 15-19 15zm46.2-6.3c3.7 0 6.8-1.2 10-3.3l3.5 4.9c-3.5 2.9-8.5 4.7-13.8 4.7-11.9 0-18.4-8.1-18.4-19.9 0-11.4 6.6-20 17.4-20 10.1 0 16.4 7.2 16.4 19 0 1.3-.1 2.7-.2 3.6H628c.4 7.7 4.8 11 10.3 11zm-10.5-16.5h17.6c-.1-7.2-3.1-11.2-8.5-11.2-5 0-8.6 3.5-9.1 11.2zm69.3-16.2l-1.4 14H690v-7.8c-5.4.1-9.3 4.5-11.5 11.9v14.1h7.6v5.8h-21.3v-5.8h5.6v-26.5h-5.6v-5.8h11.7l1.4 8.8c2.9-6.3 6.8-9.7 13.4-9.7 2.3.1 4.1.5 5.8 1zm31.2 32.2h10.4v5.9H709v-5.9h11.3v-26.2h-10.9v-5.9h19l-.1 32.1zm-.3-45.7c0 2.9-2.2 5-5.3 5-3.2 0-5.3-2.2-5.3-5 0-2.9 2.1-5.1 5.3-5.1s5.3 2.2 5.3 5.1zm57.3-.4l-2.4 5.6c-2.5-1.1-5.3-1.6-8.1-1.6-5 0-7.3 1.9-7.3 5.9v6.8h12.7l-.9 6h-11.8v29.3h-8.1V376h-8.6v-6h8.6v-6.8c0-7.2 5.8-12.1 14.6-12.1 4.6-.1 8.1.8 11.3 2.2zM46.6 1002.8H35.8v36.9h10.8v6.4h-30v-6.4h10.8v-36.9H16.6v-6.3h30v6.3zm33.7 44.3c-8.9 0-13.5-5-13.5-12.5V1014h-8.4v-5.9h8.4v-8.5l8.1-.9v9.4h12.9l-.9 5.9h-12v20.5c0 4.1 1.9 6 6.6 6 2.7 0 5.1-.7 7.1-1.8l2.9 5.3c-2.9 2-7 3.1-11.2 3.1zm54.5-5.4l-1.9 5.5c-3.7-.4-6.5-1.9-7.8-5.3-2.8 3.5-7.3 5.3-12.1 5.3-7.8 0-12.5-4.8-12.5-11.8 0-7.9 6.5-12.5 18.1-12.5h5.4v-2.4c0-5-3.1-6.9-8.4-6.9-2.5 0-6.3.6-10.1 1.9l-2-5.7c4.8-1.8 9.4-2.6 13.3-2.6 10.2 0 15.2 4.8 15.2 12.7v17c-.1 3 .8 4.1 2.8 4.8zm-10.9-5.4v-8.4h-4.5c-7.6 0-10.5 2.7-10.5 7.1 0 4 2.2 6.2 6.4 6.2 3.3 0 6.7-1.8 8.6-4.9zm38.8-.5c0 3.5 2.4 4.8 5.8 4.8 2.2 0 4.1-.5 6-1.3l2 5.6c-2.2 1.2-5.5 2.2-9.8 2.2-7.6 0-12.1-4.5-12.1-12v-36.3h-11.4v-5.9h19.5v42.9zm47.2 4.5h10.4v5.9h-29.7v-5.9h11.3v-26.2H191v-5.9h19v32.1h-.1zm-.2-45.7c0 2.9-2.2 5-5.3 5-3.2 0-5.3-2.2-5.3-5 0-2.9 2.1-5.1 5.3-5.1 3.1 0 5.3 2.3 5.3 5.1zm50.4 42.7l3.7 5.2c-3.3 2.8-8.3 4.7-13.3 4.7-11.7 0-18.5-7.8-18.5-19.7 0-11.6 6.9-20.2 18.6-20.2 5.2 0 9.5 1.6 13.2 4.6l-3.7 5c-3-2-6-3.2-9.3-3.2-6 0-10.2 4.2-10.2 13.8s4.3 13.1 10.2 13.1c3.5-.1 6.5-1.5 9.3-3.3zm80.7-1.4c0-3.1-1.2-4.5-9.1-6.6-7.6-1.9-12.5-4.6-12.5-11.2s5.8-10.9 15.2-10.9c6.4 0 11 1.9 14.5 4.4l-3.5 5.1c-3-1.9-6.3-3.4-10.8-3.4-5.2 0-7.2 1.7-7.2 4.2 0 2.9 2.1 4 9.6 6 7.4 2 12.3 4.6 12.3 11.8 0 8.3-8.1 11.8-16.8 11.8-7.1 0-12.1-2.3-15.6-5.3l4.2-4.9c3 2.4 6.9 4.1 11.4 4.1 5.2 0 8.3-1.9 8.3-5.1zm38.3 5c3.7 0 6.8-1.2 10-3.3l3.5 4.9c-3.5 2.9-8.5 4.7-13.8 4.7-11.9 0-18.4-8.1-18.4-19.9 0-11.4 6.6-20 17.4-20 10.1 0 16.4 7.2 16.4 19 0 1.3-.1 2.7-.2 3.6h-25.2c.4 7.7 4.8 11 10.3 11zm-10.5-16.6h17.6c-.1-7.2-3.1-11.2-8.5-11.2-5 0-8.6 3.6-9.1 11.2zm69.3-16.1l-1.4 14h-5.8v-7.8c-5.4.1-9.3 4.5-11.5 11.9v14.1h7.6v5.8h-21.3v-5.8h5.6v-26.5h-5.6v-5.8h11.7l1.4 8.8c2.9-6.3 6.8-9.7 13.4-9.7 2.4 0 4.2.4 5.9 1zm31.2 32.1h10.4v5.9h-29.7v-5.9h11.3v-26.2h-10.9v-5.9h19l-.1 32.1zm-.2-45.7c0 2.9-2.2 5-5.3 5-3.2 0-5.3-2.2-5.3-5 0-2.9 2.1-5.1 5.3-5.1 3.1 0 5.3 2.3 5.3 5.1zm57.2-.4l-2.4 5.6c-2.5-1.1-5.3-1.6-8.1-1.6-5 0-7.3 1.9-7.3 5.9v6.8H521l-.9 6h-11.8v29.3h-8.1v-29.3h-8.6v-6h8.6v-6.8c0-7.2 5.8-12.1 14.6-12.1 4.6 0 8.1.8 11.3 2.2z" class="st2"/></svg>