<svg xmlns="http://www.w3.org/2000/svg" id="b98bf8eb-a9eb-4207-a311-89e5a8e0b35d" viewBox="0 0 1107 1407" width="1107" height="1407"><defs><style>.aaf9aa04-65b7-4de9-bdd7-a92626ba4042{fill:#505050}.ad3fe97c-71ea-4674-a9a5-c1f0d749179c{fill:#b3b3b3}.a6a6c9d8-ef5c-40d0-9371-a275ccc8998e,.f23befd9-e76a-43fc-8e2d-ea8e90300156{fill:none;stroke-miterlimit:10}.f23befd9-e76a-43fc-8e2d-ea8e90300156{stroke:#2997ff;stroke-width:3px}.bfcc73c4-cd68-4faf-acdd-7401a971b841{fill:#fff}.a6a6c9d8-ef5c-40d0-9371-a275ccc8998e{stroke:#b3b3b3;stroke-width:6px}</style></defs><path d="M30 205.16l-18.5-50.27H17l9.35 25.73c2.71 7.51 5.61 15.47 6.7 19.87h.14c1.07-3.91 4.25-12.26 7-19.6l9.71-26h5.35l-19.19 50.27zm50-7.35a47.23 47.23 0 0 0 .51 7.35H75.9a22.54 22.54 0 0 1-.62-5.2C74 202.52 71 206 63.71 206c-8.47 0-12.1-5.49-12.1-11 0-8 6.25-11.68 17.07-11.68h6.56V180c0-3.43-1-7.85-8.64-7.85-6.74 0-7.8 3.46-8.53 6.36h-4.73c.45-4.44 3.2-10.42 13.39-10.41 8.53 0 13.29 3.55 13.29 11.64zm-4.71-10.76h-6.52c-7.67 0-12.15 2-12.15 7.77 0 4.2 3 7.15 7.74 7.15 9.62 0 11-6.43 11-13.68zm13.25-8.28c0-5.62-.06-8.34-.07-9.85h4.72c.09 1.1.17 3.65.17 7.79a13.31 13.31 0 0 1 12.43-8.65v5c-7.49.38-12.43 5-12.43 13.85v18.28h-4.82zm20.88-26.59h4.82v7.39h-4.82zm0 16.74h4.82v36.24h-4.82zm38.64 28.89a47.23 47.23 0 0 0 .51 7.35h-4.63a22.54 22.54 0 0 1-.62-5.2c-1.25 2.56-4.3 6.06-11.57 6.06-8.46 0-12.1-5.49-12.1-11 0-8 6.25-11.68 17.07-11.68h6.57V180c0-3.43-1.06-7.85-8.65-7.85-6.74 0-7.8 3.46-8.53 6.36h-4.73c.45-4.44 3.2-10.42 13.39-10.41 8.53 0 13.29 3.55 13.29 11.64zm-4.71-10.76h-6.54c-7.67 0-12.15 2-12.15 7.77 0 4.2 3 7.15 7.75 7.15 9.61 0 10.94-6.43 10.94-13.68zm13.23-34.87h4.82v22.41c1.7-3.38 5.14-6.53 12-6.53 8.8 0 14.85 7.24 14.85 18.21 0 11.25-5.6 19.75-15.79 19.75-6 0-9.23-2.31-11.09-6.16 0 2.11-.1 4.3-.19 5.3h-4.68c.07-4.1.07-8.2.07-12.29zm26.65 34.19c0-8.5-4.07-14-10.68-14-8.44 0-11.41 5.71-11.41 14.8 0 8.1 2.63 14.63 11 14.63 6.94-.04 11.09-5.8 11.09-15.43zm10.71 18.79v-53h4.83v53zm15.47-17.37c.06 8.45 4.31 14 10.9 14 6.32 0 8.43-3.43 9.66-6.26h4.89c-1.48 4.72-5.34 10.5-14.72 10.5-11.18 0-15.63-9.39-15.63-18.65 0-10.55 5.27-19.31 16.05-19.31 11.4 0 15.08 9.52 15.08 16.75 0 1.05 0 2-.08 3zm21.29-3.74c-.08-6.62-3.57-11.88-10.26-11.88-7 0-10.09 4.86-10.82 11.88z" class="aaf9aa04-65b7-4de9-bdd7-a92626ba4042"/><path d="M35.71 99.16h-8.17L25.1 75.35l-2.69 23.81H14.1l-3.6-33.27h7.35L19 92.44l2.74-22.71h6.81l2.55 22.71 1.63-26.55h6.86zm17.9-4.71a12.11 12.11 0 0 0 6.53-2.11l3 4.13A15.41 15.41 0 0 1 53 100c-8.73 0-13.25-5.61-13.25-13.53 0-7.54 4.42-13.64 12.44-13.64 7.29 0 12 4.9 12 13.11a26.22 26.22 0 0 1-.19 2.7H47.46c.54 4.18 2.88 5.81 6.15 5.81zM47.37 84h9.36c0-3.7-1.35-6.15-4.56-6.15-2.69.04-4.47 1.96-4.8 6.15zm35.95 10h6.53v5.19H68.53V94h7.21V78.85h-7v-5.18h14.58zm-.1-29.38a4.49 4.49 0 0 1-9 0 4.28 4.28 0 0 1 4.51-4.27 4.24 4.24 0 0 1 4.49 4.24zM119 75.15a19.93 19.93 0 0 1-7.34 1c3.21 1.39 4.94 3.27 4.94 6.58 0 4.94-4.22 8.54-10.8 8.54a14.51 14.51 0 0 1-3-.28 1.63 1.63 0 0 0-.81 1.44c0 .76.33 1.53 2.78 1.53H109c5.9 0 9.69 3.12 9.69 7.39 0 5.24-4.6 8.45-13.63 8.45-9.79 0-12.34-3.16-12.34-8.21h6.72c0 2.21 1 3.22 5.81 3.22s5.91-1.25 5.91-2.93c0-1.49-1.15-2.54-3.7-2.54h-4c-5.57 0-7.87-2.35-7.87-5a5.76 5.76 0 0 1 2.83-4.85c-3.22-1.73-4.51-4-4.51-7.3 0-5.76 4.7-9.31 11.37-9.31a20.24 20.24 0 0 0 12-3.26zm-17.42 6.92c0 2.78 1.53 4.37 3.88 4.37 2.5 0 3.89-1.54 3.89-4.47s-1.34-4.18-3.89-4.18c-2.37 0-3.85 1.64-3.85 4.28zm27.53-5.86a10 10 0 0 1 7.49-3.41c4.51 0 7 2.79 7 7.63v18.73H136V82.55c0-3.08-.57-4.13-2.45-4.13-1.63 0-3 1.2-4.46 3.12v17.62h-7.58V63.54l7.58-.77zM163 100c-6.67 0-9.84-3.65-9.84-9.5V78.9h-5.33v-5.23h5.33v-5.52l7.58-.92v6.44H169l-.77 5.23h-7.44v11.57c0 2.54 1.11 3.5 3.65 3.5a9 9 0 0 0 4.46-1.15l2.5 4.85A15.45 15.45 0 0 1 163 100zm249.71-.84h-8.17l-2.44-23.81-2.69 23.81h-8.31l-3.6-33.27h7.35L396 92.44l2.74-22.71h6.81l2.55 22.71 1.63-26.55h6.86zM433.44 94H440v5.19h-21.35V94h7.21V78.85h-7v-5.18h14.55zm-.1-29.38a4.49 4.49 0 0 1-9 0 4.28 4.28 0 0 1 4.51-4.27 4.24 4.24 0 0 1 4.49 4.24zm33.51-1.08v35.62h-6.72l-.39-2.79a8.33 8.33 0 0 1-7.05 3.6c-6.34 0-9.36-5.42-9.36-13.63 0-7.87 3.88-13.54 10.17-13.54a7.79 7.79 0 0 1 5.76 2.4V62.72zm-15.7 22.85c0 6.29 1.63 8 3.94 8 1.73 0 3.07-1.1 4.17-2.92v-11a4.57 4.57 0 0 0-3.74-2.11c-2.64.01-4.37 2.31-4.37 8.03zM486.24 100c-6.67 0-9.84-3.65-9.84-9.5V78.9h-5.33v-5.23h5.33v-5.52l7.58-.92v6.44h8.21l-.77 5.23H484v11.57c0 2.54 1.11 3.5 3.65 3.5a9.06 9.06 0 0 0 4.47-1.15l2.49 4.85a15.43 15.43 0 0 1-8.37 2.33zm19.87-23.79a10 10 0 0 1 7.49-3.41c4.51 0 7 2.79 7 7.63v18.73H513V82.55c0-3.08-.57-4.13-2.45-4.13-1.63 0-3 1.2-4.46 3.12v17.62h-7.58V63.54l7.58-.77z" class="ad3fe97c-71ea-4674-a9a5-c1f0d749179c"/><path d="M409.62 222.16l-22.85-51.29h6.31l12.4 28.19c4.56 10.38 6.35 14.93 7.34 17.69h.18c.8-2.36 3.57-8.75 6.62-15.91l13.35-30h6.17l-23.21 51.29zm60.2-8.62c0 3.18.22 7.76.35 8.62H465a42.41 42.41 0 0 1-.43-5.66c-1.89 3.95-6 6.66-13.9 6.66-10.33 0-14-6.25-14-11.57 0-9.2 8.45-11.76 18.69-11.76h9.2v-2.15c0-4.26-1.83-8.36-10.25-8.36-7.52 0-9.31 3.41-10.11 7.1h-5.44c.47-4.9 3.71-11.49 15.58-11.49 12.42 0 15.55 6.15 15.55 12.11zm-5.33-9.54h-9c-9 0-13.42 1.93-13.42 7.35 0 4 2.89 7.34 9.44 7.34 10.6 0 13-6.43 13-12.81zm16.51-8.22c0-3.26 0-6.58-.07-9.85h5.27c.1 1 .24 4.76.24 8.42 2.44-5.78 7.92-9.45 14.86-9.41v5.36c-8.36-.08-14.86 5.42-14.86 16.19v15.67H481zm26.23-27.91h5.44v7.9h-5.44zm0 18.06h5.44v36.23h-5.44zM554 213.54c0 3.18.21 7.76.34 8.62h-5.2a40.8 40.8 0 0 1-.43-5.66c-1.9 3.95-6 6.66-13.91 6.66-10.33 0-14-6.25-14-11.57 0-9.2 8.45-11.76 18.69-11.76h9.19v-2.15c0-4.26-1.83-8.36-10.24-8.36-7.52 0-9.32 3.41-10.11 7.1h-5.44c.47-4.9 3.71-11.49 15.57-11.49 12.43 0 15.56 6.15 15.56 12.11zm-5.35-9.54h-9c-9 0-13.41 1.93-13.41 7.35 0 4 2.89 7.34 9.44 7.34 10.59 0 13-6.43 13-12.81zm16.16-36.13h5.44V192c1.82-3 5.85-7.09 13.86-7.09 10.2 0 17.37 8 17.37 18.51 0 12-7.36 19.72-17.69 19.72-8 0-11.71-3.59-13.62-7.07-.06 2-.07 4.67-.2 6.07h-5.23c.07-4.4.07-8.41.07-12.57zm31.05 35.72c0-6.49-3.74-13.88-12.76-13.88-8.84 0-13.1 6.29-13.1 14.29 0 9 5.22 14.37 13.17 14.37 9.13-.02 12.69-7.23 12.69-14.78zm13.66 18.57v-54.29H615v54.29zm18.83-16.89c.41 7.71 5.54 13.3 13.44 13.3 6.05 0 9.5-2.6 11.63-6.5h5.44c-1.88 5.09-6.9 11.09-17.5 11.09-12.43 0-18.5-9.37-18.5-19 0-11.15 7.41-19.24 18.31-19.24 13.65 0 18.24 10.17 18.24 18.83v1.51zm25.3-4.2c-.34-4.75-2.86-11.64-12.54-11.64-7.84 0-11.9 5-12.61 11.64zM405 331.91l-18.5-50.27h5.5l9.35 25.73c2.71 7.51 5.61 15.47 6.7 19.87h.14c1.07-3.91 4.25-12.26 7-19.6l9.71-26h5.35l-19.17 50.27zm51.46-7.35a47.23 47.23 0 0 0 .51 7.35h-4.63a22.54 22.54 0 0 1-.62-5.2c-1.25 2.56-4.3 6.06-11.57 6.06-8.47 0-12.1-5.49-12.1-11 0-8 6.25-11.69 17.07-11.69h6.56v-3.41c0-3.43-1.05-7.85-8.64-7.85-6.74 0-7.8 3.46-8.53 6.36h-4.73c.45-4.44 3.2-10.42 13.39-10.41 8.53 0 13.29 3.55 13.29 11.64zm-4.71-10.76h-6.54c-7.67 0-12.15 2.05-12.15 7.77 0 4.2 2.95 7.15 7.74 7.15 9.62 0 10.95-6.43 10.95-13.68zm14.67-8.28c0-5.62-.06-8.34-.07-9.85h4.72c.09 1.1.17 3.65.17 7.79a13.31 13.31 0 0 1 12.43-8.65v5c-7.49.38-12.43 5-12.43 13.85v18.28h-4.82zm22.32-26.59h4.82v7.39h-4.82zm0 16.74h4.82v36.24h-4.82zm40.08 28.89a47.23 47.23 0 0 0 .51 7.35h-4.63a22.54 22.54 0 0 1-.62-5.2c-1.25 2.56-4.3 6.06-11.57 6.06-8.47 0-12.1-5.49-12.1-11 0-8 6.25-11.69 17.07-11.69H524v-3.41c0-3.43-1-7.85-8.64-7.85-6.74 0-7.8 3.46-8.53 6.36h-4.73c.45-4.44 3.2-10.42 13.39-10.41 8.53 0 13.29 3.55 13.29 11.64zm-4.71-10.76h-6.54c-7.67 0-12.15 2.05-12.15 7.77 0 4.2 2.95 7.15 7.75 7.15 9.61 0 10.94-6.43 10.94-13.68zm14.67-34.87h4.82v22.41c1.69-3.38 5.14-6.53 12-6.53 8.8 0 14.85 7.24 14.85 18.21 0 11.25-5.6 19.75-15.79 19.75-6 0-9.23-2.31-11.09-6.16 0 2.11-.1 4.3-.19 5.3h-4.68c.07-4.1.07-8.2.07-12.29zm26.65 34.19c0-8.5-4.07-14-10.68-14-8.44 0-11.41 5.71-11.41 14.8 0 8.1 2.63 14.63 11 14.63 6.93-.04 11.09-5.85 11.09-15.43zm12.15 18.79v-53h4.83v53zm16.91-17.37c.06 8.45 4.31 14 10.9 14 6.32 0 8.43-3.43 9.66-6.26h4.89c-1.48 4.72-5.34 10.5-14.72 10.5-11.18 0-15.63-9.39-15.63-18.65 0-10.55 5.27-19.31 16-19.31 11.4 0 15.08 9.52 15.08 16.75 0 1.05 0 2-.08 3zm21.29-3.74c-.07-6.62-3.57-11.88-10.26-11.88-7 0-10.09 4.86-10.82 11.88zm-214.7 130.86l-14.64-49.47h4.79l7.15 24.74c2 7 4.46 15.67 5.4 20.17h.14c.84-3.93 3.69-13 5.85-20.19l7.4-24.72h4.67l-15.32 49.47zm43.79-6.78a55.47 55.47 0 0 0 .44 6.78h-4a30.54 30.54 0 0 1-.45-5.33c-1.33 3.6-4.69 6-10.13 6-8 0-10.48-5.79-10.48-10.7 0-5.62 3.63-11.41 15.2-11.41 2.26 0 3.7 0 5.17.06v-4.43c0-3.39-.83-7.4-7-7.4-5.83 0-7.15 3.34-7.64 6.93h-4.26c.4-5.72 3.46-10.59 12.06-10.59 7 0 11.15 3.21 11.15 10.58zm-4.16-11.1c-1.23-.06-3-.09-5.21-.09-8.5 0-10.83 3.69-10.83 7.69s2.23 7.11 6.82 7.11c6.78 0 9.22-4.63 9.22-13.29zm12.85-6.02c0-5.71 0-10.33-.11-12.34h4.24c.09 1.45.13 3.52.13 7.25a11.5 11.5 0 0 1 10.94-7.87v4.66c-7.49.4-10.87 5.65-10.87 12.81v19.39h-4.33zM473 405.42h4.33v36.24H473zm0-15.72h4.32v7.3H473zm35.23 45.18a55.47 55.47 0 0 0 .44 6.78h-4a30.74 30.74 0 0 1-.44-5.33c-1.33 3.6-4.69 6-10.13 6-8 0-10.49-5.79-10.49-10.7 0-5.62 3.64-11.41 15.21-11.41 2.26 0 3.7 0 5.17.06v-4.43c0-3.39-.84-7.4-7-7.4-5.83 0-7.15 3.34-7.64 6.93H485c.4-5.72 3.46-10.59 12.06-10.59 7 0 11.15 3.21 11.15 10.58zm-4.16-11.1c-1.23-.06-3-.09-5.21-.09-8.5 0-10.83 3.69-10.83 7.69s2.23 7.11 6.81 7.11c6.79 0 9.23-4.63 9.23-13.29zm12.84-34.08h4.33v21.09c1.37-3.06 4.48-6 10.15-6 7.77 0 12.41 6.3 12.41 17.77 0 10.92-3.83 19.75-13.41 19.75-5.2 0-7.94-2.41-9.22-5.43a47.17 47.17 0 0 1-.22 4.81h-4.15c.07-1.82.11-5.17.11-9.92zm22.4 33c0-9-3-13.95-8.78-13.95-7 0-9.52 5.3-9.52 14.55 0 9.09 1.82 15.07 9.13 15.07 6.19-.03 9.17-5.93 9.17-15.7zm10.87 18.96v-52h4.33v52zm15.21-17.47c0 8.2 2.62 14.34 9.13 14.34 6.34 0 7.79-5.27 8.29-6.86h4.3c-.58 2.58-2.88 10.67-12.76 10.67-10.81 0-13.38-9.5-13.38-18.86 0-10 4.07-18.72 13.7-18.72 10.21 0 12.91 8.44 12.91 16.84 0 .26 0 2.09-.05 2.59zm17.84-3.52c-.11-7.08-2.4-12.13-8.67-12.13-7.61 0-8.79 8.42-9 12.13zM397.89 551.41l-11.56-48.86h4.33l5.46 24c1.59 7 3.6 16 4.21 20.53h.13c.6-4 3.05-13.52 4.73-20.52l5.71-24h4.18l-12.17 48.86zm37.29-5.79c0 2.48.18 4.85.26 5.79h-3.66a23.66 23.66 0 0 1-.36-4.23c-1.29 3.18-4.09 4.86-8.31 4.86-6.69 0-9.07-5.25-9.07-10.32v-.1c0-6.52 4.27-11.4 13.43-11.4a34.24 34.24 0 0 1 3.8.12V525c0-3.17-.65-6.94-5.74-6.94-5.62 0-6 4.1-6.21 6.66v.18h-3.89v-.17c.12-5.1 2.52-10.12 10.22-10.12 6.63 0 9.53 3.46 9.53 9.83zm-3.81-11.91a27 27 0 0 0-3.67-.18c-6.74 0-9.66 3.23-9.66 7.85v.09c0 3.77 1.88 7 5.92 7 5.45 0 7.41-3.87 7.41-12zm11.22-6.17c0-5.71 0-9.73-.07-12.37h3.84c.07 1.07.15 2.81.15 6.49a9.83 9.83 0 0 1 9.3-7v4.4c-6.12.29-9.25 4.88-9.25 11.37v21h-4zm16.56-12.37h4v36.24h-4zm0-14.92h4v7.19h-4zm30.24 45.37c0 2.48.19 4.85.27 5.79H486a24.74 24.74 0 0 1-.35-4.23c-1.29 3.18-4.09 4.86-8.32 4.86-6.69 0-9.07-5.25-9.07-10.32v-.1c0-6.52 4.28-11.4 13.43-11.4a34.53 34.53 0 0 1 3.81.12V525c0-3.17-.65-6.94-5.74-6.94-5.62 0-6 4.1-6.21 6.66v.18h-3.9v-.17c.12-5.1 2.52-10.12 10.22-10.12 6.63 0 9.53 3.46 9.53 9.83zm-3.81-11.91a27 27 0 0 0-3.67-.18c-6.73 0-9.66 3.23-9.66 7.85v.09c0 3.77 1.89 7 5.93 7 5.44 0 7.4-3.87 7.4-12zm11.28-33.46h4v19.94c1.08-2.86 3.56-5.6 8.53-5.6 6.51 0 10.1 5.32 10.1 16.72v2.15c0 10.48-2.86 18.52-11 18.52-4.41 0-6.64-2.23-7.72-5 0 1.36-.07 2.92-.2 4.42h-3.7c.07-1.75.07-5.1.07-9.85zm18.51 33.36v-2.15c0-9.12-2.37-13.24-6.88-13.24-6 0-7.82 5.64-7.82 14.42v1.5c0 8.45 1.52 14.21 7.29 14.21 4.87 0 7.41-4.71 7.41-14.74zm9.63 17.8v-51.16h4v51.16zm13.54-17.61v.91c0 7.49 1.36 13.81 7.24 13.81s6.72-5.63 6.9-7.12h4c-.07 1.38-1.16 10.66-10.88 10.66s-11.22-9-11.22-17.71v-2.1c0-10.66 3.54-17.65 11.52-17.65 8.77 0 10.84 7.45 10.84 15.91 0 .67 0 2.15-.07 3.3zm14.36-3.33v-.73c0-6.7-1.48-11.64-6.91-11.64-6.87 0-7.28 9-7.38 11.65v.72zM397.85 661.16l-8.36-48.1h3.82L397 636c1.1 6.89 2.76 16.08 3.19 20.68h.08c.38-4.54 2.11-13.75 3.19-20.48l3.85-23.14H411l-8.56 48.1zM427 655.7c0 2.61.06 4.61.15 5.46h-3.35a21.35 21.35 0 0 1-.32-3.15c-1.12 3-3.54 3.72-5.89 3.72-5.09 0-7.09-4.36-7.09-10v-.64c0-7.68 4.43-10.95 10.83-10.95h2.1v-6.52c0-3.6-.71-6-4-6s-4.26 2.49-4.26 5.74v1.23h-3.51v-1.21c0-4.92 2-9 7.88-9s7.48 4 7.48 9zm-3.49-12.58h-2.17c-4.68 0-7.33 2.06-7.33 7.79v.64c0 3.72 1.06 6.89 4.31 6.89 4 0 5.19-3.38 5.19-9.18zm9.24-5.83c0-5.72 0-9.5-.07-12.37h3.4c.07 1.13.15 2.74.15 5.52a7.81 7.81 0 0 1 7.39-6v4.37c-4.72.06-7.34 3.73-7.34 9.66v22.66h-3.53zm13.32-12.37h3.53v36.24h-3.53zm0-14h3.53V618h-3.53zm23.85 44.78c0 2.61.06 4.61.15 5.46h-3.36a21.35 21.35 0 0 1-.32-3.15c-1.12 3-3.54 3.72-5.89 3.72-5.08 0-7.09-4.36-7.09-10v-.64c0-7.68 4.43-10.95 10.83-10.95h2.1v-6.52c0-3.6-.71-6-4-6s-4.26 2.49-4.26 5.74v1.23h-3.51v-1.21c0-4.92 2-9 7.88-9s7.48 4 7.48 9zm-3.49-12.58h-2.17c-4.68 0-7.33 2.06-7.33 7.79v.64c0 3.72 1.06 6.89 4.31 6.89 4 0 5.19-3.38 5.19-9.18zm9.23-32.21h3.53v17.53c.87-2.25 2.77-4.09 6.5-4.09 5.08 0 7.2 4.12 7.2 10.18v15c0 6.79-1.62 12.08-7.95 12.08-3.31 0-5.2-1.68-6-4.12a28.54 28.54 0 0 1-.17 3.67h-3.17c.08-1.76.07-5 .07-9.76zm13.64 39.17V635c0-4.71-1.28-7.36-4.6-7.36-5 0-5.57 5-5.57 10.63v10.5c0 6.52 1.54 9.47 5.36 9.47 3.17.04 4.81-2.55 4.81-8.16zm8.25 11.08v-50.25h3.53v50.25zm11.64-17.7v6.35c0 4.18.77 8.78 4.93 8.78 3.84 0 4.67-3 4.67-7v-.39h3.5v.33c0 4.48-1.1 10.23-8.25 10.23-6.38 0-8.35-4.43-8.35-11.8v-14.69c0-5.87 2.18-10.92 8.52-10.92s8.16 5.15 8.16 11v8.14zm9.71-3.06v-5.11c0-3.4-.38-7.8-4.75-7.8-4.21 0-4.95 3.66-4.95 7.86v5z" class="aaf9aa04-65b7-4de9-bdd7-a92626ba4042"/><path d="M776.38 100c-6.29 0-10.37-2.06-13.16-4.8l4-4.41a13.14 13.14 0 0 0 9 3.36c3.32 0 5.53-1.49 5.53-4.08 0-2.4-1.4-3.56-6-5-7.87-2.38-10.75-5.31-10.75-10.35 0-6.14 5.62-9.69 12.53-9.69 5.09 0 9 1.58 11.9 4.32l-3.69 4.27a11.93 11.93 0 0 0-7.63-2.79c-3 0-4.95 1.11-4.95 3.27s1.49 3 6.77 4.61c6.34 1.92 10 4.6 10 10.7S784.87 100 776.38 100zm29.8-8.86c0 2.06 1.25 2.83 3.27 2.83a9.58 9.58 0 0 0 3.65-.77l1.77 5.09a15.22 15.22 0 0 1-7.34 1.68c-6.15 0-8.93-3.79-8.93-9.79V68.72h-7.49v-5.18h15.07zm36.72 3.74l-1.58 5c-3-.29-5-1.25-6.24-3.36a10.84 10.84 0 0 1-8.35 3.45c-5.28 0-8.64-3.31-8.64-8 0-5.52 4.56-8.69 12.43-8.69h3.41v-.92c0-2.68-1.78-3.93-5-3.93a25 25 0 0 0-7 1.34l-1.73-5a30.2 30.2 0 0 1 9.94-1.92c7.58 0 11.13 3.17 11.13 9v10c-.05 1.88.44 2.6 1.63 3.03zm-9-3.12v-4.17h-1.87c-4.23 0-6.15 1.34-6.15 3.84 0 2 1.25 3.12 3.41 3.12a5.52 5.52 0 0 0 4.64-2.79zm12.75-18.09h6.62l.53 2.92a9.93 9.93 0 0 1 7.92-3.79c4.37 0 7 2.79 7 7.63v18.73h-7.59V82.64c0-3.17-.57-4.22-2.44-4.22-1.64 0-3 1.1-4.47 2.93v17.81h-7.58zM888.12 100c-6.67 0-9.84-3.65-9.84-9.5V78.9H873v-5.23h5.33v-5.52l7.58-.92v6.44h8.21l-.77 5.23h-7.44v11.57c0 2.54 1.11 3.5 3.65 3.5a9 9 0 0 0 4.44-1.15l2.5 4.85a15.43 15.43 0 0 1-8.38 2.33z" class="ad3fe97c-71ea-4674-a9a5-c1f0d749179c"/><path d="M783 222.16l-19.9-51.29h6.08l10.82 28.2c4 10.38 5.5 14.94 6.34 17.66h.14c.91-2.36 4-8.68 7.37-15.83l14.85-30h6.15l-25.69 51.29zm61-9.22c-.3 3.82-.33 8.15-.29 9.22h-5.18a39.13 39.13 0 0 1 0-5.73c-2.06 4-6.17 6.73-14.13 6.73-10.09 0-13.65-6.1-13.65-11.28 0-9.71 9.63-11.89 18.85-12 4.38-.07 8.08-.07 9.75-.07l.06-1.94c.24-4.33-1.43-8.53-9.94-8.53-7.37 0-9.52 3.12-10.44 7h-5.4c.66-5.07 4.12-11.35 16-11.35 12.34 0 15.49 6.21 15.09 12.54zm-4.89-9.07c-2.08 0-4.7 0-9.5.09-8.49.15-13.46 2-13.46 7.59 0 3.93 2.91 7.08 9.14 7.08 10.36 0 13.23-6.09 13.76-13.08zm16.66-7.87c.18-3.34.39-6.8.48-10.06h5.18c.05 1 0 4.85-.23 8.47a15.76 15.76 0 0 1 14.9-9.4l-.31 5.37c-8.43 0-14.67 5.65-15.19 16.2l-.81 15.59h-5.37zm26.33-10.07h5.37l-1.92 36.23h-5.37zm.95-18.06h5.37l-.41 7.9h-5.38zm44.39 45.07c-.3 3.82-.33 8.15-.28 9.22H922a36.53 36.53 0 0 1-.05-5.73c-2.07 4-6.17 6.73-14.13 6.73-10.09 0-13.66-6.1-13.66-11.28 0-9.71 9.63-11.89 18.86-12 4.37-.07 8.08-.07 9.74-.07l.07-1.94c.24-4.33-1.44-8.53-9.94-8.53-7.37 0-9.52 3.12-10.44 7H897c.66-5.07 4.12-11.35 16-11.35 12.35 0 15.5 6.21 15.1 12.54zm-4.88-9.07c-2.08 0-4.71 0-9.5.09-8.49.15-13.46 2-13.46 7.59 0 3.93 2.9 7.08 9.14 7.08 10.36 0 13.22-6.09 13.75-13.08zm17.88-36h5.37l-1.31 24.23c2.08-3.22 6.1-7.17 14.06-7.17 9.5 0 16.61 7.22 16.61 17.74 0 12-7.32 20.49-18.52 20.49-7.91 0-11.64-3.63-13.44-7.24-.22 2.31-.35 4.89-.54 6.24h-5.17c.15-3.72.35-7.58.61-11.92zm29.15 35c0-6.37-3.55-13.23-12.13-13.23-8.77 0-13.39 6.29-13.8 14.28-.43 8.85 4.41 14.49 12.58 14.49 9.34.02 13.35-7.52 13.35-15.52zm12.69 19.29l2.87-54.29h5.37l-2.87 54.29zm19.64-16.91a4.1 4.1 0 0 0 0 .41c.31 7.77 5.25 13 12.85 13 6 0 9.41-2.44 11.71-6.49h5.44c-2.12 5.3-7.06 11-17.62 11-11.83 0-17.79-8.62-17.79-18.31 0-11.16 7.44-19.92 18.91-19.92 12.95 0 17.55 9.38 17.55 17.92a18.72 18.72 0 0 1-.15 2.4zm25.41-4.18v-.36c-.25-4.89-2.84-11.32-12.14-11.32-7.67 0-12 4.87-13 11.68zM777.34 331.91l-12.83-50.27h5.18l6.56 26.58c1.8 7 3.8 15.7 4.41 19h.14c1.45-3.88 5.37-12.14 8.86-19.48l12.47-26.09h5.25l-24.22 50.27zm52.98-8.19c-.28 3-.6 6.83-.61 8.19h-4.56a48.61 48.61 0 0 1 .23-5.67c-1.53 2.85-4.72 6.46-12.17 6.46-7.9 0-11-5.1-11-10 0-9.22 8.13-12.1 17-12.42 3.42-.17 6.28-.17 7.81-.21l.26-3.07c.38-3.58-.33-8.17-7.93-8.17-6.71 0-8.26 3.46-9.2 6.49h-4.69c.83-4.83 4.2-10.44 14.18-10.43 8.33 0 13.17 3.68 12.3 11.91zm-3.6-10c-1.54 0-4.35 0-7.22.19-6.86.28-12.33 2.06-12.33 8.36 0 3.59 2.48 6.36 7.05 6.36 9 0 11.51-6.45 12.42-14zM842 306c.37-4.59.73-7.87 1-10.29h4.55c0 1-.28 4.29-.64 7.93a14.13 14.13 0 0 1 12.71-8.72l-.54 4.91c-7.25.52-12.42 5.73-13.29 14.26L844 331.91h-4.7zm23.39-10.33h4.69l-3.84 36.24h-4.69zm1.77-16.74h4.68l-.76 7.39h-4.69zm35.37 44.79c-.28 3-.59 6.83-.61 8.19h-4.56a47 47 0 0 1 .24-5.67c-1.53 2.85-4.72 6.46-12.17 6.46-7.91 0-11-5.1-11-10 0-9.22 8.13-12.1 17-12.42 3.43-.17 6.28-.17 7.81-.21l.27-3.07c.37-3.58-.33-8.17-7.93-8.17-6.72 0-8.26 3.46-9.21 6.49h-4.67c.83-4.83 4.2-10.44 14.18-10.43 8.33 0 13.17 3.68 12.31 11.91zm-3.6-10c-1.54 0-4.35 0-7.21.19-6.87.28-12.34 2.06-12.34 8.36 0 3.59 2.49 6.36 7.06 6.36 9 0 11.51-6.45 12.42-14zm18.2-34.79h4.69l-2.41 22.57c2.06-3.5 5.8-6.62 12.15-6.62 8.08 0 13.28 6 13.28 15.77 0 11.34-5.81 22.05-17.38 22.05-5.8 0-9.13-2.54-10.7-6.2-.23 2.09-.58 4.45-.77 5.41h-4.57c.2-2.78.62-6.63 1.14-11.05zM940 310.88c0-7.32-3.38-11.77-9.44-11.77-8 0-11.9 6.46-12.68 14.78-.93 8.51 1.63 14.62 9.63 14.62S940 320 940 310.88zm10 21.03l5.61-53h4.69l-5.61 53zm18.49-17.54a14.84 14.84 0 0 0-.16 2c0 7.7 3.88 12.23 9.87 12.23s8.47-3.36 10-6.43h4.8c-2 5.21-6.09 10.56-15.21 10.56-10 0-14.23-7.68-14.23-16.43 0-10.5 5.48-21.39 17.37-21.39 10.38 0 13.75 7.9 13.75 14.66a21.57 21.57 0 0 1-.49 4.83zm21.36-3.76a7.9 7.9 0 0 0 .13-1.51c0-6.11-3.12-10.2-9.27-10.2-6.46 0-10.28 4.52-11.67 11.71zm-216.7 131.05l-7-49.47h4.48l3.33 24.73c1 7 2.09 15.84 2.37 20.24h.15c1.36-3.86 5.51-13 8.68-20.23l11-24.74h4.6l-22.33 49.47zm45.47-7.66c-.32 2.27-.86 6-1 7.67h-4a44.47 44.47 0 0 1 .48-5c-1.64 3.28-4.77 5.68-10.23 5.68-7.17 0-9.56-5.42-9.16-10.51.47-6.5 5.06-10.74 14.36-11.41 2.6-.25 4.63-.33 7.45-.38l.48-3.54c.64-4-.07-8.1-6.44-8.1-5.22 0-6.91 2.92-7.85 6.67h-4.2c1-5.61 4.31-10.22 12.44-10.22 7.06 0 11.42 3.42 10.14 11.63zm-2.54-10.56c-2.2 0-4.46.11-6.72.31-6.4.45-10 3.09-10.3 7.92-.24 3.62 1.46 6.95 6 6.95 6.79 0 9.59-5.28 10.68-12.94zm13.66-5.74c.84-5.71 1.37-9.89 1.66-12.28h4.06c-.05 1.12-.37 3.82-.85 7.13a13.1 13.1 0 0 1 11.86-7.7l-.71 4.61c-7.34.34-11.44 5.51-12.56 13l-2.82 19.22h-4.21zm21.17-12.28h4.21l-5.38 36.24h-4.21zm2.34-15.72h4.21l-1.08 7.3h-4.21zM881.4 434c-.32 2.27-.86 6-1 7.67h-4a41.88 41.88 0 0 1 .47-5c-1.63 3.28-4.76 5.68-10.22 5.68-7.17 0-9.56-5.42-9.17-10.51.47-6.5 5.07-10.74 14.37-11.41 2.6-.25 4.62-.33 7.44-.38l.48-3.54c.64-4-.07-8.1-6.44-8.1-5.22 0-6.91 2.92-7.85 6.67h-4.19c1-5.61 4.3-10.22 12.43-10.22 7.06 0 11.43 3.42 10.15 11.63zm-2.54-10.56c-2.2 0-4.46.11-6.72.31-6.39.45-10 3.09-10.3 7.92-.24 3.62 1.46 6.95 6 6.95 6.8 0 9.59-5.28 10.68-12.94zm17.73-33.79h4.19l-3.11 21.14a11.51 11.51 0 0 1 10.34-6c7 0 10.85 5.61 10 16.1s-5.13 21.36-15.47 21.36c-5.35 0-7.81-2.73-8.71-5.92-.22 1.55-.73 4-1 5.31h-4.03c.3-1.75.82-5.15 1.54-9.9zm17.14 31.47c.68-8.5-1.85-12.5-6.83-12.5-6.81 0-10.14 6.32-11.3 14.64-1.23 8.65-.17 15.25 7 15.25 6.91 0 10.48-8.35 11.13-17.39zm8.05 20.54l7.71-52h4.21l-7.71 52zm17.62-17.57a19.8 19.8 0 0 0-.45 4c0 6.24 2.18 10.51 7.62 10.51 5.87 0 7.72-4.53 8.69-6.62h4.2c-1.13 3.32-4.21 10.34-13.3 10.34-9.74 0-11.73-8.58-11.15-17 .8-10.69 5.76-20.54 15.67-20.54 8.8 0 11.57 6.87 10.85 14.95a30.5 30.5 0 0 1-.58 4.33zm17.81-3.44a14.24 14.24 0 0 0 .41-3.08c0-5.37-2-9.1-7.38-9.1-6.24 0-9.09 6.47-10.3 12.18zM769.58 551.41l-3.06-48.86h4l1.3 23.95c.39 6.94.84 16.38.79 20.55h.14c1.17-3.71 5.17-13.47 8-20.47l9.74-24h4.07l-20.17 48.86zm38.77-7.41c-.33 2.07-1 5.83-1.17 7.44h-3.69a34.85 34.85 0 0 1 .54-4.31c-1.71 3.4-4.59 4.94-8.58 4.94-6.53 0-8.45-5.56-7.44-11.17 1.2-6.73 5.85-9.58 12.75-10.49 2.06-.3 4.12-.42 6.22-.55l.75-4.62c.66-3.82 0-7.27-5.18-7.27-4.23 0-5.67 2.62-6.56 6.55v.11h-3.76v-.08c1-5.58 3.79-9.91 10.74-9.91 6.31 0 9.73 3.47 8.52 10.44zm-1.86-11c-1.78.12-3.6.22-5.39.47-5 .66-8.39 2.67-9.27 7.58-.62 3.65.45 7.51 4.74 7.51 5.17 0 7.93-4.07 9.33-12.3zm11.98-5.54c1-5.71 1.59-9.59 2-12.29h3.66c-.1 1-.27 2.85-.89 6.43 2.34-4.65 6.18-6.87 10.28-6.94l-.82 4.34c-6.15.21-9.82 4.93-10.93 11.51l-3.55 20.87h-3.85zm18.62-12.29h3.84l-6.15 36.24h-3.85zm2.57-14.92h3.84l-1.24 7.19h-3.85zM862.35 544c-.33 2.07-1 5.83-1.17 7.44h-3.69a34.85 34.85 0 0 1 .54-4.31c-1.71 3.4-4.59 4.94-8.58 4.94-6.53 0-8.45-5.56-7.45-11.17 1.21-6.73 5.86-9.58 12.76-10.49 2.06-.3 4.12-.42 6.22-.55l.75-4.62c.66-3.82 0-7.27-5.19-7.27-4.23 0-5.66 2.62-6.55 6.55v.11h-3.76v-.08c1-5.58 3.78-9.91 10.74-9.91 6.31 0 9.73 3.47 8.51 10.44zm-1.87-11c-1.77.12-3.59.22-5.38.47-5 .66-8.39 2.67-9.27 7.58-.62 3.65.45 7.51 4.74 7.51 5.17 0 7.93-4.07 9.33-12.3zm16.62-32.87h3.8l-3.31 19.59a9.68 9.68 0 0 1 8.56-5.13c6.77 0 9.44 5.92 7.49 17.59l-.34 2.05c-1.83 10.78-5.76 17.74-13 17.74-4.79 0-6.62-2.7-7.26-5.43-.3 1.65-.74 3.64-1 4.87h-3.67c.37-1.9.88-5.1 1.71-9.85zm12.38 33.93l.36-2.07c1.62-9.64 0-13.91-4.73-13.91-5.77 0-8.4 6-9.75 14.33l-.28 1.68c-1.58 9.21-.38 14.4 5.14 14.4 4.57 0 7.71-4.96 9.26-14.43zm6.9 17.35l8.72-51.16h3.84l-8.72 51.16zM913 533.6a39.71 39.71 0 0 0-.75 5.89c-.12 5.43 1.25 9.12 5.67 9.12 4.73 0 6.32-4 7.09-6.23v-.12h3.76v.13c-.88 3.13-3.46 9.65-11.24 9.65-9.76 0-9.79-10.07-8.37-18.39l.32-1.94c1.9-10.79 6.19-17.11 13.4-17.11 8.2 0 10.07 6.91 8.37 15.65 0 .29-.6 2.94-.65 3.35zm14.36-3.21a26.12 26.12 0 0 0 .72-4.69c.1-4.35-1.12-7.73-5.59-7.73-5.2 0-7.55 6.08-8.79 11.7l-.13.72zM768.89 661.16l2.15-48.1h3.47l-1.23 23c-.4 6.89-1.08 17.66-1.53 21.41h.08c1.16-3.88 5.19-14.33 7.73-21.1l8.73-23.26h3.65l-18.63 48.1zm30.52-6.51c-.34 1.72-1 5.22-1.21 6.51h-3.3c.14-1.08.34-2.41.56-3.44-1.85 3.39-3.83 4-6.51 4-5.07 0-6.28-4.9-5.12-10.48 1.58-7.53 5.65-10 14-11.42l1.44-.21 1.3-6.19c.93-4.13-.17-6.16-3.29-6.16-3.28 0-4 2.47-5 6.42l-.17.62h-3.31l.08-.41c1-4.85 2.48-9.55 8.89-9.55 5.25 0 7.38 3.3 6.27 8.53zm-.74-12.06l-1.44.22c-5.7 1-8.76 2.73-10.06 8.55-.93 4.29-.18 7.27 3.07 7.27 3.62 0 5.84-3.71 7.39-11.23zm9.99-5.3c1.24-5.72 2-10 2.47-12.37h3.26a49.23 49.23 0 0 1-.94 5.37 9.67 9.67 0 0 1 8.39-5.82l-.88 4c-4.84.35-8 4.19-9.17 10L807 661.16h-3.38zm16.01-12.37h3.38l-7.69 36.24H817zm3-14H831l-1.45 7.08h-3.39zM842 654.65c-.35 1.72-1 5.22-1.22 6.51h-3.29c.13-1.08.34-2.41.55-3.44-1.85 3.39-3.83 4-6.5 4-5.07 0-6.29-4.9-5.12-10.48 1.58-7.53 5.64-10 14-11.42l1.44-.21 1.3-6.19c.92-4.13-.18-6.16-3.29-6.16-3.29 0-4 2.47-5 6.42l-.17.62h-3.3l.09-.41c1-4.85 2.47-9.55 8.88-9.55 5.25 0 7.38 3.3 6.27 8.53zm-.74-12.06l-1.44.22c-5.71 1-8.77 2.73-10.07 8.55-.92 4.29-.17 7.27 3.07 7.27 3.62 0 5.84-3.71 7.39-11.23zm15.61-31.68h3.38l-3.66 17a7.05 7.05 0 0 1 6.34-3.59c5.09 0 6.85 4.17 5.32 11.49l-3 14.2c-1.19 5.64-3.24 11.57-9.46 11.57-3.24 0-4.85-1.64-5.43-4.26-.2 1-.56 2.59-.91 3.81h-3.28c.39-1.58 1.09-5 2.13-9.76zm5 38.85l3.1-14.34c1-4.85.63-8-3.12-8-4.67 0-6.34 5.35-7.27 9.75l-2.47 12.05c-1.15 5.55-.52 9.32 3.49 9.32 3.57-.03 5.12-3.54 6.25-8.78zm5.87 11.4l10.65-50.25h3.39l-10.66 50.25zm15.2-17.82c-.3 1.33-1 4.67-1.34 6.36-1.06 5.07-.86 9.06 3.22 9.06 3.48 0 4.66-3 5.57-6.92l.21-1h3.4l-.3 1.16c-1.09 4.43-2.44 9.77-9.23 9.77-7.5 0-7.42-6.42-6.12-12.64l2.8-13.3c1.16-5.65 3-11.43 9.64-11.43 7.51 0 7.53 6.44 6.45 11.46-.3 1.39-1.25 5.94-1.62 7.52zm10-2.94c.25-1.21.95-4.4 1.19-5.55.86-4.11.05-7.58-3.61-7.58-4 0-5.2 4.7-5.89 8.1l-1.08 5zM29.26 318.41l-18.1-50h8L27.69 293c2.51 7.27 4.93 14.39 6 19.06h.14c1.05-4.2 3.72-11.62 6.3-18.84l8.91-24.81h7.64l-18.68 50zm53.64-8.28a62.59 62.59 0 0 0 .5 8.28h-6.76a19.13 19.13 0 0 1-.58-4.57c-1.29 2.37-4.13 5.43-11.12 5.43-8.68 0-12.38-5.66-12.38-11.26 0-8.21 6.48-12 17.34-12H76v-2.95c0-3.11-1-6.79-7.46-6.79-5.76 0-6.78 2.8-7.41 5.62h-6.8c.49-5.33 3.79-11.06 14.45-11 9.12 0 14.16 3.72 14.16 12.13zm-6.9-9.37h-5.58c-7.08 0-10.68 2-10.68 6.85 0 3.58 2.43 6.25 6.78 6.25 8.37 0 9.48-5.66 9.48-12zm14.56-9.05c0-4.84 0-7.79-.07-10h6.93c.1 1 .21 4 .21 7.28 1.86-4.81 6.14-8 12.23-8.15v7c-7.48.14-12.23 3.69-12.23 13.11v17.45h-7.07zm22.61-26.11h7.07v8.13h-7.07zm0 16.15h7.07v36.66h-7.07zm42.16 28.38a62.59 62.59 0 0 0 .5 8.28h-6.76a19.13 19.13 0 0 1-.58-4.57c-1.29 2.37-4.13 5.43-11.12 5.43-8.68 0-12.38-5.66-12.38-11.26 0-8.21 6.48-12 17.34-12h6.06v-2.95c0-3.11-1-6.79-7.46-6.79-5.76 0-6.78 2.8-7.41 5.62h-6.8c.49-5.33 3.79-11.06 14.45-11 9.12 0 14.16 3.72 14.16 12.13zm-6.9-9.37h-5.58c-7.08 0-10.68 2-10.68 6.85 0 3.58 2.43 6.25 6.78 6.25 8.37 0 9.48-5.66 9.48-12zM163 265.6h7.07v21.12c1.63-3 4.93-5.84 11.46-5.84 9.35 0 15 7.71 15 18.47 0 11-5.55 19.92-16 19.92-5.78 0-8.72-2.06-10.56-5.44a37.36 37.36 0 0 1-.27 4.58h-6.8c.07-4.08.07-8.18.07-12.25zm26.27 33.89c0-7.56-3.35-12.7-9.54-12.7-7.4 0-10 4.94-10 13.42 0 7.36 2.32 13.19 9.74 13.19 6.21 0 9.79-5.4 9.79-13.91zm12.31 18.92V265.6h7.07v52.81zm19.31-16.98c0 6.9 3.51 12 9.51 12 5.49 0 7.24-2.73 8.37-5.32h7.11c-1.42 4.65-5.36 11.13-15.69 11.13-11.64 0-16.44-9.3-16.44-18.77 0-11 5.57-19.62 16.83-19.62 12 0 15.93 9.42 15.93 17.5a29.88 29.88 0 0 1-.1 3.05zm18.47-4.81c-.07-5.69-2.84-10.29-8.85-10.29s-8.81 4.27-9.4 10.29zM28.66 431.66l-17.76-49.8h10l7.87 23.63c2.36 7.07 4.37 13.48 5.5 18.38h.14c1-4.45 3.27-11.08 5.73-18.2l8.23-23.81H58l-18.28 49.8zm56.63-9.07a75.5 75.5 0 0 0 .5 9.07h-8.55a17.09 17.09 0 0 1-.55-4c-1.32 2.21-4 4.89-10.75 4.89-8.85 0-12.61-5.8-12.61-11.51 0-8.37 6.68-12.22 17.58-12.22h5.63v-2.57c0-2.84-1-5.9-6.46-5.9-5 0-5.93 2.25-6.47 5h-8.55c.54-6.08 4.3-11.59 15.34-11.54 9.63.05 14.89 3.86 14.89 12.54zm-8.73-8.18h-4.78c-6.58 0-9.43 1.93-9.43 6 0 3.08 2 5.52 6 5.52 7.32 0 8.25-5 8.25-10.53zm15.73-9.72c0-4.18 0-7.33-.07-10.05H101c.12.9.25 4.32.25 6.86 1.73-4.5 5.83-7.63 12.07-7.72v8.63c-7.49-.05-12.07 2.61-12.07 12.49v16.76h-9zM116.41 379h9v8.75h-9zm0 15.65h9v37h-9zm45.13 27.94a75.5 75.5 0 0 0 .5 9.07h-8.55a16.58 16.58 0 0 1-.55-4c-1.32 2.21-4 4.89-10.75 4.89-8.86 0-12.61-5.8-12.61-11.51 0-8.37 6.68-12.22 17.58-12.22h5.63v-2.57c0-2.84-1-5.9-6.46-5.9-5 0-5.93 2.25-6.47 5h-8.55c.53-6.08 4.29-11.59 15.34-11.54 9.62.05 14.89 3.86 14.89 12.54zm-8.73-8.18H148c-6.58 0-9.43 1.93-9.43 6 0 3.08 2 5.52 6 5.52 7.32 0 8.25-5 8.25-10.53zM168.54 379h9v20c1.58-2.64 4.75-5.25 11-5.25 9.81 0 15.12 8.09 15.12 18.68 0 10.82-5.52 20.06-16.1 20.06-5.65 0-8.3-1.84-10.12-4.84a25 25 0 0 1-.34 4h-8.58c.07-4.06.07-8.16.07-12.22zm26 33.64c0-6.78-2.75-11.58-8.58-11.58-6.52 0-8.83 4.3-8.83 12.27 0 6.73 2 12 8.65 12 5.61-.03 8.71-5.02 8.71-12.7zm13.67 19.02V379h8.95v52.67zM230.75 415c0 5.6 2.83 10.4 8.33 10.4 4.8 0 6.25-2.15 7.29-4.55h9c-1.36 4.6-5.38 11.67-16.51 11.67-12 0-17.11-9.23-17.11-18.88 0-11.41 5.82-19.86 17.49-19.86 12.45 0 16.64 9.32 16.64 18.11a23.57 23.57 0 0 1-.13 3.11zm16.11-5.7c-.07-4.9-2.24-9-7.68-9s-7.72 3.78-8.21 9zM27.14 544.91l-17-49.59h15.47l6.12 21.3c1.93 6.61 3.06 11.19 4.19 16.73h.22a156 156 0 0 1 4.28-16.59l6.33-21.44h14.89l-17.35 49.59zm65.94-11.2a108.06 108.06 0 0 0 .46 11.2h-13a15.9 15.9 0 0 1-.58-3.49c-1.8 2.35-4.57 4.4-10.65 4.4-8.47 0-13-5.32-13-12 0-8.87 7.11-12.7 18.64-12.7h4.63V519c0-2.42-.86-4.19-4.24-4.19-3.18 0-4 1.46-4.34 3.89H58c.5-6.3 4.24-12.49 17.65-12.44 12.38 0 17.39 4.81 17.39 13.91zm-13.5-5.56h-3.11c-4.83 0-6.42 1.7-6.42 4.48a3.76 3.76 0 0 0 4.1 4c4.76 0 5.43-3.27 5.43-7.32zM98.29 518c0-3.62 0-7.48-.09-10.84h13.72c.17 1.17.34 4.48.34 6.13 1.46-3.62 5.12-7 11.6-7v12.83c-7.94-.34-11.53 1.47-11.53 10.32v15.51h-14zm28.08-25.26h14v9.79h-14zm0 14.42h14v37.75h-14zm53.83 26.55a111.84 111.84 0 0 0 .45 11.2h-13a15.9 15.9 0 0 1-.58-3.49c-1.8 2.35-4.58 4.4-10.65 4.4-8.47 0-13-5.32-13-12 0-8.87 7.11-12.7 18.64-12.7h4.63V519c0-2.42-.86-4.19-4.24-4.19-3.18 0-4 1.46-4.35 3.89h-13c.5-6.3 4.24-12.49 17.65-12.44 12.38 0 17.39 4.81 17.39 13.91zm-13.5-5.56h-3.11c-4.84 0-6.43 1.7-6.43 4.48a3.76 3.76 0 0 0 4.11 4c4.76 0 5.43-3.27 5.43-7.32zm18.71-35.41h14v17.76c1.72-2.13 4.72-4.25 10.32-4.25 9.35 0 15.11 7.53 15.11 19.06 0 11.72-5.95 20.51-16.35 20.51-5.22 0-7.55-1.63-9.27-4a18.71 18.71 0 0 1-.38 3h-13.5c.07-3.88.07-8.09.07-12.1zm25.19 32.94c0-6-1.64-9.55-5.8-9.55-4.46 0-5.88 3.08-5.88 10.12 0 5.9 1.23 9.85 5.78 9.85 4.01 0 5.9-3.9 5.9-10.42zm17.65 19.23v-52.17h14v52.17zm31.58-16.1c0 3.8 1.46 7.62 5.6 7.62 3.33 0 4.28-1.42 5-3.4h13.79c-1.37 5-5.65 12.79-19 12.79-14.25 0-19.49-9.6-19.49-19.46 0-11.38 6-20.11 19.75-20.11 14.63 0 19.09 9.89 19.09 19.32a26.86 26.86 0 0 1-.14 3.24zm10.65-7.33c-.05-3.53-1.06-6.51-5.08-6.51-3.75 0-5.19 2.77-5.43 6.51zM25.7 658.16L9.42 608.47h20.81l4.39 19.16c1.52 6.19 2 9 3 15.19H38a139.92 139.92 0 0 1 2.88-15.05l4.32-19.3h20.46L49.1 658.16zm76.3-13.4c0 5.48.07 11.38.36 13.4H85.31a19.59 19.59 0 0 1-.72-3.68c-2.59 3-6 4.68-11.3 4.68-7.35 0-13.32-4.1-13.32-12.45 0-9.44 7.49-13 20.09-13h3.74v-2.08c0-2.24-.72-3-2.37-3s-2.38 1.23-2.52 3.24H61.7c.36-5 3-13 19.94-13 16.35 0 20.38 6.27 20.38 15.55zm-18.2-3.31H82c-2.73 0-3.67 1.37-3.67 3.31a2.57 2.57 0 0 0 2.52 2.88c2.38 0 3-1.44 3-4.6zm21.67-9.45c0-4-.07-8.79-.14-12.1h18.72a54.57 54.57 0 0 1 .43 5.76c1.23-2.74 4.47-6.63 11.09-6.77v16.85c-8.78-.43-10.87 1.8-10.87 7.71v14.76h-19.23zm31.97-25.4h19.22v10.3h-19.22zm0 13.25h19.22v38.31h-19.22zm63.22 24.91c0 5.48.07 11.38.36 13.4H184a18.82 18.82 0 0 1-.72-3.68c-2.59 3-6 4.68-11.3 4.68-7.35 0-13.32-4.1-13.32-12.45 0-9.44 7.49-13 20.09-13h3.74v-2.08c0-2.24-.72-3-2.38-3s-2.37 1.23-2.52 3.24h-17.26c.36-5 3-13 19.95-13 16.35 0 20.38 6.27 20.38 15.55zm-18.22-3.31h-1.8c-2.74 0-3.67 1.37-3.67 3.31a2.57 2.57 0 0 0 2.52 2.88c2.37 0 2.95-1.44 2.95-4.6zm21.67-34.85h19.23v16a13.79 13.79 0 0 1 10.08-3.74c7.49 0 14.83 5.62 14.83 19.3s-6.84 21-16.49 21c-4.75 0-7.13-1.72-8.71-3.67-.07.65-.15 2-.29 2.67H204c.07-3.6.07-8 .07-12zm24.48 32.19c0-6.34-.93-8.28-2.81-8.28-2.59 0-3 2.23-3 8.71 0 5.76.29 8.64 2.88 8.64 2.21 0 2.93-2.74 2.93-9.07zm21.96 19.37V606.6h19.23v51.56zm40.9-15.77c0 3.38.43 6.12 3.17 6.12 2.16 0 2.88-1.37 3.16-3h18.51c-1.51 5.91-6.12 13.68-21.82 13.68-17.57 0-22.39-10.44-22.39-20.3 0-10.44 5.83-20 22.46-20 17.57 0 22 11.16 22 20.16 0 1.23-.07 2.45-.15 3.39zm5.83-8.36c0-2.73-.22-5-2.88-5-2.16 0-2.95 2-2.95 5z" class="aaf9aa04-65b7-4de9-bdd7-a92626ba4042"/><path d="M32.22 922c-2.31.21-2.7.51-3.93 3.36-.72 1.68-4.2 9.9-6.3 15H20.4c-1.59-4.14-4.77-12.27-6.36-16.05-.81-1.89-1.44-2.16-3.45-2.28v-1.35h8.64V922c-2.43.21-2.52.45-2 1.71 1 2.46 3.06 7.83 4.8 12.3 2.28-5.46 4.35-10.62 4.77-11.76.6-1.74.42-2.07-2.37-2.25v-1.32h7.83zm8.85 18.52a2.57 2.57 0 0 1-1.41-.57 3.13 3.13 0 0 1-.84-1.44c-1.35.93-2.91 2-4.11 2a4 4 0 0 1-4-4.08c0-1.53.87-2.7 2.73-3.27a27.07 27.07 0 0 0 5.19-1.95v-.54c0-2.07-1.2-3-2.64-3a2.17 2.17 0 0 0-1.56.6 5.39 5.39 0 0 0-.87 2 1 1 0 0 1-1.08.78 1.66 1.66 0 0 1-1.48-1.54c0-.54.45-.93 1.08-1.38a17.81 17.81 0 0 1 4.8-2.13 4.83 4.83 0 0 1 2.85.93 4.36 4.36 0 0 1 1.62 3.63v5.76c0 1.41.51 1.83 1.08 1.83a3.93 3.93 0 0 0 1.23-.36l.42 1.17zm-2.4-7.89c-.78.39-2.19.93-3.18 1.32a2.32 2.32 0 0 0-1.74 2.19 2.13 2.13 0 0 0 2.13 2.22 4.28 4.28 0 0 0 2.79-1.17zm14.22 7.53h-7.62v-1.23c2.07-.18 2.22-.33 2.22-2.25v-6.18c0-1.89-.15-2-2-2.25v-1.14a25.75 25.75 0 0 0 4.71-1.17v3.36c1.32-2 2.7-3.3 4.11-3.3a1.78 1.78 0 0 1 2 1.59 2.21 2.21 0 0 1-1.2 1.95.67.67 0 0 1-.84-.09 2.46 2.46 0 0 0-1.5-.69c-.75 0-2 1.14-2.55 2.88v5c0 1.92.09 2.1 2.64 2.25zm4.98 0v-1.23c2-.18 2.25-.33 2.25-2.43v-5.91c0-1.89 0-2.07-2.07-2.28v-1.14a23.73 23.73 0 0 0 4.83-1.17v10.5c0 2.07.21 2.22 2.28 2.43v1.23zm3.39-16.41a1.94 1.94 0 0 1-1.89-1.86 2 2 0 0 1 1.92-1.95 1.91 1.91 0 0 1 0 3.81zm16.14 16.77A2.54 2.54 0 0 1 76 940a3.13 3.13 0 0 1-.84-1.44c-1.35.93-2.91 2-4.11 2a4 4 0 0 1-4-4.08c0-1.53.87-2.7 2.73-3.27a27.07 27.07 0 0 0 5.22-1.99v-.54c0-2.07-1.2-3-2.64-3a2.17 2.17 0 0 0-1.56.6 5.39 5.39 0 0 0-.87 2 1 1 0 0 1-1.08.78 1.66 1.66 0 0 1-1.53-1.47c0-.54.45-.93 1.08-1.38a17.81 17.81 0 0 1 4.8-2.21 4.78 4.78 0 0 1 2.84.93 4.34 4.34 0 0 1 1.63 3.63v5.76c0 1.41.51 1.83 1.08 1.83a4 4 0 0 0 1.23-.36l.42 1.21zm-2.4-7.89c-.78.39-2.19.93-3.18 1.32a2.32 2.32 0 0 0-1.74 2.19 2.13 2.13 0 0 0 2.13 2.22 4.28 4.28 0 0 0 2.79-1.17zm12.83-6.21a5.43 5.43 0 0 1 1.92-.42 6.44 6.44 0 0 1 6.33 6.57 8 8 0 0 1-8.25 7.95 12.23 12.23 0 0 1-4.83-1.17c0-1 .06-2.25.06-3.36v-12.84c0-1.77-.19-2-2.25-2.16v-1.2a26.36 26.36 0 0 0 5-1v8.4zm-2.06 10a2 2 0 0 0 .21 1 3.62 3.62 0 0 0 3 1.41c2.16 0 4-1.89 4-5.43s-2.21-5.4-4.49-5.4a7 7 0 0 0-2.72.57zm11.99 3.74v-1.23c2.07-.18 2.34-.36 2.34-2.25v-13.47c0-2-.15-2-2.25-2.16v-1.26a22.67 22.67 0 0 0 5-1v17.88c0 1.92.3 2.07 2.46 2.25v1.23zm21.24-2.58a8.1 8.1 0 0 1-5.73 2.94c-3.84 0-6.36-3.12-6.36-7a7.75 7.75 0 0 1 2-5.19 6.4 6.4 0 0 1 4.92-2.28 5.3 5.3 0 0 1 5.31 5.49c0 .69-.09 1-.66 1.11-1.47.24-5.16.39-8.76.51.18 3.48 2.49 5 4.59 5a6.48 6.48 0 0 0 4-1.59zm-5.82-10.11c-1.62 0-3.06 1.47-3.33 4 1.62 0 3.63 0 5.43-.09.69 0 .84-.15.84-.66a3.15 3.15 0 0 0-2.94-3.25z"/><path d="M25.05 835c-8.74 0-13.3-6.67-13.3-17.47 0-10.56 4.56-17.47 13.3-17.47s13.3 6.67 13.3 17.47c0 10.53-4.56 17.47-13.3 17.47zm0-29.18c-3.75 0-5.23 3.55-5.23 11.71s1.53 11.71 5.23 11.71 5.23-3.65 5.23-11.71-1.49-11.74-5.23-11.74zm39.26 15.52c0 7.87-3.6 13.63-9.79 13.63a7.74 7.74 0 0 1-6.05-2.64V844l-7.58.81v-36.14h6.72l.33 2.83a9.06 9.06 0 0 1 7.06-3.7c6.62 0 9.31 5.2 9.31 13.54zm-15.84-5v10.76a4.31 4.31 0 0 0 3.75 2.25c2.68 0 4.27-2.2 4.27-8 0-6.34-1.44-8-3.84-8-1.78.07-3.07 1.17-4.18 3.04zM82.36 835c-6.67 0-9.84-3.65-9.84-9.5v-11.6h-5.33v-5.23h5.33v-5.52l7.58-.92v6.44h8.21l-.77 5.23H80.1v11.57c0 2.54 1.11 3.5 3.65 3.5a9.06 9.06 0 0 0 4.47-1.15l2.49 4.85a15.43 15.43 0 0 1-8.35 2.33zm27.84-6h6.53v5.19H95.41V829h7.2v-15.15h-7v-5.18h14.59zm-.1-29.38a4.49 4.49 0 0 1-9 0 4.28 4.28 0 0 1 4.51-4.27 4.24 4.24 0 0 1 4.49 4.24zm30.63 27.19l3.36 4.8a14.54 14.54 0 0 1-9.46 3.36c-8.26 0-13.15-5.42-13.15-13.39s5.09-13.78 13.29-13.78a13.85 13.85 0 0 1 9.32 3.22l-3.27 4.56a10 10 0 0 0-5.71-1.92c-3.46 0-5.71 2.16-5.71 7.92s2.4 7.39 5.66 7.39a10 10 0 0 0 5.67-2.16zm30.81 3.07l-1.58 5c-3-.29-5-1.25-6.24-3.36a10.85 10.85 0 0 1-8.35 3.45c-5.28 0-8.64-3.31-8.64-8 0-5.52 4.56-8.69 12.43-8.69h3.41v-.91c0-2.69-1.78-3.94-5-3.94a25 25 0 0 0-7 1.34l-1.73-5a30.15 30.15 0 0 1 9.94-1.92c7.58 0 11.13 3.17 11.13 9v10c-.05 1.88.43 2.6 1.63 3.03zm-9-3.12v-4.17h-1.88c-4.22 0-6.14 1.34-6.14 3.84 0 2 1.25 3.12 3.41 3.12a5.52 5.52 0 0 0 4.64-2.79zm26.04-.62c0 2.06 1.25 2.83 3.27 2.83a9.49 9.49 0 0 0 3.64-.77l1.78 5.09a15.22 15.22 0 0 1-7.34 1.68c-6.15 0-8.93-3.79-8.93-9.79v-21.46h-7.49v-5.18h15.07zm40.27 8.86c-6.29 0-10.37-2.06-13.15-4.8l4-4.41a13.17 13.17 0 0 0 9 3.36c3.31 0 5.52-1.49 5.52-4.08 0-2.41-1.39-3.56-6-4.95-7.82-2.4-10.75-5.33-10.75-10.37 0-6.14 5.61-9.69 12.53-9.69 5.09 0 9 1.58 11.9 4.32l-3.69 4.27a11.93 11.93 0 0 0-7.64-2.79c-3 0-4.94 1.11-4.94 3.27s1.49 3 6.77 4.61c6.33 1.92 10 4.6 10 10.7S237.35 835 228.85 835zm32.07-6h6.53v5.19h-21.32V829h7.2v-15.15h-7v-5.18h14.55zm-.1-29.38a4.21 4.21 0 0 1-4.46 4.28 4.28 4.28 0 1 1 4.46-4.28zM294 828.4l-.72 5.76h-21v-5.38l12.72-14.4h-11.61v-5.71h20.41V814l-12.48 14.4zm17.84 1.05a12.06 12.06 0 0 0 6.53-2.11l3 4.13a15.41 15.41 0 0 1-10.18 3.5c-8.74 0-13.25-5.61-13.25-13.53 0-7.54 4.42-13.64 12.43-13.64 7.3 0 12 4.9 12 13.11a23.66 23.66 0 0 1-.15 2.73H305.7c.53 4.18 2.88 5.81 6.14 5.81zM305.6 819h9.4c0-3.7-1.34-6.15-4.56-6.15-2.72.04-4.5 1.96-4.84 6.15z" class="ad3fe97c-71ea-4674-a9a5-c1f0d749179c"/><path d="M437.42 913.52c-5.54.5-6.48 1.22-9.43 8.06-1.73 4-10.08 23.77-15.12 36h-3.82c-3.82-9.94-11.45-29.45-15.27-38.53-1.94-4.53-3.45-5.18-8.28-5.47v-3.24h20.74v3.17c-5.83.5-6.05 1.08-4.9 4.1 2.31 5.91 7.35 18.8 11.53 29.53 5.47-13.11 10.44-25.49 11.44-28.23 1.44-4.18 1-5-5.68-5.4v-3.17h18.79zM458.66 958a6.21 6.21 0 0 1-3.39-1.37 7.51 7.51 0 0 1-2-3.45c-3.24 2.23-7 4.82-9.87 4.82a9.7 9.7 0 0 1-9.5-9.79c0-3.68 2.09-6.48 6.55-7.85 5.11-1.59 11.16-3.6 12.46-4.68v-1.3c0-5-2.88-7.27-6.34-7.27a5.22 5.22 0 0 0-3.74 1.44c-1 1-1.37 2.66-2.09 4.68a2.48 2.48 0 0 1-2.59 1.87c-1.52 0-3.68-1.58-3.68-3.53 0-1.29 1.08-2.23 2.6-3.31 2.08-1.29 7.05-4.1 11.52-5.11a11.63 11.63 0 0 1 6.84 2.23 10.45 10.45 0 0 1 3.89 8.71v13.83c0 3.38 1.22 4.39 2.59 4.39a9.46 9.46 0 0 0 3-.86l1 2.81zm-5.76-18.94c-1.88.94-5.26 2.23-7.64 3.17s-4.17 2.3-4.17 5.26a5.11 5.11 0 0 0 5.11 5.33c2.16 0 4.25-.8 6.7-2.81zm34.1 18.1h-18.27v-3c5-.43 5.33-.79 5.33-5.4V934c0-4.54-.36-4.82-4.68-5.4v-2.74a61.55 61.55 0 0 0 11.31-2.8c-.07 2.37 0 6 0 8.06 3.17-4.75 6.48-7.92 9.86-7.92 2.95 0 4.75 1.87 4.75 3.82a5.28 5.28 0 0 1-2.88 4.68 1.6 1.6 0 0 1-2-.22c-1.23-.94-2.23-1.66-3.6-1.66-1.8 0-4.83 2.74-6.12 6.92v12.06c0 4.61.21 5 6.33 5.4zm12 0v-3c4.9-.43 5.4-.79 5.4-5.83v-14.14c0-4.54-.07-5-5-5.48V926a57.13 57.13 0 0 0 11.6-2.81v25.2c0 5 .5 5.33 5.47 5.83v3zm8.14-39.39a4.65 4.65 0 0 1-4.54-4.47 4.7 4.7 0 0 1 4.61-4.68 4.58 4.58 0 0 1-.07 9.15zM545.85 958a6.15 6.15 0 0 1-3.39-1.37 7.51 7.51 0 0 1-2-3.45c-3.24 2.23-7 4.82-9.87 4.82a9.7 9.7 0 0 1-9.5-9.79c0-3.68 2.08-6.48 6.55-7.85 5.11-1.59 11.16-3.6 12.46-4.68v-1.3c0-5-2.88-7.27-6.34-7.27a5.25 5.25 0 0 0-3.75 1.44c-1 1-1.36 2.66-2.08 4.68a2.49 2.49 0 0 1-2.6 1.87c-1.51 0-3.67-1.58-3.67-3.53 0-1.29 1.08-2.23 2.59-3.31 2.09-1.29 7.06-4.1 11.53-5.11a11.63 11.63 0 0 1 6.84 2.23 10.44 10.44 0 0 1 3.88 8.71v13.83c0 3.38 1.23 4.39 2.6 4.39a9.46 9.46 0 0 0 2.95-.86l1 2.81zm-5.76-18.94c-1.88.94-5.26 2.23-7.64 3.17s-4.17 2.3-4.17 5.26a5.11 5.11 0 0 0 5.11 5.33c2.16 0 4.25-.8 6.7-2.81zm30.81-14.88a13 13 0 0 1 4.61-1c8.42 0 15.19 7.06 15.19 15.77 0 11.52-9.43 19.08-19.8 19.08a29.24 29.24 0 0 1-11.66-2.81c.07-2.45.14-5.4.14-8.06v-30.83c0-4.25-.43-4.83-5.4-5.19v-2.88a63.12 63.12 0 0 0 12.1-2.37c-.08 2.59-.15 6.69-.15 10v10.15zm-5 24.05a5 5 0 0 0 .51 2.45c.43 1.15 3.45 3.38 7.34 3.38 5.18 0 9.72-4.54 9.72-13s-5.54-13.18-11-13.18a17.05 17.05 0 0 0-6.55 1.37zm28.83 8.93v-3c5-.43 5.62-.86 5.62-5.4v-32.29c0-4.68-.36-4.89-5.4-5.18v-3a54.16 54.16 0 0 0 12-2.37v42.88c0 4.61.72 5 5.91 5.4v3zm50.98-6.16c-5.33 5.84-11 7.06-13.76 7.06-9.21 0-15.26-7.49-15.26-16.92a18.59 18.59 0 0 1 4.75-12.46 15.4 15.4 0 0 1 11.81-5.47c7.56 0 12.75 6.05 12.75 13.18-.08 1.65-.22 2.44-1.59 2.66-3.53.58-12.38.94-21 1.22.43 8.36 6 12 11 12a15.49 15.49 0 0 0 9.72-3.82zm-14-24.26c-3.89 0-7.35 3.53-8 9.57 3.88 0 8.71-.07 13-.21 1.66-.07 2-.36 2-1.59.08-3.78-2.71-7.81-6.97-7.81zm-197.92 95.61c-5 .62-6.13 1.28-8.8 7.83-1.9 4.61-11.52 27.86-15.35 37.45H407c-4.17-11.27-10.65-28.65-14.69-39-2-5.17-3.29-5.87-7.77-6.28v-2.26h18.76v2.25c-5.43.56-5.7 1.37-4.66 4.1 1.9 5.39 7.11 19.43 11.58 31.14 4.14-10 8.94-21.92 11.85-29.73 1.55-4.17.78-4.85-5.29-5.51v-2.25h17zm16.86 45.42a5.38 5.38 0 0 1-3.38-1.37 6.85 6.85 0 0 1-1.79-3.28c-3 2-6.52 4.65-8.88 4.65a9 9 0 0 1-8.93-9c0-3.56 2-6 6-7.33 4.54-1.53 10.07-3.43 11.59-4.68v-1.42c0-5.08-2.65-7.9-6.33-7.9a4.37 4.37 0 0 0-3.46 1.61 15 15 0 0 0-2 4.68 2.11 2.11 0 0 1-2.19 1.7 3.57 3.57 0 0 1-3.27-3.24c0-1.07 1-1.94 2.42-3 2.09-1.47 6.42-4.16 10.6-5a10.33 10.33 0 0 1 6.21 2 10.07 10.07 0 0 1 3.71 8.43v13.88c0 3.32 1.22 4.33 2.54 4.33a6.32 6.32 0 0 0 2.66-.8l.78 2.17zm-5.36-18.36c-1.64.82-5.08 2.29-6.88 3-2.64 1.17-4.35 2.54-4.35 5.26a5.21 5.21 0 0 0 5.17 5.5 9.7 9.7 0 0 0 6.06-2.64zm30.44 17.5h-16.9v-2.21c4.62-.43 5-.79 5-5.46v-14.94c0-4.71-.3-4.94-4.51-5.46v-2a43.17 43.17 0 0 0 10.38-2.92v8c2.65-4 5.74-7.75 9.29-7.75 2.72 0 4.29 1.7 4.29 3.53a4.91 4.91 0 0 1-2.53 4.1 1.45 1.45 0 0 1-1.9-.16c-1.11-1-2-1.77-3.31-1.77-1.57 0-4.31 2.34-5.84 6.11v13.25c0 4.72.34 5.1 6 5.51zm9.81 0v-2.21c4.61-.43 5.11-.79 5.11-5.71v-14.71c0-4.48-.19-4.79-4.62-5.47v-1.93a48.66 48.66 0 0 0 10.5-2.87v25c0 4.91.5 5.27 5.24 5.71v2.21zm7.62-39.62a4 4 0 0 1 .07-8 3.91 3.91 0 0 1 3.83 4.1 4 4 0 0 1-3.9 3.9zm34.46 40.48a5.41 5.41 0 0 1-3.39-1.37 6.83 6.83 0 0 1-1.78-3.28c-3 2-6.53 4.65-8.89 4.65a9 9 0 0 1-8.93-9c0-3.56 2-6 6-7.33 4.53-1.53 10.06-3.43 11.59-4.68v-1.42c0-5.08-2.65-7.9-6.34-7.9a4.37 4.37 0 0 0-3.45 1.61c-.84 1-1.31 2.61-2 4.68a2.09 2.09 0 0 1-2.18 1.7 3.57 3.57 0 0 1-3.27-3.24c0-1.07 1-1.94 2.42-3 2.08-1.47 6.42-4.16 10.6-5a10.3 10.3 0 0 1 6.2 2 10.08 10.08 0 0 1 3.72 8.43v13.88c0 3.32 1.22 4.33 2.53 4.33a6.36 6.36 0 0 0 2.67-.8l.77 2.17zm-5.36-18.36c-1.64.82-5.08 2.29-6.88 3-2.64 1.17-4.35 2.54-4.35 5.26a5.21 5.21 0 0 0 5.17 5.5 9.7 9.7 0 0 0 6.06-2.64zm28.15-14.5a9.41 9.41 0 0 1 3.46-.78c7.85 0 14.39 6.77 14.39 15.37a18.48 18.48 0 0 1-18.19 18.27 27.22 27.22 0 0 1-11.21-2.64V1025c0-4.42-.26-4.88-4.94-5.24v-2.07a60.27 60.27 0 0 0 10.83-2.44v22.07zm-5.66 23.53a5.89 5.89 0 0 0 .39 2.5c.78 1.67 3.63 3.79 7.17 3.79 6 0 9.38-5.17 9.38-13.38s-5.09-13.06-11-13.06a14.53 14.53 0 0 0-6 1.37zm26.37 8.47v-2.21c4.68-.43 5.27-.8 5.27-5.51v-34.06c0-4.45-.36-4.84-5.06-5.36v-2.1a51.63 51.63 0 0 0 10.93-2.44v44c0 4.72.49 5.08 5.28 5.51v2.21zm45.81-6.14c-4.76 5.78-9.91 7-12.32 7-8.87 0-14.34-7.26-14.34-15.77a18.49 18.49 0 0 1 4.7-12.57 14.84 14.84 0 0 1 10.94-5.3 11.53 11.53 0 0 1 11.36 11.56c-.07 1.49-.27 2.16-1.47 2.44-1.85.34-11 .93-19.58 1.22-.09 9.39 5.74 13.29 10.84 13.29a12.8 12.8 0 0 0 8.63-3.7zm-12.7-23.77c-3.43 0-6.72 3.19-7.65 9.06 4 0 8.19 0 12.46-.21 1.36 0 1.78-.36 1.78-1.47.06-3.79-2.52-7.38-6.59-7.38zm-172.75 94.23c-4.82.73-5.77 1.57-8.36 7.89-2.1 5.2-10.8 26.76-15.37 38.49h-1.61c-4.53-12.6-10-27.56-14.47-39.62-2-5.49-3.12-6.13-7.67-6.76v-1.38h17.49v1.38c-5.05.77-5.5 1.6-4.57 4.3 1.8 5.42 9 24.83 12 32.78 3.3-8.21 8.53-21.86 11.88-31.06 1.58-4.29 1.16-5.18-5.07-6v-1.38h15.76zm14.78 46.29a5 5 0 0 1-3.31-1.41 6 6 0 0 1-1.64-3.24c-2.72 1.91-6.37 4.65-8.29 4.65a8.36 8.36 0 0 1-8.3-8.34c0-3.36 1.82-5.47 5.46-6.72 4.12-1.43 9.36-3.14 11.1-4.44v-1.84c0-5.15-2.55-8.34-6.38-8.34a4.17 4.17 0 0 0-3.26 1.45 14.21 14.21 0 0 0-1.94 4.6 1.7 1.7 0 0 1-1.69 1.38 3.07 3.07 0 0 1-2.81-2.81c0-.77.7-1.47 2-2.44 2-1.47 6.62-4.25 10.09-5a9.28 9.28 0 0 1 5.6 1.83c2.44 2.16 3.36 4.56 3.36 8.59v13.34c0 3.39 1.18 4.48 2.52 4.48a4.17 4.17 0 0 0 2.39-.76l.56 1.42zm-5-17.66c-1.38.79-5 2.27-6.82 3.11-2.53 1.14-4.23 2.51-4.23 5.13a5.23 5.23 0 0 0 5.23 5.47 8.51 8.51 0 0 0 5.74-2.51c.02-3.43.1-7.61.1-11.2zm27.5 16.8h-15.52v-1.38c4.34-.55 4.69-.91 4.69-5.91v-14.7c0-4.67-.13-5-4-5.71v-1.2a34.86 34.86 0 0 0 9.28-3c0 1.77 0 5.3-.12 7.84 2.08-3.35 5.46-7.59 8.9-7.59 2.35 0 3.82 1.54 3.82 3.1a4.52 4.52 0 0 1-2.09 3.6 1.29 1.29 0 0 1-1.75-.07c-1.08-1.08-1.95-1.8-3.24-1.8-1.48 0-3.9 1.88-5.64 5.51v14c0 5 .36 5.32 5.7 6zm8.77 0v-1.38c4.49-.59 4.88-1 4.88-6v-14.63c0-4.71-.26-5-4.3-5.75v-1.17a42.55 42.55 0 0 0 9.5-2.84c0 2.14-.07 5.85-.07 9v15.36c0 5.14.46 5.46 4.94 6v1.38zm7.08-40a3.5 3.5 0 0 1-3.37-3.38 3.44 3.44 0 0 1 3.45-3.48 3.32 3.32 0 0 1 3.31 3.48 3.4 3.4 0 0 1-3.39 3.34zm31.99 40.86a5 5 0 0 1-3.3-1.41 5.92 5.92 0 0 1-1.65-3.24c-2.72 1.91-6.37 4.65-8.28 4.65a8.36 8.36 0 0 1-8.31-8.34c0-3.36 1.83-5.47 5.47-6.72 4.11-1.43 9.35-3.14 11.09-4.44v-1.84c0-5.15-2.55-8.34-6.37-8.34a4.17 4.17 0 0 0-3.27 1.45 14.43 14.43 0 0 0-1.94 4.6 1.7 1.7 0 0 1-1.69 1.38 3.07 3.07 0 0 1-2.81-2.81c0-.77.7-1.47 2-2.44 2-1.47 6.62-4.25 10.09-5a9.33 9.33 0 0 1 5.61 1.83c2.44 2.16 3.35 4.56 3.35 8.59v13.34c0 3.39 1.18 4.48 2.52 4.48a4.17 4.17 0 0 0 2.39-.76l.56 1.42zm-5-17.66c-1.38.79-5 2.27-6.81 3.11-2.54 1.14-4.24 2.51-4.24 5.13a5.23 5.23 0 0 0 5.23 5.47 8.51 8.51 0 0 0 5.74-2.51c.02-3.43.1-7.61.1-11.2zm26.4-14.24a7.21 7.21 0 0 1 2.69-.6c7.46 0 13.74 6.18 13.74 14.79a17.68 17.68 0 0 1-17.43 17.71 27.41 27.41 0 0 1-10.33-2.43c.08-1.83.08-3.74.08-5.6v-35.07c0-4.74-.26-5.34-4.75-5.94v-1.27a44.78 44.78 0 0 0 10-2.45c-.08 2.41-.12 6.17-.12 9v14.49zm-6.15 23a6.61 6.61 0 0 0 .36 2.56c.7 1.8 3.63 3.85 7.48 3.85 6.16 0 8.93-5.41 8.93-13.34 0-8.09-4.72-13-11-13a13.6 13.6 0 0 0-5.75 1.21zm24.79 8.04v-1.38c4.36-.55 4.94-.91 4.94-6v-34.57c0-5.15-.36-5.58-4.77-6.2v-1.31a40.07 40.07 0 0 0 10-2.45c0 2.55-.12 5.92-.12 10.11v34.42c0 5 .35 5.4 4.83 6v1.38zm42.25-6.08c-4.37 5.52-9.13 6.94-11.28 6.94-8.62 0-13.71-7.16-13.71-15.2a17.81 17.81 0 0 1 4.48-12.2c2.9-3.19 6.79-5.1 10.33-5.1a10.48 10.48 0 0 1 10.42 10.28c0 1.24-.17 1.89-.84 2.06-1.4.41-10.18.93-19.35 1.14-.22 10.69 5.93 14.61 11 14.61a11.61 11.61 0 0 0 8.07-3.67zm-12.07-23.26c-3.43 0-6.63 2.85-7.6 8.77 4.19.08 10.51 0 13.19-.22.78 0 1.05-.4 1.05-1.28.03-3.66-2.25-7.27-6.64-7.27zm-155.73 93.48c-4.82.75-5.69 1.65-8.28 7.93-2.15 5.31-10.5 26.16-15.36 38.67h-1.4c-4.61-12.87-9.88-27.31-14.45-39.76-2-5.53-3.08-6.15-7.68-6.84v-1.2h17.27v1.2c-5 .83-5.47 1.64-4.56 4.36 1.8 5.46 9.51 26.29 12.1 33.13 3.15-7.91 8.52-22.11 11.85-31.33 1.59-4.33 1.29-5.29-5-6.16v-1.2h15.54zm14.46 46.47a4.9 4.9 0 0 1-3.28-1.42 5.75 5.75 0 0 1-1.63-3.24c-2.67 1.89-6.36 4.66-8.18 4.66a8.23 8.23 0 0 1-8.17-8.19c0-3.32 1.79-5.37 5.34-6.59 4-1.41 9.23-3.07 11-4.37v-1.95c0-5.17-2.54-8.42-6.39-8.42a4.15 4.15 0 0 0-3.23 1.39 13.93 13.93 0 0 0-1.94 4.58 1.62 1.62 0 0 1-1.58 1.3 3 3 0 0 1-2.71-2.71c0-.7.63-1.36 1.92-2.31 1.93-1.46 6.73-4.28 10-5a9.2 9.2 0 0 1 5.49 1.79c2.41 2.16 3.26 4.55 3.26 8.66v13.18c0 3.41 1.17 4.52 2.52 4.52a3.81 3.81 0 0 0 2.33-.74l.52 1.25zm-4.9-17.5c-1.33.79-5 2.25-6.85 3.13-2.48 1.12-4.19 2.49-4.19 5.1a5.22 5.22 0 0 0 5.24 5.44 8.23 8.23 0 0 0 5.7-2.49c0-3.43.1-7.54.1-11.18zm26.98 16.64H452.4v-1.2c4.28-.59 4.61-1 4.61-6v-14.62c0-4.64-.08-5-3.9-5.77v-1a33 33 0 0 0 9-3c-.06 1.61-.06 5.24-.16 7.82 2-3.23 5.44-7.55 8.84-7.55 2.25 0 3.71 1.5 3.71 3a4.44 4.44 0 0 1-2 3.5 1.26 1.26 0 0 1-1.72 0c-1.08-1.08-1.95-1.8-3.24-1.8-1.46 0-3.82 1.77-5.61 5.39v14.1c0 5 .36 5.37 5.65 6.06zm8.59 0v-1.2c4.49-.64 4.84-1 4.84-6.1v-14.58c0-4.77-.27-5.11-4.23-5.83v-1a40.9 40.9 0 0 0 9.3-2.83c-.05 1.9-.1 5.8-.1 9v15.23c0 5.2.45 5.51 4.88 6.15v1.2zm7-40.14A3.36 3.36 0 0 1 480 1243a3.3 3.3 0 0 1 3.32-3.35 3.2 3.2 0 0 1 3.21 3.35 3.28 3.28 0 0 1-3.33 3.27zm31.59 41a4.9 4.9 0 0 1-3.28-1.42 5.82 5.82 0 0 1-1.63-3.24c-2.67 1.89-6.36 4.66-8.18 4.66a8.23 8.23 0 0 1-8.17-8.19c0-3.32 1.79-5.37 5.34-6.59 4-1.41 9.23-3.07 11-4.37v-1.95c0-5.17-2.54-8.42-6.39-8.42a4.15 4.15 0 0 0-3.23 1.39 14.15 14.15 0 0 0-1.94 4.58 1.62 1.62 0 0 1-1.58 1.3 3 3 0 0 1-2.7-2.71c0-.7.62-1.36 1.91-2.31 1.94-1.46 6.73-4.28 10-5a9.18 9.18 0 0 1 5.49 1.79c2.42 2.16 3.26 4.55 3.26 8.66v13.18c0 3.41 1.17 4.52 2.52 4.52a3.84 3.84 0 0 0 2.34-.74l.51 1.25zm-4.9-17.5c-1.33.79-5 2.25-6.85 3.13-2.48 1.12-4.19 2.49-4.19 5.1a5.22 5.22 0 0 0 5.24 5.44 8.23 8.23 0 0 0 5.7-2.49c0-3.43.1-7.54.1-11.18zm26.09-14.2a6.83 6.83 0 0 1 2.56-.56c7.39 0 13.62 6 13.62 14.65a17.51 17.51 0 0 1-17.33 17.61 27.53 27.53 0 0 1-10.11-2.39c.1-1.82.1-3.71.1-5.55v-35.17c0-4.82-.27-5.46-4.72-6.13v-1.1a41.47 41.47 0 0 0 9.79-2.45c-.1 2.3-.15 6.3-.15 9.18v14.64zm-6.24 22.94a6.81 6.81 0 0 0 .36 2.58c.66 1.8 3.62 3.83 7.59 3.83 6.14 0 8.83-5.43 8.83-13.31 0-8-4.66-13-11-13a13.6 13.6 0 0 0-5.73 1.16zm24.55 7.9v-1.2c4.3-.59 4.87-1 4.87-6.11v-34.59c0-5.37-.36-5.8-4.71-6.43v-1.15a37.82 37.82 0 0 0 9.79-2.45c0 2.31-.16 5.66-.16 10.07v34.55c0 5.06.33 5.47 4.76 6.11v1.2zm41.69-6.07c-4.3 5.45-9 6.93-11.08 6.93-8.58 0-13.6-7.15-13.6-15.12a17.62 17.62 0 0 1 4.42-12.09c2.88-3.13 6.73-5 10.22-5a10.26 10.26 0 0 1 10.25 10c0 1.19-.13 1.83-.67 2-1.39.44-10 .93-19.38 1.12-.22 11 6 14.89 11.11 14.89a11.47 11.47 0 0 0 8-3.67zm-12-23.16c-3.47 0-6.66 2.79-7.61 8.72 4.23.11 11.18.06 13.44-.21.63 0 .85-.41.85-1.24.04-3.61-2.17-7.27-6.68-7.27zm-150.64 93.04c-4.82.79-5.54 1.8-8.13 8-2.24 5.54-9.94 25.06-15.34 39h-1c-4.75-13.4-9.65-26.86-14.4-40-2-5.62-3-6.19-7.71-7v-.87h16.85v.87c-4.82.93-5.4 1.72-4.53 4.46 1.8 5.54 10.51 29 12.31 33.77 2.88-7.34 8.5-22.54 11.81-31.83 1.58-4.39 1.51-5.47-5-6.4v-.87h15.12zm13.97 46.78a4.81 4.81 0 0 1-3.24-1.44 5.48 5.48 0 0 1-1.59-3.24c-2.59 1.87-6.33 4.68-8 4.68a8 8 0 0 1-7.92-7.92c0-3.24 1.73-5.18 5.11-6.34 3.89-1.37 9-3 10.88-4.25v-2.16c0-5.18-2.52-8.56-6.41-8.56a4.13 4.13 0 0 0-3.17 1.29 13.61 13.61 0 0 0-1.95 4.54 1.43 1.43 0 0 1-1.36 1.15 2.76 2.76 0 0 1-2.52-2.52c0-.58.5-1.15 1.72-2.09 1.88-1.44 6.92-4.32 9.87-5a8.86 8.86 0 0 1 5.26 1.73c2.37 2.16 3.09 4.54 3.09 8.79v12.89c0 3.45 1.15 4.6 2.52 4.6a3.27 3.27 0 0 0 2.23-.72l.44.94zm-4.75-17.21c-1.23.79-5 2.23-6.92 3.17-2.37 1.08-4.1 2.45-4.1 5a5.22 5.22 0 0 0 5.26 5.4 7.77 7.77 0 0 0 5.61-2.45c0-3.39.15-7.36.15-11.1zm25.92 16.37h-14.69v-.87c4.17-.65 4.46-1 4.46-6.26v-14.48c0-4.6 0-5-3.67-5.9v-.72a30.36 30.36 0 0 0 8.57-3c-.08 1.29-.08 5.11-.22 7.77 1.73-3 5.4-7.49 8.71-7.49 2.09 0 3.53 1.44 3.53 2.81a4.28 4.28 0 0 1-1.8 3.31 1.19 1.19 0 0 1-1.65 0c-1.08-1.08-1.95-1.8-3.24-1.8s-3.68 1.59-5.55 5.19V1389c0 5.11.36 5.47 5.55 6.26zm8.34 0v-.87c4.47-.72 4.76-1.08 4.76-6.26v-14.48c0-4.89-.29-5.25-4.11-6v-.72a38.89 38.89 0 0 0 8.93-2.81c-.07 1.44-.14 5.69-.14 8.93v15c0 5.32.43 5.61 4.75 6.33v.87zm6.77-40.33a3.14 3.14 0 0 1-3-3 3.08 3.08 0 0 1 3.1-3.1 3 3 0 0 1 3 3.1 3.06 3.06 0 0 1-3.1 3zm30.82 41.17a4.81 4.81 0 0 1-3.24-1.44 5.48 5.48 0 0 1-1.59-3.24c-2.59 1.87-6.33 4.68-8 4.68a8 8 0 0 1-7.92-7.92c0-3.24 1.73-5.18 5.11-6.34 3.89-1.37 9-3 10.88-4.25v-2.16c0-5.18-2.52-8.56-6.41-8.56a4.13 4.13 0 0 0-3.17 1.29 13.41 13.41 0 0 0-1.94 4.54 1.44 1.44 0 0 1-1.37 1.15 2.76 2.76 0 0 1-2.52-2.52c0-.58.5-1.15 1.73-2.09 1.87-1.44 6.91-4.32 9.86-5a8.86 8.86 0 0 1 5.26 1.73c2.37 2.16 3.09 4.54 3.09 8.79v12.89c0 3.45 1.16 4.6 2.52 4.6a3.32 3.32 0 0 0 2.24-.72l.43.94zm-4.75-17.21c-1.23.79-5 2.23-6.92 3.17-2.37 1.08-4.1 2.45-4.1 5a5.22 5.22 0 0 0 5.26 5.4 7.77 7.77 0 0 0 5.61-2.45c0-3.39.15-7.36.15-11.1zm25.48-14.09a6.14 6.14 0 0 1 2.31-.51c7.27 0 13.39 5.76 13.39 14.4a17.19 17.19 0 0 1-17.14 17.41 28.4 28.4 0 0 1-9.72-2.3c.15-1.8.15-3.68.15-5.48v-35.35c0-5-.29-5.69-4.68-6.48v-.79a36.5 36.5 0 0 0 9.5-2.45c-.14 2.09-.21 6.55-.21 9.43v14.91zm-6.4 22.75a7 7 0 0 0 .36 2.59c.57 1.8 3.6 3.82 7.77 3.82 6.12 0 8.64-5.47 8.64-13.25 0-8-4.53-13-11.09-13a13.46 13.46 0 0 0-5.68 1.08zm24.04 7.71v-.87c4.18-.65 4.76-1 4.76-6.33v-34.64c0-5.76-.36-6.19-4.61-6.84v-.86a34.13 34.13 0 0 0 9.43-2.45c-.07 1.87-.22 5.18-.22 10V1389c0 5.18.29 5.61 4.61 6.33v.87zm40.54-6.05c-4.18 5.33-8.71 6.91-10.73 6.91-8.49 0-13.39-7.13-13.39-15a17.24 17.24 0 0 1 4.32-11.88c2.81-3 6.62-5 10-5a9.88 9.88 0 0 1 9.93 9.58c0 1.08-.07 1.73-.36 1.8-1.36.5-9.79.94-19.44 1.08-.21 11.52 6.12 15.41 11.24 15.41a11.21 11.21 0 0 0 7.84-3.67zm-11.81-23c-3.53 0-6.69 2.66-7.63 8.64a132.31 132.31 0 0 0 13.9-.22c.36-.07.5-.43.5-1.15 0-3.5-2.09-7.24-6.77-7.24zM34.71 1031.13c-2.48.31-3.06.64-4.4 3.92-.95 2.3-5.75 13.92-7.67 18.72h-1.33c-2.08-5.63-5.32-14.32-7.34-19.49-1-2.59-1.65-2.94-3.88-3.14V1030h9.38v1.12c-2.71.28-2.85.69-2.33 2 .95 2.7 3.56 9.72 5.79 15.57 2.07-5 4.47-11 5.92-14.86.78-2.09.39-2.43-2.64-2.76V1030h8.5zm8.44 22.71a2.7 2.7 0 0 1-1.7-.69 3.39 3.39 0 0 1-.89-1.64c-1.47 1-3.26 2.33-4.44 2.33a4.5 4.5 0 0 1-4.46-4.52c0-1.78 1-3 3-3.67 2.27-.76 5-1.71 5.8-2.34v-.7c0-2.54-1.33-3.95-3.17-3.95a2.2 2.2 0 0 0-1.73.8 7.51 7.51 0 0 0-1 2.34 1.06 1.06 0 0 1-1.1.85 1.77 1.77 0 0 1-1.63-1.62c0-.53.48-1 1.21-1.48a16.06 16.06 0 0 1 5.3-2.53 5.15 5.15 0 0 1 3.1 1 5 5 0 0 1 1.86 4.21v6.94c0 1.67.61 2.17 1.26 2.17a3.19 3.19 0 0 0 1.33-.4l.39 1.08zm-2.68-9.18c-.82.41-2.54 1.14-3.44 1.53-1.32.58-2.18 1.26-2.18 2.62a2.61 2.61 0 0 0 2.59 2.75 4.9 4.9 0 0 0 3-1.31zm15.22 8.75h-8.45v-1.11c2.31-.21 2.52-.39 2.52-2.72v-7.48c0-2.35-.15-2.47-2.26-2.72v-1a21.59 21.59 0 0 0 5.19-1.46v4c1.33-2 2.87-3.87 4.65-3.87a1.91 1.91 0 0 1 2.14 1.76 2.46 2.46 0 0 1-1.26 2.06.74.74 0 0 1-.95-.08 2.41 2.41 0 0 0-1.66-.89c-.78 0-2.15 1.17-2.92 3.05v6.63c0 2.36.17 2.55 3 2.75zm4.9 0v-1.11c2.31-.21 2.56-.39 2.56-2.85v-7.35c0-2.24-.1-2.4-2.31-2.74v-1a24.44 24.44 0 0 0 5.24-1.44v12.49c0 2.45.26 2.63 2.63 2.85v1.11zm3.81-19.81a2 2 0 0 1 0-4 2 2 0 0 1 1.91 2.05 2 2 0 0 1-1.91 1.95zm17.23 20.24a2.65 2.65 0 0 1-1.69-.69 3.49 3.49 0 0 1-.9-1.64c-1.47 1-3.26 2.33-4.44 2.33a4.5 4.5 0 0 1-4.46-4.52c0-1.78 1-3 3-3.67 2.26-.76 5-1.71 5.79-2.34v-.7c0-2.54-1.32-3.95-3.17-3.95a2.16 2.16 0 0 0-1.72.8 7.26 7.26 0 0 0-1 2.34 1 1 0 0 1-1.09.85 1.78 1.78 0 0 1-1.64-1.62c0-.53.48-1 1.21-1.48a16.06 16.06 0 0 1 5.3-2.53 5.15 5.15 0 0 1 3.1 1 5 5 0 0 1 1.86 4.21v6.94c0 1.67.61 2.17 1.27 2.17a3.28 3.28 0 0 0 1.33-.4l.39 1.08zm-2.63-9.18c-.82.41-2.54 1.14-3.44 1.53-1.32.58-2.17 1.26-2.17 2.62a2.6 2.6 0 0 0 2.58 2.75 4.88 4.88 0 0 0 3-1.31zm14-7.25a4.81 4.81 0 0 1 1.73-.39 7.44 7.44 0 0 1 7.19 7.68 9.25 9.25 0 0 1-9.1 9.14 13.72 13.72 0 0 1-5.6-1.32v-20.11c0-2.21-.13-2.44-2.47-2.62v-1a30.44 30.44 0 0 0 5.41-1.21v11.02zm-2.83 11.76a3.09 3.09 0 0 0 .19 1.26 4.16 4.16 0 0 0 3.59 1.89c3 0 4.68-2.59 4.68-6.69s-2.54-6.53-5.47-6.53a7.24 7.24 0 0 0-3 .69zm13.21 4.24v-1.11c2.34-.21 2.64-.4 2.64-2.75v-17c0-2.22-.18-2.42-2.53-2.68v-1a25.89 25.89 0 0 0 5.46-1.21v22c0 2.36.25 2.54 2.64 2.75v1.11zm22.9-3.07c-2.37 2.89-5 3.5-6.15 3.5-4.44 0-7.17-3.63-7.17-7.88a9.21 9.21 0 0 1 2.35-6.29 7.41 7.41 0 0 1 5.47-2.65 5.77 5.77 0 0 1 5.68 5.78c0 .74-.14 1.08-.74 1.22-.93.17-5.5.47-9.79.61 0 4.69 2.87 6.65 5.42 6.65a6.38 6.38 0 0 0 4.31-1.86zm-6.35-11.87c-1.71 0-3.35 1.59-3.82 4.53 2 0 4.1 0 6.23-.11.68 0 .89-.18.89-.74a3.43 3.43 0 0 0-3.3-3.68zm-78.73 97.9c-3.21.49-3.84 1.05-5.57 5.27-1.4 3.46-7.2 17.83-10.25 25.65h-1.07c-3-8.39-6.67-18.37-9.65-26.41-1.34-3.66-2.08-4.09-5.11-4.51v-.92h11.66v.92c-3.37.52-3.67 1.07-3.05 2.87 1.2 3.61 6 16.55 8 21.85 2.19-5.47 5.68-14.57 7.91-20.7 1.06-2.87.78-3.46-3.37-4v-.92h10.5zm9.85 30.86a3.32 3.32 0 0 1-2.2-.94 4 4 0 0 1-1.1-2.16c-1.81 1.27-4.24 3.1-5.52 3.1a5.57 5.57 0 0 1-5.53-5.56c0-2.24 1.21-3.64 3.64-4.48 2.74-1 6.23-2.09 7.4-3V1153c0-3.44-1.71-5.57-4.25-5.57a2.77 2.77 0 0 0-2.18 1 9.33 9.33 0 0 0-1.3 3.06 1.13 1.13 0 0 1-1.12.92 2 2 0 0 1-1.87-1.87c0-.52.46-1 1.34-1.63a21.36 21.36 0 0 1 6.73-3.33 6.21 6.21 0 0 1 3.73 1.21c1.63 1.44 2.24 3 2.24 5.73v8.89c0 2.26.79 3 1.68 3a2.83 2.83 0 0 0 1.59-.5l.38.94zm-3.31-11.77c-.93.53-3.34 1.51-4.55 2.07-1.69.76-2.82 1.68-2.82 3.43a3.49 3.49 0 0 0 3.48 3.64 5.65 5.65 0 0 0 3.83-1.68c0-2.28.06-5.07.06-7.46zm18.32 11.2H55.71v-.92c2.89-.37 3.12-.61 3.12-3.94v-9.8c0-3.12-.08-3.34-2.68-3.81v-.8a22.92 22.92 0 0 0 6.18-2c0 1.18 0 3.53-.08 5.22 1.39-2.23 3.65-5 5.94-5a2.3 2.3 0 0 1 2.54 2.06 3 3 0 0 1-1.39 2.4.86.86 0 0 1-1.17 0 3 3 0 0 0-2.16-1.2c-1 0-2.59 1.25-3.76 3.67v9.32c0 3.3.24 3.54 3.81 4zm5.84 0v-.92c3-.4 3.25-.64 3.25-4V1152c0-3.14-.17-3.36-2.86-3.84v-.78a28 28 0 0 0 6.34-1.89c0 1.43-.06 3.9-.06 6v10.24c0 3.42.31 3.63 3.3 4v.92zm4.73-26.66a2.34 2.34 0 0 1-2.26-2.26 2.29 2.29 0 0 1 2.3-2.31 2.21 2.21 0 0 1 2.21 2.31 2.27 2.27 0 0 1-2.25 2.26zM98 1167.23a3.32 3.32 0 0 1-2.2-.94 3.9 3.9 0 0 1-1.1-2.16c-1.82 1.27-4.25 3.1-5.52 3.1a5.58 5.58 0 0 1-5.54-5.56c0-2.24 1.22-3.64 3.64-4.48 2.75-1 6.24-2.09 7.4-3V1153c0-3.44-1.7-5.57-4.25-5.57a2.78 2.78 0 0 0-2.18 1 9.56 9.56 0 0 0-1.29 3.06 1.14 1.14 0 0 1-1.13.92 2 2 0 0 1-1.87-1.87c0-.52.46-1 1.34-1.63a21.47 21.47 0 0 1 6.73-3.33 6.26 6.26 0 0 1 3.74 1.21c1.63 1.44 2.23 3 2.23 5.73v8.89c0 2.26.79 3 1.68 3a2.86 2.86 0 0 0 1.6-.5l.37.94zm-3.32-11.77c-.92.53-3.33 1.51-4.54 2.07-1.69.76-2.82 1.68-2.82 3.43a3.48 3.48 0 0 0 3.48 3.64 5.69 5.69 0 0 0 3.83-1.68c-.05-2.28 0-5.07 0-7.46zm17.51-9.46a4.6 4.6 0 0 1 1.79-.4c5 0 9.16 4.11 9.16 9.85a11.78 11.78 0 0 1-11.61 11.81 18.24 18.24 0 0 1-6.89-1.62v-27.14c0-3.16-.17-3.56-3.16-4v-.85a29.72 29.72 0 0 0 6.64-1.63c-.06 1.61-.08 4.11-.08 6v9.66zm-4.1 15.36a4.33 4.33 0 0 0 .24 1.71c.47 1.2 2.42 2.56 5 2.56 4.1 0 6-3.6 6-8.9s-3.15-8.69-7.35-8.69a9.11 9.11 0 0 0-3.83.81zm16.55 5.3v-.92c2.91-.37 3.3-.61 3.3-4v-23c0-3.43-.24-3.72-3.18-4.13v-.88a26.92 26.92 0 0 0 6.65-1.63c0 1.7-.08 4-.08 6.74v23c0 3.33.23 3.59 3.22 4v.92zm28.17-4.06c-2.92 3.68-6.09 4.63-7.52 4.63-5.75 0-9.14-4.77-9.14-10.13a11.84 11.84 0 0 1 3-8.14 9.74 9.74 0 0 1 6.88-3.39 7 7 0 0 1 6.95 6.85c0 .83-.12 1.26-.56 1.37a114.3 114.3 0 0 1-12.9.76c-.14 7.13 4 9.74 7.36 9.74a7.74 7.74 0 0 0 5.38-2.44zm-8.05-15.5c-2.28 0-4.42 1.9-5.06 5.84 2.79.06 7 0 8.79-.14.52 0 .7-.27.7-.85.02-2.44-1.5-4.85-4.43-4.85zm-96.25 94.81c-4 .62-4.74 1.37-6.9 6.6-1.79 4.43-8.75 21.8-12.8 32.23h-1.16c-3.84-10.73-8.24-22.76-12-33.14-1.68-4.61-2.57-5.12-6.4-5.69v-1h14.34v1c-4.14.69-4.55 1.37-3.79 3.63 1.5 4.55 7.93 21.91 10.08 27.6 2.63-6.59 7.1-18.42 9.88-26.1 1.32-3.61 1.07-4.41-4.19-5.13v-1h12.94zm12.05 38.72a4.11 4.11 0 0 1-2.73-1.19 4.83 4.83 0 0 1-1.36-2.7c-2.23 1.58-5.29 3.89-6.81 3.89a6.86 6.86 0 0 1-6.81-6.83c0-2.77 1.49-4.47 4.45-5.49 3.36-1.17 7.69-2.56 9.18-3.64V1263c0-4.3-2.12-7-5.32-7a3.45 3.45 0 0 0-2.69 1.17 11.56 11.56 0 0 0-1.62 3.82 1.35 1.35 0 0 1-1.32 1.08 2.47 2.47 0 0 1-2.25-2.26c0-.58.52-1.13 1.59-1.93a27.62 27.62 0 0 1 8.35-4.16 7.61 7.61 0 0 1 4.57 1.5c2 1.8 2.71 3.79 2.71 7.21v11c0 2.85 1 3.77 2.1 3.77a3.23 3.23 0 0 0 1.95-.61l.43 1zM56.48 1266c-1.1.66-4.16 1.88-5.71 2.61-2.06.93-3.49 2.07-3.49 4.25a4.36 4.36 0 0 0 4.37 4.54 6.91 6.91 0 0 0 4.75-2.08c0-2.82.08-6.24.08-9.32zM79 1279.91H66.27v-1c3.57-.49 3.85-.79 3.85-5v-12.21c0-3.87-.07-4.18-3.26-4.82v-.88a27.45 27.45 0 0 0 7.53-2.5c0 1.34 0 4.36-.13 6.52 1.63-2.7 4.53-6.3 7.36-6.3a2.84 2.84 0 0 1 3.1 2.5 3.71 3.71 0 0 1-1.66 2.92 1 1 0 0 1-1.43 0 3.79 3.79 0 0 0-2.7-1.5c-1.22 0-3.18 1.48-4.67 4.49v11.75c0 4.18.3 4.48 4.7 5.05zm7.13 0v-1c3.73-.53 4-.83 4-5.08v-12.15c0-4-.22-4.26-3.52-4.86v-.82a33.82 33.82 0 0 0 7.75-2.36c0 1.59-.08 4.83-.08 7.48v12.69c0 4.33.37 4.59 4.06 5.12v1zm5.81-33.45a2.81 2.81 0 0 1-2.71-2.71A2.75 2.75 0 0 1 92 1241a2.65 2.65 0 0 1 2.67 2.78 2.72 2.72 0 0 1-2.73 2.68zm26.34 34.17a4.1 4.1 0 0 1-2.73-1.19 4.77 4.77 0 0 1-1.36-2.7c-2.23 1.58-5.3 3.89-6.81 3.89a6.86 6.86 0 0 1-6.81-6.83c0-2.77 1.49-4.47 4.45-5.49 3.36-1.17 7.69-2.56 9.18-3.64V1263c0-4.3-2.12-7-5.32-7a3.48 3.48 0 0 0-2.7 1.17 11.78 11.78 0 0 0-1.62 3.82 1.34 1.34 0 0 1-1.31 1.08 2.47 2.47 0 0 1-2.25-2.26c0-.58.52-1.13 1.59-1.93a27.56 27.56 0 0 1 8.34-4.16 7.59 7.59 0 0 1 4.57 1.5c2 1.8 2.72 3.79 2.72 7.21v11c0 2.85 1 3.77 2.1 3.77a3.28 3.28 0 0 0 2-.61l.43 1zM114.2 1266c-1.11.66-4.16 1.88-5.71 2.61-2.07.93-3.49 2.07-3.49 4.25a4.36 4.36 0 0 0 4.36 4.54 6.87 6.87 0 0 0 4.75-2.08c0-2.82.09-6.24.09-9.32zm21.72-11.78a5.52 5.52 0 0 1 2.12-.48c6.17 0 11.35 5 11.35 12.21a14.6 14.6 0 0 1-14.39 14.68 23.18 23.18 0 0 1-8.43-2c.08-1.52.08-3.1.08-4.63v-29.3c0-4-.22-4.55-3.93-5.11v-.92a34.8 34.8 0 0 0 8.16-2c-.08 1.91-.13 5.25-.13 7.65v12.2zm-5.21 19.11a5.64 5.64 0 0 0 .3 2.14c.55 1.5 3 3.2 6.33 3.2 5.12 0 7.35-4.52 7.35-11.09s-3.88-10.86-9.2-10.86a11.32 11.32 0 0 0-4.78 1zm20.49 6.58v-1c3.58-.49 4.06-.79 4.06-5.09V1245c0-4.47-.3-4.83-3.93-5.36v-1a31.69 31.69 0 0 0 8.16-2c0 1.92-.13 4.72-.13 8.39v28.79c0 4.22.28 4.56 4 5.09v1zm34.73-5.06c-3.58 4.54-7.48 5.78-9.23 5.78-7.15 0-11.33-6-11.33-12.6a14.72 14.72 0 0 1 3.68-10.08 12.2 12.2 0 0 1 8.52-4.21 8.56 8.56 0 0 1 8.54 8.36c0 1-.12 1.53-.56 1.64-1.16.37-8.37.78-16.15.94-.18 9.15 5 12.4 9.25 12.4a9.55 9.55 0 0 0 6.66-3.06zm-10-19.3c-2.89 0-5.55 2.33-6.35 7.27 3.53.09 9.33 0 11.2-.18.53 0 .72-.34.72-1 .04-3.04-1.8-6.09-5.5-6.09zm-120.57 91.67c-4.82.79-5.54 1.8-8.13 8-2.24 5.54-9.94 25.06-15.34 39h-1c-4.75-13.4-9.65-26.86-14.4-40-2-5.62-3-6.19-7.71-7v-.87h16.84v.87c-4.82.93-5.4 1.72-4.53 4.46 1.8 5.54 10.51 29 12.31 33.77 2.88-7.34 8.5-22.54 11.81-31.83 1.58-4.39 1.51-5.47-5-6.4v-.87h15.15zM69.33 1394a4.81 4.81 0 0 1-3.24-1.44 5.48 5.48 0 0 1-1.59-3.24c-2.59 1.87-6.33 4.68-8 4.68a8 8 0 0 1-7.92-7.92c0-3.24 1.73-5.18 5.11-6.34 3.89-1.37 9-3 10.88-4.25v-2.16c0-5.18-2.52-8.56-6.41-8.56a4.13 4.13 0 0 0-3.17 1.29 13.61 13.61 0 0 0-2 4.54 1.43 1.43 0 0 1-1.36 1.15 2.76 2.76 0 0 1-2.52-2.52c0-.58.5-1.15 1.72-2.09 1.88-1.44 6.92-4.32 9.87-5a8.86 8.86 0 0 1 5.26 1.73c2.37 2.16 3.09 4.54 3.09 8.79v12.89c0 3.45 1.15 4.6 2.52 4.6a3.27 3.27 0 0 0 2.23-.72l.44.94zm-4.75-17.21c-1.23.79-5 2.23-6.92 3.17-2.37 1.08-4.1 2.45-4.1 5a5.22 5.22 0 0 0 5.26 5.4 7.77 7.77 0 0 0 5.61-2.45c0-3.39.15-7.36.15-11.1zm25.92 16.37H75.81v-.87c4.17-.65 4.46-1 4.46-6.26v-14.48c0-4.6 0-5-3.67-5.9v-.72a30.36 30.36 0 0 0 8.57-3c-.08 1.29-.08 5.11-.22 7.77 1.73-3 5.4-7.49 8.71-7.49 2.09 0 3.53 1.44 3.53 2.81a4.28 4.28 0 0 1-1.8 3.31 1.19 1.19 0 0 1-1.65 0c-1.08-1.08-1.95-1.8-3.24-1.8s-3.68 1.59-5.55 5.19V1386c0 5.11.36 5.47 5.55 6.26zm8.34 0v-.87c4.47-.72 4.76-1.08 4.76-6.26v-14.48c0-4.89-.29-5.25-4.11-6v-.72a38.89 38.89 0 0 0 8.93-2.81c-.07 1.44-.14 5.69-.14 8.93v15c0 5.32.43 5.61 4.75 6.33v.87zm6.77-40.33a3.14 3.14 0 0 1-3-3 3.08 3.08 0 0 1 3.1-3.1 3 3 0 0 1 3 3.1 3.06 3.06 0 0 1-3.1 3zm30.82 41.17a4.81 4.81 0 0 1-3.24-1.44 5.48 5.48 0 0 1-1.59-3.24c-2.59 1.87-6.33 4.68-8 4.68a8 8 0 0 1-7.92-7.92c0-3.24 1.73-5.18 5.11-6.34 3.89-1.37 9-3 10.88-4.25v-2.16c0-5.18-2.52-8.56-6.41-8.56a4.13 4.13 0 0 0-3.17 1.29 13.41 13.41 0 0 0-1.94 4.54 1.44 1.44 0 0 1-1.37 1.15 2.76 2.76 0 0 1-2.52-2.52c0-.58.5-1.15 1.73-2.09 1.87-1.44 6.91-4.32 9.86-5a8.86 8.86 0 0 1 5.26 1.73c2.37 2.16 3.09 4.54 3.09 8.79v12.89c0 3.45 1.16 4.6 2.52 4.6a3.32 3.32 0 0 0 2.24-.72l.43.94zm-4.75-17.21c-1.23.79-5 2.23-6.92 3.17-2.37 1.08-4.1 2.45-4.1 5a5.22 5.22 0 0 0 5.26 5.4 7.77 7.77 0 0 0 5.61-2.45c0-3.39.15-7.36.15-11.1zm25.48-14.09a6.14 6.14 0 0 1 2.31-.51c7.27 0 13.39 5.76 13.39 14.4a17.19 17.19 0 0 1-17.14 17.41 28.4 28.4 0 0 1-9.72-2.3c.15-1.8.15-3.68.15-5.48v-35.35c0-5-.29-5.69-4.68-6.48v-.79a36.5 36.5 0 0 0 9.5-2.45c-.14 2.09-.21 6.55-.21 9.43v14.91zm-6.4 22.75a7 7 0 0 0 .36 2.59c.57 1.8 3.6 3.82 7.77 3.82 6.12 0 8.64-5.47 8.64-13.25 0-8-4.53-13-11.09-13a13.46 13.46 0 0 0-5.68 1.08zm24.04 7.71v-.87c4.18-.65 4.76-1 4.76-6.33v-34.64c0-5.76-.36-6.19-4.61-6.84v-.86a34.13 34.13 0 0 0 9.43-2.45c-.07 1.87-.22 5.18-.22 10V1386c0 5.18.29 5.61 4.61 6.33v.87zm40.54-6.05c-4.18 5.33-8.71 6.91-10.73 6.91-8.49 0-13.39-7.13-13.39-15a17.24 17.24 0 0 1 4.32-11.88c2.81-3 6.62-5 10-5a9.88 9.88 0 0 1 9.93 9.58c0 1.08-.07 1.73-.36 1.8-1.36.5-9.79.94-19.44 1.08-.21 11.52 6.12 15.41 11.24 15.41a11.21 11.21 0 0 0 7.84-3.67zm-11.81-23c-3.53 0-6.69 2.66-7.63 8.64a132.31 132.31 0 0 0 13.9-.22c.36-.07.5-.43.5-1.15 0-3.5-2.09-7.24-6.77-7.24z"/><path d="M10.5 132.5h332m43.5 0h332m47 0h332M10.5 875.5H719" class="f23befd9-e76a-43fc-8e2d-ea8e90300156"/><path d="M879.58 1195.5H800.7v23.48h7.04v-16.44h32.4v94.86h7.04v-94.86h32.4v16.44h7.05v-23.48h-7.05zm155 0h-91.91v35.87h29.14v-22.85h5.23v88.88h29.14v-88.88h5.98v22.85h29.14v-35.87h-6.72zM800.7 1334.48h240.61v8.22H800.7z" class="aaf9aa04-65b7-4de9-bdd7-a92626ba4042"/><circle cx="863.66" cy="1338.59" r="21.67" class="bfcc73c4-cd68-4faf-acdd-7401a971b841"/><path d="M863.66 1364a25.41 25.41 0 1 1 25.41-25.41 25.43 25.43 0 0 1-25.41 25.41zm0-43.34a17.94 17.94 0 1 0 17.94 17.93 18 18 0 0 0-17.94-17.93z" class="aaf9aa04-65b7-4de9-bdd7-a92626ba4042"/><path d="M766.5 1158H1070v235H766.5z" class="a6a6c9d8-ef5c-40d0-9371-a275ccc8998e"/></svg>