<svg xmlns="http://www.w3.org/2000/svg" id="Layer_1" viewBox="0 0 800 875.4" width="800" height="875.4"><style>.st0,.st1{fill:none;stroke:#231f20;stroke-miterlimit:10}.st1{stroke:#ec1c24}.st2{fill:#6d6e70}.st3{fill:#b2b3b3}.st4{fill:none;stroke:#969696;stroke-miterlimit:10}.st5{stroke:#c8c8c8;stroke-width:.5}.st5,.st6,.st7{fill:none;stroke-miterlimit:10}.st6{stroke-width:.5;stroke-dasharray:7.95,7.95;stroke:#c8c8c8}.st7{stroke:#b2b3b3}.st8{fill:#2997ff}.st9{fill:#fff}</style><g id="e7e0a40d-72f8-4c60-83b9-2b8b789d16a4"><g id="a3740d23-fb51-4ca8-a7bd-31da3d6f56ea"><path d="M680.9 17.9v46.8M108 17.9v46.8m572.9 763.9v46.8M108 828.6v46.8M50 75.9h46.8M50 817.3h46.8M692.1 75.9H739m-46.9 741.4H739" class="st0"/><path d="M689.3 67.5v758.3H99.6V67.5h589.7z" class="st1"/><path d="M108 75.9h572.9v741.4H108V75.9z" class="st0"/><path d="M713.4 126.5h-3V111h3v15.5zm13.2-8.6v8.6h-2.9v-8.2c0-1.5-.6-1.9-1.5-1.9s-1.8.7-2.5 1.8v8.3h-2.9v-11.9h2.5l.2 1.6c.8-1.2 2.2-1.9 3.6-1.9 2.2-.1 3.5 1.3 3.5 3.6zm11.2-2.2l-1.1 1.7c-.9-.6-1.9-.9-3-.9s-1.8.5-1.8 1.2.5 1.1 2.5 1.7c2.4.7 3.8 1.6 3.8 3.7 0 2.5-2.3 3.7-5 3.7-1.7.1-3.4-.5-4.7-1.7l1.4-1.6c.9.7 2.1 1.1 3.2 1.2 1.3 0 2.1-.5 2.1-1.4 0-.9-.5-1.3-2.7-1.9-2.4-.7-3.5-1.9-3.5-3.6 0-2 1.9-3.5 4.6-3.5 1.5-.1 3 .4 4.2 1.4zm5.9-5.4c0 1-.7 1.8-1.8 1.9-1 0-1.8-.7-1.9-1.8 0-1 .7-1.8 1.8-1.9 1-.1 1.8.6 1.9 1.6v.2zm-.4 16.1h-2.9v-11.9h2.9v11.9zm13.3-16.6v16.6h-2.5l-.2-1.5c-.7 1.2-2 1.9-3.4 1.9-3 0-4.5-2.5-4.5-6.3s1.9-6.3 4.8-6.3c1.1 0 2.2.5 3 1.3v-6l2.8.3zm-2.9 13.3v-5.4c-.5-.8-1.4-1.2-2.3-1.3-1.5 0-2.5 1.3-2.5 4.1 0 3.1.9 4.1 2.3 4.1 1.1 0 2.1-.6 2.5-1.5zm16-1.7h-7.5c.2 2.4 1.3 3.2 2.9 3.2 1.1 0 2.1-.4 3-1l1.2 1.6c-1.2 1-2.8 1.6-4.4 1.6-3.7 0-5.6-2.4-5.6-6.2 0-3.8 1.9-6.4 5.3-6.4s5.2 2.2 5.2 6c0 .4-.1.9-.1 1.2zm-2.8-2c0-1.9-.7-3.1-2.3-3.1-1.3 0-2.2.9-2.4 3.3h4.7v-.2zm-41.8 34h-2.9l-.4-6.5c-.1-2.3-.2-4.7-.2-6.3l-2.8 11.1H716l-3-11.2c.1 2.1.1 4.3-.1 6.4l-.4 6.4h-2.9l1.2-15.5h3.8l2.8 10.9 2.6-10.9h3.9l1.2 15.6zm12.4-1.6l-.6 1.9c-1.2.1-2.2-.6-2.6-1.7-.8 1.2-2.2 1.8-3.6 1.8-1.9.2-3.6-1.3-3.8-3.2v-.5c0-2.6 1.9-4 5.4-4h1.5v-.7c0-1.5-.7-2.1-2.2-2.1-1.1 0-2.1.3-3.2.6l-.7-1.9c1.4-.5 2.8-.8 4.3-.9 3.2 0 4.6 1.5 4.6 4.1v5c0 1 .3 1.4.9 1.6zm-3.8-1.6v-2.4h-1.2c-1.9 0-2.8.7-2.8 2.1-.1.9.5 1.7 1.3 1.8h.4c1 0 1.9-.6 2.3-1.5zm13.4-8.8l-.5 2.8c-.3-.1-.7-.1-1.1-.1-1.4 0-2.2 1.1-2.6 3.1v6.3H740v-11.9h2.5l.3 2.3c.6-1.7 1.7-2.6 3.1-2.6.4-.1.8 0 1.2.1zm11.8.8c-1.1.3-2.3.5-3.4.4 1.3.4 2.2 1.7 2.2 3.1 0 2.3-1.8 4-4.8 4-.5 0-1-.1-1.4-.2-.3.2-.5.5-.5.9s.2.8 1.4.8h1.8c2.6 0 4.3 1.4 4.3 3.4 0 2.4-2 3.7-5.9 3.7-4.2 0-5.4-1.3-5.4-3.7h2.6c0 1.2.5 1.7 2.9 1.7s3-.6 3-1.6-.7-1.4-2-1.4h-1.8c-2.4 0-3.4-1.1-3.4-2.3.1-.9.6-1.8 1.4-2.2-1.3-.6-2.2-1.9-2.1-3.4 0-2.6 2-4.3 4.9-4.3 1.9.1 3.9-.3 5.6-1.3l.6 2.4zm-8.3 3.2c-.2 1.1.6 2.2 1.8 2.3h.3c1.4 0 2.1-.9 2.1-2.4s-.7-2.2-2.2-2.2c-1.1 0-2 .8-2.1 2 .1.1.1.2.1.3zm13.2-8.1c0 1-.8 1.8-1.7 1.9-1 0-1.8-.8-1.9-1.7 0-1 .8-1.8 1.7-1.9.9-.1 1.8.7 1.8 1.6.1 0 .1 0 .1.1zm-.3 16.1h-2.9v-11.9h2.9v11.9zm13.1-8.6v8.6h-2.9v-8.2c0-1.5-.6-1.9-1.5-1.9s-1.8.7-2.5 1.8v8.3h-2.9v-11.9h2.5l.2 1.6c.8-1.2 2.2-1.9 3.6-1.9 2.2 0 3.5 1.3 3.5 3.6zm-61.3 17.7c-4.2 6-4.2 14.1 0 20.1l-1.9 1.2c-2.2-3.1-4.3-5.9-4.3-11.2 0-5.3 2-8.2 4.3-11.3l1.9 1.2zm13.5 13.4c0 3.4-2.7 4.5-6.5 4.5h-4.7v-15.5h4.1c4 0 6.4 1.1 6.4 4 0 1.7-1.2 3.1-2.9 3.4 1.9.2 3.6 1 3.6 3.6zm-8.2-8.9v4.2h1.8c1.6 0 2.7-.7 2.7-2.2s-1.1-2-3.1-2h-1.4zm5.1 8.8c0-1.9-1.3-2.5-3.1-2.5h-2.1v4.9h1.7c2.1 0 3.5-.4 3.5-2.4zm8.8-11.6c0 1-.7 1.8-1.7 1.9-1 0-1.8-.7-1.9-1.7s.7-1.8 1.7-1.9h.1c.9-.1 1.8.7 1.8 1.6v.1zm-.3 16.2h-2.9v-11.9h2.9v11.9zm13-8.6v8.6h-2.9v-8.2c0-1.5-.6-1.9-1.5-1.9s-1.8.7-2.5 1.8v8.3h-2.9v-11.9h2.5l.2 1.6c.8-1.2 2.2-1.9 3.6-1.9 2.3 0 3.5 1.3 3.5 3.6zm13.3-8.1v16.6H758l-.2-1.5c-.7 1.2-2 1.9-3.4 1.9-3 0-4.5-2.5-4.5-6.3s1.9-6.3 4.8-6.3c1.1 0 2.2.5 3 1.3v-6l2.8.3zm-2.9 13.3v-5.4c-.5-.8-1.4-1.2-2.3-1.3-1.5 0-2.5 1.3-2.5 4.1 0 3.1.9 4.1 2.3 4.1 1.1 0 2-.6 2.5-1.5zm9.4-12.8c0 1-.8 1.8-1.7 1.9-1 0-1.8-.8-1.9-1.7 0-1 .8-1.8 1.7-1.9.9-.1 1.8.7 1.8 1.6.1 0 .1.1.1.1zm-.3 16.2h-2.9v-11.9h2.9v11.9zm13-8.6v8.6h-2.9v-8.2c0-1.5-.6-1.9-1.5-1.9s-1.8.7-2.5 1.8v8.3H770v-11.9h2.5l.2 1.6c.8-1.2 2.2-1.9 3.6-1.9 2.2 0 3.4 1.3 3.4 3.6zm13.7-2.7c-1.1.3-2.3.5-3.4.4 1.3.4 2.2 1.7 2.2 3.1 0 2.3-1.8 4-4.8 4-.5 0-1 0-1.4-.2-.3.2-.5.5-.5.9s.2.8 1.4.8h1.9c2.6 0 4.3 1.4 4.3 3.4 0 2.4-2 3.8-5.9 3.8-4.2 0-5.4-1.3-5.4-3.7h2.6c0 1.2.5 1.7 2.9 1.7s3-.6 3-1.6-.7-1.4-2-1.4h-1.8c-2.4 0-3.4-1.1-3.4-2.3.1-.9.6-1.8 1.4-2.2-1.3-.6-2.2-1.9-2.1-3.4 0-2.6 2-4.3 4.9-4.3 1.9.1 3.9-.3 5.6-1.3l.5 2.3zm-8.3 3.3c-.2 1.1.6 2.2 1.8 2.3h.3c1.4 0 2.1-.9 2.1-2.4s-.7-2.2-2.2-2.2c-1.1 0-2 .8-2.1 2 0 .1 0 .2.1.3zm14.9.1c0 5.3-2 8.2-4.3 11.2l-1.8-1.2c4.2-6 4.2-14.1 0-20.1l1.8-1.2c2.3 3.1 4.3 6 4.3 11.3z" class="st2"/><path d="M193.3 787.8h-1.7v-5.4l-1.6.9-.7-1.1 2.5-1.5h1.5v7.1zm7.3-7.5l-6.9 13.5-1.3-.6 6.9-13.5 1.3.6zm3.3 9.7c0 1.4-1.1 2.6-2.5 2.6h-.2c-2 0-2.8-1.4-2.8-3.4 0-2.4 1.2-4 3.2-4 .6 0 1.2.1 1.7.5l-.6 1c-.3-.2-.7-.3-1-.3-.9 0-1.4.7-1.5 1.9.4-.4 1-.7 1.6-.7 1.2 0 2.1.9 2.1 2v.4zm-1.7 0c0-.9-.3-1.2-.9-1.2-.4 0-.8.2-1.1.5 0 1.5.3 2 1 2s1-.5 1-1.3zM134 175.9h-1.7v-5.4l-1.6.9-.7-1.1 2.5-1.5h1.5v7.1zm7.3-7.5l-6.9 13.5-1.3-.6 6.9-13.5 1.3.6zm3.2 9.6c0 1.4-1.1 2.6-2.5 2.6h-.2c-2 0-2.8-1.4-2.8-3.4 0-2.4 1.2-4 3.2-4 .6 0 1.2.1 1.7.5l-.6 1c-.3-.2-.7-.3-1-.3-.9 0-1.4.7-1.5 2 .4-.4 1-.7 1.6-.7 1.1 0 2.1.9 2.1 2 .1.1.1.2 0 .3zm-1.6 0c0-.9-.3-1.2-.9-1.2-.4 0-.8.2-1.1.5 0 1.5.3 2 1 2s1-.4 1-1.3zM135 279c0 1.1-.6 1.9-2.9 3.8h3.1l-.2 1.3h-4.8V283c2.5-2.3 3.1-3 3.1-3.8 0-.5-.3-.9-.8-.9h-.1c-.5 0-1.1.3-1.4.7l-1-.8c.6-.8 1.5-1.2 2.5-1.2 1.6 0 2.5.9 2.5 2zm6.3-2.3l-6.9 13.5-1.3-.6 6.9-13.5 1.3.6zm3.2 9.7c0 1.4-1.1 2.6-2.5 2.6h-.2c-2 0-2.8-1.4-2.8-3.4 0-2.4 1.2-4 3.2-4 .6 0 1.2.1 1.7.5l-.6 1c-.3-.2-.7-.3-1-.3-.9 0-1.4.7-1.5 2 .4-.4 1-.7 1.6-.7 1.1 0 2.1.9 2.1 2 .1.1.1.2 0 .3zm-1.6 0c0-.9-.3-1.2-.9-1.2-.4 0-.8.2-1.1.5 0 1.5.3 2 1 2s1-.5 1-1.3zm-8 100.8c-.9.1-1.6 1-1.4 1.9.1.8.8 1.4 1.7 1.4 0 1.2-1 2.2-2.8 2.2-1 0-1.9-.4-2.5-1.1l.9-.9c.4.4.9.7 1.5.7.7 0 1.2-.4 1.2-1s-.4-1-1.2-1h-.6l.2-1.2h.4c.7 0 1.1-.3 1.1-.9s-.4-.8-1-.8c-.5 0-1.1.2-1.5.6l-.8-.9c.7-.6 1.6-1 2.5-.9 1.5.1 2.3.9 2.3 1.9zm6.4-2.1l-6.9 13.5-1.3-.6 6.9-13.5 1.3.6zm3.2 9.7c0 1.4-1.1 2.6-2.5 2.6h-.2c-2 0-2.8-1.4-2.8-3.4 0-2.4 1.2-4 3.2-4 .6 0 1.2.1 1.7.5l-.6 1c-.3-.2-.7-.3-1-.3-.9 0-1.4.7-1.5 2 .4-.4 1-.7 1.6-.7 1.1 0 2.1.9 2.1 2 .1.1.1.2 0 .3zm-1.6 0c0-.9-.3-1.2-.9-1.2-.4 0-.8.2-1.1.5 0 1.5.3 2 1 2s1-.5 1-1.3zm-7.6 104.6h-.8v1.5h-1.6v-1.5h-3.2v-1.1l2.1-4.6 1.4.5-1.8 3.9h1.5l.3-1.7h1.3v1.7h.8v1.3zm6-6l-6.9 13.5-1.3-.6 6.9-13.5 1.3.6zm3.2 9.7c0 1.4-1.1 2.6-2.5 2.6h-.2c-2 0-2.8-1.4-2.8-3.4 0-2.4 1.2-4 3.2-4 .6 0 1.2.1 1.7.5l-.6 1c-.3-.2-.7-.3-1-.3-.9 0-1.4.7-1.5 2 .4-.4 1-.7 1.6-.7 1.1 0 2.1.9 2.1 2 .1.1.1.2 0 .3zm-1.6 0c0-.9-.3-1.2-.9-1.2-.4 0-.8.2-1.1.5 0 1.5.3 2 1 2s1-.4 1-1.3zm-8.2 100.3h-2.8v1.5c.4-.2.8-.3 1.2-.3 1.2 0 2.1.9 2.1 2v.3c0 1.5-1.1 2.5-2.9 2.5-.9 0-1.8-.4-2.5-1.1l.9-.9c.3.4.9.7 1.4.7.6.1 1.1-.4 1.2-1v-.3c0-.9-.4-1.2-1-1.2-.3 0-.7.1-.9.3h-1.2v-3.8h4.5v1.3zm6.6-1.6l-6.9 13.5-1.3-.6 6.9-13.5 1.3.6zm3.2 9.7c0 1.4-1.1 2.6-2.5 2.6h-.2c-2 0-2.8-1.4-2.8-3.4 0-2.4 1.2-4 3.2-4 .6 0 1.2.1 1.7.5l-.6 1c-.3-.2-.7-.3-1-.3-.9 0-1.4.7-1.5 2 .4-.4 1-.7 1.6-.7 1.1 0 2.1.9 2.1 2 .1.1.1.2 0 .3zm-1.6 0c0-.9-.3-1.2-.9-1.2-.4 0-.8.2-1.1.5 0 1.5.3 2 1 2s1-.5 1-1.3zm-7.6 103.7c0 1.4-1.1 2.6-2.5 2.6h-.2c-2 0-2.8-1.4-2.8-3.4 0-2.4 1.2-4 3.2-4 .6 0 1.2.2 1.7.5l-.6 1c-.3-.2-.7-.3-1-.3-.9 0-1.4.7-1.5 2 .4-.4 1-.7 1.6-.7 1.1 0 2.1.8 2.2 2-.1.1-.1.2-.1.3zm-1.8 0c0-.9-.3-1.2-.9-1.2-.4 0-.8.2-1.1.5 0 1.5.3 2 1 2s1-.4 1-1.3zm7.8-5l-6.9 13.5-1.3-.6 6.9-13.5 1.3.6zm3.2 9.6c0 1.4-1.1 2.6-2.4 2.6h-.2c-2 0-2.8-1.4-2.8-3.4 0-2.4 1.2-4 3.2-4 .6 0 1.2.1 1.7.5l-.6 1c-.3-.2-.7-.3-1-.3-.9 0-1.4.7-1.5 2 .4-.4 1-.7 1.6-.7 1.1 0 2.1.9 2.1 2 0 .1 0 .2-.1.3zm-1.6 0c0-.9-.3-1.2-.9-1.2-.4 0-.8.2-1.1.5 0 1.5.3 2 1 2s1-.5 1-1.3zm131.7 62.8c0 1.1-.6 1.9-2.9 3.8h3.1l-.2 1.3h-4.8v-1.2c2.5-2.3 3.1-3 3.1-3.8 0-.5-.3-.9-.8-.9h-.1c-.5 0-1.1.3-1.4.7l-1-.8c.6-.8 1.5-1.2 2.5-1.2 1.6 0 2.5 1 2.5 2.1zm6.3-2.3l-6.9 13.5-1.3-.6 6.9-13.5 1.3.6zm3.3 9.7c0 1.4-1.1 2.6-2.5 2.6h-.2c-2 0-2.8-1.4-2.8-3.4 0-2.4 1.2-4 3.2-4 .6 0 1.2.1 1.7.5l-.6 1c-.3-.2-.7-.3-1-.3-.9 0-1.4.7-1.5 1.9.4-.4 1-.7 1.6-.7 1.2 0 2.1.9 2.1 2v.4zm-1.7 0c0-.9-.3-1.2-.9-1.2-.4 0-.8.2-1.1.5 0 1.5.3 2 1 2 .8.1 1-.5 1-1.3zm70.5-7.6c-.9.1-1.6 1-1.4 1.9.1.8.8 1.4 1.7 1.4 0 1.2-1 2.2-2.8 2.2-1 0-1.9-.4-2.5-1.1l.9-.9c.4.4.9.7 1.5.7.7 0 1.2-.4 1.2-1 0-.7-.4-1-1.2-1h-.6l.2-1.1h.4c.7 0 1.1-.3 1.1-.9s-.4-.8-1-.8c-.5 0-1.1.2-1.4.6l-.8-.9c.7-.6 1.6-1 2.5-.9 1.4 0 2.2.8 2.2 1.8zm6.3-2.1l-6.9 13.5-1.3-.6 6.9-13.5 1.3.6zm3.3 9.7c0 1.4-1.1 2.6-2.5 2.6h-.2c-2 0-2.8-1.4-2.8-3.4 0-2.4 1.2-4 3.2-4 .6 0 1.2.1 1.7.5l-.6 1c-.3-.2-.7-.3-1-.3-.9 0-1.4.7-1.5 1.9.4-.4 1-.7 1.6-.7 1.2 0 2.1.9 2.1 2v.4zm-1.7 0c0-.9-.3-1.2-.9-1.2-.4 0-.8.2-1.1.5 0 1.5.3 2 1 2 .8.1 1-.5 1-1.3zm71-3.7h-.9v1.5h-1.6v-1.5h-3.2v-1.1l2.1-4.6 1.4.5-1.8 3.9h1.5l.3-1.7h1.3v1.7h.8l.1 1.3zm5.9-6l-6.9 13.5-1.3-.6 6.9-13.5 1.3.6zm3.3 9.7c0 1.4-1.1 2.6-2.5 2.6h-.2c-2 0-2.8-1.4-2.8-3.4 0-2.4 1.2-4 3.2-4 .6 0 1.2.2 1.7.5l-.6 1c-.3-.2-.7-.3-1-.3-.9 0-1.4.7-1.5 1.9.4-.4 1-.7 1.6-.7 1.2 0 2.1.9 2.2 2-.1.2-.1.3-.1.4zm-1.7 0c0-.9-.3-1.2-.9-1.2-.4 0-.8.2-1.1.5 0 1.5.3 2 1 2s1-.5 1-1.3zm70.2-8.1h-2.7v1.5c.4-.2.7-.3 1.1-.3 1.2 0 2.1.9 2.1 2v.3c0 1.5-1.1 2.5-2.9 2.5-.9 0-1.8-.4-2.5-1.1l1-.9c.3.4.9.7 1.4.7.6.1 1.2-.4 1.2-1v-.3c0-.9-.4-1.2-1-1.2-.3 0-.7.1-.9.3h-1.2v-3.8h4.5l-.1 1.3zm6.6-1.6l-6.9 13.5-1.3-.6 6.9-13.5 1.3.6zm3.3 9.7c0 1.4-1.1 2.6-2.5 2.6h-.2c-2 0-2.8-1.4-2.8-3.4 0-2.4 1.2-4 3.2-4 .6 0 1.2.1 1.7.5l-.6 1c-.3-.2-.7-.3-1-.3-.9 0-1.4.7-1.5 1.9.4-.4 1-.7 1.6-.7 1.2 0 2.1.9 2.1 2v.4zm-1.7 0c0-.9-.3-1.2-.9-1.2-.4 0-.8.2-1.1.5 0 1.5.3 2 1 2s1-.5 1-1.3zm72.7-4.6c0 1.4-1.1 2.6-2.5 2.6h-.2c-2 0-2.8-1.4-2.8-3.4 0-2.4 1.2-4 3.2-4 .6 0 1.2.2 1.7.5l-.6 1c-.3-.2-.7-.3-1-.3-.9 0-1.4.7-1.5 2 .4-.4 1-.7 1.6-.7 1.1 0 2.1.8 2.2 2 0 .1-.1.2-.1.3zm-1.7 0c0-.9-.3-1.2-.9-1.2-.4 0-.8.2-1.1.5 0 1.5.3 2 1 2s1-.5 1-1.3zm7.8-5.1l-6.9 13.5-1.3-.6 6.9-13.5 1.3.6zm3.2 9.7c0 1.4-1.1 2.6-2.5 2.6h-.2c-2 0-2.8-1.4-2.8-3.4 0-2.4 1.2-4 3.2-4 .6 0 1.2.1 1.7.5l-.6 1c-.3-.2-.7-.3-1-.3-.9 0-1.4.7-1.5 1.9.4-.4 1-.7 1.6-.7 1.2 0 2.1.9 2.1 2v.4zm-1.7 0c0-.9-.3-1.2-.9-1.2-.4 0-.8.2-1.1.5 0 1.5.3 2 1 2s1-.5 1-1.3z" class="st3"/><path d="M127.5 12.7c0 3.2-2.1 5.5-5.2 5.5-3.9 0-5.5-3-5.5-7.3 0-5.1 2.4-8.4 6.2-8.4 1.2 0 2.3.3 3.3.9l-1.1 1.8c-.7-.4-1.4-.6-2.2-.6-1.9 0-3.1 1.9-3.3 4.9.8-1.1 2.1-1.7 3.4-1.7 2.5 0 4.4 1.7 4.4 4.9zm-2.9 0c0-2.2-.8-2.9-2.1-2.9-1.1.1-2.1.6-2.7 1.6 0 3.2.7 4.6 2.5 4.6 1.6.1 2.3-1.2 2.3-3.3zm4.8-3h6.8V12h-6.8V9.7zm20.2-6l-1.5 1.8c-.8-.7-1.8-1.1-2.9-1.1-2.2 0-3.8 1.6-3.8 5.8s1.6 5.8 3.8 5.8c1.2 0 2.3-.5 3.2-1.3l1.4 1.8c-1.2 1.2-2.9 1.9-4.7 1.9-4 0-6.8-2.8-6.8-8.1s3-8.1 6.8-8.1c1.7-.2 3.3.4 4.5 1.5zm12.2 8.2c0 3.7-2.1 6.3-5.6 6.3-3.5 0-5.6-2.4-5.6-6.3 0-3.7 2.1-6.3 5.6-6.3 3.5.1 5.6 2.4 5.6 6.3zm-8.1 0c0 2.9.9 4.1 2.6 4.1 1.7 0 2.6-1.3 2.6-4.1s-.9-4.1-2.5-4.1-2.7 1.3-2.7 4.1zm10.6 3.3v-14l2.9-.3v14.2c0 .6.2.8.7.8.2 0 .4 0 .7-.1l.6 2c-.6.3-1.3.4-1.9.4-1.9 0-3-1.1-3-3zm16.3 2.7h-2.5l-.2-1.7c-.7 1.3-2.2 2.1-3.6 2-2.2 0-3.3-1.4-3.3-3.7V6h2.9v8.2c0 1.4.4 1.9 1.4 1.9 1-.1 2-.7 2.4-1.7V6h2.9v11.9zm19.1-8.6v8.6h-2.9V9.7c0-1.5-.6-1.9-1.3-1.9-1 0-1.6.7-2.2 1.8v8.3h-2.9V9.7c0-1.5-.6-1.9-1.3-1.9-1 0-1.6.7-2.3 1.8v8.3H184V6h2.5l.2 1.6c.7-1.2 2-1.9 3.4-1.9 1.3-.1 2.5.8 2.9 2 .8-1.2 2.1-2 3.6-2 1.9 0 3.1 1.3 3.1 3.6zm13 0v8.6h-2.9V9.7c0-1.5-.6-1.9-1.5-1.9s-1.8.7-2.5 1.8v8.3H203V6h2.5l.2 1.6c.8-1.2 2.2-1.9 3.6-1.9 2.1 0 3.4 1.3 3.4 3.6zm20.2-5.5l-1.6 1.7c-.9-.8-2.1-1.2-3.3-1.2-2.2 0-4.1 1.7-4.1 5.8s1.3 5.8 3.7 5.8c.9 0 1.7-.2 2.5-.6v-4h-2.3l-.3-2.2h5.6v7.6c-1.6 1-3.5 1.5-5.4 1.5-4.4 0-6.9-2.8-6.9-8.1S224 2 227.9 2c1.8 0 3.6.6 5 1.8zm10 2l-.5 2.8c-.3-.1-.7-.1-1.1-.1-1.4 0-2.2 1.1-2.6 3.1v6.3h-2.9V6h2.5l.3 2.3c.6-1.7 1.7-2.6 3.1-2.6.4 0 .8 0 1.2.1zm5-4.1c-.1 1-.9 1.8-1.9 1.7-.9-.1-1.6-.8-1.7-1.7.1-1 .9-1.8 1.9-1.7.9.1 1.6.8 1.7 1.7zm-.4 16.1h-2.9V6h2.9v11.8zm13.3-16.6v16.6h-2.5l-.2-1.5c-.7 1.2-2 1.9-3.4 1.9-3 0-4.5-2.5-4.5-6.3s1.9-6.3 4.8-6.3c1.1 0 2.2.5 3 1.3v-6l2.8.3zm-2.9 13.3V9.1c-.5-.8-1.4-1.2-2.3-1.3-1.5 0-2.5 1.3-2.5 4.1 0 3.1.9 4.1 2.3 4.1 1.1 0 2.1-.6 2.5-1.5zM120.7 42.4h6.2l-.3 2.4h-8.9V29.3h3v13.1zm17.4-2.6h-7.5c.2 2.4 1.3 3.2 2.9 3.2 1.1 0 2.1-.4 3-1l1.2 1.6c-1.2 1-2.8 1.6-4.4 1.6-3.7 0-5.7-2.4-5.7-6.2s1.9-6.4 5.3-6.4 5.2 2.2 5.2 6c.1.4 0 .9 0 1.2zm-2.8-2c0-1.9-.7-3.1-2.3-3.1-1.3 0-2.2.9-2.4 3.3h4.7v-.2zm8.7-6.1V33h2.2l-.3 2.1H144v9.8h-2.9V35h-1.9v-2.1h1.9v-1.3c0-2.2 1.4-3.7 4.2-3.7.7 0 1.3.1 1.9.3l-.5 2.1c-.4-.1-.7-.2-1.1-.2-1.2 0-1.6.5-1.6 1.6zm11.4 12.6c-.9.6-1.9.9-3 .9-2.3 0-3.6-1.3-3.6-3.9V35h-1.9v-2.1h1.9v-2.6l2.9-.3v3h2.8l-.3 2.1h-2.5v6.2c0 1.2.4 1.6 1.3 1.6.5 0 1-.2 1.4-.4l1 1.8zm.1-7.6h6.8V39h-6.8v-2.3zm18.3 1.2h-5.5v6.9h-3V29.3h3v6.2h5.5v-6.2h3v15.5h-3v-6.9zm16.1 5.3l-.6 1.9c-1.2.1-2.2-.6-2.7-1.7-.8 1.2-2.2 1.8-3.6 1.8-1.9.2-3.6-1.3-3.8-3.2v-.5c0-2.6 1.9-4 5.4-4h1.5v-.7c0-1.5-.7-2.1-2.2-2.1-1.1.1-2.1.3-3.2.6l-.7-2c1.4-.5 2.8-.8 4.3-.9 3.2 0 4.6 1.5 4.6 4.1v5c.1 1.2.4 1.5 1 1.7zm-3.8-1.6v-2.4H185c-1.9 0-2.8.7-2.8 2.1-.1.9.5 1.7 1.3 1.8h.4c.9 0 1.8-.6 2.2-1.5zm16-5.4v8.6h-2.9v-8.2c0-1.5-.6-1.9-1.5-1.9s-1.8.7-2.5 1.8v8.3h-2.9V32.9h2.5l.2 1.6c.8-1.2 2.2-1.9 3.6-1.9 2.3 0 3.5 1.4 3.5 3.6zm13.2-8v16.6h-2.5l-.2-1.5c-.7 1.2-2 1.9-3.4 1.9-3 0-4.5-2.5-4.5-6.3s1.9-6.3 4.8-6.3c1.1 0 2.2.5 3 1.3v-6l2.8.3zm-2.9 13.3V36c-.5-.8-1.4-1.2-2.3-1.3-1.5 0-2.5 1.3-2.5 4.1 0 3.1.9 4.1 2.3 4.1 1.1.1 2.1-.5 2.5-1.4zm22.9-7.2c0 3.6-2.6 5.2-6.1 5.2h-1.8v5.4h-3V29.3h4.6c3.9 0 6.3 1.6 6.3 5zm-3.1 0c0-2-1.2-2.8-3.2-2.8h-1.6v5.7h1.6c2 0 3.2-.7 3.2-2.9zm14.1 8.9l-.6 1.9c-1.2.1-2.2-.6-2.6-1.7-.8 1.2-2.2 1.8-3.6 1.8-1.9.2-3.6-1.3-3.8-3.2v-.5c0-2.6 1.9-4 5.4-4h1.5v-.7c0-1.5-.7-2.1-2.2-2.1-1.1 0-2.2.3-3.2.6l-.7-2c1.4-.5 2.8-.8 4.3-.9 3.2 0 4.6 1.5 4.6 4.1v5c0 1.2.4 1.5.9 1.7zm-3.7-1.6v-2.4h-1.2c-1.9 0-2.8.7-2.8 2.1-.1.9.5 1.7 1.3 1.8h.4c1 0 1.9-.6 2.3-1.5zm16.6-8c-1.1.3-2.3.5-3.4.4 1.3.4 2.2 1.7 2.2 3.1 0 2.3-1.8 4-4.8 4-.5 0-1-.1-1.4-.2-.3.2-.5.5-.5.9s.3.8 1.4.8h1.8c2.6 0 4.3 1.4 4.3 3.4 0 2.4-2.1 3.7-5.9 3.7-4.2 0-5.4-1.3-5.4-3.7h2.6c0 1.2.5 1.7 2.9 1.7s3-.6 3-1.6-.7-1.3-2-1.3h-1.8c-2.4 0-3.4-1.1-3.4-2.3.1-.9.6-1.8 1.4-2.2-1.3-.6-2.2-1.9-2.1-3.4 0-2.6 2.1-4.3 4.9-4.3 1.9.1 3.9-.3 5.6-1.3l.6 2.3zm-8.3 3.2c-.1 1.1.7 2.2 1.8 2.3h.3c1.4 0 2.1-.9 2.1-2.4s-.7-2.2-2.2-2.2c-1.1 0-2 .8-2.1 1.9.1.2.1.3.1.4zm19.6 3H263c.2 2.4 1.3 3.2 2.9 3.2 1.1 0 2.1-.4 3-1l1.2 1.6c-1.2 1-2.8 1.6-4.4 1.6-3.7 0-5.6-2.4-5.6-6.2s1.9-6.4 5.3-6.4 5.2 2.2 5.2 6c0 .4-.1.9-.1 1.2zm-2.8-2c0-1.9-.7-3.1-2.3-3.1-1.3 0-2.2.9-2.4 3.3h4.7v-.2zM283.8 27c-2.2 2.9-3.3 6.4-3.2 10-.1 3.6 1 7.2 3.2 10l-1.9 1.2c-2.2-3.1-4.3-5.9-4.3-11.3s2.1-8.2 4.3-11.2l1.9 1.3zm7.7 17.8H288l-2.5-15.5h3.1l1.5 12.9 5-12.9h3l-6.6 15.5zm8.5-4.3c.1 1.9 1 2.5 2.3 2.5 1.1 0 2.2-.4 3.1-1.1l1.1 1.8c-1.3 1-2.9 1.5-4.5 1.5-3.2 0-4.9-1.9-4.9-4.9 0-3.2 1.7-7.6 6.5-7.6 2.7 0 4.1 1.5 4.1 3.1 0 3.3-3.8 4.3-7.7 4.7zm4.8-4.6c0-.7-.5-1.2-1.2-1.2h-.2c-2.1 0-3 2-3.3 3.9 3.2-.3 4.7-1.2 4.7-2.7zm12.8-3.1l-.8 2.8c-.3-.1-.7-.1-1-.1-1.5 0-2.4 1.4-3.1 3.5l-.8 5.9h-2.8l1.7-11.9h2.4l-.1 2.3c.9-1.8 2.1-2.6 3.4-2.6.2 0 .7 0 1.1.1zm9 1.3l-1.3 1.6c-.8-.6-1.8-.9-2.9-.9-1.2 0-1.9.5-1.9 1.3s.6 1 2.3 1.6c2.1.7 3.2 1.7 3.2 3.6 0 2.4-2 4-5.2 4-1.7 0-3.4-.6-4.7-1.9l1.5-1.6c.9.8 2.1 1.2 3.3 1.2 1.6 0 2.2-.8 2.2-1.5 0-.9-.5-1.3-2.4-1.9-2.2-.7-3.1-1.7-3.1-3.4s1.6-3.7 4.8-3.7c1.6.1 3.1.6 4.2 1.6zm1.2 6.1c0-3.1 1.6-7.6 6.4-7.6 3.1 0 4.8 1.9 4.8 5s-1.6 7.6-6.4 7.6c-3 0-4.8-1.9-4.8-5zm8.3-2.8c0-1.8-.7-2.6-2-2.6-2.7 0-3.3 3.6-3.3 5.6 0 1.8.7 2.6 2 2.6 2.7 0 3.3-3.6 3.3-5.6zm10.8-2.9c0 5.9-2.2 9.4-5.9 13.8l-1.7-1.3c3.3-4 4.8-7.9 4.8-12.8 0-2.6-.6-5.1-1.9-7.3l1.9-1.1c1.4 2.5 2.8 4.9 2.8 8.7zM14 118.7c0 5.1-2.6 8.1-6.8 8.1s-6.8-2.9-6.8-8.1 2.6-8.1 6.8-8.1 6.8 2.9 6.8 8.1zm-10.5 0c0 4.2 1.4 5.8 3.7 5.8s3.7-1.6 3.7-5.8c0-4.2-1.3-5.8-3.7-5.8s-3.7 1.6-3.7 5.8zm22.6 7.8h-2.5l-.2-1.7c-.7 1.3-2.2 2.1-3.6 2-2.2 0-3.3-1.4-3.3-3.7v-8.5h2.9v8.2c0 1.4.4 1.9 1.4 1.9 1-.1 2-.7 2.4-1.7v-8.4h2.9v11.9zm10.2-.6c-.9.6-1.9.9-3 .9-2.3 0-3.6-1.3-3.6-3.9v-6.3h-1.9v-2.1h1.9V112l2.9-.3v3h2.8l-.3 2.1h-2.5v6.2c0 1.2.4 1.6 1.3 1.6.5 0 1-.2 1.4-.4l1 1.7zm9.6-10.2l-1.1 1.7c-.9-.6-1.9-.9-3-.9s-1.8.5-1.8 1.2.5 1.1 2.5 1.7c2.4.7 3.8 1.6 3.8 3.7 0 2.5-2.3 3.7-5 3.7-1.7.1-3.4-.5-4.7-1.7l1.4-1.6c.9.7 2.1 1.1 3.2 1.2 1.3 0 2.1-.5 2.1-1.4 0-.9-.5-1.3-2.7-1.9-2.5-.7-3.5-1.9-3.5-3.6 0-2 1.8-3.5 4.6-3.5 1.5-.1 3 .4 4.2 1.4zm5.8-5.4c0 1-.7 1.8-1.7 1.9-1 0-1.8-.7-1.9-1.7 0-1 .7-1.8 1.7-1.9h.1c1-.1 1.8.6 1.8 1.7 0-.1 0 0 0 0zm-.3 16.1h-2.9v-11.9h2.9v11.9zm13.3-16.6v16.6h-2.6l-.2-1.5c-.7 1.2-2 1.9-3.4 1.9-3 0-4.5-2.5-4.5-6.3s1.9-6.3 4.8-6.3c1.1 0 2.2.5 3 1.3v-6l2.9.3zm-2.9 13.3v-5.4c-.5-.8-1.4-1.2-2.3-1.3-1.5 0-2.5 1.3-2.5 4.1 0 3.1.9 4.1 2.3 4.1 1.1 0 2-.6 2.5-1.5zm16-1.7h-7.5c.2 2.4 1.3 3.2 2.9 3.2 1.1 0 2.1-.4 3-1l1.2 1.7c-1.2 1-2.8 1.6-4.4 1.6-3.7 0-5.6-2.4-5.6-6.2 0-3.8 1.9-6.4 5.3-6.4s5.2 2.2 5.2 6c0 .3-.1.8-.1 1.1zm-2.8-2c0-1.9-.7-3.1-2.3-3.1-1.3 0-2.2.9-2.4 3.3H75v-.2zm-59.1 34H13l-.4-6.5c-.1-2.3-.3-4.7-.2-6.3l-2.8 11.1H6.8l-3-11.2c.1 2.2.1 4.3-.1 6.4l-.4 6.4H.4l1.2-15.5h3.8l2.8 10.9 2.6-10.9h3.9l1.2 15.6zm12.4-1.6l-.6 1.9c-1.2.1-2.2-.6-2.6-1.7-.8 1.2-2.2 1.8-3.6 1.8-1.9.2-3.6-1.3-3.8-3.2v-.5c0-2.6 1.9-4 5.4-4h1.5v-.7c0-1.5-.7-2.1-2.2-2.1-1.1 0-2.2.3-3.2.6l-.6-1.9c1.4-.6 2.8-.9 4.3-.9 3.2 0 4.6 1.5 4.6 4.1v5c-.1 1 .2 1.4.8 1.6zm-3.7-1.6v-2.4h-1.2c-1.9 0-2.8.7-2.8 2.1-.1.9.5 1.7 1.3 1.8h.4c1 0 1.9-.6 2.3-1.5zm13.3-8.8l-.5 2.8c-.3-.1-.7-.1-1.1-.1-1.4 0-2.2 1.1-2.6 3.1v6.3h-2.9v-11.9h2.5l.3 2.3c.6-1.7 1.7-2.6 3.1-2.6.4-.1.8 0 1.2.1zm11.9.8c-1.1.3-2.3.5-3.4.4 1.3.4 2.2 1.7 2.2 3.1 0 2.3-1.8 4-4.8 4-.5 0-1-.1-1.4-.2-.3.2-.5.5-.5.9s.3.8 1.4.8h1.9c2.6 0 4.3 1.4 4.3 3.4 0 2.4-2.1 3.7-5.9 3.7-4.2 0-5.4-1.3-5.4-3.7h2.5c0 1.2.5 1.7 2.9 1.7s3-.6 3-1.6-.7-1.3-2-1.3h-1.8c-2.4 0-3.4-1.1-3.4-2.3.1-.9.6-1.8 1.4-2.2-1.3-.6-2.2-1.9-2.1-3.4 0-2.6 2.1-4.3 4.9-4.3 1.9.1 3.9-.4 5.5-1.3l.7 2.3zm-8.3 3.2c-.1 1.1.7 2.2 1.8 2.3h.3c1.4 0 2.1-.9 2.1-2.4s-.7-2.2-2.2-2.2c-1.1 0-2.1.8-2.1 2 0 .1 0 .2.1.3zm13.1-8.1c.1 1-.7 1.8-1.7 1.9-1 .1-1.8-.7-1.9-1.7s.7-1.8 1.7-1.9h.1c1-.1 1.8.7 1.8 1.7 0-.1 0-.1 0 0zm-.3 16.1h-2.8v-11.9h2.9l-.1 11.9zm13.1-8.6v8.6h-2.9v-8.2c0-1.5-.6-1.9-1.5-1.9s-1.8.7-2.5 1.8v8.3h-2.9v-11.9h2.5l.2 1.6c.8-1.2 2.1-1.9 3.6-2 2.2.1 3.5 1.4 3.5 3.7zM6.1 162.5c-4.2 6-4.2 14.1 0 20.1l-1.9 1.2c-2.2-3.1-4.3-5.9-4.3-11.2 0-5.3 2.1-8.2 4.3-11.3l1.9 1.2zm12 4.7h-4v13.2h-3v-13.2H6.9v-2.4h11.5l-.3 2.4zm11.9 4.6v8.6h-2.9v-8.2c0-1.5-.6-1.9-1.5-1.9s-1.8.7-2.5 1.8v8.3h-2.9v-16.7l2.9-.3v6.4c.8-1.1 2.1-1.8 3.5-1.8 2.1.2 3.4 1.5 3.4 3.8zm12.7 8.6h-2.5l-.2-1.7c-.7 1.3-2.2 2.1-3.6 2-2.2 0-3.3-1.4-3.3-3.7v-8.5H36v8.2c0 1.4.4 1.9 1.4 1.9 1.1-.1 2-.7 2.4-1.7v-8.4h2.9v11.9zm19.1-8.6v8.6h-2.9v-8.2c0-1.5-.6-1.9-1.3-1.9-.9 0-1.6.7-2.2 1.8v8.3h-2.9v-8.2c0-1.5-.6-1.9-1.3-1.9-1 0-1.6.7-2.3 1.8v8.3H46v-11.9h2.5l.2 1.6c.7-1.2 2-1.9 3.4-1.9 1.3-.1 2.4.7 2.9 1.9.8-1.2 2.1-2 3.6-2 1.9.1 3.2 1.4 3.2 3.7zm13.8 2.6c0 3.7-1.8 6.3-4.7 6.3-1.2 0-2.4-.6-3.2-1.5l-.2 1.2H65v-16.6l2.9-.3v6.4c.8-1.1 2-1.7 3.3-1.7 2.7 0 4.4 2.2 4.4 6.2zm-3 0c0-3.2-.9-4.1-2.3-4.1-1 .1-1.9.7-2.4 1.6v5.3c.4.8 1.3 1.4 2.2 1.4 1.5 0 2.5-1.2 2.5-4.2zm8.5 4.5c0 1-.8 1.8-1.8 1.8s-1.8-.8-1.8-1.8.8-1.8 1.8-1.8 1.8.8 1.8 1.8zm-.6-4H78l-.4-10h3.2l-.3 10zm8.1-2.4c0 5.3-2 8.2-4.3 11.2l-1.9-1.2c4.2-6 4.2-14.1 0-20.1l1.9-1.2c2.3 3.1 4.3 6 4.3 11.3z" class="st2"/><path d="M159.1 126.5v640.3" class="st4"/><path d="M228.2 126.5v3.7" class="st5"/><path d="M228.2 137.6v621.7" class="st6"/><path d="M228.2 763v3.7m7.5-640.2v3.7" class="st5"/><path d="M235.7 137.6v621.7" class="st6"/><path d="M235.7 763v3.7" class="st5"/><path d="M305.3 126.5v640.3m7.4-640.3v640.3" class="st4"/><path d="M382.3 126.5v3.7" class="st5"/><path d="M382.3 137.6v621.7" class="st6"/><path d="M382.3 763v3.7m7.5-640.2v3.7" class="st5"/><path d="M389.8 137.6v621.7" class="st6"/><path d="M389.8 763v3.7" class="st5"/><path d="M459.3 126.5v640.3m7.5-640.3v640.3" class="st4"/><path d="M536.4 126.5v3.7" class="st5"/><path d="M536.4 137.6v621.7" class="st6"/><path d="M536.4 763v3.7m7.5-640.2v3.7" class="st5"/><path d="M543.9 137.6v621.7" class="st6"/><path d="M543.9 763v3.7" class="st5"/><path d="M159.1 234.1H613m-453.9-7.5H613M159.1 342.2H613m-453.9-7.5H613M159.1 450.4H613m-453.9-7.5H613M159.1 558.5H613M159.1 551H613M159.1 666.6H613m-453.9-7.5H613" class="st7"/><path d="M613 126.5v640.3M159.1 126.5H613M159.1 766.8H613" class="st4"/><path d="M159.1 126.5h69.1v100.6h-69.1V126.5zm0 215.7h146.1v100.6H159.1V342.2z" class="st8"/><path d="M183.6 180.9h-2.1v-9.2l-2.5 1.5-.9-1.5 3.7-2.3h1.9l-.1 11.5zm14.3 0h-2.5l-1.9-3.5-1.9 3.5h-2.3l3-4.7-2.7-4.2h2.5l1.5 3 1.5-3h2.3l-2.6 4.1 3.1 4.8zm10.2 0H206v-9.2l-2.5 1.5-.9-1.5 3.7-2.3h1.9l-.1 11.5zm15.2 207.4c0 1.9-1.1 3.3-4.6 6.7h4.8l-.2 1.7h-7.1v-1.6c3.9-3.9 4.8-5 4.8-6.6.1-.8-.6-1.6-1.4-1.6h-.2c-.9 0-1.7.5-2.2 1.2l-1.3-1c.8-1.2 2.2-1.9 3.7-1.9 2.4-.1 3.7 1.4 3.7 3.1zm13.6 8.4h-2.5l-1.9-3.5-1.9 3.5h-2.4l3-4.7-2.7-4.2h2.5l1.5 3 1.5-3h2.3l-2.6 4.1 3.2 4.8zm10.2 0H245v-9.2l-2.5 1.5-.9-1.5 3.7-2.3h1.9l-.1 11.5z" class="st9"/><path d="M313 234.3h146.1v208.8H313V234.3zm0 216.1h300.2v208.4H313V450.4z" class="st8"/><path d="M376.7 334.5c0 1.9-1.1 3.3-4.6 6.7h4.9l-.2 1.7h-7.1v-1.6c3.9-3.9 4.8-5 4.8-6.6.1-.8-.6-1.6-1.4-1.6h-.2c-.9 0-1.7.5-2.2 1.2l-1.3-1c.8-1.2 2.2-1.9 3.7-1.9 2.2-.1 3.6 1.3 3.6 3.1zm13.6 8.4h-2.5l-1.9-3.5-1.8 3.5h-2.4l3-4.7-2.7-4.2h2.5l1.5 3 1.5-3h2.3l-2.6 4.1 3.1 4.8zm11.8-8.4c0 1.9-1.1 3.3-4.6 6.7h4.8l-.2 1.7H395v-1.6c3.9-3.9 4.8-5 4.8-6.6 0-.8-.6-1.6-1.5-1.6h-.2c-.9 0-1.7.5-2.2 1.2l-1.3-1c.8-1.2 2.2-1.9 3.7-1.9 2.4-.1 3.8 1.3 3.8 3.1zm52.5 221.6h-1.4v2.6h-2.1v-2.6h-4.8v-1.5l3.3-7.5 1.9.7-2.9 6.6h2.6l.2-2.8h1.9v2.8h1.4l-.1 1.7zm13.1 2.6h-2.5l-1.9-3.5-1.8 3.5h-2.4l3-4.7-2.7-4.2h2.5l1.5 3 1.5-3h2.3l-2.5 4.2 3 4.7zm11.8-8.3c0 1.9-1.1 3.3-4.6 6.7h4.9l-.2 1.7h-7.1v-1.6c3.9-4 4.8-5 4.8-6.6.1-.8-.5-1.6-1.4-1.7h-.3c-.9 0-1.7.5-2.2 1.2l-1.3-1c.8-1.2 2.2-1.9 3.7-1.9 2.3 0 3.7 1.4 3.7 3.2z" class="st9"/></g></g></svg>