<svg xmlns="http://www.w3.org/2000/svg" viewBox="0 0 639 699.24" width="639" height="699.24"><defs><style>.a533d1bd-3212-40ed-af6e-8eff9d7e8972,.a594510e-040b-4468-82cb-a5921da30103,.b6487210-c8a5-4675-9eee-dd718083cef9,.b7003ca0-de41-4934-89a2-ad3069e91eb9,.ea9dceba-5163-479a-99b8-b7978fb4b4c8,.eec6e992-0eed-4cd5-951b-c9cee463889c{fill:none;stroke-miterlimit:10}.ea9dceba-5163-479a-99b8-b7978fb4b4c8{stroke:#231f20}.a594510e-040b-4468-82cb-a5921da30103,.b6487210-c8a5-4675-9eee-dd718083cef9,.b7003ca0-de41-4934-89a2-ad3069e91eb9,.ea9dceba-5163-479a-99b8-b7978fb4b4c8{stroke-width:.75px}.a594510e-040b-4468-82cb-a5921da30103{stroke:#ec1c24}.aa9fdaa3-f79f-40da-9c14-dbeb3ebdd22b{fill:#6d6e70}.a76de67a-f61c-491c-8dcb-a87af07416c5{fill:#b2b3b3}.b6487210-c8a5-4675-9eee-dd718083cef9{stroke:#969696}.a533d1bd-3212-40ed-af6e-8eff9d7e8972,.eec6e992-0eed-4cd5-951b-c9cee463889c{stroke:#c8c8c8;stroke-width:.37px}.eec6e992-0eed-4cd5-951b-c9cee463889c{stroke-dasharray:5.95 5.95}.b7003ca0-de41-4934-89a2-ad3069e91eb9{stroke:#b2b3b3}.e0d977be-81c2-4820-ad34-0492c2af5c67{fill:#2997ff}.abd1b66e-b305-4b4e-ac3e-1a88ddd955c5{fill:#fff}</style></defs><g id="e92c4088-9f55-4974-827b-a2f3120ec261"><g id="a623384d-7994-484d-92d4-bc21ed7ee4f2"><path d="M543.88 14.3v37.39M86.25 14.3v37.39m457.63 610.16v37.39M86.25 661.85v37.39M39.89 60.66h37.39M39.89 652.88h37.39M552.85 60.66h37.39m-37.39 592.22h37.39" class="ea9dceba-5163-479a-99b8-b7978fb4b4c8"/><path d="M12.73 122.1h605.68v471.08H12.73z" class="a594510e-040b-4468-82cb-a5921da30103" transform="rotate(90 315.755 356.955)"/><path d="M86.25 60.66h457.62v592.22H86.25z" class="ea9dceba-5163-479a-99b8-b7978fb4b4c8"/><path d="M570.28 101.91h-2.37v-12.4h2.37zM580.83 95v6.87h-2.29V95.4c0-1.19-.45-1.53-1.17-1.53s-1.44.56-2 1.44v6.6h-2.3v-9.49h2l.18 1.24a3.56 3.56 0 0 1 2.89-1.51c1.71 0 2.69 1.08 2.69 2.85zm8.99-1.72l-.89 1.35a4.3 4.3 0 0 0-2.39-.78c-.92 0-1.44.38-1.44 1s.38.91 2 1.36c1.93.52 3 1.31 3 3 0 2-1.83 3-4 3a5.6 5.6 0 0 1-3.79-1.34l1.15-1.3a4.25 4.25 0 0 0 2.58.94c1 0 1.69-.43 1.69-1.15s-.38-1-2.15-1.54c-2-.54-2.82-1.48-2.82-2.88 0-1.58 1.45-2.76 3.66-2.76a5.32 5.32 0 0 1 3.4 1.1zm4.69-4.28a1.45 1.45 0 1 1-1.46-1.4 1.38 1.38 0 0 1 1.46 1.4zm-.29 12.9h-2.3v-9.48h2.3zm10.62-13.28v13.29h-2l-.16-1.2a3.18 3.18 0 0 1-2.71 1.47c-2.37 0-3.61-2-3.61-5s1.47-5 3.82-5a3.31 3.31 0 0 1 2.39 1v-4.82zm-2.29 10.6v-4.34a2.29 2.29 0 0 0-1.81-1c-1.19 0-2 1-2 3.29 0 2.44.7 3.28 1.83 3.28a2.24 2.24 0 0 0 1.98-1.23zm12.76-1.35h-6c.18 1.94 1.07 2.57 2.33 2.57a4 4 0 0 0 2.37-.84l1 1.31a5.47 5.47 0 0 1-3.52 1.27c-2.94 0-4.52-2-4.52-5s1.53-5.08 4.22-5.08 4.18 1.79 4.18 4.79c-.01.36-.05.73-.06.98zm-2.23-1.59c0-1.56-.56-2.5-1.85-2.5-1.07 0-1.76.72-1.88 2.61h3.73zm-33.41 27.17h-2.32l-.32-5.19c-.11-1.83-.2-3.75-.16-5.06l-2.26 8.9h-2.25l-2.4-8.92c.07 1.67 0 3.38-.07 5.15l-.31 5.12h-2.3l1-12.4h3.05l2.21 8.68 2.08-8.68h3.09zm9.88-1.29l-.48 1.52a2.14 2.14 0 0 1-2.1-1.38 3.27 3.27 0 0 1-2.85 1.42 2.82 2.82 0 0 1-3-2.93c0-2.06 1.54-3.17 4.3-3.17h1.21v-.54c0-1.24-.56-1.65-1.78-1.65a8.74 8.74 0 0 0-2.53.5l-.52-1.56a9.77 9.77 0 0 1 3.43-.68c2.54 0 3.66 1.16 3.66 3.26v4c-.05.76.2 1.05.66 1.21zm-3-1.28V119h-1c-1.48 0-2.22.54-2.22 1.65a1.26 1.26 0 0 0 1.35 1.44 2.06 2.06 0 0 0 1.9-1.21zm10.67-7.05l-.4 2.22a3.12 3.12 0 0 0-.84-.1c-1.15 0-1.74.84-2.1 2.44v5.06h-2.3V114h2l.21 1.87a2.68 2.68 0 0 1 2.48-2.12 3.3 3.3 0 0 1 .95.08zm9.45.63a8.5 8.5 0 0 1-2.74.32 2.5 2.5 0 0 1 1.72 2.44c0 1.85-1.43 3.19-3.82 3.19a3.77 3.77 0 0 1-1.13-.14.87.87 0 0 0-.4.7c0 .34.2.66 1.15.66h1.46c2.1 0 3.46 1.14 3.46 2.7 0 1.9-1.63 3-4.74 3-3.37 0-4.32-1.08-4.32-3h2.06c0 1 .41 1.36 2.3 1.36s2.39-.5 2.39-1.25-.56-1.13-1.62-1.13H601c-1.9 0-2.71-.85-2.71-1.83a2.14 2.14 0 0 1 1.12-1.76 2.76 2.76 0 0 1-1.67-2.68c0-2.06 1.63-3.4 3.93-3.4a7.73 7.73 0 0 0 4.43-1.06zm-6.62 2.6a1.65 1.65 0 0 0 1.69 1.87c1.09 0 1.69-.69 1.69-1.89s-.58-1.79-1.73-1.79a1.61 1.61 0 0 0-1.65 1.81zm10.56-6.51a1.38 1.38 0 0 1-1.46 1.38 1.39 1.39 0 1 1 0-2.78 1.39 1.39 0 0 1 1.46 1.4zm-.29 12.9H608V114h2.3zm10.44-6.88v6.88h-2.29v-6.52c0-1.18-.45-1.52-1.17-1.52a2.43 2.43 0 0 0-2 1.43v6.61H613V114h2l.18 1.24a3.55 3.55 0 0 1 2.89-1.5c1.71-.05 2.69 1.02 2.69 2.83zm-48.92 14.11a14 14 0 0 0 0 16l-1.47 1c-1.78-2.48-3.41-4.74-3.41-9s1.63-6.53 3.41-9zm10.81 10.73c0 2.73-2.18 3.57-5.19 3.57h-3.73v-12.4H577c3.2 0 5.14.9 5.14 3.16a2.73 2.73 0 0 1-2.3 2.68c1.39.26 2.81.93 2.81 2.99zm-6.55-7.09v3.36h1.45c1.29 0 2.13-.58 2.13-1.74s-.86-1.62-2.47-1.62zm4.07 7c0-1.49-1.06-2-2.44-2h-1.63v3.88h1.38c1.52.01 2.69-.32 2.69-1.88zm7.03-9.24a1.44 1.44 0 1 1-1.45-1.4 1.38 1.38 0 0 1 1.45 1.4zm-.28 12.9h-2.3v-9.49h2.3zm10.44-6.87V145h-2.3v-6.51c0-1.19-.44-1.53-1.16-1.53s-1.44.56-2 1.44v6.6h-2.3v-9.49h2l.18 1.24a3.56 3.56 0 0 1 2.89-1.51 2.56 2.56 0 0 1 2.69 2.87zm10.52-6.42V145h-2l-.16-1.2a3.18 3.18 0 0 1-2.71 1.47c-2.37 0-3.61-2-3.61-5s1.47-5 3.82-5a3.31 3.31 0 0 1 2.39 1v-4.81zm-2.3 10.6V138a2.28 2.28 0 0 0-1.81-1c-1.19 0-2 1-2 3.29 0 2.44.7 3.28 1.83 3.28a2.24 2.24 0 0 0 1.98-1.28zm7.57-10.21a1.45 1.45 0 1 1-1.45-1.4 1.38 1.38 0 0 1 1.45 1.4zm-.28 12.9h-2.3v-9.49h2.3zm10.44-6.87V145H621v-6.51c0-1.19-.44-1.53-1.16-1.53s-1.44.56-2 1.44v6.6h-2.3v-9.49h2l.18 1.24a3.56 3.56 0 0 1 2.89-1.51 2.56 2.56 0 0 1 2.7 2.87zm10.87-2.11a8.47 8.47 0 0 1-2.74.33 2.49 2.49 0 0 1 1.72 2.44c0 1.84-1.43 3.19-3.82 3.19a4.12 4.12 0 0 1-1.13-.14.87.87 0 0 0-.4.7c0 .34.2.66 1.15.66h1.46c2.1 0 3.46 1.13 3.46 2.69 0 1.9-1.63 3-4.74 3-3.37 0-4.32-1.07-4.32-3h2.06c0 1 .41 1.36 2.3 1.36s2.39-.5 2.39-1.26-.56-1.13-1.62-1.13h-1.44c-1.9 0-2.71-.84-2.71-1.83a2.16 2.16 0 0 1 1.12-1.76 2.76 2.76 0 0 1-1.67-2.67c0-2.06 1.63-3.41 3.93-3.41a7.73 7.73 0 0 0 4.43-1.06zm-6.62 2.6a1.65 1.65 0 0 0 1.69 1.87c1.09 0 1.69-.68 1.69-1.88s-.58-1.8-1.73-1.8a1.61 1.61 0 0 0-1.65 1.8zm11.94.1c0 4.27-1.62 6.53-3.41 9l-1.46-1a14 14 0 0 0 0-16l1.46-1c1.79 2.47 3.41 4.73 3.41 9z" class="aa9fdaa3-f79f-40da-9c14-dbeb3ebdd22b" transform="translate(-.5 -.87)"/><path d="M154.89 630.19h-1.32v-4.35l-1.28.76-.59-.9 2-1.15h1.2zm5.8-5.99l-5.5 10.8-1-.51 5.51-10.76zm2.63 7.72a2 2 0 0 1-2.13 2.07c-1.57 0-2.23-1.1-2.23-2.72 0-1.92 1-3.18 2.55-3.18a2.36 2.36 0 0 1 1.34.37l-.49.81a1.74 1.74 0 0 0-.82-.23c-.69 0-1.12.55-1.18 1.56a1.74 1.74 0 0 1 1.26-.54 1.67 1.67 0 0 1 1.7 1.86zm-1.36 0c0-.72-.26-1-.72-1a1.13 1.13 0 0 0-.87.43c0 1.17.23 1.62.82 1.62s.81-.38.81-1.04zm-54.45-490.54h-1.31V137l-1.28.77-.59-.9 2-1.16h1.19zm5.81-5.99l-5.51 10.75-1-.51 5.51-10.75zm2.62 7.72a2 2 0 0 1-2.13 2.08c-1.57 0-2.23-1.11-2.23-2.72 0-1.93 1-3.19 2.56-3.19a2.33 2.33 0 0 1 1.33.37l-.49.81a1.74 1.74 0 0 0-.82-.23c-.68 0-1.11.55-1.18 1.56a1.76 1.76 0 0 1 1.26-.53 1.67 1.67 0 0 1 1.7 1.85zm-1.36 0c0-.73-.26-1-.71-1a1.18 1.18 0 0 0-.88.43c0 1.17.23 1.63.82 1.63s.77-.38.77-1.04zm-6.3 80.69c0 .86-.5 1.5-2.33 3.07h2.45l-.13 1h-3.82v-1c2-1.86 2.45-2.37 2.45-3a.69.69 0 0 0-.77-.74 1.31 1.31 0 0 0-1.09.58l-.8-.64a2.51 2.51 0 0 1 2-1c1.33.07 2.04.83 2.04 1.73zm5.04-1.86l-5.51 10.75-1-.51 5.51-10.75zm2.62 7.73a2 2 0 0 1-2.13 2.07c-1.57 0-2.23-1.11-2.23-2.72 0-1.93 1-3.19 2.56-3.19a2.33 2.33 0 0 1 1.33.38l-.49.8a1.74 1.74 0 0 0-.82-.23c-.68 0-1.11.56-1.18 1.57a1.73 1.73 0 0 1 1.26-.54 1.67 1.67 0 0 1 1.7 1.86zm-1.36 0c0-.73-.26-1-.71-1a1.18 1.18 0 0 0-.88.43c0 1.17.23 1.63.82 1.63s.77-.39.77-1.05zm-6.31 80.5a1.35 1.35 0 0 0 .2 2.7c0 .95-.81 1.76-2.26 1.76a2.56 2.56 0 0 1-2-.86l.75-.72a1.55 1.55 0 0 0 1.19.54c.55 0 .94-.28.94-.81s-.35-.79-1-.79h-.49l.16-.91h.33c.52 0 .86-.26.86-.72s-.31-.64-.79-.64a1.72 1.72 0 0 0-1.16.48l-.67-.71a2.81 2.81 0 0 1 2-.77c1.25 0 1.94.65 1.94 1.45zm5.05-1.68l-5.51 10.75-1-.51 5.47-10.73zm2.62 7.73a2 2 0 0 1-2.13 2.07c-1.57 0-2.23-1.1-2.23-2.72 0-1.92 1-3.19 2.56-3.19a2.33 2.33 0 0 1 1.33.38l-.49.81a1.63 1.63 0 0 0-.82-.23c-.68 0-1.11.55-1.18 1.56a1.73 1.73 0 0 1 1.26-.54 1.67 1.67 0 0 1 1.7 1.86zm-1.36 0c0-.73-.26-1-.71-1a1.18 1.18 0 0 0-.88.43c0 1.17.23 1.63.82 1.63s.77-.39.77-1.05zm-6 83.6h-.68V401h-1.27v-1.21h-2.54v-.9l1.68-3.65 1.13.42-1.42 3.13h1.17l.2-1.33h1.07v1.33h.68zm4.74-4.82l-5.51 10.76-1-.52 5.51-10.75zm2.62 7.77a2 2 0 0 1-2.13 2.07c-1.57 0-2.23-1.1-2.23-2.72 0-1.92 1-3.19 2.56-3.19a2.33 2.33 0 0 1 1.33.38l-.49.81a1.63 1.63 0 0 0-.82-.23c-.68 0-1.11.55-1.18 1.56a1.73 1.73 0 0 1 1.26-.54 1.67 1.67 0 0 1 1.7 1.86zm-1.36 0c0-.72-.26-1-.71-1a1.18 1.18 0 0 0-.88.43c0 1.17.23 1.63.82 1.63s.77-.39.77-1.05zM108 482.89h-2.19v1.18a2.26 2.26 0 0 1 .91-.2 1.67 1.67 0 0 1 1.7 1.84 2.05 2.05 0 0 1-2.3 2 2.52 2.52 0 0 1-2-.86l.78-.71a1.41 1.41 0 0 0 1.13.55.89.89 0 0 0 1-1c0-.7-.35-.93-.83-.93a1.37 1.37 0 0 0-.72.21h-.94v-3.05h3.61zm5.32-1.29l-5.51 10.75-1-.51 5.51-10.76zm2.62 7.72a2 2 0 0 1-2.13 2.07c-1.57 0-2.23-1.1-2.23-2.72 0-1.92 1-3.19 2.56-3.19a2.33 2.33 0 0 1 1.33.38l-.49.81a1.63 1.63 0 0 0-.82-.23c-.68 0-1.11.55-1.18 1.56a1.73 1.73 0 0 1 1.26-.54 1.67 1.67 0 0 1 1.7 1.86zm-1.36 0c0-.72-.26-1-.71-1a1.16 1.16 0 0 0-.88.44c0 1.17.23 1.62.82 1.62s.77-.38.77-1.05zm-6.07 82.89a2 2 0 0 1-2.13 2.07c-1.57 0-2.23-1.1-2.23-2.72 0-1.92 1-3.18 2.56-3.18a2.33 2.33 0 0 1 1.33.37l-.49.81a1.74 1.74 0 0 0-.82-.23c-.68 0-1.11.55-1.18 1.56a1.77 1.77 0 0 1 1.26-.54 1.67 1.67 0 0 1 1.7 1.86zm-1.36 0c0-.73-.25-1-.71-1a1.15 1.15 0 0 0-.88.43c0 1.17.23 1.62.82 1.62s.77-.38.77-1.03zm6.17-4.06l-5.51 10.75-1-.51 5.51-10.75zm2.62 7.72a2 2 0 0 1-2.13 2.07c-1.57 0-2.23-1.1-2.23-2.71 0-1.93 1-3.19 2.56-3.19a2.33 2.33 0 0 1 1.33.37l-.49.81a1.74 1.74 0 0 0-.82-.23c-.68 0-1.11.55-1.18 1.56a1.77 1.77 0 0 1 1.26-.54 1.67 1.67 0 0 1 1.7 1.86zm-1.36 0c0-.73-.26-1-.71-1a1.15 1.15 0 0 0-.88.43c0 1.17.23 1.63.82 1.63s.77-.39.77-1.04zm105.23 50.18c0 .86-.49 1.51-2.32 3.07h2.44l-.13 1H216v-1c2-1.85 2.45-2.37 2.45-3a.7.7 0 0 0-.77-.74 1.35 1.35 0 0 0-1.09.58l-.79-.63a2.49 2.49 0 0 1 2-1c1.3.07 2.01.82 2.01 1.72zm5.04-1.85l-5.51 10.8-1-.51 5.5-10.76zm2.62 7.72a2 2 0 0 1-2.12 2.07c-1.58 0-2.24-1.1-2.24-2.72 0-1.92 1-3.18 2.56-3.18a2.33 2.33 0 0 1 1.33.37l-.48.81a1.8 1.8 0 0 0-.82-.23c-.69 0-1.12.55-1.19 1.56a1.77 1.77 0 0 1 1.27-.54 1.66 1.66 0 0 1 1.69 1.86zm-1.36 0c0-.72-.25-1-.71-1a1.17 1.17 0 0 0-.88.43c0 1.17.23 1.62.83 1.62s.76-.38.76-1.04zm56.35-6.04a1.36 1.36 0 0 1-1.21 1.32 1.34 1.34 0 0 1 1.41 1.37c0 .95-.81 1.76-2.26 1.76a2.57 2.57 0 0 1-2-.86l.76-.71a1.52 1.52 0 0 0 1.18.54c.55 0 .94-.29.94-.81s-.35-.8-1-.8h-.48l.16-.91h.32c.52 0 .86-.26.86-.71s-.31-.65-.79-.65a1.78 1.78 0 0 0-1.16.48l-.67-.71a2.81 2.81 0 0 1 2-.77c1.25 0 1.94.65 1.94 1.46zm5.05-1.68L282 635l-1-.51 5.5-10.76zm2.62 7.72A2 2 0 0 1 288 634c-1.58 0-2.24-1.1-2.24-2.72 0-1.92 1-3.18 2.56-3.18a2.33 2.33 0 0 1 1.33.37l-.48.81a1.77 1.77 0 0 0-.82-.23c-.69 0-1.12.55-1.19 1.56a1.77 1.77 0 0 1 1.27-.54 1.66 1.66 0 0 1 1.7 1.85zm-1.36 0c0-.72-.25-1-.71-1a1.17 1.17 0 0 0-.88.43c0 1.17.23 1.62.83 1.62s.76-.38.76-1.04zm56.66-2.92h-.67v1.22h-1.28V629h-2.54v-.9l1.68-3.65 1.13.42-1.44 3.13h1.17l.2-1.33h1.08V628h.67zm4.74-4.8l-5.51 10.8-1-.51 5.5-10.76zm2.62 7.72a2 2 0 0 1-2.12 2.07c-1.58 0-2.24-1.1-2.24-2.72 0-1.92 1-3.18 2.56-3.18a2.33 2.33 0 0 1 1.33.37l-.48.81a1.77 1.77 0 0 0-.84-.27c-.69 0-1.12.55-1.19 1.56a1.77 1.77 0 0 1 1.27-.54 1.66 1.66 0 0 1 1.71 1.9zm-1.36 0c0-.72-.25-1-.71-1a1.17 1.17 0 0 0-.88.43c0 1.17.23 1.62.83 1.62s.76-.38.76-1.04zm56.12-6.43h-2.19v1.18a2.26 2.26 0 0 1 .91-.2 1.67 1.67 0 0 1 1.7 1.84 2 2 0 0 1-2.3 2 2.54 2.54 0 0 1-2-.86l.78-.71a1.41 1.41 0 0 0 1.13.55.89.89 0 0 0 1-1c0-.7-.35-.92-.83-.92a1.38 1.38 0 0 0-.72.2h-.94v-3h3.61zm5.28-1.29l-5.51 10.8-1-.51 5.5-10.76zm2.62 7.72a2 2 0 0 1-2.12 2.07c-1.58 0-2.24-1.1-2.24-2.72 0-1.92 1-3.18 2.56-3.18a2.33 2.33 0 0 1 1.33.37l-.48.81a1.77 1.77 0 0 0-.82-.23c-.69 0-1.12.55-1.19 1.56a1.77 1.77 0 0 1 1.27-.54 1.66 1.66 0 0 1 1.69 1.86zm-1.36 0c0-.72-.25-1-.71-1a1.17 1.17 0 0 0-.88.43c0 1.17.23 1.62.83 1.62s.76-.38.76-1.04zm58.09-3.66a2 2 0 0 1-2.13 2.07c-1.57 0-2.23-1.1-2.23-2.72 0-1.92 1-3.19 2.55-3.19a2.34 2.34 0 0 1 1.34.38l-.49.81a1.63 1.63 0 0 0-.82-.23c-.69 0-1.12.55-1.18 1.56a1.7 1.7 0 0 1 1.26-.54 1.67 1.67 0 0 1 1.7 1.86zm-1.36 0c0-.72-.26-1-.72-1a1.18 1.18 0 0 0-.87.43c0 1.18.23 1.63.82 1.63s.77-.39.77-1.05zm6.18-4.06l-5.52 10.8-1-.51 5.52-10.81zm2.61 7.72a2 2 0 0 1-2.13 2.07c-1.57 0-2.23-1.1-2.23-2.72 0-1.92 1-3.18 2.55-3.18a2.34 2.34 0 0 1 1.34.37l-.49.81a1.74 1.74 0 0 0-.82-.23c-.69 0-1.12.55-1.18 1.56a1.74 1.74 0 0 1 1.26-.54 1.67 1.67 0 0 1 1.7 1.86zm-1.36 0c0-.72-.26-1-.72-1a1.15 1.15 0 0 0-.87.43c0 1.17.23 1.62.82 1.62s.77-.38.77-1.04z" class="a76de67a-f61c-491c-8dcb-a87af07416c5" transform="translate(-.5 -.87)"/><path d="M102.34 11.06a4.09 4.09 0 0 1-4.12 4.38c-3.09 0-4.36-2.38-4.36-5.85 0-4 1.88-6.71 5-6.71a4.73 4.73 0 0 1 2.64.77l-.87 1.42a3.41 3.41 0 0 0-1.74-.48c-1.52 0-2.49 1.45-2.62 3.87a3.4 3.4 0 0 1 2.71-1.33c1.84 0 3.36 1.37 3.36 3.93zm-2.31 0c0-1.72-.63-2.3-1.65-2.3A2.74 2.74 0 0 0 96.24 10c0 2.58.59 3.7 2 3.7 1.2.04 1.76-1.02 1.76-2.6zm3.82-2.42h5.42v1.83h-5.42zM120 3.81l-1.2 1.4a3.6 3.6 0 0 0-2.3-.88c-1.72 0-3 1.26-3 4.62s1.29 4.59 3 4.59a4 4 0 0 0 2.53-1l1.12 1.4a5.25 5.25 0 0 1-3.74 1.5c-3.21 0-5.41-2.28-5.41-6.44s2.37-6.45 5.42-6.45A5.21 5.21 0 0 1 120 3.81zm9.73 6.61c0 3-1.67 5-4.47 5s-4.47-1.9-4.47-5 1.67-5 4.49-5 4.45 1.89 4.45 5zm-6.52 0c0 2.28.71 3.28 2.05 3.28s2-1 2-3.28-.7-3.27-2-3.27-2.05 1.02-2.05 3.27zm8.53 2.58V1.88l2.3-.25v11.3c0 .45.14.66.53.66a1.35 1.35 0 0 0 .52-.09l.51 1.62a3.87 3.87 0 0 1-1.55.32 2.17 2.17 0 0 1-2.31-2.44zm12.99 2.17h-2l-.13-1.32a3.19 3.19 0 0 1-2.9 1.59c-1.73 0-2.64-1.11-2.64-2.94V5.68h2.3v6.53c0 1.12.35 1.49 1.14 1.49a2.3 2.3 0 0 0 1.92-1.34V5.68h2.3zM160 8.3v6.87h-2.29V8.66c0-1.18-.47-1.53-1-1.53-.79 0-1.28.56-1.8 1.44v6.6h-2.3V8.66c0-1.18-.48-1.53-1-1.53-.8 0-1.29.56-1.81 1.44v6.6h-2.3V5.68h2l.17 1.24a3.25 3.25 0 0 1 2.75-1.51 2.32 2.32 0 0 1 2.3 1.6 3.37 3.37 0 0 1 2.85-1.6c1.43 0 2.43 1.1 2.43 2.89zm10.34 0v6.87H168V8.66c0-1.18-.45-1.53-1.16-1.53s-1.44.56-2 1.44v6.6h-2.29V5.68h2l.18 1.24a3.56 3.56 0 0 1 2.89-1.51 2.56 2.56 0 0 1 2.72 2.89zM186.47 4l-1.27 1.29a3.79 3.79 0 0 0-2.6-1c-1.76 0-3.27 1.33-3.27 4.66s1 4.67 2.94 4.67a4 4 0 0 0 2-.48V9.92h-1.87l-.25-1.76h4.45v6.06a8.18 8.18 0 0 1-4.27 1.22c-3.54 0-5.47-2.22-5.47-6.48s2.58-6.46 5.69-6.46a5.73 5.73 0 0 1 3.92 1.5zm8.03 1.56l-.4 2.22a3.16 3.16 0 0 0-.84-.11c-1.15 0-1.74.85-2.1 2.44v5.06h-2.3V5.68h2l.22 1.87a2.66 2.66 0 0 1 2.47-2.12 3.37 3.37 0 0 1 .95.13zm3.98-3.29a1.45 1.45 0 0 1-2.89 0 1.45 1.45 0 0 1 2.89 0zm-.29 12.9h-2.29V5.68h2.29zm10.63-13.29v13.29h-2l-.16-1.2a3.18 3.18 0 0 1-2.71 1.47c-2.37 0-3.61-2-3.61-5s1.47-5 3.82-5a3.31 3.31 0 0 1 2.39 1V1.63zm-2.3 10.6V8.14a2.28 2.28 0 0 0-1.81-1c-1.19 0-2 1-2 3.29 0 2.44.7 3.28 1.83 3.28a2.24 2.24 0 0 0 1.98-1.23zM96.87 34.77h5l-.27 1.94h-7.1v-12.4h2.37zm13.93-2.1h-6c.18 1.94 1.08 2.57 2.33 2.57a3.94 3.94 0 0 0 2.37-.85l.95 1.31A5.42 5.42 0 0 1 107 37c-2.94 0-4.52-2-4.52-5s1.52-5 4.19-5 4.18 1.79 4.18 4.79c0 .21-.04.63-.05.88zm-2.23-1.6c0-1.56-.56-2.49-1.85-2.49-1.07 0-1.76.72-1.88 2.6h3.73zm6.91-4.86v1h1.76l-.24 1.66h-1.51v7.84h-2.3v-7.84h-1.54v-1.65h1.54v-1c0-1.73 1.15-3 3.34-3a5.72 5.72 0 0 1 1.54.22l-.44 1.56a3.29 3.29 0 0 0-.88-.13c-.93.03-1.27.44-1.27 1.34zm9.1 10.05a4.18 4.18 0 0 1-2.39.72c-1.86 0-2.85-1.08-2.85-3.11v-5h-1.49v-1.65h1.49v-2.1l2.3-.27v2.37h2.2l-.23 1.65h-2v4.95c0 .93.3 1.31 1 1.31a2.28 2.28 0 0 0 1.13-.34zm.12-6.08h5.42V32h-5.42zm14.58.98h-4.42v5.55h-2.37v-12.4h2.37v5h4.42v-5h2.38v12.4h-2.38zm12.88 4.26l-.48 1.52a2.14 2.14 0 0 1-2.1-1.38 3.3 3.3 0 0 1-2.86 1.44 2.82 2.82 0 0 1-3.05-2.93c0-2.06 1.55-3.17 4.31-3.17h1.2v-.54c0-1.24-.55-1.65-1.77-1.65a8.68 8.68 0 0 0-2.53.5l-.53-1.56a9.77 9.77 0 0 1 3.43-.68c2.55 0 3.66 1.16 3.66 3.26v4c0 .77.25 1.01.72 1.19zm-3-1.28v-1.92h-1c-1.49 0-2.22.54-2.22 1.65 0 .92.46 1.44 1.34 1.44a2 2 0 0 0 1.9-1.17zm12.78-4.3v6.87h-2.3v-6.52c0-1.18-.44-1.52-1.16-1.52a2.45 2.45 0 0 0-2 1.43v6.61h-2.3v-9.49h2l.18 1.23a3.55 3.55 0 0 1 2.89-1.5c1.75.05 2.69 1.05 2.69 2.89zm10.52-6.43v13.3h-2l-.16-1.2a3.18 3.18 0 0 1-2.74 1.49c-2.37 0-3.61-2-3.61-5s1.47-5 3.82-5a3.31 3.31 0 0 1 2.39 1v-4.84zM170.16 34v-4.33a2.27 2.27 0 0 0-1.81-1c-1.19 0-2 1-2 3.28 0 2.44.7 3.29 1.84 3.29a2.26 2.26 0 0 0 1.97-1.24zm18.27-5.74c0 2.85-2.06 4.12-4.86 4.12h-1.46v4.33h-2.37v-12.4h3.67c3.12 0 5.02 1.27 5.02 3.95zm-2.48 0c0-1.56-.95-2.21-2.56-2.21h-1.28v4.56h1.28c1.61 0 2.61-.54 2.61-2.35zm11.29 7.16l-.48 1.52a2.14 2.14 0 0 1-2.1-1.38A3.3 3.3 0 0 1 191.8 37a2.82 2.82 0 0 1-3.05-2.93c0-2.06 1.55-3.17 4.31-3.17h1.2v-.54c0-1.24-.55-1.65-1.77-1.65a8.68 8.68 0 0 0-2.53.5l-.53-1.56a9.77 9.77 0 0 1 3.43-.68c2.55 0 3.66 1.16 3.66 3.26v4c0 .77.25 1.01.72 1.19zm-3-1.28v-1.92h-.95c-1.49 0-2.22.54-2.22 1.65 0 .92.46 1.44 1.34 1.44a2 2 0 0 0 1.85-1.17zm13.28-6.42a8.5 8.5 0 0 1-2.74.32 2.5 2.5 0 0 1 1.72 2.44c0 1.85-1.43 3.2-3.82 3.2a3.77 3.77 0 0 1-1.13-.15.86.86 0 0 0-.4.7c0 .34.2.67 1.15.67h1.45c2.1 0 3.47 1.13 3.47 2.69 0 1.9-1.63 3-4.74 3-3.37 0-4.32-1.08-4.32-3h2.06c0 1 .41 1.37 2.3 1.37s2.38-.51 2.38-1.26-.55-1.13-1.61-1.13h-1.44c-1.9 0-2.71-.84-2.71-1.83a2.14 2.14 0 0 1 1.12-1.74 2.76 2.76 0 0 1-1.67-2.67c0-2.07 1.63-3.41 3.93-3.41a7.73 7.73 0 0 0 4.48-1.03zm-6.62 2.6a1.65 1.65 0 0 0 1.69 1.87c1.09 0 1.69-.69 1.69-1.89s-.58-1.79-1.73-1.79a1.61 1.61 0 0 0-1.65 1.81zm15.65 2.35h-6c.18 1.94 1.08 2.57 2.34 2.57a3.89 3.89 0 0 0 2.36-.85l1 1.31a5.46 5.46 0 0 1-3.52 1.3c-2.94 0-4.52-2-4.52-5s1.52-5 4.21-5 4.18 1.79 4.18 4.79c0 .21-.03.63-.05.88zm-2.22-1.6c0-1.56-.56-2.49-1.85-2.49-1.08 0-1.76.72-1.89 2.6h3.74zm12.83-8.66a12.51 12.51 0 0 0-2.53 8 12.55 12.55 0 0 0 2.53 8l-1.47 1c-1.78-2.48-3.41-4.74-3.41-9s1.63-6.53 3.41-9zm6.19 14.3h-2.78l-2-12.4H231l1.21 10.3 4.07-10.3h2.42zm6.76-3.48c.06 1.47.81 2 1.85 2a4.11 4.11 0 0 0 2.48-.88l.88 1.44a6.2 6.2 0 0 1-3.61 1.21 3.58 3.58 0 0 1-3.91-4c0-2.58 1.35-6.08 5.17-6.08 2.17 0 3.28 1.16 3.28 2.51 0 2.7-3.01 3.47-6.14 3.8zm3.81-3.68a1 1 0 0 0-1.08-1c-1.63 0-2.37 1.6-2.62 3.12 2.55-.2 3.7-.9 3.7-2.12zm10.21-2.44l-.67 2.21a2.54 2.54 0 0 0-.78-.11c-1.21 0-1.92 1.13-2.52 2.81l-.66 4.69h-2.26l1.33-9.49h2l-.07 1.84a2.87 2.87 0 0 1 3.68-1.95zm7.23 1.04l-1 1.27a3.93 3.93 0 0 0-2.28-.77c-1 0-1.54.38-1.54 1s.48.82 1.87 1.27c1.68.54 2.56 1.36 2.56 2.85 0 1.92-1.61 3.2-4.13 3.2a5.14 5.14 0 0 1-3.73-1.47l1.19-1.24a3.89 3.89 0 0 0 2.6 1c1.29 0 1.77-.64 1.77-1.22 0-.75-.43-1-1.93-1.5-1.73-.56-2.48-1.33-2.48-2.69S255.49 27 258 27a4.89 4.89 0 0 1 3.36 1.15zm.99 4.85c0-2.52 1.26-6 5.11-6 2.46 0 3.83 1.54 3.83 4s-1.24 6-5.12 6c-2.46 0-3.82-1.55-3.82-4zm6.58-2.23c0-1.43-.53-2.06-1.59-2.06-2.14 0-2.66 2.85-2.66 4.47 0 1.43.56 2.08 1.62 2.08 2.13-.02 2.63-2.89 2.63-4.51zm8.62-2.32c0 4.71-1.76 7.52-4.74 11l-1.36-1a15.22 15.22 0 0 0 3.84-10.24 11.29 11.29 0 0 0-1.55-5.87l1.53-.88a12.82 12.82 0 0 1 2.28 6.99zM11.63 95.7c0 4.09-2.1 6.48-5.42 6.48S.77 99.87.77 95.72s2.12-6.48 5.44-6.48 5.42 2.32 5.42 6.46zm-8.36 0c0 3.34 1.13 4.65 2.94 4.65s2.92-1.31 2.92-4.67-1.06-4.64-2.92-4.64-2.94 1.34-2.94 4.68zm18.03 6.21h-2l-.13-1.33a3.18 3.18 0 0 1-2.9 1.6c-1.73 0-2.64-1.11-2.64-2.94v-6.82h2.3V99c0 1.11.35 1.49 1.14 1.49a2.29 2.29 0 0 0 1.93-1.4v-6.67h2.3zm8.17-.45a4.15 4.15 0 0 1-2.39.72c-1.87 0-2.85-1.08-2.85-3.1v-5h-1.49v-1.66h1.49v-2.1l2.29-.27v2.37h2.21l-.23 1.65h-2v5c0 .94.31 1.31 1 1.31a2.18 2.18 0 0 0 1.13-.34zm7.66-8.18l-.9 1.35a4.27 4.27 0 0 0-2.38-.78c-.92 0-1.44.38-1.44 1s.38.91 2 1.36c1.94.52 3 1.31 3 3 0 2-1.83 3-4 3a5.59 5.59 0 0 1-3.78-1.34l1.14-1.3a4.3 4.3 0 0 0 2.59.94c1 0 1.69-.43 1.69-1.15s-.38-1-2.16-1.54c-1.95-.54-2.82-1.48-2.82-2.88 0-1.58 1.46-2.76 3.67-2.76a5.34 5.34 0 0 1 3.39 1.1zM41.81 89a1.45 1.45 0 1 1-1.45-1.4 1.38 1.38 0 0 1 1.45 1.4zm-.28 12.9h-2.3v-9.48h2.3zm10.62-13.28v13.29h-2l-.16-1.2a3.17 3.17 0 0 1-2.71 1.47c-2.37 0-3.61-2-3.61-5s1.48-5 3.83-5a3.3 3.3 0 0 1 2.38 1v-4.82zm-2.3 10.6v-4.34a2.28 2.28 0 0 0-1.81-1c-1.18 0-2 1-2 3.29 0 2.44.7 3.28 1.83 3.28a2.24 2.24 0 0 0 1.98-1.23zm12.76-1.35h-6c.18 1.94 1.08 2.57 2.34 2.57a4 4 0 0 0 2.37-.84l1 1.31a5.49 5.49 0 0 1-3.52 1.27c-2.94 0-4.52-2-4.52-5s1.52-5.08 4.21-5.08 4.19 1.79 4.19 4.79c-.01.36-.05.73-.07.98zm-2.22-1.59c0-1.56-.56-2.5-1.85-2.5-1.08 0-1.76.72-1.89 2.61h3.74zm-47.18 27.17h-2.32l-.32-5.19c-.11-1.83-.2-3.75-.16-5.06l-2.26 8.9H5.9l-2.4-8.92a49.53 49.53 0 0 1-.07 5.15l-.31 5.12H.83l1-12.4h3.03l2.21 8.68 2.08-8.68h3.09zm9.89-1.29l-.49 1.52a2.14 2.14 0 0 1-2.1-1.38 3.27 3.27 0 0 1-2.85 1.42 2.82 2.82 0 0 1-3.05-2.93c0-2.06 1.54-3.17 4.3-3.17h1.21v-.54c0-1.24-.56-1.65-1.78-1.65a8.74 8.74 0 0 0-2.53.5l-.52-1.56a9.77 9.77 0 0 1 3.43-.68c2.54 0 3.66 1.16 3.66 3.26v4c0 .76.25 1.05.72 1.21zm-3-1.28V119h-.95c-1.49 0-2.23.54-2.23 1.65a1.26 1.26 0 0 0 1.35 1.44 2.06 2.06 0 0 0 1.85-1.21zm10.66-7.05l-.4 2.22a3.12 3.12 0 0 0-.84-.1c-1.15 0-1.74.84-2.1 2.44v5.06h-2.3V114h2l.21 1.87a2.68 2.68 0 0 1 2.48-2.12 3.3 3.3 0 0 1 .95.08zm9.46.63a8.61 8.61 0 0 1-2.75.32 2.5 2.5 0 0 1 1.72 2.44c0 1.85-1.43 3.19-3.82 3.19a3.77 3.77 0 0 1-1.13-.14.86.86 0 0 0-.39.7c0 .34.19.66 1.14.66h1.46c2.1 0 3.46 1.14 3.46 2.7 0 1.9-1.63 3-4.74 3-3.37 0-4.32-1.08-4.32-3h2.06c0 1 .42 1.36 2.3 1.36s2.39-.5 2.39-1.25-.6-1.08-1.6-1.08h-1.45c-1.91 0-2.71-.85-2.71-1.83a2.13 2.13 0 0 1 1.16-1.76 2.76 2.76 0 0 1-1.67-2.68c0-2.06 1.63-3.4 3.93-3.4a7.73 7.73 0 0 0 4.43-1.06zm-6.63 2.6a1.65 1.65 0 0 0 1.69 1.87c1.1 0 1.69-.69 1.69-1.89s-.58-1.79-1.72-1.79a1.61 1.61 0 0 0-1.66 1.81zm10.56-6.51a1.38 1.38 0 0 1-1.46 1.38 1.39 1.39 0 1 1 0-2.78 1.39 1.39 0 0 1 1.46 1.4zm-.29 12.9h-2.3V114h2.3zm10.44-6.88v6.88H52v-6.52c0-1.18-.45-1.52-1.17-1.52a2.43 2.43 0 0 0-2 1.43v6.61h-2.3V114h2l.18 1.24a3.55 3.55 0 0 1 2.89-1.5c1.72-.05 2.7 1.02 2.7 2.83zM5.38 130.68a14 14 0 0 0 0 16l-1.47 1C2.13 145.23.5 143 .5 138.7s1.63-6.53 3.41-9zm9.62 3.79h-3.25V145H9.37v-10.53H6v-1.89h9.21zm9.42 3.64V145h-2.29v-6.51c0-1.19-.47-1.53-1.17-1.53a2.48 2.48 0 0 0-2 1.42V145h-2.3v-13.3l2.3-.23v5.15a3.4 3.4 0 0 1 2.76-1.4 2.57 2.57 0 0 1 2.7 2.89zM34.56 145h-2l-.13-1.33a3.17 3.17 0 0 1-2.9 1.6c-1.72 0-2.64-1.11-2.64-2.94v-6.82h2.3V142c0 1.11.36 1.49 1.15 1.49a2.33 2.33 0 0 0 1.92-1.34v-6.68h2.29zm15.27-6.89V145h-2.29v-6.51c0-1.19-.47-1.53-1-1.53-.79 0-1.28.56-1.8 1.44v6.6H42.4v-6.51c0-1.19-.48-1.53-1-1.53-.8 0-1.29.56-1.81 1.44v6.6h-2.3v-9.49h2l.18 1.24a3.22 3.22 0 0 1 2.74-1.51 2.32 2.32 0 0 1 2.3 1.6 3.38 3.38 0 0 1 2.85-1.6c1.47-.02 2.47 1.08 2.47 2.87zm11.02 2.12c0 3-1.42 5-3.75 5a3.1 3.1 0 0 1-2.51-1.23l-.14 1h-2v-13.31l2.3-.26v5.14a3.14 3.14 0 0 1 2.62-1.35c2.17 0 3.48 1.83 3.48 5.01zm-2.4 0c0-2.53-.76-3.29-1.85-3.29a2.25 2.25 0 0 0-1.88 1.3v4.19a2.05 2.05 0 0 0 1.75 1.1c1.17 0 1.98-.92 1.98-3.3zm6.8 3.57a1.44 1.44 0 0 1-1.45 1.45 1.46 1.46 0 1 1 0-2.91 1.44 1.44 0 0 1 1.45 1.46zm-.5-3.2h-1.92l-.29-8H65zm6.53-1.9c0 4.27-1.62 6.53-3.41 9l-1.45-1a14 14 0 0 0 0-16l1.45-1c1.79 2.47 3.41 4.73 3.41 9z" class="aa9fdaa3-f79f-40da-9c14-dbeb3ebdd22b" transform="translate(-.5 -.87)"/><path d="M127.09 101.04V612.5" class="b6487210-c8a5-4675-9eee-dd718083cef9"/><path d="M182.27 101.04v2.99" class="a533d1bd-3212-40ed-af6e-8eff9d7e8972"/><path d="M182.27 109.98v496.56" class="eec6e992-0eed-4cd5-951b-c9cee463889c"/><path d="M182.27 609.51v2.99m5.98-511.46v2.99" class="a533d1bd-3212-40ed-af6e-8eff9d7e8972"/><path d="M188.25 109.98v496.56" class="eec6e992-0eed-4cd5-951b-c9cee463889c"/><path d="M188.25 609.51v2.99" class="a533d1bd-3212-40ed-af6e-8eff9d7e8972"/><path d="M243.81 101.04V612.5m5.98-511.46V612.5" class="b6487210-c8a5-4675-9eee-dd718083cef9"/><path d="M305.34 101.04v2.99" class="a533d1bd-3212-40ed-af6e-8eff9d7e8972"/><path d="M305.34 109.98v496.56" class="eec6e992-0eed-4cd5-951b-c9cee463889c"/><path d="M305.34 609.51v2.99m5.99-511.46v2.99" class="a533d1bd-3212-40ed-af6e-8eff9d7e8972"/><path d="M311.33 109.98v496.56" class="eec6e992-0eed-4cd5-951b-c9cee463889c"/><path d="M311.33 609.51v2.99" class="a533d1bd-3212-40ed-af6e-8eff9d7e8972"/><path d="M366.88 101.04V612.5m5.98-511.46V612.5" class="b6487210-c8a5-4675-9eee-dd718083cef9"/><path d="M428.42 101.04v2.99" class="a533d1bd-3212-40ed-af6e-8eff9d7e8972"/><path d="M428.42 109.98v496.56" class="eec6e992-0eed-4cd5-951b-c9cee463889c"/><path d="M428.42 609.51v2.99m5.98-511.46v2.99" class="a533d1bd-3212-40ed-af6e-8eff9d7e8972"/><path d="M434.4 109.98v496.56" class="eec6e992-0eed-4cd5-951b-c9cee463889c"/><path d="M434.4 609.51v2.99" class="a533d1bd-3212-40ed-af6e-8eff9d7e8972"/><path d="M127.09 187.03h362.49m-362.49-5.98h362.49M127.09 273.4h362.49m-362.49-5.99h362.49m-362.49 92.35h362.49m-362.49-5.98h362.49m-362.49 92.35h362.49m-362.49-5.99h362.49m-362.49 92.35h362.49m-362.49-5.98h362.49" class="b7003ca0-de41-4934-89a2-ad3069e91eb9"/><path d="M489.58 101.04V612.5M127.09 101.04h362.49M127.09 612.5h362.49" class="b6487210-c8a5-4675-9eee-dd718083cef9"/><path d="M127.09 101.04h55.18v80.38h-55.18zm0 172.36h116.72v80.38H127.09z" class="e0d977be-81c2-4820-ad34-0492c2af5c67"/><path d="M147.17 145.41h-1.7v-7.32l-2 1.22-.76-1.15 3-1.81h1.52zm11.41 0h-2l-1.47-2.83-1.45 2.83h-1.9l2.37-3.75-2.13-3.37h2l1.21 2.42 1.2-2.42h1.87l-2.06 3.31zm8.11 0H165v-7.32l-2 1.22-.75-1.15 2.95-1.81h1.52zm12.17 165.68c0 1.54-.87 2.65-3.67 5.32h3.87l-.19 1.36h-5.63v-1.27c3.09-3.15 3.84-4 3.84-5.27a1.21 1.21 0 0 0-1.3-1.32 2.14 2.14 0 0 0-1.75.95L173 310a3.55 3.55 0 0 1 2.93-1.48c1.85.03 2.93 1.16 2.93 2.57zm10.88 6.68h-2l-1.46-2.83-1.46 2.83h-1.89l2.36-3.76-2.12-3.36h2l1.21 2.42 1.2-2.42h1.87l-2.1 3.35zm8.1 0h-1.7v-7.32l-2 1.22-.75-1.16 2.95-1.8h1.52z" class="abd1b66e-b305-4b4e-ac3e-1a88ddd955c5" transform="translate(-.5 -.87)"/><path d="M249.98 187.22H366.7v166.75H249.98zm0 172.54h239.8v166.5h-239.8z" class="e0d977be-81c2-4820-ad34-0492c2af5c67"/><path d="M301.37 268.1c0 1.53-.88 2.65-3.68 5.31h3.88l-.19 1.36h-5.64v-1.26c3.1-3.15 3.85-4 3.85-5.28a1.22 1.22 0 0 0-1.31-1.32 2.14 2.14 0 0 0-1.74 1l-1.05-.84a3.53 3.53 0 0 1 2.93-1.48c1.87-.04 2.95 1.09 2.95 2.51zm10.87 6.67h-2l-1.46-2.77-1.45 2.82h-1.9l2.37-3.82-2.13-3.37h2l1.21 2.42 1.2-2.42h1.87l-2.09 3.37zm9.41-6.67c0 1.53-.88 2.65-3.67 5.31h3.87l-.19 1.36H316v-1.26c3.1-3.15 3.85-4 3.85-5.28a1.22 1.22 0 0 0-1.3-1.32 2.14 2.14 0 0 0-1.75 1l-1.05-.84a3.55 3.55 0 0 1 2.93-1.48c1.89-.04 2.97 1.09 2.97 2.51zm41.95 177.02h-1.09v2.07h-1.68v-2.07H357v-1.19l2.63-6 1.47.55-2.31 5.29h2.07l.17-2.28h1.5v2.28h1.09zm10.47 2.07h-2l-1.47-2.83-1.45 2.83h-1.9l2.37-3.76-2.13-3.36h2l1.21 2.42 1.2-2.42h1.87l-2.06 3.31zm9.41-6.68c0 1.54-.88 2.65-3.68 5.32h3.88l-.19 1.36h-5.64v-1.27c3.1-3.15 3.85-4 3.85-5.27a1.21 1.21 0 0 0-1.3-1.32 2.15 2.15 0 0 0-1.75.95l-1-.83a3.53 3.53 0 0 1 2.93-1.48c1.82.03 2.9 1.13 2.9 2.54z" class="abd1b66e-b305-4b4e-ac3e-1a88ddd955c5" transform="translate(-.5 -.87)"/></g></g></svg>