<svg xmlns="http://www.w3.org/2000/svg" viewBox="0 0 800 800" width="800" height="800"><path d="M0 0h800v800H0V0z"/><path d="M50 50h700v700H50V50z"/><path d="M282.2 220.6v372.8h-68.1V220.6h68.1zm301.4-20v316.9c0 27.6 1.1 57.5 2.2 75.8H525l-2.8-42.6h-1.1c-16 29.9-48.6 48.6-87.9 48.6-64.2 0-115-54.7-115-137.8-.6-90.1 55.8-143.9 120.6-143.9 37.1 0 63.6 15.6 75.8 35.4h1.1V200.6h67.9zm-68 235.6c0-5.6-.6-12.2-1.7-17.6-6.1-26.5-27.6-48.1-58.6-48.1-43.8 0-68.1 38.8-68.1 89 0 49.2 24.3 85.1 67.5 85.1 27.6 0 51.9-18.8 58.6-48.1 1.7-6.1 2.2-12.8 2.2-19.9v-40.4h.1z"/></svg>