<svg xmlns="http://www.w3.org/2000/svg" id="Layer_1" viewBox="0 0 596.2 52.5" width="596.2" height="52.5"><style>.st0{fill:#505050}</style><path d="M28.9 28.1c-.2-.4-.3-.7-.5-.8-.1-.1-.4-.2-.9-.2H17.2c-.5 0-.8.1-1 .3-.2.2-.5.8-.8 1.8l-1.7 4.5c-.1.3-.2.6-.2.8 0 .7.4 1.1 1.3 1.1h.7c.3 0 .6-.1.9-.1.3 0 .6-.1.9-.1h.8c2.3 0 3.4.9 3.4 2.8 0 1.8-1.2 2.7-3.6 2.7h-.5c-.2 0-.4-.1-.6-.1h-.2l-2.9-.4c-.2 0-.6-.1-1.1-.1H9.5c-.5 0-.9.1-1.1.1l-2.4.4c-.5.1-1 .1-1.4.2-.4 0-.8.1-1.1.1-2.2 0-3.3-.9-3.3-2.7 0-1.9 1.1-2.8 3.2-2.8h.5c.1 0 .3 0 .5.1h.5c.6 0 1.1-.3 1.5-.8.2-.3.6-1.2 1.1-2.6L18.1 3c.7-2 2.3-3 4.6-3s3.8 1 4.5 3l10.4 28.8c.6 1.6 1.1 2.6 1.5 3.2s1 .8 1.7.8c.3 0 .5 0 .6-.1h1.2c.2 0 .3 0 .4-.1 2.2 0 3.3.9 3.3 2.7 0 1.9-1.1 2.8-3.2 2.8h-.7c-.3 0-.5 0-.7-.1h-.4c-1.2-.2-2.3-.3-3.1-.3-.9-.1-1.6-.1-2.2-.1-.7 0-1.6 0-2.8.1-1.2.1-2.5.2-4.1.4h-.6c-.2 0-.5.1-.8.1h-.6c-2.2 0-3.3-.9-3.3-2.8s1.2-2.8 3.6-2.8h.7c.3 0 .6.1.9.1.3 0 .6.1.8.1h.6c.6 0 .9-.3.9-.8 0 0 0-.1-.1-.2 0-.1-.1-.3-.2-.5l-.2-.5v.1l-1.9-5.8zM18 21.9s0-.1-.1-.2h.1v.2zm-.1.3V22c0-.1 0 0 0 0v.2zm.1 0c-.1.1-.1 0 0 0zm4.5-13.5c-.8 2.2-1.5 4.4-2.3 6.5-.7 2.2-1.5 4.4-2.1 6.5h8.7v-.1L22.5 8.7zM26.8 22l-.1-.1s0-.1-.1-.2h.4c-.1.1-.2.2-.2.3zm22.5-11.3c1.4 0 2.2.6 2.4 1.8 1.1-1 2.2-1.8 3.4-2.2s2.6-.6 4.2-.6c1.9 0 3.5.3 4.8.8 1.3.6 2.5 1.5 3.5 2.8 1.2-1.1 2.5-2 4-2.7 1.5-.6 3.2-1 5.1-1 2.3 0 4.4.5 6.3 1.5 2.1 1.2 3.5 2.8 4.4 4.8.3.7.5 1.6.6 2.6.1 1 .2 2.3.2 3.6v5.6l-.1 4.3v1.8c0 .4 0 .8.1 1 .1.9.3 1.3.5 1.3s.5 0 .9-.1c.3 0 .6 0 1.1-.1.4 0 .6-.1.5-.1 1.9.1 2.9.9 2.9 2.5 0 1.9-1.1 2.8-3.2 2.8-.3 0-.7 0-1.2-.1-.5 0-1-.1-1.6-.2-1.2-.1-2-.2-2.5-.2h-1.2c-.5 0-1 .1-1.6.2-.6.1-1.1.1-1.6.2-.5 0-.9.1-1.3.1-2.3 0-3.4-.9-3.4-2.8 0-1.7.9-2.5 2.8-2.5h1.4c.2 0 .4.1.7.1.2 0 .3-.1.3-.4.2-.6.3-2.2.3-4.7v-7.4c0-2.5-.2-4.3-.5-5.4-.3-1.1-1-1.9-1.9-2.5-.9-.6-2-.9-3.3-.9-2.3 0-3.9.8-4.8 2.4-.8 1.4-1.2 3.8-1.2 7.4v4.1c0 1.7 0 3.1.1 4.2 0 1.1.1 1.9.2 2.4.1.4.2.7.4.7h.3c.2 0 .3 0 .5-.1.2 0 .5-.1.8-.1.3 0 .4-.1.4-.1.8 0 1.5.3 2 .8s.8 1.1.8 1.9c0 1.8-1.2 2.7-3.6 2.7-.4 0-.8 0-1.2-.1-.5 0-1-.1-1.5-.2-.6-.1-1-.1-1.4-.2-.4 0-.7-.1-.9-.1-.3 0-.7 0-1.2.1-.5 0-.9.1-1.4.2-.4.1-.9.1-1.3.2-.4 0-.9.1-1.3.1-2.2 0-3.3-.9-3.3-2.8 0-1.7.9-2.5 2.7-2.5.5 0 .9 0 1.2.1.2 0 .4.1.6.1h.4c.2 0 .4-.7.4-2.1v-2.6c0-.4.1-.9.1-1.3v-1.2c0-.3.1-.6.1-.7v-5c0-1.5-.1-2.8-.3-3.8s-.5-1.9-.9-2.5c-.4-.6-.9-1.1-1.6-1.4-.6-.3-1.5-.4-2.4-.4-2.2 0-3.9.8-5 2.4-1 1.3-1.5 3.7-1.5 7.3v7.6c0 1.5 0 2.4.1 2.6.1.8.2 1.2.3 1.2 0 0 .3-.1 1-.2.2 0 .3 0 .4-.1h.5c2.1 0 3.2.9 3.2 2.7 0 1.8-1.2 2.7-3.6 2.7-.7 0-1.5-.1-2.5-.2-.6-.1-1.2-.1-1.8-.2-.5 0-1-.1-1.5-.1-.4 0-1.2.1-2.4.2-.8.1-1.5.1-2 .2-.5 0-.9.1-1.1.1-2.2 0-3.3-.9-3.3-2.8 0-1.7 1-2.5 3.1-2.5h.4c.1 0 .2.1.4.1l1.7.3c.3-.2.5-.9.5-2 0-.6 0-1.1.1-1.6 0-.5.1-1.1.1-1.6v-8.8c0-1.6 0-2.8-.1-3.8s-.1-1.7-.2-2.1c0-.4-.2-.6-.4-.6l-.6.2-1 .1h-.3.2c-.1 0-.3.1-.4.1h-.4c-2.1 0-3.1-.9-3.1-2.7 0-1.8 1.1-2.7 3.3-2.7h.8c.3 0 .6.1.9.1.3 0 .7.1 1 .1h.9c.1 0 .3 0 .4-.1h2.2zm70.9 12.5c0 .9 0 1.7-.1 2.2 0 .5-.2.9-.4 1.2-.2.3-.5.5-.9.5-.4.1-.9.1-1.6.1H99.1c-.2 0-.2 0-.2.1 0 2.7.8 4.9 2.4 6.6 1.5 1.7 3.4 2.6 5.6 2.6 1.5 0 2.8-.4 4.1-1.2 1.2-.8 2-1.8 2.4-3.1l.5-1.6c.2-.6.6-1.1 1.1-1.5.5-.4 1-.5 1.7-.5 2.1 0 3.1 1 3.1 3 0 2.7-1.4 5.2-4.2 7.3-2.7 2-5.8 3-9.1 3-4.4 0-7.8-1.4-10.4-4.3-2.5-2.9-3.8-6.7-3.8-11.4 0-4.8 1.3-8.7 4-11.9 2.7-3.1 6.2-4.7 10.6-4.7 2 0 3.8.3 5.4 1 1.6.6 3 1.6 4.2 2.8 2.4 2.7 3.7 5.9 3.7 9.8zm-6.6-1.5c0-1.8-.7-3.4-2-4.7-1.4-1.3-3-2-4.7-2-1.8 0-3.5.7-5.2 2.2-1.5 1.4-2.3 2.9-2.3 4.5h14.2zm16.3-11c1.3 0 2.1.5 2.4 1.6 2-1.7 4.3-2.6 7.1-2.6 1.5 0 2.8.2 4.1.6s2.3 1 3.1 1.8c.9.8 1.6 1.7 2.1 2.8.5 1.1.7 2.3.7 3.6 0 1.9-.5 3.5-1.5 4.7-1 1.2-2.4 1.8-4.1 1.8-1.2 0-2.1-.3-2.9-1-.8-.7-1.2-1.5-1.2-2.5 0-.8.3-1.5 1-2.2.7-.6 1.4-1 2.3-1 .1 0 .1 0 0-.1-.1 0-.1 0 .2.1V18c0-.9-.4-1.6-1.2-2.2s-1.8-.9-2.9-.9c-2.5 0-4.2 1.2-5.1 3.5-.6 1.6-.8 4-.8 7.1v6.6c0 .7 0 1.1.1 1.3.2 1.8.5 2.7.8 2.7h.7c.2 0 .4-.1.6-.1.5-.2 1-.2 1.4-.2 1.9 0 2.8.9 2.8 2.6 0 1.9-1.1 2.8-3.3 2.8h-.2c-.3 0-.7 0-1.2-.1-.5 0-1-.1-1.6-.2-1.2-.1-2-.2-2.5-.2h-2c-.6 0-1.1.1-1.5.1l-3.3.3c-2.2 0-3.3-.9-3.3-2.8 0-1.7 1-2.5 3.1-2.5h.5c.1 0 .3 0 .5.1l.7.2h.5s.1.1.2.1h.1c.4 0 .6-.6.6-1.8 0-.5 0-1 .1-1.5 0-.5.1-1 .1-1.5l-.2-13c-.1-1.5-.3-2.3-.6-2.5-.1 0-.3 0-.6.1-.3 0-.5.1-.7.1h.1c-.5.1-1 .2-1.5.2-1.9 0-2.8-.9-2.8-2.7 0-1.9 1.1-2.8 3.4-2.8.1 0 .3.1.7.1.4 0 .8.1 1.1.1.3 0 .6.1.9.1h1c.1 0 .3 0 .5-.1h.5c.1-.3.5-.3 1-.3zm32.7 20.2v2.2c0 .5 0 .9.1 1.1.1 1.2.3 1.8.5 1.8 0 0 .1 0 .3-.1.2 0 .5-.1.9-.2l-.1.1c.1 0 .3-.1.5-.1s.4-.1.7-.1c2.1 0 3.1.9 3.1 2.7 0 .8-.3 1.5-1 2s-1.5.8-2.5.8c-.3 0-.7 0-1.2-.1-.5 0-1-.1-1.7-.2-.6-.1-1.1-.2-1.6-.2-.4-.1-.8-.1-1.1-.1-.4 0-.9 0-1.5.1-.5 0-1.1.1-1.7.2-.7.1-1.3.2-1.8.2-.5.1-.9.1-1.2.1-2.2 0-3.3-.9-3.3-2.8 0-1.8 1-2.7 3-2.7.1 0 .3 0 .7.1.4 0 .7.1.9.1.3.1.5.1.7.1h.4c.3 0 .5-1 .7-2.9V18.5c-.1-1.9-.4-2.8-.7-2.8-.1 0-.2 0-.4.1-.2 0-.4.1-.7.2-.2.1-.4.1-.7.2h-.6c-2.1 0-3.1-.9-3.1-2.7 0-1.8 1.2-2.7 3.5-2.7h1.1c.3 0 .5 0 .6.1.6.1 1 .1 1.4.2.4 0 .6.1.8.1h.5c.3 0 .5-.1.8-.1l1.6-.2c1.7 0 2.6 1 2.6 3v.8c0 .2-.1.3-.1.4v.2c0 .1-.1.7-.1 1.7v1.8c0 .8-.1 1.6-.1 2.4v9.7zm-4-21.7c-1.2 0-2.2-.4-3-1.2-.8-.8-1.2-1.7-1.2-2.8 0-1.1.4-2.1 1.2-2.8.8-.7 1.8-1.1 3-1.1s2.2.4 3 1.1c.8.7 1.2 1.7 1.2 2.8 0 1.1-.4 2.1-1.2 2.8-.9.8-1.8 1.2-3 1.2zm24.7 11.9c0-.9.2-1.6.6-2.1s1.1-.9 2.1-1.1c-.6-1.9-2.3-2.8-5-2.8-2.3 0-4.2 1-5.6 2.9-1.4 1.9-2.1 4.5-2.1 7.8 0 3.4.7 6 2 7.9 1.3 1.9 3.2 2.8 5.6 2.8 1.4 0 2.7-.4 3.8-1.2 1.1-.8 1.8-2 2.2-3.5l.7-2.5c.6-1 1.6-1.6 2.7-1.6.9 0 1.7.3 2.3.8.6.6.9 1.3.9 2.2 0 1.1-.3 2.3-1 3.7-.7 1.4-1.5 2.7-2.4 3.7-1.2 1.2-2.6 2.1-4.2 2.8-1.6.7-3.4 1-5.3 1-4.2 0-7.6-1.5-10.2-4.4-2.5-2.9-3.8-6.6-3.8-11.3 0-4.9 1.3-8.8 3.9-11.9 2.7-3.1 6.2-4.6 10.6-4.6 3.3 0 6.1.9 8.3 2.7 2.2 1.9 3.3 4.2 3.3 7 0 1.7-.5 3-1.4 4.1-.9 1.1-2.2 1.6-3.7 1.6-1.2 0-2.2-.4-3.1-1.1-.8-.9-1.2-1.8-1.2-2.9zm37.5 20.5c-3 0-5-1-6.1-3-2.1 2.2-5.1 3.3-8.9 3.3-3.4 0-6.2-.8-8.2-2.5-2-1.7-3-3.9-3-6.7 0-1.7.4-3.2 1.2-4.5.8-1.3 1.9-2.4 3.4-3.2 1.1-.6 2-1 2.8-1.2.8-.2 2.3-.4 4.7-.7 3.1-.3 5-.7 5.9-1.3.7-.5 1-1.4 1-2.7 0-1.3-.5-2.3-1.4-3.1-.9-.8-2.2-1.2-3.8-1.2-1.6 0-3 .4-4.3 1.3V16c-.3.3-.4.4-.4.5h.1c.8.7 1.3 1.6 1.3 2.6s-.4 1.8-1.1 2.5c-.7.6-1.7 1-2.8 1-1.3 0-2.4-.4-3.2-1.2-.8-.8-1.3-1.9-1.3-3.1 0-2.4 1.2-4.5 3.6-6.1 2.3-1.7 5-2.5 8.3-2.5 7.6 0 11.4 3.6 11.4 10.8V34c0 .5 0 .9.1 1.1.2.9.5 1.3 1 1.3.7 0 1-.9 1-2.8v-2.8c0-1.7.9-2.6 2.7-2.6 1.9 0 2.9 1.2 2.9 3.5v.3l-.1 3.3c-.1 4.2-2.4 6.3-6.8 6.3zm-7.3-14.5c-.2.1-.5.2-.7.3-.2.1-.5.2-.8.3-1.1.4-2.8.6-5.1.8-3.8.4-5.7 1.7-5.7 4.1 0 1.2.4 2.1 1.3 2.8.9.7 2.1 1.1 3.6 1.1 2.3 0 4.1-.6 5.4-1.9 1.3-1.3 1.9-3 2-5.1v-2.4zm23.9-16.4c1.5 0 2.4.6 2.6 1.9 2.2-1.9 4.9-2.9 8.2-2.9 2.3 0 4.4.6 6.4 1.7h-.1c2.1 1.2 3.5 2.6 4.2 4.3.6 1.4.9 3.2.9 5.4v13.7c0 .6.2 1 .4 1.2h.8c.3 0 .6-.1.8-.1.2 0 .4-.1.5-.1h.6c.7 0 1.4.3 1.9.8.6.5.8 1.1.8 1.8 0 .8-.3 1.5-1 2-.6.5-1.4.8-2.4.8h-.9c-.4 0-.9-.1-1.3-.2-.6-.1-1.3-.2-2-.2-.7-.1-1.3-.1-1.8-.1h-1.2c-.4 0-.8.1-1.1.1-.9.1-1.6.2-2.2.3-.6.1-.9.1-1 .1-2.2 0-3.3-.9-3.3-2.8 0-1.7 1-2.5 2.9-2.5.2 0 .3.1.5.1h1c.2 0 .4.1.5.1h.3c.1 0 .2.1.2.1.3 0 .4-.8.5-2.3 0-.5 0-1 .1-1.5 0-.5.1-1 .1-1.5l.1-3.5V23c0-1.8-.1-3.2-.3-4.1-.1-.6-.3-1.2-.7-1.7-.3-.5-.7-.9-1.2-1.2-1.2-.8-2.4-1.2-3.7-1.2-2.7 0-4.6.9-5.8 2.8-.8 1.4-1.2 3.8-1.2 7.3v7.6c0 1.4.1 2.3.2 2.8s.3.7.5.7c0 0 .2 0 .4-.1.2 0 .4-.1.7-.1.2-.1.5-.1.7-.2.2 0 .5-.1.8-.1 1.9 0 2.8.9 2.8 2.7 0 1.8-1.1 2.7-3.3 2.7-.2 0-.6 0-1.2-.1s-1.2-.2-2-.2c-.8-.1-1.7-.2-2.7-.2-.4 0-.8 0-1.3.1-.5 0-1.1.1-1.8.2l-1.3.1c-.4.1-.7.1-1 .2h-.6c-2.3 0-3.4-.9-3.4-2.8 0-1.7.9-2.6 2.8-2.6h.5c.1 0 .3.1.5.1.5.1 1.1.2 1.6.2s.7-.8.8-2.5c0-1 0-2.1.1-3.2 0-1.1.1-2.1.1-3.2v-7l-.1-2c-.1-.9-.2-1.5-.2-1.9-.1-.4-.2-.6-.4-.7-.1 0-.3.1-.5.1-.3 0-.5.1-.7.1-.2 0-.5.1-.7.1h-.6c-2 0-3-.9-3-2.7 0-1.8 1.2-2.7 3.5-2.7h.4c.1 0 .2 0 .4.1l2 .2h.7c.3 0 .5-.1.8-.1.3 0 .6-.1.8-.1 0 .3.3.3.6.3zm65.9 21.7c0 2.3.7 3.5 2 3.5h.5c.3 0 .5-.1.8-.1.3 0 .6 0 1-.1.4 0 .6-.1.5-.1.8 0 1.4.3 2 .8.6.5.8 1.2.8 1.8 0 1.9-1.2 2.8-3.6 2.8h-.5c-.1 0-.3-.1-.4-.1l-2.9-.4c-.6-.1-1.1-.1-1.7-.2-.6 0-1.1-.1-1.8-.1s-1.4 0-2 .1c-.6 0-1.3.1-1.8.2l-2.9.4c-.2 0-.3 0-.4.1h-.5c-2.4 0-3.6-.9-3.6-2.8 0-1.8.9-2.7 2.8-2.7-.1 0 .1 0 .5.1.4 0 .8.1 1 .1.3 0 .5.1.8.1h.5c1.3 0 1.9-1.2 1.9-3.5v-4.1l.1-5.1v-4.9l-.1-9.5c0-2.2-1.1-3.3-3.3-3.3h-1.8c-2.1 0-3.2 1.1-3.2 3.3v1.2c0 .3 0 .6.1.8l.2 2.1c0 .2.1.4.1.7v.8c0 3-1.1 4.5-3.3 4.5-2.1 0-3.1-1.2-3.1-3.5v-.7c0-.3 0-.6.1-.9v-1.1c.1-1.8.2-3 .2-3.5V7.7c0-.5-.1-1-.1-1.6l-.2-1.8v-.4s0-.2-.1-.5c0-2.2 1.1-3.3 3.2-3.3h1.4c.7 0 1.5.1 2.5.2h2.1c.7 0 1.6.1 2.6.1 1.1 0 2.2 0 3.3.1 1.1 0 2.2.1 3.3.1h6.3c.7 0 1.9-.1 3.8-.2.7-.1 1.4-.1 2.1-.2h1.7c2.6 0 3.9 1.1 3.9 3.3 0 .4-.1 1.1-.2 2.2s-.2 2.2-.3 3.4v1.7c0 .5 0 1 .1 1.6.1.8.1 1.5.2 2 0 .5.1.9.1 1.1 0 2.1-1.1 3.1-3.3 3.1-2.1 0-3.1-1.2-3.1-3.7 0-.7.1-1.7.2-3.1 0-.7.1-1.3.1-1.8V8.7c0-2.1-1.2-3.2-3.6-3.2h-1.6c-1.1 0-1.8.3-2.3.8-.5.5-.8 1.3-.8 2.4l-.2 4.1-.1 19.6zm35 1c1-2.8 2-5.5 3.1-8.2 1-2.7 2.1-5.4 3-8.2.1-.4.2-.7.2-1 0-.1-.1-.2-.3-.2-.3 0-.6 0-.9.1h-1.3c-1.9 0-2.8-.9-2.8-2.7 0-1.8 1.1-2.7 3.4-2.7h.4c.2 0 .4 0 .5.1h.3l2.1.3c.3 0 .6.1.8.1h2c.4 0 1-.1 1.6-.2.6-.1 1.2-.1 1.7-.2.5 0 .9-.1 1.3-.1 2.3 0 3.4.9 3.4 2.7 0 1.8-.9 2.7-2.8 2.7-.6 0-.9 0-1.1-.1-.1 0-.2-.1-.3-.1-.1 0-.2 0-.3-.1-.1 0-.1 0-.2-.1-.3 0-.7.8-1.3 2.4L343 37.4c-1.7 4.2-3.3 7.4-5 9.6-2.7 3.5-6.2 5.3-10.5 5.3-2.6 0-4.8-.6-6.5-1.9-1.9-1.4-2.8-3-2.8-4.9 0-1.4.4-2.6 1.3-3.5s2-1.4 3.4-1.4c1.2 0 2.1.3 2.9 1 .7.7 1.1 1.5 1.1 2.5 0 1.1-.4 2-1.2 2.5.2.2.5.3.8.3h1c1.8 0 3.4-.7 4.8-2.1 1.5-1.3 2.2-2.8 2.2-4.5 0-.8-.5-2.5-1.5-5l-6.3-15.9c0-.2-.1-.3-.2-.5s-.2-.4-.2-.6c-.1-.2-.2-.5-.2-.8-.6-1.4-1-2.1-1.3-2.1h-.3c-.1 0-.3.1-.5.1-.3 0-.7.1-1.1.2s-.9.3-.9.3c-1.9 0-2.9-.9-2.9-2.7 0-1.8 1.2-2.7 3.6-2.7h.8c.3 0 .5 0 .6.1.4 0 .7.1 1.1.2.3.1.7.1 1.1.2h.7c.2 0 .4.1.5.1.7 0 1.4 0 2.1-.1.7 0 1.4-.1 2.2-.2 1.2-.1 2-.2 2.5-.2 2.3 0 3.4.9 3.4 2.7 0 1.8-1 2.7-3.1 2.7h-.6c-.2 0-.4-.1-.6-.1h-.8c0 .2.1.5.2.7l5.5 16.7zm29.3-22.7c1.4 0 2.2.6 2.4 1.8 2.1-1.9 4.7-2.8 7.8-2.8 2.1 0 3.9.4 5.6 1.1s3.1 1.8 4.3 3.1 2.1 3 2.7 4.9c.6 1.9.9 4.1.9 6.4 0 2.4-.4 4.7-1.1 6.7-.7 2.1-1.6 3.9-2.8 5.4-1.3 1.5-2.7 2.7-4.5 3.5s-3.7 1.2-5.8 1.2c-2.8 0-5.1-.7-7.1-2.2v4.4c0 .4 0 .8.1 1v-.1c.2.8.4 1.1.7 1.1.2 0 .4 0 .8-.1.3 0 .6-.1 1.1-.1.4 0 .6-.1.6-.1 1.8 0 2.7.9 2.7 2.7 0 1.8-1.1 2.7-3.4 2.7-.3 0-.7 0-1.2-.1-.5 0-1-.1-1.5-.2h.1c-.9-.1-2.2-.2-3.7-.2h-1.1c-.4 0-.7 0-1 .1h-.4c-.6.1-1.2.1-1.6.2-.5 0-.8.1-1.1.1-.9 0-1.7-.3-2.4-.8-.6-.5-1-1.2-1-2 0-1.7 1-2.6 2.9-2.6h.6c.2 0 .5.1.7.1.5.2.9.2 1.2.2.2 0 .3-.2.4-.5.1-.4.1-1.2.2-2.1 0-1 .1-2.3.1-3.9v-22c0-1.3-.2-1.9-.5-1.9-.2 0-.5.1-.9.2-.3.1-.5.1-.8.2-.2 0-.5.1-.8.1-2.1 0-3.1-.9-3.1-2.7 0-1.7 1.2-2.6 3.5-2.6h.7c.3 0 .5 0 .7.1h.9c.3 0 .5.1.7.1h1.1c.3 0 .6-.1.8-.1.3 0 .6-.1.8-.1s.5-.2.7-.2zm3.3 9.5c-.2.8-.3 1.6-.4 2.5-.1.9-.1 1.8-.2 2.8v.5c0 .2 0 .4-.1.5v.7c0 1.3.1 2.3.2 3.2.1.9.3 1.6.5 2.2.2.5.4 1 .8 1.5.4.4.8.8 1.3 1.2.6.4 1.2.7 1.9.9.7.2 1.4.3 2.2.3 2.5 0 4.4-.9 5.7-2.8 1.3-1.9 2-4.5 2-8 0-7.1-2.4-10.7-7.1-10.7-1.6 0-3 .5-4.3 1.5s-2.2 2.2-2.5 3.7zm50.3 3c0 .9 0 1.7-.1 2.2 0 .5-.2.9-.4 1.2-.2.3-.5.5-.9.5s-.9.1-1.6.1H400c-.2 0-.2 0-.2.1 0 2.7.8 4.9 2.4 6.6 1.5 1.7 3.4 2.6 5.6 2.6 1.5 0 2.8-.4 4.1-1.2 1.2-.8 2-1.8 2.4-3.1l.5-1.6c.2-.6.6-1.1 1.1-1.5.5-.4 1-.5 1.7-.5 2.1 0 3.1 1 3.1 3 0 2.7-1.4 5.2-4.2 7.3-2.7 2-5.8 3-9.1 3-4.4 0-7.8-1.4-10.4-4.3-2.5-2.9-3.8-6.7-3.8-11.4 0-4.8 1.3-8.7 4-11.9 2.7-3.1 6.2-4.7 10.6-4.7 2 0 3.8.3 5.4 1 1.6.6 3 1.6 4.2 2.8 2.6 2.7 3.8 5.9 3.8 9.8zm-6.6-1.5c0-1.8-.7-3.4-2-4.7-1.4-1.3-3-2-4.7-2-1.8 0-3.5.7-5.2 2.2-1.5 1.4-2.3 2.9-2.3 4.5h14.2zm21.6 10.8c.6-2.7 1.2-5.3 1.8-8 .6-2.7 1.2-5.3 1.8-8.1.2-1.1.5-2.1.8-2.8.3-.8.6-1.4 1-1.8.4-.5.8-.8 1.4-1 .5-.2 1.2-.3 1.9-.3 1.5 0 2.6.4 3.3 1.3.7.9 1.3 2.4 1.8 4.6l3.4 15.9c.6-2.2 1.1-4.4 1.6-6.6.5-2.2 1-4.3 1.6-6.6.2-1.1.4-2 .4-2.8 0-.5-.1-.8-.3-.8-.1 0-.3 0-.5.1-.3 0-.5.1-.8.2-.6.1-1.2.2-1.7.2-2.1 0-3.1-.9-3.1-2.7 0-1.9 1.3-2.8 3.8-2.8h.5c.2 0 .4 0 .5.1.4 0 .7.1 1.1.2s.7.1 1.2.2c.3 0 .7.1 1.2.1h1.6c.9 0 1.9-.1 2.8-.2l1.9-.2c.1 0 .2-.1.4-.1h.4c2.3 0 3.5.9 3.5 2.7 0 1.8-1 2.7-2.9 2.7-.5 0-.9 0-1.2-.1-.2 0-.4-.1-.5-.1h-.3c-.6 0-1.3 1.9-2.3 5.8l-3.9 14.7v-.1c-.5 2.1-1.2 3.5-1.9 4.3-.8.8-1.8 1.2-3.1 1.2s-2.4-.5-3.2-1.4-1.5-2.3-1.9-4.1c-.3-1.6-.6-3-.9-4.3-.3-1.3-.5-2.5-.8-3.7-.2-1.2-.5-2.4-.8-3.7s-.6-2.7-.9-4.4L441.3 36c-.5 2.1-1.2 3.6-2 4.5s-1.9 1.3-3.3 1.3c-2.2 0-3.7-1.4-4.5-4.1-.9-3.4-1.8-6.9-2.8-10.3-.9-3.5-1.8-6.9-2.8-10.3-.1-.3-.2-.6-.4-.9-.1-.3-.2-.4-.4-.4 0 0-.3.1-.8.2h-.7c-.1 0-.3.1-.5.1h-.4c-1.9 0-2.8-.9-2.8-2.7 0-1.9 1.2-2.8 3.6-2.8h.6c.2 0 .4 0 .5.1l2.1.3c.2 0 .6.1.9.1h2.8c.6 0 1.2-.1 1.9-.2l1.3-.2c.4-.1.8-.1 1.2-.1h.6c2.3 0 3.5.9 3.5 2.7 0 1.8-1 2.7-3.1 2.7h-.4c-.2 0-.4 0-.5-.1h-.6c-.5-.2-.9-.2-1.3-.2-.3 0-.5.3-.5.9 0 .4 0 .9.1 1.3 0 .4.1.9.2 1.3l3.4 13.3zm43.2-21.8c1.3 0 2.1.5 2.4 1.6 2-1.7 4.3-2.6 7.1-2.6 1.5 0 2.8.2 4.1.6 1.2.4 2.3 1 3.1 1.8.9.8 1.6 1.7 2.1 2.8s.7 2.3.7 3.6c0 1.9-.5 3.5-1.5 4.7-1 1.2-2.4 1.8-4.1 1.8-1.2 0-2.1-.3-2.9-1-.8-.7-1.2-1.5-1.2-2.5 0-.8.3-1.5 1-2.2.7-.6 1.4-1 2.3-1 .1 0 .1 0 0-.1-.1 0-.1 0 .2.1V18c0-.9-.4-1.6-1.2-2.2s-1.8-.9-2.9-.9c-2.5 0-4.2 1.2-5.1 3.5-.6 1.6-.8 4-.8 7.1v6.6c0 .7 0 1.1.1 1.3.2 1.8.5 2.7.8 2.7h.7c.2 0 .4-.1.6-.1.5-.2 1-.2 1.4-.2 1.9 0 2.8.9 2.8 2.6 0 1.9-1.1 2.8-3.3 2.8h-.2c-.3 0-.7 0-1.2-.1-.5 0-1-.1-1.6-.2-1.2-.1-2-.2-2.5-.2h-2c-.6 0-1.1.1-1.5.1l-3.3.3c-2.2 0-3.3-.9-3.3-2.8 0-1.7 1-2.5 3.1-2.5h.5c.1 0 .3 0 .5.1l.7.2h.5s.1.1.2.1h.1c.4 0 .6-.6.6-1.8 0-.5 0-1 .1-1.5 0-.5.1-1 .1-1.5l-.2-13c-.1-1.5-.3-2.3-.6-2.5-.1 0-.3 0-.6.1-.3 0-.5.1-.7.1h.1c-.5.1-1 .2-1.5.2-1.9 0-2.8-.9-2.8-2.7 0-1.9 1.1-2.8 3.4-2.8.1 0 .3.1.7.1.4 0 .8.1 1.1.1.3 0 .6.1.9.1h1c.1 0 .3 0 .5-.1h.5c.1-.3.6-.3 1-.3zm32.7 20.2v2.2c0 .5 0 .9.1 1.1.1 1.2.3 1.8.5 1.8 0 0 .1 0 .3-.1.2 0 .5-.1.9-.2l-.1.1c.1 0 .3-.1.5-.1s.4-.1.7-.1c2.1 0 3.1.9 3.1 2.7 0 .8-.3 1.5-1 2s-1.5.8-2.5.8c-.3 0-.7 0-1.2-.1-.5 0-1-.1-1.7-.2-.6-.1-1.1-.2-1.6-.2s-.8-.1-1.1-.1c-.4 0-.9 0-1.5.1-.5 0-1.1.1-1.7.2-.7.1-1.3.2-1.8.2-.5.1-.9.1-1.2.1-2.2 0-3.3-.9-3.3-2.8 0-1.8 1-2.7 3-2.7.1 0 .3 0 .7.1.4 0 .7.1.9.1.3.1.5.1.7.1h.4c.3 0 .5-1 .7-2.9V18.5c-.1-1.9-.4-2.8-.7-2.8-.1 0-.2 0-.4.1-.2 0-.4.1-.7.2-.2.1-.4.1-.7.2h-.6c-2.1 0-3.1-.9-3.1-2.7 0-1.8 1.2-2.7 3.5-2.7h1.1c.3 0 .5 0 .6.1.6.1 1 .1 1.4.2.4 0 .6.1.8.1h.5c.3 0 .5-.1.8-.1l1.6-.2c1.7 0 2.6 1 2.6 3v.8c0 .2-.1.3-.1.4v.2c0 .1-.1.7-.1 1.7v1.8c0 .8-.1 1.6-.1 2.4v9.7zm-4-21.7c-1.2 0-2.2-.4-3-1.2-.8-.8-1.2-1.7-1.2-2.8 0-1.1.4-2.1 1.2-2.8.8-.7 1.8-1.1 3-1.1s2.2.4 3 1.1c.8.7 1.2 1.7 1.2 2.8 0 1.1-.4 2.1-1.2 2.8-.8.8-1.8 1.2-3 1.2zm25 19.3c.1-2.1 1.1-3.1 3.1-3.1s3 1.2 3 3.5c0 2.2-.2 4-.5 5.5s-.8 2.7-1.3 3.7c-1.6 2.4-4.3 3.6-7.9 3.6-1.7 0-3.2-.3-4.4-.8s-2.2-1.4-2.9-2.4c-1.1-1.7-1.6-4.2-1.6-7.7V16.9c0-.3 0-.4-.1-.4h-1.8c-.9 0-1.6-.3-2.2-.8-.6-.5-.9-1.2-.9-2 0-.7.3-1.4.9-2 .6-.6 1.3-.9 2-.9h2.2V4.6c0-2 1.1-3 3.2-3 2 0 3 1 3 3v6.1s0 .1.1.1h6.2c2.1 0 3.1.9 3.1 2.8s-1.1 2.9-3.3 2.9h-6.4c.1.1.2.2.2.4V31c0 3.5 1 5.2 3 5.2 2.1 0 3.2-1.4 3.2-4.1l.1-3.6zm35.2-5.3c0 .9 0 1.7-.1 2.2 0 .5-.2.9-.4 1.2-.2.3-.5.5-.9.5s-.9.1-1.6.1h-18.2c-.2 0-.2 0-.2.1 0 2.7.8 4.9 2.4 6.6 1.5 1.7 3.4 2.6 5.6 2.6 1.5 0 2.8-.4 4.1-1.2 1.2-.8 2-1.8 2.4-3.1l.5-1.6c.2-.6.6-1.1 1.1-1.5.5-.4 1-.5 1.7-.5 2.1 0 3.1 1 3.1 3 0 2.7-1.4 5.2-4.2 7.3-2.7 2-5.8 3-9.1 3-4.4 0-7.8-1.4-10.4-4.3-2.5-2.9-3.8-6.7-3.8-11.4 0-4.8 1.3-8.7 4-11.9 2.7-3.1 6.2-4.7 10.6-4.7 2 0 3.8.3 5.4 1 1.6.6 3 1.6 4.2 2.8 2.6 2.7 3.8 5.9 3.8 9.8zm-6.6-1.5c0-1.8-.7-3.4-2-4.7-1.4-1.3-3-2-4.7-2-1.8 0-3.5.7-5.2 2.2-1.5 1.4-2.3 2.9-2.3 4.5h14.2zm15.1-11c1.3 0 2.1.5 2.4 1.6 2-1.7 4.3-2.6 7.1-2.6 1.5 0 2.8.2 4.1.6 1.2.4 2.3 1 3.1 1.8.9.8 1.6 1.7 2.1 2.8s.7 2.3.7 3.6c0 1.9-.5 3.5-1.5 4.7-1 1.2-2.4 1.8-4.1 1.8-1.2 0-2.1-.3-2.9-1-.8-.7-1.2-1.5-1.2-2.5 0-.8.3-1.5 1-2.2.7-.6 1.4-1 2.3-1 .1 0 .1 0 0-.1-.1 0-.1 0 .2.1V18c0-.9-.4-1.6-1.2-2.2s-1.8-.9-2.9-.9c-2.5 0-4.2 1.2-5.1 3.5-.6 1.6-.8 4-.8 7.1v6.6c0 .7 0 1.1.1 1.3.2 1.8.5 2.7.8 2.7h.7c.2 0 .4-.1.6-.1.5-.2 1-.2 1.4-.2 1.9 0 2.8.9 2.8 2.6 0 1.9-1.1 2.8-3.3 2.8h-.2c-.3 0-.7 0-1.2-.1-.5 0-1-.1-1.6-.2-1.2-.1-2-.2-2.5-.2h-2c-.6 0-1.1.1-1.5.1l-3.3.3c-2.2 0-3.3-.9-3.3-2.8 0-1.7 1-2.5 3.1-2.5h.5c.1 0 .3 0 .5.1l.7.2h.5s.1.1.2.1h.1c.4 0 .6-.6.6-1.8 0-.5 0-1 .1-1.5 0-.5.1-1 .1-1.5l-.2-13c-.1-1.5-.3-2.3-.6-2.5-.1 0-.3 0-.6.1-.3 0-.5.1-.7.1h.1c-.5.1-1 .2-1.5.2-1.9 0-2.8-.9-2.8-2.7 0-1.9 1.1-2.8 3.4-2.8.1 0 .3.1.7.1.4 0 .8.1 1.1.1.3 0 .6.1.9.1h1c.1 0 .3 0 .5-.1h.5c.1-.3.6-.3 1-.3z" class="st0"/></svg>