<svg xmlns="http://www.w3.org/2000/svg" viewBox="0 0 680.01 245.64"><defs><style>.af1d849b-3952-411f-8940-580584c39ba3{fill:#b3b3b3;}.aa638ef7-6b5b-40c4-9a10-7f261b14466b{fill:none;stroke:#2997ff;stroke-linecap:round;stroke-linejoin:round;stroke-width:2px;}</style></defs><g id="e8c6bbe3-44a9-4b93-a3b7-6d396e8dc9d2" data-name="Layer 2"><g id="a305118e-747c-4b29-ba63-5bb1526ff503" data-name="Layer 1"><path class="af1d849b-3952-411f-8940-580584c39ba3" d="M.55,1.65c2.21,0,7,.39,12.73.39,5.33,0,10-.26,12.47-.39.65.39.65,3.12.26,3.77a31.13,31.13,0,0,0-5.07,1,1.58,1.58,0,0,0-1,1.94c1.55,5.07,10.65,29.1,11.56,31.18.13.26.52.13.65,0C34.84,33,40.43,18.67,42.38,12.43c1.3-4.16.39-5.19-1-5.84a23.25,23.25,0,0,0-5.85-1.17c-.26-.65,0-3.51.52-3.77,1.43,0,6.63.39,11.69.39,4.55,0,9.1-.26,10.66-.39.52.39.39,3.25,0,3.77a32.9,32.9,0,0,0-4.68.91c-2.47.91-3.64,2.59-5.07,5.84-3.5,7.66-7.53,17.54-12.34,29.49C34.06,47.24,32.9,51,32,54a31.53,31.53,0,0,0-6.11.13c-1-3.51-2.21-7.15-3.77-11.43-3.63-9.74-8-21.05-10.52-27.15-2.86-7-3.25-8-6.36-9.09a29.12,29.12,0,0,0-5.07-1A6,6,0,0,1,.55,1.65Z"/><path class="af1d849b-3952-411f-8940-580584c39ba3" d="M94.38,55.43l-18.58-42c-3.37-7.79-4.54-9.09-9-9.48h-.65V1H89.83V4h-.91c-4.28,0-5.84.78-5.84,3,0,1.29.13,1.68,2.47,6.88L99.71,45.55l12.73-28.31c2.59-5.72,3-7,3-8.84,0-2.59-2-4.28-5.32-4.41h-1V1h17.66V4l-1.17.13c-4.15,1-6.23,3.76-10.52,13.9L98.15,55.43Z"/><path class="af1d849b-3952-411f-8940-580584c39ba3" d="M247.44,1.65c2.34,0,7,.39,12.6.39s11.3-.39,13.25-.39c.52.39.65,3.12.26,3.77a35.89,35.89,0,0,0-4.81,1,2,2,0,0,0-1,2.2c2.21,7.41,10.79,29.49,11.69,31.18.13,0,.39.13.52,0,4-8.57,9.75-23.12,10.66-29.62.26-1.43.26-3-2.21-3.76a35.35,35.35,0,0,0-5.72-1,5.32,5.32,0,0,1,.52-3.77c1.56,0,6.63.39,11.17.39s8.45-.26,12.08-.39c.52.52.52,3,.13,3.77a19.23,19.23,0,0,0-4.67,1c-2.34.65-3.9,2.46-5.07,5.84A468.55,468.55,0,0,1,266.14,78c-1.55,2.73-3.11,5.46-4,7.27l-.91.52a19.66,19.66,0,0,1-6.76-3.5,5.79,5.79,0,0,1-.13-2.08c4.29-5.33,14.29-18.19,19.1-28.45,0-.13-.78-1.82-1-2.34-2.86-7.4-8.44-21.82-12.47-31.43-3.38-8.45-4.81-10.78-8.44-11.82-1.3-.26-2.34-.52-4.42-.78C246.66,4.64,246.92,1.91,247.44,1.65Z"/><path class="af1d849b-3952-411f-8940-580584c39ba3" d="M362.2,14.38c2.72-6.11,2.72-6.11,2.72-7.14,0-1.82-2.46-3.25-6.1-3.25h-1V1h18.44V4h-.64c-5.33.52-7,2.34-10.53,11.43L341.67,71.66c-4.28,10.4-7.14,13.9-11.43,13.9-2.47,0-4.16-1.56-4.16-3.76,0-3.12,1.82-5.2,6.63-7.41,5.2-2.34,5.84-2.86,7.79-7.27l4.94-12.47L325.69,12.43c-3.24-7-4.41-8.18-9.09-8.44h-1V1h24V4h-.65c-4,.13-5.71.91-5.71,2.6,0,.91,0,.91,2.47,6.23l14.42,30.66Z"/><path class="af1d849b-3952-411f-8940-580584c39ba3" d="M496.91,1.65c2.08,0,6.49.39,12.86.39,4.54,0,10.78-.26,13.25-.39.52.39.52,3,.13,3.77-1.69.26-4.16.78-5.07,1a1.84,1.84,0,0,0-1.3,2.46c1,5.07,7.28,25.85,9,30.66.26,0,.39.13.51-.13,3.38-8.31,10.27-26.37,12.48-34.55a25.77,25.77,0,0,0,6.36-.13c.65,2.73,1.82,6.1,3.38,10.52,3.24,9.48,8.18,22.47,9.09,24.68.13,0,.39.26.52,0,2.34-6,8.44-24,9.61-29.36.26-2.08.26-3.24-2.21-4a34.19,34.19,0,0,0-6-1.17c-.26-.91,0-3.25.52-3.77,1.82,0,7.27.39,11.56.39,5.33,0,8.83-.26,11.3-.39a4.75,4.75,0,0,1,0,3.77,11.45,11.45,0,0,0-3.51.91c-3.5,1-4.54,2.72-6,6-3,7.53-12.47,33.64-15.2,41.7a25.9,25.9,0,0,0-6.36.13c-2.34-8.06-10.79-30.53-12.47-34.42a.46.46,0,0,0-.65.12c-2.6,7.15-9.88,24.82-13,34.17a25.06,25.06,0,0,0-6.24,0c-2.73-10.39-9.22-32-12.34-40-1.95-5.33-2.73-6.88-5.59-7.79a26,26,0,0,0-4.93-.78A4.7,4.7,0,0,1,496.91,1.65Z"/><path class="af1d849b-3952-411f-8940-580584c39ba3" d="M651.3,55.43,635.71,13.86,619.86,55.43H617L601,13.86c-.65-1.56-1.3-3.51-1.69-4.29-1.43-4.15-3.12-5.45-6.89-5.58h-.91V1h23.9V4h-.9c-4.29,0-6.11.91-6.11,3.12,0,1.29.26,2.07,2.6,7.53L621.55,42.7,637.79,1h2.47L656,42.7l11.56-29.62c1.82-4.94,1.82-4.94,1.82-5.71,0-2.08-1.69-3.25-5.19-3.38h-1.3V1h17V4h-1c-4.68.65-5.33,1.43-8.45,9.87L654.15,55.43Z"/><path class="af1d849b-3952-411f-8940-580584c39ba3" d="M.67,163.29c3.11,0,10.26.38,15.84.38,7.8,0,14.68-.38,16.63-.38.65.25.78,3.24.13,3.63-2.86.52-5.07,1-6.75,1.43-2.21.52-2.47,2.21-1.82,4,3.89,11.17,18.7,50.79,21.17,56.63a1.41,1.41,0,0,0,.65-.13c3.12-7.14,16.89-41.82,20.52-53.12,1.56-4.81.91-6.76-3-7.54-2-.39-4-.78-7-1.3-.39-.52-.13-3.38.39-3.63,2.08,0,7.28.38,15.33.38,6.88,0,10.52-.38,13.64-.38.52.38.52,3.11,0,3.63a47.26,47.26,0,0,0-5.72,1.3c-4,1.3-5.19,3.9-8.31,11.17-4,9.23-12.73,30.92-19.22,47-3.12,7.79-5.46,14.29-6.76,18.31a26.08,26.08,0,0,0-7.79,0c-1.3-5.06-3.12-10.91-5.59-17.66-6.49-17.54-14.55-39-18.32-48.59-3-7.14-4.41-9.22-8.31-10.39-1.69-.39-3.63-.78-6.1-1.17C-.24,166.4,0,163.54.67,163.29Z"/><path class="af1d849b-3952-411f-8940-580584c39ba3" d="M140.42,245.64l-29.87-69c-.26-.52-1.43-3.38-2.6-6.37-3.12-7.79-5.85-10-12.86-10.39h-1.3v-3h37.28v3h-.78c-8.31,0-10.91,1.17-10.91,4.8,0,1.82.13,2.34,3,8.71L147.31,231l19.87-47.8c3.64-8.44,5.07-13.12,5.07-15.59,0-4.8-3.25-7.53-9.09-7.66h-1.3v-3h26.5v3h-.91c-6.5,1-9.1,4.15-14.42,17.92l-3,6.63-25.59,61.18Z"/><path class="af1d849b-3952-411f-8940-580584c39ba3" d="M220.79,163.29c3.25,0,10.14.38,16.11.38,4.42,0,12.86-.25,14.42-.38.65.38.78,3.11.13,3.63-1.43.26-3.77.65-4.68.91-1.69.52-1.82,1.82-.91,3.64,3.38,7.27,13.64,27,16.37,31.56.13,0,.65,0,.78-.13,4.55-7.4,13.64-23.9,16.11-29.87,1.17-2.47,1-4.29-2.6-5.07-1.69-.39-3.25-.52-6.11-1-.52-.65-.26-3.38.39-3.63,3.9.13,9.75.38,14.29.38,6.24,0,9.35-.13,13.77-.38.65.25.65,3.24.13,3.63-1.56.26-3.51.65-5.46,1-3.89,1-5.71,3-9.09,8.32-5.58,8.7-15.19,25.72-18.18,31.56a14.41,14.41,0,0,0-1,4.55c0,5.06.13,11.56.26,18.18.13,5.72.78,7.8,4.28,8.58a62.47,62.47,0,0,0,7.93,1.17c.39.51.13,3.24-.39,3.63-3.25,0-10.39-.39-17.93-.39-9.22,0-15.07.39-18.7.39-.52-.39-.52-3.24,0-3.63a88.49,88.49,0,0,0,8.83-1.3c3.51-.91,4.29-3.12,4.42-7.15.13-6.36.13-11.17.13-16.76a19.61,19.61,0,0,0-1-6.23c-2.73-6.24-10.4-20.52-15.59-30-5.07-8.83-6.24-9.87-10.91-11-1.56-.39-3.25-.52-6-.91A5,5,0,0,1,220.79,163.29Z"/><path class="af1d849b-3952-411f-8940-580584c39ba3" d="M373.43,177.05c3.51-6.1,4.16-7.4,4.16-10,0-4.41-3.77-7.14-9.61-7.14h-.65v-3h28.32v3l-.91.13c-7.28,1.56-10.78,4.93-17.8,17.14l-19.35,32.35v11.56c-.26,17.8.65,19.49,10.91,19.49h1.3v3h-37v-3h1.43c10.26,0,11.17-1.69,11-19.49V210.31l-21.7-35.46c-8.18-13.77-9-14.42-15.58-14.94h-.91v-3h35.07v3h-.65c-6.24,0-9.09,1.43-9.09,4.41,0,1.56.26,2.21,3.24,7.15l20.66,34.16Z"/><path class="af1d849b-3952-411f-8940-580584c39ba3" d="M428.21,163.16c4.67,0,10.91.51,17.4.51,8.44-.13,12.47-.25,15.59-.38.52.25.65,3.24,0,3.63-3,.65-4.81,1-6.5,1.56-2.07.65-2.46,2.34-1.94,5.07,2.59,11.17,9.74,36.63,14.15,52a1.3,1.3,0,0,0,.52-.13c5.59-15.33,16.24-45.47,19.75-58.07a30.42,30.42,0,0,0,6.88,0c3.12,11.69,16.11,48.19,20.27,59.11.13.13.52,0,.65-.13,3.5-10.79,12.08-38.84,14.42-49.5,1-4.41,1.16-7.4-2.73-8.44a69.48,69.48,0,0,0-7.67-1.43c-.65-.52-.52-3.38,0-3.63,3.12,0,9.75.38,15.07.38,8.57,0,12.21-.38,14.94-.38.52.38.52,3.24,0,3.63a39.49,39.49,0,0,0-5.71,1.43c-3.12,1.17-4.81,2.86-6.76,8.06-5.59,15.19-17.15,52.08-21.82,67.93-1.17,0-5.46,0-6.63.13-3-10.78-15.59-47-20.39-59.75a1,1,0,0,0-.52.26c-5.85,16.24-16.5,46.11-20.66,59.36a37.81,37.81,0,0,0-6.62.13c-3.9-16-14.42-54.95-18.58-67.68-1.94-5.71-3.24-7.53-6.62-8.44a48.39,48.39,0,0,0-6.88-1.43C427.43,166.4,427.56,163.54,428.21,163.16Z"/><path class="af1d849b-3952-411f-8940-580584c39ba3" d="M643.89,245.64,617.52,174.2,594.4,245.64h-3L570.5,178.22c-4.41-15.58-6.23-18.05-13.12-18.31h-.91v-3H589v3h-.78c-6.5.52-8.44,1.82-8.44,5.32,0,2,.12,2.6,2.72,10.79l15.46,50.4,22.6-69.5H624l25.46,69.5,13.25-46c2.6-8.44,2.73-9.22,2.73-12.21,0-5.45-2.86-8.31-8.58-8.31h-.52v-3H680v3h-.65c-6.63.52-8.84,4-13.64,20.52l-19,65.21Z"/><path class="aa638ef7-6b5b-40c4-9a10-7f261b14466b" d="M26,5.42a31.13,31.13,0,0,0-5.07,1,1.58,1.58,0,0,0-1,1.94c1.55,5.07,10.65,29.1,11.56,31.18.13.26.52.13.65,0C34.84,33,40.43,18.67,42.38,12.43c1.3-4.16.39-5.19-1-5.84a23.25,23.25,0,0,0-5.85-1.17"/><path class="aa638ef7-6b5b-40c4-9a10-7f261b14466b" d="M89.83,4h-.91c-4.28,0-5.84.78-5.84,3,0,1.29.13,1.68,2.47,6.88L99.71,45.55l12.73-28.31c2.59-5.72,3-7,3-8.84,0-2.59-2-4.28-5.32-4.41h-1"/><path class="aa638ef7-6b5b-40c4-9a10-7f261b14466b" d="M273.55,5.42a35.89,35.89,0,0,0-4.81,1,2,2,0,0,0-1,2.2c2.21,7.41,10.79,29.49,11.69,31.18.13,0,.39.13.52,0,4-8.57,9.75-23.12,10.66-29.62.26-1.43.26-3-2.21-3.76a35.35,35.35,0,0,0-5.72-1"/><path class="aa638ef7-6b5b-40c4-9a10-7f261b14466b" d="M339.59,4h-.65c-4,.13-5.71.91-5.71,2.6,0,.91,0,.91,2.47,6.23l14.42,30.66,12.08-29.1c2.72-6.11,2.72-6.11,2.72-7.14,0-1.82-2.46-3.25-6.1-3.25h-1"/><path class="aa638ef7-6b5b-40c4-9a10-7f261b14466b" d="M523.15,5.42c-1.69.26-4.16.78-5.07,1a1.84,1.84,0,0,0-1.3,2.46c1,5.07,7.28,25.85,9,30.66.26,0,.39.13.51-.13,3.38-8.31,10.27-26.37,12.48-34.55a25.77,25.77,0,0,0,6.36-.13c.65,2.73,1.82,6.1,3.38,10.52,3.24,9.48,8.18,22.47,9.09,24.68.13,0,.39.26.52,0,2.34-6,8.44-24,9.61-29.36.26-2.08.26-3.24-2.21-4a34.19,34.19,0,0,0-6-1.17"/><path class="aa638ef7-6b5b-40c4-9a10-7f261b14466b" d="M615.44,4h-.9c-4.29,0-6.11.91-6.11,3.12,0,1.29.26,2.07,2.6,7.53L621.55,42.7,637.79,1h2.47L656,42.7l11.56-29.62c1.82-4.94,1.82-4.94,1.82-5.71,0-2.08-1.69-3.25-5.19-3.38h-1.3"/><path class="aa638ef7-6b5b-40c4-9a10-7f261b14466b" d="M33.27,166.92c-2.86.52-5.07,1-6.75,1.43-2.21.52-2.47,2.21-1.82,4,3.89,11.17,18.7,50.79,21.17,56.63a1.41,1.41,0,0,0,.65-.13c3.12-7.14,16.89-41.82,20.52-53.12,1.56-4.81.91-6.76-3-7.54-2-.39-4-.78-7-1.3"/><path class="aa638ef7-6b5b-40c4-9a10-7f261b14466b" d="M131.07,159.91h-.78c-8.31,0-10.91,1.17-10.91,4.8,0,1.82.13,2.34,3,8.71L147.31,231l19.87-47.8c3.64-8.44,5.07-13.12,5.07-15.59,0-4.8-3.25-7.53-9.09-7.66h-1.3"/><path class="aa638ef7-6b5b-40c4-9a10-7f261b14466b" d="M251.45,166.92c-1.43.26-3.77.65-4.68.91-1.69.52-1.82,1.82-.91,3.64,3.38,7.27,13.64,27,16.37,31.56.13,0,.65,0,.78-.13,4.55-7.4,13.64-23.9,16.11-29.87,1.17-2.47,1-4.29-2.6-5.07-1.69-.39-3.25-.52-6.11-1"/><path class="aa638ef7-6b5b-40c4-9a10-7f261b14466b" d="M342.13,159.91h-.65c-6.24,0-9.09,1.43-9.09,4.41,0,1.56.26,2.21,3.24,7.15l20.66,34.16,17.14-28.58c3.51-6.1,4.16-7.4,4.16-10,0-4.41-3.77-7.14-9.61-7.14h-.65"/><path class="aa638ef7-6b5b-40c4-9a10-7f261b14466b" d="M461.2,166.92c-3,.65-4.81,1-6.5,1.56-2.07.65-2.46,2.34-1.94,5.07,2.59,11.17,9.74,36.63,14.15,52a1.3,1.3,0,0,0,.52-.13c5.59-15.33,16.24-45.47,19.75-58.07a30.42,30.42,0,0,0,6.88,0c3.12,11.69,16.11,48.19,20.27,59.11.13.13.52,0,.65-.13,3.5-10.79,12.08-38.84,14.42-49.5,1-4.41,1.16-7.4-2.73-8.44a69.48,69.48,0,0,0-7.67-1.43"/><path class="aa638ef7-6b5b-40c4-9a10-7f261b14466b" d="M589,159.91h-.78c-6.5.52-8.44,1.82-8.44,5.32,0,2,.12,2.6,2.72,10.79l15.46,50.4,22.6-69.5H624l25.46,69.5,13.25-46c2.6-8.44,2.73-9.22,2.73-12.21,0-5.45-2.86-8.31-8.58-8.31h-.52"/></g></g></svg>