<svg xmlns="http://www.w3.org/2000/svg" viewBox="0 0 800 800" width="800" height="800"><path d="M399.9 0C179 .1-.1 179.2 0 400.1s179.2 400 400.1 399.9 400-179.2 399.9-400.1c0-3.2 0-6.4-.1-9.5C794.6 173.2 617.1-.1 399.9 0zm194.3 482.3c-2.2 53.7-30.8 102.9-76.3 131.3-21.2 13.9-45.4 22.5-70.7 25-4.2.3-8.5.3-12.7 0H296.2c-27.3.3-51.1-18.4-57.3-45V226c-.8-8.8.2-17.6 3-26 7.1-20.6 25.7-35.1 47.3-37 5.1-.3 10.2-.3 15.3 0h119c17.4-.5 34.7 2.5 51 8.7 64.2 24.8 96.2 96.9 71.5 161.2-9.6 24.8-26.8 45.9-49.1 60.2l-7 5 6.7 5.7c16.6 15.5 27.2 36.4 30 59 6.8 51-26.9 98.6-77.3 109-4.8.3-9.6.3-14.3 0H321.5c-9.5-1.1-16.3-9.7-15.2-19.3.7-6.3 4.9-11.7 10.8-14.1 3.8-.6 7.6-.6 11.3 0h98c7.1.3 14.2-.6 21-2.7 32.8-10.4 51-45.4 40.6-78.2-5.4-17-17.7-30.8-34-38.1-8.3-3.7-17.3-5.7-26.3-5.7h-75c-9.6-1.8-15.9-11-14.1-20.6 1-5.6 4.7-10.3 9.8-12.7 3.1-.5 6.2-.5 9.3 0h66.7c9.3.2 18.7-.9 27.7-3.3 33.6-6.8 59.9-33.1 66.7-66.7 10.6-47.4-19.3-94.4-66.7-105-6.1-2.5-12.5-4.3-19-5.3H294.9c-11.4.3-20.6 9.3-21.3 20.7v356.7c-.8 4.1-.8 8.3 0 12.3 2.6 8.5 10.2 14.4 19 15h133.3c60-.3 111.9-41.6 125.7-100 7-28.3 4-58.2-8.3-84.7-1.8-3.4-3.3-6.8-4.7-10.3-3.5-8.7.4-18.7 9-22.7 8.1-4.1 18-1.2 22.7 6.7 15.8 26.6 23.1 57.4 21 88.3l2.9.2zm-161-215.6h-100c-4.8.5-9.6.5-14.3 0-7.9-1.2-13.8-8-13.7-16-.9-8.1 4.2-15.6 12-17.7 3.8-.4 7.6-.4 11.3 0h100c9.3-.1 18.5 1.8 27 5.7 29.1 13.9 41.4 48.7 27.6 77.7-8 16.8-23.6 28.8-41.9 32.3h-33.7c-9.7-.3-17.5-8-18-17.7-.2-9.8 7.6-17.8 17.3-18h24.3c12.8.6 23.6-9.4 24.2-22.2.6-12.8-9.3-23.6-22.1-24.1z"/></svg>