<svg xmlns="http://www.w3.org/2000/svg" id="Layer_1" viewBox="0 0 300 61.5" width="300" height="61.5"><style>.st0{fill:#2997ff}.st1{fill:#505050}.st2{fill:none;stroke:#2997ff;stroke-width:3.9788;stroke-miterlimit:10}</style><g id="f1aa6cd9-6f47-44a1-ace5-bf01a90222fb"><g id="a1a91160-e1ab-40cc-aaf2-aeb327ccde93"><path d="M53.7 13.3c-10.1-.6-20.2-.6-30.2 0-7.8.6-8.7 5.2-8.7 17.5s1 16.9 8.7 17.5c7.2.4 23.1.4 30.2 0 7.8-.4 8.7-5.2 8.7-17.5s-.9-16.9-8.7-17.5zM32.6 38.8V22.9l15.9 7.9-15.9 8z" class="st0"/><path d="M93.1 43.2h-6l-3.6-23.5h5.2l2 19.3 7.4-19.3h5.2L93.1 43.2zm12.1 0h-4.8l2.6-17.9h4.8l-2.6 17.9zm-1.7-24.3c0-1.7 1.4-3.2 3.1-3.2h.1c1.3-.1 2.5.9 2.6 2.2v.4c0 1.7-1.3 3.2-3.1 3.2h-.2c-1.3.1-2.5-.9-2.6-2.2 0-.2 0-.3.1-.4zm23.8-1l-3.6 25.3h-4.2v-2.6c-1.1 1.9-3.1 3.1-5.4 3.2-3.8 0-5.8-2.8-5.8-7.2 0-4.8 2.4-11.9 8.5-11.9 1.6 0 3.1.6 4.2 1.8l1.6-9 4.7.4zm-13.7 18.7c0 2.6.8 3.6 2.2 3.6 1.8 0 3-1.6 4.2-3.6l1-7c-.6-1-1.6-1.5-2.8-1.6-3.6.2-4.6 5.4-4.6 8.6zm18.5 0c.2 2.6 1.4 3.6 3.4 3.6 1.7-.1 3.2-.6 4.6-1.6l1.8 3c-2 1.5-4.5 2.3-7 2.4-3.8.4-7.2-2.4-7.6-6.2v-1.4c0-5 2.6-11.5 9.9-11.5 4.2 0 6.4 2.2 6.4 4.8 0 4.7-5.8 6.3-11.5 6.9zm6.8-7c0-.8-.4-1.8-2-1.8-2.8 0-4.2 2.8-4.6 5.6 4.6-.4 6.6-1.8 6.6-3.8zm4.7 6.4c0-5 2.4-11.6 9.9-11.6 3.8-.3 7.1 2.5 7.4 6.3V32c0 4.8-2.4 11.6-9.9 11.6-4.8.2-7.4-2.8-7.4-7.6zm12.4-4.2c0-2.6-1-3.6-2.8-3.6-3.8 0-4.6 5.4-4.6 8.2 0 2.8 1 3.6 2.8 3.6 3.8 0 4.6-5.2 4.6-8.2zm30-8.3h-6l-2.8 19.7h-5l2.8-19.7h-6l.6-4H187l-1 4zM184 38l1.8-12.9h4.8l-1.8 12.1c-.2 2 .2 2.6 1.4 2.6 1.6 0 2.8-1.6 4-3.2l1.6-11.6h4.8L198 42.9h-4.2l.2-2.8c-1.3 2-3.4 3.2-5.8 3.4-3.2.3-4.8-2.1-4.2-5.5zm23.3-.6c-.2 1.8.2 2.4 1.2 2.4.8 0 1.5-.2 2.2-.6l1.2 3.2c-1.5.9-3.1 1.3-4.8 1.4-3.6 0-5.4-2.2-4.8-6.1l1.2-9H201l.4-3.4h2.8l1.2-4 4-.4-.6 4.6h4.2l-1 3.4h-3.6l-1.1 8.5z" class="st1"/><path d="M211.9 36c0-5 2.4-11.6 9.9-11.6 3.8-.3 7.1 2.5 7.4 6.3V32c0 4.8-2.4 11.6-9.9 11.6-4.6.2-7.4-2.8-7.4-7.6zm12.5-4.2c0-2.6-1-3.6-2.8-3.6-3.8 0-4.6 5.4-4.6 8.2 0 2.8 1 3.6 2.8 3.6 3.6 0 4.4-5.2 4.6-8.2zm19.1-6.9l-1.4 4.8c-.5-.1-1.1-.2-1.6-.2-2.2 0-3.6 2.2-4.6 5.2l-1.2 8.5H230l2.6-17.9h4.2l-.2 3.4c.8-2.2 2.8-3.8 5.2-4 .5-.1 1.1 0 1.7.2zm3.2 18.3h-4.8l2.6-17.9h4.8l-2.6 17.9zm-1.8-24.3c0-1.7 1.4-3.1 3.1-3.2h.1c1.3-.1 2.5.9 2.6 2.2v.4c0 1.7-1.4 3.1-3.1 3.2h-.1c-1.3.1-2.5-.9-2.6-2.2v-.4zm22.5 7.5l-1.8 11.7c-.2 1.2-.2 1.8 1 2.2l-1.4 3.2c-2-.2-3.6-1-4-3-1.2 1.9-3.2 3-5.4 3-3.8 0-5.8-2.8-5.8-7.2 0-5.2 2.8-11.9 10.2-11.9 2.5.2 4.9.9 7.2 2zM255 36.6c0 2.6 1 3.6 2.4 3.6s2.6-1 3.8-2.6l1.2-9c-.7-.3-1.4-.4-2.2-.4-3.8-.2-5.2 4.8-5.2 8.4zm18.3 2c-.2.8.2 1.2.8 1.2.3 0 .7 0 1-.2l.6 3.4c-1 .4-2.1.6-3.2.6-3 0-4.4-1.8-4-5.2l3-20.7 4.8-.6-3 21.5z" class="st1"/><path d="M292 59.9H8c-4.4 0-8-3.6-8-8V9.5c0-4.4 3.6-7.9 8-7.9h284c4.4 0 8 3.6 8 8v42.6c-.2 4.2-3.7 7.5-8 7.7z" class="st2"/></g></g></svg>