<svg xmlns="http://www.w3.org/2000/svg" id="Layer_1" viewBox="0 0 800 117" width="800" height="117"><style>.st0{fill:none;stroke:#2997ff;stroke-width:7.5493;stroke-miterlimit:10}.st1{fill:#505050}.st2,.st3{fill:none;stroke:#fff;stroke-width:18.8733;stroke-linecap:round;stroke-linejoin:round}.st3{stroke:#2997ff;stroke-width:10.7578}</style><g id="b2b9f4e7-f054-49c9-b001-772d8e3361dd"><g id="edb7c979-a941-4a65-bf97-429f149abb75"><path d="M784.9 113.8H15.1C6.8 113.8 0 107.1 0 98.7V18.3C0 10 6.8 3.2 15.1 3.2h769.8c8.3 0 15.1 6.8 15.1 15.1v80.8c-.4 8.1-7 14.5-15.1 14.7z" class="st0"/><path d="M185.6 46.3l-5 5c-2.1-2.2-5.1-3.3-8.1-3.3-3.8 0-6.1 1.7-6.1 4.5s1.5 3.4 6.7 5.2c6.5 2.1 10.3 5.2 10.3 11.3s-4.6 14.2-17.1 14.2c-5.5.2-10.8-1.9-14.6-5.9l5.4-5.3c2.5 2.5 5.9 3.9 9.5 3.8 4.4 0 7.1-2 7.1-5.4 0-2.6-1.5-4-6.3-5.7-7.5-2.6-10.7-5.9-10.7-11.3 0-6.1 4.9-12.5 15.6-12.5 5-.4 9.8 1.7 13.3 5.4zm1.9 27l3.1-22h9l-2.9 20.5c-.5 3.1.4 4 2 4s4.2-2.3 5.9-4.9l2.9-19.7h9L212 82h-7.8v-4.6c-2.2 3.3-5.8 5.4-9.7 5.5-5.4.2-7.8-3.6-7-9.6zM250 62.4c0 8.9-3.8 20.8-18 20.8-4.3 0-8.6-.9-12.6-2.5l5.8-41.5 9.1-1-2.2 15.8c2.3-2.2 5.3-3.5 8.5-3.6 6.1 0 9.4 4.3 9.4 12zm-18.9-1.8L229 75.7c1.2.5 2.5.8 3.8.8 5.7 0 7.8-8.1 7.8-13.9 0-4.3-1.6-5.5-3.8-5.5-2.3.3-4.4 1.6-5.7 3.5zm66.3-.8l-3 22.3h-9.1l2.9-20.3c.5-3.2-.5-3.8-1.7-3.8-2.1 0-4.2 2.9-6 7l-2.4 17.3h-9L272 62c.5-3.2-.5-3.8-1.7-3.8-2 0-4.2 3-6 7.2l-2.4 17.1h-9l4.3-30.8h7.8v5.1c2-3.5 5.6-5.8 9.7-6 3.2-.1 6 2.2 6.5 5.3 2-3.3 5.6-5.4 9.4-5.7 4.9 0 7.6 3.5 6.8 9.4zm12.7 22.4h-9l4.3-30.8h9l-4.3 30.8zM306 41c0-3.2 2.5-5.8 5.7-5.8h.3c2.5-.2 4.6 1.6 4.8 4.1v.5c0 3.2-2.6 5.8-5.8 5.8h-.2c-2.5.2-4.6-1.7-4.8-4.2V41zm22.4 31c-.4 2.9.3 3.8 2.1 3.8 1.2-.1 2.4-.4 3.5-1l2.4 6c-2.6 1.5-5.5 2.2-8.4 2.3-6.4 0-9.6-4-8.6-11.3l2-14.2h-4.3l.9-6.4h4.6l2-6.5 7.5-.9-1.1 7.5h7.1l-1.9 6.4h-6L328.4 72zm40.7 10.3c-3.1 7.7-10.7 12.8-19 12.7l-.2-6.4c4.5 0 8.7-2.4 10.8-6.5h-3.2l-4.9-30.8h9.4l2 24.9 9.3-24.9h9.4l-13.6 31zM381.2 70c0-8.6 4.2-19.7 17.2-19.7 6.6-.6 12.4 4.1 13 10.7.1.8.1 1.7 0 2.6 0 8.5-4.2 19.7-17.2 19.7-6.5.7-12.4-4.1-13-10.6-.1-.9-.1-1.8 0-2.7zm20.9-7.1c0-4.1-1.5-5.8-4.3-5.8-6.1 0-7.3 8.8-7.3 13.5 0 4.1 1.4 5.8 4.3 5.8 6.1 0 7.3-8.8 7.3-13.5zm13.1 10.4l3.1-22h9l-2.8 20.5c-.5 3.1.4 4 2 4s4.2-2.3 5.9-4.9l2.8-19.7h9L439.9 82h-7.8v-4.6c-2.1 3.2-5.5 5.2-9.3 5.5-5.9.2-8.4-3.6-7.6-9.6zm55.6-22.4l-2.7 8.9c-.8-.2-1.7-.4-2.5-.4-3.8 0-5.9 3.8-7.5 8.5l-2 14.3h-9l4.3-30.8h7.9v5.7c1.4-3.7 4.8-6.3 8.7-6.6.8 0 1.8.2 2.8.4zM494.1 72c-.4 2.9.4 3.8 2.1 3.8 1.2-.1 2.4-.4 3.5-1l2.4 6c-2.6 1.5-5.5 2.2-8.4 2.3-6.4 0-9.5-4-8.6-11.3l2-14.2h-4.2l.9-6.4h4.6l1.9-6.8 7.8-.9L497 51h7.1l-2 6.8h-6l-2 14.2zm27.3 10.3C518.3 90 510.8 95 502.5 95l-.3-6.4c4.5 0 8.7-2.4 10.9-6.5h-3.5l-4.9-30.8h9.4l2 24.9 9.4-24.9h9.4l-13.5 31zm16.7-31h7.9v3.4c2.2-2.7 5.5-4.3 9.1-4.4 6.3 0 9.5 4.3 9.5 12 0 8.9-4.1 20.8-16.3 20.8-1.9 0-3.7-.2-5.5-.9L541 94.1l-9 1 6.1-43.8zm17.3 11.4c0-4.3-1.6-5.5-3.8-5.5-2.4.2-4.6 1.5-5.9 3.5l-2.1 15.1c1.2.5 2.5.8 3.8.8 5.8-.2 7.9-8.3 7.9-14v.1zm21.3 8.2c.2 4.2 2.5 5.5 5.5 5.5 2.8-.1 5.6-1.1 7.9-2.8l3.2 5.4c-3.5 2.6-7.8 4.1-12.3 4.1-6.6.8-12.6-3.9-13.4-10.5-.1-.8-.1-1.7 0-2.5 0-8.3 4.5-19.7 17.5-19.7 7.5 0 11.3 3.8 11.3 8.4 0 8.6-10 11.2-19.7 12.1zm10.7-11.7c.1-1.5-1-2.7-2.5-2.8h-.5c-4.4 0-6.5 4.5-7.3 8.9 7.7-.4 10.3-3.2 10.3-6.1zm51.5-4.9l-4.5 5.2c-1.4-1.4-3.3-2.2-5.3-2.2-6.3 0-7.8 7.5-7.8 12.8 0 4.3 1.9 5.7 4.8 5.7 2.2-.1 4.3-.8 6.1-2.2l3.4 5.9c-3.1 2.3-6.8 3.6-10.6 3.5-6.7.5-12.6-4.5-13.1-11.2-.1-.7 0-1.4 0-2.1 0-8 4.7-19.5 17.3-19.5 3.5.1 7.1 1.5 9.7 4.1zm29.2 5.5L665 82.2h-9l2.8-20.3c.5-3.1-.4-3.8-1.7-3.8-2.4 0-4.7 3-6.9 7.5l-2.4 16.9h-9l6-43 9.1-.9-2.5 18.3c1.9-3.6 5.7-6 9.8-6.2 5-.3 7.7 3.2 6.9 9.1zm3.8 10.2c0-8.6 4.2-19.7 17.2-19.7 6.6-.6 12.4 4.1 13 10.7.1.8.1 1.7 0 2.6 0 8.5-4.2 19.7-17.2 19.7-6.5.7-12.4-4.1-13-10.6-.1-.9-.1-1.8 0-2.7zm20.8-7.1c0-4.1-1.5-5.8-4.3-5.8-6.1 0-7.3 8.8-7.3 13.5 0 4.1 1.4 5.8 4.3 5.8 6.1 0 7.3-8.8 7.3-13.5zM714 82.2h-9l4.3-30.8h9L714 82.2zM710 41c0-3.2 2.5-5.8 5.7-5.8h.3c2.5-.3 4.7 1.5 5 3.9v.6c0 3.2-2.6 5.8-5.8 5.8h-.2c-2.5.3-4.7-1.5-5-4V41zm38.4 13.3l-4.5 5.2c-1.4-1.4-3.4-2.2-5.4-2.2-6.3 0-7.8 7.5-7.8 12.8 0 4.3 1.9 5.7 4.8 5.7 2.2-.1 4.3-.8 6.1-2.2l3.4 5.9c-3 2.3-6.8 3.6-10.6 3.5-6.7.6-12.6-4.4-13.1-11.2-.1-.7-.1-1.4 0-2.1 0-8 4.7-19.5 17.3-19.5 3.6.1 7.2 1.5 9.8 4.1zm8.3 16.6c.2 4.2 2.5 5.5 5.5 5.5 2.8-.1 5.6-1.1 7.9-2.8l3.2 5.4c-3.5 2.7-7.8 4.1-12.3 4.1-6.6.8-12.6-3.9-13.3-10.5-.1-.8-.1-1.7 0-2.6 0-8.3 4.5-19.7 17.4-19.7 7.5 0 11.3 3.8 11.3 8.4.1 8.7-10.1 11.3-19.7 12.2zm10.7-11.7c.1-1.4-1-2.7-2.4-2.8h-.5c-4.4 0-6.5 4.5-7.3 8.9 7.6-.4 10.2-3.2 10.2-6.1z" class="st1"/><path d="M46.4 27.3h39.5c8.1 0 14.7 6.6 14.7 14.7v39.5c0 8.1-6.6 14.7-14.7 14.7H46.4c-8.1 0-14.7-6.6-14.7-14.7V42c-.1-8.1 6.5-14.7 14.7-14.7z" class="st0"/><path d="M51.7 58.9L66 82.2l28.7-61.3" class="st2"/><path d="M51.7 58.9L66 82.2l28.7-61.3" class="st3"/></g></g></svg>