<svg xmlns="http://www.w3.org/2000/svg" id="Layer_1" viewBox="0 0 800 226.4" width="800" height="226.4"><style>.st0{fill:none;stroke:#2997ff;stroke-width:9.3294;stroke-miterlimit:10}.st1{fill:#505050}.st2{fill:#2997ff}</style><g id="a434a036-c349-4424-be62-038611b3319b"><g id="a7236459-1f0f-4786-bd3f-637c9e3107b7"><path d="M781.3 223.1H18.7C8.4 223.1 0 214.7 0 204.4V22C0 11.7 8.4 3.3 18.7 3.3h762.7c10.3 0 18.7 8.4 18.7 18.7v182.9c-.7 10-8.8 17.9-18.8 18.2z" class="st0"/><path d="M299.1 39l-7 7c-3-3-7.1-4.7-11.3-4.7-5.1 0-8.5 2.3-8.5 6.3 0 3.2 2.1 4.7 9.3 7.2 9 3 14.4 7.4 14.4 16 0 9.3-6.4 19.8-24 19.8-7.5.3-14.8-2.6-20.1-7.9l7.6-7.5c3.4 3.6 8.2 5.6 13.2 5.5 6.2 0 9.9-2.8 9.9-7.6 0-3.7-2.2-5.6-8.9-7.9-10.6-3.6-14.9-8.3-14.9-15.7 0-8.5 6.8-17.5 21.8-17.5 6.9-.4 13.5 2.2 18.5 7zm2.6 37.9l4.4-30.7h12.5l-4 28.7c-.7 4.3.6 5.6 2.8 5.6s5.9-3.3 8.3-6.8l3.8-27.5H342l-6 43h-10.9v-6.4c-3 4.6-8.1 7.5-13.6 7.8-7.5 0-11-5.4-9.8-13.7zM389 61.6c0 12.4-5.2 29-25.1 29-6.1 0-12.1-1.2-17.7-3.5l8.3-57.9 12.7-1.4-3.4 22.2c3.2-3.1 7.4-4.9 11.8-5 8.8-.2 13.4 5.9 13.4 16.6zm-26.3-2.3l-2.9 21.1c1.7.7 3.6 1 5.4 1 8 0 10.9-11.3 10.9-19.5 0-6-2.3-7.6-5.1-7.6-3.4.3-6.5 2.2-8.3 5zm92.5-1.4l-4.3 31.3h-12.4l4-28.4c.7-4.7-.7-5.5-2.3-5.5-2.9 0-5.8 4.1-8.4 9.8l-3.4 24.1h-12.7l4.2-28.4c.7-4.7-.7-5.5-2.4-5.5-2.8 0-5.9 4.1-8.3 10.1L406 89.2h-13l6-43h11v7c2.7-4.9 7.8-8.1 13.4-8.4 4.8-.3 8.9 3.3 9.3 8 2.8-4.6 7.8-7.6 13.2-8 6.6 0 10.5 5.2 9.3 13.1zm17.7 31.3h-12.5l6.1-43H479l-6.1 43zm-5.6-57.6c0-4.4 3.6-8 8-8h.5c3.5-.3 6.5 2.3 6.7 5.8v.6c0 4.5-3.6 8.1-8.1 8.1h-.2c-3.5.4-6.6-2.1-6.9-5.6v-.9zm31.1 43.3c-.6 4.1.5 5.5 2.9 5.5 1.6-.1 3.2-.6 4.7-1.4l3.3 8.3c-3.6 2-7.6 3.1-11.8 3.2-8.9 0-13.3-5.6-12-15.6l2.8-19.9h-5.9l1.2-8.9h6.5l2.7-9.3 10.9-1.4-1.5 10.8h9.9l-2.7 8.9H501l-2.6 19.8zM574 49.3l-4 27.5c-.3 2.8 0 4.3 2.1 5.2l-3.6 8.3c-4.5.1-8.6-2.8-9.9-7.1-2.7 4.5-7.5 7.3-12.8 7.4-9 0-14-6.7-14-17.1 0-12.3 6.5-28.6 24.6-28.6 6.2-.1 12.2 1.5 17.6 4.4zm-29.2 24c0 6.1 2.1 7.8 4.7 7.8s5.8-2.3 8.2-6l3-20.5c-1.5-.6-3.1-.8-4.7-.8-8.2.1-11.2 11.3-11.2 19.5zm98.3-24.6c0 10.3-6.5 21.8-24.7 21.8h-6.2l-2.6 18.7h-13.1l7.8-56h17.8c13.2-.1 21 5 21 15.5zm-13.5.6c0-4.7-2.9-6.8-8.6-6.8h-4.7l-2.6 18.4h4.7c5.7.5 10.8-3.7 11.3-9.4.1-.7.1-1.4 0-2.2h-.1zm63.4 5.1c0 18.2-7.7 34.8-31.7 34.8h-16.8l7.9-56h15.2C681 33.1 693 37 693 54.4zm-28.9-11.7l-5.2 36.9h4.3c13.2 0 16.5-14.4 16.5-25.3 0-9.7-4.7-11.7-11.2-11.7l-4.4.1zm70.5-.2H716l-2.1 14.9h16.2l-1.3 9.3h-16.2L709.5 89h-13.1l7.9-56h32.9l-2.6 9.5zm-459.1 97.8l-.3 3h10l-2.6 8.9h-8.8l-4.1 29.4c-2 14-9.7 18.9-20 22.7l-3.2-9.3c6-1.5 10.3-6.8 10.5-13l4.2-29.9h-6.4l1.2-8.8h6.4l.6-4c1-8.8 8.8-15.2 17.7-14.5 4.3 0 8.4 1.2 12 3.6L288 136c-2-1.1-4.2-1.7-6.5-1.7-3.5.1-5.4 1.8-6 6zm6.9 29.2c0-12 5.8-27.4 24-27.4 9.2-.8 17.2 6 18 15.2.1 1 .1 2.1 0 3.1 0 11.8-5.9 27.5-24 27.5-9.2.8-17.2-6-18-15.1-.1-1.2-.1-2.3 0-3.3zm29.2-10c0-5.7-2.1-8.1-6-8.1-8.5 0-10.2 12.3-10.2 18.7 0 5.6 2 8.1 6 8.1 8.3.2 10.1-12.1 10.2-18.7zm50.2-16.7l-3.6 12.3c-1.2-.3-2.3-.5-3.5-.6-5.4 0-8.3 5.1-10.6 11.9l-2.8 19.9h-12.5l6-43.1h10.9v8c1.8-5.2 6.6-8.9 12.1-9.3 1.3.2 2.7.4 4 .9zm55.4-3.1h-18.7l-2 14.9h16.2l-1.3 9.3h-16.2l-3.2 22.3h-13l7.9-56h32.9l-2.6 9.5zm10.4 31.1c-.4 3.8 2.4 7.3 6.3 7.7h1.4c4-.2 7.8-1.6 11-4l4.7 7.7c-4.9 3.7-10.9 5.7-17.1 5.7-12.6 0-18.7-7.3-18.7-18.2 0-11.7 6.3-27.5 24.4-27.5 10.4 0 15.9 5.3 15.9 11.8-.3 11.8-14.4 15.4-27.9 16.8zm14.9-16.5c.1-2-1.5-3.8-3.5-3.9h-.6c-6.2 0-9 6.3-10.2 12.5 10.8-.6 14.3-4.5 14.3-8.6zm27.7 16.5c-.4 3.8 2.4 7.3 6.3 7.7h1.4c4-.2 7.8-1.6 10.9-4l4.7 7.7c-4.9 3.7-10.9 5.7-17.1 5.7-12.5 0-18.7-7.3-18.7-18.2 0-11.7 6.3-27.5 24.4-27.5 10.4 0 15.9 5.3 15.9 11.8-.2 11.8-14.3 15.4-27.8 16.8zm14.9-16.5c.1-2-1.5-3.8-3.5-3.9h-.6c-6.2 0-9 6.3-10.2 12.5 10.7-.6 14.3-4.5 14.3-8.6zm60.7-28l-8.4 60.1h-11.1v-6.2c-2.7 4.6-7.5 7.4-12.8 7.6-9 0-13.5-6.6-13.5-17.4 0-11.7 5.9-28.4 20.6-28.4 3.7-.1 7.3 1.4 9.9 4.1l2.9-21.1 12.4 1.3zm-32.7 44.2c0 6.1 1.9 7.9 4.7 7.9 3.7 0 6.7-3.7 9.3-8l2.3-16c-1.4-1.9-3.6-3.1-6-3-8.1 0-10.3 12-10.3 19.1zm77.2-11.7c0 12.4-5.2 29-25.1 29-6-.1-12-1.3-17.6-3.5l8.1-57.9 12.7-1.4-3.1 22.1c3.1-3.1 7.4-4.9 11.8-5 8.6-.1 13.2 5.9 13.2 16.7zm-26.3-2.5l-2.9 21.1c1.7.7 3.6 1 5.4 1 8 0 10.9-11.3 10.9-19.5 0-6-2.3-7.6-5.1-7.6-3.5.4-6.5 2.2-8.3 5zm72.7-9.7l-4 27.5c-.3 2.8 0 4.3 2.1 5.2l-3.7 8.3c-4.5.1-8.5-2.7-9.9-7-2.7 4.5-7.5 7.3-12.8 7.4-9.1 0-14-6.7-14-17.1 0-12.3 6.5-28.6 24.6-28.6 6.3-.2 12.3 1.3 17.7 4.3zm-29.2 24c0 6.1 2.1 7.8 4.7 7.8s5.7-2.3 8.2-6l3-20.5c-1.5-.6-3.1-.8-4.7-.8-8.2 0-11.2 11.2-11.2 19.5zm71.3-23.1l-6.3 7.3c-2-2-4.7-3.1-7.5-3-8.7 0-10.9 10.6-10.9 17.9 0 6.1 2.7 7.9 6.7 7.9 3.1-.1 6-1.2 8.5-3l4.7 8.2c-4.3 3.3-9.5 5-14.8 4.9-9.4.7-17.6-6.3-18.3-15.6-.1-1-.1-2 0-3 0-11.1 6.6-27.2 24.1-27.2 5.2-.1 10.1 1.9 13.8 5.6zm17.7 1.5c3.4-4.4 8.7-6.9 14.3-7 5.7-.7 10.8 3.3 11.5 9 .1.4.1.9.1 1.3 0 6.7-3.8 11.8-11.8 15l8 19.1h-14l-7.8-20.7c9.3-3.1 12.5-6.7 12.5-11.2.2-1.8-1.1-3.4-2.8-3.6h-.8c-3.3 0-7.3 2.6-10.9 8.8l-3.6 26.6h-12.6l8.4-60.1 12.8-1.4-3.3 24.2z" class="st1"/><path d="M159.6 72.8v49.9c4.2 0 8.5.2 12.7.7V72.8c0-12-9.8-21.7-21.8-21.7h-36.8v2.7c0 3.3 0 6.6-.2 9.9h37c5 .1 9 4.1 9.1 9.1zM56.4 149.4c.7-.4 1.5-.6 2.3-.7v-76c0-5.1 4-9.2 9.1-9.3h17.9c-.5-4.2-.7-8.4-.7-12.6H67.8c-12 0-21.7 9.7-21.7 21.7v83.2c3.3-2.3 6.8-4.4 10.3-6.3zm103.2 6c0 5.2-4.2 9.3-9.3 9.3H76.2c-2.9 4.7-5.8 8.9-8.5 12.6h82.8c11.9 0 21.5-9.5 21.7-21.4-4.3-.4-8.5-1.3-12.6-2.4v1.9z" class="st2"/><path d="M185.8 134.8c-5.5-5.5-22-7.2-44.3-4.7-4.7-2.6-9.1-5.6-13.3-9-5.6-4.7-15.7-15.4-23.3-37.6 1.6-9.9 2.4-20 2.4-30.1v-4.7l.5-2.6c1.1-3.3.7-7-1.2-9.9-1.2-1.4-3.1-2.1-4.9-2h-3.3c-2.7 0-4.7 2.1-5.8 5.5-2.6 9.7-1.3 26.5 3.3 42.6.2.7.4 1.3.6 2-4.2 14.2-9.6 28-16.3 41.2-7.9 17.1-17.5 33.4-28.6 48.6-3.5 5.1-8.3 9.2-14 11.8 1.4-4 3.5-7.7 6.2-10.9 5-6.4 10.9-12.2 17.4-17l-2-3.1c-19 10.1-27.4 21.8-28.8 28.8-.4 1.6-.2 3.3.7 4.7v.3h.4l3.9 2c1.2.6 2.6 1 3.9.9 9 0 21.3-13.4 37.3-40.6 19.7-6.6 40-10.9 60.6-13h1.3a91.34 91.34 0 0 0 37.8 11.4c2.1.1 4.1-.2 6.1-.8l.8-.3 2.3-1.8c.5-.6.8-1.3.9-2l.6-1.3c1.5-2.8 1-6.1-1.2-8.4zM100.2 41c.2-.6.5-1.2.9-1.8 1.9 1.8 3 4.3 3.1 6.9l.2 2.5h-.6c-.4 1.8-.7 4-1 6.5-.3 2.6-1.1 7.3-2 11.9-2.2-8.5-2.4-17.4-.6-26zM79.9 145.9c2.6-4.7 5.3-9.7 8-15 5.6-10.4 10.1-21.4 13.7-32.7 4.6 11.1 11.6 21 20.4 29.1 2 1.7 4 3.2 6.2 4.7-16.5 2.9-32.7 7.6-48.3 13.9zm103.7-3.3c-4.2 1.6-15.2-.5-27.6-5.6 13.2-.3 22.8.8 26.4 3.5 1.3 1.1 1.3 1.8 1.2 2.1z" class="st2"/></g></g></svg>