<svg xmlns="http://www.w3.org/2000/svg" id="Layer_1" viewBox="0 0 800 117.6" width="800" height="117.6"><style>.st0{fill:none;stroke:#2997ff;stroke-width:7.5887;stroke-miterlimit:10}.st1{fill:#2997ff}.st2{fill:#505050}</style><g id="ff64e054-1092-4a0e-acd9-a298a883f0ad"><g id="b54a60be-c564-4948-b564-0c5b1ba76d17"><path d="M784.8 114.4H15.2C6.8 114.4 0 107.6 0 99.2V18.4C0 10 6.8 3.2 15.2 3.2h769.6c8.4 0 15.2 6.8 15.2 15.2v81.2c-.4 8.1-7 14.6-15.2 14.8z" class="st0"/><path d="M102.1 50.9c-.8-15.7-14.2-27.8-29.9-27-14.6.8-26.2 12.4-27 27-10 1.8-17.2 10.5-17.1 20.7.1 11.5 9.4 20.8 20.9 20.9h49.3c11.5-.1 20.8-9.4 20.9-20.9 0-10.2-7.2-18.9-17.1-20.7zm-28.5-4.2l15.2 15.2H77.4V77h-7.6V61.9H58.4l15.2-15.2z" class="st1"/><path d="M190.1 44.5l-5.2 5.2c-2.2-2.2-5.3-3.5-8.4-3.4-3.8 0-6.3 1.7-6.3 4.6s1.6 3.6 7 5.4c6.8 2.2 10.7 5.5 10.7 11.9S183.2 83 170 83c-5.7.2-11.2-2-15.2-6.1l5.6-5.5c2.5 2.7 6.1 4.2 9.8 4.1 4.6 0 7.4-2.1 7.4-5.7 0-2.7-1.6-4.2-6.6-5.9-7.8-2.8-11-6.3-11-11.9 0-6.3 5.1-13 16.2-13 5.2-.2 10.3 1.8 13.9 5.5zm.8 28.2l3.3-22.8h9.3l-3 21.3c-.5 3.2.4 4.2 2.1 4.2s4.4-2.4 6.1-5l2.8-20.5h9.3l-4.4 32h-8.1v-4.8c-2.2 3.4-5.9 5.5-10 5.8-5.8 0-8.3-4-7.4-10.2zm63.8-11.4c0 9.2-3.8 21.6-18.7 21.6-4.5 0-9-.9-13.2-2.7l6-43.1 9.5-1-2.3 16.5c2.3-2.4 5.5-3.7 8.8-3.8 6.4 0 9.9 4.5 9.9 12.5zm-19.5-1.8l-2.4 15.9c1.3.5 2.7.8 4.1.8 6 0 8.1-8.5 8.1-14.5 0-4.4-1.7-5.7-3.8-5.7-2.4.2-4.6 1.5-6 3.5zm67.6-.9l-3.1 23.3h-9.6l3-21.2c.5-3.4-.5-4.1-1.7-4.1-2.2 0-4.4 3-6.3 7.3l-2.5 18h-9.5l3-21.2c.5-3.4-.6-4.1-1.8-4.1-2.1 0-4.4 3.1-6.2 7.6L265.6 82h-9.2l4.4-32h8.2v5.2c2-3.7 5.7-6.1 9.8-6.4 3.6-.3 6.7 2.4 7 6 2.2-3.5 5.9-5.7 10.1-6 4.9 0 7.6 3.8 6.9 9.8zm12.1 23.3h-9.5l4.5-32h9.3l-4.3 32zm-4.4-43c0-3.3 2.7-6 6-6h.3c2.6-.2 4.8 1.7 5 4.3v.4c0 3.4-2.7 6.1-6.1 6.1h-.2c-2.6.2-4.8-1.8-5-4.4v-.4zm22 32.3c-.4 3.1.4 4.1 2.2 4.1 1.3 0 2.6-.4 3.8-1l2.5 6.2c-2.7 1.5-5.7 2.3-8.7 2.4-6.6 0-10-4.2-9-11.6l2.1-14.8h-4.6l.9-6.6h4.8l2-7.1 8.1-.9-1.1 8h7.4l-2 6.5h-6.3l-2.1 14.8zm22.6-2c0-8.9 4.3-20.4 17.8-20.4 6.8-.6 12.8 4.4 13.4 11.2.1.8.1 1.6 0 2.4 0 8.8-4.4 20.5-17.8 20.5-6.8.6-12.8-4.4-13.4-11.2-.1-.9-.1-1.7 0-2.5zm21.7-7.4c0-4.2-1.5-6-4.5-6-6.3 0-7.6 9.2-7.6 14 0 4.2 1.4 6 4.4 6 6.5.1 7.6-9.1 7.7-14zm41.9-3.1l-3.2 23.2H406l3-21.2c.5-3.3-.5-4.1-1.9-4.1-2.4 0-4.8 3.1-7.1 7.6l-2.5 17.6h-9.3l4.5-32h8.1v5.6c2.3-3.9 6.4-6.3 10.9-6.6 5 0 7.9 3.8 7 9.9zm48.3 9.8c0 7.3-4.8 13.4-19.7 13.4H434l5.8-41.7h12.3c9.5 0 15.8 2.5 15.8 9.5-.2 5.2-4 9.5-9.2 10.2 4.2.7 8.3 2.7 8.3 8.6zm-9.9-.8c0-3.3-2.5-4.4-6.3-4.4h-4.5l-1.6 11.4h3.5c7.1 0 8.9-3 8.9-7zm.8-17.1c0-2.7-2-3.6-5.7-3.6h-3.8l-1.3 9.7h3.8c5 0 7-2.6 7-6.1zm36-1.2l-2.7 9.2c-.9-.2-1.8-.4-2.7-.4-4 0-6.1 3.8-7.9 8.9l-2.1 14.8h-9.3l4.4-32h8.2v6c1.3-3.9 4.8-6.6 8.9-7 1.1-.1 2.2.1 3.2.5zm7 32.5h-9.3l4.5-32h9.3l-4.5 32zm-4.3-43c0-3.3 2.7-6 6-6h.2c2.6-.2 4.8 1.7 5 4.3v.4c0 3.4-2.7 6.1-6.1 6.1h-.2c-2.6.1-4.8-2-4.9-4.6v-.2zm42.5 13.3L535 79.4c-1.6 11.4-6.8 15.9-16.8 15.9-4.3-.1-8.4-1.3-12.1-3.5l3.2-6.2c2.6 1.6 5.6 2.4 8.7 2.5 3.5 0 6.9-1 7.8-7.3l.5-3.1c-2.1 2.5-5.2 4.1-8.5 4.2-6.9 0-10.5-5.1-10.5-12.4 0-8.8 4.9-20.6 18.7-20.6 4.5-.1 9.1 1.1 13.1 3.3zm-22 17c0 4.3 1.7 5.6 3.8 5.6 2.7-.4 5-2.1 6.3-4.5l2.2-14.2c-1.2-.4-2.4-.6-3.6-.6-6.5.1-8.7 8-8.7 13.7zm54.1-10.6l-3.3 23.2h-9.3l3-21.2c.5-3.3-.4-4.1-1.8-4.1-2.5 0-4.9 3.1-7.2 7.6l-2.4 17.7h-9.5L547 37l9.4-.9-2.7 19c2.1-3.7 5.9-6.2 10.2-6.3 5.3 0 8.1 3.8 7.3 9.8zm14.2 12.6c-.4 3.1.4 4.1 2.2 4.1 1.3-.1 2.5-.4 3.6-1l2.5 6.2c-2.7 1.5-5.7 2.3-8.7 2.4-6.6 0-10-4.2-9-11.6l2.1-14.8h-4.4l.9-6.6h4.8l2-7.1 8.1-.9-1.2 8h7.4l-2 6.5h-6.3l-2 14.8z" class="st2"/><path d="M628.1 44.5l-5.2 5.2c-2.2-2.2-5.3-3.5-8.4-3.4-3.8 0-6.3 1.7-6.3 4.6s1.6 3.6 7 5.4c6.8 2.2 10.7 5.5 10.7 11.9S621.2 83 608.1 83c-5.7.2-11.2-2-15.2-6.1l5.6-5.5c2.5 2.7 6.1 4.2 9.8 4.1 4.6 0 7.4-2.1 7.4-5.7 0-2.7-1.6-4.2-6.6-5.9-8-2.8-11.1-6.3-11.1-11.9 0-6.3 5.1-13 16.2-13 5.2-.2 10.3 1.8 13.9 5.5zm4.3 5.3h8.3v3.5c2.3-2.8 5.8-4.4 9.4-4.6 6.5 0 9.9 4.5 9.9 12.5 0 9.2-4.2 21.6-17 21.6-1.9.1-3.9-.3-5.7-.9l-1.8 12.3-9.3 1 6.2-45.4zm18 11.6c0-4.4-1.7-5.7-3.8-5.7-2.5.2-4.8 1.6-6.1 3.8l-2.2 15.7c1.3.5 2.7.8 4.1.8 5.8-.1 8-8.5 8-14.6zm42.9-9.2l-2.8 20.5c-.3 2.1 0 3.2 1.6 3.8l-2.7 6.1c-3.4.2-6.6-2-7.6-5.3-2 3.4-5.6 5.5-9.6 5.6-6.8 0-10.4-5-10.4-12.7 0-9.1 4.8-21.3 18.4-21.3 4.6-.1 9.1 1.1 13.1 3.3zm-21.7 17.9c0 4.5 1.5 5.8 3.8 5.8s4.2-1.7 6.1-4.4l2.2-15.2c-1.1-.4-2.4-.6-3.6-.6-6.3-.1-8.5 8.2-8.5 14.4zm51.8-17.2l-4.7 5.4c-1.5-1.5-3.5-2.3-5.5-2.2-6.5 0-8.1 7.9-8.1 13.3 0 4.5 2 5.9 5 5.9 2.3-.1 4.5-.9 6.3-2.2l3.5 6.1c-3.2 2.5-7 3.8-11 3.8-7 .6-13.1-4.6-13.7-11.6-.1-.7-.1-1.5 0-2.2 0-8.3 4.9-20.3 17.9-20.3 3.9-.1 7.6 1.3 10.3 4z" class="st2"/><path d="M730.9 70.2c-.3 2.8 1.8 5.4 4.6 5.7h1.1c3-.1 5.8-1.1 8.2-3l3.4 5.7c-3.7 2.8-8.1 4.3-12.7 4.3-6.9.8-13.1-4.1-13.9-11-.1-.9-.1-1.7 0-2.6 0-8.7 4.7-20.5 18.1-20.5 7.8 0 11.8 3.8 11.8 8.7 0 9-10.5 11.7-20.6 12.7zM742 58c.1-1.5-1.1-2.8-2.6-2.9h-.5c-4.6 0-6.8 4.7-7.6 9.3 8.1-.5 10.7-3.4 10.7-6.4z" class="st2"/></g></g></svg>