<svg xmlns="http://www.w3.org/2000/svg" viewBox="0 0 240 65.91" width="240" height="65.91"><defs><style>.a4da1eb5-2c61-4625-b687-526b6c8e44dc{fill:#2997ff}.b3257e68-6342-447b-96fb-8f72e9fcfd0f{isolation:isolate}.e1300736-0095-4eef-961c-729d61c7a657{fill:#505050}</style></defs><g id="bf2c9bca-24a9-4fb2-a7be-717c3077f966"><g id="f1b181ee-99a7-4258-9e09-cf3471f55323"><path d="M234.4 3a2.61 2.61 0 0 1 2.6 2.6v54.77a2.8 2.8 0 0 1-2.6 2.54H5.6a2.6 2.6 0 0 1-2.6-2.6V5.6A2.61 2.61 0 0 1 5.6 3h228.8m0-3H5.6A5.62 5.62 0 0 0 0 5.6v54.71a5.62 5.62 0 0 0 5.6 5.6h228.8a5.78 5.78 0 0 0 5.6-5.46V5.6a5.62 5.62 0 0 0-5.6-5.6z" class="a4da1eb5-2c61-4625-b687-526b6c8e44dc"/><g class="b3257e68-6342-447b-96fb-8f72e9fcfd0f"><path d="M89.72 10.71l-2.09 2.09a4.68 4.68 0 0 0-3.4-1.39c-1.53 0-2.55.71-2.55 1.87 0 1 .63 1.44 2.82 2.17 2.72.9 4.32 2.21 4.32 4.79 0 2.79-1.92 5.93-7.19 5.93a8.05 8.05 0 0 1-6.13-2.46l2.26-2.23a5.25 5.25 0 0 0 4 1.65c1.84 0 3-.85 3-2.29 0-1.09-.65-1.67-2.65-2.38-3.18-1.07-4.47-2.48-4.47-4.71 0-2.56 2-5.25 6.54-5.25a7.44 7.44 0 0 1 5.54 2.21zm.78 11.35l1.31-9.21h3.77l-1.19 8.6c-.2 1.29.17 1.68.85 1.68.9 0 1.77-1 2.48-2l1.14-8.24h3.77l-1.8 12.9h-3.26l.07-1.92a5.19 5.19 0 0 1-4.08 2.34c-2.38-.04-3.4-1.65-3.06-4.15zm26.2-4.6c0 3.72-1.56 8.71-7.54 8.71a14.12 14.12 0 0 1-5.29-1.07l2.43-17.38 3.81-.42-.92 6.64a5.15 5.15 0 0 1 3.55-1.51c2.57 0 3.96 1.83 3.96 5.03zm-7.9-.72l-.87 6.32a4.29 4.29 0 0 0 1.62.31c2.41 0 3.26-3.4 3.26-5.83 0-1.8-.68-2.29-1.53-2.29a3.22 3.22 0 0 0-2.48 1.49zm27.78-.37l-1.31 9.38h-3.77l1.22-8.53c.19-1.36-.2-1.65-.71-1.65-.87 0-1.75 1.21-2.53 2.94l-1 7.24h-3.77l1.22-8.53c.19-1.36-.22-1.65-.73-1.65-.85 0-1.77 1.24-2.5 3l-1 7.14h-3.77l1.8-12.9H123l-.08 2.19a4.92 4.92 0 0 1 4-2.53 2.66 2.66 0 0 1 2.82 2.41 5.1 5.1 0 0 1 4-2.41c2.04-.04 3.18 1.45 2.84 3.9zm5.3 9.38h-3.77l1.8-12.9h3.77zm-1.71-17.28a2.41 2.41 0 0 1 2.51-2.4 1.88 1.88 0 0 1 2 1.92 2.43 2.43 0 0 1-2.51 2.43 1.9 1.9 0 0 1-2-1.95zm9.36 13.01c-.17 1.24.15 1.65.88 1.65a3.47 3.47 0 0 0 1.46-.41l1 2.5a7.33 7.33 0 0 1-3.52 1c-2.68 0-4-1.68-3.6-4.69l.85-6h-1.77l.36-2.67h1.95l.8-2.87 3.25-.37-.46 3.24h3l-.8 2.67h-2.53zm22.68-7.69L171 22.06c-.1.85-.08 1.29.63 1.56l-1.1 2.47a3.08 3.08 0 0 1-3-2.13 4.57 4.57 0 0 1-3.84 2.21c-2.72 0-4.18-2-4.18-5.13 0-3.7 2-8.61 7.39-8.61a11 11 0 0 1 5.31 1.36zM163.46 21c0 1.83.6 2.34 1.46 2.34s1.72-.68 2.45-1.8l.9-6.15a4 4 0 0 0-1.43-.24c-2.51.01-3.38 3.36-3.38 5.85zm29.48-7.4c0 3.09-1.95 6.54-7.42 6.54h-1.84l-.78 5.61H179l2.35-16.84h5.35c3.9 0 6.24 1.55 6.24 4.69zm-4.06.19c0-1.43-.88-2-2.58-2h-1.43l-.78 5.52h1.43c2.73-.04 3.36-2.01 3.36-3.52zm19.03 1.51c0 5.47-2.33 10.45-9.53 10.45h-5l2.36-16.84h4.57c3.98 0 7.6 1.19 7.6 6.39zm-8.68-3.5l-1.55 11.09H199c4 0 4.94-4.31 4.94-7.59 0-2.89-1.44-3.5-3.38-3.5zm21.17-.05h-5.57l-.63 4.48h4.86l-.39 2.84h-4.86l-.95 6.68H209l2.36-16.84h9.89z" class="e1300736-0095-4eef-961c-729d61c7a657"/></g><g class="b3257e68-6342-447b-96fb-8f72e9fcfd0f"><path d="M82.65 41l-.12 1h3l-.78 2.67h-2.6l-1.25 8.78c-.58 4.21-2.89 5.69-6 6.81l-1-2.77a4.2 4.2 0 0 0 3.16-3.89l1.26-9h-1.87l.37-2.6h1.92l.17-1.2c.31-2.47 2.16-4.35 5.3-4.35a6.37 6.37 0 0 1 3.59 1.07l-1.33 2.29a3.61 3.61 0 0 0-2-.51c-1.07-.04-1.65.47-1.82 1.7zm2.09 8.78c0-3.6 1.75-8.24 7.19-8.24 3.43 0 5.42 2.12 5.4 5.5 0 3.54-1.77 8.24-7.19 8.24-3.43 0-5.4-2.07-5.4-5.5zm8.73-3c0-1.7-.61-2.43-1.8-2.43-2.56 0-3.07 3.7-3.07 5.67 0 1.7.59 2.43 1.8 2.43 2.53.01 3.04-3.69 3.07-5.66zm15.09-4.99l-1.1 3.69a4 4 0 0 0-1.07-.17c-1.6 0-2.48 1.53-3.18 3.57l-.85 6h-3.77l1.8-12.9h3.28v2.4c.9-1.82 2.24-2.77 3.65-2.77a4 4 0 0 1 1.24.18zm16.6-.93h-5.57l-.59 4.47h4.86l-.39 2.85h-4.86l-.95 6.68h-3.91L116.07 38H126zm3.13 9.31a2.1 2.1 0 0 0 2.31 2.29 5.7 5.7 0 0 0 3.28-1.2l1.36 2.29a8.67 8.67 0 0 1-5.13 1.73c-3.76 0-5.61-2.19-5.61-5.47 0-3.5 1.89-8.27 7.32-8.27 3.13 0 4.76 1.58 4.76 3.53 0 3.62-4.23 4.69-8.29 5.1zm4.47-4.93a1.1 1.1 0 0 0-1.24-1.15c-1.84 0-2.72 1.9-3.06 3.75 3.23-.22 4.3-1.39 4.3-2.6zm8.29 4.93c.1 1.73 1 2.29 2.31 2.29a5.7 5.7 0 0 0 3.28-1.2l1.36 2.29a8.67 8.67 0 0 1-5.13 1.73c-3.77 0-5.61-2.19-5.61-5.47 0-3.5 1.89-8.27 7.31-8.27 3.14 0 4.77 1.58 4.77 3.53 0 3.62-4.23 4.69-8.29 5.1zm4.47-4.93a1.1 1.1 0 0 0-1.24-1.15c-1.84 0-2.72 1.9-3.06 3.75 3.23-.22 4.3-1.39 4.3-2.6zm18.23-8.41l-2.53 18h-3.35v-1.85a4.59 4.59 0 0 1-3.84 2.27c-2.7 0-4.06-2-4.06-5.21 0-3.52 1.78-8.53 6.18-8.53a3.85 3.85 0 0 1 3 1.24l.88-6.34zm-9.84 13.27c0 1.82.58 2.36 1.41 2.36 1.09 0 2-1.1 2.79-2.39l.68-4.81a2.13 2.13 0 0 0-1.8-.92c-2.4 0-3.08 3.66-3.08 5.76zm23.18-3.53c0 3.72-1.55 8.71-7.53 8.71a14.13 14.13 0 0 1-5.3-1.07l2.43-17.38 3.82-.42-.93 6.64a5.15 5.15 0 0 1 3.55-1.51c2.58 0 3.96 1.83 3.96 5.03zm-7.9-.73l-.87 6.32a4.12 4.12 0 0 0 1.63.32c2.4 0 3.25-3.4 3.25-5.83 0-1.8-.68-2.29-1.53-2.29a3.23 3.23 0 0 0-2.48 1.48zM191 42.9l-1.19 8.27c-.1.85-.08 1.29.63 1.55l-1.09 2.48a3.07 3.07 0 0 1-3-2.14 4.58 4.58 0 0 1-3.84 2.22c-2.73 0-4.19-2-4.19-5.13 0-3.7 2-8.61 7.39-8.61A11 11 0 0 1 191 42.9zm-8.75 7.22c0 1.83.61 2.34 1.46 2.34s1.72-.68 2.45-1.8l.9-6.15a4 4 0 0 0-1.43-.25c-2.49 0-3.36 3.36-3.36 5.86zm21.38-6.93l-1.87 2.19a3.12 3.12 0 0 0-2.24-.9c-2.62 0-3.28 3.19-3.28 5.38 0 1.82.8 2.38 2 2.38a4.62 4.62 0 0 0 2.55-.9l1.41 2.45a7.25 7.25 0 0 1-4.45 1.49c-3.47 0-5.49-2.17-5.49-5.57s2-8.17 7.22-8.17a5.6 5.6 0 0 1 4.15 1.65zm5.37.44a5.49 5.49 0 0 1 4.28-2.09c2.14 0 3.48 1.27 3.48 3.09 0 2-1.15 3.55-3.53 4.5l2.41 5.73h-4.13l-2.36-6.22c2.84-.92 3.74-2 3.74-3.35a1 1 0 0 0-1.09-1.07c-1 0-2.19.77-3.26 2.65l-1.09 8h-3.79l2.52-18 3.84-.42z" class="e1300736-0095-4eef-961c-729d61c7a657"/></g><path d="M47.86 20.85v15a17.18 17.18 0 0 1 3.78.27V20.85a6.57 6.57 0 0 0-6.58-6.58H34v.84a20.68 20.68 0 0 1-.14 2.94h11.06a2.84 2.84 0 0 1 2.94 2.8zM16.93 43.8a1.26 1.26 0 0 1 .7-.14V20.85a2.81 2.81 0 0 1 2.8-2.8h5.32a17.69 17.69 0 0 1-.14-3.78h-5.18a6.57 6.57 0 0 0-6.58 6.58v24.91a29.51 29.51 0 0 1 3.08-1.96zm30.93 1.82a2.81 2.81 0 0 1-2.8 2.8H22.81a44.26 44.26 0 0 1-2.52 3.78h24.77a6.63 6.63 0 0 0 6.58-6.44c-1.12-.14-2.38-.42-3.78-.7z" class="a4da1eb5-2c61-4625-b687-526b6c8e44dc"/><path d="M55.7 39.46c-1.68-1.68-6.58-2.24-13.3-1.4a42.3 42.3 0 0 1-4.06-2.65c-1.68-1.4-4.75-4.62-7-11.34a69.72 69.72 0 0 0 .7-9v-1.4l.14-.84a3.74 3.74 0 0 0-.28-2.93 2.08 2.08 0 0 0-1.54-.56h-1q-1.26 0-1.68 1.68c-.84 2.93-.42 8 1 12.73 0 .14.14.42.14.56a73.75 73.75 0 0 1-4.9 12.31c-3.36 6.86-6.16 11.62-8.54 14.56-1.68 2-3.08 3.22-4.19 3.5A8.71 8.71 0 0 1 13 51.5a30.22 30.22 0 0 1 5.18-5.18l-.56-1C11.9 48.42 9.38 51.92 9 54a2 2 0 0 0 .14 1.4l.14.14h.14l1.12.56a3.29 3.29 0 0 0 1.12.28c2.65 0 6.43-4.06 11.05-12.18a79.8 79.8 0 0 1 18.15-3.9h.42c4.06 2.1 8.54 3.36 11.34 3.36a6.21 6.21 0 0 0 1.82-.28c.14 0 .14 0 .28-.14l.7-.56a1.06 1.06 0 0 0 .28-.56l.14-.42a1.46 1.46 0 0 0-.14-2.24zM30.09 11.34a1.06 1.06 0 0 1 .28-.56 2.65 2.65 0 0 1 1 2.09l.14.7h-.14c-.14.56-.14 1.26-.28 2-.14 1-.28 2.24-.56 3.64-.86-3.4-1-6.34-.44-7.87zm-6.16 31.48c.84-1.4 1.54-2.94 2.38-4.48a56.11 56.11 0 0 0 4.06-9.79 23 23 0 0 0 6.15 8.67 15.85 15.85 0 0 0 1.82 1.4 71.34 71.34 0 0 0-14.41 4.2zm31.21-1.12c-1.26.56-4.62-.14-8.26-1.68 3.92-.14 6.86.28 8 1a1.41 1.41 0 0 1 .26.68z" class="a4da1eb5-2c61-4625-b687-526b6c8e44dc"/></g></g></svg>