<svg xmlns="http://www.w3.org/2000/svg" id="Layer_1" viewBox="0 0 300 61.5" width="300" height="61.5"><style>.st0{fill:none;stroke:#2997ff;stroke-width:3.9788;stroke-miterlimit:10}.st1{fill:#505050}.st2{fill:#2997ff}</style><g id="bc841aa8-87ff-4956-9235-2005a87c5ee6"><g id="a1acd6d8-3951-41aa-9f7a-324ca1f4d39d"><path d="M292 59.9H8c-4.4 0-8-3.6-8-8V9.5c0-4.4 3.6-7.9 8-7.9h284c4.4 0 8 3.6 8 8v42.6c-.2 4.2-3.7 7.5-8 7.7z" class="st0"/><path d="M99.6 30c0 6.9-3 13.2-11.9 13.2h-6.4l3-21.2H90c5 0 9.6 1.5 9.6 8zm-11-4.4l-2 13.9h1.6c5 0 6.2-5.4 6.2-9.6 0-3.6-1.8-4.4-4.2-4.4l-1.6.1zm12.3 11.2c0-4.5 2.2-10.4 9-10.4 3.5-.3 6.5 2.3 6.8 5.7v1.2c0 4.5-2.2 10.3-9 10.3-3.4.3-6.5-2.2-6.8-5.7v-1.1zm11-3.8c0-2.1-.8-3.1-2.2-3.1-3.2 0-3.8 4.6-3.8 7.1 0 2.1.8 3.1 2.2 3.1 3.1.1 3.8-4.6 3.8-7.1zm23.7 10.2H130l-.5-11.9-3.8 11.9H120L118.9 27h4.8v12.6L128 27h4.5l.4 12.6 3.7-12.6h4.7l-5.7 16.2zm20.7-11.8l-1.6 11.7H150l1.5-10.7c.3-1.7-.2-2-.9-2-1.2 0-2.4 1.6-3.6 4l-1.3 8.9H141l2.3-16.4h4.1v2.8c1.2-1.9 3.3-3.2 5.5-3.4 2.5.1 3.9 2 3.4 5.1zm7.2 7.4c0 .8.1 1.1.6 1.1.3 0 .5-.1.8-.2l.6 3.4c-1 .4-2 .6-3.1.6-2.7 0-4.2-1.7-3.7-4.8l2.6-18.4 4.7-.5-2.5 18.8zm3.6-2c0-4.5 2.2-10.3 9-10.3 3.4-.3 6.5 2.3 6.8 5.8v1.2c0 4.5-2.2 10.3-9 10.3-3.5.3-6.5-2.3-6.8-5.7v-1.3zm11-3.8c0-2.1-.8-3.1-2.2-3.1-3.2 0-3.9 4.6-3.9 7.1 0 2.1.8 3.1 2.2 3.1 3.2.1 3.8-4.6 3.9-7.1zm22.4-4.9L199 38.5c-.1 1.1 0 1.7.8 2l-1.4 3.1c-1.7 0-3.2-1.1-3.8-2.7-1 1.7-2.9 2.8-4.8 2.8-3.4 0-5.2-2.5-5.2-6.5 0-4.6 2.4-10.8 9.3-10.8 2.2 0 4.5.6 6.6 1.7zm-11 9.1c0 2.3.8 3 1.8 3 1.1 0 2.2-.9 3.1-2.2l1.1-7.7c-.6-.2-1.2-.3-1.8-.3-3.1-.2-4.2 4-4.2 7.2zm29.8-16.7l-3.2 22.7h-4.2v-2.3c-1 1.7-2.8 2.8-4.8 2.8-3.4 0-5.1-2.5-5.1-6.6 0-4.4 2.2-10.7 7.8-10.7 1.4 0 2.8.5 3.8 1.5l1.1-8 4.6.6zm-12.4 16.7c0 2.3.8 3 1.8 3 1.4 0 2.5-1.4 3.5-3l.9-6c-.5-.8-1.3-1.2-2.2-1.2-3.1 0-4 4.5-4 7.2zm37.6-9.3c0 3.9-2.4 8.2-9.3 8.2h-2.4l-1 7h-4.9l3-21.2h6.7c4.9.1 7.9 2.1 7.9 6zm-5.1.2c0-1.8-1.1-2.6-3.2-2.6h-1.8l-1 6.9h1.8c2.2.1 4.1-1.5 4.2-3.7v-.6zm23.9 1.9c0 6.9-2.9 13.2-11.9 13.2H245l3-21.2h5.7c5.1 0 9.6 1.5 9.6 8zm-10.9-4.4l-2 13.9h1.7c5 0 6.2-5.4 6.2-9.6 0-3.6-1.8-4.4-4.3-4.4l-1.6.1zm26.6 0h-7l-.8 5.6h6.1l-.5 3.6h-6.1l-1.2 8.4h-5l3-21.2H280l-1 3.6z" class="st1"/><path d="M53.5 27c-.4-8.2-7.5-14.6-15.7-14.1-7.7.4-13.8 6.5-14.1 14.1-5.2.9-9 5.5-9 10.7 0 6 4.9 10.9 11 11h25.9c6 0 10.9-4.9 10.9-11 0-5.2-3.8-9.7-9-10.7zM38.6 40.8l-7.9-7.9h6V25h4v7.9h6l-8.1 7.9z" class="st2"/></g></g></svg>