<svg xmlns="http://www.w3.org/2000/svg" id="Layer_1" viewBox="0 0 300 84.9" width="300" height="84.9"><style>.st0{fill:none;stroke:#2997ff;stroke-width:3.4981;stroke-miterlimit:10}.st1{fill:#505050}.st2{fill:#2997ff}</style><g id="a434a036-c349-4424-be62-038611b3319b"><g id="a7236459-1f0f-4786-bd3f-637c9e3107b7"><path d="M293 83.7H7c-3.9 0-7-3.1-7-7V8.3c0-3.9 3.1-7 7-7h286c3.9 0 7 3.1 7 7v68.6c-.3 3.7-3.3 6.6-7 6.8z" class="st0"/><path d="M112.1 14.6l-2.6 2.6c-1.1-1.1-2.7-1.8-4.2-1.8-1.9 0-3.2.9-3.2 2.4 0 1.2.8 1.8 3.5 2.7 3.4 1.1 5.4 2.8 5.4 6 0 3.5-2.4 7.4-9 7.4-2.8.1-5.5-1-7.5-3l2.8-2.8c1.3 1.3 3.1 2.1 4.9 2.1 2.3 0 3.7-1 3.7-2.8 0-1.4-.8-2.1-3.3-3-4-1.3-5.6-3.1-5.6-5.9 0-3.2 2.5-6.6 8.2-6.6 2.6 0 5.1.9 6.9 2.7zm1 14.2l1.6-11.5h4.7L118 28.1c-.3 1.6.2 2.1 1 2.1s2.2-1.2 3.1-2.5l1.4-10.3h4.7L126 33.5h-4.1v-2.4c-1.1 1.7-3 2.8-5.1 2.9-2.8 0-4.1-2-3.7-5.2zm32.8-5.7c0 4.6-1.9 10.9-9.4 10.9-2.3 0-4.5-.4-6.6-1.3L133 11l4.8-.5-1.3 8.3c1.2-1.2 2.8-1.8 4.4-1.9 3.2-.1 5 2.2 5 6.2zm-9.9-.9l-1.1 7.9c.6.3 1.3.4 2 .4 3 0 4.1-4.2 4.1-7.3 0-2.2-.9-2.8-1.9-2.8-1.3.1-2.4.8-3.1 1.8zm34.7-.5l-1.6 11.7h-4.6l1.5-10.6c.3-1.8-.3-2.1-.9-2.1-1.1 0-2.2 1.5-3.1 3.7l-1.3 9h-4.8l1.6-10.6c.3-1.8-.3-2.1-.9-2.1-1 0-2.2 1.5-3.1 3.8l-1.2 8.9h-4.9l2.2-16.1h4.1V20c1-1.8 2.9-3 5-3.1 1.8-.1 3.3 1.2 3.5 3 1-1.7 2.9-2.8 4.9-3 2.6-.1 4 1.9 3.6 4.8zm6.6 11.8h-4.7l2.3-16.1h4.7l-2.3 16.1zm-2.1-21.6c0-1.6 1.3-3 3-3h.2c1.3-.1 2.4.9 2.5 2.2v.2c0 1.7-1.3 3-3 3h-.1c-1.3.1-2.5-.8-2.6-2.1v-.3zm11.7 16.2c-.2 1.5.2 2.1 1.1 2.1.6 0 1.2-.2 1.8-.5l1.2 3.1c-1.3.7-2.8 1.2-4.4 1.2-3.3 0-5-2.1-4.5-5.8l1-7.5h-2.2l.4-3.3h2.4l1-3.5 4.1-.5-.6 4h3.7l-1 3.3h-3.1l-.9 7.4zm28.3-9.6l-1.5 10.3c-.1 1 0 1.6.8 1.9l-1.3 3.1c-1.7 0-3.2-1-3.7-2.7-1 1.7-2.8 2.7-4.8 2.8-3.4 0-5.2-2.5-5.2-6.4 0-4.6 2.4-10.7 9.2-10.7 2.2 0 4.5.6 6.5 1.7zm-10.9 9c0 2.3.8 2.9 1.8 2.9s2.2-.9 3.1-2.2l1.1-7.7c-.6-.2-1.2-.3-1.8-.3-3.1 0-4.2 4.2-4.2 7.3zm36.8-9.2c0 3.9-2.4 8.2-9.3 8.2h-2.3l-1 7h-4.9l2.9-21h6.7c5-.1 7.9 1.8 7.9 5.8zm-5 .2c0-1.8-1.1-2.5-3.2-2.5h-1.8l-1 6.9h1.8c2.1.2 4-1.4 4.2-3.5v-.9zm23.7 1.9c0 6.8-2.9 13-11.9 13h-6.3l3-21h5.7c5 0 9.5 1.5 9.5 8zM249 16l-1.9 13.8h1.6c4.9 0 6.2-5.4 6.2-9.5 0-3.6-1.8-4.4-4.2-4.4l-1.7.1zm26.4-.1h-7l-.8 5.6h6.1l-.5 3.5h-6.1l-1.2 8.4H261l3-21h12.3l-.9 3.5zM103.3 52.6l-.1 1.1h3.7l-1 3.3h-3.3l-1.5 11c-.7 5.2-3.6 7.1-7.5 8.5L92.4 73c2.2-.6 3.9-2.5 3.9-4.9L97.9 57h-2.4l.4-3.3h2.4l.2-1.5c.4-3.3 3.3-5.7 6.6-5.4 1.6 0 3.1.4 4.5 1.3L108 51c-.7-.4-1.6-.6-2.4-.6-1.4 0-2.1.6-2.3 2.2zm2.6 11c0-4.5 2.2-10.3 9-10.3 3.4-.3 6.4 2.2 6.7 5.7v1.2c0 4.4-2.2 10.3-9 10.3-3.4.3-6.4-2.2-6.7-5.7-.1-.5-.1-.9 0-1.2zm10.9-3.8c0-2.1-.8-3-2.2-3-3.2 0-3.8 4.6-3.8 7 0 2.1.7 3 2.2 3 3.1.1 3.8-4.5 3.8-7zm18.9-6.3l-1.3 4.6c-.4-.1-.9-.2-1.3-.2-2 0-3.1 1.9-4 4.5l-1 7.5h-4.7l2.2-16.2h4.1v3c.7-1.9 2.5-3.3 4.5-3.5.4.1 1 .2 1.5.3zm20.7-1.1h-7l-.7 5.6h6.1l-.5 3.5h-6.1l-1.2 8.4h-4.9l3-21h12.3l-1 3.5zm3.9 11.6c-.1 1.4.9 2.7 2.4 2.9h.5c1.5-.1 2.9-.6 4.1-1.5l1.8 2.9c-1.8 1.4-4.1 2.1-6.4 2.1-4.7 0-7-2.7-7-6.8 0-4.4 2.4-10.3 9.1-10.3 3.9 0 6 2 6 4.4-.1 4.5-5.4 5.8-10.5 6.3zm5.6-6.1c0-.7-.6-1.4-1.3-1.5h-.2c-2.3 0-3.4 2.4-3.8 4.7 4-.2 5.3-1.7 5.3-3.2zm10.4 6.1c-.1 1.4.9 2.7 2.4 2.9h.5c1.5-.1 2.9-.6 4.1-1.5l1.8 2.9c-1.8 1.4-4.1 2.1-6.4 2.1-4.7 0-7-2.7-7-6.8 0-4.4 2.4-10.3 9.1-10.3 3.9 0 6 2 6 4.4-.1 4.5-5.4 5.8-10.5 6.3zm5.6-6.1c0-.7-.6-1.4-1.3-1.5h-.2c-2.3 0-3.4 2.4-3.8 4.7 3.9-.2 5.3-1.7 5.3-3.2zm22.7-10.5l-3.1 22.5h-4.2v-2.3c-1 1.7-2.8 2.8-4.8 2.8-3.4 0-5.1-2.5-5.1-6.5 0-4.4 2.2-10.6 7.7-10.6 1.4 0 2.7.5 3.7 1.5l1.1-7.9 4.7.5zm-12.2 16.5c0 2.3.7 3 1.8 3 1.4 0 2.5-1.4 3.5-3l.9-6c-.5-.7-1.3-1.2-2.2-1.1-3.2 0-4 4.5-4 7.1zm28.9-4.4c0 4.6-1.9 10.9-9.4 10.9-2.2 0-4.5-.5-6.6-1.3l3-21.7 4.8-.5-1.2 8.3c1.2-1.2 2.8-1.8 4.4-1.9 3.3-.1 5 2.2 5 6.2zm-9.8-.9l-1.1 7.9c.6.3 1.3.4 2 .4 3 0 4.1-4.2 4.1-7.3 0-2.2-.9-2.8-1.9-2.8-1.3.1-2.5.8-3.1 1.8zm27.2-3.6l-1.5 10.3c-.1 1 0 1.6.8 1.9l-1.4 3.1c-1.7 0-3.2-1-3.7-2.6-1 1.7-2.8 2.7-4.8 2.8-3.4 0-5.2-2.5-5.2-6.4 0-4.6 2.4-10.7 9.2-10.7 2.4-.1 4.6.4 6.6 1.6zm-10.9 9c0 2.3.8 2.9 1.8 2.9s2.1-.9 3.1-2.2l1.1-7.7c-.6-.2-1.2-.3-1.8-.3-3.1 0-4.2 4.2-4.2 7.3zm26.7-8.7l-2.4 2.7c-.7-.7-1.8-1.2-2.8-1.1-3.3 0-4.1 4-4.1 6.7 0 2.3 1 3 2.5 3 1.2 0 2.2-.4 3.2-1.1l1.8 3.1c-1.6 1.2-3.6 1.9-5.5 1.8-3.5.3-6.6-2.4-6.9-5.8v-1.1c0-4.2 2.5-10.2 9-10.2 2-.1 3.8.6 5.2 2zm6.7.6c1.3-1.6 3.3-2.6 5.4-2.6 2.1-.3 4 1.2 4.3 3.4v.5c0 2.5-1.4 4.4-4.4 5.6l3 7.2h-5.2l-2.9-7.8c3.5-1.2 4.7-2.5 4.7-4.2.1-.7-.4-1.3-1-1.3h-.3c-1.2 0-2.7 1-4.1 3.3l-1.3 10h-4.7l3.1-22.5 4.8-.5-1.4 8.9z" class="st1"/><path d="M59.8 27.3V46c1.6 0 3.2.1 4.8.3v-19c0-4.5-3.7-8.1-8.2-8.1H42.6v1c0 1.2 0 2.5-.1 3.7h13.9c1.9 0 3.4 1.5 3.4 3.4zM21.1 56l.9-.3V27.3c0-1.9 1.5-3.4 3.4-3.5h6.7c-.2-1.6-.3-3.1-.3-4.7h-6.4c-4.5 0-8.1 3.6-8.1 8.1v31.2c1.2-.9 2.5-1.7 3.8-2.4zm38.7 2.3c0 1.9-1.6 3.5-3.5 3.5H28.6c-1.1 1.8-2.2 3.3-3.2 4.7h31c4.5 0 8.1-3.6 8.1-8-1.6-.1-3.2-.5-4.7-.9v.7z" class="st2"/><path d="M69.7 50.5c-2.1-2.1-8.2-2.7-16.6-1.8-1.8-1-3.4-2.1-5-3.4-2.1-1.8-5.9-5.8-8.7-14.1.6-3.7.9-7.5.9-11.3v-1.8l.2-1c.4-1.2.3-2.6-.4-3.7-.4-.5-1.2-.8-1.8-.7h-1.2c-1 0-1.8.8-2.2 2.1-1 3.6-.5 9.9 1.2 16 .1.3.1.5.2.7-1.6 5.3-3.6 10.5-6.1 15.4-3 6.4-6.6 12.5-10.7 18.2-1.3 1.9-3.1 3.4-5.2 4.4.5-1.5 1.3-2.9 2.3-4.1 1.9-2.4 4.1-4.6 6.5-6.4l-.7-1.2c-7.1 3.8-10.3 8.2-10.8 10.8-.1.6-.1 1.2.3 1.8v.1h.1l1.5.7c.4.2 1 .4 1.5.3 3.4 0 8-5 14-15.2 7.4-2.5 15-4.1 22.7-4.9h.5c4.4 2.4 9.2 3.9 14.2 4.3.8 0 1.5-.1 2.3-.3l.3-.1.9-.7c.2-.2.3-.5.3-.7l.2-.5c.3-.8.1-2-.7-2.9zM37.6 15.4c.1-.2.2-.4.3-.7.7.7 1.1 1.6 1.2 2.6l.1.9H39c-.1.7-.3 1.5-.4 2.4-.1 1-.4 2.7-.7 4.5-.9-3.2-1-6.5-.3-9.7zM30 54.7c1-1.8 2-3.6 3-5.6 2.1-3.9 3.8-8 5.1-12.3 1.7 4.2 4.3 7.9 7.6 10.9.7.6 1.5 1.2 2.3 1.8-6.1 1.1-12.2 2.8-18 5.2zm38.8-1.2c-1.6.6-5.7-.2-10.3-2.1 4.9-.1 8.5.3 9.9 1.3.5.4.5.7.4.8z" class="st2"/></g></g></svg>