<svg xmlns="http://www.w3.org/2000/svg" id="Layer_1" viewBox="0 0 800 226.4" width="800" height="226.4"><style>.st0{fill:none;stroke:#2997ff;stroke-width:9.3294;stroke-miterlimit:10}.st1{fill:#505050}.st2{fill:#2997ff}</style><g id="a628c07d-118a-46cc-873e-8f34b1c16a14"><g id="fa8151ea-8751-4649-a5ac-cf3583669348"><path d="M781.3 223.1H18.7C8.4 223.1 0 214.7 0 204.4V22C0 11.7 8.4 3.3 18.7 3.3h762.7c10.3 0 18.7 8.4 18.7 18.7v182.9c-.7 9.9-8.8 17.9-18.8 18.2z" class="st0"/><path d="M299.1 39l-7 7c-3-3-7.1-4.7-11.3-4.7-5.1 0-8.5 2.3-8.5 6.3 0 3.2 2.1 4.7 9.3 7.2 9 3 14.4 7.4 14.4 16 0 9.3-6.4 19.8-24 19.8-7.6.2-14.9-2.7-20.1-8.2l7.6-7.4c3.4 3.6 8.2 5.6 13.2 5.5 6.2 0 9.9-2.8 9.9-7.6 0-3.7-2.2-5.6-8.9-8-10.6-3.5-14.9-8.3-14.9-15.7 0-8.5 6.8-17.5 21.8-17.5 6.9-.2 13.6 2.4 18.5 7.3zm2.6 37.9l4.4-30.7h12.5l-4 28.7c-.7 4.3.6 5.6 2.8 5.6s5.9-3.3 8.3-6.8l3.8-27.5H342l-6 43h-10.9v-6.4c-3 4.6-8.1 7.5-13.6 7.8-7.5 0-11-5.4-9.8-13.7zM389 61.6c0 12.4-5.2 29-25.1 29-6.1 0-12.1-1.3-17.7-3.6l8.3-57.9 12.7-1.4-3.4 22.3c3.2-3.1 7.4-4.9 11.8-5 8.8-.2 13.4 5.9 13.4 16.6zm-26.3-2.3l-2.9 21.1c1.7.7 3.6 1 5.4 1 8 0 10.9-11.3 10.9-19.5 0-6-2.3-7.6-5.1-7.6-3.4.3-6.5 2.2-8.3 5zm92.5-1.4l-4.3 31.3h-12.4l4.1-28.4c.7-4.7-.7-5.5-2.3-5.5-2.9 0-5.8 4.1-8.4 9.8l-3.4 24.1h-12.7l4.2-28.4c.7-4.7-.7-5.5-2.4-5.5-2.8 0-5.9 4.1-8.3 10.1l-3.2 23.8H393l6-43h11l-.3 7c2.7-4.9 7.8-8.1 13.5-8.4 4.8-.3 8.9 3.3 9.3 8 2.9-4.7 7.9-7.7 13.4-8 6.6 0 10.5 5.2 9.3 13.1zm17.7 31.3h-12.5l6.1-43h12.6l-6.2 43zm-5.6-57.6c0-4.4 3.6-8 8-8h.5c3.5-.3 6.5 2.3 6.7 5.8v.6c0 4.5-3.6 8.1-8.1 8.1h-.2c-3.5.4-6.6-2.1-6.9-5.6v-.9zm31.1 43.3c-.6 4.1.5 5.5 2.9 5.5 1.6-.1 3.2-.6 4.7-1.4l3.3 8.3c-3.6 2-7.6 3.1-11.8 3.2-8.9 0-13.3-5.6-12-15.6l2.8-19.9h-5.9l1.2-8.9h6.5l2.7-9.3 10.9-1.4-1.5 10.8h9.9l-2.7 8.9H501l-2.6 19.8zM574 49.3l-4 27.5c-.3 2.8 0 4.3 2.1 5.2l-3.6 8.3c-4.5.1-8.6-2.8-9.9-7.1-2.7 4.5-7.5 7.3-12.8 7.4-9 0-14-6.7-14-17.1 0-12.3 6.5-28.6 24.6-28.6 6.2-.1 12.2 1.5 17.6 4.4zm-29.2 24c0 6.1 2.1 7.7 4.7 7.7 3.6-.5 6.7-2.7 8.2-6l3-20.5c-1.5-.6-3.1-.8-4.7-.8-8.2.2-11.2 11.4-11.2 19.6zm98.3-24.6c0 10.3-6.5 21.8-24.7 21.8h-6.2l-2.6 18.7h-13.1l7.8-56h17.8c13.2-.1 21 5 21 15.5zm-13.5.6c0-4.7-2.9-6.8-8.6-6.8h-4.7l-2.6 18.4h4.7c5.7.5 10.8-3.7 11.3-9.4.1-.7.1-1.4 0-2.2h-.1zm63.4 5.1c0 18.2-7.7 34.8-31.7 34.8h-16.8l7.9-56h15.2C681 33.1 693 37 693 54.4zm-28.9-11.7l-5.2 36.9h4.3c13.2 0 16.5-14.3 16.5-25.2 0-9.7-4.7-11.7-11.2-11.7h-4.4zm70.5-.2H716l-2.1 14.9h16.2l-1.3 9.3h-16.2L709.5 89h-13.1l7.9-56h32.9l-2.6 9.5zm-435.5 93.6l-7 7.2c-3-3-7.1-4.7-11.3-4.7-5.1 0-8.5 2.3-8.5 6.3 0 3.2 2.1 4.7 9.3 7.2 9 3 14.4 7.4 14.4 16 0 9.3-6.4 19.8-24 19.8-7.6.2-14.9-2.9-20.1-8.4l7.6-7.4c3.4 3.6 8.2 5.6 13.2 5.5 6.2 0 9.9-2.8 9.9-7.6 0-3.7-2.2-5.6-8.9-8-10.6-3.5-14.9-8.3-14.9-15.7 0-8.5 6.8-17.5 21.8-17.5 6.9-.3 13.6 2.3 18.5 7.3zm17 35.9c-.6 4.1.5 5.5 2.9 5.5 1.7-.1 3.4-.6 4.9-1.4l3.3 8.3c-3.6 2-7.6 3.1-11.8 3.2-8.9 0-13.3-5.6-12-15.6l2.8-19.9h-5.9l1.2-8.8h6.3l2.7-9.6 10.9-1.2-1.4 10.8h9.9l-2.7 8.9h-8.4l-2.7 19.8zm38.1 14.4c-4.4 10.8-15 17.9-26.6 17.8l-.3-9c8.4-1 11.9-3.4 15.1-9h-4.7l-6.5-42.9h13.2l2.8 34.8 12.9-34.8h13.1l-19 43.1zm31.1-11.8c0 2.1.4 2.8 1.7 2.8.7 0 1.4-.2 2.1-.4l1.5 8.9c-2.6 1.1-5.3 1.6-8.1 1.6-7.2 0-11-4.4-9.8-12.6l6.9-48.8 12.6-1.4-6.9 49.9zm22.1-4c-.4 3.8 2.4 7.2 6.2 7.6.5.1 1.1 0 1.6 0 4-.1 7.8-1.5 11-4l4.7 7.7c-4.9 3.7-10.9 5.7-17.1 5.7-12.5 0-18.7-7.3-18.7-18.2 0-11.7 6.3-27.5 24.4-27.5 10.4 0 15.9 5.3 15.9 11.8-.4 11.9-14.5 15.5-28 16.9zm14.9-16.4c.1-2-1.4-3.7-3.4-3.9h-.7c-6.2 0-9 6.3-10.2 12.5 10.7-.9 14.3-4.6 14.3-8.6zm76.8-13.9h-13.6l-6.4 45.9h-13l6.4-45.9h-14.3l1.4-10.2H502l-2.9 10.2zm12.5 45.9h-12.5l5.9-42.9h12.8l-6.2 42.9zm-5.7-57.6c0-4.4 3.6-8 8-8h.3c3.4-.3 6.4 2.3 6.7 5.8v.6c0 4.5-3.6 8.1-8 8.1h-.3c-3.5.2-6.5-2.4-6.7-5.9v-.6zm29.2 46c0 2.1.4 2.8 1.7 2.8.7 0 1.5-.2 2.1-.4l1.5 8.9c-2.6 1.1-5.3 1.6-8.1 1.6-7.2 0-11-4.4-9.8-12.6l6.9-48.8 12.6-1.4-6.9 49.9zm22.1-4c-.4 3.8 2.4 7.2 6.2 7.6h1.5c4-.1 7.8-1.5 10.9-4l4.7 7.7c-4.9 3.7-10.9 5.7-17.1 5.7-12.5 0-18.7-7.3-18.7-18.2 0-11.7 6.3-27.5 24.4-27.5 10.4 0 15.9 5.3 15.9 11.8-.1 11.9-14.2 15.5-27.8 16.9zm14.9-16.4c.1-2-1.4-3.7-3.4-3.8h-.7c-6.2 0-9.3 6.3-10.2 12.5 10.8-1 14.3-4.7 14.3-8.7z" class="st1"/><path d="M159.5 72.8v49.9c4.2-.2 8.4.1 12.6.9V72.8c0-12.1-9.7-21.9-21.8-21.9h-37v2.8c.1 3.3-.1 6.5-.5 9.8h36.9c5.1-.3 9.5 3.7 9.8 8.9v.4zM56.4 149.4c.7-.4 1.5-.5 2.3-.5v-76c0-5.2 4.2-9.3 9.3-9.3h17.7c-.6-4.2-.8-8.4-.5-12.6H68.1C56 51 46.2 60.7 46.2 72.8v83.1c3.3-2.4 6.7-4.6 10.2-6.5zm103.1 6c0 5.2-4.2 9.3-9.3 9.3H76c-2.6 4.3-5.4 8.5-8.4 12.6h82.6c11.9-.1 21.6-9.6 21.9-21.5-3.7-.5-7.9-1.4-12.6-2.3v1.9z" class="st2"/><path d="M185.7 134.9c-5.6-5.6-21.9-7.5-44.3-4.7-4.7-2.7-9.2-5.6-13.5-8.9-5.6-4.7-15.9-15.4-23.3-37.8 1.4-9.9 2.2-19.9 2.3-29.9v-4.7l.5-2.8c1-3.3.7-6.8-.9-9.8-1.4-1.3-3.2-2-5.1-1.9H98c-2.8 0-4.7 1.9-5.6 5.6-2.8 10-1.4 26.8 3.2 42.6 0 .5.5 1.4.5 1.9-4.2 14.1-9.7 27.9-16.3 41-7.8 17.1-17.3 33.4-28.5 48.5-5.6 6.5-10.3 10.7-14 11.7 1.2-4 3.3-7.6 6.1-10.7 5-6.4 10.8-12.2 17.3-17.3l-1.9-3.3c-19.1 10.3-27.5 21.9-28.9 28.9-.4 1.6-.2 3.2.5 4.7l.5.5h.5l3.7 1.9c1.2.5 2.4.8 3.7.9 8.9 0 21.5-13.5 36.9-40.6 19.6-6.7 40-11.1 60.6-13.1h1.4c11.7 6.4 24.5 10.2 37.8 11.2 2.1 0 4.1-.3 6.1-.9.5 0 .5 0 .9-.5l2.3-1.9c.5-.5.8-1.2.9-1.9l.5-1.4c2-1.7 2.2-4.6.5-6.6-.3-.2-.7-.5-1-.7zm-85.4-93.8c.1-.7.4-1.4.9-1.9 2.1 1.7 3.3 4.3 3.3 7l.5 2.3h-.5c-.5 1.9-.5 4.2-.9 6.5-.5 3.3-.9 7.5-1.9 12.1-2.7-8.3-3.2-17.3-1.4-26zm-20.5 105c2.8-4.7 5.1-9.8 7.9-14.9 5.5-10.4 10.1-21.4 13.5-32.7 4.5 11.1 11.5 21 20.5 28.9 1.9 1.7 3.9 3.3 6.1 4.7-16.5 2.9-32.6 7.6-48 14zm104-3.7c-4.2 1.9-15.4-.5-27.5-5.6 13.1-.5 22.9.9 26.6 3.3.5.6.8 1.4.9 2.3z" class="st2"/></g></g></svg>