<svg xmlns="http://www.w3.org/2000/svg" id="Layer_1" viewBox="0 0 300 43.9" width="300" height="43.9"><style>.st0{fill:none;stroke:#2997ff;stroke-width:2.831;stroke-miterlimit:10}.st1{fill:#505050}.st2,.st3{fill:none;stroke:#fff;stroke-width:7.0775;stroke-linecap:round;stroke-linejoin:round}.st3{stroke:#2997ff;stroke-width:4.0342}</style><g id="b2b9f4e7-f054-49c9-b001-772d8e3361dd"><g id="edb7c979-a941-4a65-bf97-429f149abb75"><path d="M294.3 42.7H5.7C2.6 42.7 0 40.2 0 37V6.9c0-3.1 2.6-5.7 5.7-5.7h288.7c3.1 0 5.7 2.6 5.7 5.7v30.3c-.3 3-2.7 5.4-5.8 5.5z" class="st0"/><path d="M69.6 17.4l-1.9 1.9c-.8-.8-1.9-1.2-3-1.2-1.4 0-2.3.6-2.3 1.7s.6 1.3 2.5 2c2.4.8 3.9 2 3.9 4.2s-1.7 5.3-6.4 5.3c-2.1.1-4-.7-5.5-2.2l2-2c.9.9 2.2 1.5 3.6 1.4 1.6 0 2.7-.8 2.7-2 0-1-.6-1.5-2.4-2.1-2.8-1-4-2.2-4-4.2 0-2.3 1.8-4.7 5.9-4.7 1.8-.3 3.6.5 4.9 1.9zm.7 10.1l1.2-8.3h3.4l-1.1 7.7c-.2 1.2.1 1.5.8 1.5.6 0 1.6-.9 2.2-1.8l1.1-7.4h3.4l-1.7 11.6h-2.9V29c-.8 1.2-2.2 2-3.6 2.1-2.2.1-3.1-1.4-2.8-3.6zm23.5-4.1c0 3.3-1.4 7.8-6.8 7.8-1.6 0-3.2-.3-4.7-.9l2.2-15.6 3.4-.4-.9 5.9c.9-.8 2-1.3 3.2-1.4 2.3.1 3.6 1.7 3.6 4.6zm-7.1-.7l-.8 5.7c.4.2.9.3 1.4.3 2.1 0 2.9-3 2.9-5.2 0-1.6-.6-2.1-1.4-2.1-.9.1-1.6.6-2.1 1.3zm24.8-.3l-1.1 8.4H107l1.1-7.6c.2-1.2-.2-1.4-.6-1.4-.8 0-1.6 1.1-2.2 2.6l-.9 6.5H101l1.1-7.6c.2-1.2-.2-1.4-.6-1.4-.8 0-1.6 1.1-2.2 2.7l-.9 6.4H95l1.6-11.6h2.9v1.9c.8-1.3 2.1-2.2 3.6-2.2 1.2 0 2.2.8 2.4 2 .8-1.2 2.1-2 3.5-2.1 1.8-.1 2.8 1.2 2.5 3.4zm4.8 8.4h-3.4l1.6-11.5h3.4l-1.6 11.5zm-1.5-15.4c0-1.2.9-2.2 2.1-2.2h.1c.9-.1 1.7.6 1.8 1.5v.2c0 1.2-1 2.2-2.2 2.2h-.1c-.9.1-1.7-.6-1.8-1.6v-.1zm8.4 11.6c-.2 1.1.1 1.4.8 1.4.5 0 .9-.2 1.3-.4l.9 2.2c-1 .6-2.1.8-3.2.9-2.4 0-3.6-1.5-3.2-4.2l.8-5.3H119l.3-2.4h1.7l.8-2.4 2.8-.3-.4 2.8h2.7l-.7 2.4H124l-.8 5.3zm15.2 3.9c-1.2 2.9-4 4.8-7.1 4.8l-.1-2.4c1.7 0 3.3-.9 4-2.4H134l-1.8-11.5h3.5l.8 9.3 3.5-9.3h3.5l-5.1 11.5zm4.6-4.6c0-3.2 1.6-7.4 6.5-7.4 2.5-.2 4.6 1.5 4.9 4v1c0 3.2-1.6 7.4-6.5 7.4-2.4.3-4.6-1.5-4.9-4-.1-.4-.1-.7 0-1zm7.8-2.7c0-1.5-.6-2.2-1.6-2.2-2.3 0-2.7 3.3-2.7 5.1 0 1.5.5 2.2 1.6 2.2 2.2 0 2.7-3.3 2.7-5.1zm4.9 3.9l1.2-8.3h3.4l-1 7.7c-.2 1.2.1 1.5.8 1.5.6 0 1.6-.9 2.2-1.8l1-7.4h3.4L165 30.8h-3V29c-.8 1.2-2.1 1.9-3.5 2.1-2.2.1-3.1-1.4-2.8-3.6zm20.9-8.4l-1 3.3c-.3-.1-.6-.2-.9-.2-1.4 0-2.2 1.4-2.8 3.2l-.8 5.4h-3.4l1.6-11.5h3v2.1c.5-1.4 1.8-2.4 3.3-2.5.2 0 .6.1 1 .2zm8.7 7.9c-.2 1.1.1 1.4.8 1.4.5 0 .9-.2 1.3-.4l.9 2.2c-1 .6-2.1.8-3.2.9-2.4 0-3.6-1.5-3.2-4.2l.8-5.3h-1.6l.3-2.4h1.7l.7-2.5 2.9-.3-.4 2.8h2.7l-.8 2.6H186l-.7 5.2zm10.2 3.9c-1.2 2.9-4 4.8-7.1 4.8l-.1-2.4c1.7 0 3.3-.9 4.1-2.4h-1.3l-1.8-11.5h3.5l.8 9.3 3.5-9.3h3.5l-5.1 11.5zm6.3-11.7h3v1.3c.8-1 2.1-1.6 3.4-1.7 2.4 0 3.6 1.6 3.6 4.5 0 3.3-1.5 7.8-6.1 7.8-.7 0-1.4-.1-2.1-.3l-.7 4.5-3.4.4 2.3-16.5zm6.5 4.3c0-1.6-.6-2.1-1.4-2.1-.9.1-1.7.6-2.2 1.3l-.8 5.7c.4.2.9.3 1.4.3 2.2 0 2.9-3.1 3-5.2zm8 3.1c.1 1.6.9 2.1 2.1 2.1 1 0 2.1-.4 3-1.1l1.2 2c-1.3 1-2.9 1.5-4.6 1.5-2.5.3-4.7-1.5-5-3.9v-.9c0-3.1 1.7-7.4 6.6-7.4 2.8 0 4.2 1.4 4.2 3.1-.1 3.3-3.9 4.2-7.5 4.6zm4-4.4c0-.6-.4-1-.9-1h-.2c-1.7 0-2.4 1.7-2.7 3.3 2.8-.2 3.8-1.2 3.8-2.3zm19.3-1.8l-1.7 2c-.5-.5-1.2-.8-2-.8-2.4 0-2.9 2.8-2.9 4.8 0 1.6.7 2.1 1.8 2.1.8 0 1.6-.3 2.3-.8l1.3 2.2c-1.2.9-2.6 1.3-4 1.3-2.5.2-4.7-1.7-4.9-4.2v-.8c0-3 1.8-7.3 6.5-7.3 1.3 0 2.6.5 3.6 1.5zm10.9 2l-1.2 8.4H246l1.1-7.6c.2-1.2-.2-1.4-.6-1.4-.9 0-1.8 1.1-2.6 2.8l-.9 6.3h-3.4l2.2-16.1 3.4-.3-.9 6.9c.7-1.3 2.1-2.2 3.7-2.3 1.8-.2 2.8 1.1 2.5 3.3zm1.5 3.9c0-3.2 1.6-7.4 6.5-7.4 2.5-.2 4.6 1.5 4.9 4v1c0 3.2-1.6 7.4-6.5 7.4-2.4.3-4.7-1.5-4.9-4-.1-.4-.1-.7 0-1zm7.8-2.7c0-1.5-.6-2.2-1.6-2.2-2.3 0-2.7 3.3-2.7 5.1 0 1.5.5 2.2 1.6 2.2 2.2 0 2.7-3.3 2.7-5.1zm8 7.2h-3.4l1.6-11.6h3.4l-1.6 11.6zm-1.5-15.4c0-1.2.9-2.2 2.1-2.2h.1c.9-.1 1.8.6 1.9 1.5v.2c0 1.2-1 2.2-2.2 2.2h-.1c-.9.1-1.8-.6-1.9-1.5v-.2zm14.4 5l-1.7 2c-.5-.5-1.3-.8-2-.8-2.4 0-2.9 2.8-2.9 4.8 0 1.6.7 2.1 1.8 2.1.8 0 1.6-.3 2.3-.8l1.3 2.2c-1.1.9-2.6 1.3-4 1.3-2.5.2-4.7-1.7-4.9-4.2v-.8c0-3 1.8-7.3 6.5-7.3 1.2 0 2.6.5 3.6 1.5zm3.1 6.2c.1 1.6.9 2.1 2.1 2.1 1.1 0 2.1-.4 3-1.1l1.2 2c-1.3 1-2.9 1.5-4.6 1.5-2.5.3-4.7-1.5-5-3.9v-1c0-3.1 1.7-7.4 6.5-7.4 2.8 0 4.2 1.4 4.2 3.1 0 3.4-3.8 4.4-7.4 4.7zm4-4.4c0-.5-.4-1-.9-1h-.2c-1.7 0-2.4 1.7-2.7 3.3 2.8-.2 3.8-1.2 3.8-2.3z" class="st1"/><path d="M17.4 10.2h14.8c3 0 5.5 2.5 5.5 5.5v14.8c0 3-2.5 5.5-5.5 5.5H17.4c-3 0-5.5-2.5-5.5-5.5V15.8c0-3.1 2.4-5.6 5.5-5.6z" class="st0"/><path d="M19.4 22.1l5.4 8.7 10.8-23" class="st2"/><path d="M19.4 22.1l5.4 8.7 10.8-23" class="st3"/></g></g></svg>