<svg xmlns="http://www.w3.org/2000/svg" viewBox="0 0 240 33.36" width="240" height="33.36"><defs><style>.ab78589e-9934-4ae6-b483-ceddcd9d612d{fill:#2997ff}.ad970107-85f9-49b1-bc56-ff9fffef183a{isolation:isolate}.a512863f-4d68-4b4f-aa04-35b992ad8a55{fill:#505050}</style></defs><g id="a0bd4ee2-d392-4349-94ee-673d0c5f46cd"><g id="eb361064-d1cc-4f1e-a433-027c05619c85"><path d="M235.45 3A1.57 1.57 0 0 1 237 4.55v24.28a1.72 1.72 0 0 1-1.55 1.53H4.55A1.57 1.57 0 0 1 3 28.8V4.55A1.57 1.57 0 0 1 4.55 3h230.9m0-3H4.55A4.57 4.57 0 0 0 0 4.55V28.8a4.57 4.57 0 0 0 4.55 4.56h230.9a4.7 4.7 0 0 0 4.55-4.44V4.55A4.57 4.57 0 0 0 235.45 0z" class="ab78589e-9934-4ae6-b483-ceddcd9d612d"/><g class="ad970107-85f9-49b1-bc56-ff9fffef183a"><path d="M55.19 12.15l-1.68 1.68a3.76 3.76 0 0 0-2.73-1.11c-1.24 0-2.06.56-2.06 1.5 0 .78.51 1.15 2.27 1.74 2.19.72 3.48 1.78 3.48 3.85 0 2.25-1.54 4.77-5.78 4.77a6.48 6.48 0 0 1-4.93-2l1.82-1.8a4.21 4.21 0 0 0 3.18 1.33c1.49 0 2.39-.69 2.39-1.84 0-.88-.53-1.35-2.13-1.92-2.56-.85-3.6-2-3.6-3.79 0-2.05 1.64-4.22 5.26-4.22a6 6 0 0 1 4.51 1.81zm.24 9.13l1-7.41h3l-.95 6.92c-.16 1 .13 1.35.68 1.35.72 0 1.43-.78 2-1.64l.92-6.63h3l-1.34 10.38h-2.62l.06-1.55a4.17 4.17 0 0 1-3.29 1.88c-1.89 0-2.73-1.29-2.46-3.3zm20.68-3.7c0 3-1.25 7-6.06 7a11.33 11.33 0 0 1-4.26-.86l2-14 3.06-.33-.74 5.34a4.16 4.16 0 0 1 2.85-1.21c2.04.02 3.15 1.48 3.15 4.06zM69.76 17l-.71 5.08a3.36 3.36 0 0 0 1.31.25c1.94 0 2.62-2.73 2.62-4.69 0-1.44-.54-1.84-1.23-1.84a2.57 2.57 0 0 0-1.99 1.2zm21.95-.3l-1.06 7.55h-3l1-6.86c.16-1.1-.15-1.33-.57-1.33-.7 0-1.4 1-2 2.36l-.82 5.83h-3l1-6.86c.16-1.1-.18-1.33-.59-1.33-.68 0-1.42 1-2 2.44l-.8 5.75h-3l1.44-10.38h2.64l-.06 1.7a4 4 0 0 1 3.25-2 2.14 2.14 0 0 1 2.27 1.93 4.07 4.07 0 0 1 3.22-1.93c1.43-.03 2.37 1.16 2.08 3.13zm3.87 7.55h-3L94 13.87h3zm-1.37-13.9a1.93 1.93 0 0 1 2-1.93A1.51 1.51 0 0 1 97.85 10a2 2 0 0 1-2 1.95 1.52 1.52 0 0 1-1.64-1.6zm7.14 10.46c-.14 1 .11 1.33.7 1.33a2.8 2.8 0 0 0 1.17-.33l.81 2a5.88 5.88 0 0 1-2.84.76c-2.15 0-3.22-1.35-2.89-3.77L99 16h-1.44l.29-2.15h1.56l.65-2.31 2.62-.29-.37 2.6h2.38l-.64 2.15h-2zm17.45-6.18l-1 6.65c-.08.68-.06 1 .5 1.25l-.88 2a2.47 2.47 0 0 1-2.4-1.72 3.66 3.66 0 0 1-3.02 1.77c-2.19 0-3.36-1.62-3.36-4.12 0-3 1.56-6.92 5.94-6.92a8.81 8.81 0 0 1 4.22 1.09zm-7 5.81c0 1.46.48 1.87 1.17 1.87s1.39-.54 2-1.44l.73-5a3.14 3.14 0 0 0-1.16-.19c-2.07.05-2.77 2.74-2.77 4.76zm24.93 3.81h-3.09l.49-5.34c.17-1.89.39-3.77.74-5.74l-3.38 9.65h-3l-.9-9.62a35.47 35.47 0 0 1-.68 5.83l-.94 5.22h-3.09l2.91-13.55h3.85l.73 9.41 3.16-9.41h4.11zm1.52-4.09c0-2.89 1.41-6.62 5.79-6.62a4 4 0 0 1 4.34 4.46c0 2.86-1.43 6.63-5.79 6.63-2.75-.05-4.34-1.71-4.34-4.47zm7-2.4c0-1.37-.49-2-1.44-2-2.06 0-2.47 3-2.47 4.56 0 1.37.47 1.95 1.45 1.95 2.05.04 2.46-2.93 2.48-4.51zm3.83 2.4c0-2.89 1.41-6.62 5.79-6.62a4 4 0 0 1 4.34 4.46c0 2.86-1.43 6.63-5.79 6.63-2.75-.05-4.34-1.71-4.34-4.47zm7-2.4c0-1.37-.49-2-1.45-2-2.05 0-2.46 3-2.46 4.56 0 1.37.47 1.95 1.45 1.95 2.05.04 2.46-2.93 2.48-4.51zm14.86-8.02l-2 14.51h-2.7v-1.49a3.69 3.69 0 0 1-3.09 1.82c-2.17 0-3.27-1.58-3.27-4.18 0-2.84 1.43-6.86 5-6.86a3.12 3.12 0 0 1 2.38 1l.71-5.1zM163 20.42c0 1.46.47 1.89 1.14 1.89.88 0 1.6-.88 2.24-1.91l.55-3.87a1.73 1.73 0 0 0-1.45-.75c-1.91 0-2.48 2.92-2.48 4.64zm22.7-.49c0 2.36-1.55 4.32-6.38 4.32H175l1.9-13.55h4c3.09 0 5.12.82 5.12 3.09 0 2-1.47 2.93-3 3.3 1.37.26 2.68.91 2.68 2.84zm-3.23-.24c0-1.05-.82-1.44-2.05-1.44H179l-.51 3.67h1.14c2.29 0 2.84-.92 2.84-2.23zm.28-5.57c0-.86-.67-1.15-1.84-1.15h-1.2l-.42 3.15h1.17c1.64 0 2.29-.86 2.29-2zm3.75 6.04c0-2.89 1.41-6.62 5.78-6.62a4 4 0 0 1 4.34 4.46c0 2.86-1.42 6.63-5.78 6.63-2.76-.05-4.34-1.71-4.34-4.47zm7-2.4c0-1.37-.49-2-1.45-2-2 0-2.46 3-2.46 4.56 0 1.37.47 1.95 1.44 1.95 2.06.04 2.47-2.93 2.49-4.51zm13.97-3.13l-1 6.65c-.07.68 0 1 .51 1.25l-.88 2a2.47 2.47 0 0 1-2.4-1.72 3.66 3.66 0 0 1-3.09 1.78c-2.19 0-3.36-1.62-3.36-4.12 0-3 1.56-6.92 5.94-6.92a8.81 8.81 0 0 1 4.28 1.08zm-7 5.81c0 1.46.48 1.87 1.17 1.87s1.39-.54 2-1.44l.73-5a3.18 3.18 0 0 0-1.16-.19c-2.07.05-2.77 2.74-2.77 4.76zm15.58-6.71l-.88 3a3.58 3.58 0 0 0-.86-.13c-1.29 0-2 1.23-2.56 2.87l-.68 4.81h-3l1.45-10.38h2.64v1.93a3.41 3.41 0 0 1 2.84-2.25 3.6 3.6 0 0 1 1.05.15zM226 9.74l-2 14.51h-2.7v-1.49a3.68 3.68 0 0 1-3.09 1.82c-2.17 0-3.26-1.58-3.26-4.18 0-2.84 1.43-6.86 5-6.86a3.14 3.14 0 0 1 2.39 1l.7-5.1zm-7.91 10.68c0 1.46.47 1.89 1.13 1.89.88 0 1.6-.88 2.25-1.91l.55-3.87a1.74 1.74 0 0 0-1.45-.75c-1.92 0-2.46 2.92-2.46 4.64z" class="a512863f-4d68-4b4f-aa04-35b992ad8a55"/></g><path d="M28 11.1V18a7.63 7.63 0 0 1 1.75.13V11.1a3 3 0 0 0-3-3h-5.16v.38a10.47 10.47 0 0 1-.06 1.37h5.12A1.31 1.31 0 0 1 28 11.1zM13.68 21.74a.57.57 0 0 1 .33-.07V11.1a1.29 1.29 0 0 1 1.29-1.29h2.47a8.22 8.22 0 0 1-.07-1.75h-2.4a3 3 0 0 0-3 3v11.58a13.52 13.52 0 0 1 1.38-.9zm14.32.84a1.3 1.3 0 0 1-1.29 1.3h-10.3a20.43 20.43 0 0 1-1.17 1.75h11.48a3.07 3.07 0 0 0 3-3c-.52-.06-1.1-.19-1.75-.32z" class="ab78589e-9934-4ae6-b483-ceddcd9d612d"/><path d="M31.64 19.73c-.77-.78-3-1-6.16-.65a21.7 21.7 0 0 1-1.88-1.23 11.28 11.28 0 0 1-3.24-5.26 33.12 33.12 0 0 0 .33-4.15V7.8l.06-.39a1.7 1.7 0 0 0-.13-1.36 1 1 0 0 0-.71-.26h-.46c-.39 0-.64.26-.77.77a12 12 0 0 0 .45 5.9c0 .07.06.2.06.26a33.12 33.12 0 0 1-2.27 5.71 37.21 37.21 0 0 1-4 6.74 4.82 4.82 0 0 1-2 1.62 4.15 4.15 0 0 1 .85-1.49 14.33 14.33 0 0 1 2.4-2.4l-.17-.45c-2.66 1.43-3.83 3.05-4 4a1 1 0 0 0 .06.65l.07.06h.06l.52.26a1.37 1.37 0 0 0 .52.13c1.23 0 3-1.88 5.12-5.64a36.87 36.87 0 0 1 8.43-1.81H25a13.1 13.1 0 0 0 5.26 1.55 2.69 2.69 0 0 0 .84-.13c.06 0 .06 0 .13-.06l.32-.26a.49.49 0 0 0 .13-.26l.07-.2a.67.67 0 0 0-.11-1.01zm-11.86-13a.49.49 0 0 1 .13-.26 1.24 1.24 0 0 1 .45 1l.07.32h-.07c-.06.26-.06.58-.13.91s-.13 1-.26 1.68a7.16 7.16 0 0 1-.19-3.69zm-2.86 14.55c.39-.65.72-1.36 1.11-2.07a26.74 26.74 0 0 0 1.88-4.54 10.63 10.63 0 0 0 2.85 4 7.93 7.93 0 0 0 .84.65 33.34 33.34 0 0 0-6.68 1.96zm14.46-.52c-.58.26-2.14-.06-3.82-.77a8 8 0 0 1 3.69.45.63.63 0 0 1 .13.32z" class="ab78589e-9934-4ae6-b483-ceddcd9d612d"/></g></g></svg>