<svg xmlns="http://www.w3.org/2000/svg" id="Layer_1" viewBox="0 0 800 326.6" width="800" height="326.6"><style>.st0{fill:#2997ff}.st1{fill:#505050}</style><path d="M744.5 30.4c13.8 0 25.1 11.2 25.1 25.1V271c0 13.8-11.2 25.1-25.1 25.1h-689c-13.8 0-25.1-11.2-25.1-25.1V55.5c0-13.8 11.2-25.1 25.1-25.1h689m0-30.4h-689C24.9 0 0 24.9 0 55.5V271c0 30.7 24.9 55.6 55.5 55.6h689.1c30.7 0 55.5-24.9 55.5-55.5V55.5C800 24.9 775.2 0 744.5 0z" class="st0"/><path d="M150.1 91.9l-5.8 6.7c-3.9-3.3-7.9-4.7-12.5-4.7-4.9 0-8.2 2.1-8.2 6.1s2.1 5.6 11.4 8.4c10.2 3.3 16.7 7.6 16.7 18.1 0 10.3-8.2 17.6-21.9 17.6-9.4 0-16.3-3.3-21-7.9l6.1-6.8c4.1 3.5 8.7 5.6 14.4 5.6 5.8 0 9.7-2.7 9.7-7.7 0-4.6-2.3-6.5-10.8-9.1-12.3-3.8-17.2-8.8-17.2-17.3 0-9.7 8.4-16 19.7-16 8.7-.1 14.5 2.5 19.4 7zm52.2 32.2c0 11.4-7.3 19.9-21.6 19.9s-21.6-8.2-21.6-19.9v-38h12v37.4c0 7.6 2.9 11.4 9.4 11.4 6.7 0 9.6-3.8 9.6-11.4V86.1h12v38h.2zm53 2.3c0 12.6-10.2 16.4-24.2 16.4h-17.6V86.1H229c14.7 0 23.9 3.9 23.9 14.4 0 7.1-5.2 10.9-10.3 12.2 6.2 1.4 12.7 4.4 12.7 13.7zm-29.7-31.6v14.3h5.9c5.8 0 9.1-2.4 9.1-7.4 0-5.2-3.5-6.8-10.5-6.8 0-.1-4.5-.1-4.5-.1zm17.1 31c0-6.2-4.4-8.5-10.5-8.5h-6.8v16.6h5.8c6.8-.1 11.5-1.4 11.5-8.1zm76 17h-11.8l-1.2-22.9c-.5-8.1-.8-16.6-.5-23.1l-9.6 40h-11.4L274 96.6c.5 7.9.5 15.5 0 23.4l-1.2 22.8h-11.7l4.4-56.7h15.3l9.3 39 8.8-39h15.5l4.3 56.7zm21.3 0h-12V86.1h12v56.7zm48.3-47.2H374v47.2h-12V95.6h-15v-9.4h42.7l-1.4 9.4zm74.9 18.8c0 18.5-9.6 29.6-25.1 29.6-15.5 0-25.2-10.8-25.2-29.6 0-18.5 9.7-29.6 25.2-29.6s25.1 10.6 25.1 29.6zm-37.7 0c0 14.7 4.7 20.7 12.5 20.7 8.1 0 12.5-5.8 12.5-20.7s-4.4-20.7-12.5-20.7c-8 .2-12.5 6-12.5 20.7zm89.5 28.4h-15.5l-17.9-45c.6 5 1.7 12.5 1.7 22.9v22h-10.9V86.1h15.2l18.4 45c-.6-3.8-1.7-11.7-1.7-20.2V86.1h10.9v56.7h-.2zm-344.6 72.5c0 16.7-13.5 21.4-32.1 21.4h-23.7v-73.5h20.8c19.7 0 31.9 5 31.9 18.8 0 9.3-6.7 14.3-13.5 15.8 8.3 1.5 16.6 5.6 16.6 17.5zm-38.3-39.8v17h6.5c7.3 0 11.1-2.7 11.1-9s-4.1-8.2-12.5-8.2H132v.2zm20.4 38.9c0-7.4-5.2-10.2-12.8-10.2h-7.6v19.9h6.4c8.1 0 14-1.7 14-9.7zm63.5-34.8l-2.6 16.3c-1.8-.5-3.3-.8-5.2-.8-6.8 0-9.7 5-11.7 13.4v28.4h-16.7v-56.4h14.6l1.5 10.9c2.6-7.9 8.1-12.5 14.6-12.5 1.8-.1 3.5.1 5.5.7zm24.5-19.5c0 5.5-4.1 9.6-10 9.6-5.8 0-9.9-4.1-9.9-9.6s4.1-9.6 9.9-9.6c5.9.1 10 4.3 10 9.6zm-1.6 76.6h-16.7v-56.4h16.7v56.4zm65.1-53c-3.9 1.5-9.1 2.3-16.3 2.3 7.1 3 10.6 7.3 10.6 14.6 0 10.9-9 18.8-23.7 18.8-2.3 0-4.4-.2-6.5-.6-1.2.6-1.8 2-1.8 3.2 0 1.7.8 3.3 6.2 3.3h8.5c13.2 0 21.6 6.8 21.6 16.4 0 11.5-10.2 18.7-29.5 18.7-21.3 0-26.9-7-26.9-18.1h15c0 4.9 2.1 7 12.3 7 9.9 0 12.2-2.7 12.2-6.4 0-3.3-2.4-5.5-8.1-5.5h-8.2c-12.3 0-17.3-5.2-17.3-11.1 0-4.1 2.6-8.2 6.7-10.8-7.3-3.8-10-8.8-10-16.1 0-12.8 10-20.7 24.8-20.7 12.5.3 19.7-3.3 26.6-7.3l3.8 12.3zm-38.6 15.2c0 6.2 3.3 9.6 8.5 9.6 5.5 0 8.5-3.3 8.5-9.7 0-6.2-2.9-9.1-8.5-9.1-5.2-.1-8.5 3.4-8.5 9.2zm93.6-3.4v41.2h-16.7v-38.3c0-5.9-2.1-7.6-5.3-7.6-3.6 0-6.8 2.6-9.7 7.3v38.6h-16.7V158l16.7-1.7v30.1c4.6-5.2 9.6-7.9 16.3-7.9 9.4 0 15.4 6.2 15.4 17zm47.7 38.6c-4.3 3-10.2 4.4-15.3 4.4-12.5-.2-18.5-7.1-18.5-20.4V192H365v-11.7h7.9v-12.2l16.7-2v14.1h12.9l-1.8 11.7h-11.1v25.8c0 5.5 1.8 7.3 5.3 7.3 2 0 3.8-.5 6.1-1.8l5.7 10.9zm55.1-63.3l-8.1 9.4c-5.2-4.1-10.2-6.2-16.1-6.2-6.1 0-9.9 2.6-9.9 7.3s2.7 6.5 14.3 10.2c14 4.4 21.9 10.2 21.9 23.9s-10.8 23.2-29.2 23.2c-12.8 0-21.9-4.7-28-10.5l8.8-9.7c5.5 4.6 11.2 7.3 18.5 7.3 7.3 0 11.7-3.3 11.7-9 0-5.5-2.7-7.9-13.5-11.1-16.4-5.2-22.5-11.8-22.5-22.8 0-12.9 11.2-21.3 26.6-21.3 11.2-.2 19 3.2 25.5 9.3zm64 37.6c0 17.5-8.5 30.1-22.3 30.1-5.5 0-10.2-2-13.7-5.8v25.8l-16.7 1.8v-79.9h14.7l.9 6.2c4.7-5.8 10.6-8.1 16.3-8.1 14.2 0 20.8 11.5 20.8 29.9zm-17.5.2c0-14-3.3-17.8-9-17.8-3.8 0-7.3 2.4-9.7 6.5v23.9c2.3 3.3 5 5 8.5 5 6.2 0 10.2-5 10.2-17.6zm75 18.7l-3.5 10.9c-6.5-.5-10.9-2.6-13.5-8.1-4.1 6.2-10.3 8.4-17 8.4-11.2 0-18.4-7.3-18.4-17.6 0-12.3 9.4-19 26.4-19h5.8v-2.4c0-6.7-2.6-8.7-9.6-8.7-3.6 0-9.1 1.1-14.7 3l-3.8-11.1c7.1-2.6 14.9-4.1 21.3-4.1 16.4 0 23.4 6.8 23.4 19.9v21.9c-.3 4.3.9 6 3.6 6.9zm-20.3-6.1v-10h-4.1c-7.6 0-11.2 2.6-11.2 8.4 0 4.4 2.3 7.1 6.5 7.1 3.8-.2 6.8-2.2 8.8-5.5zm73.5-35.7l-7.3 10c-3.6-2.7-6.8-4.1-10.8-4.1-7.3 0-11.4 4.9-11.4 17.5 0 12.5 4.4 16.4 11.1 16.4 4.1 0 6.8-1.2 10.8-3.8l7.3 10.3c-5.2 4.1-11.2 6.7-19 6.7-17.3 0-28-11.7-28-29.5 0-17.9 10.8-30.5 27.6-30.5 8.3 0 14.4 2.4 19.7 7zm54.4 27.9h-34.8c1.1 10 5.8 12.9 12.8 12.9 4.6 0 8.7-1.5 13.5-5l6.8 9.3c-5.6 4.4-12.9 7.9-22 7.9-18.8 0-28.4-12.2-28.4-29.8 0-16.9 9.3-30.2 26.3-30.2 16.1 0 26 10.6 26 28.9.1 1.8-.1 4.4-.2 6zm-16.1-10.7c-.2-7.6-2.4-12.9-9.1-12.9-5.6 0-8.8 3.5-9.7 13.7h18.8v-.8z" class="st1"/></svg>