<svg xmlns="http://www.w3.org/2000/svg" id="Layer_1" viewBox="0 0 800 163.9" width="800" height="163.9"><style>.st0{fill:none;stroke:#2997ff;stroke-width:10.6101;stroke-miterlimit:10}.st1{fill:#505050}.st2{fill:#2997ff}</style><g id="a70aa4e3-9fa0-418b-9c8b-0f208c8923d4"><g id="a8246d7a-be40-4df5-95d1-8dab595a319b"><path d="M778.8 159.7H21.2C9.5 159.7 0 150.2 0 138.4v-113C0 13.7 9.5 4.2 21.2 4.2h757.6c11.7 0 21.2 9.5 21.2 21.2V139c-.6 11.3-9.8 20.3-21.2 20.7z" class="st0"/><path d="M265.5 80c0 18.4-7.9 35.1-31.8 35.1h-17l7.9-56.5h15.3c13.5 0 25.6 4 25.6 21.4zm-29.1-11.7l-5.3 37.1h4.3C248.7 105.4 252 91 252 80c0-9.7-4.8-11.7-11.3-11.7h-4.3zm31.1 29.8c0-12.1 5.8-27.6 24.1-27.6 9.2-.8 17.3 6 18.1 15.3.1 1.1.1 2.3-.1 3.4 0 11.9-5.9 27.6-24.1 27.6-9.2.8-17.3-5.9-18.1-15.1-.1-1.3-.1-2.5.1-3.6zM296.7 88c0-5.7-2-8.2-6-8.2-8.6 0-10.3 12.4-10.3 19 0 5.7 2 8.2 6 8.2 8.6 0 10.3-12.6 10.3-19zm61.7 27.1h-15l-1.2-31.8-10.2 31.8h-15l-3-43.3h12.7v33.6L338 71.8h12.2l1.2 33.6 9.9-33.6h12.1l-15 43.3zM412 83.8l-4.3 31.3h-12.6l4-28.6c.6-4.4-.6-5.3-2.5-5.3-3.2 0-6.5 4.2-9.5 10.3l-3.4 23.6h-12.6l6-43.3h11v7.6c3.1-5.3 8.7-8.6 14.8-9 6.5 0 10.3 5 9.1 13.4zm17.4 19.6c0 2.1.4 2.9 1.7 2.9.7 0 1.4-.2 2.1-.4l1.8 9c-2.6 1.1-5.4 1.7-8.2 1.6-7.2 0-11.1-4.4-9.9-12.7l6.9-49.1 12.7-1.4-7.1 50.1zm7.9-5.3c0-12.1 5.9-27.6 24.1-27.6 9.2-.8 17.3 5.9 18.1 15.1.1 1.2.1 2.4-.1 3.5 0 11.9-5.9 27.6-24.1 27.6-9.2.8-17.3-6-18.1-15.3 0-1.1 0-2.2.1-3.3zM466.8 88c0-5.7-2-8.2-6-8.2-8.5 0-10.2 12.4-10.2 19 0 5.7 1.9 8.2 6 8.2 8.2 0 9.9-12.6 10.2-19zm58-13l-4 27.7c-.3 2.9-.3 4.4 2.1 5.3l-3.7 8.3c-4.6.1-8.7-2.8-10-7.2-2.7 4.5-7.6 7.4-12.9 7.4-9.1 0-14.1-6.8-14.1-17.2 0-12.4 6.5-28.9 24.8-28.9 6.3 0 12.4 1.6 17.8 4.6zm-29.3 24.2c0 6.1 2 7.9 4.9 7.9s5.8-2.3 8.2-6l3-20.6c-1.6-.5-3.2-.8-4.8-.8-8.1-.2-11.3 11.1-11.3 19.5zm78-44.6l-8.4 60.5h-11.2v-6.2c-2.7 4.5-7.4 7.4-12.7 7.6-9 0-13.6-6.6-13.6-17.5 0-11.8 5.9-28.6 20.7-28.6 3.8-.1 7.4 1.4 9.9 4.1l3-21.2 12.3 1.3zm-33 44.5c0 6.1 2 7.9 4.7 7.9 3.7 0 6.7-3.7 9.4-8l2.3-15.9c-1.4-2-3.6-3.1-6-3.1-8.1-.2-10.4 11.9-10.4 19.1zm88.4-31h-18.8l-2.1 15h16.3l-1.3 9.5h-16.3l-3.2 22.4h-13.1l7.9-56.5h33.2l-2.6 9.6zm9 47h-12.6l6-43.3h12.6l-6 43.3zm-5.7-57.8c0-4.5 3.6-8.1 8.1-8.1h.3c3.5-.2 6.4 2.5 6.6 6v.3c0 4.5-3.6 8.1-8.1 8.1h-.3c-3.5.1-6.5-2.6-6.6-6.2v-.1zm27.8 46.1c0 2.1.4 2.9 1.7 2.9.7 0 1.4-.2 2.1-.4l1.5 9c-2.6 1.1-5.3 1.7-8.1 1.6-7.3 0-11.1-4.4-9.9-12.7l6.9-49.1 12.7-1.4-6.9 50.1zm20.6-4.1c-.4 3.9 2.5 7.3 6.3 7.7h1.4c4-.2 7.8-1.6 11-4l4.6 7.7c-5 3.7-11 5.7-17.2 5.8-9.3 1.1-17.7-5.5-18.8-14.8-.1-1.2-.2-2.4 0-3.5 0-11.7 6.4-27.7 24.5-27.7 10.6 0 15.9 5.3 15.9 11.8.1 12.1-14.1 15.7-27.7 17zm15-16.5c.1-2-1.4-3.7-3.5-3.8h-.7c-6.2 0-9.1 6.4-10.3 12.6 10.9-.8 14.5-4.7 14.5-8.8zm49.8-6.9l-5.6 6.9c-3-2.1-6.5-3.3-10.2-3.3-3.8 0-5.8 1.5-5.8 3.6s1.8 3 8.4 5.3c6.6 2.3 11.2 6.4 11.2 13.2 0 8.1-6.1 15.1-19.4 15.1-6.7.2-13.2-2.4-18-7.1l6.4-6.7c3.2 2.9 7.3 4.5 11.7 4.6 4.6 0 6.7-2 6.7-4.3s-1.7-3.7-8.5-6c-6.8-2.4-11-6.1-11-12.5 0-7.4 6.4-14 18.3-14 5.7-.2 11.3 1.6 15.8 5.2z" class="st1"/><path d="M142.6 72.1c0-22-17.8-39.8-39.8-39.8S63 50.1 63 72.1C47.2 75 36.7 90.2 39.6 106c2.5 13.9 14.6 23.9 28.7 23.9h69c16.1 0 29.2-13 29.2-29.1 0-14.1-10-26.2-23.9-28.7zm-39.7 36.6L81.7 87.5h15.9V66.3h10.6v21.2h15.9l-21.2 21.2z" class="st2"/></g></g></svg>