<svg xmlns="http://www.w3.org/2000/svg" id="Layer_1" viewBox="0 0 300 122.5" width="300" height="122.5"><style>.st0{fill:#2997ff}.st1{fill:#505050}</style><path d="M279.2 11.4c5.2 0 9.4 4.2 9.4 9.4v80.8c0 5.2-4.2 9.4-9.4 9.4H20.8c-5.2 0-9.4-4.2-9.4-9.4V20.8c0-5.2 4.2-9.4 9.4-9.4h258.4m0-11.4H20.8C9.3 0 0 9.3 0 20.8v80.8c0 11.5 9.3 20.8 20.8 20.8h258.4c11.5 0 20.8-9.3 20.8-20.8V20.8C300 9.3 290.7 0 279.2 0z" class="st0"/><path d="M56.3 34.5L54.1 37c-1.5-1.2-3-1.8-4.7-1.8-1.8 0-3.1.8-3.1 2.3 0 1.5.8 2.1 4.3 3.1 3.8 1.2 6.3 2.8 6.3 6.8 0 3.9-3.1 6.6-8.2 6.6-3.5 0-6.1-1.2-7.9-3l2.3-2.5c1.5 1.3 3.3 2.1 5.4 2.1 2.2 0 3.6-1 3.6-2.9 0-1.7-.9-2.4-4-3.4-4.6-1.4-6.4-3.3-6.4-6.5 0-3.6 3.1-6 7.4-6 3.2 0 5.4 1 7.2 2.7zm19.6 12c0 4.3-2.7 7.5-8.1 7.5s-8.1-3.1-8.1-7.5V32.3h4.5v14c0 2.8 1.1 4.3 3.5 4.3 2.5 0 3.6-1.4 3.6-4.3v-14h4.5l.1 14.2zm19.9.9c0 4.7-3.8 6.1-9.1 6.1h-6.6V32.3h5.8c5.5 0 9 1.5 9 5.4 0 2.7-1.9 4.1-3.9 4.6 2.3.5 4.8 1.6 4.8 5.1zM84.6 35.6V41h2.2c2.2 0 3.4-.9 3.4-2.8s-1.3-2.5-3.9-2.5c0-.1-1.7-.1-1.7-.1zM91 47.2c0-2.3-1.6-3.2-3.9-3.2h-2.5v6.2h2.2c2.5 0 4.2-.5 4.2-3zm28.5 6.4h-4.4l-.4-8.6c-.2-3-.3-6.2-.2-8.7l-3.6 15h-4.3l-3.8-15.1c.2 3 .2 5.8 0 8.8l-.4 8.5H98l1.6-21.3h5.7l3.5 14.6 3.3-14.6h5.8l1.6 21.4zm8 0H123V32.3h4.5v21.3zm18.1-17.7h-5.4v17.7h-4.5V35.9h-5.6v-3.5h16l-.5 3.5zm28.1 7c0 6.9-3.6 11.1-9.4 11.1-5.8 0-9.4-4-9.4-11.1 0-6.9 3.6-11.1 9.4-11.1 5.8 0 9.4 4 9.4 11.1zm-14.1 0c0 5.5 1.8 7.8 4.7 7.8 3 0 4.7-2.2 4.7-7.8s-1.6-7.8-4.7-7.8c-3 .1-4.7 2.3-4.7 7.8zm33.5 10.7h-5.8l-6.7-16.9c.2 1.9.6 4.7.6 8.6v8.2h-4.1V32.3h5.7l6.9 16.9c-.2-1.4-.6-4.4-.6-7.6v-9.3h4.1l-.1 21.3zM63.9 80.7c0 6.3-5.1 8-12 8H43V61.2h7.8c7.4 0 12 1.9 12 7 0 3.5-2.5 5.4-5.1 5.9 3.1.6 6.2 2.2 6.2 6.6zM49.6 65.8v6.4H52c2.7 0 4.2-1 4.2-3.4s-1.5-3.1-4.7-3.1l-1.9.1zm7.6 14.6c0-2.8-1.9-3.8-4.8-3.8h-2.8V84H52c3 0 5.2-.6 5.2-3.6zM81 67.3l-1 6.1c-.7-.2-1.2-.3-1.9-.3-2.5 0-3.6 1.9-4.4 5v10.6h-6.3v-21h5.5l.6 4.1c1-3 3-4.7 5.5-4.7.6-.1 1.3 0 2 .2zm9.2-7.3c0 2.1-1.5 3.6-3.7 3.6s-3.7-1.5-3.7-3.6 1.5-3.6 3.7-3.6c2.2.1 3.7 1.7 3.7 3.6zm-.6 28.8h-6.3V67.6h6.3v21.2zM114 68.9c-1.5.6-3.4.9-6.1.9 2.7 1.1 4 2.7 4 5.5 0 4.1-3.4 7-8.9 7-.9 0-1.6-.1-2.4-.2-.4.2-.7.7-.7 1.2 0 .6.3 1.2 2.3 1.2h3.2c4.9 0 8.1 2.5 8.1 6.1 0 4.3-3.8 7-11.1 7-8 0-10.1-2.6-10.1-6.8H98c0 1.8.8 2.6 4.6 2.6 3.7 0 4.6-1 4.6-2.4 0-1.2-.9-2.1-3-2.1H101c-4.6 0-6.5-1.9-6.5-4.2 0-1.5 1-3.1 2.5-4-2.7-1.4-3.7-3.3-3.7-6 0-4.8 3.7-7.8 9.3-7.8 4.7.1 7.4-1.2 10-2.7l1.4 4.7zm-14.5 5.7c0 2.3 1.2 3.6 3.2 3.6 2.1 0 3.2-1.2 3.2-3.6 0-2.3-1.1-3.4-3.2-3.4-1.9-.1-3.2 1.2-3.2 3.4zm35.1-1.3v15.4h-6.3V74.4c0-2.2-.8-2.8-2-2.8-1.3 0-2.5 1-3.6 2.7v14.5h-6.3V59.3l6.3-.6V70c1.7-1.9 3.6-3 6.1-3 3.6-.1 5.8 2.3 5.8 6.3zm17.9 14.5c-1.6 1.1-3.8 1.6-5.7 1.6-4.7-.1-6.9-2.7-6.9-7.6V72h-3v-4.4h3V63l6.3-.7v5.3h4.8l-.7 4.4h-4.2v9.7c0 2.1.7 2.7 2 2.7.7 0 1.4-.2 2.3-.7l2.1 4.1zM173.2 64l-3 3.5c-1.9-1.5-3.8-2.3-6-2.3-2.3 0-3.7 1-3.7 2.7 0 1.8 1 2.4 5.4 3.8 5.2 1.6 8.2 3.8 8.2 9 0 5.1-4 8.7-10.9 8.7-4.8 0-8.2-1.8-10.5-3.9l3.3-3.6c2.1 1.7 4.2 2.7 6.9 2.7s4.4-1.2 4.4-3.4c0-2.1-1-3-5.1-4.2-6.1-1.9-8.4-4.4-8.4-8.5 0-4.8 4.2-8 10-8 4 0 6.9 1.3 9.4 3.5zm24 14.1c0 6.6-3.2 11.3-8.4 11.3-2.1 0-3.8-.7-5.1-2.2v9.7l-6.3.7v-30h5.5l.3 2.3c1.8-2.2 4-3 6.1-3 5.4 0 7.9 4.3 7.9 11.2zm-6.6.1c0-5.2-1.2-6.7-3.4-6.7-1.4 0-2.7.9-3.6 2.4v9c.9 1.2 1.9 1.9 3.2 1.9 2.3 0 3.8-1.9 3.8-6.6zm28.1 7l-1.3 4.1c-2.4-.2-4.1-1-5.1-3-1.5 2.3-3.9 3.1-6.4 3.1-4.2 0-6.9-2.7-6.9-6.6 0-4.6 3.5-7.1 9.9-7.1h2.2v-.9c0-2.5-1-3.3-3.6-3.3-1.3 0-3.4.4-5.5 1.1l-1.4-4.2c2.7-1 5.6-1.5 8-1.5 6.1 0 8.8 2.5 8.8 7.5v8.2c-.1 1.7.3 2.3 1.3 2.6zm-7.6-2.3v-3.7h-1.5c-2.8 0-4.2 1-4.2 3.1 0 1.6.9 2.7 2.4 2.7 1.5-.1 2.6-.8 3.3-2.1zm27.6-13.3l-2.7 3.7c-1.3-1-2.5-1.5-4-1.5-2.7 0-4.3 1.8-4.3 6.6 0 4.7 1.6 6.1 4.2 6.1 1.5 0 2.5-.4 4-1.4l2.7 3.9c-1.9 1.5-4.2 2.5-7.1 2.5C225 89.4 221 85 221 78.4c0-6.7 4-11.4 10.3-11.4 3.1-.1 5.4.8 7.4 2.6zM259.1 80h-13c.4 3.7 2.2 4.8 4.8 4.8 1.7 0 3.3-.6 5.1-1.9l2.5 3.5c-2.1 1.6-4.8 3-8.2 3-7 0-10.6-4.6-10.6-11.2 0-6.3 3.5-11.3 9.9-11.3 6 0 9.7 4 9.7 10.8-.1.7-.2 1.7-.2 2.3zm-6-4c-.1-2.8-.9-4.8-3.4-4.8-2.1 0-3.3 1.3-3.6 5.1h7V76z" class="st1"/></svg>