<svg xmlns="http://www.w3.org/2000/svg" id="Layer_1" viewBox="0 0 800 163.9" width="800" height="163.9"><style>.st0{fill:#2997ff}.st1{fill:#505050}.st2{fill:none;stroke:#2997ff;stroke-width:10.6101;stroke-miterlimit:10}</style><g id="f1aa6cd9-6f47-44a1-ace5-bf01a90222fb"><g id="a1a91160-e1ab-40cc-aaf2-aeb327ccde93"><path d="M143.2 35.5c-26.9-1.6-53.8-1.6-80.6 0-20.7 1.6-23.3 13.8-23.3 46.7s2.7 45.1 23.3 46.7c19.1 1.1 61.5 1.1 80.6 0 20.7-1.1 23.3-13.8 23.3-46.7s-2.6-45.1-23.3-46.7zM87 103.4V61l42.4 21.2L87 103.4z" class="st0"/><path d="M248.3 115.1h-15.9l-9.5-62.6h13.8L242 104l19.6-51.5h13.8l-27.1 62.6zm32.3 0h-12.7l6.9-47.7h12.7l-6.9 47.7zm-4.7-64.7c-.1-4.6 3.6-8.4 8.3-8.5h.2c3.5-.3 6.6 2.4 6.9 5.9v1c.1 4.6-3.6 8.4-8.3 8.5h-.2c-3.5.3-6.6-2.4-6.9-5.9-.1-.4-.1-.7 0-1zm63.6-2.7l-9.5 67.4h-11.1v-6.9c-3 5.1-8.4 8.3-14.3 8.5-10.1 0-15.4-7.4-15.4-19.1 0-12.7 6.4-31.8 22.8-31.8 4.2-.1 8.3 1.6 11.1 4.8l4.2-23.9 12.2 1zm-36.6 49.9c0 6.9 2.1 9.5 5.8 9.5 4.8 0 8-4.2 11.1-9.5l2.7-18.6c-1.6-2.6-4.4-4.1-7.4-4.2-9.5.5-12.2 14.3-12.2 22.8zm49.4 0c.5 6.9 3.7 9.5 9 9.5 4.4-.2 8.6-1.7 12.2-4.2l4.8 8c-5.4 4-11.9 6.2-18.6 6.4-10.1 1-19.1-6.4-20.2-16.5-.1-1.2-.1-2.5 0-3.7 0-13.3 6.9-30.8 26.5-30.8 11.1 0 17 5.8 17 12.7 0 12.8-15.4 17-30.7 18.6zm18-18.6c0-2.1-1.1-4.8-5.3-4.8-7.4 0-11.1 7.4-12.2 14.9C365 88 370.3 84.3 370.3 79zM383 96c0-13.3 6.4-30.8 26.5-30.8 10-.8 18.9 6.7 19.7 16.7.1 1.2.1 2.3 0 3.5 0 12.7-6.4 30.8-26.5 30.8-12.8.5-19.7-7.5-19.7-20.2zm32.9-11.1c0-6.9-2.7-9.5-7.4-9.5-10.1 0-12.2 14.3-12.2 21.8s2.7 9.5 7.4 9.5c10.1-.1 12.2-13.9 12.2-21.8zM496 62.6h-15.9l-7.4 52.5h-13.3l7.4-52.5h-15.9l1.6-10.6h46.2L496 62.6zm-5.3 38.7l4.8-34.5h12.7l-4.8 32.4c-.5 5.3.5 6.9 3.7 6.9 4.2 0 7.4-4.2 10.6-8.5l4.2-30.8h12.7l-6.9 47.7h-11.1l.5-7.4c-3.4 5.3-9.1 8.6-15.4 9-8.3.6-12.6-5.8-11-14.8zm62.1-1.6c-.5 4.8.5 6.4 3.2 6.4 2 0 4.1-.6 5.8-1.6l3.2 8.5c-3.9 2.3-8.2 3.5-12.7 3.7-9.5 0-14.3-5.8-12.7-16.4l3.2-23.9h-6.9l1.1-9h7.4l3.2-10.6 10.6-1.1-1.6 12.2h11.1l-2.7 9h-9.5l-2.7 22.8z" class="st1"/><path d="M565 96c0-13.3 6.4-30.8 26.5-30.8 10-.8 18.9 6.7 19.7 16.7.1 1.2.1 2.3 0 3.5 0 12.7-6.4 30.8-26.5 30.8-12.3.5-19.7-7.5-19.7-20.2zm33.4-11.1c0-6.9-2.7-9.5-7.4-9.5-10.1 0-12.2 14.3-12.2 21.8s2.7 9.5 7.4 9.5c9.6-.1 11.7-13.9 12.2-21.8zm50.9-18.6L645.6 79c-1.4-.4-2.8-.6-4.2-.5-5.8 0-9.5 5.8-12.2 13.8l-3.2 22.8h-12.7l6.9-47.7h11.1l-.5 9c2.1-6 7.5-10.1 13.8-10.6 1.6-.2 3.2 0 4.7.5zm8.5 48.8h-12.7l6.9-47.7h12.7l-6.9 47.7zm-4.7-64.7c-.1-4.6 3.6-8.4 8.3-8.5h.2c3.5-.3 6.6 2.4 6.9 5.9v1c.1 4.6-3.6 8.4-8.3 8.5h-.2c-3.5.3-6.6-2.4-6.9-5.9-.1-.4-.1-.7 0-1zM713 70.5l-4.8 31.3c-.5 3.2-.5 4.8 2.7 5.8l-3.7 8.5c-5.3-.5-9.5-2.7-10.6-8-3.1 5-8.5 8-14.3 8-10.1 0-15.4-7.4-15.4-19.1 0-13.8 7.4-31.8 27.1-31.8 6.5.5 13 2.3 19 5.3zm-32.9 27.1c0 6.9 2.7 9.5 6.4 9.5s6.9-2.7 10.1-6.9l3.2-23.9c-1.8-.9-3.8-1.2-5.8-1.1-10.2-.4-13.9 12.8-13.9 22.4zm48.8 5.3c-.5 2.1.5 3.2 2.1 3.2.9.1 1.8-.1 2.7-.5l1.6 9c-2.7 1-5.6 1.6-8.5 1.6-8 0-11.7-4.8-10.6-13.8l8-55.2 12.7-1.6-8 57.3z" class="st1"/><path d="M778.8 159.7H21.2C9.5 159.7 0 150.2 0 138.4v-113C0 13.7 9.5 4.2 21.2 4.2h757.6c11.7 0 21.2 9.5 21.2 21.2V139c-.6 11.3-9.8 20.3-21.2 20.7z" class="st2"/></g></g></svg>