<svg xmlns="http://www.w3.org/2000/svg" id="Layer_1" viewBox="0 0 800 163.9" width="800" height="163.9"><style>.st0{fill:none;stroke:#2997ff;stroke-width:10.6101;stroke-miterlimit:10}.st1{fill:#505050}.st2{fill:#2997ff}</style><g id="bc841aa8-87ff-4956-9235-2005a87c5ee6"><g id="a1acd6d8-3951-41aa-9f7a-324ca1f4d39d"><path d="M778.8 159.7H21.2C9.5 159.7 0 150.2 0 138.4v-113C0 13.7 9.5 4.2 21.2 4.2h757.6c11.7 0 21.2 9.5 21.2 21.2V139c-.6 11.3-9.8 20.3-21.2 20.7z" class="st0"/><path d="M265.5 80.1c0 18.4-7.9 35.1-31.8 35.1h-17l7.9-56.5h15.3c13.5-.1 25.6 3.9 25.6 21.4zm-29.1-11.7l-5.3 37.1h4.3c13.3 0 16.6-14.4 16.6-25.5 0-9.7-4.8-11.7-11.3-11.7l-4.3.1zm32.7 29.7c0-12 5.8-27.6 24.1-27.6 9.3-.8 17.4 6.1 18.2 15.3.1 1.1.1 2.2 0 3.3 0 11.9-6 27.6-24.1 27.6-9.2.8-17.3-6-18.1-15.1-.2-1.2-.2-2.3-.1-3.5zm29.3-10c0-5.7-2-8.2-6-8.2-8.5 0-10.2 12.4-10.2 19 0 5.7 2 8.2 6 8.2 8.4 0 10.1-12.4 10.2-19zm63.2 27h-15l-1.2-31.8-10.1 31.8h-15.1l-3-43.3h12.7v33.7l11.4-33.7h12l1.1 33.7 9.9-33.7h12.4l-15.1 43.3zm55.3-31.3l-4.4 31.3h-12.6l4-28.6c.7-4.4-.6-5.3-2.5-5.3-3.3 0-6.5 4.2-9.5 10.6l-3.4 23.8h-12.6l6.2-43.8h11v7.6c3.1-5.2 8.7-8.6 14.7-9 6.5.1 10.3 5.1 9.1 13.4zm19 19.7c0 2.1.4 2.9 1.7 2.9.7 0 1.4-.2 2.1-.4l1.5 9c-2.6 1.1-5.4 1.7-8.2 1.6-7.2 0-11.1-4.4-9.9-12.7l6.9-49.1 12.7-1.4-6.8 50.1zm9.7-5.4c0-12 5.9-27.6 24.1-27.6 9.2-.7 17.3 6.2 18 15.4.1 1.1.1 2.2-.1 3.2 0 11.9-5.9 27.6-24.1 27.6-9.2.8-17.3-6.1-18-15.3 0-1 0-2.2.1-3.3zm29.3-10c0-5.7-2.1-8.2-6-8.2-8.5 0-10.3 12.4-10.3 19 0 5.7 2 8.2 6 8.2 8.4 0 10.1-12.4 10.2-19h.1zM534.6 75l-4.1 27.7c-.3 2.9 0 4.4 2.1 5.3l-3.7 8.3c-4.5 0-8.6-2.9-10-7.2-2.7 4.5-7.6 7.4-12.9 7.4-9.1 0-14-6.7-14-17.2 0-12.4 6.5-28.9 24.8-28.9 6.2.1 12.3 1.7 17.8 4.6zm-29.3 24.2c0 6.2 2.1 7.9 4.9 7.9 2.9 0 5.8-2.3 8.2-6l3-20.6c-1.6-.5-3.2-.8-4.8-.8-8.4-.1-11.3 11.1-11.3 19.5zm79.6-44.5l-8.5 60.5h-11.2V109c-2.7 4.6-7.6 7.5-12.9 7.6-9 0-13.6-6.6-13.6-17.5 0-11.8 5.9-28.6 20.7-28.6 3.8-.1 7.4 1.4 10 4.1l2.9-21.2 12.6 1.3zm-33.2 44.5c0 6.1 2 7.9 4.7 7.9 3.7 0 6.7-3.7 9.4-8l2.3-15.9c-1.4-2-3.6-3.1-6-3.1-7.9-.2-10.4 11.9-10.4 19.1zm100.2-24.8c0 10.3-6.5 21.9-24.9 21.9h-6.4l-2.6 18.8h-13l7.9-56.5h17.9c13.3 0 21.1 5.3 21.1 15.8zm-13.6.6c0-4.8-2.9-6.8-8.6-6.8h-4.8l-2.7 18.5h4.8c5.8.4 10.9-4 11.3-9.9.1-.6.1-1.2 0-1.8zm63.8 5.1c0 18.4-7.8 35.1-31.8 35.1h-16.9l7.9-56.5h15.3c13.4-.1 25.5 3.9 25.5 21.4zm-29-11.7l-5.3 37.1h4.4c13.3 0 16.6-14.4 16.6-25.5 0-9.7-4.8-11.7-11.4-11.7l-4.3.1zm70.9-.2h-18.7l-2.1 15h16.3l-1.3 9.5H722l-3.2 22.4h-13.2l7.9-56.5h33.2l-2.7 9.6z" class="st1"/><path d="M142.7 72.1c-1.1-22-19.9-38.9-41.8-37.7-20.4 1.1-36.7 17.3-37.7 37.7-13.9 2.5-23.9 14.6-23.9 28.6.1 16.1 13.1 29 29.2 29.2h69c16.1-.1 29-13.1 29.2-29.2-.1-14-10.2-26-24-28.6zm-39.8 36.6L81.7 87.5h15.9V66.3h10.6v21.2h15.9l-21.2 21.2z" class="st2"/></g></g></svg>