<svg xmlns="http://www.w3.org/2000/svg" viewBox="0 0 240 46.63" width="240" height="46.63"><defs><style>.b090f90b-2590-4804-843b-0184820c97d4{fill:#2997ff}.a8c2916a-6cba-405e-b553-9bc9e61df786{isolation:isolate}.b01c3488-8a8c-4cd7-8e54-324701659ba9{fill:#505050}</style></defs><g id="b02cc6f9-a4dd-473e-9aba-90cc84e5ae23"><g id="b505219b-e503-4108-a753-e7b17ff34581"><path d="M233.63 3A3.37 3.37 0 0 1 237 6.37v34a3.58 3.58 0 0 1-3.37 3.29H6.37A3.37 3.37 0 0 1 3 40.27V6.37A3.37 3.37 0 0 1 6.37 3h227.26m0-3H6.37A6.38 6.38 0 0 0 0 6.37v33.9a6.38 6.38 0 0 0 6.37 6.36h227.26a6.57 6.57 0 0 0 6.37-6.21V6.37A6.38 6.38 0 0 0 233.63 0z" class="b090f90b-2590-4804-843b-0184820c97d4"/><g class="a8c2916a-6cba-405e-b553-9bc9e61df786"><path d="M79.66 22.77c0 5.5-2.35 10.52-9.59 10.52H65l2.37-16.95H72c4 0 7.66 1.2 7.66 6.43zm-8.73-3.52L69.36 30.4h1.3c4 0 5-4.33 5-7.63 0-2.91-1.44-3.52-3.4-3.52zm9.8 8.93c0-3.62 1.76-8.29 7.24-8.29 3.45 0 5.46 2.12 5.43 5.52 0 3.57-1.78 8.3-7.24 8.3-3.45 0-5.43-2.08-5.43-5.53zm8.78-3c0-1.71-.61-2.45-1.81-2.45-2.57 0-3.08 3.72-3.08 5.7 0 1.71.59 2.45 1.81 2.45 2.57-.01 3.06-3.73 3.08-5.71zm18.98 8.11H104l-.37-9.56-3 9.56h-4.56l-.91-13H99l-.1 10.11 3.4-10.1h3.7l.34 10.1 3-10.1h3.64zm16.58-9.39l-1.29 9.39H120l1.2-8.59c.2-1.32-.19-1.66-.75-1.66-1 0-2 1.27-2.87 3.11l-1 7.14h-3.8l1.81-13h3.31l-.08 2.28a5.53 5.53 0 0 1 4.43-2.69c2.04.01 3.19 1.5 2.82 4.02zm5.7 5.89c-.07.64.12.86.51.86a1.83 1.83 0 0 0 .64-.13l.46 2.7a6.36 6.36 0 0 1-2.44.49c-2.18 0-3.33-1.33-3-3.82l2.08-14.75 3.81-.42zm2.88-1.61c0-3.62 1.77-8.29 7.24-8.29 3.45 0 5.46 2.12 5.44 5.52 0 3.57-1.79 8.3-7.24 8.3-3.45 0-5.44-2.08-5.44-5.53zm8.79-3c0-1.71-.62-2.45-1.81-2.45-2.57 0-3.09 3.72-3.09 5.7 0 1.71.59 2.45 1.81 2.45 2.55-.01 3.06-3.73 3.09-5.71zm17.95-3.93l-1.2 8.32c-.1.86-.07 1.3.64 1.57l-1.11 2.49a3.1 3.1 0 0 1-3-2.15 4.6 4.6 0 0 1-3.87 2.23c-2.74 0-4.21-2-4.21-5.17 0-3.71 2-8.65 7.44-8.65a11.1 11.1 0 0 1 5.31 1.36zm-8.81 7.27c0 1.83.61 2.35 1.47 2.35s1.74-.69 2.47-1.81l.91-6.19a4.05 4.05 0 0 0-1.45-.25c-2.52 0-3.4 3.38-3.4 5.9zm23.9-13.38l-2.55 18.15h-3.37v-1.86a4.61 4.61 0 0 1-3.86 2.28c-2.72 0-4.09-2-4.09-5.24 0-3.55 1.79-8.58 6.22-8.58a3.9 3.9 0 0 1 3 1.24l.88-6.38zm-9.91 13.36c0 1.83.59 2.37 1.42 2.37 1.1 0 2-1.1 2.81-2.4l.69-4.84a2.17 2.17 0 0 0-1.81-.93c-2.42 0-3.11 3.64-3.11 5.8zm27.49-9.3h-5.6l-.64 4.5h4.9l-.4 2.86h-4.89l-1 6.73h-3.94l2.37-16.95h10zm3.2 14.09h-3.79l1.81-13h3.79zm-1.71-17.39a2.41 2.41 0 0 1 2.52-2.42 1.89 1.89 0 0 1 2 1.93 2.45 2.45 0 0 1-2.52 2.45 1.91 1.91 0 0 1-2-1.96zm8.83 13.89c-.07.64.12.86.51.86a1.83 1.83 0 0 0 .64-.13l.46 2.7a6.36 6.36 0 0 1-2.44.49c-2.18 0-3.33-1.33-3-3.82l2.08-14.75 3.81-.42zm6.68-1.22a2.1 2.1 0 0 0 2.32 2.3 5.76 5.76 0 0 0 3.3-1.2l1.37 2.3a8.7 8.7 0 0 1-5.16 1.74c-3.79 0-5.65-2.21-5.65-5.51 0-3.52 1.91-8.31 7.36-8.31 3.16 0 4.8 1.59 4.8 3.54 0 3.65-4.26 4.72-8.34 5.14zm4.5-5a1.11 1.11 0 0 0-1.25-1.15c-1.86 0-2.74 1.91-3.08 3.77 3.25-.19 4.33-1.36 4.33-2.59zM230 21.55l-1.69 2.08a5.53 5.53 0 0 0-3.06-1c-1.14 0-1.73.44-1.73 1.08s.54.91 2.52 1.54c2.17.71 3.37 1.91 3.37 3.94 0 2.42-1.83 4.53-5.82 4.53a7.38 7.38 0 0 1-5.4-2.13l1.93-2a5.2 5.2 0 0 0 3.5 1.37c1.36 0 2-.59 2-1.3s-.51-1.1-2.57-1.81c-2.22-.75-3.3-1.83-3.3-3.76 0-2.23 1.91-4.18 5.48-4.18a7.32 7.32 0 0 1 4.77 1.64z" class="b01c3488-8a8c-4cd7-8e54-324701659ba9"/></g><path d="M42.81 20.37a12 12 0 0 0-23.87 0A8.72 8.72 0 0 0 11.78 29a8.83 8.83 0 0 0 8.75 8.75h20.69A8.83 8.83 0 0 0 50 29a8.74 8.74 0 0 0-7.19-8.63zm-11.93 11L24.51 25h4.77v-6.38h3.19V25h4.77z" class="b090f90b-2590-4804-843b-0184820c97d4"/></g></g></svg>