<svg xmlns="http://www.w3.org/2000/svg" id="Layer_1" viewBox="0 0 300 61.5" width="300" height="61.5"><style>.st0{fill:#2997ff}.st1{fill:#505050}</style><g id="bc841aa8-87ff-4956-9235-2005a87c5ee6"><path id="a1acd6d8-3951-41aa-9f7a-324ca1f4d39d" d="M290.2 61.5H9.8c-5.5 0-9.8-4.3-9.8-9.8V9.8C0 4.3 4.3 0 9.8 0h280.3c5.5 0 9.8 4.3 9.8 9.8v42c-.1 5.3-4.4 9.5-9.7 9.7zM9.8 3.9c-3.3 0-5.9 2.5-5.9 5.9v41.8c0 3.3 2.5 5.9 5.9 5.9h280.3c3.2-.2 5.7-2.5 5.9-5.9V9.8c0-3.3-2.5-5.9-5.9-5.9H9.8z" class="st0"/></g><path d="M94.6 21.4l-3.2 3.2c-1.6-1.4-3.1-2-5.1-2-2.4 0-3.7 1-3.7 2.7 0 1.4 1 2.2 4.1 3.2 3.9 1.4 6.5 3.3 6.5 7.1 0 4.1-2.7 8.8-10.6 8.8-4.3 0-7.3-1.6-9-3.5l3.3-3.3c1.6 1.6 3.3 2.4 5.9 2.4 2.7 0 4.3-1.2 4.3-3.3 0-1.6-1-2.6-3.9-3.5-4.7-1.6-6.7-3.7-6.7-6.9 0-3.7 3-7.8 9.6-7.8 3.8-.4 6.5.7 8.5 2.9zm.4 16.7l2-13.5h5.5l-1.6 12.8c-.2 1.9.2 2.6 1.2 2.6 1.4 0 2.5-1.4 3.7-3l1.8-12.2h5.5l-2.8 19h-4.9l.2-2.7c-1.6 2.2-3.5 3.5-6.1 3.5-3.4-.4-4.9-2.8-4.5-6.5zm38.1-6.7c0 5.5-2.4 12.8-11.2 12.8-2.7 0-5.3-.6-7.8-1.6l3.5-25.7 5.7-.6-1.4 9.8c1.4-1.4 3.3-2.2 5.3-2.2 3.9.1 5.9 2.8 5.9 7.5zm-11.6-1.2l-1.4 9.4c.8.2 1.4.4 2.4.4 3.5 0 4.9-5.1 4.9-8.6 0-2.7-1-3.3-2.4-3.3s-2.5.8-3.5 2.1zm40.2-.3l-2 14h-5.4l1.8-12.6c.2-1.9-.2-2.4-1-2.4-1.4 0-2.5 1.8-3.7 4.3L149.8 44h-5.5l1.8-12.6c.2-1.9-.4-2.4-1-2.4-1.2 0-2.5 1.8-3.7 4.5l-1.6 10.6h-5.5L137 25h4.9l-.2 3.2c1.6-2.4 3.5-3.7 5.9-3.7 2.2 0 3.7 1.2 4.1 3.5 1.6-2.2 3.7-3.5 5.9-3.5 3-.5 4.7 1.6 4.1 5.4zm7.1 13.7h-5.5l2.7-19h5.5c0-.1-2.7 19-2.7 19zm-2.4-25.5c0-1.9 1.6-3.5 3.7-3.5 1.8 0 3 1.2 3 2.7 0 2-1.6 3.5-3.7 3.5-1.8.2-3-1-3-2.7zm13 19.2c-.2 1.8.2 2.4 1.4 2.4.8 0 1.4-.2 2.2-.6l1.6 3.7c-1.6 1-3.5 1.4-5.3 1.4-3.9 0-5.9-2.6-5.3-6.9l1.2-8.8h-2.5l.6-3.9h3l1.2-4.3 4.9-.6-.6 4.7h4.3l-1.2 3.9h-3.7c-.2 0-1.8 9-1.8 9zm32.2-11.4l-1.8 12.2c-.2 1.2-.2 2 1 2.4l-1.6 3.7c-2.2-.2-3.9-1.2-4.3-3.2-1.4 1.9-3.2 3.3-5.7 3.3-3.9 0-6.1-3-6.1-7.7 0-5.5 3-12.8 11-12.8 2.2.2 4.9.7 7.5 2.1zm-13 10.8c0 2.7 1 3.5 2.2 3.5 1.4 0 2.6-1 3.5-2.7l1.4-9c-.8-.2-1.4-.4-2.2-.4-3.7-.2-4.9 4.9-4.9 8.6zm42.2-11c0 4.5-3 9.6-11 9.6h-2.7l-1.2 8.2h-5.6l3.5-24.9h7.8c5.7 0 9.2 2.4 9.2 7.1zm-6 .2c0-2.2-1.4-3-3.7-3h-2.2l-1.2 8.2h2.2c3.9-.1 4.9-2.8 4.9-5.2zm27.5 2.4c0 8.1-3.5 15.5-14.1 15.5h-7.5l3.5-24.9h6.7c5.8-.3 11.4 1.5 11.4 9.4zm-13-5.3l-2.4 16.3h2c5.9 0 7.3-6.3 7.3-11.2 0-4.3-2.2-5.1-4.9-5.1h-2zm30.6 0h-8.2l-1 6.7h7.3l-.6 4.1h-7.3l-1.4 9.8H263l3.5-24.9H281l-1.1 4.3z" class="st1"/><path d="M61.2 39.7c-1.2-2-4.9-2.6-6.7-2.7-1.4-.2-2.7-.2-4.1-.2-1.2 0-2.2 0-3.1.2h-1.2l-1.2-1.2c-2.4-2.7-4.3-5.9-5.7-9.2.4-1.6.8-3.1 1-4.9.4-3.1.4-6.7-.6-9.6-.4-1-1.6-2.4-2.7-1.6-1.4.8-1.8 2.7-1.9 4.1 0 1.2 0 2.4.2 3.5s.6 2.2.8 3.3c.4 1 .6 2 1 3-.2.8-.6 1.6-.8 2.4-.6 1.8-1.4 3.3-1.9 4.9-.4.8-.8 1.6-1 2.2-1 2.4-2.2 4.7-3.5 6.9-3.1 1-5.7 2.4-8.1 3.7-1.2.8-2.4 1.6-3.1 2.6-.8 1-1.8 2-1.8 3.3 0 .8.2 1.4.8 1.8.8.6 1.9.6 2.7.4 3.1-.6 5.5-3.3 7.5-5.5 1.4-1.6 3-3.5 4.5-5.9 2.7-.8 5.9-1.6 9.2-2.2 1.6-.2 3-.4 4.5-.6 1.2 1 2.4 2 3.5 2.7 1 .6 2.2 1.2 3.2 1.6 1.2.4 2.4.6 3.5.8.6 0 1.2.2 1.8.2 1.4 0 3.3-.6 3.5-2.4-.1-.6-.1-1.2-.3-1.6zm-33.4 3.1c-.6 1-1.4 2-1.9 2.7-1.4 2-3.1 4.3-5.5 5.1-.2.2-.8.4-1.6.4-.6 0-1.2-.2-1.2-1 0-.4.2-.8.4-1.2s.6-.8 1-1.2c.8-.8 1.8-1.6 3-2.4 1.8-1.2 3.9-2.2 6.3-3.2-.1.4-.3.6-.5.8zM36 17.5c-.2-1-.2-2.2 0-3.2 0-.6.2-1 .4-1.6.2-.4.4-1.4.8-1.6.8-.2 1 1.4 1 1.8.4 2.5 0 5.3-.6 7.8 0 .4-.2.8-.2 1.2-.2-.4-.4-1-.6-1.4-.4-.9-.5-1.9-.8-3zm4.9 20c-2.7.4-5.3 1-7.8 1.8.4 0 1.6-2.5 1.9-3.1 1.4-2.6 2.6-5.1 3.3-7.8 1.4 3 3.3 5.7 5.5 8.2l.6.6c-.9-.1-2.3.1-3.5.3zm18.7 3.3c-.2.6-1.2.8-1.8 1-1.6.2-3.3 0-4.7-.4-1-.4-1.9-.8-3-1.4-1-.6-1.8-1.2-2.7-1.9 1 0 2.2-.2 3.1 0 1 0 2.2 0 3.2.2 1.9.2 4.1 1 5.7 2.2l.2.3z" class="st0"/></svg>