<svg xmlns="http://www.w3.org/2000/svg" viewBox="0 0 300 41.48" width="300" height="41.48"><defs><style>.aae403c2-f074-4988-841a-283acff7ca6d{fill:#2997ff}.bc1f1c0a-65bd-4931-ac78-1fe3f07e4802{isolation:isolate}.b18f576d-d4b3-4fed-9f3a-e4886971e23d{fill:#505050}.a5d82db9-8e9b-4c56-9f1b-19942542620a,.f4e3ee19-a2c2-4dcd-b5b8-db3ab64c5d2c,.f8670279-c5ad-4e06-89c6-0e7f30b69274{fill:none}.a5d82db9-8e9b-4c56-9f1b-19942542620a,.f8670279-c5ad-4e06-89c6-0e7f30b69274{stroke:#2997ff}.f8670279-c5ad-4e06-89c6-0e7f30b69274{stroke-miterlimit:10;stroke-width:2.83px}.f4e3ee19-a2c2-4dcd-b5b8-db3ab64c5d2c{stroke:#fff;stroke-width:7.08px}.a5d82db9-8e9b-4c56-9f1b-19942542620a,.f4e3ee19-a2c2-4dcd-b5b8-db3ab64c5d2c{stroke-linecap:round;stroke-linejoin:round}.a5d82db9-8e9b-4c56-9f1b-19942542620a{stroke-width:4.04px}</style></defs><g id="bde30023-371b-46e2-89ca-6841ac9b2b27"><g id="af2e287a-d459-4690-a482-89682e7e8d86"><path d="M294.34 3A2.66 2.66 0 0 1 297 5.66v30.21a2.87 2.87 0 0 1-2.66 2.61H5.66A2.66 2.66 0 0 1 3 35.82V5.66A2.66 2.66 0 0 1 5.66 3h288.68m0-3H5.66A5.68 5.68 0 0 0 0 5.66v30.16a5.68 5.68 0 0 0 5.66 5.66h288.68A5.85 5.85 0 0 0 300 36V5.66A5.68 5.68 0 0 0 294.34 0z" class="aae403c2-f074-4988-841a-283acff7ca6d"/><g class="bc1f1c0a-65bd-4931-ac78-1fe3f07e4802"><path d="M69.62 16.13L67.75 18a4.18 4.18 0 0 0-3-1.24c-1.37 0-2.28.63-2.28 1.68 0 .87.56 1.28 2.52 1.94 2.44.8 3.88 2 3.88 4.28 0 2.5-1.72 5.31-6.44 5.31a7.19 7.19 0 0 1-5.49-2.2l2-2a4.65 4.65 0 0 0 3.54 1.48c1.66 0 2.66-.76 2.66-2 0-1-.59-1.51-2.38-2.14-2.85-.95-4-2.22-4-4.22 0-2.28 1.83-4.7 5.85-4.7a6.69 6.69 0 0 1 5.01 1.94zm.7 10.16l1.17-8.24h3.37l-1.06 7.7c-.18 1.15.15 1.5.76 1.5.8 0 1.59-.87 2.22-1.83l1-7.37h3.37L79.56 29.6h-2.91l.06-1.72A4.64 4.64 0 0 1 73.06 30c-2.14 0-3.06-1.47-2.74-3.71zm23.45-4.11c0 3.33-1.39 7.82-6.77 7.82a12.66 12.66 0 0 1-4.74-1l2.18-15.55 3.41-.37-.8 5.92a4.6 4.6 0 0 1 3.17-1.35c2.31.03 3.55 1.66 3.55 4.53zm-7.07-.65l-.79 5.66a3.88 3.88 0 0 0 1.46.28c2.16 0 2.92-3 2.92-5.22 0-1.61-.61-2.05-1.37-2.05a2.88 2.88 0 0 0-2.22 1.33zm24.87-.33l-1.18 8.4H107l1.11-7.6c.17-1.21-.18-1.48-.63-1.48-.79 0-1.57 1.09-2.27 2.64l-.91 6.48h-3.37L102 22c.18-1.21-.19-1.48-.65-1.48-.76 0-1.59 1.11-2.24 2.72l-.89 6.4h-3.36l1.61-11.55h2.93l-.06 1.89a4.39 4.39 0 0 1 3.66-2.3 2.37 2.37 0 0 1 2.52 2.15 4.54 4.54 0 0 1 3.59-2.15c1.74 0 2.76 1.32 2.46 3.52zm4.74 8.4h-3.38l1.61-11.55h3.38zm-1.53-15.47A2.15 2.15 0 0 1 117 12a1.68 1.68 0 0 1 1.81 1.72 2.17 2.17 0 0 1-2.24 2.17 1.7 1.7 0 0 1-1.79-1.76zm8.38 11.64c-.15 1.11.13 1.48.78 1.48a3 3 0 0 0 1.31-.37l.89 2.24A6.49 6.49 0 0 1 123 30c-2.4 0-3.59-1.5-3.22-4.2l.76-5.33h-1.59l.32-2.39H121l.71-2.57 2.92-.33-.41 2.9h2.65l-.72 2.39h-2.25zm15.29 3.87a7.64 7.64 0 0 1-7.15 4.79l-.09-2.43c2.26-.29 3.2-.92 4.07-2.42h-1.2l-1.85-11.55h3.53l.76 9.33 3.5-9.33h3.53zm4.55-4.59c0-3.22 1.57-7.37 6.44-7.37 3.07 0 4.85 1.89 4.83 4.91 0 3.18-1.59 7.38-6.44 7.38-3.05.03-4.83-1.85-4.83-4.92zm7.81-2.67c0-1.53-.54-2.18-1.61-2.18-2.28 0-2.74 3.31-2.74 5.07 0 1.52.52 2.18 1.61 2.18 2.28 0 2.74-3.31 2.76-5.07zm4.94 3.91l1.17-8.24h3.38l-1.07 7.7c-.17 1.15.15 1.5.76 1.5.81 0 1.59-.87 2.22-1.83l1-7.37h3.38L165 29.6h-2.92l.07-1.72a4.66 4.66 0 0 1-3.66 2.12c-2.13 0-3.05-1.47-2.74-3.71zm20.82-8.4l-1 3.31a4 4 0 0 0-1-.15c-1.43 0-2.22 1.37-2.85 3.2L171 29.6h-3.37l1.61-11.55h2.94v2.15c.81-1.63 2-2.48 3.27-2.48a4.09 4.09 0 0 1 1.12.17zm8.74 7.88c-.15 1.11.14 1.48.79 1.48a3 3 0 0 0 1.3-.37l.9 2.24a6.52 6.52 0 0 1-3.16.85c-2.39 0-3.59-1.5-3.22-4.2l.76-5.33h-1.59l.33-2.39h1.74l.72-2.57 2.91-.33-.41 2.9H189l-.72 2.39h-2.27zm10.25 3.87a7.64 7.64 0 0 1-7.16 4.79l-.08-2.43c2.26-.29 3.19-.92 4.07-2.42h-1.2l-1.85-11.55h3.52l.77 9.33 3.5-9.33h3.52zm6.27-11.59h3v1.28a4.61 4.61 0 0 1 3.39-1.65c2.35 0 3.57 1.63 3.57 4.5 0 3.33-1.54 7.79-6.13 7.79a5.68 5.68 0 0 1-2.07-.33l-.65 4.44-3.38.37zm6.48 4.2c0-1.61-.61-2.05-1.39-2.05a2.88 2.88 0 0 0-2.2 1.33l-.78 5.66a3.76 3.76 0 0 0 1.46.28c2.13 0 2.91-3.05 2.91-5.22zm8.01 3.15a1.87 1.87 0 0 0 2.06 2.05 5.14 5.14 0 0 0 2.94-1.07l1.22 2.05A7.78 7.78 0 0 1 218 30c-3.37 0-5-2-5-4.89 0-3.14 1.7-7.4 6.55-7.4 2.81 0 4.27 1.41 4.27 3.15-.08 3.21-3.82 4.14-7.5 4.54zm4-4.42a1 1 0 0 0-1.11-1c-1.65 0-2.44 1.7-2.74 3.35 2.89-.21 3.85-1.26 3.85-2.33zm19.3-1.82l-1.68 2a2.74 2.74 0 0 0-2-.81c-2.35 0-2.94 2.85-2.94 4.81 0 1.63.72 2.13 1.81 2.13a4.1 4.1 0 0 0 2.28-.8l1.27 2.19a6.51 6.51 0 0 1-4 1.33c-3.11 0-4.91-1.94-4.91-5s1.76-7.31 6.46-7.31a5 5 0 0 1 3.71 1.46zm10.96 2.06l-1.17 8.38H246l1.1-7.6c.17-1.17-.15-1.48-.65-1.48-.89 0-1.77 1.14-2.59 2.77L243 29.6h-3.38l2.27-16.14 3.41-.35-1 6.87a4.39 4.39 0 0 1 3.67-2.3c1.89 0 2.92 1.32 2.61 3.54zm1.42 3.83c0-3.22 1.56-7.37 6.44-7.37 3.07 0 4.85 1.89 4.83 4.91 0 3.18-1.59 7.38-6.44 7.38-3.03.03-4.83-1.85-4.83-4.92zm7.81-2.67c0-1.53-.54-2.18-1.61-2.18-2.29 0-2.74 3.31-2.74 5.07 0 1.52.52 2.18 1.61 2.18 2.3 0 2.76-3.31 2.78-5.07zm8 7.22h-3.37l1.61-11.55h3.37zm-1.52-15.47a2.15 2.15 0 0 1 2.24-2.13 1.68 1.68 0 0 1 1.81 1.72 2.17 2.17 0 0 1-2.25 2.17 1.7 1.7 0 0 1-1.8-1.76zm14.4 5.03l-1.67 2a2.77 2.77 0 0 0-2-.81c-2.35 0-2.93 2.85-2.93 4.81 0 1.63.72 2.13 1.8 2.13a4.13 4.13 0 0 0 2.29-.8l1.26 2.19a6.49 6.49 0 0 1-4 1.33c-3.11 0-4.92-1.94-4.92-5s1.76-7.31 6.46-7.31a5 5 0 0 1 3.71 1.46zm3.13 6.24a1.88 1.88 0 0 0 2.07 2.05 5.14 5.14 0 0 0 2.94-1.07l1.22 2.05a7.81 7.81 0 0 1-4.59 1.57c-3.38 0-5-2-5-4.89 0-3.14 1.7-7.4 6.55-7.4 2.81 0 4.26 1.41 4.26 3.15-.03 3.21-3.81 4.14-7.45 4.54zm4-4.42a1 1 0 0 0-1.11-1c-1.66 0-2.44 1.7-2.75 3.35 2.91-.21 3.87-1.26 3.87-2.33z" class="b18f576d-d4b3-4fed-9f3a-e4886971e23d"/></g><path d="M32.14 9.06H17.41a5.44 5.44 0 0 0-5.52 5.52v14.87A5.44 5.44 0 0 0 17.41 35h14.87a5.44 5.44 0 0 0 5.52-5.52v-14.9a5.65 5.65 0 0 0-5.66-5.52z" class="f8670279-c5ad-4e06-89c6-0e7f30b69274"/><path d="M19.4 20.95l5.38 8.64L35.54 6.65" class="f4e3ee19-a2c2-4dcd-b5b8-db3ab64c5d2c"/><path d="M19.4 20.95l5.38 8.64L35.54 6.65" class="a5d82db9-8e9b-4c56-9f1b-19942542620a"/></g></g></svg>