<svg xmlns="http://www.w3.org/2000/svg" id="Layer_1" viewBox="0 0 800 163.9" width="800" height="163.9"><style>.st0{fill:#2997ff}.st1{fill:#505050}</style><g id="bc841aa8-87ff-4956-9235-2005a87c5ee6"><path id="a1acd6d8-3951-41aa-9f7a-324ca1f4d39d" d="M773.8 163.9H26.2C11.5 163.9 0 152.4 0 137.7V26.2C0 11.5 11.5 0 26.2 0h747.6C788.5 0 800 11.5 800 26.2v112c-.5 14.2-12 25.2-26.2 25.7zM26.2 10.5c-8.9 0-15.7 6.8-15.7 15.7v111.5c0 8.9 6.8 15.7 15.7 15.7h747.6c8.4-.5 15.2-6.8 15.7-15.7V26.2c0-8.9-6.8-15.7-15.7-15.7H26.2z" class="st0"/></g><path d="M265.4 57.1l-8.4 8.4c-4.2-3.7-8.4-5.2-13.6-5.2-6.3 0-9.9 2.6-9.9 7.3 0 3.7 2.6 5.8 11 8.4 10.5 3.7 17.3 8.9 17.3 18.8 0 11-7.3 23.6-28.3 23.6-11.5 0-19.4-4.2-24.1-9.4l8.9-8.9c4.2 4.2 8.9 6.3 15.7 6.3 7.3 0 11.5-3.1 11.5-8.9 0-4.2-2.6-6.8-10.5-9.4-12.6-4.2-17.8-9.9-17.8-18.3 0-9.9 7.9-20.9 25.7-20.9 10-.7 17.3 2.4 22.5 8.2zm1.1 44.5l5.2-36.1h14.7l-4.2 34c-.5 5.2.5 6.8 3.1 6.8 3.7 0 6.8-3.7 9.9-7.9L300 66h14.7l-7.3 50.8h-13.1l.5-7.3c-4.2 5.8-9.4 9.4-16.2 9.4-9-1.1-13.2-7.4-12.1-17.3zm101.6-17.8c0 14.7-6.3 34-29.8 34-7.3 0-14.1-1.6-20.9-4.2l9.4-68.6 15.2-1.6-3.7 26.2c3.7-3.7 8.9-5.8 14.1-5.8 10.4.1 15.7 7.4 15.7 20zm-30.9-3.2l-3.7 25.1c2.1.5 3.7 1 6.3 1 9.4 0 13.1-13.6 13.1-23 0-7.3-2.6-8.9-6.3-8.9-3.7.1-6.8 2.2-9.4 5.8zm107.3-1l-5.2 37.2h-14.7l4.7-33.5c.5-5.2-.5-6.3-2.6-6.3-3.7 0-6.8 4.7-9.9 11.5l-4.2 28.8h-14.7l4.7-33.5c.5-5.2-1-6.3-2.6-6.3-3.1 0-6.8 4.7-9.9 12l-4.2 28.3h-14.7l7.3-50.8h13.1l-.5 8.4c4.2-6.3 9.4-9.9 15.7-9.9 5.8 0 9.9 3.1 11 9.4 4.2-5.8 9.9-9.4 15.7-9.4 7.9-1.6 12.6 4.1 11 14.1zm18.9 36.6h-14.7l7.3-50.8h14.7l-7.3 50.8zm-6.3-68c0-5.2 4.2-9.4 9.9-9.4 4.7 0 7.9 3.1 7.9 7.3 0 5.2-4.2 9.4-9.9 9.4-4.8.5-7.9-2.6-7.9-7.3zm34.5 51.3c-.5 4.7.5 6.3 3.7 6.3 2.1 0 3.7-.5 5.8-1.6l4.2 9.9c-4.2 2.6-9.4 3.7-14.1 3.7-10.5 0-15.7-6.8-14.1-18.3l3.1-23.6h-6.8l1.6-10.5h7.9l3.1-11.5 13.1-1.6-1.6 12.6H509l-3.1 10.5H496c-.2 0-4.4 24.1-4.4 24.1zm85.9-30.4l-4.7 32.5c-.5 3.1-.5 5.2 2.6 6.3l-4.2 9.9c-5.8-.5-10.5-3.1-11.5-8.4-3.7 5.2-8.4 8.9-15.2 8.9-10.5 0-16.2-7.9-16.2-20.4 0-14.7 7.9-34 29.3-34 5.8 0 13.1 1.5 19.9 5.2zm-34.6 28.8c0 7.3 2.6 9.4 5.8 9.4 3.7 0 6.8-2.6 9.4-7.3l3.7-24.1c-2.1-.5-3.7-1-5.8-1-9.9-.6-13.1 13.1-13.1 23zm112.6-29.3c0 12-7.9 25.7-29.3 25.7h-7.3l-3.1 22h-15.2l9.4-66.5h20.9c15.2-.1 24.6 6.2 24.6 18.8zm-16.2.5c0-5.8-3.7-7.9-9.9-7.9h-5.8l-3.1 22h5.8c10.3-.5 13-7.8 13-14.1zm73.3 6.3c0 21.5-9.4 41.4-37.7 41.4H655l9.4-66.5h17.8c15.7-.6 30.4 4.2 30.4 25.1zM678 61.3l-6.3 43.5h5.2c15.7 0 19.4-16.8 19.4-29.8 0-11.5-5.8-13.6-13.1-13.6H678zm81.7 0h-22l-2.6 17.8h19.4l-1.6 11h-19.4l-3.7 26.2h-15.2l9.4-66.5h38.7l-3 11.5z" class="st1"/><path d="M159.2 105.8c-3.1-5.2-13.1-6.8-17.8-7.3-3.7-.5-7.3-.5-11-.5-3.1 0-5.8 0-8.4.5h-3.1l-3.1-3.1c-6.3-7.3-11.5-15.7-15.2-24.6 1-4.2 2.1-8.4 2.6-13.1 1-8.4 1-17.8-1.6-25.7-1-2.6-4.2-6.3-7.3-4.2-3.7 2.1-4.7 7.3-5.2 11 0 3.1 0 6.3.5 9.4.5 3.1 1.6 5.8 2.1 8.9 1 2.6 1.6 5.2 2.6 7.9-.5 2.1-1.6 4.2-2.1 6.3-1.6 4.7-3.7 8.9-5.2 13.1-1 2.1-2.1 4.2-2.6 5.8-2.6 6.3-5.8 12.6-9.4 18.3-8.4 2.6-15.2 6.3-21.5 9.9-3.1 2.1-6.3 4.2-8.4 6.8-2.1 2.6-4.7 5.2-4.7 8.9 0 2.1.5 3.7 2.1 4.7 2.1 1.6 5.2 1.6 7.3 1 8.4-1.6 14.7-8.9 19.9-14.7 3.7-4.2 7.9-9.4 12-15.7 7.3-2.1 15.7-4.2 24.6-5.8 4.2-.5 7.9-1 12-1.6 3.1 2.6 6.3 5.2 9.4 7.3 2.6 1.6 5.8 3.1 8.4 4.2 3.1 1 6.3 1.6 9.4 2.1 1.6 0 3.1.5 4.7.5 3.7 0 8.9-1.6 9.4-6.3.1-1.4.1-3-.4-4zm-89 8.3c-1.6 2.6-3.7 5.2-5.2 7.3-3.7 5.2-8.4 11.5-14.7 13.6-.5.5-2.1 1-4.2 1-1.6 0-3.1-.5-3.1-2.6 0-1 .5-2.1 1-3.1s1.6-2.1 2.6-3.1c2.1-2.1 4.7-4.2 7.9-6.3 4.7-3.1 10.5-5.8 16.8-8.4-.1.6-.6 1.1-1.1 1.6zm21.9-67.5c-.5-2.6-.5-5.8 0-8.4 0-1.6.5-2.6 1-4.2.5-1 1-3.7 2.1-4.2 2.1-.5 2.6 3.7 2.6 4.7 1 6.8 0 14.1-1.6 20.9 0 1-.5 2.1-.5 3.1-.5-1-1-2.6-1.6-3.7-.9-2.4-1.4-5.1-2-8.2zm13.1 53.4c-7.3 1-14.1 2.6-20.9 4.7 1 0 4.2-6.8 5.2-8.4 3.7-6.8 6.8-13.6 8.9-20.9 3.7 7.9 8.9 15.2 14.7 22l1.6 1.6c-2.7 0-6.3.5-9.5 1zm49.8 8.9c-.5 1.6-3.1 2.1-4.7 2.6-4.2.5-8.9 0-12.6-1-2.6-1-5.2-2.1-7.9-3.7-2.6-1.6-4.7-3.1-7.3-5.2 2.6 0 5.8-.5 8.4 0 2.6 0 5.8 0 8.4.5 5.2.5 11 2.6 15.2 5.8l.5 1z" class="st0"/></svg>