<svg xmlns="http://www.w3.org/2000/svg" id="Layer_1" viewBox="0 0 300 84.9" width="300" height="84.9"><style>.st0{fill:none;stroke:#2997ff;stroke-width:3.4981;stroke-miterlimit:10}.st1{fill:#505050}.st2{fill:#2997ff}</style><g id="a628c07d-118a-46cc-873e-8f34b1c16a14"><g id="fa8151ea-8751-4649-a5ac-cf3583669348"><path d="M293 83.7H7c-3.9 0-7-3.1-7-7V8.3c0-3.9 3.1-7 7-7h286c3.9 0 7 3.1 7 7v68.6c-.3 3.6-3.3 6.6-7 6.8z" class="st0"/><path d="M112.1 14.6l-2.6 2.6c-1.1-1.1-2.7-1.8-4.2-1.8-1.9 0-3.2.9-3.2 2.4 0 1.2.8 1.8 3.5 2.7 3.4 1.1 5.4 2.8 5.4 6 0 3.5-2.4 7.4-9 7.4-2.8.1-5.6-1-7.5-3.1l2.8-2.8c1.3 1.3 3.1 2.1 4.9 2.1 2.3 0 3.7-1 3.7-2.8 0-1.4-.8-2.1-3.3-3-4-1.3-5.6-3.1-5.6-5.9 0-3.2 2.5-6.6 8.2-6.6 2.6 0 5.1 1 6.9 2.8zm1 14.2l1.6-11.5h4.7L118 28.1c-.3 1.6.2 2.1 1 2.1s2.2-1.2 3.1-2.5l1.4-10.3h4.7L126 33.5h-4.1v-2.4c-1.1 1.7-3 2.8-5.1 2.9-2.8 0-4.1-2-3.7-5.2zm32.8-5.7c0 4.6-1.9 10.9-9.4 10.9-2.3 0-4.5-.5-6.6-1.3L133 11l4.8-.5-1.3 8.4c1.2-1.2 2.8-1.8 4.4-1.9 3.2-.2 5 2.1 5 6.1zm-9.9-.9l-1.1 7.9c.6.3 1.3.4 2 .4 3 0 4.1-4.2 4.1-7.3 0-2.2-.9-2.8-1.9-2.8-1.3.1-2.4.8-3.1 1.8zm34.7-.5l-1.6 11.7h-4.6l1.5-10.6c.3-1.8-.3-2.1-.9-2.1-1.1 0-2.2 1.5-3.1 3.7l-1.3 9h-4.8l1.6-10.6c.3-1.8-.3-2.1-.9-2.1-1 0-2.2 1.5-3.1 3.8l-1.2 8.9h-4.9l2.2-16.1h4.1l-.1 2.6c1-1.8 2.9-3 5.1-3.1 1.8-.1 3.3 1.2 3.5 3 1.1-1.8 3-2.9 5-3 2.5 0 3.9 2 3.5 4.9zm6.6 11.8h-4.7l2.3-16.1h4.7l-2.3 16.1zm-2.1-21.6c0-1.6 1.3-3 3-3h.2c1.3-.1 2.4.9 2.5 2.2v.2c0 1.7-1.3 3-3 3h-.1c-1.3.1-2.5-.8-2.6-2.1v-.3zm11.7 16.2c-.2 1.5.2 2.1 1.1 2.1.6 0 1.2-.2 1.8-.5l1.2 3.1c-1.3.7-2.8 1.2-4.4 1.2-3.3 0-5-2.1-4.5-5.8l1-7.5h-2.2l.4-3.3h2.4l1-3.5 4.1-.5-.6 4h3.7l-1 3.3h-3.1l-.9 7.4zm28.3-9.6l-1.5 10.3c-.1 1 0 1.6.8 1.9l-1.3 3.1c-1.7 0-3.2-1-3.7-2.7-1 1.7-2.8 2.7-4.8 2.8-3.4 0-5.2-2.5-5.2-6.4 0-4.6 2.4-10.7 9.2-10.7 2.2 0 4.5.6 6.5 1.7zm-10.9 9c0 2.3.8 2.9 1.8 2.9 1.3-.2 2.5-1 3.1-2.2l1.1-7.7c-.6-.2-1.2-.3-1.8-.3-3.1 0-4.2 4.2-4.2 7.3zm36.8-9.2c0 3.9-2.4 8.2-9.3 8.2h-2.3l-1 7h-4.9l2.9-21h6.7c5-.1 7.9 1.8 7.9 5.8zm-5 .2c0-1.8-1.1-2.5-3.2-2.5h-1.8l-1 6.9h1.8c2.1.2 4-1.4 4.2-3.5v-.9zm23.7 1.9c0 6.8-2.9 13-11.9 13h-6.3l3-21h5.7c5 0 9.5 1.5 9.5 8zM249 16l-1.9 13.8h1.6c4.9 0 6.2-5.4 6.2-9.4 0-3.6-1.8-4.4-4.2-4.4H249zm26.4-.1h-7l-.8 5.6h6.1l-.5 3.5h-6.1l-1.2 8.4H261l3-21h12.3l-.9 3.5zM112.1 51l-2.6 2.7c-1.1-1.1-2.7-1.8-4.2-1.8-1.9 0-3.2.9-3.2 2.4 0 1.2.8 1.8 3.5 2.7 3.4 1.1 5.4 2.8 5.4 6 0 3.5-2.4 7.4-9 7.4-2.8.1-5.6-1.1-7.5-3.1l2.8-2.8c1.3 1.3 3.1 2.1 4.9 2.1 2.3 0 3.7-1 3.7-2.8 0-1.4-.8-2.1-3.3-3-4-1.3-5.6-3.1-5.6-5.9 0-3.2 2.5-6.6 8.2-6.6 2.6-.1 5.1.9 6.9 2.7zm6.4 13.5c-.2 1.5.2 2.1 1.1 2.1.6 0 1.3-.2 1.8-.5l1.2 3.1c-1.3.7-2.8 1.2-4.4 1.2-3.3 0-5-2.1-4.5-5.8l1-7.5h-2.2l.4-3.3h2.4l1-3.6 4.1-.4-.5 4h3.7l-1 3.3h-3.1l-1 7.4zm14.3 5.4c-1.6 4-5.6 6.7-10 6.7l-.1-3.4c3.1-.4 4.5-1.3 5.7-3.4h-1.8l-2.4-16.1h4.9l1 13 4.8-13h4.9l-7 16.2zm11.7-4.4c0 .8.1 1 .6 1 .3 0 .5-.1.8-.1l.6 3.3c-1 .4-2 .6-3 .6-2.7 0-4.1-1.6-3.7-4.7l2.6-18.3 4.7-.5-2.6 18.7zm8.3-1.5c-.1 1.4.9 2.7 2.3 2.8h.6c1.5 0 2.9-.6 4.1-1.5l1.8 2.9c-1.8 1.4-4.1 2.1-6.4 2.1-4.7 0-7-2.7-7-6.8 0-4.4 2.4-10.3 9.1-10.3 3.9 0 6 2 6 4.4-.2 4.5-5.5 5.8-10.5 6.4zm5.5-6.2c0-.7-.5-1.4-1.3-1.5h-.3c-2.3 0-3.4 2.4-3.8 4.7 4.1-.3 5.4-1.7 5.4-3.2zm28.8-5.2H182l-2.4 17.2h-4.9l2.4-17.2h-5.4l.5-3.8h15.9l-1 3.8zm4.7 17.2h-4.7l2.2-16.1h4.8l-2.3 16.1zm-2.1-21.6c0-1.6 1.3-3 3-3h.1c1.3-.1 2.4.9 2.5 2.2v.2c0 1.7-1.3 3-3 3h-.1c-1.3.1-2.4-.9-2.5-2.2v-.2zm10.9 17.3c0 .8.1 1 .6 1 .3 0 .6-.1.8-.1l.6 3.3c-1 .4-2 .6-3 .6-2.7 0-4.1-1.6-3.7-4.7l2.6-18.3 4.7-.5-2.6 18.7zm8.3-1.5c-.1 1.4.9 2.7 2.3 2.8h.6c1.5 0 2.9-.6 4.1-1.5l1.8 2.9c-1.8 1.4-4.1 2.1-6.4 2.1-4.7 0-7-2.7-7-6.8 0-4.4 2.4-10.3 9.1-10.3 3.9 0 6 2 6 4.4-.1 4.5-5.4 5.8-10.5 6.4zm5.6-6.2c0-.7-.5-1.4-1.3-1.4h-.2c-2.3 0-3.5 2.4-3.8 4.7 4-.4 5.3-1.8 5.3-3.3z" class="st1"/><path d="M59.8 27.3V46c1.6-.1 3.1 0 4.7.3v-19c0-4.5-3.6-8.2-8.2-8.2H42.5v1c0 1.2 0 2.4-.2 3.7h13.8c1.9-.1 3.6 1.4 3.7 3.3v.2zM21.1 56c.3-.1.6-.2.9-.2V27.3c0-1.9 1.6-3.5 3.5-3.5h6.6c-.2-1.6-.3-3.1-.2-4.7h-6.4c-4.5 0-8.2 3.6-8.2 8.2v31.2c1.3-.9 2.5-1.8 3.8-2.5zm38.7 2.3c0 1.9-1.6 3.5-3.5 3.5H28.5c-1 1.6-2 3.2-3.1 4.7h31c4.5 0 8.1-3.6 8.2-8.1-1.4-.2-3-.5-4.7-.9l-.1.8z" class="st2"/><path d="M69.6 50.6c-2.1-2.1-8.2-2.8-16.6-1.8-1.8-1-3.4-2.1-5.1-3.3-2.1-1.8-6-5.8-8.7-14.2.5-3.7.8-7.5.9-11.2v-1.8l.2-1c.4-1.2.3-2.5-.3-3.7-.5-.5-1.2-.7-1.9-.7h-1.3c-1 0-1.8.7-2.1 2.1-1 3.7-.5 10 1.2 16 0 .2.2.5.2.7-1.6 5.3-3.6 10.5-6.1 15.4-2.9 6.4-6.5 12.5-10.7 18.2-2.1 2.4-3.9 4-5.2 4.4.4-1.5 1.2-2.8 2.3-4 1.9-2.4 4-4.6 6.5-6.5l-.9-1.3c-7.2 3.9-10.3 8.2-10.8 10.8-.1.6-.1 1.2.2 1.8l.2.2h.2l1.4.7c.4.2.9.3 1.4.3 3.3 0 8.1-5.1 13.8-15.2 7.3-2.5 15-4.2 22.7-4.9h.5c4.4 2.4 9.2 3.8 14.2 4.2.8 0 1.5-.1 2.3-.3.2 0 .2 0 .3-.2l.9-.7c.2-.2.3-.4.3-.7l.2-.5c.7-.6.8-1.7.2-2.5-.1-.1-.3-.2-.4-.3zm-32-35.2c0-.3.1-.5.3-.7.8.6 1.2 1.6 1.2 2.6l.2.9h-.2c-.2.7-.2 1.6-.3 2.4-.2 1.2-.3 2.8-.7 4.5-1-3-1.2-6.4-.5-9.7zm-7.7 39.4c1-1.8 1.9-3.7 3-5.6 2.1-3.9 3.8-8 5.1-12.3 1.7 4.2 4.3 7.9 7.7 10.8.7.6 1.5 1.2 2.3 1.8-6.3 1.1-12.3 2.9-18.1 5.3zm39-1.4c-1.6.7-5.8-.2-10.3-2.1 4.9-.2 8.6.3 10 1.2.2.3.3.6.3.9z" class="st2"/></g></g></svg>