<svg xmlns="http://www.w3.org/2000/svg" id="Layer_1" viewBox="0 0 300 44.1" width="300" height="44.1"><style>.st0{fill:none;stroke:#2997ff;stroke-width:2.8458;stroke-miterlimit:10}.st1{fill:#2997ff}.st2{fill:#505050}</style><g id="ff64e054-1092-4a0e-acd9-a298a883f0ad"><g id="b54a60be-c564-4948-b564-0c5b1ba76d17"><path d="M294.3 42.9H5.7c-3.1 0-5.7-2.5-5.7-5.7V6.9c0-3.2 2.6-5.7 5.7-5.7h288.6c3.2 0 5.7 2.5 5.7 5.7v30.5c-.2 3-2.6 5.4-5.7 5.5z" class="st0"/><path d="M38.3 19.1C38 13.2 33 8.7 27.1 9c-5.5.3-9.8 4.7-10.1 10.1-3.8.7-6.5 3.9-6.4 7.8 0 4.3 3.5 7.8 7.8 7.8h18.5c4.3 0 7.8-3.5 7.8-7.8 0-3.9-2.7-7.1-6.4-7.8zm-10.7-1.6l5.7 5.7H29v5.7h-2.9v-5.7h-4.3l5.8-5.7z" class="st1"/><path d="M71.3 16.7l-2 1.9c-.8-.8-2-1.3-3.1-1.3-1.4 0-2.4.6-2.4 1.7s.6 1.4 2.6 2c2.6.8 4 2.1 4 4.5s-1.8 5.6-6.7 5.6c-2.1.1-4.2-.8-5.7-2.3l2.1-2.1c.9 1 2.3 1.6 3.7 1.5 1.7 0 2.8-.8 2.8-2.1 0-1-.6-1.6-2.5-2.2-2.9-1-4.1-2.4-4.1-4.5 0-2.4 1.9-4.9 6.1-4.9 1.9.1 3.8.8 5.2 2.2zm.3 10.6l1.2-8.6h3.5l-1.1 8c-.2 1.2.1 1.6.8 1.6s1.7-.9 2.3-1.9l1.1-7.7h3.5l-1.6 12h-3v-1.8c-.8 1.3-2.2 2.1-3.8 2.2-2.3 0-3.2-1.5-2.9-3.8zM95.5 23c0 3.4-1.4 8.1-7 8.1-1.7 0-3.4-.3-5-1l2.2-16.2 3.6-.4-.9 6.2c.9-.9 2.1-1.4 3.3-1.4 2.5 0 3.8 1.7 3.8 4.7zm-7.3-.7l-.9 6c.5.2 1 .3 1.5.3 2.2 0 3-3.2 3-5.4 0-1.7-.6-2.1-1.4-2.1-.8 0-1.7.5-2.2 1.2zm25.4-.3l-1.2 8.7h-3.6l1.1-8c.2-1.3-.2-1.5-.6-1.5-.8 0-1.6 1.1-2.4 2.7l-.9 6.8h-3.6l1.1-8c.2-1.3-.2-1.5-.7-1.5-.8 0-1.6 1.2-2.3 2.9l-.9 6.7h-3.5l1.7-12h3.1v1.9c.8-1.4 2.1-2.3 3.7-2.4 1.3-.1 2.5.9 2.6 2.2.8-1.3 2.2-2.1 3.8-2.2 1.8 0 2.8 1.4 2.6 3.7zm4.5 8.7h-3.6l1.7-12h3.5l-1.6 12zm-1.7-16.1c0-1.2 1-2.2 2.2-2.2h.1c1-.1 1.8.6 1.9 1.6v.2c0 1.3-1 2.3-2.3 2.3h-.1c-1 .1-1.8-.7-1.9-1.7l.1-.2zm8.3 12.1c-.2 1.2.1 1.5.8 1.5.5 0 1-.1 1.4-.4l.9 2.3c-1 .6-2.1.9-3.3.9-2.5 0-3.8-1.6-3.4-4.4l.8-5.5h-1.7l.3-2.5h1.8l.8-2.7 3-.3-.4 3h2.8l-.8 2.4h-2.4l-.6 5.7zm8.5-.7c0-3.3 1.6-7.7 6.7-7.7 2.6-.2 4.8 1.7 5 4.2v.9c0 3.3-1.6 7.7-6.7 7.7-2.6.2-4.8-1.7-5-4.2-.1-.4-.1-.6 0-.9zm8.1-2.8c0-1.6-.6-2.2-1.7-2.2-2.4 0-2.9 3.4-2.9 5.2 0 1.6.5 2.2 1.6 2.2 2.6.1 3-3.4 3-5.2zM157 22l-1.2 8.7h-3.6l1.1-8c.2-1.2-.2-1.5-.7-1.5-.9 0-1.8 1.2-2.7 2.9l-.9 6.6h-3.5l1.7-12h3v2.1c.9-1.5 2.4-2.4 4.1-2.5 2 0 3.1 1.4 2.7 3.7zm18.1 3.7c0 2.7-1.8 5-7.4 5h-5l2.2-15.6h4.6c3.6 0 5.9.9 5.9 3.6-.1 2-1.5 3.6-3.5 3.8 1.7.2 3.2 1 3.2 3.2zm-3.7-.3c0-1.2-.9-1.7-2.4-1.7h-1.7l-.6 4.3h1.3c2.7 0 3.4-1.1 3.4-2.6zm.3-6.4c0-1-.8-1.3-2.1-1.3h-1.4l-.5 3.6h1.4c1.9 0 2.6-1 2.6-2.3zm13.5-.5l-1 3.5c-.3-.1-.7-.1-1-.1-1.5 0-2.3 1.4-3 3.3l-.8 5.6H176l1.6-12h3.1V21c.5-1.5 1.8-2.5 3.3-2.6.4-.1.8 0 1.2.1zm2.6 12.2h-3.5l1.7-12h3.5l-1.7 12zm-1.6-16.1c0-1.2 1-2.2 2.2-2.2h.1c1-.1 1.8.6 1.9 1.6v.2c0 1.3-1 2.3-2.3 2.3h-.1c-.9-.1-1.7-.9-1.8-1.9zm16 5l-1.5 10.2c-.6 4.3-2.5 6-6.3 6-1.6 0-3.2-.5-4.5-1.3l1.2-2.3c1 .6 2.1.9 3.3.9 1.3 0 2.6-.4 2.9-2.7l.2-1.2c-.8.9-1.9 1.5-3.2 1.6-2.6 0-3.9-1.9-3.9-4.6 0-3.3 1.8-7.7 7-7.7 1.5-.2 3.3.3 4.8 1.1zm-8.3 6.4c0 1.6.6 2.1 1.4 2.1 1-.1 1.9-.8 2.4-1.7l.8-5.3c-.4-.1-.9-.2-1.3-.2-2.5-.1-3.3 2.9-3.3 5.1zm20.3-4l-1.2 8.7h-3.5l1.1-8c.2-1.2-.1-1.5-.7-1.5-.9 0-1.8 1.2-2.7 2.9l-.9 6.6h-3.6l2.4-16.8 3.5-.3-1 7.1c.8-1.4 2.2-2.3 3.8-2.4 2.1 0 3.1 1.4 2.8 3.7zm5.3 4.7c-.2 1.2.2 1.5.8 1.5.5 0 .9-.1 1.4-.4l.9 2.3c-1 .6-2.1.9-3.3.9-2.5 0-3.8-1.6-3.4-4.4l.8-5.5H215l.3-2.5h1.8l.8-2.7 3-.3-.4 3h2.8l-.8 2.4h-2.4l-.6 5.7z" class="st2"/><path d="M235.5 16.7l-1.9 1.9c-.8-.8-2-1.3-3.2-1.3-1.4 0-2.4.6-2.4 1.7s.6 1.4 2.6 2c2.5.8 4 2.1 4 4.5s-1.8 5.6-6.7 5.6c-2.1.1-4.2-.8-5.7-2.3l2.1-2.1c.9 1 2.3 1.6 3.7 1.5 1.7 0 2.8-.8 2.8-2.1 0-1-.6-1.6-2.5-2.2-3-1-4.2-2.4-4.2-4.5 0-2.4 1.9-4.9 6.1-4.9 2.1.1 4 .8 5.3 2.2zm1.6 2h3.1V20c.9-1 2.2-1.7 3.5-1.7 2.4 0 3.7 1.7 3.7 4.7 0 3.5-1.6 8.1-6.4 8.1-.7 0-1.5-.1-2.1-.3l-.7 4.6-3.5.4 2.4-17.1zm6.8 4.3c0-1.6-.6-2.1-1.4-2.1-.9.1-1.8.6-2.3 1.4l-.8 5.9c.5.2 1 .3 1.5.3 2.2 0 3-3.2 3-5.5zm16.1-3.4l-1 7.7c-.1.8 0 1.2.6 1.4l-1 2.3c-1.3.1-2.5-.8-2.9-2-.8 1.3-2.1 2.1-3.6 2.1-2.6 0-3.9-1.9-3.9-4.8 0-3.4 1.8-8 6.9-8 1.7 0 3.4.5 4.9 1.3zm-8.2 6.7c0 1.7.6 2.2 1.4 2.2.9 0 1.6-.6 2.3-1.6l.8-5.7c-.4-.2-.9-.2-1.3-.2-2.3-.1-3.2 3-3.2 5.3zm19.5-6.5l-1.8 2c-.6-.6-1.3-.9-2.1-.8-2.4 0-3 3-3 5 0 1.7.8 2.2 1.9 2.2.9 0 1.7-.3 2.4-.8l1.3 2.3c-1.2.9-2.6 1.4-4.1 1.4-2.6.2-4.9-1.7-5.1-4.3V26c0-3.1 1.8-7.6 6.7-7.6 1.4-.1 2.8.4 3.8 1.4z" class="st2"/><path d="M274.1 26.3c-.1 1.1.7 2 1.7 2.1h.4c1.1 0 2.2-.4 3.1-1.1l1.3 2.1c-1.4 1.1-3 1.6-4.8 1.6-2.6.3-4.9-1.5-5.2-4.1v-1c0-3.3 1.8-7.7 6.8-7.7 2.9 0 4.4 1.4 4.4 3.3 0 3.4-3.9 4.5-7.7 4.8zm4.1-4.5c0-.6-.4-1.1-1-1.1h-.2c-1.7 0-2.6 1.8-2.9 3.5 3.2-.2 4.2-1.3 4.1-2.4z" class="st2"/></g></g></svg>