<svg xmlns="http://www.w3.org/2000/svg" id="Layer_1" viewBox="0 0 300 61.5" width="300" height="61.5"><style>.st0{fill:none;stroke:#2997ff;stroke-width:3.9788;stroke-miterlimit:10}.st1{fill:#505050}.st2{fill:#2997ff}</style><g id="a70aa4e3-9fa0-418b-9c8b-0f208c8923d4"><g id="a8246d7a-be40-4df5-95d1-8dab595a319b"><path d="M292 59.9H8c-4.4 0-8-3.6-8-8V9.5c0-4.4 3.6-7.9 8-7.9h284c4.4 0 8 3.6 8 8v42.6c-.2 4.2-3.7 7.5-8 7.7z" class="st0"/><path d="M99.6 30c0 6.9-3 13.2-11.9 13.2h-6.4l3-21.2H90c5 0 9.6 1.5 9.6 8zm-11-4.4l-2 13.9h1.6c5 0 6.2-5.4 6.2-9.5 0-3.6-1.8-4.4-4.2-4.4h-1.6zm11.7 11.2c0-4.5 2.2-10.3 9-10.3 3.4-.3 6.5 2.2 6.8 5.7v1.3c0 4.5-2.2 10.3-9 10.3-3.5.3-6.5-2.2-6.8-5.7-.1-.4-.1-.9 0-1.3zm11-3.8c0-2.1-.8-3.1-2.2-3.1-3.2 0-3.9 4.6-3.9 7.1 0 2.1.8 3.1 2.2 3.1 3.2 0 3.9-4.7 3.9-7.1zm23.1 10.2h-5.6l-.4-11.9-3.8 11.9H119L117.9 27h4.8v12.6l4.2-12.6h4.6l.4 12.6 3.7-12.6h4.5c-.1-.1-5.7 16.2-5.7 16.2zm20.1-11.8l-1.6 11.7h-4.7l1.5-10.7c.2-1.7-.2-2-.9-2-1.2 0-2.4 1.6-3.6 3.9l-1.3 8.8h-4.7l2.2-16.2h4.1v2.9c1.2-2 3.3-3.2 5.5-3.4 2.5 0 3.9 1.9 3.5 5zm6.5 7.4c0 .8.1 1.1.6 1.1.3 0 .5-.1.8-.2l.7 3.4c-1 .4-2 .6-3.1.6-2.7 0-4.2-1.7-3.7-4.8l2.6-18.4 4.8-.5-2.7 18.8zm3-2c0-4.5 2.2-10.3 9-10.3 3.5-.3 6.5 2.2 6.8 5.7v1.3c0 4.5-2.2 10.4-9 10.4-3.4.3-6.5-2.2-6.8-5.7-.1-.6-.1-1 0-1.4zm11-3.8c0-2.1-.8-3.1-2.2-3.1-3.2 0-3.8 4.6-3.8 7.1 0 2.1.7 3.1 2.2 3.1 3.1 0 3.7-4.7 3.8-7.1zm21.8-4.9l-1.5 10.4c-.1 1.1-.1 1.6.8 2l-1.4 3.1c-1.7 0-3.3-1.1-3.8-2.7-1 1.7-2.9 2.8-4.8 2.8-3.4 0-5.3-2.6-5.3-6.5 0-4.7 2.4-10.8 9.3-10.8 2.4 0 4.7.6 6.7 1.7zm-11 9.1c0 2.3.8 3 1.8 3s2.2-.9 3.1-2.2l1.1-7.7c-.6-.2-1.2-.3-1.8-.3-3-.2-4.2 4-4.2 7.2zm29.3-16.7l-3.2 22.7h-4.2v-2.3c-1 1.7-2.8 2.8-4.8 2.8-3.4 0-5.1-2.5-5.1-6.6 0-4.4 2.2-10.7 7.8-10.7 1.4 0 2.8.5 3.7 1.5l1.1-7.9 4.7.5zm-12.4 16.7c0 2.3.8 3 1.8 3 1.4 0 2.5-1.4 3.5-3l.9-6c-.5-.8-1.3-1.2-2.2-1.2-3.1-.1-4 4.5-4 7.2zm33.1-11.7h-7.1l-.8 5.6h6.1l-.5 3.6h-6.1l-1.2 8.4h-4.9l3-21.2h12.4l-.9 3.6zm3.4 17.7h-4.7l2.2-16.2h4.7c.1-.1-2.2 16.2-2.2 16.2zm-2.1-21.7c0-1.7 1.3-3 3-3h.1c1.3-.1 2.4.9 2.5 2.2v.1c0 1.7-1.3 3-3 3h-.1c-1.4.1-2.5-.9-2.5-2.3zm10.4 17.3c0 .8.2 1.1.6 1.1.3 0 .5-.1.8-.2l.6 3.4c-1 .4-2 .6-3 .6-2.7 0-4.2-1.6-3.7-4.8l2.6-18.4 4.8-.5-2.7 18.8zm7.7-1.6c-.2 1.5.9 2.7 2.4 2.9h.5c1.5-.1 2.9-.6 4.1-1.5l1.7 2.9c-1.9 1.4-4.1 2.1-6.5 2.2-3.5.4-6.6-2.1-7-5.5 0-.5-.1-.9 0-1.3 0-4.4 2.4-10.4 9.2-10.4 4 0 6 2 6 4.4 0 4.5-5.3 5.8-10.4 6.3zm5.6-6.2c0-.8-.5-1.4-1.3-1.4h-.3c-2.3 0-3.4 2.4-3.9 4.7 4.2-.3 5.5-1.7 5.5-3.3zm18.7-2.5l-2.1 2.6c-1.1-.8-2.4-1.2-3.8-1.2s-2.2.6-2.2 1.3c0 .8.7 1.1 3.2 2 2.5.9 4.2 2.4 4.2 5 0 3-2.3 5.7-7.3 5.7-2.5.1-5-.9-6.8-2.7l2.4-2.5c1.2 1.1 2.7 1.7 4.4 1.7 1.7 0 2.5-.8 2.5-1.6 0-.9-.6-1.4-3.2-2.2-2.5-.9-4.1-2.3-4.1-4.7 0-2.8 2.4-5.2 6.9-5.2 2.1-.3 4.2.4 5.9 1.8z" class="st1"/><path d="M53.5 27c0-8.2-6.7-14.9-14.9-14.9s-15 6.7-15 14.9c-5.9 1.1-9.9 6.8-8.8 12.7.9 5.2 5.5 9 10.8 9h25.9c6 0 10.9-4.9 10.9-10.9 0-5.3-3.7-9.8-8.9-10.8zM38.6 40.8l-8-8h6v-7.9h4v7.9h6l-8 8z" class="st2"/></g></g></svg>