<svg xmlns="http://www.w3.org/2000/svg" id="Layer_1" viewBox="0 0 680.8 315.1" width="680.8" height="315.1"><style>.st0{fill:none;stroke:#666;stroke-width:1.5339;stroke-miterlimit:10}.st1{fill:#4d4d4d}.st2{fill:#999}</style><g id="af5cc2b3-00bd-4714-a935-220672825794"><g id="fc2b5cdb-c03f-4bc8-8de9-e6e554b17c7d"><path d="M27.8.8h130.4v289.9H27.8V.8zm521.8 0H680v289.9H549.6V.8z" class="st0"/><path d="M158.2.8h173.9v289.9H158.2V.8zm217.4 0h173.9v289.9H375.6V.8zm-43.5 0h43.5v289.9h-43.5V.8z" class="st0"/><path d="M81.1 303.9c0 6.9-2.9 9.6-9.5 11.2l-.6-2c4.3-1.2 6.9-3 7.2-6.5-.9 1.1-2.3 1.8-3.8 1.8-2.8 0-4.8-2.1-4.8-5.4 0-3.7 2.5-5.8 5.7-5.8 3.9 0 5.8 2.6 5.8 6.7zm-2.9.7c.1-3.9-.8-5.3-3-5.3-1.9 0-2.9 1.2-2.9 3.7s1.1 3.4 2.7 3.4c1.4 0 2.4-.7 3.2-1.8zm16.3 6.9l1.3 1.8c-1.3 1-2.9 1.6-4.5 1.6-4 0-6.3-2.7-6.3-6.7s2.4-6.9 6.4-6.9c1.6 0 3.2.5 4.5 1.6l-1.3 1.7c-.9-.7-2-1.1-3.2-1.1-2 0-3.5 1.5-3.5 4.7s1.5 4.5 3.5 4.5c1-.2 2.1-.6 3.1-1.2zm16.8-6.6v9.6h-2.4v-9.2c0-1.3-.1-1.9-.9-1.9-.6 0-1.3.4-1.9 1.3v9.9h-2.2v-9.3c0-1.3-.1-1.9-.9-1.9-.7 0-1.3.4-1.9 1.3v9.9h-2.5v-13h2l.2 1.4c.7-1 1.5-1.7 2.8-1.7 1-.1 2 .6 2.2 1.6.7-1 1.6-1.6 2.8-1.6 1.6-.1 2.7.7 2.7 3.6zM4.8 180.9c3 0 5.4 1.9 10.3 7.3v-7.7l2.2.3v10.5h-2.1c-5.8-6.1-7.8-7.6-10.2-7.6-1.4-.1-2.6.9-2.8 2.3v.4c0 1.5.5 2.4 1.8 3.4l-1.4 1.8c-1.7-1.3-2.7-3.3-2.6-5.4 0-3.3 2.1-5.3 4.8-5.3zm4-15.8c5.6 0 8.8 2 8.8 5.8s-3.2 5.8-8.8 5.8-8.8-2-8.8-5.8 3.2-5.8 8.8-5.8zm0 8.8c4.9 0 6.7-1.1 6.7-3s-1.9-3-6.7-3-6.7 1.1-6.7 3 1.9 3 6.7 3zm0-4.6c.9-.1 1.6.6 1.7 1.5.1.9-.6 1.6-1.5 1.7h-.2c-.9 0-1.6-.7-1.6-1.6 0-.9.7-1.6 1.6-1.6zm5.4-17.4l1.8-1.3c1 1.3 1.6 2.9 1.6 4.5 0 4-2.7 6.3-6.7 6.3S4 159 4 155c0-1.6.5-3.2 1.6-4.5l1.7 1.3c-.7.9-1.1 2-1.1 3.2 0 2 1.4 3.5 4.7 3.5s4.5-1.5 4.5-3.5c-.1-1.1-.5-2.2-1.2-3.1zm-6.5-16.8h9.6v2.4H8c-1.3 0-1.9.1-1.9.9 0 .6.4 1.3 1.3 1.9h9.9v2.2H8c-1.3 0-1.9.1-1.9.9 0 .7.4 1.3 1.3 1.9h9.9v2.4h-13v-2l1.4-.2c-1-.7-1.7-1.5-1.7-2.8-.1-1 .6-2 1.6-2.2-1-.7-1.6-1.6-1.6-2.8 0-1.5.8-2.6 3.7-2.6zm221 177.2v2.2h-10.2v-2.2h4.1v-12l-3.7 2.3-1.2-1.9 5.2-3.2h2.4v14.8h3.4zm13.8-10.3c0 3-1.9 5.4-7.3 10.3h7.7l-.3 2.2h-10.5v-2.1c6.1-5.8 7.6-7.8 7.6-10.2 0-1.7-1-2.7-2.8-2.7-1.5 0-2.4.5-3.4 1.8l-1.7-1.4c1.3-1.7 3.3-2.7 5.4-2.6 3.4-.1 5.3 2.1 5.3 4.7zm14.3 9.5l1.3 1.8c-1.3 1-2.9 1.6-4.5 1.6-4 0-6.3-2.7-6.3-6.7s2.4-6.9 6.4-6.9c1.6 0 3.2.5 4.5 1.6l-1.3 1.7c-.9-.7-2-1.1-3.2-1.1-2 0-3.5 1.5-3.5 4.7s1.5 4.5 3.5 4.5c1.1-.2 2.2-.6 3.1-1.2zm16.8-6.6v9.6h-2.4v-9.2c0-1.3-.1-1.9-.9-1.9-.6 0-1.3.4-1.9 1.3v9.9h-2.2v-9.3c0-1.3-.1-1.9-.9-1.9-.7 0-1.3.4-1.9 1.3v9.9h-2.5v-13h2l.2 1.4c.7-1 1.5-1.7 2.8-1.7 1-.1 2 .6 2.2 1.6.7-1 1.6-1.6 2.8-1.6 1.6-.1 2.7.7 2.7 3.6zm70.3-3.4c0 2.1-1.5 3.5-3.4 4 2.1.2 3.9 1.5 3.9 4.2 0 2.9-2.4 5.2-6.1 5.2-2.1.1-4.1-.8-5.5-2.4l1.7-1.5c.9 1.1 2.3 1.7 3.7 1.7 2.1 0 3.4-1.2 3.4-3.1 0-2.2-1.3-3-3.3-3h-1.4l.3-2h1c1.6 0 3-.9 3-2.7 0-1.6-1.3-2.6-2.9-2.6-1.3 0-2.6.6-3.5 1.5l-1.4-1.6c1.4-1.4 3.2-2.1 5.2-2.1 3.2.1 5.3 2.1 5.3 4.4zm14.3 10l1.3 1.8c-1.3 1-2.9 1.6-4.5 1.6-4 0-6.3-2.7-6.3-6.7s2.4-6.9 6.4-6.9c1.6 0 3.2.5 4.5 1.6l-1.3 1.7c-.9-.7-2-1.1-3.2-1.1-2 0-3.5 1.5-3.5 4.7s1.5 4.5 3.5 4.5c1-.2 2.1-.6 3.1-1.2zm16.7-6.6v9.6h-2.4v-9.2c0-1.3-.1-1.9-.9-1.9-.6 0-1.3.4-1.9 1.3v9.9h-2.2v-9.3c0-1.3-.1-1.9-.9-1.9-.7 0-1.3.4-1.9 1.3v9.9h-2.5v-13h2l.2 1.4c.7-1 1.5-1.7 2.8-1.7 1-.1 2 .6 2.2 1.6.7-1 1.6-1.6 2.8-1.6 1.6-.1 2.7.7 2.7 3.6zm71.2 7.4v2.2h-10.2v-2.2h4.1v-12l-3.7 2.3-1.2-1.9 5.2-3.2h2.4v14.8h3.4zm13.8-10.3c0 3-1.9 5.4-7.3 10.3h7.7l-.3 2.2h-10.5v-2.1c6.1-5.8 7.6-7.8 7.6-10.2 0-1.7-1-2.7-2.8-2.7-1.5 0-2.4.5-3.4 1.8l-1.8-1.4c1.3-1.7 3.3-2.7 5.4-2.6 3.5-.1 5.4 2.1 5.4 4.7zm14.3 9.5l1.3 1.8c-1.3 1-2.9 1.6-4.5 1.6-4 0-6.3-2.7-6.3-6.7s2.4-6.9 6.4-6.9c1.6 0 3.2.5 4.5 1.6l-1.3 1.7c-.9-.7-2-1.1-3.2-1.1-2 0-3.5 1.5-3.5 4.7s1.5 4.5 3.5 4.5c1.1-.2 2.2-.6 3.1-1.2zm16.8-6.6v9.6h-2.4v-9.2c0-1.3-.1-1.9-.9-1.9-.6 0-1.3.4-1.9 1.3v9.9h-2.2v-9.3c0-1.3-.1-1.9-.9-1.9-.7 0-1.3.4-1.9 1.3v9.9h-2.5v-13h2l.2 1.4c.7-1 1.5-1.7 2.8-1.7 1-.1 2 .6 2.2 1.6.7-1 1.6-1.6 2.8-1.6 1.6-.1 2.7.7 2.7 3.6zm-51.3-174.8l-1.5 1.8c-1-.8-2.2-1.3-3.5-1.3-2.5 0-4.7 1.8-4.7 6.6 0 4.7 2 6.5 4.7 6.5 1.4 0 2.8-.5 3.8-1.5l1.4 1.7c-1.4 1.4-3.3 2.1-5.3 2-4.3 0-7.6-3.1-7.6-8.8 0-5.7 3.4-8.8 7.5-8.8 1.9 0 3.7.7 5.2 1.8zm14 9.1c0 4.1-2.1 6.8-5.9 6.8s-5.9-2.6-5.9-6.8c0-4 2.1-6.8 5.9-6.8s5.9 2.7 5.9 6.8zm-8.8 0c0 3.2 1 4.7 3 4.7s3-1.5 3-4.7-1-4.7-2.9-4.7-3.1 1.5-3.1 4.7zm19.3 6.5H461l-4.6-13h3l3.3 10.7 3.3-10.7h2.8l-4.6 13zm13.8-1.8c1.2 0 2.4-.4 3.4-1.1l1.2 1.7c-1.3 1.1-3 1.6-4.7 1.6-4 0-6.3-2.8-6.3-6.8 0-3.9 2.2-6.8 5.9-6.8 3.4 0 5.6 2.5 5.6 6.5 0 .4 0 .8-.1 1.2h-8.6c.2 2.6 1.7 3.7 3.6 3.7zm-3.6-5.6h6c0-2.5-1.1-3.8-2.9-3.8-1.7-.1-2.9 1.1-3.1 3.8zm23.6-5.6l-.5 4.8h-2v-2.7c-1.8.1-3.2 1.5-3.9 4.1v4.8h2.6v2H487v-2h1.9v-9.1H487v-2h4l.5 3c1-2.2 2.3-3.3 4.6-3.3.6.1 1.3.2 1.9.4zm-278.4 13h-5v-17h4.6c3.2 0 6.2 1 6.2 4.3 0 2.1-1.5 3.3-3.1 3.7 1.8.3 3.9 1.3 3.9 4.1 0 3.8-3.3 4.9-6.6 4.9zm-.1-14.8h-2v4.9h2.2c1.9 0 2.9-.7 2.9-2.5s-1.2-2.4-3.1-2.4zm.3 7h-2.4v5.6h2.3c1.6 0 3.4-.4 3.4-2.7s-1.3-2.9-3.3-2.9zm20.6 6.3l-.6 1.9c-1.2-.1-2.2-.7-2.7-1.8-1 1.2-2.5 1.9-4.1 1.8-2.7 0-4.3-1.6-4.3-4 0-2.7 2.2-4.2 6.2-4.2h1.8v-.8c0-1.7-1.1-2.4-2.9-2.4-1.2 0-2.3.3-3.4.7l-.7-1.9c1.4-.6 3-.9 4.5-.9 3.5 0 5.2 1.6 5.2 4.3v5.8c0 .8.3 1.2 1 1.5zm-3.7-1.9v-2.9h-1.5c-2.6 0-3.6.9-3.6 2.4 0 1.4.7 2.1 2.2 2.1 1.2.1 2.3-.5 2.9-1.6zm17 .4l1.3 1.8c-1.3 1-2.9 1.6-4.5 1.6-4 0-6.3-2.7-6.3-6.7s2.4-6.9 6.4-6.9c1.6 0 3.2.5 4.5 1.6l-1.3 1.7c-.9-.7-2-1.1-3.2-1.1-2 0-3.5 1.4-3.5 4.7s1.5 4.5 3.5 4.5c1.1-.2 2.2-.6 3.1-1.2zm8.1 3H259v-18.2l2.8-.3v18.5zm3.4-7.1l5.8 7.2h-3.4l-5.6-7.1 5.2-5.9h3.2l-5.2 5.8zm-194.7 7.1h-5v-17h4.6c3.2 0 6.2 1 6.2 4.3 0 2.1-1.5 3.3-3.1 3.7 1.8.3 3.9 1.3 3.9 4.1 0 3.8-3.3 4.9-6.6 4.9zm-.1-14.8h-2v4.9h2.2c1.9 0 2.9-.7 2.9-2.5s-1.1-2.4-3.1-2.4zm.4 7h-2.4v5.6h2.3c1.6 0 3.4-.4 3.4-2.7s-1.4-2.9-3.3-2.9zm20.6 6.3l-.6 1.9c-1.3-.1-2.2-.7-2.7-1.8-1 1.2-2.5 1.9-4.1 1.8-2.6 0-4.3-1.6-4.3-4 0-2.7 2.2-4.2 6.1-4.2h1.8v-.8c0-1.7-1.1-2.4-2.9-2.4-1.2 0-2.3.3-3.4.7l-.7-1.9c1.4-.6 3-.9 4.5-.9 3.5 0 5.2 1.6 5.2 4.3v5.8c.1.8.4 1.2 1.1 1.5zm-3.8-1.9v-2.9h-1.5c-2.6 0-3.6.9-3.6 2.4 0 1.4.7 2.1 2.2 2.1 1.2.1 2.3-.5 2.9-1.6zm17 .4l1.3 1.8c-1.3 1-2.9 1.6-4.5 1.6-4 0-6.3-2.7-6.3-6.7s2.4-6.9 6.4-6.9c1.6 0 3.2.5 4.5 1.6l-1.3 1.7c-.9-.7-2-1.1-3.2-1.1-2 0-3.5 1.4-3.5 4.7s1.5 4.5 3.5 4.5c1.1-.2 2.2-.6 3.1-1.2zm8.1 3H110v-18.2l2.8-.3v18.5zm3.4-7.1l5.8 7.2h-3.4l-5.6-7.1 5.2-5.9h3.2l-5.2 5.8zm-46.6 27.2h6.4v2.2h-6.4v7.2h-2.8v-16.9h10.4l-.3 2.2h-7.3v5.3zm16.6 5.8c0 1.2.8 1.6 2 1.6.7 0 1.4-.2 2-.4l.7 1.9c-1 .5-2.2.8-3.3.7-2.6 0-4.1-1.5-4.1-4.1V159h-3.9v-2h6.6v14.6zm20 2l-.6 1.9c-1.3-.1-2.2-.7-2.7-1.8-1 1.2-2.5 1.9-4.1 1.8-2.6 0-4.3-1.6-4.3-4 0-2.7 2.2-4.2 6.2-4.2h1.8v-.8c0-1.7-1.1-2.4-2.9-2.4-1.2 0-2.3.3-3.4.7l-.7-1.9c1.4-.6 3-.9 4.5-.9 3.5 0 5.2 1.6 5.2 4.3v5.8c0 .9.3 1.3 1 1.5zm-3.7-1.8v-2.9h-1.5c-2.6 0-3.6.9-3.6 2.4 0 1.4.7 2.1 2.2 2.1 1.2.1 2.3-.6 2.9-1.6zm18.5-3.1c0 4-1.7 6.8-5 6.8-1.3 0-2.5-.5-3.3-1.4v6.1l-2.8.3v-18.3h2.4l.2 1.7c.9-1.2 2.3-2 3.8-2 3.4 0 4.7 2.6 4.7 6.8zm-8.2-2.9v6.1c.5.9 1.5 1.4 2.6 1.4 1.9 0 2.8-1.4 2.8-4.7 0-3.3-.9-4.7-2.6-4.7-1.3.1-2.2.9-2.8 1.9zm471.2-29.5h6.4v2.2h-6.4v7.2h-2.8v-17h10.4l-.3 2.2h-7.3v5.4zm22.1-3.6l-.5 4.8h-2v-2.7c-1.8.1-3.2 1.5-3.9 4.1v4.8h2.6v2H595v-2h1.9v-9.1H595v-2h4l.5 3c1-2.2 2.3-3.3 4.6-3.3.7.1 1.3.2 1.9.4zm14.6 6.5c0 4.1-2.1 6.8-5.9 6.8s-5.9-2.6-5.9-6.8c0-4 2.1-6.8 5.9-6.8s5.9 2.7 5.9 6.8zm-8.8 0c0 3.2 1 4.7 3 4.7s3-1.5 3-4.7-1-4.7-2.9-4.7-3.1 1.5-3.1 4.7zm12.5-6.5h2.4l.2 1.7c1-1.3 2.6-2 4.2-2 2.4 0 3.6 1.4 3.6 3.9v9.5H632v-8.1c0-2.3-.3-3.1-1.8-3.1-1.3 0-2.4.9-3 1.9v9.3h-2.8l-.1-13.1zm21.8 13.3c-3 0-4.6-1.7-4.6-4.2v-7h-2.9v-2h2.9v-2.9l2.7-.3v3.2h4.4l-.3 2h-4.1v7c0 1.4.7 2 2.3 2 .8 0 1.7-.2 2.4-.6l1 1.8c-1.2.7-2.5 1-3.8 1zm-54.8 19.8h6.4v2.2h-6.4v7.2h-2.8v-16.9h10.4l-.3 2.2h-7.3v5.3zm16.6 5.8c0 1.2.8 1.6 2 1.6.7 0 1.4-.2 2-.4l.7 1.9c-1 .5-2.2.8-3.3.7-2.6 0-4.1-1.5-4.1-4.1V159h-3.9v-2h6.6v14.6zm20 2l-.6 1.9c-1.3-.1-2.2-.7-2.7-1.8-1 1.2-2.5 1.9-4.1 1.8-2.6 0-4.3-1.6-4.3-4 0-2.7 2.2-4.2 6.1-4.2h1.8v-.8c0-1.7-1.1-2.4-2.9-2.4-1.2 0-2.3.3-3.4.7l-.7-1.9c1.4-.6 3-.9 4.5-.9 3.5 0 5.2 1.6 5.2 4.3v5.8c.1.9.4 1.3 1.1 1.5zm-3.7-1.8v-2.9h-1.5c-2.6 0-3.6.9-3.6 2.4 0 1.4.7 2.1 2.2 2.1 1.1.1 2.2-.6 2.9-1.6zm18.5-3.1c0 4-1.7 6.8-5 6.8-1.3 0-2.5-.5-3.3-1.4v6.1l-2.8.3v-18.3h2.4l.2 1.7c.9-1.2 2.3-2 3.8-2 3.4 0 4.7 2.6 4.7 6.8zm-8.3-2.9v6.1c.5.9 1.5 1.4 2.6 1.4 1.9 0 2.8-1.4 2.8-4.7 0-3.3-.9-4.7-2.6-4.7-1.2.1-2.1.9-2.8 1.9z" class="st1"/><path d="M582.3 267.1c-1.4.1-2.8-.4-3.9-1.4l1-1.1c.8.7 1.8 1.1 2.9 1.1 1.2 0 2.2-.6 2.2-1.7 0-.9-.5-1.4-2.2-1.9-2.3-.7-3.4-1.5-3.4-3.1 0-1.7 1.5-2.9 3.6-2.9 1.3-.1 2.6.4 3.5 1.3l-.9 1.1c-.7-.6-1.6-.9-2.5-.9-1.1 0-1.9.4-1.9 1.4 0 .8.6 1.2 2.5 1.8 1.8.5 3.1 1.3 3.1 3.3.1 1.7-1.4 3-4 3zm10.5-.2c-.6 1.8-1.7 3.1-4 3.3l-.2-1.3c1.6-.3 2.2-.9 2.6-2h-.6l-2.7-8.1h1.8l2 6.9 2-6.9h1.8l-2.7 8.1zm4.9-8.1h1.5l.1 1.1c.6-.8 1.6-1.3 2.6-1.3 1.5 0 2.3.9 2.3 2.4v5.9h-1.7v-5c0-1.4-.2-1.9-1.2-1.9-.8.1-1.5.5-1.9 1.2v5.8h-1.7v-8.2zm16.1 4c0 2.6-1.3 4.3-3.7 4.3s-3.7-1.6-3.7-4.2 1.3-4.3 3.7-4.3c2.5 0 3.7 1.7 3.7 4.2zm-5.5 0c0 2 .6 2.9 1.9 2.9 1.2 0 1.9-.9 1.9-2.9s-.6-2.9-1.8-2.9-2 .9-2 2.9zm14.7 0c0 2.5-1.1 4.3-3.1 4.3-.8 0-1.5-.3-2-.9v3.8l-1.7.2v-11.4h1.5l.1 1c.5-.8 1.4-1.2 2.4-1.3 2 .1 2.8 1.8 2.8 4.3zm-5.1-1.7v3.8c.3.6.9.9 1.6.9 1.2 0 1.8-.9 1.8-2.9s-.5-2.9-1.6-2.9c-.8 0-1.5.4-1.8 1.1zm12.2 3.6c0-.7-.3-1-1.9-1.4-1.7-.4-2.7-1-2.7-2.4s1.2-2.3 3.2-2.3c1.1 0 2.2.3 3.1.9l-.7 1.1c-.7-.5-1.5-.7-2.3-.7-1.1 0-1.5.4-1.5.9 0 .6.4.8 2 1.3 1.6.4 2.6 1 2.6 2.5 0 1.8-1.7 2.5-3.6 2.5-1.2 0-2.4-.4-3.3-1.1l.9-1c.7.6 1.5.9 2.4.9 1.1-.1 1.8-.5 1.8-1.2zm8.9.9h2.2v1.3h-6.3v-1.3h2.4V260H635v-1.3h4v6.9zm-.1-9.7c0 .6-.5 1.1-1.1 1.2-.6 0-1.1-.5-1.2-1.1 0-.6.5-1.1 1.1-1.2.7 0 1.2.5 1.2 1.1zm9.6 8.8c0-.7-.3-1-1.9-1.4-1.7-.4-2.7-1-2.7-2.4s1.2-2.3 3.2-2.3c1.1 0 2.2.3 3.1.9l-.7 1.1c-.7-.5-1.5-.7-2.3-.7-1.1 0-1.5.4-1.5.9 0 .6.4.8 2 1.3 1.6.4 2.6 1 2.6 2.5 0 1.8-1.7 2.5-3.6 2.5-1.2 0-2.4-.4-3.3-1.1l.9-1c.7.6 1.5.9 2.4.9 1.1-.1 1.8-.5 1.8-1.2zM49.7 237.1l-.7 2.6h-1.8l3.4-10.6h2.2l3.4 10.6h-1.9l-.7-2.6h-3.9zm3.4-1.4l-1.5-5.3-1.5 5.3h3zm6.2 1.5c0 .9.4 1.3 1.2 1.3.8 0 1.5-.5 1.9-1.1v-5.9H64v8.1h-1.5l-.1-1c-.6.8-1.6 1.3-2.6 1.2-1.6 0-2.3-.9-2.3-2.4v-5.9h1.7l.1 5.7zm11.8 2.6c-1.9 0-2.9-1.1-2.9-2.6v-4.4h-1.8v-1.3h1.8v-1.8l1.7-.2v2h2.7l-.2 1.3H70v4.4c0 .9.4 1.3 1.4 1.3.5 0 1-.1 1.5-.4l.6 1.1c-.7.4-1.5.6-2.4.6zm6.6-7.3c.6-.8 1.5-1.2 2.5-1.2 1.5 0 2.3.9 2.3 2.4v5.9h-1.7V234c0-1-.4-1.3-1.2-1.3-.8.1-1.5.5-1.9 1.2v5.8H76v-11.4l1.7-.2v4.4zm14.4 3.1c0 2.6-1.3 4.3-3.7 4.3-2.3 0-3.7-1.6-3.7-4.2 0-2.5 1.3-4.3 3.7-4.3s3.7 1.6 3.7 4.2zm-5.6 0c0 2 .6 2.9 1.9 2.9 1.2 0 1.9-.9 1.9-2.9s-.6-2.9-1.8-2.9-2 .9-2 2.9zm14.8-4.1l-.3 3h-1.2v-1.7c-1.2 0-2 1-2.5 2.5v3H99v1.2h-4.5v-1.2h1.2v-5.6h-1.2v-1.2H97l.3 1.9c.6-1.3 1.5-2.1 2.9-2.1.3 0 .7.1 1.1.2zm14.4 8.1h-3.1V229h2.9c2 0 3.9.6 3.9 2.7 0 1.1-.8 2.1-2 2.3 1.2.2 2.4.8 2.4 2.6.1 2.3-2 3-4.1 3zm0-9.2h-1.3v3.1h1.4c1.2 0 1.8-.5 1.8-1.6s-.7-1.5-1.9-1.5zm.2 4.4h-1.5v3.5h1.4c1 0 2.1-.3 2.1-1.7.1-1.4-.8-1.8-2-1.8zm10.5 3.6h2.2v1.3h-6.3v-1.3h2.4v-5.6h-2.3v-1.3h4v6.9zm-.1-9.7c0 .6-.5 1.1-1.1 1.2s-1.1-.5-1.2-1.1c0-.6.5-1.1 1.1-1.2.7-.1 1.2.4 1.2 1.1 0-.1 0-.1 0 0zm11.8 6.9c0 2.6-1.3 4.3-3.7 4.3s-3.7-1.6-3.7-4.2c0-2.5 1.3-4.3 3.7-4.3 2.4-.1 3.7 1.6 3.7 4.2zm-5.5 0c0 2 .6 2.9 1.9 2.9s1.9-.9 1.9-2.9-.6-2.9-1.8-2.9-2 .9-2 2.9zm-76.5 27.5h-1.3v3.8H53v-10.6h3c2.7 0 4.2 1.1 4.2 3.3 0 2.5-1.7 3.5-4.1 3.5zm0-5.4h-1.3v4.1h1.3c1.3 0 2.3-.5 2.3-2.1 0-1.5-.9-2-2.3-2zm7.8 6.8c0 1 .4 1.3 1.2 1.3.8 0 1.5-.5 1.9-1.1v-5.9h1.7v8.1h-1.5l-.1-1c-.6.8-1.6 1.3-2.6 1.2-1.6 0-2.3-.9-2.3-2.4v-5.9h1.7v5.7zm11.4-5.9c2.1 0 3 1.7 3 4.2s-1.1 4.3-3.2 4.3c-.8 0-1.6-.4-2.1-1l-.1.8h-1.5v-11.4l1.7-.2v4.4c.5-.7 1.3-1.1 2.2-1.1zm1.2 4.3c0-2.1-.6-2.9-1.7-2.9-.7.1-1.4.5-1.7 1.2v3.8c.3.6.9.9 1.6.9 1.1-.1 1.8-1 1.8-3zm7.6 1.8c0 .8.5 1 1.2 1 .4 0 .9-.1 1.3-.3l.4 1.2c-.6.3-1.4.5-2.1.5-1.6 0-2.6-1-2.6-2.6v-7.7H80v-1.3h4.2l-.1 9.2zm10.1.9h2.2v1.3H90v-1.3h2.4V260h-2.3v-1.3h4l.1 6.9zm-.1-9.7c0 .6-.5 1.1-1.1 1.2-.6 0-1.1-.5-1.2-1.1 0-.6.5-1.1 1.1-1.2.7 0 1.2.5 1.2 1.1zm9.6 8.8c0-.7-.3-1-1.9-1.4-1.7-.4-2.7-1-2.7-2.4s1.2-2.3 3.2-2.3c1.1 0 2.2.3 3.1.9l-.7 1.1c-.7-.5-1.5-.7-2.3-.7-1.1 0-1.5.4-1.5.9 0 .6.4.8 2 1.3s2.6 1 2.6 2.5c0 1.8-1.7 2.5-3.6 2.5-1.2 0-2.4-.4-3.3-1.1l.9-1c.7.6 1.5.9 2.4.9 1.1-.1 1.8-.5 1.8-1.2zm6.2-4.9c.6-.8 1.5-1.2 2.5-1.2 1.5 0 2.3.9 2.3 2.4v5.9H113v-5.6c0-1-.4-1.3-1.2-1.3-.8.1-1.5.5-1.9 1.2v5.8h-1.7v-11.3l1.7-.2v4.3zm11.1 6c.8 0 1.5-.3 2.1-.7l.7 1c-.8.7-1.9 1-2.9 1-2.5 0-3.9-1.7-3.9-4.2 0-2.4 1.4-4.3 3.7-4.3 2.1 0 3.5 1.5 3.5 4v.8h-5.4c.1 1.7 1 2.4 2.2 2.4zm-2.2-3.6h3.8c0-1.5-.7-2.4-1.8-2.4-1.1.1-1.9.8-2 2.4zm14.7-3.4l-.3 3H132v-1.7c-1.2 0-2 1-2.5 2.6v3h1.6v1.2h-4.5v-1.2h1.2v-5.6h-1.2v-1.2h2.5l.3 1.9c.6-1.3 1.5-2.1 2.9-2.1.4-.1.8 0 1.2.1zm-51.1 15.6h-2.3v7.9h2.3v1.4H76v-1.4h2.3v-7.9H76v-1.3h6.4v1.3zm2.8 1.2h1.5l.1 1.1c.6-.8 1.6-1.3 2.6-1.3 1.5 0 2.3.9 2.3 2.4v5.9H90v-5c0-1.4-.2-1.9-1.2-1.9-.8.1-1.5.5-1.9 1.2v5.8h-1.7v-8.2zm16.5-3l-.5 1.2c-.5-.2-1.1-.3-1.7-.3-1.1 0-1.6.4-1.6 1.3v1.4h2.7l-.2 1.3h-2.5v6.2h-1.7v-6.2h-1.8v-1.3h1.8v-1.5c0-1.5 1.2-2.6 3.1-2.6.8 0 1.6.2 2.4.5zm8.8 7c0 2.6-1.3 4.3-3.7 4.3s-3.7-1.6-3.7-4.2 1.3-4.3 3.7-4.3c2.4 0 3.7 1.6 3.7 4.2zm-5.6 0c0 2 .6 2.9 1.9 2.9 1.2 0 1.9-.9 1.9-2.9s-.6-2.9-1.8-2.9-2 .9-2 2.9zm107.8-12.7h-3.1v-10.6h2.9c2 0 3.9.6 3.9 2.7 0 1.1-.8 2.1-2 2.3 1.2.2 2.4.8 2.4 2.6 0 2.3-2 3-4.1 3zm0-9.2h-1.3v3.1h1.4c1.2 0 1.8-.5 1.8-1.6s-.7-1.5-1.9-1.5zm.2 4.3h-1.5v3.5h1.4c1 0 2.1-.3 2.1-1.7.1-1.4-.8-1.8-2-1.8zm12.8 3.9l-.4 1.2c-.7 0-1.4-.5-1.7-1.1-.6.7-1.6 1.2-2.6 1.1-1.7 0-2.7-1-2.7-2.5 0-1.7 1.4-2.7 3.9-2.7h1.2v-.5c0-1.1-.7-1.5-1.8-1.5-.7 0-1.5.2-2.1.4l-.4-1.2c.9-.4 1.9-.5 2.8-.6 2.2 0 3.2 1 3.2 2.7v3.6c0 .8.2 1 .6 1.1zm-2.3-1.1V263h-1c-1.6 0-2.2.6-2.2 1.5-.1.7.4 1.2 1.1 1.3h.3c.8 0 1.4-.4 1.8-1zm11.7-6l-.3 3h-1.2v-1.7c-1.2 0-2 1-2.5 2.6v3h1.6v1.2h-4.5v-1.2h1.2v-5.6h-1.2v-1.2h2.5l.3 1.9c.6-1.3 1.5-2.1 2.9-2.1.4-.1.8 0 1.2.1zm18.8-1.6l-.9 1.1c-.6-.5-1.4-.8-2.2-.8-1.6 0-2.9 1.1-2.9 4.1s1.3 4.1 2.9 4.1c.9 0 1.7-.3 2.4-.9l.9 1.1c-.9.8-2.1 1.3-3.3 1.3-2.7 0-4.7-1.9-4.7-5.5s2.1-5.5 4.7-5.5c1-.1 2.2.2 3.1 1zm8.8 5.6c0 2.6-1.3 4.3-3.7 4.3s-3.7-1.6-3.7-4.2 1.3-4.3 3.7-4.3 3.7 1.7 3.7 4.2zm-5.6 0c0 2 .6 2.9 1.9 2.9s1.9-.9 1.9-2.9-.6-2.9-1.8-2.9-2 .9-2 2.9zm14.3-7.2V267h-1.5l-.1-1c-.5.8-1.4 1.2-2.3 1.2-2.1 0-3.1-1.7-3.1-4.2s1.2-4.3 3.2-4.3c.8 0 1.5.3 2 .9v-4.1l1.8.1zm-5.1 7.3c0 2 .6 2.9 1.7 2.9.7-.1 1.4-.5 1.7-1.2v-3.8c-.3-.6-.9-.9-1.6-.9-1.1 0-1.8.9-1.8 3zm11.5 2.9c.8 0 1.5-.3 2.1-.7l.7 1c-.8.7-1.9 1-2.9 1-2.5 0-3.9-1.7-3.9-4.2 0-2.4 1.4-4.3 3.7-4.3 2.1 0 3.5 1.5 3.5 4v.8h-5.4c.1 1.7 1 2.4 2.2 2.4zm-2.2-3.6h3.8c0-1.5-.7-2.4-1.8-2.4-1.2.1-1.9.8-2 2.4zm-85.7-26.3h-1.3v3.8h-1.8v-10.6h2.9c2.7 0 4.2 1.1 4.2 3.3.1 2.4-1.6 3.5-4 3.5zm0-5.5h-1.3v4.1h1.3c1.3 0 2.3-.5 2.3-2.1 0-1.5-1-2-2.3-2zm13 1.1l-.3 3h-1.2v-1.7c-1.2 0-2 1-2.5 2.5v3h1.6v1.2H196v-1.2h1.2v-5.6H196v-1.2h2.5l.3 1.9c.6-1.3 1.5-2.1 2.9-2.1.4 0 .8.1 1.2.2zm9.1 4.1c0 2.6-1.3 4.3-3.7 4.3s-3.7-1.6-3.7-4.2c0-2.5 1.3-4.3 3.7-4.3s3.7 1.6 3.7 4.2zm-5.5 0c0 2 .6 2.9 1.9 2.9s1.9-.9 1.9-2.9-.6-2.9-1.8-2.9-2 .9-2 2.9zm15-2v6H220v-5.8c0-.8-.1-1.2-.5-1.2-.5 0-1 .4-1.2.8v6.1h-1.4v-5.8c0-.8-.1-1.2-.5-1.2-.5 0-1 .4-1.2.8v6.1h-1.5v-8h1.3l.1.9c.5-.6 1-1.1 1.7-1.1.6 0 1.2.4 1.4 1 .4-.6 1.1-1 1.8-1 .8.1 1.5.6 1.5 2.4zm8.9 2c0 2.6-1.3 4.3-3.7 4.3s-3.7-1.6-3.7-4.2c0-2.5 1.3-4.3 3.7-4.3 2.5-.1 3.7 1.6 3.7 4.2zm-5.5 0c0 2 .6 2.9 1.9 2.9s1.9-.9 1.9-2.9-.6-2.9-1.8-2.9-2 .9-2 2.9zm24.4-5.7l-.9 1.1c-.6-.5-1.4-.8-2.2-.8-1.6 0-2.9 1.1-2.9 4.1 0 3 1.3 4.1 2.9 4.1.9 0 1.7-.3 2.4-.9l.9 1.1c-.9.9-2.1 1.3-3.3 1.3-2.7 0-4.7-1.9-4.7-5.5s2.1-5.5 4.7-5.5c1-.1 2.2.3 3.1 1zm8.8 5.7c0 2.6-1.3 4.3-3.7 4.3s-3.7-1.6-3.7-4.2c0-2.5 1.3-4.3 3.7-4.3s3.7 1.6 3.7 4.2zm-5.6 0c0 2 .6 2.9 1.9 2.9s1.9-.9 1.9-2.9-.6-2.9-1.8-2.9-2 .9-2 2.9zm7.9-4.1h1.5l.1 1.1c.6-.8 1.6-1.3 2.6-1.3 1.5 0 2.3.9 2.3 2.4v5.9h-1.7v-5c0-1.4-.2-1.9-1.2-1.9-.8.1-1.5.5-1.9 1.2v5.8h-1.7v-8.2zm13.6 8.3c-1.9 0-2.9-1.1-2.9-2.6v-4.4h-1.8v-1.3h1.8v-1.8l1.7-.2v2h2.7l-.2 1.3h-2.6v4.4c0 .9.4 1.3 1.4 1.3.5 0 1-.1 1.5-.4l.6 1.1c-.6.4-1.4.6-2.2.6zm8.4-1.3c.8 0 1.5-.3 2.1-.7l.7 1c-.8.7-1.9 1-2.9 1-2.5 0-3.9-1.7-3.9-4.2 0-2.4 1.4-4.3 3.7-4.3 2.1 0 3.5 1.5 3.5 4v.8h-5.4c.1 1.7 1 2.4 2.2 2.4zm-2.2-3.5h3.8c0-1.5-.7-2.4-1.8-2.4s-1.9.7-2 2.4zm7.8-3.5h1.5l.1 1.1c.6-.8 1.6-1.3 2.6-1.3 1.5 0 2.3.9 2.3 2.4v5.9h-1.7v-5c0-1.4-.2-1.9-1.2-1.9-.8.1-1.5.5-1.9 1.2v5.8H288v-8.2zm13.6 8.3c-1.9 0-2.9-1.1-2.9-2.6v-4.4h-1.8v-1.3h1.8v-1.8l1.7-.2v2h2.7l-.2 1.3h-2.6v4.4c0 .9.4 1.3 1.4 1.3.5 0 1-.1 1.5-.4l.6 1.1c-.6.4-1.4.6-2.2.6z" class="st2"/><path d="M360.8 175.5c0 2.8-.9 4.8-2.3 6.2l-1.7-1.6c1.2-1.3 1.8-2.9 1.8-4.7 0-1.9-.9-3.5-2.7-3.5-1.5 0-2.2.8-3 3.5-1.1 3.6-2.4 5.5-5 5.5-2.8 0-4.6-2.5-4.6-5.8-.1-2.1.7-4.1 2-5.7l1.7 1.5c-1 1.1-1.5 2.5-1.5 4 0 1.7.7 3.1 2.2 3.1 1.3 0 1.9-.9 2.8-4 .9-2.9 2-5 5.3-5 2.9 0 5 2.4 5 6.5zm-6.8-20.9c4 0 6.8 1.7 6.8 5 0 1.3-.5 2.5-1.4 3.3h6.1l.3 2.8h-18.3v-2.4l1.7-.2c-1.2-.9-2-2.3-2-3.8-.1-3.4 2.6-4.7 6.8-4.7zm-2.9 8.3h6.1c.9-.5 1.4-1.5 1.4-2.6 0-1.9-1.4-2.8-4.7-2.8-3.3 0-4.7.9-4.7 2.6.1 1.2.9 2.1 1.9 2.8zm-8.2-19c1 0 1.8.7 1.9 1.7 0 1-.7 1.8-1.7 1.9-1 0-1.8-.7-1.9-1.7v-.1c-.1-.9.7-1.7 1.6-1.8h.1zm15.5-.1v-3.5h2v10.1h-2v-3.9h-8.9v3.7h-2v-6.5l10.9.1zm-10.9-7.6v-2.4l1.7-.2c-1.3-1-2-2.6-2-4.2 0-2.4 1.4-3.6 3.9-3.6h9.4v2.7h-8.1c-2.3 0-3.1.3-3.1 1.8 0 1.3.9 2.4 1.9 3.1h9.3v2.7l-13 .1zm11.1-20.6c0-1.2-.4-2.4-1.1-3.4l1.7-1.2c1.1 1.3 1.6 3 1.6 4.7 0 4-2.8 6.3-6.8 6.3-3.9 0-6.8-2.2-6.8-5.9 0-3.4 2.5-5.6 6.5-5.6.4 0 .8 0 1.2.1v8.6c2.6-.2 3.7-1.7 3.7-3.6zm-5.6 3.6v-6c-2.5.1-3.8 1.1-3.8 2.9 0 1.7 1.2 2.9 3.8 3.1zm252.6 184.7c0 6.9-2.9 9.6-9.5 11.2l-.6-2c4.3-1.2 6.9-3 7.2-6.5-.9 1.1-2.3 1.8-3.8 1.8-2.8 0-4.8-2.1-4.8-5.4 0-3.7 2.5-5.8 5.7-5.8 4 0 5.8 2.6 5.8 6.7zm-2.8.7c.1-3.9-.8-5.3-3-5.3-1.9 0-2.9 1.2-2.9 3.7s1.1 3.4 2.7 3.4c1.4 0 2.3-.7 3.2-1.8zm16.3 6.9l1.2 1.8c-1.3 1-2.9 1.6-4.5 1.6-4 0-6.3-2.7-6.3-6.7s2.4-6.9 6.4-6.9c1.6 0 3.2.5 4.5 1.6l-1.3 1.7c-.9-.7-2-1.1-3.2-1.1-2 0-3.5 1.5-3.5 4.7s1.5 4.5 3.5 4.5c1.1-.2 2.2-.6 3.2-1.2zm16.7-6.6v9.6h-2.4v-9.2c0-1.3-.1-1.9-.9-1.9-.6 0-1.3.4-1.9 1.3v9.9h-2.2v-9.3c0-1.3-.1-1.9-.9-1.9-.7 0-1.3.4-1.9 1.3v9.9h-2.5v-13h2l.2 1.4c.7-1 1.5-1.7 2.8-1.7 1-.1 2 .6 2.2 1.6.7-1 1.6-1.6 2.8-1.6 1.6-.1 2.7.7 2.7 3.6z" class="st1"/></g></g></svg>