<svg xmlns="http://www.w3.org/2000/svg" id="Layer_1" viewBox="0 0 1318.8 685.3" width="1318.8" height="685.3"><style>.st0{fill:#505050}.st1{fill:#b3b3b3}.st2{fill:#94cbff}.st3,.st4{fill:none;stroke:#2997ff;stroke-miterlimit:10}.st4{stroke:#ff70ff}</style><g id="e9fa2af3-89a4-4b8e-881b-42cdf7a15f73"><g id="b52141fe-de7b-48e8-b348-e8aff1c74e10"><path d="M46.8 140c0-2.9-.9-6.5-3.8-7.9-2.2-1.1-8.9-1.2-12.5-1.2h-2v20.5c0 1 0 21.2.1 22.4.1 1.8.7 2.9 2.5 2.9h4.5c.7 0 .7.2.7.7v1.5c0 .4-.1.6-.7.6s-3-.2-10.1-.2-9.9.2-10.9.2c-.6 0-.6-.3-.6-.7v-1.4c0-.5.1-.7.5-.7h4.9c1.1.1 2.2-.6 2.4-1.7.2-2.1.2-24.2.2-25.6v-18.5h-1.8c-2.3 0-8.6 0-11.4.9-3.2 1-5.4 6-6.4 8.4-.1.4-.4.4-.7.4L.3 140c-.2-.1-.4-.1-.3-.6.7-2.6 3.2-11.9 3.4-12.7s.4-1.1.7-1.1c.3 0 .6.1.9.3l.9.6c1.2.9 2.6 1.3 4.1 1.2 3.8.1 6.8.4 13.6.4H31c7.9 0 11-.3 14.5-.4 1.6.1 3.2-.5 4.4-1.6.9-.7 1.1-.6 1.5-.6s.9.4.7 1.8c-.2 1.2-.2 17.4-.2 20.9v4.6h.4c2.5-2.8 6-4.5 9.8-4.7 2.7-.1 5.3 1 7.1 2.9 3.2 3 3.1 6.7 3.1 10.6v4.1c0 4 .2 8.5.2 9.9 0 .9 1.2 1.1 2.7 1.1h1.2c.6 0 .8.1.8.6v1.1c0 .6-.2.9-.6.9s-2.8-.2-6.9-.2c-3.5 0-6.1.2-6.8.2-.5 0-.7-.2-.7-.8v-1.2c0-.4.1-.6.5-.6h1.6c1.2 0 2.7-.1 2.7-1.4.1-1 0-4.8 0-7.1v-5.8c0-4-.3-6.9-2.4-8.9-1.2-1.3-3-2-4.7-2-2.6 0-5 1.1-6.7 3-.8 1-1.3 2.2-1.4 3.5v15.7c0 2.3.2 3 1.6 3h2.2c.5 0 .8.1.8.6v1.2c0 .5-.2.8-.6.8s-3.5-.2-6.8-.2c-3.6 0-6.3.2-7 .2-.3 0-.5-.2-.5-.7v-1.3c0-.5.3-.6 1.1-.6h1.5c1.2 0 2.2-.3 2.4-1.2.2-1.4.2-9.3.2-14l.1-21.5zm38.5 20c-.2 1.1-.3 2.3-.2 3.5 0 7.1 4.5 12.4 10.2 12.4 3.6.1 6.9-1.8 8.7-4.9.1-.3.4-.4.7-.4l.9.5c.2.1.4.3 0 1.1-1.3 2.9-5 7.9-11.4 7.9-4.1 0-8.6-1.2-11.3-5.1-2.5-3.7-3.2-6.3-3.2-11.4-.1-4.3 1.6-8.4 4.5-11.4 3.1-3.2 6.7-3.8 10.3-3.8 8.3 0 10.6 7.8 10.6 10.6 0 1-.9 1.1-2 1.1H85.3zm11.5-2.1c1.4 0 1.9-.4 1.9-1 0-1.6-.9-6.4-5.5-6.4-3.2 0-6.2 2.1-7.6 7.4h11.2zm57.5 23.9c0 4.5.2 10.6.4 12.5.1 1.3.5 2.1 1.5 2.1h2.2c.5 0 .7.1.7.4v1.6c0 .4-.1.6-.5.6-.6 0-3.3-.2-7-.2-4.5 0-7 .2-7.6.2s-.6-.1-.6-.6V197c0-.4.1-.5.8-.5h3c1.2 0 1.6-.5 1.7-1.5s.1-11.7.1-16.5v-1.8c-2.9 2.3-6.6 3.5-10.3 3.5-5.1 0-12.9-2.7-12.9-15.1.2-5 2.4-9.8 6.2-13.2 2.6-2.3 6-3.5 9.5-3.5 2.9 0 5.8.6 8.6 1.6l3.8-1.6c.3-.1.4-.1.6.1l.6.5c.1.1.2.4 0 1.1-.3 1.6-.5 3.2-.6 4.8-.1 1.6-.2 5.2-.2 10.7v16.2zm-5.2-24.6c-.6-5-5.5-6.6-8.3-6.6-6.3 0-9.5 7.6-9.5 11.9 0 6.8 2.2 9.6 3.8 11.6 1.6 1.9 3.9 2.9 6.3 3 2.9 0 5.7-1.1 7.6-3.2l.1-16.7zm39.2 7.4c0 3.4 0 7 .1 8.5.2 2.2 1 2.5 1.9 2.5.8 0 1.6-.1 2.4-.2.6-.1.8 0 .9.3l.2.9c.1.4-.1.6-.4.6l-7.6 2.5c-.5.2-.9.3-1.4.3-.3 0-.6-.1-.6-.9l-.6-4.2h-.2c-2.4 3-6 4.8-9.8 5-2.7.2-5.3-1.1-6.8-3.3-2.9-3.8-2.8-6.2-2.8-14.1v-8.4c-.1-2-1.1-2.5-2.7-2.7-1.2-.1-1.6-.1-1.6-.5v-1.3c0-.4.1-.6.8-.6h6.4c.3 0 .7-.1 1-.1.3 0 .6-.1.8-.1.4 0 .8.3.8.7v.2c-.1.6-.3 4-.3 8.3v5.2c0 2.9-.7 7.5 1.6 10.8 1.8 2.6 3.8 2.7 5.8 2.7s4.8-1.9 6.2-3.6c.4-.6.7-1.2.7-1.9V154c-.1-2-1.3-2.4-3.1-2.5-1.2 0-1.6-.1-1.6-.5v-1.2c0-.6.1-.6.9-.6h6.7c.4 0 .8-.1 1.2-.1.4 0 .6-.1.9-.1.3 0 .6.3.7.6v.1c-.4 3.2-.5 6.4-.4 9.6l-.1 5.3zm12.3-6.4c0-2.4-.4-3.8-4-4.3-.5-.1-.6-.2-.6-.5v-.6c0-.2.1-.4.5-.5 2.7-1 5.3-2.2 7.8-3.5.4-.3.9-.4 1.4-.4.4 0 .4.4.4.9-.1 1.2-.1 5.8-.1 11.7v7.9c0 2.8 0 5.4.1 6.2.1 1.4.4 1.9 1.2 1.9h3.3c.6 0 .7.2.7.6v1.2c0 .5-.1.7-.6.7s-3.9-.2-6.9-.2c-4.2 0-7 .2-7.8.2-.3 0-.5-.2-.6-.4v-1.6c0-.4.2-.6.7-.6h3.5c.8 0 1.1-.3 1.1-1.4.1-2.2.1-4.4.1-6.6l-.2-10.7zm-3.4-22.1c.1-2.3 2.1-4.1 4.5-4h.1c2.1 0 3.8 1.6 3.9 3.7v.1c.1 2.3-1.7 4.2-4 4.3h-.3c-2.3-.1-4-1.9-4.2-4.1zm21.8 25.7c.1 3.9 1.4 7.7 3.7 10.9 1.8 2.4 4.8 3.8 7.9 3.7 3 .2 5.9-.9 7.9-3.1.1-.2.4-.2.5-.1l.1.1.7.7c.3.3.4.5 0 .9-3 3.2-7.2 5-11.6 5.1-3.8 0-7.9-.9-11.2-5-2.2-2.8-3.4-6.3-3.2-9.8 0-8.4 5.9-16.9 15.4-16.9 7.5 0 9.8 4.3 9.8 5.8 0 1.4-1 2.5-2.4 2.5h-.3c-1.7 0-2.9-.9-4-2.9-1.6-3-3.1-3.2-4.8-3.2-4.1.1-8.5 3.9-8.5 11.3zm27.8-23.9c0-2.9-.2-4.2-3.8-5.1-.8-.2-1-.3-1-.5v-.6c0-.3.2-.4.9-.7l7.4-3.2c.5-.3 1-.5 1.6-.6.4 0 .5.4.4 1.2-.4 3.4-.4 14-.4 22.7v11.4c1.2 0 2.4-.2 3.5-.8 1.4-.9 7.1-7.2 7.6-8.1s.4-1.4 0-1.7c-.6-.3-1.2-.5-1.9-.4-.5 0-.6-.2-.6-.6v-1.4c0-.4.1-.6.5-.6s3 .2 6.7.2 5.3-.2 5.8-.2c.3 0 .4.2.4.7v1.3c0 .4-.1.6-.6.6h-.3c-1.8.1-3.5.7-5 1.7-1 .6-7.1 6.2-9.5 8.6 1.4 1.4 13.5 13.5 14.8 14.1 1.2.6 2.4.9 3.7 1 .4 0 .6.1.6.6v1.3c0 .4-.1.6-.6.6s-2.6-.2-6-.2c-4.2 0-7.3.2-7.9.2-.4 0-.5-.2-.5-.7v-1.1c0-.4.1-.6.7-.6h.5c.5 0 .8-.3.9-.8 0-.1 0-.2-.1-.4-.2-.6-8.4-9.3-9.6-10.4-.9-.6-2-.9-3.1-.8v3.2c0 2.5 0 5 .1 7.5.1 1 .4 1.5 1.4 1.5h2.1c.5 0 .7.1.7.6v1.2c0 .6-.1.8-.6.8s-2.8-.2-6.4-.2c-3.9 0-6.4.2-6.9.2-.2 0-.4-.3-.4-.7v-1.2c0-.5.2-.6.7-.6h2.7c.9 0 1.3-.8 1.3-1.7.1-3.2.1-7.1.1-13.4l.1-23.9zm49.4 2.5c0-4.8-.8-5.8-3.4-6.7l-.7-.2c-.8-.2-.9-.4-.9-.6v-.6c0-.2.1-.4.6-.6 2.6-1.2 5.2-2.5 7.6-4 .4-.4 1-.6 1.5-.6s.6.4.6 1.2c-.1.6-.1 8.8-.1 15.2v8.4c2.3-2.2 6.4-3.6 9.9-3.6 6.3 0 13.2 5.1 13.2 15.4 0 8.4-6.8 16.4-15 16.4-4 0-6.8-.9-8.5-1.9l-2.9 1.6c-.3.2-.6.3-.9.2l-.9-.2c-.3-.1-.4-.2-.3-.6.1-1 .1-7 .1-12.2l.1-26.6zm5.2 23.3c0 6 .2 8.1 1.1 10.4.7 1.7 3.7 3.6 6.8 3.6 4.3 0 9.6-2.9 9.6-12.4 0-7-3.7-13.6-10.7-13.6-2.5-.1-5 .9-6.8 2.6v9.4zm31.5-3.6c0-3.7-.6-4.4-2.6-5.5l-1.4-.7c-.4-.1-.6-.2-.6-.5v-.4c0-.3.1-.4.6-.6l7.1-3.7c.3-.2.6-.3 1-.3s.5.4.5.9l.4 5.1h.3c2.2-3.3 5.5-6.3 8.6-6.3 2.5 0 3.7 1.5 3.7 3.2 0 1.8-1.2 3.3-3 3.5-.7 0-1.4-.2-2.1-.6-.7-.4-1.6-.6-2.4-.6-1.9.2-3.5 1.3-4.2 3-.4.7-.6 1.5-.7 2.3v15c0 2.2.5 3 2 3h3.4c.4 0 .5.2.5.6v1.3c0 .4-.1.6-.4.6s-3.8-.2-7.6-.2c-4.5 0-7.5.2-7.9.2-.3 0-.4-.1-.4-.7v-1.2c0-.5.1-.6.8-.6h2.8c1.1 0 1.6-.4 1.6-1.4.1-2.4.1-4.9.1-8.6l-.1-6.8zm21.9 15c-3.3-4-4-6.6-4-11.7.2-4.6 2.5-8.9 6.2-11.6 2.7-2.2 6.1-3.4 9.6-3.5 3.8.1 7.4 1.6 10.1 4.2 3.2 3.1 5 7.3 4.9 11.7 0 7.8-7.1 15.8-15.9 15.8-4.2.1-8.2-1.7-10.9-4.9zm20.8-11.6c0-8-5.8-13-9.5-13-2.1-.1-4.1.7-5.5 2.3-2.8 2.9-3.8 5.8-3.8 11.3 0 4 .4 6.8 2.7 10.1 1.5 2.4 4.3 3.9 7.1 3.8 5.4-.1 9-6.8 9-14.5zm42.1 7.8h.3l5.8-15.9c.9-2.5.4-4-1.1-4h-1c-.4 0-.4-.2-.4-.6v-1.5c0-.2.1-.5.4-.5h.1c.4 0 2.6.2 5.5.2s4.4-.2 5.2-.2c.3 0 .5.2.5.4v1.6c0 .4-.1.6-.5.6h-1.8c-.9 0-1.8.5-2.3 1.2-.9 1.4-10 24.3-11 26.6-.2.6-.7 1-1.4.9-.5 0-1-.5-1.3-1.4l-7.1-20.5h-.4l-8.9 20.8c-.2.7-.8 1.1-1.5 1.1-.6 0-.9-.6-1.2-1.4l-9.4-25.4c-.5-1.4-1.3-1.9-3-1.9h-1.6c-.4 0-.5-.2-.5-.6v-1.4c0-.4.1-.6.4-.6 1 0 2.4.2 6.5.2 3.2 0 5-.2 6-.2.4 0 .6.1.6.6v1.4c0 .4-.1.6-.6.6h-.6c-.8 0-1.3.6-.9 1.9l5.7 19.2h.3l7.4-17.6c0-.8-.2-1.6-.6-2.3-.5-.6-1.2-.8-2-.7h-1.1c-.4 0-.5-.1-.5-.5v-1.5c0-.4.2-.6.6-.6s2.9.2 6.5.2c3.3 0 4.9-.2 5.5-.2s.6.1.6.5v1.5c0 .4-.1.6-.5.6h-1.5c-.7 0-1.3.8-1 1.9l5.8 17.5zm44.8 4c0 1.2.6 1.5 1.6 1.5h2.3c.6 0 .8.2.8.6v1.1c0 .5-.1.8-.6.8s-2.7-.2-6.8-.2c-3.7 0-6 .2-6.5.2s-.6-.2-.6-.8v-1.1c0-.5.2-.6.9-.6h2.1c.8 0 1.4-.4 1.4-1.7.1-1.9.1-4.2.1-6.1v-9.5c0-2.9 0-5-2.1-6.5-1.7-1.3-3.5-1.3-5.3-1.3-2.2.1-4.3 1.1-5.8 2.8-1.2 1.4-1.7 3.1-1.7 4.9v14.9c0 1.9.2 2.4 1.7 2.4h1.8c.6 0 .7.2.7.7v1.2c0 .4-.1.6-.5.6s-2.5-.2-6.3-.2c-3.7 0-6 .2-6.4.2s-.5-.2-.5-.6v-1.3c0-.4.1-.6.7-.6h2.1c.9 0 1.4-.2 1.4-1.4v-16.9c0-2.2-1.1-3.4-3-4.2l-.6-.3c-.5-.2-.6-.4-.6-.6v-.3c0-.4.3-.6.6-.7l6.2-3.4c.4-.2.8-.4 1.3-.5.4 0 .5.3.6.9l.5 4.4h.1c2.1-2.6 6.3-5.3 9.9-5.3 2.2-.1 4.3.5 6.1 1.6 2.2 1.4 4 5 4 6.8l.4 18.5zm24.2-22.7c-.4 0-.5-.1-.4-.8l.3-2.2c.1-.4.3-.5.9-.5h4.2v-1.3c0-7.1 2-11.8 4.8-15 3.8-4.2 7.8-5.7 11.8-5.7 3.4 0 6.6 1.3 6.6 4-.2 1.6-1.4 2.9-3 3.1-.7 0-1.4-.1-2-.4-.7-.5-1.2-1-1.7-1.7-.8-1.1-2-1.7-3.3-1.6-2.1-.1-4.1.8-5.4 2.5-2.7 3.4-2.5 9.6-2.5 14.7v1.4h8.7c.5 0 .6.4.5.7l-.4 2.4c-.1.3-.4.4-.9.4H497v6.5c0 8.5 0 15.1.1 15.9.1 1.2.4 1.9 1.9 1.9h4.1c.6 0 .8.1.8.6v1.2c0 .6-.1.9-.5.9s-3.1-.2-8.6-.2c-4 0-7.6.2-8.2.2-.4 0-.6-.1-.6-.5v-1.6c0-.4.1-.5.7-.5h3.4c1.4 0 1.7-.9 1.7-2.5v-21.7l-5.1-.2z" class="st0"/><path d="M511.7 175.1c-3.3-4-4-6.6-4-11.7.2-4.6 2.5-8.9 6.2-11.6 2.7-2.2 6.1-3.4 9.7-3.5 3.8.1 7.4 1.6 10.1 4.2 3.2 3.1 5 7.3 4.9 11.7 0 7.8-7 15.8-15.9 15.8-4.3.1-8.2-1.8-11-4.9zm20.8-11.6c0-8-5.8-13-9.5-13-2.1-.1-4.1.7-5.5 2.3-2.8 2.9-3.8 5.8-3.8 11.3 0 4 .4 6.8 2.7 10.1 1.5 2.4 4.3 3.9 7.1 3.8 5.5-.1 9-6.8 9-14.5z" class="st0"/><path d="M549.9 178.8c0 .3-.1.6-.5.6-.7 0-2.5-.2-5.6-.2-3.6 0-4.8.2-5.5.2s-.7-.3-.7-.6v-1.3c0-.4.1-.6.6-.6h1.8c1.6 0 2.4-.3 3-.9 1.4-1.2 8.1-10.1 9.3-11.5-2.6-4.1-5.4-8.1-8.5-11.9-.7-.7-1.6-1.1-2.6-1h-2c-.2 0-.5-.1-.5-.4v-1.5c0-.5.1-.6.6-.6s2.5.2 5.9.2 6-.2 6.7-.2c.4 0 .4.2.4.6v1.4c0 .4-.1.6-.4.6h-.7c-1.2 0-1.2 1.1-.3 2.4l4.5 7.1 5.5-7.2c.7-.9.4-2.3-.8-2.3h-.9c-.4 0-.4-.2-.4-.5v-1.5c0-.4.1-.6.4-.6.9 0 2.1.2 6.2.2 1.4 0 2.7-.1 4.1-.2.6 0 .7.3.7.7v1.3c0 .4-.1.6-.6.6h-1.2c-1-.1-2 .2-2.8.9-1.2 1-7.3 8.6-8.9 10.4 2.9 4.2 5.8 8.7 8.9 12.5.8 1 1.9 1.5 3.2 1.5h1.2c.3 0 .4.1.4.6v1.4c0 .3-.1.6-.5.6-.7 0-2-.2-5.5-.2-4.1 0-6.3.2-7 .2-.5 0-.6-.3-.6-.6v-1.2c0-.5.1-.7.6-.7h1.1c.8 0 1.2-1.1.4-2.3l-5.2-8.3c-1 1.4-5.8 7.9-6.3 9-.4.8-.1 1.6.8 1.6h1.5c.3 0 .4.3.4.6l-.2 1.1zm43-19.1c0-3.2-.6-3.9-3.5-5l-.7-.3c-.4-.1-.4-.3-.4-.5v-.6c0-.2.2-.4.6-.6 2.7-.9 5.4-2.2 7.8-3.8.4-.3.9-.5 1.4-.5.4 0 .6.5.4 1.2s-.3 5.7-.3 12.2v9c0 4.2-.2 11.9-1 15.9-1.6 8.2-6.8 12.1-12.3 12.1-2.2 0-4.2-1.3-4.2-3.4 0-1.1 1.1-3 2.6-3s2.8.8 4.1 2.2c.7.8 1.2 1.1 1.7 1.1 1.8 0 3.2-1.9 3.6-6.3.3-4.2.4-10.3.4-15.4l-.2-14.3zm-3-23.6c.1-2.3 2.1-4.1 4.5-4h.1c2.1 0 3.8 1.6 3.9 3.7v.1c.1 2.3-1.7 4.2-4 4.3h-.3c-2.3-.1-4.1-1.9-4.2-4.1zm42.3 28.5c0 3.4 0 7 .1 8.5.2 2.2 1 2.5 1.9 2.5.8 0 1.6-.1 2.4-.2.6-.1.8 0 .9.3l.2.9c.1.4-.1.6-.4.6l-7.6 2.5c-.5.2-.9.3-1.4.3-.3 0-.6-.1-.7-.9l-.6-4.2h-.2c-2.4 3-6 4.8-9.8 5-2.7.2-5.3-1.1-6.8-3.3-3-3.8-2.8-6.2-2.8-14.1v-8.4c-.1-2-1.1-2.5-2.7-2.7-1.2-.1-1.6-.1-1.6-.5v-1.3c0-.4.2-.6.8-.6h6.4c.3 0 .7 0 1-.1.3 0 .6-.1.8-.1.4 0 .8.3.8.7v.2c-.1.6-.3 4-.3 8.3v5.2c0 2.9-.7 7.5 1.6 10.8 1.8 2.6 3.8 2.7 5.8 2.7s4.8-1.9 6.2-3.6c.4-.6.7-1.2.7-1.9V154c-.1-2-1.3-2.4-3.1-2.5-1.2 0-1.6-.1-1.6-.5v-1.2c0-.6.2-.6.9-.6h6.7c.4 0 .8-.1 1.2-.1.4 0 .7-.1.9-.1.3 0 .6.2.7.6v.1c-.4 3.2-.5 6.4-.4 9.6v5.3zm31.9-3.8c0-5.3-1-6.7-2.2-7.8-.9-.9-3-1.3-4.6-1.3-2.9.1-5.5 1.7-6.9 4.2-.8 1.5-1.1 3.2-1 4.8v14.2c0 1.2.4 1.9 1.4 1.9h2.6c.7 0 .7.1.7.6v1.1c0 .5-.1.8-.6.8s-2.6-.2-6.5-.2-6.1.2-6.7.2-.6-.1-.6-.6v-1.3c0-.6.1-.6.9-.6h2.5c.7 0 1-.4 1.1-1.8s.1-2.5.1-3.8v-12.8c.2-1.5-.6-3-2-3.7l-1.5-.8c-.4-.2-.5-.4-.5-.6v-.6c.1-.2.2-.5.4-.6l6.3-3.2c.4-.2.9-.4 1.4-.4.4 0 .6.5.6 1l.3 4.2h.2c2.5-3.3 6.4-5.3 10.6-5.5 3.6 0 6.8 2.2 8.1 5.6h.4c2.2-2.8 6.3-5.6 10.6-5.6 2.5 0 4.8.4 6.5 2.2s3.5 3.3 3.5 8.9v16.1c0 1.1.7 1.4 1.5 1.4h2c.7 0 .8.1.8.6v1.2c0 .5-.1.7-.5.7s-2.5-.2-6-.2-6.2.2-6.7.2-.6-.2-.6-.7v-1.2c0-.5.1-.6.9-.6h1.8c.7.1 1.4-.4 1.4-1.1v-.2c.2-1.7.2-4.2.2-5.8V159c0-2.4-.4-4.5-2.1-5.8-1.6-1.1-3.4-1.6-5.3-1.5-2.6.2-4.9 1.6-6.3 3.7-1.1 2.1-1 4-1 7.3v12.5c0 .9.4 1.7 1.4 1.7h2.5c.6 0 .8.1.8.6v1.1c0 .6-.2.8-.5.8s-2.4-.2-6.4-.2-6.3.2-6.8.2-.5-.2-.5-.7v-1.1c0-.6.1-.7.7-.7h2.1c1.2 0 1.6-.3 1.6-1.2l-.1-14.9zm36-2c0-1.7-.5-2.7-2.6-3.9l-1.7-.9c-.5-.2-.5-.4-.5-.6v-.6c0-.2.2-.4.5-.5l6.9-3.4c.5-.3 1.1-.5 1.7-.6.4 0 .5.4.5 1.4l.3 3.5h.2c2.6-3.1 6.5-4.9 10.5-4.8 3.1 0 6.1 1.3 8.2 3.5 2.7 2.7 3.9 5.7 3.9 11.2 0 9.4-6.5 17-15.5 17-2.5 0-4.9-.4-7.2-1.2V194c0 2 .5 2.4 1.6 2.4h3.2c.6 0 .7.3.7.7v1.2c0 .4-.1.6-.7.6s-2.8-.2-7.4-.2c-4.2 0-6.7.2-7.3.2s-.7-.2-.7-.6V197c0-.4.2-.6.9-.6h2.8c1.2 0 1.4-.7 1.5-1.8.2-1.6.2-5.5.2-12.5v-23.3zm5.2 13.2c0 1.6.1 2.9 1.5 3.8 2.1 1.4 4.7 2.1 7.2 1.9 4.1 0 8.4-3.1 8.4-12 0-10.1-4.5-14.1-9.4-14.1-3.2.1-6.1 1.8-7.7 4.6V172zm28.7 6c-.4-.2-.4-.6-.4-1l-1.2-6.8c-.1-.4.1-.5.4-.6l.9-.2c.3-.1.5.1.6.4l1.8 3.5c1.4 2.7 2.4 4.5 6.3 4.5 2.5 0 5.7-1.5 5.7-4.9s-1.6-5.1-7-6.6c-4.2-1.2-8.5-3.4-8.5-9.1 0-5 4.7-8.8 10.1-8.8 2.3-.1 4.6.5 6.6 1.5 1.1.5 1.2.9 1.3 1.3l1.1 5c0 .3-.2.6-.5.6l-.9.3c-.3.1-.4 0-.7-.4l-2.5-3.3c-1-1.8-2.9-2.9-5-2.8-2.7 0-5.5 1.6-5.5 4.8 0 4.2 3.4 5 6.9 6 5.3 1.5 8.6 3.7 8.6 9.2-.1 5.8-4.8 9.5-10.9 9.5-2.5 0-5-.7-7.2-2.1zm42.8-2.9c-3.3-4-4-6.6-4-11.7.2-4.6 2.5-8.9 6.2-11.6 2.7-2.2 6.1-3.4 9.6-3.5 3.8.1 7.4 1.6 10.1 4.2 3.2 3.1 5 7.3 4.9 11.7 0 7.8-7 15.8-15.9 15.8-4.2.1-8.1-1.8-10.9-4.9zm20.8-11.6c0-8-5.8-13-9.5-13-2.1-.1-4.1.7-5.5 2.3-2.8 2.9-3.8 5.8-3.8 11.3 0 4 .4 6.8 2.7 10.1 1.5 2.4 4.3 3.9 7.1 3.8 5.5-.1 9-6.8 9-14.5zm24.1 9.1h.2c1.2-2.8 6.2-15.2 6.9-18 .5-2 0-3.1-1.3-3.1h-1.4c-.2 0-.3-.4-.3-.7v-1.3c0-.4.1-.6.4-.6 1 0 2.6.2 5.8.2 2.8 0 4.5-.2 5.2-.2s.7.1.7.6v1.2c0 .5 0 .7-.4.7h-1.4c-.8-.1-1.6.2-2.2.8-1.1 1-4.7 8.9-5.8 11.6-.9 2.2-6.2 14.2-6.5 14.8-.6 1-.9 1.6-1.7 1.6s-1.2-.6-1.5-1.5l-5.6-14.6c-.2-.6-3.2-8.9-3.7-10-.9-2.1-1.7-2.7-3-2.7h-1.4c-.4 0-.4-.3-.4-.7v-1.3c0-.5.1-.6.8-.6s2 .2 6 .2c3.8 0 5.7-.2 6.5-.2.6 0 .7.1.7.6v1.3c0 .4-.1.7-.5.7h-1.4c-.7 0-1.3.5-1.3 1.2v.2c0 1.3 1.9 7.3 2.3 8.6s3.6 9.7 4.3 11.2zm21-12.6c-.2 1.1-.2 2.3-.2 3.5 0 7.1 4.5 12.4 10.2 12.4 3.6.1 6.9-1.8 8.7-4.9.1-.3.4-.4.7-.4l.9.5c.2.1.4.3 0 1.1-1.3 2.9-5 7.9-11.5 7.9-4.1 0-8.6-1.2-11.3-5.1-2.5-3.7-3.2-6.3-3.2-11.4-.1-4.3 1.6-8.4 4.5-11.4 3.1-3.2 6.7-3.8 10.3-3.8 8.3 0 10.6 7.8 10.6 10.6 0 1-.9 1.1-2 1.1l-17.7-.1zm11.4-2.1c1.4 0 2-.4 2-1 0-1.6-.9-6.4-5.5-6.4-3.2 0-6.2 2.1-7.6 7.4h11.1zm16.5 2.1c0-3.7-.6-4.4-2.6-5.5l-1.4-.7c-.4-.1-.6-.2-.6-.5v-.4c0-.3.2-.4.6-.6l7.1-3.7c.3-.2.6-.3 1-.3s.5.4.5.9l.4 5.1h.3c2.2-3.3 5.5-6.3 8.6-6.3 2.5 0 3.7 1.5 3.7 3.2 0 1.8-1.2 3.3-3 3.5-.7 0-1.4-.2-2.1-.6-.7-.4-1.6-.6-2.4-.6-1.9.2-3.5 1.3-4.2 3-.4.7-.6 1.5-.7 2.3v15c0 2.2.5 3 2 3h3.4c.4 0 .5.2.5.6v1.3c0 .4-.1.6-.4.6s-3.8-.2-7.6-.2c-4.5 0-7.5.2-7.9.2-.3 0-.4-.1-.4-.7v-1.2c0-.5.2-.6.8-.6h2.8c1.1 0 1.6-.4 1.6-1.4.1-2.4.1-4.9.1-8.6V160zm46.7-5.3c0 2.2.3 2.5 3.3 2.5h1.7c.2 0 .4.1.4.3v1.8c0 .3-.2.4-.5.4s-5.4-.2-7.5-.2c-1.9 0-7.3.2-7.6.2s-.5-.1-.5-.4v-1.9c0-.2.3-.3.6-.3h2.1c3.1 0 3.2-.4 3.3-2.4 0-.6.1-6.3.1-8.8v-2.2c0-1-.1-4.4-.2-6.1-.1-1-.3-1.7-1.1-1.7-.6 0-1.3.2-1.9.4l-2.8 1.1c-.4.2-.7.2-.7.1l-.8-1.4c-.1-.1 0-.3.3-.4l9.9-5.4c.4-.3.8-.5 1.3-.5.4 0 .6.3.6.6 0 .6-.2 7.1-.2 12.7l.2 11.6zm.5 24.6c-.4.6-.5.9-.7.9s-.4-.1-1.3-.6-1-.6-1-.9c.1-.3.2-.6.4-.9l29.2-47.4c.1-.3.3-.6.6-.6.4.1.8.2 1.2.4 1.2.6 1.2.8 1.2 1-.1.2-.2.5-.3.6l-29.3 47.5zm28.1-.1c-.4 0-.6-.1-.6-.7v-6.8h-13.9c-.4 0-.7-.4-.7-.8s.2-.8.5-1.1l16.1-19.2c.3-.3.7-.9 1.3-.9s1.1.4 1.1 1.7v17h4.7c.3 0 .5.1.5.6v2.2c0 .4-.1.6-.7.6h-4.5v6.8c0 .6-.2.8-.7.8l-3.1-.2zm-.6-21.2c0-.7-.5-1.1-1-.4l-8.1 9.5c-.7.8-.4 1.1.3 1.1h8.8V158zm39.3 12.2c0 5.4 2.5 6.3 3.8 6.3 1.6.1 3.3-.3 4.8-.9.3-.2.6-.2.8.1l.4.6c.2.3.1.6-.1.8-2.2 1.9-5.1 2.9-8 2.9-3.5 0-7-3.4-7-6.1 0-3 .2-9.3.2-10.3V162c0-1.3.1-6.2.1-9.2h-4.4c-.7 0-1.1-.3-1.1-.9s.4-.8 1.3-1.3c1.7-1 7.3-6.6 8.2-9 .1-.4.5-.7 1-.7.6 0 .7.5.7 1.1l-.4 7h10c.4 0 .7.4.5.6l-.7 2.5c-.1.4-.2.6-.7.6h-9.3c-.1 3.3-.2 6.8-.2 10.1l.1 7.4zM1001 140c0-4.4-.9-5.2-3.5-6.1l-1.2-.4c-.4-.1-.5-.2-.5-.4v-.6c0-.3.2-.4.9-.7l7.5-4c.5-.3 1.1-.5 1.7-.6.4 0 .7.6.6 1.8s-.2 15.8-.2 19.4v4.6h.4c2.5-2.9 6.1-4.5 9.9-4.7 2.7-.1 5.3 1 7.1 2.9 3.2 3 3.1 6.7 3.1 10.6v4.1c0 4 .2 8.5.2 9.9 0 .9 1.2 1.1 2.7 1.1h1.2c.6 0 .8.1.8.6v1.1c0 .6-.2.9-.6.9s-2.8-.2-6.9-.2c-3.5 0-6.1.2-6.8.2s-.7-.2-.7-.8v-1.2c0-.4.1-.6.5-.6h1.7c1.2 0 2.7-.1 2.7-1.4.1-1 0-4.8 0-7.1v-5.8c0-4-.3-6.9-2.4-8.9-1.2-1.3-3-2-4.8-2-2.6 0-5 1.1-6.7 3-.8 1-1.3 2.2-1.4 3.5v15.7c0 2.3.2 3 1.6 3h2.2c.5 0 .8.1.8.6v1.2c0 .5-.2.8-.6.8s-3.5-.2-6.8-.2c-3.6 0-6.3.2-7 .2-.3 0-.5-.2-.5-.7v-1.3c0-.5.3-.6 1.1-.6h1.5c1.2 0 2.2-.3 2.4-1.2.2-1.4.2-9.3.2-14l-.2-21.7zm38.6 20c-.2 1.1-.3 2.3-.2 3.5 0 7.1 4.5 12.4 10.2 12.4 3.6.1 6.9-1.8 8.7-4.9.1-.3.4-.4.7-.4l.9.5c.2.1.4.3 0 1.1-1.3 2.9-5 7.9-11.4 7.9-4.1 0-8.7-1.2-11.3-5.1-2.5-3.7-3.2-6.3-3.2-11.4-.1-4.3 1.6-8.4 4.5-11.4 3.1-3.2 6.7-3.8 10.3-3.8 8.3 0 10.6 7.8 10.6 10.6 0 1-.9 1.1-2 1.1l-17.8-.1zm11.5-2.1c1.4 0 1.9-.4 1.9-1 0-1.6-.9-6.4-5.5-6.4-3.2 0-6.2 2.1-7.6 7.4h11.2zm38.4-.2c0 3.7 0 14.6.1 16.8.1 1.2.4 2.2 1.9 2.2h3.2c.7 0 .8.2.8.6v1.2c0 .4-.1.7-.4.7-.5 0-3.7-.2-8.1-.2s-7.5.2-8.1.2c-.4 0-.5-.3-.5-.7v-1.2c0-.5.1-.6.9-.6h3.4c.8 0 1.5-.5 1.6-1.8.1-2.2.1-14.6.1-18.8v-4.5c0-5.1-.1-11.7-.2-13.5-.1-2.4-1.3-3.6-3.6-4.3l-1.4-.5c-.4-.1-.4-.2-.4-.4v-.6c0-.2.2-.4.7-.5 2.9-1.2 5.7-2.6 8.4-4.2.4-.3 1-.5 1.5-.6.5 0 .6.4.6 1.3-.1 4-.3 18.9-.3 22.9l-.2 6.5zm31.3 18.3c1 0 1.9-.4 2.5-1.1.3-.4.4-.5.7-.3l.7.6c.2.2.4.6-.1 1.3-1 2.2-3.2 3.6-5.6 3.5-2.6 0-4.5-1.9-5.1-4.8h-.1c-1.9 2.1-4.4 3.6-7.1 4.4-1.4.4-2.8.5-4.2.4-1.7 0-4.3-1.4-4.3-6 0-3.3 1.5-6.2 7.2-8.7 3.2-1.4 7-3.2 8.1-4.2v-4.6c-.2-1.2-.2-3.1-1-4-1.1-1.1-2.7-1.7-4.3-1.6-1.7 0-3.3.5-4.7 1.5-1 .9-.4 2-.4 3.3 0 2.5-.9 4.1-3.8 4.1-1.2 0-1.7-.6-1.7-2.3 0-2.3 2-5 5-6.8 2.6-1.7 5.7-2.6 8.8-2.5 3.4 0 4.8 1 5.8 1.9 1.5 1.5 1.6 3.2 1.6 5.1v15.3c-.2 4.2.7 5.5 2 5.5zm-7.5-12.6c-2.6 1.9-9.7 3.4-9.7 9.4 0 2.7 1.6 4 3.7 4s5.9-2.5 5.9-4.5v-8.9zm14.1 15.8c-.8 0-1.1-.3-.4-1.2l18.5-26.7h-7.6c-4.5 0-5.5.5-11.3 7.9-.3.4-.5.5-.8.3l-.9-.4c-.2-.1-.3-.4-.1-.7l4.8-10.1c1.1.3 2.3.5 3.5.6 2.7.2 4 .3 9.4.3h9.9c.7 0 1 .5.6 1l-19.1 26.9h10.2c1.8 0 5.2-1.4 9.9-7.7.1-.3.5-.4.8-.3.1 0 .1.1.2.1l.7.5c.3.2.4.4.1.7l-5.5 9.8c-1.3-.5-3.5-.6-6.5-.7s-5.8-.1-6.3-.1l-10.1-.2z" class="st0"/><path d="M1155.2 195.1c.2-1.7 1.6-2.9 3.3-2.8 1.1.1 2.2.4 3.3.8.5.1 1.1-.1 1.5-.4 1.1-1.3 4.8-9.5 5.8-12.3-.4-1.8-8-24.3-8.6-25.9-.9-1.8-1.5-3-3.4-3h-1.9c-.5 0-.6-.2-.6-.6v-1.4c0-.3.1-.5.6-.5s2.4.2 6.6.2c3.7 0 5.9-.2 6.7-.2.6 0 .7.2.7.5v1.5c0 .4-.1.6-.4.6h-1.4c-.8 0-1.1.5-.9 1.6.2 1.6 5.1 17.5 5.9 19.1h.3c.7-1.2 7-16.1 7.4-17.9s-.1-2.7-1.2-2.7h-1.2c-.4 0-.5-.2-.5-.6v-1.4c0-.4.1-.6.4-.6.9 0 2.4.2 5.9.2 1.9 0 3.6-.2 4.4-.2.4 0 .4.3.4.6v1.4c0 .4 0 .6-.4.6h-1.1c-1 0-1.9.5-2.5 1.3-1.6 1.9-6.3 13-11.3 24.3-3.5 8-6.3 14.7-7.6 17.1-1 1.9-2.3 4.7-6.1 4.7-2.7-.3-4.1-1.8-4.1-4zm73.1-59.8c0-2.7-.5-3.6-4.5-4.2-.4-.1-.5-.2-.5-.5v-1.2c0-.3.1-.4.6-.5 2.8-.6 6.6-1.2 7.9-1.5.7-.1 1.2-.2 1.7-.2.4 0 .4.5.4 1.3-.2 3.6-.3 14-.3 23.2v15.9c0 2.7.1 5.8.7 6.6.9.7 2 1.2 3.2 1.2 1 .1 1.3.1 1.4.5l.1.6c.1.3-.1.7-.4.8h-.1l-8.1 2.7c-.4.1-.8-.1-.9-.6l-.9-3.2c-2.3 2.3-6.9 3.9-10.6 3.9-2.4 0-5.1.1-8.5-3.3-3.7-3.6-4.5-6.8-4.5-11.7 0-4.6 1.8-9 5-12.2 2.8-3 6.7-4.6 10.7-4.5 2.6 0 5.2.3 7.7 1.1l-.1-14.2zm0 22.8c.1-1.2-.1-2.4-.7-3.5-1-2-3.3-3.9-7.6-3.9-2.4-.1-4.8.9-6.6 2.6-2.3 2.7-3.5 6.1-3.3 9.6 0 8.1 5.6 14 9.8 14 4 0 7.1-2.1 7.8-4 .3-.8.4-1.6.4-2.4l.2-12.4zm16.4 17c-3.3-4-4-6.6-4-11.7.2-4.6 2.5-8.9 6.2-11.6 2.7-2.2 6.1-3.4 9.7-3.5 3.8.1 7.4 1.6 10.1 4.2 3.2 3.1 5 7.3 4.9 11.7 0 7.8-7.1 15.8-15.9 15.8-4.3.1-8.3-1.8-11-4.9zm20.8-11.6c0-8-5.8-13-9.5-13-2.1-.1-4.1.7-5.5 2.3-2.8 2.9-3.8 5.8-3.8 11.3 0 4 .4 6.8 2.7 10.1 1.5 2.4 4.3 3.9 7.1 3.8 5.5-.1 9-6.8 9-14.5zm11.8 33c-2.6-1.6-3.7-3.4-3.7-5.8 0-4 4.1-7.1 7.6-8.6v-.3c-3-.6-4.8-2.9-4.8-5 0-3.4 4-5.9 6.5-6.8v-.1c-4.3-1.9-6.9-6.3-6.7-10.9 0-4.7 4.2-10.4 12.3-10.4 3.5-.1 6.8 1.5 9.1 4.2 1.9-1.4 4.4-2.8 6.8-2.8s3.5 1.6 3.4 3c0 1.5-1.3 2.7-2.8 2.7-.9 0-1.9-.4-2.5-1.1-.4-.4-1-.6-1.5-.6-.8 0-1.6.1-2.3.4.7 1.7 1.1 3.6 1.1 5.5.1 2.8-.9 5.6-2.6 7.7-3.2 3.1-7.7 4.3-12 3.2-1.4.6-3.8 2-3.8 4 0 3 3.6 2.7 8.4 2.4 5.9-.3 9.5.4 12.4 2.6 2.2 1.6 3.5 4.2 3.5 6.9 0 3.4-1.2 6.2-4.8 8.9-1.9 1.4-6.2 3.4-12.3 3.4-3.8-.2-7.9-.6-11.3-2.5zm23.7-7.4c0-4.2-3.2-7.5-10.4-7l-6.9.5c-2.2.6-5.8 3-5.8 6.9.2 2 1.2 3.8 2.8 5 2.4 1.6 5 2 10.1 2 2.7 0 10.6-1.9 10.2-7.4zm-6.7-30.7c0-3.2-.7-5-1.9-6.5-.9-.9-2.1-1.5-3.4-1.6-1.9-.1-3.8.6-5.1 2-2.3 2.4-2.6 5.8-2.6 8.5-.1 2.3.8 4.6 2.3 6.3 1.1 1.2 2.7 1.8 4.3 1.8 4.9 0 6.4-6 6.4-10.5zm16 17.4c.1-2.3 2-4.2 4.4-4.1 2.3.1 4.2 2 4.1 4.4.1 2.1-1.6 3.9-3.8 4h-.2c-2.3.2-4.3-1.6-4.5-3.9v-.4zM18.1 681.5c-.9-.7-1.3-.9-1.7-.9s-.7.5-1.2 1.2-.8.9-1.3.9-.8-.4-.7-1.2c.3-1.8 1-10.9 1.2-13 .1-.4.2-.4.5-.4l1.1.1c.3 0 .4.1.4.6 0 3 .9 5.9 2.6 8.4 2.2 3.4 6 5.4 10.1 5.3 4.3 0 9.8-2.7 9.8-9.2 0-7.4-5.3-10.2-11.1-12.2-2.2-.8-7.4-2.6-10.5-5.8-2.4-2.4-3.6-5.8-3.6-10.5 0-3.6 2.2-7.1 4.5-9.2 2.6-2.5 6.2-3.5 10.1-3.5 2.9 0 5.8.6 8.5 1.8.7.4 1 .3 1.4-.1l.9-.9c.2-.3.6-.4.9-.4.4 0 .6.6.6 1.2 0 2.5.9 9.9 1 11.5 0 .4-.1.5-.4.6l-.9.2c-.1.1-.3 0-.4-.1v-.1c-.8-3-2.3-5.8-4.5-8-2-2.1-4.9-3.3-7.8-3.1-6.4 0-8.7 4.8-8.7 8.4-.1 2.3.7 4.5 2.2 6.3 2.1 2.1 6.1 3.7 8.2 4.3 5 1.6 9 2.8 11.6 6 1.9 2.2 3.2 5 3.2 9.8 0 8.5-5.2 15.8-14.7 15.8-4 .1-8.1-1.3-11.3-3.8zm33.8-29.6c0-.2.1-.3.3-.4.4 0 4.5.2 6.5.2s3.4-.2 4.3-.2c.5 0 1 .3 1.2.8l10.4 23.5c.6-1.4 4.1-8.6 5.4-11.3 1.1-2.3 5.6-11.3 5.8-12.1.1-.5.4-.7 1.1-.7 7.6 0 9.1-.2 9.6-.2.3 0 .4.2.4.6v1.5c0 .3-.2.5-.4.5h-1.8c-1 0-1.3.8-1.4 1.5s-.1 11.5-.1 12.5.1 10.4.1 11.1c0 1.4.4 2.5 1.6 2.5h2.4c.2 0 .3.1.4.3v1.7c0 .2-.1.5-.4.5h-.1c-.6 0-4.6-.2-7.1-.2-1.8 0-6.3.2-6.8.2-.3 0-.4-.2-.4-.7v-1.4c0-.2.1-.4.3-.4h2.4c1.4 0 1.9-.8 1.9-1.4.1-1.1.1-10.8.1-11.5v-14.2l-.1-.1c-.4.7-6.1 13-7.4 15.3-.9 1.8-5.9 12.2-6.1 12.6s-.6 1.1-1.1 1.1c-.4 0-.6-.4-.9-.8s-6.5-14.8-7-15.9c-1-2.2-4.5-10.5-5.5-12.2h-.2c-.1.7-.2 12.1-.2 12.6s-.1 10.3.1 11.2c.3 2.6 1.3 3.3 3.5 3.3h1.1c.3 0 .4.2.4.6v1.6c0 .2-.1.4-.3.4h-.1c-.4 0-3.8-.2-6-.2-1.6 0-5.7.2-6.1.2s-.4-.2-.4-.7v-1.4c0-.3.2-.4.4-.4h.9c2.1 0 3.2-.9 3.5-2 .6-3.2.8-15 .8-15.8 0-.7-.1-7.5-.1-8.1 0-1.1 0-1.7-3-1.7h-1.3c-.2 0-.3-.1-.4-.3l-.2-2zm61.4 19.8l-2.9 7.7c-.4 1.4-.2 2.4 1.3 2.4h1.8c.4 0 .5.2.5.5v1.6c0 .3-.1.5-.4.5-.6 0-4.4-.2-5.5-.2-1.4 0-5 .2-5.6.2-.3 0-.3-.4-.3-.7v-1.5c0-.3 0-.4.3-.4h1c1.2 0 2.2-.6 2.9-1.5.5-.6 4.2-9.2 5.9-12.8.5-1 4.8-10.8 5.2-12 .1-.4.6-1.2.1-1.4-.1-.1-.4-.5-.3-.7s.1-.4.7-.5c1.5-.4 2.8-1.1 4-2.1.2-.3.5-.5.9-.5s.6.3.7.8c1 2.9 4.7 13.2 5.6 16.1 1.4 4.3 3 8.6 4.8 12.7.7 1.2 2 1.9 3.4 2h1.4c.3 0 .4.2.4.4v1.5c0 .2-.1.7-.5.7-.9 0-4.7-.2-6.3-.2-1.4 0-5.6.2-6.6.2-.5 0-.6-.4-.6-.7v-1.5c0-.2.1-.4.4-.4h1.1c.6 0 1.1-.4 1.2-1.1v-.2c-.3-1.4-2.2-7.2-2.8-8.8l-11.8-.1zm10.9-2.3l-3.8-12.4c-.1-.4-.2-.7-.4-.7s-.4.2-.6.8-4.6 11.6-5 12.3h9.8zm24.3-5.8c0-3-.1-7.3-.1-7.8-.1-1.2-.4-1.7-3-1.7h-1.1c-.3 0-.4-.2-.4-.5v-1.7c0-.2.1-.4.3-.4.5 0 4.2.2 6.8.2 2.4 0 6.6-.2 7.1-.2.3 0 .4.2.4.4v1.7c0 .2-.2.4-.4.4H157c-2.7 0-2.9.4-2.9 1.6 0 .6-.1 6.9-.1 10.2v4c0 .8 0 10.2.1 11.8.9 0 8.9.1 10.7-.1 1.1-.4 4.7-5.2 5.8-7 .2-.3.4-.4.6-.4l1.1.5c.1.1.1.4.1.7l-2.2 8.9c-1.2-.1-17.4-.2-19.4-.2-1.2 0-2.7.1-4 .1s-2.4.2-2.8.2-.4-.2-.4-.7v-1.4c0-.4.2-.4.5-.4h2.2c1.3 0 1.9-.7 2-1.3 0-1.2.1-11.5.1-14.3l.1-2.6zm33.9 0c0-3-.1-7.3-.1-7.8-.1-1.2-.4-1.7-3-1.7h-1.1c-.3 0-.4-.2-.4-.5v-1.7c0-.2.1-.4.3-.4.5 0 4.2.2 6.8.2 2.4 0 6.6-.2 7.1-.2.3 0 .4.2.4.4v1.7c0 .2-.2.4-.4.4h-1c-2.7 0-2.9.4-2.9 1.6 0 .6-.1 6.9-.1 10.2v4c0 .8 0 10.2.1 11.8.9 0 8.9.1 10.7-.1 1.1-.4 4.7-5.2 5.8-7 .2-.3.4-.4.6-.4l1.1.5c.1.1.1.4.1.7l-2.2 8.9c-1.2-.1-17.4-.2-19.4-.2-1.2 0-2.7.1-4 .1s-2.4.2-2.8.2-.4-.2-.4-.7v-1.4c0-.4.2-.4.5-.4h2.2c1.3 0 1.9-.7 2-1.3 0-1.2.1-11.5.1-14.3v-2.6zm54.3 15c-5.2-4.9-7.7-13.2-7.7-20.2-.1-7.1 2.5-13.9 7.4-19.1 4.8-4.7 11.3-7.4 18-7.3 5.1.1 10.1 1.4 14.5 4 .9.6 1.3.5 1.4 0l.6-2.1c.1-.4.3-.4.9-.4s.8.2.8 1.2c0 1.4 1.4 12 1.8 14 .1.4 0 .7-.3.7l-1.1.3c-.4.1-.5 0-.7-.6-1.3-3.3-3.2-6.3-5.6-8.9-3.2-3.6-7.8-5.6-12.5-5.5-12.9 0-18.1 11.5-18 22 0 4.2 1.3 12.3 6.9 18.5 4.9 5.5 9 6 13.8 6 7.1 0 13.7-3.4 17.8-9.2.2-.4.4-.4.6-.2l.9.7c.2.1.4.3.1.7-4.3 6.2-11.3 12.1-21.5 12.1-8.3-.1-13.7-2.7-18.1-6.7zm53.1-6.9l-2.9 7.7c-.4 1.4-.2 2.4 1.3 2.4h1.8c.4 0 .5.2.5.5v1.6c0 .3-.1.5-.4.5-.6 0-4.4-.2-5.5-.2-1.4 0-5 .2-5.6.2-.3 0-.3-.4-.3-.7v-1.5c0-.3 0-.4.3-.4h1c1.2 0 2.2-.6 3-1.5.5-.6 4.2-9.2 5.9-12.8.5-1 4.8-10.8 5.2-12 .1-.4.6-1.2.1-1.4-.1-.1-.4-.5-.3-.7s.1-.4.7-.5c1.5-.4 2.8-1.1 4-2.1.2-.3.5-.5.9-.5s.6.3.7.8c1 2.9 4.7 13.2 5.6 16.1 1.3 4.3 2.9 8.6 4.7 12.8.7 1.2 2 1.9 3.4 2h1.4c.3 0 .4.2.4.4v1.5c0 .2-.1.7-.5.7-.9 0-4.7-.2-6.3-.2-1.4 0-5.6.2-6.6.2-.5 0-.6-.4-.6-.7v-1.5c0-.2.1-.4.4-.4h1.1c.6 0 1.1-.4 1.2-1.1v-.2c-.3-1.4-2.2-7.2-2.8-8.8l-11.8-.2zm10.9-2.3l-3.8-12.4c-.1-.4-.2-.7-.4-.7s-.4.2-.6.8-4.6 11.6-5 12.3h9.8zm24.3-6.6c0-3 0-6.4-.1-7.8-.1-.7-.6-.9-3.2-.9h-1c-.2 0-.4-.1-.4-.3v-1.9c0-.2.1-.4.4-.4s5.4.2 6.9.2c.9 0 3.8-.2 5.3-.2 6.2 0 8.7.6 11.4 2.3 2.3 1.5 3.6 4 3.7 6.7 0 6.1-4.5 9.9-12.6 9.9-1.6 0-3.2 0-4.8-.3v1.9c0 2.2 0 7.7.1 8.4.1.9.7 1.4 2.2 1.4h2.1c.2 0 .4.2.4.4v1.7c0 .2-.1.4-.5.4-.6 0-4.8-.2-7.1-.2-1.8 0-6 .2-6.5.2-.3 0-.4-.2-.4-.7v-1.5c0-.2.2-.4.4-.4h1.9c1.4 0 1.8-.2 1.9-1.4.1-.8.2-6.8.2-12.2l-.3-5.3zm5.5 5c1.2.4 2.5.5 3.8.4 2.8 0 5.3-1.4 6.7-3.8.6-1.2.9-2.5.8-3.8 0-5.1-5.8-6.9-8.1-6.9-1-.1-2.1 0-3.1.3v13.8zm33.9 1.5c0 .4 0 8.7.1 9.8.1 1.7 1 2.7 3.1 2.7h1.1c.4 0 .4.1.4.4v1.7c0 .3-.1.5-.4.5-.6 0-4.3-.2-7.6-.2-2.5 0-6.6.2-7.1.2-.3 0-.4-.2-.4-.6v-1.5c0-.2.2-.4.4-.4h1.6c1.8 0 3-.1 3.1-1.4.1-.7.1-9.8.1-12.2V665c0-1.2-.1-8.3-.1-9.4 0-.8-.6-1.5-3.7-1.5h-1.3c-.4 0-.4-.2-.4-.5V652c0-.2.1-.4.3-.4h.1c.4 0 4.9.3 8.3.2 2.1 0 5.8-.2 6.3-.2.3 0 .4.2.4.4v1.7c0 .3-.1.5-.4.5h-1.2c-2 0-2.6.3-2.7 1.8 0 .7-.1 9.3-.1 9.8l.1 3.5zm25.3-15.1c-1.4 0-6.2-.1-8.9.7-1.8 1.5-3.2 3.4-4.2 5.5-.1.3-.4.5-.6.4l-1.3-.5c-.4-.1-.4-.4-.3-.7.5-1.6 2.2-7.4 2.5-8.7.1-.5.4-.7.6-.7.2 0 .4.1.6.2l.6.4c.8.6 1.8.9 2.8.8 2.5.1 5.3.3 9.4.3h2.9c2.9 0 7.2-.1 10.1-.3.9 0 1.8-.2 2.6-.7l.9-.6c.2-.1.4-.2.6-.2.3 0 .4.2.6 1.6.1 1 1.4 6.2 1.7 8.1.1.3-.1.4-.4.6l-1.2.4c-.4.2-.6.1-.8-.3-.9-2.1-2.1-3.9-3.6-5.5-1.8-.7-7.9-.7-9.1-.7v12.1c0 7.6 0 13 .1 13.5.1 1.2.5 1.9 1.7 1.9h2.7c.4 0 .5.2.5.7v1.5c0 .2-.1.4-.5.4s-5-.2-7.3-.2c-2 0-6.7.2-7.3.2s-.6-.2-.6-.7v-1.5c0-.4.1-.5.4-.5h2.9c1.1 0 1.6-.6 1.7-1.2.2-2.7.2-6.6.2-10.9v-15.4zm29.7 17.5l-2.9 7.7c-.4 1.4-.2 2.4 1.3 2.4h1.8c.4 0 .5.2.5.5v1.6c0 .3-.1.5-.4.5-.6 0-4.4-.2-5.5-.2-1.4 0-5 .2-5.6.2-.3 0-.3-.4-.3-.7v-1.5c0-.3 0-.4.3-.4h1c1.2 0 2.3-.6 3-1.5.5-.6 4.2-9.2 5.9-12.8.5-1 4.8-10.8 5.2-12 .1-.4.6-1.2.1-1.4-.2-.2-.3-.4-.3-.7-.1-.1.1-.4.7-.5 1.5-.4 2.8-1.1 4-2.1.2-.3.5-.5.9-.5s.6.3.7.8c1 2.9 4.7 13.2 5.6 16.1 1.3 4.3 2.9 8.6 4.6 12.7.7 1.2 2 1.9 3.4 2h1.4c.3 0 .4.2.4.4v1.5c0 .2-.1.7-.5.7-.9 0-4.7-.2-6.3-.2-1.4 0-5.6.2-6.6.2-.5 0-.6-.4-.6-.7v-1.5c0-.2.1-.4.4-.4h1.1c.6 0 1.1-.4 1.2-1.1v-.2c-.3-1.4-2.2-7.2-2.8-8.8l-11.7-.1zm10.9-2.3l-3.8-12.4c-.1-.4-.2-.7-.4-.7s-.4.2-.6.8-4.6 11.6-5 12.3h9.8zm24.3-5.8c0-3-.1-7.3-.2-7.8-.1-1.2-.4-1.7-3-1.7h-1.1c-.3 0-.4-.2-.4-.5v-1.7c0-.2.1-.3.3-.4.5 0 4.2.2 6.8.2 2.4 0 6.5-.2 7.1-.2.3 0 .4.2.4.4v1.7c0 .2-.2.4-.4.4H463c-2.7 0-2.9.4-2.9 1.6 0 .6-.2 6.9-.2 10.2v4c0 .8 0 10.2.2 11.8.9 0 8.9.1 10.7-.1 1.2-.4 4.7-5.2 5.8-7 .2-.3.4-.4.7-.4l1.2.5c.1.1.1.4.1.7l-2.2 8.9c-1.2-.1-17.4-.2-19.5-.2-1.2 0-2.7.1-4 .1s-2.5.2-2.8.2-.4-.2-.4-.7v-1.4c0-.4.2-.4.5-.4h2.2c1.3 0 1.9-.7 2-1.3 0-1.2.2-11.5.2-14.3v-2.6zm32.4 18.9c-.5-.4-.9-.4-1.1.1l-.2.6c-.1.4-.5.5-1.1.4-.4-.2-.7-.4-.6-.8.2-2 .7-7.8.8-8.9.1-.3.2-.5.5-.5l1.3.2c.3.1.6.2.6.5 0 1.7.4 3.4 1.3 4.9 1.2 2.3 3.6 3.6 6.1 3.6 2.3 0 5.8-1.8 5.8-4.9 0-4.1-2.8-5.9-6.6-7.3-2.6-.8-4.9-2.1-7-3.8-1.7-1.6-2.5-3.9-2.5-7.4.1-2.3 1.3-4.5 3.1-6 1.9-1.5 4.3-2.3 6.8-2.2 1.8-.1 3.5.2 5.1.9.7.4 1.1.5 1.2.2l.3-.5c.1-.2.4-.2.9-.2s.7.3.7.6c0 2.4.7 7.1.7 8.1 0 .2-.1.4-.3.4l-1.3.3c-.2.1-.4-.1-.4-.3-.4-.9-1-3.4-2.5-5.1-1.2-1.3-3-2-4.8-2-2.6-.2-4.9 1.7-5.1 4.3v.1c0 1.3.4 2.5 1.2 3.5 1.1 1.4 3.7 2.4 5 3 3.3 1.2 6 2 7.8 3.9 1.4 1.5 2.3 3.3 2.3 6.9 0 5.4-3.5 10-10 10-3 0-5.8-.9-8-2.6zm369.8-206.3c0-1.4.8-1.7 2.2-1.7 2.1 0 7.4 3.2 7.4 7 0 1.5-.3 2.2-.6 2.5-.2.2-.4.4-.4.7 0 .9 5.5 1.4 7.7 1.4 4.2-.2 8.3-1 12.2-2.5 2.9-1.2 6.1-2.8 8.9-2.8 2.5 0 6.3 2 8.7 3.2s5.4 2.6 12.4 3.8c3.3.6 6.6 1.4 9.8 2.5 1.1.2 1.8 1.1 1.8 2.2-.1.8-.5 1.6-1.2 2.2 0 .1-.9.9-3.5.9-1.9 0-11.1-.8-12.5-.8-.5 0-1.4 0-1.4.5 0 .1.2.3.3.6.7.7 1.2 1.7 1.3 2.7 0 1.1-.4 1.3-3.6 2.2-.4.1-.7.3-.7.6s.8 1.9.8 2.2c0 1.5-1.5 2.9-3.8 2.9-.2 0-.9-.1-1.2-.1s-.4.1-.4.4c0 4.2-2.4 4.2-3.2 4.2-1.6 0-11.1-4.2-15.2-5.8-3.3-1.3-6.7-2-10.2-2.2-2 0-6.9.5-6.9 1.2 0 .6.4 2.9.4 3.4 0 5.1-3.7 6.2-6.8 6.2-1.7 0-2.7 0-2.7-1.4 0-1.2.3-12.5.3-18.4l.1-17.8zm1.1 33.9c0 1.4 0 2 1.9 2 3.4 0 4.8-2.2 4.8-5 0-1.7-.5-2.5-1.8-2.5-.7.1-1.3.2-2 .4-2.9.6-2.9 1.1-2.9 5.1zm.2-20.7c0 3.8.6 4.2 2.4 4.2 2.3 0 3.5-2.7 3.5-4.1 0-4.2-2.4-4.5-4.2-4.6-1 0-1.7-.1-1.7 4.5zm0 8.8c0 1.7 0 3.6 1.3 3.6 2.4 0 5.8-.1 5.8-3.2 0-1.9-2.1-3.8-4.8-3.8-.4 0-.8.1-1.2.1-1.1.3-1.1.6-1.1 3.3zm3.5-14.1c1.5 0 3.1 0 3.1-2.6 0-3.7-4.7-5.4-5.5-5.4s-1 3-1 4c-.1.9.1 1.9.6 2.7.7.9 1.7 1.3 2.8 1.3zm10.8 11.8c.2 0 .3.1.3.1s-6.1 3.9-6.1 4.8c0 .1.1.2.4.2.6 0 1.2-.2 1.8-.5 2.1-1.6 6.5-4.8 8.6-4.8.2 0 .4.1.4.1 0 .3-6 3.5-6 4.2 0 .1.1.1.2.1.4 0 10.3-2.4 11.7-2.4.4 0 .7.1.7.3 0 .6-7.2 1.8-7.2 2.7 0 .4 6.5 1.8 6.6 1.8.4 0 1.8-.3 2.2-.3s2.5.2 3 .2c.3 0 .9 0 .9.4 0 .1-2.4.5-2.4.9s8.3 4.2 9.8 4.2c.7.1 1.4-.4 1.5-1.1v-.2c0-.7-1.4-1.4-1.4-2.7 0-.6.4-1 .9-1.1h.2c.7 0 3.5 1.4 4.2 1.4.5 0 1.5-.4 1.5-1.3 0-.7-.3-1.3-.7-1.9-.6-.8-2.4-1.7-2.4-2.7 0-.6.7-.9 1.5-.9.5 0 3.2 1 3.8 1 .9 0 1.3-1.1 1.3-1.6-.1-.8-.5-1.5-1-2.1-.4-.5-1.2-1.3-1.2-1.7 0-.2.1-.4.7-.4s8.6 1.1 10.3 1.1c2.2 0 2.2-.1 2.2-.7 0-3.5-1.3-3.8-3.9-4.3-13-2.6-20.6-4.1-21.5-4.1-3 .1-6 .5-9 1.1-6 1.2-6.6 1.4-10.7 1.4-2.3 0-5.4-.1-7.3-.9-.4-.2-.8-.3-1.2-.3-.2 0-.3.1-.3.2 0 .4.7 2.2.7 2.7.1 1.4-.4 2.8-1.4 3.8-.1.1-.2.3-.2.5 0 .6 2.5 3.2 2.7 4 .1.5.1.7.3.7s3.8-2.2 4.5-2.2l1 .3zm23.9-12.1c.4.1 2.6.6 3 .6s.4-.1.4-.3c-1.7-1.2-3.7-1.9-5.8-1.9-1.6 0-3.4.7-3.4 1.4 0 .1.1.1.4.1.4 0 .7-.1 1.1-.2.5-.1 1.1-.1 1.7-.1l2.6.4zm25.9 10.3c1.3 0 2.6-.6 2.6-2 0-.9-3.6-1.5-4-1.5s-1.1.1-1.1.7c.1.7.3 1.4.7 1.9.3.7 1.1 1.1 1.8.9zm38.1 5.8c2.1-.2 4.1-1 5.6-2.5.6-.6 1.7-1.7 4.6-1.7.9 0 2.2 1.9 2.2 3.4 0 .4-.2.9-.5 1.1-1.2 1.1-8.9 5-9.2 6.7-.5 3.6-4.8 6-7.8 6-2.2 0-3-1.2-3-2.1-.1-2.1 1.2-4 3.1-4.8.8-.2 1.3-.9 1.4-1.7 0-1.1-.7-1.1-2.2-1.1-5.8 0-9.2-2.8-9.2-9.2 0-9.2 6.9-9.2 10.1-9.2.9 0 1.3-.5 1.3-1.1-.1-.8-.6-1.5-1.4-1.8-1.9-.8-3.2-2.7-3.1-4.8 0-.9.8-2.1 3-2.1 3 0 7.3 2.4 7.8 5.9.2 1.2.9 1.5 1.9 2.2 2.2 1.7 5.1 2.5 7.3 4.5.4.3.5.8.5 1.2 0 1.5-1.3 3.4-2.2 3.4-1.7.1-3.3-.5-4.5-1.6-1.6-1.4-3.5-2.3-5.6-2.5-2.5 0-7.1 1.9-7.1 5.8s4.5 6 7 6zm25.8 14.3c-.2-2.1-1-4.1-2.5-5.6-.6-.6-1.7-1.7-1.7-4.6 0-.9 1.9-2.2 3.4-2.2.4 0 .9.2 1.2.5 1.2 1.1 5 8.9 6.8 9.2 3.5.5 5.9 4.8 5.9 7.8 0 2.2-1.2 3-2.1 3-2.1.1-4-1.2-4.8-3.1-.2-.8-.9-1.3-1.7-1.4-1.1 0-1.1.7-1.1 2.2 0 5.8-2.8 9.2-9.2 9.2-9.2 0-9.2-6.9-9.2-10 0-.9-.5-1.3-1.1-1.3-.8.1-1.5.6-1.8 1.4-.8 1.9-2.7 3.2-4.8 3.1-.9 0-2.1-.8-2.1-3 0-3 2.4-7.3 5.9-7.8 1.2-.2 1.5-.9 2.2-1.9 1.7-2.2 2.5-5.1 4.5-7.4.3-.4.8-.5 1.2-.5 1.5 0 3.4 1.3 3.4 2.2.1 1.7-.5 3.3-1.7 4.5-1.4 1.6-2.3 3.5-2.4 5.6 0 2.5 1.9 7.1 5.8 7.1s5.9-4.5 5.9-7zm-11.6-40c.2 2.1 1 4.1 2.5 5.6.6.6 1.7 1.7 1.7 4.6 0 .9-1.9 2.2-3.4 2.2-.4 0-.9-.2-1.2-.5-1.2-1.1-5-8.9-6.7-9.2-3.6-.5-6-4.8-6-7.8 0-2.2 1.2-3 2.1-3 2.1-.1 4 1.2 4.8 3.1.2.8.9 1.3 1.7 1.4 1.1 0 1.1-.7 1.1-2.2 0-5.8 2.8-9.2 9.2-9.2 9.2 0 9.2 6.9 9.2 10.1 0 .9.5 1.3 1.1 1.3.8-.1 1.5-.6 1.8-1.4.8-1.9 2.7-3.2 4.8-3.1.9 0 2.1.8 2.1 3 0 3-2.4 7.3-5.9 7.8-1.2.2-1.5.9-2.2 1.9-1.7 2.2-2.4 5.1-4.5 7.4-.3.3-.8.5-1.2.5-1.5 0-3.4-1.3-3.4-2.2-.1-1.7.5-3.3 1.7-4.5 1.4-1.6 2.3-3.5 2.5-5.6 0-2.5-1.9-7.1-5.8-7.1s-6 4.3-6 6.9zm.7 20c0-2.8 2.3-5.1 5.1-5.1s5.1 2.3 5.1 5.1-2.3 5.1-5.1 5.1-5.1-2.3-5.1-5.1zm25.1-5.8c-2.1.2-4.1 1-5.6 2.5-.6.6-1.7 1.7-4.6 1.7-.9 0-2.2-1.9-2.2-3.4 0-.4.2-.9.5-1.1 1.2-1.1 8.9-5 9.2-6.8.5-3.5 4.8-5.9 7.8-5.9 2.2 0 3 1.1 3 2.1.1 2.1-1.2 4-3.1 4.8-.8.2-1.3.9-1.4 1.7 0 1.1.7 1.1 2.2 1.1 5.8 0 9.2 2.8 9.2 9.2 0 9.2-6.9 9.2-10.1 9.2-.9 0-1.3.5-1.3 1.1.1.8.6 1.5 1.4 1.8 1.9.8 3.2 2.7 3.1 4.8 0 .9-.8 2.1-3 2.1-3 0-7.3-2.4-7.8-5.9-.2-1.2-.9-1.5-1.9-2.2-2.2-1.7-5.1-2.5-7.3-4.5-.3-.3-.5-.8-.5-1.2 0-1.5 1.3-3.4 2.2-3.4 1.7-.1 3.3.5 4.5 1.7 1.6 1.4 3.5 2.3 5.6 2.5 2.5 0 7.1-1.9 7.1-5.8s-4.5-6.1-7-6.1zm33.6 10.9c0-1.1 2.5-1.1 3-1.1 2.7 0 5.5 2.2 5.5 6.2 0 .3-.1 1.5-.1 1.8 0 .6.3.9.7.9s1.3-.6 2.2-1.9c1.9-2.9 14.5-14.6 14.5-16.3 0-.2-.1-.3-.4-.3-.5.1-1 .3-1.4.6-3.2 2.2-7.9 3.2-11.8 3.2-7.2 0-12.2-5-12.2-8 0-1.6.7-1.6.9-1.6.7 0 1.7.9 2.4.9.3-.1.5-.4.5-.7-.1-.6-.4-1.2-.9-1.6-1.7-1.7-2.7-4-2.7-6.5 0-.6.1-4.4 1.5-4.4.7 0 2.4 3 3 3 .3 0 .6-.2.9-.6 2.6-3.5 4-4.8 9.7-4.8 3.9 0 9.9 3.1 9.8 8.4 0 3.4-3.2 5.8-6 5.8-3.6 0-5.3-2.2-5.3-4.8s1.7-4 3-4c.1 0 1 .3 1.2.3.6 0 1-.5.9-1.1 0-.9-.7-2.7-4.5-2.7-5 0-7.3 3.5-7.3 7.9 0 2.9 2.2 10.1 11 10.1 10.7 0 15.1-12.2 15.2-18.9.1-.6.9-1 1.7-1s1.5.4 1.5 1c0 13.1 9 19.5 16.5 19.5 8.1 0 10.9-7.4 10.9-10.3 0-6.8-6.4-8.3-8.4-8.3-1.6 0-3.5 1-3.5 2.1 0 .5.4.9.9.9 1.9-.1 3.6 1.3 3.7 3.3v.6c0 2.6-2.2 4.7-4.8 4.7h-.1c-2.9 0-5.2-2.2-5.3-5.1v-.2c0-5.3 5.2-8.1 8.8-8.1 5.3 0 9.6 3.5 10.4 6.2.1.5.4.7.7.7.7 0 2.5-3 3.2-3 1.2 0 1.2 3.6 1.2 3.8 0 3.4-2.7 6.2-3.1 6.5-.7.7-1 1.1-1 1.5s.5.4.7.4c.4 0 2.4-.8 2.7-.8s.6.3.6.9c0 5.7-6.7 8.9-12.8 8.9-4.1 0-8.1-1.2-11.5-3.4-.5-.3-1.1-.6-1.7-.6-.4 0-.6.2-.6.6 0 1.6 13.9 14.8 15.3 14.8.4 0 .8-.3.9-.7v-.1c0-.1-.2-.9-.2-1.1 0-1.2 1.2-3.8 6.2-3.8 4.2 0 4.5 1.4 4.5 4.3 0 3.2 0 4-1.7 4-.3 0-1.4-.5-1.7-.5s-.5.3-.5.6c0 .9.3 1.2 3.2 3.6.5.4.6 1.8.6 3.4 0 4.9 0 5.5-1.3 5.5l-3.5.1c-.9 0-1.7-.4-1.7-1.4 0-1.7 0-4.2-2.7-4.2-.6 0-1 .4-1.1.9v.2c0 .4-.2 4.4-2 4.4h-7.6c-.5 0-.9-.5-.9-1 0-.9 2.6-4 2.7-4.7.6-3.2 1.2-4.6 3.6-5.7.5-.2.8-.6.9-1.1 0-.9-11-11.9-11.8-12.5-.2-.2-.5-.3-.7-.3-.3 0-.4.1-.4.4s3.8 6.4 4.4 7.7c.7 1.8 2 5 2 7.1 0 4.5-3 6.3-3.2 6.3-.4 0-1.1-2.2-1.5-2.2-.2 0-.5.3-.7 1.2-.5 2.5-1.9 4.8-4 4.8-2.4-.2-4.2-2.2-4.3-4.5 0-2.5 1.7-4.4 3.5-5.6 1.9-1.4 2.9-4.6 2.9-7.9 0-2.5-.4-3.2-3.1-10.1-.7-1.7-4.2-10.4-5.5-10.4s-8.6 15.1-8.6 21c0 3 1.3 6.9 4.6 8.6 2.5 1.3 3.7 2.7 3.7 5.2 0 3.2-1.5 3.7-2.7 3.7-1.6.1-3-.8-3.6-2.3-.2-1-.5-1.4-.8-1.4-.3 0-.6.3-.8.6-.5.6-.1 1.8-.5 2.5-.2.4-.4.6-.7.6-.9 0-5.1-5.7-5.1-10.6 0-1.3.2-2.6.5-3.8.4-1.8 4.4-9.6 4.4-10.6 0-.3-.1-.5-.3-.5-.7 0-11.7 12.5-11.7 13.6 0 .7.9 1.3 1.7 1.5 4 1.1 4.2 5.3 4.2 9.7 0 .7-.4.9-1.3.9-6.3 0-7 0-7-1.6 0-.6.1-1.1.4-1.7.4-.9 1.4-1.5 1.4-1.9 0-.2-.3-.6-1.2-.6-2.4.1-4.3 2.1-4.3 4.5 0 1.2-.5 1.2-5 1.2-2.2 0-2.2-.5-2.2-4.7 0-1.8.1-3.7.7-4.2 1.2-1.2 3.4-1.2 4.1-3.2.2-.4.3-.8.3-1.2 0-.4-.2-.6-.5-.6s-1.8.4-2.2.4c-1.1 0-2.2-.4-2.2-1.2 0-.4.2-2.5.2-3l-.1-3zm159-5.3c0 5.9.3 17.1.3 18.4 0 1.4-1 1.4-2.7 1.4-3.1 0-6.8-1.1-6.8-6.2 0-.5.4-2.8.4-3.4 0-.7-5-1.2-6.9-1.2-3.5.2-6.9 1-10.2 2.2-4.1 1.6-13.6 5.8-15.2 5.8-.9 0-3.2-.1-3.2-4.2 0-.3-.1-.4-.4-.4s-.9.1-1.2.1c-2.3 0-3.8-1.4-3.8-2.9 0-.4.8-1.9.8-2.2s-.3-.4-.7-.6c-3.2-.9-3.6-1.1-3.6-2.2.1-1 .6-2 1.3-2.7.2-.3.3-.4.3-.6 0-.5-.9-.5-1.4-.5-1.4 0-10.6.8-12.5.8-2.6 0-3.5-.8-3.5-.9-.6-.6-1.1-1.3-1.2-2.2 0-1.1.7-2 1.8-2.2 3.2-1 6.5-1.8 9.8-2.5 7-1.2 9.9-2.5 12.4-3.8s6.2-3.2 8.7-3.2c2.7 0 6 1.6 8.8 2.8 3.9 1.5 8.1 2.3 12.2 2.5 2.2 0 7.7-.5 7.7-1.4 0-.3-.2-.6-.4-.7-.3-.3-.6-.9-.6-2.5 0-3.8 5.3-7 7.4-7 1.4 0 2.2.4 2.2 1.7l.2 17.8zm-62.9-2.7c0-.6-.6-.7-1.1-.7s-4 .6-4 1.5c0 1.4 1.3 2 2.6 2 .7.1 1.4-.2 1.8-.9.4-.5.6-1.2.7-1.9zm48.4 4.6c.8 0 4.3 2.2 4.5 2.2s.2-.2.3-.7c.1-.7 2.7-3.3 2.7-4 0-.2-.1-.4-.2-.5-1.1-1-1.6-2.4-1.4-3.8 0-.4.7-2.3.7-2.7 0-.1-.2-.2-.3-.2-.4 0-.8.1-1.2.3-2.4.7-4.9 1-7.3.9-4 0-4.7-.1-10.7-1.4-3-.6-6-1-9-1.1-.9 0-8.5 1.5-21.5 4.1-2.6.5-3.9.8-3.9 4.3 0 .6 0 .7 2.2.7 1.7 0 9.9-1.1 10.3-1.1s.7.1.7.4c0 .4-.8 1.2-1.2 1.7-.5.6-.9 1.3-1 2.1 0 .5.4 1.6 1.3 1.6.7 0 3.3-1 3.8-1 .8 0 1.5.2 1.5.9 0 1-1.8 1.9-2.4 2.7-.4.6-.6 1.2-.7 1.9 0 .9 1 1.3 1.5 1.3.7 0 3.5-1.4 4.2-1.4.6 0 1 .4 1.1.9v.2c0 1.2-1.4 2-1.4 2.7 0 .7.6 1.3 1.3 1.4h.2c1.4 0 9.8-3.9 9.8-4.2s-2.4-.8-2.4-.9c0-.4.7-.4.9-.4.5 0 2.6-.2 3-.2s1.8.3 2.2.3c.2 0 6.6-1.4 6.6-1.8 0-.9-7.2-2.2-7.2-2.7 0-.1.3-.3.6-.3 1.4 0 11.3 2.4 11.7 2.4.1 0 .2 0 .2-.1 0-.7-6-4-6-4.2 0-.1.1-.1.4-.1 2.2 0 6.6 3.2 8.6 4.8.6.3 1.2.5 1.8.5.2 0 .4-.1.4-.2 0-.9-6.1-4.8-6.1-4.8s.1-.1.3-.1l1.1-.4zm-22.3-12.5c.6 0 1.1.1 1.7.1.4.1.7.2 1.1.2.3 0 .4-.1.4-.1 0-.6-1.8-1.4-3.4-1.4-2.1 0-4.1.7-5.8 1.9 0 .1.2.3.4.3s2.5-.6 3-.6l2.6-.4zm33.1 11.4c-2.7 0-4.8 1.9-4.8 3.8 0 3.1 3.5 3.2 5.8 3.2 1.3 0 1.3-1.9 1.3-3.6 0-2.7 0-3-1.2-3.2-.3-.1-.7-.1-1.1-.2zm2.3-14.8c0-1 0-4-1-4-.9 0-5.5 1.7-5.5 5.4 0 2.6 1.6 2.6 3.1 2.6 1.1.1 2.2-.4 2.9-1.3.4-.8.6-1.7.5-2.7zm-4.5 24.6c-1.3 0-1.8.9-1.8 2.5 0 2.9 1.4 5 4.8 5 1.9 0 1.9-.7 1.9-2 0-4 0-4.5-2.8-5.2-.8-.1-1.4-.2-2.1-.3zm-1.2-15c0 1.4 1.2 4.1 3.5 4.1 1.8 0 2.4-.4 2.4-4.2 0-4.6-.7-4.5-1.7-4.5-1.8.1-4.2.3-4.2 4.6z" class="st0"/><path d="M871 411.5c-8.3 0-12.6-6.7-12.6-17.1 0-10.2 4.3-17.3 12.6-17.3s12.6 6.8 12.6 17.2c-.1 10.2-4.4 17.2-12.6 17.2zm0-30.1c-4.9 0-6.9 4.3-6.9 12.9s2.1 12.8 6.9 12.8 6.9-4.3 6.9-12.9-2.1-12.8-6.9-12.8zm40.4 4.1l-.9 9.4h-3.8v-5.2c-3.6.1-6.2 3-7.7 7.9v9.4h5.1v3.8h-14.2V407h3.8v-17.7h-3.8v-3.8h7.8l1 5.9c1.9-4.2 4.6-6.5 8.9-6.5 1.3 0 2.6.2 3.8.6zm7 0h4.7l.4 3.3c2-2.5 5-4 8.2-4 4.7 0 7.1 2.8 7.1 7.5v18.5h-5.4V395c0-4.4-.5-6.1-3.6-6.1-2.5 0-4.6 1.8-6 3.7v18.2h-5.4v-25.3zm50.1 22.3l-1.2 3.6c-2.5-.3-4.3-1.3-5.2-3.5-2 2.3-5 3.6-8.1 3.5-5.2 0-8.3-3.2-8.3-7.9 0-5.3 4.3-8.3 12-8.3h3.6v-1.6c0-3.3-2.1-4.6-5.6-4.6-2.3.1-4.6.5-6.7 1.3l-1.3-3.8c2.8-1.1 5.8-1.7 8.9-1.7 6.8 0 10.1 3.2 10.1 8.5v11.3c-.1 2 .5 2.8 1.8 3.2zm-7.2-3.5v-5.6h-3c-5 0-7 1.8-7 4.8 0 2.7 1.4 4.1 4.3 4.1 2.3 0 4.5-1.3 5.7-3.3zm37.2-12.3v18.8h-4.8v-18.1c0-2.6-.2-3.7-1.7-3.7-1.2 0-2.5.7-3.7 2.5v19.3H984v-18.1c0-2.6-.2-3.7-1.7-3.7-1.3 0-2.5.7-3.8 2.5v19.3h-4.8v-25.4h4l.4 2.7c1.4-2 3-3.4 5.4-3.4 2-.1 3.9 1.2 4.3 3.2 1.4-1.9 3.1-3.2 5.6-3.2 2.9.1 5.1 1.7 5.1 7.3zm17.7 15.3c2.4 0 4.7-.8 6.7-2.2l2.3 3.3c-2.6 2.1-5.9 3.2-9.2 3.1-7.9 0-12.2-5.4-12.2-13.3 0-7.6 4.4-13.4 11.6-13.4 6.7 0 10.9 4.8 10.9 12.7 0 .8 0 1.6-.1 2.4h-16.8c.2 5.2 3.1 7.4 6.8 7.4zm-7-11h11.8c-.1-4.8-2.1-7.4-5.7-7.4-3.3-.1-5.8 2.3-6.1 7.4zm24.4-10.8h4.7l.4 3.3c2-2.5 5-4 8.2-4 4.7 0 7.1 2.8 7.1 7.5v18.5h-5.4V395c0-4.4-.5-6.1-3.6-6.1-2.5 0-4.6 1.8-6 3.7v18.2h-5.4v-25.3zm42.6 26c-5.9 0-9-3.3-9-8.3v-13.7h-5.6v-3.9h5.6v-5.7l5.4-.6v6.3h8.6l-.6 3.9h-8v13.7c0 2.7 1.3 4 4.4 4 1.6 0 3.3-.4 4.7-1.2l1.9 3.6c-2.3 1.2-4.8 1.9-7.4 1.9zm29.7-7.5c0-2.1-.8-3-6.1-4.4-5-1.3-8.3-3.1-8.3-7.5s3.9-7.3 10.1-7.3c3.4-.1 6.8.9 9.6 2.9l-2.3 3.4c-2.1-1.5-4.6-2.3-7.2-2.3-3.5 0-4.8 1.1-4.8 2.8 0 1.9 1.4 2.6 6.4 4s8.2 3.1 8.2 7.9c0 5.5-5.4 7.9-11.2 7.9-3.8.1-7.5-1.1-10.4-3.5l2.8-3.3c2.1 1.7 4.8 2.7 7.6 2.7 3.5.1 5.6-1.2 5.6-3.3zm-1083 7.5c-8.3 0-12.6-6.7-12.6-17.1 0-10.2 4.3-17.3 12.6-17.3s12.5 6.8 12.5 17.2c.1 10.2-4.2 17.2-12.5 17.2zm0-30.1c-4.9 0-6.9 4.3-6.9 12.9s2.1 12.8 6.9 12.8 6.9-4.3 6.9-12.9-2-12.8-6.9-12.8zM52.7 404c0 2.4 1.6 3.2 3.8 3.2 1.4 0 2.7-.3 4-.9l1.3 3.7c-2 1-4.3 1.5-6.5 1.4-5.1 0-8.1-3-8.1-8v-24.2h-7.6v-4h13l.1 28.8zm37.9-28.7v35.5h-4.8l-.4-3.1c-1.6 2.4-4.3 3.8-7.1 3.7-6.5 0-9.6-5.3-9.6-13.3 0-7.7 3.8-13.4 10-13.4 2.4-.1 4.8 1 6.4 2.8v-12.9l5.5.7zm-16.1 22.9c0 6.5 1.9 9.2 5.3 9.2 2.4 0 4.2-1.6 5.4-3.6v-12c-1.1-1.7-3-2.8-5-2.8-3.5 0-5.7 2.9-5.7 9.2zm68.2 5.8c0-2.1-.8-3-6.1-4.4-5-1.3-8.4-3.1-8.4-7.5s3.9-7.3 10.1-7.3c3.5-.1 6.8.9 9.6 2.9l-2.3 3.4c-2.1-1.5-4.6-2.3-7.2-2.3-3.5 0-4.8 1.1-4.8 2.8 0 1.9 1.4 2.6 6.4 4s8.2 3.1 8.2 7.9c0 5.5-5.4 7.9-11.2 7.9-3.8.1-7.5-1.1-10.4-3.5l2.8-3.3c2.1 1.7 4.8 2.7 7.6 2.7 3.5.1 5.7-1.2 5.7-3.3zm27.8 7.5c-5.9 0-9-3.3-9-8.3v-13.7h-5.6v-3.9h5.6v-5.7l5.4-.6v6.3h8.6l-.6 3.9h-8v13.7c0 2.7 1.3 4 4.4 4 1.6 0 3.3-.4 4.7-1.2l1.9 3.6c-2.2 1.2-4.8 1.9-7.4 1.9zm28.5-.5c-1.9 5.8-5.3 9.6-12.4 10.3l-.7-4c5.1-.8 6.8-2.7 8.1-6.3h-1.8l-8.5-25.4h5.7l6.4 21.6 6.5-21.6h5.5L199 411zm26.5-7c0 2.4 1.6 3.2 3.8 3.2 1.4 0 2.7-.3 4-.9l1.3 3.7c-2 1-4.3 1.5-6.5 1.4-5.1 0-8.1-3-8.1-8v-24.2h-7.6v-4h13l.1 28.8zm29 3.3c2.4 0 4.7-.8 6.7-2.2l2.3 3.3c-2.6 2.1-5.9 3.2-9.2 3.1-7.9 0-12.2-5.4-12.2-13.3 0-7.6 4.4-13.4 11.6-13.4 6.7 0 10.9 4.8 10.9 12.7 0 .8 0 1.6-.1 2.4h-16.8c.2 5.2 3.2 7.4 6.8 7.4zm-7-11h11.8c-.1-4.8-2.1-7.4-5.7-7.4-3.3-.1-5.7 2.3-6.1 7.4zm76.3-20.1l-1.6 3.7c-1.7-.7-3.6-1.1-5.4-1-3.3 0-4.9 1.2-4.9 3.9v4.5h8.5l-.6 4h-7.9v19.5h-5.4v-19.5h-5.8v-4h5.8v-4.6c0-4.8 3.9-8.1 9.8-8.1 2.5 0 5.1.6 7.5 1.6zm19.6 30.7h6.9v3.9h-19.8v-3.9h7.5v-17.5h-7.3v-3.9h12.7v21.4zm-.2-30.4c.1 1.9-1.5 3.6-3.4 3.6-1.9.1-3.6-1.5-3.6-3.4-.1-1.9 1.5-3.6 3.4-3.6h.1c1.9-.1 3.4 1.4 3.5 3.2v.2zm37.9 10.3c-2.4.7-4.9.9-7.3.8 3 1.4 4.6 3.4 4.6 6.5 0 4.9-3.8 8.5-10 8.5-1.2.1-2.3-.1-3.5-.4-.7.5-1.1 1.3-1.1 2.1 0 1 .6 1.9 3.1 1.9h4.4c5.4 0 9.3 3 9.3 7.1 0 5-4.5 8-12.7 8-8.7 0-11.3-2.7-11.3-7.9h4.8c0 2.7 1.2 3.9 6.5 3.9s7.2-1.3 7.2-3.7c0-2.1-1.9-3.2-4.9-3.2h-4.4c-4.8 0-6.9-2.3-6.9-4.9.1-1.9 1.1-3.6 2.8-4.6-2.8-1.2-4.5-4.1-4.3-7.1 0-5.3 4.3-9 10.6-9s8.7-1 11.7-2.5l1.4 4.5zm-18.2 7c0 3.2 1.7 5.3 5.2 5.3 3.2 0 4.9-1.9 4.9-5.4s-1.6-5.1-5-5.1-5.1 2.1-5.1 5.2zm29.6 9.4c0 3 1.2 4.2 3.6 4.2 2.4-.1 4.6-1.5 5.9-3.5v-18.3h5.4V411h-4.6l-.3-3.3c-1.9 2.5-4.9 3.9-8 3.9-4.9 0-7.3-2.8-7.3-7.6v-18.4h5.4l-.1 17.6zm45.3-17.7l-.9 9.4H433v-5.2c-3.6.1-6.2 3-7.7 7.9v9.4h5.1v3.8h-14.2V407h3.7v-17.7h-3.7v-3.8h7.8l1 5.9c1.9-4.2 4.6-6.5 8.9-6.5 1.3 0 2.6.2 3.9.6zm18.3 21.8c2.4 0 4.7-.8 6.7-2.2l2.3 3.3c-2.6 2.1-5.9 3.2-9.2 3.1-7.9 0-12.2-5.4-12.2-13.3 0-7.6 4.4-13.4 11.6-13.4 6.7 0 11 4.8 11 12.7 0 .8 0 1.6-.2 2.4h-16.8c.3 5.2 3.2 7.4 6.8 7.4zm-7-11h11.8c-.1-4.8-2.1-7.4-5.7-7.4-3.3-.1-5.7 2.3-6.1 7.4zm39.1 7.7c0-2.1-.8-3-6-4.4-5-1.3-8.4-3.1-8.4-7.5s3.9-7.3 10.1-7.3c3.5-.1 6.8.9 9.7 2.9l-2.3 3.4c-2.1-1.5-4.6-2.3-7.2-2.3-3.5 0-4.8 1.1-4.8 2.8 0 1.9 1.4 2.6 6.4 4s8.2 3.1 8.2 7.9c0 5.5-5.4 7.9-11.2 7.9-3.8.1-7.5-1.1-10.4-3.5l2.8-3.3c2.1 1.7 4.8 2.7 7.6 2.7 3.4.1 5.5-1.2 5.5-3.3zM33.3 4.8h5.5v28.5h14.9l-.6 4.7H33.3V4.8zm41.1 29.1h6.9v3.9H61.5v-3.9H69V16.5h-7.3v-3.9h12.7v21.3zm-.2-30.4c0 1.9-1.6 3.5-3.5 3.5s-3.5-1.6-3.5-3.5S68.8 0 70.7 0s3.5 1.6 3.5 3.5zm37.9 10.3c-2.4.7-4.9.9-7.3.8 3 1.4 4.6 3.4 4.6 6.5 0 4.9-3.8 8.5-10 8.5-1.2.1-2.3-.1-3.4-.4-.7.5-1.1 1.3-1.2 2.1 0 1 .6 1.9 3.1 1.9h4.4c5.4 0 9.3 3 9.3 7.1 0 5-4.5 8-12.7 8-8.7 0-11.3-2.7-11.3-7.9h4.8c0 2.7 1.2 3.9 6.5 3.9s7.2-1.3 7.2-3.7c0-2.1-1.9-3.2-4.9-3.2H97c-4.8 0-6.9-2.3-6.9-4.9.1-1.9 1.1-3.6 2.8-4.6-2.8-1.2-4.5-4.1-4.3-7.1 0-5.3 4.3-9 10.6-9s8.7-1 11.7-2.5l1.2 4.5zm-18.1 7c0 3.2 1.7 5.3 5.2 5.3 3.2 0 4.9-1.9 4.9-5.4s-1.6-5.1-4.9-5.1c-3.6 0-5.2 2.1-5.2 5.2zm45.5 14.1l-1.2 3.6c-2.4-.3-4.3-1.3-5.2-3.5-2 2.3-5 3.6-8.1 3.5-5.2 0-8.3-3.2-8.3-7.9 0-5.3 4.3-8.3 12-8.3h3.6v-1.6c0-3.3-2.1-4.6-5.6-4.6-2.3.1-4.5.5-6.6 1.3l-1.3-3.8c2.8-1.1 5.8-1.7 8.9-1.7 6.8 0 10.1 3.2 10.1 8.5v11.3c-.2 1.9.4 2.7 1.7 3.2zm-7.2-3.6v-5.6h-3c-5 0-7 1.8-7 4.8 0 2.7 1.4 4.1 4.3 4.1 2.3-.1 4.4-1.3 5.7-3.3zm28.5 7.2c-5.9 0-9-3.3-9-8.3V16.5h-5.6v-3.9h5.6V6.9l5.4-.6v6.3h8.6l-.6 3.9h-8v13.7c0 2.7 1.3 4 4.4 4 1.6 0 3.3-.4 4.7-1.2l1.9 3.6c-2.3 1.2-4.8 1.9-7.4 1.9zm20.4-8.3c0 3 1.2 4.2 3.6 4.2 2.4-.1 4.6-1.5 5.9-3.5V12.5h5.4v25.4h-4.7l-.3-3.3c-1.9 2.5-4.9 3.9-8 3.9-5 0-7.3-2.8-7.3-7.6V12.5h5.4v17.7zm45.2-17.7l-.9 9.4h-3.8v-5.2c-3.6.1-6.2 3-7.7 7.9V34h5.1v3.8h-14.2V34h3.7V16.4h-3.7v-3.8h7.8l1 5.9c1.9-4.2 4.6-6.5 8.9-6.5 1.3-.1 2.6.1 3.8.5zm18.4 21.8c2.4 0 4.7-.8 6.7-2.2l2.3 3.3c-2.6 2.1-5.9 3.2-9.2 3.1-7.9 0-12.2-5.4-12.2-13.3 0-7.6 4.4-13.4 11.6-13.4 6.7 0 11 4.8 11 12.7 0 .8 0 1.6-.1 2.4h-16.8c.1 5.2 3 7.4 6.7 7.4zm-7-11h11.8c-.1-4.8-2.1-7.4-5.7-7.4-3.4-.1-5.8 2.3-6.1 7.4zm39.1 7.7c0-2.1-.8-3-6-4.4-5-1.3-8.4-3.1-8.4-7.5s3.9-7.3 10.1-7.3c3.4-.1 6.8.9 9.6 2.9l-2.3 3.4c-2.1-1.5-4.6-2.3-7.2-2.3-3.5 0-4.8 1.1-4.8 2.8 0 1.9 1.4 2.6 6.4 4s8.2 3.1 8.2 7.9c0 5.5-5.4 7.9-11.2 7.9-3.8.2-7.5-1.1-10.5-3.5l2.8-3.3c2.1 1.7 4.8 2.7 7.6 2.7 3.6.1 5.7-1.2 5.7-3.3z" class="st1"/><path d="M37.1 69.9c0 .9.1 1.7.4 2.5.5 1.5 2.6 2.4 4.8 2.4 2.4-.1 4.8-.5 7.1-1.2 2.4-.7 5-1.2 7.5-1.2 7 0 10.6 6.8 11 12.7.1 1.5.1 2.7.1 3.4 0 .9-.4 1.2-1 1.2s-1.3-.2-1.3-.9 0-1.5-.1-2.3c-.6-4.8-3.4-8.5-8.3-8.5-2.4 0-4.8.2-7.2.6-2 .3-4.1.5-6.1.6-2 .1-4-.6-5.5-2-1.6-1.4-2.1-2.4-2.8-2.4s-1.2 1-3.1 2.5c-1.5 1.3-3.5 1.9-5.5 1.9-2-.1-4-.3-6.1-.6-2.3-.4-4.7-.6-7.1-.6-6.8 0-8.8 5.3-9.6 8.6-.2.9-.3 1.7-.3 2.6 0 .4-.5.5-1.3.5s-1-.1-1-.5 0-1.4.1-2.4c.2-5 2.6-14.4 11.6-14.4 2.5.1 5 .5 7.3 1.3 2.2.7 4.5 1.1 6.8 1.2 2.3 0 4.8-.5 6-2.3.5-.8.8-1.7.8-2.6.1-.6.6-1 1.2-.9 1.1-.1 1.6.3 1.6.8z" class="st2"/><path d="M389.7 37.9h-5.6V9.3h-10V4.8h25.7l-.6 4.6h-9.5v28.5zm37.2-3l-1.2 3.6c-2.5-.3-4.3-1.3-5.2-3.5-2 2.3-5 3.6-8.1 3.5-5.2 0-8.4-3.2-8.4-7.9 0-5.3 4.3-8.3 12-8.3h3.6v-1.6c0-3.3-2.1-4.6-5.6-4.6-2.3.1-4.6.5-6.7 1.3l-1.3-3.8c2.8-1.1 5.8-1.7 8.9-1.7 6.8 0 10.1 3.2 10.1 8.5v11.3c0 1.9.6 2.7 1.9 3.2zm-7.2-3.6v-5.6h-3c-5 0-7 1.8-7 4.8 0 2.7 1.4 4.1 4.3 4.1 2.3-.1 4.4-1.3 5.7-3.3zm25.8-.3c0 2.3 1.6 3.2 3.8 3.2 1.4 0 2.7-.3 4-.9l1.3 3.7c-2 1-4.3 1.5-6.5 1.4-5.1 0-8.1-3-8.1-8V6.3h-7.6v-4h13l.1 28.7zm28.8 0c0 2.3 1.6 3.2 3.8 3.2 1.4 0 2.7-.3 4-.9l1.3 3.7c-2 1-4.3 1.5-6.5 1.4-5.1 0-8.1-3-8.1-8V6.3h-7.6v-4h13l.1 28.7zm44.3 6.9l9.1-13.4-8.1-12h6.2l5.2 8.9 5.2-8.9h5.9l-7.9 11.8 9.1 13.6H537l-6.2-10.4-6.2 10.4h-6zM551 20.6h17.4V25H551v-4.4zm32.8-5c1.9-2.4 4.8-3.8 7.9-3.8 4.8 0 7 2.8 7 7.5v18.5h-5.4V20.2c0-3-1.1-4.2-3.7-4.2s-4.6 1.8-5.9 3.7v18.1h-5.4V2.4l5.4-.6v13.8zm34.8 18.7c2.4 0 4.7-.8 6.7-2.2l2.3 3.3c-2.6 2.1-5.9 3.2-9.2 3.1-7.9 0-12.2-5.4-12.2-13.3 0-7.6 4.4-13.4 11.6-13.4 6.7 0 11 4.8 11 12.7 0 .8 0 1.6-.2 2.4h-16.8c.2 5.2 3.2 7.4 6.8 7.4zm-7-11h11.8c-.1-4.8-2.1-7.4-5.7-7.4-3.4-.1-5.7 2.3-6.1 7.4zm38.2 10.6h6.9v3.9h-19.8v-3.9h7.5V16.5h-7.3v-3.9h12.7v21.3zm-.2-30.4c-.1 1.9-1.8 3.4-3.8 3.2-1.7-.1-3.1-1.5-3.2-3.2.1-1.9 1.8-3.4 3.8-3.2 1.7.1 3.1 1.5 3.2 3.2zm37.9 10.3c-2.4.7-4.9.9-7.3.8 3 1.4 4.6 3.4 4.6 6.5 0 4.9-3.8 8.5-10 8.5-1.2.1-2.3-.1-3.5-.4-.7.5-1.1 1.3-1.1 2.1 0 1 .6 1.9 3.1 1.9h4.4c5.4 0 9.3 3 9.3 7.1 0 5-4.5 8-12.7 8-8.7 0-11.3-2.7-11.3-7.9h4.8c0 2.7 1.2 3.9 6.5 3.9s7.2-1.3 7.2-3.7c0-2.1-1.9-3.2-4.9-3.2h-4.4c-4.8 0-6.9-2.3-6.9-4.9.1-1.9 1.1-3.6 2.8-4.6-2.8-1.2-4.5-4.1-4.3-7.1 0-5.3 4.3-9 10.6-9 6.1.1 8.7-1 11.7-2.5l1.4 4.5zm-18.1 7c0 3.2 1.7 5.3 5.2 5.3 3.2 0 4.9-1.9 4.9-5.4s-1.6-5.1-5-5.1-5.1 2.1-5.1 5.2zm29.6-5.2c1.9-2.4 4.8-3.8 7.9-3.8 4.8 0 7 2.8 7 7.5v18.5h-5.4V20.2c0-3-1.1-4.2-3.7-4.2s-4.6 1.8-5.9 3.7v18.1h-5.4V2.4l5.4-.6v13.8zm37.2 22.9c-5.9 0-9-3.3-9-8.3V16.5h-5.6v-3.9h5.6V6.9l5.4-.6v6.3h8.6l-.6 3.9h-8v13.7c0 2.7 1.3 4 4.4 4 1.6 0 3.3-.4 4.7-1.2l1.9 3.6c-2.3 1.2-4.8 1.9-7.4 1.9z" class="st1"/><path d="M380.1 69.9c0 .9.1 1.7.4 2.5.5 1.5 2.6 2.4 4.8 2.4 2.4-.1 4.8-.5 7.1-1.2 2.4-.7 5-1.2 7.5-1.2 7 0 10.6 6.8 11 12.7.1 1.5.1 2.7.1 3.4 0 .9-.4 1.2-1 1.2s-1.3-.2-1.3-.9 0-1.5-.1-2.3c-.6-4.8-3.5-8.5-8.4-8.5-2.4 0-4.8.2-7.2.6-2 .3-4.1.5-6.1.6-2 .1-4-.6-5.5-2-1.6-1.4-2.1-2.4-2.8-2.4s-1.2 1-3.1 2.5c-1.5 1.3-3.5 1.9-5.5 1.9-2-.1-4-.3-6-.6-2.3-.4-4.7-.6-7.1-.6-6.8 0-8.8 5.3-9.6 8.6-.2.9-.3 1.7-.3 2.6 0 .4-.5.5-1.3.5s-1-.1-1-.5 0-1.4.1-2.4c.2-5 2.6-14.4 11.6-14.4 2.5.1 5 .5 7.3 1.3 2.2.7 4.5 1.1 6.8 1.2 2.3 0 4.8-.5 6-2.3.5-.8.8-1.7.8-2.6.1-.6.6-1 1.2-.9 1.1-.1 1.6.3 1.6.8z" class="st2"/><path d="M935.2 19.5h12.5v4.2h-12.5v14.1h-5.6v-33H950l-.6 4.2h-14.2v10.5zm43.2-7l-.9 9.4h-3.8v-5.2c-3.6.1-6.2 3-7.7 7.9V34h5.1v3.8h-14.2V34h3.8V16.4h-3.8v-3.8h7.8l1 5.9c1.9-4.2 4.6-6.5 8.9-6.5 1.3-.1 2.6.1 3.8.5zm28.3 22.4l-1.2 3.6c-2.5-.3-4.3-1.3-5.2-3.5-2 2.3-5 3.6-8.1 3.5-5.2 0-8.3-3.2-8.3-7.9 0-5.3 4.3-8.3 12-8.3h3.6v-1.6c0-3.3-2.1-4.6-5.6-4.6-2.3.1-4.6.5-6.7 1.3l-1.3-3.8c2.8-1.1 5.8-1.7 8.9-1.7 6.8 0 10.1 3.2 10.1 8.5v11.3c-.1 1.9.5 2.7 1.8 3.2zm-7.2-3.6v-5.6h-3c-5 0-7 1.8-7 4.8 0 2.7 1.4 4.1 4.3 4.1 2.3-.1 4.4-1.3 5.7-3.3zm33.2.6l2.4 3.5c-2.5 2-5.6 3.1-8.9 3.1-7.8 0-12.3-5.2-12.3-13.1 0-7.7 4.6-13.5 12.4-13.5 3.2-.1 6.3 1 8.8 3.1l-2.5 3.4c-1.8-1.3-4-2.1-6.2-2.1-4 0-6.8 2.8-6.8 9.2s2.9 8.7 6.8 8.7c2.3-.2 4.5-.9 6.3-2.3zm24.1 6.6c-5.9 0-9-3.3-9-8.3V16.5h-5.6v-3.9h5.6V6.9l5.4-.6v6.3h8.6l-.6 3.9h-8v13.7c0 2.7 1.3 4 4.4 4 1.6 0 3.3-.4 4.7-1.2l1.9 3.6c-2.3 1.2-4.8 1.9-7.4 1.9zm28.8-4.6h6.9v3.9h-19.8v-3.9h7.5V16.5h-7.3v-3.9h12.7v21.3zm-.2-30.4c-.1 1.9-1.8 3.4-3.8 3.2-1.7-.1-3.1-1.5-3.2-3.2.1-1.9 1.8-3.4 3.8-3.2 1.7.1 3.1 1.5 3.2 3.2zm36.8 21.6c0 8.1-4.1 13.3-11.5 13.3s-11.5-5.1-11.5-13.3c0-7.9 4.1-13.4 11.5-13.4s11.5 5.4 11.5 13.4zm-17.3.1c0 6.3 1.9 9.2 5.8 9.2s5.8-2.9 5.8-9.2-1.9-9.1-5.8-9.1-5.8 2.8-5.8 9.1zm24.5-12.7h4.7l.4 3.3c2-2.5 5-4 8.2-4 4.7 0 7 2.8 7 7.5v18.5h-5.4V22.1c0-4.4-.5-6.1-3.6-6.1-2.5 0-4.6 1.8-6 3.7v18.2h-5.4l.1-25.4zm43.5 18.5c0-2.1-.8-3-6.1-4.4-5-1.3-8.3-3.1-8.3-7.5s3.9-7.3 10.1-7.3c3.4-.1 6.8.9 9.6 2.9l-2.3 3.4c-2.1-1.5-4.6-2.3-7.2-2.3-3.5 0-4.8 1.1-4.8 2.8 0 1.9 1.4 2.6 6.4 4s8.2 3.1 8.2 7.9c0 5.5-5.4 7.9-11.2 7.9-3.8.1-7.5-1.1-10.4-3.5l2.8-3.3c2.1 1.7 4.8 2.7 7.6 2.7 3.5.1 5.6-1.2 5.6-3.3z" class="st1"/><path d="M931.1 69.9c0 .9.1 1.7.4 2.5.5 1.5 2.6 2.4 4.8 2.4 2.4-.1 4.8-.5 7.1-1.2 2.4-.7 5-1.2 7.5-1.2 7 0 10.6 6.8 11 12.7.1 1.5.1 2.7.1 3.4 0 .9-.4 1.2-1 1.2s-1.3-.2-1.3-.9 0-1.5-.1-2.3c-.6-4.8-3.5-8.5-8.3-8.5-2.4 0-4.8.2-7.2.6-2 .3-4.1.5-6.1.6-2 .1-4-.6-5.5-2-1.6-1.4-2.1-2.4-2.8-2.4s-1.2 1-3.1 2.5c-1.5 1.3-3.5 1.9-5.5 1.9-2-.1-4-.3-6-.6-2.3-.4-4.7-.6-7.1-.6-6.8 0-8.8 5.3-9.6 8.6-.2.9-.3 1.7-.3 2.6 0 .4-.5.5-1.3.5s-1-.1-1-.5 0-1.4.1-2.4c.2-5 2.6-14.4 11.6-14.4 2.5.1 5 .5 7.3 1.3 2.2.7 4.5 1.1 6.8 1.2 2.3 0 4.8-.5 6-2.3.5-.8.8-1.7.8-2.6.1-.6.6-1 1.2-.9 1-.1 1.5.3 1.5.8z" class="st2"/><path d="M279.2 179.5h483m-483-51.5l483-2" class="st3"/><path d="M279.2 149h483" class="st4"/><path d="M17.9 482.9c0-.9.1-4.3 0-10-.1-2.5-.4-4-1.7-4-1 0-2 .2-2.9.6l-3.6 1.4c-.2.1-.5.1-.7-.2v-.1l-.6-1.4c-.1-.3-.1-.6.4-.9l13.4-8.4c.3-.3.7-.4 1.1-.4.4 0 .5.4.5 1s-.2 12-.2 21.2v3c0 .9.1 16.1.1 17.1.1 3.7.4 4.2 3.6 4.2h2.6c.5 0 .7.2.7.6v1.7c0 .4-.2.6-.7.6s-9-.2-9.7-.2-9.2.3-9.6.3c-.3 0-.5-.2-.6-.4v-2c0-.4.4-.4 1-.4h1.9c4.7 0 4.8-.2 5-4 .1-.9.1-15.5.1-16.8l-.1-2.5zm41.7 26c-1.2 0-2.5.1-3.6.1s-1.9.1-2.2.1-.6 0-.8-.4c-.2-.4-.1-.8.2-1.1 3.4-3.2 9.7-8.7 15.5-14.9s9.1-11.7 8.9-18c-.2-6.4-4.1-10.2-9.3-10.1-6.1.1-8.4 4.8-9.7 7-.3.5-.5.6-.9.4l-1-.4c-.2-.1-.3-.4 0-1 1.2-2.8 4.7-10.8 14.4-10.8 7.1.1 12.7 6 12.6 13.1 0 6.1-2.4 11.3-8.9 18.6-4.9 5.5-10.6 9.7-13.8 12.5h14.6c4.9 0 6.8-3.4 8.4-6 .4-.6.6-.7 1.3-.4.6.3.9.6.6 1l-4.7 11.2c-.4.8.2.8-1.1.8-.6 0-.6-.1-.9-.7-.4-.9-1.8-1-4-1H59.6zm50.7 12.3c.1-1.1 1-1.9 2.1-1.9 1.2.1 2.3.7 3.1 1.5 1.1 1 2.5 1.5 3.9 1.4 4 0 9.8-3.1 9.8-11.3 0-4.9-3.2-9-9.3-10-.4 0-.8-.4-.8-.8v-.1c0-.4.3-.8.9-.9 3.8-.8 9-5.8 9-10.7 0-2.3-2.2-6-6.1-6-3.6 0-5.7 2.7-7 4.5-.3.4-.7.7-1.2.6-.6 0-.9-.3-.9-.7 0-.4.2-.8.4-1.2 1.6-3.4 5.5-7.6 11.2-7.6 5.1 0 8.3 3.9 8.3 7.5 0 6-4 9.7-6.8 12.5 5.8 3 8.2 7 8.2 10.6 0 9.9-8.4 16.3-16.9 16.3-3.4-.1-7.9-.8-7.9-3.7zm75.9-12.3v12.7c0 .7-.4 1-.8 1h-3.5c-.6 0-.8-.2-.8-1.4v-12.4H164c-.8 0-1.1-.2-1.1-.6s.1-.6.6-1.1l21.2-28.4c.5-.7.7-1 1.3-1 .4 0 .9.4.6 1.7-.3 1.7-.6 9.1-.6 14v11.5h8.3c.4 0 .7.2.7.9v2.2c0 .7-.4.9-.9.9h-7.9zm-4.9-21h-.1l-12.8 17h12.9v-17zm38.1 33.7c0-1.1.9-2 2-2h.2c1.1.1 2.1.6 2.9 1.3.9.7 2.2 1.1 4.5 1.1 4.5 0 8.1-4 8.1-11 0-9.7-6.6-11.7-13.2-13l3.3-18.4c.1-.6.4-.9 1.1-.9h9.1c3 0 3.9-1.9 4.5-3.2.1-.1.1-.2.3-.1l.8.2c.1.1.2.1.1.4l-1.9 6.4c-.2.9-1.1 1.5-2 1.4H229l-1.7 9c7.3 1.1 14.8 5.9 14.8 16.3 0 9.2-7.6 15.7-14.3 15.7-4.3.1-8.4-.7-8.4-3.2zm58.1-15.6c-3.6-3.9-4.6-9.5-4.6-13.2.1-14.1 8.6-26.7 21.5-32.3.8-.4 1.7-.7 2.7-.8.4 0 .9.2.9.7.1.5-.2.9-.6 1.1-5.8 2.6-15.3 10.5-17.1 22.3 2.7-2.3 6.1-3.4 9.6-3.3 9 0 12.7 8 12.7 12.7 0 6.7-1.9 9.8-4.5 12.4-2.6 2.9-6.3 4.5-10.2 4.3-4.9.1-8.3-1.3-10.4-3.9zm18.9-10.5c0-6.4-3.2-11.8-8.7-11.8-4.2 0-6.3 1.7-7.1 3.5-1.1 2.5-1.7 5.1-1.6 7.8 0 3.7.6 12.6 9.3 12.6 1.5 0 8.1-.8 8.1-12.1zm34.5 30.6c0-1.7 1.2-4.2 1.8-5.5 1.8-4.2 15.5-30.7 18.8-36.8h-13.8c-2.9-.1-5.6 1.3-7.1 3.8-.5.8-.7.9-1.4.9s-1.1-.7-.6-1.4c1.1-1.9 5.3-9.9 5.4-10.4s.5-.9.7-.9 1.3.1 1.3.5-.3.8-.4 1.3c-.3 1.1.7 1.3 2.4 1.3h18.1c.9 0 1 .5.6 1.2-2.7 4.9-9.3 17.5-10.5 20.2-.6 1.2-8.4 18.2-9.9 22.6s-2 5.3-3.5 5.3c-1 .1-1.9-.6-2-1.6.1-.2.1-.4.1-.5zm54-27.2c0-5.5 3.9-8.7 7.7-11.6-6.3-3.5-8.3-5.6-8.4-11.2s5.8-12 12.2-12c4.4 0 11 2.8 11 9.9 0 3.7-5 8.8-7.7 11.4 5.6 3.2 8.1 6.3 8.4 12.7 0 6.1-5.8 11.7-12.2 11.7-6.5-.1-11-4.1-11-10.9zm18.3-.5c-.1-5.9-4.1-7.3-8.6-9.8-2 1.3-5.8 5.2-5.8 10.2 0 3.3 3.5 8.5 7.2 8.5 4-.1 7.4-2.7 7.2-8.9zm-13.9-23.5c0 5 2.7 6.6 8 9.2 3.3-3 5.7-6.1 5.7-9.1 0-5.2-2.9-8.6-6.8-8.6-3.4.1-6.9 2.7-6.9 8.5zm51.7 49.2c0-.5.3-.7 1-.9 7.7-3 13.2-9.7 15.4-20.2l-.1-.1c-.8 1.2-5.1 3.5-8.5 3.5-5 0-12.1-4-12.1-13.2 0-7.7 6.1-15 14.2-15 9.4 0 13.3 9.7 13.3 16.7 0 17.7-12.9 28.4-21.4 30.2-.4.1-.8.2-1.1.2-.4-.2-.7-.7-.7-1.2zm15.7-23.6c1.3-1.7 1.6-5 1.6-10.4 0-5.7-2.5-9.8-7.3-9.8-6.8 0-8.7 7.6-8.6 13.6.1 7.6 5 9.9 7.5 9.9 2.6 0 5.1-1.2 6.8-3.3z" class="st0"/></g></g></svg>