<svg xmlns="http://www.w3.org/2000/svg" xmlns:xlink="http://www.w3.org/1999/xlink" width="1018.88" height="432.35" viewBox="0 0 1018.88 432.35"><defs><style>.e043225d-775f-4727-bf93-55162e9ce697{fill:#2997ff}.fff98d25-d68a-475e-b8c1-51acf88d398a{fill:url(#bfa4797e-b3d0-47d8-a2a6-ee9ad46876a8)}.bd8a277b-8019-4af0-9ec3-7158f645d87b{fill:url(#fd33c07c-df90-4974-ae4a-8f534dbb4797)}.e03f9f29-fd97-418b-99a9-c2dd23e99c6b{fill:url(#f5bf922d-a342-4709-b648-a5307eafbaf2)}.e2610918-cc6f-4498-b73e-bca49df9737f{fill:url(#ea0fcf64-b81a-46fc-84dc-b198f0a16acf)}</style><linearGradient id="bfa4797e-b3d0-47d8-a2a6-ee9ad46876a8" x1="66.89" x2="66.89" y1="161.28" gradientTransform="rotate(180 390.25 80.64)" gradientUnits="userSpaceOnUse"><stop offset="0" stop-color="#fff"/><stop offset=".04" stop-color="#e8f4ff"/><stop offset=".12" stop-color="#bcdeff"/><stop offset=".21" stop-color="#94cbff"/><stop offset=".3" stop-color="#73bbff"/><stop offset=".4" stop-color="#58aeff"/><stop offset=".51" stop-color="#43a4ff"/><stop offset=".63" stop-color="#349cff"/><stop offset=".78" stop-color="#2c98ff"/><stop offset="1" stop-color="#2997ff"/></linearGradient><linearGradient id="fd33c07c-df90-4974-ae4a-8f534dbb4797" x1="66.89" x2="66.89" y1="275.46" y2="428.36" gradientUnits="userSpaceOnUse"><stop offset="0" stop-color="#2997ff"/><stop offset=".22" stop-color="#2c98ff"/><stop offset=".37" stop-color="#349cff"/><stop offset=".49" stop-color="#43a4ff"/><stop offset=".6" stop-color="#58aeff"/><stop offset=".7" stop-color="#73bbff"/><stop offset=".79" stop-color="#94cbff"/><stop offset=".88" stop-color="#bcdeff"/><stop offset=".96" stop-color="#e8f4ff"/><stop offset="1" stop-color="#fff"/></linearGradient><linearGradient id="f5bf922d-a342-4709-b648-a5307eafbaf2" x1="713.61" x2="713.61" y1="161.28" xlink:href="#bfa4797e-b3d0-47d8-a2a6-ee9ad46876a8"/><linearGradient id="ea0fcf64-b81a-46fc-84dc-b198f0a16acf" x1="713.61" x2="713.61" y1="432.35" y2="271.07" xlink:href="#bfa4797e-b3d0-47d8-a2a6-ee9ad46876a8"/></defs><g id="bbf13fae-46b2-46e9-a5d2-72c73bddb0f4"><g id="bb0d26fe-58aa-4141-b248-d0044d80dd7d"><path d="M298.89 142.9a73.39 73.39 0 0 0-72.28 61.28h-92.82v-54.9H0v133.79h133.79v-54.89h92.82a73.27 73.27 0 1 0 72.28-85.28zm-189.1 116.17H24v-85.79h85.79zm189.1 6.38a49.28 49.28 0 1 1 49.27-49.27 49.33 49.33 0 0 1-49.27 49.27z" class="e043225d-775f-4727-bf93-55162e9ce697"/><path d="M701.61 0h24v161.28h-24z" class="fff98d25-d68a-475e-b8c1-51acf88d398a"/><path d="M54.89 271.07h24v161.28h-24z" class="bd8a277b-8019-4af0-9ec3-7158f645d87b"/><path d="M945.6 142.9a73.37 73.37 0 0 0-72.27 61.28H780.5v-54.9H646.72v133.79H780.5v-54.89h92.83a73.27 73.27 0 1 0 72.27-85.28zM756.5 259.07h-85.78v-85.79h85.78z" class="e043225d-775f-4727-bf93-55162e9ce697"/><path d="M54.89 0h24v161.28h-24z" class="e03f9f29-fd97-418b-99a9-c2dd23e99c6b"/><path d="M701.61 271.07h24v161.28h-24z" class="e2610918-cc6f-4498-b73e-bca49df9737f"/></g></g></svg>