<svg xmlns="http://www.w3.org/2000/svg" id="Layer_1" viewBox="0 0 525.1 236.1" width="525.1" height="236.1"><style>.st0{fill:none}.st1{font-family:&apos;ACaslonPro-Regular&apos;}.st2{font-size:26px}.st3{letter-spacing:2}.st4{letter-spacing:1}.st5{opacity:.7;fill:#ff0}.st6,.st7{opacity:.4;fill:#ff0}.st7{opacity:.3}</style><path d="M.4 3.1h518.1v228.7H.4z" class="st0"/><text transform="translate(.364 21.944)"><tspan x="0" y="0" class="st1 st2">Lorem</tspan><tspan x="71.1" y="0" class="st1 st2"> </tspan><tspan x="77.4" y="0" class="st1 st2">ipsum</tspan><tspan x="141" y="0" class="st1 st2"> </tspan><tspan x="147.3" y="0" class="st1 st2">dolor</tspan><tspan x="202.3" y="0" class="st1 st2"> </tspan><tspan x="208.6" y="0" class="st1 st2">sit</tspan><tspan x="233.1" y="0" class="st1 st2"> </tspan><tspan x="239.4" y="0" class="st1 st2">amet,</tspan><tspan x="297.4" y="0" class="st1 st2"> </tspan><tspan x="303.7" y="0" class="st1 st2">consectetuer</tspan><tspan x="433" y="0" class="st1 st2"> </tspan><tspan x="439.3" y="0" class="st1 st2">adipisci </tspan><tspan x="0" y="39.2" class="st1 st2">elit,</tspan><tspan x="39.6" y="39.2" class="st1 st2 st3"> </tspan><tspan x="48.5" y="39.2" class="st1 st2">sed</tspan><tspan x="82.4" y="39.2" class="st1 st2 st3"> </tspan><tspan x="91.4" y="39.2" class="st1 st2">diam</tspan><tspan x="143.9" y="39.2" class="st1 st2 st3"> </tspan><tspan x="152.9" y="39.2" class="st1 st2">nonummy</tspan><tspan x="259.9" y="39.2" class="st1 st2 st3"> </tspan><tspan x="268.9" y="39.2" class="st1 st2">nibh</tspan><tspan x="316.7" y="39.2" class="st1 st2 st3"> </tspan><tspan x="325.7" y="39.2" class="st1 st2">euismod</tspan><tspan x="413.6" y="39.2" class="st1 st2 st3"> </tspan><tspan x="422.5" y="39.2" class="st1 st2">tincidunt </tspan><tspan x="0" y="78.4" class="st1 st2">ut</tspan><tspan x="21.4" y="78.4" class="st1 st2"> </tspan><tspan x="28.5" y="78.4" class="st1 st2">laoreet</tspan><tspan x="98.5" y="78.4" class="st1 st2"> </tspan><tspan x="105.5" y="78.4" class="st1 st2">dolore</tspan><tspan x="171.5" y="78.4" class="st1 st2"> </tspan><tspan x="178.6" y="78.4" class="st1 st2">magna</tspan><tspan x="248.2" y="78.4" class="st1 st2"> </tspan><tspan x="255.2" y="78.4" class="st1 st2">aliquam</tspan><tspan x="338.3" y="78.4" class="st1 st2"> </tspan><tspan x="345.3" y="78.4" class="st1 st2">erat</tspan><tspan x="384.7" y="78.4" class="st1 st2"> </tspan><tspan x="391.7" y="78.4" class="st1 st2">volutpat.</tspan><tspan x="483.4" y="78.4" class="st1 st2"> </tspan><tspan x="490.4" y="78.4" class="st1 st2">Ut </tspan><tspan x="0" y="117.6" class="st1 st2">wisi</tspan><tspan x="41" y="117.6" class="st1 st2 st3"> </tspan><tspan x="50.4" y="117.6" class="st1 st2">enim</tspan><tspan x="103.2" y="117.6" class="st1 st2 st3"> </tspan><tspan x="112.6" y="117.6" class="st1 st2">ad</tspan><tspan x="137.2" y="117.6" class="st1 st2 st3"> </tspan><tspan x="146.6" y="117.6" class="st1 st2">minim</tspan><tspan x="216.2" y="117.6" class="st1 st2 st3"> </tspan><tspan x="225.6" y="117.6" class="st1 st2">veniam,</tspan><tspan x="307.4" y="117.6" class="st1 st2 st3"> </tspan><tspan x="316.8" y="117.6" class="st1 st2">quis</tspan><tspan x="359.4" y="117.6" class="st1 st2 st3"> </tspan><tspan x="368.7" y="117.6" class="st1 st2">nostrud</tspan><tspan x="448.6" y="117.6" class="st1 st2 st3"> </tspan><tspan x="458" y="117.6" class="st1 st2">exerci </tspan><tspan x="0" y="156.8" class="st1 st2">tation</tspan><tspan x="61.4" y="156.8" class="st1 st2 st4"> </tspan><tspan x="69.1" y="156.8" class="st1 st2">ullamcorper</tspan><tspan x="193.4" y="156.8" class="st1 st2 st4"> </tspan><tspan x="201" y="156.8" class="st1 st2">suscipit</tspan><tspan x="278.9" y="156.8" class="st1 st2 st4"> </tspan><tspan x="286.6" y="156.8" class="st1 st2">lobortis</tspan><tspan x="365.6" y="156.8" class="st1 st2 st4"> </tspan><tspan x="373.3" y="156.8" class="st1 st2">nisl</tspan><tspan x="409.9" y="156.8" class="st1 st2 st4"> </tspan><tspan x="417.6" y="156.8" class="st1 st2">ut</tspan><tspan x="439" y="156.8" class="st1 st2 st4"> </tspan><tspan x="446.7" y="156.8" class="st1 st2">aliquip </tspan><tspan x="0" y="196" class="st1 st2">ex ea commodo consequat.</tspan></text><path d="M0 76h518.5v32.9H0z" class="st5"/><path d="M0 115.4h518.5v32.9H0z" class="st6"/><path d="M0 154.8h518.5v32.9H0z" class="st7"/></svg>