<svg xmlns="http://www.w3.org/2000/svg" id="Layer_1" viewBox="0 0 800 466.7" width="800" height="466.7"><style>.st0{fill:#2997ff}.st1{fill:#7fc1ff}.st2{fill:#a9d5ff}.st3{fill:#d4eaff}.st4{fill:#f26518}.st5{fill:#f6935d}.st6{fill:#fac1a3}.st7{fill:#fce0d1}.st8{fill:#888}</style><g id="bca49b8e-bea9-421a-a15d-4bd21fa839c7"><g id="f17c5fef-c825-48d8-84bd-fcc7d629be0e"><path d="M0 85h200v190.9H0V85z" class="st0"/><path d="M200 85h200v190.9H200V85z" class="st1"/><path d="M400 85h200v190.9H400V85z" class="st2"/><path d="M600 85h200v190.9H600V85z" class="st3"/><path d="M0 275.8h200v190.9H0V275.8z" class="st4"/><path d="M200 275.8h200v190.9H200V275.8z" class="st5"/><path d="M400 275.8h200v190.9H400V275.8z" class="st6"/><path d="M600 275.8h200v190.9H600V275.8z" class="st7"/><path d="M0 0h400v85H0V0z"/><path d="M400 0h400v85H400V0z" class="st8"/></g></g></svg>