<svg xmlns="http://www.w3.org/2000/svg" id="Layer_1" viewBox="0 0 800 147.1" width="800" height="147.1"><style>.st0{fill:#b3b3b3}</style><g id="Layer_2_1_"><path id="Layer_1-2" d="M374.4 26.3c-2.5 3.7-2.5 5.6-6.9 5.6-.9-1.2-2.3-1.9-3.8-1.9 0-3.7 2.5-6.3 2.5-10.1h1.3c.1 3.9 4.4 3.9 6.9 6.4zm51.6 0c1.3-2.5 5.6-2.5 6.3-6.3h1.3c0 3.8 1.9 6.3 1.9 10.1-1.9 0-3.8 1.9-8.2 1.9-.2-2.1-.6-4-1.3-5.7zm-26.3 35.8c-5.7 0-19.4-23.9-19.4-28.3s3.7-3.8 6.3-3.8c4.6.4 9.1 1.7 13.2 3.9 4.5-2.2 9.4-3.5 14.5-3.8 1.9 0 1.9 0 1.9 3.8S406 62.2 399.8 62.2v-.1zm94.2 17c2.5 10.8 8.7 20.4 17.6 27-42.1 21.3-63.5 23.2-69.1 23.2v-3.8c17-6.3 27-23.9 31.6-46.5l19.9.1zm-33.3-11.3c1.3 3.8 2.5 3.8 6.9 5.3v1.3c-4.4 0-4.4 3.7-4.4 8.2h-1.3c0-3.1-2.5-4.4-6.3-4.4 0-3.7 3.8-6.3 3.8-10.1 0-.1 1.3-.3 1.3-.3zm-18.3-10c3.1 0 7.6 8.2 7.6 8.2.2 2.8-.4 5.8-1.9 8.2-2.5 0-32-2.5-33.9-6.3-2.5-5.6 17.6-28.3 19.4-28.3 5.7-1.3 5.7 0 8.8 4.4v13.8zm0 37.7v13.9c-3.1 4.4-3.1 5.6-8.8 4.4-1.9 0-22-22.6-19.4-28.3 1.9-3.1 31.6-6.3 33.9-6.3 1.5 2.7 2.1 5.8 1.9 8.8 0 0-4.4 7.5-7.6 7.5zm-42.6 51.7c59.7 0 111.8-27.6 123.2-33.3 12 8.2 34.6 13.9 54 13.9 21.5-1.8 42.9-5 64.1-9.4 22.5-4.1 45.1-7.1 67.9-8.8 57.2 0 84.8 32 91.1 33.3v-1.3c0-27.7-26.3-32-32-27.7v-6.5c3.1-.1 5.5-2.6 5.6-5.7 0-7.5-12-13.8-13.2-13.8h-15v-1.3c3.7-1.4 6.1-4.9 6.3-8.8-.5-5.8-5.5-10.2-11.3-10.1-12 0-46.5 26.3-59.7 26.3-6.3 0-8.2-3.1-8.2-8.8s12-7.6 15.8-7.6c20.8 0 34-10.1 34-15.8 0-4.4-4.4-8.2-10.1-10.5 1.9-5.7 10.1-7.6 10.1-17.6-.2-7.6-13.4-7.6-16.6-7.6 0-8.2-1.3-20.2-1.3-20.2H700c-29.5 56-69.8 101.2-129.4 101.2-13.1 0-25.1-1.3-29.5-5.7 13.2-6.3 63.5-39.6 67.9-42.1 4.4 6.3 7.6 12 15.8 12 12 0 35.8-41.5 41.4-51.6-68-1.7-69.2 6.5-69.2 14 0 4.4 1.3 12 5.7 13.2-20.2 18.8-67.9 48.4-73.6 52.6-8.4-5-15.3-12.2-20.1-20.7 5.6 0 13.9 3.1 20.1 3.1 8.2 0 12-4.4 12-8.2-.7-7-6.8-12.3-13.9-12h-24.5c0-22.6 4.4-47.8 40.2-47.8 2.5 0 6.9 3.7 6.9 3.7-4.6 3-7.3 8.3-6.9 13.9 0 12.2 11.3 15.6 19.9 15.6 7.5 0 15.8-3.1 15.8-17 0-12.2-9.3-30.3-35.6-30.3-28.2-1.6-52.6 19.3-55.4 47.3v15.1h-18.2c-6.2-33.6-35.5-57.9-69.7-58-35.2 0-65.4 22.6-69.1 57.9h-20.3c1.5-4.8 2.2-9.9 2-14.9 0-3.1-5.6-47.3-55.3-47.3-25.6 0-36.5 18.2-36.5 30.2 0 13.9 8.2 17 15.8 17 8.8 0 20.7-3.1 20.7-15.1.2-5.2-1.8-10.3-5.6-13.9 0 0 3.1-3.7 5.6-3.7 35.2 0 39.6 25.1 39.6 47.8h-23.9c-7-.6-13.2 4.7-13.8 11.8v.2c.7 4.6 4.6 8.1 9.4 8.2 8.2 0 16.4-3.1 22.6-3.1-4.6 8.7-11.6 15.9-20.1 20.8-6.3-4.4-54-33.9-74.2-52.6 4.4-1.3 6.3-8.8 6.3-13.2 0-7.5-1.9-15.8-69.8-13.9 6.3 10.1 30.2 51.6 42.1 51.6 7.1.2 13.2-5.1 14-12.2 6.3 2.5 55.9 35.8 69.8 42.1-4.4 4.4-16.4 5.7-30.2 5.7-59.7 0-99.3-45.2-128.9-101.2h-4.4c-1.1 6.6-1.8 13.4-2.1 20.1-1.3 0-16.4 0-16.4 7.5 0 10.1 8.8 12 10.5 17.6C81.2 54.1 77 57.9 77 62.1c0 5.6 15.1 15.8 34.6 15.8 3.8 0 15.8 1.3 15.8 7.6s-1.9 8.8-7.5 8.8c-14.3-.3-52-26.5-59.6-26.5-6.3 0-15.1 3.8-15.1 10.1 0 4.4 6.9 7.6 8.8 10.1H40.8c-7.8.3-14.1 6.1-15.1 13.9.2 3.3 3 5.8 6.3 5.7v6.3c-6.3-4.4-32 0-32 27.7v1.3c5.7-1.3 33.9-33.3 88-33.3 23.4 1.7 46.7 4.6 69.8 8.8 21.6 4.4 43.4 7.5 65.4 9.4 19.4 0 41.4-5.6 53.4-13.9 11.8 5.4 61.4 33.3 123.1 33.3zm-73-68.1c3.8 22.6 13.9 40.2 32 46.5v3.8c-8.8 0-28.3-1.9-70.4-23.2 3.8-6.3 15.8-18.2 18.3-27l20.1-.1zm32-21.3V43.9c1.3-4.4 1.3-5.6 7.6-4.4 1.3 0 21.3 22.6 20.1 28.3-2.5 3.8-32 6.3-33.9 6.3-1.9-2.3-2.8-5.3-2.5-8.2 0 0 4.4-8.1 8.7-8.1zm-18.2 10c0 3.8 3.1 6.3 3.1 10.1-3-.4-5.7 1.5-6.3 4.4H336c0-4.4 0-8.2-4.4-8.2v-1.3c4.4-1.3 6.3-1.3 7.5-5.3l1.4.3zm18.2 27.7c-4.4 0-8.8-7.5-8.8-7.5-.3-3.1.6-6.3 2.4-8.8 1.9 0 31.6 3.1 33.9 6.3 1.3 5.6-18.8 28.3-20.1 28.3-6.3 1.3-6.3 0-7.6-4.4l.2-13.9zm13.2 23.8c2.5 2.5 2.5 6.3 6.3 6.9v1.3c-3.6-.2-7.2.4-10.5 1.9-1.1-2.6-2.4-5.1-3.8-7.5 2.4-.1 3.7-2.6 8-2.6zm27.7 0c-1.3 2.5-12 2.5-13.2 2.5-2.5 0-2.5 0-2.5-2.5 0-5.7 10.1-31.6 15.8-31.6 5.8 0 16.4 25.7 16.4 31.6 0 2.5-1.9 2.5-1.9 2.5-2.6 0-12.6 0-14.4-2.5h-.2zm27.7 0c4.4 0 6.3 2.5 8.2 2.5-1.9 3.7-1.9 5.6-3.8 7.5-2.9-1.5-6.1-2.1-9.4-1.9v-1.3c3.7-.5 3.7-4.3 5-6.8z" class="st0"/></g></svg>