<svg xmlns="http://www.w3.org/2000/svg" id="icon-pinterest" viewBox="0 0 800 800" width="800" height="800"><style>.st0{fill-rule:evenodd;clip-rule:evenodd;fill:#4c4c4c}</style><path d="M400 0C180 0 0 180 0 400c0 170 106.7 313.3 253.3 373.3-3.3-30-6.7-80 0-113.3C260 630 300 460 300 460s-10-26.7-10-60c0-56.7 33.3-96.7 73.3-96.7 33.3 0 50 26.7 50 56.7 0 33.3-23.3 86.7-33.3 133.3-10 40 20 73.3 60 73.3 70 0 126.7-73.3 126.7-183.3 0-96.7-70-163.3-166.7-163.3-113.3 0-180 86.7-180 173.3 0 33.3 13.3 70 30 90 3.3 3.3 3.3 6.7 3.3 10l-10 46.7c-3.3 6.7-6.7 10-13.3 6.7-50-23.3-80-96.7-80-153.3C150 266.7 243.3 150 413.3 150c140 0 246.7 100 246.7 230 0 136.7-86.7 250-206.7 250-40 0-80-20-93.3-46.7L336.7 680c-10 33.3-33.3 80-50 103.3C320 793.3 360 800 400 800c220 0 400-180 400-400S620 0 400 0z" class="st0"/></svg>