<svg xmlns="http://www.w3.org/2000/svg" id="Layer_1" viewBox="0 0 480 212.7" width="480" height="212.7"><style>.st0{fill:#231f20}.st1{fill:none;stroke:#00aeef;stroke-width:.4934;stroke-miterlimit:10}</style><g id="aa20623d-e580-482a-8e7e-16ba329ccaba"><g id="a29d51b8-7498-4c19-8373-cb34a10b2d70"><path d="M480 178l-.4-1.3c-1 .5-2.1.8-3.2.9-1.3 0-3-.8-3-5V159h5.6c.7-.5.8-1.4.3-2h-5.9v-7.1l-.7-.1-3.4 3.5v3.8h-2.4l-1.4 1.5.2.5h3.6v15.2c0 4.1 1.9 6.2 5.2 6.2.8-.1 1.5-.3 2.2-.7l3.3-1.8zm-15.7-.8l-1.4-.1c-2-.1-2.4-.5-2.4-3.1v-17.5c-2.7.5-5.5.8-8.2 1v1.2c3.8.5 4.1.7 4.1 3.7v12.1c-1.5 1.6-3.5 2.5-5.6 2.5-2.3 0-4.6-1.3-4.6-5.9v-7c0-3.5 0-6 .2-7.6-2.5.5-5 .8-7.5 1v1.2c2.9.6 3.2.8 3.2 3.7v10.2c0 5.6 2.9 7.8 6.5 7.8 1.4-.1 2.8-.5 4-1.3 1.4-.9 2.6-1.8 3.8-2.7v3.7l.3.3c2.5-.8 5.1-1.4 7.7-1.9l-.1-1.3zm-47.6-1.8c-1.4 1.1-3.2 1.7-5 1.8-3.4 0-7.1-3.1-7.1-9.2 0-7.6 4.4-9.6 6.8-9.6 2.1-.1 4.1 1 5.4 2.6l-.1 14.4zm8.1 1.8l-1.7-.2c-2-.2-2.3-.5-2.3-3.2v-31.2c-2.6.8-5.4 1.4-8.2 1.8v1.3c3.8.2 4 .4 4 3.8v7.4c-1.1-.4-2.3-.5-3.5-.6-7.1 0-13.5 5.7-13.5 13s5.5 11.2 9.7 11.2c1.4-.2 2.9-.7 4.1-1.5l3.2-1.9v3.4c2.6-.8 5.3-1.5 8.1-2l.1-1.3zm-37.7-18.9c2.9 0 4.7 2.5 4.6 5.2 0 .7-.3 1-1.3 1-3 .1-5.9.1-8.8.1.8-4.1 3.1-6.3 5.5-6.3m8 16c-1.6 1.6-3.7 2.6-5.9 2.6-3.7 0-7.7-2.9-7.8-10 6.2-.2 12.8-.7 13.6-.9.8-.2 1.2-.7 1.2-1.7-.1-4.3-3.5-7.8-7.9-8-3 .1-5.8 1.5-7.7 3.8-2.3 2.5-3.5 5.8-3.5 9.2 0 5.9 3.8 11.2 10.2 11.2 1.6 0 5.2-1 8.5-5.1l-.7-1.1zm-22.7-11.5c-.2-1.9-.7-3.8-1.1-5.6-1.5-.6-3.1-.9-4.6-.9-4.8 0-8 3.1-8 6.7 0 4 3.4 5.8 6.5 7.2 2.6 1.2 4.1 2.5 4.1 4.7 0 2-1.6 3.7-3.7 3.7h-.1c-3.1 0-5.5-3.1-6.4-6.5l-1.4.2c0 2.1.3 4.1.8 6.2 1.8 1.2 3.9 1.8 6 1.8 4.2 0 8.6-2.5 8.6-7.2 0-3.6-2.6-5.5-6.6-7.1-2.3-1-4.4-2.2-4.4-4.6-.1-1.9 1.3-3.5 3.2-3.6h.2c2.6 0 4.4 2.1 5.4 5.2l1.5-.2zm-27.1-4.5c2.9 0 4.7 2.5 4.6 5.2 0 .7-.3 1-1.3 1-3 .1-5.9.1-8.9.1.8-4.1 3.1-6.3 5.6-6.3m8 16c-1.6 1.6-3.7 2.6-5.9 2.6-3.7 0-7.7-2.9-7.8-10 6.2-.2 12.8-.7 13.6-.9.9-.2 1.2-.7 1.2-1.7-.1-4.3-3.5-7.8-7.9-8-3 .1-5.8 1.5-7.7 3.8-2.3 2.5-3.5 5.8-3.5 9.2 0 5.9 3.8 11.2 10.2 11.2 1.6 0 5.2-1 8.5-5.1l-.7-1.1zm-20.7 5.5v-1.4c-3.4-.3-3.8-.6-3.8-4.1v-31.8c-2.5.8-5.1 1.5-7.7 1.8v1.3c3.3.2 3.6.4 3.6 4v24.7c0 3.5-.5 3.8-3.8 4.1v1.4h11.7zM310 158.3c2.9 0 4.7 2.5 4.6 5.2 0 .7-.3 1-1.3 1-3 .1-5.9.1-8.8.1.8-4.1 3.1-6.3 5.5-6.3m8.1 16c-1.6 1.6-3.7 2.6-5.9 2.6-3.7 0-7.7-2.9-7.8-10 6.2-.2 12.8-.7 13.6-.9.8-.2 1.2-.7 1.2-1.7-.1-4.3-3.5-7.8-7.9-8-3 .1-5.8 1.5-7.7 3.8-2.3 2.5-3.5 5.8-3.5 9.2 0 5.9 3.8 11.2 10.2 11.2 1.6 0 5.2-1 8.5-5.1l-.7-1.1zm-28.6 1.1c-1.4 1.1-3.2 1.7-5 1.8-3.4 0-7.1-3.1-7.1-9.2 0-7.6 4.4-9.6 6.8-9.6 2.1-.1 4.1 1 5.4 2.6v14.4zm8.2 1.8l-1.7-.2c-2-.2-2.3-.5-2.3-3.2v-31.2c-2.6.8-5.4 1.4-8.2 1.8v1.3c3.8.2 4 .4 4 3.8v7.4c-1.1-.4-2.3-.5-3.4-.6-7.1 0-13.5 5.7-13.5 13s5.5 11.2 9.7 11.2c1.4-.2 2.9-.7 4.1-1.5l3.2-1.9v3.4c2.6-.8 5.3-1.5 8.1-2v-1.3zm-27.9 2.6v-1.4c-3.4-.3-3.7-.6-3.7-4.2v-18.1c-2.4 1-4.9 1.7-7.4 2v1.3c3.1.5 3.3.7 3.3 4v10.7c0 3.5-.4 3.9-3.7 4.2v1.4l11.5.1zm-6.2-28c1.4 0 2.6-1.2 2.6-2.6.1-1.4-1.1-2.6-2.5-2.7h-.1c-1.5 0-2.7 1.3-2.6 2.7.1 1.3 1.2 2.5 2.6 2.6m-25 9.8c1.4-1 3.5-2.2 5.2-2.2 3.8 0 7 3.1 7 8.8 0 5.9-2.9 9.7-7.3 9.7-1.9 0-3.6-.8-4.9-2v-14.3zm0-1.7v-4.1c-2.5 1-5 1.7-7.6 2.2v1.3c3.2.4 3.5.5 3.5 4V187c0 3.4-.5 3.8-3.8 4.1v1.4h12.4v-1.4c-4.1-.4-4.4-.7-4.4-4.6v-6.9c1.1.6 2.3.9 3.6 1 6.8-1.3 13-6.4 13-14.2 0-5.2-3.5-9.8-9.2-9.8-.9.1-1.8.4-2.6.8l-4.9 2.5zm-9 19.9v-1.4c-3.4-.3-3.7-.6-3.7-4.2v-18c-2.4 1-4.9 1.6-7.4 2v1.3c3.1.5 3.3.7 3.3 4v10.7c0 3.5-.4 3.9-3.7 4.2v1.4h11.5zm-6.1-28.1c1.4 0 2.6-1.2 2.6-2.6.1-1.4-1.1-2.6-2.5-2.7h-.1c-1.5 0-2.7 1.3-2.6 2.7 0 1.4 1.2 2.6 2.6 2.6m-15.8 23.7c-1.4 1.1-3.2 1.7-5 1.8-3.4 0-7.2-3.1-7.2-9.2 0-7.6 4.4-9.6 6.8-9.6 2.1-.1 4.1 1 5.4 2.6v14.4zm8.1 1.7l-1.7-.2c-2-.2-2.3-.5-2.3-3.2v-31.2c-2.6.8-5.4 1.4-8.2 1.8v1.3c3.8.2 4 .4 4 3.8v7.4c-1.1-.4-2.3-.5-3.4-.6-7.1 0-13.5 5.7-13.5 13s5.5 11.2 9.7 11.2c1.4-.2 2.9-.7 4.1-1.5l3.2-1.9v3.4c2.6-.8 5.3-1.5 8.1-2v-1.3zm-39.8 2.7v-1.4c-3.4-.3-3.7-.6-3.7-4.2v-18c-2.4 1-4.9 1.6-7.4 2v1.3c3.1.5 3.3.7 3.3 4v10.7c0 3.5-.4 3.9-3.7 4.2v1.4H176zm-6.1-28.1c1.4 0 2.6-1.2 2.6-2.6.1-1.4-1.1-2.6-2.5-2.7h-.1c-1.5 0-2.7 1.3-2.6 2.7s1.2 2.6 2.6 2.6m-15.6 23.7c-1.4 1.1-3.2 1.7-5 1.8-3.4 0-7.1-3.1-7.1-9.2 0-7.6 4.4-9.6 6.8-9.6 2.1-.1 4.1 1 5.4 2.6v14.4zm8.1 1.8l-1.7-.2c-2-.2-2.3-.5-2.3-3.2v-31.2c-2.6.8-5.4 1.4-8.2 1.8v1.3c3.8.2 4 .4 4 3.8v7.4c-1.1-.4-2.3-.5-3.5-.6-7.1 0-13.5 5.7-13.5 13s5.5 11.2 9.7 11.2c1.4-.2 2.9-.7 4.1-1.5l3.2-1.9v3.4c2.6-.8 5.3-1.5 8.1-2l.1-1.3zm-28.1 2.6v-1.4c-3-.3-3.3-.5-3.3-4.1v-10.1c0-5.1-2.6-8-6.7-8-1.6.1-3.1.7-4.3 1.6-1.3.9-2.5 1.7-3.5 2.5v-4.2c-2.3 1-4.7 1.7-7.3 2.2v1.2c2.8.5 3.1.7 3.1 4v10.9c0 3.5-.2 3.7-3.8 4.1v1.4h11.3v-1.4c-3.1-.3-3.4-.5-3.4-4.1v-12.3c1.6-1.4 3.6-2.6 5.7-2.6 3.5 0 4.7 2.3 4.7 5.9v8.8c0 3.6-.4 4-3.4 4.3v1.4l10.9-.1zm-35.5-4.4c-1.1 1-2.6 1.7-4.2 1.9-2.1-.1-3.8-1.8-3.7-4v-.1c0-1.9 1.1-2.9 3.2-3.8 1.1-.5 3.6-1.6 4.7-2.2v8.2zm8.2 2.4l-.5-1.4c-.6.4-1.2.5-1.9.6-.9 0-1.8-.8-1.8-3.1v-9.7c0-2.7-.5-4.9-2.3-6.4-1.2-1-2.8-1.4-4.3-1.4-2.8.7-5.5 2-7.9 3.7-1 .7-1.7 1.3-1.7 2.1.1 1.2 1.1 2.2 2.3 2.2.7.1 1.4-.5 1.5-1.2.2-1.3.8-2.5 1.6-3.4.6-.7 1.4-1.1 2.3-1 2.6 0 4.4 2.2 4.4 5.9v1c-1.1 1-4.9 2.3-8.1 3.4-2.9 1-4.3 2.6-4.3 5.2 0 3.5 2.8 6.3 6.3 6.3h.1c1.6 0 4.1-2 6.2-3.4.2.9.7 1.7 1.3 2.3.7.6 1.6.9 2.5 1l4.3-2.7zm-25.3-15c-.2-1.9-.6-3.8-1.1-5.6-1.5-.6-3.1-.9-4.7-.9-4.8 0-8 3.1-8 6.7 0 4 3.4 5.8 6.5 7.2 2.6 1.2 4.1 2.5 4.1 4.7 0 2-1.6 3.7-3.7 3.7h-.1c-3.1 0-5.5-3.1-6.4-6.5l-1.4.2c0 2.1.3 4.1.8 6.2 1.8 1.2 3.9 1.8 6 1.8 4.2 0 8.6-2.5 8.6-7.2 0-3.6-2.6-5.5-6.6-7.1-2.3-1-4.4-2.2-4.4-4.6-.1-1.9 1.3-3.5 3.2-3.6h.2c2.6 0 4.4 2.1 5.4 5.2l1.6-.2zm-17.3 14.4l-1.4-.1c-2-.1-2.4-.5-2.4-3.1v-17.5c-2.7.5-5.5.8-8.2 1v1.2c3.8.5 4.1.7 4.1 3.7v12.1c-1.5 1.6-3.5 2.5-5.6 2.5-2.3 0-4.6-1.3-4.6-5.9v-7c0-3.5 0-6 .1-7.6-2.5.5-5 .8-7.4 1v1.2c2.9.6 3.2.8 3.2 3.7v10.2c0 5.6 2.9 7.8 6.5 7.8 1.4-.1 2.8-.5 4-1.3 1.5-.9 2.6-1.8 3.8-2.7v3.7l.3.3c2.5-.8 5.1-1.4 7.7-1.9l-.1-1.3zM35.3 174c-2.4 2.2-4.1 2.9-6.4 2.9-2.9 0-7.9-2.4-7.9-9.7 0-5.5 3.1-8.3 6.5-8.3 2 0 3.8.8 5.2 2.2.5.4.7.6 1 .6 1-.3 1.7-1.2 1.7-2.2 0-.7-.3-1.3-.8-1.6-1.4-1-3-1.4-4.6-1.4-2.9.1-5.6 1.2-7.9 2.9-3.3 2.3-5.3 6.2-5.3 10.2 0 5.6 3.9 10.9 10.4 10.9 3.1 0 6.6-2.3 8.9-5.3 0-.1-.8-1.2-.8-1.2zM430 95.3c4.6 0 7 4.9 7 11.1 0 7.1-2.6 9.6-5.9 9.6-4.3 0-7.1-4.9-7.1-11.5 0-6 2.8-9.2 6-9.2m.6-1.7c-4.7 0-11.5 4-11.5 12.5-.1 6.2 4.9 11.5 11.1 11.6h.4c5.2 0 11.3-4 11.3-12.5.2-6.2-4.7-11.5-11-11.6h-.3m-22.7 5.5v-5.7c-2.3 1-4.9 1.7-7.4 2.2v1.1c2.9.4 3.2.7 3.2 4.1v10.9c0 3.5-.4 3.8-3.6 4.1v1.4h12v-1.4c-4-.3-4.3-.6-4.3-4.1v-9.6c1.1-2.9 2.8-4.5 4.2-4.5.8 0 1.7.4 2.2 1.1.4.4 1 .4 1.4.1 1.4-.6 2-2.2 1.4-3.5-.5-1.1-1.6-1.8-2.8-1.6-2.5 0-4.7 2.9-6.3 5.5v-.1zm-19.8-3.6c2.9 0 4.7 2.5 4.6 5.2 0 .7-.3 1-1.3 1-3.1.1-5.9.1-8.9.1.8-4.1 3.1-6.3 5.6-6.3m8 16c-1.6 1.6-3.7 2.6-5.9 2.6-3.7 0-7.7-2.9-7.8-10 6.2-.2 12.8-.7 13.7-.9s1.2-.7 1.2-1.7c-.1-4.3-3.5-7.9-7.9-8-3 .1-5.8 1.5-7.7 3.8-2.3 2.5-3.5 5.8-3.4 9.2 0 5.9 3.8 11.2 10.2 11.2 1.6 0 5.2-1 8.5-5.1l-.9-1.1zM367 99.1v-5.7c-2.3 1-4.9 1.7-7.4 2.2v1.1c2.9.4 3.2.7 3.2 4.1v10.9c0 3.5-.4 3.8-3.6 4.1v1.4h12v-1.4c-4-.3-4.3-.6-4.3-4.1v-9.6c1.1-2.9 2.8-4.5 4.2-4.5.8 0 1.7.4 2.2 1.1.4.3 1 .4 1.4.1 1-.5 1.6-1.4 1.7-2.6-.2-1.5-1.5-2.6-3.1-2.6-2.5 0-4.7 2.9-6.3 5.5zm-31.3 0v-5.7c-2.3 1-4.9 1.7-7.4 2.2v1.1c2.9.4 3.2.7 3.2 4.1v10.9c0 3.5-.4 3.8-3.6 4.1v1.4h12v-1.4c-4-.3-4.3-.6-4.3-4.1v-9.6c1.1-2.9 2.8-4.5 4.2-4.5.8 0 1.7.4 2.2 1.1.4.4 1 .4 1.4.1 1.4-.6 2-2.2 1.4-3.5-.5-1.1-1.6-1.8-2.8-1.6-2.5 0-4.7 2.9-6.3 5.5v-.1zm-10.1 15.4l-1.4-.1c-2-.1-2.4-.5-2.4-3.1V93.8c-2.7.5-5.5.8-8.2 1V96c3.8.5 4.1.7 4.1 3.7v12.2c-1.5 1.6-3.5 2.5-5.6 2.5-2.3 0-4.6-1.3-4.6-5.9v-7c0-3.5 0-6 .2-7.6-2.5.5-5 .8-7.5 1V96c2.9.6 3.2.8 3.2 3.7V110c0 5.6 2.9 7.8 6.5 7.8 1.4-.1 2.8-.5 4-1.3 1.4-.9 2.6-1.8 3.8-2.7v3.7l.3.3c2.5-.8 5.1-1.4 7.7-1.9l-.1-1.4zm-27 .6l-.5-1.4c-1 .5-2.1.8-3.2.9-1.3 0-3-.8-3-5V96.2h5.6c.7-.5.8-1.4.3-2h-5.9V87l-.7-.1-3.4 3.5v3.8h-2.4l-1.4 1.5.2.5h3.6v15.2c0 4.1 1.9 6.2 5.2 6.2.8-.1 1.5-.3 2.2-.7l3.4-1.8zm-23.1-2.5c-1.1 1-2.6 1.7-4.2 1.9-2.1-.1-3.8-1.8-3.7-4v-.1c0-1.9 1.1-2.9 3.2-3.8 1.1-.5 3.6-1.6 4.7-2.2v8.2zm8.2 2.4l-.5-1.4c-.6.4-1.2.5-1.9.6-.9 0-1.8-.8-1.8-3.1v-9.7c0-2.7-.5-4.9-2.3-6.4-1.2-1-2.8-1.4-4.3-1.4-2.8.7-5.5 2-7.9 3.7-1 .7-1.7 1.3-1.7 2.1.1 1.2 1.1 2.2 2.3 2.2.7.1 1.4-.5 1.5-1.2.2-1.3.8-2.5 1.6-3.4.6-.7 1.4-1.1 2.3-1 2.6 0 4.4 2.2 4.4 5.9v1c-1.1 1-4.9 2.3-8.1 3.4-2.9 1-4.3 2.6-4.3 5.2-.1 3.5 2.8 6.4 6.2 6.4h.1c1.6 0 4.1-2 6.2-3.4.2.9.7 1.7 1.3 2.3.7.6 1.6.9 2.5 1l4.4-2.8zm-32.5-15.9v-5.6c-2.4 1-4.9 1.7-7.4 2.2v1.1c2.9.4 3.2.7 3.2 4.1v10.9c0 3.5-.4 3.8-3.6 4.1v1.4h12v-1.4c-4-.3-4.3-.6-4.3-4.1v-9.6c1.1-2.9 2.8-4.5 4.2-4.5.9 0 1.7.4 2.3 1.1.4.4 1 .4 1.4.1 1.4-.5 2.1-2 1.6-3.5-.5-1.3-1.7-2-3-1.7-2.5 0-4.7 2.9-6.3 5.5h-.1v-.1zm-22.6 18v-1.4c-2.9-.3-3.4-.5-3.4-4v-10.1c0-5.1-2.6-8-6.7-8-1.4.1-2.8.5-4 1.4-1.5.9-2.9 1.9-4.3 2.9-.8-2.5-3.2-4.3-5.8-4.3-1.6.1-3.1.5-4.3 1.4-1.6 1-2.7 2-3.8 2.6v-4.3c-2.3 1-4.7 1.7-7.3 2.2v1.2c3 .5 3.2.7 3.2 4.1v10.9c0 3.4-.5 3.7-4 4v1.4h11v-1.4c-2.6-.3-2.9-.6-2.9-4V99.4c1.6-1.3 3.6-2.7 5.7-2.7 3.2 0 4.6 2.2 4.6 6v9c0 3.5-.5 3.7-3.7 4v1.4H214v-1.4c-2.9-.3-3.4-.6-3.4-4v-10.2c0-.7-.1-1.4-.2-2.2 2-1.7 4-2.7 5.9-2.7 3.3 0 4.6 2.3 4.6 6.1v8.8c0 3.7-.6 4-3.7 4.3v1.4l11.4-.1zm-49.7-4.5c-1.1 1-2.6 1.7-4.2 1.9-2.1-.1-3.8-1.8-3.7-4v-.1c0-1.9 1.1-2.9 3.2-3.8 1.1-.5 3.6-1.6 4.7-2.2v8.2zm8.2 2.4l-.5-1.4c-.6.4-1.2.5-1.9.6-.9 0-1.8-.8-1.8-3.1v-9.7c0-2.7-.5-4.9-2.3-6.4-1.2-1-2.8-1.4-4.3-1.4-2.8.7-5.5 2-7.9 3.7-1 .7-1.7 1.3-1.7 2.1.1 1.2 1.1 2.2 2.3 2.2.7.1 1.4-.5 1.5-1.2.2-1.3.8-2.5 1.6-3.4.6-.7 1.4-1.1 2.3-1 2.6 0 4.4 2.2 4.4 5.9v1c-1.1 1-4.9 2.3-8.1 3.4-2.9 1-4.3 2.6-4.3 5.2-.1 3.5 2.8 6.4 6.2 6.4h.1c1.6 0 4.1-2 6.2-3.4.2.9.7 1.7 1.3 2.3.7.6 1.6.9 2.5 1l4.4-2.8zm-25.4-15c-.2-1.9-.6-3.8-1.1-5.6-1.5-.6-3.1-.9-4.7-.9-4.8 0-8 3.1-8 6.7 0 4 3.4 5.8 6.5 7.2 2.6 1.2 4.1 2.5 4.1 4.7 0 2-1.6 3.7-3.7 3.7h-.1c-3.1 0-5.5-3.1-6.4-6.5l-1.4.2c0 2.1.3 4.1.8 6.2 1.8 1.2 3.9 1.8 6 1.8 4.2 0 8.6-2.5 8.6-7.2 0-3.6-2.6-5.5-6.6-7.1-2.3-1-4.4-2.2-4.4-4.6-.1-1.9 1.4-3.5 3.2-3.5h.1c2.6 0 4.4 2.1 5.4 5.2l1.7-.3zm-35.3-1.1c1.4-1 3.5-2.2 5.2-2.2 3.8 0 7 3.1 7 8.8 0 5.9-2.9 9.7-7.3 9.7-1.9 0-3.6-.8-4.9-2V98.9zm0-1.8V93c-2.5 1-5 1.7-7.6 2.2v1.3c3.2.4 3.4.5 3.4 4v23.7c0 3.4-.5 3.8-3.8 4.1v1.4h12.4v-1.4c-4.1-.4-4.4-.7-4.4-4.6v-6.9c1.1.6 2.3.9 3.6 1 6.8-1.3 13.1-6.4 13.1-14.3 0-5.2-3.4-9.8-9.2-9.8-.9.1-1.8.4-2.6.8l-4.9 2.6zm-9 20v-1.4c-3.4-.3-3.7-.6-3.7-4.2v-18c-2.4 1-4.9 1.7-7.4 2v1.3c3.1.5 3.3.7 3.3 4v10.8c0 3.5-.4 3.9-3.7 4.2v1.4l11.5-.1zM111.2 89c1.4 0 2.6-1.2 2.6-2.6.1-1.4-1.1-2.6-2.5-2.7h-.1c-1.5 0-2.7 1.3-2.6 2.7s1.2 2.5 2.6 2.6m-8.7 22.2c-2.4 2.2-4.1 2.9-6.4 2.9-2.9 0-7.9-2.4-7.9-9.7 0-5.5 3.1-8.3 6.5-8.3 2 0 3.8.8 5.2 2.2.5.4.7.6 1 .6 1-.4 1.6-1.2 1.7-2.2 0-.7-.3-1.3-.8-1.6-1.4-1-3-1.4-4.7-1.4-2.9.1-5.6 1.2-7.9 2.9-3.3 2.4-5.2 6.2-5.2 10.3 0 5.6 3.8 10.9 10.4 10.9 3.1 0 6.6-2.3 8.9-5.3l-.8-1.3zm-43-17h-9.8v-1.4c0-3.7.7-6.1 1.6-7.4.8-1.5 2.4-2.3 4.1-2.3 2.3.1 4.6 1.3 5.8 3.4-.4.8-.8 1.7-1 2.7-.3 1.2-.5 2.5-.5 3.7l-.2 1.3zm21.7 22.9v-1.4c-3.4-.3-3.6-.6-3.6-3.8V93.5c-3.2.5-6.5.8-9.8.7h-4.2v-2.1c0-3.8.6-6.6 1.6-8 .7-1.3 2-2 3.5-2 2.6 0 4.1 1.9 5.2 3.1.4.5 1.1.6 1.6.2.1 0 .1-.1.1-.1.5-.4.9-.8 1.2-1.3.3-.6.2-1.4-.3-1.9-1.4-1.6-3.5-2.6-5.6-2.5-2.9.4-5.6 1.7-7.7 3.8-.9-1.3-2.9-2.6-6.1-2.7-2.4.2-4.7 1.2-6.5 2.7-2 1.5-3.5 3.5-4.4 5.9-.4 1.2-.5 2.5-.6 3.8v1H43l-1.4 1.5.2.5h3.7v15.4c0 3.5-.4 3.8-3.5 4.1v1.4h11v-1.3c-3.2-.4-3.5-.7-3.5-4.1V96.2h9.8v15.6c0 3.3-.3 3.5-3.4 3.8v1.4H67v-1.4c-3.1-.3-3.5-.6-3.5-3.8V96.2h7.3c2.6 0 2.6.4 2.6 2.8v12.8c0 3.3-.4 3.5-3.3 3.8v1.4h11.1zM27.1 95.3c4.6 0 7 4.9 7 11.1 0 7.1-2.6 9.6-5.9 9.6-4.3 0-7.1-4.9-7.1-11.5 0-5.9 2.8-9.2 6-9.2m.6-1.7c-4.7 0-11.5 4-11.5 12.5-.1 6.2 4.9 11.5 11.1 11.6h.4c5.2 0 11.3-4 11.3-12.5.2-6.2-4.8-11.5-11-11.6h-.3M16 79.6c-3.3.8-6.8 3.1-6.8 6.8-.1 2.8 2.1 5.2 4.9 5.3h.1c1.1.1 2.2-.8 2.2-2 0-.7-.4-1-.7-1-1.8-.3-3.3-1.4-3.3-3.3 0-2.2 1.5-3.3 4.1-4.4l-.5-1.4zm-9.2 0c-3.3.9-6.8 3.1-6.8 6.8-.1 2.8 2.1 5.2 4.9 5.3 1.1.1 2.2-.8 2.2-2 .1-.5-.2-.9-.7-1-1.7-.3-3.2-1.4-3.2-3.3 0-2.2 1.5-3.3 4.1-4.4l-.5-1.4zm435.9-32c-1.3-.1-2.4.8-2.5 2.2 0 .9.4 1.3.7 1.3 1.8.4 3.3 1.6 3.3 3.5s-1.5 3.4-4 4.4l.6 1.5c3.2-1 6.8-3.2 6.8-7.2-.1-3.7-3.1-5.7-4.9-5.7m-5.3 4.8l-.5-1.4c-1 .5-2.1.8-3.2.9-1.3 0-3.1-.8-3.1-5V33.5h5.6c.7-.5.8-1.4.3-2h-5.9v-7.1l-.7-.1-3.4 3.5v3.8h-2.4l-1.4 1.5.2.5h3.6v15.2c0 4.1 1.8 6.2 5.1 6.2.8-.1 1.5-.3 2.2-.7l3.6-1.9zm-17.8-15.1c-.2-1.9-.6-3.8-1.1-5.6-1.5-.6-3.1-.9-4.7-.9-4.8 0-8 3.1-8 6.7 0 4 3.4 5.8 6.5 7.2 2.6 1.2 4.1 2.5 4.1 4.7 0 2-1.6 3.7-3.7 3.7h-.1c-3.1 0-5.5-3.1-6.4-6.5l-1.4.2c0 2.1.3 4.1.8 6.2 1.8 1.2 3.9 1.8 6 1.8 4.2 0 8.6-2.5 8.6-7.2 0-3.6-2.6-5.5-6.6-7.1-2.3-1-4.4-2.2-4.4-4.6-.1-1.9 1.3-3.5 3.2-3.6h.2c2.6 0 4.4 2.1 5.4 5.2l1.6-.2zm-27.1-4.5c2.9 0 4.7 2.5 4.6 5.2 0 .7-.3 1-1.3 1-3.1.1-5.9.1-8.9.1.8-4.1 3.1-6.3 5.6-6.3m7.9 16c-1.6 1.6-3.7 2.6-5.9 2.6-3.7 0-7.7-2.9-7.8-10 6.2-.2 12.8-.7 13.7-.9.9-.2 1.2-.7 1.2-1.7-.1-4.3-3.5-7.8-7.9-8-3 .1-5.8 1.5-7.7 3.8-2.3 2.5-3.5 5.8-3.5 9.2 0 5.9 3.8 11.2 10.2 11.2 1.6 0 5.2-1 8.5-5.1.1 0-.8-1.1-.8-1.1zm-29-12.4v-5.7c-2.3 1-4.9 1.7-7.4 2.2V34c2.9.4 3.2.7 3.2 4.1V49c0 3.5-.4 3.8-3.6 4.1v1.3h12V53c-4-.3-4.3-.6-4.3-4.1v-9.6c1.1-2.9 2.8-4.5 4.2-4.5.8 0 1.7.4 2.2 1.1.4.3 1 .4 1.4.1 1-.5 1.6-1.4 1.7-2.6-.2-1.5-1.5-2.6-3.1-2.6-2.5 0-4.7 2.9-6.3 5.5v.1zm-22.7-3.8c4.6 0 7 4.9 7 11.1 0 7.1-2.6 9.6-5.9 9.6-4.3 0-7.1-4.9-7.1-11.5 0-6 2.8-9.2 6-9.2m.6-1.8c-4.7 0-11.5 4-11.5 12.5-.1 6.2 4.9 11.4 11.1 11.5h.4c5.2 0 11.3-4 11.3-12.5.2-6.2-4.7-11.5-11-11.6 0 .1-.2.1-.3.1m-32.4 3.9c1.3-.7 2.6-1 4.1-1 4.3 0 8 3.5 8 9.4s-2.8 9.8-7.1 9.8c-2 .1-3.8-1.1-4.7-2.9-.2-.5-.4-1.2-.3-1.8V34.7zm0-1.5V17.1c-2.5.8-5 1.4-7.6 1.8v1.2c3.4.3 3.5.7 3.5 3.8V53c2.4 1.2 5 1.8 7.7 1.9 7.2.1 13.1-5.7 13.1-12.8v-.2c0-6.2-4.7-11-10.3-11-.7 0-1.4.2-2.2.5l-4.2 1.8zM300.7 50c-1.1 1-2.6 1.7-4.2 1.9-2.1-.1-3.8-1.8-3.7-4v-.1c0-1.9 1.1-2.9 3.2-3.8 1.1-.5 3.6-1.6 4.7-2.2V50zm8.2 2.3l-.5-1.4c-.5.4-1.2.5-1.9.6-.9 0-1.9-.8-1.9-3.1v-9.8c0-2.7-.5-4.9-2.3-6.4-1.2-1-2.8-1.4-4.3-1.4-2.8.7-5.5 2-7.9 3.7-1 .7-1.7 1.3-1.7 2.1.1 1.2 1.1 2.2 2.3 2.2.7.1 1.4-.5 1.5-1.2.2-1.3.8-2.5 1.6-3.4.6-.7 1.4-1.1 2.3-1 2.6 0 4.4 2.2 4.4 5.9v1c-1.1 1-4.9 2.3-8.1 3.4-2.9 1-4.3 2.6-4.3 5.2-.1 3.5 2.8 6.4 6.2 6.4h.1c1.6 0 4.1-2 6.2-3.4.2.9.7 1.7 1.3 2.3.7.6 1.6.9 2.5 1l4.5-2.7zm-23.5 2V53c-3.4-.3-3.8-.6-3.8-4.1V17.1c-2.5.8-5.1 1.4-7.7 1.8v1.3c3.3.2 3.6.4 3.6 4V49c0 3.5-.5 3.8-3.8 4.1v1.3h11.7v-.1zm-24.7-1.9l-.5-1.4c-1 .5-2.1.8-3.2.9-1.3 0-3-.8-3-5V33.5h5.6c.7-.5.8-1.4.3-2H254v-7.1l-.7-.1-3.4 3.5v3.8h-2.4l-1.4 1.5.2.5h3.6v15.2c0 4.1 1.9 6.2 5.2 6.2.8-.1 1.5-.3 2.2-.7l3.4-1.9zm-15.8 1.9V53c-3.1-.3-3.3-.5-3.3-4.1V38.8c0-5.1-2.6-8-6.7-8-1.6.1-3.1.7-4.3 1.6-1.3.9-2.5 1.7-3.5 2.5v-4.2c-2.3 1-4.7 1.7-7.3 2.2V34c2.8.5 3.1.7 3.1 4v10.9c0 3.5-.2 3.7-3.8 4.1v1.3h11.3V53c-3.1-.3-3.4-.5-3.4-4.1V36.6c1.6-1.4 3.6-2.6 5.7-2.6 3.5 0 4.7 2.3 4.7 5.9v8.8c0 3.6-.4 4-3.5 4.3v1.4l11-.1zm-37.8-21.5c2.9 0 4.7 2.5 4.6 5.2 0 .7-.3 1-1.3 1-3.1.1-5.9.1-8.9.1.8-4.1 3.2-6.3 5.6-6.3m8 16c-1.6 1.6-3.7 2.6-5.9 2.6-3.7 0-7.7-2.9-7.8-10 6.2-.2 12.8-.7 13.7-.9.9-.2 1.2-.7 1.2-1.7-.1-4.3-3.5-7.8-7.9-8-3 .1-5.8 1.5-7.7 3.8-2.3 2.5-3.5 5.8-3.4 9.2 0 5.9 3.8 11.2 10.2 11.2 1.6 0 5.2-1 8.5-5.1l-.9-1.1zm-20.7 5.5V53c-3.1-.2-3.4-.6-3.4-4v-9.2c0-6.3-2.9-8.9-7.2-8.9-2.8 0-5.6 2-7.5 3.8V17.1c-2.5.8-5.1 1.4-7.7 1.8v1.2c3.5.3 3.5.6 3.5 3.8v25c0 3.5-.5 3.8-3.6 4v1.3h11.1v-1.3c-3.1-.3-3.4-.7-3.4-4V36.5c1.3-1.6 3.4-2.6 5.5-2.6 3.5 0 5.1 2.2 5.1 6.4V49c0 3.4-.4 3.7-3.5 4v1.3h11.1zm-37.1-21.5c2.9 0 4.7 2.5 4.6 5.2 0 .7-.3 1-1.3 1-3 .1-5.9.1-8.9.1.9-4.1 3.2-6.3 5.6-6.3m8 16c-1.6 1.6-3.7 2.6-5.9 2.6-3.7 0-7.7-2.9-7.8-10 6.2-.2 12.8-.7 13.6-.9.9-.2 1.2-.7 1.2-1.7-.1-4.3-3.5-7.8-7.9-8-3 .1-5.8 1.5-7.7 3.8-2.3 2.5-3.5 5.8-3.5 9.2 0 5.9 3.8 11.2 10.2 11.2 1.6 0 5.2-1 8.5-5.1l-.7-1.1zm-29-12.4v-5.7c-2.3 1-4.9 1.7-7.4 2.2V34c2.9.4 3.2.7 3.2 4.1V49c0 3.5-.4 3.8-3.6 4.1v1.3h12V53c-4-.3-4.3-.6-4.3-4.1v-9.6c1.1-2.9 2.8-4.5 4.2-4.5.8 0 1.7.4 2.2 1.1.4.4 1 .4 1.4.1 1-.5 1.6-1.4 1.7-2.6-.2-1.5-1.5-2.6-3-2.6-2.5 0-4.7 2.9-6.3 5.5l-.1.1zm-21.8 16L114 51c-1 .5-2.1.8-3.2.9-1.3 0-3-.8-3-5V33.5h5.6c.7-.5.8-1.4.3-2h-5.9v-7.1l-.7-.1-3.4 3.5v3.8h-2.4L99.8 33l.2.5h3.6v15.2c0 4.1 1.9 6.2 5.2 6.2.8-.1 1.5-.3 2.2-.7l3.5-1.8zM96.8 37.3c-.2-1.9-.7-3.8-1.1-5.6-1.5-.6-3.1-.9-4.7-.9-4.8 0-7.9 3.1-7.9 6.7 0 4 3.4 5.8 6.5 7.2 2.6 1.2 4.1 2.5 4.1 4.7 0 2-1.6 3.7-3.7 3.7-3.1 0-5.5-3.1-6.4-6.5l-1.4.2c0 2.1.3 4.1.8 6.2 1.8 1.2 3.9 1.8 6 1.8 4.2 0 8.6-2.5 8.6-7.2 0-3.6-2.6-5.5-6.6-7.1-2.3-1-4.4-2.2-4.4-4.6-.1-1.9 1.3-3.5 3.2-3.6h.2c2.6 0 4.4 2.1 5.4 5.2l1.4-.2zm-27.2-4.5c2.9 0 4.7 2.5 4.6 5.2 0 .7-.3 1-1.3 1-3 .1-5.9.1-8.9.1.9-4.1 3.2-6.3 5.6-6.3m8 16c-1.6 1.6-3.7 2.6-5.9 2.6-3.7 0-7.7-2.9-7.8-10 6.2-.2 12.8-.7 13.6-.9.8-.2 1.2-.7 1.2-1.7-.1-4.3-3.5-7.9-7.9-8-3 .1-5.8 1.6-7.7 3.8-2.3 2.5-3.5 5.8-3.5 9.2 0 5.9 3.8 11.2 10.2 11.2 1.6 0 5.2-1 8.5-5.1l-.7-1.1zM57 54.3V53c-3.4-.3-3.7-.7-3.7-4.1V17.1c-2.5.8-5.1 1.4-7.7 1.8v1.3c3.3.2 3.6.4 3.6 4V49c0 3.5-.5 3.8-3.8 4.1v1.3H57zM30.1 39.7h-9.6c1.6-4.3 3.2-8.9 4.9-13.3h.1l4.6 13.3zm13.4 14.6v-1.4c-3.4-.3-4.1-.8-5.8-5.3-3.4-9.1-6.8-19-10.1-28L26 20 15.2 47.5c-1.9 4.6-2.6 4.9-5.9 5.4v1.4h11.4v-1.4c-4-.4-4.4-.9-3.2-4.2.7-2.2 1.4-4.4 2.3-6.7h11.1c1.1 3.2 2.2 6 2.9 8 .7 2 .2 2.5-3.1 2.9v1.4h12.8z" class="st0"/><path d="M17.1 0v212.7" class="st1"/></g></g></svg>