<svg xmlns="http://www.w3.org/2000/svg" id="Layer_1" viewBox="0 0 800 583.2" width="800" height="583.2"><style>.st0{fill:#231f20}.st1{fill:#f26518}.st2{fill:#4d4d4d}</style><g id="f43f63e6-c5f9-402a-a1d4-9b0b658d3a0d"><g id="a52d280c-66fb-49c0-8781-4a139a80b8c5"><path d="M542.3 570.1c0 1.9 1.7 3.5 3.5 3.5 1.9 0 3.5-1.7 3.5-3.5s-1.7-3.5-3.5-3.5-3.5 1.4-3.5 3.5m-21.6 2.7h14.2c.2-.8.4-1.4.2-2.3-2.1-.6-3.9-.8-6-1 0-1.2-.2-2.5-.2-3.9v-9.9c2.1-3.3 3.9-4.1 5.8-4.1h1.2c.4 1.9.6 3.9.8 5.8.8.2 1.9.2 2.7 0 .6-2.9 1-5.8 1-8.9-1.2-.4-2.7-.6-4.1-.6-3.1.2-5.8 2.1-7.2 4.7-.2-1.4-.4-3.1-.8-4.5l-.4-.4c-2.5.2-5 .8-7.2 1.9 0 .6 0 1.4.2 2.1 1.4.2 2.7.4 4.1.8v14c0 1 0 1.9-.2 2.9-1.4.4-2.7.6-4.1.8-.2 1.3 0 2 0 2.6m-18-20.5c1-.6 2.3-1 3.5-1 4.5 0 5.4 3.1 5.4 6.4-1.2 0-3.5.2-6.2.2h-5c.2-1.9 1.1-3.9 2.3-5.6m3.7 21.3c3.5-.4 6.8-1.9 9.7-3.9 0-.6-.4-1.4-.8-1.9-2.7 1-5.4 1.7-8.3 1.9-5 0-6.8-5.2-7-9.3h15.3l.4-.4c.2-1 .2-2.1.2-3.1 0-4.5-2.1-9.3-9.1-9.3-6.6 0-11.1 6.8-11.1 13.2 0 7 3.1 12.4 10.5 12.4m-34.3-13.4c0-2.7.8-5.2 2.5-7.2 1-.6 2.3-1 3.5-1 2.1 0 4.1.4 6.2 1.2v13c-2.1 1.9-4.7 3.9-6.6 3.9-3.7 0-5.8-5-5.6-9.9m4.6 13.6c2.9 0 5.6-2.3 7.8-4.7.4 2.3 1.4 4.7 2.7 4.7 2.3-.2 4.3-1.2 5.8-2.7 0-.6-.2-1.4-.8-1.9-1 .4-2.3.6-3.3.8-.2-1.4-.2-2.7-.2-4.1v-17.1c0-5.6 0-9.7.2-14.9l-.4-.4c-3.1.2-6 .8-9.1 1.9 0 .6 0 1.4.2 2.1 1.7.2 3.1.4 4.7.8v11.8c-1.7-1-3.7-1.7-5.6-1.9-5.8 0-11.1 5.8-11.1 13s3.1 12.6 9.1 12.6m-39.4-.6h12c.2-.8.4-1.4.2-2.3-1.2-.4-2.5-.8-3.9-1-.2-1.2-.2-2.5-.2-3.9v-12c1.9-1.4 4.1-2.3 6.4-2.3 4.1 0 4.7 2.9 4.7 6.6v8.7c0 1 0 1.9-.2 2.9-1.4.4-2.7.6-4.1.8 0 .8 0 1.7.2 2.3h12c.2-.8.4-1.4.4-2.3-1.2-.4-2.5-.8-3.9-1-.2-1.2-.2-2.5-.2-3.9v-9.7c0-5.8-2.5-8.3-7-8.3-3.1.2-6.2 1.4-8.7 3.5-.2-1-.4-2.3-.6-2.9l-.4-.4c-2.5.2-5 .8-7.4 1.9 0 .6 0 1.4.2 2.1 1.4.2 2.7.4 4.1.8v14c0 1 0 1.9-.2 2.9-1.4.4-2.7.6-4.1.8 0 1.2.2 1.8.7 2.7m-18.2-20.7c1-.6 2.3-1 3.5-1 4.5 0 5.4 3.1 5.4 6.4-1.2 0-3.5.2-6.2.2h-5c0-1.9.8-3.9 2.3-5.6m3.5 21.3c3.5-.4 7-1.7 9.9-3.7 0-.6-.4-1.4-.8-1.9-2.7 1-5.4 1.7-8.3 1.9-5 0-6.8-5.2-7-9.3h15.3l.4-.4c.2-1 .2-2.1.2-3.1 0-4.5-2.1-9.3-9.1-9.3-6.6 0-11.1 6.8-11.1 13.2 0 7.2 3.1 12.6 10.5 12.6m-33-.6h14.2c.2-.8.4-1.4.2-2.3-2.1-.4-3.9-.8-6-1-.2-1.2-.2-2.5-.2-3.9v-9.9c2.1-3.3 3.9-4.1 5.8-4.1h1.2c.4 1.9.6 3.7.6 5.8.8.4 1.9.4 2.7 0 .6-2.9 1-5.8.8-8.9-1.2-.4-2.7-.6-4.1-.6-3.1.2-5.8 2.1-7.2 4.7-.2-1.4-.4-3.1-.8-4.5l-.4-.4c-2.5.2-5 .8-7.2 1.9 0 .6 0 1.4.2 2.1 1.4.2 2.7.4 4.1.8v14c0 1 0 1.9-.2 2.9-1.4.4-2.7.6-4.1.8.2 1.1.2 1.7.4 2.6m-23.2 0h14.2c.2-.8.4-1.4.2-2.3-2.1-.6-4.1-.8-6.2-1 0-1.2-.2-2.5-.2-3.9v-9.9c2.1-3.3 3.7-4.1 5.8-4.1h1.2c.4 1.9.6 3.7.6 5.8.8.4 1.9.4 2.7 0 .6-2.9 1-5.8.8-8.9-1.2-.4-2.7-.6-4.1-.6-3.1.2-5.8 2.1-7.2 4.7-.2-1.4-.4-3.1-.8-4.5l-.4-.4c-2.5.2-5 .8-7.2 1.9 0 .6 0 1.4.2 2.1 1.4.2 2.7.4 4.1.8v14c0 1 0 1.9-.2 2.9-1.4.4-2.7.6-4.1.8.2 1.1.2 2 .6 2.6m-21 .8c3.3 0 6-2.3 8.5-5 .4 2.5 1.2 5 2.5 5 2.3-.2 4.3-1.2 6-2.7 0-.6-.2-1.4-.8-1.9-1 .4-2.3.6-3.3.8-.2-1.4-.2-2.7-.2-4.1v-1.9c0-5.8 0-9.7.2-14.9l-.4-.4h-7.8c-.2.8-.2 1.7-.2 2.3 1.4.2 2.7.6 3.9 1v13.8c-1.4 1.4-4.7 4.1-7 4.1-2.9 0-4.1-2.5-4.1-6.6 0-3.1 0-9.1.2-14l-.4-.4h-7.6c-.2.8-.2 1.7-.2 2.3 1.4.2 2.7.6 3.9 1v13.2c0 5.8 2.5 8.5 7 8.5m-24.4-.1c5.4 0 9.5-2.9 9.5-7.6 0-8.3-12.6-6.6-12.6-11.8 0-1.9.4-3.1 4.5-3.1 1 0 2.3.2 3.3.4.4 1.2.6 2.7.6 3.9.8.4 1.9.4 2.7 0 .6-2.1.8-4.1.8-6.4-2.5-.6-5-1-7.4-1-4.1 0-8.9 1.7-8.9 6.8 0 5.6 6 6 9.7 8.1 1.4.6 2.5 2.1 2.7 3.5 0 3.1-1.2 3.9-4.5 3.9-1.7 0-3.1-.2-4.7-.8-.2-1.7-.4-3.5-.4-5.2-.8-.4-1.7-.4-2.5 0-.6 2.5-.8 5-.8 7.4 2.7 1.5 5.3 1.9 8 1.9m-32.4-3.5c-5.6 0-7.4-6-7.4-10.3 0-2.7.8-5.4 2.5-7.4 1-.6 2.3-1 3.5-1 5.6 0 7.4 6 7.4 10.3 0 2.7-.8 5.4-2.5 7.4-1 .6-2.2 1-3.5 1m-.8 3.3c7.2 0 11.4-7 11.4-13.2 0-7-3.3-12.4-10.9-12.4s-11.4 7-11.4 13.2c0 7.2 3.5 12.4 10.9 12.4m-21.3 0c2.9 0 5.6-1 8.1-2.5 0-.8-.2-1.7-.8-2.3-1.7.6-3.3 1-5.2 1-1.7 0-2.5-1.9-2.5-5.6v-12.4h7.8c.2-1 .2-2.1.2-3.1H266v-6.8c-.8-.2-1.7-.4-2.7-.2l-1.7 7c-1.2 0-2.7.2-3.9.6-.2.6-.2 1.4 0 2.1 1.2.2 2.9.4 3.9.6v14.5c0 4.6 1.2 7.3 4.9 7.1m-35.3-21.3c1-.6 2.3-1 3.5-1 4.5 0 5.4 3.1 5.4 6.4-1.2 0-3.5.2-6.2.2h-5c.3-1.9 1.1-3.9 2.3-5.6m3.7 21.5c3.5-.4 7-1.7 9.9-3.7 0-.6-.4-1.4-.8-1.9-2.7 1-5.4 1.7-8.3 1.9-5 0-6.8-5.2-7-9.3H244l.4-.4c.2-1 .2-2.1.2-3.1 0-4.5-2.1-9.3-9.1-9.3-6.6 0-11.1 6.8-11.1 13.2 0 7 3.1 12.4 10.5 12.6m-24.3-.2c5.4 0 9.5-2.9 9.5-7.6 0-8.3-12.6-6.6-12.6-11.8 0-1.9.4-3.1 4.5-3.1 1 0 2.3.2 3.3.4.4 1.2.6 2.7.6 3.9.8.4 1.9.4 2.7 0 .6-2.1.8-4.1.8-6.4-2.5-.6-5-1-7.4-1-4.1 0-8.9 1.7-8.9 6.8 0 5.6 6 6 9.7 8.1 1.4.6 2.5 2.1 2.7 3.5 0 3.1-1.2 3.9-4.5 3.9-1.7 0-3.1-.2-4.7-.8-.2-1.7-.4-3.5-.4-5.2-.8-.4-1.7-.4-2.5 0-.6 2.5-1 5.2-1 7.6 2.6 1.3 5.3 1.9 8.2 1.7m-28.9.2c3.3 0 6-2.3 8.5-5 .4 2.5 1.4 5 2.5 5 2.3-.2 4.3-1.2 6-2.7 0-.6-.2-1.4-.8-1.9-1 .4-2.3.6-3.3.8-.2-1.4-.2-2.7-.2-4.1v-1.9c0-5.8 0-9.7.2-14.9l-.4-.4h-7.8c-.2.8-.2 1.7-.4 2.3 1.4.2 2.9.6 4.1 1v13.8c-1.4 1.4-4.7 4.1-7 4.1-2.9 0-4.1-2.5-4.1-6.6v-14l-.4-.4h-7.4c-.2.8-.2 1.7-.4 2.3 1.4.2 2.7.6 3.9 1v13.2c0 5.9 2.4 8.6 7 8.4m-28.9-.4H167c.2-.8.4-1.4.4-2.3-2.1-.6-4.1-.8-6.2-1 0-1.2-.2-2.5-.2-3.9v-14h6c.2-1 .2-2.1.2-3.1H161v-1.7c0-4.5.8-8.1 1.9-9.1 1-.6 2.3-1 3.5-1 .8 0 1.9 0 2.7.2.2 1.4.4 2.9.4 4.3.8.4 1.9.6 2.9.2.8-2.3 1-4.5 1.2-6.8-2.1-.8-4.3-1.2-6.6-1.2-6.4 0-10.1 5.8-10.1 14.7v.4c-1.2.2-2.7.4-3.9.6-.2.6-.2 1.4 0 2.1 1.2.2 2.7.4 3.9.6v15.1c0 1 0 1.9-.2 2.9-1.4.4-2.7.6-4.1.8-.4.5-.2 1.4.2 2.2m-18.2-20.7c1-.6 2.3-1 3.5-1 4.5 0 5.4 3.1 5.4 6.4-1.2 0-3.5.2-6.2.2h-5c.2-2.1 1.1-4.1 2.3-5.6m3.7 21.1c3.5-.4 7-1.7 9.9-3.7 0-.6-.2-1.4-.8-1.9-2.7 1-5.4 1.7-8.3 1.9-5 0-6.8-5.2-7-9.3h15.3l.4-.4c.2-1 .2-2.1.2-3.1 0-4.5-2.1-9.3-9.1-9.3-6.6 0-11.1 6.8-11.1 13.2 0 7 3.1 12.4 10.5 12.6m-33-.8h14.2c.2-.8.4-1.4.4-2.3-2.1-.6-3.9-.8-6-1 0-1.2-.2-2.5-.2-3.9v-9.9c2.1-3.3 3.7-4.1 5.8-4.1h1.4c.4 1.9.6 3.7.6 5.8.8.4 1.9.4 2.7.2.6-2.9 1-5.8 1-8.9-1.2-.4-2.7-.6-4.1-.6-3.1.2-5.8 2.1-7.2 4.7-.2-1.4-.4-3.1-.8-4.5l-.4-.4c-2.5.2-5 .8-7.2 1.9 0 .6 0 1.4.2 2.1 1.4.2 2.7.4 4.1.8v14c0 1 0 1.9-.2 2.9-1.4.4-2.7.6-4.1.8-.6.9-.4 1.8-.2 2.4m-25.2.2h12c.2-.8.2-1.4.2-2.3-1.2-.4-2.5-.8-3.9-1 0-1.2-.2-2.5-.2-3.9v-17.1c0-5.6 0-9.7.2-14.9l-.4-.4c-2.9.2-5.6.8-8.5 1.9 0 .6 0 1.4.2 2.1 1.4.2 2.7.4 4.1.8V567c0 1 0 1.9-.2 2.9-1.4.4-2.7.6-4.1.8.2.8.2 1.5.6 2.3M64 573h12c.2-.8.4-1.4.4-2.3-1.2-.4-2.5-.8-3.9-1 0-1.2-.2-2.5-.2-3.9v-17.1c0-5.6 0-9.7.2-14.9l-.4-.4c-2.9.2-5.6.8-8.5 1.9 0 .6 0 1.4.2 2.1 1.4.2 2.7.4 4.1.8V567c0 1 0 1.9-.2 2.9-1.4.4-2.7.6-4.1.8.2.8.2 1.7.4 2.3m-15.9 0h12c.2-.8.4-1.4.2-2.3-1.2-.4-2.5-.8-3.9-1 0-1.2-.2-2.5-.2-3.9v-2.5c0-5.6 0-9.7.2-14.9l-.4-.4c-2.9.2-5.8.8-8.5 1.9 0 .6 0 1.4.2 2.1 1.4.2 2.7.4 4.1.8V567c0 1 0 1.9-.2 2.9-1.4.4-2.7.8-4.1 1 .2.6.2 1.5.6 2.1m5.4-28.7c2.1-.2 3.5-1.9 3.5-3.9-.2-1.7-1.4-2.9-3.1-2.9-1.9.2-3.5 1.9-3.7 3.7.2 1.7 1.4 2.7 3.1 2.9m-16.8 29.5c2.9 0 5.6-1 8.1-2.5 0-.8-.2-1.7-.8-2.3-1.7.6-3.3 1-5.2 1-1.7 0-2.5-1.9-2.5-5.6v-12.4H44c.2-1 .2-2.1.2-3.1h-8.1V542c-.8-.2-1.7-.4-2.7-.2l-1.7 7c-1.2 0-2.7.2-3.9.6-.2.6-.2 1.4 0 2.1 1.2.2 2.9.4 3.9.6v14.5c-.1 4.3 1.1 7 4.8 7m-21.8-.2c5.4 0 9.5-2.9 9.5-7.6 0-8.3-12.6-6.6-12.6-11.8 0-1.9.4-3.1 4.5-3.1 1 0 2.3.2 3.3.4.4 1.2.6 2.7.6 3.9.8.4 1.9.4 2.7 0 .6-2.1.8-4.1.8-6.4-2.5-.6-5-1-7.4-1-4.1 0-8.9 1.7-8.9 6.8 0 5.6 6 6 9.7 8.1 1.4.6 2.5 2.1 2.7 3.5 0 3.1-1.2 3.9-4.5 3.9-1.7 0-3.1-.2-4.7-.8-.2-1.7-.4-3.5-.4-5.2-.8-.4-1.7-.4-2.5 0-.6 2.5-.8 5-.8 7.4 2.6 1.5 5.3 2.1 8 1.9M774 499.5c0-1 .4-2.3 1-3.1 2.7-1.2 5.6-2.1 8.5-2.3v6c-1.7 1.4-3.5 2.5-5.6 2.7-1.9.2-3.5-1-3.9-2.9v-.4m1.2 7.4c3.3-.4 6.2-1.9 8.5-4.1.4 2.5 1.4 4.1 2.5 4.1 2.3-.2 4.3-1.2 6-2.7 0-.6-.2-1.4-.8-1.9-1 .4-2.3.6-3.3.8-.2-1.4-.2-2.7-.2-4.1v-9.5c0-7-5.2-8.1-8.3-8.1-3.3 0-6.4 1-9.1 2.7 0 1.9.4 3.7 1.2 5.6 1 .2 2.1.2 3.1-.4 0-1.4 0-2.7.4-4.1 1.4-.2 2.7-.4 4.1-.4 3.5 0 4.3 2.7 4.3 6.6-6.6 1.2-14 3.9-14 9.7-.4 3.1 1.9 5.8 5 6.2h.8m-20.6-22.1c4.1 0 6.4 5 6.4 10.1 0 2.7-.8 5.4-2.5 7.4-1 .6-2.1 1-3.3 1-2.7-.2-5.2-1.2-7-3.1v-13c1.8-1.5 4.1-2.2 6.4-2.4m-11 22.1c1.2-.8 2.5-1.9 3.3-3.1 2.3 1.7 5 2.7 7.6 2.9 6.2 0 10.7-7 10.7-13.2 0-7.4-3.7-12.2-9.3-12.2-2.9 0-5.8 1-7.8 2.9v-2.3c0-5.6 0-9.7.2-14.9l-.4-.4c-2.9.2-5.8.8-8.5 1.9 0 .6 0 1.4.2 2.1 1.4.2 2.7.4 4.1.8v28.9c0 2.1-.6 4.1-1.7 6 .4.4 1 .8 1.6.6m-16.7-22.1c4.1 0 6.4 5 6.4 10.1 0 2.7-.8 5.4-2.5 7.4-1 .6-2.1 1-3.3 1-2.7-.2-5.2-1.2-7-3.1v-13.2c1.9-1.1 4.2-2 6.4-2.2m-10.9 22.3c1.2-.8 2.5-1.9 3.3-3.1 2.3 1.7 5 2.7 7.6 2.9 6.2 0 10.7-7 10.7-13.2 0-7.4-3.9-12.2-9.3-12.2-2.9 0-5.8 1-7.8 2.9v-2.3c0-5.6 0-9.7.2-14.9l-.4-.4c-2.9.2-5.8.8-8.5 1.9 0 .6 0 1.4.2 2.1 1.4.2 2.7.4 4.1.8v28.9c0 2.1-.6 4.1-1.7 6 .3.2 1 .6 1.6.6m-22.9-31.1l.2 3.7 4.1 11.8h-9.7l5.4-15.5zm-16.6 30.3c2.3 0 4.1-.2 6-.2 1.2 0 4.1 0 5.8.2.2-.8.4-1.7.2-2.5l-4.5-1 2.7-8.3h3.7c2.5 0 5.4 0 8.3.2l2.9 8.1-4.7 1c0 .8.2 1.7.4 2.5 2.3 0 4.3-.2 6.6-.2 1.7 0 5 0 6.4.2.2-.8.4-1.7.2-2.5-1.2-.4-2.5-.8-3.9-1l-11.1-31.4c-1.4 0-3.1.2-4.5.8l-10.5 30.6c-1.2.4-2.7.8-4.1 1-.3.9-.1 1.7.1 2.5m-21.4-2.9c1.2.2 2.1 1.4 2.1 2.7-.4 2.5-1.4 4.5-3.3 6.2 0 .8.6 1.4 1.2 1.7 3.5-1.7 7.2-6.2 7.2-9.9.4-1.9-.8-3.9-2.7-4.3-.4 0-.8-.2-1.2 0-1.9.2-3.3 1.7-3.3 3.5m-15.1-.3c-3.7 0-5-3.3-5-8.9-.2-3.3 1-6.4 3.1-9.1 1-.6 2.3-1 3.7-1 3.3 0 4.7 3.3 4.7 9.1 0 3.3-1 6.4-3.1 8.9-.9.6-2.2 1-3.4 1m-2.3 3.5c8.3 0 13.2-6.8 13.2-15.7 0-4.3-1.4-10.1-7.2-10.1-8.3 0-13 6.8-13 15.7-.2 4.5 1.5 10.1 7 10.1m-21.8-3.3c-3.7 0-5-3.3-5-8.9-.2-3.3 1-6.4 3.1-9.1 1-.6 2.5-1 3.7-1 3.3 0 4.7 3.3 4.7 9.1 0 3.3-1 6.4-3.1 8.9-1 .6-2.2.8-3.4 1m-2.1 3.3c8.3 0 13.2-6.8 13.2-15.7 0-4.3-1.4-10.1-7.2-10.1-8.3 0-13 6.8-13 15.7-.2 4.5 1.2 10.1 7 10.1m-18-.2c2.9-.4 5.6-1.9 7.6-4.1-.2-.6-.6-1.2-1-1.7-1.4.6-3.1 1.2-4.7 1.4l4.1-30.8v-1.2c0-2.1-1-3.1-2.9-3.1-2.1 0-4.1.6-6 1.7-.2.6-.2 1.2 0 1.9 1.4 0 2.9.2 4.3.4l-4.1 29.9c-.2.8-.2 1.7-.2 2.7.2 1.5.9 2.9 2.9 2.9m-22.5-.4c2.3.2 4.5-.2 4.5-1.2.6-4.7 1.2-10.1 1.9-14.9 1.7-2.1 3.5-3.7 5.6-5 .8.6 1.7 1.4 2.3 2.5 1.7-.4 3.1-2.1 3.1-3.1 0-1.9-1.4-3.3-3.3-3.5-2.3 0-5 2.3-7.4 5.4v-1.7c0-2.1-1-3.1-2.9-3.1-2.1 0-4.1.6-6 1.7-.2.6-.2 1.2 0 1.9 1.4 0 2.9.2 4.3.4l-.4 3.9c-.6 5.4-1.7 10.9-2.7 16.7h1zM558.7 485c.6-.2 1.4-.4 2.3-.4 2.1 0 3.3 2.3 3.3 4.5-2.9 1.9-6 3.5-9.3 4.5-.1-3.2 1.2-6.3 3.7-8.6m-3.1 21.9c3.3 0 8.1-2.1 12.8-5.4 0-.6-.4-1.2-1-1.9-3.3 1.7-6.8 2.9-10.3 3.5-1.4-2.1-2.3-4.3-2.3-6.8 7.4-2.5 13.8-5.6 13.8-7.6 0-4.5-2.1-7.6-6-7.6-6.4 0-12.4 6-12.4 15.7 0 2.3.2 4.3 1 6.6.6 2.1 2.3 3.5 4.4 3.5m-18.6-.2c2.9 0 7.4-2.7 9.5-5-.2-.6-.4-1.2-1-1.7-2.1 1-4.3 1.9-6.6 2.3l2.1-16.5v-.6h6.8c.4-1 .6-2.1.6-3.1-2.3-.2-4.7-.4-7-.4.4-2.5.8-5 1.4-7.4l-.4-.4c-2.1-.2-4.5.2-4.7 1.2-.2 2.3-.4 4.3-.8 6.6H533c-1 0-1 2.1-1 3.3h4.5c-.2 1.2-.2 2.7-.4 3.9-.6 4.3-1 7.6-1.7 11.8-.2.8-.2 1.7-.2 2.5.1 2.1.7 3.7 2.8 3.5m-26.2-10.5c-.2-4.1 1-8.1 3.7-11.1.8-.4 1.9-.4 2.7-.4 1.7 0 3.3.4 5 1l-1.9 13.8c-2.3 2.1-5.2 3.3-8.1 3.7-.8-.8-1.4-3.3-1.4-7m.4 10.7c2.7 0 6-1.9 9.3-4.7.2 2.7.6 4.5 2.1 4.5 2.9-.4 5.6-1.9 7.6-4.1-.2-.6-.4-1.2-1-1.7-1.4.6-3.1 1.2-4.7 1.4l2.1-16.5c.2-.8.4-1.9.6-2.7-2.9-1.2-6-1.9-9.1-1.9-7.4 0-11.8 8.3-11.8 16.5 0 1.9.2 3.7.6 5.6.1 2.2 2 3.8 4.3 3.6m-41.5-.4c1.9 0 3.9-.2 5.8-.8L486 477l-.4 5.2 2.7 24.4c1.9 0 3.5-.2 5.4-.8l12-30.8c1.2-.2 2.5-.4 3.7-1 .2-.8.2-1.7 0-2.5h-11.1c-.4.8-.6 1.7-.8 2.5l4.5 1-9.9 27 .2-4.3-2.7-26.2c-1.7 0-3.1.2-4.7.6L473.6 502l.2-4.3-2.5-22.5 4.3-1c.2-.8.2-1.7 0-2.5h-12.4c-.4.8-.6 1.7-.8 2.5 1.2.2 2.5.4 3.7 1l3.6 31.3zm-39.2-.2c1.9 0 4.1-.2 6.2-.2 1.7 0 6 0 8.1.2.2-.8.4-1.4.4-2.3-2.1-.6-4.1-.8-6.2-.8 0-1.2-.2-2.5-.2-3.9v-9.9c2.1-3.3 3.9-3.9 5.8-3.9h1.2c.4 1.9.6 3.7.6 5.8.8.4 1.9.4 2.7 0 .6-2.9 1-5.8.8-8.9-1.2-.4-2.7-.6-4.1-.6-3.1.2-5.8 2.1-7.2 4.7-.2-1.4-.4-3.1-.8-4.5l-.4-.4c-2.5.2-5 .8-7.4 1.9 0 .6 0 1.4.2 2.1 1.4.2 2.7.4 4.1.8v14c0 1 0 1.9-.2 2.9-1.4.4-2.7.8-4.1.8 0 .5.2 1.4.5 2.2m-18.2-20.7c1-.6 2.3-1 3.5-1 4.5 0 5.4 3.3 5.4 6.4-1.2.2-3.5.2-6.4.2h-5c.2-2 1.2-3.9 2.5-5.6m3.7 21.3c3.5-.4 7-1.7 9.9-3.7 0-.6-.2-1.4-.8-1.9-2.7 1-5.4 1.7-8.3 1.9-5 0-6.8-5-7-9.3h15.3l.4-.4c.2-1 .2-2.1.2-3.1 0-4.5-2.1-9.3-9.1-9.3-6.6 0-11.1 6.8-11.1 13.2 0 7 3.1 12.4 10.5 12.6m-38.2-26.8c-.2-3.1.4-6.4 1.9-9.1 1.2-.8 2.5-1 3.9-1 2.1 0 4.3.4 6.2 1.2v10.5h-12v-1.6zm-4.3 4.9v15.1c0 1 0 1.9-.2 2.9-1.4.4-2.7.8-4.1.8 0 .8.2 1.7.4 2.3 2.1 0 4.1-.2 6.2-.2s5.2 0 8.1.2c.2-.8.4-1.4.2-2.3-2.1-.6-4.1-.8-6-.8-.2-1.2-.2-2.5-.2-3.9v-14H390v14.5c0 4.7 1.2 7.4 4.7 7.4 2.9-.2 5.6-1 8.1-2.5 0-.8-.2-1.7-.8-2.3-1.7.6-3.3 1-5.2 1-1.7 0-2.5-1.9-2.5-5.6v-12.4h7.8c.2-1 .2-2.1.2-3.1l-8.1-.2v-13l-.4-.4c-2.9-1.2-6.2-2.1-9.5-1.9-7 0-10.9 5.8-10.9 14.7v.4c-1.2.2-2.7.4-3.9.6-.2.6 0 1.4.2 2.1l3.8.6m-25.8 14.5c0-1 .4-2.3 1-3.1 2.7-1.2 5.6-2.1 8.5-2.3v6c-1.7 1.4-3.5 2.5-5.6 2.7-1.9.2-3.5-1-3.9-2.9v-.4m1.2 7.4c3.3-.4 6.2-1.9 8.5-4.1.4 2.5 1.4 4.1 2.5 4.1 2.3-.2 4.3-1.2 6-2.7 0-.6-.2-1.4-.8-1.9-1 .4-2.3.6-3.3.8-.2-1.4-.2-2.7-.2-4.1v-9.5c0-7-5.2-8.1-8.1-8.1-3.3 0-6.4 1-9.1 2.7 0 1.9.4 3.7 1.2 5.6 1 .2 2.1.2 2.9-.4 0-1.4 0-2.7.4-4.1 1.4-.2 2.7-.4 4.1-.4 3.5 0 4.3 2.7 4.3 6.6-6.6 1.2-14 3.9-14 9.7-.4 3.1 1.9 5.8 5 6.2.2-.2.4-.2.6-.4m-29.7 0c5.4 0 9.5-2.9 9.5-7.6 0-8.3-12.6-6.6-12.6-11.8 0-1.9.4-3.1 4.5-3.1 1 0 2.3.2 3.3.4.4 1.2.6 2.7.6 3.9.8.4 1.9.4 2.7.2.6-2.1.8-4.1.8-6.4-2.5-.6-5-1-7.4-1-4.1 0-9.1 1.7-9.1 6.8 0 5.6 6 6 9.9 8.1 1.4.6 2.5 2.1 2.7 3.5 0 3.1-1.2 3.9-4.5 3.9-1.7 0-3.1-.2-4.7-.8-.2-1.7-.4-3.5-.4-5.2-.8-.4-1.7-.4-2.5 0-.6 2.5-.8 5-.8 7.4 2.6 1.3 5.3 1.7 8 1.7m-31-.4c2.1 0 4.1-.2 6.2-.2 1.7 0 6 0 8.1.2.4-.8.8-1.7 1-2.5-2.1-.6-4.1-.8-6.2-.8 0-1.2-.2-2.5-.2-3.9v-9.9c2.1-3.3 3.9-3.9 5.8-3.9h1.2c.4 1.9.6 3.7.6 5.8.8.4 1.9.4 2.7 0 .6-2.9 1-5.8.8-8.9-1.2-.4-2.7-.6-4.1-.6-3.1.2-5.8 2.1-7.2 4.7-.2-1.4-.4-3.1-.8-4.5l-.4-.4c-2.5.2-5 .8-7.2 1.9 0 .6 0 1.4.2 2.1 1.4.2 2.7.4 4.1.8v14c0 1 0 1.9-.2 2.9-1.4.4-2.7.8-4.1.8 0 .8.2 1.7.4 2.3m-21.8-6.9c0-1 .4-2.3 1-3.1 2.7-1.2 5.6-2.1 8.5-2.3v6c-1.7 1.4-3.5 2.5-5.6 2.7-1.9.2-3.5-1-3.9-2.9v-.4m1.3 7.4c3.3-.4 6.2-1.9 8.5-4.1.4 2.5 1.4 4.1 2.5 4.1 2.3-.2 4.3-1.2 5.8-2.7 0-.6-.2-1.4-.8-1.9-1 .4-2.3.6-3.3.8-.2-1.4-.2-2.7-.2-4.1v-9.5c0-7-5.2-8.1-8.1-8.1-3.3 0-6.4 1-9.1 2.7 0 1.9.4 3.7 1.2 5.6 1 .2 2.1.2 2.9-.4 0-1.4 0-2.7.4-4.1 1.4-.2 2.7-.4 4.1-.4 3.5 0 4.3 2.7 4.3 6.6-6.6 1.2-14 3.9-14 9.7-.4 3.1 1.9 5.8 5 6.2.2-.2.6-.2.8-.4m-23.5-21c1-.6 2.3-1 3.5-1 4.5 0 5.4 3.3 5.4 6.4-1.2.2-3.5.2-6.4.2h-5c.2-2.1 1-4.2 2.5-5.6m3.5 21.2c3.5-.4 7-1.7 9.9-3.7 0-.6-.4-1.4-.8-1.9-2.7 1-5.4 1.7-8.3 1.9-5 0-6.8-5-7-9.3h15.3l.4-.4c.2-1 .2-2.1.2-3.1 0-4.5-2.1-9.3-9.1-9.3-6.6 0-11.1 6.8-11.1 13.2-.1 7 3 12.4 10.5 12.6m-33.1 12.2c3.9 0 7-5.8 9.9-13.6l7.6-20.6c1-.2 2.1-.4 2.9-.8 0-.8 0-1.7-.2-2.3h-9.7c-.2.8-.4 1.4-.4 2.3l3.9.8-6.4 18-.2-3.7-5.2-14.2 3.9-.8c.2-.8 0-1.7-.2-2.3h-10.9c-.2.8-.4 1.4-.4 2.3 1 .2 1.9.4 2.9.8l7.6 21.1h1.7l-.8 1.9c-2.1 4.5-4.5 7.8-9.5 7.8h-.6c-.6.6-.8 1.4-.8 2.3 1.4.6 3.1 1 4.9 1m-32.6-33.7c1-.6 2.3-1 3.5-1 4.5 0 5.4 3.3 5.4 6.4-1.2.2-3.5.2-6.4.2h-5c.2-2 1.1-4.1 2.5-5.6m3.5 21.3c3.5-.4 7-1.7 9.9-3.7 0-.6-.4-1.4-.8-1.9-2.7 1-5.4 1.7-8.3 1.9-5 0-6.8-5-7-9.3h15.3l.4-.4c.2-1 .2-2.1.2-3.1 0-4.5-2.1-9.3-9.1-9.3-6.6 0-11.1 6.8-11.1 13.2 0 7 3.1 12.4 10.5 12.6m-24.3-.4c5.4 0 9.5-2.9 9.5-7.6 0-8.3-12.6-6.6-12.6-11.8 0-1.9.4-3.1 4.5-3.1 1 0 2.3.2 3.3.4.4 1.2.6 2.7.6 3.9.8.4 1.9.4 2.7.2.6-2.1.8-4.1.8-6.4-2.5-.6-5-1-7.4-1-4.1 0-8.9 1.7-8.9 6.8 0 5.6 6 6 9.7 8.1 1.7.6 2.7 2.1 2.7 3.7 0 3.1-1.2 3.9-4.5 3.9-1.7 0-3.1-.2-4.7-.8-.2-1.7-.4-3.5-.4-5.2-.8-.4-1.7-.4-2.5 0-.6 2.5-.8 5-.8 7.4 2.6 1.3 5.3 1.7 8 1.5m-26.1-20.9c1-.6 2.3-1 3.5-1 4.5 0 5.4 3.3 5.4 6.4-1.2.2-3.5.2-6.2.2h-5.2c.3-2 1.1-4.1 2.5-5.6m3.6 21.3c3.5-.4 7-1.7 9.9-3.7 0-.6-.2-1.4-.8-1.9-2.7 1-5.4 1.7-8.3 1.9-5 0-6.8-5-7-9.3h15.3l.4-.4c.2-1 .2-2.1.2-3.1 0-4.5-2.1-9.3-9.1-9.3-6.6 0-11.1 6.8-11.1 13.2-.1 7 3 12.4 10.5 12.6m-40.9-.8c1.9 0 4.1-.2 6.2-.2 1.2 0 4.3 0 5.8.2.2-.8.4-1.4.4-2.3-1.2-.4-2.5-.8-3.9-.8 0-1.2-.2-2.5-.2-3.9v-12.8c2.1-1 4.3-1.4 6.6-1.4 4.1 0 4.7 2.9 4.7 6.6v8.7c0 1 0 1.9-.2 2.9-1.4.4-2.7.8-4.1.8 0 .8.2 1.7.4 2.3 2.1 0 4.1-.2 6.2-.2 1.2 0 4.3 0 5.8.2.2-.6.4-1.4.4-2.1-1.2-.4-2.5-.8-3.9-.8 0-1.2-.2-2.5-.2-3.9v-9.7c0-5.8-2.5-8.3-7.2-8.3-3.1 0-6 1-8.5 2.7v-1.9c0-5.6 0-9.7.2-14.9l-.4-.4c-2.9.2-5.6.8-8.5 1.9 0 .6 0 1.4.2 2.1 1.4.2 2.7.4 4.1.8v28.9c0 1 0 1.9-.2 2.9-1.4.4-2.7.8-4.1.8 0 .8.2 1.7.4 2.3m-11.2.5c2.9-.2 5.6-1 8.1-2.5 0-.8-.2-1.7-.8-2.3-1.7.6-3.3 1-5.2 1-1.7 0-2.5-1.9-2.5-5.6v-12.4h7.8c.2-1 .2-2.1.2-3.1l-8.1-.2v-7c-.8-.2-1.7-.4-2.7-.2l-1.7 7c-1.4 0-2.7.2-3.9.6-.2.6-.2 1.4 0 2.1 1.4.2 2.9.4 3.9.6v14.5c0 4.6 1.2 7.3 4.9 7.5m-33.8-.8c1.9 0 4.1-.2 6.2-.2 1.2 0 4.3 0 5.8.2.2-.8.4-1.4.4-2.3-1.2-.4-2.5-.8-3.9-.8 0-1.2-.2-2.5-.2-3.9v-17.1c0-5.6 0-9.7.2-14.9l-.4-.4c-2.9.2-5.6.8-8.5 1.9 0 .6 0 1.4.2 2.1 1.4.2 2.7.4 4.1.8v28.9c0 1 0 1.9-.2 2.9-1.4.4-2.7.8-4.1.8.2.5.2 1.4.4 2m-15.9.2c2.1 0 4.1-.2 6.2-.2 1.2 0 4.3 0 5.8.2.2-.8.4-1.4.2-2.3-1.2-.4-2.5-.8-3.9-.8 0-1.2-.2-2.5-.2-3.9v-17.1c0-5.6 0-9.7.2-14.9l-.4-.4c-2.9.2-5.8.8-8.5 1.9 0 .6 0 1.4.2 2.1 1.4.2 2.7.4 4.1.8v28.9c0 1 0 1.9-.2 2.9-1.4.4-2.7.8-4.1.8.2.6.4 1.4.6 2m-20.7-30.3l.2 3.7 4.1 11.8h-9.7l5.4-15.5zM.4 506.5c2.3 0 4.1-.2 6-.2 1.2 0 4.3 0 5.8.2.2-.6.2-1.4.2-2.5l-4.5-1 2.7-8.3h3.7c2.5 0 5.4 0 8.3.2l2.9 8.1-4.7 1c0 .8.2 1.7.4 2.5 2.3 0 4.3-.2 6.6-.2 1.7 0 5 0 6.4.2.2-.8.4-1.7.2-2.5-1.2-.4-2.5-.8-3.9-1l-11.1-31.8c-1.4 0-3.1.2-4.5.8L4.1 502.8c-1.2.4-2.7.8-4.1 1 0 .8.2 1.7.4 2.7m792.2-69.8c0 2.1 1.7 3.7 3.7 3.7s3.7-1.7 3.7-3.7c-.2-2.1-2.1-3.5-3.9-3.3-1.9.2-3.3 1.7-3.5 3.3m-21.9 15.9c3.9 0 7.2-5.8 10.1-13.6l7.8-20.6c1-.2 2.1-.4 2.9-.8 0-.8 0-1.7-.2-2.3h-10.1c-.2.8-.4 1.4-.4 2.3l4.1.8-6.6 18-.2-3.7-5.2-14.2 4.1-.8c.2-.8 0-1.7-.2-2.3h-11.1c-.2.8-.4 1.4-.4 2.3 1 .2 2.1.4 2.9.8l7.8 21.1h1.7l-.8 1.9c-2.1 4.5-4.5 7.8-9.5 7.8h-.6c-.6.6-.8 1.4-.8 2.3 1.2.6 3 1 4.7 1m-16.1-12.4c2.9 0 5.6-1 8.1-2.5 0-.8-.2-1.7-.8-2.3-1.7.6-3.3 1-5.2 1-1.7 0-2.5-1.9-2.5-5.6v-12.4h8.1c.2-1 .2-2.1.2-3.1l-8.3-.2v-6.8c-.8-.2-1.9-.4-2.7-.2l-1.7 7c-1.4 0-2.7.2-4.1.6-.2.6-.2 1.4 0 2.1 1.4.2 2.9.4 3.9.6V433c-.2 4.8 1.3 7.4 5 7.2m-23.6-.6c2.1 0 4.1-.2 6.4-.2 1.2 0 4.3 0 5.8.2.2-.8.4-1.4.2-2.3-1.2-.4-2.7-.8-3.9-.8 0-1.2-.2-2.5-.2-3.9v-2.5c0-5.6 0-9.7.2-14.9l-.4-.4c-2.9.2-5.8.8-8.5 1.9 0 .6 0 1.4.2 2.1 1.4.2 2.7.4 4.1.8v14.2c0 1 0 1.9-.2 2.9-1.4.4-2.7.8-4.1.8.2.7.2 1.5.4 2.1m5.6-28.7c2.1-.2 3.5-1.9 3.7-3.9-.2-1.7-1.4-2.9-3.1-2.9-2.1.2-3.5 1.9-3.7 3.9.2 1.7 1.5 2.9 3.1 2.9m-22.1 28.9c2.1 0 4.1-.2 6.4-.2 1.2 0 4.3 0 5.8.2.2-.8.4-1.4.2-2.3-1.2-.4-2.7-.8-3.9-.8 0-1.2-.2-2.5-.2-3.9v-17.1c0-5.6 0-9.7.2-14.9l-.4-.4c-2.9.2-5.8.8-8.5 1.9 0 .6 0 1.4.2 2.1 1.4.2 2.7.4 4.1.8V434c0 1 0 1.9-.2 2.9-1.4.4-2.7.8-4.1.8 0 .7.2 1.5.4 2.1m-21.9-6.6c0-1 .4-2.3 1-3.1 2.7-1.4 5.6-2.3 8.7-2.5v6c-1.7 1.4-3.5 2.5-5.8 2.7-2.7 0-3.9-1.7-3.9-3.5m1.3 7.4c3.3-.4 6.4-1.9 8.7-4.1.4 2.5 1.4 4.1 2.5 4.1 2.3-.2 4.3-1.2 6-2.7 0-.6-.2-1.4-.8-1.9-1 .4-2.3.6-3.3.8-.2-1.4-.2-2.7-.2-4.1v-9.7c0-7-5.2-8.1-8.3-8.1-3.3 0-6.4.8-9.3 2.7 0 1.9.4 3.7 1.2 5.6 1 .2 2.1.2 3.1-.4 0-1.4 0-2.7.4-4.1 1.4-.2 2.7-.4 4.1-.4 3.5 0 4.3 2.7 4.3 6.6-6.6 1.2-14.2 3.9-14.2 9.7-.2 3.1 2.1 5.8 5.2 6.2.2-.2.4-.2.6-.2m-17.2 0c2.9 0 5.6-.8 8.1-2.5 0-.8-.2-1.7-.8-2.3-1.7.6-3.3 1-5.2 1-1.7 0-2.5-1.9-2.5-5.6v-12.4h8.1c.2-1 .2-2.1.2-3.1l-8.3-.2v-6.8c-.8-.2-1.9-.4-2.7-.2l-1.7 7c-1.4 0-2.7.2-4.1.6-.2.6-.2 1.4 0 2.1 1.4.2 2.9.4 3.9.6V433c-.1 4.8 1.1 7.4 5 7.2m-23.5-.4c2.1 0 4.1-.2 6.4-.2 1.2 0 4.5 0 5.8.2.2-.8.4-1.4.2-2.3-1.2-.4-2.5-.8-3.9-.8 0-1.2-.2-2.5-.2-3.9v-2.5c0-5.6 0-9.7.2-14.9l-.4-.4c-2.9.2-5.8.8-8.5 1.9 0 .6 0 1.4.2 2.1 1.4.2 2.7.4 4.1.8V434c0 1 0 1.9-.2 2.9-1.4.4-2.7.8-4.1.8.2.7.4 1.3.4 2.1m5.6-28.9c2.1-.2 3.5-1.9 3.7-3.9-.2-1.7-1.4-2.9-3.1-2.9-2.1.2-3.5 1.9-3.7 3.9.2 1.7 1.4 2.9 3.1 2.9m-25 29.1c1.7 0 3.3-.2 5-.8l7.6-20.6c1-.2 2.1-.4 2.9-.8 0-.8 0-1.7-.2-2.3H639c-.2.8-.4 1.4-.4 2.3l4.1.8-6.6 18-.2-3.7-5.2-14.2 4.1-.8c.2-.8 0-1.7-.2-2.3h-11.1c-.2.8-.4 1.4-.4 2.3 1 .2 2.1.4 2.9.8l7.8 21.3zm-36.1-.2c2.1 0 4.1-.2 6.4-.2 1.2 0 4.3 0 5.8.2.2-.8.4-1.4.2-2.3-1.2-.4-2.7-.8-3.9-.8 0-1.2-.2-2.5-.2-3.9v-17.1c0-5.6 0-9.7.2-14.9l-.4-.4c-2.9.2-5.8.8-8.5 1.9 0 .6 0 1.4.2 2.1 1.4.2 2.7.4 4.1.8V434c0 1 0 1.9-.2 2.9-1.4.4-2.7.8-4.1.8 0 .9.2 1.5.4 2.1m-21.9-6.6c0-1 .4-2.3 1-3.1 2.7-1.2 5.6-2.1 8.7-2.3v6c-1.7 1.4-3.5 2.5-5.8 2.7-2.9.2-3.9-1.2-3.9-3.3m1.2 7.4c3.3-.4 6.4-1.9 8.7-4.1.4 2.5 1.4 4.1 2.5 4.1 2.3-.2 4.3-1.2 6-2.7 0-.6-.2-1.4-.8-1.9-1 .4-2.3.6-3.3.8-.2-1.4-.2-2.7-.2-4.1V423c0-7-5.2-8.1-8.3-8.1-3.3 0-6.4.8-9.3 2.7 0 1.9.4 3.7 1.2 5.6 1 .2 2.1.2 3.1-.4 0-1.4 0-2.7.4-4.1 1.4-.2 2.7-.4 4.1-.4 3.5 0 4.3 2.7 4.3 6.6-6.6 1.2-14.2 3.9-14.2 9.7-.2 3.1 2.1 5.8 5.2 6.2 0 0 .2 0 .6-.2m-19.4 0c3.5-.2 6.8-1.4 9.5-3.5 0-.8-.4-1.4-.8-1.9-2.5 1-5.2 1.7-7.8 1.9-5.6 0-7.2-6-7.2-10.1 0-2.7.8-5.2 2.7-7.2 1.2-.6 2.7-1 4.3-1 1.2 0 2.7 0 3.9.2.2 1.4.4 2.9.4 4.3 1 .6 2.1.6 3.1.2.8-2.1 1-4.3 1-6.6-2.7-1-5.4-1.7-8.3-1.4-7 0-11.6 6.8-11.6 13 .1 6.8 3.2 12.1 10.8 12.1m-26.2-.6c2.1 0 4.1-.2 6.4-.2 1.2 0 4.5 0 5.8.2.2-.8.4-1.4.2-2.3-1.2-.4-2.5-.8-3.9-.8 0-1.2-.2-2.5-.2-3.9v-2.5c0-5.6 0-9.7.2-14.9l-.4-.4c-2.9.2-5.8.8-8.5 1.9 0 .6 0 1.4.2 2.1 1.4.2 2.7.4 4.1.8v14.2c0 1 0 1.9-.2 2.9-1.4.4-2.7.8-4.1.8 0 .7.2 1.5.4 2.1m5.6-28.9c2.1-.2 3.5-1.9 3.7-3.9-.2-1.7-1.4-2.9-3.1-2.9-2.1.2-3.5 1.9-3.7 3.9 0 1.9 1.4 2.9 3.1 2.9m-19.6 29.5c5.4 0 9.7-2.9 9.7-7.6 0-8.3-12.8-6.6-12.8-11.8 0-1.9.4-3.1 4.5-3.1 1.2 0 2.3.2 3.3.4.4 1.2.6 2.7.6 3.9.8.4 1.9.4 2.7.2.6-2.1.8-4.1.8-6.4-2.5-.6-5-1-7.4-1-4.3 0-9.1 1.7-9.1 6.8 0 5.6 6 6 9.9 8.1 1.4.6 2.7 1.9 2.7 3.5 0 3.1-1.2 3.9-4.5 3.9-1.7 0-3.3-.2-4.7-.8-.2-1.7-.4-3.5-.6-5.2-.8-.4-1.7-.4-2.5 0-.6 2.5-1 5-1 7.4 2.8 1.3 5.7 1.7 8.4 1.7m-29.3.2c3.5 0 6-2.3 8.5-5 .4 2.5 1.4 5 2.7 5 2.3-.2 4.3-1.2 6-2.7 0-.6-.2-1.4-.8-1.9-1 .4-2.3.6-3.3.8-.2-1.4-.2-2.7-.2-4.1V431c0-5.8 0-9.7.2-14.9l-.4-.4h-1.9c-2.3 0-3.9 0-6-.2-.2.8-.2 1.7-.2 2.3 1.4.2 2.9.6 4.1 1v13.8c-1.4 1.4-5 3.9-7 3.9-2.9 0-4.1-2.5-4.1-6.6 0-3.1 0-9.1.2-14l-.4-.4h-2.3c-2.3 0-3.9 0-6-.2-.2.8-.2 1.7-.2 2.3 1.4.2 2.7.6 4.1 1V432c-.3 6.2 2.4 8.8 7 8.8m-54.6-1.2c2.1 0 4.1-.2 6.4-.2 1.2 0 4.5 0 5.8.2.2-.8.4-1.4.4-2.3-1.2-.4-2.7-.8-3.9-.8-.2-1.2-.2-2.5-.2-3.9v-12.2c1.7-1.2 3.7-1.9 5.8-2.1 4.1 0 4.5 2.9 4.5 6.6v8.7c0 1 0 1.9-.2 2.9-1.2.4-2.5.6-3.7.8 0 .8.2 1.7.4 2.3 1.4 0 3.7-.2 5.8-.2 1.2 0 3.9 0 5.4.2.2-.8.2-1.4.2-2.3-1-.4-2.3-.8-3.3-.8 0-1.2-.2-2.5-.2-3.9v-9.7c0-.8 0-1.7-.2-2.5 1.9-1.2 3.9-2.1 6-2.3 4.1 0 4.5 2.9 4.5 6.6v8.7c0 1 0 1.9-.2 2.9-1.4.4-2.7.8-4.1.8 0 .8.2 1.7.4 2.3 2.1 0 4.1-.2 6.4-.2 1.2 0 4.3 0 5.8.2.2-.8.4-1.4.4-2.3-1.2-.4-2.5-.8-3.9-.8 0-1.2-.2-2.5-.2-3.9v-9.7c0-5.8-2.5-8.3-7-8.3-3.3.2-6.4 1.7-8.5 3.9-.8-2.7-3.5-4.3-6.4-3.9-3.1.2-5.8 1.4-8.1 3.5-.2-1.2-.4-2.3-.6-2.9l-.4-.4c-2.5.2-5 .8-7.4 1.9 0 .6 0 1.4.2 2.1 1.4.2 2.7.4 4.1.8v14c0 1 0 1.9-.2 2.9-1.4.4-2.7.8-4.1.8.1 1.1.1 1.7.3 2.5m-28.9 0c2.1 0 4.1-.2 6.4-.2 2.3 0 5.2 0 8.1.2.2-.8.4-1.4.2-2.3-2.1-.6-4.1-.8-6.2-.8-.2-1.2-.2-2.5-.2-3.9v-14h6.2c.2-1 .2-2.1.2-3.1l-6.4-.2v-1.7c0-4.5.8-8.1 1.9-9.1 1-.6 2.3-1 3.5-1 1 0 1.9 0 2.9.2.2 1.4.4 2.9.4 4.3.8.4 1.9.6 2.9.2.8-2.3 1.2-4.5 1.2-6.8-2.2-.8-4.5-1.2-6.8-1.2-6.4 0-10.3 5.8-10.3 14.7v.6c-1.4.2-2.7.4-4.1.6-.2.6-.2 1.4 0 2.1 1.2.2 2.7.4 3.9.6v15.1c0 1 0 1.9-.2 2.9-1.4.4-2.7.8-4.1.8 0 .8 0 1.7.4 2.3m-14.1-3c-5.6 0-7.4-6-7.4-10.3 0-2.7.8-5.4 2.7-7.4 1-.6 2.3-1 3.7-1 5.6 0 7.6 6 7.6 10.3 0 2.7-.8 5.4-2.7 7.4-1.4.6-2.7 1-3.9 1m-1 3.3c7.4 0 11.6-7 11.6-13.2 0-7-3.5-12.4-11.1-12.4s-11.6 7-11.6 13.2c.1 7.3 3.6 12.4 11.1 12.4m-37.8-.6c2.1 0 4.1-.2 6.4-.2 1.2 0 4.5 0 5.8.2.2-.8.4-1.4.4-2.3-1.2-.4-2.7-.8-3.9-.8 0-1.2-.2-2.5-.2-3.9v-17.1c0-5.6 0-9.7.2-14.9l-.4-.4c-2.9.2-5.8.8-8.5 1.9 0 .6 0 1.4.2 2.1 1.4.2 2.7.4 4.1.8v28.9c0 1 0 1.9-.2 2.9-1.4.4-2.7.8-4.1.8 0 .8 0 1.4.2 2m-16.1.2c2.1 0 4.1-.2 6.4-.2 1.2 0 4.3 0 5.8.2.2-.8.4-1.4.2-2.3-1.2-.4-2.7-.8-3.9-.8 0-1.2-.2-2.5-.2-3.9v-17.1c0-5.6 0-9.7.2-14.9l-.4-.4c-2.9.2-5.8.8-8.5 1.9 0 .6 0 1.4.2 2.1 1.4.2 2.7.4 4.1.8V434c0 1 0 1.9-.2 2.9-1.4.4-2.7.8-4.1.8 0 .7.2 1.5.4 2.1m-21.1.8c3.5 0 6-2.3 8.5-5 .4 2.5 1.4 5 2.7 5 2.3-.2 4.3-1.2 6-2.7 0-.6-.2-1.4-.8-1.9-1 .4-2.3.6-3.3.8-.2-1.4-.2-2.7-.2-4.1v-1.9c0-5.8 0-9.7.2-14.9l-.4-.4h-1.9c-2.3 0-3.9 0-6-.2-.2.8-.4 1.7-.4 2.3 1.4.2 2.9.6 4.1 1v13.8c-1.4 1.4-5 3.9-7 3.9-2.9 0-4.1-2.5-4.1-6.6v-14l-.4-.4h-1.7c-2.3 0-3.9 0-6-.2-.2.8-.2 1.7-.2 2.3 1.4.2 2.7.6 4.1 1v13.2c-.2 6.4 2.5 9 6.8 9m-29.5-1c2.1 0 4.1-.2 6.4-.2 2.3 0 5.2 0 8.1.2.2-.8.4-1.4.4-2.3-2.1-.6-4.1-.8-6.2-.8 0-1.2-.2-2.5-.2-3.9v-14h6.2c.2-1 .2-2.1.2-3.1l-6.4-.2v-1.7c0-4.5.8-8.1 1.9-9.1 1-.6 2.3-1 3.5-1 .8 0 1.9 0 2.7.2.2 1.4.4 2.9.4 4.3.8.4 1.9.6 2.9.2.8-2.3 1-4.5 1.2-6.8-2.2-.8-4.5-1.2-6.8-1.2-6.4 0-10.3 5.8-10.3 14.7v.6c-1.4.2-2.7.4-4.1.6-.2.6 0 1.4.2 2.1 1.2.2 2.7.4 3.9.6v15.1c0 1 0 1.9-.2 2.9-1.4.4-2.7.8-4.1.8-.1.6.1 1.4.3 2m-25.4-2.7c-5.6 0-7.6-6-7.6-10.3 0-2.7.8-5.4 2.7-7.4 1-.6 2.3-1 3.7-1 5.6 0 7.6 6 7.6 10.3 0 2.7-.8 5.4-2.7 7.4-1.2.6-2.5 1-3.7 1m-1 3.3c7.4 0 11.6-7 11.6-13.2 0-7-3.5-12.4-11.1-12.4s-11.6 7-11.6 13.2c.1 7.3 3.6 12.4 11.1 12.4m-25.2 0c5.4 0 9.7-2.9 9.7-7.6 0-8.3-12.8-6.6-12.8-11.8 0-1.9.4-3.1 4.5-3.1 1.2 0 2.3.2 3.3.4.4 1.2.6 2.7.6 3.9.8.4 1.9.4 2.7.2.6-2.1 1-4.1 1-6.4-2.5-.6-5-1-7.4-1-4.3 0-9.1 1.7-9.1 6.8 0 5.6 6 6 9.9 8.1 1.4.6 2.7 1.9 2.7 3.5 0 3.1-1.2 3.9-4.5 3.9-1.7 0-3.3-.2-4.7-.8-.2-1.7-.4-3.5-.4-5.2-.8-.4-1.7-.4-2.5 0-.6 2.5-1 5-1 7.4 2.6 1.3 5.3 1.7 8 1.7m-43.4-13.8c0-2.7.8-5.2 2.7-7.2 1-.6 2.3-1 3.7-1 2.3 0 4.3.4 6.4 1.2v13.2c-2.1 1.9-5 3.9-6.6 3.9-4.1 0-6.2-4.9-6.2-10.1m4.8 13.8c2.9 0 5.8-2.3 7.8-4.7.4 2.3 1.4 4.7 2.7 4.7 2.3-.2 4.3-1.2 6-2.7 0-.6-.2-1.4-.8-1.9-1 .4-2.3.6-3.3.8-.2-1.4-.2-2.7-.2-4.1v-17.1c0-5.6 0-9.7.2-14.9l-.4-.4c-3.1.2-6.2.8-9.1 1.9-.2.6 0 1.4.2 2.1 1.7.2 3.1.4 4.7.8v11.8c-1.9-1-3.7-1.7-5.8-1.9-5.8 0-11.1 5.8-11.1 13-.2 7.1 2.9 12.6 9.1 12.6M167.2 419c1-.6 2.3-1 3.5-1 4.7 0 5.4 3.3 5.4 6.4-1.2.2-3.7.2-6.4.2h-5.2c.5-2.1 1.3-4 2.7-5.6m3.7 21.2c3.7-.4 7-1.7 10.1-3.7 0-.6-.4-1.4-.8-1.9-2.7 1-5.4 1.7-8.3 1.9-5.2 0-6.8-5-7-9.3h15.5l.4-.4c.2-1 .2-2.1.2-3.1 0-4.5-2.1-9.3-9.3-9.3-6.6 0-11.4 6.8-11.4 13.2-.1 7.1 3.2 12.4 10.6 12.6m-41.7-.8c2.1 0 4.1-.2 6.4-.2 1.2 0 4.5 0 5.8.2.2-.8.4-1.4.4-2.3-1.2-.4-2.7-.8-3.9-.8 0-1.2-.2-2.5-.2-3.9v-12c1.9-1.4 4.1-2.3 6.6-2.3 4.1 0 4.7 2.9 4.7 6.6v8.7c0 1 0 1.9-.2 2.9-1.4.4-2.7.8-4.1.8 0 .8.2 1.7.4 2.3 2.1 0 4.1-.2 6.4-.2 1.2 0 4.5 0 5.8.2.2-.8.4-1.4.4-2.3-1.2-.4-2.7-.8-3.9-.8 0-1.2-.2-2.5-.2-3.9v-9.5c0-5.8-2.7-8.3-7.2-8.3-3.3.2-6.4 1.4-8.9 3.5-.2-1-.4-2.3-.6-2.9l-.4-.4c-2.5.2-5 .8-7.4 1.9 0 .6 0 1.4.2 2.1 1.4.2 2.7.4 4.1.8v14c0 1 0 1.9-.2 2.9-1.4.4-2.7.8-4.1.8-.1.9-.1 1.7.1 2.1m-23.7.2c2.1 0 4.1-.2 6.4-.2 1.7 0 6.2 0 8.1.2.2-.8.4-1.4.4-2.3-2.1-.6-4.1-.8-6.2-.8 0-1.2-.2-2.5-.2-3.9v-9.9c2.1-3.3 3.9-3.9 5.8-3.9h1.4c.4 1.9.6 3.7.6 5.8.8.2 1.9.2 2.7 0 .6-2.9 1-5.8 1-8.9-1.4-.4-2.9-.6-4.1-.6-3.1.2-5.8 2.1-7.2 4.7-.2-1.4-.4-3.1-.8-4.5l-.4-.4c-2.5.2-5 .8-7.4 1.9 0 .6 0 1.4.2 2.1 1.4.2 2.7.4 4.1.8v14c0 1 0 1.9-.2 2.9-1.4.4-2.7.8-4.1.8-.3.6-.3 1.4-.1 2.2m-21.3.6c3.5 0 6-2.3 8.5-5 .4 2.5 1.4 5 2.7 5 2.1-.2 4.1-1.2 5.8-2.7 0-.6-.2-1.4-.8-1.9-1 .4-2.3.6-3.3.8-.2-1.4-.2-2.7-.2-4.1v-1.9c0-5.8 0-9.7.2-14.9l-.4-.4h-1.9c-2.3 0-3.9 0-6-.2-.2.8-.2 1.7-.4 2.3 1.4.2 2.9.6 4.1 1V432c-1.4 1.4-5 3.9-7 3.9-2.9 0-4.1-2.5-4.1-6.6v-14l-.4-.4h-1.9c-2.3 0-3.9 0-6-.2-.2.8-.4 1.7-.4 2.3 1.4.2 2.9.6 4.1 1v13.2c0 5.8 2.5 8.5 7.2 8.5m-22.3.5c2.9 0 5.8-.8 8.3-2.3 0-.8-.2-1.7-.8-2.3-1.7.6-3.3 1-5.2 1-1.7 0-2.5-1.9-2.5-5.6v-12.4h8.1c.2-1 .2-2.1.2-3.1l-8.3-.2v-6.8c-.8-.2-1.9-.4-2.7-.2l-1.7 7c-1.4 0-2.7.2-4.1.6-.2.6 0 1.4 0 2.1 1.4.2 2.9.4 3.9.6v14.5c.1 4.7 1.3 7.3 4.8 7.1M35.9 419c1-.6 2.3-1 3.5-1 4.7 0 5.4 3.3 5.4 6.4-1.2.2-3.7.2-6.4.2h-5.2c.5-2.1 1.3-4 2.7-5.6m3.5 21.2c3.7-.4 7-1.7 10.1-3.7 0-.8-.2-1.4-.8-1.9-2.7 1-5.4 1.7-8.3 1.9-5.2 0-6.8-5-7.2-9.3h15.5l.4-.4c.2-1 .2-2.1.2-3.1 0-4.5-2.1-9.3-9.3-9.3-6.6 0-11.4 6.8-11.4 13.2.3 7.1 3.4 12.4 10.8 12.6m-33.6-.8c2.1 0 4.1-.2 6.4-.2 1.7 0 6.2 0 8.1.2.2-.8.4-1.4.2-2.3-2.1-.6-4.1-.8-6.2-.8-.2-1.2-.2-2.5-.2-3.9v-9.9c2.1-3.3 3.9-3.9 5.8-3.9h1.4c.4 1.9.6 3.7.6 5.8.8.2 1.9.2 2.7 0 .6-2.9 1-5.8.8-8.9-1.2-.4-2.7-.6-4.1-.6-3.1.2-5.8 2.1-7.2 4.7-.2-1.4-.6-2.7-1-4.1l-.4-.4c-2.5.2-5.2.8-7.4 1.9 0 .6 0 1.4.2 2.1 1.4.2 2.7.4 4.1.8v14c0 1 0 1.9-.2 2.9-1.4.4-2.7.8-4.1.8 0 .8 0 1.7.4 2.3m766.8-53.8c3.9 0 7.2-5.8 10.3-13.6l7.8-20.6c1-.2 2.1-.4 3.1-.8.2-.8 0-1.7-.2-2.3h-10.1c-.2.8-.4 1.4-.4 2.3l4.1.8-6.8 18-.2-3.7-5.4-14.2 4.1-.8c.2-.8 0-1.7-.2-2.3h-11.4c-.2.8-.4 1.4-.4 2.3 1 .2 2.1.4 2.9.8l8.1 21.1h1.7l-.8 1.9c-2.1 4.5-4.7 7.8-9.7 7.8h-.6c-.6.6-.8 1.4-.8 2.3 1.2.4 3.1 1 4.9 1m-23.1-33.8c1-.6 2.3-1 3.7-1 4.7 0 5.6 3.3 5.6 6.4-1.2.2-3.7.2-6.4.2h-5.2c0-2.1 1.1-4 2.3-5.6m3.7 21.2c3.7-.4 7.2-1.7 10.3-3.7 0-.8-.4-1.4-.8-1.9-2.7 1-5.6 1.7-8.5 1.9-5.2 0-7-5-7.2-9.3h15.9l.4-.4c.2-1 .2-2.1.2-3.1 0-4.5-2.1-9.3-9.5-9.3-6.8 0-11.6 6.8-11.6 13.2.1 7.1 3.4 12.4 10.8 12.6m-42.3-.8c2.1 0 4.3-.2 6.4-.2 1.2 0 4.5 0 6 .2.2-.8.4-1.4.4-2.3-1.2-.4-2.7-.8-3.9-.8 0-1.2-.2-2.5-.2-3.9v-12.8c2.1-1 4.3-1.4 6.6-1.4 4.1 0 5 2.9 5 6.6v8.7c0 1 0 1.7-.2 2.9-1.4.4-2.9.6-4.3.8 0 .8 0 1.7.4 2.3 2.1 0 4.3-.2 6.4-.2 1.2 0 4.5 0 6 .2.2-.8.4-1.4.4-2.3-1.2-.4-2.7-.8-4.1-.8 0-1.2-.2-2.5-.2-3.9V356c0-5.8-2.7-8.3-7.4-8.3-3.1 0-6.2 1-8.7 2.7v-1.9c0-5.6 0-9.7.2-14.9l-.4-.4c-2.9.2-5.8.8-8.7 1.9 0 .6 0 1.4.2 2.1 1.4.2 2.7.4 4.1.8v28.9c0 1 0 1.9-.2 2.9-1.4.4-2.9.6-4.3.8-.1.7.1 1.5.5 2.1m-12 .8c2.9 0 5.8-.8 8.3-2.5 0-.8-.2-1.7-.8-2.3-1.7.6-3.5 1-5.4 1-1.7 0-2.5-1.9-2.5-5.8v-12.4h8.1c.2-1 .2-2.1.2-3.1l-8.3-.2v-6.8c-.8-.2-1.9-.4-2.7-.2l-1.9 7c-1.4 0-2.7.2-4.1.6-.2.6 0 1.4 0 2.1 1.4.2 2.9.4 3.9.6V366c.5 5.1 1.7 7.8 5.2 7.5m-29.7.3c2.9 0 5.8-.8 8.3-2.5 0-.8-.2-1.7-.8-2.3-1.7.6-3.5 1-5.4 1-1.7 0-2.5-1.9-2.5-5.8v-12.4h8.1c.2-1 .2-2.1.2-3.1l-8.3-.2v-6.8c-.8-.2-1.9-.4-2.7-.2l-1.9 7c-1.4 0-2.7.2-4.1.6-.2.6 0 1.4 0 2.1 1.4.2 2.9.4 3.9.6v14.5c.5 4.8 1.7 7.5 5.2 7.5m-28.7-7.5c0-1 .4-2.3 1-3.1 2.7-1.2 5.8-2.1 8.7-2.3v6c-1.7 1.4-3.7 2.5-5.8 2.7-2.9.2-3.9-1.4-3.9-3.3m1.3 7.5c3.3-.4 6.4-1.9 8.9-4.1.6 2.5 1.7 4.1 2.7 4.1 2.3-.2 4.3-1.2 6-2.7 0-.6-.2-1.4-.8-1.9-1 .4-2.3.6-3.3.8-.2-1.4-.2-2.7-.2-4.1v-9.7c0-7-5.2-8.1-8.5-8.1s-6.6.8-9.5 2.7c0 1.9.4 3.7 1.2 5.6 1 .2 2.1.2 3.1-.4 0-1.4 0-2.7.4-4.1 1.4-.2 2.7-.4 4.1-.4 3.7 0 4.5 2.7 4.5 6.6-6.8 1.2-14.5 3.9-14.5 9.7-.2 3.1 2.1 6 5.2 6.2 0-.2.2-.2.7-.2m-38.7-.7c2.1 0 4.3-.2 6.4-.2 1.2 0 4.5 0 6 .2.2-.8.4-1.4.2-2.3-1.2-.4-2.7-.8-3.9-.8-.2-1.2-.2-2.5-.2-3.9v-12.8c2.1-1 4.3-1.4 6.6-1.4 4.1 0 5 2.9 5 6.6v8.7c0 1 0 1.7-.2 2.9-1.4.4-2.9.6-4.3.8 0 .8.2 1.7.4 2.3 2.1 0 4.3-.2 6.4-.2 1.2 0 4.5 0 6 .2.2-.8.4-1.4.4-2.3-1.2-.4-2.7-.8-4.1-.8 0-1.2-.2-2.5-.2-3.9v-9.7c0-5.8-2.7-8.3-7.2-8.3-3.1 0-6.2 1-8.7 2.7V349c0-5.6 0-9.7.2-14.9l-.4-.4c-2.9.2-5.8.8-8.7 1.9 0 .6 0 1.4.2 2.1 1.4.2 2.7.4 4.1.8v28.9c0 1 0 1.9-.2 2.9-1.4.4-2.9.6-4.3.8.1.6.1 1.4.5 2m-11.7.9c2.9 0 5.8-.8 8.3-2.5 0-.8-.2-1.7-.8-2.3-1.7.6-3.5 1-5.2 1-1.7 0-2.5-1.9-2.5-5.8V352h8.1c.2-1 .2-2.1.2-3.1l-8.3-.2V342c-.8-.2-1.9-.4-2.7-.2l-1.9 7c-1.4 0-2.7.2-4.1.6-.2.6 0 1.4 0 2.1 1.4.2 3.1.4 3.9.6v14.5c0 4.7 1.5 7.4 5 7.4m-37.6-21.3c1-.6 2.3-1 3.7-1 4.7 0 5.6 3.3 5.6 6.4-1.2.2-3.7.2-6.4.2h-5.4c.2-2.1 1.3-4 2.5-5.6m3.7 21.3c3.7-.4 7.2-1.7 10.3-3.7 0-.8-.2-1.4-.8-1.9-2.7 1-5.6 1.7-8.5 1.9-5.2 0-7-5-7.2-9.3h15.9l.4-.4c.2-1 .2-2.1.2-3.1 0-4.5-2.1-9.3-9.5-9.3-6.8 0-11.6 6.8-11.6 13.2.1 7 3.4 12.4 10.8 12.6m-25.2-.2c5.6 0 9.9-2.9 9.9-7.6 0-8.3-13-6.6-13-11.8 0-1.9.4-3.1 4.5-3.1 1.2 0 2.3.2 3.3.4.4 1.2.6 2.7.6 3.9.8.4 1.9.4 2.7.2.6-2.1 1-4.1 1-6.4-2.5-.6-5-1-7.6-1-4.3 0-9.3 1.7-9.3 6.8 0 5.6 6.2 6 10.1 8.1 1.7.8 2.7 1.9 2.7 3.5 0 3.1-1.2 3.9-4.7 3.9-1.7 0-3.3-.2-5-.8-.2-1.7-.4-3.5-.4-5.2-.8-.4-1.7-.4-2.5 0-.6 2.5-1 5-1 7.4 3.2 1.2 6 1.7 8.7 1.7m-25.2-.7c2.1 0 4.3-.2 6.4-.2 1.2 0 4.5 0 6 .2.2-.8.4-1.4.2-2.3-1.2-.4-2.7-.8-3.9-.8 0-1.2-.2-2.5-.2-3.9v-2.5c0-5.6 0-9.7.2-14.9l-.4-.4c-2.9.2-5.8.8-8.7 1.9 0 .6 0 1.4.2 2.1 1.4.2 2.7.4 4.1.8v14.2c0 1 0 1.9-.2 2.9-1.4.4-2.9.8-4.3.8 0 .7.2 1.5.6 2.1m5.4-28.9c2.1-.2 3.7-1.9 3.7-3.9-.2-1.7-1.7-2.9-3.3-2.9-2.1.2-3.5 1.9-3.7 3.9.4 1.9 1.7 2.9 3.3 2.9m-29.7 28.9c2.1 0 4.3-.2 6.4-.2 1.9 0 6.2 0 8.3.2.2-.8.4-1.4.2-2.3-2.1-.4-4.1-.8-6.2-.8-.2-1.2-.2-2.5-.2-3.9v-9.9c2.3-3.3 3.9-3.9 6-3.9h1.4c.4 1.9.6 3.7.6 5.8.8.4 1.9.4 2.7 0 .6-2.9 1-5.8 1-8.9-1.4-.4-2.9-.6-4.3-.6-3.1.2-6 2.1-7.4 4.7-.2-1.4-.6-3.1-.8-4.5l-.4-.4c-2.7.2-5.2.8-7.6 1.9 0 .6 0 1.4.2 2.1 1.4.2 2.7.4 4.1.8v14c0 1 0 1.9-.2 2.9-1.4.4-2.9.6-4.3.8.1.8.1 1.4.5 2.2m-15.1-21.4c4.3 0 6.6 5 6.6 10.1 0 2.7-.8 5.4-2.7 7.4-1 .6-2.3 1-3.3 1-2.7 0-5.4-1.2-7.2-3.3v-13c1.9-1.2 4.1-2 6.6-2.2m-15.3 34.2c2.3 0 4.3-.2 6.4-.2s5.4 0 8.3.2c.2-.8.4-1.4.2-2.3-2.1-.4-4.1-.8-6.2-.8 0-1.2-.2-2.5-.2-3.9v-7.6c2.1 1.4 4.3 2.3 6.6 2.5 6.4 0 11.1-7 11.1-13.2 0-7.4-3.9-12.2-9.7-12.2-3.1 0-6.2 1.2-8.5 3.3-.2-.8-.4-1.9-.6-2.7l-.4-.4c-2.7.2-5.2.8-7.6 1.9 0 .6 0 1.4.2 2.1 1.4.2 2.7.4 4.1.8v26.8c0 1 0 1.9-.2 2.9-1.4.4-2.9.6-4.3.8.4.6.6 1.4.8 2m-23.9-12.8c2.1 0 4.3-.2 6.4-.2 1.9 0 6.4 0 8.3.2.2-.8.4-1.4.2-2.3-2.1-.4-4.1-.8-6.2-.8-.2-1.2-.2-2.5-.2-3.9v-9.9c2.3-3.3 3.9-3.9 6-3.9h1.4c.4 1.9.6 3.7.6 5.8.8.4 1.9.4 2.7 0 .6-2.9 1-5.8 1-8.9-1.4-.4-2.9-.6-4.3-.6-3.1.2-6 2.1-7.4 4.7-.2-1.4-.4-3.1-.8-4.5l-.4-.4c-2.7.2-5.2.8-7.6 1.9 0 .6 0 1.4.2 2.1 1.4.2 2.7.4 4.1.8v14c0 1 0 1.9-.2 2.9-1.4.4-2.9.6-4.3.8.1.8.3 1.4.5 2.2m-21.7.7c3.5 0 6.2-2.3 8.7-5 .4 2.5 1.4 5 2.7 5 2.3-.2 4.5-1 6.2-2.7 0-.6-.2-1.4-.8-1.9-1 .4-2.3.6-3.3.8-.2-1.4-.2-2.7-.2-4.1V364c0-5.6 0-9.7.2-14.9l-.4-.4h-1.9c-2.3 0-3.9 0-6.2-.2-.2.8-.2 1.7-.2 2.3 1.4.2 2.9.6 4.1 1v13.8c-1.4 1.4-5 3.9-7.2 3.9-3.1 0-4.1-2.5-4.1-6.6 0-3.1 0-9.1.2-14l-.4-.4h-1.9c-2.3 0-4.1 0-6.2-.2-.2.8-.2 1.7-.2 2.3 1.4.2 2.7.6 4.1 1v13.2c-.6 6.3 2.1 9 6.8 9m-25.2-.3c5.6 0 9.9-2.9 9.9-7.6 0-8.3-13-6.6-13-11.8 0-1.9.4-3.1 4.5-3.1 1.2 0 2.3.2 3.3.4.4 1.2.6 2.7.6 3.9.8.4 1.9.4 2.7.2.6-2.1 1-4.1 1-6.4-2.5-.6-5-1-7.6-1-4.3 0-9.3 1.7-9.3 6.8 0 5.6 6.2 6 10.1 8.1 1.7.8 2.7 1.9 2.7 3.5 0 3.1-1.2 3.9-4.7 3.9-1.7 0-3.3-.2-5-.8-.2-1.7-.4-3.5-.6-5.2-.8-.4-1.7-.4-2.5 0-.6 2.5-1 5-1 7.4 3.3 1.3 6.2 2 8.9 1.7m-42.5-.4c2.1 0 4.3-.2 6.4-.2 1.9 0 6.2 0 8.3.2.2-.8.4-1.4.4-2.3-2.1-.4-4.1-.8-6.4-.8 0-1.2-.2-2.5-.2-3.9v-9.9c2.3-3.3 3.9-3.9 6-3.9h1.4c.4 1.9.6 3.7.6 5.8.8.4 1.9.4 2.7 0 .6-2.9 1-5.8 1-8.9-1.4-.4-2.9-.6-4.3-.6-3.1.2-6 2.1-7.4 4.7-.2-1.4-.4-3.1-.8-4.5l-.4-.4c-2.7.2-5.2.8-7.6 1.9 0 .6 0 1.4.2 2.1 1.4.2 2.7.4 4.1.8v14c0 1 0 1.9-.2 2.9-1.4.4-2.9.6-4.3.8.1.6.1 1.4.5 2.2m-19-20.8c1-.6 2.3-1 3.7-1 4.7 0 5.6 3.3 5.6 6.4-1.2.2-3.7.2-6.4.2h-5.2c0-1.9.9-4 2.3-5.6m3.7 21.5c3.7-.4 7.2-1.7 10.3-3.7 0-.8-.2-1.4-.8-1.9-2.7 1-5.6 1.7-8.5 1.9-5.2 0-7-5-7.2-9.3h15.9l.4-.4c.2-1 .2-2.1.2-3.1 0-4.5-2.1-9.3-9.5-9.3-6.8 0-11.6 6.8-11.6 13.2.1 7 3.2 12.3 10.8 12.6m-21.7-.3c2.9 0 5.8-1 8.3-2.5 0-.8-.2-1.7-.8-2.3-1.7.6-3.5 1-5.4 1-1.7 0-2.5-1.9-2.5-5.8v-12.4h8.1c.2-1 .2-2.1.2-3.1l-8.3-.2v-6.8c-.8-.2-1.9-.4-2.7-.2l-1.9 7c-1.4 0-2.7.2-4.1.6-.2.6-.2 1.4 0 2.1 1.4.2 2.9.4 3.9.6V366c.1 5.1 1.5 7.5 5.2 7.5m-26.6-21.2c1-.6 2.3-1 3.7-1 4.7 0 5.6 3.3 5.6 6.4-1.2.2-3.7.2-6.4.2h-5.2c0-1.9.9-4 2.3-5.6m3.7 21.2c3.7-.4 7.2-1.7 10.3-3.7 0-.8-.4-1.4-.8-1.9-2.7 1-5.6 1.7-8.5 1.9-5.2 0-7-5-7.2-9.3h15.9l.4-.4c.2-1 .2-2.1.2-3.1 0-4.5-2.1-9.3-9.5-9.3-6.8 0-11.6 6.8-11.6 13.2-.1 7.1 3.2 12.6 10.8 12.6m-29.5-21.4c1-.6 2.3-1 3.7-1 4.7 0 5.6 3.3 5.6 6.4-1.4.2-3.7.2-6.6.2h-5.2c.2-1.9 1.1-4 2.5-5.6m3.7 21.4c3.7-.4 7.2-1.7 10.3-3.7 0-.8-.4-1.4-.8-1.9-2.7 1-5.6 1.7-8.5 1.9-5.2 0-7-5-7.2-9.3H263l.4-.4c.2-1 .2-2.1.2-3.1 0-4.5-2.1-9.3-9.5-9.3-6.8 0-11.6 6.8-11.6 13.2.1 7.1 3.2 12.4 10.8 12.6m-43.8-.6c1.7 0 3.5-.2 5.2-.8l5.6-19.2.4 4.1 4.3 15.9c1.9 0 3.5-.2 5.4-.8l6.8-20.4c1-.2 2.1-.4 3.1-.8 0-.8 0-1.7-.2-2.3h-9.9c-.2.8-.4 1.4-.4 2.3l4.1.8-5.6 18.2-.4-3.7-4.7-17.5c-1.7 0-3.1.2-4.5.4l-5.8 20.9-.2-3.7-4.5-14.2 4.1-.8c.2-.8 0-1.7-.2-2.3h-11.8c-.2.8-.4 1.4-.4 2.3 1 .2 2.1.4 2.9.8l6.7 20.8zm-23.5.2c5.6 0 9.9-2.9 9.9-7.6 0-8.3-13-6.6-13-11.8 0-1.9.4-3.1 4.5-3.1 1.2 0 2.3.2 3.5.4.4 1.4.8 2.9.8 4.3.8.4 1.9.4 2.7.2.6-2.1 1-4.1 1-6.4-2.5-.6-5-1-7.6-1-4.3 0-9.3 1.7-9.3 6.8 0 5.6 6.2 6 10.1 8.1 1.7.8 2.7 1.9 2.7 3.5 0 3.1-1.2 3.9-4.7 3.9-1.7 0-3.3-.2-4.7-.8-.2-1.7-.4-3.5-.4-5.2-.8-.4-1.7-.4-2.5 0-.6 2.5-1 5-1 7.4 2.7 1 5.4 1.4 8.3 1.4m-32.7-3.2c1.2.2 2.1 1.4 2.1 2.7-.4 2.5-1.7 4.5-3.5 6.2 0 .8.6 1.4 1.2 1.7 3.7-1.7 7.4-6.2 7.4-9.9.2-2.1-1.4-3.7-3.3-3.9h-.6c-1.6-.1-3.1 1.4-3.3 3.2m-22.5 2.9c2.1 0 4.3-.2 6.4-.2 1.7 0 6.2 0 8.3.2.2-.8.4-1.4.4-2.3-2.1-.4-4.1-.8-6.2-.8 0-1.2-.2-2.5-.2-3.9V356c2.1-3.3 3.9-3.9 6-3.9h1.4c.4 1.9.6 3.7.6 5.8.8.4 1.9.4 2.7 0 .6-2.9 1-5.8 1-8.9-1.4-.4-2.9-.6-4.3-.6-3.1.2-6 2.1-7.4 4.7-.2-1.4-.6-3.1-.8-4.5l-.4-.4c-2.7.2-5.2.8-7.6 1.9 0 .6 0 1.4.2 2.1 1.4.2 2.7.4 4.1.8v14c0 1 0 1.9-.2 2.9-1.4.4-2.9.6-4.3.8-.1.6.1 1.4.3 2.2m-18.8-20.6c1-.6 2.3-1 3.7-1 4.7 0 5.6 3.3 5.6 6.4-1.4.2-3.7.2-6.6.2h-5.2c.2-2.1 1.1-4 2.5-5.6m3.7 21.2c3.7-.4 7.2-1.7 10.3-3.7 0-.8-.2-1.4-.8-1.9-2.7 1-5.6 1.7-8.5 1.9-5.2 0-7-5-7.2-9.3h15.9l.4-.4c.2-1 .2-2.1.2-3.1 0-4.5-2.1-9.3-9.5-9.3-6.8 0-11.6 6.8-11.6 13.2.1 7.1 3.2 12.4 10.8 12.6m-33.4 4.8c.2-2.1 1-3.7 2.5-5.2 2.1.4 3.9.6 6 .6 5.2 0 7 1.2 7 3.7 0 1.7-.4 3.1-1.4 4.3-2.3 1-4.5 1.7-7 1.4-5.9-.1-7.1-2.9-7.1-4.8m6.6-15.9c-3.3-.2-5.8-2.9-5.8-6.2 0-1.7.8-3.1 2.1-4.3 1-.4 2.3-.6 3.3-.6 3.3-.2 6 2.3 6.2 5.6 0 1.9-.6 3.5-2.1 4.7-1 .6-2.3.8-3.7.8m-.6 3.3c7.4 0 10.9-5 10.9-9.5 0-1.9-.6-3.7-1.7-5.2 2.3-.6 4.7-1.4 6.2-2.1 0-1.4-.8-2.7-1.9-3.5-2.3.8-4.3 2.3-6.2 3.9-1.9-1-3.7-1.4-5.8-1.2-5.4-.4-10.1 3.7-10.5 9.1v.6c-.2 3.7 2.3 7 5.8 7.6-1.4 1.2-2.3 2.9-2.5 4.7 0 .8.2 1.4.6 2.1-2.5 1.4-5.2 3.9-5.2 7.2 0 3.3 3.5 7.2 9.9 7.2 8.7 0 14.2-3.5 14.2-10.7 0-3.5-3.5-6-10.3-6-1.7.2-3.5 0-5.2-.4-.2-.4-.2-1-.2-1.4 0-.8.2-1.4.6-2.1.6-.3.9-.3 1.3-.3m-33.9 12.6c.2-2.1 1-3.7 2.5-5.2 2.1.4 3.9.6 6 .6 5.2 0 7 1.2 7 3.7 0 1.7-.4 3.1-1.4 4.3-2.3 1-4.5 1.7-7 1.4-5.9-.1-7.1-2.9-7.1-4.8m6.6-15.9c-3.3-.2-5.8-2.9-5.8-6.2 0-1.7.8-3.1 2.1-4.3 1-.4 2.3-.6 3.3-.6 3.3-.2 6 2.3 6.2 5.6 0 1.9-.8 3.5-2.1 4.7-1 .6-2.2.8-3.7.8m-.8 3.3c7.4 0 10.9-5 10.9-9.5 0-1.9-.6-3.7-1.7-5.2 2.3-.6 4.7-1.4 6.2-2.1 0-1.4-.8-2.7-1.9-3.5-2.3.8-4.3 2.3-6.2 3.9-1.9-1-3.7-1.4-5.8-1.2-5.4-.4-10.1 3.7-10.5 9.1v.6c-.2 3.7 2.3 7 5.8 7.6-1.4 1.2-2.3 2.9-2.5 4.7 0 .8.2 1.4.6 2.1-2.5 1.4-5.2 3.9-5.2 7.2s3.5 7.2 9.9 7.2c8.7 0 14.2-3.5 14.2-10.7 0-3.5-3.5-6-10.3-6-1.7.2-3.5 0-5.2-.4-.2-.4-.2-1-.2-1.4 0-.8.2-1.4.6-2.1.7-.3 1.1-.3 1.3-.3m-25.4 7.2c2.1 0 4.3-.2 6.4-.2 1.2 0 4.5 0 6 .2.2-.8.4-1.4.2-2.3-1.2-.4-2.7-.8-3.9-.8 0-1.2-.2-2.5-.2-3.9v-2.5c0-5.6 0-9.7.2-14.9l-.4-.4c-2.9.2-5.8.8-8.7 1.9 0 .6 0 1.4.2 2.1 1.4.2 2.7.4 4.1.8V370c-1.4.4-2.9.8-4.3.8 0 .7.2 1.5.4 2.1m5.6-28.9c2.1-.2 3.7-1.9 3.7-3.9-.2-1.7-1.7-2.9-3.1-2.9-2.1.2-3.5 1.9-3.7 3.9.2 1.9 1.4 2.9 3.1 2.9m-20.5 7.9c4.3 0 6.6 5 6.6 10.1 0 2.7-1 5.4-2.7 7.4-1 .6-2.1 1-3.3 1-2.7-.2-5.4-1.2-7.2-3.3v-13.2c2.1-1.2 4.4-2 6.6-2M8.9 374c1.4-.8 2.5-1.9 3.5-3.1 2.3 1.7 5 2.7 7.8 2.9 6.4 0 11.1-7 11.1-13.2 0-7.4-3.9-12.2-9.7-12.2-2.9 0-5.8 1-8.1 2.9V349c0-5.6 0-9.7.2-14.9l-.4-.4c-2.9.2-5.8.8-8.7 1.9 0 .6 0 1.4.2 2.1 1.4.2 2.7.4 4.1.8v28.9c0 2.1-.6 4.1-1.7 6 .4.1 1.1.6 1.7.6m764.7-74.4c0-1 .4-2.3 1-3.1 2.7-1.2 5.6-2.1 8.7-2.3v6c-1.7 1.4-3.5 2.5-5.8 2.7-2.9.2-3.9-1.4-3.9-3.3m1.2 7.5c3.3-.4 6.4-1.9 8.7-4.1.4 2.5 1.4 4.1 2.5 4.1 2.3-.2 4.3-1.2 6-2.7 0-.6-.2-1.4-.8-1.9-1 .4-2.3.6-3.3.8-.2-1.4-.2-2.7-.2-4.1v-9.7c0-7-5.2-8.1-8.3-8.1-3.3 0-6.6.8-9.3 2.7 0 1.9.4 3.7 1.2 5.6 1 .2 2.1.2 3.1-.4 0-1.4 0-2.7.4-4.1 1.4-.2 2.7-.4 4.1-.4 3.5 0 4.3 2.7 4.3 6.6-6.8 1.2-14.5 3.9-14.5 9.7-.2 3.1 2.1 6 5.2 6.2.3-.2.5-.2.9-.2m-30.7-.2c5.4 0 9.7-2.9 9.7-7.6 0-8.3-12.8-6.6-12.8-11.8 0-1.9.4-3.1 4.5-3.1 1.2 0 2.3.2 3.3.4.4 1.2.6 2.7.6 3.9.8.4 1.9.4 2.7.2.6-2.1 1-4.1 1-6.4-2.5-.6-5-1-7.4-1-4.3 0-9.1 1.7-9.1 6.8 0 5.6 6.2 6 9.9 8.1 1.4.6 2.7 1.9 2.7 3.5 0 3.1-1.2 3.9-4.5 3.9-1.7 0-3.3-.2-4.7-.8-.2-1.7-.4-3.5-.4-5.2-.8-.4-1.7-.4-2.5 0-.6 2.5-1 5-1 7.4 2.6 1.2 5.3 1.7 8 1.7m-15.9-37.6c1.2.2 2.1 1.2 1.9 2.5-.4 2.3-1.4 4.3-3.1 5.8 0 .6.6 1.2 1.2 1.4 3.3-1.4 7-5.8 7-9.3.2-1.9-1.2-3.5-3.1-3.7h-.4c-1.9 0-3.3 1.4-3.5 3.3m-12.6 37.8c2.9 0 5.8-.8 8.3-2.5 0-.8-.2-1.7-.8-2.3-1.7.6-3.5 1-5.2 1s-2.5-1.9-2.5-5.6v-12.4h8.1c.2-1 .2-2.1.2-3.1l-8.3-.2v-6.8c-.8-.2-1.9-.4-2.7-.2l-1.7 7c-1.4 0-2.7.2-4.1.6-.2.6 0 1.4.2 2.1 1.4.2 2.9.4 3.9.6v14.5c-.2 4.8 1.1 7.3 4.6 7.3m-23.4-.7c2.1 0 4.1-.2 6.4-.2 1.2 0 4.5 0 6 .2.2-.8.4-1.4.2-2.3-1.2-.4-2.7-.8-3.9-.8 0-1.2-.2-2.5-.2-3.9V297c0-5.8 0-9.7.2-14.9l-.4-.4c-2.9.2-5.8.8-8.5 1.9 0 .6 0 1.4.2 2.1 1.4.2 2.7.4 4.1.8v14.2c0 1 0 1.9-.2 2.9-1.4.4-2.7.8-4.1.8 0 .6 0 1.4.2 2m5.6-28.9c2.1-.2 3.5-1.9 3.7-3.9-.2-1.7-1.4-2.9-3.1-2.9-2.1.2-3.5 1.9-3.7 3.9.2 1.9 1.5 2.9 3.1 2.9M671 307.3c2.9 0 5.8-.8 8.3-2.5 0-.8-.2-1.7-.8-2.3-1.7.6-3.5 1-5.2 1-1.7 0-2.5-1.9-2.5-5.6v-12.4h8.1c.2-1 .2-2.1.2-3.1l-8.3-.2v-6.8c-.8-.2-1.9-.4-2.7-.2l-1.7 7c-1.4 0-2.7.2-4.1.6-.2.6-.2 1.4 0 2.1 1.4.2 2.9.4 3.9.6V300c-.2 4.8 1.1 7.3 4.8 7.3m-27.9 0c3.5 0 6.2-2.3 8.7-5 .4 2.5 1.4 5 2.7 5 2.3-.2 4.5-1.4 6.2-3.1 0-.6-.2-1.4-.8-1.9-1 .4-2.3.6-3.3.8-.2-1.4-.2-2.7-.2-4.1v-1.9c0-5.8 0-9.7.2-14.9l-.4-.4h-1.9c-2.3 0-3.9 0-6-.2-.2.8-.2 1.7-.2 2.3 1.4.2 2.9.6 4.1 1v13.8c-1.4 1.4-5 3.9-7 3.9-3.1 0-4.1-2.5-4.1-6.6v-14l-.4-.4h-1.9c-2.3 0-3.9 0-6.2-.2-.2.8-.2 1.7-.2 2.3 1.4.2 2.7.6 4.1 1V298c0 5.8 2.5 8.5 7.2 8.5m-26.8-16.8c4.3 0 7.8 2.7 7.8 6.4.2 2.3-.6 4.3-2.3 5.8-1.9.8-3.9 1.2-6.2 1h-5v-13.2h5.7zm-.6-14.8c3.1 0 5.8 2.7 5.8 5.8v.2c0 2.9-2.1 5.6-6.8 5.6h-3.9v-11.4c1.6 0 3.4-.2 4.9-.2m.8 31.3c8.7 0 12.4-6 12.4-11.6 0-3.7-2.5-7-7.8-7.8 3.1-1.2 5.2-4.1 5.2-7.6 0-4.3-3.7-7.8-8.1-7.8h-.4c-2.5 0-5.8.2-9.5.2h-6.6c-.2.8-.4 1.7-.4 2.5 1.7.2 3.1.4 4.5 1 .2 1.9.2 4.1.2 7v15.3c0 1.9 0 3.5-.2 5.4-1.4.4-3.1.8-4.5 1 0 .8.2 1.7.4 2.5 2.3 0 4.3-.2 6.6-.2 3 .1 5.5.3 8.2.1m-38.6-2.8c0 2.1 1.7 3.7 3.7 3.7s3.7-1.7 3.7-3.7c-.2-2.1-2.1-3.5-3.9-3.3-2.1.4-3.3 1.6-3.5 3.3m-19.6-17.8c1-.6 2.3-1 3.5-1 4.7 0 5.4 3.3 5.4 6.4-1.2.2-3.7.2-6.4.2h-5.2c.4-1.9 1.2-4 2.7-5.6m3.7 21.3c3.7-.4 7.2-1.7 10.1-3.7 0-.8-.2-1.4-.8-1.9-2.7 1-5.6 1.7-8.3 1.9-5.2 0-6.8-5-7.2-9.3h6.2c3.9 0 7.4 0 9.5.2l.4-.4c.2-1 .2-2.1.2-3.1 0-4.5-2.1-9.3-9.3-9.3-6.6 0-11.4 6.8-11.4 13.2-.2 7 3.1 12.4 10.6 12.4m-55.8-.7c2.1 0 4.1-.2 6.4-.2 1.2 0 4.5 0 6 .2.2-.8.4-1.4.2-2.3-1.2-.4-2.7-.8-3.9-.8-.2-1.2-.2-2.5-.2-3.9V287c1.7-1.2 3.7-1.9 5.8-2.1 4.1 0 4.5 2.9 4.5 6.6v8.7c0 1 0 1.9-.2 2.9-1.2.4-2.5.6-3.7.8 0 .8.2 1.7.4 2.3 1.4 0 3.7-.2 5.8-.2 1.2 0 3.9 0 5.4.2.2-.8.2-1.4.2-2.3-1-.4-2.3-.8-3.5-.8v-13.6c0-.8 0-1.7-.2-2.5 1.9-1.2 3.9-2.1 6.2-2.3 4.1 0 4.5 2.9 4.5 6.6v8.7c0 1 0 1.9-.2 2.9-1.4.4-2.7.8-4.1.8 0 .8 0 1.7.4 2.3 2.1 0 4.1-.2 6.4-.2 1.2 0 4.5 0 5.8.2.2-.8.4-1.4.4-2.3-1.2-.4-2.7-.8-3.9-.8 0-1.2-.2-2.5-.2-3.9v-9.7c0-5.8-2.5-8.3-7-8.3-3.3.2-6.4 1.7-8.5 3.9-.8-2.7-3.5-4.3-6.4-3.9-3.1.2-5.8 1.4-8.1 3.5-.2-1.2-.4-2.3-.6-2.9l-.4-.4c-2.5.2-5.2.8-7.4 1.9 0 .6 0 1.4.2 2.1 1.4.2 2.7.4 4.1.8v14c0 1 0 1.9-.2 2.9-1.4.4-2.7.8-4.1.8-.1.9-.1 1.7.1 2.5m-22.3-6.6c0-1 .4-2.3 1-3.1 2.7-1.2 5.6-2.1 8.7-2.3v6c-1.7 1.4-3.5 2.5-5.8 2.7-2.6.2-3.9-1.4-3.9-3.3m1.3 7.5c3.3-.4 6.4-1.9 8.7-4.1.6 2.5 1.4 4.1 2.5 4.1 2.3-.2 4.3-1.2 6-2.7 0-.6-.2-1.4-.8-1.9-1 .4-2.3.6-3.3.8-.2-1.4-.2-2.7-.2-4.1v-9.7c0-7-5.2-8.1-8.3-8.1-3.3 0-6.6 1-9.3 2.7 0 1.9.4 3.7 1.2 5.6 1 .2 2.1.2 3.1-.4 0-1.4 0-2.7.4-4.1 1.4-.2 2.7-.4 4.1-.4 3.5 0 4.3 2.7 4.3 6.6-6.8 1.2-14.5 3.9-14.5 9.7-.2 3.1 2.1 6 5.2 6.2.3-.2.5-.2.9-.2m-29.3 4.7c.2-2.1 1-3.7 2.5-5.2 1.9.4 3.9.6 6 .6 5 0 6.8 1.2 6.8 3.7 0 1.7-.4 3.1-1.4 4.3-2.1 1-4.5 1.7-7 1.4-5.7 0-6.9-2.9-6.9-4.8m6.6-15.9c-3.1 0-5.8-2.7-5.8-5.8v-.4c0-1.7.8-3.3 2.1-4.3 1-.4 2.3-.6 3.3-.6 3.3-.2 6 2.5 6 5.8 0 1.9-.6 3.5-2.1 4.7-1.1.4-2.3.6-3.5.6m-.9 3.3c7.4 0 10.7-5 10.7-9.5 0-1.9-.6-3.7-1.7-5.2 2.1-.6 4.5-1.4 6-2.1 0-1.4-.8-2.7-1.9-3.5-2.3.8-4.3 2.3-6.2 3.9-1.7-1-3.7-1.4-5.8-1.2-5.4-.4-9.9 3.7-10.3 9.1v.4c-.4 3.7 2.3 7 5.8 7.6-1.4 1.2-2.3 2.9-2.5 4.7 0 .8.2 1.4.6 2.1-2.9 1.2-4.7 4.1-5.2 7.2 0 3.5 3.5 7.2 9.9 7.2 8.7 0 14.2-3.5 14.2-10.7 0-3.5-3.3-6-10.3-6-1.7 0-3.3 0-5-.4-.2-.4-.2-1-.2-1.4 0-.8.2-1.4.6-2.1.5-.1.9-.1 1.3-.1m-38.4-13.6c1-.6 2.3-1 3.5-1 4.7 0 5.4 3.3 5.4 6.4-1.2.2-3.7.2-6.4.2h-5.2c.5-1.9 1.3-4 2.7-5.6m3.6 21.3c3.7-.4 7.2-1.7 10.1-3.7 0-.8-.2-1.4-.8-1.9-2.7 1-5.6 1.7-8.5 1.9-5.2 0-6.8-5-7.2-9.3h6.2c3.9 0 7.4 0 9.5.2l.4-.4c.2-1 .2-2.1.2-3.1 0-4.5-2.1-9.3-9.3-9.3-6.6 0-11.4 6.8-11.4 13.2.2 7 3.3 12.4 10.8 12.4m-41.7-.7c2.1 0 4.1-.2 6.4-.2 1.2 0 4.5 0 6 .2.2-.8.4-1.4.2-2.3-1.2-.4-2.7-.8-3.9-.8 0-1.2-.2-2.5-.2-3.9v-12.8c2.1-1 4.3-1.4 6.6-1.4 4.1 0 4.7 2.9 4.7 6.6v8.7c0 1 0 1.9-.2 2.9-1.4.4-2.9.8-4.3.8 0 .8.2 1.7.4 2.3 2.1 0 4.1-.2 6.4-.2 1.2 0 4.5 0 6 .2.2-.8.4-1.4.4-2.3-1.2-.4-2.7-.8-3.9-.8-.2-1.2-.2-2.5-.2-3.9v-9.7c0-5.8-2.7-8.3-7.2-8.3-3.1 0-6 1-8.7 2.7v-1.9c0-5.6 0-9.7.2-14.9l-.4-.4c-2.9.2-5.8.8-8.5 1.9 0 .6 0 1.4.2 2.1 1.4.2 2.7.4 4.1.8v28.7c0 1 0 1.9-.2 2.9-1.4.4-2.7.8-4.1.8-.3.8-.1 1.6.2 2.2m-11.6.9c2.9 0 5.8-1 8.1-2.5 0-.8-.2-1.7-.8-2.3-1.7.6-3.5 1-5.2 1-1.7 0-2.5-1.9-2.5-5.6v-12.4h8.1c.2-1 .2-2.1.2-3.1l-8.3-.2v-6.8c-.8-.2-1.9-.4-2.7-.2l-1.7 7c-1.4 0-2.7.2-4.1.6-.2.6-.2 1.4.2 2.1 1.4.2 2.9.4 3.9.6v14.5c0 4.6 1.3 7.3 4.8 7.3m-50-.9c2.1 0 4.1-.2 6.4-.2 1.2 0 4.5 0 6 .2.2-.8.4-1.4.4-2.3-1.2-.4-2.7-.8-3.9-.8-.2-1.2-.2-2.5-.2-3.9v-12c1.9-1.4 4.1-2.3 6.6-2.3 4.1 0 4.7 2.9 4.7 6.6v8.7c0 1 0 1.9-.2 2.9-1.4.4-2.7.8-4.1.8 0 .8.2 1.7.2 2.3 2.1 0 4.3-.2 6.4-.2 1.2 0 4.5 0 5.8.2.2-.8.4-1.4.4-2.3-1.2-.4-2.7-.8-3.9-.8-.2-1.2-.2-2.5-.2-3.9v-9.7c0-5.8-2.7-8.3-7.2-8.3-3.3.2-6.4 1.4-8.9 3.5-.2-1-.4-2.3-.6-2.9l-.4-.4c-2.5.2-5.2.8-7.4 1.9 0 .6 0 1.4.2 2.1 1.4.2 2.7.4 4.1.8v14c0 1 0 1.9-.2 2.9-1.4.4-2.7.8-4.1.8-.1.9-.1 1.7.1 2.3m-16.7 0c2.1 0 4.1-.2 6.4-.2 1.2 0 4.5 0 6 .2.2-.8.4-1.4.2-2.3-1.2-.4-2.7-.8-3.9-.8 0-1.2-.2-2.5-.2-3.9v-2.5c0-5.8 0-9.7.2-14.9l-.4-.4c-2.9.2-5.8.8-8.5 1.9 0 .6 0 1.4.2 2.1 1.4.2 2.7.4 4.1.8v14.2c0 1 0 1.9-.2 2.9-1.4.4-2.7.8-4.1.8-.2.7 0 1.5.2 2.1m5.6-28.9c2.1-.2 3.7-1.9 3.7-3.9-.2-1.7-1.4-2.9-3.1-2.9-2.1.2-3.5 1.9-3.7 3.9 0 1.9 1.4 2.9 3.1 2.9m-46.5 28.9c2.1 0 4.1-.2 6.4-.2 1.2 0 4.5 0 6 .2.2-.8.4-1.4.2-2.3-1.2-.4-2.7-.8-3.9-.8 0-1.2-.2-2.5-.2-3.9v-3.7l3.9-1c2.1 6.2 5.4 12.4 9.1 12.4 2.3 0 4.5-.4 6.6-1.2.2-.8 0-1.4-.6-2.1-.6.2-1 .2-1.7.2-1.7 0-3.3-.8-4.3-2.3-2.3-2.9-4.1-6-5.8-9.1l6.8-7c1.2-.2 2.5-.6 3.5-1 0-.8 0-1.4-.2-2.3h-10.7c-.2.8-.4 1.4-.4 2.3l3.3.8-4.7 5.8-4.3 1.9v-10.5c0-5.6 0-9.7.2-14.9l-.4-.4c-2.9.2-5.8.8-8.5 1.9 0 .6 0 1.4.2 2.1 1.4.2 2.7.4 4.1.8v28.7c0 1 0 1.9-.2 2.9-1.4.4-2.7.8-4.1.8-.7.5-.5 1.3-.3 1.9m-13.6.9c3.5-.2 6.8-1.4 9.7-3.5 0-.8-.4-1.4-.8-1.9-2.5 1-5.2 1.7-7.8 1.9-5.6 0-7.2-6-7.2-10.1 0-2.7.8-5.2 2.7-7.2 1.2-.6 2.7-1 4.3-1 1.2 0 2.7 0 3.9.2.2 1.4.4 2.9.4 4.3 1 .6 2.1.6 3.1.2.8-2.1 1.2-4.3 1-6.6-2.7-1-5.4-1.4-8.3-1.4-7 0-11.6 6.8-11.6 13 .1 6.5 3.2 12.1 10.6 12.1m-32.2-7.5c0-1 .4-2.3 1-3.1 2.7-1.2 5.6-2.1 8.7-2.3v6c-1.7 1.4-3.5 2.5-5.8 2.7-2.7.2-3.9-1.4-3.9-3.3m1.2 7.5c3.3-.4 6.4-1.9 8.7-4.1.6 2.5 1.4 4.1 2.5 4.1 2.3-.2 4.3-1.2 6-2.7 0-.6-.2-1.4-.8-1.9-1 .4-2.3.6-3.3.8-.2-1.4-.2-2.7-.2-4.1v-9.7c0-7-5.2-8.1-8.3-8.1-3.3 0-6.6 1-9.3 2.7 0 1.9.4 3.7 1.2 5.6 1 .2 2.1.2 3.1-.4 0-1.4 0-2.7.4-4.1 1.4-.2 2.7-.4 4.1-.4 3.5 0 4.3 2.7 4.3 6.6-6.8 1.2-14.5 3.9-14.5 9.7-.2 3.1 2.1 6 5.2 6.2.3-.2.7-.2.9-.2m-20.8-21.9c4.3 0 6.6 5 6.6 10.1 0 2.7-.8 5.4-2.7 7.4-1 .6-2.1 1-3.3 1-2.7-.2-5.2-1.2-7.2-3.1v-13.4c1.8-1.2 4.1-2 6.6-2m-11.4 22.1c1.2-.8 2.5-1.9 3.3-3.1 2.3 1.7 5 2.7 7.8 2.9 6.4 0 10.9-7 10.9-13.2 0-7.4-3.9-12.2-9.5-12.2-2.9 0-5.8 1-8.1 2.9v-2.5c0-5.6 0-9.7.2-14.9l-.4-.4c-2.9.2-5.8.8-8.7 1.9 0 .6 0 1.4.2 2.1 1.4.2 2.7.4 4.1.8v28.7c0 2.1-.6 4.1-1.7 6 .7.6 1.3 1 1.9 1m-27-.4c5.4 0 9.7-2.9 9.7-7.6 0-8.3-12.8-6.6-12.8-11.8 0-1.9.4-3.1 4.5-3.1 1.2 0 2.3.2 3.3.4.4 1.2.6 2.7.6 3.9.8.4 1.9.4 2.7.2.6-2.1.8-4.1.8-6.4-2.5-.6-5-1-7.4-1-4.3 0-9.1 1.7-9.1 6.8 0 5.6 6 6 9.9 8.1 1.4.6 2.7 1.9 2.7 3.5 0 3.1-1.2 3.9-4.5 3.9-1.7 0-3.3-.2-4.7-.8-.2-1.7-.4-3.5-.4-5.2-.8-.4-1.7-.4-2.5 0-.6 2.5-1 5-1 7.4 2.6 1.2 5.5 1.7 8.2 1.7m-26.6-21.3c1-.6 2.3-1 3.5-1 4.7 0 5.6 3.3 5.6 6.4-1.2.2-3.7.2-6.4.2h-5.2c.2-1.9 1-4 2.5-5.6m3.5 21.3c3.7-.4 7.2-1.7 10.1-3.7 0-.8-.4-1.4-.8-1.9-2.7 1-5.4 1.7-8.3 1.9-5.2 0-6.8-5-7.2-9.3h6.2c3.9 0 7.4 0 9.5.2l.4-.4c.2-1 .2-2.1.2-3.1 0-4.5-2.1-9.3-9.3-9.3-6.6 0-11.4 6.8-11.4 13.2.2 7 3.3 12.4 10.6 12.4M104.7 293c0-2.7.8-5.2 2.7-7.2 1-.6 2.3-1 3.7-1 2.3 0 4.3.6 6.4 1.2v13.2c-2.1 1.9-5 3.9-6.6 3.9-4.2 0-6.2-4.9-6.2-10.1m4.7 13.9c2.9 0 5.8-2.3 7.8-4.7.4 2.3 1.4 4.7 2.7 4.7 2.3-.2 4.3-1.2 5.8-2.7 0-.6-.2-1.4-.8-1.9-1 .4-2.3.6-3.3.8-.2-1.4-.2-2.7-.2-4.1v-17.1c0-5.6 0-9.7.2-14.9l-.4-.4c-3.1.2-6.2.8-9.3 1.9 0 .6 0 1.4.2 2.1 1.7.2 3.1.4 4.7.8v11.8c-1.9-1-3.7-1.7-5.8-1.9-5.8 0-11.4 5.8-11.4 13 .3 7.2 3.4 12.8 9.8 12.6m-27.6-21.3c1-.6 2.3-1 3.5-1 4.7 0 5.6 3.3 5.6 6.4-1.2.2-3.7.2-6.4.2h-5.2c.2-1.9 1-4 2.5-5.6m3.5 21.3c3.7-.4 7.2-1.7 10.1-3.7 0-.8-.2-1.4-.8-1.9-2.7 1-5.4 1.7-8.3 1.9-5.2 0-6.8-5-7.2-9.3h6.2c3.9 0 7.4 0 9.5.2l.4-.4c.2-1 .2-2.1.2-3.1 0-4.5-2.1-9.3-9.3-9.3-6.6 0-11.4 6.8-11.4 13.2 0 7 3.1 12.4 10.6 12.4m-43.2-.5c1.7 0 3.5-.2 5.2-.8l5.4-19.2.2 4.1 4.3 15.9c1.9 0 3.5-.2 5.2-.8l6.8-20.4c1-.2 2.1-.4 2.9-.8 0-.8 0-1.7-.2-2.3H62c-.2.8-.4 1.4-.4 2.3l4.1.8-5.8 18-.2-3.7L55 282c-1.4 0-3.1.2-4.5.4l-5.8 20.9-.2-3.7-4.5-14.2 4.1-.8c.2-.8 0-1.7-.2-2.3H32.8c-.2.8-.4 1.4-.4 2.3 1 .2 2.1.4 2.9.8l6.8 21zm-24.3.5c6.2.4 11.6-4.3 12-10.7v-.8c0-5-4.1-7.4-8.3-8.9l-4.5-1.7c-2.5-.8-5.6-2.9-5.6-5.8 0-1.4.4-2.7 1.4-3.7 1.7-.6 3.3-.8 5-.8 2.1 0 4.1.2 6 .6.4 1.7.6 3.3.8 5 .8.4 1.9.4 2.7.2.8-2.5 1-5.2 1.2-7.8-3.3-1.2-6.6-1.9-10.1-1.9-5.4 0-12 2.5-12 9.7 0 5.2 5 7.4 8.9 8.9l3.9 1.4c2.7 1 5.4 2.9 5.4 5.6.2 1.9-.4 3.9-1.9 5.4-1.4.8-3.3 1.2-5 1.2-2.5 0-4.7-.2-7-.8-.4-2.1-.6-4.1-.6-6.4-.8-.4-1.9-.4-2.7-.2-.8 2.9-1.2 5.8-1.2 8.9 3.5 1.9 7.4 2.8 11.6 2.6m758.7-87.8c1-.6 2.3-1 3.5-1 4.5 0 5.4 3.3 5.4 6.6-1.2 0-3.5.2-6.4.2h-5.2c.4-2.3 1.2-4.1 2.7-5.8m3.5 21.3c3.5-.4 7-1.7 10.1-3.7 0-.8-.4-1.4-.8-1.9-2.7 1-5.4 1.7-8.3 1.9-5.2 0-6.8-5-7-9.3h15.5l.4-.4c.2-1 .2-2.1.2-3.1 0-4.5-2.1-9.3-9.3-9.3-6.6 0-11.1 6.8-11.1 13.2-.3 7 2.8 12.4 10.3 12.6m-24.4-.2c5.4 0 9.5-2.7 9.5-7.6 0-8.3-12.6-6.6-12.6-11.8 0-1.9.4-3.1 4.5-3.1 1 0 2.3.2 3.3.4.4 1.2.6 2.7.6 3.9.8.2 1.9.2 2.7 0 .6-2.1.8-4.1 1-6.4-2.5-.6-5-1-7.4-1-4.1 0-9.1 1.7-9.1 6.8 0 5.6 6 6 9.9 8.1 1.4.6 2.5 2.1 2.7 3.5 0 3.1-1.2 3.7-4.5 3.7-1.7 0-3.3-.2-4.7-.6-.2-1.7-.4-3.5-.4-5.2-.8-.4-1.7-.4-2.5 0-.6 2.5-.8 5-1 7.6 2.6 1.1 5.3 1.7 8 1.7m-26.4-21.1c1-.6 2.3-1 3.5-1 4.5 0 5.4 3.3 5.4 6.6-1.2 0-3.5.2-6.4.2h-5c.2-2.3 1-4.1 2.5-5.8m3.7 21.3c3.5-.4 7-1.7 10.1-3.7 0-.8-.4-1.4-.8-1.9-2.7 1-5.4 1.7-8.3 1.9-5.2 0-6.8-5-7-9.3h15.5l.4-.4c.2-1 .2-2.1.2-3.1 0-4.5-2.1-9.3-9.3-9.3-6.6 0-11.1 6.8-11.1 13.2-.2 7 2.9 12.4 10.3 12.6m-41.3-.6h12c.2-.8.4-1.4.2-2.3-1.2-.4-2.5-.8-3.9-.8 0-1.2-.2-2.5-.2-3.9V220c2.1-1 4.3-1.4 6.6-1.4 4.1 0 4.7 2.9 4.7 6.6v8.5c0 1 0 1.9-.2 2.9-1.4.4-2.7.8-4.1.8 0 .8.2 1.7.4 2.3h12c.2-.8.4-1.4.4-2.3-1.2-.4-2.7-.8-3.9-.8 0-1.2-.2-2.5-.2-3.9V223c0-5.8-2.5-8.3-7.2-8.3-3.1 0-6 1-8.5 2.7v-2.1c0-5.6 0-9.7.2-14.9l-.4-.4c-2.9.2-5.8.8-8.5 1.9 0 .6 0 1.4.2 2.1 1.4.2 2.7.4 4.1.8v28.9c0 1 0 1.9-.2 2.9-1.4.4-2.7.8-4.1.8l.6 2.4m-11.1.6c2.9 0 5.6-1 8.1-2.5 0-.8-.2-1.9-1-2.5-1.7.6-3.3 1-5.2 1-1.7 0-2.5-1.9-2.5-5.6v-12.4h7.8c.2-1 .2-2.1.2-3.1h-8.1v-6.8c-.8-.2-1.7-.4-2.7-.4l-1.7 7c-1.4 0-2.7.2-3.9.6-.2.6 0 1.4 0 2.1 1.2.2 2.9.4 3.9.6V233c.1 4.9 1.3 7.6 5.1 7.4m-36.4-21.3c1-.6 2.3-1 3.5-1 4.5 0 5.4 3.3 5.4 6.6-1.2 0-3.5.2-6.4.2h-5.2c.5-2.3 1.3-4.1 2.7-5.8m3.5 21.3c3.5-.4 7-1.7 10.1-3.7 0-.8-.4-1.4-.8-1.9-2.7 1-5.4 1.7-8.3 1.9-5.2 0-6.8-5-7-9.3h15.5l.4-.4c.2-1 .2-2.1.2-3.1 0-4.5-2.1-9.3-9.3-9.3-6.6 0-11.1 6.8-11.1 13.2-.2 7 2.9 12.4 10.3 12.6m-28-.6c1.7 0 3.3-.2 4.7-.6l7.6-20.6c1-.2 2.1-.4 2.9-.8 0-.8 0-1.7-.2-2.3h-9.9c-.2.8-.4 1.4-.4 2.3l3.9.8-6.4 18-.2-3.7-5.2-14.2 3.9-.8c.2-.8 0-1.7-.2-2.3h-10.9c-.2.8-.4 1.4-.4 2.3 1 .2 2.1.4 2.9.8l7.9 21.1zm-29.4-7.1c0-1 .4-2.3 1-3.1 2.7-1.2 5.6-1.9 8.5-2.1v6c-1.7 1.4-3.5 2.5-5.6 2.7-1.9.2-3.5-1-3.9-2.9 0 .1-.2-.1 0-.6m1.3 7.7c3.3-.4 6.2-1.9 8.5-4.1.6 2.5 1.4 4.1 2.5 4.1 2.3-.2 4.3-1.2 6-2.7 0-.6-.2-1.4-.8-1.9-1 .4-2.3.6-3.3.8-.2-1.4-.2-2.7-.2-4.1v-9.7c0-7-5.2-8.1-8.3-8.1-3.3 0-6.4.8-9.3 2.7 0 1.9.4 3.7 1.2 5.6 1 .2 2.1.2 3.1-.4 0-1.4 0-2.7.4-4.1 1.4-.2 2.7-.4 4.1-.4 3.5 0 4.3 2.7 4.3 6.6-6.6 1.2-14.2 3.9-14.2 9.7-.4 3.1 1.9 5.8 5 6.2.4-.2.6-.2 1-.2m-37.6-.6h12c.2-.8.4-1.4.2-2.3-1.2-.4-2.5-.8-3.9-.8 0-1.2-.2-2.5-.2-3.9V220c2.1-1 4.3-1.4 6.6-1.4 4.1 0 4.7 2.9 4.7 6.6v8.5c0 1 0 1.9-.2 2.9-1.4.4-2.7.8-4.1.8 0 .8.2 1.7.4 2.3h12c.2-.8.4-1.4.4-2.3-1.2-.4-2.7-.8-3.9-.8 0-1.2-.2-2.5-.2-3.9V223c0-5.8-2.5-8.3-7.2-8.3-3.1 0-6 1-8.5 2.7v-2.1c0-5.6 0-9.7.2-14.9l-.4-.4c-2.9.2-5.8.8-8.5 1.9 0 .6 0 1.4.2 2.1 1.4.2 2.7.4 4.1.8v28.9c0 1 0 1.9-.2 2.9-1.4.4-2.7.8-4.1.8l.6 2.4m-24.6-2.9c-5.6 0-7.4-6-7.4-10.3 0-2.7.8-5.4 2.5-7.4 1-.6 2.3-1 3.5-1 5.6 0 7.4 6 7.4 10.3 0 2.7-.8 5.4-2.7 7.4-.6.6-1.8 1-3.3 1m-.8 3.5c7.2 0 11.6-7 11.6-13.2 0-7-3.3-12.4-10.9-12.4s-11.6 7-11.6 13.2c0 7.2 3.5 12.4 10.9 12.4m-21.5 0c2.9 0 5.6-1 8.1-2.5 0-.8-.2-1.7-.8-2.3-1.7.6-3.3 1-5.2 1-1.7 0-2.5-1.9-2.5-5.6v-12.4h7.8c.2-1 .2-2.1.2-3.1h-8.1v-6.8c-.8-.2-1.7-.4-2.7-.4l-1.7 7c-1.4 0-2.7.2-3.9.6-.2.6-.2 1.4 0 2.1 1.4.2 2.9.4 3.9.6v14.5c0 4.8 1.2 7.5 4.9 7.3m-36.3-21.3c1-.6 2.3-1 3.5-1 4.5 0 5.4 3.3 5.4 6.6-1.2 0-3.5.2-6.4.2H468c.4-2.3 1.3-4.1 2.7-5.8m3.5 21.3c3.5-.4 7-1.7 9.9-3.7 0-.6-.2-1.4-.8-1.9-2.7 1-5.4 1.7-8.3 1.9-5.2 0-6.8-5-7-9.3h15.5l.4-.4c.2-1 .2-2.1.2-3.1 0-4.5-2.1-9.3-9.3-9.3-6.6 0-11.1 6.8-11.1 13.2 0 7 3.1 12.4 10.5 12.6m-24.3-.4c5.4 0 9.5-2.7 9.5-7.6 0-8.3-12.6-6.6-12.6-11.8 0-1.9.4-3.1 4.5-3.1 1 0 2.3.2 3.3.4.4 1.2.6 2.7.6 3.9.8.2 1.9.2 2.7 0 .6-2.1.8-4.1.8-6.4-2.5-.6-5-1-7.4-1-4.1 0-9.1 1.7-9.1 6.8 0 5.6 6 6 9.9 8.1 1.4.6 2.7 2.1 2.7 3.5 0 3.1-1.2 3.7-4.5 3.7-1.7 0-3.3-.2-4.7-.6-.2-1.7-.4-3.5-.4-5.2-.8-.4-1.7-.4-2.5 0-.6 2.5-.8 5-.8 7.6 2.4 1.3 5.3 1.7 8 1.7m-24.6-.2h12c.2-.8.4-1.4.2-2.3-1.2-.4-2.5-.8-3.9-.8 0-1.2-.2-2.5-.2-3.9v-2.5c0-5.8 0-9.7.2-14.9l-.4-.4c-2.9.2-5.8.8-8.5 1.9 0 .6 0 1.4.2 2.1 1.4.2 2.7.4 4.1.8v14c0 1 0 1.9-.2 2.9-1.4.4-2.7.8-4.1.8.2.6.4 1.4.6 2.3m5.4-28.9c2.1-.2 3.5-1.9 3.5-3.9-.2-1.7-1.4-2.9-3.1-2.9-2.1.2-3.5 2.1-3.5 3.9.2 1.6 1.4 2.9 3.1 2.9m-28.9 28.9H416c.2-.8.4-1.4.2-2.3-2.1-.6-4.1-.8-6.2-.8-.2-1.2-.2-2.5-.2-3.9v-9.9c2.1-3.5 3.9-4.1 5.8-4.1.4 0 .8 0 1.2.2.4 1.9.6 3.7.6 5.8.8.4 1.9.4 2.7 0 .6-2.9 1-5.8.8-8.9-1.2-.4-2.7-.6-4.1-.6-3.1.2-5.8 2.1-7.2 4.7-.2-1.4-.4-3.1-.8-4.5l-.4-.4c-2.5.2-5 .8-7.4 1.9 0 .6 0 1.4.2 2.1 1.4.2 2.7.4 4.1.8v14c0 1 0 1.9-.2 2.9-1.4.4-2.7.8-4.1.8.3.5.5 1.3.8 2.2m-14.5-21.7c4.3 0 6.4 5 6.4 10.1 0 2.7-.8 5.4-2.5 7.4-1 .6-2.1 1-3.3 1-2.7 0-5.2-1.2-7-3.3v-13c1.9-1.2 4.1-2 6.4-2.2m-14.9 34.3h14.2c.2-.8.4-1.4.2-2.3-2.1-.6-4.1-.8-6.2-.8 0-1.2-.2-2.5-.2-3.9v-7.6c1.9 1.4 4.1 2.3 6.4 2.5 6.2 0 10.7-7 10.7-13.2 0-7.4-3.9-12.2-9.5-12.2-3.1 0-6 1.2-8.3 3.3-.2-.8-.4-1.9-.6-2.7l-.4-.4c-2.5.2-5 .8-7.4 1.9 0 .6 0 1.4.2 2.1 1.4.2 2.7.4 4.1.8v27c0 1 0 1.9-.2 2.9-1.2.4-2.7.8-4.1.8.7.5.7 1.1 1.1 1.8m-23.1-12.6h14.2c.2-.8.4-1.4.2-2.3-2.1-.6-4.1-.8-6.2-.8 0-1.2-.2-2.5-.2-3.9v-9.9c2.1-3.5 3.9-4.1 5.8-4.1.4 0 .8 0 1.2.2.4 1.9.6 3.7.6 5.8.8.2 1.9.2 2.7 0 .6-2.9 1-5.8.8-8.9-1.2-.4-2.7-.6-4.1-.6-3.1.2-5.8 2.1-7.2 4.7-.2-1.4-.4-3.1-.8-4.5l-.4-.4c-2.5.2-5 .8-7.4 1.9 0 .6 0 1.4.2 2.1 1.4.2 2.7.4 4.1.8v14c0 1 0 1.9-.2 2.9-1.4.4-2.7.8-4.1.8.4.5.6 1.3.8 2.2m-21 .4c3.5 0 6-2.3 8.5-5 .4 2.5 1.2 5 2.5 5 2.3-.2 4.3-1.2 6-2.7 0-.6-.2-1.4-.8-1.9-1 .4-2.3.6-3.3.8-.2-1.4-.2-2.7-.2-4.1v-1.9c0-5.8 0-9.7.2-14.9l-.4-.4H333c-.2.8-.2 1.7-.2 2.3 1.4.2 2.9.6 4.1 1v13.8c-1.4 1.4-4.7 4.1-7 4.1-2.9 0-4.1-2.5-4.1-6.6 0-3.1 0-9.1.2-14l-.4-.4h-7.8c-.2.8-.2 1.7-.2 2.3 1.4.2 2.9.6 4.1 1v13.2c-.3 5.9 2.2 8.6 6.6 8.4m-24.2.2c5.4 0 9.5-2.7 9.5-7.6 0-8.3-12.6-6.6-12.6-11.8 0-1.9.4-3.1 4.5-3.1 1 0 2.3.2 3.3.4.4 1.2.6 2.7.6 3.9.8.2 1.9.2 2.7 0 .6-2.1.8-4.1.8-6.4-2.5-.6-5-1-7.6-1-4.1 0-9.1 1.7-9.1 6.8 0 5.6 6 6 9.9 8.1 1.4.6 2.5 2.1 2.7 3.5 0 3.1-1.2 3.7-4.5 3.7-1.7 0-3.3-.2-4.7-.6-.2-1.7-.4-3.5-.4-5.2-.8-.4-1.7-.4-2.5 0-.6 2.5-.8 5-.8 7.6 2.6 1.1 5.3 1.7 8.2 1.7m-39.8-7.4c0-1 .4-2.3 1-3.1 2.7-1.2 5.6-1.9 8.5-2.1v6c-1.7 1.4-3.5 2.5-5.6 2.7-1.9.2-3.5-1-3.9-2.9v-.6m1.2 7.4c3.3-.4 6.2-1.9 8.5-4.1.4 2.5 1.4 4.1 2.5 4.1 2.3-.2 4.3-1.2 6-2.7 0-.6-.2-1.4-.8-1.9-1 .4-2.3.6-3.3.8-.2-1.4-.2-2.7-.2-4.1v-9.7c0-7-5.2-8.1-8.3-8.1-3.3 0-6.4 1-9.3 2.7 0 1.9.4 3.7 1.2 5.6 1 .2 2.1.2 3.1-.4 0-1.4 0-2.7.4-4.1 1.4-.2 2.7-.4 4.1-.4 3.5 0 4.3 2.7 4.3 6.6-6.6 1.2-14.2 3.9-14.2 9.7-.4 3.1 1.9 5.8 5 6.2.4-.2.6-.2 1-.2m-30.1 0c5.4 0 9.7-2.7 9.7-7.6 0-8.3-12.6-6.6-12.6-11.8 0-1.9.4-3.1 4.5-3.1 1 0 2.3.2 3.3.4.4 1.2.6 2.7.6 3.9.8.2 1.9.2 2.7 0 .6-2.1.8-4.1.8-6.4-2.5-.6-5-1-7.4-1-4.1 0-9.1 1.7-9.1 6.8 0 5.6 6 6 9.9 8.1 1.4.6 2.7 2.1 2.7 3.5 0 3.1-1.2 3.7-4.5 3.7-1.7 0-3.3-.2-4.7-.6-.2-1.7-.4-3.5-.4-5.2-.8-.4-1.7-.4-2.5 0-.6 2.5-.8 5-.8 7.6 2.4 1.1 5.1 1.5 7.8 1.7m-15.5-37.8c1.2.2 2.1 1.2 1.9 2.5-.4 2.3-1.4 4.3-3.1 5.8 0 .6.6 1.2 1.2 1.4 3.3-1.4 6.8-5.8 6.8-9.3.2-1.9-1.2-3.5-2.9-3.7h-.4c-1.9 0-3.3 1.4-3.5 3.3m-12.4 37.8c2.9 0 5.6-1 8.1-2.5 0-.8-.2-1.9-.8-2.5-1.7.6-3.3 1-5.2 1-1.7 0-2.5-1.9-2.5-5.6v-12.4h7.8c.2-1 .2-2.1.2-3.1H207v-6.8c-.8-.2-1.7-.4-2.7-.4l-1.7 7c-1.4 0-2.7.2-3.9.6-.2.6-.2 1.4 0 2.1 1.4.2 2.9.4 3.9.6V233c.1 4.9 1.4 7.6 4.9 7.4m-22.7-.6h12c.2-.8.4-1.4.4-2.3-1.2-.4-2.5-.8-3.9-.8 0-1.2-.2-2.5-.2-3.9v-2.5c0-5.8 0-9.7.2-14.9l-.4-.4c-2.9.2-5.8.8-8.5 1.9 0 .6 0 1.4.2 2.1 1.4.2 2.7.4 4.1.8v14c0 1 0 1.9-.2 2.9-1.4.4-2.7.8-4.1.8 0 .6.2 1.4.4 2.3m5.3-29.1c2.1-.2 3.5-1.9 3.5-3.9-.2-1.7-1.4-2.9-3.1-2.9-2.1.2-3.5 2.1-3.5 3.9 0 1.6 1.5 3.1 3.1 2.9m-28.4 26.2c1.2.2 2.1 1.4 2.1 2.7-.4 2.5-1.7 4.5-3.3 6.2 0 .8.6 1.4 1.2 1.7 3.5-1.7 7.2-6.2 7.2-9.9.2-2.1-1.2-3.7-3.3-3.9h-.4c-1.9-.3-3.3 1.3-3.5 3.2m-25.9-10.3c0-2.7.8-5.2 2.5-7.2 1-.6 2.3-1 3.5-1 2.1 0 4.1.6 6.2 1.2v13.2c-2.1 1.9-4.7 3.9-6.6 3.9-3.9 0-5.8-5-5.8-10.1m4.8 13.8c2.9 0 5.6-2.3 7.8-4.7.4 2.3 1.4 4.7 2.7 4.7 2.3-.2 4.3-1.2 6-2.7 0-.6-.2-1.4-.8-1.9-1 .4-2.3.6-3.3.8-.2-1.4-.2-2.7-.2-4.1v-17.1c0-5.6 0-9.7.2-14.9l-.4-.4c-3.1.2-6.2.8-9.1 1.9 0 .6 0 1.4.2 2.1 1.7.2 3.1.4 4.7.8v11.8c-1.7-1-3.7-1.7-5.8-1.9-5.8 0-11.1 5.8-11.1 13 0 7 3.1 12.4 9.1 12.6m-27.1-21.3c1-.6 2.3-1 3.5-1 4.5 0 5.4 3.3 5.4 6.6-1.2 0-3.5.2-6.4.2h-5.2c.5-2.3 1.3-4.1 2.7-5.8m3.8 21.3c3.5-.4 7-1.7 9.9-3.7 0-.8-.4-1.4-.8-1.9-2.7 1-5.4 1.7-8.3 1.9-5.2 0-6.8-5-7-9.3h15.5l.4-.4c.2-1 .2-2.1.2-3.1 0-4.5-2.1-9.3-9.3-9.3-6.6 0-11.1 6.8-11.1 13.2-.1 7 3 12.4 10.5 12.6m-28.7-21.3c1-.6 2.3-1 3.5-1 4.5 0 5.4 3.3 5.4 6.6-1.2 0-3.5.2-6.4.2h-5.2c.4-2.3 1.4-4.1 2.7-5.8m3.7 21.3c3.5-.4 7-1.7 9.9-3.7 0-.8-.4-1.4-.8-1.9-2.7 1-5.4 1.7-8.3 1.9-5.2 0-6.8-5-7-9.3h15.3l.4-.4c.2-1 .2-2.1.2-3.1 0-4.5-2.1-9.3-9.3-9.3-6.6 0-11.1 6.8-11.1 13.2.1 7 3.2 12.4 10.7 12.6m-34.7-14.1c0-2.7.8-5.2 2.7-7.2 1-.6 2.3-1 3.5-1 2.1 0 4.1.6 6.2 1.2v13.2c-2.1 1.9-4.7 3.9-6.6 3.9-3.9.1-5.8-4.9-5.8-10.1m4.7 13.9c2.9 0 5.6-2.3 7.8-4.7.4 2.3 1.4 4.7 2.7 4.7 2.3-.2 4.3-1 6-2.5 0-.6-.2-1.4-.8-1.9-1 .4-2.3.6-3.3.8-.2-1.4-.2-2.7-.2-4.1v-17.1c0-5.6 0-9.7.2-14.9l-.4-.4c-3.1.2-6.2.8-9.1 1.9 0 .6 0 1.4.2 2.1 1.7.2 3.1.4 4.7.8v11.8c-1.7-1-3.7-1.7-5.8-1.9-5.8 0-11.1 5.8-11.1 13 .1 7 3.2 12.4 9.1 12.4m-39.8-.4h12c.2-.8.4-1.4.2-2.3-1.2-.4-2.5-.8-3.9-.8-.2-1.2-.2-2.5-.2-3.9v-12c1.9-1.4 4.1-2.3 6.6-2.5 4.1 0 4.7 2.9 4.7 6.6v8.7c0 1 0 1.9-.2 2.9-1.4.4-2.7.8-4.1.8 0 .8.2 1.7.2 2.3h12.2c.2-.8.4-1.4.4-2.3-1.2-.4-2.5-.8-3.9-.8 0-1.2-.2-2.5-.2-3.9v-9.7c0-5.8-2.5-8.3-7.2-8.3-3.3.2-6.2 1.4-8.7 3.5-.2-1-.4-2.3-.6-2.9l-.4-.4c-2.5.2-5 .8-7.4 1.9 0 .6 0 1.4.2 2.1 1.4.2 2.7.4 4.1.8v14c0 1 0 1.9-.2 2.9-1.4.4-2.7.8-4.1.8.1.8.3 1.4.5 2.5m-16.5-.2h12c.2-.8.4-1.4.2-2.3-1.2-.4-2.5-.8-3.9-.8 0-1.2-.2-2.5-.2-3.9v-2.5c0-5.8 0-9.7.2-14.9l-.4-.4c-2.9.2-5.8.8-8.5 1.9 0 .6 0 1.4.2 2.1 1.4.2 2.7.4 4.1.8v14.2c0 1 0 1.9-.2 2.9-1.4.4-2.7.8-4.1.8.2.6.4 1.4.6 2.1m5.3-28.7c2.1-.2 3.7-2.1 3.5-4.1-.2-1.7-1.4-2.9-3.1-2.9-2.1.2-3.5 2.1-3.5 3.9.1 1.6 1.5 3.1 3.1 3.1m758.3-51c0-2.7 1-5.2 2.7-7.2 1.2-.6 2.5-1 3.7-1 2.3 0 4.5.4 6.6 1.2v13.2c-2.1 1.9-5.2 3.9-7 3.9-3.9 0-6-5-6-10.1m5.2 13.8c3.1 0 6-2.3 8.3-4.7.4 2.3 1.4 4.7 2.9 4.7 2.3-.2 4.3-1.2 6.2-2.7 0-.6-.2-1.4-.8-1.9-1.2.4-2.3.6-3.5.8-.2-1.4-.2-2.7-.2-4.1v-17.1c0-5.6 0-9.7.2-14.9l-.4-.4c-3.3.2-6.4.8-9.5 1.9 0 .6 0 1.4.2 2.1 1.7.2 3.3.4 5 .8V150c-1.9-1-3.9-1.7-6-1.9-6.2 0-11.8 5.8-11.8 13-.3 7 3 12.6 9.4 12.6m-42.5-.6h12.8c.2-.8.4-1.4.4-2.3-1.2-.4-2.7-.8-4.1-.8 0-1.2-.2-2.5-.2-3.9v-12c2.1-1.4 4.3-2.3 6.8-2.5 4.3 0 5 2.9 5 6.6v8.7c0 1 0 1.9-.2 2.9-1.4.4-2.9.6-4.3.8 0 .8.2 1.7.4 2.3h12.8c.2-.8.4-1.4.4-2.3-1.2-.4-2.7-.8-4.1-.8 0-1.2-.2-2.5-.2-3.9v-9.7c0-5.8-2.7-8.3-7.4-8.3-3.3.2-6.6 1.4-9.3 3.5-.2-1-.4-2.3-.6-2.9l-.4-.4c-2.7.2-5.2.8-7.8 1.9 0 .6 0 1.4.2 2.1 1.4.2 2.9.4 4.3.8v14c0 1 0 1.9-.2 2.9-1.4.4-2.9.6-4.3.8-.2.8-.2 1.7 0 2.5m-22.7-30.4l.2 3.7 4.3 11.8h-10.3l5.8-15.5zM692 173.1h12.2c.2-.8.4-1.7.4-2.5l-4.7-1 2.9-8.3h3.9c2.5 0 5.8 0 8.7.2l3.1 8.1-5.2 1c0 .8.2 1.7.4 2.5h13.6c.2-.8.4-1.7.2-2.5-1.2-.4-2.7-.8-4.1-1l-11.8-31.4c-1.7 0-3.3.2-4.7.6L696 169.6c-1.4.4-2.9.8-4.3 1-.1.8.1 1.7.3 2.5m-22.3-37.4c1.2.2 2.1 1.2 2.1 2.5-.4 2.3-1.4 4.3-3.3 5.8 0 .6.6 1.2 1.2 1.4 3.5-1.7 7.2-5.8 7.2-9.3.2-1.9-1.2-3.5-3.1-3.7h-.4c-1.8 0-3.5 1.5-3.7 3.3m-9.9 0c1.2.2 2.1 1.2 2.1 2.5-.4 2.3-1.7 4.3-3.3 5.8 0 .6.6 1.2 1.2 1.4 3.5-1.7 7.2-5.8 7.2-9.3.2-1.9-1.2-3.5-3.1-3.7h-.4c-1.8 0-3.5 1.5-3.7 3.3m-11.7 34.5c.2 2.1 2.1 3.7 4.1 3.5 1.9-.2 3.3-1.7 3.5-3.5-.2-2.1-2.3-3.5-4.3-3.3-1.7.2-3.1 1.6-3.3 3.3m-27.7-10.3c0-2.7 1-5.2 2.7-7.2 1.2-.6 2.5-1 3.7-1 2.3 0 4.5.4 6.6 1.2v13.2c-2.1 1.9-5.2 3.9-7 3.9-3.9 0-6-5-6-10.1m4.9 13.8c3.1 0 6-2.3 8.3-4.7.4 2.3 1.4 4.7 2.9 4.7 2.3-.2 4.3-1.2 6.2-2.7 0-.6-.2-1.4-.8-1.9-1.2.4-2.3.6-3.5.8-.2-1.4-.2-2.7-.2-4.1v-17.1c0-5.6 0-9.7.2-14.9l-.4-.4c-3.3.2-6.4.8-9.5 1.9 0 .6 0 1.4.2 2.1 1.7.2 3.3.4 5 .8V150c-1.9-1-3.9-1.7-6-1.9-6.2 0-11.8 5.8-11.8 13-.3 7 3 12.6 9.4 12.6m-28.9-21.3c1-.6 2.5-1 3.7-1 5 0 5.8 3.3 5.8 6.6-1.4 0-3.7.2-6.6.2H594c0-2.3 1-4.3 2.4-5.8m3.8 21.3c3.7-.4 7.4-1.7 10.5-3.7 0-.8-.4-1.4-1-1.9-2.7 1-5.8 1.7-8.7 1.9-5.4 0-7.2-5-7.4-9.3h16.3l.4-.4c.2-1 .2-2.1.2-3.1 0-4.5-2.3-9.3-9.7-9.3-7 0-11.8 6.8-11.8 13.2 0 7 3.3 12.4 11.2 12.6m-35.6-.8h15.1c.2-.8.4-1.4.4-2.3-2.1-.4-4.3-.8-6.4-.8 0-1.2-.2-2.5-.2-3.9V156c2.3-3.5 4.1-4.1 6.2-4.1.4 0 1 0 1.4.2.4 1.9.6 3.7.6 5.8.8.4 1.9.4 2.9 0 .8-2.9 1-5.8 1-8.9-1.4-.4-2.9-.6-4.3-.6-3.3.2-6.2 2.1-7.6 5-.2-1.4-.6-3.1-1-4.5l-.4-.4c-2.7.2-5.2.8-7.8 1.9 0 .6 0 1.4.2 2.1 1.4.2 2.9.4 4.3.8v14c0 1 0 1.9-.2 2.9-1.4.4-2.9.6-4.3.8-.3.4-.3 1.3.1 1.9M545 152.4c1-.6 2.5-1 3.7-1 5 0 5.8 3.3 5.8 6.6-1.4 0-3.7.2-6.6.2h-5.4c.1-2.3 1.1-4.3 2.5-5.8m3.7 21.3c3.7-.4 7.4-1.7 10.5-3.7 0-.8-.4-1.4-1-1.9-2.7 1-5.8 1.7-8.7 1.9-5.4 0-7.2-5-7.4-9.3h16.3l.4-.4c.2-1 .2-2.1.2-3.1 0-4.5-2.3-9.3-9.7-9.3-7 0-11.8 6.8-11.8 13.2.1 7 3.4 12.4 11.2 12.6M512 159.9c0-2.7 1-5.2 2.7-7.2 1.2-.6 2.5-1 3.7-1 2.3 0 4.5.4 6.6 1.2v13.2c-2.1 1.9-5.2 3.9-7 3.9-3.9 0-6-5-6-10.1m5 13.8c2.9 0 6-2.3 8.3-4.7.4 2.3 1.4 4.7 2.9 4.7 2.3-.2 4.3-1.2 6.2-2.7 0-.6-.2-1.4-.8-1.9-1.2.4-2.3.6-3.5.8-.2-1.4-.2-2.7-.2-4.1v-17.1c0-5.6 0-9.7.2-14.9l-.4-.4c-3.3.2-6.4.8-9.5 1.9 0 .6 0 1.4.2 2.1 1.7.2 3.3.4 5 .8V150c-1.9-1-3.9-1.7-6-1.9-6.2 0-11.8 5.8-11.8 13-.1 7 3 12.6 9.4 12.6m-26.1-.6h12.8c.2-.8.4-1.4.4-2.3-1.2-.4-2.7-.8-4.1-.8-.2-1.2-.2-2.5-.2-3.9V149c0-5.6 0-9.7.2-14.9l-.4-.4c-3.1.2-6 .8-8.9 1.9 0 .6 0 1.4.2 2.1 1.4.2 2.9.4 4.3.8v28.9c0 1 0 1.9-.2 2.9-1.4.4-2.9.6-4.3.8-.2.5 0 1.4.2 2m-17.3 0h12.8c.2-.8.4-1.4.4-2.3-1.2-.4-2.7-.8-4.1-.8-.2-1.2-.2-2.5-.2-3.9v-2.7c0-5.6 0-9.7.2-14.9l-.4-.4c-3.1.2-6 .8-8.9 1.9 0 .6 0 1.4.2 2.1 1.4.2 2.9.4 4.3.8v14.2c0 1 0 1.9-.2 2.9-1.4.4-2.9.8-4.3.8-.2.8 0 1.5.2 2.3m5.8-28.9c2.1-.2 3.7-1.9 3.7-3.9-.2-1.7-1.7-2.9-3.3-2.9-2.1.2-3.7 1.9-3.7 3.9.2 1.6 1.6 2.9 3.3 2.9m-41.7 29.1c1.9 0 3.5-.2 5.2-.6l5.6-19.2.4 4.1 4.5 15.9c1.9 0 3.7-.2 5.4-.6l7-20.6c1-.2 2.1-.4 3.1-.8.2-.8 0-1.7-.2-2.3h-10.3c-.2.8-.4 1.4-.4 2.3l4.1.8-6 18.2-.4-3.7-5-17.5c-1.7 0-3.1.2-4.7.4l-6 20.9-.2-3.7-4.7-14.2 4.1-.8c.2-.8 0-1.7-.2-2.3h-11.4c-.2.6-.4 1.4-.4 2.3 1 .2 2.1.4 2.9.8l7.6 20.6zm-28.3-20.9c1-.6 2.5-1 3.7-1 5 0 5.8 3.3 5.8 6.6-1.4 0-3.7.2-6.6.2h-5.6c.2-2.3 1.2-4.3 2.7-5.8m3.7 21.3c3.7-.4 7.4-1.7 10.5-3.7 0-.8-.4-1.4-.8-1.9-2.7 1-5.8 1.7-8.7 1.9-5.4 0-7.2-5-7.4-9.3h16.1l.4-.4c.2-1 .2-2.1.2-3.1 0-4.5-2.3-9.3-9.7-9.3-7 0-11.8 6.8-11.8 13.2.1 7 3.4 12.4 11.2 12.6m-27.4-21.9c4.5 0 6.8 5 6.8 10.1 0 2.7-1 5.4-2.7 7.4-1 .6-2.3 1-3.5 1-2.7-.2-5.4-1.2-7.4-3.3v-13c2-1.4 4.3-2 6.8-2.2m-11.8 22.1c1.4-.8 2.5-1.9 3.5-3.1 2.3 1.9 5.2 2.7 8.1 2.9 6.6 0 11.4-7 11.4-13.2 0-7.4-3.9-12.2-9.9-12.2-3.1 0-6 1-8.3 2.9v-2.3c0-5.6 0-9.7.2-14.9l-.4-.4c-3.1.2-6 .8-8.9 1.9 0 .6 0 1.4.2 2.1 1.4.2 2.9.4 4.3.8v28.9c0 2.1-.6 4.1-1.9 6 .7.4 1.3.8 1.7.6m-45.6-.8h12.8c.2-.8.4-1.4.4-2.3-1.2-.4-2.7-.8-4.1-.8-.2-1.2-.2-2.5-.2-3.9v-3.7l3.9-1c2.1 6.2 5.8 12.4 9.5 12.4 2.3 0 4.5-.4 6.8-1.2.2-.8 0-1.4-.6-2.1-.6 0-1.2.2-1.9.2-1.9 0-3.5-.8-4.5-2.3-2.3-2.9-4.3-6-6-9.1l7-7c1.2-.2 2.5-.4 3.7-.8 0-.8 0-1.4-.4-2.3h-11.1c-.2.8-.4 1.4-.4 2.3l3.3.8-5 5.8-4.3 1.9v-10.5c0-5.6 0-9.7.2-14.9l-.4-.4c-3.1.2-6 .8-8.9 1.9 0 .6 0 1.4.2 2.1 1.4.2 2.9.4 4.3.8v28.9c0 1 0 1.9-.2 2.9-1.4.4-2.9.6-4.3.8-.3 0 0 .9.2 1.5m-14.5-2.7c-5.8 0-7.8-6-7.8-10.3 0-2.7.8-5.4 2.7-7.4 1.2-.6 2.5-1 3.7-1 5.8 0 7.8 6 7.8 10.3 0 2.7-.8 5.4-2.7 7.4-1 .8-2.2 1-3.7 1m-1 3.3c7.6 0 12.2-7 12.2-13.2 0-7-3.5-12.4-11.6-12.4s-12 7-12 13.2c0 7.2 3.7 12.4 11.4 12.4m-27.5-3.5c-5.8 0-7.8-6-7.8-10.3 0-2.7.8-5.4 2.7-7.4 1-.6 2.5-1 3.7-1 5.8 0 7.8 6 7.8 10.3 0 2.7-.8 5.4-2.7 7.4-1.2.8-2.4 1-3.7 1m-1 3.5c7.6 0 12.2-7 12.2-13.2 0-7-3.5-12.4-11.6-12.4s-12.2 7-12.2 13.2c0 7.2 3.7 12.4 11.6 12.4m-27.9-.6h12.8c.2-.8.4-1.4.4-2.3-1.2-.4-2.7-.8-4.1-.8 0-1.2-.2-2.5-.2-3.9V149c0-5.6 0-9.7.2-14.9l-.4-.4c-3.1.2-6 .8-8.9 1.9-.2.6 0 1.4.2 2.1 1.4.2 2.9.4 4.3.8v28.9c0 1 0 1.9-.2 2.9-1.4.4-2.9.6-4.3.8-.2.5 0 1.4.2 2m-32.6.6c3.5 0 6.4-2.3 8.9-5 .4 2.5 1.4 5 2.7 5 2.3-.2 4.3-1.2 6.2-2.7 0-.6-.2-1.4-.8-1.9-1.2.4-2.3.6-3.5.8-.2-1.4-.2-2.7-.2-4.1V164c0-5.6 0-9.7.2-14.9l-.4-.4h-8.3c-.2.8-.4 1.7-.4 2.3 1.4.2 2.9.6 4.3 1v13.8c-1.4 1.4-5.2 4.1-7.4 4.1-3.1-.2-4.1-2.5-4.1-6.6 0-3.1 0-9.1.2-14l-.4-.4h-8.1c-.2.8-.4 1.7-.4 2.3 1.4.2 2.9.6 4.3 1v13.2c-.2 5.6 2.4 8.3 7.2 8.3m-26-3.5c-5.8 0-7.8-6-7.8-10.3 0-2.7.8-5.4 2.7-7.4 1-.6 2.5-1 3.7-1 5.8 0 7.8 6 7.8 10.3 0 2.7-.8 5.4-2.7 7.4-1 .8-2.3 1-3.7 1m-1.1 3.5c7.6 0 12.2-7 12.2-13.2 0-7-3.5-12.4-11.6-12.4s-12 7-12 13.2c.1 7.2 3.8 12.4 11.4 12.4m-35.9 12.4c4.1 0 7.4-5.8 10.5-13.6l8.1-20.6c1-.2 2.1-.4 3.1-.8 0-.8 0-1.7-.2-2.3H172c-.2.8-.4 1.4-.4 2.3l4.1.8-6.8 18-.2-3.7-5.6-14.2 4.1-.8c.2-.8 0-1.4-.2-2.3h-11.6c-.2.6-.4 1.4-.4 2.3 1 .2 2.1.4 2.9.8l8.1 21.1h1.7l-.4 1.7c-2.3 4.5-4.7 7.8-9.9 7.8h-.6c-.6.6-.8 1.4-.8 2.3 1.3.8 3.2 1.2 4.8 1.2m-41.3 0c4.1 0 7.4-5.8 10.5-13.6l8.1-20.6c1-.2 2.3-.4 3.1-.8 0-.8 0-1.7-.2-2.3h-10.3c-.2.8-.4 1.4-.4 2.3l4.1.8-6.8 18-.2-3.7-5.6-14.2 4.1-.8c.2-.8 0-1.4-.2-2.3h-11.6c-.2.6-.4 1.4-.4 2.3 1 .2 2.1.4 3.1.8l8.1 21.1h1.7l-.6 1.7c-2.3 4.5-4.7 7.8-9.9 7.8h-.6c-.6.6-.8 1.4-.8 2.3 1.3.8 3.2 1.2 4.8 1.2m-25.6-19.8c0-1 .4-2.3 1-3.1 2.9-1.2 5.8-2.1 8.9-2.3v6c-1.7 1.4-3.7 2.5-6 2.7-2.6.2-3.9-1.5-3.9-3.3m1.3 7.4c3.3-.4 6.6-1.9 9.1-4.1.6 2.5 1.7 4.1 2.7 4.1 2.3-.2 4.3-1.2 6.2-2.7 0-.6-.2-1.4-.8-1.9-1.2.4-2.3.6-3.5.8-.2-1.4-.2-2.7-.2-4.1v-9.7c0-7-5.4-8.1-8.7-8.1-3.5 0-6.8.8-9.7 2.7 0 1.9.4 3.7 1.2 5.6 1 .2 2.3.2 3.1-.4 0-1.4 0-2.7.4-4.1 1.4-.2 2.9-.4 4.3-.4 3.7 0 4.5 2.7 4.5 6.6-7 1.2-14.9 3.9-14.9 9.7-.2 3.1 2.1 6 5.4 6.2.3 0 .7 0 .9-.2m-21.1 0c5.6 0 10.1-2.7 10.1-7.6 0-8.3-13.4-6.6-13.4-11.8 0-1.9.4-3.1 4.7-3.1 1.2 0 2.3.2 3.5.4.4 1.2.6 2.7.6 3.9.8.2 1.9.2 2.7 0 .6-2.1 1-4.1 1-6.4-2.5-.6-5.2-1-7.8-1-4.3 0-9.5 1.7-9.5 6.8 0 5.6 6.4 6 10.3 8.1 1.7.8 2.9 1.9 2.9 3.5 0 3.1-1.2 3.7-4.7 3.7-1.7 0-3.3-.2-5-.6-.2-1.7-.4-3.5-.6-5.2-.8-.4-1.7-.4-2.5 0-.6 2.5-1 5-1 7.6 2.9 1.1 5.8 1.5 8.7 1.7M38 170.2c-5.8 0-7.8-6-7.8-10.3 0-2.7.8-5.4 2.7-7.4 1.2-.6 2.5-1 3.7-1 5.8 0 7.8 6 7.8 10.3 0 2.7-.8 5.4-2.7 7.4-1.2.8-2.5 1-3.7 1m-1 3.5c7.6 0 12.2-7 12.2-13.2 0-7-3.5-12.4-11.6-12.4s-12.2 7-12.2 13.2c0 7.2 3.7 12.4 11.6 12.4m-23 0c2.9 0 6-.8 8.5-2.5 0-.8-.2-1.7-.8-2.3-1.7.6-3.5 1-5.4 1-1.7 0-2.5-1.9-2.5-5.8v-12.4h8.3c.2-1 .2-2.1.2-3.1h-8.9v-7c-.8-.2-1.9-.4-2.7-.4l-1.9 7c-1.4 0-2.7.2-4.1.6-.2.6 0 1.4 0 2.1 1.4.2 3.1.4 4.1.6V166c.1 5 1.5 7.7 5.2 7.7" class="st0"/><path d="M619.1 579c-3.9-.2-7.4-1.7-10.5-4.1-5-3.5-8.3-9.1-8.5-15.3 0 0 7.8-1.7 7.6-8.7 0 0 .2-8.7-10.3-9.3-2.7-.2-5.6-.4-8.3-.2 0 0-5.4.6-7.4 1-2.9.8-7.2 2.5-7.4 6 0 0 .2 3.5 3.5 3.5 0 0 3.3 0 3.3-2.7.2-1-.4-2.1-1.4-2.5 1.9-1.4 4.1-2.1 6.4-1.9l-4.3 22.9c0 1.9-1.4 3.1-3.3 3.3l-2.1.2-.4 2.8h15.1l.2-2.3-1-.2c-1.2-.2-2.3-1.7-1.9-2.9v-.4l1.4-7.4c1 .2 1.9.2 2.9 0 1.2 6 4.7 11.4 9.5 15.3 4.5 3.1 9.9 4.7 15.5 4.7l1.4-1.8zm-28.2-21.3l2.3-12.8c9.1-.4 8.1 5.6 8.1 5.6-1.6 9.1-10.4 7.2-10.4 7.2" class="st1"/><path d="M35.1 11.6l-4.3 5.2c-2.9-2.7-6.8-4.1-10.7-4.1-4.3 0-7.4 1.9-7.4 5.6s1.9 5 9.9 7.4c8.5 2.7 14.2 6 14.2 15.1 0 8.5-6.6 14.7-18.2 14.7-6.4.1-12.6-2.2-17.4-6.5L6 43.8c3.3 3.1 7.8 4.7 12.4 4.7 5.2 0 8.7-2.5 8.7-7.2 0-3.9-2.1-5.8-9.5-8.1-10.1-3.1-14.5-7-14.5-14.5 0-8.1 6.8-13.2 16.3-13.2 5.8-.1 11.6 2 15.7 6.1zM65 52.9c-2.7 1.9-6 2.9-9.3 2.7-7.2 0-10.9-4.1-10.9-12V24.4H39V18h5.8V9.8l8.9-1v9.1h8.5l-.8 6.4h-7.6v19c0 3.7 1.2 5.2 3.9 5.2 1.7 0 3.1-.4 4.3-1.2-.1-.2 3 5.6 3 5.6zm36-16.7c0 11.6-6.4 19.4-17.3 19.4s-17.1-7.2-17.1-19.4c0-11.6 6.4-19.4 17.3-19.4S101 24.2 101 36.2zm-25.2 0c0 8.7 2.7 12.6 7.8 12.6 5.2 0 7.8-3.9 7.8-12.6s-2.7-12.6-7.8-12.6-7.8 3.9-7.8 12.6zm55.1-18.8l-1.4 8.7c-1-.2-2.1-.4-3.3-.4-4.3 0-6.6 3.3-8.1 9.5v19.4h-8.9V18h7.6l.8 7.2c1.7-5.2 5.2-8.1 9.5-8.1 1.3-.1 2.6.1 3.8.3zm23.3 37.4c-2.7 8.7-8.3 14-19 14.9l-1-6.4c7.2-1 9.7-3.5 11.8-8.7h-3.1L131.3 18h9.5l7.8 30.8 8.3-30.8h9.1l-11.8 36.8zm64.4-15.7h-23.1c.6 7.4 4.1 9.9 9.1 9.9 3.3 0 6.6-1.2 9.1-3.3l3.7 5c-3.7 3.1-8.7 5-13.6 5-11.4 0-17.3-7.4-17.3-19 0-11.1 5.8-19.6 16.3-19.6s16.1 7 16.1 18.6c-.1.9-.3 2.4-.3 3.4zm-8.6-6.2c0-6-2.1-9.7-7-9.7-4.1 0-6.8 2.9-7.2 10.1h14.5c-.1 0-.3-.4-.3-.4zm46.4-4.7v26.4h-8.9V29.4c0-4.5-1.7-6-4.5-6-3.3 0-5.6 2.1-7.6 5.6v25.4h-8.9V18h7.6l.6 4.7c2.5-3.7 6.6-5.8 11.1-5.8 6.9.1 10.6 4.2 10.6 11.3zm40.7-24.8v51.2h-7.8l-.6-4.5c-2.3 3.5-6.2 5.8-10.5 5.8-9.1 0-13.8-7.6-13.8-19.4 0-11.4 5.8-19.4 14.7-19.4 3.5 0 6.8 1.4 9.3 3.9V2.3c-.2 0 8.7 1.1 8.7 1.1zm-8.9 40.9V27.5c-1.7-2.3-4.1-3.7-7-3.9-4.5 0-7.6 3.9-7.6 12.6 0 9.5 2.7 12.6 7 12.6 3.3.2 5.5-1.4 7.6-4.5zm49.1-5.2h-22.9c.6 7.4 4.1 9.9 9.1 9.9 3.3 0 6.6-1.2 9.1-3.3l3.7 5c-3.7 3.1-8.7 5-13.6 5-11.4 0-17.3-7.4-17.3-19 0-11.1 6-19.6 16.3-19.6s16.1 7 16.1 18.6c-.3.9-.5 2.4-.5 3.4zm-8.6-6.2c0-6-2.1-9.7-7-9.7-4.1 0-6.8 2.9-7.2 10.1H329c-.1 0-.3-.4-.3-.4zm38.4-15.5l-1.4 8.7c-1-.2-2.1-.4-3.3-.4-4.3 0-6.6 3.3-8.1 9.5v19.4h-8.9V18h7.6l.8 7.2c1.7-5.2 5.4-8.1 9.5-8.1 1.3-.1 2.5.1 3.8.3z" class="st2"/></g></g></svg>