<svg xmlns="http://www.w3.org/2000/svg" id="Layer_1" viewBox="0 0 800 354.5" width="800" height="354.5"><style>.st0{fill:#231f20}.st1{fill:none;stroke:#00aeef;stroke-width:.8223;stroke-miterlimit:10}</style><g id="aa20623d-e580-482a-8e7e-16ba329ccaba"><g id="a29d51b8-7498-4c19-8373-cb34a10b2d70"><path d="M800 296.6l-.7-2.2c-1.7.9-3.5 1.4-5.4 1.5-2.2 0-5-1.3-5-8.4V265h9.3c1.1-.8 1.3-2.3.5-3.4h-9.9v-11.9l-1.2-.2-5.7 5.8v6.4h-4l-2.4 2.5.4.9h6v25.4c0 6.9 3.1 10.4 8.6 10.4 1.3-.1 2.5-.5 3.7-1.1l5.8-3.2zm-26.1-1.2l-2.4-.2c-3.3-.2-4-.8-4-5.1V261c-4.5.9-9.1 1.4-13.7 1.6v2c6.3.9 6.8 1.2 6.8 6.2V291c-2.5 2.6-5.8 4.1-9.4 4.2-3.9 0-7.7-2.1-7.7-9.9v-11.7c0-5.9 0-10 .3-12.7-4.1.8-8.3 1.4-12.5 1.6v2c4.9 1 5.3 1.3 5.3 6.1v17c0 9.4 4.9 13 10.8 13 2.4-.1 4.7-.8 6.7-2.2 2.4-1.5 4.4-3 6.4-4.5v6.2l.5.5c4.2-1.3 8.5-2.4 12.8-3.1v-2.1zm-79.4-3.1c-2.4 1.8-5.3 2.9-8.4 3-5.6 0-11.9-5.1-11.9-15.4 0-12.6 7.3-16 11.3-16 3.5-.1 6.9 1.6 9 4.4v24zm13.5 3l-2.8-.3c-3.3-.3-3.8-.8-3.8-5.3v-52c-4.4 1.4-9 2.4-13.6 3v2.1c6.3.4 6.7.7 6.7 6.4v12.3c-1.9-.6-3.8-.9-5.8-1-11.9 0-22.5 9.5-22.5 21.6 0 12.1 9.1 18.6 16.1 18.6 2.4-.3 4.8-1.2 6.8-2.5l5.3-3.1v5.7c4.4-1.4 8.9-2.5 13.5-3.3l.1-2.2zm-62.8-31.5c4.8 0 7.8 4.2 7.7 8.7 0 1.2-.5 1.7-2.1 1.7-5 .2-9.9.2-14.7.2 1.2-6.9 5.1-10.6 9.1-10.6m13.3 26.7c-2.6 2.7-6.1 4.3-9.9 4.4-6.1 0-12.9-4.9-13-16.7 10.4-.3 21.3-1.2 22.7-1.5s2-1.1 2-2.8c-.1-7.2-5.9-13-13.1-13.3-5 .2-9.6 2.5-12.8 6.4-3.8 4.2-5.8 9.6-5.8 15.3 0 9.9 6.3 18.6 17 18.6 2.7 0 8.7-1.6 14.2-8.5l-1.3-1.9zm-37.8-19.1c-.4-3.2-1.1-6.3-1.9-9.3-2.5-1-5.1-1.5-7.7-1.5-8 0-13.3 5.1-13.3 11.2 0 6.7 5.7 9.6 10.9 12 4.3 2 6.9 4.1 6.9 7.9 0 3.4-2.7 6.1-6.1 6.1h-.1c-5.2 0-9.2-5.1-10.7-10.8l-2.3.4c0 3.5.5 6.9 1.4 10.3 3 2 6.5 3 10 3 7 0 14.4-4.1 14.4-12 0-6-4.4-9.1-11-11.8-3.9-1.6-7.4-3.7-7.4-7.6-.2-3.1 2.2-5.8 5.3-6h.3c4.3 0 7.3 3.5 9 8.6l2.3-.5zm-45.2-7.6c4.8 0 7.8 4.2 7.7 8.7 0 1.2-.5 1.7-2.1 1.7-5 .2-9.9.2-14.8.2 1.2-6.9 5.1-10.6 9.2-10.6m13.3 26.7c-2.6 2.7-6.1 4.3-9.9 4.4-6.1 0-12.9-4.9-13-16.7 10.4-.3 21.3-1.2 22.7-1.5 1.5-.3 2-1.1 2-2.8-.1-7.2-5.9-13-13.1-13.3-5 .2-9.6 2.5-12.8 6.4-3.8 4.2-5.8 9.6-5.8 15.3 0 9.9 6.3 18.6 17 18.6 2.7 0 8.7-1.6 14.2-8.5l-1.3-1.9zm-34.4 9.2v-2.3c-5.6-.5-6.3-1-6.3-6.8v-53c-4.2 1.4-8.5 2.5-12.9 3v2.1c5.5.4 6 .7 6 6.6v41.2c0 5.8-.8 6.3-6.3 6.8v2.3l19.5.1zm-37.7-35.9c4.8 0 7.8 4.2 7.7 8.7 0 1.2-.5 1.7-2.1 1.7-5 .2-9.9.2-14.7.2 1.3-6.9 5.1-10.6 9.1-10.6m13.4 26.7c-2.6 2.7-6.1 4.3-9.9 4.4-6.1 0-12.9-4.9-13-16.7 10.4-.3 21.3-1.2 22.7-1.5s2-1.1 2-2.8c-.1-7.2-5.9-13-13.1-13.3-5 .2-9.6 2.5-12.8 6.4-3.8 4.2-5.8 9.6-5.8 15.3 0 9.9 6.3 18.6 17 18.6 2.7 0 8.7-1.6 14.2-8.5l-1.3-1.9zm-47.6 1.8c-2.4 1.8-5.3 2.9-8.4 3-5.6 0-11.9-5.1-11.9-15.4 0-12.6 7.3-16 11.3-16 3.5-.1 6.9 1.6 9 4.4v24zm13.6 3l-2.8-.3c-3.3-.3-3.8-.8-3.8-5.3v-52c-4.4 1.4-9 2.4-13.6 3v2.1c6.3.4 6.7.7 6.7 6.4v12.3c-1.9-.6-3.8-.9-5.7-1-11.9 0-22.5 9.5-22.5 21.6 0 12.1 9.2 18.6 16.1 18.6 2.4-.3 4.8-1.2 6.8-2.5l5.3-3.1v5.7c4.4-1.4 8.9-2.5 13.5-3.3v-2.2zm-46.5 4.4v-2.3c-5.6-.5-6.2-1-6.2-7v-30.1c-4 1.6-8.1 2.8-12.4 3.4v2.1c5.2.9 5.5 1.2 5.5 6.6v17.9c0 5.9-.6 6.5-6.1 7v2.3l19.2.1zM439.4 253c2.4 0 4.4-2 4.4-4.4.1-2.4-1.8-4.4-4.2-4.5h-.2c-2.5 0-4.5 2.1-4.4 4.5.1 2.3 2 4.3 4.4 4.4m-41.7 16.4c2.4-1.7 5.9-3.7 8.7-3.7 6.4 0 11.7 5.2 11.7 14.6 0 9.9-4.9 16.1-12.2 16.1-3.1 0-6-1.3-8.2-3.4v-23.6zm0-2.9v-6.9c-4.1 1.7-8.3 2.9-12.6 3.7v2.1c5.4.7 5.8.9 5.8 6.6v39.5c0 5.7-.8 6.3-6.4 6.8v2.3h20.7v-2.4c-6.8-.6-7.4-1.1-7.4-7.7V299c1.9 1 3.9 1.5 6 1.6 11.3-2.1 21.7-10.6 21.7-23.7 0-8.6-5.8-16.4-15.4-16.4-1.5.1-3 .6-4.3 1.3l-8.1 4.7zm-15 33.2v-2.3c-5.6-.5-6.2-1-6.2-7v-30c-4 1.6-8.1 2.7-12.4 3.4v2.1c5.2.9 5.5 1.2 5.5 6.6v17.9c0 5.9-.6 6.5-6.1 7v2.3h19.2zm-10.2-46.8c2.4 0 4.4-2 4.4-4.4.1-2.4-1.8-4.4-4.2-4.5h-.2c-2.5 0-4.5 2.1-4.4 4.5.1 2.4 2 4.3 4.4 4.4m-26.4 39.4c-2.4 1.8-5.3 2.9-8.4 3-5.6 0-12-5.1-12-15.4 0-12.6 7.3-16 11.3-16 3.5-.1 6.9 1.6 9 4.4v24zm13.6 2.9l-2.8-.3c-3.3-.3-3.8-.8-3.8-5.3v-52c-4.4 1.4-9 2.4-13.6 3v2.1c6.3.4 6.7.7 6.7 6.4v12.3c-1.9-.6-3.8-.9-5.7-1-11.9 0-22.5 9.5-22.5 21.6 0 12.1 9.2 18.6 16.1 18.6 2.4-.3 4.8-1.2 6.8-2.5l5.3-3.1v5.7c4.4-1.4 8.9-2.5 13.5-3.3v-2.2zm-66.3 4.5v-2.3c-5.6-.5-6.2-1-6.2-7v-30c-4 1.6-8.1 2.7-12.4 3.4v2.1c5.2.9 5.5 1.2 5.5 6.6v17.9c0 5.9-.6 6.5-6.1 7v2.3h19.2zm-10.2-46.8c2.4 0 4.4-2 4.4-4.4.1-2.4-1.8-4.4-4.2-4.5h-.2c-2.5 0-4.5 2.1-4.4 4.5.1 2.4 2 4.3 4.4 4.4m-26.1 39.4c-2.4 1.8-5.3 2.9-8.4 3-5.6 0-11.9-5.1-11.9-15.4 0-12.6 7.3-16 11.3-16 3.5-.1 6.9 1.6 9 4.4v24zm13.5 3l-2.8-.3c-3.3-.3-3.8-.8-3.8-5.3v-52c-4.4 1.4-9 2.4-13.6 3v2.1c6.3.4 6.7.7 6.7 6.4v12.3c-1.9-.6-3.8-.9-5.8-1-11.9 0-22.5 9.5-22.5 21.6 0 12.1 9.2 18.6 16.1 18.6 2.4-.3 4.8-1.2 6.8-2.5l5.3-3.1v5.7c4.4-1.4 8.9-2.5 13.5-3.3l.1-2.2zm-46.8 4.4v-2.3c-5-.5-5.5-.9-5.5-6.8v-16.8c0-8.5-4.4-13.3-11.2-13.3-2.6.2-5.1 1.1-7.2 2.6-2.2 1.5-4.1 2.8-5.8 4.1v-7c-3.9 1.7-7.9 2.9-12.1 3.6v2c4.7.9 5.2 1.1 5.2 6.7v18.1c0 5.8-.4 6.2-6.4 6.8v2.3h18.9v-2.3c-5.1-.5-5.7-.9-5.7-6.8v-20.5c2.6-2.3 6-4.4 9.5-4.4 5.8 0 7.9 3.9 7.9 9.9v14.6c0 6-.6 6.7-5.7 7.2v2.3h18.1zm-59.1-7.3c-1.9 1.7-4.4 2.8-7 3.1-3.5-.1-6.3-3-6.2-6.6v-.2c0-3.1 1.9-4.8 5.3-6.4 1.8-.9 6-2.7 7.8-3.7v13.8zm13.7 3.9l-.9-2.3c-1 .6-2 .9-3.1 1-1.5 0-3-1.3-3-5.2v-16.2c0-4.5-.9-8.1-3.9-10.6-2-1.6-4.6-2.4-7.1-2.4-4.7 1.2-9.2 3.3-13.2 6.1-1.6 1.2-2.8 2.2-2.8 3.5.2 2 1.8 3.6 3.8 3.7 1.2.1 2.3-.8 2.5-2 .4-2.1 1.3-4.1 2.6-5.7 1-1.1 2.4-1.8 3.9-1.7 4.4 0 7.3 3.6 7.3 9.9v1.6c-1.9 1.6-8.2 3.9-13.5 5.7-4.8 1.6-7.1 4.4-7.1 8.6 0 5.8 4.7 10.5 10.5 10.5h.1c2.6 0 6.8-3.3 10.3-5.6.4 1.5 1.1 2.8 2.1 3.9 1.2 1 2.6 1.5 4.1 1.6l7.4-4.4zm-42.3-24.9c-.4-3.2-1-6.3-1.9-9.3-2.5-1-5.1-1.5-7.8-1.5-8 0-13.3 5.1-13.3 11.2 0 6.7 5.7 9.6 10.9 12 4.4 2 6.9 4.1 6.9 7.9 0 3.4-2.7 6.1-6.1 6.1h-.1c-5.2 0-9.1-5.1-10.7-10.8l-2.3.4c0 3.5.5 6.9 1.4 10.3 3 2 6.5 3 10 3 7 0 14.4-4.1 14.4-12 0-6-4.4-9.1-11-11.8-3.9-1.6-7.4-3.7-7.4-7.6-.2-3.1 2.2-5.8 5.4-6h.3c4.3 0 7.3 3.5 9 8.6l2.3-.5zm-28.8 24l-2.4-.2c-3.3-.2-4-.8-4-5.1V261c-4.5.9-9.1 1.4-13.7 1.6v2c6.3.9 6.8 1.2 6.8 6.2V291c-2.5 2.6-5.8 4.1-9.4 4.2-3.9 0-7.7-2.1-7.7-9.9v-11.7c0-5.9 0-10 .2-12.7-4.1.8-8.3 1.4-12.4 1.6v2c4.9 1 5.3 1.3 5.3 6.1v17c0 9.4 4.9 13 10.8 13 2.4-.1 4.7-.8 6.7-2.2 2.5-1.5 4.4-3 6.4-4.5v6.2l.5.5c4.2-1.3 8.5-2.4 12.8-3.1v-2.1zM58.8 290c-4 3.7-6.9 4.8-10.6 4.8-4.9 0-13.2-4-13.2-16.1 0-9.2 5.1-13.9 10.8-13.9 3.3 0 6.4 1.3 8.7 3.6.8.7 1.2 1 1.6 1 1.6-.5 2.8-2 2.9-3.7 0-1.1-.5-2.1-1.4-2.7-2.3-1.6-5-2.4-7.7-2.3-4.8.2-9.4 2-13.2 4.9-5.5 3.9-8.8 10.3-8.8 17 0 9.3 6.5 18.2 17.4 18.2 5.1 0 11-3.8 14.8-8.9l-1.3-1.9zm657.9-131.2c7.6 0 11.7 8.2 11.7 18.5 0 11.9-4.4 16-9.9 16-7.1 0-11.9-8.2-11.9-19.2 0-9.9 4.7-15.3 10.1-15.3m.9-2.8c-7.9 0-19.1 6.6-19.1 20.9-.2 10.4 8.1 19.1 18.5 19.3h.6c8.6 0 18.9-6.7 18.9-20.8.3-10.4-7.9-19.1-18.4-19.4h-.5m-37.7 9.2v-9.5c-3.9 1.7-8.1 2.9-12.3 3.6v1.9c4.9.7 5.4 1.1 5.4 6.8v18.1c0 5.8-.6 6.3-6 6.8v2.3h20v-2.3c-6.7-.5-7.2-1-7.2-6.8v-16c1.9-4.9 4.7-7.5 7-7.5 1.4 0 2.8.7 3.7 1.8.7.6 1.6.6 2.4.2 2.3-1 3.4-3.6 2.4-5.9-.8-1.9-2.7-3-4.7-2.7-4.2 0-7.9 4.9-10.5 9.2h-.2zm-33.1-6c4.8 0 7.8 4.2 7.7 8.7 0 1.2-.5 1.7-2.1 1.7-5.1.2-9.9.2-14.8.2 1.2-6.9 5.1-10.6 9.2-10.6m13.3 26.6c-2.6 2.7-6.1 4.3-9.9 4.4-6.1 0-12.9-4.9-13-16.7 10.4-.3 21.3-1.2 22.8-1.5 1.5-.3 2-1.1 2-2.8-.1-7.2-5.9-13.1-13.2-13.3-5 .2-9.6 2.5-12.8 6.4-3.8 4.2-5.8 9.6-5.7 15.3 0 9.9 6.3 18.6 17 18.6 2.7 0 8.7-1.6 14.2-8.5l-1.4-1.9zm-48.5-20.6v-9.5c-3.9 1.7-8.1 2.9-12.3 3.6v1.9c4.9.7 5.4 1.1 5.4 6.8v18.1c0 5.8-.6 6.3-6 6.8v2.3h20v-2.3c-6.7-.5-7.2-1-7.2-6.8v-16c1.9-4.9 4.7-7.5 7-7.5 1.4 0 2.8.7 3.7 1.8.7.5 1.6.6 2.4.2 1.7-.8 2.7-2.4 2.8-4.3-.3-2.5-2.5-4.4-5.1-4.4-4.2 0-7.9 4.9-10.5 9.2l-.2.1zm-52.1 0v-9.5c-3.9 1.7-8.1 2.9-12.3 3.6v1.9c4.9.7 5.4 1.1 5.4 6.8v18.1c0 5.8-.6 6.3-6 6.8v2.3h20v-2.3c-6.7-.5-7.2-1-7.2-6.8v-16c1.9-4.9 4.7-7.5 7-7.5 1.4 0 2.8.7 3.7 1.8.7.6 1.6.6 2.4.2 2.3-1 3.4-3.6 2.4-5.9-.8-1.9-2.7-3-4.7-2.7-4.2 0-7.9 4.9-10.5 9.2h-.2zm-16.9 25.6l-2.4-.2c-3.3-.2-4-.8-4-5.1v-29.1c-4.5.9-9.1 1.4-13.7 1.6v2c6.3.9 6.8 1.2 6.8 6.2v20.3c-2.5 2.6-5.8 4.1-9.4 4.2-3.9 0-7.7-2.1-7.7-9.9v-11.7c0-5.9 0-10 .3-12.7-4.1.8-8.3 1.4-12.5 1.6v2c4.9 1 5.3 1.3 5.3 6.1v17.1c0 9.4 4.9 13 10.8 13 2.4-.1 4.7-.8 6.7-2.2 2.4-1.5 4.4-3 6.4-4.5v6.1l.5.5c4.2-1.3 8.5-2.4 12.8-3.1v-2.2zm-44.9 1.1l-.8-2.3c-1.7.9-3.5 1.4-5.4 1.5-2.2 0-5-1.3-5-8.4v-22.4h9.3c1.1-.8 1.3-2.3.5-3.4h-9.9V145l-1.2-.2-5.7 5.8v6.4h-4l-2.3 2.5.3.9h6v25.4c0 6.9 3.1 10.4 8.6 10.4 1.3-.1 2.5-.5 3.7-1.1l5.9-3.2zm-38.6-4.2c-1.9 1.7-4.4 2.8-7 3.1-3.5-.1-6.3-3-6.2-6.6v-.2c0-3.1 1.9-4.8 5.3-6.4 1.8-.9 6-2.7 7.8-3.7v13.8zm13.8 3.9l-.9-2.3c-1 .6-2 .9-3.1 1-1.5 0-3-1.3-3-5.2v-16.2c0-4.5-.9-8.1-3.9-10.6-2-1.6-4.6-2.4-7.1-2.4-4.7 1.2-9.1 3.3-13.1 6.1-1.6 1.2-2.8 2.2-2.8 3.5.2 2 1.8 3.6 3.8 3.7 1.2.1 2.3-.8 2.5-2 .4-2.1 1.3-4.1 2.6-5.7 1-1.1 2.4-1.8 3.9-1.7 4.4 0 7.3 3.6 7.3 9.9v1.6c-1.9 1.6-8.2 3.9-13.5 5.7-4.8 1.6-7.1 4.4-7.1 8.6-.1 5.8 4.6 10.6 10.4 10.6h.1c2.6 0 6.8-3.3 10.3-5.6.4 1.5 1.1 2.8 2.1 3.9 1.2 1 2.6 1.5 4.1 1.6l7.4-4.5zm-54.3-26.4v-9.4c-4 1.7-8.1 2.9-12.4 3.6v1.9c4.9.7 5.4 1.1 5.4 6.8v18.1c0 5.8-.6 6.3-6 6.8v2.3h20V193c-6.7-.5-7.2-1-7.2-6.8v-16c1.9-4.9 4.7-7.5 7-7.5 1.5 0 2.9.7 3.8 1.8.7.6 1.6.6 2.4.2 2.3-.9 3.5-3.4 2.7-5.8-.8-2.1-2.9-3.3-5-2.9-4.2 0-7.9 4.9-10.5 9.2h-.2zM381 195.1v-2.3c-4.9-.5-5.7-.9-5.7-6.7v-16.8c0-8.5-4.3-13.3-11.1-13.3-2.4.1-4.7.9-6.6 2.3-2.5 1.5-4.9 3.2-7.2 4.9-1.4-4.2-5.3-7.1-9.7-7.2-2.6.1-5.1.9-7.2 2.4-2.6 1.6-4.5 3.3-6.4 4.4v-7.1c-3.9 1.7-7.9 2.9-12.1 3.6v2c5 .8 5.3 1.2 5.3 6.8v18.1c0 5.7-.8 6.2-6.6 6.7v2.3h18.4v-2.3c-4.3-.5-4.9-1-4.9-6.7v-20.5c2.6-2.2 6-4.5 9.5-4.5 5.3 0 7.6 3.6 7.6 10v15c0 5.8-.8 6.2-6.2 6.7v2.3h18.6v-2.3c-4.8-.5-5.6-1-5.6-6.6v-17c0-1.2-.1-2.4-.3-3.7 3.3-2.8 6.6-4.5 9.8-4.5 5.5 0 7.7 3.9 7.7 10.1v14.6c0 6.2-1 6.6-6.1 7.1v2.3l18.8-.1zm-82.9-7.4c-1.9 1.7-4.4 2.8-7 3.1-3.5-.1-6.3-3-6.2-6.6v-.2c0-3.1 1.9-4.8 5.3-6.4 1.8-.9 6-2.7 7.8-3.7v13.8zm13.8 3.9l-.9-2.3c-1 .6-2 .9-3.1 1-1.5 0-3-1.3-3-5.2v-16.2c0-4.5-.9-8.1-3.9-10.6-2-1.6-4.6-2.4-7.1-2.4-4.7 1.2-9.2 3.3-13.2 6.1-1.6 1.2-2.8 2.2-2.8 3.5.2 2 1.8 3.6 3.8 3.7 1.2.1 2.3-.8 2.5-2 .4-2.1 1.3-4.1 2.6-5.7 1-1.1 2.4-1.8 3.9-1.7 4.4 0 7.3 3.6 7.3 9.9v1.6c-1.9 1.6-8.2 3.9-13.5 5.7-4.8 1.6-7.1 4.4-7.1 8.6-.1 5.8 4.6 10.6 10.4 10.6h.1c2.6 0 6.8-3.3 10.3-5.6.4 1.5 1.1 2.8 2.1 3.9 1.2 1 2.6 1.5 4.1 1.6l7.5-4.5zm-42.4-24.9c-.4-3.2-1-6.3-1.9-9.3-2.5-1-5.1-1.5-7.8-1.5-8 0-13.3 5.1-13.3 11.2 0 6.7 5.7 9.6 10.9 12 4.4 2 6.9 4.1 6.9 7.9 0 3.4-2.7 6.1-6.1 6.1h-.1c-5.2 0-9.1-5.1-10.7-10.8l-2.3.4c0 3.5.5 6.9 1.4 10.3 3 2 6.5 3 10 3 7 0 14.4-4.1 14.4-12 0-6-4.4-9.1-11-11.8-3.9-1.6-7.4-3.7-7.4-7.6-.1-3.1 2.3-5.8 5.4-5.9h.2c4.3 0 7.3 3.5 9 8.6l2.4-.6zm-58.8-1.9c2.4-1.7 5.9-3.7 8.7-3.7 6.4 0 11.7 5.2 11.7 14.6 0 9.9-4.9 16.1-12.2 16.1-3.1 0-6-1.3-8.2-3.4v-23.6zm0-2.9v-6.8c-4.1 1.7-8.3 2.9-12.6 3.7v2.1c5.4.7 5.7.9 5.7 6.6V207c0 5.7-.8 6.3-6.4 6.8v2.4H218v-2.4c-6.8-.6-7.4-1.1-7.4-7.7v-11.5c1.9 1 3.9 1.5 6 1.6 11.3-2.2 21.8-10.7 21.8-23.8 0-8.6-5.7-16.4-15.4-16.4-1.5.1-3 .6-4.3 1.3l-8 4.6zm-15.1 33.2v-2.3c-5.6-.5-6.2-1-6.2-7v-30c-4 1.6-8.1 2.8-12.4 3.4v2.1c5.2.9 5.5 1.2 5.5 6.6v18c0 5.9-.6 6.5-6.1 7v2.3l19.2-.1zm-10.2-46.8c2.4 0 4.4-2 4.4-4.4.1-2.4-1.8-4.4-4.2-4.5h-.2c-2.5 0-4.5 2.1-4.4 4.5.1 2.4 2 4.3 4.4 4.4m-14.5 37.1c-4 3.7-6.9 4.8-10.6 4.8-4.9 0-13.2-4-13.2-16.1 0-9.2 5.1-13.9 10.8-13.9 3.3 0 6.4 1.3 8.7 3.6.8.7 1.2 1 1.6 1 1.6-.6 2.7-2 2.8-3.7 0-1.1-.5-2.1-1.4-2.7-2.3-1.6-5-2.4-7.8-2.3-4.8.2-9.4 2-13.2 4.9-5.5 4-8.7 10.3-8.7 17.1 0 9.3 6.4 18.2 17.4 18.2 5.1 0 11-3.8 14.8-8.9l-1.2-2zM99.1 157H82.7v-2.4c0-6.1 1.2-10.2 2.6-12.4 1.3-2.5 4-3.9 6.8-3.8 3.9.1 7.6 2.2 9.6 5.6-.7 1.4-1.3 2.9-1.7 4.5-.5 2-.8 4.1-.8 6.1l-.1 2.4zm36.2 38.1v-2.3c-5.6-.5-6-1-6-6.4v-30.5c-5.4.9-10.8 1.3-16.3 1.1h-7v-3.5c0-6.3 1-11 2.7-13.3 1.2-2.1 3.4-3.3 5.8-3.3 4.4 0 6.8 3.1 8.6 5.1.6.8 1.8 1 2.6.4.1 0 .1-.1.2-.1.8-.6 1.5-1.3 2-2.2.5-1 .3-2.3-.5-3.1-2.4-2.7-5.8-4.3-9.4-4.2-4.8.6-9.3 2.9-12.8 6.3-1.5-2.1-4.8-4.4-10.2-4.5-4 .4-7.8 2-10.9 4.5-3.4 2.5-5.9 5.9-7.3 9.9-.6 2-.9 4.2-1 6.3v1.7h-4.1l-2.4 2.5.3.9h6.1V186c0 5.9-.6 6.3-5.8 6.8v2.3h18.5v-2.2c-5.3-.6-5.8-1.1-5.8-6.9v-25.6H99v26c0 5.5-.5 5.9-5.6 6.4v2.3h18.2v-2.3c-5.2-.5-5.8-1-5.8-6.4v-26H118c4.3 0 4.4.7 4.4 4.6v21.4c0 5.5-.7 5.9-5.5 6.4v2.3h18.4zm-90.1-36.2c7.6 0 11.7 8.2 11.7 18.5 0 11.9-4.4 16-9.9 16-7.2 0-11.9-8.2-11.9-19.2 0-9.9 4.7-15.3 10.1-15.3m.9-2.9c-7.9 0-19.1 6.6-19.1 20.9-.2 10.4 8.1 19.1 18.5 19.3h.6c8.6 0 18.9-6.7 18.9-20.8.3-10.4-8-19.1-18.4-19.4h-.5m-19.5-23.3c-5.5 1.4-11.3 5.1-11.3 11.3-.1 4.7 3.5 8.6 8.2 8.8h.1c1.9.1 3.6-1.4 3.7-3.3 0-1.1-.6-1.6-1.1-1.7-3-.5-5.5-2.4-5.5-5.5 0-3.6 2.5-5.5 6.8-7.3l-.9-2.3zm-15.3 0C5.8 134.1 0 137.8 0 144c-.1 4.7 3.5 8.6 8.2 8.8 1.9.1 3.6-1.4 3.7-3.3.1-.8-.4-1.5-1.2-1.7-2.9-.5-5.4-2.4-5.4-5.5 0-3.6 2.5-5.5 6.8-7.3l-.8-2.3zm726.5-53.4c-2.1-.2-4 1.4-4.2 3.6 0 1.5.6 2.1 1.1 2.2 3 .7 5.5 2.7 5.5 5.8 0 3.1-2.5 5.6-6.7 7.3l1 2.5c5.3-1.6 11.4-5.3 11.4-12-.1-6.1-5-9.4-8.1-9.4m-8.8 8.1l-.8-2.3c-1.7.9-3.5 1.4-5.4 1.5-2.2 0-5.1-1.3-5.1-8.4V55.8h9.3c1.1-.8 1.3-2.3.5-3.4h-9.9V40.5l-1.2-.2-5.6 5.8v6.4h-4l-2.4 2.5.3.9h6v25.4c0 6.9 3 10.4 8.5 10.4 1.3-.1 2.5-.5 3.7-1.1l6.1-3.2zm-29.6-25.2c-.4-3.2-1-6.3-1.9-9.3-2.5-1-5.1-1.5-7.8-1.5-8 0-13.3 5.1-13.3 11.2 0 6.7 5.7 9.6 10.9 12 4.4 2 6.9 4.1 6.9 7.9 0 3.4-2.7 6.1-6.1 6.1h-.1c-5.2 0-9.1-5.1-10.7-10.8l-2.3.4c0 3.5.5 6.9 1.4 10.3 3 2 6.5 3 10 3 7 0 14.4-4.1 14.4-12 0-6-4.4-9.1-11-11.8-3.9-1.6-7.4-3.7-7.4-7.6-.2-3.1 2.2-5.8 5.3-6h.3c4.3 0 7.3 3.5 9 8.6l2.4-.5zm-45.3-7.6c4.8 0 7.8 4.2 7.7 8.7 0 1.2-.5 1.7-2.1 1.7-5.1.2-9.9.2-14.8.2 1.3-6.9 5.1-10.6 9.2-10.6m13.3 26.7c-2.6 2.7-6.1 4.3-9.9 4.4-6.1 0-12.9-4.9-13-16.7 10.4-.3 21.3-1.2 22.8-1.5 1.5-.3 2-1.1 2-2.8-.1-7.2-5.9-13-13.1-13.3-5 .2-9.6 2.5-12.8 6.4-3.8 4.2-5.8 9.6-5.8 15.3 0 9.9 6.3 18.6 17 18.6 2.7 0 8.7-1.6 14.2-8.5l-1.4-1.9zM619 60.6v-9.5c-3.9 1.7-8.1 2.9-12.3 3.6v1.9c4.9.7 5.4 1.1 5.4 6.8v18.1c0 5.8-.6 6.3-6 6.8v2.2h20v-2.2c-6.7-.5-7.1-1-7.1-6.8v-16c1.9-4.9 4.7-7.5 7-7.5 1.4 0 2.8.7 3.7 1.8.7.5 1.6.6 2.4.2 1.7-.8 2.7-2.4 2.8-4.3-.3-2.5-2.5-4.4-5.1-4.4-4.2 0-7.9 4.9-10.5 9.2l-.3.1zm-37.8-6.3c7.6 0 11.7 8.2 11.7 18.5 0 11.9-4.4 16-9.9 16-7.2 0-11.9-8.2-11.9-19.2 0-9.9 4.7-15.3 10.1-15.3m.9-2.9c-7.9 0-19.1 6.6-19.1 20.9-.2 10.4 8.1 19 18.5 19.2h.7c8.6 0 18.9-6.7 18.9-20.8.3-10.4-7.9-19.1-18.4-19.4-.1.1-.3.1-.6.1m-54 6.5c2.1-1.1 4.4-1.7 6.8-1.6 7.2 0 13.3 5.8 13.3 15.7s-4.6 16.3-11.9 16.3c-3.4.1-6.4-1.9-7.8-4.9-.4-.9-.6-2-.5-3V57.9zm0-2.6V28.5c-4.1 1.4-8.3 2.4-12.6 3v2c5.6.5 5.8 1.1 5.8 6.4v48.5c4 2 8.4 3 12.8 3.1 12 .1 21.8-9.5 21.9-21.4v-.4c0-10.3-7.8-18.3-17.2-18.3-1.2 0-2.4.3-3.6.9l-7.1 3zm-26.9 28c-1.9 1.7-4.4 2.8-7 3.1-3.5-.1-6.3-3-6.2-6.6v-.1c0-3.1 1.9-4.8 5.3-6.4 1.8-.9 6-2.7 7.8-3.7v13.7zm13.7 3.9l-.9-2.3c-.9.6-2 .9-3.1 1-1.5 0-3.1-1.3-3.1-5.2V64.4c0-4.5-.9-8.1-3.9-10.6-2-1.6-4.6-2.4-7.2-2.4-4.7 1.2-9.1 3.3-13.1 6.1-1.6 1.2-2.8 2.2-2.8 3.5.2 2 1.8 3.6 3.8 3.7 1.2.1 2.3-.8 2.5-2 .4-2.1 1.3-4.1 2.6-5.7 1-1.2 2.4-1.8 3.9-1.7 4.4 0 7.3 3.6 7.3 9.9v1.6c-1.9 1.6-8.2 3.9-13.5 5.7-4.8 1.6-7.1 4.4-7.1 8.6-.1 5.8 4.6 10.6 10.4 10.6h.1c2.6 0 6.8-3.3 10.3-5.6.4 1.5 1.1 2.8 2.1 3.9 1.2 1 2.6 1.5 4.1 1.6l7.6-4.4zm-39.3 3.3v-2.2c-5.6-.5-6.3-1-6.3-6.8v-53c-4.2 1.4-8.5 2.4-12.9 3v2.1c5.5.4 6 .7 6 6.6v41.3c0 5.8-.8 6.3-6.3 6.8v2.2h19.5zm-41.1-3.2l-.8-2.3c-1.7.9-3.5 1.4-5.4 1.5-2.2 0-5-1.3-5-8.4V55.8h9.3c1.1-.8 1.3-2.3.5-3.4h-9.9V40.5l-1.2-.2-5.7 5.8v6.4h-4l-2.4 2.5.4.9h6v25.4c0 6.9 3.1 10.4 8.6 10.4 1.3-.1 2.5-.5 3.7-1.1l5.9-3.3zm-26.4 3.2v-2.2c-5.1-.5-5.5-.9-5.5-6.8V64.6c0-8.5-4.4-13.3-11.2-13.3-2.6.2-5.1 1.1-7.2 2.6-2.2 1.5-4.1 2.8-5.8 4.1v-7c-3.9 1.7-7.9 2.9-12.1 3.6v2c4.7.9 5.2 1.1 5.2 6.7v18.1c0 5.8-.4 6.2-6.4 6.8v2.2H384v-2.2c-5.1-.5-5.7-.9-5.7-6.8V61c2.6-2.3 6-4.4 9.5-4.4 5.8 0 7.9 3.9 7.9 9.9v14.6c0 6-.6 6.7-5.8 7.2v2.3h18.2zm-63-35.9c4.8 0 7.8 4.2 7.7 8.7 0 1.2-.5 1.7-2.1 1.7-5.1.2-9.9.2-14.8.2 1.3-6.9 5.2-10.6 9.2-10.6m13.4 26.7c-2.6 2.7-6.1 4.3-9.9 4.4-6.1 0-12.9-4.9-13-16.7 10.4-.3 21.3-1.2 22.8-1.5 1.5-.3 2-1.1 2-2.8-.1-7.2-5.9-13-13.1-13.3-5 .2-9.6 2.5-12.8 6.4-3.8 4.2-5.8 9.6-5.7 15.3 0 9.9 6.3 18.6 17 18.6 2.7 0 8.7-1.6 14.2-8.5l-1.5-1.9zM324 90.5v-2.2c-5.1-.4-5.7-1-5.7-6.7V66.3c0-10.5-4.9-14.9-12-14.9-4.7 0-9.4 3.3-12.5 6.4V28.5c-4.2 1.3-8.5 2.3-12.8 3v2c5.8.5 5.9 1 5.9 6.4v41.6c0 5.8-.8 6.3-6 6.7v2.2h18.5v-2.2c-5.1-.5-5.6-1.1-5.6-6.7V60.9c2.2-2.7 5.6-4.3 9.1-4.4 5.8 0 8.5 3.6 8.5 10.7v14.5c0 5.7-.7 6.2-5.8 6.7v2.2H324zm-61.8-35.9c4.8 0 7.8 4.2 7.7 8.7 0 1.2-.5 1.7-2.1 1.7-5 .2-9.9.2-14.8.2 1.3-6.9 5.1-10.6 9.2-10.6m13.3 26.7c-2.6 2.7-6.1 4.3-9.9 4.4-6.1 0-12.9-4.9-13-16.7 10.4-.3 21.3-1.2 22.7-1.5 1.5-.3 2-1.1 2-2.8-.1-7.2-5.9-13-13.1-13.3-5 .2-9.6 2.5-12.8 6.4-3.8 4.2-5.8 9.6-5.8 15.3 0 9.9 6.3 18.6 17 18.6 2.7 0 8.7-1.6 14.2-8.5l-1.3-1.9zm-48.4-20.7v-9.5c-3.9 1.7-8.1 2.9-12.3 3.6v1.9c4.9.7 5.4 1.1 5.4 6.8v18.1c0 5.8-.6 6.3-6 6.8v2.2h20v-2.2c-6.7-.5-7.2-1-7.2-6.8v-16c1.9-4.9 4.7-7.5 7-7.5 1.4 0 2.8.7 3.7 1.8.7.6 1.6.6 2.4.2 1.6-.8 2.7-2.4 2.8-4.3-.3-2.5-2.5-4.4-5-4.4-4.2 0-7.9 4.9-10.5 9.2l-.3.1zm-36.2 26.8l-.8-2.3c-1.7.9-3.5 1.4-5.4 1.5-2.2 0-5-1.3-5-8.4V55.8h9.3c1.1-.8 1.3-2.3.5-3.4h-9.9V40.5l-1.2-.2-5.6 5.8v6.4h-4l-2.4 2.5.4.9h6v25.4c0 6.9 3.1 10.4 8.6 10.4 1.3-.1 2.5-.5 3.7-1.1l5.8-3.2zm-29.6-25.2c-.4-3.2-1.1-6.3-1.9-9.3-2.5-1-5.1-1.5-7.8-1.5-8 0-13.2 5.1-13.2 11.2 0 6.7 5.7 9.6 10.9 12 4.4 2 6.9 4.1 6.9 7.9 0 3.4-2.7 6.1-6.1 6.1h-.1c-5.2 0-9.2-5.1-10.7-10.8l-2.3.4c0 3.5.5 6.9 1.4 10.3 3 2 6.5 3 10 3 7 0 14.4-4.1 14.4-12 0-6-4.4-9.1-11-11.8-3.9-1.6-7.4-3.7-7.4-7.6-.2-3.1 2.2-5.8 5.3-6h.3c4.3 0 7.3 3.5 9 8.6l2.3-.5zM116 54.6c4.8 0 7.8 4.2 7.7 8.7 0 1.2-.5 1.7-2.1 1.7-5 .2-9.9.2-14.8.2 1.3-6.9 5.2-10.6 9.2-10.6m13.3 26.7c-2.6 2.7-6.1 4.3-9.9 4.4-6.1 0-12.9-4.9-13-16.7 10.4-.3 21.3-1.2 22.7-1.5s2-1.1 2-2.8c-.1-7.2-5.9-13.1-13.2-13.3-5 .2-9.6 2.6-12.8 6.4-3.8 4.2-5.8 9.6-5.8 15.3 0 9.9 6.3 18.6 17 18.6 2.7 0 8.7-1.6 14.2-8.5l-1.2-1.9zM95 90.5v-2.2c-5.6-.5-6.2-1.1-6.2-6.8v-53c-4.2 1.4-8.5 2.4-12.9 3v2.1c5.5.4 6 .7 6 6.6v41.3c0 5.8-.8 6.3-6.3 6.8v2.2H95zM50.2 66.1h-16c2.6-7.1 5.4-14.8 8.2-22.2h.2l7.6 22.2zm22.3 24.4v-2.4c-5.7-.5-6.8-1.3-9.6-8.8-5.6-15.1-11.4-31.7-16.8-46.7l-2.7.8-18.1 45.7c-3.1 7.7-4.3 8.2-9.8 9v2.4h19v-2.4c-6.6-.6-7.3-1.5-5.4-7 1.1-3.7 2.4-7.3 3.8-11.2h18.5c1.9 5.3 3.7 10 4.8 13.4s.4 4.1-5.1 4.8v2.4h21.4z" class="st0"/><path d="M28.5 0v354.5" class="st1"/></g></g></svg>