<svg xmlns="http://www.w3.org/2000/svg" id="Layer_1" viewBox="0 0 800 659.3" width="800" height="659.3"><style>.st0{fill:#2997ff}</style><path d="M262 83.2L248.4.1h96.5c17.6 22 18.4 27.6 45.9 27.6h162.4l-13.3 55.4h-28.1l6.5-27.6H390.8c-32.2 0-43.8-8.5-59.4-27.6h-51.2l9.6 55.4H262v-.1zM567.2 111l-27.6 166.3H262.3L234.5 111h87l32.1-41.6 54.1 41.6H435l-19.8-15.2 20.3-26.4 53.9 41.6h77.8zm-32.3 27.6H267l19.3 110.9h229.6l19-110.9zm150.3 283.5c44.9 0 28.5 64.6 28.5 64.6s64.6-17.7 64.6 26.4v124.5H605.9V422.1h79.3zm8.9-21.7H584.2v258.8H800V504.1c0-25.7-71.8-103.7-105.9-103.7zm51.8 140.2h-28.3v39.7h9.7v-15.9h16v-7.8h-16v-7.5h18.6v-8.5zm-52.7 0H676v39.7h17.2c5.8 0 10.4-1.9 13.6-5.8 6-7.2 6.3-22-.7-29-3.2-3.2-7.6-4.9-12.9-4.9zm-7.5 8.6h5.3c5.1 0 8.7 1.9 9.9 7 .7 2.9.9 7.3-.2 10.2-1.4 3.8-4.1 5.6-8.2 5.6h-6.8v-22.8zm-29.5-8.6h-17.9v39.7h9.7v-13.8h8.2c6.7 0 11.4-3.1 13.1-8.2 1-3.1 1-6.5 0-9.6-1.7-5-6.4-8.1-13.1-8.1zm-8.2 7.9h6c2.6 0 5.1.3 6.1 2.4.7 1.7.7 3.6 0 5.3-1.2 2.2-3.8 2.4-6.1 2.4h-6v-10.1zM110 400.4H0v258.8h215.6V504c0-26-71.1-103.6-105.6-103.6zm84.1 237.3H21.5V422.1h79.8c44.2 0 28 64.6 28 64.6s64.6-18.3 64.6 27v124h.2zM39.4 541.3h-7.3v28.3h18.8v-6.3H39.4v-22zm22.9 0l-10.6 28.3h8l1.4-4.3h11.8l1.4 4.3h8l-10.7-28.3h-9.3zm.6 17.9l3.9-11.4 3.9 11.4h-7.8zm33.3-17.9l-6.1 10.4-6.1-10.4h-8.2l10.7 16.9v11.4h7.3v-11.4l10.7-16.9h-8.3zm20.6-.5c-8.7 0-15.2 6-15.2 14.7s6.5 14.7 15.2 14.7 15.2-6 15.2-14.7c0-8.5-6.5-14.7-15.2-14.7zm0 22.9c-4.8 0-7.7-3.6-7.7-8.2s3.1-8.2 7.7-8.2 7.7 3.6 7.7 8.2-3.1 8.2-7.7 8.2zm36-5.8c0 3.4-1.7 5.8-5.6 5.8s-5.8-2.4-5.8-5.8v-16.5h-7.5v16.9c0 7 4.1 11.9 13.1 11.9s13.1-4.9 13.1-11.9v-16.9h-7.5v16.5h.2zm9.2-10.3h8v22h7.3v-22h7.8v-6.3H162v6.3zm428.9-354.8c1.7-1.7 2.7-4.1 2.7-6.7 0-.7 0-1.2-.2-1.9s-.3-1.2-.5-1.7-.5-1-.9-1.7c-.3-.5-.7-1-1.2-1.4-2.2-2.2-5.5-3.2-8.5-2.6-.5.2-1.2.3-1.7.5s-1 .5-1.5.9c-.5.3-1 .7-1.4 1.2-.3.3-.9.9-1.2 1.4s-.7 1-.9 1.7c-.2.5-.3 1.2-.5 1.7-.2.7-.2 1.2-.2 1.9 0 2.4 1 4.9 2.7 6.7.5.5.9.9 1.4 1.2.5.3 1 .7 1.5.9.5.2 1.2.3 1.7.5.7.2 1.2.2 1.9.2 2.7 0 5.1-.9 6.8-2.8zm55.9-6.6c0-5.1 4.3-9.4 9.4-9.4 5.1 0 9.4 4.3 9.4 9.4 0 5.1-4.3 9.4-9.4 9.4-5.3 0-9.4-4.1-9.4-9.4zm-36 0c0-5.1 4.3-9.4 9.4-9.4 5.1 0 9.4 4.3 9.4 9.4 0 5.1-4.3 9.4-9.4 9.4-5.1 0-9.4-4.1-9.4-9.4zm87.9 6.6c.3-.3.9-.9 1.2-1.4.3-.5.7-1 .9-1.7.2-.5.3-1.2.5-1.7.2-.7.2-1.2.2-1.9 0-2.4-1-4.9-2.7-6.7-.5-.3-.9-.9-1.4-1.2-.5-.3-1-.7-1.7-.9-.5-.2-1.2-.3-1.7-.5-3.1-.7-6.3.3-8.5 2.6-1.7 1.7-2.7 4.3-2.7 6.7 0 .7 0 1.2.2 1.9s.3 1.2.5 1.7.5 1 .9 1.7c.3.5.7 1 1.2 1.4.3.5.9.9 1.4 1.2.5.3 1 .7 1.7.9.5.2 1.2.3 1.7.5.7.2 1.2.2 1.9.2 2.3 0 4.7-.9 6.4-2.8zm-16.1 146.9c0-5.1 4.3-9.4 9.4-9.4 5.1 0 9.4 4.3 9.4 9.4s-4.3 9.4-9.4 9.4c-5.1 0-9.4-4.3-9.4-9.4zm0-38.4c0-5.1 4.3-9.4 9.4-9.4 5.1 0 9.4 4.3 9.4 9.4 0 5.1-4.3 9.4-9.4 9.4-5.1 0-9.4-4.3-9.4-9.4zm0-38.4c0-5.1 4.3-9.4 9.4-9.4 5.1 0 9.4 4.3 9.4 9.4s-4.3 9.4-9.4 9.4c-5.1 0-9.4-4.2-9.4-9.4zm0-38.3c0-5.1 4.3-9.4 9.4-9.4 5.1 0 9.4 4.3 9.4 9.4 0 5.1-4.3 9.4-9.4 9.4-5.1-.1-9.4-4.1-9.4-9.4zm16.1 160c.3-.3.9-.9 1.2-1.4.3-.5.7-1 .9-1.5.2-.5.3-1.2.5-1.7.2-.7.2-1.2.2-1.9 0-2.6-1-4.9-2.7-6.7-2.2-2.2-5.5-3.2-8.5-2.6-.5.2-1.2.3-1.7.5s-1.2.5-1.7.9c-.5.3-1 .7-1.4 1.2-1.7 1.7-2.7 4.1-2.7 6.7 0 2.4 1 4.9 2.7 6.7 1.7 1.7 4.1 2.7 6.7 2.7 2.4-.2 4.8-1.2 6.5-2.9zm-471-191.8c.3-.5.9-.9 1.2-1.4.3-.5.7-1 .9-1.7.2-.5.3-1.2.5-1.7s.2-1.2.2-1.9 0-1.2-.2-1.9-.3-1.2-.5-1.7-.5-1-.9-1.7c-.3-.5-.7-1-1.2-1.4-1.7-1.7-4.1-2.7-6.7-2.7-2.4 0-4.9 1-6.7 2.7-.3.5-.9.9-1.2 1.4-.3.5-.7 1-.9 1.7-.2.5-.3 1.2-.5 1.7-.2.7-.2 1.2-.2 1.9s0 1.2.2 1.9.3 1.2.5 1.7.5 1 .9 1.7c.3.5.7 1 1.2 1.4 1.7 1.7 4.1 2.7 6.7 2.7 2.5.2 5-.8 6.7-2.7zm-52-6.6c0-5.1 4.3-9.4 9.4-9.4 5.1 0 9.4 4.3 9.4 9.4 0 5.1-4.3 9.4-9.4 9.4-5.1.1-9.4-4.1-9.4-9.4zm-36 0c0-5.1 4.3-9.4 9.4-9.4 5.1 0 9.4 4.3 9.4 9.4 0 5.1-4.3 9.4-9.4 9.4-5.1.1-9.4-4.1-9.4-9.4zm-19.8 6.6c1.7-1.7 2.7-4.1 2.7-6.7 0-.7 0-1.2-.2-1.9s-.3-1.2-.5-1.7-.5-1-.9-1.7c-.3-.5-.7-1-1.2-1.4-2.2-2.2-5.5-3.2-8.5-2.6-.7.2-1.2.3-1.7.5s-1.2.5-1.7.9c-.5.3-1 .7-1.4 1.2-.5.3-.9.9-1.2 1.4-.3.5-.7 1-.9 1.7-.2.7-.3 1.2-.5 1.7-.2.7-.2 1.2-.2 1.9s0 1.2.2 1.9.3 1.2.5 1.7.5 1 .9 1.7c.3.5.7 1 1.2 1.4 1.7 1.7 4.1 2.7 6.7 2.7 2.5.1 4.8-.8 6.7-2.7zm-16 146.9c0-5.1 4.3-9.4 9.4-9.4s9.4 4.3 9.4 9.4-4.3 9.4-9.4 9.4c-5.3-.2-9.4-4.3-9.4-9.4zm0-38.4c0-5.1 4.3-9.4 9.4-9.4s9.4 4.3 9.4 9.4c0 5.1-4.3 9.4-9.4 9.4-5.3 0-9.4-4.3-9.4-9.4zm0-38.4c0-5.1 4.3-9.4 9.4-9.4s9.4 4.3 9.4 9.4-4.3 9.4-9.4 9.4c-5.3 0-9.4-4.2-9.4-9.4zm0-38.3c0-5.1 4.3-9.4 9.4-9.4s9.4 4.3 9.4 9.4c0 5.1-4.3 9.4-9.4 9.4-5.3-.1-9.4-4.1-9.4-9.4zm16 160c1.7-1.7 2.7-4.1 2.7-6.7 0-2.6-1-4.9-2.7-6.7-1.7-1.7-4.1-2.7-6.7-2.7-2.6 0-4.9 1-6.7 2.7-.5.5-.9.9-1.2 1.4-.3.5-.7 1-.9 1.7-.2.7-.3 1.2-.5 1.7s-.2 1.2-.2 1.9c0 2.4 1 4.9 2.7 6.7 1.7 1.7 4.1 2.7 6.7 2.7 2.7 0 4.9-1 6.8-2.7z" class="st0"/></svg>