<svg xmlns="http://www.w3.org/2000/svg" id="Layer_1" viewBox="0 0 300 247.2" width="300" height="247.2"><style>.st0{fill:#2997ff}</style><path d="M260.3 150.2h-41.2v97H300V189c0-9.6-26.9-38.8-39.7-38.8zm31.6 88.9h-64.6v-80.8H257c16.8 0 10.7 24.2 10.7 24.2s24.2-6.6 24.2 9.9v46.7zM98.2 31.2L93.1 0h36.2c6.6 8.2 6.9 10.4 17.2 10.4h60.9l-5 20.8h-10.5l2.4-10.4h-47.8c-12.1 0-16.4-3.2-22.3-10.4H105l3.6 20.8H98.2z" class="st0"/><path d="M183.4 41.6L163.2 26l-7.6 9.9 7.4 5.7h-10.2L132.5 26l-12 15.6H87.9L98.4 104h104l10.3-62.4h-29.3zm10 52h-86.1L100.1 52h100.5l-7.2 41.6zM41.2 150.2H0v97h80.9V189c0-9.8-26.7-38.8-39.7-38.8zM8.1 239.1v-80.9H38c16.6 0 10.5 24.2 10.5 24.2s24.2-6.9 24.2 10.1l.1 46.6H8.1zM221.6 72.3c.6-.6 1-1.5 1-2.5 0-.3 0-.5-.1-.7-.1-.3-.1-.4-.2-.6l-.3-.6c-.1-.2-.3-.4-.4-.5-.8-.8-2.1-1.2-3.2-1-.2.1-.4.1-.6.2l-.6.3c-.2.1-.4.3-.5.4s-.3.3-.4.5-.3.4-.3.6c-.1.2-.1.4-.2.6-.1.3-.1.5-.1.7 0 .9.4 1.8 1 2.5.2.2.3.3.5.4s.4.3.6.3.4.1.6.2c.3.1.5.1.7.1.9.2 1.8-.2 2.5-.9zm20.9-2.5c0-1.9 1.6-3.5 3.5-3.5s3.5 1.6 3.5 3.5-1.6 3.5-3.5 3.5c-1.9.1-3.5-1.5-3.5-3.5z" class="st0"/><circle cx="232.5" cy="69.8" r="3.5" class="st0"/><path d="M262 72.3l.5-.5c.1-.2.3-.4.3-.6.1-.2.1-.4.2-.6.1-.3.1-.4.1-.7 0-.9-.4-1.8-1-2.5-.2-.1-.3-.3-.5-.4s-.4-.3-.6-.3c-.2-.1-.5-.1-.6-.2-1.2-.3-2.4.1-3.2 1-.6.6-1 1.6-1 2.5 0 .3 0 .4.1.7.1.3.1.4.2.6l.3.6c.1.2.3.4.4.5.1.2.3.3.5.4s.4.3.6.3c.2.1.5.1.6.2.3.1.5.1.7.1.9 0 1.8-.4 2.4-1.1z" class="st0"/><circle cx="259.5" cy="127.4" r="3.5" class="st0"/><circle cx="259.5" cy="113" r="3.5" class="st0"/><circle cx="259.5" cy="98.6" r="3.5" class="st0"/><circle cx="259.5" cy="84.2" r="3.5" class="st0"/><path d="M262 144.2l.5-.5c.1-.2.3-.4.3-.6s.1-.5.2-.6c.1-.3.1-.4.1-.7 0-1-.4-1.8-1-2.5-.8-.8-2.1-1.2-3.2-1-.2.1-.5.1-.6.2l-.6.3c-.2.1-.4.3-.5.4-.6.6-1 1.5-1 2.5 0 .9.4 1.8 1 2.5.6.6 1.5 1 2.5 1 .8 0 1.7-.3 2.3-1zM85.4 72.3c.1-.2.3-.3.4-.5s.3-.4.3-.6c.1-.2.1-.4.2-.6s.1-.4.1-.7c0-.3 0-.5-.1-.7s-.1-.4-.2-.6l-.3-.6c-.1-.2-.3-.4-.4-.5-.6-.6-1.5-1-2.5-1-.9 0-1.8.4-2.5 1-.1.2-.3.3-.4.5s-.3.4-.3.6c-.1.2-.1.4-.2.6-.1.3-.1.4-.1.7 0 .3 0 .4.1.7s.1.4.2.6l.3.6c.1.2.3.4.4.5.6.6 1.5 1 2.5 1 .9.1 1.9-.3 2.5-1zm-19.5-2.5c0-1.9 1.6-3.5 3.5-3.5s3.5 1.6 3.5 3.5-1.6 3.5-3.5 3.5c-1.9.1-3.5-1.5-3.5-3.5zm-13.5 0c0-1.9 1.6-3.5 3.5-3.5s3.5 1.6 3.5 3.5-1.6 3.5-3.5 3.5c-1.9.1-3.5-1.5-3.5-3.5zM45 72.3c.6-.6 1-1.5 1-2.5 0-.3 0-.4-.1-.7-.1-.3-.1-.4-.2-.6l-.3-.6c-.1-.2-.3-.4-.5-.5-.8-.8-2.1-1.2-3.2-1-.3.1-.4.1-.6.2s-.5.2-.6.3c-.2.1-.4.3-.5.5-.2.1-.3.3-.5.5s-.3.4-.3.6c-.1.3-.1.5-.2.6-.1.3-.1.4-.1.7s0 .4.1.7c.1.3.1.4.2.6l.3.6c.1.2.3.4.5.5.6.6 1.5 1 2.5 1 .9.2 1.8-.2 2.5-.9zm-6 55.1c0-1.9 1.6-3.5 3.5-3.5s3.5 1.6 3.5 3.5-1.6 3.5-3.5 3.5c-2-.1-3.5-1.6-3.5-3.5z" class="st0"/><circle cx="42.5" cy="113" r="3.5" class="st0"/><circle cx="42.5" cy="98.6" r="3.5" class="st0"/><circle cx="42.5" cy="84.2" r="3.5" class="st0"/><path d="M45 144.2c.6-.6 1-1.5 1-2.5s-.4-1.8-1-2.5c-.6-.6-1.5-1-2.5-1s-1.8.4-2.5 1l-.5.5c-.2.2-.3.4-.3.6-.1.3-.1.4-.2.6-.1.2-.1.5-.1.7 0 .9.4 1.8 1 2.5.6.6 1.5 1 2.5 1 1 .1 1.9-.2 2.6-.9z" class="st0"/></svg>