<svg xmlns="http://www.w3.org/2000/svg" id="Layer_1" viewBox="0 0 240 218.2" width="240" height="218.2"><style>.st0{fill:#2997ff}</style><path d="M208.2 120.2h-33v77.6H240v-46.6c0-7.7-21.5-31-31.8-31zm25.3 71.1h-51.7v-64.6h23.8c13.4 0 8.6 19.4 8.6 19.4s19.4-5.3 19.4 7.9l-.1 37.3zM78.6 25L74.5 0h29c5.3 6.6 5.5 8.3 13.8 8.3H166l-4 16.6h-8.4l1.9-8.3h-38.2c-9.7 0-13.1-2.6-17.8-8.3H84L86.9 25h-8.3z" class="st0"/><path d="M146.7 33.3l-16.2-12.5-6.1 7.9 5.9 4.6h-8.2L106 20.8l-9.6 12.5H70.3l8.4 49.9h83.2l8.2-49.9h-23.4zm8 41.6H85.8L80 41.6h80.4l-5.7 33.3zM33 120.2H0v77.6h64.7v-46.6c0-7.8-21.3-31-31.7-31zM6.5 191.3v-64.7h23.9c13.3 0 8.4 19.4 8.4 19.4s19.4-5.5 19.4 8.1l.1 37.3H6.5v-.1zM177.3 57.8c.5-.5.8-1.2.8-2 0-.2 0-.4-.1-.6-.1-.2-.1-.3-.2-.5l-.2-.5c-.1-.2-.2-.3-.3-.4-.6-.6-1.7-1-2.6-.8-.2.1-.3.1-.5.2l-.5.2c-.2.1-.3.2-.4.3s-.2.2-.3.4-.2.3-.2.5c-.1.2-.1.3-.2.5s-.1.4-.1.6c0 .7.3 1.4.8 2 .2.2.2.2.4.3s.3.2.5.2.3.1.5.2.4.1.6.1c.7.2 1.4-.1 2-.7zm16.7-2c0-1.5 1.3-2.8 2.8-2.8s2.8 1.3 2.8 2.8-1.3 2.8-2.8 2.8c-1.5.1-2.8-1.2-2.8-2.8z" class="st0"/><circle cx="186" cy="55.8" r="2.8" class="st0"/><path d="M209.6 57.8l.4-.4c.1-.2.2-.3.2-.5.1-.2.1-.3.2-.5s.1-.3.1-.6c0-.7-.3-1.4-.8-2-.2-.1-.2-.2-.4-.3s-.3-.2-.5-.2c-.2-.1-.4-.1-.5-.2-1-.2-1.9.1-2.6.8-.5.5-.8 1.3-.8 2 0 .2 0 .3.1.6.1.2.1.3.2.5l.2.5c.1.2.2.3.3.4.1.2.2.2.4.3s.3.2.5.2c.2.1.4.1.5.2.2.1.4.1.6.1.7 0 1.4-.3 1.9-.9z" class="st0"/><circle cx="207.6" cy="101.9" r="2.8" class="st0"/><circle cx="207.6" cy="90.4" r="2.8" class="st0"/><circle cx="207.6" cy="78.9" r="2.8" class="st0"/><circle cx="207.6" cy="67.4" r="2.8" class="st0"/><path d="M209.6 115.4l.4-.4c.1-.2.2-.3.2-.5s.1-.4.2-.5c.1-.2.1-.3.1-.6 0-.8-.3-1.4-.8-2-.6-.6-1.7-1-2.6-.8-.2.1-.4.1-.5.2l-.5.2c-.2.1-.3.2-.4.3-.5.5-.8 1.2-.8 2 0 .7.3 1.4.8 2 .5.5 1.2.8 2 .8.7.1 1.4-.2 1.9-.7zM68.3 57.8c.1-.2.2-.2.3-.4.1-.2.2-.3.2-.5.1-.2.1-.3.2-.5s.1-.3.1-.6c0-.2 0-.4-.1-.6 0 0 0-.2-.1-.3l-.2-.5c-.1-.2-.2-.3-.3-.4-.5-.5-1.2-.8-2-.8-.7 0-1.4.3-2 .8-.1.2-.2.2-.3.4-.1.2-.2.3-.2.5-.1.2-.1.3-.2.5s-.1.3-.1.6c0 .2 0 .3.1.6.1.2.1.3.2.5l.2.5c.1.2.2.3.3.4.5.5 1.2.8 2 .8.6-.1 1.4-.4 1.9-1zm-15.6-2c0-1.5 1.3-2.8 2.8-2.8s2.8 1.3 2.8 2.8-1.3 2.8-2.8 2.8c-1.5.1-2.8-1.2-2.8-2.8zm-10.8 0c0-1.5 1.3-2.8 2.8-2.8s2.8 1.3 2.8 2.8-1.3 2.8-2.8 2.8c-1.5.1-2.8-1.2-2.8-2.8zm-5.9 2c.5-.5.8-1.2.8-2 0-.2 0-.3-.1-.6-.1-.2-.1-.3-.2-.5l-.2-.5c-.1-.2-.2-.3-.4-.4-.6-.6-1.7-1-2.6-.8-.2.1-.3.1-.5.2s-.4.2-.5.2c-.2.1-.3.2-.4.4-.2.1-.2.2-.4.4s-.2.3-.2.5c-.1.2-.1.4-.2.5-.1.2-.1.3-.1.6 0 .2 0 .3.1.6.1.2.1.3.2.5l.2.5c.1.2.2.3.4.4.5.5 1.2.8 2 .8.8.1 1.5-.2 2.1-.8zm-4.8 44.1c0-1.5 1.3-2.8 2.8-2.8s2.8 1.3 2.8 2.8-1.3 2.8-2.8 2.8c-1.6-.1-2.8-1.3-2.8-2.8z" class="st0"/><circle cx="34" cy="90.4" r="2.8" class="st0"/><circle cx="34" cy="78.9" r="2.8" class="st0"/><circle cx="34" cy="67.4" r="2.8" class="st0"/><path d="M36 115.4c.5-.5.8-1.2.8-2s-.3-1.4-.8-2c-.5-.5-1.2-.8-2-.8s-1.4.3-2 .8l-.4.4c-.2.2-.2.3-.2.5-.1.2-.1.3-.2.5s-.1.4-.1.6c0 .7.3 1.4.8 2 .5.5 1.2.8 2 .8s1.5-.3 2.1-.8zm-18.6 98.1c0 .8-.6 1.4-1.4 1.4-.8 0-1.4-.6-1.4-1.4 0-.7.6-1.4 1.4-1.4.8.1 1.4.7 1.4 1.4zm4.2-10.4c0 .8-.6 1.3-1.4 1.3-.8 0-1.4-.6-1.4-1.3 0-.8.6-1.3 1.4-1.3.8 0 1.4.6 1.4 1.3zm-.3 11.5H19v-8.5h2.3v8.5zm9.3-6.1v6.2h-2.3v-5.8c0-1-.4-1.2-.9-1.2-.7 0-1.2.4-1.6 1.2v5.9h-2.3v-8.5h2l.2 1.1c.7-.8 1.5-1.3 2.6-1.3 1.4-.2 2.3.8 2.3 2.4zm9.4-5.7v11.9h-2l-.1-1c-.5.7-1.3 1.3-2.4 1.3-2.1 0-3.2-1.8-3.2-4.5 0-2.6 1.3-4.5 3.4-4.5.9 0 1.6.4 2.1.8v-4.2l2.2.2zm-2.3 9.4v-3.8c-.4-.5-.8-.8-1.5-.8-1 0-1.7.8-1.7 2.8 0 2.1.6 2.8 1.5 2.8.8 0 1.3-.3 1.7-1zm11.8-9.4v11.9h-2l-.1-1c-.5.7-1.3 1.3-2.4 1.3-2.1 0-3.2-1.8-3.2-4.5 0-2.6 1.3-4.5 3.4-4.5.9 0 1.6.4 2.1.8v-4.2l2.2.2zm-2.3 9.4v-3.8c-.4-.5-.8-.8-1.5-.8-1 0-1.7.8-1.7 2.8 0 2.1.6 2.8 1.5 2.8.8 0 1.3-.3 1.7-1zm149.5 1.3c0 .8-.6 1.4-1.4 1.4-.8 0-1.4-.6-1.4-1.4 0-.7.6-1.4 1.4-1.4.8.1 1.4.7 1.4 1.4zm9.4-3.1c0 2.6-1.2 4.5-3.4 4.5-.9 0-1.6-.3-2.1-.9v3.9l-2.3.3v-12h2l.1 1c.7-.9 1.6-1.2 2.4-1.2 2.3-.1 3.3 1.6 3.3 4.4zm-2.4 0c0-2.1-.6-2.8-1.5-2.8-.7 0-1.2.4-1.6 1.1v3.7c.4.6.8.8 1.4.8 1.1 0 1.7-.8 1.7-2.8zm11.4-7.6v11.9h-2l-.1-1c-.5.7-1.3 1.3-2.4 1.3-2.1 0-3.2-1.8-3.2-4.5 0-2.6 1.3-4.5 3.4-4.5.9 0 1.6.4 2.1.8v-4.2l2.2.2zm-2.3 9.4v-3.8c-.4-.5-.8-.8-1.5-.8-1 0-1.7.8-1.7 2.8 0 2.1.6 2.8 1.5 2.8.8 0 1.3-.3 1.7-1zm7.1-6.8v.8h2l-.3 1.6h-1.8v6.9h-2.3v-6.9h-1.3v-1.6h1.3v-.8c0-1.6 1-2.8 3.1-2.8.9 0 1.6.2 2.2.5l-.6 1.5c-.5-.2-1-.3-1.4-.3-.6-.1-.9.3-.9 1.1z" class="st0"/></svg>