<svg xmlns="http://www.w3.org/2000/svg" id="Layer_1" viewBox="0 0 800 527.1" width="800" height="527.1"><style>.st0{fill:#2997ff}</style><path d="M240.1 66.4L229.2 0h77.2c14 17.6 14.7 22.1 36.7 22.1H473l-10.6 44.3h-22.5l5.2-22.1h-102c-25.8 0-35.1-6.8-47.5-22.1h-40.9l7.6 44.3-22.2-.1zm244 22.3l-22.1 133H240.3l-22.2-133h69.6l25.6-33.3 43.2 33.3h21.8l-15.8-12.1 16.2-21.1 43.1 33.3h62.3zm-25.8 22.1H244l15.4 88.7H443l15.3-88.7zm97.7 261l-10.9-66.4h77.2c14 17.6 14.7 22.1 36.7 22.1h129.9l-10.6 44.3h-22.5l5.2-22.1H659c-25.8 0-35.1-6.8-47.5-22.1h-40.9l7.6 44.3-22.2-.1zm244 22.3l-22.1 133H556.2l-22.2-133h69.6l25.6-33.3 43.2 33.3h21.8L678.4 382l16.2-21.1 43.1 33.3H800v-.1zm-25.8 22.1H559.9l15.4 88.7h183.6l15.3-88.7zm-414-78.7c35.9 0 22.8 51.7 22.8 51.7s51.7-14.2 51.7 21.1v99.6H296.8V337.5h63.4zm7.1-17.4h-87.8V527H452V403c0-20.5-57.4-82.9-84.7-82.9zm-279.3 0H0V527h172.4V402.9c0-20.7-56.9-82.8-84.4-82.8zm67.2 189.8h-138V337.5H81c35.3 0 22.4 51.7 22.4 51.7s51.7-14.6 51.7 21.6l.1 99.1zm347.9-355.8c1.4-1.4 2.2-3.3 2.2-5.3 0-.5 0-1-.1-1.5s-.3-1-.4-1.4c-.1-.4-.4-.8-.7-1.4-.3-.4-.5-.8-1-1.1-1.8-1.8-4.4-2.6-6.8-2-.4.1-1 .3-1.4.4-.4.1-.8.4-1.2.7s-.8.5-1.1 1c-.3.3-.7.7-1 1.1-.3.4-.5.8-.7 1.4-.1.4-.3 1-.4 1.4-.1.5-.1 1-.1 1.5 0 1.9.8 4 2.2 5.3.4.4.7.7 1.1 1s.8.5 1.2.7c.4.1 1 .3 1.4.4.5.1 1 .1 1.5.1 2-.1 3.9-.8 5.3-2.3zm44.7-5.3c0-4.1 3.4-7.5 7.5-7.5s7.5 3.4 7.5 7.5-3.4 7.5-7.5 7.5c-4.2 0-7.5-3.3-7.5-7.5zm29 0c0-4.1 3.4-7.5 7.5-7.5s7.5 3.4 7.5 7.5-3.4 7.5-7.5 7.5c-4.2 0-7.5-3.3-7.5-7.5zm29.1 0c0-4.1 3.4-7.5 7.5-7.5s7.5 3.4 7.5 7.5-3.4 7.5-7.5 7.5c-4.2 0-7.5-3.3-7.5-7.5zm29.2 0c0-4.1 3.4-7.5 7.5-7.5s7.5 3.4 7.5 7.5-3.4 7.5-7.5 7.5c-4.2 0-7.5-3.3-7.5-7.5zm-116.1 0c0-4.1 3.4-7.5 7.5-7.5s7.5 3.4 7.5 7.5-3.4 7.5-7.5 7.5-7.5-3.3-7.5-7.5zm153.5 5.3c.3-.3.7-.7 1-1.1s.5-.8.7-1.4c.1-.4.3-1 .4-1.4.1-.5.1-1 .1-1.5 0-1.9-.8-4-2.2-5.3-.4-.3-.7-.7-1.1-1s-.8-.5-1.4-.7c-.4-.1-1-.3-1.4-.4-2.5-.5-5 .3-6.8 2-1.4 1.4-2.2 3.4-2.2 5.3 0 .5 0 1 .1 1.5s.3 1 .4 1.4c.1.4.4.8.7 1.4.3.4.5.8 1 1.1.3.4.7.7 1.1 1s.8.5 1.4.7c.4.1 1 .3 1.4.4.5.1 1 .1 1.5.1 2 .1 3.9-.6 5.3-2.1zm-12.9 117.5c0-4.1 3.4-7.5 7.5-7.5s7.5 3.4 7.5 7.5-3.4 7.5-7.5 7.5c-4 0-7.5-3.4-7.5-7.5zm0-30.7c0-4.1 3.4-7.5 7.5-7.5s7.5 3.4 7.5 7.5-3.4 7.5-7.5 7.5c-4 0-7.5-3.4-7.5-7.5zm0-30.7c0-4.1 3.4-7.5 7.5-7.5s7.5 3.4 7.5 7.5-3.4 7.5-7.5 7.5c-4 0-7.5-3.4-7.5-7.5zm0-30.7c0-4.1 3.4-7.5 7.5-7.5s7.5 3.4 7.5 7.5-3.4 7.5-7.5 7.5c-4 0-7.5-3.3-7.5-7.5zm-306.5 92.1c0-4.1 3.4-7.5 7.5-7.5s7.5 3.4 7.5 7.5-3.4 7.5-7.5 7.5-7.5-3.4-7.5-7.5zm0-30.7c0-4.1 3.4-7.5 7.5-7.5s7.5 3.4 7.5 7.5-3.4 7.5-7.5 7.5-7.5-3.4-7.5-7.5zm12.9 66.6c.3-.3.7-.7 1-1.1s.5-.8.7-1.2c.1-.4.3-1 .4-1.4.1-.5.1-1 .1-1.5 0-2-.8-4-2.2-5.3-1.8-1.8-4.4-2.6-6.8-2-.4.1-1 .3-1.4.4s-1 .4-1.4.7c-.4.3-.8.5-1.1 1-1.4 1.4-2.2 3.3-2.2 5.3 0 1.9.8 4 2.2 5.3 1.4 1.4 3.3 2.2 5.3 2.2 2.1-.3 4-1.1 5.4-2.4zM182.1 154.1c.3-.4.7-.7 1-1.1s.5-.8.7-1.4c.1-.4.3-1 .4-1.4s.1-1 .1-1.5 0-1-.1-1.5-.3-1-.4-1.4c-.1-.4-.4-.8-.7-1.4-.3-.4-.5-.8-1-1.1-1.4-1.4-3.3-2.2-5.3-2.2-1.9 0-4 .8-5.3 2.2-.3.4-.7.7-1 1.1s-.5.8-.7 1.4c-.1.4-.3 1-.4 1.4-.1.5-.1 1-.1 1.5s0 1 .1 1.5.3 1 .4 1.4c.1.4.4.8.7 1.4.3.4.5.8 1 1.1 1.4 1.4 3.3 2.2 5.3 2.2 1.9.2 3.9-.7 5.3-2.2zm-41.6-5.3c0-4.1 3.4-7.5 7.5-7.5s7.5 3.4 7.5 7.5-3.4 7.5-7.5 7.5c-4.1.2-7.5-3.3-7.5-7.5zm-28.8 0c0-4.1 3.4-7.5 7.5-7.5s7.5 3.4 7.5 7.5-3.4 7.5-7.5 7.5c-4.1.2-7.5-3.3-7.5-7.5zm-15.8 5.3c1.4-1.4 2.2-3.3 2.2-5.3 0-.5 0-1-.1-1.5s-.3-1-.4-1.4c-.1-.4-.4-.8-.7-1.4-.3-.4-.5-.8-1-1.1-1.8-1.8-4.4-2.6-6.8-2-.5.1-1 .3-1.4.4-.4.1-1 .4-1.4.7-.4.3-.8.5-1.1 1-.4.3-.7.7-1 1.1-.3.4-.5.8-.7 1.4-.1.5-.3 1-.4 1.4-.1.5-.1 1-.1 1.5s0 1 .1 1.5.3 1 .4 1.4c.1.4.4.8.7 1.4.3.4.5.8 1 1.1 1.4 1.4 3.3 2.2 5.3 2.2 2-.2 3.9-.9 5.4-2.4zM83.1 271.6c0-4.1 3.4-7.5 7.5-7.5s7.5 3.4 7.5 7.5-3.4 7.5-7.5 7.5c-4.3-.2-7.5-3.4-7.5-7.5zm0-30.7c0-4.1 3.4-7.5 7.5-7.5s7.5 3.4 7.5 7.5-3.4 7.5-7.5 7.5c-4.3 0-7.5-3.4-7.5-7.5zm0-30.7c0-4.1 3.4-7.5 7.5-7.5s7.5 3.4 7.5 7.5-3.4 7.5-7.5 7.5c-4.3 0-7.5-3.4-7.5-7.5zm0-30.7c0-4.1 3.4-7.5 7.5-7.5s7.5 3.4 7.5 7.5-3.4 7.5-7.5 7.5c-4.3 0-7.5-3.3-7.5-7.5zm12.8 128c1.4-1.4 2.2-3.3 2.2-5.3s-.8-4-2.2-5.3c-1.4-1.4-3.3-2.2-5.3-2.2s-4 .8-5.3 2.2c-.4.4-.7.7-1 1.1-.3.4-.5.8-.7 1.4s-.3 1-.4 1.4c-.1.4-.1 1-.1 1.5 0 1.9.8 4 2.2 5.3 1.4 1.4 3.3 2.2 5.3 2.2s3.8-1 5.3-2.3z" class="st0"/><path d="M300.8 161.5c0 6.1-4.4 9-10.6 9h-3v9.1h-5.7v-26.9h8.3c6.7.1 11 2.9 11 8.8zm-5.9 0c0-3.1-1.9-4.5-5.2-4.5h-2.5v9.4h2.6c3.1 0 5.1-1.2 5.1-4.9zm25 15l-1.1 3.5c-2.3-.3-3.8-1-4.8-3-1.5 2.3-3.7 3-6.1 3-4.2 0-6.7-2.6-6.7-6.3 0-4.5 3.4-7 9.4-7h2.3v-1c0-2.6-1.1-3.4-3.5-3.4-1.4 0-3.4.3-5.5 1.1l-1.2-3.7c2.6-1 5.3-1.5 7.6-1.5 5.7 0 8.2 2.5 8.2 7.2v8.3c-.1 1.8.4 2.5 1.4 2.8zM313 174v-4h-1.8c-3 0-4.5 1.1-4.5 3.4 0 1.8 1 2.9 2.7 2.9 1.5-.1 2.7-.8 3.6-2.3zm26.4-13l-2.3 3.3c-1.4-1-2.5-1.5-4.1-1.5-2.7 0-4.4 2-4.4 6.8s1.6 6.3 4.4 6.3c1.5 0 2.6-.4 4.1-1.5l2.3 3.5c-1.9 1.5-4.1 2.3-6.8 2.3-6.1 0-10-4.2-10-10.8 0-6.5 3.8-11 9.8-11 2.9.1 4.9.9 7 2.6zm8.6 18.6h-5.6v-28.8l5.6-.7v29.5zm5.8-11.4l7.2 11.5h-6.3l-6.7-11.3 6.7-9.4h5.7c.1 0-6.6 9.2-6.6 9.2zm26.4 8.3l-1.1 3.5c-2.3-.3-3.8-1-4.8-3-1.5 2.3-3.7 3-6.1 3-4.2 0-6.7-2.6-6.7-6.3 0-4.5 3.4-7 9.4-7h2.3v-1c0-2.6-1.1-3.4-3.5-3.4-1.4 0-3.4.3-5.5 1.1l-1.2-3.7c2.6-1 5.3-1.5 7.6-1.5 5.7 0 8.2 2.5 8.2 7.2v8.3c0 1.8.5 2.5 1.4 2.8zm-6.9-2.5v-4h-1.8c-3 0-4.5 1.1-4.5 3.4 0 1.8 1 2.9 2.7 2.9 1.6-.1 2.8-.8 3.6-2.3zm29.4-13.7c-1.5.5-3.5.8-6 .8 2.5 1.1 3.8 2.7 3.8 5.3 0 4-3.3 6.8-8.5 6.8-1 0-1.6-.1-2.3-.3-.4.3-.8.8-.8 1.4 0 .7.3 1.4 2.3 1.4h3.1c4.6 0 7.6 2.5 7.6 5.9 0 4.2-3.5 6.7-10.5 6.7-7.5 0-9.5-2.5-9.5-6.5h4.9c0 1.9 1 2.9 4.8 2.9s4.9-1 4.9-2.5c0-1.4-1-2.3-3.3-2.3h-3c-4.2 0-6.1-1.9-6.1-4.1 0-1.5 1-2.9 2.3-3.8-2.6-1.4-3.5-3.3-3.5-5.9 0-4.5 3.5-7.5 8.7-7.5 4.8.1 7.1-1.1 9.5-2.5.2-.1 1.6 4.2 1.6 4.2zm-14.4 5.6c0 2.3 1.4 3.7 3.4 3.7 2.3 0 3.4-1.4 3.4-3.8 0-2.5-1.1-3.5-3.4-3.5-2-.1-3.4 1.2-3.4 3.6zm34.1 5.1h-12.8c.3 4 2.3 5 4.9 5 1.6 0 3.3-.5 4.9-1.8l2.3 3.1c-2 1.6-4.6 2.9-7.8 2.9-6.7 0-10.1-4.4-10.1-10.8 0-6.1 3.4-11 9.4-11 5.9 0 9.3 3.8 9.3 10.5.1.8-.1 1.5-.1 2.1zm-5.4-3.6c0-3.1-1-5-3.7-5-2.2 0-3.5 1.5-3.8 5.5h7.5v-.5zM32.6 488.3h-4.5v-21.1h4.5v21.1zm17.9-11.8v11.9h-4.4v-11c0-1.9-.7-2.5-1.8-2.5-1.2 0-2.2.8-3.1 2.3v11.2h-4.4v-16.2h3.8l.3 2c1.2-1.6 2.9-2.6 4.9-2.6 3-.1 4.7 1.9 4.7 4.9zm20.6 1.2c0 8.6-5.2 10.6-10.4 10.6h-6v-21.1h5.6c5.4 0 10.8 1.6 10.8 10.5zm-11.9-7.2V485H61c3.1 0 5.5-1.5 5.5-7.4 0-6-2.5-7.2-5.6-7.2l-1.7.1zm28.9 11H78c.3 3.1 1.8 4.1 3.8 4.1 1.4 0 2.6-.4 4-1.4l1.8 2.5c-1.6 1.2-3.5 2.2-6.1 2.2-5.2 0-7.9-3.4-7.9-8.5 0-4.9 2.6-8.7 7.4-8.7 4.6 0 7.4 3 7.4 8.2-.3.5-.3 1.2-.3 1.6zm-4.2-2.9c0-2.5-.8-4.1-2.9-4.1-1.8 0-2.7 1.1-3 4.2h5.9v-.1zm18.7-5l-1.6 2.5c-1.4-.8-2.6-1.2-4.1-1.2s-2.2.5-2.2 1.5.5 1.4 3.4 2.2c3.3 1 5 2.2 5 5 0 3.4-3.1 5.3-7 5.3-2.9 0-5-1-6.5-2.3l2.2-2.5c1.2 1 2.7 1.6 4.4 1.6s2.7-.7 2.7-1.8c0-1.2-.5-1.6-3.5-2.5-3.3-1-4.8-2.6-4.8-5 0-2.7 2.5-4.8 6.4-4.8 2-.1 4.1.8 5.6 2zm8.2-7.4c0 1.5-1.1 2.6-2.7 2.6-1.5 0-2.6-1.1-2.6-2.6s1.1-2.6 2.6-2.6c1.6.2 2.7 1.3 2.7 2.6zm-.6 22.1h-4.4v-16.2h4.4v16.2zM129 473c-1.2.4-2.7.5-4.6.5 2 1 3 2 3 4.2 0 3.1-2.6 5.5-6.7 5.5-.7 0-1.4 0-1.9-.3-.4.3-.5.7-.5 1.1 0 .5.3 1.1 1.9 1.1h2.5c3.7 0 6 1.9 6 4.6 0 3.3-2.9 5.3-8.3 5.3-6 0-7.5-1.9-7.5-5.2h4c0 1.5.7 2.2 3.8 2.2 3 0 3.8-.8 3.8-2 0-1.1-.8-1.8-2.6-1.8h-2.5c-3.4 0-4.8-1.5-4.8-3.1 0-1.2.7-2.3 1.9-3-2-1.1-2.9-2.6-2.9-4.6 0-3.5 2.9-5.9 7-5.9 3.7.1 5.6-.8 7.6-1.9l.8 3.3zm-11.3 4.4c0 1.9 1.1 3 2.7 3 1.8 0 2.7-1.1 2.7-3s-1-2.9-2.7-2.9c-1.6 0-2.7 1.1-2.7 2.9zm27-.9v11.9h-4.4v-11c0-1.9-.7-2.5-1.8-2.5-1.2 0-2.2.8-3.1 2.3v11.2H131v-16.2h3.8l.3 2c1.2-1.6 2.9-2.6 4.9-2.6 2.9-.1 4.7 1.9 4.7 4.9zm211.2-2.8c0 5.3-3.8 7.8-9 7.8h-2.6v7.9h-4.9v-23.1h7.1c5.8-.1 9.4 2.4 9.4 7.4zm-5.1 0c0-2.7-1.6-4-4.5-4h-2.2v8h2.2c2.9.1 4.5-.8 4.5-4zm26.2 4c0 9.3-5.7 11.6-11.3 11.6h-6.5v-23.1h6c6.1 0 11.8 1.9 11.8 11.5zm-12.9-7.9v15.8h2c3.4 0 6-1.5 6-8s-2.7-7.8-6-7.8h-2zm16.7-3.6h13.4l-.5 3.5h-7.9v6.5h7v3.5h-7v9.4h-4.9v-22.9zm254 19.1h9.1l-.5 4h-13.5v-23.1h4.9v19.1zm17.2-20c0 1.5-1.2 2.7-2.9 2.7s-2.9-1.2-2.9-2.7 1.2-2.7 2.9-2.7 2.9 1.2 2.9 2.7zm-.5 24h-4.8v-17.7h4.8v17.7zm19.5-12.8v12.8h-4.8v-12c0-2-.8-2.6-1.9-2.6-1.4 0-2.5 1-3.4 2.5v12.1h-4.8v-17.7h4.1l.4 2.2c1.4-1.8 3.1-2.7 5.3-2.7 3.2 0 5.1 1.9 5.1 5.4zm9 12.8h-4.8v-24.7l4.8-.5v25.2zm5.1-9.8l6.1 10h-5.5l-5.7-9.7 5.7-8h4.9l-5.5 7.7zm20.4-6.3l-1.8 2.7c-1.5-1-2.9-1.4-4.4-1.4-1.5 0-2.5.7-2.5 1.6 0 1.1.5 1.5 3.7 2.5 3.5 1 5.6 2.5 5.6 5.6 0 3.7-3.4 5.7-7.6 5.7-3 0-5.6-1.1-7.2-2.6l2.3-2.6c1.4 1.1 3 1.8 4.8 1.8s2.9-.7 2.9-1.9c0-1.4-.7-1.8-4-2.7-3.5-1-5.2-2.7-5.2-5.5 0-3 2.7-5.3 7-5.3 2.6 0 4.7.9 6.4 2.1z" class="st0"/></svg>