<svg xmlns="http://www.w3.org/2000/svg" id="Layer_1" viewBox="0 0 300 197.7" width="300" height="197.7"><style>.st0{fill:#2997ff}</style><path d="M90 24.9L85.9 0h28.9c5.2 6.6 5.5 8.3 13.8 8.3h48.7l-4 16.6H165l2-8.3h-38.2c-9.7 0-13.2-2.5-17.8-8.3H95.5l2.8 16.6H90zm91.5 8.4l-8.3 49.9H90.1l-8.3-49.9h26.1l9.6-12.5 16.2 12.5h8.2l-5.9-4.5 6.1-7.9 16.2 12.5 23.2-.1zm-9.6 8.2H91.5l5.8 33.3h68.9l5.7-33.3zm36.6 97.9l-4.1-24.9h28.9c5.2 6.6 5.5 8.3 13.8 8.3h48.7l-4 16.6h-8.4l2-8.3h-38.3c-9.7 0-13.2-2.6-17.8-8.3H214l2.8 16.6h-8.3zm91.5 8.4l-8.3 49.9h-83.1l-8.3-49.9h26.1l9.6-12.5 16.2 12.5h8.2l-5.9-4.5 6.1-7.9 16.2 12.5 23.2-.1zm-9.7 8.3H210l5.8 33.3h68.9l5.6-33.3zm-155.2-29.5c13.5 0 8.5 19.4 8.5 19.4s19.4-5.3 19.4 7.9v37.4h-51.7v-64.7h23.8zm2.6-6.6h-32.9v77.6h64.7v-46.5c0-7.7-21.5-31.1-31.8-31.1zM33 120H0v77.6h64.6v-46.5c0-7.8-21.3-31.1-31.6-31.1zm25.2 71.2H6.5v-64.7h23.9c13.2 0 8.4 19.4 8.4 19.4s19.4-5.5 19.4 8.1v37.2zM188.7 57.8c.5-.5.8-1.2.8-2v-.6c0-.2-.1-.4-.1-.5 0-.2-.1-.3-.3-.5-.1-.1-.2-.3-.4-.4-.7-.7-1.6-1-2.5-.8-.1 0-.4.1-.5.1-.1 0-.3.2-.5.3s-.3.2-.4.4l-.4.4c-.1.1-.2.3-.3.5 0 .1-.1.4-.1.5v.6c0 .7.3 1.5.8 2 .2.1.3.3.4.4.1.1.3.2.5.3.1 0 .4.1.5.1h.6c.6 0 1.3-.2 1.9-.8zm16.7-2c0-1.5 1.3-2.8 2.8-2.8s2.8 1.3 2.8 2.8c0 1.5-1.3 2.8-2.8 2.8-1.5 0-2.8-1.2-2.8-2.8zm10.9 0c0-1.5 1.3-2.8 2.8-2.8s2.8 1.3 2.8 2.8c0 1.5-1.3 2.8-2.8 2.8-1.6 0-2.8-1.2-2.8-2.8zm10.9 0c0-1.5 1.3-2.8 2.8-2.8s2.8 1.3 2.8 2.8c0 1.5-1.3 2.8-2.8 2.8-1.5 0-2.8-1.2-2.8-2.8zm11 0c0-1.5 1.3-2.8 2.8-2.8 1.5 0 2.8 1.3 2.8 2.8 0 1.5-1.3 2.8-2.8 2.8-1.6 0-2.8-1.2-2.8-2.8zm-43.6 0c0-1.5 1.3-2.8 2.8-2.8 1.5 0 2.8 1.3 2.8 2.8 0 1.5-1.3 2.8-2.8 2.8-1.5 0-2.8-1.2-2.8-2.8zm57.6 2l.4-.4c.1-.2.2-.3.3-.5 0-.1.1-.4.2-.5v-.6c0-.7-.3-1.5-.8-2-.2-.1-.3-.3-.4-.4-.1-.1-.3-.2-.5-.3-.2 0-.4-.1-.5-.1-.9-.2-1.9.1-2.5.8-.5.5-.8 1.3-.8 2v.6c0 .2.1.4.1.5 0 .2.2.3.3.5.1.1.2.3.4.4.1.2.3.3.4.4.1.1.3.2.5.3.2 0 .4.1.5.1h.6c.6 0 1.3-.2 1.8-.8zm-4.8 44.1c0-1.5 1.3-2.8 2.8-2.8 1.5 0 2.8 1.3 2.8 2.8s-1.3 2.8-2.8 2.8c-1.5 0-2.8-1.3-2.8-2.8zm0-11.6c0-1.5 1.3-2.8 2.8-2.8 1.5 0 2.8 1.3 2.8 2.8 0 1.5-1.3 2.8-2.8 2.8-1.5.1-2.8-1.2-2.8-2.8zm0-11.5c0-1.5 1.3-2.8 2.8-2.8 1.5 0 2.8 1.3 2.8 2.8 0 1.5-1.3 2.8-2.8 2.8-1.5 0-2.8-1.2-2.8-2.8zm0-11.5c0-1.5 1.3-2.8 2.8-2.8 1.5 0 2.8 1.3 2.8 2.8 0 1.5-1.3 2.8-2.8 2.8-1.5 0-2.8-1.2-2.8-2.8zm-115 34.6c0-1.5 1.3-2.8 2.8-2.8 1.5 0 2.8 1.3 2.8 2.8s-1.3 2.8-2.8 2.8c-1.5 0-2.8-1.3-2.8-2.8zm0-11.6c0-1.5 1.3-2.8 2.8-2.8 1.5 0 2.8 1.3 2.8 2.8 0 1.5-1.3 2.8-2.8 2.8-1.5.1-2.8-1.2-2.8-2.8zm4.9 25l.4-.4c.1-.1.2-.3.3-.5 0-.2.1-.4.1-.5v-.6c0-.8-.3-1.5-.8-2-.7-.7-1.7-1-2.6-.8-.1 0-.4.1-.5.1s-.4.1-.5.3c-.1.1-.3.2-.4.4-.5.5-.8 1.2-.8 2 0 .7.3 1.5.8 2s1.2.8 2 .8c.7 0 1.4-.3 2-.8zm-69-57.5l.4-.4c.1-.2.2-.3.3-.5 0-.1.1-.4.1-.5v-1.2c0-.2-.1-.4-.1-.5 0-.1-.2-.3-.3-.5-.1-.1-.2-.3-.4-.4-.5-.5-1.2-.8-2-.8-.7 0-1.5.3-2 .8l-.4.4c-.1.1-.2.3-.3.5 0 .1-.1.4-.2.5v1.2c0 .2.1.4.2.5s.1.3.3.5c.1.1.2.3.4.4.5.5 1.2.8 2 .8.7.1 1.5-.2 2-.8zm-15.6-2c0-1.5 1.3-2.8 2.8-2.8s2.8 1.3 2.8 2.8c0 1.5-1.3 2.8-2.8 2.8-1.5.1-2.8-1.2-2.8-2.8zm-10.8 0c0-1.5 1.3-2.8 2.8-2.8 1.5 0 2.8 1.3 2.8 2.8 0 1.5-1.3 2.8-2.8 2.8-1.5.1-2.8-1.2-2.8-2.8zm-5.9 2c.5-.5.8-1.2.8-2v-.6c0-.2-.1-.4-.1-.5 0-.1-.2-.3-.3-.5-.1-.2-.2-.3-.4-.4-.7-.7-1.7-1-2.5-.8-.2 0-.4.1-.5.2s-.4.1-.5.3-.3.2-.4.4c-.2.1-.3.3-.4.4-.1.1-.2.3-.3.5 0 .2-.1.4-.1.5v1.2c0 .2.1.4.1.5 0 .1.2.3.3.5.1.1.2.3.4.4.5.5 1.2.8 2 .8.6-.1 1.3-.4 1.9-.9zm-4.8 44.1c0-1.5 1.3-2.8 2.8-2.8s2.8 1.3 2.8 2.8c0 1.5-1.3 2.8-2.8 2.8-1.6-.1-2.8-1.3-2.8-2.8zm0-11.6c0-1.5 1.3-2.8 2.8-2.8s2.8 1.3 2.8 2.8c0 1.5-1.3 2.8-2.8 2.8-1.6.1-2.8-1.2-2.8-2.8zm0-11.5c0-1.5 1.3-2.8 2.8-2.8s2.8 1.3 2.8 2.8-1.3 2.8-2.8 2.8c-1.6 0-2.8-1.2-2.8-2.8zm0-11.5c0-1.5 1.3-2.8 2.8-2.8s2.8 1.3 2.8 2.8c0 1.5-1.3 2.8-2.8 2.8-1.6 0-2.8-1.2-2.8-2.8zm4.8 48c.5-.5.8-1.2.8-2s-.3-1.5-.8-2-1.2-.8-2-.8-1.5.3-2 .8c-.2.1-.3.3-.4.4-.1.1-.2.3-.3.5-.1.2-.1.4-.1.5v.6c0 .7.3 1.5.8 2s1.2.8 2 .8 1.4-.3 2-.8z" class="st0"/><path d="M112.8 60.6c0 2.3-1.7 3.4-4 3.4h-1.1v3.4h-2.1V57.3h3.1c2.5 0 4.1 1.1 4.1 3.3zm-2.2 0c0-1.2-.7-1.7-1.9-1.7h-.9v3.5h1c1 0 1.8-.5 1.8-1.8zm9.4 5.6l-.4 1.3c-.9-.1-1.4-.4-1.8-1.1-.6.9-1.4 1.1-2.3 1.1-1.6 0-2.5-1-2.5-2.4 0-1.7 1.3-2.6 3.5-2.6h.9v-.4c0-1-.4-1.3-1.3-1.3-.5 0-1.3.1-2.1.4l-.5-1.4c1-.4 2-.6 2.9-.6 2.1 0 3.1.9 3.1 2.7V65c-.1.8.1 1.1.5 1.2zm-2.6-1v-1.5h-.7c-1.1 0-1.7.4-1.7 1.3 0 .7.4 1.1 1 1.1s1-.3 1.4-.9zm9.9-4.8l-.9 1.2c-.5-.4-.9-.6-1.5-.6-1 0-1.6.8-1.6 2.5s.6 2.4 1.6 2.4c.6 0 1-.1 1.5-.6l.9 1.3c-.7.6-1.5.9-2.5.9-2.3 0-3.8-1.6-3.8-4.1 0-2.4 1.4-4.1 3.7-4.1 1 .1 1.8.4 2.6 1.1zm3.2 7h-2.1V56.6l2.1-.3v11.1zm2.2-4.3l2.7 4.3H133l-2.5-4.2 2.5-3.5h2.1c.1-.1-2.4 3.4-2.4 3.4zm9.9 3.1l-.4 1.3c-.9-.1-1.4-.4-1.8-1.1-.6.9-1.4 1.1-2.3 1.1-1.6 0-2.5-1-2.5-2.4 0-1.7 1.3-2.6 3.5-2.6h.9v-.4c0-1-.4-1.3-1.3-1.3-.5 0-1.3.1-2.1.4l-.5-1.4c1-.4 2-.6 2.9-.6 2.1 0 3.1.9 3.1 2.7V65c-.1.8.1 1.1.5 1.2zm-2.6-.9v-1.5h-.7c-1.1 0-1.7.4-1.7 1.3 0 .7.4 1.1 1 1.1.6-.1 1.1-.4 1.4-.9zm11-5.2c-.6.2-1.3.3-2.2.3.9.4 1.4 1 1.4 2 0 1.5-1.2 2.6-3.2 2.6-.4 0-.6 0-.9-.1-.2.1-.3.3-.3.5 0 .3.1.5.9.5h1.2c1.7 0 2.9.9 2.9 2.2 0 1.6-1.3 2.5-3.9 2.5-2.8 0-3.6-.9-3.6-2.4h1.8c0 .7.4 1.1 1.8 1.1s1.8-.4 1.8-.9-.4-.9-1.2-.9h-1.1c-1.6 0-2.3-.7-2.3-1.5 0-.6.4-1.1.9-1.4-1-.5-1.3-1.2-1.3-2.2 0-1.7 1.3-2.8 3.3-2.8 1.8 0 2.7-.4 3.6-.9-.1-.2.4 1.4.4 1.4zm-5.4 2.1c0 .9.5 1.4 1.3 1.4.9 0 1.3-.5 1.3-1.4 0-.9-.4-1.3-1.3-1.3-.8-.1-1.3.4-1.3 1.3zm12.8 1.9h-4.8c.1 1.5.9 1.9 1.8 1.9.6 0 1.2-.2 1.8-.7l.9 1.2c-.8.6-1.7 1.1-2.9 1.1-2.5 0-3.8-1.7-3.8-4.1 0-2.3 1.3-4.1 3.5-4.1s3.5 1.4 3.5 3.9c.1.3 0 .6 0 .8zm-2-1.3c0-1.2-.4-1.9-1.4-1.9-.8 0-1.3.6-1.4 2.1h2.8v-.2zM12.2 183.1h-1.7v-7.9h1.7v7.9zm6.7-4.4v4.5h-1.7V179c0-.7-.3-.9-.7-.9-.5 0-.8.3-1.2.9v4.2h-1.7v-6.1H15l.1.8c.4-.6 1.1-1 1.8-1 1.4-.1 2 .7 2 1.8zm7.8.4c0 3.2-1.9 4-3.9 4h-2.2v-7.9h2.1c1.9 0 4 .6 4 3.9zm-4.5-2.7v5.4h.7c1.2 0 2.1-.6 2.1-2.8 0-2.2-.9-2.7-2.1-2.7-.1.1-.7.1-.7.1zm10.8 4.2h-3.8c.1 1.2.7 1.5 1.4 1.5.5 0 1-.1 1.5-.5l.7.9c-.6.4-1.3.8-2.3.8-2 0-3-1.3-3-3.2 0-1.8 1-3.3 2.8-3.3 1.7 0 2.8 1.1 2.8 3.1-.1.3-.1.5-.1.7zm-1.5-1.1c0-.9-.3-1.5-1.1-1.5-.7 0-1 .4-1.1 1.6l2.2-.1zm7-1.9l-.6.9c-.5-.3-1-.5-1.5-.5s-.8.2-.8.6.2.5 1.3.8c1.2.4 1.9.8 1.9 1.9 0 1.3-1.2 2-2.6 2-1.1 0-1.9-.4-2.4-.9l.8-.9c.5.4 1 .6 1.7.6s1-.3 1-.7c0-.4-.2-.6-1.3-.9-1.2-.4-1.8-1-1.8-1.9 0-1 .9-1.8 2.4-1.8.5 0 1.3.4 1.9.8zm3.1-2.8c0 .6-.4 1-1 1s-1-.4-1-1 .4-1 1-1c.5.1 1 .5 1 1zm-.3 8.3h-1.6V177h1.6v6.1zm7.1-5.7c-.4.1-1 .2-1.7.2.8.4 1.1.8 1.1 1.6 0 1.2-1 2.1-2.5 2.1-.3 0-.5 0-.7-.1-.2.1-.2.3-.2.4 0 .2.1.4.7.4h.9c1.4 0 2.3.7 2.3 1.7 0 1.2-1.1 2-3.1 2-2.2 0-2.8-.7-2.8-2h1.5c0 .6.3.8 1.4.8 1.1 0 1.4-.3 1.4-.8 0-.4-.3-.7-1-.7h-.9c-1.3 0-1.8-.6-1.8-1.2 0-.4.3-.9.7-1.1-.8-.4-1.1-1-1.1-1.7 0-1.3 1.1-2.2 2.6-2.2 1.4 0 2.1-.3 2.8-.7l.4 1.3zm-4.3 1.6c0 .7.4 1.1 1 1.1.7 0 1-.4 1-1.1s-.4-1.1-1-1.1-1 .5-1 1.1zm10.2-.3v4.5h-1.6V179c0-.7-.3-.9-.7-.9-.4 0-.8.3-1.2.9v4.2h-1.6v-6.1h1.4l.1.8c.5-.6 1.1-1 1.8-1 1.1-.1 1.8.7 1.8 1.8zm79.2-1.1c0 2-1.4 2.9-3.4 2.9h-1v3h-1.8v-8.7h2.7c2.1 0 3.5 1 3.5 2.8zm-2 0c0-1-.6-1.5-1.7-1.5h-.8v3h.8c1.1.1 1.7-.3 1.7-1.5zm9.9 1.5c0 3.5-2.1 4.3-4.2 4.3h-2.4v-8.7h2.2c2.2.1 4.4.8 4.4 4.4zm-4.9-2.9v5.9h.8c1.3 0 2.2-.6 2.2-3s-1-2.9-2.2-2.9h-.8zm6.3-1.4h5l-.2 1.3h-3v2.4h2.6v1.3h-2.6v3.5h-1.8v-8.5zm95.3 7.2h3.4l-.2 1.5h-5.1v-8.7h1.8v7.2zm6.4-7.5c0 .6-.5 1-1.1 1-.6 0-1.1-.5-1.1-1s.4-1 1.1-1c.7 0 1.1.4 1.1 1zm-.2 9h-1.8v-6.6h1.8v6.6zm7.3-4.8v4.8h-1.8V179c0-.8-.3-1-.7-1-.5 0-.9.4-1.3.9v4.5H246v-6.6h1.5l.1.8c.5-.7 1.2-1 2-1 1.3.1 2 .8 2 2.1zm3.4 4.8h-1.8v-9.3l1.8-.2v9.5zm1.9-3.7l2.3 3.8h-2.1L255 180l2.1-3h1.8l-2 2.8zm7.7-2.3l-.7 1c-.6-.4-1.1-.5-1.6-.5s-.9.3-.9.6c0 .4.2.6 1.4.9 1.3.4 2.1.9 2.1 2.1 0 1.4-1.3 2.1-2.8 2.1-1.1 0-2.1-.4-2.7-1l.9-1c.5.4 1.1.7 1.8.7s1.1-.3 1.1-.7c0-.5-.3-.7-1.5-1-1.3-.4-2-1-2-2.1s1-2 2.6-2c.8.1 1.6.4 2.3.9z" class="st0"/></svg>