<svg xmlns="http://www.w3.org/2000/svg" id="Layer_1" viewBox="0 0 300 219" width="300" height="219"><style>.st0{fill:#2997ff}</style><path d="M99.8 27.6L95.2 0h32.1c5.9 7.3 6.1 9.2 15.2 9.2h54L192 27.6h-9.3l2.1-9.2h-42.3c-10.7 0-14.5-2.8-19.7-9.2h-17l3.2 18.4h-9.2zm101.3 9.2L191.9 92h-92l-9.3-55.2h28.9L130.2 23l18 13.8h9.1l-6.6-5.1 6.8-8.8 17.9 13.8h25.7zM190.4 46h-89l6.4 36.8h76.3l6.3-36.8zm71.5 94.2c14.9 0 9.5 21.5 9.5 21.5s21.5-5.9 21.5 8.8v41.4h-57.3v-71.6h26.3zm2.9-7.2h-36.5v86H300v-51.6c0-8.5-23.8-34.4-35.2-34.4zm-228.2 0H0v86h71.6v-51.6c0-8.6-23.6-34.4-35-34.4zm27.9 78.8H7.1v-71.6h26.5c14.7 0 9.3 21.5 9.3 21.5s21.5-6.1 21.5 9l.1 41.1zM75.6 64c.1-.2.3-.3.4-.5.1-.2.2-.3.3-.6 0-.2.1-.4.2-.6v-1.2c0-.2-.1-.4-.2-.6 0-.2-.2-.3-.3-.6-.1-.2-.2-.3-.4-.5-.6-.6-1.3-.9-2.2-.9-.8 0-1.7.3-2.2.9-.1.2-.3.3-.4.5-.1.2-.2.3-.3.6 0 .2-.1.4-.2.6v1.2c0 .2.1.4.2.6 0 .2.2.3.3.6.1.2.2.3.4.5.6.6 1.4.9 2.2.9.8.1 1.7-.3 2.2-.9zm-17.2-2.2c0-1.7 1.4-3.1 3.1-3.1s3.1 1.4 3.1 3.1-1.4 3.1-3.1 3.1c-1.7.1-3.1-1.3-3.1-3.1zm-12 0c0-1.7 1.4-3.1 3.1-3.1 1.7 0 3.1 1.4 3.1 3.1s-1.4 3.1-3.1 3.1c-1.7.1-3.1-1.3-3.1-3.1zM39.8 64c.6-.6.9-1.4.9-2.2v-.6c0-.2-.1-.4-.2-.6 0-.2-.2-.3-.3-.6-.1-.2-.2-.3-.4-.5-.8-.8-1.8-1.1-2.8-.9-.2 0-.4.1-.6.2-.2 0-.4.2-.6.3-.2.1-.3.2-.4.4-.2.1-.3.3-.4.5-.1.2-.2.3-.3.6 0 .2-.1.4-.2.6v1.2c0 .2.1.4.2.6.1.2.2.3.3.6.1.2.2.3.4.5.6.6 1.3.9 2.2.9.8-.1 1.6-.4 2.2-1zm-5.3 48.8c0-1.7 1.4-3.1 3.1-3.1s3.1 1.4 3.1 3.1-1.4 3.1-3.1 3.1c-1.7 0-3.1-1.4-3.1-3.1zm0-12.7c0-1.7 1.4-3.1 3.1-3.1s3.1 1.4 3.1 3.1-1.4 3.1-3.1 3.1c-1.7 0-3.1-1.4-3.1-3.1zm0-12.8c0-1.7 1.4-3.1 3.1-3.1s3.1 1.4 3.1 3.1-1.4 3.1-3.1 3.1c-1.7 0-3.1-1.4-3.1-3.1zm0-12.7c0-1.7 1.4-3.1 3.1-3.1s3.1 1.4 3.1 3.1-1.4 3.1-3.1 3.1c-1.7 0-3.1-1.4-3.1-3.1zm5.3 53.1c.6-.6.9-1.3.9-2.2 0-.9-.3-1.6-.9-2.2s-1.3-.9-2.2-.9c-.9 0-1.7.3-2.2.9-.2.2-.3.3-.4.5-.1.2-.2.3-.3.6s-.1.4-.2.6v.6c0 .8.3 1.6.9 2.2s1.3.9 2.2.9c.9-.1 1.6-.4 2.2-1zm173.8-62.8c.9 0 1.6-.3 2.2-.9.2-.1.3-.3.4-.4l.3-.6c0-.2.1-.3.2-.6v-1.2c0-.2-.1-.4-.2-.6 0-.2-.2-.4-.3-.6-.1-.2-.3-.3-.4-.4-.6-.6-1.4-.9-2.2-.9-.9 0-1.7.3-2.2.9-.2.1-.3.3-.4.4l-.3.6c0 .2-.1.3-.2.6-.1.2 0 .4 0 .6v.6c0 .1.1.4.2.6 0 .2.2.4.3.6.1.2.3.3.4.4.6.6 1.4 1 2.2.9zm12 0c-1.7 0-3.1-1.4-3.1-3.1s1.4-3.1 3.1-3.1 3.1 1.4 3.1 3.1c0 1.8-1.4 3.2-3.1 3.1zm12 0c-1.7 0-3.1-1.4-3.1-3.1s1.4-3.1 3.1-3.1 3.1 1.4 3.1 3.1c0 1.8-1.4 3.2-3.1 3.1zm11.9 0c.9 0 1.7-.3 2.2-.9.2-.1.3-.3.4-.4l.3-.6c0-.2.1-.3.2-.6.1-.2 0-.4 0-.6v-.6c0-.2-.1-.3-.2-.6l-.3-.6c-.1-.1-.2-.3-.4-.4-.1-.2-.3-.3-.5-.4l-.6-.3c-.2 0-.3-.1-.6-.2-1-.2-2.1.1-2.8.9-.2.1-.3.3-.4.4l-.3.6c0 .2-.1.3-.2.6-.1.2 0 .4 0 .6 0 .9.3 1.6.9 2.2.7.6 1.5.9 2.3.9zm0 51c-1.7 0-3.1-1.4-3.1-3.1s1.4-3.1 3.1-3.1 3.1 1.4 3.1 3.1-1.4 3.1-3.1 3.1zm0-12.7c-1.7 0-3.1-1.4-3.1-3.1s1.4-3.1 3.1-3.1 3.1 1.4 3.1 3.1-1.4 3.1-3.1 3.1zm0-12.8c-1.7 0-3.1-1.4-3.1-3.1s1.4-3.1 3.1-3.1 3.1 1.4 3.1 3.1-1.4 3.1-3.1 3.1zm0-12.7c-1.7 0-3.1-1.4-3.1-3.1s1.4-3.1 3.1-3.1 3.1 1.4 3.1 3.1c0 1.7-1.4 3.1-3.1 3.1zm-2.3 50c.6.6 1.3.9 2.2.9.9 0 1.7-.3 2.2-.9.6-.6.9-1.4.9-2.2v-.6c0-.2-.1-.3-.2-.6 0-.2-.2-.4-.3-.6-.1-.2-.2-.3-.4-.5-.6-.6-1.4-.9-2.2-.9-.9 0-1.6.3-2.2.9s-.9 1.4-.9 2.2.4 1.7.9 2.3z" class="st0"/><path d="M128.2 65.1c0 2.2-1.5 3.2-3.7 3.2h-1v3.2h-2V62h2.9c2.4.1 3.9 1.1 3.8 3.1zm-2 0c0-1.1-.6-1.6-1.8-1.6h-.9v3.3h.9c1.1 0 1.8-.4 1.8-1.7zm8.7 5.3l-.4 1.3c-.8-.1-1.4-.3-1.7-1-.5.8-1.3 1-2.1 1-1.4 0-2.3-.9-2.3-2.2 0-1.6 1.2-2.4 3.3-2.4h.8v-.3c0-.9-.4-1.2-1.3-1.2-.5 0-1.2.2-1.9.4l-.4-1.3c.9-.3 1.8-.5 2.7-.5 2 0 2.8.9 2.8 2.5v2.9c0 .4.2.6.5.8zm-2.4-.9v-1.4h-.6c-1.1 0-1.6.4-1.6 1.2 0 .6.3 1 .9 1 .6 0 1-.3 1.3-.8zm9.2-4.6l-.8 1.1c-.5-.3-.9-.5-1.4-.5-1 0-1.5.7-1.5 2.4s.6 2.2 1.5 2.2c.5 0 .9-.2 1.4-.5l.8 1.2c-.6.5-1.4.8-2.4.8-2.1 0-3.5-1.5-3.5-3.8s1.3-3.9 3.4-3.9c1.1.1 1.8.4 2.5 1zm3 6.5h-1.9v-10l1.9-.2v10.2zm2.1-4l2.5 4h-2.2l-2.3-3.9 2.3-3.3h2l-2.3 3.2zm9.2 3l-.4 1.3c-.8-.1-1.3-.3-1.6-1-.5.8-1.3 1-2.1 1-1.4 0-2.3-.9-2.3-2.2 0-1.6 1.2-2.4 3.3-2.4h.8v-.3c0-.9-.4-1.2-1.3-1.2-.5 0-1.2.2-1.9.4l-.4-1.3c.9-.3 1.8-.5 2.7-.5 2 0 2.9.9 2.9 2.5v2.9c-.2.4-.1.6.3.8zm-2.4-.9v-1.4h-.6c-1 0-1.6.4-1.6 1.2 0 .6.3 1 .9 1 .5 0 1-.3 1.3-.8zm10.2-4.8c-.5.2-1.2.3-2.1.3.9.4 1.3.9 1.3 1.8 0 1.4-1.1 2.4-3 2.4-.3 0-.6 0-.8-.1-.1.1-.3.3-.3.5 0 .3.1.5.8.5h1.1c1.6 0 2.7.9 2.7 2.1 0 1.5-1.3 2.3-3.7 2.3-2.6 0-3.3-.9-3.3-2.3h1.7c0 .7.3 1 1.6 1s1.7-.4 1.7-.9-.4-.8-1.1-.8h-1.1c-1.5 0-2.1-.6-2.1-1.4 0-.5.3-1 .8-1.3-.9-.5-1.3-1.1-1.3-2.1 0-1.6 1.3-2.6 3.1-2.6 1.6 0 2.5-.4 3.3-.9l.7 1.5zm-5 1.9c0 .8.5 1.3 1.2 1.3.8 0 1.2-.4 1.2-1.4 0-.9-.4-1.3-1.2-1.3-.7.1-1.2.6-1.2 1.4zm11.9 1.8h-4.5c.1 1.4.8 1.8 1.7 1.8.6 0 1.1-.2 1.7-.6l.8 1.1c-.7.6-1.6 1-2.7 1-2.3 0-3.5-1.5-3.5-3.8 0-2.2 1.2-3.9 3.3-3.9 2 0 3.2 1.3 3.2 3.6v.8zm-1.9-1.3c0-1.1-.4-1.8-1.3-1.8-.8 0-1.2.5-1.3 1.9l2.6-.1zM259 178.2c0 2.8-2 4.1-4.8 4.1h-1.4v4.2h-2.6v-12.2h3.8c3.1 0 5 1.3 5 3.9zm-2.7 0c0-1.4-.8-2.1-2.4-2.1h-1.1v4.3h1.2c1.4 0 2.3-.5 2.3-2.2zm13.8 2.2c0 4.9-3 6.1-6 6.1h-3.5v-12.2h3.2c3.3 0 6.3 1 6.3 6.1zm-6.9-4.2v8.4h1c1.8 0 3.1-.8 3.1-4.2 0-3.5-1.4-4.1-3.2-4.1h-.9zm8.9-1.9h7.1l-.3 1.9h-4.2v3.4h3.7v1.9h-3.7v5h-2.6v-12.2zm-260 11.2h-2v-9.4h2v9.4zm7.9-5.3v5.2h-1.9v-4.9c0-.8-.3-1.1-.8-1.1-.6 0-1 .4-1.4 1v5H14v-7.2h1.7l.2.9c.6-.7 1.3-1.1 2.2-1.1 1.2.1 1.9.9 1.9 2.2zm9.1.5c0 3.8-2.3 4.7-4.6 4.7h-2.7V176h2.4c2.6.1 4.9.9 4.9 4.7zm-5.3-3.1v6.5h.8c1.3 0 2.4-.6 2.4-3.3 0-2.7-1.1-3.2-2.4-3.2h-.8zm12.8 4.9h-4.5c.2 1.4.8 1.8 1.7 1.8.6 0 1.1-.2 1.7-.6l.8 1.1c-.7.6-1.6 1-2.7 1-2.3 0-3.5-1.5-3.5-3.8 0-2.2 1.2-3.9 3.3-3.9 2 0 3.2 1.4 3.2 3.6.1.3 0 .6 0 .8zm-1.8-1.3c0-1.1-.4-1.8-1.3-1.8-.8 0-1.2.5-1.3 1.9l2.6-.1zm8.3-2.2l-.8 1.1c-.6-.4-1.2-.6-1.8-.6s-1 .3-1 .6c0 .4.3.6 1.5 1 1.4.4 2.2 1 2.2 2.2 0 1.5-1.4 2.3-3.1 2.3-1.2 0-2.2-.4-2.9-1.1l.9-1c.5.4 1.2.7 1.9.7s1.2-.3 1.2-.8-.3-.7-1.6-1.1c-1.5-.4-2.1-1.1-2.1-2.2 0-1.2 1.1-2.1 2.8-2.1 1.2.1 2.1.4 2.8 1zm3.5-3.3c0 .6-.5 1.1-1.2 1.1s-1.2-.5-1.2-1.1.5-1.1 1.2-1.1 1.2.5 1.2 1.1zm-.1 9.8h-1.9v-7.2h1.9v7.2zm8.3-6.8c-.5.2-1.2.3-2.1.3.9.4 1.3.9 1.3 1.8 0 1.4-1.1 2.4-3 2.4-.3 0-.6 0-.8-.1-.1.1-.3.3-.3.5 0 .3.1.5.8.5h1.1c1.6 0 2.7.9 2.7 2.1 0 1.5-1.3 2.3-3.7 2.3-2.6 0-3.3-.9-3.3-2.3h1.7c0 .7.3 1 1.6 1s1.7-.4 1.7-.9-.4-.8-1.1-.8h-1c-1.5 0-2.1-.6-2.1-1.4 0-.5.3-1 .8-1.4-.9-.5-1.3-1.1-1.3-2.1 0-1.6 1.3-2.6 3.1-2.6 1.7 0 2.5-.4 3.3-.9l.6 1.6zm-5 2c0 .8.5 1.3 1.2 1.3.8 0 1.2-.5 1.2-1.4 0-.9-.4-1.3-1.2-1.3-.8.1-1.2.6-1.2 1.4zm11.9-.5v5.2h-1.9v-4.9c0-.8-.3-1.1-.8-1.1-.6 0-1 .4-1.4 1v5h-1.9v-7.2h1.7l.2.9c.6-.7 1.3-1.1 2.2-1.1 1.1.1 1.9.9 1.9 2.2z" class="st0"/></svg>