<svg xmlns="http://www.w3.org/2000/svg" id="Layer_1" viewBox="0 0 800 583.9" width="800" height="583.9"><style>.st0{fill:#2997ff}</style><path d="M266 73.6L253.9 0h85.5C355 19.5 355.7 24.5 380 24.5h143.9l-11.8 49.1h-24.9l5.7-24.5H380c-28.6 0-38.8-7.5-52.6-24.5h-45.3l8.5 49.1-24.6-.1zm270.3 24.6l-24.5 147.3H266.3L241.6 98.2h77.1l28.4-36.9L395 98.2h24.2l-17.5-13.5 18-23.4 47.8 36.9h68.8zm-28.5 24.5H270.4l17.1 98.2h203.4l16.9-98.2zm190.5 251.1c39.8 0 25.2 57.3 25.2 57.3s57.3-15.7 57.3 23.4v110.3H628.1v-191h70.2zm7.9-19.1h-97.3V584H800V446.5c0-22.8-63.6-91.8-93.8-91.8zm-608.7 0H0V584h191V446.4c0-23-63-91.7-93.5-91.7zM172 564.9H19v-191h70.7c39.1 0 24.8 57.3 24.8 57.3s57.3-16.2 57.3 23.9l.2 109.8zm29.7-394.1c.3-.5.7-.7 1.1-1.2.3-.5.6-.9.7-1.5.1-.5.3-1.1.5-1.5.1-.5.1-1.1.1-1.7 0-.6 0-1.1-.1-1.7-.1-.6-.3-1.1-.5-1.5-.1-.5-.5-.9-.7-1.5-.3-.5-.6-.9-1.1-1.2-1.5-1.5-3.6-2.4-5.9-2.4-2.1 0-4.4.9-5.9 2.4-.3.5-.7.7-1.1 1.2-.3.5-.6.9-.7 1.5-.1.5-.3 1.1-.5 1.5-.1.6-.1 1.1-.1 1.7 0 .6 0 1.1.1 1.7.1.6.3 1.1.5 1.5.1.5.5.9.7 1.5.3.5.6.9 1.1 1.2 1.5 1.5 3.6 2.4 5.9 2.4 2.2.1 4.4-.8 5.9-2.4zm-46.1-5.9c0-4.5 3.8-8.3 8.3-8.3 4.5 0 8.3 3.8 8.3 8.3 0 4.5-3.8 8.3-8.3 8.3-4.5.1-8.3-3.6-8.3-8.3zm-31.9 0c0-4.5 3.8-8.3 8.3-8.3 4.5 0 8.3 3.8 8.3 8.3 0 4.5-3.8 8.3-8.3 8.3-4.5.1-8.3-3.6-8.3-8.3zm-17.5 5.9c1.5-1.5 2.4-3.6 2.4-5.9 0-.6 0-1.1-.1-1.7-.1-.6-.3-1.1-.5-1.5-.1-.5-.5-.9-.7-1.5-.3-.5-.6-.9-1.1-1.2-2-2-4.8-2.9-7.5-2.3-.6.1-1.1.3-1.5.5-.5.1-1.1.5-1.5.7-.5.3-.9.6-1.2 1.1-.5.3-.7.7-1.1 1.2-.3.5-.6.9-.7 1.5-.1.6-.3 1.1-.5 1.5-.1.6-.1 1.1-.1 1.7 0 .6 0 1.1.1 1.7.1.6.3 1.1.5 1.5s.5.9.7 1.5c.3.5.6.9 1.1 1.2 1.5 1.5 3.6 2.4 5.9 2.4 2.1 0 4.2-.8 5.8-2.4zM92 300.9c0-4.5 3.8-8.3 8.3-8.3s8.3 3.8 8.3 8.3c0 4.5-3.8 8.3-8.3 8.3-4.6-.2-8.3-3.8-8.3-8.3zm0-34c0-4.5 3.8-8.3 8.3-8.3s8.3 3.8 8.3 8.3-3.8 8.3-8.3 8.3c-4.6 0-8.3-3.8-8.3-8.3zm0-34c0-4.5 3.8-8.3 8.3-8.3s8.3 3.8 8.3 8.3c0 4.5-3.8 8.3-8.3 8.3-4.6 0-8.3-3.8-8.3-8.3zm0-34c0-4.5 3.8-8.3 8.3-8.3s8.3 3.8 8.3 8.3c0 4.5-3.8 8.3-8.3 8.3-4.6 0-8.3-3.7-8.3-8.3zm14.2 141.7c1.5-1.5 2.4-3.6 2.4-5.9 0-2.3-.9-4.4-2.4-5.9s-3.6-2.4-5.9-2.4c-2.3 0-4.4.9-5.9 2.4-.5.5-.7.7-1.1 1.2-.3.5-.6.9-.7 1.5-.1.6-.3 1.1-.5 1.5-.1.5-.1 1.1-.1 1.7 0 2.1.9 4.4 2.4 5.9s3.6 2.4 5.9 2.4c2.3 0 4.3-.9 5.9-2.4zm463.5-167.4c2.3 0 4.4-.9 5.9-2.4.5-.3.7-.7 1.1-1.2.3-.6.6-1.1.7-1.5s.3-.9.5-1.5c.1-.6.1-1.1.1-1.7 0-.6 0-1.1-.1-1.7-.1-.5-.3-1.1-.5-1.5-.1-.6-.5-1.1-.7-1.5-.3-.5-.7-.7-1.1-1.2-1.5-1.5-3.8-2.4-5.9-2.4-2.3 0-4.4.9-5.9 2.4-.5.3-.7.7-1.1 1.2-.3.6-.6 1.1-.7 1.5s-.3.9-.5 1.5-.1 1.1-.1 1.7c0 .6 0 1.2.1 1.7s.3 1.1.5 1.5c.1.6.5 1.1.7 1.5.3.5.7.7 1.1 1.2 1.5 1.6 3.8 2.5 5.9 2.4zm31.9 0c-4.5 0-8.3-3.8-8.3-8.3 0-4.5 3.8-8.3 8.3-8.3 4.5 0 8.3 3.8 8.3 8.3 0 4.7-3.8 8.4-8.3 8.3zm31.9 0c-4.5 0-8.3-3.8-8.3-8.3 0-4.5 3.8-8.3 8.3-8.3s8.3 3.8 8.3 8.3c0 4.7-3.8 8.4-8.3 8.3zm31.7 0c2.3 0 4.4-.9 5.9-2.4.5-.3.7-.7 1.1-1.2.3-.6.6-1.1.7-1.5s.3-.9.5-1.5.1-1.1.1-1.7c0-.6 0-1.1-.1-1.7-.1-.5-.3-.9-.5-1.5s-.5-1.1-.7-1.5-.6-.9-1.1-1.2c-.3-.5-.7-.7-1.2-1.1-.5-.3-1.1-.6-1.5-.7-.5-.1-.9-.3-1.5-.5-2.7-.6-5.6.3-7.5 2.3-.5.3-.7.7-1.1 1.2-.3.6-.6 1.1-.7 1.5s-.3.9-.5 1.5-.1 1.1-.1 1.7c0 2.3.9 4.4 2.4 5.9 1.6 1.6 3.7 2.4 5.8 2.4zm0 136c-4.5 0-8.3-3.8-8.3-8.3 0-4.5 3.8-8.3 8.3-8.3 4.5 0 8.3 3.8 8.3 8.3 0 4.5-3.6 8.1-8.3 8.3zm0-34c-4.5 0-8.3-3.8-8.3-8.3 0-4.5 3.8-8.3 8.3-8.3 4.5 0 8.3 3.8 8.3 8.3 0 4.5-3.6 8.3-8.3 8.3zm0-34c-4.5 0-8.3-3.8-8.3-8.3 0-4.5 3.8-8.3 8.3-8.3 4.5 0 8.3 3.8 8.3 8.3 0 4.5-3.6 8.3-8.3 8.3zm0-34c-4.5 0-8.3-3.8-8.3-8.3 0-4.5 3.8-8.3 8.3-8.3 4.5 0 8.3 3.8 8.3 8.3 0 4.6-3.6 8.3-8.3 8.3zm-5.9 133.4c1.7 1.5 3.6 2.4 5.9 2.4 2.3 0 4.4-.9 5.9-2.4s2.4-3.8 2.4-5.9c0-.6 0-1.2-.1-1.7s-.3-.9-.5-1.5c-.1-.6-.5-1.1-.7-1.5-.3-.5-.6-.7-1.1-1.2-1.5-1.5-3.6-2.4-5.9-2.4-2.3 0-4.4.9-5.9 2.4s-2.4 3.6-2.4 5.9c0 2.3.9 4.4 2.4 5.9z" class="st0"/><path d="M342 173.6c0 5.8-4.1 8.4-9.8 8.4h-2.8v8.5h-5.3v-25h7.7c6.3.1 10.2 2.7 10.2 8.1zm-5.5 0c0-2.9-1.7-4.2-4.8-4.2h-2.4v8.7h2.4c3 0 4.8-1.1 4.8-4.5zm23.3 14.1l-1.1 3.4c-2.2-.2-3.6-.9-4.4-2.8-1.4 2.1-3.5 2.8-5.7 2.8-3.8 0-6.2-2.5-6.2-5.9 0-4.2 3.2-6.5 8.8-6.5h2.2v-.9c0-2.4-1-3.2-3.4-3.2-1.3 0-3.2.4-5 1l-1.2-3.4c2.4-.9 4.9-1.4 7.1-1.4 5.3 0 7.6 2.4 7.6 6.7v7.7c-.1 1.6.4 2.1 1.3 2.5zm-6.4-2.4v-3.6h-1.7c-2.8 0-4.2 1-4.2 3.1 0 1.7.9 2.7 2.5 2.7 1.5 0 2.6-.8 3.4-2.2zm24.5-12.2l-2.2 3c-1.2-.9-2.4-1.4-3.8-1.4-2.6 0-4.1 1.8-4.1 6.3s1.6 5.9 4 5.9c1.4 0 2.4-.4 3.8-1.3l2.2 3.2c-1.7 1.4-3.8 2.2-6.3 2.2-5.7 0-9.2-3.9-9.2-10s3.5-10.3 9.1-10.3c2.7.1 4.7.9 6.5 2.4zm8 17.4h-5.1v-26.8l5.1-.6v27.4zm5.5-10.7l6.7 10.7h-5.9L386 180l6.1-8.7h5.3l-6 8.5zm24.5 7.9l-1.1 3.4c-2.2-.2-3.6-.9-4.4-2.8-1.4 2.1-3.5 2.8-5.7 2.8-3.8 0-6.2-2.5-6.2-5.9 0-4.2 3.2-6.5 8.8-6.5h2.2v-.9c0-2.4-1-3.2-3.4-3.2-1.3 0-3.2.4-5 1l-1.2-3.4c2.4-.9 4.9-1.4 7.1-1.4 5.3 0 7.6 2.4 7.6 6.7v7.7c0 1.6.4 2.1 1.3 2.5zm-6.4-2.4v-3.6h-1.7c-2.8 0-4.2 1-4.2 3.1 0 1.7.9 2.7 2.5 2.7 1.5 0 2.6-.8 3.4-2.2zm27.2-12.8c-1.4.5-3.2.7-5.5.7 2.4 1.1 3.5 2.5 3.5 4.9 0 3.7-3 6.4-7.9 6.4-.8 0-1.5-.1-2.2-.3-.4.3-.7.7-.7 1.3 0 .7.3 1.3 2.2 1.3h2.9c4.3 0 7.1 2.3 7.1 5.5 0 3.9-3.4 6.2-9.8 6.2-7 0-8.9-2.3-8.9-6.1h4.6c0 1.8.8 2.6 4.4 2.6 3.5 0 4.5-1 4.5-2.4 0-1.3-1-2.1-3-2.1h-2.8c-4 0-5.7-1.7-5.7-3.8 0-1.4.9-2.7 2.2-3.6-2.4-1.3-3.4-3-3.4-5.5 0-4.2 3.4-6.9 8.2-6.9 4.4.1 6.7-1 8.9-2.3l1.4 4.1zm-13.2 5.2c0 2.2 1.2 3.5 3.2 3.5 2.1 0 3.2-1.2 3.2-3.6 0-2.3-1.1-3.4-3.2-3.4-2 .1-3.2 1.4-3.2 3.5zm31.6 4.8h-12c.4 3.7 2.1 4.8 4.6 4.8 1.6 0 3-.5 4.6-1.7l2.1 2.9c-1.9 1.5-4.3 2.6-7.3 2.6-6.1 0-9.4-4-9.4-10 0-5.8 3.1-10.3 8.7-10.3 5.4 0 8.6 3.6 8.6 9.7.2.7.1 1.5.1 2zm-5-3.4c0-2.9-1-4.8-3.4-4.8-2 0-3.2 1.3-3.5 5h7v-.2h-.1zm240.5 296.2c0 7.5-5.3 10.9-12.8 10.9h-3.7v11.1h-6.9v-32.4h10c8.3 0 13.4 3.4 13.4 10.4zm-7.2 0c0-3.8-2.2-5.5-6.3-5.5h-3v11.4h3.2c3.7 0 6.1-1.5 6.1-5.9zm36.9 5.7c0 13.1-8 16.4-15.9 16.4h-9.3V465h8.5c8.6-.1 16.7 2.5 16.7 16zM702 469.9v22.3h2.8c4.7 0 8.3-2.2 8.3-11.3 0-9.3-3.8-11-8.5-11H702zm23.6-5h18.8l-.7 5h-11.2v9.2h9.8v5h-9.8v13.2h-6.9v-32.4zM32.2 494.7h-5.3v-25h5.3v25zm21.2-14v13.9h-5.1v-13.1c0-2.2-.8-2.8-2.1-2.8-1.5 0-2.6 1-3.7 2.7v13.2h-5.1v-19.1h4.5l.4 2.4c1.5-1.9 3.4-3 5.8-3 3.3 0 5.3 2.2 5.3 5.8zm24.3 1.3c0 10.1-6.1 12.6-12.3 12.6h-7.1v-25h6.5c6.6.1 12.9 2.1 12.9 12.4zm-14.1-8.4v17.2h2.2c3.6 0 6.4-1.7 6.4-8.7 0-7.1-2.9-8.5-6.5-8.5h-2.1zm34.1 13h-12c.4 3.7 2.1 4.8 4.6 4.8 1.6 0 3-.5 4.6-1.7l2.1 2.9c-1.9 1.5-4.3 2.6-7.3 2.6-6.1 0-9.4-4-9.4-10 0-5.8 3.1-10.3 8.7-10.3 5.4 0 8.6 3.6 8.6 9.7.2.7.1 1.5.1 2zm-5-3.4c0-2.9-1-4.8-3.4-4.8-2 0-3.2 1.3-3.5 5h7l-.1-.2zm22.2-5.9l-2 2.9c-1.5-1-3.1-1.5-4.8-1.5-1.7 0-2.6.7-2.6 1.7 0 1.1.7 1.6 4 2.6 3.8 1.1 6 2.6 6 6 0 4-3.7 6.2-8.3 6.2-3.3 0-6-1.1-7.8-2.8l2.5-2.8c1.4 1.1 3.2 1.9 5.1 1.9s3.2-.8 3.2-2.1c0-1.4-.7-1.9-4.2-2.9-3.9-1.1-5.7-3-5.7-5.9 0-3.2 3-5.7 7.6-5.7 2.8 0 5.1.9 7 2.4zm9.5-8.6c0 1.7-1.3 3-3.2 3-1.8 0-3.1-1.3-3.1-3s1.3-3 3.1-3 3.2 1.3 3.2 3zm-.5 26h-5.1v-19.1h5.1v19.1zm22.1-18.1c-1.4.5-3.2.7-5.5.7 2.4 1.1 3.5 2.5 3.5 4.9 0 3.7-3 6.4-7.9 6.4-.8 0-1.5-.1-2.2-.3-.4.3-.7.7-.7 1.3 0 .7.3 1.3 2.2 1.3h2.9c4.3 0 7.1 2.3 7.1 5.5 0 3.9-3.4 6.2-9.8 6.2-7 0-8.9-2.3-8.9-6.1h4.6c0 1.8.8 2.6 4.4 2.6 3.5 0 4.5-1 4.5-2.4 0-1.3-1-2.1-3-2.1h-2.8c-4 0-5.7-1.7-5.7-3.8 0-1.4.9-2.7 2.2-3.6-2.4-1.3-3.4-3-3.4-5.5 0-4.2 3.4-6.9 8.2-6.9 4.4.1 6.7-1 8.9-2.3l1.4 4.1zm-13.3 5.2c0 2.2 1.2 3.5 3.2 3.5 2.1 0 3.2-1.2 3.2-3.6 0-2.3-1.1-3.4-3.2-3.4-2 .1-3.2 1.4-3.2 3.5zm31.8-1.1v13.9h-5.1v-13.1c0-2.2-.8-2.8-2.1-2.8-1.5 0-2.6 1-3.7 2.7v13.2h-5.1v-19.1h4.5l.4 2.4c1.5-1.9 3.4-3 5.8-3 3.3 0 5.3 2.2 5.3 5.8z" class="st0"/></svg>