<svg xmlns="http://www.w3.org/2000/svg" id="Layer_1" viewBox="0 0 800 753.2" width="800" height="753.2"><style>.st0{fill:#787878}.st1{fill:#2997ff}.st2{enable-background:new}</style><g id="a5aa1b63-5bd2-4389-81ed-966d048faa97"><g id="b1839b9b-9fd0-4519-ba49-b37fc5dce2e2"><path d="M800 752.4H689.8v-6.6H800v6.6zm-347.6 0H331.1v-6.6h121.2v6.6zM800 720.7H606.2v-6.6H800v6.6zm-310.2 0H295.9v-6.6h193.8v6.6zM800 689.1H606.2v-6.6H800v6.6zm-310.2 0H295.9v-6.6h193.8v6.6zM800 657.4H606.2v-6.6H800v6.6zm-310.2 0H295.9v-6.6h193.8v6.6zM800 625.7H606.2v-6.6H800v6.6zm-310.2 0H295.9v-6.6h193.8v6.6zM800 593.8H606.2v-6.6H800v6.6zm-310.2 0H295.9v-6.6h193.8v6.6zm294.6-217H590.5v-6.6h193.8v6.6zm-294.6 0H295.9v-6.6h193.8v6.6zm294.6-31.6h-163v-6.6h163v6.6zm-323.2 0H322.3v-6.6h138.8v6.6zm323.2-31.7H590.5v-6.6h193.8v6.6zm-294.6 0H295.9v-6.6h193.8v6.6zm294.6-31.7h-163v-6.6h163v6.6zm-323.2 0H322.3v-6.6h138.8v6.6zm323.2-31.7H590.5v-6.6h193.8v6.6zm-294.6 0H295.9v-6.6h193.8v6.6zm294.6-31.9h-163v-6.6h163v6.6zm-323.2 0H322.3v-6.6h138.8v6.6z" class="st0"/><path d="M310.2 121.8h-8.1l-1.5 5.7h-4.8l7.5-24.4h5.9l7.5 24.4h-4.8l-1.7-5.7zm-1.1-3.7l-3.1-11.7-3.1 11.7h6.2zm9.7 5.1v-21.8l4.6-.4v22.2c0 .9.2 1.3 1.1 1.3.4 0 .7 0 1.1-.2l.9 3.1c-.9.4-2 .7-3.1.7-2.4.2-4.4-1.5-4.6-4v-.9zm15.9-21.2c-.2 1.5-1.5 2.6-3.1 2.4-1.3-.2-2.2-1.1-2.4-2.4.2-1.5 1.5-2.6 3.1-2.6 1.3.2 2.1 1.1 2.4 2.6zm-.7 25.3h-4.6v-18.7h4.6v18.7zm21.6-17.6c-1.8.4-3.5.7-5.3.7 2 .7 3.5 2.6 3.3 4.8 0 3.5-2.9 6.2-7.5 6.2-.7 0-1.5 0-2.2-.2-.4.2-.7.9-.9 1.3 0 .7.4 1.3 2.2 1.3h2.9c4.2 0 6.8 2.2 6.8 5.3 0 3.7-3.3 5.9-9.2 5.9-6.6 0-8.6-2.2-8.6-5.9h4c0 1.8.9 2.6 4.4 2.6s4.6-.9 4.6-2.4-1.1-2.2-3.1-2.2h-2.9c-3.7 0-5.3-1.8-5.3-3.5 0-1.5.9-2.9 2.2-3.5-2-.9-3.3-3.1-3.3-5.3 0-4 3.3-6.6 7.7-6.6 3.1.2 6.2-.4 8.8-2l1.4 3.5zm-13 5.1c-.2 1.8 1.1 3.3 2.9 3.7h.4c2.2 0 3.3-1.3 3.3-3.7 0-2.4-1.1-3.5-3.3-3.5-1.8 0-3.3 1.3-3.3 3.1v.4zm30.8-.9v13.4h-4.6v-12.8c0-2.4-.9-3.1-2.2-3.1-1.8.2-3.3 1.3-4 2.9v13h-4.4v-18.7h4l.4 2.4c1.3-1.8 3.3-2.9 5.7-2.9 2.9 0 5.1 2.2 5.1 4.8.2.4.2.8 0 1zm30.6-8.8l-2.4 2.6c-1.3-1.1-2.9-1.8-4.4-1.8-3.3 0-5.9 2.4-5.9 9s2.4 9 5.9 9c1.8 0 3.5-.7 5.1-2l2.2 2.6c-2 2-4.6 3.1-7.3 2.9-6.4 0-10.8-4.4-10.8-12.8s4.6-12.5 10.6-12.5c2.6.4 5 1.3 7 3zm17.8 14.3h-11.7c.4 3.7 2.2 5.1 4.6 5.1 1.8 0 3.3-.7 4.6-1.8l2 2.6c-2 1.5-4.4 2.4-6.8 2.4-5.7 0-8.8-4-8.8-9.7 0-5.9 3.1-9.9 8.4-9.9s8.1 3.5 8.1 9.5c-.2.5-.2 1.4-.4 1.8zm-4.4-3.1c0-3.1-1.1-4.8-3.5-4.8-2.2 0-3.5 1.3-3.7 5.1l7.2-.3zm23.7-2.4v13.4h-4.4v-12.8c0-2.4-.9-3.1-2.2-3.1-1.8.2-3.3 1.3-4 2.9v13H426v-18.7h4l.2 2.4c1.3-1.8 3.5-2.9 5.7-2.9 2.9-.2 5.1 2 5.3 4.6.2.6.2.8-.1 1.2zm15.9 12.6c-1.3.9-3.1 1.3-4.6 1.3-3.7 0-5.7-2.2-5.7-6.2v-9.9h-2.9v-3.1h2.9v-4.2l4.4-.4v4.6h4.4l-.4 3.3h-3.7v9.9c0 1.8.7 2.6 2 2.6.9 0 1.5-.2 2.2-.7l1.4 2.8zm17.1-7.1h-11.7c.4 3.7 2.2 5.1 4.6 5.1 1.8 0 3.3-.7 4.6-1.8l2 2.6c-2 1.5-4.4 2.4-6.8 2.4-5.7 0-8.8-4-8.8-9.7 0-5.9 3.1-9.9 8.4-9.9s8.1 3.5 8.1 9.5c-.4.5-.4 1.4-.4 1.8zm-4.4-3.1c0-3.1-1.1-4.8-3.5-4.8-2.2 0-3.5 1.3-3.7 5.1l7.2-.3zm19.6-7.7l-.9 4.4c-.4-.2-1.1-.2-1.8-.2-2.2 0-3.5 1.8-4.2 4.8v9.9h-4.6v-18.9h4l.4 3.7c.4-2.4 2.4-4 4.8-4.2 1 .1 1.7.3 2.3.5zm115.8 13.2H597l-1.5 5.7h-4.8l7.5-24.4h5.7l7.5 24.4h-4.8l-1.5-5.7zm-1.1-3.7l-3.1-11.7-3.1 11.7h6.2zm9.6 5.1v-21.8l4.4-.4v22.2c0 .9.2 1.3 1.1 1.3.4 0 .7 0 1.1-.2l1.1 3.1c-.9.4-2 .7-3.1.7-2.4.2-4.4-1.5-4.6-4v-.9zm15.9-21.2c-.2 1.5-1.8 2.6-3.3 2.2-1.1-.2-2-1.1-2.2-2.2.2-1.5 1.5-2.6 3.1-2.6 1.3.2 2.2 1.1 2.4 2.6zm-.7 25.3h-4.4v-18.7h4.4v18.7zm21.6-17.6c-1.8.4-3.5.7-5.5.7 2 .7 3.5 2.6 3.3 4.8 0 3.5-2.9 6.2-7.5 6.2-.7 0-1.5 0-2.2-.2-.4.2-.7.9-.9 1.3 0 .7.4 1.3 2.2 1.3h2.9c4.2 0 6.8 2.2 6.8 5.3 0 3.7-3.3 5.9-9.2 5.9-6.6 0-8.6-2.2-8.6-5.9h4.2c0 1.8.9 2.6 4.4 2.6 3.5 0 4.6-.9 4.6-2.4s-1.1-2.2-3.1-2.2h-2.6c-3.7 0-5.3-1.8-5.3-3.5 0-1.5.9-2.9 2.2-3.5-2-.9-3.3-3.1-3.3-5.3 0-4 3.3-6.6 7.7-6.6 3.1.2 6.2-.4 8.8-2l1.1 3.5zm-13 5.1c-.2 1.8 1.1 3.5 2.9 3.7h.4c2.2 0 3.3-1.3 3.3-3.7 0-2.4-1.1-3.5-3.3-3.5-1.8 0-3.3 1.3-3.3 3.1v.4zm30.8-.9v13.4h-4.4v-12.8c0-2.4-.9-3.1-2.2-3.1-1.8.2-3.3 1.3-4 2.9v13h-4.4v-18.7h4l.4 2.4c1.3-1.8 3.5-2.9 5.7-2.9 2.9-.2 5.1 2 5.3 4.8-.4.4-.4.6-.4 1zm21.8 3.8h-3.1v9.7h-4.6V103h7.3c6.4 0 9.7 2.2 9.7 7 0 3.1-2 5.7-4.8 6.6l6.4 10.6h-5.3c-.1-.1-5.6-9.5-5.6-9.5zm-3.1-3.6h2.9c2.9 0 4.4-1.1 4.4-4.2 0-2.9-1.3-3.7-4.8-3.7H687l-.1 7.9zm21.8-12.1c-.2 1.5-1.5 2.6-3.1 2.6-1.3-.2-2.4-1.1-2.6-2.6.2-1.5 1.5-2.6 3.1-2.6 1.5.2 2.4 1.1 2.6 2.6zm-.4 25.3h-4.4v-18.7h4.4v18.7zm21.3-17.6c-1.8.4-3.5.7-5.5.7 2 .7 3.5 2.6 3.3 4.8 0 3.5-2.9 6.2-7.5 6.2-.7 0-1.5 0-2.2-.2-.4.2-.7.9-.9 1.3 0 .7.4 1.3 2.2 1.3h2.9c4.2 0 6.8 2.2 6.8 5.3 0 3.7-3.3 5.9-9.2 5.9-6.6 0-8.6-2.2-8.6-5.9h4c0 1.8.9 2.6 4.4 2.6s4.6-.9 4.6-2.4-1.1-2.2-3.1-2.2h-2.9c-3.7 0-5.3-1.8-5.3-3.5 0-1.5.9-2.9 2.2-3.5-2-.9-3.3-3.1-3.3-5.3 0-4 3.3-6.6 7.7-6.6 3.1.2 6.2-.4 8.8-2l1.6 3.5zm-13 5.1c-.2 1.8 1.1 3.3 2.9 3.7h.4c2.2 0 3.3-1.3 3.3-3.7 0-2.4-1.1-3.5-3.3-3.5-1.8 0-3.3 1.3-3.3 3.1v.4zm31-.9v13.4h-4.4v-12.8c0-2.4-.9-3.1-2.2-3.1-1.8.2-3.3 1.3-4 2.9v13h-4.4v-26l4.4-.4v9.9c1.3-1.8 3.3-2.9 5.5-2.6 2.9 0 5.1 2.2 5.1 5.1v.6zm15.7 12.6c-1.3.9-3.1 1.3-4.6 1.3-3.7 0-5.5-2.2-5.5-6.2v-9.9h-2.9v-3.1h2.9v-4.2l4.4-.4v4.6h4.4l-.4 3.3h-4v9.9c0 1.8.7 2.6 2 2.6.9 0 1.5-.2 2.2-.7-.1.1 1.5 2.8 1.5 2.8zm-162.2 33.4h-2.9v9.7h-4.6v-24.4h7.3c6.4 0 9.7 2.2 9.7 7 0 3.1-2 5.7-4.8 6.6l6.4 10.6h-5.3l-5.8-9.5zm-2.9-3.5h2.9c2.9 0 4.4-1.1 4.4-4s-1.5-3.7-4.8-3.7h-2.4l-.1 7.7zm31.5 10.8l-.9 3.1c-1.8 0-3.5-1.1-4.2-2.6-1.3 2-3.3 2.9-5.5 2.9-3.1.2-5.7-2-5.9-5.1v-.7c0-4 3.1-6.2 8.4-6.2h2.4v-1.1c0-2.4-1.1-3.3-3.5-3.3-1.8 0-3.3.4-4.8.9l-1.1-3.1c2.2-.9 4.4-1.3 6.8-1.5 5.1 0 7.3 2.2 7.3 6.4v7.9c-.3 1.5.1 1.9 1 2.4zm-5.7-2.7v-3.7h-2c-2.9 0-4.4 1.1-4.4 3.3-.2 1.3.7 2.6 2 2.9h.7c1.5-.3 3-1.2 3.7-2.5zm25.9-12.5c-1.8.4-3.5.7-5.5.7 2.2.7 3.5 2.6 3.5 4.8 0 3.7-2.9 6.2-7.5 6.2-.7 0-1.5 0-2.2-.2-.4.2-.7.9-.9 1.3 0 .7.4 1.3 2.2 1.3h2.9c4.2 0 6.8 2.2 6.8 5.3 0 3.7-3.3 5.9-9.2 5.9-6.6 0-8.6-2.2-8.6-5.9h4c0 1.8.9 2.6 4.4 2.6 3.5 0 4.6-1.1 4.6-2.4s-1.1-2.2-3.1-2.2h-2.9c-3.7 0-5.3-1.8-5.3-3.5 0-1.5.9-2.9 2.2-3.5-2-.9-3.3-3.1-3.3-5.3 0-4 3.3-6.6 7.7-6.6 3.1.2 6.2-.4 8.8-2l1.4 3.5zm-12.9 5c-.2 1.8 1.1 3.3 2.9 3.7h.4c2.2 0 3.3-1.3 3.3-3.7 0-2.4-1.1-3.5-3.3-3.5-1.8 0-3.3 1.3-3.3 3.1v.4zm29.2 8.8h9.7l-.4 3.7h-13.9v-24.4h4.6v20.7zm27.3-4.1h-11.7c.4 3.7 2.2 5.1 4.6 5.1 1.8 0 3.3-.7 4.6-1.8l1.8 2.6c-2 1.5-4.4 2.6-6.8 2.6-5.7 0-8.8-4-8.8-9.7 0-5.9 2.9-10.1 8.1-10.1s8.1 3.5 8.1 9.5c.3.4.1 1.3.1 1.8zm-4.4-3.1c0-3.1-1.1-4.8-3.5-4.8-2.2 0-3.5 1.3-3.7 5.1l7.2-.3zm13.7-9.7v2h3.5l-.4 3.3h-3.1v15.4h-4.4v-15.4h-3.1v-3.3h3.1v-2c0-3.3 2.2-5.9 6.6-5.9 1.1 0 2 .2 3.1.4l-.9 3.3c-.7-.2-1.1-.2-1.8-.2-2 0-2.6.6-2.6 2.4zm17.8 19.8c-1.3.9-3.1 1.5-4.6 1.3-3.7 0-5.5-2.2-5.5-6.2V154h-2.9v-3.3h2.9v-4.2l4.4-.4v4.6h4.4l-.4 3.3h-4v9.7c0 1.8.7 2.6 2 2.6.9 0 1.5-.2 2.2-.7-.1 0 1.5 3.1 1.5 3.1zM315.3 523.2l-2.4 2.6c-1.3-1.1-2.9-1.8-4.4-1.8-3.3 0-5.9 2.4-5.9 9s2.4 9 5.9 9c1.8 0 3.5-.7 5.1-2l2.2 2.6c-2 2-4.6 3.1-7.3 2.9-6.4 0-10.8-4.4-10.8-12.8s4.6-12.8 10.6-12.8c2.6.6 5 1.5 7 3.3zm17.8 14.5h-11.7c.4 3.7 2.2 5.1 4.6 5.1 1.8 0 3.3-.7 4.6-1.8l2 2.6c-2 1.5-4.4 2.4-6.8 2.4-5.7 0-8.8-3.7-8.8-9.7s3.1-9.9 8.4-9.9 8.1 3.5 8.1 9.5c-.2.5-.4 1.1-.4 1.8zm-4.4-3.1c0-3.1-1.1-4.8-3.5-4.8-2.2 0-3.5 1.3-3.7 5.1l7.2-.3zm23.8-2.6v13.4h-4.6v-12.8c0-2.4-.9-3.1-2.2-3.1-1.3 0-2.9 1.1-4 2.9v13h-4.6v-18.7h4l.4 2.4c1.3-1.8 3.3-2.9 5.7-2.9 2.9-.2 5.1 2 5.3 4.8v1zm15.8 12.5c-1.3.9-3.1 1.5-4.6 1.3-3.7 0-5.7-2.2-5.7-6.2v-9.9h-2.9v-3.3h2.9v-4.2l4.4-.4v4.6h4.4l-.4 3.3h-3.7v9.7c0 1.8.7 2.6 2 2.6.9 0 1.5-.2 2.2-.7l1.4 3.2zm17-6.8h-11.7c.4 3.7 2.2 5.1 4.6 5.1 1.8 0 3.3-.7 4.6-1.8l1.8 2.6c-2 1.5-4.4 2.4-6.8 2.4-5.7 0-8.8-3.7-8.8-9.7s3.1-9.9 8.4-9.9 8.1 3.5 8.1 9.5c0 .5 0 1.1-.2 1.8zm-4.4-3.1c0-3.1-1.1-4.8-3.5-4.8-2.2 0-3.5 1.3-3.7 5.1l7.2-.3zm19.5-7.9l-.9 4.4c-.4-.2-1.1-.2-1.8-.2-2.2 0-3.5 1.8-4.2 4.8v9.9h-4.4v-18.7h4l.4 3.7c.4-2.4 2.4-4 4.8-4.2 1 .1 1.7.1 2.1.3zm.9 5.9h10.6v3.5h-10.6v-3.5zm20.5 9.3c0 5.7-3.1 7.7-7 9l-1.3-3.3c3.1-1.3 3.7-2.9 3.7-5.7v-20.7h4.6v20.7zm20 3.5h-4l-.2-2.6c-1.1 2-3.3 3.3-5.7 3.1-3.3 0-5.3-2.2-5.3-5.7v-13.4h4.6v12.8c0 2.2.7 2.9 2.2 2.9 1.5-.2 3.1-1.1 3.7-2.6v-13h4.4l.3 18.5zm17.8-17l-1.8 2.6c-1.3-.9-3.1-1.5-4.6-1.5-1.8 0-2.9.7-2.9 1.8s.7 1.8 4 2.6c3.7 1.1 5.9 2.6 5.9 5.9 0 4-3.5 5.9-7.9 5.9-2.6 0-5.3-.9-7.5-2.6l2.2-2.4c1.5 1.1 3.3 1.8 5.1 1.8 2 0 3.3-.9 3.3-2.2 0-1.3-.7-2-4.2-3.1-4-1.1-5.5-2.9-5.5-5.7 0-3.1 2.9-5.5 7.3-5.5 2.4.2 4.9 1.1 6.6 2.4zm15 16.1c-1.3.9-3.1 1.5-4.6 1.3-3.7 0-5.7-2.2-5.7-6.2v-9.9h-2.9v-3.3h2.9v-4.2l4.6-.4v4.6h4.4l-.4 3.3h-4v9.7c0 1.8.7 2.6 2 2.6.9 0 1.5-.2 2.2-.7l1.5 3.2zm7.5-24.4c-.2 1.5-1.5 2.6-3.1 2.6-1.3-.2-2.4-1.1-2.6-2.6.2-1.5 1.5-2.6 3.1-2.6 1.5.2 2.3 1 2.6 2.6zm-.5 25.3h-4.4v-18.7h4.4v18.7zm10.1-20.5v2h4.4l-.4 3.3h-4v15.4h-4.4v-15.4h-3.1v-3.3h3.1v-2c0-3.3 2.2-5.9 6.6-5.9 1.8 0 3.3.4 4.8 1.1l-1.3 3.1c-.9-.4-2-.7-3.1-.7-1.7-.2-2.6.7-2.6 2.4z"/><path d="M508 545.6c-1.1 4.4-5.1 7.5-9.7 7.5l-.4-3.3c2.6 0 5.1-1.8 5.9-4.4h-1.5l-5.9-18.7h4.8l4 15.6 4.2-15.6h4.6l-6 18.9zm93.1-9.9h-2.9v9.7h-4.6V521h7.3c6.4 0 9.7 2.4 9.7 7 0 3.1-2 5.7-4.8 6.6l6.4 10.6h-5.3l-5.8-9.5zm-2.9-3.3h2.9c2.9 0 4.4-1.1 4.4-4.2s-1.5-3.7-4.8-3.7h-2.4l-.1 7.9zm21.8-12.3c0 1.5-1.1 2.9-2.6 2.9s-2.9-1.1-2.9-2.6 1.1-2.9 2.6-2.9c1.6-.3 2.7.8 2.9 2.6 0-.2 0 0 0 0zm-.6 25.3H615v-18.7h4.4v18.7zm21.5-17.6c-1.8.4-3.5.7-5.5.7 2 .7 3.5 2.6 3.3 4.8 0 3.5-2.9 6.4-7.5 6.4-.7 0-1.5 0-2.2-.2-.4.2-.7.9-.9 1.3 0 .7.4 1.3 2.2 1.3h2.9c4.2 0 6.8 2.2 6.8 5.3 0 3.7-3.3 5.9-9.2 5.9-6.6 0-8.6-2.2-8.6-5.7h4c0 1.8.9 2.6 4.4 2.6 3.5 0 4.6-.9 4.6-2.4s-1.1-2.2-3.1-2.2h-2.9c-3.7 0-5.3-1.8-5.3-3.5 0-1.5.9-2.9 2.2-3.5-2-.9-3.3-3.1-3.3-5.3 0-4 3.3-6.6 7.7-6.6 3.1.2 6.2-.4 8.8-2l1.6 3.1zm-13 5c-.2 1.8 1.1 3.3 2.9 3.7h.4c2.2 0 3.3-1.3 3.3-3.7s-1.1-3.5-3.3-3.5c-1.8 0-3.3 1.3-3.3 3.1v.4zm30.8-.8v13.4h-4.4v-12.8c0-2.4-.9-3.1-2.2-3.1-1.8.2-3.1 1.3-4 2.9v13h-4.4v-26l4.4-.4v10.1c1.3-1.8 3.3-2.6 5.5-2.6 2.9 0 5.1 2 5.3 4.8-.2 0-.2.4-.2.7zm15.9 12.5c-1.3.9-3.1 1.5-4.6 1.3-3.7 0-5.5-2.2-5.5-6.2v-9.9h-2.9v-3.3h2.9v-4.2l4.4-.4v4.6h4.4l-.4 3.3h-4v9.7c0 1.8.7 2.6 2 2.6.9 0 1.5-.2 2.2-.7l1.5 3.2zm.2-11.9h10.6v3.5h-10.6v-3.5zm20.2 9.3c0 5.7-3.1 7.7-7 9l-1.3-3.3c3.3-1.3 3.7-2.9 3.7-5.7v-20.7h4.6v20.7zm20.3 3.5h-4l-.2-2.6c-1.1 2-3.3 3.3-5.7 3.1-3.3 0-5.3-2.2-5.3-5.7v-13.4h4.4v12.8c0 2.2.7 2.9 2.2 2.9 1.5-.2 3.1-1.1 3.7-2.6v-13h4.4l.5 18.5zm17.8-17l-1.8 2.6c-1.3-.9-3.1-1.5-4.6-1.5-1.8 0-2.9.7-2.9 1.8s.7 1.8 4 2.6c3.7 1.1 5.9 2.6 5.9 5.9 0 4-3.5 5.9-7.9 5.9-2.6 0-5.3-.9-7.5-2.6l2.2-2.4c1.5 1.1 3.3 1.8 5.1 1.8 2 0 3.3-.9 3.3-2.2s-.7-2-4.2-3.1c-4-1.1-5.5-2.9-5.5-5.7 0-3.1 2.9-5.5 7.3-5.5 2.4.2 4.9 1.1 6.6 2.4zm15 16.1c-1.3.9-3.1 1.5-4.6 1.3-3.7 0-5.5-2.2-5.5-6.2v-9.9h-2.9v-3.3h2.9v-4.2l4.4-.4v4.6h4.4l-.4 3.3h-4v9.7c0 1.8.7 2.6 2 2.6.9 0 1.5-.2 2.2-.7l1.5 3.2zm7.5-24.4c0 1.5-1.1 2.9-2.6 2.9s-2.9-1.1-2.9-2.6 1.1-2.9 2.6-2.9c1.5-.3 2.9.8 2.9 2.6 0-.2 0 0 0 0zm-.7 25.3h-4.4v-18.7h4.4v18.7zm10.6-20.5v2h4.4l-.4 3.3h-4v15.4h-4.4v-15.4H758v-3.3h3.1v-2c0-3.3 2.2-5.9 6.6-5.9 1.8 0 3.3.4 4.8 1.1l-1.3 3.1c-.9-.4-2-.7-3.1-.7-2-.2-2.6.7-2.6 2.4z"/><path d="M781.5 545.6c-1.1 4.4-5.1 7.7-9.7 7.5l-.4-3.3c2.6 0 5.1-1.8 5.9-4.4h-1.5l-5.9-18.7h4.8l4 15.6 4.2-15.6h4.6l-6 18.9z"/></g></g><g id="a5aa1b63-5bd2-4389-81ed-966d048faa97_00000008862318163370947660000000211903929632960393_"><path id="b1839b9b-9fd0-4519-ba49-b37fc5dce2e2_00000031893896382790775230000010546914935983676318_" d="M194.1 376.8H.2v-6.6H194v6.6zm-33-31.6H.2v-6.6H161v6.6zm33-31.7H.2v-6.6H194v6.6zm-33-31.7H.2v-6.6H161v6.6zm33-31.7H.2v-6.6H194v6.6zm-33-31.9H.2v-6.6H161v6.6zM14.5 121.8H6.4l-1.5 5.7H0l7.5-24.4h5.9l7.5 24.4h-4.8l-1.6-5.7zm-1.1-3.5l-3.1-11.7-3.1 11.7h6.2zm9.7 4.9v-21.8l4.6-.4v22.2c0 .9.2 1.3 1.1 1.3.4 0 .7 0 1.1-.2l1.1 3.1c-.9.4-2 .7-3.1.7-2.4.2-4.4-1.5-4.6-3.7-.2-.6-.2-1-.2-1.2zM38.9 102c0 1.5-1.3 2.9-2.9 2.9-1.5 0-2.9-1.3-2.9-2.9s1.3-2.9 2.9-2.9c1.6.1 2.9 1.4 2.9 2.9zm-.6 25.3h-4.6v-18.7h4.6v18.7zm21.5-17.6c-1.8.4-3.5.7-5.5.7 2 .7 3.5 2.6 3.3 4.8 0 3.5-2.9 6.2-7.5 6.2-.7 0-1.5 0-2.2-.2-.4.2-.7.9-.9 1.3 0 .7.4 1.3 2.2 1.3h2.9c4.2 0 6.8 2.2 6.8 5.3 0 3.7-3.3 5.9-9.2 5.9-6.6 0-8.6-2.2-8.6-5.9h4c0 1.8.9 2.6 4.4 2.6 3.5 0 4.6-.9 4.6-2.4s-1.1-2.2-3.1-2.2h-2.6c-3.7 0-5.3-1.8-5.3-3.5 0-1.5.9-2.9 2.2-3.5-2-.9-3.3-3.1-3.3-5.3 0-4 3.3-6.6 7.7-6.6 3.1.2 6.2-.4 8.8-2l1.3 3.5zm-12.9 5.1c-.2 1.8 1.1 3.3 2.9 3.7h.4c2.2 0 3.3-1.3 3.3-3.7 0-2.4-1.1-3.5-3.3-3.5-1.8 0-3.3 1.3-3.3 3.1v.4zm30.8-.9v13.4h-4.4v-12.8c0-2.4-.9-3.1-2.2-3.1-1.8.2-3.3 1.3-4 2.9v13h-4.6v-18.7h4l.4 2.4c1.3-1.8 3.3-2.9 5.7-2.9 2.9-.2 5.1 2 5.3 4.6 0 .6-.2.8-.2 1.2zm18.7 9.7h9.7l-.7 3.7H91.5v-24.4h4.6l.3 20.7zm27.5-4.2h-11.7c.4 3.7 2.2 5.1 4.6 5.1 1.8 0 3.3-.7 4.6-1.8l2 2.6c-2 1.5-4.4 2.4-6.8 2.4-5.7 0-8.8-4-8.8-9.7 0-5.9 3.1-9.9 8.4-9.9 5.3 0 8.1 3.5 8.1 9.5-.4.5-.4 1.4-.4 1.8zm-4.4-3.1c0-3.1-1.1-4.8-3.7-4.8-2.2 0-3.5 1.3-3.7 5.1l7.4-.3zm13.4-9.6v2h3.5l-.4 3.3h-2.9v15.4h-4.4V112h-3.1v-3.3h3.1v-2c0-3.3 2.2-5.9 6.6-5.9 1.1 0 2 .2 3.1.4l-.9 3.3c-.9-.2-1.5-.2-2-.2-1.9-.1-2.6.6-2.6 2.4zm17.8 19.8c-1.3.9-3.1 1.3-4.6 1.3-3.7 0-5.5-2.2-5.5-6.2v-9.9h-2.9v-3.1h2.9v-4.2l4.4-.4v4.6h4.4l-.4 3.3h-4v9.9c0 1.8.7 2.6 2 2.6.9 0 1.5-.2 2.2-.7 0 .1 1.5 2.8 1.5 2.8zM10.6 159.9H7.7v9.7H3.1v-24.4h7.3c6.4 0 9.7 2.2 9.7 7 0 3.1-2 5.7-4.8 6.6l6.4 10.6h-5.5c-.1 0-5.6-9.5-5.6-9.5zm-2.9-3.5h2.9c2.9 0 4.6-1.1 4.6-4s-1.5-3.7-4.8-3.7H7.7v7.7zm31.5 10.8l-.9 3.1c-1.8 0-3.5-1.1-4.2-2.6-1.3 1.8-3.3 2.9-5.5 2.9-3.1.2-5.7-2-5.9-5.1v-.7c0-4 3.1-6.2 8.4-6.2h2.4v-1.1c0-2.4-1.1-3.3-3.5-3.3-1.8 0-3.3.4-5.1.9l-1.1-3.1c2.2-.9 4.4-1.3 6.6-1.5 5.1 0 7.3 2.2 7.3 6.4v7.9c.1 1.5.6 1.9 1.5 2.4zm-5.8-2.7v-3.7h-2c-2.9 0-4.4 1.1-4.4 3.3-.2 1.3.7 2.6 2 2.9h.7c1.5-.1 3.1-1.2 3.7-2.5zm26-12.5c-1.8.4-3.5.7-5.5.7 2 .7 3.5 2.6 3.3 4.8 0 3.5-2.9 6.2-7.5 6.2-.7 0-1.5 0-2.2-.2-.4.2-.9.9-.9 1.3 0 .7.4 1.3 2.2 1.3h2.9c4.2 0 6.8 2.2 6.8 5.3 0 3.7-3.3 5.9-9.2 5.9-6.6 0-8.6-2.2-8.6-5.9h4c0 1.8.9 2.6 4.4 2.6 3.5 0 4.6-1.1 4.6-2.4s-1.1-2.2-3.1-2.2H48c-3.7 0-5.3-1.8-5.3-3.5 0-1.5.9-2.9 2.2-3.5-2.2-.9-3.5-3.1-3.3-5.3 0-4 3.3-6.6 7.7-6.6 3.1.2 6.2-.4 8.8-2l1.3 3.5zm-13 5c-.2 1.8 1.1 3.3 2.9 3.7h.4c2.2 0 3.3-1.3 3.3-3.7 0-2.4-1.1-3.5-3.3-3.5-1.8 0-3.3 1.3-3.3 3.1v.4zm14.5-.2h10.6v3.5H60.9v-3.5zm22.9 3.1H81v9.7h-4.6v-24.4h7.3c6.4 0 9.7 2.2 9.7 7 0 3.1-2 5.7-4.8 6.6l6.6 10.6h-5.5l-5.9-9.5zm-3.1-3.5h2.9c2.9 0 4.4-1.1 4.4-4.2 0-2.9-1.5-3.7-4.8-3.7h-2.4v7.9zm21.8-12.1c0 1.5-1.1 2.9-2.6 3.1-1.5 0-2.9-1.1-3.1-2.6 0-1.5 1.1-2.9 2.6-3.1h.2c1.6-.3 2.9.8 2.9 2.6 0-.2 0 0 0 0zm-.4 25.3h-4.4v-18.7h4.4v18.7zm21.3-17.6c-1.8.4-3.5.7-5.5.7 2 .7 3.5 2.6 3.3 4.8 0 3.7-2.9 6.2-7.5 6.2-.7 0-1.5 0-2.2-.2-.4.2-.7.9-.7 1.3 0 .7.4 1.3 2.2 1.3h2.9c4.2 0 6.8 2.2 6.8 5.3 0 3.7-3.3 5.9-9.2 5.9-6.6 0-8.4-2.2-8.4-5.9h4c0 1.8.9 2.6 4.4 2.6 3.5 0 4.6-.9 4.6-2.4s-1.1-2.2-3.1-2.2h-2.6c-3.7 0-5.3-1.8-5.3-3.5 0-1.5.9-2.9 2.2-3.5-2.2-.9-3.5-2.9-3.3-5.3 0-4 3.3-6.6 7.7-6.6 3.1.2 6.2-.4 8.8-2l.9 3.5zm-12.9 5c-.2 1.8 1.1 3.3 2.9 3.7h.4c2.2 0 3.3-1.3 3.3-3.7 0-2.4-1.1-3.5-3.3-3.5-1.8 0-3.3 1.3-3.3 3.1v.4zm31-.8v13.4h-4.4v-12.8c0-2.4-.9-3.1-2.2-3.1-1.8.2-3.1 1.3-4 2.9v13h-4.6v-26l4.4-.4v10.1c1.3-1.8 3.3-2.9 5.5-2.9 2.9-.2 5.3 2 5.3 4.8v1zm15.6 12.5c-1.3.9-2.9 1.5-4.6 1.5-3.7 0-5.7-2.2-5.7-6.2v-9.9h-2.9v-3.3h2.9v-4.2l4.4-.4v4.6h4.4l-.4 3.3h-3.7v9.7c0 1.8.7 2.6 2 2.6.9 0 1.5-.2 2.2-.7-.1.1 1.4 3 1.4 3z" class="st1"/></g><g id="a5aa1b63-5bd2-4389-81ed-966d048faa97_00000011012384151423154590000001717939535606092977_"><g id="b1839b9b-9fd0-4519-ba49-b37fc5dce2e2_00000121262934696855523590000009136739886577948837_"><path d="M110.5 752.4H.2v-6.6h110.2v6.6zm83.6-31.7H.2v-6.6H194v6.6zm0-31.6H.2v-6.6H194v6.6zm0-31.7H.2v-6.6H194v6.6zm0-31.7H.2v-6.6H194v6.6zm0-31.9H.2v-6.6H194v6.6zM7.7 541.6h9.7l-.4 3.7H3.1V521h4.6v20.6zm27.3-3.9H23.3c.4 3.7 2.2 5.1 4.6 5.1 1.8 0 3.3-.7 4.6-1.8l2 2.6c-2 1.5-4.4 2.4-6.8 2.4-5.7 0-8.8-3.7-8.8-9.7s3.1-9.9 8.4-9.9 8.1 3.5 8.1 9.5c-.2.5-.4 1.1-.4 1.8zm-4.4-3.1c0-3.1-1.1-4.8-3.5-4.8-2.2 0-3.5 1.3-3.7 5.1l7.2-.3zm13.6-9.7v2h3.5l-.4 3.3h-3.1v15.4h-4.6v-15.4h-2.9v-3.3h2.9v-2c0-3.3 2.2-5.9 6.6-5.9 1.1 0 2 .2 3.1.4l-.9 3.3c-.7-.2-1.1-.2-1.8-.2-1.7-.2-2.4.7-2.4 2.4zM62 544.5c-1.3.9-3.1 1.5-4.6 1.3-3.7 0-5.5-2.2-5.5-6.2v-9.9H49v-3.3h2.9v-4.2l4.4-.4v4.6h4.4l-.4 3.3h-4v9.7c0 1.8.7 2.6 2 2.6.9 0 1.5-.2 2.2-.7l1.5 3.2zm.3-11.9h10.6v3.5H62.3v-3.5zm20.2 9.3c0 5.7-3.1 7.7-7 9l-1.3-3.3c3.1-1.3 3.7-2.9 3.7-5.7v-20.7h4.6v20.7zm20.3 3.5h-4l-.2-2.6c-1.1 2-3.3 3.3-5.7 3.1-3.3 0-5.1-2.2-5.1-5.7v-13.4h4.4v12.8c0 2.2.7 2.9 2.2 2.9 1.8 0 3.1-1.1 3.7-2.6v-13h4.4l.3 18.5zm17.8-17l-1.8 2.6c-1.3-.9-3.1-1.5-4.6-1.5-1.8 0-2.9.7-2.9 1.8s.7 1.8 4 2.6c3.7 1.1 5.9 2.6 5.9 5.9 0 4-3.5 5.9-7.9 5.9-2.6 0-5.3-.9-7.5-2.6l2.2-2.4c1.5 1.1 3.3 1.8 5.1 1.8 2 0 3.3-.9 3.3-2.2s-.7-2-4.2-3.1c-4-1.1-5.5-2.9-5.5-5.7 0-3.1 2.9-5.5 7.3-5.5 2.4.2 4.6 1.1 6.6 2.4zm14.7 16.1c-1.3.9-3.1 1.5-4.6 1.3-3.7 0-5.5-2.2-5.5-6.2v-9.9h-2.9v-3.3h2.9v-4.2l4.6-.4v4.6h4.4l-.4 3.3h-4v9.7c0 1.8.7 2.6 2 2.6.9 0 1.5-.2 2.2-.7l1.3 3.2zm7.7-24.4c0 1.5-1.1 2.9-2.6 2.9s-2.9-1.1-2.9-2.6 1.1-2.9 2.6-2.9c1.6-.3 2.7.8 2.9 2.6 0-.2 0-.2 0 0zm-.6 25.3H138v-18.7h4.4v18.7zm10.3-20.5v2h4.4l-.4 3.3h-4v15.4h-4.4v-15.4H145v-3.3h3.1v-2c0-3.3 2.2-5.9 6.6-5.9 1.8 0 3.3.4 4.8 1.1l-1.3 3.1c-.9-.4-2-.7-3.1-.7-1.7-.2-2.4.7-2.4 2.4z" class="st1"/><path d="M169 545.6c-1.1 4.4-5.1 7.5-9.7 7.5l-.4-3.3c2.6 0 5.1-1.8 5.9-4.4h-1.5l-5.9-18.7h4.8l4 15.6 4.2-15.6h4.6c-.1 0-6 18.9-6 18.9z" class="st1"/></g></g><g id="ade7f196-bb75-4440-8df9-77fbbb86f832"><path id="b3134d78-f3d9-425f-ba55-ae83e0bdd3a0" d="M103.9 480.3c2.2-3.7 4.8-7.5 8.1-10.3l10.8-9.2 9.7 10.8-35.9 31.5L61.4 471l8.6-9.7 10.8 9.7c3.3 2.6 5.9 5.9 8.1 9.7v-54.1h14.5l.5 53.7z" class="st1"/></g><g id="ade7f196-bb75-4440-8df9-77fbbb86f832_00000176002669851961313950000010862363193908654733_"><path id="b3134d78-f3d9-425f-ba55-ae83e0bdd3a0_00000011732398274524852020000015159844400216033956_" d="M103.9 54.5c2.2-3.7 4.8-7.5 8.1-10.3l10.8-9.2 9.7 10.8-35.7 31.4-35.2-31.9 8.6-9.7L81 45.3c3.3 2.6 5.9 5.9 8.1 9.7V.8h14.5l.3 53.7z" class="st1"/></g><g class="st2"><path d="M99.2 402.1c0 5.9-3.3 9.9-8.8 9.9-5.5 0-8.8-3.7-8.8-9.9 0-5.7 3.3-9.9 8.8-9.9 5.7 0 8.8 3.8 8.8 9.9zm-12.7 0c0 4.4 1.3 6.4 4 6.4 2.6 0 4-2 4-6.4s-1.3-6.4-4-6.4c-2.5.1-4 2-4 6.4zm27.9-9.4l-.9 4.4c-.7-.2-.9-.2-1.8-.2-2.2 0-3.3 1.8-4.2 4.8v9.9h-4.4v-18.5h4l.4 3.7c.9-2.6 2.6-4.2 4.8-4.2 1-.1 1.7-.1 2.1.1z" class="st1"/></g></svg>