<svg xmlns="http://www.w3.org/2000/svg" id="Layer_1" viewBox="0 0 400 326.8" width="400" height="326.8"><style>.st0{fill:#787878}.st1{fill:#2997ff}</style><g id="a5aa1b63-5bd2-4389-81ed-966d048faa97"><g id="b1839b9b-9fd0-4519-ba49-b37fc5dce2e2"><path d="M400 326.8h-55.1v-3.3H400v3.3zm-173.8 0h-60.6v-3.3h60.6v3.3zM400 310.9h-97v-3.3h97v3.3zm-155.1 0H148v-3.3h96.9v3.3zM400 295.1h-97v-3.3h97v3.3zm-155.1 0H148v-3.3h96.9v3.3zM400 279.2h-97v-3.3h97v3.3zm-155.1 0H148v-3.3h96.9v3.3zM400 263.4h-97v-3.3h97v3.3zm-155.1 0H148v-3.3h96.9v3.3zM400 247.5h-97v-3.3h97v3.3zm-155.1 0H148v-3.3h96.9v3.3zm147.4-108.6h-96.9v-3.3h96.9v3.3zm-147.4 0H148v-3.3h96.9v3.3zm-147.3 0H.6v-3.3h96.9l.1 3.3zM392.3 123h-81.5v-3.3h81.5v3.3zm-161.7 0h-69.4v-3.3h69.4v3.3zm-149.5 0H.6v-3.3H81l.1 3.3zm311.2-15.8h-96.9v-3.3h96.9v3.3zm-147.4 0H148v-3.3h96.9v3.3zm-147.3 0H.6v-3.3h96.9l.1 3.3zm294.7-15.9h-81.5V88h81.5v3.3zm-161.7 0h-69.4V88h69.4v3.3zm-149.5 0H.6V88H81l.1 3.3zm311.2-15.8h-96.9v-3.3h96.9v3.3zm-147.4 0H148v-3.3h96.9v3.3zm-147.3 0H.6v-3.3h96.9l.1 3.3zm294.7-15.8h-81.5v-3.3h81.5v3.3zm-161.7 0h-69.4v-3.3h69.4v3.3zm-149.5 0H.6v-3.3H81l.1 3.3z" class="st0"/><path d="M7.8 11.4h-4L3 14.2H.6L4.3 2h2.8l3.7 12.2H8.5c-.1 0-.7-2.8-.7-2.8zm-.6-1.8L5.7 3.8 4.2 9.6h3zm4.9 2.4V1.1l2.3-.2V12c0 .4.1.6.6.6.2 0 .4 0 .6-.1l.6 1.6c-.4.2-1 .4-1.6.4-1.2.1-2.2-.8-2.3-1.9-.2-.2-.2-.4-.2-.6zM20 1.5c0 .7-.6 1.5-1.5 1.5S17 2.3 17 1.6 17.8 0 18.6 0s1.5.7 1.4 1.5zm-.3 12.6h-2.3V4.8h2.3v9.3zm10.8-8.8c-.9.3-1.8.4-2.6.3 1 .3 1.8 1.3 1.6 2.4 0 1.8-1.5 3.1-3.8 3.1-.4 0-.8 0-1.1-.1-.2.1-.4.4-.5.6 0 .4.2.6 1.1.6h1.5c2.1 0 3.4 1.1 3.4 2.6 0 1.9-1.6 3-4.6 3-3.3 0-4.3-1.1-4.3-2.9h2c0 1 .5 1.3 2.2 1.3s2.3-.6 2.3-1.2-.5-1-1.5-1h-1.3c-1.9 0-2.6-.9-2.6-1.8 0-.8.5-1.4 1.1-1.8-1-.4-1.6-1.6-1.6-2.7 0-2 1.6-3.3 3.9-3.3 1.5.1 3.1-.2 4.4-1-.1.1.4 1.9.4 1.9zM24 8c-.1.9.5 1.7 1.5 1.9h.2c1.1 0 1.6-.6 1.6-1.9s-.5-1.8-1.6-1.8c-.9 0-1.6.7-1.6 1.6-.1 0-.1.2-.1.2zm15.4-.6v6.7h-2.2V7.7c0-1.2-.5-1.5-1.1-1.5-.9.1-1.7.7-2 1.4v6.5h-2.3V4.8h2L34 6c.7-.9 1.7-1.4 2.8-1.4 1.5-.1 2.5 1 2.7 2.3-.1.2-.1.4-.1.5zm9.4 4.8h4.8l-.2 2h-6.9V2h2.3v10.2zm13.6-2h-5.8c.2 1.9 1.1 2.6 2.3 2.6.9 0 1.7-.4 2.3-.9l1 1.3c-1 .8-2.2 1.2-3.4 1.2-2.8 0-4.4-2-4.4-4.8s1.5-5 4.2-5 4 1.8 4 4.8c-.1.2-.1.5-.2.8zm-2.2-1.6c0-1.6-.5-2.4-1.8-2.4-1.1 0-1.8.7-1.8 2.6-.1-.1 3.6-.2 3.6-.2zM67 3.8v1h1.8l-.2 1.7h-1.4v7.7H65V6.5h-1.7V4.8h1.6v-1c0-1.7 1.1-2.9 3.3-2.9.6 0 1 .1 1.6.2l-.4 1.6c-.3-.1-.6-.1-.9-.1-1.1 0-1.5.4-1.5 1.2zm8.9 10c-.7.4-1.6.6-2.3.6-1.8 0-2.8-1.1-2.8-3.1V6.5h-1.4V4.8h1.4v-2l2.2-.2v2.3h2.2L75 6.6h-2v5c0 .9.3 1.3 1 1.3.4 0 .8-.1 1.1-.4l.8 1.3zM5.8 30.4H4.4v4.9H2.1V23.1h3.7c3.2 0 4.9 1.1 4.9 3.5 0 1.5-1 2.9-2.4 3.3l3 5.4H8.6s-2.7-4.9-2.8-4.9zm-1.4-1.6h1.4c1.4 0 2.3-.5 2.3-2.1s-.8-1.9-2.4-1.9H4.4v4zM20.1 34l-.5 1.5c-.9 0-1.8-.5-2.1-1.3-.5.9-1.6 1.5-2.8 1.3-1.6.1-2.9-1-2.9-2.5v-.3c0-2 1.6-3.1 4.2-3.1h1.2V29c0-1.2-.5-1.6-1.8-1.6-.9 0-1.6.2-2.6.5l-.5-1.6c1.1-.5 2.2-.6 3.3-.8 2.5 0 3.6 1.1 3.6 3.2v3.9c.3 1 .5 1.3.9 1.4zm-2.8-1.2V31h-1c-1.4 0-2.2.5-2.2 1.6-.1.7.4 1.3 1 1.5h.4c.7-.2 1.5-.6 1.8-1.3zm12.9-6.3c-.9.2-1.8.4-2.8.4 1 .4 1.8 1.3 1.6 2.4 0 1.8-1.5 3.2-3.8 3.2-.4 0-.8 0-1.1-.1-.2.1-.5.5-.5.7 0 .3.2.7 1.1.7h1.5c2.1 0 3.4 1.1 3.4 2.7 0 1.8-1.6 3-4.6 3-3.3 0-4.3-1.1-4.3-3h2c0 .9.5 1.3 2.2 1.3s2.3-.5 2.3-1.2-.5-1.1-1.5-1.1h-1.3c-1.9 0-2.6-.9-2.6-1.8 0-.8.5-1.5 1.1-1.7-1.1-.5-1.8-1.5-1.6-2.6 0-2 1.6-3.3 3.9-3.3 1.5.1 3.1-.2 4.4-1l.6 1.4zM23.8 29c-.1.9.5 1.6 1.5 1.9h.2c1.1 0 1.6-.6 1.6-1.9s-.5-1.8-1.6-1.8c-.9 0-1.6.6-1.6 1.5-.1.1-.1.3-.1.3zm7.2-.1h5.3v1.8H31v-1.8zm11.5 1.5H41v4.9h-2.3V23.1h3.7c3.2 0 4.8 1.1 4.8 3.5 0 1.5-1 2.9-2.4 3.3l3.3 5.3h-2.8l-2.8-4.8zM41 28.8h1.5c1.5 0 2.2-.5 2.2-2.1s-.8-1.9-2.4-1.9H41v4zm10.8-6.2c0 .8-.5 1.5-1.3 1.5s-1.5-.5-1.5-1.3.5-1.5 1.3-1.5h.1c.7 0 1.3.5 1.4 1.3zm-.3 12.7h-2.2V26h2.2v9.3zm10.8-8.8c-.9.2-1.8.4-2.8.4 1 .4 1.8 1.3 1.7 2.4 0 1.8-1.5 3.2-3.8 3.2-.3 0-.8 0-1.1-.1-.1 0-.3.4-.3.6 0 .3.2.7 1.1.7h1.5c2.1 0 3.4 1.1 3.4 2.7 0 1.8-1.7 3-4.6 3-3.3 0-4.2-1.1-4.2-3h2c0 .9.5 1.3 2.2 1.3s2.3-.5 2.3-1.2-.5-1.1-1.5-1.1h-1.5c-1.8 0-2.7-.9-2.7-1.8 0-.8.5-1.5 1.1-1.7-1-.5-1.7-1.5-1.7-2.6 0-2 1.7-3.3 3.8-3.3 1.5.1 3.1-.2 4.4-1 .2-.2.7 1.5.7 1.5zM55.8 29c-.1.9.5 1.6 1.5 1.9h.2c1.1 0 1.7-.6 1.7-1.9s-.5-1.8-1.7-1.8c-.9 0-1.7.6-1.7 1.5v.3zm15.4-.5v6.8H69V29c0-1.2-.4-1.5-1.1-1.5-.9.1-1.6.6-2 1.5v6.5h-2.3V22.2l2.2-.2v5.1c.7-.9 1.7-1.5 2.8-1.5 1.4-.1 2.7 1 2.7 2.4 0 .2 0 .4-.1.5zm7.9 6.4c-.7.5-1.6.8-2.3.8-1.8 0-2.8-1.1-2.8-3.1v-4.9h-1.4V26H74v-2.1l2.2-.2V26h2.2l-.2 1.6h-1.8v4.8c0 .9.3 1.3 1 1.3.4 0 .8-.1 1.1-.3-.2 0 .6 1.5.6 1.5zm76-23.5H151l-.8 2.9h-2.4L151.6 2h2.9l3.8 12.2h-2.4l-.8-2.8zm-.5-1.8L153 3.7l-1.6 5.9h3.2zm4.9 2.4V1.1l2.3-.2V12c0 .4.1.6.6.6.2 0 .4 0 .6-.1l.4 1.6c-.4.2-1 .4-1.6.4-1.2.1-2.2-.8-2.3-2V12zm7.9-10.6c-.1.7-.8 1.3-1.6 1.2-.6-.1-1.1-.5-1.2-1.2.1-.8.8-1.3 1.6-1.3.5.1 1.1.7 1.2 1.3zm-.3 12.7h-2.3V4.8h2.3v9.3zm10.8-8.8c-.9.2-1.8.3-2.6.3 1 .3 1.8 1.3 1.6 2.4 0 1.8-1.4 3.1-3.8 3.1-.4 0-.8 0-1.1-.1-.2.1-.4.4-.4.6 0 .4.2.6 1.1.6h1.4c2.1 0 3.4 1.1 3.4 2.6 0 1.9-1.6 3-4.6 3-3.3 0-4.3-1.1-4.3-2.9h2c0 1 .4 1.3 2.2 1.3s2.3-.6 2.3-1.2-.6-1.1-1.6-1.1h-1.3c-1.9 0-2.6-.9-2.6-1.8 0-.8.4-1.4 1.1-1.8-1-.4-1.6-1.6-1.6-2.7 0-2 1.6-3.3 3.9-3.3 1.6.1 3.1-.2 4.4-1l.5 2zm-6.5 2.6c-.1.9.6 1.7 1.4 1.9h.2c1.1 0 1.6-.6 1.6-1.9s-.6-1.8-1.6-1.8c-.9 0-1.6.7-1.6 1.6v.2zm15.4-.5v6.7h-2.3V7.7c0-1.2-.4-1.5-1.1-1.5-.9.1-1.6.7-2 1.4v6.5h-2.2V4.8h2l.2 1.2c.6-.9 1.6-1.4 2.9-1.4 1.4 0 2.6 1.1 2.6 2.4-.1 0-.1.4-.1.4zM202.1 3l-1.2 1.5c-.6-.6-1.4-.9-2.2-.9-1.6 0-2.9 1.2-2.9 4.5s1.2 4.5 2.9 4.5c.9 0 1.8-.4 2.6-1l1.1 1.3c-1 1-2.3 1.6-3.6 1.6-3.2 0-5.4-2.2-5.4-6.4s2.3-6.2 5.2-6.2c1.3-.2 2.5.3 3.5 1.1zm8.8 7.2H205c.2 1.9 1.1 2.6 2.3 2.6.9 0 1.6-.4 2.3-.9l1 1.3c-1 .8-2.2 1.2-3.4 1.2-2.9 0-4.4-2-4.4-4.8s1.6-5 4.2-5 4.1 1.8 4.1 4.8c0 .2-.1.5-.2.8zm-2.1-1.6c0-1.6-.6-2.4-1.8-2.4-1.1 0-1.8.7-1.9 2.6 0-.1 3.7-.2 3.7-.2zm11.8-1.2v6.7h-2.2V7.7c0-1.2-.4-1.5-1.1-1.5-.9.1-1.6.7-2 1.4v6.5H213V4.8h2l.1 1.2c.6-.9 1.8-1.4 2.9-1.4 1.4-.1 2.6 1 2.6 2.3v.5zm7.9 6.4c-.6.4-1.6.6-2.3.6-1.9 0-2.9-1.1-2.9-3.1V6.5h-1.4V4.8h1.4v-2l2.2-.2v2.3h2.2l-.2 1.7h-2v5c0 .9.4 1.3 1 1.3.4 0 .8-.1 1.1-.4.1-.1.9 1.3.9 1.3zm8.5-3.6h-5.9c.2 1.9 1.1 2.6 2.3 2.6.9 0 1.6-.4 2.3-.9l1 1.3c-1 .8-2.2 1.2-3.4 1.2-2.9 0-4.4-2-4.4-4.9s1.6-5 4.2-5 4.1 1.8 4.1 4.8c-.1.3-.1.6-.2.9zm-2.1-1.6c0-1.6-.6-2.4-1.8-2.4-1.1 0-1.8.7-1.9 2.6.1-.1 3.7-.2 3.7-.2zm9.7-3.9l-.4 2.2c-.2-.1-.6-.1-.9-.1-1.1 0-1.8.9-2.1 2.4v4.9h-2.3V4.8h2l.2 1.8c.2-1.2 1.2-2 2.4-2.1.5.2.9.2 1.1.2zm57.9 6.7h-4l-.8 2.9h-2.4L299 2h2.9l3.8 12.2h-2.4c-.1 0-.8-2.8-.8-2.8zm-.5-1.8l-1.5-5.9-1.5 5.9h3zm4.9 2.4V1.1l2.2-.2V12c0 .4.1.6.5.6.2 0 .4 0 .5-.1l.5 1.6c-.5.2-1 .4-1.5.4-1.2.1-2.2-.8-2.3-2 .1 0 .1-.5.1-.5zm7.8-10.6c-.1.7-.9 1.3-1.6 1.1-.5-.1-1-.5-1.1-1.1.1-.8.8-1.3 1.5-1.3.6.1 1.2.7 1.2 1.3zm-.2 12.7h-2.2V4.8h2.2v9.3zm10.8-8.8c-.9.2-1.8.3-2.8.3 1 .3 1.8 1.3 1.6 2.4 0 1.8-1.5 3.1-3.8 3.1-.4 0-.8 0-1.1-.1-.2.1-.4.4-.5.6 0 .4.2.6 1.1.6h1.5c2.1 0 3.4 1.1 3.4 2.6 0 1.9-1.6 3-4.6 3-3.3 0-4.3-1.1-4.3-2.9h2.1c0 1 .5 1.3 2.2 1.3s2.3-.6 2.3-1.2-.4-1-1.4-1h-1.3c-1.9 0-2.6-.9-2.6-1.8 0-.8.5-1.4 1.1-1.8-1-.4-1.6-1.6-1.6-2.7 0-2 1.6-3.3 3.9-3.3 1.5.1 3.1-.2 4.4-1l.4 1.9zm-6.5 2.6c-.1.9.5 1.8 1.5 1.9h.2c1.1 0 1.6-.6 1.6-1.9s-.5-1.8-1.6-1.8c-.9 0-1.6.7-1.6 1.6l-.1.2zm15.4-.5v6.7H332V7.7c0-1.2-.5-1.5-1.1-1.5-.9.1-1.6.7-2 1.4v6.5h-2.2V4.8h2l.2 1.2c.6-.9 1.8-1.4 2.9-1.4 1.5-.1 2.5 1 2.6 2.4-.2.2-.2.3-.2.4zM345 9.2h-1.5V14h-2.3V2h3.6c3.2 0 4.9 1.1 4.9 3.7 0 1.6-1 2.8-2.4 3.3l3.2 5.3h-2.6L345 9.2zm-1.5-1.6h1.5c1.5 0 2.2-.6 2.2-2s-.6-1.8-2.4-1.8h-1.2l-.1 3.8zm10.9-6.2c-.1.7-.8 1.3-1.5 1.3-.6-.1-1.2-.5-1.3-1.3.1-.8.8-1.3 1.5-1.3.7.1 1.2.7 1.3 1.3zm-.3 12.7h-2.2V4.8h2.2v9.3zm10.8-8.8c-.9.2-1.8.3-2.8.3 1 .3 1.8 1.3 1.6 2.4 0 1.8-1.5 3.1-3.8 3.1-.4 0-.8 0-1.1-.1-.2.1-.4.4-.5.6 0 .4.2.6 1.1.6h1.5c2.1 0 3.4 1.1 3.4 2.6 0 1.9-1.6 3-4.6 3-3.3 0-4.3-1.1-4.3-2.9h2c0 1 .5 1.3 2.2 1.3s2.3-.6 2.3-1.2-.5-1.1-1.5-1.1h-1.2c-1.9 0-2.6-.9-2.6-1.8 0-.8.5-1.4 1.1-1.8-1-.4-1.6-1.6-1.6-2.7 0-2 1.6-3.3 3.9-3.3 1.5.1 3.1-.2 4.4-1-.1.2.5 2 .5 2zm-6.5 2.6c-.1.9.5 1.7 1.5 1.9h.2c1.1 0 1.6-.6 1.6-1.9s-.5-1.8-1.6-1.8c-.9 0-1.6.7-1.6 1.6l-.1.2zm15.4-.5v6.7h-2.2V7.7c0-1.2-.5-1.5-1.1-1.5-.9.1-1.6.7-2 1.4v6.5h-2.2v-13l2.2-.2V6c.6-.9 1.6-1.4 2.8-1.3 1.5 0 2.5 1.1 2.5 2.6v.1zm7.9 6.4c-.6.4-1.5.6-2.3.6-1.9 0-2.8-1.1-2.8-3.1V6.5h-1.5V4.8h1.5v-2l2.2-.2v2.3h2.2l-.2 1.7h-2v5c0 .9.4 1.3 1 1.3.5 0 .8-.1 1.1-.4l.8 1.3zm-81.1 16.6h-1.5v4.9h-2.3V23.1h3.6c3.2 0 4.9 1.1 4.9 3.5 0 1.5-1 2.9-2.4 3.3l3.2 5.3h-2.7c.1 0-2.8-4.8-2.8-4.8zm-1.4-1.6h1.5c1.5 0 2.2-.5 2.2-2.1s-.8-1.9-2.4-1.9h-1.2l-.1 4zm15.7 5.2l-.5 1.5c-.9 0-1.8-.5-2.1-1.3-.6 1-1.6 1.5-2.8 1.5-1.5.1-2.9-1-3-2.5v-.3c0-2 1.5-3.1 4.2-3.1h1.2v-.5c0-1.2-.5-1.6-1.8-1.6-.9 0-1.6.2-2.4.5l-.5-1.5c1.1-.5 2.2-.6 3.4-.8 2.5 0 3.6 1.1 3.6 3.2V33c.1.6.3.9.7 1zm-2.8-1.2V31h-1c-1.5 0-2.2.5-2.2 1.6-.1.7.4 1.3 1 1.5h.4c.7-.2 1.3-.6 1.8-1.3zm12.9-6.3c-.9.2-1.8.4-2.8.4 1.1.4 1.8 1.3 1.8 2.4 0 1.8-1.5 3.2-3.8 3.2-.4 0-.8 0-1.1-.1-.2.1-.4.5-.5.7 0 .3.2.7 1.1.7h1.5c2.1 0 3.4 1.1 3.4 2.7 0 1.8-1.6 3-4.6 3-3.3 0-4.3-1.1-4.3-3h2c0 .9.5 1.3 2.2 1.3s2.3-.5 2.3-1.2-.5-1.1-1.5-1.1h-1.5c-1.9 0-2.6-.9-2.6-1.8 0-.8.5-1.5 1.1-1.7-1-.5-1.6-1.5-1.6-2.6 0-2 1.6-3.3 3.9-3.3 1.5.1 3.1-.2 4.4-1l.6 1.4zm-6.5 2.5c-.1.9.5 1.6 1.5 1.9h.2c1.1 0 1.6-.6 1.6-1.9s-.5-1.8-1.6-1.8c-.9 0-1.6.6-1.6 1.5l-.1.3zm14.7 4.3h4.9l-.2 1.8h-7v-12h2.3v10.2zm13.6-1.9H341c.2 1.8 1.1 2.5 2.3 2.5.9 0 1.6-.3 2.3-.9l.9 1.3c-1 .8-2.2 1.3-3.4 1.3-2.9 0-4.4-2-4.4-4.8s1.5-5.1 4-5.1 4 1.8 4 4.8c.1 0 .1.9.1.9zm-2.2-1.6c0-1.5-.5-2.4-1.8-2.4-1.1 0-1.8.6-1.9 2.5h3.6l.1-.1zm6.8-4.8v1h1.8l-.2 1.6h-1.5v7.7h-2.2v-7.7h-1.5V26h1.5v-1c0-1.6 1.1-3 3.3-3 .5 0 1 .1 1.5.2l-.5 1.6c-.4-.1-.5-.1-.9-.1-.9 0-1.3.4-1.3 1.3zm9 9.9c-.6.5-1.5.8-2.3.7-1.9 0-2.8-1.1-2.8-3.1v-4.8h-1.5V26h1.5v-2.1l2.2-.2V26h2.2l-.2 1.6h-2v4.8c0 .9.4 1.3 1 1.3.5 0 .8-.1 1.1-.3l.8 1.5zM157.6 212.1l-1.2 1.3c-.6-.6-1.4-.9-2.2-.9-1.6 0-2.9 1.2-2.9 4.5s1.2 4.5 2.9 4.5c.9 0 1.8-.4 2.6-1l1.1 1.3c-1 1-2.3 1.6-3.6 1.4-3.2 0-5.4-2.2-5.4-6.4s2.3-6.4 5.3-6.4c1.2.5 2.5.9 3.4 1.7zm9 7.3h-5.9c.2 1.9 1.1 2.6 2.3 2.6.9 0 1.6-.4 2.3-.9l1 1.3c-1 .8-2.2 1.2-3.4 1.2-2.9 0-4.4-1.9-4.4-4.9s1.6-4.9 4.2-4.9 4.1 1.8 4.1 4.8c-.2.1-.2.5-.2.8zm-2.2-1.6c0-1.6-.6-2.4-1.8-2.4-1.1 0-1.8.6-1.9 2.6l3.7-.2zm11.9-1.4v6.7H174v-6.2c0-1.2-.4-1.6-1.1-1.6s-1.4.6-2 1.4v6.5h-2.3v-9.4h2l.2 1.2c.6-.9 1.6-1.4 2.9-1.4 1.4-.1 2.6 1 2.6 2.4v.4zm7.8 6.4c-.6.4-1.6.8-2.3.6-1.9 0-2.9-1.1-2.9-3.1v-4.9h-1.4v-1.6h1.4v-2.1l2.2-.2v2.3h2.2l-.2 1.6h-1.9v4.9c0 .9.4 1.3 1 1.3.4 0 .8-.1 1.1-.4l.8 1.6zm8.6-3.5h-5.9c.2 1.9 1.1 2.6 2.3 2.6.9 0 1.6-.4 2.3-.9l.9 1.3c-1 .8-2.2 1.2-3.4 1.2-2.9 0-4.4-1.9-4.4-4.9s1.6-4.9 4.2-4.9 4.1 1.8 4.1 4.8c-.1.1-.1.6-.1.8zm-2.2-1.5c0-1.6-.6-2.4-1.8-2.4-1.1 0-1.8.6-1.9 2.6l3.7-.2zm9.8-4l-.4 2.2c-.2-.1-.6-.1-.9-.1-1.1 0-1.8.9-2.1 2.4v4.9h-2.2v-9.4h2l.2 1.9c.2-1.2 1.2-2 2.4-2.1.4.1.7.2 1 .2zm.4 3.1h5.3v1.8h-5.3v-1.8zm10.2 4.6c0 2.9-1.6 3.9-3.5 4.5l-.6-1.6c1.6-.6 1.9-1.4 1.9-2.9v-10.4h2.3l-.1 10.4zm10.1 1.8h-2l-.1-1.3c-.6 1-1.6 1.6-2.9 1.6-1.6 0-2.6-1.1-2.6-2.9V214h2.3v6.4c0 1.1.4 1.4 1.1 1.4.8-.1 1.6-.6 1.9-1.3V214h2.2l.1 9.3zm8.9-8.5l-.9 1.3c-.6-.4-1.6-.8-2.3-.8-.9 0-1.4.4-1.4.9s.4.9 2 1.3c1.9.6 2.9 1.3 2.9 2.9 0 2-1.8 2.9-3.9 2.9-1.3 0-2.6-.4-3.8-1.3l1.1-1.2c.8.6 1.6.9 2.6.9s1.6-.4 1.6-1.1c0-.6-.4-1-2.1-1.6-2-.6-2.8-1.4-2.8-2.9 0-1.6 1.4-2.8 3.6-2.8 1.3.4 2.4.7 3.4 1.5zm7.4 8c-.6.4-1.6.8-2.3.6-1.9 0-2.9-1.1-2.9-3.1v-4.9h-1.4v-1.6h1.4v-2.1l2.3-.2v2.3h2.2l-.2 1.6h-2v4.9c0 .9.4 1.3 1 1.3.4 0 .8-.1 1.1-.4l.8 1.6zm3.8-12.3c-.1.8-.8 1.3-1.6 1.3-.6-.1-1.2-.6-1.3-1.3.1-.8.8-1.3 1.6-1.3.7.1 1.2.6 1.3 1.3zm-.3 12.7h-2.2v-9.3h2.2v9.3zm5.2-10.3v1h2.2l-.2 1.6h-2v7.7h-2.2v-7.7h-1.6v-1.6h1.6v-1c0-1.6 1.1-2.9 3.3-2.9.9 0 1.6.2 2.4.6l-.6 1.6c-.4-.2-1-.4-1.6-.4-1-.2-1.3.2-1.3 1.1z"/><path d="M254.1 223.3c-.6 2.2-2.6 3.8-4.9 3.8l-.2-1.6c1.3 0 2.6-.9 2.9-2.2h-.8l-2.9-9.4h2.4l2 7.8 2.1-7.8h2.3l-2.9 9.4zm46.5-4.9h-1.5v4.9h-2.3V211h3.6c3.2 0 4.9 1.2 4.9 3.5 0 1.6-1 2.9-2.4 3.3l3.2 5.3h-2.7l-2.8-4.7zm-1.4-1.7h1.5c1.5 0 2.2-.6 2.2-2.1s-.8-1.9-2.4-1.9h-1.2l-.1 4zm10.8-6.1c0 .8-.5 1.4-1.3 1.4s-1.5-.6-1.5-1.3.5-1.4 1.3-1.4 1.5.5 1.5 1.3zm-.3 12.7h-2.2V214h2.2v9.3zm10.8-8.8c-.9.2-1.8.4-2.8.4 1 .4 1.8 1.3 1.6 2.4 0 1.8-1.5 3.2-3.8 3.2-.4 0-.8 0-1.1-.1-.2.1-.4.4-.5.6 0 .4.2.6 1.1.6h1.5c2.1 0 3.4 1.1 3.4 2.6 0 1.9-1.6 2.9-4.6 2.9-3.3 0-4.3-1.1-4.3-2.9h2c0 .9.5 1.3 2.2 1.3s2.3-.4 2.3-1.2-.5-1.1-1.5-1.1h-1.5c-1.9 0-2.6-.9-2.6-1.8 0-.8.5-1.4 1.1-1.8-1-.4-1.6-1.6-1.6-2.6 0-2 1.6-3.3 3.9-3.3 1.5.1 3.1-.2 4.4-1l.8 1.8zM314 217c-.1.9.5 1.6 1.5 1.9h.2c1.1 0 1.6-.6 1.6-1.9s-.5-1.8-1.6-1.8c-.9 0-1.6.6-1.6 1.6l-.1.2zm15.4-.5v6.7h-2.2V217c0-1.2-.5-1.6-1.1-1.6-.9.1-1.5.6-2 1.4v6.5H322v-13l2.2-.2v5.1c.6-.9 1.6-1.3 2.8-1.3 1.5 0 2.5 1 2.6 2.4-.1-.1-.1.1-.2.2zm8 6.4c-.6.4-1.5.8-2.3.6-1.9 0-2.8-1.1-2.8-3.1v-4.9h-1.5v-1.6h1.5v-2.1l2.2-.2v2.3h2.2l-.2 1.6h-2v4.9c0 .9.4 1.3 1 1.3.5 0 .8-.1 1.1-.4l.8 1.6zm.1-6h5.3v1.8h-5.3v-1.8zm10.1 4.7c0 2.9-1.5 3.9-3.5 4.5l-.6-1.6c1.6-.6 1.9-1.4 1.9-2.9v-10.4h2.3v10.4zm10.1 1.7h-2l-.1-1.3c-.5 1-1.6 1.6-2.9 1.6-1.6 0-2.6-1.1-2.6-2.9V214h2.2v6.4c0 1.1.4 1.4 1.1 1.4.8-.1 1.5-.6 1.9-1.3V214h2.2l.2 9.3zm8.9-8.5l-.9 1.3c-.6-.4-1.5-.8-2.3-.8-.9 0-1.5.4-1.5.9s.4.9 2 1.3c1.9.6 3 1.3 3 2.9 0 2-1.8 2.9-4 2.9-1.3 0-2.6-.4-3.8-1.3l1.1-1.2c.8.6 1.6.9 2.5.9 1 0 1.6-.4 1.6-1.1 0-.6-.4-1-2.1-1.6-2-.6-2.8-1.4-2.8-2.9 0-1.6 1.5-2.8 3.6-2.8 1.5.4 2.6.7 3.6 1.5zm7.4 8.1c-.6.4-1.5.8-2.3.6-1.9 0-2.8-1.1-2.8-3.1v-4.9h-1.5v-1.6h1.5v-2.1l2.2-.2v2.3h2.2l-.2 1.6h-2v4.9c0 .9.4 1.3 1 1.3.5 0 .8-.1 1.1-.4l.8 1.6zm3.9-12.3c0 .8-.5 1.4-1.3 1.4s-1.5-.6-1.5-1.3.5-1.4 1.3-1.4 1.3.5 1.5 1.3zm-.4 12.6h-2.2v-9.3h2.2v9.3zm5.2-10.3v1h2.2l-.2 1.6h-2v7.7h-2.2v-7.7H379v-1.6h1.5v-1c0-1.6 1.1-2.9 3.3-2.9.9 0 1.6.2 2.4.6l-.6 1.6c-.5-.2-1-.4-1.5-.4-1.1-.2-1.4.3-1.4 1.1z"/><path d="M390.9 223.3c-.5 2.2-2.5 3.9-4.9 3.8l-.2-1.6c1.3 0 2.5-.9 3-2.2h-.8l-3-9.4h2.4l2 7.8 2.1-7.8h2.3l-2.9 9.4z"/></g></g><g id="a5aa1b63-5bd2-4389-81ed-966d048faa97_00000011012384151423154590000001717939535606092977_"><g id="b1839b9b-9fd0-4519-ba49-b37fc5dce2e2_00000121262934696855523590000009136739886577948837_"><path d="M55.2 326.8H0v-3.3h55.2v3.3zm41.9-15.9H0v-3.3h96.9v3.3h.2zm0-15.9H0v-3.3h96.9v3.3h.2zm0-15.8H0v-3.3h96.9v3.3h.2zm0-15.9H0V260h96.9v3.3h.2zm0-15.8H0v-3.3h96.9v3.3h.2zM3.8 221.4h4.9l-.2 1.9h-7v-12.2h2.3v10.3zm13.7-2h-5.9c.2 1.9 1.1 2.6 2.3 2.6.9 0 1.6-.4 2.3-.9l1 1.3c-1 .8-2.2 1.2-3.4 1.2-2.9 0-4.4-1.9-4.4-4.9s1.6-4.9 4.2-4.9 4.1 1.8 4.1 4.8c-.2.1-.2.5-.2.8zm-2.2-1.6c0-1.6-.6-2.4-1.8-2.4-1.1 0-1.8.6-1.9 2.6l3.7-.2zm6.7-4.9v1h1.8l-.2 1.6H22v7.7h-2.3v-7.7h-1.5v-1.6h1.5v-1c0-1.6 1.1-2.9 3.3-2.9.5 0 1 .1 1.5.2l-.5 1.6c-.4-.1-.5-.1-.9-.1-.8-.1-1.1.3-1.1 1.2zm8.9 10c-.6.4-1.5.8-2.3.6-1.9 0-2.8-1.1-2.8-3.1v-4.9h-1.5v-1.6h1.5v-2.1l2.2-.2v2.3h2.2l-.2 1.6h-2v4.9c0 .9.4 1.3 1 1.3.5 0 .8-.1 1.1-.4.1 0 .8 1.6.8 1.6zm.1-6h5.3v1.8H31v-1.8zm10.2 4.7c0 2.9-1.5 3.9-3.5 4.5l-.7-1.6c1.5-.6 1.8-1.4 1.8-2.9v-10.4h2.3c.1 0 .1 10.4.1 10.4zm10.2 1.7h-2l-.1-1.3c-.5 1-1.7 1.6-2.8 1.6-1.7 0-2.5-1.1-2.5-2.9V214h2.2v6.4c0 1.1.3 1.4 1.1 1.4.9 0 1.5-.6 1.8-1.3V214h2.2c0-.1.1 9.3.1 9.3zm8.9-8.5l-.9 1.3c-.7-.4-1.5-.8-2.3-.8-.9 0-1.5.4-1.5.9s.3.9 2 1.3c1.8.6 3 1.3 3 2.9 0 2-1.8 2.9-4 2.9-1.3 0-2.7-.4-3.8-1.3l1.1-1.2c.8.6 1.7.9 2.5.9 1 0 1.7-.4 1.7-1.1 0-.6-.3-1-2.1-1.6-2-.6-2.8-1.4-2.8-2.9 0-1.6 1.5-2.8 3.7-2.8 1.2.4 2.4.7 3.4 1.5zm7.4 8.1c-.7.4-1.6.8-2.3.6-1.8 0-2.8-1.1-2.8-3.1v-4.9h-1.5v-1.6h1.5v-2.1l2.3-.2v2.3h2.2l-.2 1.6h-2v4.9c0 .9.3 1.3 1 1.3.4 0 .8-.1 1.1-.4-.1 0 .7 1.6.7 1.6zm3.7-12.3c0 .8-.6 1.4-1.3 1.4s-1.4-.6-1.4-1.3.6-1.4 1.3-1.4c.8-.1 1.4.5 1.4 1.3zm-.2 12.6H69v-9.3h2.2v9.3zm5.2-10.3v1h2.2l-.2 1.6h-2v7.7h-2.2v-7.7h-1.7v-1.6h1.6v-1c0-1.6 1.1-2.9 3.3-2.9.9 0 1.7.2 2.4.6l-.7 1.6c-.4-.2-1-.4-1.6-.4-.8-.2-1.1.3-1.1 1.1z" class="st1"/><path d="M84.5 223.3c-.6 2.2-2.6 3.8-4.8 3.8l-.2-1.6c1.3 0 2.6-.9 2.9-2.2h-.8l-2.9-9.4h2.4l2 7.8 2.1-7.8h2.3l-3 9.4z" class="st1"/></g></g><g id="ade7f196-bb75-4440-8df9-77fbbb86f832"><path id="b3134d78-f3d9-425f-ba55-ae83e0bdd3a0" d="M52 190.6c1.1-1.9 2.4-3.8 4-5.1l5.4-4.6 4.8 5.4-18 15.8-17.6-15.9 4.3-4.9 5.4 4.9c1.7 1.3 3 2.9 4 4.9V164h7.2l.5 26.6z" class="st1"/></g></svg>