<svg xmlns="http://www.w3.org/2000/svg" id="Layer_1" viewBox="0 0 800 363.2" width="800" height="363.2"><style>.st0{fill:#231f20}</style><g id="b461f78a-14f5-44e6-87a9-9d0b1053b30d"><path id="e05f4972-9767-43a9-8320-b674845cff9f" d="M595.9 210.1c-1.2 0-2.2 1-2.2 2.2s1 2.2 2.2 2.2c1.2 0 2.2-1 2.2-2.2 0-1.2-1-2.2-2.2-2.2m-9.7-5.5h-6.9v-1.3c0-2.6 1.1-3.8 3.6-3.8 2.4 0 3.3 1 3.3 3.4v1.7zm-6.9.7h10.4c-.1-3.7-3.1-6.6-6.8-6.6-2.1 0-4.1 1.1-5.3 2.8-1.2 1.5-1.8 3.3-1.9 5.2 0 4.3 3.4 7.8 7.6 7.9 3.2 0 5.6-2.1 6.2-5.5h-.8c-.4 2.7-2.7 4.7-5.4 4.7-1.2.1-2.4-.4-3.1-1.4-.7-.9-.9-1.9-.9-4.1v-3zm-8.4-17.1h-6v.7h3v24.7h-3v.7h9v-.7h-3v-25.4zm-11.5 19.2c0 4.8-.8 6.5-3.1 6.5-2.5 0-4.5-3-4.5-7 0-4.4 1.9-7.4 4.7-7.4 1.1-.1 2.1.5 2.5 1.5.4 1.1.5 2.3.4 3.5v2.9zm-7.7-8.3h-5.6v.7h2.6V224h-2.6v.7h8.8v-.7h-3.2v-12.9c1.4 2.7 2.6 3.6 4.8 3.6 3.6 0 6.4-3.7 6.4-8.3 0-4.3-2.8-7.7-6.4-7.7-2.2 0-3.7 1.1-4.9 3.6l.1-3.2zm-19.5 6.6c.1-3.4.1-3.7.4-4.3.7-1.3 2.1-2 3.5-1.9 1.4-.1 2.7.5 3.4 1.6.4.7.6 2.1.6 4.6v1.9c.1 1.5-.1 2.9-.5 4.3-.7 1.3-2.1 2-3.6 1.9-1.3.1-2.6-.5-3.4-1.6-.4-.7-.4-.9-.5-4.6v-1.9zm4-7c-4.4-.2-8.1 3.2-8.3 7.6-.2 4.4 3.2 8.1 7.6 8.3s8.1-3.2 8.3-7.6v-.3c0-4.4-3.3-8-7.6-8m-14.1 5.9h-6.8v-1.3c0-2.6 1.1-3.8 3.6-3.8 2.4 0 3.3 1 3.3 3.4v1.7zm-6.8.7h10.4c-.1-3.7-3.1-6.6-6.8-6.6-2.1 0-4.1 1.1-5.3 2.8-1.2 1.5-1.8 3.3-1.9 5.2 0 4.3 3.4 7.8 7.6 7.9 3.2 0 5.6-2.1 6.2-5.5h-.8c-.4 2.7-2.7 4.7-5.4 4.7-1.2.1-2.4-.4-3.1-1.4-.7-.9-.9-1.9-.9-4.1v-3zm-10.3 2.1c0 4.8-.8 6.5-3.1 6.5-2.5 0-4.5-3-4.5-7 0-4.4 1.9-7.4 4.6-7.4 1.1-.1 2.1.5 2.5 1.5.4 1.1.5 2.3.4 3.5l.1 2.9zm-7.6-8.3h-5.6v.7h2.6V224h-2.6v.7h8.7v-.7h-3.1v-12.9c1.4 2.7 2.6 3.6 4.8 3.6 3.6 0 6.4-3.7 6.4-8.3 0-4.3-2.8-7.7-6.4-7.7-2.2 0-3.7 1.1-4.9 3.6l.1-3.2zm-30.1 6c0-1.3.1-2.6.4-3.8.3-1.1 1.4-1.9 2.6-1.8 2.8 0 4.7 2.8 4.7 7.2 0 4.3-1.8 7.1-4.5 7.1-1.2 0-2.2-.7-2.6-1.8-.4-.9-.5-2-.5-4.3l-.1-2.6zm7.7 9.2h5.6v-.7H478v-25.4h-6.1v.7h3.1v13.4c-1.3-2.5-2.7-3.5-4.9-3.5-3.7 0-6.5 3.3-6.5 7.9 0 4.6 2.8 8 6.6 8 2.2 0 3.4-1 4.7-3.7l.1 3.3zm-26.3-15.2h-5.6v.7h2.6v13.7h-2.6v.7h8.2v-.7h-2.6v-6.3c0-2.8.2-4.3.7-5.3.7-1.4 2.2-2.4 3.8-2.4 1.8 0 2.6 1 2.6 3.2v10.7h-2.6v.7h8.2v-.7h-2.6v-9.7c.1-1.3-.2-2.6-1.1-3.6-1-1.1-2.5-1.6-4-1.6-2.1 0-3.5.7-5.1 2.6l.1-2zm-12.2-10.4c-1.2.1-2 1.1-2 2.2.1 1 .9 1.9 2 2 1.2.1 2.2-.8 2.2-2s-.8-2.2-2-2.2h-.2m1.8 10.4h-5.6v.7h2.5v13.7h-2.6v.7h8.2v-.7h-2.6l.1-14.4zm-17 5.4l5-4.7h2.6v-.7h-7.6v.7h3.7l-6.6 6.1 5.8 7.7h-2.1v.7h8.3v-.7h-1.9l-7.2-9.1zm-3.7-16.3H412v.7h2.6v24.7h-2.7v.7h8.2v-.7h-2.6l.1-25.4zm-20.7 11.6h3.7v-.7h-3.7v-6.7c0-2 .1-2.6.6-3.3.4-.5 1.1-.8 1.8-.8.5-.1 1 .1 1.4.5-.5.4-.8 1-.8 1.6-.1.8.5 1.5 1.3 1.6h.1c.7 0 1.3-.7 1.3-1.7 0-1.5-1.3-2.6-3.2-2.6-1.5 0-2.9.8-3.8 2-1.2 1.5-1.6 2.9-1.6 6v3.4h-3.4v.7h3.4v13.7h-3.4v.7h9.9v-.7h-3.4l-.2-13.7zm-20.3 5.9c.1-3.4.1-3.7.4-4.3.7-1.3 2.1-2 3.5-1.9 1.4-.1 2.7.5 3.4 1.6.4.7.6 2.1.6 4.6v1.9c.1 1.5-.1 2.9-.5 4.3-.7 1.3-2.1 2.1-3.6 1.9-1.3.1-2.6-.5-3.4-1.6-.4-.7-.4-.9-.5-4.6v-1.9zm4-7c-4.4-.2-8.1 3.2-8.3 7.6-.2 4.4 3.2 8.1 7.6 8.3s8.1-3.2 8.3-7.6v-.3c.2-4.3-3.2-7.9-7.5-8h-.1m-21.1.1h-.5l-.5 1.4c-1-1-2.4-1.5-3.8-1.5-2.5-.1-4.6 1.9-4.7 4.4v.3c-.1 2.2 1.5 4.1 3.6 4.4l3 .6c1.7.3 2.5 1.1 2.5 2.4-.2 1.8-1.7 3.2-3.6 3-1.7 0-3.2-.9-4-2.4-.6-.9-.9-2-1.1-3h-.7v5.8h.4l.9-1.5c1.6 1.4 2.7 1.9 4.3 1.9 2.7.1 4.9-2.1 4.9-4.8v-.4c0-2.8-1.4-4.3-4.4-4.9l-1.8-.4c-2.2-.4-3-1-3-2 0-1.5 1.5-2.7 3.3-2.7 2.2-.1 4.1 1.6 4.4 3.8h.7l.1-4.4zm-34.3.3h-5.6v.7h2.6v13.7h-2.6v.7h8.2v-.7h-2.6v-6.7c0-2.7.1-3.9.5-4.8.6-1.4 2-2.4 3.5-2.4 1.7 0 2.6 1 2.6 2.9v11h-2.6v.7h8.2v-.7h-2.6v-7.4c0-2.8.1-3.7.7-4.7.7-1.2 2-1.9 3.3-1.9 1.7 0 2.5.9 2.5 2.9v11h-2.6v.7h8.2v-.7h-2.6V203c0-3-1.3-4.3-4.4-4.3-2-.1-3.9.7-5.2 2.1-.8-1.5-2-2.1-4.2-2.1-2-.1-3.9.7-5.4 2.1l.1-1.7zm-10.4-10.9h-6v.7h3v24.7h-3v.7h9v-.7h-3v-25.4zm-12.3 19.5c0 1-.1 2.1-.3 3-.5 1.3-1.8 2.2-3.2 2.3-1.4 0-2.5-1-2.6-2.4v-.3c0-1.3.7-2.4 1.8-3 1.1-.7 2.1-.9 4.3-.9v1.3zm0-1.8c-1.9-.1-3.7.2-5.5.8-2.3.9-3.5 2.5-3.5 4.4 0 2.2 1.6 3.6 4.1 3.6 2.2 0 3.7-1 4.9-3.2.3 2.3 1.1 3.2 2.9 3.2.9 0 1.4-.2 2.7-1.1l-.4-.5c-.3.3-.7.6-1.2.6-.8 0-1.1-.4-1.1-1.6v-8.9c0-1.6-.4-2.6-1.2-3.3-1.2-.9-2.6-1.3-4.1-1.2-3 0-5.7 1.8-5.7 3.7 0 1 .6 1.7 1.4 1.7.8 0 1.4-.7 1.4-1.5v-.1c0-.5-.2-.9-.5-1.2-.1-.2-.2-.3-.3-.5 0-.6 1.8-1.4 3.2-1.4 1.9 0 2.8.8 2.8 2.5l.1 4zm-34.3-.7c0-1.3.1-2.6.4-3.8.3-1.1 1.4-1.9 2.6-1.8 2.8 0 4.7 2.8 4.7 7.2 0 4.3-1.8 7.1-4.5 7.1-1.2 0-2.2-.7-2.6-1.8-.4-1.4-.6-2.9-.5-4.3l-.1-2.6zm7.7 9.1h5.6v-.7h-2.6v-25.4h-6.1v.7h3.1v13.4c-1.3-2.5-2.7-3.5-4.9-3.5-3.7 0-6.5 3.3-6.5 7.9 0 4.6 2.8 8 6.6 8 2.2 0 3.4-1 4.7-3.7l.1 3.3zm-17.8-9.6h-6.9v-1.3c0-2.6 1.1-3.8 3.6-3.8 2.4 0 3.3 1 3.3 3.4v1.7zm-6.9.7h10.4c-.1-3.7-3.1-6.6-6.8-6.6-2.1 0-4.1 1.1-5.3 2.8-1.2 1.5-1.8 3.3-1.9 5.2 0 4.3 3.4 7.8 7.6 7.9 3.2 0 5.6-2.1 6.2-5.5h-.8c-.4 2.7-2.7 4.7-5.4 4.7-1.2.1-2.4-.4-3.1-1.4-.7-.9-.9-1.9-.9-4.1v-3zM234.6 217h6.1c2.2 0 2.2 0 2.7.2.6.2 1 .9.9 1.6 0 3-3.1 5.4-6.8 5.4-3 0-5.1-1.7-5.1-4.1 0-1.2.5-2.3 1.5-3.1h.7zm.2-14c0-2.6.7-3.5 2.8-3.5 2.1 0 2.7.7 2.7 3.3v2.5c0 2.8-.6 3.6-2.7 3.6-2.2 0-2.7-.7-2.7-3.6l-.1-2.3zm-.4 10.6c-1.8 0-2.7-.5-2.7-1.4 0-.9 1-2 2.8-3.1 1 .4 2 .6 3 .6 3.4 0 5.9-2.3 5.9-5.4.1-1.3-.3-2.5-1.1-3.5.5-.5.8-.7 1.1-.7.3 0 .5.2.5.4.2 1 .4 1.3 1.1 1.3.7 0 1.2-.5 1.2-1.4 0-.8-.7-1.5-1.5-1.5h-.2c-.9 0-1.5.3-2.7 1.5-1.1-1.2-2.7-1.8-4.3-1.7-3.5 0-6 2.3-6 5.4 0 1.8.8 3.5 2.3 4.5-.2.1-.3.3-.5.4-.4.3-.9.6-1.3.9-1.1.9-1.7 2.1-1.8 3.5 0 1.8.9 2.9 3 3.5-2.2.9-3 1.9-3 3.4 0 2.7 3 4.6 7 4.6 4.7 0 8-3 8-7.3 0-1.7-.5-2.9-1.4-3.6-.7-.5-1.5-.6-3.4-.6l-6 .2zm-17.2 3.4h6.1c2.2 0 2.2 0 2.7.2.6.2 1 .9.9 1.6 0 3-3.1 5.4-6.8 5.4-3 0-5.1-1.7-5.1-4.1 0-1.2.5-2.3 1.5-3.1h.7zm.1-14c0-2.6.7-3.5 2.8-3.5s2.7.7 2.7 3.3v2.5c0 2.8-.6 3.6-2.7 3.6s-2.7-.7-2.7-3.6l-.1-2.3zm-.4 10.6c-1.8 0-2.7-.5-2.7-1.4 0-.9 1-2 2.8-3.1 1 .4 2 .6 3 .6 3.4 0 5.9-2.3 5.9-5.4.1-1.3-.3-2.5-1.1-3.5.5-.5.8-.7 1.1-.7.3 0 .5.2.5.4.2 1 .4 1.3 1.1 1.3s1.2-.5 1.2-1.4c0-.8-.7-1.5-1.5-1.5h-.2c-.9 0-1.5.3-2.7 1.5-1.1-1.2-2.7-1.8-4.3-1.7-3.5 0-6 2.3-6 5.4 0 1.8.8 3.5 2.3 4.5-.2.2-.2.2-.5.4-.4.3-.9.6-1.3.9-1.1.9-1.7 2.1-1.8 3.5 0 1.8.9 2.9 3 3.5-2.2.9-3 1.9-3 3.4 0 2.7 3 4.6 7 4.6 4.7 0 8-3 8-7.3 0-1.7-.5-2.9-1.4-3.6-.7-.5-1.5-.6-3.4-.6l-6 .2zm-10.1-8.9H200v-1.3c0-2.6 1.1-3.8 3.6-3.8s3.3 1 3.3 3.4l-.1 1.7zm-6.9.7h10.4c0-3.7-3.1-6.6-6.7-6.6-2.1 0-4.1 1.1-5.4 2.8-1.2 1.5-1.8 3.3-1.9 5.2 0 4.3 3.4 7.8 7.6 7.9 3.2 0 5.6-2.1 6.2-5.5h-.8c-.4 2.7-2.7 4.7-5.4 4.7-1.2.1-2.3-.4-3.1-1.3-.7-.9-.9-1.9-.9-4.1v-3.1zm-10.3 2.5c0 1.2 0 2.4-.2 3.6-.2 1.4-1.5 2.5-2.9 2.4-1.4 0-2.7-.8-3.5-2-.9-1.7-1.3-3.6-1.2-5.5 0-4.1 1.8-6.9 4.6-6.9 1.1-.1 2.2.5 2.7 1.5.4.7.5 1.6.5 3.7v3.2zm-7.7-19.8h-5.6v.7h2.6v24.7h-2.6v.7h5.6v-2.7c1.4 2.3 2.6 3.1 4.7 3.1 3.7 0 6.7-3.5 6.7-8.1s-2.8-7.8-6.6-7.8c-2.2 0-3.5.9-4.8 3.3v-13.9zm-30.1 17c0-1.3.1-2.6.4-3.8.3-1.1 1.4-1.9 2.6-1.8 2.8 0 4.7 2.8 4.7 7.2 0 4.3-1.8 7.1-4.5 7.1-1.2 0-2.2-.7-2.6-1.8-.4-.9-.5-2-.5-4.3l-.1-2.6zm7.7 9.2h5.6v-.7h-2.6v-25.4h-6.1v.7h3.1v13.4c-1.3-2.5-2.7-3.5-4.8-3.5-3.7 0-6.5 3.3-6.5 7.9 0 4.6 2.8 8 6.6 8 2.2 0 3.4-1 4.7-3.7v3.3zm-26.3-15.2h-5.6v.7h2.6v13.7h-2.6v.7h8.2v-.7h-2.6v-6.3c0-2.8.2-4.3.7-5.3.7-1.4 2.2-2.4 3.8-2.4 1.8 0 2.6 1 2.6 3.2v10.7h-2.6v.7h8.2v-.7h-2.6v-9.7c.1-1.3-.2-2.6-1.1-3.6-1-1.1-2.5-1.6-4-1.6-2.1 0-3.5.7-5.1 2.6l.1-2zm-13.1 8.6c0 1-.1 2.1-.4 3-.5 1.3-1.7 2.2-3.2 2.3-1.4 0-2.5-1-2.6-2.4v-.3c0-1.3.7-2.4 1.8-3 1.1-.7 2.1-.9 4.3-.9l.1 1.3zm0-1.8c-1.9-.1-3.7.2-5.5.8-2.3.9-3.5 2.5-3.5 4.4 0 2.2 1.6 3.6 4.1 3.6 2.2 0 3.7-1 4.9-3.2.3 2.3 1.1 3.2 2.9 3.2.9 0 1.4-.2 2.7-1.1l-.4-.5c-.3.3-.7.6-1.2.6-.8 0-1.1-.4-1.1-1.6v-8.9c0-1.6-.4-2.6-1.2-3.3-1.2-.8-2.6-1.3-4.1-1.2-3 0-5.7 1.8-5.7 3.7 0 1 .6 1.7 1.4 1.7.8 0 1.4-.7 1.4-1.5v-.1c0-.5-.2-.9-.5-1.2-.2-.3-.3-.4-.3-.5 0-.6 1.8-1.4 3.2-1.4 1.9 0 2.8.8 2.8 2.5l.1 4zm-25.3-6.1H99v-.7h-4.1v-6.2h-.4c-.7 2.6-3.2 5.6-5.2 6.3v.6h2.5v10.3c0 1.8.1 2.5.7 3.2.8.9 2 1.4 3.2 1.3 2 .2 3.8-1.2 4-3.2v-.1H99c-.3 1.5-.9 2.1-2.2 2.1-1.4 0-2-.7-2-2.5v-11.1zm-9.7-.7h-5.6v.7h2.6v6.6c.1 1.7-.2 3.5-.7 5.1-.8 1.4-2.3 2.2-3.9 2.2-2.1 0-2.7-1-2.7-4.1V199h-5.6v.7h2.6v9.3c0 2 .2 3 .8 3.8 1.1 1.2 2.7 1.8 4.3 1.7 2.1.1 4.1-.9 5.2-2.7v2.3h5.6v-.7h-2.6v-14.3zm-29.8 6.6c.1-3.4.1-3.7.4-4.3.7-1.3 2.1-2 3.5-1.9 1.4-.1 2.7.5 3.4 1.6.4.7.6 2.1.6 4.6v1.9c.1 1.5-.1 2.9-.5 4.3-.7 1.3-2.1 2.1-3.6 1.9-1.3.1-2.6-.6-3.4-1.6-.4-.7-.4-.9-.5-4.6l.1-1.9zm4-7c-4.4-.2-8.1 3.2-8.3 7.6-.2 4.4 3.2 8.1 7.6 8.3 4.4.2 8.1-3.2 8.3-7.6v-.2c.2-4.3-3.2-7.9-7.5-8 0-.1 0-.1-.1-.1m-14.4 9.2c.1 1.2 0 2.4-.2 3.6-.2 1.4-1.5 2.5-2.9 2.4-1.4 0-2.7-.8-3.5-2-.9-1.7-1.3-3.6-1.2-5.5 0-4.1 1.8-6.9 4.6-6.9 1.1-.1 2.2.5 2.8 1.5.4.7.5 1.6.5 3.7l-.1 3.2zm-7.7-19.7h-5.6v.7h2.6v24.7h-2.7v.7h5.6v-2.7c1.4 2.3 2.6 3.1 4.7 3.1 3.7 0 6.7-3.5 6.7-8.1s-2.8-7.8-6.6-7.8c-2.2 0-3.5.9-4.8 3.3l.1-13.9zm-12.3 19.5c0 1-.1 2.1-.4 3-.5 1.3-1.7 2.2-3.2 2.3-1.4 0-2.5-1-2.6-2.4v-.3c0-1.3.7-2.4 1.8-3 1.1-.7 2.1-.9 4.3-.9v1.3zm0-1.8c-1.9-.1-3.7.2-5.5.8-2.3.9-3.5 2.5-3.5 4.4 0 2.2 1.6 3.6 4.1 3.6 2.2 0 3.7-1 4.9-3.2.3 2.3 1.1 3.2 2.9 3.2.9 0 1.4-.2 2.7-1.1l-.4-.5c-.3.3-.7.6-1.2.6-.8 0-1.1-.4-1.1-1.6v-8.9c0-1.6-.4-2.6-1.2-3.3-1.2-.9-2.6-1.3-4.1-1.2-3 0-5.7 1.8-5.7 3.7 0 1 .6 1.7 1.4 1.7.8 0 1.4-.7 1.4-1.5v-.1c0-.5-.2-.9-.5-1.2-.1-.2-.2-.3-.3-.5 0-.6 1.8-1.4 3.2-1.4 1.9 0 2.8.8 2.8 2.5l.1 4zm760.6-47.7c0-1.3.1-2.6.4-3.8.3-1.1 1.4-1.9 2.5-1.8 2.8 0 4.5 2.8 4.5 7.2 0 4.3-1.8 7.1-4.4 7.1-1.1 0-2.2-.7-2.6-1.8-.4-1.4-.6-2.9-.5-4.3l.1-2.6zm7.5 9.1h5.5v-.7h-2.6v-25.4h-6v.7h3.1v13.4c-1.3-2.5-2.6-3.5-4.7-3.5-3.7 0-6.3 3.3-6.3 7.9s2.7 8 6.4 8c2.1 0 3.4-1 4.7-3.7l-.1 3.3zm-17.2-9.6h-6.7v-1.3c0-2.6 1.1-3.8 3.5-3.8s3.2 1 3.2 3.4v1.7zm-6.7.7h10.2c0-3.6-2.8-6.6-6.4-6.6h-.1c-2.1 0-4.1 1-5.3 2.8-1.1 1.5-1.8 3.3-1.8 5.2 0 4.3 3.4 7.9 7.5 7.9 3.1 0 5.5-2.1 6-5.5h-.8c-.3 2.7-2.6 4.7-5.3 4.7-1.2.1-2.3-.5-3.1-1.4-.7-.9-.9-1.9-.9-4.1v-3zm-8-17.2h-5.9v.7h2.9v24.7h-2.9v.7h8.8v-.7h-2.9v-25.4zm-10.5 16.5h-6.7v-1.3c0-2.6 1.1-3.8 3.5-3.8s3.2 1 3.2 3.4v1.7zm-6.7.7h10.2c0-3.6-2.8-6.6-6.4-6.6h-.1c-2.1 0-4.1 1-5.3 2.8-1.1 1.5-1.8 3.3-1.8 5.2 0 4.3 3.4 7.9 7.5 7.9 3.1 0 5.5-2.1 6-5.5h-.8c-.3 2.7-2.6 4.7-5.3 4.7-1.2.1-2.3-.5-3.1-1.4-.7-.9-.9-1.9-.9-4.1v-3zm-12.7 9.3h1.2l5.7-14.9h1.7v-.7h-5.6v.7h3l-4.4 11.2-4.3-11.2h3v-.7h-8.3v.7h1.9l6.1 14.9zm-13-6.9c0 1-.1 2.1-.3 3.1-.5 1.3-1.7 2.2-3.1 2.3-1.3 0-2.5-1-2.5-2.4v-.3c0-1.2.6-2.4 1.7-3 1.1-.7 2.1-.9 4.2-.9v1.2zm0-1.9c-1.8-.1-3.7.2-5.4.8-2.2.9-3.4 2.5-3.4 4.4 0 2.2 1.6 3.6 4 3.6 2.2 0 3.6-1 4.8-3.2.3 2.3 1.1 3.2 2.9 3.2.9 0 1.3-.2 2.6-1.1l-.3-.5c-.3.3-.7.6-1.1.6-.8 0-1-.4-1-1.6v-8.8c0-1.6-.3-2.6-1.2-3.3-1.2-.8-2.6-1.3-4-1.2-3 0-5.6 1.8-5.6 3.7 0 1 .6 1.7 1.4 1.7.8 0 1.4-.7 1.4-1.5v-.1c0-.5-.2-.9-.5-1.2-.1-.2-.2-.3-.3-.5 0-.6 1.7-1.4 3.1-1.4 1.9 0 2.7.8 2.7 2.5l-.1 3.9zm-16.6-6.7h-5.5v.7h2.6v13.7h-2.6v.7h8v-.7h-2.5v-4.5c0-3.2.1-4.3.8-6.1.6-1.8 1.3-2.7 2.1-2.7.3 0 .5.2.5.6 0 1.3.5 2 1.3 2s1.5-.8 1.5-2c0-1.1-.8-2-1.9-2.1h-.2c-1.2 0-2.3.7-2.9 1.7-.5.8-.9 1.7-1.1 2.6v-3.9zm-12 .7h4.1v-.7h-4.1V146h-.4c-.7 2.6-3.1 5.6-5 6.3v.6h2.5v10.3c0 1.8.2 2.5.7 3.3.8.9 1.9 1.4 3.1 1.3 2 .2 3.7-1.2 3.9-3.2v-.1h-.8c-.3 1.5-.9 2.1-2.2 2.1-1.4 0-1.9-.7-1.9-2.5l.1-11.2zm-19.1 4.8h-6.7v-1.3c0-2.6 1.1-3.8 3.5-3.8s3.2 1 3.2 3.4v1.7zm-6.7.7H674c0-3.6-2.8-6.6-6.4-6.6h-.1c-2.1 0-4.1 1-5.3 2.8-1.1 1.5-1.8 3.3-1.8 5.2 0 4.3 3.4 7.9 7.5 7.9 3.1 0 5.5-2.1 6-5.5h-.8c-.3 2.7-2.6 4.7-5.3 4.7-1.2.1-2.3-.4-3.1-1.4-.7-.9-.9-1.9-.9-4.1v-3zm-18.5-17.1h-5.5v.7h2.6v24.7h-2.6v.7h8v-.7h-2.5v-6.2c-.1-1.7.1-3.4.7-5 .7-1.6 2.3-2.7 4.1-2.7 2 0 2.8 1 2.8 3.4v10.5h-2.6v.7h8v-.7h-2.5v-10.5c0-2.9-1.5-4.3-4.8-4.3-2.5 0-3.9.7-5.7 2.7v-13.3zm-19.8 32c2.3-2.1 3.5-4.3 3.5-6.4 0-2.1-1.4-3.9-3.2-3.9-1.3 0-2.3 1-2.3 2.3v.2c0 1.3.7 2.1 1.8 2.1.9 0 1.7-.8 1.6-1.8v-.7c.9.4 1.4 1.3 1.3 2.3 0 1.6-.9 3.1-3.1 5.4l.4.5zm-15-3.2h5.9c2.1 0 2.1 0 2.6.2s.9.7.9 1.6c0 3-3 5.4-6.6 5.4-3 0-5-1.7-5-4.1 0-1.2.5-2.3 1.4-3h.8zm.1-14c0-2.6.7-3.5 2.7-3.5s2.6.7 2.6 3.3v2.5c0 2.8-.6 3.6-2.7 3.6s-2.7-.7-2.7-3.6v-2.3zm-.4 10.5c-1.8 0-2.6-.5-2.6-1.4 0-.9 1-2 2.7-3.1.9.4 1.9.6 2.9.6 3.3 0 5.8-2.3 5.8-5.4.1-1.3-.3-2.5-1.1-3.5.5-.5.8-.7 1.1-.7.3 0 .5.2.5.4.2.9.4 1.3 1.1 1.3.7 0 1.1-.5 1.1-1.4 0-.8-.7-1.5-1.5-1.5h-.2c-.9 0-1.5.4-2.7 1.5-1.1-1.2-2.6-1.8-4.2-1.7-3.4 0-5.8 2.3-5.8 5.4-.1 1.8.8 3.5 2.3 4.5-.2.1-.3.3-.5.4-.4.3-.9.6-1.3.9-1 .9-1.7 2.2-1.7 3.5 0 1.8.9 2.9 2.9 3.5-2.1.9-2.9 1.9-2.9 3.4 0 2.7 2.9 4.6 6.9 4.6 4.7 0 7.8-3 7.8-7.3 0-1.7-.5-2.9-1.4-3.6-.7-.5-1.5-.6-3.3-.6l-5.9.2zm-18.5-14.4h-5.5v.7h2.6v13.7h-2.6v.7h8v-.7h-2.5v-6.3c0-2.8.2-4.3.6-5.3.7-1.4 2.1-2.3 3.7-2.4 1.7 0 2.5 1 2.5 3.2v10.7h-2.6v.7h8v-.7h-2.5V157c.1-1.3-.2-2.6-1-3.6-1-1.1-2.4-1.6-3.9-1.6-2 0-3.4.7-5 2.6l.2-2.2zm-11.6-10.4c-1.2.1-2 1.1-2 2.2.1 1 .9 1.9 2 2 1.2-.1 2-1.1 2-2.2-.2-1.1-1-2-2-2m1.7 10.4h-5.5v.7h2.6v13.7h-2.6v.7h8.1v-.7h-2.5l-.1-14.4zm-20.4-10.9h-5.5v.7h2.6v24.7h-2.6v.7h8v-.7h-2.5v-6.2c-.1-1.7.1-3.4.7-5 .7-1.6 2.3-2.7 4.1-2.7 2 0 2.8 1 2.8 3.4v10.5h-2.6v.7h8v-.7h-2.5v-10.5c0-2.9-1.5-4.3-4.8-4.3-2.4 0-3.9.7-5.7 2.7v-13.3zm-11.6 11.6h4v-.7h-4V146h-.4c-.7 2.6-3.1 5.6-5 6.3v.6h2.5v10.3c0 1.8.2 2.5.7 3.3.8.9 1.9 1.4 3.1 1.3 2 .2 3.7-1.2 3.9-3.2v-.1h-.8c-.3 1.5-.9 2.1-2.2 2.1-1.4 0-1.9-.7-1.9-2.5v-11.2zm-18.4 5.9c.1-3.4.1-3.7.4-4.3.7-1.3 2-2 3.4-1.9 1.3-.1 2.6.5 3.4 1.6.4.7.6 2.2.6 4.6v1.9c.1 1.4-.1 2.9-.5 4.3-.7 1.3-2 2-3.5 1.9-1.3.1-2.6-.5-3.3-1.6-.4-.7-.4-.9-.5-4.6v-1.9zm3.9-7c-4.4-.3-8.2 3-8.5 7.4-.3 4.4 3 8.2 7.4 8.5 4.4.3 8.2-3 8.5-7.4v-.4c0-4.6-3.2-8.1-7.4-8.1m-21.8.4H508v.7h2.6v13.7H508v.7h8v-.7h-2.5v-6.3c0-2.8.2-4.3.7-5.3.7-1.4 2.1-2.3 3.7-2.4 1.7 0 2.5 1 2.5 3.2v10.7h-2.6v.7h8v-.7h-2.5V157c.4-2.5-1.3-4.8-3.8-5.1-.4-.1-.7-.1-1.1 0-2 0-3.4.7-5 2.6l.1-2.3zm-28.1 0h-5.5v.7h2.6v13.7h-2.6v.7h8v-.7h-2.5v-6.3c0-2.8.2-4.3.6-5.3.7-1.4 2.1-2.3 3.7-2.4 1.7 0 2.5 1 2.5 3.2v10.7h-2.6v.7h8v-.7h-2.5V157c.1-1.3-.2-2.6-1-3.6-1-1.1-2.4-1.6-3.9-1.6-2 0-3.4.7-5 2.6l.2-2.2zm-13.9 0H466v.7h2.6v13.7H466v.7h8v-.7h-2.5v-4.5c0-3.2.1-4.3.8-6.1.7-1.8 1.3-2.7 2.1-2.7.3 0 .5.2.5.6 0 1.3.5 2 1.3 2s1.5-.8 1.5-2c0-1.1-.8-2-1.9-2.1h-.2c-1.2 0-2.3.7-2.9 1.7-.5.8-.9 1.7-1.1 2.6l-.1-3.9zm-12.5 8.6c0 1-.1 2.1-.3 3.1-.5 1.3-1.7 2.2-3.1 2.3-1.3 0-2.5-1-2.5-2.4v-.3c0-1.2.6-2.4 1.7-3 1.1-.7 2.1-.9 4.2-.9v1.2zm0-1.9c-1.8-.1-3.7.2-5.4.8-2.2.9-3.4 2.5-3.4 4.4 0 2.2 1.6 3.6 4 3.6 2.2 0 3.6-1 4.8-3.2.3 2.3 1.1 3.2 2.9 3.2.9 0 1.3-.2 2.6-1.1l-.3-.5c-.3.3-.7.6-1.1.6-.8 0-1-.4-1-1.6v-8.8c0-1.6-.3-2.6-1.2-3.3-1.2-.8-2.6-1.3-4-1.2-3 0-5.6 1.8-5.6 3.7 0 1 .6 1.7 1.4 1.7.8 0 1.4-.7 1.4-1.5v-.1c0-.5-.2-.9-.5-1.2-.1-.2-.2-.3-.3-.5 0-.6 1.7-1.4 3.1-1.4 1.9 0 2.7.8 2.7 2.5l-.1 3.9zm-14.8-1.2h-6.7v-1.3c0-2.6 1.1-3.8 3.5-3.8s3.2 1 3.2 3.4v1.7zm-6.7.7h10.2c0-3.6-2.8-6.6-6.4-6.6h-.1c-2.1 0-4.1 1-5.3 2.8-1.1 1.5-1.8 3.3-1.8 5.2 0 4.3 3.4 7.9 7.5 7.9 3.1 0 5.5-2.1 6-5.5h-.8c-.3 2.7-2.6 4.7-5.3 4.7-1.2.1-2.3-.4-3.1-1.4-.7-.9-.9-1.9-.9-4.1v-3zm-26.8-.2c0-1.3.1-2.6.4-3.8.3-1.1 1.4-1.9 2.5-1.8 2.8 0 4.5 2.8 4.5 7.2 0 4.3-1.8 7.1-4.4 7.1-1.1 0-2.2-.7-2.6-1.8-.4-1.4-.6-2.9-.5-4.3v-2.6zm7.5 9.1h5.5v-.7h-2.6v-25.4h-6v.7h3.1v13.4c-1.3-2.5-2.6-3.5-4.7-3.5-3.7 0-6.3 3.3-6.3 7.9s2.8 8 6.5 8c2.1 0 3.4-1 4.7-3.7l-.2 3.3zm-15.6-26.1h-5.9v.7h2.9v24.7h-2.9v.7h8.8v-.7h-2.9v-25.4zm-9.2 11h-5.5v.7h2.6v6.6c.1 1.7-.2 3.5-.7 5.1-.7 1.4-2.2 2.2-3.8 2.2-2 0-2.6-1-2.6-4.1v-10.5h-5.5v.7h2.6v9.3c0 2 .2 3 .8 3.8 1.1 1.2 2.6 1.8 4.2 1.7 2.1.2 4-.9 5-2.7v2.3h5.5v-.7h-2.5l-.1-14.4zm-28.9 6.6c.1-3.4.1-3.7.4-4.3.7-1.3 2-2 3.4-1.9 1.3-.1 2.6.5 3.4 1.6.4.7.6 2.2.6 4.6v1.9c.1 1.4-.1 2.9-.5 4.3-.7 1.3-2 2-3.5 1.9-1.3.1-2.6-.5-3.3-1.6-.4-.7-.4-.9-.5-4.6v-1.9zm3.9-7c-4.4-.3-8.2 3-8.5 7.4-.3 4.4 3 8.2 7.4 8.5 4.4.3 8.2-3 8.5-7.4v-.4c.1-4.6-3.2-8.1-7.4-8.1m-10.2 10.6c-.2 1-.7 1.9-1.3 2.6-1 1.2-2.5 1.9-4.1 1.9-1.2.1-2.4-.5-3.1-1.6-.5-.8-.7-2-.7-4.5v-2.5c0-4.2 1.2-5.9 4.2-5.9 1.5 0 3 .5 3 1.1 0 .1 0 .2-.2.4-.4.5-.7 1.1-.7 1.7 0 1.1.6 1.9 1.5 1.9s1.5-.7 1.5-1.9c0-2.3-2.2-4-5.2-4-4.3 0-7.7 3.5-7.7 7.8v.2c0 4.4 3.2 7.9 7.3 7.9 1.8 0 3.4-.7 4.6-2 .8-.9 1.4-2.1 1.6-3.3l-.7.2zm-36.1-4.2c0-1.3.1-2.6.4-3.8.3-1.1 1.4-1.9 2.5-1.8 2.8 0 4.5 2.8 4.5 7.2 0 4.3-1.8 7.1-4.4 7.1-1.1 0-2.2-.7-2.6-1.8-.4-1.4-.6-2.9-.5-4.3v-2.6zm7.6 9.1h5.5v-.7h-2.6v-25.4h-6v.7h3.1v13.4c-1.3-2.5-2.6-3.5-4.7-3.5-3.7 0-6.3 3.3-6.3 7.9s2.7 8 6.4 8c2.1 0 3.4-1 4.7-3.7l-.1 3.3zm-25.5-15.1h-5.5v.7h2.6v13.7h-2.6v.7h8v-.7h-2.5v-6.3c0-2.8.2-4.3.7-5.3.7-1.4 2.1-2.3 3.7-2.4 1.7 0 2.5 1 2.5 3.2v10.7h-2.6v.7h8v-.7H314V157c.4-2.5-1.3-4.8-3.8-5.1-.4-.1-.7-.1-1.1 0-2 0-3.4.7-5 2.6l.1-2.3zm-12.5 8.6c0 1-.1 2.1-.3 3.1-.5 1.3-1.7 2.2-3.1 2.3-1.3 0-2.5-1-2.5-2.4v-.3c0-1.2.6-2.4 1.7-3 1.1-.7 2.1-.9 4.2-.9v1.2zm0-1.9c-1.8-.1-3.7.2-5.4.8-2.2.9-3.4 2.5-3.4 4.4 0 2.2 1.6 3.6 4 3.6 2.2 0 3.6-1 4.8-3.2.3 2.3 1.1 3.2 2.9 3.2.9 0 1.3-.2 2.6-1.1l-.3-.5c-.3.3-.7.6-1.1.6-.8 0-1-.4-1-1.6v-8.8c0-1.6-.3-2.6-1.2-3.3-1.2-.8-2.6-1.3-4-1.2-3 0-5.6 1.8-5.6 3.7 0 1 .6 1.7 1.4 1.7.8 0 1.4-.7 1.4-1.5v-.1c0-.5-.2-.9-.5-1.2-.1-.2-.2-.3-.3-.5 0-.6 1.7-1.4 3.1-1.4 1.9 0 2.7.8 2.7 2.5l-.1 3.9zm-23.3-1.2h-6.7v-1.3c0-2.6 1.1-3.8 3.5-3.8s3.2 1 3.2 3.4v1.7zm-6.7.7h10.2c0-3.6-2.8-6.6-6.4-6.6h-.1c-2.1 0-4.1 1-5.3 2.8-1.1 1.5-1.8 3.3-1.8 5.2 0 4.3 3.4 7.9 7.5 7.9 3.1 0 5.5-2.1 6-5.5h-.8c-.3 2.7-2.6 4.7-5.3 4.7-1.2.1-2.3-.5-3.1-1.4-.7-.9-.9-1.9-.9-4.1v-3zm-18.4-.2c0-1.3.1-2.6.4-3.8.3-1.1 1.4-1.9 2.5-1.8 2.8 0 4.5 2.8 4.5 7.2 0 4.3-1.8 7.1-4.4 7.1-1.1 0-2.2-.7-2.6-1.8-.4-1.4-.6-2.9-.5-4.3v-2.6zm7.5 9.1h5.5v-.7h-2.6v-25.4h-6v.7h3.1v13.4c-1.3-2.5-2.6-3.5-4.7-3.5-3.7 0-6.3 3.3-6.3 7.9s2.7 8 6.5 8c2.1 0 3.4-1 4.7-3.7l-.2 3.3zm-18.2-6.5c0 1-.1 2.1-.3 3.1-.5 1.3-1.7 2.2-3.1 2.3-1.3 0-2.5-1-2.5-2.4v-.3c0-1.2.6-2.4 1.7-3 1.1-.7 2.1-.9 4.2-.9v1.2zm0-1.9c-1.8-.1-3.7.2-5.4.8-2.2.9-3.4 2.5-3.4 4.4 0 2.2 1.6 3.6 4 3.6 2.2 0 3.6-1 4.8-3.2.3 2.3 1.1 3.2 2.9 3.2.9 0 1.3-.2 2.6-1.1l-.3-.5c-.3.4-.7.6-1.2.6-.8 0-1-.4-1-1.6v-8.8c0-1.6-.3-2.6-1.2-3.3-1.2-.8-2.6-1.3-4-1.2-3 0-5.6 1.8-5.6 3.7 0 1 .6 1.7 1.4 1.7.8 0 1.4-.7 1.4-1.5v-.1c0-.5-.2-.9-.5-1.2-.1-.2-.2-.3-.3-.5 0-.6 1.7-1.4 3.1-1.4 1.9 0 2.7.8 2.7 2.5v3.9zm-16.6-6.7h-5.5v.7h2.6v13.7h-2.6v.7h8v-.7H216v-4.5c0-3.2.1-4.3.8-6.1.7-1.8 1.3-2.7 2.1-2.7.3 0 .5.2.5.6 0 1.3.5 2 1.3 2 .9 0 1.5-.8 1.5-2 0-1.1-.8-2-1.9-2.1h-.2c-1.2 0-2.3.7-2.9 1.7-.5.8-.9 1.7-1.1 2.6l-.1-3.9zm-12 .7h4v-.7h-4V146h-.4c-.7 2.6-3.1 5.6-5 6.3v.6h2.5v10.3c0 1.8.1 2.5.7 3.3.8.9 1.9 1.4 3.1 1.3 2 .2 3.7-1.2 3.9-3.2v-.1h-.8c-.3 1.5-.9 2.1-2.2 2.1-1.4 0-1.9-.7-1.9-2.5l.1-11.2zm-27.2 5.9c.1-3.4.1-3.7.4-4.3.7-1.3 2-2 3.4-1.9 1.3-.1 2.6.5 3.4 1.6.4.7.6 2.2.6 4.6v1.9c.1 1.5-.1 2.9-.5 4.3-.7 1.3-2 2-3.5 1.9-1.3.1-2.6-.5-3.3-1.6-.4-.7-.4-.9-.5-4.6v-1.9zm3.9-7c-4.2.1-7.6 3.7-7.5 7.9 0 4.5 3.3 8 7.5 8 4.2-.1 7.5-3.6 7.5-7.9 0-4.5-3.3-8-7.5-8m-21.8.4h-5.5v.7h2.6v13.7h-2.6v.7h8v-.7h-2.5v-6.3c0-2.8.2-4.3.7-5.3.7-1.4 2.1-2.3 3.7-2.4 1.7 0 2.5 1 2.5 3.2v10.7h-2.6v.7h8v-.7h-2.5V157c.4-2.5-1.3-4.8-3.8-5.1-.4-.1-.7-.1-1.1 0-2 0-3.4.7-5 2.6l.1-2.3zm636.2-46.3h4.1v-.7h-4.1V99h-.4c-.7 2.6-3.1 5.6-5.1 6.3v.6h2.5v10.3c0 1.8.2 2.5.7 3.2.8.9 2 1.4 3.2 1.3 2 .2 3.8-1.2 4-3.2v-.1h-.8c-.3 1.5-.9 2.1-2.2 2.1-1.4 0-1.9-.7-1.9-2.5v-11.1zm-19.5-.7H770v.7h2.6v13.7H770v.7h8.2v-.7h-2.6v-6.3c0-2.8.2-4.3.7-5.3.7-1.4 2.2-2.3 3.8-2.4 1.8 0 2.6 1 2.6 3.2v10.7H780v.7h8.2v-.7h-2.6V110c.1-1.3-.2-2.6-1-3.6-1-1.1-2.5-1.6-3.9-1.6-2.1 0-3.5.7-5.1 2.6v-2.2zm-14.3 0h-5.6v.7h2.6v13.7h-2.6v.7h8.2v-.7h-2.6v-4.5c0-3.2.1-4.3.8-6.1.7-1.8 1.4-2.7 2.1-2.7.4 0 .5.2.5.6 0 1.3.5 1.9 1.4 1.9s1.5-.8 1.5-1.9c0-1.1-.8-2-1.9-2.1h-.2c-1.2 0-2.4.7-3 1.7-.5.8-.9 1.7-1.2 2.6v-3.9zm-12.9 8.6c0 1-.1 2.1-.3 3-.5 1.3-1.7 2.2-3.2 2.3-1.4 0-2.5-1-2.5-2.4v-.3c0-1.3.7-2.4 1.8-3 1.1-.7 2.1-.9 4.3-.9v1.3zm0-1.8c-1.9-.1-3.7.2-5.5.8-2.2.9-3.5 2.5-3.5 4.4 0 2.2 1.6 3.6 4.1 3.6 2.2 0 3.7-1 4.9-3.2.3 2.3 1.1 3.2 2.9 3.2.9 0 1.4-.1 2.6-1.1l-.4-.5c-.3.3-.7.6-1.2.6-.8 0-1-.4-1-1.6v-8.8c0-1.6-.4-2.6-1.2-3.3-1.2-.8-2.6-1.3-4.1-1.2-3 0-5.7 1.8-5.7 3.7 0 1 .6 1.7 1.4 1.7.8 0 1.4-.7 1.4-1.5v-.1c0-.5-.2-.9-.5-1.3-.1-.2-.2-.3-.3-.5 0-.6 1.8-1.5 3.2-1.5 1.9 0 2.8.8 2.8 2.5l.1 4.1zm-15.2-1.2h-6.8v-1.3c0-2.6 1.1-3.8 3.5-3.8s3.3 1 3.3 3.4v1.7zm-6.8.7h10.3c0-3.7-3-6.6-6.7-6.6-2.1 0-4.2 1.1-5.4 2.8-1.2 1.5-1.8 3.3-1.9 5.2 0 4.2 3.3 7.7 7.6 7.9 3.2 0 5.6-2.1 6.1-5.5h-.8c-.4 2.7-2.7 4.7-5.4 4.7-1.2.1-2.3-.4-3.1-1.4-.7-.9-.9-1.9-.9-4.1l.2-3zm-8.3-17.2h-6v.7h3v24.7h-3v.7h8.9v-.7h-3l.1-25.4zm-28.8 17c0-1.3.1-2.6.4-3.8.3-1.1 1.4-1.9 2.6-1.8 2.8 0 4.6 2.8 4.6 7.2 0 4.3-1.8 7.1-4.5 7.1-1.2 0-2.2-.7-2.6-1.8-.4-.9-.5-2-.5-4.3v-2.6zm7.7 9.1h5.6v-.7H700V94.3h-6.1v.7h3.1v13.4c-1.3-2.5-2.6-3.5-4.8-3.5-3.7 0-6.4 3.3-6.4 7.9 0 4.6 2.8 8 6.5 8 2.2 0 3.4-.9 4.7-3.7v3.3zm-18.7-6.5c0 1-.1 2.1-.3 3-.5 1.3-1.7 2.2-3.2 2.3-1.4 0-2.5-1-2.5-2.4v-.3c0-1.3.6-2.4 1.7-3 1.1-.7 2.1-.9 4.3-.9v1.3zm0-1.9c-1.8-.1-3.7.2-5.4.8-2.2.9-3.5 2.5-3.5 4.4 0 2.2 1.6 3.6 4.1 3.6 2.2 0 3.7-1 4.9-3.2.3 2.3 1.1 3.2 2.9 3.2.9 0 1.4-.1 2.6-1.1l-.4-.5c-.3.3-.7.6-1.2.6-.8 0-1.1-.4-1.1-1.6v-8.8c0-1.6-.3-2.6-1.2-3.3-1.2-.8-2.6-1.3-4.1-1.2-3 0-5.7 1.8-5.7 3.7 0 1 .6 1.7 1.4 1.7.8 0 1.4-.7 1.4-1.5v-.1c0-.5-.2-.9-.5-1.3-.1-.2-.2-.3-.3-.5 0-.6 1.8-1.5 3.2-1.5 1.9 0 2.8.8 2.8 2.5l.1 4.1zm-24.4-17.7h-5.6v.7h2.6v24.7h-2.6v.7h8.1v-.7h-2.6v-6.2c-.1-1.7.1-3.4.7-5 .7-1.6 2.4-2.7 4.2-2.7 2.1 0 2.9.9 2.9 3.4v10.5H659v.7h8.2v-.7h-2.6v-10.5c0-2.9-1.5-4.3-4.9-4.3-2.5 0-4 .7-5.8 2.7V94.3zm-19.8 16.5h-6.8v-1.3c0-2.6 1.1-3.8 3.5-3.8s3.3 1 3.3 3.4v1.7zm-6.7.7h10.3c0-3.7-3-6.6-6.6-6.6-2.2 0-4.2 1.1-5.4 2.8-1.2 1.5-1.8 3.3-1.9 5.2 0 4.2 3.3 7.7 7.6 7.9 3.2 0 5.6-2.1 6.1-5.5h-.8c-.4 2.7-2.7 4.7-5.4 4.7-1.2.1-2.3-.5-3.1-1.4-.7-.9-.9-1.9-.9-4.1l.1-3zm-19-17.2h-5.6v.7h2.6v24.7h-2.6v.7h8.2v-.7h-2.6v-6.2c-.1-1.7.1-3.4.7-5 .7-1.6 2.4-2.7 4.2-2.7 2.1 0 2.9.9 2.9 3.4v10.5h-2.6v.7h8.2v-.7h-2.6v-10.5c0-2.9-1.6-4.3-4.9-4.3-2.5 0-4 .7-5.8 2.7l-.1-13.3zm-17.1 10.6h-.5l-.5 1.4c-1-.9-2.3-1.5-3.7-1.5-2.5-.1-4.6 1.9-4.7 4.3v.3c-.1 2.2 1.4 4.1 3.6 4.4l3 .6c1.7.3 2.5 1.1 2.5 2.3-.1 1.8-1.7 3.2-3.5 3.1-1.7 0-3.2-.9-4-2.4-.6-.9-.9-2-1.1-3h-.7v5.8h.4l.9-1.5c1.6 1.4 2.7 1.9 4.3 1.9 2.7 0 4.9-2.1 4.9-4.7v-.4c0-2.8-1.4-4.3-4.4-4.9l-1.8-.3c-2.2-.4-3-.9-3-2 0-1.5 1.5-2.7 3.3-2.7 2.2-.1 4.1 1.6 4.4 3.8h.7l-.1-4.5zm-17.8 9c0 1-.1 2.1-.3 3-.5 1.3-1.7 2.2-3.2 2.3-1.4 0-2.5-1.1-2.5-2.4v-.3c0-1.3.7-2.4 1.8-3 1.1-.7 2.1-.9 4.3-.9l-.1 1.3zm0-1.9c-1.9-.1-3.7.2-5.5.8-2.2.9-3.5 2.5-3.5 4.4 0 2.2 1.6 3.6 4.1 3.6 2.2 0 3.7-1 4.9-3.2.3 2.3 1.1 3.2 2.9 3.2.9 0 1.4-.1 2.6-1.1l-.4-.5c-.3.3-.7.6-1.2.6-.8 0-1-.4-1-1.6v-8.8c0-1.6-.4-2.6-1.2-3.3-1.2-.8-2.6-1.3-4.1-1.2-3 0-5.7 1.8-5.7 3.7 0 1 .6 1.7 1.4 1.7.8 0 1.4-.7 1.4-1.5v-.1c0-.5-.2-.9-.5-1.3-.1-.2-.2-.3-.3-.5 0-.6 1.8-1.5 3.2-1.5 1.9 0 2.8.8 2.8 2.5l.1 4.1zm-32.9-.7c0-1.3.1-2.6.4-3.8.3-1.1 1.4-1.9 2.6-1.8 2.8 0 4.6 2.8 4.6 7.2 0 4.3-1.8 7.1-4.5 7.1-1.2 0-2.2-.7-2.6-1.8-.4-1.4-.6-2.9-.5-4.3v-2.6zm7.6 9.1h5.6v-.7h-2.6V94.3h-6.1v.7h3.1v13.4c-1.3-2.5-2.6-3.5-4.8-3.5-3.7 0-6.4 3.3-6.4 7.9 0 4.6 2.8 8 6.5 8 2.2 0 3.4-.9 4.7-3.7v3.3zm-26-15.2h-5.6v.7h2.6v13.7h-2.6v.7h8.2v-.7h-2.6v-6.3c0-2.8.2-4.3.7-5.3.7-1.4 2.2-2.3 3.8-2.4 1.8 0 2.6 1 2.6 3.2v10.7h-2.6v.7h8.2v-.7h-2.6V110c.1-1.3-.2-2.6-1-3.6-1-1.1-2.5-1.6-3.9-1.6-2.1 0-3.5.7-5.1 2.6l-.1-2.2zm-12.8 8.6c0 1-.1 2.1-.3 3-.5 1.3-1.7 2.2-3.2 2.3-1.4 0-2.5-1-2.5-2.4v-.3c0-1.3.7-2.4 1.8-3 1.1-.7 2.1-.9 4.3-.9v1.3zm0-1.8c-1.9-.1-3.7.2-5.5.8-2.2.9-3.5 2.5-3.5 4.4 0 2.2 1.6 3.6 4.1 3.6 2.2 0 3.7-1 4.9-3.2.3 2.3 1.1 3.2 2.9 3.2.9 0 1.4-.1 2.6-1.1l-.3-.5c-.3.3-.7.6-1.2.6-.8 0-1.1-.4-1.1-1.6v-8.8c0-1.6-.3-2.6-1.2-3.3-1.2-.9-2.6-1.3-4.1-1.2-3 0-5.7 1.8-5.7 3.7 0 1 .6 1.7 1.4 1.7.8 0 1.4-.7 1.4-1.5v-.1c0-.5-.2-.9-.5-1.3-.1-.2-.2-.3-.3-.5 0-.6 1.8-1.5 3.2-1.5 1.9 0 2.8.8 2.8 2.5l.1 4.1zm-24.7 14.3c2.3-2.1 3.6-4.3 3.6-6.4 0-2.2-1.4-3.9-3.2-3.9-1.3 0-2.3 1-2.4 2.3v.2c0 1.3.7 2.2 1.8 2.2.9 0 1.7-.8 1.6-1.8v-.7c.9.4 1.4 1.3 1.3 2.3 0 1.6-.9 3.1-3.2 5.4l.5.4zm-9.1-15.5h-6.8v-1.3c0-2.6 1.1-3.8 3.5-3.8s3.3 1 3.3 3.4v1.7zm-6.8.7h10.3c0-3.7-3-6.6-6.6-6.6-2.2 0-4.2 1.1-5.4 2.8-1.2 1.5-1.8 3.3-1.9 5.2 0 4.2 3.3 7.7 7.6 7.9 3.2 0 5.6-2.1 6.1-5.5h-.7c-.4 2.7-2.7 4.7-5.4 4.7-1.2.1-2.3-.4-3.1-1.4-.7-.9-.9-1.9-.9-4.1v-3zm-16.4 11.6h6c2.2 0 2.2 0 2.7.2.6.2 1 .9.9 1.6 0 3-3 5.4-6.8 5.4-3 0-5.1-1.7-5.1-4.1 0-1.2.5-2.3 1.4-3.1h.9zm.1-13.9c0-2.6.7-3.5 2.8-3.5s2.7.7 2.7 3.3v2.5c0 2.8-.6 3.6-2.7 3.6s-2.7-.7-2.7-3.6l-.1-2.3zm-.4 10.5c-1.8 0-2.7-.5-2.7-1.4s1-2 2.8-3.1c.9.4 2 .6 3 .6 3.3 0 5.9-2.3 5.9-5.4.1-1.3-.3-2.5-1.1-3.5.5-.5.8-.7 1.1-.7.3 0 .5.2.5.5.1.9.4 1.3 1.1 1.3s1.2-.5 1.2-1.4c0-.8-.7-1.5-1.5-1.5h-.2c-.9 0-1.5.3-2.7 1.5-1.1-1.2-2.7-1.8-4.3-1.7-3.5 0-5.9 2.3-5.9 5.4-.1 1.8.8 3.5 2.3 4.5-.2.1-.3.3-.5.4-.4.3-.9.6-1.3.9-1.1.9-1.7 2.2-1.8 3.5 0 1.8.9 2.9 3 3.5-2.2.9-3 1.9-3 3.4 0 2.7 3 4.6 7 4.6 4.7 0 8-3 8-7.3 0-1.7-.5-2.9-1.4-3.6-.7-.5-1.5-.6-3.4-.6l-6.1.1zm-11.7-14.4h-5.6v.7h2.6v13.7h-2.6v.7h8.1v-.7h-2.6v-4.5c0-3.2.1-4.3.8-6.1.7-1.8 1.4-2.7 2.1-2.7.3 0 .5.2.5.6 0 1.3.5 1.9 1.4 1.9.9 0 1.5-.8 1.5-1.9 0-1.1-.8-2-2-2.1h-.2c-1.2 0-2.4.7-3 1.7-.5.8-.9 1.7-1.2 2.6l.2-3.9zm-12.9 8.6c0 1-.1 2.1-.4 3-.5 1.3-1.7 2.2-3.2 2.3-1.4 0-2.5-1-2.5-2.4v-.3c0-1.3.7-2.4 1.8-3 1.1-.7 2.1-.9 4.3-.9v1.3zm0-1.9c-1.9-.1-3.7.2-5.5.8-2.3.9-3.5 2.5-3.5 4.4 0 2.2 1.6 3.6 4.1 3.6 2.2 0 3.7-1 4.9-3.2.3 2.3 1.1 3.2 2.9 3.2.9 0 1.4-.1 2.6-1.1l-.3-.5c-.3.3-.7.6-1.2.6-.8 0-1-.4-1-1.6v-8.8c0-1.6-.3-2.6-1.2-3.3-1.2-.8-2.6-1.3-4.1-1.2-3 0-5.7 1.8-5.7 3.7 0 1 .6 1.7 1.4 1.7.8 0 1.4-.7 1.4-1.5v-.1c0-.5-.2-.9-.5-1.3-.1-.2-.2-.3-.3-.5 0-.6 1.8-1.5 3.2-1.5 1.9 0 2.8.8 2.8 2.5v4.1zm-24.4-17.7h-5.6v.7h2.6v24.7h-2.6v.7h8.2v-.7h-2.6v-6.2c-.1-1.7.1-3.4.7-5 .7-1.6 2.4-2.7 4.2-2.7 2.1 0 2.9.9 2.9 3.4v10.5h-2.6v.7h8.2v-.7h-2.6v-10.5c0-2.9-1.6-4.3-4.9-4.3-2.5 0-4 .7-5.8 2.7l-.1-13.3zm-7.5 21.2c-.2 1-.7 1.9-1.3 2.6-1.1 1.2-2.6 1.9-4.2 1.9-1.3.1-2.5-.5-3.1-1.6-.5-.8-.7-2-.7-4.5v-2.5c0-4.2 1.2-5.9 4.2-5.9 1.5 0 3 .5 3 1.1 0 .1 0 .2-.2.4-.4.5-.7 1.1-.7 1.7 0 1.1.6 1.9 1.5 1.9s1.6-.8 1.6-1.7v-.2c0-2.3-2.2-4-5.2-4-4.3 0-7.8 3.5-7.8 7.8v.2c0 4.4 3.3 7.9 7.5 7.9 1.8 0 3.5-.7 4.7-2 .8-.9 1.4-2.1 1.6-3.3l-.9.2zM379 105h-.5l-.5 1.4c-1-.9-2.3-1.5-3.7-1.5-2.5-.1-4.6 1.8-4.7 4.3v.3c-.1 2.2 1.4 4.1 3.6 4.4l3 .6c1.7.3 2.5 1.1 2.5 2.3-.1 1.8-1.7 3.2-3.5 3.1-1.7 0-3.2-.9-4-2.4-.5-.9-.9-2-1-3h-.7v5.8h.4l.9-1.5c1.6 1.4 2.7 1.9 4.3 1.9 2.7 0 4.9-2.1 4.9-4.8v-.4c0-2.8-1.4-4.3-4.4-4.9l-1.8-.3c-2.2-.4-3-.9-3-2 0-1.5 1.5-2.7 3.3-2.7 2.2-.1 4.1 1.6 4.4 3.8h.7l-.2-4.4zm-16.6-10.2c-1.2 0-2.1.9-2.1 2.1 0 1.2.9 2.1 2.1 2.1 1.2 0 2.1-.9 2.1-2.1 0-1.2-1-2.1-2.1-2.1m1.8 10.4h-5.6v.7h2.6v13.7h-2.6v.7h8.1v-.7h-2.6l.1-14.4zm-20.9 6.1c0-1.3.1-2.6.4-3.8.3-1.1 1.4-1.9 2.6-1.8 2.8 0 4.6 2.8 4.6 7.2 0 4.3-1.8 7.1-4.5 7.1-1.2 0-2.2-.7-2.6-1.8-.4-.9-.5-2-.5-4.3v-2.6zm7.7 9.1h5.6v-.7H354V94.3h-6.1v.7h3.1v13.4c-1.3-2.5-2.6-3.5-4.8-3.5-3.7 0-6.4 3.3-6.4 7.9 0 4.6 2.8 8 6.5 8 2.2 0 3.4-.9 4.7-3.7v3.3zm-23.6-15.5h-.5l-.5 1.4c-1-.9-2.3-1.5-3.7-1.5-2.5-.1-4.6 1.9-4.7 4.3v.3c-.1 2.2 1.4 4.1 3.6 4.4l3 .6c1.7.3 2.5 1.1 2.5 2.3-.1 1.8-1.7 3.2-3.5 3.1-1.7 0-3.2-.9-4-2.4-.6-.9-.9-2-1.1-3h-.7v5.8h.4l.9-1.5c1.6 1.4 2.7 1.9 4.3 1.9 2.7 0 4.9-2.1 4.9-4.8v-.4c0-2.8-1.4-4.3-4.4-4.9l-1.7-.3c-2.2-.4-3-.9-3-2 0-1.5 1.5-2.7 3.3-2.7 2.2-.1 4.1 1.6 4.4 3.8h.7l-.2-4.4zm-16.6-10.1c-1.2 0-2.1.9-2.1 2.1s.9 2.1 2.1 2.1 2.1-.9 2.1-2.1-1-2.1-2.1-2.1m1.7 10.4h-5.6v.7h2.6v13.7h-2.6v.7h8.2v-.7h-2.6v-14.4zm-20.9-10.9H286v.7h2.6v24.7H286v.7h8.2v-.7h-2.6v-6.2c-.1-1.7.1-3.4.7-5 .7-1.6 2.4-2.7 4.2-2.7 2.1 0 2.9.9 2.9 3.4v10.5h-2.6v.7h8.2v-.7h-2.6v-10.5c0-2.9-1.5-4.3-4.8-4.3-2.5 0-4 .7-5.8 2.7l-.2-13.3zm-28.8 17c-.1-1.3.1-2.6.4-3.8.3-1.1 1.4-1.9 2.6-1.8 2.8 0 4.6 2.8 4.6 7.2 0 4.3-1.8 7.1-4.5 7.1-1.2 0-2.2-.7-2.6-1.8-.4-.9-.5-2-.5-4.3v-2.6zm7.7 9.1h5.6v-.7h-2.6V94.3h-6.1v.7h3.1v13.4c-1.3-2.5-2.6-3.5-4.8-3.5-3.7 0-6.4 3.3-6.4 7.9 0 4.6 2.8 8 6.5 8 2.2 0 3.4-.9 4.7-3.7v3.3zm-17.7-9.6H246v-1.3c0-2.6 1.1-3.8 3.5-3.8s3.3 1 3.3 3.4v1.7zm-6.8.7h10.3c0-3.7-3-6.6-6.6-6.6-2.2 0-4.2 1.1-5.4 2.8-1.2 1.5-1.8 3.3-1.9 5.2 0 4.2 3.3 7.7 7.6 7.9 3.2 0 5.6-2.1 6.1-5.5h-.8c-.4 2.7-2.7 4.7-5.4 4.7-1.2.1-2.3-.4-3.1-1.4-.7-.9-.9-1.9-.9-4.1l.1-3zm-13 9.3h1.2l5.9-14.8h1.7v-.7h-5.7v.7h3.1l-4.4 11.1-4.4-11.1h3.1v-.7H225v.7h2l6 14.8zm-12.9-26c-1.2 0-2.1.9-2.1 2.1 0 1.2.9 2.1 2.1 2.1 1.2 0 2.1-.9 2.1-2.1 0-1.2-1-2.1-2.1-2.1m1.7 10.4h-5.6v.7h2.6v13.7h-2.6v.7h8.1v-.7h-2.6v-14.4zm-11.8 5.6h-6.8v-1.3c0-2.6 1.1-3.8 3.5-3.8s3.3 1 3.3 3.4v1.7zm-6.8.7h10.3c0-3.7-3-6.6-6.6-6.6-2.2 0-4.2 1.1-5.4 2.8-1.2 1.5-1.8 3.3-1.9 5.2 0 4.2 3.3 7.7 7.6 7.9 3.2 0 5.6-2.1 6.1-5.5h-.8c-.4 2.7-2.7 4.7-5.4 4.7-1.2.1-2.3-.4-3.1-1.4-.7-.9-.9-1.9-.9-4.1l.1-3zm-6.5 4c-.2 1-.7 1.9-1.3 2.6-1.1 1.2-2.6 1.9-4.2 1.9-1.3.1-2.5-.5-3.1-1.6-.5-.8-.7-2-.7-4.5v-2.5c0-4.2 1.2-5.9 4.2-5.9 1.5 0 3 .5 3 1.1 0 .1 0 .2-.2.4-.4.5-.7 1.1-.7 1.7 0 1.1.6 1.9 1.5 1.9s1.6-.8 1.6-1.7v-.2c0-2.3-2.2-4-5.2-4-4.3 0-7.8 3.5-7.8 7.8v.2c0 4.4 3.3 7.9 7.4 7.9 1.8 0 3.5-.7 4.7-2 .8-.9 1.4-2.1 1.6-3.3l-.8.2zm-19.4-4.7h-6.8v-1.4c0-2.6 1.1-3.8 3.5-3.8s3.3 1 3.3 3.4v1.8zm-6.8.7h10.3c0-3.7-3-6.6-6.6-6.6-2.2 0-4.2 1.1-5.4 2.8-1.2 1.5-1.8 3.3-1.9 5.2 0 4.2 3.3 7.7 7.6 7.9 3.2 0 5.6-2.1 6.1-5.5h-.8c-.4 2.7-2.7 4.7-5.4 4.7-1.2.1-2.3-.4-3.1-1.4-.7-.9-.9-1.9-.9-4.1l.1-3zm-11.5-6.2h-5.6v.7h2.6v13.7h-2.6v.7h8.2v-.7H159v-4.5c0-3.2.1-4.3.8-6.1.7-1.8 1.4-2.7 2.1-2.7.3 0 .5.2.5.6 0 1.3.5 1.9 1.4 1.9.9 0 1.5-.8 1.5-1.9 0-1.1-.8-2-1.9-2.1h-.2c-1.2 0-2.4.7-3 1.7-.5.8-.9 1.7-1.2 2.6v-3.9zm626.4-41c0-1.3.1-2.6.4-3.8.3-1.1 1.4-1.8 2.5-1.8 2.8 0 4.5 2.8 4.5 7.2 0 4.3-1.8 7.1-4.4 7.1-1.2 0-2.2-.7-2.6-1.8-.4-1.4-.6-2.8-.5-4.3l.1-2.6zm7.6 9.1h5.6v-.7H796V47.4h-6v.6h3.1v13.4c-1.3-2.5-2.6-3.5-4.8-3.5-3.7 0-6.4 3.3-6.4 7.9s2.8 8 6.5 8c2.2 0 3.4-.9 4.7-3.7l-.1 3.3zm-18.4-6.5c0 1-.1 2.1-.3 3.1-.5 1.3-1.7 2.2-3.1 2.3-1.3 0-2.5-1-2.5-2.4v-.3c0-1.3.6-2.4 1.7-3 1.1-.7 2.1-.9 4.2-.9v1.2zm0-1.9c-1.8-.1-3.7.2-5.4.8-2.2.9-3.5 2.5-3.5 4.4 0 2.2 1.6 3.6 4 3.6 2.2 0 3.7-.9 4.8-3.2.3 2.3 1.1 3.2 2.9 3.2.9 0 1.4-.2 2.6-1.1l-.3-.5c-.3.3-.7.6-1.2.6-.8 0-1-.4-1-1.6v-8.8c0-1.6-.3-2.6-1.2-3.3-1.2-.8-2.6-1.3-4-1.2-3 0-5.6 1.8-5.6 3.7 0 1 .6 1.7 1.4 1.7.8 0 1.4-.7 1.4-1.5v-.1c0-.5-.2-.9-.5-1.2-.1-.2-.2-.3-.3-.5 0-.6 1.7-1.4 3.2-1.4 1.9 0 2.7.8 2.7 2.5V65zm-24.1-17.7H745v.7h2.6v24.7H745v.7h8.1v-.7h-2.5v-6.2c-.1-1.7.1-3.4.7-5 .7-1.6 2.3-2.7 4.1-2.7 2 0 2.9.9 2.9 3.4v10.5h-2.6v.7h8.1v-.7h-2.5V62.2c0-2.9-1.5-4.3-4.8-4.3-2.5 0-3.9.7-5.8 2.7l-.2-13.3zm-28.4 17c0-1.3.1-2.6.4-3.8.3-1.1 1.4-1.8 2.6-1.8 2.8 0 4.5 2.8 4.5 7.2 0 4.3-1.8 7.1-4.4 7.1-1.2 0-2.2-.7-2.6-1.8-.4-1.4-.6-2.8-.5-4.3v-2.6zm7.7 9.1h5.5v-.7h-2.6V47.4h-6v.6h3.1v13.4c-1.3-2.5-2.6-3.5-4.8-3.5-3.7 0-6.4 3.3-6.4 7.9s2.8 8 6.5 8c2.2 0 3.4-.9 4.7-3.7v3.3zM704 58.3h-5.5v.7h2.6v13.7h-2.6v.7h8.1v-.7H704v-6.2c0-2.8.2-4.3.7-5.3.7-1.4 2.1-2.3 3.7-2.4 1.7 0 2.5 1 2.5 3.2v10.7h-2.5v.7h8.1v-.7h-2.6v-9.6c.4-2.5-1.3-4.8-3.8-5.1-.4-.1-.8-.1-1.1 0-2 0-3.4.7-5 2.6v-2.3zm-11.8-10.4c-1.2.1-2 1.1-2 2.2.1 1 .9 1.9 2 2 1.2-.1 2-1.1 2-2.2-.1-1.1-.9-2-2-2m1.8 10.4h-5.5v.7h2.6v13.7h-2.6v.7h8.1v-.7H694V58.3zm-16.5 5.4l4.9-4.7h2.6v-.7h-7.5v.7h3.6l-6.5 6.1 5.7 7.7h-2.1v.7h8.2v-.7h-1.9l-7-9.1zm-3.7-16.3h-5.6v.6h2.6v24.7h-2.6v.7h8.1v-.7h-2.5V47.4zM657.1 58h-.5l-.5 1.4c-1-1-2.3-1.5-3.7-1.5-2.5-.1-4.5 1.9-4.6 4.3v.3c-.1 2.2 1.4 4.1 3.6 4.4l3 .6c1.7.3 2.5 1.1 2.5 2.3-.1 1.8-1.7 3.2-3.5 3-1.7 0-3.2-.9-4-2.4-.5-.9-.9-1.9-1-3h-.7v5.8h.4l.9-1.5c1.6 1.4 2.7 1.9 4.2 1.9 2.9 0 4.8-2.2 4.8-5.2 0-2.8-1.3-4.3-4.3-4.9l-1.7-.3c-2.2-.4-3-.9-3-2 .2-1.6 1.6-2.8 3.3-2.7 2.3 0 3.8 1.4 4.3 3.8h.7l-.2-4.3zm-16.4-10.1c-1.2.1-2 1.1-2 2.2.1 1 .9 1.9 2 2 1.2-.1 2-1.1 2-2.2-.1-1.1-1-2-2-2m1.8 10.4H637v.7h2.6v13.7H637v.7h8.1v-.7h-2.5V58.3zm-20.7-10.9h-5.5v.6h2.6v24.7h-2.6v.7h8.1v-.7h-2.5v-6.2c-.1-1.7.1-3.4.7-5 .7-1.6 2.3-2.7 4.1-2.7 2 0 2.8.9 2.8 3.4v10.5h-2.6v.7h8.1v-.7h-2.5V62.2c0-2.9-1.5-4.3-4.8-4.3-2.5 0-3.9.7-5.8 2.7l-.1-13.2zM610 59h4.1v-.7H610v-6.2h-.4c-.7 2.6-3.1 5.6-5.1 6.3v.6h2.5v10.3c0 1.8.1 2.5.7 3.2.8.9 2 1.4 3.2 1.3 2 .2 3.7-1.2 4-3.2v-.1h-.7c-.3 1.5-.9 2.1-2.2 2.1-1.4 0-1.9-.7-1.9-2.5L610 59zm-19.1 0h3.7v-.7h-3.7v-6.7c0-2 .1-2.6.6-3.2.4-.5 1.1-.8 1.7-.8.5-.1 1 .1 1.3.5-.5.4-.8 1-.8 1.6 0 .9.5 1.6 1.3 1.6s1.3-.7 1.3-1.7c0-1.5-1.3-2.6-3.1-2.6-1.5 0-2.8.8-3.7 1.9-1.2 1.5-1.6 2.9-1.6 6v3.4h-3.4v.7h3.4v13.7h-3.4v.7h9.7v-.7h-3.4l.1-13.7zm-19.7 5.9c.1-3.4.1-3.7.4-4.3.7-1.2 2-2 3.4-1.9 1.3-.1 2.6.5 3.4 1.6.4.7.6 2.2.6 4.6v1.9c.1 1.5-.1 2.9-.5 4.3-.7 1.3-2.1 2-3.5 1.9-1.3.1-2.6-.5-3.3-1.6-.4-.7-.4-.9-.5-4.6v-1.9zm3.9-7c-4.4-.3-8.2 3-8.5 7.4-.3 4.4 3 8.2 7.4 8.5 4.4.3 8.2-3 8.5-7.4V66c.1-4.6-3.2-8.1-7.4-8.1m-22.2 5.9h-6.7v-1.4c0-2.6 1.1-3.8 3.5-3.8s3.2 1 3.2 3.4v1.8zm-6.7.7h10.3c0-3.6-2.8-6.6-6.4-6.6h-.2c-2.1 0-4.1 1-5.3 2.8-1.2 1.5-1.8 3.3-1.8 5.2 0 4.2 3.3 7.7 7.5 7.9 3.2 0 5.5-2.1 6.1-5.5h-.7c-.3 2.7-2.6 4.7-5.3 4.7-1.2.1-2.3-.5-3.1-1.4-.7-.9-.9-1.9-.9-4.1l-.2-3zm-18.1-6.2h-5.5v.7h2.6v13.7h-2.6v.7h8.1v-.7h-2.5v-6.2c0-2.8.2-4.3.7-5.3.7-1.4 2.1-2.3 3.7-2.4 1.7 0 2.5 1 2.5 3.2v10.7h-2.6v.7h8.1v-.7H538v-9.6c.4-2.5-1.3-4.8-3.8-5.1-.4-.1-.8-.1-1.1 0-2 0-3.4.7-5 2.6v-2.3zm-19.4-10.6c2.5-.1 4.9 1.4 5.8 3.8.6 1.6.7 3.1.7 9 0 5-.1 6.5-.5 8-1.1 3.3-4.6 5.2-8 4.2-1.8-.6-3.2-1.8-3.9-3.5-.6-1.6-.7-3.1-.7-8.8 0-5.2.1-6.7.5-8.2.6-2.8 3.2-4.6 6.1-4.5m-.1-.7c-3 .1-5.7 1.4-7.6 3.7-2.2 2.7-3.4 6.2-3.3 9.7-.1 3.3.9 6.5 2.8 9.2 1.9 2.6 4.9 4.2 8.1 4.3 6.1 0 10.9-5.8 10.9-13.3.1-3.3-.9-6.6-2.8-9.3-1.9-2.7-4.9-4.3-8.1-4.3m-25.8 22.3c-1.2 0-2.2 1-2.2 2.2 0 1.2 1 2.2 2.2 2.2 1.2 0 2.2-1 2.2-2.2 0-1.2-1-2.2-2.2-2.2m-15.3 6.9h6c2.2 0 2.2 0 2.6.2.6.2 1 .9.9 1.6 0 3-3 5.4-6.7 5.4-3 0-5-1.7-5-4.1 0-1.2.5-2.3 1.4-3h.8zm.1-14c0-2.6.7-3.5 2.7-3.5s2.7.7 2.7 3.3v2.5c0 2.8-.6 3.6-2.7 3.6s-2.7-.7-2.7-3.6v-2.3zm-.4 10.5c-1.8 0-2.7-.5-2.7-1.4 0-.9 1-2 2.8-3.1.9.4 1.9.6 3 .6 3.3 0 5.9-2.3 5.9-5.4.1-1.3-.3-2.5-1.1-3.5.5-.5.8-.7 1.1-.7.3 0 .5.2.5.4.2 1 .4 1.3 1.1 1.3.7 0 1.2-.5 1.2-1.5 0-.8-.7-1.5-1.5-1.5h-.2c-.9 0-1.5.3-2.7 1.5-1.1-1.2-2.7-1.8-4.3-1.7-3.4 0-5.9 2.3-5.9 5.4-.1 1.8.8 3.5 2.3 4.5-.2.2-.2.2-.5.4-.4.3-.9.6-1.3.9-1.1.9-1.7 2.2-1.8 3.6 0 1.8.9 2.9 2.9 3.5-2.2.9-2.9 1.9-2.9 3.4 0 2.7 2.9 4.6 6.9 4.6 4.7 0 7.9-3 7.9-7.3 0-1.7-.5-2.9-1.4-3.6-.7-.5-1.5-.6-3.4-.6l-5.9.2zm-18.7-14.4h-5.6v.7h2.6v13.7h-2.6v.7h8.2v-.7h-2.5v-6.2c0-2.8.2-4.3.7-5.3.7-1.4 2.2-2.3 3.7-2.4 1.7 0 2.5 1 2.5 3.2v10.7h-2.6v.7h8.1v-.7h-2.5v-9.6c.1-1.3-.2-2.6-1-3.6-1-1.1-2.4-1.6-3.9-1.6-2 0-3.4.7-5 2.6l-.1-2.2zm-11.8-10.4c-1.2.1-2 1.1-2 2.2.1 1 .9 1.9 2 2 1.2-.1 2-1.1 2-2.2-.1-1.1-1-2-2-2m1.8 10.4H433v.7h2.6v13.7H433v.7h8.1v-.7h-2.5V58.3zm-20.7-10.9h-5.6v.6h2.6v24.7h-2.6v.7h8.1v-.7h-2.5v-6.2c-.1-1.7.1-3.4.7-5 .7-1.6 2.3-2.7 4.1-2.7 2 0 2.9.9 2.9 3.4v10.5h-2.6v.7h8.1v-.7h-2.5V62.2c0-2.9-1.5-4.3-4.8-4.3-2.5 0-3.9.7-5.8 2.7l-.1-13.2zM406 59h4v-.7h-4v-6.2h-.4c-.7 2.6-3.1 5.6-5.1 6.3v.6h2.5v10.3c0 1.8.2 2.5.7 3.2.8.9 2 1.4 3.2 1.3 2 .2 3.7-1.2 4-3.2v-.1h-.8c-.3 1.5-.9 2.1-2.2 2.1-1.4 0-1.9-.7-1.9-2.5V59zm-18.6 5.9c.1-3.4.1-3.7.4-4.3.7-1.3 2.1-2 3.5-1.9 1.3-.1 2.6.5 3.4 1.6.4.7.6 2.2.6 4.6v1.9c.1 1.5-.1 2.9-.5 4.3-.7 1.3-2.1 2-3.5 1.9-1.3.1-2.6-.5-3.4-1.6-.4-.7-.4-.9-.5-4.6v-1.9zm3.9-7c-4.4-.3-8.2 3.1-8.4 7.5-.3 4.4 3.1 8.2 7.5 8.4 4.4.3 8.2-3.1 8.4-7.5v-.4c0-4.5-3.2-8-7.5-8m-22 .4h-5.5v.7h2.6v13.7h-2.6v.7h8.1v-.7h-2.5v-6.2c0-2.8.2-4.3.7-5.3.7-1.4 2.2-2.3 3.8-2.4 1.7 0 2.5 1 2.5 3.2v10.7h-2.6v.7h8.1v-.7h-2.5v-9.6c.4-2.5-1.3-4.8-3.8-5.1-.4-.1-.8-.1-1.1 0-2 0-3.4.7-5 2.6l-.2-2.3zm-20.2.7h4.1v-.7h-4.1v-6.2h-.4c-.7 2.6-3.1 5.6-5.1 6.3v.6h2.5v10.3c0 1.8.2 2.5.7 3.2.8.9 2 1.4 3.2 1.3 2 .2 3.7-1.2 4-3.2v-.1h-.8c-.3 1.5-.9 2.1-2.2 2.1-1.4 0-1.9-.7-1.9-2.5V59zm-9.3-.7h-5.5v.7h2.6v6.6c.1 1.7-.2 3.5-.7 5.1-.8 1.4-2.2 2.2-3.8 2.2-2 0-2.7-.9-2.7-4.1V58.3h-5.5v.7h2.6v9.3c0 2 .2 3 .8 3.8 1.1 1.2 2.7 1.8 4.3 1.7 2.1.1 4.1-.9 5.1-2.7v2.3h5.5v-.7H340l-.2-14.4zm-29.2 6.6c.1-3.4.1-3.7.4-4.3.7-1.3 2-2 3.5-1.9 1.3-.1 2.6.5 3.4 1.6.4.7.6 2.2.6 4.6v1.9c.1 1.5-.1 2.9-.5 4.3-.7 1.3-2 2-3.5 1.9-1.3.1-2.6-.5-3.4-1.6-.4-.7-.4-.9-.5-4.6v-1.9zm3.9-7c-4.4-.3-8.2 3-8.5 7.4-.3 4.4 3 8.2 7.4 8.5 4.4.3 8.2-3 8.5-7.4V66c.1-4.6-3.2-8.1-7.4-8.1m-14 9.2c0 1.2 0 2.4-.2 3.6-.2 1.4-1.4 2.5-2.9 2.4-1.4 0-2.7-.8-3.4-2-.9-1.7-1.3-3.6-1.2-5.5 0-4.1 1.8-6.9 4.5-6.9 1.1-.1 2.2.5 2.7 1.5.4.7.5 1.6.5 3.7v3.2zm-7.6-19.7h-5.5v.6h2.6v24.7h-2.6v.7h5.5v-2.7c1.4 2.3 2.5 3.1 4.7 3.1 3.7 0 6.6-3.5 6.6-8.1s-2.8-7.8-6.5-7.8c-2.1 0-3.5.9-4.7 3.3l-.1-13.8zM281 66.9c0 1-.1 2.1-.3 3.1-.5 1.3-1.7 2.2-3.1 2.3-1.3.1-2.5-1-2.6-2.3v-.4c0-1.3.6-2.4 1.7-3 1.1-.7 2.1-.9 4.2-.9l.1 1.2zm0-1.8c-1.8-.1-3.7.2-5.4.8-2.2.9-3.5 2.5-3.5 4.4 0 2.2 1.6 3.6 4 3.6 2.2 0 3.7-.9 4.8-3.2.3 2.3 1.1 3.2 2.9 3.2.9 0 1.3-.2 2.6-1.1l-.3-.5c-.3.3-.7.6-1.2.6-.8 0-1-.4-1-1.6v-8.8c0-1.6-.3-2.6-1.2-3.3-1.2-.8-2.6-1.3-4-1.2-3 0-5.6 1.8-5.6 3.7 0 1 .6 1.7 1.4 1.7.8 0 1.4-.7 1.4-1.5v-.1c0-.5-.2-.9-.5-1.2-.1-.2-.2-.3-.3-.5 0-.6 1.7-1.4 3.2-1.4 1.9 0 2.7.8 2.7 2.5v3.9zM257.7 59h3.7v-.7h-3.7v-6.7c0-2 .1-2.6.6-3.2.4-.6 1.1-.9 1.8-.9.5-.1 1 .1 1.4.5-.5.4-.8 1-.8 1.6 0 .9.5 1.6 1.3 1.6s1.3-.7 1.3-1.7c0-1.5-1.3-2.6-3.1-2.6-1.5 0-2.9.8-3.8 2-1.2 1.5-1.6 2.9-1.6 6v3.4h-3.3v.7h3.3v13.7h-3.3v.7h9.7v-.7h-3.4l-.1-13.7zm-10-11.6h-5.9v.7h3v24.6h-3v.7h8.8v-.7h-2.9V47.4zM237 63.8h-6.7v-1.4c0-2.6 1.1-3.8 3.5-3.8s3.2 1 3.2 3.4v1.8zm-6.7.7h10.3c.1-3.6-2.8-6.6-6.4-6.7-2.2 0-4.3 1-5.6 2.9-1.1 1.5-1.8 3.3-1.8 5.2 0 4.3 3.4 7.9 7.5 7.9 3.2 0 5.5-2.1 6.1-5.5h-.8c-.3 2.7-2.6 4.7-5.3 4.7-1.2.1-2.3-.5-3.1-1.4-.7-.9-.9-1.9-.9-4.1v-3zm-7.1-6.5h-.5l-.5 1.4c-1-1-2.3-1.5-3.7-1.5-2.5-.1-4.5 1.9-4.6 4.3v.3c-.1 2.2 1.4 4.1 3.6 4.4l3 .6c1.6.3 2.5 1.1 2.5 2.3-.1 1.8-1.7 3.2-3.5 3-1.7 0-3.2-.9-4-2.4-.5-.9-.9-1.9-1-3h-.7v5.8h.4l.8-1.2c1.6 1.4 2.7 1.9 4.2 1.9 2.8 0 4.8-2.2 4.8-5.2 0-2.8-1.4-4.3-4.4-4.9l-1.8-.3c-2.2-.4-3-.9-3-2 .2-1.6 1.6-2.8 3.3-2.7 2.2-.1 4.1 1.6 4.3 3.7h.7l.1-4.5zm-33.5.3h-5.5v.7h2.6v13.7h-2.6v.7h8.1v-.7h-2.5V66c0-2.7.1-3.9.5-4.8.6-1.4 1.9-2.4 3.5-2.4 1.7 0 2.6 1 2.6 2.9v11h-2.6v.7h8.1v-.7h-2.5v-7.4c0-2.8.1-3.7.7-4.7.7-1.2 1.9-1.9 3.3-1.9 1.7 0 2.5.9 2.5 2.9v11H203v.7h8.1v-.7h-2.5V62.2c0-3-1.3-4.3-4.3-4.3-1.9-.1-3.8.7-5.2 2.1-.8-1.5-2-2.1-4.1-2.1-2-.1-3.9.7-5.3 2.1v-1.7zm-11.8-10.4c-1.2.1-2 1.1-2 2.2.1 1 .9 1.9 2 2 1.2-.1 2-1.1 2-2.2-.2-1.1-1-2-2-2m1.7 10.4h-5.5v.7h2.6v13.7h-2.6v.7h8.1v-.7h-2.5V58.3zM159 47.4h-5.5v.6h2.6v24.7h-2.6v.7h8.1v-.7H159v-6.2c-.1-1.7.1-3.4.7-5 .7-1.6 2.3-2.7 4.1-2.7 2 0 2.9.9 2.9 3.4v10.5H164v.7h8.1v-.7h-2.5V62.2c0-2.9-1.5-4.3-4.8-4.3-2.5 0-3.9.7-5.8 2.7V47.4zM796.2 11h-.5l-.6 1.4c-1.1-1-2.5-1.5-3.9-1.5-2.5-.1-4.7 1.8-4.8 4.3v.3c-.1 2.2 1.5 4.2 3.7 4.4l3.1.6c1.7.3 2.6 1.1 2.6 2.3 0 1.7-1.6 3.1-3.6 3.1-1.7 0-3.3-.9-4.1-2.4-.6-.9-.9-1.9-1.1-3h-.7v5.8h.4l.9-1.5c1.7 1.4 2.8 1.9 4.4 1.9 2.7.1 4.9-2 5-4.7v-.4c0-2.8-1.4-4.3-4.5-4.9l-1.8-.4c-2.3-.4-3.1-.9-3.1-1.9 0-1.5 1.5-2.7 3.4-2.7 2.2-.1 4.2 1.6 4.5 3.8h.7V11zM779 16.9h-7v-1.3c0-2.6 1.2-3.8 3.6-3.8s3.4 1 3.4 3.4v1.7zm-7 .7h10.6c0-3.7-3.1-6.6-6.8-6.6h-.1c-2.2 0-4.3 1-5.6 2.8-1.2 1.5-1.8 3.3-1.9 5.2 0 4.3 3.5 7.8 7.8 7.9 3.2.1 5.9-2.2 6.3-5.4h-.8c-.4 2.7-2.8 4.7-5.5 4.7-1.2.1-2.4-.4-3.2-1.4-.7-.9-.9-1.9-.9-4.2l.1-3zM763.2.4h-6.1v.7h3.1v24.7h-3.1v.7h9.2v-.7h-3V.4zm-12 19.7c0 1.2 0 2.4-.2 3.6-.2 1.4-1.5 2.5-2.9 2.4-1.4 0-2.8-.8-3.6-2-.9-1.7-1.4-3.6-1.2-5.5 0-4.1 1.9-6.9 4.7-6.9 1.1-.1 2.2.5 2.8 1.5.4.7.5 1.6.5 3.7l-.1 3.2zM743.3.4h-5.7v.7h2.7v24.7h-2.7v.7h5.7v-2.7c1.4 2.3 2.6 3.1 4.8 3.1 3.8 0 6.8-3.5 6.8-8.1S752 11 748.2 11c-2.2 0-3.6.9-4.9 3.3V.4zm-10 11h-5.7v.7h2.7v6.6c.1 1.7-.2 3.5-.8 5.1-.8 1.4-2.3 2.3-4 2.2-2.1 0-2.7-1-2.7-4.1V11.4H717v.7h2.7v9.3c0 2 .2 3 .8 3.8 1.2 1.2 2.8 1.8 4.4 1.7 2.1.2 4.2-.9 5.3-2.7v2.3h5.7v-.7h-2.6V11.4zM702.6 18c.1-3.4.1-3.7.4-4.3.7-1.3 2.1-2 3.6-1.9 1.4-.1 2.7.5 3.5 1.6.4.7.6 2.2.6 4.6v1.9c.1 1.5-.1 2.9-.5 4.3-.7 1.3-2.2 2.1-3.6 1.9-1.4.1-2.7-.5-3.5-1.6-.4-.7-.4-.9-.6-4.6l.1-1.9zm4.1-7c-4.3 0-7.8 3.6-7.8 7.9 0 4.3 3.4 7.8 7.7 7.8 4.3 0 7.8-3.4 7.8-7.7.1-4.3-3.3-7.9-7.6-8h-.1m-16.2.4h-5.7v.7h2.7v13.7h-2.7v.7h8.4v-.7h-2.6v-4.5c0-3.2.1-4.3.8-6.1s1.4-2.7 2.2-2.7c.4 0 .5.2.6.6 0 1.3.5 2 1.4 2s1.6-.8 1.6-2c0-1.1-.9-2.1-2-2.1h-.2c-1.3 0-2.4.7-3.1 1.7-.5.8-.9 1.7-1.2 2.6l-.2-3.9zm-12.9.7h4.2v-.7h-4.2V5.1h-.4c-.8 2.6-3.2 5.6-5.3 6.3v.6h2.6v10.3c0 1.8.2 2.5.8 3.3.8.9 2 1.4 3.2 1.3 2.4 0 3.7-1.1 4.1-3.3h-.8c-.3 1.5-1 2.1-2.3 2.1-1.4 0-2-.7-2-2.5l.1-11.1zM654 32.4c2.4-2.1 3.7-4.3 3.7-6.4s-1.4-3.9-3.3-3.9c-1.3 0-2.4 1-2.4 2.3v.2c0 1.3.7 2.1 1.9 2.1 1 0 1.7-.8 1.7-1.8v-.7c.9.4 1.5 1.3 1.4 2.3 0 1.6-.9 3.1-3.2 5.4l.2.5zm-16.1-3.2h6.2c2.2 0 2.2 0 2.7.2.6.2 1 .9.9 1.6 0 3-3.1 5.4-7 5.4-3.1 0-5.2-1.7-5.2-4.2 0-1.2.5-2.3 1.5-3h.9zm.1-13.9c0-2.6.7-3.5 2.8-3.5 2.1 0 2.7.7 2.7 3.3v2.5c0 2.8-.6 3.6-2.8 3.6s-2.8-.7-2.8-3.6v-2.3zm-.3 10.5c-1.9 0-2.8-.5-2.8-1.4s1-2 2.9-3.1c1 .4 2 .6 3.1.6 3.4 0 6.1-2.3 6.1-5.4.1-1.3-.3-2.5-1.1-3.5.5-.5.8-.7 1.2-.7.3 0 .5.2.6.4.2 1 .4 1.3 1.2 1.3.7 0 1.2-.5 1.2-1.4 0-.9-.7-1.5-1.6-1.5h-.2c-.9 0-1.6.4-2.8 1.5-1.2-1.2-2.8-1.8-4.4-1.7-3.6 0-6.1 2.3-6.1 5.4 0 1.8.8 3.5 2.4 4.5-.2.1-.3.3-.5.4-.5.3-.9.6-1.3.9-1.1.9-1.7 2.1-1.8 3.5 0 1.8.9 2.9 3 3.5-2.2.9-3 1.9-3 3.4 0 2.7 3 4.6 7.2 4.6 4.8 0 8.2-3 8.2-7.3 0-1.7-.5-2.9-1.5-3.6-.8-.5-1.6-.6-3.5-.6l-6.5.2zm-19.8-14.4h-5.7v.7h2.7v13.7h-2.7v.7h8.4v-.7H618v-6.3c0-2.8.2-4.3.7-5.3.8-1.4 2.3-2.4 3.9-2.4 1.8 0 2.6 1 2.6 3.2v10.7h-2.7v.7h8.4v-.7h-2.6V16c.1-1.3-.3-2.6-1.1-3.6-1.1-1.1-2.5-1.6-4-1.6-2.1 0-3.6.7-5.2 2.6l-.1-2zM605.3.9c-1.2 0-2.1.9-2.1 2.1 0 1.2 1 2.1 2.1 2.1 1.2 0 2.1-.9 2.2-2.1-.1-1.1-1.1-2.1-2.2-2.1m1.8 10.5h-5.7v.7h2.7v13.7h-2.7v.7h8.4v-.7h-2.6l-.1-14.4zM585.3.4h-5.7v.7h2.7v24.7h-2.7v.7h8.4v-.7h-2.6v-6.2c-.1-1.7.1-3.4.7-5 .8-1.7 2.4-2.7 4.3-2.7 2.1 0 3 .9 3 3.4v10.5h-2.7v.7h8.4v-.7h-2.6V15.3c0-2.9-1.6-4.3-5-4.3-2.6 0-4.1.7-6 2.7L585.3.4zm-12.6 11.7h4.2v-.7h-4.2V5.1h-.4c-.8 2.6-3.2 5.6-5.3 6.3v.6h2.6v10.3c0 1.8.2 2.5.8 3.3.8.9 2 1.4 3.3 1.3 2.4 0 3.7-1.1 4.1-3.3h-.8c-.3 1.5-1 2.1-2.3 2.1-1.4 0-2-.7-2-2.5V12.1zM553.1 18c.1-3.4.1-3.7.4-4.3.7-1.3 2.1-2 3.6-1.9 1.4-.1 2.7.5 3.5 1.6.4.7.6 2.2.6 4.6v1.9c.1 1.5-.1 2.9-.5 4.3-.7 1.3-2.1 2.1-3.6 1.9-1.4.1-2.7-.5-3.5-1.6-.4-.7-.4-.9-.6-4.6l.1-1.9zm4-7c-4.3 0-7.8 3.6-7.8 7.9-.2 4.3 3.2 7.9 7.5 8.1 4.3.2 7.9-3.2 8.1-7.5V19c.1-4.3-3.2-7.9-7.5-8h-.3m-23.2.4h-5.7v.7h2.7v13.7h-2.7v.7h8.4v-.7H534v-6.3c0-2.8.2-4.3.7-5.3.8-1.4 2.3-2.4 3.9-2.4 1.8 0 2.6 1 2.6 3.2v10.7h-2.7v.7h8.4v-.7h-2.6V16c.1-1.3-.3-2.6-1.1-3.6-1.1-1.1-2.5-1.6-4-1.6-2.1 0-3.6.7-5.2 2.6l-.1-2zm-23.3.7h3.9v-.7h-3.8V4.7c0-2 .1-2.6.6-3.2.4-.5 1.1-.8 1.8-.8.5-.1 1 .1 1.4.5-.5.4-.8 1-.8 1.6-.1.8.5 1.5 1.3 1.6h.1c.8-.1 1.4-.9 1.3-1.7 0-1.5-1.3-2.6-3.2-2.6-1.5 0-3 .7-3.9 1.9-1.3 1.5-1.6 2.9-1.6 6v3.4h-3.5v.7h3.5v13.7h-3.5v.7h10.1v-.7h-3.5l-.2-13.7zM489.8 18c.1-3.4.1-3.7.4-4.3.7-1.3 2.1-2 3.6-1.9 1.4-.1 2.7.5 3.5 1.6.4.7.6 2.2.6 4.6v1.9c.1 1.5-.1 2.9-.5 4.3-.7 1.3-2.2 2.1-3.6 1.9-1.4.1-2.7-.5-3.5-1.6-.4-.7-.4-.9-.6-4.6V18zm4.1-7c-4.3 0-7.8 3.6-7.8 7.9-.2 4.3 3.2 7.9 7.5 8.1 4.3.2 7.9-3.2 8.1-7.5V19c.1-4.3-3.3-7.9-7.6-8h-.2m-35.1 6.4c0-1.3.1-2.6.4-3.8.4-1.1 1.4-1.9 2.6-1.8 2.9 0 4.7 2.8 4.7 7.2 0 4.3-1.9 7.1-4.6 7.1-1.2 0-2.2-.7-2.7-1.8-.4-.9-.5-2-.5-4.3v-2.6zm7.9 9.1h5.7v-.7h-2.7V.4h-6.3v.7h3.2v13.4c-1.3-2.5-2.7-3.5-5-3.5-3.8 0-6.6 3.3-6.6 7.9s2.9 8 6.7 8c2.2 0 3.5-.9 4.8-3.7v3.3zM448.2.9c-1.2 0-2.1.9-2.1 2.1.1 1.2 1.1 2.1 2.3 2 1.1-.1 1.9-.9 2-2-.1-1.1-1.1-2.1-2.2-2.1m1.8 10.5h-5.7v.7h2.7v13.7h-2.7v.7h8.4v-.7h-2.6l-.1-14.4zM436.6 20c0 1-.1 2.1-.4 3-.5 1.3-1.8 2.3-3.2 2.3-1.4.1-2.5-1-2.6-2.4v-.3c-.1-1.3.6-2.5 1.8-3.1 1.2-.7 2.2-.9 4.4-.9V20zm0-1.9c-1.9-.1-3.8.2-5.6.8-2.3.9-3.6 2.5-3.6 4.4 0 2.2 1.6 3.6 4.2 3.6 2.3 0 3.8-.9 5-3.2.3 2.3 1.2 3.2 3 3.2.9 0 1.4-.2 2.7-1.1l-.4-.5c-.3.3-.7.6-1.2.6-.8 0-1.1-.4-1.1-1.6v-8.8c0-1.6-.4-2.6-1.2-3.3-1.2-.9-2.7-1.3-4.2-1.2-3.1 0-5.8 1.8-5.8 3.7-.1.8.5 1.6 1.3 1.7h.1c.8 0 1.4-.7 1.4-1.5 0-.5-.2-.9-.5-1.3-.1-.2-.2-.3-.3-.5 0-.6 1.8-1.4 3.3-1.4 2 0 2.8.8 2.8 2.5l.1 3.9zm-17.9-6.7H413v.7h2.7v13.7H413v.7h8.4v-.7h-2.6v-4.5c0-3.2.1-4.3.8-6.1.7-1.8 1.4-2.7 2.2-2.7.4 0 .5.2.5.6 0 1.3.5 2 1.4 2s1.6-.8 1.6-2c0-1.1-.9-2.1-2-2.1h-.2c-1.3 0-2.4.7-3.1 1.7-.5.8-.9 1.7-1.2 2.6l-.1-3.9zm-12.1.7h3.8v-.7h-3.8V4.7c0-2 .1-2.6.6-3.2.4-.5 1.1-.8 1.8-.8.5-.1 1 .1 1.4.5-.5.4-.8 1-.8 1.6-.1.8.5 1.5 1.3 1.6h.1c.9-.1 1.5-.9 1.4-1.7 0-1.5-1.4-2.6-3.2-2.6-1.5 0-3 .7-3.9 1.9-1.2 1.5-1.6 2.9-1.6 6v3.4H400v.6h3.5v13.8H400v.7h10.1v-.7h-3.5V12.1zM393.1 20c0 1-.1 2.1-.4 3-.5 1.3-1.8 2.2-3.2 2.3-1.4.1-2.5-1-2.6-2.4v-.3c0-1.3.7-2.5 1.8-3 1.2-.7 2.2-.9 4.4-.9V20zm0-1.9c-1.9-.1-3.8.2-5.6.8-2.3.9-3.6 2.5-3.6 4.4 0 2.2 1.6 3.6 4.2 3.6 2.3 0 3.8-.9 5-3.2.3 2.3 1.2 3.2 3 3.2.9 0 1.4-.2 2.7-1.1l-.4-.5c-.3.3-.7.6-1.2.6-.8 0-1.1-.4-1.1-1.6v-8.8c0-1.6-.4-2.6-1.2-3.3-1.2-.9-2.7-1.3-4.2-1.2-3.1 0-5.8 1.8-5.8 3.7-.1.8.5 1.6 1.3 1.7h.1c.8 0 1.4-.7 1.4-1.5 0-.5-.2-.9-.5-1.3-.1-.2-.2-.3-.3-.5 0-.6 1.8-1.4 3.3-1.4 2 0 2.8.8 2.8 2.5l.1 3.9zm-24.3-7h-.5l-.6 1.4c-1.1-1-2.4-1.5-3.9-1.5-2.5-.1-4.7 1.8-4.8 4.3v.3c-.1 2.2 1.5 4.2 3.7 4.4l3.1.6c1.7.3 2.6 1.1 2.6 2.3 0 1.7-1.6 3.1-3.6 3.1-1.7 0-3.3-.9-4.1-2.4-.6-.9-.9-1.9-1.1-3h-.7v5.8h.4l.9-1.5c1.7 1.4 2.8 1.9 4.4 1.9 2.7.1 4.9-2 5-4.7v-.4c0-2.8-1.4-4.3-4.5-4.9l-1.8-.4c-2.3-.4-3.1-.9-3.1-1.9 0-1.5 1.5-2.7 3.4-2.7 2.2-.1 4.2 1.6 4.5 3.8h.7v-4.5zM351.4.9c-1.2 0-2.1.9-2.1 2.1 0 1.2 1 2.1 2.1 2.1 1.2 0 2.1-.9 2.2-2.1-.1-1.1-1.1-2.1-2.2-2.1m1.8 10.5h-5.7v.7h2.7v13.7h-2.7v.7h8.4v-.7h-2.6V11.4zm-32 6.6c.1-3.4.1-3.7.4-4.3.7-1.3 2.1-2.1 3.6-1.9 1.4-.1 2.7.5 3.5 1.6.4.7.6 2.2.6 4.6v1.9c.1 1.5-.1 2.9-.5 4.3-.7 1.3-2.2 2.1-3.6 1.9-1.4.1-2.7-.5-3.5-1.6-.4-.7-.4-.9-.6-4.6l.1-1.9zm4.1-7c-4.3 0-7.8 3.6-7.8 7.9 0 4.3 3.4 7.8 7.7 7.8 4.3 0 7.8-3.4 7.8-7.7.1-4.3-3.3-7.9-7.6-8h-.1M301.3.4h-5.7v.7h2.6v24.7h-2.7v.7h8.4v-.7h-2.6v-6.2c-.1-1.7.1-3.4.7-5 .8-1.7 2.4-2.7 4.3-2.7 2.1 0 3 .9 3 3.4v10.5h-2.7v.7h8.4v-.7h-2.6V15.3c0-2.9-1.6-4.3-5-4.3-2.6 0-4.1.7-6 2.7L301.3.4zM287 26.9h1.2l4.8-14.8h1.8v-.7h-5.2v.7h2.6l-3.4 10.8-4.4-11.5h-.9l-3.6 11.5-4-10.8h2.9v-.7h-8.3v.7h2l5.8 14.8h1.2l3.4-10.6 4.1 10.6zm-34.9-15.5h-5.7v.7h2.7v13.7h-2.7v.7h8.4v-.7h-2.6v-4.5c0-3.2.1-4.3.8-6.1.7-1.8 1.4-2.7 2.2-2.7.4 0 .5.2.6.6 0 1.3.5 2 1.4 2 .9 0 1.6-.8 1.6-2 0-1.1-.9-2.1-2-2.1h-.2c-1.3 0-2.4.7-3.1 1.7-.5.8-.9 1.7-1.2 2.6l-.2-3.9zm-12.5 5.5h-7v-1.3c0-2.6 1.2-3.8 3.6-3.8s3.4 1 3.4 3.4v1.7zm-7 .7h10.6c0-3.7-3.1-6.6-6.8-6.6h-.1c-2.2 0-4.3 1-5.5 2.8-1.2 1.5-1.8 3.3-1.9 5.2 0 4.3 3.4 7.8 7.7 7.9 3.2.1 5.9-2.3 6.3-5.4h-.8c-.4 2.7-2.8 4.7-5.6 4.7-1.2.1-2.4-.4-3.2-1.4-.7-.9-.9-1.9-.9-4.2l.2-3zM222 .9c-1.2 0-2.1.9-2.1 2.1.1 1.2 1.1 2.1 2.3 2 1.1-.1 1.9-.9 2-2-.1-1.1-1-2.1-2.2-2.1m1.9 10.5h-5.8v.7h2.7v13.7h-2.7v.7h8.4v-.7h-2.6V11.4zm-21.7 6c0-1.3.1-2.6.4-3.8.4-1.1 1.4-1.9 2.6-1.8 2.9 0 4.7 2.8 4.7 7.2 0 4.3-1.9 7.1-4.6 7.1-1.2 0-2.2-.7-2.7-1.8-.4-.9-.5-2-.5-4.3v-2.6zm7.8 9.1h5.7v-.7H213V.4h-6.3v.7h3.2v13.4c-1.3-2.5-2.7-3.5-4.9-3.5-3.8 0-6.6 3.3-6.6 7.9s2.9 8 6.7 8c2.2 0 3.5-.9 4.8-3.7l.1 3.3zM193.3.4h-6.1v.7h3.1v24.7h-3.1v.7h9.2v-.7h-3V.4zM173.2 18c.1-3.4.1-3.7.4-4.3.7-1.3 2.1-2 3.6-1.9 1.4-.1 2.7.5 3.5 1.6.4.7.6 2.2.6 4.6v1.9c.1 1.5-.1 2.9-.5 4.3-.7 1.3-2.1 2.1-3.6 1.9-1.4.1-2.7-.5-3.5-1.6-.4-.7-.4-.9-.5-4.6V18zm4-7c-4.3 0-7.8 3.6-7.8 7.9-.2 4.3 3.2 7.9 7.5 8.1 4.3.2 7.9-3.2 8.1-7.5V19c.1-4.3-3.3-7.9-7.6-8h-.2m-11.8 0h-.4l-.6 1.4c-1.1-1-2.4-1.5-3.9-1.5-2.5-.1-4.7 1.8-4.8 4.3v.3c-.1 2.2 1.5 4.2 3.7 4.4l3.1.6c1.7.3 2.6 1.1 2.6 2.3 0 1.7-1.6 3.1-3.6 3.1-1.7 0-3.3-.9-4.1-2.4-.6-.9-.9-1.9-1.1-3h-.7v5.8h.4l.9-1.5c1.7 1.4 2.7 1.9 4.4 1.9 2.7.1 4.9-2 5-4.7v-.4c0-2.8-1.4-4.3-4.5-4.9l-1.8-.4c-2.3-.4-3.1-.9-3.1-1.9 0-1.5 1.5-2.7 3.4-2.7 2.2-.1 4.2 1.6 4.5 3.8h.7l-.1-4.5zm-74.8 98.3H40.8l25-73.8 24.8 73.8zm1.7 4.5l16.8 49.1H85.3v4.5h68v-4.5h-19L79.6.4h-6.8L16 162.8H0v4.5h44.3v-4.5h-22l16.8-49.1 53.2.1zM533 308.6h15V306h-15v-22.9h-1.4c-2.7 9.7-11.5 20.6-18.7 23.3v2.2h9.2v37.8c0 6.6.6 9.2 2.7 12 2.5 3.2 6.5 4.9 11.6 4.9 8.4 0 13-3.9 14.6-12.1h-2.8c-1.1 5.5-3.5 7.8-8.1 7.8-5.1 0-7.1-2.7-7.1-9.4v-41zm-34.5-2.6h-20.4v2.6h9.5V333c0 8.5-1.1 15.7-2.7 18.9-2.6 5-8 8.1-14 8.1-7.5 0-9.8-3.6-9.8-15v-39h-20.4v2.6h9.5v34.3c0 7.4.7 11.1 3 14.1 3 3.9 8.6 6.2 15.7 6.2 8.7 0 13.8-2.7 18.7-10.1v8.6h20.3v-2.6h-9.3l-.1-53.1zm-107.6 24.4c.3-12.4.4-13.6 1.6-15.8 1.9-4.3 6.8-7.1 12.8-7.1 5.5 0 10.1 2.2 12.5 6.1 1.4 2.4 2.1 7.9 2.1 16.9v7c0 7.5-.7 13.7-1.7 15.8-2 4.5-6.8 7.1-12.9 7.1-5.5 0-10.1-2.3-12.3-6-1.6-2.6-1.6-3.5-2-16.9v-7.1zm14.5-25.8c-15.3 0-27.6 13.1-27.6 29.2 0 16.4 12.3 29.4 27.6 29.4s27.6-13.1 27.6-29c.1-16.7-12-29.6-27.6-29.6m-51.6 33.7c0 6.4-.3 11-.8 13.3-1.3 5.8-4.8 8.8-10.5 8.8-5 0-9.4-2.6-12.6-7.2-2.8-4.3-4.4-11.2-4.4-20.3 0-15.3 6.5-25.4 16.6-25.4 4.5 0 8.1 2 9.9 5.5 1.4 2.7 1.9 5.9 1.9 13.7l-.1 11.6zm-28.1-72.7h-20.4v2.6h9.5v91h-9.5v2.6h20.4v-9.9c5 8.4 9.3 11.4 17 11.4 13.6 0 24.2-13 24.2-29.8 0-16.6-10.2-28.8-24-28.8-7.8 0-12.8 3.4-17.3 12.1l.1-51.2zm-43.9 72.1c0 5.1-.4 8.8-1.3 11.2-2 5-6.7 8.5-11.5 8.5-5.5 0-9.2-3.9-9.2-9.9-.1-4.6 2.4-8.8 6.4-11 4.1-2.5 7.7-3.2 15.6-3.5v4.7zm0-6.9c-10.3.3-14.9 1-20 3-8.2 3.3-12.7 9.1-12.7 16.1 0 8.1 5.8 13.2 14.9 13.2 8.1 0 13.5-3.6 17.9-11.7 1.1 8.4 4.1 11.7 10.6 11.7 3.4 0 5-.6 9.6-4l-1.3-1.7c-1.7 1.6-2.8 2.2-4.3 2.2-2.8 0-3.8-1.6-3.8-6.1v-32.4c0-6-1.3-9.5-4.4-12.1-3.4-2.9-8.9-4.5-14.9-4.5-11.1 0-20.7 6.5-20.7 13.8 0 3.7 2.1 6.3 5.1 6.3 3 0 5.1-2.5 5.1-5.8 0-1.7-.4-2.6-1.9-4.7-.5-.6-.9-1.3-1-2 0-2.3 6.4-5.3 11.6-5.3 7 0 10.1 3 10.1 9.4l.1 14.6z" class="st0"/></g></svg>