<svg xmlns="http://www.w3.org/2000/svg" id="Layer_1" viewBox="0 0 800 654.1" width="800" height="654.1"><style>.st0{fill:none;stroke:#787878;stroke-width:6.6112;stroke-miterlimit:10}</style><g id="a5aa1b63-5bd2-4389-81ed-966d048faa97"><g id="b1839b9b-9fd0-4519-ba49-b37fc5dce2e2"><path d="M.2 117.6h161.2M.2 149.4h194.2M.2 181.1h161.2M.2 212.9h194.2M.2 244.6h161.2M.2 276.4h194.2m590.2-158.8H621.2m163.4 31.8H590.3m194.3 31.7H621.2m163.4 31.8H590.3m194.3 31.7H621.2m163.4 31.8H590.3M321.7 117.6h139.1m-165.5 31.8h194.2m-167.8 31.7h139.1m-165.5 31.8h194.2m-167.8 31.7h139.1M330.5 652.5H452M295.3 276.4h194.2M.2 493.8h194.2M.2 525.6h194.2M.2 557.3h194.2M.2 589.1h194.2M.2 620.8h194.2M.2 652.5h110.4M800 493.8H605.8M800 525.6H605.8M800 557.3H605.8M800 589.1H605.8M800 620.8H605.8M800 652.5H689.5M295.3 493.8h194.2m-194.2 31.8h194.2m-194.2 31.7h194.2m-194.2 31.8h194.2m-194.2 31.7h194.2" class="st0"/><path d="M14.4 24.3H6.3l-1.5 5.6H0L7.6 5.5h5.8L21 29.9h-5l-1.6-5.6zm-.9-3.6L10.4 9 7.3 20.7h6.2zm9.7 4.9V3.7l4.5-.5v22.2c0 .9.3 1.3 1.1 1.3.4 0 .7-.1 1-.2l1.1 3.2c-1 .4-2 .6-3 .6-2.3.2-4.4-1.5-4.7-3.8-.1-.3-.1-.6 0-.9zM38.9 4.4c0 1.6-1.3 2.8-2.8 2.8-1.6 0-2.8-1.3-2.8-2.8 0-1.6 1.3-2.8 2.8-2.8 1.6 0 2.8 1.3 2.8 2.8zm-.5 25.4h-4.5V11.2h4.5v18.6zm21.5-17.6c-1.8.5-3.6.7-5.4.6 2.1.7 3.5 2.7 3.4 4.8 0 3.6-2.8 6.3-7.5 6.3-.7 0-1.5-.1-2.2-.3-.5.3-.8.8-.8 1.4 0 .7.4 1.3 2.2 1.3h2.9c4.1 0 6.8 2.2 6.8 5.3 0 3.7-3.2 6-9.3 6-6.6 0-8.5-2.2-8.5-5.9h4.1c0 1.9.8 2.7 4.4 2.7s4.7-1 4.7-2.5-1.1-2.2-3.2-2.2h-2.7c-3.7 0-5.3-1.7-5.3-3.6.1-1.5.9-2.8 2.2-3.5-2.1-.9-3.4-3-3.3-5.3 0-4.1 3.2-6.6 7.7-6.6 3.1.2 6.2-.5 8.8-2.1l1 3.6zm-13 5.1c-.2 1.8 1 3.4 2.8 3.7h.5c2.2 0 3.3-1.3 3.3-3.7s-1.1-3.5-3.4-3.5c-1.8-.1-3.2 1.3-3.3 3.1.1.1.1.2.1.4zm30.9-1v13.5h-4.4V17c0-2.3-.9-3-2.2-3-1.7.2-3.2 1.2-3.9 2.8v13h-4.7V11.2h3.9l.4 2.4c1.3-1.9 3.4-3 5.7-3 2.8-.2 5.2 1.9 5.3 4.7 0 .4 0 .7-.1 1zM96.6 26h9.8l-.6 3.8H91.9V5.5h4.7V26zm27.3-4.1h-11.7c.4 3.8 2.2 5 4.6 5 1.7 0 3.3-.6 4.6-1.7l1.9 2.6c-1.9 1.6-4.4 2.5-6.9 2.5-5.8 0-8.8-3.9-8.8-9.7s3-10 8.3-10c5.3 0 8.2 3.5 8.2 9.4-.1.7-.1 1.4-.2 1.9zm-4.4-3.1c0-3.1-1.1-4.9-3.6-4.9-2.2 0-3.5 1.4-3.7 5.1h7.3v-.2zm13.6-9.6v2h3.5l-.5 3.2h-3v15.4h-4.5V14.4h-3v-3.2h3v-2c0-3.4 2.2-5.9 6.6-5.9 1 0 2 .2 3 .4l-.8 3.2c-.6-.2-1.2-.2-1.8-.2-1.8-.1-2.5.7-2.5 2.5zM151 29c-1.4.9-3 1.4-4.7 1.4-3.7 0-5.6-2.2-5.6-6.1v-9.9h-2.9v-3.2h2.9V7.1l4.4-.5v4.6h4.4l-.4 3.2h-3.9v9.9c0 1.8.6 2.6 2 2.6.8 0 1.5-.3 2.2-.7L151 29zM10.6 62.4h-3v9.8H3V47.8h7.3c6.4 0 9.7 2.2 9.7 7.2.1 3.1-1.9 5.8-4.9 6.6l6.4 10.6H16l-5.4-9.8zM7.7 59h2.9c2.9 0 4.5-1.1 4.5-4.1 0-2.9-1.5-3.8-4.9-3.8H7.7V59zm31.6 10.6l-.9 3c-1.8.1-3.5-1-4.1-2.7-1.2 1.9-3.3 2.9-5.6 2.9-3 .3-5.7-2-6-5v-.7c0-4.1 3-6.2 8.5-6.2h2.4v-1.1c0-2.4-1.1-3.3-3.5-3.3-1.7.1-3.4.4-5 1l-1-3.1c2.1-.9 4.4-1.4 6.7-1.5 5 0 7.2 2.2 7.2 6.4v7.8c-.1 1.6.4 2.2 1.3 2.5zm-5.9-2.5v-3.8h-1.9c-2.9 0-4.4 1.1-4.4 3.2-.2 1.3.7 2.6 2.1 2.8h.6c1.5.1 3-.8 3.6-2.2zm26.1-12.6c-1.8.5-3.6.7-5.4.6 2.1.7 3.4 2.6 3.4 4.8 0 3.6-2.8 6.3-7.5 6.3-.7 0-1.5-.1-2.2-.3-.5.3-.8.8-.8 1.4 0 .7.4 1.3 2.2 1.3H52c4.1 0 6.8 2.2 6.8 5.3 0 3.7-3.2 6-9.3 6-6.6 0-8.5-2.2-8.5-5.9h4.1c0 1.9.8 2.7 4.5 2.7s4.7-1 4.7-2.5-1.1-2.2-3.2-2.2h-2.8c-3.7 0-5.3-1.7-5.3-3.6.1-1.5.9-2.8 2.2-3.5-2.1-.9-3.5-3-3.3-5.3 0-4.1 3.2-6.6 7.7-6.6 3 .2 6.1-.5 8.7-2.1l1.2 3.6zm-13 5c-.2 1.8 1 3.4 2.8 3.7h.5c2.2 0 3.3-1.3 3.3-3.7S52 56 49.7 56c-1.8-.1-3.2 1.3-3.3 3.1 0 .1.1.3.1.4zm14.5-.2h10.7v3.6H61v-3.6zm22.9 3.1h-3v9.8h-4.6V47.8h7.3c6.4 0 9.7 2.2 9.7 7.2.1 3.1-1.9 5.8-4.9 6.6l6.5 10.6h-5.5l-5.5-9.8zm-3-3.4h2.8c2.9 0 4.4-1.1 4.4-4.1 0-2.9-1.5-3.8-4.9-3.8h-2.3V59zm21.8-12.2c.1 1.6-1.1 2.9-2.7 3s-2.9-1.1-3-2.7c-.1-1.6 1.1-2.9 2.7-3h.2c1.5-.1 2.8 1 2.8 2.5v.2zm-.6 25.4h-4.5V53.5h4.5v18.7zm21.6-17.7c-1.8.5-3.6.7-5.4.6 2.1.7 3.4 2.6 3.4 4.8 0 3.6-2.8 6.3-7.5 6.3-.7 0-1.5-.1-2.2-.3-.5.3-.8.8-.8 1.4 0 .7.4 1.3 2.2 1.3h2.9c4.1 0 6.8 2.2 6.8 5.3 0 3.7-3.2 6-9.3 6-6.6 0-8.5-2.2-8.5-5.9h4.1c0 1.9.8 2.7 4.5 2.7s4.7-1 4.7-2.5-1.1-2.2-3.2-2.2h-2.8c-3.7 0-5.3-1.7-5.3-3.6.1-1.5.9-2.8 2.2-3.5-2.1-.9-3.4-3-3.3-5.3 0-4.1 3.2-6.6 7.7-6.6 3 .2 6.1-.5 8.7-2.1l1.1 3.6zm-13 5c-.2 1.8 1 3.4 2.8 3.7h.5c2.2 0 3.3-1.3 3.3-3.7s-1.1-3.5-3.4-3.5c-1.8-.1-3.2 1.3-3.3 3.1.1.1.1.3.1.4zm30.9-.9v13.5h-4.4V59.3c0-2.3-.9-3-2.2-3-1.7.2-3.2 1.2-3.9 2.8v13h-4.7V46l4.5-.4v10.1c1.2-1.8 3.3-2.8 5.4-2.8 2.8-.1 5.2 2 5.3 4.8v.9zm15.8 12.7c-1.4 1-3 1.5-4.7 1.5-3.7 0-5.6-2.2-5.6-6.1v-9.9h-2.9v-3.2h2.9v-4.1l4.4-.5v4.6h4.4l-.5 3.2h-3.8v9.7c0 1.8.6 2.6 2 2.6.8 0 1.5-.3 2.2-.7l1.6 2.9zm152.1-47h-8.1l-1.5 5.6h-4.8l7.6-24.4h5.9l7.5 24.4h-4.9l-1.7-5.6zm-1-3.6L305.4 9l-3.1 11.7h6.2zm9.7 4.9V3.7l4.5-.5v22.2c0 .9.3 1.3 1.1 1.3.3 0 .7-.1 1-.2l1 3.2c-1 .4-2 .6-3 .6-2.4.2-4.4-1.6-4.6-3.9v-.8zM334 4.4c-.2 1.6-1.6 2.7-3.2 2.5-1.3-.2-2.3-1.2-2.5-2.5.1-1.6 1.5-2.7 3.1-2.6 1.4.2 2.5 1.3 2.6 2.6zm-.6 25.4h-4.5V11.2h4.5v18.6zM355 12.2c-1.8.5-3.6.7-5.4.6 2.1.7 3.5 2.7 3.4 4.8 0 3.6-2.8 6.3-7.5 6.3-.7 0-1.5-.1-2.2-.3-.5.3-.8.8-.8 1.4 0 .7.4 1.3 2.2 1.3h2.9c4.1 0 6.8 2.2 6.8 5.3 0 3.7-3.2 6-9.3 6-6.6 0-8.5-2.2-8.5-5.9h4.1c0 1.9.8 2.7 4.4 2.7s4.7-1 4.7-2.5-1.1-2.2-3.2-2.2h-2.8c-3.7 0-5.3-1.7-5.3-3.6.1-1.5.9-2.8 2.2-3.5-2.1-.9-3.4-3-3.3-5.3 0-4.1 3.2-6.6 7.7-6.6 3.1.2 6.2-.5 8.8-2.1l1.1 3.6zm-13 5.1c-.2 1.8 1 3.4 2.8 3.7h.5c2.2 0 3.3-1.3 3.3-3.7s-1.1-3.5-3.4-3.5c-1.8-.1-3.2 1.3-3.3 3.1.1.1.1.2.1.4zm30.9-1v13.5h-4.5V17c0-2.3-.9-3-2.2-3-1.7.2-3.2 1.2-3.9 2.8v13h-4.4V11.2h3.9l.4 2.4c1.3-1.9 3.4-3 5.7-3 2.8-.1 5.1 2.1 5.1 4.9-.1.3-.1.6-.1.8zm30.5-8.8l-2.4 2.7c-1.2-1.1-2.8-1.7-4.4-1.7-3.4 0-6 2.5-6 9.1s2.5 9 6 9c1.8-.1 3.6-.7 5-2l2.2 2.7c-2 1.9-4.6 3-7.3 3-6.3 0-10.7-4.4-10.7-12.8s4.7-12.6 10.7-12.6c2.5 0 5 .9 6.9 2.6zm18 14.4h-11.7c.4 3.8 2.2 5 4.6 5 1.7 0 3.3-.6 4.6-1.7l1.9 2.6c-1.9 1.6-4.4 2.5-6.9 2.5-5.8 0-8.8-3.9-8.8-9.7s3-10 8.3-10c5.3 0 8.2 3.5 8.2 9.4-.1.7-.2 1.4-.2 1.9zm-4.4-3.1c0-3.1-1.1-4.9-3.6-4.9-2.2 0-3.5 1.4-3.7 5.1h7.3v-.2zm23.7-2.5v13.5h-4.4V17c0-2.3-.9-3-2.2-3-1.7.2-3.2 1.2-3.9 2.8v13h-4.5V11.2h3.9l.1 2.4c1.3-1.9 3.4-3 5.7-3 2.8-.2 5.2 1.9 5.4 4.7 0 .3 0 .7-.1 1zM456.5 29c-1.4.9-3 1.4-4.7 1.4-3.7 0-5.6-2.2-5.6-6.1v-9.9h-2.9v-3.2h2.9V7.1l4.4-.5v4.6h4.4l-.5 3.2h-3.9v9.9c0 1.8.6 2.6 2 2.6.8 0 1.5-.2 2.2-.7l1.7 2.8zm17.2-7.1H462c.4 3.8 2.2 5 4.6 5 1.7 0 3.3-.6 4.6-1.7l1.9 2.6c-1.9 1.6-4.4 2.5-6.9 2.5-5.8 0-8.8-3.9-8.8-9.7s3-10 8.3-10 8.2 3.5 8.2 9.4c-.1.7-.1 1.4-.2 1.9zm-4.3-3.1c0-3.1-1.1-4.9-3.6-4.9-2.2 0-3.5 1.4-3.7 5.1h7.3v-.2zm19.4-7.8l-.8 4.4c-.5-.1-1.1-.2-1.7-.2-2.2 0-3.4 1.7-4.1 4.8v10h-4.5V11.2h3.9l.4 3.7c.5-2.4 2.5-4.1 4.9-4.2.7 0 1.4.1 1.9.3zm115.9 13.3h-8.1l-1.5 5.6h-4.8l7.6-24.4h5.8l7.5 24.4h-4.9l-1.6-5.6zm-.9-3.6L600.7 9l-3.1 11.7h6.2zm9.7 4.9V3.7l4.5-.5v22.2c0 .9.3 1.3 1.1 1.3.3 0 .7-.1 1-.2l1 3.2c-1 .4-2 .6-3 .6-2.4.2-4.4-1.6-4.6-4v-.7zm15.8-21.2C629 6 627.5 7 626 6.7c-1.2-.2-2.1-1.1-2.3-2.3.1-1.6 1.5-2.7 3.1-2.6 1.3.2 2.4 1.3 2.5 2.6zm-.6 25.4h-4.5V11.2h4.5v18.6zm21.6-17.6c-1.8.5-3.6.7-5.4.6 2.1.7 3.5 2.7 3.4 4.8 0 3.6-2.8 6.3-7.5 6.3-.7 0-1.5-.1-2.2-.3-.5.3-.8.8-.8 1.4 0 .7.4 1.3 2.2 1.3h2.9c4.1 0 6.8 2.2 6.8 5.3 0 3.7-3.2 6-9.3 6-6.6 0-8.5-2.2-8.5-5.9h4.1c0 1.9.8 2.7 4.4 2.7 3.6 0 4.7-1 4.7-2.5s-1.1-2.2-3.2-2.2h-2.8c-3.7 0-5.3-1.7-5.3-3.6.1-1.5.9-2.8 2.2-3.5-2.1-.9-3.4-3-3.3-5.3 0-4.1 3.2-6.6 7.7-6.6 3.1.2 6.2-.5 8.8-2.1l1.1 3.6zm-13 5.1c-.2 1.8 1 3.4 2.8 3.7h.5c2.2 0 3.3-1.3 3.3-3.7s-1.1-3.5-3.4-3.5c-1.8-.1-3.2 1.3-3.3 3.1 0 0 0 .2.1.4zm30.9-1v13.5h-4.5V17c0-2.3-.9-3-2.2-3-1.7.2-3.2 1.2-3.9 2.8v13H653V11.2h3.9l.4 2.4c1.3-1.9 3.4-3 5.7-3 2.8-.1 5.1 2 5.2 4.8v.9zm21.7 3.8h-3v9.8h-4.6V5.5h7.3c6.4 0 9.7 2.2 9.7 7.2.1 3.1-1.9 5.8-4.9 6.6l6.4 10.6h-5.4l-5.5-9.8zm-3-3.4h2.9c2.9 0 4.4-1.1 4.4-4.1s-1.4-3.8-4.8-3.8h-2.5v7.9zm21.8-12.3c-.1 1.6-1.5 2.7-3.1 2.6-1.4-.1-2.5-1.2-2.6-2.6.1-1.6 1.5-2.7 3.1-2.6 1.3.2 2.4 1.3 2.6 2.6zm-.6 25.4h-4.5V11.2h4.5v18.6zm21.6-17.6c-1.8.5-3.6.7-5.4.6 2.1.7 3.5 2.7 3.4 4.8 0 3.6-2.8 6.3-7.5 6.3-.7 0-1.5-.1-2.2-.3-.5.3-.8.8-.8 1.4 0 .7.4 1.3 2.2 1.3h2.9c4.1 0 6.8 2.2 6.8 5.3 0 3.7-3.2 6-9.3 6-6.6 0-8.5-2.2-8.5-5.9h4.1c0 1.9.8 2.7 4.4 2.7s4.7-1 4.7-2.5-1.1-2.2-3.2-2.2h-2.8c-3.7 0-5.3-1.7-5.3-3.6.1-1.5.9-2.8 2.2-3.5-2.1-.9-3.4-3-3.3-5.3 0-4.1 3.2-6.6 7.7-6.6 3.1.2 6.2-.5 8.8-2.1l1.1 3.6zm-13 5.1c-.2 1.8 1 3.4 2.8 3.7h.5c2.2 0 3.3-1.3 3.3-3.7s-1.1-3.5-3.4-3.5c-1.8-.1-3.2 1.3-3.3 3.1 0 .1.1.2.1.4zm30.9-1v13.5h-4.4V17c0-2.3-.9-3-2.2-3-1.7.2-3.2 1.2-3.9 2.8v13h-4.5V3.7l4.5-.4v10.1c1.3-1.7 3.3-2.8 5.4-2.8 2.8 0 5.1 2.2 5.1 5v.7zM763.4 29c-1.4.9-3 1.4-4.7 1.4-3.7 0-5.6-2.2-5.6-6.1v-9.9h-2.9v-3.2h2.9V7.1l4.4-.5v4.6h4.4l-.5 3.2h-3.9v9.9c0 1.8.6 2.6 2 2.6.8 0 1.5-.3 2.2-.7l1.7 2.8zM601 62.4h-3v9.8h-4.7V47.8h7.3c6.4 0 9.7 2.2 9.7 7.2.1 3.1-1.9 5.8-4.9 6.6l6.4 10.6h-5.4l-5.4-9.8zm-3-3.4h2.9c2.9 0 4.5-1.1 4.5-4.1 0-2.9-1.5-3.8-4.9-3.8H598V59zm31.6 10.6l-.9 3c-1.8.1-3.5-1-4.1-2.7-1.2 1.9-3.4 3-5.6 2.9-3 .3-5.7-2-6-5v-.7c0-4.1 3-6.2 8.5-6.2h2.4v-1.1c0-2.4-1.1-3.3-3.5-3.3-1.7.1-3.4.4-5 1l-1-3.1c2.1-.9 4.4-1.4 6.7-1.5 5 0 7.2 2.2 7.2 6.4v7.8c-.1 1.6.4 2.2 1.3 2.5zm-5.8-2.5v-3.8h-1.9c-2.9 0-4.4 1.1-4.4 3.2-.2 1.3.7 2.6 2.1 2.8h.6c1.5.1 2.9-.8 3.6-2.2zm26-12.6c-1.8.5-3.6.7-5.4.6 2.1.6 3.5 2.6 3.5 4.8 0 3.6-2.8 6.3-7.5 6.3-.7 0-1.5-.1-2.2-.3-.5.3-.8.8-.8 1.4 0 .7.4 1.3 2.2 1.3h2.9c4.1 0 6.8 2.2 6.8 5.3 0 3.7-3.2 6-9.3 6-6.6 0-8.5-2.2-8.5-5.9h4.1c0 1.9.8 2.7 4.5 2.7s4.7-1 4.7-2.5-1.1-2.2-3.2-2.2h-2.8c-3.7 0-5.3-1.7-5.3-3.6.1-1.5.9-2.8 2.2-3.5-2.1-.9-3.4-3-3.3-5.3 0-4.1 3.2-6.6 7.7-6.6 3 .2 6.1-.5 8.7-2.1l1 3.6zm-12.9 5c-.2 1.8 1 3.4 2.8 3.7h.5c2.2 0 3.3-1.3 3.3-3.7s-1.1-3.5-3.4-3.5c-1.8-.1-3.2 1.3-3.3 3.1.1.1.1.3.1.4zm29.2 8.8h9.8l-.5 3.8h-13.9V47.8h4.6v20.5zm27.4-4.1h-11.7c.4 3.8 2.2 5 4.6 5 1.7 0 3.3-.6 4.7-1.7l1.9 2.6c-1.9 1.6-4.4 2.6-6.9 2.6-5.8 0-8.8-3.9-8.8-9.7s2.9-10.1 8.2-10.1 8.2 3.5 8.2 9.4c-.1.7-.2 1.4-.2 1.9zm-4.4-3.1c0-3.1-1.1-4.9-3.6-4.9-2.2 0-3.5 1.4-3.7 5.1h7.3v-.2zm13.6-9.6v2h3.5l-.5 3.2h-3v15.4h-4.5V56.7h-3v-3.2h3v-2c0-3.4 2.2-5.9 6.6-5.9 1 0 2.1.2 3 .4l-.9 3.2c-.6-.2-1.1-.2-1.7-.2-1.8-.1-2.5.7-2.5 2.5zm17.9 19.8c-1.4.9-3 1.4-4.7 1.4-3.7 0-5.6-2.2-5.6-6.1v-9.9h-2.9v-3.2h2.9v-4.1l4.5-.5v4.6h4.4l-.5 3.2h-3.9v9.7c0 1.8.6 2.6 2 2.6.8 0 1.5-.3 2.2-.7l1.6 3zM7.7 444.8h9.8l-.5 3.8H3v-24.4h4.6v20.6zm27.4-4H23.3c.4 3.8 2.2 5 4.6 5 1.7 0 3.3-.6 4.7-1.7l1.9 2.6c-1.9 1.6-4.4 2.5-6.9 2.5-5.8 0-8.8-3.8-8.8-9.7s3-10 8.3-10 8.2 3.5 8.2 9.4c0 .5-.2 1.3-.2 1.9zm-4.4-3.2c0-3.1-1.1-4.9-3.6-4.9-2.2 0-3.4 1.4-3.7 5.1h7.3v-.2zm13.6-9.6v2h3.5l-.5 3.2h-3v15.4h-4.6v-15.4h-3V430h3v-2c0-3.4 2.2-5.9 6.6-5.9 1 0 2 .1 3 .4l-.8 3.2c-.6-.2-1.1-.2-1.7-.2-1.9-.2-2.5.7-2.5 2.5zm17.8 19.7c-1.4 1-3 1.4-4.7 1.4-3.7 0-5.6-2.2-5.6-6.1v-9.8h-2.9V430h2.9v-4.1l4.5-.5v4.7h4.4l-.5 3.2h-3.9v9.8c0 1.8.6 2.6 2 2.6.8 0 1.5-.3 2.2-.7l1.6 2.7zm.3-11.9H73v3.6H62.4v-3.6zm20.3 9.2c0 5.7-3.2 7.7-7.2 9l-1.2-3.3c3.2-1.2 3.7-2.8 3.7-5.8v-20.6h4.7V445zm20.2 3.6H99l-.2-2.6c-1.2 2-3.4 3.2-5.7 3.1-3.4 0-5.2-2.2-5.2-5.8v-13.4h4.5v12.8c0 2.2.7 2.9 2.2 2.9 1.7-.1 3.1-1.1 3.8-2.6v-13.1h4.5v18.7zm17.9-17l-1.8 2.6c-1.4-.9-3-1.5-4.7-1.5-1.8 0-2.8.7-2.8 1.9s.7 1.8 3.9 2.7c3.8 1 6 2.6 6 5.9 0 3.9-3.6 5.9-7.9 5.9-2.7.1-5.4-.9-7.4-2.6l2.2-2.5c1.4 1.2 3.2 1.8 5.1 1.8 2 0 3.3-.8 3.3-2.2 0-1.4-.7-2-4.2-3-3.9-1.1-5.6-2.9-5.6-5.6 0-3.1 2.9-5.4 7.2-5.4 2.4-.2 4.8.6 6.7 2zm14.9 16.1c-1.4.9-3 1.4-4.7 1.4-3.7 0-5.6-2.2-5.6-6.1v-9.8h-2.9V430h2.9v-4.1l4.6-.5v4.7h4.4l-.4 3.2h-4v9.7c0 1.8.6 2.6 2 2.6.8 0 1.5-.3 2.2-.7l1.5 2.8zm7.5-24.6c.1 1.6-1.2 2.9-2.7 3-1.6.1-2.9-1.2-3-2.7-.1-1.6 1.2-2.9 2.7-3h.1c1.5-.1 2.8 1.1 2.8 2.6.1 0 .1.1.1.1zm-.5 25.4h-4.4v-18.6h4.4v18.6zm10.4-20.5v2h4.4l-.5 3.2h-3.9v15.4h-4.4v-15.4h-3.2V430h3v-2c0-3.4 2.2-5.9 6.6-5.9 1.7 0 3.3.4 4.8 1.1l-1.3 3c-1-.5-2-.7-3.1-.7-1.8-.2-2.4.7-2.4 2.5z"/><path d="M169.3 448.7c-1.1 4.5-5.1 7.6-9.7 7.6l-.5-3.3c2.7 0 5.2-1.8 6-4.4h-1.5l-5.9-18.6h4.8l4.1 15.6 4.2-15.6h4.6l-6.1 18.7zm145.2-22.4l-2.4 2.8c-1.2-1.1-2.8-1.7-4.4-1.7-3.4 0-6 2.5-6 9.1s2.5 9 6 9c1.8-.1 3.6-.8 5-2l2.2 2.8c-1.9 1.9-4.6 3-7.3 3-6.3 0-10.7-4.4-10.7-12.8s4.6-12.7 10.6-12.7c2.6-.2 5.1.8 7 2.5zm18 14.5h-11.7c.4 3.8 2.2 5 4.6 5 1.7 0 3.3-.6 4.7-1.7l1.9 2.6c-1.9 1.6-4.4 2.5-6.9 2.5-5.8 0-8.8-3.8-8.8-9.7s3-10 8.3-10c5.3 0 8.2 3.5 8.2 9.4-.2.5-.3 1.3-.3 1.9zm-4.4-3.2c0-3.1-1.1-4.9-3.6-4.9-2.2 0-3.5 1.4-3.7 5.1h7.3v-.2zm23.7-2.5v13.5h-4.5v-12.8c0-2.3-.9-3-2.2-3s-2.8 1.1-3.9 2.8v13h-4.5V430h3.9l.4 2.4c1.3-1.9 3.4-3 5.7-3 2.8-.1 5.1 2 5.3 4.8-.1.3-.1.6-.2.9zm15.8 12.6c-1.4.9-3 1.4-4.7 1.4-3.7 0-5.6-2.2-5.6-6.1v-9.8h-2.9V430h2.9v-4.1l4.4-.5v4.7h4.4l-.5 3.2h-3.8v9.8c0 1.8.6 2.6 2 2.6.8 0 1.5-.3 2.2-.7l1.6 2.7zm17.2-6.9h-11.7c.4 3.8 2.2 5 4.6 5 1.7 0 3.3-.6 4.7-1.7l1.9 2.6c-1.9 1.6-4.4 2.5-6.9 2.5-5.8 0-8.8-3.8-8.8-9.7s3-10 8.3-10 8.2 3.5 8.2 9.4c-.2.5-.3 1.3-.3 1.9zm-4.4-3.2c0-3.1-1.1-4.9-3.6-4.9-2.2 0-3.5 1.4-3.7 5.1h7.3v-.2zm19.5-7.8l-.8 4.4c-.5-.2-1.1-.2-1.7-.2-2.2 0-3.4 1.7-4.1 4.8v9.9H389V430h3.9l.4 3.7c.5-2.3 2.5-4.1 4.9-4.2.6 0 1.2.1 1.7.3zm.9 6h10.7v3.6h-10.7v-3.6zm20.4 9.2c0 5.7-3.2 7.7-7.2 9l-1.2-3.3c3.2-1.2 3.7-2.8 3.7-5.8v-20.6h4.7V445zm20.2 3.6h-3.9l-.2-2.6c-1.2 2-3.4 3.2-5.7 3.1-3.4 0-5.2-2.2-5.2-5.8v-13.4h4.5v12.8c0 2.2.7 2.9 2.2 2.9 1.7-.1 3.1-1.1 3.8-2.6v-13.1h4.4l.1 18.7zm17.9-17l-1.8 2.6c-1.4-.9-3-1.5-4.7-1.5-1.8 0-2.8.7-2.8 1.9 0 1.1.7 1.8 3.9 2.7 3.8 1 6 2.6 6 5.9 0 3.9-3.6 5.9-7.9 5.9-2.7.1-5.4-.9-7.4-2.6l2.2-2.5c1.4 1.2 3.2 1.8 5.1 1.8 2 0 3.3-.8 3.3-2.2s-.7-2-4.2-3c-3.9-1.1-5.6-2.9-5.6-5.6 0-3.1 2.9-5.4 7.2-5.4 2.4-.2 4.7.6 6.7 2zm14.8 16.1c-1.4.9-3 1.4-4.7 1.4-3.7 0-5.6-2.2-5.6-6.1v-9.8h-2.9V430h2.9v-4.1l4.5-.5v4.7h4.4l-.5 3.2h-3.9v9.8c0 1.8.6 2.6 2 2.6.8 0 1.5-.3 2.2-.7l1.6 2.7zm7.6-24.6c-.1 1.6-1.5 2.7-3.1 2.6-1.4-.1-2.5-1.2-2.6-2.6.1-1.6 1.5-2.7 3.1-2.6 1.4.2 2.4 1.3 2.6 2.6zm-.6 25.4h-4.4v-18.6h4.4v18.6zm10.3-20.5v2h4.4l-.5 3.2h-3.9v15.4H487v-15.4h-3V430h3v-2c0-3.4 2.2-5.9 6.6-5.9 1.7 0 3.3.4 4.8 1.1l-1.3 3c-1-.5-2-.7-3.1-.7-1.8-.2-2.6.7-2.6 2.5z"/><path d="M507.7 448.7c-1.1 4.4-5.1 7.5-9.7 7.5l-.5-3.3c2.7 0 5.2-1.8 6-4.4H502l-5.9-18.6h4.8l4.1 15.6 4.2-15.6h4.6l-6.1 18.8zm93.3-9.9h-3v9.8h-4.7v-24.4h7.3c6.4 0 9.7 2.3 9.7 7.2.1 3.1-1.9 5.8-4.9 6.6l6.4 10.6h-5.4l-5.4-9.8zm-3-3.3h2.9c2.9 0 4.5-1.2 4.5-4.1s-1.6-3.8-4.9-3.8H598v7.9zm21.8-12.4c.1 1.6-1.2 2.9-2.7 3-1.6.1-2.9-1.2-3-2.7-.1-1.6 1.2-2.9 2.7-3h.1c1.5-.1 2.8 1.1 2.9 2.6v.1zm-.6 25.5h-4.5V430h4.5v18.6zm21.6-17.7c-1.8.5-3.6.7-5.4.6 2.1.7 3.4 2.6 3.4 4.8 0 3.6-2.8 6.3-7.5 6.3-.7 0-1.5-.1-2.2-.3-.5.3-.8.8-.8 1.4 0 .7.4 1.3 2.2 1.3h2.9c4.1 0 6.8 2.2 6.8 5.3 0 3.7-3.2 6-9.3 6-6.6 0-8.5-2.2-8.5-5.8h4.1c0 1.9.8 2.7 4.5 2.7s4.7-1 4.7-2.5-1.1-2.2-3.2-2.2h-2.8c-3.7 0-5.3-1.7-5.3-3.6.1-1.5.9-2.8 2.2-3.5-2.1-.9-3.4-3-3.3-5.2 0-4.1 3.2-6.6 7.7-6.6 3 .2 6.1-.5 8.7-2.1l1.1 3.4zm-13 5.1c-.2 1.8 1 3.4 2.8 3.7h.5c2.2 0 3.3-1.3 3.3-3.7 0-2.4-1.1-3.5-3.4-3.5-1.7-.1-3.2 1.3-3.3 3 0 .2.1.4.1.5zm30.9-.9v13.5h-4.5v-12.8c0-2.3-.9-3-2.2-3-1.7.2-3.2 1.2-3.9 2.8v13h-4.4v-26.1l4.4-.5v10.1c1.3-1.7 3.3-2.7 5.4-2.7 2.8-.1 5.1 2.1 5.2 4.9v.8zm15.8 12.6c-1.4.9-3 1.4-4.7 1.4-3.7 0-5.6-2.2-5.6-6.1v-9.8h-2.9V430h2.9v-4.1l4.5-.5v4.7h4.4l-.4 3.2h-3.9v9.8c0 1.8.6 2.6 2 2.6.8 0 1.5-.3 2.2-.7l1.5 2.7zm.2-11.9h10.6v3.6h-10.7l.1-3.6zm20.4 9.2c0 5.7-3.1 7.7-7.2 9l-1.2-3.3c3.2-1.2 3.7-2.8 3.7-5.8v-20.6h4.7V445zm20.2 3.6h-3.9l-.2-2.6c-1.2 2-3.4 3.2-5.7 3.1-3.4 0-5.2-2.2-5.2-5.8v-13.4h4.5v12.8c0 2.2.7 2.9 2.2 2.9 1.7-.1 3.1-1.1 3.8-2.6v-13.1h4.4l.1 18.7zm17.9-17l-1.8 2.6c-1.4-.9-3-1.5-4.7-1.5-1.8 0-2.8.7-2.8 1.9 0 1.1.7 1.8 3.9 2.7 3.8 1 6 2.6 6 5.9 0 3.9-3.6 5.9-7.9 5.9-2.7.1-5.4-.9-7.4-2.6l2.2-2.5c1.4 1.2 3.2 1.8 5.1 1.8 2 0 3.3-.8 3.3-2.2s-.7-2-4.2-3c-3.9-1.1-5.6-2.9-5.6-5.6 0-3.1 2.9-5.4 7.2-5.4 2.4-.2 4.8.6 6.7 2zm14.9 16.1c-1.4.9-3 1.4-4.7 1.4-3.7 0-5.6-2.2-5.6-6.1v-9.8h-2.9V430h2.9v-4.1l4.5-.5v4.7h4.4l-.5 3.2h-3.9v9.8c0 1.8.6 2.6 2 2.6.8 0 1.5-.3 2.2-.7l1.6 2.7zm7.5-24.6c.1 1.6-1.2 2.9-2.7 3-1.6.1-2.9-1.2-3-2.7s1.2-2.9 2.7-3h.1c1.5-.1 2.8 1.1 2.9 2.6v.1zm-.6 25.4h-4.4v-18.6h4.4v18.6zm10.4-20.5v2h4.4l-.5 3.2h-4v15.4h-4.4v-15.4h-3V430h3v-2c0-3.4 2.2-5.9 6.6-5.9 1.7 0 3.3.4 4.8 1.1l-1.3 3c-1-.5-2-.7-3.1-.7-1.8-.2-2.5.7-2.5 2.5z"/><path d="M781.6 448.7c-1.1 4.5-5.1 7.6-9.7 7.6l-.4-3.3c2.7 0 5.2-1.8 6-4.4H776l-5.9-18.6h4.8l4.1 15.6 4.3-15.6h4.6l-6.3 18.7z"/></g></g></svg>