<svg xmlns="http://www.w3.org/2000/svg" id="Layer_1" viewBox="0 0 800 654.1" width="800" height="654.1"><style>.st0{fill:#787878}.st1{fill:#2997ff}</style><g id="a5aa1b63-5bd2-4389-81ed-966d048faa97"><g id="b1839b9b-9fd0-4519-ba49-b37fc5dce2e2"><path d="M800 653.8H689.7v-6.6H800v6.6zm-347.5 0H331.2v-6.6h121.3v6.6zM800 622.1H606.1v-6.6H800v6.6zm-310.1 0H296v-6.6h193.9v6.6zM800 590.4H606.1v-6.6H800v6.6zm-310.1 0H296v-6.6h193.9v6.6zM800 558.7H606.1v-6.6H800v6.6zm-310.1 0H296v-6.6h193.9v6.6zM800 527H606.1v-6.6H800v6.6zm-310.1 0H296v-6.6h193.9v6.6zM800 495.3H606.1v-6.6H800v6.6zm-310.1 0H296v-6.6h193.9v6.6zm294.7-217.2H590.7v-6.6h193.9v6.6zm-294.7 0H296v-6.6h193.9v6.6zm-294.7 0H1.3v-6.6h193.9v6.6zm589.4-31.7H621.5v-6.6h163.1v6.6zm-323.3 0H322.4v-6.6h138.9v6.6zm-299.1 0H1.3v-6.6h160.9v6.6zm622.4-31.7H590.7v-6.6h193.9v6.6zm-294.7 0H296v-6.6h193.9v6.6zm-294.7 0H1.3v-6.6h193.9v6.6zM784.6 183H621.5v-6.6h163.1v6.6zm-323.3 0H322.4v-6.6h138.9v6.6zm-299.1 0H1.3v-6.6h160.9v6.6zm622.4-31.7H590.7v-6.6h193.9v6.6zm-294.7 0H296v-6.6h193.9v6.6zm-294.7 0H1.3v-6.6h193.9v6.6zm589.4-31.7H621.5V113h163.1v6.6zm-323.3 0H322.4V113h138.9v6.6zm-299.1 0H1.3V113h160.9v6.6z" class="st0"/><path d="M15.6 23H7.5L6 28.7H1.1L8.6 4.3h5.7l7.5 24.4H17c-.1 0-1.4-5.7-1.4-5.7zm-1.1-3.5L11.4 7.8l-3 11.7h6.1zm9.7 4.8V2.5l4.6-.4v22.2c0 .9.2 1.3 1.1 1.3.4 0 .7 0 1.1-.2l1.1 3.1c-.9.4-2 .7-3.1.7-2.4.2-4.4-1.5-4.6-3.7-.2-.5-.2-.7-.2-1.2zM40.1 3.2c0 1.5-1.3 2.9-2.9 2.9s-2.9-1.3-2.9-2.9S35.6.3 37.2.3c1.5 0 2.9 1.4 2.9 2.9zm-.7 25.3h-4.6V10h4.6v18.5zM61 10.9c-1.8.7-3.5.9-5.3.7 2 .7 3.5 2.6 3.3 4.8 0 3.5-2.9 6.2-7.5 6.2-.7 0-1.5 0-2.2-.2-.4.2-.7.9-.9 1.3 0 .7.4 1.3 2.2 1.3h2.9c4.2 0 6.8 2.2 6.8 5.3 0 3.7-3.3 5.9-9.2 5.9-6.6 0-8.6-2.2-8.6-5.9h4c0 2 .9 2.6 4.4 2.6s4.6-1.1 4.6-2.4-1.1-2.2-3.1-2.2h-2.6c-3.7 0-5.3-1.8-5.3-3.5 0-1.5.9-2.9 2.2-3.5-2-.9-3.3-3.1-3.3-5.3 0-4 3.3-6.6 7.7-6.6 3.1.2 6.2-.4 8.8-2l1.1 3.5zm-13 5.3c-.2 1.8 1.1 3.3 2.9 3.7h.4c2.2 0 3.3-1.3 3.3-3.7s-1.1-3.5-3.3-3.5c-1.8 0-3.3 1.3-3.3 3.1v.4zm30.8-1.1v13.4h-4.4V15.7c0-2.4-.9-3.1-2.2-3.1-1.8.2-3.3 1.3-4 2.9v13h-4.6V10h4l.4 2.4c1.3-1.8 3.3-2.9 5.7-2.9 2.9-.2 5.1 2 5.3 4.6-.2.3-.2.8-.2 1zm18.7 9.7h9.7l-.4 4H92.9V4.3h4.6v20.5zm27.3-4h-11.7c.4 3.7 2.2 5.1 4.6 5.1 1.8 0 3.3-.7 4.6-1.8l2 2.6c-2 1.5-4.4 2.4-6.8 2.4-5.7 0-8.8-4-8.8-9.7s3.1-9.9 8.4-9.9 8.1 3.5 8.1 9.5c-.2.5-.2 1.1-.4 1.8zm-4.4-3.3c0-3.1-1.1-4.8-3.7-4.8-2.2 0-3.5 1.3-3.7 5.1-.1-.1 7.4-.3 7.4-.3zM134 8v2h3.5l-.4 3.3h-2.9v15.4h-4.4V13.3h-3.3V10h3.1V8c0-3.3 2.2-5.9 6.6-5.9 1.1 0 2 .2 3.1.4l-.9 3.3c-.7-.2-1.1-.2-1.8-.2-1.9-.2-2.6.7-2.6 2.4zm17.9 19.9c-1.3.9-3.1 1.3-4.6 1.3-3.7 0-5.5-2.2-5.5-6.2v-9.7h-2.9V10h2.9V5.8l4.4-.4V10h4.4l-.4 3.3h-4v9.9c0 1.8.7 2.6 2 2.6.9 0 1.5-.2 2.2-.7-.1.1 1.5 2.8 1.5 2.8zM11.7 61.1H8.8V71H4.2V46.6h7.3c6.4 0 9.7 2.2 9.7 7 0 3.1-2 5.7-4.8 6.6l6 10.8h-5.3l-5.4-9.9zm-2.9-3.3h2.9c2.9 0 4.6-1.1 4.6-4.2s-1.5-3.7-4.8-3.7H8.8v7.9zm31.5 10.5l-.9 3.1c-1.8 0-3.5-1.1-4.2-2.6-1.1 1.8-3.3 2.9-5.5 2.6-3.1.2-5.7-2-5.9-5.1v-.7c0-4 3.1-6.2 8.4-6.2h2.4v-1.1c0-2.4-1.1-3.3-3.5-3.3-1.8 0-3.3.4-5.1 1.1L24.9 53c2.2-.9 4.4-1.3 6.6-1.5 5.1 0 7.3 2.2 7.3 6.4v7.9c.2 1.7.6 2.3 1.5 2.5zm-5.7-2.4v-3.7h-2c-2.9 0-4.4 1.1-4.4 3.3-.2 1.3.7 2.6 2 2.9h.7c1.5-.3 3-1.2 3.7-2.5zm25.9-12.7c-1.8.4-3.5.7-5.5.7 2 .7 3.5 2.6 3.3 4.8 0 3.5-2.9 6.4-7.5 6.4-.7 0-1.5 0-2.2-.2-.4.2-.9.9-.9 1.3 0 .7.4 1.3 2.2 1.3h2.9c4.2 0 6.8 2.2 6.8 5.3 0 3.7-3.3 5.9-9.2 5.9-6.6 0-8.6-2.2-8.6-5.9h4c0 1.8.9 2.6 4.4 2.6 3.5 0 4.6-1.1 4.6-2.4 0-1.3-1.1-2.2-3.1-2.2h-2.6c-3.7 0-5.3-1.8-5.3-3.5 0-1.5.9-2.9 2.2-3.5-2.2-.9-3.5-3.1-3.3-5.3 0-4 3.3-6.6 7.7-6.6 3.1.2 6.2-.4 8.8-2l1.3 3.3zm-13 5c-.2 1.8 1.1 3.3 2.9 3.7h.4c2.2 0 3.3-1.3 3.3-3.7 0-2.4-1.1-3.5-3.3-3.5-1.8 0-3.3 1.3-3.3 3.1v.4zm14.6-.2h10.6v3.5H62.1V58zM85 61.1h-2.9V71h-4.6V46.6h7.3c6.4 0 9.7 2.2 9.7 7 0 3.1-2 5.7-4.8 6.6l6.6 10.6h-5.5c-.1 0-5.8-9.7-5.8-9.7zm-3.1-3.3h2.9c2.9 0 4.4-1.1 4.4-4.2s-1.5-3.7-4.8-3.7H82v7.9zm21.8-12.3c0 1.5-1.1 2.9-2.6 3.1-1.5 0-2.9-1.1-3.1-2.6 0-1.5 1.1-2.9 2.6-3.1h.2c1.5-.1 2.6 1 2.9 2.6zM103 71h-4.4V52.3h4.4V71zm21.6-17.8c-1.8.4-3.5.7-5.5.7 2 .7 3.5 2.6 3.3 4.8 0 3.5-2.9 6.4-7.5 6.4-.7 0-1.5 0-2.2-.2-.4.2-.7.9-.7 1.3 0 .7.4 1.3 2.2 1.3h2.9c4.2 0 6.8 2.2 6.8 5.3 0 3.7-3.3 5.9-9.2 5.9-6.6 0-8.4-2.2-8.4-5.9h4c0 1.8.9 2.6 4.4 2.6s4.6-1.1 4.6-2.4c0-1.3-1.1-2.2-3.1-2.2h-2.9c-3.7 0-5.3-1.8-5.3-3.5 0-1.5.9-2.9 2.2-3.5-2-.9-3.3-3.1-3.3-5.3 0-4 3.3-6.6 7.7-6.6 3.1.2 6.2-.4 8.8-2 .1 0 1.2 3.3 1.2 3.3zm-13 5c-.2 1.8 1.1 3.3 2.9 3.7h.4c2.2 0 3.3-1.3 3.3-3.7 0-2.4-1.1-3.5-3.3-3.5-1.8 0-3.3 1.3-3.3 3.1v.4zm30.8-.9V71H138V58.2c0-2.4-.9-3.1-2.2-3.1-1.8.2-3.1 1.3-4 2.9v13h-4.6V44.8l4.4-.4v10.1c1.3-1.8 3.3-2.9 5.5-2.9 2.9-.2 5.3 2 5.3 4.8.2.3.2.7 0 .9zm15.8 12.8c-1.3.9-3.1 1.5-4.6 1.5-3.7 0-5.7-2.2-5.7-6.2v-9.9H145v-3.3h2.9V48l4.4-.4v4.6h4.4l-.4 3.3h-3.7v9.7c0 1.8.7 2.6 2 2.6.9 0 1.5-.2 2.2-.7-.1.1 1.4 3 1.4 3zM310.1 23H302l-1.5 5.7h-4.8l7.5-24.4h5.9l7.5 24.4h-4.8l-1.7-5.7zm-.9-3.5l-3.1-11.7-3.1 11.7h6.2zm9.7 4.8V2.5l4.6-.4v22.2c0 .9.2 1.3 1.1 1.3.4 0 .7 0 1.1-.2l.9 3.1c-.9.4-2 .7-3.1.7-2.4.2-4.4-1.5-4.6-4v-.9zm15.8-21.1c-.2 1.5-1.5 2.6-3.1 2.4-1.3-.2-2.2-1.1-2.4-2.4.2-1.5 1.5-2.6 3.1-2.6 1.1.2 2.2 1.3 2.4 2.6zm-.6 25.3h-4.6V10h4.6v18.5zm21.6-17.6c-1.8.4-3.5.7-5.3.7 2 .7 3.5 2.6 3.3 4.8 0 3.5-2.9 6.2-7.5 6.2-.7 0-1.5 0-2.2-.2-.4.2-.7.9-.9 1.3 0 .7.4 1.3 2.2 1.3h2.9c4.2 0 6.8 2.2 6.8 5.3 0 3.7-3.3 5.9-9.2 5.9-6.6 0-8.6-2.2-8.6-5.9h4c0 2 .9 2.6 4.4 2.6s4.6-1.1 4.6-2.4-1.1-2.2-3.1-2.2h-2.6c-3.7 0-5.3-1.8-5.3-3.5 0-1.5.9-2.9 2.2-3.5-2-.9-3.3-3.1-3.3-5.3 0-4 3.3-6.6 7.7-6.6 3.1.2 6.2-.4 8.8-2l1.1 3.5zm-13 5.3c-.2 1.8 1.1 3.3 2.9 3.7h.4c2.2 0 3.3-1.3 3.3-3.7s-1.1-3.5-3.3-3.5c-1.8 0-3.3 1.3-3.3 3.1v.4zm30.8-1.1v13.4h-4.6V15.7c0-2.4-.9-3.1-2.2-3.1-1.8.2-3.3 1.3-4 2.9v13h-4.4V10h4l.4 2.4c1.3-1.8 3.3-2.9 5.7-2.9 2.9 0 5.1 2.2 5.1 4.8v.8zm30.6-8.8l-2.4 2.9c-1.3-1.1-2.9-1.8-4.4-1.8-3.3 0-5.9 2.4-5.9 9s2.4 9 5.9 9c1.8 0 3.5-.7 5.1-2l2.2 2.6c-2 2-4.6 3.1-7.3 3.1-6.4 0-10.8-4.4-10.8-12.8S391.1 3.9 397 3.9c2.7-.3 5.1.8 7.1 2.4zm17.8 14.5h-11.7c.4 3.7 2.2 5.1 4.6 5.1 1.8 0 3.3-.7 4.6-1.8l2 2.6c-2 1.5-4.4 2.4-6.8 2.4-5.7 0-8.8-4-8.8-9.7s3.1-9.9 8.4-9.9c5.3 0 8.1 3.5 8.1 9.5-.2.5-.4 1.1-.4 1.8zm-4.4-3.3c0-3.1-1.1-4.8-3.5-4.8-2.2 0-3.5 1.3-3.7 5.1-.1-.1 7.2-.3 7.2-.3zm23.8-2.4v13.4h-4.4V15.7c0-2.4-.9-3.1-2.2-3.1-1.8.2-3.3 1.3-4 2.9v13h-4.6V10h4l.2 2.4c1.3-1.8 3.5-2.9 5.7-2.9 2.9-.2 5.1 2 5.3 4.6v1zm15.8 12.8c-1.3.9-3.1 1.3-4.6 1.3-3.7 0-5.7-2.2-5.7-6.2v-9.7h-2.9V10h2.9V5.8l4.4-.4V10h4.4l-.4 3.3h-4v9.9c0 1.8.7 2.6 2 2.6.9 0 1.5-.2 2.2-.7l1.7 2.8zm17-7.1h-11.7c.4 3.7 2.2 5.1 4.6 5.1 1.8 0 3.3-.7 4.6-1.8l2 2.6c-2 1.5-4.4 2.4-6.8 2.4-5.7 0-8.8-4-8.8-9.7s3.1-9.9 8.4-9.9c5.3 0 8.1 3.5 8.1 9.5-.2.5-.2 1.1-.4 1.8zm-4.2-3.3c0-3.1-1.1-4.8-3.5-4.8-2.2 0-3.5 1.3-3.7 5.1-.1-.1 7.2-.3 7.2-.3zm19.3-7.7l-.9 4.4c-.4-.2-1.1-.2-1.8-.2-2.2 0-3.5 1.8-4.2 4.8v9.9h-4.6V10h4l.4 3.7c.4-2.4 2.4-4 4.8-4.2 1.2.1 1.9.1 2.3.3zM605 23h-8.1l-1.5 5.7h-4.8L598 4.3h5.7l7.5 24.4h-4.8c-.1 0-1.4-5.7-1.4-5.7zm-.9-3.5L601 7.8l-3 11.7h6.1zm9.7 4.8V2.5l4.4-.4v22.2c0 .9.2 1.3 1.1 1.3.4 0 .7 0 1.1-.2l1.1 3.1c-.9.4-2 .7-3.1.7-2.4.2-4.4-1.5-4.6-4v-.9zm15.6-21.1c-.2 1.5-1.8 2.6-3.3 2.2-1.1-.2-2-1.1-2.2-2.2.2-1.5 1.5-2.6 3.1-2.6 1.3.2 2.4 1.3 2.4 2.6zm-.4 25.3h-4.4V10h4.4v18.5zm21.6-17.6c-1.8.4-3.5.7-5.5.7 2 .7 3.5 2.6 3.3 4.8 0 3.5-2.9 6.2-7.5 6.2-.7 0-1.5 0-2.2-.2-.4.2-.7.9-.9 1.3 0 .7.4 1.3 2.2 1.3h2.9c4.2 0 6.8 2.2 6.8 5.3 0 3.7-3.3 5.9-9.2 5.9-6.6 0-8.6-2.2-8.6-5.9h4.2c0 2 .9 2.6 4.4 2.6 3.5 0 4.6-1.1 4.6-2.4s-1.1-2.2-3.1-2.2h-2.6c-3.7 0-5.3-1.8-5.3-3.5 0-1.5.9-2.9 2.2-3.5-2-.9-3.3-3.1-3.3-5.3 0-4 3.3-6.6 7.7-6.6 3.1.2 6.2-.4 8.8-2l1.1 3.5zm-13 5.3c-.2 1.8 1.1 3.5 2.9 3.7h.4c2.2 0 3.3-1.3 3.3-3.7s-1.1-3.5-3.3-3.5c-1.8 0-3.3 1.3-3.3 3.1v.4zm30.8-1.1v13.4H664V15.7c0-2.4-.9-3.1-2.2-3.1-1.8.2-3.3 1.3-4 2.9v13h-4.4V10h4l.4 2.4c1.3-1.8 3.5-2.9 5.7-2.9 2.9-.2 5.1 2 5.3 4.8-.4.3-.4.6-.4.8zm21.6 3.7h-3.1v9.7h-4.6V4.3h7.3c6.4 0 9.7 2.2 9.7 7.3 0 3.1-2 5.7-4.8 6.6l6.4 10.6h-5.3l-5.6-10zm-2.9-3.3h2.9c2.9 0 4.4-1.1 4.4-4s-1.3-3.7-4.8-3.7h-2.4l-.1 7.7zm21.8-12.3c-.2 1.5-1.5 2.6-3.1 2.6-1.3-.2-2.4-1.1-2.6-2.6.2-1.5 1.5-2.6 3.1-2.6 1.3.2 2.4 1.3 2.6 2.6zm-.7 25.3h-4.4V10h4.4v18.5zm21.6-17.6c-1.8.4-3.5.7-5.5.7 2 .7 3.5 2.6 3.3 4.8 0 3.5-2.9 6.2-7.5 6.2-.7 0-1.5 0-2.2-.2-.4.2-.7.9-.9 1.3 0 .7.4 1.3 2.2 1.3h2.9c4.2 0 6.8 2.2 6.8 5.3 0 3.7-3.3 5.9-9.2 5.9-6.6 0-8.6-2.2-8.6-5.9h4c0 2 .9 2.6 4.4 2.6 3.5 0 4.6-1.1 4.6-2.4s-1.1-2.2-3.1-2.2h-2.4c-3.7 0-5.3-1.8-5.3-3.5 0-1.5.9-2.9 2.2-3.5-2-.9-3.3-3.1-3.3-5.3 0-4 3.3-6.6 7.7-6.6 3.1.2 6.2-.4 8.8-2l1.1 3.5zm-13 5.3c-.2 1.8 1.1 3.3 2.9 3.7h.4c2.2 0 3.3-1.3 3.3-3.7s-1.1-3.5-3.3-3.5c-1.8 0-3.3 1.3-3.3 3.1v.4zm30.8-1.1v13.4h-4.4V15.7c0-2.4-.9-3.1-2.2-3.1-1.8.2-3.3 1.3-4 2.9v13h-4.4v-26l4.4-.4v10.1c1.3-1.8 3.3-2.9 5.5-2.6 2.9 0 5.1 2.2 5.1 5.1v.4zm15.9 12.8c-1.3.9-3.1 1.3-4.6 1.3-3.7 0-5.5-2.2-5.5-6.2v-9.7h-2.9V10h2.9V5.8l4.4-.4V10h4.4l-.4 3.3h-4v9.9c0 1.8.7 2.6 2 2.6.9 0 1.5-.2 2.2-.7l1.5 2.8zM601.3 61.1h-2.9V71h-4.6V46.6h7.3c6.4 0 9.7 2.2 9.7 7 0 3.1-2 5.7-4.8 6.6l6.4 10.6H607l-5.7-9.7zm-2.9-3.3h2.9c2.9 0 4.4-1.1 4.4-4.2s-1.5-3.7-4.8-3.7h-2.4l-.1 7.9zm31.5 10.5l-.9 3.1c-1.8 0-3.5-1.1-4.2-2.6-1.3 2-3.3 2.9-5.5 2.9-3.1.2-5.7-2-5.9-5.1v-.7c0-4 3.1-6.2 8.4-6.2h2.4v-1.1c0-2.4-1.1-3.3-3.5-3.3-1.8 0-3.3.4-4.8 1.1l-1.1-3.1c2.2-.9 4.4-1.3 6.8-1.5 5.1 0 7.3 2.2 7.3 6.4v7.9c-.3 1.4.1 2 1 2.2zm-5.7-2.4v-3.7h-2c-2.9 0-4.4 1.1-4.4 3.3-.2 1.3.7 2.6 2 2.9h.7c1.5-.3 2.8-1.2 3.7-2.5zm25.9-12.7c-1.8.4-3.5.7-5.5.7 2.2.7 3.5 2.6 3.5 4.8 0 3.5-2.9 6.4-7.5 6.4-.7 0-1.5 0-2.2-.2-.4.2-.7.9-.9 1.3 0 .7.4 1.3 2.2 1.3h2.9c4.2 0 6.8 2.2 6.8 5.3 0 3.7-3.3 5.9-9.2 5.9-6.6 0-8.6-2.2-8.6-5.9h4c0 1.8.9 2.6 4.4 2.6 3.5 0 4.6-1.1 4.6-2.4 0-1.3-1.1-2.2-3.1-2.2h-2.9c-3.7 0-5.3-1.8-5.3-3.5 0-1.5.9-2.9 2.2-3.5-2-.9-3.3-3.1-3.3-5.3 0-4 3.3-6.6 7.7-6.6 3.1.2 6.2-.4 8.8-2l1.4 3.3zm-13 5c-.2 1.8 1.1 3.3 2.9 3.7h.4c2.2 0 3.3-1.3 3.3-3.7 0-2.4-1.1-3.5-3.3-3.5-1.8 0-3.3 1.3-3.3 3.1v.4zm29.3 8.8h9.7l-.4 3.7h-13.9V46.6h4.6V67zm27.3-3.9H682c.4 3.7 2.2 5.1 4.6 5.1 1.8 0 3.3-.7 4.6-1.8L693 69c-2 1.5-4.4 2.6-6.8 2.6-5.7 0-8.8-4-8.8-9.7s2.9-10.1 8.1-10.1 8.1 3.5 8.1 9.5l.1 1.8zm-4.4-3.3c0-3.1-1.1-4.8-3.5-4.8-2.2 0-3.5 1.3-3.7 5.1h7.3l-.1-.3zm13.6-9.5v2h3.5l-.4 3.3h-3.1V71h-4.4V55.6h-3.1v-3.3h3.1v-2c0-3.3 2.2-5.9 6.6-5.9 1.1 0 2 .2 3.1.4l-.9 3.3c-.7-.2-1.1-.2-1.8-.2-1.9-.2-2.6.6-2.6 2.4zm17.9 19.8c-1.3.9-3.1 1.5-4.6 1.3-3.7 0-5.5-2.2-5.5-6.2v-9.7h-3.1v-3.3h2.9V48l4.4-.4v4.6h4.4l-.4 3.3h-4v9.7c0 1.8.7 2.6 2 2.6.9 0 1.5-.2 2.2-.7l1.7 3zM315.2 424.4l-2.4 2.6c-1.3-1.1-2.9-1.8-4.4-1.8-3.3 0-5.9 2.4-5.9 9s2.4 9 5.9 9c1.8 0 3.5-.7 5.1-2l2.2 2.6c-2 2-4.6 3.1-7.3 2.9-6.4 0-10.8-4.4-10.8-12.8s4.6-12.8 10.6-12.8c2.6.9 5.2 1.8 7 3.3zm18 14.6h-11.7c.4 3.7 2.2 5.1 4.6 5.1 1.8 0 3.3-.7 4.6-1.8l2 2.6c-2 1.5-4.4 2.4-6.8 2.4-5.7 0-8.8-3.7-8.8-9.7s3.1-9.9 8.4-9.9c5.3 0 8.1 3.5 8.1 9.5-.4.4-.4 1.3-.4 1.8zm-4.4-3.1c0-3.1-1.1-4.8-3.5-4.8-2.2 0-3.5 1.3-3.7 5.1l7.2-.3zm23.8-2.7v13.4H348v-12.5c0-2.4-.9-3.1-2.2-3.1s-2.9 1.1-4 2.9v13h-4.6v-18.7h4l.4 2.4c1.3-1.8 3.3-2.9 5.7-2.9 2.9-.2 5.1 2 5.3 4.8v.7zm15.6 12.8c-1.3.9-3.1 1.5-4.6 1.3-3.7 0-5.7-2.2-5.7-6.2v-9.9H355V428h2.9v-4.2l4.4-.4v4.6h4.4l-.4 3.3h-3.7v9.7c0 1.8.7 2.6 2 2.6.9 0 1.5-.2 2.2-.7l1.4 3.1zm17.2-7h-11.7c.4 3.7 2.2 5.1 4.6 5.1 1.8 0 3.3-.7 4.6-1.8l1.8 2.6c-2 1.5-4.4 2.4-6.8 2.4-5.7 0-8.8-3.7-8.8-9.7s3.1-9.9 8.4-9.9c5.3 0 8.1 3.5 8.1 9.5-.2.4-.2 1.3-.2 1.8zm-4.4-3.1c0-3.1-1.1-4.8-3.5-4.8-2.2 0-3.5 1.3-3.7 5.1l7.2-.3zm19.6-7.9l-.9 4.4c-.4-.2-1.1-.2-1.8-.2-2.2 0-3.5 1.8-4.2 4.8v9.9h-4.4v-18.7h4l.4 3.7c.4-2.4 2.4-4 4.8-4.2.9 0 1.4.3 2.1.3zm.8 6.1H412v3.5h-10.6v-3.5zm20.3 9.3c0 5.7-3.1 7.7-7 9l-1.3-3.3c3.1-1.3 3.7-2.9 3.7-5.7v-20.7h4.6v20.7zm20.2 3.5h-4l-.2-2.6c-1.1 2-3.3 3.3-5.7 3.1-3.3 0-5.3-2.2-5.3-5.7v-13.4h4.6v12.8c0 2.2.7 2.9 2.2 2.9 1.5-.2 3.1-1.1 3.7-2.6v-13h4.4l.3 18.5zm17.9-17l-1.8 2.6c-1.3-.9-3.1-1.5-4.6-1.5-1.8 0-2.9.7-2.9 1.8s.7 1.8 4 2.6c3.7 1.1 5.9 2.6 5.9 5.9 0 4-3.5 5.9-7.9 5.9-2.6 0-5.3-.9-7.5-2.6l2.2-2.4c1.5 1.1 3.3 1.8 5.1 1.8 2 0 3.3-.9 3.3-2.2 0-1.3-.7-2-4.2-3.1-4-1.1-5.5-2.9-5.5-5.7 0-3.1 2.9-5.5 7.3-5.5 2.4.2 4.6.9 6.6 2.4zm14.7 16.1c-1.3.9-3.1 1.5-4.6 1.3-3.7 0-5.7-2.2-5.7-6.2v-9.9h-2.9V428h2.9v-4.2l4.6-.4v4.6h4.4l-.4 3.3h-4v9.7c0 1.8.7 2.6 2 2.6.9 0 1.5-.2 2.2-.7l1.5 3.1zm7.7-24.6c-.2 1.5-1.5 2.6-3.1 2.6-1.3-.2-2.4-1.1-2.6-2.6.2-1.5 1.5-2.6 3.1-2.6 1.3.1 2.4 1.2 2.6 2.6zm-.7 25.3h-4.4V428h4.4v18.7zm10.4-20.5v2h4.4l-.4 3.3h-4v15.4h-4.4v-15.4h-3.1v-3.3h3.1v-2c0-3.3 2.2-5.9 6.6-5.9 1.8 0 3.3.4 4.8 1.1l-1.3 3.1c-.9-.4-2-.7-3.1-.7-2-.2-2.6.6-2.6 2.4z"/><path d="M508.2 446.9c-1.1 4.4-5.1 7.5-9.7 7.5l-.4-3.3c2.6 0 5.1-1.8 5.9-4.4h-1.5l-5.9-18.7h4.8l4 15.6 4.2-15.6h4.6l-6 18.9zm93.1-9.9h-2.9v9.7h-4.6v-24.4h7.3c6.4 0 9.7 2.4 9.7 7 0 3.1-2 5.7-4.8 6.6l6.4 10.6H607l-5.7-9.5zm-2.9-3.3h2.9c2.9 0 4.4-1.1 4.4-4.2s-1.5-3.7-4.8-3.7h-2.4l-.1 7.9zm21.6-12.3c0 1.5-1.1 2.9-2.6 2.9s-2.9-1.1-2.9-2.6 1.1-2.9 2.6-2.9 2.9 1 2.9 2.6zm-.5 25.5h-4.4v-18.7h4.4v18.7zm21.6-17.6c-1.8.4-3.5.7-5.5.7 2 .7 3.5 2.6 3.3 4.8 0 3.5-2.9 6.4-7.5 6.4-.7 0-1.5 0-2.2-.2-.4.2-.7.9-.9 1.3 0 .7.4 1.3 2.2 1.3h2.9c4.2 0 6.8 2.2 6.8 5.3 0 3.7-3.3 5.9-9.2 5.9-6.6 0-8.6-2.2-8.6-5.7h4c0 1.8.9 2.6 4.4 2.6 3.5 0 4.6-.9 4.6-2.4s-1.1-2.2-3.1-2.2h-2.9c-3.7 0-5.3-1.8-5.3-3.5 0-1.5.9-2.9 2.2-3.5-2-.9-3.3-3.1-3.3-5.3 0-4 3.3-6.6 7.7-6.6 3.1.2 6.2-.4 8.8-2l1.6 3.1zm-13 5c-.2 1.8 1.1 3.3 2.9 3.7h.4c2.2 0 3.3-1.3 3.3-3.7s-1.1-3.5-3.3-3.5c-1.8 0-3.3 1.3-3.3 3.1v.4zm30.8-1.1v13.4h-4.4v-12.5c0-2.4-.9-3.1-2.2-3.1-1.8.2-3.1 1.3-4 2.9v13H644v-26l4.4-.4v10.1c1.3-1.8 3.3-2.6 5.5-2.6 2.9 0 5.1 2 5.3 4.8-.3 0-.3.2-.3.4zm15.9 12.8c-1.3.9-3.1 1.5-4.6 1.3-3.7 0-5.5-2.2-5.5-6.2v-9.9h-2.9V428h2.9v-4.2l4.4-.4v4.6h4.4l-.4 3.3h-4v9.7c0 1.8.7 2.6 2 2.6.9 0 1.5-.2 2.2-.7l1.5 3.1zm.2-11.9h10.6v3.5H675v-3.5zm20.2 9.3c0 5.7-3.1 7.7-7 9l-1.3-3.3c3.3-1.3 3.7-2.9 3.7-5.7v-20.7h4.6v20.7zm20.3 3.5h-4l-.2-2.6c-1.1 2-3.3 3.3-5.7 3.1-3.3 0-5.3-2.2-5.3-5.7v-13.4h4.4v12.8c0 2.2.7 2.9 2.2 2.9 1.5-.2 3.1-1.1 3.7-2.6v-13h4.4l.5 18.5zm17.8-17l-1.8 2.6c-1.3-.9-3.1-1.5-4.6-1.5-1.8 0-2.9.7-2.9 1.8s.7 1.8 4 2.6c3.7 1.1 5.9 2.6 5.9 5.9 0 4-3.5 5.9-7.9 5.9-2.6 0-5.3-.9-7.5-2.6l2.2-2.4c1.5 1.1 3.3 1.8 5.1 1.8 2 0 3.3-.9 3.3-2.2 0-1.3-.7-2-4.2-3.1-4-1.1-5.5-2.9-5.5-5.7 0-3.1 2.9-5.5 7.3-5.5 2.4.2 4.6.9 6.6 2.4zm14.8 16.1c-1.3.9-3.1 1.5-4.6 1.3-3.7 0-5.5-2.2-5.5-6.2v-9.9h-2.9V428h2.9v-4.2l4.4-.4v4.6h4.4l-.4 3.3h-4v9.7c0 1.8.7 2.6 2 2.6.9 0 1.5-.2 2.2-.7l1.5 3.1zm7.7-24.6c0 1.5-1.1 2.9-2.6 2.9s-2.9-1.1-2.9-2.6 1.1-2.9 2.6-2.9 2.6 1 2.9 2.6zm-.7 25.3h-4.4V428h4.4v18.7zm10.3-20.5v2h4.4l-.4 3.3h-4v15.4H761v-15.4h-3v-3.3h3.1v-2c0-3.3 2.2-5.9 6.6-5.9 1.8 0 3.3.4 4.8 1.1l-1.3 3.1c-.9-.4-2-.7-3.1-.7-2-.2-2.7.6-2.7 2.4z"/><path d="M781.7 446.9c-1.1 4.4-5.1 7.7-9.7 7.5l-.4-3.3c2.6 0 5.1-1.8 5.9-4.4H776l-5.9-18.7h4.8l4 15.6 4.2-15.6h4.6l-6 18.9z"/></g></g><g id="a5aa1b63-5bd2-4389-81ed-966d048faa97_00000011012384151423154590000001717939535606092977_"><g id="b1839b9b-9fd0-4519-ba49-b37fc5dce2e2_00000121262934696855523590000009136739886577948837_"><path d="M110.3 653.8H0v-6.6h110.3v6.6zm83.8-31.7H0v-6.6h193.9v6.6h.2zm0-31.7H0v-6.6h193.9v6.6h.2zm0-31.7H0v-6.6h193.9v6.6h.2zm0-31.7H0v-6.6h193.9v6.6h.2zm0-31.7H0v-6.6h193.9v6.6h.2zM7.5 443.1h9.7l-.4 3.7H2.9v-24.4h4.6v20.7zM35 439H23.1c.4 3.7 2.2 5.1 4.6 5.1 1.8 0 3.3-.7 4.6-1.8l2 2.6c-2 1.5-4.4 2.4-6.8 2.4-5.7 0-8.8-3.7-8.8-9.7s3.1-9.9 8.4-9.9 8.1 3.5 8.1 9.5c-.2.4-.2 1.3-.2 1.8zm-4.4-3.1c0-3.1-1.1-4.8-3.5-4.8-2.2 0-3.5 1.3-3.7 5.1l7.2-.3zm13.4-9.7v2h3.5l-.4 3.3H44v15.4h-4.6v-15.4h-2.9v-3.3h2.9v-2c0-3.3 2.2-5.9 6.6-5.9 1.1 0 2 .2 3.1.4l-.9 3.3c-.7-.2-1.1-.2-1.8-.2-1.7-.2-2.4.6-2.4 2.4zM61.8 446c-1.3.9-3.1 1.5-4.6 1.3-3.7 0-5.5-2.2-5.5-6.2v-9.9h-2.9V428h2.9v-4.2l4.4-.4v4.6h4.4l-.4 3.3h-4v9.7c0 1.8.7 2.6 2 2.6.9 0 1.5-.2 2.2-.7l1.5 3.1zm.3-11.9h10.6v3.5H62.1v-3.5zm20.4 9.3c0 5.7-3.1 7.7-7 9l-1.3-3.3c3.1-1.3 3.7-2.9 3.7-5.7v-20.7h4.6v20.7zm20.3 3.5h-4l-.2-2.6c-1.1 2-3.3 3.3-5.7 3.1-3.3 0-5.1-2.2-5.1-5.7v-13.4h4.4v12.8c0 2.2.7 2.9 2.2 2.9 1.8 0 3.1-1.1 3.7-2.6v-13h4.4c.1-.2.3 18.5.3 18.5zm17.8-17l-1.8 2.6c-1.3-.9-3.1-1.5-4.6-1.5-1.8 0-2.9.7-2.9 1.8s.7 1.8 4 2.6c3.7 1.1 5.9 2.6 5.9 5.9 0 4-3.5 5.9-7.9 5.9-2.6 0-5.3-.9-7.5-2.6l2.2-2.4c1.5 1.1 3.3 1.8 5.1 1.8 2 0 3.3-.9 3.3-2.2 0-1.3-.7-2-4.2-3.1-4-1.1-5.5-2.9-5.5-5.7 0-3.1 2.9-5.5 7.3-5.5 2.2.2 4.6.9 6.6 2.4zm14.8 16.1c-1.3.9-3.1 1.5-4.6 1.3-3.7 0-5.5-2.2-5.5-6.2v-9.9h-3.1V428h2.9v-4.2l4.6-.4v4.6h4.4l-.4 3.3h-4v9.7c0 1.8.7 2.6 2 2.6.9 0 1.5-.2 2.2-.7-.1 0 1.5 3.1 1.5 3.1zm7.4-24.6c0 1.5-1.1 2.9-2.6 2.9s-2.9-1.1-2.9-2.6 1.1-2.9 2.6-2.9c1.6-.1 2.9 1 2.9 2.6zm-.4 25.3H138V428h4.4v18.7zm10.3-20.5v2h4.4l-.4 3.3h-4v15.4h-4.4v-15.4H145v-3.3h3.1v-2c0-3.3 2.2-5.9 6.6-5.9 1.8 0 3.3.4 4.8 1.1l-1.3 3.1c-.9-.4-2-.7-3.1-.7-1.7-.2-2.4.6-2.4 2.4z" class="st1"/><path d="M169 446.9c-1.1 4.4-5.1 7.5-9.7 7.5l-.4-3.3c2.6 0 5.1-1.8 5.9-4.4h-1.5l-5.9-18.7h4.8l4 15.6 4.2-15.6h4.6l-6 18.9z" class="st1"/></g></g><g id="ade7f196-bb75-4440-8df9-77fbbb86f832"><path id="b3134d78-f3d9-425f-ba55-ae83e0bdd3a0" d="M103.9 381.5c2.2-3.7 4.8-7.5 8.1-10.3l10.8-9.2 9.7 10.8-35.9 31.5-35.2-31.9 8.6-9.7 10.8 9.7c3.3 2.6 5.9 5.9 8.1 9.7V328h14.5l.5 53.5z" class="st1"/></g></svg>