<svg xmlns="http://www.w3.org/2000/svg" id="Layer_1" viewBox="0 0 400 330.1" width="400" height="330.1"><style>.st0{fill:#505050}</style><g id="a5aa1b63-5bd2-4389-81ed-966d048faa97"><g id="b1839b9b-9fd0-4519-ba49-b37fc5dce2e2"><path d="M400 330.1h-55.1v-3.3H400v3.3zm-173.8 0h-60.6v-3.3h60.6v3.3zM400 314.3h-96.9V311H400v3.3zm-155.1 0H148V311h96.9v3.3zM400 298.4h-96.9v-3.3H400v3.3zm-155.1 0H148v-3.3h96.9v3.3zM400 282.6h-96.9v-3.3H400v3.3zm-155.1 0H148v-3.3h96.9v3.3zM400 266.8h-96.9v-3.3H400v3.3zm-155.1 0H148v-3.3h96.9v3.3zm155.1-16h-96.9v-3.3H400v3.3zm-155.1 0H148v-3.3h96.9v3.3zm147.3-108.5h-97V139h96.9l.1 3.3zm-147.3 0h-97V139h96.9l.1 3.3zm147.3-15.8h-81.5v-3.3h81.5v3.3zm-161.6 0h-69.5v-3.3h69.4l.1 3.3zm161.6-15.9h-97v-3.3h96.9l.1 3.3zm-147.3 0h-97v-3.3h96.9l.1 3.3zm147.3-15.8h-81.5v-3.3h81.5v3.3zm-161.6 0h-69.5v-3.3h69.4l.1 3.3zm161.6-15.9h-97v-3.3h96.9l.1 3.3zm-147.3 0h-97v-3.3h96.9l.1 3.3zM392.2 63h-81.5v-3.3h81.5V63zm-161.6 0h-69.5v-3.3h69.4l.1 3.3zm-75.5-48.2H151l-.8 2.8h-2.4l3.8-12.2h2.9l3.8 12.2H156l-.9-2.8zm-.5-1.8L153 7.2l-1.6 5.8h3.2zm4.8 2.5V4.6l2.3-.2v11.1c0 .5.1.7.6.7.2 0 .4 0 .6-.1l.4 1.5c-.4.2-1 .4-1.6.4-1.2.1-2.2-.8-2.3-2v-.5zm8-10.6c-.1.8-.8 1.3-1.6 1.2-.6-.1-1.1-.5-1.2-1.2.1-.8.8-1.3 1.6-1.3.6.1 1 .5 1.2 1.3zm-.4 12.6h-2.3V8.2h2.3v9.3zm10.8-8.7c-.9.2-1.8.3-2.6.3 1 .3 1.8 1.3 1.6 2.4 0 1.8-1.4 3.1-3.8 3.1-.4 0-.8 0-1.1-.1-.2.1-.4.5-.4.7 0 .3.2.7 1.1.7h1.4c2.1 0 3.4 1.1 3.4 2.6 0 1.8-1.6 2.9-4.6 2.9-3.3 0-4.3-1.1-4.3-2.9h2c0 .9.4 1.3 2.2 1.3s2.3-.4 2.3-1.2-.6-1.1-1.6-1.1H172c-1.9 0-2.6-.9-2.6-1.8 0-.8.4-1.5 1.1-1.8-1-.5-1.6-1.5-1.6-2.7 0-2 1.6-3.3 3.9-3.3 1.6.1 3.1-.2 4.4-1l.6 1.9zm-6.5 2.5c-.1.9.6 1.7 1.4 1.8h.2c1.1 0 1.6-.7 1.6-1.8 0-1.2-.6-1.8-1.6-1.8-.9 0-1.6.7-1.6 1.5v.3zm15.4-.5v6.7h-2.3v-6.4c0-1.2-.4-1.5-1.1-1.5-.9.1-1.6.7-2 1.5v6.5h-2.2V8.3h2l.2 1.2c.6-.9 1.6-1.5 2.9-1.5 1.4 0 2.6 1.1 2.6 2.4 0 .2 0 .4-.1.4zM202 6.4l-1.2 1.3c-.6-.5-1.4-.9-2.2-.9-1.6 0-2.9 1.2-2.9 4.5s1.2 4.5 2.9 4.5c.9 0 1.8-.3 2.6-1l1.1 1.3c-1 1-2.3 1.5-3.6 1.5-3.2 0-5.4-2.2-5.4-6.4s2.3-6.2 5.3-6.2c1.2.1 2.4.6 3.4 1.4zm8.9 7.2H205c.2 1.8 1.1 2.5 2.3 2.5.9 0 1.6-.3 2.3-.9l1 1.3c-1 .8-2.2 1.2-3.4 1.2-2.9 0-4.4-2-4.4-4.8 0-3 1.6-5 4.2-5s4.1 1.8 4.1 4.8c-.1.2-.1.7-.2.9zm-2.2-1.5c0-1.5-.6-2.4-1.8-2.4-1.1 0-1.8.7-1.9 2.5.1 0 3.7-.2 3.7-.1zm11.9-1.3v6.7h-2.2v-6.4c0-1.2-.4-1.5-1.1-1.5-.9.1-1.6.7-2 1.5v6.5H213V8.3h2l.1 1.2c.6-.9 1.8-1.5 2.9-1.5 1.4-.1 2.6 1 2.6 2.3.1.2.1.4 0 .5zm7.9 6.3c-.6.5-1.6.7-2.3.7-1.9 0-2.9-1.1-2.9-3.1v-5h-1.4V8.2h1.4V6.1l2.2-.2v2.3h2.2l-.2 1.7h-1.9v5c0 .9.4 1.3 1 1.3.4 0 .8-.1 1.1-.3l.8 1.2zm8.6-3.5h-5.9c.2 1.8 1.1 2.5 2.3 2.5.9 0 1.6-.3 2.3-.9l1 1.3c-1 .8-2.2 1.2-3.4 1.2-2.9 0-4.4-2-4.4-4.8 0-3 1.6-5 4.2-5s4.1 1.8 4.1 4.8c-.2.2-.2.7-.2.9zm-2.2-1.5c0-1.5-.6-2.4-1.8-2.4-1.1 0-1.8.7-1.9 2.5 0 0 3.7-.2 3.7-.1zm9.8-3.9l-.4 2.2c-.2-.1-.6-.1-.9-.1-1.1 0-1.8.9-2.1 2.4v5H239V8.2h2l.2 1.8c.2-1.2 1.2-2 2.4-2.1.4.1.8.2 1.1.3zm57.9 6.6h-4.1l-.8 2.8h-2.4l3.8-12.2h2.9l3.8 12.2h-2.4l-.8-2.8zM302 13l-1.5-5.8L299 13h3zm4.8 2.5V4.6l2.2-.2v11.1c0 .5.1.7.5.7.2 0 .4 0 .5-.1l.5 1.5c-.5.2-1 .4-1.5.4-1.2.1-2.2-.8-2.3-2l.1-.5zm8-10.6c-.1.8-.9 1.3-1.6 1.1-.5-.1-1-.5-1.1-1.1.1-.8.8-1.3 1.5-1.3.6.1 1.1.5 1.2 1.3zm-.4 12.6h-2.2V8.2h2.2v9.3zm10.8-8.7c-.9.2-1.8.3-2.8.3 1 .3 1.8 1.3 1.6 2.4 0 1.8-1.5 3.1-3.8 3.1-.4 0-.8 0-1.1-.1-.2.1-.4.5-.5.7 0 .3.2.7 1.1.7h1.5c2.1 0 3.4 1.1 3.4 2.6 0 1.8-1.6 2.9-4.6 2.9-3.3 0-4.3-1.1-4.3-2.9h2.1c0 .9.5 1.3 2.2 1.3s2.3-.4 2.3-1.2-.5-1.1-1.5-1.1h-1.3c-1.9 0-2.6-.9-2.6-1.8 0-.8.5-1.5 1.1-1.8-1-.5-1.6-1.5-1.6-2.7 0-2 1.6-3.3 3.9-3.3 1.5.1 3.1-.2 4.4-1l.5 1.9zm-6.5 2.5c-.1.9.5 1.8 1.5 1.8h.2c1.1 0 1.6-.7 1.6-1.8 0-1.2-.5-1.8-1.6-1.8-.9 0-1.6.7-1.6 1.5l-.1.3zm15.4-.5v6.7h-2.2v-6.4c0-1.2-.5-1.5-1.1-1.5-.9.1-1.6.7-2 1.5v6.5h-2.2V8.3h2l.2 1.2c.6-.9 1.8-1.5 2.9-1.5 1.5-.1 2.5 1 2.6 2.4-.2.2-.2.3-.2.4zm10.9 2h-1.5v4.8h-2.3V5.4h3.6c3.2 0 4.9 1.1 4.9 3.5 0 1.5-1 2.8-2.4 3.3l3.2 5.3h-2.6c-.1-.1-2.9-4.8-2.9-4.7zm-1.5-1.8h1.5c1.5 0 2.2-.5 2.2-2.1 0-1.5-.6-1.8-2.4-1.8h-1.2c-.1-.1-.1 3.9-.1 3.9zm10.9-6.1c-.1.8-.8 1.3-1.5 1.3-.6-.1-1.2-.5-1.3-1.3.1-.8.8-1.3 1.5-1.3.7.1 1.2.6 1.3 1.3zm-.3 12.6h-2.2V8.2h2.2v9.3zm10.7-8.7c-.9.2-1.8.3-2.8.3 1 .3 1.8 1.3 1.6 2.4 0 1.8-1.5 3.1-3.8 3.1-.4 0-.8 0-1.1-.1-.2.1-.4.5-.5.7 0 .3.2.7 1.1.7h1.5c2.1 0 3.4 1.1 3.4 2.6 0 1.8-1.6 2.9-4.6 2.9-3.3 0-4.3-1.1-4.3-2.9h2c0 .9.5 1.3 2.2 1.3s2.3-.4 2.3-1.2-.5-1.1-1.5-1.1h-1.5c-1.9 0-2.6-.9-2.6-1.8 0-.8.5-1.5 1.1-1.8-1-.5-1.6-1.5-1.6-2.7 0-2 1.6-3.3 3.9-3.3 1.5.1 3.1-.2 4.4-1l.8 1.9zm-6.5 2.5c-.1.9.5 1.7 1.5 1.8h.2c1.1 0 1.6-.7 1.6-1.8 0-1.2-.5-1.8-1.6-1.8-.9 0-1.6.7-1.6 1.5l-.1.3zm15.5-.5v6.7h-2.2v-6.4c0-1.2-.5-1.5-1.1-1.5-.9.1-1.6.7-2 1.5v6.5h-2.2v-13l2.2-.2v5c.6-.9 1.6-1.5 2.8-1.3 1.5 0 2.5 1.1 2.5 2.5v.2zm7.8 6.3c-.6.5-1.5.7-2.3.7-1.9 0-2.8-1.1-2.8-3.1v-5H375V8.2h1.5V6.1l2.2-.2v2.3h2.2l-.2 1.7h-2v5c0 .9.4 1.3 1 1.3.5 0 .8-.1 1.1-.3.1-.1.9 1.3.8 1.2zm-81.1 16.7H299v4.8h-2.3V26.5h3.6c3.2 0 4.9 1.1 4.9 3.5 0 1.6-1 2.8-2.4 3.3l3.2 5.3h-2.6l-2.9-4.8zm-1.4-1.7h1.5c1.5 0 2.2-.6 2.2-2s-.8-1.8-2.4-1.8h-1.2l-.1 3.8zm15.7 5.4l-.5 1.6c-.9 0-1.8-.6-2.1-1.3-.6 1-1.6 1.4-2.8 1.4-1.5.1-2.9-1-3-2.6v-.3c0-2 1.5-3.1 4.2-3.1h1.2v-.6c0-1.2-.5-1.7-1.8-1.7-.9 0-1.6.2-2.4.4l-.5-1.6c1.1-.4 2.2-.7 3.4-.8 2.5 0 3.6 1.1 3.6 3.2v4.2c.1.7.3.9.7 1.2zm-2.8-1.4v-1.8h-1c-1.5 0-2.2.6-2.2 1.7-.1.7.4 1.3 1 1.4h.4c.7-.2 1.4-.6 1.8-1.3zm12.9-6.2c-.9.2-1.8.3-2.8.3 1.1.3 1.8 1.3 1.8 2.4 0 1.8-1.5 3.1-3.8 3.1-.4 0-.8 0-1.1-.1-.2.1-.4.4-.5.7 0 .3.2.7 1.1.7h1.5c2.1 0 3.4 1.1 3.4 2.7 0 1.8-1.6 2.9-4.6 2.9-3.3 0-4.3-1.1-4.3-2.9h2c0 .9.5 1.3 2.2 1.3s2.3-.6 2.3-1.2-.5-1.1-1.5-1.1h-1.5c-1.9 0-2.6-.9-2.6-1.8 0-.8.5-1.4 1.1-1.8-1-.4-1.6-1.6-1.6-2.7 0-2 1.6-3.3 3.9-3.3 1.5.1 3.1-.2 4.4-1l.6 1.8zm-6.4 2.5c-.1.9.5 1.7 1.5 1.8h.2c1.1 0 1.6-.7 1.6-1.8s-.5-1.8-1.6-1.8c-.9 0-1.6.7-1.6 1.6l-.1.2zm14.6 4.4h4.9l-.2 1.8h-7V26.5h2.3v10.3zm13.6-2.1h-5.9c.2 1.8 1.1 2.6 2.3 2.6.9 0 1.6-.3 2.3-.9l.9 1.3c-1 .8-2.2 1.3-3.4 1.3-2.9 0-4.4-2-4.4-4.8 0-2.9 1.5-5.1 4-5.1s4 1.8 4 4.8c.3.2.2.6.2.8zm-2.2-1.5c0-1.6-.5-2.4-1.8-2.4-1.1 0-1.8.7-1.9 2.6l3.7-.2zm6.9-4.9v1h1.8L353 31h-1.5v7.7h-2.2V31h-1.5v-1.7h1.5v-1c0-1.7 1.1-2.9 3.3-2.9.5 0 1 .1 1.5.2l-.5 1.7c-.4-.1-.5-.1-.9-.1-1-.1-1.3.3-1.3 1.1zm8.9 9.9c-.6.4-1.5.8-2.3.7-1.9 0-2.8-1.1-2.8-3.1v-4.9h-1.5v-1.7h1.5v-2.1l2.2-.2v2.4h2.2l-.2 1.7h-2v4.8c0 .9.4 1.3 1 1.3.5 0 .8-.1 1.1-.3 0-.1.8 1.5.8 1.4zM157.6 215.5l-1.2 1.3c-.6-.5-1.4-.9-2.2-.9-1.6 0-2.9 1.2-2.9 4.5s1.2 4.5 2.9 4.5c.9 0 1.8-.4 2.6-1l1.1 1.3c-1 1-2.3 1.5-3.6 1.5-3.2 0-5.4-2.2-5.4-6.4s2.3-6.4 5.3-6.4c1.3.3 2.5.7 3.4 1.6zm8.9 7.3h-5.9c.2 1.9 1.1 2.5 2.3 2.5.9 0 1.6-.4 2.3-.9l1 1.3c-1 .8-2.2 1.2-3.4 1.2-2.9 0-4.4-1.9-4.4-4.9s1.6-5 4.2-5 4.1 1.8 4.1 4.8c-.1.3-.1.6-.2 1zm-2.2-1.6c0-1.5-.6-2.4-1.8-2.4-1.1 0-1.8.6-1.9 2.5l3.7-.1zm11.9-1.3v6.7h-2.3v-6.4c0-1.2-.4-1.5-1.1-1.5-.6 0-1.4.5-2 1.5v6.5h-2.3v-9.4h2l.2 1.2c.6-.9 1.6-1.5 2.9-1.5 1.4-.1 2.6 1 2.6 2.4v.5zm7.9 6.3c-.6.5-1.6.8-2.3.6-1.9 0-2.9-1.1-2.9-3.1v-5h-1.4v-1.6h1.4V215l2.2-.2v2.3h2.2l-.2 1.6h-1.9v4.9c0 .9.4 1.3 1 1.3.4 0 .8-.1 1.1-.4l.8 1.7zm8.5-3.4h-5.9c.2 1.9 1.1 2.5 2.3 2.5.9 0 1.6-.4 2.3-.9l.9 1.3c-1 .8-2.2 1.2-3.4 1.2-2.9 0-4.4-1.9-4.4-4.9s1.6-5 4.2-5 4.1 1.8 4.1 4.8c0 .3 0 .6-.1 1zm-2.2-1.6c0-1.5-.6-2.4-1.8-2.4-1.1 0-1.8.6-1.9 2.5l3.7-.1zm9.8-3.9l-.4 2.2c-.2-.1-.6-.1-.9-.1-1.1 0-1.8.9-2.1 2.4v5h-2.2v-9.4h2l.2 1.9c.2-1.2 1.2-2 2.4-2.1.4 0 .8 0 1 .1zm.4 2.9h5.3v1.8h-5.3v-1.8zm10.3 4.7c0 2.9-1.6 3.9-3.5 4.5l-.6-1.6c1.6-.6 1.9-1.5 1.9-2.9v-10.4h2.3l-.1 10.4zm10 1.7h-2l-.1-1.3c-.6 1-1.6 1.6-2.9 1.5-1.6 0-2.6-1.1-2.6-2.9v-6.6h2.3v6.4c0 1.1.4 1.5 1.1 1.5.8-.1 1.6-.5 1.9-1.3v-6.5h2.2l.1 9.2zm8.9-8.5l-.9 1.3c-.6-.5-1.6-.8-2.3-.8-.9 0-1.4.4-1.4.9s.4.9 2 1.3c1.9.5 2.9 1.3 2.9 3 0 2-1.8 3-3.9 3-1.3 0-2.6-.5-3.8-1.3l1.1-1.2c.8.5 1.6.9 2.6.9s1.6-.5 1.6-1.1-.4-1-2.1-1.5c-2-.5-2.8-1.5-2.8-2.9 0-1.5 1.4-2.8 3.6-2.8 1.3.1 2.5.6 3.4 1.2zm7.5 8.1c-.6.5-1.6.8-2.3.6-1.9 0-2.9-1.1-2.9-3.1v-5h-1.4v-1.6h1.4V215l2.3-.2v2.3h2.2l-.2 1.6h-2v4.9c0 .9.4 1.3 1 1.3.4 0 .8-.1 1.1-.4l.8 1.7zM241 214c-.1.8-.8 1.3-1.6 1.3-.6-.1-1.2-.5-1.3-1.3.1-.8.8-1.3 1.6-1.3.8.1 1.2.5 1.3 1.3zm-.2 12.6h-2.2v-9.3h2.2v9.3zm5-10.2v1h2.2l-.2 1.6h-2v7.7h-2.2V219H242v-1.6h1.6v-1c0-1.6 1.1-3 3.3-3 .9 0 1.6.2 2.4.5l-.6 1.5c-.4-.2-1-.4-1.6-.4-.8 0-1.3.5-1.3 1.4z" class="st0"/><path d="M254 226.7c-.6 2.2-2.6 3.8-4.9 3.8l-.2-1.6c1.3 0 2.6-.9 2.9-2.2h-.8l-2.9-9.4h2.4l2 7.8 2.1-7.8h2.3l-2.9 9.4zm46.5-5H299v4.9h-2.3v-12.2h3.6c3.2 0 4.9 1.2 4.9 3.5 0 1.5-1 2.9-2.4 3.3l3.2 5.3h-2.6l-2.9-4.8zm-1.4-1.6h1.5c1.5 0 2.2-.5 2.2-2.1s-.8-1.9-2.4-1.9h-1.2l-.1 4zm10.9-6.2c0 .8-.5 1.5-1.3 1.5s-1.5-.5-1.5-1.3.5-1.5 1.3-1.5c.8-.1 1.4.5 1.5 1.3 0-.1 0 0 0 0zm-.3 12.7h-2.2v-9.4h2.2v9.4zm10.7-8.8c-.9.2-1.8.4-2.8.4 1 .4 1.8 1.3 1.6 2.4 0 1.8-1.5 3.2-3.8 3.2-.4 0-.8 0-1.1-.1-.2.1-.4.5-.5.6 0 .4.2.6 1.1.6h1.5c2.1 0 3.4 1.1 3.4 2.6 0 1.9-1.6 3-4.6 3-3.3 0-4.3-1.1-4.3-2.9h2c0 .9.5 1.3 2.2 1.3s2.3-.5 2.3-1.2-.5-1.1-1.5-1.1h-1.5c-1.9 0-2.6-.9-2.6-1.8 0-.8.5-1.5 1.1-1.8-1-.5-1.6-1.5-1.6-2.6 0-2 1.6-3.3 3.9-3.3 1.5.1 3.1-.2 4.4-1l.8 1.7zm-6.5 2.5c-.1.9.5 1.6 1.5 1.9h.2c1.1 0 1.6-.6 1.6-1.9s-.5-1.8-1.6-1.8c-.9 0-1.6.6-1.6 1.5l-.1.3zm15.4-.4v6.7h-2.2v-6.4c0-1.2-.5-1.5-1.1-1.5-.9.1-1.5.6-2 1.5v6.5h-2.2v-13l2.2-.2v5c.6-.9 1.6-1.3 2.8-1.3 1.5 0 2.5 1 2.6 2.4-.1 0-.1.2-.1.3zm8 6.3c-.6.5-1.5.8-2.3.6-1.9 0-2.8-1.1-2.8-3.1v-5h-1.5v-1.6h1.5V215l2.2-.2v2.3h2.2l-.2 1.6h-2v4.9c0 .9.4 1.3 1 1.3.5 0 .8-.1 1.1-.4l.8 1.7zm.1-6h5.3v1.8h-5.3v-1.8zm10.1 4.6c0 2.9-1.5 3.9-3.5 4.5l-.6-1.6c1.6-.6 1.9-1.5 1.9-2.9v-10.4h2.3l-.1 10.4zm10.1 1.8h-2l-.1-1.3c-.5 1-1.6 1.6-2.9 1.5-1.6 0-2.6-1.1-2.6-2.9v-6.6h2.2v6.4c0 1.1.4 1.5 1.1 1.5.8-.1 1.5-.5 1.9-1.3v-6.6h2.2l.2 9.3zm8.9-8.5l-.9 1.3c-.6-.5-1.5-.8-2.3-.8-.9 0-1.5.4-1.5.9s.4.9 2 1.3c1.9.5 3 1.3 3 3 0 2-1.8 3-4 3-1.3 0-2.6-.5-3.8-1.3l1.1-1.2c.8.5 1.6.9 2.5.9 1 0 1.6-.5 1.6-1.1s-.4-1-2.1-1.5c-2-.5-2.8-1.5-2.8-2.9 0-1.5 1.5-2.8 3.6-2.8 1.5.1 2.8.5 3.6 1.2zm7.5 8c-.6.5-1.5.8-2.3.6-1.9 0-2.8-1.1-2.8-3.1v-5h-1.5V217h1.5v-2.1l2.2-.2v2.3h2.2l-.2 1.6h-2v4.9c0 .9.4 1.3 1 1.3.5 0 .8-.1 1.1-.4l.8 1.7zm3.8-12.2c0 .8-.5 1.5-1.3 1.5s-1.5-.5-1.5-1.3.5-1.5 1.3-1.5c.8-.1 1.5.4 1.5 1.3 0-.1 0 0 0 0zm-.4 12.7h-2.2v-9.4h2.2v9.4zm5.3-10.3v1h2.2l-.2 1.6h-2v7.7h-2.2v-7.7H379v-1.6h1.5v-1c0-1.6 1.1-3 3.3-3 .9 0 1.6.2 2.4.5l-.6 1.5c-.5-.2-1-.4-1.5-.4-1.1.1-1.3.6-1.4 1.4z" class="st0"/><path d="M390.8 226.7c-.5 2.2-2.5 3.9-4.9 3.8l-.2-1.6c1.3 0 2.5-.9 3-2.2h-.8l-3-9.4h2.4l2 7.8 2.1-7.8h2.3l-2.9 9.4z" class="st0"/></g></g><g id="a5aa1b63-5bd2-4389-81ed-966d048faa97_00000008862318163370947660000000211903929632960393_"><path id="b1839b9b-9fd0-4519-ba49-b37fc5dce2e2_00000031893896382790775230000010546914935983676318_" d="M97.1 142.3H.1V139H97l.1 3.3zm-16.5-15.8H.1v-3.3h80.4l.1 3.3zm16.5-15.9H.1v-3.3H97l.1 3.3zM80.6 94.8H.1v-3.3h80.4l.1 3.3zm16.5-15.9H.1v-3.3H97l.1 3.3zM80.6 63H.1v-3.3h80.4l.1 3.3zM7.2 14.8h-4l-.8 2.8H0L3.8 5.4h2.9l3.8 12.2H8l-.8-2.8zm-.5-1.7L5.1 7.3l-1.5 5.8h3.1zm4.8 2.4V4.6l2.3-.2v11.1c0 .5.1.7.6.7.2 0 .4 0 .6-.1l.6 1.5c-.4.2-1 .4-1.6.4-1.2.1-2.2-.8-2.3-1.8-.2-.4-.2-.6-.2-.7zm8-10.6c0 .8-.6 1.5-1.5 1.5-.8 0-1.5-.7-1.5-1.5s.6-1.5 1.5-1.5c.8.1 1.5.7 1.5 1.5zm-.3 12.6h-2.3V8.2h2.3v9.3zm10.7-8.7c-.9.2-1.8.3-2.8.3 1 .3 1.8 1.3 1.6 2.4 0 1.8-1.5 3.1-3.8 3.1-.4 0-.8 0-1.1-.1-.2.1-.4.5-.5.7 0 .3.2.7 1.1.7h1.5c2.1 0 3.4 1.1 3.4 2.6 0 1.8-1.6 2.9-4.6 2.9-3.3 0-4.3-1.1-4.3-2.9h2c0 .9.5 1.3 2.2 1.3s2.4-.5 2.4-1.2-.5-1.1-1.5-1.1h-1.3c-1.9 0-2.6-.9-2.6-1.8 0-.8.5-1.5 1.1-1.8-1-.5-1.6-1.5-1.6-2.7 0-2 1.6-3.3 3.9-3.3 1.5.1 3.1-.2 4.4-1l.5 1.9zm-6.4 2.5c-.1.9.5 1.7 1.5 1.8h.2c1.1 0 1.6-.7 1.6-1.8 0-1.2-.5-1.8-1.6-1.8-.9 0-1.6.7-1.6 1.5-.1.1-.1.3-.1.3zm15.3-.5v6.7h-2.2v-6.4c0-1.2-.5-1.5-1.1-1.5-.9.1-1.7.7-2 1.5v6.5h-2.3V8.3h2l.2 1.2c.7-.9 1.7-1.5 2.8-1.5 1.5-.1 2.5 1 2.7 2.3.1.2 0 .4-.1.5zm9.4 4.9H53l-.3 1.8h-6.9V5.3H48l.2 10.4zm13.7-2.1h-5.8c.2 1.8 1.1 2.5 2.3 2.5.9 0 1.7-.3 2.3-.9l1 1.3c-1 .8-2.2 1.2-3.4 1.2-2.8 0-4.4-2-4.4-4.8 0-3 1.5-5 4.2-5s4 1.8 4 4.8c-.2.2-.2.7-.2.9zm-2.2-1.5c0-1.5-.5-2.4-1.8-2.4-1.1 0-1.8.7-1.8 2.5-.1 0 3.7-.2 3.6-.1zm6.7-4.8v1h1.8L68 9.9h-1.4v7.7h-2.2V9.9h-1.5V8.2h1.5v-1c0-1.7 1.1-3 3.3-3 .6 0 1 .1 1.6.2l-.4 1.7c-.4-.1-.8-.1-1-.1-1.1 0-1.4.3-1.5 1.3zm8.9 9.8c-.7.5-1.6.7-2.3.7-1.8 0-2.8-1.1-2.8-3.1v-5h-1.4V8.2h1.4V6.1l2.2-.2v2.3h2.2l-.2 1.7h-2v5c0 .9.3 1.3 1 1.3.4 0 .8-.1 1.1-.3.1-.1.8 1.3.8 1.2zm-70 16.7H3.8v4.8H1.5V26.5h3.6c3.2 0 4.8 1.1 4.8 3.5 0 1.6-1 2.8-2.4 3.3l3.2 5.3H8.1c-.1 0-2.8-4.7-2.8-4.8zm-1.4-1.7h1.5c1.4 0 2.3-.6 2.3-2s-.8-1.8-2.4-1.8H3.8c0-.1 0 3.8.1 3.8zm15.7 5.4l-.5 1.6c-.9 0-1.8-.6-2.1-1.3-.6.9-1.6 1.4-2.8 1.4-1.6.1-2.9-1-2.9-2.6v-.3c0-2 1.6-3.1 4.2-3.1h1.2v-.6c0-1.2-.5-1.7-1.8-1.7-.9 0-1.6.2-2.6.4l-.6-1.6c1.1-.4 2.2-.7 3.3-.8 2.6 0 3.7 1.1 3.7 3.2v4.2c.2.7.4.9.9 1.2zm-2.9-1.4v-1.8h-1c-1.4 0-2.2.6-2.2 1.7-.1.7.4 1.3 1 1.4h.4c.7-.1 1.5-.6 1.8-1.3zm13-6.2c-.9.2-1.8.3-2.8.3 1 .3 1.8 1.3 1.6 2.4 0 1.8-1.5 3.1-3.8 3.1-.4 0-.8 0-1.1-.1-.2.1-.5.4-.5.7s.2.7 1.1.7h1.5c2.1 0 3.4 1.1 3.4 2.7 0 1.8-1.6 2.9-4.6 2.9-3.3 0-4.3-1.1-4.3-2.9h2c0 .9.5 1.3 2.2 1.3s2.3-.6 2.3-1.2-.5-1.1-1.5-1.1H24c-1.9 0-2.6-.9-2.6-1.8 0-.8.5-1.4 1.1-1.8-1.1-.4-1.8-1.6-1.6-2.7 0-2 1.6-3.3 3.9-3.3 1.5.1 3.1-.2 4.4-1l.5 1.8zm-6.5 2.5c-.1.9.5 1.7 1.5 1.8h.2c1.1 0 1.6-.7 1.6-1.8s-.5-1.8-1.6-1.8c-.9 0-1.6.7-1.6 1.6-.1 0-.1.2-.1.2zm7.3-.1h5.3v1.8h-5.3v-1.8zm11.4 1.6h-1.4v4.8h-2.3V26.5h3.7c3.2 0 4.8 1.1 4.8 3.5 0 1.6-1 2.8-2.4 3.3l3.3 5.3h-2.8l-2.9-4.7zm-1.5-1.8h1.5c1.5 0 2.2-.6 2.2-2.1 0-1.4-.8-1.8-2.4-1.8h-1.2l-.1 3.9zm10.8-6c0 .8-.5 1.4-1.3 1.6-.8 0-1.5-.6-1.5-1.3 0-.8.5-1.4 1.3-1.6h.1c.8-.2 1.4.3 1.4 1.3 0-.1 0 0 0 0zM51 38.7h-2.2v-9.3H51v9.3zm10.7-8.8c-.9.2-1.8.3-2.8.3 1 .3 1.8 1.3 1.7 2.4 0 1.8-1.5 3.1-3.8 3.1-.3 0-.8 0-1.1-.1-.2.1-.3.4-.3.7s.2.7 1.1.7H58c2.1 0 3.4 1.1 3.4 2.7 0 1.8-1.7 2.9-4.6 2.9-3.3 0-4.2-1.1-4.2-2.9h2c0 .9.5 1.3 2.2 1.3s2.3-.4 2.3-1.2-.5-1.1-1.5-1.1h-1.3c-1.8 0-2.7-.9-2.7-1.8 0-.8.5-1.4 1.1-1.8-1.1-.4-1.8-1.4-1.7-2.7 0-2 1.7-3.3 3.8-3.3 1.5.1 3.1-.2 4.4-1l.5 1.8zm-6.5 2.5c-.1.9.5 1.7 1.5 1.8h.2c1.1 0 1.7-.7 1.7-1.8s-.5-1.8-1.7-1.8c-.9 0-1.7.7-1.7 1.6v.2zm15.6-.4v6.7h-2.2v-6.4c0-1.2-.4-1.6-1.1-1.6-.9.1-1.6.7-2 1.4v6.5h-2.3v-13l2.2-.2v5.1c.7-.9 1.7-1.4 2.8-1.4 1.4-.1 2.7 1 2.7 2.4l-.1.5zm7.8 6.2c-.7.4-1.4.8-2.3.8-1.8 0-2.8-1.1-2.8-3.1V31H72v-1.7h1.4v-2.1l2.2-.2v2.3h2.2l-.2 1.7h-1.8v4.8c0 .9.3 1.3 1 1.3.4 0 .8-.1 1.1-.3-.1 0 .6 1.5.7 1.4z" class="st0"/></g><path d="M55.2 330.1H.1v-3.3h55.1v3.3zm41.9-15.8H.1V311H97l.1 3.3zm0-15.8H.1v-3.3H97l.1 3.3zm0-15.9H.1v-3.3H97l.1 3.3zm0-15.8H.1v-3.3H97l.1 3.3zm0-16H.1v-3.3H97l.1 3.3zM3.8 224.7h4.8l-.2 1.9H1.5v-12.1h2.3v10.2zm13.7-2h-5.9c.2 1.9 1.1 2.5 2.3 2.5.9 0 1.6-.4 2.3-.9l1 1.3c-1 .8-2.2 1.2-3.4 1.2-2.9 0-4.4-1.9-4.4-4.9s1.6-5 4.2-5 4.1 1.8 4.1 4.8c-.1.4-.2.7-.2 1zm-2.2-1.5c0-1.5-.6-2.4-1.8-2.4-1.1 0-1.8.6-1.9 2.5.1 0 3.7-.1 3.7-.1zm6.8-4.9v1h1.8l-.2 1.6h-1.5v7.7h-2.3v-7.7h-1.5v-1.6h1.5v-1c0-1.6 1.1-3 3.3-3 .5 0 1 .1 1.5.2l-.5 1.6c-.4-.1-.5-.1-.9-.1-.9 0-1.2.5-1.2 1.3zm8.9 9.9c-.6.5-1.5.8-2.3.6-1.9 0-2.8-1.1-2.8-3.1v-5h-1.5v-1.6H26V215l2.2-.2v2.3h2.2l-.2 1.6h-2v4.9c0 .9.4 1.3 1 1.3.5 0 .8-.1 1.1-.4l.7 1.7zm.1-6h5.3v1.8h-5.3v-1.8zm10.1 4.6c0 2.9-1.5 3.9-3.5 4.5l-.7-1.6c1.5-.6 1.8-1.5 1.8-2.9v-10.4h2.3c.1.1.1 10.4.1 10.4zm10.2 1.8h-2l-.1-1.3c-.5 1-1.7 1.6-2.8 1.5-1.7 0-2.5-1.1-2.5-2.9v-6.6h2.2v6.4c0 1.1.3 1.5 1.1 1.5.9 0 1.5-.5 1.8-1.3v-6.6h2.2l.1 9.3zm8.9-8.5l-.9 1.3c-.7-.5-1.5-.8-2.3-.8-.9 0-1.5.4-1.5.9s.3.9 2 1.3c1.8.5 3 1.3 3 3 0 2-1.8 3-4 3-1.3 0-2.7-.5-3.8-1.3l1.1-1.2c.8.5 1.7.9 2.5.9 1 0 1.7-.5 1.7-1.1s-.3-1-2.1-1.5c-2-.5-2.8-1.5-2.8-2.9 0-1.5 1.5-2.8 3.7-2.8 1.3.1 2.4.5 3.4 1.2zm7.4 8c-.7.5-1.6.8-2.3.6-1.8 0-2.8-1.1-2.8-3.1v-5h-1.5V217h1.5v-2.1l2.3-.2v2.3h2.2l-.2 1.6h-2v4.9c0 .9.3 1.3 1 1.3.4 0 .8-.1 1.1-.4l.7 1.7zm3.8-12.2c0 .8-.6 1.5-1.3 1.5s-1.4-.5-1.4-1.3.6-1.5 1.3-1.5c.8-.1 1.3.4 1.4 1.3 0-.1 0-.1 0 0zm-.3 12.7H69v-9.4h2.2v9.4zm5.1-10.3v1h2.2l-.2 1.6h-2v7.7h-2.2v-7.7h-1.7v-1.6H74v-1c0-1.6 1.1-3 3.3-3 .9 0 1.7.2 2.4.5l-.7 1.5c-.4-.2-1-.4-1.6-.4-.7.1-1 .6-1.1 1.4z" class="st0"/><path d="M84.5 226.7c-.6 2.2-2.6 3.8-4.8 3.8l-.2-1.6c1.3 0 2.6-.9 2.9-2.2h-.8l-2.9-9.4h2.4l2 7.8 2.1-7.8h2.3c0-.1-3 9.4-3 9.4z" class="st0"/><g id="ade7f196-bb75-4440-8df9-77fbbb86f832"><path id="b3134d78-f3d9-425f-ba55-ae83e0bdd3a0" d="M52 194.1c1.1-1.9 2.4-3.8 4-5.1l5.4-4.6 4.8 5.4-18 15.8-17.6-16 4.3-4.9 5.4 4.9c1.7 1.3 3 2.9 4 4.9v-27.1h7.2l.5 26.7z" class="st0"/></g></svg>