<svg xmlns="http://www.w3.org/2000/svg" id="Layer_1" viewBox="0 0 800 392.6" width="800" height="392.6"><style>.st0{fill:#b3b3b3}.st1{fill:red}</style><path d="M118.9 340.2c0 13.9.5 33 1.3 41.2h-9.5c-1.3-5.7-1.7-19.1-1.7-39.9-8.7 27.4-21.7 44.7-53 44.7-41.7 0-56-38.6-56-81.2v-.5c0-70.3 34.7-99 84.7-99h23.9V127c0-20.4-4.3-54.3-42.6-54.3-43.4 0-44.7 39.1-44.7 64.7v4.3H10.4v-4.3c0-31.7 4.8-74.3 55.6-74.3 44.7.5 53 34.7 53 63.8l-.1 213.3zm-10.9-125H83.3c-57.3 0-72.9 42.1-72.9 89.5v.5c0 39.9 13.9 71.6 46 71.6 43 0 51.6-47.3 51.6-101.6v-60zm635.6 46c0 57.8 3 115 4.3 120.2H577.3c-1.7-10.4-3.9-23.9-4.8-31.7-24.7 28.2-61.2 40.4-115 40.4-74.3 0-127.6-38.2-127.6-105.9 0-76.8 64.7-113.3 191.5-113.3 25.6 0 33 0 46.9.5V157c0-18.7-4.8-29.9-28.7-29.9-20.4 0-26 12.6-28.2 25.6H348.1c1.3-41.7 28.7-112.9 194.5-112.9 171.5 0 201.9 68.6 201.9 124.2v97.2h-.9zm-176.3-20.4c-4.3 0-11.3-.5-24.3-.5-24.3 0-37.4 9.5-37.4 27.4 0 14.7 10 23.9 25.6 23.9 21.7 0 36-8.7 36-44.7l.1-6.1z" class="st0"/><path d="M763.6 2.5l7.4 11.3c2.2 3 3.5 5.7 5.2 8.7h.5c1.7-3 3.5-6.1 5.2-8.7l7.4-11.3h10.4l-18.2 25.6L800 55.4h-10.9l-7.8-11.7c-2.2-3-3.9-6.1-5.7-9.1h-.5c-1.7 3-3.5 6.1-5.7 9.1l-7.8 11.7h-10.4L770 28.5l-17.8-26h11.4z" class="st1"/></svg>