<svg xmlns="http://www.w3.org/2000/svg" id="Layer_1" viewBox="0 0 800 356.3" width="800" height="356.3"><style>.st0{fill:#b3b3b3}</style><path id="Layer_2_1_" d="M744.7 348.7l-4.9-42.3h-2.1c-18.7 26.4-54.7 49.9-102.5 49.9-67.9 0-102.5-47.7-102.5-96.3 0-81.1 72-125.4 201.5-124.6v-6.9c0-27.7-7.6-77.5-76.2-77.5-30.8.1-61 8.7-87.2 24.9l-14-40.3c27.7-18 67.9-29.8 110.1-29.8C769.4 5.9 794.3 76 794.3 143v125.4c-.4 26.9 1.5 53.7 5.7 80.3h-55.3zm-9.3-171c-66.5-1.4-142 10.4-142 75.4 0 39.5 26.4 58.2 57.5 58.2 36.4 1 69.2-21.7 81.1-56.1 2.1-6.2 3.2-12.7 3.4-19.3v-58.2zM247.9 295.9c12.3 0 23.1-6.2 26.9-11.5 3.1-3.7 4.6-5.4 7.7-3.1l7.7 6.1c2.3 2.4 3.7 6.2-.8 13.8-6.2 11.5-20.8 37.7-60 37.7-27.6 0-47.6-20-54.6-51.7h-1.6c-16.2 19.2-41.5 35.4-76.1 46.9-14.8 4.6-28.4 4.6-45.4 4.6-18.5 0-46.1-15.4-46.1-63.8 0-35.3 15.9-66 76.8-92.9 34.8-15.3 74.7-33.7 87-44.5v-49c-1.6-13.1-2.4-33.2-10.7-43-8.5-9.8-23.8-17-46.1-17-15.3 0-39.2 6.2-49.9 16.2S59 66.1 59 79.9c0 26.9-9.2 43.8-40.6 43.8C6.2 123.7 0 116.9 0 99.1c-.3-24.6 21.2-53.8 52.7-72.3C85 7.6 111.9 0 146.5 0c36.2 0 50.8 10.7 61.5 20.8 16.1 16.1 16.9 33.8 16.9 54.6v163c0 43.6 9.2 57.5 23 57.5zm-79.1-135.3c-27.6 20.7-103 36.1-103 99.9 0 28.4 16.9 42.3 40 42.3 22.1 0 63-26.9 63-47.6v-94.6z" class="st0"/></svg>