<svg xmlns="http://www.w3.org/2000/svg" id="Layer_1" viewBox="0 0 800 142.3" width="800" height="142.3"><style>.st0{fill:#00aeef}.st1{stroke:#00aeef}.st1,.st2,.st3{fill:none;stroke-width:1.6591;stroke-miterlimit:10}.st2{stroke:#faa61a}.st3{stroke:#ec008c}.st4{fill:#ec008c}.st5{fill:#faa61a}.st6{fill:#010101}.st7{fill:#797979}</style><g id="efa1845d-36d0-49fd-8c74-e566bb4bce4b"><g id="bfb5ded5-5cf6-4ae2-b6e8-0db1598ccf4f"><circle cx="591.3" cy="19" r="4" class="st0"/><circle cx="591.3" cy="138.4" r="4" class="st0"/><path d="M335.8 19h255.5M335.8 138.4h255.5" class="st1"/><path d="M18.9 75.4c0 3.6-2.7 6.6-6 7.3 4 0 7 3.3 7 7.3v.3c0 5.3-4.3 9.6-9.6 9.6h-1c-3.6 0-7-1.3-9.3-4.3l2.7-2.3C4.4 95 6.7 96 9.3 96c3.3.3 6-2 6.3-5.3v-1c0-4.3-2.3-5.6-6.3-5.6H7l.7-3.3h1.7c3 .3 5.3-2 5.6-5V75c0-2.7-2-4.6-4.3-5H10c-2.3 0-4.6 1-6.3 2.7L1.4 70c2.3-2.3 5.6-3.6 9-3.6 4.6-.7 8.6 2.7 9.3 7.3-.8 1-.8 1.3-.8 1.7zm26.6 12.9c.7 5.6-3.6 10.6-9.3 10.9h-.7c-7.6 0-10.6-6.3-10.6-15.3 0-10.3 4.6-16.9 11.9-16.9 2.3 0 4.6.7 6.3 2l-1.7 3c-1.3-1-3-1.3-4.6-1.3-4.6 0-7.3 4.6-7.6 11.6 1.7-2.7 4.3-4 7.6-4 4.7.4 8.7 3.4 8.7 10zm-4.4.3c0-5-2-6.6-5-6.6-2.7.3-5.3 1.7-6.6 4.3 0 6.6 2 10 6.3 10 3.4 0 5.3-3 5.3-7.7zm30.9-2c0 7.3-3.3 12.9-9.6 12.9-2.3 0-5-1-6.6-2.7v11.6l-4.3.7V74.4h3.6l.3 3.3c1.7-2.3 4.3-4 7.3-4C69.3 74 72 79 72 86.6zm-4.6 0c0-6.3-2-9.3-5.6-9.3-2.7.3-4.6 1.7-6 3.6v11.9c1.3 2 3.3 3 5.3 3 3.9.1 6.3-2.5 6.3-9.2zm23.8 11.3c-1.7 1-3.6 1.7-5.3 1.7-3.3.3-6.3-2.3-6.6-5.6V77.7H75v-3.3h4.3v-5.6l4.3-.7v6h6l-.3 3.3H84V92c0 2.7.7 3.6 3 3.6 1.3 0 2.3-.3 3.3-1l.9 3.3z" class="st0"/><path d="M79.3 59.8V19h273.1M79.3 106.2v32.2h273.1" class="st1"/><path d="M113.5 69.1h248.9m-248.9 39.1h238.9" class="st2"/><path d="M113.5 34.6h248.9" class="st3"/><path d="M335.8 57.8h255.5m-255.5 50.4h255.5" class="st2"/><path d="M352.4 23.3h238.9M113.5 138.4h468.9" class="st3"/><circle cx="591.3" cy="23.3" r="4" class="st4"/><circle cx="591.3" cy="57.8" r="4" class="st5"/><circle cx="591.3" cy="108.2" r="4" class="st5"/><path d="M650 79.7h-3.3l-4-6.6-4 6.6h-3l5.6-8.3-5-7.3h3.3l3.3 5.6 3.3-5.6h3l-5 7.3 5.8 8.3zm1-10.6h8.6v2.3H651v-2.3zm24.9-.7v11.3h-2.7v-11c0-2.3-1-3-2.7-3s-3.3 1.3-4 2.7v11.3H664V57.4l2.7-.3v9c1-1.7 2.7-2.7 4.6-2.7 2.3 0 4.3 1.7 4.6 4v1zm17.3 4.3h-10c.3 3.6 2 5 4.3 5 1.3 0 3-.3 4-1.3l1.3 1.7c-1.7 1.3-3.6 2-5.6 2-4.3 0-7-3-7-8s2.7-8.3 6.6-8.3 6.6 3 6.6 7.6c-.2.6-.2 1-.2 1.3zm-2.7-2.3c0-3-1.3-4.6-3.6-4.6s-3.3 1.3-3.6 5l7.2-.4zm10.3-12.3c0 1-.7 2-2 2-1 0-2-.7-2-2s.7-2 2-2c1 .4 2 1 2 2zm-.7 21.6h-2.7V63.8h2.7v15.9zm18.3-15c-1.7.3-3 .7-4.6.3 1.7.7 2.7 2.3 2.7 4 0 3-2.3 5.3-5.3 5.3h-.7c-.7 0-1.3 0-2-.3-.3.3-.7 1-.7 1.3 0 .7.3 1.3 2 1.3h2.7c3.3 0 5.3 2 5.3 4.3 0 3-2.7 4.6-7.3 4.6s-6.6-1.7-6.6-4.6h2.3c0 1.7.7 2.7 4.3 2.7 3.6 0 4.6-1 4.6-2.3s-1.3-2.3-3.3-2.3h-2.3c-3 0-4-1.3-4-3 0-1 .7-2.3 1.7-2.7-1.7-.7-2.7-2.7-2.7-4.3 0-3 2.7-5.6 5.6-5.6h.3c2.3.3 5-.3 7.3-1.3l.7 2.6zm-11.3 4.4c0 2 1.3 3.3 3 3.6h.3c2 0 3.3-1.3 3.3-3.6 0-1.7-1-3.3-2.7-3.3h-.7c-1.5-.1-3.2 1.3-3.2 3.3zm26.2-.7v11.3h-2.7v-11c0-2.3-1-3-2.7-3s-3.3 1.3-4 2.7v11.3h-2.7V57.4l2.7-.3v9c1-1.7 2.7-2.7 4.6-2.7 2.3 0 4.3 1.7 4.6 4l.2 1zM746.6 79c-1 .7-2.3 1-3.6 1-2.3.3-4-1.3-4.3-3.6V66.1h-3v-2h2.7v-3.6l2.7-.3v4h3.6l-.3 2h-3.3v9.3c0 1.7.3 2.3 2 2.3.7 0 1.3-.3 2-.7l1.5 1.9z" class="st5"/><path d="M652 126.1c0 4.6-3.3 6.6-8 6.6h-2.7v7.6h-3v-20.6h5.3c5.4.1 8.4 2.1 8.4 6.4zm-3 0c0-3-2-4.3-5-4.3h-2.7v8.6h2.7c3 0 5-.6 5-4.3zm18.9 6.3c0 5-2.7 8.3-7 8.3s-7-3.3-7-8.3 2.7-8.3 7-8.3c4.4 0 7 3.4 7 8.3zm-11.2 0c0 4 1.3 6 4 6s4-2 4-6-1.3-6-4-6c-2.7.1-4 2.1-4 6zm18.9-13.6c0 1-.7 2-1.7 2h-.3c-1 0-2-.7-2-1.7v-.3c0-1 .7-2 1.7-2 1.3 0 2.3 1 2.3 2zm-.4 21.6h-2.7v-15.9h2.7v15.9zm17.3-11.3v11.3h-2.7v-10.9c0-2.3-1-3-2.3-3-1.7 0-3.3 1.3-4 2.7v11.3h-2.7v-15.9h2.3l.3 2.3c1-1.7 3-2.7 4.6-2.7 2.3-.3 4.3 1.7 4.6 4-.1.3-.1.6-.1.9zm13.6 10.6c-1 .7-2.3 1-3.6 1-2.3.3-4-1.3-4.3-3.6v-10.6h-2.7v-2h2.7v-3.6l2.7-.3v4h3.6l-.3 2h-3.3v9.3c0 1.7.3 2.3 2 2.3.7 0 1.3-.3 2-.7l1.2 2.2zm22.2-17.9l-1.7 1.7c-1.3-1-3-1.7-4.6-1.7-2 0-3.6 1-3.6 3s.7 2.7 4.6 3.6 6 2.3 6 6.3-2.7 6-7.3 6c-2.7 0-5-1-7-2.7l1.7-1.7c1.3 1.3 3.3 2 5.3 2 2.3 0 4.3-1.3 4.3-3.6s-1-3-4.3-4c-4-1.3-6-2.7-6-6 .3-3.3 3-5.6 6-5.3h.7c1.9.1 4.3.8 5.9 2.4zm7.7-3c0 1-1 2-2 2s-2-1-2-2 1-2 2-2 2 1 2 2zm-.4 21.6H733v-15.9h2.7v15.9zm14.6-13.6l-8.3 11.3h8.3l-.3 2.3H739v-2l8.3-11.3H740v-2.3h10.6l-.4 2zm15.6 6.6h-10c.3 3.6 2 5 4.3 5 1.3 0 3-.3 4-1.3l1.3 1.7c-1.7 1.3-3.6 2-5.6 2-4.3 0-7-3-7-8s2.7-8.3 6.6-8.3 6.6 3 6.6 7.6c-.2.3-.2 1-.2 1.3zm-2.6-2.3c0-3-1.3-4.6-3.6-4.6s-3.3 1.3-3.6 5l7.2-.4z" class="st0"/><path d="M652.3 17.3c0 4.3-3.3 6-8.3 6h-5.6V2.4h5c5 0 8 1.7 8 5.3 0 2.3-1.7 4.3-4 4.6 2.6.4 4.9 1.3 4.9 5zM641.4 4.7V11h3c2.3 0 4-1 4-3.3s-2-3.3-5-3.3l-2 .3zm8.3 12.6c0-3-2-4-4.6-4h-3.3v7.3h3c2.6 0 4.9-.3 4.9-3.3zm19.9-2.3c0 5-2.7 8.3-7 8.3s-7-3.3-7-8.3 2.7-8.3 7-8.3 7 3.3 7 8.3zm-11.3 0c0 4 1.3 6 4 6s4-2 4-6-1.3-6-4-6-3.7 2-4 6zm27.9-14v21.9h-2.3l-.3-2c-1 1.7-2.7 2.7-4.6 2.7-4 0-6-3.3-6-8.3s2.3-8.3 6.3-8.3c1.7 0 3.3.7 4.3 2V.7c-.1 0 2.6.3 2.6.3zm-2.7 18v-8c-.7-1.3-2.3-2-3.6-2-2.3 0-3.6 2-3.6 6s1.3 6 3.6 6c1.3-.1 2.6-.7 3.6-2zm14.6 4.3c-.7 3.3-3.6 6-7.3 6.3l-.3-2c2.3 0 4.3-2 5-4.3h-1l-5.3-15.6h3l4.3 13.6 4-13.6h3l-5.4 15.6zm27.9-10h-8.6v9.6h-3V2.4h3V11h8.6V2.4h3V23h-3v-9.7zm20.6 2.7h-10c.3 3.6 2 5 4.3 5 1.3 0 3-.3 4-1.3l1.3 1.7c-1.7 1.3-3.6 2-5.6 2-4.3 0-7-3-7-8S736 7 740.3 7c4.3 0 6.3 3 6.3 7.6V16zm-2.7-2c0-3-1.3-4.6-3.6-4.6s-3.6 1.3-3.6 5l7.2-.4zm10.3-12.3c0 1-.7 2-1.7 2s-2-.7-2-1.7.7-2 1.7-2c1-.3 2 .4 2 1.7 0-.3 0 0 0 0zm-.7 21.2h-2.7V7.3h2.7v15.6zM771.8 8c-1.7.3-3 .7-4.6.7 1.7.7 2.7 2.3 2.7 4 0 3-2.3 5.3-5.3 5.3h-.7c-.7 0-1.3 0-2-.3-.3.3-.7 1-.7 1.3 0 .7.3 1.3 2 1.3h2.7c3.3 0 5.3 2 5.3 4.3 0 3-2.7 4.6-7.3 4.6s-6.6-1.7-6.6-4.6h2.7c0 1.7.7 2.7 4.3 2.7s4.6-1 4.6-2.3c0-1.3-1.3-2.3-3-2.3h-2.7c-3 0-4-1.3-4-3 0-1.3.7-2.3 1.7-2.7-1.7-.7-2.7-2.7-2.7-4.3 0-3 2.7-5.6 5.6-5.6h.3c2.3.3 5-.3 7.3-1.3l.4 2.2zm-11.3 4.3c0 2 1.3 3.3 3 3.6h.3c1.7 0 3.3-1 3.3-3v-.7c.3-1.7-1-3.3-2.7-3.6h-.7c-1.5.4-3.2 1.7-3.2 3.7zm25.9-.6V23h-2.7V12c0-2.3-1-3-2.7-3s-3.3 1.3-4 2.7V23h-2.7V1l2.7-.3v8.6c1-1.7 2.7-2.7 4.6-2.7 2.3 0 4.3 1.7 4.6 4 .5.7.5.7.2 1.1zM800 22.3c-1 .7-2.3 1-3.6 1-2.3.3-4-1.3-4.3-3.6V9.3h-2.7v-2h2.7V3.7l2.7-.3v4h3.6l-.3 2h-3.3v9.3c0 1.7.7 2.3 2 2.3.7 0 1.3-.3 2-.7-.1 0 1.2 2 1.2 2z" class="st4"/><path d="M146 105.9c8 0 9.3-2 9.3-13.9V54.1c0-11.9-1.3-13.9-9.3-13.9v-2.7l17.9-3V75c3.6-5 9.3-8.3 15.6-8.6 10.9 0 14.6 7.6 14.6 17.9V92c0 11.9 1.7 13.9 9.6 13.9v2.7h-26.5v-2.7c7.6 0 8.3-1.7 8.3-13.9v-7c0-7.6-2.7-12.9-9-12.9-6.6 0-12.3 5.3-12.9 11.9v7.6c0 12.3 1 13.9 7.6 13.9v2.7H146v-2.3zm62.7 0c2.3 0 5.6-1.7 10.3-7l9-9.6-8-11.3c-4.3-5.6-6.6-7-10.6-7v-2.3h24.2V71c-6.6 0-7.6 1.3-3.3 7l4 5.3 5-5.3c4.6-5 2.3-7-2.7-7v-2.3h19.6V71c-3.3 0-6.6 2-11.3 7l-8 8.6 9 12.3c4 5.3 6.6 7 11.3 7v2.7H232v-2.7c6.3 0 7-2.3 3.6-7l-5-6.3-6 6.3c-4.6 5-3.3 7 2.7 7v2.7H209l-.3-2.7zm52.8 29.9c8 0 9.3-2 9.3-13.9V86c0-11.9-1.3-13.9-9.3-13.9v-2.7l15.9-3c.7 2.3 1.3 4.6 1.7 7.3 3.6-4.6 9-7.3 14.9-7.3 11.6.3 20.9 10.3 20.6 21.9.3 11.6-9 21.6-20.6 21.9-5.6 0-11.3-2.7-14.6-7.3v18.6c0 11.9 1.7 13.9 9.3 13.9v2.7h-27.2v-2.3zm43.4-47.5c0-9.6-4.3-16.9-13.6-16.9-5.6.3-10.6 4-12.3 9.3V96c1.7 5.3 6.6 9.3 12.3 9.6 9.3 0 13.6-7.7 13.6-17.3zm116.8 20.6v-3.3c7-.7 8-1.3 8-9.3V76.7c0-10-4-14.9-11.9-14.9-5 0-9.6 2.3-12.6 6.3v28.2c0 7.6 1 8.6 8 9.3v3.3h-25.9v-3.3c7-.7 8.6-1.3 8.6-9.3V38.9c0-6.3-.3-8-8.3-8.6V27c6-.7 11.9-2 17.9-4v40.8c4.3-4.3 10.9-8.6 17.3-8.6 10 0 16.6 6 16.6 20.6v20.9c0 8 1 8.6 8 9v3.3h-25.7v-.1zm56.8 0v-3.3c5.3-.7 6.3-1.3 4.3-4.6l-9-13.9c-2.7 4.3-5.3 8.6-7.6 12.6s-2 5 4.3 6v3.3h-22.6v-3.3c7.6-1 9-1.7 13.6-7.6 3.3-4.6 6.3-9.3 10-14.6l-10.3-16.3c-3.6-5.6-5-6.6-11.6-7.3v-3.3h23.9v3.3c-5 .7-5.3 1.7-3.3 5l7.3 10.9c2.3-3.3 4.6-7.6 7-11.3 2.3-3.6 1.3-4.3-3.6-5v-3.3h21.9v3.3c-6.6.7-9 1.3-13.6 7.3-1.7 2.3-4.6 6.3-8.6 12.3l11.6 17.6c4.6 6.6 6 7.6 13.3 8.6v3.3h-26.9l-.1.3zm27.8-49.8c6-1 11.6-2.7 17.3-5v9.6c.3-.3 10-5.6 10.3-6 2-1.3 4.3-2 7-2.3 13.3 0 21.2 10.9 21.2 22.9 0 18.2-14.3 29.5-29.9 32.5-3 0-6-.7-8.6-2.3v16.3c0 9 1 9.6 10.3 10.3v3.3h-28.2v-3.3c7.6-.7 8.6-1.3 8.6-9.3V70.7c0-7.3-.3-7.6-8-8.6v-3zm17.6 40.8c3 3 7 4.6 11.3 4.6 10.3 0 16.9-8.6 16.9-22.2 0-12.9-7.6-20.2-15.9-20.2-4.6.7-9 2.3-12.6 5.3l.3 32.5z" class="st6"/></g></g><path d="M157.6 23.6h2.7l-3.6-3.6-3.6 3.6h2.7v6.3H153l3.6 3.6 3.6-3.6h-2.7v-6.3z" class="st7"/></svg>