<svg xmlns="http://www.w3.org/2000/svg" id="Layer_1" viewBox="0 0 680.7 397.5" width="680.7" height="397.5"><style>.st0{fill:#e6e6e6}.st1,.st2,.st3{fill:none;stroke:#000;stroke-width:.5028;stroke-miterlimit:10}.st2,.st3{stroke:#b3b3b3;stroke-width:.9542}.st3{stroke:#ffb400}.st4{fill:#ffb400}</style><path d="M75.7 44.4h226.8v264.7H75.7V44.4zm302.4.1h226.5V309H378.1V44.5z" class="st0"/><path d="M.4.4h340v396.7H.4V.4zm340 0h340v396.7h-340V.4z" class="st1"/><path d="M.4.4l680 396.7m0-396.7L.4 397.1m0 0L340.4.5m340 396.6L340.4.4" class="st2"/><path d="M227 132.7V.4m226.7 132.3V.4M227 .4l226.7 132.1m0-132.1L227.1 132.6" class="st3"/><circle cx="604.7" cy="44.5" r="2.6" class="st4"/><circle cx="75.7" cy="44.4" r="2.5" class="st4"/><circle cx="604.7" cy="308.9" r="2.6" class="st4"/><circle cx="75.7" cy="309.1" r="2.6" class="st4"/><circle cx="378.1" cy="44.5" r="2.6" class="st4"/><circle cx="302.5" cy="44.4" r="2.6" class="st4"/></svg>