<svg xmlns="http://www.w3.org/2000/svg" id="Layer_1" viewBox="0 0 720.8 420.9" width="720.8" height="420.9"><style>.st0{fill:#e6e6e6}.st1,.st2,.st3{fill:none;stroke:#000;stroke-width:.5324;stroke-miterlimit:10}.st2,.st3{stroke:#b3b3b3;stroke-width:1.0103}.st3{stroke:#ffb400}.st4{fill:#ffb400}</style><path d="M80.2 47h240.1v280.3H80.2V47zm320.2.1h239.8v280H400.4v-280z" class="st0"/><path d="M.4.4h360v420H.4V.4zm360 0h360v420h-360V.4z" class="st1"/><path d="M.4.4l720 420m0-420l-720 420m0 0L360.4.5m360 419.9L360.4.4" class="st2"/><path d="M240.4 140.5V.4m240 140.1V.4m-240 0l240 139.9m0-139.9l-239.9 140" class="st3"/><circle cx="640.3" cy="47.1" r="2.7" class="st4"/><circle cx="80.2" cy="47" r="2.7" class="st4"/><circle cx="640.3" cy="327" r="2.7" class="st4"/><circle cx="80.2" cy="327.2" r="2.7" class="st4"/><circle cx="400.4" cy="47.1" r="2.7" class="st4"/><circle cx="320.3" cy="47" r="2.7" class="st4"/></svg>