<svg xmlns="http://www.w3.org/2000/svg" id="Layer_1" viewBox="0 0 800 467" width="800" height="467"><style>.st0{fill:#e6e6e6}.st1,.st2,.st3{fill:none;stroke:#000;stroke-width:.5916;stroke-miterlimit:10}.st2,.st3{stroke:#b3b3b3;stroke-width:1.1226}.st3{stroke:#ffb400}.st4{fill:#ffb400}</style><path d="M88.7 51.9h266.8v311.4H88.7V51.9zm355.8.1H711v311.1H444.5V52z" class="st0"/><path d="M0 .2h400v466.7H0V.2zm400 0h400v466.7H400V.2z" class="st1"/><path d="M0 .2l800 466.7M800 .2L0 466.8m0 0L400 .2m400 466.6L400 .2" class="st2"/><path d="M266.7 155.8V.2m266.6 155.6V.2M266.7.2l266.7 155.5M533.3.2L266.7 155.8" class="st3"/><circle cx="711" cy="52" r="3" class="st4"/><circle cx="88.7" cy="51.9" r="3" class="st4"/><circle cx="711" cy="363.1" r="3" class="st4"/><circle cx="88.7" cy="363.3" r="3" class="st4"/><circle cx="444.5" cy="52" r="3" class="st4"/><circle cx="355.5" cy="51.9" r="3" class="st4"/></svg>