<svg xmlns="http://www.w3.org/2000/svg" id="Layer_1" viewBox="0 0 500 500" width="500" height="500"><style>.st0{fill:#999}.st1{fill:#2997ff}.st2{fill:none;stroke:#2997ff;stroke-width:1.1944;stroke-miterlimit:10}</style><path d="M41.6 122.8c-3.3 2.8-6.5 4.8-9.6 6-3.1 1.2-6.4 1.8-9.9 1.8-5.8 0-10.3-1.4-13.4-4.3-3.1-2.8-4.7-6.4-4.7-10.9 0-2.6.6-4.9 1.8-7.1 1.2-2.1 2.7-3.9 4.6-5.1 1.9-1.3 4.1-2.3 6.4-2.9 1.8-.5 4.4-.9 8-1.4 7.2-.9 12.5-1.9 16-3.1v-2.3c0-3.7-.8-6.2-2.5-7.7-2.3-2-5.7-3-10.2-3-4.2 0-7.3.8-9.3 2.2-2 1.5-3.5 4.1-4.5 7.8l-8.8-1.2c.8-3.7 2.1-6.8 3.9-9.1s4.5-4.1 7.9-5.3c3.5-1.2 7.4-1.9 12-1.9 4.5 0 8.2.5 11 1.6 2.8 1.1 4.9 2.4 6.2 4 1.3 1.6 2.3 3.6 2.8 6.1.3 1.5.4 4.3.4 8.2v11.9c0 8.3.2 13.6.6 15.8.4 2.2 1.2 4.3 2.3 6.3h-9.4c-.8-1.7-1.4-3.9-1.6-6.4zm-.8-20c-3.3 1.3-8.1 2.5-14.6 3.4-3.7.5-6.3 1.1-7.8 1.8s-2.7 1.6-3.5 2.9c-.8 1.3-1.2 2.7-1.2 4.3 0 2.4.9 4.4 2.7 6s4.5 2.4 7.9 2.4 6.5-.8 9.2-2.3c2.7-1.5 4.7-3.6 5.9-6.2 1-2 1.4-5 1.4-9v-3.3z"/><path d="M0 25.3L7.9 4.8h2.9l8.4 20.5h-3.1l-2.4-6.2H5.1l-2.3 6.2H0zm5.9-8.4h7l-2.1-5.7c-.6-1.7-1.2-3.1-1.5-4.3-.3 1.4-.7 2.7-1.1 3.9l-2.3 6.1zM21 25.3V10.5h2.3v2.3c.6-1 1.1-1.8 1.6-2.1.5-.3 1-.5 1.6-.5.8 0 1.7.3 2.6.8l-.9 2.3c-.6-.4-1.2-.6-1.8-.6-.6 0-1 .2-1.5.5-.4.3-.8.8-1 1.4-.3.9-.4 1.9-.4 2.9v7.8H21zm9.6-17.6V4.8h2.5v2.9h-2.5zm0 17.6V10.5h2.5v14.8h-2.5zm16.1-1.8c-.9.8-1.8 1.4-2.7 1.7-.9.3-1.8.5-2.8.5-1.6 0-2.9-.4-3.8-1.2-.9-.8-1.3-1.8-1.3-3.1 0-.7.2-1.4.5-2 .3-.6.8-1.1 1.3-1.4.5-.4 1.2-.6 1.8-.8.5-.1 1.2-.2 2.2-.4 2-.2 3.5-.5 4.5-.9v-.7c0-1-.2-1.8-.7-2.1-.6-.6-1.6-.8-2.9-.8-1.2 0-2.1.2-2.6.6-.6.4-1 1.2-1.2 2.2l-2.5-.3c.2-1 .6-1.9 1.1-2.5.5-.6 1.3-1.2 2.2-1.5 1-.4 2.1-.5 3.4-.5 1.3 0 2.3.2 3.1.4.8.3 1.4.7 1.8 1.1.4.4.6 1 .8 1.7.1.4.1 1.2.1 2.3v3.3c0 2.3 0 3.8.2 4.5.1.6.3 1.2.6 1.8h-2.6c-.3-.6-.5-1.2-.5-1.9zm-.2-5.6c-.9.4-2.3.7-4.1 1-1 .2-1.8.3-2.2.5-.4.2-.8.5-1 .8-.2.4-.4.8-.4 1.2 0 .7.2 1.2.8 1.7.5.4 1.2.7 2.2.7 1 0 1.8-.2 2.6-.6s1.3-1 1.7-1.8c.3-.6.4-1.4.4-2.5v-1zm6.4 7.4V4.8h2.5v20.5h-2.5zM198.1 4.8h2.8v8.5h10.6V4.8h2.8v20.5h-2.8v-9.6H201v9.6h-2.8V4.8zm29.6 5.9c1 .5 1.8 1.2 2.3 2 .5.8.8 1.6 1 2.6.2.7.2 1.8.2 3.3h-10.9c0 1.5.4 2.7 1.1 3.7.7.9 1.7 1.4 3.1 1.4 1.3 0 2.3-.4 3.1-1.3.4-.5.8-1.1.9-1.8h2.5c-.1.6-.3 1.2-.6 1.8-.4.7-.8 1.2-1.2 1.7-.8.8-1.7 1.2-2.8 1.5-.6.2-1.3.2-2 .2-1.9 0-3.4-.7-4.7-2-1.3-1.4-2-3.3-2-5.7 0-2.4.6-4.4 2-5.9 1.3-1.5 3-2.3 5.1-2.3.9.1 1.9.4 2.9.8zm.9 5.9c-.1-1.1-.3-2-.7-2.6-.7-1.2-1.8-1.8-3.4-1.8-1.2 0-2.1.4-2.9 1.2-.8.8-1.2 1.9-1.2 3.2h8.2zm5.9-11.8h2.5v20.5h-2.5V4.8zm7.5 5.5l4 12.2 4.2-12.2h2.7l-5.7 15h-2.7l-5.5-15h3zm22.4.4c1 .5 1.8 1.2 2.3 2 .5.8.8 1.6 1 2.6.2.7.2 1.8.2 3.3H257c0 1.5.4 2.7 1.1 3.7.7.9 1.7 1.4 3.1 1.4 1.3 0 2.3-.4 3.1-1.3.4-.5.8-1.1.9-1.8h2.5c-.1.6-.3 1.2-.6 1.8-.4.7-.8 1.2-1.2 1.7-.8.8-1.7 1.2-2.8 1.5-.6.2-1.3.2-2 .2-1.9 0-3.4-.7-4.7-2-1.3-1.4-2-3.3-2-5.7 0-2.4.6-4.4 2-5.9 1.3-1.5 3-2.3 5.1-2.3.8.1 1.9.4 2.9.8zm.8 5.9c-.1-1.1-.3-2-.7-2.6-.7-1.2-1.8-1.8-3.4-1.8-1.2 0-2.1.4-2.9 1.2-.8.8-1.2 1.9-1.2 3.2h8.2zm6.3-10.4h2.5v4.2h2.4v2.1H274v9.8c0 .5.2.9.5 1 .2.1.5.2 1 .2h.9v2c-.3.1-.6.2-.9.2h-1c-1.2 0-2-.3-2.4-.9-.4-.6-.6-1.4-.6-2.3v-9.9h-2v-2.1h2V6.2zm7.5-1.4h2.5v2.9H279V4.8zm0 5.6h2.5v14.9H279V10.4zm16.2.7c1.1.8 1.7 2.2 1.9 4.3h-2.5c-.2-.9-.5-1.7-1-2.3-.5-.6-1.4-.9-2.5-.9-1.6 0-2.7.8-3.4 2.3-.4 1-.7 2.3-.7 3.7 0 1.5.3 2.7 1 3.8s1.6 1.6 3 1.6c1 0 1.9-.3 2.5-1 .6-.6 1-1.5 1.3-2.6h2.5c-.3 2-1 3.4-2.1 4.4-1.1.9-2.5 1.4-4.3 1.4-2 0-3.5-.7-4.7-2.1-1.2-1.4-1.8-3.2-1.8-5.4 0-2.6.6-4.7 1.9-6.1 1.3-1.5 2.9-2.2 4.9-2.2 1.6-.1 3 .3 4 1.1zm12.5 5.1c.6-.1 1-.3 1.2-.7.1-.2.2-.6.2-1 0-.9-.3-1.5-.9-1.9-.6-.4-1.5-.6-2.6-.6-1.3 0-2.2.4-2.8 1.1-.3.4-.5 1-.6 1.8h-2.3c0-1.9.6-3.1 1.8-3.9 1.2-.7 2.5-1.1 4-1.1 1.8 0 3.2.3 4.3 1 1.1.7 1.6 1.7 1.6 3.1v8.6c0 .3 0 .5.2.6.1.2.3.2.7.2h.4c.2 0 .3 0 .4-.1v1.9c-.4.1-.7.2-.9.2h-.8c-.9 0-1.5-.3-1.9-.9-.2-.3-.4-.8-.4-1.4-.5.7-1.2 1.3-2.2 1.8s-2.1.8-3.2.8c-1.4 0-2.5-.4-3.4-1.3-.9-.8-1.3-1.9-1.3-3.2 0-1.4.4-2.5 1.3-3.2.9-.8 2-1.2 3.4-1.4l3.8-.4zm-5.3 6.8c.5.4 1.2.6 1.9.6.9 0 1.8-.2 2.6-.6 1.4-.7 2.1-1.8 2.1-3.3v-2c-.3.2-.7.4-1.2.5s-1 .2-1.4.3l-1.5.2c-.9.1-1.6.3-2.1.6-.8.4-1.2 1.2-1.2 2.1 0 .6.3 1.2.8 1.6z" class="st0"/><path d="M261.6 97.9c2.1-.3 3.4-1.1 4.1-2.5.4-.8.6-1.9.6-3.4 0-3-1.1-5.2-3.3-6.6-2.1-1.4-5.3-2-9.3-2-4.7 0-8 1.2-9.9 3.7-1.1 1.4-1.8 3.5-2.1 6.2h-8.4c.2-6.5 2.3-11 6.4-13.6 4.1-2.5 8.8-3.8 14.2-3.8 6.3 0 11.3 1.2 15.2 3.5 3.9 2.3 5.8 6.1 5.8 11v30.4c0 .9.2 1.7.6 2.2.4.6 1.2.8 2.4.8.4 0 .8 0 1.4-.1s1-.1 1.6-.2v6.5c-1.4.4-2.5.6-3.2.8-.7.1-1.7.2-3 .2-3.1 0-5.3-1.1-6.7-3.3-.7-1.2-1.2-2.8-1.6-4.9-1.8 2.3-4.5 4.4-7.8 6.1-3.4 1.8-7.2 2.6-11.3 2.6-4.9 0-9-1.5-12.1-4.5-3.1-2.9-4.7-6.7-4.7-11.1 0-4.9 1.6-8.7 4.6-11.3 3.1-2.7 7.1-4.3 12.1-5l14.4-1.7zm-18.8 23.9c1.9 1.5 4.1 2.2 6.7 2.2 3.1 0 6.2-.7 9.2-2.1 5-2.4 7.4-6.3 7.4-11.7V103c-1.1.7-2.5 1.3-4.2 1.7-1.7.5-3.4.8-5.1 1l-5.4.7c-3.2.4-5.7 1.1-7.3 2-2.8 1.6-4.1 4-4.1 7.4-.1 2.6.9 4.6 2.8 6z" class="st1"/><path d="M44.4 276.2l8.8 1.2c-1 6.1-3.4 10.8-7.4 14.3-4 3.4-8.8 5.1-14.6 5.1-7.2 0-13-2.3-17.4-7.1-4.4-4.7-6.6-11.5-6.6-20.3 0-5.7 1-10.7 2.8-15 1.9-4.3 4.8-7.5 8.6-9.6 3.9-2.1 8.1-3.2 12.6-3.2 5.7 0 10.4 1.4 14.1 4.3 3.7 2.9 6 7 7 12.3l-8.7 1.4c-.8-3.5-2.3-6.2-4.4-8-2.1-1.8-4.7-2.7-7.6-2.7-4.5 0-8.2 1.6-11 4.9-2.8 3.2-4.2 8.4-4.2 15.3 0 7.1 1.4 12.3 4.1 15.4 2.7 3.2 6.3 4.8 10.6 4.8 3.5 0 6.4-1.1 8.8-3.2 2.4-2.1 3.9-5.4 4.5-9.9z"/><path d="M271.1 245.1c3.8 2.9 6 7.9 6.8 15h-8.7c-.5-3.3-1.8-6-3.6-8.2-1.9-2.2-4.9-3.3-9.1-3.3-5.7 0-9.8 2.8-12.2 8.4-1.6 3.6-2.4 8.1-2.4 13.4 0 5.3 1.1 9.8 3.4 13.5 2.3 3.6 5.8 5.5 10.6 5.5 3.7 0 6.6-1.1 8.8-3.4 2.2-2.3 3.7-5.4 4.5-9.3h8.8c-1 7-3.5 12.2-7.4 15.5-4 3.3-9.1 4.9-15.2 4.9-7 0-12.5-2.5-16.6-7.6-4.1-5.1-6.2-11.4-6.2-19.1 0-9.4 2.3-16.6 6.8-21.8 4.5-5.2 10.3-7.8 17.4-7.8 5.7-.1 10.6 1.4 14.3 4.3z" class="st1"/><path d="M40.8 465.3l1.3 7.9c-2.5.5-4.8.8-6.8.8-3.3 0-5.8-.5-7.6-1.6s-3.1-2.4-3.8-4.1-1.1-5.2-1.1-10.6v-30.4h-6.5v-7h6.6v-13.1l8.9-5.4v18.4h9v7h-9v30.9c0 2.5.2 4.2.5 4.9.3.7.8 1.3 1.6 1.8.7.4 1.8.6 3.1.6.9.3 2.2.1 3.8-.1z"/><path d="M249 405.2h9V420h8.5v7.3H258v34.8c0 1.9.6 3.1 1.9 3.7.7.4 1.9.6 3.5.6h1.4c.5 0 1.1-.1 1.8-.2v7.1c-1 .3-2.1.5-3.2.6-1.1.1-2.3.2-3.6.2-4.2 0-7-1.1-8.5-3.2s-2.2-4.9-2.2-8.3v-35.3h-7.2V420h7.2l-.1-14.8z" class="st1"/><path d="M479.1 132c-5.8 4.9-11.3 8.4-16.6 10.4-5.3 2-11 3-17.1 3-10.1 0-17.8-2.5-23.2-7.4-5.4-4.9-8.1-11.2-8.1-18.9 0-4.5 1-8.6 3.1-12.3 2-3.7 4.7-6.7 8-8.9s7-3.9 11.2-5.1c3.1-.8 7.6-1.6 13.8-2.3 12.5-1.5 21.8-3.3 27.7-5.3 0-2.1.1-3.5.1-4.1 0-6.3-1.5-10.8-4.4-13.4-4-3.5-9.9-5.3-17.7-5.3-7.3 0-12.7 1.3-16.2 3.8s-6.1 7.1-7.7 13.6l-15.2-2.1c1.4-6.5 3.7-11.7 6.8-15.8 3.1-4 7.7-7.1 13.7-9.2 6-2.1 12.9-3.2 20.8-3.2 7.8 0 14.2.9 19.1 2.7 4.9 1.8 8.5 4.1 10.8 7 2.3 2.8 3.9 6.3 4.8 10.6.5 2.6.8 7.4.8 14.3v20.7c0 14.5.3 23.6 1 27.4s2 7.5 3.9 11h-16.2c-1.6-3.2-2.7-6.9-3.2-11.2zm-1.2-34.8c-5.7 2.3-14.1 4.3-25.4 5.9-6.4.9-10.9 2-13.5 3.1s-4.7 2.8-6.1 5.1c-1.4 2.2-2.1 4.7-2.1 7.4 0 4.1 1.6 7.6 4.7 10.4 3.1 2.7 7.7 4.1 13.8 4.1 6 0 11.3-1.3 16-3.9 4.7-2.6 8.1-6.2 10.3-10.7 1.7-3.5 2.5-8.7 2.5-15.5l-.2-5.9zm6.8 186l15.3 2c-1.7 10.5-5.9 18.8-12.8 24.7-6.9 6-15.3 8.9-25.3 8.9-12.5 0-22.6-4.1-30.3-12.3-7.6-8.2-11.4-19.9-11.4-35.3 0-9.9 1.6-18.6 4.9-26 3.3-7.4 8.3-13 15-16.7 6.7-3.7 14-5.6 21.9-5.6 10 0 18.1 2.5 24.4 7.6 6.3 5 10.4 12.2 12.2 21.5l-15.1 2.3c-1.4-6.2-4-10.8-7.6-13.9-3.7-3.1-8.1-4.7-13.3-4.7-7.8 0-14.2 2.8-19.1 8.4-4.9 5.6-7.3 14.5-7.3 26.6 0 12.3 2.3 21.3 7.1 26.8 4.7 5.6 10.9 8.4 18.5 8.4 6.1 0 11.2-1.9 15.3-5.6 3.9-3.6 6.5-9.3 7.6-17.1zm-10.3 196.6l2.2 13.7c-4.4.9-8.3 1.4-11.7 1.4-5.7 0-10-.9-13.1-2.7-3.1-1.8-5.3-4.1-6.6-7-1.3-2.9-1.9-9-1.9-18.4V414h-11.4v-12h11.4v-22.7l15.4-9.3v32h15.6v12.1h-15.6v53.6c0 4.4.3 7.3.8 8.6s1.4 2.3 2.7 3 3 1.1 5.3 1.1c1.8 0 4-.2 6.9-.6z"/><path d="M466.4 88.8c3.6-.4 6-2 7.2-4.4.7-1.4 1-3.3 1-5.9 0-5.3-1.9-9.1-5.7-11.5-3.7-2.4-9.2-3.5-16.2-3.5-8.1 0-13.9 2.2-17.2 6.5-1.9 2.4-3.1 6-3.7 10.7h-14.5c.3-11.3 4-19.2 11.1-23.6 7.1-4.4 15.3-6.6 24.7-6.6 10.9 0 19.7 2 26.5 6.1 6.7 4.1 10.1 10.5 10.1 19.1v52.7c0 1.6.3 2.9 1 3.9s2.1 1.4 4.2 1.4c.7 0 1.5 0 2.3-.1.9-.1 1.8-.2 2.7-.4v11.3c-2.4.7-4.3 1.1-5.5 1.3-1.3.2-3 .2-5.2.2-5.3 0-9.2-1.9-11.7-5.7-1.3-2-2.1-4.8-2.7-8.4-3.1 4.1-7.7 7.6-13.7 10.7-5.9 3-12.5 4.5-19.6 4.5-8.6 0-15.6-2.6-21-7.7-5.5-5.1-8.2-11.6-8.2-19.3 0-8.5 2.7-15 8-19.7 5.3-4.7 12.4-7.5 21.1-8.6l25-3zm-32.7 41.5c3.3 2.5 7.2 3.8 11.7 3.8 5.5 0 10.7-1.2 15.9-3.7 8.6-4.1 12.9-10.9 12.9-20.4V97.6c-1.9 1.2-4.3 2.2-7.3 3s-5.9 1.4-8.8 1.7l-9.4 1.2c-5.6.8-9.9 1.9-12.7 3.5-4.8 2.7-7.2 6.9-7.2 12.8 0 4.5 1.6 7.9 4.9 10.5zm54.2 99c6.5 5.1 10.5 13.8 11.8 26.2h-15.1c-.9-5.7-3-10.4-6.3-14.2-3.3-3.8-8.6-5.7-15.8-5.7-9.9 0-17 4.8-21.2 14.5-2.7 6.3-4.1 14-4.1 23.2s2 17 5.9 23.4c3.9 6.3 10.1 9.5 18.5 9.5 6.4 0 11.5-2 15.3-5.9 3.8-3.9 6.4-9.3 7.8-16.1h15.1c-1.7 12.3-6.1 21.2-12.9 26.9s-15.7 8.5-26.5 8.5c-12.1 0-21.7-4.4-28.9-13.3-7.2-8.8-10.8-19.9-10.8-33.1 0-16.2 3.9-28.9 11.8-37.9s17.9-13.5 30.1-13.5c10.2-.1 18.7 2.4 25.3 7.5zm-42.6 146.2H461v25.8h14.8V414H461v60.3c0 3.2 1.1 5.4 3.3 6.5 1.2.6 3.2 1 6.1 1h2.4c.9 0 1.9-.1 3-.3v12.3c-1.8.5-3.6.9-5.6 1.1-1.9.2-4 .4-6.3.4-7.2 0-12.2-1.9-14.8-5.6-2.6-3.7-3.9-8.5-3.9-14.5V414h-12.5v-12.7h12.5l.1-25.8z" class="st2"/></svg>