<svg xmlns="http://www.w3.org/2000/svg" width="480" height="267.04" viewBox="0 0 480 267.04"><defs><style>.b312213a-5413-4eb8-aebc-9288c3395cd2{isolation:isolate}.a7556ad3-2216-434d-a77e-0d6ab5423c15{fill:#b3b3b3}.b77c1099-1a28-47da-8135-34d1a2bcd278{fill:none}.ab2376db-96c5-4d64-b9fa-81081539e90b,.b0312168-63ff-4851-b2c0-102d004600f7{fill:#2997ff}.ab2376db-96c5-4d64-b9fa-81081539e90b{mix-blend-mode:multiply}</style></defs><g class="b312213a-5413-4eb8-aebc-9288c3395cd2"><g id="ec6a804c-ca1d-4bf3-bb14-8a3d24b4b963"><g id="e4e49238-60a6-48e0-8d2f-47ff65a8eaad"><path d="M480 128.51c0 42.46-20.71 74.22-39 92.17-23.81 23.47-54.88 31.07-73.52 31.07-36.94 0-76.29-16.23-99.76-42.46-17.61-19.33-29.34-50.4-29.34-78.36 0-29.34 11.73-59.72 39-84.23 21.74-19.7 52.81-31.41 82.84-31.41C423 15.29 480 65.34 480 128.51zM297.74 52.92c-18.3 21-23.47 52.81-23.47 74.56 0 31.76 11.39 60.06 30.37 79.05 22.79 23.47 44.53 31.75 67.66 31.75 35.56 0 73.53-30.37 73.53-95.27 0-30.72-8.29-61.79-32.11-87.33-13.8-15.19-35.55-28-64.55-28-16.57.04-34.17 6.25-51.43 25.24z" class="a7556ad3-2216-434d-a77e-0d6ab5423c15"/><path d="M55.23 112.71a17.57 17.57 0 0 0-8.63 3.11c-10.24 7.17-15.75 24.11-15.54 38.5l50.87-12.93a7.58 7.58 0 0 0 .57-3.13c0-9.67-13.12-25.55-27.27-25.55z" class="b77c1099-1a28-47da-8135-34d1a2bcd278"/><path d="M114.6 146.89L100 150.1c5.36-1.1 10.31-2.22 14.6-3.21zm-68-31.07a17.57 17.57 0 0 1 8.63-3.11c14.15 0 27.27 15.88 27.27 25.55a7.58 7.58 0 0 1-.57 3.13l27.47-7A59.49 59.49 0 0 0 96 111.68c-5.91-5.87-18-12.08-29.38-12.08-9.32 0-21.75 4.48-30.72 10.7-15.13 11.13-29.77 28.64-34.39 51.54l29.55-7.52c-.21-14.39 5.3-31.32 15.54-38.5zm-15.18 49.46L.15 172.19c-.09 1.56-.15 3.13-.15 4.73 0 22.44 10 37.63 15.19 43.49 4.49 4.84 19.67 19.33 44.18 19.33A45 45 0 0 0 72.14 238 124.11 124.11 0 0 0 115 215.24c2.07-2.08 2.41-4.49 3.11-12.78 0-1-4.15-1-5.53.35-11.73 10.35-25.2 16.91-41.08 16.91-23.12 0-41.07-14.49-42.11-48.32-.05-3.54.55-5.58 2.03-6.12z" class="a7556ad3-2216-434d-a77e-0d6ab5423c15"/><path d="M31.76 165.18c12.17-3.68 44.06-9.91 68.28-15.08l14.59-3.22c3.09-1.07 5.5-7.25 6.19-10.35.69-1.38.69-2.41-.35-3.1-1-1-7.59.34-11 1v-.06l-27.47 7a4 4 0 0 1-3.23 2.39c-15.53 4.14-31.41 6.56-47.63 11.05v-.51l-29.63 7.54a75 75 0 0 0-1.36 10.35l31.27-6.91z" class="b0312168-63ff-4851-b2c0-102d004600f7"/><rect width="22.14" height="275.25" x="348.12" y="-4.11" class="ab2376db-96c5-4d64-b9fa-81081539e90b" rx="7.21" transform="rotate(-16.3 358.035 133.255)"/></g></g></g></svg>