<svg xmlns="http://www.w3.org/2000/svg" id="Layer_1" width="800" height="308.7" viewBox="0 0 800 308.7"><style>.st0{fill:#b3b3b3}.st1{fill:#2997ff}.st2{fill:#99cdff}</style><path d="M723.8 45.4c11.4 16.3 15.7 43.4 15.8 106.7h52.8c-1.7-72.4-48.5-132.2-107.9-140V22c16.2 2.9 30.4 11.2 39.3 23.4zm-107 4.6c8.4-14.9 23.5-24.8 41.7-28v-9.8c-59.1 7.8-107.1 68.9-107.9 140h52.8c.2-57.6 4-86.2 13.4-102.2zm3 213.1c-11.9-16.5-16.1-44-16.2-106.7h-52.8c1 71.2 48.8 132 107.9 139.9v-9.8c-16.2-2.9-30.1-11.2-38.9-23.4zm106.5-4.6c-8.4 14.9-23.8 24.8-41.8 28v9.8c25.3-3.2 49-15.9 67.6-36.2 24.9-28.2 40.3-67.6 40.4-103.8h-52.8c-.1 56.9-3.8 86-13.4 102.2zM82.4 287.7c-12.5 0-22.9-4.6-29.5-12.9-7.2-11.2-8.7-35.2-8.7-51.2 0-37 2.9-61.2 8.3-71.6 6.2-11.2 17.5-17 32.4-17 7.8 0 15.9 2.1 21.5 5.1h20.7c-10.8-8.9-26.4-14.7-43.5-14.7C38.3 125.3 0 165.3 0 212.3c0 45.4 37 84.9 79.9 84.9 32.1 0 53.7-17.9 68.2-57h-10.4c-10.3 30.8-29.5 47.5-55.3 47.5z" class="st0"/><path d="M113.6 147.8c0 1.2-.4 1.7-1.7 2.9-5.4 6.2-8.3 13.3-8.3 19.6 0 11.2 7.9 19.6 18.7 19.6 11.6 0 19.6-8.7 19.6-21.7 0-10.7-5.6-20.6-14.7-28.2h-20.7c4.3 2.3 7.1 5.1 7.1 7.8z" class="st1"/><path d="M361.7 196.1l41.3-54h-12.4l-34.3 45.3-30.5-45.4h-44.1l51.6 75.7-46.9 62.5h12l40.3-54.2 37.2 54.2h43.7l-57.9-84.1zm-22.9 30l37.2 54.2-37.2-54.2z" class="st0"/><path d="M298.4 280.2h-12l-3.4 4.5h-22.9v8.3h66.6v-8.3h-31.6l3.3-4.5zm121.3 0H376l3.1 4.5h-17.5v8.3h78.3v-8.3h-17.1l-3.1-4.5zm-96.8-142.4h24.6v-8.3h-87.4v8.3h18.7l2.9 4.2h44.1l-2.9-4.2zM403 142l3.2-4.2h28.3v-8.3h-67.8v8.3h27.1l-3.2 4.2H403zM684.6 12.1V7.6c0-4.7-3.8-8.4-8.4-8.4h-9c-4.7 0-8.4 3.8-8.4 8.4v4.6c4.2-.6 8.4-.8 12.8-.8 4.2-.1 8.6.2 13 .7zm-26 284.2v4.8c0 4.7 3.8 8.4 8.4 8.4h9c4.7 0 8.4-3.8 8.4-8.4v-4.8c-4.2.5-8.5.8-12.8.8-4.3.1-8.7-.2-13-.8zm13.2-275.4c-4.5 0-8.9.4-13.2 1.1v264.5c4.2.8 8.7 1.2 13.2 1.2 4.4 0 8.6-.4 12.7-1.1V22c-4.1-.7-8.4-1.1-12.7-1.1z" class="st1"/><path d="M671.8 20.9c4.3 0 8.6.4 12.8 1.1v-9.8c-4.3-.6-8.7-.9-13.2-.9-4.3 0-8.6.3-12.8.8V22c4.2-.7 8.6-1.1 13.2-1.1zm0 266.8c-4.5 0-8.9-.4-13.2-1.2v9.8c4.3.6 8.7.9 13.2.9 4.3 0 8.5-.3 12.8-.8v-9.9c-4.2.8-8.4 1.2-12.8 1.2z" class="st1"/><path d="M550.7 152.1h-6.6c-.5 0-.9.4-.9.9v2.4c0 .5.4.9.9.9h6.6v-4.2zm248.4 0h-6.6v4.2h6.6c.5 0 .9-.4.9-.9V153c0-.5-.4-.9-.9-.9zm-140.5 0h-55.1v4.3h55.1v-4.3zm26 4.3h55.1v-4.2h-55.1v4.2zm-81.1-1.9v-2.4h-52.8v4.2h52.8v-1.8zm189 1.6v-4h-52.8v4.2h52.8v-.2z" class="st2"/></svg>