<svg xmlns="http://www.w3.org/2000/svg" id="Layer_1" width="800" height="354.5" viewBox="0 0 800 354.5"><style>.st0{fill:#b3b3b3}.st1{fill:#2997ff}</style><path d="M197.9 253.6c-15.8 35.2-51 57.8-89.8 57.8-54.2 0-98.4-43.5-98.4-97.3 0-53.5 42.4-99.5 97-99.5 56 0 99.1 43.5 99.1 99.1v7.2H33.4c2.2 38.8 35.2 69.3 74 69.3 27.3 0 51.7-12.9 65.4-36.6h25.1zm-14.3-52.1c-5.4-38.4-38.8-65.4-77.2-65.4-36.3 0-68.6 29.8-72.9 65.4h150.1zm346.7-24.1c0-74.7 60.3-134.3 135.4-134.3 73.6 0 134.3 59.6 134.3 132.5 0 74.7-59.3 135.8-134.3 135.8-74.7 0-135.4-59.6-135.4-134zm243.9-.7c0-58.9-48.5-107.8-108.5-107.8-60.3 0-109.5 48.1-109.5 107.8 0 60.3 48.5 108.8 109.2 108.8v.4c60.3-.4 108.8-49.2 108.8-109.2z" class="st0"/><g id="Layer_2_00000122700580760625442030000008156785929231092648_"><path id="Layer_1-2" d="M660 17.6h10.4c5.4 0 9.7 4.3 9.7 9.7v300c0 5.4-4.3 9.7-9.7 9.7H660c-5.4 0-9.7-4.3-9.7-9.7v-300c0-5.4 4.3-9.7 9.7-9.7z" class="st1"/></g><path d="M349.9 204.3l70.7-64.3h30.9v-22.3h-88.7V140h28.4l-69.3 61.8V72.1h-56.1 32.4V284h-32.4v22.3h84.8V284h-28.7v-76l75.3 76h32l-79.3-79.7z" class="st0"/><path d="M265.9 49.9h56v22.2h-56V49.9zm104.9 234.2v22.3h92.6v-22.3h-34.1l-.1-.1h-32l.1.1h-26.5zm-263.1 36.6c-28.8 0-55.8-11.2-76.2-31.5S0 241.8 0 213s11.2-55.8 31.5-76.2 47.4-31.5 76.2-31.5 55.8 11.2 76.2 31.5c20.3 20.3 31.5 47.4 31.5 76.2s-11.2 55.8-31.5 76.2c-20.4 20.3-47.5 31.5-76.2 31.5zm0-210.8c-27.5 0-53.4 10.7-72.9 30.2S4.6 185.5 4.6 213s10.7 53.4 30.2 72.9 45.4 30.2 72.9 30.2 53.4-10.7 72.9-30.2c19.4-19.5 30.2-45.4 30.2-72.9s-10.7-53.4-30.2-72.9-45.4-30.2-72.9-30.2z" class="st1"/></svg>