<svg xmlns="http://www.w3.org/2000/svg" viewBox="0 0 489.29 213.36" width="489.29" height="213.36"><defs><style>.b6818cdf-d2aa-4192-b190-f7264d65bb1f{isolation:isolate}.b52028e2-6fea-43fc-b643-a0a83c514f85,.b7672683-b519-4bc0-b6b1-3b869d3b5b33{fill:none}.b7672683-b519-4bc0-b6b1-3b869d3b5b33{stroke:#2997ff;stroke-miterlimit:10;stroke-width:6px}.f338ca0a-ac30-4d04-b328-c9a1b121e106{fill:#b3b3b3}.e71d5656-5909-4a22-bda4-fc21acd69af8,.ef021b77-e09d-42f9-8a8f-41c95358b98f{fill:#2997ff}.e71d5656-5909-4a22-bda4-fc21acd69af8{mix-blend-mode:multiply}</style></defs><g class="b6818cdf-d2aa-4192-b190-f7264d65bb1f"><g id="e370ad86-8389-41fc-9890-a10a5f95197b"><g id="a8c862f2-38c9-446d-8b04-c86620db3d50"><circle cx="85.92" cy="127.44" r="82.92" class="b7672683-b519-4bc0-b6b1-3b869d3b5b33"/><path d="M412.66 50.53c-42.94 0-77.75 34.24-77.75 77.19 0 42.1 34.53 76.63 77.19 76.63 43.23 0 77.19-35.09 77.19-78 0-41.58-34.8-75.82-76.63-75.82zm-.56 135.57c-32.84 0-58.66-26.94-58.66-58.94 0-32.28 26.38-58.39 58.94-58.39s58.39 26.67 58.39 58.67a58.64 58.64 0 0 1-58.67 58.66z" class="f338ca0a-ac30-4d04-b328-c9a1b121e106"/><path d="M84.8 67.37c-28.35 0-53.61 23.3-57 51.08h117.35c-4.21-30.03-30.31-51.08-60.35-51.08zm327.58 1.4c-32.56 0-58.94 26.11-58.94 58.39 0 32 25.82 58.94 58.66 58.94a58.64 58.64 0 0 0 58.67-58.66c0-32-25.83-58.67-58.39-58.67z" class="b52028e2-6fea-43fc-b643-a0a83c514f85"/><path d="M85.08 50.53c-42.66 0-75.79 35.93-75.79 77.75 0 42.1 34.53 76.07 76.91 76.07a76.84 76.84 0 0 0 70.18-45.19h-19.65c-10.67 18.52-29.75 28.63-51.09 28.63-30.31 0-56.14-23.86-57.82-54.18h134.73V128c0-43.51-33.68-77.47-77.47-77.47zm-57.26 67.92c3.37-27.78 28.63-51.08 57-51.08 30 0 56.14 21 60.35 51.08z" class="f338ca0a-ac30-4d04-b328-c9a1b121e106"/><path d="M216.45 0h-43.79v17.4h43.79V0zm-18.53 183.02h-25.26v17.4h66.25v-17.4h-40.99z" class="ef021b77-e09d-42f9-8a8f-41c95358b98f"/><path d="M216.45 183.02v-59.51l58.95 59.51h24.98l-62.04-62.32 55.3-50.25h-23.01l-54.18 48.29V17.4h-18.53v165.62h18.53z" class="f338ca0a-ac30-4d04-b328-c9a1b121e106"/><path d="M275.4 183.02h-20.77v17.4h72.42v-17.4H275.4zm26.78-112.57h15.6v-17.4h-69.33v17.4h53.73z" class="ef021b77-e09d-42f9-8a8f-41c95358b98f"/><rect width="20.56" height="165.85" x="401.82" y="44.51" class="e71d5656-5909-4a22-bda4-fc21acd69af8" rx="4.19"/></g></g></g></svg>