<svg xmlns="http://www.w3.org/2000/svg" width="1161.17" height="693.06" viewBox="0 0 1161.17 693.06"><defs><style>.cls-1{fill:#b3b3b3}</style></defs><g id="Layer_2"><path id="Layer_1-2" d="M362 189.47c0 3.54-19.47 21.24-38.94 41.6-18.59 19.47-36.29 38.06-36.29 44.25 0 12.39 18.59 24.78 18.59 76.12 0 23-16.82 70.8-27.44 85-16.81 23.9-17.7 27.44-38.05 52.22-5.31 7.08-17.7 23.89-22.13 24.78s-4.43-2.66-4.43-3.54c-.88-8.85 19.48-31 19.48-67.27 0-20.35-15-61.95-20.36-77C200.92 382.41 193 394.8 183.22 409c-14.16 19.47-18.58 29.21-28.32 40.72 3.54 10.62 6.2 15 6.2 31 0 15.05-4.43 30.09-14.16 46a260.9 260.9 0 0 1-31.86 35.41c6.19 0 29.2 1.76 48.67 10.62 21.24 10.62 25.67 18.58 33.63 27.43 10.63-9.73 17.71-17.7 23-17.7s4.42 2.66 4.42 7.08c0 5.31-23 25.67-45.14 52.22-23.89 26.55-46 51.33-53.1 51.33-5.31 0-28.32-44.25-85.85-39.83-18.58 1.77-23 10.62-31 12.4-2.66.88-4.43-.89-3.54-4.43C7.1 655 23 637.3 39 619.6c19.47-23.89 27.44-30.09 39.83-47.79 0-6.19 2.65-15-3.54-34.52-7.08-23.89-23.9-60.18-23.9-85 0-45.14 33.63-78.77 47.79-93.81-14.16 3.54-29.2 8.85-47.79 7.08-25.7-2.62-49.6-20.32-51.39-32.71-.88-7.08 26.55-33.63 45.14-53.1C57.55 266.47 75.25 247 77.9 247c6.2 0 15.93 31 73.46 31 42.48 0 54.87-9.74 58.41-8.85 1.78.88 3.54.88 3.54 3.54 0 5.31-46.9 42.48-68.14 65.49-7.08 14.16-9.74 22.13-9.74 31.86 0 .89 8.85 42.48 16.82 61.07 11.5-16.82 24.78-36.29 36.28-53.1 30.1-38.94 54.88-77 91.16-119.48 28.33-33.63 71.69-76.12 77-76.12 1.77-.02 5.31 4.41 5.31 7.06zm658.45 364.64c-77 66.38-180.55 126.56-230.11 126.56-131.87 0-327.47-92-327.47-313.3 0-103.55 55.76-187.63 128.33-249.58 52.22-45.14 104.44-72.58 165.51-100.9 22.12-10.62 54-17.7 58.41-16.82s6.19 0 6.19 4.43c0 5.31-34.51 20.36-61.95 31.86-45.13 16.82-108 46.91-138.06 93.82-8 14.16-15 21.24-21.25 35.4 14.17.88 67.27-4.43 104.44-17.7 36.29-13.28 54-25.67 84.08-47.8 18.58-12.39 31.86-26.55 46.91-35.4C862 46.1 902.74 16 908.93 16c11.51 0 21.24 30.09 32.75 38.05 35.4 20.36 71.69 39.83 102.67 58.41 63.72 40.72 116.82 96.47 116.82 212.41 0 107.13-64.61 161.98-140.72 229.24zM685 509c-1.77-22.12-7.08-43.36-8-54.87-2.65 0-4.42.89-8-.88-4.43-2.66-6.2-10.63-6.2-14.17-1.77-4.42 0-9.73.89-16.81-14.16.88-23.9-9.74-24.78-24.78-.89-10.62 4.42-23.9 9.73-32.75-7.08-5.31-13.27-11.5-12.39-24.78.89-14.16 12.39-17.7 17.7-20.36 6.2-4.42 8.85-6.19 11.51-8.85 1.77-21.24-2.66-45.13-6.2-76.11-1.77-24.78-5.31-49.56-6.19-60.18-12.39.88-17.7.88-31.86 2.65-10.62 1.77-19.48 1.77-28.33 2.66-8.85 14.16-33.63 73.46-33.63 128.33 0 57.53 21.24 115.94 41.6 151.34 35.4 62.84 70.8 80.54 86.73 85.85.09-14.19-1.68-21.29-2.58-36.29zm18.6-148.71c-7.08-76.12-14.16-169-15.93-195.6-9.73 2.66-13.27 0-23 5.31 0 9.74 2.66 33.63 6.2 64.61 2.65 25.67 5.31 61.07 7.08 79.65 1.77 7.08-2.66 10.62-7.08 13.28-3.54 2.65-6.2.89-10.62 2.65-4.43 3.54-10.62 5.32-10.62 9.74 0 5.31 6.19 11.51 9.73 12.39 9.74 3.54 13.28 1.77 13.28 8 0 8-5.31 9.73-15.93 17.7-3.54 2.65-6.2 10.62-6.2 17.7 0 6.19 2.66 7.08 7.08 9.73 3.54 2.66 7.08-1.77 9.74-1.77 4.42 0 9.73 4.43 9.73 10.62 0 1.77-3.54 15.05-4.42 26.55 5.31-6.19 7.08-6.19 11.5-5.31 1.77.89 2.66 0 3.54 2.66 2.66 10.62 2.66 23.9 5.31 44.25 4.43 30.09 8 57.53 8 69 6.19 4.43 12.39 8 17.7 8.85-4.46-38.05-10.69-148.68-15.09-200.01zm47.8 37.17c-4.43-47.79-10.62-100.9-18.59-152.23-4.42-36.29-7.08-84.08-8-92-4.43 1.77-16.82 4.42-25.67 8 1.77 25.67 13.27 120.37 20.35 197.37 5.32 69.91 9.74 178.77 14.17 207.1 9.73 3.54 21.24 9.73 38 12.39-6.1-44.34-12.3-119.56-20.26-180.63zm167.27-234.54C892.12 147 878 139 864.68 131.06c-28.32-18.59-38.94-28.32-44.25-36.29-13.28 8-21.24 15-44.25 30.1-16.82 8.85-25.67 13.27-38.94 22.12.88 15.93 5.31 61.95 9.73 101.78 3.54 39.83 9.74 76.11 12.39 100 27.44-9.73 86.74-40.71 138.07-58.41 62.84-23.9 115.05-43.37 123.9-44.25-16.81-37.17-97.33-79.65-102.66-83.19zm112.4 94.7c-23 7.08-78.77 25.67-126.56 44.25C847 324 816 336.39 761.13 361.17v25.67c42.48-26.55 101.78-46.91 140.72-62 77-29.2 123-40.71 138.07-46a153.54 153.54 0 0 0-8.85-21.22zm12.39 32.75c-8.85 2.65-73.46 23-145.15 48.68C847 357.63 785 383.3 764.67 401l2.66 25.66c47.79-23 95.58-43.36 136.29-59.29 78.77-29.21 138.07-48.68 146.92-52.22-1.77-10.62-2.65-15.05-7.08-24.78zm8.85 35.4c-14.16 4.42-91.16 30.09-146.92 53.1-53.1 21.24-104.43 44.25-134.52 60.18.88 23 11.5 121.25 13.27 144.27C801 588.63 833.71 601 874.42 601c44.25 0 90.27-20.36 123-54 42.48-40.71 64.61-100 64.61-162 .02-20.29-7.03-45.95-9.72-59.23z" class="cls-1"/></g></svg>