<svg xmlns="http://www.w3.org/2000/svg" width="1126.38" height="775.62" viewBox="0 0 1126.38 775.62"><defs><style>.cls-1{isolation:isolate}.cls-2{fill:#b3b3b3}.cls-3,.cls-4{fill:#2997ff}.cls-3{mix-blend-mode:multiply}</style></defs><g class="cls-1"><g id="Layer_2"><g id="Layer_1-2"><path d="M1126.38 387.29c0 103.25-33 202.36-91.89 271.54-49.56 58.84-111.5 86.72-192 86.72-81.56 0-147.63-29.94-196.16-88.79-54.72-68.14-84.66-160-84.66-267.4 0-212.69 115.64-359.29 282.89-359.29 169.28 0 281.82 142.47 281.82 357.22zm-474.92 3.1c0 171.39 76.39 285 193.06 285 115.64 0 192-114.61 192-289.09 0-178.61-72.26-286-193.06-286-116.64-.03-192 114.57-192 290.09z" class="cls-2"/><rect width="64.79" height="775.62" x="811.61" class="cls-3" rx="21.1"/><path d="M222 208.68c-39.24 0-77.44 17.55-100.15 44.4-18.58 22.71-27.88 38.2-52.66 88.79v-37.71H0v344.52h79.5v-186c2.06-108.4 75.37-184.81 171.38-176.55v-75.39c-11.35-1.03-22.71-2.06-28.88-2.06z" class="cls-2"/><path d="M0 223.14h69.17v81.03H0zm0 425.54h79.5v83.45H0z" class="cls-4"/></g></g></g></svg>