<svg xmlns="http://www.w3.org/2000/svg" id="Layer_1" viewBox="0 0 480 185.2" width="480" height="185.2"><style>.st0{fill:#b3b3b3}.st1{fill:#2997ff}.st2{fill:none}</style><g id="bc8f7ab2-632f-425c-8036-6f0cc552079c"><g id="f565f1a1-9463-47fe-9761-b1f025e7dfc3"><path d="M480 93.7c0 21.6-9.2 45.2-24.1 62.1-12.9 14.1-30 22.1-47.9 22.1-39.2 0-72.3-39.2-72.3-85.4 0-45.9 33-85.2 72-85.2 39.8 0 72.3 38.9 72.3 86.4zM375.2 30.4c-5.7 9.7-7.9 27.1-7.9 62.3 0 38.2 2.5 54.9 9.7 64.8 6.7 9.2 18.1 14.7 31.1 14.7 13.9 0 26.3-6.5 32.5-17.4 5.7-9.7 7.9-27.1 7.9-61.1 0-39.5-2.5-56.1-9.4-66C432.3 18.4 420.7 13 408 13c-14.4 0-26.6 6.4-32.8 17.4zM31.5 164.5c4 4.9 10.2 7.7 17.6 7.7 15.4 0 26.8-9.9 33-28.3h6.2c-8.7 23.3-21.6 34-40.8 34-25.4 0-47.5-23.6-47.5-50.7 0-28.1 22.8-51.9 49.9-51.9 10.2 0 19.5 3.4 26 8.8H63.5c-4-2-8.4-3-12.9-3-8.9 0-15.6 3.5-19.4 10.2-3.2 6.2-4.9 20.6-4.9 42.7 0 9.4 1 23.8 5.2 30.5z" class="st0"/><path d="M67.8 88.7c0 .7-.2 1-1 1.7-3.2 3.7-4.9 7.9-4.9 11.7 0 6.7 4.7 11.7 11.2 11.7 7 0 11.7-5.2 11.7-12.9 0-6.4-3.4-12.3-8.8-16.8H63.5c2.6 1.3 4.3 3 4.3 4.6z" class="st1"/><path d="M202.1 135.4l-24 32.3h46.3l-22.3-32.3zm10.5-23.1l20.4-27h-38.6l18.2 27z" class="st2"/><path d="M240.4 85.2H233l-20.4 27-18.2-27h-26.3l30.8 45.2-28 37.3h7.2l24-32.3 22.2 32.3h26.1l-34.6-50.2 24.6-32.3z" class="st0"/><path d="M226.2 170.4h-10.4v5h46.7v-5h-10.2l-1.9-2.7h-26.1l1.9 2.7zm-71 0v5h39.7v-5H176l2-2.7h-7.2l-2 2.7h-13.6zm37.5-87.7h14.6v-5h-52.1v5h11.2l1.7 2.5h26.3l-1.7-2.5zm66.5 0v-5h-40.5v5h16.1l-1.9 2.5h7.4l1.9-2.5h17zM405.2 0h5.4c2.8 0 5 2.3 5 5v175.2c0 2.8-2.3 5-5 5h-5.4c-2.8 0-5-2.3-5-5V5c-.1-2.7 2.2-5 5-5z" class="st1"/></g></g></svg>