<svg xmlns="http://www.w3.org/2000/svg" viewBox="0 0 480 286.49" width="480" height="286.49"><defs><style>.e5cd0cd2-c04d-42bd-a6f4-4fd5049a5b0d{fill:#b3b3b3}</style></defs><g id="f3e152ee-e919-4551-ae4a-699e04a439fd"><path id="ad81f26a-a20e-406c-a2d4-da17d3b5aa5e" d="M149.64 78.32c0 1.47-8 8.78-16.09 17.2-7.69 8-15 15.73-15 18.29 0 5.12 7.68 10.25 7.68 31.47 0 9.51-7 29.26-11.34 35.12-7 9.88-7.32 11.34-15.73 21.58-2.2 2.93-7.32 9.88-9.15 10.25s-1.83-1.1-1.83-1.47c-.37-3.66 8-12.8 8-27.8 0-8.42-6.22-25.61-8.42-31.83-4.75 7-8 12.07-12.07 17.93-5.85 8-7.68 12.07-11.71 16.82 1.47 4.4 2.56 6.22 2.56 12.81 0 6.22-1.83 12.44-5.85 19a107.06 107.06 0 0 1-13.17 14.64 56.32 56.32 0 0 1 20.12 4.39c8.78 4.39 10.61 7.68 13.9 11.34 4.39-4 7.32-7.32 9.52-7.32s1.83 1.1 1.83 2.93c0 2.19-9.52 10.61-18.66 21.59-9.88 11-19 21.21-22 21.21-2.2 0-11.71-18.29-35.49-16.46-7.69.73-9.51 4.39-12.81 5.12-1.09.37-1.83-.36-1.46-1.83.37-2.56 7-9.87 13.54-17.19 8-9.88 11.34-12.44 16.46-19.76 0-2.56 1.1-6.22-1.46-14.27-2.93-9.87-9.88-24.87-9.88-35.12 0-18.66 13.9-32.56 19.75-38.78-5.85 1.47-12.07 3.66-19.75 2.93C10.62 150 .74 142.71 0 137.59c-.37-2.92 11-13.9 18.66-22 5.12-5.49 12.44-13.54 13.53-13.54 2.56 0 6.59 12.81 30.37 12.81 17.56 0 22.68-4 24.15-3.66.73.37 1.46.37 1.46 1.46 0 2.2-19.39 17.56-28.17 27.08-2.93 5.85-4 9.14-4 13.17 0 .36 3.66 17.56 7 25.24 4.75-6.95 10.24-15 15-21.95 12.43-16.1 22.68-31.83 37.68-49.39C127.33 93 145.25 75.4 147.45 75.4c.73 0 2.19 1.83 2.19 2.92zm272.19 150.74c-31.83 27.43-74.64 52.31-95.12 52.31-54.52 0-135.37-38.05-135.37-129.51 0-42.8 23-77.56 53-103.17C266 30 287.56 18.69 312.8 7 322 2.59 335.12-.33 337 0s2.56 0 2.56 1.83c0 2.2-14.27 8.41-25.61 13.17-18.66 7-44.63 19.39-57.07 38.78-3.29 5.86-6.22 8.78-8.78 14.64 5.85.36 27.8-1.83 43.17-7.32 15-5.49 22.32-10.61 34.76-19.76 7.68-5.12 13.17-11 19.39-14.63 11-7.68 27.8-20.12 30.36-20.12 4.76 0 8.78 12.44 13.54 15.73 14.63 8.41 29.63 16.46 42.44 24.14C458.05 63.32 480 86.37 480 134.3c0 44.27-26.71 66.95-58.17 94.76zM283.17 210.4c-.73-9.15-2.93-17.93-3.29-22.69-1.1 0-1.83.37-3.3-.36-1.82-1.1-2.56-4.39-2.56-5.86-.73-1.82 0-4 .37-7-5.85.37-9.88-4-10.24-10.24-.37-4.39 1.82-9.88 4-13.54-2.93-2.19-5.49-4.75-5.12-10.24.36-5.85 5.12-7.32 7.32-8.42a38 38 0 0 0 4.75-3.65c.73-8.78-1.1-18.66-2.56-31.47-.73-10.24-2.19-20.49-2.56-24.88-5.12.37-7.32.37-13.17 1.1-4.39.73-8 .73-11.71 1.1-3.66 5.85-13.9 30.37-13.9 53.05 0 23.78 8.78 47.93 17.19 62.56 14.64 26 29.27 33.29 35.86 35.49.02-5.81-.71-8.73-1.08-14.95zm7.68-61.47c-2.92-31.46-5.85-69.87-6.58-80.85-4 1.1-5.49 0-9.51 2.19 0 4 1.09 13.91 2.56 26.71 1.09 10.61 2.19 25.25 2.92 32.93.74 2.93-1.09 4.39-2.92 5.49-1.47 1.09-2.56.36-4.39 1.09-1.83 1.47-4.39 2.2-4.39 4 0 2.19 2.56 4.76 4 5.12 4 1.46 5.49.73 5.49 3.29 0 3.3-2.2 4-6.59 7.32-1.46 1.1-2.56 4.39-2.56 7.32 0 2.56 1.1 2.92 2.93 4 1.46 1.1 2.93-.73 4-.73a4.4 4.4 0 0 1 4 4.39c0 .73-1.47 6.22-1.83 11 2.19-2.56 2.93-2.56 4.75-2.2.74.37 1.1 0 1.47 1.1 1.1 4.39 1.1 9.88 2.19 18.29 1.83 12.44 3.3 23.78 3.3 28.54 2.56 1.83 5.12 3.29 7.31 3.66-1.76-15.71-4.32-61.44-6.15-82.66zm19.76 15.37c-1.83-19.76-4.39-41.71-7.68-62.93-1.83-15-2.93-34.75-3.3-38.05-1.83.74-6.95 1.83-10.61 3.3.74 10.61 5.49 49.75 8.42 81.58 2.19 28.9 4 73.9 5.85 85.61 4 1.47 8.78 4 15.73 5.12-2.56-18.29-5.12-49.39-8.41-74.63zm69.15-97c-11-6.59-16.83-9.88-22.32-13.17-11.71-7.69-16.1-11.71-18.29-15-5.49 3.29-8.78 6.22-18.3 12.44-7 3.66-10.61 5.48-16.09 9.14.36 6.59 2.19 25.61 4 42.08 1.46 16.46 4 31.46 5.12 41.34 11.34-4 35.86-16.83 57.08-24.15 26-9.88 47.56-17.93 51.21-18.29-6.93-15.32-40.17-32.88-42.41-34.34zm46.46 39.14c-9.51 2.93-32.56 10.61-52.32 18.3-23.78 9.14-36.58 14.27-59.27 24.51v10.61c17.56-11 42.08-19.39 58.17-25.61 31.83-12.07 50.86-16.83 57.08-19a63.75 63.75 0 0 0-3.66-8.76zm5.12 13.56c-3.66 1.1-30.36 9.51-60 20.12-21.22 7.69-46.83 18.3-55.24 25.61l1.09 10.61c19.76-9.51 39.52-17.92 56.35-24.51 32.56-12.07 57.07-20.12 60.73-21.59a32.91 32.91 0 0 0-2.93-10.24zm3.66 14.67c-5.85 1.82-37.68 12.43-60.73 22-21.95 8.78-43.17 18.29-55.61 24.87.36 9.52 4.75 50.13 5.49 59.64 7 2.19 20.48 7.32 37.31 7.32 18.3 0 37.32-8.42 50.86-22.32 17.56-16.83 26.7-41.34 26.7-66.95-.02-8.47-2.92-19.08-4.02-24.56z" class="e5cd0cd2-c04d-42bd-a6f4-4fd5049a5b0d"/></g></svg>