<svg xmlns="http://www.w3.org/2000/svg" id="Layer_1" width="800" height="319.2" viewBox="0 0 800 319.2"><style>.st0{fill:#b3b3b3}.st1{fill:none}.st2{fill:#2997ff}</style><g id="Layer_2_00000183212487048586890800000013042233992550751382_"><g id="Layer_1-2"><path d="M800 153.5c0 51.6-25.1 90.1-47.4 111.9-28.9 28.5-66.7 37.7-89.3 37.7-44.8 0-92.6-19.7-121.1-51.6-21.4-23.5-35.6-61.2-35.6-95.1 0-35.6 14.2-72.5 47.4-102.3C580.4 30.3 618.1 16 654.6 16 730.8 16 800 76.8 800 153.5zM578.7 61.7c-22.2 25.6-28.5 64.1-28.5 90.5 0 38.6 13.8 72.9 36.9 96 27.7 28.5 54.1 38.6 82.1 38.6 43.2 0 89.3-36.9 89.3-115.7 0-37.3-10-75-39-106-16.8-18.5-43.2-33.9-78.4-33.9-20.1-.1-41.4 7.4-62.4 30.5z" class="st0"/><path d="M67.1 134.3c-2.5 0-6.7 1.2-10.5 3.8-12.4 8.7-19.1 29.3-18.9 46.8l61.8-15.7c.5-1.2.7-2.5.7-3.8 0-11.8-15.9-31.1-33.1-31.1z" class="st1"/><path d="M139.1 175.8l-17.7 3.9c6.5-1.4 12.6-2.7 17.7-3.9zm-82.5-37.7c3.8-2.5 8-3.8 10.5-3.8 17.2 0 33.1 19.3 33.1 31 0 1.3-.2 2.6-.7 3.8l33.4-8.5c-3.8-11.3-9.2-20.1-16.3-27.6-7.1-7.1-21.8-14.7-35.6-14.7-11.3 0-26.4 5.4-37.3 13C25.2 144.9 7.4 166.2 1.8 194l35.9-9.1c-.2-17.5 6.4-38.1 18.9-46.8zm-18.4 60.1l-38 8.4c-.2 1.8-.2 3.8-.2 5.7 0 27.3 12.2 45.7 18.5 52.8 5.4 5.9 23.9 23.5 53.6 23.5 4.2 0 10-.4 15.5-2.1 13.9-4.2 33.9-12.6 52-27.7 2.5-2.5 2.9-5.4 3.8-15.5 0-1.2-5-1.2-6.7.4-14.3 12.6-30.6 20.5-49.9 20.5-28.1 0-49.9-17.6-51.2-58.7 0-4.2.7-6.7 2.6-7.3z" class="st0"/><path d="M38.6 198c14.8-4.5 53.5-12 82.9-18.3l17.7-3.9c3.7-1.3 6.7-8.8 7.5-12.6.8-1.7.8-2.9-.4-3.8-1.2-1.2-9.2.4-13.4 1.2v-.1L99.5 169a4.9 4.9 0 0 1-3.9 2.9c-18.9 5.1-38.2 8-57.9 13.4v-.6L1.9 194c-.8 4.1-1.4 8.3-1.7 12.6l38-8.4c.1-.1.3-.1.4-.2zM602.2.4l9-2.6c4.6-1.4 9.5 1.3 10.9 6l88.4 304.1c1.4 4.6-1.3 9.5-6 10.9l-9 2.6c-4.6 1.4-9.5-1.3-10.9-6L596.2 11.3c-1.3-4.7 1.3-9.5 6-10.9z" class="st2"/></g></g><path d="M433 277.5c-21-3.6-23.3-5.9-41.9-23.7-14.2-13-44.2-43.1-51.7-51.7-4.4-4.7-3.2-6.7 0-9.5 17.8-14.2 34-27.3 44.2-34.3 10.7-7.5 21-11.4 32.8-13 3.2-.4 4.7-.8 5.5-3.9.8-2.8.8-5.1.8-7.5 0-1.2-.4-1.6-2.4-1.6-20.9 2-48.2 3.2-69.1 3.2-1.6 0-2.4.8-2.8 3.6l-2 7.9c-.4 1.6.4 2.4 2 2.4h11.1c3.6 0 5.9 2 2.8 5.1C352 165.9 322 192 316.9 196c-5.5 4.7-10.3 7.1-11.4 7.1-1.6 0-2-.8-2-4.7l1.6-122c.2-8.7.3-16.2.4-22.6h-31.8c.5 2.7.9 6.3 1 11.5 1.2 32 .4 68 .4 101.1 0 58.5-1.6 93.6-4.4 103.1-1.6 4.4-4.7 5.1-17 7.9-2 .4-2.4 2-2.8 4.4l-1.2 5.5c-.4 2 .4 2.4 2.4 2.4 7.1 0 24.5-.8 39.1-.8 20.2 0 28 .8 30.4.8 2 0 3.2-.4 3.6-2 1.2-2.8 1.6-5.5 1.6-9.9 0-3.6-.4-4.4-2.4-4.4-3.9 0-13 .8-16.6.8-2.8 0-5.1-4.4-5.1-26.1v-29.2c.4-5.1.8-7.1 2.4-7.1s5.5 1.6 10.7 6.7c17.8 18.5 35.1 35.9 52.5 53.3 3.6 3.6.8 4.7-9.1 6.3-1.2 0-2 .8-.4 5.5l2 4.7c.4 1.2.8 1.6 2.4 1.6 26.5-.4 40.3-.8 50.6 0 7.5 0 15 .4 19.4.4 1.6 0 2.4-.8 2.4-3.2-.3-8-.3-9.2-2.6-9.6z" class="st0"/><path d="M305.4 17.2c0-5.9-1.6-7.5-5.9-6.3-3.6 1.6-39.9 15.8-43.1 18.5-.8 1.6-1.2 5.1 1.6 7.1 2 2 6.3 5.1 11.4 9.5 2.1 1.8 3.4 3.7 4.1 7.4h31.8c.4-23.4.1-32.5.1-36.2z" class="st2"/></svg>