<svg xmlns="http://www.w3.org/2000/svg" id="Layer_1" viewBox="0 0 500 540.1" width="500" height="540.1"><style>.st0{fill:none}.st1{fill:#2997ff}.st2{fill:none;stroke:#2997ff;stroke-width:.7916;stroke-miterlimit:10}.st3{fill:#b3b3b3}.st4{fill:#505050}</style><path d="M304.8 185.8l-45.1-50.7v45.6c0 7.2 1.1 11.6 3.2 13.3s6.9 2.6 14.2 2.6v.9h37.1c-1.4-2.4-3.4-5.2-6.2-8.4-1.5-1.4-2.6-2.5-3.2-3.3z" class="st0"/><path d="M218.8 206c4.6-.5 9.2-.9 13.6-1.2 4.5-.2 9.6-.4 15.2-.4 3.8 0 8.1.1 12.9.4 4.9.2 10.4.7 16.5 1.2v-8.4h-58.4l.2 8.4zm95.4-8.4c1.1 2.2 1.8 4.1 1.8 5.8l.1 2.6c6.6-.6 10.9-1 13.1-1.1s3.9-.2 5.4-.2c3 0 6.4.1 10.2.3 3.8.2 8.2.6 13.4 1l.4-8.4h-44.4z" class="st1"/><path d="M85.1 191.3c-3-3.8-17.2-18.8-30.8-34.7-2.8-3.3-5.4-6.3-6.8-6.3-1.1 0-1.4 1.6-1.4 2.2-1.4 3.6-1.4 29.8.3 37.9.6 3.8 1.6 5.7 4.6 7.2h34.1c2.4-1.4 2.3-3.5 0-6.3z" class="st0"/><path d="M81.6 198.9c-3.6.8-6 2.2-6 3.8 0 2.4 3 3.6 6.8 3.6h12.3c14.2 0 27.8 1.6 34.1 1.6 3.3 0 6.8-.6 6.8-3.3 0-1.1-1.9-3.3-6.5-4.4-3.2-.7-5.9-1.6-8.2-2.6H85c-.8.5-1.9 1-3.4 1.3zM10.4 200c-3.6 1.1-6.3 2.2-6.3 4.1 0 2.2 3 3 6.3 3 6 0 13.4-1.1 22.9-1.1 6.8 0 15.8.6 22.6.6 3 0 6.5-.6 6.5-3 0-2.2-2.8-3.3-6-4.1-2.3-.6-4.1-1.2-5.4-1.9H17.6c-1.7.9-4.1 1.6-7.2 2.4z" class="st1"/><path d="M48.6 452.1c.1 11.8.2 23.6.5 35.4l22.2 3.9v2.1h33.8l-38-60.4-18.5 19z" class="st0"/><path d="M4.1 501h67.1v-7.5H4.1v7.5zm100.9-7.5l4.7 7.5h36v-7.5H105z" class="st1"/><path d="M0 211.5h500M0 506.1h500" class="st2"/><path d="M24.4 227.1c.7.2.9.2 1.3.2.2 0 .4.2.4.8.1.8.5 2.5.5 3.8 0 .4-.2.8-.4.8s-.4-.2-.6-.8c-.4-.9-.8-1.8-1.3-2.4-.8-.9-2.8-2.2-5.6-2.2-5.9 0-9.4 4.9-9.4 10.4 0 2.4.6 4.7 1.6 6.3 1.9 3.1 5.2 4.8 8.4 4.8.4 0 2.2-.2 3.1-.8.2-.2.7-1.4.7-1.8 0-1.2-.1-3.2-.1-3.6-.3-.8-.5-1.4-3.1-1.6-.5-.1-.9-.3-.9-.6 0-.2.4-.5 1-.5s3.2.2 4.2.2c.8 0 2-.2 3.1-.2.6 0 .9.2.9.4s-.4.4-.8.6c-1 .3-1.1.7-1.2 1.1-.2.4-.2 2.9-.2 4.3 0 .6.3.9.5 1 .6.4.6.4.6.6 0 .2-.2.4-.5.5-.6.2-1.8.4-3.2.8-1.5.4-3.6.6-4.8.6-3.9 0-7.1-1.2-9.2-3.2-1.6-1.6-3.6-4.4-3.6-8.6 0-3.1 1.1-6.2 3.9-8.8 2.2-1.9 5.6-3.1 8.9-3.1 2.5.2 4.3.7 5.8 1zm14.3 9.9c.5.7.7 1.4.7 2.9 0 1.4-.2 5.8-.2 6.1 0 1.6 1.1 1.8 1.4 1.8.2 0 .9-.2 1.3-.5.1-.1.2 0 .2.1.1.1.1.3.1.4 0 .7-1.6 2.2-3.1 2.2-.8 0-1.8-.4-2.2-1.7 0-.1-.2-.2-.2-.2-1.3.9-2.8 1.5-3.1 1.6-.4.2-1.2.2-1.4.2-1.2 0-2.4-1.5-2.4-3.3 0-.6.2-1.3.7-1.7.4-.4.9-.6 1.4-.9.5-.2 3.3-1 4.1-1.2.8-.2 1-.4 1-.6.1-.3.1-2.4.1-2.9 0-.9-1-2.3-2.8-2.3-.7 0-1.2.2-1.4.4-.2.1-.3.7-.2 1.4 0 .1-.2.3-.2.4-.4.2-2.1 1.1-2.2 1.1-.2 0-.4-.2-.4-.4 0-1 1-2 2.6-3.1 1-.7 2.6-1.3 3.2-1.3 1.6-.2 2.5.6 3 1.5zm-2.3 10.3c.2-.2.4-.8.4-.9.1-.8.1-2 .1-2.7 0-.1-.2-.2-.2-.2-1 0-2.6.6-3.6 1-.4.2-.7.5-.7 1.3 0 1.6 1.4 2.1 2.2 2.1.4 0 1.1-.2 1.8-.6zm7.3-10.8c1.1-.4 2.2-.9 2.6-1.1.4-.2.6-.4.7-.4.2 0 .3.3.3.4 0 .6-.1 1.2-.1 1.9 0 .2.2.2.2.2 1.4-1.3 2.9-2.2 3.9-2.2 1.4 0 1.8.9 1.8 1.2 0 .1-.1.3-.2.5-.4.6-1.2 1.5-1.4 1.6-.1.1-.4-.1-.5-.1-.4-.4-1.2-.8-1.9-.8-.6 0-1.2.1-1.6.5-.2.2-.4.6-.4.8 0 .7.2 7 .2 7.5.1 1 .3 1.7.9 1.7.4.1 1.1.2 1.6.4.6.2.6.4.6.6 0 .2-.3.3-.8.3-.9 0-2.1-.2-4.1-.2-1 0-1.4.2-2.3.2-.4 0-.7-.2-.7-.4s.4-.4.7-.4c1.4-.4 1.4-.8 1.5-2.9v-6.6c0-.4 0-.8-.4-1-.8-.7-1.2-.8-1.2-.9.1-.3.2-.6.6-.8zm19.1.5c.5.7.7 1.4.7 2.9 0 1.4-.2 5.8-.2 6.1 0 1.6 1.1 1.7 1.4 1.7.2 0 .9-.2 1.3-.5.1-.1.2 0 .2.1.1.1.1.3.1.4 0 .7-1.6 2.2-3.1 2.2-.8 0-1.8-.4-2.2-1.7 0-.1-.2-.2-.2-.2-1.3.9-2.8 1.5-3.1 1.6-.4.2-1.2.2-1.4.2-1.2 0-2.4-1.5-2.4-3.3 0-.6.2-1.3.7-1.7.4-.4.9-.6 1.4-.9.5-.2 3.3-1 4.1-1.2.8-.2 1-.4 1-.6.1-.3.1-2.4.1-2.9 0-.9-1-2.3-2.8-2.3-.7 0-1.2.2-1.4.4-.2.1-.3.7-.2 1.4 0 .1-.2.3-.2.4-.4.2-2.1 1.1-2.2 1.1-.2 0-.4-.2-.4-.4 0-1 1-2 2.6-3.1 1-.7 2.6-1.3 3.2-1.3 1.6-.1 2.5.7 3 1.6zm-2.3 10.3c.2-.2.4-.8.4-.9.1-.8.1-2 .1-2.7 0-.1-.2-.2-.2-.2-1 0-2.6.6-3.6 1-.4.2-.7.5-.7 1.3 0 1.6 1.4 2.1 2.2 2.1.5 0 1.2-.2 1.8-.6zm7.6-10.7c.7-.2 2.2-1.2 2.6-1.4.2-.1.2-.2.2-.2.2.1.4.2.4.4 0 .5-.2 1.4-.2 1.8 0 .1.1.4.2.2.9-.7 3.1-2 4.7-2 1.2 0 2.1.2 2.8.7s1 1 1.1 1.2c.1.2.2.2.2.2.7-.5 1.6-1 2.4-1.5.8-.4 1.6-.6 2.2-.6 1.3 0 2.2.4 3 1.2.8.9 1.1 2.1 1.1 3.3.2 1.8.1 4.2.1 7.1.1.6.2 1.3 1.5 1.6.4.2.7.2.7.5 0 .2-.3.4-1 .4s-1.6-.1-2.5-.1c-1 0-1.6.1-2.4.1-.7 0-.9-.2-.9-.4s.4-.4.8-.4c1.1-.4 1.2-.8 1.2-2 0-.8-.1-4.8-.1-5.9 0-1.2-.2-1.7-.6-2.3-.4-.7-1.2-1.2-2.6-1.2-1.6 0-2.2.7-2.7 1.1-.1.1-.4.8-.4 1s-.1 6.8 0 7.6c.1 1.1.2 1.4 1.4 1.8.4.1.7.3.7.5s-.2.4-.8.4c-.8 0-1.8-.1-2.6-.1-.7 0-1.8.1-2.4.1-.8 0-.9-.2-.9-.4 0-.1.2-.4.7-.5 1.2-.2 1.3-.6 1.3-1.9v-6.8c0-1-.2-1.4-.4-1.8-.4-.6-1.4-1-2.6-1-1.1 0-1.9.4-2.8 1.1-.2.2-.4.5-.4.9-.1.9-.1 5.3-.1 7.9 0 .7.2 1.2 1.2 1.6.7.2.9.4.9.6s-.5.4-.9.4c-.2 0-1.4-.1-2.8-.1-1.1 0-1.9.1-2.6.1-.5 0-.9-.2-.9-.4s.2-.4.8-.5c1.1-.2 1.3-.8 1.4-2.3.1-1 .1-4.5.1-6.9 0-.2.1-.6-.2-.9-1-.9-1.2-1.1-1.2-1.2.6-.6.9-.8 1.3-1zm39 5.8c0 2.9-1.8 5.1-3.1 6-1.4 1-2.8 1.4-4.3 1.4s-3.3-.7-4.6-1.8c-1.5-1.2-2.6-3.6-2.6-5.3 0-2.6 1.1-4.3 2.4-5.4 1.1-.9 2.8-1.9 5.1-1.9 3.6-.1 7.1 2.6 7.1 7zm-9.9-5.1c-.9.8-1.7 2.6-1.7 4.5 0 1.1.2 2.2.4 3.1.9 2.6 2.9 3.9 4.5 3.9.4 0 1.1-.2 2.1-1.1.9-.9 1.6-3.1 1.6-4.6 0-1.8-.4-3.8-1.8-5.3-.8-.8-2-1.4-2.9-1.4-.7 0-1.5.3-2.2.9zm12.6-1c.6-.2 1.9-.7 2.3-1 .4-.2.7-.4.8-.4s.4.4.4.5c0 .6-.2 1.4-.2 1.7 0 .2.2.1.2.1 1.4-.9 3.2-1.9 4.7-1.9 1.7 0 2.7.8 3.2 1.3.7.9 1.2 2.5 1.2 4.2 0 .7.1 5.9.1 6.3.1.5.4 1 1.3 1.2.7.2.9.4.9.6 0 .2-.5.4-1 .4-.8 0-1.6-.1-2.6-.1-.9 0-1.9.1-2.4.1-.3 0-.8-.2-.8-.4s.4-.4.8-.6c.8-.3 1-.6 1.1-1.7.1-1.1.1-5.4.1-6.4 0-1.2-.6-2.2-1-2.6-.4-.2-1.4-.7-2.2-.7-1.6 0-2.4.5-3.1 1.1-.1.1-.4.5-.4.8 0 .4 0 7.9.1 8.4s.2.8 1.3 1.1c.4.1.6.3.6.5s-.4.4-.9.4c-.4 0-1.4-.1-2.1-.1-1.3 0-2.3.1-2.9.1-.5 0-.9-.2-.9-.4s.4-.4.7-.5c1.1-.4 1.4-.7 1.4-1.9.1-1 .2-4.1.2-7.6 0-.4-.1-.7-.8-1.4-.4-.3-.7-.5-.7-.6 0-.1.4-.4.6-.5zm26.6-.8c.2.1.2-.2.2-.4.2-.9.1-6.2-.1-7.1-.1-.2-.1-.6-1.6-1.4-.3-.2-.4-.2-.4-.3 0-.2.4-.6.6-.6.8-.1 2.6-.6 3.6-1 .2-.1.3-.1.4-.1s.3.2.2.6c-.2 1.9-.3 3.1-.3 13.8 0 6.7.1 7.3.1 7.9.1 1.3.4 1.4.6 1.4.4 0 1.6-.2 1.9-.2.2 0 .2.2.2.2 0 .2-.4.8-.6.9-.7.1-2.4.4-3.1.7-.8.2-1.1.4-1.2.4s-.4-.2-.4-.4c0-.3.1-.9.1-1.4 0-.2-.2-.2-.2-.2-1.6 1.4-3.4 1.8-4.5 1.8-1.7 0-3.3-.8-4.4-1.9-1.1-1.2-1.7-3.1-1.7-4.8 0-3.4 2-5.4 3.7-6.4 1.6-1 3.6-1.3 4.6-1.3 1.4-.4 2-.3 2.3-.2zm-6.2 2.1c-.7.7-1.4 2.4-1.4 4.4 0 2.8 1.9 6 4.9 6 1.1 0 1.9-.4 2.6-.8.1-.1.5-1.2.6-2.3.1-2.2 0-4.1-.1-5.8-.1-.2-.4-.9-.8-1.3-1-1-2.3-1.4-3-1.4-1.2.1-2.1.6-2.8 1.2zM17.6 534.2c0-2.2-1.4-3.3-4.4-4.5l-1.3-.5c-3.6-1.4-6-3.4-6-6.9 0-4 3.4-6.4 7.8-6.4 2.3 0 4.2.7 5.7 1.9l-.2 4.5h-2.1l-1-5.2 2.2 1.1v1.8c-1.7-1.7-3-2.2-4.8-2.2-2.8 0-4.8 1.4-4.8 3.9 0 2.2 1.4 3.5 3.9 4.5l1.4.5c4.6 1.8 6.4 3.8 6.4 7.1 0 4.1-3.4 6.6-8.3 6.6-2.6 0-5.1-.8-6.8-1.9l.2-4.9h2.1l.9 5.4-2.3-1v-1.7c2.2 1.6 3.3 2.2 5.7 2.2 3.5-.1 5.7-1.6 5.7-4.3zm5.2-2.7c0-5.8 3.9-8.8 7.9-8.8 3.9 0 7.9 3 7.9 8.8s-4 8.6-7.9 8.6c-4 0-7.9-2.8-7.9-8.6zm12.7 0c0-4.7-1.7-7.2-4.8-7.2s-4.8 2.6-4.8 7.2c0 4.7 1.7 7.1 4.8 7.1 3.1-.1 4.8-2.5 4.8-7.1zm9.7 2c0 3.1.9 4.2 2.8 4.2 1.8 0 3.6-.9 5.3-2.6h.7v1.8h-1.8l1.2-.5c-2 2.7-4.4 3.8-6.6 3.8-2.8 0-4.5-1.7-4.5-6.2l.1-9.2.7.7-3.3-.7v-1.2l5-.4.4.4-.2 4.9.2 5zm8.3 6.4l-.5-4.1.1-11.2.7.7-3.2-.7v-1.2l4.9-.4.4.4-.1 4.9v10.4l-.8-.8 3.2.7v1.2l-4.7.1zm9.4-7.6v-1.6c0-1.9-.1-3-.1-4.4L60 526v-1.2l4.8-2.1.5.4.4 4.4v4.9c0 2.2.1 5.8.1 7.3h-3c0-1.6.1-5.2.1-7.4zm-2.7 6.1l3.8-.7h.7l3.8.7v1.2h-8.2l-.1-1.2zm4-10.8h2l-.9.3c1.1-3.3 3.2-5.2 5.3-5.2 1 0 2.1.5 2.4 1.2 0 1.6-.6 2.6-2 2.6-.8 0-1.4-.3-2.1-.8l-.9-.8 1.7-.4c-2.2 1.1-3.4 2.9-4.2 5.6h-1.3v-2.5zm12.5 3.5c0 4.4 2.3 6.8 5.6 6.8 2 0 3.8-1 4.9-2.8l.8.4c-.9 2.9-3.2 4.5-6.4 4.5-4.8 0-7.8-3.3-7.8-8.7 0-5.4 3.8-8.8 8-8.8 3.1 0 5.7 1.9 6.1 4.5-.2.9-.7 1.3-1.6 1.3-1.1 0-1.6-.7-1.9-1.6l-.9-3.1 1.6 1.3c-1.2-.6-2.4-.9-3.3-.9-2.9.3-5.1 2.6-5.1 7.1zm27.9-1.8c0 .8-.1 1.5-.2 1.9h-13v-1.4h8.2c1.7 0 2.1-.8 2.1-1.8 0-2-1.7-3.8-3.9-3.8s-4.8 1.9-4.8 6.9c0 4.4 2.2 6.8 5.7 6.8 2.2 0 3.6-1 4.9-2.4l.8.6c-1.2 2.4-3.5 4.1-6.6 4.1-4.7 0-7.7-3.2-7.7-8.6s3.6-8.9 7.9-8.9c3.7 0 6.6 2.4 6.6 6.6zm22 4.9c0-2.2-1.4-3.3-4.4-4.5l-1.3-.5c-3.6-1.4-6-3.4-6-6.9 0-4 3.4-6.4 7.8-6.4 2.3 0 4.2.7 5.7 1.9l-.2 4.5h-2.1l-1-5.2 2.2 1.1v1.8c-1.7-1.7-3-2.2-4.8-2.2-2.8 0-4.8 1.4-4.8 3.9 0 2.2 1.4 3.5 3.9 4.5l1.4.5c4.6 1.8 6.4 3.8 6.4 7.1 0 4.1-3.4 6.6-8.2 6.6-2.6 0-5.1-.8-6.8-1.9l.2-4.9h2.1l.9 5.4-2.3-1v-1.7c2.2 1.6 3.3 2.2 5.7 2.2 3.4-.1 5.6-1.6 5.6-4.3zm19.5-4.9c0 .8-.1 1.5-.2 1.9H133v-1.4h8.2c1.7 0 2.1-.8 2.1-1.8 0-2-1.7-3.8-3.9-3.8s-4.8 1.9-4.8 6.9c0 4.4 2.2 6.8 5.7 6.8 2.2 0 3.6-1 4.9-2.4l.8.6c-1.2 2.4-3.5 4.1-6.6 4.1-4.7 0-7.7-3.2-7.7-8.6s3.6-8.9 7.9-8.9c3.6 0 6.5 2.4 6.5 6.6zm5.2 3v-1.6c0-1.9-.1-3-.1-4.4l-2.7-.3v-1.2l4.8-2.1.5.4.4 4.4v4.9c0 2.2.1 5.8.1 7.3h-3c-.1-1.6 0-5.2 0-7.4zm-2.6 6.1l3.8-.7h.7l3.8.7v1.2h-8.4l.1-1.2zm4-10.8h2l-.9.2c1.1-3.2 3.2-5.2 5.3-5.2 1 0 2.1.5 2.4 1.2 0 1.6-.6 2.6-2 2.6-.8 0-1.4-.3-2.1-.8l-.9-.8 1.7-.4c-2.2 1.1-3.4 2.9-4.2 5.6h-1.3v-2.4zm12.2 12c.1-1.6.1-5.1.1-7.3v-1.6c0-1.9-.1-3-.1-4.4l-2.9-.3v-1.2l5.2-2.1.5.4-.1 4.7v4.6c0 2.2.1 5.8.1 7.3l-2.8-.1zm5.4-1.2v1.2h-8v-1.2l3.8-.7h.7l3.5.7zm-6.2-21.8c0-1.3 1-2.2 2.3-2.2 1.2 0 2.3.9 2.3 2.2 0 1.3-1 2.2-2.3 2.2-1.3 0-2.3-1-2.3-2.2zm10.8 8.4H172v-1.5l3.9-.5-1 .5c.4-4 .9-6.1 2.4-7.8 1.5-1.6 3.3-2.1 4.8-2.1 1.6 0 2.9.5 3.3 1.9-.1.9-.8 1.6-2.1 1.6-.9 0-1.6-.4-2.4-1l-1.7-1.3 2.9-.7.8 1c-.4-.2-.9-.4-1.4-.4-1 0-2.2.8-2.9 1.9-.8 1.4-1.3 3.8-1 8v7.8c0 2.4.1 4.9.1 7.3h-2.9c.1-2.4.1-4.9.1-7.3V525zm6 13.4v1.2H172v-1.2l3.9-.7h.7l4.3.7zm1.6-15.3v1.8h-6.2v-1.8h6.2z" class="st3"/><path d="M316.4 479.5c.2 1.8.8 5.4.8 9.1v8.1H313v-21.4h6.3l5.4 17.1c-.3-2-.8-5.1-.8-8.9v-8.2h4.2v21.4H322l-5.6-17.2zm30.6 9c0 5.5-2.9 8.8-7.9 8.8s-7.9-3.2-7.9-8.8c0-5.3 2.9-8.8 7.9-8.8 5 .1 7.9 3.5 7.9 8.8zm-10.9 0c0 3.6.9 5.1 2.9 5.1s2.9-1.5 2.9-5.2c0-3.6-.9-5.1-2.9-5.1s-2.9 1.6-2.9 5.2zm23.7 8.7c-4.2 0-6.3-2.3-6.3-6.1v-7.4h-3.4v-3.4h3.4v-3.6l4.9-.6v4.1h5.3l-.5 3.4h-4.8v7.4c0 1.6.7 2.2 2.3 2.2 1.1 0 2.1-.3 2.9-.8l1.6 3.1c-1.3 1.1-3.1 1.7-5.4 1.7zm40.1-5.2l2.2 3.1c-1.4 1.2-3.6 2.2-6.1 2.2-5.3 0-8.5-3.5-8.5-8.6s3.3-8.9 8.6-8.9c2.4 0 4.4.7 6 2.1l-2.1 2.9c-1.1-.8-2.3-1.2-3.7-1.2-2.2 0-3.7 1.4-3.7 5.1 0 3.6 1.6 4.8 3.6 4.8 1.4-.1 2.5-.7 3.7-1.5zm11-.5c0 1.6.6 2.1 1.7 2.1 1 0 2.1-.7 2.8-1.8v-11.5h4.9v16.4H416l-.2-1.9c-1.1 1.6-3.1 2.4-5 2.4-3.2 0-4.7-2-4.7-5.1v-11.8h4.9l-.1 11.2zm28.7-3c0 5.1-2.3 8.8-6.3 8.8-1.6 0-2.9-.6-3.9-1.7v7.5l-4.9.5v-23.2h4.3l.2 1.8c1.4-1.7 3-2.4 4.6-2.4 4.3 0 6 3.3 6 8.7zm-10.2-3.2v6.9c.7 1 1.4 1.4 2.4 1.4 1.8 0 2.8-1.4 2.8-5.1 0-4.1-.9-5.1-2.4-5.1-1.2-.1-2.1.7-2.8 1.9zm28.8 3.2c0 5.1-2.3 8.8-6.3 8.8-1.6 0-2.9-.6-3.9-1.7v7.5l-4.9.5v-23.2h4.3l.2 1.8c1.4-1.7 3-2.4 4.6-2.4 4.2 0 6 3.3 6 8.7zm-10.2-3.2v6.9c.7 1 1.4 1.4 2.4 1.4 1.7 0 2.8-1.4 2.8-5.1 0-4.1-.9-5.1-2.4-5.1-1.2-.1-2.1.7-2.8 1.9zm21.8 8.4c1.4 0 2.9-.5 4.2-1.4l1.9 2.6c-1.6 1.4-3.8 2.2-6.5 2.2-5.6 0-8.5-3.6-8.5-8.7 0-4.8 2.9-8.8 8-8.8 4.7 0 7.7 3.2 7.7 8.4 0 .6-.1 1.2-.1 1.8h-10.6c.3 2.8 1.8 3.9 3.9 3.9zm-4-6.7h6c-.1-2.4-.9-3.9-2.9-3.9-1.8-.1-2.9 1.2-3.1 3.9zm28.5-13.2v22.9H490l-.2-1.7c-.9 1.2-2.4 2.3-4.6 2.3-4.1 0-6-3.5-6-8.8 0-5.1 2.5-8.7 6.5-8.7 1.4 0 2.8.5 3.8 1.6v-8.1l4.8.5zm-10 14.7c0 4.1 1.1 5.1 2.6 5.1 1.1 0 2-.7 2.7-1.9v-7.1c-.7-.9-1.4-1.4-2.4-1.4-1.8.1-3 1.6-2.9 5.3zm-79.9-307.3l-2.4 3c-1.2-.9-2.6-1.6-4.2-1.6-2.8 0-4.9 2.2-4.9 7.4 0 5.1 2 7.4 5 7.4 2.1 0 3.4-.9 4.6-1.9l2.3 2.9c-1.6 1.6-3.9 2.9-7.2 2.9-5.8 0-9.9-3.9-9.9-11.2 0-7.2 4.4-11.2 10-11.2 2.9-.1 4.9.8 6.7 2.3zm7.7 14.4c0 1.6.6 2.1 1.7 2.1 1 0 2.1-.7 2.8-1.7v-11.5h4.9v16.4h-4.2l-.2-1.9c-1.1 1.6-3.1 2.4-5 2.4-3.2 0-4.7-2-4.7-5.1v-11.8h4.9l-.2 11.1zm28.7-3.1c0 5.1-2.3 8.8-6.3 8.8-1.6 0-2.9-.6-3.9-1.7v7.5l-4.9.5v-23.2h4.3l.2 1.8c1.4-1.7 3-2.4 4.6-2.4 4.3 0 6 3.4 6 8.7zm-10.2-3.1v6.9c.7 1 1.4 1.4 2.4 1.4 1.8 0 2.8-1.4 2.8-5.1 0-4.1-.9-5.1-2.4-5.1-1.3 0-2.1.7-2.8 1.9zm28.7 3.1c0 5.1-2.3 8.8-6.3 8.8-1.6 0-2.9-.6-3.9-1.7v7.5l-4.9.5v-23.2h4.3l.2 1.8c1.4-1.7 3-2.4 4.6-2.4 4.3 0 6 3.4 6 8.7zm-10.2-3.1v6.9c.7 1 1.4 1.4 2.4 1.4 1.8 0 2.8-1.4 2.8-5.1 0-4.1-.9-5.1-2.4-5.1-1.3 0-2.1.7-2.8 1.9zm21.8 8.4c1.4 0 2.9-.5 4.2-1.4l1.9 2.6c-1.6 1.4-3.8 2.2-6.5 2.2-5.6 0-8.5-3.6-8.5-8.7 0-4.8 2.9-8.8 8-8.8 4.7 0 7.7 3.2 7.7 8.4 0 .6-.1 1.2-.1 1.8H467c.3 2.9 1.9 3.9 3.9 3.9zm-4-6.7h6c-.1-2.4-.9-3.9-2.9-3.9-1.7-.1-2.9 1.1-3.1 3.9zm28.6-13.2v22.9h-4.3l-.2-1.8c-.9 1.2-2.4 2.3-4.6 2.3-4.1 0-6-3.5-6-8.8 0-5.1 2.5-8.7 6.5-8.7 1.4 0 2.8.5 3.8 1.6v-8.1l4.8.6zm-10.1 14.7c0 4.1 1.1 5.1 2.6 5.1 1.1 0 2-.7 2.7-1.9v-7.1c-.7-.9-1.4-1.4-2.4-1.4-1.8.2-2.9 1.6-2.9 5.3z" class="st4"/><path d="M218.9 225.1l2.4.1c.8.1 1.6.1 2.3.1.6 0 1.4 0 2.1-.1.8-.1 1.6-.1 2.5-.1v1.1h-.2c-.8 0-1.3.1-1.7.2-.4.2-.6.4-.8.8-.1.2-.2.7-.2 1.2-.1.6-.1 1.6-.1 2.9v11.9c0 1.4.1 2.3.1 2.8s.2.9.3 1.2c.2.2.4.5.8.6.4.1.9.2 1.6.2h.4v1.2c-1-.1-1.9-.1-2.7-.1-.8-.1-1.5-.1-2.1-.1-.7 0-1.4 0-2.2.1-.8.1-1.7.1-2.6.1V248h.4c.7 0 1.2-.1 1.6-.2.4-.1.6-.3.8-.6.2-.3.2-.8.3-1.5.1-.7.1-2 .1-3.8v-9.3c0-1.8-.1-3.1-.1-3.8-.1-.8-.1-1.2-.2-1.6-.1-.4-.4-.7-.8-.8-.4-.2-.9-.2-1.7-.2h-.2l-.1-1.1zm20.3 7.1c2.4 0 4.4.8 5.9 2.4s2.4 3.6 2.4 6c0 2.6-.8 4.8-2.5 6.6-1.7 1.8-3.7 2.7-6.1 2.7-2.4 0-4.4-.8-6-2.4-1.6-1.6-2.3-3.7-2.3-6.2s.8-4.6 2.6-6.4c1.7-1.8 3.7-2.7 6-2.7zm-.4 1.8c-1.5 0-2.8.6-3.7 1.7-.9 1.1-1.4 2.6-1.4 4.5 0 2.4.5 4.3 1.6 5.8 1 1.5 2.4 2.2 4 2.2s2.9-.6 3.8-1.8c.9-1.2 1.4-2.7 1.4-4.8 0-2.2-.6-4.1-1.6-5.4-1-1.5-2.4-2.2-4.1-2.2zm10.1-1.3c.6.1 1.2.1 1.7.1.5.1 1 .1 1.4.1.6 0 1.1 0 1.8-.1.6-.1 1.2-.1 1.8-.1v1.1h-.2c-.6 0-1.1.1-1.3.2-.2.2-.4.5-.4.9 0 .2.1.4.1.6.1.2.1.5.2.8l3.3 9.4 4.5-9.5-.3-.9c-.2-.6-.5-1.1-.7-1.2-.2-.2-.7-.2-1.2-.2h-.6v-1.1c.7.1 1.2.1 1.8.1.6.1 1.1.1 1.5.1.6 0 1.2 0 1.8-.1.6-.1 1.2-.1 1.9-.1v1.1h-.4c-.5 0-.8.1-1 .2-.2.2-.3.4-.3.8 0 .2.1.4.1.7.1.2.2.6.2.9l3.2 9.2.6-1.4c2.2-5.7 3.3-8.8 3.3-9.4 0-.4-.1-.7-.4-.9-.2-.2-.7-.2-1.4-.2h-.3v-1.1l1.6.1c.5.1 1 .1 1.5.1.4 0 .9 0 1.4-.1.5-.1 1-.1 1.6-.1v1.1c-.4 0-.7.1-.9.2-.2.1-.4.2-.6.4-.2.4-.8 1.5-1.6 3.4s-2.4 5.9-4.9 12.1h-1.2l-4-11.4c-1.4 2.6-2.4 4.8-3.2 6.6-.8 1.8-1.5 3.4-2 4.8h-1.2c-.9-2.5-2-5.6-3.2-9.2-1.2-3.6-2-5.7-2.3-6.1-.2-.2-.3-.4-.5-.6-.2-.1-.4-.2-.7-.2h-.2l-.3-1.1zm43.2 14.3l.5 1.1c-.8.6-1.6 1.1-2.3 1.4s-1.2.5-1.7.5c-.7 0-1.2-.2-1.6-.6s-.6-1.1-.6-1.9c-1.2.8-2.2 1.4-3.1 1.7-.8.4-1.6.6-2.2.6-1.1 0-2.1-.4-2.9-1.3s-1.1-1.9-1.1-3.2c0-2.1 2.3-3.8 6.9-4.8 1.1-.2 1.9-.4 2.6-.6v-.9c.1-.8.1-1.2.1-1.4 0-1.2-.2-2.1-.7-2.6-.5-.6-1.2-.8-2.2-.8s-1.7.2-2.3.6c-.6.4-.8.8-.8 1.4v.4c0 .4-.2.6-.5.9-.4.2-.8.4-1.2.4-.4 0-.7-.1-.9-.2-.2-.1-.2-.4-.2-.6 0-.9.8-1.9 2.3-3.1 1.6-1.1 3.1-1.7 4.8-1.7 1.6 0 2.8.4 3.6 1.3.8.9 1.2 2.1 1.2 3.8 0 .9-.1 2.3-.2 4.2s-.2 3.3-.2 4.2c0 .8.1 1.2.2 1.5.2.2.5.4.9.4.2 0 .4-.1.7-.2-.1-.1.2-.4.9-.5zm-5.9-5.9c-.2.1-.6.2-.9.2-3.7 1-5.6 2.2-5.6 3.6 0 .8.2 1.4.7 1.8.5.5 1.1.7 1.9.7.5 0 1-.1 1.7-.4.6-.2 1.4-.6 2.2-1.2v-4.7zm12.7-9.1l-.2 2.9c1.2-.9 2.4-1.6 3.3-2 .9-.4 1.8-.6 2.6-.6 1.7 0 2.9.5 3.8 1.4s1.2 2.3 1.2 4.2v7.3c0 1.2.1 2.1.4 2.5s.7.6 1.3.6h.4v1.2c-1-.1-1.8-.1-2.3-.1-.5-.1-.9-.1-1.3-.1-.6 0-1.1 0-1.8.1s-1.2.1-1.9.1v-1.2h.2c1.4 0 2.2-1.4 2.2-4v-.3l.1-3.6v-.7c0-2.1-.2-3.5-.7-4.1s-1.4-1-2.6-1c-.7 0-1.4.2-2.2.5s-1.7.8-2.6 1.4c-.1 1.2-.1 2.3-.1 3.3-.1 1-.1 2-.1 2.9v2.3c0 1.5.1 2.4.3 2.9.2.4.7.6 1.3.6h.4v1.2c-1-.1-1.8-.1-2.3-.1-.6-.1-1-.1-1.4-.1s-.8 0-1.4.1-1.4.1-2.3.1v-1.2h.3c1.4 0 2.1-1.4 2.1-4.1v-1.1l.1-4.1v-1.7c0-1.1-.1-1.8-.2-2.2-.2-.4-.5-.5-.9-.5-.1 0-.2 0-.4.1s-.2.1-.4.1l-.2-1.1c.8-.2 1.7-.4 2.6-.6 1-.5 1.7-.9 2.7-1.3z" class="st3"/><path d="M47.8 15.1c.2-1.1-1.4-3.6-1.9-3.6-1.4 0-2.8.8-5.4 2.4-7.4 4.6-21 7.6-23.8 8.5-2.2.8-3.6 2.4-3.6 3.6 0 .7.9 1.7 2.6 3.1l31.6-8.4c.1-2.9.3-4.8.5-5.6z" class="st1"/><path d="M89 118.7c12.2-8.5 16.9-11.2 31.7-14.4.8-.2 3.1-1.4 4.5-3.3L70 104.7c.1.8.9 1.4 2.4 1.8 12.2 1.9 11.5 4.6 10.4 6-4.9 7.1-19.9 21-28.9 29.5-1.9 1.6-4.1 3.6-5.4 3.6-1.4 0-1.6-.8-2.2-2.4-.8-2.4-.8-16.9-.8-27.6 0-20.4.8-76.4 1.9-94.9l-31.7 8.4c.3.2.6.5 1 .8 7.6 4.6 8.2 6.3 8.2 7.1.8 7.1 1.6 22.4 1.6 57.6 0 36.3-.8 88.4-1.9 93.6-1 4.9-2.2 7.5-6.9 9.6H51c-3-1.4-4.1-3.4-4.6-7.2-1.6-8.2-1.6-34.4-.2-37.9 0-.6.2-2.2 1.4-2.2 1.4 0 4.1 3 6.8 6.3 13.6 15.8 27.8 30.8 30.8 34.7 2.2 2.8 2.3 4.9-.1 6.3h35.8c-4.1-1.9-7.2-4.2-10.3-7.2-8.5-8.6-34.7-37-44-48.4-.2-.6-.2-1.6.2-2.7 1.1-2 14-14.8 22.2-20.8z"/><path d="M126.1 98.2c0-.8-.8-1.9-1.9-1.9-9.2 0-18.8 3.3-36.9 3.3H74.6c-1.9 0-4.6 3.8-4.6 4.9 0 .1 0 .1.1.2l55.2-3.8c.4-.8.8-1.7.8-2.7zM261.9 0c-7 2.6-14.1 4.8-21.1 6.8-7 1.9-14.2 3.6-21.4 5l1.2 5.2 41.1-10.1c.1-2.3.1-4.6.2-6.9z" class="st1"/><path d="M263 194c-2.2-1.7-3.2-6.1-3.2-13.3v-48.1c0-8.7.2-25.2.6-49.6.4-22.5.8-47.9 1.4-76.1L220.5 17l.8 3.4c.2 0 .8-.1 1.4-.3 2.9-.5 4.9-.8 6.1-.8 4.1 0 7.1 1.9 8.6 5.6 1.6 3.8 2.3 11.1 2.3 22 0 3.9-.1 10.9-.3 20.9-.2 10-.4 17.9-.5 23.7l-.2 25.9c0 1.8-.1 4.4-.1 7.9-.2 37.4-1.1 58.4-2.4 62.9-1.1 3.2-2.8 5.4-5.1 6.7-2.3 1.3-5.8 1.9-10.4 1.9h-2v.9H277v-.9c-7.1-.2-11.8-1.1-14-2.8z"/><path d="M347.8 75.3c-5.1.2-9.9.5-14.5.6-4.6.1-8.9.2-12.9.2-3 0-6.6-.1-10.9-.2-4.2-.1-9.1-.3-14.8-.6v3.9h53.1v-3.9z" class="st1"/><path d="M354.7 197c-6.9 0-14.2-4.4-21.8-13.2-1.7-1.9-2.9-3.4-3.9-4.4l-47.2-50.9c3.3-2.9 7.9-7.1 13.9-12.5 23.1-21.2 39.4-31.9 48.9-31.9.9 0 1.6.1 2.1.1.5.1.9.1 1.2.1l-.1-5h-53.1v5.1h1.9c3 0 5.4.3 7.1.9s2.6 1.4 2.6 2.6c0 3.2-9 13-26.9 29.3-8.2 7.4-14.7 13.4-19.6 18l45.1 50.6c.7.8 1.8 1.9 3.2 3.5 2.9 3.1 4.9 5.9 6.2 8.4h44.4v-.8c-.4 0-.9.1-1.6.1h-2.4z"/><path d="M75.3 371.7h63.4v4.9H75.3v-4.9z" class="st1"/><path d="M82.4 417.4L113 386l25.6-3.9v-5.4H75.3v5.4l20.1 5.1-46.9 49V340l1.1-38.8-3.8-2.2-41.7 12.3v9.6l22.6 2.8v120.1c0 14.6-.2 29.2-.5 43.9L4 491.5v2.1h67.1v-2.1l-22.2-3.9c-.2-11.8-.4-23.6-.5-35.4l18.5-19 37.9 60.4h40.8v-2.1h.1l-18-3.2-45.3-70.9z"/></svg>