<svg xmlns="http://www.w3.org/2000/svg" id="Layer_1" viewBox="0 0 800 748.4" width="800" height="748.4"><style>.st0{fill:#2997ff}.st1{fill:none;stroke:#2997ff;stroke-width:1.7775;stroke-miterlimit:10}.st2{fill:#505050}.st3{fill:#b3b3b3}</style><path d="M408.7 6.6h10.2v132.8h-10.2V6.6z" class="st0"/><path d="M390 139.5h28.9M390 6.6h28.9" class="st1"/><path d="M202.4 102.1c0 .5-.1 1.1-.9 1.1-1.2 0-4.7-.4-10.4-.4-6.7 0-8.9.4-10.3.4-1.1 0-1.2-.5-1.2-1.2v-2.4c0-.7.1-1.2 1.1-1.2h3.5c2.9 0 4.4-.5 5.5-1.6 2.5-2.3 14.9-18.8 17.2-21.3-5.1-7.9-12.7-18.8-15.7-22.1-1.1-1.3-2.9-1.9-4.8-1.9h-3.7c-.8 0-.9-.5-.9-.9v-2.7c0-.9.1-1.2 1.1-1.2 1.1 0 4.7.4 10.9.4s11.2-.4 12.4-.4c.7 0 .8.4.8 1.2v2.5c0 .8-.3 1.1-.8 1.1H205c-2.1 0-2.1 2.1-.5 4.5l8.3 13.1 10.1-13.3c1.2-1.6.8-4.3-1.5-4.3h-1.6c-.7 0-.8-.4-.8-.9v-2.8c0-.8.1-1.1.7-1.1 1.6 0 3.9.4 11.5.4 5.3 0 6.7-.4 7.6-.4 1.1 0 1.2.5 1.2 1.3v2.4c0 .8-.1 1.1-1.1 1.1h-2.1c-2.5 0-3.9.5-5.2 1.6C229.3 55 218 69 215.2 72.4c5.3 7.9 10.7 16.1 16.5 23.2 1.6 1.9 3.5 2.8 5.9 2.8h2.1c.5 0 .7.3.7 1.1v2.7c0 .5-.1 1.1-.9 1.1-1.2 0-3.7-.4-10.3-.4-7.6 0-11.6.4-13.1.4-.9 0-1.1-.5-1.1-1.2v-2.3c0-.9.1-1.3 1.1-1.3h2c1.5 0 2.3-2 .8-4.3L209 78.8c-1.9 2.7-10.7 14.5-11.6 16.7-.7 1.5-.1 2.9 1.5 2.9h2.8c.5 0 .7.5.7 1.1v2.6zm60.5-39c0 6.9 0 27.1.1 31.2.1 2.3.7 4.1 3.5 4.1h6c1.2 0 1.5.4 1.5 1.2v2.3c0 .8-.3 1.3-.8 1.3-.9 0-6.8-.4-15.1-.4-8.5 0-13.9.4-15.1.4-.7 0-.9-.5-.9-1.3v-2.3c0-.9.3-1.2 1.7-1.2h6.4c1.5 0 2.8-.9 2.9-3.3.1-4.1.1-27.1.1-34.8v-8.4c0-9.5-.1-21.6-.4-25.1-.3-4.5-2.4-6.7-6.7-8l-2.7-.9c-.7-.3-.8-.4-.8-.7v-1.1c0-.4.4-.7 1.2-.9 4.7-2.1 10.7-4.5 15.6-7.7 1.2-.8 2-1.1 2.8-1.1.9 0 1.2.7 1.1 2.4-.1 7.3-.5 35.1-.5 42.4l.1 11.9zm23.6 2c0-3.2-.9-5.1-4.8-7.2l-3.1-1.7c-.9-.4-.9-.8-.9-1.2v-1.1c0-.4.3-.7.9-.9l12.8-6.4c1.1-.5 2.1-1.1 3.1-1.1.7 0 .9.7.9 2.7l.5 6.4h.4c3.6-4.7 10.5-8.9 19.5-8.9 6.8 0 11.3 2.9 15.2 6.5 5.1 5.1 7.2 10.5 7.2 20.8 0 17.5-12.1 31.5-28.8 31.5-3.6 0-9.2-.5-13.3-2.3v28.1c0 3.7.9 4.4 2.9 4.4h5.9c1.1 0 1.2.5 1.2 1.3v2.3c0 .8-.3 1.2-1.2 1.2-.7 0-5.2-.4-13.7-.4-7.7 0-12.4.4-13.5.4-.9 0-1.2-.4-1.2-1.2v-2.4c0-.7.3-1.2 1.6-1.2h5.2c2.3 0 2.5-1.3 2.8-3.3.4-2.9.4-10.1.4-23.2V65.1zm9.6 24.4c0 2.9.3 5.3 2.8 7.1 3.7 2.7 7.9 3.6 13.3 3.6 7.6 0 15.5-5.7 15.5-22.3 0-18.7-8.4-26.1-17.3-26.1-5.6 0-11.1 3.2-14.3 8.5v29.2z" class="st2"/><path d="M408.7 231.9h10.2v199.5h-10.2V231.9z" class="st0"/><path d="M390 431.5h28.9M390 231.9h28.9" class="st1"/><path d="M132 375.7c0 .8-.2 1.6-1.4 1.6-1.8 0-7-.6-15.6-.6-10 0-13.4.6-15.4.6-1.6 0-1.8-.8-1.8-1.8v-3.6c0-1 .2-1.8 1.6-1.8h5.2c4.4 0 6.6-.8 8.2-2.4 3.8-3.4 22.4-28.2 25.8-32-7.6-11.8-19-28.2-23.6-33.2-1.6-2-4.4-2.8-7.2-2.8h-5.6c-1.2 0-1.4-.8-1.4-1.4v-4c0-1.4.2-1.8 1.6-1.8 1.6 0 7 .6 16.4.6s16.8-.6 18.6-.6c1 0 1.2.6 1.2 1.8v3.8c0 1.2-.4 1.6-1.2 1.6h-1.8c-3.2 0-3.2 3.2-.8 6.8l12.4 19.6 15.2-20c1.8-2.4 1.2-6.4-2.2-6.4h-2.4c-1 0-1.2-.6-1.2-1.4v-4.2c0-1.2.2-1.6 1-1.6 2.4 0 5.8.6 17.2.6 8 0 10-.6 11.4-.6 1.6 0 1.8.8 1.8 2v3.6c0 1.2-.2 1.6-1.6 1.6h-3.2c-3.8 0-5.8.8-7.8 2.4-3.4 2.8-20.4 23.8-24.6 29 8 11.8 16 24.2 24.8 34.8 2.4 2.8 5.2 4.2 8.8 4.2h3.2c.8 0 1 .4 1 1.6v4c0 .8-.2 1.6-1.4 1.6-1.8 0-5.6-.6-15.4-.6-11.4 0-17.4.6-19.6.6-1.4 0-1.6-.8-1.6-1.8v-3.4c0-1.4.2-2 1.6-2h3c2.2 0 3.4-3 1.2-6.4l-14.4-23c-2.8 4-16 21.8-17.4 25-1 2.2-.2 4.4 2.2 4.4h4.2c.8 0 1 .8 1 1.6v4zm90.8-58.5c0 10.4 0 40.6.2 46.8.2 3.4 1 6.2 5.2 6.2h9c1.8 0 2.2.6 2.2 1.8v3.4c0 1.2-.4 2-1.2 2-1.4 0-10.2-.6-22.6-.6-12.8 0-20.8.6-22.6.6-1 0-1.4-.8-1.4-2V372c0-1.4.4-1.8 2.6-1.8h9.6c2.2 0 4.2-1.4 4.4-5 .2-6.2.2-40.6.2-52.2v-12.6c0-14.2-.2-32.4-.6-37.6-.4-6.8-3.6-10-10-12l-4-1.4c-1-.4-1.2-.6-1.2-1v-1.6c0-.6.6-1 1.8-1.4 7-3.2 16-6.8 23.4-11.6 1.8-1.2 3-1.6 4.2-1.6 1.4 0 1.8 1 1.6 3.6-.2 11-.8 52.6-.8 63.6v17.8zm35.4 3c0-4.8-1.4-7.6-7.2-10.8l-4.6-2.6c-1.4-.6-1.4-1.2-1.4-1.8v-1.6c0-.6.4-1 1.4-1.4l19.2-9.6c1.6-.8 3.2-1.6 4.6-1.6 1 0 1.4 1 1.4 4l.8 9.6h.6c5.4-7 15.8-13.4 29.2-13.4 10.2 0 17 4.4 22.8 9.8 7.6 7.6 10.8 15.8 10.8 31.2 0 26.2-18.2 47.2-43.2 47.2-5.4 0-13.8-.8-20-3.4V418c0 5.6 1.4 6.6 4.4 6.6h8.8c1.6 0 1.8.8 1.8 2v3.4c0 1.2-.4 1.8-1.8 1.8-1 0-7.8-.6-20.6-.6-11.6 0-18.6.6-20.2.6-1.4 0-1.8-.6-1.8-1.8v-3.6c0-1 .4-1.8 2.4-1.8h7.8c3.4 0 3.8-2 4.2-5 .6-4.4.6-15.2.6-34.8v-64.6zm14.4 36.6c0 4.4.4 8 4.2 10.6 5.6 4 11.8 5.4 20 5.4 11.4 0 23.2-8.6 23.2-33.4 0-28-12.6-39.2-26-39.2-8.4 0-16.6 4.8-21.4 12.8v43.8z" class="st2"/><path d="M408.7 523.9h10.2v199.5h-10.2V523.9z" class="st0"/><path d="M390 723.4h28.9M390 523.9h28.9" class="st1"/><path d="M61.6 667.4c0 1.1-.3 2.1-1.9 2.1-2.4 0-9.3-.8-20.8-.8-13.3 0-17.9.8-20.5.8-2.1 0-2.4-1.1-2.4-2.4v-4.8c0-1.3.3-2.4 2.1-2.4H25c5.9 0 8.8-1.1 10.9-3.2 5.1-4.5 29.9-37.6 34.4-42.7-10.1-15.7-25.3-37.6-31.5-44.3-2.1-2.7-5.9-3.7-9.6-3.7h-7.5c-1.6 0-1.9-1.1-1.9-1.9v-5.3c0-1.9.3-2.4 2.1-2.4 2.1 0 9.3.8 21.9.8s22.4-.8 24.8-.8c1.3 0 1.6.8 1.6 2.4v5.1c0 1.6-.5 2.1-1.6 2.1h-2.4c-4.3 0-4.3 4.3-1.1 9.1l16.5 26.1 20.3-26.7c2.4-3.2 1.6-8.5-2.9-8.5h-3c-1.3 0-1.6-.8-1.6-1.9v-5.6c0-1.6.3-2.1 1.3-2.1 3.2 0 7.7.8 22.9.8 10.7 0 13.3-.8 15.2-.8 2.1 0 2.4 1.1 2.4 2.7v4.8c0 1.6-.3 2.1-2.1 2.1h-4.3c-5.1 0-7.7 1.1-10.4 3.2-4.5 3.7-27.2 31.7-32.8 38.7 10.7 15.7 21.3 32.3 33.1 46.4 3.2 3.7 6.9 5.6 11.7 5.6h4.3c1.1 0 1.3.5 1.3 2.1v5.3c0 1.1-.3 2.1-1.9 2.1-2.4 0-7.5-.8-20.5-.8-15.2 0-23.2.8-26.1.8-1.9 0-2.1-1.1-2.1-2.4v-4.5c0-1.9.3-2.7 2.1-2.7h4c2.9 0 4.5-4 1.6-8.5l-19.2-30.7c-3.7 5.3-21.3 29.1-23.2 33.3-1.3 2.9-.3 5.9 2.9 5.9h5.6c1.1 0 1.3 1.1 1.3 2.1l.1 5.5zm121-78.2c0 13.9 0 54.1.3 62.4.3 4.5 1.3 8.3 6.9 8.3h12c2.4 0 2.9.8 2.9 2.4v4.5c0 1.6-.5 2.7-1.6 2.7-1.9 0-13.6-.8-30.1-.8-17.1 0-27.7.8-30.1.8-1.3 0-1.9-1.1-1.9-2.7v-4.5c0-1.9.5-2.4 3.5-2.4h12.8c2.9 0 5.6-1.9 5.9-6.7.3-8.3.3-54.1.3-69.6v-16.8c0-18.9-.3-43.2-.8-50.1-.5-9.1-4.8-13.3-13.3-16l-5.3-1.9c-1.3-.5-1.6-.8-1.6-1.3v-2.1c0-.8.8-1.3 2.4-1.9 9.3-4.3 21.3-9.1 31.2-15.5 2.4-1.6 4-2.1 5.6-2.1 1.9 0 2.4 1.3 2.1 4.8-.3 14.7-1.1 70.1-1.1 84.8v23.7h-.1zm47.2 4c0-6.4-1.9-10.1-9.6-14.4l-6.1-3.5c-1.9-.8-1.9-1.6-1.9-2.4v-2.1c0-.8.5-1.3 1.9-1.9l25.6-12.8c2.1-1.1 4.3-2.1 6.1-2.1 1.3 0 1.9 1.3 1.9 5.3l1.1 12.8h.8c7.2-9.3 21.1-17.9 38.9-17.9 13.6 0 22.7 5.9 30.4 13.1 10.1 10.1 14.4 21.1 14.4 41.6 0 34.9-24.3 62.9-57.6 62.9-7.2 0-18.4-1.1-26.7-4.5v56.3c0 7.5 1.9 8.8 5.9 8.8h11.7c2.1 0 2.4 1.1 2.4 2.7v4.5c0 1.6-.5 2.4-2.4 2.4-1.3 0-10.4-.8-27.5-.8-15.5 0-24.8.8-26.9.8-1.9 0-2.4-.8-2.4-2.4v-4.8c0-1.3.5-2.4 3.2-2.4h10.4c4.5 0 5.1-2.7 5.6-6.7.8-5.9.8-20.3.8-46.4v-86.1zM249 642c0 5.9.5 10.7 5.6 14.1 7.5 5.3 15.7 7.2 26.7 7.2 15.2 0 30.9-11.5 30.9-44.5 0-37.3-16.8-52.3-34.7-52.3-11.2 0-22.1 6.4-28.5 17.1V642z" class="st2"/><path d="M473.8 80.6c0 14.8-6.5 20.5-20.9 23.9l-1.5-4.9c8.9-2.3 14.1-5.8 15.1-12.9-1.7 2.2-4.2 3.7-7.7 3.7-5.5 0-10.1-4.4-10.1-11.7 0-7.5 5.5-12.1 12.5-12.1 8.3.1 12.6 5.7 12.6 14zm-7 1.3c.1-7.4-1.6-10.1-5.6-10.1-3.5 0-5.7 2.4-5.7 7 0 4.9 2.3 6.8 5.1 6.8 2.5-.1 4.6-1.4 6.2-3.7zm38.1 7.1c0 8.7-4 15-11.1 15-2.9 0-5.3-1-7.1-3.1V114l-6.8.7V74.9h6l.4 3.5c2.3-2.9 5.2-4.3 8.3-4.3 7.2.1 10.3 5.9 10.3 14.9zm-7.1.1c0-7.1-1.9-9.7-5.3-9.7-2.4 0-4.4 1.7-5.7 3.9V96c1.3 2 3.1 2.9 5.2 2.9 3.6-.1 5.8-3 5.8-9.8zm29.7 12.8c-2 1.5-4.6 2.1-7.1 2.1-5.5-.1-8.5-3.2-8.5-9.2V79.9h-4.4V75h4.4v-6.3l6.8-.8V75h6.5l-.7 4.9h-5.9v14.7c0 2.8.9 3.9 3 3.9 1.1 0 2.1-.3 3.3-1l2.6 4.4zm16-24.4h21.4v5.4h-21.4v-5.4zm0 10.7h21.4v5.5h-21.4v-5.5zm56.5 15h-6.7v-29l-8 4.9-3-4.6 11.7-7.1h6v35.8zm32.2-12h-17.7c.5 5.7 3.2 7.6 6.9 7.6 2.5 0 4.6-.8 7.1-2.5l2.8 3.9c-2.8 2.3-6.2 3.8-10.5 3.8-8.7 0-13.5-5.8-13.5-14.7 0-8.6 4.5-15.1 12.5-15.1 7.9 0 12.4 5.3 12.4 14.3.2.8.1 2 0 2.7zm-6.6-4.7c0-4.7-1.7-7.4-5.5-7.4-3.2 0-5.2 2.1-5.6 7.7h11.1v-.3zm50.2-3.7v20.4H669V83.9c0-3.5-1.4-4.5-3.1-4.5-2.3 0-3.8 1.7-5.3 4.3v19.6h-6.8V83.9c0-3.5-1.5-4.5-3.1-4.5-2.4 0-3.9 1.7-5.4 4.3v19.6h-6.8V75h5.9l.5 3.7c2-2.8 4.6-4.5 8.1-4.5 3.3 0 5.7 1.7 6.8 4.7 2.1-2.9 4.7-4.7 8.5-4.7 4.5 0 7.5 3.3 7.5 8.6zm-210 294.5h-6.7v-29l-8 4.9-3-4.6 11.7-7.1h6v35.8zm15.8-3.5c0 2.3-1.9 4.3-4.4 4.3-2.4 0-4.3-2-4.3-4.3 0-2.4 1.9-4.3 4.3-4.3 2.5 0 4.4 1.9 4.4 4.3zm26-27.2h-13.5v8.9c1.8-.9 3.7-1.3 5.5-1.3 6 0 10.3 4.3 10.3 11.6s-5.3 12.5-13.4 12.5c-5 0-8.5-2-11.3-5.1l3.9-3.6c2 2.2 4.3 3.4 7.3 3.4 4 0 6.5-2.5 6.5-7.2 0-4.9-2.5-6.7-5.7-6.7-1.7 0-3 .4-4.7 1.2h-4.9v-18.8h20.8l-.8 5.1zm31.4 18.7h-17.7c.5 5.7 3.2 7.6 6.9 7.6 2.5 0 4.6-.8 7.1-2.5l2.8 3.9c-2.8 2.3-6.2 3.8-10.5 3.8-8.7 0-13.5-5.8-13.5-14.7 0-8.6 4.5-15.1 12.5-15.1 7.9 0 12.4 5.3 12.4 14.3.2.9 0 2 0 2.7zm-6.6-4.7c0-4.7-1.7-7.4-5.5-7.4-3.2 0-5.2 2.1-5.6 7.7h11.1v-.3zm50.2-3.6v20.4h-6.8V358c0-3.5-1.4-4.5-3.1-4.5-2.3 0-3.8 1.7-5.3 4.3v19.6h-6.8V358c0-3.5-1.5-4.5-3.1-4.5-2.4 0-3.9 1.7-5.4 4.3v19.6h-6.8v-28.2h5.9l.5 3.7c2-2.8 4.6-4.5 8.1-4.5 3.3 0 5.7 1.7 6.8 4.7 2.1-2.9 4.7-4.7 8.5-4.7 4.5 0 7.5 3.2 7.5 8.6zm19.9-5.4h21.4v5.4h-21.4v-5.4zm0 10.8h21.4v5.5h-21.4v-5.5zm56.5 14.9h-6.7v-29l-8 4.9-3-4.6 11.7-7.1h6v35.8zm28.8-27.3c0 4.5-2.8 7.3-7 8.4 4.5.4 8.1 3.2 8.1 8.7 0 6.1-4.8 11.1-13 11.1-4.9 0-8.9-1.8-11.6-5.2l3.8-3.6c2.4 2.4 4.7 3.5 7.5 3.5 3.9 0 6.3-2.3 6.3-6 0-4.3-2.4-5.7-6.5-5.7h-2.8l.8-4.9h1.9c3.3 0 5.7-1.9 5.7-5.5 0-2.9-2.1-4.7-5.3-4.7-2.8 0-4.9 1-7.2 3.1l-3.5-3.8c3.2-3.1 6.9-4.6 11.3-4.6 7.6 0 11.5 4.2 11.5 9.2zm14.2 23.8c0 2.3-1.9 4.3-4.4 4.3-2.4 0-4.3-2-4.3-4.3 0-2.4 1.9-4.3 4.3-4.3 2.5 0 4.4 1.9 4.4 4.3zm26-27.2h-13.5v8.9c1.8-.9 3.7-1.3 5.5-1.3 6 0 10.3 4.3 10.3 11.6s-5.3 12.5-13.4 12.5c-5 0-8.5-2-11.3-5.1l3.9-3.6c2 2.2 4.3 3.4 7.3 3.4 4 0 6.5-2.5 6.5-7.2 0-4.9-2.5-6.7-5.7-6.7-1.7 0-3 .4-4.7 1.2H708v-18.8h20.8l-.8 5.1zm33.4 16.6c0 8.7-4 15-11.1 15-2.9 0-5.3-1-7.1-3.1v13.2l-6.8.7v-39.9h6l.4 3.5c2.3-2.9 5.2-4.3 8.3-4.3 7.2.1 10.3 5.9 10.3 14.9zm-7.1 0c0-7.1-1.9-9.7-5.3-9.7-2.4 0-4.4 1.7-5.7 3.9V370c1.3 2 3.1 2.9 5.2 2.9 3.6 0 5.8-2.9 5.8-9.7zM784 376c-2 1.5-4.6 2.1-7.1 2.1-5.5-.1-8.5-3.2-8.5-9.2V354H764v-4.9h4.4v-6.3l6.8-.8v7.1h6.5l-.7 4.9h-5.9v14.7c0 2.8.9 3.9 3 3.9 1.1 0 2.1-.3 3.3-1l2.6 4.4zM471 643c0 6.1-3.5 10.5-14.5 21.1h15.3l-.7 5.4h-22.3v-5C461 652 464 648.6 464 643.6c0-3.3-2.1-5.2-5.2-5.2-2.8 0-4.7 1.2-6.9 3.8l-4.1-3.3c2.9-3.7 6.7-5.9 11.6-5.9 7.3 0 11.6 4.4 11.6 10zm28.9 14.5h-17.7c.5 5.7 3.2 7.6 6.9 7.6 2.5 0 4.6-.8 7.1-2.5l2.8 3.9c-2.8 2.3-6.2 3.8-10.5 3.8-8.7 0-13.5-5.8-13.5-14.7 0-8.6 4.5-15.1 12.5-15.1 7.9 0 12.4 5.3 12.4 14.3.1.8.1 2 0 2.7zm-6.6-4.7c0-4.7-1.7-7.4-5.5-7.4-3.2 0-5.2 2.1-5.6 7.7h11.1v-.3zm50.2-3.7v20.4h-6.8v-19.3c0-3.5-1.4-4.5-3.1-4.5-2.3 0-3.8 1.7-5.3 4.3v19.6h-6.8v-19.3c0-3.5-1.5-4.5-3.1-4.5-2.4 0-3.9 1.7-5.4 4.3v19.6h-6.8v-28.2h5.9l.5 3.7c2-2.8 4.6-4.5 8.1-4.5 3.3 0 5.7 1.7 6.8 4.7 2.1-2.9 4.7-4.7 8.5-4.7 4.5-.2 7.5 3.1 7.5 8.4zm19.9-5.3h21.4v5.4h-21.4v-5.4zm0 10.7h21.4v5.5h-21.4v-5.5zm56.6 15h-6.7v-29l-8 4.9-3-4.6 11.7-7.1h6v35.8zm33.4-9.7c0 5.9-5.2 10.5-13.3 10.5-8.1 0-13-4.5-13-10.3 0-4.4 2.5-7.3 6.8-9.1-3.9-2.1-5.4-4.9-5.4-8.5 0-5.9 5.3-9.5 11.7-9.5 6.3 0 11.7 3.2 11.7 9.2 0 3.3-1.9 6-5.9 8.1 4.9 2.2 7.4 5.4 7.4 9.6zm-7 0c0-3.3-1.7-4.9-6.5-6.6l-1.7-.6c-2.9 1.5-4.3 3.9-4.3 7.1 0 3.4 2.5 5.5 6.3 5.5 4 0 6.2-2.2 6.2-5.4zM635 642.5c0 3.1 1.9 4.4 5.4 5.7l1 .4c2.8-1.7 3.9-3.5 3.9-6.1 0-2.8-1.7-4.7-5.1-4.7-3.1 0-5.2 1.6-5.2 4.7zm49.3 12.8c0 8.7-4 15-11.1 15-2.9 0-5.3-1-7.1-3.1v13.2l-6.8.7v-39.9h6l.4 3.5c2.3-2.9 5.2-4.3 8.3-4.3 7.2.1 10.3 5.9 10.3 14.9zm-7.1.1c0-7.1-1.9-9.7-5.3-9.7-2.4 0-4.4 1.7-5.7 3.9v12.7c1.3 2 3.1 2.9 5.2 2.9 3.6-.1 5.8-3 5.8-9.8zm29.7 12.8c-2 1.5-4.6 2.1-7.1 2.1-5.5-.1-8.5-3.2-8.5-9.2v-14.9H687v-4.9h4.4V635l6.8-.8v7.1h6.5l-.7 4.9h-5.9V661c0 2.8.9 3.9 3 3.9 1.1 0 2.1-.3 3.3-1l2.5 4.3z" class="st3"/></svg>