<svg xmlns="http://www.w3.org/2000/svg" id="Layer_1" viewBox="0 0 800 726.4" width="800" height="726.4"><style>.st0{fill:#b3b3b3}.st1{fill:#505050}.st2{fill:none;stroke:#2997ff;stroke-width:3.1626}</style><g id="bd258156-f53d-4511-954d-3e3f98fcc596"><g id="bdf59f24-7dfd-492a-b1e2-8161faa6a3b1"><path d="M208.7 361.3v-10c29.3-2.8 30.3-5 30-43.2l.4-145.6c-29.3 65.3-76.4 167.3-88.8 198.7H141C128.9 328.7 88.6 230.6 61.4 166c-6 124.9-6.4 153.1-6.4 159.8.4 20 9.3 22.8 33.5 25.3v10H3.9v-10c20.7-2.1 29.3-6.4 32.1-25.7 2.1-15.7 2.5-28.5 11.8-158.8 1.4-18.6-2.2-24.6-33.5-27.5v-10h62L155.1 310l84.6-180.9h62.4v10c-30.7 3.6-34.6 6.8-33.9 31.8l1.4 137c1.4 38.2 2.5 40 33.9 43.2v10l-94.8.2zm261.5 0v-7.2c20.9-2 21.7-3.6 21.5-30.9L492 219c-20.9 46.7-54.7 119.8-63.6 142.3h-6.6c-8.7-23.2-37.6-93.5-56.9-139.7-4.3 89.4-4.6 109.6-4.6 114.4.3 14.3 6.6 16.3 24 18.1v7.2h-60.5v-7.2c14.8-1.5 20.9-4.6 23-18.4 1.5-11.2 1.8-20.4 8.4-113.7 1-13.3-1.5-17.6-24-19.7v-7.2h44.4l56.5 129.5 60.5-129.5h44.7v7.2c-22 2.6-24.8 4.9-24.3 22.7l1 98.1c1 27.4 1.8 28.6 24.3 30.9v7.2h-68.1zM789.9 205c-26.8 1.8-28.9 3.9-28.5 28.5l1.1 89.6c1.1 24.6 3.2 26 27.8 28.2v10h-82.4v-10c23.5-2.1 26-3.6 26.4-28.2l.4-102.8c-21.4 46-54.6 120.2-62.8 140.9h-10c-8.2-21.8-38.9-94.5-58.5-140.2-1.4 51.7-3.6 97.4-2.8 112 .4 12.8 5.4 16.1 26.4 18.2v10h-69.9v-10c18.2-1.8 23.9-6.1 25.7-17.5 2.1-13.2 5.7-59.9 7.5-106.3.7-16.4-1.8-20.3-27.1-22.5v-10H621l54.9 120.2L732.5 195h57.4v10z"/><path d="M471.3 725.6v-13.2c38.8-3.8 40.2-6.6 39.7-57.2l.5-192.9C472.7 548.8 410.3 684 393.8 725.6h-12.3c-16.1-43-69.5-173.1-105.4-258.6-8 165.5-8.5 202.9-8.5 211.8.5 26.5 12.3 30.3 44.4 33.6v13.2H199.9v-13.2c27.4-2.8 38.8-8.5 42.6-34 2.8-20.8 3.3-37.8 15.6-210.4 1.9-24.6-2.8-32.6-44.4-36.4v-13.2H296L400.3 658l112.1-239.7h82.7v13.2c-40.7 4.7-45.9 9-44.9 42.1l1.9 181.6c1.9 50.6 3.3 53 44.9 57.2v13.2H471.3z" class="st0"/><path d="M13.8 19.4l8 12.3h-5.5L9.2 20H6.1v11.7H1.4V3.4h7.9c7.3 0 11 2.7 11 8.2 0 4.1-2.8 6.7-6.5 7.8zM9.5 6.9H6.1v9.6h3.5c3.6 0 5.7-1.4 5.7-5 0-3.2-1.9-4.6-5.8-4.6zm26.4 21.7c2 0 4-.7 5.7-1.9l2 2.8c-2.2 1.8-5 2.7-7.9 2.7-6.8 0-10.5-4.6-10.5-11.4 0-6.5 3.7-11.4 9.9-11.4 5.7 0 9.4 4.1 9.4 10.8 0 .7 0 1.4-.1 2.1H30c.2 4.5 2.7 6.3 5.9 6.3zm-6-9.4H40c-.1-4.1-1.8-6.4-4.8-6.4s-5 2.1-5.3 6.4zm40.3-8.1c-1.7.6-3.7.7-6.3.7 2.6 1.2 3.9 2.9 3.9 5.5 0 4.2-3.2 7.3-8.5 7.3-1 0-2-.1-3-.4-.6.4-.9 1.1-.9 1.8 0 .9.5 1.6 2.7 1.6h3.8c4.6 0 7.9 2.5 7.9 6 0 4.3-3.8 6.8-10.8 6.8-7.5 0-9.6-2.3-9.6-6.7h4.1c0 2.3 1 3.4 5.6 3.4s6.2-1.1 6.2-3.2c0-1.8-1.6-2.8-4.2-2.8h-3.7c-4.1 0-5.9-1.9-5.9-4.2 0-1.4.8-2.8 2.4-3.9-2.6-1.4-3.7-3.2-3.7-6.1 0-4.6 3.7-7.7 9-7.7 5.2 0 7.4-.9 10-2.2l1 4.1zm-15.6 6c0 2.7 1.5 4.5 4.4 4.5 2.7 0 4.2-1.6 4.2-4.6s-1.4-4.4-4.2-4.4c-2.9 0-4.4 1.9-4.4 4.5zM80 25.2c0 2.5 1 3.6 3.1 3.6s4-1.4 5-3V10h4.6v21.7h-4l-.3-2.8c-1.6 2.1-4.1 3.3-6.8 3.3-4.2 0-6.3-2.4-6.3-6.5V10h4.6l.1 15.2zm29.5.6c0 2 1.4 2.8 3.3 2.8 1.2 0 2.3-.3 3.4-.7l1.2 3.2c-1.7.9-3.6 1.3-5.6 1.2-4.3 0-6.9-2.6-6.9-6.8V4.7h-6.5V1.3h11.1v24.5zm33.3 3.3l-1.1 3.1c-2.1-.3-3.7-1.1-4.5-3-1.6 2-4.1 3-6.9 3-4.4 0-7.1-2.7-7.1-6.7 0-4.5 3.7-7.1 10.3-7.1h3.1V17c0-2.8-1.8-3.9-4.8-3.9-2 .1-3.9.4-5.7 1.1L125 11c2.4-.9 5-1.4 7.6-1.5 5.8 0 8.7 2.7 8.7 7.3v9.7c-.1 1.6.4 2.2 1.5 2.6zm-6.2-3v-4.8h-2.5c-4.3 0-6 1.5-6 4.1 0 2.3 1.2 3.5 3.7 3.5 1.9-.1 3.8-1.1 4.8-2.8zM167.8 10l-.8 8h-3.3v-4.4c-3.1.1-5.3 2.5-6.6 6.8v8h4.3v3.3h-12.1v-3.3h3.2V13.3h-3.2V10h6.7l.8 5c1.6-3.6 3.9-5.5 7.6-5.5 1.3 0 2.4.2 3.4.5zM21.1 54.9l-2.5 3c-1.6-1.4-3.7-2.1-5.9-2.1-4.2 0-7.8 3-7.8 11 0 7.8 3.4 10.9 7.8 10.9 3 0 4.8-1.2 6.4-2.4l2.3 2.9c-1.9 1.8-4.7 3.4-8.9 3.4C5.4 81.5 0 76.3 0 66.7S5.7 52 12.5 52c3.9 0 6.3 1.1 8.6 2.9zm23.3 23.4l-1 3.1c-2.1-.3-3.7-1.1-4.5-3-1.6 2-4.1 3-6.9 3-4.4 0-7.1-2.7-7.1-6.7 0-4.5 3.7-7.1 10.3-7.1h3.1v-1.4c0-2.8-1.8-3.9-4.8-3.9-2 .1-3.9.4-5.7 1.1l-1.1-3.2c2.4-.9 5-1.4 7.6-1.5 5.8 0 8.7 2.7 8.7 7.3v9.7c-.3 1.6.2 2.3 1.4 2.6zm-6.2-3v-4.8h-2.6c-4.3 0-6 1.5-6 4.1 0 2.3 1.2 3.5 3.7 3.5 2 0 3.8-1.1 4.9-2.8zm31-5.3c0 6.6-2.8 11.4-8.4 11.4-2.1.1-4.1-.8-5.5-2.4v10.2l-4.6.5V59.3h4L55 62c1.4-2.1 3.8-3.3 6.3-3.4 5.7.1 7.9 4.5 7.9 11.4zm-13.9-4.7v10.1c.9 1.5 2.5 2.4 4.3 2.4 3.1 0 4.8-2.4 4.8-7.8 0-5.6-1.4-7.9-4.3-7.9-2.1.1-3.7 1.5-4.8 3.2zm31.9 12.3h5.9V81h-17v-3.4h6.4v-15h-6.2v-3.4h10.8v18.4zM87 51.5c.1 1.7-1.2 3-2.9 3.1-1.7.1-3-1.2-3.1-2.9-.1-1.7 1.2-3 2.9-3.1h.1c1.6-.1 2.9 1.1 3 2.7v.2zm24.8 30c-5 0-7.7-2.8-7.7-7.1V62.6h-4.8v-3.4h4.8v-4.8l4.6-.5v5.4h7.3l-.5 3.4h-6.8v11.7c0 2.3 1.1 3.4 3.8 3.4 1.4 0 2.8-.3 4-1l1.6 3c-1.9 1.1-4.1 1.7-6.3 1.7zm31-3.2l-1.1 3.1c-2.1-.3-3.7-1.1-4.5-3-1.6 2-4.1 3-6.9 3-4.4 0-7.1-2.7-7.1-6.7 0-4.5 3.7-7.1 10.3-7.1h3.1v-1.4c0-2.8-1.8-3.9-4.8-3.9-2 .1-3.9.4-5.7 1.1l-1.1-3.2c2.4-.9 5-1.4 7.6-1.5 5.8 0 8.7 2.7 8.7 7.3v9.7c-.1 1.6.4 2.3 1.5 2.6zm-6.2-3v-4.8h-2.5c-4.3 0-6 1.5-6 4.1 0 2.3 1.2 3.5 3.7 3.5 1.9 0 3.8-1.1 4.8-2.8zm22.1-.3c0 2 1.4 2.8 3.3 2.8 1.2 0 2.4-.3 3.4-.7l1.1 3.2c-1.7.9-3.6 1.3-5.6 1.2-4.3 0-6.9-2.6-6.9-6.8V53.9h-6.5v-3.4h11.1l.1 24.5zM348 32.2c-4.6 0-8-1.4-10.4-3.8l2.6-2.9c2.1 2 4.9 3 7.8 3 3.2 0 5.9-1.5 5.9-4.6 0-2.5-1.3-3.7-5.8-5-6-1.8-9.2-4-9.2-8.4 0-4.6 4.1-7.7 9.7-7.7 4.1 0 7.1 1.2 9.5 3.4L355.6 9c-1.9-1.6-4.2-2.5-6.7-2.5-2.9 0-5.1 1.2-5.1 3.7 0 2.2 1.6 3.2 6.6 4.7 4.8 1.4 8.4 3.4 8.4 8.8.1 5-3.9 8.5-10.8 8.5zm32.4-5.6l2.1 3c-2.2 1.7-4.8 2.7-7.6 2.7-6.7 0-10.5-4.5-10.5-11.2 0-6.6 3.9-11.5 10.6-11.5 2.7-.1 5.4.9 7.5 2.6l-2.1 2.8c-1.5-1.1-3.4-1.8-5.3-1.8-3.4 0-5.8 2.4-5.8 7.8s2.5 7.5 5.8 7.5c1.9-.1 3.8-.8 5.3-1.9zm27 2.5l-1.1 3.1c-2.1-.3-3.7-1.1-4.5-3-1.6 2-4.1 3-6.9 3-4.4 0-7.1-2.7-7.1-6.7 0-4.5 3.7-7.1 10.3-7.1h3.1V17c0-2.8-1.8-3.9-4.8-3.9-2 .1-3.9.4-5.7 1.1l-1.1-3.2c2.4-.9 5-1.4 7.6-1.5 5.8 0 8.7 2.7 8.7 7.3v9.7c-.1 1.6.4 2.2 1.5 2.6zm-6.2-3v-4.8h-2.5c-4.3 0-6 1.5-6 4.1 0 2.3 1.2 3.5 3.7 3.5 2-.1 3.8-1.1 4.8-2.8zm22.2-.3c0 2 1.4 2.8 3.3 2.8 1.2 0 2.3-.3 3.4-.7l1.1 3.2c-1.7.9-3.6 1.3-5.6 1.2-4.3 0-6.9-2.6-6.9-6.8V4.7h-6.5V1.3h11.1v24.5zm24.8 2.8c2 0 4-.7 5.7-1.9l2 2.8c-2.2 1.8-5 2.7-7.9 2.7-6.8 0-10.5-4.6-10.5-11.4 0-6.5 3.7-11.4 9.9-11.4 5.7 0 9.4 4.1 9.4 10.8 0 .7 0 1.4-.1 2.1h-14.4c.3 4.5 2.8 6.3 5.9 6.3zm-6-9.4h10.1c-.1-4.1-1.8-6.4-4.8-6.4-2.9 0-5 2.1-5.3 6.4zm38.2-17.9v30.4h-4.1L476 29c-1.3 2-3.6 3.2-6.1 3.2-5.6 0-8.2-4.6-8.2-11.4 0-6.6 3.2-11.4 8.5-11.4 2.1-.1 4.1.8 5.5 2.4V.8l4.7.5zm-13.7 19.5c0 5.5 1.6 7.9 4.5 7.9 2.1 0 3.6-1.4 4.6-3.1V15.4c-.9-1.5-2.5-2.4-4.3-2.4-3 0-4.8 2.4-4.8 7.8zM359.6 54.9l-2.5 3c-1.6-1.4-3.7-2.1-5.9-2.1-4.2 0-7.8 3-7.8 11 0 7.8 3.4 10.9 7.8 10.9 3 0 4.8-1.2 6.4-2.4l2.3 2.9c-1.9 1.8-4.7 3.4-8.9 3.4-7.2 0-12.6-5.1-12.6-14.7S344.1 52 351 52c3.9 0 6.3 1.1 8.6 2.9zm23.2 23.4l-1 3.1c-2.1-.3-3.7-1.1-4.5-3-1.6 2-4.1 3-6.9 3-4.4 0-7.1-2.7-7.1-6.7 0-4.5 3.7-7.1 10.3-7.1h3.1v-1.4c0-2.8-1.8-3.9-4.8-3.9-2 .1-3.9.4-5.7 1.1l-1.1-3.2c2.4-.9 5-1.4 7.6-1.5 5.8 0 8.7 2.7 8.7 7.3v9.7c-.2 1.6.3 2.3 1.4 2.6zm-6.1-3v-4.8h-2.6c-4.3 0-6 1.5-6 4.1 0 2.3 1.2 3.5 3.7 3.5 2 0 3.8-1.1 4.9-2.8zm31-5.3c0 6.6-2.8 11.4-8.4 11.4-2.1.1-4.1-.8-5.5-2.4v10.2l-4.6.5V59.3h4l.3 2.8c1.4-2.1 3.8-3.3 6.3-3.4 5.7 0 7.9 4.4 7.9 11.3zm-13.9-4.7v10.1c.9 1.5 2.5 2.4 4.3 2.4 3.1 0 4.8-2.4 4.8-7.8 0-5.6-1.4-7.9-4.3-7.9-2.1.1-3.7 1.5-4.8 3.2zm31.9 12.3h5.9V81h-16.9v-3.4h6.4v-15h-6.2v-3.4h10.8v18.4zm-.2-26.1c.1 1.7-1.2 3-2.9 3.1-1.7.1-3-1.2-3.1-2.9-.1-1.7 1.2-3 2.9-3.1h.1c1.6-.1 2.9 1.1 3 2.7v.2zm24.7 30c-5 0-7.7-2.8-7.7-7.1V62.6h-4.8v-3.4h4.8v-4.8l4.6-.5v5.4h7.3l-.5 3.4h-6.8v11.7c0 2.3 1.1 3.4 3.8 3.4 1.4 0 2.8-.3 4-1l1.6 3c-1.9 1.1-4 1.7-6.3 1.7zm31.1-3.2l-1.1 3.1c-2.1-.3-3.7-1.1-4.5-3-1.6 2-4.1 3-6.9 3-4.4 0-7.1-2.7-7.1-6.7 0-4.5 3.7-7.1 10.3-7.1h3.1v-1.4c0-2.8-1.8-3.9-4.8-3.9-2 .1-3.9.4-5.7 1.1l-1.1-3.2c2.4-.9 5-1.4 7.6-1.5 5.8 0 8.7 2.7 8.7 7.3v9.7c-.1 1.6.4 2.3 1.5 2.6zm-6.2-3v-4.8h-2.5c-4.3 0-6 1.5-6 4.1 0 2.3 1.2 3.5 3.7 3.5 1.9 0 3.8-1.1 4.8-2.8zm22.1-.3c0 2 1.4 2.8 3.3 2.8 1.2 0 2.3-.3 3.4-.7l1.1 3.2c-1.7.9-3.6 1.3-5.6 1.2-4.3 0-6.9-2.6-6.9-6.8V53.9H486v-3.4h11.1l.1 24.5zm76.2-55.6l8 12.3h-5.5L568.8 20h-3.1v11.7h-4.8V3.4h7.9c7.3 0 11 2.7 11 8.2 0 4.1-2.7 6.7-6.4 7.8zm-4.3-12.5h-3.4v9.6h3.5c3.6 0 5.7-1.4 5.7-5 0-3.2-1.9-4.6-5.8-4.6zm26.3 21.7c2 0 4-.7 5.7-1.9l2 2.8c-2.2 1.8-5 2.7-7.9 2.7-6.8 0-10.5-4.6-10.5-11.4 0-6.5 3.7-11.4 9.9-11.4 5.7 0 9.4 4.1 9.4 10.8 0 .7 0 1.4-.1 2.1h-14.4c.3 4.5 2.8 6.3 5.9 6.3zm-5.9-9.4h10.1c-.1-4.1-1.8-6.4-4.8-6.4s-5 2.1-5.3 6.4zm39 9.9l-1.1 3.1c-2.1-.3-3.7-1.1-4.5-3-1.6 2-4.1 3-6.9 3-4.4 0-7.1-2.7-7.1-6.7 0-4.5 3.7-7.1 10.3-7.1h3.1V17c0-2.8-1.8-3.9-4.8-3.9-2 .1-3.9.4-5.7 1.1l-1.1-3.2c2.4-.9 5-1.4 7.6-1.5 5.8 0 8.7 2.7 8.7 7.3v9.7c-.1 1.6.4 2.2 1.5 2.6zm-6.2-3v-4.8h-2.5c-4.3 0-6 1.5-6 4.1 0 2.3 1.2 3.5 3.7 3.5 2-.1 3.8-1.1 4.8-2.8zm22.2-.3c0 2 1.4 2.8 3.3 2.8 1.2 0 2.3-.3 3.4-.7l1.1 3.2c-1.7.9-3.6 1.3-5.6 1.2-4.3 0-6.9-2.6-6.9-6.8V4.7h-6.5V1.3h11.2v24.5zm47.7 6.4c-4.6 0-8-1.4-10.4-3.8l2.6-2.9c2.1 2 4.9 3 7.8 3 3.2 0 5.9-1.5 5.9-4.6 0-2.5-1.3-3.7-5.8-5-6-1.8-9.2-4-9.2-8.4 0-4.6 4.1-7.7 9.7-7.7 4.1 0 7.1 1.2 9.5 3.4L699.8 9c-1.9-1.6-4.2-2.5-6.7-2.5-2.9 0-5.1 1.2-5.1 3.7 0 2.2 1.6 3.2 6.6 4.7 4.8 1.4 8.4 3.4 8.4 8.8 0 5-3.9 8.5-10.8 8.5zM728 15.6v16.1h-4V16.2c0-2.3-.2-3.2-1.4-3.2-1.1 0-2.1.6-3.2 2.2v16.5h-3.7V16.2c0-2.3-.2-3.2-1.4-3.2-1.1 0-2.1.6-3.2 2.2v16.5H707V10.1h3.4l.3 2.3c1.2-1.7 2.5-2.9 4.6-2.9 1.7-.1 3.3 1.1 3.7 2.8 1.2-1.6 2.7-2.8 4.8-2.8 2.4-.1 4.2 1.3 4.2 6.1zm23.6 13.5l-1.1 3.1c-2.1-.3-3.7-1.1-4.5-3-1.6 2-4.1 3-6.9 3-4.4 0-7.1-2.7-7.1-6.7 0-4.5 3.7-7.1 10.3-7.1h3.1V17c0-2.8-1.8-3.9-4.8-3.9-2 .1-3.9.4-5.7 1.1l-1.1-3.2c2.4-.9 5-1.4 7.6-1.5 5.8 0 8.7 2.7 8.7 7.3v9.7c-.1 1.6.4 2.2 1.5 2.6zm-6.2-3v-4.8h-2.5c-4.3 0-6 1.5-6 4.1 0 2.3 1.2 3.5 3.7 3.5 1.9-.1 3.8-1.1 4.8-2.8zm22.2-.3c0 2 1.4 2.8 3.3 2.8 1.2 0 2.3-.3 3.4-.7l1.1 3.2c-1.7.9-3.6 1.3-5.6 1.2-4.4 0-6.9-2.6-6.9-6.8V4.7h-6.5V1.3h11.2v24.5zm24.6 0c0 2 1.4 2.8 3.3 2.8 1.2 0 2.3-.3 3.4-.7L800 31c-1.7.9-3.6 1.3-5.6 1.2-4.4 0-6.9-2.6-6.9-6.8V4.7H781V1.3h11.1l.1 24.5zM580.7 54.9l-2.5 3c-1.6-1.4-3.7-2.1-5.9-2.1-4.2 0-7.8 3-7.8 11 0 7.8 3.4 10.9 7.8 10.9 3 0 4.8-1.2 6.4-2.4l2.3 2.9c-1.9 1.8-4.7 3.4-8.9 3.4-7.2 0-12.6-5.1-12.6-14.7S565.2 52 572.1 52c3.9 0 6.3 1.1 8.6 2.9zm23.2 23.4l-1.1 3.1c-2.1-.3-3.7-1.1-4.5-3-1.6 2-4.1 3-6.9 3-4.4 0-7.1-2.7-7.1-6.7 0-4.5 3.7-7.1 10.3-7.1h3.1v-1.4c0-2.8-1.8-3.9-4.8-3.9-2 .1-3.9.4-5.7 1.1l-1.1-3.2c2.4-.9 5-1.4 7.6-1.5 5.8 0 8.7 2.7 8.7 7.3v9.7c-.1 1.6.4 2.3 1.5 2.6zm-6.1-3v-4.8h-2.5c-4.3 0-6 1.5-6 4.1 0 2.3 1.2 3.5 3.7 3.5 1.9 0 3.7-1.1 4.8-2.8zm31-5.3c0 6.6-2.8 11.4-8.4 11.4-2.1.1-4.1-.8-5.5-2.4v10.2l-4.6.5V59.3h4l.3 2.8c1.4-2.1 3.8-3.3 6.3-3.4 5.7 0 7.9 4.4 7.9 11.3zm-13.9-4.7v10.1c.9 1.5 2.5 2.4 4.3 2.4 3.1 0 4.8-2.4 4.8-7.8 0-5.6-1.4-7.9-4.3-7.9-2.1.1-3.7 1.5-4.8 3.2zm31.9 12.3h5.9V81h-16.9v-3.4h6.4v-15h-6.3v-3.4h10.8l.1 18.4zm-.2-26.1c0 1.7-1.3 3-2.9 3.1-1.7 0-3-1.3-3.1-2.9 0-1.7 1.3-3 2.9-3.1h.1c1.6-.1 2.9 1.1 3 2.7v.2zm24.7 30c-5 0-7.7-2.8-7.7-7.1V62.6h-4.8v-3.4h4.8v-4.8l4.6-.5v5.4h7.3l-.5 3.4h-6.8v11.7c0 2.3 1.1 3.4 3.8 3.4 1.4 0 2.8-.3 4-1l1.6 3c-1.9 1.1-4 1.7-6.3 1.7zm31.1-3.2l-1.1 3.1c-2.1-.3-3.7-1.1-4.5-3-1.6 2-4.1 3-6.9 3-4.4 0-7.1-2.7-7.1-6.7 0-4.5 3.7-7.1 10.3-7.1h3.1v-1.4c0-2.8-1.8-3.9-4.8-3.9-2 .1-3.9.4-5.7 1.1l-1.1-3.2c2.4-.9 5-1.4 7.6-1.5 5.8 0 8.7 2.7 8.7 7.3v9.7c-.1 1.6.3 2.3 1.5 2.6zm-6.2-3v-4.8h-2.5c-4.3 0-6 1.5-6 4.1 0 2.3 1.2 3.5 3.7 3.5 1.9 0 3.8-1.1 4.8-2.8zm22.1-.3c0 2 1.4 2.8 3.3 2.8 1.2 0 2.4-.3 3.4-.7l1.1 3.2c-1.7.9-3.6 1.3-5.6 1.2-4.3 0-6.9-2.6-6.9-6.8V53.9h-6.5v-3.4h11.1l.1 24.5z" class="st1"/><path d="M613.8 436.3c-49.5 3.3-53.5 7.3-52.8 52.8l2 165.8c2 45.6 5.9 48.2 51.5 52.2v18.5H461.9v-18.5c43.6-4 48.2-6.6 48.9-52.2l.7-190.2c-39.6 85.2-101.1 222.6-116.2 260.9h-18.5c-15.2-40.3-72-175-108.3-259.6-2.6 95.8-6.6 180.3-5.3 207.4.7 23.8 9.9 29.7 48.9 33.7v18.5H182.5v-18.5c33.7-3.3 44.3-11.2 47.6-32.4 4-24.4 10.6-111 13.9-196.8 1.3-30.4-3.3-37.6-50.2-41.6v-18.5h107l101.7 222.6 105-222.6h106.3v18.5z" class="st2"/></g></g></svg>