<svg xmlns="http://www.w3.org/2000/svg" viewBox="0 0 800 1028.6" width="800" height="1028.6"><path d="M800 571.4v-400L628.6 0H0v1028.6h800V857.1h-57.1v114.3H57.1V57.1h514.3v171.4h171.4v342.9H800z"/><path d="M528 720c0 17.1-3.4 30.9-9.1 44.6-5.7 12.6-14.9 22.9-26.3 29.7-11.4 6.9-24 10.3-38.9 10.3s-27.4-3.4-38.9-10.3c-11.4-6.9-20.6-16-26.3-28.6-6.9-12.6-9.1-26.3-10.3-42.3v-9.1c0-17.1 3.4-32 9.1-44.6 5.7-12.6 14.9-22.9 26.3-29.7 11.4-6.9 24-10.3 38.9-10.3 14.9 0 27.4 3.4 38.9 10.3 11.4 6.9 20.6 17.1 26.3 29.7s9.1 27.4 9.1 43.4c1.2-1.1 1.2 6.9 1.2 6.9zm-41.1-6.9c0-17.1-2.3-29.7-8-38.9-5.7-9.1-13.7-13.7-24-13.7-20.6 0-32 16-33.1 46.9V720c0 17.1 2.3 29.7 8 38.9 5.7 9.1 13.7 13.7 25.1 13.7 10.3 0 18.3-4.6 24-13.7 5.7-9.1 8-21.7 8-37.7v-8.1zm187.4-50.2h-51.4v139.4h-40V662.9h-50.3v-32h141.7v32zm118.8 70.8h-66.3v67.4h-41.1V630.9H800v32h-73.1v38.9h66.3c-.1-.1-.1 31.9-.1 31.9z"/></svg>