<svg xmlns="http://www.w3.org/2000/svg" viewBox="0 0 800 1002.8" width="800" height="1002.8"><path d="M328 762l14.9-42.3 4.6-19.4h1.1l4.6 19.4L368 762h22.9l13.7-136h-25.1l-4.6 75.4-1.1 17.1-3.4-14.9L359 667h-19.4L328 703.7l-3.4 14.9h-1.1v-16l-6.9-76.6h-26.3L304 762h24zm115.4-17.2c4.6 5.7 9.1 11.4 16 14.9 6.9 3.4 14.9 5.7 24 5.7 17.1 0 29.7-5.7 38.9-18.3 9.1-12.6 12.6-29.7 12.6-51.4 0-10.3-1.1-19.4-2.3-28.6-2.3-9.1-4.6-16-9.1-22.9-4.6-5.7-9.1-11.4-16-14.9-6.9-3.4-14.9-5.7-24-5.7s-16 1.1-22.9 4.6-11.4 8-16 13.7c-4.6 5.7-8 13.7-9.1 21.7-2.3 9.1-3.4 18.3-3.4 29.7 0 10.3 1.1 19.4 2.3 28.6 2.2 9.2 5.6 17.2 9 22.9zm21.7-85.7c3.4-8 9.1-11.4 18.3-11.4 5.7 0 9.1 1.1 12.6 3.4s5.7 5.7 6.9 10.3c1.1 4.6 2.3 9.1 3.4 14.9 1.1 5.7 1.1 11.4 1.1 18.3 0 8 0 14.9-1.1 20.6-1.1 5.7-2.3 10.3-3.4 14.9-2.3 3.4-4.6 6.9-6.9 9.1-3.4 2.3-6.9 2.3-11.4 2.3-4.6 0-9.1-1.1-12.6-3.4-3.4-2.3-5.7-5.7-6.9-10.3-1.1-4.6-2.3-9.1-3.4-14.9s-1.1-11.4-1.1-18.3c0-16 1.1-27.5 4.5-35.5zm138.3 48h56v-24h-56V650H664v-24h-86.9v136h26.3v-54.9zm136 0h56v-24h-56V650H800v-24h-86.9v136h26.3v-54.9z"/><path d="M800 558.6v-400L628.6-12.9H0v1028.6h800V844.3h-57.1v114.3H57.1V44.3h514.3v171.4h171.4v342.9H800z"/></svg>