<svg xmlns="http://www.w3.org/2000/svg" viewBox="0 0 800 1028.6" width="800" height="1028.6"><path d="M800 571.4v-400L628.6 0H0v1028.6h800V857.1h-57.1v114.3H57.1V57.1h514.3v171.4h171.4v342.9H800z"/><path d="M560 744v58.3h-41.1V630.9h68.6c12.6 0 25.1 2.3 34.3 6.9 10.3 4.6 18.3 11.4 22.9 20.6 5.7 9.1 8 19.4 8 29.7 0 17.1-5.7 29.7-18.3 40-11.4 10.3-28.6 14.9-49.1 14.9H560v1zm0-32h27.4c8 0 13.7-2.3 18.3-5.7s5.7-9.1 5.7-17.1c0-8-2.3-14.9-6.9-19.4-4.6-4.6-9.1-6.9-17.1-6.9H560V712zm195.4 44.6c0-5.7-2.3-10.3-6.9-13.7-4.6-3.4-11.4-6.9-22.9-10.3s-19.4-6.9-26.3-10.3c-21.7-10.3-33.1-26.3-33.1-44.6 0-9.1 2.3-18.3 8-25.1s13.7-12.6 22.9-17.1c10.3-4.6 21.7-5.7 34.3-5.7s22.9 2.3 33.1 6.9c10.3 4.6 17.1 10.3 22.9 18.3s8 17.1 8 27.4h-41.1c0-6.9-2.3-12.6-6.9-16s-10.3-5.7-17.1-5.7c-6.9 0-13.7 1.1-17.1 4.6-4.6 3.4-6.9 6.9-6.9 12.6 0 4.6 2.3 8 6.9 11.4s12.6 6.9 25.1 11.4c11.4 3.4 21.7 8 28.6 12.6 18.3 10.3 27.4 25.1 27.4 43.4 0 14.9-5.7 26.3-17.1 35.4-11.4 9.1-26.3 12.6-46.9 12.6-13.7 0-26.3-2.3-37.7-8-11.4-5.7-19.4-11.4-25.1-20.6-5.7-9.1-8-18.3-8-29.7h41.1c0 9.1 2.3 16 6.9 20.6 4.6 4.6 12.6 6.9 22.9 6.9 6.9 0 12.6-1.1 16-4.6 6.7-3.6 9-8.2 9-12.7z"/></svg>