<svg xmlns="http://www.w3.org/2000/svg" id="Layer_1" viewBox="0 0 800 780.7" width="800" height="780.7"><style>.st0{fill:#2997ff}.st1{fill:none}.st2{fill:#999}.st3{fill:#4c4c4c}</style><path d="M85.8 112.4c-21.2 5.9-33.5 13.4-41.3 19.3C26.2 144.1 0 168.5 0 212.9c0 32.6 11 53.2 26.1 68.4 12.9 12.9 37.6 22 58.8 22 57.8 0 76.6-39 79.4-51 0-3.2 0-10.1-1.9-10.1s-3.2.5-5.9 4.1c-17 23.4-34.9 27.5-57.4 27.5-16.5 0-33.9-6.4-44.9-18.8-11-11.9-19.7-33.5-19.7-58.8 0-52.7 27.5-64.7 48.7-64.7 13.7 0 27.5 7.8 37.6 16.1 1.9 1.9 4.1 1.9 6.4 1.9 1.9 0 17-11 17-17 0-6.4-1.4-10.5-13.4-15.6-5.1-2.3-11.5-4.1-22-5.5-3.2-.5-6.3-2.6-6.9-3.6L87 111.5c-.3.5-.8.7-1.2.9zm209.8 153.4c-9.7 6.9-18.3 11.5-29.3 11.5-7.3 0-18.3-2.7-23.9-6.9-6.4-5.5-9.7-11.5-9.7-24.4 0-18.3.9-89.5 1.9-99.2 0-.9 2.7-4.6 6.4-4.6 6.9 0 47.8-1.9 51-1.9 3.2 0 5.5-3.7 5.5-5.5 0-6.4 0-11.5-.5-13.7-.9-4.1-2.7-4.6-5.1-4.6h-53.7c-4.1 0-5.1-1.9-5.1-5.9 0-2.2 0-4.3-.1-6.5h-29.1c-.5 2.5-1 4.7-1.6 7-.9 3.2-2.3 5.1-5.9 6.9-6.4 3.7-28 12.4-28 17.9 0 2.7 2.3 3.7 5.9 5.1 1.4.5 18.8.5 21.5 1.4 1.4.5 3.2 1.9 3.2 8.7 0 20.7-.9 61-.9 106.5 0 9.7 2.7 22.9 9.7 29.8 6.9 9.2 21.2 17 34.4 17 22 0 40.4-9.2 53.7-23.9 2.7-2.7 4.6-8.7 4.6-11 .2-5.1-2.6-5.1-4.9-3.7z"/><path d="M225.4 44.9C216.6 23.4 195.6 3.7 157 3.7c-42.2 0-77.6 31.7-77.6 77.1 0 11.5 3.7 22 8.3 29.3.3.6-.1 1-.6 1.5l14.9-3.7v-.1c-1.9-3.7-3.7-11.9-3.7-20.7 0-29.3 11.5-61 53.2-61 28.5 0 53.7 19.7 53.7 64.3 0 5.7-.5 10.1-1.2 13.7h29.1c-.4-27.5-3.4-48.1-7.7-59.2z" class="st0"/><path d="M703.1 136.8c-18.8 0-29.8 4.1-34.9 7.8-2.3 1.9-4.6 5.9-5.9 14.2-2.3 13.7-2.7 61-1.4 80.3.9 8.3 2.7 16.1 5.9 20.2 12.4 17.5 33.5 27.1 45.4 27.1 5.1 0 14.7-2.3 20.7-7.8 23.4-19.3 30.7-53.7 30.7-67 0-10.1 0-35.4-19.3-55.6-11.4-12.4-30.7-19.2-41.2-19.2z" class="st1"/><path d="M534.6 111.5c-14.2 0-26.6 4.6-35.4 9.7-17.9 10.5-27.5 25.3-27.5 43.6 0 19.3 10.5 33.5 24.4 43.2 13.4 8.7 21.5 13.4 34.4 20.7C548 237.9 553 249.4 553 259c0 18.3-12.9 30.7-31.2 30.7-11.9 0-30.3-9.2-43.6-32.6-2.7-5.5-6.9-9.7-10.5-9.7-1.4 0-5.1 2.7-5.1 8.3 0 17.5 9.2 34.4 11 36.8 7.8 7.8 30.3 11 42.7 11 16.5 0 33.1-5.9 43.2-11.5 12.4-7.8 27.1-22.5 27.1-43.6 0-19.7-10.5-36.3-37.1-51-34.2-17.9-47.5-26.2-47.5-46.4 0-8.7 7.8-26.1 27.5-26.1 15.1 0 26.1 6.9 33.9 22 2.7 4.6 7.3 12.4 9.2 12.4 3.2 0 6.9-5.5 6.9-7.3 0-3.2-.5-17.9-1.4-23.4-.5-4.1-1.9-7.3-4.1-8.3-4.6-1.9-7.8-3.2-12.9-5.5l-3.7-2.7c-.8-1.2-1.7-2.5-2.5-3.9h-16.7c.6 2-.5 3.3-3.6 3.3z"/><path d="M662.6 27.1c0-22-3.7-26.1-9.7-24.4-8.3 2.3-26.6 1.9-42.7 1.9-41.3 0-79.4 27.5-79.4 73.4 0 7.8 2.7 20.7 6.9 29 .2.4.4.8.5 1.2h16.7c-3.4-5.8-5.7-13.4-5.7-25.9 0-30.3 17.5-56.5 53.2-56.5 29 0 27.1 11.5 27.1 27.1v79.5l32.1-22.5c.1-30.5 1-54.3 1-82.8z" class="st0"/><path d="M778.4 139c-13.7-15.1-34.4-25.3-51.4-25.3-12.9 0-24.8 2.7-31.7 5.9-6.4 2.7-18.8 7.8-30.3 15.6-1.4.9-3.2-2.3-3.2-4.1-.1-7.5-.1-14.7-.1-21.4l-32.1 22.5V166c0 47.3-2.3 179-3.2 197-1.9 33.1-2.7 37.1-27.5 42.7-7.3 1.4-11 4.6-11 5.9 0 4.6 6.4 6.4 13.4 6.4 13.7 0 18.8-1.4 29.8-1.4 17.5 0 44.6 2.3 54.2 2.3 5.9 0 12.4-2.3 12.4-5.9 0-3.2-4.1-5.5-13.4-7.8-17-5.5-20.7-11.5-22-23.4-1.4-12.9-1.4-31.7-1.4-76.2 0-2.3 3.2-5.9 4.6-5.9 5.9.9 14.7 1.4 24.8 1.4 20.7 0 45.4-3.2 70.7-22.9 29.3-22 39-56 39-79-.1-25.3-10.6-47.7-21.6-60.2zm-45.5 139.7c-5.9 5.5-15.6 7.8-20.7 7.8-11.9 0-33.1-9.7-45.4-27.1-3.2-4.1-5.1-11.9-5.9-20.2-1.4-19.3-.9-66.6 1.4-80.3 1.4-8.3 3.7-12.4 5.9-14.2 5.1-3.7 16.1-7.8 34.9-7.8 10.5 0 29.8 6.9 41.3 19.3 19.3 20.2 19.3 45.4 19.3 55.6-.1 13.1-7.4 47.5-30.8 66.9z"/><path d="M17.1 393.2c0-16.1 9.5-24.3 20.4-24.3 6.4 0 10.2 2 13.9 5.5l-4.4 4.5c-2.8-2.5-5.6-3.8-9.3-3.8-6.6 0-12.4 4.7-12.4 18.1 0 13.1 3.8 18.2 11.2 18.2 2.8 0 5.5-.7 7.7-2v-12.9h-7.9l-.8-6h16.4v22.7c-4.4 2.5-9.2 4.2-15.7 4.2-11.9.1-19.1-8.1-19.1-24.2zm74.2 19.2l-1.8 5.2c-3.5-.4-6.1-1.8-7.3-5-2.6 3.3-6.9 5-11.4 5-7.3 0-11.8-4.5-11.8-11.1 0-7.4 6.1-11.8 17-11.8h5.1v-2.3c0-4.7-2.9-6.5-7.9-6.5-2.4 0-5.9.6-9.5 1.8l-1.9-5.4c4.5-1.7 8.8-2.4 12.5-2.4 9.6 0 14.3 4.5 14.3 11.9v16c0 2.9.8 4 2.7 4.6zm-10.2-5v-7.9h-4.2c-7.1 0-9.9 2.5-9.9 6.7 0 3.8 2.1 5.8 6 5.8 3.2 0 6.4-1.7 8.1-4.6zm49.3-40.8v50.1h-6.7l-.6-4.4c-2.4 3.4-5.8 5.3-10.1 5.3-9.2 0-13.4-7.5-13.4-18.7 0-10.9 5.4-18.8 14.1-18.8 3.8 0 6.7 1.3 9 3.9v-18.2l7.7.8zm-22.7 32.1c0 9.1 2.7 13 7.4 13 3.4 0 5.9-2.3 7.6-5.2v-16.8c-1.8-2.5-4.1-3.9-7.1-3.9-4.8-.1-7.9 4-7.9 12.9zm63.1 11.9l-.8 6.1h-27.5V411l19-24.1H144v-6.1h26.5v5.5l-18.9 24.1 19.2.2zm42.8-11.9c0 11.4-5.8 18.8-16.2 18.8-10.4 0-16.2-7.1-16.2-18.7 0-11.2 5.8-18.8 16.3-18.8s16.1 7.3 16.1 18.7zm-24.4 0c0 8.8 2.7 13 8.2 13 5.5 0 8.2-4 8.2-13 0-8.8-2.7-12.9-8.1-12.9-5.5 0-8.3 4.1-8.3 12.9zm65 0c0 11.4-5.8 18.8-16.2 18.8-10.4 0-16.2-7.1-16.2-18.7 0-11.2 5.8-18.8 16.3-18.8s16.1 7.3 16.1 18.7zm-24.4 0c0 8.8 2.7 13 8.2 13 5.5 0 8.2-4 8.2-13 0-8.8-2.7-12.9-8.1-12.9-5.5 0-8.3 4.1-8.3 12.9zm42.3 17.9h-7.6v-50.1l7.6-.8v50.9zm9.3-19.8l15.9 19.7H288L272.7 397l14.4-16.2h8.8l-14.5 16zm44.3 10.1c0-2.9-1.1-4.2-8.6-6.2-7.1-1.8-11.8-4.3-11.8-10.5s5.5-10.2 14.3-10.2c6 0 10.3 1.8 13.6 4.1l-3.3 4.8c-2.8-1.8-5.9-3.2-10.2-3.2-4.9 0-6.8 1.6-6.8 3.9 0 2.7 2 3.8 9 5.6 7 1.9 11.6 4.3 11.6 11.1 0 7.8-7.6 11.1-15.8 11.1-6.7 0-11.4-2.2-14.7-5l3.9-4.6c2.8 2.3 6.5 3.9 10.7 3.9 5.1.1 8.1-1.8 8.1-4.8zm39.2 5.5c0 2.9-2.2 5.2-5.2 5.2-2.8 0-5.1-2.3-5.1-5.2 0-2.8 2.3-5.1 5.1-5.1 3 0 5.2 2.3 5.2 5.1zm-1.9-11.9h-6.4l-.9-30.6h8.3l-1 30.6zM43.9 743.4l13.3 20.3H48l-11.8-19.3h-5.1v19.3h-7.9V717h13c11.9 0 18.2 4.5 18.2 13.5.1 6.9-4.5 11-10.5 12.9zm-7.1-20.6h-5.6v15.9H37c5.9 0 9.3-2.3 9.3-8.2.1-5.4-3.1-7.7-9.5-7.7zm43.5 35.9c3.5 0 6.4-1.1 9.4-3.1l3.3 4.6c-3.3 2.7-8 4.4-13 4.4-11.2 0-17.3-7.6-17.3-18.7 0-10.7 6.2-18.8 16.4-18.8 9.5 0 15.4 6.8 15.4 17.9 0 1.2-.1 2.5-.2 3.4H70.6c.4 7.1 4.5 10.3 9.7 10.3zm-9.9-15.6H87c-.1-6.8-2.9-10.5-8-10.5-4.7 0-8.1 3.4-8.6 10.5zm66.5-13.4c-2.8.9-6.2 1.1-10.3 1.1 4.2 2 6.5 4.8 6.5 9.1 0 7-5.4 12-14.1 12-2.1 0-3.5-.1-4.9-.6-.9.7-1.6 1.8-1.6 3 0 1.4.8 2.7 4.4 2.7h6.2c7.6 0 13.1 4.2 13.1 10 0 7.1-6.3 11.3-17.9 11.3-12.3 0-15.9-3.9-15.9-11.1h6.8c0 3.8 1.7 5.5 9.2 5.5 7.4 0 10.2-1.9 10.2-5.2 0-2.9-2.7-4.5-6.9-4.5h-6.2c-6.8 0-9.8-3.2-9.8-6.9 0-2.4 1.3-4.7 3.9-6.4-4.2-2.3-6.1-5.4-6.1-10.1 0-7.5 6.1-12.7 14.9-12.7 8.6.1 12.2-1.5 16.5-3.6l2 6.4zm-25.7 9.9c0 4.5 2.4 7.4 7.3 7.4 4.5 0 6.9-2.7 6.9-7.6 0-4.8-2.3-7.2-7-7.2-4.8.1-7.2 3-7.2 7.4zm41.9 13.3c0 4.2 1.7 5.9 5.1 5.9 3.3 0 6.6-2.3 8.4-5V728h7.6v35.7h-6.6l-.5-4.6c-2.6 3.6-7.1 5.5-11.3 5.5-7 0-10.2-3.9-10.2-10.7V728h7.6l-.1 24.9zm48.7 1c0 3.3 2.3 4.5 5.5 4.5 2.1 0 3.9-.5 5.6-1.2l1.9 5.3c-2.1 1.1-5.2 2.1-9.2 2.1-7.1 0-11.4-4.2-11.4-11.3v-34.1h-10.7v-5.5h18.3v40.2zm55 5.5l-1.8 5.2c-3.5-.4-6.1-1.8-7.3-5-2.6 3.3-6.9 5-11.4 5-7.3 0-11.8-4.5-11.8-11.1 0-7.4 6.1-11.8 17-11.8h5.1v-2.3c0-4.7-2.9-6.5-7.9-6.5-2.4 0-5.9.6-9.5 1.8l-1.9-5.4c4.5-1.7 8.8-2.4 12.5-2.4 9.6 0 14.3 4.5 14.3 11.9v16c-.1 2.9.7 4 2.7 4.6zm-10.3-5v-7.9h-4.2c-7.1 0-9.9 2.5-9.9 6.7 0 3.8 2.1 5.8 6 5.8 3.1 0 6.3-1.7 8.1-4.6zM298 728l-1.3 13.2h-5.5v-7.3c-5.1.1-8.7 4.2-10.8 11.2v13.3h7.1v5.5h-20v-5.5h5.3v-24.9h-5.3V728h11l1.3 8.3c2.7-5.9 6.4-9.1 12.6-9.1 2.3-.2 3.9.2 5.6.8zm52.6-11h7.8v40.1h21l-.8 6.6h-27.9l-.1-46.7zm58 41.2h9.8v5.5h-27.9v-5.5h10.6v-24.6h-10.2V728h17.9l-.2 30.2zm-.3-43c0 2.7-2.1 4.7-5 4.7-3 0-5-2.1-5-4.7 0-2.7 2-4.8 5-4.8s5 2.1 5 4.8zm53.5 14.5c-2.8.9-6.2 1.1-10.3 1.1 4.2 2 6.5 4.8 6.5 9.1 0 7-5.4 12-14.1 12-2.1 0-3.5-.1-4.9-.6-.9.7-1.6 1.8-1.6 3 0 1.4.8 2.7 4.4 2.7h6.2c7.6 0 13.1 4.2 13.1 10 0 7.1-6.3 11.3-17.9 11.3-12.3 0-15.9-3.9-15.9-11.1h6.8c0 3.8 1.7 5.5 9.2 5.5 7.4 0 10.2-1.9 10.2-5.2 0-2.9-2.7-4.5-6.9-4.5h-6.2c-6.8 0-9.8-3.2-9.8-6.9 0-2.4 1.3-4.7 3.9-6.4-4.2-2.3-6.1-5.4-6.1-10.1 0-7.5 6.1-12.7 14.9-12.7 8.6.1 12.2-1.5 16.5-3.6l2 6.4zm-25.6 9.9c0 4.5 2.4 7.4 7.3 7.4 4.5 0 6.9-2.7 6.9-7.6 0-4.8-2.3-7.2-7-7.2-4.9.1-7.3 3-7.2 7.4zm64.3 19.8l-1.8 5.2c-3.5-.4-6.1-1.8-7.3-5-2.6 3.3-6.9 5-11.4 5-7.3 0-11.8-4.5-11.8-11.1 0-7.4 6.1-11.8 17-11.8h5.1v-2.3c0-4.7-2.9-6.5-7.9-6.5-2.4 0-5.9.6-9.5 1.8l-1.9-5.4c4.5-1.7 8.8-2.4 12.5-2.4 9.6 0 14.3 4.5 14.3 11.9v16c-.1 2.9.7 4 2.7 4.6zm-10.3-5v-7.9H486c-7.1 0-9.9 2.5-9.9 6.7 0 3.8 2.1 5.8 6 5.8 3.1 0 6.3-1.7 8.1-4.6zm40.2 10.1c-8.4 0-12.7-4.7-12.7-11.8v-19.3h-7.9V728h7.9v-8l7.6-.8v8.8h12.1l-.8 5.5h-11.3v19.3c0 3.9 1.8 5.6 6.2 5.6 2.5 0 4.8-.7 6.7-1.7l2.7 5c-2.7 1.8-6.5 2.8-10.5 2.8zm28.7-11.6c0 4.2 1.7 5.9 5.1 5.9 3.3 0 6.6-2.3 8.4-5V728h7.6v35.7h-6.6l-.5-4.6c-2.6 3.6-7.1 5.5-11.3 5.5-7 0-10.2-3.9-10.2-10.7V728h7.6l-.1 24.9zM623 728l-1.3 13.2h-5.5v-7.3c-5.1.1-8.7 4.2-10.8 11.2v13.3h7.1v5.5h-20v-5.5h5.3v-24.9h-5.3V728h11l1.3 8.3c2.7-5.9 6.4-9.1 12.6-9.1 2.3-.2 3.9.2 5.6.8zm25.8 30.7c3.5 0 6.4-1.1 9.4-3.1l3.3 4.6c-3.3 2.7-8 4.4-13 4.4-11.2 0-17.3-7.6-17.3-18.7 0-10.7 6.2-18.8 16.4-18.8 9.5 0 15.4 6.8 15.4 17.9 0 1.2-.1 2.5-.2 3.4h-23.7c.5 7.1 4.6 10.3 9.7 10.3zm-9.8-15.6h16.5c-.1-6.8-2.9-10.5-8-10.5-4.6 0-8 3.4-8.5 10.5z" class="st2"/><path d="M63.7 598.8c-1.8 0-2.6 2.8-2.6 5.9 0 4.1 0 55.1 1 61.6.8 8 3.4 12.1 12.4 14.8 4.7 1.3 7 2.6 7 4.7s-3.7 3.4-7.5 3.4c-3.4 0-19.2-1-24.4-1-8.6 0-17.3 1.3-19.4 1.3-3.1 0-5.9-1.3-5.9-3.1 0-1.3 2.6-3.4 5.5-4.1 11.4-3.4 11.7-5.7 12.4-17.6-.3-8 .6-48.9 0-61.9 0-1.3-1.3-2.6-2.8-2.8l-9.3-.3c-1.8 0-2.8-2.1-2.8-4.7.3-1 8.8-5.2 12.1-7.5 2.4-1.6 3.4-2.4 3.4-4.4 0-13 2.8-25.1 7.2-34.7 4.9-10.6 14.5-21.4 25.4-28.2 6.2-4.1 18.1-10.1 30.3-10.1 13 0 22.5 4.1 27.9 9.9.6.8 1.6.5 2.1 0 9-9.3 24.1-16.5 37.5-16.5 17.3 0 23.8 7 27.2 11.7 1.6 2.4 2.1 3.7 2.1 5.9 0 6.2-9.9 12.7-13.2 12.7-1.3 0-4.7-3.4-9.9-8-5.7-5.9-12.4-9-20.4-9.3-6.5 0-11.1 2.4-16.1 7.8-6.2 7.2-13 24.4-13 60.3 0 .8 0 2.8 2.1 2.8h24.8c23 .3 27.2-1.6 31.9-2.8 2.6-.8 4.7-1.8 7-1.8 1.6 0 1.6 7.5 1.6 22.3 0 50.7 0 59.5.8 68.1.6 4.9 3.4 6.5 11.4 8.8 4.9 1.6 5.5 2.6 5.5 4.4 0 2.1-2.8 2.8-5.9 2.8-6.5 0-13.2-.8-20.2-.8-8.6 0-16.1 1-22 1-2.8 0-4.9-1-4.9-3.1 0-1.6 1.3-2.6 5.5-4.1 7-2.8 9.6-4.7 9.9-9 1-16.1 1.3-61.6 1.3-69.6 0-1.6-1.6-3.7-2.6-3.7-7.2-.8-32.9-.8-44.5-.3-.3 0-1.8.8-1.8 2.6 0 5.9.3 61.1.5 64.4 0 9.9-.8 12.4 15.2 15.8 4.7 1 5.7 3.1 5.7 4.1 0 1.8-3.4 2.8-6.5 2.8s-18.1-1-25.1-1c-8.8 0-15.5 1-21.7 1-2.8 0-5.7-1-5.7-2.8s2.8-3.4 5.2-3.9c11.4-3.1 13-5.9 13-18.1 0-8.8.5-47.9.5-63.2 0-1-1.6-2.4-2.4-2.4H63.7v-.1zm44.4-11.7c1 0 2.4-1 2.4-2.1 0-19.9 5.7-37.2 11.9-48.6.3-.6 0-2.1-.6-2.8-4.7-5.7-14.2-12.1-29.8-12.1-7.2 0-14.8 4.4-20.4 12.4-5.7 7.2-10.3 23.8-10.3 50.2 0 1 .8 3.1 2.6 3.1l44.2-.1z" class="st3"/></svg>