<svg xmlns="http://www.w3.org/2000/svg" id="Layer_1" viewBox="0 0 800 244" width="800" height="244"><style>.st0{fill:#2997ff}.st1{fill:#505050}</style><g id="b877493d-9141-4efa-b2d7-eb65f1c4ce25"><g id="ac78315b-56e4-4e19-bb15-0a221950f9bf"><path d="M18.3 15.8c0 6.7-3.5 10.7-8.4 10.7S1.4 22.7 1.4 16 4.9 5.3 9.7 5.3s8.6 3.5 8.6 10.5zm-14.4 0c0 6 2.6 8.4 5.8 8.4s6-2.6 6-8.4S13.5 7 9.7 7s-5.8 2.5-5.8 8.8zM23 23V4l2.6-.2v19.5c0 .9.2 1.2.9 1.2.2 0 .7 0 .9-.2l.7 1.9c-.7.2-1.2.5-2.1.5-1.9 0-3-1.2-3.2-2.8-.1-.7-.1-.9.2-.9zM43.4 3.7v22h-2.3l-.2-2.3c-1 1.4-2.9 2.6-4.5 2.6-3.7 0-6-3.2-6-8.1s2.3-8.1 6.3-8.1c1.9 0 3.2.7 4.2 2.1V3.5l2.5.2zm-2.6 17.9v-7.7c-.7-1.2-2.3-2.1-3.7-2.3-2.6 0-3.9 2.1-3.9 6.3s1.2 6.3 3.7 6.3c1.6-.1 3.2-1 3.9-2.6zm17.7-10.2l-1.2 1.4c-1.4-.9-2.6-1.2-4.2-1.2-1.9 0-3 .7-3 2.3s.9 2.1 3.5 2.8c3.2.9 5.3 2.3 5.3 4.9 0 3.2-3 4.6-6 4.6-2.3 0-4.2-.7-6-2.1l1.2-1.4c1.2.9 2.8 1.4 4.4 1.4 2.3 0 3.5-.9 3.5-2.6 0-1.4-.7-2.3-3.9-3-3.2-.7-4.6-2.3-4.6-4.4s2.6-4.2 5.6-4.2c2.1-.2 4 .5 5.4 1.5zM71 25.1c-1 .6-2.3.9-3.5.9-2.3.2-3.9-1.4-4.2-3.5V11.8h-2.8V10h2.8V6.3l2.6-.3v4h3.7l-.2 2.1h-3.5v9.7c0 1.9.5 2.6 2.1 2.6.7 0 1.4-.2 2.3-.7l.7 1.4zm8.6.6c-.7 3.5-3.5 6-7 6.3l-.2-1.9c2.6-.2 4.4-2.1 4.9-4.2h-.7l-5.3-15.8H74L78.2 24l4.2-13.9H85c.1.1-5.4 15.6-5.4 15.6zm8.1-2.7V4l2.6-.2v19.5c0 .9.2 1.2.9 1.2.2 0 .7 0 .9-.2l.7 1.9c-.7.2-1.2.5-2.1.5-1.9 0-3-1.2-3.2-2.8.2-.2.2-.9.2-.9zm20.4-4.2H97.9c.2 3.7 2.1 5.3 4.4 5.3 1.4 0 3-.5 4.2-1.4l.9 1.4c-1.4 1.2-3.5 2.1-5.6 2.1-4.2 0-7-3-7-7.9s2.6-8.4 6.5-8.4 6.5 3 6.5 7.7v1.2h.3zm-2.3-2.1c0-3.2-1.4-5.1-3.7-5.1s-3.7 1.4-3.7 5.3l7.4-.2zm24.6-12.3l-.9 1.9c-.9-.5-2.3-.7-3.5-.7-2.3 0-2.8.7-2.8 2.6v2.3h8.8v15.8h-2.6v-14h-6.3V26h-2.6V12.3h-2.6v-2.1h2.6V7.9c0-2.8 1.9-4.4 5.3-4.4 1.8 0 3.2.2 4.6.9zm19.9 6.3c-1.4.2-3 .5-4.4.5 1.6.5 2.6 2.3 2.6 3.9 0 3-2.3 5.3-5.3 5.3h-.7c-.7 0-1.2 0-2.1-.2-.5.2-.7.9-.7 1.4 0 .7.5 1.2 2.3 1.2h2.6c3.2 0 5.3 1.9 5.3 4.2 0 3-2.6 4.6-7.2 4.6S136 30.2 136 27h2.3c0 2.1.9 2.8 4.4 2.8 3.5 0 4.6-.9 4.6-2.6 0-1.4-1.2-2.3-3.2-2.3h-2.6c-2.8 0-3.9-1.4-3.9-3 0-1.2.7-2.3 1.9-2.8-1.9-.5-2.8-2.1-2.6-4.2 0-3 2.6-5.6 5.6-5.6h.5c2.6.2 4.9-.2 7.2-1.2l.1 2.6zm-11.4 4.4c-.2 1.9.9 3.5 3 3.7h.5c1.9.2 3.2-1.2 3.5-3v-.7c.2-1.6-.9-3.2-2.6-3.5h-.7c-1.9 0-3.2 1.2-3.5 3l-.2.5zm25.6 10.6h-2.3l-.2-2.6c-.9 1.9-3 3-4.9 3-2.3 0-4.2-1.9-4.4-3.9V10.4h2.6v10.9c0 2.3.7 3 2.6 3 1.9-.2 3.2-1.2 3.9-2.8V10.4h2.6l.1 15.3zM178.4 10l-.5 2.6c-.5-.2-.9-.2-1.4-.2-2.1 0-3.2 1.4-3.7 4.4v8.8h-2.6V10h2.3l.2 3.2c.5-2.1 2.3-3.5 4.2-3.5.3 0 1 0 1.5.3zm14.4 8.8h-10.2c.2 3.7 2.1 5.3 4.4 5.3 1.4 0 3-.5 4.2-1.4l.9 1.4c-1.4 1.2-3.5 2.1-5.6 2.1-4.2 0-7-3-7-7.9s2.6-8.4 6.5-8.4 6.5 3 6.5 7.7v1.2h.3zm-2.6-2.1c0-3.2-1.2-5.1-3.9-5.1-2.3 0-3.7 1.4-3.7 5.3l7.6-.2zm16.5-5.3l-.9 1.4c-1.4-.9-2.6-1.2-4.2-1.2-1.9 0-3 .7-3 2.3s.7 2.1 3.5 2.8c3.2.9 5.3 2.3 5.3 4.9 0 3.2-3 4.6-6 4.6-2.3 0-4.2-.7-5.8-2.1l1.2-1.4c1.2.9 2.8 1.4 4.4 1.4 2.1 0 3.5-.9 3.5-2.6 0-1.6-.7-2.3-3.9-3-3.2-.7-4.6-2.3-4.6-4.4s2.6-4.2 5.6-4.2c1.4-.2 3.2.5 4.9 1.5zm26.4 14.1c-.7.2-1.4.5-2.3.5-2.1 0-3-1.2-3-3.5V6c-1.2-.2-2.6-.5-3.5-.5-2.1 0-2.8.7-2.8 2.3v2.3h3.9l-.2 2.1h-3.5v13.2h-2.6V11.8h-2.6V10h2.6V7.7c0-2.6 1.9-4.4 4.9-4.4 1.2 0 2.6.2 3.7.5l2.6-.2v18.8c0 .9.2 1.2.9 1.2.2 0 .7 0 .9-.2l1 2.1zm16.2-7.6c0 4.9-2.6 8.1-7 8.1s-7-3.2-7-8.1 2.6-8.1 7-8.1c4.7-.1 7 3.2 7 8.1zm-11.1 0c0 4.2 1.4 6.3 4.2 6.3s4.2-2.1 4.2-6.3-1.4-6.3-4.2-6.3c-2.6 0-4.2 2.1-4.2 6.3zm29.9 7.8h-3.5l-3-13.5-3 13.5h-3.2L251.7 10h2.6l3 13.9 3.2-13.9h2.8l3 13.9 3-13.9h2.6c-.3.2-3.8 15.7-3.8 15.7zm-253 28.1c0 4.9-2.3 8.1-6.3 8.1-1.9 0-3.2-.7-4.2-2.3l-.2 2.1H2.3V39.9l2.3-.5v8.8c.9-1.4 2.8-2.6 4.4-2.6 4-.1 6.1 2.9 6.1 8.2zm-2.6 0c0-4.4-1.4-6.3-3.7-6.3-1.9 0-3 .9-3.7 2.6v7.7c.7 1.2 2.1 2.1 3.5 2.3 2.3-.3 3.9-2.1 3.9-6.3zm18.8.9H21.1c.2 3.7 2.1 5.3 4.4 5.3 1.4 0 3-.5 4.2-1.4l.9 1.4c-1.4 1.2-3.5 2.1-5.6 2.1-4.2 0-7-3-7-7.9s2.6-8.4 6.5-8.4 6.5 3 6.5 7.7v1.2h.3zm-2.5-2.3c0-3.2-1.2-4.9-3.9-4.9-2.3 0-3.7 1.4-3.9 5.3-.1-.1 7.8-.4 7.8-.4zm15 8.6c-.9.7-2.3.9-3.5.9-2.3.2-3.9-1.4-4.2-3.5V48h-2.8v-2.1h2.8v-3.7l2.6-.2v3.9h3.7l-.2 2.1h-3.5v9.7c0 1.9.5 2.6 2.1 2.6.7 0 1.4-.2 2.3-.7-.4-.2.7 1.4.7 1.4zm10.5 0c-.9.7-2.3.9-3.5.9-2.3.2-3.9-1.4-4.2-3.5V48h-2.8v-2.1h3v-3.7l2.6-.2v3.9h3.7l-.2 2.1h-3.5v9.7c0 1.9.5 2.6 2.1 2.6.7 0 1.4-.2 2.3-.7-.2-.2.5 1.4.5 1.4zm14.1-6.3H58.2c.2 3.7 2.1 5.3 4.4 5.3 1.4 0 3-.5 3.9-1.4l1.2 1.4c-1.4 1.2-3.5 2.1-5.6 2.1-4.2 0-7-3-7-7.9s2.6-8.4 6.5-8.4 6.5 3 6.5 7.7v1.2h.3zm-2.5-2.3c0-3.2-1.2-4.9-3.7-4.9-2.3 0-3.7 1.4-3.7 5.3l7.4-.4zm15.3-6.7l-.5 2.6c-.4-.3-.9-.3-1.1-.3-2.1 0-3.2 1.4-3.7 4.4v9h-2.6V45.7h2.3l.2 3.2c.5-2.1 2.3-3.5 4.2-3.7 0 .3.5.3 1.2.5zm14.1-5.3c0 .9-.7 1.9-1.9 1.9s-1.9-.7-1.9-1.9.7-1.9 1.9-1.9 1.9.5 1.9 1.9c0-.3 0 0 0 0zm-.7 21.3H92V45.9h2.6v15.8zm17.7-11.4v11.1h-2.6V50.6c0-2.6-.9-3.2-2.6-3.2-1.9 0-3.5 1.2-4.2 3v11.1h-2.6V45.7h2.3l.2 2.6c.9-1.9 3-2.8 4.9-2.8 2.3 0 4.2 1.9 4.4 3.9.2.5.2.9.2.9zm21.5-4.6l-.5 2.6c-.5-.2-.9-.2-1.4-.2-2.1 0-3.2 1.4-3.7 4.4v9h-2.6V45.7h2.3l.2 3.2c.7-2.6 2.3-3.7 4.2-3.7.6.3 1.1.3 1.5.5zm14.6 16h-2.3l-.2-2.6c-.9 2.1-2.8 3-4.9 3-2.3.2-4.2-1.9-4.4-3.9V45.9h2.6v10.9c0 2.3.7 3 2.6 3 1.9 0 3.5-1.2 4.2-2.8V45.9h2.6v15.8zm17.7-11.4v11.1h-2.6V50.6c0-2.6-.9-3.2-2.6-3.2-1.9 0-3.5 1.2-4.2 3v11.1h-2.6V45.7h2.3l.2 2.6c.9-1.9 3-2.8 4.9-2.8 2.3 0 4.2 1.9 4.2 4.2v.7h.4zm17.1 0v11.1h-2.6V50.6c0-2.6-.9-3.2-2.6-3.2-1.9 0-3.5 1.2-4.2 3v11.1h-2.3V45.7h2.1l.2 2.6c.9-1.9 3-2.8 4.9-2.8 2.3-.2 4.4 1.9 4.4 3.9v.9h.1zm8.6-9.9c0 .9-.7 1.9-1.9 1.9s-1.9-.7-1.9-1.9.7-1.9 1.9-1.9c1 0 1.9.5 1.9 1.9 0-.3 0 0 0 0zm-.7 21.3h-2.6V45.9h2.6v15.8zm17.7-11.4v11.1h-2.6V50.6c0-2.6-.9-3.2-2.6-3.2-1.9 0-3.5 1.2-4.2 3v11.1h-2.6V45.7h2.3l.2 2.6c.9-1.9 3-2.8 4.9-2.8 2.3 0 4.2 1.9 4.2 4.2v.7h.4zm18-3.9c-1.4.2-3 .5-4.4.5 1.9.5 2.8 2.3 2.8 3.9 0 3-2.3 5.3-5.3 5.3h-.7c-.7 0-1.2 0-2.1-.2-.5.2-.7.9-.7 1.4 0 .7.5 1.2 2.3 1.2h2.6c3.2 0 5.3 1.9 5.3 4.2 0 3-2.6 4.6-7.2 4.6s-6.7-1.4-6.7-4.6h2.3c0 2.1.9 2.8 4.4 2.8s4.6-.9 4.6-2.6-1.2-2.3-3.2-2.3H218c-2.8 0-3.9-1.4-3.9-3 0-1.2.7-2.3 1.9-2.8-1.9-.7-2.8-2.6-2.8-4.4 0-3 2.6-5.6 5.6-5.6h.5c2.6.2 4.9-.2 7.2-1.2l.3 2.8zM215.3 51c-.2 1.9 1.2 3.5 3 3.7h.5c1.9.2 3.2-1.2 3.5-3V51c.2-1.9-.9-3.2-2.8-3.5h-.7c-1.9 0-3.2 1.2-3.5 3v.5zm30.1 10c-.9.7-2.3.9-3.5.9-2.3.2-3.9-1.4-4.2-3.5V48H235v-2.1h2.8v-3.7l2.6-.2v3.9h3.7l-.2 2.1h-3.5v9.7c0 1.9.5 2.6 2.1 2.6.7 0 1.4-.2 2.3-.7-.3-.2.6 1.4.6 1.4zm14.2-6.3h-10.2c.2 3.7 2.1 5.3 4.4 5.3 1.4 0 3-.5 4.2-1.4l.9 1.4c-1.4 1.2-3.5 2.1-5.6 2.1-4.2 0-7-3-7-7.9s2.6-8.4 6.5-8.4 6.5 3 6.5 7.7v1.2h.3zm-2.4-2.3c0-3.2-1.2-4.9-3.9-4.9-2.3 0-3.7 1.4-3.9 5.3l7.8-.4zm18.1 9.3h-3l-3.9-6.7-3.9 6.7h-2.8l5.6-8.1-4.6-7.4h3l3.5 6 3.5-6h2.8l-4.6 7.2 4.4 8.3zM286 61c-.9.7-2.3.9-3.5.9-2.3.2-3.9-1.4-4.2-3.5V48h-2.8v-2.1h2.8v-3.7l2.6-.2v3.9h3.7l-.2 2.1h-3.7v9.7c0 1.9.5 2.6 2.1 2.6.7 0 1.4-.2 2.3-.7 0-.2.9 1.4.9 1.4zm5.6-1.2c0 .9-.7 2.1-1.9 2.1-.9 0-1.9-.9-1.9-2.3 0-.9.7-1.4 1.9-1.9.9.3 1.9 1.2 1.9 2.1zM14.1 100.2H8.4v18.3H6v-18.3H0v-2.3h14.4l-.3 2.3zm15.4 7v11.1h-2.6v-10.9c0-2.6-.9-3.2-2.6-3.2-1.6.2-3.5 1.4-4.2 2.8v11.1h-2.6V96.5l2.6-.2v9c.9-1.4 3-2.6 4.6-2.6 2.3 0 4.2 1.9 4.4 4.2v.2h.4zm16.9 4.1H36.2c.2 3.7 2.1 5.3 4.4 5.3 1.4 0 3-.5 4.2-1.4l.9 1.4c-1.4 1.2-3.5 2.1-5.6 2.1-4.2 0-7-3-7-7.9s2.6-8.4 6.5-8.4 6.5 3 6.5 7.7v1.2h.3zm-2.3-1.8c0-3.2-1.2-4.9-3.7-4.9-2.3 0-3.7 1.4-3.7 5.3h7.7v-.2h-.2v-.2zm13 9c-.7 3.5-3.5 6-7 6.3l-.5-1.9c2.6-.2 4.4-2.1 4.9-4.2h-.9L48.2 103H51l4.2 13.9 4.2-13.9H62c.2 0-4.9 15.5-4.9 15.5zM68 97.7c0 .5-.2 1.2-.5 1.9l-2.1 4.2h-1.9l1.2-4.4c-.4-.4-.7-.8-.7-1.5 0-.9.9-1.9 2.1-1.4.9-.2 1.9.5 1.9 1.2zm12.3 5.1l-.5 2.6c-.5-.2-.9-.2-1.2-.2-2.1 0-3.2 1.4-3.7 4.4v9.3h-2.6V103h2.3l.2 3.2c.7-2.6 2.3-3.7 4.2-3.7.3 0 .8 0 1.3.3zm14.1 8.5H84.2c.2 3.7 2.1 5.3 4.4 5.3 1.4 0 3-.5 4.2-1.4l.9 1.4c-1.4 1.2-3.5 2.1-5.6 2.1-4.2 0-7-3-7-7.9s2.6-8.4 6.5-8.4 6.5 3 6.5 7.7c.5.5.5.8.3 1.2zm-2.3-1.8c0-3.2-1.2-4.9-3.7-4.9-2.3 0-3.7 1.4-3.7 5.3h7.7v-.2h-.2v-.2zm26.7 1.8h-10.2c.2 3.7 2.1 5.3 4.4 5.3 1.4 0 3-.5 4.2-1.4l.9 1.4c-1.4 1.2-3.5 2.1-5.6 2.1-4.2 0-7-3-7-7.9s2.6-8.4 6.5-8.4 6.5 3 6.5 7.7v1.2h.3zm-2.4-1.8c0-3.2-1.2-4.9-3.7-4.9-2.3 0-3.7 1.4-3.7 5.3h7.4v-.4zm12.6 8.8h-3l-5.3-15.5h2.8l4.2 13.5 4.2-13.5h2.8l-5.7 15.5zm20.1-7h-10.2c.2 3.7 2.1 5.3 4.4 5.3 1.4 0 3-.5 4.2-1.4l.9 1.4c-1.4 1.2-3.5 2.1-5.6 2.1-4.2 0-7-3-7-7.9s2.6-8.4 6.5-8.4 6.5 3 6.5 7.7c.6.5.3 1 .3 1.2zm-2.3-1.8c0-3.2-1.2-4.9-3.7-4.9-2.3 0-3.7 1.4-3.7 5.3h7.7v-.2h-.2v-.2zm18.8-2.3v11.1H163v-10.9c0-2.6-.9-3.2-2.6-3.2-2.1 0-3.5 1.2-4.4 3v11.1h-2.6v-15.8h2.3l.2 2.6c.9-1.9 3-2.8 4.9-2.8 2.3-.2 4.4 1.4 4.4 3.9v.9h.4zm25.1 9.9l-.5 1.6c-1.4 0-2.8-.9-3-2.6-.9 1.4-2.8 2.6-4.6 2.6-2.6.2-4.6-1.4-4.9-3.9v-.7c0-3.5 2.6-5.3 6.7-5.3h2.6v-1.2c0-2.3-.9-3.2-3.5-3.2-1.4 0-3 .2-4.2.7l-.7-1.6c1.9-.7 3.5-.9 5.3-.9 3.7 0 5.6 2.1 5.6 5.3v7.2c-.2 1.3.2 1.8 1.2 2zm-4-2.7v-3.7h-2.3c-3 0-4.4.9-4.4 3.2-.2 1.2.5 2.8 2.1 3h.9c1.9 0 3.3-.9 3.7-2.5zm14.2 3.9h-3l-5.3-15.5h2.8l4.2 13.5 4.2-13.5h2.8l-5.7 15.5zm19.9-1.2l-.5 1.6c-1.4 0-2.8-.9-3-2.6-.9 1.4-2.8 2.6-4.6 2.6-2.6.2-4.6-1.4-4.9-3.9v-.7c0-3.5 2.6-5.3 6.7-5.3h2.6v-1.2c0-2.3-.9-3.2-3.2-3.2-1.4 0-3 .2-4.2.7l-.9-1.6c1.9-.7 3.5-.9 5.3-.9 3.7 0 5.6 2.1 5.6 5.3v7.2c0 1.3.4 1.8 1.1 2zm-3.7-2.7v-3.7h-2.3c-3 0-4.4.9-4.4 3.2-.2 1.2.5 2.8 1.9 3h1.2c1.5 0 3.1-.9 3.6-2.5zM228.2 97c0 .9-.7 1.9-1.9 1.9-.9 0-1.9-.7-1.9-1.9 0-.9.7-1.9 1.9-1.9 1.2.2 1.9.9 1.9 1.9zm-.4 21.3h-2.6v-15.8h2.6v15.8zm5.5-3V96.5l2.6-.2v19.5c0 .7.2 1.2.9 1.2.2 0 .7 0 .9-.2l.7 1.9c-.7.2-1.2.5-2.1.5-1.9 0-3-1.2-3.2-2.8v-.9h.2zm20.5 1.8l-.5 1.9c-1.4 0-2.8-.9-3-2.6-.9 1.4-2.8 2.6-4.6 2.6-2.6.2-4.6-1.4-4.9-3.9v-.7c0-3.5 2.6-5.3 6.7-5.3h2.6v-1.2c0-2.3-.9-3.2-3.2-3.2-1.4 0-3 .2-4.2.7l-.5-1.9c1.9-.7 3.5-.9 5.3-.9 3.7 0 5.6 2.1 5.6 5.3v7.2c-.7 1.3-.3 1.8.7 2zm-4-2.7v-3.7h-2.3c-3 0-4.4.9-4.4 3.2-.2 1.4.7 2.8 2.3 3h.7c1.6 0 3-.9 3.7-2.5zm21.1-3.8c0 4.9-2.3 8.1-6.3 8.1-1.9 0-3.2-.7-4.2-2.1l-.2 1.9h-2.1v-22l2.6-.2v8.8c.9-1.4 2.8-2.6 4.4-2.6 3.5 0 5.8 3 5.8 8.1zm-2.5 0c0-4.4-1.4-6.3-3.7-6.3-1.9 0-3 .9-3.7 2.6v7.7c.7 1.2 2.3 2.1 3.5 2.3 2 0 3.9-2.1 3.9-6.3zm6.9 4.7V96.5l2.6-.2v19.5c0 .7.2 1.2.9 1.2.2 0 .7 0 .9-.2l.7 1.9c-.7.2-1.2.5-2.1.5-1.9 0-3-1.2-3.2-2.8v-.9h.2zm20.4-4h-10.2c.2 3.7 2.1 5.3 4.4 5.3 1.4 0 3-.5 4.2-1.4l.9 1.4c-1.4 1.2-3.5 2.1-5.6 2.1-4.2 0-7-3-7-7.9s2.6-8.4 6.5-8.4 6.5 3 6.5 7.7c.6.5.6 1 .3 1.2zm-2.5-1.8c0-3.2-1.2-4.9-3.9-4.9-2.3 0-3.7 1.4-3.9 5.3h7.7l.1-.4zM5.3 132.9c0 .9-.7 1.9-1.9 1.9h-.2c-.9 0-1.9-.5-2.1-1.4 0-.9.5-1.9 1.4-2.1H3c1.4-.2 2.3.4 2.3 1.6zm-.7 21.3H2.3v-15.8h2.3v15.8zM22 142.9V154h-2.3v-10.9c0-2.6-.9-3.2-2.6-3.2-1.9 0-3.5 1.2-4.2 3V154h-2.6v-15.8h2.3l.2 2.6c.9-1.6 3-2.6 4.9-2.6 2.3 0 4.2 1.9 4.4 4.2.2.3.2.3-.1.5zm23.2-2.8l-.9 1.4c-1.2-.9-2.6-1.2-3.9-1.2-2.1 0-3 .9-3 2.3 0 1.2.7 2.1 3.5 2.6 3.2.9 5.3 2.3 5.3 4.9 0 3.2-3 4.6-6 4.6-2.3 0-4.2-.7-6-2.1l1.2-1.4c1.2.9 2.8 1.4 4.4 1.4 2.3 0 3.5-.9 3.5-2.6 0-1.6-.7-2.3-3.9-3-3.2-.7-4.6-2.6-4.6-4.6 0-2.3 2.6-4.2 5.6-4.2 1.4 0 3.4.5 4.8 1.9zm17.2 6.3c0 4.9-2.6 8.1-7 8.1s-7-3.2-7-8.1 2.6-8.1 7-8.1 7 3.2 7 8.1zm-11.1 0c0 4.2 1.4 6.3 4.2 6.3 2.8 0 4.2-2.1 4.2-6.3 0-4.2-1.4-6.3-4.2-6.3-2.8.2-4.2 2.1-4.2 6.3zm35.4-3.5V154h-2.6v-10.9c0-2.6-.9-3.2-2.3-3.2-1.9 0-2.8 1.2-3.7 3V154h-2.6v-10.9c0-2.6-.9-3.2-2.3-3.2-1.9 0-2.8 1.2-3.7 3V154H67v-15.8h1.9l.2 2.6c.9-1.9 2.8-2.8 4.6-2.8 1.9 0 3.5 1.2 3.9 3 .9-1.9 2.8-2.8 4.6-3 2.3 0 4.2 2.1 4.2 4.2.3.5.3.7.3.7zm17.2 4.4h-10c.2 3.7 2.1 5.3 4.4 5.3 1.4 0 3-.5 4.2-1.4l.9 1.4c-1.4 1.2-3.5 2.1-5.6 2.1-4.2 0-7-3-7-7.9s2.6-8.4 6.5-8.4 6.5 3 6.5 7.7c.3.3.1.7.1 1.2zm-2.5-2.1c0-3.2-1.2-4.9-3.7-4.9-2.3 0-3.7 1.4-3.7 5.3h7.4v-.4zm24.8-5.1l-1.4 1.4c-1.2-.9-2.6-1.2-3.9-1.2-1.9 0-3 .9-3 2.3 0 1.2.7 2.1 3.5 2.6 3.2.9 5.3 2.3 5.3 4.9 0 3.2-3 4.6-6 4.6-2.3 0-4.2-.7-5.8-2.1l1.2-1.4c1.2.9 2.8 1.4 4.4 1.4 2.1 0 3.5-.9 3.5-2.6 0-1.4-.7-2.3-3.9-3-3.2-.7-4.6-2.3-4.6-4.4 0-2.3 2.6-4.2 5.6-4.2 1.6-.2 3.2.3 5.1 1.7zm15.8 12.8l-.5 1.9c-1.4 0-2.8-.9-3-2.6-.9 1.4-2.8 2.6-4.6 2.6-2.6.2-4.6-1.4-4.9-3.9v-.7c0-3.5 2.6-5.3 6.7-5.3h2.6v-1.2c0-2.3-.9-3.2-3.2-3.2-1.4 0-3 .2-4.2.7l-.9-1.9c1.9-.7 3.5-.9 5.3-.9 3.7 0 5.6 2.1 5.6 5.3v7.2c-.1 1.3.4 1.7 1.1 2zm-3.8-2.6v-3.7h-2.3c-3 0-4.4.9-4.4 3.2-.2 1.2.5 2.8 2.1 3h.9c1.4-.2 3-1.1 3.7-2.5zm20-7.4V154h-2.6v-10.9c0-2.6-.9-3.2-2.6-3.2-1.9 0-3.5 1.2-4.2 3V154h-2.6v-15.8h2.3l.2 2.6c.9-1.9 3-2.8 4.9-2.8 2.3 0 4.2 1.9 4.4 3.9.2.8.2.8.2 1zm14.8-2.8l-.9 1.4c-1.2-.9-2.6-1.2-3.9-1.2-1.9 0-3 .9-3 2.3 0 1.2.7 2.1 3.5 2.6 3.2.9 5.3 2.3 5.3 4.9 0 3.2-3 4.6-6 4.6-2.3 0-4.2-.7-5.8-2.1l1.2-1.4c1.2.9 2.8 1.4 4.4 1.4 2.1 0 3.5-.9 3.5-2.6 0-1.4-.7-2.3-3.9-3-3.2-.7-4.6-2.3-4.6-4.4 0-2.3 2.6-4.2 5.6-4.2 1.4-.2 3.2.5 4.6 1.7zm3.3 3.9h8.1v2.3h-8.1V144zm22.5-3.9l-1.2 1.4c-1.2-.9-2.8-1.2-4.2-1.2-1.9 0-3 .9-3 2.3 0 1.2.7 2.1 3.5 2.6 3.2.9 5.3 2.3 5.3 4.9 0 3.2-3 4.6-6 4.6-2.3 0-4.2-.7-6-2.1l1.2-1.4c1.2.9 2.8 1.4 4.4 1.4 2.1 0 3.5-.9 3.5-2.6 0-1.4-.7-2.3-3.9-3-3.2-.7-4.6-2.3-4.6-4.4 0-2.3 2.6-4.2 5.6-4.2 2.1-.2 3.8.5 5.4 1.7zm16 7.2h-10.2c.2 3.7 2.1 5.3 4.4 5.3 1.4 0 3-.5 4.2-1.4l.9 1.4c-1.4 1.2-3.5 2.1-5.6 2.1-4.2 0-7-3-7-7.9s2.6-8.4 6.5-8.4 6.5 3 6.5 7.7v1.2h.3zm-2.3-2.1c0-3.2-1.2-4.9-3.9-4.9-2.3 0-3.7 1.4-3.9 5.3h7.7l.1-.4zm15-6.7l-.5 2.6c-.5 0-.9-.2-1.4-.2-2.1 0-3.2 1.4-3.9 4.4v9.3h-2.6v-15.8h2.3l.2 3.2c.5-2.1 2.3-3.5 4.2-3.7.8-.1 1.3-.1 1.7.2zm6.1-5.4c0 .9-.7 1.9-1.9 1.9-.9 0-1.9-.7-1.9-1.9 0-.9.7-1.9 1.9-1.9 1.2-.1 1.9.8 1.9 1.9zm-.5 21.1h-2.6v-15.8h2.6v15.8zm8.6-17.8v2.3h3.9l-.2 2.1h-3.5v13.7h-2.6v-13.7h-2.8v-2.1h2.8v-2.3c0-2.3 1.9-4.2 3.9-4.4h.7c1.2 0 2.6.2 3.7.7l-.7 1.9c-.9-.5-1.9-.5-2.8-.5-1.9 0-2.4.7-2.4 2.3zm23 17.4c-.9.7-2.3.9-3.5.9-2.3.2-3.9-1.4-4.2-3.5v-10.4h-2.8v-2.1h2.8V135l2.6-.2v3.9h3.7l-.2 2.1h-3.5v9.7c0 1.9.5 2.6 2.1 2.6.7 0 1.4-.2 2.3-.7-.5-.2.7 1.4.7 1.4zm8.5.7c-.7 3.5-3.5 6-7 6.3l-.2-2.1c2.6-.2 4.4-2.1 4.9-4.2h-.7l-5.3-15.8h2.8l4.2 13.9 4.2-13.9h2.6c.1 0-5.5 15.8-5.5 15.8zm21.1-8.1c0 4.6-2.1 8.1-6.3 8.1-1.9 0-3.2-.5-4.2-2.1v7.7l-2.6.2v-21.8h2.3l.2 2.3c.9-1.4 2.8-2.6 4.6-2.6 4.7 0 6 3.3 6 8.2zm-2.5 0c0-4.2-1.2-6.3-3.7-6.3-1.9 0-3.2.9-3.9 2.6v7.7c.7 1.2 2.3 2.1 3.5 2.1 2.7.1 4.1-1.7 4.1-6.1zm19 .9h-10.2c.2 3.7 2.1 5.3 4.4 5.3 1.4 0 3-.5 4.2-1.4l.9 1.4c-1.4 1.2-3.5 2.1-5.6 2.1-4.2 0-7-3-7-7.9s2.6-8.4 6.5-8.4 6.5 3 6.5 7.7v1.2h.3zm-2.5-2.1c0-3.2-1.2-4.9-3.9-4.9-2.3 0-3.7 1.4-3.7 5.3h7.7v-.4zm9.2 7.4c0 .9-.7 2.1-2.1 2.1-.9 0-2.1-.7-2.1-2.1 0-.9.7-2.1 2.1-2.1 1.2.3 2.1 1.2 2.1 2.1z"/><path d="M47.3 201.3h-2.6v-17.2l-4.6 3-1.2-1.6 6-3.7h2.3v19.5zm23.9-14.8c0 3.7-2.6 6.5-8.8 12.8h9.3l-.2 2.3H60.1v-2.1c7.2-7.4 8.8-9.5 8.8-12.8.2-1.9-1.2-3.2-3-3.5h-.5c-1.9 0-3.2.7-4.2 2.3l-1.9-1.2c1.4-2.1 3.7-3 6-3 3-.2 5.6 2.1 6 4.9-.1.1-.1.3-.1.3zm47.6 10h-2.6v4.9h-2.6v-4.9h-8.8v-1.9l6-13.5 2.1.9-5.6 12.5h6.3l.2-5.6h2.3v5.6h2.6c.1.1.1 2 .1 2zm21.5-13.3h-8.1v6.3c.9-.5 2.1-.7 3.2-.7 3 0 5.8 2.6 5.8 5.6v.7c.2 3.5-2.6 6.5-6 6.7h-.7c-2.3 0-4.2-.7-5.8-2.6l1.4-1.4c.9 1.2 2.8 2.1 4.2 2.1 2.6 0 4.2-1.9 4.2-4.6 0-2.8-1.9-4.2-3.7-4.2-.9 0-2.1.2-3 .7h-2.1v-10h10.7c.4-.2-.1 1.4-.1 1.4zm24.8 11.2c.2 3.5-2.3 6.7-5.8 7h-.5c-4.6 0-6.7-3.9-6.7-9.7 0-6.7 2.8-10.9 7.4-10.9 1.4 0 2.8.5 3.9 1.2l-.9 1.9c-.9-.5-2.1-.7-3-.7-3 0-4.6 3.2-4.9 7.7.9-1.9 3-2.8 4.9-2.8 3 0 5.6 2.6 5.6 5.8.3 0 .3.2 0 .5zm-2.5 0c0-3.2-1.4-4.4-3.2-4.4-2.1 0-3.5 1.2-4.4 2.8 0 4.4 1.2 6.5 3.9 6.5 2.8-.1 3.7-1.7 3.7-4.9zm24.1-11.2l-7.4 18.3-2.3-.7 7.2-17.4h-9v-2.1h11.4v1.9h.1zm23.9 12.8c0 3.2-2.8 5.8-7 5.8s-6.7-2.3-6.7-5.8c0-2.6 1.9-4.4 3.9-5.3-2.1-.7-3.2-2.6-3.2-4.6.5-3.2 3.7-5.6 7-4.9 2.6.5 4.4 2.6 4.9 4.9 0 2.1-1.2 3.5-3.5 4.4 3 .6 4.6 2.9 4.6 5.5zm-2.8 0c0-2.3-1.2-3.2-4.4-4.2l-.7-.2c-2.1.7-3.2 2.6-3.2 4.4 0 2.3 1.4 3.5 4.2 3.5 2.7 0 4.1-1.4 4.1-3.5zm-7.4-10c0 2.1 1.2 2.8 3.7 3.7l.5.2c1.4-.5 2.8-2.3 2.8-3.7-.2-2.1-1.9-3.2-3.7-3.2-1.7 0-3.1 1.2-3.3 3zm33.6 3c0 8.1-3.2 10.9-10.4 13l-.5-2.1c5.3-1.4 8.1-3.7 8.4-8.4-.9 1.4-2.8 2.6-4.4 2.6-3.2 0-5.8-2.8-5.6-6v-.5c-.2-3.5 2.3-6.3 5.8-6.5h.5c4.2.1 6.2 2.8 6.2 7.9zm-2.5.5c0-4.4-.9-6.3-3.7-6.3-2.8 0-3.7 1.9-3.7 4.6s1.4 4.2 3.5 4.2c1.6.1 3.2-1.1 3.9-2.5zm27.1 2.1c0 6.7-2.3 10.2-6.5 10.2s-6.5-3.7-6.5-10.2 2.3-10.2 6.5-10.2 6.5 3.5 6.5 10.2zm-10.6 0c0 6 1.4 8.1 3.9 8.1 2.6 0 3.9-2.6 3.9-8.1 0-5.8-1.4-8.1-3.9-8.1-2.6-.3-3.9 2.1-3.9 8.1zM47.3 237.1h-2.6V223l-4.6 2.8-1.2-1.9 6.3-3.7h2.3v16.9h-.2zM71 225.2c0 2.8-.9 4.9-8.4 9.7h9l-.2 2.3H59.6v-2.1c7.9-5.8 9.3-7.4 9.3-9.7 0-1.9-1.2-3.2-3-3.2H65c-1.9 0-3.5.9-4.4 2.6l-1.4-1.2c1.4-2.1 3.7-3.2 6.3-3.2 3-.5 5.8 1.9 6 4.6-.5-.2-.5 0-.5.2zm22.5-.2c0 2.3-1.9 4.2-3.9 4.4 2.6 0 4.4 2.3 4.4 4.6v.2c0 3.5-2.8 6.3-6.3 6.3H87c-2.3 0-4.4-.9-6-2.8l1.4-1.2c.9 1.2 2.8 2.1 4.4 2.1 2.3.2 3.9-1.2 4.2-3.5v-.7c0-2.8-1.4-3.7-4.2-3.7h-1.4l.2-2.1h.9c2.1.2 3.5-1.2 3.7-3v-.5c0-2.1-1.2-3-3.5-3-1.4 0-3 .7-4.2 1.9l-.9-1.4c1.4-1.4 3.5-2.3 5.8-2.3 3-.2 5.6 1.9 5.8 4.4.3.1.3.1.3.3zm0-39.2c0 2.3-1.9 4.2-3.9 4.4 2.6 0 4.4 2.3 4.4 4.6v.2c0 3.5-2.8 6.3-6.3 6.3H87c-2.3 0-4.4-.9-6-2.8l1.4-1.2c.9 1.2 2.8 2.1 4.4 2.1 2.3.2 3.9-1.2 4.2-3.5v-.7c0-2.8-1.4-3.7-4.2-3.7h-1.4l.2-2.1h.9c2.1.2 3.5-1.2 3.7-3v-.4c0-2.1-1.2-3-3.5-3-1.4 0-3 .7-4.2 1.9l-.9-1.6c1.4-1.4 3.5-2.3 5.8-2.3 3-.2 5.6 1.9 5.8 4.4.3.2.3.4.3.4zm24.6 49.9h-2.6v4.4H113v-4.4h-9v-1.9l6-14.1 2.1.9-5.6 13h6.5l.2-5.6h2.3v5.6h2.6v2.1zm20.1-13.5h-7.9v6.3c.9-.5 2.3-.7 3.2-.7 3 0 5.8 2.6 5.8 5.6v.7c.2 3.5-2.6 6.5-6.3 6.7h-.9c-2.3 0-4.2-.7-5.8-2.6l1.4-1.4c.9 1.2 2.8 2.1 4.4 2.1 2.6 0 4.2-1.9 4.2-4.6 0-3-1.9-4.2-3.7-4.2-.9 0-2.1.2-3 .7h-2.1v-10h10.7c.5-.2 0 1.4 0 1.4zm25.1 8.1c.2 3.5-2.3 6.7-5.8 7h-.5c-4.9 0-6.7-3.9-6.7-9.7 0-6.7 2.8-10.9 7.4-10.9 1.4 0 3 .5 4.2 1.2l-.9 1.9c-.9-.5-2.1-.7-3-.7-3.2 0-4.9 3.2-4.9 7.9.9-1.9 3-2.8 4.9-2.8 3 0 5.8 2.6 5.8 5.8-.5-.1-.5.1-.5.3zm-2.3 0c0-3.2-1.4-4.4-3.5-4.4s-3.7 1.2-4.4 2.8c0 4.4 1.2 6.5 4.2 6.5 2.3.2 3.7-1.6 3.7-4.9zm24.1-8.1l-7.4 18.3-2.3-.7 7.2-17.4h-9.3v-2.1h11.6v1.9h.2zm23.9 9.5c0 3.2-2.8 5.8-7 5.8s-6.7-2.3-6.7-5.8c0-2.6 1.9-4.4 3.9-5.3-2.1-.7-3.2-2.6-3.2-4.6.5-3.2 3.7-5.6 7-4.9 2.6.5 4.4 2.6 4.9 4.9 0 2.1-1.2 3.5-3.5 4.4 2.7.9 4.6 3 4.6 5.5zm-2.6 0c0-2.3-1.2-3.2-4.4-4.2l-.9-.2c-2.1.7-3.2 2.6-3.2 4.4 0 2.3 1.4 3.5 4.2 3.5 2.7 0 4.3-1.2 4.3-3.5zm-7.4-10c0 2.1 1.2 2.8 3.7 3.7l.5.2c1.4-.5 2.8-2.3 2.8-3.7-.2-2.1-1.9-3.2-3.7-3.2-1.9 0-3.3 1.4-3.3 3zm33.4 6.1c0 7.7-3.2 10.7-10.4 13l-.5-2.1c4.9-1.4 8.1-3.9 8.4-8.1-.9 1.4-2.8 2.3-4.4 2.6-3.2 0-5.8-2.8-5.6-5.8v-.5c-.2-3.5 2.6-6.3 5.8-6.5h.5c4.4-.3 6.2 2.7 6.2 7.4zm-2.3.4c0-4.4-.9-6.3-3.7-6.3-2.8 0-3.7 1.9-3.7 4.6 0 2.8 1.4 4.2 3.5 4.2 1.3.1 2.7-.8 3.9-2.5zm28.8.5c0 5.6-3.2 8.8-7.7 8.8-4.4 0-7.7-3.2-7.7-8.8s3.2-8.8 7.7-8.8c4.4.2 7.7 3.2 7.7 8.8zm-13 0c0 4.9 2.6 6.7 5.3 6.7 2.8 0 5.3-2.1 5.3-6.7s-2.6-6.7-5.3-6.7c-2.8 0-5.3 1.8-5.3 6.7z" class="st0"/><path d="M403.6 16.5c-.2.9-.9 3.9-1.4 4.9h-13.9v-.7c2.8-.2 3-.5 3-3V5.8c0-2.6-.2-2.8-2.8-3v-.7h7.9v.7c-2.6.2-2.8.2-2.8 3v12.3c0 1.9.2 2.3 2.1 2.3h2.3c1.4 0 2.1-.2 2.8-.9.7-.9 1.4-2.1 1.9-3h.9zm9-8.6c3.5 0 6.5 2.8 6.5 6.3v.2c.2 3.7-2.6 7-6.3 7.2h-.2c-3.7 0-6.7-3-6.7-6.5v-.2c0-3.8 2.6-7 6.7-7zm-.2 1.1c-1.9 0-3.5 1.9-3.5 5.3s1.9 6.5 4.2 6.5c1.9 0 3.5-1.2 3.5-5.6-.2-3.6-1.9-6.2-4.2-6.2zM428 21.3h-7v-.7c2.1-.2 2.1-.2 2.1-2.3v-6c0-2.1 0-2.1-1.9-2.3v-.7c1.4-.2 3-.7 4.2-1.2v3.2c.9-1.4 2.3-3.2 3.7-3.2.7 0 1.9.5 1.9 1.2s-.5 1.2-.9 1.9c-.2.2-.5.2-.7 0-.2-.5-.7-.7-1.2-.7s-1.9.9-2.6 2.6v5.6c0 2.1.2 2.3 2.6 2.3v.5h-.2zm14.8-2.5c-1.2 1.9-3 2.8-4.9 3-3.2 0-6-2.8-6-6 0-2.1.7-3.7 2.1-5.3.9-1.2 2.8-2.3 4.4-2.3 2.6 0 4.4 2.1 4.4 4.6 0 .5-.2.9-.5.9-.2 0-4.4.2-7.9.5 0 3.9 2.3 5.8 4.4 5.8 1.2 0 2.6-.5 3.5-1.4l.5.2zM437.7 9c-1.4 0-2.8 1.2-3.2 3.7h4.9c.5 0 .7-.2.7-.5.4-1.5-.8-2.9-2.4-3.2zm23.4 12.3v-.7c1.9-.2 2.1-.2 2.1-2.6v-4.9c0-2.3-.7-3.5-2.6-3.5-1.2 0-2.6.7-3.2 1.4v7c0 2.1.2 2.1 2.1 2.3v.7H453v-.7c2.1-.2 2.3-.2 2.3-2.3v-5c0-2.3-.7-3.5-2.6-3.5-1.2.2-2.6.7-3.2 1.4v7c0 2.1.2 2.1 2.1 2.3v.7h-6.7v-.7c2.1-.2 2.3-.2 2.3-2.3v-6.3c0-2.1-.2-2.1-1.9-2.3v-.5c1.4-.2 2.8-.5 4.2-1.2v2.6l2.3-1.4c.7-.5 1.4-.7 2.3-.7 1.4 0 2.8.9 3.2 2.6.7-.7 1.4-1.2 2.6-1.9.7-.5 1.4-.7 2.3-.7 2.3 0 3.7 1.9 3.7 4.6v5.8c0 2.1.2 2.1 2.1 2.3v.7l-6.9-.2zm14.9 0v-.7c2.1-.2 2.1-.2 2.1-2.6v-6.3c0-1.9 0-2.1-2.1-2.3V9c1.4-.2 3-.7 4.2-1.2V18c0 2.1.2 2.3 2.3 2.6v.7H476zm3.2-16.4c-.7 0-1.4-.7-1.4-1.4 0-.9.7-1.4 1.4-1.9.7 0 1.4.7 1.4 1.4 0 1.2-.7 1.9-1.4 1.9zm4.7 4.1c1.4-.2 3-.7 4.2-1.2v2.6l2.6-1.4c.5-.2 1.2-.5 1.9-.5 3 0 5.3 2.6 5.3 5.6v-.2c-.2 4.2-3.2 7.7-7.4 8.1-.7 0-1.4-.2-2.3-.5v3.9c0 2.3.2 2.6 2.6 2.6v.7h-7.2V28c2.1-.2 2.3-.2 2.3-2.3V11.8c0-1.9 0-2.1-2.1-2.3l.1-.5zm4.4 10.3c.7.7 1.9 1.2 2.8 1.2 2.6 0 4.2-2.3 4.2-5.6s-2.1-4.9-3.9-4.9c-1.2 0-2.3.5-3 1.2v8.1zm19.4-7.5c-.5-1.9-1.2-3-3.2-3-.9 0-1.9.7-1.9 1.9v.2c0 1.2.9 2.1 2.6 2.8 2.6 1.2 3.7 2.3 3.7 3.9-.2 2.6-2.3 4.2-4.6 4.2h-.3c-1.2 0-2.6-.2-3.5-.7-.2-.9-.5-2.6-.5-3.5l.7-.2c.5 2.1 1.4 3.5 3.7 3.5.9 0 2.1-.7 2.1-2.1v-.2c0-1.2-.7-2.1-2.6-2.8-2.1-.9-3.7-2.1-3.7-4.2.2-2.3 2.3-3.9 4.4-3.9h.2c.9 0 2.1.2 2.8.5 0 .7.2 2.6.5 3.2l-.4.4zm17.7 8.8c-1.4.2-3 .5-4.4.9v-2.3c-1.2 1.2-2.8 2.1-4.4 2.3-2.1 0-3.7-1.2-3.7-4.4v-5.8c0-1.4-.2-1.9-.9-2.1h-1v-.8c1.4 0 3-.2 4.2-.5v8.4c0 2.6 1.4 3.5 2.8 3.5s2.6-.5 3.2-1.4v-7c0-1.4-.2-1.9-1.4-2.1h-.9v-.5c1.4 0 3.2-.2 4.6-.5v10c0 1.4.2 1.9 1.4 1.9h.7l-.2.4zm17.8.7v-.7c1.9-.2 2.1-.2 2.1-2.6v-4.9c0-2.3-.7-3.5-2.6-3.5-1.2 0-2.6.7-3.2 1.4v7c0 2.1.2 2.1 2.1 2.3v.7h-6.5v-.7c1.9-.2 2.3-.2 2.3-2.3v-5c0-2.3-.7-3.5-2.6-3.5-1.2.2-2.6.7-3.2 1.4v7c0 2.1.2 2.1 2.1 2.3v.7H527v-.7c2.1-.2 2.3-.2 2.3-2.3v-6.3c0-2.1 0-2.1-1.9-2.3v-.5c1.4-.2 2.8-.5 4.2-1.2v2.6l2.3-1.4c.7-.5 1.4-.7 2.3-.7 1.4 0 2.8.9 3.2 2.6.7-.7 1.4-1.2 2.3-1.9.7-.5 1.4-.7 2.6-.7 2.3 0 3.7 1.9 3.7 4.6v5.8c0 2.1.2 2.1 2.1 2.3v.7l-6.9-.2zm29.5-.7c-1.4.2-3.2.7-4.6 1.2v-1.9l-1.9.9c-.7.5-1.4.7-2.6.9-3.2-.2-5.8-3.2-5.6-6.5 0-4.2 3.5-7.4 7.7-7.2.7 0 1.4 0 2.1.2V3.9c0-2.1-.2-2.1-2.3-2.3V.9c1.4-.2 3.2-.5 4.6-.9v17.9c0 1.4.2 1.9 1.2 1.9h.9l.5.8zm-4.7-9.9c-.9-.9-2.1-1.4-3.2-1.4-1.4 0-3.9.9-3.9 5.3 0 3.7 2.3 5.6 4.2 5.6.9 0 2.1-.5 3-.9l-.1-8.6zm12.8-2.8c3.5 0 6.5 2.8 6.5 6.3v.5c.2 3.7-2.6 7-6.3 7.2h-.2c-3.7 0-6.5-3-6.7-6.5v-.2c-.3-4.1 2.8-7.1 6.7-7.3-.2 0-.2 0 0 0zm-.5 1.1c-1.9 0-3.5 1.9-3.5 5.3s1.9 6.5 3.9 6.5 3.5-1.2 3.5-5.6c.1-3.6-1.1-6.2-3.9-6.2zm8.6 12.3v-.7c2.1-.2 2.3-.2 2.3-2.3V4.2c0-1.9-.2-2.1-2.1-2.3v-.7c1.4-.2 3-.5 4.4-.9v18.3c0 2.1.2 2.3 2.3 2.3v.7h-7v-.3zm14.9-13.4c3.5 0 6.5 2.8 6.5 6.3v.2c.2 3.7-2.6 7-6.3 7.2h-.2c-3.7 0-6.7-3-6.7-6.5v-.2c-.1-3.8 2.7-7 6.7-7zm-.3 1.1c-1.9 0-3.5 1.9-3.5 5.3s1.9 6.5 4.2 6.5c1.9 0 3.5-1.2 3.5-5.6-.2-3.6-1.6-6.2-4.2-6.2zm15.8 12.3h-7v-.7c2.1-.2 2.1-.2 2.1-2.3v-6c0-2.1-.2-2.1-1.9-2.3v-.7c1.4-.2 2.8-.7 4.2-1.2v3.2c.9-1.4 2.3-3.2 3.7-3.2.7 0 1.9.5 1.9 1.4 0 .7-.5 1.2-.9 1.9-.2.2-.5.2-.7 0-.2-.5-.7-.7-1.2-.7s-1.9.9-2.6 2.6v5.6c0 2.1.2 2.3 2.6 2.3v.2h-.2zm18.8-9.5c-.5-1.9-1.2-3-3.2-3-.9 0-1.9.7-1.9 1.9v.2c0 1.2.9 2.1 2.6 2.8 2.6 1.2 3.7 2.3 3.7 3.9-.2 2.6-2.3 4.2-4.6 4.2h-.2c-1.2 0-2.6-.2-3.5-.7-.2-.9-.5-2.6-.5-3.5l.9-.2c.5 2.1 1.4 3.5 3.7 3.5.9 0 2.1-.7 2.1-2.1v-.2c0-1.2-.7-2.1-2.6-2.8-2.1-.9-3.7-1.9-3.7-4.2.2-2.3 2.3-3.9 4.4-3.9h.2c.9 0 2.1.2 2.8.5 0 .7.2 2.6.5 3.2l-.7.4zm3.2 9.5v-.7c2.1-.2 2.1-.2 2.1-2.6v-6.3c0-1.9 0-2.1-2.1-2.3V9c1.4-.2 3-.7 4.2-1.2V18c0 2.1.2 2.3 2.3 2.6v.7h-6.5zm3.3-16.4c-.7 0-1.4-.7-1.4-1.4 0-.9.7-1.4 1.4-1.9.7 0 1.4.7 1.4 1.4 0 1.2-.7 1.9-1.4 1.9zm10.7 16.4c-.5.2-.7.2-1.2.5-2.1 0-3-1.2-3-3.5V9.5H649v-.2l.7-.9h1.4V5.8c.5-.5 1.4-1.2 2.1-2.1h.5v4.4h3.5c.2.5.2.9-.2 1.2h-3.5V17c0 2.6.9 2.8 1.9 2.8.7 0 1.2-.2 1.9-.5l.2.7-2.2 1.3zm19.7.3c-.5 0-.9-.2-1.4-.5-.2-.5-.5-.7-.7-1.2-.9.9-2.3 1.4-3.5 2.1-2.1 0-3.7-1.9-3.7-3.7 0-1.4.9-2.8 2.6-3 1.9-.5 3.2-1.2 4.6-2.1v-.5c0-2.3-.9-3.2-2.8-3.2-.5 0-.9.2-1.4.7-.5.5-.7 1.2-.7 2.1-.2.5-.5.7-.7.7-.7 0-1.2-.5-1.2-1.2 0-.5.2-.7.9-1.2 1.2-.9 2.8-1.9 4.2-2.1 2.3 0 3.9 1.9 3.9 3.7v6.3c0 1.4.5 1.9.9 1.9.5 0 .7-.2.9-.2l.2.7-2.1.7zm-2.1-7.5l-2.8 1.2c-1.2.5-1.9.9-1.9 2.3s.7 2.3 2.1 2.3c.9 0 1.9-.5 2.6-.9v-4.9zm22.3 7.2v-.7c1.9-.2 2.1-.2 2.1-2.6v-4.9c0-2.3-.7-3.5-2.6-3.5-1.2 0-2.6.7-3.2 1.4v7c0 2.1.2 2.1 2.1 2.3v.7H687v-.7c1.9-.2 2.3-.2 2.3-2.3v-5c0-2.3-.7-3.5-2.6-3.5-1.2.2-2.6.7-3.2 1.4v7c0 2.1.2 2.1 2.1 2.3v.7h-6.5v-.7c2.1-.2 2.3-.2 2.3-2.3v-6.3c0-2.1 0-2.1-1.9-2.3v-.5c1.4-.2 2.8-.5 4.2-1.2v2.6l2.3-1.4c.7-.5 1.4-.7 2.6-.7 1.4 0 2.8.9 3.2 2.6.7-.7 1.4-1.2 2.3-1.9.7-.5 1.4-.7 2.6-.7 2.3 0 3.7 1.9 3.7 4.6v5.8c0 2.1.2 2.1 2.1 2.3v.7l-7.3-.2zm18.7-2.5c-1.2 1.9-3 2.8-4.9 3-3.2 0-6-3-5.8-6.3v-.2c0-2.1.7-3.7 2.1-5.3.9-1.2 2.8-2.3 4.4-2.3 2.6 0 4.4 2.1 4.4 4.6 0 .5 0 .9-.5.9s-4.4.2-7.9.5c0 3.9 2.6 5.8 4.4 5.8 1.2 0 2.6-.5 3.5-1.4l.3.7zM708.8 9c-1.2 0-2.8 1.2-3.2 3.7h4.9c.5 0 .7-.2.7-.5.2-1.5-.7-2.9-2.4-3.2.3 0 .3 0 0 0zm13 12.3c-.5.2-.7.2-1.2.5-2.1 0-3-1.2-3-3.5V9.5h-2.1v-.2l.7-.9h1.2V5.8c.5-.5 1.4-1.2 2.1-2.1h.5v4.4h3.5c.2.5.2.9-.2 1.2H720V17c0 2.6.9 2.8 1.9 2.8.7 0 1.2-.2 1.9-.5l.2.7-2.2 1.3zm4.4 2.8c1.2-.5 2.6-1.4 2.6-2.6 0-.9-.9-1.2-2.1-1.4-.2 0-.5-.2-.5-.9s.7-1.4 1.4-1.4h.2c1.4.2 2.8 1.4 2.6 3.2-.2 2.3-1.9 3.9-3.7 4.2l-.5-1.1zm23.9-2.5c-.5 0-.9-.2-1.4-.5-.2-.5-.5-.7-.7-1.2-.9.9-2.3 1.4-3.5 2.1-2.1 0-3.7-1.9-3.7-3.7 0-1.4.9-2.8 2.6-3 1.9-.5 3.2-1.2 4.6-2.1v-.5c0-2.3-.9-3.2-2.8-3.2-.5 0-.9.2-1.4.7-.5.5-.7 1.2-.7 2.1 0 .5-.5.7-.9.7-.7 0-1.2-.5-1.2-1.2 0-.5.5-.7.9-1.2 1.2-.9 2.8-1.9 4.2-2.1 2.3 0 3.9 1.9 3.9 3.7v6.3c0 1.4.5 1.9.9 1.9.5 0 .7-.2.9-.2l.2.7-1.9.7zm-2.3-7.5l-2.8 1.2c-1.2.5-1.9.9-1.9 2.3s.7 2.3 2.1 2.3h.2c.9 0 1.9-.5 2.6-.9l-.2-4.9zm14.4 7.2v-.7c1.9-.2 2.1-.5 2.1-2.6v-4.9c0-2.1-.7-3.5-2.8-3.5-1.2 0-2.6.7-3.2 1.4v7c0 2.1.2 2.3 2.1 2.3v.7h-6.5v-.7c2.1-.2 2.3-.2 2.3-2.3v-5.8c0-2.1-.2-2.1-1.9-2.3v-.6c1.4-.2 2.8-.7 4.2-1.2v2.6l2.1-1.4c.7-.5 1.4-.7 2.6-.9 2.6 0 3.9 1.9 3.9 4.6v5.8c0 2.1.2 2.3 2.1 2.3v.7h-7v-.5zm22.5-.7c-1.4.2-3.2.7-4.6 1.2v-1.9l-1.9.9c-.7.5-1.4.7-2.6.9-3.2-.2-5.8-3.2-5.6-6.5 0-4.2 3.5-7.4 7.7-7.2.7 0 1.4 0 2.1.2V3.9c0-2.1-.2-2.1-2.3-2.3V.9c1.4-.2 3.2-.5 4.6-.9v17.9c0 1.4.2 1.9 1.2 1.9h.9l.5.8zm-4.6-9.9c-.7-.9-1.9-1.4-3.2-1.4s-3.9.9-3.9 5.3c0 3.7 2.3 5.6 4.2 5.6.9 0 2.1-.5 3-.9l-.1-8.6zm-380.4 44c-1.2 1.9-3 2.8-5.3 3-3.2 0-6-2.8-6-6v-.2c0-2.3.9-4.4 3-6 1.2-.9 3-1.9 4.4-1.9.9 0 2.1.2 2.8.7.2.2.5.5.5.9 0 .7-.5 1.2-.9 1.2-.2 0-.2 0-.5-.2-.7-.7-2.1-1.2-3-1.2-2.1 0-3.7 1.9-3.7 4.6-.2 2.8 1.9 5.3 4.4 5.6h.2c1.4 0 2.8-.5 3.7-1.9l.4 1.4zm8.1-10.9c3.5 0 6.5 2.8 6.5 6.3v.2c.2 3.7-2.6 7-6.3 7.2h-.2c-3.7 0-6.5-2.8-6.7-6.5v-.2c-.1-3.7 2.7-6.7 6.7-7zm-.5 1c-1.9 0-3.5 1.9-3.5 5.3s1.9 6.5 4.2 6.5c1.9 0 3.5-1.2 3.5-5.6 0-3.4-1.4-6.2-4.2-6.2zm17.4 12.5v-.7c1.9-.2 2.1-.5 2.1-2.6v-4.9c0-2.1-.7-3.5-2.8-3.5-1.2 0-2.6.7-3.2 1.4v7c0 2.1.2 2.3 2.1 2.3v.9h-6.5v-.7c2.1-.2 2.3-.2 2.3-2.3v-6c0-2.1-.2-2.1-1.9-2.3v-.7c1.4-.2 2.8-.5 4.2-1.2v2.3l2.1-1.4c.7-.5 1.4-.7 2.6-.9 2.6 0 3.9 1.9 3.9 4.6v5.8c0 2.1.2 2.3 2.1 2.3v.5h-7v.1zm15.5-9.5c-.5-1.9-1.2-3-3.2-3-.9 0-1.9.7-1.9 1.9v.2c0 1.2.9 2.1 2.6 2.8 2.6 1.2 3.7 2.3 3.7 3.9-.2 2.6-2.3 4.2-4.6 4.2h-.2c-1.2 0-2.6-.2-3.5-.7-.2-.9-.5-2.6-.5-3.5l.7-.2c.5 2.1 1.4 3.5 3.7 3.5.9 0 2.1-.7 2.1-2.1v-.2c0-1.2-.7-2.1-2.6-2.8-2.1-.9-3.7-2.1-3.7-4.2.2-2.3 2.3-3.9 4.4-3.9h.2c.9 0 2.1.2 2.8.5 0 .7.2 2.6.5 3.2l-.5.4zm14.4 6.9c-1.2 1.9-3 2.8-4.9 3-3.2 0-6-2.8-6-6v-.2c0-2.1.7-3.7 2.1-5.3.9-1.2 2.8-2.1 4.4-2.3 2.6 0 4.4 2.1 4.4 4.6 0 .5-.2.9-.5.9-.2 0-4.4.2-7.9.5 0 3.9 2.6 5.8 4.4 5.8 1.2 0 2.6-.5 3.5-1.4l.5.4zm-5.1-9.9c-1.4 0-2.8 1.2-3.2 3.7h5.3c.5 0 .7-.2.7-.5.2-1.4-.9-3-2.6-3 .1-.2-.2-.2-.2-.2zm18.6 9.9c-1.2 1.9-3 2.8-5.3 3-3.2 0-6-2.8-6-6v-.2c0-2.3.9-4.4 3-6 1.2-.9 3-1.9 4.4-1.9.9 0 2.1.2 2.8.7.2.2.5.5.5.9 0 .7-.5 1.2-.9 1.2-.2 0-.2 0-.5-.2-.7-.7-2.1-1.2-3-1.2-2.1 0-3.7 1.9-3.7 4.6-.2 2.8 1.9 5.3 4.4 5.6h.2c1.4 0 2.8-.5 3.7-1.9l.4 1.4zm7.9 2.6c-.5.2-.7.2-1.2.5-2.1 0-3-1.2-3-3.5v-8.8h-2.3l-.2-.2.7-.9h1.4v-2.6c.5-.5 1.4-1.2 2.1-2.1h.5v4.4h3.5c.2.5.2.9-.2 1.2h-3.2V53c0 2.6.9 2.8 1.9 2.8s1.2-.2 1.9-.5l.2.7-2.1 1.3zm13.4-2.6c-1.2 1.9-3 2.8-4.9 3-3.2 0-6-2.8-6-6v-.2c0-2.1.7-3.7 2.1-5.3.9-1.2 2.8-2.3 4.4-2.3 2.6 0 4.4 2.1 4.4 4.6 0 .5 0 .9-.5.9s-4.4.2-7.9.5c0 3.9 2.6 5.8 4.4 5.8 1.2 0 2.6-.5 3.5-1.4l.5.4zm-5.1-9.9c-1.4 0-2.8 1.2-3.2 3.7h5.3c.5 0 .7-.2.7-.5.2-1.4-.9-3-2.6-3 .3-.2-.2-.2-.2-.2zm13 12.5c-.5.2-.7.2-1.2.5-2.1 0-3-1.2-3-3.5v-8.8H491v-.2l.7-.9h1.4v-2.6c.5-.5 1.4-1.2 2.1-2.1h.5v4.4h3.5c.2.5.2.9-.2 1.2h-3.2V53c0 2.6.9 2.8 1.9 2.8s1.2-.2 1.9-.5l.2.7-2.5 1.3zm17.4-.9c-1.4.2-3 .5-4.4.9V55c-1.2 1.2-2.8 2.1-4.4 2.3-2.1 0-3.7-1.2-3.7-4.4v-5.8c0-1.4-.2-1.9-.9-2.1l-.7-.2v-.7c1.4 0 3-.2 4.2-.5V52c0 2.6 1.4 3.5 2.8 3.5s2.6-.5 3.2-1.4v-7c0-1.4-.2-1.9-1.4-2.1H508v-.7c1.4 0 3.2-.2 4.6-.5v10c0 1.4.2 1.9 1.4 1.9h.7v.7zm12.3-1.7c-1.2 1.9-3 2.8-4.9 3-3.2 0-6-2.8-6-6v-.5c0-2.1.7-3.7 2.1-5.3.9-1.2 2.8-2.1 4.4-2.3 2.6 0 4.4 2.1 4.4 4.6 0 .5 0 .9-.5.9s-4.4.2-7.9.5c0 3.9 2.3 5.8 4.4 5.8 1.2 0 2.6-.5 3.5-1.4l.5.7zm-5.1-9.9c-1.4 0-2.8 1.2-3.2 3.7h5.3c.5 0 .7-.2.7-.5.2-1.4-.9-3-2.6-3 0-.2-.2-.2-.2-.2zm13.9 12.5h-7v-.7c2.1-.2 2.1-.2 2.1-2.3V48c0-2.1-.2-2.1-1.9-2.3V45c1.4-.2 2.8-.7 4.2-1.2V47c.9-1.4 2.3-3.2 3.7-3.2.7 0 1.9.5 1.9 1.4 0 .7-.5 1.2-.9 1.9-.2.2-.5.2-.7 0-.2-.5-.7-.7-1.2-.7-.7 0-1.9.9-2.6 2.6v5.6c0 2.1.2 2.3 2.6 2.3v.5h-.2zm13 0v-.7l2.1-.2c1.2 0 1.4-.2 1.4-2.1v-6.7c0-1.4-.2-1.9-1.2-1.9h-1.9V45c1.9-.2 3.7-.7 5.6-1.2v10.7c0 1.4.2 1.9 1.4 2.1l1.9.2v.7h-9.3v-.2zm25-12.8c-1.4 2.6-5.3 9.7-9 17.2l-2.3.5-.2-.5c3.2-4.9 6.5-10.2 9.3-15.3h-9.3v-2.3h11.4v.5h.1zm14.9 0c-1.4 2.6-5.3 9.7-9 17.2l-2.3.5-.2-.5c3.2-4.9 6.5-10.2 9.3-15.3h-9.3v-2.3h11.4v.5h.1zm14.1-4.4c-3.9.7-7 3.5-8.4 7.2l1.6-.9c.7-.2 1.2-.5 2.1-.5 2.8 0 4.9 2.3 4.9 4.9v.5c0 3.5-2.6 6.3-6 6.3h-.2c-3 0-6-2.6-6-7.2.2-4.6 3.2-8.8 7.7-10.4 1.2-.5 2.6-.7 3.7-.9l.6 1zm-6.5 7.5c-.7 0-1.9.2-2.6.7-.2.7-.2 1.4-.2 2.3 0 3.9 1.9 6.3 3.7 6.3 1.4 0 3-.9 3-3.9.3-2.7-.4-5.4-3.9-5.4zm27 7.1c-1.2 1.9-3 2.8-4.9 3-3.2 0-6-2.8-6-6v-.2c0-2.1.7-3.7 2.1-5.3.9-1.2 2.8-2.3 4.4-2.3 2.6 0 4.4 2.1 4.4 4.6 0 .5-.2.9-.5.9-.2 0-4.4.2-7.9.5 0 3.9 2.6 5.8 4.4 5.8 1.2 0 2.6-.5 3.5-1.4l.5.4zm-5.4-9.9c-1.4 0-2.8 1.2-3.2 3.7h5.3c.5 0 .7-.2.7-.5.2-1.4-.9-3-2.6-3 .1-.2.1-.2-.2-.2zm6.7 12.5v-.7c2.1-.2 2.3-.2 2.3-2.3V40.1c0-1.9-.2-2.1-2.1-2.3v-.9c1.4-.2 3-.5 4.4-.9v18.3c0 2.1.2 2.3 2.3 2.3v.7h-6.9zm8.4 0v-.7c2.1-.2 2.1-.2 2.1-2.6v-6.3c0-1.9 0-2.1-2.1-2.3v-.7c1.4-.2 3-.7 4.2-1.2v10.2c0 2.1.2 2.3 2.3 2.6v.7l-6.5.3zm2.8-16.5c-.7 0-1.4-.7-1.4-1.4 0-.9.7-1.4 1.4-1.9.7 0 1.4.7 1.4 1.4.4 1.2-.3 1.9-1.4 1.9.2 0 0 0 0 0zm10.9 16.5c-.5.2-.7.2-1.2.5-2.1 0-3-1.2-3-3.5v-8.8h-2.1v-.2l.7-.9h1.2v-2.6c.5-.5 1.4-1.2 2.1-2.1h.5v4.4h3.5c.2.5.2.9-.2 1.2H645V53c0 2.6.9 2.8 1.9 2.8.7 0 1.2-.2 1.9-.5l.2.7-2.3 1.3zm4.2 2.5c1.2-.5 2.6-1.4 2.6-2.6s-.9-1.2-2.1-1.4c-.2 0-.5-.2-.5-.9s.7-1.4 1.4-1.4h.2c1.4.2 2.8 1.4 2.6 3.2-.2 2.3-1.9 3.9-3.7 4.2l-.5-1.1zm22-12.2c-.5-1.9-1.2-3-3.2-3-.9 0-1.9.7-1.9 1.9s.7 2.1 2.6 2.8c2.6 1.2 3.7 2.3 3.7 3.9-.2 2.6-2.3 4.2-4.6 4.2h-.2c-1.2 0-2.6-.2-3.5-.7-.2-.9-.5-2.6-.5-3.5l.7-.2c.5 2.1 1.4 3.5 3.7 3.5.9 0 2.1-.7 2.1-2.1V54c0-1.2-.7-2.1-2.6-2.8-2.1-.9-3.7-2.1-3.7-4.2.2-2.3 2.3-3.9 4.4-3.9h.2c.9 0 2.1.2 2.8.5 0 .7.2 2.6.5 3.2l-.5.8zm14.4 7.1c-1.2 1.9-3 2.8-4.9 3-3.2 0-6-2.8-6-6v-.2c0-2.1.7-3.7 2.1-5.3.9-1.2 2.8-2.1 4.4-2.3 2.6 0 4.4 2.1 4.4 4.6 0 .5 0 .9-.5.9s-4.4.2-7.9.5c0 3.9 2.6 5.8 4.4 5.8 1.2 0 2.6-.5 3.5-1.4l.5.4zm-5.1-9.9c-1.2 0-2.8 1.2-3.2 3.7h4.9c.5 0 .7-.2.7-.5.4-1.6-.8-3-2.4-3.2zM704 56.4c-1.4.2-3.2.5-4.6 1.2v-1.9l-2.1.9c-.7.5-1.4.7-2.3.9-3.2-.2-5.8-3.2-5.6-6.5 0-4.2 3.5-7.4 7.7-7.2.7 0 1.4 0 2.1.2v-4.4c0-2.1-.2-2.1-2.3-2.3v-.7c1.4-.2 3.2-.5 4.6-.9v17.9c0 1.4.2 1.9 1.2 1.9h.9v.9h.4zm-4.7-10c-.7-.9-2.1-1.4-3.2-1.4-1.4 0-3.9.9-3.9 5.3 0 3.7 2.3 5.6 4.2 5.6.9 0 2.1-.5 3-.9l-.1-8.6zm27.6 10c-1.4.2-3.2.7-4.6 1.2v-1.9l-1.9.9c-.7.5-1.4.7-2.6.9-3.2-.2-5.8-3.2-5.6-6.5 0-4.2 3.5-7.4 7.7-7.2.7 0 1.4 0 2.1.2v-4.4c0-2.1-.2-2.1-2.3-2.3v-.7c1.4-.2 3.2-.5 4.6-.9v17.9c0 1.4.2 1.9 1.2 1.9h.9l.5.9zm-4.8-10c-.7-.9-2.1-1.4-3.2-1.4-1.4 0-3.9.9-3.9 5.3 0 3.7 2.3 5.6 4.2 5.6.9 0 2.1-.5 3-.9l-.1-8.6zm6.2 10.9v-.7c2.1-.2 2.1-.2 2.1-2.6v-6.3c0-1.9 0-2.1-2.1-2.3v-.7c1.4-.2 3-.7 4.2-1.2v10.2c0 2.1.2 2.3 2.3 2.6v.7l-6.5.3zm3-16.7c-.7 0-1.4-.7-1.4-1.4 0-.9.7-1.4 1.4-1.9.7 0 1.4.7 1.4 1.4.5 1.4-.4 2.1-1.4 1.9 0 .2 0 .2 0 0zm14.4 16.9c-.5 0-.9-.2-1.4-.5-.2-.5-.5-.7-.7-1.2-.9.9-2.3 1.4-3.5 2.1-2.1 0-3.7-1.9-3.7-3.7 0-1.4.9-2.8 2.6-3 1.9-.5 3.2-1.2 4.6-2.1v-.5c0-2.3-.9-3.2-2.8-3.2-.5 0-.9.2-1.4.7s-.7 1.2-.7 2.1c-.2.5-.5.7-.7.7-.7 0-1.2-.5-1.2-1.2 0-.5.2-.7.9-1.2 1.2-.9 2.8-1.9 4.2-2.1 2.3 0 3.9 1.9 3.9 3.7v6.3c0 1.4.5 1.9.9 1.9.5 0 .7-.2.9-.2l.2.7-2.1.7zm-2.1-7.6l-2.8 1.2c-1.2.5-1.9.9-1.9 2.3s.7 2.3 2.1 2.3c.9 0 1.9-.5 2.6-.9v-4.9zm22.3 7.4v-.7c1.9-.2 2.1-.2 2.1-2.6v-4.9c0-2.3-.7-3.5-2.6-3.5-1.2.2-2.6.7-3.2 1.4v7c0 2.1.2 2.1 2.1 2.3v.9h-6.5v-.7c1.9-.2 2.3-.2 2.3-2.3v-5.3c0-2.3-.7-3.5-2.6-3.5-1.2.2-2.6.7-3.2 1.4v7c0 2.1.2 2.1 2.1 2.3v.7h-6.5v-.7c2.1-.2 2.3-.2 2.3-2.3v-6.3c0-2.1 0-2.1-1.9-2.3v-.7c1.4-.2 2.8-.5 4.2-1.2v2.6l2.3-1.4c.7-.5 1.4-.7 2.6-.7 1.4 0 2.8.9 3.2 2.6.7-.5 1.4-1.2 2.3-1.9.7-.5 1.4-.7 2.6-.7 2.3 0 3.7 1.9 3.7 4.6v5.8c0 2.1.2 2.1 2.1 2.3v.7l-7.4.1zM396.9 93v-.7c1.9-.2 2.1-.5 2.1-2.6v-4.9c0-2.1-.7-3.5-2.8-3.5-1.2 0-2.6.7-3.2 1.4v7c0 2.1.2 2.3 2.1 2.3v.7h-6.5V92c2.1-.2 2.3-.2 2.3-2.3v-6c0-2.1-.2-2.1-1.9-2.3v-.7c1.4-.2 2.8-.7 4.2-1.2v2.6l2.1-1.4c.7-.5 1.4-.7 2.6-.9 2.6 0 3.9 1.9 3.9 4.6v5.8c0 2.1.2 2.3 2.1 2.3v.7h-7V93zm14.3-13.4c3.5 0 6.5 2.8 6.5 6.3v.5c.2 3.7-2.6 7-6.3 7.2h-.2c-3.7 0-6.5-3-6.5-6.5-.2-4.3 2.8-7.5 6.5-7.5zm-.2.9c-1.9 0-3.5 1.9-3.5 5.3s1.9 6.5 3.9 6.5c1.9 0 3.5-1.2 3.5-5.6.1-3.4-1.3-6.2-3.9-6.2zM428.4 93v-.7c1.9-.2 2.1-.5 2.1-2.6v-4.9c0-2.1-.7-3.5-2.8-3.5-1.2 0-2.6.7-3.2 1.4v7c0 2.1.2 2.3 2.1 2.3v.7h-6.7V92c2.1-.2 2.3-.2 2.3-2.3v-6c0-2.1-.2-2.1-1.9-2.3v-.7c1.4-.2 2.8-.5 4.2-1.2v2.6l2.1-1.4c.7-.5 1.4-.7 2.6-.9 2.6 0 3.9 1.9 3.9 4.6v5.8c0 2.1.2 2.3 2.1 2.3v.7h-6.7V93zm22.3-.7c-1.4.2-3 .5-4.4.9v-2.3c-1.2 1.2-2.8 2.1-4.4 2.3-2.1 0-3.7-1.2-3.7-4.4V83c0-1.4-.2-1.9-.9-2.1l-.7-.2V80c1.2 0 3.2-.2 4.2-.5v8.6c0 2.6 1.4 3.5 2.8 3.5s2.6-.5 3.2-1.4v-7c0-1.4-.2-1.9-1.4-2.1h-.9v-.7c1.4 0 3.2-.2 4.6-.5v10c0 1.4.2 1.9 1.4 1.9h.7l-.5.5zm17.8.7v-.7c1.9-.2 2.1-.2 2.1-2.6v-4.9c0-2.3-.7-3.5-2.6-3.5-1.2 0-2.6.7-3.2 1.4v7c0 2.1.2 2.1 2.1 2.3v.7h-6.5V92c1.9-.2 2.3-.2 2.3-2.3v-5.3c0-2.3-.7-3.5-2.6-3.5-1.2.2-2.6.7-3.2 1.4v7c0 2.1.2 2.1 2.1 2.3v.7h-6.7v-.7c2.1-.2 2.3-.2 2.3-2.3V83c0-2.1-.2-2.1-1.9-2.3V80c1.4-.2 2.8-.5 4.2-1.2v2.6l2.3-1.4c.7-.5 1.4-.7 2.6-.7 1.4 0 2.8.9 3.2 2.6.7-.7 1.4-1.2 2.3-1.9.7-.5 1.4-.7 2.3-.7 2.3 0 3.7 1.9 3.7 4.6v5.8c0 2.1.2 2.1 2.1 2.3v.7l-6.9.3zm24.4 0v-.7c1.9-.2 2.1-.2 2.1-2.6v-4.9c0-2.3-.7-3.5-2.6-3.5-1.2 0-2.6.7-3.2 1.4v7c0 2.1.2 2.1 2.1 2.3v.7h-6.7V92c2.1-.2 2.3-.2 2.3-2.3v-5.3c0-2.3-.7-3.5-2.6-3.5-1.2.2-2.6.7-3.2 1.4v7c0 2.1.2 2.1 2.1 2.3v.7h-6.5v-.7c2.1-.2 2.3-.2 2.3-2.3V83c0-2.1 0-2.1-1.9-2.3V80c1.4-.2 2.8-.5 4.2-1.2v2.6l2.3-1.4c.7-.5 1.4-.7 2.3-.7 1.4 0 2.8.9 3.2 2.6.7-.7 1.4-1.2 2.3-1.9.7-.5 1.4-.7 2.3-.7 2.3 0 3.7 1.9 3.7 4.6v5.8c0 2.1.2 2.1 2.1 2.3v.7l-6.6.3zm20.4-12.5c-1.4.2-2.1.5-2.6 2.3-.5 1.9-1.4 3.7-3.7 9-1.2 2.8-2.1 5.6-3 8.1-.2.5-.5.7-.9.7-.9 0-1.9-.5-1.9-1.4 0-.2.2-.7.7-.9.7-.5 1.4-1.2 2.1-2.3.5-1.2.9-2.3 1.2-2.8s.2-.7 0-1.2c-1.2-3.5-2.8-7-3.7-9.3-.7-1.9-.9-2.1-2.6-2.3v-.7h6v.7c-1.4.2-1.4.5-1.2 1.4l3 7.4c.7-2.1 2.1-5.6 2.8-7.2.2-1.2.2-1.4-1.4-1.9v-.7h5.6l-.4 1.1zM529.1 93v-.7c1.9-.2 2.1-.5 2.1-2.6v-4.9c0-2.1-.7-3.5-2.8-3.5-1.2 0-2.6.7-3.2 1.4v7c0 2.1.2 2.3 2.1 2.3v.7h-6.5V92c2.1-.2 2.3-.2 2.3-2.3v-6c0-2.1-.2-2.1-1.9-2.3v-.7c1.4-.2 2.8-.7 4.2-1.2v2.6l2.1-1.4c.7-.5 1.4-.7 2.6-.9 2.6 0 3.9 1.9 3.9 4.6v5.8c0 2.1.2 2.3 2.1 2.3v.7h-7V93zm8.1 0v-.7c2.1-.2 2.1-.2 2.1-2.6v-6.3c0-1.9 0-2.1-2.1-2.3v-.7c1.4-.2 3-.5 4.2-.9v10.2c0 2.1.2 2.3 2.3 2.6v.7h-6.5zm3-16.5c-.7 0-1.4-.7-1.4-1.4 0-.9.7-1.4 1.4-1.9.7 0 1.4.7 1.4 1.4.2 1.2-.5 1.9-1.4 1.9zm11.1 3.3c.5-.2.7-.2 1.2-.2 3.5.2 6 3 6 6.3 0 4.2-3.2 7.4-7.4 7.4-1.4 0-3.2-.5-4.6-.9V75.6c0-1.9 0-2.1-2.1-2.3v-.7c1.4-.2 3-.5 4.4-.9v9.5l2.5-1.4zm-2.5 9.7c0 .2 0 .7.2.9.7.9 1.9 1.9 3 1.4 2.6 0 3.9-2.3 3.9-5.6.2-2.8-1.4-4.9-4.2-5.6h-.2c-.7 0-1.9.2-2.6.5l-.1 8.4zM569 93v-.7c1.9-.2 2.1-.2 2.1-2.3v-4.9c0-2.6-.9-3.7-3-3.7-1.2 0-2.6.5-3.2 1.4v7c0 2.1.2 2.3 2.1 2.3v.7h-6.5v-.7c1.9-.2 2.3-.2 2.3-2.3V75.4c0-1.4 0-2.1-2.1-2.3v-.7c1.4-.2 3-.5 4.4-.9v10.2c1.2-1.2 2.8-2.1 4.2-2.3 2.6 0 4.2 1.4 4.2 4.9v5.3c0 2.1.2 2.3 2.1 2.3v.7l-6.6.4zm26-2.5c-1.2 1.9-3 2.8-4.9 3-3.2 0-6-2.8-6-6v-.2c0-2.1.7-3.7 2.1-5.3.9-1.2 2.8-2.3 4.4-2.3 2.6 0 4.4 2.1 4.4 4.6 0 .5-.2.9-.5.9-.2 0-4.4.2-7.9.5 0 3.9 2.3 5.8 4.4 5.8 1.2 0 2.6-.5 3.5-1.4l.5.4zm-5.4-10c-1.4 0-2.8 1.2-3.2 3.7h4.9c.5 0 .7-.2.7-.5.4-1.4-.8-3-2.4-3.2.3 0 .3 0 0 0zm21.8 11.8c-1.4.2-3 .5-4.4.9v-2.3c-1.2 1.2-2.8 2.1-4.4 2.3-2.1 0-3.7-1.2-3.7-4.4V83c0-1.4-.2-1.9-.9-2.1l-.7-.2V80c1.2 0 3.2-.2 4.2-.5v8.6c0 2.6 1.4 3.5 2.8 3.5 1.2 0 2.6-.5 3.2-1.4v-7c0-1.4-.2-1.9-1.4-2.1h-.9v-.7c1.4 0 3.2-.2 4.6-.5v10c0 1.4.2 1.9 1.4 1.9h.7l-.5.5zm1.6.7v-.7c2.1-.2 2.1-.2 2.1-2.6v-6.3c0-1.9 0-2.1-2.1-2.3v-.7c1.4-.2 3-.7 4.2-1.2v10.2c0 2.1.2 2.3 2.3 2.6v.7l-6.5.3zm3.1-16.5c-.7 0-1.4-.7-1.4-1.4 0-.9.7-1.4 1.4-1.9.7 0 1.4.7 1.4 1.4 0 1.2-.5 1.9-1.4 1.9zm12.5 7c-.5-1.9-1.2-3-3.2-3-.9 0-1.9.7-2.1 1.9v.2c0 1.2.9 2.1 2.6 2.8 2.6 1.2 3.9 2.3 3.9 3.9-.2 2.6-2.3 4.2-4.6 4.2h-.2c-1.2 0-2.6-.2-3.5-.7-.2-.9-.5-2.6-.5-3.5l.9-.2c.5 2.1 1.4 3.5 3.7 3.5.9 0 2.1-.7 2.1-2.1v-.2c0-1.2-.7-2.1-2.6-2.8-2.1-.9-3.7-2.1-3.7-4.2 0-2.3 2.1-3.9 4.2-3.9h.5c.9 0 2.1.2 2.8.5 0 .7.2 2.6.5 3.2l-.8.4zm19.7 9.5v-.7c1.9-.2 2.1-.2 2.1-2.6v-4.9c0-2.3-.7-3.5-2.6-3.5-1.2 0-2.6.7-3.2 1.4v7c0 2.1.2 2.1 2.1 2.3v.7h-6.5V92c2.1-.2 2.3-.2 2.3-2.3v-5.3c0-2.3-.7-3.5-2.6-3.5-1.2.2-2.6.7-3.2 1.4v7c0 2.1.2 2.1 2.1 2.3v.7h-6.5v-.7c2.1-.2 2.3-.2 2.3-2.3V83c0-2.1 0-2.1-1.9-2.3V80c1.4-.2 2.8-.5 4.2-1.2v2.6l2.3-1.4c.7-.5 1.4-.7 2.6-.7 1.4 0 2.8.9 3.2 2.6.7-.7 1.4-1.2 2.6-1.9.7-.5 1.4-.7 2.3-.7 2.3 0 3.7 1.9 3.7 4.6v5.8c0 2.1.2 2.1 2.1 2.3v.7l-7.4.3zm14.6-13.4c3.5 0 6.5 2.8 6.5 6.3v.5c.2 3.7-2.6 7-6.3 7.2h-.2c-3.7 0-6.5-3-6.7-6.5v-.2c0-4.1 2.8-7.3 6.7-7.3zm-.2.9c-1.9 0-3.5 1.9-3.5 5.3s1.9 6.5 4.2 6.5c1.9 0 3.5-1.2 3.5-5.6-.3-3.4-1.7-6.2-4.2-6.2zm23.6 11.8c-1.4.2-3.2.7-4.6 1.2v-2.1l-1.9.9c-.7.5-1.4.7-2.6.9-3.2-.2-5.8-3.2-5.6-6.5 0-4.2 3.5-7.4 7.7-7.2.7 0 1.4 0 2.1.2v-4.4c0-2.1-.2-2.1-2.3-2.3v-.7c1.4-.2 3.2-.5 4.6-.9v17.9c0 1.4.2 1.9 1.2 1.9h.9l.5 1.1zm-4.6-10c-.7-.9-2.1-1.4-3.2-1.4-1.4 0-3.9.9-3.9 5.3 0 3.7 2.3 5.6 4.2 5.6.9 0 2.1-.5 3-.9l-.1-8.6zM700.5 93c-.5.2-.7.2-1.2.5-2.1 0-3-1.2-3-3.5v-8.8h-2.1l.7-.9h1.2v-2.6c.5-.5 1.4-1.2 2.1-2.1h.5V80h3.5c.2.5.2.9-.2 1.2h-3.2v7.7c0 2.6.9 2.8 1.9 2.8.7 0 1.2-.2 1.9-.5l.2.7-2.3 1.1zm3.2 0v-.7c2.1-.2 2.1-.2 2.1-2.6v-6.3c0-1.9 0-2.1-2.1-2.3v-.7c1.4-.2 3-.5 4.2-.9v10.2c0 2.1.2 2.3 2.3 2.6v.7h-6.5zm3.1-16.5c-.7 0-1.4-.7-1.4-1.4 0-.9.7-1.4 1.4-1.9.7 0 1.4.7 1.4 1.4-.1 1.2-.5 1.9-1.4 1.9zM720.4 93v-.7c1.9-.2 2.1-.5 2.1-2.6v-4.9c0-2.1-.7-3.5-2.8-3.5-1.2 0-2.6.7-3.2 1.4v7c0 2.1.2 2.3 2.1 2.3v.7h-6.5V92c2.1-.2 2.3-.2 2.3-2.3v-6c0-2.1-.2-2.1-1.9-2.3v-.7c1.4-.2 2.8-.5 4.2-1.2v2.6l2.1-1.4c.7-.5 1.4-.7 2.6-.9 2.6 0 3.9 1.9 3.9 4.6v5.8c0 2.1.2 2.3 2.1 2.3v.7h-7V93zm19.1-2.8c-1.2 1.9-3 2.8-4.9 3-3.2 0-6-2.8-6-6V87c0-2.3.9-4.4 3-6 1.2-.9 3-1.9 4.4-1.9.9 0 2.1.2 2.8.7.2.2.5.5.5.7 0 .7-.5 1.2-.9 1.2-.2 0-.2 0-.5-.2-.7-.7-2.1-1.2-3-1.2-2.1 0-3.7 1.9-3.7 4.6-.2 2.8 1.9 5.3 4.4 5.6h.2c1.4 0 2.8-.5 3.7-1.9v1.6zm1.6 2.8v-.7c2.1-.2 2.1-.2 2.1-2.6v-6.3c0-1.9 0-2.1-2.1-2.3v-.7c1.4-.2 3-.5 4.2-.9v10.2c0 2.1.2 2.3 2.3 2.6v.7h-6.5zm3.2-16.5c-.7 0-1.4-.7-1.4-1.4 0-.9.7-1.4 1.4-1.9.7 0 1.4.7 1.4 1.4 0 1.2-.7 1.9-1.4 1.9zm26.2 15.8c-1.4.2-3 .5-4.4.9v-2.3c-1.2 1.2-2.8 2.1-4.4 2.3-2.1 0-3.7-1.2-3.7-4.4V83c0-1.4-.2-1.9-.9-2.1l-.7-.2V80c1.2 0 3.2-.2 4.2-.5v8.6c0 2.6 1.2 3.5 2.8 3.5 1.2 0 2.6-.5 3.2-1.4v-7c0-1.4-.2-1.9-1.2-2.1h-.9v-.7c1.4 0 3.2-.2 4.6-.5v10c0 1.4.2 1.9 1.2 1.9h.7l-.5.5zm10 .7v-.7c1.9-.2 2.1-.5 2.1-2.6v-4.9c0-2.1-.7-3.5-2.8-3.5-1.2 0-2.6.7-3.2 1.4v7c0 2.1.2 2.3 2.1 2.3v.7h-6.5V92c2.1-.2 2.3-.2 2.3-2.3v-6c0-2.1-.2-2.1-1.9-2.3v-.7c1.4-.2 2.8-.5 4.2-1.2v2.6l2.1-1.4c.7-.5 1.4-.7 2.6-.9 2.6 0 3.9 1.9 3.9 4.6v5.8c0 2.1.2 2.3 2.1 2.3v.7h-7V93zm13.7 0c-.5.2-.7.2-1.2.5-2.1 0-3-1.2-3-3.5v-8.8h-2.1l.7-.9h1.2v-2.6c.5-.5 1.4-1.2 2.1-2.1h.5V80h3.5c.2.5.2.9-.2 1.2h-3.2v7.7c0 2.6.9 2.8 1.9 2.8.7 0 1.2-.2 1.9-.5l.2.7-2.3 1.1zm-391.5 35c-1.4.2-3 .5-4.4.9v-2.3c-1.2 1.2-2.8 2.1-4.4 2.3-2.1 0-3.7-1.2-3.7-4.4v-5.8c0-1.4-.2-1.9-.9-2.1l-.7-.2v-.4c1.4 0 3-.2 4.2-.5v8.4c0 2.6 1.4 3.5 2.8 3.5s2.6-.5 3.2-1.4v-7c0-1.4-.2-1.9-1.4-2.1h-.9v-.7c1.4 0 3.2-.2 4.6-.5v10c0 1.4.2 1.9 1.4 1.9h.7l-.5.4zm7.4.7c-.5.2-.7.2-1.2.5-2.1 0-3-1.2-3-3.5v-8.8h-2.1v-.2l.7-.9h1.4v-2.6c.5-.5 1.4-1.2 2.1-2.1h.5v4.9h3.5c.2.5.2.9-.2 1.2h-3.2v7.7c0 2.6.9 2.8 1.9 2.8.7 0 1.2-.2 1.9-.5l.2.7-2.5.8zm11.8 0v-.9l2.1-.2c1.2 0 1.4-.2 1.4-2.1v-6.7c0-1.4-.2-1.9-1.2-1.9h-1.9v-.7c1.9-.2 3.7-.7 5.6-1.2v10.7c0 1.4.2 1.9 1.4 2.1l1.9.2v.9l-9.3-.2zm13.2 4.2c3.9-.7 7.2-3.5 8.8-7.2l-1.2.5c-.7.5-1.9.5-2.6.5-2.8-.2-4.9-2.6-4.9-5.6 0-3.2 2.6-6 5.8-6 3.9 0 5.8 3.5 5.8 7 0 4.9-3.2 9.3-7.7 10.7l-3.7.7v-.5h-.3zm5.4-16.5c-1.4 0-2.8 1.9-2.8 3.9-.2 2.3 1.2 4.4 3.7 4.6h.5c.7 0 1.4-.2 2.3-.5.2-.7.2-1.4.2-2.3-.2-1.7-.7-5.7-3.9-5.7zm20.9-4.8c-3.9.7-7 3.5-8.4 7.2l1.9-.7c.7-.2 1.2-.5 2.1-.5 2.8 0 4.9 2.3 4.9 4.9v.5c.2 3.5-2.6 6.3-5.8 6.5h-.2c-3 0-6-2.6-6-7.2.2-4.6 3.2-8.8 7.7-10.4 1.2-.5 2.6-.7 3.7-.9l.1.6zm-6.3 7.6c-.9 0-1.9.2-2.6.7-.2.7-.2 1.4-.2 2.3 0 3.9 1.9 6.3 3.7 6.3 1.4 0 3-.9 3-3.9 0-2.8-.7-5.1-3.9-5.4zm21.1 5.6l-.9 3.9h-10.7v-.7c2.8-2.1 7-4.9 7-8.1.2-1.2-.7-2.8-2.1-2.8h-.5c-1.4.2-2.6.9-3.2 2.3l-.7-.5 1.4-2.1c.7-.9 2.3-1.9 3.5-1.4 2.3-.2 4.2 1.4 4.2 3.9v.2c0 1.4-.7 3-2.1 3.9-.9.9-2.3 2.1-3.9 3.5h4.6c1.2 0 1.4-.2 2.6-2.1h.8zm23.7 3.2c-1.4.2-3.2.7-4.6 1.2v-2.1l-1.9.9c-.7.5-1.4.7-2.3.9-3.2-.2-5.8-3.2-5.6-6.5 0-4.2 3.5-7.4 7.7-7.2.7 0 1.4 0 2.1.2v-4.2c0-2.1-.2-2.1-2.3-2.3v-.7c1.4-.2 3.2-.5 4.6-.9v17.9c0 1.4.2 1.9 1.2 1.9h.9l.2.9zm-4.5-9.9c-.7-.9-2.1-1.4-3.2-1.4-1.4 0-3.9.9-3.9 5.3 0 3.7 2.3 5.6 4.2 5.6.9 0 2.1-.5 3-.9l-.1-8.6zm12.6-2.8c3.5 0 6.5 2.8 6.5 6.3v.2c.2 3.7-2.6 7-6.3 7.2h-.2c-3.7 0-6.7-3-6.7-6.5v-.2c-.1-3.5 2.7-6.6 6.7-7zm-.3 1.1c-1.9 0-3.5 1.9-3.5 5.3s1.9 6.5 4.2 6.5c1.9 0 3.5-1.2 3.5-5.6-.2-3.1-1.6-6.2-4.2-6.2zm8.6 12.3v-.7c2.1-.2 2.3-.2 2.3-2.3v-14.4c0-1.9-.2-2.1-2.1-2.3v-.7c1.4-.2 3-.5 4.4-.9v18.3c0 2.1.2 2.3 2.3 2.3v.7h-6.9zm14.9-13.4c3.5 0 6.5 2.8 6.5 6.3v.2c.2 3.7-2.6 7-6.3 7.2h-.2c-3.7 0-6.5-2.8-6.7-6.5v-.2c-.3-3.8 2.7-6.6 6.7-7-.3 0-.3 0 0 0zm-.5 1.1c-1.9 0-3.5 1.9-3.5 5.3s1.9 6.5 3.9 6.5c1.9 0 3.5-1.2 3.5-5.6 0-3.1-1.1-6.2-3.9-6.2zm15.5 12.3h-7v-.7c2.1-.2 2.1-.2 2.1-2.3v-6.3c0-2.1 0-2.1-1.9-2.3v-.9c1.4-.2 3-.7 4.2-1.2v3.2c.9-1.4 2.3-3.2 3.7-3.2.7 0 1.4.5 1.9 1.2 0 .7-.5 1.2-.9 1.9-.2.2-.5.2-.7 0-.2-.5-.7-.7-1.2-.7s-1.9.9-2.6 2.6v5.3c0 2.1.2 2.3 2.6 2.3v1.2h-.2zm15.1-2.3c-1.2 1.9-3 2.8-4.9 3-3.2 0-6-2.8-6-6v-.2c0-2.1.7-3.7 2.1-5.3.9-1.2 2.8-2.3 4.4-2.3 2.6 0 4.4 2.1 4.4 4.6 0 .5 0 .9-.5.9s-4.4.2-7.9.5c0 3.9 2.3 5.8 4.4 5.8 1.2 0 2.6-.5 3.5-1.4l.5.4zm-5.1-10c-1.4 0-2.8 1.2-3.2 3.7h4.9c.5 0 .7-.2.7-.5.4-1.5-.8-2.9-2.4-3.2zm30.4 12.3v-.7c1.9-.2 2.1-.2 2.1-2.6v-4.9c0-2.3-.7-3.5-2.6-3.5-1.2 0-2.6.7-3.2 1.4v7c0 2.1.2 2.1 2.1 2.3v.7h-6.5v-.7c2.1-.2 2.3-.2 2.3-2.3v-5.3c0-2.3-.7-3.5-2.6-3.5-1.2.2-2.6.7-3.2 1.4v7c0 2.1.2 2.1 2.1 2.3v.7h-6.5v-.5c2.1-.2 2.3-.2 2.3-2.3V119c0-2.1 0-2.1-1.9-2.3v-.5c1.4-.2 2.8-.5 4.2-1.2v2.6l2.3-1.4c.7-.5 1.4-.7 2.3-.7 1.4 0 2.8.9 3.2 2.6.7-.7 1.4-1.2 2.6-1.9.7-.5 1.4-.7 2.3-.7 2.3 0 3.7 1.9 3.7 4.6v5.8c0 2.1.2 2.1 2.1 2.3v.7l-7.1-.2zm17.6.5c-.5 0-.9-.2-1.4-.5-.2-.5-.5-.7-.7-1.2-.9.9-2.3 1.4-3.5 2.1-2.1 0-3.7-1.9-3.7-3.7 0-1.4.9-2.8 2.6-3 1.9-.5 3.2-.9 4.6-2.1v-.5c0-2.3-.9-3.2-2.8-3.2-.5 0-.9.2-1.4.7-.2.5-.7 1.2-.7 2.1 0 .5-.5.7-.9.7-.7 0-1.2-.5-1.2-1.2 0-.5.5-.7.9-1.2 1.2-.9 2.8-1.9 4.2-2.1.9 0 1.9.2 2.6.7.9.7 1.4 2.3 1.4 3.5v5.8c0 1.4.5 1.9.9 1.9.5 0 .7-.2.9-.2l.2.7-2 .7zm-2.1-7.4c-.7.2-2.1.9-2.8 1.2-1.2.5-1.9.9-1.9 2.3 0 1.2.7 2.3 2.1 2.3h.2c.9 0 1.9-.5 2.6-.9l-.2-4.9zm9.8 2.5c-.5.2-.9.9-.9 1.4 0 .5.5 1.2 1.9 1.2h3.5c2.1 0 4.4.7 4.4 3.5s-3.7 6-7.7 6c-3.5 0-5.3-2.1-5.3-3.7 0-.7.2-1.2.7-1.9.7-.7 1.9-1.4 2.6-2.3-.9-.2-1.9-.7-2.3-1.4-.2-.5-.2-.7-.2-1.2.9-.5 2.1-1.2 2.8-2.1l.5.5zm1.4.5c-2.6.2-4.6-1.9-4.9-4.2v-.2c0-2.8 2.6-4.9 5.3-4.9.9 0 2.1.2 2.8.7 1.2 0 2.8-.2 3.9-.5l.2.2c-.2.5-.5 1.2-.9 1.4-.5 0-1.4 0-1.9-.2.5.7.7 1.9.7 2.8 0 2.8-2.3 4.6-4.6 4.6-.2.3-.4.3-.6.3zm.7 4.2c-.9-.2-2.1 0-2.8.5-.7.5-1.2 1.4-1.4 2.6 0 1.9 1.9 2.8 3.9 2.8 2.8 0 4.4-1.4 4.4-3.5 0-.9-.5-1.9-1.2-2.3-.8.1-2-.1-2.9-.1zm-.7-12.8c-1.2 0-2.6 1.2-2.6 3.5s1.2 3.9 2.8 3.9c1.4 0 2.6-1.2 2.6-3.5s-1.2-3.9-2.8-3.9zm16.9 12.5v-.7c1.9-.2 2.1-.5 2.1-2.6v-4.9c0-2.1-.7-3.5-2.8-3.5-1.2 0-2.6.7-3.2 1.4v7c0 2.1.2 2.3 2.1 2.3v.7h-6.7v-.7c2.1-.2 2.3-.2 2.3-2.3v-6c0-2.1-.2-2.1-1.9-2.3v-.9c1.4-.2 2.8-.5 4.2-1.2v2.6l2.1-1.4c.7-.5 1.4-.7 2.6-.9 2.6 0 3.9 1.9 3.9 4.6v5.8c0 2.1.2 2.3 2.1 2.3v.7h-6.8zm17.6.5c-.5 0-.9-.2-1.4-.5-.2-.5-.5-.7-.7-1.2-.9.9-2.3 1.4-3.5 2.1-2.1 0-3.7-1.9-3.7-3.7 0-1.4.9-2.8 2.6-3 1.9-.5 3.2-.9 4.6-2.1v-.5c0-2.3-.9-3.2-2.6-3.2-.5 0-.9.2-1.4.7-.2.5-.7 1.2-.7 2.1 0 .5-.5.7-.9.7-.7 0-1.2-.5-1.2-1.2 0-.5.5-.7.9-1.2 1.2-.9 2.8-1.9 4.2-2.1.9 0 1.9.2 2.6.7.9.7 1.4 2.3 1.4 3.5v5.8c0 1.4.5 1.9.9 1.9s.7-.2.9-.2l.2.7-2.2.7zm-2.3-7.4c-.7.2-2.1.9-2.8 1.2-1.2.5-1.9.9-1.9 2.3 0 1.2.7 2.3 2.1 2.3.9 0 1.9-.5 2.6-.9v-4.9zm22.8 7.4c-.5 0-.9-.2-1.4-.5-.2-.5-.5-.7-.7-1.2-.9.9-2.3 1.4-3.5 2.1-2.1 0-3.7-1.9-3.7-3.7 0-1.4.9-2.8 2.6-3 1.9-.5 3.2-1.2 4.6-2.1v-.5c0-2.3-.9-3.2-2.8-3.2-.5 0-.9.2-1.4.7s-.7 1.2-.7 2.1c0 .5-.5.7-.7.7-.7 0-1.2-.5-1.2-1.2 0-.5.2-.7.9-1.2 1.2-.9 2.8-1.9 4.2-2.1 2.3 0 3.9 1.9 3.9 3.7v6.3c0 1.4.5 1.9.9 1.9.5 0 .7-.2.9-.2l.2.7-2.1.7zm-2.4-7.4l-2.8 1.2c-1.2.5-1.9.9-1.9 2.3 0 1.2.7 2.3 2.1 2.3.9 0 1.9-.5 2.6-.9v-4.9zm5.6 6.9v-.7c2.1-.2 2.3-.2 2.3-2.3v-14.4c0-1.9-.2-2.1-2.1-2.3v-.7c1.4-.2 3-.5 4.4-.9v18.3c0 2.1.2 2.3 2.3 2.3v.7h-6.9zm8.1 0v-.7c2.1-.2 2.1-.2 2.1-2.6v-6.3c0-1.9 0-2.1-2.1-2.3v-.7c1.4-.2 3-.7 4.2-1.2v10.2c0 2.1.2 2.3 2.3 2.6v.7l-6.5.3zm3-16.2c-.7 0-1.4-.7-1.4-1.4 0-.9.7-1.4 1.4-1.9.7 0 1.4.7 1.4 1.4.3 1-.4 1.9-1.4 1.9zm12.1 23.4v-.7c2.6-.2 2.6-.2 2.6-2.6v-4.9L694 129c-3.5 0-6.5-2.8-6.5-6.3v-.2c.2-4.2 3.7-7.7 7.9-7.4.7 0 1.4.2 2.3.5.2 0 .5.2.7.2.2 0 .7-.2.9-.2v17.2c0 2.1.2 2.3 2.3 2.6v.7c.1-.2-6.9-.2-6.9-.2zm2.5-18.1c-.7-.7-1.9-1.2-3-1.2-2.1 0-4.2 1.9-4.2 5.3-.2 2.8 1.4 5.3 4.2 5.8.9.2 2.1 0 2.8-.5v-9.3l.2-.1zm20.2 10.2c-1.4.2-3 .5-4.4.9v-2.3c-1.2 1.2-2.8 2.1-4.4 2.3-2.1 0-3.7-1.2-3.7-4.4v-5.8c0-1.4-.2-1.9-.9-2.1l-.7-.2v-.4c1.4 0 3-.2 4.2-.5v8.4c0 2.6 1.2 3.5 2.8 3.5 1.2 0 2.6-.5 3.2-1.4v-7c0-1.4-.2-1.9-1.2-2.1l-.9-.2v-.7c1.4 0 3.2-.2 4.6-.5v9.7c0 1.4.2 1.9 1.4 1.9h.7l-.7.9zm11.2 1.2c-.5 0-.9-.2-1.4-.5-.2-.5-.5-.7-.7-1.2-.9.9-2.3 1.4-3.5 2.1-2.1 0-3.7-1.9-3.7-3.7 0-1.4.9-2.8 2.6-3 1.9-.5 3.2-.9 4.6-2.1v-.5c0-2.3-.9-3.2-2.8-3.2-.5 0-.9.2-1.4.7s-.7 1.2-.7 2.1c0 .5-.5.7-.9.7-.7 0-1.2-.5-1.2-1.2 0-.5.5-.7.9-1.2 1.2-.9 2.8-1.9 4.2-2.1.9 0 1.9.2 2.6.7.9.7 1.4 2.3 1.4 3.5v5.8c0 1.4.5 1.9.9 1.9.5 0 .7-.2.9-.2l.2.7-2 .7zm-2.1-7.4c-.7.2-2.1.9-2.8 1.2-1.2.5-1.9.9-1.9 2.3 0 1.2.7 2.3 2.1 2.3h.2c.9 0 1.9-.5 2.6-.9l-.2-4.9zm22.2 6.9v-.7c1.9-.2 2.1-.2 2.1-2.6v-4.9c0-2.3-.7-3.5-2.6-3.5-1.2.2-2.6.7-3.2 1.4v7c0 2.1.2 2.1 2.1 2.3v.7h-6.5v-.7c1.9-.2 2.3-.2 2.3-2.3v-5.3c0-2.3-.7-3.5-2.6-3.5-1.2.2-2.6.7-3.2 1.4v7c0 2.1.2 2.1 2.1 2.3v.7h-6.5v-.5c2.1-.2 2.3-.2 2.3-2.3V119c0-2.1 0-2.1-1.9-2.3v-.5c1.4-.2 2.8-.5 4.2-1.2v2.6l2.3-1.4c.7-.5 1.4-.7 2.6-.7 1.4 0 2.8.9 3.2 2.6.7-.7 1.4-1.2 2.6-1.9.7-.5 1.4-.7 2.3-.7 2.3 0 3.7 1.9 3.7 4.6v5.8c0 2.1.2 2.1 2.1 2.3v.7l-7.4-.2zm17.4.5c-.5 0-.9-.2-1.4-.5-.2-.5-.5-.7-.7-1.2-.9.9-2.3 1.4-3.5 2.1-2.1 0-3.7-1.9-3.7-3.7 0-1.4.9-2.8 2.6-3 1.9-.5 3.2-.9 4.6-2.1v-.5c0-2.3-.9-3.2-2.8-3.2-.5 0-.9.2-1.4.7s-.7 1.2-.7 2.1c0 .5-.5.7-.9.7-.7 0-1.2-.5-1.2-1.2 0-.5.5-.7.9-1.2 1.2-.9 2.8-1.9 4.2-2.1.9 0 1.9.2 2.6.7.9.7 1.4 2.3 1.4 3.5v5.8c0 1.4.5 1.9.9 1.9.5 0 .7-.2.9-.2l.2.7-2 .7zm-1.8-7.4c-.7.2-2.1.9-2.8 1.2-1.2.5-1.9.9-1.9 2.3 0 1.2.7 2.3 2.1 2.3h.2c.9 0 1.9-.5 2.6-.9l-.2-4.9zm-365.1 40.3c-1.2 1.9-3 2.8-4.9 3-3.2 0-6-2.8-6-6v-.2c0-2.1.7-3.7 2.1-5.3.9-1.2 2.8-2.3 4.4-2.3 2.6 0 4.4 2.1 4.4 4.6 0 .5 0 .9-.5.9s-4.4.2-7.9.5c0 3.9 2.6 5.8 4.4 5.8 1.2 0 2.6-.5 3.5-1.4l.5.4zm-5.1-9.9c-1.4 0-2.8 1.2-3.2 3.7h5.3c.5 0 .7-.2.7-.5.2-1.4-.9-3-2.6-3l-.2-.2zm13.9 12.5h-7v-.7c2.1-.2 2.1-.2 2.1-2.3v-6.3c0-2.1-.2-2.1-1.9-2.3v-.7c1.4-.2 3-.7 4.2-1.2v3.2c.9-1.4 2.3-3.2 3.7-3.2.7 0 1.9.5 1.9 1.2s-.5 1.2-.9 1.9c-.2.2-.5.2-.7 0-.2-.5-.7-.7-1.2-.7s-1.9.9-2.6 2.6v5.6c0 2.1.2 2.3 2.6 2.3v.7h-.2zm13.7.2c-.5 0-.9-.2-1.4-.5-.2-.5-.5-.7-.7-1.2-.9.9-2.3 1.4-3.5 2.1-2.1 0-3.7-1.9-3.7-3.7 0-1.4.9-2.8 2.6-3 1.9-.5 3.2-.9 4.6-2.1v-.5c0-2.3-.9-3.2-2.6-3.2-.5 0-.9.2-1.4.7-.2.5-.7 1.2-.7 2.1 0 .5-.5.7-.9.7-.7 0-1.2-.5-1.2-1.2 0-.5.5-.7.9-1.2 1.2-.9 2.8-1.9 4.2-2.1.9 0 1.9.2 2.6.7.9.7 1.9 2.3 1.4 3.5v5.8c0 1.2.5 1.9.9 1.9.5 0 .7-.2.9-.2l.2.7-2.2.7zm-2.1-7.4c-.7.2-2.1.9-2.8 1.2-1.2.5-1.9.9-1.9 2.3s.7 2.3 2.1 2.3c.9 0 1.9-.5 2.6-.9v-4.9zm11.6 7.2c-.5.2-.7.2-1.2.5-2.1 0-3-1.2-3-3.5v-8.8h-2.1v-.2l.7-.7h1.4v-2.6c.5-.5 1.4-1.2 2.1-2.1h.5v4.4h3.5c.2.5.2.9-.2 1.2h-3.2v7.7c0 2.6.9 2.8 1.9 2.8s1.2-.2 1.9-.5l.2.7-2.5 1.1zm23.2-12.3c-1.4.2-1.9.5-2.6 2.3-.9 2.6-2.8 6.3-4.2 10.4h-.9c-1.2-3.5-2.8-7-4.2-10.4-.7-1.9-.9-2.1-2.6-2.3v-.7h6v.7c-1.9.2-1.9.5-1.2 1.9.7 2.1 2.1 5.3 2.8 7.2.9-2.8 2.1-4.9 2.8-7 .5-1.4.5-1.9-1.4-2.1v-.7h5.6l-.1.7zm7.4-1.2c3.5 0 6.5 2.8 6.5 6.3v.5c.2 3.7-2.6 7-6.3 7.2h-.2c-3.7 0-6.5-3-6.7-6.5v-.2c-.2-4 2.8-7 6.7-7.3-.2 0 0 0 0 0zm-.4 1c-1.9 0-3.5 1.9-3.5 5.3 0 3.5 1.9 6.7 4.2 6.7 2.1 0 3.5-1.2 3.5-5.6-.1-3.7-1.5-6.4-4.2-6.4zm8.5 12.5v-.7c2.1-.2 2.3-.2 2.3-2.3v-14.1c0-1.9-.2-2.1-2.1-2.3v-.7c1.4-.2 3-.5 4.4-.9V162c0 2.1.2 2.3 2.3 2.3v.7l-6.9-.3zm22.5-.5c-1.4.2-3 .5-4.4.9v-2.3c-1.2 1.2-2.8 2.1-4.4 2.3-2.1 0-3.7-1.2-3.7-4.4v-5.8c0-1.4-.2-1.9-.9-2.1l-.7-.2v-.7c1.2 0 3.2-.2 4.2-.5v8.4c0 2.6 1.4 3.5 2.8 3.5 1.2 0 2.6-.5 3.2-1.4v-7c0-1.4-.2-1.9-1.4-2.1h-.9v-.7c1.4 0 3.2-.2 4.6-.5v10c0 1.4.2 1.9 1.4 1.9h.7l-.5.7zm7.5.5c-.5.2-.7.2-1.2.5-2.1 0-3-1.2-3-3.5v-8.8h-2.1v-.2l.7-.7h1.4v-2.6c.5-.5 1.4-1.2 2.1-2.1h.5v4.4h3.5c.2.5.2.9-.2 1.2h-3.2v7.7c0 2.6.9 2.8 1.9 2.8s1.2-.2 1.9-.5l.2.7-2.5 1.1zm2.7-12.5c1.4-.2 3-.7 4.2-1.2v2.6l2.6-1.4c.5-.2.9-.5 1.9-.5 3 0 5.6 2.6 5.3 5.6v.2c-.2 4.2-3.2 7.7-7.4 8.1-.7 0-1.4-.2-2.3-.5v3.9c0 2.3.2 2.6 2.6 2.6v.7h-7v-.9c2.1-.2 2.3-.2 2.3-2.3v-13.7c0-1.9 0-2.1-2.1-2.3l-.1-.9zm4.2 10.2c.7.7 1.9 1.2 2.8 1.2 2.6 0 4.2-2.3 4.2-5.6 0-3.2-2.1-4.9-3.9-4.9-1.2 0-2.3.5-3 1.2v8.1zm21.1 2.5c-.5 0-.9-.2-1.4-.5-.2-.5-.5-.7-.7-1.2-.9.9-2.3 1.4-3.5 2.1-2.1 0-3.7-1.9-3.7-3.7 0-1.4.9-2.8 2.6-3 1.9-.5 3.2-.9 4.6-2.1v-.5c0-2.3-.9-3.2-2.6-3.2-.5 0-.9.2-1.4.7-.2.5-.7 1.2-.7 2.1 0 .5-.5.7-.9.7-.7 0-1.2-.5-1.2-1.2 0-.5.5-.7.9-1.2 1.2-.9 2.8-1.9 4.2-2.1.9 0 1.9.2 2.6.7.9.7 1.9 2.3 1.4 3.5v5.8c0 1.2.5 1.9.9 1.9.5 0 .7-.2.9-.2l.2.7-2.2.7zm-1.8-7.4c-.7.2-2.1.9-2.8 1.2-1.2.5-1.9.9-1.9 2.3s.7 2.3 2.1 2.3c.9 0 1.9-.5 2.6-.9v-4.9zm11.3 7.2c-.5.2-.7.2-1.2.5-2.1 0-3-1.2-3-3.5v-8.8h-2.1v-.2l.7-.7h1.4v-2.6c.5-.5 1.4-1.2 2.1-2.1h.5v4.4h3.5c.2.5.2.9-.2 1.2h-3.2v7.7c0 2.6.9 2.8 1.9 2.8.9 0 1.2-.2 1.9-.5l.2.7-2.5 1.1zm6.3.4c-.9 0-1.9-.7-1.9-1.9v-.2c0-.9.7-1.9 1.9-2.1h.2c.9 0 2.1.7 2.1 1.9-.7 1.4-1.4 2.1-2.3 2.3zm31.8-19.2c-2.1 0-2.6.5-2.8 2.1v7.9c.2 2.6-.5 5.3-2.1 7.2-1.4 1.2-3.5 2.1-5.6 2.1-1.9 0-3.5-.5-4.9-1.2-2.1-1.9-3-4.2-2.8-7v-7.7c0-2.8-.2-2.8-2.8-3v-.7h7.9v.5c-2.6.2-2.8.5-2.8 3v7.4c0 4.4 2.1 6.7 5.8 6.7 4.2 0 5.6-2.8 5.6-7.4v-3c0-2.8 0-3.9-.2-4.6 0-1.2-.7-1.9-3-2.1v-.7h7.2l.5.5zm6.2 18.8c-.5.2-.7.2-1.2.5-2.1 0-3-1.2-3-3.5v-8.8h-2.1v-.2l.7-.7h1.4v-2.6c.5-.5 1.4-1.2 2.1-2.1h.5v4.4h3.5c.2.5.2.9-.2 1.2h-3.2v7.7c0 2.6.9 2.8 1.9 2.8.9 0 1.2-.2 1.9-.5l.2.7-2.5 1.1zm30-12.3c-1.4.2-1.9.5-2.6 2.3-.9 2.3-2.3 6.5-3.5 10.4h-.9c-1.2-3.2-2.6-6.3-3.5-9.5-.9 2.8-2.6 6-3.7 9.5h-.9c-.9-3.5-2.3-7-3.5-10.7-.5-1.4-.7-1.9-2.3-2.1v-.7h6.3v.7c-1.9.2-2.1.5-1.4 1.9.7 2.3 1.4 4.6 2.3 7 1.2-3 2.6-6.3 3.5-9.5h.7c.9 3 2.3 6.3 3.5 9.5.7-1.9 1.4-4.6 2.3-7 .5-1.4.2-1.9-2.1-2.1v-.7h5.6l.2 1zm1.1 12.3v-.7c2.1-.2 2.1-.2 2.1-2.6v-6.3c0-2.1 0-2.1-2.1-2.3v-.7c1.4-.2 3-.7 4.2-1.2v10.4c0 2.1.2 2.3 2.3 2.6v.7h-6.5v.1zm3-16.5c-.7 0-1.4-.7-1.4-1.4 0-.9.7-1.4 1.4-1.9.7 0 1.4.7 1.4 1.4.3 1.2-.4 1.9-1.4 1.9zm12.6 7c-.5-1.9-1.2-3-3.2-3-.9 0-1.9.7-2.1 1.9v.2c0 1.2.9 2.1 2.6 2.8 2.6 1.2 3.9 2.3 3.9 3.9-.2 2.6-2.3 4.2-4.6 4.2h-.2c-1.2 0-2.6-.2-3.5-.7-.2-.9-.5-2.6-.5-3.5l.9-.2c.5 2.1 1.4 3.5 3.7 3.5.9 0 2.1-.7 2.1-2.1v-.2c0-1.2-.7-2.1-2.6-2.8-2.1-.9-3.7-2.1-3.7-3.9.2-2.3 2.3-3.9 4.4-3.9h.2c.9 0 2.1.2 3 .5 0 .7.2 2.6.5 3.2l-.9.1zm3.2 9.5v-.7c2.1-.2 2.1-.2 2.1-2.6v-6.3c0-2.1 0-2.1-2.1-2.3v-.7c1.4-.2 3-.7 4.2-1.2v10.4c0 2.1.2 2.3 2.3 2.6v.7h-6.5v.1zm3.3-16.5c-.7 0-1.4-.7-1.4-1.4 0-.9.7-1.4 1.4-1.9.7 0 1.4.7 1.4 1.4.2 1.2-.8 1.9-1.4 1.9zm22.9 13.9c-1.2 1.9-3 2.8-4.9 3-3.2 0-6-2.8-6-6v-.2c0-2.1.7-3.7 2.1-5.3.9-1.2 2.8-2.3 4.4-2.3 2.6 0 4.4 2.1 4.4 4.6 0 .5 0 .9-.5.9s-4.4.2-7.9.5c0 3.9 2.6 5.8 4.4 5.8 1.2 0 2.6-.5 3.5-1.4l.5.4zm-5.3-9.9c-1.2 0-2.8 1.2-3.2 3.7h4.9c.5 0 .7-.2.7-.5.2-1.4-.9-3-2.6-3 .4-.2.4-.2.2-.2zm15.8 12.5v-.7c1.9-.2 2.1-.5 2.1-2.6v-4.9c0-2.1-.7-3.5-2.8-3.5-1.2 0-2.6.7-3.2 1.4v7.2c0 2.1.2 2.3 2.1 2.3v.7H660v-.6c2.1-.2 2.3-.2 2.3-2.3v-6.3c0-2.1-.2-2.1-1.9-2.3v-.7c1.4-.2 2.8-.5 4.2-1.2v2.3l2.1-1.2c.7-.5 1.4-.7 2.6-.9 2.6 0 3.9 1.9 3.9 4.6v5.8c0 2.1.2 2.3 2.1 2.3v.5h-7v.1zm7.8 0v-.7c2.1-.2 2.1-.2 2.1-2.6v-6.3c0-2.1 0-2.1-2.1-2.3v-.7c1.4-.2 3-.7 4.2-1.2v10.4c0 2.1.2 2.3 2.3 2.6v.7h-6.5v.1zm3.3-16.5c-.7 0-1.4-.7-1.4-1.4 0-.9.7-1.4 1.4-1.9.7 0 1.4.7 1.4 1.4 0 1.2-.7 1.9-1.4 1.9zm21.3 16.5v-.7c1.9-.2 2.1-.2 2.1-2.6v-4.9c0-2.3-.7-3.5-2.6-3.5-1.2 0-2.6.7-3.2 1.4v7c0 2.1.2 2.1 2.1 2.3v.7h-6.5v-.7c1.9-.2 2.3-.2 2.3-2.3v-5.3c0-2.3-.7-3.5-2.6-3.5-1.2.2-2.6.7-3.2 1.4v7c0 2.1.2 2.1 2.1 2.3v.7h-6.5v-.7c2.1-.2 2.3-.2 2.3-2.3v-6.3c0-2.1 0-2.1-1.9-2.3v-.7c1.4-.2 2.8-.5 4.2-1.2v2.6l2.3-1.4c.7-.5 1.4-.7 2.6-.7 1.4 0 2.8.9 3.2 2.6.7-.7 1.4-1.2 2.6-1.9.7-.5 1.4-.7 2.3-.7 2.3 0 3.7 1.9 3.7 4.6v5.8c0 2.1.2 2.1 2.1 2.3v.7l-7.4.3zm24.4.2c-.5 0-.9-.2-1.4-.5-.2-.5-.5-.7-.7-1.2-.9.9-2.3 1.4-3.5 2.1-2.1 0-3.7-1.9-3.7-3.7 0-1.4.9-2.8 2.6-3 1.9-.5 3.2-.9 4.6-2.1v-.5c0-2.3-.9-3.2-2.6-3.2-.5 0-.9.2-1.4.7-.5.5-.7 1.2-.7 2.1 0 .5-.5.7-.9.7-.7 0-1.2-.7-1.2-1.2s.2-.7.9-1.2c1.2-.9 2.8-1.9 4.2-2.1 2.3 0 3.9 1.9 3.9 3.7v6.3c0 1.2.5 1.9.9 1.9.5 0 .7-.2.9-.2l.2.7-2.1.7zm-2.1-7.4c-.7.2-2.1.9-2.8 1.2-1.2.5-1.9.9-1.9 2.3 0 1.2.7 2.3 2.1 2.3.9 0 1.9-.5 2.6-.9v-4.9zm20.4 6.5c-1.4.2-3.2.7-4.6 1.2v-2.1l-2.1.9c-.7.5-1.4.7-2.3.9-3.2-.2-5.8-3.2-5.6-6.5 0-4.2 3.5-7.4 7.7-7.2.7 0 1.4 0 2.1.2V147c0-2.1-.2-2.1-2.3-2.3v-.7c1.4-.2 3.2-.5 4.6-.9V161c0 1.4.2 1.9 1.2 1.9h.9v1.2h.4zm-4.6-10c-.7-.9-2.1-1.4-3.2-1.4-1.4 0-3.9.9-3.9 5.3 0 3.7 2.3 5.6 4.2 5.6.9 0 2.1-.5 3-.9l-.1-8.6zm13.7 1.2c-.5-1.9-1.2-3-3-3-.9 0-1.9.7-2.1 1.9v.2c0 1.2.9 2.1 2.6 2.8 2.6 1.2 3.7 2.3 3.7 3.9-.2 2.6-2.3 4.2-4.6 4.2h-.2c-1.2 0-2.3-.5-3.2-.9-.2-.9-.5-2.6-.5-3.5l.9-.2c.5 2.1 1.4 3.5 3.7 3.5.9 0 2.1-.7 2.1-2.1v-.2c0-1.2-.7-2.1-2.6-2.8-2.1-.9-3.7-2.1-3.7-3.9.2-2.3 2.1-3.9 4.4-3.9h.2c.9 0 2.1.2 2.8.5 0 .7.2 2.6.5 3.2l-1 .3zm10.2-4c3.5 0 6.5 2.8 6.5 6.3v.5c.2 3.7-2.6 7-6.3 7.2h-.2c-3.7 0-6.5-3-6.7-6.5v-.2c-.1-4 2.7-7 6.7-7.3zm-.5 1c-1.9 0-3.5 1.9-3.5 5.3 0 3.5 1.4 6.7 3.9 6.7 2.1 0 3.5-1.2 3.5-5.6.3-3.7-1.1-6.4-3.9-6.4zm-361.6 44.3l-.9 3.9H389v-.7c2.6-2.1 7-4.9 7-8.1.2-1.2-.7-2.8-2.1-2.8h-.5c-1.4.2-2.6.9-3.2 2.3l-.7-.5 1.4-2.1c.9-.9 2.3-1.9 3.5-1.4 2.3-.2 4.2 1.4 4.2 3.7v.2c0 1.4-.7 3-2.1 3.9-.9.9-2.3 2.1-3.9 3.5h4.6c1.2 0 1.4-.2 2.6-2.1l.8.2zm14.1-13.3c-3.9.7-7 3.5-8.4 7.2l1.9-.7c.7-.2 1.2-.5 2.1-.5 2.8 0 4.9 2.3 4.9 4.9v.5c0 3.5-2.6 6.3-6 6.3h-.2c-3 0-6-2.6-6-7.2.2-4.6 3.2-8.8 7.7-10.4 1.2-.5 2.6-.7 3.7-.9l.3.8zm-6.2 7.5c-.7 0-1.9.2-2.6.7-.2.7-.2 1.4-.2 2.3 0 3.9 1.9 6.3 3.7 6.3 1.4 0 3-.9 3-3.9.2-2.7-.7-5.4-3.9-5.4zm21.5 8.8h-2.6v5.8h-2.3v-5.8h-7.9v-.9c3-3.7 6-7.7 9-11.4h1.2v10.7h2.8l-.2 1.6zm-5.1-9.5c-2.3 2.8-3.9 4.9-5.8 7.7h5.8V190zm13.5-7.7c2.6-.2 4.4 1.9 4.6 4.2v.2c0 .7-.2 1.4-.7 2.3-.7.7-1.4 1.2-2.3 1.9 2.1 1.2 3.7 2.6 3.7 4.9 0 3-2.6 5.3-5.6 5.3h-.2c-2.8.2-5.3-1.9-5.6-4.4v-.2c0-.9.5-2.1 1.2-2.8.7-.7 1.9-1.2 2.6-1.9-1.9-.7-3-2.6-3-4.4.4-3.2 2.5-5.1 5.3-5.1zm0 17.4c1.9 0 3-1.2 3-3.5s-2.1-3.2-3.9-4.4c-1.4.7-2.3 2.3-2.3 3.9-.3 1.9 1.3 3.8 3.2 4-.2 0 0 0 0 0zm-.2-16.5c-1.4 0-2.6.9-2.6 2.6v.5c0 2.3 1.4 3 3.5 3.9.9-.7 1.9-2.1 1.9-3.5-.1-2.1-1.7-3.5-2.8-3.5zm28.3 5.1c-1.4.2-1.9.5-2.6 2.3-.9 2.6-2.8 6.5-4.2 10.4h-.9c-1.2-3.5-2.8-7-3.9-10.4-.7-1.9-.9-2.1-2.6-2.3v-.7h6v.7c-1.9.2-1.9.5-1.2 1.9.7 2.1 2.1 5.3 2.8 7.2.9-2.8 2.1-4.9 2.8-7 .5-1.4.5-1.9-1.4-2.1v-.7h5.6v.7h-.4zm11.6 9.6c-1.2 1.9-3 2.8-4.9 3-3.2 0-6-2.8-6-6v-.2c0-2.1.7-3.7 2.1-5.3.9-1.2 2.8-2.3 4.4-2.3 2.6 0 4.4 2.1 4.4 4.6 0 .5 0 .9-.5.9s-4.4.2-7.9.5c0 3.9 2.6 5.8 4.4 5.8 1.2 0 2.6-.5 3.5-1.4l.5.4zm-5.2-9.8c-1.4 0-2.8 1.2-3.2 3.7h5.3c.5 0 .7-.2.7-.5.2-1.4-.9-3-2.6-3l-.2-.2zm15.6 12.3v-.7c1.9-.2 2.1-.5 2.1-2.6v-4.9c0-2.1-.7-3.5-2.8-3.5-1.2 0-2.6.7-3.2 1.4v7c0 2.1.2 2.3 2.1 2.3v.7h-6.5v-.7c2.1-.2 2.3-.2 2.3-2.3v-6c0-2.1-.2-2.1-1.9-2.3v-.7c1.4-.2 2.8-.5 4.2-1.2v2.6l2.1-1.4c.7-.5 1.4-.7 2.6-.9 2.6 0 3.9 1.9 3.9 4.6v5.8c0 2.1.2 2.3 2.1 2.3v.7h-7v-.2zm7.9 0v-.7c2.1-.2 2.1-.2 2.1-2.6v-6.3c0-1.9 0-2.1-2.1-2.3v-.7c1.4-.2 3-.7 4.2-1.2v10.2c0 2.1.2 2.3 2.3 2.6v.7l-6.5.3zm3.2-16.5c-.7 0-1.4-.7-1.4-1.4 0-.9.7-1.4 1.4-1.9.7 0 1.4.7 1.4 1.4 0 1.2-.7 1.7-1.4 1.9zm14.4 16.7c-.5 0-.9-.2-1.4-.5s-.7-.7-.7-1.2c-.9.9-2.3 1.4-3.5 2.1-2.1 0-3.7-1.9-3.7-3.7 0-1.4.9-2.8 2.6-3 1.9-.5 3.2-.9 4.6-2.1v-.5c0-2.3-.9-3.2-2.8-3.2-.5 0-.9.2-1.4.7-.5.5-.7 1.2-.7 2.1 0 .5-.5.7-.9.7-.7 0-1.2-.5-1.2-1.2 0-.5.5-.7.9-1.2 1.2-.9 2.8-1.9 4.2-2.1 2.3 0 3.9 1.9 3.9 3.7v6.3c0 1.4.5 1.9.9 1.9.5 0 .7-.2.9-.2l.2.7-1.9.7zm-2.3-7.4l-2.8 1.2c-.9.5-1.9.9-1.9 2.3s.7 2.3 2.1 2.3c.9 0 1.9-.5 2.6-.9v-4.9zm22.5 7.2v-.7c1.9-.2 2.1-.2 2.1-2.6v-4.9c0-2.3-.7-3.5-2.6-3.5-1.2 0-2.6.7-3.2 1.4v7c0 2.1.2 2.1 2.1 2.3v.7h-6.5v-.7c1.9-.2 2.3-.2 2.3-2.3v-5.3c0-2.3-.7-3.5-2.6-3.5-1.2.2-2.6.7-3.2 1.4v7c0 2.1.2 2.1 2.1 2.3v.7h-6.5v-.7c2.1-.2 2.3-.2 2.3-2.3v-6.3c0-2.1-.2-2.1-1.9-2.3v-.7c1.4-.2 2.8-.5 4.2-1.2v2.6l2.3-1.4c.7-.5 1.4-.7 2.6-.7 1.4 0 2.8.9 3.2 2.6.7-.7 1.4-1.2 2.3-1.9.7-.5 1.4-.7 2.3-.7 2.3 0 3.7 1.9 3.7 4.6v5.8c0 2.1.2 2.1 2.1 2.3v.7l-7.1.3zm8.3 2.8c1.2-.5 2.6-1.4 2.6-2.6s-.9-1.2-2.1-1.4c-.2 0-.5-.2-.5-.9s.7-1.4 1.4-1.4h.2c1.4.2 2.8 1.4 2.6 3.2-.2 2.3-1.9 3.9-3.7 4.2l-.5-1.1zm21.6 4.4v-.7c2.3-.2 2.6-.2 2.6-2.6v-4.9l-3.2 1.2c-3.5 0-6.5-2.8-6.5-6.3v-.2c.2-4.2 3.7-7.7 7.9-7.4.7 0 1.4.2 2.3.5.2 0 .5.2.7.2.2 0 .7-.2.9-.2h.2v17.2c0 2.1.2 2.3 2.3 2.6v.7l-7.2-.1zm2.3-18.1c-.7-.7-1.9-1.2-3-1.2-2.1 0-3.9 1.9-3.9 5.3-.2 2.8 1.4 5.3 4.2 5.8h.5c.7 0 1.4-.2 2.3-.5v-9.4h-.1zm20.2 10.2c-1.4.2-3 .5-4.4.9v-2.3c-1.2 1.2-2.8 2.1-4.4 2.3-2.1 0-3.7-1.2-3.7-4.4v-5.8c0-1.4-.2-1.9-.9-2.1l-.7-.2v-.7c1.4 0 3-.2 4.2-.5v8.4c0 2.6 1.4 3.5 2.8 3.5s2.6-.5 3.2-1.4v-7c0-1.4-.2-1.9-1.4-2.1h-1.4v-.7c1.4 0 3.2-.2 4.6-.5v10c0 1.4.2 1.9 1.4 1.9h.7v.7zm1.6.7v-.7c2.1-.2 2.1-.2 2.1-2.6v-6.3c0-1.9 0-2.1-2.1-2.3v-.7c1.4-.2 3-.7 4.2-1.2v10.2c0 2.1.2 2.3 2.3 2.6v.7l-6.5.3zm2.8-16.5c-.7 0-1.4-.7-1.4-1.4 0-.9.7-1.4 1.4-1.9.7 0 1.4.7 1.4 1.4.2 1.2-.5 1.9-1.4 1.9zm12.8 7c-.5-1.9-1.2-3-3.2-3-.9 0-1.9.7-2.1 1.9v.2c0 1.2.9 2.1 2.6 2.8 2.6 1.2 3.9 2.3 3.9 3.9-.2 2.6-2.3 4.2-4.6 4.2h-.2c-1.2 0-2.6-.2-3.5-.7-.2-.9-.5-2.6-.5-3.5l.9-.2c.5 2.1 1.4 3.5 3.7 3.5.9 0 2.1-.7 2.1-2.1v-.2c0-1.2-.7-2.1-2.6-2.8-2.1-.9-3.7-2.1-3.7-4.2.2-2.3 2.3-3.9 4.4-3.9h.2c.9 0 2.1.2 3 .5 0 .7.2 2.6.5 3.2l-.9.4zm13.9 1.9c3.2.2 7.2 1.4 7.2 5.6 0 2.1-.9 3.9-2.8 4.9-2.1 1.2-4.2 2.1-6.5 2.3l-.2-.9c1.9-.2 7-1.2 7-5.6 0-3.2-3.5-3.7-6.5-3.9l1.2-7.4 7.4-.5-.5 2.3-6.3.5v2.7zm22.9-9.6c-3.9.7-7 3.5-8.4 7.2l1.9-.7c.7-.2 1.2-.5 2.1-.5 2.8 0 4.9 2.3 4.9 4.9v.5c0 3.5-2.6 6.3-6 6.3h-.2c-3 0-6-2.6-6-7.2.2-4.6 3.2-8.8 7.7-10.4 1.2-.5 2.6-.7 3.7-.9l.3.8zm-6.2 7.5c-.7 0-1.9.2-2.6.7-.2.7-.2 1.4-.2 2.3 0 3.9 1.9 6.3 3.7 6.3 1.4 0 3-.9 3-3.9 0-2.7-.7-5.4-3.9-5.4zm21.1-3.1c-1.4 2.6-5.3 9.7-9 17.2l-2.3.5-.2-.5c3.2-4.9 6.5-10.2 9.3-15.3H644v-2.3h11l.5.4zm8.8-5.3c2.6-.2 4.4 1.9 4.6 4.2v.2c0 .7-.2 1.4-.7 2.3-.7.7-1.4 1.2-2.3 1.9 2.1 1.2 3.7 2.6 3.7 4.9 0 3-2.6 5.3-5.6 5.3h-.2c-2.8.2-5.3-1.9-5.6-4.4v-.2c0-.9.5-2.1 1.2-2.8.7-.7 1.9-1.2 2.6-1.9-1.9-.7-3-2.6-3-4.4.2-3.2 2.5-5.1 5.3-5.1zm0 17.4c1.9 0 2.8-1.2 2.8-3.5s-2.1-3.2-3.9-4.4c-1.4.7-2.3 2.3-2.3 3.9-.2 2.1 1.2 3.7 3.2 3.9l.2.1zm-.7-16.5c-1.4 0-2.6.9-2.6 2.6v.5c0 2.3 1.4 3 3.5 3.9.9-.7 1.9-2.1 1.9-3.5 0-2.5-1.2-3.5-2.8-3.5zm21.1 13.3l-.9 3.9h-10.7v-.7c2.8-2.1 7-4.9 7-8.1.2-1.2-.7-2.8-2.1-2.8h-.7c-1.4.2-2.6.9-3.2 2.3l-.7-.5 1.4-2.1c.9-.9 2.3-1.9 3.5-1.4 2.3 0 4.2 1.4 4.2 3.9v.2c0 1.4-.7 3-2.1 3.9-.9.9-2.3 2.1-3.9 3.5h4.6c1.2 0 1.4-.2 2.6-2.1h1zm20 1.4c-1.2 1.9-3 2.8-4.9 3-3.2 0-6-2.8-6-6v-.2c0-2.1.7-3.7 2.1-5.3.9-1.2 2.8-2.3 4.4-2.3 2.6 0 4.4 2.1 4.4 4.6 0 .5 0 .9-.5.9s-4.4.2-7.9.5c0 3.9 2.6 5.8 4.4 5.8 1.2 0 2.6-.5 3.5-1.4l.5.4zm-5.1-9.8c-1.2 0-2.8 1.2-3.2 3.7h4.9c.5 0 .7-.2.7-.5.2-1.4-.9-3-2.6-3 .4-.2.4-.2.2-.2zm13.9 12.3v-.7c1.2-.2 1.4-.2.9-1.2l-2.3-3.5c-.7.9-1.2 2.3-2.1 3.2-.7.9-.5 1.2.9 1.4v.7h-5.8v-.7c1.4 0 2.8-.7 3.5-2.1.7-1.4 1.4-2.3 2.6-3.7l-2.6-3.9c-.5-1.2-1.9-2.1-3-2.1v-.7h6v.7c-1.2.2-1.2.5-.7 1.2l1.9 2.8c.5-.9 1.2-2.1 1.9-2.8.5-.7.2-.9-.9-1.2v-.7h5.6v.7c-1.4 0-2.8.7-3.5 2.1-.5.5-1.2 1.4-2.3 3l2.8 4.4c1.2 1.9 1.4 2.1 3.2 2.3v.7l-6.1.1zm17.8-2.5c-1.2 1.9-3 2.8-4.9 3-3.2 0-6-2.8-6-6v-.2c0-2.1.7-3.7 2.1-5.3.9-1.2 2.8-2.3 4.4-2.3 2.6 0 4.4 2.1 4.4 4.6 0 .5 0 .9-.5.9s-4.4.2-7.9.5c0 3.9 2.6 5.8 4.4 5.8 1.2 0 2.6-.5 3.5-1.4l.5.4zm-5.1-9.8c-1.2 0-2.8 1.2-3.2 3.7h4.9c.5 0 .7-.2.7-.5.2-1.4-.9-3-2.6-3 .5-.2.2-.2.2-.2zm14 12.3h-7v-.7c2.1-.2 2.1-.2 2.1-2.3v-6.3c0-2.1 0-2.1-2.1-2.3v-.7c1.4-.2 3-.7 4.2-1.2v3.2c.9-1.4 2.3-3.2 3.7-3.2.7 0 1.4.5 1.9 1.2 0 .7-.5 1.2-.9 1.9-.2.2-.5.2-.7 0-.2-.5-.7-.7-1.2-.7s-1.9.9-2.6 2.6v5.3c0 2.1.2 2.3 2.6 2.3v.9zm15-2.8c-1.2 1.9-3 2.8-4.9 3-3.2 0-6-2.8-6-6v-.2c0-2.3.9-4.4 3-6 1.2-.9 3-1.9 4.4-1.9.9 0 2.1.2 2.8.7.5.2.5.5.5.9 0 .7-.5 1.2-.9 1.2-.2 0-.2 0-.5-.2-.7-.7-2.1-1.2-3-1.2-2.1 0-3.7 1.9-3.7 4.6-.2 2.8 1.9 5.3 4.4 5.6h.2c1.4 0 2.8-.5 3.7-1.9v1.4zm1.9 2.8v-.7c2.1-.2 2.1-.2 2.1-2.6v-6.3c0-1.9 0-2.1-2.1-2.3v-.7c1.4-.2 3-.7 4.2-1.2v10.2c0 2.1.2 2.3 2.3 2.6v.7l-6.5.3zm2.8-16.5c-.7 0-1.4-.7-1.4-1.4 0-.9.7-1.4 1.4-1.9.7 0 1.4.7 1.4 1.4.2 1.2-.3 1.7-1.4 1.9zm-365.8 52.5c-.5.2-.7.2-1.2.5-2.1 0-3-1.2-3-3.5v-8.8h-2.1v-.2l.7-.9h1.2v-2.6c.5-.5 1.4-1.2 2.1-2.1h.5v4.4h3.5c.2.5.2.9-.2 1.2h-3.2v7.7c0 2.6.9 2.8 1.9 2.8s1.2-.2 1.9-.5l.2.7-2.3 1.3zm12.7.2c-.5 0-.9-.2-1.4-.5-.2-.5-.5-.7-.7-1.2-.9.9-2.3 1.4-3.5 2.1-2.1 0-3.7-1.9-3.7-3.7 0-1.4.9-2.8 2.6-3 1.9-.5 3.2-.9 4.6-2.1v-.5c0-2.3-.9-3.2-2.6-3.2-.5 0-.9.2-1.4.7-.2.5-.7 1.2-.7 2.1 0 .5-.5.7-.9.7-.7 0-1.2-.5-1.2-1.2 0-.5.5-.7.9-1.2 1.2-.9 2.8-1.9 4.2-2.1.9 0 1.9.2 2.6.7.9.7 1.4 2.3 1.4 3.5v5.8c0 1.4.5 1.9.9 1.9s.7-.2.9-.2l.2.7-2.2.7zm-2.3-7.7c-.7.2-2.1.9-2.8 1.2-1.2.5-1.9.9-1.9 2.3s.7 2.3 2.1 2.3c.9 0 1.9-.5 2.6-.9v-4.9zm11.9 7.5c-.5.2-.7.2-1.2.5-2.1 0-3-1.2-3-3.5v-8.8h-2.1v-.2l.7-.9h1.4v-2.6c.5-.5 1.4-1.2 2.1-2.1h.5v4.4h3.5c.2.5.2.9-.2 1.2h-3.2v7.7c0 2.6.9 2.8 1.9 2.8.7 0 1.2-.2 1.9-.5l.2.7-2.5 1.3zm3.2 0v-.7c2.1-.2 2.1-.2 2.1-2.6v-6.3c0-1.9 0-2.1-2.1-2.3v-.7c1.4-.2 3-.7 4.2-1.2v10.2c0 2.1.2 2.3 2.3 2.6v.7l-6.5.3zm3-16.5c-.7 0-1.4-.7-1.4-1.4 0-.9.7-1.4 1.4-1.9.7 0 1.4.7 1.4 1.4.2 1.2-.5 1.9-1.4 1.9zm11.6 3c3.5 0 6.5 2.8 6.5 6.3v.2c.2 3.7-2.6 7-6.3 7.2h-.2c-3.7 0-6.5-2.8-6.7-6.5v-.2c0-3.7 2.8-6.8 6.7-7zm-.2.9c-1.9 0-3.5 1.9-3.5 5.3s1.9 6.5 4.2 6.5c1.9 0 3.5-1.2 3.5-5.6-.3-3.4-1.7-6.2-4.2-6.2zm17.1 12.6v-.7c1.9-.2 2.1-.5 2.1-2.6v-4.9c0-2.1-.7-3.5-2.8-3.5-1.2.2-2.6.7-3.2 1.9v7c0 2.1.2 2.3 2.1 2.3v.7h-6.5v-.7c2.1-.2 2.3-.2 2.3-2.3v-6.3c0-2.1-.2-2.1-1.9-2.3v-.7c1.4-.2 2.8-.5 4.2-1.2v2.6l2.1-1.4c.7-.5 1.4-.7 2.6-.9 2.6 0 3.9 1.9 3.9 4.6v5.8c0 2.1.2 2.3 2.1 2.3v.5l-7-.2zm29.3-1c-1.4.2-3 .5-4.4.9V234c-1.2 1.2-2.8 2.1-4.4 2.3-2.1 0-3.7-1.2-3.7-4.4v-5.8c0-1.4-.2-1.9-.9-2.1l-.7-.2v-.7c1.4 0 3-.2 4.2-.5v8.4c0 2.6 1.4 3.5 2.8 3.5s2.6-.5 3.2-1.4v-7c0-1.4-.2-1.9-1.4-2.1h-.9v-.7c1.4 0 3.2-.2 4.6-.5v10c0 1.4.2 1.9 1.4 1.9h.7l-.5.7zm1.4 1v-.7c2.1-.2 2.3-.2 2.3-2.3v-14.1c0-1.9-.2-2.1-2.1-2.3v-.9c1.4-.2 3-.5 4.4-.9v18.3c0 2.1.2 2.3 2.3 2.3v.7h-6.9v-.1zm7.8 0v-.7c2.1-.2 2.3-.2 2.3-2.3v-14.1c0-1.9-.2-2.1-2.1-2.3v-.9c1.4-.2 3-.5 4.4-.9v18.3c0 2.1.2 2.3 2.3 2.3v.7h-6.9v-.1zm17.4.2c-.5 0-.9-.2-1.4-.5-.2-.5-.5-.7-.7-1.2-.9.9-2.3 1.4-3.5 2.1-2.1 0-3.7-1.9-3.7-3.7 0-1.4.9-2.8 2.6-3 1.9-.5 3.2-.9 4.6-2.1v-.5c0-2.3-.9-3.2-2.8-3.2-.5 0-.9.2-1.4.7-.2.5-.7 1.2-.7 2.1 0 .5-.5.7-.9.7-.7 0-1.2-.5-1.2-1.2 0-.5.5-.7.9-1.2 1.2-.9 2.8-1.9 4.2-2.1.9 0 1.9.2 2.6.7.9.7 1.4 2.3 1.4 3.5v5.8c0 1.4.5 1.9.9 1.9s.7-.2.9-.2l.2.7-2 .7zm-2-7.7c-.7.2-2.1.9-2.8 1.2-1.2.5-1.9.9-1.9 2.3s.7 2.3 2.1 2.3c.9 0 1.9-.5 2.6-.9v-4.9zm22.5 7.5v-.7c1.9-.2 2.1-.2 2.1-2.6v-4.9c0-2.3-.7-3.5-2.6-3.5-1.2 0-2.6.7-3.2 1.4v7c0 2.1.2 2.1 2.1 2.3v.9h-6.5v-.7c2.1-.2 2.3-.2 2.3-2.3V228c0-2.3-.7-3.5-2.6-3.5-1.2.2-2.6.7-3.2 1.4v7c0 2.1.2 2.1 2.1 2.3v.7h-6.5v-.7c2.1-.2 2.3-.2 2.3-2.3v-6.3c0-2.1-.2-2.1-1.9-2.3v-.7c1.4-.2 2.8-.5 4.2-1.2v2.6l2.3-1.4c.7-.5 1.4-.7 2.3-.7 1.4 0 2.8.9 3.2 2.6.7-.7 1.4-1.2 2.3-1.9.7-.5 1.4-.7 2.6-.7 2.3 0 3.7 1.9 3.7 4.6v5.8c0 2.1.2 2.1 2.1 2.3v.7l-7.1.1zm19.2-2.6c-1.2 1.9-3 2.8-5.3 3-3.2 0-6-2.8-6-6v-.2c0-2.3.9-4.4 3-6 1.2-.9 3-1.9 4.4-1.9.9 0 2.1.2 2.8.7.2.2.5.5.5.9 0 .7-.5 1.2-.9 1.2-.2 0-.2 0-.5-.2-.7-.7-2.1-1.2-3-1.2-2.1 0-3.7 1.9-3.7 4.6-.2 2.8 1.9 5.3 4.4 5.6h.2c1.4 0 2.8-.5 3.7-1.9l.4 1.4zm8.1-10.9c3.5 0 6.5 2.8 6.5 6.3v.2c.2 3.7-2.6 7-6.3 7.2h-.2c-3.7 0-6.5-2.8-6.7-6.5v-.2c0-3.7 2.8-6.8 6.7-7zm-.4.9c-1.9 0-3.5 1.9-3.5 5.3s1.9 6.5 4.2 6.5c1.9 0 3.5-1.2 3.5-5.6-.1-3.4-1.5-6.2-4.2-6.2zm15.5 12.6h-7v-.7c2.1-.2 2.1-.2 2.1-2.3v-6.3c0-2.1 0-2.1-1.9-2.3v-.7c1.4-.2 3-.7 4.2-1.2v3.2c.9-1.4 2.3-3.2 3.7-3.2.7 0 1.9.5 1.9 1.2s-.5 1.2-.9 1.9c-.2.2-.5.2-.7 0-.2-.5-.7-.7-1.2-.7s-1.9.9-2.6 2.6v5.6c0 2.1.2 2.3 2.6 2.3v.7h-.2zm4.9-12.6c1.4-.2 3-.7 4.2-1.2v2.3l2.6-1.4c.5-.2 1.2-.5 1.9-.5 3 0 5.3 2.6 5.3 5.6v.2c-.2 4.2-3.2 7.7-7.4 8.1-.7 0-1.4-.2-2.1-.5v3.9c0 2.3.2 2.6 2.6 2.6v.9h-7v-.7c2.1-.2 2.3-.2 2.3-2.3v-13.7c0-1.9 0-2.1-2.1-2.3l-.3-1zM579 234c.7.7 1.9 1.2 2.8 1.2 2.6 0 4.2-2.3 4.2-5.6 0-3.2-2.1-4.9-3.9-4.9-1.2 0-2.3.5-3 1.2v8.1zm22.9-.2c-1.2 1.9-3 2.8-4.9 3-3.2 0-6-2.8-6-6v-.2c0-2.1.7-3.7 2.1-5.3.9-1.2 2.8-2.3 4.4-2.3 2.6 0 4.4 2.1 4.4 4.6 0 .5-.2.9-.5.9-.2 0-4.4.2-7.9.5 0 3.9 2.3 5.8 4.4 5.8 1.2 0 2.6-.5 3.5-1.4l.5.4zm-5.3-10c-1.4 0-2.8 1.2-3.2 3.7h5.3c.5 0 .7-.2.7-.5.2-1.4-.9-3-2.6-3 0-.2 0-.2-.2-.2zm14.1 12.6h-7v-.7c2.1-.2 2.1-.2 2.1-2.3v-6.3c0-2.1 0-2.1-1.9-2.3v-.7c1.4-.2 2.8-.7 4.2-1.2v3.2c.9-1.4 2.3-3.2 3.7-3.2.7 0 1.9.5 1.9 1.2s-.5 1.2-.9 1.9c-.2.2-.5.2-.7 0-.2-.5-.7-.7-1.2-.7s-1.9.9-2.6 2.6v5.6c0 2.1.2 2.3 2.6 2.3v.7h-.2zm19-9.6c-.5-1.9-1.2-3-3.2-3-.9 0-1.9.7-1.9 1.9v.2c0 1.2.9 2.1 2.6 2.8 2.6 1.2 3.7 2.3 3.7 3.9-.2 2.6-2.3 4.2-4.6 4.2h-.3c-1.2 0-2.6-.2-3.5-.7-.2-.9-.5-2.6-.5-3.5l.9-.2c.5 2.1 1.4 3.5 3.7 3.5.9 0 2.1-.7 2.3-1.9v-.2c0-1.2-.7-2.1-2.6-2.8-2.1-.9-3.7-2.1-3.7-4.2.2-2.3 2.3-3.9 4.4-3.9h.2c.9 0 2.1.2 2.8.5 0 .7.2 2.6.5 3.2l-.8.2zm17.4 8.6c-1.4.2-3 .5-4.4.9V234c-1.2 1.2-2.8 2.1-4.4 2.3-2.1 0-3.7-1.2-3.7-4.4v-5.8c0-1.4-.2-1.9-.9-2.1l-.7-.2v-.7c1.4 0 2.8-.2 4.2-.5v8.4c0 2.6 1.2 3.5 2.8 3.5 1.2 0 2.3-.5 3.2-1.4v-7c0-1.4-.2-1.9-1.2-2.1h-.9v-.7c1.4 0 3.2-.2 4.6-.5v10c0 1.4.2 1.9 1.2 1.9h.7l-.5.7zm9.1-8.6c-.5-1.9-1.2-3-3.2-3-.9 0-1.9.7-1.9 1.9v.2c0 1.2.7 2.1 2.6 2.8 2.6 1.2 3.7 2.3 3.7 3.9-.2 2.6-2.3 4.2-4.6 4.2h-.2c-1.2 0-2.6-.2-3.5-.7-.2-.9-.5-2.6-.5-3.5l.9-.2c.5 2.1 1.4 3.5 3.7 3.5.9 0 2.1-.7 2.1-2.1v-.2c0-1.2-.7-2.1-2.6-2.8-2.1-.9-3.7-2.1-3.7-4.2.2-2.3 2.3-3.9 4.4-3.9h.2c.9 0 2.1.2 2.8.5 0 .7.2 2.6.5 3.2l-.7.4zm14.8 7c-1.2 1.9-3 2.8-4.9 3-3.2 0-6-2.8-6-6v-.2c0-2.3.9-4.4 3-6 1.2-.9 3-1.9 4.4-1.9.9 0 2.1.2 2.8.7.2.2.5.5.5.9 0 .7-.5 1.2-.9 1.2-.2 0-.2 0-.5-.2-.7-.7-2.1-1.2-3-1.2-2.1 0-3.7 1.9-3.7 4.6-.2 2.8 1.9 5.3 4.4 5.6h.2c1.4 0 2.8-.5 3.7-1.9v1.4zm1.7 2.6v-.7c2.1-.2 2.1-.2 2.1-2.6v-6.3c0-1.9 0-2.1-2.1-2.3v-.7c1.4-.2 3-.7 4.2-1.2v10.2c0 2.1.2 2.3 2.3 2.6v.7l-6.5.3zm3-16.5c-.7 0-1.4-.7-1.4-1.4 0-.9.7-1.4 1.4-1.9.7 0 1.4.7 1.4 1.4.2 1.2-.5 1.9-1.4 1.9zm4.6 3.9c1.4-.2 3-.7 4.2-1.2v2.3l2.6-1.4c.5-.2 1.2-.5 1.9-.5 3 0 5.3 2.6 5.3 5.6v.2c-.2 4.2-3.2 7.7-7.4 8.1-.7 0-1.4-.2-2.3-.5v3.9c0 2.3.2 2.6 2.6 2.6v.9h-7v-.7c2.1-.2 2.3-.2 2.3-2.3v-13.7c0-1.9 0-2.1-2.1-2.3l-.1-1zM685 234c.7.7 1.9 1.2 2.8 1.2 2.6 0 4.2-2.3 4.2-5.6 0-3.2-2.1-4.9-3.9-4.9-1.2.2-2.3.5-3 1.2v8.1zm11.3 2.4v-.7c2.1-.2 2.1-.2 2.1-2.6v-6.3c0-1.9 0-2.1-2.1-2.3v-.7c1.4-.2 3-.7 4.2-1.2v10.2c0 2.1.2 2.3 2.3 2.6v.7l-6.5.3zm3.3-16.5c-.7 0-1.4-.7-1.4-1.4 0-.9.7-1.4 1.4-1.9.7 0 1.4.7 1.4 1.4 0 1.2-.5 1.9-1.4 1.9zm10.6 16.5c-.5.2-.7.2-1.2.5-2.1 0-3-1.2-3-3.5v-8.8h-2v-.2l.7-.9h1.2v-2.6c.5-.5 1.4-1.2 2.1-2.1h.5v4.4h3.5c.2.5.2.9-.2 1.2h-3.5v7.7c0 2.6.9 2.8 1.9 2.8.7 0 1.2-.2 1.9-.5l.2.7-2.1 1.3zm9.8 0v-.7c2.1-.2 2.3-.2 2.3-2.3v-14.1c0-1.9-.2-2.1-2.1-2.3v-.9c1.4-.2 3-.5 4.4-.9v18.3c0 2.1.2 2.3 2.3 2.3v.7H720zm14.8-13.5c3.5 0 6.5 2.8 6.5 6.3v.5c.2 3.7-2.6 7-6.3 7.2h-.2c-3.7 0-6.5-2.8-6.7-6.5v-.2c-.2-4 2.8-7.1 6.7-7.3-.2 0 0 0 0 0zm-.4.9c-1.9 0-3.5 1.9-3.5 5.3s1.9 6.5 3.9 6.5c1.9 0 3.5-1.2 3.5-5.6.2-3.4-1.2-6.2-3.9-6.2zm15-.7c.5-.2.7-.2 1.2-.2 3.5 0 6 3 6 6.3 0 4.2-3.2 7.4-7.4 7.4-1.4 0-3.2-.5-4.6-.9V219c0-1.9 0-2.1-2.1-2.3v-.7c1.4-.2 3-.5 4.4-.9v9.5l2.5-1.5zm-2.3 9.5c0 .2 0 .7.2.9.7.9 1.9 1.9 3 1.4 2.6 0 3.7-2.3 3.7-5.6.2-2.8-1.4-4.9-4.2-5.6h-.2c-.7 0-1.9.2-2.6.5v8.4zm18.6-9.7c3.5 0 6.5 2.8 6.5 6.3v.5c.2 3.7-2.6 7-6.3 7.2h-.2c-3.7 0-6.5-2.8-6.7-6.5v-.2c-.1-4 2.7-7.1 6.7-7.3zm-.3.9c-1.9 0-3.5 1.9-3.5 5.3s1.9 6.5 3.9 6.5c2.1 0 3.5-1.2 3.5-5.6.1-3.4-1.3-6.2-3.9-6.2zm15.8 12.6h-7v-.7c2.1-.2 2.1-.2 2.1-2.3v-6.3c0-2.1 0-2.1-2.1-2.3v-.7c1.4-.2 3-.7 4.2-1.2v3.2c.9-1.4 2.3-3.2 3.7-3.2.7 0 1.4.5 1.9 1.2 0 .7-.5 1.2-.9 1.9-.2.2-.5.2-.7 0-.2-.5-.7-.7-1.2-.7s-1.9.9-2.6 2.6v5.6c0 2.1.2 2.3 2.6 2.3v.6zm10.7 0c-.5.2-.7.2-1.2.5-2.1 0-3-1.2-3-3.5v-8.8h-2.3v-.2l.7-.9h1.2v-2.6c.5-.5 1.4-1.2 2.1-2.1h.5v4.4h3.5c.2.5.2.9-.2 1.2H790v7.7c0 2.6.9 2.8 1.9 2.8.7 0 1.2-.2 1.9-.5l.2.7-2.1 1.3zm5.8.4c-.9 0-1.9-.7-1.9-1.9v-.2c0-.9.7-1.9 1.9-2.1h.2c.9 0 1.9.7 2.1 1.9-.2 1.2-.9 2.1-2.3 2.3z" class="st1"/></g></g></svg>