<svg xmlns="http://www.w3.org/2000/svg" id="Layer_1" viewBox="0 0 800 124.9" width="800" height="124.9"><style>.st0{fill:none;stroke:#00aeff;stroke-width:1.1458;stroke-miterlimit:10}</style><g id="b877493d-9141-4efa-b2d7-eb65f1c4ce25"><g id="ac78315b-56e4-4e19-bb15-0a221950f9bf"><path d="M0 123.1h800M0 72.2h800" class="st0"/><path d="M26.8 123.1v-3.2c12.4-.7 13.1-1.4 13.1-9.6V67.4c0-5.7-.7-6-5.7-6.4l-5.5-.5v-2.7c6.9-.9 13.7-2.7 20.4-5.5v58c0 8.5.7 8.9 13.1 9.6v3.2H26.8zm120.1-14.9c-1.4 5-3.4 10.8-4.6 14.9h-41.9v-2.7c6.2-6 12.8-12.6 18.3-19 7.1-8.2 13.7-17.2 13.7-26.8 0-9.2-4.8-14.7-13.1-14.7-7.8 0-12.6 6-15.4 10.3l-2.5-2.3 6.4-9.2c3.9-4.4 9.4-6.6 15.4-6.6 10.5 0 19 7.3 19 19.2 0 9.4-3.4 16.3-14 27-4.8 5-11.9 11.9-16.5 16.5H133c6 0 7.8-.5 11.5-7.6.1.1 2.4 1 2.4 1zm36-42.6l5.3-7.1c3.7-4.1 8.9-6.4 14.4-6.4 10.1 0 16.7 6.4 16.7 14.9 0 3-1.4 6-3.4 8.2-2.5 2.3-5 4.4-7.8 6 10.3 2.3 16.5 8.9 16.5 17.2 0 18.1-21.3 25.9-29.3 25.9-4.1 0-8.2-1.4-11.7-3.9-1.1-.9-1.6-2.3-1.6-3.7.2-1.6 1.1-3.2 2.5-4.1.9-.7 2.1-.7 3 0 3.7 3.7 8.5 5.7 13.7 6 8 0 13.7-6 13.7-16.7 0-10.3-7.6-14.2-14.7-14.2-2.5 0-5 .5-7.6 1.1l-.7-3.4c9.9-3.2 17.9-7.8 17.9-16 0-6.6-4.1-10.3-10.8-10.3s-11 4.6-14 8.7c.2-.2-2.1-2.2-2.1-2.2zm114.3 37.1v8.5c0 7.3.5 8 8.2 8.7v3.2h-25.9v-3.2c8.5-.7 8.9-1.4 8.9-8.7v-8.5H259v-3.4c10.5-15.1 22-31.4 33.2-46.7h5v44.9h11v5.3h-11zm-8.7-38.3c-7.1 10.3-14.9 21.5-22.5 33.2h22.5V64.4zm93.7-10.8l.7.9-3 7.3h-25.7c-.9 6.2-2.5 14.9-3.4 20.4 4.1-1.6 8.7-2.7 13.1-3.2 13.7 0 20.9 9.6 20.9 19 0 7.3-3.7 14.4-9.6 18.8-5.5 4.6-12.6 7.3-19.7 7.8-4.4 0-8.5-1.4-11.7-4.4-1.6-1.4-2.1-2.3-1.8-3.9.2-1.6 1.1-3 2.3-3.9.9-.9 2.3-.9 3.2 0 3.7 3.9 8.7 6 14 6.2 9.4 0 13.7-8 13.7-16.5 0-9.9-6-16.7-18.3-16.7-3.9 0-7.6.7-11.2 2.1l-.2-.5c1.6-8.7 4.1-24.5 5.3-33.2l31.4-.2zM440 81.1c2.3-1.1 4.6-1.8 7.1-1.8 11 0 19.9 8.7 19.9 19.7v.9c0 13.3-9.6 24.7-22.9 24.7s-23.1-10.8-23.1-28c0-22.9 17.4-37.4 30.9-41.9 4.1-1.1 8.2-2.3 12.6-3l.7 3.7c-4.1.9-8.2 2.1-12.1 3.9-10.5 4.8-18.3 14.4-20.4 25.7l7.3-3.9zm2.7 4.4c-3.9 0-7.6 1.1-10.8 3.2-.5 2.5-.7 5-.7 7.6 0 14 5.3 24.3 14.7 24.3 8.7 0 11.5-9.2 11.5-16.5-.2-9.7-4.6-18.6-14.7-18.6zm105.5-30.3c-10.8 22.7-21.1 45.1-31.9 68.3l-8 .7-.7-1.1c11.9-19.7 22.9-40.1 32.5-61h-23.8c-7.3 0-7.8.9-10.8 8.2h-3.4c1.1-6.2 1.6-11.9 2.1-16.5h43.3l.7 1.4zm56.6-2.9c10.8 0 18.1 7.6 18.1 16.5 0 3.2-.9 6.4-3.2 8.9-3 2.5-6 5-9.2 7.1 7.8 4.1 15.4 9.6 15.4 19.2 0 13.1-11.9 20.2-22.5 20.2-12.4 0-21.5-7.1-21.5-18.3-.2-4.4 1.8-8.5 5-11s6.6-4.8 10.1-6.9c-7.3-4.1-12.4-9.6-12.4-17.4.2-9.9 8-18.3 20.2-18.3zm0 68.3c7.6 0 12.1-4.8 12.1-13.1 0-8.9-7.6-13.3-16.5-17.6-5.7 3-9.4 8.9-9.4 15.4 0 10.2 6.4 15.3 13.8 15.3zm-1.4-64.7c-6.6 0-10.1 5.3-10.1 11.5 0 8.2 5.5 11.2 14.2 15.8 4.6-3 7.3-8.2 7.3-13.7 0-9.4-5.7-13.6-11.4-13.6zm92.1 34.9l-7.6 3.9c-2.1 1.1-4.4 1.6-6.6 1.6-11.9 0-20.2-9.2-20.2-20.9 0-12.6 10.1-22.9 22.7-23.1h.2c14.4 0 22.5 12.6 22.5 28 .2 18.3-11 35.1-28.2 41.7-4.4 1.6-8.7 2.5-13.3 3l-.9-3.2c16-2.6 28.7-15.2 31.4-31zm-12.8-34.6c-8.7 0-11.7 8.2-11.7 16 0 9.9 5.5 17.9 14.9 17.9 3.7 0 7.1-1.1 10.1-3.2.2-2.3.5-4.8.5-7.3-.1-9.9-3.1-23.4-13.8-23.4zm81.3-3.9c16.7 0 22.9 18.8 22.9 36 0 16.3-6.2 36.2-22.9 36.2s-23.4-18.3-23.4-36c.3-16.3 6.5-36.2 23.4-36.2zm0 3.9c-10.3 0-12.8 16.3-12.8 32.1s3.2 32.3 12.8 32.3c9.6 0 12.8-16.7 12.8-32.3s-2.7-32.1-12.8-32.1zM11.5 19h7.8l-.3 2.1H9.2v-19h2.3V19zM25.2 1.4c0 .9-.9 1.6-1.8 1.4-.7 0-1.4-.7-1.4-1.4 0-.9.9-1.6 1.8-1.4.7 0 1.4.7 1.4 1.4zm-.5 19.7h-2.3V6.7h2.3v14.4zm16.1-10.3v10.3h-2.3V11c0-2.3-.9-3-2.3-3-1.6 0-3.2 1.1-3.9 2.7V21H30V6.7h2.1l.2 2.3c.9-1.6 2.7-2.5 4.6-2.5 2.1 0 3.9 1.6 3.9 3.9v.4zm7.8-9.4c0 .9-.9 1.6-1.8 1.4-.7 0-1.4-.7-1.4-1.4 0-.9.9-1.6 1.8-1.4.9 0 1.4.7 1.4 1.4zm-.5 19.7h-2.3V6.7h2.3v14.4zm16.3-10.3v10.3h-2.3V11c0-2.3-.9-3-2.3-3-1.6 0-3.2 1.1-3.9 2.7V21h-2.3V6.7h2.1l.2 2.3c.9-1.6 2.7-2.5 4.6-2.5 2.1 0 3.9 1.6 3.9 3.9v.4zm16.5-3.7c-1.4.2-2.7.5-4.1.5 1.6.5 2.5 2.1 2.5 3.7 0 2.7-2.1 4.8-4.8 4.8h-.7c-.7 0-1.1 0-1.8-.2-.5.2-.7.9-.9 1.4 0 .7.5 1.1 2.1 1.1h2.3c3 0 4.8 1.6 4.8 3.9 0 2.7-2.3 4.4-6.6 4.4s-6.2-1.4-6.2-4.4h2.1c0 1.8.9 2.5 4.1 2.5s4.4-.9 4.4-2.3-1.1-2.1-3-2.1h-2.3c-2.5 0-3.7-1.4-3.7-2.7 0-1.1.7-2.1 1.6-2.5-1.6-.7-2.5-2.3-2.5-4.1 0-2.7 2.3-5 5-5h.5c2.3.2 4.6-.2 6.6-1.4-.1-.1.6 2.4.6 2.4zm-10.3 4.2c-.2 1.6.9 3.2 2.7 3.4h.5c1.6.2 3-1.1 3.2-2.7v-.7c.2-1.6-.9-3-2.5-3.2h-.7c-1.6 0-3 1.1-3.2 2.7v.5zm29.3-9.7L99 3.2c-.9-.5-2.1-.7-3.2-.7-2.1 0-2.5.7-2.5 2.3v1.8h8V21H99V8.5h-5.7v12.6H91V8.5h-2.3V6.7H91V4.6C91 2.3 92.4.5 95.8.5c1.4 0 2.7.4 4.1 1.1zm18.3 5.5c-1.4.2-2.7.5-4.1.5 1.6.5 2.5 2.1 2.5 3.7 0 2.7-2.1 4.8-4.8 4.8h-.7c-.7 0-1.1 0-1.8-.2-.5.2-.7.9-.7 1.4 0 .7.5 1.1 2.1 1.1h2.3c3 0 4.8 1.6 4.8 3.9 0 2.7-2.3 4.4-6.6 4.4s-6.2-1.4-6.2-4.4h2.1c0 1.8.9 2.5 4.1 2.5s4.4-.9 4.4-2.3-1.1-2.3-3-2.3h-2.3c-2.5 0-3.7-1.4-3.7-2.7 0-1.1.7-2.1 1.6-2.5-1.8-.2-2.7-1.8-2.7-3.7 0-2.7 2.3-5 5-5h.5c2.3.2 4.6-.2 6.6-1.1 0-.1.6 1.9.6 1.9zm-10.5 4.2c-.2 1.6.9 3.2 2.7 3.4h.5c1.6.2 3-1.1 3.2-2.7v-.7c.2-1.6-.9-3-2.5-3.2h-.7c-1.6-.2-3 .9-3.2 2.7v.5zm23.6 9.8h-2.1l-.2-2.3c-.9 1.6-2.7 2.7-4.6 2.7-2.1 0-3.9-1.6-4.1-3.7V6.7h2.3v10.1c0 2.1.7 2.7 2.3 2.7 1.6-.2 3-1.1 3.9-2.5V6.7h2.3l.2 14.4zm12.8-14.7l-.5 2.3c-.5-.2-.9-.2-1.1-.2-1.8 0-3 1.4-3.4 4.1v8.5h-2.3V6.7h2.1l.2 3c.5-1.8 2.1-3.2 3.9-3.4.2-.1.7.1 1.1.1zm13.1 8.3h-9.4c.2 3.4 1.8 4.8 4.1 4.8 1.4 0 2.7-.5 3.9-1.4l.9 1.4c-1.4 1.1-3.2 1.8-5 1.8-4.1 0-6.4-3-6.4-7.6s2.3-7.6 6-7.6 6 2.7 6 7.1v1.5zm-2.3-2.1c0-3-1.1-4.6-3.7-4.6-2.1 0-3.4 1.4-3.7 4.8l7.4-.2zM170 8l-.9 1.4c-1.1-.9-2.3-1.1-3.7-1.1-1.6 0-2.7.7-2.7 2.1 0 1.4.7 1.8 3.2 2.3 3 .7 4.8 1.8 4.8 4.6 0 3-2.7 4.4-5.5 4.4-2.1 0-3.9-.7-5.3-1.8l1.1-1.4c1.1.9 2.5 1.4 4.1 1.4 2.1 0 3.2-.9 3.2-2.3s-1.1-2.3-3.9-3-4.4-2.1-4.4-4.1 2.3-3.9 5-3.9c2.1-.4 3.7.3 5 1.4z"/></g></g></svg>