<svg xmlns="http://www.w3.org/2000/svg" id="Layer_1" viewBox="0 0 800 246.1" width="800" height="246.1"><style>.st0{fill:#231f20}.st1{fill:none;stroke:#2997ff;stroke-width:1.0582}</style><g id="aaf5b6a1-7fe4-482d-8636-59a079cc0de8"><g id="fadbfcca-17e3-4311-9fef-9dbd75e34325"><path d="M221.8 27.3c4.3.9 6.9 4 6.9 7.6 0 8.5-9.9 12.1-12.8 12.1-1.6 0-3.2-.6-4.4-1.6-.7-.4-1-1.3-.6-2.1.2-.5.6-1 1.1-1.4.4-.3 1-.3 1.4.1 1.5 1.3 3.4 2 5.3 2.1 3.1 0 5.7-2.6 5.7-7.4 0-4.5-3.1-6.4-6-6.4-1.1 0-2.1.2-3.1.5l-.4-1.5c4.8-1.9 7.5-4.1 7.5-7.3 0-2.9-1.9-4.3-4.2-4.3-2.2 0-3.8 1.5-5.2 3.3l-1-1 2.1-2.9c1.5-1.6 3.5-2.5 5.7-2.5 4.1 0 6.8 2.6 6.8 6.5 0 1.4-.6 2.6-1.6 3.6-1 .9-2 1.8-3.2 2.5v.1zm12 11.1V37l2.9-.4c1.7-.2 2-.7 2-3.3V21.5c0-2.7-.3-3.2-2.1-3.3l-3.2-.2v-1.3c3.2-.5 6.4-1.3 9.5-2.2v18.9c0 2.6.3 3.1 2 3.3l2.9.4v1.4h-14zM269.9 14c0 1.4-.5 2.8-1.5 3.9-1.1 1.2-2.4 2.3-3.7 3.2 3.3 2.1 6.5 4.2 6.5 8.7 0 6.1-5.6 9.2-10 9.2-5.4 0-9.5-3.1-9.5-8.5 0-1.9.8-3.7 2.2-4.9 1.4-1.2 2.8-2.3 4.4-3.3-3-1.7-5.3-3.9-5.3-7.8.1-4.7 4.1-8.4 8.8-8.3h.1c4.7.2 8 3.5 8 7.8zM267 31.2c-.1-3.9-3.5-5.9-7.2-7.9-2.6 1.8-4 4.3-4 6.9 0 4.5 3.1 7.1 6 7.1 2.8 0 5.2-2 5.2-6.1zm-10.1-18c0 3.8 3 5.4 6.4 7.1 1.9-1.5 2.9-3.9 2.8-6.3 0-4.1-2.6-5.9-4.6-5.9-3 0-4.6 2.7-4.6 5.1zM278.7 25c6 .2 12.8 2.3 12.8 9.8-.1 3.4-1.8 6.5-4.6 8.4-3.4 2.4-7.4 3.7-11.6 3.9l-.2-1.6c2.4-.4 12.1-2.3 12.1-9.8 0-5.6-5.9-6.9-11.1-6.9l2-13 13.4-1.1-.7 3.9-11 1-1.1 5.4zm18.9 11c0-1.6 1.3-3 3-3s3 1.3 3 3c0 1.6-1.3 3-3 3s-3-1.4-3-3zm29.9 2.4h-18.8v-1.2c4.8-3.5 12.3-8.8 12.3-14.3 0-2.6-1.4-5-4.8-5-2.9 0-4.9 2.8-6 4.2L309 21l2.6-3.8c1.6-1.7 3.8-2.7 6.2-2.7 4.8 0 7.7 3.3 7.7 7.4 0 3-1.8 5.2-3.7 6.9-1.6 1.6-3.9 3.5-6.9 5.9v.1h8.5c2.4 0 3-.5 4.1-2.8l1.4.2-1.4 6.2zm8.2-13.4c6 .2 12.8 2.3 12.8 9.8-.1 3.4-1.8 6.5-4.6 8.4-3.4 2.4-7.4 3.7-11.6 3.9l-.2-1.6c2.4-.4 12-2.3 12-9.8 0-5.6-5.9-6.9-11.1-6.9l2-13 13.4-1.1-.7 3.9-11 .9-1 5.5zm-103 46.5c-6.5 1.4-12.5 5.9-14.8 12.6l3.1-1.3c1.1-.5 2.2-.8 3.3-1 5 0 9 3.6 9 9.5 0 6.4-4.6 11.2-10.7 11.2-5.1 0-10.3-3.9-10.3-12.5 0-8.8 6.1-15.3 13.3-18.3 2.2-.9 4.4-1.5 6.7-1.8l.4 1.6zm-15.2 14.4c-.3 1.2-.5 2.5-.4 3.8 0 6.9 3 10.9 6.6 10.9 2.6 0 5.2-1.8 5.2-6.9 0-4-1.5-8.9-7.2-8.9-1.5 0-2.9.4-4.2 1.1zm38.2 15.9h-18.8v-1.2c4.8-3.5 12.3-8.8 12.3-14.3 0-2.6-1.4-5-4.8-5-2.9 0-4.9 2.8-6 4.2l-1.2-1 2.6-3.8c1.6-1.7 3.8-2.7 6.2-2.7 4.8 0 7.7 3.3 7.7 7.4 0 3-1.8 5.2-3.7 6.9-1.6 1.6-3.9 3.5-6.9 5.9v.1h8.5c2.4 0 3-.5 4.1-2.8l1.4.2-1.4 6.1zm25.8-30.3C275 72.9 269 77.3 266.7 84l3.1-1.3c1.1-.5 2.2-.8 3.3-1 5 0 9 3.6 9 9.5 0 6.4-4.6 11.2-10.7 11.2-5.1 0-10.3-3.9-10.3-12.5 0-8.8 6.1-15.3 13.3-18.3 2.2-.9 4.4-1.5 6.7-1.8l.4 1.7zm-15.2 14.4c-.3 1.2-.5 2.5-.4 3.8 0 6.9 3 10.9 6.6 10.9 2.6 0 5.2-1.8 5.2-6.9 0-4-1.5-8.9-7.2-8.9-1.5 0-2.9.4-4.2 1.1zm42 14h-4.5v10.2h-4.1V99.9H286V98c5.2-6.8 10.4-13.7 15.6-20.1h2.2v19h5l-.5 3zm-8.6-16.6h-.1c-3.7 4.9-6.7 8.9-10.1 13.6h10.2V83.3zm13.2 16.1c0-1.6 1.3-3 3-3 1.6 0 3 1.3 3 3 0 1.6-1.3 3-3 3s-3-1.4-3-3zm14.5-11c6 .2 12.8 2.3 12.8 9.8-.1 3.4-1.8 6.4-4.6 8.4-3.4 2.4-7.4 3.7-11.6 3.9l-.2-1.6c2.4-.4 12-2.3 12-9.8 0-5.5-5.9-6.9-11.1-6.9l2-13 13.4-1.1-.7 3.9-11 .9-1 5.5zm40.6 1.8c0 8-5.8 12.3-11.4 12.3-5.8 0-11.4-4.2-11.4-12.1S350.9 78 356.6 78c5.8-.1 11.4 4.1 11.4 12.2zm-18.6 0c0 5.8 3 9.9 7.3 9.9s7.2-4 7.2-9.9-3-9.9-7.3-9.9-7.2 4-7.2 9.9zm-116.3 63.4c0 10.1-6.3 15.9-13.2 18.6-2.5 1-5.2 1.6-7.9 1.7l-.3-1.6c5.9-1.1 13.2-4.5 16-12.7l-2 .9c-1.3.7-2.8 1-4.3 1-4.9-.1-8.8-4.1-8.7-8.9v-.2c0-6.9 5.3-11 10.2-11 7.1-.1 10.2 6.1 10.2 12.2zm-15.9-3.2c0 5.7 3.5 8.2 7.1 8.2 1.3 0 2.6-.3 3.7-.9.3-1.3.5-2.6.4-3.9 0-3.5-1-10.7-6.3-10.7-2.8.1-4.9 3.2-4.9 7.3zm21.3 14.9v-1.4l2.9-.4c1.7-.2 2-.7 2-3.3v-11.9c0-2.7-.3-3.2-2.1-3.3l-3.2-.2v-1.3c3.2-.5 6.4-1.3 9.5-2.2v18.9c0 2.6.3 3.1 2 3.3l2.9.4v1.4h-14zm40.1-2h-4.5v10.2H270v-10.2h-13.7v-1.9c5.2-6.8 10.4-13.7 15.6-20.1h2.2v19h5l-.5 3zm-8.6-16.5c-3.7 4.9-6.8 8.9-10.1 13.6H270v-13.6zm33.4 6.8c0 10.1-6.3 15.9-13.2 18.6-2.5 1-5.2 1.6-7.9 1.7l-.3-1.6c5.9-1.1 13.2-4.5 16-12.7l-2 .9c-1.3.7-2.8 1-4.3 1-4.9-.1-8.8-4.1-8.7-8.9v-.2c0-6.9 5.3-11 10.2-11 7.1-.1 10.2 6.1 10.2 12.2zm-16-3.2c0 5.7 3.5 8.2 7.1 8.2 1.3 0 2.6-.3 3.7-.9.3-1.3.5-2.6.4-3.9 0-3.5-1-10.7-6.3-10.7-2.7.1-4.8 3.2-4.9 7.3zm21.7 12.4c-.1-1.6 1.2-3 2.8-3.1 1.6-.1 3 1.2 3.1 2.8v.3c.1 1.6-1.2 3-2.8 3.1-1.6.1-3-1.2-3.1-2.8v-.3zm31.3-20.3C338 147 331 160 324 173.1l-4 .7-.4-.6c6.1-8.8 11.7-17.9 16.7-27.4h-16.1v-3.9h19.9l.3.6zm6.9 9.3c6 .2 12.8 2.3 12.8 9.8-.1 3.4-1.8 6.4-4.6 8.4-3.4 2.4-7.4 3.7-11.6 3.9l-.2-1.6c2.4-.4 12-2.3 12-9.8 0-5.6-5.9-6.9-11.1-6.9l2-13 13.3-1.1-.7 3.9-11 1-.9 5.4zm-135 76.9v-1.4l2.9-.4c1.7-.2 2-.7 2-3.3v-11.8c0-2.7-.3-3.2-2.1-3.3l-3.2-.2V207c3.2-.5 6.4-1.3 9.5-2.2v18.9c0 2.6.3 3.1 2 3.3l2.9.4v1.4h-14zM253 217c0 8-5.8 12.3-11.4 12.3-5.8 0-11.4-4.2-11.4-12.1s5.7-12.5 11.4-12.5S253 209 253 217zm-18.7.1c0 5.8 3 9.9 7.3 9.9s7.2-4 7.2-9.9-3-9.9-7.3-9.9c-4.2-.1-7.2 4-7.2 9.9zm44.7 9.6h-4.5v10.2h-4.1v-10.2h-13.7v-1.9c5.2-6.8 10.4-13.7 15.6-20.1h2.2v19h5l-.5 3zm-8.6-16.5h-.1c-3.7 4.9-6.7 8.9-10.1 13.6h10.2v-13.6zm35.2 6.8c0 8-5.8 12.3-11.4 12.3-5.8 0-11.4-4.2-11.4-12.1 0-8 5.7-12.5 11.4-12.5s11.4 4.3 11.4 12.3zm-18.7.1c0 5.8 3 9.9 7.3 9.9s7.2-4 7.2-9.9-3-9.9-7.3-9.9-7.2 4-7.2 9.9zm24.4 9.2c0-1.6 1.3-3 3-3 1.6 0 3 1.3 3 3 0 1.6-1.3 3-3 3-1.7-.1-3-1.4-3-3zm34.4-9.3c0 8-5.8 12.3-11.4 12.3-5.8 0-11.4-4.2-11.4-12.1 0-8 5.7-12.5 11.4-12.5s11.4 4.3 11.4 12.3zm-18.7.1c0 5.8 3 9.9 7.3 9.9s7.2-4 7.2-9.9-3-9.9-7.3-9.9-7.2 4-7.2 9.9zm46.7-.1c0 8-5.8 12.3-11.4 12.3-5.8 0-11.4-4.2-11.4-12.1 0-8 5.7-12.5 11.4-12.5s11.4 4.3 11.4 12.3zm-18.7.1c0 5.8 3 9.9 7.3 9.9 4.4 0 7.2-4 7.2-9.9s-3-9.9-7.3-9.9-7.2 4-7.2 9.9zM647.8 27.3c4.3.7 6.9 4.1 6.9 7.7 0 8.5-10 12.1-12.9 12.1-1.6 0-3.2-.6-4.4-1.6-.6-.4-.9-1.3-.6-2 .2-.5.6-1 1.1-1.4.4-.3 1-.3 1.4.1 1.4 1.4 3.3 2.2 5.3 2.3 3 0 5.8-2.4 5.8-7.6 0-4.8-3.5-6.6-6-6.6-1 0-2.1.2-3.1.5l-.4-1.3c4.9-2 7.5-4.2 7.5-7.5 0-3.1-1.9-4.6-4.3-4.6s-4.1 2-5.2 3.5l-.9-1 2.3-3c1.5-1.6 3.5-2.5 5.7-2.4 4.1 0 6.8 2.7 6.8 6.6 0 1.3-.5 2.5-1.5 3.4-1 1-2.2 1.9-3.4 2.6l-.1.2zm16.5 11.1v-1.5l3.4-.3c2.4-.2 2.7-.7 2.7-3.3V21.6c0-2.7-.2-3.2-2.2-3.3l-3.3-.2v-1.4c3.3-.5 6.5-1.2 9.7-2.2v18.8c0 2.6.3 3.1 2.9 3.3l3.2.3v1.5h-16.4zM706.4 14c0 1.4-.5 2.7-1.4 3.8-1.2 1.2-2.5 2.4-3.9 3.4 3.3 2 6.6 4.2 6.6 8.7 0 6.1-5.6 9.3-10 9.3-5.4 0-9.6-3.1-9.6-8.5 0-1.9.8-3.7 2.2-4.9 1.4-1.2 3-2.3 4.5-3.2-3-1.6-5.5-4-5.5-7.7.2-4.7 4.1-8.5 8.9-8.4 4.8-.1 8.2 3.1 8.2 7.5zm-3 17.2c-.1-3.9-3.6-6-7.3-7.9-2.4 1.5-3.8 4.1-3.9 6.9 0 4.8 3 7.2 6 7.2s5.2-2 5.2-6.2zm-10.2-18.1c0 3.8 3.2 5.5 6.6 7.3 1.9-1.6 2.9-4 2.7-6.5 0-4.3-2.5-5.9-4.6-5.9-3.1 0-4.7 2.6-4.7 5.1zM718.3 25c6 .1 13.1 2.3 13.1 9.8 0 3.3-1.6 6.1-4.6 8.4-3.4 2.4-7.5 3.7-11.7 3.9l-.3-1.6c1.9-.3 12.1-2 12.1-9.8 0-5.8-6-6.9-11.2-7l2-13 13.5-1.1-.7 3.8-11.3 1-.9 5.6zm21.1 11c-.1-1.6 1.2-3 2.8-3.1 1.6-.1 3 1.2 3.1 2.8v.3c.1 1.6-1.2 3-2.8 3.1s-3-1.2-3.1-2.8V36zm31 2.4h-18.8v-1.1c4.6-3.4 12.4-8.6 12.4-14.4 0-2.6-1.4-5.2-5-5.2-2.9 0-4.9 2.9-6 4.3l-1.1-1 2.6-3.8c1.6-1.7 3.9-2.7 6.3-2.7 4.8 0 7.6 3.3 7.6 7.5 0 3-1.6 4.9-3.5 6.6-1.4 1.5-3.7 3.5-6.9 6.2v.1h8.5c2.5 0 3-.5 4.1-2.8l1.3.1-1.5 6.2zM781.7 25c6.1.1 13.1 2.3 13.1 9.8 0 3.3-1.6 6.1-4.6 8.4-3.4 2.4-7.5 3.7-11.7 3.9l-.2-1.6c1.8-.3 12.1-2 12.1-9.8 0-5.8-6-6.9-11.2-7l2-13 13.5-1.1-.7 3.8-11.3 1-1 5.6zM658.8 71.5c-6.4 1.4-12.4 5.9-14.8 12.6l3.1-1.3c1.1-.5 2.2-.8 3.3-1 5 0 9 3.6 9 9.5 0 6.4-4.6 11.2-10.7 11.2-5.1 0-10.3-3.9-10.3-12.5 0-8.8 6.1-15.3 13.3-18.3 2.2-.9 4.4-1.5 6.8-1.8l.3 1.6zm-15.2 14.4c-.3 1.2-.4 2.5-.4 3.8 0 6.9 2.9 10.9 6.6 10.9 2.6 0 5.2-1.8 5.2-6.9 0-4-1.5-8.9-7.2-8.9-1.5 0-2.9.4-4.2 1.1zm40.1 15.9h-18.9v-1.1c4.6-3.4 12.4-8.6 12.4-14.4 0-2.6-1.4-5.2-5-5.2-2.9 0-4.9 2.9-6 4.3l-1.1-1 2.6-3.8c1.6-1.7 3.9-2.7 6.3-2.7 4.8 0 7.6 3.3 7.6 7.5 0 3-1.6 4.9-3.5 6.6-1.4 1.5-3.8 3.5-7 6.2v.1h8.5c2.5 0 3-.5 4.1-2.8l1.3.1-1.3 6.2zm26.5-30.3c-6.4 1.4-12.5 5.9-14.8 12.6l3-1.3c1.1-.5 2.2-.8 3.3-1 5 0 9 3.6 9 9.5 0 6.4-4.6 11.2-10.7 11.2-5.1 0-10.3-3.9-10.3-12.5 0-8.8 6.1-15.3 13.3-18.3 2.2-.9 4.4-1.5 6.8-1.8l.4 1.6zm-15.3 14.4c-.3 1.2-.4 2.5-.4 3.8 0 6.9 2.9 10.9 6.5 10.9 2.6 0 5.2-1.8 5.2-6.9 0-4-1.5-8.9-7.2-8.9-1.4 0-2.8.4-4.1 1.1zm41.9 14h-4.4v10.2h-4.2V99.9h-13.5V98c4.9-6.5 10.4-13.9 15.5-20.1h2.2V97h5l-.6 2.9zm-8.6-16.6h-.1c-3.5 4.4-6.7 9-10 13.7h10.1V83.3zm13.6 16.1c0-1.6 1.3-3 3-3s3 1.3 3 3-1.3 3-3 3-3-1.3-3-3zm16.6-11c6.1.1 13.1 2.3 13.1 9.8 0 3.3-1.6 6.1-4.6 8.4-3.4 2.4-7.5 3.7-11.7 3.9l-.2-1.6c1.8-.3 12.1-2 12.1-9.8 0-5.8-6-6.9-11.1-7l2-13 13.5-1.1-.7 3.8-11.3 1-1.1 5.6zm41.6 1.8c0 7.9-5.1 12.4-10.6 12.4-6.1 0-10.7-4.7-10.7-12.1S783.3 78 789.3 78c6.3-.1 10.6 4.9 10.7 12.2zm-17.2.1c0 6.4 3.1 10.1 6.5 10.1 3.8 0 6.5-3.9 6.5-10.1 0-6.5-3-10.1-6.5-10.1-3.5-.1-6.5 3.8-6.5 10.1zm-123.5 63.3c0 10.3-6.6 16-13.4 18.7-2.5.9-5.2 1.4-7.9 1.6l-.2-1.4c5.9-1.1 13.2-4.7 16.1-12.9l-2 .9c-1.3.7-2.8 1.1-4.3 1.1-4.9-.1-8.8-4.2-8.7-9.1v-.1c-.2-5.9 4.4-10.8 10.3-11 6.9-.1 10.1 6.1 10.1 12.2zm-15.9-3.2c0 5.7 3.5 8.4 7.1 8.4 1.3 0 2.6-.3 3.7-1 .3-1.3.5-2.6.4-3.9 0-3.6-.9-10.8-6.3-10.8-3.1 0-4.9 3.5-4.9 7.3zm23.6 14.9v-1.5l3.4-.3c2.4-.2 2.7-.7 2.7-3.3v-11.7c0-2.7-.2-3.2-2.2-3.3l-3.3-.2v-1.4c3.3-.5 6.5-1.2 9.7-2.2v18.8c0 2.6.3 3.1 2.9 3.3l3.2.3v1.5H667zm44.5-1.9h-4.4v10.2h-4.2v-10.2h-13.5v-1.9c4.9-6.5 10.4-13.9 15.5-20.1h2.2v19.1h5l-.6 2.9zm-8.6-16.6h-.1c-3.5 4.4-6.7 9-10 13.7h10.1v-13.7zm33.4 6.8c0 10.3-6.5 16-13.4 18.7-2.5.9-5.2 1.4-7.9 1.6l-.2-1.4c5.9-1.1 13.2-4.7 16.1-12.9l-2 .9c-1.3.7-2.8 1.1-4.3 1.1-4.9-.1-8.8-4.2-8.7-9.1v-.1c-.2-5.9 4.4-10.8 10.3-11 7-.1 10.1 6.1 10.1 12.2zm-15.9-3.2c0 5.7 3.5 8.4 7.1 8.4 1.3 0 2.6-.3 3.7-1 .4-1.3.5-2.6.4-3.9 0-3.6-.9-10.8-6.3-10.8-3 0-4.9 3.5-4.9 7.3zm21.7 12.4c-.1-1.6 1.2-3 2.8-3.1 1.6-.1 3 1.2 3.1 2.8v.3c.1 1.6-1.2 3-2.8 3.1-1.6.1-3-1.2-3.1-2.8v-.3zm32.5-20.3c-2.4 4.3-9.4 17-16.6 30.6l-4 .7-.4-.6c6.2-8.8 11.8-18 17-27.4h-16.4v-3.9h20l.4.6zm9.8 9.3c6 .1 13.1 2.3 13.1 9.8 0 3.3-1.6 6.1-4.6 8.4-3.4 2.4-7.5 3.7-11.7 3.9l-.2-1.6c1.8-.3 12.1-2 12.1-9.8 0-5.8-6-6.9-11.2-7l2-13 13.5-1.1-.7 3.8-11.3 1-1 5.6zm-127.1 76.9h-18.9v-1.1c4.6-3.4 12.4-8.6 12.4-14.4 0-2.6-1.4-5.2-5-5.2-2.9 0-4.9 2.9-6 4.3l-1.1-1 2.6-3.8c1.6-1.7 3.9-2.7 6.3-2.7 4.8 0 7.6 3.3 7.6 7.5 0 3-1.6 4.9-3.5 6.6-1.4 1.5-3.7 3.5-6.9 6.2v.1h8.5c2.5 0 3-.5 4.1-2.8l1.3.1-1.4 6.2zm27.2-11.7c0 7.9-5.1 12.4-10.6 12.4-6.1 0-10.7-4.7-10.7-12.1s4.6-12.5 10.6-12.5c6.2-.1 10.6 4.9 10.7 12.2zm-17.2.1c0 6.5 3.1 10.1 6.5 10.1 3.8 0 6.5-3.9 6.5-10.1 0-6.4-3-10.1-6.5-10.1-3.5-.1-6.5 3.8-6.5 10.1zm43.2 9.7H706V237h-4.2v-10.2h-13.5v-1.9c4.9-6.5 10.4-13.9 15.5-20.1h2.2v19.1h5l-.5 2.9zm-8.6-16.6h-.1c-3.5 4.4-6.7 9-10 13.7h10.1v-13.7zm34 6.8c0 7.9-5.1 12.4-10.6 12.4-6.1 0-10.7-4.7-10.7-12.1s4.6-12.5 10.6-12.5c6.2-.1 10.6 4.9 10.7 12.2zm-17.2.1c0 6.5 3.1 10.1 6.5 10.1 3.7 0 6.5-3.9 6.5-10.1 0-6.4-3-10.1-6.5-10.1-3.5-.1-6.5 3.8-6.5 10.1zm22.4 9.2c-.1-1.6 1.2-3 2.8-3.1 1.6-.1 3 1.2 3.1 2.8v.3c.1 1.6-1.2 3-2.8 3.1-1.6.1-3-1.2-3.1-2.8v-.3zm32.5-9.3c0 7.9-5.1 12.4-10.6 12.4-6.1 0-10.7-4.7-10.7-12.1 0-7.4 4.6-12.5 10.6-12.5 6.2-.1 10.6 4.9 10.7 12.2zm-17.2.1c0 6.5 3.1 10.1 6.5 10.1 3.8 0 6.5-3.9 6.5-10.1 0-6.4-3-10.1-6.5-10.1-3.5-.1-6.5 3.8-6.5 10.1zm42.9-.1c0 7.9-5.1 12.4-10.6 12.4-6.1 0-10.7-4.7-10.7-12.1 0-7.4 4.6-12.5 10.7-12.5 6.1-.1 10.5 4.9 10.6 12.2zm-17.2.1c0 6.5 3.1 10.1 6.5 10.1 3.8 0 6.5-3.9 6.5-10.1 0-6.4-3-10.1-6.5-10.1-3.5-.1-6.5 3.8-6.5 10.1z" class="st0"/><path d="M661.4 0v246.1M233.4 0v246.1M686.8 0v246.1M253.6 0l-.5 246.1M712.3 0v246.1M282.3 0l-.6 246.1M744 0v246.1M309.4 0v246.1M775.6 0v246.1M347.9 0v246.1" class="st1"/><path d="M497.8 19.6h-6.2v19.9h-2.8V19.6h-6.4v-2.4h15.7l-.3 2.4zm14.7 18.3l-.7 1.9c-1.5 0-2.8-1.1-3.2-2.6-1.1 1.7-3.1 2.7-5.1 2.6-3.4 0-5.4-2.1-5.4-5.1 0-3.6 2.7-5.6 7.4-5.6h2.8v-1.4c0-2.5-1.2-3.5-3.7-3.5-1.6.1-3.1.4-4.6.9l-.7-2c1.8-.7 3.8-1.1 5.8-1.2 4 0 5.9 2.1 5.9 5.6v7.9c0 1.7.6 2.2 1.5 2.5zm-4.2-2.9v-4.1h-2.4c-3.2 0-4.8 1.2-4.8 3.6 0 2.1 1.1 3.2 3.1 3.2 1.8.1 3.1-.9 4.1-2.7zm22.8-4.1c0 5.4-2.5 8.9-6.6 8.9-1.8 0-3.5-.9-4.6-2.3l-.3 1.9h-2.4V15.6l2.7-.3v9.3c1.1-1.6 2.9-2.6 4.9-2.6 3.9.1 6.3 3.3 6.3 8.9zm-2.9 0c0-4.9-1.6-6.7-4.1-6.7-1.9 0-3.2 1.3-4.1 2.7v8.4c.8 1.4 2.3 2.3 3.9 2.4 2.6 0 4.3-2.1 4.3-6.8zm20.3 8.6h-2.3l-.2-2.7c-1 2-3.1 3.2-5.4 3.1-3 0-4.8-1.9-4.8-5.2V22.5h2.7v11.9c0 2.4.9 3.3 2.8 3.3s3.4-1.3 4.4-3V22.5h2.7l.1 17zm6-3.3V15.6l2.7-.3v20.9c0 .9.3 1.4 1.1 1.4.4 0 .8-.1 1.1-.2l.7 1.9c-.7.4-1.5.5-2.3.5-2 0-3.3-1.2-3.3-3.6zm22.1 1.7l-.6 1.9c-1.5 0-2.8-1.1-3.2-2.6-1.1 1.7-3.1 2.7-5.1 2.6-3.4 0-5.4-2.1-5.4-5.1 0-3.6 2.7-5.6 7.4-5.6h2.8v-1.4c0-2.5-1.2-3.5-3.7-3.5-1.6.1-3.1.4-4.6.9l-.7-2c1.8-.7 3.8-1.1 5.8-1.2 4 0 5.9 2.1 5.9 5.6v7.9c0 1.7.5 2.2 1.4 2.5zm-4.1-2.9v-4.1H570c-3.2 0-4.8 1.2-4.8 3.6 0 2.1 1.1 3.2 3.1 3.2 1.8.1 3.2-.9 4.2-2.7zm17.8-12.7l-.5 2.6c-.5-.1-1-.2-1.5-.2-2.2 0-3.5 1.6-4.2 4.9v9.9h-2.7v-17h2.3l.3 3.6c.9-2.6 2.5-3.9 4.6-3.9.5-.1 1.1-.1 1.7.1zM14.2 23.6c0 5.1-3.7 7.1-8.5 7.1H2.8V39H0V16.8h5.7c5.3 0 8.5 2.2 8.5 6.8zm-2.9 0c0-3.5-2.2-4.7-5.6-4.7H2.8v9.5h2.8c3.4.2 5.7-.9 5.7-4.8zm15.4-1.7l-.5 2.6c-.5-.1-1-.2-1.5-.2-2.2 0-3.5 1.6-4.2 4.9V39h-2.7V22h2.3l.3 3.6c.9-2.6 2.5-3.9 4.6-3.9.5 0 1.1 0 1.7.2zm16.6 8.6c0 5.3-2.7 8.9-7.5 8.9s-7.5-3.5-7.5-8.9 2.7-8.9 7.5-8.9 7.5 3.5 7.5 8.9zm-12.1.1c0 4.5 1.6 6.7 4.6 6.7s4.6-2.2 4.6-6.7-1.6-6.7-4.6-6.7-4.6 2.1-4.6 6.7zm30.9-.1c0 5.2-2.3 8.9-6.6 8.9-1.8.1-3.4-.7-4.6-2v8.1l-2.7.3V22.1h2.3l.2 2.4c1.1-1.7 3-2.7 5.1-2.7 4.5-.1 6.3 3.4 6.3 8.7zm-2.9 0c0-4.5-1.3-6.7-4-6.7-1.9 0-3.3 1.3-4.3 2.7V35c.8 1.4 2.3 2.2 3.9 2.2 2.9 0 4.4-2.1 4.4-6.7zm21.7 0c0 5.3-2.7 8.9-7.5 8.9s-7.5-3.5-7.5-8.9 2.7-8.9 7.5-8.9c4.8.1 7.5 3.5 7.5 8.9zm-12.1.1c0 4.5 1.6 6.7 4.6 6.7s4.6-2.2 4.6-6.7-1.6-6.7-4.6-6.7-4.6 2.1-4.6 6.7zm26-8.7l-.5 2.6c-.5-.1-1-.2-1.5-.2-2.2 0-3.5 1.6-4.2 4.9V39h-2.7V22h2.3l.3 3.6c.9-2.6 2.5-3.9 4.6-3.9.6 0 1.1 0 1.7.2zm11.8 16.4c-1.1.8-2.4 1.2-3.8 1.1-2.8 0-4.5-1.6-4.5-4.8V24.2h-2.9v-2.1h2.9v-3.9l2.7-.3v4.2h4.1l-.3 2.1H101v10.4c0 1.7.6 2.6 2.1 2.6.8 0 1.7-.3 2.4-.7l1.1 1.8zm6.4-22.4c0 1.1-.8 1.9-1.9 2-1.1 0-1.9-.8-2-1.9 0-1.1.8-1.9 1.9-2 1-.1 1.9.7 1.9 1.7.1.1.1.2.1.2zm-.6 23.1h-2.7V22h2.7v17zm20-8.5c0 5.3-2.7 8.9-7.5 8.9s-7.5-3.5-7.5-8.9 2.7-8.9 7.5-8.9c4.8.1 7.5 3.5 7.5 8.9zm-12.1.1c0 4.5 1.6 6.7 4.6 6.7s4.6-2.2 4.6-6.7-1.6-6.7-4.6-6.7-4.6 2.1-4.6 6.7zm29.8-3.7V39h-2.7V27.3c0-2.6-1-3.5-2.8-3.5-2 0-3.4 1.3-4.6 3.1V39h-2.7V22h2.3l.2 2.6c1.2-1.8 3.2-2.9 5.3-3 3.3.1 5 2 5 5.3zm18.6 10.6l-.6 1.9c-1.5 0-2.8-1.1-3.2-2.6-1.1 1.7-3.1 2.7-5.1 2.6-3.4 0-5.4-2.1-5.4-5.1 0-3.6 2.7-5.6 7.4-5.6h2.8v-1.4c0-2.5-1.2-3.5-3.7-3.5-1.6.1-3.1.4-4.6.9l-.7-2c1.8-.7 3.8-1.1 5.8-1.2 4 0 5.9 2.1 5.9 5.6V35c0 1.7.5 2.2 1.4 2.5zm-4.1-2.9v-4.1h-2.4c-3.2 0-4.8 1.2-4.8 3.6 0 2.1 1.1 3.2 3.1 3.2 1.7.1 3.1-.9 4.1-2.7zm8.5 1.2V15.2l2.7-.3v20.9c0 .9.3 1.4 1.1 1.4.4 0 .8-.1 1.1-.2l.7 1.9c-.7.4-1.5.6-2.3.6-1.9 0-3.3-1.3-3.3-3.7z"/></g></g></svg>