<svg xmlns="http://www.w3.org/2000/svg" id="Layer_1" viewBox="0 0 800 417" width="800" height="417"><style>.st0{fill:none;stroke:#00aeff;stroke-width:1.1434;stroke-miterlimit:10}.st1{fill:#2997ff}.st2{fill:#505050}</style><g id="bae68238-7bb6-4773-850a-d718d882cfa1"><g id="ac5a1a82-c305-4a42-9108-865b1b1f5441"><path d="M0 112h800M0 61.3h800" class="st0"/><path d="M22.3 112v-3.1l5.4-.7c4.1-.6 4.8-1.6 4.8-7V76.4c0-5.8-.9-6.4-5.7-6.9l-3.6-.5v-3c6.2-.9 12.3-2.5 18.2-4.7v39.9c0 5.5.9 6.5 4.9 7l5.3.7v3.1H22.3zm105.9-14.6l-3.5 14.6H84.9v-2.5c9.8-7.4 25.9-18.7 25.9-30.3 0-5.6-3.1-10.6-10.1-10.6-5.9 0-10.1 5.3-12.4 8.4l-2.7-2.3 5.3-7.2c3.3-4.4 8.7-6 13.4-6 10 0 16.2 7.1 16.2 15.7 0 6.5-3.9 11.3-7.8 14.9-3.5 3.3-8.4 7.3-14.6 12.5h17.7c5 0 5.7-1.2 9.3-7.7l3.1.5zM160.6 73l4.9-6.5c3.1-3.3 7.5-5.2 12-5.2 8.8 0 14.5 5.7 14.5 13.8-.1 3-1.3 5.9-3.3 8.1-1.6 1.6-3.9 3.1-6.7 5.6 9 1.8 14.8 8.1 14.8 15.9 0 17.3-20.4 25.4-26.6 25.4-3.4 0-6.7-1.2-9.4-3.3-1.6-1.5-1.9-2.7-1.3-4.4.5-1.2 1.4-2.3 2.4-3 1-.8 1.9-.9 2.9 0 2.7 2.2 5.7 4.6 10.6 4.6 5.9 0 12-5.1 12-15 0-9.6-6.4-13.8-12.9-13.8-2.2 0-4.5.3-6.6 1l-.8-3.2c10.3-4.1 15.9-8.7 15.9-15.6 0-6.2-3.9-9.3-8.9-9.3-4.5 0-8.1 3.3-11.3 7.3l-2.2-2.4zm120 34.9h-10.2v21.5h-8.9v-21.5h-29.2v-4c11.1-14.3 22.4-29.1 33.4-42.6h4.7v40.4h11.3l-1.1 6.2zM261.5 73c-7.9 10.3-14.6 19-21.6 28.7h21.6V73zm60 10.5c12.2.7 27.2 5.7 27.2 20.3 0 7.6-3.8 13.7-10.2 18.4-7.1 5.5-17.7 7.9-24.4 8l-.6-3.6c6.5-1 25.8-4.9 25.8-20.6 0-11.8-12.7-14.5-23.6-14.8l4.9-27.6 27.8-2.3-1.7 8.2-23.2 2-2 12zm108.4-35.7c-17.4 4.6-27.8 14.6-31.6 26.4l6.5-2.6c3.5-1.5 6.1-2 7.4-2 10.4 0 19 7.6 19 20.1 0 13.4-9.9 23.6-22.7 23.6-11.3 0-22-9.3-22-26.4 0-18.3 13.3-32.3 28.8-38.9 4.5-1.7 9.2-3 13.9-3.8l.7 3.6zm-23.4 28.1c-3.1.1-6.2.9-8.9 2.5-.6 2.6-.9 5.3-.8 7.9 0 14.5 6.1 23 13.9 23 5.5 0 11.1-3.9 11.1-14.5-.1-8.4-3.2-18.9-15.3-18.9zm103.7-11.5c-5.1 9.4-19.4 36.3-33.9 64.1l-8.6 1.7-.8-1.5c12.7-18.3 25-39.9 34.6-57.5h-34.4v-8.1h42.4l.7 1.3zm54.9-20.1c10.3 0 17.3 7.1 17.3 16.3 0 3-1.1 6-3.1 8.2-1.3 1.6-4.1 3.3-8.2 6.5 7 4.1 14.2 9.3 14.2 18.8 0 11.4-9.7 19.3-21.2 19.3-11.6 0-20.4-7.6-20.4-17.8 0-5 2.6-8.1 4.9-10.5 2.9-2.4 6-4.6 9.2-6.7-6.2-3.6-11.4-8.8-11.4-16.6-.1-9.3 7.6-17.5 18.7-17.5zm.2 65.4c6.5 0 10.7-4.4 10.7-12.8 0-8.1-7-12.3-14.9-16.6-6.1 4.3-8.7 9.4-8.7 14.5 0 9.4 6.3 14.9 12.9 14.9zM563.8 48c-6.4 0-9.3 5.6-9.3 10.7 0 7.9 6 10.9 13.3 14.6 3.2-2.7 6.2-5.7 6.2-12.6.1-8.5-5.3-12.7-10.2-12.7zm58.1 78.6c12.1-2.8 27.1-9.9 32.2-26.8l-4.2 1.9c-4.1 1.9-7.1 2.3-9 2.3-9.1 0-18.7-8.4-18.7-20.4 0-12.9 10.3-22.4 21.7-22.4 14.9 0 21.6 13.2 21.6 26.1 0 20.7-14.4 34.3-29.2 40-4.5 1.3-9.1 2.2-13.7 2.8l-.7-3.5zm20.2-61.3c-5.9 0-10.5 6.4-10.5 14.9 0 12.1 7.6 17.7 15.3 17.7 2.8 0 5.5-.7 7.9-2 .5-2.7.8-5.4.8-8.1 0-7.4-2.1-22.5-13.5-22.5zm85.5-4c13.5 0 23.5 10.1 23.5 25.2 0 15.4-11.1 26.9-24.4 26.9-14 0-23.6-11.1-23.6-25.8 0-14.5 10.8-26.3 24.5-26.3zm-1.4 5.6c-9.4 0-14.9 7.9-14.9 20.2 0 11.1 6.8 20.7 17 20.8 9.5 0 14.6-7.6 14.6-20-.1-12.7-7.2-21-16.7-21zM21.2 8.2c0 4.3-3.1 6.1-7.3 6.1h-2.5v7H9.1V2.4H14c4.4 0 7.2 1.8 7.2 5.8zm-2.5 0c0-3-1.8-4-4.8-4h-2.4v8.1h2.4c2.9.1 4.8-.8 4.8-4.1zm13.1-1.5L31.4 9c-.4-.1-.8-.2-1.3-.2-1.8 0-3 1.3-3.5 4.1v8.4h-2.3V6.9h2l.2 3c.7-2.2 2.1-3.4 3.9-3.4.5 0 .9.1 1.4.2zm14.1 7.4c0 4.5-2.3 7.6-6.4 7.6s-6.3-2.9-6.3-7.5 2.3-7.6 6.4-7.6 6.3 2.8 6.3 7.5zm-10.2 0c0 3.8 1.4 5.7 3.9 5.7s3.9-1.8 3.9-5.7-1.5-5.7-3.9-5.7-3.9 1.8-3.9 5.7zm26.3 0c0 4.4-2 7.6-5.6 7.6-1.5.1-2.9-.6-3.9-1.7v7l-2.3.2V6.9h2l.2 2c1-1.4 2.6-2.3 4.3-2.3 3.7-.1 5.3 2.9 5.3 7.5zm-2.5 0c0-3.9-1.1-5.7-3.4-5.7-1.6 0-2.8 1.1-3.6 2.3v7.2c.7 1.2 2 1.9 3.3 1.9 2.4 0 3.7-1.9 3.7-5.7zm18.4 0c0 4.5-2.3 7.6-6.4 7.6s-6.4-3-6.4-7.5 2.3-7.6 6.4-7.6 6.4 2.8 6.4 7.5zm-10.2 0c0 3.8 1.4 5.7 3.9 5.7s3.9-1.8 3.9-5.7-1.4-5.7-3.9-5.7-3.9 1.8-3.9 5.7zm22-7.4L89.3 9c-.4-.1-.8-.2-1.3-.2-1.8 0-2.9 1.3-3.5 4.1v8.4h-2.3V6.9h2l.2 3c.7-2.2 2.1-3.4 3.9-3.4.5 0 .9.1 1.4.2zm10.1 14c-.9.6-2.1 1-3.2 1-2.4 0-3.8-1.4-3.8-4v-9h-2.5V6.9h2.5V3.5l2.3-.3v3.6h3.5l-.2 1.8h-3.2v8.9c0 1.5.5 2.2 1.8 2.2.7 0 1.4-.2 2-.6l.8 1.6zm5.4-19.1c0 .9-.7 1.6-1.6 1.6s-1.6-.7-1.6-1.6c0-.9.7-1.6 1.6-1.6s1.6.7 1.6 1.6zm-.5 19.7h-2.3V6.9h2.3v14.4zm17-7.2c0 4.5-2.3 7.6-6.4 7.6s-6.4-3-6.4-7.5 2.3-7.6 6.4-7.6 6.4 2.8 6.4 7.5zm-10.2 0c0 3.8 1.4 5.7 3.9 5.7s3.9-1.8 3.9-5.7-1.4-5.7-3.9-5.7-4 1.8-3.9 5.7zm25.3-3.1v10.4h-2.3v-10c0-2.2-.9-3-2.4-3-1.7 0-2.9 1.1-3.9 2.7v10.3h-2.3V6.9h2l.2 2.2c1-1.6 2.7-2.5 4.5-2.5 2.7-.1 4.2 1.6 4.2 4.4zm15.8 9l-.5 1.6c-1.3 0-2.4-.9-2.7-2.2-.9 1.5-2.6 2.3-4.3 2.2-2.9 0-4.6-1.8-4.6-4.4 0-3.1 2.3-4.7 6.3-4.7h2.4v-1.2c0-2.1-1-3-3.1-3-1.3 0-2.7.3-3.9.8l-.6-1.7c1.6-.6 3.2-1 4.9-1 3.4 0 5 1.8 5 4.8V18c-.1 1.3.3 1.8 1.1 2zm-3.5-2.4v-3.5H147c-2.7 0-4.1 1-4.1 3.1 0 1.8.9 2.7 2.6 2.7 1.6 0 2.7-.8 3.6-2.3zm7.2 1V1.1l2.3-.3v17.7c0 .8.3 1.2 1 1.2.3 0 .7 0 1-.2l.6 1.6c-.6.3-1.3.5-1.9.5-1.8.1-3-1-3-3zm30.4-6.7c0 6.2-3.2 9.8-7.9 9.8s-7.9-3.4-7.9-9.7 3.2-9.8 7.9-9.8c4.7-.1 7.9 3.3 7.9 9.7zm-13.2 0c0 5.5 2.2 7.8 5.4 7.8s5.4-2.3 5.4-7.8-2.1-7.9-5.4-7.9-5.5 2.4-5.4 7.9zm17.3 6.7V1.1l2.3-.3v17.7c0 .8.3 1.2 1 1.2.3 0 .7 0 1-.2l.6 1.6c-.6.3-1.3.5-1.9.5-1.9.1-3-1-3-3zm19-17.5v20.3h-2l-.2-2c-.9 1.5-2.5 2.4-4.2 2.4-3.5 0-5.4-3-5.4-7.5 0-4.4 2.1-7.6 5.7-7.6 1.5 0 2.9.7 3.9 1.8V.8l2.2.3zm-2.3 16.5v-7.2c-.7-1.2-2-1.9-3.4-1.9-2.3 0-3.7 1.9-3.7 5.7s1.3 5.7 3.4 5.7c1.7-.1 2.7-.9 3.7-2.3zm16.3-9.4l-1 1.5c-1.1-.8-2.4-1.3-3.8-1.3-1.7 0-2.8.8-2.8 2s.8 1.8 3.2 2.4c3.1.8 4.8 1.9 4.8 4.5 0 3-2.7 4.3-5.6 4.3-2 .1-3.9-.6-5.4-1.9l1.2-1.4c1.2.9 2.6 1.4 4.1 1.4 2 0 3.2-.9 3.2-2.3s-.7-2.1-3.6-2.8c-3.1-.8-4.4-2.1-4.4-4.2 0-2.3 2.2-3.9 5.1-3.9 1.9 0 3.6.6 5 1.7zM235 20.7c-.9.6-2.1 1-3.2 1-2.4 0-3.8-1.4-3.8-4v-9h-2.5V6.9h2.5V3.5l2.3-.3v3.6h3.5l-.3 1.8h-3.2v8.9c0 1.5.5 2.2 1.8 2.2.7 0 1.4-.2 2-.6l.9 1.6zm8.1.7c-1 3.1-2.6 5.2-6.5 5.7l-.3-1.8c3-.6 3.7-1.7 4.6-4h-.8l-4.9-14.5h2.5l4 12.8 3.9-12.8h2.4l-4.9 14.6zm7.6-2.8V1.1l2.3-.3v17.8c0 .8.3 1.2 1 1.2.3 0 .7 0 1-.2l.6 1.6c-.6.3-1.3.5-1.9.5-1.9 0-3-1.1-3-3.1zm18.8-3.7h-9.3c.2 3.5 1.9 4.9 4 4.9 1.4 0 2.7-.4 3.8-1.3l1 1.4c-1.4 1.2-3.2 1.8-5 1.8-4 0-6.3-2.8-6.3-7.4s2.2-7.7 5.9-7.7c3.9 0 5.9 2.7 5.9 7.1.1.4.1.9 0 1.2zm-2.2-1.9c0-2.9-1.2-4.6-3.5-4.6-2 0-3.4 1.4-3.5 4.8h7.1V13zM26.6 206.9c0 6.2-3.2 9.8-7.9 9.8s-7.9-3.4-7.9-9.7c0-6.3 3.2-9.8 7.9-9.8s7.9 3.4 7.9 9.7zm-13.3 0c0 5.5 2.2 7.8 5.4 7.8 3.3 0 5.4-2.3 5.4-7.8s-2.1-7.8-5.4-7.8-5.4 2.3-5.4 7.8zm17.3 6.7v-17.5l2.3-.3v17.8c0 .8.3 1.2 1 1.2.3 0 .7 0 1-.2l.6 1.6c-.6.3-1.3.5-1.9.5-1.9 0-3-1.1-3-3.1zm19-17.5v20.3h-2l-.3-2c-.9 1.5-2.5 2.4-4.2 2.4-3.5 0-5.4-3-5.4-7.5 0-4.4 2.1-7.6 5.7-7.6 1.5 0 2.9.7 3.9 1.8v-7.6l2.3.2zm-2.3 16.5v-7.2c-.7-1.2-2-1.9-3.4-1.9-2.3 0-3.7 1.9-3.7 5.7 0 3.9 1.3 5.7 3.4 5.7 1.7 0 2.7-.9 3.7-2.3zm16.3-9.4l-1 1.5c-1.1-.8-2.4-1.2-3.8-1.3-1.7 0-2.8.8-2.8 2s.8 1.8 3.2 2.4c3.1.8 4.8 1.9 4.8 4.5 0 3-2.7 4.3-5.6 4.3-2 .1-3.9-.6-5.4-1.9l1.2-1.4c1.2.9 2.6 1.4 4.1 1.4 1.9 0 3.2-.9 3.2-2.3s-.7-2.1-3.6-2.8c-3.1-.8-4.4-2.1-4.4-4.2 0-2.3 2.2-3.9 5.1-3.9 1.9.1 3.6.6 5 1.7zm11.2 12.5c-.9.6-2.1 1-3.2 1-2.4 0-3.8-1.4-3.8-4v-8.9h-2.5V202h2.5v-3.3l2.3-.3v3.6h3.5l-.2 1.8h-3.2v8.9c0 1.5.5 2.2 1.8 2.2.7 0 1.4-.2 2-.6l.8 1.4zm8.1.8c-1 3.1-2.6 5.2-6.5 5.7l-.3-1.8c3-.6 3.7-1.7 4.6-4h-.8L75 201.9h2.5l4 12.8 3.9-12.8h2.4l-4.9 14.6zm7.6-2.9v-17.5l2.3-.3v17.8c0 .8.3 1.2 1 1.2.3 0 .7 0 1-.2l.6 1.6c-.6.3-1.3.5-1.9.5-1.9 0-3-1.1-3-3.1zm18.9-3.7H100c.2 3.5 1.9 4.9 4 4.9 1.4 0 2.7-.4 3.8-1.3l1 1.4c-1.4 1.2-3.2 1.8-5 1.8-4 0-6.3-2.8-6.3-7.4s2.3-7.7 5.9-7.7c3.9 0 5.9 2.7 5.9 7.1.1.5.1.9.1 1.2zm-2.3-1.9c0-3-1.2-4.6-3.5-4.6-2 0-3.4 1.4-3.5 4.8h7.1v-.2zm22.7-11.2l-.8 1.6c-1-.5-2-.7-3.1-.7-2 0-2.6.7-2.6 2.2v2h8.1v14.5H129v-12.7h-5.8v12.7h-2.3v-12.7h-2.3v-1.8h2.3v-2c0-2.4 1.5-4.1 4.8-4.1 1.4 0 2.8.3 4.1 1zm18.2 5.7c-1.4.3-2.8.5-4.2.4 1.6.5 2.6 2 2.5 3.7 0 2.8-2 4.9-5.4 4.9-.6 0-1.2-.1-1.8-.3-.5.3-.8.9-.8 1.4 0 .7.4 1.2 2 1.2h2.3c3 0 4.9 1.7 4.9 3.9 0 2.8-2.2 4.3-6.6 4.3-4.6 0-6.2-1.4-6.2-4.3h2.1c0 1.7.8 2.5 4.1 2.5 3.2 0 4.3-.9 4.3-2.4s-1.1-2.1-3-2.1h-2.3c-2.5 0-3.7-1.3-3.7-2.7.1-1.1.6-2 1.6-2.5-1.6-.7-2.5-2.3-2.4-4 0-3 2.3-5 5.5-5 3.7.1 4.9-.5 6.6-1.2l.5 2.2zm-10.3 4.1c0 2 1.2 3.4 3.2 3.4s3.2-1.2 3.2-3.4c0-2.1-1.1-3.3-3.2-3.3-2.2 0-3.2 1.4-3.2 3.3zm23.5 9.8h-2l-.2-2.4c-.9 1.7-2.7 2.7-4.6 2.7-2.5 0-4-1.6-4-4.4v-10.4h2.3V212c0 2.1.7 2.8 2.4 2.8s2.9-1.1 3.8-2.6v-10.4h2.3v14.6zm12.8-14.7l-.4 2.3c-.4-.1-.8-.2-1.3-.2-1.8 0-2.9 1.3-3.5 4.1v8.4h-2.3v-14.5h2l.2 3c.7-2.2 2.1-3.4 3.9-3.4.4.1.9.2 1.4.3zm13.1 8.2h-9.3c.2 3.5 1.9 4.9 4 4.9 1.4 0 2.7-.4 3.8-1.3l1 1.4c-1.4 1.2-3.2 1.8-5 1.8-4 0-6.3-2.8-6.3-7.4s2.3-7.7 5.9-7.7c3.9 0 5.9 2.7 5.9 7.1.1.5.1.9 0 1.2zm-2.2-1.9c0-3-1.2-4.6-3.5-4.6-2 0-3.4 1.4-3.5 4.8h7.1v-.2zm15.1-4.8l-1 1.5c-1.1-.8-2.4-1.3-3.8-1.3-1.7 0-2.8.8-2.8 2s.8 1.8 3.2 2.4c3.1.8 4.8 1.9 4.8 4.5 0 3-2.7 4.3-5.6 4.3-2 .1-3.9-.6-5.4-1.9l1.2-1.4c1.2.9 2.6 1.4 4.1 1.4 2 0 3.2-.9 3.2-2.3s-.7-2.1-3.6-2.8c-3.1-.8-4.4-2.1-4.4-4.2 0-2.3 2.2-3.9 5.1-3.9 1.9.1 3.6.6 5 1.7zm24.4 13c-.6.3-1.3.5-2 .5-1.8 0-2.8-1-2.8-3.1v-15.4c-1.1-.3-2.2-.5-3.3-.5-1.8 0-2.5.7-2.5 2.1v2.1h3.6l-.2 1.8h-3.3v12.7h-2.3v-12.7h-2.3v-1.8h2.3v-2.1c0-2.4 1.5-4 4.7-4 1.2 0 2.3.2 3.4.6l2.3-.3v17.5c0 .8.3 1.2 1 1.2.3 0 .6 0 .9-.2l.5 1.6zm15-7.1c0 4.5-2.3 7.6-6.4 7.6s-6.4-3-6.4-7.5 2.3-7.6 6.4-7.6 6.4 2.9 6.4 7.5zm-10.3.1c0 3.8 1.4 5.7 3.9 5.7s3.9-1.8 3.9-5.7c0-3.9-1.4-5.7-3.9-5.7-2.4-.1-3.9 1.8-3.9 5.7zm27.6 7.2h-3.2l-2.7-12.4-2.8 12.4h-3l-3.4-14.5h2.3l2.7 12.8 3-12.8h2.6l2.9 12.8 2.8-12.8h2.2l-3.4 14.5zM23.6 242.1c0 4.6-2.1 7.6-5.6 7.6-1.5 0-3-.7-3.9-2l-.2 1.7h-2.1v-20.3l2.3-.3v7.9c.9-1.4 2.5-2.2 4.2-2.2 3.2.1 5.3 2.8 5.3 7.6zm-2.5 0c0-4.2-1.3-5.7-3.5-5.7-1.7 0-2.7 1.1-3.5 2.3v7.1c.7 1.2 2 1.9 3.3 2 2.2.1 3.7-1.7 3.7-5.7zm17.4.8h-9.3c.2 3.5 1.9 4.9 4 4.9 1.4 0 2.7-.4 3.8-1.3l1 1.4c-1.4 1.2-3.2 1.8-5 1.8-4 0-6.3-2.8-6.3-7.4 0-4.6 2.2-7.7 5.9-7.7 3.9 0 5.9 2.7 5.9 7.1.1.5.1.9 0 1.2zm-2.2-1.9c0-2.9-1.2-4.6-3.5-4.6-2 0-3.3 1.4-3.5 4.8h7.1v-.2zm13.6 7.7c-.9.6-2.1 1-3.2 1-2.4 0-3.8-1.4-3.8-4v-9h-2.5v-1.8h2.5v-3.3l2.3-.2v3.6h3.5l-.2 1.8h-3.2v8.9c0 1.5.5 2.2 1.8 2.2.7 0 1.4-.2 2-.6l.8 1.4zm9.8 0c-.9.6-2.1 1-3.2 1-2.4 0-3.8-1.4-3.8-4v-9h-2.5v-1.8h2.5v-3.3l2.3-.2v3.6h3.5l-.3 1.8H55v8.9c0 1.5.5 2.2 1.8 2.2.7 0 1.4-.2 2-.6l.9 1.4zm13-5.8h-9.3c.2 3.5 1.9 4.9 4 4.9 1.4 0 2.7-.4 3.8-1.3l1 1.4c-1.4 1.2-3.2 1.8-5 1.8-4 0-6.3-2.8-6.3-7.4 0-4.6 2.3-7.7 5.9-7.7 3.9 0 5.9 2.7 5.9 7.1.1.5 0 .9 0 1.2zm-2.2-1.9c0-2.9-1.2-4.6-3.5-4.6-2 0-3.4 1.4-3.5 4.8h7.1v-.2zm13.9-6.3l-.4 2.2c-.4-.1-.8-.2-1.3-.2-1.8 0-3 1.3-3.5 4.2v8.4h-2.3v-14.5h2l.2 3c.7-2.2 2.1-3.4 3.9-3.4.4.2.9.2 1.4.3zm13-5c0 .9-.7 1.7-1.6 1.7-.9 0-1.7-.7-1.7-1.6 0-.9.7-1.7 1.6-1.7.9 0 1.6.6 1.7 1.5v.1zm-.4 19.7h-2.3v-14.5H97v14.5zm16-10.4v10.4h-2.3v-10c0-2.2-.9-3-2.4-3-1.7 0-2.9 1.1-3.9 2.7v10.3h-2.3v-14.5h2l.2 2.2c1-1.6 2.7-2.5 4.5-2.5 2.8 0 4.2 1.7 4.2 4.4zm20-4.3l-.4 2.2c-.4-.1-.8-.2-1.3-.2-1.8 0-2.9 1.3-3.5 4.2v8.4h-2.3v-14.5h2l.2 3c.8-2.2 2.1-3.4 3.9-3.4.5.2 1 .2 1.4.3zm13.5 14.7h-2l-.2-2.3c-.9 1.7-2.7 2.7-4.6 2.7-2.5 0-4-1.6-4-4.4V235h2.3v10c0 2.1.7 2.8 2.4 2.8s2.9-1.1 3.8-2.6v-10.4h2.3v14.6zm16.1-10.4v10.4h-2.3v-10c0-2.2-.9-3-2.4-3-1.7 0-2.9 1.1-3.9 2.7v10.3h-2.3v-14.5h2l.2 2.2c1-1.6 2.7-2.5 4.5-2.5 2.7 0 4.2 1.7 4.2 4.4zm15.9 0v10.4h-2.3v-10c0-2.2-.9-3-2.4-3-1.7 0-2.9 1.1-3.9 2.7v10.3h-2.3v-14.5h2l.2 2.2c1-1.6 2.7-2.5 4.5-2.5 2.7 0 4.2 1.7 4.2 4.4zm7.9-9.3c0 .9-.7 1.7-1.6 1.7-.9 0-1.7-.7-1.7-1.6 0-.9.7-1.7 1.6-1.7.9 0 1.6.6 1.7 1.5v.1zm-.5 19.7h-2.3v-14.5h2.3v14.5zM202 239v10.4h-2.3v-10c0-2.2-.9-3-2.4-3-1.7 0-2.9 1.1-3.9 2.7v10.3h-2.3v-14.5h2l.2 2.2c1-1.6 2.7-2.5 4.5-2.5 2.7 0 4.2 1.7 4.2 4.4zm16.6-3.5c-1.4.3-2.8.5-4.2.4 1.6.6 2.6 2 2.5 3.7 0 2.8-2 4.9-5.4 4.9-.6 0-1.2-.1-1.8-.3-.5.3-.8.9-.8 1.4 0 .7.4 1.2 2 1.2h2.3c3 0 4.9 1.7 4.9 3.9 0 2.8-2.2 4.3-6.6 4.3-4.6 0-6.2-1.4-6.2-4.3h2.1c0 1.7.8 2.5 4.1 2.5 3.2 0 4.3-.8 4.3-2.4 0-1.5-1.1-2.1-3-2.1h-2.3c-2.5 0-3.7-1.3-3.7-2.7 0-1.1.6-2 1.6-2.5-1.6-.7-2.5-2.3-2.4-4 0-3 2.3-5 5.5-5 3.7.1 4.9-.5 6.5-1.2l.6 2.2zm-10.4 4.1c0 2 1.2 3.4 3.2 3.4s3.2-1.2 3.2-3.4-1.1-3.3-3.2-3.3-3.2 1.4-3.2 3.3zm27.6 9.1c-.9.6-2.1 1-3.2 1-2.4 0-3.8-1.4-3.8-4v-9h-2.5v-1.8h2.5v-3.3l2.3-.2v3.6h3.5l-.2 1.8h-3.2v8.9c0 1.5.5 2.2 1.8 2.2.7 0 1.4-.2 2-.6l.8 1.4zm13-5.8h-9.3c.2 3.5 1.9 4.9 4 4.9 1.4 0 2.7-.4 3.8-1.3l1 1.4c-1.4 1.2-3.2 1.8-5 1.8-4 0-6.3-2.8-6.3-7.4 0-4.6 2.3-7.7 5.9-7.7 3.9 0 5.9 2.7 5.9 7.1.1.5.1.9 0 1.2zm-2.2-1.9c0-2.9-1.2-4.6-3.5-4.6-2 0-3.4 1.4-3.5 4.8h7.1v-.2zm16.6 8.4h-2.8l-3.7-6.3-3.7 6.3h-2.6l5.1-7.6-4.4-6.8h2.7l3.2 5.4 3.1-5.4h2.6l-4.4 6.7 4.9 7.7zm10-.7c-.9.6-2.1 1-3.2 1-2.4 0-3.8-1.4-3.8-4v-9h-2.5v-1.8h2.5v-3.3l2.3-.2v3.6h3.5l-.2 1.8h-3.3v8.9c0 1.5.5 2.2 1.8 2.2.7 0 1.4-.2 2-.6l.9 1.4zm5.1-.8c0 1-.8 1.8-1.8 1.8s-1.8-.8-1.8-1.8.8-1.8 1.8-1.8c.9 0 1.7.8 1.8 1.8zm-255.6 37h-5.3v16.9H15v-16.9H9.5v-2.1h13.4l-.2 2.1zm14 6.5v10.4h-2.3v-10c0-2.2-.9-3-2.4-3-1.6 0-2.8 1.1-3.9 2.6v10.3h-2.3v-20.2l2.3-.3v8.2c1-1.5 2.6-2.4 4.4-2.4 2.7 0 4.2 1.7 4.2 4.4zm15.8 4h-9.3c.2 3.5 1.9 4.9 4 4.9 1.4 0 2.7-.4 3.8-1.3l1 1.4c-1.4 1.2-3.2 1.8-5 1.8-4 0-6.3-2.8-6.3-7.4s2.2-7.7 5.9-7.7c3.9 0 5.9 2.7 5.9 7.1.1.4 0 .9 0 1.2zm-2.2-1.9c0-3-1.2-4.6-3.5-4.6-2 0-3.4 1.4-3.5 4.8h7.1v-.2zm11.8 8.4c-1 3.1-2.6 5.2-6.5 5.7l-.3-1.8c3-.5 3.7-1.7 4.6-4h-.8l-4.9-14.5h2.5l4 12.8 3.9-12.8H67l-4.9 14.6zm10.1-19.1c0 .5-.2 1-.4 1.5l-1.8 3.8h-1.5l1.1-4c-.4-.3-.7-.8-.7-1.3.1-.9.9-1.6 1.8-1.6.8.1 1.5.7 1.5 1.6zm11.5 4.4l-.4 2.2c-.4-.1-.8-.2-1.3-.2-1.8 0-3 1.3-3.5 4.2v8.4h-2.3v-14.4h2l.2 3c.7-2.2 2.1-3.4 3.9-3.4.4 0 .9.1 1.4.2zm13.1 8.2h-9.3c.2 3.5 1.9 4.9 4 4.9 1.4 0 2.7-.4 3.8-1.3l1 1.4c-1.4 1.2-3.2 1.8-5 1.8-4 0-6.3-2.8-6.3-7.4s2.3-7.7 5.9-7.7c3.9 0 5.9 2.7 5.9 7.1.1.4 0 .9 0 1.2zm-2.2-1.9c0-3-1.2-4.6-3.5-4.6-2 0-3.4 1.4-3.5 4.8h7.1v-.2zm24.5 1.9h-9.3c.2 3.5 1.9 4.9 4 4.9 1.4 0 2.7-.4 3.8-1.3l1 1.4c-1.4 1.2-3.2 1.8-5 1.8-4 0-6.3-2.8-6.3-7.4s2.2-7.7 5.9-7.7c3.9 0 5.9 2.7 5.9 7.1v1.2zm-2.2-1.9c0-3-1.2-4.6-3.5-4.6-2 0-3.3 1.4-3.5 4.8h7.1v-.2zm11.7 8.3h-2.8l-5-14.5h2.5l3.9 12.4 3.9-12.4h2.4l-4.9 14.5zm18.6-6.4h-9.3c.2 3.5 1.9 4.9 4 4.9 1.4 0 2.7-.4 3.8-1.3l1 1.4c-1.4 1.2-3.2 1.8-5 1.8-4 0-6.3-2.8-6.3-7.4s2.2-7.7 5.9-7.7c3.9 0 5.9 2.7 5.9 7.1.1.4 0 .9 0 1.2zm-2.2-1.9c0-3-1.2-4.6-3.5-4.6-2 0-3.3 1.4-3.5 4.8h7.1v-.2zm17.2-2.1v10.4h-2.3v-10c0-2.2-.9-3-2.4-3-1.7 0-2.9 1.1-3.9 2.7v10.3h-2.3v-14.5h2l.2 2.2c1-1.6 2.7-2.5 4.5-2.5 2.7 0 4.2 1.7 4.2 4.4zm23.1 9.1l-.6 1.6c-1.3 0-2.4-.9-2.7-2.2-1 1.5-2.6 2.3-4.3 2.2-2.9 0-4.6-1.8-4.6-4.4 0-3.1 2.3-4.7 6.3-4.7h2.4v-1.2c0-2.1-1-3-3.1-3-1.3 0-2.7.3-3.9.8l-.6-1.7c1.6-.6 3.2-1 4.9-1 3.4 0 5 1.8 5 4.8v6.7c0 1.4.5 1.8 1.2 2.1zm-3.5-2.5v-3.5h-2.1c-2.7 0-4.1 1-4.1 3.1 0 1.8.9 2.7 2.6 2.7 1.6.1 2.8-.7 3.6-2.3zm12.9 3.8h-2.8l-5-14.5h2.5l3.9 12.4 3.9-12.4h2.4l-4.9 14.5zm18.5-1.3l-.5 1.6c-1.3 0-2.4-.9-2.7-2.2-1 1.5-2.6 2.3-4.3 2.2-2.9 0-4.6-1.8-4.6-4.4 0-3.1 2.3-4.7 6.3-4.7h2.4v-1.2c0-2.1-1-3-3.1-3-1.3 0-2.7.3-3.9.8l-.6-1.7c1.6-.6 3.2-1 4.9-1 3.4 0 5 1.8 5 4.8v6.7c-.1 1.4.3 1.8 1.1 2.1zm-3.5-2.5v-3.5h-2.1c-2.7 0-4.1 1-4.1 3.1 0 1.8.9 2.7 2.6 2.7 1.6.1 2.7-.7 3.6-2.3zm10.3-15.9c0 .9-.7 1.7-1.6 1.7-.9 0-1.7-.7-1.7-1.6 0-.9.7-1.7 1.6-1.7.9 0 1.6.6 1.7 1.5v.1zm-.4 19.7h-2.3v-14.5h2.3v14.5zm5-2.7v-17.6l2.3-.3V299c0 .8.3 1.2 1 1.2.3 0 .7-.1 1-.2l.6 1.6c-.6.3-1.3.5-1.9.5-1.8 0-3-1-3-3zm18.8 1.4l-.5 1.6c-1.3 0-2.4-.9-2.7-2.2-1 1.5-2.6 2.3-4.3 2.2-2.9 0-4.6-1.8-4.6-4.4 0-3.1 2.3-4.7 6.3-4.7h2.4v-1.2c0-2.1-1-3-3.1-3-1.3 0-2.7.3-3.9.8l-.5-1.7c1.6-.6 3.2-1 4.9-1 3.4 0 5 1.8 5 4.8v6.7c-.2 1.4.3 1.8 1 2.1zm-3.5-2.5v-3.5h-2.1c-2.7 0-4.1 1-4.1 3.1 0 1.8.9 2.7 2.6 2.7 1.6.1 2.8-.7 3.6-2.3zm19.4-3.5c0 4.6-2.1 7.6-5.6 7.6-1.6 0-3-.7-3.9-2l-.2 1.7h-2v-20.3l2.3-.3v8c.9-1.4 2.5-2.2 4.2-2.2 3.1 0 5.2 2.7 5.2 7.5zm-2.5 0c0-4.2-1.3-5.7-3.5-5.7-1.6 0-2.7 1.1-3.5 2.3v7.1c.7 1.2 2 1.9 3.3 2 2.3.1 3.7-1.6 3.7-5.7zm6.5 4.6v-17.6l2.3-.3V299c0 .8.3 1.2 1 1.2.3 0 .7-.1 1-.2l.6 1.6c-.6.3-1.3.5-1.9.5-1.8 0-3-1-3-3zm18.9-3.7h-9.3c.2 3.5 1.9 4.9 4 4.9 1.4 0 2.7-.4 3.8-1.3l1 1.4c-1.4 1.2-3.2 1.8-5 1.8-4 0-6.3-2.8-6.3-7.4s2.3-7.7 5.9-7.7c3.9 0 5.9 2.7 5.9 7.1.1.4 0 .9 0 1.2zm-2.2-1.9c0-3-1.2-4.6-3.5-4.6-2 0-3.4 1.4-3.5 4.8h7.1v-.2zM14.5 315.1c0 .9-.7 1.6-1.5 1.6h-.1c-.9.1-1.6-.6-1.7-1.5-.1-.9.6-1.6 1.5-1.7h.2c.9-.1 1.6.6 1.6 1.5v.1zm-.5 19.7h-2.3v-14.5H14v14.5zm16.1-10.4v10.4h-2.3v-10c0-2.2-.9-3-2.4-3-1.7 0-2.9 1.1-3.9 2.7v10.3h-2.3v-14.5h2l.2 2.2c1-1.6 2.7-2.5 4.5-2.5 2.7 0 4.2 1.7 4.2 4.4zm21.2-2.7l-1 1.5c-1.1-.8-2.4-1.3-3.8-1.3-1.7 0-2.8.8-2.8 2s.8 1.8 3.2 2.4c3.1.8 4.8 1.9 4.8 4.5 0 3-2.7 4.3-5.6 4.3-2 .1-3.9-.6-5.4-1.9l1.2-1.4c1.2.9 2.6 1.4 4.1 1.4 2 0 3.2-.9 3.2-2.3 0-1.5-.7-2.1-3.6-2.8-3.1-.8-4.4-2.1-4.4-4.2 0-2.3 2.2-3.9 5.1-3.9 1.9 0 3.6.6 5 1.7zm15.8 5.8c0 4.5-2.3 7.6-6.4 7.6s-6.4-3-6.4-7.5 2.3-7.6 6.4-7.6 6.4 2.9 6.4 7.5zm-10.3.1c0 3.8 1.4 5.7 3.9 5.7s3.9-1.8 3.9-5.7c0-3.9-1.4-5.7-3.9-5.7s-3.9 1.8-3.9 5.7zm32.8-3.2v10.4h-2.3v-10c0-2.2-.9-3-2.1-3-1.6 0-2.5 1.1-3.5 2.7v10.3h-2.3v-10c0-2.2-.9-3-2.1-3-1.6 0-2.6 1.1-3.5 2.7v10.3h-2.3v-14.5h2l.2 2.2c.9-1.5 2.5-2.5 4.3-2.5 1.7-.1 3.2 1 3.6 2.7 1-1.6 2.4-2.7 4.3-2.7 2.2 0 3.7 1.7 3.7 4.4zm15.9 4h-9.3c.2 3.5 1.9 4.9 4 4.9 1.4 0 2.7-.4 3.8-1.3l1 1.4c-1.4 1.2-3.2 1.8-5 1.8-4 0-6.3-2.8-6.3-7.4s2.2-7.7 5.9-7.7c3.9 0 5.9 2.7 5.9 7.1v1.2zm-2.2-2c0-2.9-1.2-4.6-3.5-4.6-2 0-3.4 1.4-3.5 4.8h7.1v-.2zm22.4-4.7l-1 1.5c-1.1-.8-2.4-1.2-3.8-1.3-1.7 0-2.8.8-2.8 2s.8 1.8 3.2 2.4c3.1.8 4.8 1.9 4.8 4.5 0 3-2.7 4.3-5.6 4.3-2 .1-3.9-.6-5.4-1.9l1.2-1.4c1.2.9 2.6 1.4 4.1 1.4 1.9 0 3.2-.9 3.2-2.3 0-1.5-.7-2.1-3.6-2.8-3.1-.8-4.4-2.1-4.4-4.2 0-2.3 2.2-3.9 5.1-3.9 1.9 0 3.6.6 5 1.7zm14.8 11.8l-.6 1.6c-1.3 0-2.4-.9-2.7-2.2-.9 1.5-2.6 2.3-4.3 2.2-2.9 0-4.6-1.8-4.6-4.4 0-3.1 2.3-4.7 6.3-4.7h2.4v-1.1c0-2.1-1-3-3.1-3-1.3 0-2.7.3-3.9.8l-.6-1.7c1.6-.6 3.2-1 4.9-1 3.4 0 5 1.8 5 4.8v6.7c0 1.3.4 1.7 1.2 2zM137 331v-3.5h-2.1c-2.7 0-4.1 1-4.1 3.1 0 1.8.9 2.7 2.6 2.7 1.6.1 2.7-.7 3.6-2.3zm18.4-6.6v10.4h-2.3v-10c0-2.2-.9-3-2.4-3-1.7 0-2.9 1.1-3.9 2.7v10.3h-2.3v-14.5h2l.2 2.2c1-1.6 2.7-2.5 4.5-2.5 2.7 0 4.2 1.7 4.2 4.4zm13.8-2.7l-1 1.5c-1.1-.8-2.4-1.2-3.8-1.3-1.7 0-2.8.8-2.8 2s.8 1.8 3.2 2.4c3.1.8 4.8 1.9 4.8 4.5 0 3-2.7 4.3-5.6 4.3-2 .1-3.9-.6-5.4-1.9l1.2-1.4c1.2.9 2.6 1.4 4.1 1.4 1.9 0 3.2-.9 3.2-2.3 0-1.5-.7-2.1-3.6-2.8-3.1-.8-4.4-2.1-4.4-4.2 0-2.3 2.2-3.9 5.1-3.9 1.9 0 3.6.6 5 1.7zm2.9 3.5h7.7v2h-7.7v-2zm20.7-3.5l-1 1.5c-1.1-.8-2.4-1.2-3.8-1.3-1.7 0-2.8.8-2.8 2s.8 1.8 3.2 2.4c3.1.8 4.8 1.9 4.8 4.5 0 3-2.7 4.3-5.6 4.3-2 .1-3.9-.6-5.4-1.9l1.2-1.4c1.2.9 2.6 1.4 4.1 1.4 2 0 3.2-.9 3.2-2.3 0-1.5-.7-2.1-3.6-2.8-3.1-.8-4.4-2.1-4.4-4.2 0-2.3 2.2-3.9 5.1-3.9 1.9 0 3.6.6 5 1.7zm14.8 6.7h-9.3c.2 3.5 1.9 4.9 4 4.9 1.4 0 2.7-.4 3.8-1.3l1 1.4c-1.4 1.2-3.2 1.8-5 1.8-4 0-6.3-2.8-6.3-7.4s2.3-7.7 5.9-7.7c3.9 0 5.9 2.7 5.9 7.1v1.2zm-2.2-2c0-2.9-1.2-4.6-3.5-4.6-2 0-3.4 1.4-3.5 4.8h7.1v-.2zm13.9-6.2l-.4 2.3c-.4-.1-.8-.2-1.3-.2-1.8 0-2.9 1.3-3.5 4.1v8.4h-2.3v-14.5h2l.2 3c.7-2.2 2.1-3.4 3.9-3.4.4.1.9.2 1.4.3zm5.6-5.1c-.1.9-.8 1.6-1.7 1.5-.8-.1-1.5-.7-1.5-1.5.1-.9.8-1.6 1.7-1.5.8 0 1.5.7 1.5 1.5zm-.4 19.7h-2.3v-14.5h2.3v14.5zm7.8-16.5v2.1h3.6l-.3 1.8h-3.3v12.7H230v-12.7h-2.6v-1.8h2.6v-2.1c0-2.4 1.6-4 4.4-4 1.2 0 2.4.2 3.4.7l-.7 1.7c-.8-.4-1.7-.5-2.6-.5-1.6-.1-2.2.6-2.2 2.1zm21.1 15.9c-.9.6-2.1 1-3.2 1-2.4 0-3.8-1.4-3.8-4v-9h-2.5v-1.8h2.5V317l2.3-.3v3.6h3.5l-.2 1.8h-3.2v8.9c0 1.5.5 2.2 1.8 2.2.7 0 1.4-.2 2-.6l.8 1.6zm8.1.7c-1 3.1-2.6 5.2-6.5 5.7l-.3-1.8c3-.6 3.7-1.7 4.6-4h-.8l-4.9-14.5h2.5l4 12.8 3.9-12.8h2.4l-4.9 14.6zm19.6-7.4c0 4.4-2 7.6-5.6 7.6-1.5.1-2.9-.6-3.9-1.7v6.9l-2.3.3v-20.3h2l.2 2c1-1.5 2.6-2.3 4.3-2.3 3.7 0 5.3 3 5.3 7.5zm-2.6 0c0-3.9-1.1-5.7-3.4-5.7-1.6 0-2.8 1.1-3.6 2.3v7.2c.7 1.2 2 1.9 3.3 1.9 2.5 0 3.8-1.8 3.7-5.7zm17.5.9h-9.3c.2 3.5 1.9 4.9 4 4.9 1.4 0 2.7-.4 3.8-1.3l1 1.4c-1.4 1.2-3.2 1.8-5 1.8-4 0-6.3-2.8-6.3-7.4s2.3-7.7 5.9-7.7c3.9 0 5.9 2.7 5.9 7.1.1.4.1.9 0 1.2zm-2.2-2c0-2.9-1.2-4.6-3.5-4.6-2 0-3.4 1.4-3.5 4.8h7.1v-.2zm8.4 6.9c0 1-.7 1.8-1.7 1.8h-.1c-1-.1-1.7-.9-1.7-1.9.1-.9.8-1.6 1.7-1.7 1 .1 1.8.8 1.8 1.8z"/><path d="M53.1 378.1h-2.3v-15.9l-4.4 2.7-1-1.6 5.6-3.5h2v18.3zm22.1-13.6c0 3.5-2.2 5.9-7.9 11.7h8.4l-.3 1.9H64.7v-1.8c6.5-6.9 8.1-8.7 8.1-11.7.1-1.6-1.1-3-2.7-3.2h-.4c-1.6 0-2.7.7-3.9 2l-1.5-1.2c1.3-1.7 3.3-2.8 5.5-2.7 3.4 0 5.4 2.1 5.4 5zm20.8-.4c0 2.4-1.5 3.8-3.6 4.2 2.3 0 4.2 2 4.2 4.3v.2c0 3.2-2.4 5.6-6.2 5.6-2.1.1-4.1-.8-5.5-2.4l1.4-1.3c1 1.2 2.5 1.8 4 1.8 2.4 0 3.8-1.5 3.8-3.7 0-2.6-1.5-3.4-3.7-3.4H89l.3-1.8h.9c1.8.1 3.3-1.2 3.4-2.9v-.4c0-1.8-1.2-3-3.2-3-1.5 0-2.8.6-3.9 1.7l-1.2-1.4c1.4-1.4 3.3-2.1 5.2-2.1 3.6 0 5.5 2.1 5.5 4.6zm23.1 9.4h-2.4v4.6h-2.3v-4.6h-7.9v-1.7l5.6-12.4 1.9.8-5 11.4h5.5l.2-5h2v5h2.4v1.9zm19.8-11.9h-7.3v5.6c.9-.5 2-.7 3-.7 3.1 0 5.2 2.2 5.2 5.8 0 3.6-2.5 6.2-6.3 6.2-2 0-4-.8-5.4-2.3l1.4-1.3c1 1.1 2.5 1.8 4 1.7 2.4 0 3.9-1.6 3.9-4.4 0-2.8-1.5-3.9-3.5-3.9-.9 0-1.9.2-2.7.7h-1.8v-9.2h9.8l-.3 1.8zm23 10.3c0 4-2.5 6.5-5.7 6.5-4.4 0-6.1-3.7-6.1-8.9 0-6.1 2.6-10.1 6.8-10.1 1.3 0 2.6.4 3.7 1.1l-.9 1.5c-.9-.5-1.8-.8-2.8-.8-2.8 0-4.4 2.9-4.5 7.2 1-1.5 2.7-2.5 4.5-2.5 2.7.2 5 2.1 5 6zm-2.3.1c0-3-1.3-4-3.1-4s-3.1 1-4.1 2.6c.1 4 1.2 6.1 3.7 6.1 2.3-.1 3.5-2 3.5-4.7zm22.1-10.5l-7 16.9-2.1-.7 6.7-16H171v-1.9h10.6l.1 1.7zm22 11.7c0 3.1-2.6 5.2-6.3 5.2s-6.2-2.1-6.2-5.2c0-2.4 1.4-3.9 3.7-4.8-2-1-3-2.4-3-4.3 0-3.1 2.7-4.7 5.5-4.7s5.5 1.5 5.5 4.6c0 1.9-1 3.1-3.2 4.2 2.7 1.1 4 2.7 4 5zm-2.4 0c0-2-1.1-3-4-4l-.7-.3c-2 .9-2.9 2.2-2.9 4.2s1.5 3.3 3.8 3.3 3.8-1.1 3.8-3.2zm-7-9c0 1.9 1.2 2.6 3.4 3.4l.6.2c1.7-1 2.5-2 2.5-3.5 0-1.8-1.2-3-3.2-3-2.1-.1-3.3 1-3.3 2.9zm31 2.5c0 7.5-3 10.1-9.6 12l-.6-1.7c4.7-1.3 7.6-3.5 7.8-7.8-.9 1.4-2.5 2.3-4.2 2.3-2.9 0-5.1-2.3-5.1-5.9 0-3.8 2.6-6 5.8-6 4-.1 5.9 2.7 5.9 7.1zm-2.3.5c.1-4.2-1-5.9-3.4-5.9-2.2 0-3.5 1.5-3.5 4.3 0 2.7 1.3 4 3.2 4 1.5 0 2.7-.9 3.7-2.4zm24.9 1.8c0 6.1-2 9.5-6 9.5s-6-3.4-6-9.5 2-9.5 6-9.5c3.9 0 6 3.3 6 9.5zm-9.8 0c0 5.5 1.3 7.7 3.7 7.7 2.4 0 3.7-2.2 3.7-7.6s-1.3-7.6-3.7-7.6c-2.3-.1-3.7 2-3.7 7.5zm-185 42.1h-2.3v-13l-4.4 2.6-1-1.6 5.7-3.5h2v15.5zm21.9-11c0 2.6-.8 4.5-7.8 9h8.1l-.3 2H64.2v-1.8c7.5-5.4 8.4-6.8 8.4-9 0-1.8-1.3-3-3.2-3-1.6 0-2.8.6-4.1 2.2l-1.5-1.2c1.3-1.8 3.4-2.9 5.6-2.9 3.5 0 5.6 2.1 5.6 4.7zm20.8-.2c0 2.2-1.5 3.7-3.6 4.1 2.4.3 4.2 1.7 4.2 4.6 0 3.2-2.4 5.6-6.3 5.6-2.1.1-4.1-.8-5.5-2.4l1.4-1.3c1 1.2 2.5 1.9 4 1.8 2.5 0 3.9-1.5 3.9-3.8 0-2.5-1.4-3.5-3.9-3.5h-1.4l.3-1.8h1c2 0 3.5-1.1 3.5-3.2 0-1.8-1.2-2.9-3.3-2.9-1.5 0-2.9.6-3.9 1.7l-1.2-1.4c1.4-1.4 3.3-2.2 5.3-2.1 3.6.1 5.5 2.2 5.5 4.6zm22.7 10.1h-2.3v4.1H114V410h-8.4v-1.6l5.6-13 1.9.8-5 12h6l.2-5.1h2v5.1h2.3l-.1 1.8zm18.6-12.5h-7.2v5.6c.9-.5 2-.8 3-.7 3.1 0 5.2 2.2 5.2 5.8s-2.5 6.2-6.3 6.2c-2 0-4-.8-5.4-2.3l1.3-1.3c1 1.1 2.5 1.8 4 1.8 2.4 0 3.9-1.6 3.9-4.4 0-2.8-1.5-3.9-3.5-3.9-.9 0-1.9.2-2.7.7h-1.8v-9.2h9.8l-.3 1.7zm23.2 7.4c0 4-2.6 6.5-5.9 6.5-4.5 0-6.2-3.7-6.2-8.9 0-6.1 2.6-10.1 7-10.1 1.3 0 2.7.4 3.8 1.1l-.9 1.5c-.9-.5-1.8-.8-2.9-.8-3 0-4.6 2.9-4.7 7.3 1-1.6 2.7-2.6 4.6-2.5 2.8.1 5.2 2 5.2 5.9zm-2.4.1c0-3-1.3-4-3.2-4-1.8 0-3.2 1.1-4.2 2.6.1 4 1.2 6 3.9 6 2.3 0 3.5-1.9 3.5-4.6zm22.2-7.6l-6.8 17-2.1-.7 6.6-16.1h-8.5v-1.9h10.9v1.7zm22.1 8.8c0 3.1-2.6 5.2-6.3 5.2s-6.2-2.1-6.2-5.2c0-2.4 1.4-3.9 3.7-4.8-2-1-3-2.4-3-4.3 0-3.1 2.7-4.7 5.5-4.7s5.5 1.5 5.5 4.6c0 1.9-1 3.1-3.2 4.2 2.7 1.2 4 2.7 4 5zm-2.4 0c0-2-1.1-2.9-4-4l-.7-.2c-2 .9-2.9 2.2-2.9 4.2s1.5 3.3 3.8 3.3 3.8-1.2 3.8-3.3zm-7-9c0 1.9 1.2 2.6 3.4 3.4l.6.2c1.7-.9 2.4-1.9 2.4-3.5 0-1.8-1.2-3-3.2-3s-3.2 1-3.2 2.9zm31.1 5.3c0 7.1-3.1 9.9-9.7 11.9l-.6-1.7c4.7-1.3 7.6-3.7 7.8-7.6-1 1.4-2.5 2.2-4.2 2.2-2.9 0-5.1-2.2-5.1-5.9 0-3.8 2.6-6 5.8-6 4 0 6 2.8 6 7.1zm-2.4.5c.1-4.1-1-5.8-3.4-5.8-2.2 0-3.5 1.5-3.5 4.2s1.3 4 3.2 4c1.6 0 2.8-.9 3.7-2.4zm26.6.4c0 5.1-3 8-7.1 8s-7.1-3-7.1-8c0-5.1 3-8 7.1-8s7.1 2.9 7.1 8zm-11.9 0c0 4.4 2.3 6.2 4.8 6.2s4.8-1.8 4.8-6.2-2.3-6.2-4.8-6.2-4.8 1.7-4.8 6.2z" class="st1"/><path d="M381.6 207.8c-.2.8-1 3.7-1.3 4.6h-12.8v-.7c2.5-.3 2.7-.4 2.7-2.7v-10.9c0-2.3-.3-2.5-2.5-2.7v-.8h7.4v.8c-2.2.2-2.5.3-2.5 2.7v11.2c0 1.7.2 2.1 1.8 2.1h2.2c1.4 0 1.8-.2 2.4-.8.7-.8 1.3-1.8 1.7-2.8h.9zm8.2-7.9c3.3-.1 5.9 2.5 6 5.8v.4c0 4.4-3.3 6.6-6 6.6-3.3 0-6.1-2.6-6.1-6v-.2c-.2-3.5 2.5-6.4 6-6.6h.1zm-.3 1c-1.7 0-3.2 1.6-3.2 4.8 0 3.5 1.5 6 3.8 6 1.7 0 3.1-1.2 3.1-5 0-3.2-1.3-5.8-3.7-5.8zm14.4 11.4h-6.3v-.7c1.7-.2 1.9-.3 1.9-2.1v-5.7c0-1.8-.1-1.9-1.7-2.1v-.7c1.3-.2 2.6-.6 3.9-1.1v3c1-1.4 2.1-3 3.5-3 .8-.1 1.5.4 1.6 1.2v.1c0 .6-.4 1.2-.9 1.5-.2.2-.5.2-.7-.1-.3-.4-.7-.6-1.2-.7-.6 0-1.6.9-2.2 2.3v5.2c0 1.8.1 2 2.2 2.1l-.1.8zm13.8-2.3c-1.8 2.2-3.7 2.7-4.6 2.7-3.3 0-5.4-2.8-5.4-5.9 0-1.8.6-3.5 1.8-4.8 1-1.2 2.5-1.9 4.1-2 2.3 0 4.2 1.9 4.2 4.3 0 .5-.1.8-.6.9-.4.1-4.1.4-7.3.5-.1 3.7 2.2 5.2 4.1 5.2 1.2 0 2.3-.5 3.2-1.4l.5.5zm-4.8-9c-1.3 0-2.5 1.2-2.9 3.4 1.5 0 3.1 0 4.7-.1.5 0 .7-.1.7-.6.1-1.4-.9-2.6-2.3-2.8-.1.1-.1.1-.2.1zm21.7 11.3v-.7c1.6-.2 1.8-.3 1.8-2.2v-4.6c0-1.9-.7-3.2-2.4-3.2-1.2.1-2.2.6-3 1.4 0 .3.1.7.1 1.2v5.3c0 1.7.2 1.9 1.8 2v.7H427v-.7c1.7-.2 1.9-.3 1.9-2.1v-4.7c0-2-.6-3.2-2.3-3.2-1.1.1-2.2.6-3 1.4v6.5c0 1.8.2 1.9 1.8 2.1v.7h-5.9v-.7c1.8-.2 2-.3 2-2.1v-5.7c0-1.8-.1-1.9-1.7-2.1v-.7c1.3-.2 2.6-.6 3.8-1.1v2.2c.6-.5 1.3-1 2-1.4.6-.5 1.4-.7 2.2-.7 1.4 0 2.6.9 3 2.3.7-.6 1.5-1.1 2.2-1.5.6-.4 1.4-.7 2.2-.7 2.1 0 3.5 1.5 3.5 4.2v5.3c0 1.8.2 1.9 1.7 2.1v.7h-5.8zm13.7 0v-.7c1.7-.2 1.9-.3 1.9-2.2v-5.7c0-1.7-.1-1.8-1.7-2.1v-.6c1.3-.2 2.6-.6 3.9-1.1v9.5c0 1.9.2 2 2 2.2v.7h-6.1zm2.9-15.1c-.8 0-1.5-.7-1.5-1.5s.6-1.5 1.4-1.5c.8 0 1.4.7 1.4 1.5v.1c.1.7-.5 1.3-1.3 1.4zm4.3 3.6c1.4-.2 2.7-.6 4-1.2v2.2c.1-.1 2.3-1.3 2.4-1.4.5-.3 1-.5 1.6-.6 3 0 4.9 2.5 4.9 5.3 0 4.2-3.3 6.8-6.9 7.5-.7 0-1.3-.2-2-.5v3.7c0 2 .2 2.2 2.3 2.4v.8h-6.5v-.8c1.8-.2 2-.3 2-2.2v-12.5c0-1.7-.1-1.8-1.8-2v-.7zm4 9.4c.7.7 1.6 1 2.6 1.1 2.4 0 3.9-2 3.9-5.1s-1.7-4.6-3.7-4.6c-1 .1-2 .5-2.9 1.2l.1 7.4zm18.1-6.7c-.5-1.6-1.2-2.7-2.9-2.7-.9 0-1.7.7-1.7 1.6v.2c0 1.2.8 1.7 2.3 2.4 2.4 1.1 3.5 2 3.5 3.8 0 2.5-2.3 3.8-4.5 3.8-1.1 0-2.3-.2-3.3-.7-.1-.8-.4-2.3-.5-3.2l.8-.1c.5 1.8 1.5 3.2 3.4 3.2 1 0 1.9-.7 1.9-1.7v-.1c0-1.2-.7-1.9-2.2-2.6-1.9-.9-3.5-1.8-3.5-3.8 0-2 1.7-3.5 4.3-3.5.9 0 1.8.2 2.6.4.1.7.3 2.4.4 3h-.6zm16.2 8.2c-1.4.2-2.8.5-4.2 1v-2.1c-1.5 1.2-2.7 2.1-4.2 2.1-1.8 0-3.4-1.1-3.4-4.1v-5.4c0-1.5-.2-1.7-.9-1.8l-.7-.1v-.7c1.3-.1 2.6-.3 3.9-.5-.1.9-.1 2.2-.1 4v3.7c0 2.4 1.3 3.1 2.5 3.1 1.1 0 2.2-.5 3-1.3v-6.4c0-1.5-.3-1.7-1.3-1.8l-.9-.1v-.7c1.4-.1 2.9-.2 4.3-.5v9.2c0 1.4.2 1.6 1.3 1.6h.7v.8zm16.4.6v-.7c1.6-.2 1.8-.3 1.8-2.2v-4.6c0-1.9-.7-3.2-2.4-3.2-1.2.1-2.2.6-3.1 1.4 0 .4.1.8.1 1.2v5.3c0 1.7.3 1.9 1.8 2v.7h-5.9v-.7c1.7-.2 2-.3 2-2.1v-4.7c0-2-.6-3.2-2.3-3.2-1.1.1-2.2.6-3 1.4v6.5c0 1.8.2 1.9 1.8 2.1v.7h-6v-.7c1.8-.2 2-.3 2-2.1v-5.7c0-1.8-.1-1.9-1.7-2.1v-.7c1.3-.2 2.6-.6 3.8-1.1v2.2c.6-.5 1.3-1 2-1.4.6-.5 1.4-.7 2.2-.7 1.4 0 2.6.9 3 2.3.7-.6 1.5-1.1 2.2-1.5.6-.4 1.4-.7 2.2-.7 2.1 0 3.5 1.5 3.5 4.2v5.3c0 1.8.2 1.9 1.7 2.1v.7h-5.7zm27.2-.7c-1.4.2-2.9.6-4.3 1v-1.8c-.5.3-1.2.7-1.7 1-.7.4-1.4.7-2.2.8-2.2 0-5.1-2.2-5.1-6s3.4-6.7 7.1-6.7c.6 0 1.3.1 1.9.3v-4c0-1.8-.2-1.8-2.1-2v-.7c1.5-.2 2.9-.5 4.3-.9v16.6c0 1.4.2 1.6 1.2 1.7l.9.1v.6zm-4.3-9.2c-.7-.9-1.8-1.4-2.9-1.4-1.3 0-3.7.9-3.7 4.8 0 3.3 2.1 5.1 3.8 5.1 1-.1 1.9-.4 2.7-1l.1-7.5zm11.8-2.5c3.3-.1 5.9 2.5 6 5.8v.4c0 4.4-3.3 6.6-6 6.6-3.3 0-6.1-2.6-6.1-6v-.2c-.2-3.5 2.5-6.4 6-6.6h.1zm-.4 1c-1.7 0-3.2 1.6-3.2 4.8 0 3.5 1.5 6 3.8 6 1.7 0 3.1-1.2 3.1-5 .1-3.2-1.3-5.8-3.7-5.8zm7.9 11.4v-.7c1.8-.2 2-.3 2-2.1v-13.2c0-1.7-.1-1.8-1.9-2.1v-.7c1.4-.2 2.8-.5 4.1-.9v16.9c0 1.8.2 2 2 2.1v.7h-6.2zm13.7-12.4c3.3-.1 5.9 2.5 6 5.8v.4c0 4.4-3.3 6.6-6 6.6-3.3 0-6.1-2.6-6.1-6v-.2c-.2-3.5 2.5-6.4 6-6.6h.1zm-.3 1c-1.7 0-3.2 1.6-3.2 4.8 0 3.5 1.5 6 3.8 6 1.7 0 3.1-1.2 3.1-5 0-3.2-1.3-5.8-3.7-5.8zm14.4 11.4h-6.3v-.7c1.7-.2 1.9-.3 1.9-2.1v-5.7c0-1.8-.1-1.9-1.7-2.1v-.7c1.3-.2 2.6-.6 3.9-1.1v3c1-1.4 2.1-3 3.5-3 .8-.1 1.5.4 1.6 1.2v.1c0 .6-.4 1.2-.9 1.5-.2.2-.5.2-.7-.1-.3-.4-.7-.6-1.2-.7-.6 0-1.6.9-2.2 2.3v5.2c0 1.8.1 2 2.2 2.1l-.1.8zm17.5-8.8c-.5-1.6-1.2-2.7-2.9-2.7-.9 0-1.7.7-1.7 1.6v.2c0 1.2.8 1.7 2.3 2.4 2.4 1.1 3.5 2 3.5 3.8 0 2.5-2.3 3.8-4.5 3.8-1.1 0-2.3-.2-3.3-.7-.1-.8-.4-2.3-.5-3.2l.8-.1c.5 1.8 1.5 3.2 3.4 3.2 1 0 1.9-.7 1.9-1.7v-.1c0-1.2-.7-1.9-2.2-2.6-1.9-.9-3.5-1.8-3.5-3.8 0-2 1.7-3.5 4.3-3.5.9 0 1.8.2 2.6.4.1.7.3 2.4.4 3h-.6zm3 8.8v-.7c1.7-.2 1.9-.3 1.9-2.2v-5.7c0-1.7-.1-1.8-1.7-2.1v-.6c1.3-.2 2.6-.6 3.9-1.1v9.5c0 1.9.2 2 2 2.2v.7h-6.1zm2.9-15.1c-.8 0-1.5-.7-1.5-1.5s.6-1.5 1.4-1.5c.8 0 1.4.7 1.4 1.5v.1c.1.7-.5 1.3-1.3 1.4zm9.8 15.1c-.4.2-.8.3-1.2.4-1.8 0-2.7-1.1-2.7-3.3v-8h-1.9l-.1-.3.7-.8h1.3V198c.5-.6 1.3-1.3 1.8-1.8l.4.1c-.1 1.2-.1 2.8-.1 4.1h3.1c.2.4.2.8-.2 1.1h-3v7c0 2.2.9 2.6 1.6 2.6.6 0 1.2-.2 1.7-.4l.2.7-1.6.9zm18.2.3c-.5 0-.9-.2-1.3-.5-.3-.3-.6-.8-.7-1.2-1.1.7-2.4 1.8-3.3 1.8-1.9 0-3.4-1.5-3.4-3.4 0-1.3.7-2.2 2.3-2.8 1.7-.6 3.7-1.3 4.3-1.8v-.5c0-2-1-3.1-2.4-3.1-.5 0-1 .2-1.3.6-.3.6-.6 1.2-.7 1.8-.1.4-.4.7-.8.6-.6-.1-1.2-.6-1.2-1.2 0-.4.4-.7.9-1.1 1.2-.9 2.5-1.5 4-1.9 2 0 3.7 1.5 3.7 3.5v5.7c0 1.3.5 1.6 1 1.6.4 0 .7-.1 1-.3l.3.7-2.4 1.5zm-2-6.9c-.6.3-1.9.9-2.6 1.2-1 .5-1.7 1-1.7 2-.1 1.1.8 2 1.9 2.1h.1c.8-.1 1.6-.4 2.3-1v-4.3zm20.6 6.6v-.7c1.6-.2 1.8-.3 1.8-2.2v-4.6c0-1.9-.7-3.2-2.4-3.2-1.2.1-2.2.6-3.1 1.4 0 .3.1.7.1 1.2v5.3c0 1.7.2 1.9 1.8 2v.7h-5.9v-.7c1.7-.2 1.9-.3 1.9-2.1v-4.7c0-2-.6-3.2-2.3-3.2-1.1.1-2.2.6-3 1.4v6.5c0 1.8.2 1.9 1.8 2.1v.7H635v-.7c1.8-.2 2-.3 2-2.1v-5.7c0-1.8-.1-1.9-1.7-2.1v-.7c1.3-.2 2.6-.6 3.8-1.1v2.2c.6-.5 1.3-1 2-1.4.6-.5 1.4-.7 2.2-.7 1.4 0 2.6.9 3 2.3.7-.6 1.5-1.1 2.2-1.5.6-.4 1.4-.7 2.2-.7 2.1 0 3.5 1.5 3.5 4.2v5.3c0 1.8.2 1.9 1.7 2.1v.7h-5.7zm17.4-2.3c-1.8 2.2-3.7 2.7-4.6 2.7-3.4 0-5.4-2.8-5.4-5.9 0-1.8.6-3.5 1.8-4.8 1-1.2 2.5-1.9 4.1-2 2.3 0 4.2 1.9 4.2 4.3 0 .5-.1.8-.6.9-.4.1-4.1.4-7.3.5-.1 3.7 2.2 5.2 4.1 5.2 1.2 0 2.3-.5 3.2-1.4l.5.5zm-4.7-9c-1.3 0-2.5 1.2-2.9 3.4 1.5 0 3.1 0 4.7-.1.5 0 .7-.1.7-.6.1-1.4-.9-2.6-2.3-2.8l-.2.1zm12.1 11.3c-.4.2-.8.3-1.2.4-1.8 0-2.7-1.1-2.7-3.3v-8h-1.9l-.1-.3.7-.8h1.3V198c.5-.6 1.3-1.3 1.8-1.8l.4.1c-.1 1.2-.1 2.8-.1 4.1h3.1c.2.4.2.8-.2 1.1h-3v7c0 2.2.9 2.6 1.6 2.6.6 0 1.2-.2 1.7-.4l.3.7-1.7.9zm3.8 2.5c1.2-.6 2.2-1.3 2.2-2.4 0-1-.8-1.2-1.8-1.5-.3-.2-.5-.5-.4-.9 0-.8.7-1.4 1.4-1.4h.1c1 0 2.3.9 2.3 2.9 0 2.2-1.9 3.5-3.5 4l-.3-.7zm21.9-2.2c-.5 0-.9-.2-1.3-.5-.3-.3-.6-.8-.7-1.2-1.1.7-2.4 1.8-3.3 1.8-1.9 0-3.4-1.5-3.4-3.4 0-1.3.7-2.2 2.3-2.8 1.7-.6 3.7-1.3 4.3-1.8v-.5c0-2-1-3.1-2.4-3.1-.5 0-1 .2-1.3.6-.3.5-.6 1.2-.7 1.8-.1.4-.4.7-.8.6-.6-.1-1.2-.6-1.2-1.2 0-.4.4-.7.9-1.1 1.2-.9 2.5-1.5 4-1.9 2 0 3.7 1.6 3.7 3.6v5.7c0 1.3.5 1.6 1 1.6.3 0 .7-.1 1-.3l.3.7-2.4 1.4zm-2-6.9c-.6.3-1.9.9-2.6 1.2-1 .5-1.7 1-1.7 2-.1 1.1.8 2.1 1.9 2.1h.1c.8-.1 1.6-.4 2.2-1l.1-4.3zm13.4 6.6v-.7c1.6-.2 1.8-.4 1.8-2.2v-4.5c0-1.9-.7-3.2-2.5-3.2-1.2.1-2.2.6-3 1.4v6.4c0 1.9.2 2 1.8 2.1v.7h-5.9v-.7c1.8-.2 2-.3 2-2.1v-5.7c0-1.8-.2-1.9-1.7-2.1v-.7c1.3-.2 2.6-.6 3.9-1.1v2.2c.5-.4 1.2-.8 1.9-1.3s1.5-.8 2.3-.8c2.2 0 3.6 1.6 3.6 4.3v5.2c0 1.9.2 2 1.8 2.1v.7h-6zm20.6-.7c-1.4.2-2.9.6-4.3 1v-1.8c-.5.3-1.2.7-1.7 1-.7.4-1.4.7-2.2.8-2.2 0-5.1-2.2-5.1-6s3.4-6.7 7.1-6.7c.6 0 1.3.1 1.9.3v-4c0-1.8-.2-1.8-2.1-2v-.7c1.5-.2 2.9-.5 4.3-.9v16.6c0 1.4.2 1.6 1.2 1.7l.9.1v.6zm-4.3-9.2c-.7-.9-1.7-1.4-2.9-1.4-1.3 0-3.7.9-3.7 4.8 0 3.3 2.1 5.1 3.8 5.1 1-.1 1.9-.4 2.7-1l.1-7.5zm-350.6 40.4c-1.2 1.6-3 2.8-4.7 2.8-3.5 0-5.6-2.8-5.6-5.8 0-2.1 1-4.2 2.8-5.4 1.2-.9 2.7-1.5 4.2-1.6.9 0 1.8.2 2.6.7.3.2.5.5.4.8 0 .6-.4 1.1-1 1.2-.1 0-.2-.1-.5-.3-.7-.7-1.7-1.1-2.8-1.2-1.8 0-3.4 1.5-3.4 4.4 0 3.8 2.6 5.1 4.2 5.1 1.3 0 2.5-.5 3.4-1.5l.4.8zm7.6-9.9c3.3-.1 5.9 2.5 6 5.8v.4c0 4.4-3.3 6.6-6 6.6-3.3 0-6.1-2.6-6.1-6v-.2c-.2-3.5 2.5-6.4 6-6.6h.1zm-.3.9c-1.7 0-3.2 1.6-3.2 4.8 0 3.5 1.5 6 3.8 6 1.7 0 3.1-1.2 3.1-5 0-3.1-1.3-5.8-3.7-5.8zm16 11.5v-.7c1.6-.2 1.8-.4 1.8-2.2v-4.6c0-1.9-.7-3.2-2.5-3.2-1.2.1-2.2.6-3 1.4v6.4c0 1.9.2 1.9 1.8 2.1v.7h-5.9v-.7c1.8-.2 2-.3 2-2.1v-5.7c0-1.8-.2-1.9-1.7-2.1v-.7c1.3-.2 2.6-.6 3.9-1.1v2.2c.5-.4 1.2-.8 1.9-1.3s1.5-.8 2.3-.8c2.2 0 3.6 1.6 3.6 4.3v5.2c0 1.9.2 1.9 1.8 2.1v.7l-6 .1zm14.2-8.8c-.5-1.6-1.2-2.7-2.9-2.7-.9 0-1.7.7-1.7 1.6v.2c0 1.2.8 1.7 2.3 2.4 2.4 1.1 3.5 2 3.5 3.8 0 2.5-2.3 3.8-4.5 3.8-1.1 0-2.3-.3-3.3-.8-.1-.8-.4-2.3-.5-3.2l.8-.1c.5 1.8 1.5 3.2 3.4 3.2 1 0 1.9-.7 1.9-1.7v-.1c0-1.2-.7-1.9-2.2-2.6-1.9-.9-3.5-1.8-3.5-3.8 0-2 1.7-3.5 4.3-3.5.9 0 1.8.2 2.6.4.1.7.3 2.4.4 3.1h-.6zm13.3 6.5c-1.8 2.2-3.7 2.7-4.6 2.7-3.3 0-5.4-2.8-5.4-5.9 0-1.8.6-3.5 1.8-4.8 1-1.2 2.5-1.9 4.1-2 2.3 0 4.2 1.9 4.2 4.3 0 .5-.1.8-.6.9s-4.1.4-7.4.5c-.1 3.7 2.2 5.2 4.1 5.2 1.2 0 2.3-.5 3.2-1.4l.6.5zm-4.7-9c-1.3 0-2.5 1.2-2.9 3.4 1.5 0 3.1 0 4.7-.1.5 0 .7-.1.7-.5.1-1.4-.9-2.6-2.3-2.8h-.2zm17.1 8.8c-1.2 1.6-3.1 2.8-4.7 2.8-3.5 0-5.6-2.8-5.6-5.8 0-2.1 1-4.2 2.8-5.4 1.2-.9 2.7-1.5 4.2-1.6.9 0 1.8.2 2.6.7.3.2.5.5.4.8 0 .6-.4 1.1-1 1.2-.1 0-.3-.1-.5-.3-.7-.7-1.7-1.1-2.8-1.2-1.8 0-3.4 1.5-3.4 4.4 0 3.8 2.6 5.1 4.2 5.1 1.3 0 2.5-.5 3.4-1.5l.4.8zm7.1 2.5c-.4.2-.8.3-1.2.4-1.8 0-2.7-1.1-2.7-3.3v-8h-1.9l-.1-.3.7-.8h1.3V231l1.8-1.8.4.1c-.1 1.2-.1 2.8-.1 4.1h3.1c.2.4.2.8-.2 1.1h-3v7c0 2.2.9 2.6 1.6 2.6.6 0 1.2-.2 1.7-.4l.3.7-1.7.9zm12.6-2.3c-1.8 2.2-3.7 2.7-4.6 2.7-3.4 0-5.4-2.8-5.4-5.9 0-1.8.6-3.5 1.8-4.8 1-1.2 2.5-1.9 4.1-2 2.3 0 4.2 1.9 4.2 4.3 0 .5-.1.8-.6.9-.4.1-4.1.4-7.3.5-.1 3.7 2.2 5.2 4.1 5.2 1.2 0 2.3-.5 3.2-1.4l.5.5zm-4.7-9c-1.3 0-2.5 1.2-2.9 3.4 1.5 0 3.1 0 4.7-.1.5 0 .7-.1.7-.5.1-1.4-.9-2.6-2.3-2.8h-.2zm12.1 11.3c-.4.2-.8.3-1.2.4-1.8 0-2.7-1.1-2.7-3.3v-8h-1.9l-.1-.3.7-.8h1.3V231l1.8-1.8.4.1c-.1 1.2-.1 2.8-.1 4.1h3.1c.2.4.2.8-.2 1.1h-3v7c0 2.2.9 2.6 1.6 2.6.6 0 1.2-.2 1.7-.4l.2.7-1.6.9zm15.9-.6c-1.4.2-2.8.5-4.2 1v-2.1c-1.5 1.2-2.7 2.1-4.2 2.1-1.8 0-3.4-1.1-3.4-4.1v-5.3c0-1.5-.2-1.6-.9-1.8l-.7-.1v-.7c1.3-.1 2.6-.3 3.9-.5-.1.9-.1 2.2-.1 4v3.8c0 2.4 1.3 3.1 2.5 3.1 1.1 0 2.2-.5 3-1.3v-6.4c0-1.5-.3-1.7-1.3-1.8l-.9-.1v-.7c1.4-.1 2.9-.2 4.3-.5v9.3c0 1.4.2 1.6 1.3 1.6h.7v.5zm11.3-1.7c-1.8 2.2-3.7 2.7-4.6 2.7-3.4 0-5.4-2.8-5.4-5.9 0-1.8.6-3.5 1.8-4.8 1-1.2 2.5-1.9 4.1-2 2.3 0 4.2 1.9 4.2 4.3 0 .5-.1.8-.5.9-.6.1-4.1.4-7.4.5-.1 3.7 2.2 5.2 4.1 5.2 1.2 0 2.3-.5 3.2-1.4l.5.5zm-4.7-9c-1.3 0-2.5 1.2-2.9 3.4 1.5 0 3.1 0 4.7-.1.5 0 .7-.1.7-.5.1-1.4-.9-2.6-2.3-2.8h-.2zm12.8 11.3h-6.3v-.7c1.7-.2 1.9-.3 1.9-2.1v-5.7c0-1.8-.1-1.9-1.7-2.1v-.7c1.3-.2 2.6-.6 3.9-1.1v3c1-1.4 2.1-3 3.5-3 .8-.1 1.5.4 1.6 1.2v.1c0 .6-.4 1.2-.9 1.5-.2.2-.5.1-.7-.1-.3-.4-.7-.6-1.2-.7-.6 0-1.6.9-2.2 2.3v5.2c0 1.8.1 1.9 2.2 2.1l-.1.8zm12.1 0v-.8l1.8-.2c1.2-.1 1.4-.4 1.4-1.7v-6.1c0-1.4-.1-1.6-1.2-1.7l-1.7-.1v-.7c1.7-.2 3.4-.6 5-1.2v9.8c0 1.4.1 1.6 1.5 1.7l1.7.2v.8h-8.5zm23.1-11.7c-1.3 2.3-4.8 9-8.4 15.8l-2.1.4-.2-.4c3.1-4.6 5.9-9.3 8.5-14.2h-8.5v-2h10.5l.2.4zm13.4 0c-1.3 2.3-4.8 9-8.4 15.8l-2.1.4-.2-.4c3.1-4.6 5.9-9.3 8.5-14.2h-8.5v-2h10.4l.3.4zm13.1-4.1c-4.3 1.1-6.9 3.6-7.8 6.5l1.6-.6c.6-.3 1.2-.4 1.8-.5 2.6 0 4.7 1.9 4.7 4.9.1 3.1-2.3 5.7-5.4 5.8h-.2c-2.8 0-5.4-2.3-5.4-6.5 0-4.5 3.3-8 7.1-9.6 1.1-.4 2.3-.7 3.4-.9l.2.9zm-5.8 6.9c-.8 0-1.5.2-2.2.6-.2.6-.2 1.3-.2 2 0 3.6 1.5 5.7 3.4 5.7 1.3 0 2.7-1 2.7-3.6 0-2.1-.7-4.7-3.7-4.7zm24.6 6.6c-1.8 2.2-3.7 2.7-4.6 2.7-3.4 0-5.4-2.8-5.4-5.9 0-1.8.6-3.5 1.8-4.8 1-1.2 2.5-1.9 4.1-2 2.3 0 4.2 1.9 4.2 4.3 0 .5-.1.8-.6.9s-4.1.4-7.3.5c-.1 3.7 2.2 5.2 4.1 5.2 1.2 0 2.3-.5 3.2-1.4l.5.5zm-4.7-9c-1.3 0-2.5 1.2-2.9 3.4 1.5 0 3.1 0 4.7-.1.5 0 .7-.1.7-.5.1-1.4-.9-2.6-2.3-2.8h-.2zm6.1 11.3v-.7c1.8-.2 2-.3 2-2.1v-13.2c0-1.7-.1-1.8-1.9-2.1v-.7c1.4-.2 2.7-.5 4.1-.9v16.9c0 1.8.2 1.9 2 2.1v.7h-6.2zm7.5 0v-.7c1.7-.2 1.9-.3 1.9-2.2v-5.7c0-1.7-.1-1.8-1.7-2.1v-.6c1.3-.2 2.6-.6 3.9-1.1v9.5c0 1.9.2 2 2 2.2v.7h-6.1zm2.9-15.1c-.8 0-1.5-.7-1.5-1.5s.7-1.5 1.5-1.5 1.4.7 1.4 1.5-.6 1.4-1.4 1.5zm9.8 15.1c-.4.2-.8.3-1.2.4-1.8 0-2.7-1.1-2.7-3.3v-8h-1.9l-.1-.3.7-.8h1.3V231l1.8-1.8.4.1c-.1 1.2-.1 2.8-.1 4.1h3.1c.2.4.2.8-.2 1.1h-3v7c0 2.2.9 2.6 1.6 2.6.6 0 1.2-.2 1.7-.4l.2.7-1.6.9zm3.9 2.5c1.2-.6 2.2-1.3 2.2-2.4s-.8-1.2-1.8-1.5c-.3-.2-.5-.5-.4-.9 0-.8.7-1.4 1.4-1.4h.1c1 0 2.3.9 2.3 2.9 0 2.2-1.9 3.5-3.5 4l-.3-.7zm20.3-11.3c-.5-1.6-1.2-2.7-2.9-2.7-.9 0-1.7.7-1.7 1.6v.2c0 1.2.8 1.7 2.3 2.4 2.4 1.1 3.5 2 3.5 3.8 0 2.5-2.3 3.8-4.5 3.8-1.1 0-2.3-.3-3.3-.8-.1-.8-.4-2.3-.5-3.2l.8-.1c.5 1.8 1.5 3.2 3.4 3.2 1 0 1.9-.7 1.9-1.7v-.1c0-1.2-.7-1.9-2.2-2.6-1.9-.9-3.5-1.8-3.5-3.8 0-2 1.7-3.5 4.3-3.5.9 0 1.8.2 2.6.4.1.7.3 2.4.4 3.1h-.6zm13.2 6.5c-1.8 2.2-3.7 2.7-4.6 2.7-3.4 0-5.4-2.8-5.4-5.9 0-1.8.6-3.5 1.8-4.8 1-1.2 2.5-1.9 4.1-2 2.3 0 4.2 1.9 4.2 4.3 0 .5-.1.8-.6.9s-4.1.4-7.3.5c-.1 3.7 2.2 5.2 4.1 5.2 1.2 0 2.3-.5 3.2-1.4l.5.5zm-4.7-9c-1.3 0-2.5 1.2-2.9 3.4 1.5 0 3.1 0 4.7-.1.5 0 .7-.1.7-.5.1-1.4-.9-2.6-2.3-2.8h-.2zm20.2 10.6c-1.4.2-2.9.6-4.3 1v-1.8c-.5.3-1.2.7-1.7 1-.7.4-1.4.7-2.2.8-2.2 0-5.1-2.2-5.1-6s3.4-6.7 7.1-6.7c.6 0 1.3.1 1.9.3v-4c0-1.8-.2-1.8-2.1-2v-.7c1.5-.2 2.9-.5 4.3-.9v16.6c0 1.4.2 1.6 1.2 1.7l.9.1v.6zm-4.3-9.2c-.7-.9-1.8-1.4-2.9-1.4-1.3 0-3.7.9-3.7 4.8 0 3.3 2.1 5.1 3.8 5.1 1-.1 1.9-.4 2.7-1l.1-7.5zm25.4 9.2c-1.4.2-2.9.6-4.3 1v-1.8c-.5.3-1.2.7-1.7 1-.7.4-1.4.7-2.2.8-2.2 0-5.1-2.2-5.1-6s3.4-6.7 7.1-6.7c.6 0 1.3.1 1.9.3v-4c0-1.8-.2-1.8-2.1-2v-.7c1.5-.2 2.9-.5 4.3-.9v16.6c0 1.4.2 1.6 1.2 1.7l.9.1v.6zm-4.3-9.2c-.7-.9-1.8-1.4-2.9-1.4-1.3 0-3.7.9-3.7 4.8 0 3.3 2.1 5.1 3.8 5.1 1-.1 1.9-.4 2.7-1l.1-7.5zm5.6 9.9v-.7c1.7-.2 1.9-.3 1.9-2.2v-5.7c0-1.7-.1-1.8-1.7-2.1v-.6c1.3-.2 2.6-.6 3.9-1.1v9.5c0 1.9.2 2 2 2.2v.7h-6.1zm2.8-15.1c-.8 0-1.5-.7-1.5-1.5s.7-1.5 1.5-1.5 1.4.7 1.4 1.5-.6 1.4-1.4 1.5zm13.3 15.5c-.5 0-.9-.2-1.3-.5-.3-.3-.6-.8-.7-1.2-1.1.7-2.4 1.8-3.3 1.8-1.9 0-3.4-1.5-3.3-3.4 0-1.3.7-2.2 2.2-2.8 1.7-.6 3.7-1.3 4.3-1.8v-.5c0-2-1-3.1-2.4-3.1-.5 0-1 .2-1.3.6-.3.6-.6 1.2-.7 1.8-.1.4-.4.6-.8.6-.6-.1-1.2-.6-1.2-1.2 0-.4.4-.7.9-1.1 1.2-.9 2.5-1.5 4-1.9 2-.1 3.6 1.5 3.7 3.5v5.7c0 1.3.5 1.7 1 1.7.3 0 .7-.1 1-.3l.3.7-2.4 1.4zm-2-7c-.6.3-1.9.9-2.6 1.2-1 .5-1.7 1-1.7 2-.1 1.1.8 2 1.9 2.1h.1c.8-.1 1.6-.4 2.2-1l.1-4.3zm20.6 6.6v-.7c1.6-.2 1.8-.3 1.8-2.2v-4.6c0-2-.7-3.2-2.4-3.2-1 0-2 .6-3.1 1.4 0 .4.1.8.1 1.2v5.3c0 1.7.3 1.9 1.8 2v.7h-5.9v-.7c1.7-.2 2-.3 2-2.1v-4.7c0-2-.6-3.2-2.3-3.2-1.1.1-2.2.6-3 1.4v6.5c0 1.8.2 1.9 1.8 2.1v.7h-5.9v-.7c1.8-.2 2-.3 2-2.1v-5.7c0-1.8-.1-1.9-1.7-2.1v-.6c1.3-.2 2.6-.6 3.8-1.1v2.2c.6-.5 1.3-1 2-1.4.6-.5 1.4-.7 2.2-.7 1.4 0 2.6.9 3 2.2.7-.6 1.5-1.1 2.2-1.5.6-.4 1.4-.7 2.2-.7 2.1 0 3.5 1.5 3.5 4.2v5.3c0 1.8.2 1.9 1.7 2.1v.7h-5.8zm-340.2 33v-.7c1.6-.2 1.8-.4 1.8-2.2v-4.5c0-1.9-.7-3.2-2.5-3.2-1.2.1-2.2.6-3.1 1.4v6.4c0 1.9.2 2 1.8 2.1v.7h-6v-.7c1.8-.2 2-.3 2-2.1v-5.7c0-1.8-.2-1.9-1.7-2.1v-.7c1.3-.2 2.6-.6 3.9-1.1v2.2c.5-.4 1.2-.8 1.9-1.3s1.5-.8 2.3-.8c2.2 0 3.6 1.6 3.6 4.3v5.2c0 1.9.2 2 1.8 2.1v.7h-5.8zm13.5-12.4c3.3-.1 5.9 2.5 6 5.8v.4c0 4.4-3.3 6.6-6 6.6-3.3 0-6.1-2.6-6.1-6v-.2c-.2-3.5 2.5-6.4 6-6.6h.1zm-.4.9c-1.7 0-3.2 1.6-3.2 4.8 0 3.5 1.5 6 3.8 6 1.7 0 3.1-1.2 3.1-5 .1-3.1-1.2-5.7-3.7-5.8zm16 11.5v-.7c1.6-.2 1.8-.4 1.8-2.2v-4.5c0-1.9-.7-3.2-2.5-3.2-1.2.1-2.2.6-3 1.4v6.4c0 1.9.2 2 1.8 2.1v.7h-5.9v-.7c1.8-.2 2-.3 2-2.1v-5.7c0-1.8-.2-1.9-1.7-2.1v-.7c1.3-.2 2.6-.6 3.9-1.1v2.2c.5-.4 1.2-.8 1.9-1.3s1.5-.8 2.3-.8c2.2 0 3.6 1.6 3.6 4.3v5.2c0 1.9.2 2 1.8 2.1v.7h-6zm20.5-.6c-1.4.2-2.8.5-4.2 1v-2.1c-1.5 1.2-2.7 2.1-4.2 2.1-1.8 0-3.4-1.1-3.4-4.1v-5.3c0-1.5-.2-1.7-.9-1.8l-.7-.1v-.7c1.3-.1 2.6-.3 3.9-.5-.1.9-.1 2.2-.1 4v3.7c0 2.4 1.3 3.1 2.5 3.1 1.1 0 2.2-.5 3-1.3v-6.4c0-1.5-.3-1.7-1.3-1.8l-.9-.1v-.7c1.4-.1 2.9-.2 4.3-.5v9.2c0 1.4.2 1.6 1.3 1.6h.8l-.1.7zm16.4.6v-.7c1.6-.2 1.8-.3 1.8-2.2v-4.6c0-1.9-.7-3.2-2.4-3.2-1.2.1-2.2.6-3.1 1.4.1.4.1.8.1 1.2v5.3c0 1.7.2 1.9 1.8 2v.7h-5.9v-.7c1.7-.2 2-.3 2-2.1v-4.7c0-2-.6-3.2-2.3-3.2-1.1 0-2.2.7-3 1.4v6.5c0 1.8.2 1.9 1.8 2.1v.7h-5.9v-.7c1.8-.2 2-.3 2-2.1v-5.7c0-1.8-.1-1.9-1.7-2.1v-.6c1.3-.2 2.6-.6 3.8-1.1v2.2c.6-.5 1.3-1 2-1.4.6-.5 1.4-.7 2.2-.7 1.4 0 2.6.9 3 2.3.7-.6 1.5-1.1 2.2-1.5.7-.5 1.4-.7 2.2-.7 2.1 0 3.5 1.5 3.5 4.2v5.4c0 1.8.2 1.9 1.7 2.1v.7l-5.8-.2zm22.5 0v-.7c1.6-.2 1.8-.3 1.8-2.2v-4.6c0-1.9-.7-3.2-2.4-3.2-1.2.1-2.2.6-3.1 1.4 0 .4.1.8.1 1.2v5.3c0 1.7.3 1.9 1.8 2v.7h-5.9v-.7c1.7-.2 2-.3 2-2.1v-4.7c0-2-.6-3.2-2.3-3.2-1.1.1-2.2.6-3 1.4v6.5c0 1.8.2 1.9 1.8 2.1v.7h-5.9v-.7c1.8-.2 2-.3 2-2.1v-5.7c0-1.8-.1-1.9-1.6-2.1v-.6c1.3-.2 2.6-.6 3.8-1.1v2.2c.6-.5 1.3-1 2-1.4.6-.5 1.4-.7 2.2-.7 1.4 0 2.6.9 3 2.3.7-.6 1.5-1.1 2.2-1.5.6-.4 1.4-.7 2.2-.7 2.1 0 3.5 1.5 3.5 4.2v5.4c0 1.8.2 1.9 1.7 2.1v.7l-5.9-.2zm18.9-11.3c-1.4.2-1.7.4-2.4 2s-1.4 3.4-3.3 8.2c-1 2.5-1.9 5-2.7 7.5-.2.6-.5.7-.8.7-.8.1-1.5-.5-1.7-1.3 0-.4.2-.6.6-1 .8-.5 1.4-1.2 1.8-2 .6-1.2 1-2.1 1.1-2.5.1-.4.1-.8-.1-1.1-1.1-3.1-2.6-6.5-3.4-8.5-.6-1.5-.9-1.8-2.4-2v-.7h5.6v.7c-1.3.2-1.4.5-1 1.5l2.7 6.8c.7-1.9 1.9-4.9 2.4-6.7.3-1 .1-1.3-1.5-1.6v-.7h5l.1.7zm14.6 11.3v-.7c1.6-.2 1.8-.4 1.8-2.2v-4.5c0-1.9-.7-3.2-2.5-3.2-1.2.1-2.2.6-3 1.4v6.4c0 1.9.2 2 1.8 2.1v.7h-5.9v-.7c1.8-.2 2-.3 2-2.1v-5.7c0-1.8-.2-1.9-1.7-2.1v-.7c1.3-.2 2.6-.6 3.9-1.1v2.2c.5-.4 1.2-.8 1.9-1.3s1.5-.8 2.3-.8c2.2 0 3.6 1.6 3.6 4.3v5.2c0 1.9.2 2 1.8 2.1v.7h-6zm7.3 0v-.7c1.7-.2 1.9-.3 1.9-2.2v-5.7c0-1.7-.1-1.8-1.7-2.1v-.6c1.3-.2 2.6-.6 3.9-1.1v9.5c0 1.9.2 2 2 2.2v.7h-6.1zm2.8-15.1c-.8 0-1.5-.7-1.5-1.5s.6-1.5 1.4-1.5c.8 0 1.4.7 1.4 1.5v.1c.1.7-.5 1.3-1.3 1.4zm10.4 3c.4-.2.8-.3 1.2-.3 3.1.1 5.5 2.7 5.4 5.8 0 3.7-3 6.8-6.8 6.9-1.5 0-2.9-.3-4.2-1v-15.5c0-1.7-.1-1.9-1.8-2v-.7c1.4-.2 2.7-.5 4-.9v8.6l2.2-.9zm-2.2 8.9c0 .3 0 .7.1 1 .6.9 1.6 1.5 2.7 1.5 2.4 0 3.5-2 3.5-5.2 0-3.1-1.9-5-4.2-5-.8 0-1.5.2-2.2.5l.1 7.2zm18.3 3.2v-.7c1.6-.2 1.8-.3 1.8-2.1V271c0-2.3-.9-3.4-2.7-3.4-1.1 0-2.2.5-3 1.4v6.5c0 1.8.2 2 1.9 2.1v.7h-6v-.7c1.6-.1 2-.3 2-2.1v-13.3c0-1.5-.1-1.8-1.9-2v-.7c1.4-.1 2.8-.5 4.1-.9v9.4c1-1 2.5-2 4-2 2.3 0 3.8 1.4 3.8 4.7v4.9c0 1.8.2 1.9 1.8 2.1v.7l-5.8-.1zm23.9-2.3c-1.8 2.2-3.7 2.7-4.6 2.7-3.4 0-5.4-2.8-5.4-5.9 0-1.8.6-3.5 1.8-4.8 1-1.2 2.5-1.9 4.1-2 2.3 0 4.2 1.9 4.2 4.3 0 .6-.1.8-.6.9-.4.1-4.1.4-7.4.5-.1 3.7 2.2 5.2 4.1 5.2 1.2 0 2.4-.5 3.2-1.4l.6.5zm-4.7-9c-1.3 0-2.5 1.2-2.9 3.4 1.5 0 3.1 0 4.7-.1.5 0 .7-.1.7-.6.1-1.4-.9-2.6-2.3-2.8-.1.1-.2.1-.2.1zm20 10.7c-1.4.2-2.8.5-4.2 1v-2.1c-1.5 1.2-2.7 2.1-4.2 2.1-1.8 0-3.4-1.1-3.4-4.1v-5.3c0-1.5-.2-1.7-.9-1.8l-.7-.1v-.7c1.3-.1 2.6-.3 3.9-.5-.1.9-.1 2.2-.1 4v3.7c0 2.4 1.3 3.1 2.5 3.1 1.1 0 2.2-.5 3-1.3v-6.4c0-1.5-.3-1.7-1.3-1.8l-.9-.1v-.7c1.4-.1 2.9-.2 4.3-.5v9.2c0 1.4.2 1.6 1.3 1.6h.7v.7zm1.3.6v-.7c1.7-.2 1.9-.3 1.9-2.2v-5.7c0-1.7-.1-1.8-1.7-2.1v-.6c1.3-.2 2.6-.6 3.9-1.1v9.5c0 1.9.2 2 2 2.2v.7h-6.1zm2.9-15.1c-.8 0-1.5-.7-1.5-1.5s.6-1.5 1.4-1.5c.8 0 1.4.7 1.4 1.5v.1c.1.7-.5 1.3-1.3 1.4zm11.6 6.3c-.5-1.6-1.2-2.7-2.9-2.7-.9 0-1.7.7-1.7 1.6v.2c0 1.2.8 1.7 2.3 2.4 2.4 1.1 3.5 2 3.5 3.8 0 2.5-2.3 3.8-4.5 3.8-1.1 0-2.3-.2-3.3-.7-.1-.8-.4-2.3-.5-3.2l.8-.1c.5 1.8 1.5 3.2 3.4 3.2 1 .1 1.9-.7 1.9-1.7v-.1c0-1.2-.7-1.9-2.2-2.6-1.9-.9-3.5-1.8-3.5-3.8 0-2 1.7-3.5 4.3-3.5.9 0 1.8.2 2.6.4.1.7.3 2.4.4 3.1l-.6-.1zm18.2 8.8v-.7c1.6-.2 1.8-.3 1.8-2.2v-4.6c0-1.9-.7-3.2-2.4-3.2-1.2.1-2.2.6-3.1 1.4 0 .4.1.8.1 1.2v5.3c0 1.7.3 1.9 1.8 2v.7h-5.9v-.7c1.7-.2 2-.3 2-2.1v-4.7c0-2-.6-3.2-2.3-3.2-1.1.1-2.2.6-3 1.4v6.5c0 1.8.2 1.9 1.8 2.1v.7H592v-.7c1.8-.2 2-.3 2-2.1v-5.7c0-1.8-.1-1.9-1.6-2.1v-.6c1.3-.2 2.6-.6 3.8-1.1v2.2c.6-.5 1.3-1 2-1.4.6-.5 1.4-.7 2.2-.7 1.4 0 2.6.9 3 2.3.7-.6 1.5-1.1 2.2-1.5.6-.4 1.4-.7 2.2-.7 2.1 0 3.5 1.5 3.5 4.2v5.4c0 1.8.2 1.9 1.7 2.1v.7l-5.9-.2zm13.5-12.4c3.3-.1 5.9 2.5 6 5.8v.4c0 4.4-3.3 6.6-6 6.6-3.3 0-6.1-2.6-6.1-6v-.2c-.2-3.5 2.5-6.4 6-6.6h.1zm-.3.9c-1.7 0-3.2 1.6-3.2 4.8 0 3.5 1.5 6 3.8 6 1.7 0 3.1-1.2 3.1-5 0-3.1-1.3-5.7-3.7-5.8zm21.8 10.8c-1.4.2-2.9.6-4.3 1v-1.8c-.5.3-1.2.7-1.7 1-.7.4-1.4.7-2.2.8-2.2 0-5.1-2.2-5.1-6s3.4-6.7 7.1-6.7c.6 0 1.3.1 1.9.3v-4c0-1.8-.2-1.8-2.1-2v-.7c1.5-.2 2.9-.5 4.3-.9v16.6c0 1.4.2 1.6 1.2 1.7l.9.1v.6zm-4.3-9.2c-.7-.9-1.8-1.4-2.9-1.4-1.3 0-3.7.9-3.7 4.8 0 3.3 2.1 5.1 3.8 5.1 1-.1 1.9-.4 2.7-1l.1-7.5zm17.4 9.9c-.4.2-.8.3-1.2.4-1.8 0-2.7-1.1-2.7-3.3v-8h-1.9l-.1-.3.7-.8h1.3V264c.5-.6 1.3-1.3 1.8-1.8l.4.1c-.1 1.2-.1 2.8-.1 4.1h3.1c.2.4.2.8-.2 1.1h-3v7c0 2.2.9 2.6 1.6 2.6.6 0 1.2-.2 1.7-.4l.3.7-1.7.9zm2.9 0v-.7c1.7-.2 1.9-.3 1.9-2.2v-5.7c0-1.7-.1-1.8-1.7-2.1v-.6c1.3-.2 2.6-.6 3.9-1.1v9.5c0 1.9.2 2 2 2.2v.7h-6.1zm2.8-15.1c-.8 0-1.5-.7-1.5-1.5s.6-1.5 1.4-1.5c.8 0 1.4.7 1.4 1.5v.1c.2.7-.5 1.3-1.3 1.4zm12.6 15.1v-.7c1.6-.2 1.8-.4 1.8-2.2v-4.5c0-1.9-.7-3.2-2.5-3.2-1.2.1-2.2.6-3.1 1.4v6.4c0 1.9.2 2 1.8 2.1v.7h-5.9v-.7c1.8-.2 2-.3 2-2.1v-5.7c0-1.8-.2-1.9-1.7-2.1v-.7c1.3-.2 2.6-.6 3.9-1.1v2.2c.6-.4 1.2-.8 1.9-1.3s1.5-.8 2.3-.8c2.2 0 3.6 1.6 3.6 4.3v5.2c0 1.9.2 2 1.8 2.1v.7h-5.9zm17.6-2.5c-1.2 1.6-3.1 2.8-4.7 2.8-3.5 0-5.6-2.8-5.6-5.8 0-2.1 1-4.2 2.8-5.4 1.2-.9 2.7-1.5 4.2-1.6.9 0 1.8.2 2.6.7.3.2.5.5.4.8 0 .6-.4 1.1-1 1.2-.1 0-.2-.1-.5-.3-.7-.7-1.7-1.1-2.8-1.2-1.8 0-3.4 1.5-3.4 4.4 0 3.8 2.6 5.1 4.2 5.1 1.3 0 2.5-.5 3.4-1.5l.4.8zm1.5 2.5v-.7c1.7-.2 1.9-.3 1.9-2.2v-5.7c0-1.7-.1-1.8-1.7-2.1v-.6c1.3-.2 2.6-.6 3.9-1.1v9.5c0 1.9.2 2 2 2.2v.7h-6.1zm2.8-15.1c-.8 0-1.5-.7-1.5-1.5s.6-1.5 1.4-1.5c.8 0 1.4.7 1.4 1.5v.1c.1.7-.5 1.3-1.3 1.4zm24.4 14.5c-1.4.2-2.8.5-4.2 1v-2.1c-1.5 1.2-2.7 2.1-4.2 2.1-1.8 0-3.4-1.1-3.4-4.1v-5.3c0-1.5-.2-1.7-.9-1.8l-.8-.1v-.7c1.3-.1 2.6-.3 3.9-.5-.1.9-.1 2.2-.1 4v3.7c0 2.4 1.3 3.1 2.5 3.1 1.1 0 2.2-.5 3-1.3v-6.4c0-1.5-.3-1.7-1.3-1.8l-.9-.1v-.7c1.4-.1 2.9-.2 4.3-.5v9.2c0 1.4.2 1.6 1.3 1.6h.7l.1.7zm9.2.6v-.7c1.6-.2 1.8-.4 1.8-2.2v-4.5c0-1.9-.7-3.2-2.5-3.2-1.2.1-2.2.6-3.1 1.4v6.4c0 1.9.2 2 1.8 2.1v.7h-5.9v-.7c1.8-.2 2-.3 2-2.1v-5.7c0-1.8-.2-1.9-1.7-2.1v-.7c1.3-.2 2.6-.6 3.8-1.1v2.2c.6-.4 1.2-.8 1.9-1.3s1.5-.8 2.3-.8c2.2 0 3.6 1.6 3.6 4.3v5.2c0 1.9.2 2 1.8 2.1v.7H729zm12.6 0c-.4.2-.8.3-1.2.4-1.8 0-2.7-1.1-2.7-3.3v-8h-1.9l-.1-.3.7-.8h1.3V264c.5-.6 1.3-1.3 1.8-1.8l.4.1c-.1 1.2-.1 2.8-.1 4.1h3.1c.2.4.2.8-.1 1.1h-3v7c0 2.2.9 2.6 1.6 2.6.6 0 1.2-.2 1.7-.4l.2.7-1.7.9zm-360.9 32.4c-1.4.2-2.8.5-4.2 1v-2.1c-1.5 1.2-2.7 2.1-4.2 2.1-1.8 0-3.4-1.1-3.4-4.1v-5.3c0-1.5-.2-1.6-.9-1.8l-.7-.1v-.7c1.3-.1 2.6-.3 3.9-.5-.1.9-.1 2.2-.1 4v3.7c0 2.4 1.3 3.1 2.5 3.1 1.1 0 2.2-.5 3-1.3v-6.4c0-1.5-.3-1.7-1.3-1.8l-.9-.1v-.7c1.4-.1 2.9-.2 4.3-.5v9.2c0 1.4.2 1.6 1.3 1.6h.7v.7zm6.8.6c-.4.2-.8.3-1.2.4-1.8 0-2.7-1.1-2.7-3.3v-8h-1.9l-.1-.3.7-.8h1.3V297l1.8-1.8.4.1c-.1 1.2-.1 2.8-.1 4.1h3.1c.2.4.2.8-.2 1.1h-3v7c0 2.2.9 2.6 1.6 2.6.6 0 1.2-.2 1.7-.4l.3.7-1.7.9zm11.1 0v-.8l1.8-.2c1.2-.1 1.4-.4 1.4-1.7v-6.1c0-1.4-.1-1.6-1.2-1.7l-1.6-.1v-.7c1.7-.2 3.4-.6 5-1.2v9.8c0 1.4.1 1.6 1.5 1.7l1.7.2v.8h-8.6zm12 3.6c3-.7 6.7-2.4 7.9-6.6l-1 .5c-.7.3-1.4.5-2.2.6-2.6-.2-4.7-2.4-4.6-5 0-3 2.4-5.5 5.4-5.5 3.7 0 5.3 3.2 5.3 6.4 0 5.1-3.5 8.5-7.2 9.9-1.1.3-2.2.6-3.4.7l-.2-1zm5-15.1c-1.5 0-2.6 1.6-2.6 3.7 0 3 1.9 4.4 3.8 4.4.7 0 1.4-.2 2-.5.1-.7.2-1.3.2-2-.1-1.9-.6-5.6-3.4-5.6zm19.2-4.3c-4.3 1.1-6.8 3.6-7.8 6.5l1.6-.6c.6-.3 1.2-.4 1.8-.5 2.6 0 4.7 1.9 4.7 4.9.1 3.1-2.3 5.7-5.4 5.8h-.2c-2.8 0-5.4-2.3-5.4-6.5 0-4.5 3.3-8 7.1-9.6 1.1-.4 2.3-.7 3.4-.9l.2.9zm-5.8 6.9c-.8 0-1.5.2-2.2.6-.2.6-.2 1.3-.2 2 0 3.6 1.5 5.7 3.4 5.7 1.3 0 2.7-1 2.7-3.6 0-2.1-.7-4.7-3.7-4.7zm19.5 5.3l-.8 3.6h-9.9v-.6c2.4-1.8 6.4-4.6 6.4-7.5.1-1.3-.9-2.5-2.2-2.6h-.3c-1.5 0-2.5 1.3-3.1 2.1l-.7-.6 1.3-1.8c.8-1 2-1.5 3.3-1.5 2.1-.1 3.9 1.5 4 3.6v.3c-.1 1.4-.8 2.8-1.9 3.7-.8.8-2.1 1.8-3.6 3.1h4.4c1.2 0 1.4-.3 2.3-1.9l.8.1zm21.9 2.9c-1.4.2-2.9.6-4.3 1v-1.8c-.5.3-1.2.7-1.7 1-.7.4-1.4.7-2.2.8-2.2 0-5.1-2.2-5.1-6s3.4-6.7 7.1-6.7c.6 0 1.3.1 1.9.3v-4c0-1.8-.2-1.8-2.1-2v-.7c1.5-.2 2.9-.5 4.3-.9v16.6c0 1.4.2 1.6 1.2 1.7l.9.1v.6zm-4.3-9.2c-.7-.9-1.8-1.4-2.9-1.4-1.3 0-3.7.9-3.7 4.8 0 3.3 2.1 5.1 3.8 5.1 1-.1 1.9-.4 2.7-1v-7.5zm11.7-2.5c3.3-.1 5.9 2.5 6 5.8v.4c0 4.4-3.3 6.6-6 6.6-3.3 0-6.1-2.6-6.1-6v-.2c-.2-3.5 2.5-6.4 6-6.6h.1zm-.3 1c-1.7 0-3.2 1.6-3.2 4.8 0 3.5 1.5 6 3.8 6 1.7 0 3.1-1.2 3.1-5 0-3.2-1.3-5.9-3.7-5.8zm7.8 11.4v-.7c1.8-.2 2-.3 2-2.1v-13.2c0-1.7-.1-1.8-1.9-2.1v-.7c1.4-.2 2.7-.5 4.1-.9v16.9c0 1.8.2 1.9 2 2.1v.7h-6.2zm13.7-12.4c3.3-.1 5.9 2.5 6 5.8v.4c0 4.4-3.3 6.6-6 6.6-3.3 0-6.1-2.6-6.1-6v-.2c-.2-3.5 2.5-6.4 6-6.6h.1zm-.3 1c-1.7 0-3.2 1.6-3.2 4.8 0 3.5 1.5 6 3.8 6 1.7 0 3.1-1.2 3.1-5 0-3.2-1.3-5.9-3.7-5.8zm14.4 11.4h-6.3v-.7c1.7-.2 1.9-.3 1.9-2.1v-5.7c0-1.8-.1-1.9-1.7-2.1v-.7c1.3-.2 2.6-.6 3.9-1.1v3c1-1.4 2.1-3 3.5-3 .8-.1 1.5.4 1.6 1.2v.1c0 .6-.4 1.2-.9 1.5-.2.2-.5.1-.7-.1-.3-.4-.7-.6-1.2-.7-.6 0-1.6.9-2.2 2.3v5.2c0 1.8.1 1.9 2.2 2.1l-.1.8zm13.8-2.3c-1.8 2.2-3.7 2.7-4.6 2.7-3.4 0-5.4-2.8-5.4-5.9 0-1.8.6-3.5 1.8-4.8 1-1.2 2.5-1.9 4.1-2 2.3 0 4.2 1.9 4.2 4.3 0 .5-.1.8-.5.9-.6.1-4.1.4-7.4.5-.1 3.7 2.2 5.2 4.1 5.2 1.2 0 2.4-.5 3.2-1.4l.5.5zm-4.7-9c-1.3 0-2.5 1.2-2.9 3.4 1.5 0 3.1 0 4.7-.1.5 0 .7-.1.7-.6.1-1.4-.9-2.6-2.3-2.8-.1.1-.2.1-.2.1zm28 11.3v-.7c1.6-.2 1.8-.3 1.8-2.2v-4.6c0-2-.7-3.2-2.4-3.2-1.1.1-2.2.6-3 1.4 0 .3.1.7.1 1.2v5.3c0 1.7.2 1.9 1.8 2v.7h-5.9v-.7c1.7-.2 1.9-.3 1.9-2.1v-4.7c0-2-.6-3.2-2.3-3.2-1.1 0-2.2.7-3 1.4v6.5c0 1.8.2 1.9 1.8 2.1v.7h-6v-.7c1.8-.2 2-.3 2-2.1v-5.7c0-1.8-.1-1.9-1.7-2.1v-.7c1.3-.2 2.6-.6 3.8-1.1v2.2c.6-.5 1.3-1 2-1.4.6-.5 1.4-.7 2.2-.7 1.4 0 2.6.9 3 2.3.7-.6 1.5-1.1 2.2-1.5.6-.4 1.4-.7 2.2-.7 2.1 0 3.5 1.5 3.5 4.2v5.3c0 1.8.2 1.9 1.7 2.1v.7h-5.7zm16.2.3c-.5 0-.9-.2-1.3-.5-.3-.3-.6-.8-.7-1.2-1.1.7-2.4 1.8-3.3 1.8-1.9 0-3.4-1.5-3.4-3.4 0-1.3.7-2.2 2.3-2.8 1.7-.6 3.7-1.3 4.3-1.8v-.5c0-2-1-3.1-2.4-3.1-.5 0-1 .2-1.3.6-.3.5-.6 1.2-.7 1.8-.1.4-.4.7-.8.6-.6-.1-1.2-.6-1.2-1.2 0-.4.4-.7.9-1.1 1.2-.9 2.5-1.5 4-1.9 2-.1 3.6 1.5 3.7 3.5v5.7c0 1.3.5 1.7 1 1.7.3 0 .7-.1 1-.3l.3.7-2.4 1.4zm-2-6.9c-.6.3-1.9.9-2.6 1.2-1 .5-1.7 1-1.7 2-.1 1.1.8 2 1.9 2.1h.1c.8-.1 1.6-.4 2.3-1v-4.3zm9.1 2.6c-.5.3-.8.8-.9 1.4 0 .5.5 1 1.7 1h3.1c1.8 0 4 .6 4 3.3 0 2.9-3.4 5.6-7 5.6-3.1 0-4.8-1.8-4.8-3.4 0-.6.3-1.2.7-1.6.7-.7 1.5-1.4 2.3-2-.8-.2-1.6-.7-2.1-1.5-.2-.4-.3-.8-.3-1.2 1-.4 1.9-1 2.5-1.9l.8.3zm1.3.3c-2.6 0-4.7-1.6-4.7-4.2 0-3.1 2.8-4.6 4.9-4.6.9 0 1.8.2 2.6.7 1.2 0 2.5-.2 3.7-.4l.2.2c-.2.6-.6 1.1-1 1.5-.4 0-1.3-.1-1.7-.1.5.7.8 1.6.8 2.5.1 3-2.4 4.4-4.8 4.4zm.7 4c-1.3 0-2 .2-2.4.6-.7.5-1.2 1.4-1.3 2.3 0 1.5 1.6 2.6 3.7 2.6 2.6 0 4.1-1.3 4.1-3.1.1-.9-.4-1.7-1.2-2-1-.3-2-.4-2.9-.4zm-.7-11.9c-1.2 0-2.3 1.1-2.3 3.3 0 2.2 1.1 3.7 2.6 3.7 1.2-.1 2.3-1.1 2.3-3.3 0-2.2-1-3.7-2.6-3.7zm15.6 11.6v-.7c1.6-.2 1.8-.4 1.8-2.2v-4.5c0-1.9-.7-3.2-2.5-3.2-1.2.1-2.2.6-3 1.4v6.4c0 1.9.2 1.9 1.8 2.1v.7h-5.9v-.7c1.8-.2 2-.3 2-2.1v-5.7c0-1.8-.2-1.9-1.7-2.1v-.7c1.3-.2 2.6-.6 3.9-1.1v2.2c.5-.4 1.2-.8 1.9-1.3s1.5-.8 2.3-.8c2.2 0 3.6 1.6 3.6 4.3v5.2c0 1.9.2 1.9 1.8 2.1v.7h-6zm16.2.3c-.5 0-.9-.2-1.3-.5-.3-.3-.6-.8-.7-1.2-1.1.7-2.4 1.8-3.3 1.8-1.9 0-3.4-1.5-3.4-3.4 0-1.3.7-2.2 2.3-2.8 1.7-.6 3.7-1.3 4.3-1.8v-.5c0-2-1-3.1-2.4-3.1-.5 0-1 .2-1.3.6-.3.6-.6 1.2-.7 1.8-.1.4-.4.7-.8.6-.6-.1-1.2-.6-1.2-1.2 0-.4.4-.7.9-1.1 1.2-.9 2.5-1.5 4-1.9 2-.1 3.6 1.5 3.7 3.5v5.7c0 1.3.5 1.7 1 1.7.3 0 .7-.1 1-.3l.3.7-2.4 1.4zm-2-6.9c-.6.3-1.9.9-2.6 1.2-1 .5-1.7 1-1.7 2-.1 1.1.8 2 1.9 2.1h.1c.8-.1 1.6-.4 2.3-1v-4.3zm20.7 6.9c-.5 0-.9-.2-1.3-.5-.3-.3-.6-.8-.7-1.2-1.1.7-2.4 1.8-3.3 1.8-1.9 0-3.4-1.5-3.4-3.4 0-1.3.7-2.2 2.3-2.8 1.7-.6 3.7-1.3 4.3-1.8v-.5c0-2-1-3.1-2.4-3.1-.5 0-1 .2-1.3.6-.3.5-.6 1.2-.7 1.8-.1.4-.4.7-.8.6-.6-.1-1.2-.6-1.2-1.2 0-.4.4-.7.9-1.1 1.2-.9 2.5-1.5 4-1.9 2-.1 3.6 1.5 3.7 3.5v5.7c0 1.3.5 1.7 1 1.7.4 0 .7-.1 1-.3l.3.7-2.4 1.4zm-2-6.9c-.6.3-1.9.9-2.6 1.2-1 .5-1.7 1-1.7 2-.1 1.1.8 2 1.9 2.1h.1c.8-.1 1.6-.4 2.3-1v-4.3zm5.1 6.6v-.7c1.8-.2 2-.3 2-2.1v-13.2c0-1.7-.1-1.8-1.9-2.1v-.7c1.4-.2 2.7-.5 4.1-.9v16.9c0 1.8.2 1.9 2 2.1v.7h-6.2zm7.5 0v-.7c1.7-.2 1.9-.3 1.9-2.2v-5.7c0-1.7-.1-1.8-1.7-2.1v-.6c1.3-.2 2.6-.6 3.9-1.1v9.5c0 1.9.2 2 2 2.2v.7h-6.1zm2.9-15.2c-.8 0-1.5-.7-1.5-1.5s.6-1.5 1.4-1.5c.8 0 1.4.7 1.4 1.5v.1c.1.7-.5 1.4-1.3 1.4zM650 318v-.8c2.2-.2 2.3-.3 2.3-2.3v-4.5l-3 1.2c-3.2.1-5.9-2.5-6-5.7v-.2c0-4 3.6-6.8 7.4-6.8.7 0 1.3.2 2 .4.2.1.5.1.7.1l.9-.3.1.1c0 .6-.1 1.1-.1 3v12.9c0 1.9.2 2 2.1 2.2v.8l-6.4-.1zm2.3-16.8c-.7-.7-1.7-1.2-2.7-1.2-1.9 0-3.8 1.6-3.8 4.8 0 3.6 2.3 5.2 4.4 5.2.7 0 1.4-.2 2.1-.5v-8.3zm18.5 9.5c-1.4.2-2.8.5-4.2 1v-2.1c-1.5 1.2-2.7 2.1-4.2 2.1-1.8 0-3.4-1.1-3.4-4.1v-5.3c0-1.5-.2-1.6-.9-1.8l-.8-.1v-.7c1.3-.1 2.6-.3 3.9-.5-.1.9-.1 2.2-.1 4v3.7c0 2.4 1.3 3.1 2.5 3.1 1.1 0 2.2-.5 3-1.3v-6.4c0-1.5-.3-1.7-1.3-1.8l-.9-.1v-.7c1.4-.1 2.9-.2 4.3-.5v9.2c0 1.4.2 1.6 1.3 1.6h.7l.1.7zm10.2.9c-.5 0-.9-.2-1.3-.5-.3-.3-.6-.8-.7-1.2-1.1.7-2.4 1.8-3.3 1.8-1.9 0-3.4-1.5-3.3-3.4 0-1.3.7-2.2 2.2-2.8 1.7-.6 3.7-1.3 4.3-1.8v-.5c0-2-1-3.1-2.4-3.1-.5 0-1 .2-1.3.6-.3.6-.6 1.2-.7 1.8-.1.4-.4.7-.8.6-.6-.1-1.2-.6-1.2-1.2 0-.4.4-.7.9-1.1 1.2-.9 2.5-1.5 4-1.9 2-.1 3.6 1.5 3.7 3.5v5.7c0 1.3.5 1.7 1 1.7.3 0 .7-.1 1-.3l.3.7-2.4 1.4zm-2-6.9c-.6.3-1.9.9-2.6 1.2-1 .5-1.7 1-1.7 2-.1 1.1.8 2 1.9 2.1h.1c.8-.1 1.6-.4 2.2-1l.1-4.3zm20.6 6.6v-.7c1.6-.2 1.8-.3 1.8-2.2v-4.6c0-2-.7-3.2-2.4-3.2-1 0-2 .6-3.1 1.4 0 .4.1.8.1 1.2v5.3c0 1.7.3 1.9 1.8 2v.7H692v-.7c1.7-.2 2-.3 2-2.1v-4.7c0-2-.6-3.2-2.3-3.2-1.1.1-2.2.6-3 1.4v6.5c0 1.8.2 1.9 1.8 2.1v.7h-5.9v-.7c1.8-.2 2-.3 2-2.1v-5.7c0-1.8-.1-1.9-1.6-2.1v-.7c1.3-.2 2.6-.6 3.8-1.1v2.2c.6-.5 1.3-1 2-1.4.6-.5 1.4-.7 2.2-.7 1.4 0 2.6.9 3 2.3.7-.6 1.5-1.1 2.2-1.5.6-.4 1.4-.7 2.2-.7 2.1 0 3.5 1.5 3.5 4.2v5.3c0 1.8.2 1.9 1.7 2.1v.7h-6zm16.2.3c-.5 0-.9-.2-1.3-.5-.3-.3-.6-.8-.7-1.2-1.1.7-2.4 1.8-3.3 1.8-1.9 0-3.4-1.5-3.3-3.4 0-1.3.7-2.2 2.2-2.8 1.7-.6 3.7-1.3 4.3-1.8v-.5c0-2-1-3.1-2.4-3.1-.5 0-1 .2-1.3.6-.3.6-.6 1.2-.7 1.8-.1.4-.4.7-.8.6-.6-.1-1.2-.6-1.2-1.2 0-.4.4-.7.9-1.1 1.2-.9 2.5-1.5 4-1.9 2-.1 3.6 1.5 3.7 3.5v5.7c0 1.3.5 1.7 1 1.7.3 0 .7-.1 1-.3l.3.7-2.4 1.4zm-2-6.9c-.6.3-1.9.9-2.6 1.2-1 .5-1.7 1-1.7 2-.1 1.1.8 2 1.9 2.1h.1c.8-.1 1.6-.4 2.3-1v-4.3zM377.5 342c-1.8 2.2-3.7 2.7-4.6 2.7-3.4 0-5.4-2.7-5.4-5.9 0-1.8.6-3.5 1.8-4.8 1-1.2 2.5-2 4.1-2 2.3 0 4.2 1.9 4.2 4.3 0 .6-.1.8-.6.9-.4.1-4.1.4-7.3.5-.1 3.7 2.2 5.2 4.1 5.2 1.2 0 2.4-.5 3.2-1.4l.5.5zm-4.7-9c-1.3 0-2.5 1.2-2.9 3.4 1.5 0 3.1 0 4.7-.1.5 0 .7-.1.7-.5.1-1.4-.9-2.6-2.3-2.8h-.2zm12.8 11.3h-6.3v-.8c1.7-.2 1.9-.3 1.9-2.1v-5.7c0-1.8-.1-1.9-1.7-2.1v-.6c1.3-.2 2.6-.6 3.9-1.1v3c1-1.4 2.1-3 3.5-3 .8-.1 1.5.4 1.6 1.2v.1c0 .6-.4 1.2-.9 1.5-.2.2-.5.2-.7-.1-.3-.4-.7-.6-1.2-.7-.6 0-1.6.8-2.2 2.2v5.2c0 1.8.1 2 2.3 2.1l-.2.9zm12.7.3c-.5 0-.9-.2-1.3-.5-.3-.3-.6-.8-.7-1.2-1.1.7-2.4 1.8-3.3 1.8-1.9 0-3.4-1.5-3.4-3.4 0-1.3.7-2.2 2.3-2.8 1.7-.6 3.7-1.3 4.3-1.8v-.6c0-1.9-1-3.1-2.4-3.1-.5 0-1 .2-1.3.6-.3.6-.6 1.2-.7 1.8-.1.4-.4.7-.8.6-.6-.1-1.2-.6-1.2-1.2 0-.4.4-.7.9-1.1 1.2-.9 2.5-1.5 4-1.9 2 0 3.7 1.5 3.7 3.5v5.7c0 1.3.5 1.7 1 1.7.4 0 .7-.1 1-.3l.3.7-2.4 1.5zm-2-6.9c-.6.3-1.9.9-2.6 1.2-1 .5-1.7 1-1.7 2-.1 1.1.8 2 1.9 2.1h.1c.8-.1 1.6-.4 2.3-1v-4.3zm10.7 6.6c-.4.2-.8.3-1.2.4-1.8 0-2.7-1.1-2.7-3.3v-8h-1.9l-.1-.3.7-.8h1.3V330l1.8-1.8.4.1c-.1 1.2-.1 2.8-.1 4.1h3.1c.2.4.2.8-.2 1.1h-3v7c0 2.2.9 2.6 1.6 2.6.6 0 1.2-.2 1.7-.4l.3.7-1.7.9zm21.4-11.3c-1.5.2-1.7.4-2.4 2.1-.9 2.2-2.5 5.9-3.9 9.6h-.8c-1.2-3.2-2.5-6.4-3.8-9.7-.6-1.6-.8-1.8-2.3-2v-.7h5.6v.7c-1.5.2-1.6.4-1.1 1.6.7 1.9 1.8 4.8 2.6 6.7 1-2.4 1.9-4.7 2.5-6.5.5-1.3.4-1.7-1.4-1.8v-.7h5v.7zm6.7-1.1c3.3-.1 5.9 2.5 6 5.8v.4c0 4.4-3.3 6.6-6 6.6-3.3 0-6.1-2.6-6.1-6v-.2c-.2-3.5 2.5-6.4 6-6.6h.1zm-.3 1c-1.7 0-3.2 1.6-3.2 4.8 0 3.5 1.5 6 3.8 6 1.7 0 3.1-1.2 3.1-5 0-3.2-1.3-5.8-3.7-5.8zm7.9 11.4v-.8c1.8-.2 2-.3 2-2.1v-13.2c0-1.7-.1-1.8-1.9-2.1v-.7c1.4-.2 2.8-.5 4.1-.9v16.9c0 1.8.2 2 1.9 2.1v.8h-6.1zm20.7-.6c-1.4.2-2.8.5-4.2 1v-2.1c-1.5 1.2-2.7 2.1-4.2 2.1-1.8 0-3.4-1.1-3.4-4.1v-5.3c0-1.5-.2-1.7-.9-1.8l-.8-.1v-.7c1.3-.1 2.6-.3 3.9-.5-.1.9-.1 2.2-.1 4v3.7c0 2.4 1.3 3.1 2.5 3.1 1.1 0 2.2-.5 3-1.3v-6.4c0-1.5-.3-1.7-1.3-1.8l-.9-.1v-.7c1.4-.1 2.9-.2 4.3-.5v9.2c0 1.4.2 1.6 1.3 1.6h.7l.1.7zm6.8.6c-.4.2-.8.3-1.2.4-1.8 0-2.7-1.1-2.7-3.3v-8h-1.9l-.1-.3.7-.8h1.3V330l1.8-1.8.4.1c-.1 1.2-.1 2.8-.1 4.1h3.1c.2.4.2.8-.2 1.1h-3v7c0 2.2.9 2.6 1.6 2.6.6 0 1.2-.2 1.7-.4l.2.7-1.6.9zm2.5-11.5c1.4-.2 2.7-.6 4-1.2v2.2c.1-.1 2.3-1.3 2.4-1.4.5-.3 1-.5 1.6-.6 3 0 4.9 2.5 4.9 5.3 0 4.2-3.3 6.8-6.9 7.5-.7 0-1.3-.2-2-.5v3.7c0 2 .2 2.2 2.3 2.4v.7h-6.5v-.7c1.8-.2 2-.3 2-2.2v-12.5c0-1.6-.1-1.8-1.8-2v-.7zm4 9.4c.7.7 1.6 1 2.6 1.1 2.4 0 3.9-2 3.9-5.1 0-3.1-1.7-4.6-3.7-4.6-1 .1-2 .5-2.9 1.2l.1 7.4zm19.6 2.4c-.5 0-.9-.2-1.3-.5-.3-.3-.6-.8-.7-1.2-1.1.7-2.4 1.8-3.3 1.8-1.9 0-3.4-1.5-3.3-3.4 0-1.3.7-2.2 2.2-2.8 1.7-.6 3.7-1.3 4.3-1.8v-.6c0-1.9-1-3.1-2.4-3.1-.5 0-1 .3-1.2.7-.3.6-.6 1.2-.7 1.8-.1.4-.4.7-.8.6-.6-.1-1.2-.6-1.2-1.2 0-.4.4-.7.9-1.1 1.2-.9 2.5-1.5 4-1.9 2 0 3.7 1.5 3.7 3.5v5.7c0 1.3.5 1.7 1 1.7.3 0 .7-.1 1-.3l.3.7-2.5 1.4zm-2.1-6.9c-.6.3-1.9.9-2.6 1.2-1 .5-1.7 1-1.7 2-.1 1.1.8 2 1.9 2.1h.1c.8-.1 1.6-.4 2.2-1l.1-4.3zm10.7 6.6c-.4.2-.8.3-1.2.4-1.8 0-2.7-1.1-2.7-3.3v-8h-1.9l-.1-.4.7-.8h1.3v-2.3l1.8-1.8.4.1c-.1 1.2-.1 2.8-.1 4.1h3.1c.2.4.2.8-.2 1.1h-3v7c0 2.2.9 2.6 1.6 2.6.6 0 1.2-.2 1.7-.4l.2.7-1.6 1zm5.6.4c-.9 0-1.7-.7-1.7-1.6v-.2c0-.9.7-1.7 1.6-1.8h.1c.9 0 1.7.7 1.7 1.7v.1c0 .9-.7 1.7-1.6 1.8h-.1zm29.4-17.5c-1.7.1-2.4.6-2.4 1.8 0 .6-.1 1.8-.1 4.3v3c0 2.8-.3 4.9-1.9 6.6-1.3 1.3-3.2 1.8-5.1 1.8-1.6.1-3.2-.4-4.5-1.3-1.7-1.3-2.4-3.2-2.4-6.4v-7c0-2.5-.2-2.6-2.4-2.8v-.7h7.2v.7c-2.2.1-2.4.4-2.4 2.8v6.9c0 4 1.9 6.2 5.2 6.2 3.9 0 5.2-2.4 5.2-7v-2.8c0-2.5-.1-3.6-.1-4.3-.1-1.2-.7-1.7-2.7-1.8v-.7h6.6l-.2.7zm5.7 17.1c-.4.2-.8.3-1.2.4-1.8 0-2.7-1.1-2.7-3.3v-8h-1.9l-.1-.3.7-.8h1.3V330l1.8-1.8.4.1c-.1 1.2-.1 2.8-.1 4.1h3.1c.2.4.2.8-.2 1.1h-3v7c0 2.2.9 2.6 1.6 2.6.6 0 1.2-.2 1.7-.4l.3.7-1.7.9zm27.7-11.3c-1.4.2-1.7.5-2.2 2.1-.8 2.1-2.1 5.9-3.3 9.6h-.9c-1.1-3-2.2-5.8-3.3-8.6-1 2.5-2.3 5.6-3.4 8.6h-.8c-1-3.3-2-6.5-3.2-9.8-.5-1.5-.7-1.7-2.1-1.8v-.7h5.7v.7c-1.7.3-1.8.4-1.4 1.7.6 2.1 1.4 4.4 2 6.4 1.1-2.8 2.2-5.7 3.3-8.7h.7c1 2.9 2.1 5.8 3.3 8.8.6-1.7 1.5-4.4 2-6.4.4-1.4.1-1.6-1.7-1.8v-.7h5.2l.1.6zm1 11.3v-.8c1.7-.2 1.9-.3 1.9-2.2v-5.7c0-1.7-.1-1.8-1.7-2.1v-.5c1.3-.2 2.6-.6 3.9-1.1v9.5c0 1.9.2 2 2 2.2v.8l-6.1-.1zm2.8-15.1c-.8 0-1.5-.7-1.5-1.5s.6-1.5 1.4-1.5c.8 0 1.4.7 1.4 1.5.1.8-.5 1.4-1.3 1.5zm11.7 6.3c-.5-1.6-1.2-2.7-2.9-2.7-.9 0-1.7.7-1.7 1.6v.2c0 1.2.8 1.7 2.3 2.4 2.4 1.1 3.5 1.9 3.5 3.8 0 2.5-2.3 3.8-4.5 3.8-1.1 0-2.3-.2-3.3-.7-.1-.8-.4-2.3-.5-3.2l.8-.1c.5 1.8 1.5 3.2 3.4 3.2 1 .1 1.9-.7 1.9-1.7v-.1c0-1.2-.7-1.9-2.2-2.6-1.9-.9-3.5-1.8-3.5-3.8s1.7-3.5 4.3-3.5c.9 0 1.8.2 2.6.4.1.7.3 2.4.4 3.1l-.6-.1zm3 8.8v-.8c1.7-.2 1.9-.3 1.9-2.2v-5.7c0-1.7-.1-1.8-1.7-2.1v-.5c1.3-.2 2.6-.6 3.9-1.1v9.5c0 1.9.2 2 2 2.2v.8l-6.1-.1zm2.9-15.1c-.8 0-1.5-.7-1.5-1.5s.6-1.5 1.4-1.5c.8 0 1.4.7 1.4 1.5v.1c.1.7-.5 1.3-1.3 1.4zm21.1 12.8c-1.8 2.2-3.7 2.7-4.6 2.7-3.4 0-5.4-2.7-5.4-5.9 0-1.8.6-3.5 1.8-4.8 1-1.2 2.5-2 4.1-2 2.3 0 4.2 1.9 4.2 4.3 0 .6-.1.8-.6.9-.4.1-4.1.4-7.4.5-.1 3.7 2.2 5.2 4.1 5.2 1.2 0 2.4-.5 3.2-1.4l.6.5zm-4.7-9c-1.3 0-2.5 1.2-2.9 3.4 1.5 0 3.1 0 4.7-.1.5 0 .7-.1.7-.5.1-1.4-.9-2.6-2.3-2.8h-.2zm14.4 11.3v-.8c1.6-.2 1.8-.4 1.8-2.2v-4.6c0-1.9-.7-3.2-2.5-3.2-1.2.1-2.2.6-3.1 1.4v6.4c0 1.9.2 2 1.8 2.1v.8h-5.9v-.8c1.8-.2 2-.3 2-2.1v-5.7c0-1.8-.2-1.9-1.7-2.1v-.7c1.3-.2 2.6-.6 3.9-1.1v2.2c.6-.4 1.2-.8 1.9-1.3s1.5-.8 2.3-.8c2.2 0 3.6 1.6 3.6 4.3v5.2c0 1.9.2 2 1.8 2.1v.8l-5.9.1zm7.3 0v-.8c1.7-.2 1.9-.3 1.9-2.2v-5.7c0-1.7-.1-1.8-1.7-2.1v-.5c1.3-.2 2.6-.6 3.9-1.1v9.5c0 1.9.2 2 2 2.2v.8l-6.1-.1zm2.8-15.1c-.8 0-1.5-.7-1.5-1.5s.6-1.5 1.4-1.5c.8 0 1.4.7 1.4 1.5.1.8-.5 1.4-1.3 1.5zm19.7 15.1v-.8c1.6-.2 1.8-.3 1.8-2.2v-4.6c0-2-.7-3.2-2.4-3.2-1.2.1-2.2.6-3.1 1.4 0 .4.1.8.1 1.2v5.3c0 1.7.3 1.9 1.8 2v.8h-5.9v-.8c1.7-.2 1.9-.3 1.9-2.1v-4.7c0-2-.6-3.2-2.3-3.2-1.1 0-2.2.7-3 1.4v6.5c0 1.8.2 1.9 1.8 2.1v.8h-5.9v-.8c1.8-.2 2-.3 2-2.1v-5.7c0-1.8-.1-1.9-1.7-2.1v-.7c1.3-.2 2.6-.6 3.8-1.1v2.2c.6-.5 1.3-1 2-1.4.6-.5 1.4-.7 2.2-.7 1.4 0 2.6.9 3 2.3.7-.6 1.5-1.1 2.2-1.5.7-.5 1.4-.7 2.2-.7 2.1 0 3.5 1.5 3.5 4.2v5.3c0 1.8.2 1.9 1.7 2.1v.8h-5.7zm22.6.3c-.5 0-.9-.2-1.3-.5-.3-.3-.6-.8-.7-1.2-1.1.7-2.4 1.8-3.3 1.8-1.9 0-3.4-1.5-3.3-3.4 0-1.3.7-2.2 2.2-2.8 1.7-.6 3.7-1.3 4.3-1.8v-.6c0-1.9-1-3.1-2.4-3.1-.5 0-1 .2-1.3.6-.3.6-.6 1.2-.7 1.8-.1.4-.4.7-.8.6-.6-.1-1.2-.6-1.2-1.2 0-.4.4-.7.9-1.1 1.2-.9 2.5-1.5 4-1.9 2 0 3.7 1.5 3.7 3.5v5.7c0 1.3.5 1.7 1 1.7.3 0 .7-.1 1-.3l.3.7-2.4 1.5zm-2-6.9c-.6.3-1.9.9-2.6 1.2-1 .5-1.7 1-1.7 2-.1 1.1.8 2 1.9 2.1h.1c.8-.1 1.6-.4 2.2-1l.1-4.3zm18.8 5.9c-1.4.2-2.9.6-4.3 1v-1.8c-.5.3-1.2.7-1.7 1-.7.4-1.4.7-2.2.8-2.2 0-5.1-2.2-5.1-6s3.4-6.7 7.1-6.7c.6 0 1.3.1 1.9.3v-4c0-1.8-.2-1.8-2.1-2v-.7c1.5-.2 2.9-.5 4.3-.9v16.6c0 1.4.2 1.6 1.2 1.7l.9.1v.6zm-4.2-9.2c-.7-.9-1.8-1.4-2.9-1.4-1.3 0-3.7.9-3.7 4.8 0 3.3 2.1 5.1 3.8 5.1 1-.1 1.9-.4 2.7-1l.1-7.5zm12.5 1.1c-.5-1.6-1.2-2.7-2.9-2.7-.9 0-1.7.7-1.7 1.6v.2c0 1.2.8 1.7 2.3 2.4 2.4 1.1 3.5 1.9 3.5 3.8 0 2.5-2.3 3.8-4.5 3.8-1.1 0-2.3-.2-3.3-.7-.1-.8-.4-2.3-.5-3.2l.8-.1c.5 1.8 1.5 3.2 3.4 3.2 1 0 1.9-.7 1.9-1.7v-.1c0-1.2-.7-1.9-2.2-2.6-1.9-.9-3.5-1.8-3.5-3.8s1.7-3.5 4.3-3.5c.9 0 1.8.2 2.6.4.1.7.3 2.4.4 3.1l-.6-.1zm9.5-3.6c3.3-.1 5.9 2.5 6 5.8v.4c0 4.4-3.3 6.6-6 6.6-3.3 0-6.1-2.6-6.1-6v-.2c-.2-3.5 2.5-6.4 6-6.6h.1zm-.4 1c-1.7 0-3.2 1.6-3.2 4.8 0 3.5 1.5 6 3.8 6 1.7 0 3.1-1.2 3.1-5 .1-3.2-1.3-5.8-3.7-5.8zm-333.3 40.8l-.8 3.6h-9.8v-.6c2.4-1.8 6.4-4.6 6.4-7.5.1-1.3-.9-2.5-2.2-2.6h-.3c-1.5 0-2.5 1.3-3 2.1l-.7-.6 1.3-1.8c.8-1 2-1.5 3.3-1.5 2.1-.1 3.9 1.5 4 3.6v.3c-.1 1.4-.8 2.8-1.9 3.7-.9.8-2.1 1.8-3.6 3.1h4.4c1.2 0 1.4-.3 2.3-1.9l.6.1zm13.1-12.2c-4.3 1.1-6.8 3.6-7.8 6.5l1.6-.6c.6-.3 1.2-.4 1.8-.5 2.6 0 4.7 1.9 4.7 4.9.1 3.1-2.3 5.7-5.4 5.8h-.2c-2.8 0-5.4-2.3-5.4-6.5 0-4.5 3.3-8 7.1-9.6 1.1-.4 2.3-.7 3.4-.9l.2.9zm-5.8 6.9c-.8 0-1.5.2-2.2.6-.2.6-.2 1.3-.2 2 0 3.6 1.5 5.7 3.4 5.7 1.3 0 2.7-1 2.7-3.6.1-2.1-.7-4.7-3.7-4.7zm19.7 7.9h-2.3v5.3h-2.2v-5.3h-7.1v-1c2.7-3.5 5.5-7.1 8.2-10.5h1.2v9.9h2.6l-.4 1.6zm-4.5-8.6c-2 2.6-3.6 4.6-5.3 7h5.3v-7zm12.4-7.1c2.2-.1 4.1 1.5 4.3 3.8v.3c0 .7-.3 1.5-.7 2-.6.6-1.3 1.1-2 1.6 1.7 1 3.5 2.3 3.5 4.6 0 2.8-2.4 4.8-5.2 4.8-2.8 0-5-1.9-5-4.4 0-1 .5-1.9 1.2-2.6.7-.6 1.5-1.1 2.3-1.7-1.5-.9-2.8-2.2-2.8-4.1-.2-2.5 1.9-4.4 4.4-4.3-.1 0-.1 0 0 0zm0 16.1c1.6 0 2.6-1.1 2.6-3.2s-1.7-3-3.7-4.1c-1.5 1.1-2.1 2.3-2.1 3.6 0 2.4 1.6 3.7 3.2 3.7zm-.3-15.2c-1.6 0-2.3 1.4-2.3 2.6 0 2 1.5 2.7 3.3 3.6 1-.7 1.6-1.9 1.5-3.1 0-2.1-1.3-3.1-2.5-3.1zm26.2 4.5c-1.5.2-1.7.4-2.4 2.1-.9 2.2-2.5 5.9-3.9 9.6h-.8c-1.2-3.2-2.5-6.4-3.8-9.6-.6-1.6-.8-1.8-2.3-2v-.7h5.6v.7c-1.5.2-1.6.4-1.1 1.6.7 1.9 1.8 4.8 2.6 6.7 1-2.4 1.9-4.7 2.5-6.5.5-1.3.4-1.7-1.4-1.8v-.7h5v.6zm10.5 9c-1.8 2.2-3.7 2.7-4.6 2.7-3.4 0-5.4-2.8-5.4-5.9 0-1.8.6-3.5 1.8-4.8 1-1.2 2.5-1.9 4.1-2 2.3 0 4.2 1.9 4.2 4.3 0 .5-.1.8-.5.9-.4.1-4.1.4-7.3.5-.1 3.7 2.2 5.2 4.1 5.2 1.2 0 2.3-.5 3.2-1.4l.4.5zm-4.7-9c-1.3 0-2.5 1.2-2.9 3.4 1.5 0 3.1 0 4.7-.1.5 0 .7-.1.7-.6.1-1.4-.9-2.6-2.3-2.8-.1.1-.1.1-.2.1zm14.4 11.3v-.7c1.6-.2 1.8-.4 1.8-2.2v-4.5c0-1.9-.7-3.2-2.5-3.2-1.2.1-2.2.6-3 1.4v6.4c0 1.9.2 1.9 1.8 2.1v.7H452v-.7c1.8-.2 2-.3 2-2.1v-5.7c0-1.8-.2-1.9-1.7-2.1v-.7c1.3-.2 2.6-.6 3.9-1.1v2.2c.5-.4 1.2-.8 1.9-1.3s1.5-.8 2.3-.8c2.2 0 3.6 1.6 3.6 4.3v5.2c0 1.9.2 1.9 1.8 2.1v.7h-6zm7.3 0v-.7c1.7-.2 1.9-.3 1.9-2.2v-5.7c0-1.7-.1-1.8-1.7-2.1v-.6c1.3-.2 2.6-.6 3.9-1.1v9.5c0 1.9.2 2 2 2.2v.7h-6.1zm2.9-15.1c-.8 0-1.5-.7-1.5-1.5s.6-1.5 1.4-1.5c.8 0 1.4.7 1.4 1.5v.1c.1.7-.5 1.3-1.3 1.4zm13.3 15.4c-.5 0-.9-.2-1.3-.5-.3-.3-.6-.8-.7-1.2-1.1.7-2.4 1.8-3.3 1.8-1.9 0-3.4-1.5-3.4-3.4 0-1.3.7-2.2 2.3-2.7 1.7-.6 3.7-1.3 4.3-1.8v-.6c0-2-1-3.1-2.4-3.1-.5 0-1 .2-1.3.6-.3.6-.6 1.2-.7 1.8-.1.4-.4.7-.8.6-.6-.1-1.2-.6-1.2-1.2 0-.4.4-.7.9-1.1 1.2-.9 2.5-1.5 4-1.9 2 0 3.7 1.5 3.7 3.5v5.7c0 1.3.5 1.7 1 1.7.4 0 .7-.1 1-.3l.3.7-2.4 1.4zm-2-6.9c-.6.3-1.9.9-2.6 1.2-1 .5-1.7 1-1.7 2-.1 1.1.8 2.1 1.9 2.1h.1c.8-.1 1.6-.4 2.3-1v-4.3zm20.6 6.6v-.7c1.6-.2 1.8-.3 1.8-2.2v-4.6c0-2-.7-3.2-2.4-3.2-1.2.1-2.2.6-3 1.4 0 .3.1.7.1 1.2v5.3c0 1.7.2 1.9 1.8 2v.7h-5.9v-.7c1.7-.2 1.9-.3 1.9-2.1v-4.7c0-2-.6-3.2-2.3-3.2-1.1.1-2.2.6-3 1.4v6.5c0 1.8.2 1.9 1.8 2.1v.7h-5.9v-.7c1.8-.2 2-.3 2-2.1v-5.7c0-1.8-.1-1.9-1.7-2.1v-.7c1.3-.2 2.6-.6 3.8-1.1v2.2c.6-.5 1.3-1 2-1.4.6-.5 1.4-.7 2.2-.7 1.4 0 2.6.9 3 2.3.7-.6 1.5-1.1 2.2-1.5.6-.4 1.4-.7 2.2-.7 2.1 0 3.5 1.5 3.5 4.2v5.3c0 1.8.2 1.9 1.7 2.1v.7h-5.8zm7.6 2.5c1.2-.6 2.2-1.3 2.2-2.4s-.8-1.2-1.8-1.5c-.3-.2-.5-.5-.4-.9 0-.8.7-1.4 1.4-1.4h.1c1 0 2.3.9 2.3 2.9 0 2.2-1.9 3.5-3.5 4l-.3-.7zm19.8 4.2v-.7c2.2-.2 2.3-.3 2.3-2.3v-4.5l-3 1.2c-3.2.1-5.9-2.5-6-5.7v-.2c0-4 3.6-6.8 7.4-6.8.7 0 1.3.2 2 .4.2.1.5.1.7.1l.9-.3.1.1c0 .6-.1 1.1-.1 3v12.9c0 1.9.2 2 2.1 2.2v.7l-6.4-.1zm2.3-16.8c-.7-.7-1.7-1.2-2.7-1.2-1.9 0-3.8 1.6-3.8 4.8 0 3.6 2.3 5.2 4.4 5.2.7 0 1.4-.2 2.1-.5v-8.3zm18.5 9.5c-1.4.2-2.8.6-4.2 1v-2.1c-1.5 1.2-2.7 2.1-4.2 2.1-1.8 0-3.4-1.1-3.4-4.1v-5.3c0-1.5-.2-1.7-.9-1.8l-.8-.1v-.7c1.3-.1 2.6-.3 3.9-.5-.1.9-.1 2.2-.1 4v3.7c0 2.4 1.3 3.1 2.5 3.1 1.1 0 2.2-.5 3-1.3v-6.4c0-1.5-.3-1.7-1.3-1.8l-.9-.1v-.7c1.4-.1 2.9-.2 4.3-.5v9.2c0 1.4.2 1.6 1.3 1.6h.7l.1.7zm1.4.6v-.7c1.7-.2 1.9-.3 1.9-2.2v-5.7c0-1.7-.1-1.8-1.7-2.1v-.6c1.3-.2 2.7-.6 3.9-1.1v9.5c0 1.9.2 2 2 2.2v.7h-6.1zm2.8-15.1c-.8 0-1.5-.7-1.5-1.5s.6-1.5 1.4-1.5c.8 0 1.4.7 1.4 1.5v.1c.1.7-.5 1.3-1.3 1.4zm11.7 6.3c-.5-1.6-1.2-2.7-2.9-2.7-.9 0-1.7.7-1.7 1.6v.2c0 1.2.8 1.7 2.3 2.4 2.4 1.1 3.5 2 3.5 3.8 0 2.5-2.3 3.8-4.5 3.8-1.1 0-2.3-.2-3.3-.7-.1-.8-.4-2.3-.5-3.2l.8-.1c.5 1.8 1.5 3.2 3.4 3.2 1 .1 1.9-.7 1.9-1.7v-.1c0-1.2-.7-1.9-2.2-2.6-1.9-.9-3.5-1.8-3.5-3.8 0-2 1.7-3.5 4.3-3.5.9 0 1.8.2 2.6.4.1.7.3 2.4.4 3.1l-.6-.1zm12.8 1.8c3 .2 6.7 1.4 6.7 5 0 1.8-1 3.5-2.5 4.5-1.8 1.2-3.9 1.9-6 2l-.1-.9c1.6-.3 6.4-1.2 6.4-5.1 0-2.9-3.1-3.6-5.8-3.6l1.2-6.8 6.9-.6-.4 2-5.7.5-.7 3zm21.1-8.8c-4.3 1.1-6.8 3.6-7.8 6.5l1.6-.6c.6-.3 1.2-.4 1.8-.5 2.6 0 4.7 1.9 4.7 4.9.1 3.1-2.3 5.7-5.4 5.8h-.2c-2.8 0-5.4-2.3-5.4-6.5 0-4.5 3.3-8 7.1-9.6 1.1-.4 2.3-.7 3.4-.9l.2.9zm-5.8 6.9c-.8 0-1.5.2-2.2.6-.2.6-.2 1.3-.2 2 0 3.6 1.5 5.7 3.4 5.7 1.3 0 2.7-1 2.7-3.6.1-2.1-.7-4.7-3.7-4.7zm19.6-2.8c-1.3 2.3-4.8 9-8.4 15.8l-2.1.4-.2-.4c3.1-4.6 5.9-9.3 8.5-14.2H603v-2h10.5l.2.4zm8-5c2.2-.1 4.1 1.5 4.2 3.7v.3c0 .7-.3 1.5-.7 2-.6.6-1.3 1.1-2 1.6 1.7 1 3.5 2.3 3.5 4.6 0 2.8-2.4 4.8-5.2 4.8-2.8 0-5-1.9-5-4.4 0-1 .5-1.9 1.2-2.6.7-.6 1.5-1.1 2.3-1.7-1.5-.9-2.8-2.2-2.8-4.1 0-2.4 2-4.3 4.5-4.2zm0 16.1c1.6 0 2.6-1.1 2.6-3.2s-1.7-3-3.7-4.1c-1.5 1.1-2.1 2.3-2.1 3.6.1 2.4 1.6 3.7 3.2 3.7zm-.3-15.2c-1.6 0-2.3 1.4-2.3 2.6 0 2 1.5 2.7 3.3 3.6 1-.7 1.6-1.9 1.5-3.1 0-2.1-1.3-3.1-2.5-3.1zm19.1 12.2l-.9 3.6h-9.8v-.6c2.4-1.8 6.4-4.6 6.4-7.5.1-1.3-.8-2.5-2.2-2.6h-.3c-1.5 0-2.5 1.3-3.1 2.1l-.7-.6 1.3-1.8c.8-1 2-1.5 3.3-1.5 2.1-.1 3.9 1.5 4 3.6v.3c-.1 1.4-.8 2.8-1.9 3.7-.9.8-2.1 1.8-3.6 3.1h4.4c1.2 0 1.4-.3 2.3-1.9l.8.1zm18.6 1.3c-1.8 2.2-3.7 2.7-4.6 2.7-3.4 0-5.4-2.8-5.4-5.9 0-1.8.6-3.5 1.8-4.8 1-1.2 2.5-1.9 4.1-2 2.3 0 4.2 1.9 4.2 4.3 0 .5-.1.8-.5.9-.4.1-4.1.4-7.4.5-.1 3.7 2.2 5.2 4.1 5.2 1.2 0 2.3-.5 3.2-1.4l.5.5zm-4.8-9c-1.3 0-2.5 1.2-2.9 3.4 1.5 0 3.1 0 4.7-.1.5 0 .7-.1.7-.6.1-1.4-.9-2.6-2.3-2.8-.1.1-.1.1-.2.1zm12.9 11.3v-.7c1.2-.1 1.4-.3 1-1.1l-2.1-3.2c-.6 1-1.2 2-1.8 2.9-.6 1-.5 1.2 1 1.4v.7h-5.2v-.7c1.7-.2 2.1-.4 3.1-1.8.7-1.1 1.5-2.1 2.3-3.4l-2.4-3.7c-.8-1.3-1.2-1.5-2.7-1.7v-.7h5.5v.7c-1.2.2-1.3.4-.7 1.2l1.6 2.5c.5-.8 1.1-1.7 1.6-2.6.5-.8.3-1-.9-1.1v-.7h5v.7c-1.5.2-2.1.3-3.2 1.7-.4.5-1 1.4-1.9 2.8l2.6 4.1c1 1.5 1.3 1.8 3 2v.7h-5.8zm16.3-2.3c-1.8 2.2-3.7 2.7-4.6 2.7-3.4 0-5.4-2.8-5.4-5.9 0-1.8.6-3.5 1.8-4.8 1-1.2 2.5-1.9 4.1-2 2.3 0 4.2 1.9 4.2 4.3 0 .5-.1.8-.5.9-.6.1-4.1.4-7.4.5-.1 3.7 2.2 5.2 4.1 5.2 1.2 0 2.4-.6 3.2-1.4l.5.5zm-4.7-9c-1.3 0-2.5 1.2-2.9 3.4 1.5 0 3.1 0 4.7-.1.5 0 .7-.1.7-.6.1-1.4-.9-2.6-2.3-2.8-.1.1-.2.1-.2.1zm12.8 11.3h-6.4v-.7c1.7-.2 1.9-.3 1.9-2.1v-5.7c0-1.8-.1-1.9-1.7-2.1v-.7c1.3-.2 2.6-.6 3.9-1.1v3c1-1.4 2.1-3 3.5-3 .8-.1 1.5.4 1.6 1.2v.1c0 .6-.4 1.2-.9 1.5-.2.2-.5.2-.7-.1-.3-.4-.7-.6-1.2-.7-.6 0-1.6.9-2.2 2.3v5.2c0 1.8.1 1.9 2.2 2.1v.8zm14.1-2.5c-1.2 1.6-3 2.8-4.7 2.8-3.5 0-5.6-2.8-5.6-5.8 0-2.1 1-4.2 2.8-5.4 1.2-.9 2.7-1.5 4.2-1.6.9 0 1.8.2 2.6.7.3.2.5.5.4.8 0 .6-.4 1.1-1 1.2-.1 0-.2-.1-.5-.3-.7-.7-1.7-1.1-2.8-1.2-1.8 0-3.4 1.5-3.4 4.4 0 3.8 2.6 5.1 4.2 5.1 1.3 0 2.5-.5 3.4-1.5l.4.8zm1.5 2.5v-.7c1.7-.2 1.9-.3 1.9-2.2v-5.7c0-1.7-.1-1.8-1.7-2.1v-.6c1.3-.2 2.6-.6 3.9-1.1v9.5c0 1.9.2 2 2 2.2v.7h-6.1zm2.8-15.1c-.8 0-1.5-.7-1.5-1.5s.6-1.5 1.4-1.5c.8 0 1.4.7 1.4 1.5v.1c.1.7-.5 1.3-1.3 1.4zm-337.2 48.1c-.4.2-.8.3-1.2.4-1.8 0-2.7-1.1-2.7-3.3v-8H367l-.1-.3.7-.8h1.3V396l1.8-1.8.4.1c-.1 1.2-.1 2.7-.1 4.1h3.1c.2.4.2.8-.2 1.1h-3v7c0 2.2.9 2.6 1.6 2.6.6 0 1.2-.2 1.7-.4l.3.7-1.7.9zm11.8.3c-.5 0-.9-.2-1.3-.5-.3-.3-.6-.8-.7-1.2-1.1.7-2.4 1.8-3.3 1.8-1.9 0-3.4-1.5-3.4-3.4 0-1.3.7-2.2 2.3-2.8 1.7-.6 3.7-1.3 4.3-1.8v-.6c0-1.9-1-3.1-2.4-3.1-.5 0-1 .2-1.3.6-.3.6-.6 1.2-.7 1.8-.1.4-.4.7-.8.6-.6-.1-1.2-.6-1.2-1.2 0-.4.4-.7.9-1.1 1.2-.9 2.5-1.5 4-1.9 2 0 3.7 1.5 3.7 3.5v5.7c0 1.3.5 1.7 1 1.7.3 0 .7-.1 1-.3l.3.7-2.4 1.5zm-2-6.9c-.6.3-1.9.9-2.6 1.2-1 .5-1.7 1-1.7 2-.1 1.1.8 2 1.9 2.1h.1c.8-.1 1.6-.4 2.3-1v-4.3zm10.6 6.6c-.4.2-.8.3-1.2.4-1.8 0-2.7-1.1-2.7-3.3v-8h-1.9l-.1-.3.7-.8h1.3V396l1.8-1.8.4.1c-.1 1.2-.1 2.7-.1 4.1h3.1c.2.4.2.8-.2 1.1h-3v7c0 2.2.9 2.6 1.6 2.6.6 0 1.2-.2 1.7-.4l.3.7-1.7.9zm3 0v-.7c1.7-.2 1.9-.3 1.9-2.2v-5.7c0-1.7-.1-1.8-1.7-2.1v-.6c1.3-.2 2.6-.6 3.9-1.1v9.5c0 1.9.2 2 2 2.2v.7h-6.1zm2.8-15.1c-.8 0-1.5-.7-1.5-1.5s.7-1.5 1.5-1.5 1.4.7 1.4 1.5-.6 1.4-1.4 1.5zm10.8 2.7c3.3-.1 5.9 2.5 6 5.8v.4c0 4.4-3.3 6.6-6 6.6-3.3 0-6.1-2.6-6.1-6v-.2c-.2-3.5 2.5-6.4 6-6.6h.1zm-.4 1c-1.7 0-3.2 1.6-3.2 4.8 0 3.5 1.5 6 3.8 6 1.7 0 3.1-1.2 3.1-5 .1-3.2-1.2-5.9-3.7-5.8zm16 11.4v-.7c1.6-.2 1.8-.4 1.8-2.2v-4.5c0-1.9-.7-3.2-2.5-3.2-1.2.1-2.2.6-3 1.4v6.4c0 1.9.2 2 1.8 2.1v.7h-5.9v-.7c1.8-.2 2-.3 2-2.1v-5.7c0-1.8-.2-1.9-1.7-2.1v-.7c1.3-.2 2.6-.6 3.9-1.1v2.2c.5-.4 1.2-.8 1.9-1.3s1.5-.8 2.3-.8c2.2 0 3.6 1.6 3.6 4.3v5.2c0 1.9.2 2 1.8 2.1v.7h-6zm27.1-.6c-1.4.2-2.8.5-4.2 1v-2.1c-1.5 1.2-2.7 2.1-4.2 2.1-1.8 0-3.4-1.1-3.4-4.1v-5.3c0-1.5-.2-1.7-.9-1.8l-.7-.1v-.7c1.3-.1 2.6-.3 3.9-.5-.1.9-.1 2.2-.1 4v3.7c0 2.4 1.3 3.1 2.5 3.1 1.1 0 2.2-.5 3-1.3v-6.4c0-1.5-.3-1.7-1.3-1.8l-.9-.1v-.7c1.4-.1 2.9-.2 4.3-.5v9.2c0 1.4.2 1.6 1.3 1.6h.7v.7zm.9.6v-.7c1.8-.2 2-.3 2-2.1v-13.2c0-1.7-.1-1.8-1.9-2.1v-.7c1.4-.2 2.8-.5 4.1-.9v16.9c0 1.8.2 2 2 2.1v.7h-6.2zm7.4 0v-.7c1.8-.2 2-.3 2-2.1v-13.2c0-1.7-.1-1.8-1.9-2.1v-.7c1.4-.2 2.8-.5 4.1-.9v16.9c0 1.8.2 2 1.9 2.1v.7h-6.1zm16.2.3c-.5 0-.9-.2-1.3-.5-.3-.3-.6-.8-.7-1.2-1.1.7-2.4 1.8-3.3 1.8-1.9 0-3.4-1.5-3.4-3.4 0-1.3.7-2.2 2.3-2.8 1.7-.6 3.7-1.3 4.3-1.8v-.6c0-1.9-1-3.1-2.4-3.1-.5 0-1 .2-1.3.6-.3.5-.6 1.2-.7 1.8-.1.4-.4.7-.8.6-.6-.1-1.2-.6-1.2-1.2 0-.4.4-.7.9-1.1 1.2-.9 2.5-1.5 4-1.9 2 0 3.7 1.5 3.7 3.5v5.7c0 1.3.5 1.7 1 1.7.3 0 .7-.1 1-.3l.3.7-2.4 1.5zm-2-6.9c-.6.3-1.9.9-2.6 1.2-1 .5-1.7 1-1.7 2-.1 1.1.8 2 1.9 2.1h.1c.8-.1 1.6-.4 2.3-1v-4.3zm20.6 6.6v-.7c1.6-.2 1.8-.3 1.8-2.2v-4.6c0-2-.7-3.2-2.4-3.2-1.2.1-2.2.6-3 1.4 0 .3.1.7.1 1.2v5.3c0 1.7.2 1.9 1.8 2v.7H488v-.7c1.7-.2 1.9-.3 1.9-2.1v-4.7c0-2-.6-3.2-2.3-3.2-1.1 0-2.2.7-3 1.4v6.5c0 1.8.2 1.9 1.8 2.1v.7h-5.9v-.7c1.8-.2 2-.3 2-2.1v-5.7c0-1.8-.1-1.9-1.7-2.1v-.7c1.3-.2 2.6-.6 3.8-1.1v2.2c.6-.5 1.3-1 2-1.4.6-.5 1.4-.7 2.2-.7 1.4 0 2.6.9 3 2.3.7-.6 1.5-1.1 2.2-1.5.6-.4 1.4-.7 2.2-.7 2.1 0 3.5 1.5 3.5 4.2v5.3c0 1.8.2 1.9 1.7 2.1v.7h-5.8zm17.7-2.5c-1.2 1.6-3 2.8-4.7 2.8-3.5 0-5.6-2.8-5.6-5.8 0-2.1 1-4.2 2.8-5.4 1.2-.9 2.7-1.5 4.2-1.6.9 0 1.8.2 2.6.7.3.2.5.5.4.8 0 .6-.4 1.1-1 1.2-.1 0-.2-.1-.5-.3-.7-.7-1.7-1.1-2.8-1.2-1.8 0-3.4 1.5-3.4 4.4 0 3.8 2.6 5.1 4.2 5.1 1.3 0 2.5-.5 3.4-1.5l.4.8zm7.6-9.9c3.3-.1 5.9 2.5 6 5.8v.4c0 4.4-3.3 6.6-6 6.6-3.3 0-6.1-2.6-6.1-6v-.2c-.2-3.5 2.5-6.4 6-6.6h.1zm-.4 1c-1.7 0-3.2 1.6-3.2 4.8 0 3.5 1.5 6 3.8 6 1.7 0 3.1-1.2 3.1-5 .1-3.2-1.2-5.9-3.7-5.8zm14.5 11.4h-6.3v-.7c1.7-.2 1.9-.3 1.9-2.1v-5.7c0-1.8-.1-1.9-1.7-2.1v-.7c1.3-.2 2.6-.6 3.9-1.1v3c1-1.4 2.1-3 3.5-3 .8-.1 1.5.4 1.6 1.2v.1c0 .6-.4 1.2-.9 1.5-.2.2-.5.2-.7-.1-.3-.4-.7-.6-1.2-.7-.6 0-1.6.8-2.2 2.3v5.2c0 1.8.1 2 2.2 2.1l-.1.8zm4.2-11.5c1.4-.2 2.7-.6 4-1.2v2.2c.1-.1 2.3-1.3 2.4-1.4.5-.3 1-.5 1.6-.6 3 0 4.9 2.5 4.9 5.3 0 4.2-3.3 6.8-6.9 7.5-.7 0-1.3-.2-1.9-.5v3.7c0 2 .2 2.2 2.3 2.4v.7H539v-.7c1.8-.2 2-.3 2-2.2v-12.5c0-1.6-.1-1.8-1.8-2v-.7zm4 9.5c.7.7 1.6 1.1 2.6 1.1 2.4 0 3.9-2 3.9-5.1 0-3-1.7-4.6-3.7-4.6-1 .1-2 .5-2.9 1.2v7.4zm21-.3c-1.8 2.2-3.7 2.7-4.6 2.7-3.4 0-5.4-2.7-5.4-5.9 0-1.8.6-3.5 1.8-4.8 1-1.2 2.5-2 4.1-2 2.3 0 4.2 1.9 4.2 4.3 0 .6-.1.8-.6.9-.4.1-4.1.4-7.4.5-.1 3.7 2.2 5.2 4.1 5.2 1.2 0 2.3-.5 3.2-1.4l.6.5zm-4.7-9c-1.3 0-2.5 1.2-2.9 3.4 1.5 0 3.1 0 4.7-.1.5 0 .7-.1.7-.5.1-1.4-.9-2.6-2.3-2.8h-.2zm12.9 11.3H566v-.7c1.7-.2 1.9-.3 1.9-2.1v-5.7c0-1.8-.1-1.9-1.7-2.1v-.7c1.3-.2 2.6-.6 3.9-1.1v3c1-1.4 2.1-3 3.5-3 .8-.1 1.5.5 1.6 1.2v.1c0 .6-.4 1.2-.9 1.5-.2.2-.5.2-.7-.1-.3-.4-.7-.6-1.2-.7-.6 0-1.6.8-2.2 2.3v5.2c0 1.8.1 2 2.3 2.1l-.1.8zm17.4-8.8c-.5-1.6-1.2-2.7-2.9-2.7-.9 0-1.7.7-1.7 1.6v.2c0 1.2.8 1.7 2.3 2.4 2.4 1.1 3.5 1.9 3.5 3.8 0 2.5-2.3 3.8-4.5 3.8-1.1 0-2.3-.2-3.3-.7-.1-.8-.4-2.3-.5-3.2l.8-.1c.5 1.8 1.5 3.2 3.4 3.2 1 0 1.9-.7 1.9-1.7v-.1c0-1.2-.7-1.9-2.2-2.6-1.9-.9-3.5-1.8-3.5-3.8 0-2 1.7-3.5 4.3-3.5.9 0 1.8.2 2.6.4.1.7.3 2.4.4 3.1l-.6-.1zm16.2 8.2c-1.4.2-2.8.5-4.2 1v-2.1c-1.5 1.2-2.7 2.1-4.2 2.1-1.8 0-3.4-1.1-3.4-4.1v-5.3c0-1.5-.2-1.7-.9-1.8l-.8-.1v-.7c1.3-.1 2.6-.3 3.9-.5-.1.9-.1 2.2-.1 4v3.7c0 2.4 1.3 3.1 2.5 3.1 1.1 0 2.2-.5 3-1.3v-6.4c0-1.5-.3-1.7-1.3-1.8l-.9-.1v-.7c1.4-.1 2.9-.2 4.3-.5v9.2c0 1.4.2 1.6 1.3 1.6h.7l.1.7zm8.4-8.2c-.5-1.6-1.2-2.7-2.9-2.7-.9 0-1.7.7-1.7 1.6v.2c0 1.2.8 1.7 2.3 2.4 2.4 1.1 3.5 1.9 3.5 3.8 0 2.5-2.3 3.8-4.5 3.8-1.1 0-2.3-.2-3.3-.7-.1-.8-.4-2.3-.5-3.2l.8-.1c.5 1.8 1.5 3.2 3.4 3.2 1 0 1.9-.7 1.9-1.7v-.1c0-1.2-.7-1.9-2.2-2.6-1.9-.9-3.5-1.8-3.5-3.8 0-2 1.7-3.5 4.3-3.5.9 0 1.8.2 2.6.4.1.7.3 2.4.4 3.1l-.6-.1zm13.6 6.3c-1.2 1.6-3 2.8-4.7 2.8-3.5 0-5.6-2.8-5.6-5.8 0-2.1 1-4.2 2.8-5.4 1.2-.9 2.7-1.5 4.2-1.6.9 0 1.8.2 2.6.7.3.2.5.5.4.8 0 .6-.4 1.1-1 1.2-.1 0-.2-.1-.5-.3-.7-.7-1.7-1.1-2.8-1.2-1.8 0-3.4 1.5-3.4 4.4 0 3.8 2.6 5.1 4.2 5.1 1.3 0 2.5-.5 3.4-1.5l.4.8zm1.5 2.5v-.7c1.7-.2 1.9-.3 1.9-2.2v-5.7c0-1.7-.1-1.8-1.7-2.1v-.6c1.3-.2 2.6-.6 3.9-1.1v9.5c0 1.9.2 2 2 2.2v.7h-6.1zm2.8-15.1c-.8 0-1.5-.7-1.5-1.5s.7-1.5 1.5-1.5 1.4.7 1.4 1.5-.6 1.4-1.4 1.5zm4.4 3.6c1.4-.2 2.7-.6 4-1.2v2.2c.1-.1 2.3-1.3 2.4-1.4.5-.3 1-.5 1.6-.6 3 0 4.9 2.5 4.9 5.3 0 4.2-3.3 6.8-6.9 7.5-.7 0-1.3-.2-1.9-.5v3.7c0 2 .2 2.2 2.3 2.4v.7h-6.5v-.7c1.8-.2 2-.3 2-2.2v-12.5c0-1.6-.1-1.8-1.8-2l-.1-.7zm4 9.5c.7.7 1.6 1.1 2.6 1.1 2.4 0 3.9-2 3.9-5.1 0-3-1.7-4.6-3.7-4.6-1 .1-2 .5-2.9 1.2v7.4zm10.7 2v-.7c1.7-.2 1.9-.3 1.9-2.2v-5.7c0-1.7-.1-1.8-1.7-2.1v-.6c1.3-.2 2.6-.6 3.9-1.1v9.5c0 1.9.2 2 2 2.2v.7h-6.1zm2.8-15.1c-.8 0-1.5-.7-1.5-1.5s.7-1.5 1.5-1.5 1.4.7 1.4 1.5-.6 1.4-1.4 1.5zm9.9 15.1c-.4.2-.8.3-1.2.4-1.8 0-2.7-1.1-2.7-3.3v-8h-1.9l-.1-.3.7-.8h1.3V396l1.8-1.8.4.1c-.1 1.2-.1 2.7-.1 4.1h3.1c.2.4.2.8-.1 1.1h-3v7c0 2.2.9 2.6 1.6 2.6.6 0 1.2-.2 1.7-.4l.2.7-1.7.9zm9 0v-.7c1.8-.2 2-.3 2-2.1v-13.2c0-1.7-.1-1.8-1.9-2.1v-.7c1.4-.1 2.7-.4 4-.9v16.9c0 1.8.2 2 2 2.1v.7h-6.1zm13.7-12.4c3.3-.1 5.9 2.5 6 5.8v.4c0 4.4-3.3 6.6-6 6.6-3.3 0-6.1-2.6-6.1-6v-.2c-.2-3.5 2.5-6.4 6-6.6h.1zm-.4 1c-1.7 0-3.2 1.6-3.2 4.8 0 3.5 1.5 6 3.8 6 1.7 0 3.1-1.2 3.1-5 .1-3.2-1.3-5.9-3.7-5.8zm13.9-.7c.4-.2.8-.2 1.2-.3 3.1.1 5.5 2.7 5.4 5.8 0 3.8-3 6.8-6.8 6.9-1.5 0-2.9-.4-4.2-1v-15.5c0-1.7-.1-1.9-1.8-2v-.7c1.4-.2 2.7-.5 4-.9v8.6l2.2-.9zm-2.2 8.9c0 .3 0 .7.1 1 .6.9 1.6 1.5 2.7 1.5 2.4 0 3.5-2 3.5-5.2 0-3.1-1.9-5-4.2-5-.8 0-1.5.2-2.2.5l.1 7.2zm17.1-9.2c3.3-.1 5.9 2.5 6 5.8v.4c0 4.4-3.3 6.6-6 6.6-3.3 0-6.1-2.6-6.1-6v-.2c-.2-3.5 2.5-6.4 6-6.6h.1zm-.3 1c-1.7 0-3.2 1.6-3.2 4.8 0 3.5 1.5 6 3.8 6 1.7 0 3.1-1.2 3.1-5 .1-3.2-1.3-5.9-3.7-5.8zm14.4 11.4H723v-.7c1.7-.2 1.9-.3 1.9-2.1v-5.7c0-1.8-.1-1.9-1.7-2.1v-.7c1.3-.2 2.6-.6 3.9-1.1v3c1-1.4 2.1-3 3.5-3 .8-.1 1.5.4 1.6 1.2v.1c0 .6-.4 1.2-.9 1.5-.2.2-.5.2-.7-.1-.3-.4-.7-.6-1.2-.7-.6 0-1.6.8-2.2 2.3v5.2c0 1.8.1 2 2.2 2.1l-.1.8zm9.9 0c-.4.2-.8.3-1.2.4-1.8 0-2.7-1.1-2.7-3.3v-8h-1.9l-.1-.3.7-.8h1.3V396l1.8-1.8.4.1c-.1 1.2-.1 2.7-.1 4.1h3.1c.2.4.2.8-.2 1.1h-3v7c0 2.2.9 2.6 1.6 2.6.6 0 1.2-.2 1.7-.4l.3.7-1.7.9zm5.6.4c-.9 0-1.7-.7-1.7-1.6v-.2c0-.9.7-1.7 1.6-1.8h.1c.9 0 1.7.7 1.7 1.7v.1c0 .9-.7 1.7-1.6 1.8h-.1z" class="st2"/></g></g></svg>