<svg xmlns="http://www.w3.org/2000/svg" id="Layer_1" viewBox="0 0 800 951.3" width="800" height="951.3"><style>.st0{fill:none;stroke:#b3b3b3;stroke-width:.7094;stroke-miterlimit:10}.st1{fill:#999}.st2{fill:none;stroke:#2997ff;stroke-width:4.2565;stroke-miterlimit:10}</style><path d="M31.4 331.7c16.9 0 19.7.5 34.8.5.5 0 2.6 2.1 2.8 3.4 3.1 9.6 4.7 12.5 9.9 23.6 14.5 30.7 44.7 93 48.3 97.9.5.8 2.1 1.6 2.6.8 2.3-4.4 50.9-96.1 55-107 .2-1 4.4-9.9 6-15 .2-1.3 2.3-3.7 2.8-3.7 9.3 0 30.4-.8 32.8-.8 3.4 0 6.7.5 6.7 2.8 0 1.8-2.1 3.4-6.7 4.2-4.2.8-7.8 1.8-11.7 3.4-3.9 1.6-8.1 6.5-8.1 20 0 72.2 2.8 105.2 3.7 112.5 1.6 11.7 4.4 14.3 16.9 17.9 4.7 1 7 3.1 7 4.9 0 2.1-3.7 3.4-7.5 3.4-2.8 0-22.9-1.3-32.5-1.3-4.9 0-13.5.8-19.7.8-2.8 0-7-1-7-3.7 0-2.3 3.1-3.7 6.7-4.7 10.6-3.1 11.1-9.1 12-18.7 1-11.7.5-87-.2-100.2 0-1.8-1-3.4-2.6-.8-2.8 4.9-31.9 62.1-42.1 83.4-6.2 13.5-12.2 27-16.1 37.2-2.8 7.5-4.2 7.3-6 7.3-1.6 0-3.1-2.1-3.9-4.9-1.8-6.5-4.7-15-9.6-27.5-14.1-34.4-35.3-75.4-45-97.5-.8-1.8-1.6-2.1-1.8.8-2.1 10.9-4.9 76.4-4.2 100.2.5 13.2 2.6 16.9 15.9 21 5.7 1.6 7 2.6 7 4.9 0 2.1-2.8 3.1-7 3.1-8.3 0-19.2-.8-26-.8-6.2 0-14.3.8-20.8.8-3.9 0-6.7-.8-6.7-3.7 0-1 1.8-2.8 5.2-3.7 16.1-4.7 17.7-9.1 19.7-23.9 2.6-17.9 8.3-92.7 8.8-112.2 0-2.1-.5-12-11.7-15-4.4-1.3-7.8-2.3-11.1-3.1-1.8-.5-4.2-2.3-4.2-4.2 0-2.4 1.9-2.4 7.6-2.4zm396 81.8c0 36.4-17.9 61.8-36.9 75.3-16.4 11.4-37.9 15-51.2 15-26.5 0-51.7-11.4-67.5-29.6-13.8-15.3-21.5-36.4-21.5-58.7 0-31.9 14.1-54 33.7-69.9 12.7-10.4 35.1-18.2 53.2-18.2 50 .2 90.2 36.8 90.2 86.1zm-131.7-62.6c-11.4 11.1-20.3 30.7-20.3 61 0 38.7 28.6 83.1 70.1 83.1 21.5 0 31.4-9.3 34.3-12.5 10.4-9.3 22.1-30.4 22.1-61.3 0-28.3-12.2-55.6-31.4-71.2-10.6-8.6-27-14.1-39-14.1-10.8.2-26.6 6-35.8 15zm228.1-16.6c2.1 7 6.5 18.7 11.4 32.2 13.5 37.9 33 89.4 37.4 100 8.6 21.3 12.7 23.4 24.4 26.2 4.2 1.3 6.2 2.6 6.2 4.4 0 1.8-1.8 3.4-8.3 3.4-8.6 0-21.3-1.3-32.8-1.3-8.3 0-12 .5-18.5.5s-8.1-1.8-8.1-3.1 1.6-3.4 6.2-4.2c12.5-2.6 11.4-7.8 10.4-13.2-2.1-10.6-8.6-27.8-14.5-44.4-.2-1-1.3-2.6-8.8-2.6-14.3 0-37.2.2-42.6 1-1 0-2.3 1.3-2.8 2.1-6.7 16.9-13.5 39-13.5 45.5 0 3.1 1 7.5 12.7 11.1 4.4 1.3 7 2.8 7 4.7 0 2.6-3.9 3.4-7.3 3.4-4.4 0-10.9-.8-20.5-.8s-23.1 1.3-27 1.3c-4.7 0-6-1-6-2.6s1.8-3.9 5.7-5.2c13-4.4 16.4-5.2 23.9-22.1 6-13.2 35.6-91.7 46.5-118.2 1.6-3.7 1.8-5.2 2.3-6.7.2-.8.8-2.3 1.8-4.4 1.6-2.6 4.4-7.5 6.2-10.4 1.8-2.1 2.8-3.4 4.2-3.4 1.3.1 2.3 1.1 4.4 6.8zm8.3 84.1c-4.4-13.2-17.9-52.2-20.3-55.9-.8-1.6-1.3-1.8-2.1 0-4.7 12.5-18.2 48.8-20.3 56.9-.2 1 .2 1.8 1.3 1.8 10.4-.2 31.9 0 40.5-.8.4.1 1.2-1.1.9-2zm56.6-87.5c5.2 0 14.5 1.3 27.3 1.3 9.1 0 19.7-.5 25.7-.5 3.4 0 6.2 1.3 6.2 3.1s-1.3 3.9-6.2 4.7c-13.8 2.6-13.2 8.3-12.2 12.5 4.4 13.5 32.5 86.2 41.8 108.6.5.5 1.8 2.1 2.6.2 2.1-5.5 30.4-72.2 42.1-100.2 6.2-14.5-.8-17.7-12-21-3.7-1-5.7-3.1-5.7-4.7 0-1.8 3.4-3.1 7.5-3.1 6 0 12 .5 20.8.5 7.5 0 17.9-1 23.4-1 3.7 0 7.5 1 7.5 3.4 0 2.1-3.1 3.7-6.7 4.4-11.4 2.8-17.1 9.1-22.6 20.5-12 26-18.5 37.2-34.3 76.4-15 36.6-18.5 43.1-24.4 62.8-1 2.8-2.8 5.7-5.5 5.7-1.6 0-3.7-1.8-4.2-4.7-1.6-7.5-6-23.4-13.5-42.3-8.8-23.6-33.5-86.5-37.4-95.8-5.2-13-10.6-19.5-22.1-22.9-3.1-1-6-2.1-6-4.4.1-2.2 4-3.5 7.9-3.5z"/><path d="M0 331.7h800M0 500.6h800" class="st0"/><path d="M13.3 533.9c.2 1.7.6 6.6.6 11.1v12.7H9.8v-27.9h6.1l8.9 23.7c-.2-1.7-.6-6-.6-11v-12.7h4.2v27.9h-6.1l-9-23.8zm39.7 13c0 6.8-3.5 11.3-9.6 11.3-6.2 0-9.6-4.3-9.6-11.2 0-6.7 3.5-11.3 9.7-11.3s9.5 4.4 9.5 11.2zm-14.6 0c0 5.3 1.6 7.7 4.9 7.7s4.9-2.4 4.9-7.8c0-5.3-1.6-7.7-4.9-7.7-3.2.1-4.9 2.5-4.9 7.8zm39-10.6l-.8 7.9h-3.3v-4.4c-3 .1-5.2 2.5-6.4 6.7v8h4.3v3.3h-12v-3.3h3.1v-14.9h-3.1v-3.3h6.6l.8 4.9c1.6-3.5 3.8-5.5 7.5-5.5 1.3 0 2.3.2 3.3.6zm24.9 5.5v15.9h-4v-15.3c0-2.2-.2-3.1-1.4-3.1-1 0-2.1.6-3.1 2.1v16.3h-3.7v-15.3c0-2.2-.2-3.1-1.4-3.1-1.1 0-2.1.6-3.1 2.1v16.3h-4.1v-21.4h3.4l.3 2.3c1.2-1.7 2.5-2.8 4.6-2.8 1.6 0 3 .7 3.7 2.7 1.2-1.6 2.6-2.7 4.7-2.7 2.2-.1 4.1 1.2 4.1 6zm23.2 13.3l-1 3.1c-2.1-.2-3.7-1.1-4.4-3-1.6 2-4.1 3-6.8 3-4.4 0-7-2.7-7-6.6 0-4.5 3.7-7 10.2-7h3v-1.4c0-2.8-1.7-3.9-4.7-3.9-1.4 0-3.5.3-5.6 1.1l-1.2-3.2c2.7-1 5.3-1.5 7.5-1.5 5.7 0 8.5 2.7 8.5 7.1v9.5c-.1 1.7.4 2.4 1.5 2.8zm-6.1-3v-4.7h-2.5c-4.2 0-5.9 1.5-5.9 4 0 2.3 1.2 3.5 3.6 3.5 1.8-.1 3.7-1.1 4.8-2.8zm21.8-.3c0 2 1.3 2.7 3.3 2.7 1.2 0 2.3-.3 3.4-.8l1.1 3.1c-1.3.7-3.1 1.2-5.5 1.2-4.3 0-6.8-2.6-6.8-6.7V531h-6.4v-3.3h11l-.1 24.1zm24.2 0c0 2 1.3 2.7 3.3 2.7 1.2 0 2.3-.3 3.4-.8l1.1 3.1c-1.3.7-3.1 1.2-5.5 1.2-4.3 0-6.8-2.6-6.8-6.7V531h-6.4v-3.3h11l-.1 24.1zm26.2 5.9c-1.6 4.9-4.5 8.1-10.5 8.7l-.6-3.4c4.4-.7 5.7-2.3 6.9-5.3h-1.5l-7.2-21.4h4.8l5.4 18.2 5.5-18.2h4.6l-7.4 21.4zm49.6-5.9c0-1.7-.7-2.6-5.1-3.7-4.2-1.1-7-2.6-7-6.3 0-3.7 3.3-6.2 8.5-6.2 3.6 0 6.2 1 8.1 2.4l-1.9 2.8c-1.7-1.1-3.5-1.9-6-1.9-2.9 0-4.1.9-4.1 2.3 0 1.6 1.2 2.2 5.4 3.4 4.2 1.1 6.9 2.6 6.9 6.6 0 4.6-4.5 6.6-9.4 6.6-3.9 0-6.8-1.3-8.8-3l2.4-2.7c1.7 1.3 3.9 2.3 6.4 2.3 2.9.3 4.6-.8 4.6-2.6zm21.5 2.8c2.1 0 3.8-.6 5.6-1.9l1.9 2.7c-2 1.6-4.8 2.6-7.8 2.6-6.7 0-10.3-4.5-10.3-11.2 0-6.4 3.7-11.3 9.8-11.3 5.7 0 9.2 4.1 9.2 10.7 0 .8-.1 1.5-.1 2h-14.2c.4 4.6 2.8 6.4 5.9 6.4zm-5.9-9.3h9.9c-.1-4.1-1.7-6.3-4.8-6.3-2.7 0-4.8 2-5.1 6.3zm32.2 12.9c-5 0-7.6-2.8-7.6-7v-11.6h-4.7v-3.3h4.7v-4.8l4.5-.5v5.3h7.3l-.5 3.3H286V551c0 2.3 1.1 3.4 3.7 3.4 1.5 0 2.8-.4 3.9-1l1.6 3c-1.6 1.1-3.8 1.8-6.2 1.8zm47.9-.6l-2.4-15.2-2.6 15.2h-5.5l-3.6-21.4h4.4l2.2 18.5 3-15.8h4.5l2.7 15.8 2.2-18.5h4.2l-3.5 21.4h-5.6zm24.9-3.3h5.8v3.3h-16.7v-3.3h6.3v-14.7H351v-3.3h10.7l.1 18zm-.2-25.6c0 1.6-1.2 2.8-3 2.8s-3-1.2-3-2.8 1.2-2.8 3-2.8c1.8-.1 3 1.1 3 2.8zm24.4 29.5c-5 0-7.6-2.8-7.6-7v-11.6h-4.8v-3.3h4.7v-4.8l4.5-.5v5.3h7.3l-.5 3.3H383V551c0 2.3 1.1 3.4 3.7 3.4 1.5 0 2.8-.4 3.9-1l1.6 3c-1.5 1.1-3.8 1.8-6.2 1.8zm17.2-19.3c1.7-2.1 4.1-3.2 6.6-3.2 4 0 5.9 2.3 5.9 6.3v15.6h-4.5v-14.9c0-2.6-.9-3.5-3.1-3.5-2 0-3.8 1.5-5 3.1v15.3h-4.5v-29.9l4.5-.5.1 11.7zm62.2 8c0 6.8-3.5 11.3-9.6 11.3-6.2 0-9.6-4.3-9.6-11.2 0-6.7 3.5-11.3 9.7-11.3 6.1 0 9.5 4.4 9.5 11.2zm-14.6 0c0 5.3 1.6 7.7 4.9 7.7 3.3 0 4.9-2.4 4.9-7.8 0-5.3-1.6-7.7-4.9-7.7-3.2.1-4.9 2.5-4.9 7.8zm31.8 10.7h-5.3l-7.5-21.4h4.9l5.4 17.6 5.5-17.6h4.6l-7.6 21.4zm22.7-3c2.1 0 3.8-.6 5.6-1.9l1.9 2.7c-2 1.6-4.8 2.6-7.8 2.6-6.7 0-10.3-4.5-10.3-11.2 0-6.4 3.7-11.3 9.8-11.3 5.7 0 9.2 4.1 9.2 10.7 0 .8-.1 1.5-.1 2h-14.2c.4 4.6 2.8 6.4 5.9 6.4zm-5.9-9.3h9.9c-.1-4.1-1.7-6.3-4.8-6.3-2.7 0-4.8 2-5.1 6.3zm38.9-9l-.8 7.9h-3.3v-4.4c-3 .1-5.2 2.5-6.4 6.7v8h4.3v3.3h-12v-3.3h3.1v-14.9h-3.1v-3.3h6.6l.8 4.9c1.6-3.5 3.8-5.5 7.5-5.5 1.4 0 2.4.2 3.3.6zm18.3 15.5c0-1.7-.7-2.6-5.1-3.7-4.2-1.1-7-2.6-7-6.3 0-3.7 3.3-6.2 8.5-6.2 3.6 0 6.2 1 8.1 2.4l-1.9 2.8c-1.7-1.1-3.5-1.9-6-1.9-2.9 0-4.1.9-4.1 2.3 0 1.6 1.2 2.2 5.4 3.4 4.2 1.1 6.9 2.6 6.9 6.6 0 4.6-4.5 6.6-9.4 6.6-3.9 0-6.8-1.3-8.8-3l2.4-2.7c1.7 1.3 3.9 2.3 6.4 2.3 2.8.3 4.6-.8 4.6-2.6zm16.4-12.9c1.7-2.1 4.1-3.2 6.6-3.2 4 0 5.9 2.3 5.9 6.3v15.6H581v-14.9c0-2.6-.9-3.5-3.1-3.5-2 0-3.8 1.5-5 3.1v15.3h-4.5v-29.9l4.5-.5.1 11.7zm38 8c0 6.8-3.5 11.3-9.6 11.3-6.2 0-9.6-4.3-9.6-11.2 0-6.7 3.5-11.3 9.7-11.3 6.1 0 9.5 4.4 9.5 11.2zm-14.6 0c0 5.3 1.6 7.7 4.9 7.7s4.9-2.4 4.9-7.8c0-5.3-1.6-7.7-4.9-7.7-3.2.1-4.9 2.5-4.9 7.8zm38.8 0c0 6.8-3.5 11.3-9.6 11.3-6.2 0-9.6-4.3-9.6-11.2 0-6.7 3.5-11.3 9.7-11.3 6.1 0 9.5 4.4 9.5 11.2zm-14.5 0c0 5.3 1.6 7.7 4.9 7.7s4.9-2.4 4.9-7.8c0-5.3-1.6-7.7-4.9-7.7s-4.9 2.5-4.9 7.8zm32.2 11.3c-5 0-7.6-2.8-7.6-7v-11.6h-4.7v-3.3h4.7v-4.8l4.5-.5v5.3h7.3l-.5 3.3h-6.7V551c0 2.3 1.1 3.4 3.7 3.4 1.5 0 2.8-.4 3.9-1l1.6 3c-1.5 1.1-3.8 1.8-6.2 1.8zm25-6.4c0-1.7-.7-2.6-5.1-3.7-4.2-1.1-7-2.6-7-6.3 0-3.7 3.3-6.2 8.5-6.2 3.6 0 6.2 1 8.1 2.4l-1.9 2.8c-1.7-1.1-3.5-1.9-6-1.9-2.9 0-4.1.9-4.1 2.3 0 1.6 1.2 2.2 5.4 3.4 4.2 1.1 6.9 2.6 6.9 6.6 0 4.6-4.5 6.6-9.4 6.6-3.9 0-6.8-1.3-8.8-3l2.4-2.7c1.7 1.3 3.9 2.3 6.4 2.3 2.8.3 4.6-.8 4.6-2.6z" class="st1"/><path d="M31.4 657.2c16.9 0 19.7.5 34.8.5.5 0 2.6 2.1 2.8 3.4 3.1 9.6 4.7 12.5 9.9 23.6 14.5 30.7 44.7 93 48.3 97.9.5.8 2.1 1.6 2.6.8 2.3-4.4 50.9-96.1 55-107 .2-1 4.4-9.9 6-15 .2-1.3 2.3-3.7 2.8-3.7 9.3 0 30.4-.8 32.8-.8 3.4 0 6.7.5 6.7 2.8 0 1.8-2.1 3.4-6.7 4.2-4.2.8-7.8 1.8-11.7 3.4-3.9 1.6-8.1 6.5-8.1 20 0 72.2 2.8 105.2 3.7 112.5 1.6 11.7 4.4 14.3 16.9 17.9 4.7 1 7 3.1 7 4.9 0 2.1-3.7 3.4-7.5 3.4-2.8 0-22.9-1.3-32.5-1.3-4.9 0-13.5.8-19.7.8-2.8 0-7-1-7-3.7 0-2.3 3.1-3.7 6.7-4.7 10.6-3.1 11.1-9.1 12-18.7 1-11.7.5-87-.2-100.2 0-1.8-1-3.4-2.6-.8-2.8 4.9-31.9 62.1-42.1 83.4-6.2 13.5-12.2 27-16.1 37.2-2.8 7.5-4.2 7.3-6 7.3-1.6 0-3.1-2.1-3.9-4.9-1.8-6.5-4.7-15-9.6-27.5-14.1-34.3-35.3-75.3-44.9-97.4-.8-1.8-1.6-2.1-1.8.8-2.1 10.9-4.9 76.4-4.2 100.2.5 13.2 2.6 16.9 15.9 21 5.7 1.6 7 2.6 7 4.9 0 2.1-2.8 3.1-7 3.1-8.3 0-19.2-.8-26-.8-6.2 0-14.3.8-20.8.8-3.9 0-6.7-.8-6.7-3.7 0-1 1.8-2.8 5.2-3.7 16-4.7 17.6-9.1 19.6-23.8 2.6-17.9 8.3-92.7 8.8-112.2 0-2.1-.5-12-11.7-15-4.4-1.3-7.8-2.3-11.1-3.1-1.8-.5-4.2-2.3-4.2-4.2 0-2.6 1.9-2.6 7.6-2.6zm392.3 81.5c0 34.7-17.1 58.9-35.1 71.8-15.6 10.9-36.1 14.3-48.8 14.3-25.3 0-49.2-10.9-64.4-28.2-13.1-14.6-20.6-34.7-20.6-56 0-30.4 13.4-51.5 32.2-66.6 12.1-9.9 33.4-17.3 50.8-17.3 47.6.1 85.9 35 85.9 82zm-125.5-59.6c-10.9 10.6-19.3 29.2-19.3 58.2 0 36.9 27.2 79.2 66.8 79.2 20.6 0 30-8.9 32.7-11.9 9.9-8.9 21-29 21-58.4 0-27-11.6-53-30-67.8-10.2-8.2-25.7-13.4-37.2-13.4-10.2-.1-25.3 5.4-34 14.1zm221.5-15.7c2 6.9 6.3 18.3 11.2 31.5 13.2 37.1 32.3 87.4 36.6 97.8 8.4 20.8 12.4 22.9 23.9 25.7 4.1 1.3 6.1 2.6 6.1 4.3 0 1.8-1.8 3.3-8.1 3.3-8.4 0-20.8-1.3-32-1.3-8.1 0-11.7.5-18.1.5-6.3 0-7.9-1.8-7.9-3 0-1.3 1.5-3.3 6.1-4.1 12.2-2.6 11.2-7.6 10.2-12.9-2-10.4-8.4-27.2-14.2-43.4-.2-1-1.3-2.6-8.7-2.6-14 0-36.4.2-41.7 1-1 0-2.3 1.3-2.8 2-6.6 16.5-13.2 38.1-13.2 44.5 0 3 1 7.4 12.4 10.9 4.3 1.3 6.9 2.8 6.9 4.6 0 2.6-3.8 3.3-7.1 3.3-4.3 0-10.7-.8-20.1-.8-9.4 0-22.6 1.3-26.4 1.3-4.6 0-5.9-1-5.9-2.6 0-1.5 1.8-3.8 5.6-5.1 12.7-4.3 16-5.1 23.4-21.6 5.9-12.9 34.8-89.7 45.5-115.6 1.5-3.5 1.8-5.1 2.3-6.6.2-.8.8-2.3 1.8-4.3 1.5-2.6 4.3-7.4 6.1-10.2 1.8-2 2.8-3.3 4.1-3.3 1 .1 2 1.1 4 6.7zm8.1 82.3c-4.3-12.9-17.5-51-19.8-54.6-.8-1.5-1.3-1.8-2 0-4.6 12.2-17.8 47.8-19.8 55.6-.2 1 .2 1.8 1.3 1.8 10.2-.2 31.2 0 39.7-.8.1 0 .9-1.3.6-2zm61.9-87.3c5 0 14.1 1.3 26.4 1.3 8.8 0 19.1-.5 24.9-.5 3.3 0 6 1.3 6 3s-1.3 3.8-6 4.5c-13.3 2.5-12.8 8-11.8 12.1 4.3 13.1 31.4 83.4 40.4 105 .5.5 1.7 2 2.5.2 2-5.3 29.4-69.8 40.7-96.9 6-14.1-.8-17.1-11.6-20.3-3.5-1-5.5-3-5.5-4.5 0-1.7 3.3-3 7.3-3 5.7 0 11.6.5 20.1.5 7.3 0 17.3-1 22.6-1 3.5 0 7.3 1 7.3 3.3 0 2-3 3.5-6.5 4.3-11 2.8-16.5 8.8-21.8 19.9-11.7 24.9-18 35.7-33.3 73.7-14.6 35.4-17.8 41.7-23.6 60.8-1 2.8-2.8 5.5-5.3 5.5-1.5 0-3.5-1.7-4-4.5-1.5-7.3-5.7-22.6-13.1-40.9-8.5-22.9-32.4-83.6-36.2-92.7-5-12.5-10.3-18.8-21.4-22.1-3-1-5.7-2-5.7-4.3.1-2.1 3.9-3.4 7.6-3.4z"/><path d="M0 657.2h800M0 826h800" class="st0"/><path d="M20.4 880.3c-7 0-10.6-5.7-10.6-14.5 0-8.6 3.6-14.6 10.6-14.6S31 857 31 865.8c0 8.6-3.7 14.5-10.6 14.5zm0-25.3c-4.1 0-5.8 3.7-5.8 10.9s1.8 10.8 5.8 10.8c4.1 0 5.8-3.7 5.8-10.9-.1-7.1-1.7-10.8-5.8-10.8zm26.9 24.8H42l-7.5-21.4h4.9l5.4 17.6 5.5-17.6h4.6l-7.6 21.4zm22.6-3c2.1 0 3.8-.6 5.6-1.9l1.9 2.7c-2 1.6-4.8 2.6-7.8 2.6-6.7 0-10.3-4.5-10.3-11.2 0-6.4 3.7-11.3 9.8-11.3 5.7 0 9.2 4.1 9.2 10.7 0 .8-.1 1.5-.1 2H64c.4 4.5 2.8 6.4 5.9 6.4zm-5.9-9.3h10c-.1-4.1-1.7-6.3-4.8-6.3-2.8 0-4.9 2-5.2 6.3zm39-9.1l-.8 7.9h-3.3V862c-3 .1-5.2 2.5-6.4 6.7v8h4.3v3.3h-12v-3.3H88v-14.9h-3.1v-3.3h6.6l.8 4.9c1.6-3.5 3.8-5.5 7.5-5.5 1.2 0 2.2.2 3.2.5zm18.2 15.6c0-1.7-.7-2.6-5.1-3.7-4.2-1.1-7-2.6-7-6.3 0-3.7 3.3-6.2 8.5-6.2 3.6 0 6.2 1 8.1 2.4l-1.9 2.8c-1.7-1.1-3.5-1.9-6-1.9-2.9 0-4.1.9-4.1 2.3 0 1.6 1.2 2.2 5.4 3.4 4.2 1.1 6.9 2.6 6.9 6.6 0 4.6-4.5 6.6-9.4 6.6-3.9 0-6.8-1.3-8.8-3l2.4-2.7c1.7 1.3 3.9 2.3 6.4 2.3 2.8.3 4.6-.8 4.6-2.6zm16.5-12.9c1.7-2.1 4.1-3.2 6.6-3.2 4 0 5.9 2.3 5.9 6.3v15.6h-4.5v-14.9c0-2.6-.9-3.5-3.1-3.5-2 0-3.8 1.5-5 3.1v15.3h-4.5v-29.9l4.5-.5.1 11.7zm37.9 7.9c0 6.8-3.5 11.3-9.6 11.3-6.2 0-9.6-4.3-9.6-11.2 0-6.7 3.5-11.3 9.7-11.3s9.5 4.5 9.5 11.2zm-14.6.1c0 5.3 1.6 7.7 4.9 7.7s4.9-2.4 4.9-7.8c0-5.3-1.6-7.7-4.9-7.7-3.2.1-4.9 2.5-4.9 7.8zm38.9-.1c0 6.8-3.5 11.3-9.6 11.3-6.2 0-9.6-4.3-9.6-11.2 0-6.7 3.5-11.3 9.7-11.3 6.1 0 9.5 4.5 9.5 11.2zm-14.6.1c0 5.3 1.6 7.7 4.9 7.7s4.9-2.4 4.9-7.8c0-5.3-1.6-7.7-4.9-7.7-3.2.1-4.9 2.5-4.9 7.8zm32.2 11.2c-5 0-7.6-2.8-7.6-7v-11.6h-4.7v-3.3h4.7v-4.8l4.5-.5v5.3h7.3l-.5 3.3h-6.7v11.5c0 2.3 1.1 3.4 3.7 3.4 1.5 0 2.8-.4 3.9-1l1.6 3c-1.5 1.1-3.8 1.7-6.2 1.7zm25-6.3c0-1.7-.7-2.6-5.1-3.7-4.2-1.1-7-2.6-7-6.3 0-3.7 3.3-6.2 8.5-6.2 3.6 0 6.2 1 8.1 2.4l-1.9 2.8c-1.7-1.1-3.5-1.9-6-1.9-2.9 0-4.1.9-4.1 2.3 0 1.6 1.2 2.2 5.4 3.4 4.2 1.1 6.9 2.6 6.9 6.6 0 4.6-4.5 6.6-9.4 6.6-3.9 0-6.8-1.3-8.8-3l2.4-2.7c1.7 1.3 3.9 2.3 6.4 2.3 2.9.3 4.6-.8 4.6-2.6zm55.2-10.1v15.9h-4v-15.3c0-2.2-.2-3.1-1.4-3.1-1 0-2.1.6-3.1 2.1v16.3h-3.7v-15.3c0-2.2-.2-3.1-1.4-3.1-1.1 0-2.1.6-3.1 2.1v16.3h-4.1v-21.4h3.4l.3 2.3c1.2-1.7 2.5-2.8 4.6-2.8 1.6 0 3 .7 3.7 2.7 1.2-1.6 2.6-2.7 4.7-2.7 2.3 0 4.1 1.3 4.1 6zm23.2 13.3l-1 3.1c-2.1-.2-3.7-1.1-4.4-3-1.6 2-4.1 3-6.8 3-4.4 0-7-2.7-7-6.6 0-4.5 3.7-7 10.2-7h3v-1.4c0-2.8-1.7-3.9-4.7-3.9-1.4 0-3.5.3-5.6 1.1l-1.2-3.2c2.7-1 5.3-1.5 7.5-1.5 5.7 0 8.5 2.7 8.5 7.1v9.5c-.1 1.8.4 2.5 1.5 2.8zm-6.1-2.9v-4.7h-2.5c-4.2 0-5.9 1.5-5.9 4 0 2.3 1.2 3.5 3.6 3.5a6.1 6.1 0 0 0 4.8-2.8zm12.4-15.9h3.9l.3 2.8c1.8-2.2 4.4-3.4 6.9-3.4 3.9 0 5.9 2.3 5.9 6.3v15.6h-4.5v-13.3c0-3.7-.5-5.1-3-5.1-2.1 0-3.9 1.5-5 3.1v15.3h-4.6l.1-21.3zm28.8 14.9c0 2.5 1 3.5 3 3.5s3.9-1.3 5-3v-15.4h4.5v21.4h-3.9l-.3-2.7c-1.6 2.1-4.2 3.3-6.7 3.3-4.2 0-6.2-2.4-6.2-6.4v-15.5h4.5l.1 14.8zm37.7 3.9l-1 3.1c-2.1-.2-3.7-1.1-4.4-3-1.6 2-4.1 3-6.8 3-4.4 0-7-2.7-7-6.6 0-4.5 3.7-7 10.2-7h3v-1.4c0-2.8-1.7-3.9-4.7-3.9-1.4 0-3.5.3-5.6 1.1l-1.2-3.2c2.7-1 5.3-1.5 7.5-1.5 5.7 0 8.5 2.7 8.5 7.1v9.5c-.1 1.8.4 2.5 1.5 2.8zm-6.1-2.9v-4.7h-2.5c-4.2 0-5.9 1.5-5.9 4 0 2.3 1.2 3.5 3.6 3.5 1.8-.1 3.8-1.1 4.8-2.8zm21.8-.3c0 2 1.3 2.7 3.3 2.7 1.2 0 2.3-.3 3.4-.8l1.1 3.1c-1.3.7-3.1 1.2-5.5 1.2-4.3 0-6.8-2.6-6.8-6.7v-20.4h-6.4v-3.3h11l-.1 24.2zm24.3 0c0 2 1.3 2.7 3.3 2.7 1.2 0 2.3-.3 3.4-.8l1.1 3.1c-1.3.7-3.1 1.2-5.5 1.2-4.3 0-6.8-2.6-6.8-6.7v-20.4h-6.4v-3.3h11l-.1 24.2zm26.1 5.8c-1.6 4.9-4.5 8.1-10.5 8.7l-.6-3.4c4.4-.7 5.7-2.3 6.9-5.3h-1.5l-7.2-21.4h4.8l5.4 18.2 5.5-18.2h4.6l-7.4 21.4zm55.6-21.4l-.8 7.9h-3.3V862c-3 .1-5.2 2.5-6.4 6.7v8h4.3v3.3h-12v-3.3h3.1v-14.9h-3.1v-3.3h6.6l.8 4.9c1.6-3.5 3.8-5.5 7.5-5.5 1.4 0 2.3.2 3.3.5zm15.5 18.4c2.1 0 3.8-.6 5.6-1.9l1.9 2.7c-2 1.6-4.8 2.6-7.8 2.6-6.7 0-10.3-4.5-10.3-11.2 0-6.4 3.7-11.3 9.8-11.3 5.7 0 9.2 4.1 9.2 10.7 0 .8-.1 1.5-.1 2H525c.3 4.5 2.8 6.4 5.9 6.4zm-5.9-9.3h9.9c-.1-4.1-1.7-6.3-4.8-6.3-2.7 0-4.8 2-5.1 6.3zm39.5-3.6v15.9h-4v-15.3c0-2.2-.2-3.1-1.4-3.1-1 0-2.1.6-3.1 2.1v16.3h-3.7v-15.3c0-2.2-.2-3.1-1.4-3.1-1.1 0-2.1.6-3.1 2.1v16.3h-4.1v-21.4h3.4l.3 2.3c1.2-1.7 2.5-2.8 4.6-2.8 1.6 0 3 .7 3.7 2.7 1.2-1.6 2.6-2.7 4.7-2.7 2.3 0 4.1 1.3 4.1 6zm23.6 5.1c0 6.8-3.5 11.3-9.6 11.3-6.2 0-9.6-4.3-9.6-11.2 0-6.7 3.5-11.3 9.7-11.3 6 .1 9.5 4.5 9.5 11.2zm-14.6.1c0 5.3 1.6 7.7 4.9 7.7 3.3 0 4.9-2.4 4.9-7.8 0-5.3-1.6-7.7-4.9-7.7-3.2.1-4.9 2.5-4.9 7.8zm31.7 10.7H600l-7.5-21.4h4.9l5.4 17.6 5.5-17.6h4.6l-7.7 21.4zm22.7-3c2.1 0 3.8-.6 5.6-1.9l1.9 2.7c-2 1.6-4.8 2.6-7.8 2.6-6.7 0-10.3-4.5-10.3-11.2 0-6.4 3.7-11.3 9.8-11.3 5.7 0 9.2 4.1 9.2 10.7 0 .8-.1 1.5-.1 2H622c.4 4.5 2.9 6.4 5.9 6.4zm-5.8-9.3h9.9c-.1-4.1-1.7-6.3-4.8-6.3-2.8 0-4.8 2-5.1 6.3zm37.6-17.6v29.9h-4l-.3-2.6c-1.4 2-3.5 3.1-6 3.1-5.5 0-8.1-4.5-8.1-11.2 0-6.5 3.2-11.3 8.5-11.3 2.2 0 4 .8 5.4 2.3v-10.9l4.5.7zm-13.6 19.2c0 5.5 1.6 7.8 4.5 7.8 2 0 3.5-1.4 4.6-3.1v-10c-1-1.5-2.4-2.4-4.2-2.4-3.1-.1-4.9 2.4-4.9 7.7zm33.1 7c0 1.3-.3 2.3-1.2 4.1l-3.1 7.1h-3.5l1.9-8.2c-.9-.6-1.5-1.8-1.5-3 0-2 1.6-3.7 3.7-3.7 2 .1 3.7 1.8 3.7 3.7zm-655 66.4c0 2 1.3 2.7 3.3 2.7 1.2 0 2.3-.3 3.4-.8l1.1 3.1c-1.3.7-3.1 1.2-5.5 1.2-4.3 0-6.8-2.6-6.8-6.7v-20.4h-6.4v-3.3h11v24.2zm33.1-4.9c0 6.8-3.5 11.3-9.6 11.3-6.2 0-9.6-4.3-9.6-11.2 0-6.7 3.5-11.3 9.7-11.3s9.5 4.4 9.5 11.2zm-14.6.1c0 5.3 1.6 7.7 4.9 7.7s4.9-2.4 4.9-7.8c0-5.3-1.6-7.7-4.9-7.7s-4.9 2.4-4.9 7.8zm38.8-.1c0 6.8-3.5 11.3-9.6 11.3-6.2 0-9.6-4.3-9.6-11.2 0-6.7 3.5-11.3 9.7-11.3 6.2 0 9.5 4.4 9.5 11.2zm-14.5.1c0 5.3 1.6 7.7 4.9 7.7 3.3 0 4.9-2.4 4.9-7.8 0-5.3-1.6-7.7-4.9-7.7-3.3.1-4.9 2.4-4.9 7.8zm25.3 10.7h-4.5v-29.9l4.5-.5v30.4zm5.5-11.9l9.5 11.8h-5.5l-9.2-11.7 8.6-9.6h5.3l-8.7 9.5zm26.4 6.1c0-1.7-.7-2.6-5.1-3.7-4.2-1.1-7-2.6-7-6.3 0-3.7 3.3-6.2 8.5-6.2 3.6 0 6.2 1 8.1 2.4l-1.9 2.8c-1.7-1.1-3.5-1.9-6-1.9-2.9 0-4.1.9-4.1 2.3 0 1.6 1.2 2.2 5.4 3.4 4.2 1.1 6.9 2.6 6.9 6.6 0 4.6-4.5 6.6-9.4 6.6-3.9 0-6.8-1.3-8.8-3l2.4-2.7c1.7 1.3 3.9 2.3 6.4 2.3 2.9.2 4.6-.8 4.6-2.6zm47.2 5.8l-2.4-15.2-2.6 15.2h-5.5l-3.6-21.4h4.4l2.2 18.5 3-15.8h4.5l2.7 15.8 2.2-18.5h4.2l-3.5 21.4h-5.6zM203 927l-.8 7.9H199v-4.4c-3 .1-5.2 2.5-6.4 6.7v8h4.3v3.3h-12v-3.3h3.1v-14.9h-3.1V927h6.6l.8 4.9c1.6-3.5 3.8-5.5 7.5-5.5 1.2.1 2.2.3 3.2.6zm24.1 10.6c0 6.8-3.5 11.3-9.6 11.3-6.2 0-9.6-4.3-9.6-11.2 0-6.7 3.5-11.3 9.7-11.3 6.1 0 9.5 4.4 9.5 11.2zm-14.6.1c0 5.3 1.6 7.7 4.9 7.7s4.9-2.4 4.9-7.8c0-5.3-1.6-7.7-4.9-7.7-3.2.1-4.9 2.4-4.9 7.8zm20.6-10.7h3.9l.3 2.8c1.8-2.2 4.4-3.4 6.9-3.4 3.9 0 5.9 2.3 5.9 6.3v15.6h-4.5V935c0-3.7-.5-5.1-3-5.1-2.1 0-3.9 1.5-5 3.1v15.3H233V927zm43.5 1c-1.7.6-3.7.7-6.2.7 2.6 1.2 3.9 2.8 3.9 5.5 0 4.2-3.2 7.2-8.5 7.2-1.2 0-2.1-.1-2.9-.3-.6.4-.9 1.1-.9 1.8 0 .9.5 1.6 2.6 1.6h3.7c4.6 0 7.8 2.5 7.8 5.9 0 4.2-3.8 6.7-10.7 6.7-7.4 0-9.5-2.3-9.5-6.6h4.1c0 2.3 1 3.3 5.5 3.3s6-1.2 6-3.1c0-1.7-1.6-2.7-4.1-2.7h-3.7c-4.1 0-5.8-1.9-5.8-4.1 0-1.4.8-2.8 2.3-3.8-2.6-1.3-3.7-3.2-3.7-6 0-4.5 3.7-7.5 8.9-7.5 5.1.1 7.3-.9 9.9-2.1l1.3 3.5zm-15.4 6c0 2.7 1.5 4.5 4.4 4.5 2.7 0 4.1-1.6 4.1-4.5 0-2.8-1.4-4.4-4.2-4.4-2.8 0-4.3 1.8-4.3 4.4z" class="st1"/><ellipse cx="343.9" cy="180.9" class="st2" rx="44.4" ry="19.8"/><ellipse cx="666.6" cy="180.9" class="st2" rx="44.4" ry="19.8"/><ellipse cx="336.1" cy="13.9" class="st2" rx="44.4" ry="19.8"/><ellipse cx="518" cy="13.9" class="st2" rx="44.4" ry="19.8"/><path d="M31.4 10.3c16.9 0 19.7.5 34.8.5.5 0 2.6 2.1 2.8 3.4 3.1 9.6 4.7 12.5 9.9 23.6 14.5 30.7 44.7 93 48.3 97.9.5.8 2.1 1.6 2.6.8 2.3-4.4 50.9-96.1 55-107 .2-1 4.4-9.9 6-15 .2-1.3 2.3-3.7 2.8-3.7 9.3 0 30.4-.8 32.8-.8 3.4 0 6.7.5 6.7 2.8 0 1.8-2.1 3.4-6.7 4.2-4.2.8-7.8 1.8-11.7 3.4-3.9 1.6-8.1 6.5-8.1 20 0 72.2 2.8 105.2 3.7 112.5 1.6 11.7 4.4 14.3 16.9 17.9 4.7 1 7 3.1 7 4.9 0 2.1-3.7 3.4-7.5 3.4-2.8 0-22.9-1.3-32.5-1.3-4.9 0-13.5.8-19.7.8-2.8 0-7-1-7-3.7 0-2.3 3.1-3.7 6.7-4.7 10.6-3.1 11.1-9.1 12-18.7 1-11.7.5-87-.2-100.2 0-1.8-1-3.4-2.6-.8-2.8 4.9-31.9 62.1-42.1 83.4-6.2 13.5-12.2 27-16.1 37.2-2.8 7.5-4.2 7.3-6 7.3-1.6 0-3.1-2.1-3.9-4.9-1.8-6.5-4.7-15-9.6-27.5-14.1-34.3-35.3-75.3-44.9-97.4-.8-1.8-1.6-2.1-1.8.8-2.1 10.9-4.9 76.4-4.2 100.2.5 13.2 2.6 16.9 15.9 21 5.7 1.6 7 2.6 7 4.9 0 2.1-2.8 3.1-7 3.1-8.3 0-19.2-.8-26-.8-6.2 0-14.3.8-20.8.8-3.9 0-6.7-.8-6.7-3.7 0-1 1.8-2.8 5.2-3.7 16.1-4.7 17.7-9.1 19.7-23.9 2.6-17.9 8.3-92.7 8.8-112.2 0-2.1-.5-12-11.7-15-4.4-1.3-7.8-2.3-11.1-3.1-1.8-.5-4.2-2.3-4.2-4.2-.1-2.5 1.8-2.5 7.5-2.5zm396 81.8c0 36.4-17.9 61.8-36.9 75.3-16.4 11.4-37.9 15-51.2 15-26.5 0-51.7-11.4-67.5-29.6-13.8-15.3-21.5-36.4-21.5-58.7 0-31.9 14.1-54 33.7-69.9C296.7 13.8 319.1 6 337.2 6c50 .2 90.2 36.8 90.2 86.1zM295.7 29.5c-11.4 11.1-20.3 30.7-20.3 61 0 38.7 28.6 83.1 70.1 83.1 21.5 0 31.4-9.3 34.3-12.5 10.4-9.3 22.1-30.4 22.1-61.3 0-28.3-12.2-55.6-31.4-71.2-10.6-8.6-27-14.1-39-14.1-10.8.2-26.6 5.9-35.8 15zm228.1-16.6c2.1 7 6.5 18.7 11.4 32.2 13.5 37.9 33 89.4 37.4 100 8.6 21.3 12.7 23.4 24.4 26.2 4.2 1.3 6.2 2.6 6.2 4.4 0 1.8-1.8 3.4-8.3 3.4-8.6 0-21.3-1.3-32.8-1.3-8.3 0-12 .5-18.5.5s-8.1-1.8-8.1-3.1 1.6-3.4 6.2-4.2c12.5-2.6 11.4-7.8 10.4-13.2-2.1-10.6-8.6-27.8-14.5-44.4-.2-1-1.3-2.6-8.8-2.6-14.3 0-37.2.2-42.6 1-1 0-2.3 1.3-2.8 2.1-6.7 16.9-13.5 39-13.5 45.5 0 3.1 1 7.5 12.7 11.1 4.4 1.3 7 2.8 7 4.7 0 2.6-3.9 3.4-7.3 3.4-4.4 0-10.9-.8-20.5-.8s-23.1 1.3-27 1.3c-4.7 0-6-1-6-2.6s1.8-3.9 5.7-5.2c13-4.4 16.4-5.2 23.9-22.1 6-13.2 35.6-91.7 46.5-118.2 1.6-3.7 1.8-5.2 2.3-6.7.2-.8.8-2.3 1.8-4.4 1.6-2.6 4.4-7.5 6.2-10.4 1.8-2.1 2.8-3.4 4.2-3.4 1.3.1 2.3 1.1 4.4 6.8zm8.3 84.1c-4.4-13.2-17.9-52.2-20.3-55.9-.8-1.6-1.3-1.8-2.1 0-4.7 12.6-18.2 48.9-20.2 57-.2 1 .2 1.8 1.3 1.8 10.4-.2 31.9 0 40.5-.8.3 0 1.1-1.3.8-2.1zm56.6-87.5c5.2 0 14.5 1.3 27.3 1.3 9.1 0 19.7-.5 25.7-.5 3.4 0 6.2 1.3 6.2 3.1s-1.3 3.9-6.2 4.7c-13.8 2.6-13.2 8.3-12.2 12.5 4.4 13.5 32.5 86.2 41.8 108.6.5.5 1.8 2.1 2.6.2C676 134 704.3 67.2 716 39.2c6.2-14.5-.8-17.7-12-21-3.7-1-5.7-3.1-5.7-4.7 0-1.8 3.4-3.1 7.5-3.1 6 0 12 .5 20.8.5 7.5 0 17.9-1 23.4-1 3.7 0 7.5 1 7.5 3.4 0 2.1-3.1 3.7-6.7 4.4-11.4 2.8-17.1 9.1-22.6 20.5-12 26-18.5 37.2-34.3 76.4-15 36.6-18.5 43.1-24.4 62.8-1 2.8-2.8 5.7-5.5 5.7-1.6 0-3.7-1.8-4.2-4.7-1.6-7.5-6-23.4-13.5-42.3-8.8-23.6-33.5-86.5-37.4-95.8-5.2-13-10.6-19.5-22.1-22.9-3.1-1-6-2.1-6-4.4.1-2.2 4-3.5 7.9-3.5z"/><path d="M0 10.3h800M0 179.1h800" class="st0"/><path d="M21.3 233.3h-4.7v-24.1H8.2v-3.8h21.7l-.5 3.8h-8.1v24.1zm18-18.8c1.7-2.1 4.1-3.2 6.6-3.2 4 0 5.9 2.3 5.9 6.3v15.6h-4.5v-14.9c0-2.6-.9-3.5-3.1-3.5-2 0-3.8 1.5-5 3.1v15.3h-4.5v-29.9l4.5-.5.1 11.7zm29.3 15.7c2.1 0 3.8-.6 5.6-1.9l1.9 2.7c-2 1.6-4.8 2.6-7.8 2.6-6.7 0-10.3-4.5-10.3-11.2 0-6.4 3.7-11.3 9.8-11.3 5.7 0 9.2 4.1 9.2 10.7 0 .8-.1 1.5-.1 2H62.7c.4 4.6 2.8 6.4 5.9 6.4zm-5.9-9.2h9.9c-.1-4.1-1.7-6.3-4.8-6.3-2.8 0-4.8 2-5.1 6.3zm32.9 6.5c0-1.7-.7-2.6-5.1-3.7-4.2-1.1-7-2.6-7-6.3 0-3.7 3.3-6.2 8.5-6.2 3.6 0 6.2 1 8.1 2.4l-1.9 2.8c-1.7-1.1-3.5-1.9-6-1.9-2.9 0-4.1.9-4.1 2.3 0 1.6 1.2 2.2 5.4 3.4 4.2 1.2 6.9 2.6 6.9 6.6 0 4.6-4.5 6.6-9.4 6.6-3.9 0-6.8-1.3-8.8-3l2.4-2.7c1.7 1.3 3.9 2.3 6.4 2.3 2.9.3 4.6-.8 4.6-2.6zm21.5 2.7c2.1 0 3.8-.6 5.6-1.9l1.9 2.7c-2 1.6-4.8 2.6-7.8 2.6-6.7 0-10.3-4.5-10.3-11.2 0-6.4 3.7-11.3 9.8-11.3 5.7 0 9.2 4.1 9.2 10.7 0 .8-.1 1.5-.1 2h-14.2c.4 4.6 2.8 6.4 5.9 6.4zm-5.8-9.2h9.9c-.1-4.1-1.7-6.3-4.8-6.3-2.8 0-4.9 2-5.1 6.3zm62.7 9.7l-1 3.1c-2.1-.2-3.7-1.1-4.4-3-1.6 2-4.1 3-6.8 3-4.4 0-7-2.7-7-6.6 0-4.5 3.7-7 10.2-7h3v-1.4c0-2.8-1.7-3.9-4.7-3.9-1.4 0-3.5.3-5.6 1.1l-1.2-3.2c2.7-1 5.3-1.5 7.5-1.5 5.7 0 8.5 2.7 8.5 7.1v9.5c-.1 1.8.4 2.5 1.5 2.8zm-6.1-3V223h-2.5c-4.2 0-5.9 1.5-5.9 4 0 2.3 1.2 3.5 3.6 3.5 1.9 0 3.8-1.1 4.8-2.8zm30.8-15.8l-.8 7.9h-3.3v-4.4c-3 .1-5.2 2.5-6.4 6.7v8h4.3v3.3h-12v-3.3h3.1v-14.9h-3.1V212h6.6l.8 4.9c1.6-3.5 3.8-5.5 7.5-5.5 1.3 0 2.3.1 3.3.5zm15.5 18.3c2.1 0 3.8-.6 5.6-1.9l1.9 2.7c-2 1.6-4.8 2.6-7.8 2.6-6.7 0-10.3-4.5-10.3-11.2 0-6.4 3.7-11.3 9.8-11.3 5.7 0 9.2 4.1 9.2 10.7 0 .8-.1 1.5-.1 2h-14.2c.3 4.6 2.8 6.4 5.9 6.4zm-5.9-9.2h9.9c-.1-4.1-1.7-6.3-4.8-6.3-2.8 0-4.8 2-5.1 6.3zm63 1.5c0 6.8-3.5 11.3-9.6 11.3-6.2 0-9.6-4.3-9.6-11.2 0-6.7 3.5-11.3 9.7-11.3s9.5 4.4 9.5 11.2zm-14.5.1c0 5.3 1.6 7.7 4.9 7.7s4.9-2.4 4.9-7.8c0-5.3-1.6-7.7-4.9-7.7s-4.9 2.5-4.9 7.8zm31.7 10.7h-5.3l-7.5-21.4h4.9l5.4 17.6 5.5-17.6h4.6l-7.6 21.4zm22.7-3.1c2.1 0 3.8-.6 5.6-1.9l1.9 2.7c-2 1.6-4.8 2.6-7.8 2.6-6.7 0-10.3-4.5-10.3-11.2 0-6.4 3.7-11.3 9.8-11.3 5.7 0 9.2 4.1 9.2 10.7 0 .8-.1 1.5-.1 2h-14.2c.4 4.6 2.9 6.4 5.9 6.4zm-5.8-9.2h9.9c-.1-4.1-1.7-6.3-4.8-6.3-2.9 0-4.9 2-5.1 6.3zm38.8-9.1l-.8 7.9h-3.3v-4.4c-3 .1-5.2 2.5-6.4 6.7v8h4.3v3.3h-12v-3.3h3.1v-14.9H326V212h6.6l.8 4.9c1.6-3.5 3.8-5.5 7.5-5.5 1.4 0 2.4.1 3.3.5zm18.3 15.6c0-1.7-.7-2.6-5.1-3.7-4.2-1.1-7-2.6-7-6.3 0-3.7 3.3-6.2 8.5-6.2 3.6 0 6.2 1 8.1 2.4l-1.9 2.8c-1.7-1.1-3.5-1.9-6-1.9-2.9 0-4.1.9-4.1 2.3 0 1.6 1.2 2.2 5.4 3.4 4.2 1.2 6.9 2.6 6.9 6.6 0 4.6-4.5 6.6-9.4 6.6-3.9 0-6.8-1.3-8.8-3l2.4-2.7c1.7 1.3 3.9 2.3 6.4 2.3 2.9.3 4.6-.8 4.6-2.6zm16.5-13c1.7-2.1 4.1-3.2 6.6-3.2 4 0 5.9 2.3 5.9 6.3v15.6H387v-14.9c0-2.6-.9-3.5-3.1-3.5-2 0-3.8 1.5-5 3.1v15.3h-4.5v-29.9l4.5-.5.1 11.7zm37.9 8c0 6.8-3.5 11.3-9.6 11.3-6.2 0-9.6-4.3-9.6-11.2 0-6.7 3.5-11.3 9.7-11.3s9.5 4.4 9.5 11.2zm-14.6.1c0 5.3 1.6 7.7 4.9 7.7s4.9-2.4 4.9-7.8c0-5.3-1.6-7.7-4.9-7.7-3.2.1-4.9 2.5-4.9 7.8zm38.8-.1c0 6.8-3.5 11.3-9.6 11.3-6.2 0-9.6-4.3-9.6-11.2 0-6.7 3.5-11.3 9.7-11.3 6.1 0 9.5 4.4 9.5 11.2zm-14.5.1c0 5.3 1.6 7.7 4.9 7.7s4.9-2.4 4.9-7.8c0-5.3-1.6-7.7-4.9-7.7-3.2.1-4.9 2.5-4.9 7.8zm32.2 11.2c-5 0-7.6-2.8-7.6-7v-11.6h-4.7V212h4.7v-4.8l4.5-.5v5.3h7.3l-.5 3.3h-6.7v11.5c0 2.3 1.1 3.4 3.7 3.4 1.5 0 2.8-.4 3.9-1l1.6 3c-1.6.9-3.8 1.6-6.2 1.6zm25-6.3c0-1.7-.7-2.6-5.1-3.7-4.2-1.1-7-2.6-7-6.3 0-3.7 3.3-6.2 8.5-6.2 3.6 0 6.2 1 8.1 2.4l-1.9 2.8c-1.7-1.1-3.5-1.9-6-1.9-2.9 0-4.1.9-4.1 2.3 0 1.6 1.2 2.2 5.4 3.4 4.2 1.2 6.9 2.6 6.9 6.6 0 4.6-4.5 6.6-9.4 6.6-3.9 0-6.8-1.3-8.8-3l2.4-2.7c1.7 1.3 3.9 2.3 6.4 2.3 2.9.3 4.6-.8 4.6-2.6z" class="st1"/></svg>