<svg xmlns="http://www.w3.org/2000/svg" id="Layer_1" viewBox="0 0 800 232.1" width="800" height="232.1"><style>.st0{fill:#505050}.st1{fill:#f26518}.st2{fill:#2997ff}</style><g id="ade7f196-bb75-4440-8df9-77fbbb86f832"><g id="b3134d78-f3d9-425f-ba55-ae83e0bdd3a0"><path d="M147.5 60.2l-10 10.1c-4.3-4.4-10.2-6.7-16.3-6.7-7.4 0-12.3 3.4-12.3 8.9 0 4.6 3.1 6.9 13.5 10.3 13 4.3 20.8 10.6 20.8 22.9 0 13.4-9.2 28.5-34.5 28.5-13.8 0-23.3-5.3-29.4-11.7l10.9-10.8c4.9 5.3 11.8 8.1 19 8 8.8 0 14.2-4.1 14.2-10.9 0-5.3-3.2-8.1-12.7-11.5-15.2-5.2-21.5-11.9-21.5-22.6 0-12.3 9.8-25.2 31.4-25.2 11.6.1 20.2 3.9 26.9 10.7zm30.9 38.6l-5.4 6.3c-1.7-1.8-4-2.6-6.5-2.6-7.5 0-9.5 9.2-9.5 15.5 0 5.3 2.3 6.8 5.8 6.8 2.6 0 4.6-.9 7.4-2.6l4 7.1c-3.7 2.8-8.2 4.3-12.8 4.3-10 0-15.9-6.2-15.9-16 0-9.6 5.7-23.6 20.8-23.6 4.6-.2 8.9 1.5 12.1 4.8z" class="st0"/><path d="M212.3 97.9l-3.4 23.8c-.3 2.5-.2 3.7 1.8 4.5l-3.2 7.2c-4-.4-7.5-2.2-8.6-6.1-2.6 3.7-6.1 6.4-11 6.4-7.9 0-12.1-5.8-12.1-14.8 0-10.7 5.6-24.8 21.3-24.8 5.3 0 10.4 1.3 15.2 3.8zM187 118.8c0 5.3 1.8 6.7 4.2 6.7 2.6 0 5-1.9 7.1-5.2l2.6-17.7c-1.3-.5-2.7-.7-4.1-.7-7.3 0-9.8 9.6-9.8 16.9zm38.8 3.5c-.2 1.8.4 2.5 1.5 2.5.6 0 1.2-.2 1.8-.4l1.3 7.7c-2.2 1-4.6 1.4-7 1.4-6.2 0-9.5-3.8-8.5-10.9l6-42.2 10.9-1.2-6 43.1zm17.3-3.5c.3 5 3.1 6.6 6.7 6.6 3.2 0 6-1.1 9.5-3.4l3.9 6.6c-4.3 3.2-9.5 4.9-14.8 5-10.9 0-16.2-6.3-16.2-15.8 0-10.1 5.4-23.8 21.1-23.8 9 0 13.7 4.6 13.7 10.2 0 10.3-12.2 13.5-23.9 14.6zm13-14.1c0-1.6-.9-3.3-3.6-3.3-5.3 0-7.9 5.4-8.8 10.8 9.2-.7 12.4-4 12.4-7.5zm50.8-24.3l-7.4 52h-9.6l.1-5.3c-2.4 3.6-6 6.5-11 6.5-7.8 0-11.7-5.7-11.7-15 0-10.2 5.1-24.6 17.8-24.6 3.2-.1 6.4 1.2 8.6 3.6l2.5-18.3 10.7 1.1zm-28.5 38.3c0 5.3 1.7 6.8 4 6.8 3.2 0 5.8-3.2 8.1-6.8l1.9-13.8c-1.2-1.7-3.2-2.6-5.2-2.6-6.8-.3-8.8 10.1-8.8 16.4zm-109 26.7l-9.8 9.6c-3.9-3.3-7.8-5.2-13.1-5.2-16.6 0-21.6 22.4-21.6 36.2 0 12.7 5.3 18 13.8 18 6.2 0 11.1-3.1 15.9-6.6l7.2 11c-7.1 6.4-16.3 9.9-25.8 10-17.9 0-29.9-11.3-29.9-32.4 0-21.5 10.8-49.9 40.3-49.9 10 0 17.5 3.3 23 9.3zm31.5 36.6l-3.4 23.8c-.3 2.5-.2 3.7 1.8 4.5l-3.2 7.2c-4-.4-7.5-2.2-8.6-6.1-2.6 3.7-6.1 6.4-11 6.4-7.9 0-12.1-5.8-12.1-14.8 0-10.7 5.6-24.8 21.3-24.8 5.4-.1 10.5 1.2 15.2 3.8zm-25.2 20.8c0 5.3 1.8 6.7 4.2 6.7 2.6 0 5-1.9 7.1-5.2l2.6-17.7c-1.3-.5-2.7-.7-4.1-.7-7.3 0-9.8 9.7-9.8 16.9zm32.1-23.5h9.6v4.1c3.8-4 7.5-5.3 10.9-5.3 7.5 0 11.5 5.3 11.5 14.5 0 10.7-5 25-19.8 25-2.3.1-4.6-.3-6.7-1.1l-2.1 14.3-10.9 1.2 7.5-52.7zm20.8 13.5c0-5.2-1.9-6.6-4.5-6.6s-5 1.6-7.1 4.3l-2.5 18.2c1.5.6 3.1.9 4.7.9 6.9 0 9.4-9.8 9.4-16.8zm23.8 23.7h-10.9l5.2-37.2h10.9l-5.2 37.2zm-4.9-49.8c0-3.9 3.1-6.9 6.9-6.9h.3c3.5 0 5.8 2.3 5.8 5.5 0 3.9-3.2 7-7 7h-.2c-3.5 0-5.8-2.4-5.8-5.6zm25.2 37.4c-.5 3.6.4 4.7 2.5 4.7 1.5-.1 2.9-.5 4.2-1.2l2.9 7.2c-3.1 1.8-6.6 2.7-10.2 2.7-7.7 0-11.6-4.8-10.3-13.5l2.5-17.2h-5.1l1.1-7.7h5.6l2.3-8.2 9.4-1.1-1.3 9.3h8.6l-2.3 7.7h-7.3l-2.6 17.3z" class="st0"/><path d="M319 182l-3.4 23.8c-.3 2.5-.2 3.7 1.8 4.5l-3.2 7.2c-4-.4-7.5-2.2-8.6-6.1-2.6 3.7-6.1 6.4-11 6.4-7.9 0-12.1-5.8-12.1-14.8 0-10.7 5.6-24.8 21.3-24.8 5.3-.1 10.6 1.2 15.2 3.8zm-25.2 20.8c0 5.3 1.8 6.7 4.2 6.7 2.6 0 5-1.9 7.1-5.2l2.6-17.7c-1.3-.5-2.7-.7-4.1-.7-7.3 0-9.8 9.7-9.8 16.9zm38.8 3.6c-.2 1.8.4 2.5 1.5 2.5.6 0 1.2-.2 1.8-.4l1.3 7.7c-2.2 1-4.6 1.4-7 1.4-6.2 0-9.5-3.8-8.5-10.9l6-42.2 10.9-1.2-6 43.1z" class="st0"/><path d="M370.1 182.9l-4.8 6c-2.5-1.8-5.6-2.8-8.8-2.9-3.3 0-5 1.2-5 3.1 0 1.9 1.6 2.6 7.2 4.4 6.2 2 9.6 5.4 9.6 11.3 0 6.9-5.3 13-16.6 13-6.7 0-12.3-2.6-15.5-6.1l5.5-5.8c2.7 2.5 6.3 3.9 10 3.9 3.9 0 5.8-1.7 5.8-3.7 0-2.5-1.5-3.2-7.4-5.2-6.4-2.2-9.5-5.3-9.5-10.8 0-6.4 5.4-12 15.7-12 5.1-.1 9.9 1.5 13.8 4.8zm159.5-94.5l-6.1 6c-2.5-2-4.8-3.2-8.1-3.2-10.2 0-13.4 13.8-13.4 22.4 0 7.9 3.3 11.1 8.6 11.1 3.9 0 6.8-1.9 9.8-4l4.4 6.8c-4.4 3.9-10.1 6.1-15.9 6.1-11 0-18.5-7-18.5-20.1 0-13.3 6.7-30.9 25-30.9 6.1.1 10.7 2.1 14.2 5.8z" class="st0"/><path d="M561.2 97.9l-3.4 23.8c-.3 2.5-.2 3.7 1.8 4.5l-3.2 7.2c-4-.4-7.5-2.2-8.6-6.1-2.6 3.7-6.1 6.4-11 6.4-7.9 0-12.1-5.8-12.1-14.8 0-10.7 5.6-24.8 21.3-24.8 5.3 0 10.5 1.3 15.2 3.8zM536 118.8c0 5.3 1.8 6.7 4.2 6.7 2.6 0 5-1.9 7.1-5.2l2.6-17.7c-1.3-.5-2.7-.7-4.1-.7-7.3 0-9.8 9.6-9.8 16.9zm31-23.6h9.6v4.1c3.8-4 7.5-5.3 10.9-5.3 7.5 0 11.5 5.3 11.5 14.5 0 10.7-5 25-19.8 25-2.3.1-4.6-.3-6.7-1.1l-2.1 14.3-10.9 1.2c.1.1 7.5-52.7 7.5-52.7zm20.9 13.5c0-5.2-1.9-6.6-4.5-6.6s-5 1.6-7.1 4.3l-2.5 18.2c1.5.6 3.1.9 4.7.9 6.8 0 9.4-9.8 9.4-16.8zm22.7 23.7h-10.9l5.2-37.2h10.9l-5.2 37.2zm-4.9-49.8c0-3.9 3.1-6.9 6.9-6.9h.3c3.5 0 5.8 2.3 5.8 5.5 0 3.9-3.2 7-7 7h-.2c-3.5 0-5.8-2.4-5.8-5.6zm24.1 37.5c-.5 3.6.4 4.7 2.5 4.7 1.5-.1 2.9-.5 4.2-1.2l2.9 7.2c-3.1 1.8-6.6 2.7-10.2 2.7-7.7 0-11.6-4.8-10.3-13.5l2.5-17.2h-5.1l1.1-7.7h5.6l2.3-8.2 9.4-1.1-1.3 9.3h8.6l-2.3 7.7h-7.3l-2.6 17.3z" class="st0"/><path d="M675.1 97.9l-3.4 23.8c-.3 2.5-.2 3.7 1.8 4.5l-3.2 7.2c-4-.4-7.5-2.2-8.6-6.1-2.6 3.7-6.1 6.4-11 6.4-7.9 0-12.1-5.8-12.1-14.8 0-10.7 5.6-24.8 21.3-24.8 5.3 0 10.6 1.3 15.2 3.8zm-25.2 20.9c0 5.3 1.8 6.7 4.2 6.7 2.6 0 5-1.9 7.1-5.2l2.6-17.7c-1.3-.5-2.7-.7-4.1-.7-7.3 0-9.8 9.6-9.8 16.9zm37.7 3.5c-.2 1.8.4 2.5 1.5 2.5.6 0 1.2-.2 1.8-.4l1.3 7.7c-2.2 1-4.6 1.4-7 1.4-6.2 0-9.5-3.8-8.5-10.9l6-42.2 10.9-1.2-6 43.1zm39.2-23.5l-4.8 6c-2.5-1.8-5.6-2.8-8.8-2.9-3.3 0-5 1.2-5 3.1 0 1.9 1.6 2.6 7.2 4.4 6.2 2 9.6 5.4 9.6 11.3 0 6.9-5.3 13-16.6 13-6.7 0-12.3-2.6-15.5-6.1l5.5-5.8c2.7 2.5 6.3 3.9 10 3.9 3.9 0 5.8-1.7 5.8-3.7 0-2.5-1.5-3.2-7.4-5.2-6.4-2.2-9.5-5.3-9.5-10.8 0-6.4 5.4-12 15.7-12 5.1-.1 10 1.5 13.8 4.8zm-200.7 93.3h-14.3l-8.9-39.1c.4 7.3 0 14.5-1.1 21.8l-2.5 17.3h-10l6.8-48.5h14.2l9.2 39.1c-.4-6.7-.3-13.3.7-19.9l2.7-19.1h10l-6.8 48.4zm6.4-14.6c0-10.3 5.1-23.7 20.8-23.7 9.9 0 15.6 6.1 15.6 15.9-.1 10.2-5.1 23.7-20.8 23.7-10-.1-15.6-6.1-15.6-15.9zm25.1-8.7c0-4.9-1.8-7-5.2-7-7.4 0-8.8 10.7-8.8 16.3 0 4.9 1.7 7 5.2 7 7.3.1 8.7-10.6 8.8-16.3zm25.5 11c-.5 3.6.4 4.7 2.5 4.7 1.5-.1 2.9-.5 4.2-1.2l2.9 7.2c-3.1 1.8-6.6 2.7-10.2 2.7-7.7 0-11.6-4.8-10.3-13.5l2.5-17.2h-5.1l1.1-7.7h5.6l2.3-8.2 9.4-1.1-1.3 9.3h8.6l-2.3 7.7h-7.3l-2.6 17.3zm61.3-31l-6 6c-2.6-2.6-6.1-4-9.8-4-4.4 0-7.4 2-7.4 5.4 0 2.8 1.8 4.1 8.1 6.2 7.9 2.6 12.4 6.4 12.4 13.8 0 8.1-5.5 17.1-20.8 17.1-8.3 0-14-3.2-17.7-7.1l6.5-6.5c3 3.2 7.1 4.9 11.4 4.7 5.3 0 8.6-2.5 8.6-6.6 0-3.2-1.9-4.8-7.6-6.8-9.2-3.1-12.9-7.2-12.9-13.6 0-7.4 5.9-15.2 18.8-15.2 7.3.2 12.4 2.5 16.4 6.6zm31.3 9.7l-5.4 6.3c-1.7-1.8-4-2.6-6.5-2.6-7.5 0-9.5 9.2-9.5 15.5 0 5.3 2.3 6.8 5.8 6.8 2.6 0 4.6-.9 7.4-2.6l4 7.1c-3.7 2.8-8.2 4.3-12.8 4.3-10 0-15.9-6.2-15.9-16 0-9.6 5.7-23.6 20.8-23.6 4.7-.1 9 1.7 12.1 4.8z" class="st0"/><path d="M708.5 157.6l-3.4 23.8c-.3 2.5-.2 3.7 1.8 4.5l-3.2 7.2c-4-.4-7.5-2.2-8.6-6.1-2.6 3.7-6.1 6.4-11 6.4-7.9 0-12.1-5.8-12.1-14.8 0-10.7 5.6-24.8 21.3-24.8 5.4 0 10.5 1.3 15.2 3.8zm-25.2 20.9c0 5.3 1.8 6.7 4.2 6.7 2.6 0 5-1.9 7.1-5.2l2.6-17.7c-1.3-.5-2.7-.7-4.1-.7-7.3 0-9.8 9.6-9.8 16.9zm37.7 3.6c-.2 1.8.4 2.5 1.5 2.5.6 0 1.2-.2 1.8-.4l1.3 7.7c-2.2 1-4.6 1.4-7 1.4-6.2 0-9.5-3.8-8.5-10.9l6-42.2L727 139l-6 43.1zm16.3-3.5c.3 5 3 6.6 6.7 6.6 3.2 0 6-1.1 9.5-3.4l3.9 6.6c-4.3 3.2-9.5 4.9-14.8 5-10.9 0-16.2-6.3-16.2-15.8 0-10.1 5.4-23.8 21.1-23.8 9 0 13.7 4.6 13.7 10.2 0 10.4-12.2 13.4-23.9 14.6zm12.9-14.2c0-1.6-.9-3.3-3.6-3.3-5.3 0-7.9 5.4-8.8 10.8 9.3-.7 12.4-4 12.4-7.5zm49.8-24.3l-7.3 52h-9.6l.1-5.3c-2.4 3.6-6 6.5-11 6.5-7.8 0-11.7-5.7-11.7-15 0-10.2 5.1-24.6 17.8-24.6 3.2-.1 6.4 1.2 8.6 3.6l2.5-18.3 10.6 1.1zm-28.5 38.3c0 5.3 1.7 6.8 4 6.8 3.2 0 5.8-3.2 8.1-6.8l1.9-13.8c-1.2-1.7-3.2-2.6-5.2-2.6-6.7-.2-8.7 10.3-8.8 16.4z" class="st0"/><path d="M57 9.8c-13-13-34.2-13-47.2 0S-3.3 44 9.8 57 44 70 57 57s13-34.1 0-47.2zm-5.9 5.8c8.7 8.7 9.8 22.4 2.7 32.4L18.7 13c10-7.2 23.8-6.1 32.4 2.6zM15.6 51.1c-8.7-8.7-9.8-22.4-2.7-32.4L48 53.9c-10 7.1-23.8 6-32.4-2.8z" class="st1"/><path d="M462.5 66.1c-1.5 0-2.8-.7-3.6-1.9l-14.4-21.4c-1.3-2-.8-4.7 1.2-6 2-1.3 4.7-.8 6 1.2l10.1 15.1 24.3-49.9c1.1-2.2 3.7-3.1 5.9-2s3.1 3.7 2 5.9l-27.8 56.8c-.7 1.4-2.1 2.4-3.7 2.5.2-.2 0-.3 0-.3z" class="st2"/><path d="M83.9 71c-.6-.4-1.2-.8-1.7-1.3L80.7 68l1.8-1.6 5.2 5.8-5.2 5.7-1.6-1.4 1.6-1.8c.4-.5 1-1 1.6-1.3h-8.8v-2.5l8.6.1zm30.8 2.2c.6.4 1.2.8 1.7 1.3l1.6 1.8-1.8 1.6-5.2-5.7 5.2-5.7 1.6 1.4-1.6 1.8c-.4.5-1 1.1-1.6 1.3h8.8v2.4l-8.7-.2z" class="st1"/><path d="M485.7 106.6c-.6-.4-1.2-.8-1.7-1.3l-1.5-1.8 1.8-1.6 5.2 5.7-5.2 5.7-1.6-1.4 1.6-1.8c.4-.5 1-1 1.6-1.3h-8.8v-2.4l8.6.2zm21.5 2.3c.6.4 1.2.8 1.7 1.3l1.5 1.8-1.8 1.6-5.1-5.8 5.2-5.7 1.6 1.4-1.6 1.8c-.4.5-1 1-1.6 1.3h8.8v2.4l-8.7-.1z" class="st2"/></g></g></svg>