<svg xmlns="http://www.w3.org/2000/svg" id="Layer_1" viewBox="0 0 562.7 689.2" width="562.7" height="689.2"><style>.st0,.st1{fill:none;stroke:#231f20;stroke-width:.75;stroke-miterlimit:10}.st1{stroke:#ec1c24}.st2{fill:#b2b3b3}.st3{fill:#6d6e70}.st4{fill:none;stroke:#969696;stroke-width:.75;stroke-miterlimit:10}.st5{stroke:#c8c8c8;stroke-width:.37}.st5,.st6,.st7{fill:none;stroke-miterlimit:10}.st6{stroke-dasharray:5.95,5.95;stroke:#c8c8c8;stroke-width:.37}.st7{stroke:#b2b3b3;stroke-width:.75}.st8{fill:#2997ff}.st9{fill:#fff}</style><g id="e92c4088-9f55-4974-827b-a2f3120ec261"><g id="a623384d-7994-484d-92d4-bc21ed7ee4f2"><path d="M509.7 4.3v37.4M52.1 4.3v37.4m457.6 610.2v37.4M52.1 651.9v37.4M5.7 50.7h37.4M5.7 642.9h37.4M518.7 50.7h37.4m-37.4 592.2h37.4" class="st0"/><path d="M516.4 43.9v605.7h-471V43.9h471z" class="st1"/><path d="M52.1 50.7h457.6v592.2H52.1V50.7z" class="st0"/><path d="M120.2 619.3h-1.3V615l-1.3.8-.6-.9 2-1.2h1.2v5.6zm5.8-6l-5.5 10.8-1-.5 5.5-10.8 1 .5zm2.7 7.8c0 1.1-.8 2-1.9 2.1h-.2c-1.6 0-2.2-1.1-2.2-2.7 0-1.9 1-3.2 2.6-3.2.5 0 .9.1 1.3.4l-.5.8c-.3-.1-.5-.2-.8-.2-.7 0-1.1.5-1.2 1.6.3-.3.8-.5 1.3-.5.9 0 1.7.7 1.7 1.6-.1-.1-.1 0-.1.1zm-1.4 0c0-.7-.3-1-.7-1-.3 0-.7.2-.9.4 0 1.2.2 1.6.8 1.6s.8-.4.8-1zM72.8 130.5h-1.3v-4.4l-1.3.8-.6-.9 2-1.2h1.2v5.7zm5.9-6l-5.5 10.8-1-.5 5.5-10.8 1 .5zm2.6 7.7c0 1.1-.8 2-1.9 2.1h-.2c-1.6 0-2.2-1.1-2.2-2.7 0-1.9 1-3.2 2.6-3.2.5 0 .9.1 1.3.4l-.5.8c-.3-.1-.5-.2-.8-.2-.7 0-1.1.6-1.2 1.6.3-.3.8-.5 1.3-.5.9 0 1.7.7 1.7 1.6-.1 0-.1.1-.1.1zm-1.4 0c0-.7-.3-1-.7-1-.3 0-.7.2-.9.4 0 1.2.2 1.6.8 1.6s.8-.3.8-1zm-6.3 80.7c0 .9-.5 1.5-2.3 3.1h2.4l-.1 1h-3.8v-1c2-1.9 2.4-2.4 2.4-3 0-.4-.3-.7-.6-.7h-.1c-.4 0-.8.2-1.1.6l-.8-.6c.5-.6 1.2-1 2-1 1.3 0 2 .7 2 1.6zm5.1-1.8l-5.5 10.8-1-.5 5.5-10.8 1 .5zm2.6 7.7c0 1.1-.8 2-1.9 2.1h-.2c-1.6 0-2.2-1.1-2.2-2.7 0-1.9 1-3.2 2.6-3.2.5 0 .9.1 1.3.4l-.5.8c-.3-.1-.5-.2-.8-.2-.7 0-1.1.6-1.2 1.6.3-.3.8-.5 1.3-.5.9 0 1.7.7 1.7 1.6-.1 0-.1 0-.1.1zm-1.4 0c0-.7-.3-1-.7-1-.3 0-.7.2-.9.4 0 1.2.2 1.6.8 1.6s.8-.3.8-1zm-6.3 80.5c-.7.1-1.3.7-1.3 1.5.1.7.7 1.3 1.5 1.2 0 1-.8 1.8-2.3 1.8-.8 0-1.5-.3-2-.9l.8-.7c.3.3.7.5 1.2.5.6 0 .9-.3.9-.8s-.3-.8-1-.8h-.5l.2-.9h.3c.5 0 .9-.3.9-.7s-.3-.6-.8-.6c-.4 0-.8.2-1.2.5l-.7-.7c.5-.5 1.3-.8 2-.8 1.3 0 2 .6 2 1.4zm5.1-1.7l-5.5 10.8-1-.5 5.5-10.7 1 .4zm2.6 7.8c0 1.1-.8 2-1.9 2.1h-.2c-1.6 0-2.2-1.1-2.2-2.7 0-1.9 1-3.2 2.6-3.2.5 0 .9.1 1.3.4l-.5.8c-.2-.1-.5-.2-.8-.2-.7 0-1.1.5-1.2 1.6.3-.3.8-.5 1.3-.5.9 0 1.7.7 1.7 1.6-.1-.1-.1 0-.1.1zm-1.4 0c0-.7-.3-1-.7-1-.3 0-.7.2-.9.4 0 1.2.2 1.6.8 1.6s.8-.4.8-1zm-6 83.6h-.7v1.2H72V389h-2.5v-1l1.7-3.6 1.1.4-1.4 3.1H72l.2-1.3h1.1v1.3h.7l-.1 1.1zm4.8-4.9l-5.5 10.8-1-.5 5.5-10.8 1 .5zm2.6 7.8c0 1.1-.8 2-1.9 2.1h-.2c-1.6 0-2.2-1.1-2.2-2.7 0-1.9 1-3.2 2.6-3.2.5 0 .9.1 1.3.4l-.5.8c-.2-.1-.5-.2-.8-.2-.7 0-1.1.5-1.2 1.6.3-.3.8-.5 1.3-.5.9 0 1.7.7 1.7 1.6-.1 0-.1 0-.1.1zm-1.4 0c0-.7-.3-1-.7-1-.3 0-.7.2-.9.4 0 1.2.2 1.6.8 1.6s.8-.3.8-1zM73.3 472h-2.2v1.2c.3-.1.6-.2.9-.2.9 0 1.7.7 1.7 1.6v.2c0 1.1-1 2-2.1 2h-.2c-.8 0-1.5-.3-2-.9l.8-.7c.3.4.7.6 1.1.5.5.1.9-.3 1-.8v-.2c0-.7-.3-.9-.8-.9-.3 0-.5.1-.7.2h-.9v-3h3.6l-.2 1zm5.4-1.3l-5.5 10.8-1-.5 5.5-10.8 1 .5zm2.6 7.8c0 1.1-.8 2-1.9 2.1h-.2c-1.6 0-2.2-1.1-2.2-2.7 0-1.9 1-3.2 2.6-3.2.5 0 .9.1 1.3.4l-.5.8c-.2-.1-.5-.2-.8-.2-.7 0-1.1.5-1.2 1.6.3-.3.8-.5 1.3-.5.9 0 1.7.7 1.7 1.6-.1-.1-.1 0-.1.1zm-1.4 0c0-.7-.3-1-.7-1-.3 0-.7.2-.9.4 0 1.2.2 1.6.8 1.6s.8-.4.8-1zm-6.1 82.8c0 1.1-.8 2-1.9 2.1h-.2c-1.6 0-2.2-1.1-2.2-2.7 0-1.9 1-3.2 2.6-3.2.5 0 .9.1 1.3.4l-.5.8c-.3-.1-.5-.2-.8-.2-.7 0-1.1.5-1.2 1.6.3-.3.8-.5 1.3-.5.9 0 1.7.7 1.7 1.6 0 0 0 .1-.1.1zm-1.3 0c0-.7-.2-1-.7-1-.3 0-.7.2-.9.4 0 1.2.2 1.6.8 1.6s.8-.3.8-1zm6.2-4L73.1 568l-1-.5 5.5-10.8 1.1.6zm2.6 7.7c0 1.1-.8 2-1.9 2.1h-.2c-1.6 0-2.2-1.1-2.2-2.7 0-1.9 1-3.2 2.6-3.2.5 0 .9.1 1.3.4l-.5.8c-.3-.1-.5-.2-.8-.2-.7 0-1.1.5-1.2 1.6.3-.3.8-.5 1.3-.5.9 0 1.7.7 1.7 1.6-.1 0-.1 0-.1.1zm-1.4 0c0-.7-.3-1-.7-1-.3 0-.7.2-.9.4 0 1.2.2 1.6.8 1.6s.8-.3.8-1zm105.2 50.2c0 .9-.5 1.5-2.3 3.1h2.4l-.1 1h-3.8v-1c2-1.8 2.4-2.4 2.4-3 0-.4-.3-.7-.7-.7h-.1c-.4 0-.8.2-1.1.6l-.8-.6c.5-.6 1.2-1 2-1 1.4-.1 2.1.7 2.1 1.6zm5.1-1.9l-5.5 10.8-1-.5 5.5-10.8 1 .5zm2.6 7.8c0 1.1-.8 2-1.9 2.1h-.2c-1.6 0-2.2-1.1-2.2-2.7 0-1.9 1-3.2 2.6-3.2.5 0 .9.1 1.3.4l-.5.8c-.3-.1-.5-.2-.8-.2-.7 0-1.1.5-1.2 1.6.3-.3.8-.5 1.3-.5.9 0 1.7.7 1.7 1.6-.1-.1-.1 0-.1.1zm-1.4 0c0-.7-.2-1-.7-1-.3 0-.7.2-.9.4 0 1.2.2 1.6.8 1.6s.8-.4.8-1zm56.4-6.1c0 .7-.5 1.2-1.2 1.3.7 0 1.4.5 1.4 1.3v.1c0 1-.8 1.8-2.3 1.8-.8 0-1.5-.3-2-.9l.8-.7c.3.3.7.5 1.2.5s.9-.3.9-.8-.4-.8-1-.8h-.5l.2-.9h.3c.5 0 .9-.3.9-.7s-.3-.7-.8-.7c-.4 0-.8.2-1.2.5l-.7-.7c.5-.5 1.3-.8 2-.8 1.3.1 2 .7 2 1.5zm5-1.7l-5.5 10.8-1-.5 5.5-10.8 1 .5zm2.7 7.8c0 1.1-.8 2-1.9 2.1h-.2c-1.6 0-2.2-1.1-2.2-2.7 0-1.9 1-3.2 2.6-3.2.5 0 .9.1 1.3.4l-.5.8c-.3-.1-.5-.2-.8-.2-.7 0-1.1.5-1.2 1.6.3-.3.8-.5 1.3-.5.9 0 1.7.7 1.7 1.6-.1-.1-.1 0-.1.1zm-1.4 0c0-.7-.2-1-.7-1-.3 0-.7.2-.9.4 0 1.2.2 1.6.8 1.6s.8-.4.8-1zm56.7-3h-.7v1.2h-1.3v-1.2h-2.5v-.9l1.7-3.7 1.1.4-1.4 3.1h1.2l.2-1.3h1.1v1.3h.7v1.1zm4.7-4.8l-5.5 10.8-1-.5 5.5-10.8 1 .5zm2.6 7.8c0 1.1-.8 2-1.9 2.1h-.2c-1.6 0-2.2-1.1-2.2-2.7 0-1.9 1-3.2 2.6-3.2.5 0 .9.1 1.3.4l-.5.8c-.3-.2-.5-.3-.8-.3-.7 0-1.1.5-1.2 1.6.3-.3.8-.5 1.3-.5.9 0 1.7.7 1.7 1.6-.1 0-.1.1-.1.2zm-1.3 0c0-.7-.2-1-.7-1-.3 0-.7.2-.9.4 0 1.2.2 1.6.8 1.6s.8-.4.8-1zm56.1-6.5h-2.2v1.2c.3-.1.6-.2.9-.2.9 0 1.7.7 1.7 1.6v.2c0 1.1-.9 2-2 2h-.3c-.8 0-1.5-.3-2-.9l.8-.7c.3.4.7.6 1.1.5.5.1.9-.3 1-.8v-.2c0-.7-.4-.9-.8-.9-.3 0-.5.1-.7.2h-.9v-3h3.6l-.2 1zm5.3-1.3l-5.5 10.8-1-.5 5.5-10.8 1 .5zm2.6 7.8c0 1.1-.8 2-1.9 2.1h-.2c-1.6 0-2.2-1.1-2.2-2.7 0-1.9 1-3.2 2.6-3.2.5 0 .9.1 1.3.4l-.5.8c-.3-.1-.5-.2-.8-.2-.7 0-1.1.5-1.2 1.6.3-.3.8-.5 1.3-.5.9 0 1.7.7 1.7 1.6-.1-.1-.1 0-.1.1zm-1.4 0c0-.7-.2-1-.7-1-.3 0-.7.2-.9.4 0 1.2.2 1.6.8 1.6s.8-.4.8-1zm58.1-3.7c0 1.1-.8 2-1.9 2.1h-.2c-1.6 0-2.2-1.1-2.2-2.7 0-1.9 1-3.2 2.5-3.2.5 0 .9.1 1.3.4l-.5.8c-.2-.1-.5-.2-.8-.2-.7 0-1.1.5-1.2 1.6.3-.3.8-.5 1.3-.5.9 0 1.7.7 1.7 1.6v.1zm-1.3 0c0-.7-.3-1-.7-1-.3 0-.7.2-.9.4 0 1.2.2 1.6.8 1.6s.8-.3.8-1zm6.1-4.1l-5.5 10.8-1-.5 5.5-10.8 1 .5zm2.6 7.8c0 1.1-.8 2-1.9 2.1h-.2c-1.6 0-2.2-1.1-2.2-2.7 0-1.9 1-3.2 2.5-3.2.5 0 .9.1 1.3.4l-.5.8c-.3-.1-.5-.2-.8-.2-.7 0-1.1.5-1.2 1.6.3-.3.8-.5 1.3-.5.9 0 1.7.7 1.7 1.6.1-.1.1 0 0 .1zm-1.3 0c0-.7-.3-1-.7-1-.3 0-.7.2-.9.4 0 1.2.2 1.6.8 1.6s.8-.4.8-1z" class="st2"/><path d="M67.7 14.2c.2 2.3-1.5 4.2-3.8 4.4h-.3c-3.1 0-4.4-2.4-4.4-5.9 0-4 1.9-6.7 5-6.7.9 0 1.9.3 2.6.8L66 8.2c-.5-.3-1.1-.5-1.7-.5-1.5 0-2.5 1.4-2.6 3.9.6-.8 1.6-1.3 2.7-1.3 1.8 0 3.3 1.3 3.3 3.9zm-2.3 0c0-1.7-.6-2.3-1.6-2.3-.9 0-1.7.5-2.1 1.2 0 2.6.6 3.7 2 3.7 1.1.1 1.6-1 1.7-2.6zm3.8-2.4h5.4v1.8h-5.4v-1.8zm16.1-4.9l-1.2 1.4c-.6-.6-1.5-.9-2.3-.9-1.7 0-3 1.3-3 4.6s1.3 4.6 3 4.6c.9 0 1.8-.4 2.5-1l1.1 1.4c-1 1-2.3 1.5-3.7 1.5-3.2 0-5.4-2.3-5.4-6.4s2.4-6.4 5.4-6.4c1.4-.1 2.6.4 3.6 1.2zm9.8 6.7c0 3-1.7 5-4.5 5s-4.5-1.9-4.5-5 1.7-5 4.5-5 4.5 1.8 4.5 5zm-6.6 0c0 2.3.7 3.3 2.1 3.3s2-1 2-3.3-.7-3.3-2-3.3-2.1 1-2.1 3.3zm8.6 2.5V5l2.3-.2v11.3c0 .4.1.7.5.7.2 0 .4 0 .5-.1l.5 1.6c-.5.2-1 .3-1.6.3-1.2.1-2.2-.8-2.3-2 .1-.2.1-.3.1-.5zm13 2.2h-2L108 17c-.6 1-1.7 1.6-2.9 1.6-1.7 0-2.6-1.1-2.6-2.9V8.8h2.3v6.5c0 1.1.4 1.5 1.1 1.5.8-.1 1.6-.6 1.9-1.3V8.8h2.3v9.5zm15.2-6.9v6.9H123v-6.5c0-1.2-.5-1.5-1-1.5-.8 0-1.3.6-1.8 1.4v6.6h-2.3v-6.5c0-1.2-.5-1.5-1-1.5-.8 0-1.3.6-1.8 1.4v6.6h-2.3V8.8h2l.2 1.2c.6-.9 1.6-1.5 2.8-1.5 1 0 2 .6 2.3 1.6.6-1 1.7-1.6 2.9-1.6 1.3 0 2.3 1.1 2.3 2.9zm10.4 0v6.9h-2.3v-6.5c0-1.2-.4-1.5-1.2-1.5s-1.4.6-2 1.4v6.6h-2.3V8.8h2l.2 1.2c.7-.9 1.7-1.5 2.9-1.5 1.4-.1 2.6 1 2.7 2.4v.5zm16.1-4.3l-1.3 1.3c-.7-.7-1.6-1-2.6-1-1.8 0-3.3 1.3-3.3 4.7s1 4.7 2.9 4.7c.7 0 1.4-.1 2-.5v-3.2h-1.9l-.2-1.8h4.4v6.1c-1.3.8-2.8 1.2-4.3 1.2-3.5 0-5.5-2.2-5.5-6.5s2.6-6.5 5.7-6.5c1.6 0 3 .6 4.1 1.5zm8 1.6l-.4 2.2c-.3-.1-.6-.1-.8-.1-1.1 0-1.7.8-2.1 2.4v5.1h-2.3V8.8h2l.2 1.9c.2-1.2 1.3-2.1 2.5-2.1.3 0 .6 0 .9.1zm4-3.3c-.1.8-.8 1.4-1.6 1.3-.7-.1-1.3-.6-1.3-1.3.1-.8.8-1.4 1.6-1.3.7 0 1.3.6 1.3 1.3zm-.3 12.9h-2.3V8.8h2.3v9.5zM174.2 5v13.3h-2l-.2-1.2c-.6.9-1.6 1.5-2.7 1.5-2.4 0-3.6-2-3.6-5s1.5-5 3.8-5c.9 0 1.8.4 2.4 1V4.8l2.3.2zm-2.3 10.6v-4.3c-.4-.6-1.1-1-1.8-1-1.2 0-2 1-2 3.3 0 2.4.7 3.3 1.8 3.3.8-.1 1.6-.5 2-1.3z" class="st3"/><path d="M92.9 91v511.5" class="st4"/><path d="M148.1 91v3" class="st5"/><path d="M148.1 100v496.6" class="st6"/><path d="M148.1 599.5v3m6-511.5v3" class="st5"/><path d="M154.1 100v496.6" class="st6"/><path d="M154.1 599.5v3" class="st5"/><path d="M209.6 91v511.5m6-511.5v511.5" class="st4"/><path d="M271.2 91v3" class="st5"/><path d="M271.2 100v496.6" class="st6"/><path d="M271.2 599.5v3m6-511.5v3" class="st5"/><path d="M277.2 100v496.6" class="st6"/><path d="M277.2 599.5v3" class="st5"/><path d="M332.7 91v511.5m6-511.5v511.5" class="st4"/><path d="M394.3 91v3" class="st5"/><path d="M394.3 100v496.6" class="st6"/><path d="M394.3 599.5v3M400.2 91v3" class="st5"/><path d="M400.2 100v496.6" class="st6"/><path d="M400.2 599.5v3" class="st5"/><path d="M92.9 177h362.5m-362.5-5.9h362.5M92.9 263.4h362.5m-362.5-6h362.5M92.9 349.8h362.5m-362.5-6h362.5M92.9 436.1h362.5m-362.5-6h362.5M92.9 522.5h362.5m-362.5-6h362.5" class="st7"/><path d="M455.4 91v511.5M92.9 91h362.5M92.9 602.5h362.5" class="st4"/><path d="M92.9 91h55.2v80.4H92.9V91zm0 172.4h116.7v80.4H92.9v-80.4z" class="st8"/><path d="M112.5 134.5h-1.7v-7.3l-2 1.2-.8-1.1 3-1.8h1.5v9zm11.4 0h-2l-1.5-2.8-1.4 2.8h-1.9l2.4-3.8-2.1-3.4h2l1.2 2.4 1.2-2.4h1.9l-2.1 3.3 2.3 3.9zm8.1 0h-1.7v-7.3l-2 1.2-.8-1.1 2.9-1.8h1.5l.1 9zm12.2 165.7c0 1.5-.9 2.6-3.7 5.3h3.9l-.2 1.4h-5.6v-1.3c3.1-3.1 3.8-4 3.8-5.3.1-.7-.4-1.3-1.1-1.3h-.2c-.7 0-1.4.4-1.8 1l-1-.9c.7-.9 1.8-1.5 2.9-1.5 1.9.1 3 1.2 3 2.6zm10.9 6.7h-2l-1.5-2.8-1.5 2.8h-1.9l2.4-3.8-2.1-3.4h2l1.2 2.4 1.2-2.4h1.9l-2.1 3.4 2.4 3.8zm8.1 0h-1.7v-7.3l-2 1.2-.8-1.2 2.9-1.8h1.5l.1 9.1z" class="st9"/><path d="M215.8 177.2h116.7V344H215.8V177.2zm0 172.6h239.8v166.5H215.8V349.8z" class="st8"/><path d="M266.7 257.2c0 1.5-.9 2.6-3.7 5.3h3.9l-.2 1.4h-5.6v-1.3c3.1-3.1 3.9-4 3.9-5.3.1-.7-.4-1.3-1.1-1.3h-.2c-.7 0-1.4.4-1.7 1l-1-.8c.7-.9 1.8-1.5 2.9-1.5 1.7 0 2.8 1.1 2.8 2.5zm10.9 6.7h-2l-1.5-2.8-1.5 2.8h-1.9l2.4-3.8-2.1-3.4h2l1.2 2.4 1.2-2.4h1.9l-2.1 3.4 2.4 3.8zm9.4-6.7c0 1.5-.9 2.6-3.7 5.3h3.9l-.2 1.4h-5.7v-1.3c3.1-3.1 3.9-4 3.9-5.3.1-.7-.4-1.3-1.1-1.3h-.2c-.7 0-1.4.4-1.8 1l-1-.8c.7-.9 1.8-1.5 2.9-1.5 1.9 0 3 1.1 3 2.5zm41.9 177.1h-1.1v2.1h-1.7v-2.1h-3.8v-1.2l2.6-6 1.5.5-2.3 5.3h2.1l.2-2.3h1.5v2.3h1.1l-.1 1.4zm10.5 2h-2l-1.5-2.8-1.5 2.8h-1.9l2.4-3.8-2.1-3.4h2l1.2 2.4 1.2-2.4h1.9l-2.1 3.3 2.4 3.9zm9.4-6.7c0 1.5-.9 2.6-3.7 5.3h3.9l-.2 1.4h-5.6V435c3.1-3.1 3.9-4 3.9-5.3.1-.7-.4-1.3-1.1-1.3h-.2c-.7 0-1.4.4-1.8 1l-1-.8c.7-.9 1.8-1.5 2.9-1.5 1.8 0 2.9 1.1 2.9 2.5z" class="st9"/></g></g></svg>