<svg xmlns="http://www.w3.org/2000/svg" id="Layer_1" viewBox="0 0 260 260" width="260" height="260"><defs><style>.cls-1{fill:none}.cls-2{fill:#b3b3b3}.cls-3{fill:#2997ff}</style></defs><path d="M54.75 83.15h9.44v8.23h.24c2.58-3.06 5.58-5.45 9.01-7.14 3.43-1.69 7.2-2.54 11.31-2.54 4.44 0 8.49.75 12.16 2.24 3.67 1.49 6.79 3.57 9.38 6.23 2.58 2.66 4.6 5.81 6.05 9.44s2.18 7.58 2.18 11.86-.73 8.23-2.18 11.86-3.45 6.78-5.99 9.44-5.55 4.74-9.01 6.23c-3.47 1.49-7.18 2.24-11.13 2.24-5.08 0-9.54-1.11-13.37-3.33-3.83-2.22-6.64-4.94-8.41-8.17h-.24v37.63h-9.44V83.15zm9.44 28.31c0 2.99.46 5.75 1.39 8.29.93 2.54 2.28 4.76 4.05 6.65 1.77 1.9 3.89 3.39 6.35 4.48 2.46 1.09 5.22 1.63 8.29 1.63s5.83-.54 8.29-1.63c2.46-1.09 4.58-2.58 6.35-4.48 1.77-1.89 3.13-4.11 4.05-6.65.93-2.54 1.39-5.3 1.39-8.29s-.47-5.75-1.39-8.29c-.93-2.54-2.28-4.76-4.05-6.66-1.77-1.89-3.89-3.39-6.35-4.48-2.46-1.09-5.22-1.63-8.29-1.63s-5.83.54-8.29 1.63c-2.46 1.09-4.58 2.58-6.35 4.48-1.78 1.9-3.13 4.11-4.05 6.66-.93 2.54-1.39 5.3-1.39 8.29z" class="cls-2"/><path d="M51 53.11l-1.17 1.35c-.9-.74-1.76-1.06-2.79-1.06-1.12 0-1.93.5-1.93 1.48 0 .9.49 1.3 2.56 1.94 2.18.68 3.69 1.58 3.69 3.93s-1.75 3.82-4.72 3.82c-1.98 0-3.46-.7-4.48-1.71l1.22-1.37c.92.77 1.91 1.24 3.21 1.24s2.29-.65 2.29-1.85c0-1.04-.52-1.51-2.47-2.11-2.61-.81-3.75-1.85-3.75-3.75 0-2.07 1.78-3.44 4.23-3.44 1.82 0 3.02.54 4.11 1.53zM60.66 63l-.49 1.53c-1.06-.09-1.75-.45-2.11-1.39-.68 1.01-1.71 1.42-2.86 1.42-1.89 0-3.06-1.21-3.06-2.93 0-2.07 1.55-3.19 4.32-3.19h1.21v-.54c0-1.24-.56-1.66-1.78-1.66-.65 0-1.57.18-2.54.5l-.52-1.57c1.17-.45 2.38-.68 3.44-.68 2.56 0 3.67 1.17 3.67 3.28v4c0 .77.25 1.04.72 1.22zm-2.99-1.28v-1.93h-.95c-1.49 0-2.23.54-2.23 1.66 0 .92.47 1.44 1.35 1.44.79 0 1.4-.41 1.84-1.17zm12.44-4.32v6.9h-2.3v-6.54c0-1.19-.45-1.53-1.17-1.53-.83 0-1.44.56-2 1.44v6.63h-2.3v-9.52h2l.18 1.24c.74-.95 1.69-1.51 2.9-1.51 1.71 0 2.7 1.08 2.7 2.9zm8.66-1.76l-.9 1.35c-.79-.5-1.55-.77-2.39-.77-.92 0-1.44.38-1.44.95 0 .63.38.92 2 1.37 1.94.52 3.04 1.31 3.04 3.01 0 1.98-1.84 3.02-4.02 3.02-1.64 0-2.92-.56-3.8-1.35l1.15-1.3c.74.56 1.62.94 2.59.94 1.03 0 1.69-.43 1.69-1.15 0-.79-.38-1.04-2.16-1.55-1.96-.54-2.83-1.48-2.83-2.88 0-1.58 1.46-2.77 3.67-2.77 1.37 0 2.48.43 3.39 1.13zm12.31 0l-.9 1.35c-.79-.5-1.55-.77-2.39-.77-.92 0-1.44.38-1.44.95 0 .63.38.92 2 1.37 1.94.52 3.04 1.31 3.04 3.01 0 1.98-1.84 3.02-4.02 3.02-1.64 0-2.92-.56-3.8-1.35l1.15-1.3c.74.56 1.62.94 2.59.94 1.03 0 1.69-.43 1.69-1.15 0-.79-.38-1.04-2.16-1.55-1.96-.54-2.83-1.48-2.83-2.88 0-1.58 1.46-2.77 3.67-2.77 1.37 0 2.48.43 3.38 1.13zm9.54 4.6h-5.98c.18 1.94 1.08 2.57 2.34 2.57.85 0 1.55-.27 2.38-.85l.95 1.31c-.94.76-2.09 1.28-3.53 1.28-2.95 0-4.54-1.96-4.54-4.97s1.53-5.1 4.23-5.1 4.2 1.8 4.2 4.81c0 .31-.04.68-.05.94zm-2.23-1.6c0-1.57-.56-2.5-1.85-2.5-1.08 0-1.76.72-1.89 2.61h3.75v-.11zm9.61-3.99l-.4 2.23c-.29-.07-.5-.11-.85-.11-1.15 0-1.75.85-2.11 2.45v5.08h-2.3v-9.52h2l.22 1.87c.45-1.37 1.37-2.12 2.48-2.12.34 0 .65.04.95.13zm3.64-3.3c0 .77-.59 1.39-1.46 1.39s-1.44-.61-1.44-1.39.59-1.4 1.44-1.4 1.46.61 1.46 1.4zm-.29 12.95h-2.3v-9.52h2.3v9.52zm4.95-10.54v1.01h2.29l-.25 1.66h-2.03v7.87h-2.3v-7.87h-1.55v-1.66h1.55v-1.04c0-1.73 1.15-3.02 3.35-3.02.95 0 1.73.22 2.47.56l-.67 1.55a3.71 3.71 0 0 0-1.57-.36c-.94 0-1.28.41-1.28 1.31zm58.57-.65l-1.17 1.35c-.9-.74-1.76-1.06-2.79-1.06-1.12 0-1.93.5-1.93 1.48 0 .9.49 1.3 2.56 1.94 2.18.68 3.69 1.58 3.69 3.93s-1.75 3.82-4.72 3.82c-1.98 0-3.46-.7-4.48-1.71l1.22-1.37c.92.77 1.91 1.24 3.21 1.24s2.29-.65 2.29-1.85c0-1.04-.52-1.51-2.47-2.11-2.61-.81-3.75-1.85-3.75-3.75 0-2.07 1.78-3.44 4.23-3.44 1.82 0 3.02.54 4.11 1.53zm9.72 7.13h-5.98c.18 1.94 1.08 2.57 2.34 2.57.85 0 1.55-.27 2.38-.85l.95 1.31c-.94.76-2.09 1.28-3.53 1.28-2.95 0-4.54-1.96-4.54-4.97s1.53-5.1 4.23-5.1 4.2 1.8 4.2 4.81c0 .31-.04.68-.05.94zm-2.23-1.6c0-1.57-.56-2.5-1.85-2.5-1.08 0-1.76.72-1.89 2.61h3.75v-.11zm9.61-3.99l-.4 2.23c-.29-.07-.5-.11-.85-.11-1.15 0-1.75.85-2.11 2.45v5.08h-2.3v-9.52h2l.22 1.87c.45-1.37 1.37-2.12 2.48-2.12.34 0 .65.04.95.13zm3.63-3.3c0 .77-.59 1.39-1.46 1.39s-1.44-.61-1.44-1.39.59-1.4 1.44-1.4 1.46.61 1.46 1.4zm-.29 12.95h-2.3v-9.52h2.3v9.52zm4.96-10.54v1.01h2.29l-.25 1.66h-2.03v7.87h-2.3v-7.87h-1.55v-1.66h1.55v-1.04c0-1.73 1.15-3.02 3.35-3.02.95 0 1.73.22 2.47.56l-.67 1.55a3.71 3.71 0 0 0-1.57-.36c-.94 0-1.28.41-1.28 1.31z" class="cls-3"/><path d="M187.27 94.05c-4.52 0-10.77 2.39-13.42 4.79-.4.27-.4 1.33-.4 2.92V110c0 7.44.53 12.76 1.2 18.61.13.93.4 1.46 1.6 2.26 3.72 2.53 8.51 3.59 12.89 3.59s7.84-1.46 10.9-3.72c3.46-2.39 6.78-7.44 6.78-14.89 0-5.98-1.33-10.5-5.45-15.02-3.85-4.39-9.17-6.78-14.09-6.78z" class="cls-1"/><path d="M155.64 171.01l.93 2.79c.13.27.27.4.53.4 4.92-.13 20.74-.93 26.32-1.33.93 0 1.06-.13 1.33-1.46l.66-2.13c.13-.53 0-.8-.93-.8-3.59 0-5.18-.13-7.98-.27-1.45-.1-2.27-.27-2.61-4.73h-9.33c-.45 2.83-1.6 6.91-8.93 7.52z" class="cls-3"/><path d="M207.08 92.99c-3.99-3.72-9.57-5.58-14.09-5.58-1.6 0-12.76 4.25-19.27 6.91v-1.76l-8.91 7.34c.27 1.47.93 8.65.93 17.29v15.29c0 19.8-.8 27.78-1.06 30.3-.03.23-.07.47-.11.72h9.33c-.13-1.66-.18-3.91-.18-6.97 0-3.99.13-14.09.4-15.82.13-.8.93-1.46 1.06-1.33 2.13.67 5.98 1.46 10.5 1.46.93 0 2.53 0 3.85-.53 7.31-2.79 14.62-7.31 16.75-9.3 4.78-4.12 8.91-11.7 8.91-19.14 0-5.85-1.86-13.29-8.11-18.88zm-7.04 37.75c-3.06 2.26-6.51 3.72-10.9 3.72s-9.17-1.06-12.89-3.59c-1.2-.8-1.46-1.33-1.6-2.26-.66-5.85-1.2-11.17-1.2-18.61v-8.24c0-1.59 0-2.66.4-2.92 2.66-2.39 8.91-4.79 13.42-4.79 4.92 0 10.23 2.39 14.09 6.78 4.12 4.52 5.45 9.04 5.45 15.02 0 7.44-3.32 12.49-6.78 14.89z" class="cls-2"/><path d="M173.72 85.15c0-.53 0-.67-.53-.8-.66-.13-1.06-.13-2.39.8-3.59 2.66-9.3 6.51-13.03 9.97.53 2.39 1.33 2.66 1.86 2.66 4.51 0 4.92.66 5.18 2.12l8.91-7.34v-7.41z" class="cls-3"/></svg>