<?xml version="1.0" encoding="UTF-8"?><svg id="Layer_1" xmlns="http://www.w3.org/2000/svg" viewBox="0 0 260 200"><defs><style>.cls-1{fill:none;}.cls-2{fill:#b3b3b3;}.cls-3{fill:#2997ff;}</style></defs><path class="cls-2" d="M11.54,58.24h13.54v11.8h.35c3.7-4.4,8.01-7.81,12.93-10.24,4.92-2.43,10.33-3.64,16.23-3.64,6.36,0,12.18,1.07,17.44,3.21,5.26,2.14,9.75,5.12,13.45,8.94,3.7,3.82,6.6,8.33,8.68,13.54,2.08,5.21,3.12,10.88,3.12,17.01s-1.04,11.8-3.12,17.01-4.95,9.72-8.59,13.54c-3.64,3.82-7.96,6.8-12.93,8.94-4.98,2.14-10.3,3.21-15.97,3.21-7.29,0-13.68-1.59-19.18-4.77-5.5-3.18-9.52-7.09-12.06-11.72h-.35v53.98H11.54V58.24Zm13.54,40.61c0,4.28,.66,8.24,2,11.89,1.33,3.65,3.27,6.83,5.81,9.55,2.54,2.72,5.58,4.86,9.11,6.42,3.53,1.56,7.49,2.34,11.89,2.34s8.36-.78,11.89-2.34c3.53-1.56,6.57-3.7,9.11-6.42,2.54-2.72,4.48-5.9,5.81-9.55,1.33-3.64,2-7.61,2-11.89s-.67-8.24-2-11.89c-1.33-3.64-3.27-6.83-5.81-9.55-2.55-2.72-5.58-4.86-9.11-6.42-3.53-1.56-7.49-2.34-11.89-2.34s-8.36,.78-11.89,2.34c-3.53,1.56-6.57,3.7-9.11,6.42-2.55,2.72-4.49,5.9-5.81,9.55-1.33,3.64-2,7.61-2,11.89Z"/><g><path class="cls-3" d="M17.81,20.02l-1.17,1.35c-.9-.74-1.76-1.06-2.79-1.06-1.12,0-1.93,.5-1.93,1.48,0,.9,.49,1.3,2.56,1.94,2.18,.68,3.69,1.58,3.69,3.93s-1.75,3.82-4.72,3.82c-1.98,0-3.46-.7-4.48-1.71l1.22-1.37c.92,.77,1.91,1.24,3.21,1.24s2.29-.65,2.29-1.85c0-1.04-.52-1.51-2.47-2.11-2.61-.81-3.75-1.85-3.75-3.75,0-2.07,1.78-3.44,4.23-3.44,1.82,0,3.02,.54,4.11,1.53Z"/><path class="cls-3" d="M27.47,29.9l-.49,1.53c-1.06-.09-1.75-.45-2.11-1.39-.68,1.01-1.71,1.42-2.86,1.42-1.89,0-3.06-1.21-3.06-2.93,0-2.07,1.55-3.19,4.32-3.19h1.21v-.54c0-1.24-.56-1.66-1.78-1.66-.65,0-1.57,.18-2.54,.5l-.52-1.57c1.17-.45,2.38-.68,3.44-.68,2.56,0,3.67,1.17,3.67,3.28v4c0,.77,.25,1.04,.72,1.22Zm-2.99-1.28v-1.93h-.95c-1.49,0-2.23,.54-2.23,1.66,0,.92,.47,1.44,1.35,1.44,.79,0,1.4-.41,1.84-1.17Z"/><path class="cls-3" d="M36.92,24.3v6.9h-2.3v-6.54c0-1.19-.45-1.53-1.17-1.53-.83,0-1.44,.56-2,1.44v6.63h-2.3v-9.52h2l.18,1.24c.74-.95,1.69-1.51,2.9-1.51,1.71,0,2.7,1.08,2.7,2.9Z"/><path class="cls-3" d="M45.58,22.54l-.9,1.35c-.79-.5-1.55-.77-2.39-.77-.92,0-1.44,.38-1.44,.95,0,.63,.38,.92,2,1.37,1.94,.52,3.04,1.31,3.04,3.01,0,1.98-1.84,3.02-4.02,3.02-1.64,0-2.92-.56-3.8-1.35l1.15-1.3c.74,.56,1.62,.94,2.59,.94,1.03,0,1.69-.43,1.69-1.15,0-.79-.38-1.04-2.16-1.55-1.96-.54-2.83-1.48-2.83-2.88,0-1.58,1.46-2.77,3.67-2.77,1.37,0,2.48,.43,3.39,1.13Z"/><path class="cls-3" d="M46.73,24.64h5.44v1.84h-5.44v-1.84Z"/><path class="cls-3" d="M60.5,22.54l-.9,1.35c-.79-.5-1.55-.77-2.39-.77-.92,0-1.44,.38-1.44,.95,0,.63,.38,.92,2,1.37,1.94,.52,3.04,1.31,3.04,3.01,0,1.98-1.84,3.02-4.02,3.02-1.64,0-2.92-.56-3.8-1.35l1.15-1.3c.74,.56,1.62,.94,2.59,.94,1.03,0,1.69-.43,1.69-1.15,0-.79-.38-1.04-2.16-1.55-1.96-.54-2.83-1.48-2.83-2.88,0-1.58,1.46-2.77,3.67-2.77,1.37,0,2.48,.43,3.38,1.13Z"/><path class="cls-3" d="M70.04,27.15h-5.98c.18,1.94,1.08,2.57,2.34,2.57,.85,0,1.55-.27,2.38-.85l.95,1.31c-.94,.76-2.09,1.28-3.53,1.28-2.95,0-4.54-1.96-4.54-4.97s1.53-5.1,4.23-5.1,4.2,1.8,4.2,4.81c0,.31-.04,.68-.05,.94Zm-2.23-1.6c0-1.57-.56-2.5-1.85-2.5-1.08,0-1.76,.72-1.89,2.61h3.75v-.11Z"/><path class="cls-3" d="M77.42,21.55l-.4,2.23c-.29-.07-.5-.11-.85-.11-1.15,0-1.75,.85-2.11,2.45v5.08h-2.3v-9.52h2l.22,1.87c.45-1.37,1.37-2.12,2.48-2.12,.34,0,.65,.04,.95,.13Z"/><path class="cls-3" d="M81.06,18.25c0,.77-.59,1.39-1.46,1.39s-1.44-.61-1.44-1.39,.59-1.4,1.44-1.4,1.46,.61,1.46,1.4Zm-.29,12.95h-2.3v-9.52h2.3v9.52Z"/><path class="cls-3" d="M85.72,20.66v1.01h2.29l-.25,1.66h-2.03v7.87h-2.3v-7.87h-1.55v-1.66h1.55v-1.04c0-1.73,1.15-3.02,3.35-3.02,.95,0,1.73,.22,2.47,.56l-.67,1.55c-.58-.27-1.12-.36-1.57-.36-.94,0-1.28,.41-1.28,1.31Z"/></g><g><path class="cls-3" d="M201.12,20.02l-1.17,1.35c-.9-.74-1.76-1.06-2.79-1.06-1.12,0-1.93,.5-1.93,1.48,0,.9,.49,1.3,2.56,1.94,2.18,.68,3.69,1.58,3.69,3.93s-1.75,3.82-4.72,3.82c-1.98,0-3.46-.7-4.48-1.71l1.22-1.37c.92,.77,1.91,1.24,3.21,1.24s2.29-.65,2.29-1.85c0-1.04-.52-1.51-2.47-2.11-2.61-.81-3.75-1.85-3.75-3.75,0-2.07,1.78-3.44,4.23-3.44,1.82,0,3.02,.54,4.11,1.53Z"/><path class="cls-3" d="M210.84,27.15h-5.98c.18,1.94,1.08,2.57,2.34,2.57,.85,0,1.55-.27,2.38-.85l.95,1.31c-.94,.76-2.09,1.28-3.53,1.28-2.95,0-4.54-1.96-4.54-4.97s1.53-5.1,4.23-5.1,4.2,1.8,4.2,4.81c0,.31-.04,.68-.05,.94Zm-2.23-1.6c0-1.57-.56-2.5-1.85-2.5-1.08,0-1.76,.72-1.89,2.61h3.75v-.11Z"/><path class="cls-3" d="M218.22,21.55l-.4,2.23c-.29-.07-.5-.11-.85-.11-1.15,0-1.75,.85-2.11,2.45v5.08h-2.3v-9.52h2l.22,1.87c.45-1.37,1.37-2.12,2.48-2.12,.34,0,.65,.04,.95,.13Z"/><path class="cls-3" d="M221.85,18.25c0,.77-.59,1.39-1.46,1.39s-1.44-.61-1.44-1.39,.59-1.4,1.44-1.4,1.46,.61,1.46,1.4Zm-.29,12.95h-2.3v-9.52h2.3v9.52Z"/><path class="cls-3" d="M226.51,20.66v1.01h2.29l-.25,1.66h-2.03v7.87h-2.3v-7.87h-1.55v-1.66h1.55v-1.04c0-1.73,1.15-3.02,3.35-3.02,.95,0,1.73,.22,2.47,.56l-.67,1.55c-.58-.27-1.12-.36-1.57-.36-.94,0-1.28,.41-1.28,1.31Z"/></g><g><path class="cls-1" d="M213.67,73.88c-6.48,0-15.44,3.43-19.26,6.86-.57,.38-.57,1.91-.57,4.19v11.82c0,10.68,.76,18.3,1.72,26.69,.19,1.33,.57,2.1,2.29,3.24,5.34,3.62,12.2,5.15,18.49,5.15s11.25-2.1,15.63-5.34c4.96-3.43,9.72-10.68,9.72-21.35,0-8.58-1.91-15.06-7.82-21.54-5.53-6.29-13.15-9.72-20.21-9.72Z"/><path class="cls-3" d="M168.29,184.27l1.33,4c.19,.38,.38,.57,.76,.57,7.05-.19,29.74-1.33,37.75-1.91,1.33,0,1.53-.19,1.91-2.1l.95-3.05c.19-.76,0-1.14-1.33-1.14-5.15,0-7.44-.19-11.44-.38-2.08-.14-3.26-.39-3.74-6.78h-13.38c-.64,4.05-2.3,9.91-12.81,10.79Z"/><path class="cls-2" d="M242.07,72.35c-5.72-5.34-13.73-8.01-20.21-8.01-2.29,0-18.3,6.1-27.64,9.91v-2.53l-12.78,10.53h0c.38,2.11,1.33,12.4,1.33,24.79v21.93c0,28.41-1.14,39.85-1.53,43.47-.05,.33-.1,.68-.16,1.03h13.38c-.18-2.38-.26-5.6-.26-10,0-5.72,.19-20.21,.57-22.69,.19-1.14,1.33-2.1,1.52-1.91,3.05,.95,8.58,2.1,15.06,2.1,1.33,0,3.62,0,5.53-.76,10.49-4,20.97-10.49,24.02-13.34,6.86-5.91,12.77-16.78,12.77-27.45,0-8.39-2.67-19.07-11.63-27.07Zm-10.1,54.15c-4.38,3.24-9.34,5.34-15.63,5.34s-13.15-1.53-18.49-5.15c-1.72-1.14-2.1-1.91-2.29-3.24-.95-8.39-1.72-16.02-1.72-26.69v-11.82c0-2.29,0-3.81,.57-4.19,3.81-3.43,12.77-6.86,19.26-6.86,7.05,0,14.68,3.43,20.21,9.72,5.91,6.48,7.82,12.96,7.82,21.54,0,10.68-4.77,17.92-9.72,21.35Z"/><path class="cls-3" d="M194.22,61.11c0-.76,0-.95-.76-1.14-.95-.19-1.53-.19-3.43,1.14-5.15,3.81-13.35,9.34-18.68,14.3,.76,3.43,1.91,3.81,2.67,3.81,6.47,0,7.05,.95,7.43,3.04l12.78-10.53v-10.62Z"/></g></svg>