<svg xmlns="http://www.w3.org/2000/svg" id="Layer_1" viewBox="0 0 260 260" width="260" height="260"><defs><style>.cls-1{fill:#ededee}.cls-2{fill:#b3b3b3}.cls-3{fill:#2997ff}.cls-4,.cls-5{fill:none;stroke:#2997ff;stroke-width:2px}.cls-4{stroke-linecap:round;stroke-linejoin:round}.cls-5{stroke-miterlimit:10}</style></defs><path d="M27.63 231.34l-1.21 1.4c-.72-.58-1.46-.88-2.3-.88-1.73 0-3.06 1.26-3.06 4.63s1.3 4.61 3.06 4.61c1.08 0 1.82-.47 2.54-1.01l1.12 1.4c-.76.77-2.05 1.51-3.75 1.51-3.22 0-5.47-2.29-5.47-6.52s2.38-6.46 5.44-6.46c1.58 0 2.61.47 3.64 1.31zm8.66 11.39h-2l-.13-1.33c-.7 1.08-1.6 1.6-2.92 1.6-1.73 0-2.65-1.12-2.65-2.95v-6.84h2.3v6.55c0 1.12.36 1.49 1.15 1.49s1.44-.52 1.93-1.35v-6.7h2.3v9.52zm10.8-4.79c0 2.92-1.35 5.06-3.76 5.06-.97 0-1.8-.34-2.39-1.04v4.45l-2.3.25v-13.45h2.02l.13 1.17c.76-.99 1.76-1.44 2.79-1.44 2.48 0 3.53 1.96 3.53 5.01zm-2.41.02c0-2.41-.65-3.29-1.8-3.29-.81 0-1.49.56-1.94 1.3v4.29c.45.67 1.03.99 1.75.99 1.26 0 2-.97 2-3.28zm12.65-.02c0 2.92-1.35 5.06-3.76 5.06-.97 0-1.8-.34-2.39-1.04v4.45l-2.3.25v-13.45h2.02l.13 1.17c.76-.99 1.76-1.44 2.79-1.44 2.48 0 3.53 1.96 3.53 5.01zm-2.41.02c0-2.41-.65-3.29-1.8-3.29-.81 0-1.49.56-1.94 1.3v4.29c.45.67 1.03.99 1.75.99 1.26 0 2-.97 2-3.28zm11.99.72h-5.98c.18 1.94 1.08 2.57 2.34 2.57.85 0 1.55-.27 2.38-.85l.95 1.31c-.94.76-2.09 1.28-3.53 1.28-2.95 0-4.54-1.96-4.54-4.97s1.53-5.1 4.23-5.1 4.2 1.8 4.2 4.81c0 .31-.04.68-.05.94zm-2.23-1.6c0-1.57-.56-2.5-1.85-2.5-1.08 0-1.76.72-1.89 2.61h3.75v-.11zm11.91-7.69v13.34h-2.03l-.16-1.21c-.58.86-1.49 1.48-2.72 1.48-2.38 0-3.62-2-3.62-5.02s1.48-5.04 3.83-5.04c1.01 0 1.8.43 2.39 1.03v-4.83l2.3.25zm-2.3 10.64v-4.36c-.5-.61-1.04-1.01-1.82-1.01-1.19 0-1.98 1.01-1.98 3.29 0 2.45.7 3.29 1.84 3.29.85 0 1.42-.41 1.96-1.22zm15.21-5.96l-.9 1.35c-.79-.5-1.55-.77-2.39-.77-.92 0-1.44.38-1.44.95 0 .63.38.92 2 1.37 1.94.52 3.04 1.31 3.04 3.01 0 1.98-1.84 3.02-4.02 3.02-1.64 0-2.92-.56-3.8-1.35l1.15-1.3c.74.56 1.62.94 2.59.94 1.03 0 1.69-.43 1.69-1.15 0-.79-.38-1.04-2.16-1.55-1.96-.54-2.83-1.48-2.83-2.88 0-1.58 1.46-2.77 3.67-2.77 1.37 0 2.48.43 3.38 1.13zm9.54 4.61h-5.98c.18 1.94 1.08 2.57 2.34 2.57.85 0 1.55-.27 2.38-.85l.95 1.31c-.94.76-2.09 1.28-3.53 1.28-2.95 0-4.54-1.96-4.54-4.97s1.53-5.1 4.23-5.1 4.2 1.8 4.2 4.81c0 .31-.04.68-.05.94zm-2.23-1.6c0-1.57-.56-2.5-1.85-2.5-1.08 0-1.76.72-1.89 2.61h3.75v-.11zm9.61-4l-.4 2.23c-.29-.07-.5-.11-.85-.11-1.15 0-1.75.85-2.11 2.45v5.08h-2.3v-9.52h2l.22 1.87c.45-1.37 1.37-2.12 2.48-2.12.34 0 .65.04.95.13zm3.63-3.29c0 .77-.59 1.39-1.46 1.39s-1.44-.61-1.44-1.39.59-1.4 1.44-1.4 1.46.61 1.46 1.4zm-.29 12.95h-2.3v-9.52h2.3v9.52zm4.95-10.54v1.01H117l-.25 1.66h-2.03v7.87h-2.3v-7.87h-1.55v-1.66h1.55v-1.04c0-1.73 1.15-3.02 3.35-3.02.95 0 1.73.22 2.47.56l-.67 1.55a3.71 3.71 0 0 0-1.57-.36c-.94 0-1.28.41-1.28 1.31z" class="cls-3"/><path d="M188.02 181.66l-9.39 9.38" class="cls-4"/><path d="M198.76 177.4c0 2.74-2.18 3.58-5.2 3.58h-3.75v-12.44h3.26c3.21 0 5.15.9 5.15 3.17 0 1.55-1.12 2.43-2.3 2.68 1.42.27 2.84.94 2.84 3.01zm-6.57-7.11v3.37h1.46c1.3 0 2.14-.58 2.14-1.75 0-1.26-.86-1.62-2.48-1.62h-1.12zm4.09 7.02c0-1.49-1.06-2-2.45-2h-1.64v3.89h1.39c1.57 0 2.7-.32 2.7-1.89zm9.75-5.98l-.4 2.23c-.29-.07-.5-.11-.85-.11-1.15 0-1.75.85-2.11 2.45v5.08h-2.3v-9.52h2l.22 1.87c.45-1.37 1.37-2.12 2.49-2.12.34 0 .65.04.95.13zm8.37 8.35l-.49 1.53c-1.06-.09-1.75-.45-2.11-1.39-.68 1.01-1.71 1.42-2.86 1.42-1.89 0-3.06-1.21-3.06-2.93 0-2.07 1.55-3.19 4.32-3.19h1.21v-.54c0-1.24-.56-1.66-1.78-1.66-.65 0-1.57.18-2.54.5l-.52-1.57c1.17-.45 2.38-.68 3.44-.68 2.56 0 3.67 1.17 3.67 3.28v4c0 .77.25 1.04.72 1.22zm-2.99-1.28v-1.93h-.95c-1.49 0-2.23.54-2.23 1.66 0 .92.47 1.44 1.35 1.44.79 0 1.41-.41 1.84-1.17zm11.63-6.1l-1.03 1.39c-.63-.47-1.21-.68-1.93-.68-1.33 0-2.14.97-2.14 3.26s.85 3.11 2.14 3.11c.72 0 1.22-.23 1.93-.68l1.03 1.46c-.86.7-1.85 1.1-3.08 1.1-2.75 0-4.46-1.91-4.46-4.95s1.71-5.11 4.45-5.11c1.24 0 2.2.34 3.1 1.12zm3.58 8.68h-2.3v-13.34l2.3-.25v13.59zm2.54-5.33l3.47 5.33h-2.65l-3.28-5.2 3.19-4.32h2.43l-3.17 4.2zm12.03 1.28h-5.98c.18 1.94 1.08 2.57 2.34 2.57.85 0 1.55-.27 2.38-.85l.95 1.31c-.94.76-2.09 1.28-3.53 1.28-2.95 0-4.54-1.96-4.54-4.97s1.53-5.1 4.23-5.1 4.2 1.8 4.2 4.81c0 .31-.04.68-.05.94zm-2.23-1.6c0-1.57-.56-2.5-1.85-2.5-1.08 0-1.76.72-1.89 2.61h3.75v-.11zm9.44 5.2c-.68.49-1.55.72-2.39.72-1.87-.02-2.86-1.08-2.86-3.11v-5.02h-1.49v-1.66h1.49v-2.11l2.3-.27v2.38h2.21l-.23 1.66h-1.98v4.97c0 .94.31 1.31 1.01 1.31.36 0 .72-.11 1.13-.34l.81 1.48z" class="cls-3"/><path d="M134.15 227l-15.09 15.08" class="cls-4"/><path d="M111.95 50.33H78.09c3.65 9.79 7.59 20.26 12.06 31.88.96 2.4 0 6.73-2.41 6.73-9.25.32-18.74.85-31.22 1.17v18.84c12.44-.19 25.3-.3 38.44-.3 3.85 0 6.73 4.33 7.69 6.25 4.86 11.98 12.98 32.66 18.8 47.55h37.48c-10.34-24.29-31.98-74.41-46.99-112.12z" class="cls-1"/><path d="M207 209.15c-27.41-4.81-33.66-12.98-42.79-34.14-.92-2.31-2.77-6.68-5.27-12.55h-37.48c2.82 7.23 5.11 13.09 6.21 15.92 7.21 21.63 3.85 25-22.12 32.21-.48 1.44.48 9.62 1.92 12.5.48.96 1.44 1.44 3.37 1.44 3.85 0 15.39-3.37 30.77-3.37s25.48 1.44 62.51 1.92c1.44-1.93 4.33-13.46 2.89-13.94z" class="cls-2"/><path d="M110.37 224.23c3.85 0 15.39-3.37 30.77-3.37 12.58 0 21.23.91 42.73 1.52M207 209.15c-27.41-4.81-33.66-12.98-42.79-34.14-.92-2.31-2.77-6.68-5.27-12.55" class="cls-5"/></svg>