<?xml version="1.0" encoding="UTF-8"?><svg id="Layer_1" xmlns="http://www.w3.org/2000/svg" viewBox="0 0 431.37 200"><defs><style>.cls-1{fill:#ededee;}.cls-2{fill:#b3b3b3;}.cls-3{fill:#2997ff;}.cls-4{stroke-linecap:round;stroke-linejoin:round;}.cls-4,.cls-5{fill:none;stroke:#2997ff;stroke-width:2px;}.cls-5{stroke-miterlimit:10;}</style></defs><g><path class="cls-3" d="M17.76,176.27l-1.21,1.4c-.72-.58-1.46-.88-2.3-.88-1.73,0-3.06,1.26-3.06,4.63s1.3,4.61,3.06,4.61c1.08,0,1.82-.47,2.54-1.01l1.12,1.4c-.76,.77-2.05,1.51-3.75,1.51-3.22,0-5.47-2.29-5.47-6.52s2.38-6.46,5.44-6.46c1.58,0,2.61,.47,3.64,1.31Z"/><path class="cls-3" d="M26.42,187.67h-2l-.13-1.33c-.7,1.08-1.6,1.6-2.92,1.6-1.73,0-2.65-1.12-2.65-2.95v-6.84h2.3v6.55c0,1.12,.36,1.49,1.15,1.49s1.44-.52,1.93-1.35v-6.7h2.3v9.52Z"/><path class="cls-3" d="M37.22,182.88c0,2.92-1.35,5.06-3.76,5.06-.97,0-1.8-.34-2.39-1.04v4.45l-2.3,.25v-13.45h2.02l.13,1.17c.76-.99,1.76-1.44,2.79-1.44,2.48,0,3.53,1.96,3.53,5.01Zm-2.41,.02c0-2.41-.65-3.29-1.8-3.29-.81,0-1.49,.56-1.94,1.3v4.29c.45,.67,1.03,.99,1.75,.99,1.26,0,2-.97,2-3.28Z"/><path class="cls-3" d="M47.46,182.88c0,2.92-1.35,5.06-3.76,5.06-.97,0-1.8-.34-2.39-1.04v4.45l-2.3,.25v-13.45h2.02l.13,1.17c.76-.99,1.76-1.44,2.79-1.44,2.48,0,3.53,1.96,3.53,5.01Zm-2.41,.02c0-2.41-.65-3.29-1.8-3.29-.81,0-1.49,.56-1.94,1.3v4.29c.45,.67,1.03,.99,1.75,.99,1.26,0,2-.97,2-3.28Z"/><path class="cls-3" d="M57.04,183.62h-5.98c.18,1.94,1.08,2.57,2.34,2.57,.85,0,1.55-.27,2.38-.85l.95,1.31c-.94,.76-2.09,1.28-3.53,1.28-2.95,0-4.54-1.96-4.54-4.97s1.53-5.1,4.23-5.1,4.2,1.8,4.2,4.81c0,.31-.04,.68-.05,.94Zm-2.23-1.6c0-1.57-.56-2.5-1.85-2.5-1.08,0-1.76,.72-1.89,2.61h3.75v-.11Z"/><path class="cls-3" d="M66.72,174.33v13.34h-2.03l-.16-1.21c-.58,.86-1.49,1.48-2.72,1.48-2.38,0-3.62-2-3.62-5.02s1.48-5.04,3.83-5.04c1.01,0,1.8,.43,2.39,1.03v-4.83l2.3,.25Zm-2.3,10.64v-4.36c-.5-.61-1.04-1.01-1.82-1.01-1.19,0-1.98,1.01-1.98,3.29,0,2.45,.7,3.29,1.84,3.29,.85,0,1.42-.41,1.96-1.22Z"/><path class="cls-3" d="M79.63,179.01l-.9,1.35c-.79-.5-1.55-.77-2.39-.77-.92,0-1.44,.38-1.44,.95,0,.63,.38,.92,2,1.37,1.94,.52,3.04,1.31,3.04,3.01,0,1.98-1.84,3.02-4.02,3.02-1.64,0-2.92-.56-3.8-1.35l1.15-1.3c.74,.56,1.62,.94,2.59,.94,1.03,0,1.69-.43,1.69-1.15,0-.79-.38-1.04-2.16-1.55-1.96-.54-2.83-1.48-2.83-2.88,0-1.58,1.46-2.77,3.67-2.77,1.37,0,2.48,.43,3.39,1.13Z"/><path class="cls-3" d="M89.17,183.62h-5.98c.18,1.94,1.08,2.57,2.34,2.57,.85,0,1.55-.27,2.38-.85l.95,1.31c-.94,.76-2.09,1.28-3.53,1.28-2.95,0-4.54-1.96-4.54-4.97s1.53-5.1,4.23-5.1,4.2,1.8,4.2,4.81c0,.31-.04,.68-.05,.94Zm-2.23-1.6c0-1.57-.56-2.5-1.85-2.5-1.08,0-1.76,.72-1.89,2.61h3.75v-.11Z"/><path class="cls-3" d="M96.55,178.02l-.4,2.23c-.29-.07-.5-.11-.85-.11-1.15,0-1.75,.85-2.11,2.45v5.08h-2.3v-9.52h2l.22,1.87c.45-1.37,1.37-2.12,2.48-2.12,.34,0,.65,.04,.95,.13Z"/><path class="cls-3" d="M100.18,174.72c0,.77-.59,1.39-1.46,1.39s-1.44-.61-1.44-1.39,.59-1.4,1.44-1.4,1.46,.61,1.46,1.4Zm-.29,12.95h-2.3v-9.52h2.3v9.52Z"/><path class="cls-3" d="M104.84,177.14v1.01h2.29l-.25,1.66h-2.03v7.87h-2.3v-7.87h-1.55v-1.66h1.55v-1.04c0-1.73,1.15-3.02,3.35-3.02,.95,0,1.73,.22,2.47,.56l-.67,1.55c-.58-.27-1.12-.36-1.57-.36-.94,0-1.28,.41-1.28,1.31Z"/></g><line class="cls-4" x1="113.71" y1="123.41" x2="106.2" y2="130.92"/><g><path class="cls-3" d="M124.39,119.28c0,2.74-2.18,3.58-5.2,3.58h-3.75v-12.44h3.26c3.21,0,5.15,.9,5.15,3.17,0,1.55-1.12,2.43-2.3,2.68,1.42,.27,2.84,.94,2.84,3.01Zm-6.57-7.11v3.37h1.46c1.3,0,2.14-.58,2.14-1.75,0-1.26-.86-1.62-2.49-1.62h-1.12Zm4.09,7.02c0-1.49-1.06-2-2.45-2h-1.64v3.89h1.39c1.57,0,2.7-.32,2.7-1.89Z"/><path class="cls-3" d="M131.66,113.21l-.4,2.23c-.29-.07-.5-.11-.85-.11-1.15,0-1.75,.85-2.11,2.45v5.08h-2.3v-9.52h2l.22,1.87c.45-1.37,1.37-2.12,2.48-2.12,.34,0,.65,.04,.95,.13Z"/><path class="cls-3" d="M140.03,121.57l-.49,1.53c-1.06-.09-1.75-.45-2.11-1.39-.68,1.01-1.71,1.42-2.86,1.42-1.89,0-3.06-1.21-3.06-2.94,0-2.07,1.55-3.19,4.32-3.19h1.21v-.54c0-1.24-.56-1.66-1.78-1.66-.65,0-1.57,.18-2.54,.5l-.52-1.57c1.17-.45,2.38-.68,3.44-.68,2.56,0,3.67,1.17,3.67,3.28v4c0,.77,.25,1.04,.72,1.22Zm-2.99-1.28v-1.93h-.95c-1.49,0-2.23,.54-2.23,1.66,0,.92,.47,1.44,1.35,1.44,.79,0,1.4-.41,1.84-1.17Z"/><path class="cls-3" d="M148.67,114.19l-1.03,1.39c-.63-.47-1.21-.68-1.93-.68-1.33,0-2.14,.97-2.14,3.26s.85,3.11,2.14,3.11c.72,0,1.22-.23,1.93-.68l1.03,1.46c-.86,.7-1.85,1.1-3.08,1.1-2.75,0-4.46-1.91-4.46-4.95s1.71-5.11,4.45-5.11c1.24,0,2.2,.34,3.1,1.12Z"/><path class="cls-3" d="M152.25,122.87h-2.3v-13.34l2.3-.25v13.59Zm2.54-5.33l3.48,5.33h-2.65l-3.28-5.2,3.19-4.32h2.43l-3.17,4.2Z"/><path class="cls-3" d="M166.82,118.81h-5.98c.18,1.94,1.08,2.57,2.34,2.57,.85,0,1.55-.27,2.38-.85l.95,1.31c-.94,.76-2.09,1.28-3.53,1.28-2.95,0-4.54-1.96-4.54-4.97s1.53-5.1,4.23-5.1,4.2,1.8,4.2,4.81c0,.31-.04,.68-.05,.94Zm-2.23-1.6c0-1.57-.56-2.5-1.85-2.5-1.08,0-1.76,.72-1.89,2.61h3.75v-.11Z"/><path class="cls-3" d="M174.03,122.42c-.68,.49-1.55,.72-2.39,.72-1.87-.02-2.86-1.08-2.86-3.11v-5.02h-1.49v-1.66h1.49v-2.11l2.3-.27v2.38h2.21l-.23,1.66h-1.98v4.97c0,.94,.31,1.31,1.01,1.31,.36,0,.72-.11,1.13-.34l.81,1.48Z"/></g><line class="cls-4" x1="339.39" y1="118.51" x2="330" y2="127.9"/><g><path class="cls-3" d="M352.37,117.83h-3.08l-4.27-10.06c.13,1.1,.32,2.68,.32,4.99v5.08h-2.16v-12.44h3.01l4.34,10.08c-.11-.68-.32-2.48-.32-4.25v-5.83h2.16v12.44Z"/><path class="cls-3" d="M363.2,113.06c0,3.01-1.67,5.04-4.48,5.04s-4.48-1.91-4.48-5.04,1.67-5.02,4.5-5.02,4.47,1.91,4.47,5.02Zm-6.54,0c0,2.29,.7,3.29,2.05,3.29s2.05-1.03,2.05-3.29-.7-3.28-2.04-3.28-2.07,1.03-2.07,3.28Z"/><path class="cls-3" d="M377.57,113.06c0,2.97-1.42,5.04-3.76,5.04-1.04,0-1.91-.47-2.52-1.24l-.14,.97h-2.04v-13.34l2.3-.25v5.15c.61-.85,1.53-1.35,2.63-1.35,2.21,0,3.53,1.84,3.53,5.02Zm-2.41,0c0-2.54-.76-3.29-1.85-3.29-.83,0-1.44,.56-1.89,1.3v4.21c.41,.68,1.04,1.1,1.76,1.1,1.17,0,1.98-.92,1.98-3.31Z"/><path class="cls-3" d="M385,108.18l-.4,2.23c-.29-.07-.5-.11-.85-.11-1.15,0-1.75,.85-2.11,2.45v5.08h-2.3v-9.52h2l.22,1.87c.45-1.37,1.37-2.12,2.49-2.12,.34,0,.65,.04,.95,.13Z"/><path class="cls-3" d="M393.37,116.54l-.49,1.53c-1.06-.09-1.75-.45-2.11-1.39-.68,1.01-1.71,1.42-2.86,1.42-1.89,0-3.06-1.21-3.06-2.93,0-2.07,1.55-3.19,4.32-3.19h1.21v-.54c0-1.24-.56-1.66-1.78-1.66-.65,0-1.57,.18-2.54,.5l-.52-1.57c1.17-.45,2.38-.68,3.44-.68,2.56,0,3.67,1.17,3.67,3.28v4c0,.77,.25,1.04,.72,1.22Zm-2.99-1.28v-1.93h-.95c-1.49,0-2.23,.54-2.23,1.66,0,.92,.47,1.44,1.35,1.44,.79,0,1.41-.41,1.84-1.17Z"/><path class="cls-3" d="M402.01,109.15l-1.03,1.39c-.63-.47-1.21-.68-1.93-.68-1.33,0-2.14,.97-2.14,3.26s.85,3.11,2.14,3.11c.72,0,1.22-.23,1.93-.68l1.03,1.46c-.86,.7-1.85,1.1-3.08,1.1-2.75,0-4.46-1.91-4.46-4.95s1.71-5.11,4.45-5.11c1.24,0,2.2,.34,3.1,1.12Z"/><path class="cls-3" d="M405.59,117.83h-2.3v-13.34l2.3-.25v13.59Zm2.54-5.33l3.48,5.33h-2.65l-3.28-5.2,3.19-4.32h2.43l-3.17,4.2Z"/><path class="cls-3" d="M420.16,113.78h-5.98c.18,1.94,1.08,2.57,2.34,2.57,.85,0,1.55-.27,2.38-.85l.95,1.31c-.94,.76-2.09,1.28-3.53,1.28-2.95,0-4.54-1.96-4.54-4.97s1.53-5.1,4.23-5.1,4.2,1.8,4.2,4.81c0,.31-.04,.68-.05,.94Zm-2.23-1.6c0-1.57-.56-2.5-1.85-2.5-1.08,0-1.76,.72-1.89,2.61h3.75v-.11Z"/><path class="cls-3" d="M427.37,117.38c-.68,.49-1.55,.72-2.39,.72-1.87-.02-2.86-1.08-2.86-3.11v-5.02h-1.49v-1.66h1.49v-2.11l2.3-.27v2.38h2.21l-.23,1.66h-1.98v4.97c0,.94,.31,1.31,1.01,1.31,.36,0,.72-.11,1.13-.34l.81,1.48Z"/></g><line class="cls-4" x1="70.62" y1="159.68" x2="58.55" y2="171.75"/><g><path class="cls-3" d="M245.5,187.67h-3.08l-4.27-10.06c.13,1.1,.32,2.68,.32,4.99v5.08h-2.16v-12.44h3.01l4.34,10.08c-.11-.68-.32-2.48-.32-4.25v-5.83h2.16v12.44Z"/><path class="cls-3" d="M256.33,182.9c0,3.01-1.67,5.04-4.48,5.04s-4.48-1.91-4.48-5.04,1.67-5.02,4.5-5.02,4.46,1.91,4.46,5.02Zm-6.54,0c0,2.29,.7,3.29,2.05,3.29s2.05-1.03,2.05-3.29-.7-3.28-2.03-3.28-2.07,1.03-2.07,3.28Z"/><path class="cls-3" d="M263.58,187.22c-.68,.49-1.55,.72-2.39,.72-1.87-.02-2.86-1.08-2.86-3.11v-5.02h-1.49v-1.66h1.49v-2.11l2.3-.27v2.38h2.21l-.23,1.66h-1.98v4.97c0,.94,.31,1.31,1.01,1.31,.36,0,.72-.11,1.13-.34l.81,1.48Z"/><path class="cls-3" d="M275.59,178.99l-1.03,1.39c-.63-.47-1.21-.68-1.93-.68-1.33,0-2.14,.97-2.14,3.26s.85,3.11,2.14,3.11c.72,0,1.22-.23,1.93-.68l1.03,1.46c-.86,.7-1.85,1.1-3.08,1.1-2.75,0-4.47-1.91-4.47-4.95s1.71-5.11,4.45-5.11c1.24,0,2.2,.34,3.1,1.12Z"/><path class="cls-3" d="M284.27,187.67h-2l-.13-1.33c-.7,1.08-1.6,1.6-2.92,1.6-1.73,0-2.65-1.12-2.65-2.95v-6.84h2.3v6.55c0,1.12,.36,1.49,1.15,1.49s1.44-.52,1.93-1.35v-6.7h2.3v9.52Z"/><path class="cls-3" d="M295.07,182.88c0,2.92-1.35,5.06-3.76,5.06-.97,0-1.8-.34-2.39-1.04v4.45l-2.3,.25v-13.45h2.02l.13,1.17c.76-.99,1.76-1.44,2.79-1.44,2.49,0,3.53,1.96,3.53,5.01Zm-2.41,.02c0-2.41-.65-3.29-1.8-3.29-.81,0-1.49,.56-1.94,1.3v4.29c.45,.67,1.03,.99,1.75,.99,1.26,0,2-.97,2-3.28Z"/><path class="cls-3" d="M305.31,182.88c0,2.92-1.35,5.06-3.76,5.06-.97,0-1.8-.34-2.39-1.04v4.45l-2.3,.25v-13.45h2.02l.13,1.17c.76-.99,1.76-1.44,2.79-1.44,2.48,0,3.53,1.96,3.53,5.01Zm-2.41,.02c0-2.41-.65-3.29-1.8-3.29-.81,0-1.49,.56-1.94,1.3v4.29c.45,.67,1.03,.99,1.75,.99,1.26,0,2-.97,2-3.28Z"/><path class="cls-3" d="M314.89,183.62h-5.98c.18,1.94,1.08,2.57,2.34,2.57,.85,0,1.55-.27,2.38-.85l.95,1.31c-.94,.76-2.09,1.28-3.53,1.28-2.95,0-4.54-1.96-4.54-4.97s1.53-5.1,4.23-5.1,4.2,1.8,4.2,4.81c0,.31-.04,.68-.05,.94Zm-2.23-1.6c0-1.57-.56-2.5-1.85-2.5-1.08,0-1.76,.72-1.89,2.61h3.75v-.11Z"/><path class="cls-3" d="M324.57,174.33v13.34h-2.03l-.16-1.21c-.58,.86-1.49,1.48-2.72,1.48-2.38,0-3.62-2-3.62-5.02s1.48-5.04,3.83-5.04c1.01,0,1.8,.43,2.39,1.03v-4.83l2.3,.25Zm-2.3,10.64v-4.36c-.5-.61-1.04-1.01-1.82-1.01-1.19,0-1.98,1.01-1.98,3.29,0,2.45,.7,3.29,1.84,3.29,.85,0,1.42-.41,1.96-1.22Z"/></g><line class="cls-4" x1="289.4" y1="159.68" x2="277.34" y2="171.75"/><path class="cls-1" d="M52.86,18.35H25.77c2.92,7.83,6.08,16.21,9.65,25.5,.77,1.92,0,5.38-1.92,5.38-7.4,.25-14.99,.68-24.98,.94v15.07c9.95-.15,20.24-.24,30.75-.24,3.08,0,5.39,3.46,6.15,5,3.89,9.58,10.38,26.13,15.04,38.04h29.99c-8.27-19.44-25.58-59.53-37.59-89.7Z"/><path class="cls-2" d="M128.9,145.4c-21.93-3.85-26.93-10.39-34.24-27.31-.74-1.85-2.21-5.35-4.21-10.04h-29.99c2.26,5.78,4.09,10.47,4.97,12.74,5.77,17.31,3.08,20-17.69,25.77-.39,1.15,.38,7.69,1.54,10,.39,.77,1.15,1.15,2.69,1.15,3.08,0,12.31-2.69,24.62-2.69s20.39,1.16,50.01,1.54c1.15-1.54,3.46-10.77,2.31-11.15Z"/><path class="cls-5" d="M51.6,157.47c3.08,0,12.31-2.69,24.62-2.69,10.06,0,16.99,.73,34.19,1.22"/><path class="cls-5" d="M128.9,145.4c-21.93-3.85-26.93-10.39-34.24-27.31-.74-1.85-2.21-5.35-4.21-10.04"/><g><polygon class="cls-1" points="276.63 19.48 250.9 19.48 265.57 54.78 231.43 54.78 231.43 75.31 272.88 75.31 280.34 92.54 308.2 92.54 276.63 19.48"/><polygon class="cls-2" points="325.41 132.36 308.2 92.54 280.34 92.54 297.58 132.36 265.22 132.36 265.22 155.32 356.37 155.32 356.37 132.36 325.41 132.36"/></g></svg>