<svg xmlns="http://www.w3.org/2000/svg" id="Layer_1" viewBox="0 0 260 260" width="260" height="260"><defs><style>.cls-1{fill:#b3b3b3}.cls-2{fill:#2997ff}.cls-3,.cls-4{fill:none;stroke:#2997ff;stroke-width:2px}.cls-3{stroke-linecap:round;stroke-linejoin:round}.cls-4{stroke-miterlimit:10}</style></defs><path d="M105.26 137.79h3.54c4.13 20.37 14.02 30.85 29.38 30.85 12.4 0 21.7-8.12 21.7-19.19 0-5.61-2.66-10.78-7.53-14.62-3.69-2.95-6.2-4.28-19.19-9.89-10.19-4.28-16.39-7.97-20.08-11.96-4.43-4.87-7.09-11.66-7.09-18.31 0-14.17 11.07-24.51 26.13-24.51 9.3 0 15.5 2.8 22.73 10.48 2.21-2.66 3.54-5.76 3.84-8.71h3.1v25.83h-3.1c-3.99-15.21-13.58-24.21-26.28-24.21-9.89 0-16.83 6.2-16.83 15.21 0 4.87 2.21 9.01 6.64 12.84 3.25 2.8 7.38 5.17 16.83 9.3 15.21 6.79 19.04 8.86 22.88 12.55 5.46 5.02 8.42 12.11 8.42 20.23 0 16.98-12.4 28.49-30.85 28.49-10.78 0-19.93-4.13-27.02-12.4-1.62 2.36-2.8 5.61-3.69 9.6h-3.54v-31.59z" class="cls-1"/><circle cx="161.43" cy="71.33" r="7.86" class="cls-4"/><path d="M174.57 63.46h-13.28" class="cls-3"/><path d="M186.02 52.68l-1.17 1.35c-.9-.74-1.76-1.06-2.79-1.06-1.12 0-1.93.5-1.93 1.48 0 .9.49 1.3 2.56 1.94 2.18.68 3.69 1.58 3.69 3.93s-1.75 3.82-4.72 3.82c-1.98 0-3.46-.7-4.48-1.71l1.22-1.37c.92.77 1.91 1.24 3.21 1.24s2.29-.65 2.29-1.85c0-1.04-.52-1.51-2.47-2.11-2.61-.81-3.75-1.85-3.75-3.75 0-2.07 1.78-3.44 4.23-3.44 1.82 0 3.03.54 4.11 1.53zm10.39 6.39c0 2.92-1.35 5.06-3.76 5.06-.97 0-1.8-.34-2.39-1.04v4.45l-2.3.25V54.34h2.02l.13 1.17c.76-.99 1.76-1.44 2.79-1.44 2.49 0 3.53 1.96 3.53 5.01zm-2.41.02c0-2.41-.65-3.29-1.8-3.29-.81 0-1.49.56-1.94 1.3v4.29c.45.67 1.03.99 1.75.99 1.26 0 2-.97 2-3.28zm11.77 4.77h-2l-.13-1.33c-.7 1.08-1.6 1.6-2.92 1.6-1.73 0-2.65-1.12-2.65-2.95v-6.84h2.3v6.55c0 1.12.36 1.49 1.15 1.49s1.44-.52 1.93-1.35v-6.7h2.3v9.52zm7.99-9.65l-.4 2.23c-.29-.07-.5-.11-.85-.11-1.15 0-1.75.85-2.11 2.45v5.08h-2.3v-9.52h2l.22 1.87c.45-1.37 1.37-2.12 2.49-2.12.34 0 .65.04.95.13zm-24.73 47.13c0 2.74-2.18 3.58-5.2 3.58h-3.75V92.48h3.26c3.21 0 5.15.9 5.15 3.17 0 1.55-1.12 2.43-2.3 2.68 1.42.27 2.84.94 2.84 3.01zm-6.57-7.11v3.37h1.46c1.3 0 2.14-.58 2.14-1.75 0-1.26-.86-1.62-2.48-1.62h-1.12zm4.09 7.02c0-1.49-1.06-2-2.45-2h-1.64v3.89h1.39c1.57 0 2.7-.32 2.7-1.89zm11.9-.38h-5.98c.18 1.94 1.08 2.57 2.34 2.57.85 0 1.55-.27 2.38-.85l.96 1.31c-.94.76-2.09 1.28-3.53 1.28-2.95 0-4.54-1.96-4.54-4.97s1.53-5.1 4.23-5.1 4.2 1.8 4.2 4.81c0 .31-.04.68-.05.94zm-2.23-1.6c0-1.57-.56-2.5-1.85-2.5-1.08 0-1.76.72-1.89 2.61h3.75v-.11zm11.57 4.36l-.49 1.53c-1.06-.09-1.75-.45-2.11-1.39-.68 1.01-1.71 1.42-2.86 1.42-1.89 0-3.06-1.21-3.06-2.93 0-2.07 1.55-3.19 4.32-3.19h1.21v-.54c0-1.24-.56-1.66-1.78-1.66-.65 0-1.57.18-2.54.5l-.52-1.57c1.17-.45 2.38-.68 3.44-.68 2.56 0 3.67 1.17 3.67 3.28v4c0 .77.25 1.04.72 1.22zm-2.99-1.28v-1.93h-.96c-1.49 0-2.23.54-2.23 1.66 0 .92.47 1.44 1.35 1.44.79 0 1.4-.41 1.84-1.17zm6.97 2.57h-2.3V91.58l2.3-.25v13.59zm2.54-5.33l3.47 5.33h-2.65l-3.28-5.2 3.19-4.32h2.43l-3.17 4.2z" class="cls-2"/><circle cx="163.36" cy="97.06" r="7.86" class="cls-4"/><path d="M176.5 104.92h-13.28" class="cls-3"/></svg>