<?xml version="1.0" encoding="UTF-8"?><svg id="Layer_1" xmlns="http://www.w3.org/2000/svg" viewBox="0 0 363.34 200"><defs><style>.cls-1{fill:#b3b3b3;}.cls-2{fill:#2997ff;}</style></defs><path class="cls-1" d="M241.59,122.56h4.68c5.46,26.91,18.53,40.76,38.81,40.76,16.38,0,28.67-10.73,28.67-25.35,0-7.41-3.51-14.24-9.95-19.31-4.88-3.9-8.19-5.66-25.35-13.07-13.46-5.65-21.65-10.53-26.52-15.8-5.85-6.44-9.36-15.41-9.36-24.18,0-18.72,14.63-32.37,34.52-32.37,12.29,0,20.48,3.71,30.03,13.85,2.92-3.51,4.68-7.61,5.07-11.51h4.09v34.13h-4.09c-5.27-20.09-17.94-31.98-34.71-31.98-13.07,0-22.23,8.19-22.23,20.09,0,6.44,2.92,11.9,8.78,16.97,4.29,3.71,9.75,6.83,22.23,12.29,20.09,8.97,25.16,11.7,30.23,16.58,7.21,6.63,11.12,15.99,11.12,26.72,0,22.43-16.38,37.64-40.76,37.64-14.24,0-26.33-5.46-35.69-16.38-2.15,3.12-3.71,7.41-4.88,12.68h-4.68v-41.73Z"/><g><path class="cls-2" d="M143.89,147.36l-1.17,1.35c-.9-.74-1.76-1.06-2.79-1.06-1.12,0-1.93,.5-1.93,1.48,0,.9,.49,1.3,2.56,1.94,2.18,.68,3.69,1.58,3.69,3.93s-1.75,3.82-4.72,3.82c-1.98,0-3.46-.7-4.48-1.71l1.22-1.37c.92,.77,1.91,1.24,3.21,1.24s2.29-.65,2.29-1.85c0-1.04-.52-1.51-2.47-2.11-2.61-.81-3.75-1.85-3.75-3.75,0-2.07,1.78-3.44,4.23-3.44,1.82,0,3.03,.54,4.11,1.53Z"/><path class="cls-2" d="M154.28,153.75c0,2.92-1.35,5.06-3.76,5.06-.97,0-1.8-.34-2.39-1.04v4.45l-2.3,.25v-13.45h2.02l.13,1.17c.76-.99,1.76-1.44,2.79-1.44,2.48,0,3.53,1.96,3.53,5.01Zm-2.41,.02c0-2.41-.65-3.29-1.8-3.29-.81,0-1.49,.56-1.94,1.3v4.29c.45,.67,1.03,.99,1.75,.99,1.26,0,2-.97,2-3.28Z"/><path class="cls-2" d="M163.64,158.54h-2l-.13-1.33c-.7,1.08-1.6,1.6-2.92,1.6-1.73,0-2.65-1.12-2.65-2.95v-6.84h2.3v6.55c0,1.12,.36,1.49,1.15,1.49s1.44-.52,1.93-1.35v-6.7h2.3v9.52Z"/><path class="cls-2" d="M171.63,148.89l-.4,2.23c-.29-.07-.5-.11-.85-.11-1.15,0-1.75,.85-2.11,2.45v5.08h-2.3v-9.52h2l.22,1.87c.45-1.37,1.37-2.12,2.48-2.12,.34,0,.65,.04,.95,.13Z"/></g><g><path class="cls-2" d="M330.4,66.13c0,2.74-2.18,3.58-5.2,3.58h-3.75v-12.44h3.26c3.21,0,5.15,.9,5.15,3.17,0,1.55-1.12,2.43-2.3,2.68,1.42,.27,2.84,.94,2.84,3.01Zm-6.57-7.11v3.37h1.46c1.3,0,2.14-.58,2.14-1.75,0-1.26-.86-1.62-2.49-1.62h-1.12Zm4.09,7.02c0-1.49-1.06-2-2.45-2h-1.64v3.89h1.39c1.57,0,2.7-.32,2.7-1.89Z"/><path class="cls-2" d="M339.82,65.66h-5.98c.18,1.94,1.08,2.57,2.34,2.57,.85,0,1.55-.27,2.38-.85l.95,1.31c-.94,.76-2.09,1.28-3.53,1.28-2.95,0-4.54-1.96-4.54-4.97s1.53-5.1,4.23-5.1,4.2,1.8,4.2,4.81c0,.31-.04,.68-.05,.94Zm-2.23-1.6c0-1.57-.56-2.5-1.85-2.5-1.08,0-1.76,.72-1.89,2.61h3.75v-.11Z"/><path class="cls-2" d="M349.16,68.41l-.49,1.53c-1.06-.09-1.75-.45-2.11-1.39-.68,1.01-1.71,1.42-2.86,1.42-1.89,0-3.06-1.21-3.06-2.94,0-2.07,1.55-3.19,4.32-3.19h1.21v-.54c0-1.24-.56-1.66-1.78-1.66-.65,0-1.57,.18-2.54,.5l-.52-1.57c1.17-.45,2.38-.68,3.44-.68,2.56,0,3.67,1.17,3.67,3.28v4c0,.77,.25,1.04,.72,1.22Zm-2.99-1.28v-1.93h-.95c-1.49,0-2.23,.54-2.23,1.66,0,.92,.47,1.44,1.35,1.44,.79,0,1.4-.41,1.84-1.17Z"/><path class="cls-2" d="M353.14,69.71h-2.3v-13.34l2.3-.25v13.59Zm2.54-5.33l3.47,5.33h-2.65l-3.28-5.2,3.19-4.32h2.43l-3.17,4.2Z"/></g><path class="cls-1" d="M134.75,110.23c-1.95,0-4.1,.2-8,.98-4.88,1.17-6.25,4.1-6.25,8.59v29.47c0,2.54,1.37,3.32,6.64,4.49v4.1c-10.54,3.51-28.1,7.81-45.08,7.81-21.86,0-39.61-6.63-51.52-19.12-11.12-11.51-16.98-27.51-16.98-47.81s8.2-39.42,24.98-52.1c10.93-8.2,24.39-13.07,42.54-13.07,14.83,0,23.61,3.12,30.64,5.66,2.15-.98,4.88-2.93,6.25-3.9h4.29c.2,9.95,3.12,31.22,4.88,38.64l-5.46,1.56c-5.66-13.86-11.12-24-21.47-30.05-4.88-2.93-13.27-5.07-20.88-5.07-22.83,0-44.88,14.25-44.88,57.57,0,20.88,6.05,36.3,15.22,46.64,8.78,9.76,20.49,14.44,32.98,14.44,5.66,0,10.54-.78,13.86-2.34,3.12-1.37,5.46-3.32,5.46-9.17v-27.12c0-5.07-2.15-7.42-6.83-8.59s-8-1.37-13.46-1.76v-5.85h53.08v6.05Z"/><path class="cls-2" d="M116.88,160.86c3.86-.99,7.36-2.03,10.3-3.01v-4.1c-5.27-1.17-6.64-1.95-6.64-4.49v-.89h-3.66v12.48Z"/><path class="cls-2" d="M312.13,69.71h4.09v-20.97l-11.57,3.97c3.21,4.7,5.74,10.41,7.47,17Z"/></svg>