<svg xmlns="http://www.w3.org/2000/svg" id="Layer_1" viewBox="0 0 260 260" width="260" height="260"><defs><style>.cls-1{fill:#b3b3b3}.cls-2{fill:#2997ff}.cls-3{fill:none;stroke:#2997ff;stroke-linecap:round;stroke-linejoin:round;stroke-width:2px}</style></defs><path d="M98.93 177.88c7.98-.66 8.64-5.45 9.04-8.24.27-2.53 1.06-10.5 1.06-30.31v-15.29c0-8.64-.66-15.82-.93-17.28-.27-1.46-.66-2.13-5.18-2.13-.53 0-1.33-.27-1.86-2.66 3.72-3.46 9.44-7.31 13.03-9.97 1.33-.93 1.73-.93 2.39-.8.53.13.53.27.53.8v9.17c6.51-2.66 17.68-6.91 19.27-6.91 4.52 0 10.1 1.86 14.09 5.58 6.25 5.58 8.11 13.03 8.11 18.87 0 7.44-4.12 15.02-8.91 19.14-2.13 1.99-9.44 6.51-16.75 9.3-1.33.53-2.92.53-3.85.53-4.52 0-8.37-.8-10.5-1.46-.13-.13-.93.53-1.06 1.33-.27 1.73-.4 11.83-.4 15.82 0 11.3.8 11.56 2.79 11.7 2.79.13 4.39.27 7.98.27.93 0 1.06.27.93.8l-.66 2.13c-.27 1.33-.4 1.46-1.33 1.46-5.58.4-21.4 1.2-26.32 1.33-.27 0-.4-.13-.53-.4l-.93-2.79zm45.72-70.18c-3.85-4.39-9.17-6.78-14.09-6.78-4.52 0-10.77 2.39-13.42 4.79-.4.27-.4 1.33-.4 2.92v8.24c0 7.44.53 12.76 1.2 18.61.13.93.4 1.46 1.6 2.26 3.72 2.53 8.51 3.59 12.89 3.59s7.84-1.46 10.9-3.72c3.46-2.39 6.78-7.44 6.78-14.89 0-5.98-1.33-10.5-5.45-15.02z" class="cls-1"/><path d="M38.05 70.74h-4.12l-.77 2.88h-2.47l3.87-12.44h2.93l3.85 12.44h-2.52l-.77-2.88zm-.47-1.8L35.98 63l-1.58 5.94h3.19zm11.65-4l-1.03 1.39c-.63-.47-1.21-.68-1.93-.68-1.33 0-2.14.97-2.14 3.26s.85 3.11 2.14 3.11c.72 0 1.22-.23 1.93-.68l1.03 1.46c-.86.7-1.85 1.1-3.08 1.1-2.75 0-4.47-1.91-4.47-4.95s1.71-5.11 4.45-5.11c1.24 0 2.2.34 3.1 1.12zm8.68 8.68h-2l-.13-1.33c-.7 1.08-1.6 1.6-2.92 1.6-1.73 0-2.65-1.12-2.65-2.95V64.1h2.3v6.55c0 1.12.36 1.49 1.15 1.49s1.44-.52 1.93-1.35v-6.7h2.3v9.52zm7.83-.45c-.68.49-1.55.72-2.39.72-1.87-.02-2.86-1.08-2.86-3.11v-5.02H59V64.1h1.49v-2.11l2.3-.27v2.38H65l-.23 1.66h-1.98v4.97c0 .94.31 1.31 1.01 1.31.36 0 .72-.11 1.13-.34l.81 1.48zm8.38-3.6h-5.98c.18 1.94 1.08 2.57 2.34 2.57.85 0 1.55-.27 2.38-.85l.95 1.31c-.94.76-2.09 1.28-3.53 1.28-2.95 0-4.54-1.96-4.54-4.97s1.53-5.1 4.23-5.1 4.2 1.8 4.2 4.81c0 .31-.04.68-.05.94zm-2.23-1.6c0-1.57-.56-2.5-1.85-2.5-1.08 0-1.76.72-1.89 2.61h3.75v-.11zm14.53-3.01l-.9 1.35c-.79-.5-1.55-.77-2.39-.77-.92 0-1.44.38-1.44.95 0 .63.38.92 2 1.37 1.94.52 3.04 1.31 3.04 3.01 0 1.98-1.84 3.02-4.02 3.02-1.64 0-2.92-.56-3.8-1.35l1.15-1.3c.74.56 1.62.94 2.59.94 1.03 0 1.69-.43 1.69-1.15 0-.79-.38-1.04-2.16-1.55-1.96-.54-2.83-1.48-2.83-2.88 0-1.58 1.46-2.77 3.67-2.77 1.37 0 2.48.43 3.38 1.13zm9.54 4.61h-5.98c.18 1.94 1.08 2.57 2.34 2.57.85 0 1.55-.27 2.38-.85l.95 1.31c-.94.76-2.09 1.28-3.53 1.28-2.95 0-4.54-1.96-4.54-4.97s1.53-5.1 4.23-5.1 4.2 1.8 4.2 4.81c0 .31-.04.68-.05.94zm-2.23-1.6c0-1.57-.56-2.5-1.85-2.5-1.08 0-1.76.72-1.89 2.61h3.75v-.11zm9.61-4l-.4 2.23c-.29-.07-.5-.11-.85-.11-1.15 0-1.75.85-2.11 2.45v5.08h-2.3V64.1h2l.22 1.87c.45-1.37 1.37-2.12 2.48-2.12.34 0 .65.04.95.13zm3.63-3.3c0 .77-.59 1.39-1.46 1.39s-1.44-.61-1.44-1.39.59-1.4 1.44-1.4 1.46.61 1.46 1.4zm-.29 12.95h-2.3V64.1h2.3v9.52zm4.96-10.54v1.01h2.29l-.25 1.66h-2.03v7.87h-2.3v-7.87h-1.55v-1.66h1.55v-1.04c0-1.73 1.15-3.02 3.35-3.02.95 0 1.73.22 2.47.56l-.67 1.55a3.71 3.71 0 0 0-1.57-.36c-.94 0-1.28.41-1.28 1.31z" class="cls-2"/><path d="M91.38 79.36l15.09 15.09" class="cls-3"/></svg>