<?xml version="1.0" encoding="UTF-8"?><svg id="Layer_1" xmlns="http://www.w3.org/2000/svg" viewBox="0 0 440.76 200"><defs><style>.cls-1{fill:#b3b3b3;}.cls-2{fill:#2997ff;}</style></defs><g><path class="cls-2" d="M119.39,186.06c0,2.74-2.18,3.58-5.2,3.58h-3.75v-12.44h3.26c3.2,0,5.15,.9,5.15,3.17,0,1.55-1.12,2.43-2.3,2.68,1.42,.27,2.84,.94,2.84,3.01Zm-6.57-7.11v3.37h1.46c1.3,0,2.14-.58,2.14-1.75,0-1.26-.86-1.62-2.49-1.62h-1.12Zm4.09,7.02c0-1.49-1.06-2-2.45-2h-1.64v3.89h1.39c1.57,0,2.7-.32,2.7-1.89Z"/><path class="cls-2" d="M123.96,176.69c0,.77-.59,1.39-1.46,1.39s-1.44-.61-1.44-1.39,.59-1.4,1.44-1.4,1.46,.61,1.46,1.4Zm-.29,12.95h-2.3v-9.52h2.3v9.52Z"/><path class="cls-2" d="M126.27,187.46v-11.16l2.3-.25v11.34c0,.45,.14,.67,.54,.67,.2,0,.38-.04,.52-.09l.5,1.62c-.4,.18-.95,.32-1.55,.32-1.46,0-2.32-.88-2.32-2.45Z"/><path class="cls-2" d="M139.37,188.34l-.49,1.53c-1.06-.09-1.75-.45-2.11-1.39-.68,1.01-1.71,1.42-2.86,1.42-1.89,0-3.06-1.21-3.06-2.94,0-2.07,1.55-3.19,4.32-3.19h1.21v-.54c0-1.24-.56-1.66-1.78-1.66-.65,0-1.57,.18-2.54,.5l-.52-1.57c1.17-.45,2.38-.68,3.44-.68,2.56,0,3.67,1.17,3.67,3.28v4c0,.77,.25,1.04,.72,1.22Zm-2.99-1.28v-1.93h-.95c-1.49,0-2.23,.54-2.23,1.66,0,.92,.47,1.44,1.35,1.44,.79,0,1.4-.41,1.84-1.17Z"/><path class="cls-2" d="M146.9,189.19c-.68,.49-1.55,.72-2.39,.72-1.87-.02-2.86-1.08-2.86-3.12v-5.02h-1.49v-1.66h1.49v-2.11l2.3-.27v2.38h2.21l-.23,1.66h-1.98v4.97c0,.94,.31,1.31,1.01,1.31,.36,0,.72-.11,1.13-.34l.81,1.48Z"/><path class="cls-2" d="M155.64,185.59h-5.98c.18,1.94,1.08,2.57,2.34,2.57,.85,0,1.55-.27,2.38-.85l.95,1.31c-.94,.76-2.09,1.28-3.53,1.28-2.95,0-4.54-1.96-4.54-4.97s1.53-5.1,4.23-5.1,4.2,1.8,4.2,4.81c0,.31-.04,.68-.05,.94Zm-2.23-1.6c0-1.57-.56-2.5-1.85-2.5-1.08,0-1.76,.72-1.89,2.61h3.75v-.11Z"/><path class="cls-2" d="M163.38,179.99l-.4,2.23c-.29-.07-.5-.11-.85-.11-1.15,0-1.75,.85-2.11,2.45v5.08h-2.3v-9.52h2l.22,1.87c.45-1.37,1.37-2.12,2.48-2.12,.34,0,.65,.04,.95,.13Z"/><path class="cls-2" d="M172.11,188.34l-.49,1.53c-1.06-.09-1.75-.45-2.11-1.39-.68,1.01-1.71,1.42-2.86,1.42-1.89,0-3.06-1.21-3.06-2.94,0-2.07,1.55-3.19,4.32-3.19h1.21v-.54c0-1.24-.56-1.66-1.78-1.66-.65,0-1.57,.18-2.54,.5l-.52-1.57c1.17-.45,2.38-.68,3.44-.68,2.56,0,3.67,1.17,3.67,3.28v4c0,.77,.25,1.04,.72,1.22Zm-2.99-1.28v-1.93h-.95c-1.49,0-2.23,.54-2.23,1.66,0,.92,.47,1.44,1.35,1.44,.79,0,1.4-.41,1.84-1.17Z"/><path class="cls-2" d="M173.91,187.46v-11.16l2.3-.25v11.34c0,.45,.14,.67,.54,.67,.2,0,.38-.04,.52-.09l.5,1.62c-.4,.18-.95,.32-1.55,.32-1.46,0-2.32-.88-2.32-2.45Z"/><path class="cls-2" d="M190.29,180.98l-.9,1.35c-.79-.5-1.55-.77-2.39-.77-.92,0-1.44,.38-1.44,.95,0,.63,.38,.92,2,1.37,1.94,.52,3.04,1.31,3.04,3.01,0,1.98-1.84,3.03-4.01,3.03-1.64,0-2.92-.56-3.8-1.35l1.15-1.3c.74,.56,1.62,.94,2.59,.94,1.03,0,1.69-.43,1.69-1.15,0-.79-.38-1.04-2.16-1.55-1.96-.54-2.83-1.48-2.83-2.88,0-1.58,1.46-2.77,3.67-2.77,1.37,0,2.48,.43,3.38,1.13Z"/><path class="cls-2" d="M200.19,185.59h-5.98c.18,1.94,1.08,2.57,2.34,2.57,.85,0,1.55-.27,2.38-.85l.95,1.31c-.94,.76-2.09,1.28-3.53,1.28-2.95,0-4.54-1.96-4.54-4.97s1.53-5.1,4.23-5.1,4.2,1.8,4.2,4.81c0,.31-.04,.68-.05,.94Zm-2.23-1.6c0-1.57-.56-2.5-1.85-2.5-1.08,0-1.76,.72-1.89,2.61h3.75v-.11Z"/><path class="cls-2" d="M207.93,179.99l-.4,2.23c-.29-.07-.5-.11-.85-.11-1.15,0-1.75,.85-2.11,2.45v5.08h-2.3v-9.52h2l.22,1.87c.45-1.37,1.37-2.12,2.48-2.12,.34,0,.65,.04,.95,.13Z"/><path class="cls-2" d="M211.93,176.69c0,.77-.59,1.39-1.46,1.39s-1.44-.61-1.44-1.39,.59-1.4,1.44-1.4,1.46,.61,1.46,1.4Zm-.29,12.95h-2.3v-9.52h2.3v9.52Z"/><path class="cls-2" d="M216.95,179.11v1.01h2.29l-.25,1.66h-2.04v7.87h-2.3v-7.87h-1.55v-1.66h1.55v-1.04c0-1.73,1.15-3.02,3.35-3.02,.95,0,1.73,.22,2.47,.56l-.67,1.55c-.58-.27-1.12-.36-1.57-.36-.94,0-1.28,.41-1.28,1.31Z"/></g><g><path class="cls-2" d="M16.4,23.98c0,2.5-1.6,4.34-4.65,4.34s-4.61-1.78-4.61-4.34V15.61h2.38v8.25c0,1.75,.7,2.61,2.23,2.61s2.25-.86,2.25-2.61V15.61h2.39v8.37Z"/><path class="cls-2" d="M26.8,21.16v6.9h-2.3v-6.54c0-1.19-.45-1.53-1.17-1.53-.83,0-1.44,.56-2,1.44v6.63h-2.3v-9.52h2l.18,1.24c.74-.95,1.69-1.51,2.9-1.51,1.71,0,2.7,1.08,2.7,2.9Z"/><path class="cls-2" d="M31.99,15.11c0,.77-.59,1.39-1.46,1.39s-1.44-.61-1.44-1.39,.59-1.4,1.44-1.4,1.46,.61,1.46,1.4Zm-.29,12.95h-2.3v-9.52h2.3v9.52Z"/><path class="cls-2" d="M34.29,25.87V14.71l2.3-.25v11.34c0,.45,.14,.67,.54,.67,.2,0,.38-.04,.52-.09l.5,1.62c-.4,.18-.95,.32-1.55,.32-1.46,0-2.32-.88-2.32-2.45Z"/><path class="cls-2" d="M47.4,26.76l-.49,1.53c-1.06-.09-1.75-.45-2.11-1.39-.68,1.01-1.71,1.42-2.86,1.42-1.89,0-3.06-1.21-3.06-2.94,0-2.07,1.55-3.19,4.32-3.19h1.21v-.54c0-1.24-.56-1.66-1.78-1.66-.65,0-1.57,.18-2.54,.5l-.52-1.57c1.17-.45,2.38-.68,3.44-.68,2.56,0,3.67,1.17,3.67,3.28v4c0,.77,.25,1.04,.72,1.22Zm-2.99-1.28v-1.93h-.95c-1.49,0-2.23,.54-2.23,1.66,0,.92,.47,1.44,1.35,1.44,.79,0,1.4-.41,1.84-1.17Z"/><path class="cls-2" d="M54.92,27.6c-.68,.49-1.55,.72-2.39,.72-1.87-.02-2.86-1.08-2.86-3.11v-5.02h-1.5v-1.66h1.5v-2.11l2.3-.27v2.38h2.21l-.23,1.66h-1.98v4.97c0,.94,.31,1.31,1.01,1.31,.36,0,.72-.11,1.13-.34l.81,1.48Z"/><path class="cls-2" d="M63.67,24h-5.98c.18,1.94,1.08,2.57,2.34,2.57,.85,0,1.55-.27,2.38-.85l.95,1.31c-.94,.76-2.09,1.28-3.53,1.28-2.95,0-4.54-1.96-4.54-4.97s1.53-5.1,4.23-5.1,4.2,1.8,4.2,4.81c0,.31-.04,.68-.05,.94Zm-2.23-1.6c0-1.57-.56-2.5-1.85-2.5-1.08,0-1.76,.72-1.89,2.61h3.75v-.11Z"/><path class="cls-2" d="M71.41,18.4l-.4,2.23c-.29-.07-.5-.11-.85-.11-1.15,0-1.75,.85-2.11,2.45v5.08h-2.3v-9.52h2l.22,1.87c.45-1.37,1.37-2.12,2.48-2.12,.34,0,.65,.04,.95,.13Z"/><path class="cls-2" d="M80.14,26.76l-.49,1.53c-1.06-.09-1.75-.45-2.11-1.39-.68,1.01-1.71,1.42-2.86,1.42-1.89,0-3.06-1.21-3.06-2.94,0-2.07,1.55-3.19,4.32-3.19h1.21v-.54c0-1.24-.56-1.66-1.78-1.66-.65,0-1.57,.18-2.54,.5l-.52-1.57c1.17-.45,2.38-.68,3.44-.68,2.56,0,3.67,1.17,3.67,3.28v4c0,.77,.25,1.04,.72,1.22Zm-2.99-1.28v-1.93h-.95c-1.49,0-2.23,.54-2.23,1.66,0,.92,.47,1.44,1.35,1.44,.79,0,1.4-.41,1.84-1.17Z"/><path class="cls-2" d="M81.94,25.87V14.71l2.3-.25v11.34c0,.45,.14,.67,.54,.67,.2,0,.38-.04,.52-.09l.5,1.62c-.4,.18-.95,.32-1.55,.32-1.46,0-2.32-.88-2.32-2.45Z"/><path class="cls-2" d="M98.32,19.39l-.9,1.35c-.79-.5-1.55-.77-2.39-.77-.92,0-1.44,.38-1.44,.95,0,.63,.38,.92,2,1.37,1.95,.52,3.04,1.31,3.04,3.01,0,1.98-1.84,3.02-4.01,3.02-1.64,0-2.92-.56-3.8-1.35l1.15-1.3c.74,.56,1.62,.94,2.59,.94,1.03,0,1.69-.43,1.69-1.15,0-.79-.38-1.04-2.16-1.55-1.96-.54-2.83-1.48-2.83-2.88,0-1.58,1.46-2.77,3.67-2.77,1.37,0,2.48,.43,3.38,1.13Z"/><path class="cls-2" d="M108.22,24h-5.98c.18,1.94,1.08,2.57,2.34,2.57,.85,0,1.55-.27,2.38-.85l.95,1.31c-.94,.76-2.09,1.28-3.53,1.28-2.95,0-4.54-1.96-4.54-4.97s1.53-5.1,4.23-5.1,4.2,1.8,4.2,4.81c0,.31-.04,.68-.05,.94Zm-2.23-1.6c0-1.57-.56-2.5-1.85-2.5-1.08,0-1.76,.72-1.89,2.61h3.75v-.11Z"/><path class="cls-2" d="M115.96,18.4l-.4,2.23c-.29-.07-.5-.11-.85-.11-1.15,0-1.75,.85-2.11,2.45v5.08h-2.3v-9.52h2l.22,1.87c.45-1.37,1.37-2.12,2.48-2.12,.34,0,.65,.04,.95,.13Z"/><path class="cls-2" d="M119.95,15.11c0,.77-.59,1.39-1.46,1.39s-1.44-.61-1.44-1.39,.59-1.4,1.44-1.4,1.46,.61,1.46,1.4Zm-.29,12.95h-2.3v-9.52h2.3v9.52Z"/><path class="cls-2" d="M124.97,17.52v1.01h2.29l-.25,1.66h-2.04v7.87h-2.3v-7.87h-1.55v-1.66h1.55v-1.04c0-1.73,1.15-3.02,3.35-3.02,.95,0,1.73,.22,2.47,.56l-.67,1.55c-.58-.27-1.12-.36-1.57-.36-.94,0-1.28,.41-1.28,1.31Z"/></g><path class="cls-1" d="M332.27,163.68c13.22-1.1,14.32-9.04,14.99-13.66,.44-4.19,1.76-17.41,1.76-50.24v-25.34c0-14.32-1.1-26.22-1.54-28.65-.44-2.42-1.1-3.53-8.59-3.53-.88,0-2.2-.44-3.08-4.41,6.17-5.73,15.65-12.12,21.6-16.53,2.2-1.54,2.87-1.54,3.97-1.32,.88,.22,.88,.44,.88,1.32v15.21c10.8-4.41,29.31-11.46,31.95-11.46,7.49,0,16.75,3.08,23.36,9.26,10.36,9.26,13.44,21.6,13.44,31.29,0,12.34-6.83,24.9-14.76,31.73-3.53,3.31-15.65,10.8-27.77,15.43-2.2,.88-4.85,.88-6.39,.88-7.49,0-13.88-1.32-17.41-2.42-.22-.22-1.54,.88-1.76,2.2-.44,2.87-.66,19.61-.66,26.22,0,18.73,1.32,19.17,4.63,19.39,4.63,.22,7.27,.44,13.22,.44,1.54,0,1.76,.44,1.54,1.32l-1.1,3.53c-.44,2.2-.66,2.42-2.2,2.42-9.25,.66-35.48,1.98-43.63,2.2-.44,0-.66-.22-.88-.66l-1.54-4.63Zm75.81-116.35c-6.39-7.27-15.21-11.24-23.36-11.24-7.49,0-17.85,3.97-22.26,7.93-.66,.44-.66,2.2-.66,4.85v13.66c0,12.34,.88,21.16,1.98,30.85,.22,1.54,.66,2.42,2.64,3.75,6.17,4.19,14.1,5.95,21.38,5.95s13-2.42,18.07-6.17c5.73-3.97,11.24-12.34,11.24-24.68,0-9.92-2.2-17.41-9.04-24.9Z"/><g><path class="cls-2" d="M260,25.44h-4.12l-.77,2.88h-2.47l3.87-12.44h2.93l3.85,12.44h-2.52l-.77-2.88Zm-.47-1.8l-1.6-5.94-1.58,5.94h3.19Z"/><path class="cls-2" d="M271.18,19.64l-1.03,1.39c-.63-.47-1.21-.68-1.93-.68-1.33,0-2.14,.97-2.14,3.26s.85,3.11,2.14,3.11c.72,0,1.22-.23,1.93-.68l1.03,1.46c-.86,.7-1.85,1.1-3.08,1.1-2.75,0-4.46-1.91-4.46-4.95s1.71-5.11,4.45-5.11c1.24,0,2.2,.34,3.1,1.12Z"/><path class="cls-2" d="M279.85,28.32h-2l-.12-1.33c-.7,1.08-1.6,1.6-2.92,1.6-1.73,0-2.65-1.12-2.65-2.95v-6.84h2.3v6.55c0,1.12,.36,1.49,1.15,1.49s1.44-.52,1.93-1.35v-6.7h2.3v9.52Z"/><path class="cls-2" d="M287.68,27.87c-.68,.49-1.55,.72-2.39,.72-1.87-.02-2.86-1.08-2.86-3.11v-5.02h-1.49v-1.66h1.49v-2.11l2.3-.27v2.38h2.21l-.23,1.66h-1.98v4.97c0,.94,.31,1.31,1.01,1.31,.36,0,.72-.11,1.13-.34l.81,1.48Z"/><path class="cls-2" d="M296.07,24.27h-5.98c.18,1.94,1.08,2.57,2.34,2.57,.85,0,1.55-.27,2.38-.85l.95,1.31c-.94,.76-2.09,1.28-3.53,1.28-2.95,0-4.54-1.96-4.54-4.97s1.53-5.1,4.23-5.1,4.2,1.8,4.2,4.81c0,.31-.04,.68-.05,.94Zm-2.23-1.6c0-1.57-.56-2.5-1.85-2.5-1.08,0-1.76,.72-1.89,2.61h3.75v-.11Z"/><path class="cls-2" d="M308.37,19.66l-.9,1.35c-.79-.5-1.55-.77-2.39-.77-.92,0-1.44,.38-1.44,.95,0,.63,.38,.92,2,1.37,1.95,.52,3.04,1.31,3.04,3.01,0,1.98-1.84,3.02-4.01,3.02-1.64,0-2.92-.56-3.8-1.35l1.15-1.3c.74,.56,1.62,.94,2.59,.94,1.03,0,1.69-.43,1.69-1.15,0-.79-.38-1.04-2.16-1.55-1.96-.54-2.83-1.48-2.83-2.88,0-1.58,1.46-2.77,3.67-2.77,1.37,0,2.48,.43,3.38,1.13Z"/><path class="cls-2" d="M317.91,24.27h-5.98c.18,1.94,1.08,2.57,2.34,2.57,.85,0,1.55-.27,2.38-.85l.95,1.31c-.94,.76-2.09,1.28-3.53,1.28-2.95,0-4.54-1.96-4.54-4.97s1.53-5.1,4.23-5.1,4.2,1.8,4.2,4.81c0,.31-.04,.68-.05,.94Zm-2.23-1.6c0-1.57-.56-2.5-1.85-2.5-1.08,0-1.76,.72-1.89,2.61h3.75v-.11Z"/><path class="cls-2" d="M325.28,18.67l-.4,2.23c-.29-.07-.5-.11-.85-.11-1.15,0-1.75,.85-2.11,2.45v5.08h-2.3v-9.52h2l.22,1.87c.45-1.37,1.37-2.12,2.49-2.12,.34,0,.65,.04,.95,.13Z"/><path class="cls-2" d="M328.92,15.38c0,.77-.59,1.39-1.46,1.39s-1.44-.61-1.44-1.39,.59-1.4,1.44-1.4,1.46,.61,1.46,1.4Zm-.29,12.95h-2.3v-9.52h2.3v9.52Z"/><path class="cls-2" d="M333.58,17.79v1.01h2.29l-.25,1.66h-2.03v7.87h-2.3v-7.87h-1.55v-1.66h1.55v-1.04c0-1.73,1.15-3.02,3.35-3.02,.96,0,1.73,.22,2.47,.56l-.67,1.55c-.58-.27-1.12-.36-1.57-.36-.94,0-1.28,.41-1.28,1.31Z"/></g><g><polygon class="cls-2" points="112 36.74 58.25 36.74 58.25 43.58 81.19 43.58 81.19 44.36 112 44.36 112 36.74"/><polygon class="cls-2" points="81.19 164.45 58.25 164.45 58.25 171.3 134.6 171.3 134.6 164.45 112 164.45 112 162.43 81.19 162.43 81.19 164.45"/><path class="cls-1" d="M148.98,33.31c-15.75,0-27.73,11.64-36.98,35.95v-24.91h-30.81v118.07h30.81v-29.82c0-39.72,3.43-59.23,13.7-76.7,3.08-5.14,6.85-8.56,9.24-8.56,2.74,0,3.08,1.03,3.42,7.19,.68,9.93,6.51,16.09,15.41,16.09,9.59,0,16.78-7.53,16.78-17.46,0-11.64-8.9-19.86-21.57-19.86Z"/></g><path class="cls-2" d="M362.33,21.32c0-.88,0-1.1-.88-1.32-1.1-.22-1.76-.22-3.97,1.32-5.95,4.41-15.43,10.8-21.6,16.53,.88,3.97,2.2,4.41,3.08,4.41,7.06,0,8.05,.98,8.51,3.12l14.85-10.43v-13.62Z"/></svg>