<?xml version="1.0" encoding="UTF-8"?><svg id="Layer_1" xmlns="http://www.w3.org/2000/svg" viewBox="0 0 157.98 200"><defs><style>.cls-1{fill:none;}.cls-2{fill:#b3b3b3;}.cls-3{fill:#2997ff;}</style></defs><g><path class="cls-3" d="M13.54,19.29h-3.24v10.55h-2.4v-10.55h-3.35v-1.89H13.79l-.25,1.89Z"/><path class="cls-3" d="M22.64,22.94v6.9h-2.3v-6.54c0-1.19-.47-1.53-1.17-1.53-.81,0-1.44,.56-2,1.42v6.64h-2.3v-13.32l2.3-.23v5.17c.74-.9,1.62-1.4,2.77-1.4,1.69,0,2.7,1.1,2.7,2.9Z"/><path class="cls-3" d="M27.47,16.89c0,.77-.59,1.39-1.46,1.39s-1.44-.61-1.44-1.39,.59-1.4,1.44-1.4,1.46,.61,1.46,1.4Zm-.29,12.95h-2.3v-9.52h2.3v9.52Z"/><path class="cls-3" d="M37.3,22.94v6.9h-2.3v-6.54c0-1.19-.45-1.53-1.17-1.53-.83,0-1.44,.56-2,1.44v6.63h-2.3v-9.52h2l.18,1.24c.74-.95,1.69-1.51,2.9-1.51,1.71,0,2.7,1.08,2.7,2.9Z"/><path class="cls-3" d="M50.09,21.18l-.9,1.35c-.79-.5-1.55-.77-2.39-.77-.92,0-1.44,.38-1.44,.95,0,.63,.38,.92,2,1.37,1.94,.52,3.04,1.31,3.04,3.01,0,1.98-1.84,3.02-4.02,3.02-1.64,0-2.92-.56-3.8-1.35l1.15-1.3c.74,.56,1.62,.94,2.59,.94,1.03,0,1.69-.43,1.69-1.15,0-.79-.38-1.04-2.16-1.55-1.96-.54-2.83-1.48-2.83-2.88,0-1.58,1.46-2.77,3.67-2.77,1.37,0,2.48,.43,3.39,1.13Z"/><path class="cls-3" d="M59.63,25.79h-5.98c.18,1.94,1.08,2.57,2.34,2.57,.85,0,1.55-.27,2.38-.85l.95,1.31c-.94,.76-2.09,1.28-3.53,1.28-2.95,0-4.54-1.96-4.54-4.97s1.53-5.1,4.23-5.1,4.2,1.8,4.2,4.81c0,.31-.04,.68-.05,.94Zm-2.23-1.6c0-1.57-.56-2.5-1.85-2.5-1.08,0-1.76,.72-1.89,2.61h3.75v-.11Z"/><path class="cls-3" d="M67.01,20.19l-.4,2.23c-.29-.07-.5-.11-.85-.11-1.15,0-1.75,.85-2.11,2.45v5.08h-2.3v-9.52h2l.22,1.87c.45-1.37,1.37-2.12,2.48-2.12,.34,0,.65,.04,.95,.13Z"/><path class="cls-3" d="M70.65,16.89c0,.77-.59,1.39-1.46,1.39s-1.44-.61-1.44-1.39,.59-1.4,1.44-1.4,1.46,.61,1.46,1.4Zm-.29,12.95h-2.3v-9.52h2.3v9.52Z"/><path class="cls-3" d="M75.31,19.3v1.01h2.29l-.25,1.66h-2.03v7.87h-2.3v-7.87h-1.55v-1.66h1.55v-1.04c0-1.73,1.15-3.02,3.35-3.02,.95,0,1.73,.22,2.47,.56l-.67,1.55c-.58-.27-1.12-.36-1.57-.36-.94,0-1.28,.41-1.28,1.31Z"/></g><g><path class="cls-1" d="M84.71,89.11c-5.35,0-10.44,3.05-13.75,7.89-3.05,5.09-4.07,14.51-4.07,42,0,23.42,.51,28.51,3.05,33.6,3.05,6.11,8.91,9.93,15.02,9.93,15.27,0,26.73-20.11,26.73-47.09s-11.45-46.33-26.98-46.33Z"/><polygon class="cls-3" points="135.11 16.06 95.14 16.06 95.14 21.15 112.2 21.15 112.2 23.01 135.11 23.01 135.11 16.06"/><path class="cls-2" d="M135.11,180.75V23.01h-22.91V103.88c-8.4-14.25-17.56-20.62-30.29-20.62-23.16,0-42.25,23.42-42.25,52.18s19.35,52.95,42.76,52.95c13.49,0,24.18-7.89,29.78-21.89v19.35h39.96v-5.09h-17.05Zm-50.15,1.78c-6.11,0-11.96-3.82-15.02-9.93-2.55-5.09-3.05-10.18-3.05-33.6,0-27.49,1.02-36.91,4.07-42,3.31-4.84,8.4-7.89,13.75-7.89,15.53,0,26.98,19.85,26.98,46.33s-11.45,47.09-26.73,47.09Z"/></g></svg>