<svg xmlns="http://www.w3.org/2000/svg" id="Layer_1" viewBox="0 0 260 260" width="260" height="260"><defs><style>.cls-1{fill:#b3b3b3}.cls-2{fill:#2997ff}.cls-3{fill:none;stroke:#2997ff;stroke-linecap:round;stroke-linejoin:round;stroke-width:2px}</style></defs><path d="M140.89 150.56c-.27 6.91-4.39 11.17-11.03 11.17-5.85 0-9.17-2.92-10.37-9.3-9.17 6.51-15.68 9.3-21.53 9.3-7.71 0-13.29-4.79-13.29-11.43 0-7.98 7.18-14.35 24.72-21.53l10.1-4.12v-2.66c0-5.45-.13-6.91-1.06-8.77-1.86-3.72-5.85-5.72-11.17-5.72-4.25 0-7.97 1.06-9.44 2.92-1.06 1.2-1.2 1.59-1.73 4.39-.53 3.85-2.53 5.98-5.32 5.98-2.39 0-3.99-1.6-3.99-3.85 0-2.39 1.73-5.05 4.65-7.44 4.12-3.19 9.84-4.79 17.15-4.79 9.04 0 15.15 2.66 18.48 7.84 1.59 2.66 1.86 4.39 1.86 10.9v21.67q0 7.58.53 9.04c.67 1.86 1.99 2.79 3.59 2.79 2.79 0 4.79-2.26 5.45-6.38h2.39zm-28.58-19.94c-11.03 4.52-16.75 10.23-16.75 17.15 0 5.45 3.19 9.17 7.71 9.17 3.99 0 9.84-2.92 16.22-8.11V127.7l-7.18 2.92z" class="cls-1"/><path d="M38.44 90.04H35.2v10.55h-2.39V90.04h-3.35v-1.89h9.24l-.25 1.89zm8.5 6.5h-5.98c.18 1.94 1.08 2.57 2.34 2.57.85 0 1.55-.27 2.38-.85l.96 1.31c-.94.76-2.09 1.28-3.53 1.28-2.95 0-4.54-1.96-4.54-4.97s1.53-5.1 4.23-5.1 4.2 1.8 4.2 4.81c0 .31-.04.68-.05.94zm-2.23-1.6c0-1.57-.56-2.5-1.85-2.5-1.08 0-1.76.72-1.89 2.61h3.75v-.11zm11.93 4.35l-.49 1.53c-1.06-.09-1.75-.45-2.11-1.39-.68 1.01-1.71 1.42-2.86 1.42-1.89 0-3.06-1.21-3.06-2.93 0-2.07 1.55-3.19 4.32-3.19h1.21v-.54c0-1.24-.56-1.66-1.78-1.66-.65 0-1.57.18-2.54.5l-.52-1.57c1.17-.45 2.38-.68 3.44-.68 2.56 0 3.67 1.17 3.67 3.28v4c0 .77.25 1.04.72 1.22zm-2.99-1.28v-1.93h-.95c-1.49 0-2.23.54-2.23 1.66 0 .92.47 1.44 1.35 1.44.79 0 1.41-.41 1.84-1.17zm10.68-7.07l-.4 2.23c-.29-.07-.5-.11-.85-.11-1.15 0-1.75.85-2.11 2.45v5.08h-2.3v-9.52h2l.22 1.87c.45-1.37 1.37-2.12 2.48-2.12.34 0 .65.04.95.13zm9-3.69v13.34H71.3l-.16-1.21c-.58.86-1.49 1.48-2.72 1.48-2.38 0-3.62-2-3.62-5.02s1.48-5.04 3.83-5.04c1.01 0 1.8.43 2.39 1.03V87l2.3.25zm-2.3 10.64v-4.36c-.5-.61-1.04-1.01-1.82-1.01-1.19 0-1.98 1.01-1.98 3.29 0 2.45.7 3.29 1.84 3.29.85 0 1.42-.41 1.96-1.22zm10.65-6.95l-.4 2.23c-.29-.07-.5-.11-.85-.11-1.15 0-1.75.85-2.11 2.45v5.08h-2.3v-9.52h2l.22 1.87c.45-1.37 1.37-2.12 2.49-2.12.34 0 .65.04.95.13zm9.43 4.88c0 3.01-1.67 5.04-4.48 5.04s-4.48-1.91-4.48-5.04 1.67-5.02 4.5-5.02 4.46 1.91 4.46 5.02zm-6.54 0c0 2.29.7 3.29 2.05 3.29s2.05-1.03 2.05-3.29-.7-3.28-2.03-3.28-2.07 1.03-2.07 3.28zm17.13-.02c0 2.92-1.35 5.06-3.76 5.06-.97 0-1.8-.34-2.39-1.04v4.45l-2.3.25V91.07h2.02l.13 1.17c.76-.99 1.76-1.44 2.79-1.44 2.48 0 3.53 1.96 3.53 5.01zm-2.41.02c0-2.41-.65-3.29-1.8-3.29-.81 0-1.49.56-1.94 1.3v4.29c.45.67 1.03.99 1.75.99 1.26 0 2-.97 2-3.28zm-61.87 9.46l-.7 1.53c-.58-.27-1.26-.45-2.02-.45-1.22 0-1.55.43-1.55 1.33v.97h5.29v9.52h-2.3v-7.87h-2.99v7.87h-2.3v-7.87h-1.49v-1.66h1.49v-1.01c0-1.75 1.06-3.06 3.66-3.06 1.21 0 2.14.31 2.92.68zm11.5 6.01v6.9h-2.3v-6.54c0-1.19-.45-1.53-1.17-1.53-.83 0-1.44.56-2 1.44v6.63h-2.3v-9.52h2l.18 1.24c.74-.95 1.69-1.51 2.9-1.51 1.71 0 2.7 1.08 2.7 2.9zm5.18-6.04c0 .77-.59 1.39-1.46 1.39s-1.44-.61-1.44-1.39.59-1.4 1.44-1.4 1.46.61 1.46 1.4zm-.29 12.95h-2.3v-9.52h2.3v9.52zm10.45-1.31l-.49 1.53c-1.06-.09-1.75-.45-2.11-1.39-.68 1.01-1.71 1.42-2.86 1.42-1.89 0-3.06-1.21-3.06-2.94 0-2.07 1.55-3.19 4.32-3.19h1.21v-.54c0-1.24-.56-1.66-1.78-1.66-.65 0-1.57.18-2.54.5l-.52-1.57c1.17-.45 2.38-.68 3.44-.68 2.56 0 3.67 1.17 3.67 3.28v4c0 .77.25 1.04.72 1.22zm-2.99-1.28v-1.93h-.96c-1.49 0-2.23.54-2.23 1.66 0 .92.47 1.44 1.35 1.44.79 0 1.4-.41 1.84-1.17zm4.78.4v-11.16l2.3-.25v11.34c0 .45.14.67.54.67.2 0 .38-.04.52-.09l.5 1.62c-.4.18-.95.32-1.55.32-1.46 0-2.32-.88-2.32-2.45zm94.02 24.92h7.04l-.25 1.76h-4.41v3.73h3.84v1.76h-3.84v5.19h-2.38v-12.44zm10.72-.51c0 .77-.59 1.39-1.46 1.39s-1.44-.61-1.44-1.39.59-1.4 1.44-1.4 1.46.61 1.46 1.4zm-.29 12.95h-2.3v-9.52h2.3v9.52zm10.48-6.9v6.9h-2.3v-6.54c0-1.19-.45-1.53-1.17-1.53-.83 0-1.44.56-2 1.44v6.63h-2.3v-9.52h2l.18 1.24c.74-.95 1.69-1.51 2.9-1.51 1.71 0 2.7 1.08 2.7 2.9zm5.18-6.05c0 .77-.59 1.39-1.46 1.39s-1.44-.61-1.44-1.39.59-1.4 1.44-1.4 1.46.61 1.46 1.4zm-.29 12.95h-2.3v-9.52h2.3v9.52zm10.44-1.3l-.49 1.53c-1.06-.09-1.75-.45-2.11-1.39-.68 1.01-1.71 1.42-2.86 1.42-1.89 0-3.06-1.21-3.06-2.93 0-2.07 1.55-3.19 4.32-3.19h1.21v-.54c0-1.24-.56-1.66-1.78-1.66-.65 0-1.57.18-2.54.5l-.52-1.57c1.17-.45 2.38-.68 3.44-.68 2.56 0 3.67 1.17 3.67 3.28v4c0 .77.25 1.04.72 1.22zm-2.99-1.28v-1.93h-.96c-1.49 0-2.23.54-2.23 1.66 0 .92.47 1.44 1.35 1.44.79 0 1.4-.41 1.84-1.17zm4.79.4v-11.16l2.3-.25v11.34c0 .45.14.67.54.67.2 0 .38-.04.52-.09l.5 1.62c-.4.18-.95.32-1.55.32-1.46 0-2.32-.88-2.32-2.45z" class="cls-2"/><path d="M90.69 116.99H72.77m84.85 36.38H139.7" class="cls-3"/></svg>