<svg xmlns="http://www.w3.org/2000/svg" id="Layer_1" viewBox="0 0 260 260" width="260" height="260"><defs><style>.cls-1{fill:#b3b3b3}.cls-2{fill:#2997ff}.cls-3{fill:none;stroke:#2997ff;stroke-linecap:round;stroke-linejoin:round;stroke-width:2px}</style></defs><path d="M62.31 56.82l-1.17 1.35c-.9-.74-1.76-1.06-2.79-1.06-1.12 0-1.93.5-1.93 1.48 0 .9.49 1.3 2.56 1.94 2.18.68 3.69 1.58 3.69 3.93s-1.75 3.82-4.72 3.82c-1.98 0-3.46-.7-4.48-1.71l1.22-1.37c.92.77 1.91 1.24 3.21 1.24s2.29-.65 2.29-1.85c0-1.04-.52-1.51-2.47-2.11-2.61-.81-3.75-1.85-3.75-3.75 0-2.07 1.78-3.44 4.23-3.44 1.82 0 3.03.54 4.11 1.53zm1.81 9V54.66l2.3-.25v11.34c0 .45.14.67.54.67.2 0 .38-.04.52-.09l.5 1.62c-.4.18-.95.32-1.55.32-1.46 0-2.32-.88-2.32-2.45zm12.75.89l-.49 1.53c-1.06-.09-1.75-.45-2.11-1.39-.68 1.01-1.71 1.42-2.86 1.42-1.89 0-3.06-1.21-3.06-2.93 0-2.07 1.55-3.19 4.32-3.19h1.21v-.54c0-1.24-.56-1.66-1.78-1.66-.65 0-1.57.18-2.54.5l-.52-1.57c1.17-.45 2.38-.68 3.44-.68 2.56 0 3.67 1.17 3.67 3.28v4c0 .77.25 1.04.72 1.22zm-2.99-1.28V63.5h-.95c-1.49 0-2.23.54-2.23 1.66 0 .92.47 1.44 1.35 1.44.79 0 1.41-.41 1.84-1.17zM87 63.23c0 2.97-1.42 5.04-3.76 5.04-1.04 0-1.91-.47-2.52-1.24l-.14.97h-2.03V54.66l2.3-.25v5.15c.61-.85 1.53-1.35 2.63-1.35 2.21 0 3.53 1.84 3.53 5.02zm-2.41 0c0-2.54-.76-3.29-1.85-3.29-.83 0-1.44.56-1.89 1.3v4.21c.41.68 1.04 1.1 1.76 1.1 1.17 0 1.98-.92 1.98-3.31zm14.76-3.89l-.9 1.35c-.79-.5-1.55-.77-2.39-.77-.92 0-1.44.38-1.44.95 0 .63.38.92 2 1.37 1.95.52 3.04 1.31 3.04 3.01 0 1.98-1.84 3.02-4.01 3.02-1.64 0-2.92-.56-3.8-1.35l1.15-1.3c.74.56 1.62.94 2.59.94 1.03 0 1.69-.43 1.69-1.15 0-.79-.38-1.04-2.16-1.55-1.96-.54-2.83-1.48-2.83-2.88 0-1.58 1.46-2.77 3.67-2.77 1.37 0 2.48.43 3.38 1.13zm9.54 4.61h-5.98c.18 1.94 1.08 2.57 2.34 2.57.85 0 1.55-.27 2.38-.85l.96 1.31c-.94.76-2.09 1.28-3.53 1.28-2.95 0-4.54-1.96-4.54-4.97s1.53-5.1 4.23-5.1 4.2 1.8 4.2 4.81c0 .31-.04.68-.05.94zm-2.23-1.6c0-1.57-.56-2.5-1.85-2.5-1.08 0-1.76.72-1.89 2.61h3.75v-.11zm9.61-4l-.4 2.23c-.29-.07-.5-.11-.85-.11-1.15 0-1.75.85-2.11 2.45V68h-2.3v-9.52h2l.22 1.87c.45-1.37 1.37-2.12 2.48-2.12.34 0 .65.04.95.13zm3.64-3.29c0 .77-.59 1.39-1.46 1.39s-1.44-.61-1.44-1.39.59-1.4 1.44-1.4 1.46.61 1.46 1.4zm-.29 12.95h-2.3v-9.52h2.3v9.52zm4.95-10.54v1.01h2.29l-.25 1.66h-2.03v7.87h-2.3v-7.87h-1.55v-1.66h1.55v-1.04c0-1.73 1.15-3.02 3.35-3.02.95 0 1.73.22 2.47.56l-.67 1.55a3.71 3.71 0 0 0-1.57-.36c-.94 0-1.28.41-1.28 1.31zm9.61 1.87l-.9 1.35c-.79-.5-1.55-.77-2.39-.77-.92 0-1.44.38-1.44.95 0 .63.38.92 2 1.37 1.94.52 3.04 1.31 3.04 3.01 0 1.98-1.84 3.02-4.02 3.02-1.64 0-2.92-.56-3.8-1.35l1.15-1.3c.74.56 1.62.94 2.59.94 1.03 0 1.69-.43 1.69-1.15 0-.79-.38-1.04-2.16-1.55-1.96-.54-2.83-1.48-2.83-2.88 0-1.58 1.46-2.77 3.67-2.77 1.37 0 2.48.43 3.38 1.13z" class="cls-2"/><path d="M94.94 72.17l15.09 15.09" class="cls-3"/><path d="M146.35 170.38v-7.5h10.56l-8.06-18.62h-37.59l-8.29 18.62h10.22v7.5H84.23v-7.5h10.11l29.41-66.09h-10.79v-7.5h21.23l31.8 73.58h10.11v7.5h-29.75zM130.23 98.5l-16.58 39.06h32.82L130.23 98.5z" class="cls-1"/></svg>