<svg xmlns="http://www.w3.org/2000/svg" id="Layer_1" viewBox="0 0 260 260" width="260" height="260"><defs><style>.cls-1{fill:#b3b3b3}.cls-2{fill:#2997ff}.cls-3{fill:none;stroke:#2997ff;stroke-linecap:round;stroke-linejoin:round;stroke-width:2px}</style></defs><path d="M157.04 173.23h8.91v2.66h-20.87v-10.1c-2.92 7.31-8.51 11.43-15.55 11.43-12.23 0-22.33-12.49-22.33-27.65s9.97-27.25 22.06-27.25c6.65 0 11.43 3.32 15.82 10.77v-43.2h-8.91v-2.66h20.87v86zm-33.5-43.73c-1.6 2.66-2.13 7.58-2.13 21.93 0 12.23.27 14.89 1.6 17.55 1.59 3.19 4.65 5.18 7.84 5.18 7.98 0 13.96-10.5 13.96-24.59s-5.98-24.19-14.09-24.19c-2.79 0-5.45 1.59-7.18 4.12z" class="cls-1"/><path d="M53.4 60.97h-3.24v10.55h-2.4V60.97h-3.35v-1.89h9.24l-.25 1.89zm9.11 3.66v6.9h-2.3v-6.54c0-1.19-.47-1.53-1.17-1.53-.81 0-1.44.56-2 1.42v6.64h-2.3V58.2l2.3-.23v5.17c.74-.9 1.62-1.4 2.77-1.4 1.69 0 2.7 1.1 2.7 2.9zm4.82-6.05c0 .77-.59 1.39-1.46 1.39s-1.44-.61-1.44-1.39.59-1.4 1.44-1.4 1.46.61 1.46 1.4zm-.29 12.95h-2.3v-9.52h2.3v9.52zm10.12-6.9v6.9h-2.3v-6.54c0-1.19-.45-1.53-1.17-1.53-.83 0-1.44.56-2 1.44v6.63h-2.3v-9.52h2l.18 1.24c.74-.95 1.69-1.51 2.9-1.51 1.71 0 2.7 1.08 2.7 2.9zm12.8-1.77l-.9 1.35c-.79-.5-1.55-.77-2.39-.77-.92 0-1.44.38-1.44.95 0 .63.38.92 2 1.37 1.94.52 3.04 1.31 3.04 3.01 0 1.98-1.84 3.02-4.02 3.02-1.64 0-2.92-.56-3.8-1.35l1.15-1.3c.74.56 1.62.94 2.59.94 1.03 0 1.69-.43 1.69-1.15 0-.79-.38-1.04-2.16-1.55-1.96-.54-2.83-1.48-2.83-2.88 0-1.58 1.46-2.77 3.67-2.77 1.37 0 2.48.43 3.39 1.13zm9.54 4.61h-5.98c.18 1.94 1.08 2.57 2.34 2.57.85 0 1.55-.27 2.38-.85l.95 1.31c-.94.76-2.09 1.28-3.53 1.28-2.95 0-4.54-1.96-4.54-4.97s1.53-5.1 4.23-5.1 4.2 1.8 4.2 4.81c0 .31-.04.68-.05.94zm-2.23-1.6c0-1.57-.56-2.5-1.85-2.5-1.08 0-1.76.72-1.89 2.61h3.75v-.11zm9.61-4l-.4 2.23c-.29-.07-.5-.11-.85-.11-1.15 0-1.75.85-2.11 2.45v5.08h-2.3V62h2l.22 1.87c.45-1.37 1.37-2.12 2.48-2.12.34 0 .65.04.95.13zm3.64-3.29c0 .77-.59 1.39-1.46 1.39s-1.44-.61-1.44-1.39.59-1.4 1.44-1.4 1.46.61 1.46 1.4zm-.29 12.95h-2.3v-9.52h2.3v9.52zm4.95-10.54V62h2.29l-.25 1.66h-2.03v7.87h-2.3v-7.87h-1.55V62h1.55v-1.04c0-1.73 1.15-3.02 3.35-3.02.95 0 1.73.22 2.47.56l-.67 1.55a3.71 3.71 0 0 0-1.57-.36c-.94 0-1.28.41-1.28 1.31z" class="cls-2"/><path d="M118.55 69.66l15.08 15.09" class="cls-3"/></svg>