<svg xmlns="http://www.w3.org/2000/svg" id="Layer_1" viewBox="0 0 260 260" width="260" height="260"><defs><style>.cls-1{fill:#ededee}.cls-2{fill:#b3b3b3}.cls-3{fill:#2997ff}.cls-4{fill:none;stroke:#2997ff;stroke-linecap:round;stroke-linejoin:round;stroke-width:2px}</style></defs><path d="M148.79 163.26l-9.39 9.39" class="cls-4"/><path d="M161.77 162.58h-3.08l-4.27-10.07c.13 1.1.32 2.68.32 4.99v5.08h-2.16v-12.44h3.01l4.34 10.08c-.11-.68-.32-2.48-.32-4.25v-5.83h2.16v12.44zm10.84-4.77c0 3.01-1.67 5.04-4.48 5.04s-4.48-1.91-4.48-5.04 1.67-5.02 4.5-5.02 4.46 1.91 4.46 5.02zm-6.54 0c0 2.29.7 3.29 2.05 3.29s2.05-1.03 2.05-3.29-.7-3.28-2.03-3.28-2.07 1.03-2.07 3.28zm20.9 0c0 2.97-1.42 5.04-3.76 5.04-1.04 0-1.91-.47-2.52-1.24l-.14.97h-2.03v-13.34l2.3-.25v5.15c.61-.85 1.53-1.35 2.63-1.35 2.21 0 3.53 1.84 3.53 5.02zm-2.41 0c0-2.54-.76-3.29-1.86-3.29-.83 0-1.44.56-1.89 1.3v4.21c.41.68 1.04 1.1 1.76 1.1 1.17 0 1.98-.92 1.98-3.31zm9.84-4.88l-.4 2.23c-.29-.07-.5-.11-.85-.11-1.15 0-1.75.85-2.11 2.45v5.08h-2.3v-9.53h2l.22 1.87c.45-1.37 1.37-2.12 2.48-2.12.34 0 .65.04.95.13zm8.38 8.35l-.49 1.53c-1.06-.09-1.75-.45-2.11-1.39-.68 1.01-1.71 1.42-2.86 1.42-1.89 0-3.06-1.21-3.06-2.93 0-2.07 1.55-3.19 4.32-3.19h1.21v-.54c0-1.24-.56-1.66-1.78-1.66-.65 0-1.57.18-2.54.5l-.52-1.57c1.17-.45 2.38-.68 3.44-.68 2.56 0 3.67 1.17 3.67 3.28v4c0 .77.25 1.04.72 1.22zm-2.99-1.28v-1.93h-.96c-1.49 0-2.23.54-2.23 1.66 0 .92.47 1.44 1.35 1.44.79 0 1.4-.41 1.84-1.17zm11.62-6.1l-1.03 1.39c-.63-.47-1.21-.68-1.93-.68-1.33 0-2.14.97-2.14 3.26s.85 3.12 2.14 3.12c.72 0 1.22-.23 1.93-.68l1.03 1.46c-.86.7-1.85 1.1-3.08 1.1-2.75 0-4.47-1.91-4.47-4.95s1.71-5.11 4.45-5.11c1.24 0 2.2.34 3.1 1.12zm3.59 8.68h-2.3v-13.34l2.3-.25v13.59zm2.54-5.33l3.47 5.33h-2.65l-3.28-5.2 3.19-4.32h2.43l-3.17 4.2zm12.02 1.28h-5.98c.18 1.95 1.08 2.58 2.34 2.58.85 0 1.55-.27 2.38-.85l.96 1.31c-.94.76-2.09 1.28-3.53 1.28-2.95 0-4.54-1.96-4.54-4.97s1.53-5.1 4.23-5.1 4.2 1.8 4.2 4.81c0 .31-.04.68-.05.94zm-2.23-1.6c0-1.57-.56-2.5-1.85-2.5-1.08 0-1.76.72-1.89 2.61h3.75v-.11zm9.45 5.2c-.68.49-1.55.72-2.39.72-1.87-.02-2.86-1.08-2.86-3.11v-5.02h-1.5v-1.66h1.5v-2.11l2.3-.27v2.38h2.21l-.23 1.66h-1.98v4.97c0 .94.31 1.31 1.01 1.31.36 0 .72-.11 1.13-.34l.81 1.48z" class="cls-3"/><path d="M68.49 38.34H35.4l18.86 45.39H10.37v26.39h53.29l9.59 22.17h35.83L68.49 38.34z" class="cls-1"/><path d="M131.21 183.49l-22.13-51.2H73.25l22.17 51.2h-41.6v29.52h117.2v-29.52h-39.81z" class="cls-2"/></svg>