<?xml version="1.0" encoding="utf-8"?>
<!-- Generator: Adobe Illustrator 26.0.3, SVG Export Plug-In . SVG Version: 6.00 Build 0)  -->
<svg version="1.1" id="e74666dd-656c-4a55-a7e4-176465c85c4a"
	 xmlns="http://www.w3.org/2000/svg" xmlns:xlink="http://www.w3.org/1999/xlink" x="0px" y="0px" viewBox="0 0 600.1 169.4"
	 style="enable-background:new 0 0 600.1 169.4;" xml:space="preserve">
<style type="text/css">
	.st0{fill:#505050;}
	.st1{fill:#B3B3B3;}
</style>
<path class="st0" d="M39.7,61.8h20.9c7.9,0,8.4-0.7,9.8-6.5l1.1-4.7h8.6c-2.6,11.8-5.2,26.6-5.4,38.4h-8.4V76.1
	c0-4.1-0.4-4.5-7.1-4.9l-20.3-0.9L34.1,113c-0.2,2.6-0.4,5.4-0.4,8.2c0,7.6,2.4,7.6,9.3,7.6h8.6c13.2,0,17.5-1,19.7-2.6
	c2.2-1.7,6.7-9.5,13.6-25.9l6.1,2l-9.8,35.6c-27,0-43.4-1-55.3-1c-5.4,0-17.9,0.5-25.9,1l1-7.3l13.8-1.3c3.2-0.2,4.1-0.9,4.7-1.5
	c1-1,1.5-4.3,2.6-14.7l9.4-86.9c0.6-4.4,0.8-8.9,0.8-13.4c0-2.2-0.7-2.6-4.7-3L14.1,8.5L15,0.9C23.2,1.6,30.1,2,40.7,2
	c28.5,0,37.8-0.2,51.1-1l-6.5,38.2h-4.7c-0.2-3.9-0.7-9.5-1.1-14.2c-0.9-10.1-1.7-12.1-5.4-13c-4.4-0.9-11-1.5-20.9-1.5H45
	L39.7,61.8z M148.9,51l-21.6-0.7l-5,47.7c-0.7,5.6-1,11.2-0.9,16.9c0,13.2,7.8,13.2,23.1,13.2l1.1,4.9c-11.9,3.9-18.2,5.9-22.2,5.9
	c-8.2,0-13.2-7.9-13.2-20.3c0-3.8,0.2-7.5,0.7-11.2l6.1-57.6l-10.1-0.7l0.6-7.1l10.4-0.5l2.6-23.5c3.9-0.7,6.2-1.3,10-3.2l2.2,1.7
	c-1.7,7.4-3.2,16.9-4.4,24.4l22.1-0.7L148.9,51L148.9,51z M557,34.8c0,17.8-13.4,28.7-30.2,38.6l38.3,36
	c5.6-11.6,9.9-23.9,12.8-36.5l16.6,4.6c-5.2,17.4-11.6,31-18.5,42.1l24.1,22.4l-12.8,10.3L566.1,132c-11.5,13-25.9,20.3-46.3,20.3
	c-27,0-46.3-15.3-46.3-38.9c0-18.4,11.6-30.4,29.6-41.7c-12.8-12.2-20.7-21.6-20.7-36c0-18.2,13.4-32.5,37-32.5
	C541.7,3.2,557,16.6,557,34.8L557,34.8z M491.6,112.7c0,15.9,12.5,25.6,30.2,25.6c14.2,0,24.7-5.8,34.1-16.1l-42.8-40.9
	C498.7,90.5,491.6,99.9,491.6,112.7z M499.7,35.4c0,10.7,5.8,17.8,16.9,28.3c14.2-8.4,22.8-16.6,22.8-27.8
	c0-12.4-7.9-19.5-19.9-19.5C506.9,16.4,499.7,24.5,499.7,35.4z"/>
<path class="st0" d="M314.7,126c-1.1,11.7-3,13.4-13.6,13.4c-21.2,0-33.3-11.8-33.3-25.4l0,0c0-13.7,11.3-26.7,28.7-33.8l1.4-17.3
	c-15.1-2.9-21-9.3-21-19.7c0-15.2,16.3-27.1,36.2-27.1c2.5,0,4.2,1.3,5.5,4c2,4.5,5.5,17.1,8.5,29.3l6.8-1l-4-48.4
	c-18.7,2-41.8,9.7-53.6,21.5c-7.9,8-12.9,16.4-12.9,27.1c0,14.6,9.7,20.6,29,23.1c-16.4,8-38.7,23.7-38.7,47
	c0,19.6,18.6,30.8,43.7,30.8c5.2,0,9.7-0.4,13.9-1.7L314.7,126z"/>
<path class="st1" d="M314.7,126l5.2-51.1c-8.5,0.6-16.4,2.5-23.4,5.3l1.4-17.3c6.5,1.3,14.8,1.9,25,1.9c15.9,0,32-1.3,45.9-3.5
	c0.2,2.7,0.5,5.7,0.5,8.7c0,2.2-0.2,4.5-0.5,6.7c-11-1.3-23.6-1.7-35.2-1.7l-15.4,94.4h-8.9l2-21.6L314.7,126z"/>
</svg>
