<svg xmlns="http://www.w3.org/2000/svg" id="Layer_1" viewBox="0 0 642.36 113.88" width="642.36" height="113.88"><defs><style>.cls-1{fill:#505150}</style></defs><path d="M51.23 90.95c-2.08-2.08-4.06-4.17-6.91-7.24-6.36 5.92-13.49 8.45-21.61 8.45C8.34 92.16 0 82.51 0 71.42c0-10.09 6.03-17.01 14.48-21.61v-.33c-3.84-4.83-6.14-10.2-6.14-15.47 0-9 6.47-18.21 18.76-18.21 9.22 0 16.35 6.14 16.35 15.69 0 7.79-4.5 13.93-16.24 19.75v.33c6.25 7.24 13.27 15.36 17.99 20.63 3.4-5.16 5.7-12.29 7.13-21.61h8.78c-1.97 11.63-5.16 20.85-10.64 27.32 3.95 4.17 7.79 8.34 12.18 13.06H51.24zM39.6 78.22c-4.39-4.83-12.62-13.82-20.85-23.26-3.95 2.52-9.54 7.24-9.54 15.03 0 8.45 6.25 14.92 15.14 14.92 6.36 0 11.74-2.85 15.25-6.69zM17.11 33.13c0 5.27 2.41 9.33 5.6 13.27C30.17 42.12 35 38.17 35 31.92c0-4.5-2.52-9.54-8.56-9.54s-9.33 5.05-9.33 10.75zm143.13 57.82c-2.08 1.54-4.94.88-6.47-1.21l-6.47-9c-6.47 8.12-12.95 11.41-23.48 11.41-13.17 0-20.3-7.9-17.77-21.17l.77-4.06c1.97-10.64 8.01-16.57 17.55-17.77-3.95-5.6-5.81-9.76-4.61-16.9l.22-1.32c1.97-11.63 9.22-17.99 21.5-17.99s19.42 6.91 17.55 17.88l-.55 3.29c-.22 1.32-1.21 2.3-2.63 2.3h-4.28c-1.32 0-2.08-.88-1.87-2.41l.55-3.29c1.1-6.47-1.87-10.31-9.33-10.31-7.02 0-10.86 3.73-11.96 10.42l-.22 1.32c-.77 4.83 0 8.56 3.84 13.82l15.36 21.17 10.2-13.82c1.32-1.87 2.3-2.41 4.28-2.41h3.07c1.54 0 2.19.77 2.19 1.87 0 .99-.33 1.86-1.54 3.4l-13.06 17.44 7.9 10.97c1.65 2.19 1.32 4.83-.77 6.36zm-17.88-16.9l-13.49-18.76h-.33c-7.35 0-11.08 3.95-12.62 12.29l-.77 4.06c-1.65 8.67 2.19 13.06 9.87 13.06 6.14 0 10.53-1.76 17.33-10.64zm227.78 2.64c-1.97 1.65-4.61 3.07-7.02 3.95-.22.44-2.19 2.52-3.62 3.84-2.41 2.19-4.94 3.51-7.13 4.5-1.54.55-3.07.88-4.83 1.32-2.63.66-5.38.99-7.9.99-6.58 0-12.62-1.97-16.68-4.61-.88-.44-1.65 0-2.3-.55-.33-.22-1.1-1.65-1.43-1.87-3.51-1.87-5.92-5.6-7.68-9.54-1.1-2.52-1.97-6.03-1.97-9.54 0-3.18 0-6.91.77-9.76.66-2.41 1.98-3.95 2.96-5.38 1.1-1.54 1.1-2.52 2.74-3.73l1.21-1.1c1.76-1.76 3.62-3.29 5.71-4.5 4.94-2.85 11.3-4.17 20.08-4.17.33 0 .55-.22.55-.44 0-.11 0-.22-.11-.33-4.06-3.18-8.89-8.01-9.11-14.37 0-.55-.44-1.76-.44-2.3 0-1.43.44-1.76.44-3.29 0-.66.44-1.76.44-3.07 0-1.98 2.63-4.72 3.73-6.36.33-.33.88-.22 1.1-.55 2.08-1.32 3.29-2.85 6.03-3.73 1.21-.44 2.85-.44 4.06-.88 2.19-.88 5.16-1.21 8.01-1.21 3.07 0 5.92.44 7.57.88 7.13 1.97 10.2 5.05 11.85 9.87.44 1.21.66 2.19.77 2.96.11.55.11 1.1.11 1.65 0 1.98-.55 4.28-1.1 5.71-.22.44-.55 1.76-.88 2.19-.44.66-.55.55-1.75 1.1-.33.22-.22 1.32-.55 1.54-1.21 1.32-2.85 2.19-5.05 2.85-1.1.22-1.97.44-3.18.44-.55 0-.99 0-1.65-.11-2.19-.22-2.85-.44-4.94-1.86-.77-.55-1.98-2.08-2.41-3.51-.33-.88-.44-1.76-.44-2.52 0-1.43.44-2.74 1.21-3.84.22-.33 1.21-1.43 2.41-1.43 1.65 0 2.3.77 2.3 1.97v.55c-.11.44-.77 1.65-1.32 1.65-1.21.77-1.54 1.1-1.54 2.41 0 1.65.88 2.96 2.74 3.62.77.33 1.54.44 2.3.44.99 0 1.97-.22 2.96-.66a4.331 4.331 0 0 0 2.52-2.85c.11-.44 1.32-1.43 1.32-2.63l.77-2.52v-.66c0-.88-.11-2.19-.11-2.85 0-1.87-.77-2.52-1.21-4.5-2.08-3.73-5.81-5.92-10.42-6.58h-.77c-1.21 0-3.18.11-3.4.11-1.32.22-2.3.66-3.62.88-1.54.33-1.76 1.87-3.07 2.41-.33.11-1.54.22-1.97.44-.44.22-1.1 1.54-1.43 1.97-.66.99-1.32 1.76-1.97 2.63-.88 1.54-2.08 5.49-2.08 8.23 0 .55.11 1.1.22 1.54.55 1.97.33 3.84 1.1 5.49.33 1.1 1.75 2.41 2.3 3.4.55.99.44 1.98 1.21 2.85.44.44 1.21.55 1.65 1.1.33.33.11.33.44.66.33.22.77.33 1.1.44 1.87.88 1.97 1.32 3.18 2.3.55.55.88 1.1.88 1.76 0 .44-.11.77-.44 1.21-.44.55-1.54.66-2.3.66-1.76-.44-3.07-.55-4.28-.99-.55-.11-1.1-.11-1.76-.11h-1.76c-.44 0-.88 0-1.1-.11-.22 0-.33-.11-.55-.11-.99 0-2.19.66-2.74.66-.88 0-1.65 0-2.63.11-.77.22-1.43.99-2.08 1.32-.99.44-1.54.22-2.3.44-2.3 1.1-4.72 3.4-5.92 5.49-.55 1.1-1.97 1.43-2.63 2.3-.22.44-.33 1.21-.55 1.65-.33.22-.66.33-.99.66-.44.55-.22.88-.44 1.76-.33.44-1.76.66-1.76 1.1 0 .55.44 1.21.44 1.76-.22.77-.66 1.43-.77 1.65-.66 1.54-.88 3.62-.88 5.81s.22 4.28.66 6.25v.99c0 .33 0 .77.11.99.33 1.32.77 2.08 1.21 2.85.66 1.21 1.21 2.41 1.86 3.4.88 1.21.66 1.65 1.43 2.63 2.3 2.41 5.92 5.38 9.33 5.81l3.95.77c.99.22 1.97.22 2.96.22 2.85 0 5.81-.66 8.01-1.43 3.4-1.32 5.71-3.29 7.68-5.38-1.54 0-3.07-.22-4.39-.44-2.08-.55-4.06-1.21-5.81-2.41-.99-.55-2.41-1.21-3.07-1.97-.55-.55-.77-1.32-1.21-1.76a20.05 20.05 0 0 1-2.41-5.16c-.44-1.1-.55-2.3-.55-3.4 0-.99.11-1.97.44-2.96.11-.55 0-1.65.33-2.19.55-1.43 1.21-2.3 2.19-3.4 1.65-2.74 6.25-4.39 9.33-4.39s6.58.44 8.67 2.52c.55.55.44.99.88 1.32.66.55 1.65.77 2.3 1.32 2.19 1.98 3.4 4.72 4.17 7.79.11.44.11.77.11 1.21 0 2.74.11 3.29.11 3.73 0 .66-.11 1.21-.22 2.08-.11.66-.99 2.41-1.32 3.4 2.52-1.76 4.17-4.28 4.94-6.14.11-.33 1.21-1.87 1.32-2.19.22-.55.33-.99.33-1.32 0-.44-.11-.77-.11-1.32 0-.22.11-.55.11-.77.11-.44.11-.88.11-1.32 0-1.54-.33-3.18-.55-4.61-.22-1.65-.99-2.96-1.43-4.17-.66-1.65-2.41-2.74-3.84-3.29-2.74-.66-3.29-3.29-3.4-5.6.11-1.1.22-1.76.88-1.76.33 0 .88.22 1.65.66 1.1.55 2.96.99 4.61 1.97.33.22.55.88.88.99.77 0 1.65-.22 1.76-.22 2.3.33 2.96.77 4.61.99.99.11 1.97.33 2.74.33 1.1-.11 1.86-.55 2.41-.77 1.65-.66 2.41-1.76 2.96-3.18.22-.55.33-1.21.33-1.65 0-.88-.33-1.54-.99-2.08-.44.33-1.21.55-1.86.55-.77 0-1.43-.22-1.98-.88-.44-.33-.66-.88-.66-1.54s.22-1.43.66-1.98c.44-.66 1.1-.88 1.87-.88.88 0 1.76.33 2.74 1.21 1.21.88 1.97 2.3 2.41 3.84.33.99.44 2.52.44 4.17 0 .33-.11 1.1-.22 1.54-.33.99-1.21 2.41-1.87 2.85-.22.22-.77.22-.99.44-.44.44-.22 1.65-4.83 2.96-.77.22-1.54.22-2.08.22h-.99c-1.32 0-1.97-.11-2.63-.22.44 1.54 1.54 2.85 1.97 5.49.22 1.21.33 2.19.33 3.18 0 1.1-.11 2.08-.33 3.18-.33 2.08-1.21 4.39-2.41 5.7-.22 1.32-1.65 3.4-3.84 5.16zm-12.62 2.85c.77-.88 1.32-1.75 1.32-2.08.22-.44 1.32-3.84 1.43-4.28.11-.99.33-2.41.33-3.84 0-.77-.11-1.65-.22-2.3-1.43-6.25-3.84-8.78-10.53-8.78-1.43.33-3.07.99-4.17 1.54-1.1.66-1.65 1.76-2.52 2.85-.11.66-.99.88-1.1 1.32 0 .44.22.99.22 1.65 0 .44-.11.88-.11 1.43 0 .66.11 1.54.66 2.3.33 1.1.44 2.63 1.1 3.62.44.88 1.32 1.1 1.86 1.98 1.32 1.32 2.08 2.3 3.95 3.07.88.33 1.54.33 2.41.66.77.11 2.3.77 2.96.77.77.11 1.65.11 2.41.11zM244.13 55.4c4.06 3.51 10.75 11.74 15.14 18.54 4.72 7.02 8.01 9.76 12.62 9.76 1.21 0 2.3-.22 3.18-.44.44 0 .66.11.66.55v6.36c0 .55-.11.77-.66 1.1-1.1.44-2.74.66-4.94.66-6.36 0-10.75-1.87-18.1-13.38-7.9-12.4-16.57-21.17-19.75-22.82-4.61.11-12.84 4.39-12.84 13.82 0 7.35 5.38 14.04 15.58 14.04 4.72 0 8.01-.77 10.75-2.08.33-.11.55 0 .55.55v6.91c0 .55-.22.66-.66.88-2.08 1.1-5.81 2.08-12.07 2.08-13.06 0-23.15-8.01-23.15-21.61 0-11.08 7.68-18.1 16.35-20.85-3.4-3.4-7.46-8.23-7.46-14.92 0-10.75 8.45-16.9 19.75-16.9 5.05 0 9 .77 11.52 2.19.44.22.55.66.55 1.1v6.8c0 .55-.44.66-.77.44-2.3-1.32-6.14-2.63-11.08-2.63-6.91 0-11.08 2.96-11.08 9.11 0 4.61 4.06 9.11 9 12.73h34.34c.55 0 .66.22.55.77l-1.1 6.58c-.11.44-.33.66-.88.66h-26zm200.74-30.83c-1.03.29-1.88.95-2.58 1.98-.7 1.02-1.04 2.05-1.04 3.07 0 1.46.44 2.71 1.32 3.73.88 1.02 2.19 1.54 3.95 1.54 2.49 0 4.31-.75 5.49-2.25 1.17-1.5 1.76-3.42 1.76-5.76 0-1.61-.31-3.03-.93-4.28-.62-1.24-1.43-2.29-2.41-3.13-.99-.84-2.12-1.48-3.4-1.92-1.28-.44-2.58-.66-3.9-.66-2.41 0-4.55.55-6.42 1.65s-3.44 2.52-4.72 4.28a18.613 18.613 0 0 0-2.85 5.87c-.62 2.16-.93 4.33-.93 6.53 0 2.05.15 3.69.44 4.94 1.83-.37 3.36-.55 4.61-.55 2.71 0 4.83.68 6.36 2.03 1.54 1.35 2.3 2.87 2.3 4.55 0 2.12-.66 3.82-1.97 5.1-1.32 1.28-3 1.92-5.05 1.92-2.27 0-4.28-.58-6.03-1.76-1.75-1.17-3.25-2.78-4.5-4.83a13.575 13.575 0 0 0-2.63 5.65c-.44 2.08-.66 3.86-.66 5.32 0 3.88.73 7.5 2.19 10.86 1.46 3.37 3.51 6.29 6.14 8.78 2.63 2.49 5.76 4.44 9.38 5.87 3.62 1.43 7.59 2.14 11.9 2.14 2.34 0 5.05-.31 8.12-.93 3.07-.62 5.98-1.74 8.72-3.35s5.06-3.79 6.97-6.53c1.9-2.74 2.85-6.2 2.85-10.37 0-2.05-.27-4.04-.82-5.98-.55-1.94-1.43-3.68-2.63-5.21-1.21-1.54-2.78-2.76-4.72-3.68-1.94-.91-4.26-1.37-6.97-1.37-2.12 0-3.99.35-5.6 1.04-1.61.7-2.96 1.61-4.06 2.74-1.1 1.13-1.92 2.45-2.47 3.95-.55 1.5-.82 3.06-.82 4.66 0 3.07.88 5.76 2.63 8.06 1.76 2.3 4.31 3.46 7.68 3.46.88 0 1.83-.15 2.85-.44 1.02-.29 1.94-.75 2.74-1.37.8-.62 1.48-1.43 2.03-2.41.55-.99.82-2.18.82-3.57 0-2.12-.59-3.69-1.76-4.72-1.17-1.02-2.49-1.54-3.95-1.54-1.1 0-1.97.22-2.63.66s-1.06.88-1.21 1.32c1.61.07 2.63.55 3.07 1.43.44.88.66 1.57.66 2.08 0 2.19-1.17 3.29-3.51 3.29-1.24 0-2.27-.44-3.07-1.32-.81-.88-1.21-1.9-1.21-3.07 0-1.76.73-3.35 2.19-4.77 1.46-1.43 3.47-2.14 6.03-2.14 2.34 0 4.33.82 5.98 2.47 1.65 1.65 2.47 3.64 2.47 5.98 0 1.39-.26 2.74-.77 4.06-.51 1.32-1.26 2.51-2.25 3.57s-2.23 1.9-3.73 2.52c-1.5.62-3.24.93-5.21.93-4.39 0-7.84-1.52-10.37-4.55-2.52-3.03-3.79-6.89-3.79-11.58 0-2.41.55-4.84 1.65-7.3 1.1-2.45 2.45-4.44 4.06-5.98 1.39-1.39 2.85-2.49 4.39-3.29 1.54-.8 3.18-1.43 4.94-1.87 1.75-.44 3.62-.77 5.59-.99 1.98-.22 4.1-.44 6.36-.66 1.83-.15 3.77-.46 5.82-.93 2.05-.47 3.91-1.24 5.6-2.3 1.68-1.06 3.09-2.43 4.22-4.11 1.13-1.68 1.7-3.77 1.7-6.25 0-.95-.15-1.94-.44-2.96a7.528 7.528 0 0 0-1.37-2.69c-.62-.77-1.45-1.41-2.47-1.92-1.03-.51-2.23-.77-3.62-.77-.88 0-1.75.13-2.63.38-.88.26-1.7.66-2.47 1.21a6.96 6.96 0 0 0-1.92 2.08c-.51.84-.81 1.81-.88 2.91.95-.73 2.05-1.1 3.29-1.1s2.23.38 2.96 1.15c.73.77 1.1 1.77 1.1 3.02 0 1.68-.49 2.91-1.48 3.68s-2.21 1.15-3.68 1.15c-2.19 0-3.75-.71-4.66-2.14-.92-1.43-1.37-2.91-1.37-4.44 0-2.92 1.08-5.43 3.24-7.52 2.16-2.08 5.14-3.13 8.94-3.13 3.51 0 6.54 1.13 9.11 3.4 2.56 2.27 3.84 5.71 3.84 10.31 0 3.29-.62 6.09-1.87 8.39-1.25 2.3-2.93 4.22-5.05 5.76-2.12 1.54-4.55 2.73-7.3 3.57-2.74.84-5.65 1.45-8.72 1.81 1.1.44 2.19 1.15 3.29 2.14 1.1.99 2.08 2.21 2.96 3.68.88 1.46 1.61 3.16 2.19 5.1.58 1.94.88 4.11.88 6.53 0 5.92-1.61 11.04-4.83 15.36-3.22 4.32-7.57 7.64-13.06 9.98-2.56 1.1-5.16 1.9-7.79 2.41-2.63.51-5.71.77-9.22.77-4.68 0-9.05-.68-13.11-2.03s-7.59-3.33-10.59-5.92c-3-2.6-5.36-5.81-7.08-9.65-1.72-3.84-2.58-8.25-2.58-13.22 0-1.54.18-3.2.55-4.99.36-1.79.95-3.57 1.75-5.32.8-1.76 1.81-3.44 3.02-5.05 1.21-1.61 2.69-3 4.44-4.17-.73-1.98-1.1-4.42-1.1-7.35 0-2.71.51-5.36 1.54-7.95 1.02-2.6 2.47-4.9 4.33-6.91 1.87-2.01 4.09-3.62 6.69-4.83 2.6-1.21 5.5-1.81 8.72-1.81 1.9 0 3.73.27 5.49.82 1.75.55 3.29 1.39 4.61 2.52 1.32 1.14 2.38 2.52 3.18 4.17.8 1.65 1.21 3.57 1.21 5.76 0 3.07-1.04 5.71-3.13 7.9-2.08 2.19-4.77 3.29-8.06 3.29-2.56 0-4.61-.79-6.14-2.36-1.54-1.57-2.3-3.42-2.3-5.54 0-2.27.66-4.08 1.97-5.43 1.32-1.35 2.71-2.21 4.17-2.58l.99 2.19zM429.4 43.11c.58 1.39 1.32 2.51 2.19 3.35.88.84 1.97 1.26 3.29 1.26.66 0 1.24-.18 1.76-.55.51-.37.77-.95.77-1.76 0-1.02-.48-1.76-1.43-2.19-.95-.44-1.98-.66-3.07-.66-.51 0-1.13.07-1.87.22l-1.65.33zM642.36 60.5c0 3.85-.94 7.5-2.8 10.94-1.87 3.44-4.35 6.45-7.44 9.01-3.09 2.57-6.62 4.61-10.59 6.12a33.962 33.962 0 0 1-12.25 2.27c-4.9 0-9.27-1.23-13.12-3.67-7.47 3.85-15.63 5.77-24.5 5.77-3.04 0-5.95-.32-8.75-.96-2.8-.64-5.31-1.69-7.52-3.15a15.758 15.758 0 0 1-5.25-5.69c-1.29-2.33-1.93-5.19-1.93-8.58 0-4.08 1.17-7.99 3.5-11.73 2.33-3.73 4.96-6.94 7.88-9.62 3.62-3.26 7.73-6.36 12.34-9.27 4.61-2.92 8.78-5.71 12.51-8.4.7-2.8 1.66-5.77 2.89-8.93 1.22-3.15 2.65-6.06 4.29-8.75-9.8 0-19.11 1.64-27.91 4.9-8.81 3.27-16.48 7.73-23.01 13.39-6.54 5.66-11.73 12.28-15.58 19.86-3.85 7.58-5.78 15.63-5.78 24.15 0 5.95 1.14 11.08 3.41 15.4 2.27 4.31 5.42 7.9 9.45 10.76 4.02 2.86 8.75 4.96 14.17 6.3 5.42 1.34 11.34 2.01 17.76 2.01 7.81 0 15.25-1.11 22.31-3.33 7.06-2.22 13.56-5.78 19.51-10.67.58-.47 1.02-.67 1.31-.61.29.06.2.44-.26 1.14-1.05 1.63-2.86 3.29-5.43 4.99-2.57 1.69-5.77 3.26-9.62 4.72-3.85 1.46-8.2 2.65-13.04 3.59-4.84.93-10.06 1.4-15.66 1.4-6.3 0-12.43-.73-18.38-2.19-5.95-1.46-11.26-3.74-15.93-6.83s-8.43-7.09-11.29-11.99c-2.86-4.9-4.29-10.73-4.29-17.5 0-8.63 2.24-16.62 6.74-23.97 4.49-7.35 10.41-13.77 17.76-19.25 7.35-5.48 15.75-9.77 25.2-12.86a92.885 92.885 0 0 1 29.05-4.64c.35-.7.88-1.52 1.57-2.45.7-.93 1.43-1.86 2.19-2.8.76-.93 1.58-1.72 2.45-2.36.88-.64 1.72-.96 2.54-.96 1.05 0 1.81.29 2.27.88.46.58.7 1.17.7 1.75 0 1.05-.21 2.22-.61 3.5a19.29 19.29 0 0 1-1.49 3.5c7.35 1.29 13.24 3.94 17.67 7.96 4.43 4.02 6.65 9.77 6.65 17.24 0 3.85-.67 7.73-2.01 11.64a56.715 56.715 0 0 1-5.34 11.29 58.978 58.978 0 0 1-7.7 9.98c-2.92 3.04-5.95 5.6-9.1 7.7 1.63 1.17 3.5 2.19 5.6 3.06 2.1.88 4.26 1.31 6.48 1.31 2.8 0 5.63-.41 8.49-1.22 2.86-.81 5.42-2.1 7.7-3.85 2.27-1.75 4.11-4.02 5.51-6.83 1.4-2.8 2.1-6.18 2.1-10.15 0-2.21-.32-4.2-.96-5.95-.64-1.75-1.49-3.24-2.54-4.46s-2.22-2.19-3.5-2.89c-1.29-.7-2.51-1.11-3.67-1.23-.24 0-.38-.09-.44-.26s.09-.32.44-.44c.93 0 1.98-.15 3.15-.44 1.17-.29 2.1-.44 2.8-.44 2.8 0 5.04 1.2 6.74 3.59 1.69 2.39 2.54 5.46 2.54 9.19zm-47.42 23.62c-2.22-1.51-4.11-3.47-5.69-5.86s-2.89-5.01-3.94-7.88c-1.05-2.86-1.81-5.89-2.28-9.1-.47-3.21-.7-6.44-.7-9.71 0-2.33.06-4.52.18-6.56.11-2.04.41-4.23.88-6.56-2.69 2.45-5.57 5.02-8.66 7.7-3.09 2.69-5.75 5.19-7.96 7.52-1.4 1.4-2.86 3.04-4.38 4.9a82.066 82.066 0 0 0-4.29 5.77 33.317 33.317 0 0 0-3.33 6.3c-.88 2.22-1.31 4.38-1.31 6.47 0 2.57.53 4.67 1.58 6.3 1.05 1.64 2.45 2.92 4.2 3.85 1.75.94 3.7 1.57 5.86 1.92 2.16.35 4.34.52 6.56.52 3.96 0 7.99-.46 12.08-1.4 4.08-.93 7.81-2.33 11.2-4.2zm27.83-41.47c0-6.42-1.93-12.02-5.78-16.8-3.85-4.78-9.04-7.81-15.58-9.1-1.29 2.69-3.41 5.89-6.39 9.62-2.97 3.74-6.39 7.41-10.24 11.03-.47 1.98-.7 4.38-.7 7.17 0 7.7 1.58 14.76 4.73 21.17 3.15 6.42 7.17 11.44 12.08 15.05 7.35-5.13 12.83-11.11 16.45-17.94 3.62-6.83 5.43-13.56 5.43-20.21zm-22.23-26.08c-1.17-.23-2.48-.41-3.94-.52-1.46-.11-2.83-.18-4.11-.18a55.12 55.12 0 0 0-3.94 8.14c-1.11 2.86-1.96 5.63-2.54 8.31 2.8-1.98 5.63-4.46 8.49-7.44 2.86-2.98 4.87-5.75 6.04-8.31zm1.4-5.42c0-.81-.12-1.52-.35-2.1-.23-.58-.7-.88-1.4-.88-.82 0-1.58.23-2.28.7-.7.47-1.37 1.05-2.01 1.75-.64.7-1.2 1.43-1.66 2.19-.47.76-.82 1.37-1.05 1.84 2.8 0 5.36.29 7.7.88.23-.7.46-1.43.7-2.19.23-.76.35-1.49.35-2.19z" class="cls-1"/></svg>