<svg xmlns="http://www.w3.org/2000/svg" id="Layer_1" width="317.7" height="311.6" viewBox="0 0 317.7 311.6"><style>.st0{fill:#838485}.st1{fill:#686867}.st2{fill:#838484}.st3{fill:#4d4d4d}.st4{fill:#343434}.st5{fill:#1b1b1a}.st6{fill:#030303}.st7{fill:#90908f}.st8{fill:#787877}.st9{fill:#a7a7a7}.st10{fill:#bfc0c0}.st11{fill:#dbdadb}.st12{fill:#f6f6f5}.st13{fill:#616262}.st14{fill:#2997ff}</style><path d="M181.6 311.6v-17.4c29.6-4.2 29.6-9.4 23-29.6-4.7-14.1-12.2-35.2-19.2-54H93.9c-5.2 14.5-11.7 32.4-16.4 46.9-9.9 29.6 1.4 33.3 38.5 36.6v17.4H0v-17.4c29.6-3.8 37.1-8 53-47.4L150.6 4.2 173.2 0c30 81.7 61.9 165.2 92.4 243.5 17.4 43.6 21.6 46.9 52.1 50.7v17.4H181.6zM140.3 87.3c-13.6 33.8-26.7 65.2-38.5 99.5h74.6l-36.1-99.5z"/><path d="M128.4 72.1h-26.8L44.3 215.3h26.2z"/><path d="M91.2 74.2h13.7v13.7H91.2z" class="st0" transform="rotate(-23.253 97.988 80.996)"/><path d="M76.8 110.1h13.7v13.7H76.8z" class="st1" transform="rotate(-23.253 83.672 116.887)"/><path d="M84 92.1h13.7v13.7H84z" class="st2" transform="rotate(-23.253 90.83 98.942)"/><path d="M69.7 128h13.7v13.7H69.7z" class="st3" transform="rotate(-23.253 76.513 134.833)"/><path d="M62.5 145.9h13.7v13.7H62.5z" class="st4" transform="rotate(-23.253 69.355 152.778)"/><path d="M55.4 163.9h13.7v13.7H55.4z" class="st5" transform="rotate(-23.253 62.197 170.724)"/><path d="M48.2 181.8h13.7v13.7H48.2z" class="st6" transform="rotate(-23.253 55.038 188.67)"/><path d="M42.8 169.3h13.7V183H42.8z" class="st7" transform="rotate(-23.253 49.645 176.118)"/><path d="M35.7 187.2h13.7v13.7H35.7z" class="st8" transform="rotate(-23.253 42.486 194.063)"/><path d="M50 151.3h13.7V165H50z" class="st9" transform="rotate(-23.253 56.803 158.172)"/><path d="M57.1 133.4h13.7v13.7H57.1z" class="st10" transform="rotate(-23.253 63.961 140.227)"/><path d="M64.3 115.5H78v13.7H64.3z" class="st11" transform="rotate(-23.253 71.12 122.28)"/><path d="M71.4 97.5h13.7v13.7H71.4z" class="st12" transform="rotate(-23.253 78.278 104.335)"/><path d="M44.2 215.3L38.9 203l-12.5 5.4 2.9 6.9z" class="st13"/><path d="M44.9 215.3l12-5.1-5.4-12.6-12.6 5.4 5.3 12.3z"/><path d="M71.9 217.8h-48c-3.3 0-6.4-1.7-8.3-4.4-1.9-2.8-2.2-6.3-.9-9.4l54-129.7c1.6-3.7 5.2-6.1 9.2-6.1h44.3c3.3 0 6.4 1.6 8.2 4.3 1.9 2.7 2.3 6.2 1.1 9.2L81.2 211.5c-1.5 3.8-5.2 6.3-9.3 6.3zm5.9-144.6c-2 0-3.8 1.2-4.6 3.1L19.2 206c-.6 1.6-.5 3.3.5 4.7.9 1.4 2.4 2.2 4.1 2.2h48c2 0 3.9-1.3 4.6-3.2L126.7 80c.6-1.6.4-3.2-.5-4.6-.9-1.4-2.4-2.2-4.1-2.2H77.8z" class="st14"/></svg>