<svg xmlns="http://www.w3.org/2000/svg" id="Layer_1" viewBox="0 0 501.65 418.01" width="501.65" height="418.01"><defs><style>.cls-1{fill:#b3b4b4}.cls-2{fill:#505150}.cls-3{fill:#e6e7e8;stroke:#b3b4b4;stroke-miterlimit:10}.cls-4{fill:none;stroke:#505150;stroke-linecap:round;stroke-linejoin:round;stroke-width:9px}</style></defs><rect width="309.71" height="417.01" x="191.44" y=".5" class="cls-3" rx="22.91" ry="22.91"/><path d="M149.15 150.09c-.36 9.47-6.01 15.29-15.11 15.29-8.01 0-12.56-4.01-14.2-12.74-12.56 8.92-21.48 12.74-29.5 12.74-10.56 0-18.21-6.55-18.21-15.66 0-10.92 9.83-19.66 33.86-29.5l13.84-5.64v-3.64c0-7.46-.18-9.47-1.46-12.02-2.55-5.1-8.01-7.83-15.29-7.83-5.83 0-10.92 1.46-12.93 4.01-1.46 1.64-1.64 2.19-2.37 6.01-.73 5.28-3.46 8.19-7.28 8.19-3.28 0-5.46-2.18-5.46-5.28 0-3.28 2.37-6.92 6.37-10.2 5.64-4.37 13.47-6.55 23.49-6.55 12.38 0 20.76 3.64 25.31 10.74 2.19 3.64 2.55 6.01 2.55 14.93v29.68q0 10.38.73 12.38c.91 2.55 2.73 3.82 4.92 3.82 3.82 0 6.55-3.09 7.46-8.74h3.28zm-39.14-27.31c-15.11 6.19-22.94 14.02-22.94 23.49 0 7.46 4.37 12.56 10.56 12.56 5.46 0 13.47-4.01 22.21-11.11v-28.95l-9.83 4.01z" class="cls-1"/><path d="M0 55.35h11.89v11.89H0zm35.68-11.89H11.89v11.89h35.68V43.46H35.68zm-23.79 71.35v11.89h23.79v-11.89H11.89zm0-23.6h23.6V79.32H11.71v11.71H0v23.78h11.89v-23.6z" class="cls-2"/><path d="M59.46 114.81V55.35H47.57v12.08H35.49v11.89h12.08v23.6H35.68v11.89h11.89v11.89h23.78v-11.89H59.46zm227.5-38.53h-5.09V33.85h5.47l19.39 30.16 1.77 3.37-.11-3.34V33.85h5.09v42.44h-5.41L288.62 46l-1.77-3.42.11 3.42v30.3zm47.55.85c-3.99 0-7.4-1.35-10.21-4.06s-4.22-6.73-4.22-12.07 1.41-9.34 4.22-12.04 6.22-4.06 10.21-4.06 7.37 1.35 10.19 4.06 4.22 6.72 4.22 12.04-1.41 9.37-4.22 12.07-6.21 4.06-10.19 4.06zm0-4.24c2.73 0 4.94-1.09 6.6-3.27 1.67-2.18 2.5-5.05 2.5-8.63s-.83-6.42-2.5-8.6c-1.67-2.18-3.87-3.27-6.6-3.27s-4.96 1.09-6.63 3.27c-1.67 2.18-2.5 5.04-2.5 8.6s.83 6.45 2.5 8.63c1.67 2.18 3.88 3.27 6.63 3.27zm26.06 3.39h-5.09V45.74h5.09v5.28c1.08-1.66 2.12-2.89 3.13-3.69 1.01-.8 2.07-1.41 3.17-1.82 1.1-.41 2.33-.62 3.68-.62 1.91 0 3.63.39 5.15 1.18 1.52.78 2.7 1.94 3.54 3.46.84 1.52 1.26 3.96 1.26 7.31v19.44h-5.09V59.03c0-2.73-.18-4.67-.55-5.81-.37-1.14-1.08-2.03-2.13-2.68a6.474 6.474 0 0 0-3.45-.97c-1.5 0-2.92.44-4.27 1.31-1.35.88-2.43 2.1-3.24 3.66-.81 1.57-1.22 3.81-1.22 6.73v15.01zm47.11-7.84h5.09v.27c0 1.35-.53 2.73-1.59 4.13s-2.46 2.47-4.2 3.2-3.74 1.09-6 1.09c-4.57 0-8.1-1.5-10.58-4.51s-3.72-6.81-3.72-11.4 1.31-8.6 3.94-11.69 6.01-4.63 10.15-4.63c2.28 0 4.34.5 6.19 1.5 1.85 1 3.31 2.57 4.38 4.69 1.08 2.12 1.61 5.08 1.61 8.87v1.7H391.7c0 3.26.86 5.95 2.57 8.07 1.71 2.11 4.08 3.17 7.12 3.17 2.18 0 3.78-.43 4.78-1.3 1-.87 1.5-1.83 1.5-2.88v-.27zm-15.65-10.61h16.06v-.6c0-1.42-.33-2.8-1-4.14-.67-1.34-1.58-2.33-2.76-2.98-1.17-.65-2.54-.97-4.1-.97-1.85 0-3.55.76-5.11 2.28-1.56 1.52-2.59 3.66-3.09 6.41zm-111.19 82.14h5.52v.27c0 2.35.83 3.99 2.49 4.91 1.66.92 3.86 1.38 6.62 1.38 2.41 0 4.42-.7 6.06-2.11 1.63-1.4 2.45-3.26 2.45-5.55 0-1.86-.7-3.38-2.1-4.57-1.4-1.17-3.53-2.33-6.39-3.5l-2.21-.9c-3-1.24-5.25-2.47-6.73-3.68s-2.59-2.56-3.32-4.04-1.09-3.13-1.09-4.95c0-3.21 1.13-5.92 3.4-8.13 2.27-2.21 5.81-3.31 10.64-3.31 4.42 0 7.54.82 9.34 2.46 1.8 1.64 2.7 3.55 2.7 5.74v.27h-5.52v-.27c0-.69-.28-1.38-.83-2.05-.55-.67-1.39-1.16-2.5-1.46-1.11-.3-2.33-.45-3.66-.45-2.71 0-4.72.68-6.02 2.04-1.3 1.36-1.95 2.91-1.95 4.64 0 1.17.31 2.27.93 3.3.62 1.03 1.47 1.88 2.55 2.56 1.08.68 2.91 1.58 5.48 2.71l2.59 1.12c4.15 1.8 6.93 3.7 8.33 5.68 1.38 1.99 2.08 4.13 2.08 6.42 0 2.13-.57 4.2-1.7 6.19-1.13 2-2.7 3.51-4.7 4.54-2.01 1.03-4.68 1.54-8.01 1.54s-5.82-.38-7.94-1.13c-2.12-.75-3.74-2-4.84-3.72-1.1-1.73-1.65-3.62-1.65-5.67v-.27zm40.05 9.51h-5.09v-44.13h5.09v18.87c1.08-1.66 2.12-2.89 3.13-3.69 1.01-.8 2.07-1.41 3.17-1.82 1.1-.41 2.33-.62 3.68-.62 1.91 0 3.63.39 5.15 1.18 1.52.78 2.7 1.94 3.54 3.46.84 1.52 1.26 3.96 1.26 7.31v19.44h-5.09v-17.25c0-2.73-.18-4.67-.55-5.81a4.866 4.866 0 0 0-2.08-2.68c-1.02-.65-2.19-.97-3.5-.97-1.5 0-2.92.44-4.27 1.31-1.35.88-2.43 2.1-3.24 3.66-.81 1.57-1.22 3.81-1.22 6.73v15.01zm45.94 0c-.53-1.64-.79-3.05-.79-4.24-2.17 2.21-4.02 3.6-5.55 4.2s-3 .89-4.41.89c-2.36 0-4.39-.74-6.09-2.23s-2.54-3.53-2.54-6.13c0-2.95 1.19-5.22 3.58-6.83 2.39-1.6 6.5-2.99 12.35-4.15l2.66-.52v-3.45c0-1.88-.61-3.19-1.82-3.95-1.21-.76-2.67-1.13-4.37-1.13-2.04 0-3.62.46-4.76 1.39s-1.71 2.01-1.71 3.25v.44h-5.52v-.41c0-1.35.56-2.74 1.67-4.18 1.12-1.44 2.6-2.52 4.44-3.25 1.85-.73 3.87-1.09 6.07-1.09s4.16.35 5.94 1.04c1.79.69 3.09 1.63 3.91 2.8s1.23 3.38 1.23 6.62v11.86c0 1.29.03 2.66.1 4.08.06 1.43.39 3.09.97 4.99h-5.36zm-.79-15.39l-1.48.38c-4.97 1.26-8.15 2.45-9.54 3.57-1.39 1.13-2.08 2.47-2.08 4.04 0 .8.21 1.55.62 2.24.41.69 1.02 1.23 1.83 1.61.81.38 1.61.57 2.4.57 1.37 0 2.72-.41 4.04-1.24a8.65 8.65 0 0 0 3.1-3.31c.74-1.38 1.11-2.99 1.11-4.83v-3.03zm18.51 15.39h-5.09v-30.54h5.09v5.39c.86-1.55 1.8-2.75 2.82-3.61 1.02-.86 2.1-1.51 3.25-1.96 1.15-.45 2.32-.67 3.52-.67 1.08 0 2.02.16 2.8.46v5.28a9.098 9.098 0 0 0-3.92-.88c-1.96 0-3.86.84-5.7 2.52-1.84 1.68-2.76 4.65-2.76 8.91v15.09zm21.22 11.87h-5.09v-42.41h5.09v5.3c1.07-1.8 2.08-3.08 3.05-3.83.97-.75 2.06-1.32 3.27-1.72 1.21-.4 2.47-.6 3.75-.6 2.36 0 4.51.63 6.46 1.9 1.95 1.27 3.46 3.16 4.54 5.67 1.08 2.52 1.62 5.34 1.62 8.48 0 4.65-1.13 8.51-3.38 11.58-2.25 3.07-5.42 4.61-9.48 4.61-1.31 0-2.54-.19-3.71-.56s-2.2-.93-3.11-1.67c-.9-.74-1.91-2.06-3.01-3.95v17.2zm0-27.12c0 3.46.76 6.31 2.27 8.53 1.51 2.22 3.64 3.34 6.39 3.34 2.51 0 4.59-.98 6.25-2.95 1.66-1.97 2.49-4.91 2.49-8.83 0-4.58-.88-7.75-2.63-9.53s-3.75-2.67-6-2.67c-1.62 0-3.14.49-4.55 1.46-1.41.98-2.46 2.42-3.17 4.35-.7 1.92-1.05 4.02-1.05 6.3zm-98.63 79.35h5.09v.27c0 1.67-.58 3.37-1.74 5.1-1.16 1.73-2.73 3-4.72 3.8-1.99.81-4.32 1.21-7 1.21-5.4 0-9.81-1.88-13.23-5.63-3.43-3.75-5.14-9.37-5.14-16.86s1.7-13.06 5.11-16.83c3.41-3.77 7.84-5.66 13.29-5.66 2.66 0 4.99.4 6.97 1.21 1.99.81 3.56 2.09 4.72 3.85 1.16 1.75 1.74 3.44 1.74 5.06v.27h-5.09v-.27c0-1.04-.32-2.04-.97-2.99-.65-.96-1.58-1.68-2.79-2.16-1.21-.48-2.67-.72-4.37-.72-4.34 0-7.58 1.71-9.71 5.14-2.13 3.43-3.19 7.79-3.19 13.1s1.07 9.74 3.2 13.15c2.14 3.41 5.36 5.11 9.67 5.11 2.96 0 5.06-.61 6.3-1.82s1.86-2.57 1.86-4.06v-.27zm16.3 9.1h-5.09v-30.54h5.09v5.39c.86-1.55 1.8-2.75 2.82-3.61 1.02-.86 2.1-1.51 3.25-1.96 1.15-.45 2.32-.67 3.52-.67 1.08 0 2.02.16 2.8.46v5.28a9.098 9.098 0 0 0-3.92-.88c-1.96 0-3.86.84-5.7 2.52-1.84 1.68-2.76 4.65-2.76 8.91v15.09zm16.54-37.32v-5.11h5.09v5.11h-5.09zm0 6.78h5.09v30.54h-5.09v-30.54zm11.27 22.48h5.09v.11c0 1.31.5 2.4 1.49 3.27.99.87 2.68 1.3 5.04 1.3 2.08 0 3.77-.51 5.06-1.53 1.29-1.02 1.94-2.22 1.94-3.61 0-1.88-1.27-3.21-3.8-3.99l-2.58-.79-1.71-.55-3.51-1.09c-4-1.48-6.01-3.93-6.01-7.36 0-2.41.97-4.52 2.91-6.34 1.94-1.82 4.83-2.73 8.65-2.73s6.46.78 8.05 2.34c1.6 1.56 2.39 3.29 2.39 5.18v.11h-5.11v-.11c0-1.02-.51-1.82-1.53-2.41-1.02-.58-2.38-.88-4.08-.88-2.02 0-3.57.42-4.65 1.27-1.08.85-1.61 1.89-1.61 3.13 0 .95.35 1.72 1.05 2.31.7.59 1.87 1.13 3.52 1.6l2.45.68 1.77.52c2.46.71 4 1.21 4.61 1.5.61.29 1.22.67 1.83 1.12.85.66 1.48 1.45 1.89 2.38s.61 2.01.61 3.25c0 2.88-1.03 5.3-3.09 7.27-2.06 1.97-5.07 2.95-9.02 2.95-2.5 0-4.58-.37-6.23-1.12s-2.97-1.78-3.95-3.1-1.47-2.85-1.47-4.58v-.11zm35.08 19.93h-5.09v-42.41h5.09v5.3c1.07-1.8 2.08-3.08 3.05-3.83.97-.75 2.06-1.32 3.27-1.72 1.21-.4 2.47-.6 3.75-.6 2.36 0 4.51.63 6.46 1.9 1.95 1.27 3.46 3.16 4.54 5.67 1.08 2.52 1.62 5.34 1.62 8.48 0 4.65-1.13 8.51-3.38 11.58-2.25 3.07-5.42 4.61-9.48 4.61-1.31 0-2.54-.19-3.71-.56s-2.2-.93-3.11-1.67c-.9-.74-1.91-2.05-3.01-3.95v17.2zm0-27.12c0 3.46.76 6.31 2.27 8.53 1.51 2.22 3.64 3.34 6.39 3.34 2.51 0 4.59-.98 6.25-2.95 1.66-1.97 2.49-4.91 2.49-8.83 0-4.58-.88-7.75-2.63-9.53s-3.75-2.67-6-2.67c-1.62 0-3.14.49-4.55 1.46-1.41.98-2.46 2.42-3.17 4.35-.7 1.92-1.05 4.02-1.05 6.3zm-105.49 78.94h5.52v.27c0 2.35.83 3.99 2.49 4.91 1.66.92 3.86 1.38 6.62 1.38 2.41 0 4.42-.7 6.06-2.11 1.63-1.41 2.45-3.26 2.45-5.56 0-1.86-.7-3.38-2.1-4.57-1.4-1.17-3.53-2.33-6.39-3.5l-2.21-.9c-3-1.24-5.25-2.47-6.73-3.68s-2.59-2.56-3.32-4.04-1.09-3.13-1.09-4.95c0-3.21 1.13-5.92 3.4-8.13s5.81-3.31 10.64-3.31c4.42 0 7.54.82 9.34 2.46 1.8 1.64 2.7 3.55 2.7 5.74v.27h-5.52v-.27c0-.69-.28-1.38-.83-2.05-.55-.67-1.39-1.16-2.5-1.46-1.11-.3-2.33-.45-3.66-.45-2.71 0-4.72.68-6.02 2.04-1.3 1.36-1.95 2.91-1.95 4.64 0 1.17.31 2.27.93 3.3s1.47 1.88 2.55 2.56c1.08.67 2.91 1.58 5.48 2.71l2.59 1.12c4.15 1.8 6.93 3.7 8.33 5.68 1.38 1.99 2.08 4.13 2.08 6.42 0 2.13-.57 4.19-1.7 6.19s-2.7 3.51-4.7 4.54c-2.01 1.03-4.68 1.54-8.01 1.54s-5.82-.38-7.94-1.13c-2.12-.75-3.74-2-4.84-3.72-1.1-1.73-1.65-3.62-1.65-5.67v-.27zm53.64 5.19v4.27c-2.48.6-4.38.9-5.69.9-1.9 0-3.61-.38-5.13-1.15-1.52-.77-2.68-1.88-3.47-3.34s-1.19-3.78-1.19-6.97v-15.7h-5.3v-4.24h5.3v-7.22h5.09v7.22H333v4.24h-8.91v14.25c0 2.7.21 4.57.63 5.62.42 1.05 1.08 1.82 1.98 2.31s1.98.74 3.24.74c1 0 2.52-.31 4.54-.93zm11.24 4.32h-5.09v-30.54h5.09v5.39c.86-1.55 1.8-2.75 2.82-3.61 1.02-.86 2.1-1.51 3.25-1.96 1.15-.45 2.32-.67 3.52-.67 1.08 0 2.02.16 2.8.46v5.28a9.098 9.098 0 0 0-3.92-.88c-1.96 0-3.86.84-5.7 2.52-1.84 1.68-2.76 4.65-2.76 8.91v15.09zm29.51.85c-3.99 0-7.4-1.35-10.21-4.06s-4.22-6.73-4.22-12.07 1.41-9.34 4.22-12.04 6.22-4.06 10.21-4.06 7.37 1.35 10.19 4.06 4.22 6.72 4.22 12.04-1.41 9.37-4.22 12.07-6.21 4.06-10.19 4.06zm0-4.24c2.73 0 4.94-1.09 6.6-3.27 1.67-2.18 2.5-5.05 2.5-8.63s-.83-6.42-2.5-8.6c-1.67-2.18-3.87-3.27-6.6-3.27s-4.96 1.09-6.63 3.27c-1.67 2.18-2.5 5.04-2.5 8.6s.83 6.45 2.5 8.63c1.67 2.18 3.88 3.27 6.63 3.27zm26.06 3.39h-5.09v-30.54h5.09v5.28c1.08-1.66 2.12-2.89 3.13-3.69 1.01-.8 2.07-1.41 3.17-1.82 1.1-.41 2.33-.62 3.68-.62 1.91 0 3.63.39 5.15 1.18 1.52.78 2.7 1.94 3.54 3.46.84 1.52 1.26 3.96 1.26 7.31v19.44h-5.09v-17.25c0-2.73-.18-4.67-.55-5.81-.37-1.14-1.08-2.03-2.13-2.68a6.474 6.474 0 0 0-3.45-.97c-1.5 0-2.92.44-4.27 1.31-1.35.88-2.43 2.1-3.24 3.66-.81 1.57-1.22 3.81-1.22 6.73v15.01zm48.64-6.45c-1.04 2.15-2.39 3.76-4.06 4.84-1.66 1.08-3.64 1.61-5.92 1.61-3.64 0-6.64-1.43-9-4.28-2.37-2.85-3.55-6.6-3.55-11.25 0-3.06.53-5.85 1.59-8.37 1.06-2.52 2.55-4.39 4.47-5.63 1.92-1.24 4.17-1.86 6.74-1.86 1.92 0 3.64.38 5.15 1.13 1.52.76 3.04 2.29 4.58 4.61v-4.89h5.09v24.96c0 6.27-.66 10.41-1.97 12.41-1.32 2-2.98 3.49-5 4.46-2.02.97-4.39 1.45-7.11 1.45-2.52 0-4.78-.37-6.78-1.12-2-.75-3.52-1.77-4.56-3.08-1.04-1.3-1.56-2.66-1.56-4.06v-.46h5.09v.44c0 1.35.73 2.43 2.19 3.24s3.32 1.22 5.57 1.22c1.83 0 3.4-.31 4.71-.94 1.31-.63 2.36-1.65 3.15-3.06.8-1.41 1.19-3.98 1.19-7.7v-3.66zm0-9.73c0-3.26-.84-5.91-2.52-7.93s-3.69-3.04-6.04-3.04c-2.49 0-4.55 1.02-6.2 3.06-1.65 2.04-2.47 4.91-2.47 8.61 0 2.33.33 4.38.99 6.12s1.69 3.08 3.09 3.98c1.4.9 2.89 1.35 4.49 1.35 2.58 0 4.67-1.13 6.27-3.4s2.4-5.19 2.4-8.76zm-169.09 79.87h5.52v.27c0 2.35.83 3.99 2.49 4.91 1.66.92 3.86 1.38 6.62 1.38 2.41 0 4.42-.7 6.06-2.11 1.63-1.41 2.45-3.26 2.45-5.56 0-1.86-.7-3.38-2.1-4.57-1.4-1.17-3.53-2.33-6.39-3.5l-2.21-.9c-3-1.24-5.25-2.47-6.73-3.68s-2.59-2.56-3.32-4.04-1.09-3.13-1.09-4.95c0-3.21 1.13-5.92 3.4-8.13s5.81-3.31 10.64-3.31c4.42 0 7.54.82 9.34 2.46 1.8 1.64 2.7 3.55 2.7 5.74v.27h-5.52v-.27c0-.69-.28-1.38-.83-2.05-.55-.67-1.39-1.16-2.5-1.46-1.11-.3-2.33-.45-3.66-.45-2.71 0-4.72.68-6.02 2.04-1.3 1.36-1.95 2.91-1.95 4.64 0 1.17.31 2.27.93 3.3s1.47 1.88 2.55 2.56c1.08.67 2.91 1.58 5.48 2.71l2.59 1.12c4.15 1.8 6.93 3.7 8.33 5.68 1.38 1.99 2.08 4.13 2.08 6.42 0 2.13-.57 4.19-1.7 6.19s-2.7 3.51-4.7 4.54c-2.01 1.03-4.68 1.54-8.01 1.54s-5.82-.38-7.94-1.13c-2.12-.75-3.74-2-4.84-3.72-1.1-1.73-1.65-3.62-1.65-5.67v-.27zm40.05 9.51h-5.09v-30.54h5.09v5.52c1.04-1.84 2.03-3.16 2.97-3.96.94-.8 1.96-1.4 3.08-1.8 1.11-.4 2.3-.6 3.55-.6s2.46.2 3.61.59c1.15.39 2.14.98 2.98 1.76.84.78 1.67 2.12 2.49 4.02 1.04-1.77 2.06-3.07 3.08-3.9 1.01-.83 2.05-1.45 3.12-1.86s2.2-.62 3.4-.62c1.73 0 3.3.41 4.7 1.22 1.4.81 2.48 1.96 3.24 3.46.76 1.5 1.13 4.04 1.13 7.63v19.09h-5.09v-16.98c0-3.59-.21-5.86-.64-6.81-.43-.95-1.02-1.67-1.78-2.17s-1.68-.75-2.75-.75c-1.52 0-2.91.47-4.19 1.41-1.28.94-2.3 2.2-3.07 3.79s-1.15 3.81-1.15 6.67v14.85h-5.09v-16.96c0-3.59-.2-5.85-.59-6.8a4.512 4.512 0 0 0-1.87-2.19c-.86-.51-1.78-.76-2.76-.76-1.39 0-2.75.48-4.09 1.45-1.34.97-2.39 2.26-3.14 3.87-.76 1.61-1.13 3.8-1.13 6.55v14.85zm57.95.85c-3.99 0-7.4-1.35-10.21-4.06s-4.22-6.73-4.22-12.07 1.41-9.34 4.22-12.04 6.22-4.06 10.21-4.06 7.37 1.35 10.19 4.06 4.22 6.72 4.22 12.04-1.41 9.37-4.22 12.07-6.21 4.06-10.19 4.06zm0-4.24c2.73 0 4.94-1.09 6.6-3.27 1.67-2.18 2.5-5.05 2.5-8.63s-.83-6.42-2.5-8.6c-1.67-2.18-3.87-3.27-6.6-3.27s-4.96 1.09-6.63 3.27c-1.67 2.18-2.5 5.04-2.5 8.6s.83 6.45 2.5 8.63c1.67 2.18 3.88 3.27 6.63 3.27zm33.93 4.24c-3.99 0-7.4-1.35-10.21-4.06s-4.22-6.73-4.22-12.07 1.41-9.34 4.22-12.04 6.22-4.06 10.21-4.06 7.37 1.35 10.19 4.06 4.22 6.72 4.22 12.04-1.41 9.37-4.22 12.07-6.21 4.06-10.19 4.06zm0-4.24c2.73 0 4.94-1.09 6.6-3.27 1.67-2.18 2.5-5.05 2.5-8.63s-.83-6.42-2.5-8.6c-1.67-2.18-3.87-3.27-6.6-3.27s-4.96 1.09-6.63 3.27c-1.67 2.18-2.5 5.04-2.5 8.6s.83 6.45 2.5 8.63c1.67 2.18 3.88 3.27 6.63 3.27zm39.65-.93v4.27c-2.48.6-4.38.9-5.69.9-1.9 0-3.61-.38-5.13-1.15-1.52-.77-2.68-1.88-3.47-3.34s-1.19-3.78-1.19-6.97v-15.7h-5.3v-4.24h5.3v-7.22h5.09v7.22h8.91v4.24h-8.91v14.25c0 2.7.21 4.57.63 5.62.42 1.05 1.08 1.82 1.98 2.31s1.98.74 3.24.74c1 0 2.52-.31 4.54-.93zm11.24 4.32h-5.09v-44.13h5.09v18.87c1.08-1.66 2.12-2.89 3.13-3.69 1.01-.8 2.07-1.41 3.17-1.82 1.1-.41 2.33-.62 3.68-.62 1.91 0 3.63.39 5.15 1.18 1.52.78 2.7 1.94 3.54 3.46.84 1.52 1.26 3.96 1.26 7.31v19.44h-5.09v-17.25c0-2.73-.18-4.67-.55-5.81a4.866 4.866 0 0 0-2.08-2.68c-1.02-.65-2.19-.97-3.5-.97-1.5 0-2.92.44-4.27 1.31-1.35.88-2.43 2.1-3.24 3.66-.81 1.57-1.22 3.81-1.22 6.73v15.01z" class="cls-2"/><path d="M213.34 129.17l14.12 19.99 19.67-44.92" class="cls-4"/></svg>