<svg xmlns="http://www.w3.org/2000/svg" viewBox="0 0 480 291.83" width="480" height="291.83"><defs><style>.a1fc6d29-4505-4e79-8329-40d1f1dc3f52{fill:#b3b3b3}</style></defs><g id="e7464fa1-ad49-4e2d-bc9f-d007bcc6bc99"><path id="e6a2e5f7-775e-4471-8986-55a800416e66" d="M24.41 62.35c0-17.28-5.25-22.54-12.39-23.29L0 36.81V2.25h207.7l27.8 36.81v29.67l-11.65 1.88c-6.76.75-12.77 8.64-12.77 28.92v124l24.42 31.87V284h-98.41l-7.89-8.64V284H24L0 252.4v-34.56l14.65-2.25c7.13-1.5 9.76-12 9.76-25.17zm48.83 0c0-17.65 4.51-28.55 12.39-30.05l11.65-1.88V9H6.76v21.42l12 1.88c7.51 1.5 12 12.4 12 30.05v130c0 17.28-3 28.17-12 30l-12 1.88v21.41h90.89v-21.41l-12-1.88c-9.38-1.88-12.39-12.77-12.39-30v-51.5h61.6v51.45c0 17.28-3 28.17-12.77 30l-11.65 1.88v21.41h90.52v-21.36l-11.64-1.88c-9.39-1.88-12.4-12.77-12.4-30v-130c0-17.65 4.51-28.55 12.4-30.05l11.64-1.88V9h-90.54v21.42l11.65 1.88c8.26 1.5 12.77 12.4 12.77 30.05v45.44h-61.6zM194.56 15.4v8.26l-9.77 1.5c-9.39 1.51-14.65 15.4-14.65 37.19v60.84c-3-3-8.26-3-13.52 0 1.5 4.89 6 12.77 11.27 18.41-5.26 12.39-9.77 29.67-12.4 61.59-2.25-31.92-6.76-49.2-12-61.59a64.62 64.62 0 0 0 11.64-18.41 38.45 38.45 0 0 0-25.92 0 36.29 36.29 0 0 0-25.16 0 37.36 37.36 0 0 0-25.54 0 38.45 38.45 0 0 0-25.92 0C54.84 128.08 59 136 64.23 141.6c-5.26 12.39-9.39 29.67-12 61.59-2.63-31.92-6.76-49.2-12.4-61.59 5.64-5.64 9.77-13.52 11.65-18.41-5.64-3-10.9-3-13.9 0V62.35c0-21.79-5.26-35.68-14.65-37.19l-9.76-1.5V15.4h77.72v8.26l-9.76 1.5c-9.39 1.51-14.65 15.4-14.65 37.19v52.21h74.74V62.35c0-21.79-4.88-35.68-14.65-37.19l-9.39-1.5V15.4zm-142 107.42c2.26-13.15 6.39-20.66 11.65-26.29-5.26-9-9.39-22.54-12-50.71-2.63 28.18-6.76 41.69-12.4 50.71 5.64 5.63 9.77 13.14 11.65 26.29zm75.5-21.41V68.73l-8.27 1.13c-9 1.13-12.39 9.39-12.39 27.79v3.76zm-20.64 116.43l13.14-2.25c5.26-1.13 7.52-7.51 7.52-23.29v-13.52h-20.66zm49.2-95c1.5-13.15 6-20.66 11.27-26.29-5.26-9-9.77-22.54-12.4-50.71-2.25 28.17-6.76 41.69-12 50.71 5.25 5.63 9.76 13.14 11.64 26.29zm85.63-31.57C242.25 38.69 282.81 0 326.76 0c71.74 0 111.93 63.85 111.93 109.3v66.85C465.73 195.31 480 219 480 244.89c0 26.66-25.92 46.94-48.83 46.94-16.52 0-28.92-6.38-40.94-15.4-9 5.64-22.91 9.77-42.81 9.77-53.71 0-105.17-53.71-105.17-132.21zM249 154c0 45.82 22.54 93.9 77.75 93.9 20.28 0 39.44-6.39 45.82-15 8.64 13.89 22.54 20.65 34.18 20.65 22.54 0 38.69-14.27 38.69-40.56 0-14.27-3.76-28.54-13.15-30.8-.38 14.27-4.51 25.92-13.15 25.92-9 0-14.27-7.14-19.15-14.65a172.25 172.25 0 0 0 4.52-39.46V91.27c0-39.06-30.8-84.88-77.75-84.88S249 53.33 249 91.27zm44-30.81c-3-3-10.52-3-18 0 1.88 4.89 6.38 12.4 11.64 18.41-5.26 12.39-9.76 29.67-6.76 61.59-11.64-31.92-15-49.2-17.65-61.59 5.26-6 9-13.52 11.64-18.41-7.14-3-15-3-18.4 0V91.27c0-32.3 25.91-78.5 71.36-78.5 45.07 0 71 46.2 71 78.5v31.92c-3.38-3-10.9-3-18.41 0 2.63 4.89 6.39 12.4 11.65 18.41-2.63 12.39-5.64 29.67-17.28 61.59 2.63-31.92-1.5-49.2-7.14-61.59a61 61 0 0 0 11.64-18.41c-7.51-3-15-3-18 0v-50.7c0-37.56-14.28-48.45-33.43-48.45C307.23 24 293 34.93 293 72.49zm-18-.75c1.88-13.14 6.38-20.28 11.64-26.29-6.76-14.65-6.76-30.05-3.76-50.33C271.92 63.1 266.29 77 262.16 96.15c5.26 6 9.39 13.15 11.64 26.29zm25.16-49.95c0-21 4.13-41.69 26.67-41.69 22.16 0 26.67 20.66 26.67 41.69v89.77c-7.52-10.52-18-13.9-28.17-13.9-10.52 0-19.16 2.63-25.17 10.52zm0 128.08c0-14.28 6.76-25.92 24.79-25.92 15.4 0 28.55 13.15 28.55 26.67 0 10.89-9.39 22.53-26.67 22.53-15.83 0-26.74-9.01-26.74-23.28zM347 85.64c0-15-.75-25.55-6-25.55-4.51 0-7.13 7.52-7.13 27.42v54.84a32.16 32.16 0 0 1 13.13 5.26zm-8.64 127.7c3.76 0 8.64-6 8.64-12 0-4.89-4.13-13.15-8.26-13.15-3.76 0-4.88 5.26-4.88 12.77.04 6.04 1.54 12.38 4.54 12.38zm40.94-90.9c2.26-13.14 6.39-20.28 11.65-26.29-4.1-19.15-9.73-33.05-20.62-50.33 3 20.28 3 35.68-3.76 50.33 5.64 6 9.77 13.15 11.64 26.29z" class="a1fc6d29-4505-4e79-8329-40d1f1dc3f52"/></g></svg>