<svg xmlns="http://www.w3.org/2000/svg" viewBox="0 0 594.87 186.27" width="594.87" height="186.27"><defs><style>.e8477550-ca0f-444d-87ac-620be4ed21a7{isolation:isolate}.fda49f1f-f34a-4679-9c5c-0708e3b469a9{fill:#b3b3b3}.aeeb8ba7-f4c1-409d-a92e-a7c2d961c3e3,.f763d886-ac26-497c-a574-4368bfc27f8e{fill:#2997ff}.f763d886-ac26-497c-a574-4368bfc27f8e{mix-blend-mode:multiply}</style></defs><g class="e8477550-ca0f-444d-87ac-620be4ed21a7"><g id="e5873dd4-c01c-44e2-9339-3eb3fdf82549"><g id="b3bf2d16-49bb-41ec-87b9-517d2dc9be71"><path d="M480 97.35c0 34.15-16.83 58.06-34.64 70.74-15.37 10.74-35.62 14.15-48.06 14.15-24.88 0-48.54-10.73-63.42-27.81C321 140 313.63 120.28 313.63 99.3c0-30 13.17-50.74 31.71-65.62 12-9.76 32.94-17.08 50-17.08C442.19 16.6 480 51 480 97.35zM356.32 38.56c-10.73 10.49-19 28.78-19 57.33 0 36.34 26.84 78.06 65.87 78.06 20.25 0 29.52-8.79 32.2-11.71 9.76-8.78 20.73-28.54 20.73-57.57 0-26.59-11.46-52.21-29.51-66.84-10-8-25.37-13.18-36.59-13.18-10.28 0-25.16 5.35-33.7 13.91z" class="fda49f1f-f34a-4679-9c5c-0708e3b469a9"/><rect width="15.44" height="192" x="389.1" y="-2.86" class="f763d886-ac26-497c-a574-4368bfc27f8e" rx="5.03" transform="rotate(-16.21 396.828 93.122)"/><path d="M72 88.81a27.33 27.33 0 0 1 8.5 20.49 5 5 0 0 1-4.63 4.15c-2.69 0-44.4 0-55.62-.24-.73 0-1.71 1.21-1.95 2a31 31 0 0 0-1.22 8.53 49.89 49.89 0 0 0 9.27 27.81c5.36 7.32 15.61 13.42 27.32 13.42 10.73 0 18-2.68 22.2-8.78 1-1.46 2.19-2.93 3.17-2.93 1.46 0 1.95 1.71 1.95 2.93a13.79 13.79 0 0 1-1.71 5.81c-8.54 12.44-21.47 18.3-35.37 18.3-26.35 0-43.91-20-43.91-48.55 0-19.51 10.25-39 29.27-47.81a51.48 51.48 0 0 1 18.54-4.39c8.54-.01 18.05 3.16 24.19 9.26zm-51.26 15.13c-.49 1.22.48 2.68 1 2.68 6.34.24 19.27.24 31.47 0 5.85 0 8.29-1.22 8.29-6.1 0-6.83-7.31-14.64-16.1-14.64-11 0-20.27 6.83-24.66 18.06zm241.49 68.79a32 32 0 0 1-16.59-8.73c-7.56-7.57-31-32.94-39.27-43.18a3 3 0 0 1 .24-2.44c1-1.71 12.44-13.17 19.76-18.54 11-7.56 15.13-10 28.3-12.93 1-.24 4.88-2.44 4.88-5.37a1.84 1.84 0 0 0-1.71-1.71c-8.29 0-16.83 2.93-32.93 2.93h-11.47c-1.7 0-4.14 3.42-4.14 4.39 0 .74.73 1.47 2.19 1.71 11 1.71 10.25 4.15 9.27 5.37-4.39 6.29-17.76 18.77-25.86 26.29-1.7 1.47-3.65 3.17-4.87 3.17s-1.47-.73-2-2.19c-.73-2.2-.73-15.13-.73-24.64 0-13.75.42-45.51 1-67.42h-18.97c.62 7.32 1.18 21.22 1.18 48.64 0 32.44-.73 79-1.71 83.67-1.22 6.1-2.92 8.29-12.68 10.73-3.17 1-5.61 2-5.61 3.66 0 2 2.68 2.69 5.61 2.69 5.36 0 11.95-1 20.49-1 6.1 0 14.15.49 20.25.49 2.68 0 5.85-.49 5.85-2.69 0-2-2.44-2.92-5.37-3.65-6.58-1.71-8.29-3.18-9-8.05-1.47-7.32-1.47-30.74-.25-33.91 0-.49.25-1.95 1.22-1.95 1.22 0 3.66 2.68 6.1 5.61 12.2 14.14 24.88 27.56 27.57 31s1.95 5.61-3.17 6.83c-3.17.73-5.37 2-5.37 3.41 0 2.2 2.68 3.17 6.1 3.17h11c12.68 0 24.88 1.47 30.49 1.47 2.93 0 6.1-.49 6.1-2.93-.04-.98-1.75-2.93-5.9-3.9z" class="fda49f1f-f34a-4679-9c5c-0708e3b469a9"/><path d="M161.73 20.26c6.83 4.15 7.32 5.61 7.32 6.35s.19 1.75.28 2.84h19.06c.34-11.53.73-20.34 1.15-22.36.24-1-1.22-3.17-1.71-3.17-1.22 0-2.44.73-4.88 2.19-6.59 4.15-18.78 6.83-21.22 7.57-1.95.73-3.17 2.19-3.17 3.17 0 .73 1.22 1.95 3.17 3.41zM19.32 113.82a1.76 1.76 0 0 1 1.09-.63c11.22.24 52.94.24 55.62.24a5 5 0 0 0 4.64-4.14c0-1.08-.06-2.13-.16-3.16H58a17.74 17.74 0 0 1-4.65.47c-12.19.25-25.12.25-31.46 0-.18 0-.41-.18-.62-.47H6.38a54.12 54.12 0 0 0-3.27 7.69z" class="aeeb8ba7-f4c1-409d-a92e-a7c2d961c3e3"/><path d="M585.92 86.1c0 2.11-1.41 5.65-2.35 8-11.3 26.37-18.6 45.2-26.84 64-.47 1.18 0 4 2.59 4 3.53 0 16-9.42 21.89-15.77 2.36-2.59 4.24-4.48 5.42-4.48a1.33 1.33 0 0 1 1.18 1.42c0 2.11-1.65 5.41-4.24 8.47C573 164 553 179.33 543.31 179.33c-3.53 0-7.06-3.53-7.06-5.89a9.58 9.58 0 0 1 1.17-4.24c8.48-20.95 18.13-43.79 29.2-69.45.94-2.12-.71-3.77-1.89-3.3a48.23 48.23 0 0 0-17.42 10.36c-1.18 1.18-3.06.71-3.06-.7 0-1.65 1.41-4 3.06-5.89 4.71-5.65 25-19.77 33.2-19.77 1.88 0 5.41 3.55 5.41 5.65zm9-43.56c0 6.36-5.65 12.71-10.83 12.71a9.45 9.45 0 0 1-3.53-.7 10.09 10.09 0 0 1-5.18-8.71A13.67 13.67 0 0 1 580 36a11.23 11.23 0 0 1 6.35-2.83c5.22-.05 8.52 4.66 8.52 9.37z" class="fda49f1f-f34a-4679-9c5c-0708e3b469a9"/></g></g></g></svg>