<svg xmlns="http://www.w3.org/2000/svg" id="Layer_1" viewBox="0 0 480 271.1" width="480" height="271.1"><style>.st0{fill:#b3b3b3}.st1{fill:#2997ff}</style><g id="ac241b99-6ee4-4d6f-b141-90f0b9c1e498"><g id="ac2252a3-6d05-41c3-912b-fa12d6c9f446"><path d="M480 135.4c0 74-51.6 123.8-128 123.8-37.5 0-67.7-10.5-91.2-32.3-25.6-23.1-37.9-53.7-37.9-93.3 0-35.4 13.7-68 37.9-89.4 24.2-21.8 53.7-32.3 90.8-32.3 76.8 0 128.4 49.5 128.4 123.5zM277.6 134c0 31.9 5.3 52.6 18.2 70.1 13 17.9 31.9 27.4 55.8 27.4 23.5 0 42.4-9.5 55.4-27.4 12.6-17.2 18.2-38.2 18.2-68.4 0-30.5-5.6-52.3-18.2-68.7-13.3-17.9-32.3-27.4-55.4-27.4-46.3 0-74 35.5-74 94.4zM117.8 83.5c-18.9 0-31.2 8.1-44.5 29.1V88v34.3H30.7c.4 3.3.6 6.6.5 9.9v76.1c0 2.4 0 4.6-.2 6.4h42.5c-.1-1.9-.2-4-.2-6.4v-44.5c0-16.8 4.2-33 11.2-43.5 7.4-10.9 18.9-18.2 28.4-18.2 3.5 0 9.1 1.4 15.4 3.5-15.1 4.9-21 11.6-21 23.5 0 13 9.5 21.4 23.9 21.4 16.5 0 28.1-12.3 28.1-29.5-.1-21.7-17.6-37.5-41.5-37.5z" class="st0"/><path d="M11.2 229H0v23.5h110.8V229H93.3c-15.1-.6-19-2.8-19.8-14.3H31c-.8 11.5-4.7 13.4-19.8 14.3zM73.3 88H0v23.5h11.2c13.5.5 18.1 2.1 19.5 10.8h42.6V88zM347.5 0h7.9c4.1 0 7.4 3.3 7.4 7.4v256.4c0 4.1-3.3 7.4-7.4 7.4h-7.9c-4.1 0-7.4-3.3-7.4-7.4V7.4c0-4.1 3.3-7.4 7.4-7.4z" class="st1"/></g></g></svg>