<svg xmlns="http://www.w3.org/2000/svg" viewBox="0 0 480 330.53" width="480" height="330.53"><defs><style>.be60177a-503d-476f-b96d-46879f4aacd5{isolation:isolate}.ea737e85-85f1-425e-9cf9-fefd92a4c530{fill:#b3b3b3}.b4e817d9-45be-4bcd-aeaf-b8a996d3c00a,.ecb14e15-58fa-4d0d-af60-92cd285e58d0{fill:#2997ff}.b4e817d9-45be-4bcd-aeaf-b8a996d3c00a{mix-blend-mode:multiply}</style></defs><g class="be60177a-503d-476f-b96d-46879f4aacd5"><g id="a50a8f17-b6e9-49b6-9906-ada916255472"><g id="ecdd86cf-c1ac-492a-b4e8-2c3e487dedad"><path d="M480 165c0 44-14.08 86.24-39.16 115.72-21.12 25.07-47.51 36.95-81.83 36.95-34.76 0-62.92-12.76-83.6-37.84-23.32-29-36.07-68.19-36.07-114 0-90.63 49.27-153.11 120.55-153.11C432 12.81 480 73.53 480 165zm-202.39 1.32c0 73 32.56 121.43 82.28 121.43 49.28 0 81.83-48.83 81.83-123.19 0-76.11-30.79-121.87-82.27-121.87-49.72.04-81.84 48.88-81.84 123.67z" class="ea737e85-85f1-425e-9cf9-fefd92a4c530"/><rect width="27.61" height="330.53" x="345.86" class="b4e817d9-45be-4bcd-aeaf-b8a996d3c00a" rx="8.99"/><path d="M94.59 88.93c-16.72 0-33 7.48-42.67 18.92C44 117.53 40 124.13 29.48 145.68v-16.06H0v146.81h33.88v-79.27c.88-46.2 32.12-78.75 73-75.23V89.81c-4.81-.44-9.65-.88-12.29-.88z" class="ea737e85-85f1-425e-9cf9-fefd92a4c530"/><path d="M0 95.09h29.48v34.53H0zm0 181.34h33.88v35.56H0z" class="ecb14e15-58fa-4d0d-af60-92cd285e58d0"/></g></g></g></svg>