<svg xmlns="http://www.w3.org/2000/svg" viewBox="0 0 480 238.49" width="480" height="238.49"><defs><style>.a9048ffc-6675-415f-9f60-ed20af2426d7{fill:#b3b3b3}</style></defs><g id="ba168a55-5b8f-413b-8b44-759cebd8be2d"><path id="ff64164a-7d72-4b2e-a2c7-1a72208ea080" d="M86.4 101.57c-7.36 4.35-14.72 9.37-14.72 12.71 0 2 6 4.35 8.37 5 7 2.34 10 6 9 11.71-2.68 13.05-19.74 30.79-29.45 39.15-12.71 11.38-22.08 20.41-28.1 27.78-5.69 6.69-6.36 11.37-4 12.71 5 3 23.09-8.7 31.12-14.39 9.37-6.69 26.1-21.41 35.8-29.78 1.34-.67 2.68-2 4-.33 1 1 .33 3-.67 3.68-11.71 10.37-27.44 23.42-37.14 30.45-11.38 8-24.76 16.06-32.12 16.06-7.7 0-11.38-5-11-12.05.34-13.72 12.38-29.78 33.46-48.18 12.72-11 29.78-26.1 29.45-29.45-.33-2.67-2.68-2.67-7.36-5a15.33 15.33 0 0 1-6-4.35c-7.7 8-16.07 16.73-24.77 25.43-11.71 11.38-27.77 25.44-38.14 34.8-1.34.67-3 .67-3.68-.33-1-1 0-3 1.34-4 11-9.7 25.09-22.41 36.47-33.46 11-10.37 19.41-18.74 27.1-27.1 0-4.69 5.36-11.71 13.05-18.07A41.4 41.4 0 0 1 93.8 87.2c2.35-.67 11.72-1.34 13 0 2.36 1.99-15.71 11.69-20.4 14.37zm345.65 10.7c-11.37 18.74-26.43 37.82-42.83 52.87-43.83 40.16-105.4 71.61-151.58 73.28-27.77 1-63.24-8.36-64.58-49.18-1.33-36.14 31.79-92 86.33-133.52C320.63 9.55 383.54-2.83 423.35.51c29.79 3 54.21 18.41 56.55 49.86 1.68 27.44-18.73 57.22-47.85 61.9zM424 5.53c-38.48-4-94 14.73-152.58 60.9-52.87 41.83-91.68 88-91 122.47 0 46.85 46.84 45.17 61.9 44.17-32.46-6.36-29.78-41.49-18.41-65.25 16.74-36.81 43.5-65.25 72-87 43.5-32.79 96-49.19 127.82-45.17 17.4 2 31.45 16.39 25.1 39.15a155.12 155.12 0 0 1-14.73 34.13c24.09-8 39.15-36.47 37.48-58.89C469.2 21.26 449.45 7.88 424 5.53zm-1 34.13c-31.1-3.34-76.61 17.74-119.1 50.2-27.44 21.08-59.56 49.52-75 80.64-11.37 22.42-16.73 60.56 26.77 60.56 41.16-8 88-37.47 127.16-74.28 26.77-25.43 53.53-57.56 61.23-83.66 5.73-20.41-5.98-31.78-21.06-33.46z" class="a9048ffc-6675-415f-9f60-ed20af2426d7"/></g></svg>