<svg xmlns="http://www.w3.org/2000/svg" viewBox="0 0 480 185.24" width="480" height="185.24"><defs><style>.b206bf6d-ef44-47e6-b115-9b70361b648b{isolation:isolate}.b5e79294-0393-409a-acba-d87613feeb19{fill:#b3b3b3}.a1ae6d74-1a3b-4d71-8e83-471b40cb9c86,.b75690a3-c19a-4d20-b0b5-c1b1df8c5d40{fill:#2997ff}.f9926a3c-1dea-46e3-8972-5a965e69e7b6{fill:none}.b75690a3-c19a-4d20-b0b5-c1b1df8c5d40{mix-blend-mode:multiply}</style></defs><g class="b206bf6d-ef44-47e6-b115-9b70361b648b"><g id="a4bc5712-09b2-46bb-8b36-1bc57ee9e576"><g id="ae343997-6ae2-4ca9-8d2c-169af65b6abc"><path d="M480 93.67c0 21.61-9.19 45.2-24.09 62.08-12.91 14.16-30 22.1-47.92 22.1-39.24 0-72.26-39.23-72.26-85.42 0-45.94 33-85.17 72-85.17 39.74 0 72.27 38.98 72.27 86.41zM375.21 30.35c-5.71 9.68-7.95 27.07-7.95 62.33 0 38.24 2.49 54.88 9.69 64.81 6.7 9.19 18.12 14.65 31 14.65 13.9 0 26.32-6.45 32.53-17.38 5.71-9.69 7.94-27.07 7.94-61.09 0-39.48-2.48-56.12-9.43-66C432.32 18.43 420.65 13 408 13c-14.42 0-26.58 6.42-32.79 17.35zM31.54 164.44c4 5 10.18 7.7 17.63 7.7 15.39 0 26.82-9.93 33-28.31h6.23c-8.69 23.35-21.6 34-40.72 34C22.1 177.85 0 154.26 0 127.2c0-28.06 22.85-51.9 49.91-51.9 10.21 0 19.55 3.41 26 8.75h-12.4a29.16 29.16 0 0 0-12.85-3C41.72 81 35 84.48 31.29 91.19c-3.23 6.21-5 20.61-5 42.71.03 9.53.98 23.89 5.25 30.54z" class="b5e79294-0393-409a-acba-d87613feeb19"/><path d="M67.79 88.71c0 .74-.25 1-1 1.73-3.23 3.73-5 8-5 11.67 0 6.71 4.72 11.68 11.18 11.68 6.95 0 11.67-5.22 11.67-12.92 0-6.38-3.35-12.29-8.8-16.82H63.51c2.59 1.37 4.28 3.04 4.28 4.66z" class="a1ae6d74-1a3b-4d71-8e83-471b40cb9c86"/><path d="M202.13 135.39l-24.05 32.3h46.27l-22.22-32.3zm10.43-23.09l20.45-27.05h-38.63l18.18 27.05z" class="f9926a3c-1dea-46e3-8972-5a965e69e7b6"/><path d="M240.44 85.25h-7.43l-20.45 27.05-18.18-27.05h-26.3l30.82 45.17-28.01 37.27h7.19l24.05-32.3 22.22 32.3h26.07l-34.63-50.18 24.65-32.26z" class="b5e79294-0393-409a-acba-d87613feeb19"/><path d="M226.22 170.4h-10.43v4.97h46.68v-4.97h-10.18l-1.87-2.71h-26.07l1.87 2.71zm-71.02 0v4.97h39.73v-4.97h-18.87l2.02-2.71h-7.19l-2.03 2.71H155.2zm37.5-87.65h14.65v-4.97H155.2v4.97h11.17l1.71 2.5h26.3l-1.68-2.5zm66.55 0v-4.97h-40.48v4.97h16.14l-1.9 2.5h7.43l1.92-2.5h16.89z" class="a1ae6d74-1a3b-4d71-8e83-471b40cb9c86"/><rect width="15.47" height="185.24" x="400.13" class="b75690a3-c19a-4d20-b0b5-c1b1df8c5d40" rx="5.04"/></g></g></g></svg>