<svg xmlns="http://www.w3.org/2000/svg" viewBox="0 0 480 292.58" width="480" height="292.58"><defs><style>.ee830e35-70de-4904-a37f-b6623d98ffa5{isolation:isolate}.afeb47cf-395f-486a-af6b-7ce185048d72{fill:#b3b3b3}.af1f58ff-1a1c-48ce-ad38-13b280d53cc2,.bace03eb-04e9-4b22-b71d-f6ac79b72198{fill:#2997ff}.bace03eb-04e9-4b22-b71d-f6ac79b72198{mix-blend-mode:multiply}</style></defs><g class="ee830e35-70de-4904-a37f-b6623d98ffa5"><g id="b4e055c0-c999-4d10-a36e-fbf75c779a10"><g id="fca50c70-9c3a-4006-8737-0ab5d695843d"><path d="M440.46 51c25 22 39.54 56.7 39.54 94.75 0 77.22-54.46 129.44-135.41 129.44-81.32 0-135.41-52.59-135.41-132 0-73.11 56-125.71 133.92-125.71 36.9-.07 73.11 12.61 97.36 33.52zm-164.88 5.21c-14.92 17.9-24.24 52.59-24.24 88.78 0 42.89 10.07 77.59 27.23 95.49 16.41 16.79 38.79 25.37 67.14 25.37 59.31 0 92.14-42.53 92.14-119.37 0-43.27-11.19-77.59-31-96.24-16-15.3-38.05-23.5-62.67-23.5-28.31 0-53.3 10.82-68.6 29.47z" class="afeb47cf-395f-486a-af6b-7ce185048d72"/><rect width="24.44" height="292.58" x="332.37" class="bace03eb-04e9-4b22-b71d-f6ac79b72198" rx="7.96"/><path d="M54.46 20.42h-4.1c-6 3.36-35.07 8.21-46.63 7.84v8.58h2.61c12.34 0 18.22 2.89 20.51 13.25h27.61z" class="af1f58ff-1a1c-48ce-ad38-13b280d53cc2"/><path d="M25.37 257.29c-3.36 5.23-8.58 7.46-19.77 7.09H0V273h76.47v-8.58h-1.12c-12.49-.45-17.79-1.46-19.86-11.19H26.93a18 18 0 0 1-1.56 4.06zm142.12 7.09c-10.82-1.49-17.53-6.34-31.71-23.13l-53.34-62.66 2.28-1.77-4.66-5.67c-3.75 3-7.27 5.66-9.93 7.44l-15.67 11.19V50.09H26.85c1.1 5 1.37 11.72 1.13 20.69v132.91h26.48v-3.84l7.84-6 38.42 44.76c10.81 12.72 12.28 14.58 12.28 17.94 0 5.22-5.6 7.46-16.79 7.83h-1.83V273h75v-8.58z" class="afeb47cf-395f-486a-af6b-7ce185048d72"/><path d="M153.31 131.21h1.5v-8.58H94.38v8.58h3c7.46 0 11.19 2.61 11.19 8.21 0 2.91-1.15 5.83-4 9.46l5.61 6.81c18.21-16.31 30.49-23.36 43.13-24.48z" class="afeb47cf-395f-486a-af6b-7ce185048d72"/><path d="M94 169.63c2.24-1.86 10.82-9.32 16-13.8l.16-.14-5.61-6.81c-.78 1-1.69 2.08-2.75 3.22-2.89 3.15-13 12-21.78 19.05l4.66 5.67zm-66 51.85v11.57c0 6.34 0 10.07-.38 11.93a36 36 0 0 1-.67 8.21h28.54c-1.33-6.25-1.32-16.1-1-31.71v-17.79H28z" class="af1f58ff-1a1c-48ce-ad38-13b280d53cc2"/></g></g></g></svg>