<svg xmlns="http://www.w3.org/2000/svg" viewBox="0 0 191.43 33.37" width="191.43" height="33.37"><defs><style>.efe4061b-08c8-4303-b725-96be4bd1093b{fill:#2997ff}</style></defs><g id="a11fc0ae-a7d0-4b0d-8a49-a355c23e467d"><path id="f0a5c727-aeba-4368-a37e-01ffb29ea81a" d="M0 0h24v2H0zm0 11.26h17.83v2H0zm1 11.21h4.66l-.17 1.17H2.55v2.49h2.56v1.17H2.55v3.46H1zm7.13-.34a.92.92 0 0 1-1 .93.93.93 0 1 1 0-1.86.92.92 0 0 1 1 .93zm-.19 8.63H6.41v-6.35h1.53zm5.59-6.43l-.26 1.49a2 2 0 0 0-.56-.08c-.77 0-1.17.57-1.41 1.64v3.38H9.77v-6.35h1.33l.14 1.25a1.79 1.79 0 0 1 1.66-1.42 2.13 2.13 0 0 1 .63.09zm5.85 5.56l-.33 1a1.43 1.43 0 0 1-1.4-.92 2.19 2.19 0 0 1-1.91 1 1.89 1.89 0 0 1-2-2c0-1.38 1-2.12 2.88-2.12h.81v-.35c0-.83-.38-1.1-1.19-1.1a6 6 0 0 0-1.69.33l-.35-1a6.53 6.53 0 0 1 2.29-.46c1.7 0 2.45.78 2.45 2.19v2.66c-.04.47.13.65.44.77zm-2-.85v-1.28h-.64c-1 0-1.49.36-1.49 1.1a.84.84 0 0 0 .9 1 1.37 1.37 0 0 0 1.24-.86zM29 23.31l-.78.9a2.8 2.8 0 0 0-1.86-.71c-.75 0-1.29.34-1.29 1s.33.87 1.71 1.3 2.46 1.06 2.46 2.61-1.17 2.55-3.15 2.55a4.11 4.11 0 0 1-3-1.14l.81-.91a3.18 3.18 0 0 0 2.14.82c.89 0 1.52-.43 1.52-1.23s-.35-1-1.64-1.4c-1.74-.54-2.5-1.24-2.5-2.5s1.19-2.29 2.82-2.29a3.75 3.75 0 0 1 2.76 1zm6.68 6.58l-.32 1A1.42 1.42 0 0 1 34 30a2.19 2.19 0 0 1-1.91 1 1.89 1.89 0 0 1-2-2c0-1.38 1-2.12 2.88-2.12h.8v-.38c0-.83-.37-1.1-1.18-1.1a5.86 5.86 0 0 0-1.69.33l-.35-1a6.53 6.53 0 0 1 2.29-.46c1.7 0 2.45.78 2.45 2.19v2.66c-.08.47.08.65.39.77zm-2-.85v-1.28h-.63c-1 0-1.49.36-1.49 1.1a.84.84 0 0 0 .9 1 1.34 1.34 0 0 0 1.23-.86zm8.57-2.88v4.6h-1.54V26.4c0-.79-.3-1-.78-1s-1 .38-1.33 1v4.42h-1.53v-6.41h1.33l.12.83a2.36 2.36 0 0 1 1.93-1 1.71 1.71 0 0 1 1.8 1.92zM48.29 25l-.61.9a2.84 2.84 0 0 0-1.59-.52c-.61 0-1 .25-1 .64s.25.61 1.33.91c1.3.35 2 .87 2 2 0 1.32-1.22 2-2.68 2a3.76 3.76 0 0 1-2.53-.9l.77-.87a2.82 2.82 0 0 0 1.73.63c.68 0 1.13-.29 1.13-.77s-.26-.7-1.44-1-1.89-1-1.89-1.92 1-1.85 2.45-1.85a3.6 3.6 0 0 1 2.33.75zM51 22.52a2.13 2.13 0 0 1-.27.92l-.78 1.63h-.86l.49-1.83a.87.87 0 0 1 .53-1.6.88.88 0 0 1 .89.88zm9.13 1.12h-3.06V26h2.66v1.17h-2.66v2.44h3.27v1.19h-4.85v-8.33h4.81zm9.96 2.52v4.6h-1.54V26.4c0-.79-.31-1-.69-1-.53 0-.86.38-1.2 1v4.42h-1.54V26.4c0-.79-.32-1-.69-1-.54 0-.87.38-1.22 1v4.42h-1.53v-6.41H63l.12.83a2.15 2.15 0 0 1 1.84-1 1.55 1.55 0 0 1 1.54 1.06 2.27 2.27 0 0 1 1.91-1.07 1.69 1.69 0 0 1 1.68 1.93zM79.15 25l-.6.9a2.87 2.87 0 0 0-1.6-.52c-.61 0-1 .25-1 .64s.25.61 1.33.91c1.29.35 2 .87 2 2 0 1.32-1.22 2-2.67 2a3.76 3.76 0 0 1-2.53-.9l.77-.87a2.82 2.82 0 0 0 1.72.63c.69 0 1.13-.29 1.13-.77s-.25-.7-1.44-1-1.88-1-1.88-1.92 1-1.85 2.44-1.85a3.56 3.56 0 0 1 2.33.75zm7.07 2.57c0 1.94-.9 3.37-2.51 3.37a2 2 0 0 1-1.6-.7v3l-1.53.17v-9h1.34l.09.78a2.29 2.29 0 0 1 1.86-1c1.65.04 2.35 1.35 2.35 3.38zm-1.61 0c0-1.61-.43-2.2-1.2-2.2a1.61 1.61 0 0 0-1.3.87v2.86a1.34 1.34 0 0 0 1.17.66c.84 0 1.33-.65 1.33-2.18zm8.13 2.32l-.32 1A1.42 1.42 0 0 1 91 30a2.19 2.19 0 0 1-1.91 1 1.89 1.89 0 0 1-2-2c0-1.38 1-2.12 2.88-2.12h.8v-.38c0-.83-.37-1.1-1.18-1.1a5.86 5.86 0 0 0-1.69.33l-.35-1a6.53 6.53 0 0 1 2.29-.46c1.7 0 2.44.78 2.44 2.19v2.66c-.02.47.15.65.46.77zm-2-.85v-1.28h-.63c-1 0-1.49.36-1.49 1.1a.84.84 0 0 0 .9 1 1.34 1.34 0 0 0 1.23-.86zM98.77 25l-.69.92a2 2 0 0 0-1.28-.46c-.89 0-1.43.65-1.43 2.17s.57 2.08 1.43 2.08a2.18 2.18 0 0 0 1.28-.46l.69 1a3.19 3.19 0 0 1-2 .73c-1.84 0-3-1.27-3-3.3s1.14-3.41 3-3.41a3 3 0 0 1 2 .73zm6.13 3.06h-4c.12 1.29.72 1.71 1.56 1.71a2.65 2.65 0 0 0 1.58-.56l.64.88a3.7 3.7 0 0 1-2.35.85c-2 0-3-1.31-3-3.31s1-3.4 2.82-3.4 2.8 1.2 2.8 3.2c-.01.21-.04.46-.05.63zM103.41 27c0-1-.37-1.67-1.23-1.67s-1.18.48-1.26 1.74h2.49zm9.39 3.76h-1.89l-2.53-8.29h1.71l1.8 6.88 1.75-6.88h1.62zm7.38-5.76l-.6.9a2.87 2.87 0 0 0-1.6-.52c-.61 0-1 .25-1 .64s.25.61 1.33.91c1.3.35 2 .87 2 2 0 1.32-1.22 2-2.67 2a3.74 3.74 0 0 1-2.53-.9l.76-.87a2.84 2.84 0 0 0 1.73.63c.68 0 1.13-.29 1.13-.77s-.25-.7-1.44-1-1.88-1-1.88-1.92 1-1.85 2.44-1.85a3.58 3.58 0 0 1 2.33.75zm2.94 5a1 1 0 0 1-1 1 1 1 0 1 1 1-1zm6.14-7.87a1 1 0 1 1-1-.93.92.92 0 0 1 1 .93zm-.19 8.63h-1.53v-6.35h1.53zm5.48-.3a2.78 2.78 0 0 1-1.59.48c-1.25 0-1.91-.72-1.91-2.08v-3.34h-1v-1.11h1V23l1.54-.18v1.58h1.47l-.15 1.11h-1.32v3.31c0 .62.2.87.67.87a1.44 1.44 0 0 0 .75-.23zM139.7 25l-.6.9a2.86 2.86 0 0 0-1.59-.52c-.62 0-1 .25-1 .64s.25.61 1.33.91c1.29.35 2 .87 2 2 0 1.32-1.22 2-2.67 2a3.76 3.76 0 0 1-2.53-.9l.77-.87a2.82 2.82 0 0 0 1.72.63c.69 0 1.13-.29 1.13-.77s-.25-.7-1.44-1S135 27 135 26.08s1-1.85 2.45-1.85a3.55 3.55 0 0 1 2.25.77zm9.17-1.36h-3.06V26h2.66v1.17h-2.66v2.44h3.27v1.19h-4.85v-8.33H149zm9.96 2.52v4.6h-1.54V26.4c0-.79-.31-1-.69-1-.53 0-.86.38-1.2 1v4.42h-1.54V26.4c0-.79-.32-1-.69-1-.54 0-.87.38-1.22 1v4.42h-1.53v-6.41h1.33l.12.83a2.15 2.15 0 0 1 1.84-1 1.55 1.55 0 0 1 1.53 1.07 2.27 2.27 0 0 1 1.91-1.07 1.7 1.7 0 0 1 1.68 1.92zm10.08-4.29v8.89h-1.36l-.11-.81a2.1 2.1 0 0 1-1.81 1c-1.58 0-2.41-1.33-2.41-3.35s1-3.36 2.56-3.36a2.18 2.18 0 0 1 1.59.69V21.7zM167.37 29v-2.9a1.51 1.51 0 0 0-1.21-.68c-.79 0-1.32.68-1.32 2.2s.47 2.19 1.23 2.19a1.49 1.49 0 0 0 1.3-.81zm8.52.89l-.32 1a1.41 1.41 0 0 1-1.4-.92 2.19 2.19 0 0 1-1.91 1 1.89 1.89 0 0 1-2-2c0-1.38 1-2.12 2.88-2.12h.8v-.35c0-.83-.37-1.1-1.19-1.1a6 6 0 0 0-1.69.33l-.35-1a6.57 6.57 0 0 1 2.29-.46c1.71 0 2.45.78 2.45 2.19v2.66c-.04.47.13.65.44.77zm-2-.85v-1.28h-.64c-1 0-1.48.36-1.48 1.1a.84.84 0 0 0 .9 1 1.35 1.35 0 0 0 1.23-.86zm7.67-4.04l-.6.9a2.9 2.9 0 0 0-1.6-.52c-.61 0-1 .25-1 .64s.25.61 1.33.91c1.3.35 2 .87 2 2 0 1.32-1.22 2-2.67 2a3.76 3.76 0 0 1-2.54-.9l.77-.87a2.82 2.82 0 0 0 1.73.63c.68 0 1.13-.29 1.13-.77s-.26-.7-1.44-1-1.89-1-1.89-1.92 1-1.85 2.45-1.85a3.58 3.58 0 0 1 2.33.75zm6.61 1.16v4.6h-1.54V26.4c0-.79-.31-1-.78-1a1.68 1.68 0 0 0-1.33.95v4.43H183v-8.9l1.53-.15v3.44a2.29 2.29 0 0 1 1.85-.94 1.72 1.72 0 0 1 1.79 1.93zm3.26 3.84a1 1 0 0 1-1 1 1 1 0 1 1 1-1z" class="efe4061b-08c8-4303-b725-96be4bd1093b"/></g></svg>