<svg xmlns="http://www.w3.org/2000/svg" id="Layer_1" viewBox="0 0 500 491.1" width="500" height="491.1"><style>.st0{fill:#505050}</style><g id="bc4aceac-07c1-437a-bded-eeab9107d5a7"><g id="a467e7cb-cda1-4af0-9370-662f6b461be7"><path d="M41.6 391.9c-27.4 0-38.6-13-38.6-39.2s11.2-39.3 38.6-39.3c27.6 0 38.8 13.8 38.8 39.3 0 25.5-11.3 39.2-38.8 39.2zm0-71.5c-9.2 0-13.6 5.2-13.6 32.2 0 26.7 4.4 32.2 13.6 32.2 9.3 0 13.7-5.1 13.7-32.2 0-27-4.4-32.2-13.7-32.2zm79.8 69.7h-38v-7c6.6 0 7.7-2.1 7.7-7.1v-53.9c0-5.5-1.2-7.1-7.7-7.1v-7.1l32.3-1.8c0 14.1-2.7 25.3-3.6 33.8h1c5.1-11.2 11.9-15.9 23-15.9 15.2 0 21.8 8.4 21.8 24.2V376c0 5 2.3 7.1 7.8 7.1v7.1h-37.8v-7c5 0 6.1-1.4 6.1-4.8v-27.9c0-7.9-2.6-11.3-8.9-11.3-4.3 0-9.9 4.1-9.9 11.4v27.8c0 3.3 1.2 4.8 6.3 4.8l-.1 6.9zm84.6 0h-38v-7c6.6 0 7.7-2.1 7.7-7.1v-36.6c0-5.5-1.2-7.1-7.6-7.1v-7.1h28.8c-.1 5-.2 8.7-.4 14.7h1.2c5.1-11.2 11.9-15.9 23-15.9 15.2 0 21.8 8.4 21.8 24.2V376c0 5 2.2 7.1 7.7 7.1v7.1h-37.7v-7c5 0 6.1-1.4 6.1-4.8v-27.9c0-7.9-2.6-11.3-8.9-11.3-4.3 0-9.9 4.1-9.9 11.4v27.8c0 3.3 1.2 4.8 6.3 4.8l-.1 6.9zm80.2 1.8c-24.7 0-34.9-12.2-34.8-34.8.1-22.6 10.1-33.8 34.8-33.8s34.8 11.4 34.8 33.8c.1 22.2-10.1 34.8-34.8 34.8zm0-61.5c-6.3 0-9.9 3.1-9.9 26.6s3.6 27.8 9.9 27.8c6.2 0 9.8-4.4 9.8-27.8s-3.6-26.6-9.8-26.6zM0 489.2v-7.1c9.3 0 9.1-.8 9.1-15.5v-29.8c0-14.7.2-15.5-9.1-15.5v-7.1h69.9v31.4H64c-4.9-17.5-11.7-23.9-31-24.3v32.1c9.3-.7 16.2-6.7 16.4-14.6h5.9c-.2 6.2-.1 12.2-.1 17.7 0 5.2-.1 11.4.1 17.7h-5.9c-.2-8.4-6.7-14.2-16.4-14.8v7.2c0 14.7 1.1 15.5 12.1 15.5v7.1H0zm102.4-66.1c24.8 0 32.6 6.9 32.6 26.4 0 6.6-.6 16.7-.6 22.3 0 4.9.5 6.8 2.8 6.8s3.8-3.6 3.2-17.8h6.1c1.6 22.3-3.4 29.6-15 29.6-10 0-14.6-4.6-14.9-14.8h-1.3c-3.3 7.2-10.5 14.8-23 14.8-16.4 0-21.8-6.6-21.8-17.8 0-11.3 6.8-17.9 21.3-18.1 17.9-.2 19.1-5.2 19.1-12.4V441c0-8.7-5.1-11.9-14.6-11.9-3.2 0-6.4.6-9.4 1.8l.6 1.7c.8-.1 1.7-.2 2.5-.2 6.7 0 9.9 2.5 9.9 7.8 0 4.6-2.5 8.6-12.2 8.6-8 0-13.1-3.4-13.1-9.9-.1-9.8 7.8-15.8 27.8-15.8zm8.4 45.1v-10.7c-7.1 3.1-19.8 1.7-19.8 12.4 0 5.4 3.1 8.1 9.2 8.1 6.9 0 10.6-3.6 10.6-9.8zm65.4-43.9h16.4v7.1h-16.4v39.7c0 6.4.8 9.1 3.8 9.1 2.6 0 4.6-2.8 4.6-15.6v-3.7h7.2c.1 1.6.1 3.1.1 4.6 0 16.8-3.7 24.9-18.1 24.9-14.1 0-21.4-3.4-21.4-21.1v-37.9h-7.6v-7.1c12.1 0 21.9-7.5 24.7-17.8h6.8l-.1 17.8zm51.4 9.9h8v7.1h-8v33.9c0 5 1.9 7.1 11 7.1v7.1h-43.9v-7.1c7.6 0 9.1-2.1 9.1-7.1v-33.9h-7.1v-7.1h9.9v-2.4c-7.4-2.1-12.8-5.4-12.8-14.4 0-10.8 8.4-16.4 23.9-16.4 14.9 0 21.7 6.6 21.7 15.5 0 7.8-4.2 11.4-10.2 11.4-8 0-10.9-4.5-10.9-9.7 0-5.9 4.6-8.9 9.1-8.9 1.1 0 2.2.1 3.2.3l.5-1.1c-2.4-1.4-5.2-2.1-8-2-6.4 0-11.9 3.7-11.9 12.4-.2 10.2 6.5 15.3 16.4 15.3zm44.2-11.1c24.8 0 32.6 6.9 32.6 26.4 0 6.6-.6 16.7-.6 22.3 0 4.9.5 6.8 2.8 6.8s3.8-3.6 3.2-17.8h6.1c1.6 22.3-3.4 29.6-15 29.6-10 0-14.5-4.6-14.9-14.8h-1.3c-3.3 7.2-10.5 14.8-23 14.8-16.4 0-21.8-6.6-21.8-17.8 0-11.3 6.8-17.9 21.3-18.1 17.9-.2 19.1-5.2 19.1-12.4V441c0-8.7-5.1-11.9-14.6-11.9-3.2 0-6.4.6-9.4 1.8l.6 1.7c.8-.1 1.7-.2 2.5-.2 6.7 0 9.9 2.5 9.9 7.8 0 4.6-2.5 8.6-12.2 8.6-8 0-13.1-3.4-13.1-9.9-.1-9.8 7.8-15.8 27.8-15.8zm8.3 45.1v-10.7c-7.1 3.1-19.8 1.7-19.8 12.4 0 5.4 3.1 8.1 9.2 8.1 6.9 0 10.6-3.6 10.6-9.8zm80.3 9.8c9.4 0 14.3-4.4 14.7-12.5h7.1c0 15.4-6.7 25.5-29.4 25.5-18.6 0-33.1-8.6-33.1-34.8 0-24.2 14.3-33.8 32.7-33.8 21 0 29.2 8 29.2 20.1 0 8.4-5.1 13.7-12.9 13.7-9.6 0-12.2-4.7-12.2-10.8 0-7.1 4.1-11.6 9.7-11.6.9 0 1.9.1 2.8.4l.6-2c-2.9-1.4-6-2.1-9.2-2-8.1 0-15.6 3.1-15.6 25.1-.2 18.2 5.2 22.7 15.6 22.7zm67 13.1c-20.6 0-36.8-6.2-36.8-34.8 0-24.2 13.6-33.8 34.8-33.8 24.4 0 31.7 12.8 31.7 29.4 0 2.6-.1 5.1-.2 7.9h-41.2c.8 14.3 5.9 19.2 18.8 19.2 9.6 0 15.2-3.2 15.4-11.2h7.1c.1 14.1-6.6 23.3-29.6 23.3zm-11.8-38.5h20c-.4-18.9-4.1-23-10.2-23-6.2 0-9.5 4-9.8 23zM1.3 87.4h10.9V3.6H1.3V0h66.2c24.8 0 36.8 8.2 36.8 26.5 0 10.5-3.6 17.3-12.2 22.2-7.6 4.3-16.8 4.4-28.1 4.4H49.6v34.1h12.3V91H1.3v-3.6zm50.3-38c10 0 13.5-2.8 13.5-14.3V17.9c0-11.6-3.6-14.3-13.5-14.3h-1.9v45.8h1.9zm90.2-22.1c24.8 0 39.9 14.1 39.9 33.1s-15.1 33.2-39.9 33.2c-24.9 0-39.9-14.6-39.9-33.2s15-33.1 39.9-33.1zm6.6 11.7c0-5.8-1.9-8.6-6.6-8.6s-6.6 2.8-6.6 8.6v42.7c0 5.9 1.8 8.6 6.6 8.6s6.6-2.6 6.6-8.6V39zm43.4 54.6h-3.1l-1.1-23.8h3.3c6.9 13.1 19.3 20.5 30.2 20.5 6.4 0 9.9-2.5 9.9-6.6 0-6.3-8.6-8.1-23.3-12.6-11.9-3.7-19.4-12.6-19.4-22.9 0-12.1 9.7-21 23.9-21 6.1 0 12.1 1.2 18.4 3.7l10.8-3.7h2.6l.2 20.6h-2.5c-6-11.4-17.2-17.6-26.6-17.6-5.2 0-8.1 2.2-8.1 5.8 0 5.8 5.8 7.3 15.8 10.2 16.8 5 25.2 11.4 25.2 24.3 0 14.6-9.2 23-25.5 23-7.2 0-12.9-1.4-19.7-4.7l-11 4.8zm68.9-61.2h-8.1v-3.3c14.4-.4 26-8 35.7-22.9h2.6v22.9h14.4v3.3h-14.4v45.1c0 5 .6 7.3 4.2 7.3 4.3 0 7.9-5.1 9.2-14.8h2.8c-.5 14.7-10.8 23.8-27.2 23.8-12.9 0-19.2-4.7-19.2-14.3V32.4z" class="st0"/><path d="M339.4 63.4v7.8c0 11.6 5.1 17.6 14.8 17.6 10 0 17.8-4.4 24.6-13.9l2.5 1.7c-6.4 11.3-18.1 17.1-35.2 17.1-24.9 0-39.2-14.3-39.2-33.2 0-18.8 14.6-33.1 38.4-33.1 24.1 0 37.8 12.9 37.9 36.1l-43.8-.1zM352.5 39c0-5.8-1.9-8.6-6.6-8.6s-6.6 2.8-6.6 8.6v21.4h13.1V39zm34.1 48.6h7.6V32.4h-7.6v-3.3h18.1c5.8 0 11.6-.6 17.2-1.8h2.2v15.4h1.1c5.4-10.6 11.7-15.4 21-15.4 9.4 0 15.1 5.8 15.1 14.8 0 8.7-5.8 14.3-14.7 14.3-8 0-13.5-5-13.5-10.9v-1.8c0-2.1-.4-3.1-1.4-3.1-2.8 0-7.1 10.6-7.1 23.2v23.8h10.1v3.6h-48.1v-3.6zM104.2 131c0 13.1-9.3 19.4-29.7 20.5v2.1c21.6.6 31.8 7.9 31.8 23 0 16.7-13 23.8-39.9 23.8H2.1v-3.8h10.1v-83.8H2.1v-3.6h64.4c25.7 0 37.7 5.9 37.7 21.8zm-52.1 19.8c9.6 0 13.2-1.8 13.2-12.4v-12.8c0-9.3-3.6-12.9-12.5-12.9h-2.4v38.1h1.7zm.3 45.7c10.6 0 14.4-2.2 14.4-13.8v-14.3c0-10.4-3.9-14.2-13.7-14.2h-2.6v42.3h1.9zm99.8-60c24.8 0 39.9 14.1 39.9 33.1s-15.1 33.3-39.9 33.3c-24.9 0-39.9-14.6-39.9-33.3s14.9-33.1 39.9-33.1zm6.5 11.7c0-5.8-1.9-8.6-6.6-8.6-4.6 0-6.6 2.8-6.6 8.6v42.7c0 5.9 1.8 8.6 6.6 8.6s6.6-2.6 6.6-8.6v-42.7zm111.2-40.8h2.2v89.7h7.4v3.3h-16.4c-5.8 0-11.6.6-17.2 1.8h-2.2v-14.3c-2.5 9.4-10.1 15-21.4 15-15.8 0-26-13.2-26-33.2 0-19.7 10.4-33.1 25.6-33.1 10.4 0 18.1 4.9 20.2 10.8v-34.7h-10v-3.3h20.6c5.7-.2 11.5-.8 17.2-2zm-35.1 86.1c5.2 0 6.9-6.7 6.9-19.6V162c0-11.1-1.8-16.8-7.3-16.8-4.7 0-5.9 3.9-5.9 13v23.7c.1 7.9 1.9 11.6 6.3 11.6zm86.8-57c24.8 0 39.9 14.1 39.9 33.1s-15.1 33.2-39.9 33.2c-24.9 0-39.9-14.6-39.9-33.2s15-33.1 39.9-33.1zm6.6 11.7c0-5.8-1.9-8.6-6.6-8.6-4.6 0-6.6 2.8-6.6 8.6v42.7c0 5.9 1.8 8.6 6.6 8.6 4.7 0 6.6-2.6 6.6-8.6v-42.7zm36.2 48.6h7.5v-55.2h-7.5v-3.3h17.1c5.8 0 11.6-.6 17.2-1.8h2.2l-.1 12.5h1.3c4.1-8 11.9-12.5 22.2-12.5 15.9 0 19.7 8.8 19.7 24.3v36h7.4v3.6h-41.5v-3.6h4.1v-42.3c0-4.6-1.3-6.8-4.2-6.8-4.9 0-7.6 5.5-7.6 16.1v32.9h4.1v3.6h-41.8l-.1-3.5zm88.8 0h8.6v-55.2h-7.6v-3.3h18.5c5.8 0 11.6-.6 17.2-1.8h2.2v60.3h7.9v3.6h-46.8v-3.6zm23.3-90.5c10.6 0 16.3 4.4 16.3 12.2s-5.6 12.2-16.3 12.2c-10.7 0-16.3-4.4-16.3-12.2s5.7-12.2 16.3-12.2z" class="st0"/></g></g></svg>