<svg xmlns="http://www.w3.org/2000/svg" viewBox="0 0 655.82 423.72" width="655.82" height="423.72"><defs><style>.e1f31fe1-83a9-4f28-99c9-40d5d2565539{fill:#b3b3b3}.bf66b7c3-4ef1-449a-8afc-0c9d23d073af{fill:#505050}</style></defs><g id="e3ef0f5f-7b3d-47bc-87f5-25fcb40dd257"><g id="eaa84093-7ffd-4d3a-8ce0-0c4d5a1ad298"><path d="M56.22 455h-47v-6.23h20.15V397A75.06 75.06 0 0 1 11 411.49v-8.44c8.85-4.63 15.19-9.76 20.42-16.4h6v62.16h18.8zm63.66 0H72.31v-6.9c14.68-11 14.68-11 22.12-17.2 13.08-11 16.9-16.29 16.9-23.93s-6.54-13.68-15.08-13.68a16.05 16.05 0 0 0-12.88 6.44c-2 2.61-2.81 4.82-3.22 8.95l-7.84-2.42c1.51-6 2.92-8.95 5.93-12.17 4.33-4.82 10.76-7.44 18.11-7.44 13.37 0 23.33 8.65 23.33 20.22 0 9.35-4.63 16.09-19.11 27.86-5.73 4.72-11 8.64-17.7 13.37h37zm33.79-38.18h7.64c10 0 15.59-4.22 15.59-11.76 0-6.94-5.73-11.77-14-11.77a17.07 17.07 0 0 0-12 4.63 15.12 15.12 0 0 0-3.72 6.23l-7.59-2.15c2.21-5.13 4-7.64 7.54-10.36 4.43-3.32 10.06-5 16.5-5 12.67 0 21.82 7.54 21.82 17.8 0 7.75-4.83 13.48-12.87 15.29 9.75 1.81 15.48 7.95 15.48 16.7 0 11.86-10.35 19.91-25.44 19.91-7.14 0-12.77-1.81-17.7-5.53-3.92-3-5.73-5.53-7.74-10.76l7.84-2.62c1.41 4.12 2.62 6.34 4.73 8.15 2.81 2.51 7.64 3.92 13.17 3.92s10-1.41 12.57-4a12.12 12.12 0 0 0 3.83-8.85c0-8.15-6.74-13.08-18-13.08h-7.64zM237.44 455v-16h-33.08v-5.63L235 386.55h10.56v45.86h10.86v6.64h-10.83v16zm0-54.31c0-2.81 0-4.12.21-7.44-1.71 3.12-2.42 4.32-3.63 6.34l-20.91 32.78h24.33zm79.35-5.49h-33l-1.41 21.72c5.83-5.43 10.06-7.34 16.39-7.34a22.78 22.78 0 0 1 23.13 23.23c0 13.58-10.86 23.54-25.54 23.54-7.14 0-13.38-2.32-18.11-6.84a18.86 18.86 0 0 1-5.63-8.95l7.14-2.52c3.32 7.95 8.55 11.67 16.6 11.67 10.46 0 17.4-6.84 17.4-17 0-9.45-6.54-16.19-15.79-16.19-6.54 0-11.47 2.82-15.79 9.15l-6.64-1.4 2.23-36.27h39.73zm64.97 8.55c-2.92-7-7.24-10.16-14.18-10.16-7.44 0-13.07 4-16.19 11.57-2.11 4.93-3 10.46-3.12 19.51 2-4.33 3.42-6.14 6.14-8.45a21.91 21.91 0 0 1 14.18-5.13c12.17 0 21.72 9.76 21.72 22.13 0 13.07-10.36 23.13-23.84 23.13-15.89 0-25.94-12.87-25.94-33.29 0-11.06 2.91-21.22 8-27.86 4.53-5.73 10.86-8.55 19.11-8.55 10.86 0 17.9 4.93 21.62 15.09zm-31.58 30.37c0 8.65 7.14 15.49 16.19 15.49s16.2-6.94 16.2-15.69c0-9.05-6.74-16.09-15.39-16.09-9.25 0-17 7.44-17 16.29zM422.09 455v-1.91c0-9.45 2.92-22.13 7.64-32.79a102 102 0 0 1 16.09-25h-36.4l.9-7.34h44.25v5a116.66 116.66 0 0 0-13.67 20.64c-6.24 11.77-10.16 27-10.16 39.23V455zm54.31-50.95c0-10.36 9.35-17.4 23.13-17.4 13.57 0 22.42 6.74 22.42 17.1 0 7-4.42 12.27-13 15.29 5.43 2.61 6.84 3.42 9.25 5.13a16.54 16.54 0 0 1 6.64 13.27c0 11.26-10.36 18.91-25.64 18.91s-26.05-7.75-26.05-18.71c0-7.54 5.23-13.27 15.89-17.4-8.52-3.72-12.64-8.95-12.64-16.19zm5 34c0 7.25 6.94 12 17.6 12s17.6-4.62 17.6-11.56c0-6.64-5.63-11.17-18.3-14.69-11.3 2.68-16.88 7.41-16.88 14.2zm33.19-34.69c0-6.34-5.73-10.36-14.78-10.36s-15 4.12-15 10.36c0 5.73 5.54 10.56 14.39 12.67 10.99-2.83 15.41-6.55 15.41-12.68zm34.52 37c2.81 6.33 7.34 9.35 14 9.35 12.37 0 19.21-10.46 19.51-30-4.93 8.35-11 12.07-19.81 12.07-12.58 0-22-9.56-22-22.13 0-13.17 10.16-23 23.53-23 7.14 0 13.58 2.52 17.7 6.84 5.33 5.53 8.45 15.29 8.45 26.45 0 10-2.31 18.91-6.64 25.75s-12 10.76-20.71 10.76a23.7 23.7 0 0 1-14.49-4.53c-3-2.41-4.42-4.52-6.23-9.15zm-.2-30.78c0 8.95 6.63 15.49 15.79 15.49a16.2 16.2 0 0 0 16.19-16c0-8.95-6.74-15.49-16-15.49-9.55.01-15.98 6.42-15.98 16zm104.59-10.15a49.68 49.68 0 0 1 5.13 22.42A48.3 48.3 0 0 1 653.2 444c-4.23 7.84-11.47 12.37-19.92 12.37-15 0-25.44-14.38-25.44-35a47.24 47.24 0 0 1 4.93-21.92c4.42-8.45 11.36-12.78 20.21-12.78 9.15-.02 16.09 4.33 20.52 12.76zm-37.11 21.72c0 18 6.33 28.66 17 28.66 6.54 0 11.17-3.62 13.88-10.56A45.76 45.76 0 0 0 650 423c0-7.44-1.21-14.69-3.42-19.91-2.72-6.44-7.44-9.86-13.58-9.86-10.58-.04-16.61 10.22-16.61 27.92z" class="e1f31fe1-83a9-4f28-99c9-40d5d2565539" transform="translate(-9.25 -32.73)"/><path d="M49.64 89.74h28.9v21.82h-28.9v52.3H22.7V32.73h64.49v23H49.64zm46.78-57.01h33.82c17.69 0 24 1.77 30.47 8.45 7.27 7.67 10.81 17.69 10.81 30.47 0 17.7-4.91 27.72-17.1 35.39l19.85 56.82H146l-15-51.51h-8.25v51.51H96.42zm33.82 58c9.83 0 14.55-6.29 14.55-19.07 0-12.19-4.72-18.28-14.55-18.28h-7.47v37.34zm107.92-58l29.69 131.13h-27.13l-5.31-28.31h-25.95l-5.31 28.31h-24l30.1-131.13zm-13 46.59c-1.77-7.86-2.17-12-2.76-22-1.18 8.65-2 14.55-3.14 20.84l-7.08 36.17h20.25zm50.74-46.59h26.35l21.43 60.16c1.77 5.3 3.34 11.79 6.29 25.75-.79-10.81-2-30.87-2-39.71v-46.2h21.82v131.13H328l-24.77-67c-2.75-7.28-4.91-15.14-7.67-26.94 1 12.59 2.17 33.62 2.17 38.73v55.25H275.9zm93.78 0h26.93v42.85c0 2.56-.39 7.87-1 15.54a108.62 108.62 0 0 1 4.91-15l19.68-43.39h26.34L420 81.29l30.48 82.57h-27.72l-18.48-59.18-7.67 17.5v41.68h-26.93zm91.21 0h26.93v106.94h33.43v24.19h-60.36zm70.38 0h26.93v131.13h-26.93zm46.98 0h26.34L626 92.89c1.77 5.3 3.35 11.79 6.29 25.75-.78-10.81-2-30.87-2-39.71v-46.2h21.82v131.13h-21.76l-24.77-67c-2.75-7.28-4.92-15.14-7.67-26.94 1 12.59 2.16 33.62 2.16 38.73v55.25h-21.82zM128.23 359.48h-16.36l-4.43-22.18c-8.59 18.57-18.29 24.95-36.86 24.95-37.7 0-56.58-31.32-56.58-92.85 0-63.47 21.06-97.56 60.42-97.56 31.87 0 49.61 20.79 53.49 62.91l-31.28 5.55c-4.16-28.55-8.59-35.48-22.17-35.48-16.63 0-21.34 14.14-21.34 66.24 0 43.52 5.54 58.21 21.89 58.21 14.14 0 20.23-10.81 20.23-36.59h-23v-30.76h56zm128.04-90.91c0 64.3-18.29 93.68-58.2 93.68-39.08 0-57.37-31-57.37-96.18 0-64.57 18.57-94.23 59-94.23 38.3 0 56.57 31.32 56.57 96.73zm-75.39-1.11c0 48.78 3.88 61.81 17.74 61.81 14.69 0 17.46-10.54 17.46-64.58 0-46.56-3.88-59.87-17.18-59.87-14.41 0-18.02 13.03-18.02 62.64zm146.62 92.02h-38v-150h-30.18v-34.87h99.5v34.92H327.5zM434.75 247.5v-72.89h38v184.87h-38v-79.55h-28.27v79.55h-38V174.61h38v72.89zm60.15-72.89h38v184.87h-38zm136.64 71.23c-1.11-29.93-6.66-41-21.07-41-15.8 0-20.51 15-20.51 65.41 0 45.73 4.44 59 20 59 14.13 0 19.12-8.32 21.62-36.87l32.15 2.5c-1.39 20.23-4.44 32.43-10.81 43.24-10 16.63-23.84 24.11-44.07 24.11q-59 0-59-94.79c0-62.08 21.07-95.62 60.15-95.62 22.45 0 38.8 10.25 47.12 29.1 4.43 10.26 6.65 21.9 8 42.13z" class="bf66b7c3-4ef1-449a-8afc-0c9d23d073af" transform="translate(-9.25 -32.73)"/></g></g></svg>