<svg xmlns="http://www.w3.org/2000/svg" viewBox="0 0 128.77 76.47" width="128.77" height="76.47"><defs><style>.a7a25238-f4e5-40b6-8479-a5945294c48d{fill:#b3b3b3}.f63708c5-832d-4e07-a33e-79fb3d243290{fill:#2997ff}</style></defs><g id="b29f2600-cbb2-445d-9a17-c46d053bf62e"><g id="b8f63227-007a-4bdf-9324-3701e5263dfa"><path d="M37.92 10.15h-1.51V3.62l-1.8 1.09-.67-1 2.63-1.61h1.35zM47.25 3h-3.06v2.35h2.66v1.17h-2.66V9h3.27v1.19H42.6V1.86h4.81zM57 5.55v4.6h-1.57V5.79c0-.79-.31-1-.7-1s-.85.37-1.2 1v4.42H52V5.79c0-.79-.33-1-.7-1-.54 0-.86.37-1.21 1v4.42h-1.53V3.8h1.33l.12.83a2.13 2.13 0 0 1 1.83-1 1.55 1.55 0 0 1 1.54 1.07 2.25 2.25 0 0 1 1.9-1.07A1.69 1.69 0 0 1 57 5.55zm9.46-2.85l-.78.9a2.8 2.8 0 0 0-1.86-.71c-.75 0-1.29.34-1.29 1s.33.87 1.71 1.3 2.46 1 2.46 2.61-1.17 2.55-3.15 2.55a4.12 4.12 0 0 1-3-1.14l.81-.92a3.14 3.14 0 0 0 2.14.83c.89 0 1.52-.43 1.52-1.23s-.35-1-1.64-1.41C61.66 5.92 60.9 5.23 60.9 4s1.19-2.29 2.82-2.29a3.75 3.75 0 0 1 2.74.99zM73.4 7c0 1.94-.9 3.37-2.5 3.37a2 2 0 0 1-1.6-.7v3l-1.53.17v-9h1.34l.09.78a2.29 2.29 0 0 1 1.85-1c1.66 0 2.35 1.31 2.35 3.38zm-1.6 0c0-1.61-.44-2.2-1.2-2.2a1.59 1.59 0 0 0-1.3.87v2.82a1.36 1.36 0 0 0 1.17.66c.84 0 1.33-.65 1.33-2.15zm7.89 2.28l-.32 1a1.42 1.42 0 0 1-1.37-.9 2.19 2.19 0 0 1-1.91.95 1.89 1.89 0 0 1-2-2c0-1.38 1-2.12 2.88-2.12h.8v-.32c0-.83-.37-1.11-1.19-1.11a5.71 5.71 0 0 0-1.69.34l-.34-1a6.53 6.53 0 0 1 2.29-.46c1.7 0 2.44.78 2.44 2.18v2.63c-.07.53.1.69.41.81zm-2-.85V7.15h-.63c-1 0-1.49.36-1.49 1.1a.84.84 0 0 0 .9 1 1.37 1.37 0 0 0 1.23-.82zm7.79-4.07l-.69.93a2 2 0 0 0-1.28-.46c-.89 0-1.43.65-1.43 2.17s.57 2.08 1.43 2.08a2.18 2.18 0 0 0 1.28-.46l.69 1a3.14 3.14 0 0 1-2 .74c-1.84 0-3-1.28-3-3.3s1.14-3.41 3-3.41a3 3 0 0 1 2 .71zm5.89 3.09h-4c.12 1.29.72 1.71 1.56 1.71a2.65 2.65 0 0 0 1.58-.56l.63.87a3.61 3.61 0 0 1-2.35.86c-2 0-3-1.31-3-3.31s1-3.4 2.82-3.4 2.79 1.2 2.79 3.2c0 .18-.02.46-.03.63zm-1.49-1.07c0-1-.37-1.67-1.23-1.67s-1.18.48-1.26 1.74h2.49zm20.99-2.18c0 1.36-.78 2.36-3.27 4.73h3.45l-.17 1.22h-5V9c2.75-2.81 3.43-3.56 3.43-4.7a1.09 1.09 0 0 0-1.17-1.18 2 2 0 0 0-1.56.85l-.93-.74a3.16 3.16 0 0 1 2.61-1.32 2.34 2.34 0 0 1 2.61 2.29zm6.41 4.1h-1v1.85h-1.5V8.3h-3.43V7.24l2.35-5.32 1.3.49-2 4.71h1.85l.15-2h1.34v2h1zM123.9 7c0 1.94-.9 3.37-2.51 3.37a2 2 0 0 1-1.59-.7v3l-1.54.17v-9h1.35l.08.78a2.3 2.3 0 0 1 1.86-1c1.65 0 2.35 1.31 2.35 3.38zm-1.61 0c0-1.61-.43-2.2-1.2-2.2a1.57 1.57 0 0 0-1.29.87v2.82a1.35 1.35 0 0 0 1.16.66c.84 0 1.33-.65 1.33-2.15zm6.48 2.85a2.78 2.78 0 0 1-1.59.48c-1.25 0-1.91-.72-1.91-2.08V4.9h-1V3.8h1V2.4l1.54-.18V3.8h1.47l-.15 1.1h-1.32v3.31c0 .63.2.88.67.88a1.44 1.44 0 0 0 .75-.23z" class="a7a25238-f4e5-40b6-8479-a5945294c48d" transform="translate(0 -1.68)"/><path d="M0 5.02h24v1H0z" class="f63708c5-832d-4e07-a33e-79fb3d243290"/><path d="M37.92 31.94h-1.51v-6.52l-1.8 1.09-.67-1 2.63-1.61h1.35zm9.33-7.11h-3.06v2.32h2.66v1.17h-2.66v2.44h3.27v1.18H42.6v-8.28h4.81zm6.49 2.52v4.59H52.2v-4.35c0-.79-.3-1-.78-1a1.63 1.63 0 0 0-1.33 1V32h-1.53v-6.4h1.33l.12.83a2.34 2.34 0 0 1 1.93-1 1.71 1.71 0 0 1 1.8 1.92zm9.49-2.85l-.78.89a2.79 2.79 0 0 0-1.86-.7c-.74 0-1.28.33-1.28 1s.32.86 1.7 1.3 2.46 1.05 2.46 2.61-1.16 2.54-3.14 2.54a4.09 4.09 0 0 1-3-1.14l.82-.91a3.14 3.14 0 0 0 2.13.83c.89 0 1.52-.43 1.52-1.23s-.34-1-1.64-1.41c-1.74-.54-2.49-1.23-2.49-2.49s1.18-2.29 2.81-2.29a3.73 3.73 0 0 1 2.75 1zm6.95 4.25c0 1.95-.9 3.37-2.51 3.37a2 2 0 0 1-1.6-.69v3l-1.53.17v-9h1.34l.09.78a2.29 2.29 0 0 1 1.86-1c1.65.04 2.35 1.35 2.35 3.37zm-1.61 0c0-1.6-.43-2.19-1.2-2.19a1.6 1.6 0 0 0-1.3.86v2.86a1.36 1.36 0 0 0 1.17.66c.84.06 1.33-.64 1.33-2.18zm7.89 2.33l-.32 1a1.42 1.42 0 0 1-1.4-.92 2.19 2.19 0 0 1-1.91.94 1.88 1.88 0 0 1-2-1.95c0-1.38 1-2.12 2.88-2.12h.8v-.36c0-.83-.37-1.11-1.18-1.11a5.59 5.59 0 0 0-1.69.34l-.35-1a6.53 6.53 0 0 1 2.29-.46c1.7 0 2.45.78 2.45 2.18v2.66c-.03.5.12.72.43.8zm-2-.85V29h-.63c-1 0-1.49.35-1.49 1.1a.84.84 0 0 0 .9 1 1.36 1.36 0 0 0 1.23-.87zm7.79-4.07l-.68.93a2 2 0 0 0-1.29-.46c-.89 0-1.43.65-1.43 2.17s.57 2.08 1.43 2.08a2.24 2.24 0 0 0 1.29-.46l.68 1a3.13 3.13 0 0 1-2 .73c-1.84 0-3-1.27-3-3.29s1.14-3.41 3-3.41a3 3 0 0 1 2 .71zm5.89 3.09h-4c.12 1.29.72 1.71 1.56 1.71a2.65 2.65 0 0 0 1.58-.56l.64.87a3.64 3.64 0 0 1-2.35.85c-2 0-3-1.3-3-3.31s1-3.39 2.82-3.39 2.8 1.2 2.8 3.2c-.01.21-.04.46-.05.63zm-1.49-1.07c0-1.05-.37-1.67-1.23-1.67s-1.18.48-1.26 1.74h2.49zm23.06 3.76h-1.52v-6.52l-1.79 1.09-.68-1 2.63-1.61h1.36zm6.34-5.94c0 1.36-.78 2.36-3.27 4.73h3.45l-.16 1.21h-5v-1.12c2.76-2.81 3.43-3.57 3.43-4.71a1.08 1.08 0 0 0-1.16-1.17 1.9 1.9 0 0 0-1.56.85l-.94-.74a3.16 3.16 0 0 1 2.62-1.32 2.34 2.34 0 0 1 2.59 2.27zm6.95 2.75c0 1.95-.9 3.37-2.51 3.37a2 2 0 0 1-1.59-.69v3l-1.54.17v-9h1.34l.09.78a2.29 2.29 0 0 1 1.86-1c1.69.04 2.35 1.35 2.35 3.37zm-1.61 0c0-1.6-.43-2.19-1.2-2.19a1.58 1.58 0 0 0-1.29.86v2.86a1.35 1.35 0 0 0 1.16.66c.88.06 1.37-.64 1.37-2.18zm6.52 2.89a2.73 2.73 0 0 1-1.59.48c-1.25 0-1.91-.72-1.91-2.07V26.7h-1v-1.1h1v-1.4l1.53-.18v1.58h1.48l-.16 1.1h-1.32V30c0 .63.21.88.68.88a1.44 1.44 0 0 0 .75-.23z" class="a7a25238-f4e5-40b6-8479-a5945294c48d" transform="translate(0 -1.68)"/><path d="M0 26.82h12v1H0z" class="f63708c5-832d-4e07-a33e-79fb3d243290"/><path d="M39.79 46.71h-2.16v7H36v-7h-2.19v-1.26H40zm6.1 2.44v4.59h-1.54v-4.35c0-.8-.31-1-.78-1a1.66 1.66 0 0 0-1.33.94v4.43h-1.53v-8.89l1.53-.16v3.44a2.3 2.3 0 0 1 1.85-.93 1.72 1.72 0 0 1 1.8 1.93zm3.24-4.03a1 1 0 1 1-1-.94.92.92 0 0 1 1 .94zm-.19 8.62H47.4V47.4h1.54zm6.76-4.59v4.59h-1.53v-4.35c0-.8-.3-1-.78-1a1.63 1.63 0 0 0-1.33 1v4.41h-1.54v-6.4h1.33l.12.82a2.39 2.39 0 0 1 1.93-1 1.71 1.71 0 0 1 1.8 1.93zm9.5-2.86l-.78.9a2.8 2.8 0 0 0-1.86-.71c-.74 0-1.28.34-1.28 1s.32.86 1.7 1.29 2.46 1.06 2.46 2.62-1.17 2.54-3.15 2.54a4.12 4.12 0 0 1-3-1.14l.81-.91a3.23 3.23 0 0 0 2.14.83c.89 0 1.52-.44 1.52-1.24s-.35-1-1.64-1.4c-1.74-.54-2.5-1.24-2.5-2.5s1.19-2.29 2.82-2.29a3.75 3.75 0 0 1 2.76 1.01zm6.94 4.26c0 1.94-.9 3.37-2.5 3.37a2 2 0 0 1-1.6-.7v3l-1.53.16v-9h1.34l.09.77a2.3 2.3 0 0 1 1.85-1c1.66.07 2.35 1.37 2.35 3.4zm-1.6 0c0-1.6-.43-2.19-1.2-2.19a1.6 1.6 0 0 0-1.3.86v2.85a1.35 1.35 0 0 0 1.17.67c.84.01 1.33-.64 1.33-2.18zm7.89 2.33l-.32 1a1.42 1.42 0 0 1-1.4-.93 2.19 2.19 0 0 1-1.91 1 1.88 1.88 0 0 1-2-2c0-1.37 1-2.12 2.88-2.12h.8v-.36c0-.82-.37-1.1-1.19-1.1a6 6 0 0 0-1.69.33l-.34-1a6.46 6.46 0 0 1 2.29-.45c1.7 0 2.44.78 2.44 2.18v2.66c.01.49.13.67.44.79zm-2-.85v-1.29h-.63c-1 0-1.49.36-1.49 1.11a.83.83 0 0 0 .9.95 1.36 1.36 0 0 0 1.23-.8zM84.22 48l-.69.92a2 2 0 0 0-1.28-.45c-.89 0-1.43.65-1.43 2.17s.57 2.07 1.43 2.07a2.17 2.17 0 0 0 1.28-.45l.69 1a3.13 3.13 0 0 1-2 .73c-1.84 0-3-1.27-3-3.3s1.14-3.4 3-3.4a3 3 0 0 1 2 .71zm5.89 3h-4c.12 1.3.72 1.72 1.56 1.72a2.6 2.6 0 0 0 1.58-.57l.63.88a3.66 3.66 0 0 1-2.35.85c-2 0-3-1.31-3-3.31s1-3.39 2.82-3.39 2.79 1.2 2.79 3.2c0 .24-.02.49-.03.62zm-1.49-1c0-1-.37-1.66-1.23-1.66s-1.18.48-1.26 1.74h2.49zm22.16-2.42a1.89 1.89 0 0 1-1.57 1.89 1.87 1.87 0 0 1 1.84 2c0 1.38-1.08 2.48-2.93 2.48a3.25 3.25 0 0 1-2.61-1.16l.85-.82a2.24 2.24 0 0 0 1.68.78 1.3 1.3 0 0 0 1.43-1.35c0-1-.54-1.3-1.46-1.3h-.63l.18-1.09h.44a1.17 1.17 0 0 0 1.3-1.22 1.05 1.05 0 0 0-1.19-1.06 2.23 2.23 0 0 0-1.62.71l-.78-.85a3.54 3.54 0 0 1 2.53-1c1.66-.07 2.54.87 2.54 1.99zm7.11 2.97c0 1.94-.9 3.37-2.51 3.37a2 2 0 0 1-1.59-.7v3l-1.54.16v-9h1.35l.08.77a2.31 2.31 0 0 1 1.86-1c1.65.07 2.35 1.37 2.35 3.4zm-1.61 0c0-1.6-.43-2.19-1.2-2.19a1.58 1.58 0 0 0-1.29.86v2.85a1.34 1.34 0 0 0 1.16.67c.84.01 1.33-.64 1.33-2.18zm6.48 2.89a2.78 2.78 0 0 1-1.59.48c-1.25 0-1.91-.72-1.91-2.07V48.5h-1v-1.1h1V46l1.53-.18v1.58h1.48l-.16 1.1h-1.32v3.31c0 .62.21.87.68.87a1.52 1.52 0 0 0 .75-.22z" class="a7a25238-f4e5-40b6-8479-a5945294c48d" transform="translate(0 -1.68)"/><path d="M0 48.61h3v1H0z" class="f63708c5-832d-4e07-a33e-79fb3d243290"/><path d="M39.17 71.83h-3v3.71h-1.53v-8.29h1.58v3.32h3v-3.32h1.59v8.29h-1.64zm8.4 2.84l-.33 1a1.43 1.43 0 0 1-1.4-.92 2.18 2.18 0 0 1-1.91 1 1.88 1.88 0 0 1-2-2c0-1.38 1-2.12 2.87-2.12h.81v-.36c0-.83-.37-1.1-1.19-1.1a6 6 0 0 0-1.69.33l-.35-1a6.53 6.53 0 0 1 2.26-.5c1.7 0 2.45.78 2.45 2.19v2.66c0 .53.17.7.48.82zm-2-.85v-1.28h-.64c-1 0-1.49.36-1.49 1.1a.84.84 0 0 0 .9 1 1.37 1.37 0 0 0 1.24-.82zm4.87-6.9a1 1 0 1 1-1-.94.92.92 0 0 1 1 .94zm-.19 8.62h-1.54v-6.35h1.54zm5.35-6.43l-.27 1.49a1.94 1.94 0 0 0-.56-.08c-.77 0-1.16.57-1.41 1.64v3.38h-1.53v-6.35h1.33l.15 1.25A1.78 1.78 0 0 1 55 69a2.25 2.25 0 0 1 .6.11zm8.7-1.02l-.78.9a2.8 2.8 0 0 0-1.86-.71c-.75 0-1.29.34-1.29 1s.33.86 1.71 1.29 2.46 1.06 2.46 2.62-1.17 2.54-3.15 2.54a4.11 4.11 0 0 1-3-1.14l.81-.91a3.19 3.19 0 0 0 2.14.83c.88 0 1.52-.44 1.52-1.24s-.35-1-1.64-1.4c-1.74-.54-2.5-1.24-2.5-2.5s1.19-2.29 2.82-2.29a3.75 3.75 0 0 1 2.76 1.01zm6.94 4.26c0 1.94-.9 3.37-2.5 3.37a2 2 0 0 1-1.6-.7v3l-1.53.17v-9H67V70a2.32 2.32 0 0 1 1.86-1c1.69 0 2.38 1.32 2.38 3.35zm-1.6 0c0-1.61-.44-2.19-1.2-2.19a1.6 1.6 0 0 0-1.3.86v2.85a1.33 1.33 0 0 0 1.16.66c.84.01 1.34-.64 1.34-2.17zm7.89 2.32l-.32 1a1.41 1.41 0 0 1-1.4-.92 2.19 2.19 0 0 1-1.91 1 1.89 1.89 0 0 1-2-2c0-1.38 1-2.12 2.88-2.12h.8v-.36c0-.83-.37-1.1-1.19-1.1a6 6 0 0 0-1.69.33l-.34-1a6.49 6.49 0 0 1 2.25-.5c1.7 0 2.44.78 2.44 2.19v2.66c0 .53.17.7.48.82zm-2-.85v-1.28h-.63c-1 0-1.48.36-1.48 1.1a.84.84 0 0 0 .9 1 1.35 1.35 0 0 0 1.22-.82zm7.79-4.06l-.69.92a2 2 0 0 0-1.28-.46c-.89 0-1.43.65-1.43 2.18s.57 2.07 1.43 2.07a2.21 2.21 0 0 0 1.28-.47l.69 1a3.19 3.19 0 0 1-2 .73c-1.84 0-3-1.27-3-3.3s1.14-3.41 3-3.41a3 3 0 0 1 2 .74zm5.89 3.08h-4c.12 1.29.72 1.71 1.55 1.71a2.59 2.59 0 0 0 1.61-.55l.63.88a3.66 3.66 0 0 1-2.35.85c-2 0-3-1.31-3-3.31s1-3.4 2.82-3.4 2.79 1.2 2.79 3.21c-.02.19-.04.44-.05.61zm-1.49-1.07c0-1-.37-1.66-1.23-1.66s-1.18.47-1.26 1.73h2.49zm21.98 3.77h-1.51V69l-1.8 1.1-.67-1 2.63-1.6h1.35zm7.47-3.19c0 1.94-.9 3.37-2.51 3.37a2 2 0 0 1-1.59-.7v3l-1.54.17v-9h1.34l.13.81a2.29 2.29 0 0 1 1.86-1c1.61 0 2.31 1.32 2.31 3.35zm-1.61 0c0-1.61-.43-2.19-1.2-2.19a1.58 1.58 0 0 0-1.29.86v2.85a1.33 1.33 0 0 0 1.16.66c.84.01 1.33-.64 1.33-2.17zm6.44 2.89a2.78 2.78 0 0 1-1.59.48c-1.25 0-1.91-.72-1.91-2.08V70.3h-1v-1.11h1v-1.4l1.53-.18v1.58h1.48l-.16 1.11h-1.32v3.31c0 .62.21.87.68.87a1.44 1.44 0 0 0 .75-.23z" class="a7a25238-f4e5-40b6-8479-a5945294c48d" transform="translate(0 -1.68)"/><path d="M0 70.41h1v1H0z" class="f63708c5-832d-4e07-a33e-79fb3d243290"/></g></g></svg>