<svg xmlns="http://www.w3.org/2000/svg" viewBox="0 0 670.56 221" width="670.56" height="221"><defs><style>.a6b614b2-181a-43a9-a004-400df8375d2f,.ab9d51e8-43aa-4d04-a740-20e0d802c889,.b6bca66d-27fe-46b3-af86-60352a75e2e7,.f1e75a7a-cbe6-40ce-b2c5-23af90847d25,.fce929b6-8c62-49dd-9749-23b2519470b7{fill:none;stroke-width:.5px}.a6b614b2-181a-43a9-a004-400df8375d2f,.b6bca66d-27fe-46b3-af86-60352a75e2e7,.fce929b6-8c62-49dd-9749-23b2519470b7{stroke:#505050}.a6b614b2-181a-43a9-a004-400df8375d2f,.ab9d51e8-43aa-4d04-a740-20e0d802c889,.b6bca66d-27fe-46b3-af86-60352a75e2e7,.f1e75a7a-cbe6-40ce-b2c5-23af90847d25{stroke-linecap:round;stroke-linejoin:round}.fce929b6-8c62-49dd-9749-23b2519470b7{stroke-miterlimit:10}.aacf738f-742b-4354-829c-2aa0e7285a12{fill:#505050}.ec1e1039-9744-48ac-965b-8ca27daf3f6d{fill:#2997ff}.a6b614b2-181a-43a9-a004-400df8375d2f,.ab9d51e8-43aa-4d04-a740-20e0d802c889{stroke-dasharray:6}.ab9d51e8-43aa-4d04-a740-20e0d802c889,.f1e75a7a-cbe6-40ce-b2c5-23af90847d25{stroke:#2997ff}.aef00d3a-b9fb-4d76-a7ba-6593c61ac077{fill:#b3b3b3}.f1e75a7a-cbe6-40ce-b2c5-23af90847d25{stroke-dasharray:5.55}</style></defs><g id="e523e958-82b0-40c4-934f-52474d9a2313"><g id="aac1eebe-560a-46d5-92c0-3fb5dc18edeb"><path d="M55.78 114.67h558.4M55.78.74l558.4-.49" class="b6bca66d-27fe-46b3-af86-60352a75e2e7"/><path d="M65.8 3.76v108.38" class="fce929b6-8c62-49dd-9749-23b2519470b7"/><path d="M66.77.74A15.39 15.39 0 0 1 64.39 5l2.38-.87 2.38.87A15.14 15.14 0 0 1 66.77.74zm0 114.42a15.2 15.2 0 0 0-2.38-4.27l2.38.86 2.38-.86a15 15 0 0 0-2.38 4.27z" class="aacf738f-742b-4354-829c-2aa0e7285a12" transform="translate(-.97)"/><path d="M6.78 39.73c0 1.91-1.38 2.76-3.25 2.76h-1v2.89H1v-8.29h2.42c2.08 0 3.36.85 3.36 2.64zm-1.66 0c0-1-.63-1.47-1.71-1.47h-.86v3h.86c1.05.04 1.71-.32 1.71-1.53zM13 42.2c0 2-1.11 3.36-3 3.36s-3-1.27-3-3.36 1.12-3.34 3-3.34 3 1.27 3 3.34zm-4.35 0c0 1.53.47 2.2 1.37 2.2s1.36-.69 1.36-2.2S10.92 40 10 40s-1.35.7-1.35 2.2zm7.28-5.44a1 1 0 1 1-1-.94.92.92 0 0 1 1 .94zm-.19 8.62h-1.53V39h1.53zm6.77-4.59v4.59H21V41c0-.79-.3-1-.78-1a1.63 1.63 0 0 0-1.33 1v4.41h-1.56V39h1.33l.12.82a2.38 2.38 0 0 1 1.93-1 1.71 1.71 0 0 1 1.8 1.97zm5.17 4.29a2.78 2.78 0 0 1-1.59.48c-1.25 0-1.91-.72-1.91-2.07v-3.35h-1V39h1v-1.37l1.53-.18V39h1.48L27 40.14h-1.29v3.31c0 .62.21.87.68.87a1.52 1.52 0 0 0 .75-.22zm8.6-7.15l-.78.9a2.76 2.76 0 0 0-1.85-.71c-.75 0-1.29.34-1.29 1s.33.86 1.71 1.29 2.45 1.06 2.45 2.62-1.16 2.54-3.14 2.54a4.11 4.11 0 0 1-3-1.14l.81-.91a3.14 3.14 0 0 0 2.14.83c.88 0 1.52-.43 1.52-1.24s-.35-1-1.64-1.4c-1.74-.54-2.5-1.24-2.5-2.5s1.19-2.29 2.82-2.29a3.72 3.72 0 0 1 2.75 1.01zm3.04-1.17a1 1 0 1 1-1-.94.92.92 0 0 1 1 .94zm-.19 8.62h-1.54V39h1.54zm5.73-5.24l-3.07 4h3.13l-.15 1.2H40v-1.1l3.08-4h-2.79V39h4.57zm6.08 2.54H47c.12 1.3.72 1.72 1.56 1.72a2.63 2.63 0 0 0 1.59-.57l.63.88a3.66 3.66 0 0 1-2.35.85c-2 0-3-1.31-3-3.31s1-3.39 2.82-3.39 2.75 1.2 2.75 3.2c0 .2 0 .45-.06.62zm-1.49-1.07c0-1-.37-1.66-1.24-1.66S47 40.43 47 41.69h2.5zM31.21 59.78H29.7v-6.52l-1.8 1.09-.67-1 2.62-1.61h1.36zm9.79-2.7h-4c.12 1.3.72 1.72 1.56 1.72a2.6 2.6 0 0 0 1.58-.57l.64.88a3.68 3.68 0 0 1-2.35.85c-2 0-3-1.31-3-3.31s1-3.39 2.81-3.39 2.8 1.2 2.8 3.2c.01.2-.04.45-.04.62zM39.53 56c0-1-.38-1.66-1.24-1.66s-1.18.48-1.26 1.74h2.5zm11.07-.81v4.59h-1.54v-4.35c0-.79-.31-1-.69-1s-.85.37-1.2 1v4.41h-1.54v-4.41c0-.79-.32-1-.69-1-.54 0-.87.37-1.21 1v4.41h-1.54v-6.4h1.33l.12.82a2.16 2.16 0 0 1 1.84-1A1.54 1.54 0 0 1 47 54.32a2.26 2.26 0 0 1 1.91-1.06 1.69 1.69 0 0 1 1.69 1.93zm101.25-1.39l-.8.93a2.4 2.4 0 0 0-1.54-.58c-1.15 0-2 .84-2 3.08s.87 3.07 2 3.07a2.68 2.68 0 0 0 1.69-.67l.75.93a3.49 3.49 0 0 1-2.5 1c-2.14 0-3.64-1.52-3.64-4.34s1.58-4.31 3.62-4.31a3.5 3.5 0 0 1 2.42.89zm5.98 6.73l-.33 1a1.43 1.43 0 0 1-1.4-.93 2.16 2.16 0 0 1-1.91 1 1.87 1.87 0 0 1-2-2c0-1.38 1-2.13 2.87-2.13h.81v-.36c0-.82-.37-1.1-1.19-1.1a5.71 5.71 0 0 0-1.69.34l-.35-1a6.51 6.51 0 0 1 2.29-.45c1.7 0 2.45.78 2.45 2.18v2.66c-.03.49.14.67.45.79zm-2-.85v-1.29h-.64c-1 0-1.49.36-1.49 1.11a.84.84 0 0 0 .9 1 1.39 1.39 0 0 0 1.24-.82zm8.78-1.48c0 1.94-.9 3.37-2.51 3.37a2 2 0 0 1-1.59-.69v3L159 64v-9h1.34l.09.78a2.29 2.29 0 0 1 1.86-1c1.62.09 2.32 1.39 2.32 3.42zm-1.61 0c0-1.6-.43-2.19-1.2-2.19a1.58 1.58 0 0 0-1.29.86v2.86a1.35 1.35 0 0 0 1.16.66c.84.01 1.33-.64 1.33-2.18zm10.21-.52h-3v3.71h-1.58V53.1h1.58v3.33h3V53.1h1.6v8.29h-1.6zm8.44 1.01h-4c.12 1.3.71 1.72 1.55 1.72a2.61 2.61 0 0 0 1.59-.57l.63.88a3.66 3.66 0 0 1-2.35.85c-2 0-3-1.31-3-3.31s1-3.39 2.82-3.39 2.79 1.2 2.79 3.2c0 .2-.02.45-.03.62zm-1.49-1.07c0-1-.37-1.66-1.24-1.66-.71 0-1.17.48-1.25 1.74h2.49zm4.39-4.85a1 1 0 1 1-1-.94.92.92 0 0 1 1 .94zm-.19 8.62h-1.53v-6.34h1.53zm7.13-6.01a5.64 5.64 0 0 1-1.84.22 1.67 1.67 0 0 1 1.15 1.63c0 1.23-1 2.13-2.55 2.13a2.64 2.64 0 0 1-.76-.09.58.58 0 0 0-.26.47c0 .22.13.44.77.44h1c1.4 0 2.31.76 2.31 1.8 0 1.27-1.09 2-3.16 2-2.26 0-2.89-.72-2.89-2h1.38c0 .64.27.92 1.53.92s1.6-.34 1.6-.84-.38-.76-1.08-.76h-1c-1.27 0-1.81-.56-1.81-1.22a1.42 1.42 0 0 1 .74-1.18 1.85 1.85 0 0 1-1.12-1.78 2.35 2.35 0 0 1 2.63-2.28 5.14 5.14 0 0 0 3-.71zm-4.43 1.74a1.1 1.1 0 0 0 1.13 1.25c.73 0 1.13-.46 1.13-1.26s-.39-1.2-1.15-1.2a1.08 1.08 0 0 0-1.11 1.21zm10.3-.32v4.59h-1.54V57c0-.79-.31-1-.78-1a1.66 1.66 0 0 0-1.33.94v4.43h-1.54v-8.85l1.54-.16v3.44a2.28 2.28 0 0 1 1.85-.93 1.72 1.72 0 0 1 1.8 1.93zm5.17 4.29a2.81 2.81 0 0 1-1.6.48c-1.24 0-1.9-.72-1.9-2.07v-3.35h-1v-1.1h1v-1.41l1.53-.18v1.59H202l-.16 1.1h-1.32v3.31c0 .62.21.88.67.88a1.61 1.61 0 0 0 .76-.23zm140.69 1.96h-1.77l-1.31-2.52-1.3 2.52h-1.69l2.11-3.35-1.89-3h1.75l1.08 2.16 1.07-2.16h1.66l-1.83 2.95zm-.04-4.37h3.62v1.23h-3.62zm10.1-.22v4.59h-1.54V58.7c0-.8-.31-1-.78-1a1.66 1.66 0 0 0-1.33.94v4.43h-1.53v-8.9l1.53-.15v3.44a2.29 2.29 0 0 1 1.85-.94 1.73 1.73 0 0 1 1.8 1.94zm6.72 1.89h-4c.12 1.3.72 1.72 1.56 1.72a2.63 2.63 0 0 0 1.59-.57l.63.88a3.66 3.66 0 0 1-2.35.85c-2 0-3-1.31-3-3.31s1-3.4 2.82-3.4 2.79 1.2 2.79 3.21c-.04.2-.04.45-.04.62zm-1.49-1.07c0-1-.37-1.66-1.24-1.66-.72 0-1.17.48-1.26 1.74h2.5zm4.38-4.85a1 1 0 1 1-1-.94.92.92 0 0 1 1 .94zm-.19 8.62h-1.53V56.7h1.53zm7.13-6.05a5.64 5.64 0 0 1-1.84.22 1.66 1.66 0 0 1 1.15 1.63c0 1.23-1 2.13-2.55 2.13a2.64 2.64 0 0 1-.76-.09.56.56 0 0 0-.26.46c0 .23.13.45.77.45h1c1.4 0 2.31.75 2.31 1.8 0 1.27-1.09 2-3.16 2-2.26 0-2.89-.72-2.89-2h1.4c0 .64.27.91 1.53.91s1.6-.33 1.6-.84S367.7 63 367 63h-1c-1.28 0-1.81-.56-1.81-1.22a1.42 1.42 0 0 1 .74-1.18 1.86 1.86 0 0 1-1.12-1.79 2.35 2.35 0 0 1 2.63-2.28 5.17 5.17 0 0 0 3-.7zm-4.43 1.74a1.1 1.1 0 0 0 1.13 1.26c.73 0 1.13-.46 1.13-1.26s-.39-1.2-1.16-1.2a1.08 1.08 0 0 0-1.1 1.24zm10.29-.28v4.59h-1.53V58.7c0-.8-.31-1-.78-1a1.66 1.66 0 0 0-1.33.94v4.43h-1.54v-8.9l1.54-.15v3.44a2.29 2.29 0 0 1 1.84-.94 1.73 1.73 0 0 1 1.8 1.94zm5.18 4.29a2.81 2.81 0 0 1-1.6.48c-1.25 0-1.9-.72-1.9-2.08v-3.34h-1V56.7h1v-1.4l1.53-.18v1.58h1.48l-.16 1.11h-1.32v3.31c0 .62.2.87.67.87a1.59 1.59 0 0 0 .76-.22zM13.33 82.18c0 1.83-1.45 2.39-3.47 2.39H7.37v-8.29h2.17c2.13 0 3.43.6 3.43 2.11a1.81 1.81 0 0 1-1.54 1.79c.95.18 1.9.62 1.9 2zM9 77.44v2.25h1c.87 0 1.43-.39 1.43-1.17s-.58-1.08-1.66-1.08zm2.72 4.68c0-1-.7-1.33-1.63-1.33H9v2.59h.93c.99 0 1.74-.21 1.74-1.26zm7.87 1.59l-.32 1a1.42 1.42 0 0 1-1.4-.92 2.19 2.19 0 0 1-1.91 1 1.89 1.89 0 0 1-2-2c0-1.38 1-2.12 2.88-2.12h.8v-.36c0-.83-.37-1.1-1.18-1.1a6 6 0 0 0-1.7.33l-.34-1a6.53 6.53 0 0 1 2.25-.54c1.7 0 2.44.78 2.44 2.19v2.66c0 .55.17.74.48.86zm-2-.86v-1.28H17c-1 0-1.49.36-1.49 1.1s.31 1 .9 1a1.35 1.35 0 0 0 1.19-.82zM25 78.8l-.6.9a2.87 2.87 0 0 0-1.6-.52c-.61 0-1 .26-1 .64s.25.61 1.33.91c1.3.35 2 .88 2 2 0 1.32-1.22 2-2.67 2a3.69 3.69 0 0 1-2.53-.9l.76-.86a2.9 2.9 0 0 0 1.73.62c.68 0 1.13-.29 1.13-.77s-.25-.69-1.44-1-1.88-1-1.88-1.92 1-1.85 2.44-1.85a3.58 3.58 0 0 1 2.33.75zm6.4 3.07h-4c.12 1.3.72 1.72 1.56 1.72a2.67 2.67 0 0 0 1.6-.59l.64.88a3.68 3.68 0 0 1-2.35.85c-2 0-3-1.31-3-3.31s1-3.4 2.82-3.4 2.8 1.2 2.8 3.21c-.03.22-.06.47-.07.64zm-1.49-1.07c0-1-.37-1.66-1.23-1.66s-1.18.48-1.26 1.73h2.49zm2.6 2.32v-7.44l1.49-.17v7.56c0 .3.1.44.36.44a.88.88 0 0 0 .35-.06l.34 1.08a2.61 2.61 0 0 1-1 .22 1.45 1.45 0 0 1-1.54-1.63zM37.66 76a1 1 0 1 1-1-.94.93.93 0 0 1 1 .94zm-.2 8.62h-1.53v-6.4h1.53zM44.23 80v4.59h-1.54v-4.38c0-.79-.3-1-.78-1s-.95.37-1.33 1v4.42h-1.53v-6.41h1.33l.12.83a2.38 2.38 0 0 1 1.93-1 1.71 1.71 0 0 1 1.8 1.95zm6.71 1.87H47c.12 1.3.72 1.72 1.56 1.72A2.69 2.69 0 0 0 50.1 83l.63.88a3.66 3.66 0 0 1-2.35.85c-2 0-3-1.31-3-3.31s1-3.4 2.82-3.4 2.8 1.22 2.8 3.23c0 .2 0 .45-.06.62zm-1.49-1.07c0-1-.37-1.66-1.24-1.66S47 79.62 47 80.87h2.5zM13.33 196.6c0 1.82-1.45 2.39-3.47 2.39H7.37v-8.29h2.17c2.13 0 3.43.6 3.43 2.11a1.81 1.81 0 0 1-1.54 1.79c.95.18 1.9.62 1.9 2zM9 191.86v2.24h1c.87 0 1.43-.38 1.43-1.16s-.58-1.08-1.66-1.08zm2.72 4.68c0-1-.7-1.33-1.63-1.33H9v2.59h.93c.99 0 1.74-.22 1.74-1.26zm7.87 1.58l-.32 1a1.42 1.42 0 0 1-1.4-.92 2.19 2.19 0 0 1-1.91.95 1.89 1.89 0 0 1-2-2c0-1.38 1-2.12 2.88-2.12h.8v-.36c0-.83-.37-1.1-1.18-1.1a5.65 5.65 0 0 0-1.7.33l-.34-1a6.53 6.53 0 0 1 2.29-.46c1.7 0 2.44.78 2.44 2.18v2.67c-.04.53.13.71.44.83zm-2-.85V196H17c-1 0-1.49.36-1.49 1.1a.84.84 0 0 0 .9 1 1.37 1.37 0 0 0 1.19-.83zm7.41-4.05l-.6.9a2.87 2.87 0 0 0-1.6-.52c-.61 0-1 .25-1 .64s.25.61 1.33.91c1.3.35 2 .87 2 2 0 1.32-1.22 2-2.67 2a3.74 3.74 0 0 1-2.53-.9l.76-.87a2.91 2.91 0 0 0 1.73.63c.68 0 1.13-.29 1.13-.77s-.25-.7-1.44-1-1.88-1-1.88-1.92 1-1.85 2.44-1.85a3.58 3.58 0 0 1 2.33.75zm6.4 3.07h-4c.12 1.29.72 1.71 1.56 1.71a2.65 2.65 0 0 0 1.58-.56l.64.87a3.63 3.63 0 0 1-2.35.86c-2 0-3-1.31-3-3.31s1-3.4 2.82-3.4 2.8 1.2 2.8 3.2c-.01.21-.04.46-.05.63zm-1.49-1.07c0-1-.37-1.67-1.23-1.67s-1.18.48-1.26 1.74h2.49zm2.6 2.31v-7.43l1.53-.17v7.56c0 .3.1.44.36.44a.88.88 0 0 0 .35-.06l.34 1.08a2.61 2.61 0 0 1-1 .22 1.45 1.45 0 0 1-1.58-1.64zm5.15-7.17a1 1 0 1 1-1-.93.93.93 0 0 1 1 .93zm-.2 8.63h-1.53v-6.35h1.53zm6.77-4.6V199h-1.54v-4.36c0-.79-.3-1-.78-1s-.95.37-1.33 1V199h-1.53v-6.35h1.33l.12.83a2.36 2.36 0 0 1 1.93-1 1.71 1.71 0 0 1 1.8 1.91zm6.71 1.9H47c.12 1.29.72 1.71 1.56 1.71a2.68 2.68 0 0 0 1.59-.56l.63.87a3.61 3.61 0 0 1-2.35.86c-2 0-3-1.31-3-3.31s1-3.4 2.82-3.4 2.79 1.2 2.79 3.2c-.04.21-.04.46-.1.63zm-1.49-1.07c0-1-.37-1.67-1.24-1.67S47 194 47 195.29h2.5zM596.23 36.51h-2.75l-.48 1.92h-1.64l2.57-8.29h2l2.57 8.29h-1.68zm-.31-1.2l-1.07-4-1.05 4zm7.43-2.65l-.6.9a2.87 2.87 0 0 0-1.6-.52c-.61 0-1 .25-1 .64s.25.61 1.33.91c1.3.35 2 .87 2 2 0 1.32-1.22 2-2.67 2a3.74 3.74 0 0 1-2.53-.9l.76-.87a2.91 2.91 0 0 0 1.73.63c.68 0 1.13-.29 1.13-.77s-.25-.7-1.44-1-1.88-1-1.88-1.92 1-1.85 2.44-1.85a3.58 3.58 0 0 1 2.33.75zm5.83-.01l-.68.92a2.06 2.06 0 0 0-1.29-.46c-.89 0-1.43.65-1.43 2.17s.57 2.08 1.43 2.08a2.24 2.24 0 0 0 1.29-.46l.68 1a3.14 3.14 0 0 1-2 .74c-1.84 0-3-1.27-3-3.3s1.14-3.41 3-3.41a3 3 0 0 1 2 .72zm5.89 3.08h-4c.12 1.29.72 1.71 1.56 1.71a2.65 2.65 0 0 0 1.58-.56l.64.87a3.65 3.65 0 0 1-2.35.86c-2 0-3-1.31-3-3.31s1-3.4 2.82-3.4 2.8 1.2 2.8 3.2c-.01.21-.04.46-.05.63zm-1.49-1.07c0-1-.37-1.67-1.23-1.67s-1.18.48-1.26 1.74h2.49zm7.85-.83v4.6h-1.53v-4.36c0-.79-.3-1-.78-1s-1 .37-1.34 1v4.42h-1.53v-6.41h1.33l.12.83a2.36 2.36 0 0 1 1.93-1 1.71 1.71 0 0 1 1.8 1.92zm6.82-4.29v8.89h-1.36l-.11-.81a2.1 2.1 0 0 1-1.81 1c-1.58 0-2.41-1.33-2.41-3.35s1-3.36 2.56-3.36a2.18 2.18 0 0 1 1.59.69v-3.23zm-1.54 7.09v-2.9a1.51 1.51 0 0 0-1.21-.68c-.79 0-1.32.68-1.32 2.2s.47 2.19 1.22 2.19a1.49 1.49 0 0 0 1.31-.81zm8.29-.9h-4c.12 1.29.72 1.71 1.56 1.71a2.68 2.68 0 0 0 1.59-.56l.63.87a3.61 3.61 0 0 1-2.35.86c-2 0-3-1.31-3-3.31s1-3.4 2.82-3.4 2.79 1.2 2.79 3.2c.02.21-.04.46-.04.63zm-1.49-1.07c0-1-.37-1.67-1.24-1.67-.72 0-1.17.48-1.26 1.74h2.5zM640 32l-.26 1.48a2.47 2.47 0 0 0-.57-.07c-.76 0-1.16.57-1.4 1.63v3.39h-1.53v-6.35h1.33l.14 1.25a1.79 1.79 0 0 1 1.66-1.42 2.18 2.18 0 0 1 .63.09zm5.13 5.13h3.32l-.18 1.3h-4.72v-8.29h1.58zm5.93-7.33a1 1 0 1 1-1-.93.93.93 0 0 1 1 .93zm-.19 8.63h-1.54v-6.35h1.54zm6.76-4.6v4.6h-1.53v-4.36c0-.79-.3-1-.78-1A1.63 1.63 0 0 0 654 34v4.42h-1.54v-6.34h1.33l.12.83a2.37 2.37 0 0 1 1.93-1 1.71 1.71 0 0 1 1.79 1.92zm6.71 1.9h-4c.12 1.29.72 1.71 1.56 1.71a2.65 2.65 0 0 0 1.58-.56l.64.87a3.63 3.63 0 0 1-2.35.86c-2 0-3-1.31-3-3.31s1-3.4 2.82-3.4 2.8 1.2 2.8 3.2c-.01.21-.04.46-.05.63zm-1.49-1.07c0-1-.37-1.67-1.23-1.67s-1.18.48-1.26 1.74h2.49zm-64.53 15.78c0 1.82-1.45 2.39-3.47 2.39h-2.49v-8.29h2.17c2.13 0 3.43.6 3.43 2.11a1.82 1.82 0 0 1-1.54 1.79c.95.18 1.9.62 1.9 2zm-4.38-4.74v2.24h1c.87 0 1.43-.38 1.43-1.16s-.58-1.08-1.66-1.08zm2.72 4.68c0-1-.7-1.33-1.63-1.33h-1.09v2.59h.92c1.05 0 1.8-.22 1.8-1.26zm8.34-.73c0 2-1.11 3.36-3 3.36s-3-1.28-3-3.36 1.12-3.35 3-3.35 3 1.27 3 3.35zm-4.35 0c0 1.52.47 2.19 1.37 2.19s1.36-.68 1.36-2.19-.46-2.18-1.35-2.18-1.37.68-1.37 2.18zm10.87-5.71v8.89h-1.36l-.11-.81a2.1 2.1 0 0 1-1.81 1c-1.58 0-2.41-1.34-2.41-3.35s1-3.36 2.56-3.36A2.18 2.18 0 0 1 610 47v-3.23zM610 51v-2.88a1.53 1.53 0 0 0-1.21-.67c-.79 0-1.32.67-1.32 2.2s.47 2.19 1.23 2.19A1.49 1.49 0 0 0 610 51zm6.2 1.85a3.4 3.4 0 0 1-3.3 2.59l-.15-1.11a2.12 2.12 0 0 0 2-1.5h-.52l-2-6.35h1.63l1.38 5.33 1.44-5.33h1.58zm10.15-3.73h-3v3.71h-1.58v-8.29h1.58v3.32h3v-3.32H628v8.29h-1.6zm8.44 1.01h-4c.12 1.29.72 1.71 1.56 1.71a2.68 2.68 0 0 0 1.59-.56l.63.87a3.61 3.61 0 0 1-2.35.86c-2 0-3-1.31-3-3.31s1-3.4 2.82-3.4 2.79 1.2 2.79 3.2c-.01.21-.03.5-.04.63zm-1.49-1.07c0-1-.37-1.67-1.24-1.67-.72 0-1.17.48-1.26 1.74h2.5zm4.39-4.86a1 1 0 1 1-1-.93.92.92 0 0 1 1 .93zm-.19 8.63H636v-6.35h1.54zm7.13-6.01a5.67 5.67 0 0 1-1.84.21 1.67 1.67 0 0 1 1.15 1.63c0 1.24-1 2.14-2.55 2.14a2.33 2.33 0 0 1-.76-.1.6.6 0 0 0-.26.47c0 .23.13.44.77.44h1c1.4 0 2.31.76 2.31 1.8 0 1.28-1.09 2-3.16 2-2.26 0-2.89-.72-2.89-2h1.38c0 .64.27.91 1.53.91s1.6-.33 1.6-.84-.38-.75-1.08-.75h-1c-1.28 0-1.81-.57-1.81-1.23a1.42 1.42 0 0 1 .74-1.17 1.86 1.86 0 0 1-1.12-1.79 2.35 2.35 0 0 1 2.63-2.28 5.09 5.09 0 0 0 3-.71zm-4.43 1.74a1.1 1.1 0 0 0 1.13 1.24c.73 0 1.13-.45 1.13-1.26a1 1 0 0 0-1.16-1.19 1.07 1.07 0 0 0-1.1 1.21zm10.29-.33v4.6H649v-4.36c0-.79-.31-1-.78-1a1.66 1.66 0 0 0-1.33.95v4.43h-1.54V44l1.54-.15v3.44a2.29 2.29 0 0 1 1.84-.94 1.72 1.72 0 0 1 1.76 1.88zm5.18 4.3a2.81 2.81 0 0 1-1.6.48c-1.25 0-1.9-.72-1.9-2.08v-3.34h-1v-1.11h1v-1.4l1.53-.18v1.58h1.47l-.17 1.11h-1.3v3.31c0 .62.2.87.67.87a1.5 1.5 0 0 0 .76-.23zM598.64 63c0 3.36-2 4.19-4 4.19h-2.25v-8.25h2c2.19 0 4.25.67 4.25 4.06zm-4.7-2.91V66h.78c1.24 0 2.25-.55 2.25-3s-1.07-2.91-2.3-2.91zM605 64.53h-4c.12 1.29.72 1.71 1.56 1.71a2.65 2.65 0 0 0 1.58-.56l.63.87a3.61 3.61 0 0 1-2.35.86c-2 0-3-1.31-3-3.31s1-3.4 2.82-3.4 2.79 1.2 2.79 3.2c.04.21.02.46-.03.63zm-1.49-1.07c0-1-.37-1.67-1.23-1.67s-1.18.48-1.26 1.74h2.49zm6.99-2l-.6.9a2.87 2.87 0 0 0-1.6-.52c-.61 0-1 .25-1 .64s.26.61 1.34.91c1.29.35 2 .87 2 2 0 1.32-1.22 2-2.67 2a3.74 3.74 0 0 1-2.53-.9l.76-.87a2.91 2.91 0 0 0 1.73.63c.69 0 1.13-.29 1.13-.77s-.25-.7-1.44-1-1.88-1-1.88-1.92 1-1.85 2.44-1.85a3.56 3.56 0 0 1 2.32.75zm5.83-.01l-.68.92a2.06 2.06 0 0 0-1.29-.46c-.88 0-1.42.65-1.42 2.17s.56 2.08 1.42 2.08a2.24 2.24 0 0 0 1.29-.46l.68 1a3.12 3.12 0 0 1-2.05.74c-1.83 0-3-1.28-3-3.3s1.14-3.41 3-3.41a2.93 2.93 0 0 1 2.05.72zm5.89 3.08h-4c.12 1.29.72 1.71 1.56 1.71a2.65 2.65 0 0 0 1.58-.56l.64.87a3.63 3.63 0 0 1-2.35.86c-2 0-3-1.31-3-3.31s1-3.4 2.81-3.4 2.8 1.2 2.8 3.2c0 .21-.03.46-.04.63zm-1.48-1.07c0-1-.38-1.67-1.24-1.67s-1.18.48-1.26 1.74h2.5zm7.84-.83v4.6h-1.53v-4.36c0-.79-.3-1-.78-1a1.63 1.63 0 0 0-1.33 1v4.42h-1.54v-6.41h1.33l.12.83a2.36 2.36 0 0 1 1.93-1 1.71 1.71 0 0 1 1.8 1.92zm6.82-4.29v8.89H634l-.11-.81a2.1 2.1 0 0 1-1.81 1c-1.58 0-2.41-1.34-2.41-3.35s1-3.36 2.56-3.36a2.18 2.18 0 0 1 1.59.69v-3.23zm-1.54 7.09v-2.9a1.51 1.51 0 0 0-1.21-.68c-.79 0-1.32.68-1.32 2.2s.47 2.19 1.23 2.19a1.49 1.49 0 0 0 1.3-.81zm8.32-.9h-4c.12 1.29.72 1.71 1.55 1.71a2.66 2.66 0 0 0 1.59-.56l.63.87a3.61 3.61 0 0 1-2.35.86c-2 0-3-1.31-3-3.31s1-3.4 2.82-3.4 2.79 1.2 2.79 3.2c0 .21-.02.46-.03.63zm-1.49-1.07c0-1-.37-1.67-1.23-1.67s-1.18.48-1.26 1.74h2.49zm6.43-2.66l-.26 1.48a2.47 2.47 0 0 0-.57-.07c-.76 0-1.16.57-1.4 1.63v3.39h-1.53v-6.35h1.33l.14 1.25a1.79 1.79 0 0 1 1.66-1.42 2.18 2.18 0 0 1 .63.09zm5.16 5.13h3.33l-.18 1.3h-4.73v-8.29h1.58zm5.93-7.33a1 1 0 1 1-1-.93.92.92 0 0 1 1 .93zm-.21 8.63h-1.54v-6.35H658zm6.79-4.6v4.6h-1.54v-4.36c0-.79-.3-1-.78-1a1.63 1.63 0 0 0-1.33 1v4.42h-1.54v-6.41h1.34l.12.83a2.34 2.34 0 0 1 1.93-1 1.71 1.71 0 0 1 1.8 1.92zm6.7 1.9h-4c.12 1.29.72 1.71 1.56 1.71a2.65 2.65 0 0 0 1.58-.56l.64.87a3.61 3.61 0 0 1-2.35.86c-2 0-3-1.31-3-3.31s1-3.4 2.82-3.4 2.79 1.2 2.79 3.2a5.9 5.9 0 0 1-.04.63zM670 63.46c0-1-.38-1.67-1.24-1.67s-1.17.48-1.26 1.74h2.5zM241.49 161.9h3.33l-.18 1.29h-4.73v-8.28h1.58zm9.1-1.41h-4c.12 1.3.72 1.72 1.56 1.72a2.65 2.65 0 0 0 1.58-.56l.63.87a3.6 3.6 0 0 1-2.35.85c-2 0-3-1.3-3-3.31s1-3.39 2.82-3.39 2.79 1.2 2.79 3.2c0 .2-.02.46-.03.62zm-1.49-1.06c0-1.05-.37-1.67-1.23-1.67s-1.18.48-1.26 1.74h2.49zm7.74 2.9l-.32 1a1.44 1.44 0 0 1-1.41-.92 2.17 2.17 0 0 1-1.9.94 1.88 1.88 0 0 1-2-2c0-1.38 1-2.12 2.88-2.12h.8v-.36c0-.83-.37-1.11-1.19-1.11a5.71 5.71 0 0 0-1.69.34l-.35-1a6.55 6.55 0 0 1 2.29-.45c1.71 0 2.45.78 2.45 2.18v2.66c-.04.51.13.72.44.84zm-2-.85v-1.29h-.64c-1 0-1.48.36-1.48 1.11a.84.84 0 0 0 .9 1 1.38 1.38 0 0 0 1.23-.82zm8.44-7.17v8.88h-1.35l-.11-.8a2.12 2.12 0 0 1-1.81 1c-1.58 0-2.41-1.33-2.41-3.34s1-3.36 2.55-3.36a2.23 2.23 0 0 1 1.6.68v-3.21zm-1.53 7.08v-2.9a1.53 1.53 0 0 0-1.21-.67c-.79 0-1.32.67-1.32 2.19s.47 2.2 1.22 2.2a1.5 1.5 0 0 0 1.31-.82zm4.85-6.82a1 1 0 1 1-1-.94.93.93 0 0 1 1 .94zm-.19 8.62h-1.54v-6.34h1.54zm6.76-4.59v4.59h-1.53v-4.35c0-.79-.3-1-.78-1a1.63 1.63 0 0 0-1.33 1v4.41H268v-6.34h1.33l.12.83a2.36 2.36 0 0 1 1.93-1 1.71 1.71 0 0 1 1.79 1.86zm7.06-1.42a5.64 5.64 0 0 1-1.84.22 1.67 1.67 0 0 1 1.15 1.63c0 1.24-1 2.14-2.55 2.14a2.64 2.64 0 0 1-.76-.1.6.6 0 0 0-.26.47c0 .23.13.44.77.44h1c1.4 0 2.31.76 2.31 1.8 0 1.27-1.09 2-3.16 2-2.26 0-2.89-.72-2.89-2h1.38c0 .63.27.91 1.53.91s1.6-.34 1.6-.84-.38-.76-1.08-.76h-1c-1.27 0-1.81-.56-1.81-1.22a1.44 1.44 0 0 1 .74-1.18 1.84 1.84 0 0 1-1.12-1.78 2.35 2.35 0 0 1 2.63-2.28 5.14 5.14 0 0 0 3-.71zm-4.43 1.74a1.1 1.1 0 0 0 1.13 1.25c.73 0 1.13-.46 1.13-1.26s-.39-1.2-1.15-1.2a1.08 1.08 0 0 0-1.11 1.21z" class="ec1e1039-9744-48ac-965b-8ca27daf3f6d" transform="translate(-.97)"/><path d="M55.78 31.16h523.05" class="a6b614b2-181a-43a9-a004-400df8375d2f"/><path d="M55.78 84.57h558.4" class="ab9d51e8-43aa-4d04-a740-20e0d802c889"/><path d="M55.78 106.58h558.4M55.78 8.34h558.4" class="a6b614b2-181a-43a9-a004-400df8375d2f"/><path d="M329.54 34.17v47.38" class="fce929b6-8c62-49dd-9749-23b2519470b7"/><path d="M330.51 31.16a14.93 14.93 0 0 1-2.37 4.27l2.37-.86 2.38.86a15.2 15.2 0 0 1-2.38-4.27zm0 53.41a15.12 15.12 0 0 0-2.37-4.28l2.37.86 2.38-.86a15.39 15.39 0 0 0-2.38 4.28z" class="aacf738f-742b-4354-829c-2aa0e7285a12" transform="translate(-.97)"/><path d="M578.83 11.36v92.2" class="fce929b6-8c62-49dd-9749-23b2519470b7"/><path d="M579.8 8.34a15.2 15.2 0 0 1-2.38 4.27l2.38-.86 2.38.86a15.2 15.2 0 0 1-2.38-4.27zm0 98.24a15.2 15.2 0 0 0-2.38-4.27l2.38.86 2.38-.86a15.2 15.2 0 0 0-2.38 4.27z" class="aacf738f-742b-4354-829c-2aa0e7285a12" transform="translate(-.97)"/><path d="M322.86 84.57h-14.94l-11-21.2L286 84.57h-14.23l17.77-28.17-16-25.24h14.74l9.08 18.17 9-18.17h14L305 56z" class="aef00d3a-b9fb-4d76-a7ba-6593c61ac077" transform="translate(-.97)"/><path d="M138.92 17.82v63.73" class="fce929b6-8c62-49dd-9749-23b2519470b7"/><path d="M139.89 14.8a15.2 15.2 0 0 1-2.38 4.27l2.38-.86 2.38.86a15 15 0 0 1-2.38-4.27zm0 69.77a15.39 15.39 0 0 0-2.38-4.28l2.38.86 2.38-.86a15.14 15.14 0 0 0-2.38 4.28z" class="aacf738f-742b-4354-829c-2aa0e7285a12" transform="translate(-.97)"/><path d="M55.78 14.8h558.4" class="a6b614b2-181a-43a9-a004-400df8375d2f"/><path d="M116.79 53.37H92v31.2H78.62V14.8H92v28h24.84v-28h13.43v69.77h-13.48zM495.74 25.5v5.66h12.83l-1.42 9.29h-11.41v44.12h-12.92V40.45h-8.68v-9.29h8.68V25.3c0-9.69 6.46-17 18.78-17a31.67 31.67 0 0 1 13.83 3.13l-3.73 8.68a20.72 20.72 0 0 0-8.79-2c-5.25.02-7.17 2.34-7.17 7.39zm73.54 8.5c-4 1.42-9.08 1.82-15.45 1.82 6.47 2.93 9.7 7.07 9.7 13.73 0 10.4-8.08 18-21.51 18a21.75 21.75 0 0 1-6.36-.81 4.85 4.85 0 0 0-2.22 3.93c0 1.92 1.11 3.74 6.46 3.74h8.18c11.81 0 19.49 6.36 19.49 15.15 0 10.7-9.19 17.06-26.66 17.06-19 0-24.33-6.06-24.33-16.76h11.61c0 5.35 2.32 7.67 12.92 7.67 10.4 0 13.43-2.82 13.43-7.07 0-3.93-3.13-6.36-9.09-6.36h-8.07c-10.71 0-15.25-4.74-15.25-10.29 0-3.74 2.32-7.48 6.26-9.9-6.56-3.43-9.39-8.18-9.39-15 0-11.62 9.19-19.19 22.11-19.19 12.62.31 18.48-2.52 24.94-5.95zM532 48.62c0 6.47 3.53 10.5 9.49 10.5 6.16 0 9.49-3.83 9.49-10.6s-3.23-10.09-9.7-10.09c-5.82 0-9.28 4.04-9.28 10.19z" class="aef00d3a-b9fb-4d76-a7ba-6593c61ac077" transform="translate(-.97)"/><path d="M55.78 198.99h561.4" class="f1e75a7a-cbe6-40ce-b2c5-23af90847d25"/><path d="M134.29 139.92v5.65h12.82l-1.41 9.29h-11.41V199h-12.93v-44.14h-8.68v-9.29h8.68v-5.85c0-9.69 6.47-17 18.78-17a31.72 31.72 0 0 1 13.86 3.17l-3.74 8.68a20.56 20.56 0 0 0-8.78-2c-5.27-.02-7.19 2.3-7.19 7.35zm73.54 8.48c-4 1.41-9.09 1.82-15.45 1.82 6.46 2.93 9.69 7.07 9.69 13.73 0 10.4-8.08 18-21.51 18a21.42 21.42 0 0 1-6.36-.81 4.87 4.87 0 0 0-2.22 3.94c0 1.92 1.11 3.74 6.46 3.74h8.18c11.82 0 19.49 6.36 19.49 15.14 0 10.71-9.19 17.07-26.66 17.07-19 0-24.33-6.06-24.33-16.76h11.61c0 5.35 2.32 7.67 12.93 7.67 10.4 0 13.42-2.83 13.42-7.07 0-3.94-3.13-6.36-9.08-6.36h-8.08c-10.7 0-15.25-4.74-15.25-10.3 0-3.73 2.33-7.47 6.26-9.89-6.56-3.44-9.39-8.18-9.39-15 0-11.61 9.19-19.18 22.12-19.18 12.62.3 18.47-2.52 24.93-6zM170.57 163c0 6.46 3.53 10.5 9.49 10.5 6.16 0 9.49-3.83 9.49-10.6s-3.23-10.1-9.69-10.1c-5.86.04-9.29 4.08-9.29 10.2z" class="aef00d3a-b9fb-4d76-a7ba-6593c61ac077" transform="translate(-.97)"/><path d="M228.46 87.59v108.38" class="fce929b6-8c62-49dd-9749-23b2519470b7"/><path d="M229.43 84.57a15.2 15.2 0 0 1-2.38 4.27l2.38-.86 2.38.86a15.2 15.2 0 0 1-2.38-4.27zm0 114.43a15.25 15.25 0 0 0-2.38-4.28l2.38.86 2.38-.86a15.25 15.25 0 0 0-2.38 4.28z" class="aacf738f-742b-4354-829c-2aa0e7285a12" transform="translate(-.97)"/></g></g></svg>