<svg xmlns="http://www.w3.org/2000/svg" viewBox="0 0 273.48 86.36" width="273.48" height="86.36"><defs><style>.e904b3ec-0134-4a7b-a056-06cf21391572{fill:#b3b3b3}.e61a2be9-d5b1-4288-a7d0-0a8529020ed8{fill:#2997ff}.b4e9fdc7-5d1f-43ca-bfe1-96a0df7b8047{fill:none;stroke:#b3b3b3;stroke-miterlimit:10;stroke-width:.5px}</style></defs><g id="ad36f17d-f440-4382-b967-78f96ad5c70f"><g id="b82bad83-a589-4fd1-8e53-7b53c957f281"><path d="M76.18 6.54h-3v3.71h-1.53V2h1.58v3.29h3V2h1.6v8.29h-1.6zm8.4 2.85l-.32 1a1.42 1.42 0 0 1-1.4-.93 2.17 2.17 0 0 1-1.91.95 1.88 1.88 0 0 1-2-1.95c0-1.38 1-2.13 2.88-2.13h.8V6c0-.82-.37-1.1-1.19-1.1a5.71 5.71 0 0 0-1.69.34l-.34-1.05a6.51 6.51 0 0 1 2.29-.45c1.7 0 2.44.78 2.44 2.18v2.65c-.04.52.13.7.44.82zm-2-.85V7.25H82c-1 0-1.49.36-1.49 1.11a.84.84 0 0 0 .9 1 1.37 1.37 0 0 0 1.18-.82zm8.33-2.88v4.59h-1.54V5.9c0-.79-.3-1-.78-1a1.63 1.63 0 0 0-1.33 1v4.41h-1.53v-6.4h1.33l.12.82a2.38 2.38 0 0 1 1.93-1 1.71 1.71 0 0 1 1.8 1.93zm6.81-4.3v8.89h-1.35l-.11-.8a2.13 2.13 0 0 1-1.81 1C92.87 10.43 92 9.1 92 7.08s1-3.35 2.55-3.35a2.21 2.21 0 0 1 1.6.68V1.2zm-1.53 7.09v-2.9A1.53 1.53 0 0 0 95 4.88c-.8 0-1.32.67-1.32 2.19s.46 2.2 1.22 2.2a1.51 1.51 0 0 0 1.29-.82zm8.66-4.21a5.61 5.61 0 0 1-1.83.22 1.68 1.68 0 0 1 1.15 1.63c0 1.23-1 2.13-2.56 2.13a2.62 2.62 0 0 1-.75-.09.57.57 0 0 0-.27.47c0 .22.13.44.77.44h1c1.41 0 2.32.75 2.32 1.8 0 1.27-1.09 2-3.17 2-2.25 0-2.89-.72-2.89-2H100c0 .63.28.91 1.53.91s1.6-.34 1.6-.84-.37-.76-1.08-.76h-1c-1.27 0-1.81-.56-1.81-1.22a1.45 1.45 0 0 1 .76-1.14A1.85 1.85 0 0 1 98.88 6a2.34 2.34 0 0 1 2.62-2.27 5.2 5.2 0 0 0 3-.71zM100.42 6a1.1 1.1 0 0 0 1.13 1.25c.73 0 1.13-.46 1.13-1.26s-.38-1.2-1.15-1.2A1.08 1.08 0 0 0 100.42 6zm5.05 2.8V1.36L107 1.2v7.55c0 .3.1.45.36.45a1.22 1.22 0 0 0 .35-.06l.33 1.07a2.53 2.53 0 0 1-1 .22 1.45 1.45 0 0 1-1.57-1.63zm8.95-1.73c0 2-1.12 3.36-3 3.36s-3-1.27-3-3.36 1.12-3.34 3-3.34 3 1.27 3 3.34zm-4.36 0c0 1.53.47 2.2 1.37 2.2s1.37-.69 1.37-2.2-.47-2.18-1.36-2.18-1.38.68-1.38 2.18zm8.53 3.18h-1.83l-2.1-6.34h1.67L117.68 9l1.39-5.11h1.59zm7.9-2.7h-4c.11 1.3.71 1.72 1.55 1.72a2.61 2.61 0 0 0 1.59-.57l.63.88a3.66 3.66 0 0 1-2.35.85c-2 0-3-1.31-3-3.31s1-3.39 2.82-3.39 2.79 1.2 2.79 3.2c0 .2-.02.45-.03.62zM125 6.49c0-1-.37-1.67-1.24-1.67s-1.17.48-1.25 1.74H125zm7-2.01l-.6.9a2.94 2.94 0 0 0-1.6-.51c-.61 0-1 .25-1 .63s.25.61 1.33.91c1.3.35 2 .88 2 2 0 1.32-1.22 2-2.67 2a3.69 3.69 0 0 1-2.53-.9l.76-.86a2.9 2.9 0 0 0 1.73.62c.68 0 1.13-.29 1.13-.77s-.25-.69-1.44-1-1.88-1-1.88-1.92 1-1.84 2.44-1.84a3.57 3.57 0 0 1 2.33.74zM78.94 40.76h-4.43v5.57h-2.37V33.88h2.37v5h4.43v-5h2.4v12.45h-2.4zM91.54 45l-.48 1.53A2.14 2.14 0 0 1 89 45.17a3.27 3.27 0 0 1-2.86 1.43A2.83 2.83 0 0 1 83 43.66c0-2.07 1.55-3.19 4.32-3.19h1.2v-.54c0-1.24-.55-1.65-1.78-1.65a8.86 8.86 0 0 0-2.54.5l-.52-1.57a9.82 9.82 0 0 1 3.44-.68c2.56 0 3.67 1.17 3.67 3.28v4c.03.77.29 1.04.75 1.19zm-3-1.28v-1.9h-1c-1.49 0-2.23.54-2.23 1.66a1.26 1.26 0 0 0 1.35 1.44 2 2 0 0 0 1.89-1.17zM101 39.43v6.9h-2.28v-6.54c0-1.19-.45-1.53-1.17-1.53a2.46 2.46 0 0 0-2 1.44v6.63h-2.3V36.8h2l.18 1.2a3.56 3.56 0 0 1 2.9-1.51c1.67.04 2.67 1.12 2.67 2.94zM111.25 33v13.33h-2l-.16-1.21a3.21 3.21 0 0 1-2.72 1.48c-2.38 0-3.62-2-3.62-5s1.48-5 3.83-5a3.32 3.32 0 0 1 2.4 1v-4.87zM109 43.62v-4.35a2.31 2.31 0 0 0-1.82-1c-1.19 0-2 1-2 3.29 0 2.45.7 3.3 1.84 3.3a2.26 2.26 0 0 0 1.98-1.24zm13-6.32a8.37 8.37 0 0 1-2.76.33 2.51 2.51 0 0 1 1.73 2.45c0 1.85-1.44 3.2-3.84 3.2a3.77 3.77 0 0 1-1.13-.14.87.87 0 0 0-.4.7c0 .34.2.67 1.16.67h1.45c2.11 0 3.48 1.13 3.48 2.7 0 1.91-1.64 3-4.75 3-3.39 0-4.34-1.08-4.34-3h2.07c0 1 .41 1.37 2.3 1.37s2.4-.5 2.4-1.26-.56-1.13-1.62-1.13h-1.44c-1.91 0-2.72-.85-2.72-1.84a2.16 2.16 0 0 1 1.11-1.77A2.76 2.76 0 0 1 113 40c0-2.07 1.64-3.42 3.94-3.42a7.78 7.78 0 0 0 4.45-1.06zm-6.65 2.62a1.65 1.65 0 0 0 1.65 1.87c1.1 0 1.7-.69 1.7-1.89s-.58-1.8-1.73-1.8a1.62 1.62 0 0 0-1.67 1.82zm7.51 4.23V33l2.31-.25v11.32c0 .45.14.67.54.67a1.42 1.42 0 0 0 .52-.09l.5 1.62a3.83 3.83 0 0 1-1.55.33 2.18 2.18 0 0 1-2.32-2.45zm13.43-2.6c0 3-1.67 5.05-4.48 5.05s-4.49-1.91-4.49-5.05c0-3 1.68-5 4.51-5s4.46 1.89 4.46 5zm-6.54 0c0 2.29.71 3.3 2.06 3.3s2.05-1 2.05-3.3-.7-3.27-2-3.27-2.11 1.02-2.11 3.27zm12.8 4.78h-2.75l-3.15-9.53h2.5l2 7.67 2.08-7.67h2.38zm11.85-4.06h-6c.18 1.95 1.08 2.58 2.34 2.58a3.94 3.94 0 0 0 2.38-.85l1 1.32a5.5 5.5 0 0 1-3.53 1.28c-2.95 0-4.53-2-4.53-5s1.53-5.1 4.23-5.1 4.19 1.8 4.19 4.81c-.03.33-.06.69-.08.96zm-2.23-1.6c0-1.56-.56-2.5-1.86-2.5-1.08 0-1.76.72-1.89 2.61h3.75zm10.42-3l-.9 1.34a4.37 4.37 0 0 0-2.4-.77c-.91 0-1.44.38-1.44 1s.38.91 2 1.36c2 .53 3 1.32 3 3 0 2-1.83 3-4 3a5.58 5.58 0 0 1-3.8-1.35l1.15-1.3a4.29 4.29 0 0 0 2.6.93c1 0 1.69-.43 1.69-1.15s-.38-1-2.16-1.55c-2-.54-2.83-1.47-2.83-2.88 0-1.58 1.46-2.77 3.67-2.77a5.33 5.33 0 0 1 3.42 1.14zM81.7 74.91h-5.91v7.42h-3.17V65.74h3.17v6.65h5.91v-6.65h3.19v16.59H81.7zm16.8 5.69l-.65 2A2.85 2.85 0 0 1 95 80.79a4.38 4.38 0 0 1-3.82 1.9 3.77 3.77 0 0 1-4.08-3.92c0-2.76 2.07-4.25 5.76-4.25h1.61v-.72c0-1.65-.74-2.2-2.37-2.2a11.68 11.68 0 0 0-3.39.67l-.7-2.09a13.13 13.13 0 0 1 4.59-.91c3.41 0 4.9 1.56 4.9 4.37V79c.04 1 .37 1.36 1 1.6zm-4-1.71v-2.57h-1.26c-2 0-3 .72-3 2.21a1.68 1.68 0 0 0 1.8 1.92 2.73 2.73 0 0 0 2.47-1.56zm16.64-5.76v9.2h-3.07v-8.72c0-1.58-.6-2-1.56-2s-1.92.75-2.66 1.92v8.84h-3.08V69.63h2.67l.24 1.65a4.73 4.73 0 0 1 3.86-2c2.28-.01 3.6 1.43 3.6 3.85zm13.64-8.59v17.79h-2.72l-.21-1.61a4.26 4.26 0 0 1-3.63 2c-3.17 0-4.82-2.67-4.82-6.7s2-6.72 5.11-6.72a4.39 4.39 0 0 1 3.19 1.37V64.2zm-3.08 14.18v-5.8a3 3 0 0 0-2.42-1.35c-1.59 0-2.64 1.35-2.64 4.39 0 3.27.93 4.4 2.45 4.4a3 3 0 0 0 2.61-1.64zM139 70.3a11.29 11.29 0 0 1-3.67.43 3.34 3.34 0 0 1 2.3 3.27c0 2.47-1.92 4.27-5.11 4.27a5.25 5.25 0 0 1-1.51-.19 1.15 1.15 0 0 0-.53.93c0 .46.27.89 1.54.89H134c2.81 0 4.63 1.51 4.63 3.6 0 2.55-2.18 4.06-6.33 4.06-4.52 0-5.79-1.44-5.79-4h2.76c0 1.28.55 1.83 3.07 1.83s3.2-.67 3.2-1.68-.75-1.51-2.16-1.51h-1.92c-2.55 0-3.63-1.13-3.63-2.45a2.9 2.9 0 0 1 1.49-2.36 3.69 3.69 0 0 1-2.23-3.57c0-2.76 2.18-4.56 5.25-4.56a10.27 10.27 0 0 0 5.93-1.42zm-8.86 3.48a2.2 2.2 0 0 0 2.26 2.5c1.47 0 2.26-.92 2.26-2.52s-.77-2.4-2.31-2.4a2.16 2.16 0 0 0-2.18 2.42zm10.11 5.64V64.54l3.08-.34v15.13c0 .59.19.88.72.88a1.81 1.81 0 0 0 .69-.12l.67 2.16a5.11 5.11 0 0 1-2.06.44c-1.94 0-3.1-1.18-3.1-3.27zM158.16 76c0 4-2.23 6.73-6 6.73s-6-2.55-6-6.73c0-4 2.23-6.69 6-6.69s6 2.5 6 6.69zm-8.71 0c0 3.05.93 4.4 2.73 4.4s2.74-1.37 2.74-4.4-.94-4.36-2.71-4.36-2.76 1.36-2.76 4.36zm17.06 6.33h-3.67l-4.2-12.7H162l2.71 10.22 2.78-10.22h3.17zm15.79-5.41h-8c.25 2.6 1.44 3.44 3.13 3.44a5.25 5.25 0 0 0 3.16-1.13L181.9 81a7.31 7.31 0 0 1-4.71 1.71c-3.94 0-6.05-2.62-6.05-6.63s2-6.79 5.64-6.79 5.6 2.4 5.6 6.41c0 .38-.05.89-.08 1.22zm-3-2.13c0-2.09-.75-3.34-2.48-3.34-1.43 0-2.35 1-2.52 3.48h5zm13.92-4.01l-1.2 1.8a5.78 5.78 0 0 0-3.19-1c-1.22 0-1.92.5-1.92 1.27s.51 1.22 2.67 1.82c2.59.7 4 1.76 4 4 0 2.64-2.45 4-5.35 4a7.43 7.43 0 0 1-5.07-1.81l1.54-1.72a5.76 5.76 0 0 0 3.46 1.25c1.37 0 2.25-.58 2.25-1.54s-.5-1.39-2.88-2.07c-2.61-.72-3.77-2-3.77-3.84 0-2.11 1.95-3.69 4.9-3.69a7.1 7.1 0 0 1 4.56 1.53zm29.11-60.63h-1.77l-1.31-2.52-1.25 2.52h-1.69l2.11-3.35-1.89-3h1.75l1.03 2.2 1.07-2.16H222l-1.83 3zm6.79 0h-1.51V3.62l-1.8 1.09-.67-1 2.63-1.61h1.35zm3.34-.8a1 1 0 0 1-1 1 1 1 0 0 1-1-1 1 1 0 0 1 1-1 1 1 0 0 1 1 1zm5.64-6.14h-3v2a2.67 2.67 0 0 1 1.22-.3 2.32 2.32 0 0 1 2.32 2.6 2.77 2.77 0 0 1-3 2.81 3.3 3.3 0 0 1-2.55-1.14l.88-.82a2.1 2.1 0 0 0 1.63.77c.9 0 1.46-.58 1.46-1.62S236.48 6 235.74 6a2.1 2.1 0 0 0-1.05.28h-1.09V2.07h4.68zm4.2 1.14h4.81v1.21h-4.81zm0 2.43h4.81V8h-4.81z" class="e904b3ec-0134-4a7b-a056-06cf21391572" transform="translate(-.18 -1.2)"/><path d="M254.59 10.15h-1.51V3.62l-1.8 1.09-.67-1 2.62-1.61h1.36zM261.88 8c0 1.32-1.16 2.36-3 2.36S256 9.31 256 8a2.16 2.16 0 0 1 1.53-2 2.06 2.06 0 0 1-1.21-1.91c0-1.32 1.2-2.12 2.64-2.12s2.64.72 2.64 2.06a2 2 0 0 1-1.33 1.83A2.33 2.33 0 0 1 261.88 8zm-1.56 0c0-.75-.39-1.09-1.47-1.48l-.37-.13a1.67 1.67 0 0 0-1 1.59 1.42 1.42 0 0 0 2.81 0zm-2.55-3.89c0 .68.43 1 1.21 1.27l.23.08a1.49 1.49 0 0 0 .86-1.37 1.15 1.15 0 0 0-2.3 0zM268.64 7c0 1.94-.9 3.37-2.51 3.37a2 2 0 0 1-1.59-.7v3l-1.54.17v-9h1.35l.08.78a2.29 2.29 0 0 1 1.86-1c1.65 0 2.35 1.31 2.35 3.38zM267 7c0-1.61-.43-2.2-1.2-2.2a1.57 1.57 0 0 0-1.29.87v2.82a1.35 1.35 0 0 0 1.16.66c.87 0 1.33-.65 1.33-2.15zm6.51 2.85a2.78 2.78 0 0 1-1.59.48c-1.25 0-1.91-.72-1.91-2.08V4.9h-1V3.8h1V2.4l1.53-.18V3.8H273l-.16 1.1h-1.32v3.31c0 .63.21.88.68.88a1.44 1.44 0 0 0 .75-.23zm-238.63.3h-1.51V3.62l-1.8 1.09-.67-1 2.63-1.61h1.35zm7.02-2.7h-4c.12 1.29.72 1.71 1.56 1.71a2.65 2.65 0 0 0 1.58-.56l.64.87a3.63 3.63 0 0 1-2.35.86c-2 0-3-1.31-3-3.31s1-3.4 2.82-3.4 2.8 1.2 2.8 3.2c-.01.18-.04.46-.05.63zm-1.49-1.07c0-1-.37-1.67-1.23-1.67s-1.18.48-1.26 1.74h2.49zm11.08-.83v4.6H50V5.79c0-.79-.31-1-.69-1s-.85.37-1.2 1v4.42h-1.59V5.79c0-.79-.32-1-.69-1-.54 0-.87.37-1.21 1v4.42h-1.54V3.8h1.33l.12.83a2.15 2.15 0 0 1 1.84-1 1.55 1.55 0 0 1 1.53 1.06 2.27 2.27 0 0 1 1.91-1.07 1.69 1.69 0 0 1 1.68 1.93zm-47.23 4.6H2.75V3.62L1 4.71l-.67-1L2.9 2.07h1.36zM10.6 4.2c0 1.36-.77 2.36-3.27 4.73h3.45l-.16 1.22h-5V9C8.35 6.21 9 5.46 9 4.32a1.09 1.09 0 0 0-1.14-1.18A1.93 1.93 0 0 0 6.3 4l-.94-.74A3.16 3.16 0 0 1 8 1.93a2.33 2.33 0 0 1 2.6 2.27zM17.59 7c0 1.94-.9 3.37-2.51 3.37a2 2 0 0 1-1.59-.7v3l-1.49.09v-9h1.34l.09.78a2.29 2.29 0 0 1 1.86-1c1.6.08 2.3 1.39 2.3 3.46zM16 7c0-1.61-.43-2.2-1.2-2.2a1.57 1.57 0 0 0-1.29.87v2.82a1.35 1.35 0 0 0 1.16.66C15.49 9.15 16 8.5 16 7zm6.46 2.85a2.81 2.81 0 0 1-1.59.48c-1.25 0-1.91-.72-1.91-2.08V4.9H18V3.8h1V2.4l1.53-.18V3.8H22l-.16 1.1h-1.35v3.31c0 .63.21.88.68.88a1.44 1.44 0 0 0 .75-.23zM4.26 46.6H2.75v-6.53L1 41.16l-.67-1 2.57-1.64h1.36zm7.29-2.18c0 1.32-1.16 2.36-3 2.36s-2.92-1-2.92-2.33a2.16 2.16 0 0 1 1.53-2A2.06 2.06 0 0 1 6 40.5c0-1.32 1.2-2.12 2.64-2.12s2.64.72 2.64 2.06a2 2 0 0 1-1.38 1.83 2.33 2.33 0 0 1 1.65 2.15zm-1.56 0c0-.75-.39-1.09-1.47-1.48l-.37-.13a1.68 1.68 0 0 0-1 1.59c0 .77.56 1.24 1.42 1.24A1.23 1.23 0 0 0 10 44.42zm-2.55-3.89c0 .68.43 1 1.21 1.27l.23.08a1.49 1.49 0 0 0 .86-1.37 1 1 0 0 0-1.15-1 1 1 0 0 0-1.15 1.02zm10.87 2.88c0 1.94-.9 3.37-2.51 3.37a2 2 0 0 1-1.59-.7v3l-1.54.17v-9H14l.09.78a2.29 2.29 0 0 1 1.86-1c1.66.04 2.36 1.35 2.36 3.38zm-1.61 0c0-1.61-.43-2.2-1.2-2.2a1.57 1.57 0 0 0-1.29.87v2.85a1.35 1.35 0 0 0 1.16.66c.84.01 1.33-.59 1.33-2.17zm6.48 2.89a2.78 2.78 0 0 1-1.59.48c-1.25 0-1.91-.72-1.91-2.08v-3.35h-1v-1.1h1v-1.4l1.53-.18v1.58h1.48l-.16 1.1h-1.32v3.32c0 .62.21.87.68.87a1.44 1.44 0 0 0 .75-.23zM5.42 76.38c0 1.36-.78 2.36-3.27 4.73H5.6l-.17 1.22h-5V81.2c2.76-2.81 3.43-3.56 3.43-4.7a1.09 1.09 0 0 0-1.17-1.18 1.9 1.9 0 0 0-1.55.85l-.94-.74a3.16 3.16 0 0 1 2.61-1.32 2.34 2.34 0 0 1 2.61 2.27zm6.41 4.1h-1v1.85H9.36v-1.85H5.93v-1.06l2.35-5.32 1.31.49-2.07 4.71h1.85l.16-2h1.33v2h1zm6.62-1.35c0 2-.9 3.37-2.5 3.37a2 2 0 0 1-1.6-.69v3l-1.53.17V76h1.34l.08.78a2.32 2.32 0 0 1 1.86-1c1.66.02 2.35 1.33 2.35 3.35zm-1.6 0c0-1.61-.44-2.2-1.2-2.2a1.59 1.59 0 0 0-1.3.87v2.85a1.35 1.35 0 0 0 1.16.66c.84.02 1.34-.63 1.34-2.16zM23.33 82a2.83 2.83 0 0 1-1.6.47c-1.25 0-1.91-.71-1.91-2.07v-3.32h-1V76h1v-1.4l1.54-.18V76h1.47l-.15 1.1h-1.32v3.31c0 .63.2.88.67.88a1.5 1.5 0 0 0 .76-.23zm11.55-35.41h-1.51v-6.52l-1.8 1.09-.67-1 2.63-1.61h1.35zm3.34-.79a1 1 0 0 1-1 1 1 1 0 1 1 1-1zm5.64-6.14h-3v2a2.62 2.62 0 0 1 1.22-.3A2.31 2.31 0 0 1 44.37 44a2.75 2.75 0 0 1-3 2.8 3.25 3.25 0 0 1-2.54-1.14l.88-.81a2.1 2.1 0 0 0 1.63.77c.9 0 1.46-.58 1.46-1.62s-.55-1.5-1.29-1.5a2 2 0 0 0-1 .28h-1.15v-4.26H44zm6.85 4.24h-4c.12 1.29.72 1.71 1.56 1.71a2.65 2.65 0 0 0 1.58-.56l.63.87a3.6 3.6 0 0 1-2.35.85c-2 0-3-1.3-3-3.31s1-3.39 2.82-3.39 2.8 1.2 2.8 3.2c0 .21-.03.46-.04.63zm-1.49-1.07c0-1-.37-1.67-1.23-1.67s-1.18.48-1.26 1.74h2.49zM60.29 42v4.59h-1.53v-4.35c0-.79-.31-1-.7-1s-.85.37-1.19 1v4.41h-1.54v-4.41c0-.79-.32-1-.7-1-.54 0-.86.37-1.21 1v4.41h-1.53v-6.4h1.33l.12.83a2.13 2.13 0 0 1 1.83-1 1.55 1.55 0 0 1 1.54 1.07 2.27 2.27 0 0 1 1.91-1.07c1-.01 1.67.72 1.67 1.92zM36.05 76.38c0 1.36-.78 2.36-3.28 4.73h3.46l-.17 1.22H31V81.2c2.76-2.81 3.43-3.56 3.43-4.7a1.08 1.08 0 0 0-1.16-1.18 1.9 1.9 0 0 0-1.56.85l-.94-.74a3.16 3.16 0 0 1 2.62-1.32 2.34 2.34 0 0 1 2.66 2.27zm2.85 5.15a1 1 0 0 1-1 1 1 1 0 1 1 1-1zm6.42-3.24c0 2.7-1 4.21-2.89 4.21s-2.89-1.5-2.89-4.21 1-4.18 2.89-4.18 2.89 1.5 2.89 4.18zm-4.2 0c0 2.26.42 3 1.31 3s1.31-.77 1.31-3-.42-3-1.31-3-1.31.77-1.31 3zm10.63 1.34h-4c.12 1.29.72 1.71 1.56 1.71a2.65 2.65 0 0 0 1.58-.56l.64.87a3.6 3.6 0 0 1-2.35.85c-2 0-3-1.3-3-3.3s1-3.4 2.82-3.4 2.79 1.2 2.79 3.2a5.9 5.9 0 0 1-.04.63zm-1.48-1.07c0-1-.38-1.67-1.24-1.67s-1.17.48-1.26 1.74h2.5zm11.07-.83v4.6H59.8V78c0-.79-.31-1-.69-1s-.85.37-1.2 1v4.42h-1.53V78c0-.79-.33-1-.7-1-.54 0-.86.37-1.21 1v4.42h-1.54V76h1.33l.12.83a2.16 2.16 0 0 1 1.84-1 1.55 1.55 0 0 1 1.53 1.07 2.27 2.27 0 0 1 1.91-1.07 1.69 1.69 0 0 1 1.68 1.9z" class="e61a2be9-d5b1-4288-a7d0-0a8529020ed8" transform="translate(-.18 -1.2)"/><path d="M222.33 46.33h-1.77l-1.31-2.52-1.25 2.52h-1.69l2.06-3.33-1.89-3h1.75l1.08 2.16 1.07-2.16H222l-1.83 3zm6.79 0h-1.51V39.8l-1.8 1.09-.67-1 2.63-1.61h1.35zm3.34-.8a1 1 0 0 1-1 1 1 1 0 1 1 1-1zm5.64-6.14h-3v2a2.67 2.67 0 0 1 1.22-.3 2.32 2.32 0 0 1 2.32 2.6 2.77 2.77 0 0 1-3 2.81 3.3 3.3 0 0 1-2.55-1.14l.88-.82a2.1 2.1 0 0 0 1.63.77c.9 0 1.46-.58 1.46-1.62s-.55-1.5-1.29-1.5a2.1 2.1 0 0 0-1.05.28h-1.12v-4.22h4.68zm4.2 1.14h4.81v1.22h-4.81zm0 2.43h4.81v1.22h-4.81z" class="e904b3ec-0134-4a7b-a056-06cf21391572" transform="translate(-.18 -1.2)"/><path d="M255.75 40.38c0 1.37-.78 2.36-3.27 4.74h3.45l-.17 1.21h-5V45.2c2.76-2.81 3.43-3.56 3.43-4.7a1.09 1.09 0 0 0-1.19-1.18 1.92 1.92 0 0 0-1.55.85l-.94-.74a3.16 3.16 0 0 1 2.61-1.32 2.34 2.34 0 0 1 2.63 2.27zm6.41 4.1h-1v1.85h-1.5v-1.85h-3.43v-1.06l2.35-5.32 1.31.49-2.07 4.71h1.85l.16-2h1.33v2h1zm6.62-1.34c0 1.94-.9 3.37-2.5 3.37a2 2 0 0 1-1.6-.7v3l-1.53.17V40h1.34l.08.78a2.32 2.32 0 0 1 1.86-1c1.66.02 2.35 1.33 2.35 3.36zm-1.6 0c0-1.61-.44-2.2-1.2-2.2a1.61 1.61 0 0 0-1.3.87v2.85a1.33 1.33 0 0 0 1.16.66c.84.01 1.34-.64 1.34-2.17zm6.48 2.86a2.84 2.84 0 0 1-1.6.48c-1.25 0-1.91-.72-1.91-2.08v-3.32h-1V40h1v-1.4l1.54-.18V40h1.47l-.15 1.1h-1.32v3.3c0 .62.2.87.67.87a1.5 1.5 0 0 0 .76-.23z" class="e61a2be9-d5b1-4288-a7d0-0a8529020ed8" transform="translate(-.18 -1.2)"/><path d="M137.86 5.28h70.47" class="b4e9fdc7-5d1f-43ca-bfe1-96a0df7b8047"/><path d="M211.53 6.47a15.39 15.39 0 0 0-4.28 2.38l.86-2.38-.86-2.37a15.12 15.12 0 0 0 4.28 2.37z" class="e904b3ec-0134-4a7b-a056-06cf21391572" transform="translate(-.18 -1.2)"/><path d="M167.65 41.6h40.68" class="b4e9fdc7-5d1f-43ca-bfe1-96a0df7b8047"/><path d="M211.53 42.8a15.39 15.39 0 0 0-4.28 2.38l.86-2.38-.86-2.38a15.39 15.39 0 0 0 4.28 2.38zm7.18 38.73a1 1 0 0 1-1 1 1 1 0 1 1 1-1zm2.94 0a1 1 0 1 1-1-1 1 1 0 0 1 1 1zm2.95 0a1 1 0 1 1-1-1 1 1 0 0 1 1 1z" class="e904b3ec-0134-4a7b-a056-06cf21391572" transform="translate(-.18 -1.2)"/><path d="M198.67 77.6h9.66" class="b4e9fdc7-5d1f-43ca-bfe1-96a0df7b8047"/><path d="M211.53 78.8a15.14 15.14 0 0 0-4.28 2.38l.86-2.38-.86-2.38a15.39 15.39 0 0 0 4.28 2.38z" class="e904b3ec-0134-4a7b-a056-06cf21391572" transform="translate(-.18 -1.2)"/></g></g></svg>