<svg xmlns="http://www.w3.org/2000/svg" viewBox="0 0 265.23 91.32" width="265.23" height="91.32"><defs><style>.bf2fc0e2-5b29-4fe3-bb5e-1394170935ba{fill:#2997ff}.b2b29578-7af1-4cf9-bcec-f7b8011f5119{fill:#b3b3b3}.Dashed-Stroke,.a944c6e8-307c-4b8e-bbbd-49b3fba36de7,.ef5d9c78-81e1-417e-900b-60ca55da957c{fill:none;stroke-miterlimit:10;stroke-width:.5px}.Dashed-Stroke,.ef5d9c78-81e1-417e-900b-60ca55da957c{stroke:#505050}.Dashed-Stroke{stroke-dasharray:5.55}.b044517d-296d-4d0a-b0e3-55509e23a3ae{fill:#505050}.a944c6e8-307c-4b8e-bbbd-49b3fba36de7{stroke:#2997ff}</style></defs><g id="bd1281a6-bee6-4cb3-9844-5ba640863d0a"><g id="f5e59098-f920-44bd-8f0a-2fe7a69bb15b"><path d="M189.68 11.29h6.55v6.55h-6.55z" class="bf2fc0e2-5b29-4fe3-bb5e-1394170935ba"/><path d="M123.88 61h-9.29l-1.29-20.77c-.43-7.34-.8-15-.65-20.3l-9.07 35.71h-9l-9.65-35.78a202.29 202.29 0 0 1-.29 20.66L83.42 61H74.2l4-49.75h12.2l8.86 34.85 8.35-34.85H120zm16.88-9.89c0 7.2.94 8.42 6.92 8.42V61h-16.42v-1.47c6 0 6.84-1.22 6.84-8.42V27.7c0-7.2-.86-8.35-6.84-8.35v-1.51h11.81l15.26 35.07 15.2-35.07h11.73v1.51c-6 0-6.91 1.15-6.91 8.35v23.41c0 7.2.86 8.42 6.91 8.42V61h-19.44v-1.47c6 0 6.84-1.22 6.84-8.42V26.55l-15.41 35.72h-.93l-15.56-35.86z" class="b2b29578-7af1-4cf9-bcec-f7b8011f5119" transform="translate(-.14)"/><path d="M6.93 39.31c0 1.82-1.45 2.38-3.46 2.38H1v-8.28h2.14c2.14 0 3.43.6 3.43 2.11A1.79 1.79 0 0 1 5 37.3c1 .18 1.93.63 1.93 2.01zm-4.38-4.74v2.24h1c.86 0 1.42-.38 1.42-1.16s-.57-1.08-1.65-1.08zm2.73 4.68c0-1-.71-1.33-1.63-1.33h-1.1v2.59h.93c1.04 0 1.8-.22 1.8-1.26zm8.35-.73c0 2-1.12 3.35-3 3.35s-3-1.27-3-3.35 1.11-3.35 3-3.35 3 1.27 3 3.35zm-4.36 0c0 1.52.47 2.19 1.37 2.19S12 40 12 38.52s-.47-2.19-1.36-2.19-1.37.67-1.37 2.19zm9.22 2.87a2.74 2.74 0 0 1-1.6.48c-1.24 0-1.9-.72-1.9-2.07v-3.35H14v-1.1h1V34l1.53-.18v1.58H18l-.16 1.1h-1.32v3.31c0 .63.21.88.67.88a1.5 1.5 0 0 0 .76-.23zm5.81-4.29v4.59h-1.54v-4.35c0-.79-.31-1-.78-1a1.66 1.66 0 0 0-1.33 1v4.42h-1.53v-8.94l1.53-.16v3.45a2.29 2.29 0 0 1 1.85-.94 1.72 1.72 0 0 1 1.8 1.93zm8.6-2.4l-3 7.15-1.4-.46 2.81-6.58h-3.4v-1.19h5zm5.34 1.04c0 1.37-.78 2.37-3.27 4.74h3.45l-.17 1.21h-5v-1.12c2.75-2.81 3.41-3.57 3.41-4.71a1.09 1.09 0 0 0-1.17-1.17 1.93 1.93 0 0 0-1.56.85L33 34.8a3.16 3.16 0 0 1 2.61-1.32 2.34 2.34 0 0 1 2.63 2.26zm6.98 2.76c0 2-.9 3.37-2.5 3.37a2 2 0 0 1-1.6-.69v3l-1.53.17v-9h1.34l.08.78a2.32 2.32 0 0 1 1.86-1c1.66.04 2.35 1.35 2.35 3.37zm-1.6 0c0-1.61-.44-2.2-1.2-2.2a1.6 1.6 0 0 0-1.3.86V40a1.36 1.36 0 0 0 1.17.66c.83.04 1.33-.61 1.33-2.14zm6.48 2.89a2.74 2.74 0 0 1-1.6.48c-1.25 0-1.91-.72-1.91-2.07v-3.35h-1v-1.1h1V34l1.54-.18v1.58h1.47l-.15 1.1h-1.32v3.31c0 .63.2.88.67.88a1.5 1.5 0 0 0 .76-.23zM6.13 49.07H4v7H2.38v-7H.14v-1.26H6.3z" class="bf2fc0e2-5b29-4fe3-bb5e-1394170935ba" transform="translate(-.14)"/><path d="M9.66 56.12a3.41 3.41 0 0 1-3.3 2.59l-.16-1.12a2.12 2.12 0 0 0 2-1.5h-.5l-2-6.34h1.62l1.38 5.32 1.44-5.32h1.58zm8.4-3.22c0 2-.9 3.37-2.51 3.37a2 2 0 0 1-1.55-.69v3l-1.54.17v-9h1.34l.09.78a2.29 2.29 0 0 1 1.86-1c1.61.04 2.31 1.35 2.31 3.37zm-1.61 0c0-1.61-.43-2.2-1.2-2.2a1.57 1.57 0 0 0-1.29.86v2.86a1.33 1.33 0 0 0 1.16.66c.88.02 1.33-.63 1.33-2.16zm8.01.5h-4c.12 1.29.72 1.71 1.56 1.71a2.63 2.63 0 0 0 1.58-.56l.64.87a3.6 3.6 0 0 1-2.35.85c-2 0-3-1.3-3-3.31s1-3.39 2.82-3.39 2.79 1.2 2.79 3.2a5.9 5.9 0 0 1-.04.63zM23 52.33c0-1-.37-1.67-1.24-1.67-.72 0-1.17.48-1.26 1.74H23zm10.62-3.68l-.78.9a2.74 2.74 0 0 0-1.84-.71c-.74 0-1.28.33-1.28 1s.32.86 1.7 1.3 2.46 1.05 2.46 2.61-1.16 2.54-3.14 2.54a4.11 4.11 0 0 1-3-1.14l.82-.91a3.14 3.14 0 0 0 2.13.83c.89 0 1.53-.43 1.53-1.23s-.35-1-1.65-1.41c-1.74-.54-2.49-1.23-2.49-2.49s1.18-2.29 2.82-2.29a3.72 3.72 0 0 1 2.72 1zm3.04-1.18a1 1 0 1 1-1-.94.93.93 0 0 1 1 .94zm-.19 8.62h-1.54v-6.34h1.54zm5.73-5.24l-3.07 4h3.13l-.16 1.2h-4.73V55l3.08-4h-2.82v-1.2h4.57zm6.07 2.55h-4c.12 1.29.72 1.71 1.56 1.71a2.65 2.65 0 0 0 1.58-.56l.64.87a3.62 3.62 0 0 1-2.35.85c-2 0-3-1.3-3-3.31s1-3.39 2.81-3.39 2.8 1.2 2.8 3.2c0 .23-.03.46-.04.63zm-1.48-1.07c0-1-.38-1.67-1.24-1.67s-1.18.48-1.26 1.74h2.5z" class="bf2fc0e2-5b29-4fe3-bb5e-1394170935ba" transform="translate(-.14)"/><path d="M76 82.86h4.69L80.55 84h-2.93v2.48h2.55v1.18h-2.55v3.45H76zm7-.34a1 1 0 1 1-1-.94.93.93 0 0 1 1 .94zm-.2 8.62h-1.57V84.8h1.53zm5.31-6.43l-.26 1.49a2 2 0 0 0-.56-.07c-.77 0-1.17.56-1.41 1.63v3.38h-1.53V84.8h1.33l.14 1.25a1.79 1.79 0 0 1 1.66-1.42 2.13 2.13 0 0 1 .63.08zm5.61 5.57l-.33 1a1.43 1.43 0 0 1-1.4-.93 2.16 2.16 0 0 1-1.91.95 1.88 1.88 0 0 1-2-1.95c0-1.38 1-2.13 2.88-2.13h.81v-.36c0-.82-.37-1.1-1.19-1.1a5.71 5.71 0 0 0-1.69.34l-.35-1.05a6.51 6.51 0 0 1 2.29-.45c1.7 0 2.45.78 2.45 2.18v2.66c-.04.56.13.72.44.84zm-2-.85v-1.29h-.64c-1 0-1.49.36-1.49 1.11a.84.84 0 0 0 .9 1 1.39 1.39 0 0 0 1.24-.82zm11.12-5.74l-.78.9a2.79 2.79 0 0 0-1.86-.7c-.74 0-1.28.33-1.28 1s.32.86 1.7 1.3 2.46 1 2.46 2.61-1.17 2.54-3.14 2.54a4.13 4.13 0 0 1-3-1.14l.81-.91a3.18 3.18 0 0 0 2.14.83c.89 0 1.52-.43 1.52-1.24s-.34-1-1.64-1.4c-1.77-.56-2.48-1.25-2.48-2.48s1.18-2.29 2.81-2.29a3.74 3.74 0 0 1 2.74.98zm6.47 6.59l-.33 1a1.43 1.43 0 0 1-1.4-.93 2.17 2.17 0 0 1-1.91.95 1.88 1.88 0 0 1-2-1.95c0-1.38 1-2.13 2.88-2.13h.81v-.36c0-.82-.38-1.1-1.19-1.1a5.65 5.65 0 0 0-1.69.34l-.35-1.05a6.51 6.51 0 0 1 2.29-.45c1.7 0 2.45.78 2.45 2.18v2.66c-.04.56.13.72.44.84zm-2-.85v-1.29h-.64c-1 0-1.49.36-1.49 1.11a.84.84 0 0 0 .9 1 1.39 1.39 0 0 0 1.24-.82zm8.32-2.88v4.59h-1.53v-4.35c0-.79-.3-1-.78-1s-1 .37-1.34 1v4.41h-1.53v-6.4h1.33l.12.83a2.36 2.36 0 0 1 1.93-1 1.71 1.71 0 0 1 1.8 1.92zm5.8-1.18l-.6.9a3 3 0 0 0-1.6-.51c-.61 0-1 .25-1 .63s.25.61 1.33.91c1.3.35 2 .88 2 2 0 1.32-1.22 2-2.67 2a3.71 3.71 0 0 1-2.54-.9l.77-.86a2.87 2.87 0 0 0 1.73.62c.68 0 1.13-.28 1.13-.76s-.26-.7-1.44-1-1.89-1-1.89-1.91 1-1.85 2.45-1.85a3.63 3.63 0 0 1 2.33.73zm19.18 5.77h-1.54l-.22-3.46c-.07-1.23-.13-2.51-.11-3.39l-1.51 5.95h-1.5l-1.61-6a33.09 33.09 0 0 1 0 3.44l-.21 3.42h-1.53l.66-8.28h2l1.47 5.8 1.39-5.8h2.1zm5.01-6.43l-.26 1.49a2.07 2.07 0 0 0-.57-.07c-.77 0-1.16.56-1.4 1.63v3.38h-1.54V84.8h1.33l.15 1.25a1.78 1.78 0 0 1 1.67-1.42 2.2 2.2 0 0 1 .62.08zm4.85.66l-.6.9a2.94 2.94 0 0 0-1.6-.51c-.61 0-1 .25-1 .63s.25.61 1.33.91c1.3.35 2 .88 2 2 0 1.32-1.22 2-2.67 2a3.69 3.69 0 0 1-2.53-.9l.76-.86a2.9 2.9 0 0 0 1.73.62c.68 0 1.13-.28 1.13-.76s-.25-.7-1.44-1-1.88-1-1.88-1.91 1-1.85 2.44-1.85a3.63 3.63 0 0 1 2.33.73zm8.69-1.37h-3.06v2.32h2.66v1.17h-2.66V90h3.27v1.19h-4.86v-8.33h4.81zm6.45 6.28l-.32 1a1.43 1.43 0 0 1-1.41-.93 2.14 2.14 0 0 1-1.9.95 1.88 1.88 0 0 1-2-1.95c0-1.38 1-2.13 2.88-2.13h.8v-.36c0-.82-.37-1.1-1.19-1.1a5.71 5.71 0 0 0-1.69.34l-.35-1.05a6.55 6.55 0 0 1 2.29-.45c1.71 0 2.45.78 2.45 2.18v2.66c-.04.56.13.72.44.84zm-2-.85v-1.29H163c-1 0-1.48.36-1.48 1.11a.84.84 0 0 0 .9 1 1.38 1.38 0 0 0 1.2-.82zm6.11 1.71h-1.84l-2.1-6.34h1.67l1.35 5.11 1.4-5.11h1.58zm7.89-2.7h-4c.12 1.3.72 1.72 1.56 1.72a2.65 2.65 0 0 0 1.58-.56l.64.87a3.68 3.68 0 0 1-2.35.85c-2 0-3-1.3-3-3.31s1-3.39 2.82-3.39 2.8 1.2 2.8 3.2c-.01.18-.04.46-.05.62zm-1.49-1.06c0-1-.37-1.67-1.23-1.67s-1.18.48-1.26 1.74h2.49zm6.95-2.01l-.6.9a2.93 2.93 0 0 0-1.59-.51c-.61 0-1 .25-1 .63s.25.61 1.33.91c1.29.35 2 .88 2 2 0 1.32-1.23 2-2.68 2a3.71 3.71 0 0 1-2.53-.9l.77-.86a2.87 2.87 0 0 0 1.73.62c.68 0 1.12-.28 1.12-.76s-.25-.7-1.44-1-1.88-1-1.88-1.91 1-1.85 2.45-1.85a3.6 3.6 0 0 1 2.32.73z" class="b2b29578-7af1-4cf9-bcec-f7b8011f5119" transform="translate(-.14)"/><path d="M207.3 7.11c0 3.35-2.05 4.18-4 4.18H201V3h2c2.24 0 4.3.68 4.3 4.11zm-4.7-2.92v5.91h.78c1.23 0 2.25-.55 2.25-3s-1.08-2.92-2.3-2.92zm7.63-1.52a1 1 0 1 1-1-.94.92.92 0 0 1 1 .94zm-.23 8.62h-1.5V5h1.5zm6.81-7.01V5h1.51l-.17 1.1h-1.34v5.24h-1.54V6.05h-1.94v5.24h-1.54V6.05h-1V5h1v-.63c0-1.15.75-2 2.29-2a4.32 4.32 0 0 1 1.8.39 2.36 2.36 0 0 1 1.61-.52 3.7 3.7 0 0 1 1.64.37l-.44 1a2.5 2.5 0 0 0-1.05-.24c-.64.03-.83.31-.83.91zm-1.54 0a2 2 0 0 1 .07-.56 3.28 3.28 0 0 0-1.11-.19c-.69 0-.9.25-.9.82V5h1.94zm8.81 4.31h-4c.12 1.3.72 1.72 1.56 1.72a2.6 2.6 0 0 0 1.58-.57l.63.88a3.66 3.66 0 0 1-2.35.85c-2 0-3-1.31-3-3.31s1-3.39 2.82-3.39S224.11 6 224.11 8c0 .17-.02.43-.03.59zm-1.49-1.06c0-1-.37-1.67-1.23-1.67s-1.18.48-1.26 1.74h2.49zM229 4.86l-.26 1.49a2 2 0 0 0-.57-.07c-.76 0-1.16.56-1.4 1.63v3.38h-1.53V5h1.33l.14 1.24a1.78 1.78 0 0 1 1.66-1.41 2.18 2.18 0 0 1 .63.03zm5.7 3.73h-4c.11 1.3.71 1.72 1.55 1.72a2.61 2.61 0 0 0 1.59-.57l.63.88a3.66 3.66 0 0 1-2.35.85c-2 0-3-1.31-3-3.31s1-3.39 2.82-3.39S234.73 6 234.73 8c0 .17-.02.43-.03.59zm-1.49-1.06c0-1-.37-1.67-1.24-1.67-.72 0-1.17.48-1.25 1.74h2.49zm7.85-.83v4.59h-1.54V6.94c0-.79-.3-1-.78-1a1.63 1.63 0 0 0-1.33 1v4.41h-1.53V5h1.33l.12.83a2.36 2.36 0 0 1 1.93-1 1.71 1.71 0 0 1 1.8 1.87zm6.15-1.19l-.68.92a2 2 0 0 0-1.28-.43c-.89 0-1.43.65-1.43 2.17s.56 2.07 1.43 2.07a2.19 2.19 0 0 0 1.28-.45l.68 1a3.09 3.09 0 0 1-2.05.73c-1.83 0-3-1.27-3-3.3s1.14-3.4 3-3.4a3 3 0 0 1 2.05.69zm5.9 3.08h-4c.12 1.3.72 1.72 1.56 1.72a2.63 2.63 0 0 0 1.59-.57l.63.88a3.66 3.66 0 0 1-2.35.85c-2 0-3-1.31-3-3.31s1-3.39 2.82-3.39S253.14 6 253.14 8c0 .17-.02.43-.03.59zm-1.49-1.06c0-1-.37-1.67-1.24-1.67-.72 0-1.17.48-1.26 1.74h2.5zm7.18-4.86a1 1 0 1 1-1-.94.93.93 0 0 1 1 .94zm-.2 8.62h-1.53V5h1.53zm6.77-4.59v4.59h-1.54V6.94c0-.79-.29-1-.78-1s-.95.37-1.33 1v4.41h-1.53V5h1.33l.12.83a2.36 2.36 0 0 1 1.93-1 1.71 1.71 0 0 1 1.8 1.87zm-58.76 11.4l-.81.94a2.35 2.35 0 0 0-1.53-.59c-1.15 0-2 .84-2 3.08s.86 3.07 2 3.07a2.68 2.68 0 0 0 1.69-.67l.74.93a3.47 3.47 0 0 1-2.49 1c-2.15 0-3.65-1.52-3.65-4.34s1.58-4.31 3.62-4.31a3.53 3.53 0 0 1 2.43.89zm5.97 6.73l-.32 1a1.41 1.41 0 0 1-1.4-.93 2.17 2.17 0 0 1-1.91.95 1.88 1.88 0 0 1-2-1.95c0-1.38 1-2.13 2.88-2.13h.8v-.36c0-.82-.37-1.1-1.19-1.1a5.71 5.71 0 0 0-1.69.34l-.34-1.05a6.46 6.46 0 0 1 2.29-.45c1.7 0 2.44.78 2.44 2.18V24c-.04.53.13.71.44.83zm-2-.85v-1.29H210c-1 0-1.49.36-1.49 1.11a.84.84 0 0 0 .9 1 1.37 1.37 0 0 0 1.18-.8zm8.78-1.48c0 1.94-.9 3.37-2.51 3.37a2 2 0 0 1-1.59-.69v3l-1.54.17v-9h1.35l.08.78a2.32 2.32 0 0 1 1.86-1c1.66.04 2.35 1.34 2.35 3.37zm-1.61 0c0-1.6-.43-2.19-1.2-2.19a1.6 1.6 0 0 0-1.29.86V24a1.35 1.35 0 0 0 1.16.66c.84.04 1.33-.61 1.33-2.15zM228 22h-3v3.7h-1.59v-8.3H225v3.33h3V17.4h1.59v8.29H228zm8.4 1h-4c.12 1.3.72 1.72 1.56 1.72a2.6 2.6 0 0 0 1.58-.57l.64.88a3.68 3.68 0 0 1-2.35.85c-2 0-3-1.31-3-3.31s1-3.39 2.82-3.39 2.8 1.2 2.8 3.2c-.01.19-.04.45-.05.62zm-1.49-1.06c0-1.05-.37-1.67-1.23-1.67s-1.18.48-1.26 1.74h2.49zm4.4-4.87a1 1 0 1 1-1-.94.92.92 0 0 1 1 .94zm-.19 8.62h-1.54v-6.34h1.54zm7.12-6.01a5.61 5.61 0 0 1-1.83.22 1.68 1.68 0 0 1 1.15 1.63c0 1.24-1 2.13-2.56 2.13a2.62 2.62 0 0 1-.75-.09.57.57 0 0 0-.25.43c0 .22.14.44.77.44h1c1.41 0 2.32.76 2.32 1.8 0 1.27-1.09 2-3.17 2-2.25 0-2.89-.72-2.89-2h1.38c0 .63.28.91 1.54.91s1.59-.34 1.59-.84-.37-.76-1.08-.76h-1c-1.27 0-1.81-.56-1.81-1.22a1.45 1.45 0 0 1 .74-1.18 1.83 1.83 0 0 1-1.11-1.78 2.35 2.35 0 0 1 2.63-2.28 5.19 5.19 0 0 0 3-.71zm-4.42 1.74a1.1 1.1 0 0 0 1.12 1.25c.73 0 1.13-.46 1.13-1.26s-.38-1.2-1.15-1.2a1.07 1.07 0 0 0-1.1 1.21zm10.29-.32v4.59h-1.54v-4.35c0-.79-.31-1-.78-1a1.66 1.66 0 0 0-1.33.95v4.42h-1.53v-8.89l1.53-.16v3.44a2.3 2.3 0 0 1 1.85-.93 1.72 1.72 0 0 1 1.8 1.93zm5.17 4.29a2.71 2.71 0 0 1-1.59.48c-1.25 0-1.91-.72-1.91-2.07v-3.35h-1v-1.1h1v-1.41l1.54-.18v1.59h1.47l-.16 1.1h-1.31v3.31c0 .62.2.88.67.88a1.54 1.54 0 0 0 .75-.23z" class="bf2fc0e2-5b29-4fe3-bb5e-1394170935ba" transform="translate(-.14)"/><path d="M51.86.25h144.38m-144.38 72h144.38" class="ef5d9c78-81e1-417e-900b-60ca55da957c"/><path d="M51.86 61.04h144.38" class="Dashed-Stroke"/><path d="M55.58 3.27v65.96" class="ef5d9c78-81e1-417e-900b-60ca55da957c"/><path d="M55.72.25a14.93 14.93 0 0 1-2.37 4.27l2.37-.86 2.38.86A15.2 15.2 0 0 1 55.72.25zm0 72A14.93 14.93 0 0 0 53.35 68l2.37.86L58.1 68a15.2 15.2 0 0 0-2.38 4.25z" class="b044517d-296d-4d0a-b0e3-55509e23a3ae" transform="translate(-.14)"/><path d="M196.24 17.84H126.8m69.44-6.55H56.12" class="a944c6e8-307c-4b8e-bbbd-49b3fba36de7"/></g></g></svg>