<svg xmlns="http://www.w3.org/2000/svg" id="Layer_1" viewBox="0 0 204.95 125.26" width="204.95" height="125.26"><defs><style>.cls-1{fill:#b3b3b3}.cls-2{fill:#231f20}.cls-3{fill:#518dcb}.cls-4{fill:#505050}.cls-5{fill:#e6e7e8;stroke:#505150;stroke-miterlimit:10}</style></defs><path d="M75.89 91.02h31.57v31.57H75.89V91.02z" class="cls-5"/><path d="M107.46 91.02h31.57v31.57h-31.57V91.02z" class="cls-5"/><path d="M38.71 1.58h37.16v76.49H38.71V1.58z" class="cls-2"/><path d="M38.71 78.07h37.16v12.95H38.71V78.07z" class="cls-3"/><path d="M7.44 38.61l.67-2.17c1.42-.42 10.03-3.09 15.88-5.27h.75c0 6.69.17 31.51.25 33.68l10.53 2.59-.75 1.92c-4.51 0-9.36-.08-13.71-.08-4.68 0-9.94.08-14.37.08l.67-1.92 9.94-2.59c.17-4.43.5-19.39.5-26.49l-10.36.25z" class="cls-4"/><path d="M62.77 42.79c5.01 2.84 10.78 6.35 10.78 13.87 0 6.94-5.85 13.71-16.55 13.71s-15.88-6.69-15.88-12.7c0-5.52 3.26-8.36 10.2-12.95v-.17c-4.35-2.59-8.19-6.18-8.19-12.2 0-7.94 6.69-13.46 14.62-13.46 8.94 0 13.87 5.68 13.87 12.37 0 5.85-5.1 8.77-8.86 11.37v.17zm3.93 15.8c0-6.52-7.02-9.61-12.62-12.7-3.68 3.01-6.35 6.18-6.35 10.78 0 6.52 4.76 10.86 10.03 10.86s8.94-3.76 8.94-8.94zM49.32 30.26c0 5.77 5.27 8.11 10.95 11.03 3.76-3.01 5.43-5.77 5.43-9.78 0-4.76-3.09-9.61-8.44-9.61-4.18 0-7.94 3.09-7.94 8.36z" class="cls-1"/><path d="M83.66 79.48c.75-3.51 4.1-10.03 8.69-17.88 5.43-9.36 9.36-16.3 12.79-23.23-2.26-.08-5.6-.17-10.53-.17-6.1 0-9.11.08-11.62.17-.92 1.84-2.09 4.18-3.09 5.77l-1.34.25c-.42-2.42-.67-10.36-.58-12.37l.33-.25c1.59.17 3.59.5 5.18.5h13.2c5.27 0 10.28 0 13.71-.08l-.67 3.26c-1.25 5.68-17.72 33.43-18.8 39.7l.17 3.84-6.77 1.34-.67-.83zm63.27-58c-14.79 2.76-23.48 11.03-25.49 21.73l.17.08c4.93-3.51 9.03-5.35 12.54-5.35 6.69 0 14.54 4.68 14.54 15.29 0 11.78-9.53 17.13-17.38 17.13-11.12 0-18.14-8.86-18.14-20.56 0-19.05 16.71-29.84 33.09-30.92l.67 2.59zm-25.41 24.9c-.25.92-.42 2.09-.42 3.59-.08 9.44 4.26 17.55 10.78 17.55 6.1 0 9.36-6.02 9.36-12.95 0-8.11-4.93-12.12-10.45-12.12-2.51 0-6.1 1.17-9.28 3.93zm-29.18 61.44c0 1.41-1.37 2.21-2.21 2.67 1.4.67 2.77 1.44 2.77 3.27 0 1.69-1.65 3.48-4.64 3.48s-4.32-1.62-4.32-3.16c0-1.23.74-1.9 2.49-2.99-.95-.53-2-1.33-2-2.84 0-2.18 2.11-3.41 4.14-3.41 2.21 0 3.76 1.3 3.76 2.99zm-1.62 6.43c0-1.3-1.65-1.97-3.44-2.74-.84.63-1.3 1.37-1.3 2.32 0 1.33 1.12 2.42 2.53 2.42 1.05 0 2.21-.67 2.21-2zm-4.36-6.57c0 1.33 1.72 1.93 2.92 2.39.77-.56 1.12-1.23 1.12-2.07 0-1.16-.84-2.21-2.07-2.21-1.16 0-1.97.88-1.97 1.9zm39.58-1.4c2.11 1.19 4.53 2.67 4.53 5.83 0 2.92-2.46 5.76-6.95 5.76s-6.67-2.81-6.67-5.34c0-2.32 1.37-3.51 4.29-5.44v-.07c-1.83-1.09-3.44-2.6-3.44-5.13 0-3.34 2.81-5.66 6.15-5.66 3.76 0 5.83 2.39 5.83 5.2 0 2.46-2.14 3.69-3.72 4.78v.07zm1.65 6.64c0-2.74-2.95-4.04-5.3-5.34-1.55 1.26-2.67 2.6-2.67 4.53 0 2.74 2 4.57 4.21 4.57s3.76-1.58 3.76-3.76zm-7.31-11.91c0 2.42 2.21 3.41 4.6 4.64 1.58-1.26 2.28-2.42 2.28-4.11 0-2-1.3-4.04-3.55-4.04-1.76 0-3.34 1.3-3.34 3.51z" class="cls-4"/><path d="M139.03 91.02h31.57v31.57h-31.57V91.02z" class="cls-5"/><path d="M156.28 97.42c0 1.41-1.37 2.21-2.21 2.67 1.41.67 2.78 1.44 2.78 3.27 0 1.69-1.65 3.48-4.64 3.48s-4.32-1.62-4.32-3.16c0-1.23.74-1.93 2.49-2.99-.95-.53-2-1.33-2-2.85 0-2.18 2.11-3.41 4.14-3.41 2.21 0 3.76 1.26 3.76 2.99zm-1.62 6.43c0-1.3-1.65-1.97-3.44-2.74-.84.6-1.3 1.37-1.3 2.32 0 1.33 1.12 2.42 2.53 2.42 1.05 0 2.21-.7 2.21-2zm-4.36-6.57c0 1.33 1.72 1.93 2.92 2.39.77-.56 1.12-1.23 1.12-2.07 0-1.16-.84-2.21-2.07-2.21-1.16 0-1.97.88-1.97 1.9z" class="cls-4"/><path d="M170.6 91.02h31.57v31.57H170.6V91.02z" class="cls-5"/><path d="M193.29 100.41c0 2.67-2.35 4.14-4.08 5.41v.07c.67.39 1.65.91 2.6 1.65 1.44 1.12 2.25 2.6 2.25 4.46 0 2.81-2.32 6.32-7.48 6.32-4.53 0-7.1-2.88-7.1-5.73 0-2.39 1.19-3.72 4.64-5.94v-.07c-.67-.39-1.16-.77-1.79-1.3-1.37-1.23-1.97-2.7-1.97-4.25.04-3.86 3.44-6.15 6.64-6.15 4.04 0 6.29 2.71 6.29 5.52zm-2.18 12.61c0-1.33-.46-2.25-1.4-3.13-.95-.84-2.46-1.76-4.46-2.71-1.76 1.26-2.85 2.81-2.85 4.92 0 3.13 2.21 5.02 4.6 5.02 2.21 0 4.11-1.51 4.11-4.11zm-8.04-12.89c0 1.44.67 2.39 1.51 3.09.74.67 2.04 1.33 3.48 2.07 1.58-1.26 2.56-2.77 2.53-4.74 0-2.46-1.48-4.46-3.79-4.46-1.79 0-3.72 1.33-3.72 4.04z" class="cls-4"/></svg>