<svg xmlns="http://www.w3.org/2000/svg" id="Layer_1" viewBox="0 0 800 751" width="800" height="751"><style>.st0{fill:#b3b3b3}</style><g id="Layer_2_1_"><path id="Layer_1-2" d="M38.3 529.7v-34.2c-.9-11.2-5-16.1-19.6-16.1H2.6c-1.3 0-2.1 0-2.1-1.6v-10.5c0-1.7.8-3 3.3-3 4.2 0 44.2 1.3 51.7 1.3 9.6 0 45-1.3 48.4-1.3s3.7.5 3.7 2.1v10c0 2.1-.8 2.9-3.3 2.9H85.8c-10.8 0-16.1 3.3-17.1 17.1 0 5.4-1.6 22.5-1.6 42.5v68.7c.4 12.9 8.1 17.9 22.1 17.9h15.7c1.3-.1 2.4.9 2.5 2.2v9.7c0 2.5-.8 3.3-2.9 3.3-2.1 0-41.3-1.2-49.5-1.2-9.6 0-48.4 1.2-52.1 1.2-2.1 0-2.9-.8-2.9-2.5V628c0-2 .8-2.4 3.3-2.4h11.3c10.5 1.4 20.2-5.7 22.1-16.1 1.6-20.5 2.2-41 1.7-61.6l-.1-18.2zm106.9 209c1.7-11.1 5.1-21.8 10.4-31.7 10.4-24.2 89.9-177.5 108.7-212.8h-79.9c-16.6-.6-32.2 7.8-40.9 22.1-2.9 4.6-4.1 5-8.1 5-3.9 0-6.2-4.1-3.7-8.1 6.2-11.2 30.3-57.1 31.3-60.3.9-3.3 2.9-5 4.1-5 1.2 0 7.5.8 7.5 2.9-.5 2.6-1.2 5-2.1 7.5-1.6 6.7 4.2 7.5 13.8 7.5h104.1c5.4 0 5.8 2.9 3.7 7.1-16.1 28.3-53.7 101.2-60.8 117-3.3 7-48.4 104.9-57.1 130.7-8.6 25.8-11.6 30.4-20 30.4-5.9.3-10.9-4.1-11.3-10 .2-.7.2-1.5.3-2.3zm179.1 0c1.6-11.1 5.1-21.8 10.4-31.7 10.4-24.2 89.9-177.5 108.7-212.8h-79.9c-16.6-.6-32.2 7.8-40.7 22.1-2.9 4.6-4.1 5-8.1 5-3.9 0-6.2-4.1-3.7-8.1 6.2-11.2 30.3-57.1 31.3-60.3.9-3.3 2.9-5 4.1-5s7.5.8 7.5 2.9-1.7 4.6-2.1 7.5c-1.6 6.7 4.2 7.5 13.8 7.5h104.9c5.4 0 5.8 2.9 3.7 7.1-16.1 28.3-53.7 101.2-60.8 117-3.3 7-48.4 104.9-57.1 130.7-8.6 25.8-11.7 30.4-20 30.4-5.8 1-11.3-2.9-12.3-8.6-.2-1.3-.2-2.5 0-3.7h.3zm177.5-197.8c0-92.1 79.1-158.3 120.3-175.4 3.1-1.4 6.5-2.3 9.9-2.6 3 .2 5.4 2.7 5.4 5.8.1 2.2-1.2 4.2-3.3 5-42.9 20.4-78.7 64.6-91.2 126.2h1.2c12.1-12.6 29.1-19.4 46.6-18.3 42.9 0 70.9 37.9 70.9 76.7 0 37-25.4 86.2-84.2 86.2-43.3-.3-76.2-38.2-76.2-103.6h.6zm125.3 12.6c0-30-17.8-55.4-45-55.4-35.8 0-47 25.8-47 53.8 0 62.1 21.7 78.3 45 78.3 27.5-.2 47-23.1 47-76.7zM79.5 143.1c0-5.4.4-24.9 0-57.9 0-14.2-2.1-23.3-10-23.3-5.7.3-11.3 1.5-16.7 3.3l-29.1 9.6c-1.7.4-3.3.4-4.1-1.3l-3.5-7.4c-.8-1.7 0-3.4 2.5-5l86.3-49.5c1.7-1.4 3.7-2.2 5.9-2.5 2.5 0 2.9 2.5 2.9 5.8s-1.3 69.1-1.3 122.8v17.5c0 5 .4 93.3.4 98.7.5 21.7 2.1 24.2 29.2 24.2h15c2.9 0 4.1 1.3 4.1 3.4v9.6c0 2.5-.8 3.4-3.7 3.4l-64.6-1.3-64.6 1.3c-2.1 0-3.3-.9-3.3-3.4V281c0-2 2.5-2.5 5.8-2.5h19.5c27.1 0 27.9-1.2 28.8-23.3v-96.9l.5-15.2zM391.9 15.3c2.1-.2 3.9 1.3 4.2 3.4v.3c0 2.1-.5 3.4-3 7.5s-36.2 66.7-52.9 107.9c-21.5 46.9-40.3 95-56.5 144-5 17.1-13.3 21.3-20.8 21.3-8.1.8-15.3-5.1-16.1-13.1-.1-.7-.1-1.5-.1-2.3 0-10.4 9.2-27.5 14.6-38.7 7-14.2 79.5-152.4 103.3-199.5h-98.4c-24.9 0-30.3 11.2-42.5 29.1-2.1 2.9-5 2.5-8.1.8-3.1-1.7-3.7-2.5-2.5-6.2L239 2.7c1.2-2.5 1.7-2.9 6.7-2.9s6.2 1.3 5.4 7.5c-.8 6.2 2.5 8.1 23.7 8.1l117.1-.1zm208.2 0c2.1-.2 3.9 1.3 4.2 3.4v.3c0 2.1 0 3.4-2.9 7.5s-36.5 66.7-52.6 107.9c-21.5 47-40.3 95-56.5 144-5 17.1-13.4 21.3-20.8 21.3-8.1.7-15.3-5.2-16.1-13.3-.1-.7-.1-1.4-.1-2.1 0-10.4 9.2-27.5 14.6-38.7 7.1-14.2 79.5-152.4 103.3-199.5h-98.9c-25 0-30.4 11.2-42.5 29.1-2.1 2.9-5 2.5-8.1.8-3.1-1.7-3.7-2.5-2.5-6.2l26-67.1c1.3-2.5 1.7-2.9 6.7-2.9s6.2 1.3 5.4 7.5c-.8 6.2 2.5 8.1 23.7 8.1l117.1-.1zM655 276.8c-20.8-22.5-26.6-55-26.6-76.7-.1-55.4 22.8-108.3 63.3-146.2 17.7-17.1 38.5-30.8 61.3-40.3 4.9-2.3 10.1-3.9 15.4-4.5 2.5 0 5 1.2 5 4.1.2 2.8-1.3 5.5-3.8 6.7-33.3 14.9-88.3 60.8-98.7 129.1 15.4-13.1 35.2-20.1 55.4-19.3 52.1 0 73.7 46.2 73.7 73.3 0 38.7-11.2 56.5-25.8 71.7-14.9 16.9-36.7 26.1-59.1 25-27.9 0-47.5-7.9-60.1-22.9zm109.5-60.9c0-37-18.3-68.3-50.3-68.3-24.2 0-36.2 10-41.3 20.4-6.5 14.2-9.6 29.7-9.1 45.4 0 21.3 3.3 72.6 53.7 72.6 9.2.3 47-4.2 47-70.1z" class="st0"/></g></svg>