<svg xmlns="http://www.w3.org/2000/svg" id="Layer_1" viewBox="0 0 800 126.5" width="800" height="126.5"><style>.st0{fill:none;stroke:#00aeff;stroke-width:1.1458;stroke-miterlimit:10}</style><g id="b877493d-9141-4efa-b2d7-eb65f1c4ce25"><g id="ac78315b-56e4-4e19-bb15-0a221950f9bf"><path d="M0 108.4h800M0 57.5h800" class="st0"/><path d="M27.3 108.4v-3.2l7.1-.7c5-.5 5.5-1.4 5.5-7.1V72.6c0-5.7-.5-6.4-4.8-6.9l-6.6-.5V62c6.9-.7 13.7-2.3 20.4-4.8v39.9c0 5.5.5 6.6 6 7.1l6.9.7v3.2l-34.5.3zm119.4-14.7l-3.4 14.7h-39.9v-2.5c9.9-7.3 25.9-18.8 25.9-30.2 0-5.5-3.2-10.5-10.1-10.5-6 0-10.1 5.3-12.4 8.2L104 71l5.3-7.3c3.2-3.9 8.2-6.2 13.3-6 8.5-.5 15.8 6 16.3 14.4v1.1c0 6.4-3.9 11.2-7.8 14.9-3.4 3.4-8.5 7.3-14.7 12.4H134c5 0 5.7-1.1 9.2-7.8l3.5 1zm39.6-24.3l4.8-6.4c3.2-3.2 7.6-5.3 11.9-5.3 8.7 0 14.4 5.7 14.4 13.7 0 3-1.4 6-3.4 8.2-1.6 1.6-3.9 3.2-6.6 5.5 8.9 1.8 14.9 8.2 14.9 15.8 0 17.2-20.4 25.4-26.6 25.4-3.4 0-6.6-1.1-9.4-3.4-1.4-.9-2.1-2.7-1.4-4.4.5-1.1 1.4-2.3 2.5-3 .7-.9 2.1-.9 2.7 0 2.7 2.7 6.6 4.4 10.5 4.6 6 0 11.9-5 11.9-15.1s-6.4-13.7-12.8-13.7c-2.3 0-4.4.2-6.6.9l-.7-3.2c10.3-4.1 16-8.7 16-15.6.5-4.6-3-8.7-7.6-9.2h-1.4c-4.4 0-8.2 3.4-11.2 7.3l-1.9-2.1zm121.9 34.9h-9.4v21.5h-8.7v-21.5H261v-4.1c11-14.2 22.2-28.9 33.2-42.4h4.6v40.3h10.5l-1.1 6.2zm-18.3-34.9c-8 10.3-14.4 18.8-21.5 28.4h21.5V69.4zm65.3 10.3c12.1.7 27.3 5.7 27.3 20.4-.2 7.3-3.9 14.2-10.1 18.3-7.1 5-15.6 7.8-24.5 8l-.5-3.7c6.4-.9 25.7-4.8 25.7-20.6 0-11.9-12.8-14.4-23.6-14.7l4.8-27.7 27.7-2.3-1.6 8.2-23.1 2.1-2.1 12zM467 44.2c-17.4 4.6-27.7 14.7-31.6 26.4l6.4-2.5c2.3-1.1 4.8-1.8 7.3-2.1 10.3 0 19 7.6 19 20.2.5 12.6-9.6 23.1-22.2 23.6h-.5c-11.2 0-22-9.2-22-26.4 0-18.3 13.3-32.3 28.9-39 4.6-1.8 9.2-3 14-3.7l.7 3.5zm-23.6 28c-3.2 0-6.2.9-8.9 2.5-.7 2.5-.9 5.3-.7 7.8 0 14.4 6.2 22.9 14 22.9 5.5 0 11-3.9 11-14.4 0-8.3-3.2-18.8-15.4-18.8zm105.2-11.5c-5 9.4-19.5 36.4-33.9 64.2l-8.5 1.6-.7-1.4c12.6-18.6 24.1-37.8 34.6-57.5h-34.4v-8h42.4l.5 1.1zM607 40.6c10.3 0 17.2 7.1 17.2 16.3 0 3-1.1 6-3.2 8.2-2.5 2.3-5.3 4.6-8.2 6.4 7.1 4.1 14.2 9.2 14.2 18.8 0 11.5-9.6 19.2-21.1 19.2-11.5 0-20.4-7.6-20.4-17.9 0-4.1 1.8-7.8 4.8-10.5 3-2.3 6-4.6 9.2-6.6-6.2-3.7-11.5-9-11.5-16.5.2-9.9 8.5-17.9 18.3-17.4h.7zm.3 65.5c6.4 0 10.8-4.4 10.8-12.8s-7.1-12.4-14.9-16.5c-6.2 4.4-8.7 9.4-8.7 14.4-.1 9.4 6.1 14.9 12.8 14.9zm-1.4-61.6c-6.4 0-9.2 5.5-9.2 10.8 0 8 6 11 13.3 14.7 4.1-2.7 6.4-7.6 6.2-12.6 0-8.8-5.5-12.9-10.3-12.9zm58.7 78.6c12.1-2.7 27-9.9 32.3-26.8l-4.4 1.8c-2.7 1.4-6 2.3-8.9 2.3-9.2 0-18.8-8.2-18.8-20.4-.2-12.1 9.6-22.2 21.8-22.5 14.9 0 21.5 13.1 21.5 26.1 0 20.6-14.4 34.4-29.3 40.1-4.6 1.4-9.2 2.3-13.7 2.7l-.5-3.3zm20.1-61.5c-6 0-10.5 6.4-10.5 14.9 0 12.1 7.6 17.6 15.4 17.6 2.8 0 5.5-.7 8-2.1.5-2.7.7-5.5.7-8.2-.3-7-2.3-22.2-13.6-22.2zm83.4-3.9c13.3 0 21.3 11 21.3 25 0 17-11 27-22.7 27-13.1 0-22-10.1-22-25.4s10.6-26.6 23.4-26.6zm-1.8 4.9c-8.2 0-12.6 6.9-12.6 20.2 0 14 6.4 22.2 14.4 22.2s12.1-7.1 12.1-20.4c.1-13.8-5.6-22-13.9-22zM19.7 3.9h-5.3v17h-2.3v-17H6.6V1.8h13.5l-.4 2.1zm12.6 15.6l-.5 1.6c-1.4 0-2.5-.9-2.7-2.3-.9 1.4-2.5 2.3-4.4 2.3-2.3.2-4.4-1.4-4.6-3.7v-.7c0-3 2.3-4.8 6.2-4.8h2.3v-1.1c0-2.1-.9-3-3.2-3-1.4 0-2.7.2-3.9.9L21 6.9c1.7-.7 3.3-.9 4.9-.9 2.3-.5 4.6 1.1 5 3.7v7.8c.3 1.3.7 1.5 1.4 2zM28.9 17v-3.4h-2.1c-2.7 0-4.1.9-4.1 3.2-.2 1.1.5 2.5 1.8 2.7h.7c1.6-.3 3-1.2 3.7-2.5zm19.2-3.5c0 4.6-2.1 7.6-5.7 7.6-1.6 0-3-.7-3.9-2.1l-.2 1.6h-2.1V.2l2.3-.2v8c.9-1.4 2.5-2.3 4.1-2 3.5 0 5.5 2.7 5.5 7.5zm-2.5 0c0-4.1-1.4-5.7-3.4-5.7-1.6 0-2.7.9-3.4 2.3v7.1c.7 1.1 1.8 2.1 3.4 2.1 2-.1 3.4-1.9 3.4-5.8zM63 20.6h-2l-.2-2.3c-.9 1.6-2.7 2.7-4.6 2.7-2.1 0-3.9-1.6-4.1-3.7v-11h2.3v10.1c0 2.1.7 2.7 2.3 2.7 1.6-.2 3-1.1 3.7-2.5V6.4h2.3l.3 14.2zm5.1-2.7V.2l2.3-.2v17.6c0 .9.2 1.1.9 1.1.2 0 .7 0 .9-.2l.7 1.6c-.7.2-1.1.5-1.8.5-1.7 0-2.8-1.1-3-2.7zm18.8 1.6l-.5 1.6c-1.4 0-2.5-.9-2.7-2.3-.9 1.4-2.5 2.3-4.4 2.3-2.3.2-4.4-1.4-4.6-3.7v-.7c0-3 2.3-4.8 6.2-4.8h2.3v-1.1c0-2.1-1.1-3-3.2-3-1.4 0-2.7.2-3.9.9l-.5-1.8c1.6-.7 3.2-.9 4.8-.9 2.3-.5 4.6 1.1 5 3.7v7.8c.3 1.3.8 1.5 1.5 2zM83.4 17v-3.4h-2.1c-2.7 0-4.1.9-4.1 3.2-.2 1.1.5 2.5 1.8 2.7h1c1.4-.3 2.7-1.2 3.4-2.5zM98.5 6L98 8.3c-.4-.3-.8-.3-1.1-.3-1.8 0-3 1.4-3.4 4.1v8.5h-2.3V6.2h2.1l.2 3c.5-1.9 2.1-3.2 3.9-3.5.2.3.7.3 1.1.3zm25 5.2c0 6.2-3.2 9.9-8 9.9s-8-3.4-8-9.6 3.2-9.9 8-9.9 8 3.4 8 9.6zm-13.3 0c0 5.5 2.3 7.8 5.3 7.8s5.3-2.3 5.3-7.8-2.1-7.8-5.3-7.8-5.3 2.3-5.3 7.8zm17.4 6.7V.2l2.3-.2v17.6c0 .9.2 1.1.9 1.1.2 0 .7 0 .9-.2l.7 1.6c-.7.2-1.1.5-1.8.5-1.6 0-2.7-1.1-3-2.7zM146.7.5v20.4h-2.1l-.2-2.1c-.9 1.4-2.5 2.3-4.1 2.3-3.4 0-5.5-3-5.5-7.6s2.1-7.6 5.7-7.6c1.6 0 3 .7 3.9 1.8V.2l2.3.3zM144.4 17V9.9c-.7-1.1-2.1-1.8-3.4-2.1-2.3 0-3.7 1.8-3.7 5.7s1.1 5.7 3.4 5.7c1.6-.2 3-.9 3.7-2.2zm16.2-9.4l-.9 1.4c-1.1-.9-2.5-1.1-3.9-1.4-1.6 0-2.7.9-2.7 2.1s.7 1.8 3.2 2.5c3 .9 4.8 2.1 4.8 4.6 0 3-2.7 4.4-5.5 4.4-2.1 0-3.9-.7-5.3-1.8l1.1-1.4c1.1.9 2.5 1.4 4.1 1.4 1.8 0 3.2-.9 3.2-2.3s-.7-2.1-3.7-2.7-4.4-2.1-4.4-4.1 2.3-3.9 5-3.9c1.8-.4 3.4 0 5 1.2zm11.3 12.3c-.9.7-2.1.9-3.2.9-2.1.2-3.7-1.4-3.9-3.2V8h-2.5V6.2h2.5V3l2.3-.2v3.7h3.4l-.2 1.8h-3.2v8.9c0 1.6.5 2.3 1.8 2.3.7 0 1.4-.2 2.1-.7l.9 1.1zm8 1c-.7 3.2-3.4 5.5-6.4 5.7l-.2-1.8c2.3-.2 4.1-1.8 4.6-3.9h-.7l-5-14.4h2.5l3.9 12.8 3.9-12.8h2.3c-.1-.1-4.9 14.4-4.9 14.4zm7.6-3V.2l2.3-.2v17.6c0 .9.2 1.1.9 1.1.2 0 .7 0 .9-.2l.7 1.6c-.7.2-1.1.5-1.8.5-1.7 0-2.8-1.1-3-2.7zm18.7-3.7H197c.2 3.4 1.8 4.8 4.1 4.8 1.4 0 2.7-.5 3.9-1.4l1 1.4c-1.4 1.1-3.2 1.8-5 1.8-3.9 0-6.4-2.7-6.4-7.3s2.3-7.8 6-7.8 6 2.7 6 7.1c-.1.7-.4 1.2-.4 1.4zm-2.2-1.8c0-3-1.1-4.6-3.7-4.6-2.1 0-3.4 1.4-3.4 4.8h7.1v-.2zm8.4 6.8c0 .7-.2 1.4-.5 1.8l-1.8 4.1h-1.6l1.1-4.4c-.5-.5-.7-.9-.7-1.4 0-.9.7-1.8 1.8-1.8 1-.1 1.7.8 1.7 1.7zm23.4-5.7c0 4.6-2.1 7.6-5.7 7.6-1.6 0-3-.7-3.9-2.1l-.2 1.6h-2.1V.2l2.3-.2v8c.9-1.4 2.5-2.3 4.1-2.1 3.4.1 5.5 2.8 5.5 7.6zm-2.5 0c0-4.1-1.4-5.7-3.4-5.7-1.6 0-2.7.9-3.4 2.3v7.1c.7 1.1 1.8 2.1 3.2 2.1 2.2-.1 3.6-1.9 3.6-5.8zm17.4.7h-9.4c.2 3.4 1.8 4.8 4.1 4.8 1.4 0 2.7-.5 3.9-1.4l.9 1.4c-1.4 1.1-3.2 1.8-5 1.8-3.9 0-6.4-2.7-6.4-7.3s2.3-7.8 6-7.8 6 2.7 6 7.1v1.4h-.1zm-2.3-1.8c0-3-1.1-4.6-3.7-4.6-2.1 0-3.4 1.4-3.7 4.8h7.1l.3-.2zm15.1-4.8l-.9 1.4c-1.1-.9-2.3-1.1-3.7-1.4-1.6 0-2.7.9-2.7 2.1s.7 1.8 3.2 2.5c3 .9 4.8 2.1 4.8 4.6 0 3-2.7 4.4-5.5 4.4-2.1 0-3.9-.7-5.3-1.8l1.1-1.4c1.1.9 2.5 1.4 4.1 1.4 1.8 0 3.2-.9 3.2-2.3s-.7-2.1-3.7-2.7c-3-.7-4.4-2.1-4.4-4.1s2.3-3.9 5-3.9c1.6-.4 3.5 0 4.8 1.2zM275 19.9c-.9.7-2.1.9-3.2.9-2.1.2-3.7-1.4-3.9-3.2V8h-2.5V6.2h2.5V3l2.3-.2v3.7h3.4l-.2 1.8h-3.2v8.9c0 1.6.5 2.3 1.8 2.3.7 0 1.4-.2 2.1-.7l.9 1.1zm12.4-15.8v2.1h3.7l-.3 1.8h-3.2v12.6h-2.3V8h-2.5V6.2h2.5V4.1c0-2.1 1.6-3.9 3.7-4.1h.7c1.1 0 2.3.2 3.4.7l-.7 1.6c-.9-.5-1.6-.5-2.5-.5-1.8.3-2.5.9-2.5 2.3zm18.1 9.4c0 4.6-2.3 7.6-6.4 7.6-4.1 0-6.4-3-6.4-7.6s2.3-7.6 6.4-7.6c4.1.1 6.4 2.8 6.4 7.6zm-10.3 0c0 3.9 1.4 5.7 3.9 5.7s3.9-1.8 3.9-5.7-1.4-5.7-3.9-5.7c-2.6 0-3.9 1.8-3.9 5.7zm22-7.5l-.5 2.3c-.5-.3-.9-.3-1.4-.3-1.8 0-3 1.4-3.4 4.1v8.5h-2.3V6.2h2.1l.2 3c.5-1.8 2.1-3.2 3.9-3.4.4.2.9.2 1.4.2zm19.9 1.3L336 8.7c-.9-.7-2.1-1.1-3.2-1.1-2.3 0-3.9 1.8-3.9 5.7s1.6 5.5 3.9 5.5c1.1 0 2.3-.5 3.2-1.1l1.1 1.6c-1.1.9-2.7 1.6-4.4 1.6-3.9 0-6.2-2.7-6.2-7.3s2.5-7.8 6.2-7.8c1.6-.1 3.2.6 4.4 1.5zm14.9 6.2c0 4.6-2.3 7.6-6.4 7.6s-6.4-3-6.4-7.6 2.3-7.6 6.4-7.6 6.4 2.8 6.4 7.6zm-10.3 0c0 3.9 1.4 5.7 3.9 5.7s3.9-1.8 3.9-5.7-1.4-5.7-3.9-5.7-3.9 1.8-3.9 5.7zm14.4 4.4V.2l2.3-.2v17.6c0 .9.2 1.1.9 1.1.2 0 .7 0 .9-.2l.7 1.6c-.7.2-1.1.5-1.8.5-1.6 0-2.8-1.1-3-2.7zm18.8 2.7h-2.1l-.2-2.3c-.9 1.6-2.7 2.7-4.6 2.7-2.1.2-3.9-1.6-4.1-3.7v-11h2.3v10.1c0 2.1.7 2.7 2.3 2.7 1.6-.2 3-1.1 3.7-2.5V6.4h2.3l.4 14.2zm23.4-10.3v10.3H396V10.5c0-2.3-.9-3-2.1-3-1.6 0-2.5 1.1-3.7 2.7v10.3H388v-10c0-2.3-.9-3-2.1-3-1.6 0-2.5 1.1-3.7 2.7v10.3h-2.3V6.2h2.1l.2 2.3c.9-1.6 2.5-2.5 4.4-2.5 1.6 0 3.2 1.1 3.7 2.7.9-1.6 2.5-2.5 4.4-2.7 2.1 0 3.9 1.8 3.9 3.9-.3.2-.3.2-.3.4zm16 0v10.3H412V10.5c0-2.3-.9-3-2.3-3-1.6 0-3.2 1.1-3.9 2.7v10.3h-2.3V6.2h2.1l.2 2.3c.9-1.6 2.7-2.5 4.6-2.5 2.1 0 3.9 1.6 4.1 3.9-.2.2-.2.2-.2.4zm13.8-2.7l-.9 1.4c-1.1-.9-2.3-1.1-3.7-1.4-1.6 0-2.7.9-2.7 2.1s.9 1.8 3.2 2.5c3 .9 4.8 2.1 4.8 4.6 0 3-2.7 4.4-5.5 4.4-2.1 0-3.9-.7-5.5-1.8l1.1-1.4c1.1.9 2.5 1.4 4.1 1.4 2.1 0 3.2-.9 3.2-2.3s-.7-2.1-3.7-2.7c-3-.7-4.4-2.1-4.4-4.1s2.3-3.9 5-3.9c2-.4 3.6 0 5 1.2zm23.1 5.9c0 4.6-2.3 7.6-6.4 7.6-4.1 0-6.4-3-6.4-7.6s2.3-7.6 6.4-7.6c4.1.1 6.4 2.8 6.4 7.6zm-10.3 0c0 3.9 1.4 5.7 3.9 5.7s3.9-1.8 3.9-5.7-1.4-5.7-3.9-5.7-3.9 1.8-3.9 5.7zm17.2-9.4v2.1h3.7l-.3 1.8h-3.2v12.6H456V8h-2.5V6.2h2.5V4.1c0-2.1 1.6-3.9 3.7-4.1h.7c1.1 0 2.3.2 3.4.7l-.7 1.6c-.9-.5-1.6-.5-2.5-.5-1.8.3-2.5.9-2.5 2.3zm22.9-3l-.9 1.6c-.9-.5-2.1-.7-3.2-.7-2.1 0-2.5.7-2.5 2.3v2.1h8v14.4h-2.3V8.2h-5.7v12.6h-2.3V8.2h-2.3V6.4h2.3v-2c0-2.3 1.4-4.1 4.8-4.1 1.4-.1 2.7.2 4.1.8zm18.1 5.8c-1.4.5-2.7.5-4.1.5 1.6.5 2.5 2.1 2.5 3.7 0 2.7-2.1 4.8-4.8 4.8h-.7c-.7 0-1.1 0-1.8-.2-.5.2-.7.9-.9 1.4 0 .7.5 1.1 2.1 1.1h2.3c3 0 4.8 1.6 4.8 3.9 0 2.7-2.3 4.4-6.6 4.4s-6.2-1.4-6.2-4.4h2.1c0 1.8.9 2.5 4.1 2.5 3.2 0 4.4-.9 4.4-2.3s-1.1-2.1-3-2.1H491c-2.5 0-3.7-1.4-3.7-2.7 0-1.1.7-2.1 1.6-2.5-1.6-.7-2.5-2.3-2.5-4.1 0-2.7 2.3-5 5-5h.5c2.3.2 4.6-.2 6.6-1.1l.6 2.1zM488.8 11c-.2 1.6.9 3.2 2.7 3.4h.5c1.6.2 3-1.1 3.2-2.7V11c.2-1.6-.9-3-2.5-3.2h-.7c-1.6 0-3 1.1-3.2 2.7v.5zm23.6 9.6h-2.1l-.2-2.3c-.9 1.6-2.7 2.7-4.6 2.7-2.1.2-3.9-1.6-4.1-3.7v-11h2.3v10.1c0 2.1.7 2.7 2.3 2.7 1.6-.2 3-1.1 3.7-2.5V6.4h2.3l.4 14.2zM525 6l-.5 2.3c-.4-.3-.9-.3-1.3-.3-1.8 0-3 1.4-3.7 4.1v8.5h-2.3V6.2h2.1l.2 3c.5-1.8 2.1-3.2 3.9-3.4.7.2 1.1.2 1.6.2zm13.3 8.2h-9.4c.2 3.4 1.8 4.8 4.1 4.8 1.4 0 2.7-.5 3.7-1.4l.9 1.4c-1.4 1.1-3.2 1.8-5 1.8-3.9 0-6.4-2.7-6.4-7.3s2.3-7.8 6-7.8 6 2.7 6 7.1c.1.7.1 1.2.1 1.4zm-2.3-1.8c0-3-1.1-4.6-3.7-4.6-2.1 0-3.4 1.4-3.7 4.8h7.1v-.2h.3zm15.1-4.8l-.9 1.4c-1.1-.9-2.3-1.1-3.7-1.4-1.8 0-2.7.9-2.7 2.1s.7 1.8 3.2 2.5c3 .9 4.8 2.1 4.8 4.6 0 3-2.7 4.4-5.5 4.4-2.1 0-3.9-.7-5.5-1.8l1.1-1.4c1.1.9 2.5 1.4 4.1 1.4 2.1 0 3.2-.9 3.2-2.3s-.7-2.1-3.7-2.7c-3-.7-4.4-2.1-4.4-4.1s2.3-3.9 5-3.9c1.8-.4 3.7 0 5 1.2z"/></g></g></svg>