<svg xmlns="http://www.w3.org/2000/svg" id="Layer_1" viewBox="0 0 463.02 487.98" width="463.02" height="487.98"><defs><style>.cls-1{fill:#b3b4b4}.cls-2{fill:#505150}</style></defs><path d="M10.16 222.61H7.75l-1.47-7.72-1.51 7.72H2.43l-1.75-9.68h1.83l1.23 8.21 1.58-8.21h1.96l1.56 8.21 1.34-8.21h1.75l-1.78 9.68zm8.75-1.01l-.38 1.19c-.83-.07-1.36-.35-1.64-1.08-.53.78-1.33 1.11-2.23 1.11-1.47 0-2.38-.94-2.38-2.28 0-1.61 1.2-2.48 3.36-2.48h.94v-.42c0-.97-.43-1.29-1.39-1.29-.5 0-1.22.14-1.98.39l-.41-1.22c.91-.35 1.85-.53 2.68-.53 1.99 0 2.86.91 2.86 2.55v3.11c0 .6.2.81.56.95zm-2.33-.99v-1.5h-.74c-1.16 0-1.74.42-1.74 1.29 0 .71.36 1.12 1.05 1.12.62 0 1.09-.32 1.43-.91zm8.31-5.51l-.31 1.74c-.22-.06-.39-.08-.66-.08-.9 0-1.36.66-1.64 1.91v3.95h-1.79v-7.41h1.55l.17 1.46c.35-1.06 1.06-1.65 1.93-1.65.27 0 .5.03.74.1zm7.14 2.14v5.37h-1.79v-5.08c0-.92-.35-1.19-.91-1.19-.64 0-1.12.43-1.55 1.12v5.16h-1.79v-7.41h1.55l.14.97c.57-.74 1.32-1.18 2.25-1.18 1.33 0 2.1.84 2.1 2.25zm8.54 1.66c0 2.34-1.3 3.92-3.49 3.92s-3.49-1.48-3.49-3.92 1.3-3.91 3.5-3.91 3.47 1.48 3.47 3.91zm-5.08 0c0 1.78.55 2.56 1.6 2.56s1.6-.8 1.6-2.56-.55-2.55-1.58-2.55-1.61.8-1.61 2.55zm12.15-3.05l-.8 1.08c-.49-.36-.94-.53-1.5-.53-1.04 0-1.67.76-1.67 2.54s.66 2.42 1.67 2.42c.56 0 .95-.18 1.5-.53l.8 1.13c-.67.55-1.44.85-2.4.85-2.14 0-3.47-1.48-3.47-3.85s1.33-3.98 3.46-3.98c.97 0 1.71.27 2.41.87zm3.06 6.76h-1.79v-10.38l1.79-.2v10.58zm1.97-4.15l2.7 4.15h-2.06l-2.55-4.05 2.48-3.36h1.89l-2.47 3.26zm13.8-4.72l-.94 1.09c-.56-.45-1.13-.69-1.79-.69-1.34 0-2.38.98-2.38 3.6s1.01 3.59 2.38 3.59c.84 0 1.41-.36 1.98-.79l.87 1.09c-.59.6-1.6 1.18-2.91 1.18-2.51 0-4.26-1.78-4.26-5.07s1.85-5.03 4.23-5.03c1.23 0 2.03.36 2.83 1.02zm7.22 7.86l-.38 1.19c-.83-.07-1.36-.35-1.64-1.08-.53.78-1.33 1.11-2.23 1.11-1.47 0-2.38-.94-2.38-2.28 0-1.61 1.2-2.48 3.36-2.48h.94v-.42c0-.97-.43-1.29-1.39-1.29-.5 0-1.22.14-1.98.39l-.41-1.22c.91-.35 1.85-.53 2.68-.53 1.99 0 2.86.91 2.86 2.55v3.11c0 .6.2.81.56.95zm-2.33-.99v-1.5h-.74c-1.16 0-1.74.42-1.74 1.29 0 .71.36 1.12 1.05 1.12.62 0 1.09-.32 1.43-.91zm10.49-1.73c0 2.27-1.05 3.94-2.93 3.94-.76 0-1.4-.27-1.86-.81v3.46l-1.79.2v-10.46h1.57l.1.91c.59-.77 1.37-1.12 2.17-1.12 1.93 0 2.75 1.53 2.75 3.89zm-1.88.01c0-1.88-.5-2.56-1.4-2.56-.63 0-1.16.43-1.51 1.01v3.33c.35.52.8.77 1.36.77.98 0 1.56-.76 1.56-2.55zm7.82 3.37c-.53.38-1.2.56-1.86.56-1.46-.01-2.23-.84-2.23-2.42v-3.91h-1.16v-1.29h1.16v-1.64l1.79-.21v1.85h1.72l-.18 1.29h-1.54v3.87c0 .73.24 1.02.78 1.02.28 0 .56-.08.88-.27l.63 1.15zm2.99-9.72c0 .6-.46 1.08-1.13 1.08s-1.12-.48-1.12-1.08.46-1.09 1.12-1.09 1.13.48 1.13 1.09zm-.22 10.07h-1.79v-7.41h1.79v7.41zm8.62-3.71c0 2.34-1.3 3.92-3.49 3.92s-3.49-1.48-3.49-3.92 1.3-3.91 3.5-3.91 3.47 1.48 3.47 3.91zm-5.08 0c0 1.78.55 2.56 1.6 2.56s1.6-.8 1.6-2.56-.55-2.55-1.58-2.55-1.61.8-1.61 2.55zm12.78-1.66v5.37h-1.79v-5.08c0-.92-.35-1.19-.91-1.19-.64 0-1.12.43-1.55 1.12v5.16h-1.79v-7.41h1.55l.14.97c.57-.74 1.32-1.18 2.25-1.18 1.33 0 2.1.84 2.1 2.25zm-96.72 92.17H7.75l-1.47-7.72-1.51 7.72H2.43l-1.75-9.68h1.83l1.23 8.21 1.58-8.21h1.96l1.56 8.21 1.34-8.21h1.75l-1.78 9.68zm8.75-1.01l-.38 1.19c-.83-.07-1.36-.35-1.64-1.08-.53.78-1.33 1.11-2.23 1.11-1.47 0-2.38-.94-2.38-2.28 0-1.61 1.2-2.48 3.36-2.48h.94v-.42c0-.97-.43-1.29-1.39-1.29-.5 0-1.22.14-1.98.39l-.41-1.22c.91-.35 1.85-.53 2.68-.53 1.99 0 2.86.91 2.86 2.55v3.11c0 .6.2.81.56.95zm-2.33-.99v-1.5h-.74c-1.16 0-1.74.42-1.74 1.29 0 .71.36 1.12 1.05 1.12.62 0 1.09-.32 1.43-.91zm8.31-5.5l-.31 1.74c-.22-.06-.39-.08-.66-.08-.9 0-1.36.66-1.64 1.91v3.95h-1.79v-7.41h1.55l.17 1.46c.35-1.06 1.06-1.65 1.93-1.65.27 0 .5.03.74.1zm7.14 2.14v5.37h-1.79v-5.08c0-.92-.35-1.19-.91-1.19-.64 0-1.12.43-1.55 1.12v5.16h-1.79v-7.41h1.55l.14.97c.57-.74 1.32-1.18 2.25-1.18 1.33 0 2.1.84 2.1 2.25zm8.54 1.65c0 2.34-1.3 3.92-3.49 3.92s-3.49-1.48-3.49-3.92 1.3-3.91 3.5-3.91 3.47 1.48 3.47 3.91zm-5.08 0c0 1.78.55 2.56 1.6 2.56s1.6-.8 1.6-2.56-.55-2.55-1.58-2.55-1.61.8-1.61 2.55zm12.15-3.04l-.8 1.08c-.49-.36-.94-.53-1.5-.53-1.04 0-1.67.76-1.67 2.54s.66 2.42 1.67 2.42c.56 0 .95-.18 1.5-.53l.8 1.13c-.67.55-1.44.85-2.4.85-2.14 0-3.47-1.48-3.47-3.85s1.33-3.98 3.46-3.98c.97 0 1.71.27 2.41.87zm3.06 6.75h-1.79v-10.38l1.79-.2v10.58zm1.97-4.15l2.7 4.15h-2.06l-2.55-4.05 2.48-3.36h1.89l-2.47 3.26zm10.29.27h-1.18v3.88h-1.85v-9.68h2.89c2.54 0 3.84.92 3.84 2.84 0 1.32-.64 2.1-1.96 2.62l2.54 4.22h-2.13l-2.14-3.88zm-1.18-1.33h1.15c1.15 0 1.79-.46 1.79-1.62 0-1.05-.6-1.5-1.95-1.5h-.99v3.12zm12.58 2.06h-4.65c.14 1.51.84 2 1.82 2 .66 0 1.2-.21 1.85-.66l.74 1.02c-.73.59-1.62.99-2.75.99-2.3 0-3.53-1.53-3.53-3.87s1.19-3.96 3.29-3.96 3.26 1.4 3.26 3.74c0 .24-.03.53-.04.73zm-1.74-1.25c0-1.22-.43-1.95-1.44-1.95-.84 0-1.37.56-1.47 2.03h2.91v-.08zm9.83-2.61c-.56.2-1.26.25-2.14.25.9.41 1.34.98 1.34 1.91 0 1.44-1.12 2.49-2.98 2.49-.32 0-.6-.03-.88-.11-.18.13-.31.32-.31.55 0 .27.15.52.9.52h1.13c1.64 0 2.7.88 2.7 2.1 0 1.48-1.27 2.37-3.7 2.37-2.63 0-3.38-.84-3.38-2.33h1.61c0 .74.32 1.06 1.79 1.06s1.86-.39 1.86-.98c0-.55-.43-.88-1.26-.88h-1.12c-1.48 0-2.12-.66-2.12-1.43 0-.52.32-1.04.87-1.37-.91-.48-1.3-1.13-1.3-2.09 0-1.61 1.27-2.66 3.07-2.66 1.75.04 2.56-.35 3.46-.83l.45 1.43zm-5.17 2.03c0 .9.49 1.46 1.32 1.46s1.32-.53 1.32-1.47-.45-1.4-1.34-1.4c-.81 0-1.29.56-1.29 1.42zm12.05 4.98h-1.55l-.1-1.04c-.55.84-1.25 1.25-2.27 1.25-1.34 0-2.06-.87-2.06-2.3V302h1.79v5.1c0 .87.28 1.16.9 1.16s1.12-.41 1.5-1.05V302h1.79v7.41zm2.01-1.69v-8.68l1.79-.2v8.83c0 .35.11.52.42.52.15 0 .29-.03.41-.07l.39 1.26c-.31.14-.74.25-1.2.25-1.13 0-1.81-.69-1.81-1.91zm10.2.68l-.38 1.19c-.83-.07-1.36-.35-1.64-1.08-.53.78-1.33 1.11-2.23 1.11-1.47 0-2.38-.94-2.38-2.28 0-1.61 1.2-2.48 3.36-2.48h.94v-.42c0-.97-.43-1.29-1.39-1.29-.5 0-1.22.14-1.98.39l-.41-1.22c.91-.35 1.85-.53 2.68-.53 1.99 0 2.86.91 2.86 2.55v3.11c0 .6.2.81.56.95zm-2.33-.99v-1.5h-.74c-1.16 0-1.74.42-1.74 1.29 0 .71.36 1.12 1.05 1.12.62 0 1.09-.32 1.43-.91zm8.3-5.5l-.31 1.74c-.22-.06-.39-.08-.66-.08-.9 0-1.36.66-1.64 1.91v3.95h-1.79v-7.41h1.55l.17 1.46c.35-1.06 1.06-1.65 1.93-1.65.27 0 .5.03.74.1zm-97.35 94.31H7.75l-1.47-7.72-1.51 7.72H2.43l-1.75-9.68h1.83l1.23 8.21 1.58-8.21h1.96l1.56 8.21 1.34-8.21h1.75l-1.78 9.68zm8.75-1.01l-.38 1.19c-.83-.07-1.36-.35-1.64-1.08-.53.78-1.33 1.11-2.23 1.11-1.47 0-2.38-.94-2.38-2.28 0-1.61 1.2-2.48 3.36-2.48h.94v-.42c0-.97-.43-1.29-1.39-1.29-.5 0-1.22.14-1.98.39l-.41-1.22c.91-.35 1.85-.53 2.68-.53 1.99 0 2.86.91 2.86 2.55v3.11c0 .6.2.81.56.95zm-2.33-.99v-1.5h-.74c-1.16 0-1.74.42-1.74 1.29 0 .71.36 1.12 1.05 1.12.62 0 1.09-.32 1.43-.91zm8.31-5.51l-.31 1.74c-.22-.06-.39-.08-.66-.08-.9 0-1.36.66-1.64 1.91v3.95h-1.79v-7.41h1.55l.17 1.46c.35-1.06 1.06-1.65 1.93-1.65.27 0 .5.03.74.1zm7.14 2.14v5.37h-1.79v-5.08c0-.92-.35-1.19-.91-1.19-.64 0-1.12.43-1.55 1.12v5.16h-1.79v-7.41h1.55l.14.97c.57-.74 1.32-1.18 2.25-1.18 1.33 0 2.1.84 2.1 2.25zm8.54 1.66c0 2.34-1.3 3.92-3.49 3.92s-3.49-1.48-3.49-3.92 1.3-3.91 3.5-3.91 3.47 1.48 3.47 3.91zm-5.08 0c0 1.78.55 2.56 1.6 2.56s1.6-.8 1.6-2.56-.55-2.55-1.58-2.55-1.61.8-1.61 2.55zm12.15-3.04l-.8 1.08c-.49-.36-.94-.53-1.5-.53-1.04 0-1.67.76-1.67 2.54s.66 2.42 1.67 2.42c.56 0 .95-.18 1.5-.53l.8 1.13c-.67.55-1.44.85-2.4.85-2.14 0-3.47-1.48-3.47-3.85s1.33-3.98 3.46-3.98c.97 0 1.71.27 2.41.87zm3.06 6.75h-1.79v-10.38l1.79-.2v10.58zm1.97-4.15l2.7 4.15h-2.06l-2.55-4.05 2.48-3.36h1.89l-2.47 3.26zm13.25-4.55l-.91 1.05c-.7-.57-1.37-.83-2.17-.83-.87 0-1.5.39-1.5 1.15 0 .7.38 1.01 1.99 1.51 1.69.53 2.87 1.23 2.87 3.05s-1.36 2.97-3.67 2.97c-1.54 0-2.69-.55-3.49-1.33l.95-1.07c.71.6 1.48.97 2.49.97s1.78-.5 1.78-1.44c0-.81-.41-1.18-1.92-1.64-2.03-.63-2.91-1.44-2.91-2.91 0-1.61 1.39-2.68 3.29-2.68 1.42 0 2.35.42 3.19 1.19zm7.67 8.7h-1.55l-.1-1.04c-.55.84-1.25 1.25-2.27 1.25-1.34 0-2.06-.87-2.06-2.3v-5.32h1.79v5.1c0 .87.28 1.16.9 1.16s1.12-.41 1.5-1.05v-5.21h1.79v7.41zm8.68-3.71c0 2.31-1.11 3.92-2.93 3.92-.81 0-1.48-.36-1.96-.97l-.11.76h-1.58v-10.38l1.79-.2v4.01c.48-.66 1.19-1.05 2.04-1.05 1.72 0 2.75 1.43 2.75 3.91zm-1.88 0c0-1.98-.59-2.56-1.44-2.56-.64 0-1.12.43-1.47 1.01v3.28c.32.53.81.85 1.37.85.91 0 1.54-.71 1.54-2.58zm9.6-1.66v5.37H88.2v-5.08c0-.92-.36-1.19-.91-1.19-.63 0-1.12.43-1.55 1.11v5.17h-1.79v-10.37l1.79-.18v4.02c.57-.7 1.26-1.09 2.16-1.09 1.32 0 2.1.85 2.1 2.25zm8.07 2.22h-4.65c.14 1.51.84 2 1.82 2 .66 0 1.21-.21 1.85-.66l.74 1.02c-.73.59-1.62.99-2.75.99-2.3 0-3.53-1.53-3.53-3.87s1.19-3.96 3.29-3.96 3.26 1.4 3.26 3.74c0 .24-.03.53-.04.73zm-1.74-1.25c0-1.22-.43-1.95-1.44-1.95-.84 0-1.37.56-1.47 2.03h2.91v-.08zm9.29 3.39l-.38 1.19c-.83-.07-1.36-.35-1.64-1.08-.53.78-1.33 1.11-2.23 1.11-1.47 0-2.38-.94-2.38-2.28 0-1.61 1.2-2.48 3.36-2.48h.94v-.42c0-.97-.43-1.29-1.39-1.29-.5 0-1.22.14-1.98.39l-.41-1.22c.91-.35 1.85-.53 2.68-.53 1.99 0 2.86.91 2.86 2.55v3.11c0 .6.2.81.56.95zm-2.33-.99v-1.5h-.74c-1.16 0-1.74.42-1.74 1.29 0 .71.36 1.12 1.05 1.12.62 0 1.09-.32 1.43-.91zm10.1-8.38v10.38h-1.58l-.13-.94c-.45.67-1.16 1.15-2.12 1.15-1.85 0-2.82-1.55-2.82-3.91s1.15-3.92 2.98-3.92c.78 0 1.4.34 1.86.8v-3.75l1.79.2zm-1.79 8.28v-3.39c-.39-.48-.81-.78-1.41-.78-.92 0-1.54.78-1.54 2.56 0 1.91.55 2.56 1.43 2.56.66 0 1.11-.32 1.53-.95zm-101.43 88.9H7.75l-1.47-7.72-1.51 7.72H2.43l-1.75-9.68h1.83l1.23 8.21 1.58-8.21h1.96l1.56 8.21 1.34-8.21h1.75l-1.78 9.68zm8.75-1l-.38 1.19c-.83-.07-1.36-.35-1.64-1.08-.53.78-1.33 1.11-2.23 1.11-1.47 0-2.38-.94-2.38-2.28 0-1.61 1.2-2.48 3.36-2.48h.94v-.42c0-.97-.43-1.29-1.39-1.29-.5 0-1.22.14-1.98.39l-.41-1.22c.91-.35 1.85-.53 2.68-.53 1.99 0 2.86.91 2.86 2.55v3.11c0 .6.2.81.56.95zm-2.33-.99v-1.5h-.74c-1.16 0-1.74.42-1.74 1.29 0 .71.36 1.12 1.05 1.12.62 0 1.09-.32 1.43-.91zm8.31-5.51l-.31 1.74c-.22-.06-.39-.08-.66-.08-.9 0-1.36.66-1.64 1.91v3.95h-1.79v-7.41h1.55l.17 1.46c.35-1.06 1.06-1.65 1.93-1.65.27 0 .5.03.74.1zm7.14 2.14v5.37h-1.79v-5.08c0-.92-.35-1.19-.91-1.19-.64 0-1.12.43-1.55 1.12v5.16h-1.79v-7.41h1.55l.14.97c.57-.74 1.32-1.18 2.25-1.18 1.33 0 2.1.84 2.1 2.25zm8.54 1.65c0 2.34-1.3 3.92-3.49 3.92s-3.49-1.48-3.49-3.92 1.3-3.91 3.5-3.91 3.47 1.48 3.47 3.91zm-5.08 0c0 1.78.55 2.56 1.6 2.56s1.6-.8 1.6-2.56-.55-2.55-1.58-2.55-1.61.8-1.61 2.55zm12.15-3.04l-.8 1.08c-.49-.36-.94-.53-1.5-.53-1.04 0-1.67.76-1.67 2.54s.66 2.42 1.67 2.42c.56 0 .95-.18 1.5-.53l.8 1.13c-.67.55-1.44.85-2.4.85-2.14 0-3.47-1.48-3.47-3.85s1.33-3.98 3.46-3.98c.97 0 1.71.27 2.41.87zm3.06 6.75h-1.79v-10.38l1.79-.2v10.58zm1.97-4.15l2.7 4.15h-2.06l-2.55-4.05 2.48-3.36h1.89l-2.47 3.26zm14.61-.73c0 3.92-2.4 4.89-4.71 4.89h-2.63v-9.68h2.38c2.55 0 4.96.79 4.96 4.79zm-5.49-3.4v6.91h.91c1.44 0 2.63-.64 2.63-3.5s-1.26-3.4-2.69-3.4h-.85zm9.15-1.79c0 .6-.46 1.08-1.13 1.08s-1.12-.48-1.12-1.08.46-1.09 1.12-1.09 1.13.48 1.13 1.09zm-.22 10.07h-1.79v-7.41h1.79v7.41zm7.1-6.73l-.7 1.05c-.62-.39-1.2-.6-1.86-.6-.71 0-1.12.29-1.12.74 0 .49.29.71 1.55 1.06 1.51.41 2.37 1.02 2.37 2.34 0 1.54-1.43 2.35-3.12 2.35-1.27 0-2.27-.43-2.96-1.05l.9-1.01c.57.43 1.26.73 2.02.73.8 0 1.32-.34 1.32-.9 0-.62-.29-.81-1.68-1.21-1.53-.42-2.2-1.15-2.2-2.24 0-1.23 1.13-2.16 2.86-2.16 1.06 0 1.93.34 2.63.88zm8.22 3.01c0 2.27-1.05 3.94-2.93 3.94-.76 0-1.4-.27-1.86-.81v3.46l-1.79.2v-10.46h1.57l.1.91c.59-.77 1.37-1.12 2.17-1.12 1.93 0 2.75 1.53 2.75 3.89zm-1.88.01c0-1.88-.5-2.56-1.4-2.56-.63 0-1.16.43-1.51 1.01v3.33c.35.52.8.77 1.36.77.98 0 1.56-.76 1.56-2.55zm3.46 2.02v-8.68l1.79-.2v8.83c0 .35.11.52.42.52.15 0 .29-.03.41-.07l.39 1.26c-.31.14-.74.25-1.2.25-1.13 0-1.81-.69-1.81-1.91zm10.19.69l-.38 1.19c-.83-.07-1.36-.35-1.64-1.08-.53.78-1.33 1.11-2.23 1.11-1.47 0-2.38-.94-2.38-2.28 0-1.61 1.2-2.48 3.36-2.48h.94v-.42c0-.97-.43-1.29-1.39-1.29-.5 0-1.22.14-1.98.39l-.41-1.22c.91-.35 1.85-.53 2.68-.53 1.99 0 2.86.91 2.86 2.55v3.11c0 .6.2.81.56.95zm-2.33-.99v-1.5h-.74c-1.16 0-1.74.42-1.74 1.29 0 .71.36 1.12 1.05 1.12.62 0 1.09-.32 1.43-.91zm7.41 2.02c-.56 1.74-1.65 2.86-3.85 3.03l-.18-1.3c1.47-.22 1.95-.7 2.37-1.75h-.62l-2.35-7.41h1.91l1.61 6.22 1.68-6.22h1.85l-2.41 7.44z" class="cls-1"/><path d="M7.44 188.21l-4.25-.14c-.31.58-1.13 2.06-1.42 2.5l-.53.14c-.1-.94-.14-3.05-.1-4.01l.07-.1c.26.02 1.44.26 1.9.38h11.23c.48 0 1.22-.12 1.66-.29l-.02-.5 2.09-.41.14.12c-.05 2.11-.07 4.8-.07 7.34h.05c1.56-1.18 2.5-1.39 3.38-1.39 2.5 0 3.62 2.09 3.62 3.65v5.4c0 .38.1.46.5.62l1.3.58-.29.74c-1.01.02-2.47-.02-3.82-.19.12-1.01.24-2.64.24-6.19 0-2.66-1.44-3.1-2.64-3.1-.86 0-1.61.31-2.35.86 0 2.3.02 6.72.05 7.15l1.75.67-.26.74c-.89-.02-1.68-.02-2.57-.02s-1.73 0-2.62.02l.24-.74 1.3-.67c0-.41.02-2.28.02-5.47 0-2.54 0-4.63-.05-7.44-.53-.22-1.2-.41-1.68-.41l-4.68.14v5.78c0 6.02.12 6.62.14 7.3l2.54.7-.26.82c-.96-.02-2.26-.02-3.5-.02s-2.59 0-3.6.02l.24-.82 2.18-.7c.05-.79.05-1.27.05-6.53v-6.55zm23.33 9.12c-.02.1-.02.17-.02.26 0 2.52 1.63 4.08 3.72 4.08.38 0 .67-.07.89-.17.74-.5 1.49-.96 2.04-1.25l.19.53c-.17.53-1.15 1.54-1.49 1.78-.43.17-1.61.53-2.47.53-3 0-5.14-2.04-5.14-5.45s2.47-5.78 5.21-5.78c2.21 0 4.15 1.44 4.15 4.27 0 .29-.1.74-.26.84-.24.12-1.15.36-2.28.36h-4.54zm4.75-1.08c.05-.19.1-.43.1-.67 0-1.51-.77-2.69-2.14-2.69-1.92 0-2.66 2.33-2.69 3.36h4.73zm20.19 3.31c0 2.66.02 6 .02 7.08l2.06.6-.22.84c-.98 0-1.94-.02-2.98-.02-.96 0-1.99.02-3.02.02l.19-.79 1.73-.62c.05-1.54.07-3.29.12-4.54l-.05-.02c-.94.58-1.97.98-2.62.98-2.88 0-5.23-2.18-5.23-5.42s2.76-5.81 5.88-5.81c.77 0 1.56.34 2.33.84.53-.36 1.78-.79 2.45-.86l.1.22c-.1.62-.5 1.42-.77 1.8v5.71zm-2.09-5.86c-.36-.26-.98-.58-1.73-.58-2.21 0-3.86 1.92-3.86 4.25 0 2.5 1.68 4.2 3.72 4.2.72 0 1.39-.24 1.87-.53v-7.34zm4.96-.6l.29-.72c.6-.17 2.26-.38 3.26-.38-.12 1.08-.17 2.98-.17 7.01 0 .98.22 1.44.46 1.7.31.36.84.72 1.73.72 1.03 0 2.09-.5 2.62-1.37v-5.95c-.07-.5-.36-.65-1.66-1.06l.31-.67c.74-.24 2.57-.41 3.5-.38-.07 1.13-.07 2.64-.07 8.76.46.86 1.18 1.25 1.9 1.42l-.22.55c-.24.14-.79.34-1.44.34-.89 0-1.94-.41-2.26-1.75h-.05c-.84.89-1.97 1.78-3.5 1.78-.84 0-1.82-.29-2.47-.94-.65-.62-.96-1.63-.96-3.12s.07-3.82.07-5.4l-1.34-.53zm13.83-.55c.41-.12 1.87-.55 3.29-.7v4.87c0 2.71 0 4.06.02 4.61l1.75.67-.22.79c-.84-.02-1.78-.02-2.74-.02-.77 0-1.56 0-2.52.02l.22-.79 1.37-.67c0-.6.02-2.74.02-4.66v-2.88l-1.32-.6.12-.65zm2.3-5.64c.38.12 1.08.91 1.32 1.46l-.07.19c-.22.5-1.01 1.27-1.37 1.49l-.19.07c-.48-.29-1.06-1.01-1.32-1.49l.07-.22c.36-.6.98-1.22 1.39-1.49l.17-.02zm10.49 4.95c1.39 0 2.71.5 3.05.91-.1.6-.43 1.8-.86 2.59l-.5.22c-.19-.48-.53-1.44-.77-2.52-.14-.07-.41-.17-.89-.17-2.54 0-3.98 2.11-3.98 4.42 0 2.62 1.66 4.44 4.27 4.42.19 0 .53-.17.67-.24.82-.62 1.58-1.1 2.02-1.32l.22.48c-.24.7-1.13 1.75-1.61 2.06-.34.12-1.49.38-2.28.38-2.26 0-5.59-1.34-5.59-5.45s3.46-5.78 6.26-5.78zm10.03 10.15l-.19.79c-.91-.02-1.85-.02-2.76-.02-.84 0-1.68 0-2.52.02l.22-.77 1.32-.67c.02-.55.05-2.09.05-5.47 0-3.02 0-5.83-.07-8.04l-1.37-.62.29-.65c.62-.22 2.64-.67 3.31-.77-.07 2.35-.07 5.23-.07 8.14 0 2.5 0 6.98.02 7.42l1.78.65zm5.95 1.18c-1.54-.05-2.42-.31-3.38-1.22-1.22-1.15-2.76-3.12-3.91-4.73l-.05-.14c1.08-1.22 2.54-2.88 3.29-3.89l.46-1.34c.98 0 2.78.17 3.41.29l-.46.74c-.29.19-1.9.72-2.4.94-.86.84-1.15 1.13-2.26 2.38v.07c1.18 1.63 4.56 5.71 5.45 6.74l-.14.17zm8.28-9.63c0-2.23-.02-4.15-.1-5.69l-1.42-.62.26-.67c.65-.24 1.85-.5 3.41-.74-.05 2.47-.07 4.87-.07 7.15.7-.36 2.02-1.13 2.78-1.13 2.42 0 5.16 1.82 5.16 5.28 0 4.37-3.62 5.95-5.88 5.95-.67 0-1.63-.41-2.42-.82-.55.36-1.32.67-1.73.82v-9.53zm2.09 7.82c.31.14 1.1.41 1.73.41 2.42 0 3.94-1.85 3.94-4.37 0-2.21-1.46-4.06-3.72-4.06-.62 0-1.27.17-1.94.53v7.49zm10.3-8.68c.36-.22 2.06-.79 2.83-.84.17.65.24 1.61.24 2.28h.05c.98-1.61 2.33-2.28 3.36-2.28.5 0 1.01.14 1.3.46-.12.82-.6 2.21-.84 2.69l-.38.19c-.24-.31-.53-.79-.89-1.54a.8.8 0 0 0-.36-.1c-.67 0-1.78.94-2.16 1.97v5.86l2.54.65-.19.74h-6.05l.19-.74 1.34-.67c.05-1.82.07-6.26.07-7.34l-1.3-.65.24-.67zm20.11 4.65c0 3.46-2.35 5.74-5.42 5.74-2.69 0-5.5-1.87-5.5-5.47s3.07-5.76 5.54-5.76c2.95 0 5.38 2.26 5.38 5.5zm-8.5.1c0 2.18 1.08 4.61 3.22 4.61s2.86-2.5 2.86-4.46c0-2.26-1.01-4.7-3.07-4.7s-3 2.09-3 4.56zm14.55-4.44l-.98.5c.31 1.1.94 3.02 2.02 6.38h.07c.79-2.04 1.46-3.67 2.14-5.47l-.24-1.39c.24-.22 1.42-.79 1.9-.89l.22.14.07 1.78c.62 1.75 1.39 3.77 2.28 6.05h.05c.79-2.47 1.3-4.1 1.97-6.55l-1.34-.58.26-.84c.65.02 1.34.02 1.99.02s1.34 0 1.97-.02l-.17.84c-.82.26-1.13.46-1.44.91-.38.94-1.49 4.08-2.93 8.21-.29.36-.72.84-1.08 1.13h-.22c-.91-2.28-1.63-4.25-2.74-7.01h-.07c-.84 2.04-1.3 3.12-2.42 5.86-.26.38-.7.86-1.03 1.15h-.22c-.86-2.54-2.28-6.7-3.26-9.34-.31-.48-.62-.62-1.63-.91l.26-.84c.91.02 1.66.02 2.45.02.74 0 1.58 0 2.33-.02l-.19.86zm14.9.96l-1.32-.53.22-.67c.41-.24 2.42-.91 3.17-.91l-.12 1.85h.05c1.85-1.51 2.86-1.85 3.77-1.85 2.62 0 3.31 2.14 3.31 3.96v5.21c0 .24.17.36.36.43l1.44.55-.22.79c-.74-.02-1.78-.02-2.71-.02-.7 0-1.42 0-2.28.02l.22-.86 1.06-.65c.02-.58.07-2.18.07-5.33 0-1.78-.98-2.54-2.23-2.54-.94 0-2.04.65-2.71 1.3 0 1.8 0 6.17.02 6.72l1.42.55-.22.82c-.65-.02-1.51-.02-2.33-.02s-1.7 0-2.54.02l.24-.79 1.3-.6c.02-.41.05-2.47.05-5.47v-1.97zm18.19 8.11l1.61-.7c.02-.29.05-1.87.05-4.75v-3.17l-1.63-.38.41-.91h1.22c0-1.85.41-3.67 1.66-4.97.91-.91 1.94-1.39 3.22-1.39.79 0 1.37.24 1.75.53-.31 1.03-.53 1.7-.79 2.21l-.46.26c-.24-.36-.53-.86-.96-1.85-.1-.02-.19-.05-.29-.05-1.01 0-1.78 1.03-1.92 3.46-.05.62-.05 1.27-.07 1.8h3.17l-.46.96-2.71.31c-.02.43-.05 1.44-.05 3 0 3.72 0 4.58.02 4.9l2.35.67-.22.79c-1.03-.02-2.16-.02-3.31-.02-.91 0-1.82 0-2.76.02l.17-.72zm18.65-4.73c0 3.46-2.35 5.74-5.42 5.74-2.69 0-5.5-1.87-5.5-5.47s3.07-5.76 5.54-5.76c2.95 0 5.38 2.26 5.38 5.5zm-8.5.1c0 2.18 1.08 4.61 3.22 4.61s2.86-2.5 2.86-4.46c0-2.26-1.01-4.7-3.07-4.7s-3 2.09-3 4.56zm15.46-1.73h.05c.55-.91.84-1.22 1.25-2.04.26-.6.29-1.01.26-1.54.5.02 1.01.02 1.49.02.79 0 1.54 0 2.18-.02l-.24.82c-1.61.5-1.99.7-2.45 1.15-.46.58-.98 1.15-1.99 2.59.67 1.22 2.09 3.48 2.5 4.06.26.36.55.6.94.72l1.75.48-.29.82c-.6 0-2.47.12-3.77.12-.72-1.39-1.06-2.04-2.4-4.27h-.05c-1.06 1.66-1.3 2.04-1.63 2.74-.02.14.07.34.55.7l-.19.74c-.62-.02-1.34-.02-1.99-.02-.77 0-1.51 0-2.06.02l.19-.79 1.27-.55c.43-.17.79-.43 1.08-.82.6-.82 1.06-1.32 2.26-3.07-1.54-2.62-1.92-3.29-2.26-3.72-.22-.24-.7-.48-2.26-.89l.31-.82c.6.02 1.32.02 2.04.02.65 0 1.22 0 2.04-.02l-.12 1.03 1.54 2.54zm12.93-3.14c.62-.24 2.47-.67 3.31-.72v8.47c0 1.32-.22 2.81-.86 4.06-1.18 2.23-2.23 3.26-3.34 4.08l-.77-.43v-.29c2.64-1.87 2.88-4.94 2.88-7.46 0-1.78 0-5.35-.05-6.55-.41-.14-.91-.34-1.39-.53l.22-.62zm2.23-5.66c.36.1 1.06.91 1.32 1.46l-.07.19c-.22.5-1.03 1.27-1.39 1.49l-.19.07c-.46-.29-1.08-1.01-1.32-1.49l.07-.22c.41-.6 1.01-1.22 1.42-1.51h.17zm3.87 6.18l.29-.72c.6-.17 2.26-.38 3.26-.38-.12 1.08-.17 2.98-.17 7.01 0 .98.22 1.44.46 1.7.31.36.84.72 1.73.72 1.03 0 2.09-.5 2.62-1.37v-5.95c-.07-.5-.36-.65-1.66-1.06l.31-.67c.74-.24 2.57-.41 3.5-.38-.07 1.13-.07 2.64-.07 8.76.46.86 1.18 1.25 1.9 1.42l-.22.55c-.24.14-.79.34-1.44.34-.89 0-1.94-.41-2.26-1.75h-.05c-.84.89-1.97 1.78-3.5 1.78-.84 0-1.82-.29-2.47-.94-.65-.62-.96-1.63-.96-3.12s.07-3.82.07-5.4l-1.34-.53zm15.05.84l-1.3-.5.22-.67c.5-.26 2.4-.91 3.17-.91l-.14 1.92.05.02c1.51-1.25 2.69-1.94 3.79-1.94 1.27 0 2.42.77 2.9 1.97 1.63-1.39 2.83-1.97 4.01-1.97 2.04 0 3.31 1.61 3.31 3.67v5.54c0 .24.17.34.46.46l1.32.5-.17.77c-.82-.02-1.7-.02-2.62-.02-.74 0-1.51 0-2.42.02l.19-.79 1.1-.67c0-.82.07-2.3.05-4.9 0-1.49-.36-3.02-2.26-3.02-.79 0-1.73.46-2.76 1.39.07.48.17 1.15.17 1.92l-.02 4.61 1.44.67-.22.79c-.67-.02-1.46-.02-2.26-.02s-1.56 0-2.4.02l.17-.82 1.15-.6c0-1.42.02-3.07.02-5.18 0-1.22-.29-2.76-2.28-2.76-.79 0-1.78.62-2.59 1.37 0 2.69 0 5.78.02 6.58l1.49.58-.22.84c-.65-.02-1.54-.02-2.42-.02-.79 0-1.66 0-2.52.02l.19-.82 1.34-.6c0-.5.02-2.5.02-4.75v-2.69zm22.2-.62l.05.02c1.44-1.01 2.54-1.49 3.19-1.49 2.09 0 4.78 1.7 4.78 5.18 0 4.27-3.62 6.05-5.86 6.05-.53 0-1.49-.36-1.99-.72l-.05.05c0 1.97.05 3.34.1 4.22l2.26.65-.29.79c-1.08 0-1.99-.02-3.1-.02-.86 0-1.78.02-2.64.02l.29-.86 1.18-.5c.02-.58.12-2.64.12-6.29v-6.6l-1.37-.72.26-.65c.38-.22 2.26-.62 3.17-.62l-.1 1.49zm.1 7.92c.46.29 1.13.55 1.8.55 2.04 0 3.87-1.78 3.87-4.34 0-2.21-1.37-4.03-3.46-4.03-.62 0-1.34.26-2.21.86v6.96zm15.83-8.81c.38-.24.82-.48 1.25-.62l.26.22c0 .31-.36 2.38-.62 3l-.43.19c-.26-.46-.55-1.2-.86-1.9-.12-.12-.6-.41-1.39-.41-1.2 0-1.75.74-1.75 1.58 0 .55.19.84.79 1.22.6.36 2.21 1.01 3.12 1.49 1.32.67 1.73 1.58 1.73 2.47 0 2.71-2.88 3.41-4.39 3.41-1.27 0-2.66-.43-3.55-1.01.02-.41.41-2.38.55-2.71l.43-.22c.38.62.91 1.94 1.2 2.64.38.14.94.26 1.46.26 1.32 0 2.18-.74 2.18-1.63 0-.62-.19-.98-.91-1.37-.67-.38-1.54-.74-2.42-1.18-1.34-.6-2.16-1.54-2.16-2.88 0-1.44 1.13-3.14 3.67-3.14.55 0 1.25.17 1.85.58zm20.91 4.92c0 3.46-2.35 5.74-5.42 5.74-2.69 0-5.5-1.87-5.5-5.47s3.07-5.76 5.54-5.76c2.95 0 5.38 2.26 5.38 5.5zm-8.5.1c0 2.18 1.08 4.61 3.22 4.61s2.86-2.5 2.86-4.46c0-2.26-1.01-4.7-3.07-4.7s-3 2.09-3 4.56zm9.77-5.31c.72 0 1.46.02 2.28.02s1.63-.02 2.4-.02l-.26.86-.84.48c.46 1.34 1.37 3.65 2.5 6.48h.05c.43-1.06.98-2.38 2.42-6.38l-1.25-.62.24-.82c.46 0 1.27.02 1.87.02.7 0 1.46-.02 2.11-.02l-.24.84c-.86.31-1.13.5-1.54 1.13-.29.55-2.47 5.62-3.36 7.82-.22.46-.67 1.03-.96 1.3h-.24c-.22-.46-1.7-4.32-3.7-9.15-.43-.72-.86-.86-1.75-1.18l.26-.77zm14.52 5.19c-.02.1-.02.17-.02.26 0 2.52 1.63 4.08 3.72 4.08.38 0 .67-.07.89-.17.74-.5 1.49-.96 2.04-1.25l.19.53c-.17.53-1.15 1.54-1.49 1.78-.43.17-1.61.53-2.47.53-3 0-5.14-2.04-5.14-5.45s2.47-5.78 5.21-5.78c2.21 0 4.15 1.44 4.15 4.27 0 .29-.1.74-.26.84-.24.12-1.15.36-2.28.36h-4.54zm4.75-1.08c.05-.19.1-.43.1-.67 0-1.51-.77-2.69-2.14-2.69-1.92 0-2.66 2.33-2.69 3.36h4.73zm4.47-3.55c.36-.22 2.06-.79 2.83-.84.17.65.24 1.61.24 2.28h.05c.98-1.61 2.33-2.28 3.36-2.28.5 0 1.01.14 1.3.46-.12.82-.6 2.21-.84 2.69l-.38.19c-.24-.31-.53-.79-.89-1.54a.8.8 0 0 0-.36-.1c-.67 0-1.78.94-2.16 1.97v5.86l2.54.65-.19.74h-6.05l.19-.74 1.34-.67c.05-1.82.07-6.26.07-7.34l-1.3-.65.24-.67zm22.29-.53l-.48 1.03-3.29.29c0 1.03-.02 3.7-.02 6.29 0 .77.24 1.13.43 1.32.24.19.62.36 1.18.36.94 0 1.61-.29 1.97-.55l.12.05v.91c-.65.74-1.61 1.22-2.86 1.22-.96 0-1.8-.38-2.35-1.01-.41-.55-.58-1.06-.58-2.62v-5.98l-1.63-.29.43-1.03h1.22c.14-.77.38-2.06.65-2.83.36-.38 1.2-.7 1.54-.7l-.1 3.53h3.77zm11.5 8.74c0 .38.07.46.48.62l1.3.58-.22.74c-1.03.02-2.5-.02-3.84-.19.1-1.01.19-2.54.19-6.1 0-2.66-1.44-3.19-2.62-3.19-.89 0-1.61.31-2.35.86 0 2.3.02 6.67.05 7.13l1.75.67-.24.77c-.89-.02-1.7-.02-2.59-.02s-1.73 0-2.59.02l.22-.77 1.3-.67c.02-.34.05-2.26.05-5.45s0-5.69-.1-8.04l-1.42-.62.19-.67c.7-.24 1.92-.48 3.46-.74-.05 2.09-.07 4.85-.07 7.42l.05.02c1.56-1.22 2.5-1.42 3.38-1.42 2.5 0 3.62 2.09 3.62 3.65v5.4zm5.49-3.58c-.02.1-.02.17-.02.26 0 2.52 1.63 4.08 3.72 4.08.38 0 .67-.07.89-.17.74-.5 1.49-.96 2.04-1.25l.19.53c-.17.53-1.15 1.54-1.49 1.78-.43.17-1.61.53-2.47.53-3 0-5.14-2.04-5.14-5.45s2.47-5.78 5.21-5.78c2.21 0 4.15 1.44 4.15 4.27 0 .29-.1.74-.26.84-.24.12-1.15.36-2.28.36h-4.54zm4.75-1.08c.05-.19.1-.43.1-.67 0-1.51-.77-2.69-2.14-2.69-1.92 0-2.66 2.33-2.69 3.36h4.73zm15.32 5.71l-.29.84c-.96-.02-1.7-.02-2.52-.02-.91 0-1.87 0-2.78.02l.19-.77 1.49-.62c0-.94.05-2.33.05-8.23 0-2.16 0-4.22-.1-5.42l-1.42-.5.31-.72c.86-.26 2.3-.6 3.34-.7-.05 2.38-.07 4.63-.07 7.25 0 4.82.02 6.58.02 8.35l1.78.53zm7.63-6c0-2.38-1.13-2.86-2.4-2.86-.46 0-1.06.22-1.39.43-.1.7-.24 1.82-.38 2.35l-.38.17c-.29-.19-1.3-1.51-1.51-2.14.48-.41 1.85-1.25 3-1.68.55-.19 1.1-.38 1.73-.38 2.52 0 3.36 2.18 3.36 3.65 0 1.68-.02 3.72-.05 5.28.48.89 1.46 1.32 1.85 1.44l-.22.5c-.19.12-.58.34-1.22.34-1.56 0-2.11-.72-2.33-1.37h-.05c-.98 1.01-2.14 1.39-2.95 1.39-2.14 0-3.14-1.63-3.14-2.9 0-1.03.46-1.75 1.03-2.04 1.06-.55 3.17-1.27 5.06-1.73v-.46zm-1.92 5.62c.5 0 1.18-.26 1.63-.74.14-.19.22-.36.24-.58l.05-2.88c-1.1.29-2.3.72-3 1.08-.7.36-.91.7-.91 1.32 0 1.37 1.2 1.8 1.99 1.8zm16.25-9.15c-1.2 2.04-4.68 7.1-6.05 9.24v.05c1.73 0 3.98-.12 4.2-.19.86-1.15 1.37-1.8 1.7-2.18l.53-.14c-.1.98-.34 2.9-.58 3.7-1.25-.02-2.86-.12-5.04-.12h-3.96v-.24c1.9-2.71 4.27-6.17 6.34-9.29l-.02-.05c-.31 0-1.27 0-3.94.12-.24.46-.86 1.54-1.2 1.92l-.48.12c-.1-.43-.19-2.83-.14-3.34l.07-.05 1.85.19h6.6l.12.26zm9.14-.29c.53 0 1.15.02 1.68.02.74 0 1.49-.02 2.16-.02l-.14.79c-.86.34-1.27.67-1.58 1.08-.67 1.42-2.76 6.58-4.87 11.59-.24 1.08-.38 1.9-.62 2.81-.14.07-.36.1-.6.1-.84 0-1.68-.55-1.9-.91.24-.5 1.18-1.61 2.18-2.74.34-.72.7-1.46 1.03-2.26-.24-.48-2.54-6.82-3.29-8.54-.29-.58-.55-.74-1.82-1.13l.29-.79c.77 0 1.51.02 2.26.02.84 0 1.66-.02 2.5-.02l-.22.84-.84.48c.31.96 1.03 2.98 2.28 6.46h.05c.89-2.35 1.92-5.11 2.33-6.43l-1.08-.53.22-.82zm20.59 8.69c.53.79 1.39 1.27 1.87 1.46l-.24.58c-.24.12-.6.22-1.18.22-.82 0-1.92-.36-2.38-1.37l-.02.02c-.38.29-1.75 1.34-2.9 1.34-1.94 0-5.11-1.49-5.11-5.35s3.41-5.88 5.83-5.88c.43 0 1.25.22 2.04.67h.02c0-1.73-.02-3-.07-4.68l-1.63-.6.29-.67c.53-.19 1.9-.53 3.55-.74-.05 2.38-.07 4.66-.07 7.3v7.7zm-2.06-7.18c-.6-.38-1.32-.53-1.82-.53-2.18 0-3.82 1.94-3.82 4.2s1.58 4.18 3.7 4.18c.48 0 1.1-.12 1.94-.74v-7.1zm16.27 3.7c0 3.46-2.35 5.74-5.42 5.74-2.69 0-5.5-1.87-5.5-5.47s3.07-5.76 5.54-5.76c2.95 0 5.38 2.26 5.38 5.5zm-8.5.1c0 2.18 1.08 4.61 3.22 4.61s2.86-2.5 2.86-4.46c0-2.26-1.01-4.7-3.07-4.7s-3 2.09-3 4.56zm18.65-4.06l-.02.05c.26.26.77 1.03.77 2.18 0 2.23-1.87 3.72-4.34 3.72-.82 0-1.44-.17-2.02-.43-.36.36-.65.86-.65 1.03 0 .48.55 1.08 1.18 1.13 1.01-.1 3.43-.22 4.87-.07.79.1 1.25.34 1.66.67.46.38.86 1.15.86 2.02 0 1.37-.86 2.59-2.09 3.41-1.01.77-2.45 1.42-4.32 1.42-2.45 0-4.25-1.2-4.25-2.81 0-.29.19-.58.38-.82l1.87-2.04-.02-.05c-.36-.17-.72-.41-1.08-.79-.46-.41-.79-1.13-.79-1.61 0-.34.96-1.32 1.68-1.9-.82-.53-1.46-1.51-1.46-2.78 0-1.97 1.73-3.86 4.58-3.86.7 0 1.2.1 1.82.22.77.12 1.34.22 1.82.26l2.11-.82.12.29-1.01 1.49-1.68.1zm-5.09 9.74c-.36.34-1.22 1.37-1.22 1.87 0 1.56 1.66 2.14 3.07 2.14 1.87 0 3.72-.89 3.72-2.64 0-.7-.38-1.27-1.18-1.46-.53-.12-1.1-.17-2.4-.17-1.1 0-1.61.1-1.99.26zm-.53-7.51c0 1.27.67 2.69 2.18 2.69 1.32 0 2.14-1.08 2.14-2.69 0-1.34-.72-2.76-2.18-2.76s-2.14 1.32-2.14 2.76z" class="cls-2"/><path d="M34.13 99.16l-.94 1.09c-.56-.45-1.13-.69-1.79-.69-1.34 0-2.38.98-2.38 3.6s1.01 3.59 2.38 3.59c.84 0 1.41-.36 1.98-.79l.87 1.09c-.59.6-1.6 1.18-2.91 1.18-2.51 0-4.26-1.78-4.26-5.07s1.85-5.03 4.23-5.03c1.23 0 2.03.36 2.83 1.02zm7.23 7.86l-.38 1.19c-.83-.07-1.36-.35-1.64-1.08-.53.78-1.33 1.11-2.23 1.11-1.47 0-2.38-.94-2.38-2.28 0-1.61 1.2-2.48 3.36-2.48h.94v-.42c0-.97-.43-1.29-1.39-1.29-.5 0-1.22.14-1.98.39l-.41-1.22c.91-.35 1.85-.53 2.68-.53 1.99 0 2.86.91 2.86 2.55v3.11c0 .6.2.81.56.95zm-2.33-.99v-1.5h-.74c-1.16 0-1.74.42-1.74 1.29 0 .71.36 1.12 1.05 1.12.62 0 1.09-.32 1.43-.91zm10.49-1.73c0 2.27-1.05 3.94-2.93 3.94-.76 0-1.4-.27-1.86-.81v3.46l-1.79.2v-10.46h1.57l.1.91c.59-.77 1.37-1.12 2.17-1.12 1.93 0 2.75 1.53 2.75 3.89zm-1.88.01c0-1.88-.5-2.56-1.4-2.56-.63 0-1.16.43-1.51 1.01v3.33c.35.52.8.77 1.36.77.98 0 1.56-.76 1.56-2.55zm7.81 3.37c-.53.38-1.2.56-1.86.56-1.46-.01-2.23-.84-2.23-2.42v-3.91H50.2v-1.29h1.16v-1.64l1.79-.21v1.85h1.72l-.18 1.29h-1.54v3.87c0 .73.24 1.02.78 1.02.28 0 .56-.08.88-.27l.63 1.15zm3-9.72c0 .6-.46 1.08-1.13 1.08s-1.12-.48-1.12-1.08.46-1.09 1.12-1.09 1.13.48 1.13 1.09zm-.22 10.07h-1.79v-7.41h1.79v7.41zm8.62-3.71c0 2.34-1.3 3.92-3.49 3.92s-3.49-1.48-3.49-3.92 1.3-3.91 3.5-3.91 3.47 1.48 3.47 3.91zm-5.08 0c0 1.78.55 2.56 1.6 2.56s1.6-.8 1.6-2.56-.55-2.55-1.58-2.55-1.61.8-1.61 2.55zm12.78-1.66v5.37h-1.79v-5.08c0-.92-.35-1.19-.91-1.19-.64 0-1.12.43-1.55 1.12v5.16h-1.79v-7.41h1.55l.14.97c.57-.74 1.32-1.18 2.25-1.18 1.33 0 2.1.84 2.1 2.25zm75.29 1.49h-1.18v3.88h-1.85v-9.68h2.89c2.54 0 3.84.92 3.84 2.84 0 1.32-.64 2.1-1.96 2.62l2.54 4.22h-2.13l-2.14-3.88zm-1.18-1.33h1.15c1.15 0 1.79-.46 1.79-1.62 0-1.05-.6-1.5-1.95-1.5h-.99v3.12zm12.57 2.06h-4.65c.14 1.51.84 2 1.82 2 .66 0 1.21-.21 1.85-.66l.74 1.02c-.73.59-1.62.99-2.75.99-2.3 0-3.53-1.53-3.53-3.87s1.19-3.96 3.29-3.96 3.26 1.4 3.26 3.74c0 .24-.03.53-.04.73zm-1.74-1.25c0-1.22-.43-1.95-1.44-1.95-.84 0-1.37.56-1.47 2.03h2.91v-.08zm9.84-2.62c-.56.2-1.26.25-2.14.25.9.41 1.34.98 1.34 1.91 0 1.44-1.12 2.49-2.98 2.49-.32 0-.6-.03-.88-.11-.18.13-.31.32-.31.55 0 .27.15.52.9.52h1.13c1.64 0 2.7.88 2.7 2.1 0 1.48-1.27 2.37-3.7 2.37-2.63 0-3.38-.84-3.38-2.33h1.61c0 .74.32 1.06 1.79 1.06s1.86-.39 1.86-.98c0-.55-.43-.88-1.26-.88h-1.12c-1.48 0-2.12-.66-2.12-1.43 0-.52.32-1.04.87-1.37-.91-.48-1.3-1.13-1.3-2.09 0-1.61 1.27-2.66 3.07-2.66 1.75.04 2.56-.35 3.46-.83l.45 1.43zm-5.17 2.03c0 .9.49 1.46 1.32 1.46s1.32-.53 1.32-1.47-.45-1.4-1.34-1.4c-.81 0-1.29.56-1.29 1.42zm12.04 4.99h-1.55l-.1-1.04c-.55.84-1.25 1.25-2.27 1.25-1.34 0-2.06-.87-2.06-2.3v-5.32h1.79v5.1c0 .87.28 1.16.9 1.16s1.12-.41 1.5-1.05v-5.21h1.79v7.41zm2.01-1.7v-8.68l1.79-.2v8.83c0 .35.11.52.42.52.15 0 .29-.03.41-.07l.39 1.26c-.31.14-.74.25-1.2.25-1.13 0-1.81-.69-1.81-1.91zm10.2.69l-.38 1.19c-.83-.07-1.36-.35-1.64-1.08-.53.78-1.33 1.11-2.23 1.11-1.47 0-2.38-.94-2.38-2.28 0-1.61 1.2-2.48 3.36-2.48h.94v-.42c0-.97-.43-1.29-1.39-1.29-.5 0-1.22.14-1.98.39l-.41-1.22c.91-.35 1.85-.53 2.68-.53 1.99 0 2.86.91 2.86 2.55v3.11c0 .6.2.81.56.95zm-2.33-.99v-1.5h-.74c-1.16 0-1.74.42-1.74 1.29 0 .71.36 1.12 1.05 1.12.62 0 1.09-.32 1.43-.91zm8.3-5.51l-.31 1.74c-.22-.06-.39-.08-.66-.08-.9 0-1.36.66-1.64 1.91v3.95h-1.79v-7.41h1.55l.17 1.46c.35-1.06 1.06-1.65 1.93-1.65.27 0 .5.03.74.1zm74.03-1.19l-.91 1.05c-.7-.57-1.37-.83-2.17-.83-.87 0-1.5.39-1.5 1.15 0 .7.38 1.01 1.99 1.51 1.69.53 2.87 1.23 2.87 3.05s-1.36 2.97-3.67 2.97c-1.54 0-2.69-.55-3.49-1.33l.95-1.07c.71.6 1.48.97 2.49.97s1.78-.5 1.78-1.44c0-.81-.41-1.18-1.92-1.64-2.03-.63-2.91-1.44-2.91-2.91 0-1.61 1.39-2.68 3.29-2.68 1.42 0 2.35.42 3.19 1.19zm7.67 8.7h-1.55l-.1-1.04c-.55.84-1.25 1.25-2.27 1.25-1.34 0-2.06-.87-2.06-2.3v-5.32h1.79v5.1c0 .87.28 1.16.9 1.16s1.12-.41 1.5-1.05v-5.21h1.79v7.41zm8.68-3.71c0 2.31-1.11 3.92-2.93 3.92-.81 0-1.48-.36-1.96-.97l-.11.76h-1.58V97.65l1.79-.2v4.01c.48-.66 1.19-1.05 2.04-1.05 1.72 0 2.75 1.43 2.75 3.91zm-1.88 0c0-1.98-.59-2.56-1.44-2.56-.64 0-1.12.43-1.47 1.01v3.28c.32.53.81.85 1.37.85.91 0 1.54-.71 1.54-2.58zm9.6-1.66v5.37h-1.79v-5.08c0-.92-.36-1.19-.91-1.19-.63 0-1.12.43-1.55 1.11v5.17h-1.79V97.67l1.79-.18v4.02c.57-.7 1.26-1.09 2.16-1.09 1.32 0 2.1.85 2.1 2.25zm8.07 2.22h-4.65c.14 1.51.84 2 1.82 2 .66 0 1.21-.21 1.85-.66l.74 1.02c-.73.59-1.62.99-2.75.99-2.3 0-3.53-1.53-3.53-3.87s1.19-3.96 3.29-3.96 3.26 1.4 3.26 3.74c0 .24-.03.53-.04.73zm-1.74-1.25c0-1.22-.43-1.95-1.44-1.95-.84 0-1.37.56-1.47 2.03h2.91v-.08zm9.29 3.39l-.38 1.19c-.83-.07-1.36-.35-1.64-1.08-.53.78-1.33 1.11-2.23 1.11-1.47 0-2.38-.94-2.38-2.28 0-1.61 1.21-2.48 3.36-2.48h.94v-.42c0-.97-.43-1.29-1.39-1.29-.5 0-1.22.14-1.98.39l-.41-1.22c.91-.35 1.85-.53 2.68-.53 1.99 0 2.86.91 2.86 2.55v3.11c0 .6.2.81.56.95zm-2.33-.99v-1.5h-.74c-1.16 0-1.74.42-1.74 1.29 0 .71.36 1.12 1.05 1.12.62 0 1.09-.32 1.43-.91zm10.1-8.38v10.38h-1.58l-.13-.94c-.45.67-1.16 1.15-2.12 1.15-1.85 0-2.82-1.55-2.82-3.91s1.15-3.92 2.98-3.92c.78 0 1.4.34 1.86.8v-3.75l1.79.2zm-1.79 8.28v-3.39c-.39-.48-.81-.78-1.41-.78-.92 0-1.54.78-1.54 2.56 0 1.91.55 2.56 1.43 2.56.66 0 1.11-.32 1.53-.95zm79.3-2.79c0 3.92-2.4 4.89-4.71 4.89h-2.63v-9.68h2.38c2.55 0 4.96.79 4.96 4.79zm-5.49-3.4v6.91h.91c1.44 0 2.63-.64 2.63-3.5s-1.26-3.4-2.69-3.4h-.85zm9.16-1.78c0 .6-.46 1.08-1.13 1.08s-1.12-.48-1.12-1.08.46-1.09 1.12-1.09 1.13.48 1.13 1.09zm-.22 10.07h-1.79v-7.41h1.79v7.41zm7.09-6.74l-.7 1.05c-.62-.39-1.21-.6-1.86-.6-.71 0-1.12.29-1.12.74 0 .49.29.71 1.56 1.06 1.51.41 2.37 1.02 2.37 2.34 0 1.54-1.43 2.35-3.12 2.35-1.27 0-2.27-.43-2.96-1.05l.9-1.01c.58.43 1.26.73 2.02.73.8 0 1.32-.34 1.32-.9 0-.62-.29-.81-1.68-1.21-1.53-.42-2.2-1.15-2.2-2.24 0-1.23 1.13-2.16 2.86-2.16 1.06 0 1.93.34 2.63.88zm8.22 3.01c0 2.27-1.05 3.94-2.93 3.94-.76 0-1.4-.27-1.86-.81v3.46l-1.79.2v-10.46h1.57l.1.91c.59-.77 1.37-1.12 2.17-1.12 1.93 0 2.75 1.53 2.75 3.89zm-1.88.01c0-1.88-.5-2.56-1.4-2.56-.63 0-1.16.43-1.51 1.01v3.33c.35.52.8.77 1.36.77.98 0 1.55-.76 1.55-2.55zm3.46 2.02v-8.68l1.79-.2v8.83c0 .35.11.52.42.52.15 0 .29-.03.41-.07l.39 1.26c-.31.14-.74.25-1.21.25-1.13 0-1.81-.69-1.81-1.91zm10.19.69l-.38 1.19c-.83-.07-1.36-.35-1.64-1.08-.53.78-1.33 1.11-2.23 1.11-1.47 0-2.38-.94-2.38-2.28 0-1.61 1.2-2.48 3.36-2.48h.94v-.42c0-.97-.43-1.29-1.39-1.29-.5 0-1.22.14-1.97.39l-.41-1.22c.91-.35 1.85-.53 2.67-.53 1.99 0 2.86.91 2.86 2.55v3.11c0 .6.2.81.56.95zm-2.33-.99v-1.5h-.74c-1.16 0-1.74.42-1.74 1.29 0 .71.36 1.12 1.05 1.12.62 0 1.09-.32 1.43-.91zm7.42 2.03c-.56 1.74-1.65 2.86-3.85 3.03l-.18-1.3c1.47-.22 1.95-.7 2.37-1.75h-.62l-2.35-7.41h1.91l1.61 6.22 1.68-6.22h1.85l-2.41 7.44z" class="cls-1"/><path d="M2.79 16.65c3.53.1 6.96.1 10.58.1h9.31l-.88 3.23-2.84 1.86c1.76 4.8 4.9 12.25 19.69 48.21h.29c3.23-6.37 5.98-12.15 11.07-23.12-3.92-9.11-7.84-18.03-10.39-23.22-1.08-1.57-2.65-2.55-8.03-3.82l1.18-3.23c2.94.1 6.66.1 9.99.1h5.68l.1.29.49 5c.78 2.35 1.47 4.12 6.56 15.68h.2c3.92-8.72 5.19-10.68 6.96-15.77l.2-4.9.2-.29h4.8c3.33 0 6.66 0 9.7-.1l-.98 3.23c-5.88 1.67-7.64 2.64-9.21 4.9-1.18 2.06-3.43 5.58-9.7 18.22.88 1.96 4.51 10.68 11.46 26.55h.2c4.31-11.37 11.27-29.88 17.34-47.42l-3.14-2.16 1.08-3.23h5.98c3.72 0 7.35 0 10.88-.1l-.88 3.23c-5.49 1.47-7.05 2.45-8.43 4.31-2.45 4.31-12.54 30.47-21.36 52.71-1.08 2.16-3.04 4.7-4.51 6.17h-.88c-1.86-3.82-7.54-17.93-13.13-30.37h-.2c-5.88 11.85-9.21 18.62-12.05 24.59-1.18 1.86-3.14 4.41-4.7 5.78h-.78C31.8 76.61 14.65 34.58 9.56 24c-1.08-1.86-2.45-2.64-8.13-4.11l1.37-3.23zm118.91 1.86c3.14 0 6.66.1 10.68.1 2.84 0 5.98-.1 8.82-.1l-.59 2.25-2.84 2.45c1.86 5.09 5.09 12.83 20.09 49.48h.29c2.84-5.78 5.78-11.85 11.07-23.51-3.82-9.31-8.03-18.71-10.88-24.59-1.37-1.47-3.14-2.65-7.54-3.82l.88-2.25c2.84 0 6.76.1 9.99.1 1.86 0 3.62-.1 5.29-.1l.2.39.39 4.41c.88 2.65 1.76 4.8 6.96 16.56h.2c3.92-8.72 5.29-11.27 7.15-16.46l.2-4.51.2-.39c1.47 0 3.04.1 4.51.1 3.33 0 6.47-.1 9.41-.1l-.78 2.25c-4.8 1.57-6.96 2.65-8.92 4.7-1.27 2.16-3.92 6.56-9.99 19.01.88 2.25 4.7 11.17 11.86 27.73h.2c4.31-11.27 11.27-30.18 17.64-48.6l-3.23-2.84.88-2.25c1.76 0 3.72.1 5.68.1 3.92 0 7.54-.1 10.78-.1l-.49 2.25c-4.6 1.37-6.56 2.55-8.52 4.21-2.65 4.8-13.03 31.94-21.55 53.79-.98 2.16-2.94 4.7-4.31 6.17h-.78c-1.86-3.82-7.54-17.83-13.32-30.96h-.1c-5.98 12.34-9.31 19.2-12.15 25.18-1.18 1.86-3.04 4.41-4.51 5.78h-.69c-2.84-6.37-19.99-48.69-25.38-60.16-1.47-1.67-3.14-2.55-7.74-4.02l.98-2.25zm118.76-.09c2.74 0 6.37.2 10.78.2 2.84 0 5.88-.1 8.33-.2l-.39 1.08-2.74 3.04c1.86 5.49 5.39 13.72 20.58 51.14h.29c2.55-5.09 5.49-11.56 11.17-24.1-3.92-9.5-8.33-19.5-11.46-26.26-1.86-1.37-3.92-2.65-6.96-3.82l.49-1.08c2.55 0 6.76.2 9.99.2 1.76 0 3.43-.1 4.8-.2l.29.29.39 3.92c.98 2.94 1.96 5.58 7.35 17.73h.2c3.92-8.82 5.49-12.05 7.45-17.44l.1-4.21.2-.29c1.08.1 2.55.2 4.11.2 3.43 0 6.27-.2 9.01-.2l-.39 1.08c-3.62 1.37-6.17 2.74-8.72 4.41-1.47 2.45-4.41 7.84-10.39 20.08 1.08 2.74 5.09 11.86 12.44 29.1h.2c4.21-11.17 11.37-30.47 17.93-50.07l-3.14-3.53.49-1.08c1.57.1 3.43.2 5.49.2 3.92 0 7.64-.2 10.58-.2l-.2 1.08c-3.43 1.27-5.88 2.65-8.43 4.12-2.94 5.58-13.72 33.8-21.95 55.16-.88 2.06-2.74 4.8-4.02 6.17h-.78c-1.76-3.82-7.35-17.73-13.42-31.55h-.1c-6.07 12.64-9.5 19.79-12.25 25.67-.98 1.96-2.84 4.51-4.31 5.88h-.59c-2.74-6.37-19.89-48.89-25.57-61.53-2.06-1.37-4.12-2.65-7.35-3.92l.49-1.08zm119.01-1.96c2.35.1 6.07.29 10.68.29 2.74 0 5.68-.2 7.94-.2l-.2.29-2.74 3.43c1.96 5.78 5.58 14.21 20.97 52.12h.29c2.25-4.7 5.29-11.27 11.17-24.49-3.82-9.6-8.43-19.89-11.76-27.14a147.49 147.49 0 0 0-6.56-3.92l.2-.39c2.45.1 6.86.29 9.99.29 1.67 0 3.23-.2 4.51-.2l.29.29.29 3.43c1.08 3.23 2.16 6.17 7.64 18.52h.2c4.02-8.92 5.68-12.54 7.64-18.03l.1-3.92.2-.29c.88 0 2.25.2 3.92.2 3.43 0 6.07-.2 8.72-.29l-.2.39c-2.84 1.37-5.68 2.74-8.62 4.21-1.47 2.64-4.61 8.62-10.58 20.87 1.18 2.84 5.19 12.15 12.83 29.98h.2c4.21-11.17 11.46-30.67 18.12-51.14l-3.13-3.92.29-.29c1.47 0 3.23.2 5.29.2 4.11 0 7.84-.2 10.58-.29v.39c-2.74 1.27-5.58 2.74-8.43 4.12-3.04 5.98-14.11 34.98-22.24 56.04-.69 2.06-2.64 4.7-3.82 6.07h-.59c-1.86-3.82-7.35-17.64-13.62-31.94h-.1c-6.17 13.03-9.6 20.18-12.35 26.16-.88 1.86-2.65 4.51-4.11 5.78h-.49c-2.74-6.27-19.89-48.99-25.77-62.31-2.35-1.27-4.61-2.65-6.96-3.92l.2-.39zM7.13 274.85l-4.39-.14c-.26.58-1.1 2.04-1.37 2.42l-.38.12c-.1-.82-.1-2.86-.05-3.74l.07-.07c.29.02 1.27.24 1.68.36H14c.48 0 1.25-.1 1.61-.29l-.02-.55 2.02-.41.14.1c-.05 2.28-.07 4.94-.07 7.51l.05.02c1.54-1.18 2.5-1.44 3.36-1.44 2.45 0 3.58 2.02 3.58 3.65v5.45c0 .43.12.53.46.67l1.3.62-.22.53c-1.01.02-2.47-.02-3.79-.19.12-1.01.24-2.64.24-6.17 0-2.74-1.44-3.17-2.62-3.17-.89 0-1.66.31-2.35.89 0 2.35.02 6.94.07 7.37l1.73.7-.19.53c-.89 0-1.73-.02-2.64-.02-.84 0-1.68.02-2.52.02l.17-.53 1.3-.7c.05-.38.07-2.45.07-5.59 0-2.54 0-4.78-.05-7.73-.43-.19-1.1-.38-1.63-.36l-4.73.14v5.95c0 6.17.14 6.79.14 7.49l2.5.77-.19.55c-1.01 0-2.23-.02-3.48-.02s-2.5.02-3.55.02l.19-.55 2.21-.77c.05-.79.07-1.34.07-6.72v-6.72zm22.8 9.14c-.02.12-.02.22-.02.36-.02 2.69 1.68 4.3 3.82 4.3.34 0 .6-.05.82-.14.77-.53 1.49-1.03 2.02-1.3l.12.38c-.14.55-1.06 1.51-1.37 1.73-.48.22-1.68.58-2.52.58-2.95 0-5.09-2.06-5.09-5.38s2.5-5.78 5.21-5.78c2.18 0 4.06 1.46 4.06 4.15 0 .29-.07.67-.24.77-.24.12-1.13.34-2.26.34h-4.54zm4.78-.91c.07-.17.12-.43.12-.72 0-1.44-.72-2.78-2.11-2.78-1.99 0-2.76 2.47-2.78 3.5h4.78zm19.41 3.29c0 2.69.02 6.1.02 7.37l2.06.7-.17.58c-1.01 0-1.99-.02-3-.02s-1.92.02-2.9.02l.12-.55 1.73-.7c.05-1.78.07-3.6.12-4.87l-.05-.02c-.94.55-1.94 1.03-2.66 1.03-2.81 0-5.14-2.11-5.14-5.38 0-3.1 2.66-5.78 5.78-5.78.79 0 1.58.36 2.35.91.5-.38 1.75-.86 2.42-.91l.1.14c-.12.65-.53 1.42-.79 1.82v5.66zm-2.02-5.9c-.31-.26-.94-.58-1.78-.58-2.16 0-3.84 1.94-3.84 4.37 0 2.59 1.73 4.27 3.72 4.27.7 0 1.39-.22 1.9-.55v-7.51zm4.68-.7l.22-.5c.6-.17 2.33-.38 3.29-.36-.12 1.08-.19 2.98-.19 7.03 0 .94.22 1.44.46 1.75.34.38.91.7 1.73.7.98 0 2.11-.55 2.62-1.39v-6.29c-.17-.41-.5-.55-1.63-.96l.22-.5c.84-.22 2.62-.36 3.5-.34-.07 1.1-.07 2.66-.07 8.86.48.82 1.25 1.2 1.9 1.37l-.17.41c-.24.14-.77.31-1.37.31-.84 0-2.02-.31-2.3-1.8h-.05c-.91.98-2.02 1.85-3.48 1.85-.84 0-1.8-.26-2.42-.89-.65-.62-.94-1.58-.94-2.98 0-1.61.05-3.98.05-5.66l-1.34-.6zm13.47-.34c.38-.12 1.82-.55 3.19-.7v4.85c0 2.69.02 4.08.05 4.75l1.7.72-.17.55c-.84 0-1.75-.02-2.69-.02-.77 0-1.56.02-2.5.02l.17-.55 1.37-.72c.02-.82.05-2.88.05-4.8v-3.02l-1.3-.62.12-.46zm2.26-5.66c.34.12.98.84 1.2 1.34l-.05.19c-.19.46-.94 1.18-1.27 1.37l-.17.05c-.43-.24-.98-.91-1.2-1.37l.05-.17c.34-.58.91-1.15 1.3-1.39l.14-.02zm10.12 4.96c1.39 0 2.69.53 3.05.91-.14.62-.46 1.78-.86 2.52l-.36.17c-.22-.48-.53-1.42-.79-2.57-.14-.07-.43-.17-.91-.17-2.66 0-4.06 2.21-4.06 4.56 0 2.66 1.68 4.56 4.27 4.56.19 0 .5-.12.67-.19.84-.7 1.58-1.18 1.99-1.37l.17.31c-.22.67-1.1 1.75-1.54 2.04-.36.14-1.49.38-2.26.38-2.26 0-5.54-1.34-5.54-5.45s3.34-5.71 6.17-5.71zm9.67 10.33l-.14.55c-.91 0-1.82-.02-2.76-.02-.84 0-1.68.02-2.52.02l.14-.53 1.37-.72c.05-.5.07-1.97.07-5.47 0-3.05 0-5.93-.07-8.5l-1.34-.62.22-.48c.62-.19 2.4-.62 3.29-.74-.07 2.54-.07 5.42-.07 8.3 0 2.38.02 6.96.05 7.51l1.78.7zm5.86.94c-1.32-.1-2.4-.36-3.29-1.2-1.08-1.01-2.76-3.1-3.94-4.73l-.02-.12c1.03-1.15 2.42-2.76 3.31-3.96l.46-1.25c1.03 0 2.69.17 3.22.31l-.31.55c-.36.19-1.9.7-2.5.94-.82.79-1.2 1.18-2.3 2.45v.07c1.39 1.9 4.3 5.35 5.5 6.77l-.12.17zm7.65-9.56c0-2.21-.02-4.25-.1-6.05l-1.39-.6.22-.48c.62-.26 1.9-.58 3.34-.77-.05 2.57-.07 5.04-.07 7.32.67-.36 2.04-1.13 2.81-1.13 2.4 0 5.09 1.78 5.09 5.23 0 4.3-3.58 5.93-5.83 5.93-.6 0-1.61-.41-2.35-.77-.55.36-1.32.65-1.7.74v-9.43zm1.99 7.97c.34.12 1.06.36 1.68.36 2.45 0 4.01-1.94 4.01-4.49 0-2.28-1.44-4.2-3.77-4.2-.62 0-1.3.19-1.92.53v7.8zm10.04-8.86c.36-.17 2.04-.77 2.78-.82.14.55.24 1.61.24 2.35h.05c.98-1.7 2.38-2.35 3.34-2.35.48 0 .91.14 1.18.41-.07.67-.5 2.02-.79 2.62l-.31.17c-.22-.31-.5-.82-.86-1.61-.07-.02-.19-.07-.36-.07-.72 0-1.7.91-2.18 2.06v6.07l2.45.7-.14.53c-.91 0-2.11-.02-3.38-.02-.79 0-1.8.02-2.52.02l.12-.53 1.37-.72c.1-2.52.1-6.46.1-7.63l-1.25-.7.19-.48zm19.51 4.66c0 3.43-2.35 5.69-5.4 5.69-2.66 0-5.42-1.9-5.42-5.42s3-5.74 5.47-5.74c2.95 0 5.35 2.26 5.35 5.47zm-8.47.05c0 2.26 1.1 4.8 3.26 4.8s2.86-2.57 2.86-4.61c0-2.26-1.01-4.87-3.07-4.87s-3.05 2.35-3.05 4.68zm14.01-4.64l-.91.62c.31 1.13 1.01 3.19 2.16 6.62h.07c.79-2.06 1.51-3.79 2.16-5.57l-.19-1.44c.19-.19 1.22-.72 1.73-.84l.17.12.14 1.78c.6 1.73 1.42 3.77 2.33 6.1h.05c.79-2.45 1.34-4.2 2.06-6.74l-1.25-.65.19-.6c.6 0 1.25.02 1.87.02s1.27-.02 1.9-.02l-.12.6c-.7.26-1.08.5-1.44.89-.36.82-1.61 4.3-3 8.4-.26.36-.67.84-.98 1.1h-.19c-.86-2.21-1.82-4.7-2.81-7.13h-.05c-.89 2.14-1.37 3.24-2.47 6-.24.36-.67.86-.94 1.13h-.19c-.86-2.47-2.62-7.56-3.38-9.5-.34-.41-.7-.6-1.51-.89l.22-.6c.82 0 1.58.02 2.35.02.72 0 1.46-.02 2.18-.02l-.14.6zm14.88 1.06l-1.27-.55.17-.48c.41-.24 2.38-.89 3.12-.91l-.12 1.9.05.02c1.82-1.51 2.81-1.92 3.77-1.92 2.5 0 3.24 2.04 3.24 3.84V288c0 .26.12.38.34.46l1.42.6-.17.55c-.65 0-1.75-.02-2.69-.02-.67 0-1.39.02-2.14.02l.17-.6.96-.7c.05-.72.1-2.42.1-5.54 0-1.82-1.03-2.59-2.26-2.59-1.01 0-2.09.72-2.66 1.32 0 1.82 0 6.41.05 6.91l1.34.62-.14.58c-.62 0-1.54-.02-2.3-.02-.84 0-1.75.02-2.52.02l.17-.55 1.32-.67c.05-.38.07-2.57.07-5.59v-2.11zm17.38 8.42l1.56-.74c.02-.31.07-2.02.07-4.85v-3.34l-1.61-.34.38-.79h1.22c0-1.94.43-3.72 1.66-5.02.96-1.03 2.06-1.49 3.26-1.49.82 0 1.42.24 1.73.53-.26.89-.53 1.68-.82 2.16l-.34.17c-.24-.34-.58-.96-.94-1.92-.1-.02-.19-.02-.29-.02-1.18 0-1.99 1.27-2.11 3.62-.05.74-.07 1.44-.07 1.97h3.07l-.41.82-2.66.29c-.02.48-.07 1.61-.07 3.17 0 3.67.02 4.68.07 5.02l2.26.72-.17.55c-1.03 0-2.16-.02-3.31-.02-.86 0-1.73.02-2.62.02l.12-.5zm18.1-4.89c0 3.43-2.35 5.69-5.4 5.69-2.66 0-5.42-1.9-5.42-5.42s3-5.74 5.47-5.74c2.95 0 5.35 2.26 5.35 5.47zm-8.47.05c0 2.26 1.1 4.8 3.26 4.8s2.86-2.57 2.86-4.61c0-2.26-1.01-4.87-3.07-4.87s-3.05 2.35-3.05 4.68zm15.11-1.59h.05c.53-.91.94-1.51 1.32-2.28.19-.53.19-.89.17-1.37.48.02.91.05 1.34.05.74 0 1.49-.02 2.23-.05l-.17.58c-1.44.48-1.92.72-2.45 1.13-.55.7-1.06 1.3-2.04 2.76.72 1.34 2.09 3.58 2.52 4.2.26.41.55.65.89.74l1.7.58-.19.58c-.67 0-2.5.12-3.74.12-.62-1.22-1.03-2.02-2.38-4.37h-.05c-1.06 1.7-1.34 2.18-1.73 2.98.02.22.17.41.6.79l-.14.5c-.5 0-1.2-.02-1.8-.02-.77 0-1.51.02-2.11.02l.12-.55 1.34-.6c.41-.17.72-.41.98-.77.62-.86 1.1-1.44 2.28-3.24-1.51-2.64-2.02-3.53-2.35-3.98-.29-.24-.79-.48-2.09-.86l.22-.58c.67.02 1.42.05 2.11.05.62 0 1.15-.02 1.85-.05l-.1.91 1.61 2.74zm12.19-3.24c.62-.24 2.5-.65 3.26-.7v8.69c0 1.18-.19 2.69-.91 4.03-1.15 2.21-2.18 3.19-3.19 3.94l-.62-.36-.02-.22c2.5-1.87 2.74-4.56 2.74-7.42 0-1.94 0-5.54-.07-6.94-.41-.19-.89-.38-1.34-.58l.17-.46zm2.28-5.66c.31.1.96.84 1.2 1.34l-.07.19c-.19.43-.94 1.15-1.27 1.34l-.19.07c-.41-.26-.96-.91-1.2-1.37l.07-.19c.36-.55.91-1.13 1.3-1.37l.17-.02zm3.53 6l.22-.5c.6-.17 2.33-.38 3.29-.36-.12 1.08-.19 2.98-.19 7.03 0 .94.22 1.44.46 1.75.34.38.91.7 1.73.7.98 0 2.11-.55 2.62-1.39v-6.29c-.17-.41-.5-.55-1.63-.96l.22-.5c.84-.22 2.62-.36 3.5-.34-.07 1.1-.07 2.66-.07 8.86.48.82 1.25 1.2 1.9 1.37l-.17.41c-.24.14-.77.31-1.37.31-.84 0-2.02-.31-2.3-1.8h-.05c-.91.98-2.02 1.85-3.48 1.85-.84 0-1.8-.26-2.42-.89-.65-.62-.94-1.58-.94-2.98 0-1.61.05-3.98.05-5.66l-1.34-.6zm14.67.86l-1.27-.5.17-.48c.5-.26 2.38-.89 3.14-.91l-.14 1.94.05.02c1.51-1.25 2.67-1.97 3.75-1.97 1.3 0 2.4.77 2.86 1.99 1.68-1.42 2.81-1.99 3.96-1.99 1.99 0 3.24 1.54 3.24 3.62v5.69c0 .22.19.34.46.48l1.3.55-.14.53c-.82 0-1.7-.02-2.59-.02-.74 0-1.51.02-2.33.02l.14-.55 1.06-.72c.05-.86.12-2.5.1-5.18 0-1.37-.34-2.95-2.23-2.95-.86 0-1.78.43-2.74 1.34.05.43.14 1.15.14 1.97l-.02 4.85 1.42.7-.17.55c-.65 0-1.46-.02-2.23-.02s-1.58.02-2.35.02l.14-.58 1.13-.67c.02-1.44.05-3.31.05-5.42 0-1.22-.34-2.74-2.28-2.74-.79 0-1.78.62-2.54 1.32 0 2.81-.02 6.1.02 6.84l1.44.67-.14.58c-.6 0-1.49-.02-2.42-.02-.79 0-1.68.02-2.45.02l.14-.58 1.32-.67c.02-.48.05-2.57.05-4.85v-2.88zm21.69-.38l.05.02c1.51-1.03 2.54-1.54 3.26-1.54 1.99 0 4.63 1.68 4.63 5.11 0 4.27-3.58 6.05-5.83 6.05-.43 0-1.42-.38-1.97-.74l-.05.05c0 1.73.05 3.36.1 4.54l2.23.72-.22.55c-1.08 0-2.06-.02-3.14-.02-.82 0-1.68.02-2.52.02l.19-.6 1.22-.6c.02-.82.12-3.1.12-6.6v-6.67l-1.34-.72.22-.48c.36-.17 2.28-.6 3.14-.62l-.1 1.54zm.1 7.99c.43.26 1.1.5 1.8.5 2.02 0 3.86-1.73 3.86-4.49 0-2.18-1.32-4.1-3.43-4.1-.6 0-1.37.26-2.23.89v7.2zm15.48-8.93c.38-.24.84-.48 1.25-.62l.19.19c-.02.41-.34 2.33-.6 2.88l-.31.17c-.29-.5-.6-1.27-.84-1.87-.14-.1-.58-.38-1.42-.38-1.2 0-1.82.79-1.82 1.66 0 .55.22.94.86 1.3.74.41 2.06.96 2.88 1.37 1.32.65 1.8 1.54 1.8 2.54 0 2.62-2.71 3.36-4.22 3.36-1.25 0-2.62-.46-3.48-1.03.02-.46.43-2.28.58-2.62l.34-.19c.34.62.86 2.09 1.13 2.74.36.12.89.24 1.46.24 1.25 0 2.23-.77 2.23-1.75 0-.65-.24-1.08-.96-1.44-.65-.36-1.44-.72-2.33-1.13-1.32-.6-2.11-1.51-2.11-2.86 0-1.51 1.18-3.12 3.55-3.12.58 0 1.25.19 1.82.58zm20.11 4.9c0 3.43-2.35 5.69-5.4 5.69-2.66 0-5.42-1.9-5.42-5.42s3-5.74 5.47-5.74c2.95 0 5.35 2.26 5.35 5.47zm-8.47.05c0 2.26 1.1 4.8 3.26 4.8s2.86-2.57 2.86-4.61c0-2.26-1.01-4.87-3.07-4.87s-3.05 2.35-3.05 4.68zm9.43-5.24c.67.02 1.37.02 2.26.02.74 0 1.44 0 2.16-.02l-.19.6-.72.62c.46 1.39 1.37 3.67 2.59 6.72l.05.02c.46-1.18 1.01-2.54 2.45-6.65l-1.03-.74.19-.58c.41 0 1.1.02 1.63.02.67 0 1.42 0 1.99-.02l-.19.6c-.72.31-1.06.55-1.49 1.08-.38.72-2.5 5.86-3.38 8.06-.22.43-.62.98-.91 1.25h-.19c-.22-.46-2.14-5.35-3.79-9.36-.43-.58-.86-.79-1.63-1.08l.22-.55zm14.21 4.97c-.02.12-.02.22-.02.36-.02 2.69 1.68 4.3 3.82 4.3.34 0 .6-.05.82-.14.77-.53 1.49-1.03 2.02-1.3l.12.38c-.14.55-1.06 1.51-1.37 1.73-.48.22-1.68.58-2.52.58-2.95 0-5.09-2.06-5.09-5.38s2.5-5.78 5.21-5.78c2.18 0 4.06 1.46 4.06 4.15 0 .29-.07.67-.24.77-.24.12-1.13.34-2.26.34h-4.54zm4.78-.91c.07-.17.12-.43.12-.72 0-1.44-.72-2.78-2.11-2.78-1.99 0-2.76 2.47-2.78 3.5h4.78zm4.24-3.53c.36-.17 2.04-.77 2.78-.82.14.55.24 1.61.24 2.35h.05c.98-1.7 2.38-2.35 3.34-2.35.48 0 .91.14 1.18.41-.07.67-.5 2.02-.79 2.62l-.31.17c-.22-.31-.5-.82-.86-1.61-.07-.02-.19-.07-.36-.07-.72 0-1.7.91-2.18 2.06v6.07l2.45.7-.14.53c-.91 0-2.11-.02-3.38-.02-.79 0-1.8.02-2.52.02l.12-.53 1.37-.72c.1-2.52.1-6.46.1-7.63l-1.25-.7.19-.48zm21.34-.5l-.46.86-3.24.29c0 1.15-.02 3.86-.02 6.74 0 .62.24.96.41 1.13.24.22.62.36 1.2.36.89 0 1.56-.29 1.92-.55l.12.02-.02.74c-.6.74-1.56 1.25-2.78 1.25-.94 0-1.78-.38-2.3-1.01-.41-.53-.55-1.03-.55-2.57v-6.12l-1.61-.31.41-.84h1.22c.12-.67.38-1.94.65-2.76.34-.38 1.13-.72 1.46-.72l-.1 3.48h3.7zm11.18 8.78c0 .43.1.53.46.67l1.3.62-.19.53c-.98.02-2.47-.02-3.82-.19.12-1.01.24-2.57.24-6.1 0-2.76-1.44-3.24-2.59-3.24-.89 0-1.66.31-2.35.86 0 2.38 0 6.94.05 7.37l1.75.72-.19.53c-.91 0-1.75-.02-2.66-.02-.82 0-1.66.02-2.5.02l.17-.53 1.3-.72c.05-.34.07-2.42.07-5.57s0-5.78-.1-8.38l-1.37-.65.14-.46c.7-.24 1.87-.48 3.41-.77-.05 2.3-.07 5.02-.07 7.61l.02.02c1.54-1.2 2.5-1.44 3.36-1.44 2.45 0 3.58 2.02 3.58 3.65v5.45zm5.23-3.84c-.02.12-.02.22-.02.36-.02 2.69 1.68 4.3 3.82 4.3.34 0 .6-.05.82-.14.77-.53 1.49-1.03 2.02-1.3l.12.38c-.14.55-1.06 1.51-1.37 1.73-.48.22-1.68.58-2.52.58-2.95 0-5.09-2.06-5.09-5.38s2.5-5.78 5.21-5.78c2.18 0 4.06 1.46 4.06 4.15 0 .29-.07.67-.24.77-.24.12-1.13.34-2.26.34h-4.54zm4.78-.91c.07-.17.12-.43.12-.72 0-1.44-.72-2.78-2.11-2.78-1.99 0-2.76 2.47-2.78 3.5h4.78zm14.54 5.95l-.22.58c-.91 0-1.7-.02-2.54-.02-.91 0-1.82.02-2.71.02l.14-.53 1.49-.7c.02-.98.07-2.47.07-8.33 0-2.16 0-4.54-.1-5.74l-1.37-.55.24-.53c.77-.26 2.28-.55 3.31-.7-.05 2.47-.07 4.82-.07 7.42 0 4.82.02 6.65.05 8.42l1.7.65zm7.32-6.14c-.02-2.5-1.1-3-2.35-3-.48 0-1.08.19-1.46.43-.07.7-.17 1.78-.31 2.42l-.26.12c-.29-.14-1.3-1.39-1.54-2.06.5-.46 1.94-1.27 2.93-1.66.58-.22 1.15-.41 1.68-.41 2.47 0 3.31 2.16 3.31 3.67 0 1.63-.05 3.72-.05 5.35.53.86 1.42 1.25 1.87 1.39l-.19.38c-.19.12-.6.31-1.18.31-1.61 0-2.16-.74-2.4-1.37h-.02c-1.06 1.01-2.16 1.42-2.93 1.42-2.11 0-3.02-1.63-3.02-2.81 0-1.01.41-1.68.96-1.94.86-.53 3.1-1.3 4.97-1.73v-.53zm-1.9 5.64c.5 0 1.18-.24 1.63-.72.14-.19.22-.34.22-.58l.05-3.05c-1.03.29-2.33.77-3 1.13-.6.34-.84.67-.84 1.32 0 1.44 1.18 1.9 1.94 1.9zm15.8-9.24c-1.2 2.04-4.56 7.1-6 9.38v.05c1.73 0 4.13-.12 4.39-.19.74-1.06 1.3-1.82 1.66-2.21l.38-.1c-.07.82-.34 2.74-.55 3.48-1.25-.02-2.86-.12-4.97-.12h-3.84l-.02-.19c1.9-2.71 4.2-6.19 6.29-9.43v-.05c-.41 0-1.42 0-4.08.12-.29.53-.89 1.61-1.2 1.97l-.36.1c-.1-.46-.17-2.74-.12-3.17l.07-.07 1.68.19h6.55l.12.24zm9.02-.27c.48 0 1.1.02 1.63.02.72 0 1.44-.02 2.04-.02l-.14.58c-.72.31-1.13.62-1.49.98-.91 1.97-2.81 6.82-5.04 12.1-.22.91-.38 1.85-.62 2.66-.12.07-.31.1-.55.1-.72 0-1.51-.48-1.73-.79.22-.43 1.22-1.63 2.09-2.59.29-.62.86-1.82 1.22-2.64-.24-.46-2.47-6.53-3.46-8.76-.31-.48-.62-.67-1.66-1.08l.22-.55c.74.02 1.49.02 2.26.02s1.51 0 2.26-.02l-.14.58-.77.6c.29.91 1.06 3.07 2.38 6.62h.05c.94-2.45 1.97-5.26 2.38-6.58l-1.1-.65.19-.58zm19.75 8.81c.6.82 1.39 1.25 1.82 1.42l-.17.41c-.19.14-.58.24-1.13.24-.79 0-1.97-.36-2.4-1.37h-.02c-.43.31-1.82 1.37-2.9 1.37-2.04 0-5.06-1.56-5.06-5.3s3.29-5.86 5.83-5.86c.36 0 1.18.22 1.97.72h.05c0-1.73-.02-3.24-.07-5.06l-1.51-.62.19-.46c.55-.22 1.82-.53 3.48-.77-.05 2.5-.07 4.87-.07 7.49v7.8zm-2.02-7.46c-.48-.31-1.22-.5-1.78-.5-2.28 0-3.89 2.04-3.89 4.37s1.58 4.22 3.72 4.22c.48 0 1.18-.14 1.94-.7v-7.39zm15.92 3.84c0 3.43-2.35 5.69-5.4 5.69-2.66 0-5.42-1.9-5.42-5.42s3-5.74 5.47-5.74c2.95 0 5.35 2.26 5.35 5.47zm-8.47.05c0 2.26 1.1 4.8 3.26 4.8s2.86-2.57 2.86-4.61c0-2.26-1.01-4.87-3.07-4.87s-3.05 2.35-3.05 4.68zm18.26-4.09l-.02.05c.34.31.84 1.18.84 2.33 0 2.26-1.87 3.74-4.25 3.74-.77 0-1.42-.17-1.99-.43-.38.38-.65.89-.65 1.08 0 .46.62 1.06 1.13 1.08.98-.07 3.43-.22 4.99-.02.7.07 1.13.29 1.51.65.43.36.84 1.06.84 1.92 0 1.34-.86 2.52-2.02 3.36-1.03.79-2.5 1.51-4.34 1.51-2.38 0-4.15-1.18-4.15-2.81 0-.29.17-.53.36-.74l1.97-2.11-.02-.05c-.36-.19-.7-.38-1.06-.77-.43-.41-.82-1.1-.82-1.56 0-.31.89-1.22 1.68-1.87-.89-.53-1.54-1.54-1.54-2.88 0-1.92 1.58-3.91 4.51-3.91.7 0 1.2.1 1.8.22.77.12 1.32.22 1.75.26l2.06-.86.1.24-.98 1.49-1.7.1zm-5.04 9.89c-.41.36-1.15 1.37-1.15 1.9 0 1.56 1.66 2.23 3.12 2.23 1.99 0 3.74-.89 3.74-2.74 0-.77-.48-1.34-1.25-1.51-.55-.1-1.13-.14-2.42-.14s-1.73.12-2.04.26zm-.46-7.56c0 1.39.7 2.95 2.21 2.95 1.39 0 2.14-1.32 2.14-2.98 0-1.32-.67-2.93-2.16-2.93s-2.18 1.49-2.18 2.95zM6.72 361.44l-4.51-.17c-.26.58-1.1 2.04-1.34 2.38l-.22.07c-.07-.65-.02-2.64.02-3.38l.07-.1c.34.07 1.03.22 1.42.36h11.38c.48 0 1.27-.1 1.54-.29v-.6l1.92-.43.14.07c-.05 2.47-.07 5.14-.07 7.75l.05.02c1.51-1.18 2.47-1.46 3.31-1.46 2.38 0 3.5 1.87 3.5 3.6v5.57c0 .46.14.58.43.7l1.27.67-.12.26c-.98.02-2.45-.02-3.79-.19.14-.98.26-2.62.26-6.14 0-2.83-1.44-3.26-2.57-3.26-.89 0-1.73.34-2.35.89 0 2.42 0 7.25.1 7.66l1.7.79-.12.24c-.91 0-1.8-.05-2.74-.05-.79 0-1.58.05-2.38.05l.1-.24 1.3-.79c.07-.34.1-2.64.1-5.74 0-2.54 0-4.94-.05-8.09-.31-.14-.96-.34-1.56-.31l-4.78.17v6.17c0 6.34.12 7.03.14 7.73l2.42.84-.07.26c-1.08 0-2.26-.05-3.46-.05s-2.4.05-3.48.05l.1-.26 2.26-.84c.05-.82.07-1.39.07-6.96v-6.94zm22.13 9.16c-.05.17-.05.31-.05.48 0 2.9 1.75 4.61 3.96 4.61.29 0 .5-.05.74-.12.77-.6 1.49-1.13 1.94-1.37l.1.19c-.17.58-.96 1.49-1.27 1.7-.5.26-1.75.6-2.54.6-2.93 0-5.04-2.09-5.04-5.3 0-3.43 2.54-5.74 5.18-5.74 2.16 0 3.98 1.49 3.98 3.96 0 .31-.07.55-.24.67-.24.1-1.13.31-2.23.31h-4.54zm4.82-.67c.07-.12.14-.48.14-.82 0-1.32-.65-2.88-2.09-2.88-2.06 0-2.86 2.64-2.88 3.7h4.82zm18.36 3.29c0 2.64.02 6.17.02 7.68l2.02.82-.1.29c-1.01-.02-2.02-.07-3.02-.07-.91 0-1.85.05-2.76.07l.07-.29 1.73-.79c.05-2.09.07-3.98.12-5.3l-.05-.02c-.94.55-1.97 1.1-2.71 1.1-2.71 0-5.04-2.04-5.04-5.35 0-3.05 2.54-5.69 5.64-5.69.84 0 1.63.36 2.38.96.53-.41 1.75-.91 2.42-.98l.05.1c-.12.62-.5 1.42-.77 1.82v5.67zm-1.92-6.05c-.29-.19-.94-.58-1.87-.58-2.11 0-3.79 2.02-3.79 4.54 0 2.74 1.78 4.39 3.72 4.39.67 0 1.39-.19 1.94-.58v-7.78zm4.32-.77l.14-.24c.58-.17 2.42-.36 3.29-.36-.1 1.08-.19 3-.19 7.08 0 .91.19 1.46.43 1.8.38.41 1.01.7 1.73.7.96 0 2.14-.62 2.64-1.44v-6.7c-.31-.29-.67-.46-1.63-.89l.12-.24c.96-.17 2.66-.31 3.53-.31-.07 1.1-.07 2.74-.07 8.98.48.82 1.3 1.15 1.85 1.34l-.07.19c-.24.14-.77.31-1.3.31-.82 0-2.11-.22-2.38-1.85l-.05-.02c-.96 1.1-2.09 1.94-3.48 1.94-.79 0-1.73-.26-2.33-.84-.65-.62-.94-1.54-.94-2.79 0-1.68.05-4.2.05-6.02l-1.34-.65zm13.01-.07c.41-.12 1.78-.55 3.1-.67v4.8c0 2.67.05 4.1.1 4.92l1.63.79-.12.26c-.82 0-1.7-.05-2.62-.05-.77 0-1.56.05-2.45.05l.1-.26 1.37-.79c.02-1.06.07-3.07.07-4.97v-3.24l-1.25-.6.07-.24zm2.23-5.69c.29.1.86.77 1.06 1.2l-.05.17c-.17.38-.82 1.03-1.13 1.2l-.17.07c-.36-.24-.84-.84-1.03-1.22l.02-.17c.31-.48.79-1.01 1.15-1.22l.14-.02zm9.67 5.02c1.39 0 2.66.53 3.02.86-.17.67-.5 1.8-.86 2.47l-.19.07c-.22-.43-.5-1.39-.79-2.62-.17-.1-.46-.14-.96-.14-2.78 0-4.13 2.33-4.13 4.73 0 2.69 1.7 4.71 4.27 4.71.22 0 .5-.05.67-.12.89-.77 1.58-1.25 1.99-1.44l.1.14c-.22.62-1.08 1.75-1.46 1.99-.38.14-1.49.38-2.23.38-2.23 0-5.47-1.37-5.47-5.4s3.17-5.64 6.05-5.64zm9.29 10.51l-.05.26c-.94 0-1.82-.05-2.74-.05-.86 0-1.73.05-2.57.05l.07-.24 1.42-.79c.07-.41.12-1.82.12-5.54 0-3.02 0-6.02-.07-9.02l-1.32-.62.1-.22c.65-.22 2.14-.6 3.29-.74-.05 2.79-.07 5.64-.07 8.52 0 2.23.02 6.91.1 7.63l1.73.77zm5.76.6c-1.03-.1-2.38-.43-3.14-1.15-.94-.84-2.78-3.05-3.98-4.71l-.02-.12c.96-1.06 2.28-2.62 3.36-4.03l.48-1.1c1.13-.02 2.52.17 2.98.31l-.17.29c-.43.24-1.87.67-2.64.98-.74.72-1.2 1.2-2.33 2.5v.07c1.68 2.23 3.98 4.92 5.59 6.84l-.12.12zm6.77-9.41c0-2.21-.02-4.37-.07-6.53l-1.34-.58.12-.24c.62-.29 2.02-.65 3.31-.77-.05 2.69-.07 5.26-.07 7.49.65-.31 2.04-1.08 2.81-1.08 2.35 0 5.02 1.7 5.02 5.16 0 4.2-3.53 5.88-5.76 5.88-.53 0-1.63-.41-2.3-.72-.55.34-1.32.62-1.7.67v-9.29zm1.94 8.14c.31.1.96.26 1.58.26 2.5 0 4.1-2.04 4.1-4.66 0-2.35-1.39-4.32-3.79-4.32-.65 0-1.39.22-1.9.5v8.21zm9.65-9.05c.36-.17 2.06-.79 2.74-.79.12.41.24 1.58.24 2.42h.02c1.01-1.82 2.45-2.42 3.34-2.42.46 0 .82.12 1.03.31-.05.53-.41 1.78-.77 2.54l-.17.1c-.22-.29-.5-.82-.86-1.66-.07-.02-.14-.07-.34-.07-.77 0-1.66.89-2.21 2.18v6.36l2.3.74-.05.26c-.77 0-1.99-.05-3.43-.05-.7 0-1.78.05-2.33.05l.05-.26 1.34-.74c.17-3.41.17-6.74.17-7.99l-1.2-.74.12-.24zm18.84 4.63c0 3.38-2.35 5.62-5.38 5.62-2.59 0-5.3-1.97-5.3-5.38 0-3.58 2.88-5.66 5.38-5.66 2.95 0 5.3 2.23 5.3 5.42zm-8.45-.02c0 2.35 1.18 5.06 3.31 5.06s2.9-2.69 2.9-4.82c0-2.26-1.03-5.09-3.1-5.09-2.21 0-3.12 2.69-3.12 4.85zm13.56-4.87l-.84.79c.34 1.18 1.13 3.38 2.33 6.91h.07c.79-2.11 1.58-3.96 2.21-5.71l-.17-1.49c.19-.19 1.03-.65 1.56-.79l.12.07.19 1.82c.6 1.7 1.49 3.74 2.42 6.12h.05c.79-2.4 1.39-4.32 2.16-6.96l-1.13-.77.12-.26c.55 0 1.08.05 1.68.05s1.22-.05 1.82-.05l-.07.26c-.55.29-.98.58-1.44.91-.31.62-1.7 4.54-3.1 8.62-.22.36-.6.82-.84 1.08h-.14c-.84-2.11-2.09-5.28-2.93-7.27h-.02c-.91 2.23-1.42 3.36-2.52 6.14-.19.38-.62.89-.84 1.13h-.14c-.84-2.42-3.05-8.67-3.5-9.75-.41-.34-.79-.58-1.37-.86l.12-.26c.72 0 1.49.05 2.28.05.67 0 1.32-.05 1.99-.05l-.07.26zm14.83 1.17l-1.22-.6.1-.24c.38-.19 2.33-.84 3.07-.86l-.12 1.94.05.02c1.78-1.49 2.76-1.97 3.77-1.97 2.35 0 3.14 1.92 3.14 3.62v5.74c0 .29.1.41.31.5l1.39.65-.1.26c-.55 0-1.78-.05-2.66-.05-.65 0-1.34.05-1.97.05l.1-.26.84-.79c.07-.86.14-2.71.14-5.83 0-1.87-1.1-2.62-2.28-2.62-1.1 0-2.11.82-2.62 1.32 0 1.9 0 6.75.1 7.15l1.27.77-.1.26c-.58-.02-1.51-.05-2.28-.05-.84 0-1.78.05-2.47.05l.1-.26 1.34-.74c.07-.34.1-2.71.1-5.78v-2.28zm16.32 8.84l1.49-.82c.05-.34.12-2.18.12-4.99v-3.53l-1.58-.31.34-.58h1.25c0-2.11.43-3.82 1.63-5.14 1.03-1.13 2.21-1.58 3.34-1.58.82 0 1.49.26 1.73.53-.22.7-.58 1.63-.84 2.09l-.22.1c-.22-.31-.6-1.08-.91-2.04-.1-.02-.17-.02-.29-.02-1.42 0-2.23 1.56-2.38 3.89-.05.84-.05 1.61-.05 2.18h2.98l-.38.58-2.59.29c-.02.53-.07 1.85-.07 3.38 0 3.62.02 4.8.1 5.14l2.14.82-.1.26c-1.03 0-2.16-.05-3.29-.05-.82 0-1.66.05-2.5.05l.1-.24zm17.53-5.12c0 3.38-2.35 5.62-5.38 5.62-2.59 0-5.3-1.97-5.3-5.38 0-3.58 2.88-5.66 5.38-5.66 2.95 0 5.3 2.23 5.3 5.42zm-8.45-.02c0 2.35 1.18 5.06 3.31 5.06s2.9-2.69 2.9-4.82c0-2.26-1.03-5.09-3.1-5.09-2.21 0-3.12 2.69-3.12 4.85zm14.68-1.41h.05c.5-.89 1.06-1.85 1.37-2.57.12-.43.12-.74.1-1.15.43.02.79.05 1.15.05.7 0 1.44-.02 2.26-.05l-.07.26c-1.22.46-1.8.72-2.42 1.08-.67.89-1.1 1.51-2.09 3 .77 1.46 2.11 3.72 2.54 4.42.26.43.53.67.84.77l1.66.67-.12.26c-.72 0-2.5.12-3.74.12-.48-1.06-.94-1.97-2.33-4.46h-.05c-1.06 1.78-1.39 2.38-1.85 3.29.12.26.34.48.72.86l-.1.24c-.38 0-1.06-.05-1.58-.05-.77 0-1.51.05-2.16.05l.05-.26 1.39-.67c.38-.17.62-.36.89-.7.67-.94 1.13-1.58 2.33-3.46-1.49-2.66-2.11-3.79-2.5-4.32-.38-.24-.94-.48-1.87-.84l.1-.26c.74.02 1.49.05 2.23.05.58 0 1.01-.02 1.61-.05l-.07.77 1.68 2.95zm11.19-3.37c.65-.24 2.54-.62 3.22-.62v8.95c0 1.01-.17 2.5-.96 3.98-1.15 2.16-2.16 3.12-3.02 3.75l-.43-.24-.02-.14c2.3-1.87 2.52-4.1 2.52-7.37 0-2.14 0-5.76-.1-7.46-.41-.19-.86-.41-1.3-.6l.1-.24zm2.33-5.64c.29.1.86.74 1.06 1.18l-.05.19c-.17.36-.84 1.03-1.13 1.2l-.17.05c-.36-.22-.86-.82-1.06-1.2l.05-.19c.31-.48.79-.98 1.15-1.22h.14zm3.12 5.76l.14-.24c.58-.17 2.42-.36 3.29-.36-.1 1.08-.19 3-.19 7.08 0 .91.19 1.46.43 1.8.38.41 1.01.7 1.73.7.96 0 2.14-.62 2.64-1.44v-6.7c-.31-.29-.67-.46-1.63-.89l.12-.24c.96-.17 2.66-.31 3.53-.31-.07 1.1-.07 2.74-.07 8.98.48.82 1.3 1.15 1.85 1.34l-.07.19c-.24.14-.77.31-1.3.31-.82 0-2.11-.22-2.38-1.85l-.05-.02c-.96 1.1-2.09 1.94-3.48 1.94-.79 0-1.73-.26-2.33-.84-.65-.62-.94-1.54-.94-2.79 0-1.68.05-4.2.05-6.02l-1.34-.65zm14.2.89l-1.22-.53.1-.24c.5-.22 2.35-.84 3.07-.86l-.1 1.94.02.02c1.49-1.22 2.66-1.97 3.72-1.97 1.27 0 2.35.72 2.81 1.99 1.7-1.44 2.76-1.99 3.86-1.99 1.92 0 3.14 1.42 3.14 3.53v5.9c0 .17.19.31.46.48l1.22.62-.05.24c-.86 0-1.73-.05-2.62-.05-.72 0-1.49.05-2.18.05l.07-.26 1.03-.79c.05-.91.14-2.74.12-5.57 0-1.22-.34-2.86-2.21-2.86-.94 0-1.8.43-2.71 1.3.07.41.14 1.18.14 2.04v5.11l1.34.77-.1.26c-.65 0-1.46-.05-2.23-.05s-1.56.05-2.28.05l.1-.26 1.13-.77c.07-1.46.1-3.62.1-5.79 0-1.18-.43-2.66-2.3-2.66-.77 0-1.75.6-2.5 1.22 0 2.98 0 6.53.07 7.25l1.39.74-.07.26c-.55 0-1.46-.05-2.47-.05-.74 0-1.7.05-2.33.05l.07-.26 1.32-.77c.05-.46.07-2.69.07-5.04v-3.07zm21.05-.07l.05.02c1.61-1.08 2.59-1.58 3.36-1.58 1.9 0 4.49 1.61 4.49 5.02 0 4.22-3.53 6.02-5.78 6.02-.36 0-1.34-.41-1.97-.77l-.05.02c0 1.44.05 3.38.1 4.92l2.21.84-.14.29c-1.08-.02-2.11-.07-3.17-.07-.79 0-1.61.05-2.42.07l.12-.29 1.27-.77c.02-1.1.12-3.67.12-6.98v-6.75l-1.32-.72.14-.24c.36-.17 2.35-.62 3.1-.67l-.1 1.63zm.1 8.09c.43.24 1.1.46 1.82.46 1.99 0 3.86-1.68 3.86-4.7 0-2.16-1.27-4.18-3.41-4.18-.55 0-1.39.24-2.28.94v7.49zm14.97-9.07c.41-.29.89-.53 1.22-.62l.14.12c-.05.58-.31 2.28-.55 2.76l-.17.1c-.34-.5-.67-1.34-.84-1.8-.14-.1-.55-.38-1.42-.38-1.22 0-1.92.84-1.92 1.73 0 .6.24 1.06.96 1.44.91.46 1.85.89 2.54 1.2 1.32.62 1.94 1.49 1.94 2.64 0 2.5-2.54 3.29-4.03 3.29-1.2 0-2.57-.48-3.38-1.03.02-.55.48-2.21.62-2.54l.17-.12c.31.6.84 2.28 1.06 2.81.29.14.84.24 1.44.24 1.2 0 2.28-.82 2.28-1.94 0-.62-.24-1.13-1.01-1.51-.6-.31-1.3-.67-2.21-1.08-1.25-.58-2.04-1.44-2.04-2.81 0-1.56 1.25-3.05 3.43-3.05.58 0 1.2.17 1.75.58zm19.04 4.84c0 3.38-2.35 5.62-5.38 5.62-2.59 0-5.3-1.97-5.3-5.38 0-3.58 2.88-5.66 5.38-5.66 2.95 0 5.3 2.23 5.3 5.42zm-8.45-.02c0 2.35 1.18 5.06 3.31 5.06s2.9-2.69 2.9-4.82c0-2.26-1.03-5.09-3.1-5.09-2.21 0-3.12 2.69-3.12 4.85zm9.19-5.16c.6.02 1.25.07 2.26.07.6 0 1.2-.05 1.85-.07l-.1.29-.6.79c.48 1.46 1.39 3.7 2.69 7.06l.05.02c.53-1.32 1.06-2.76 2.52-6.98l-.74-.89.1-.29c.34.02.89.07 1.32.07.62 0 1.39-.05 1.82-.07l-.07.29c-.58.34-.98.62-1.44 1.03-.5.94-2.57 6.14-3.43 8.35-.19.43-.55.98-.82 1.22h-.17c-.22-.43-2.66-6.65-3.91-9.65-.43-.41-.89-.67-1.44-.98l.12-.26zm13.8 4.7c-.05.17-.05.31-.05.48 0 2.9 1.75 4.61 3.96 4.61.29 0 .5-.05.74-.12.77-.6 1.49-1.13 1.94-1.37l.1.19c-.17.58-.96 1.49-1.27 1.7-.5.26-1.75.6-2.54.6-2.93 0-5.04-2.09-5.04-5.3 0-3.43 2.54-5.74 5.18-5.74 2.16 0 3.98 1.49 3.98 3.96 0 .31-.07.55-.24.67-.24.1-1.13.31-2.23.31h-4.54zm4.82-.67c.07-.12.14-.48.14-.82 0-1.32-.65-2.88-2.09-2.88-2.06 0-2.86 2.64-2.88 3.7h4.82zm3.91-3.48c.36-.17 2.06-.79 2.74-.79.12.41.24 1.58.24 2.42h.02c1.01-1.82 2.45-2.42 3.34-2.42.46 0 .82.12 1.03.31-.05.53-.41 1.78-.77 2.54l-.17.1c-.22-.29-.5-.82-.86-1.66-.07-.02-.14-.07-.34-.07-.77 0-1.66.89-2.21 2.18v6.36l2.3.74-.05.26c-.77 0-1.99-.05-3.43-.05-.7 0-1.78.05-2.33.05l.05-.26 1.34-.74c.17-3.41.17-6.74.17-7.99l-1.2-.74.12-.24zm20.07-.48l-.38.6-3.19.31v7.32c0 .41.24.77.36.89.26.22.62.36 1.2.36.86 0 1.51-.31 1.9-.58l.07.02-.02.53c-.53.72-1.49 1.27-2.71 1.27-.89 0-1.7-.38-2.21-.98-.41-.5-.53-1.06-.53-2.57v-6.26l-1.56-.31.36-.6h1.22c.1-.6.38-1.82.7-2.69.26-.38 1.01-.77 1.32-.77l-.1 3.46h3.58zm10.82 8.86c0 .46.14.58.43.7l1.27.67-.1.26c-1.01.02-2.47-.02-3.82-.19.14-.98.26-2.59.26-6.12 0-2.83-1.44-3.29-2.57-3.29-.89 0-1.7.34-2.35.86 0 2.45 0 7.27.1 7.68l1.7.79-.1.24c-.94 0-1.82-.05-2.76-.05-.79 0-1.58.05-2.38.05l.1-.24 1.3-.79c.1-.31.12-2.64.12-5.74s0-5.9-.1-8.81l-1.32-.62.07-.22c.7-.24 1.82-.48 3.34-.74-.05 2.52-.07 5.21-.07 7.83l.02.02c1.54-1.18 2.5-1.46 3.34-1.46 2.38 0 3.5 1.87 3.5 3.6v5.57zm4.9-4.23c-.05.17-.05.31-.05.48 0 2.9 1.75 4.61 3.96 4.61.29 0 .5-.05.74-.12.77-.6 1.49-1.13 1.94-1.37l.1.19c-.17.58-.96 1.49-1.27 1.7-.5.26-1.75.6-2.54.6-2.93 0-5.04-2.09-5.04-5.3 0-3.43 2.54-5.74 5.18-5.74 2.16 0 3.98 1.49 3.98 3.96 0 .31-.07.55-.24.67-.24.1-1.13.31-2.23.31h-4.54zm4.82-.67c.07-.12.14-.48.14-.82 0-1.32-.65-2.88-2.09-2.88-2.06 0-2.86 2.64-2.88 3.7h4.82zm13.47 6.24l-.12.26c-.86 0-1.7-.05-2.54-.05-.91 0-1.78.05-2.64.05l.1-.24 1.49-.82c.05-1.01.1-2.64.1-8.42 0-2.14 0-4.97-.1-6.14l-1.32-.62.14-.26c.67-.26 2.26-.53 3.26-.65-.05 2.54-.07 5.02-.07 7.58 0 4.8.05 6.7.07 8.52l1.63.79zm6.98-6.31c-.05-2.64-1.06-3.22-2.33-3.22-.48 0-1.1.19-1.54.43-.02.7-.1 1.73-.22 2.52l-.14.07c-.24-.07-1.27-1.2-1.54-1.97.55-.5 2.04-1.32 2.83-1.63.62-.26 1.18-.41 1.63-.41 2.42 0 3.22 2.09 3.22 3.7s-.05 3.7-.05 5.42c.6.82 1.39 1.18 1.9 1.34l-.1.22c-.22.14-.62.29-1.15.29-1.68 0-2.23-.77-2.45-1.37h-.05c-1.15 1.01-2.16 1.44-2.88 1.44-2.09 0-2.9-1.63-2.9-2.66s.38-1.61.91-1.87c.6-.43 3-1.27 4.87-1.73l-.02-.58zm-1.87 5.66c.5 0 1.18-.24 1.63-.72.14-.17.22-.31.22-.55l.05-3.24c-.98.26-2.42.77-3 1.15-.53.29-.77.62-.77 1.34 0 1.54 1.15 2.02 1.87 2.02zm15.24-9.36c-1.2 2.06-4.42 7.1-5.93 9.58v.02c1.73 0 4.25-.12 4.58-.19.62-.94 1.27-1.87 1.63-2.26l.19-.05c-.05.65-.34 2.57-.5 3.24-1.25 0-2.86-.12-4.92-.12h-3.65l-.05-.14c1.87-2.71 4.06-6.24 6.22-9.6v-.05c-.48 0-1.58 0-4.25.12-.34.6-.91 1.66-1.2 2.04l-.19.05c-.07-.5-.17-2.59-.12-2.98l.07-.07 1.49.22h6.48l.14.19zm8.83-.26c.41 0 1.06.07 1.56.07.7 0 1.39-.07 1.85-.07l-.07.31c-.55.29-.98.58-1.39.89-1.2 2.62-2.88 7.08-5.28 12.74-.17.7-.38 1.75-.6 2.45-.1.07-.22.1-.48.1-.6 0-1.32-.38-1.49-.62.17-.34 1.27-1.66 1.92-2.42.26-.5 1.1-2.23 1.44-3.07-.19-.46-2.33-6.19-3.6-9.1-.36-.36-.72-.58-1.49-.98l.12-.29c.72.02 1.49.07 2.26.07.67 0 1.32-.05 1.99-.07l-.07.29-.72.72c.26.89 1.15 3.19 2.52 6.82h.05c1.01-2.52 2.02-5.38 2.47-6.77l-1.13-.77.14-.29zm18.62 9c.7.79 1.39 1.18 1.82 1.34l-.1.22c-.19.14-.6.24-1.08.24-.79 0-2.04-.36-2.45-1.37h-.02c-.48.34-1.92 1.37-2.88 1.37-2.18 0-5.02-1.66-5.02-5.26s3.12-5.78 5.81-5.78c.29 0 1.1.19 1.92.77l.05-.02c0-1.75-.02-3.55-.07-5.54l-1.34-.65.1-.19c.55-.22 1.73-.53 3.34-.74-.05 2.59-.07 5.06-.07 7.66v7.97zm-1.94-7.85c-.34-.22-1.08-.48-1.73-.48-2.38 0-3.94 2.18-3.94 4.56s1.54 4.32 3.75 4.32c.48 0 1.25-.19 1.92-.65v-7.75zm15.45 4.03c0 3.38-2.35 5.62-5.38 5.62-2.59 0-5.3-1.97-5.3-5.38 0-3.58 2.88-5.66 5.38-5.66 2.95 0 5.3 2.23 5.3 5.42zm-8.45-.02c0 2.35 1.18 5.06 3.31 5.06s2.9-2.69 2.9-4.82c0-2.26-1.03-5.09-3.1-5.09-2.21 0-3.12 2.69-3.12 4.85zm17.69-4.1l-.02.05c.38.36.94 1.32.94 2.5 0 2.28-1.9 3.77-4.13 3.77-.72 0-1.42-.17-1.97-.43-.41.41-.67.89-.67 1.1 0 .5.72 1.1 1.06 1.1.98-.12 3.46-.24 5.16 0 .6.07.96.24 1.37.6.36.31.77.96.77 1.8 0 1.34-.82 2.47-1.92 3.31-1.01.84-2.57 1.61-4.37 1.61-2.28 0-4.01-1.13-4.01-2.76 0-.26.12-.48.29-.67l2.11-2.21-.02-.05a3.16 3.16 0 0 1-1.03-.74c-.43-.36-.86-1.03-.86-1.46 0-.29.84-1.15 1.7-1.85-.94-.55-1.63-1.61-1.63-3.05 0-1.82 1.42-3.91 4.42-3.91.72 0 1.22.07 1.8.17.77.12 1.27.24 1.63.29l2.02-.91.05.17-.96 1.46-1.7.12zm-4.99 10.06c-.46.41-1.06 1.34-1.06 1.94 0 1.56 1.68 2.35 3.19 2.35 2.11 0 3.74-.86 3.74-2.88 0-.82-.55-1.39-1.3-1.54-.6-.1-1.18-.14-2.5-.14-1.54 0-1.85.17-2.09.26zm-.31-7.63c0 1.58.67 3.31 2.21 3.31 1.44 0 2.11-1.66 2.11-3.36 0-1.27-.62-3.12-2.16-3.12s-2.16 1.73-2.16 3.17zM6.48 448.12l-4.61-.19c-.24.6-1.08 2.04-1.3 2.33l-.1.05c-.1-.55 0-2.47.05-3.17l.07-.1c.34.1.89.22 1.25.36h11.42c.48-.02 1.27-.1 1.49-.31v-.62l1.85-.43.14.07c-.05 2.59-.07 5.23-.07 7.9h.05c1.49-1.18 2.47-1.49 3.29-1.49 2.35 0 3.46 1.8 3.46 3.6v5.62c0 .5.17.62.43.72l1.27.72-.07.1c-.98.02-2.42-.02-3.74-.19.12-.98.26-2.62.26-6.12 0-2.9-1.46-3.34-2.59-3.34-.89 0-1.75.34-2.35.91 0 2.45 0 7.44.12 7.8l1.66.84-.05.1c-.91-.02-1.82-.07-2.78-.07-.77 0-1.54.05-2.28.07l.05-.1 1.32-.84c.1-.29.12-2.74.12-5.83 0-2.52 0-5.02-.05-8.28-.26-.12-.91-.29-1.54-.29l-4.82.19v6.29c0 6.43.12 7.15.14 7.87l2.4.89-.02.1c-1.13-.02-2.26-.07-3.43-.07s-2.33.05-3.43.07l.05-.1 2.28-.89c.05-.82.07-1.44.07-7.1v-7.06zm21.67 9.19c-.05.17-.05.36-.05.53 0 3.05 1.8 4.78 4.06 4.78.26 0 .46-.02.7-.07.79-.65 1.49-1.18 1.92-1.42l.05.1c-.14.58-.89 1.46-1.18 1.66-.55.29-1.82.62-2.57.62-2.93 0-5.02-2.11-5.02-5.26 0-3.43 2.57-5.74 5.18-5.74 2.14 0 3.91 1.54 3.91 3.87 0 .34-.07.5-.24.62-.22.1-1.1.31-2.21.31h-4.56zm4.9-.55c.1-.12.17-.48.17-.86 0-1.22-.62-2.95-2.11-2.95-2.14 0-2.93 2.74-2.98 3.82h4.92zm17.76 3.27c0 2.64.02 6.24.02 7.92l1.99.87-.05.1c-1.01-.02-2.04-.07-3.05-.07-.86 0-1.78.05-2.64.07v-.1l1.75-.84c.05-2.3.05-4.22.12-5.59l-.05-.02c-.91.55-1.94 1.15-2.74 1.15-2.66 0-4.97-1.99-4.97-5.33 0-3.05 2.47-5.67 5.52-5.67.89 0 1.66.41 2.42 1.01.5-.41 1.73-.94 2.38-1.01l.05.05c-.12.62-.53 1.39-.77 1.82v5.64zm-1.85-6.07c-.26-.19-.91-.6-1.92-.6-2.11 0-3.82 2.04-3.82 4.66 0 2.78 1.82 4.44 3.74 4.44.65 0 1.42-.19 1.99-.6v-7.9zm4.08-.85l.1-.1c.55-.14 2.45-.36 3.29-.34-.12 1.08-.22 2.98-.22 7.1 0 .89.17 1.49.43 1.82.41.43 1.06.72 1.73.72.94 0 2.16-.7 2.66-1.49v-6.96c-.38-.22-.79-.41-1.63-.82l.1-.1c1.01-.17 2.66-.31 3.48-.29-.07 1.08-.07 2.74-.07 9.05.5.79 1.34 1.13 1.82 1.3l-.02.1c-.22.14-.72.29-1.22.29-.79 0-2.16-.17-2.42-1.87l-.05-.02c-.98 1.15-2.09 1.99-3.46 1.99-.77 0-1.7-.24-2.28-.82-.65-.62-.94-1.49-.94-2.66 0-1.75.05-4.32.05-6.22l-1.34-.7zm12.86.08c.38-.12 1.7-.53 3-.67v4.8c0 2.64.05 4.13.1 5.02l1.58.84-.07.1c-.82-.02-1.66-.07-2.59-.07-.74 0-1.51.05-2.4.07l.07-.1 1.37-.84c.05-1.22.1-3.19.1-5.06v-3.36l-1.25-.62.1-.1zm2.18-5.69c.26.1.77.7.96 1.1l-.05.17c-.17.34-.77.94-1.03 1.1l-.17.05c-.31-.22-.77-.77-.96-1.1l.05-.17c.29-.46.72-.91 1.06-1.13l.14-.02zm9.39 5.01c1.37 0 2.62.55 3 .87-.17.7-.5 1.8-.86 2.42l-.07.05c-.22-.43-.5-1.39-.79-2.66-.19-.1-.48-.14-.98-.14-2.9 0-4.2 2.4-4.2 4.85 0 2.71 1.73 4.8 4.27 4.8.24 0 .5-.02.67-.1.91-.82 1.58-1.27 1.99-1.49l.05.07c-.19.58-1.06 1.73-1.42 1.94-.41.14-1.49.38-2.21.38-2.18 0-5.42-1.37-5.42-5.4 0-3.79 3.07-5.59 5.98-5.59zm9.07 10.66l-.02.1c-.91-.02-1.8-.07-2.71-.07-.86 0-1.73.05-2.57.07l.05-.1 1.44-.84c.07-.34.12-1.7.12-5.45 0-3.07 0-6.14-.07-9.46l-1.3-.6.05-.1c.65-.19 1.94-.55 3.26-.74-.07 2.95-.07 5.81-.07 8.69 0 2.06.02 6.89.1 7.66l1.73.84zm5.69.41c-.86-.12-2.33-.48-3.05-1.13-.84-.77-2.81-3.05-4.03-4.7v-.12c.91-1.01 2.18-2.54 3.36-4.06l.5-1.06c1.18-.02 2.42.19 2.83.34l-.1.12c-.46.26-1.85.67-2.71 1.01-.7.7-1.18 1.22-2.35 2.57v.07c1.82 2.42 3.79 4.66 5.66 6.84l-.12.12zm6.31-9.36c0-2.21-.02-4.44-.07-6.82l-1.3-.55.05-.1c.65-.29 2.06-.67 3.26-.74-.05 2.74-.07 5.38-.07 7.61.62-.31 2.04-1.11 2.81-1.11 2.33 0 4.97 1.68 4.97 5.14 0 4.15-3.5 5.86-5.74 5.86-.46 0-1.61-.41-2.26-.7-.55.34-1.3.62-1.66.65v-9.24zm1.87 8.23c.29.1.94.24 1.56.24 2.52 0 4.18-2.14 4.18-4.75 0-2.4-1.39-4.39-3.84-4.39-.67 0-1.44.22-1.9.48v8.42zm9.46-9.14c.36-.17 2.04-.77 2.66-.79.12.34.26 1.61.24 2.5h.02c1.03-1.92 2.52-2.5 3.34-2.5.43 0 .74.12.96.29-.05.41-.36 1.61-.74 2.47l-.12.07c-.19-.29-.48-.84-.82-1.68-.07-.05-.14-.07-.34-.07-.82 0-1.63.86-2.26 2.28v6.53l2.26.77-.02.1c-.67-.02-1.92-.07-3.41-.07-.67 0-1.78.05-2.23.07v-.1l1.37-.79c.19-3.91.19-6.89.19-8.21l-1.2-.77.1-.1zm18.41 4.61c0 3.38-2.33 5.59-5.35 5.59-2.54 0-5.23-1.99-5.23-5.35 0-3.53 2.83-5.64 5.3-5.64 2.93 0 5.28 2.26 5.28 5.4zm-8.42-.02c0 2.4 1.22 5.21 3.36 5.21s2.93-2.76 2.93-4.97-1.03-5.18-3.12-5.18c-2.28 0-3.17 2.83-3.17 4.94zm13.29-5.02l-.82.89c.36 1.18 1.18 3.48 2.45 7.08h.05c.82-2.14 1.63-4.08 2.26-5.83l-.14-1.51c.19-.17.89-.58 1.44-.74l.1.05.22 1.82c.6 1.7 1.51 3.74 2.47 6.17h.05c.79-2.38 1.44-4.39 2.23-7.1l-1.06-.82.05-.1c.53 0 1.03.07 1.61.07s1.2-.07 1.78-.07l-.02.1c-.48.29-.96.58-1.46.89-.29.53-1.78 4.7-3.14 8.76-.19.36-.55.82-.74 1.08h-.12c-.82-2.09-2.26-5.64-2.98-7.39h-.02c-.96 2.3-1.49 3.48-2.57 6.26-.19.36-.58.91-.77 1.13h-.12c-.84-2.4-3.29-9.27-3.58-9.89-.43-.29-.84-.58-1.3-.84l.07-.1c.67 0 1.44.07 2.21.07.65 0 1.25-.07 1.9-.07l-.02.1zm14.81 1.22l-1.2-.6.05-.12c.38-.19 2.28-.82 3-.87l-.1 2.02h.05c1.75-1.49 2.71-2.02 3.77-2.02 2.26 0 3.07 1.87 3.07 3.55v5.88c0 .31.1.43.31.53l1.37.7-.07.1c-.43-.02-1.73-.07-2.62-.07-.62 0-1.32.05-1.82.07l.02-.1.77-.82c.1-.96.17-2.9.17-6.03 0-1.9-1.13-2.64-2.3-2.64s-2.16.91-2.62 1.34c0 1.92 0 6.94.12 7.32l1.22.82-.02.1c-.55-.05-1.54-.07-2.28-.07-.82 0-1.8.05-2.4.07l.05-.1 1.34-.82c.1-.31.12-2.79.12-5.88v-2.38zm15.69 9.07l1.46-.87c.05-.34.14-2.28.14-5.06v-3.67l-1.58-.29.34-.46h1.25c0-2.18.43-3.86 1.61-5.16 1.08-1.22 2.3-1.66 3.36-1.66.84 0 1.54.26 1.73.53-.19.58-.6 1.58-.86 2.02l-.12.05c-.22-.31-.65-1.15-.91-2.09-.1-.02-.14-.05-.29-.05-1.54 0-2.38 1.78-2.52 4.08-.05.91-.07 1.7-.07 2.28h2.95l-.36.46-2.59.29c-.02.55-.07 1.97-.07 3.5 0 3.6.02 4.87.12 5.23l2.09.87-.07.1c-1.01-.02-2.14-.07-3.26-.07-.79 0-1.58.05-2.4.07l.07-.1z" class="cls-2"/><path d="M180.77 457.92c0 3.38-2.33 5.59-5.35 5.59-2.54 0-5.23-1.99-5.23-5.35 0-3.53 2.83-5.64 5.3-5.64 2.93 0 5.28 2.26 5.28 5.4zm-8.42-.02c0 2.4 1.22 5.21 3.36 5.21s2.93-2.76 2.93-4.97-1.03-5.18-3.12-5.18c-2.28 0-3.17 2.83-3.17 4.94zm14.39-1.33h.05c.5-.91 1.15-2.06 1.44-2.76.05-.36.05-.65.02-1.03.38.05.72.07 1.03.07.7 0 1.42-.02 2.28-.07l-.02.1c-1.06.46-1.73.72-2.4 1.06-.74.98-1.15 1.63-2.14 3.14.82 1.54 2.11 3.79 2.57 4.51.29.46.53.7.79.82l1.66.72-.07.07c-.77 0-2.52.12-3.7.12-.41-.94-.91-1.94-2.33-4.56h-.05c-1.06 1.85-1.44 2.5-1.92 3.5.17.31.43.53.77.94l-.07.07c-.29-.02-.96-.07-1.44-.07-.77 0-1.54.05-2.18.07v-.1l1.42-.72c.38-.17.6-.34.82-.67.72-.96 1.18-1.66 2.38-3.58-1.49-2.69-2.18-3.96-2.57-4.51-.43-.24-1.01-.48-1.75-.82l.02-.1c.79.05 1.54.07 2.26.07.55 0 .96-.02 1.46-.07l-.05.7 1.73 3.1zm10.66-3.43c.65-.24 2.54-.62 3.14-.62v9.15c0 .89-.14 2.38-.98 3.96-1.13 2.11-2.11 3.07-2.88 3.65l-.34-.22-.02-.1c2.18-1.85 2.4-3.82 2.4-7.3 0-2.3 0-5.95-.12-7.8-.41-.22-.82-.43-1.25-.62l.05-.1zm2.35-5.64c.26.1.79.7.96 1.08l-.05.19c-.17.31-.74.91-1.03 1.08l-.14.05c-.34-.22-.79-.74-.98-1.1l.05-.17c.29-.43.72-.91 1.06-1.1l.14-.02zm2.88 5.61l.1-.1c.55-.14 2.45-.36 3.29-.34-.12 1.08-.22 2.98-.22 7.1 0 .89.17 1.49.43 1.82.41.43 1.06.72 1.73.72.94 0 2.16-.7 2.66-1.49v-6.96c-.38-.22-.79-.41-1.63-.82l.1-.1c1.01-.17 2.66-.31 3.48-.29-.07 1.08-.07 2.74-.07 9.05.5.79 1.34 1.13 1.82 1.3l-.02.1c-.22.14-.72.29-1.22.29-.79 0-2.16-.17-2.42-1.87l-.05-.02c-.98 1.15-2.09 1.99-3.46 1.99-.77 0-1.7-.24-2.28-.82-.65-.62-.94-1.49-.94-2.66 0-1.75.05-4.32.05-6.22l-1.34-.7zm14.04.92l-1.2-.53.05-.12c.5-.22 2.28-.82 3.02-.87l-.1 1.97.02.02c1.49-1.2 2.66-1.99 3.67-1.99 1.3 0 2.33.72 2.78 2.02 1.75-1.44 2.76-2.02 3.84-2.02 1.87 0 3.1 1.37 3.1 3.48v6.05c0 .14.17.31.46.48l1.15.65.02.1c-.89-.02-1.75-.07-2.62-.07-.7 0-1.46.05-2.06.07l.02-.1.98-.87c.1-.91.19-2.86.17-5.76 0-1.13-.34-2.81-2.23-2.81-.96 0-1.8.41-2.71 1.27.1.38.14 1.18.14 2.09v5.28l1.34.79-.07.1c-.62-.02-1.46-.07-2.21-.07s-1.56.05-2.21.07l.05-.1 1.13-.84c.07-1.49.1-3.82.1-5.95 0-1.15-.43-2.64-2.3-2.64-.77 0-1.75.58-2.47 1.18 0 3.12-.02 6.75.07 7.46l1.37.79-.02.1c-.5-.02-1.44-.07-2.5-.07-.72 0-1.7.05-2.23.07l.02-.1 1.32-.84c.07-.43.1-2.74.1-5.09v-3.22zm20.61.12h.05c1.63-1.1 2.59-1.63 3.38-1.63 1.85 0 4.42 1.58 4.42 4.97 0 4.22-3.5 6.03-5.78 6.03-.29 0-1.3-.41-1.92-.77l-.07.02c0 1.27.05 3.38.1 5.16l2.21.89-.1.1c-1.08-.02-2.16-.07-3.19-.07-.79 0-1.56.05-2.33.07l.05-.1 1.32-.82c.02-1.32.1-4.03.1-7.25v-6.77l-1.27-.74.1-.1c.36-.17 2.35-.65 3.02-.7l-.07 1.7zm.1 8.11c.41.21 1.08.43 1.82.43 1.99 0 3.89-1.66 3.89-4.85 0-2.11-1.22-4.2-3.41-4.2-.5 0-1.42.22-2.33.96l.02 7.66zm14.59-9.15c.41-.29.91-.55 1.22-.65l.12.1c-.07.65-.34 2.23-.55 2.69l-.1.07c-.34-.53-.7-1.42-.82-1.78-.14-.1-.53-.38-1.44-.38-1.22 0-1.94.89-1.94 1.8 0 .62.24 1.13 1.01 1.51.98.5 1.7.84 2.35 1.1 1.32.6 1.99 1.44 1.99 2.71 0 2.38-2.4 3.22-3.86 3.22-1.18 0-2.57-.5-3.36-1.06.05-.58.5-2.11.65-2.47l.1-.07c.31.6.82 2.35.98 2.86.29.12.82.22 1.44.22 1.18 0 2.33-.84 2.33-2.04 0-.65-.24-1.18-1.03-1.56-.55-.29-1.22-.65-2.14-1.06-1.2-.58-2.02-1.39-2.02-2.78 0-1.58 1.3-3.03 3.36-3.03.6 0 1.2.19 1.7.6zm18.43 4.81c0 3.38-2.33 5.59-5.35 5.59-2.54 0-5.23-1.99-5.23-5.35 0-3.53 2.83-5.64 5.3-5.64 2.93 0 5.28 2.26 5.28 5.4zm-8.42-.02c0 2.4 1.22 5.21 3.36 5.21s2.93-2.76 2.93-4.97-1.03-5.18-3.12-5.18c-2.28 0-3.17 2.83-3.17 4.94zm9.07-5.15c.53.05 1.18.07 2.23.07.5 0 1.06-.02 1.66-.07l-.02.1-.55.89c.48 1.51 1.39 3.74 2.76 7.27l.05.02c.55-1.39 1.08-2.83 2.57-7.2l-.6-.98.07-.1c.29.05.77.07 1.15.07.58 0 1.37-.02 1.73-.07l-.05.1c-.46.36-.94.7-1.39 1.03-.58 1.06-2.59 6.31-3.46 8.52-.19.41-.5.94-.74 1.2h-.17c-.22-.43-2.98-7.49-3.98-9.82-.43-.34-.86-.62-1.32-.94l.07-.1zm13.51 4.56c-.05.17-.05.36-.05.53 0 3.05 1.8 4.78 4.06 4.78.26 0 .46-.02.7-.07.79-.65 1.49-1.18 1.92-1.42l.05.1c-.14.58-.89 1.46-1.18 1.66-.55.29-1.82.62-2.57.62-2.93 0-5.02-2.11-5.02-5.26 0-3.43 2.57-5.74 5.18-5.74 2.14 0 3.91 1.54 3.91 3.87 0 .34-.07.5-.24.62-.22.1-1.1.31-2.21.31h-4.56zm4.9-.55c.1-.12.17-.48.17-.86 0-1.22-.62-2.95-2.11-2.95-2.14 0-2.93 2.74-2.98 3.82h4.92zm3.72-3.45c.36-.17 2.04-.77 2.66-.79.12.34.26 1.61.24 2.5h.02c1.03-1.92 2.52-2.5 3.34-2.5.43 0 .74.12.96.29-.05.41-.36 1.61-.74 2.47l-.12.07c-.19-.29-.48-.84-.82-1.68-.07-.05-.14-.07-.34-.07-.82 0-1.63.86-2.26 2.28v6.53l2.26.77-.02.1c-.67-.02-1.92-.07-3.41-.07-.67 0-1.78.05-2.23.07v-.1l1.37-.79c.19-3.91.19-6.89.19-8.21l-1.2-.77.1-.1zm19.34-.48l-.38.48-3.14.31v7.66c0 .31.24.65.36.77.26.19.62.36 1.2.36.82 0 1.46-.34 1.85-.6l.07.02-.05.38c-.48.74-1.44 1.3-2.64 1.3-.84 0-1.66-.38-2.16-.96-.38-.53-.5-1.06-.5-2.57v-6.36l-1.54-.31.34-.48h1.22c.1-.53.38-1.73.7-2.62.24-.38.91-.79 1.25-.79l-.1 3.41h3.53zm10.56 8.9c0 .5.17.62.43.72l1.27.72-.07.1c-.96.02-2.42-.02-3.74-.19.12-.98.26-2.62.26-6.12 0-2.9-1.46-3.34-2.57-3.34-.91 0-1.75.34-2.38.89 0 2.47 0 7.46.12 7.83l1.68.84-.05.1c-.94-.02-1.85-.07-2.78-.07-.79 0-1.54.05-2.3.07l.07-.1 1.3-.84c.1-.29.12-2.74.12-5.83s0-5.95-.07-9.02l-1.3-.65.05-.07c.67-.22 1.75-.48 3.24-.74-.05 2.69-.07 5.33-.07 7.97l.05.02c1.51-1.18 2.5-1.49 3.29-1.49 2.35 0 3.46 1.8 3.46 3.6v5.62zm4.71-4.42c-.05.17-.05.36-.05.53 0 3.05 1.8 4.78 4.06 4.78.26 0 .46-.02.7-.07.79-.65 1.49-1.18 1.92-1.42l.05.1c-.14.58-.89 1.46-1.18 1.66-.55.29-1.82.62-2.57.62-2.93 0-5.02-2.11-5.02-5.26 0-3.43 2.57-5.74 5.18-5.74 2.14 0 3.91 1.54 3.91 3.87 0 .34-.07.5-.24.62-.22.1-1.1.31-2.21.31h-4.56zm4.9-.55c.1-.12.17-.48.17-.86 0-1.22-.62-2.95-2.11-2.95-2.14 0-2.93 2.74-2.98 3.82h4.92zm12.83 6.41l-.07.1c-.84-.02-1.68-.07-2.54-.07s-1.73.05-2.57.07l.07-.1 1.49-.87c.05-1.06.1-2.74.1-8.5 0-2.11 0-5.21-.07-6.38l-1.3-.67.1-.1c.6-.26 2.21-.5 3.19-.65-.05 2.62-.07 5.16-.07 7.71 0 4.8.05 6.74.1 8.59l1.58.87zm6.79-6.41c-.1-2.74-1.03-3.34-2.35-3.34-.48 0-1.1.17-1.56.46-.02.67-.02 1.63-.14 2.54l-.07.05c-.22-.07-1.25-1.1-1.54-1.92.55-.5 2.09-1.32 2.76-1.61.65-.26 1.2-.43 1.61-.43 2.38 0 3.14 2.06 3.14 3.72 0 1.51-.05 3.67-.05 5.47.65.82 1.37 1.13 1.92 1.34l-.07.1c-.22.14-.62.26-1.1.26-1.68 0-2.28-.77-2.5-1.34h-.05c-1.18.98-2.14 1.44-2.86 1.44-2.04 0-2.81-1.63-2.81-2.59s.38-1.56.86-1.8c.48-.41 2.95-1.27 4.83-1.73l-.02-.62zm-1.9 5.69c.5 0 1.18-.24 1.68-.72.12-.17.19-.29.19-.53l.05-3.36c-.98.24-2.5.79-3.05 1.15-.48.29-.7.62-.7 1.37 0 1.58 1.13 2.09 1.82 2.09zm14.86-9.46c-1.18 2.09-4.34 7.13-5.91 9.7v.02c1.78 0 4.39-.12 4.73-.19.58-.86 1.25-1.87 1.61-2.26l.07-.05c-.02.58-.31 2.45-.46 3.1-1.25 0-2.86-.12-4.87-.12h-3.55l-.05-.1c1.87-2.74 4.01-6.26 6.19-9.72v-.05c-.5 0-1.66 0-4.39.12-.34.65-.91 1.7-1.18 2.06l-.1.02c-.07-.53-.17-2.5-.12-2.86l.07-.07 1.37.22h6.46l.12.17zm8.72-.24c.38 0 1.03.07 1.54.07.67 0 1.34-.07 1.75-.07l-.07.14c-.43.29-.86.55-1.32.84-1.37 3.02-2.9 7.22-5.42 13.13-.12.55-.36 1.68-.58 2.35-.07.05-.19.05-.46.05-.53 0-1.18-.29-1.34-.5.17-.29 1.3-1.68 1.82-2.33.24-.43 1.25-2.5 1.58-3.36-.19-.43-2.23-5.98-3.7-9.26-.38-.29-.77-.53-1.37-.94l.05-.12c.72.05 1.49.07 2.26.07.6 0 1.22-.02 1.82-.07l-.02.1-.67.82c.24.84 1.15 3.24 2.59 6.96h.05c1.03-2.62 2.06-5.5 2.52-6.91l-1.15-.84.12-.12zm17.97 9.1c.74.82 1.39 1.15 1.8 1.32l-.05.07c-.17.17-.58.26-1.03.26-.77 0-2.04-.36-2.45-1.39h-.05c-.48.36-1.94 1.39-2.83 1.39-2.28 0-5.02-1.71-5.02-5.21s3.02-5.79 5.81-5.79c.24 0 1.06.19 1.9.79l.05-.02c0-1.73-.02-3.72-.07-5.83l-1.27-.65.05-.05c.55-.22 1.63-.5 3.24-.74-.05 2.66-.07 5.23-.07 7.8v8.04zm-1.87-8.06c-.26-.17-1.01-.48-1.73-.48-2.45 0-3.98 2.28-3.98 4.68s1.54 4.39 3.77 4.39c.48 0 1.3-.22 1.94-.65v-7.94zm15.14 4.13c0 3.38-2.33 5.59-5.35 5.59-2.54 0-5.23-1.99-5.23-5.35 0-3.53 2.83-5.64 5.3-5.64 2.93 0 5.28 2.26 5.28 5.4zm-8.42-.02c0 2.4 1.22 5.21 3.36 5.21s2.93-2.76 2.93-4.97-1.03-5.18-3.12-5.18c-2.28 0-3.17 2.83-3.17 4.94zm17.33-4.16v.05c.41.38.96 1.44.96 2.59 0 2.33-1.87 3.79-4.06 3.79-.67 0-1.37-.17-1.92-.43-.41.43-.67.91-.67 1.18 0 .48.77 1.08 1.01 1.06.96-.1 3.46-.24 5.23.02.53.07.89.22 1.27.58.31.31.74.91.74 1.75 0 1.34-.82 2.4-1.85 3.26-1.01.86-2.59 1.68-4.39 1.68-2.21 0-3.94-1.1-3.94-2.76 0-.26.1-.43.29-.62l2.18-2.28-.02-.05c-.36-.17-.65-.34-1.03-.7-.41-.36-.86-1.03-.86-1.42 0-.29.79-1.1 1.68-1.85-.96-.55-1.68-1.63-1.68-3.12 0-1.78 1.32-3.96 4.37-3.96.7 0 1.22.07 1.78.17.79.12 1.27.24 1.56.29l1.99-.94.05.12-.98 1.44-1.7.14zm-4.92 10.18c-.5.43-1.03 1.34-1.03 1.94 0 1.61 1.68 2.45 3.24 2.45 2.18 0 3.77-.86 3.77-2.98 0-.87-.62-1.44-1.34-1.56-.6-.1-1.2-.14-2.52-.14-1.68 0-1.94.19-2.11.29zm-.29-7.68c0 1.71.7 3.53 2.23 3.53s2.11-1.82 2.11-3.6c0-1.25-.58-3.24-2.16-3.24s-2.18 1.85-2.18 3.31z" class="cls-2"/></svg>