<svg xmlns="http://www.w3.org/2000/svg" width="585.11" height="122.97" viewBox="0 0 585.11 122.97"><defs><style>.bbbe41e4-dc25-40f3-bfee-896edf7d082c,.e4fee772-b70e-45f2-af79-5e3dc9bcb90a{fill:none;stroke-miterlimit:10}.bbbe41e4-dc25-40f3-bfee-896edf7d082c{stroke:#2997ff}.e4fee772-b70e-45f2-af79-5e3dc9bcb90a{stroke:#b3b3b3}.b0c38e92-d672-413c-b84e-c996f9b3629b{fill:#2997ff}.ed71035d-fd7b-4fe6-96cd-8d362c628773{fill:#fff}</style></defs><g id="e80ce944-15ec-4309-83b1-2a6261a08abe"><g id="ac4a5557-679a-412b-87ae-f5fb4571b5fc"><path d="M.5 57.84v55.22h137.91M97.85 83.04v-25.2m97.35 25.2v-25.2m97.36 25.2v-25.2m97.35 25.2v-25.2m97.35 25.2v-25.2m97.35 0v55.22H446.7M8.61 83.04V67.85m8.12 15.19V67.85m8.11 15.19V67.85m8.11 15.19V67.85m8.11 15.19V67.85m8.12 15.19V67.85m8.11 15.19V67.85m8.11 15.19V67.85m8.11 15.19V67.85m8.12 15.19V67.85m8.11 15.19V67.85" class="bbbe41e4-dc25-40f3-bfee-896edf7d082c"/><path d="M105.96 83.04V67.85m8.12 15.19V67.85m8.11 15.19V67.85m8.11 15.19V67.85m8.12 15.19V67.85m8.11 15.19V67.85m8.11 15.19V67.85m8.11 15.19V67.85m8.12 15.19V67.85m8.11 15.19V67.85m8.11 15.19V67.85m16.23 15.19V67.85m8.11 15.19V67.85m8.11 15.19V67.85m8.11 15.19V67.85m8.12 15.19V67.85m8.11 15.19V67.85m8.11 15.19V67.85m8.12 15.19V67.85m8.11 15.19V67.85m8.11 15.19V67.85m8.11 15.19V67.85m16.23 15.19V67.85m8.11 15.19V67.85m8.11 15.19V67.85m8.12 15.19V67.85m8.11 15.19V67.85m8.11 15.19V67.85m8.12 15.19V67.85m8.11 15.19V67.85m8.11 15.19V67.85m8.11 15.19V67.85m8.12 15.19V67.85m16.22 15.19V67.85m8.11 15.19V67.85m8.12 15.19V67.85m8.11 15.19V67.85m8.11 15.19V67.85m8.11 15.19V67.85m8.12 15.19V67.85m8.11 15.19V67.85m8.11 15.19V67.85m8.12 15.19V67.85m8.11 15.19V67.85m16.22 15.19V67.85m8.12 15.19V67.85m8.11 15.19V67.85m8.11 15.19V67.85m8.11 15.19V67.85m8.12 15.19V67.85m8.11 15.19V67.85m8.11 15.19V67.85m8.11 15.19V67.85m8.12 15.19V67.85m8.11 15.19V67.85" class="e4fee772-b70e-45f2-af79-5e3dc9bcb90a"/><path d="M97.85 83.04v-25.2" class="bbbe41e4-dc25-40f3-bfee-896edf7d082c"/><path d="M8.52 20.29h-3V7.23L1.9 9.42.55 7.35l5.26-3.21h2.71zm12.7-11.9c0 2.73-1.56 4.73-6.56 9.48h6.92l-.34 2.42H11.18V18c5.53-5.62 6.87-7.13 6.87-9.41a2.18 2.18 0 0 0-2.33-2.36A3.84 3.84 0 0 0 12.6 8l-1.87-1.51A6.31 6.31 0 0 1 16 3.85c3.3 0 5.22 2.02 5.22 4.54zm19.53 5.52c0 3.89-1.8 6.74-5 6.74a4 4 0 0 1-3.2-1.39v5.93l-3.07.33V7.59h2.69l.17 1.57a4.59 4.59 0 0 1 3.72-1.93c3.3 0 4.69 2.62 4.69 6.68zm-3.21 0c0-3.22-.87-4.39-2.4-4.39a3.18 3.18 0 0 0-2.6 1.73V17a2.69 2.69 0 0 0 2.33 1.32c1.68-.02 2.67-1.32 2.67-4.39zm16.82.02c0 4-2.23 6.72-6 6.72s-6-2.54-6-6.72c0-4 2.23-6.7 6-6.7s6 2.55 6 6.7zm-8.71 0c0 3.05.93 4.39 2.73 4.39s2.74-1.36 2.74-4.39-.94-4.37-2.71-4.37-2.76 1.37-2.76 4.37zM60.22 3a1.94 1.94 0 0 1-3.87 0 1.94 1.94 0 0 1 3.87 0zm-.39 17.26h-3.07V7.59h3.07zm13.54-9.16v9.19H70.3v-8.71c0-1.58-.6-2-1.56-2s-1.92.74-2.67 1.92v8.83H63V7.59h2.66l.24 1.66a4.76 4.76 0 0 1 3.87-2c2.28-.02 3.6 1.42 3.6 3.85zm10.34 8.59a5.52 5.52 0 0 1-3.19 1c-2.5 0-3.82-1.44-3.82-4.15V9.8h-2V7.59h2v-2.8l3.08-.36v3.16h3l-.36 2.21h-2.64v6.63c0 1.25.4 1.75 1.34 1.75a2.94 2.94 0 0 0 1.51-.46z" class="b0c38e92-d672-413c-b84e-c996f9b3629b" transform="translate(-.01 -1.16)"/><path d="M93.53 8.75l-1.2 1.8a5.84 5.84 0 0 0-3.19-1c-1.23 0-1.92.51-1.92 1.28s.5 1.22 2.66 1.82c2.59.7 4.06 1.75 4.06 4 0 2.64-2.45 4-5.36 4a7.41 7.41 0 0 1-5.06-1.8l1.54-1.73a5.69 5.69 0 0 0 3.45 1.25c1.37 0 2.26-.57 2.26-1.53s-.51-1.4-2.88-2.07c-2.62-.72-3.77-2-3.77-3.84 0-2.11 1.94-3.7 4.9-3.7a7.13 7.13 0 0 1 4.51 1.52z" class="b0c38e92-d672-413c-b84e-c996f9b3629b" transform="translate(-.01 -1.16)"/><path d="M10.85 37.19c0 2.73-1.56 4.73-6.55 9.48h6.91l-.34 2.42H.82v-2.25c5.52-5.62 6.86-7.13 6.86-9.41a2.18 2.18 0 0 0-2.33-2.36 3.84 3.84 0 0 0-3.12 1.71L.36 35.29a6.32 6.32 0 0 1 5.23-2.64c3.34 0 5.26 2.02 5.26 4.54z" class="ed71035d-fd7b-4fe6-96cd-8d362c628773" transform="translate(-.01 -1.16)"/><path d="M19.7 49.09h-3V36l-3.6 2.18-1.34-2.07L17 32.94h2.7zm20.5-6.38c0 3.89-1.8 6.74-5 6.74a4 4 0 0 1-3.2-1.39V54l-3.07.33V36.39h2.69l.16 1.61a4.57 4.57 0 0 1 3.72-2c3.31 0 4.7 2.65 4.7 6.71zm-3.21 0c0-3.22-.87-4.39-2.41-4.39A3.17 3.17 0 0 0 32 40.07v5.71a2.69 2.69 0 0 0 2.33 1.32C36 47.1 37 45.8 37 42.73zm9.09-10.88A1.93 1.93 0 1 1 44.14 30a1.84 1.84 0 0 1 1.94 1.83zm-.38 17.26h-3.08v-12.7h3.08zm12.45-11.57l-1.37 1.85a4.06 4.06 0 0 0-2.56-.91c-1.78 0-2.86 1.29-2.86 4.34s1.13 4.2 2.86 4.2a4.39 4.39 0 0 0 2.56-1l1.37 2a6.28 6.28 0 0 1-4.1 1.46c-3.67 0-5.95-2.54-5.95-6.6S50.38 36 54 36a5.91 5.91 0 0 1 4.15 1.52zm11.95 9.84l-.64 2a2.86 2.86 0 0 1-2.81-1.84 4.37 4.37 0 0 1-3.82 1.89 3.76 3.76 0 0 1-4.08-3.91c0-2.76 2.07-4.25 5.76-4.25h1.61v-.72c0-1.65-.74-2.21-2.38-2.21a11.42 11.42 0 0 0-3.38.68l-.7-2a13.09 13.09 0 0 1 4.59-1c3.41 0 4.89 1.55 4.89 4.36v5.33c0 1.07.34 1.43.96 1.67zm-4-1.7v-2.57h-1.25c-2 0-3 .72-3 2.21a1.68 1.68 0 0 0 1.8 1.92 2.74 2.74 0 0 0 2.47-1.56zm88.14 59.25l-6 14.3-2.8-.91 5.61-13.18h-6.82v-2.37h10zm10.68 2.09c0 2.74-1.56 4.73-6.55 9.48h6.91l-.34 2.43h-10.05v-2.26c5.52-5.61 6.86-7.13 6.86-9.41a2.17 2.17 0 0 0-2.33-2.35 3.85 3.85 0 0 0-3.12 1.7l-1.87-1.48a6.32 6.32 0 0 1 5.23-2.64c3.34-.01 5.26 2 5.26 4.53zm19.54 5.51c0 3.89-1.8 6.75-5 6.75a4 4 0 0 1-3.19-1.39v5.92l-3.08.34V106.2h2.69l.17 1.56a4.61 4.61 0 0 1 3.72-1.92c3.29 0 4.69 2.62 4.69 6.67zm-3.22 0c0-3.22-.86-4.39-2.4-4.39a3.18 3.18 0 0 0-2.59 1.72v5.72a2.71 2.71 0 0 0 2.33 1.32c1.68.03 2.66-1.27 2.66-4.34zm16.82.03c0 4-2.23 6.72-6 6.72s-6-2.55-6-6.72c0-4 2.23-6.7 6-6.7s6 2.55 6 6.7zm-8.71 0c0 3 .94 4.39 2.74 4.39s2.73-1.37 2.73-4.39-.93-4.37-2.71-4.37-2.76 1.37-2.76 4.37zm14.57-10.9a1.94 1.94 0 1 1-1.92-1.87 1.85 1.85 0 0 1 1.92 1.87zm-.39 17.26h-3.07v-12.7h3.07zm13.54-9.19v9.19H214v-8.71c0-1.59-.6-2-1.56-2s-1.92.74-2.67 1.92v8.83h-3.07V106.2h2.67l.24 1.66a4.7 4.7 0 0 1 3.86-2c2.28-.02 3.6 1.42 3.6 3.85zm10.35 8.59a5.58 5.58 0 0 1-3.2 1c-2.49 0-3.81-1.44-3.81-4.15v-6.7h-2v-2.25h2v-2.81l3.07-.36v3.17h3l-.31 2.21h-2.64V115c0 1.25.41 1.76 1.34 1.76a3 3 0 0 0 1.51-.46z" class="b0c38e92-d672-413c-b84e-c996f9b3629b" transform="translate(-.01 -1.16)"/><path d="M237.23 107.35l-1.2 1.8a5.8 5.8 0 0 0-3.19-1c-1.23 0-1.92.51-1.92 1.27s.5 1.23 2.66 1.83c2.59.69 4.06 1.75 4.06 4 0 2.64-2.45 4-5.35 4a7.47 7.47 0 0 1-5.07-1.8l1.54-1.73a5.75 5.75 0 0 0 3.45 1.25c1.37 0 2.26-.58 2.26-1.54s-.5-1.39-2.88-2.06c-2.62-.72-3.77-2-3.77-3.84 0-2.11 2-3.7 4.9-3.7a7.18 7.18 0 0 1 4.51 1.52zm13.68-.04h9.63v2.42h-9.63zm0 4.84h9.63v2.45h-9.63zm34.7 1.25c0 3.39-2.25 5.86-5.52 5.86-4.12 0-5.83-3.19-5.83-7.83 0-5.4 2.52-9 6.63-9a6.32 6.32 0 0 1 3.53 1l-1.16 1.9a4.48 4.48 0 0 0-2.33-.65c-2 0-3.33 1.94-3.5 5.18a4.5 4.5 0 0 1 3.62-1.77c2.52.06 4.56 1.91 4.56 5.31zm-3.09 0c0-2.3-.84-3.07-2.21-3.07a3.68 3.68 0 0 0-2.86 1.65c.05 3.46.8 5 2.64 5 1.64.02 2.43-1.42 2.43-3.53zm22.08-.89c0 3.89-1.8 6.75-5 6.75a4 4 0 0 1-3.19-1.39v5.92l-3.07.34V106.2H296l.16 1.56a4.62 4.62 0 0 1 3.72-1.92c3.33 0 4.72 2.62 4.72 6.67zm-3.22 0c0-3.22-.86-4.39-2.4-4.39a3.18 3.18 0 0 0-2.59 1.72v5.72a2.71 2.71 0 0 0 2.33 1.32c1.68.03 2.66-1.27 2.66-4.34zm9.1-10.87a1.94 1.94 0 1 1-2-1.87 1.85 1.85 0 0 1 2 1.87zm-.39 17.26H307v-12.7h3.07zm12.46-11.57l-1.37 1.85a4 4 0 0 0-2.57-.91c-1.77 0-2.85 1.29-2.85 4.34s1.13 4.15 2.85 4.15a4.4 4.4 0 0 0 2.57-.91l1.37 1.94a6.23 6.23 0 0 1-4.1 1.47c-3.68 0-6-2.55-6-6.6s2.28-6.82 5.93-6.82a5.92 5.92 0 0 1 4.17 1.49zm11.95 9.84l-.65 2a2.85 2.85 0 0 1-2.8-1.85 4.36 4.36 0 0 1-3.82 1.9 3.76 3.76 0 0 1-4.08-3.91c0-2.76 2.06-4.25 5.76-4.25h1.61v-.72c0-1.66-.75-2.21-2.38-2.21a11.63 11.63 0 0 0-3.38.67l-.7-2.09a13.09 13.09 0 0 1 4.59-.91c3.4 0 4.89 1.56 4.89 4.37v5.33c0 1.07.34 1.43.96 1.67zm-4-1.7v-2.57h-1.27c-2 0-3 .72-3 2.21a1.68 1.68 0 0 0 1.8 1.92 2.76 2.76 0 0 0 2.49-1.56zm14.85-8.12l-1.2 1.8a5.8 5.8 0 0 0-3.19-1c-1.23 0-1.92.51-1.92 1.27s.5 1.23 2.66 1.83c2.59.69 4.06 1.75 4.06 4 0 2.64-2.45 4-5.35 4a7.47 7.47 0 0 1-5.07-1.8l1.54-1.73a5.75 5.75 0 0 0 3.45 1.25c1.37 0 2.26-.58 2.26-1.54s-.5-1.39-2.88-2.06c-2.62-.72-3.77-2-3.77-3.84 0-2.11 1.95-3.7 4.9-3.7a7.18 7.18 0 0 1 4.51 1.52zm13.65-.04h9.63v2.42H359zm0 4.84h9.63v2.45H359zm30.82 6.75h-3v-13.06L383.2 108l-1.35-2 5.26-3.21h2.71zm12.67-17.26a1.93 1.93 0 1 1-1.94-1.87 1.84 1.84 0 0 1 1.94 1.87zm-.38 17.26H399v-12.7h3.07zm13.54-9.19v9.19h-3.08v-8.71c0-1.59-.6-2-1.56-2s-1.92.74-2.66 1.92v8.83h-3.07V106.2h2.66l.24 1.66a4.73 4.73 0 0 1 3.87-2c2.28-.02 3.6 1.42 3.6 3.85zm12.35-2.38l-1.37 1.85a4 4 0 0 0-2.57-.91c-1.77 0-2.85 1.29-2.85 4.34s1.12 4.15 2.85 4.15a4.43 4.43 0 0 0 2.57-.91l1.37 1.94a6.24 6.24 0 0 1-4.11 1.47c-3.67 0-6-2.55-6-6.6s2.28-6.82 5.93-6.82a5.92 5.92 0 0 1 4.18 1.49zm12.08 2.38v9.19H437v-8.71c0-1.59-.63-2-1.56-2s-1.92.74-2.67 1.89v8.86h-3.07v-17.8l3.07-.31v6.88a4.59 4.59 0 0 1 3.7-1.87c2.26 0 3.61 1.47 3.61 3.87z" class="b0c38e92-d672-413c-b84e-c996f9b3629b" transform="translate(-.01 -1.16)"/></g></g></svg>