<svg xmlns="http://www.w3.org/2000/svg" id="Layer_1" viewBox="0 0 800 647.7" width="800" height="647.7"><style>.st0{fill:#2997ff}.st1{fill:#505050}.st2{fill:#999}.st3{fill:#fff}</style><circle cx="19.5" cy="19.5" r="19.5" class="st0"/><path d="M67.6 13.3h2.6v15.2h-2.6v-2.1c-.9 1.1-2.5 2.6-5.2 2.6-3.8 0-7.4-2.7-7.4-8.1 0-5.3 3.5-7.9 7.4-7.9 2.9 0 4.5 1.6 5.2 2.5v-2.2zm-9.9 7.6c0 3.3 1.8 5.7 5 5.7s5-2.7 5-5.7c0-3.9-2.7-5.7-5-5.7-2.7.1-5 2-5 5.7zm28.6 7.6h-2.6V1.8h2.6v13.6c1.8-2.2 4.1-2.5 5.2-2.5 4.7 0 7.4 3.9 7.4 8.1 0 4.2-2.7 7.9-7.3 7.9-2.5 0-4.2-1.1-5.3-2.6v2.2zm9.9-7.5c0-3.7-2.5-5.7-5-5.7s-5 2-5 5.7c0 3.1 2 5.7 5.1 5.7 3-.1 4.9-2.6 4.9-5.7zm27.2-3.4c-1.4-1.8-3.4-2.3-4.7-2.3-2.8 0-5.4 2-5.4 5.7s2.6 5.7 5.3 5.7c1.6 0 3.5-.7 4.9-2.4v3.1c-1.7 1.2-3.4 1.6-4.8 1.6-4.7 0-8.1-3.4-8.1-7.9 0-4.6 3.4-8.1 8.1-8.1 2.4 0 4 1 4.7 1.5v3.1zm24.2-15.8h2.6v26.7h-2.6v-2.1c-.9 1.1-2.5 2.6-5.2 2.6-3.8 0-7.4-2.7-7.4-8.1 0-5.3 3.5-7.9 7.4-7.9 2.9 0 4.5 1.6 5.2 2.5V1.8zm-9.8 19.1c0 3.3 1.8 5.7 5 5.7s5-2.7 5-5.7c0-3.9-2.7-5.7-5-5.7-2.7.1-5 2-5 5.7zm39.4 3.7c-.5.9-1.1 1.8-1.9 2.5-1.4 1.3-3.1 1.9-5 1.9-3.7 0-7.5-2.3-7.5-7.9 0-4.5 2.8-8.1 7.4-8.1 3 0 4.8 1.5 5.7 2.8 1 1.4 1.5 3.7 1.4 5.7h-11.8c.1 3.1 2.2 5.1 4.8 5.1 1.3 0 2.2-.3 3.1-1.1.7-.6 1.3-1.4 1.6-2.1l2.2 1.2zm-2.6-5.3c-.5-2.4-2.2-3.9-4.5-3.9-2.2 0-4.1 1.7-4.5 3.9h9zm18-3.5v12.7H190V15.8h-1.5v-2.4h1.5V6.7c0-1.4.1-3.1 1.5-4.3.7-.6 1.8-1 3-1 1 0 1.6.2 1.9.3v2.6c-.6-.2-1.1-.3-1.7-.3-.6 0-1.3.2-1.7.8-.3.6-.3 1.4-.3 2.2v6.3h3.7v2.4h-3.8v.1zm26.2-2.5h2.6v14.8c0 1.7 0 4-1.5 5.9-1.1 1.5-3.2 2.8-6.1 2.8-2.6 0-4.4-1-5.4-2.1-1-1-2-2.7-2-4.9h2.6c0 1.3.5 2.4 1.1 3.1 1.1 1.2 2.5 1.5 3.7 1.5 1.9 0 3.1-.7 4-2.1.7-1.3.9-2.6.9-3.9v-2.2c-.9 1.1-2.5 2.6-5.2 2.6-2.2 0-4-.9-5.2-2.1-1-1-2.2-2.9-2.2-6 0-3 1.1-4.8 2.2-5.9 1.3-1.3 3.1-2.1 5.2-2.1 2.2 0 4 1 5.2 2.5v-2.1l.1.2zm-8.3 3.4c-1.3 1.3-1.5 2.9-1.5 4.2 0 1.3.2 3.1 1.7 4.5.9.7 1.9 1.3 3.3 1.3s2.5-.5 3.3-1.3c1-1 1.7-2.6 1.7-4.4 0-1.8-.7-3.4-1.6-4.3-.9-.9-2.1-1.4-3.4-1.4-1.7 0-2.8.7-3.5 1.4zm24.4-14.9h2.6v13.3c.5-.6 1.8-2.1 4.3-2.1 1.8 0 3.4.7 4.3 2.1.7 1.1.9 2.4.9 4.1v9.4h-2.6v-9.3c0-.9-.1-2-.7-2.8-.5-.7-1.3-1.1-2.5-1.1-.9 0-1.9.2-2.7 1.1-1 1.2-1.1 3-1.1 4.1v7.9h-2.6l.1-26.7zM262 5.7c1 0 1.9.9 1.9 1.9s-.9 1.9-1.9 1.9-1.9-.9-1.9-1.9.9-1.9 1.9-1.9zm1.3 7.6v15.2h-2.6V13.3h2.6zm14.8-7.6c1 0 1.9.9 1.9 1.9s-.9 1.9-1.9 1.9-1.9-.9-1.9-1.9.9-1.9 1.9-1.9zm1.3 7.6v23.6h-2.6V13.3h2.6zm16.2-11.5V19l5.5-5.7h3.4l-6.5 6.5 7.7 8.7h-3.4l-6.1-6.9-.7.7v6.2h-2.6V1.8h2.7zm23.9 0v26.7h-2.6V1.8h2.6zM333 13.3h2.6v1.6c.9-1.3 2.2-2 3.8-2 2.7 0 3.8 1.9 4.1 2.5 1.5-2.3 3.5-2.5 4.6-2.5 4.5 0 4.9 3.8 4.9 5.9v9.7h-2.6v-9.2c0-1.7-.2-4-2.7-4-3 0-3.4 2.9-3.4 4.7v8.5h-2.6v-9c0-1.1.1-4.2-2.7-4.2-3 0-3.3 3.1-3.3 4.9v8.3H333V13.3zm33.6 0h2.6v1.8c.5-.6 1.8-2.1 4.3-2.1 1.8 0 3.4.7 4.3 2.1.7 1.1.9 2.4.9 4.1v9.4h-2.6v-9.3c0-.9-.1-2-.7-2.8-.5-.7-1.3-1.1-2.5-1.1-.9 0-1.9.2-2.7 1.1-1 1.2-1.1 3-1.1 4.1v7.9h-2.6l.1-15.2zm24.8 7.7c0-4.6 3.4-8 8.1-8s8.1 3.4 8.1 8-3.4 8-8.1 8-8.1-3.4-8.1-8zm2.7 0c0 3.7 2.6 5.7 5.3 5.7 2.7 0 5.3-1.9 5.3-5.7s-2.6-5.7-5.3-5.7-5.3 2-5.3 5.7zm28.6 15.9H420V13.3h2.6v2.1c1.8-2.2 4.1-2.5 5.2-2.5 4.7 0 7.4 3.9 7.4 8.1 0 4.2-2.7 7.9-7.3 7.9-2.5 0-4.2-1.1-5.3-2.6v10.6h.1zm9.9-15.9c0-3.7-2.5-5.7-5-5.7s-5 2-5 5.7c0 3.1 2 5.7 5.1 5.7 3-.1 4.9-2.6 4.9-5.7zm26.8-7.7h2.6v23.6h-2.6V26.4c-.9 1.1-2.5 2.6-5.2 2.6-3.8 0-7.4-2.7-7.4-8.1 0-5.3 3.5-7.9 7.4-7.9 2.9 0 4.5 1.6 5.2 2.5v-2.2zm-9.9 7.6c0 3.3 1.8 5.7 5 5.7s5-2.7 5-5.7c0-3.9-2.7-5.7-5-5.7-2.6.1-5 2-5 5.7zm26-7.6h2.6V15c.2-.4 1.4-2 3.4-2 .8 0 1.7.3 2.3.6l-1.3 2.4c-.6-.4-1.1-.5-1.5-.5-1.1 0-1.7.5-2.1 1-.5.6-.9 1.6-.9 4.1v8h-2.6l.1-15.3zm25.7 3.6c-.3-.9-1.1-1.5-2.1-1.5s-1.8.6-1.8 1.7.7 1.4 2.5 2.2c2.2.9 3.2 1.6 3.8 2.3.7.8.8 1.6.8 2.5 0 3.2-2.3 5-5.3 5-.6 0-4-.1-5.3-3.9l2.3-1c.3.8 1.1 2.5 3.1 2.5 1.7 0 2.5-1.3 2.5-2.4 0-1.4-1-1.9-2.5-2.5-1.8-.8-3-1.4-3.7-2.2-.6-.7-.7-1.5-.7-2.2 0-2.7 1.9-4.2 4.4-4.2.8 0 3 .2 4.2 2.7l-2.2 1zm17.8-1.1v12.7h-2.6V15.8h-1.6v-2.4h1.6V7.9h2.6v5.5h2.6v2.4H519zm16.3 6.4c0 1.1 0 2.3.7 3.3.4.5 1.2 1.1 2.7 1.1s2.3-.7 2.7-1.1c.7-1 .7-2.2.7-3.3v-8.9h2.6v9.1c0 1.9-.2 3.3-1.4 4.6-1.4 1.4-3.1 1.9-4.6 1.9-1.5 0-3.3-.5-4.6-1.9-1.2-1.3-1.4-2.7-1.4-4.6v-9.1h2.6v8.9zm23.6-8.9l4.5 10.2 4.5-10.2h2.9l-7.5 16.2-7.5-16.2h3.1zm24.1 0l4.5 10.3 4.7-11.5 4.7 11.5 4.5-10.3h2.9l-7.5 16.2-4.7-11.3-4.7 11.3-7.4-16.2h3zm37 7.1l-5.5-7.1h3.2l3.9 5.1 4-5.1h3.2l-5.5 7.1 6.3 8.1h-3.2l-4.8-6.2-4.8 6.2h-3.2l6.4-8.1zm25.7 6.7l-7-13.8h3l5.4 10.9 4.9-10.9h2.9l-11.1 23.6h-2.9l4.8-9.8zm23.6-1h10.5v2.4H664l11-12.7h-8.9v-2.4h14.1l-10.9 12.7zM70.5 103.8h-2.9v-2.4h-.1c-1.5 1.9-3.5 2.9-5.9 2.9-5 0-8.2-4.3-8.2-9 0-4.9 3.1-9.1 8.3-9.1 2.3 0 4.5 1.1 5.9 2.9h.1v-2.5h2.9v17.2zM56.3 95c0 3.4 2 6.6 5.7 6.6 3.8 0 5.7-3 5.7-6.5 0-3.4-2.2-6.2-5.8-6.2-3.4-.1-5.6 2.8-5.6 6.1zM87 73.6h2.9V89h.1c1.4-1.8 3.5-2.9 5.9-2.9 5.1 0 8.3 4.2 8.3 9.1 0 4.8-3.2 9.1-8.2 9.1-2.4 0-4.5-1-5.9-2.9H90v2.4h-3V73.6zM89.8 95c0 3.4 2 6.6 5.7 6.6 3.8 0 5.7-3 5.7-6.5 0-3.4-2.2-6.2-5.8-6.2-3.4-.1-5.6 2.8-5.6 6.1zm42.5-3.3c-1.4-1.7-3.1-2.9-5.4-2.9-3.5 0-6.1 2.9-6.1 6.3s2.3 6.3 5.9 6.3c2.5 0 4.2-1.1 5.6-3h.1v3.9c-1.7 1.1-3.4 1.8-5.4 1.8-5.2 0-9.1-3.9-9.1-9.1 0-5.1 4.1-9.1 9.2-9.1 1.9 0 3.8.6 5.3 1.7v4l-.1.1zm28.7 9.7c-1.5 1.9-3.7 2.9-6 2.9-5 0-8.2-4.3-8.2-9 0-4.9 3.1-9.1 8.3-9.1 2.3 0 4.5 1.1 5.9 2.9h.1V73.6h2.9v30.2h-3v-2.4zM149.8 95c0 3.4 2 6.6 5.7 6.6 3.8 0 5.7-3 5.7-6.5 0-3.4-2.2-6.2-5.8-6.2-3.5-.1-5.6 2.8-5.6 6.1zm32.3.8c.1 3.2 2.3 5.7 5.7 5.7 2.5 0 4.1-1.5 5.3-3.5l2.5 1.4c-1.7 3.1-4.4 4.8-7.9 4.8-5.1 0-8.4-3.9-8.4-8.9 0-5.1 3-9.3 8.3-9.3 5.5 0 8.5 4.6 8.2 9.7l-13.7.1zm10.4-2.5c-.4-2.5-2.5-4.5-5-4.5s-4.9 2-5.3 4.5h10.3zm21.5 10.5h-2.9V89.3h-1.6v-2.7h1.6v-6.9c0-1.4 0-3.2.7-4.5 1-1.5 2.7-2.2 4.4-2.2.7 0 1.4.2 2.1.3v3c-.7-.2-1.3-.4-2-.4-2.4 0-2.4 1.7-2.4 4.7v5.8h4.3v2.7h-4.3v14.5h.1zm33.7-.8c0 2.7 0 5.1-1.8 7.4-1.6 2.1-4.1 3-6.6 3-4.8 0-8.3-3-8.5-7.9h2.9c.1 3.2 2.3 5.2 5.5 5.2 4.5 0 5.5-3.3 5.5-7.2v-2.1h-.1c-1.4 1.8-3.7 2.9-5.9 2.9-5 0-8.2-4.2-8.2-9s3.2-9.1 8.3-9.1c2.4 0 4.5 1.1 5.8 2.9h.1v-2.5h2.9l.1 16.4zm-14.2-8c0 3.4 2 6.6 5.7 6.6 3.8 0 5.7-3 5.7-6.5 0-3.4-2.2-6.2-5.8-6.2-3.4-.1-5.6 2.8-5.6 6.1zm34.1-21.4v15l.1.1c1.2-1.7 2.8-2.6 4.9-2.6 4.7 0 5.8 3.4 5.8 7.5v10.2h-2.9V94c0-2.8-.2-5.3-3.6-5.3-4 0-4.3 3.7-4.3 6.8v8.2h-2.9V73.6h2.9zm31.7 6.5c0 1.1-1 2.1-2.1 2.1s-2.1-.9-2.1-2.1 1-2.1 2.1-2.1 2.1.9 2.1 2.1zm-.6 23.7h-2.9V86.5h2.9v17.3zm21.5-23.7c0 1.1-1 2.1-2.1 2.1s-2.1-.9-2.1-2.1 1-2.1 2.1-2.1 2.1.9 2.1 2.1zm-.7 33.3h-2.9V86.5h2.9v26.9zm20.2-20.5l6.2-6.3h3.9l-7.4 7.3 8.7 9.9h-3.9l-6.9-7.9-.7.7v7.1h-2.9V73.6h2.9v19.3h.1zm28.5 10.9h-2.9V73.6h2.9v30.2zm19.7-15.4c1-1.4 2.5-2.3 4.2-2.3 2 0 3.8 1.1 4.7 2.9 1-1.9 3.1-2.9 5.1-2.9 4.4 0 5.5 3.6 5.5 7.2v10.5h-2.9v-10c0-2.2-.2-5-3.1-5-3.4 0-3.7 3.3-3.7 5.8v9.1h-2.9v-9.8c0-2.1-.2-5.2-3.1-5.2-3.4 0-3.8 3.5-3.8 6.1v8.9H385V86.5h2.9v1.9zm39.3.3c1.3-1.7 2.9-2.6 5-2.6 4.7 0 5.8 3.4 5.8 7.5v10.2h-2.9v-9.7c0-2.8-.2-5.3-3.6-5.3-4 0-4.3 3.7-4.3 6.8v8.2h-2.9V86.6h2.9v2.1zm26.2 6.5c0-5 4-9.1 9-9.1s9 4.1 9 9.1-4 9-9 9-9-3.9-9-9zm2.9 0c0 3.5 2.5 6.3 6.1 6.3s6.1-2.9 6.1-6.3-2.5-6.3-6.1-6.3-6.1 2.8-6.1 6.3zm33.2-6.2c1.5-1.9 3.6-2.9 6-2.9 5 0 8.2 4.3 8.2 9.1 0 4.9-3.1 9-8.3 9-2.3 0-4.5-1-5.9-2.9h-.1v12.1h-2.9V86.5h2.9l.1 2.5zm-.1 6c0 3.4 2 6.6 5.7 6.6 3.8 0 5.7-3 5.7-6.5 0-3.4-2.2-6.2-5.8-6.2-3.5-.1-5.6 2.8-5.6 6.1zm45.4 18.4h-2.9v-12.1h-.1c-1.4 1.9-3.6 2.9-5.9 2.9-5.1 0-8.3-4.1-8.3-9 0-4.8 3.1-9.1 8.2-9.1 2.3 0 4.5 1 5.9 2.9h.1v-2.5h2.9v26.9h.1zM520.6 95c0 3.4 2 6.6 5.7 6.6 3.8 0 5.7-3 5.7-6.5 0-3.4-2.2-6.2-5.8-6.2-3.3-.1-5.6 2.8-5.6 6.1zm33.7-6.6c1.1-1.4 1.9-2.3 3.9-2.3 1 0 1.8.3 2.6.8l-1.4 2.7c-.6-.4-1-.7-1.8-.7-3.2 0-3.4 4.1-3.4 6.3v8.6h-2.9V86.5h2.9v1.9h.1zm27.7 2.1c-.4-.9-1.3-1.8-2.3-1.8-1 0-2.1.8-2.1 1.9 0 1.6 2 2.2 4 3 2 .9 4 2.1 4 4.9 0 3.3-2.6 5.6-5.8 5.6-2.9 0-5.1-1.7-6.1-4.3l2.6-1.1c.7 1.6 1.6 2.7 3.5 2.7 1.6 0 2.8-1.1 2.8-2.6 0-3.8-7.8-2.5-7.8-7.9 0-2.9 2.3-4.9 5.1-4.9 2 0 3.8 1.4 4.6 3.2l-2.5 1.3zm21.9 13.3H601V89.3h-1.8v-2.7h1.8v-6.2h2.9v6.2h3.1v2.7h-3.1v14.5zm19.8-7.7c0 2.9.3 5.4 3.9 5.4s3.9-2.5 3.9-5.4v-9.6h2.9v9.9c0 4.6-1.7 7.8-6.8 7.8s-6.8-3.2-6.8-7.8v-9.9h2.9v9.6zm32.9 2l5.1-11.5h3.3l-8.4 18.3-8.5-18.3h3.3l5.2 11.5zm28.3.1l5.3-13 5.4 13 5.1-11.7h3.3l-8.5 18.4-5.3-12.8-5.3 12.8-8.5-18.4h3.3l5.2 11.7zm31.6-11.6h3.6l4.5 5.8 4.5-5.8h3.7l-6.3 8.1 7.1 9.1h-3.5l-5.4-7-5.5 7h-3.7l7.3-9.1-6.3-8.1zm28.3 0h3.4l6.1 12.3 5.5-12.3h3.3l-12.7 26.9h-3.3l5.5-11.3-7.8-15.6zm47.8 14.5v2.7h-17.8l12.4-14.5h-10.1v-2.7h16l-12.3 14.5h11.8z"/><path d="M508.6 420h.5c7.1-9.8 16.5-15.2 29.1-15.2 28.2 0 34.8 20.4 34.8 44.3v60.6h-17.4v-57.6c0-16.5-1.3-31.3-21.5-31.3-23.9 0-25.4 22.2-25.4 40.4v48.4h-17.4v-102h17.4V420z" class="st0"/><path d="M46.6 374.4c0 6.3-5.1 11.3-11.3 11.3S24 380.8 24 374.4c0-6.1 5.1-11.3 11.3-11.3s11.3 5.2 11.3 11.3zm-3.3 179.8H27.5V409.3h15.8v144.9zm131.6-142.4h16.5V507h-16.5v-13.3c-5.5 7.1-15.8 16.1-32.6 16.1-24.1 0-46.3-17-46.3-50.4 0-32.8 22-49.7 46.3-49.7 18.3 0 28.2 10.1 32.6 15.8v-13.7zM113 459.3c0 20.4 11.5 35.8 31.2 35.8 20.2 0 31.7-16.7 31.7-35.6 0-24.5-17-35.3-31.7-35.3-16.3 0-31.2 12-31.2 35.1z" class="st1"/><path d="M192 507h-17v-13.7h-.4c-8.7 11-20.3 16.5-34.2 16.5-29.2 0-47.6-24.8-47.6-52.2 0-28.4 17.9-52.6 47.8-52.6 13.5 0 25.8 6.3 34 16.9h.4v-14.2h17V507zm-81.8-50.7c0 19.4 11.4 37.8 32.5 37.8 21.8 0 33.2-17.5 33.2-37.6 0-19.9-12.5-36-33.4-36-19.7.1-32.3 17.1-32.3 35.8zm-83-84.6c6 0 10.9 4.9 10.9 10.9s-4.9 10.9-10.9 10.9-10.9-4.9-10.9-10.9 4.9-10.9 10.9-10.9zm7.7 44.6v138.1H19.4V416.3h15.5z" class="st0"/><path d="M55.8 180.7H63v2.4h-7.1v8.1h-3.2v-18.9h11.7l-.3 2.4H56l-.2 6zm15.3 6.2c0 1.7.7 2.4 2.1 2.4 1.4 0 2.7-.9 3.4-2.1v-10.5h3.1v14.5H77l-.2-1.9c-1.1 1.4-2.9 2.2-4.6 2.2-2.8 0-4.2-1.6-4.2-4.3v-10.5h3.1v10.2zm21.3 4.7c-3.4 0-5.1-1.9-5.1-4.7V179H84v-2.2h3.2v-3.3l3.1-.3v3.6h4.9l-.3 2.2h-4.6v7.8c0 1.5.7 2.3 2.5 2.3 1 0 1.9-.3 2.7-.7l1.1 2.1c-1 .6-2.6 1.1-4.2 1.1zm11.6-4.7c0 1.7.7 2.4 2.1 2.4 1.4 0 2.7-.9 3.4-2.1v-10.5h3.1v14.5h-2.7l-.2-1.9c-1.1 1.4-2.9 2.2-4.6 2.2-2.8 0-4.2-1.6-4.2-4.3v-10.5h3.1v10.2zm25.9-10.2l-.5 5.4h-2.2v-3c-2.1.1-3.5 1.7-4.4 4.5v5.4h2.9v2.2h-8.1V189h2.1v-10.1h-2.1v-2.2h4.5l.6 3.4c1.1-2.4 2.6-3.7 5.1-3.7.8-.1 1.4.1 2.1.3zm16.2 12.8l-.7 2.1c-1.4-.2-2.5-.7-3-2-1.1 1.4-2.7 2-4.6 2-3 0-4.8-1.8-4.8-4.5 0-3 2.5-4.7 6.9-4.7h2.1v-.9c0-1.9-1.2-2.6-3.2-2.6-1 0-2.4.2-3.8.7l-.7-2.2c1.8-.7 3.6-1 5.1-1 3.9 0 5.8 1.8 5.8 4.9v6.5c-.2 1 .1 1.4.9 1.7zm-4.2-2.1v-3.2h-1.7c-2.9 0-4 1-4 2.7 0 1.5.8 2.3 2.5 2.3 1.2.1 2.6-.6 3.2-1.8zm30.6-2.9h-2.3v6.7H167v-18.9h5.3c4.8 0 7.6 1.9 7.6 5.9 0 4.4-3.1 6.3-7.4 6.3zm0-9.9h-2.3v7.4h2.3c2.4 0 4.1-.9 4.1-3.8-.1-2.5-1.7-3.6-4.1-3.6zm23 14.9l-.7 2.1c-1.4-.2-2.5-.7-3-2-1.1 1.4-2.7 2-4.6 2-3 0-4.8-1.8-4.8-4.5 0-3 2.5-4.7 6.9-4.7h2.1v-.9c0-1.9-1.2-2.6-3.2-2.6-1 0-2.4.2-3.8.7l-.7-2.2c1.8-.7 3.6-1 5.1-1 3.9 0 5.8 1.8 5.8 4.9v6.5c-.2 1 .1 1.4.9 1.7zm-4.2-2.1v-3.2h-1.7c-2.9 0-4 1-4 2.7 0 1.5.8 2.3 2.5 2.3 1.2.1 2.5-.6 3.2-1.8zm20.9-10.7l-.5 5.4h-2.2v-3c-2.1.1-3.5 1.7-4.4 4.5v5.4h2.9v2.2h-8.1V189h2.1v-10.1h-2.1v-2.2h4.5l.6 3.4c1.1-2.4 2.6-3.7 5.1-3.7.8-.1 1.5.1 2.1.3zm16.2 12.8l-.7 2.1c-1.4-.2-2.5-.7-3-2-1.1 1.4-2.7 2-4.6 2-3 0-4.8-1.8-4.8-4.5 0-3 2.5-4.7 6.9-4.7h2.1v-.9c0-1.9-1.2-2.6-3.2-2.6-1 0-2.4.2-3.8.7l-.7-2.2c1.8-.7 3.6-1 5.1-1 3.9 0 5.8 1.8 5.8 4.9v6.5c-.2 1 .1 1.4.9 1.7zm-4.1-2.1v-3.2h-1.7c-2.9 0-4 1-4 2.7 0 1.5.8 2.3 2.5 2.3 1.2.1 2.5-.6 3.2-1.8zm15.7 3.8h-3.2v-16.3h-5.7v-2.6h14.7l-.3 2.6H240v16.3zm16.8.1c-1.1 3.3-3 5.5-7.1 5.9l-.4-2.3c2.9-.5 3.9-1.5 4.6-3.6h-1l-4.9-14.5h3.3l3.7 12.3 3.7-12.3h3.1l-5 14.5zM278 184c0 4.4-1.9 7.6-5.6 7.6-1.5 0-2.7-.5-3.7-1.6v6.8l-3.1.3v-20.4h2.7l.2 1.9c1.1-1.5 2.6-2.2 4.2-2.2 3.8-.1 5.3 2.9 5.3 7.6zm-9.3-3.2v6.8c.7 1 1.7 1.6 2.9 1.6 2.1 0 3.2-1.6 3.2-5.2 0-3.7-1-5.3-2.9-5.3-1.5 0-2.5 1-3.2 2.1zm19.9 8.4c1.4 0 2.6-.5 3.8-1.3l1.3 1.9c-1.4 1.1-3.3 1.8-5.3 1.8-4.5 0-7-3.1-7-7.6 0-4.3 2.5-7.6 6.6-7.6 3.8 0 6.2 2.7 6.2 7.3 0 .5 0 1-.1 1.4h-9.6c.3 2.8 2 4.1 4.1 4.1zm-4-6.3h6.7c-.1-2.7-1.2-4.2-3.3-4.2-1.8-.1-3.2 1.2-3.4 4.2zM57 224.5c-3.1 0-5.4-1-7-2.5l1.8-1.9c1.4 1.3 3 2 5.2 2 2.1 0 3.9-1 3.9-3 0-1.7-.9-2.5-3.9-3.4-4.1-1.2-6.1-2.7-6.1-5.6 0-3.1 2.7-5.1 6.5-5.1 2.7 0 4.7.8 6.3 2.3l-1.7 1.9c-1.4-1.1-2.9-1.7-4.5-1.7-1.9 0-3.4.8-3.4 2.5 0 1.5 1 2.2 4.4 3.1 3.2 1 5.6 2.3 5.6 5.9.1 3.1-2.5 5.5-7.1 5.5zm17.5-2.4c1.4 0 2.6-.5 3.8-1.3l1.3 1.9c-1.4 1.1-3.3 1.8-5.3 1.8-4.5 0-7-3.1-7-7.6 0-4.3 2.5-7.6 6.6-7.6 3.8 0 6.2 2.7 6.2 7.3 0 .5 0 1-.1 1.4h-9.6c.4 2.8 2.1 4.1 4.1 4.1zm-3.9-6.3h6.7c-.1-2.7-1.2-4.2-3.3-4.2-1.9 0-3.2 1.3-3.4 4.2zm21.8 8.7c-3.4 0-5.1-1.9-5.1-4.7V212H84v-2.2h3.2v-3.3l3.1-.3v3.6h4.9l-.3 2.2h-4.6v7.8c0 1.5.7 2.3 2.5 2.3 1 0 1.9-.3 2.7-.7l1.1 2.1c-1 .5-2.6 1-4.2 1zm38.8-8.3c0 6.9-.7 10.5-4.1 10.5-2.2 0-3.2-2.2-3.3-3.9h-.1c-.6 1.3-1.7 2.6-3.8 2.6-3.1 0-4.2-2.7-4.2-6.3 0-4.7 1.9-7.2 5.5-7.2 1.3 0 2.6.3 4.1 1.1v8.2c0 2.6.7 3.3 1.6 3.3 1.4 0 1.5-3.1 1.5-8.2 0-5.4-.9-9.2-5.7-9.2-1.9 0-3.9.6-6.2 2.5l-1.5-1.7c2.5-2.2 5-3.1 7.7-3.1 7 0 8.5 5.3 8.5 11.4zm-12.7 2.9c0 2.6.5 4.2 1.9 4.2 1.7 0 2.1-1.4 2.3-2.2v-6.7c-.5-.2-.9-.3-1.5-.3-2.1-.1-2.7 1.5-2.7 5zm44.1-1.4c0 4.1-2.6 6.7-6.2 6.7-4.7 0-6.6-3.8-6.6-9.1 0-6.3 2.8-10.5 7.5-10.5 1.5 0 2.8.5 3.9 1.1l-1.2 2c-.8-.5-1.8-.8-2.7-.8-2.6 0-4.2 2.6-4.3 6.7 1.2-1.5 2.7-2.2 4.3-2.2 2.9.1 5.3 2.1 5.3 6.1zm-3.1.1c0-2.9-1.1-3.9-2.9-3.9-1.5 0-2.8.9-3.7 2.2.1 4.1 1 6 3.4 6 2.2 0 3.2-1.7 3.2-4.3zm19.6 2h-2.2v4.3h-3v-4.3h-7.8v-2.1l5.4-12.8 2.6 1-4.8 11.5h4.7l.3-5h2.6v5h2.2v2.4zm16.6-2.9c0 4.4-1.9 7.6-5.6 7.6-1.5 0-2.7-.5-3.7-1.6v6.8l-3.1.3v-20.4h2.7l.2 1.9c1.1-1.5 2.6-2.2 4.2-2.2 3.8 0 5.3 2.9 5.3 7.6zm-9.3-3.2v6.8c.7 1 1.7 1.6 2.9 1.6 2.1 0 3.2-1.6 3.2-5.2 0-3.7-1-5.3-2.9-5.3-1.4 0-2.5 1-3.2 2.1zm21.2 10.8c-3.4 0-5.1-1.9-5.1-4.7V212h-3.2v-2.2h3.2v-3.3l3.1-.3v3.6h4.9l-.3 2.2h-4.6v7.8c0 1.5.7 2.3 2.5 2.3 1 0 1.9-.3 2.7-.7l1.1 2.1c-1.1.5-2.6 1-4.3 1zM12.7 609.1c-3.1 0-5.4-1-7-2.5l1.8-1.9c1.4 1.3 3 2 5.2 2 2.1 0 3.9-1 3.9-3 0-1.7-.9-2.5-3.9-3.4-4.1-1.2-6.1-2.7-6.1-5.6 0-3.1 2.7-5.1 6.5-5.1 2.7 0 4.7.8 6.3 2.3l-1.7 1.9c-1.4-1.1-2.9-1.7-4.5-1.7-1.9 0-3.4.8-3.4 2.5 0 1.5 1 2.2 4.4 3.1 3.2 1 5.6 2.3 5.6 5.9.2 3.2-2.5 5.5-7.1 5.5zm19-2.5h3.9v2.2H24.4v-2.2h4.3v-10h-4.2v-2.2h7.3v12.2zm-.1-17.4c0 1.1-.8 1.9-2 1.9s-2-.8-2-1.9.8-1.9 2-1.9c1.2-.1 2 .7 2 1.9zm20.2 17.1l-.3 2.5H40.4v-2.2l7.7-9.8H41v-2.5h10.7v2.2l-7.7 9.8h7.8zm11.5.5c1.4 0 2.6-.5 3.8-1.3l1.3 1.9c-1.4 1.1-3.3 1.8-5.3 1.8-4.5 0-7-3.1-7-7.6 0-4.3 2.5-7.6 6.6-7.6 3.8 0 6.2 2.7 6.2 7.3 0 .5 0 1-.1 1.4h-9.6c.3 2.8 2 4.1 4.1 4.1zm-4-6.4H66c-.1-2.7-1.2-4.2-3.3-4.2-1.9 0-3.3 1.3-3.4 4.2zm42.6 6.7l-.7 2.1c-1.4-.2-2.5-.7-3-2-1.1 1.4-2.7 2-4.6 2-3 0-4.8-1.8-4.8-4.5 0-3 2.5-4.7 6.9-4.7h2.1v-1c0-1.9-1.2-2.6-3.2-2.6-1 0-2.4.2-3.8.7l-.7-2.2c1.8-.7 3.6-1 5.1-1 3.9 0 5.8 1.8 5.8 4.9v6.5c-.2 1.1.1 1.5.9 1.8zm-4.2-2.1v-3.2H96c-2.9 0-4 1-4 2.7 0 1.5.8 2.3 2.5 2.3 1.2.1 2.5-.6 3.2-1.8zm20-16.5v20.3H115l-.2-1.8c-1 1.4-2.3 2.1-4.1 2.1-3.7 0-5.5-3-5.5-7.6 0-4.4 2.2-7.6 5.7-7.6 1.5 0 2.7.6 3.7 1.6v-7.4l3.1.4zm-9.1 13.1c0 3.7 1.1 5.3 3 5.3 1.4 0 2.4-.9 3.1-2.1v-6.9c-.7-1-1.7-1.6-2.9-1.6-2 0-3.2 1.6-3.2 5.3zm24.1 4.2c0 5.4-3.4 7.8-9.6 9l-.5-2.3c4.3-.8 7-2.4 7-6.4v-9.4h-5.7v-2.2h8.8v11.3zm-.4-16.6c0 1.1-.8 1.9-2 1.9s-2-.8-2-1.9.8-1.9 2-1.9c1.2-.1 2 .7 2 1.9zm9.9 15.2c0 1.7.7 2.4 2.1 2.4s2.7-.9 3.4-2.1v-10.5h3.1v14.5H148l-.2-1.9c-1.1 1.4-2.9 2.2-4.6 2.2-2.8 0-4.2-1.6-4.2-4.3v-10.5h3.1v10.2zm21.7.5c0-1.2-.5-1.7-3.4-2.5-2.9-.7-4.8-1.8-4.8-4.3s2.2-4.2 5.8-4.2c2.5 0 4.2.7 5.5 1.7l-1.3 1.9c-1.1-.7-2.4-1.3-4.1-1.3-2 0-2.7.6-2.7 1.6 0 1.1.8 1.5 3.7 2.3 2.8.7 4.7 1.8 4.7 4.5 0 3.1-3.1 4.5-6.4 4.5-2.7 0-4.6-.9-5.9-2.1l1.6-1.9c1.1.9 2.6 1.5 4.3 1.5 1.8.2 3-.5 3-1.7zm16 4.2c-3.4 0-5.1-1.9-5.1-4.7v-7.8h-3.2v-2.2h3.2v-3.3l3.1-.3v3.6h4.9l-.3 2.2h-4.6v7.8c0 1.5.7 2.3 2.5 2.3 1 0 1.9-.3 2.7-.7l1.1 2.1c-1.2.6-2.7 1-4.3 1zm15.1-2.3c1.4 0 2.6-.5 3.8-1.3l1.3 1.9c-1.4 1.1-3.3 1.8-5.3 1.8-4.5 0-7-3.1-7-7.6 0-4.3 2.5-7.6 6.6-7.6 3.8 0 6.2 2.7 6.2 7.3 0 .5 0 1-.1 1.4h-9.6c.3 2.8 2 4.1 4.1 4.1zm-4-6.4h6.7c-.1-2.7-1.2-4.2-3.3-4.2-1.9 0-3.2 1.3-3.4 4.2zm25.5-11.9v20.3h-2.7l-.2-1.8c-1 1.4-2.3 2.1-4.1 2.1-3.7 0-5.5-3-5.5-7.6 0-4.4 2.2-7.6 5.7-7.6 1.5 0 2.7.6 3.7 1.6v-7.4l3.1.4zm-9.2 13.1c0 3.7 1.1 5.3 3 5.3 1.4 0 2.4-.9 3.1-2.1v-6.9c-.7-1-1.7-1.6-2.9-1.6-2 0-3.2 1.6-3.2 5.3zm38.4 7.5c-3.4 0-5.1-1.9-5.1-4.7v-7.8h-3.2v-2.2h3.2v-3.3l3.1-.3v3.6h4.9l-.3 2.2h-4.6v7.8c0 1.5.7 2.3 2.5 2.3 1 0 1.9-.3 2.7-.7l1.1 2.1c-1.1.6-2.7 1-4.3 1zm21-7.6c0 4.6-2.3 7.6-6.6 7.6s-6.6-2.9-6.6-7.6c0-4.5 2.3-7.6 6.6-7.6s6.6 3 6.6 7.6zm-9.9.1c0 3.6 1.1 5.3 3.3 5.3s3.3-1.7 3.3-5.3c0-3.5-1.1-5.2-3.3-5.2-2.2-.1-3.3 1.6-3.3 5.2zm38.8 3.3c0-1.2-.5-1.7-3.4-2.5-2.9-.7-4.8-1.8-4.8-4.3s2.2-4.2 5.8-4.2c2.5 0 4.2.7 5.5 1.7l-1.3 1.9c-1.1-.7-2.4-1.3-4.1-1.3-2 0-2.7.6-2.7 1.6 0 1.1.8 1.5 3.7 2.3 2.8.7 4.7 1.8 4.7 4.5 0 3.1-3.1 4.5-6.4 4.5-2.7 0-4.6-.9-5.9-2.1l1.6-1.9c1.1.9 2.6 1.5 4.3 1.5 1.8.2 3-.5 3-1.7zm11.2-8.8c1.2-1.4 2.8-2.2 4.5-2.2 2.7 0 4.1 1.6 4.1 4.3v10.6h-3.1v-10.1c0-1.7-.6-2.4-2.1-2.4-1.4 0-2.6 1-3.4 2.1v10.3h-3.1v-20.3l3.1-.3v8zm25.7 5.4c0 4.6-2.3 7.6-6.6 7.6-4.2 0-6.6-2.9-6.6-7.6 0-4.5 2.3-7.6 6.6-7.6s6.6 3 6.6 7.6zm-9.9.1c0 3.6 1.1 5.3 3.3 5.3 2.2 0 3.3-1.7 3.3-5.3 0-3.5-1.1-5.2-3.3-5.2-2.1-.1-3.3 1.6-3.3 5.2zm21.5 7.2l-1.7-10.3-1.8 10.3h-3.8l-2.5-14.5h3l1.5 12.6 2.1-10.7h3.1l1.9 10.7 1.5-12.6h2.9l-2.3 14.5h-3.9zM20.4 627.9c-1.1.4-2.5.5-4.2.5 1.7.8 2.6 1.9 2.6 3.7 0 2.8-2.2 4.9-5.7 4.9-.8 0-1.4-.1-2-.2-.4.3-.6.7-.6 1.2 0 .6.3 1.1 1.8 1.1h2.5c3.1 0 5.3 1.7 5.3 4.1 0 2.9-2.6 4.6-7.3 4.6-5 0-6.5-1.5-6.5-4.5H9c0 1.5.7 2.2 3.7 2.2s4.1-.7 4.1-2.1c0-1.2-1.1-1.8-2.8-1.8h-2.5c-2.7 0-3.9-1.3-3.9-2.8 0-1 .6-1.9 1.6-2.6-1.7-.9-2.5-2.2-2.5-4.1 0-3 2.5-5.1 6.1-5.1 3.5 0 5-.6 6.7-1.4l.9 2.3zM9.9 632c0 1.8 1 3 3 3 1.8 0 2.8-1.1 2.8-3.1 0-1.9-.9-2.9-2.8-2.9-2 0-3 1.2-3 3zm20.3 5.8c0 1.4.9 1.8 2.2 1.8.8 0 1.5-.2 2.3-.5l.7 2.1c-.9.5-2.1.8-3.7.8-2.9 0-4.6-1.7-4.6-4.6v-13.8h-4.3v-2.2h7.4v16.4zm17.8 4c-1.1 3.3-3 5.5-7.1 5.9l-.4-2.3c2.9-.5 3.9-1.5 4.6-3.6h-1l-4.9-14.5h3.3l3.7 12.3 3.7-12.3H53l-5 14.5zm21.1-7.3c0 4.4-1.9 7.6-5.6 7.6-1.5 0-2.7-.5-3.7-1.6v6.8l-3.1.3v-20.4h2.7l.2 1.9c1.1-1.5 2.6-2.2 4.2-2.2 3.8 0 5.3 2.9 5.3 7.6zm-9.3-3.2v6.8c.7 1 1.7 1.6 2.9 1.6 2.1 0 3.2-1.6 3.2-5.2 0-3.7-1-5.3-2.9-5.3-1.4 0-2.5 1-3.2 2.1zm16.5-2.3c1.2-1.4 2.8-2.2 4.5-2.2 2.7 0 4.1 1.6 4.1 4.3v10.6h-3.1v-10.1c0-1.7-.6-2.4-2.1-2.4-1.4 0-2.6 1-3.4 2.1v10.3h-3.1v-20.3l3.1-.3v8zm41.4-7.6v20.3H115l-.2-1.8c-1 1.4-2.3 2.1-4.1 2.1-3.7 0-5.5-3-5.5-7.6 0-4.4 2.2-7.6 5.7-7.6 1.5 0 2.7.6 3.7 1.6V621l3.1.4zm-9.1 13.1c0 3.7 1.1 5.3 3 5.3 1.4 0 2.4-.9 3.1-2.1v-6.9c-.7-1-1.7-1.6-2.9-1.6-2 0-3.2 1.7-3.2 5.3zm21.9 5h3.9v2.2h-11.3v-2.2h4.3v-10h-4.2v-2.2h7.3v12.2zm-.1-17.4c0 1.1-.8 1.9-2 1.9s-2-.8-2-1.9c0-1.1.8-1.9 2-1.9 1.2-.1 2 .8 2 1.9zm21.8-.2l-.9 2.1c-1-.4-2.1-.6-3.1-.6-1.9 0-2.8.7-2.8 2.2v2.6h4.9l-.3 2.3h-4.5v11.1h-3.1v-11.1H139v-2.3h3.3v-2.6c0-2.7 2.2-4.6 5.5-4.6 1.9.1 3.2.4 4.4.9zm16.5 0l-.9 2.1c-1-.4-2.1-.6-3.1-.6-1.9 0-2.8.7-2.8 2.2v2.6h4.9l-.3 2.3H162v11.1h-3.1v-11.1h-3.3v-2.3h3.3v-2.6c0-2.7 2.2-4.6 5.5-4.6 1.7.1 3.1.4 4.3.9zm9.8 17.8c1.4 0 2.6-.5 3.8-1.3l1.3 1.9c-1.4 1.1-3.3 1.8-5.3 1.8-4.5 0-7-3.1-7-7.6 0-4.3 2.5-7.6 6.6-7.6 3.8 0 6.2 2.7 6.2 7.3 0 .5 0 1-.1 1.4h-9.6c.3 2.9 2 4.1 4.1 4.1zm-4-6.3h6.7c-.1-2.7-1.2-4.2-3.3-4.2-1.8-.1-3.2 1.3-3.4 4.2zm26.4-6.1l-.5 5.4h-2.2v-3c-2.1.1-3.5 1.7-4.4 4.5v5.4h2.9v2.2h-8.1v-2.2h2.1v-10.1h-2.1v-2.2h4.5l.6 3.4c1.1-2.4 2.6-3.7 5.1-3.7.8-.1 1.4 0 2.1.3zm10.5 12.4c1.4 0 2.6-.5 3.8-1.3l1.3 1.9c-1.4 1.1-3.3 1.8-5.3 1.8-4.5 0-7-3.1-7-7.6 0-4.3 2.5-7.6 6.6-7.6 3.8 0 6.2 2.7 6.2 7.3 0 .5 0 1-.1 1.4h-9.6c.4 2.9 2 4.1 4.1 4.1zm-4-6.3h6.7c-.1-2.7-1.2-4.2-3.3-4.2-1.8-.1-3.2 1.3-3.4 4.2zm14-6.1h2.7l.2 1.9c1.2-1.5 2.9-2.3 4.7-2.3 2.7 0 4.1 1.6 4.1 4.3v10.6H230v-9c0-2.5-.3-3.5-2.1-3.5-1.4 0-2.6 1-3.4 2.1v10.4h-3.1v-14.5zm27 11l1.4 2c-1.3 1.1-3.1 1.8-5.1 1.8-4.5 0-7-3-7-7.5 0-4.4 2.6-7.7 7.1-7.7 2 0 3.6.6 5 1.8l-1.4 1.9c-1.1-.7-2.3-1.2-3.5-1.2-2.3 0-3.9 1.6-3.9 5.3 0 3.6 1.7 5 3.9 5 1.3-.2 2.4-.7 3.5-1.4zm12.4 1.4c1.4 0 2.6-.5 3.8-1.3l1.3 1.9c-1.4 1.1-3.3 1.8-5.3 1.8-4.5 0-7-3.1-7-7.6 0-4.3 2.5-7.6 6.6-7.6 3.8 0 6.2 2.7 6.2 7.3 0 .5 0 1-.1 1.4h-9.6c.4 2.9 2 4.1 4.1 4.1zm-4-6.3h6.7c-.1-2.7-1.2-4.2-3.3-4.2-1.8-.1-3.2 1.3-3.4 4.2zm22.4 4.4c0-1.2-.5-1.7-3.4-2.5-2.9-.7-4.8-1.8-4.8-4.3s2.2-4.2 5.8-4.2c2.5 0 4.2.7 5.5 1.7l-1.3 1.9c-1.1-.7-2.4-1.3-4.1-1.3-2 0-2.7.6-2.7 1.6 0 1.1.8 1.5 3.7 2.3 2.8.7 4.7 1.8 4.7 4.5 0 3.1-3.1 4.5-6.4 4.5-2.7 0-4.6-.9-5.9-2.1l1.6-1.9c1.1.9 2.6 1.5 4.3 1.5 1.8.3 3-.5 3-1.7zm201.1-29h-5.5v-18.9h5.2c3.5 0 6.9 1.1 6.9 4.8 0 2.3-1.7 3.7-3.5 4.1 2.1.3 4.3 1.4 4.3 4.6 0 4.2-3.7 5.4-7.4 5.4zm-.1-16.5h-2.3v5.5h2.5c2.1 0 3.2-.8 3.2-2.8 0-2-1.3-2.7-3.4-2.7zm.4 7.8h-2.7v6.2h2.6c1.8 0 3.8-.5 3.8-3s-1.6-3.2-3.7-3.2zm23.2 1.4c0 4.6-2.3 7.6-6.6 7.6s-6.6-2.9-6.6-7.6c0-4.5 2.3-7.6 6.6-7.6s6.6 3 6.6 7.6zm-9.9.1c0 3.6 1.1 5.3 3.3 5.3s3.3-1.7 3.3-5.3c0-3.5-1.1-5.2-3.3-5.2-2.2-.1-3.3 1.6-3.3 5.2zm21.8 7.5c-3.4 0-5.1-1.9-5.1-4.7v-7.8h-3.2v-2.2h3.2v-3.3l3.1-.3v3.6h4.9l-.3 2.2h-4.6v7.8c0 1.5.7 2.3 2.5 2.3 1 0 1.9-.3 2.7-.7l1.1 2.1c-1.1.6-2.6 1-4.3 1zm11.7-13c1.2-1.4 2.8-2.2 4.5-2.2 2.7 0 4.1 1.6 4.1 4.3v10.6h-3.1v-10.1c0-1.7-.6-2.4-2.1-2.4-1.4 0-2.6 1-3.4 2.1v10.3h-3.1v-20.3l3.1-.3v8zm38.2 8.8c0-1.2-.5-1.7-3.4-2.5-2.9-.7-4.8-1.8-4.8-4.3s2.2-4.2 5.8-4.2c2.5 0 4.2.7 5.5 1.7l-1.3 1.9c-1.1-.7-2.4-1.3-4.1-1.3-2 0-2.7.6-2.7 1.6 0 1.1.8 1.5 3.7 2.3 2.8.7 4.7 1.8 4.7 4.5 0 3.1-3.1 4.5-6.4 4.5-2.7 0-4.6-.9-5.9-2.1l1.6-1.9c1.1.9 2.6 1.5 4.3 1.5 1.8.2 3-.5 3-1.7zm14.6 1.9c1.4 0 2.6-.5 3.8-1.3l1.3 1.9c-1.4 1.1-3.3 1.8-5.3 1.8-4.5 0-7-3.1-7-7.6 0-4.3 2.5-7.6 6.6-7.6 3.8 0 6.2 2.7 6.2 7.3 0 .5 0 1-.1 1.4h-9.6c.3 2.8 2 4.1 4.1 4.1zm-3.9-6.4h6.7c-.1-2.7-1.2-4.2-3.3-4.2-1.9 0-3.3 1.3-3.4 4.2zm21.7 8.7c-3.4 0-5.1-1.9-5.1-4.7v-7.8h-3.2v-2.2h3.2v-3.3l3.1-.3v3.6h4.9l-.3 2.2H596v7.8c0 1.5.7 2.3 2.5 2.3 1 0 1.9-.3 2.7-.7l1.1 2.1c-1.1.6-2.6 1-4.3 1zm38.9-8.3c0 6.9-.7 10.5-4.1 10.5-2.2 0-3.2-2.2-3.3-3.9h-.1c-.6 1.3-1.7 2.6-3.8 2.6-3.1 0-4.2-2.7-4.2-6.3 0-4.7 1.9-7.2 5.5-7.2 1.3 0 2.6.3 4.1 1.1v8.2c0 2.6.7 3.3 1.6 3.3 1.4 0 1.5-3.1 1.5-8.2 0-5.4-.9-9.2-5.7-9.2-1.9 0-3.9.6-6.2 2.5l-1.5-1.7c2.5-2.2 5-3.1 7.7-3.1 7 .1 8.5 5.4 8.5 11.4zm-12.7 3c0 2.6.5 4.2 1.9 4.2 1.7 0 2.1-1.4 2.3-2.2v-6.7c-.5-.2-.9-.3-1.5-.3-2.1-.1-2.7 1.5-2.7 5zm40.2 1.1c0-1.2-.5-1.7-3.4-2.5-2.9-.7-4.8-1.8-4.8-4.3s2.2-4.2 5.8-4.2c2.5 0 4.2.7 5.5 1.7l-1.3 1.9c-1.1-.7-2.4-1.3-4.1-1.3-2 0-2.7.6-2.7 1.6 0 1.1.8 1.5 3.7 2.3 2.8.7 4.7 1.8 4.7 4.5 0 3.1-3.1 4.5-6.4 4.5-2.7 0-4.6-.9-5.9-2.1l1.6-1.9c1.1.9 2.6 1.5 4.3 1.5 1.8.2 3-.5 3-1.7zm20.3 2.2l-.7 2.1c-1.4-.2-2.5-.7-3-2-1.1 1.4-2.7 2-4.6 2-3 0-4.8-1.8-4.8-4.5 0-3 2.5-4.7 6.9-4.7h2.1v-1c0-1.9-1.2-2.6-3.2-2.6-1 0-2.4.2-3.8.7l-.7-2.2c1.8-.7 3.6-1 5.1-1 3.9 0 5.8 1.8 5.8 4.9v6.5c-.2 1.1.1 1.5.9 1.8zm-4.2-2.1v-3.2h-1.7c-2.9 0-4 1-4 2.7 0 1.5.8 2.3 2.5 2.3 1.2.1 2.5-.6 3.2-1.8zm21.4-7v10.7h-2.7v-10.3c0-1.5-.1-2.1-1-2.1-.7 0-1.4.4-2.1 1.4v11h-2.5v-10.3c0-1.5-.1-2.1-1-2.1-.7 0-1.4.4-2.1 1.4v11h-2.7v-14.5h2.3l.2 1.5c.8-1.1 1.7-1.9 3.1-1.9 1.1 0 2.1.5 2.5 1.8.8-1.1 1.8-1.8 3.2-1.8 1.5.1 2.8 1 2.8 4.2zm10 8.8c1.4 0 2.6-.5 3.8-1.3l1.3 1.9c-1.4 1.1-3.3 1.8-5.3 1.8-4.5 0-7-3.1-7-7.6 0-4.3 2.5-7.6 6.6-7.6 3.8 0 6.2 2.7 6.2 7.3 0 .5 0 1-.1 1.4H708c.1 2.8 1.9 4.1 3.9 4.1zm-3.9-6.4h6.7c-.1-2.7-1.2-4.2-3.3-4.2-1.9 0-3.3 1.3-3.4 4.2zm38.7 4.5c0-1.2-.5-1.7-3.4-2.5-2.9-.7-4.8-1.8-4.8-4.3s2.2-4.2 5.8-4.2c2.5 0 4.2.7 5.5 1.7l-1.3 1.9c-1.1-.7-2.4-1.3-4.1-1.3-2 0-2.7.6-2.7 1.6 0 1.1.8 1.5 3.7 2.3 2.8.7 4.7 1.8 4.7 4.5 0 3.1-3.1 4.5-6.4 4.5-2.7 0-4.6-.9-5.9-2.1l1.6-1.9c1.1.9 2.6 1.5 4.3 1.5 1.8.2 3-.5 3-1.7zm16 1.7h3.9v2.2h-11.3v-2.2h4.3v-10h-4.2v-2.2h7.3v12.2zm-.1-17.4c0 1.1-.8 1.9-2 1.9s-2-.8-2-1.9.8-1.9 2-1.9c1.2-.1 2 .7 2 1.9zm20.2 17.1l-.3 2.5h-11.1v-2.2l7.7-9.8H772v-2.5h10.7v2.2l-7.7 9.8h7.8zm11.4.5c1.4 0 2.6-.5 3.8-1.3l1.3 1.9c-1.4 1.1-3.3 1.8-5.3 1.8-4.5 0-7-3.1-7-7.6 0-4.3 2.5-7.6 6.6-7.6 3.8 0 6.2 2.7 6.2 7.3 0 .5 0 1-.1 1.4h-9.6c.4 2.8 2.1 4.1 4.1 4.1zm-3.9-6.4h6.7c-.1-2.7-1.2-4.2-3.3-4.2-1.9 0-3.2 1.3-3.4 4.2z" class="st2"/><path d="M26.8 26v3.5H13.7V26h4.9V13.8l-4.2 2.6-1.9-3.2L19 9.3h4V26h3.8z" class="st3"/><circle cx="19.5" cy="90.9" r="19.5" class="st0"/><path d="M25.8 85.9c0 3.3-2 5.9-8.2 11.4h8.6l-.5 3.5H12.3v-3.3C18.9 91 21 88.6 21 86.2c0-1.7-1-2.6-2.7-2.6-1.5 0-2.6.6-3.7 2.1l-2.8-2.1c1.5-2.1 3.6-3.5 6.9-3.5 4.7 0 7.1 2.7 7.1 5.8z" class="st3"/><circle cx="19.5" cy="182.4" r="9.8" class="st0"/><path d="M23.2 185.6v1.8h-6.6v-1.8h2.5v-6.1l-2.1 1.3-1-1.6 3.3-2h2.1v8.3l1.8.1z" class="st3"/><circle cx="354.9" cy="182.4" r="9.8" class="st0"/><path d="M358.1 179.8c0 1.7-1 3-4.1 5.7h4.3l-.2 1.8h-6.7v-1.7c3.3-3.2 4.3-4.4 4.3-5.6 0-.8-.5-1.3-1.4-1.3-.7 0-1.3.3-1.8 1l-1.4-1.1c.7-1 1.8-1.7 3.4-1.7 2.4.1 3.6 1.4 3.6 2.9z" class="st3"/><path d="M391.2 179.7h7.1v2.4h-7.1v8.1H388v-18.9h11.7l-.3 2.4h-8.1l-.1 6zm15.3 6.1c0 1.7.7 2.4 2.1 2.4 1.4 0 2.7-.9 3.4-2.1v-10.5h3.1v14.5h-2.7l-.2-1.9c-1.1 1.4-2.9 2.2-4.6 2.2-2.8 0-4.2-1.6-4.2-4.3v-10.5h3.1v10.2zm21.3 4.7c-3.4 0-5.1-1.9-5.1-4.7V178h-3.2v-2.2h3.2v-3.3l3.1-.3v3.6h4.9l-.3 2.2h-4.6v7.8c0 1.5.7 2.3 2.5 2.3 1 0 1.9-.3 2.7-.7l1.1 2.1c-1.2.6-2.7 1-4.3 1zm11.6-4.7c0 1.7.7 2.4 2.1 2.4 1.4 0 2.7-.9 3.4-2.1v-10.5h3.1v14.5h-2.7l-.2-1.9c-1.1 1.4-2.9 2.2-4.6 2.2-2.8 0-4.2-1.6-4.2-4.3v-10.5h3.1v10.2zm25.9-10.1l-.5 5.4h-2.2v-3c-2.1.1-3.5 1.7-4.4 4.5v5.4h2.9v2.2H453V188h2.1v-10.1H453v-2.2h4.5l.6 3.4c1.1-2.4 2.6-3.7 5.1-3.7.7-.1 1.4 0 2.1.3zm16.1 12.7l-.7 2.1c-1.4-.2-2.5-.7-3-2-1.1 1.4-2.7 2-4.6 2-3 0-4.8-1.8-4.8-4.5 0-3 2.5-4.7 6.9-4.7h2.1v-.9c0-1.9-1.2-2.6-3.2-2.6-1 0-2.4.2-3.8.7l-.7-2.2c1.8-.7 3.6-1 5.1-1 3.9 0 5.8 1.8 5.8 4.9v6.5c-.2 1 .2 1.5.9 1.7zm-4.1-2v-3.2h-1.7c-2.9 0-4 1-4 2.7 0 1.5.8 2.3 2.5 2.3 1.2 0 2.5-.6 3.2-1.8zm30.3 4.1c-3.1 0-5.4-1-7-2.5l1.8-1.9c1.4 1.3 3 2 5.2 2 2.1 0 3.9-1 3.9-3 0-1.7-.9-2.5-3.9-3.4-4.1-1.2-6.1-2.7-6.1-5.6 0-3.1 2.7-5.1 6.5-5.1 2.7 0 4.7.8 6.3 2.3l-1.7 1.9c-1.4-1.1-2.9-1.7-4.5-1.7-1.9 0-3.4.8-3.4 2.5 0 1.5 1 2.2 4.4 3.1 3.2 1 5.6 2.3 5.6 5.9.1 3.2-2.6 5.5-7.1 5.5zm18.9 0c-3.4 0-5.1-1.9-5.1-4.7V178h-3.2v-2.2h3.2v-3.3l3.1-.3v3.6h4.9l-.3 2.2h-4.6v7.8c0 1.5.7 2.3 2.5 2.3 1 0 1.9-.3 2.7-.7l1.1 2.1c-1.1.6-2.7 1-4.3 1zm20.8-2.1l-.7 2.1c-1.4-.2-2.5-.7-3-2-1.1 1.4-2.7 2-4.6 2-3 0-4.8-1.8-4.8-4.5 0-3 2.5-4.7 6.9-4.7h2.1v-.9c0-1.9-1.2-2.6-3.2-2.6-1 0-2.4.2-3.8.7l-.7-2.2c1.8-.7 3.6-1 5.1-1 3.9 0 5.8 1.8 5.8 4.9v6.5c-.2 1 .1 1.5.9 1.7zm-4.1-2v-3.2h-1.7c-2.9 0-4 1-4 2.7 0 1.5.8 2.3 2.5 2.3 1.2 0 2.4-.6 3.2-1.8zm8.4-10.7h2.7l.2 1.9c1.2-1.5 2.9-2.3 4.7-2.3 2.7 0 4.1 1.6 4.1 4.3v10.6h-3.1v-9c0-2.5-.3-3.5-2.1-3.5-1.4 0-2.6 1-3.4 2.1v10.4h-3.1v-14.5zm28-5.9v20.3h-2.7l-.2-1.8c-1 1.4-2.3 2.1-4.1 2.1-3.7 0-5.5-3-5.5-7.6 0-4.4 2.2-7.6 5.7-7.6 1.5 0 2.7.6 3.7 1.6v-7.4l3.1.4zm-9.2 13.1c0 3.7 1.1 5.3 3 5.3 1.4 0 2.4-.9 3.1-2.1v-6.9c-.7-1-1.7-1.6-2.9-1.6-2 0-3.2 1.7-3.2 5.3zm26.3 5.5l-.7 2.1c-1.4-.2-2.5-.7-3-2-1.1 1.4-2.7 2-4.6 2-3 0-4.8-1.8-4.8-4.5 0-3 2.5-4.7 6.9-4.7h2.1v-.9c0-1.9-1.2-2.6-3.2-2.6-1 0-2.4.2-3.8.7l-.7-2.2c1.8-.7 3.6-1 5.1-1 3.9 0 5.8 1.8 5.8 4.9v6.5c-.2 1 .1 1.5.9 1.7zm-4.1-2v-3.2h-1.7c-2.9 0-4 1-4 2.7 0 1.5.8 2.3 2.5 2.3 1.2 0 2.4-.6 3.2-1.8zm20.8-10.7l-.5 5.4h-2.2v-3c-2.1.1-3.5 1.7-4.4 4.5v5.4h2.9v2.2h-8.1V188h2.1v-10.1h-2.1v-2.2h4.5l.6 3.4c1.1-2.4 2.6-3.7 5.1-3.7.8-.1 1.5 0 2.1.3zm15.6-5.9v20.3h-2.7l-.2-1.8c-1 1.4-2.3 2.1-4.1 2.1-3.7 0-5.5-3-5.5-7.6 0-4.4 2.2-7.6 5.7-7.6 1.5 0 2.7.6 3.7 1.6v-7.4l3.1.4zm-9.2 13.1c0 3.7 1.1 5.3 3 5.3 1.4 0 2.4-.9 3.1-2.1v-6.9c-.7-1-1.7-1.6-2.9-1.6-2 0-3.2 1.7-3.2 5.3zm37.6-7.6c3.8 0 5.4 3 5.4 7.6 0 4.4-2.1 7.6-5.8 7.6-1.5 0-2.9-.6-3.8-1.8l-.2 1.4h-2.7v-20.3l3.1-.3v7.9c1-1.3 2.4-2.1 4-2.1zm2.1 7.6c0-3.7-1.1-5.3-3-5.3-1.4 0-2.4 1-3.1 2.1v6.8c.7 1 1.7 1.7 2.9 1.7 2 0 3.2-1.7 3.2-5.3zm15 7.3c-1.1 3.3-3 5.5-7.1 5.9l-.4-2.3c2.9-.5 3.9-1.5 4.6-3.6h-1l-4.9-14.5h3.3l3.7 12.3 3.7-12.3h3.1l-5 14.5zm27.6-4.6l-1.3 4.6h-3.3l6.1-18.9h3.9l6.1 18.9h-3.4l-1.3-4.6h-6.8zm6.1-2.5l-2.7-9.4-2.7 9.4h5.4zm19.6-13.3v20.3h-2.7l-.2-1.8c-1 1.4-2.3 2.1-4.1 2.1-3.7 0-5.5-3-5.5-7.6 0-4.4 2.2-7.6 5.7-7.6 1.5 0 2.7.6 3.7 1.6v-7.4l3.1.4zm-9.2 13.1c0 3.7 1.1 5.3 3 5.3 1.4 0 2.4-.9 3.1-2.1v-6.9c-.7-1-1.7-1.6-2.9-1.6-2 0-3.2 1.7-3.2 5.3zm26.4 0c0 4.6-2.3 7.6-6.6 7.6s-6.6-2.9-6.6-7.6c0-4.5 2.3-7.6 6.6-7.6s6.6 2.9 6.6 7.6zm-9.9 0c0 3.6 1.1 5.3 3.3 5.3s3.3-1.7 3.3-5.3c0-3.5-1.1-5.2-3.3-5.2-2.1 0-3.3 1.6-3.3 5.2zm21.1-7.6c3.8 0 5.4 3 5.4 7.6 0 4.4-2.1 7.6-5.8 7.6-1.5 0-2.9-.6-3.8-1.8l-.2 1.4h-2.7v-20.3l3.1-.3v7.9c1-1.3 2.4-2.1 4-2.1zm2.1 7.6c0-3.7-1.1-5.3-3-5.3-1.4 0-2.4 1-3.1 2.1v6.8c.7 1 1.7 1.7 2.9 1.7 2 0 3.2-1.7 3.2-5.3zm13.8 5.2c1.4 0 2.6-.5 3.8-1.3l1.3 1.9c-1.4 1.1-3.3 1.8-5.3 1.8-4.5 0-7-3.1-7-7.6 0-4.3 2.5-7.6 6.6-7.6 3.8 0 6.2 2.7 6.2 7.3 0 .5 0 1-.1 1.4H768c.3 2.9 2 4.1 4.1 4.1zm-4-6.3h6.7c-.1-2.7-1.2-4.2-3.3-4.2-1.8-.1-3.2 1.3-3.4 4.2zm-375.8 41.6c-3.1 0-5.4-1-7-2.5l1.8-1.9c1.4 1.3 3 2 5.2 2 2.1 0 3.9-1 3.9-3 0-1.7-.9-2.5-3.9-3.4-4.1-1.2-6.1-2.7-6.1-5.6 0-3.1 2.7-5.1 6.5-5.1 2.7 0 4.7.8 6.3 2.3l-1.7 1.9c-1.4-1.1-2.9-1.7-4.5-1.7-1.9 0-3.4.8-3.4 2.5 0 1.5 1 2.2 4.4 3.1 3.2 1 5.6 2.3 5.6 5.9.2 3.2-2.5 5.5-7.1 5.5zm17.6-2.3c1.4 0 2.6-.5 3.8-1.3l1.3 1.9c-1.4 1.1-3.3 1.8-5.3 1.8-4.5 0-7-3.1-7-7.6 0-4.3 2.5-7.6 6.6-7.6 3.8 0 6.2 2.7 6.2 7.3 0 .5 0 1-.1 1.4H406c.1 2.8 1.9 4.1 3.9 4.1zm-4-6.4h6.7c-.1-2.7-1.2-4.2-3.3-4.2-1.8 0-3.2 1.3-3.4 4.2zm21.9 8.7c-3.4 0-5.1-1.9-5.1-4.7v-7.8h-3.2v-2.2h3.2v-3.3l3.1-.3v3.6h4.9l-.3 2.2h-4.6v7.8c0 1.5.7 2.3 2.5 2.3 1 0 1.9-.3 2.7-.7l1.1 2.1c-1.2.6-2.7 1-4.3 1zm38.8-8.3c0 6.9-.7 10.5-4.1 10.5-2.2 0-3.2-2.2-3.3-3.9h-.1c-.6 1.3-1.7 2.6-3.8 2.6-3.1 0-4.2-2.7-4.2-6.3 0-4.7 1.9-7.2 5.5-7.2 1.3 0 2.6.3 4.1 1.1v8.2c0 2.6.7 3.3 1.6 3.3 1.4 0 1.5-3.1 1.5-8.2 0-5.4-.9-9.2-5.7-9.2-1.9 0-3.9.6-6.2 2.5l-1.5-1.7c2.5-2.2 5-3.1 7.7-3.1 6.9 0 8.5 5.3 8.5 11.4zm-12.7 3c0 2.6.5 4.2 1.9 4.2 1.7 0 2.1-1.4 2.3-2.2v-6.7c-.5-.2-.9-.3-1.5-.3-2.1-.2-2.7 1.4-2.7 5zm44.1-1.5c0 4.1-2.6 6.7-6.2 6.7-4.7 0-6.6-3.8-6.6-9.1 0-6.3 2.8-10.5 7.5-10.5 1.5 0 2.8.5 3.9 1.1l-1.2 2c-.8-.5-1.8-.8-2.7-.8-2.6 0-4.2 2.6-4.3 6.7 1.2-1.5 2.7-2.2 4.3-2.2 2.9.1 5.3 2.1 5.3 6.1zm-3.1.2c0-2.9-1.1-3.9-2.9-3.9-1.5 0-2.8.9-3.7 2.2.1 4.1 1 6 3.4 6 2.1 0 3.2-1.8 3.2-4.3zm19.6 1.9h-2.2v4.3h-3v-4.3h-7.8v-2.1l5.4-12.8 2.6 1-4.8 11.5h4.7l.3-5h2.6v5h2.2v2.4zm16.5-2.9c0 4.4-1.9 7.6-5.6 7.6-1.5 0-2.7-.5-3.7-1.6v6.8l-3.1.3v-20.4h2.7l.2 1.9c1.1-1.5 2.6-2.2 4.2-2.2 3.9 0 5.3 3 5.3 7.6zm-9.3-3.2v6.8c.7 1 1.7 1.6 2.9 1.6 2.1 0 3.2-1.6 3.2-5.2 0-3.7-1-5.3-2.9-5.3-1.4 0-2.5 1-3.2 2.1zm21.3 10.8c-3.4 0-5.1-1.9-5.1-4.7v-7.8h-3.2v-2.2h3.2v-3.3l3.1-.3v3.6h4.9l-.3 2.2H541v7.8c0 1.5.7 2.3 2.5 2.3 1 0 1.9-.3 2.7-.7l1.1 2.1c-1.2.6-2.7 1-4.3 1z" class="st2"/><path d="M504.4 419.6H520V430c2.8-3.7 10.9-12.6 25.8-12.6 10.6 0 20.4 4.3 25.8 12.4 4.6 6.7 5.2 14.1 5.2 24.1v55.8h-15.7v-55.4c0-5.4-.5-11.7-4.1-16.5-3-3.9-7.8-6.5-14.7-6.5-5.4 0-11.3 1.5-15.8 7-6.1 7.1-6.5 17.8-6.5 24.4v47.2h-15.7l.1-90.3z" class="st1"/></svg>