<svg xmlns="http://www.w3.org/2000/svg" id="Layer_1" viewBox="0 0 800 594.4" width="800" height="594.4"><style>.st0{fill:#b3b3b3}.st1{fill:#505050}.st2{fill:#2997ff}</style><path d="M11 10.4H1.4V7h23.3v3.4H15v26.5h-4V10.4zm19.9-5v13c1.1-1.9 3.1-3.7 6.8-3.7 3.5 0 7.3 1.9 7.3 8.4V37h-3.8V23.6c0-3.7-1.5-5.8-4.7-5.8-3.9 0-5.6 2.6-5.6 7.1v11.9h-3.8V5.4h3.8zm22 21.2c.1 4.4 2.3 7.6 6 7.6 3.4 0 4.6-1.8 5.3-3.4H68c-.8 2.8-3.2 6.5-9.2 6.5-6.8 0-9.6-5.6-9.6-11.2 0-6.5 3.3-11.6 9.9-11.6 7.1 0 9.3 5.6 9.3 10.3 0 .7 0 1.2-.1 1.8H52.9zM64.4 24c-.1-3.6-1.9-6.5-5.5-6.5-3.8 0-5.5 2.7-5.9 6.5h11.4zm32.2 9.8c-1.1 2.3-3.1 3.7-6.9 3.7-4.9 0-9-3.9-9-11.2s4.3-11.6 9.5-11.6c4 0 5.8 1.9 6.3 3.3-.1-.8.1-1.9.1-2.8h3.6c-.1 2.3-.1 4-.1 6v24.3h-3.7V33.8h.2zm-6 .4c4.7 0 6.1-3.3 6.1-8.3 0-5.1-1.2-8.1-5.9-8.1-4.1 0-6.2 3.4-6.2 8.2-.1 4.5 1.8 8.2 6 8.2zm32.7-3.7c0 2.1.1 5.1.1 6.3h-3.7c-.1-.6-.1-1.9-.2-3.3-1.1 2.4-3.1 3.8-6.5 3.8-3.7 0-7.2-1.9-7.2-8V15.1h3.7v13.5c0 2.8.9 5.5 4.5 5.5 4 0 5.5-2.3 5.5-7.7V15.1h3.8v15.4zm5.5-20.5V5.4h3.8V10h-3.8zm0 5.1h3.8v21.7h-3.8V15.1zm26.5 15.1c-.9 3.7-3.4 7.2-9 7.2-6 0-9.7-4.3-9.7-11.3 0-6.2 3.5-11.5 9.9-11.5 6.3 0 8.5 4.5 8.7 7.2h-3.7c-.5-2.2-1.9-4.1-5.1-4.1-3.8 0-6 3.3-6 8.2 0 5 2.1 8.3 5.9 8.3 2.7 0 4.3-1.5 5.2-4h3.8zm7.5-4.7c1.8-2.1 6.6-7.2 9.5-10.4h4.5l-8.2 8.5 9.1 13.3h-4.4L166 26.1l-3.3 3.1v7.7h-3.8V5.4h3.8l.1 20.1zm27-20.1h3.8v12.8c1-1.9 2.9-3.6 6.9-3.6 5.5 0 8.9 4.5 8.9 11 0 6.6-3.3 11.9-9.5 11.9-3.5 0-5.3-1.3-6.4-3.4 0 1.1-.1 2.3-.2 2.9h-3.6c.1-2.4.1-4.9.1-7.3V5.4zm9.8 12.4c-4.6 0-6.3 3.1-6.3 8.3 0 4.6 1.5 8.1 6 8.1 3.8 0 6.2-3.3 6.2-8.6 0-4.7-2.1-7.8-5.9-7.8zm13.8 3.2c0-3-.1-4.7-.1-5.9h3.7c.1.6.1 2.3.1 4.4 1.1-2.9 3.7-4.9 7.3-4.9v3.7c-4.5.1-7.3 2.5-7.3 8v10.6h-3.8l.1-15.9zm32.7 4.9c0 6.3-3.6 11.5-10.3 11.5-6.2 0-10-4.8-10-11.3 0-6.4 3.7-11.4 10.3-11.4 6-.1 10 4.4 10 11.2zm-16.5.1c0 4.8 2.4 8.3 6.3 8.3 4 0 6.2-3.3 6.2-8.2s-2.3-8.3-6.3-8.3-6.2 3.2-6.2 8.2zm22.1-10.9c2.7 10.2 4.2 16 4.6 18.3h.1c.4-2 1.9-7.5 5-18.3h3.7c3.4 12.3 4.4 15.9 4.7 17.8h.1c.6-2.3 1.4-5.6 4.8-17.8h3.8l-6.7 21.7h-4.1c-2.1-8-4.2-15.3-4.7-17.6-.4 2.4-2.3 9-4.7 17.6H254l-6.3-21.7h4zm29.4 5.5c0-1.9 0-3.8-.1-5.5h3.7c.1.6.2 2.9.2 3.6.8-1.9 2.6-4.1 6.8-4.1 4.1 0 7.3 2.5 7.3 8.3v14h-3.8V23.4c0-3.3-1.3-5.5-4.6-5.5-4.1 0-5.8 3.1-5.8 7.5V37H281V20.6h.1zm34.1 16.3V18.2h-3.5v-3h3.5v-2.6c0-4 1.5-7.6 6.3-7.6.8 0 1.9.1 2.4.3v3.2c-.5-.1-1.4-.2-1.9-.2-2.3 0-3.1 1.4-3.1 4.6v2.4h4.4v3H319V37c0-.1-3.8-.1-3.8-.1zm29.2-11c0 6.3-3.6 11.5-10.3 11.5-6.2 0-10-4.8-10-11.3 0-6.4 3.7-11.4 10.3-11.4 6.1-.1 10 4.4 10 11.2zM328 26c0 4.8 2.4 8.3 6.3 8.3 4 0 6.2-3.3 6.2-8.2s-2.3-8.3-6.3-8.3c-4-.1-6.2 3.2-6.2 8.2zm21.6-10.9c3.1 4.9 4.4 6.9 5.1 8.1h.1c1-1.4 2.8-4.2 5.3-8.1h4.2L357 25.5l7.4 11.3H360c-2.7-4.2-4.5-7.2-5.4-8.6h-.1c-.7 1.2-2.5 4.1-5.3 8.6H345l7.3-10.8-7.1-10.9h4.4zm31 0v22.5c0 6-1.4 8.2-6.2 8.2-.3 0-1.1-.1-1.5-.1v-3.2c.3.1.6.1.8.1 2.6 0 3-1.4 3-4.4V15.1h3.9zm-3.8-5.1V5.4h3.8V10h-3.8zm26.8 20.5c0 2.1.1 5.1.1 6.3H400c-.1-.6-.1-1.9-.2-3.3-1.1 2.4-3.1 3.8-6.5 3.8-3.7 0-7.2-1.9-7.2-8V15.1h3.7v13.5c0 2.8.9 5.5 4.5 5.5 4 0 5.5-2.3 5.5-7.7V15.1h3.8v15.4zm5.5-9.8c0-1.9 0-3.8-.1-5.6h3.6c.1.6.2 2.3.2 3.3 1-1.9 2.9-3.8 6.3-3.8 3.1 0 5.2 1.5 6 3.9 1.2-2 3.2-3.9 6.9-3.9 3.6 0 6.9 2.1 6.9 8v14.3h-3.7V23c0-2.5-.9-5.1-4.3-5.1-3.6 0-5.1 2.7-5.1 6.5v12.5h-3.7V23.1c0-2.8-.8-5.3-4.2-5.3-3.5 0-5.1 2.8-5.1 6.9v12.1h-3.7V20.7zm35.5 24.7v-25c0-1.8 0-3.7-.1-5.3h3.7c.1.7.1 2 .1 3.4 1.2-2.3 3.4-4 7.1-4 5 0 8.7 4.2 8.7 10.8 0 7.8-4.2 12-9.4 12-3.5 0-5.4-1.5-6.3-3.2v11.2l-3.8.1zm9.9-27.6c-4.5 0-6.3 2.8-6.3 8.1 0 5.1 1.5 8.2 6 8.2 4 0 6.1-3.3 6.1-8.6 0-4.6-2.1-7.7-5.8-7.7zm15.9 12.8c.6 2.4 2.4 3.8 5.3 3.8 3.2 0 4.4-1.4 4.4-3.3 0-2-1-3-5.1-4-6.2-1.5-7.5-3.4-7.5-6.4 0-3 2.3-6.1 7.8-6.1 5.6 0 8 3.3 8.2 6.3h-3.6c-.3-1.4-1.4-3.3-4.7-3.3-3 0-4 1.5-4 2.9 0 1.6.9 2.4 4.9 3.4 6.6 1.6 8 3.8 8 7 0 3.8-3 6.6-8.5 6.6-5.6 0-8.4-2.8-9-6.7 0-.1 3.8-.2 3.8-.2zm46.3-4.7c0 6.3-3.6 11.5-10.3 11.5-6.2 0-10-4.8-10-11.3 0-6.4 3.7-11.4 10.3-11.4 6.1-.1 10 4.4 10 11.2zm-16.4.1c0 4.8 2.4 8.3 6.3 8.3 4 0 6.2-3.3 6.2-8.2s-2.3-8.3-6.3-8.3c-4-.1-6.2 3.2-6.2 8.2zm21.8-10.9c2.9 8.9 5.1 15.5 5.8 18.2h.1c.5-2.4 2.8-8.9 6.1-18.2h3.8l-8 21.7h-4.2l-7.6-21.7h4zm20.6 11.5c.1 4.4 2.3 7.6 6 7.6 3.4 0 4.6-1.8 5.3-3.4h3.8c-.8 2.8-3.2 6.5-9.2 6.5-6.8 0-9.6-5.6-9.6-11.2 0-6.5 3.3-11.6 9.9-11.6 7.1 0 9.3 5.6 9.3 10.3 0 .7 0 1.2-.1 1.8h-15.4zm11.6-2.6c-.1-3.6-1.9-6.5-5.5-6.5-3.8 0-5.5 2.7-5.9 6.5h11.4zm7.8-3c0-3-.1-4.7-.1-5.9h3.7c.1.6.1 2.3.1 4.4 1.1-2.9 3.7-4.9 7.3-4.9v3.7c-4.5.1-7.3 2.5-7.3 8v10.6H562l.1-15.9c-.1 0 0 0 0 0zm21.4-5.9h3.8V8.7h3.7v6.4h4.8v3H591v12.8c0 2.1.5 3.2 2.5 3.2.5 0 1.3-.1 1.9-.2v2.8c-.9.3-2.2.4-3.3.4-3.4 0-4.9-1.8-4.9-5.4V18.2h-3.8c.1 0 .1-3.1.1-3.1zm19.3-9.7v13c1.1-1.9 3.1-3.7 6.8-3.7 3.5 0 7.3 1.9 7.3 8.4V37h-3.8V23.6c0-3.7-1.5-5.8-4.7-5.8-3.9 0-5.6 2.6-5.6 7.1v11.9H599V5.4h3.8zm21.8 21.2c.1 4.4 2.3 7.6 6 7.6 3.4 0 4.6-1.8 5.3-3.4h3.8c-.8 2.8-3.2 6.5-9.2 6.5-6.8 0-9.6-5.6-9.6-11.2 0-6.5 3.3-11.6 9.9-11.6 7.1 0 9.3 5.6 9.3 10.3 0 .7 0 1.2-.1 1.8h-15.4c0 .1 0 0 0 0zm11.7-2.6c-.1-3.6-1.9-6.5-5.5-6.5-3.8 0-5.5 2.7-5.9 6.5h11.4zM654 36.9V5.4h3.8v31.5H654zm25.3-4.8c0 2 .2 4.1.3 4.7H676c-.2-.5-.3-1.5-.3-2.8-.8 1.4-2.5 3.3-6.7 3.3-5.1 0-7.3-3.3-7.3-6.7 0-4.9 3.8-7.1 10.3-7.1h3.7v-1.9c0-1.9-.6-4.2-4.7-4.2-3.6 0-4.2 1.8-4.6 3.5h-3.7c.3-3 2.1-6.4 8.4-6.4 5.3 0 8.3 2.2 8.3 7.1l-.1 10.5zm-3.7-5.8H672c-4.3 0-6.7 1.2-6.7 4.2 0 2.3 1.5 3.9 4.2 3.9 5.3 0 5.9-3.5 5.9-7.5.2.1.2-.6.2-.6zm7 7.5l12.5-15.5h-11.9v-3.2h16.2v3.1L687 33.7h13l-.6 3.2h-16.8v-3.1zm22.9-18.7c3.5 10.4 5.5 16.2 6 18.4h.1c.7-2.5 2.3-7.5 5.8-18.4h3.8l-7.8 22.8c-2.2 6.4-3.8 8-8.3 8-.7 0-1.5-.1-2.4-.1v-3.3c.6.1 1.2.1 1.8.1 2.8 0 3.8-1.2 5.1-4.8l-8.1-22.6h4v-.1zm46.6-9.7v25.4c0 2 0 4 .1 6.2h-3.6c-.1-.6-.2-2.3-.2-3.1-1.1 2.3-3.3 3.6-6.8 3.6-5.6 0-9-4.6-9-11.2 0-6.7 3.7-11.6 9.8-11.6 3.8 0 5.6 1.5 6.2 2.8v-12c-.2-.1 3.5-.1 3.5-.1zm-9.9 28.8c5.1 0 6.2-3.8 6.2-8.5 0-4.9-1-7.9-5.9-7.9-3.8 0-6.2 3-6.2 8.3.1 5.2 2.5 8.1 5.9 8.1zm34.1-8.3c0 6.3-3.6 11.5-10.3 11.5-6.2 0-10-4.8-10-11.3 0-6.4 3.7-11.4 10.3-11.4 6.1-.1 10 4.4 10 11.2zM760 26c0 4.8 2.4 8.3 6.3 8.3 4 0 6.2-3.3 6.2-8.2s-2.3-8.3-6.3-8.3S760 21 760 26zm38.6 8.9c0 7-2.9 11-10 11-6.6 0-8.6-3.7-9-6.7h3.8c.6 2.4 2.6 3.7 5.4 3.7 4.9 0 6.2-3.1 6.2-8.1V33c-1.2 2.4-3.1 3.8-6.8 3.8-5.4 0-9-4.4-9-10.8 0-7.1 4.2-11.4 9.4-11.4 4.2 0 5.9 1.9 6.4 3.4.1-1 .2-2.4.2-2.9h3.5c0 1.2-.1 4.2-.1 6.3v13.5zm-9.7-1.3c4.7 0 6-3.2 6-8 0-4.9-1.3-7.8-5.9-7.8-4 0-6.1 3.4-6.1 8.1.1 4.5 2.5 7.7 6 7.7z" class="st0"/><path d="M13.6 123.3H4.3l.7-3.2h22.3l-.7 3.2h-9.3L11.7 150H8l5.6-26.7zm17-4.8h3.6l-2.8 13.2c1.5-2.1 3.7-3.9 7.2-3.9 3.3 0 6.9 1.6 5.5 8.2l-2.9 14h-3.6l2.8-13.4c.8-3.7-.1-5.6-3.3-5.6-3.6 0-6.2 2.9-7.1 7.1l-2.6 12h-3.5l6.7-31.6zm20.5 21.1c-.1.8-.2 1.4-.2 2 0 3.7 1.8 5.8 4.8 5.8 3.2 0 4.6-1.8 5.6-3.6H65c-1.4 3.4-4.1 6.5-9.8 6.5-5.5 0-8-3.6-8-8.6 0-6.2 3.3-14 11.4-14 5.8 0 7.8 3.8 7.8 7.8 0 1.4-.2 2.6-.6 4.1H51.1zm11.8-2.7c.1-.6.1-1.1.1-1.6 0-2.9-1.4-4.7-4.5-4.7-3.3 0-5.7 2.3-6.8 6.3h11.2zm29.9 9.8c-1.7 2.3-3.8 3.7-7.3 3.7-3.7 0-6.9-2.6-6.9-8.3 0-7.2 4.6-14.3 11.4-14.3 3.8 0 5.5 1.7 6 3.3.3-1.3.6-2.4.8-2.9h3.5c-.3 1.4-.8 3.4-1.5 6.5l-5.1 23.8h-3.5l2.6-11.8zm-10.5-4.9c0 3.5 1.5 5.5 4.5 5.5 4.4 0 6.8-4 7.8-8.8.9-4.5.1-7.7-4.4-7.7-5.1 0-7.9 5.9-7.9 11zm37 2.3c-.5 2-.8 4.1-1.1 5.8h-3.5c.1-.7.3-2.6.6-3.7-1.5 2.5-3.9 4.2-7.3 4.2-4 0-6.5-2.3-5.3-8l3.1-14.2h3.5l-2.9 13.8c-.6 2.8-.5 5.3 3 5.3 3.3 0 6.2-2.5 7.5-8.7l2.3-10.4h3.6l-3.5 15.9zm8.9-15.9h3.6l-4.6 21.7h-3.5l4.5-21.7zm2.1-9.7h3.6l-1 4.7h-3.6l1-4.7zm20.6 24.9c-1.5 4.2-4.5 6.9-9.7 6.9-5.3 0-7.9-3.5-7.9-8.5 0-6.5 3.7-14.1 11.2-14.1 6.2 0 7.8 4.4 7.6 7.4h-3.5c-.1-2.4-1.2-4.5-4.3-4.5-5.1 0-7.3 6.2-7.3 11 0 4.1 1.9 5.8 4.7 5.8 2.5 0 4.4-1.5 5.6-4h3.6zm8.4-5.2c2.2-2 8.2-7.1 11.4-10h4.5c-3.3 2.9-6.5 5.7-9.8 8.5l5.8 13.3h-4l-4.6-11.1-4.1 3.2-1.7 7.9h-3.6l6.7-31.5h3.5l-4.1 19.7zm30.5-19.7h3.6l-2.8 13c1.4-2 3.7-3.7 7.1-3.7 4.5 0 7.1 3 7.1 8.1 0 6.8-3.7 14.6-11.5 14.6-3.3 0-5.2-1.5-5.9-3.4-.3 1.1-.6 2.4-.8 2.9h-3.5c.3-1 .7-3.1 1.4-5.8l5.3-25.7zm11.3 17.6c0-3.4-1.5-5.3-4.6-5.3-4.1 0-6.7 3.7-7.7 8.3-1 5 .3 8.1 4.5 8.1 5.3.1 7.8-6.3 7.8-11.1zm19.2-4.7c-4.2.3-7.2 3.4-8.3 8.3l-2.2 10.2h-3.5l3.3-15.3c.5-2.1.9-4.4 1.2-6.4h3.4c-.1.6-.4 2.8-.8 4.6 1.6-3.1 4.3-5 7.6-5l-.7 3.6zm20.1 5.3c0 5.8-3.2 13.7-11.6 13.7-5.3 0-8.1-3.3-8.1-8.8 0-6 3.7-13.8 11.5-13.8 4.9 0 8.2 3.2 8.2 8.9zm-16.1 4.9c0 3.7 1.7 5.8 4.9 5.8 5.3 0 7.6-6.2 7.6-10.8 0-3.7-1.6-5.9-4.9-5.9-5.1 0-7.6 6.3-7.6 10.9zm23.1-13.4c.6 9 .8 15.5.8 18.2h.1c1-2.3 2.6-5.8 8.7-18.2h3.6c.6 12.7.7 15.9.6 17.9h.1c1-2.3 3.3-7.1 8.8-17.9h3.7l-11.3 21.7h-3.8c-.5-7.5-.8-14.5-.8-17.3h-.1c-1.1 2.8-4.1 8.9-8.3 17.3h-4l-1.5-21.7h3.4zm28.5 5.6c.4-1.9.7-3.7 1.1-5.5h3.5c-.1.7-.5 3.1-.6 3.7 1.2-2 3.3-4.1 7.3-4.1 4.2 0 6.7 2.4 5.4 8.6l-2.8 13.6h-3.6l2.8-13.5c.7-3.3-.1-5.5-3.3-5.5-4 0-6.3 3.7-7.3 8.1l-2.3 10.9h-3.5l3.3-16.3zm29.8 16.2l4-18.9h-3.5l.7-2.9h3.4l.7-3.1c.8-4 2.9-7.1 7.2-7.1 1 0 2 .2 2.5.3l-.7 3c-.5-.1-1.2-.2-1.8-.2-2 0-3.2 1.4-3.8 4l-.7 3.1h4.3l-.6 2.9h-4.3l-4 18.9h-3.4zm31.1-13.3c0 5.8-3.2 13.7-11.6 13.7-5.3 0-8.1-3.3-8.1-8.8 0-6 3.7-13.8 11.5-13.8 4.9 0 8.2 3.2 8.2 8.9zm-16.1 4.9c0 3.7 1.7 5.8 4.9 5.8 5.3 0 7.6-6.2 7.6-10.8 0-3.7-1.6-5.9-4.9-5.9-5.1 0-7.6 6.3-7.6 10.9zm22.9-13.4c1.9 4.1 3.2 7.1 3.7 8.1h.1c1.2-1.5 3.3-4 6.7-8.1h4.2l-9.3 10.6 5.1 11.1h-3.9c-1.7-3.7-3.2-7.1-3.8-8.4h-.1c-.8 1.2-3.3 4.3-6.8 8.4h-4.1l9.4-11.1-4.9-10.6h3.7zm30.9 0l-4.9 23.2c-1 4.9-2.6 7.6-7.1 7.6-.7 0-1.5-.1-2.1-.2l.8-3.1c.4.1.7.1 1.1.1 2.6 0 3.2-1.4 3.9-4.7l4.9-22.8 3.4-.1zm-2.5-5.1l1-4.7h3.6l-1 4.7H372zm21.5 21c-.5 2-.8 4.1-1.1 5.8h-3.5c.1-.7.3-2.6.6-3.7-1.5 2.5-3.9 4.2-7.3 4.2-4 0-6.5-2.3-5.3-8l3.1-14.2h3.5l-2.9 13.8c-.6 2.8-.5 5.3 3 5.3 3.3 0 6.2-2.5 7.5-8.7l2.3-10.4h3.6l-3.5 15.9zm7.6-9.8c.5-2 .8-4 1.2-6.1h3.5c-.1.6-.3 2.3-.6 3.3 1.4-2 3.2-3.8 6.5-3.8 3 0 4.7 1.4 5 4 1.5-2.1 3.7-4 7.2-4 3.6 0 6.5 2.1 5.2 8.1l-3 14.1h-3.5l2.9-13.7c.6-2.5.5-5.4-3-5.4-3.4 0-5.4 3-6.2 6.7l-2.6 12.4h-3.5l2.8-13.3c.7-3.4.3-5.8-2.8-5.8-3.5 0-5.6 3.2-6.4 7.1l-2.5 12h-3.5l3.3-15.6zm34 .3c.6-2.9 1.1-5.1 1.3-6.4h3.5c-.1.5-.5 2.4-.7 3.7 1.5-2.3 3.8-4.2 7.4-4.2 4.4 0 6.9 3.3 6.9 8.2 0 7.1-4.1 14.4-11.5 14.4-3.6 0-5.3-1.7-6-3.3l-2.4 11.5H430l5.1-23.9zm7 12.7c5.3 0 7.7-6.2 7.7-11 0-3.6-1.7-5.5-4.5-5.5-4.1 0-6.9 4-7.8 8.3-1 4.9.2 8.2 4.6 8.2zm16.6-3.9c.2 2.3 1.6 4.1 5.1 4.1 2.9 0 4.5-1.5 4.5-3.5s-1.5-3-4.6-4.1c-4.7-1.6-6.1-3.3-6.1-5.8 0-3.4 2.6-6.3 7.8-6.3 5.6 0 7.7 3.2 7.6 6.3h-3.6c-.1-1.5-.8-3.4-4.4-3.4-2.3 0-3.9 1.1-3.9 3.1 0 1.5 1.2 2.3 4.3 3.3 4.6 1.6 6.4 3.5 6.4 6.5 0 4.3-3.5 6.9-8.7 6.9-5.5 0-8.2-2.9-8.2-6.9l3.8-.2zm46.1-6.7c0 5.8-3.2 13.7-11.6 13.7-5.3 0-8.1-3.3-8.1-8.8 0-6 3.7-13.8 11.5-13.8 4.9 0 8.2 3.2 8.2 8.9zm-16.1 4.9c0 3.7 1.7 5.8 4.9 5.8 5.3 0 7.6-6.2 7.6-10.8 0-3.7-1.6-5.9-4.9-5.9-5.1 0-7.6 6.3-7.6 10.9zm22.7-13.4c1.2 9.4 1.9 15.6 2 18.4h.1c1-2.3 7.1-13.2 9.9-18.4h3.7l-12.2 21.7h-4.2l-2.8-21.7h3.5zm18.7 11.4c-.1.8-.2 1.4-.2 2 0 3.7 1.8 5.8 4.8 5.8 3.2 0 4.6-1.8 5.6-3.6h3.7c-1.4 3.4-4.1 6.5-9.8 6.5-5.5 0-8-3.6-8-8.6 0-6.2 3.3-14 11.4-14 5.8 0 7.8 3.8 7.8 7.8 0 1.4-.2 2.6-.6 4.1h-14.7zm11.8-2.7c.1-.6.1-1.1.1-1.6 0-2.9-1.4-4.7-4.5-4.7-3.3 0-5.7 2.3-6.8 6.3h11.2zm19.3-5.5c-4.2.3-7.2 3.4-8.3 8.3l-2.2 10.2h-3.5l3.3-15.3c.5-2.1.9-4.4 1.2-6.4h3.4c-.1.6-.4 2.8-.8 4.6 1.6-3.1 4.3-5 7.6-5l-.7 3.6zm11.6-3.2h3.7l1.4-6.3h3.5l-1.4 6.3h4.6l-.6 2.9h-4.6l-2.8 13.2c-.5 2-.3 2.9 1.5 2.9.6 0 1.5-.1 2.1-.2l-.6 2.8c-1 .3-2 .3-3 .3-3.4 0-4.5-1.6-3.8-5.3l2.9-13.8h-3.6l.7-2.8zm16.9-9.7h3.6l-2.8 13.2c1.5-2.1 3.7-3.9 7.2-3.9 3.3 0 6.9 1.6 5.5 8.2l-2.9 14h-3.6l2.8-13.4c.8-3.7-.1-5.6-3.3-5.6-3.6 0-6.2 2.9-7.1 7.1l-2.6 12H583l6.7-31.6zm20.5 21.1c-.1.8-.2 1.4-.2 2 0 3.7 1.8 5.8 4.8 5.8 3.2 0 4.6-1.8 5.6-3.6h3.7c-1.4 3.4-4.1 6.5-9.8 6.5-5.5 0-8-3.6-8-8.6 0-6.2 3.3-14 11.4-14 5.8 0 7.8 3.8 7.8 7.8 0 1.4-.2 2.6-.6 4.1h-14.7zm11.8-2.7c.1-.6.1-1.1.1-1.6 0-2.9-1.4-4.7-4.5-4.7-3.3 0-5.7 2.3-6.8 6.3H622zm15 13.1l6.7-31.5h3.6l-6.7 31.5H637zm26.4-5.5c-.4 1.9-.9 4.6-1 5.4h-3.5c.1-.8.3-2.1.6-3.3-1.1 1.8-2.9 3.8-7.4 3.8-4.4 0-6-2.9-6-5.5 0-6.2 5.8-7.6 10.2-8 2.3-.2 4.2-.2 5.3-.2l.3-1.5c.4-2 .3-4.7-3.9-4.7-3.7 0-4.7 1.9-5.3 3.6H649c.8-3.3 3.2-6.3 9.3-6.3 5 0 8.2 2.3 7.1 7.5l-2 9.2zm-2.4-5.2c-1.2.1-2.6.1-4.5.3-3.5.3-6.7 1.4-6.7 4.8 0 1.6 1.1 3 3.5 3 4.7 0 6.6-3.7 7.6-7.8l.1-.3zm5.5 7.8l14.6-16h-11.3l.6-2.9h15.5l-.7 3-14.3 15.8h12.3l-1.2 3h-16.2l.7-2.9zm25.3-18.9c1.4 9.7 2.2 16.8 2.3 19h.1c1.2-2.4 4-8.4 9.5-19h3.8l-12.1 23c-3.8 7.2-5.8 7.8-9.8 7.8-.9 0-2-.1-2.5-.3l.7-3.1c.5.1 1 .2 2 .2 2.8 0 3.8-1.2 5.8-4.6l-3.3-23h3.5zm48.9-9.7l-5.4 25.5c-.5 2-.8 4.1-1.2 6h-3.5c.1-.6.3-2 .6-3.4-1.5 2.3-3.6 3.8-7.2 3.8-4.7 0-7.1-3.5-7.1-8.5 0-6.4 3.8-14.2 11.4-14.2 3.7 0 5.6 2 6 3.4l2.7-12.7 3.7.1zm-20 23.1c0 3.8 1.7 5.6 4.6 5.6 4.5 0 6.9-4.1 7.8-8.9 1-4.6-.5-7.5-4.6-7.5-5.1.1-7.8 5.9-7.8 10.8zm39.4-4.9c0 5.8-3.2 13.7-11.6 13.7-5.3 0-8.1-3.3-8.1-8.8 0-6 3.7-13.8 11.5-13.8 5 0 8.2 3.2 8.2 8.9zm-16.1 4.9c0 3.7 1.7 5.8 4.9 5.8 5.3 0 7.6-6.2 7.6-10.8 0-3.7-1.6-5.9-4.9-5.9-5.1 0-7.6 6.3-7.6 10.9zm35.9 6.2c-1.5 6.9-3.6 11.1-11.1 11.1-7.2 0-8.1-4-8.1-6.5h3.6c0 2 1.4 3.7 4.9 3.7 4.6 0 6-3.1 7.2-8.2l.5-1.9c-1.5 2.4-3.7 4-7.1 4-4.3 0-7.1-3-7.1-8.4 0-6.5 3.9-13.7 11-13.7 3.8 0 5.7 1.9 6.2 3.5.3-1 .6-2.5.9-3.1h3.4c-.5 1.7-.9 3.8-1.3 5.8l-3 13.7zm-13.5-6.5c0 3.7 1.6 5.5 4.6 5.5 4 0 6.5-3.8 7.5-8.3.9-4.2-.1-7.6-4.6-7.6-4.8-.1-7.5 5.2-7.5 10.4z" class="st1"/><path d="M6.7 391.6l3-.3c1-.1 1.2-.1 1.2-.6.1-1 .1-1.6.1-3.3v-23.8H9.3c-.8 0-2.1.1-2.6.1-2.7.2-3.3.2-3.6 1.1-.3 1-.5 2.3-1 4.9H.6l-.6-8.8c4.5.2 8.8.3 13.3.3 4.3 0 8.8-.1 13.1-.3l-.5 8.7h-1.6c-.4-2.5-.7-3.8-1-4.9-.3-1-.8-1-3.6-1.1-.5 0-2-.1-2.5-.1h-1.9v23.8c0 1.6.1 2.3.1 3.3.1.5.2.5 1.2.6l3 .3v2.1a70.68 70.68 0 0 0-13 0l.1-2zm20.3.1l2.2-.3c1-.2 1.2-.2 1.2-.7.1-1 .1-1.6.1-3.3v-15c0-6.8-.3-11.2-1.1-15.6 1.6-.4 3-.8 4.4-1.6l.6.5V373c3.1-2 5.6-2.8 8.2-2.8 3.8 0 5.4 2.2 5.4 7.8v9.4c0 1.6.1 2.3.1 3.3.1.5.2.5 1.2.7l2.2.3v1.9c-2.2-.1-3.3-.2-5.4-.2-2.1 0-3.4.1-5.5.2v-1.9l2.2-.3c1-.2 1.1-.2 1.2-.7.1-1 .1-1.6.1-3.3V380c0-5.1-1.1-6.7-4.3-6.7-1.9 0-3.6 1-4.3 2.4-.8 1.4-1 2.8-1 4.8v7c0 1.6.1 2.3.1 3.3.1.5.2.5 1.2.7l2.3.3v1.9c-2.2-.1-3.4-.2-5.5-.2s-3.4.1-5.5.2l-.1-2zm26.2-8.9c0-7.6 4-12.5 9.8-12.5 4.3 0 7.1 3 7.1 7.7 0 1-.1 1.8-.3 2.8H56.9c-.1.3-.1.8-.1 1 0 5.8 2.5 8.9 7.2 8.9 2.1 0 3.6-.6 5.8-1.8l1 1.6c-3.6 2.7-6.3 3.8-9.2 3.8-5-.1-8.4-4.6-8.4-11.5zm12.9-5.1c.1-.3.1-.6.1-.9 0-2.3-1.6-3.9-3.7-3.9-3 0-4.7 2-5.3 5.6l8.9-.8zm14.8 6.5c0-7.8 4.3-14 9.7-14 1.4 0 2.7.3 4.7 1.2 1.2-.3 2.5-.9 3.6-1.6l.6.5c-.4 3.3-.4 6.6-.4 9.9v17.6c0 1.5 0 2.8.1 3.2.1.5.1.6.6.6.2 0 .7-.1 1-.1s1-.1 1.9-.1v2.3c-3.5.1-8 1-11.3 2.4l-.8-2.2c1-.5 3-1.1 3.8-1.4.5-.2.7-.3.8-.4.1-.2.2-.9.2-3.6v-7.2c-3.3 2-5.5 2.8-8 2.8-4.2.1-6.5-3.7-6.5-9.9zm13.1 4.9c1-1.3 1.2-3 1.2-7.2v-6.8c-2.1-1.2-3.3-1.7-4.9-1.7-3.4 0-5.4 3.2-5.4 9 0 5.5 1.6 8.6 5 8.6 1.6.1 3.1-.6 4.1-1.9zm11.1-12.1c0-1.4.1-2.4 0-3.2-.1-.5-.2-.6-1.2-.7l-2.3-.3v-1.9l7.5-.3V385c0 4.7 1 6.2 3.7 6.2 1.6 0 3.3-.7 4.3-2.1.7-1.1.9-2.3.9-4.3V377c0-1.4-.1-2.4-.1-3.2-.1-.5-.2-.6-1.2-.7l-2.3-.3v-1.9l7.5-.3v14.3c0 2.2.1 4.7.5 5.8l4.1.3.1 1.1-7.5 2.2c-.4-.8-.8-1.9-.9-2.9h-.2c-2.4 1.6-5.2 2.8-7.7 2.8-3.6 0-5.2-2.3-5.2-7.8V377z" class="st0"/><path d="M126.4 391.7l2.2-.3c1-.2 1.2-.2 1.2-.7.1-1 .1-1.6.1-3.3v-6.3c0-2.7 0-3.9-.3-6.8l-3.2-.7v-1.2c2.3-.5 4.4-1.3 6.5-2.4l1.1.7c-.2 2.1-.2 4.3-.2 6.5v10.2c0 1.6.1 2.3.1 3.3.1.5.2.5 1.2.7l2.3.3v1.9c-2.2-.1-3.6-.2-5.5-.2-2.1 0-3.4.1-5.5.2v-1.9zm2.6-32.4l4.6-1.5.7.7-1.6 7.3-1.8.7-1.9-7.2zm20.4 10.9c2.5 0 4.8 1.2 4.8 2.5 0 1-.3 1.6-1.1 2.9-1.6-1.2-2.9-1.6-4.5-1.6-3.6 0-5.9 2.7-5.9 8 0 5.9 2.7 8.8 6.7 8.8 1.7 0 3-.5 5.1-1.5l.9 1.6c-3.4 2.3-5.7 3.3-8.2 3.3-4.9 0-8.2-3.7-8.2-10.3 0-7.6 4.9-13.7 10.4-13.7zm6.2 21.5l2.2-.3c1-.2 1.2-.2 1.2-.7.1-1 .1-1.6.1-3.3v-15c0-6.7-.3-11.2-1-15.6 1.8-.5 2.7-.7 4.3-1.6l.6.5v31.6c0 1.6.1 2.3.1 3.3.1.5.2.5 1.2.7l2.2.3v1.9c-2.2-.1-3.3-.2-5.5-.2-2.1 0-3.4.1-5.5.2l.1-1.8zm12.2-14.9c1.1-1.1 2.3-2.2 2.8-3.7l-2.2-.5v-1.9c1.8.1 3.1.1 4.7.1 1.4 0 2.8 0 4.3-.1v1.9c-2.5.6-4.5 2.4-6.3 4.2l-3.6 3.5 6.7 7.5c1.8 2.1 3.2 3.3 5.6 3.9v1.9h-4.1c-1.4 0-1.8-.2-2.4-1.1l-10.2-11.2 4.7-4.5zm21-4.3c0-6.7-.3-11.2-1-15.6 1.7-.4 2.9-.9 4.3-1.6l.6.5v17.3c3.2-2.1 5.5-2.8 8.1-2.8 4.2 0 6.5 3.3 6.5 9.8 0 9.2-3.7 14.2-10.4 14.2-2 0-3.1-.3-4.9-1.2l-2.4 2.1-.8-.5v-22.2zm8.1 18.9c3.8 0 6.3-3 6.3-9.8 0-5.5-1.8-8.3-5.1-8.3-2 0-3.6.8-4.5 2.4-.9 1.5-1 3.3-1 5.3v8.5c1.2 1.2 2.5 1.9 4.3 1.9zm12.5.3l2.2-.3c1-.2 1.2-.2 1.2-.7.1-1 .1-1.6.1-3.3v-13.1l-3.4-.8v-1.2c2.3-.5 4.5-1.4 6.3-2.4l.9.5.1 4.9h.2c1.2-2.8 2.7-5.2 4.5-5.2 1 0 2.3.3 3.5.8.5.2.8.5.8 1 0 .7-.3 1.8-1 2.8-1-.4-2-.8-3.2-.8-2.3 0-4 2.3-4.3 4.8-.3 1.5-.3 2.4-.3 4.3v4.3c0 1.6.1 2.2.1 3.3.1.5.2.6 1.2.7l3.4.3v1.9c-2.1-.1-4.6-.2-6.7-.2-2.1 0-3.4.1-5.5.2l-.1-1.8zm27-21.5c6 0 9.5 3.6 9.5 11 0 7.5-3.2 12.9-10.7 12.9-6 0-9.5-3.9-9.5-11.1-.1-7.8 4-12.8 10.7-12.8zm5.4 12.1c0-5.6-2.3-9.5-6-9.5-4.1 0-6.2 3.4-6.2 9.1 0 5.9 2.3 9.5 6.3 9.5 4.9.1 5.9-4.5 5.9-9.1zm7.3-7.6c-.4-1.5-.6-1.8-1.3-1.9l-1-.2v-1.9c1.6.1 3.4.2 5.1.2 1.6 0 3.3-.1 4.9-.2v1.9l-2.2.4c-1 .2-1.6.3-1.6.9 0 .5.1 1.1.3 2l.8 3.4c.6 2.3 1.8 6.6 2.4 9.5h.2c1.1-3.6 2.5-7.5 3.7-11 .8-2.3 1.6-5.3 2-7.1h3.2l2.4 8.6c.7 2.5 1.8 6.6 2.4 9.5h.2c1.1-4 2.4-7.7 3.6-11.3.6-2 .9-3.2.9-3.6 0-.5-.2-.8-1-.9l-2.1-.3v-1.9c1.6.1 3.1.2 4.7.2 1.5 0 2.7-.1 4.2-.2v1.9l-2.1.3c-.9 2.8-2.2 6.4-3.3 9.6-1.1 3.2-2.8 7.9-3.7 11.3h-3.3l-2.8-9.9c-.8-2.9-1.6-5.8-2.1-7.8h-.2c-.7 2.7-1.6 5.3-2.4 7.4-1.7 4.7-2.8 8-3.3 10.3h-3.3l-5.3-19.2z" class="st0"/><path d="M280.7 391.7l2.2-.3c1-.2 1.2-.2 1.2-.7.1-1 .1-1.6.1-3.3v-13.1l-3.4-.8v-1.2c2.3-.5 4.4-1.4 6.5-2.4l.9.5v2.7h.2c2.8-2 5.4-2.9 8-2.9 3.8 0 5.4 2.3 5.4 7.9v9.3c0 1.6.1 2.3.1 3.3.1.5.2.5 1.2.7l2.2.3v1.9c-2.2-.1-3.3-.2-5.5-.2-2.1 0-3.4.1-5.5.2v-1.9l2.2-.3c1-.2 1.2-.2 1.2-.7.1-1 .1-1.6.1-3.3v-7.5c0-4.9-1.1-6.6-4.3-6.6-2 0-3.6 1-4.3 2.4-.8 1.4-1 2.9-1 4.9v6.9c0 1.6.1 2.3.1 3.3.1.5.2.5 1.2.7l2.3.3v1.9c-2.2-.1-3.4-.2-5.5-.2s-3.4.1-5.5.2l-.1-2zm33.8 0l2.2-.3c1.1-.2 1.3-.2 1.3-.8.1-1.1.1-1.6.1-3.2v-14.5l-3.5-.2V371l3.5-.3c.3-4.3.9-6.9 1.9-9.4.9-2.1 2.9-6 5.6-6 1.2 0 4.1.6 4.1 2.1 0 .8-.3 1.6-.9 2.7-1.4-.6-2.2-.8-3.3-.8-3.2 0-3.6 3.5-3.6 10.3v1l5.8-.3v3.2l-5.8-.3v14.3c0 1.6.1 2.2.1 3.3.1.5.2.6 1.2.7l3.4.3v1.9c-2-.1-4.6-.2-6.7-.2-2.1 0-3.7.1-5.5.2v-2h.1zm24.6-21.5c6 0 9.5 3.6 9.5 11 0 7.5-3.2 12.9-10.7 12.9-6 0-9.5-3.9-9.5-11.1 0-7.8 4.1-12.8 10.7-12.8zm5.5 12.1c0-5.6-2.3-9.5-6-9.5-4.1 0-6.2 3.4-6.2 9.1 0 5.9 2.3 9.5 6.3 9.5 4.9.1 5.9-4.5 5.9-9.1zm4.2 9.4l2.3-.5c1.2-1.8 2.3-3.2 3.4-4.7 1-1.2 2.7-3.5 3.4-4.7l-4.8-7.2c-1-1.5-1.2-1.7-2.3-1.9l-.9-.2v-1.9c1.8.2 3 .2 4.7.2 1.8 0 3.4-.1 5.1-.2v1.9l-1.9.3c-.5.1-.7.3-.7.6s.2.5.6 1.1l2.8 4.3 2-2.9c1.2-1.6 1.4-2.2 1.4-2.5s-.3-.5-.8-.6l-1.6-.3v-1.9c1.6.1 2.8.2 4.3.2s2.8-.1 4.2-.2v1.9l-2.4.6c-1 1.5-2.3 3.4-2.9 4.1-.6.8-2.1 2.8-2.8 3.7l5.4 8.1c1.2 1.9 1.7 2.2 2.8 2.4l1.2.2v2.1c-1.7-.1-3.5-.2-5.4-.2-1.9 0-3.6.1-5.5.2v-1.9l2.4-.3c.5-.1.8-.2.8-.5s-.1-.5-.3-1l-4.1-6-3.1 4.4c-1 1.5-1.3 2-1.3 2.5 0 .3.2.5.8.5l2.3.3v1.9c-1.8-.1-3.3-.2-5-.2-1.6 0-2.8.1-4.3.2v-1.9h.2zm34-4v-6.5c0-3-.1-4.2-.3-6.8l-3.1-.7v-1.2c2.3-.5 4.3-1.2 6.4-2.4l1.1.7c-.2 2.4-.2 5-.2 7.5v9.8c0 5.4-.5 8.5-1.6 10.4-1.4 2.5-3.4 4.2-7.7 7.1l-1.2-1.6c2.2-1.5 3.9-2.9 5.1-5.4 1.3-2.6 1.5-6 1.5-10.9zm-.9-28.4l4.6-1.5.6.7-1.6 7.3-1.9.7-1.7-7.2zm11.3 17.7c0-1.4.1-2.4 0-3.2-.1-.5-.2-.6-1.2-.7l-2.3-.3v-1.9l7.5-.3V385c0 4.7 1 6.2 3.7 6.2 1.6 0 3.3-.7 4.3-2.1.7-1.1.9-2.3.9-4.3V377c0-1.4-.1-2.4-.1-3.2-.1-.5-.2-.6-1.2-.7l-2.2-.3v-1.9l7.5-.3v14.3c0 2.2.1 4.7.5 5.8l4.1.3.1 1.1-7.5 2.2c-.4-.8-.8-1.9-.9-2.9h-.2c-2.4 1.6-5.2 2.8-7.7 2.8-3.6 0-5.2-2.3-5.2-7.8l-.1-9.4z" class="st0"/><path d="M414.5 391.7l2.2-.3c1-.2 1.2-.2 1.2-.7.1-1 .1-1.6.1-3.3v-13.1l-3.4-.8v-1.1c2.3-.5 4.4-1.4 6.4-2.5l1 .6v2.5l.2.1c2.7-1.9 5.4-2.9 7.7-2.9s3.7 1.2 4.5 3.3h.1c2.8-2.3 6-3.3 8.4-3.3 5 0 5.1 5.2 5.1 9v8.2c0 1.6.1 2.3.1 3.3.1.5.2.5 1.2.7l2.2.3v1.9c-2.2-.1-3.3-.2-5.5-.2-2.1 0-3.4.1-5.5.2v-1.9l2.2-.3c1-.2 1.1-.2 1.2-.7.1-1 .1-1.6.1-3.3v-7.7c0-2.8-.1-6.4-4-6.4-1.6 0-3 .6-4 1.9-1.1 1.5-1.2 3.3-1.2 5.5v6.8c0 1.6.1 2.3.1 3.3.1.5.2.5 1.2.7l2.2.3v1.9c-2.2-.1-3.2-.2-5.4-.2-2.1 0-3.4.1-5.5.2v-1.9l2.2-.3c1-.2 1.1-.2 1.2-.7.1-1 .1-1.6.1-3.3v-7.7c0-3.3-.3-6.4-3.8-6.4-2.1 0-3.7 1-4.4 2.4-.7 1.5-.8 2.8-.8 4.9v6.9c0 1.6.1 2.3.1 3.3.1.5.2.5 1.2.7l2.2.3v1.9c-2.2-.1-3.3-.2-5.5-.2-2.1 0-3.4.1-5.5.2v-1.9l.1-.2z" class="st0"/><path d="M458.6 398.1c0 1.4.1 2.4.1 3.2.1.5.3.6.7.6.2 0 .7-.1 1-.1.5-.1 2.1-.2 2.8-.2v2.2c-3.9.2-7.9 1-11.2 2.4l-.8-2c.7-.3 1.8-.7 2.4-1 .6-.2.8-.3 1-.5.2-.2.2-.6.2-3.4v-25l-3.4-.8v-1.2c2.3-.5 4.3-1.3 6.4-2.4l1 .5v2.6h.2c2.7-2 5.4-2.8 7.9-2.8 4.3 0 6.5 3.4 6.5 9.9 0 9-3.7 14-10.4 14-1.3 0-2.7-.2-4.1-1v4.9l-.3.1zm4.2-6.6c3.8 0 6.3-3 6.3-9.9 0-5.5-1.8-8.2-5.1-8.2-2.1 0-3.7 1-4.6 2.5-.7 1.4-.8 3-.8 5v8.6c1.3 1.4 2.6 2 4.2 2zm12.2-.2c0-.9 1.1-1.9 1.7-2.5 1.5 1.1 2.9 1.9 4.6 1.9 2 0 3.7-1.4 3.7-3.6 0-1.9-1-2.7-4.5-4.4-3.1-1.6-4.7-2.6-4.7-4.9 0-1.3.8-3 2.3-4.7 1.5-1.7 2.9-2.8 4.9-2.8 1.2 0 2.5.3 3.8.8.7.3 1 .6 1 1.1 0 .6-.4 1.6-1 2.7-1.6-.8-3-1.2-4.5-1.2-1.7 0-2.8 1.1-2.8 2.7 0 1.5.9 2.4 4.2 4 3.9 1.9 5 2.9 5 5.2 0 1.6-1 3.7-2.4 5.3-1.8 2.1-3.8 3.4-5.9 3.4-1.4 0-2.9-.6-4.4-1.5-.8-.6-1-.9-1-1.5zm34.9-21.1c6 0 9.5 3.6 9.5 11 0 7.5-3.2 12.9-10.7 12.9-6 0-9.5-3.9-9.5-11.1 0-7.8 4.1-12.8 10.7-12.8zm5.5 12.1c0-5.6-2.3-9.5-6-9.5-4.1 0-6.2 3.4-6.2 9.1 0 5.9 2.3 9.5 6.3 9.5 4.8.1 5.9-4.5 5.9-9.1zm7.1-8.2c-.3-1-.5-1.2-1.3-1.4l-.9-.2v-1.9c1.6.1 3.3.2 4.9.2 1.6 0 3-.1 5-.2v1.9l-2.5.4c-1 .1-1.1.3-1.1.8 0 .3.1.5.3 1.1l1.5 4.3c1 3 2.3 6.7 3.3 10h.2c1.2-3.2 2.5-6.7 3.8-9.9 1.2-3.1 1.9-5 1.9-5.5s-.2-.7-1.1-.8l-2-.4v-1.9c1.5.1 3 .2 4.5.2 1.6 0 2.9-.1 4.3-.2v1.9l-2.1.3c-1 2.8-2.6 6.5-3.9 9.6-1.5 3.4-3.3 8.2-4.4 11.3h-3.3l-7.1-19.6zm20.4 8.7c0-7.6 4-12.5 9.8-12.5 4.3 0 7.1 3 7.1 7.7 0 1-.1 1.8-.3 2.8h-12.9c-.1.3-.1.8-.1 1 0 5.8 2.5 8.9 7.2 8.9 2.1 0 3.6-.6 5.8-1.8l1 1.6c-3.6 2.7-6.3 3.8-9.2 3.8-5.1-.1-8.4-4.6-8.4-11.5zm12.8-5.1c.1-.3.1-.6.1-.9 0-2.3-1.6-3.9-3.7-3.9-3 0-4.7 2-5.3 5.6l8.9-.8zm6.1 14l2.2-.3c1-.2 1.2-.2 1.2-.7.1-1 .1-1.6.1-3.3v-13.1l-3.4-.8v-1.2c2.3-.5 4.5-1.4 6.3-2.4l.9.5.1 4.9h.2c1.2-2.8 2.7-5.2 4.5-5.2 1 0 2.3.3 3.5.8.5.2.8.5.8 1 0 .7-.3 1.8-1 2.8-1-.4-2-.8-3.2-.8-2.3 0-4 2.3-4.3 4.8-.3 1.5-.3 2.4-.3 4.3v4.3c0 1.6.1 2.2.1 3.3.1.5.2.6 1.2.7l3.4.3v1.9c-2.1-.1-4.6-.2-6.7-.2s-3.4.1-5.5.2l-.1-1.8zm26.6-5.9v-12.9l-2.3-.1v-1.7l2.3-.2v-5.6c1.4-.5 2.2-1.1 3.3-2l.9.6c-.3 2.3-.3 4.5-.3 6.7l6.5-.4v3.2l-6.5-.4v11.5c0 5.1.7 6.5 3.5 6.5 1.1 0 2.1-.2 3.6-.5l.5 1.5c-3.3 1.6-5.4 2.2-7.2 2.2-1.4 0-2.3-.5-3-1.6-1.2-1.6-1.3-3.5-1.3-6.8zm11.4 5.9l2.2-.3c1-.2 1.2-.2 1.2-.7.1-1 .1-1.6.1-3.3v-15c0-6.8-.3-11.2-1.1-15.6 1.6-.4 3-.8 4.4-1.6l.6.5V373c3.1-2 5.6-2.8 8.2-2.8 3.8 0 5.4 2.2 5.4 7.8v9.4c0 1.6.1 2.3.1 3.3.1.5.2.5 1.2.7l2.2.3v1.9c-2.2-.1-3.3-.2-5.4-.2-2.1 0-3.4.1-5.5.2v-1.9l2.2-.3c1-.2 1.1-.2 1.2-.7.1-1 .1-1.6.1-3.3V380c0-5.1-1.1-6.7-4.3-6.7-1.9 0-3.6 1-4.3 2.4-.8 1.4-1 2.8-1 4.8v7c0 1.6.1 2.3.1 3.3.1.5.2.5 1.2.7l2.3.3v1.9c-2.2-.1-3.4-.2-5.5-.2s-3.4.1-5.5.2l-.1-2zm26.2-8.9c0-7.6 4-12.5 9.8-12.5 4.3 0 7.1 3 7.1 7.7 0 1-.1 1.8-.3 2.8h-12.9c-.1.3-.1.8-.1 1 0 5.8 2.5 8.9 7.2 8.9 2.1 0 3.6-.6 5.8-1.8l1 1.6c-3.6 2.7-6.3 3.8-9.2 3.8-5-.1-8.4-4.6-8.4-11.5zm12.8-5.1c.1-.3.1-.6.1-.9 0-2.3-1.6-3.9-3.7-3.9-3 0-4.7 2-5.3 5.6l8.9-.8zm14 14l2.2-.3c1-.2 1.2-.2 1.2-.7.1-1 .1-1.6.1-3.3v-15c0-6.7-.3-11.2-1-15.6 1.9-.4 2.8-.8 4.3-1.6l.6.5v31.6c0 1.6.1 2.3.1 3.3.1.5.2.5 1.2.7l2.2.3v1.9c-2.2-.1-3.4-.2-5.5-.2s-3.3.1-5.4.2v-1.8zm12.2-4.3c0-1.1.3-1.8 1.4-2.5 2.2-1.6 5.9-3.3 10.4-4.6v-1.7c0-3.6-1-5.2-3.8-5.2-1.7 0-3.4.7-5.4 2l-1-1.8c3.3-2.3 6.2-3.3 8.8-3.3 4.5 0 5 2.8 5 6.5 0 2.4-.2 4.7-.2 7.1 0 3.2.1 5.3.5 6.7l4.1.3.1 1.1-7.3 2.2c-.3-.8-.6-1.9-.7-2.9h-.2c-2.3 1.8-4.9 2.8-6.9 2.8-3.7.1-4.8-3.7-4.8-6.7zm6.8 3.7c3.4 0 5-2.8 5-6v-1.9c-5.5.8-7.7 2.4-7.7 4.9 0 1.9.9 3 2.7 3zm24.5-17.8h-4.1c-3.1 0-3.5.2-3.8 1-.3.8-.6 3.2-.6 4.7h-2.2v-8.4c2.3.2 4.2.2 6.9.2 2.4 0 5.6-.1 8.5-.2l.6.9-11.5 19.5h2.4c4.2 0 5.6-.2 6-.5.5-.3.8-1.9 1-5.2h2v8.2c-2.5-.1-5.8-.2-8.5-.2-2.5 0-5 .1-7.6.2l-.5-.8 11.4-19.4zm8.3.8c-.3-.8-.5-1.2-1.2-1.4l-1-.2v-1.9c1.7.1 3.2.2 4.9.2 1.6 0 3.3-.1 5.1-.2v1.9l-2.7.4c-.9.1-1.1.3-1.1.7 0 .3.1.7.3 1.2l1.4 3.8c.8 2.4 2.4 7.1 3.4 10.3h.2l3.8-9.8c1.4-3.4 1.9-5.1 1.9-5.5s-.2-.6-1.1-.8l-2-.4v-1.9c1.6.1 2.9.2 4.5.2 1.5 0 2.8-.1 4.3-.2v1.9l-2.1.3c-1.2 3-2.5 6.3-3.8 9.3-1.5 3.4-5.8 14.5-6.8 17.4-.7 1.8-1.8 4.4-2.3 5.2-.4.8-1 1-1.7 1-1 0-2-.6-3.2-1.9 2.3-2.2 4.6-6 6.4-10l-7.2-19.6zm29.4 10.2c0-7.9 4.2-14.1 9.7-14.1 1.3 0 2.8.3 4.7 1.2v-1.2c0-4.5-.3-8.9-1-13.3 1.6-.3 2.8-.9 4.2-1.6l.7.5v26c0 6 .2 7.5.5 8.8l4.1.3.1 1.1-7.5 2.2c-.5-.8-.8-1.9-.9-2.9h-.2c-3.2 2.1-5.7 2.8-8.1 2.8-4 .1-6.3-3.5-6.3-9.8zm13 5c1.1-1.2 1.2-2.6 1.2-4.7V375c-1.8-1-3.2-1.5-4.9-1.5-3.3 0-5.4 3-5.4 9 0 5.8 1.6 8.6 4.8 8.6 1.7 0 3.3-.5 4.3-1.8zm20.9-19.1c6 0 9.5 3.6 9.5 11 0 7.5-3.2 12.9-10.7 12.9-6 0-9.5-3.9-9.5-11.1 0-7.8 4.1-12.8 10.7-12.8zm5.5 12.1c0-5.6-2.3-9.5-6-9.5-4.1 0-6.2 3.4-6.2 9.1 0 5.9 2.3 9.5 6.3 9.5 4.9.1 5.9-4.5 5.9-9.1zm6.7 9c.8-1.8 3-4.3 4.7-5.5-2.1-.8-4.5-2.6-4.5-6.8 0-5.1 3.8-8.8 8.8-8.8 1.7 0 3 .4 4 1l5.1-3.3c.6.7 1.3 2.3 1.5 3.4l-4.5 1.4c1 1.1 1.6 2.5 1.6 4.7 0 5.7-4.7 8.8-9.7 8.8-1.6 1.2-2.4 2.5-2.4 3.2 0 .6.5.7 2.5.7 7.1 0 12.8.3 12.8 5.3 0 4.8-5.8 10.3-13.4 10.3-5 0-7.2-2.7-7.2-5.9 0-1.5 1.8-4.2 4.4-6.4l-.1-.2c-.7 0-2.3-.2-3-.5l-.6-1.4zm7.8 11.6c4.7 0 8.2-3.2 8.2-6.3 0-3-3.8-3.2-7.8-3.2-2.1 0-5.1 2.8-5.1 5.8 0 2 1.3 3.7 4.7 3.7zm4.9-24.4c0-3.4-1.9-5.5-4.6-5.5-2.8 0-4.2 1.9-4.2 5 0 3.4 1.9 5.6 4.6 5.6 2.8-.1 4.2-2.1 4.2-5.1z" class="st0"/><path d="M1.5 474c2.5.1 9.3.2 11.7.2 2.3 0 9-.1 11.7-.2l-1.5 9.4h-1.3c-.3-5.3-.4-6-1-6.4-.7-.4-2.2-.7-5.4-.7h-1l-2.5 24.3c-.2 1.8-.3 2.8-.3 3.3s.1.6 1.1.7l3.8.3-.2 1.9c-2.7-.2-4.9-.3-6.9-.3-2.3 0-4.3.1-6.4.3l.4-1.9 3-.3c.8-.1 1-.2 1.1-.3.3-.3.3-1.2.6-3.6l2.5-24.3h-1c-3.7 0-5.3.3-5.8.7-.6.4-.9 1.3-2.1 6.3H1l.5-9.4zm27.1 24.2h.3c4.1-9.5 8.5-14.9 11.3-14.9 1.2 0 1.7.7 1.7 2.2 0 .7-.1 2-.2 2.7L40.4 502c-.1.8-.2 1.6-.2 1.9 0 .4.1.6.9.7l2.8.5-.1 1.4c-2.3 0-4.6.2-6.7.6l-.6-.8 1.8-17.1c.1-.5.1-.9.1-1.1 0-.3-.1-.5-.3-.5-1.2 0-4 4.4-5.5 7.3-1.6 3-3.1 6.6-4.3 10.2-.5 1.5-.6 1.7-1.2 1.7h-2l-.3-.5 2.3-21.9c.5-4.8.9-9.7.8-14.7l3.6-1.1.6.5-3.5 29.1zm31 .1c-3.7 5.9-7.2 9-10.3 9-2.2 0-3.2-1.6-3.2-5.7 0-4.5 2.2-18.2 7.6-18.2 3 0 7.1 1.2 7.1 3.3 0 2.5-4.2 6.2-11.2 9.7-.2 1.2-.2 2.5-.2 3.5.1 2.5.6 3.6 1.6 3.6 1.6 0 3.7-1.7 7-6.2l1.6 1zm-2.4-10.6c0-.8-1.6-1.5-3.3-1.5-2.5 0-3.8 5.4-4.1 7.5 5.3-2.8 7.4-4.8 7.4-6zm26.9 24.7c-.1.8-.1 1.4-.1 1.9 0 .4.1.5.4.5.3 0 .7-.1 1-.1.3-.1 1.4-.2 1.9-.2l-.3 2.3c-3 .2-7.5 1-11 2.4l.2-2.4c1-.4 2-.7 2.7-1 1.5-.5 1.5-.7 1.8-2.9l2.6-20.9h-.2c-4 8.9-8.7 15.2-11.6 15.2-1.4 0-2-1.4-2-4 0-2.8.7-8 2.4-12.4 1.6-4.2 3.4-7.5 6-7.5 1.8 0 4.1.6 6 1.2.5-1.4.6-1.8 1.3-1.8.3 0 1.2.2 1.9.5l-3 29.2zm-5.6-26.2c-1.7 0-3.2 2.4-4.2 6-.9 2.9-1.3 6.5-1.3 9.1 0 1.3.1 1.6.6 1.6.3 0 .6-.2 1.6-1.4 3.2-4 5.8-9 8.1-14.6-1.3-.4-3.2-.7-4.8-.7zm26.2 5.7h-.2c-3.8 8.8-8.6 15.4-11.5 15.4-1.3 0-1.8-1-1.8-2.5 0-.8.2-1.8.3-2.4l2.3-15.6-3.4-.8.1-1.1 6.3-1.5.8.5-2.5 17.4c-.1.5-.1.8-.1 1.1 0 .3 0 .6.3.6.5 0 1.1-.9 2.2-2.5 3.4-4.9 6.5-11.6 7.8-15.8.3-.9.5-1.4 1.1-1.4.6 0 1.5.2 2.3.6l-1.9 18.1c-.1.8-.2 1.6-.2 1.9 0 .4.1.6 1 .7l2.8.5-.1 1.4c-2.3 0-4.6.2-6.7.6l-.6-.8 1.7-14.4z" class="st1"/><path d="M119.3 483.9c-.3 1.7-.7 4.2-.9 6.4l-1.1 10.4c-.2 1.6-.3 2.7-.3 3.2 0 .3.2.6 1.1.7l2.1.3-.2 1.8c-1.9-.1-3.6-.2-5.1-.2-1.4 0-3.3.1-5.2.2l.3-1.8 2.1-.3c.7-.1 1-.2 1.2-.3.2-.2.3-.6.6-3.5l1.5-14.1-3.4-.8.1-1.1 6.5-1.5.7.6zm1.3-11.9l-2.1 7.4-1.6.4-.7-7.5 4-1 .4.7zm14.7 26.1c-3.2 5.8-6.7 9.1-9.7 9.1-2 0-2.7-1.6-2.7-5.8 0-7.8 2.9-18.1 7-18.1 1.1 0 3.6.5 5.4 1.1.6.3 1.1.5 1.1 1 0 .6-.3 1.6-1 2.5-2-.7-4-1.2-5.3-1.2-3 0-4.1 7.9-4.1 12.5 0 2.9.6 4.2 1.4 4.2 1.1 0 2.8-1.6 5.9-6.3l2 1zm6.7-3.4h.4c2.5-4.9 7-11.3 10.9-11.3 1.2 0 1.9.7 1.9 2.7 0 4.1-1.6 8.9-4.7 13.9 1.6 1.9 3.5 4.8 4.7 7l-1.7 1.2c-2.6-3.2-5.6-6.5-8.6-9.3.6-.8 1.4-1.7 2-2.3.6.5.9.7 1.2.7 2 0 3.6-6.4 3.6-8.8 0-.9-.3-1.2-.7-1.2-1.2 0-2.9 2.1-4.3 4.1-2.5 3.6-4.5 7.5-5.5 13.6-.3 1.8-.5 1.9-1.2 1.9h-1.8l-.3-.5 2.3-21.9c.5-4.8.9-9.7.8-14.7l3.7-1.1.6.5-3.3 25.5zm28.3-.2h.2c3.3-6.7 7.3-11.2 10.4-11.2 1.5 0 2.2 1.2 2.2 4.2 0 4.6-1.5 11.4-3.4 15.4-1.8 3.8-3.4 4.4-5 4.4-1.5 0-3-.5-5.6-1.3-.1.7-.3 1-1 1h-1.6l-.3-.5 2.3-22c.5-4.8.8-9.7.8-14.7l3.7-1.1.5.4-3.2 25.4zm3.6 9.8c1.1 0 2-.2 3-2.1 1.3-2.3 2.7-8.4 2.7-12.3 0-2-.4-2.5-1-2.5-2.4 0-6.7 7.3-9.4 15.8 1.7.6 3.6 1.1 4.7 1.1zm17-10.4h.4c1.6-4 3.5-7.7 5.2-9.7.6-.6 1.2-1 1.8-1 .6 0 1.6.2 2.6.6.7.3 1 .5 1 1 0 .7-.5 1.8-1.1 2.8-.7-.3-1.6-.6-2.1-.6-1.1 0-2.6 1.6-4.2 4.4-2.2 3.8-4.1 9.3-4.1 12.1 0 .5.2.7 1.3.8l3.8.5-.2 1.8c-1.8-.1-4.4-.2-6.1-.2-1.7 0-4.1 0-6 .2l.2-1.8 2.5-.4c.7-.2 1-.4 1.1-1.5l1.7-16.5-3.4-.8.1-1.1 6.3-1.5.8.6-1.6 10.3zm20.8 8.6c-2.4 2.8-5.1 4.7-7.1 4.7-2.2 0-3.3-2.1-3.3-7.4 0-4.5 1.2-11.2 3.5-14.9.7-1.1 1.5-1.6 2.9-1.6 2.1 0 5 .5 6.8 1 2.1.6 2.4 1.5 2.4 3.3.1 5.2-1.8 10.9-5.2 14.9zm1.3-15.2c-.9-.7-3.6-1-4.7-1s-1.6.3-2.1 1.5c-1 2.9-1.6 6.7-1.6 10.4s.8 5.4 1.6 5.4 1.6-.4 2.8-1.8c2.5-2.8 4.6-8.4 4.6-12.9.1-.8-.1-1.3-.6-1.6zm5.2-2.6l6.2-1.5.8.5-1.8 13.7c-.2 1.3-.3 3-.3 4.2h.3c1.1-2.3 3.6-6 5.2-8.3 2.8-4.1 4-6.4 4.8-9.5.6-.1 1.4-.3 1.9-.6l.7.3c.1.6.1 1.9.1 2.7 0 1.4-.1 3.7-.1 4.7-.1 1.8-.2 3.7-.2 5.6 0 2.7.2 4.6.6 6 2.8-2.8 6.5-8.1 6.5-12.4 0-1.9-.3-3.7-1.1-6.4 1-.5 2-.6 2.6-.6.4 0 .7.1.8.5.6 1.4 1 3.9 1 5.8 0 1.6-.5 3.4-1.6 5.5-2.2 4-5 8-7.5 11l-3.2 1.2c-1-2.7-1.5-5.8-1.5-9.5 0-2.3.1-5.1.3-7.2-1.5 2.4-3.3 4.9-4.8 7.2-1.4 2.2-3.4 5.5-4.6 8.1l-3.6 1.3c-.1-.7-.2-1.3-.2-2.1 0-1.8.1-3 .3-5l1.5-13.6-3.4-.7.3-.9zm34.8 13.5h.3c4.1-9.5 8.5-14.9 11.3-14.9 1.3 0 1.8.7 1.8 2.2 0 .7-.2 2-.2 2.7l-1.4 13.8c-.1.8-.2 1.6-.2 1.9 0 .4.1.6.9.7l2.9.5-.1 1.4c-2.3 0-4.6.2-6.7.6l-.6-.8 1.8-17.1c.1-.5.1-.9.1-1.1 0-.3-.2-.5-.4-.5-1.2 0-4 4.4-5.4 7.3-1.6 3-3.2 6.6-4.3 10.2-.6 1.5-.6 1.7-1.2 1.7h-2l-.3-.5 2-19.6-3.4-.8.1-1.1 6.3-1.5.7.5-2 14.4zm37.3-11.9l-5.8-.2-1.2 14.7c-.6 7-1.1 9.7-2.6 12.1-1.5 2.6-5 6.5-8.8 6.5-2.2 0-3.4-.5-3.4-1.4 0-.6.4-1.6 1-2.6 1.5.5 2.4.7 3.4.7 1.6 0 2.7-.4 3.5-1.5 2.2-2.8 2.9-7.4 3.4-13l1.4-15.6-3.3-.2.2-2 3.2-.1c.5-4.7 1.1-7.8 2.9-11 1.5-2.4 3.1-3.9 4.7-3.9 1 0 2.6.3 3.7.7.6.2.9.5.9 1 0 .7-.3 1.7-.8 2.7-1.6-.6-3.3-1-4.3-1s-1.7.5-2.1 1.5c-1 2.4-1.5 7.3-1.6 9.8l5.8-.2-.2 3zm9.4 16.2c-2.4 2.8-5.1 4.7-7.1 4.7-2.2 0-3.3-2.1-3.3-7.4 0-4.5 1.2-11.2 3.5-14.9.7-1.1 1.5-1.6 2.9-1.6 2.1 0 5 .5 6.8 1 2.1.6 2.4 1.5 2.4 3.3.2 5.2-1.8 10.9-5.2 14.9zm1.4-15.2c-.9-.7-3.6-1-4.7-1s-1.6.3-2.1 1.5c-1 2.9-1.6 6.7-1.6 10.4s.8 5.4 1.6 5.4 1.6-.4 2.8-1.8c2.5-2.8 4.6-8.4 4.6-12.9 0-.8-.2-1.3-.6-1.6zm13.5 4.8l1.2-1.5c1.6-2.1 3.7-5.3 4.8-7.5 1 .5 2.3 1.5 2.9 2.2-1.8 1.8-4.6 5.3-6.4 7.6l-1.4 1.8 1.1 2.6c.6 1.4 2.2 4.5 3 5.8l4-.2.3 1.4c-2.5.7-4.8 1.7-6.6 2.8l-4.2-9.8-2 2.7c-1.5 2-2.8 4.1-3.8 6.4l-3.1.7-.9-1 8.6-11.3-1.1-2.4c-1.1-2.5-2.7-5.5-3.8-7.4l.3-1 3-.6 4.1 8.7zm24.9-8.3c-.5 2.1-.6 4.3-.8 6.5l-.5 6.1c-.4 5.3-1.1 11.2-3.3 15.7-2.1 4.2-5.6 6.5-7.8 6.5-1.1 0-3.2-.6-4.6-1.4l.3-1.5c1 .1 1.9.1 2.7.1 3.1 0 5-.8 6.4-3.7 1.6-3.1 2.6-10.6 3-16.5l.7-8.9-3.4-.8.1-1.1 6.5-1.5.7.5zm.8-11.8l-2 7.4-1.7.4-.8-7.5 4-1 .5.7zm16.6 19.9h-.2c-3.8 8.8-8.6 15.4-11.5 15.4-1.3 0-1.8-1-1.8-2.5 0-.8.2-1.8.3-2.4l2.3-15.6-3.4-.8.1-1.1 6.3-1.5.8.5-2.5 17.4c-.1.5-.1.8-.1 1.1 0 .3 0 .6.3.6.5 0 1.1-.9 2.2-2.5 3.4-4.9 6.5-11.6 7.8-15.8.3-.9.5-1.4 1.1-1.4.6 0 1.5.2 2.3.6L359 502c-.1.8-.2 1.6-.2 1.9 0 .4.1.6 1 .7l2.8.5-.1 1.4c-2.3 0-4.6.2-6.7.6l-.6-.8 1.7-14.4zm12.7 5.7h.3c3.8-8.8 7.8-14.3 10.6-14.3 1.1 0 1.7.7 1.7 2.1 0 .7-.1 1.6-.2 2.3l-1.4 9.9h.3c3.8-8.9 7.8-14.3 10.4-14.3 1.2 0 1.8.7 1.8 2.1 0 .6-.1 1.4-.2 2.3l-1.5 14.3c-.1.8-.2 1.6-.2 1.9 0 .4.1.6 1 .7l2.8.5-.1 1.4c-2.3 0-4.5.2-6.6.6l-.6-.8 1.8-17.1c.1-.5.1-.8.1-1.1 0-.3-.1-.5-.3-.5-1.2 0-3.7 4.7-4.9 7.3-1.6 3.2-3.2 6.8-4.4 10.4-.5 1.4-.4 1.4-1 1.4h-1.8l-.3-.5 1.8-17.1c.1-.5.1-.9.1-1.1 0-.4-.2-.5-.3-.5-1.3 0-3.6 4.4-5.1 7.3-1.5 3.1-3 6.7-4.1 9.8-.6 1.8-.7 2-1.2 2h-2l-.3-.5 2-19.6-3.4-.8.1-1.1 6.2-1.5.7.5-1.8 14zm34.8-17.7l-.6 4.5c1.9-.8 3.6-1.1 5.1-1.1 3.4 0 5.3 1.8 5.3 5.4 0 7.2-5 15.9-12.8 18.5l-.6 5.5c-.1.6-.2 1.3-.2 1.8 0 .4.2.5.5.5s.9-.1 1.6-.2c.7-.1 1.9-.2 2.6-.2l-.3 2.4c-3.4.1-7.5.8-11 2.2l.2-2.3c.5-.2 1.1-.3 1.6-.6 1.2-.5 1.4-.7 1.6-2.8l2.5-24.3c-.7.4-2 1.3-2.5 1.8l-1.1-1.5c1-1.1 2.8-2.5 4-3.2.2-1.9.2-4.5.1-5.9l2.9-1 1.1.5zm-2.6 24.4c5.3-2.2 9-8.5 9-13.8 0-2.8-1.1-4.2-3.4-4.2-1.4 0-2.6.3-3.8 1l-1.8 17zm20.2-18c-1.6 0-2.5 1-2.5 2.4s1.2 2.9 3 4.9c2 2.2 3.7 4.3 3.7 6.6 0 2.9-3.4 7.1-6.7 7.1-1.4 0-5.1-1.5-5.1-2.8 0-.6.6-1.5 1.6-2.4 1.6 1.3 2.9 2 4.1 2 1.7 0 2.9-1 2.9-2.8 0-1.7-1.7-4-3.3-5.8-1.7-2.1-3.3-4-3.3-5.9 0-2.7 3.4-6.3 6.3-6.3 2.4 0 4.5.8 4.5 1.9 0 .5-.3 1.2-1 2.4-1.7-.8-3-1.3-4.2-1.3zm25.1 16.2c-2.4 2.8-5.1 4.7-7.1 4.7-2.2 0-3.3-2.1-3.3-7.4 0-4.5 1.2-11.2 3.5-14.9.7-1.1 1.5-1.6 2.9-1.6 2.1 0 5 .5 6.8 1 2.1.6 2.4 1.5 2.4 3.3.2 5.2-1.8 10.9-5.2 14.9zm1.3-15.2c-.9-.7-3.6-1-4.7-1s-1.6.3-2.1 1.5c-1 2.9-1.6 6.7-1.6 10.4s.8 5.4 1.6 5.4 1.6-.4 2.8-1.8c2.5-2.8 4.6-8.4 4.6-12.9.1-.8-.1-1.3-.6-1.6zm4.7-2.6l5.1-1.5.7.5c.8 3.9 1 7.3 1 12.2 0 2.5-.1 5.1-.3 6.6 4.7-4.7 6.9-8.8 6.9-12.6 0-2.1-.5-4.2-1.1-6 1-.5 2.1-.6 2.8-.6.4 0 .7.2 1 1 .4 1.3.7 2.9.7 5.1 0 5.3-6.4 12.9-9.8 16.4l-3.3 1.4-.7-.8c.3-3.4.5-7 .5-10.4 0-4-.3-7.1-.6-9.3l-2.9-.7v-1.3zm31.9 13.6c-3.7 5.9-7.2 9-10.3 9-2.2 0-3.2-1.6-3.2-5.7 0-4.5 2.2-18.2 7.6-18.2 3 0 7.1 1.2 7.1 3.3 0 2.5-4.2 6.2-11.2 9.7-.2 1.2-.2 2.5-.2 3.5.1 2.5.6 3.6 1.6 3.6 1.6 0 3.7-1.7 7-6.2l1.6 1zm-2.3-10.6c0-.8-1.6-1.5-3.3-1.5-2.5 0-3.8 5.4-4.1 7.5 5.2-2.8 7.4-4.8 7.4-6zm10.4 6.2h.4c1.6-4 3.5-7.7 5.2-9.7.6-.6 1.2-1 1.8-1 .6 0 1.6.2 2.6.6.7.3 1 .5 1 1 0 .7-.5 1.8-1.1 2.8-.7-.3-1.6-.6-2.1-.6-1.1 0-2.6 1.6-4.2 4.4-2.2 3.8-4.1 9.3-4.1 12.1 0 .5.2.7 1.3.8l3.8.5-.2 1.8c-1.8-.1-4.4-.2-6.1-.2-1.7 0-4.1 0-6 .2l.2-1.8 2.5-.4c.7-.2 1-.4 1.1-1.5l1.7-16.5-3.4-.8.1-1.1 6.3-1.5.8.6-1.6 10.3zm29.7-7.7l-5.4-.2-1.2 11.3c-.2 1.6-.2 2.7-.2 3.7 0 3.2 2 3.3 5.6 3.3l.3 1.2c-2.8 1-4.6 1.5-5.8 1.5-2.2 0-3.6-2-3.6-5.1 0-.9.1-1.8.2-2.7l1.4-13.6-2.4-.2.2-1.9 2.5-.1.6-5.6c1.1-.2 2-.3 3-.8l.7.6c-.4 1.7-.8 3.9-1 5.6l5.4-.2-.3 3.2zm4.6 12h.3c4.1-9.5 8.5-14.9 11.3-14.9 1.2 0 1.7.7 1.7 2.2 0 .7-.1 2-.2 2.7l-1.4 13.8c-.1.8-.2 1.6-.2 1.9 0 .4.1.6.9.7l2.8.5-.1 1.4c-2.3 0-4.6.2-6.7.6l-.6-.8 1.8-17.1c.1-.5.1-.9.1-1.1 0-.3-.1-.5-.3-.5-1.2 0-4 4.4-5.5 7.3-1.6 3-3.1 6.6-4.3 10.2-.5 1.5-.6 1.7-1.2 1.7h-2l-.3-.5 2.3-21.9c.5-4.8.9-9.7.8-14.7l3.6-1.1.6.5-3.4 29.1zm31 .1c-3.7 5.9-7.2 9-10.3 9-2.2 0-3.2-1.6-3.2-5.7 0-4.5 2.2-18.2 7.6-18.2 3 0 7.1 1.2 7.1 3.3 0 2.5-4.2 6.2-11.2 9.7-.2 1.2-.2 2.5-.2 3.5.1 2.5.6 3.6 1.6 3.6 1.6 0 3.7-1.7 7-6.2l1.6 1zm-2.4-10.6c0-.8-1.6-1.5-3.3-1.5-2.5 0-3.8 5.4-4.1 7.5 5.3-2.8 7.4-4.8 7.4-6zm17.3 13c-.2 1.6-.3 2.7-.3 3.2 0 .4.2.6 1.1.7l2.1.3-.1 1.8c-1.9-.1-3.7-.2-5.1-.2-1.5 0-3.3.1-5.1.2l.2-1.8 2.1-.3c.7-.1 1-.2 1.1-.3.2-.2.3-.6.6-3.5l1.7-16.3c.5-4.8.8-9.8.8-14.7l3.5-1.1.6.5-3.2 31.5zm19.1-8.7h-.2c-4 8.9-8.7 15.2-11.6 15.2-1.4 0-2-1.4-2-4 0-2.8.7-8 2.4-12.4 1.6-4.2 3.4-7.5 6-7.5 1.8 0 4.1.6 6 1.2.5-1.4.6-1.8 1.3-1.8.3 0 1.2.2 1.9.5l-2 18.8c-.1.8-.2 1.6-.2 1.9 0 .4.2.6 1 .7l2.8.5-.1 1.4c-2.3 0-4.6.2-6.7.6l-.6-.8 2-14.3zm-4.8-5.8c-1.7 0-3.2 2.4-4.2 6-.9 2.9-1.3 6.5-1.3 9.1 0 1.3.1 1.6.6 1.6.3 0 .6-.2 1.6-1.4 3.2-4 5.8-9 8.1-14.6-1.3-.4-3.2-.7-4.8-.7zm12.1-.3l.3-2.7c4.2.5 7.5.7 10.4.7 2.1 0 2.7-.1 3.9-.7l.9 1-11.2 16.7 9.8 7.9-1.2 1.6c-1.8-1.3-9-5.9-10.4-5.9-.6 0-1.2.7-1.8 1.6-.3.5-.6.6-.9.6-.3 0-1.2-.6-1.7-1.2 4.3-6.3 8.8-13.3 11.8-19.2h-9.3l-.6-.4z" class="st1"/><path d="M631.3 503.1c-.5 5-1.1 7.3-2.8 9.9-1.6 2.9-5.4 6.5-9 6.5-1.8 0-6.5-1.1-6.5-2.7 0-.8.6-1.9 1.1-2.5 2.1 1.1 4.3 1.9 6.6 1.9 1.4 0 2.5-.5 3.6-1.6 2.8-3.2 3.4-7.3 4.1-14 .3-4.1.8-6.6 1.2-8.7h-.2c-3.8 8.8-8.6 15.4-11.5 15.4-1.3 0-1.8-1-1.8-2.5 0-.8.1-1.8.2-2.4l2.3-15.6-3.4-.8.1-1.1 6.3-1.5.7.5-2.5 17.4c-.1.5-.1.8-.1 1.1 0 .3.1.6.3.6.5 0 1.1-.8 2.2-2.4 3.4-4.9 6.5-11.6 7.8-15.8.3-.9.5-1.4 1.1-1.4s1.3.2 2.1.6l-1.9 19.1zm24.5 3.2l2-14.3h-.2c-4 8.9-8.7 15.2-11.6 15.2-1.4 0-2-1.4-2-4 0-2.8.7-8 2.4-12.4 1.6-4.2 3.4-7.5 6-7.5 1.8 0 3.8.6 5.8 1.2l.2-1.8c.6-4.3.7-8.6.7-13l3.6-1.1.5.4-3.5 33c-.1.8-.2 1.6-.2 1.9 0 .4.2.6 1 .7l2.8.5-.1 1.4c-2.3 0-4.6.2-6.7.6l-.7-.8zm-2.8-20.1c-1.7 0-3.2 2.4-4.2 6-.9 2.9-1.3 6.5-1.3 9.1 0 1.3.1 1.6.6 1.6.3 0 .6-.2 1.6-1.4 3.2-4 5.8-9 8.1-14.6-1.3-.4-3.3-.7-4.8-.7zm22.8 16.3c-2.4 2.8-5.1 4.7-7.1 4.7-2.2 0-3.3-2.1-3.3-7.4 0-4.5 1.2-11.2 3.5-14.9.7-1.1 1.5-1.6 2.9-1.6 2.1 0 5 .5 6.8 1 2.1.6 2.4 1.5 2.4 3.3.1 5.2-1.8 10.9-5.2 14.9zm1.3-15.2c-.9-.7-3.6-1-4.7-1s-1.6.3-2.1 1.5c-1 2.9-1.6 6.7-1.6 10.4s.8 5.4 1.6 5.4 1.6-.4 2.8-1.8c2.5-2.8 4.6-8.4 4.6-12.9.1-.8-.1-1.3-.6-1.6zm4.9 16.4l3.6-3.4c-1.1-1.6-1.7-4.2-1.7-6.7 0-6.2 1.6-10.3 4.5-10.3 1.4 0 2.9.6 4.9 2l2.8-4.5c1 .5 2.1 1.5 2.7 2.3l-3.7 3.4c1.4 1 3.1 2.8 3.1 4.2 0 4.3-8.9 9.8-12.4 11.5 3.6.5 7.9 1.6 9.9 2.5 1.6.7 2.5 1.6 2.5 2.8 0 2.4-2.2 5.4-6.3 8-4 2.5-7.2 3.3-9 3.3-.7 0-1.4-.3-1.8-.8-1-1.3-1.6-3.8-1.6-6 0-2.1 1.2-2.3 2.9-2.3 0 2.8.3 5.9 2.4 5.9 1.1 0 2.8-.5 5-1.7 3-1.8 4.6-3.5 4.6-5.1 0-.7-.5-1.1-1.4-1.6-1.8-.9-6.7-2.1-10.6-2.5l-.4-1zm6.8-6.2c.6 0 1.8-.8 3.4-2.4 1.6-1.5 2.3-2.7 2.3-3.6 0-.8-.5-1.9-2.7-3.6-1.6-1.4-2.8-1.8-3.4-1.8-1 0-1.4 1.7-1.4 4.7-.1 4 .7 6.7 1.8 6.7z" class="st1"/><path d="M11.4 223.6c-4.6 0-8-1.4-10.3-3.7l2.6-2.9c2 1.8 4.4 2.9 7.7 2.9 3.2 0 5.8-1.5 5.8-4.5 0-2.5-1.2-3.7-5.8-5-6-1.8-9.1-4-9.1-8.4 0-4.6 4.1-7.6 9.7-7.6 4 0 7 1.2 9.4 3.4l-2.5 2.8c-2-1.7-4.3-2.5-6.6-2.5-2.9 0-5.1 1.2-5.1 3.6 0 2.2 1.5 3.2 6.5 4.7 4.7 1.4 8.4 3.4 8.4 8.7 0 5.1-3.9 8.5-10.7 8.5zm25.9-6.3c0 2 1.4 2.7 3.3 2.7 1.2 0 2.3-.3 3.4-.7l1.1 3.2c-1.2.7-3.1 1.2-5.5 1.2-4.3 0-6.8-2.5-6.8-6.8v-20.5h-6.4V193h11v24.3h-.1zm33 3.2l-1.1 3.1c-2.1-.2-3.7-1.1-4.4-3-1.6 2-4.1 3-6.8 3-4.4 0-7.1-2.7-7.1-6.7 0-4.5 3.7-7.1 10.2-7.1h3v-1.4c0-2.8-1.8-3.9-4.7-3.9-1.4 0-3.6.3-5.7 1.1l-1.1-3.2c2.7-1 5.3-1.5 7.5-1.5 5.8 0 8.6 2.7 8.6 7.2v9.6c0 1.8.5 2.5 1.6 2.8zm-6.2-3v-4.7h-2.5c-4.3 0-5.9 1.5-5.9 4 0 2.3 1.2 3.5 3.6 3.5 1.9 0 3.8-1 4.8-2.8zm12.5-15.9h4l.3 2.8c1.8-2.2 4.3-3.4 6.9-3.4 4 0 6 2.4 6 6.4V223h-4.6v-13.3c0-3.7-.5-5.1-3-5.1-2.1 0-3.9 1.5-5 3.1v15.4h-4.6v-21.5zm36.1 22c-5 0-7.6-2.8-7.6-7.1V205h-4.7v-3.3h4.7v-4.8l4.6-.5v5.3h7.3l-.5 3.3h-6.8v11.6c0 2.3 1.1 3.4 3.7 3.4 1.5 0 2.9-.4 4-1l1.6 3c-1.6 1-3.9 1.6-6.3 1.6zm22.4-3.5c2.1 0 3.8-.7 5.6-1.9l2 2.8c-2 1.6-4.8 2.7-7.8 2.7-6.7 0-10.4-4.6-10.4-11.2 0-6.4 3.7-11.3 9.8-11.3 5.7 0 9.3 4.1 9.3 10.7 0 .7-.1 1.5-.1 2h-14.2c.2 4.3 2.7 6.2 5.8 6.2zm-6-9.3h9.9c-.1-4.1-1.8-6.3-4.8-6.3-2.7-.1-4.8 1.9-5.1 6.3zM167 193v30.1h-4l-.3-2.7c-1.4 2-3.5 3.2-6 3.2-5.5 0-8.1-4.5-8.1-11.2 0-6.5 3.2-11.3 8.5-11.3 2.3 0 4 .8 5.4 2.4v-11l4.5.5zm-13.6 19.4c0 5.5 1.6 7.8 4.5 7.8 2 0 3.6-1.4 4.6-3.1V207c-1.1-1.5-2.5-2.4-4.2-2.4-3.2 0-4.9 2.4-4.9 7.8zm53.2 11.2c-4.6 0-8-1.4-10.3-3.7l2.6-2.9c2 1.8 4.4 2.9 7.7 2.9 3.2 0 5.8-1.5 5.8-4.5 0-2.5-1.2-3.7-5.8-5-6-1.8-9.1-4-9.1-8.4 0-4.6 4.1-7.6 9.7-7.6 4 0 7 1.2 9.4 3.4l-2.5 2.8c-2-1.7-4.3-2.5-6.6-2.5-2.9 0-5.1 1.2-5.1 3.6 0 2.2 1.5 3.2 6.5 4.7 4.7 1.4 8.4 3.4 8.4 8.7 0 5.1-4 8.5-10.7 8.5zm34.5-3.1l-1.1 3.1c-2.1-.2-3.7-1.1-4.4-3-1.6 2-4.1 3-6.8 3-4.4 0-7.1-2.7-7.1-6.7 0-4.5 3.7-7.1 10.2-7.1h3v-1.4c0-2.8-1.8-3.9-4.7-3.9-1.4 0-3.6.3-5.7 1.1l-1.1-3.2c2.7-1 5.3-1.5 7.5-1.5 5.8 0 8.6 2.7 8.6 7.2v9.6c-.1 1.8.4 2.5 1.6 2.8zm-6.2-3v-4.7h-2.5c-4.3 0-5.9 1.5-5.9 4 0 2.3 1.2 3.5 3.6 3.5 1.8 0 3.7-1 4.8-2.8zm12.5-15.9h4l.3 2.8c1.8-2.2 4.3-3.4 6.9-3.4 4 0 6 2.4 6 6.4V223H260v-13.3c0-3.7-.5-5.1-3-5.1-2.1 0-3.9 1.5-5 3.1v15.4h-4.6v-21.5zm36.8 15.7c0-1.8-.7-2.5-5.1-3.7-4.3-1.1-7.1-2.6-7.1-6.3s3.3-6.2 8.6-6.2c3.6 0 6.2 1.1 8.2 2.5l-2 2.9c-1.7-1.1-3.6-1.9-6.1-1.9-2.9 0-4.1 1-4.1 2.4 0 1.6 1.2 2.3 5.4 3.4s6.9 2.6 6.9 6.7c0 4.7-4.6 6.7-9.5 6.7-4 0-6.8-1.3-8.8-3l2.4-2.8c1.7 1.4 3.9 2.3 6.4 2.3 3-.1 4.8-1.2 4.8-3zm44.3 6.3c-4.6 0-8-1.4-10.3-3.7l2.6-2.9c2 1.8 4.4 2.9 7.7 2.9 3.2 0 5.8-1.5 5.8-4.5 0-2.5-1.2-3.7-5.8-5-6-1.8-9.1-4-9.1-8.4 0-4.6 4.1-7.6 9.7-7.6 4 0 7 1.2 9.4 3.4l-2.5 2.8c-2-1.7-4.3-2.5-6.6-2.5-2.9 0-5.1 1.2-5.1 3.6 0 2.2 1.5 3.2 6.5 4.7 4.7 1.4 8.4 3.4 8.4 8.7 0 5.1-3.9 8.5-10.7 8.5zm26.1-3.5c2.1 0 3.8-.7 5.6-1.9l2 2.8c-2 1.6-4.8 2.7-7.8 2.7-6.7 0-10.4-4.6-10.4-11.2 0-6.4 3.7-11.3 9.8-11.3 5.7 0 9.3 4.1 9.3 10.7 0 .7-.1 1.5-.1 2h-14.2c.2 4.3 2.7 6.2 5.8 6.2zm-5.9-9.3h9.9c-.1-4.1-1.8-6.3-4.8-6.3-2.8-.1-4.8 1.9-5.1 6.3zm39.1-9.2l-.8 7.9h-3.2v-4.4c-3 .1-5.3 2.5-6.5 6.7v8h4.3v3.3h-12v-3.3h3.2v-15h-3.2v-3.3h6.6l.8 5c1.6-3.6 3.8-5.5 7.6-5.5 1.2.1 2.2.3 3.2.6zm17.6 18.2h5.9v3.3h-16.8v-3.3h6.4V205h-6.2v-3.3h10.7v18.1zm-.1-25.8c0 1.6-1.2 2.8-3 2.8s-3-1.2-3-2.8c0-1.6 1.2-2.9 3-2.9s3 1.3 3 2.9zm32.3-.2l-1.4 3.2c-1.4-.6-3-.9-4.6-.9-2.8 0-4.1 1.1-4.1 3.3v3.8h7.2l-.5 3.4h-6.7v16.5H423v-16.5h-4.9v-3.4h4.9v-3.8c0-4.1 3.3-6.8 8.2-6.8 2.6-.1 4.6.4 6.4 1.2zM20.5 560.5h-6.1v20.8h6.1v3.6H3.6v-3.6h6.1v-20.8H3.6V557h16.9v3.5zm19 25c-5 0-7.6-2.8-7.6-7.1v-11.6h-4.7v-3.3h4.7v-4.8l4.6-.5v5.3h7.3l-.5 3.3h-6.8v11.6c0 2.3 1.1 3.4 3.7 3.4 1.5 0 2.9-.4 4-1l1.6 3c-1.6 1.1-3.9 1.7-6.3 1.7zm30.8-3l-1.1 3.1c-2.1-.2-3.7-1.1-4.4-3-1.6 2-4.1 3-6.8 3-4.4 0-7.1-2.7-7.1-6.7 0-4.5 3.7-7.1 10.2-7.1h3v-1.4c0-2.8-1.8-3.9-4.7-3.9-1.4 0-3.6.3-5.7 1.1l-1.1-3.2c2.7-1 5.3-1.5 7.5-1.5 5.8 0 8.6 2.7 8.6 7.2v9.6c0 1.8.5 2.4 1.6 2.8zm-6.2-3.1v-4.7h-2.5c-4.3 0-5.9 1.5-5.9 4 0 2.3 1.2 3.5 3.6 3.5 1.9 0 3.8-1 4.8-2.8zm22-.2c0 2 1.4 2.7 3.3 2.7 1.2 0 2.3-.3 3.4-.7l1.1 3.2c-1.2.7-3.1 1.2-5.5 1.2-4.3 0-6.8-2.5-6.8-6.8v-20.5H75V555h11v24.2h.1zm26.6 2.5h5.9v3.3h-16.8v-3.3h6.4v-14.8H102v-3.3h10.7v18.1zm-.1-25.8c0 1.6-1.2 2.8-3 2.8s-3-1.2-3-2.8c0-1.6 1.2-2.9 3-2.9 1.7 0 3 1.3 3 2.9zm28.5 24.1l2.1 2.9c-1.9 1.6-4.7 2.7-7.5 2.7-6.6 0-10.4-4.4-10.4-11.1 0-6.5 3.9-11.4 10.5-11.4 2.9 0 5.4.9 7.5 2.6l-2.1 2.8c-1.7-1.1-3.4-1.8-5.3-1.8-3.4 0-5.8 2.4-5.8 7.8s2.4 7.4 5.8 7.4c1.9-.1 3.6-.9 5.2-1.9zm45.5-.8c0-1.8-.7-2.5-5.1-3.7-4.3-1.1-7.1-2.6-7.1-6.3 0-3.7 3.3-6.2 8.6-6.2 3.6 0 6.2 1.1 8.2 2.5l-2 2.9c-1.7-1.1-3.6-1.9-6.1-1.9-2.9 0-4.1 1-4.1 2.4 0 1.6 1.2 2.3 5.4 3.4s6.9 2.6 6.9 6.7c0 4.7-4.6 6.7-9.5 6.7-4 0-6.8-1.3-8.8-3l2.4-2.8c1.7 1.4 3.9 2.3 6.4 2.3 3.1-.1 4.8-1.2 4.8-3zm21.6 2.8c2.1 0 3.8-.7 5.6-1.9l2 2.8c-2 1.6-4.8 2.7-7.8 2.7-6.7 0-10.4-4.6-10.4-11.2 0-6.4 3.7-11.3 9.8-11.3 5.7 0 9.3 4.1 9.3 10.7 0 .7-.1 1.5-.1 2h-14.2c.3 4.4 2.7 6.2 5.8 6.2zm-5.9-9.3h9.9c-.1-4.1-1.8-6.3-4.8-6.3-2.8-.1-4.8 2-5.1 6.3zm39.1-9.1l-.8 7.9h-3.3v-4.4c-3 .1-5.3 2.5-6.5 6.7v8h4.3v3.3h-12v-3.3h3.2v-15h-3.2v-3.3h6.6l.8 5c1.6-3.6 3.8-5.5 7.6-5.5 1.4 0 2.4.2 3.3.6zm17.7 18.1h5.9v3.3h-16.8v-3.3h6.4v-14.8h-6.2v-3.3h10.7v18.1zm-.2-25.8c0 1.6-1.2 2.8-3 2.8s-3-1.2-3-2.8c0-1.6 1.2-2.9 3-2.9s3 1.3 3 2.9zm32.3-.2l-1.4 3.2c-1.4-.6-3-.9-4.6-.9-2.8 0-4.1 1.1-4.1 3.3v3.8h7.2l-.5 3.4h-6.7V585h-4.6v-16.5h-4.9v-3.4h4.9v-3.8c0-4.1 3.3-6.8 8.2-6.8 2.8-.1 4.7.4 6.5 1.2z" class="st2"/></svg>