<svg xmlns="http://www.w3.org/2000/svg" viewBox="0 0 680.62 477.02" width="680.62" height="477.02"><defs><style>.b485a97a-8777-41f5-9e65-dcbbe00ccb7e{fill:#505050}.a6487767-3f3c-4137-acaa-9833411ea020{fill:#2997ff}.fd00f30c-ec23-4e88-b31b-1993f595a22a{fill:none;stroke:#b3b3b3;stroke-miterlimit:10;stroke-width:2px}</style></defs><g id="b91d29f4-2f49-499c-b5ba-91acbc8997f6"><g id="e500d052-32a5-475e-8f23-0c806157c7c3"><path d="M11.1 166.3H7.91L12 140.63H5.06l.46-3H22.6l-.45 3h-7zM27.84 135l-2.47 15.56v.08A7.26 7.26 0 0 1 31 148c4.94 0 5.51 3.57 4.82 7.74L34.1 166.3h-3l1.59-10.06c.46-2.89.65-5.47-2.88-5.47-4.18 0-5.05 3.87-5.58 7.06l-1.33 8.47h-3l5-31.32zm13.36 23c-.49 3.3 1.45 6 4.9 6 2.58 0 4.48-1.56 6-3.68l2.35 1.48a10.84 10.84 0 0 1-9 5c-5.32 0-8.09-4.06-7.29-9.19s4.6-9.61 10.18-9.61 8 4.75 6.87 10.06zm11.2-2.58a4.46 4.46 0 0 0-4.48-4.67 6.94 6.94 0 0 0-6.19 4.67zm29.01 20.9h-3l2-12.53h-.07a8.94 8.94 0 0 1-6.57 3c-5.35 0-7.9-4.29-7.1-9.34s4.71-9.45 9.99-9.45a6.33 6.33 0 0 1 5.66 3h.07l.38-2.55h3zm-11.66-19.13c-.57 3.49 1 6.79 4.79 6.79s6.45-3.15 7-6.76-1.22-6.45-5-6.45c-3.49 0-6.26 3.07-6.79 6.42zm21.41 1.21c-.49 3-.53 5.58 3.15 5.58s4.41-2.58 4.9-5.58l1.56-10h3l-1.6 10.29c-.76 4.75-3.07 8-8.35 8s-6.53-3.3-5.77-8l1.59-10.29h3zm17.47 7.9h-3l2.81-17.85h3zm4.51-24.57a2.62 2.62 0 0 1-2.5 2.17 1.8 1.8 0 0 1-1.82-2.17 2.71 2.71 0 0 1 2.54-2.16 1.79 1.79 0 0 1 1.78 2.16zm15.53 12.04h-.07a5.65 5.65 0 0 0-5-3 7.78 7.78 0 0 0-7.37 6.61c-.57 3.53 1.41 6.6 5.13 6.6a8.22 8.22 0 0 0 6.26-3.07h.08L127 165a11.26 11.26 0 0 1-6 1.82c-5.39 0-8.85-4-8-9.41a11.47 11.47 0 0 1 11.12-9.41 8.31 8.31 0 0 1 5.2 1.78zm6 1.29l7.52-6.61h4.06l-8.81 7.6 7.44 10.25h-4l-5.88-8.13-.91.8-1.17 7.33h-3l5-31.32h3zM161.32 135h3l-2.55 16h.08a9.13 9.13 0 0 1 6.6-3c5.32 0 7.86 4.37 7.07 9.42s-4.79 9.41-10 9.41a6.32 6.32 0 0 1-5.69-3h-.08l-.38 2.47h-3zm-.65 22.21c-.57 3.49 1 6.79 4.79 6.79s6.45-3.15 7-6.76-1.21-6.45-5-6.45c-3.46-.02-6.25 3.05-6.79 6.4zm21.61-6.82h.07c1.29-1.41 2.39-2.43 4.37-2.43a4.69 4.69 0 0 1 2.58.83l-1.9 2.78a2.4 2.4 0 0 0-1.67-.8c-3.34 0-4.18 4.29-4.56 6.61l-1.4 8.92h-3l2.81-17.85h3zm5.61 7.02a11.42 11.42 0 0 1 10.9-9.45c5.24 0 8.69 4.21 7.86 9.45a11.35 11.35 0 0 1-10.86 9.38 7.77 7.77 0 0 1-7.9-9.38zm3 0c-.57 3.64 1.56 6.6 5.32 6.6a7.65 7.65 0 0 0 7.36-6.6c.57-3.61-1.52-6.61-5.28-6.61a7.72 7.72 0 0 0-7.36 6.58zm23.88 3.12l7.67-13.44 3.46 13.44 7.21-12.08h3.45l-11.84 19.1-3.42-13.29-7.59 13.29-5.77-19.1h3.45zm25.97-9.91h.07a7.28 7.28 0 0 1 5.55-2.66c4.93 0 5.5 3.57 4.82 7.74l-1.67 10.6h-3l1.6-10.06c.45-2.89.64-5.47-2.89-5.47-4.18 0-5.05 3.87-5.58 7.06l-1.33 8.47h-3l2.69-17.85h3zm26.5 15.68h-3l2.39-15h-1.67l.42-2.81H267l1.14-7.1a10.28 10.28 0 0 1 1.52-4.63 6.2 6.2 0 0 1 5-2.24 6.49 6.49 0 0 1 2.09.38l-.49 3.08a5.55 5.55 0 0 0-2-.42c-2.47 0-2.73 1.75-3.23 4.9l-1 6h4.51l-.41 2.81h-4.52zm5.39-8.89a11.4 11.4 0 0 1 10.89-9.41c5.24 0 8.7 4.21 7.86 9.45a11.33 11.33 0 0 1-10.86 9.38 7.76 7.76 0 0 1-7.89-9.42zm3 0c-.57 3.64 1.55 6.6 5.31 6.6a7.65 7.65 0 0 0 7.37-6.6c.56-3.61-1.52-6.61-5.28-6.61a7.71 7.71 0 0 0-7.36 6.58zm18.07-8.96h3.72l3.72 6.08 5.62-6.08h3.79l-7.82 8.36 5.89 9.49h-3.68l-4.52-7.25-6.84 7.25h-3.79l9.11-9.49zm28.51 27.87h-3l4.41-27.87h3zm6.11-34.59a2.63 2.63 0 0 1-2.51 2.17 1.81 1.81 0 0 1-1.82-2.17 2.72 2.72 0 0 1 2.55-2.16 1.79 1.79 0 0 1 1.78 2.16zm4.37 16.67c-.5 3-.54 5.58 3.15 5.58s4.4-2.58 4.89-5.58l1.56-10h3l-1.6 10.29c-.76 4.75-3.07 8-8.35 8s-6.53-3.3-5.77-8l1.6-10.29h3zm19.4-8.01h.07a6.18 6.18 0 0 1 4.71-2.43 4.47 4.47 0 0 1 4.44 3 7.16 7.16 0 0 1 5.85-3c4.55 0 5.08 3.72 4.48 7.48l-1.71 10.86h-3l1.63-10.37c.38-2.31.69-5.16-2.43-5.16-3.49 0-4.4 3.38-4.86 6.07l-1.48 9.46h-3l1.59-10.14c.34-2.2.61-5.39-2.31-5.39-3.57 0-4.52 3.61-5 6.3l-1.44 9.23h-3l2.81-17.85h3zm27.4.61h.08a8.92 8.92 0 0 1 6.64-3c5.24 0 7.82 4.52 7 9.45-.8 5.09-4.71 9.38-10.06 9.38a6.33 6.33 0 0 1-5.66-3h-.08l-2 12.53h-3l4.41-27.87h3zm-1.13 6.19c-.57 3.49 1 6.79 4.78 6.79s6.45-3.15 7-6.76-1.21-6.45-5-6.45c-3.48 0-6.25 3.07-6.78 6.42zm25.58-4.6a2.29 2.29 0 0 0-2.12-1.82 2.59 2.59 0 0 0-2.51 2c-.26 1.64 1.67 2.24 3.65 3.12s3.79 2.12 3.3 5.12a7.08 7.08 0 0 1-6.95 5.81 5.27 5.27 0 0 1-5.58-4.52l2.89-1.14c.49 1.67 1.17 2.85 3.19 2.85a3.28 3.28 0 0 0 3.3-2.73c.64-4-7.63-2.62-6.76-8.24a6.22 6.22 0 0 1 6.15-5 4.42 4.42 0 0 1 4.21 3.3zm14.24 4.82a11.41 11.41 0 0 1 10.89-9.41c5.24 0 8.7 4.21 7.86 9.45a11.33 11.33 0 0 1-10.85 9.38 7.76 7.76 0 0 1-7.9-9.42zm3 0c-.57 3.64 1.55 6.6 5.31 6.6a7.65 7.65 0 0 0 7.37-6.6c.57-3.61-1.52-6.61-5.28-6.61a7.72 7.72 0 0 0-7.36 6.58zm23.82 3.04l7.21-12h3.42l-11.73 19-5.77-19h3.45zm12.09-2.45c-.49 3.3 1.44 6 4.9 6 2.58 0 4.48-1.56 6-3.68l2.35 1.48a10.84 10.84 0 0 1-9 5c-5.32 0-8.09-4.06-7.29-9.19s4.63-9.64 10.21-9.64 8 4.75 6.87 10.06zm11.2-2.58a4.46 4.46 0 0 0-4.48-4.67 6.94 6.94 0 0 0-6.19 4.67zm9.53-5.03h.08c1.29-1.41 2.39-2.43 4.36-2.43a4.63 4.63 0 0 1 2.58.83l-1.9 2.78a2.4 2.4 0 0 0-1.67-.8c-3.34 0-4.17 4.29-4.55 6.61l-1.41 8.92h-3l2.81-17.85h3zM497 166.3h-3l2.4-15h-1.86l.41-2.81h1.86l1-6.41h3l-1 6.41H503l-.42 2.81h-3.19zm12.4-31.3l-2.46 15.56v.08a7.25 7.25 0 0 1 5.54-2.66c4.93 0 5.5 3.57 4.82 7.74l-1.67 10.6h-3l1.6-10.06c.45-2.89.64-5.47-2.89-5.47-4.18 0-5 3.87-5.58 7.06l-1.33 8.47h-3l5-31.32zm13.37 23c-.5 3.3 1.44 6 4.9 6 2.58 0 4.48-1.56 6-3.68l2.36 1.48a10.85 10.85 0 0 1-9 5c-5.31 0-8.08-4.06-7.29-9.19s4.63-9.64 10.22-9.64 8 4.75 6.87 10.06zm11.2-2.58a4.46 4.46 0 0 0-4.48-4.67 6.94 6.94 0 0 0-6.19 4.67zm17.27 10.88h-3l5-31.32h3zm20.43 0h-3l.38-2.47h-.08a8.85 8.85 0 0 1-6.6 3c-5.24 0-7.86-4.44-7.06-9.38S560 148 565.36 148a6.42 6.42 0 0 1 5.62 3h.08l.38-2.55h3zm-13.25-9.11c-.57 3.49 1 6.79 4.78 6.79s6.45-3.15 7-6.76-1.21-6.45-5-6.45c-3.48 0-6.2 3.07-6.78 6.42zm33.75 6.3l-.46 2.81h-18.45l15.26-15H578l.42-2.81h16.59l-15.18 15z" class="b485a97a-8777-41f5-9e65-dcbbe00ccb7e"/><path d="M593.8 148.45h3.53l4.29 12.8 7.78-12.8h3.46l-17.58 27.87h-3.46l7.63-11.69zm41.34 15.38h-.08a8.94 8.94 0 0 1-6.6 3c-5.24 0-7.86-4.44-7.06-9.38s4.74-9.45 10.1-9.45a6.4 6.4 0 0 1 5.61 3h.08l2.54-16h3l-5 31.32h-3zm-10.59-6.64c-.57 3.49 1 6.79 4.78 6.79s6.46-3.15 7-6.76-1.21-6.45-5-6.45c-3.48 0-6.25 3.07-6.78 6.42zm17.16.22A11.4 11.4 0 0 1 652.6 148c5.24 0 8.7 4.21 7.86 9.45a11.33 11.33 0 0 1-10.86 9.38 7.76 7.76 0 0 1-7.89-9.42zm3 0c-.56 3.64 1.56 6.6 5.32 6.6a7.64 7.64 0 0 0 7.36-6.6c.57-3.61-1.51-6.61-5.27-6.61a7.73 7.73 0 0 0-7.38 6.58zm33.29 8.01c-.45 2.85-.87 5.32-3 7.67a10.19 10.19 0 0 1-7.41 3.15c-5 0-8.16-3.15-7.48-8.2h3c-.49 3.31 1.56 5.39 4.82 5.39 4.71 0 6.3-3.45 6.91-7.48l.34-2.12h-.07a9.29 9.29 0 0 1-6.65 3c-5.2 0-7.82-4.37-7-9.34s4.86-9.49 10.14-9.49a6.19 6.19 0 0 1 5.58 3h.07l.38-2.55h3zm-13.4-8.23c-.57 3.49 1 6.79 4.79 6.79s6.45-3.15 7-6.76-1.22-6.45-5-6.45c-3.53 0-6.3 3.07-6.83 6.42z" class="b485a97a-8777-41f5-9e65-dcbbe00ccb7e"/><path d="M7.55 182.38h8.17l-.3 2h-5.11v4.33h4.45v2.05h-4.45v6H7.55zm17.71 14.43H23l-.15-1.54a3.73 3.73 0 0 1-3.38 1.86c-2 0-3.08-1.3-3.08-3.43v-7.94H19v7.61c0 1.29.42 1.73 1.33 1.73a2.69 2.69 0 0 0 2.24-1.57v-7.77h2.67zm9.09-.52a4.87 4.87 0 0 1-2.78.84c-2.17 0-3.32-1.26-3.32-3.62v-5.83h-1.73v-1.92h1.73v-2.44l2.68-.32v2.76h2.56l-.27 1.92h-2.29v5.77c0 1.09.35 1.52 1.17 1.52a2.64 2.64 0 0 0 1.31-.39zm9.84.52h-2.32l-.14-1.54a3.74 3.74 0 0 1-3.39 1.86c-2 0-3.07-1.3-3.07-3.43v-7.94h2.67v7.61c0 1.29.42 1.73 1.34 1.73a2.7 2.7 0 0 0 2.24-1.57v-7.77h2.67zm9.28-11.19l-.47 2.59a3.44 3.44 0 0 0-1-.13c-1.33 0-2 1-2.44 2.84v5.89h-2.65v-11.05h2.31l.26 2.17a3.1 3.1 0 0 1 2.88-2.46 3.72 3.72 0 0 1 1.11.15zm9.71 9.69l-.57 1.77a2.48 2.48 0 0 1-2.44-1.6 3.79 3.79 0 0 1-3.32 1.65 3.28 3.28 0 0 1-3.55-3.41c0-2.4 1.79-3.7 5-3.7h1.4v-.62c0-1.44-.65-1.93-2.07-1.93a10 10 0 0 0-2.94.59l-.61-1.82a11.45 11.45 0 0 1 4-.79c3 0 4.26 1.36 4.26 3.8v4.64c0 .9.3 1.21.84 1.42zm-3.47-1.49v-2.23H58.6c-1.73 0-2.59.63-2.59 1.92a1.46 1.46 0 0 0 1.57 1.67 2.38 2.38 0 0 0 2.13-1.36zm22.19-4.24c0 4.77-2.45 7.55-6.31 7.55s-6.33-2.7-6.33-7.53 2.46-7.54 6.33-7.54 6.31 2.7 6.31 7.52zm-9.74 0c0 3.89 1.32 5.42 3.43 5.42s3.4-1.53 3.4-5.44-1.23-5.41-3.4-5.41-3.43 1.57-3.43 5.45zm21.6 1.7c0 3.44-1.65 5.85-4.36 5.85a3.64 3.64 0 0 1-2.93-1.45l-.17 1.13h-2.36v-15.48l2.68-.29v6a3.65 3.65 0 0 1 3-1.57c2.62-.02 4.14 2.11 4.14 5.81zm-2.8 0c0-2.95-.87-3.83-2.15-3.83a2.64 2.64 0 0 0-2.19 1.55v4.89a2.41 2.41 0 0 0 2 1.27c1.38-.04 2.38-1.11 2.38-3.88zm4.75 3v-12.95l2.67-.29v13.16c0 .52.17.77.63.77a1.79 1.79 0 0 0 .6-.1l.59 1.88a4.48 4.48 0 0 1-1.8.38 2.53 2.53 0 0 1-2.69-2.85zm8.91-12.49a1.68 1.68 0 1 1-1.69-1.63 1.6 1.6 0 0 1 1.69 1.63zm-.33 15h-2.67v-11.03h2.67zm11.95-11.03v15.61l-2.67-.3v-5.51a3.65 3.65 0 0 1-3 1.57c-2.76 0-4.2-2.32-4.2-5.83s1.71-5.85 4.45-5.85a3.8 3.8 0 0 1 3 1.4l.15-1.09zm-2.67 7.92v-5.06a2.64 2.64 0 0 0-2.09-1.17c-1.4 0-2.32 1.17-2.32 3.83 0 2.84.81 3.82 2.13 3.82a2.62 2.62 0 0 0 2.28-1.42zm14.18 3.13h-2.32l-.15-1.54a3.71 3.71 0 0 1-3.38 1.86c-2 0-3.07-1.3-3.07-3.43v-7.94h2.67v7.61c0 1.29.42 1.73 1.34 1.73a2.7 2.7 0 0 0 2.24-1.57v-7.77h2.67zm11.76-4.7h-6.93c.2 2.26 1.25 3 2.71 3a4.59 4.59 0 0 0 2.76-1l1.11 1.52a6.37 6.37 0 0 1-4.1 1.49c-3.42 0-5.26-2.28-5.26-5.77s1.77-5.91 4.91-5.91 4.86 2.09 4.86 5.58c0 .36-.04.8-.06 1.09zm-2.59-1.86c0-1.81-.65-2.9-2.15-2.9-1.25 0-2.05.83-2.19 3h4.34z" class="a6487767-3f3c-4137-acaa-9833411ea020"/><path d="M11.1 31.81H7.91V6.15H1v-3h17.08v3h-7zM22.87.49v15.57l.07.07A6 6 0 0 1 28 13.48c4.94 0 6.07 3.57 6.07 7.74v10.59h-3V21.75c0-2.88-.23-5.46-3.76-5.46-4.18 0-4.44 3.87-4.44 7.06v8.46h-3V.49zm17 23.05a5.79 5.79 0 0 0 5.85 6c2.58 0 4.25-1.56 5.43-3.69l2.58 1.49a9 9 0 0 1-8.24 5c-5.31 0-8.73-4.07-8.73-9.19 0-5.28 3.08-9.64 8.66-9.64s8.77 4.74 8.46 10.06zM50.69 21a5.43 5.43 0 0 0-5.23-4.67A5.64 5.64 0 0 0 40 21zM83 41.84h-3V29.31h-.07a7.58 7.58 0 0 1-6.11 3c-5.4 0-8.62-4.31-8.62-9.31s3.26-9.49 8.54-9.49a7.57 7.57 0 0 1 6.15 3H80V14h3zM68.31 22.7c0 3.49 2 6.8 5.85 6.8s6-3.15 6-6.76-2.24-6.45-6-6.45c-3.57 0-5.85 3.07-5.85 6.41zm21.6 1.22c0 3 .34 5.58 4 5.58s4-2.58 4-5.58V14h3v10.26c0 4.74-1.79 8.05-7.06 8.05s-7.07-3.31-7.07-8V14h3zm19.36-16.67a2.17 2.17 0 0 1-4.33 0 2.17 2.17 0 0 1 4.33 0zm-.64 24.56h-3V14h3zm18.07-12.52h-.08a6.85 6.85 0 0 0-5.54-3 6.37 6.37 0 0 0-6.3 6.6c0 3.53 2.43 6.61 6.15 6.61a6.92 6.92 0 0 0 5.8-3.08h.08v4.06a9.75 9.75 0 0 1-5.66 1.83 9.25 9.25 0 0 1-9.49-9.42 9.41 9.41 0 0 1 9.53-9.41 9.62 9.62 0 0 1 5.51 1.78zm6.19 1.29l6.49-6.58h4.06l-7.63 7.59 9.07 10.25h-4l-7.18-8.12-.79.8v7.32h-3V.49h3zM156.35.49h3v16h.08a7.67 7.67 0 0 1 6.11-3c5.32 0 8.58 4.36 8.58 9.41s-3.3 9.42-8.54 9.42a7.51 7.51 0 0 1-6.15-3h-.08v2.46h-3zm2.88 22.21c0 3.49 2.05 6.8 5.85 6.8s6-3.15 6-6.76-2.24-6.45-6-6.45c-3.57 0-5.85 3.07-5.85 6.41zm20.54-6.79h.08c1.06-1.41 2-2.43 3.94-2.43a5.43 5.43 0 0 1 2.74.83l-1.45 2.77a3 3 0 0 0-1.82-.79c-3.34 0-3.49 4.29-3.49 6.6v8.92h-3V14h3zm6.72 7.02a9.38 9.38 0 1 1 9.38 9.38 9.36 9.36 0 0 1-9.38-9.38zm3 0a6.35 6.35 0 1 0 12.68 0 6.35 6.35 0 1 0-12.68 0zM213.86 26l5.54-13.4L225 26l5.3-12h3.45l-8.84 19.1-5.51-13.32-5.5 13.29L205.13 14h3.45zm24.41-9.87h.08a6 6 0 0 1 5.08-2.65c4.94 0 6.08 3.57 6.08 7.74v10.59h-3V21.75c0-2.88-.23-5.46-3.76-5.46-4.17 0-4.44 3.87-4.44 7.06v8.46h-3V14h3zm28.97 15.68h-3v-15h-1.67V14h1.67V6.87c0-1.48 0-3.34.8-4.63A5.17 5.17 0 0 1 269.59 0a7.24 7.24 0 0 1 2.17.38v3.07a6.45 6.45 0 0 0-2.05-.45c-2.47 0-2.47 1.74-2.47 4.89v6h4.52v2.81h-4.52zm3.98-8.88a9.38 9.38 0 1 1 9.38 9.38 9.36 9.36 0 0 1-9.38-9.38zm3 0a6.35 6.35 0 1 0 12.68 0 6.35 6.35 0 1 0-12.68 0z" class="b485a97a-8777-41f5-9e65-dcbbe00ccb7e"/><path d="M290.89 14h3.72l4.67 6 4.72-6h3.79l-6.53 8.35 7.41 9.49h-3.68l-5.66-7.25-5.7 7.25h-3.79l7.59-9.49zm33.56-6.75a2.17 2.17 0 0 1-4.33 0 2.17 2.17 0 0 1 4.33 0zm-.65 34.59h-3V14h3zm7.63-17.92c0 3 .34 5.58 4 5.58s4-2.58 4-5.58V14h3v10.26c0 4.74-1.79 8.05-7.06 8.05s-7.06-3.31-7.06-8V14h3zm18.15-8.01h.08a5 5 0 0 1 4.34-2.43 5.47 5.47 0 0 1 4.93 3 5.93 5.93 0 0 1 5.35-3c4.56 0 5.7 3.72 5.7 7.48v10.85h-3V21.45c0-2.32-.15-5.16-3.26-5.16-3.5 0-3.88 3.38-3.88 6.07v9.45h-3V21.68c0-2.2-.27-5.39-3.19-5.39-3.57 0-3.95 3.6-3.95 6.3v9.22h-3V14h3zm27.48.6h.08a7.52 7.52 0 0 1 6.15-3c5.24 0 8.54 4.51 8.54 9.45s-3.22 9.38-8.58 9.38a7.53 7.53 0 0 1-6.11-3h-.08v12.5h-3V14h3zm-.15 6.19c0 3.49 2 6.8 5.85 6.8s6-3.15 6-6.76-2.24-6.45-6-6.45c-3.57 0-5.85 3.07-5.85 6.41zm24.87-4.59a2.85 2.85 0 0 0-2.43-1.82 2.16 2.16 0 0 0-2.2 2c0 1.63 2.05 2.24 4.14 3.11s4.13 2.13 4.13 5.13a5.83 5.83 0 0 1-6 5.81 6.41 6.41 0 0 1-6.3-4.52l2.69-1.14c.76 1.67 1.63 2.85 3.65 2.85a2.71 2.71 0 0 0 2.88-2.74c0-4-8.05-2.61-8.05-8.23a5.09 5.09 0 0 1 5.32-5.05 5.37 5.37 0 0 1 4.74 3.3zm14.99 4.82a9.38 9.38 0 1 1 9.38 9.38 9.36 9.36 0 0 1-9.38-9.38zm3 0a6.35 6.35 0 1 0 12.68 0 6.35 6.35 0 1 0-12.68 0zM444.11 26l5.31-12h3.42l-8.73 19-8.77-19h3.45zm11.65-2.46a5.78 5.78 0 0 0 5.85 6c2.58 0 4.25-1.56 5.43-3.69l2.58 1.49a9 9 0 0 1-8.24 5c-5.31 0-8.73-4.07-8.73-9.19 0-5.28 3.08-9.64 8.66-9.64 5.73 0 8.77 4.74 8.46 10.06zM466.58 21a5.43 5.43 0 0 0-5.24-4.67 5.62 5.62 0 0 0-5.42 4.67zm8.73-5.09h.08c1.06-1.41 2-2.43 3.95-2.43a5.39 5.39 0 0 1 2.73.83l-1.44 2.77a3 3 0 0 0-1.82-.79c-3.34 0-3.5 4.29-3.5 6.6v8.92h-3V14h3zM497 31.81h-3v-15h-1.86V14H494V7.55h3V14h3.19v2.81H497zM504.43.49v15.57l.08.07a6 6 0 0 1 5.08-2.65c4.94 0 6.08 3.57 6.08 7.74v10.59h-3V21.75c0-2.88-.23-5.46-3.76-5.46-4.17 0-4.44 3.87-4.44 7.06v8.46h-3V.49zm17.01 23.05a5.78 5.78 0 0 0 5.85 6c2.58 0 4.25-1.56 5.42-3.69l2.59 1.49a9 9 0 0 1-8.24 5c-5.32 0-8.73-4.07-8.73-9.19 0-5.28 3.07-9.64 8.65-9.64s8.77 4.74 8.47 10.06zM532.26 21a5.44 5.44 0 0 0-5.26-4.71 5.64 5.64 0 0 0-5.41 4.71zm18.98 10.81h-3V.49h3zm20.43 0h-3v-2.46h-.08a7.5 7.5 0 0 1-6.15 3c-5.24 0-8.54-4.44-8.54-9.38s3.23-9.45 8.58-9.45a7.73 7.73 0 0 1 6.11 3h.08V14h3zM557 22.7c0 3.49 2 6.8 5.85 6.8s6-3.15 6-6.76-2.24-6.45-6-6.45c-3.6 0-5.85 3.07-5.85 6.41zm34.71 6.3v2.81h-18.45l12.87-15h-10.48V14h16.59l-12.83 15z" class="b485a97a-8777-41f5-9e65-dcbbe00ccb7e"/><path d="M591 14h3.53l6.3 12.79L606.59 14h3.46l-13.18 27.84h-3.45l5.77-11.7zm43.76 15.35h-.08a7.62 7.62 0 0 1-6.15 3c-5.23 0-8.54-4.44-8.54-9.38s3.23-9.45 8.58-9.45a7.73 7.73 0 0 1 6.11 3h.08V.49h3v31.32h-3zM623.1 22.7c0 3.49 2 6.8 5.85 6.8s6-3.15 6-6.76-2.24-6.45-6-6.45c-3.57 0-5.85 3.07-5.85 6.41zm17.2.23a9.38 9.38 0 1 1 9.38 9.38 9.36 9.36 0 0 1-9.38-9.38zm3 0a6.35 6.35 0 1 0 12.68 0 6.35 6.35 0 1 0-12.68 0z" class="b485a97a-8777-41f5-9e65-dcbbe00ccb7e"/><path d="M677.81 30.94c0 2.85 0 5.32-1.82 7.67a8.66 8.66 0 0 1-6.91 3.15c-5 0-8.66-3.15-8.77-8.2h3c0 3.3 2.43 5.39 5.69 5.39 4.71 0 5.73-3.45 5.73-7.48v-2.12h-.07a7.91 7.91 0 0 1-6.19 3c-5.2 0-8.5-4.37-8.5-9.34s3.34-9.49 8.61-9.49a7.44 7.44 0 0 1 6.08 3h.07V14h3zm-14.69-8.24c0 3.49 2 6.8 5.85 6.8s6-3.15 6-6.76-2.24-6.45-6-6.45c-3.57 0-5.85 3.07-5.85 6.41z" class="b485a97a-8777-41f5-9e65-dcbbe00ccb7e"/><path d="M7.55 49.25h8.17l-.3 2h-5.11v4.32h4.45v2.05h-4.45v6H7.55zm17.71 14.44H23l-.15-1.55A3.73 3.73 0 0 1 19.42 64c-2 0-3.08-1.3-3.08-3.43v-7.93H19v7.6c0 1.3.42 1.73 1.33 1.73a2.68 2.68 0 0 0 2.24-1.56v-7.77h2.67zm9.09-.53a4.79 4.79 0 0 1-2.78.84c-2.17 0-3.32-1.25-3.32-3.61v-5.83h-1.73v-1.92h1.73v-2.45l2.68-.31v2.76h2.56l-.27 1.92h-2.29v5.76c0 1.09.35 1.53 1.17 1.53a2.66 2.66 0 0 0 1.31-.4zm9.84.53h-2.32l-.14-1.55A3.74 3.74 0 0 1 38.34 64c-2 0-3.07-1.3-3.07-3.43v-7.93h2.67v7.6c0 1.3.42 1.73 1.34 1.73a2.69 2.69 0 0 0 2.24-1.56v-7.77h2.67zm9.28-11.2L53 55.08a3.83 3.83 0 0 0-1-.08c-1.33 0-2 1-2.44 2.85v5.89h-2.65v-11h2.31l.26 2.17a3.1 3.1 0 0 1 2.88-2.47 4.07 4.07 0 0 1 1.11.05zm9.71 9.69L62.61 64a2.49 2.49 0 0 1-2.44-1.61A3.79 3.79 0 0 1 56.85 64a3.28 3.28 0 0 1-3.55-3.41c0-2.4 1.79-3.69 5-3.69h1.4v-.63c0-1.44-.65-1.92-2.07-1.92a10.27 10.27 0 0 0-2.94.58l-.61-1.81a11.24 11.24 0 0 1 4-.8c3 0 4.26 1.36 4.26 3.8v4.64c0 .9.3 1.24.84 1.42zm-3.47-1.48v-2.24H58.6c-1.73 0-2.59.63-2.59 1.93a1.47 1.47 0 0 0 1.57 1.67 2.38 2.38 0 0 0 2.13-1.36zm20.72-1.17c0 3.17-2.52 4.16-6 4.16h-4.38V49.25h3.78c3.72 0 6 1 6 3.68a3.14 3.14 0 0 1-2.7 3.07c1.65.35 3.3 1.13 3.3 3.53zm-7.62-8.25v3.9h1.69c1.51 0 2.49-.66 2.49-2s-1-1.88-2.89-1.88zm4.74 8.15c0-1.74-1.23-2.32-2.84-2.32h-1.9v4.51h1.61c1.82 0 3.13-.38 3.13-2.19zm14.5-1.28c0 3.49-1.94 5.85-5.2 5.85s-5.2-2.21-5.2-5.85c0-3.47 1.94-5.83 5.22-5.83s5.18 2.22 5.18 5.83zm-7.58 0c0 2.65.81 3.82 2.38 3.82s2.38-1.19 2.38-3.82-.82-3.8-2.36-3.8-2.4 1.19-2.4 3.8zm19.36 0c0 3.49-1.94 5.85-5.2 5.85s-5.2-2.21-5.2-5.85c0-3.47 1.94-5.83 5.22-5.83s5.18 2.22 5.18 5.83zm-7.58 0c0 2.65.81 3.82 2.38 3.82s2.37-1.19 2.37-3.82-.81-3.8-2.36-3.8-2.39 1.19-2.39 3.8zm12.3 5.54h-2.67V48.21l2.67-.29zm3-6.19l4 6.19h-3.07l-3.8-6 3.69-5h2.82z" class="a6487767-3f3c-4137-acaa-9833411ea020"/><path d="M22.34 292.91a14.71 14.71 0 0 0-1.22-3.15c-.61-1-1-1.29-3.07-1.29h-3.8V307c0 3 .3 3.38 3.91 3.6v1.07h-11v-1.07c3.53-.22 3.84-.6 3.84-3.6v-18.53H7.49c-2.09 0-2.69.23-3.34 1.37a17.63 17.63 0 0 0-1.25 3.07H1.76c.23-2.31.46-4.71.57-6.83h.87c.57.91 1 .87 2.05.87h15a1.9 1.9 0 0 0 1.93-.87h.91c0 1.78.16 4.52.35 6.72zm12.33 18.72v-1.07c2.21-.22 2.51-.41 2.51-2.92v-6.22c0-3.16-1.21-4.75-3.76-4.71a5.42 5.42 0 0 0-4 2v9c0 2.47.3 2.7 2.58 2.92v1.07h-8.3v-1.07c2.2-.19 2.7-.37 2.7-2.92v-18.3c0-2-.12-2.5-2.66-2.73v-1a23.68 23.68 0 0 0 5.66-1.29v12.95c1.36-1.37 3.45-2.77 5.5-2.77 3.12 0 5.28 1.93 5.28 6.49v6.68c0 2.51.3 2.69 2.5 2.88v1.07zm22.44-3.23c-2.43 3-5.09 3.68-6.3 3.68-4.63 0-7.44-3.79-7.44-8.16a9.73 9.73 0 0 1 2.47-6.64 7.75 7.75 0 0 1 5.65-2.77 5.92 5.92 0 0 1 5.81 5.88c0 .76-.15 1.1-.76 1.25s-5.62.5-10.14.65c-.11 5.09 3 7.17 5.7 7.17a6.39 6.39 0 0 0 4.4-1.93zM50.58 296c-1.75 0-3.45 1.63-4 4.71 2.13 0 4.26 0 6.5-.12.68 0 .91-.19.91-.76a3.53 3.53 0 0 0-3.41-3.83zm24.11 24.89v-1.06c3-.27 3.19-.46 3.19-3.15v-6.19l-4.07 1.59a8 8 0 0 1-8.23-8.16c0-5.54 4.93-9.45 10.21-9.41a11.19 11.19 0 0 1 2.73.49 3.06 3.06 0 0 0 1 .19 5.31 5.31 0 0 0 1.29-.42l.15.12c0 .79-.11 1.55-.11 4.06v17.8c0 2.62.26 2.77 2.92 3.08v1.06zm3.19-23.23a5.23 5.23 0 0 0-3.76-1.6c-2.62 0-5.24 2.2-5.24 6.68 0 5 3.15 7.22 6.15 7.22a6.52 6.52 0 0 0 2.85-.65zm24.03 13.09a43.87 43.87 0 0 0-5.81 1.33v-2.92c-2 1.71-3.72 2.92-5.81 2.92-2.54 0-4.75-1.55-4.75-5.69V299c0-2-.3-2.27-1.25-2.46l-1.06-.19v-1c1.63-.08 4.14-.46 5.43-.68-.12 1.21-.12 3-.12 5.54v5.16c0 3.34 1.75 4.29 3.46 4.29a6 6 0 0 0 4.1-1.82V299c0-2-.46-2.31-1.75-2.5l-1.21-.15v-1a53.66 53.66 0 0 0 6-.68v12.71c0 1.9.3 2.17 1.74 2.24h1.07zm.34.88v-1.07c2.39-.22 2.66-.41 2.66-3v-7.82c0-2.35-.12-2.5-2.4-2.88V296a25.07 25.07 0 0 0 5.4-1.52v13.13c0 2.59.26 2.78 2.73 3v1.07zm4-20.92a2.08 2.08 0 0 1-2-2 2 2 0 0 1 2-2.09 2 2 0 0 1 1.94 2.09 2 2 0 0 1-1.99 2zm19 17.5c-1.67 2.2-4.21 3.87-6.49 3.87-4.82 0-7.67-3.91-7.67-8a9 9 0 0 1 3.84-7.44 10 10 0 0 1 5.77-2.16 5.66 5.66 0 0 1 3.53 1 1.2 1.2 0 0 1 .61 1.1 1.92 1.92 0 0 1-1.37 1.71c-.19 0-.34-.08-.72-.38a5.66 5.66 0 0 0-3.84-1.59c-2.5 0-4.7 2.12-4.7 6.07 0 5.28 3.57 7 5.77 7a6.08 6.08 0 0 0 4.63-2.08z" class="b485a97a-8777-41f5-9e65-dcbbe00ccb7e"/><path d="M144.08 311.63c-2.05 0-4.29 0-5.08.07-.23-.26-6.19-7.32-6.42-7.55-.53-.61-.76-.8-1.1-.8a2.19 2.19 0 0 0-.68.08v4.21c0 2.55.19 2.7 2.65 2.92v1.07h-8.39v-1.07c2.55-.22 2.74-.49 2.74-2.92v-18.15c0-2.46-.27-2.54-2.62-2.88v-1a23.79 23.79 0 0 0 5.62-1.29v18.11a4.54 4.54 0 0 0 2.43-1.33 31.76 31.76 0 0 0 2.92-3.53c.8-1.1.49-1.4-1.33-1.56V295l7.82-.34v1c-2.66.41-3.42.72-5 2.42-.72.76-2.43 2.7-3.22 3.69.75 1.06 4.63 5.46 5.88 6.79 1.82 1.82 2.35 1.94 3.83 2zm13.86-16.74a4.45 4.45 0 0 1 1.67-.38 7.78 7.78 0 0 1 7.48 8 9.65 9.65 0 0 1-9.38 9.53 14.13 14.13 0 0 1-5.84-1.36v-21.3c0-2.35-.12-2.58-2.55-2.77v-1a31.91 31.91 0 0 0 5.55-1.29v11.88zm-3.07 12.33a3.15 3.15 0 0 0 .19 1.33 4.3 4.3 0 0 0 3.75 2.05c3.27 0 4.9-2.81 4.9-7.1s-2.62-6.87-5.77-6.87a7.31 7.31 0 0 0-3.07.72zm21.9 4.41H168v-1.07c2.39-.22 2.62-.41 2.62-2.88v-7.9c0-2.5-.15-2.62-2.36-2.88v-.9a20.88 20.88 0 0 0 5.36-1.56v4.18c1.33-2 2.92-4.06 4.82-4.06a2 2 0 0 1 2.2 1.82 2.56 2.56 0 0 1-1.29 2.09.76.76 0 0 1-1-.08 2.39 2.39 0 0 0-1.71-.95c-.79 0-2.2 1.18-3 3.11v7.14c0 2.51.19 2.7 3.11 2.92zm12.15-17.12a8.16 8.16 0 0 1 8.27 8.5c0 6.15-4.55 9.07-8.27 9.07a8.33 8.33 0 0 1-8.43-8.46 8.69 8.69 0 0 1 8.43-9.11zm-.46 1.29c-2.31 0-4.4 2.24-4.4 6.64 0 4.82 2.13 8.31 5.24 8.31 2.35 0 4.33-1.7 4.33-6.9 0-4.45-1.83-8.05-5.17-8.05zm34.97.2c-1.94.3-2.28.72-3.08 2.84-1.1 2.93-2.92 8.2-4.55 13.22h-1.18c-1.52-4.07-3.07-8-4.56-11.93-1.4 3.5-3.11 7.71-4.63 11.93h-1.14c-1.36-4.52-2.81-9-4.36-13.56-.68-2.05-1-2.28-2.89-2.5v-1h7.9v1c-2.28.38-2.43.57-1.9 2.31.87 2.93 1.9 6 2.81 8.89 1.52-3.88 3-7.83 4.52-12h1c1.41 4 3 8.05 4.56 12.15.83-2.32 2.05-6 2.77-8.81.49-2 .19-2.16-2.39-2.5v-1h7.1zm10.7 15.63v-1.07c2.21-.22 2.43-.49 2.43-3.07v-6.26c0-2.66-.95-4.45-3.45-4.45a6.57 6.57 0 0 0-4.21 2v8.88c0 2.62.22 2.7 2.46 2.92v1.07h-8.2v-1.07c2.51-.26 2.74-.41 2.74-2.92v-7.82c0-2.47-.27-2.58-2.32-2.92v-1a21.55 21.55 0 0 0 5.32-1.52v3c.75-.53 1.59-1.1 2.58-1.74a5.76 5.76 0 0 1 3.15-1.14c3 0 4.93 2.24 4.93 5.92v7.21c0 2.58.23 2.7 2.43 2.92v1.07zM252.66 295v-1a9.77 9.77 0 0 1 3.34-7.6 7.92 7.92 0 0 1 4.25-2 4.24 4.24 0 0 1 3.08 1.22 1.21 1.21 0 0 1 .22 1.33 3 3 0 0 1-.91 1.21.85.85 0 0 1-1.1-.08 4.91 4.91 0 0 0-3.07-1.55c-2.81 0-2.81 3.83-2.81 6.72V295h4a1.45 1.45 0 0 1-.38 1.56h-3.64v11c0 2.73.42 2.77 3.26 3.07v1.07H250v-1.07c2.39-.22 2.66-.37 2.66-2.84v-11.2H250l-.15-.42.84-1.14z" class="b485a97a-8777-41f5-9e65-dcbbe00ccb7e"/><path d="M268.07 294.51a8.16 8.16 0 0 1 8.28 8.5c0 6.15-4.56 9.07-8.28 9.07a8.33 8.33 0 0 1-8.43-8.46 8.7 8.7 0 0 1 8.43-9.11zm-.45 1.29c-2.32 0-4.41 2.24-4.41 6.64 0 4.82 2.13 8.31 5.24 8.31 2.36 0 4.33-1.7 4.33-6.9 0-4.45-1.78-8.05-5.16-8.05z" class="b485a97a-8777-41f5-9e65-dcbbe00ccb7e"/><path d="M285.61 311.63v-1.07c1.63-.19 2-.45 1.33-1.48l-2.85-4.44c-.83 1.37-1.67 2.7-2.43 4s-.64 1.63 1.33 1.89v1.07h-7.17v-1.07c2.39-.3 2.88-.57 4.29-2.42 1.06-1.49 2.05-3 3.19-4.67l-3.3-5.1c-1.14-1.82-1.59-2.09-3.72-2.35v-1h7.63v1c-1.59.22-1.75.53-1.06 1.63l2.28 3.45c.72-1.1 1.48-2.39 2.16-3.53s.42-1.36-1.22-1.55v-1H293v1c-2.05.22-2.84.38-4.36 2.35-.53.72-1.44 2-2.7 3.87l3.65 5.62c1.44 2.09 1.86 2.43 4.17 2.73v1.07zM300 295.91a23.44 23.44 0 0 0 5.58-1.48v13a16.78 16.78 0 0 1-.87 6.19 19.94 19.94 0 0 1-4.56 7.4 1.52 1.52 0 0 1-1 .42 1.77 1.77 0 0 1-1.4-1.71.77.77 0 0 1 .61-.87 5.41 5.41 0 0 0 2.92-1.44 5.57 5.57 0 0 0 1-2.66 58.85 58.85 0 0 0 .3-7.37v-7.49c0-2.55-.19-2.7-2.58-3zm3.91-5.28a2 2 0 0 1-1.91-1.93 2 2 0 0 1 2-2 1.9 1.9 0 0 1 1.86 2 1.94 1.94 0 0 1-1.95 1.93zm22.7 20.12a44.6 44.6 0 0 0-5.81 1.33v-2.92c-2.05 1.71-3.72 2.92-5.81 2.92-2.54 0-4.74-1.55-4.74-5.69V299c0-2-.31-2.27-1.25-2.46l-1.07-.19v-1a54.65 54.65 0 0 0 5.43-.68c-.11 1.21-.11 3-.11 5.54v5.16c0 3.34 1.74 4.29 3.45 4.29a6 6 0 0 0 4.1-1.82V299c0-2-.45-2.31-1.74-2.5l-1.22-.15v-1a53.36 53.36 0 0 0 6-.68v12.71c0 1.9.31 2.17 1.75 2.24h1.06zm21.22.88v-1.07c2.24-.22 2.51-.37 2.51-3v-6.34c0-2.7-.91-4.41-3.27-4.41-1.44 0-2.77.8-4.21 2a15.1 15.1 0 0 1 .11 1.63v7.37c0 2.39.34 2.58 2.43 2.8v1.07h-8.12v-1.07c2.35-.22 2.69-.37 2.69-2.88v-6.53c0-2.81-.87-4.37-3.18-4.37-1.52 0-3 1-4.18 2v8.92c0 2.51.26 2.66 2.43 2.88v1.07h-8.16v-1.07c2.5-.22 2.73-.37 2.73-2.88v-7.86c0-2.43-.15-2.58-2.28-3v-.95a20.11 20.11 0 0 0 5.28-1.52v3.08a25.74 25.74 0 0 1 2.81-2 5.2 5.2 0 0 1 3-1 4.45 4.45 0 0 1 4.14 3.11c1.06-.84 2.05-1.48 3-2.13a5.72 5.72 0 0 1 3-1c3 0 4.79 2.12 4.79 5.84v7.33c0 2.54.23 2.66 2.39 2.88v1.07zm8.17-15.87a24.93 24.93 0 0 0 5.51-1.63v3c.11-.07 3.15-1.82 3.3-1.89a5.27 5.27 0 0 1 2.2-.76c4.18 0 6.72 3.49 6.72 7.25 0 5.77-4.55 9.41-9.53 10.32a6.23 6.23 0 0 1-2.69-.68v5.12c0 2.81.3 3 3.23 3.31v1.06h-9v-1.06c2.47-.27 2.77-.46 2.77-3v-17.24c0-2.28-.08-2.43-2.51-2.78zm5.51 13a5.45 5.45 0 0 0 3.61 1.48c3.3 0 5.42-2.77 5.42-7 0-4.1-2.39-6.42-5.08-6.42a7.58 7.58 0 0 0-3.95 1.64zm23.41-9.28c-.68-2.2-1.67-3.72-4-3.72a2.31 2.31 0 0 0-2.36 2.47c0 1.63 1.1 2.39 3.23 3.37 3.26 1.56 4.9 2.7 4.9 5.21 0 3.49-3.19 5.27-6.19 5.27A9.87 9.87 0 0 1 376 311c-.19-1.1-.53-3.19-.68-4.44l1.1-.19c.68 2.43 2 4.4 4.67 4.4a2.53 2.53 0 0 0 2.66-2.58c0-1.71-1-2.58-3-3.57-2.66-1.29-4.82-2.5-4.82-5.24s2.35-4.89 5.92-4.89a20 20 0 0 1 3.64.49c.12.91.38 3.3.57 4.21zm18.68-4.97a8.16 8.16 0 0 1 8.28 8.5c0 6.15-4.56 9.07-8.28 9.07a8.33 8.33 0 0 1-8.43-8.46 8.69 8.69 0 0 1 8.43-9.11zm-.46 1.29c-2.31 0-4.4 2.24-4.4 6.64 0 4.82 2.13 8.31 5.24 8.31 2.35 0 4.33-1.7 4.33-6.9 0-4.45-1.82-8.05-5.17-8.05zm26.58.2c-2.05.26-2.32.57-3.3 2.84-1.26 3-3.42 8.09-5.4 13.22h-1.1c-1.59-4.37-3.45-8.89-5.23-13.33-.88-2.2-1.18-2.43-3.16-2.73v-1h7.75v1c-2.09.26-2.17.53-1.56 2.16.95 2.62 2.55 6.64 3.61 9.3 1.37-3.38 2.62-6.49 3.45-8.92.65-1.86.53-2.28-2-2.54v-1h6.91zm13.06 12.4c-2.43 3-5.09 3.68-6.3 3.68-4.64 0-7.44-3.79-7.44-8.16a9.77 9.77 0 0 1 2.46-6.64 7.79 7.79 0 0 1 5.66-2.77 5.92 5.92 0 0 1 5.81 5.88c0 .76-.15 1.1-.76 1.25s-5.62.5-10.14.65c-.11 5.09 3 7.17 5.7 7.17a6.41 6.41 0 0 0 4.4-1.93zm-6.53-12.4c-1.75 0-3.46 1.63-4 4.71 2.13 0 4.25 0 6.49-.12.69 0 .92-.19.92-.76a3.54 3.54 0 0 0-3.41-3.83zm16.21 15.63h-8.73v-1.07c2.39-.22 2.62-.41 2.62-2.88v-7.9c0-2.5-.16-2.62-2.36-2.88v-.9a20.88 20.88 0 0 0 5.36-1.56v4.18c1.32-2 2.92-4.06 4.82-4.06a2 2 0 0 1 2.2 1.82 2.56 2.56 0 0 1-1.29 2.09.76.76 0 0 1-1-.08 2.39 2.39 0 0 0-1.71-.95c-.79 0-2.2 1.18-3 3.11v7.14c0 2.51.19 2.7 3.11 2.92zm18.64-.04a3.85 3.85 0 0 1-1.63.49c-2.43 0-3.72-1.48-3.72-4.52v-11h-2.62l-.16-.46 1-1.1h1.75v-3.19c.72-.76 1.82-1.74 2.54-2.5l.57.07c-.08 1.6-.12 3.8-.12 5.62h4.33a1.19 1.19 0 0 1-.23 1.56h-4.1v9.72c0 3.07 1.22 3.64 2.21 3.64a5.34 5.34 0 0 0 2.31-.61l.34 1z" class="b485a97a-8777-41f5-9e65-dcbbe00ccb7e"/><path d="M484.12 311.63v-1.07c2.2-.22 2.5-.41 2.5-2.92v-6.22c0-3.16-1.21-4.75-3.75-4.71a5.42 5.42 0 0 0-4 2v9c0 2.47.31 2.7 2.58 2.92v1.07h-8.27v-1.07c2.2-.19 2.69-.37 2.69-2.92v-18.3c0-2-.11-2.5-2.65-2.73v-1a23.48 23.48 0 0 0 5.65-1.29v12.95c1.37-1.37 3.46-2.77 5.51-2.77 3.11 0 5.27 1.93 5.27 6.49v6.68c0 2.51.31 2.69 2.51 2.88v1.07zm22.44-3.23c-2.43 3-5.09 3.68-6.31 3.68-4.63 0-7.44-3.79-7.44-8.16a9.73 9.73 0 0 1 2.47-6.64 7.77 7.77 0 0 1 5.66-2.77 5.92 5.92 0 0 1 5.81 5.88c0 .76-.16 1.1-.76 1.25-.76.15-5.62.5-10.14.65-.11 5.09 3 7.17 5.7 7.17a6.43 6.43 0 0 0 4.4-1.93zM500 296c-1.75 0-3.46 1.63-4 4.71 2.13 0 4.25 0 6.49-.12.69 0 .91-.19.91-.76A3.52 3.52 0 0 0 500 296zm14.26 15.63v-1.07c2.43-.22 2.74-.41 2.74-2.92v-18.18c0-2.32-.19-2.55-2.62-2.85v-1a26.6 26.6 0 0 0 5.61-1.29v23.31c0 2.51.23 2.7 2.7 2.92v1.07zm20.92.45a2.73 2.73 0 0 1-1.78-.72 3.49 3.49 0 0 1-.92-1.71c-1.51 1-3.37 2.43-4.55 2.43a4.65 4.65 0 0 1-4.63-4.67c0-1.86 1-3.07 3.11-3.79 2.32-.8 5.16-1.79 6-2.47v-.76c0-2.7-1.37-4.25-3.34-4.25a2.22 2.22 0 0 0-1.79.87 8.32 8.32 0 0 0-1 2.47 1.05 1.05 0 0 1-1.1.87 1.83 1.83 0 0 1-1.67-1.67c0-.53.49-1 1.25-1.52a15.93 15.93 0 0 1 5.47-2.65 5 5 0 0 1 5.12 5.42v7.33c0 1.75.65 2.28 1.33 2.28a3 3 0 0 0 1.37-.42l.38 1.07zm-2.77-9.6c-.84.42-2.66 1.21-3.53 1.59-1.44.65-2.32 1.37-2.32 2.77a2.76 2.76 0 0 0 2.74 2.93 5.05 5.05 0 0 0 3.11-1.37z" class="b485a97a-8777-41f5-9e65-dcbbe00ccb7e"/><path d="M553 306.77c-.5 1.48-1.26 3.64-1.64 4.86h-12.8l-.23-.61c3.3-4.78 6.53-9.83 9.64-14.73h-3.68c-2.69 0-3.15.42-4.63 3.68l-1.06-.34a53.55 53.55 0 0 0 1.17-5.47h.84c.23.57.72.8 2.12.8h9l.23.57c-3 4.56-6.34 9.72-9.49 14.77h4.06c2.89 0 3.76-.76 5.47-3.95z" class="b485a97a-8777-41f5-9e65-dcbbe00ccb7e"/><path d="M569.69 296c-2 .3-2.39.6-3.34 2.77s-2 4.71-4.6 11.31a104 104 0 0 0-3.75 10.4c-.23.8-.65 1-1.14 1a2.2 2.2 0 0 1-2.32-1.82c0-.5.27-.84.84-1.33a8.62 8.62 0 0 0 2.54-2.81c.8-1.6 1.37-2.92 1.56-3.42a2.2 2.2 0 0 0-.08-1.55c-1.48-4.33-3.53-9-4.67-11.73-.83-2.09-1.18-2.55-3.26-2.81v-1h7.67v1c-1.75.26-1.94.64-1.45 2.05l3.69 9.34c1.06-2.62 2.58-6.84 3.37-9.23.46-1.44.19-1.86-2-2.16v-1h7zm24.71 14.68a40.63 40.63 0 0 0-5.88 1.4v-2.46c-.69.41-1.67.94-2.36 1.36a6.9 6.9 0 0 1-3 1.1c-3 0-7.06-3-7.06-8.35s4.63-9.22 9.84-9.22a7.74 7.74 0 0 1 2.58.41v-5.58c0-2.43-.27-2.5-3-2.73v-1a37.94 37.94 0 0 0 6-1.29v22.89c0 2 .26 2.24 1.67 2.32l1.21.08zm-5.88-12.76a4.76 4.76 0 0 0-4-1.93c-1.82 0-5 1.21-5 6.68 0 4.59 2.85 7 5.28 7.06a6.77 6.77 0 0 0 3.76-1.37zm14.65-3.41a8.16 8.16 0 0 1 8.28 8.5c0 6.15-4.56 9.07-8.28 9.07a8.33 8.33 0 0 1-8.43-8.46 8.69 8.69 0 0 1 8.43-9.11zm-.45 1.29c-2.32 0-4.41 2.24-4.41 6.64 0 4.82 2.13 8.31 5.24 8.31 2.35 0 4.33-1.7 4.33-6.9 0-4.45-1.82-8.05-5.16-8.05zM618 306.08a2.83 2.83 0 0 0-1.26 1.9c0 .69.65 1.45 2.36 1.45h4.25c2.43 0 5.54.8 5.54 4.55 0 3.95-4.67 7.67-9.72 7.67-4.29 0-6.6-2.5-6.68-4.74a3 3 0 0 1 .95-2.17 35.1 35.1 0 0 1 3.11-2.73 4.93 4.93 0 0 1-2.84-2.05 3.47 3.47 0 0 1-.46-1.63 8 8 0 0 0 3.49-2.62zm1.82.38c-3.53 0-6.45-2.16-6.45-5.73 0-4.33 3.87-6.34 6.83-6.34a7.72 7.72 0 0 1 3.64.95 25.17 25.17 0 0 0 5.09-.57l.23.34a4.81 4.81 0 0 1-1.41 2c-.57 0-1.82-.16-2.35-.19a5.79 5.79 0 0 1 1.1 3.45c-.02 4.16-3.44 6.09-6.7 6.09zm.87 5.62c-1.86 0-2.69.23-3.38.8a4.37 4.37 0 0 0-1.82 3.11c0 2.09 2.17 3.65 5.09 3.65 3.61 0 5.66-1.86 5.66-4.29a2.85 2.85 0 0 0-1.67-2.77 10.18 10.18 0 0 0-3.9-.5zm-.87-16.47c-1.71 0-3.23 1.55-3.23 4.55s1.52 5.09 3.61 5.09c1.67-.08 3.15-1.48 3.15-4.56s-1.42-5.08-3.55-5.08z" class="b485a97a-8777-41f5-9e65-dcbbe00ccb7e"/><path d="M626.9 256.29v23.26M1 256.29v23.26m.76-11.63H626.9" class="fd00f30c-ec23-4e88-b31b-1993f595a22a"/><path d="M21.37 342.61h-2.7l-.37-6c-.13-2.13-.23-4.36-.19-5.89L15.48 341h-2.61l-2.8-10.38a57.72 57.72 0 0 1-.09 6l-.35 5.95H7l1.1-14.39h3.55l2.57 10.11 2.43-10.11h3.59zm5.12-15.02a1.69 1.69 0 1 1-1.7-1.63 1.61 1.61 0 0 1 1.7 1.63zm-.34 15h-2.67v-11.03h2.67zm11.74-7.98v8h-2.67V335c0-1.38-.52-1.78-1.36-1.78s-1.67.65-2.32 1.67v7.69h-2.67v-11.02h2.32l.21 1.44a4.12 4.12 0 0 1 3.36-1.75c1.98 0 3.13 1.25 3.13 3.36zm5.6-7.02A1.68 1.68 0 1 1 41.8 326a1.6 1.6 0 0 1 1.69 1.59zm-.33 15h-2.68v-11.03h2.68zm12.45-5.52c0 3.49-2 5.85-5.21 5.85s-5.2-2.21-5.2-5.85c0-3.46 1.95-5.82 5.23-5.82s5.18 2.21 5.18 5.82zm-7.59 0c0 2.66.82 3.83 2.38 3.83s2.39-1.19 2.39-3.83-.82-3.8-2.36-3.8-2.43 1.19-2.43 3.8zm18.66-2.46v8H64V335c0-1.38-.52-1.78-1.35-1.78s-1.67.65-2.32 1.67v7.69h-2.68v-11.02H60l.21 1.44a4.15 4.15 0 0 1 3.36-1.75c1.96 0 3.11 1.25 3.11 3.36zm12.03 2.21H77v5.79h-2.8v-14.43h4.3c3.78 0 5.73 1.38 5.73 4.24 0 2-1 3.13-2.93 3.9l3.78 6.29h-3.17zm-1.75-2h1.71c1.71 0 2.67-.69 2.67-2.42 0-1.57-.9-2.24-2.9-2.24H77zm18.34 3.09h-6.94c.21 2.26 1.25 3 2.72 3a4.63 4.63 0 0 0 2.75-1l1.11 1.52a6.31 6.31 0 0 1-4.09 1.48c-3.43 0-5.27-2.27-5.27-5.76s1.78-5.91 4.91-5.91 4.87 2.09 4.87 5.57c0 .37-.04.81-.06 1.1zm-2.59-1.86c0-1.82-.65-2.9-2.15-2.9-1.26 0-2 .83-2.2 3h4.35zm14.29-3.9a10 10 0 0 1-3.19.37 2.91 2.91 0 0 1 2 2.84c0 2.15-1.67 3.72-4.45 3.72a4.28 4.28 0 0 1-1.31-.17 1 1 0 0 0-.46.82c0 .4.23.77 1.33.77h1.7c2.44 0 4 1.32 4 3.13 0 2.22-1.9 3.53-5.52 3.53-3.92 0-5-1.25-5-3.46h2.4c0 1.1.48 1.58 2.68 1.58s2.77-.58 2.77-1.46-.64-1.31-1.88-1.31h-1.67c-2.21 0-3.15-1-3.15-2.13a2.49 2.49 0 0 1 1.29-2.05 3.23 3.23 0 0 1-1.94-3.11c0-2.41 1.9-4 4.58-4a8.91 8.91 0 0 0 5.16-1.24zm-7.7 3a1.92 1.92 0 0 0 2 2.18c1.27 0 2-.8 2-2.2s-.67-2.09-2-2.09a1.88 1.88 0 0 0-2.05 2.13zm17.49 7.46h-2.32l-.14-1.55a3.72 3.72 0 0 1-3.39 1.86c-2 0-3.07-1.29-3.07-3.42v-7.94h2.68v7.6c0 1.3.41 1.74 1.33 1.74a2.7 2.7 0 0 0 2.24-1.57v-7.77h2.67zm2.59-2.53v-12.95l2.68-.29V340c0 .52.16.77.62.77a1.85 1.85 0 0 0 .61-.1l.58 1.88a4.4 4.4 0 0 1-1.79.37 2.53 2.53 0 0 1-2.7-2.84zm14.79 1.03l-.56 1.77a2.47 2.47 0 0 1-2.44-1.61 3.82 3.82 0 0 1-3.33 1.65 3.27 3.27 0 0 1-3.55-3.4c0-2.4 1.8-3.7 5-3.7h1.4v-.63c0-1.44-.65-1.92-2.07-1.92a10.05 10.05 0 0 0-2.95.59l-.6-1.82a11.36 11.36 0 0 1 4-.79c3 0 4.26 1.35 4.26 3.8v4.64c.01.89.3 1.21.84 1.42zm-3.46-1.49v-2.23h-1.11c-1.74 0-2.59.63-2.59 1.92a1.46 1.46 0 0 0 1.56 1.67 2.4 2.4 0 0 0 2.14-1.36zm11.97-8.21l-.46 2.59a3.84 3.84 0 0 0-1-.12c-1.33 0-2 1-2.44 2.84v5.89h-2.67v-11.05h2.31l.26 2.17a3.1 3.1 0 0 1 2.88-2.46 4.07 4.07 0 0 1 1.12.14z" class="a6487767-3f3c-4137-acaa-9833411ea020"/><path d="M25.26 422c-.42 1.75-.87 4.52-1.22 6.57l-1.17.08a10 10 0 0 0-.15-2.09c-.19-1.67-.65-2.28-4.1-2.28H16.3l-3.57 18.64c-.57 3.08-.26 3.26 3.19 3.53l-.23 1.06H5.25l.27-1.06c3.22-.27 3.49-.49 4.06-3.53l3.57-18.64h-2.28c-3 0-3.68.49-4.37 1.48a14.94 14.94 0 0 0-1.7 2.92l-1.22-.11A64.08 64.08 0 0 0 5.14 422H6c.38.88.8.84 1.82.84h14.59a2.16 2.16 0 0 0 2-.84zm.83-.51a22.63 22.63 0 0 0 4.67-.95 3 3 0 0 1 1.07-.3c.3 0 .38.38.19 1.25-1.07 4.86-2.43 10.9-3.5 15.76 3-4.22 6.88-6.84 9.23-6.84 1.29 0 2.5.61 1.33 5.43-.53 2.35-1.26 5.54-1.86 7.93-.27 1-.23 1.45.07 1.45s1.26-.46 2.62-1.9l.57.91c-1.86 2.54-4.33 3.76-5.43 3.76s-1.4-1.18-.76-3.87 1.48-6 2.09-8.55c.53-2.16.23-2.73-.53-2.73-1.4 0-4.25 1.82-6.79 6a9.16 9.16 0 0 0-1.37 3.16c-.34 1.52-.84 3.76-1.14 5.24a21.07 21.07 0 0 0-2.73.72l-.27-.27c1.63-7.32 3.61-16.59 4.94-23.38.3-1.56.07-1.6-1.07-1.71-.42 0-1.25-.11-1.55-.11zM46.56 448c-1.83 0-4.29-1.06-4.29-5.66 0-3.53 1.51-7.74 4.51-9.94a9.25 9.25 0 0 1 5.13-2 3.06 3.06 0 0 1 3.38 3c0 3.8-5.58 5.58-9.83 6.34 0 .45-.08 1.21-.08 1.59 0 2.21.61 4.33 3 4.33 1.71 0 3.76-1.06 5.62-3l.57 1c-3.12 3.57-6.12 4.34-8.01 4.34zm-1-9.45c5.5-1 6.79-2.74 6.83-4.48a1.83 1.83 0 0 0-2-2c-1.06-.07-3.68.81-4.78 6.47zm32.09 18.21l-8.89.45.19-1 .69-.11c1.82-.38 2.16-.73 2.69-3s1.56-7.82 2.28-11.32C72.18 445 68.73 448 65.92 448c-1.56 0-2.62-1.71-2.62-4.4a13.59 13.59 0 0 1 4.29-10.1 12.23 12.23 0 0 1 7.82-3.08 18.5 18.5 0 0 1 4.17.72c-.15.61-.6 2.13-.76 3.12C77 443.55 76 449 75.29 452.89c-.41 2.31-.3 2.58 1.56 2.77l1 .11zM66.52 442.6c0 1.93.57 2.88 1.45 2.88 1.4 0 3.45-1.44 6.07-5.05a7.89 7.89 0 0 0 1.41-3.22c.3-1.44.64-3.08.91-4.48a6.67 6.67 0 0 0-3-.61c-4.98 0-6.84 6.07-6.84 10.48zm31.78 1.48c-1.86 2.58-4.3 3.92-5.39 3.92s-1.44-.91-.84-4.06c.31-1.44.5-2.28.69-3.11a28.75 28.75 0 0 1-5.28 5.58A7 7 0 0 1 83.8 448c-1.22 0-2.58-.8-1.52-5.47.57-2.35 1.25-5.16 1.9-7.82.3-1.14.26-1.48 0-1.48a6.23 6.23 0 0 0-2.47 1.75l-.53-.95c1.82-2 4.29-3.57 5.47-3.57s1.1 1.18.41 4.1c-.64 2.51-1.32 5.24-1.86 7.56-.57 2.58-.34 3.3.42 3.3 1.33 0 3.57-2 5.51-4.44a14.71 14.71 0 0 0 2.77-5.51c.23-.87.6-2.43.91-4.06a28.35 28.35 0 0 0 2.73-1h.42c-1.14 4.41-2.54 10.18-3.11 13.44-.12.91 0 1.29.26 1.29s1.26-.45 2.66-1.93zm8.47.15c-1.9 2.54-4.29 3.76-5.43 3.76s-1.41-1-.69-4c.61-2.51 1.67-6.57 2.39-9.65.16-.72.12-1.06-.11-1.06a6.51 6.51 0 0 0-2.5 1.71l-.5-1c1.79-1.94 4.37-3.57 5.58-3.57.95 0 1 1.29.31 4.1s-1.64 6.57-2.32 9.26c-.27 1-.27 1.45 0 1.45s1.4-.53 2.73-1.94zm1.06-19.89a2.09 2.09 0 0 1-2 2.2 1.62 1.62 0 0 1-1.67-1.71 2.2 2.2 0 0 1 2.12-2.24 1.57 1.57 0 0 1 1.55 1.75zm12.49 19.47c-2.32 2.66-5 4.18-7.67 4.18s-4.29-2-4.29-5.62a12.65 12.65 0 0 1 3.87-9.11 10.07 10.07 0 0 1 6-2.85c1.67 0 2.92.87 3 1.75a2.18 2.18 0 0 1-1.29 2 .65.65 0 0 1-.88-.23 3.59 3.59 0 0 0-2.88-1.63c-2.89 0-4.63 4.79-4.63 9.27 0 2.77 1.06 4.17 2.81 4.17 2 0 4.25-1.71 5.39-2.88zm17.27.57c-1.86 2.77-3.49 3.61-4.48 3.61s-1.67-.68-3-3.57c-.87-1.94-1.75-3.91-2.43-5.66-1.56 1.79-2.39 2.78-2.66 4-.41 1.75-.6 2.92-1 4.48a19.65 19.65 0 0 0-2.73.76l-.26-.23c1.59-7.29 3.94-18.26 4.93-23.54.23-1.32.19-1.59-2.58-1.74l.23-1c3.07-.42 5.2-1.29 5.69-1.29s.42.38.23 1.14c-1.14 5-2.66 12.07-4 17.92 2.13-2.32 7.63-8.89 10.36-8.89 1.11 0 1.75.53 1.75 1.25a3.71 3.71 0 0 1-1.14 2.28c-.42.34-.61.38-.95.15a3.43 3.43 0 0 0-1.82-.83c-.83 0-3 2.13-4.25 3.53.64 1.71 1.94 4.4 2.92 6.3.84 1.67 1.37 2.36 1.94 2.36s1.29-.5 2.47-1.94zm10.1-22.89a24.59 24.59 0 0 0 4.63-.95 3.44 3.44 0 0 1 1.14-.3c.34 0 .38.38.19 1.17-1.29 5.13-2.32 9.91-3.34 14.54 2.81-3.6 6-5.54 8.27-5.54s2.74 2.51 2.74 4.18a14.26 14.26 0 0 1-6 11.31 10.59 10.59 0 0 1-5.62 2.1 3.22 3.22 0 0 1-2.5-1c-.8-.83-1.41-2.31-.65-6.11 1.06-5.28 2.32-10.78 3.49-16.55.31-1.52 0-1.59-1.1-1.71-.42 0-1.1-.07-1.48-.07zm10.48 13.67c0-1.37-.38-2.51-1.52-2.51s-3.19 1.1-5.51 4.14a9.34 9.34 0 0 0-1.86 4.48c-.6 3.68.53 5 2.21 5 3.98-.03 6.68-7.05 6.68-11.11zm4.59-1.16c1.9-2.24 3.91-3.61 5-3.61 1.29 0 1.18 2 .46 5.28l-.23 1c2.05-3.49 4.67-6.3 6.19-6.3a1.75 1.75 0 0 1 1.74 1.71 3.58 3.58 0 0 1-1.48 2.43c-.34.23-.64.23-.83 0-.42-.46-.8-1.1-1.25-1.1-.88 0-2.74 2.69-3.61 4.25-1.33 2.39-2 5.89-2.77 9.53a20.11 20.11 0 0 0-2.77.76l-.27-.27c.91-3.49 2.24-9.26 2.77-12 .42-2.13.31-2.47 0-2.47a5.71 5.71 0 0 0-2.47 1.75zm27.24 2.33a12.18 12.18 0 0 1-5.31 10.14A9.09 9.09 0 0 1 180 448c-3.61 0-5.09-2.89-5.09-5.92a11.55 11.55 0 0 1 6.09-10.64 9.66 9.66 0 0 1 3.91-1c3.21-.03 5.09 2.06 5.09 5.89zm-11.84 5.32c0 2.85 1.06 4.75 3.15 4.75 3.6 0 5.5-5.81 5.5-9.91 0-3.15-1.37-4.48-3.19-4.48-3.81-.01-5.48 5.73-5.48 9.64zm12.92-7.52c1.4-1.93 3.46-3.72 4.67-3.72s1.52 1.29 1.59 4.52c.08 2.77.08 6.23 0 8.31 2.39-3.75 5.17-8 7.41-12.18h1c.27 4.06.69 8.84 1.1 13.09 1.83-2.23 5.51-7.21 5.55-9.56a4.07 4.07 0 0 0-.57-1.82 1 1 0 0 1-.12-.84 2.84 2.84 0 0 1 2.17-1.52c.95 0 1.44.87 1.44 2.17a6.87 6.87 0 0 1-1 3.34c-1.71 3.19-5.62 8.08-8.77 12.07h-1.1c-.26-3.3-.64-8-1-11.81-2.47 4.14-5.47 8.51-7.52 11.81h-1.06c0-3 0-8.5-.27-12.53-.11-1.56-.26-2.28-.61-2.28s-1 .5-2.27 1.86zm42.37 9.99c-2 2.65-4.33 3.87-5.43 3.87s-1.56-.91-.84-4c.69-2.7 1.33-5.4 1.9-7.79s.46-3.3-.49-3.3c-1.25 0-4.18 2.13-6.76 6.07a9.83 9.83 0 0 0-1.29 3.19c-.38 1.48-.87 3.53-1.18 5.09a18.64 18.64 0 0 0-2.69.76l-.27-.27c1.06-4.13 2.17-8.77 3.11-13 .27-1.18.12-1.52-.19-1.52s-1.32.84-2.32 1.78l-.53-1c1.74-2.2 3.72-3.57 5-3.57s1.41 1.33.61 4.63l-.53 2.24c3.38-4.4 6.79-6.87 9.07-6.87 1.25 0 2.43.87 1.21 6-.49 2.09-1.21 5-1.78 7.4-.23 1-.23 1.49 0 1.49s1.44-.61 2.81-2.05zm12.6-13.25c.57-2.85 1.44-5.62 3.27-7.63a8.18 8.18 0 0 1 5.5-3c1.33 0 2.43.76 2.43 1.55a3.25 3.25 0 0 1-1.14 1.9.6.6 0 0 1-.87 0 3.84 3.84 0 0 0-2.62-1.44c-1.44 0-2.47 1.59-3.65 8.62h4.29l-.72 1.36c-.64 0-2.77.19-3.79.19-.73 4.18-1.14 6.61-2 11.09-1.29 6.72-2.69 9.34-4.78 11.5a7 7 0 0 1-4.41 2.51c-1.4 0-2.43-.72-2.43-1.67a3.07 3.07 0 0 1 1.18-2.09.52.52 0 0 1 .72 0 4.07 4.07 0 0 0 2.47 1.29c2.17 0 2.81-2.66 4.1-10.21.91-5.16 1.52-8.66 2.13-12.42h-3.23v-.45l1.06-1.1zm20.16 5.46a12.17 12.17 0 0 1-5.32 10.14 9 9 0 0 1-4.66 1.52c-3.61 0-5.09-2.89-5.09-5.92a11.55 11.55 0 0 1 6.11-10.63 9.62 9.62 0 0 1 3.91-1c3.19-.03 5.05 2.06 5.05 5.89zm-11.85 5.32c0 2.85 1.07 4.75 3.16 4.75 3.6 0 5.5-5.81 5.5-9.91 0-3.15-1.37-4.48-3.19-4.48-3.83-.01-5.47 5.73-5.47 9.64zm13.64-7.29c1.63-2.54 3.3-3.95 4.52-3.95 1.06 0 1.78 1.22 2.66 4.14l.57 2c3.3-4.55 4.93-6.15 6.64-6.15A1.5 1.5 0 0 1 284 432a2.71 2.71 0 0 1-.91 1.83 1 1 0 0 1-.79.3c-.42-.08-.84-1-1.41-1-.83 0-2.28 1.51-4.71 4.85l1.26 3.88c.72 2.27 1.29 3.41 1.93 3.41s1.29-.45 2.77-2.24l.69.88c-1.63 2.58-3.5 4.06-4.86 4.06-1 0-1.86-1.25-2.77-4.1l-1-3.3c-3.72 5.35-5.35 7.4-7.06 7.4a1.65 1.65 0 0 1-1.67-1.79c0-1.1.95-2.27 1.67-2.27.53 0 .87 1 1.4 1 .69 0 1.9-1.18 5.24-5.81l-1-3.34c-.65-2.05-1-2.77-1.52-2.77s-1.14.38-2.43 2.17zm23.26 0c2.28-2.43 4.67-3.95 5.81-3.95.69 0 1.07.72.76 2.58-.57 3.46-1.71 9-2.43 12.42-1.29 6.15-3.41 9-5.92 10.93a5.11 5.11 0 0 1-2.81 1.18c-.95 0-1.71-.57-1.71-1.29a3.15 3.15 0 0 1 1-2c.34-.26.53-.41.84-.19a3.57 3.57 0 0 0 2 .95c.68 0 1.67-.45 2.28-2.73.95-3.53 2.35-10.63 3.53-16.71.38-1.78.27-2.05 0-2.05a6.32 6.32 0 0 0-2.69 1.79zm7.71-10a2.06 2.06 0 0 1-2 2.2 1.61 1.61 0 0 1-1.63-1.71 2.17 2.17 0 0 1 2.08-2.24 1.57 1.57 0 0 1 1.58 1.73zm17.92 19.72c-1.86 2.58-4.33 3.87-5.39 3.87s-1.44-.91-.84-4.06c.31-1.44.5-2.28.69-3.11a28.75 28.75 0 0 1-5.28 5.58 7 7 0 0 1-3.68 1.59c-1.22 0-2.58-.8-1.52-5.47.57-2.35 1.25-5.16 1.9-7.82.3-1.14.26-1.48 0-1.48a6.23 6.23 0 0 0-2.47 1.75l-.53-.95c1.82-2 4.29-3.57 5.47-3.57s1.1 1.18.42 4.1c-.65 2.51-1.33 5.24-1.87 7.56-.56 2.58-.34 3.3.42 3.3 1.33 0 3.57-2 5.51-4.44a14.71 14.71 0 0 0 2.77-5.51c.23-.87.61-2.43.91-4.06a27.41 27.41 0 0 0 2.73-1h.42c-1.14 4.41-2.54 10.18-3.11 13.44-.12.91 0 1.29.26 1.29s1.26-.45 2.66-1.93zm25.78-13.67c1.21 0 2.43.57 1.25 5.43-.53 2.35-1.33 5.58-1.9 8-.23 1-.23 1.41 0 1.41s1.44-.57 2.85-2.05l.57.95c-1.9 2.55-4.44 3.85-5.54 3.85-.95 0-1.48-.91-.69-4.1.65-2.62 1.41-5.81 2-8.35.49-2.09.18-2.66-.46-2.66-1.22 0-4.4 2.13-7 6.3a9.25 9.25 0 0 0-1.32 3.15c-.35 1.48-.8 3.38-1.11 4.94a12.62 12.62 0 0 0-2.73.72l-.27-.27c.95-3.87 1.9-7.51 2.7-11.39.53-2.35.46-3.45-.42-3.45-1.25 0-4.29 2.28-6.79 6.3a10.44 10.44 0 0 0-1.29 3.19c-.34 1.48-.8 3.34-1.1 4.9a14.47 14.47 0 0 0-2.74.72l-.23-.27c1-3.87 2.21-8.8 3.12-12.94.26-1.26.15-1.56-.15-1.56a6.12 6.12 0 0 0-2.43 1.71l-.5-1c1.75-2.09 3.72-3.53 5-3.53 1.06 0 1.36 1.52.68 4.44l-.57 2.59c3.49-4.79 7-7 8.92-7 1.33 0 2.24 1 1.18 5.85l-.27 1.29c3.39-4.78 7.26-7.17 9.24-7.17z" class="b485a97a-8777-41f5-9e65-dcbbe00ccb7e"/><path d="M353.64 430.87a13.42 13.42 0 0 1 3.45-.46c4 0 5.51 1.86 5.51 5.2a12.15 12.15 0 0 1-3.27 8 14.67 14.67 0 0 1-7.06 4.4 6.07 6.07 0 0 1-2.2-.38L349 453c-.42 2.13-.27 2.51 1.59 2.66l1.07.11-.16 1-8.92.46.19-1c2.58-.46 2.85-.76 3.34-3.08 1.44-6.64 2.89-13.36 4.25-19.89a21 21 0 0 0-3.07 1.41l-.27-1.07a22.06 22.06 0 0 1 3.69-1.9l.41-1.74a11.05 11.05 0 0 1 2.81-2.2l.34.22zm-3 14.12a3 3 0 0 0 2.31 1.25c2.7 0 6.42-5.08 6.42-9.94 0-3.34-1.78-4.22-4-4.22a8.67 8.67 0 0 0-2.09.31c-.74 3.75-1.8 8.8-2.6 12.61zm23.65-12.53a2.27 2.27 0 0 1-1.18 1.82c-.34.16-.57.08-.87-.26a4 4 0 0 0-2.85-1.71 2.1 2.1 0 0 0-2.05 2.16c0 1.26 1.14 2.17 2.51 3.23 2.28 1.79 3.26 2.77 3.26 4.44 0 3.12-3.94 5.85-7 5.85-1.82 0-3.57-1.25-3.57-2.58a2.28 2.28 0 0 1 1.56-1.94c.26 0 .42.12.64.38a4.29 4.29 0 0 0 3.35 2.2 2.38 2.38 0 0 0 2.5-2.35c0-.91-.42-1.82-2.2-3.3s-3.34-2.47-3.3-4.45a4.73 4.73 0 0 1 2-3.68 7.1 7.1 0 0 1 4.25-1.86c1.66 0 2.95.99 2.95 2.05zm22.89 3.87a12.18 12.18 0 0 1-5.31 10.14 9.06 9.06 0 0 1-4.67 1.53c-3.61 0-5.09-2.89-5.09-5.92a11.55 11.55 0 0 1 6.11-10.63 9.7 9.7 0 0 1 3.91-1c3.19-.04 5.05 2.05 5.05 5.88zm-11.84 5.32c0 2.85 1.06 4.75 3.15 4.75 3.61 0 5.5-5.81 5.5-9.91 0-3.15-1.36-4.48-3.18-4.48-3.81-.01-5.47 5.73-5.47 9.64zm12.91-7.56c1.44-2 3.41-3.68 4.59-3.68 1 0 1.48 1.18 1.63 4.25.23 3.72.27 7.41.34 9.72 1.71-2.09 6.12-7.13 6.12-9.83a3.89 3.89 0 0 0-.61-1.82.77.77 0 0 1-.08-.8 2.82 2.82 0 0 1 2.2-1.52c.92 0 1.41.87 1.45 2.17s-.53 3-2.28 5.46c-2.13 3-5.92 7.33-8.16 9.95h-1.1c-.16-3.87-.35-9.15-.57-12.42-.16-2-.38-2.35-.76-2.35s-.95.34-2.17 1.79zM419.2 448c-1.82 0-4.29-1.06-4.29-5.66 0-3.53 1.52-7.74 4.52-9.94a9.22 9.22 0 0 1 5.12-2 3.05 3.05 0 0 1 3.38 3c0 3.8-5.58 5.58-9.83 6.34 0 .45-.08 1.21-.08 1.59 0 2.21.61 4.33 3 4.33 1.7 0 3.75-1.06 5.61-3l.57 1c-3.1 3.57-6.1 4.34-8 4.34zm-.95-9.45c5.51-1 6.8-2.74 6.84-4.48a1.84 1.84 0 0 0-2-2c-1.09-.07-3.74.81-4.84 6.47zm10.56-4.55c1.89-2.24 3.91-3.61 5-3.61 1.29 0 1.17 2 .45 5.28l-.23 1c2-3.49 4.67-6.3 6.19-6.3a1.76 1.76 0 0 1 1.75 1.71 3.61 3.61 0 0 1-1.48 2.43c-.34.23-.65.23-.84 0-.41-.46-.79-1.1-1.25-1.1-.87 0-2.73 2.69-3.61 4.25-1.32 2.39-2 5.89-2.77 9.53a20.51 20.51 0 0 0-2.77.76l-.26-.27c.91-3.49 2.23-9.26 2.77-12 .41-2.13.3-2.47 0-2.47a5.7 5.7 0 0 0-2.46 1.75zm29.87-1.8c-.76.07-2.69.22-3.83.22-1.71 7.9-2.24 10.33-2.43 11.47s0 1.52.38 1.52c.76 0 2-1 3.41-2.39l.5 1c-1.22 1.86-4.18 4-5.81 4-1.33 0-2-1-1-5.51l2.2-10.06h-3v-.34l1.1-1.21h2.28l.87-4.06a22.76 22.76 0 0 0 3-2.09l.34.19c-.46 1.52-1.06 4-1.48 6h4.21z" class="b485a97a-8777-41f5-9e65-dcbbe00ccb7e"/><path d="M460.31 421.49a22.63 22.63 0 0 0 4.67-.95 3 3 0 0 1 1.07-.3c.3 0 .38.38.19 1.25-1.07 4.86-2.43 10.9-3.5 15.76 3-4.22 6.88-6.84 9.23-6.84 1.29 0 2.51.61 1.33 5.43-.53 2.35-1.25 5.54-1.86 7.93-.27 1-.23 1.45.07 1.45s1.26-.46 2.62-1.9l.57.91c-1.86 2.54-4.33 3.76-5.43 3.76s-1.4-1.18-.76-3.87 1.49-6 2.09-8.55c.53-2.16.23-2.73-.53-2.73-1.4 0-4.25 1.82-6.79 6a9.16 9.16 0 0 0-1.37 3.19c-.34 1.52-.84 3.76-1.14 5.24a21.07 21.07 0 0 0-2.77.73l-.27-.27c1.63-7.32 3.61-16.59 4.94-23.38.3-1.56.07-1.6-1.07-1.71-.41 0-1.25-.11-1.55-.11zM480.78 448c-1.83 0-4.29-1.06-4.29-5.66 0-3.53 1.52-7.74 4.51-9.94a9.25 9.25 0 0 1 5.13-2 3.06 3.06 0 0 1 3.38 3c0 3.8-5.58 5.58-9.83 6.34 0 .45-.08 1.21-.08 1.59 0 2.21.61 4.33 3 4.33 1.71 0 3.76-1.06 5.62-3l.57 1c-3.12 3.57-6.11 4.34-8.01 4.34zm-.95-9.45c5.5-1 6.79-2.74 6.83-4.48a1.83 1.83 0 0 0-2-2c-1.11-.07-3.73.81-4.83 6.47zm24.64 5.53c-1.9 2.54-4.41 3.91-5.51 3.91-.95 0-1.52-.76-.76-4.4 1.37-6.5 2.85-13.37 4.06-19.21.31-1.52.19-1.67-1.17-1.79-.42 0-1.1-.11-1.41-.11l.23-1a24.65 24.65 0 0 0 4.63-.95 3.11 3.11 0 0 1 1.14-.3c.34 0 .34.34.15 1.21-1.71 7.29-3.57 15.95-4.82 22.29-.23 1.06-.19 1.4.11 1.4s1.41-.53 2.78-2zm17.53.04c-1.86 2.5-4.21 3.87-5.27 3.87s-1.52-.87-.84-4.33l.53-2.62a20.91 20.91 0 0 1-4.55 5.13A7 7 0 0 1 508 448c-1.33 0-2.43-1.63-2.43-4.71a14 14 0 0 1 4.21-9.87 11.16 11.16 0 0 1 7.25-3 24.94 24.94 0 0 1 4.41.65c-.69 2.39-2 8.24-2.74 12.53-.19 1.06-.11 1.48.19 1.48.46 0 1.26-.5 2.62-1.9zm-6.83-3.12a13.44 13.44 0 0 0 2.2-4.56 35 35 0 0 0 .84-3.72 7.57 7.57 0 0 0-2.89-.61c-4.48 0-6.56 5.77-6.56 10.71 0 1.52.41 2.5 1.17 2.5 1.18-.03 2.85-1.2 5.24-4.32zm23.2-10.28c-2.39 3.41-9.84 10.36-12.46 13.21a6.41 6.41 0 0 1 2.17.42 16.52 16.52 0 0 0 4.29 1.21c1 0 2.09-.42 4.1-3.57l.91.72c-2 4-3.91 5.58-5.58 5.58s-3.38-1-5.2-1.86c-1.1-.53-1.82-.6-2.36-.26a4 4 0 0 0-1.1 1.14c-.3.38-.38.53-.53.53a1.18 1.18 0 0 1-.61-.95c0-.49.35-1.14 1.94-2.89 2.47-2.81 8.43-8.5 10.44-10.78a11.44 11.44 0 0 1-2.09.08c-1.06 0-2.88-.19-3.79-.19-1.56 0-2.59 1.14-3.72 3.15l-.95-.61c1.21-2.85 2.69-5.16 3.87-5.16 1.48 0 6 .83 7.59.83a3.85 3.85 0 0 0 2.36-1.55z" class="b485a97a-8777-41f5-9e65-dcbbe00ccb7e"/><path d="M538.33 434.17c1.17-1.75 3.3-3.76 4.67-3.76s1.82 2.43 2 5.73.41 6.61.57 9c1.7-2.54 5.5-7.93 5.46-10.71a4.49 4.49 0 0 0-.57-1.86 1 1 0 0 1 .16-1.21 2.6 2.6 0 0 1 1.74-1c.88 0 1.41.84 1.41 2.09a9.73 9.73 0 0 1-1.33 4.37 121.61 121.61 0 0 1-13.78 19.32l-4 1-.34-.87a34.14 34.14 0 0 0 8.69-8c0-3-.49-8.5-.83-12-.23-2.31-.61-3.18-1-3.18s-1.44.87-2.35 2zm40.05 10.06c-1.86 2.43-4.25 3.8-5.32 3.8s-1.59-.91-.83-4.52l.45-2.13c-2.2 3.23-5.77 6.65-8.46 6.65-1.48 0-2.89-1.33-2.89-4.9a13.72 13.72 0 0 1 4.44-10 11.75 11.75 0 0 1 6.34-2.7 6.8 6.8 0 0 1 2.78.49l1.32-6.53c.31-1.51 0-1.67-1.36-1.78-.38 0-1.18-.08-1.45-.08l.23-1a25.32 25.32 0 0 0 4.82-1 6 6 0 0 1 1.11-.26c.3 0 .38.34.18 1.13-1.74 7.48-3.53 15.38-4.82 22.4-.19 1 0 1.45.23 1.45.46 0 1.41-.57 2.77-2zm-6.53-3.64a10.41 10.41 0 0 0 1.78-4l.76-3.26a5 5 0 0 0-3.64-1.18c-4.37 0-6.23 6.26-6.23 10.17 0 2.13.57 3.23 1.6 3.23 1.55-.03 3.79-2.15 5.73-4.96zm22.7-4.26a12.18 12.18 0 0 1-5.31 10.14 9.09 9.09 0 0 1-4.67 1.52c-3.61 0-5.09-2.89-5.09-5.92a11.55 11.55 0 0 1 6.11-10.63 9.66 9.66 0 0 1 3.91-1c3.19-.03 5.05 2.06 5.05 5.89zm-11.84 5.32c0 2.85 1.06 4.75 3.15 4.75 3.6 0 5.5-5.81 5.5-9.91 0-3.15-1.36-4.48-3.19-4.48-3.79-.01-5.46 5.73-5.46 9.64zm18.79 1.29c-.61.57-1 .95-1 1.41s.76 1.29 3 2.39c4.17 1.93 5.31 3.19 5.31 4.86 0 3.18-5.35 5.92-9.18 5.92s-7.1-2-7.1-4.41c0-1.59 2.24-3.26 6.45-5.69-1-.61-1.33-1.29-1.29-1.82s.91-1.67 2.62-2.74zm4.52 9.91c0-.8-.35-1.67-1.83-2.58a38.53 38.53 0 0 0-4.13-2.17c-3 1.67-4.29 3.08-4.29 4.41 0 2 2.54 3.38 5.39 3.38s4.84-1.49 4.84-3.04zm-9.19-14.24a8.11 8.11 0 0 1 3.76-6.83 9 9 0 0 1 4.17-1.37 5 5 0 0 1 3.23 1 8.17 8.17 0 0 0 4.25-.88l.27.88a5.09 5.09 0 0 1-3.51 1.89 8 8 0 0 1 .22 1.74 7.6 7.6 0 0 1-2.65 5.89 9.08 9.08 0 0 1-5.74 2.2c-2.64-.04-4-2.13-4-4.52zm9.53-3.11c0-2.35-1-3.68-2.62-3.68-2.24 0-4 2.92-4 6.3 0 2.28 1.1 3.49 2.51 3.49 2.28 0 4.11-2.69 4.11-6.11z" class="b485a97a-8777-41f5-9e65-dcbbe00ccb7e"/><path d="M610.51 389.8v23.25M1 389.8v23.25m.76-11.62h608.75" class="fd00f30c-ec23-4e88-b31b-1993f595a22a"/><path d="M21.37 476.71h-2.7l-.37-6c-.13-2.13-.23-4.36-.19-5.89l-2.63 10.36h-2.61l-2.8-10.38a57.72 57.72 0 0 1-.09 6l-.35 5.95H7l1.1-14.47h3.55l2.57 10.11 2.43-10.11h3.59zm5.12-15.02a1.69 1.69 0 1 1-1.7-1.63 1.61 1.61 0 0 1 1.7 1.63zm-.34 15h-2.67v-11h2.67zm11.74-7.98v8h-2.67v-7.58c0-1.38-.52-1.78-1.36-1.78s-1.67.65-2.32 1.67v7.69h-2.67v-11h2.32l.21 1.44a4.09 4.09 0 0 1 3.36-1.75c1.98-.05 3.13 1.2 3.13 3.31zm5.6-7.02a1.68 1.68 0 1 1-1.69-1.63 1.6 1.6 0 0 1 1.69 1.63zm-.33 15h-2.68v-11h2.68zm12.45-5.52c0 3.49-2 5.85-5.21 5.85s-5.2-2.21-5.2-5.85c0-3.46 1.95-5.82 5.23-5.82s5.18 2.21 5.18 5.82zm-7.59 0c0 2.66.82 3.83 2.38 3.83s2.39-1.19 2.39-3.83-.82-3.8-2.36-3.8-2.43 1.19-2.43 3.8zm18.66-2.46v8H64v-7.58c0-1.38-.52-1.78-1.35-1.78S61 468 60.33 469v7.69h-2.68v-11H60l.21 1.44a4.12 4.12 0 0 1 3.36-1.75c1.96-.03 3.11 1.22 3.11 3.33zm10.32 8h-2.8v-14.43H77zm9.17-.52a4.88 4.88 0 0 1-2.78.83c-2.17 0-3.32-1.25-3.32-3.61v-5.83h-1.74v-1.92h1.74v-2.44l2.67-.32v2.76h2.57l-.31 1.92h-2.3v5.77c0 1.08.36 1.52 1.17 1.52a2.64 2.64 0 0 0 1.32-.39zm9.96-.98l-.56 1.79a2.49 2.49 0 0 1-2.45-1.61A3.79 3.79 0 0 1 89.8 477a3.27 3.27 0 0 1-3.55-3.4c0-2.4 1.8-3.7 5-3.7h1.4v-.63c0-1.44-.65-1.92-2.07-1.92a10 10 0 0 0-2.95.59l-.6-1.82a11.36 11.36 0 0 1 4-.79c3 0 4.26 1.35 4.26 3.8v4.64c.01.91.3 1.23.84 1.44zm-3.46-1.49v-2.23h-1.11c-1.74 0-2.59.62-2.59 1.92a1.46 1.46 0 0 0 1.56 1.67 2.4 2.4 0 0 0 2.14-1.36zm5.13.46v-12.95l2.68-.29v13.16c0 .52.17.77.62.77a1.85 1.85 0 0 0 .61-.1l.59 1.88a4.49 4.49 0 0 1-1.8.37 2.53 2.53 0 0 1-2.7-2.84zm8.92-12.49a1.68 1.68 0 1 1-1.69-1.63 1.6 1.6 0 0 1 1.69 1.63zm-.33 15h-2.67v-11h2.67zm10.8-10.05l-1.19 1.61a3.55 3.55 0 0 0-2.24-.79c-1.54 0-2.48 1.12-2.48 3.78s1 3.61 2.48 3.61a3.87 3.87 0 0 0 2.24-.79l1.19 1.69a5.46 5.46 0 0 1-3.57 1.27c-3.2 0-5.18-2.21-5.18-5.74s2-5.93 5.16-5.93a5.12 5.12 0 0 1 3.59 1.29z" class="a6487767-3f3c-4137-acaa-9833411ea020"/></g></g></svg>