<svg xmlns="http://www.w3.org/2000/svg" id="Layer_1" viewBox="0 0 347.04 131.14" width="347.04" height="131.14"><defs><style>.cls-1{fill:#b3b4b4}.cls-2{fill:#231f20}.cls-3{fill:#518dcb}.cls-4{fill:#505150}.cls-5{fill:#e6e7e8;stroke:#505150;stroke-miterlimit:10}</style></defs><path d="M118.24 89.44h31.57v31.57h-31.57z" class="cls-5"/><path d="M149.8 89.44h31.57v31.57H149.8zm31.57 0h31.57v31.57h-31.57z" class="cls-5"/><path d="M91.32 0h26.91v76.49H91.32z" class="cls-2"/><path d="M91.32 76.49h26.91v12.95H91.32z" class="cls-3"/><path d="M1.35 10.67c2.23 0 4.93.07 7.97.07s5.81-.07 8.37-.07l-.61 1.62-4.73 2.03v17.56c0 10.8.13 18.97.27 20.05l14.45.88c1.69-2.57 4.79-7.16 6.28-8.85l1.35-.07c-.34 3.04-1.69 9.72-2.3 11.55-2.43 0-7.97-.27-22.96-.27-3.17 0-6.48.07-9.45.07l.47-1.55 5.6-2.03c.14-.88.27-9.12.27-19.72V14.32l-5.59-2.1.61-1.55zm65.36 29.37c0 9.66-6.62 16-15.19 16-7.49 0-15.26-5.33-15.26-15.26s8.44-16.14 15.4-16.14c8.3 0 15.06 6.35 15.06 15.39zm-23.83.14c0 6.35 3.11 13.5 9.18 13.5s8.04-7.22 8.04-12.96c0-6.35-2.84-13.71-8.64-13.71s-8.58 6.62-8.58 13.17zm27.14-13.24c1.01-.47 5.74-2.16 7.83-2.3.41 1.55.68 4.52.68 6.62h.14c2.77-4.79 6.68-6.62 9.39-6.62 1.35 0 2.57.41 3.31 1.15-.2 1.89-1.42 5.67-2.23 7.36l-.88.47c-.61-.88-1.42-2.3-2.43-4.52-.2-.07-.54-.2-1.01-.2-2.03 0-4.79 2.57-6.14 5.81v17.08l6.89 1.96-.4 1.49c-2.57 0-5.94-.07-9.52-.07-2.23 0-5.06.07-7.09.07l.34-1.49 3.85-2.03c.27-7.09.27-18.16.27-21.47l-3.51-1.96.54-1.35z" class="cls-4"/><path d="M98.04 39.44c-.07.34-.07.61-.07 1.01-.07 7.56 4.73 12.09 10.74 12.09.95 0 1.69-.14 2.3-.41 2.16-1.49 4.19-2.9 5.67-3.65l.34 1.08c-.41 1.55-2.97 4.25-3.85 4.86-1.35.61-4.73 1.62-7.09 1.62-8.31 0-14.31-5.81-14.31-15.12s7.02-16.27 14.65-16.27c6.14 0 11.41 4.12 11.41 11.68 0 .81-.2 1.89-.68 2.16-.68.34-3.17.94-6.35.94H98.04zm13.44-2.57c.2-.47.34-1.22.34-2.03 0-4.05-2.03-7.83-5.94-7.83-5.6 0-7.76 6.95-7.83 9.86h13.44z" class="cls-1"/><path d="M123.69 29.98l-3.58-1.42.47-1.35c1.42-.74 6.68-2.5 8.85-2.57l-.41 5.47.14.07c4.25-3.51 7.49-5.54 10.53-5.54 3.65 0 6.75 2.16 8.03 5.6 4.73-3.98 7.9-5.6 11.14-5.6 5.6 0 9.12 4.32 9.12 10.2v16c0 .61.54.95 1.28 1.35l3.65 1.55-.41 1.49c-2.3 0-4.79-.07-7.29-.07-2.09 0-4.25.07-6.55.07l.4-1.55 2.97-2.03c.13-2.43.34-7.02.27-14.58 0-3.85-.95-8.31-6.28-8.31-2.43 0-5 1.22-7.7 3.78.13 1.22.4 3.24.4 5.54l-.07 13.64 3.98 1.96-.47 1.55c-1.82 0-4.12-.07-6.28-.07s-4.46.07-6.62.07l.41-1.62 3.17-1.89c.07-4.05.13-9.32.13-15.26 0-3.44-.94-7.7-6.41-7.7-2.23 0-5 1.76-7.16 3.71 0 7.9-.07 17.15.07 19.24l4.05 1.89-.41 1.62c-1.69 0-4.19-.07-6.82-.07-2.23 0-4.73.07-6.89.07l.41-1.62 3.71-1.89c.07-1.35.14-7.22.14-13.64v-8.1zm63.81-3.37c1.08-.34 5.13-1.55 8.98-1.96v13.64c0 7.56.07 11.48.14 13.37l4.79 2.03-.47 1.55c-2.36 0-4.93-.07-7.56-.07-2.16 0-4.39.07-7.02.07l.47-1.55 3.85-2.03c.07-2.3.14-8.1.14-13.5v-8.51l-3.65-1.76.34-1.28zm6.35-15.93c.95.34 2.77 2.36 3.38 3.78l-.13.54c-.54 1.28-2.63 3.31-3.58 3.85l-.47.13c-1.22-.68-2.77-2.57-3.38-3.85l.14-.47c.94-1.62 2.57-3.24 3.65-3.92l.4-.07zM211.2 28.9l.13.07c4.25-2.9 7.16-4.32 9.18-4.32 5.6 0 13.03 4.73 13.03 14.38 0 12.02-10.06 17.02-16.41 17.02-1.22 0-3.98-1.08-5.54-2.09l-.13.14c0 4.86.13 9.45.27 12.76l6.28 2.03-.61 1.55c-3.04 0-5.81-.07-8.84-.07-2.3 0-4.73.07-7.09.07l.54-1.69 3.44-1.69c.07-2.3.34-8.71.34-18.57V29.72l-3.78-2.03.61-1.35c1.01-.47 6.41-1.69 8.85-1.76l-.27 4.32zm.27 22.48c1.22.74 3.11 1.42 5.06 1.42 5.67 0 10.87-4.86 10.87-12.63 0-6.14-3.71-11.55-9.66-11.55-1.69 0-3.85.74-6.28 2.5v20.26zm40.84-25.11c1.08-.68 2.36-1.35 3.51-1.76l.54.54c-.07 1.15-.95 6.55-1.69 8.1l-.88.47c-.81-1.42-1.69-3.58-2.36-5.27-.41-.27-1.62-1.08-3.98-1.08-3.38 0-5.13 2.23-5.13 4.66 0 1.55.61 2.63 2.43 3.65 2.09 1.15 5.81 2.7 8.1 3.85 3.71 1.82 5.06 4.32 5.06 7.16 0 7.36-7.63 9.45-11.88 9.45-3.51 0-7.36-1.28-9.79-2.9.07-1.28 1.22-6.41 1.62-7.36l.95-.54c.95 1.76 2.43 5.87 3.17 7.7 1.01.34 2.5.68 4.12.68 3.51 0 6.28-2.16 6.28-4.93 0-1.82-.68-3.04-2.7-4.05-1.82-1.01-4.05-2.03-6.55-3.17-3.71-1.69-5.94-4.25-5.94-8.04 0-4.25 3.31-8.78 9.99-8.78 1.62 0 3.51.54 5.13 1.62zm6.96 1.28l.61-1.42c1.69-.47 6.55-1.08 9.25-1.01-.34 3.04-.54 8.37-.54 19.78 0 2.63.61 4.05 1.28 4.93.95 1.08 2.57 1.96 4.86 1.96 2.77 0 5.94-1.55 7.36-3.92V30.18c-.47-1.15-1.42-1.55-4.59-2.7l.61-1.42c2.36-.61 7.36-1.01 9.86-.95-.2 3.11-.2 7.49-.2 24.92 1.35 2.3 3.51 3.38 5.33 3.85l-.47 1.15c-.67.41-2.16.88-3.85.88-2.36 0-5.67-.88-6.48-5.06h-.13c-2.57 2.77-5.67 5.2-9.79 5.2-2.36 0-5.06-.74-6.82-2.5-1.82-1.76-2.63-4.46-2.63-8.37 0-4.52.13-11.21.13-15.93l-3.78-1.69zm38.55 2.43l-3.58-1.42.47-1.35c1.42-.74 6.68-2.5 8.84-2.57l-.4 5.47.13.07c4.25-3.51 7.5-5.54 10.53-5.54 3.65 0 6.75 2.16 8.04 5.6 4.73-3.98 7.9-5.6 11.14-5.6 5.6 0 9.12 4.32 9.12 10.2v16c0 .61.54.95 1.28 1.35l3.65 1.55-.41 1.49c-2.3 0-4.79-.07-7.29-.07-2.09 0-4.25.07-6.55.07l.41-1.55 2.97-2.03c.14-2.43.34-7.02.27-14.58 0-3.85-.95-8.31-6.28-8.31-2.43 0-5 1.22-7.7 3.78.13 1.22.41 3.24.41 5.54l-.07 13.64 3.98 1.96-.47 1.55c-1.82 0-4.12-.07-6.28-.07s-4.46.07-6.62.07l.41-1.62 3.17-1.89c.07-4.05.14-9.32.14-15.26 0-3.44-.95-7.7-6.42-7.7-2.23 0-5 1.76-7.16 3.71 0 7.9-.07 17.15.07 19.24l4.05 1.89-.41 1.62c-1.69 0-4.19-.07-6.82-.07-2.23 0-4.73.07-6.89.07l.4-1.62 3.71-1.89c.07-1.35.13-7.22.13-13.64v-8.1zM126.85 98.85c1.18 0 2.21.06 3.3.06h6.34c.22-.06 1.41-.29 2.37-.38l.19.13c-.06.48-.42 2.72-.74 3.97l-.51.29c-.42-.8-.99-2.21-1.28-2.88l-4.93.19v5.38c2.08-.03 4.83-.16 6.5-.38l.19.32c-.1.29-1.25 1.6-1.47 1.66-.35 0-4.26-.29-5.22-.29 0 1.38 0 4.06.1 5.79l5.06.22c.48-.64 2.08-2.59 2.62-3.2h.58c-.13.8-.67 3.52-.99 4.42-1.63-.06-3.1-.06-4.54-.06h-4.22c-1.22 0-2.5.03-3.87.03l.29-.74 2.08-.8c.06-.26.16-2.53.16-6.4v-5.76l-2.3-.86.32-.7zm40.63 5.83c0 .19-.03.32-.03.51 1.22 0 2.72-.1 3.74-.22.86-.74 1.92-1.73 2.53-2.24l.51.54c-.22.74-1.44 2.88-1.95 3.55-1.31-.1-5.09-.19-8.86-.19-2.08 0-4.16.1-4.9.29 0 3.55 2.14 5.92 5.15 5.92.54 0 .9-.06 1.22-.22.99-.7 1.86-1.34 2.56-1.7l.19.54c-.22.67-1.41 2.02-1.82 2.3-.61.26-2.3.74-3.39.74-3.97 0-6.75-2.75-6.75-7.17 0-4.86 3.46-7.71 6.78-7.71 2.88 0 4.99 1.92 5.02 5.06zm-8.9 1.02c1.47-.29 4.16-.48 6.14-.48.06-.29.13-.58.13-1.15 0-1.5-.64-3.33-2.66-3.33-2.59 0-3.58 2.94-3.62 4.96zm27.23 6.75c-1.22-1.12-1.09-2.98-.83-3.71.1-.06.26-.16.74-.38 1.06-.51 2.21-1.15 3.23-2.37-.51-.58-1.09-1.89-1.15-2.85l.42-.7c.48.67 1.02 1.22 1.7 1.73.1-.32.19-.64.19-1.02 0-1.12-.77-2.75-1.66-3.74.22-.9 1.41-1.86 2.21-1.89l.32.03c.7 1.18.83 2.66.8 3.74 0 1.22-.29 2.62-.64 3.49.29.32 1.38.8 2.46 1.06-.13-.93-.13-1.06-.06-1.76.16-1.44 1.92-4.19 5.41-4.13 2.5.03 4.26 2.05 5.86 3.81 2.14 2.37 2.82 2.56 3.23 2.59.32 0 .9-.29 1.09-.38l.1.48c-.86 2.34-4.22 7.17-10.43 7.04-3.39-.06-6.14-1.44-6.53-4.99.22-.48.48-.74 1.09-1.22-.61-.06-2.05-.32-2.91-.58-1.06 1.6-2.46 2.85-3.1 3.49-.93.99-.86 1.7-.86 2.43l-.64-.16zm9.18-6.85c.42 1.02.64 1.41.86 1.82 1.22.48 2.53.64 4.06.8 2.14.26 4.64-.06 5.54-.32l.64-.74c-1.09.13-6.43.32-10.81-1.66l-.29.1z" class="cls-4"/></svg>