<svg xmlns="http://www.w3.org/2000/svg" id="Layer_1" viewBox="0 0 323.24 205.98" width="323.24" height="205.98"><defs><style>.cls-1{fill:#b3b4b4}.cls-2{fill:#505150}</style></defs><path d="M2.86 61.39H.22V59.7H7.4v1.69H4.73V72.3H2.86V61.39zm5.01-1.69h1.82v5.42c.47-1.33 1.49-2.25 3.12-2.25 1.8 0 2.81 1.19 2.81 3.08v6.36H13.8v-5.69c0-1.35-.58-2.12-1.75-2.12-1.4 0-2.36 1.1-2.36 2.61v5.2H7.87v-12.6zm8.6 8.01c0-2.86 1.64-4.83 4.7-4.83 2.54 0 4.21 1.35 4.27 3.96h-1.67c-.11-1.51-1.08-2.32-2.63-2.32-2.11 0-2.99 1.49-2.86 3.53.49-1.17 1.48-1.58 2.48-1.58.47 0 .99.09 1.46.29v1.55c-.54-.25-1.13-.4-1.69-.4-1.08 0-1.95.5-1.95 1.28 0 .85 1.04 1.69 2.81 1.69 1.31 0 2.36-.45 3.51-1.28v1.71c-.79.59-2.02 1.19-3.71 1.19-3.12 0-4.72-1.98-4.72-4.79zm17.23 4.81c-2.38 0-4.01-1.89-4.01-4.81s1.67-4.83 4-4.83c1.67 0 2.88.94 3.42 2.41v-2.21h1.82V75.9h-1.82v-5.78c-.54 1.48-1.75 2.39-3.4 2.39zm.61-1.62c1.73 0 2.79-1.37 2.79-2.81v-.76c0-1.46-1.1-2.83-2.79-2.83-1.58 0-2.74 1.15-2.74 3.17s1.13 3.22 2.74 3.22zm13.64 1.4h-1.82v-2.09c-.45 1.37-1.46 2.3-3.06 2.3-1.8 0-2.81-1.21-2.81-3.1v-6.34h1.82v5.67c0 1.39.59 2.14 1.73 2.14 1.4 0 2.32-1.12 2.32-2.61v-5.2h1.82v9.22zm2.45-12.8c.65 0 1.12.47 1.12 1.12s-.47 1.12-1.12 1.12-1.12-.47-1.12-1.12.47-1.12 1.12-1.12zm-.92 3.58h1.82v9.22h-1.82v-9.22zm2.76 4.68c0-2.95 1.82-4.88 4.61-4.88 2.34 0 4.07 1.39 4.09 3.83h-1.8c-.13-1.6-1.24-2.21-2.38-2.21-1.55 0-2.65 1.15-2.65 3.11s1.06 3.24 3.04 3.24c1.17 0 2.2-.43 3.26-1.04v1.71c-.95.58-2.18.95-3.53.95-2.95 0-4.65-1.87-4.65-4.72zm9.3-8.06h1.82v7.18c2.32-.09 3.37-1.28 3.31-3.8h1.82c.04 2.11-.74 3.75-2.49 4.56l2.67 4.66h-1.96l-2.34-4.18c-.31.04-.65.07-1.01.09v4.09h-1.82V59.7zm11.83 0h1.82v5.56c.52-1.48 1.75-2.39 3.4-2.39 2.36 0 4 1.89 4 4.81s-1.66 4.81-4 4.81c-1.66 0-2.88-.94-3.4-2.39v2.21h-1.82v-12.6zm4.61 11.18c1.57 0 2.72-1.17 2.72-3.19s-1.12-3.21-2.74-3.21c-1.71 0-2.77 1.35-2.77 2.79v.77c0 1.46 1.1 2.83 2.79 2.83zm5.56-7.8h1.82v2.56c.43-1.73 1.42-2.7 2.9-2.68v1.96c-1.46-.16-2.9.86-2.9 3.2v4.18h-1.82v-9.22zm4.5 4.63c0-2.77 2.02-4.81 4.77-4.81s4.77 2.03 4.77 4.81-2.03 4.79-4.77 4.79-4.77-2.04-4.77-4.79zm4.77 3.17c1.73 0 2.9-1.31 2.9-3.17s-1.17-3.19-2.9-3.19-2.9 1.31-2.9 3.19 1.15 3.17 2.9 3.17zm4.71-7.8h1.94l1.89 7.38 2.02-7.38h1.89l2 7.35 1.84-7.35h1.95l-2.65 9.22h-2.18l-1.91-7-1.98 7h-2.16l-2.65-9.22zm14.13 0h1.82v2.05c.47-1.35 1.49-2.27 3.11-2.27 1.8 0 2.81 1.19 2.81 3.08v6.36h-1.82v-5.69c0-1.35-.58-2.12-1.75-2.12-1.4 0-2.36 1.1-2.36 2.61v5.2h-1.82v-9.22zm13.38 9.94v-8.37h-1.13v-1.57h1.22c-.43-.49-.72-1.13-.72-1.89 0-1.03.59-1.84 2.25-1.84h2.18v1.57h-1.71c-.67 0-.96.27-.96.77 0 .47.18.88.58 1.39h2.47v1.57h-2.23c1.78 2.54 2.72 5.42 2.72 7.98 0 2.21-.79 3.46-2.43 3.46s-2.23-1.13-2.23-3.06zm2.56 1.48c.63 0 .88-.68.88-1.94 0-2-.58-4.2-1.62-6.45v6.91c0 1.03.22 1.48.74 1.48zm2.39-6.79c0-2.77 2.02-4.81 4.77-4.81s4.77 2.03 4.77 4.81-2.03 4.79-4.77 4.79-4.77-2.04-4.77-4.79zm4.77 3.17c1.73 0 2.9-1.31 2.9-3.17s-1.17-3.19-2.9-3.19-2.9 1.31-2.9 3.19 1.15 3.17 2.9 3.17z" class="cls-2"/><path d="M141.89 67.58l-2.61-4.5h2l1.96 3.58 1.94-3.58h1.98l-2.56 4.46 2.75 4.75h-2.05l-2.05-3.83-2.05 3.83h-2.04l2.72-4.72zm7.98 6.95l1.35-.54c.61-.23.86-.54.86-1.37v-9.54h1.82v9.62c0 1.39-.59 2.29-2.03 2.84l-1.39.54-.61-1.55zM153 59.5c.65 0 1.12.47 1.12 1.12s-.47 1.12-1.12 1.12-1.12-.47-1.12-1.12.47-1.12 1.12-1.12zm9.94 12.8h-1.82v-2.09c-.45 1.37-1.46 2.3-3.06 2.3-1.8 0-2.81-1.21-2.81-3.1v-6.34h1.82v5.67c0 1.39.59 2.14 1.73 2.14 1.4 0 2.32-1.12 2.32-2.61v-5.2h1.82v9.22zm1.52-9.22h1.82v2.05c.47-1.35 1.48-2.27 3.11-2.27s2.56.94 2.77 2.43c.43-1.42 1.46-2.43 3.15-2.43 1.82 0 2.83 1.19 2.83 3.08v6.36h-1.82v-5.69c0-1.35-.58-2.12-1.75-2.12-1.42 0-2.38 1.1-2.38 2.61v5.2h-1.82v-5.69c0-1.35-.58-2.12-1.75-2.12-1.4 0-2.36 1.1-2.36 2.61v5.2h-1.82v-9.22zm15.05 0h1.82v2.18c.52-1.48 1.75-2.39 3.4-2.39 2.36 0 4 1.89 4 4.81s-1.66 4.81-4 4.81c-1.66 0-2.88-.94-3.4-2.39v5.82h-1.82V63.1zm4.61 7.8c1.57 0 2.72-1.17 2.72-3.19s-1.12-3.21-2.74-3.21c-1.71 0-2.77 1.35-2.77 2.79v.77c0 1.46 1.1 2.83 2.79 2.83zm4.59-.15h4.57c1.17 0 2.16-.83 1.31-2.56l-1.26-2.63c-1.53 1.08-2.45 2.99-2.72 5.15l-1.39-.77c.4-3.13 2.52-6.9 7.06-6.9v1.62c-.54 0-1.04.07-1.51.22l1.33 2.83c1.35 2.65-.34 4.61-2.38 4.61h-5.02v-1.57zm12.24-3.02c0-2.77 2.02-4.81 4.77-4.81s4.77 2.03 4.77 4.81-2.03 4.79-4.77 4.79-4.77-2.04-4.77-4.79zm4.77 3.17c1.73 0 2.9-1.31 2.9-3.17s-1.17-3.19-2.9-3.19-2.9 1.31-2.9 3.19 1.15 3.17 2.9 3.17zm4.5-7.8h1.96l2.41 7.65 2.41-7.65h1.98l-3.15 9.22h-2.48l-3.13-9.22zm8.57 4.63c0-2.86 1.64-4.83 4.7-4.83 2.54 0 4.21 1.35 4.27 3.96h-1.67c-.11-1.51-1.08-2.32-2.63-2.32-2.11 0-2.99 1.49-2.86 3.53.49-1.17 1.48-1.58 2.49-1.58.47 0 .99.09 1.46.29v1.55c-.54-.25-1.13-.4-1.69-.4-1.08 0-1.94.5-1.94 1.28 0 .85 1.04 1.69 2.81 1.69 1.31 0 2.36-.45 3.51-1.28v1.71c-.79.59-2.02 1.19-3.71 1.19-3.12 0-4.72-1.98-4.72-4.79zm9.59-4.63h1.82v2.56c.43-1.73 1.42-2.7 2.9-2.68v1.96c-1.46-.16-2.9.86-2.9 3.2v4.18h-1.82v-9.22zm9.72 1.57h-1.28v-1.57h1.28v-1.87l1.82-.31v2.18h1.55v1.57h-1.55v6.09h1.58v1.57h-3.4v-7.65zm4.2-4.95h1.82v5.42c.47-1.33 1.49-2.25 3.12-2.25 1.8 0 2.81 1.19 2.81 3.08v6.36h-1.82v-5.69c0-1.35-.58-2.12-1.75-2.12-1.4 0-2.36 1.1-2.36 2.61v5.2h-1.82v-12.6zm8.6 8.01c0-2.86 1.64-4.83 4.7-4.83 2.54 0 4.21 1.35 4.27 3.96h-1.67c-.11-1.51-1.08-2.32-2.63-2.32-2.11 0-2.99 1.49-2.86 3.53.49-1.17 1.48-1.58 2.49-1.58.47 0 .99.09 1.46.29v1.55c-.54-.25-1.13-.4-1.69-.4-1.08 0-1.94.5-1.94 1.28 0 .85 1.04 1.69 2.81 1.69 1.31 0 2.36-.45 3.51-1.28v1.71c-.79.59-2.02 1.19-3.71 1.19-3.12 0-4.72-1.98-4.72-4.79zm13.73-8.01h1.82v12.6h-1.82V59.7zm8.39 11.54c-.54.77-1.49 1.24-2.67 1.24-1.71 0-2.99-.97-2.99-2.77s1.37-2.77 3.11-2.77c1.01 0 1.89.31 2.45.95v-1.75c0-1.12-.59-1.73-1.87-1.73-1.1 0-1.73.43-1.91 1.37h-1.57c.16-1.95 1.49-2.9 3.62-2.9 2.3 0 3.55 1.13 3.55 3.24v6.18h-1.6l-.13-1.06zm-2.07-.2c1.15 0 1.98-.58 1.98-1.48 0-.85-.76-1.41-1.89-1.41s-1.8.45-1.8 1.44.72 1.44 1.71 1.44zm4.59 3.01l2.56-1.13c.95-.45 1.82-1.08 1.82-1.98 0-.77-.54-1.13-1.31-1.13-.63 0-1.24.2-1.76.5l-.92-1.06 3.6-4.59h-4.29v-1.57h6.3v1.58l-3.31 4.14c.27-.05.54-.09.85-.09 1.55 0 2.56.86 2.56 2.41s-1.3 2.66-2.99 3.38l-3.1 1.33v-1.8z" class="cls-2"/><path d="M285.24 70.97h-.56l-3.15-7.89h2.02l2.32 6.21 2.34-6.21h1.84l-4.88 12.82h-1.78l1.86-4.93zm12.82 1.55c-2.38 0-4.02-1.89-4.02-4.81s1.67-4.83 4-4.83c1.67 0 2.88.94 3.42 2.41v-5.6h1.82v12.6h-1.82v-2.18c-.54 1.48-1.75 2.39-3.4 2.39zm.61-1.62c1.73 0 2.79-1.37 2.79-2.81v-.76c0-1.46-1.1-2.83-2.79-2.83-1.58 0-2.74 1.15-2.74 3.17s1.13 3.22 2.74 3.22zm5.51-3.19c0-2.77 2.02-4.81 4.77-4.81s4.77 2.03 4.77 4.81-2.03 4.79-4.77 4.79-4.77-2.04-4.77-4.79zm4.77 3.17c1.73 0 2.9-1.31 2.9-3.17s-1.17-3.19-2.9-3.19-2.9 1.31-2.9 3.19 1.15 3.17 2.9 3.17zm9.05-.02c-1.26.09-2 .74-2 1.8 0 1.12.86 1.8 2.52 1.8 1.13 0 2.34-.32 3.49-.88v1.78c-1.22.52-2.5.72-3.62.72-2.81 0-4.25-1.28-4.25-3.17 0-1.3.67-2.21 1.67-2.74-1.04-.7-1.67-1.85-1.67-3.26 0-2.3 1.69-4.01 4.18-4.01.92 0 1.73.23 2.38.65v-1.3h1.53v3.19c.16.43.25.92.25 1.44 0 2.29-1.69 3.98-4.2 3.98h-.29zm.32-1.48c1.46 0 2.4-.95 2.4-2.47s-.96-2.45-2.4-2.45-2.39.95-2.39 2.47.95 2.45 2.39 2.45zM2.86 118.39H.22v-1.69H7.4v1.69H4.73v10.91H2.86v-10.91zm5.01-1.69h1.82v5.42c.47-1.33 1.49-2.25 3.12-2.25 1.8 0 2.81 1.19 2.81 3.08v6.36H13.8v-5.69c0-1.35-.58-2.12-1.75-2.12-1.4 0-2.36 1.1-2.36 2.61v5.2H7.87v-12.6zm8.58 8.01c0-2.92 1.87-4.83 4.74-4.83 2.45 0 4.3 1.39 4.27 4.09h-1.82c-.02-1.57-.94-2.45-2.47-2.45s-2.56.86-2.79 2.45h5.26v1.41h-5.28c.22 1.62 1.22 2.48 2.72 2.48 1.24 0 2.27-.56 2.43-1.89h1.78c-.04 2.18-1.96 3.51-4.29 3.51-2.72 0-4.55-1.87-4.55-4.77zm17.37 4.81c-2.38 0-4.01-1.89-4.01-4.81s1.67-4.83 4-4.83c1.67 0 2.88.94 3.42 2.41v-2.21h1.82v12.82h-1.82v-5.78c-.54 1.48-1.75 2.39-3.4 2.39zm.61-1.62c1.73 0 2.79-1.37 2.79-2.81v-.76c0-1.46-1.1-2.83-2.79-2.83-1.58 0-2.74 1.15-2.74 3.17s1.13 3.22 2.74 3.22zm5.91-1.89v-5.92h1.82v5.71c0 1.37.67 2.07 1.93 2.07s1.91-.7 1.91-2.07v-5.71h1.82v5.92c0 2.14-1.35 3.47-3.73 3.47s-3.75-1.33-3.75-3.47zm9.7-9.51c.65 0 1.12.47 1.12 1.12s-.47 1.12-1.12 1.12-1.12-.47-1.12-1.12.47-1.12 1.12-1.12zm-.92 3.58h1.82v9.22h-1.82v-9.22zm2.76 4.59c0-2.88 1.71-4.79 4.54-4.79 2.43 0 4.19 1.3 4.27 3.73h-1.8c-.16-1.5-1.21-2.11-2.47-2.11-1.64 0-2.65 1.17-2.65 3.17s1.01 3.19 2.65 3.19c1.3 0 2.34-.63 2.47-2.12h1.8c-.04 2.41-1.87 3.75-4.32 3.75-2.75 0-4.48-1.93-4.48-4.81zm9.61-7.97h1.82v7.33l3.42-3.94h2.12l-3.33 3.67 3.31 5.55h-2.05l-2.45-4.23-1.03 1.12v3.12h-1.82v-12.6zm11.88 0h1.82v5.56c.52-1.48 1.75-2.39 3.4-2.39 2.36 0 4 1.89 4 4.81s-1.66 4.81-4 4.81c-1.66 0-2.88-.94-3.4-2.39v2.21h-1.82v-12.6zm4.61 11.18c1.57 0 2.72-1.17 2.72-3.19s-1.12-3.21-2.74-3.21c-1.71 0-2.77 1.35-2.77 2.79v.77c0 1.46 1.1 2.83 2.79 2.83zm5.56-7.8h1.82v2.56c.43-1.73 1.42-2.7 2.9-2.68v1.96c-1.46-.16-2.9.86-2.9 3.2v4.18h-1.82v-9.22zm4.5 4.63c0-2.77 2.02-4.81 4.77-4.81s4.77 2.03 4.77 4.81-2.04 4.79-4.77 4.79-4.77-2.04-4.77-4.79zm4.77 3.17c1.73 0 2.9-1.31 2.9-3.17s-1.17-3.19-2.9-3.19-2.9 1.31-2.9 3.19 1.15 3.17 2.9 3.17zm5.52-1.87v-5.92h1.82v5.71c0 1.39.67 2.11 1.93 2.11s1.91-.72 1.91-2.11v-5.71h1.82v5.71c0 1.39.65 2.11 1.91 2.11s1.91-.72 1.91-2.11v-5.71h1.82v5.92c0 2.16-1.42 3.51-3.6 3.51-1.39 0-2.38-.56-2.95-1.64-.59 1.08-1.6 1.64-2.95 1.64-2.18 0-3.6-1.35-3.6-3.51zm14.42-5.93h1.82v2.05c.47-1.35 1.49-2.27 3.12-2.27 1.8 0 2.81 1.19 2.81 3.08v6.36h-1.82v-5.69c0-1.35-.58-2.12-1.75-2.12-1.4 0-2.36 1.1-2.36 2.61v5.2h-1.82v-9.22zm13.34 1.57h-.92v-1.57h1.03c-.47-.45-.72-1.03-.72-1.66 0-1.13.72-2.07 2.2-2.07h1.31v1.57h-.88c-.63 0-.9.47-.9 1.01 0 .45.27.94.7 1.15h1.46v1.57h-1.46v7.65h-1.82v-7.65zm3.24 3.06c0-2.77 2.02-4.81 4.77-4.81s4.77 2.03 4.77 4.81-2.04 4.79-4.77 4.79-4.77-2.04-4.77-4.79zm4.77 3.17c1.73 0 2.9-1.31 2.9-3.17s-1.17-3.19-2.9-3.19-2.9 1.31-2.9 3.19 1.15 3.17 2.9 3.17z" class="cls-2"/><path d="M141.25 124.58l-2.61-4.5h2l1.96 3.58 1.95-3.58h1.98l-2.56 4.46 2.75 4.75h-2.05l-2.05-3.83-2.05 3.83h-2.03l2.72-4.72zm7.97 6.95l1.35-.54c.61-.23.86-.54.86-1.37v-9.54h1.82v9.62c0 1.39-.59 2.29-2.04 2.84l-1.39.54-.61-1.55zm3.13-15.03c.65 0 1.12.47 1.12 1.12s-.47 1.12-1.12 1.12-1.12-.47-1.12-1.12.47-1.12 1.12-1.12zm2.2 9.51v-5.92h1.82v5.71c0 1.37.67 2.07 1.93 2.07s1.91-.7 1.91-2.07v-5.71h1.82v5.92c0 2.14-1.35 3.47-3.73 3.47s-3.75-1.33-3.75-3.47zm8.78-5.93h1.82v2.05c.47-1.35 1.48-2.27 3.11-2.27s2.56.94 2.77 2.43c.43-1.42 1.46-2.43 3.15-2.43 1.82 0 2.83 1.19 2.83 3.08v6.36h-1.82v-5.69c0-1.35-.58-2.12-1.75-2.12-1.42 0-2.38 1.1-2.38 2.61v5.2h-1.82v-5.69c0-1.35-.58-2.12-1.75-2.12-1.4 0-2.36 1.1-2.36 2.61v5.2h-1.82v-9.22zm15.05 0h1.82v2.18c.52-1.48 1.75-2.39 3.4-2.39 2.36 0 4 1.89 4 4.81s-1.66 4.81-4 4.81c-1.66 0-2.88-.94-3.4-2.39v5.82h-1.82V120.1zm4.61 7.8c1.57 0 2.72-1.17 2.72-3.19s-1.12-3.21-2.74-3.21c-1.71 0-2.77 1.35-2.77 2.79v.77c0 1.46 1.1 2.83 2.79 2.83zm4.86-.18h2.5c.85 0 1.19-.22 1.19-.7 0-.43-.34-.74-.7-1.03l-1.71-1.4c-.81-.67-1.15-1.31-1.15-2.18 0-1.57 1.15-2.3 2.65-2.3h2.54v1.58h-2.05c-.67 0-1.12.22-1.12.76 0 .41.25.67.58.94l1.82 1.48c.81.67 1.17 1.26 1.17 2.07 0 1.58-1.24 2.39-2.83 2.39h-2.88v-1.6zm9.93-2.99c0-2.77 2.02-4.81 4.77-4.81s4.77 2.03 4.77 4.81-2.03 4.79-4.77 4.79-4.77-2.04-4.77-4.79zm4.77 3.17c1.73 0 2.9-1.31 2.9-3.17s-1.17-3.19-2.9-3.19-2.9 1.31-2.9 3.19 1.15 3.17 2.9 3.17zm4.5-7.8h1.96l2.41 7.65 2.41-7.65h1.98l-3.15 9.22h-2.48l-3.13-9.22zm8.55 4.63c0-2.92 1.87-4.83 4.74-4.83 2.45 0 4.3 1.39 4.27 4.09h-1.82c-.02-1.57-.94-2.45-2.47-2.45s-2.56.86-2.79 2.45h5.26v1.41h-5.28c.22 1.62 1.22 2.48 2.72 2.48 1.24 0 2.27-.56 2.43-1.89h1.78c-.04 2.18-1.96 3.51-4.29 3.51-2.72 0-4.56-1.87-4.56-4.77zm9.92-4.63h1.82v2.56c.43-1.73 1.42-2.7 2.9-2.68v1.96c-1.46-.16-2.9.86-2.9 3.2v4.18h-1.82v-9.22zm9.72 1.57h-1.28v-1.57h1.28v-1.87l1.82-.31v2.18h1.55v1.57h-1.55v7.65h-1.82v-7.65zm3.94-4.95H241v5.42c.47-1.33 1.49-2.25 3.12-2.25 1.8 0 2.81 1.19 2.81 3.08v6.36h-1.82v-5.69c0-1.35-.58-2.12-1.75-2.12-1.4 0-2.36 1.1-2.36 2.61v5.2h-1.82v-12.6zm8.59 8.01c0-2.92 1.87-4.83 4.74-4.83 2.45 0 4.3 1.39 4.27 4.09h-1.82c-.02-1.57-.94-2.45-2.47-2.45s-2.56.86-2.79 2.45h5.26v1.41h-5.28c.22 1.62 1.22 2.48 2.72 2.48 1.24 0 2.27-.56 2.43-1.89h1.78c-.04 2.18-1.96 3.51-4.29 3.51-2.72 0-4.56-1.87-4.56-4.77zm13.88-8.01h1.82v12.6h-1.82v-12.6zm6.76 12.82c-2.38 0-4.02-1.89-4.02-4.81s1.67-4.83 4-4.83c1.67 0 2.88.94 3.42 2.41v-2.21h1.82v9.22h-1.82v-2.18c-.54 1.48-1.75 2.39-3.4 2.39zm.61-1.62c1.73 0 2.79-1.37 2.79-2.81v-.76c0-1.46-1.1-2.83-2.79-2.83-1.58 0-2.74 1.15-2.74 3.17s1.13 3.22 2.74 3.22zm5.3-.11l4.61-6.14h-4.41v-1.57H281v1.55l-4.63 6.1h4.7v1.57h-6.75v-1.51z" class="cls-2"/><path d="M284.67 127.97h-.56l-3.15-7.89h2.02l2.32 6.21 2.34-6.21h1.84l-4.88 12.82h-1.78l1.86-4.93zm12.81 1.55c-2.38 0-4.02-1.89-4.02-4.81s1.67-4.83 4-4.83c1.67 0 2.88.94 3.42 2.41v-5.6h1.82v12.6h-1.82v-2.18c-.54 1.48-1.75 2.39-3.4 2.39zm.61-1.62c1.73 0 2.79-1.37 2.79-2.81v-.76c0-1.46-1.1-2.83-2.79-2.83-1.58 0-2.74 1.15-2.74 3.17s1.13 3.22 2.74 3.22zm5.51-3.19c0-2.77 2.02-4.81 4.77-4.81s4.77 2.03 4.77 4.81-2.03 4.79-4.77 4.79-4.77-2.04-4.77-4.79zm4.77 3.17c1.73 0 2.9-1.31 2.9-3.17s-1.17-3.19-2.9-3.19-2.9 1.31-2.9 3.19 1.15 3.17 2.9 3.17zm5.58 1.91h1.69c.09 1.17 1.06 1.85 2.58 1.85 1.82 0 2.67-.9 2.67-2.9v-1.89c-.52 1.42-1.73 2.3-3.37 2.3-2.39 0-3.96-1.84-3.96-4.55s1.6-4.7 4.05-4.7c1.58 0 2.75.83 3.28 2.18v-2h1.82v8.52c0 2.99-1.51 4.5-4.45 4.5-2.59 0-4.18-1.24-4.3-3.31zm4.18-2.25c1.62 0 2.75-1.17 2.75-2.67v-.72c0-1.58-1.19-2.68-2.72-2.68-1.62 0-2.74 1.17-2.74 3.08s1.1 2.99 2.7 2.99zM2.86 175.39H.22v-1.69H7.4v1.69H4.73v10.91H2.86v-10.91zm5.01-1.69h1.82v5.42c.47-1.33 1.49-2.25 3.12-2.25 1.8 0 2.81 1.19 2.81 3.08v6.36H13.8v-5.69c0-1.35-.58-2.12-1.75-2.12-1.4 0-2.36 1.1-2.36 2.61v5.2H7.87v-12.6zm8.6 8.01c0-2.86 1.64-4.83 4.7-4.83 2.54 0 4.21 1.35 4.27 3.96h-1.67c-.11-1.51-1.08-2.32-2.63-2.32-2.11 0-2.99 1.49-2.86 3.53.49-1.17 1.48-1.58 2.48-1.58.47 0 .99.09 1.46.29v1.55c-.54-.25-1.13-.4-1.69-.4-1.08 0-1.95.5-1.95 1.28 0 .85 1.04 1.69 2.81 1.69 1.31 0 2.36-.45 3.51-1.28v1.71c-.79.59-2.02 1.19-3.71 1.19-3.12 0-4.72-1.98-4.72-4.79zm17.23 4.81c-2.38 0-4.01-1.89-4.01-4.81s1.67-4.83 4-4.83c1.67 0 2.88.94 3.42 2.41v-2.21h1.82v12.82h-1.82v-5.78c-.54 1.48-1.75 2.39-3.4 2.39zm.61-1.62c1.73 0 2.79-1.37 2.79-2.81v-.76c0-1.46-1.1-2.83-2.79-2.83-1.58 0-2.74 1.15-2.74 3.17s1.13 3.22 2.74 3.22zm13.64 1.4h-1.82v-2.09c-.45 1.37-1.46 2.3-3.06 2.3-1.8 0-2.81-1.21-2.81-3.1v-6.34h1.82v5.67c0 1.39.59 2.14 1.73 2.14 1.4 0 2.32-1.12 2.32-2.61v-5.2h1.82v9.22zm2.45-12.8c.65 0 1.12.47 1.12 1.12s-.47 1.12-1.12 1.12-1.12-.47-1.12-1.12.47-1.12 1.12-1.12zm-.92 3.58h1.82v9.22h-1.82v-9.22zm2.77 4.63c0-3.01 1.76-4.81 4.47-4.81.54 0 1.13.05 1.76.23v1.69c-.58-.16-1.1-.23-1.55-.23-1.76 0-2.83 1.12-2.83 3.08s1.06 3.06 2.88 3.06c.43 0 .94-.05 1.5-.18v1.73c-.65.14-1.22.2-1.73.2-2.74 0-4.5-1.78-4.5-4.77zm7.06-8.01h1.82v7.38l3.13-4h2.02l-2.99 3.64h.45c1.96 0 2.38 1.06 2.38 2.4v3.19H64.3v-3.15c0-1.06-.31-1.33-1.17-1.33h-2v4.48h-1.82v-12.6zm11.9 0h1.82v5.56c.52-1.48 1.75-2.39 3.4-2.39 2.36 0 4 1.89 4 4.81s-1.66 4.81-4 4.81c-1.66 0-2.88-.94-3.4-2.39v2.21h-1.82v-12.6zm4.61 11.18c1.57 0 2.72-1.17 2.72-3.19s-1.12-3.21-2.74-3.21c-1.71 0-2.77 1.35-2.77 2.79v.77c0 1.46 1.1 2.83 2.79 2.83zm5.56-7.8h1.82v9.22h-1.82v-9.22zm4.32 0h1.98l-2.7 3.98h-1.57l2.29-3.98zm1.18 4.63c0-2.77 2.02-4.81 4.77-4.81s4.77 2.03 4.77 4.81-2.04 4.79-4.77 4.79-4.77-2.04-4.77-4.79zm4.77 3.17c1.73 0 2.9-1.31 2.9-3.17s-1.17-3.19-2.9-3.19-2.9 1.31-2.9 3.19 1.15 3.17 2.9 3.17zm4.72-7.8h1.95l1.89 7.38 2.02-7.38h1.89l2 7.35 1.84-7.35h1.94l-2.65 9.22h-2.18l-1.91-7-1.98 7h-2.16l-2.65-9.22zm14.13 0h1.82v2.05c.47-1.35 1.49-2.27 3.11-2.27 1.8 0 2.81 1.19 2.81 3.08v6.36h-1.82v-5.69c0-1.35-.58-2.12-1.75-2.12-1.4 0-2.36 1.1-2.36 2.61v5.2h-1.82v-9.22zm15.41-3.54l1.39-.54.63 1.62-1.3.52c-.67.27-.92.59-.92 1.44v.5h2.12v1.57h-2.12v7.65h-1.82v-7.65h-1.21v-1.57h1.21v-.7c0-1.39.58-2.29 2.02-2.84zm1.65 8.17c0-2.77 2.02-4.81 4.77-4.81s4.77 2.03 4.77 4.81-2.03 4.79-4.77 4.79-4.77-2.04-4.77-4.79zm4.77 3.17c1.73 0 2.9-1.31 2.9-3.17s-1.17-3.19-2.9-3.19-2.9 1.31-2.9 3.19 1.15 3.17 2.9 3.17z" class="cls-2"/><path d="M139.48 181.58l-2.61-4.5h2l1.96 3.58 1.94-3.58h1.98l-2.56 4.46 2.75 4.75h-2.05l-2.05-3.83-2.05 3.83h-2.04l2.72-4.72zm7.97 6.95l1.35-.54c.61-.23.86-.54.86-1.37v-9.54h1.82v9.62c0 1.39-.59 2.29-2.03 2.84l-1.39.54-.61-1.55zm3.13-15.03c.65 0 1.12.47 1.12 1.12s-.47 1.12-1.12 1.12-1.12-.47-1.12-1.12.47-1.12 1.12-1.12zm9.94 12.8h-1.82v-2.09c-.45 1.37-1.46 2.3-3.06 2.3-1.8 0-2.81-1.21-2.81-3.1v-6.34h1.82v5.67c0 1.39.59 2.14 1.73 2.14 1.4 0 2.32-1.12 2.32-2.61v-5.2h1.82v9.22zm1.53-9.22h1.82v2.05c.47-1.35 1.48-2.27 3.11-2.27s2.56.94 2.77 2.43c.43-1.42 1.46-2.43 3.15-2.43 1.82 0 2.83 1.19 2.83 3.08v6.36h-1.82v-5.69c0-1.35-.58-2.12-1.75-2.12-1.42 0-2.38 1.1-2.38 2.61v5.2h-1.82v-5.69c0-1.35-.58-2.12-1.75-2.12-1.4 0-2.36 1.1-2.36 2.61v5.2h-1.82v-9.22zm15.05 0h1.82v2.18c.52-1.48 1.75-2.39 3.4-2.39 2.36 0 4 1.89 4 4.81s-1.66 4.81-4 4.81c-1.66 0-2.88-.94-3.4-2.39v5.82h-1.82V177.1zm4.61 7.8c1.57 0 2.72-1.17 2.72-3.19s-1.12-3.21-2.74-3.21c-1.71 0-2.77 1.35-2.77 2.79v.77c0 1.46 1.1 2.83 2.79 2.83zm9.56-7.8h1.96l-1.1 1.76 1.64 1.26c1.3.97 1.82 1.85 1.82 3.04 0 1.93-1.35 3.33-3.35 3.33-.85 0-1.58-.23-2.45-.88l-1.26-.97-1.04 1.67h-1.91l5.69-9.22zm-.58 7.2c.47.36.88.58 1.39.58.92 0 1.64-.61 1.64-1.66 0-.77-.38-1.33-1.22-1.96l-1.26-.95-1.85 2.97 1.31 1.03zm9.23-2.57c0-2.77 2.02-4.81 4.77-4.81s4.77 2.03 4.77 4.81-2.03 4.79-4.77 4.79-4.77-2.04-4.77-4.79zm4.77 3.17c1.73 0 2.9-1.31 2.9-3.17s-1.17-3.19-2.9-3.19-2.9 1.31-2.9 3.19 1.15 3.17 2.9 3.17zm4.5-7.8h1.96l2.41 7.65 2.41-7.65h1.98l-3.15 9.22h-2.48l-3.13-9.22zm8.57 4.63c0-2.86 1.64-4.83 4.7-4.83 2.54 0 4.21 1.35 4.27 3.96h-1.67c-.11-1.51-1.08-2.32-2.63-2.32-2.11 0-2.99 1.49-2.86 3.53.49-1.17 1.48-1.58 2.49-1.58.47 0 .99.09 1.46.29v1.55c-.54-.25-1.13-.4-1.69-.4-1.08 0-1.94.5-1.94 1.28 0 .85 1.04 1.69 2.81 1.69 1.31 0 2.36-.45 3.51-1.28v1.71c-.79.59-2.02 1.19-3.71 1.19-3.12 0-4.72-1.98-4.72-4.79zm9.6-4.63h1.82v9.22h-1.82v-9.22zm4.32 0h1.98l-2.7 3.98h-1.57l2.29-3.98zm6.62 1.57h-1.28v-1.57h1.28v-1.87l1.82-.31v2.18h1.55v1.57h-1.55v6.09h1.58v1.57h-3.4v-7.65zm4.19-4.95h1.82v5.42c.47-1.33 1.49-2.25 3.12-2.25 1.8 0 2.81 1.19 2.81 3.08v6.36h-1.82v-5.69c0-1.35-.58-2.12-1.75-2.12-1.4 0-2.36 1.1-2.36 2.61v5.2h-1.82v-12.6zm8.61 8.01c0-2.86 1.64-4.83 4.7-4.83 2.54 0 4.21 1.35 4.27 3.96h-1.67c-.11-1.51-1.08-2.32-2.63-2.32-2.11 0-2.99 1.49-2.86 3.53.49-1.17 1.48-1.58 2.49-1.58.47 0 .99.09 1.46.29v1.55c-.54-.25-1.13-.4-1.69-.4-1.08 0-1.94.5-1.94 1.28 0 .85 1.04 1.69 2.81 1.69 1.31 0 2.36-.45 3.51-1.28v1.71c-.79.59-2.02 1.19-3.71 1.19-3.12 0-4.72-1.98-4.72-4.79zm13.73-8.01h1.82v12.6h-1.82v-12.6zm5.6 4.77c-.76 0-1.49.2-2.39.58v-1.55c.97-.38 1.87-.59 2.81-.59 2.04 0 3.19 1.03 3.55 3.42l.9 5.98h-1.76l-.22-1.37c-.5.97-1.51 1.58-2.83 1.58-1.6 0-2.99-.99-2.99-2.86s1.4-2.79 3.17-2.79c.88 0 1.58.23 2.11.63l-.14-.86c-.22-1.44-.83-2.16-2.2-2.16zm.63 6.66c1.15 0 1.98-.67 1.98-1.66 0-.94-.77-1.49-1.93-1.49-1.04 0-1.78.49-1.78 1.58s.74 1.57 1.73 1.57zm4.43-.34l4.61-6.14h-4.41v-1.57h6.48v1.55l-4.63 6.1h4.7v1.57h-6.75v-1.51z" class="cls-2"/><path d="M285.84 184.97h-.56l-3.15-7.89h2.02l2.32 6.21 2.34-6.21h1.84l-4.88 12.82h-1.78l1.86-4.93zm12.81 1.55c-2.38 0-4.02-1.89-4.02-4.81s1.67-4.83 4-4.83c1.67 0 2.88.94 3.42 2.41v-5.6h1.82v12.6h-1.82v-2.18c-.54 1.48-1.75 2.39-3.4 2.39zm.61-1.62c1.73 0 2.79-1.37 2.79-2.81v-.76c0-1.46-1.1-2.83-2.79-2.83-1.58 0-2.74 1.15-2.74 3.17s1.13 3.22 2.74 3.22zm5.51-3.19c0-2.77 2.02-4.81 4.77-4.81s4.77 2.03 4.77 4.81-2.03 4.79-4.77 4.79-4.77-2.04-4.77-4.79zm4.77 3.17c1.73 0 2.9-1.31 2.9-3.17s-1.17-3.19-2.9-3.19-2.9 1.31-2.9 3.19 1.15 3.17 2.9 3.17zm5.06-4.16c0-2.2 1.62-3.8 4.07-3.8.45 0 .88.05 1.28.16h3.29v1.57h-1.12c.38.58.58 1.3.58 2.07 0 2.2-1.62 3.78-4.03 3.78s-4.07-1.58-4.07-3.78zm.56 7.06l7.4-3.26v1.62l-7.4 3.26v-1.62zm3.51-4.7c1.4 0 2.29-.94 2.29-2.38s-.9-2.34-2.29-2.34-2.3.94-2.3 2.38.9 2.34 2.3 2.34zM2.86 4.39H.22V2.7H7.4v1.69H4.73V15.3H2.86V4.39zM7.87 2.7h1.82v5.42c.47-1.33 1.49-2.25 3.12-2.25 1.8 0 2.81 1.19 2.81 3.08v6.36H13.8V9.62c0-1.35-.58-2.12-1.75-2.12-1.4 0-2.36 1.1-2.36 2.61v5.2H7.87V2.7zm8.58 8.06c0-2.94 1.85-4.86 4.7-4.86 2.56 0 4.29 1.53 4.29 4.52v.86h-7.13c.2 1.71 1.3 2.59 3.15 2.59 1.35 0 2.47-.47 3.44-1.17v1.69c-.76.58-2.09 1.06-3.64 1.06-3.04 0-4.81-1.84-4.81-4.7zm7.18-.92c-.04-1.51-.97-2.32-2.5-2.32s-2.54.79-2.79 2.32h5.29zm10.19 5.68c-2.38 0-4.01-1.89-4.01-4.81s1.67-4.83 4-4.83c1.67 0 2.88.94 3.42 2.41V6.08h1.82V18.9h-1.82v-5.78c-.54 1.48-1.75 2.39-3.4 2.39zm.61-1.62c1.73 0 2.79-1.37 2.79-2.81v-.76c0-1.46-1.1-2.83-2.79-2.83-1.58 0-2.74 1.15-2.74 3.17s1.13 3.22 2.74 3.22zm13.65 1.4h-1.82v-2.09c-.45 1.37-1.46 2.3-3.06 2.3-1.8 0-2.81-1.21-2.81-3.1V6.07h1.82v5.67c0 1.39.59 2.14 1.73 2.14 1.4 0 2.32-1.12 2.32-2.61v-5.2h1.82v9.22zm2.45-12.8c.65 0 1.12.47 1.12 1.12s-.47 1.12-1.12 1.12-1.12-.47-1.12-1.12.47-1.12 1.12-1.12zm-.92 3.58h1.82v9.22h-1.82V6.08zm2.75 4.68c0-2.95 1.82-4.88 4.61-4.88 2.34 0 4.07 1.39 4.09 3.83h-1.8c-.13-1.6-1.24-2.21-2.38-2.21-1.55 0-2.65 1.15-2.65 3.11s1.06 3.24 3.04 3.24c1.17 0 2.2-.43 3.26-1.04v1.71c-.95.58-2.18.95-3.53.95-2.95 0-4.65-1.87-4.65-4.72zm9.31-8.06h1.82v7.38l3.13-4h2.02l-2.99 3.64h.45c1.96 0 2.38 1.06 2.38 2.4v3.19h-1.82v-3.15c0-1.06-.31-1.33-1.17-1.33h-2v4.48h-1.82V2.7zm11.89 0h1.82v5.56c.52-1.48 1.75-2.39 3.4-2.39 2.36 0 4 1.89 4 4.81s-1.66 4.81-4 4.81c-1.66 0-2.88-.94-3.4-2.39v2.21h-1.82V2.7zm4.61 11.18c1.57 0 2.72-1.17 2.72-3.19s-1.12-3.21-2.74-3.21c-1.71 0-2.77 1.35-2.77 2.79v.77c0 1.46 1.1 2.83 2.79 2.83zm5.56-7.8h1.82v2.56c.43-1.73 1.42-2.7 2.9-2.68v1.96c-1.46-.16-2.9.86-2.9 3.2v4.18h-1.82V6.08zm4.5 4.63c0-2.77 2.02-4.81 4.77-4.81s4.77 2.03 4.77 4.81S95.74 15.5 93 15.5s-4.77-2.04-4.77-4.79zM93 13.88c1.73 0 2.9-1.31 2.9-3.17S94.73 7.52 93 7.52s-2.9 1.31-2.9 3.19 1.15 3.17 2.9 3.17zm4.72-7.8h1.94l1.89 7.38 2.02-7.38h1.89l2 7.35 1.84-7.35h1.95l-2.65 9.22h-2.18l-1.91-7-1.98 7h-2.16l-2.65-9.22zm14.13 0h1.82v2.05c.47-1.35 1.49-2.27 3.12-2.27 1.8 0 2.81 1.19 2.81 3.08v6.36h-1.82V9.61c0-1.35-.58-2.12-1.75-2.12-1.4 0-2.36 1.1-2.36 2.61v5.2h-1.82V6.08zm15.41-3.55l1.39-.54.63 1.62-1.3.52c-.67.27-.92.59-.92 1.44v.5h2.12v1.57h-2.12v7.65h-1.82V7.64h-1.21V6.07h1.21v-.7c0-1.39.58-2.29 2.02-2.84zm1.65 8.18c0-2.77 2.02-4.81 4.77-4.81s4.77 2.03 4.77 4.81-2.03 4.79-4.77 4.79-4.77-2.04-4.77-4.79zm4.77 3.17c1.73 0 2.9-1.31 2.9-3.17s-1.17-3.19-2.9-3.19-2.9 1.31-2.9 3.19 1.15 3.17 2.9 3.17z" class="cls-2"/><path d="M140.83 10.58l-2.61-4.5h2l1.96 3.58 1.95-3.58h1.98l-2.56 4.46 2.75 4.75h-2.05l-2.05-3.83-2.05 3.83h-2.03l2.72-4.72zm7.97 6.95l1.35-.54c.61-.23.86-.54.86-1.37V6.08h1.82v9.62c0 1.39-.59 2.29-2.04 2.84l-1.39.54-.61-1.55zm3.13-15.03c.65 0 1.12.47 1.12 1.12s-.47 1.12-1.12 1.12-1.12-.47-1.12-1.12.47-1.12 1.12-1.12zm9.94 12.8h-1.82v-2.09c-.45 1.37-1.46 2.3-3.06 2.3-1.8 0-2.81-1.21-2.81-3.1V6.07H156v5.67c0 1.39.59 2.14 1.73 2.14 1.4 0 2.32-1.12 2.32-2.61v-5.2h1.82v9.22zm1.53-9.22h1.82v2.05c.47-1.35 1.48-2.27 3.11-2.27s2.56.94 2.77 2.43c.43-1.42 1.46-2.43 3.15-2.43 1.82 0 2.83 1.19 2.83 3.08v6.36h-1.82V9.61c0-1.35-.58-2.12-1.75-2.12-1.42 0-2.38 1.1-2.38 2.61v5.2h-1.82V9.61c0-1.35-.58-2.12-1.75-2.12-1.4 0-2.36 1.1-2.36 2.61v5.2h-1.82V6.08zm15.05 0h1.82v2.18c.52-1.48 1.75-2.39 3.4-2.39 2.36 0 4 1.89 4 4.81s-1.66 4.81-4 4.81c-1.66 0-2.88-.94-3.4-2.39v5.82h-1.82V6.08zm4.61 7.8c1.57 0 2.72-1.17 2.72-3.19s-1.12-3.21-2.74-3.21c-1.71 0-2.77 1.35-2.77 2.79v.77c0 1.46 1.1 2.83 2.79 2.83zm4.98-1.61h1.71c0 1.01.52 1.71 1.85 1.71.94 0 1.55-.36 1.55-1.08 0-2-4.88-1.4-4.88-4.45 0-1.48 1.19-2.58 3.22-2.58s3.22 1.04 3.22 2.95h-1.51c0-.88-.54-1.49-1.71-1.49-1.01 0-1.42.45-1.42.97 0 1.84 4.81 1.21 4.81 4.43 0 1.67-1.3 2.75-3.35 2.75-1.95 0-3.49-.97-3.49-3.22zm11.22-1.56c0-2.77 2.02-4.81 4.77-4.81s4.77 2.03 4.77 4.81-2.03 4.79-4.77 4.79-4.77-2.04-4.77-4.79zm4.77 3.17c1.73 0 2.9-1.31 2.9-3.17s-1.17-3.19-2.9-3.19-2.9 1.31-2.9 3.19 1.15 3.17 2.9 3.17zm4.5-7.8h1.96l2.41 7.65 2.41-7.65h1.98l-3.15 9.22h-2.48l-3.13-9.22zm8.55 4.68c0-2.94 1.85-4.86 4.7-4.86 2.56 0 4.29 1.53 4.29 4.52v.86h-7.13c.2 1.71 1.3 2.59 3.15 2.59 1.35 0 2.47-.47 3.44-1.17v1.69c-.76.58-2.09 1.06-3.64 1.06-3.04 0-4.81-1.84-4.81-4.7zm7.18-.92c-.04-1.51-.97-2.32-2.5-2.32s-2.54.79-2.79 2.32h5.29zm2.63-3.76h1.82v2.56c.43-1.73 1.42-2.7 2.9-2.68v1.96c-1.46-.16-2.9.86-2.9 3.2v4.18h-1.82V6.08zm9.72 1.57h-1.28V6.08h1.28V4.21l1.82-.31v2.18h1.55v1.57h-1.55v6.09h1.58v1.57h-3.4V7.66zm4.19-4.95h1.82v5.42c.47-1.33 1.49-2.25 3.12-2.25 1.8 0 2.81 1.19 2.81 3.08v6.36h-1.82V9.62c0-1.35-.58-2.12-1.75-2.12-1.4 0-2.36 1.1-2.36 2.61v5.2h-1.82V2.7zm8.59 8.06c0-2.94 1.85-4.86 4.7-4.86 2.56 0 4.29 1.53 4.29 4.52v.86h-7.13c.2 1.71 1.3 2.59 3.15 2.59 1.35 0 2.47-.47 3.44-1.17v1.69c-.76.58-2.09 1.06-3.64 1.06-3.04 0-4.81-1.84-4.81-4.7zm7.18-.92c-.04-1.51-.97-2.32-2.5-2.32s-2.54.79-2.79 2.32h5.29zm6.7-7.14h1.82v12.6h-1.82V2.7zm8.38 11.54c-.54.77-1.49 1.24-2.67 1.24-1.71 0-2.99-.97-2.99-2.77s1.37-2.77 3.11-2.77c1.01 0 1.89.31 2.45.95V9.14c0-1.12-.59-1.73-1.87-1.73-1.1 0-1.73.43-1.91 1.37h-1.57c.16-1.95 1.49-2.9 3.62-2.9 2.3 0 3.55 1.13 3.55 3.24v6.18h-1.6l-.13-1.06zm-2.07-.2c1.15 0 1.98-.58 1.98-1.48 0-.85-.76-1.41-1.89-1.41s-1.8.45-1.8 1.44.72 1.44 1.71 1.44zm4.48-.25l4.61-6.14h-4.41V6.08h6.48v1.55l-4.63 6.1h4.7v1.57h-6.75v-1.51z" class="cls-2"/><path d="M284.42 13.97h-.56l-3.15-7.89h2.02l2.32 6.21 2.34-6.21h1.84l-4.88 12.82h-1.78l1.86-4.93zm12.81 1.55c-2.38 0-4.02-1.89-4.02-4.81s1.67-4.83 4-4.83c1.67 0 2.88.94 3.42 2.41V2.7h1.82v12.6h-1.82v-2.18c-.54 1.48-1.75 2.39-3.4 2.39zm.61-1.62c1.73 0 2.79-1.37 2.79-2.81v-.76c0-1.46-1.1-2.83-2.79-2.83-1.58 0-2.74 1.15-2.74 3.17s1.13 3.22 2.74 3.22zm5.51-3.19c0-2.77 2.02-4.81 4.77-4.81s4.77 2.03 4.77 4.81-2.03 4.79-4.77 4.79-4.77-2.04-4.77-4.79zm4.77 3.17c1.73 0 2.9-1.31 2.9-3.17s-1.17-3.19-2.9-3.19-2.9 1.31-2.9 3.19 1.15 3.17 2.9 3.17zm5.08-3.96c0-2.3 1.69-4.01 4.18-4.01 1.04 0 1.95.31 2.63.81l.65-1.46h1.75l-1.24 2.83c.25.54.4 1.15.4 1.8 0 1.4-.63 2.58-1.69 3.28.97.5 1.62 1.39 1.62 2.68 0 1.96-1.48 3.24-4.12 3.24-1.26 0-2.63-.27-3.85-.86V16.5c1.15.58 2.39.99 3.73.99 1.69 0 2.39-.72 2.39-1.82 0-1.26-.95-1.8-2.16-1.8h-.11c-2.45 0-4.16-1.64-4.16-3.94zm4.18 2.47c1.44 0 2.38-.95 2.38-2.47s-.94-2.45-2.38-2.45-2.38.95-2.38 2.47.95 2.45 2.38 2.45z" class="cls-2"/><path d="M7.47 26.8c0 3.36-2.05 4.19-4.03 4.19H1.19V22.7h2.04c2.18 0 4.25.67 4.25 4.1zm-4.7-2.91v5.91h.78c1.24 0 2.25-.55 2.25-3s-1.08-2.91-2.3-2.91h-.73zm11.31 4.4H10.1c.12 1.29.72 1.71 1.56 1.71.56 0 1.03-.18 1.58-.56l.64.88c-.62.5-1.39.85-2.35.85-1.97 0-3.02-1.31-3.02-3.31s1.02-3.39 2.82-3.39 2.79 1.2 2.79 3.2c0 .2-.02.46-.04.62zm-1.49-1.07c0-1.04-.37-1.67-1.24-1.67-.72 0-1.18.48-1.26 1.74h2.49v-.07zm4.63-3.25v.67h1.52l-.17 1.1h-1.36v5.24h-1.54v-5.24h-1.03v-1.1h1.03v-.7c0-1.15.77-2.01 2.23-2.01.64 0 1.15.14 1.64.37l-.44 1.03c-.38-.18-.74-.24-1.04-.24-.62 0-.85.28-.85.88zm7.42 6.16l-.32 1.02c-.71-.06-1.16-.3-1.4-.92-.46.67-1.14.95-1.91.95-1.26 0-2.04-.8-2.04-1.96 0-1.38 1.03-2.12 2.88-2.12h.8v-.36c0-.83-.37-1.1-1.19-1.1-.43 0-1.04.12-1.69.34l-.35-1.04c.78-.3 1.58-.46 2.29-.46 1.7 0 2.45.78 2.45 2.18v2.66c0 .52.17.7.48.82zm-1.99-.85V28h-.64c-1 0-1.49.36-1.49 1.1 0 .61.31.96.9.96.53 0 .94-.28 1.22-.78zm8.4 1.71h-1.33l-.08-.89c-.47.72-1.07 1.07-1.94 1.07-1.15 0-1.76-.74-1.76-1.97v-4.56h1.54v4.37c0 .74.24 1 .77 1s.96-.35 1.28-.9v-4.46h1.54v6.34zm1.73-1.45V22.1l1.54-.17v7.56c0 .3.1.44.36.44.13 0 .25-.02.35-.06l.34 1.08c-.26.12-.64.22-1.03.22-.97 0-1.55-.59-1.55-1.63zm7.3 1.15c-.46.32-1.03.48-1.6.48-1.25-.01-1.91-.72-1.91-2.07v-3.35h-1v-1.1h1v-1.4l1.54-.18v1.58h1.47l-.16 1.1H38.1v3.31c0 .62.2.88.67.88.24 0 .48-.07.76-.23l.54.98zm9.03-7.15l-.78.9c-.6-.49-1.18-.71-1.86-.71-.74 0-1.28.34-1.28.98 0 .6.32.86 1.7 1.29 1.45.46 2.46 1.06 2.46 2.62s-1.16 2.54-3.14 2.54c-1.32 0-2.3-.47-2.99-1.14l.82-.91c.61.52 1.27.83 2.13.83s1.52-.43 1.52-1.24c0-.7-.35-1.01-1.64-1.4-1.74-.54-2.49-1.24-2.49-2.5 0-1.38 1.19-2.29 2.82-2.29 1.21 0 2.01.36 2.73 1.02zm6.72 4.75h-3.98c.12 1.29.72 1.71 1.56 1.71.56 0 1.03-.18 1.58-.56l.64.88c-.62.5-1.39.85-2.35.85-1.97 0-3.02-1.31-3.02-3.31s1.02-3.39 2.82-3.39 2.79 1.2 2.79 3.2c0 .2-.02.46-.04.62zm-1.49-1.07c0-1.04-.37-1.67-1.24-1.67-.72 0-1.18.48-1.26 1.74h2.5v-.07zm6.54 3.47c-.46.32-1.03.48-1.6.48-1.25-.01-1.91-.72-1.91-2.07v-3.35h-1v-1.1h1v-1.4l1.54-.18v1.58h1.47l-.16 1.1H58.9v3.31c0 .62.2.88.67.88.24 0 .48-.07.75-.23l.54.98zM6.78 80.31l-.8.94c-.48-.38-.97-.59-1.54-.59-1.15 0-2.04.84-2.04 3.08s.86 3.07 2.04 3.07c.72 0 1.21-.31 1.69-.67l.74.94c-.5.52-1.37 1.01-2.49 1.01-2.15 0-3.65-1.52-3.65-4.34s1.58-4.31 3.62-4.31c1.06 0 1.74.31 2.42.88zm6.01 7.59h-1.33l-.08-.89c-.47.72-1.07 1.07-1.94 1.07-1.15 0-1.76-.74-1.76-1.97v-4.56h1.54v4.37c0 .74.24 1 .77 1s.96-.35 1.28-.9v-4.46h1.54v6.34zm5.57-6.43l-.26 1.49c-.19-.05-.34-.07-.56-.07-.77 0-1.16.56-1.4 1.63v3.38H14.6v-6.34h1.33l.14 1.25c.3-.91.91-1.42 1.65-1.42.23 0 .43.02.64.08zm5.06.66l-.6.9c-.53-.34-1.03-.52-1.59-.52-.61 0-.96.25-.96.64 0 .42.25.61 1.33.91 1.29.35 2.03.88 2.03 2 0 1.32-1.22 2.01-2.67 2.01-1.09 0-1.94-.37-2.53-.9l.77-.86c.49.37 1.08.62 1.73.62.68 0 1.13-.29 1.13-.77 0-.53-.25-.7-1.44-1.03-1.31-.36-1.88-.98-1.88-1.92 0-1.05.97-1.85 2.45-1.85.91 0 1.65.29 2.25.76zm3.13-2.85c0 .52-.4.92-.97.92s-.96-.41-.96-.92.4-.94.96-.94.97.41.97.94zm-.19 8.62h-1.54v-6.34h1.54v6.34zm4.86 0h-1.83l-2.1-6.34h1.67l1.35 5.11 1.39-5.11h1.58l-2.06 6.34zm8.11-2.7h-3.98c.12 1.29.72 1.71 1.56 1.71.56 0 1.03-.18 1.58-.56l.64.88c-.62.5-1.39.85-2.35.85-1.97 0-3.02-1.31-3.02-3.31s1.02-3.39 2.82-3.39 2.79 1.2 2.79 3.2c0 .2-.02.46-.04.62zm-1.49-1.07c0-1.04-.37-1.67-1.24-1.67-.72 0-1.18.48-1.26 1.74h2.49v-.07zm7.54 2.48h3.32l-.18 1.29h-4.73v-8.29h1.58v6.99zm9.71-1.89c0 2-1.12 3.36-2.99 3.36s-2.99-1.27-2.99-3.36 1.12-3.35 3-3.35 2.97 1.27 2.97 3.35zm-4.35 0c0 1.52.47 2.2 1.37 2.2s1.37-.68 1.37-2.2-.47-2.18-1.36-2.18-1.38.68-1.38 2.18zM62.9 87.9h-1.92l-.96-4.98-.98 4.98h-1.88l-1.4-6.34h1.54l.89 5.22 1.1-5.22h1.57l1.01 5.22.95-5.22h1.47l-1.38 6.34zm7.61-2.7h-3.98c.12 1.29.72 1.71 1.56 1.71.56 0 1.03-.18 1.58-.56l.64.88c-.62.5-1.39.85-2.35.85-1.97 0-3.02-1.31-3.02-3.31s1.02-3.39 2.82-3.39 2.79 1.2 2.79 3.2c0 .2-.02.46-.04.62zm-1.49-1.07c0-1.04-.37-1.67-1.24-1.67-.72 0-1.18.48-1.26 1.74h2.49v-.07zm6.65-2.66l-.26 1.49c-.19-.05-.34-.07-.56-.07-.77 0-1.16.56-1.4 1.63v3.38h-1.54v-6.34h1.33l.14 1.25c.3-.91.91-1.42 1.65-1.42.23 0 .43.02.64.08zm9.6-1.16l-.8.94c-.48-.38-.97-.59-1.54-.59-1.15 0-2.04.84-2.04 3.08s.86 3.07 2.04 3.07c.72 0 1.21-.31 1.69-.67l.74.94c-.5.52-1.37 1.01-2.49 1.01-2.15 0-3.65-1.52-3.65-4.34s1.58-4.31 3.62-4.31c1.06 0 1.74.31 2.42.88zm6.19 6.73l-.32 1.02c-.71-.06-1.16-.3-1.4-.92-.46.67-1.14.95-1.91.95-1.26 0-2.04-.8-2.04-1.96 0-1.38 1.03-2.12 2.88-2.12h.8v-.36c0-.83-.37-1.1-1.19-1.1-.43 0-1.04.12-1.69.34l-.35-1.04c.78-.3 1.58-.46 2.29-.46 1.7 0 2.45.78 2.45 2.18v2.66c0 .52.17.7.48.82zm-1.99-.85v-1.28h-.64c-1 0-1.49.36-1.49 1.1 0 .61.31.96.9.96.53 0 .94-.28 1.22-.78zm7.63-4.06l-.6.9c-.53-.34-1.03-.52-1.59-.52-.61 0-.96.25-.96.64 0 .42.25.61 1.33.91 1.29.35 2.03.88 2.03 2 0 1.32-1.22 2.01-2.67 2.01-1.09 0-1.94-.37-2.53-.9l.77-.86c.49.37 1.08.62 1.73.62.68 0 1.13-.29 1.13-.77 0-.53-.25-.7-1.44-1.03-1.31-.36-1.88-.98-1.88-1.92 0-1.05.97-1.85 2.45-1.85.91 0 1.65.29 2.25.76zm6.6 3.07h-3.98c.12 1.29.72 1.71 1.56 1.71.56 0 1.03-.18 1.58-.56l.64.88c-.62.5-1.39.85-2.35.85-1.97 0-3.02-1.31-3.02-3.31s1.02-3.39 2.82-3.39 2.79 1.2 2.79 3.2c0 .2-.02.46-.04.62zm-1.49-1.07c0-1.04-.37-1.67-1.24-1.67-.72 0-1.18.48-1.26 1.74h2.49v-.07zm-95.9 53.24l-.78.9c-.6-.49-1.18-.71-1.86-.71-.74 0-1.28.34-1.28.98 0 .6.32.86 1.7 1.29 1.45.46 2.46 1.06 2.46 2.62s-1.16 2.54-3.14 2.54c-1.32 0-2.3-.47-2.99-1.14l.82-.91c.61.52 1.27.83 2.13.83s1.52-.43 1.52-1.24c0-.7-.35-1.01-1.64-1.4-1.74-.54-2.49-1.24-2.49-2.5 0-1.38 1.19-2.29 2.82-2.29 1.21 0 2.01.36 2.73 1.02zm6.17 1.67l-.68.92c-.42-.31-.8-.46-1.28-.46-.89 0-1.43.65-1.43 2.17s.56 2.08 1.43 2.08c.48 0 .82-.16 1.28-.46l.68.97c-.58.47-1.24.73-2.05.73-1.83 0-2.97-1.27-2.97-3.3s1.14-3.41 2.96-3.41c.83 0 1.46.23 2.06.74zm6.27 1.18v4.59h-1.54v-4.35c0-.79-.31-1.02-.78-1.02-.54 0-.96.37-1.33.95v4.43h-1.54v-8.88l1.54-.16v3.44c.49-.6 1.08-.94 1.85-.94 1.13 0 1.8.73 1.8 1.93zm7.32 1.42c0 2-1.12 3.36-2.99 3.36s-2.99-1.27-2.99-3.36 1.12-3.35 3-3.35 2.97 1.27 2.97 3.35zm-4.35 0c0 1.52.47 2.2 1.37 2.2s1.37-.68 1.37-2.2-.47-2.18-1.36-2.18-1.38.68-1.38 2.18zm11.36 0c0 2-1.12 3.36-2.99 3.36s-2.99-1.27-2.99-3.36 1.12-3.35 3-3.35 2.97 1.27 2.97 3.35zm-4.35 0c0 1.52.47 2.2 1.37 2.2s1.37-.68 1.37-2.2-.47-2.18-1.36-2.18-1.38.68-1.38 2.18zm5.7 1.73v-7.44l1.54-.17v7.56c0 .3.1.44.36.44.13 0 .25-.02.35-.06l.34 1.08c-.26.12-.64.22-1.03.22-.97 0-1.55-.59-1.55-1.63zm9.27-1.73c0 1.98-.95 3.36-2.51 3.36-.7 0-1.27-.31-1.68-.83l-.1.65h-1.36v-8.89l1.54-.17v3.43c.41-.56 1.02-.9 1.75-.9 1.48 0 2.35 1.22 2.35 3.35zm-1.61 0c0-1.69-.5-2.19-1.24-2.19-.55 0-.96.37-1.26.86v2.81c.28.46.7.73 1.18.73.78 0 1.32-.61 1.32-2.21zm8.63 0c0 2-1.12 3.36-2.99 3.36s-2.99-1.27-2.99-3.36 1.12-3.35 3-3.35 2.97 1.27 2.97 3.35zm-4.35 0c0 1.52.47 2.2 1.37 2.2s1.37-.68 1.37-2.2-.47-2.18-1.36-2.18-1.38.68-1.38 2.18zm11.36 0c0 2-1.12 3.36-2.99 3.36s-2.99-1.27-2.99-3.36 1.12-3.35 3-3.35 2.97 1.27 2.97 3.35zm-4.35 0c0 1.52.47 2.2 1.37 2.2s1.37-.68 1.37-2.2-.47-2.18-1.36-2.18-1.38.68-1.38 2.18zm7.3 3.18h-1.54v-8.89l1.54-.17v9.05zm1.69-3.55l2.31 3.55h-1.76l-2.18-3.47 2.12-2.88h1.62l-2.11 2.79zm7.82 2.25h3.32l-.18 1.29H68.6v-8.29h1.58v6.99zm9.7-1.88c0 2-1.12 3.36-2.99 3.36s-2.99-1.27-2.99-3.36 1.12-3.35 3-3.35 2.97 1.27 2.97 3.35zm-4.35 0c0 1.52.47 2.2 1.37 2.2s1.37-.68 1.37-2.2-.47-2.18-1.36-2.18-1.38.68-1.38 2.18zm12.16 3.18h-1.92l-.96-4.98-.98 4.98h-1.88l-1.4-6.34h1.54l.89 5.22 1.1-5.22h1.57l1.01 5.22.95-5.22h1.47l-1.38 6.34zm7.61-2.7h-3.98c.12 1.29.72 1.71 1.56 1.71.56 0 1.03-.18 1.58-.56l.64.88c-.62.5-1.39.85-2.35.85-1.97 0-3.02-1.31-3.02-3.31s1.02-3.39 2.82-3.39 2.79 1.2 2.79 3.2c0 .2-.02.46-.04.62zm-1.49-1.07c0-1.04-.37-1.67-1.24-1.67-.72 0-1.18.48-1.26 1.74h2.5v-.07zm6.65-2.66l-.26 1.49c-.19-.05-.34-.07-.56-.07-.77 0-1.16.56-1.4 1.63v3.38h-1.54v-6.34h1.33l.14 1.25c.3-.91.91-1.42 1.66-1.42.23 0 .43.02.63.08zm9.6-1.17l-.8.94c-.48-.38-.97-.59-1.54-.59-1.15 0-2.04.84-2.04 3.08s.86 3.07 2.04 3.07c.72 0 1.21-.31 1.69-.67l.74.94c-.5.52-1.37 1.01-2.49 1.01-2.15 0-3.65-1.52-3.65-4.34s1.58-4.31 3.62-4.31c1.06 0 1.74.31 2.42.88zm6.19 6.73l-.32 1.02c-.71-.06-1.16-.3-1.4-.92-.46.67-1.14.95-1.91.95-1.26 0-2.04-.8-2.04-1.96 0-1.38 1.03-2.12 2.88-2.12h.8v-.36c0-.83-.37-1.1-1.19-1.1-.43 0-1.04.12-1.69.34l-.35-1.04c.78-.3 1.58-.46 2.29-.46 1.7 0 2.45.78 2.45 2.18v2.66c0 .52.17.7.48.82zm-1.99-.85v-1.28h-.64c-1 0-1.49.36-1.49 1.1 0 .61.31.96.9.96.53 0 .94-.28 1.22-.78zm7.63-4.05l-.6.9c-.53-.34-1.03-.52-1.59-.52-.61 0-.96.25-.96.64 0 .42.25.61 1.33.91 1.29.35 2.03.88 2.03 2 0 1.32-1.22 2.01-2.67 2.01-1.09 0-1.94-.37-2.53-.9l.77-.86c.49.37 1.08.62 1.73.62.68 0 1.13-.29 1.13-.77 0-.53-.25-.7-1.44-1.03-1.31-.36-1.88-.98-1.88-1.92 0-1.05.97-1.85 2.45-1.85.91 0 1.65.29 2.25.76zm6.6 3.07h-3.98c.12 1.29.72 1.71 1.56 1.71.56 0 1.03-.18 1.58-.56l.64.88c-.62.5-1.39.85-2.35.85-1.97 0-3.02-1.31-3.02-3.31s1.02-3.39 2.82-3.39 2.79 1.2 2.79 3.2c0 .2-.02.46-.04.62zm-1.49-1.07c0-1.04-.37-1.67-1.24-1.67-.72 0-1.18.48-1.26 1.74h2.5v-.07zM7.17 194.23l-.85.89c-.56-.44-1.03-.66-1.74-.66-1.17 0-2.18.89-2.18 3.12s.67 3.12 1.97 3.12c.47 0 .92-.1 1.32-.32v-2.16H4.44l-.17-1.18h2.97v4.05c-.83.5-1.81.82-2.85.82-2.36 0-3.66-1.49-3.66-4.33s1.73-4.32 3.8-4.32c1.15 0 1.94.38 2.64.97zm6.79 4.8H9.98c.12 1.29.72 1.71 1.56 1.71.56 0 1.03-.18 1.58-.56l.64.88c-.62.5-1.39.85-2.35.85-1.97 0-3.02-1.31-3.02-3.31s1.02-3.39 2.82-3.39 2.79 1.2 2.79 3.2c0 .2-.02.46-.04.62zm-1.49-1.07c0-1.04-.37-1.67-1.24-1.67-.72 0-1.18.48-1.26 1.74h2.5v-.07zm8.48.59c0 2-1.12 3.36-2.99 3.36s-2.99-1.27-2.99-3.36 1.12-3.35 3-3.35 2.97 1.27 2.97 3.35zm-4.35 0c0 1.52.47 2.2 1.37 2.2s1.37-.68 1.37-2.2-.47-2.18-1.36-2.18-1.38.68-1.38 2.18zm14.17-1.41v4.59h-1.54v-4.35c0-.79-.31-1.02-.7-1.02-.53 0-.85.37-1.2.96v4.41h-1.54v-4.35c0-.79-.32-1.02-.7-1.02-.54 0-.86.37-1.21.96v4.41h-1.54v-6.34h1.33l.12.83c.46-.64 1.03-1.01 1.83-1.01.74 0 1.3.4 1.54 1.07.48-.66 1.07-1.07 1.91-1.07 1.01 0 1.68.73 1.68 1.93zm6.93 1.89h-3.98c.12 1.29.72 1.71 1.56 1.71.56 0 1.03-.18 1.58-.56l.64.88c-.62.5-1.39.85-2.35.85-1.97 0-3.02-1.31-3.02-3.31s1.02-3.39 2.82-3.39 2.79 1.2 2.79 3.2c0 .2-.02.46-.04.62zm-1.49-1.07c0-1.04-.37-1.67-1.24-1.67-.72 0-1.18.48-1.26 1.74h2.49v-.07zm6.54 3.47c-.46.32-1.03.48-1.6.48-1.25-.01-1.91-.72-1.91-2.07v-3.35h-1v-1.1h1v-1.4l1.54-.18v1.58h1.47l-.16 1.1h-1.32v3.31c0 .62.2.88.67.88.24 0 .48-.07.76-.23l.54.98zm4.61-6.13l-.26 1.49c-.19-.05-.34-.07-.56-.07-.77 0-1.16.56-1.4 1.63v3.38H43.6v-6.34h1.33l.14 1.25c.3-.91.91-1.42 1.65-1.42.23 0 .43.02.64.08zm2.67-2.19c0 .52-.4.92-.97.92s-.96-.41-.96-.92.4-.94.96-.94.97.41.97.94zm-.19 8.62H48.3v-6.34h1.54v6.34zm6.44-5.78l-.68.92c-.42-.31-.8-.46-1.28-.46-.89 0-1.43.65-1.43 2.17s.56 2.08 1.43 2.08c.48 0 .82-.16 1.28-.46l.68.97c-.58.47-1.24.73-2.05.73-1.83 0-2.97-1.27-2.97-3.3s1.14-3.41 2.96-3.41c.83 0 1.46.23 2.06.74zm10.96 1.63c0 2.73-1.4 4.33-3.62 4.33s-3.63-1.55-3.63-4.32 1.42-4.33 3.63-4.33 3.62 1.55 3.62 4.32zm-5.59.01c0 2.23.76 3.11 1.97 3.11s1.96-.88 1.96-3.12-.71-3.11-1.96-3.11-1.97.89-1.97 3.12zm12.65.95c0 1.94-.9 3.37-2.51 3.37-.65 0-1.2-.23-1.59-.7v2.96l-1.54.17v-8.96H70l.08.78c.5-.66 1.17-.96 1.86-.96 1.66 0 2.35 1.31 2.35 3.33zm-1.61.01c0-1.61-.43-2.19-1.2-2.19-.54 0-1 .37-1.29.86v2.85c.3.44.68.66 1.16.66.84 0 1.33-.65 1.33-2.18zm8.23.48h-3.98c.12 1.29.72 1.71 1.56 1.71.56 0 1.03-.18 1.58-.56l.64.88c-.62.5-1.39.85-2.35.85-1.97 0-3.02-1.31-3.02-3.31s1.02-3.39 2.82-3.39 2.79 1.2 2.79 3.2c0 .2-.02.46-.04.62zm-1.49-1.07c0-1.04-.37-1.67-1.24-1.67-.72 0-1.18.48-1.26 1.74h2.5v-.07zm8.07-.82v4.59h-1.54v-4.35c0-.79-.3-1.02-.78-1.02-.55 0-.96.37-1.33.96v4.41h-1.54v-6.34h1.33l.12.83c.49-.64 1.13-1.01 1.93-1.01 1.14 0 1.8.72 1.8 1.93zm6.39 3.29h3.32l-.18 1.29H92.3v-8.29h1.58v6.99zm9.7-1.88c0 2-1.12 3.36-2.99 3.36s-2.99-1.27-2.99-3.36 1.12-3.35 3-3.35 2.97 1.27 2.97 3.35zm-4.35 0c0 1.52.47 2.2 1.37 2.2s1.37-.68 1.37-2.2-.47-2.18-1.36-2.18-1.38.68-1.38 2.18zm12.16 3.18h-1.92l-.96-4.98-.98 4.98h-1.88l-1.4-6.34h1.54l.89 5.22 1.1-5.22h1.57l1.01 5.22.95-5.22h1.47l-1.38 6.34zm7.61-2.7h-3.98c.12 1.29.72 1.71 1.56 1.71.56 0 1.03-.18 1.58-.56l.64.88c-.62.5-1.39.85-2.35.85-1.97 0-3.02-1.31-3.02-3.31s1.02-3.39 2.82-3.39 2.79 1.2 2.79 3.2c0 .2-.02.46-.04.62zm-1.49-1.07c0-1.04-.37-1.67-1.24-1.67-.72 0-1.18.48-1.26 1.74h2.5v-.07zm6.65-2.66l-.26 1.49c-.19-.05-.34-.07-.56-.07-.77 0-1.16.56-1.4 1.63v3.38h-1.54v-6.34h1.33l.14 1.25c.3-.91.91-1.42 1.66-1.42.23 0 .43.02.63.08zm9.6-1.16l-.8.94c-.48-.38-.97-.59-1.54-.59-1.15 0-2.04.84-2.04 3.08s.86 3.07 2.04 3.07c.72 0 1.21-.31 1.69-.67l.74.94c-.5.52-1.37 1.01-2.49 1.01-2.15 0-3.65-1.52-3.65-4.34s1.58-4.31 3.62-4.31c1.06 0 1.74.31 2.42.88zm6.19 6.73l-.32 1.02c-.71-.06-1.16-.3-1.4-.92-.46.67-1.14.95-1.91.95-1.26 0-2.04-.8-2.04-1.96 0-1.38 1.03-2.12 2.88-2.12h.8v-.36c0-.83-.37-1.1-1.19-1.1-.43 0-1.04.12-1.69.34l-.35-1.04c.78-.3 1.58-.46 2.29-.46 1.7 0 2.45.78 2.45 2.18v2.66c0 .52.17.7.48.82zm-1.99-.85v-1.28h-.64c-1 0-1.49.36-1.49 1.1 0 .61.31.96.9.96.53 0 .94-.28 1.22-.78zm7.63-4.06l-.6.9c-.53-.34-1.03-.52-1.59-.52-.61 0-.96.25-.96.64 0 .42.25.61 1.33.91 1.29.35 2.03.88 2.03 2 0 1.32-1.22 2.01-2.67 2.01-1.09 0-1.94-.37-2.53-.9l.77-.86c.49.37 1.08.62 1.73.62.68 0 1.13-.29 1.13-.77 0-.53-.25-.7-1.44-1.03-1.31-.36-1.88-.98-1.88-1.92 0-1.05.97-1.85 2.45-1.85.91 0 1.65.29 2.25.76zm6.6 3.07h-3.98c.12 1.29.72 1.71 1.56 1.71.56 0 1.03-.18 1.58-.56l.64.88c-.62.5-1.39.85-2.35.85-1.97 0-3.02-1.31-3.02-3.31s1.02-3.39 2.82-3.39 2.79 1.2 2.79 3.2c0 .2-.02.46-.04.62zm-1.49-1.07c0-1.04-.37-1.67-1.24-1.67-.72 0-1.18.48-1.26 1.74h2.5v-.07z" class="cls-1"/></svg>