<svg xmlns="http://www.w3.org/2000/svg" id="type-waterfall-warnock" viewBox="0 0 696.9 329.54" width="696.9" height="329.54"><defs><style>.cls-1{fill:#505150}</style></defs><path d="M9.78 3.56l-6.91-.22c-.36.76-1.55 2.99-1.84 3.46l-.58.14c-.14-1.22-.18-4-.14-5.36l.11-.14c.4.11 1.8.4 2.38.58h16.92c.76 0 1.94-.14 2.48-.47V.61l2.52-.57.18.14c-.07 3.53-.11 7.52-.11 11.48l.07.04c2.48-1.87 3.89-2.2 5.11-2.2 3.6 0 5.33 2.99 5.33 5.36v8.31c0 .61.18.76.68.97l2.02.9-.32.76c-1.4.04-3.24-.04-5.22-.29.18-1.51.36-3.96.36-9.25 0-4.36-2.45-4.86-4.14-4.86-1.48 0-2.7.5-3.89 1.44 0 3.53.04 10.51.11 11.12L27.53 25l-.29.72c-1.3 0-2.45-.04-3.74-.04-1.15 0-2.34.04-3.49.04l.25-.72 1.94-1.04c.07-.58.11-3.74.11-8.46 0-3.85 0-7.2-.11-11.66-.68-.29-1.62-.54-2.52-.5l-7.23.22v8.96c0 9.25.22 10.22.22 11.3l3.82 1.08-.29.83c-1.44 0-3.28-.04-5.08-.04s-3.64.04-5.15.04l.29-.83 3.42-1.08c.07-1.22.11-1.91.11-10.15V3.56zm33.09 13.65c-.04.18-.04.36-.04.54 0 4.21 2.66 6.66 5.94 6.66.54 0 .97-.07 1.3-.22 1.19-.79 2.12-1.44 2.88-1.84l.18.58c-.22.68-1.44 2.02-1.87 2.38-.72.32-2.56.86-3.78.86-4.28 0-7.42-3.1-7.42-7.99 0-5.18 3.71-8.67 7.63-8.67 3.13 0 5.9 2.12 5.9 6.08 0 .43-.11 1.01-.36 1.15-.4.18-1.73.47-3.28.47h-7.09zm7.77-1.26c.11-.25.18-.68.18-1.12 0-2.02-1.15-4.14-3.42-4.14-3.28 0-4.46 3.82-4.5 5.26h7.74zm28.37 4.96c0 4 .04 9.25.04 11.27l3.13.97-.25.83c-1.44 0-2.84-.04-4.28-.04s-2.77.04-4.21.04l.22-.79 2.7-.97c.04-2.88.07-5.76.14-7.63l-.07-.04c-1.19.76-2.84 1.62-4.1 1.62-4.1 0-7.63-3.13-7.63-8.03s4-8.64 8.64-8.64c1.26 0 2.38.54 3.53 1.37.65-.54 2.3-1.3 3.2-1.4l.11.22c-.14.94-.76 2.09-1.15 2.66v8.57zm-2.52-8.85c-.47-.4-1.51-.97-2.99-.97-3.38 0-6.01 3.02-6.01 6.62 0 4.03 2.66 6.59 5.76 6.59 1.15 0 2.38-.4 3.24-1.01V12.06zm6.45-1.08l.32-.72c.72-.22 3.28-.54 4.39-.54-.14 1.51-.25 4.39-.25 10.73 0 1.37.36 2.12.68 2.52.54.61 1.48 1.12 2.77 1.12 1.69 0 3.56-1.01 4.28-2.38v-9.39c-.32-.61-.9-.86-2.41-1.4l.32-.68c1.15-.32 3.64-.54 4.72-.5-.11 1.69-.11 4.03-.11 13.28.76 1.3 1.8 1.84 2.92 2.09l-.25.61c-.4.22-.97.4-1.8.4-1.19 0-2.92-.5-3.31-2.77h-.07c-1.37 1.48-3.06 2.84-5.29 2.84-1.19 0-2.63-.4-3.6-1.37-.94-.9-1.4-2.38-1.4-4.5 0-2.27.11-5.87.11-8.49L82.94 11zm19.98-.47c.61-.22 2.41-.79 4.28-1.01v7.2c0 4.03.04 6.12.07 7.2l2.59 1.04-.25.79c-1.15 0-2.52-.04-3.82-.04-1.08 0-2.16.04-3.53.04l.25-.79 2.09-1.04c.04-1.19.11-4.39.11-7.27v-4.57l-1.94-.9.14-.65zm3.17-8.35c.47.14 1.33 1.15 1.62 1.84l-.11.29c-.25.58-1.26 1.58-1.73 1.87l-.25.07c-.54-.36-1.3-1.26-1.62-1.87l.07-.29c.5-.76 1.26-1.55 1.8-1.91h.22zm14.9 7.34c1.94 0 3.96.76 4.43 1.33-.25.97-.65 2.52-1.22 3.64l-.54.25c-.29-.72-.68-2.05-1.04-3.71-.25-.14-.72-.29-1.51-.29-4.18 0-6.37 3.31-6.37 6.91 0 4.07 2.66 6.91 6.66 6.91.29 0 .79-.22 1.01-.32 1.37-1.12 2.38-1.8 2.99-2.09l.22.43c-.32 1.04-1.62 2.59-2.27 3.02-.58.22-2.27.58-3.38.58-3.02 0-8.06-1.94-8.06-8.17 0-5.9 4.93-8.49 9.11-8.49zm14 15.48l-.18.76c-1.33 0-2.66-.04-4-.04-1.19 0-2.41.04-3.6.04l.25-.76 2.09-1.04c.07-.61.11-2.81.11-6.91 0-5 0-9.72-.14-14.25l-1.98-.97.32-.65c.65-.25 3.1-.94 4.43-1.15-.11 4-.11 8.57-.11 13.03 0 2.38 0 10.33.07 10.91l2.74 1.04zm8.64 1.33c-1.66-.18-3.17-.54-4.46-1.76-1.76-1.62-4.39-4.68-6.26-7.09l-.04-.22c1.66-1.84 3.64-4.1 5.08-5.98l.65-1.76c1.4 0 3.82.25 4.64.43l-.47.76c-.5.29-2.84 1.01-3.6 1.37-1.4 1.37-1.84 1.84-3.85 4.1v.07c2.2 2.81 6.7 7.81 8.53 9.83l-.22.25zm11.67-14.32c0-3.31-.04-6.37-.14-9.29l-2.05-.86.29-.68c1.04-.4 2.41-.79 4.54-1.15-.07 4.14-.11 7.7-.11 11.16.97-.47 3.06-1.66 4.25-1.66 3.56 0 7.63 2.59 7.63 7.85 0 6.37-5.36 8.82-8.78 8.82-.9 0-2.45-.65-3.49-1.12-.79.5-1.62.9-2.12 1.08V11.99zm2.52 12.02c.4.14 1.62.58 2.66.58 4.14 0 6.41-3.24 6.41-6.88s-2.3-6.33-5.87-6.33c-1.01 0-2.16.29-3.2.9v11.73zm15.26-13.36c.54-.29 2.7-1.12 3.64-1.15.22.86.36 2.38.36 3.67h.07c1.55-2.81 3.78-3.67 5.11-3.67.65 0 1.3.14 1.69.54-.14 1.01-.65 2.81-1.04 3.64l-.4.25c-.32-.43-.76-1.22-1.22-2.3-.14-.07-.29-.11-.54-.11-1.15 0-2.81 1.48-3.56 3.46v9l3.67 1.01-.18.76c-1.22 0-2.95-.04-4.9-.04-1.08 0-2.59.04-3.53.04l.18-.76 2.09-1.04c.11-3.78.14-9.72.14-11.52l-1.87-1.08.29-.68zm28.51 7.02c0 5.15-3.53 8.49-7.96 8.49-3.78 0-7.92-2.81-7.92-8.1 0-5.58 4.54-8.57 8.03-8.57 4.21 0 7.85 3.31 7.85 8.17zm-12.89.18c0 3.46 1.87 7.13 5.22 7.13s4.64-3.78 4.64-6.98c0-3.53-1.69-7.34-4.93-7.34s-4.93 3.46-4.93 7.2zm20.85-7.09l-1.48.9c.54 1.76 1.58 4.9 3.42 10.4h.11c1.3-3.35 2.45-6.08 3.53-8.89l-.29-2.05c.29-.25 1.66-1.04 2.34-1.22l.25.18.14 2.59c.86 2.56 2.16 5.8 3.6 9.57h.07c1.3-3.92 2.16-6.7 3.28-10.58l-2.02-.9.32-.86c.94.04 1.91.07 2.84.07s1.91-.04 2.81-.07l-.18.86c-1.15.4-1.66.72-2.2 1.33-.47 1.12-2.38 6.55-4.54 12.74-.32.5-.83 1.12-1.19 1.51h-.29c-1.26-3.2-2.66-6.98-4.28-11.01h-.07c-1.48 3.53-2.2 5.18-3.92 9.47-.32.54-.79 1.15-1.15 1.55h-.29c-1.26-3.67-3.64-10.69-4.97-14.18-.47-.68-.94-.97-2.3-1.4l.32-.86c1.19.04 2.23.07 3.28.07.97 0 2.05-.04 3.06-.07l-.22.86zm22.71 1.55l-1.94-.83.22-.72c.61-.29 3.02-1.22 4.21-1.26l-.14 2.88h.07c2.95-2.45 4.32-2.88 5.72-2.88 3.71 0 4.79 3.06 4.79 5.72v8.17c0 .4.18.58.43.68l2.23.86-.25.79c-.79 0-2.48-.04-3.82-.04-.9 0-1.91.04-2.95.04l.25-.86 1.44-1.01c.07-1.08.14-3.71.14-8.42 0-2.88-1.69-4.03-3.56-4.03-1.69 0-3.49 1.3-4.36 2.23 0 2.7 0 9.61.11 10.37l2.09.9-.25.83c-.83 0-2.16-.04-3.28-.04s-2.45.04-3.49.04l.25-.79 1.98-.94c.07-.61.11-3.85.11-8.49v-3.2zm25.85 12.74l2.34-1.08c0-.47.11-3.1.11-7.34v-5l-2.48-.58.61-1.08h1.87c0-3.24.61-5.83 2.34-7.74C264.27.72 265.85 0 267.62 0c1.19 0 2.09.4 2.48.76-.43 1.48-.83 2.45-1.15 3.1l-.5.29c-.29-.5-.76-1.33-1.3-2.77-.14-.04-.25-.07-.4-.07-1.98 0-3.2 2.05-3.46 5.58-.07 1.12-.11 2.2-.14 3.1h4.72l-.65 1.15-4.07.43c-.04.72-.11 2.45-.11 4.79 0 5.51.04 7.06.11 7.56l3.46 1.04-.25.79c-1.51 0-3.17-.04-4.82-.04-1.22 0-2.45.04-3.67.04l.25-.68zm26.39-7.38c0 5.15-3.53 8.49-7.96 8.49-3.78 0-7.92-2.81-7.92-8.1 0-5.58 4.54-8.57 8.03-8.57 4.21 0 7.85 3.31 7.85 8.17zm-12.89.18c0 3.46 1.87 7.13 5.22 7.13s4.64-3.78 4.64-6.98c0-3.53-1.69-7.34-4.93-7.34s-4.93 3.46-4.93 7.2zm22.61-2.3h.07c.86-1.51 1.55-2.48 2.09-3.71.32-.83.29-1.3.29-1.91.68 0 1.33.04 1.94.04 1.15 0 2.27-.04 3.35-.04l-.25.83c-2.09.65-2.77.94-3.67 1.55-.9 1.19-1.62 2.12-3.13 4.39 1.12 2.05 3.1 5.36 3.74 6.34.36.47.72.86 1.22 1.01l2.74.83-.32.83c-1.08 0-3.82.18-5.15.18-.9-1.73-1.51-2.95-3.74-6.77h-.07c-1.66 2.77-2.09 3.49-2.77 4.82.14.25.4.58.97 1.04l-.25.76c-.72 0-1.76-.04-2.66-.04-1.12 0-2.23.04-3.02.04l.18-.79 1.98-.86c.61-.25 1.04-.58 1.44-1.15 1.04-1.44 1.73-2.3 3.53-5.08-2.16-3.82-2.95-5.18-3.49-5.9-.47-.32-1.19-.68-3.13-1.22l.32-.79c.83 0 1.83.04 2.77.04s1.69-.04 2.77-.04l-.22 1.4 2.48 4.21zm18.43-5.08c1.01-.36 3.49-.94 4.46-.97v13.28c0 1.73-.32 4.03-1.37 6.05-1.73 3.28-3.17 4.79-4.39 5.79l-.9-.43-.04-.4c3.74-2.88 4.21-6.7 4.21-11.12 0-3.06-.04-8.64-.11-10.73-.61-.25-1.37-.54-2.09-.86l.22-.61zm3.24-8.35c.43.18 1.3 1.19 1.62 1.87l-.11.25c-.25.61-1.3 1.62-1.76 1.87l-.22.11c-.58-.36-1.33-1.26-1.66-1.91l.11-.25c.5-.76 1.26-1.58 1.76-1.91l.25-.04zm4.97 8.86l.32-.72c.72-.22 3.28-.54 4.39-.54-.14 1.51-.25 4.39-.25 10.73 0 1.37.36 2.12.68 2.52.54.61 1.48 1.12 2.77 1.12 1.69 0 3.56-1.01 4.28-2.38v-9.39c-.32-.61-.9-.86-2.41-1.4l.32-.68c1.15-.32 3.64-.54 4.72-.5-.11 1.69-.11 4.03-.11 13.28.76 1.3 1.8 1.84 2.92 2.09l-.25.61c-.4.22-.97.4-1.8.4-1.19 0-2.92-.5-3.31-2.77h-.07c-1.37 1.48-3.06 2.84-5.29 2.84-1.19 0-2.63-.4-3.6-1.37-.94-.9-1.4-2.38-1.4-4.5 0-2.27.11-5.87.11-8.49l-2.02-.83zm21.78 1.22l-1.94-.72.22-.72c.83-.32 3.06-1.22 4.25-1.26l-.18 2.99h.07c2.3-1.94 4.07-2.99 5.62-2.99 1.84 0 3.6 1.04 4.32 3.02 2.63-2.27 4.25-3.02 5.98-3.02 2.77 0 4.82 2.05 4.82 5.4v8.6c0 .32.25.5.65.68l1.98.79-.14.76c-1.19 0-2.45-.04-3.74-.04-.97 0-2.09.04-3.2.04l.18-.79 1.62-1.01c.07-1.37.18-3.82.14-7.81 0-1.87-.22-4.68-3.53-4.68-1.33 0-2.84.72-4.46 2.23.07.68.22 1.84.22 3.13l-.04 7.13 2.16 1.04-.22.76c-.9 0-2.09-.04-3.17-.04s-2.2.04-3.24.04l.18-.83 1.69-.94c.04-2.63.07-5.47.07-8.13 0-1.69-.25-4.39-3.6-4.39-1.3 0-2.95 1.08-4.18 2.27 0 4.61-.04 8.96.04 10.26l2.3.94-.25.83c-.76 0-2.09-.04-3.49-.04-1.04 0-2.38.04-3.38.04l.22-.83 1.94-.94c.07-.79.11-4.07.11-7.13V12.2zm31.64-.39l.07.04c2.23-1.55 3.89-2.34 5-2.34 3.02 0 6.95 2.45 6.95 7.67 0 6.3-5.4 9-8.75 9-.76 0-2.34-.65-3.02-1.12l-.07.04c0 2.81.07 5.22.14 7.09l3.38 1.01-.36.79c-1.58 0-2.92-.04-4.5-.04-1.15 0-2.34.04-3.53.04l.32-.86 1.84-.83c.04-1.37.18-4.79.18-10.04V12.11l-2.02-1.04.36-.65c.58-.32 3.06-.94 4.14-1.01l-.14 2.41zm.14 11.91c.72.43 1.84.86 3.02.86 3.17 0 6.05-2.7 6.05-6.95 0-3.13-1.84-6.23-5.25-6.23-1.01 0-2.3.47-3.82 1.55v10.76zm23.19-13.35c.54-.36 1.19-.72 1.76-.9l.29.29c0 .32-.5 3.31-.9 4.14l-.43.25c-.4-.72-.86-1.91-1.26-2.77-.18-.18-.83-.61-2.09-.61-1.87 0-2.84 1.22-2.84 2.66 0 .94.29 1.48 1.26 2.05.9.54 3.1 1.44 4.28 2.02 1.98.94 2.77 2.27 2.77 3.78 0 3.74-3.92 4.9-6.08 4.9-1.8 0-3.82-.65-5.18-1.55.04-.61.65-3.31.83-3.78l.5-.25c.47.86 1.22 3.1 1.55 3.92.5.22 1.37.4 2.23.4 1.98 0 3.53-1.19 3.53-2.77 0-1.01-.32-1.69-1.48-2.27-.97-.5-2.2-1.08-3.6-1.73-1.87-.83-3.02-2.16-3.02-4.14 0-2.16 1.69-4.5 5.18-4.5.86 0 1.83.25 2.7.86zm29.8 7.3c0 5.15-3.53 8.49-7.96 8.49-3.78 0-7.92-2.81-7.92-8.1 0-5.58 4.54-8.57 8.03-8.57 4.21 0 7.85 3.31 7.85 8.17zm-12.89.18c0 3.46 1.87 7.13 5.22 7.13s4.64-3.78 4.64-6.98c0-3.53-1.69-7.34-4.93-7.34s-4.93 3.46-4.93 7.2zm14.41-7.95c.86.04 1.8.07 3.1.07 1.04 0 2.05-.04 3.06-.07l-.32.9-1.15.79c.76 2.2 2.12 5.65 4.14 10.58h.07c.72-1.8 1.4-3.38 3.92-10.4l-1.73-1.04.29-.83c.58.04 1.69.07 2.52.07.97 0 2.16-.04 2.95-.07l-.25.86c-1.22.47-1.66.79-2.27 1.66-.58 1.08-3.78 8.78-5.15 12.2-.25.61-.72 1.37-1.08 1.73h-.29c-.32-.68-3.46-8.75-5.65-13.97-.61-.97-1.22-1.22-2.45-1.69l.29-.79zm20.66 7.31c-.04.18-.04.36-.04.54 0 4.21 2.66 6.66 5.94 6.66.54 0 .97-.07 1.3-.22 1.19-.79 2.12-1.44 2.88-1.84l.18.58c-.22.68-1.44 2.02-1.87 2.38-.72.32-2.56.86-3.78.86-4.28 0-7.42-3.1-7.42-7.99 0-5.18 3.71-8.67 7.63-8.67 3.13 0 5.9 2.12 5.9 6.08 0 .43-.11 1.01-.36 1.15-.4.18-1.73.47-3.28.47h-7.09zm7.77-1.26c.11-.25.18-.68.18-1.12 0-2.02-1.15-4.14-3.42-4.14-3.28 0-4.46 3.82-4.5 5.26h7.74zm6.06-5.3c.54-.29 2.7-1.12 3.64-1.15.22.86.36 2.38.36 3.67h.07c1.55-2.81 3.78-3.67 5.11-3.67.65 0 1.3.14 1.69.54-.14 1.01-.65 2.81-1.04 3.64l-.4.25c-.32-.43-.76-1.22-1.22-2.3-.14-.07-.29-.11-.54-.11-1.15 0-2.81 1.48-3.56 3.46v9l3.67 1.01-.18.76c-1.22 0-2.95-.04-4.9-.04-1.08 0-2.59.04-3.53.04l.18-.76 2.09-1.04c.11-3.78.14-9.72.14-11.52l-1.87-1.08.29-.68zm31.31-.68l-.68 1.22-4.93.4v10.26c0 .94.4 1.51.65 1.76.36.29.9.54 1.8.54 1.37 0 2.38-.43 2.92-.83l.18.04-.07 1.08c-.9 1.04-2.2 1.73-3.92 1.73-1.26 0-2.45-.58-3.24-1.44-.61-.83-.86-1.58-.86-3.92V11.6l-2.45-.4.65-1.22h1.84c.14-1.08.36-2.74.72-4.07.43-.61 1.44-1.15 1.94-1.15l-.14 5.22h5.62zm16.42 13.21c0 .61.18.76.68.97l2.02.9-.25.76c-1.4.04-3.28-.04-5.26-.29.14-1.51.32-3.85.32-9.14 0-4.36-2.45-4.97-4.14-4.97-1.48 0-2.7.5-3.89 1.44 0 3.49.04 10.4.11 11.12l2.63 1.01-.29.76c-1.26 0-2.45-.04-3.74-.04-1.15 0-2.34.04-3.49.04l.25-.76 1.94-1.01c.07-.54.11-3.74.11-8.46s0-8.68-.14-12.78l-2.05-.9.22-.68c.94-.29 2.3-.65 4.57-1.15-.07 3.6-.11 7.67-.11 11.66l.07.04c2.48-1.91 3.89-2.2 5.11-2.2 3.6 0 5.33 2.99 5.33 5.36v8.31zm7.49-5.97c-.04.18-.04.36-.04.54 0 4.21 2.66 6.66 5.94 6.66.54 0 .97-.07 1.3-.22 1.19-.79 2.12-1.44 2.88-1.84l.18.58c-.22.68-1.44 2.02-1.87 2.38-.72.32-2.56.86-3.78.86-4.28 0-7.42-3.1-7.42-7.99 0-5.18 3.71-8.67 7.63-8.67 3.13 0 5.9 2.12 5.9 6.08 0 .43-.11 1.01-.36 1.15-.4.18-1.73.47-3.28.47h-7.09zm7.77-1.26c.11-.25.18-.68.18-1.12 0-2.02-1.15-4.14-3.42-4.14-3.28 0-4.46 3.82-4.5 5.26h7.74zm21.03 8.96l-.36.83c-1.29 0-2.41-.04-3.56-.04-1.26 0-2.59.04-3.82.04l.22-.76 2.3-.97c0-1.58.07-3.82.07-12.6 0-3.24 0-7.02-.14-8.82l-2.09-.79.4-.72c1.22-.4 2.99-.83 4.43-1.08-.07 4-.11 7.38-.11 11.27 0 7.23.04 9.93.07 12.74l2.59.9zm10.91-9.04c-.07-4-1.66-4.79-3.71-4.79-.68 0-1.66.32-2.3.76-.04.9-.18 2.38-.36 3.42l-.43.14c-.43-.22-1.76-2.16-2.05-2.95.58-.54 2.7-1.84 4.1-2.38.86-.32 1.73-.58 2.52-.58 3.49 0 4.72 3.17 4.72 5.51s-.07 5.54-.07 8.03a5.149 5.149 0 0 0 2.88 2.16l-.29.58c-.29.14-.72.32-1.4.32-2.41 0-3.17-1.12-3.53-2.09h-.04c-1.51 1.55-3.28 2.16-4.43 2.16-3.17 0-4.5-2.45-4.5-4.1 0-1.51.68-2.56 1.44-2.95 1.37-.79 4.5-1.87 7.49-2.56l-.04-.68zm-3.17 8.46c.83 0 1.98-.47 2.77-1.3.22-.29.32-.5.36-.86l.07-4.5c-1.8.47-3.92 1.19-4.97 1.76-.94.5-1.3.97-1.3 1.98 0 2.2 1.87 2.92 3.06 2.92zm23.15-14.04c-1.83 3.1-6.98 10.65-9.21 14.15l.04.04c2.92 0 6.59-.18 6.88-.29 1.15-1.62 1.91-2.66 2.41-3.24l.5-.18c-.11 1.33-.47 3.96-.79 5.11-1.76-.04-4.14-.18-7.24-.18h-5.62v-.29c2.88-4.07 6.34-9.29 9.61-14.18l-.04-.07c-.58 0-2.09 0-6.44.18-.4.68-1.3 2.38-1.69 2.88l-.5.11c-.14-.68-.29-3.92-.22-4.57l.11-.11 2.45.32h9.54l.22.32zm13.31-.39c.68 0 1.69.07 2.45.07 1.01 0 2.09-.07 2.92-.07l-.14.83c-1.19.5-1.76.97-2.23 1.55-1.44 3.13-4.03 9.72-7.67 18.32-.25 1.08-.54 2.59-.86 3.89-.22.11-.47.14-.86.14-.97 0-2.05-.61-2.38-1.01.36-.65 1.8-2.52 2.95-4 .5-1.01 1.44-2.95 2.02-4.32-.32-.61-3.53-9.57-4.97-12.99-.54-.79-1.01-1.12-2.52-1.58l.32-.83c1.01.04 2.02.07 3.06.07s2.16-.04 3.28-.07l-.25.86-1.22.86c.36 1.19 1.55 4.5 3.67 10.33h.07c1.58-4 3.17-8.21 3.85-10.33l-1.73-.86.25-.86zm29.24 13.21c.9 1.22 2.12 1.91 2.81 2.16l-.25.61c-.32.22-.76.29-1.44.29-.97 0-2.77-.5-3.42-2.09h-.04c-.65.5-2.81 2.09-4.36 2.09-2.95 0-7.59-2.27-7.59-7.99s4.82-8.67 8.64-8.67c.5 0 1.8.29 3.1 1.12l.04-.04c0-2.74-.04-4.82-.11-7.85l-2.23-.94.32-.65c.54-.25 2.2-.76 4.64-1.15-.07 4-.11 7.45-.11 11.37V23.1zm-2.52-11.19c-.79-.54-2.02-.86-2.95-.86-3.67 0-6.08 3.28-6.08 6.66s2.41 6.48 5.79 6.48c.76 0 1.94-.29 3.24-1.22V11.93zm23.14 5.75c0 5.15-3.53 8.49-7.96 8.49-3.78 0-7.92-2.81-7.92-8.1 0-5.58 4.54-8.57 8.03-8.57 4.21 0 7.85 3.31 7.85 8.17zm-12.89.18c0 3.46 1.87 7.13 5.22 7.13s4.64-3.78 4.64-6.98c0-3.53-1.69-7.34-4.93-7.34s-4.93 3.46-4.93 7.2zm27.15-6.26v.07c.5.43 1.3 1.76 1.3 3.64 0 3.35-2.81 5.58-6.16 5.58-1.15 0-2.05-.25-2.77-.61-.72.65-1.15 1.48-1.15 1.76 0 .68.97 1.62 1.73 1.62 1.26-.14 5.22-.36 7.16-.07 1.04.14 1.66.43 2.2.86.65.5 1.33 1.55 1.33 2.95 0 2.05-1.3 3.74-2.81 4.93-1.48 1.19-3.67 2.3-6.44 2.3-3.42 0-6.12-1.8-6.12-4.36 0-.36.18-.68.4-.94l3.1-3.46-.04-.07c-.4-.22-.86-.5-1.37-.97-.68-.61-1.33-1.62-1.33-2.34 0-.4 1.26-1.66 2.48-2.7-1.33-.79-2.38-2.3-2.38-4.43 0-2.7 2.12-5.87 6.62-5.87 1.01 0 1.73.14 2.66.29 1.15.22 1.98.36 2.45.4l3.1-1.26.14.32-1.51 2.16-2.59.18zm-7.16 14.65c-.68.65-1.98 2.38-1.98 3.2 0 2.48 2.63 3.35 4.72 3.35 3.06 0 5.87-1.37 5.87-4.32 0-1.26-.79-2.12-1.91-2.41-.86-.18-1.73-.25-3.6-.25s-2.56.25-3.1.43zm-1.08-11.09c0 2.2 1.15 4.54 3.56 4.54 2.16 0 3.46-1.91 3.46-4.61 0-2.12-1.19-4.43-3.53-4.43s-3.49 2.16-3.49 4.5zM7.41 83.23c.32-.86.72-1.98 2.88-10.22l2.63-10.11-6.84-.29c-.86 1.3-1.76 2.48-2.45 3.38l-.68.25c.18-.94.79-3.89 1.08-5.26l.11-.11c.32 0 1.8.25 2.45.47h15.77l2.81-.4c.07-.29.14-.61.22-.94l2.34-.65h.32c-.36 1.37-1.73 6.05-5.04 18.54h.11c2.56-3.89 5.69-7.2 9-8.64.65-.25 1.8-.43 2.38-.43.86 0 .97.4.5 2.05-1.33 4.72-2.77 10.11-3.1 11.88l3.31-.43-.43 1.04c-1.94.58-4.82 1.91-5.87 2.34l-.18-.29c.14-.9 3.38-11.55 4-14 .14-.54.04-.76-.36-.76-2.12 0-6.41 4.75-8.28 7.85-1.3 2.2-1.91 3.46-2.92 6.52l-2.34.29c.79-2.7 1.84-6.3 3.35-12.42 1.19-4.64 1.91-7.42 2.48-9.75l-2.56-.54-6.52.29-2.34 8.96c-2.27 8.71-2.63 10.65-2.74 11.37l4.18 1.08-.47.76c-1.84 0-3.67-.04-5.54-.04s-3.64.04-5.47.04l.36-.76 3.85-1.08zm42.76-2.26c-1.94 2.88-4.68 4.54-7.45 4.54-2.2 0-4.64-1.12-4.72-5.22-.07-4.75 3.96-11.45 9.54-11.45 2.27 0 3.46 1.48 3.49 3.42 0 .79-.29 1.73-.9 2.38-1.37 1.66-7.56 3.02-9.29 3.35-.14.68-.18 1.19-.18 1.87 0 2.02.79 3.82 3.06 3.82 2.45 0 5-2.34 6.16-3.85h.11l.18 1.15zm-9.14-4.18c1.58-.29 6.34-1.51 7.16-2.74.32-.47.5-1.08.5-1.84 0-1.44-.79-2.27-1.73-2.27-2.27 0-4.86 2.88-5.94 6.84zm24.91 16.05c.68-.4 1.76-.79 2.52-1.15.72-2.09 1.4-4.61 3.85-13.35h-.07c-3.67 5.29-6.84 7.16-8.93 7.16-1.12 0-2.41-1.15-2.41-3.74 0-6.23 5.83-12.92 11.16-12.92 1.01 0 1.98.65 2.48 1.3l.07-.04.29-.61c.83-.32 2.16-.65 3.13-.65l.07.32-1.48 1.87c-1.08 2.99-4.18 14.97-5.51 20.63l2.88.83-.25.83c-2.59.25-5.47.22-8.03.22l.22-.68zM63.49 81.9c0 1.19.47 1.8 1.01 1.8 1.66 0 4.32-2.45 6.55-5.58 1.55-2.16 1.73-2.41 3.17-6.77-.47-.68-1.33-1.08-2.2-1.08-4.75 0-8.53 7.27-8.53 11.63zM80.7 71.21l.25-.83c1.12-.47 3.74-1.33 5.47-1.55l.25.07c-1.3 3.64-3.49 11.09-3.92 12.81-.32 1.4-.14 1.8.36 1.8 1.8 0 5.04-3.35 7.88-7.85 1.4-2.2 1.94-3.67 2.74-6.3.72-.25 1.94-.47 2.92-.54l.22.36-1.44 1.91c-.9 2.99-2.2 7.52-3.24 12.17l.07.04c2.27-.65 3.67-2.88 4.14-3.64l.29.47c-.25 2.41-2.92 5.36-6.48 5.36-.25 0-.58-.07-.86-.11.5-2.02 1.37-4.9 2.59-8.93h-.07c-2.41 3.67-4.82 6.44-7.02 7.88-1.26.83-2.3 1.15-3.2 1.15-.97 0-2.05-.47-1.3-3.42.86-3.35 2.34-8.03 3.13-10.76l-2.77-.11zm19.95-.29l.32-.68c.97-.5 3.56-1.37 4.97-1.4l.07.11c-3.13 10.29-4.14 13.86-4.46 14.94l.11.04c1.4-.36 3.67-2.84 4.57-4.03l.11.36c-.18 1.76-2.23 5.26-5.47 5.26-1.01 0-1.8-1.08-1.04-3.89.29-.94 1.62-5.51 3.13-10.4l-2.3-.29zm5.76-9.54c.29.29.94 1.48.94 2.09l-.04.14c-.32.58-1.62 1.76-2.05 1.94h-.22c-.4-.32-.94-1.37-1.08-2.16l.04-.04c.83-1.12 1.76-1.8 2.2-1.98h.22zm14.5 19.66c-1.48 2.2-4.03 4.46-7.49 4.46-3.2 0-4.54-2.48-4.5-5.33 0-2.38.97-5.76 3.71-8.42 2.23-2.12 4.5-2.92 6.55-2.92 1.4 0 2.38.43 2.63.72-.07.65-.83 2.88-1.4 3.89l-.61.32c-.25-.58-.43-1.98-.76-3.71-.11-.04-.25-.07-.5-.07-1.22 0-2.77.76-4.14 2.38-2.05 2.38-2.77 5.29-2.81 7.56 0 2.09.86 3.74 2.92 3.74 2.59 0 5.08-2.48 6.12-3.78h.07l.22 1.15zm5.98-19.84l.32-.68c1.48-.54 4.03-1.12 5.11-1.12l.07.07c-1.04 3.38-4.57 15.77-7.2 25.38-1.01.14-1.69.29-2.59.4 2.38-7.99 4.64-15.84 6.66-23.58l-2.38-.47zm12.63 8.89c-2.77.54-3.31.68-3.92 1.12-.79.54-2.23 1.58-5 4.21l-.04.07c1.19 2.38 4.5 7.56 6.01 10.08l-.32.25c-1.73-.29-2.56-.54-4.03-2.59-1.51-2.16-3.96-6.37-4.18-6.95l.11-.14c1.87-1.69 3.13-2.81 5.54-5.11.76-.76.79-.83 1.37-2.16.68-.14 4.28.25 4.97.47l-.5.76zm12.43-9.53c1.48-.58 4.18-1.12 5.18-1.15l.07.04c-.4 1.48-1.91 6.41-4.61 15.84h.11c3.42-5.22 6.66-6.44 8.17-6.44 1.98 0 3.13 1.84 3.13 4.39 0 6.66-5.94 12.27-11.48 12.27-2.02 0-3.78-.97-4.43-1.44 2.41-9.04 5-18.39 5.98-22.43l-2.45-.4.32-.68zm9.43 12.63c-.04-1.94-.79-2.59-1.62-2.59-.94 0-2.56.79-4.82 3.56-2.27 2.66-3.67 6.08-4.03 8.82.14.79 1.04 1.3 1.8 1.3 5.72 0 8.75-7.06 8.67-11.09zm6.12-2.95c1.3-.61 3.64-1.4 4.57-1.4l.07.04c.04 1.19-.22 3.28-1.15 6.66h.14c2.95-5.51 5.36-6.69 7.06-6.69.58 0 1.01.14 1.3.4-.04.54-1.12 3.42-1.69 4.28l-.58.29c-.18-.76-.32-1.73-.5-2.81-.07-.04-.14-.04-.29-.04-.86 0-3.06 1.84-5.62 7.7-.72 1.62-1.19 3.17-2.12 6.37l-2.45.29c1.94-6.19 3.49-12.31 3.6-14.04l-2.63-.29.29-.76zm26.49 4.64c0 5.22-4.36 10.62-9.32 10.62-2.66 0-4.9-2.09-4.9-5.87-.04-5.47 4.28-10.8 9.36-10.8 3.06 0 4.86 2.77 4.86 6.05zm-11.63 5.4c0 3.02 1.12 4.07 2.52 4.07 3.38 0 6.48-5.79 6.48-10.15 0-2.63-.79-4.25-2.56-4.25-3.85 0-6.44 6.41-6.44 10.33zm14.73-9.14l.18-.65c1.15-.61 4.46-1.66 4.79-1.66l.07.07c-.07 4.28-.07 8.53-.18 12.99h.07c1.4-2.16 3.35-5.22 6.37-9.93-.07-1.33-.11-1.8-.14-2.3.68-.58 1.94-.83 2.56-.83l.18.18c-.07.58-.29 1.22-.29 2.23-.04 3.74.32 9.97.47 10.87h.11c2.38-2.81 3.85-5.18 4.64-6.91.76-1.62 1.33-3.46 1.15-5.9.58-.47 1.19-.72 1.87-.72l.11.04c.18.29.47 1.33.47 2.23-.07 3.71-6.55 10.87-8.82 13.79-.47.43-1.04.76-1.44.94l-.18-.07c-.11-.65-.4-7.23-.61-11.37h-.07c-2.77 4.32-5.26 8.14-6.88 10.51-.32.36-1.08.86-1.48.94l-.14-.07c-.07-1.01 0-6.59-.11-10.58-.07-2.02-.14-3.17-.18-3.31l-2.52-.47zm24.44 14.18c.76-2.27 3.67-12.92 3.82-14.15l-2.38-.25.22-.65c1.08-.58 4.18-1.48 5.18-1.44l.07.04c-.25.94-1.4 4.43-2.74 9.25h.11c2.56-4 5.58-7.45 9.11-8.85.61-.25 1.4-.43 2.16-.43.94 0 1.08.36.65 2.02-1.33 4.72-2.81 10.19-3.13 12.06l3.28-.58-.43 1.04c-1.84.58-4.9 1.91-5.9 2.34l-.22-.36c.22-.83 3.42-11.41 4.07-13.89.11-.43.04-.65-.4-.65-1.94 0-6.19 4.54-8.17 7.81-1.33 2.16-1.91 3.31-2.95 6.41l-2.34.29zm31.79-16.05c.43-2.09 1.55-5.72 3.89-7.88 1.66-1.58 3.28-2.02 4.5-2.02.94 0 1.84.25 2.34.72-.25.76-.94 2.38-1.48 3.1l-.54.25c-.29-.76-.54-1.84-.72-2.7a.66.66 0 0 0-.32-.07c-1.3 0-3.53.83-5.33 8.64h3.92l-.61 1.08-3.67.54c-.86 3.89-1.37 6.34-2.74 12.06-1.15 4.79-2.3 7.02-4.46 8.96-1.48 1.3-2.77 1.84-4.03 1.84-1.37 0-2.41-.79-2.74-1.48l1.3-1.8.22-.07c.83 1.19 1.91 1.48 2.81 1.48 1.04 0 2.45-.11 3.89-6.01.94-3.74 1.69-7.06 3.38-15.05l-2.81-.58.61-1.01h2.59zm19.65 5.61c0 5.22-4.36 10.62-9.32 10.62-2.66 0-4.9-2.09-4.9-5.87-.04-5.47 4.28-10.8 9.36-10.8 3.06 0 4.86 2.77 4.86 6.05zm-11.63 5.4c0 3.02 1.12 4.07 2.52 4.07 3.38 0 6.48-5.79 6.48-10.15 0-2.63-.79-4.25-2.56-4.25-3.85 0-6.44 6.41-6.44 10.33zm13.15.11c.65.94 1.48 2.02 2.16 2.77.76-.18 3.42-3.2 5.65-6.34-.86-3.28-1.48-5.33-1.8-5.76-.58.22-1.87 1.04-3.56 3.2l-.36-.79c.9-2.02 3.46-4.57 5.33-4.64.83.47 1.51 3.6 2.16 5.76h.07c1.08-1.48 1.76-2.3 2.63-3.31 1.44-1.66 2.27-2.34 3.06-2.66h.32c.72.54 1.26 2.52 1.22 4.14l-.61.58c-.36-.83-.83-1.87-1.48-2.45-.97.32-3.78 3.71-4.82 5.15.65 2.41 1.33 4.46 1.8 6.37.07.25.18.4.29.4.4 0 2.34-1.26 3.67-3.35l.22.97c-1.04 3.28-3.92 5.08-5.76 5.08-.47-1.58-.86-3.46-1.94-7.23h-.07c-1.55 2.12-3.17 4.36-4.18 5.51-1.26 1.48-2.05 2.02-2.34 2.05-.11 0-.25 0-.4-.04-.5-.65-1.4-2.56-1.69-4.75l.43-.65zm28.36-9.65l.43-.68c1.26-.58 3.96-1.22 5.18-1.22l.11.04c-1.33 5.58-2.84 11.16-3.71 14.25-.9 3.24-1.66 5.08-2.88 6.8-1.58 2.2-3.64 3.49-4.5 3.89l-.79-.65c1.37-.94 3.89-2.84 5.4-8.6 1.48-5.65 1.73-6.55 3.46-13.46l-2.7-.36zm5.94-9.36c.29.29.9 1.48.94 2.09l-.04.14c-.32.58-1.62 1.76-2.05 1.94h-.22c-.4-.32-.94-1.37-1.04-2.16v-.04c.83-1.12 1.8-1.8 2.2-1.98h.22zm3.57 9.83l.25-.83c1.12-.47 3.74-1.33 5.47-1.55l.25.07c-1.3 3.64-3.49 11.09-3.92 12.81-.32 1.4-.14 1.8.36 1.8 1.8 0 5.04-3.35 7.88-7.85 1.4-2.2 1.94-3.67 2.74-6.3.72-.25 1.94-.47 2.92-.54l.22.36-1.44 1.91c-.9 2.99-2.2 7.52-3.24 12.17l.07.04c2.27-.65 3.67-2.88 4.14-3.64l.29.47c-.25 2.41-2.92 5.36-6.48 5.36-.25 0-.58-.07-.86-.11.5-2.02 1.37-4.9 2.59-8.93h-.07c-2.41 3.67-4.82 6.44-7.02 7.88-1.26.83-2.3 1.15-3.2 1.15-.97 0-2.05-.47-1.3-3.42.86-3.35 2.34-8.03 3.13-10.76l-2.77-.11zm18.28 14.11c.79-2.3 3.6-12.74 3.78-14.11l-2.45-.25.29-.68c1.26-.58 4.07-1.48 5.22-1.44l.04.11c-.43 1.58-1.33 4.39-2.74 9.11h.11c2.48-3.96 5.58-7.38 9.07-8.78.68-.29 1.4-.43 2.16-.43.9 0 1.08.5.76 2.02-.61 2.56-1.33 4.79-2.05 7.06h.07c2.45-3.85 5.47-7.16 8.96-8.64.65-.29 1.4-.43 2.27-.43s1.04.36.61 2.02c-1.33 4.72-2.77 10.26-3.1 12.06l3.24-.58-.4 1.04c-1.94.61-4.82 1.91-5.94 2.34l-.22-.36c.18-.83 3.35-11.45 4-13.93.14-.43 0-.61-.32-.61-1.98 0-6.08 4.36-8.1 7.7-1.37 2.27-1.91 3.46-2.95 6.52l-2.45.29c.68-2.05 3.35-10.8 4-13.89.07-.4 0-.61-.32-.61-2.27 0-6.19 4.25-8.31 7.85-1.3 2.12-1.84 3.31-2.84 6.37l-2.38.29zm30.5-14.4l.25-.65c.97-.61 3.92-1.62 5.15-1.66l.04.07-2.3 7.77h.11c4.21-6.37 7.49-7.63 9.11-7.63s2.63 1.51 2.63 3.89c0 7.16-5.98 12.78-11.01 12.78-.86 0-2.12-.36-2.84-.9-.29.97-.76 2.63-1.76 6.95l3.1.72-.43.86c-1.19.07-5.47.43-7.99.43l.36-.86 2.27-.97c.36-.97 1.33-4 2.56-8.6 1.44-5.26 2.59-9.47 3.17-11.99l-2.38-.22zm12.38 1.84c-.04-1.55-.58-2.12-1.37-2.12-1.01 0-3.06 1.19-5.47 4.75-2.05 2.63-3.17 5.08-3.89 7.56.43.65 1.22 1.3 1.94 1.3 5.36 0 8.86-6.77 8.78-11.48zm15.66-2.92c-.22.9-1.12 2.92-1.58 3.53l-.58.14c-.11-.68-.22-1.69-.36-3.31-.18-.11-.43-.22-1.12-.22-1.98 0-3.35 1.3-3.35 2.88 0 1.26.79 2.02 2.52 3.31 2.38 1.8 3.02 3.02 2.99 4.5 0 2.59-2.34 4.82-6.05 4.82-2.16 0-4.25-1.22-4.72-1.84.32-.79.86-2.02 1.98-3.6l.47-.11c.18.94.36 2.66.4 3.96.5.22 1.08.36 1.84.36 2.41 0 3.71-1.37 3.71-2.95 0-1.12-.68-1.94-2.2-3.06-2.52-1.94-3.1-3.24-3.1-4.68.04-3.13 2.92-4.75 5.76-4.75 1.33 0 2.74.4 3.38 1.01zm24.8 5.04c0 5.22-4.36 10.62-9.32 10.62-2.66 0-4.9-2.09-4.9-5.87-.04-5.47 4.28-10.8 9.36-10.8 3.06 0 4.86 2.77 4.86 6.05zm-11.63 5.4c0 3.02 1.12 4.07 2.52 4.07 3.38 0 6.48-5.79 6.48-10.15 0-2.63-.79-4.25-2.56-4.25-3.85 0-6.44 6.41-6.44 10.33zm14.59-9l.18-.79c1.04-.65 4.03-1.66 4.75-1.66l.07.07c.04 4.39.14 8.85.36 13.28h.11c2.3-2.48 4.5-5.4 5.44-7.34.76-1.51 1.12-2.99.9-5.51.07-.18 1.15-.76 1.87-.76l.11.04c.25.47.54 1.48.54 2.27.04 3.78-6.19 9.65-9.4 13.68-.47.5-1.12.9-1.51 1.01l-.18-.04c-.11-1.04-.25-6.8-.47-10.76-.07-2.09-.22-3.1-.25-3.42l-2.52-.07zm27.86 9.69c-1.94 2.88-4.68 4.54-7.45 4.54-2.2 0-4.64-1.12-4.72-5.22-.07-4.75 3.96-11.45 9.54-11.45 2.27 0 3.46 1.48 3.49 3.42 0 .79-.29 1.73-.9 2.38-1.37 1.66-7.56 3.02-9.29 3.35-.14.68-.18 1.19-.18 1.87 0 2.02.79 3.82 3.06 3.82 2.45 0 5-2.34 6.16-3.85h.11l.18 1.15zm-9.14-4.18c1.58-.29 6.33-1.51 7.16-2.74.32-.47.5-1.08.5-1.84 0-1.44-.79-2.27-1.73-2.27-2.27 0-4.86 2.88-5.94 6.84zm13.06-6.55c1.3-.61 3.64-1.4 4.57-1.4l.07.04c.04 1.19-.22 3.28-1.15 6.66h.14c2.95-5.51 5.36-6.69 7.06-6.69.58 0 1.01.14 1.29.4-.04.54-1.12 3.42-1.69 4.28l-.58.29c-.18-.76-.32-1.73-.5-2.81-.07-.04-.14-.04-.29-.04-.86 0-3.06 1.84-5.62 7.7-.72 1.62-1.19 3.17-2.12 6.37l-2.45.29c1.94-6.19 3.49-12.31 3.6-14.04l-2.63-.29.29-.76zm28.77-6.44l.22.18-1.58 5.29h4.79l-.76 1.08-4.46.47c-.76 2.59-2.63 9.25-3.49 12.89l.07.07c2.12-.22 4.54-1.98 6.3-4.21l.18.61c-1.91 4.9-5.69 5.33-6.84 5.33-1.04 0-2.38-.4-1.76-2.99.4-1.62 2.38-8.78 3.2-11.7l-2.88-.47.68-1.08h2.63l1.08-3.6 2.63-1.87zm2.84 21.52c.76-2.88 1.76-6.59 3.35-12.6 1.55-6.01 2.38-9.14 2.77-11.09l-2.63-.47.32-.65c1.48-.58 4.43-1.12 5.29-1.12l.07.04c-.36 1.4-1.8 6.23-5.11 18.61h.11c2.56-3.89 5.8-7.34 9.07-8.78.68-.25 1.58-.43 2.23-.43.9 0 1.22.18.76 1.8-1.44 4.97-2.84 10.4-3.13 12.24l3.24-.5-.43 1.01c-1.91.61-4.79 1.91-5.87 2.38l-.25-.22c.22-1.01 3.38-11.59 4-14.07.14-.47.04-.68-.29-.68-2.12 0-6.44 4.68-8.42 8.14-1.26 2.09-1.87 3.49-2.74 6.12l-2.34.29zm31.43-4.35c-1.94 2.88-4.68 4.54-7.45 4.54-2.2 0-4.64-1.12-4.71-5.22-.07-4.75 3.96-11.45 9.54-11.45 2.27 0 3.46 1.48 3.49 3.42 0 .79-.29 1.73-.9 2.38-1.37 1.66-7.56 3.02-9.29 3.35-.14.68-.18 1.19-.18 1.87 0 2.02.79 3.82 3.06 3.82 2.45 0 5-2.34 6.16-3.85h.11l.18 1.15zm-9.14-4.18c1.58-.29 6.33-1.51 7.16-2.74.32-.47.5-1.08.5-1.84 0-1.44-.79-2.27-1.73-2.27-2.27 0-4.86 2.88-5.94 6.84zm24.11-15.59l.32-.68c1.44-.58 4.03-1.15 5.11-1.15l.07.07c-.65 2.2-1.76 5.72-3.67 12.45-1.94 6.73-3.06 10.87-3.35 11.99l.07.04c1.44-.4 3.67-3.13 4.79-4.39l.22.25c-.25 2.09-2.52 5.72-5.83 5.72-.79 0-1.73-1.08-.97-4.07.36-1.26 3.53-12.53 5.58-19.76l-2.34-.47zm22.75 7.49l.11.29-1.37 1.66c-1.48 4.82-2.95 10.62-3.35 12.78l.07.04c2.23-.65 3.56-2.48 4.28-3.46l.22.4c-.22 2.27-2.92 5.11-6.26 5.11-.36 0-.76-.07-1.08-.14.4-1.76 1.4-5.22 1.94-7.2h-.14c-2.77 4.1-6.41 7.34-8.86 7.34-1.58 0-2.34-1.33-2.34-3.46 0-2.77 1.83-7.63 6.12-10.87 2.02-1.51 3.89-1.94 5.08-1.94 1.08 0 1.76.4 2.3.79l.29-.9 2.99-.43zm-6.19 8.42c1.19-1.84 1.62-2.88 2.52-5.94-.4-.36-.97-.58-1.73-.58-1.19 0-2.81.36-4.68 2.41-2.88 3.06-4.14 6.8-4.14 9.03 0 1.12.47 1.51.86 1.51 1.62 0 4.39-2.27 7.16-6.44zm22.03 4.25c-2.66 4-3.96 4.61-4.5 4.82-.76-.07-1.87-.61-3.31-1.22-1.12-.54-1.8-.79-2.41-1.04-.97-.36-1.73-.25-2.16.11-.43.32-.76.72-1.22 1.58h-.25c-.32-.29-.4-.97-.11-1.69.29-.79 1.22-1.66 1.73-1.91 3.42-3.53 8.89-9.47 9.79-10.55v-.11c-1.4.25-2.66.22-3.96.07-1.04-.07-1.44-.11-2.09-.22-.86.47-3.13 3.02-3.64 3.74l-.47-.83c.97-1.84 3.13-4.86 3.82-5.4.54.22 3.06 1.01 6.26 1.01 1.15 0 1.98-.22 3.17-1.4l.5.79c-.36.9-6.3 7.38-11.38 12.81v.07c.72.04 1.66.29 2.99.79 1.01.36 1.98.76 2.84.97.97-.5 2.3-1.58 4-3.42l.4 1.01zm2.42-7.13c1.33-4.72 3.38-5.44 4.1-5.47.83.07 1.87.86 2.52 3.67.68 2.95.83 6.23.72 10.44h.11c2.02-3.13 4.36-8.96 4.54-11.59l-1.12-1.58.22-.32c.76-.32 2.02-.61 2.84-.61.25 0 .47.11.47.4-.4 2.38-.97 4-2.2 6.95-1.98 4.93-4.5 8.85-6.59 11.63-3.24 4.25-6.37 6.01-6.95 6.01-.32 0-1.44-.68-1.94-2.95l.14-.32c.86.11 1.84.4 3.31.83.4-.14 2.3-1.55 3.64-3.46.97-1.4 1.55-2.95 1.51-5.72-.04-3.71-.43-7.52-1.26-9.79-.36-.94-.54-1.3-.79-1.3-.29 0-1.55 1.66-2.45 4l-.83-.79zm37.79-13.71c1.37-.58 4.28-1.12 5.15-1.12l.07.04c-.47 1.58-5.15 16.88-6.62 23.72l.07.04c2.27-.68 3.74-3.02 4.21-3.56l.29.36c-.4 2.88-3.53 5.51-6.41 5.51-.36 0-.72-.04-1.01-.14.43-1.76 1.48-5.36 2.09-7.49h-.07c-3.02 4.54-6.51 7.63-9.14 7.63-1.33 0-2.59-1.15-2.59-3.82 0-6.19 5.83-12.85 10.94-12.85 1.04 0 2.05.36 2.88.97.86-2.92 1.84-6.37 2.27-8.17l-2.48-.47.36-.65zm-11.34 21.13c0 1.33.5 1.94 1.19 1.94 1.3 0 4-1.8 6.77-6.05 1.4-2.2 1.87-3.02 2.92-6.52-.68-.47-1.55-.76-2.38-.76-4.39 0-8.49 6.73-8.49 11.37zm31.36-6.77c0 5.22-4.36 10.62-9.32 10.62-2.66 0-4.9-2.09-4.9-5.87-.04-5.47 4.28-10.8 9.36-10.8 3.06 0 4.86 2.77 4.86 6.05zm-11.63 5.4c0 3.02 1.12 4.07 2.52 4.07 3.38 0 6.48-5.79 6.48-10.15 0-2.63-.79-4.25-2.56-4.25-3.85 0-6.44 6.41-6.44 10.33zm28.44-9.5l-2.92.14-.04.07c.25.36.68 1.26.68 2.48 0 3.89-3.1 7.7-7.24 7.7-.43 0-.79-.11-1.08-.22-.22.29-.5.76-.5 1.22s.18.9 1.04 1.37c.72.36 2.95 1.4 4.93 2.45 1.83.94 2.52 1.94 2.52 2.88.04 3.2-4.9 5.11-7.49 5.11-6.16 0-7.7-3.46-7.7-4.64 0-.54.18-.83.65-1.19.86-.68 2.99-2.09 5.11-3.13l.04-.04c-.43-.43-1.08-1.26-1.08-2.09 0-.68 1.12-1.76 1.66-2.3-1.48-.86-2.05-2.34-2.05-3.92 0-4.03 3.42-7.88 7.45-7.85.58 0 1.15.11 1.91.22.97.22 1.98.43 2.63.47l2.59-1.4.29.32-1.4 2.34zm-4.82 19.15c0-.65-.32-1.08-1.37-1.73-1.15-.72-3.67-2.09-4.93-2.66-3.46 1.94-4.21 2.81-4.21 3.56 0 1.37 2.23 3.46 5.83 3.46 3.02 0 4.68-1.3 4.68-2.63zm-6.37-12.63c0 1.84.83 2.74 1.94 2.74 2.63 0 4.79-4.1 4.79-7.31 0-1.76-.79-2.77-1.94-2.77-2.59 0-4.79 4.14-4.79 7.34zM9.57 121.94l-6.59-.22c-.4.86-1.66 3.06-2.05 3.64l-.58.18c-.14-1.22-.14-4.28-.07-5.62l.11-.11c.43.04 1.91.36 2.52.54h16.95c.72 0 1.87-.14 2.41-.43l-.04-.83 3.02-.61.22.14c-.07 3.42-.11 7.42-.11 11.27l.07.04c2.3-1.76 3.74-2.16 5.04-2.16 3.67 0 5.36 3.02 5.36 5.47v8.17c0 .65.18.79.68 1.01l1.94.94-.32.79c-1.51.04-3.71-.04-5.69-.29.18-1.51.36-3.96.36-9.25 0-4.1-2.16-4.75-3.92-4.75-1.33 0-2.48.47-3.53 1.33 0 3.53.04 10.4.11 11.05l2.59 1.04-.29.79c-1.33 0-2.59-.04-3.96-.04-1.26 0-2.52.04-3.78.04l.25-.79 1.94-1.04c.07-.58.11-3.67.11-8.39 0-3.82 0-7.16-.07-11.59-.65-.29-1.66-.58-2.45-.54l-7.09.22v8.93c0 9.25.22 10.19.22 11.23l3.74 1.15-.29.83c-1.51 0-3.35-.04-5.22-.04s-3.74.04-5.33.04l.29-.83 3.31-1.15c.07-1.19.11-2.02.11-10.08v-10.08zm34.2 13.71c-.04.18-.04.32-.04.54-.04 4.03 2.52 6.44 5.72 6.44.5 0 .9-.07 1.22-.22 1.15-.79 2.23-1.55 3.02-1.94l.18.58c-.22.83-1.58 2.27-2.05 2.59-.72.32-2.52.86-3.78.86-4.43 0-7.63-3.1-7.63-8.06s3.74-8.67 7.81-8.67c3.28 0 6.08 2.2 6.08 6.23 0 .43-.11 1.01-.36 1.15-.36.18-1.69.5-3.38.5h-6.8zm7.16-1.37c.11-.25.18-.65.18-1.08 0-2.16-1.08-4.18-3.17-4.18-2.99 0-4.14 3.71-4.18 5.26h7.16zm29.12 4.94c0 4.03.04 9.14.04 11.05l3.1 1.04-.25.86c-1.51 0-2.99-.04-4.5-.04s-2.88.04-4.36.04l.18-.83 2.59-1.04c.07-2.66.11-5.4.18-7.31l-.07-.04c-1.4.83-2.92 1.55-4 1.55-4.21 0-7.7-3.17-7.7-8.06 0-4.64 4-8.67 8.68-8.67 1.19 0 2.38.54 3.53 1.37.76-.58 2.63-1.3 3.64-1.37l.14.22c-.18.97-.79 2.12-1.19 2.74v8.5zm-3.02-8.85c-.47-.4-1.4-.86-2.66-.86-3.24 0-5.76 2.92-5.76 6.55 0 3.89 2.59 6.41 5.58 6.41 1.04 0 2.09-.32 2.84-.83v-11.27zm7.02-1.05l.32-.76c.9-.25 3.49-.58 4.93-.54-.18 1.62-.29 4.46-.29 10.55 0 1.4.32 2.16.68 2.63.5.58 1.37 1.04 2.59 1.04 1.48 0 3.17-.83 3.92-2.09v-9.43c-.25-.61-.76-.83-2.45-1.44l.32-.76c1.26-.32 3.92-.54 5.26-.5-.11 1.66-.11 4-.11 13.28.72 1.22 1.87 1.8 2.84 2.05l-.25.61c-.36.22-1.15.47-2.05.47-1.26 0-3.02-.47-3.46-2.7h-.07c-1.37 1.48-3.02 2.77-5.22 2.77-1.26 0-2.7-.4-3.64-1.33-.97-.94-1.4-2.38-1.4-4.46 0-2.41.07-5.98.07-8.5l-2.02-.9zm20.2-.5c.58-.18 2.74-.83 4.79-1.04v7.27c0 4.03.04 6.12.07 7.13l2.56 1.08-.25.83c-1.26 0-2.63-.04-4.03-.04-1.15 0-2.34.04-3.74.04l.25-.83 2.05-1.08c.04-1.22.07-4.32.07-7.2v-4.54l-1.94-.94.18-.68zm3.38-8.5c.5.18 1.48 1.26 1.8 2.02l-.07.29c-.29.68-1.4 1.76-1.91 2.05l-.25.07c-.65-.36-1.48-1.37-1.8-2.05l.07-.25c.5-.86 1.37-1.73 1.94-2.09l.22-.04zm15.19 7.45c2.09 0 4.03.79 4.57 1.37-.22.94-.68 2.66-1.3 3.78l-.54.25c-.32-.72-.79-2.12-1.19-3.85-.22-.11-.65-.25-1.37-.25-4 0-6.08 3.31-6.08 6.84 0 4 2.52 6.84 6.41 6.84.29 0 .76-.18 1.01-.29 1.26-1.04 2.38-1.76 2.99-2.05l.25.47c-.32 1.01-1.66 2.63-2.3 3.06-.54.22-2.23.58-3.38.58-3.38 0-8.31-2.02-8.31-8.17s5-8.57 9.25-8.57zm14.51 15.48l-.22.83c-1.37 0-2.74-.04-4.14-.04-1.26 0-2.52.04-3.78.04l.22-.79 2.05-1.08c.07-.76.11-2.95.11-8.21 0-4.57 0-8.89-.11-12.74l-2.02-.94.32-.72c.94-.29 3.6-.94 4.93-1.12-.11 3.82-.11 8.13-.11 12.45 0 3.56.04 10.44.07 11.27l2.66 1.04zm8.78 1.4c-1.98-.14-3.6-.54-4.93-1.8-1.62-1.51-4.14-4.64-5.9-7.09l-.04-.18c1.55-1.73 3.64-4.14 4.97-5.94l.68-1.87c1.55 0 4.03.25 4.82.47l-.47.83c-.54.29-2.84 1.04-3.74 1.4-1.22 1.19-1.8 1.76-3.46 3.67v.11c2.09 2.84 6.44 8.03 8.24 10.15l-.18.25zm11.49-14.32c0-3.31-.04-6.37-.14-9.07l-2.09-.9.32-.72c.94-.4 2.84-.86 5-1.15-.07 3.85-.11 7.56-.11 10.98 1.01-.54 3.06-1.69 4.21-1.69 3.6 0 7.63 2.66 7.63 7.85 0 6.44-5.36 8.89-8.75 8.89-.9 0-2.41-.61-3.53-1.15-.83.54-1.98.97-2.56 1.12v-14.15zm2.99 11.95c.5.18 1.58.54 2.52.54 3.67 0 6.01-2.92 6.01-6.73 0-3.42-2.16-6.3-5.65-6.3-.94 0-1.94.29-2.88.79v11.7zM175.63 129c.54-.25 3.06-1.15 4.18-1.22.22.83.36 2.41.36 3.53h.07c1.48-2.56 3.56-3.53 5-3.53.72 0 1.37.22 1.76.61-.11 1.01-.76 3.02-1.19 3.92l-.47.25c-.32-.47-.76-1.22-1.3-2.41-.11-.04-.29-.11-.54-.11-1.08 0-2.56 1.37-3.28 3.1v9.11l3.67 1.04-.22.79c-1.37 0-3.17-.04-5.08-.04-1.19 0-2.7.04-3.78.04l.18-.79 2.05-1.08c.14-3.78.14-9.68.14-11.45l-1.87-1.04.29-.72zm29.27 6.98c0 5.15-3.53 8.53-8.1 8.53-4 0-8.13-2.84-8.13-8.13s4.5-8.6 8.21-8.6c4.43 0 8.03 3.38 8.03 8.21zm-12.71.07c0 3.38 1.66 7.2 4.9 7.2s4.28-3.85 4.28-6.91c0-3.38-1.51-7.31-4.61-7.31s-4.57 3.53-4.57 7.02zm21.03-6.95l-1.37.94c.47 1.69 1.51 4.79 3.24 9.94h.11c1.19-3.1 2.27-5.69 3.24-8.35l-.29-2.16c.29-.29 1.84-1.08 2.59-1.26l.25.18.22 2.66c.9 2.59 2.12 5.65 3.49 9.14h.07c1.19-3.67 2.02-6.3 3.1-10.11l-1.87-.97.29-.9c.9 0 1.87.04 2.81.04s1.91-.04 2.84-.04l-.18.9c-1.04.4-1.62.76-2.16 1.33-.54 1.22-2.41 6.44-4.5 12.6-.4.54-1.01 1.26-1.48 1.66h-.29c-1.3-3.31-2.74-7.06-4.21-10.69h-.07c-1.33 3.2-2.05 4.86-3.71 9-.36.54-1.01 1.3-1.4 1.69h-.29c-1.3-3.71-3.92-11.34-5.08-14.25-.5-.61-1.04-.9-2.27-1.33l.32-.9c1.22 0 2.38.04 3.53.04 1.08 0 2.2-.04 3.28-.04l-.22.9zm22.32 1.59l-1.91-.83.25-.72c.61-.36 3.56-1.33 4.68-1.37l-.18 2.84.07.04c2.74-2.27 4.21-2.88 5.65-2.88 3.74 0 4.86 3.06 4.86 5.76v8.14c0 .4.18.58.5.68l2.12.9-.25.83c-.97 0-2.63-.04-4.03-.04-1.01 0-2.09.04-3.2.04l.25-.9 1.44-1.04c.07-1.08.14-3.64.14-8.31 0-2.74-1.55-3.89-3.38-3.89-1.51 0-3.13 1.08-4 1.98 0 2.74 0 9.61.07 10.37l2.02.94-.22.86c-.94 0-2.3-.04-3.46-.04-1.26 0-2.63.04-3.78.04l.25-.83 1.98-1.01c.07-.58.11-3.85.11-8.39v-3.17zm26.06 12.63l2.34-1.12c.04-.47.11-3.02.11-7.27v-5l-2.41-.5.58-1.19h1.83c0-2.92.65-5.58 2.48-7.52 1.44-1.55 3.1-2.23 4.9-2.23 1.22 0 2.12.36 2.59.79-.4 1.33-.79 2.52-1.22 3.24l-.5.25c-.36-.5-.86-1.44-1.4-2.88-.14-.04-.29-.04-.43-.04-1.76 0-2.99 1.91-3.17 5.44-.07 1.12-.11 2.16-.11 2.95h4.61l-.61 1.22-4 .43c-.04.72-.11 2.41-.11 4.75 0 5.51.04 7.02.11 7.52l3.38 1.08-.25.83c-1.55 0-3.24-.04-4.97-.04-1.3 0-2.59.04-3.92.04l.18-.76zm27.14-7.34c0 5.15-3.53 8.53-8.1 8.53-4 0-8.13-2.84-8.13-8.13s4.5-8.6 8.21-8.6c4.43 0 8.03 3.38 8.03 8.21zm-12.71.07c0 3.38 1.66 7.2 4.9 7.2s4.28-3.85 4.28-6.91c0-3.38-1.51-7.31-4.61-7.31s-4.57 3.53-4.57 7.02zm22.69-2.38h.07c.79-1.37 1.4-2.27 1.98-3.42.29-.79.29-1.33.25-2.05.72.04 1.37.07 2.02.07 1.12 0 2.23-.04 3.35-.07l-.25.86c-2.16.72-2.88 1.08-3.67 1.69-.83 1.04-1.58 1.94-3.06 4.14 1.08 2.02 3.13 5.36 3.78 6.3.4.61.83.97 1.33 1.12l2.56.86-.29.86c-1.01 0-3.74.18-5.62.18-.94-1.84-1.55-3.02-3.56-6.55h-.07c-1.58 2.56-2.02 3.28-2.59 4.46.04.32.25.61.9 1.19l-.22.76c-.76 0-1.8-.04-2.7-.04-1.15 0-2.27.04-3.17.04l.18-.83 2.02-.9a3.34 3.34 0 0 0 1.48-1.15c.94-1.3 1.66-2.16 3.42-4.86-2.27-3.96-3.02-5.29-3.53-5.98-.43-.36-1.19-.72-3.13-1.3l.32-.86c1.01.04 2.12.07 3.17.07.94 0 1.73-.04 2.77-.07l-.14 1.37 2.41 4.1zm18.28-4.85c.94-.36 3.74-.97 4.89-1.04v13.03c0 1.76-.29 4.03-1.37 6.05-1.73 3.31-3.28 4.79-4.79 5.9l-.94-.54-.04-.32c3.74-2.81 4.1-6.84 4.1-11.12 0-2.92 0-8.31-.11-10.4-.61-.29-1.33-.58-2.02-.86l.25-.68zm3.42-8.5c.47.14 1.44 1.26 1.8 2.02l-.11.29c-.29.65-1.4 1.73-1.91 2.02l-.29.11c-.61-.4-1.44-1.37-1.8-2.05l.11-.29c.54-.83 1.37-1.69 1.94-2.05l.25-.04zm5.29 9l.32-.76c.9-.25 3.49-.58 4.93-.54-.18 1.62-.29 4.46-.29 10.55 0 1.4.32 2.16.68 2.63.5.58 1.37 1.04 2.59 1.04 1.48 0 3.17-.83 3.92-2.09v-9.43c-.25-.61-.76-.83-2.45-1.44l.32-.76c1.26-.32 3.92-.54 5.25-.5-.11 1.66-.11 4-.11 13.28.72 1.22 1.87 1.8 2.84 2.05l-.25.61c-.36.22-1.15.47-2.05.47-1.26 0-3.02-.47-3.46-2.7h-.07c-1.37 1.48-3.02 2.77-5.22 2.77-1.26 0-2.7-.4-3.64-1.33-.97-.94-1.4-2.38-1.4-4.46 0-2.41.07-5.98.07-8.5l-2.02-.9zm22 1.3l-1.91-.76.25-.72c.76-.4 3.56-1.33 4.72-1.37l-.22 2.92.07.04c2.27-1.87 4-2.95 5.62-2.95 1.94 0 3.6 1.15 4.28 2.99 2.52-2.12 4.21-2.99 5.94-2.99 2.99 0 4.86 2.3 4.86 5.44v8.53c0 .32.29.5.68.72l1.94.83-.22.79c-1.22 0-2.56-.04-3.89-.04-1.12 0-2.27.04-3.49.04l.22-.83 1.58-1.08c.07-1.3.18-3.74.14-7.78 0-2.05-.5-4.43-3.35-4.43-1.3 0-2.66.65-4.1 2.02.07.65.22 1.73.22 2.95l-.04 7.27 2.12 1.04-.25.83c-.97 0-2.2-.04-3.35-.04s-2.38.04-3.53.04l.22-.86 1.69-1.01c.04-2.16.07-4.97.07-8.13 0-1.84-.5-4.1-3.42-4.1-1.19 0-2.66.94-3.82 1.98 0 4.21-.04 9.14.04 10.26l2.16 1.01-.22.86c-.9 0-2.23-.04-3.64-.04-1.19 0-2.52.04-3.67.04l.22-.86 1.98-1.01c.04-.72.07-3.85.07-7.27v-4.32zm32.54-.58l.07.04c2.27-1.55 3.82-2.3 4.9-2.3 2.99 0 6.95 2.52 6.95 7.67 0 6.41-5.36 9.07-8.75 9.07-.65 0-2.12-.58-2.95-1.12l-.07.07c0 2.59.07 5.04.14 6.8l3.35 1.08-.32.83c-1.62 0-3.1-.04-4.71-.04-1.22 0-2.52.04-3.78.04l.29-.9 1.84-.9c.04-1.22.18-4.64.18-9.9v-10.01l-2.02-1.08.32-.72c.54-.25 3.42-.9 4.72-.94l-.14 2.3zm.14 11.99c.65.4 1.66.76 2.7.76 3.02 0 5.79-2.59 5.79-6.73 0-3.28-1.98-6.15-5.15-6.15-.9 0-2.05.4-3.35 1.33v10.8zm23.23-13.39c.58-.36 1.26-.72 1.87-.94l.29.29c-.04.61-.5 3.49-.9 4.32l-.47.25c-.43-.76-.9-1.91-1.26-2.81-.22-.14-.86-.58-2.12-.58-1.8 0-2.74 1.19-2.74 2.48 0 .83.32 1.4 1.3 1.94 1.12.61 3.1 1.44 4.32 2.05 1.98.97 2.7 2.3 2.7 3.82 0 3.92-4.07 5.04-6.33 5.04-1.87 0-3.92-.68-5.22-1.55.04-.68.65-3.42.86-3.92l.5-.29c.5.94 1.3 3.13 1.69 4.1.54.18 1.33.36 2.2.36 1.87 0 3.35-1.15 3.35-2.63 0-.97-.36-1.62-1.44-2.16-.97-.54-2.16-1.08-3.49-1.69-1.98-.9-3.17-2.27-3.17-4.28 0-2.27 1.76-4.68 5.33-4.68.86 0 1.87.29 2.74.86zm30.16 7.34c0 5.15-3.53 8.53-8.1 8.53-4 0-8.13-2.84-8.13-8.13s4.5-8.6 8.21-8.6c4.43 0 8.03 3.38 8.03 8.21zm-12.71.07c0 3.38 1.66 7.2 4.9 7.2s4.28-3.85 4.28-6.91c0-3.38-1.51-7.31-4.61-7.31s-4.57 3.53-4.57 7.02zm14.16-7.85c1.01.04 2.05.04 3.38.04 1.12 0 2.16 0 3.24-.04l-.29.9-1.08.94c.68 2.09 2.05 5.51 3.89 10.08l.07.04c.68-1.76 1.51-3.82 3.67-9.97l-1.55-1.12.29-.86c.61 0 1.66.04 2.45.04 1.01 0 2.12 0 2.99-.04l-.29.9c-1.08.47-1.58.83-2.23 1.62-.58 1.08-3.74 8.78-5.08 12.09-.32.65-.94 1.48-1.37 1.87h-.29c-.32-.68-3.2-8.03-5.69-14.04-.65-.86-1.3-1.19-2.45-1.62l.32-.83zm21.31 7.45c-.04.18-.04.32-.04.54-.04 4.03 2.52 6.44 5.72 6.44.5 0 .9-.07 1.22-.22 1.15-.79 2.23-1.55 3.02-1.94l.18.58c-.22.83-1.58 2.27-2.05 2.59-.72.32-2.52.86-3.78.86-4.43 0-7.63-3.1-7.63-8.06s3.74-8.67 7.81-8.67c3.28 0 6.08 2.2 6.08 6.23 0 .43-.11 1.01-.36 1.15-.36.18-1.69.5-3.38.5h-6.8zm7.16-1.37c.11-.25.18-.65.18-1.08 0-2.16-1.08-4.18-3.17-4.18-2.99 0-4.14 3.71-4.17 5.26h7.16zm6.37-5.28c.54-.25 3.06-1.15 4.17-1.22.22.83.36 2.41.36 3.53h.07c1.48-2.56 3.56-3.53 5-3.53.72 0 1.37.22 1.76.61-.11 1.01-.76 3.02-1.19 3.92l-.47.25c-.32-.47-.76-1.22-1.3-2.41-.11-.04-.29-.11-.54-.11-1.08 0-2.56 1.37-3.28 3.1v9.11l3.67 1.04-.22.79c-1.37 0-3.17-.04-5.08-.04-1.19 0-2.7.04-3.78.04l.18-.79 2.05-1.08c.14-3.78.14-9.68.14-11.45l-1.87-1.04.29-.72zm32-.76l-.68 1.3-4.86.43c0 1.73-.04 5.8-.04 10.11 0 .94.36 1.44.61 1.69.36.32.94.54 1.8.54 1.33 0 2.34-.43 2.88-.83l.18.04-.04 1.12c-.9 1.12-2.34 1.87-4.18 1.87-1.4 0-2.66-.58-3.46-1.51-.61-.79-.83-1.55-.83-3.85v-9.18l-2.41-.47.61-1.26h1.84c.18-1.01.58-2.92.97-4.14.5-.58 1.69-1.08 2.2-1.08l-.14 5.22h5.54zm16.78 13.17c0 .65.14.79.68 1.01l1.94.94-.29.79c-1.48.04-3.71-.04-5.72-.29.18-1.51.36-3.85.36-9.14 0-4.14-2.16-4.86-3.89-4.86-1.33 0-2.48.47-3.53 1.3 0 3.56 0 10.4.07 11.05l2.63 1.08-.29.79c-1.37 0-2.63-.04-4-.04-1.22 0-2.48.04-3.74.04l.25-.79 1.94-1.08c.07-.5.11-3.64.11-8.35s0-8.68-.14-12.56l-2.05-.97.22-.68c1.04-.36 2.81-.72 5.11-1.15-.07 3.46-.11 7.52-.11 11.41l.04.04c2.3-1.8 3.74-2.16 5.04-2.16 3.67 0 5.36 3.02 5.36 5.47v8.17zm7.85-5.76c-.04.18-.04.32-.04.54-.04 4.03 2.52 6.44 5.72 6.44.5 0 .9-.07 1.22-.22 1.15-.79 2.23-1.55 3.02-1.94l.18.58c-.22.83-1.58 2.27-2.05 2.59-.72.32-2.52.86-3.78.86-4.43 0-7.63-3.1-7.63-8.06s3.74-8.67 7.81-8.67c3.28 0 6.08 2.2 6.08 6.23 0 .43-.11 1.01-.36 1.15-.36.18-1.69.5-3.38.5h-6.8zm7.16-1.37c.11-.25.18-.65.18-1.08 0-2.16-1.08-4.18-3.17-4.18-2.99 0-4.14 3.71-4.17 5.26h7.16zm21.82 8.93l-.32.86c-1.37 0-2.56-.04-3.82-.04-1.37 0-2.74.04-4.07.04l.22-.79 2.23-1.04c.04-1.48.11-3.71.11-12.49 0-3.24 0-6.8-.14-8.6l-2.05-.83.36-.79c1.15-.4 3.42-.83 4.97-1.04-.07 3.71-.11 7.23-.11 11.12 0 7.23.04 9.97.07 12.63l2.56.97zm10.98-9.21c-.04-3.74-1.66-4.5-3.53-4.5-.72 0-1.62.29-2.2.65-.11 1.04-.25 2.66-.47 3.64l-.4.18c-.43-.22-1.94-2.09-2.3-3.1.76-.68 2.92-1.91 4.39-2.48.86-.32 1.73-.61 2.52-.61 3.71 0 4.97 3.24 4.97 5.51 0 2.45-.07 5.58-.07 8.03.79 1.3 2.12 1.87 2.81 2.09l-.29.58c-.29.18-.9.47-1.76.47-2.41 0-3.24-1.12-3.6-2.05h-.04c-1.58 1.51-3.24 2.12-4.39 2.12-3.17 0-4.54-2.45-4.54-4.21 0-1.51.61-2.52 1.44-2.92 1.3-.79 4.64-1.94 7.45-2.59v-.79zm-2.84 8.46c.76 0 1.76-.36 2.45-1.08.22-.29.32-.5.32-.86l.07-4.57c-1.55.43-3.49 1.15-4.5 1.69-.9.5-1.26 1.01-1.26 1.98 0 2.16 1.76 2.84 2.92 2.84zm23.68-13.86c-1.8 3.06-6.84 10.65-9 14.07v.07c2.59 0 6.19-.18 6.59-.29 1.12-1.58 1.94-2.74 2.48-3.31l.58-.14c-.11 1.22-.5 4.1-.83 5.22-1.87-.04-4.28-.18-7.45-.18h-5.76l-.04-.29c2.84-4.07 6.3-9.29 9.43-14.15v-.07c-.61 0-2.12 0-6.12.18-.43.79-1.33 2.41-1.8 2.95l-.54.14c-.14-.68-.25-4.1-.18-4.75l.11-.11 2.52.29h9.83l.18.36zm13.53-.4c.72 0 1.66.04 2.45.04 1.08 0 2.16-.04 3.06-.04l-.22.86c-1.08.47-1.69.94-2.23 1.48-1.37 2.95-4.21 10.22-7.56 18.14-.32 1.37-.58 2.77-.94 4-.18.11-.47.14-.83.14-1.08 0-2.27-.72-2.59-1.19.32-.65 1.84-2.45 3.13-3.89.43-.94 1.3-2.74 1.83-3.96-.36-.68-3.71-9.79-5.18-13.14-.47-.72-.94-1.01-2.48-1.62l.32-.83c1.12.04 2.23.04 3.38.04s2.27 0 3.38-.04l-.22.86-1.15.9c.43 1.37 1.58 4.61 3.56 9.93h.07c1.4-3.67 2.95-7.88 3.56-9.86l-1.66-.97.29-.86zm29.63 13.21c.9 1.22 2.09 1.87 2.74 2.12l-.25.61c-.29.22-.86.36-1.69.36-1.19 0-2.95-.54-3.6-2.05h-.04c-.65.47-2.74 2.05-4.36 2.05-3.06 0-7.59-2.34-7.59-7.95s4.93-8.78 8.75-8.78c.54 0 1.76.32 2.95 1.08h.07c0-2.59-.04-4.86-.11-7.6l-2.27-.94.29-.68c.83-.32 2.74-.79 5.22-1.15-.07 3.74-.11 7.31-.11 11.23v11.7zm-3.02-11.19c-.72-.47-1.84-.76-2.66-.76-3.42 0-5.83 3.06-5.83 6.55s2.38 6.33 5.58 6.33c.72 0 1.76-.22 2.92-1.04v-11.09zm23.87 5.76c0 5.15-3.53 8.53-8.1 8.53-4 0-8.13-2.84-8.13-8.13s4.5-8.6 8.21-8.6c4.43 0 8.03 3.38 8.03 8.21zm-12.71.07c0 3.38 1.66 7.2 4.9 7.2s4.28-3.85 4.28-6.91c0-3.38-1.51-7.31-4.61-7.31s-4.57 3.53-4.57 7.02zm27.39-6.12l-.04.07c.5.47 1.26 1.76 1.26 3.49 0 3.38-2.81 5.62-6.37 5.62a7 7 0 0 1-2.99-.65c-.58.58-.97 1.33-.97 1.62 0 .68.94 1.58 1.69 1.62 1.48-.11 5.15-.32 7.49-.04 1.04.11 1.69.43 2.27.97.65.54 1.26 1.58 1.26 2.88 0 2.02-1.29 3.78-3.02 5.04-1.55 1.19-3.74 2.27-6.51 2.27-3.56 0-6.23-1.76-6.23-4.21 0-.43.25-.79.54-1.12l2.95-3.17-.04-.07c-.54-.29-1.04-.58-1.58-1.15-.65-.61-1.22-1.66-1.22-2.34 0-.47 1.33-1.84 2.52-2.81-1.33-.79-2.3-2.3-2.3-4.32 0-2.88 2.38-5.87 6.77-5.87 1.04 0 1.8.14 2.7.32 1.15.18 1.98.32 2.63.4l3.1-1.3.14.36-1.48 2.23-2.56.14zm-7.56 14.83c-.61.54-1.73 2.05-1.73 2.84 0 2.34 2.48 3.35 4.68 3.35 2.99 0 5.62-1.33 5.62-4.1 0-1.15-.72-2.02-1.87-2.27-.83-.14-1.69-.22-3.64-.22s-2.59.18-3.06.4zm-.68-11.34c0 2.09 1.04 4.43 3.31 4.43 2.09 0 3.2-1.98 3.2-4.46 0-1.98-1.01-4.39-3.24-4.39s-3.28 2.23-3.28 4.43zM7.37 201.47c.32-.9.79-2.34 2.84-10.11l2.66-10.08-6.59-.29c-.86 1.26-2.02 2.7-2.77 3.6l-.65.22c.18-1.01.86-4.14 1.15-5.47l.14-.11c.32 0 1.84.25 2.52.47h15.84l2.84-.4c.11-.25.14-.54.22-.79l2.81-.65h.32c-.4 1.4-1.73 5.94-5.04 18.14l.11.04c2.48-3.74 5.54-7.02 8.64-8.39.61-.29 1.87-.54 2.63-.54.94 0 1.12.4.61 2.09-1.33 4.68-2.81 10.15-3.1 11.81l3.28-.36-.43 1.08c-1.94.58-5.29 1.91-6.34 2.34l-.25-.32c.18-.9 3.46-11.52 4.07-13.82.14-.54.04-.72-.32-.72-1.91 0-5.9 4.39-7.85 7.63-1.3 2.2-1.91 3.49-2.92 6.55l-2.81.29c.79-2.7 1.84-6.3 3.38-12.42 1.12-4.36 1.87-7.16 2.48-9.72l-2.59-.54-6.3.29-2.34 8.89c-2.27 8.82-2.59 10.55-2.74 11.34l4.21 1.12-.47.79c-1.94 0-3.85-.04-5.8-.04s-3.82.04-5.72.04l.4-.79 3.85-1.15zm43.7-2.13c-1.94 2.84-4.72 4.5-7.59 4.5-2.38 0-4.86-1.19-4.93-5.33-.07-4.68 3.92-11.41 9.72-11.41 2.45 0 3.74 1.55 3.74 3.56.04.86-.29 1.8-.94 2.41-1.33 1.55-7.2 2.92-9.21 3.28-.18.72-.18 1.22-.18 1.91 0 1.87.72 3.64 2.95 3.64 2.41 0 4.97-2.23 6.19-3.74h.11l.14 1.19zm-9.03-4.21c1.62-.32 5.9-1.4 6.73-2.66.32-.5.54-1.22.54-2.02 0-1.44-.72-2.12-1.58-2.12-2.09 0-4.61 2.81-5.69 6.8zm24.77 15.84c.72-.4 1.8-.79 2.56-1.19.72-1.94 1.37-4.36 3.85-12.89h-.11c-3.71 5.22-6.84 6.95-8.85 6.95-1.15 0-2.56-1.08-2.56-3.82 0-6.3 5.9-12.92 11.16-12.92 1.15 0 2.12.79 2.59 1.48l.07-.04.29-.68c.86-.36 2.45-.68 3.46-.76l.11.36-1.44 1.87c-1.08 2.99-4.18 14.94-5.47 20.41l2.88.86-.25.86c-2.48.22-5.94.22-8.46.22l.18-.72zm-2.09-10.76c-.04 1.12.43 1.73.94 1.73 1.55 0 4.14-2.34 6.26-5.33 1.51-2.12 1.84-2.63 3.17-6.8-.47-.72-1.3-1.19-2.16-1.19-4.43 0-8.21 7.38-8.21 11.59zm16.92-10.66l.25-.79c1.22-.54 4.28-1.44 5.94-1.66l.29.07c-1.22 3.31-3.6 11.16-4 12.96-.29 1.19-.18 1.55.32 1.55 1.76 0 4.93-3.31 7.6-7.63 1.3-2.12 1.87-3.64 2.74-6.37.9-.25 2.23-.47 3.35-.58l.18.32-1.44 1.94c-.86 2.77-2.2 7.6-3.24 12.09l.07.04c2.27-.61 3.64-2.7 4.1-3.46l.29.54c-.29 2.3-2.84 5.26-6.66 5.26-.36 0-.76-.07-1.08-.14.5-1.87 1.33-4.64 2.56-8.64h-.11c-2.3 3.56-4.72 6.3-6.98 7.7-1.15.76-2.27 1.08-3.2 1.08-1.01 0-2.12-.43-1.37-3.31.9-3.42 2.45-8.24 3.17-10.8l-2.77-.18zm20.27-.18l.32-.76c1.04-.54 4.07-1.44 5.47-1.51l.07.11c-2.84 9.36-4.14 13.75-4.46 14.9l.11.04c1.4-.36 3.71-2.81 4.61-3.96l.11.43c-.22 1.73-2.23 5.22-5.76 5.22-1.15 0-2.02-1.08-1.22-3.92.25-.97 1.62-5.51 3.1-10.26l-2.34-.29zm6.08-9.75c.32.32 1.01 1.58 1.04 2.23l-.07.18c-.32.61-1.76 1.87-2.23 2.09h-.22c-.43-.36-1.04-1.48-1.19-2.34l.04-.07c.86-1.19 1.94-1.87 2.41-2.09h.22zm14.94 19.79c-1.51 2.2-4.07 4.43-7.59 4.43s-4.72-2.52-4.68-5.44c0-2.38.97-5.72 3.71-8.35 2.23-2.09 4.57-2.95 6.7-2.95 1.55 0 2.59.5 2.88.83-.11.65-.97 3.02-1.55 3.96l-.61.32c-.25-.58-.5-2.05-.83-3.82-.11-.04-.25-.07-.5-.07-1.12 0-2.59.68-3.92 2.27-1.98 2.27-2.74 5.18-2.74 7.52 0 2.16.9 3.74 2.88 3.74 2.56 0 4.97-2.41 5.98-3.64h.04l.25 1.19zm5.8-19.68l.29-.72c1.51-.54 4.5-1.15 5.62-1.15l.07.07c-1.01 3.28-4.57 15.73-7.2 25.27-.97.14-2.05.29-3.06.4 2.41-7.96 4.86-16.45 6.66-23.4l-2.38-.47zm13.14 8.71c-2.77.58-3.28.72-4 1.15-.83.61-2.2 1.58-4.64 3.92l-.04.07c1.08 2.2 4.39 7.67 5.87 10.29l-.32.25c-1.94-.22-3.02-.5-4.5-2.74-1.48-2.2-3.64-6.15-3.85-6.77l.07-.14c1.84-1.66 3.1-2.77 5.47-5.15.72-.76.76-.83 1.26-2.2.76-.14 4.54.29 5.18.5l-.5.79zm12.27-9.4c1.55-.58 4.57-1.15 5.62-1.19l.11.07c-.4 1.48-1.91 6.26-4.54 15.44h.07c3.38-4.93 6.48-6.26 8.17-6.26 1.98 0 3.17 1.84 3.17 4.39 0 6.73-5.94 12.35-11.59 12.35-2.05 0-4.1-1.08-4.82-1.58 2.3-8.67 4.97-18.18 5.94-22.1l-2.45-.43.32-.68zm9.5 12.42c-.04-1.76-.68-2.45-1.48-2.45-.86 0-2.34.76-4.61 3.42-2.23 2.59-3.71 6.16-4 8.82.11.83.94 1.33 1.69 1.33 5.33 0 8.46-7.09 8.39-11.12zm6.41-2.84c1.3-.61 3.92-1.48 4.97-1.51l.07.07c.04 1.15-.18 3.28-1.04 6.52h.11c2.99-5.54 5.4-6.59 6.98-6.59.61 0 1.08.18 1.33.43 0 .68-1.15 3.64-1.73 4.5l-.58.29c-.22-.72-.4-1.69-.65-2.88-.07-.04-.14-.04-.25-.04-.79 0-2.84 1.58-5.29 7.27-.76 1.69-1.3 3.46-2.23 6.7l-2.92.29c1.98-6.19 3.46-12.27 3.6-13.97l-2.63-.29.25-.79zm27.29 4.68c0 5.26-4.32 10.55-9.5 10.55-2.81 0-5.11-2.16-5.11-5.98-.04-5.54 4.36-10.76 9.54-10.76 3.13 0 5.08 2.74 5.08 6.19zm-11.59 5.44c0 2.84 1.01 3.92 2.34 3.92 3.2 0 6.19-5.94 6.19-10.37 0-2.41-.72-4-2.34-4-3.56 0-6.19 6.41-6.19 10.44zm14.36-9.22l.14-.72c1.19-.61 4.82-1.69 5.26-1.69l.07.11c-.07 4.18-.11 8.28-.18 12.6h.07c1.26-1.91 3.13-4.82 6.01-9.36-.11-1.44-.14-1.91-.14-2.38.68-.54 2.23-.97 2.99-.97l.14.18c-.07.58-.29 1.26-.32 2.27 0 3.82.36 9.83.5 10.58h.11c2.2-2.56 3.64-4.9 4.43-6.62.72-1.62 1.26-3.49 1.12-5.9.68-.47 1.4-.68 2.09-.72l.07.04c.22.32.47 1.33.47 2.27-.04 3.71-6.55 10.76-8.93 13.71-.5.47-1.22.83-1.62.97l-.18-.07c-.14-.72-.47-7.24-.61-11.09h-.11c-2.63 4.1-5.08 7.81-6.73 10.19-.4.43-1.26.9-1.66.97l-.14-.07c-.07-.97-.04-6.59-.14-10.58-.07-1.98-.14-3.13-.18-3.28l-2.52-.43zm24.63 14.14c.79-2.3 3.71-12.92 3.82-14.04l-2.41-.29.22-.72c1.12-.54 4.64-1.51 5.65-1.51l.07.07c-.22.86-1.4 4.54-2.66 9.03h.07c2.52-3.85 5.44-7.2 8.67-8.57.68-.29 1.62-.54 2.56-.54 1.01 0 1.19.32.72 2.05-1.33 4.68-2.84 10.22-3.17 11.95l3.28-.47-.43 1.08c-1.87.58-5.33 1.91-6.37 2.34l-.25-.36c.22-.86 3.46-11.41 4.1-13.79.11-.43.04-.61-.32-.61-1.87 0-5.76 4.25-7.78 7.52-1.33 2.16-1.91 3.46-2.95 6.55l-2.81.29zm32-16.05c.5-2.09 1.62-5.58 4.03-7.74 1.69-1.55 3.38-2.02 4.71-2.02 1.04 0 2.02.25 2.56.79-.29.9-1.04 2.56-1.62 3.28l-.58.22c-.25-.72-.58-1.94-.76-2.92-.07-.04-.18-.07-.36-.07-1.22 0-3.35.83-5.08 8.5h3.92l-.61 1.15-3.71.5c-.86 3.85-1.37 6.3-2.7 11.7-1.22 4.86-2.38 7.09-4.61 9.07-1.62 1.37-3.02 1.94-4.32 1.94-1.37 0-2.45-.76-2.81-1.48l1.37-2.05.29-.07c.83 1.22 1.98 1.66 2.92 1.66s2.23-.18 3.53-5.47c1.01-4.14 1.76-7.38 3.46-15.33l-2.84-.61.65-1.04h2.56zm20.52 5.69c0 5.26-4.32 10.55-9.5 10.55-2.81 0-5.11-2.16-5.11-5.98-.04-5.54 4.36-10.76 9.54-10.76 3.13 0 5.08 2.74 5.08 6.19zm-11.59 5.44c0 2.84 1.01 3.92 2.34 3.92 3.2 0 6.19-5.94 6.19-10.37 0-2.41-.72-4-2.34-4-3.56 0-6.19 6.41-6.19 10.44zm13.03-.12c.68.94 1.55 2.05 2.27 2.74.83-.25 3.53-3.35 5.51-6.12-.86-3.28-1.48-5.22-1.76-5.69-.58.22-2.02 1.26-3.56 3.24l-.43-.76c.9-2.16 3.49-4.86 5.72-4.93.83.58 1.51 3.56 2.12 5.65h.11c1.04-1.4 1.73-2.27 2.56-3.24 1.37-1.58 2.23-2.3 2.99-2.63h.32c.79.61 1.37 2.59 1.37 4.39l-.65.61c-.43-.9-.97-2.02-1.62-2.52-.9.32-3.6 3.49-4.64 4.9.65 2.34 1.37 4.64 1.8 6.34.11.29.18.43.32.43.32 0 2.2-1.15 3.64-3.38l.25.94c-1.01 3.42-4 5.26-6.19 5.26-.47-1.58-.86-3.46-1.91-7.13h-.07c-1.51 2.12-3.02 4.21-4 5.33-1.22 1.48-2.05 2.09-2.38 2.16-.11 0-.25 0-.43-.04-.61-.68-1.51-2.74-1.8-4.9l.47-.65zm28.44-9.54l.43-.76c1.26-.54 4.32-1.19 5.62-1.22l.11.07c-1.33 5.58-2.84 11.16-3.67 14-.9 3.28-1.62 5.15-2.88 6.8-1.8 2.41-4 3.67-4.9 4.07l-.76-.76c1.4-.94 3.74-2.66 5.26-8.39 1.51-5.69 1.73-6.55 3.46-13.43l-2.66-.4zm6.19-9.47c.36.32 1.01 1.58 1.04 2.23l-.04.18c-.36.61-1.76 1.87-2.27 2.09h-.22c-.43-.36-1.01-1.48-1.19-2.34l.04-.07c.9-1.19 1.98-1.87 2.41-2.09h.22zm3.31 9.94l.25-.79c1.22-.54 4.28-1.44 5.94-1.66l.29.07c-1.22 3.31-3.6 11.16-4 12.96-.29 1.19-.18 1.55.32 1.55 1.76 0 4.93-3.31 7.6-7.63 1.3-2.12 1.87-3.64 2.74-6.37.9-.25 2.23-.47 3.35-.58l.18.32-1.44 1.94c-.86 2.77-2.2 7.6-3.24 12.09l.07.04c2.27-.61 3.64-2.7 4.1-3.46l.29.54c-.29 2.3-2.84 5.26-6.66 5.26-.36 0-.76-.07-1.08-.14.5-1.87 1.33-4.64 2.56-8.64h-.11c-2.3 3.56-4.72 6.3-6.98 7.7-1.15.76-2.27 1.08-3.2 1.08-1.01 0-2.12-.43-1.37-3.31.9-3.42 2.45-8.24 3.17-10.8l-2.77-.18zm18.58 14.11c.83-2.34 3.71-12.78 3.85-14.04l-2.48-.25.25-.76c1.26-.54 4.54-1.51 5.65-1.51l.07.11c-.36 1.44-1.37 4.5-2.66 8.93h.07c2.48-3.92 5.47-7.16 8.67-8.5.68-.29 1.58-.54 2.56-.54.9 0 1.08.43.68 2.09-.58 2.41-1.26 4.5-1.98 6.8h.11c2.38-3.71 5.25-6.91 8.53-8.31.68-.32 1.62-.58 2.63-.58.94 0 1.15.36.65 2.05-1.33 4.72-2.84 10.29-3.1 11.95l3.24-.47-.4 1.08c-1.98.61-5.33 1.91-6.41 2.34l-.25-.36c.18-.86 3.42-11.45 4.03-13.79.14-.47 0-.65-.29-.65-1.8 0-5.65 4.07-7.7 7.49-1.33 2.27-1.91 3.56-2.95 6.62l-2.92.29c.68-2.05 3.42-10.83 4-13.75.11-.43.04-.65-.29-.65-1.98 0-5.65 3.89-7.85 7.63-1.3 2.12-1.84 3.42-2.88 6.48l-2.84.29zM366 189.34l.25-.72c.97-.58 4.36-1.66 5.62-1.73l.04.11-2.27 7.52h.11c4.1-6.08 7.31-7.42 9.04-7.42s2.77 1.58 2.77 4c0 7.13-5.98 12.74-11.12 12.74-.86 0-2.09-.36-2.77-.86-.32 1.04-.76 2.59-1.73 6.62l3.06.79-.47.9c-1.22.07-5.87.43-8.35.43l.32-.9 2.3-1.04c.36-.9 1.3-4 2.48-8.39 1.4-5.08 2.59-9.43 3.13-11.81l-2.41-.25zm12.45 1.76c-.04-1.4-.5-2.02-1.26-2.02-.97 0-2.88 1.12-5.18 4.5-2.02 2.56-3.13 5.11-3.82 7.63.36.72 1.15 1.33 1.84 1.33 4.93 0 8.5-6.84 8.42-11.45zm16.42-2.92c-.25 1.01-1.19 2.99-1.66 3.64l-.54.14c-.14-.68-.32-1.8-.47-3.42-.18-.11-.43-.22-1.15-.22-1.91 0-3.2 1.26-3.2 2.74 0 1.22.9 2.02 2.63 3.35 2.34 1.84 2.95 2.99 2.95 4.54 0 2.52-2.34 4.9-6.19 4.9-2.3 0-4.43-1.26-4.97-1.87.36-.86.94-2.2 2.02-3.74l.5-.11c.18.83.43 2.59.54 4.1.47.22 1.01.32 1.84.32 2.23 0 3.49-1.26 3.53-2.74 0-1.08-.72-1.91-2.27-3.13-2.52-1.94-3.06-3.24-3.06-4.64 0-3.2 2.95-4.93 5.9-4.93 1.44 0 2.95.47 3.6 1.08zm24.98 5.12c0 5.26-4.32 10.55-9.5 10.55-2.81 0-5.11-2.16-5.11-5.98-.04-5.54 4.36-10.76 9.54-10.76 3.13 0 5.08 2.74 5.08 6.19zm-11.59 5.44c0 2.84 1.01 3.92 2.34 3.92 3.2 0 6.19-5.94 6.19-10.37 0-2.41-.72-4-2.34-4-3.56 0-6.19 6.41-6.19 10.44zm14.26-9.12l.18-.83c1.08-.61 4.43-1.69 5.15-1.69l.07.07c.04 4.36.11 8.71.36 13.1h.07c2.12-2.27 4.28-5.11 5.18-7.06.76-1.55 1.12-3.02.9-5.58.29-.25 1.33-.72 2.12-.76l.11.04c.22.47.5 1.44.5 2.27.04 3.78-6.41 9.83-9.54 13.68-.47.5-1.3.94-1.73 1.01l-.18-.04c-.11-1.04-.25-6.73-.47-10.69-.11-2.09-.22-3.1-.29-3.38l-2.45-.14zm28.43 9.72c-1.94 2.84-4.72 4.5-7.6 4.5-2.38 0-4.86-1.19-4.93-5.33-.07-4.68 3.92-11.41 9.72-11.41 2.45 0 3.74 1.55 3.74 3.56.04.86-.29 1.8-.94 2.41-1.33 1.55-7.2 2.92-9.21 3.28-.18.72-.18 1.22-.18 1.91 0 1.87.72 3.64 2.95 3.64 2.41 0 4.97-2.23 6.19-3.74h.11l.14 1.19zm-9.04-4.21c1.62-.32 5.9-1.4 6.73-2.66.32-.5.54-1.22.54-2.02 0-1.44-.72-2.12-1.58-2.12-2.09 0-4.61 2.81-5.69 6.8zm12.86-6.51c1.3-.61 3.92-1.48 4.97-1.51l.07.07c.04 1.15-.18 3.28-1.04 6.52h.11c2.99-5.54 5.4-6.59 6.98-6.59.61 0 1.08.18 1.33.43 0 .68-1.15 3.64-1.73 4.5l-.58.29c-.22-.72-.4-1.69-.65-2.88-.07-.04-.14-.04-.25-.04-.79 0-2.84 1.58-5.29 7.27-.76 1.69-1.3 3.46-2.23 6.7l-2.92.29c1.98-6.19 3.46-12.27 3.6-13.97l-2.63-.29.25-.79zm29.55-6.48l.18.18-1.58 5.29h4.71l-.72 1.15-4.43.47c-.76 2.52-2.56 8.82-3.46 12.74l.07.04c2.09-.25 4.39-1.98 6.16-4.18l.18.68c-1.76 4.79-5.69 5.33-7.02 5.33s-2.52-.58-1.94-2.99c.4-1.73 2.38-8.78 3.2-11.63l-2.88-.47.72-1.15h2.63l1.04-3.53 3.13-1.94zm2.71 21.52c.79-2.84 1.8-6.55 3.38-12.56 1.58-6.05 2.41-9.14 2.77-10.94l-2.63-.47.36-.68c1.44-.58 4.75-1.15 5.76-1.15l.07.07c-.4 1.44-1.8 6.08-5.11 18.18h.11c2.48-3.74 5.62-7.09 8.67-8.42.68-.29 1.73-.58 2.52-.58.97 0 1.33.25.83 1.91-1.44 4.86-2.88 10.37-3.13 12.06l3.24-.43-.43 1.08c-1.98.61-5.29 1.91-6.37 2.34l-.25-.22c.18-1.01 3.42-11.55 4.03-13.89.14-.5.04-.68-.29-.68-1.87 0-5.9 4.32-7.95 7.77-1.26 2.16-1.84 3.64-2.77 6.34l-2.81.29zm32.14-4.32c-1.94 2.84-4.72 4.5-7.6 4.5-2.38 0-4.86-1.19-4.93-5.33-.07-4.68 3.92-11.41 9.72-11.41 2.45 0 3.74 1.55 3.74 3.56.04.86-.29 1.8-.94 2.41-1.33 1.55-7.2 2.92-9.21 3.28-.18.72-.18 1.22-.18 1.91 0 1.87.72 3.64 2.95 3.64 2.41 0 4.97-2.23 6.19-3.74h.11l.14 1.19zm-9.04-4.21c1.62-.32 5.9-1.4 6.73-2.66.32-.5.54-1.22.54-2.02 0-1.44-.72-2.12-1.58-2.12-2.09 0-4.61 2.81-5.69 6.8zm23.77-15.4l.32-.72c1.48-.58 4.54-1.15 5.62-1.15l.07.07c-.68 2.23-1.73 5.62-3.64 12.31-1.91 6.73-2.99 10.73-3.31 11.88l.07.04c1.4-.36 3.67-3.02 4.71-4.28l.25.32c-.25 2.05-2.52 5.65-6.01 5.65-1.04 0-1.98-1.08-1.22-4.03.36-1.48 3.67-13.14 5.51-19.62l-2.38-.47zm23.65 7.23l.14.32-1.44 1.76c-1.4 4.5-2.81 10.11-3.31 12.56l.07.04c2.16-.65 3.56-2.52 4.28-3.46l.22.36c-.22 2.38-2.99 5.29-6.59 5.29-.4 0-.83-.07-1.15-.14.43-1.73 1.44-5.18 1.94-7.16h-.14c-2.74 4.07-6.26 7.31-8.86 7.31-1.62 0-2.45-1.37-2.45-3.49 0-2.84 1.8-7.67 6.08-10.83 1.98-1.51 3.89-1.98 5.22-1.98 1.12 0 1.8.4 2.34.79l.29-.9 3.35-.47zm-6.66 8.57c1.26-1.94 1.73-3.1 2.59-6.05-.36-.32-.9-.5-1.62-.5-1.15 0-2.7.4-4.54 2.34-2.74 2.99-4.03 6.7-4.03 8.96 0 1.08.43 1.48.79 1.48 1.44 0 4-1.98 6.8-6.23zm22.78 3.85c-2.66 4.28-4.03 4.93-4.57 5.15-.79-.07-1.91-.61-3.38-1.22-1.15-.54-1.87-.79-2.48-1.04-1.01-.32-1.73-.22-2.2.18-.43.29-.79.68-1.26 1.51h-.29c-.32-.32-.4-1.04-.07-1.84.29-.79 1.22-1.66 1.8-1.98 3.35-3.38 8.71-9.07 9.57-10.08l-.04-.07c-1.37.22-2.45.22-3.85.07-1.01-.11-1.44-.14-2.09-.22-.86.43-3.06 2.88-3.6 3.6l-.54-.86c1.01-1.91 3.17-5 3.85-5.54.58.22 3.28.97 6.41.97 1.19 0 2.09-.18 3.35-1.4l.5.9c-.36.86-6.44 7.34-11.38 12.53l.04.07c.72 0 1.66.22 2.99.68 1.04.36 1.98.76 2.81.97.97-.47 2.27-1.55 3.92-3.35l.5.97zm2.24-6.84c1.44-4.54 3.56-5.44 4.5-5.47.86.07 1.91.9 2.56 3.78.65 2.81.83 6.19.76 10.04h.11c1.84-2.84 4.14-8.75 4.28-11.19l-1.12-1.55.22-.36c.79-.4 2.09-.68 2.99-.72.25 0 .5.11.47.4-.36 2.3-.97 4-2.2 6.98-2.02 4.93-4.57 8.82-6.7 11.59-3.28 4.21-6.3 5.94-6.88 5.94-.36 0-1.51-.76-2.02-3.1l.11-.36c.94.07 1.98.36 3.49.86.36-.14 2.05-1.4 3.28-3.13 1.04-1.48 1.58-3.02 1.55-5.65-.04-3.6-.5-7.56-1.33-9.79-.29-.86-.5-1.22-.72-1.22-.32 0-1.55 1.58-2.52 3.78l-.83-.83zm37.9-13.54c1.37-.58 4.32-1.15 5.65-1.15l.07.07c-.86 2.77-5.18 17.03-6.55 23.47l.07.07c2.3-.79 3.74-3.02 4.17-3.56l.29.36c-.36 2.88-3.46 5.58-6.62 5.58-.47 0-.86-.07-1.19-.14.47-1.73 1.48-5.25 2.05-7.34h-.11c-2.95 4.43-6.3 7.49-9.07 7.49-1.44 0-2.66-1.33-2.66-3.96 0-6.08 5.72-12.78 10.94-12.78 1.15 0 2.12.43 2.92 1.08.83-2.95 1.76-6.16 2.2-8.03l-2.56-.47.4-.68zm-10.83 20.88c0 1.26.47 1.87 1.12 1.87 1.15 0 3.74-1.66 6.44-5.83 1.44-2.2 1.91-3.28 2.88-6.48-.61-.47-1.44-.79-2.27-.79-4.14 0-8.17 6.7-8.17 11.23zm31.68-6.58c0 5.26-4.32 10.55-9.5 10.55-2.81 0-5.11-2.16-5.11-5.98-.04-5.54 4.36-10.76 9.54-10.76 3.13 0 5.08 2.74 5.08 6.19zm-11.59 5.44c0 2.84 1.01 3.92 2.34 3.92 3.2 0 6.19-5.94 6.19-10.37 0-2.41-.72-4-2.34-4-3.56 0-6.19 6.41-6.19 10.44zm28.61-9.62l-2.81.14-.04.07c.25.43.72 1.3.72 2.56 0 3.74-2.99 7.52-7.38 7.52-.47 0-.9-.11-1.26-.25-.22.29-.47.76-.47 1.19.04.4.29.86 1.22 1.33.86.4 3.06 1.4 5 2.38 1.76.9 2.56 1.91 2.52 2.92.04 3.24-5.04 5.18-7.77 5.18-6.26 0-7.74-3.49-7.74-4.68 0-.5.14-.79.61-1.15.86-.65 2.88-1.94 4.97-2.95l.04-.04c-.54-.47-1.12-1.33-1.12-2.12 0-.68 1.15-1.8 1.87-2.41-1.55-.9-2.12-2.45-2.12-4 0-3.92 3.35-7.7 7.56-7.7.61 0 1.22.11 2.05.25.94.22 1.91.43 2.52.5l2.81-1.51.29.32-1.48 2.45zm-5.08 19.11c0-.65-.32-1.12-1.44-1.73-1.22-.72-3.56-1.94-5-2.56-2.84 1.58-3.74 2.45-3.74 3.28 0 1.37 2.2 3.46 5.83 3.46 2.81 0 4.36-1.22 4.36-2.45zm-6.05-12.56c0 1.76.79 2.59 1.76 2.59 2.56 0 4.61-4.36 4.61-7.34 0-1.69-.68-2.63-1.76-2.63-2.45 0-4.61 4.21-4.61 7.38zM8.99 239.87l-5.69-.22c-.58 1.12-1.91 3.24-2.59 4.14l-.68.14c-.07-1.08 0-5 .14-6.16l.22-.14c.5 0 2.09.36 2.81.54h17.06c.61-.04 1.66-.22 2.16-.4l-.04-.5 4.36-.68.25.11c-.07 3.09-.11 7.13-.11 10.73h.07c1.84-1.48 3.35-1.94 4.82-1.94 3.82 0 5.44 3.02 5.44 5.62v7.96c0 .58.22.79.72 1.01l1.76 1.01-.29.9c-1.76.04-4.93-.04-6.98-.29.18-1.51.4-3.85.4-9.21 0-3.46-1.44-4.5-3.31-4.5-.97 0-1.94.43-2.63.94 0 3.64 0 10.19.07 10.91l2.56 1.22-.25.86c-1.55 0-3.06-.04-4.64-.04-1.48 0-2.92.04-4.39.04l.25-.86 1.91-1.22c.07-.54.11-3.42.11-8.13 0-3.78 0-7.13-.07-11.41-.54-.25-1.66-.61-2.2-.61l-6.69.22v8.82c0 9.18.14 10.08.22 11.01l3.53 1.3-.25.9c-1.76 0-3.64-.04-5.62-.04s-4 .04-5.83.04l.29-.9 3.02-1.3c.07-1.12.11-2.27.11-9.86v-9.97zm37.08 13.86c-.04.22-.04.32-.04.5 0 3.56 2.23 5.94 5.26 5.94.36 0 .65-.04.97-.14 1.15-.9 2.63-1.91 3.46-2.3l.22.61c-.25 1.15-1.98 2.84-2.59 3.24-.68.25-2.38.76-3.74.76-4.9 0-8.17-3.09-8.17-8.21s3.82-8.64 8.21-8.64c3.67 0 6.62 2.34 6.62 6.48 0 .54-.11 1.01-.36 1.15-.32.18-1.69.61-3.71.61h-6.12zm5.65-1.51c.11-.29.18-.68.18-1.15 0-2.41-.86-4.17-2.52-4.17-2.2 0-3.28 3.38-3.31 5.33h5.65zm31.07 4.82c0 3.96.04 8.82.04 10.37l2.92 1.22-.22 1.01c-1.66 0-3.35-.04-5-.04s-3.2.04-4.82.04l.18-.97 2.34-1.22c.07-2.09.18-4.43.18-6.51l-.07-.04c-1.87 1.12-3.13 1.44-3.6 1.44-4.54 0-7.96-3.28-7.96-8.21 0-4.57 4.03-8.64 8.71-8.64 1.08 0 2.45.43 3.53 1.26 1.08-.68 3.6-1.22 4.82-1.3l.14.29c-.18.97-.83 2.23-1.19 2.88v8.42zm-4.39-9c-.43-.29-1.12-.58-1.84-.58-2.81 0-5.08 2.74-5.08 6.33s2.41 6.08 5.22 6.08c.68 0 1.26-.18 1.69-.43v-11.41zm8.1-.9l.36-.83c1.37-.36 4.03-.61 6.26-.65-.14 1.94-.29 4.75-.29 10.15 0 1.55.22 2.3.61 2.84.47.54 1.19.94 2.2.94.94 0 2.12-.43 2.95-1.4v-9.47c-.07-.54-.4-.72-2.56-1.62l.36-.83c1.58-.32 4.68-.65 6.69-.61-.11 1.66-.11 4.03-.11 13.39.61 1.08 1.94 1.69 2.59 1.91l-.18.54c-.29.29-1.62.76-2.77.76-1.51 0-3.28-.47-3.85-2.52h-.07c-1.3 1.44-2.95 2.59-5.11 2.59-1.37 0-2.74-.43-3.6-1.3-1.04-.94-1.51-2.34-1.51-4.35 0-2.66.07-6.19.07-8.5l-2.05-1.04zm21.02-.54c.58-.22 3.6-.97 6.12-1.15v7.42c0 4.07.07 6.08.11 6.95l2.45 1.12-.25.97c-1.55 0-2.95-.04-4.57-.04-1.4 0-2.92.04-4.32.04l.22-.97 1.91-1.12c.04-1.26.11-4.14.11-7.02v-4.43l-1.98-.97.22-.79zm4.07-8.89c.58.18 1.8 1.55 2.23 2.45l-.11.36c-.36.79-1.69 2.09-2.3 2.45l-.32.11c-.83-.47-1.84-1.66-2.27-2.48l.11-.32c.58-1.01 1.66-2.05 2.34-2.52l.32-.04zm15.91 7.77c2.41 0 4.25.83 4.93 1.4-.14.76-.83 3.06-1.51 4.17l-.61.18c-.36-.61-.97-2.34-1.4-4.1-.22-.11-.54-.22-1.04-.22-3.56 0-5.33 3.28-5.33 6.62 0 3.71 2.12 6.62 5.72 6.62.32 0 .65-.07.94-.22 1.12-.83 2.38-1.66 3.1-1.98l.32.68c-.32.9-1.73 2.7-2.41 3.06-.54.22-2.09.61-3.42.61-4.25 0-8.89-2.27-8.89-8.1s5.11-8.75 9.61-8.75zm15.77 15.41l-.29 1.01c-1.48 0-2.95-.04-4.46-.04s-2.88.04-4.36.04l.18-.94 1.98-1.15c.04-1.08.07-3.28.07-11.66 0-3.38 0-6.66-.07-8.71l-2.09-.86.32-.86c1.69-.4 5-.97 6.33-1.01-.07 3.38-.11 6.98-.11 10.91 0 6.66.04 10.69.07 12.24l2.41 1.04zm9.11 1.58c-2.66-.07-4.64-.54-6.01-1.87-1.37-1.3-3.6-4.54-5.08-7.02v-.22c1.26-1.48 3.6-4.25 4.68-5.79l.76-2.12c2.05 0 4.61.29 5.36.54l-.5.94c-.68.36-2.84 1.15-4.25 1.62-.68.65-1.51 1.55-2.34 2.48v.11c1.8 2.95 5.87 8.64 7.6 11.09l-.22.25zm10.91-14.32c0-3.31-.04-6.33-.11-8.57l-2.12-.97.29-.79c.79-.36 4.14-1.04 6.41-1.12-.07 3.17-.11 7.16-.11 10.44 1.08-.65 2.99-1.66 4.03-1.66 3.74 0 7.7 2.74 7.7 7.88 0 6.59-5.36 8.96-8.68 8.96-.83 0-2.38-.54-3.64-1.26-1.01.61-2.99 1.19-3.78 1.22v-14.15zm4.36 11.73c.61.32 1.4.47 2.05.47 2.45 0 5-2.09 5-6.41 0-3.24-1.84-6.12-5.08-6.12-.79 0-1.4.29-1.98.5v11.55zm14.46-13.03c.54-.29 4.14-1.33 5.58-1.4.22.72.4 2.45.36 3.2h.11c1.26-2.02 3.06-3.2 4.72-3.2.9 0 1.55.29 1.98.72-.11 1.04-1.01 3.56-1.66 4.71l-.54.18c-.4-.58-.79-1.15-1.48-2.56a1.09 1.09 0 0 0-.54-.14c-.86 0-1.98.97-2.48 2.12v9.32l3.64 1.12-.25.97c-1.8 0-3.74-.04-5.69-.04-1.44 0-2.99.04-4.39.04l.18-.97 1.98-1.12c.11-3.71.14-9.61.14-11.16l-1.91-1.01.25-.79zm31.43 6.88c0 5.18-3.64 8.6-8.6 8.6-4.5 0-8.57-3.02-8.57-8.28s4.36-8.57 8.6-8.57c5.04 0 8.57 3.42 8.57 8.24zm-12.27-.22c0 3.24 1.15 7.42 4 7.42s3.38-4.18 3.38-6.8c0-2.99-1.04-7.23-3.78-7.23-2.59 0-3.6 3.71-3.6 6.62zm21.77-6.59l-1.22 1.08c.43 1.55 1.4 4.36 2.84 8.68h.04c.94-2.45 1.84-4.68 2.52-6.98l-.36-2.48c.4-.32 2.41-1.12 3.38-1.29l.32.11.29 2.92c1.01 2.7 2.05 5.22 3.24 7.99h.07c.94-3.06 1.62-5.26 2.52-8.86l-1.44-1.22.29-.94c.79 0 1.69.07 2.63.07s1.98-.07 2.99-.07l-.22.94c-.79.47-1.48.9-2.16 1.44-.68 1.48-2.3 6.12-4.39 12.2-.54.65-1.48 1.55-2.12 2.02h-.25c-1.51-3.64-2.99-7.2-4.1-9.79h-.04c-.97 2.3-1.66 3.92-3.2 7.7-.47.65-1.48 1.66-2.09 2.09h-.25c-1.37-3.82-4.64-13.03-5.26-14.4-.65-.47-1.33-.86-2.23-1.22l.29-.97c1.33 0 2.81.07 4.25.07 1.3 0 2.56-.07 3.85-.07l-.18 1.01zm21.28 1.77l-1.83-.9.29-.79c.61-.43 4.97-1.55 5.94-1.51l-.25 2.7.07.04c2.16-1.69 3.92-2.74 5.44-2.74 3.89 0 5.08 3.1 5.08 5.69v8.06c0 .4.22.61.65.83l1.91.9-.25.94c-1.44 0-3.02-.04-4.61-.04-1.26 0-2.56.04-3.89.04l.22-.97 1.44-1.12c.04-1.08.14-3.56.14-8.13 0-2.3-1.15-3.46-2.84-3.46-1.08 0-2.16.58-3.1 1.37 0 2.81 0 9.58.07 10.26l1.84 1.08-.22.97c-1.26-.04-2.63-.04-3.96-.04-1.48 0-2.99.04-4.43.04l.25-.94 1.98-1.12c.04-.5.07-3.92.07-8.17v-2.99zm26.71 12.34l2.38-1.22c0-.54.11-2.92.11-7.16v-4.93l-2.3-.47.54-1.3h1.76c0-2.2.61-5 2.74-7.09 1.66-1.55 3.53-2.2 5.36-2.2 1.37 0 2.3.36 2.99.9-.29.97-.83 2.63-1.44 3.64l-.61.25c-.4-.61-1.04-1.76-1.62-3.2-.14-.07-.32-.07-.54-.07-1.22 0-2.34 1.55-2.45 5.15-.04 1.01 0 1.98.04 2.63h4.43l-.58 1.26-3.85.47c-.04.76-.11 2.38-.11 4.68 0 5.51.07 6.91.11 7.42l3.2 1.19-.22.94c-1.66 0-3.46-.04-5.29-.04-1.55 0-3.1.04-4.75.04l.11-.86zm29.27-7.3c0 5.18-3.64 8.6-8.6 8.6-4.5 0-8.57-3.02-8.57-8.28s4.36-8.57 8.6-8.57c5.04 0 8.57 3.42 8.57 8.24zm-12.27-.22c0 3.24 1.15 7.42 4 7.42s3.38-4.18 3.38-6.8c0-2.99-1.04-7.23-3.78-7.23-2.59 0-3.6 3.71-3.6 6.62zm22.78-2.56h.07c.65-1.04 1.12-1.73 1.66-2.74.29-.65.32-1.4.29-2.34.72.04 1.48.07 2.23.07 1.01 0 2.05-.04 3.24-.07l-.25 1.01c-2.3.86-3.13 1.33-3.71 1.94-.58.72-1.37 1.58-2.74 3.49.97 1.83 3.2 5.43 3.74 6.3.54.9 1.12 1.19 1.69 1.44l2.16.86-.32.94c-.68 0-3.46.18-6.88.18-.97-2.16-1.55-3.24-3.13-5.98h-.07c-1.3 2.05-1.69 2.77-2.05 3.53-.18.5 0 .68.79 1.51l-.14.79c-.9 0-1.91-.04-2.88-.04-1.15 0-2.34.04-3.46.04l.22-.94 1.98-.94c.61-.32 1.22-.68 1.62-1.22.68-.86 1.48-1.76 3.2-4.21-2.52-4.46-3.17-5.54-3.64-6.26-.32-.43-1.26-.79-3.1-1.48l.29-.97c1.4.04 2.81.07 4.21.07.94 0 1.83-.04 2.81-.07v1.3l2.16 3.78zm17.89-4.32c.76-.36 4.39-1.08 6.08-1.19v12.35c0 1.94-.25 3.89-1.33 6.01-1.76 3.35-3.67 4.86-5.87 6.16l-1.01-.76v-.18c3.74-2.59 3.85-7.27 3.85-11.09 0-2.59-.04-7.45-.18-9.65-.54-.29-1.19-.58-1.8-.86l.25-.79zm3.96-8.93c.61.18 1.8 1.55 2.23 2.45l-.07.36c-.4.79-1.73 2.09-2.34 2.45l-.32.11c-.83-.47-1.84-1.66-2.27-2.48l.11-.36c.61-.97 1.66-2.02 2.38-2.48l.29-.04zm5.65 9.44l.36-.83c1.37-.36 4.03-.61 6.26-.65-.14 1.94-.29 4.75-.29 10.15 0 1.55.22 2.3.61 2.84.47.54 1.19.94 2.2.94.94 0 2.12-.43 2.95-1.4v-9.47c-.07-.54-.4-.72-2.56-1.62l.36-.83c1.58-.32 4.68-.65 6.7-.61-.11 1.66-.11 4.03-.11 13.39.61 1.08 1.94 1.69 2.59 1.91l-.18.54c-.29.29-1.62.76-2.77.76-1.51 0-3.28-.47-3.85-2.52h-.07c-1.3 1.44-2.95 2.59-5.11 2.59-1.37 0-2.74-.43-3.6-1.3-1.04-.94-1.51-2.34-1.51-4.35 0-2.66.07-6.19.07-8.5l-2.05-1.04zm22.9 1.51l-1.83-.86.29-.79c.65-.47 4.97-1.55 5.94-1.51l-.25 2.7.07.04c2.12-1.58 3.82-2.74 5.65-2.74 2.09 0 3.53 1.3 4.14 2.84 2.23-1.76 4.1-2.84 5.87-2.84 3.46 0 4.93 2.84 4.93 5.47v8.39c0 .32.29.5.76.79l1.76.83-.25.94c-1.44 0-2.92-.04-4.39-.04-1.37 0-2.74.04-4.14.04l.22-.94 1.51-1.22c.04-1.08.14-3.6.14-7.74 0-2.56-1.3-3.82-2.84-3.82-1.19 0-2.12.54-3.24 1.44.14.61.29 1.58.29 2.59l-.04 7.56 1.98 1.15-.25.97c-1.26 0-2.56-.04-3.85-.04-1.44 0-2.84.04-4.32.04l.22-.94 1.76-1.19c.07-.94.11-3.71.11-8.17 0-2.12-1.15-3.31-2.95-3.31-.86 0-1.87.43-2.88 1.22 0 3.17 0 9.61.07 10.26l1.87 1.15-.25.97c-1.22 0-2.63-.04-4.03-.04s-2.95.04-4.36.04l.18-.94 2.05-1.19c.04-.5.07-3.35.07-7.77v-3.35zm34.77-1.04h.11c2.41-1.55 3.74-2.12 4.61-2.12 2.95 0 7.02 2.63 7.02 7.67 0 6.59-5.26 9.18-8.67 9.18-.54 0-1.62-.4-2.88-1.04l-.07.04c0 2.16.07 4.64.14 6.12l3.31 1.22-.25.97c-1.76 0-3.49-.04-5.26-.04-1.51 0-3.06.04-4.57.04l.32-1.04 1.8-1.04c.04-.94.14-4.36.14-9.54v-9.61l-1.98-1.22.29-.79c.47-.18 4.32-.9 6.08-.94l-.14 2.16zm.14 12.24c.54.25 1.19.47 1.94.47 2.63 0 5.11-2.3 5.11-6.33 0-3.67-2.34-5.83-4.86-5.83-.61 0-1.3.22-2.2.72v10.98zm23.3-13.5c.61-.43 1.37-.83 2.05-1.04l.36.22c-.11 1.4-.54 3.96-.86 4.79l-.65.22c-.43-.72-.97-1.87-1.33-2.77-.18-.18-.86-.68-2.12-.68-1.62 0-2.38 1.12-2.38 2.05 0 .68.36 1.3 1.37 1.76 1.62.83 2.99 1.48 4.32 2.16 2.02 1.08 2.63 2.41 2.63 3.92 0 4.36-4.46 5.36-6.98 5.36-2.12 0-4.32-.79-5.36-1.51.04-.97.65-3.74.9-4.36l.54-.29c.61 1.04 1.55 3.24 2.12 4.43.54.18 1.22.36 1.98.36 1.69 0 2.88-1.08 2.88-2.34 0-.79-.29-1.33-1.29-1.87l-3.24-1.62c-2.12-1.01-3.46-2.38-3.46-4.61 0-2.52 1.87-5.04 5.72-5.04.83 0 1.87.25 2.81.86zm31.03 7.38c0 5.18-3.64 8.6-8.6 8.6-4.5 0-8.57-3.02-8.57-8.28s4.36-8.57 8.6-8.57c5.04 0 8.57 3.42 8.57 8.24zm-12.27-.22c0 3.24 1.15 7.42 4 7.42s3.38-4.18 3.38-6.8c0-2.99-1.04-7.23-3.78-7.23-2.59 0-3.6 3.71-3.6 6.62zm13.68-7.63c1.37.04 2.74.07 4.18.07 1.26 0 2.52-.04 3.78-.07l-.29 1.04-.94 1.12c.58 1.84 1.91 5.22 3.28 8.93h.07c.61-1.62 1.8-4.86 3.06-8.78l-1.08-1.33.25-.97c.68.04 1.51.07 2.23.07 1.01 0 2.05-.04 3.02-.07l-.25 1.01c-.79.47-1.44.94-2.12 1.51-.58 1.08-3.74 8.78-4.93 11.84-.5.76-1.44 1.8-2.16 2.27h-.36c-.29-.65-2.45-6.19-5.76-14.25-.72-.58-1.44-1.01-2.3-1.44l.32-.94zm22.89 7.85c-.04.22-.04.32-.04.5 0 3.56 2.23 5.94 5.26 5.94.36 0 .65-.04.97-.14 1.15-.9 2.63-1.91 3.46-2.3l.22.61c-.25 1.15-1.98 2.84-2.59 3.24-.68.25-2.38.76-3.74.76-4.89 0-8.17-3.09-8.17-8.21s3.82-8.64 8.21-8.64c3.67 0 6.62 2.34 6.62 6.48 0 .54-.11 1.01-.36 1.15-.32.18-1.69.61-3.71.61h-6.12zm5.65-1.51c.11-.29.18-.68.18-1.15 0-2.41-.86-4.17-2.52-4.17-2.2 0-3.28 3.38-3.31 5.33h5.65zm7.17-5.37c.54-.29 4.14-1.33 5.58-1.4.22.72.4 2.45.36 3.2h.11c1.26-2.02 3.06-3.2 4.72-3.2.9 0 1.55.29 1.98.72-.11 1.04-1.01 3.56-1.66 4.71l-.54.18c-.4-.58-.79-1.15-1.48-2.56a1.09 1.09 0 0 0-.54-.14c-.86 0-1.98.97-2.48 2.12v9.32l3.64 1.12-.25.97c-1.8 0-3.74-.04-5.69-.04-1.44 0-2.99.04-4.39.04l.18-.97 1.98-1.12c.11-3.71.14-9.61.14-11.16l-1.91-1.01.25-.79zm33.87-.9l-.61 1.4-4.75.54c0 2.16-.04 5.62-.04 9.75 0 .86.25 1.3.43 1.51.36.29 1.01.54 1.73.54 1.33 0 2.3-.47 2.92-.9l.14.04v1.26c-.83 1.26-2.63 2.23-4.79 2.23-1.8 0-3.17-.58-4-1.62-.61-.76-.83-1.58-.83-3.78v-9.04l-2.27-.58.54-1.37h1.84c.22-.97 1.08-3.49 1.62-4.32.72-.5 2.41-.94 2.88-.94l-.18 5.25h5.36zm17.71 13.1c0 .58.22.79.76 1.04l1.73.9-.25.97c-1.8.04-4.93-.04-6.98-.29.22-1.51.36-3.85.36-9.21 0-3.46-1.4-4.5-3.28-4.5-.97 0-1.91.4-2.59.9 0 3.67 0 10.33.07 10.87l2.56 1.22-.25.94c-1.55 0-3.06-.04-4.64-.04-1.48 0-2.92.04-4.39.04l.25-.94 1.94-1.22c.04-.43.07-3.35.07-8.06s0-8.67-.11-11.99l-2.09-1.08.22-.76c1.33-.5 4.18-.97 6.48-1.15-.07 3.06-.11 7.13-.11 10.73l.04.04c1.87-1.51 3.35-1.98 4.82-1.98 3.82 0 5.4 3.02 5.4 5.62v7.96zm8.82-5.32c-.04.22-.04.32-.04.5 0 3.56 2.23 5.94 5.26 5.94.36 0 .65-.04.97-.14 1.15-.9 2.63-1.91 3.46-2.3l.22.61c-.25 1.15-1.98 2.84-2.59 3.24-.68.25-2.38.76-3.74.76-4.89 0-8.17-3.09-8.17-8.21s3.82-8.64 8.21-8.64c3.67 0 6.62 2.34 6.62 6.48 0 .54-.11 1.01-.36 1.15-.32.18-1.69.61-3.71.61h-6.12zm5.65-1.51c.11-.29.18-.68.18-1.15 0-2.41-.86-4.17-2.52-4.17-2.2 0-3.28 3.38-3.31 5.33h5.65zm23.84 8.67l-.25 1.01c-1.51 0-2.95-.04-4.43-.04-1.58 0-3.13.04-4.68.04l.18-.94 2.12-1.19c.04-1.22.07-3.42.07-12.2 0-3.2 0-6.3-.11-8.06l-2.02-.97.29-.83c1.04-.43 4.54-.94 6.33-1.01-.07 2.99-.11 6.8-.11 10.73 0 7.2.04 10.04.07 12.38l2.52 1.08zm10.83-9.58c.07-3.09-1.62-3.85-3.13-3.85-.76 0-1.48.22-1.91.43-.14 1.37-.43 3.35-.65 4.14l-.36.25c-.36-.11-2.34-1.8-2.88-3.35 1.19-1.01 3.38-2.27 5.04-2.88.94-.36 1.76-.58 2.52-.58 4.36 0 5.62 3.28 5.62 5.47 0 2.52-.04 5.65-.07 7.99.4.65 1.58 1.48 2.66 1.87l-.14.58c-.4.32-1.44.86-2.84.86-2.45 0-3.42-1.12-3.78-1.94h-.04c-1.84 1.44-3.06 2.02-4.28 2.02-3.1 0-4.68-2.52-4.68-4.43 0-1.51.54-2.45 1.48-2.95 1.08-.68 5-2.02 7.45-2.66v-.97zm-1.94 8.5c.58 0 1.12-.22 1.58-.65.22-.18.29-.47.29-.79l.07-4.75c-1.04.36-2.48.94-3.35 1.48-.83.5-1.15 1.04-1.15 2.02 0 2.05 1.51 2.7 2.56 2.7zm24.8-13.5c-1.73 3.06-6.55 10.69-8.53 13.97v.07c1.73 0 5.04-.18 5.69-.29 1.04-1.48 2.2-2.95 2.81-3.46l.61-.18c-.04 1.04-.58 4.64-.86 5.65-2.12-.04-4.64-.22-8.03-.22h-6.05l-.18-.29c2.77-4.1 6.16-9.36 9.04-14.04v-.07c-.68 0-2.16 0-5.26.18-.54.97-1.44 2.41-2.09 3.2l-.58.14c-.18-.68-.29-4.57-.22-5.22l.11-.14 2.81.32h10.47l.25.36zm14.04-.43c.79 0 1.62.07 2.45.07 1.22 0 2.34-.07 3.35-.07l-.25.97c-.83.43-1.51.9-2.2 1.37-1.26 2.45-4.79 11.45-7.45 17.71-.47 2.09-.68 3.1-.97 4.21-.22.07-.5.14-.83.14-1.4 0-2.84-1.12-3.1-1.69.25-.58 1.91-2.23 3.49-3.67.36-.72 1.01-2.05 1.33-2.92-.36-.83-4.14-10.29-5.65-13.57-.29-.54-.65-.76-2.38-1.58l.29-.97c1.4.04 2.81.07 4.21.07 1.26 0 2.52-.04 3.78-.07l-.22 1.01-.97.97c.65 1.84 1.76 4.72 3.28 8.75h.11c.94-2.66 2.38-6.88 2.84-8.6l-1.48-1.15.36-.97zm30.64 13.24c.9 1.19 2.02 1.76 2.66 2.05l-.29.61c-.32.22-1.19.54-2.38.54-1.8 0-3.46-.65-4.1-1.94l-.04.04c-.65.4-2.56 1.91-4.36 1.91-3.28 0-7.56-2.52-7.56-7.95 0-6.01 5.22-8.89 9-8.89.61 0 1.66.36 2.63.94h.04c0-2.2-.04-4.97-.11-6.8l-2.27-1.01.25-.76c1.51-.47 4.14-1.01 6.62-1.15-.07 3.02-.11 6.88-.11 10.8v11.63zm-4.39-11.19c-.5-.32-1.26-.5-1.91-.5-2.66 0-5.11 2.56-5.11 6.3s2.27 6.01 5.08 6.01c.54 0 1.19-.14 1.94-.61v-11.19zm25.84 5.8c0 5.18-3.64 8.6-8.6 8.6-4.5 0-8.57-3.02-8.57-8.28s4.36-8.57 8.6-8.57c5.04 0 8.57 3.42 8.57 8.24zm-12.27-.22c0 3.24 1.15 7.42 4 7.42s3.38-4.18 3.38-6.8c0-2.99-1.04-7.23-3.78-7.23-2.59 0-3.6 3.71-3.6 6.62zm28-5.69v.07c.4.43 1.08 1.66 1.08 3.02 0 3.46-2.77 5.69-6.88 5.69-1.26 0-2.45-.25-3.53-.83-.29.43-.61.97-.61 1.26 0 .76.86 1.66 1.55 1.73 2.16-.11 5.04-.25 8.35.04 1.08.07 1.84.47 2.52 1.22.58.61 1.04 1.73 1.04 2.74 0 1.94-1.3 3.92-3.56 5.36-1.73 1.19-4 2.09-6.7 2.09-3.96 0-6.48-1.66-6.48-3.78 0-.58.36-1.08.83-1.58l2.56-2.41v-.07c-.9-.36-1.44-.83-2.12-1.58-.58-.65-1.01-1.73-1.01-2.38s1.58-2.3 2.7-3.1c-1.3-.86-2.16-2.3-2.16-4.1 0-3.28 3.13-5.72 7.2-5.72 1.15 0 1.98.11 2.84.29 1.08.18 1.91.32 2.95.47l3.17-1.3.14.29-1.48 2.45-2.41.14zm-8.6 15.19c-.4.36-.97 1.22-.97 1.87 0 2.05 2.16 3.38 4.57 3.38 2.7 0 4.93-1.19 4.93-3.56 0-.79-.5-1.58-1.73-1.84-.76-.14-1.66-.18-3.89-.18s-2.56.11-2.92.32zm.43-11.99c0 1.83.76 4.21 2.63 4.21s2.52-2.23 2.52-4.18c0-1.51-.5-4.25-2.52-4.25s-2.63 2.45-2.63 4.21zM7.23 319.07c.43-1.08 1.04-3.35 2.84-9.9l2.7-9.97-5.94-.25c-.83 1.19-2.7 3.28-3.6 4.14l-.61.11c.22-1.22 1.04-4.82 1.44-6.05l.18-.11c.4 0 1.98.25 2.81.47H23l3.02-.4c.04-.14.11-.32.11-.47l4.03-.61.36.04c-.43 1.4-1.73 5.58-5.04 17.17h.11c2.34-3.38 5.18-6.44 7.63-7.67.65-.32 2.12-.79 3.31-.79s1.51.36.97 2.12c-1.4 4.64-3.02 10.33-3.2 11.55l3.31-.14-.47 1.19c-2.05.61-6.55 1.94-7.63 2.38l-.29-.36c.14-1.01 3.6-11.45 4.14-13.43.11-.5 0-.65-.29-.65-1.22 0-4.5 3.56-6.62 7.02-1.33 2.2-1.91 3.71-2.95 6.73l-4.03.29c.83-2.7 1.87-6.34 3.46-12.42.97-3.53 1.73-6.41 2.52-9.54l-2.66-.58-5.76.25-2.3 8.78c-2.34 9.04-2.52 10.15-2.74 11.12l4.21 1.15-.43.97c-2.16 0-4.32-.04-6.48-.04s-4.21.04-6.3.04l.4-.94 3.85-1.22zm46.22-1.76c-1.91 2.7-4.86 4.36-7.99 4.36-2.84 0-5.44-1.33-5.51-5.58-.04-4.57 3.89-11.27 10.29-11.27 2.84 0 4.36 1.69 4.39 3.85.04 1.01-.4 1.94-1.08 2.48-1.22 1.33-6.19 2.7-9.07 3.17-.18.72-.22 1.3-.22 1.94 0 1.55.61 3.17 2.7 3.17 2.38 0 4.93-1.91 6.23-3.49l.11.04.14 1.33zm-8.75-4.39c1.73-.36 4.68-1.15 5.51-2.45.43-.65.68-1.51.68-2.56 0-1.3-.54-1.76-1.15-1.76-1.62 0-4 2.74-5.04 6.77zm24.45 15.22c.68-.36 1.73-.79 2.56-1.15.68-1.62 1.3-3.78 3.78-11.7h-.11c-3.71 5.04-6.88 6.37-8.71 6.37-1.26 0-2.88-.94-2.88-4 0-6.44 6.08-12.85 11.09-12.85 1.62 0 2.52 1.15 2.84 1.8h.07l.36-.9c.97-.36 3.28-.79 4.36-.9l.14.36-1.3 1.87c-1.08 3.02-4.18 14.83-5.44 19.91l2.92.94-.32.86c-2.09.22-7.13.29-9.57.29l.22-.9zm-1.26-10.19c0 .9.32 1.44.83 1.44 1.3 0 3.6-2.02 5.4-4.5 1.55-2.09 2.12-3.24 3.13-6.88-.43-.86-1.12-1.55-1.98-1.55-3.49 0-7.38 7.67-7.38 11.48zm16.63-10.62l.29-.76c1.51-.61 5.62-1.58 7.16-1.8l.29.07c-.97 2.48-3.71 11.3-4.21 13.32-.14.61-.11.86.29.86 1.66 0 4.68-3.24 6.8-7.02 1.12-1.98 1.8-3.64 2.77-6.59 1.33-.25 3.02-.5 4.54-.65l.14.25-1.48 2.02c-.79 2.12-2.23 7.78-3.28 11.91l.07.07c2.3-.61 3.53-2.38 4-3.02l.25.65c-.36 2.02-2.59 5-7.13 5-.65 0-1.15-.07-1.58-.22.47-1.51 1.22-4.07 2.41-7.88h-.18c-2.12 3.2-4.36 5.94-6.8 7.2-.97.54-2.16.9-3.31.9-1.08 0-2.3-.32-1.55-2.99 1.04-3.71 2.66-8.82 3.24-10.91l-2.74-.43zm21.17.04l.32-.83c1.22-.65 5.4-1.69 6.77-1.76l.07.11c-2.12 6.84-4.07 13.39-4.36 14.76l.07.04c1.4-.29 3.71-2.77 4.54-3.74l.14.61c-.25 1.62-2.2 5.11-6.44 5.11-1.58 0-2.63-1.08-1.76-4.07.29-1.04 1.62-5.47 3.02-9.83l-2.38-.4zm6.84-10.26c.47.4 1.26 1.91 1.37 2.66l-.07.22c-.43.72-2.16 2.2-2.81 2.48h-.25c-.5-.43-1.22-1.76-1.51-2.77l.07-.11c1.04-1.4 2.45-2.23 2.99-2.48h.22zm16.09 20.2c-1.62 2.23-4.1 4.36-7.88 4.36s-5.18-2.63-5.18-5.69c0-2.45 1.01-5.69 3.71-8.21 2.2-1.98 4.72-2.95 7.09-2.95 1.91 0 3.13.58 3.49.97-.11.68-1.26 3.46-1.84 4.25l-.68.29c-.25-.54-.72-2.23-1.04-4.1-.11 0-.25-.04-.4-.04-.9 0-2.16.5-3.38 1.91-1.8 2.05-2.63 4.9-2.63 7.38s1.01 3.85 2.77 3.85c2.45 0 4.72-2.23 5.62-3.28l.07.04.29 1.22zm5.29-19.3l.32-.83c1.4-.54 5.65-1.15 6.88-1.15l.07.07c-.94 2.95-4.54 15.51-7.16 24.91-.97.11-3.1.29-4.28.4 2.45-7.78 5.33-18.03 6.55-22.93l-2.38-.47zm14.43 8.28c-2.66.61-3.13.76-4.07 1.3-.97.61-2.12 1.55-3.74 3.13l-.04.04c.72 1.69 4.07 7.88 5.47 10.87l-.32.29c-2.59-.14-4.18-.47-5.76-3.24-1.26-2.23-2.84-5.54-3.02-6.23l.07-.14c1.69-1.62 2.92-2.66 5.26-5.18.68-.76.68-.94 1.04-2.3.9-.14 5.15.29 5.69.47l-.58 1.01zm11.89-9.11c1.69-.58 5.69-1.12 6.8-1.15l.14.11c-.43 1.51-1.91 5.9-4.43 14.4h.14c3.28-4.28 6.01-5.72 8.06-5.72s3.28 1.76 3.28 4.25c0 6.98-5.94 12.56-11.88 12.56-2.12 0-4.9-1.3-5.83-1.91 2.09-7.7 4.82-17.64 5.8-21.24l-2.41-.5.32-.79zm9.72 11.84c-.04-1.26-.47-1.98-1.08-1.98-.65 0-1.84.54-4.03 3.02-2.2 2.45-3.89 6.33-4 8.78.04.97.65 1.4 1.48 1.4 4.21 0 7.7-7.13 7.63-11.23zm7.12-2.48c1.19-.65 4.68-1.62 5.94-1.76l.07.07c.07 1.08-.07 3.28-.83 6.19h.11c3.06-5.72 5.47-6.26 6.84-6.26.61 0 1.15.18 1.44.47-.04 1.01-1.22 4.18-1.91 5.11l-.54.25c-.25-.54-.65-1.58-1.08-3.02-.04-.04-.11-.04-.18-.04-.54 0-2.16.94-4.46 6.12-.79 1.87-1.48 4.21-2.41 7.52l-4.14.29c1.94-6.23 3.42-12.2 3.53-13.71l-2.59-.4.22-.83zm29.45 4.75c0 5.33-4.25 10.37-9.97 10.37-3.2 0-5.72-2.34-5.76-6.23 0-5.72 4.68-10.62 10.01-10.62 3.42 0 5.72 2.52 5.72 6.48zm-11.45 5.65c0 2.3.68 3.38 1.84 3.38 2.7 0 5.33-6.23 5.33-10.87 0-1.84-.5-3.31-1.73-3.31-2.77 0-5.44 6.33-5.44 10.8zm13.86-9.53l.11-.86c1.33-.61 5.76-1.76 6.44-1.76l.07.11c-.04 3.96-.11 7.67-.11 11.66h.07c.86-1.4 2.56-3.78 4.97-7.92-.11-1.69-.14-2.23-.14-2.52.68-.54 3.06-1.33 4.14-1.33l.07.14c-.07.58-.25 1.37-.29 2.38.04 4 .43 9.39.54 9.9h.11c1.69-1.94 3.06-4.14 3.82-5.97.68-1.62 1.04-3.56.97-5.87 1.01-.54 2.02-.72 2.66-.72l.07.07c.22.29.47 1.26.43 2.23 0 3.71-6.48 10.55-9.18 13.64-.65.54-1.76 1.01-2.23 1.08l-.11-.07c-.18-.86-.58-7.38-.68-10.37h-.07c-2.27 3.42-4.57 6.95-6.37 9.36-.61.54-1.73 1.01-2.2 1.08l-.14-.04c-.04-1.01-.04-6.7-.18-10.62-.07-2.02-.18-2.99-.22-3.17l-2.56-.43zm25.2 14.07c.9-2.45 3.89-12.92 3.89-13.82l-2.59-.29.29-.86c1.15-.5 5.83-1.66 6.88-1.73l.07.11c-.14.79-1.4 4.75-2.52 8.5h.07c2.34-3.56 4.93-6.51 7.56-7.77.79-.36 2.12-.83 3.53-.83 1.3 0 1.44.22.9 2.09-1.4 4.64-3.02 10.33-3.2 11.66l3.31-.22-.47 1.19c-2.05.61-6.59 1.94-7.67 2.38l-.29-.4c.18-.97 3.56-11.38 4.14-13.39.14-.5.07-.61-.18-.61-1.62 0-4.57 3.46-6.59 6.77-1.37 2.2-2.05 3.82-3.1 6.95l-4.03.29zm32.62-16.02c.58-2.12 1.69-5.22 4.32-7.38 1.76-1.48 3.64-2.05 5.26-2.05 1.37 0 2.45.25 3.2 1.04-.47 1.3-1.44 2.95-2.05 3.67l-.68.18c-.18-.58-.65-2.3-.83-3.46-.11-.04-.25-.07-.43-.07-1.01 0-2.92.68-4.5 8.1H275l-.65 1.3-3.74.47c-.86 3.67-1.44 6.19-2.63 10.69-1.33 5.11-2.63 7.34-5.04 9.36-1.91 1.51-3.56 2.2-4.97 2.2s-2.66-.61-3.13-1.48l1.62-2.63.47-.04c.83 1.19 2.2 1.98 3.2 1.98.86 0 1.66-.4 2.52-4.03 1.22-5.04 1.94-8.17 3.71-16.09l-2.88-.61.68-1.15h2.59zm22.75 5.83c0 5.33-4.25 10.37-9.97 10.37-3.2 0-5.72-2.34-5.76-6.23 0-5.72 4.68-10.62 10.01-10.62 3.42 0 5.72 2.52 5.72 6.48zm-11.45 5.65c0 2.3.68 3.38 1.84 3.38 2.7 0 5.33-6.23 5.33-10.87 0-1.84-.5-3.31-1.73-3.31-2.77 0-5.44 6.33-5.44 10.8zm12.82-.79c.72 1.01 1.69 2.05 2.45 2.63 1.08-.43 3.89-3.78 5.18-5.58-.79-3.13-1.4-4.86-1.69-5.44-.61.29-2.38 1.8-3.63 3.38l-.5-.72c.94-2.52 3.6-5.54 6.77-5.65.83.79 1.48 3.42 2.05 5.33h.11c1.01-1.3 1.66-2.12 2.41-3.02 1.19-1.44 2.09-2.27 2.81-2.52h.36c.94.68 1.62 2.77 1.66 5l-.76.65c-.5-.97-1.22-2.27-1.87-2.66-.72.29-3.24 2.95-4.21 4.21.68 2.23 1.44 5.11 1.84 6.33.11.29.18.43.32.43.22 0 1.83-.9 3.56-3.38l.43.79c-.97 3.74-4.21 5.76-7.42 5.72-.43-1.58-.9-3.46-1.76-6.77h-.07c-1.44 1.98-2.66 3.74-3.53 4.82-1.15 1.48-2.09 2.2-2.45 2.38-.18 0-.36 0-.54-.04-.83-.72-1.91-3.17-2.12-5.18l.61-.72zm28.62-9.21l.43-.9c1.26-.47 5.22-1.22 6.77-1.26l.07.07a327.38 327.38 0 0 1-3.49 13.46c-.9 3.31-1.58 5.22-2.88 6.8-2.38 2.99-5.08 4.1-6.01 4.43l-.72-.94c1.51-.97 3.46-2.23 4.97-7.88 1.48-5.69 1.76-6.55 3.42-13.39l-2.56-.4zm6.84-9.83c.47.4 1.3 1.91 1.37 2.66l-.07.22c-.4.72-2.16 2.2-2.81 2.48h-.22c-.54-.43-1.26-1.76-1.51-2.77l.04-.11c1.04-1.4 2.45-2.23 2.99-2.48h.22zm3.2 10.22l.29-.76c1.51-.61 5.62-1.58 7.16-1.8l.29.07c-.97 2.48-3.71 11.3-4.21 13.32-.14.61-.11.86.29.86 1.66 0 4.68-3.24 6.8-7.02 1.12-1.98 1.8-3.64 2.77-6.59 1.33-.25 3.02-.5 4.54-.65l.14.25-1.48 2.02c-.79 2.12-2.23 7.78-3.28 11.91l.07.07c2.3-.61 3.53-2.38 4-3.02l.25.65c-.36 2.02-2.59 5-7.13 5-.65 0-1.15-.07-1.58-.22.47-1.51 1.22-4.07 2.41-7.88h-.18c-2.12 3.2-4.36 5.94-6.8 7.2-.97.54-2.16.9-3.31.9-1.08 0-2.3-.32-1.55-2.99 1.04-3.71 2.66-8.82 3.24-10.91l-2.74-.43zm19.44 14.15c.9-2.45 3.89-12.89 3.89-13.82l-2.59-.29.25-.86c1.22-.5 5.76-1.66 6.84-1.73l.11.11c-.25 1.08-1.37 4.75-2.52 8.39l.11.04c2.41-3.78 5.11-6.59 7.52-7.7a8.31 8.31 0 0 1 3.63-.83c.86 0 1.04.22.54 2.27-.58 1.98-1.08 3.71-1.84 6.08h.11c2.2-3.35 4.75-6.23 7.45-7.52.76-.36 2.16-.83 3.67-.83 1.04 0 1.26.25.72 2.09-1.33 4.64-2.99 10.33-3.2 11.66l3.31-.22-.43 1.19c-2.05.61-6.59 1.94-7.67 2.38l-.32-.4c.22-.97 3.64-11.41 4.18-13.43.11-.47.04-.61-.22-.61-1.3 0-4.5 3.2-6.7 6.91-1.3 2.16-1.91 3.82-2.95 6.84l-4.07.29c.72-2.09 3.56-10.91 4-13.43.11-.47.04-.61-.25-.61-1.26 0-4.25 2.84-6.62 6.91-1.26 2.16-1.84 3.82-2.92 6.84l-4.03.29zm31.39-14.11l.29-.86c.94-.54 5.54-1.84 6.84-1.91l.07.11-2.12 6.91.07.04c3.78-5.4 6.88-6.88 8.89-6.88s3.02 1.76 3.02 4.25c0 6.95-5.94 12.6-11.38 12.6-.9 0-1.91-.29-2.63-.79-.4 1.22-.72 2.52-1.55 5.87l2.92.97-.47.94c-1.37.07-7.05.43-9.43.43l.36-.97 2.34-1.19c.32-.72 1.3-4.07 2.34-7.92 1.22-4.5 2.52-9.29 3.06-11.34l-2.63-.25zm12.71 1.55c-.04-1.04-.36-1.76-.94-1.76-.86 0-2.38.97-4.5 3.85-1.87 2.41-3.02 5.25-3.67 7.81.29.9 1.01 1.44 1.62 1.44 3.85 0 7.49-6.98 7.49-11.34zm18.43-2.81c-.32 1.12-1.33 3.13-1.8 3.78l-.54.22c-.18-.68-.54-2.09-.72-3.71-.18-.11-.47-.22-1.19-.22-1.69 0-2.81 1.04-2.84 2.3 0 1.19 1.12 2.05 2.88 3.49 2.2 1.84 2.84 2.88 2.84 4.64 0 2.34-2.3 5.04-6.62 5.04-2.52 0-4.82-1.26-5.54-1.98.43-1.01 1.19-2.7 2.09-4.07l.58-.18c.18.58.58 2.41.9 4.5.43.18.97.32 1.84.32 1.87 0 3.1-1.04 3.06-2.23 0-1.04-.65-1.84-2.48-3.35-2.34-1.94-2.88-3.28-2.88-4.61 0-3.28 3.06-5.25 6.37-5.25 1.66 0 3.38.61 4.07 1.3zm25.52 5.18c0 5.33-4.25 10.37-9.97 10.37-3.2 0-5.72-2.34-5.76-6.23 0-5.72 4.68-10.62 10.01-10.62 3.42 0 5.72 2.52 5.72 6.48zm-11.45 5.65c0 2.3.68 3.38 1.84 3.38 2.7 0 5.33-6.23 5.33-10.87 0-1.84-.5-3.31-1.73-3.31-2.77 0-5.44 6.33-5.44 10.8zm13.9-9.53l.18-.86c1.15-.61 5.47-1.76 6.16-1.76l.11.07c.07 4.21.11 8.31.29 12.6l.07.04c1.66-1.69 3.71-4.39 4.57-6.41.68-1.58 1.04-3.13.9-5.72.76-.43 1.8-.72 2.74-.76l.04.04c.25.4.54 1.4.54 2.3 0 3.78-7.02 10.33-10.01 13.68-.47.5-1.76.97-2.3 1.04l-.14-.04c-.07-1.12-.29-6.66-.5-10.65-.11-1.98-.25-3.02-.29-3.24l-2.34-.32zm30.35 9.9c-1.91 2.7-4.86 4.36-7.99 4.36-2.84 0-5.44-1.33-5.51-5.58-.04-4.57 3.89-11.27 10.29-11.27 2.84 0 4.36 1.69 4.39 3.85.04 1.01-.4 1.94-1.08 2.48-1.22 1.33-6.19 2.7-9.07 3.17-.18.72-.22 1.3-.22 1.94 0 1.55.61 3.17 2.7 3.17 2.38 0 4.93-1.91 6.23-3.49l.11.04.14 1.33zm-8.75-4.39c1.73-.36 4.68-1.15 5.51-2.45.43-.65.68-1.51.68-2.56 0-1.3-.54-1.76-1.15-1.76-1.62 0-4 2.74-5.04 6.77zm12.53-6.38c1.19-.65 4.68-1.62 5.94-1.76l.07.07c.07 1.08-.07 3.28-.83 6.19h.11c3.06-5.72 5.47-6.26 6.84-6.26.61 0 1.15.18 1.44.47-.04 1.01-1.22 4.18-1.91 5.11l-.54.25c-.25-.54-.65-1.58-1.08-3.02-.04-.04-.11-.04-.18-.04-.54 0-2.16.94-4.46 6.12-.79 1.87-1.48 4.21-2.41 7.52l-4.14.29c1.94-6.23 3.42-12.2 3.53-13.71l-2.59-.4.22-.83zm31.46-6.66l.22.22-1.66 5.36h4.54l-.68 1.3-4.32.43c-.72 2.41-2.3 7.74-3.35 12.35l.04.07c2.02-.4 4.07-1.98 5.87-4.21l.18.9c-1.48 4.5-5.72 5.36-7.56 5.36-2.2 0-2.95-1.01-2.48-3.06.47-1.94 2.45-8.67 3.24-11.41l-2.84-.43.79-1.3h2.56l1.01-3.42 4.46-2.16zm1.91 21.6c.79-2.74 1.83-6.37 3.46-12.46 1.66-6.16 2.41-9.14 2.7-10.55l-2.59-.47.43-.83c1.37-.54 5.62-1.15 6.95-1.15l.07.07c-.43 1.51-1.76 5.69-5 17.06h.11c2.27-3.42 5.11-6.33 7.56-7.56.68-.32 2.12-.83 3.31-.83s1.58.29 1.04 2.09c-1.4 4.68-3.02 10.33-3.2 11.66l3.31-.22-.47 1.19c-2.05.61-6.55 1.94-7.67 2.38l-.29-.36c.14-1.01 3.53-11.41 4.1-13.39.11-.47 0-.61-.25-.61-1.19 0-4.46 3.28-6.59 6.84-1.33 2.23-1.94 3.92-2.95 6.84l-4.03.29zm34.02-4.17c-1.91 2.7-4.86 4.36-7.99 4.36-2.84 0-5.44-1.33-5.51-5.58-.04-4.57 3.89-11.27 10.29-11.27 2.84 0 4.36 1.69 4.39 3.85.04 1.01-.4 1.94-1.08 2.48-1.22 1.33-6.19 2.7-9.07 3.17-.18.72-.22 1.3-.22 1.94 0 1.55.61 3.17 2.7 3.17 2.38 0 4.93-1.91 6.23-3.49l.11.04.14 1.33zm-8.75-4.39c1.73-.36 4.68-1.15 5.51-2.45.43-.65.68-1.51.68-2.56 0-1.3-.54-1.76-1.15-1.76-1.62 0-4 2.74-5.04 6.77zm22.86-14.91l.32-.86c1.48-.54 5.72-1.12 6.88-1.12l.11.07c-.76 2.34-1.69 5.29-3.56 11.95-1.91 6.7-2.84 10.29-3.24 11.55l.07.07c1.33-.32 3.6-2.74 4.57-4l.29.47c-.25 2.09-2.48 5.51-6.51 5.51-1.73 0-2.7-1.12-1.94-3.96.58-2.05 4.17-14.69 5.43-19.19l-2.41-.5zm26.1 6.66l.18.32-1.55 2.02c-1.22 3.67-2.52 8.86-3.24 11.95l.07.04c1.87-.54 3.49-2.45 4.25-3.38l.22.29c-.11 2.66-3.13 5.76-7.45 5.76-.43 0-.97-.07-1.26-.14.4-1.62 1.37-5.08 1.91-7.02h-.07c-2.77 3.92-6.01 7.16-9.03 7.16-1.73 0-2.66-1.44-2.66-3.6 0-3.1 1.84-7.7 5.98-10.8 1.91-1.4 3.85-2.05 5.65-2.05 1.12 0 1.91.36 2.45.83l.29-.94 4.28-.43zm-7.88 8.86c1.44-2.2 2.02-3.67 2.74-6.26-.29-.25-.72-.43-1.33-.43-.97 0-2.45.5-4.03 2.23-2.48 2.66-3.92 6.48-3.92 8.71 0 1.01.36 1.37.65 1.37.94 0 2.95-1.19 5.9-5.62zm24.58 2.88c-2.59 4.97-4.1 5.69-4.72 5.9-.79 0-1.98-.5-3.53-1.15-1.26-.58-2.12-.86-2.81-1.04-1.04-.29-1.73-.18-2.27.25-.43.29-.76.68-1.3 1.37l-.36.04c-.32-.36-.43-1.22-.04-2.16.36-.79 1.22-1.66 2.09-2.27 3.13-2.88 8.24-8.06 8.89-8.82l-.04-.07c-1.3.25-1.98.25-3.49.11-.97-.07-1.58-.14-2.23-.22-.79.43-2.81 2.56-3.38 3.28l-.72-.86c.97-2.12 3.2-5.47 3.96-6.05.58.18 3.71.97 6.7.97 1.33 0 2.3-.18 3.78-1.4l.54 1.04c-.4.9-6.77 7.38-11.37 11.84l.04.07c.79-.07 1.8.11 3.1.47 1.12.36 1.94.72 2.74.97.9-.36 2.16-1.48 3.74-3.28l.68 1.01zm1.7-6.09c1.62-4.1 4.03-5.51 5.51-5.54 1.01.04 2.05 1.01 2.7 4.1.54 2.48.76 6.08.76 8.96h.07c1.37-2.12 3.67-8.21 3.74-10.19l-1.08-1.48.07-.4c1.01-.54 2.38-.97 3.42-.97.29 0 .54.07.54.32-.36 2.16-1.01 4.07-2.27 7.13a48.09 48.09 0 0 1-6.98 11.48c-3.35 4.14-6.12 5.76-6.69 5.76-.47 0-1.73-.94-2.27-3.56l.14-.43c1.08.04 2.3.4 3.92 1.08.25-.14 1.4-1.01 2.38-2.34 1.19-1.73 1.58-3.1 1.58-5.51-.04-3.28-.68-7.59-1.51-9.79-.18-.58-.36-.9-.61-.9-.29 0-1.48 1.3-2.59 3.1l-.83-.83zm38.15-13.14c1.4-.58 4.54-1.15 7.02-1.15l.11.07c-1.91 5.94-5.29 17.46-6.44 22.89l.07.04c2.38-.97 3.78-2.95 4.14-3.46l.36.36c-.29 2.88-3.35 5.72-7.27 5.72-.72 0-1.3-.11-1.66-.22.47-1.62 1.4-4.97 1.91-6.8h-.14c-2.81 4.03-5.72 7.02-8.82 7.02-1.76 0-2.95-1.76-2.95-4.25 0-5.9 5.51-12.6 11.05-12.6 1.33 0 2.2.5 2.88 1.22.86-2.95 1.58-5.54 2.09-7.56l-2.77-.47.43-.83zm-9.47 20.3c0 1.04.32 1.62.9 1.62.86 0 3.09-1.33 5.65-5.29 1.4-2.16 1.98-3.89 2.74-6.34-.43-.5-1.15-.9-1.94-.9-3.53 0-7.34 6.55-7.34 10.91zm32.55-6.19c0 5.33-4.25 10.37-9.97 10.37-3.2 0-5.72-2.34-5.76-6.23 0-5.72 4.68-10.62 10.01-10.62 3.42 0 5.72 2.52 5.72 6.48zm-11.45 5.65c0 2.3.68 3.38 1.84 3.38 2.7 0 5.33-6.23 5.33-10.87 0-1.84-.5-3.31-1.73-3.31-2.77 0-5.44 6.33-5.44 10.8zm29.38-10l-2.59.18-.04.07c.32.47.76 1.33.76 2.77 0 3.35-2.7 6.98-7.7 6.98-.58 0-1.22-.07-1.76-.29-.22.29-.36.68-.32.97.07.36.54.83 1.62 1.26 1.4.58 3.42 1.44 5.29 2.3 1.62.72 2.52 1.8 2.52 2.92-.04 3.42-5.47 5.44-8.5 5.44-6.59 0-7.96-3.6-7.96-4.79 0-.4.14-.76.54-1.04.97-.72 2.66-1.66 4.64-2.45v-.07c-.79-.61-1.22-1.62-1.22-2.3s1.22-1.91 2.38-2.66c-1.73-1.01-2.27-2.7-2.27-4.28 0-3.56 3.24-7.16 7.85-7.13.76 0 1.48.11 2.41.29.94.22 1.69.4 2.34.5l3.35-1.8.25.4-1.58 2.74zM673 325.87c0-.61-.4-1.08-1.69-1.69-1.37-.68-3.35-1.55-5.15-2.3-1.26.68-2.56 1.58-2.56 2.63 0 1.33 2.09 3.49 5.83 3.49 2.27 0 3.56-1.04 3.56-2.12zm-5.22-12.2c0 1.48.61 2.02 1.37 2.02 2.3 0 4.03-4.9 4.03-7.34 0-1.55-.43-2.23-1.26-2.23-2.09 0-4.14 4.43-4.14 7.56z" class="cls-1"/></svg>