<svg xmlns="http://www.w3.org/2000/svg" id="b98bf8eb-a9eb-4207-a311-89e5a8e0b35d" viewBox="0 0 800 1016.8" width="800" height="1016.8"><style>.st0{fill:#505050}.st1{fill:#b3b3b3}.st2{fill:none;stroke:#2997ff;stroke-width:2.2054;stroke-miterlimit:10}.st3{fill:#fff}.st4{fill:none;stroke:#b3b3b3;stroke-width:4.4109;stroke-miterlimit:10}</style><path d="M15.6 123.5L2 86.5h4l6.9 18.9c2 5.5 4.1 11.4 4.9 14.6h.1c.8-2.9 3.1-9 5.1-14.4l7.1-19.1H34l-14.1 37h-4.3zm36.8-5.4c0 1.8.1 3.6.4 5.4h-3.4c-.3-1.3-.5-2.5-.5-3.8-.9 1.9-3.1 4.4-8.5 4.4-6.2 0-8.9-4-8.9-8.1 0-5.9 4.6-8.6 12.5-8.6h4.8V105c0-2.5-.7-5.8-6.4-5.8-5 0-5.7 2.5-6.3 4.7h-3.5c.3-3.3 2.4-7.7 9.8-7.7 6.3 0 9.8 2.6 9.8 8.6l.2 13.3zm-3.5-8h-4.8c-5.6 0-8.9 1.5-8.9 5.7 0 3.1 2.2 5.3 5.7 5.3 7.1 0 8.1-4.7 8.1-10.1l-.1-.9zm9.7-6c0-4.1 0-6.1-.1-7.2H62c.1.8.1 2.7.1 5.7 1.4-3.8 5.1-6.3 9.1-6.4v3.7c-5.5.3-9.1 3.7-9.1 10.2v13.4h-3.5v-19.4zM74 84.5h3.5v5.4H74v-5.4zm0 12.3h3.5v26.6H74V96.8zm28.4 21.3c0 1.8.1 3.6.4 5.4h-3.4c-.3-1.3-.5-2.5-.5-3.8-.9 1.9-3.2 4.5-8.5 4.5-6.2 0-8.9-4-8.9-8.1 0-5.9 4.6-8.6 12.5-8.6h4.8V105c0-2.5-.8-5.8-6.4-5.8-5 0-5.7 2.5-6.3 4.7h-3.5c.3-3.3 2.4-7.7 9.8-7.7 6.3 0 9.8 2.6 9.8 8.6l.2 13.3zm-3.5-8h-4.8c-5.6 0-8.9 1.5-8.9 5.7 0 3.1 2.2 5.3 5.7 5.3 7.1 0 8-4.7 8-10.1v-.9zm9.8-25.6h3.5V101c1.2-2.5 3.8-4.8 8.8-4.8 6.5 0 10.9 5.3 10.9 13.4 0 8.3-4.1 14.5-11.6 14.5-4.4 0-6.8-1.7-8.2-4.5 0 1.6-.1 3.2-.1 3.9h-3.4c.1-3 .1-6 .1-9v-30zm19.5 25.1c0-6.2-3-10.3-7.9-10.3-6.2 0-8.4 4.2-8.4 10.9 0 6 1.9 10.8 8.1 10.8 5.2 0 8.2-4.3 8.2-11.4zm7.9 13.9v-39h3.6v39h-3.6zm11.4-12.8c0 6.2 3.2 10.3 8 10.3 4.6 0 6.2-2.5 7.1-4.6h3.6c-1.1 3.5-3.9 7.7-10.8 7.7-8.2 0-11.5-6.9-11.5-13.7 0-7.8 3.9-14.2 11.8-14.2 8.4 0 11.1 7 11.1 12.3 0 .8 0 1.5-.1 2.2h-19.2zm15.6-2.8c-.1-4.9-2.6-8.7-7.5-8.7-5.1 0-7.4 3.6-8 8.7h15.5z" class="st0"/><path d="M19.8 45.5h-6L12 28l-2 17.5H3.9L1.3 21.1h5.4l.8 19.5 2-16.7h5l1.9 16.7 1.2-19.5h5l-2.8 24.4zM33 42.1c1.7 0 3.4-.6 4.8-1.6l2.2 3c-2.1 1.7-4.7 2.7-7.5 2.6-6.4 0-9.7-4.1-9.7-9.9 0-5.5 3.2-10 9.1-10 5.4 0 8.8 3.6 8.8 9.6 0 .7-.1 1.3-.1 2H28.4c.4 3.1 2.2 4.3 4.6 4.3zm-4.6-7.7h6.9c0-2.7-1-4.5-3.4-4.5-2 0-3.3 1.4-3.5 4.5zm26.4 7.3h4.8v3.8H43.9v-3.8h5.3V30.6h-5.1v-3.8h10.7v14.9zm-.1-21.6c0 1.8-1.5 3.3-3.3 3.3s-3.3-1.5-3.3-3.3c0-1.7 1.4-3.1 3.1-3.1h.2c1.7-.1 3.2 1.2 3.3 2.9v.2zM81 27.9c-1.7.6-3.6.8-5.4.7 2.4 1 3.6 2.4 3.6 4.8 0 3.6-3.1 6.3-7.9 6.3-.7 0-1.5-.1-2.2-.2-.4.2-.6.6-.6 1.1 0 .6.2 1.1 2 1.1h3.1c4.3 0 7.1 2.3 7.1 5.4 0 3.9-3.4 6.2-10 6.2-7.2 0-9.1-2.3-9.1-6h4.9c0 1.6.7 2.4 4.3 2.4s4.3-.9 4.3-2.2c0-1.1-.8-1.9-2.7-1.9h-2.9c-4.1 0-5.8-1.7-5.8-3.7 0-1.5.8-2.8 2.1-3.6-2.4-1.3-3.3-2.9-3.3-5.4 0-4.2 3.5-6.8 8.4-6.8 3.1.1 6.2-.7 8.8-2.4l1.3 4.2zM68.2 33c0 2 1.1 3.2 2.9 3.2 1.8 0 2.9-1.1 2.9-3.3s-1-3.1-2.9-3.1c-1.8 0-2.9 1.2-2.9 3.2zm20.3-4.3c1.4-1.6 3.4-2.5 5.5-2.5 3.3 0 5.1 2.1 5.1 5.6v13.8h-5.6V33.3c0-2.3-.4-3-1.8-3-1.2 0-2.2.9-3.3 2.3v13h-5.6V19.4l5.6-.6.1 9.9zm24.9 17.5c-4.9 0-7.2-2.7-7.2-7v-8.5h-3.9v-3.8h3.9v-4.1l5.6-.7v4.7h6.1l-.6 3.8h-5.5v8.5c0 1.9.8 2.6 2.7 2.6 1.1 0 2.3-.3 3.3-.8l1.8 3.6c-1.9 1.1-4 1.7-6.2 1.7zm183.5-.7h-6L289.1 28l-2 17.5H281L278.4 21h5.4l.8 19.5 2-16.7h5l1.9 16.7 1.2-19.5h5l-2.8 24.5zm15.3-3.8h4.8v3.8h-15.7v-3.8h5.3V30.6h-5.1v-3.8h10.7v14.9zm-.1-21.6c0 1.8-1.5 3.3-3.3 3.3s-3.3-1.5-3.3-3.3c0-1.7 1.4-3.1 3.1-3.1h.2c1.7-.1 3.2 1.2 3.3 2.9v.2zm24.6-.7v26.2h-4.9l-.3-2.1c-1.2 1.7-3.1 2.7-5.2 2.6-4.7 0-6.9-4-6.9-10 0-5.8 2.9-10 7.5-10 1.6 0 3.1.6 4.2 1.8v-9.2l5.6.7zm-11.5 16.8c0 4.6 1.2 5.9 2.9 5.9 1.3 0 2.3-.8 3.1-2.1v-8.1c-.6-.9-1.6-1.5-2.7-1.6-2 0-3.3 1.6-3.3 5.9zm25.8 10c-4.9 0-7.2-2.7-7.2-7v-8.5h-3.9v-3.8h3.9v-4.1l5.6-.7v4.7h6l-.6 3.8h-5.5v8.5c0 1.9.8 2.6 2.7 2.6 1.1 0 2.3-.3 3.3-.8l1.8 3.6c-1.8 1.1-3.9 1.7-6.1 1.7zm14.6-17.5c1.4-1.6 3.4-2.5 5.5-2.5 3.3 0 5.1 2.1 5.1 5.6v13.8h-5.6V33.3c0-2.3-.4-3-1.8-3-1.2 0-2.2.9-3.3 2.3v13H360V19.4l5.6-.6v9.9z" class="st1"/><path d="M294.7 136l-16.8-37.7h4.6l9.1 20.7c3.4 7.6 4.7 11 5.4 13h.1c.6-1.7 2.6-6.4 4.9-11.7l9.8-22.1h4.5l-17.1 37.7-4.5.1zm44.2-6.4c0 2.3.2 5.7.3 6.3h-3.8c-.2-1.4-.3-2.8-.3-4.2-1.4 2.9-4.4 4.9-10.2 4.9-7.6 0-10.3-4.6-10.3-8.5 0-6.8 6.2-8.6 13.7-8.6h6.8V118c0-3.1-1.3-6.1-7.5-6.1-5.5 0-6.8 2.5-7.4 5.2h-4c.3-3.6 2.7-8.4 11.5-8.4 9.1 0 11.4 4.5 11.4 8.9l-.2 12zm-3.9-7h-6.6c-6.6 0-9.9 1.4-9.9 5.4 0 2.9 2.1 5.4 6.9 5.4 7.8 0 9.6-4.7 9.6-9.4v-1.4zm12.2-6c0-2.4 0-4.8-.1-7.2h3.9c.1.7.2 3.5.2 6.2 1.8-4.2 5.8-6.9 10.9-6.9v3.9c-6.1-.1-10.9 4-10.9 11.9V136h-4v-19.4zM366.4 96h4v5.8h-4V96zm0 13.3h4V136h-4v-26.7zm34.4 20.3c0 2.3.2 5.7.2 6.3h-3.8c-.2-1.4-.3-2.8-.3-4.2-1.4 2.9-4.4 4.9-10.2 4.9-7.6 0-10.3-4.6-10.3-8.5 0-6.8 6.2-8.6 13.7-8.6h6.8V118c0-3.1-1.3-6.1-7.5-6.1-5.5 0-6.9 2.5-7.4 5.2h-4c.3-3.6 2.7-8.4 11.4-8.4 9.1 0 11.4 4.5 11.4 8.9v12zm-3.9-7h-6.6c-6.6 0-9.9 1.4-9.9 5.4 0 2.9 2.1 5.4 6.9 5.4 7.8 0 9.6-4.7 9.6-9.4v-1.4zM408.8 96h4v17.7c1.3-2.2 4.3-5.2 10.2-5.2 7.5 0 12.8 5.9 12.8 13.6 0 8.8-5.4 14.5-13 14.5-5.9 0-8.6-2.6-10-5.2 0 1.5-.1 3.4-.1 4.5h-3.8c.1-3.2.1-6.2.1-9.2V96zm22.8 26.3c0-4.8-2.7-10.2-9.4-10.2-6.5 0-9.6 4.6-9.6 10.5 0 6.6 3.8 10.6 9.7 10.6 6.7 0 9.3-5.3 9.3-10.9zm10 13.7V96h4v40h-4zm13.9-12.5c.3 5.7 4.1 9.8 9.9 9.8 4.4 0 7-1.9 8.5-4.8h4c-1.4 3.7-5.1 8.2-12.9 8.2-9.1 0-13.6-6.9-13.6-14 0-8.2 5.4-14.1 13.5-14.1 10 0 13.4 7.5 13.4 13.8v1.1h-22.8zm18.6-3c-.2-3.5-2.1-8.6-9.2-8.6-5.8 0-8.7 3.7-9.3 8.6h18.5zm-182.8 96.1l-13.6-37h4l6.9 18.9c2 5.5 4.1 11.4 4.9 14.6h.1c.8-2.9 3.1-9 5.1-14.4l7.1-19.1h3.9l-14.1 37h-4.3zm37.8-5.4c0 1.8.1 3.6.4 5.4h-3.4c-.3-1.3-.5-2.5-.5-3.8-.9 1.9-3.2 4.5-8.5 4.5-6.2 0-8.9-4-8.9-8.1 0-5.9 4.6-8.6 12.5-8.6h4.8v-2.5c0-2.5-.8-5.8-6.4-5.8-5 0-5.7 2.5-6.3 4.7h-3.5c.3-3.3 2.4-7.7 9.8-7.7 6.3 0 9.8 2.6 9.8 8.6v13.3zm-3.5-7.9h-4.8c-5.6 0-8.9 1.5-8.9 5.7 0 3.1 2.2 5.3 5.7 5.3 7.1 0 8-4.7 8-10.1v-.9zm10.8-6.1c0-4.1 0-6.1-.1-7.2h3.5c.1.8.1 2.7.1 5.7 1.4-3.8 5.1-6.3 9.1-6.4v3.7c-5.5.3-9.1 3.7-9.1 10.2v13.4h-3.5v-19.4zm16.4-19.5h3.5v5.4h-3.5v-5.4zm0 12.3h3.5v26.6h-3.5V190zm29.5 21.2c0 1.8.1 3.6.4 5.4h-3.4c-.3-1.3-.5-2.5-.5-3.8-.9 1.9-3.2 4.5-8.5 4.5-6.2 0-8.9-4-8.9-8.1 0-5.9 4.6-8.6 12.5-8.6h4.8v-2.5c0-2.5-.7-5.8-6.4-5.8-5 0-5.7 2.5-6.3 4.7h-3.5c.3-3.3 2.4-7.7 9.8-7.7 6.3 0 9.8 2.6 9.8 8.6l.2 13.3zm-3.5-7.9H374c-5.6 0-8.9 1.5-8.9 5.7 0 3.1 2.2 5.3 5.7 5.3 7.1 0 8-4.7 8-10.1v-.9zm10.8-25.6h3.5v16.5c1.2-2.5 3.8-4.8 8.8-4.8 6.5 0 10.9 5.3 10.9 13.4 0 8.3-4.1 14.5-11.6 14.5-4.4 0-6.8-1.7-8.2-4.5 0 1.6-.1 3.2-.1 3.9h-3.4c.1-3 .1-6 .1-9v-30zm19.6 25.1c0-6.2-3-10.3-7.9-10.3-6.2 0-8.4 4.2-8.4 10.9 0 6 1.9 10.8 8.1 10.8 5.2-.1 8.2-4.3 8.2-11.4zm9 13.8v-39h3.6v39h-3.6zm12.4-12.7c0 6.2 3.2 10.3 8 10.3 4.6 0 6.2-2.5 7.1-4.6h3.6c-1.1 3.5-3.9 7.7-10.8 7.7-8.2 0-11.5-6.9-11.5-13.7 0-7.8 3.9-14.2 11.8-14.2 8.4 0 11.1 7 11.1 12.3 0 .8 0 1.5-.1 2.2h-19.2zm15.6-2.8c-.1-4.9-2.6-8.7-7.5-8.7-5.1 0-7.4 3.6-8 8.7h15.5zm-157.8 96.2L277.6 261h3.5l5.3 18.2c1.5 5.1 3.3 11.5 4 14.8h.1c.6-2.9 2.7-9.6 4.3-14.8l5.4-18.2h3.4l-11.3 36.4h-3.9zm32.2-5c0 1.7.1 3.3.3 5H318c-.2-1.3-.3-2.6-.3-3.9-1 2.6-3.4 4.4-7.4 4.4-5.9 0-7.7-4.3-7.7-7.9 0-4.1 2.7-8.4 11.2-8.4h3.8v-3.3c0-2.5-.6-5.4-5.1-5.4-4.3 0-5.3 2.5-5.6 5.1h-3.1c.3-4.2 2.5-7.8 8.9-7.8 5.1 0 8.2 2.4 8.2 7.8l-.3 14.4zm-3.1-8.1c-.9 0-2.2-.1-3.8-.1-6.2 0-8 2.7-8 5.7 0 2.9 1.6 5.2 5 5.2 5 0 6.8-3.4 6.8-9.8v-1zm9.5-4.4c0-4.2 0-7.6-.1-9.1h3.1c.1 1.1.1 2.6.1 5.3 1.2-3.5 4.4-5.8 8-5.8v3.4c-5.5.3-8 4.2-8 9.4v14.3H327v-17.5zm14.3-9.1h3.2v26.6h-3.2v-26.6zm0-11.6h3.2v5.4h-3.2v-5.4zm25.9 33.2c0 1.7.1 3.3.3 5h-2.9c-.2-1.3-.3-2.6-.3-3.9-1 2.6-3.4 4.4-7.4 4.4-5.9 0-7.7-4.3-7.7-7.9 0-4.1 2.7-8.4 11.2-8.4h3.8v-3.3c0-2.5-.6-5.4-5.1-5.4-4.3 0-5.3 2.5-5.6 5.1h-3.2c.3-4.2 2.5-7.8 8.9-7.8 5.1 0 8.2 2.4 8.2 7.8l-.2 14.4zm-3.1-8.1c-.9 0-2.2-.1-3.8-.1-6.2 0-8 2.7-8 5.7s1.6 5.2 5 5.2c5 0 6.8-3.4 6.8-9.8v-1zm9.4-25.1h3.2v15.5c1-2.2 3.3-4.4 7.5-4.4 5.7 0 9.1 4.6 9.1 13.1 0 8-2.8 14.5-9.9 14.5-3.8 0-5.8-1.8-6.8-4 0 1.2 0 2.4-.2 3.5h-3.1c.1-1.3.1-3.8.1-7.3l.1-30.9zm16.5 24.3c0-6.6-2.2-10.3-6.5-10.3-5.1 0-7 3.9-7 10.7 0 6.7 1.3 11.1 6.7 11.1 4.6 0 6.8-4.4 6.8-11.5zm8 13.9v-38.2h3.2v38.2H398zm11.2-12.8c0 6 1.9 10.5 6.7 10.5 4.7 0 5.7-3.9 6.1-5h3.2c-.4 1.9-2.1 7.8-9.4 7.8-7.9 0-9.8-7-9.8-13.9 0-7.4 3-13.8 10.1-13.8 7.5 0 9.5 6.2 9.5 12.4v1.9l-16.4.1zm13.1-2.6c-.1-5.2-1.8-8.9-6.4-8.9-5.6 0-6.5 6.2-6.6 8.9h13zM286.1 378l-8.5-35.9h3.2l4 17.6c1.2 5.1 2.6 11.8 3.1 15.1h.1c.4-2.9 2.2-9.9 3.5-15.1l4.2-17.6h3.1l-8.9 35.9h-3.8zm27.4-4.2c0 1.8.1 3.6.2 4.3H311c-.2-1-.3-2.1-.3-3.1-.9 2.3-3 3.6-6.1 3.6-4.9 0-6.7-3.9-6.7-7.6v-.1c0-4.8 3.1-8.4 9.9-8.4.9 0 1.9 0 2.8.1v-3.9c0-2.3-.5-5.1-4.2-5.1-4.1 0-4.4 3-4.6 4.9v.1h-2.9v-.1c.1-3.7 1.9-7.4 7.5-7.4 4.9 0 7 2.5 7 7.2v15.5zm-2.8-8.8c-.9-.1-1.8-.1-2.7-.1-5 0-7.1 2.4-7.1 5.8v.1c0 2.8 1.4 5.1 4.4 5.1 4 0 5.4-2.8 5.4-8.8V365zm8.2-4.5c0-4.2 0-7.2-.1-9.1h2.8c.1.8.1 2.1.1 4.8.9-3 3.7-5.1 6.8-5.1v3.2c-4.5.2-6.8 3.6-6.8 8.4V378h-2.9l.1-17.5zm12.2-9.1h2.9V378h-2.9v-26.6zm0-11h2.9v5.3h-2.9v-5.3zm22.2 33.4c0 1.8.1 3.6.2 4.3h-2.7c-.2-1-.3-2.1-.3-3.1-.9 2.3-3 3.6-6.1 3.6-4.9 0-6.7-3.9-6.7-7.6v-.1c0-4.8 3.1-8.4 9.9-8.4.9 0 1.9 0 2.8.1v-3.9c0-2.3-.5-5.1-4.2-5.1-4.1 0-4.4 3-4.6 4.9v.1h-2.9v-.1c.1-3.7 1.9-7.4 7.5-7.4 4.9 0 7 2.5 7 7.2l.1 15.5zm-2.8-8.8c-.9-.1-1.8-.1-2.7-.1-4.9 0-7.1 2.4-7.1 5.8v.1c0 2.8 1.4 5.1 4.4 5.1 4 0 5.4-2.8 5.4-8.8V365zm8.3-24.6h2.9v14.7c.8-2.1 2.6-4.1 6.3-4.1 4.8 0 7.4 3.9 7.4 12.3v1.6c0 7.7-2.1 13.6-8.1 13.6-3.2 0-4.9-1.6-5.7-3.7 0 1-.1 2.1-.1 3.2h-2.7c.1-1.3.1-3.7.1-7.2l-.1-30.4zm13.6 24.5v-1.6c0-6.7-1.7-9.7-5.1-9.7-4.4 0-5.7 4.1-5.7 10.6v1.1c0 6.2 1.1 10.4 5.4 10.4 3.6.1 5.4-3.4 5.4-10.8zm7.1 13.1v-37.6h2.9V378h-2.9zm10-12.9v.7c0 5.5 1 10.2 5.3 10.2s4.9-4.1 5.1-5.2h2.9c-.1 1-.9 7.8-8 7.8s-8.2-6.6-8.2-13v-1.5c0-7.8 2.6-13 8.5-13 6.4 0 8 5.5 8 11.7 0 .5 0 1.6-.1 2.4l-13.5-.1zm10.5-2.5v-.5c0-4.9-1.1-8.6-5.1-8.6-5.1 0-5.4 6.6-5.4 8.6v.5H400zm-114 96.1l-6.1-35.4h2.8l2.7 16.9c.8 5.1 2 11.8 2.3 15.2h.1c.3-3.3 1.6-10.1 2.3-15.1l2.8-17h2.7l-6.3 35.4H286zm21.5-4c0 1.9 0 3.4.1 4h-2.5c-.1-.8-.2-1.5-.2-2.3-.8 2.2-2.6 2.7-4.3 2.7-3.7 0-5.2-3.2-5.2-7.4v-.5c0-5.6 3.3-8 8-8h1.5v-4.8c0-2.6-.5-4.4-2.9-4.4s-3.1 1.8-3.1 4.2v.9h-2.6v-.9c0-3.6 1.5-6.6 5.8-6.6s5.5 2.9 5.5 6.6l-.1 16.5zm-2.6-9.3h-1.6c-3.4 0-5.4 1.5-5.4 5.7v.5c0 2.7.8 5.1 3.2 5.1 2.9 0 3.8-2.5 3.8-6.7v-4.6zm6.8-4.3c0-4.2 0-7-.1-9.1h2.5c.1.8.1 2 .1 4.1.6-2.5 2.8-4.3 5.4-4.4v3.2c-3.5 0-5.4 2.7-5.4 7.1v16.7h-2.6v-17.6zm9.8-9.1h2.6v26.6h-2.6V432zm0-10.2h2.6v5.2h-2.6v-5.2zm17.5 32.9c0 1.9 0 3.4.1 4h-2.5c-.1-.8-.2-1.5-.2-2.3-.8 2.2-2.6 2.7-4.3 2.7-3.7 0-5.2-3.2-5.2-7.4v-.5c0-5.6 3.3-8 8-8h1.5v-4.8c0-2.6-.5-4.4-2.9-4.4s-3.1 1.8-3.1 4.2v.9h-2.6v-.9c0-3.6 1.5-6.6 5.8-6.6s5.5 2.9 5.5 6.6l-.1 16.5zm-2.6-9.3h-1.6c-3.4 0-5.4 1.5-5.4 5.7v.5c0 2.7.8 5.1 3.2 5.1 2.9 0 3.8-2.5 3.8-6.7v-4.6zm6.8-23.7h2.6v12.9c.6-1.7 2-3 4.8-3 3.7 0 5.3 3 5.3 7.5v11c0 5-1.2 8.9-5.8 8.9-2.4 0-3.8-1.2-4.4-3 0 .9 0 1.8-.1 2.7h-2.3c.1-1.3.1-3.7.1-7.2l-.2-29.8zm10.1 28.8v-11.1c0-3.5-.9-5.4-3.4-5.4-3.7 0-4.1 3.7-4.1 7.8v7.7c0 4.8 1.1 7 3.9 7 2.3.1 3.6-1.8 3.6-6zm6 8.2v-36.9h2.6v36.9h-2.6zm8.6-13v4.7c0 3.1.6 6.5 3.6 6.5 2.8 0 3.4-2.2 3.4-5.1v-.3h2.6v.2c0 3.3-.8 7.5-6.1 7.5-4.7 0-6.1-3.3-6.1-8.7v-10.8c0-4.3 1.6-8 6.3-8s6 3.8 6 8.1v6l-9.7-.1zm7.1-2.3v-3.8c0-2.5-.3-5.7-3.5-5.7-3.1 0-3.6 2.7-3.6 5.8v3.7h7.1z" class="st0"/><path d="M564.3 46.2c-4.6 0-7.6-1.5-9.7-3.5l2.9-3.2c1.8 1.6 4.2 2.5 6.6 2.5 2.4 0 4.1-1.1 4.1-3 0-1.8-1-2.6-4.4-3.7-5.8-1.7-7.9-3.9-7.9-7.6 0-4.5 4.1-7.1 9.2-7.1 3.7 0 6.6 1.2 8.7 3.2l-2.7 3.1c-1.6-1.3-3.6-2-5.6-2.1-2.2 0-3.6.8-3.6 2.4s1.1 2.2 5 3.4c4.7 1.4 7.4 3.4 7.4 7.9s-3.8 7.7-10 7.7zm21.9-6.6c0 1.5.9 2.1 2.4 2.1.9 0 1.8-.2 2.7-.6l1.3 3.7c-1.7.9-3.5 1.3-5.4 1.2-4.5 0-6.6-2.8-6.6-7.2V23.2h-5.5v-3.8h11.1v20.2zm27 2.8l-1.2 3.7c-2.2-.2-3.7-.9-4.6-2.5-1.6 1.7-3.8 2.6-6.1 2.5-3.9 0-6.4-2.4-6.4-5.9 0-4.1 3.4-6.4 9.1-6.4h2.5v-.7c0-2-1.3-2.9-3.7-2.9-1.8.1-3.5.4-5.1 1l-1.3-3.7c2.3-.9 4.8-1.4 7.3-1.4 5.6 0 8.2 2.3 8.2 6.6v7.4c.1 1.4.4 2 1.3 2.3zm-6.6-2.3V37h-1.4c-3.1 0-4.5 1-4.5 2.8 0 1.5.9 2.3 2.5 2.3 1.4 0 2.7-.8 3.4-2zm9.4-13.3h4.9l.4 2.1c1.4-1.8 3.6-2.8 5.8-2.8 3.2 0 5.1 2.1 5.1 5.6v13.8h-5.6V33.4c0-2.3-.4-3.1-1.8-3.1-1.2 0-2.2.8-3.3 2.2v13.1h-5.6l.1-18.8zm30.4 19.4c-4.9 0-7.2-2.7-7.2-7v-8.5h-3.9v-3.8h3.9v-4.1l5.6-.7v4.7h6l-.6 3.8h-5.5v8.5c0 1.9.8 2.6 2.7 2.6 1.1 0 2.3-.3 3.3-.8l1.8 3.6c-1.7 1.1-3.9 1.7-6.1 1.7z" class="st1"/><path d="M569.2 136l-14.6-37.7h4.5l8 20.7c2.9 7.6 4 11 4.7 13h.1c.7-1.7 2.9-6.4 5.4-11.6l10.9-22.1h4.5l-19 37.7h-4.5zm44.8-6.8c-.2 2.8-.2 6-.2 6.8H610c-.1-1.4-.1-2.8 0-4.2-1.5 2.9-4.5 4.9-10.4 4.9-7.4 0-10-4.5-10-8.3 0-7.1 7.1-8.7 13.9-8.8 3.2-.1 5.9-.1 7.2-.1v-1.4c.2-3.2-1.1-6.3-7.3-6.3-5.4 0-7 2.3-7.7 5.1h-4c.5-3.7 3-8.3 11.8-8.3 9.1 0 11.4 4.6 11.1 9.2l-.6 11.4zm-3.6-6.7c-1.5 0-3.5 0-7 .1-6.2.1-9.9 1.5-9.9 5.6 0 2.9 2.1 5.2 6.7 5.2 7.6 0 9.7-4.5 10.1-9.6l.1-1.3zm12.3-5.8c.1-2.5.3-5 .4-7.4h3.8c0 .7 0 3.6-.2 6.2 1.9-4.3 6.2-7.1 11-6.9l-.2 3.9c-6.2 0-10.8 4.2-11.2 11.9l-.6 11.5h-3.9l.9-19.2zm19.3-7.4h3.9l-1.4 26.6h-3.9l1.4-26.6zm.7-13.3h3.9l-.3 5.8h-4l.4-5.8zm32.6 33.2c-.2 2.8-.2 6-.2 6.8h-3.8c-.1-1.4-.1-2.8 0-4.2-1.5 2.9-4.5 4.9-10.4 4.9-7.4 0-10-4.5-10-8.3 0-7.1 7.1-8.7 13.9-8.8 3.2-.1 5.9-.1 7.2-.1l.1-1.4c.2-3.2-1.1-6.3-7.3-6.3-5.4 0-7 2.3-7.7 5.1h-4c.5-3.7 3-8.3 11.8-8.3 9.1 0 11.4 4.6 11.1 9.2l-.7 11.4zm-3.5-6.7c-1.5 0-3.5 0-7 .1-6.2.1-9.9 1.5-9.9 5.6 0 2.9 2.1 5.2 6.7 5.2 7.6 0 9.7-4.5 10.1-9.6l.1-1.3zM684.9 96h3.9l-1 17.8c1.5-2.4 4.5-5.3 10.3-5.3 7 0 12.2 5.3 12.2 13 0 8.8-5.4 15.1-13.6 15.1-5.8 0-8.6-2.7-9.9-5.3-.2 1.7-.3 3.6-.4 4.6h-3.8c.1-2.7.3-5.6.4-8.8l1.9-31.1zm21.4 25.8c0-4.7-2.6-9.7-8.9-9.7-6.4 0-9.8 4.6-10.1 10.5-.3 6.5 3.2 10.7 9.2 10.7 6.9-.1 9.8-5.6 9.8-11.5zm9.4 14.2l2.1-39.9h3.9l-2.1 39.9h-3.9zm14.4-12.5v.3c.2 5.7 3.9 9.6 9.4 9.6 4.4 0 6.9-1.8 8.6-4.8h4c-1.6 3.9-5.2 8.1-13 8.1-8.7 0-13.1-6.3-13.1-13.5 0-8.2 5.5-14.6 13.9-14.6 9.5 0 12.9 6.9 12.9 13.2 0 .6 0 1.2-.1 1.8l-22.6-.1zm18.7-3v-.3c-.2-3.6-2.1-8.3-8.9-8.3-5.6 0-8.8 3.6-9.6 8.6h18.5zM565 216.6l-9.4-37h3.8l4.8 19.5c1.3 5.1 2.8 11.5 3.2 14h.1c1.1-2.9 3.9-8.9 6.5-14.3l9.2-19.2h3.9l-17.8 37H565zm39-6c-.2 2.2-.4 5-.4 6h-3.4c0-1.4 0-2.8.2-4.2-1.1 2.1-3.5 4.7-8.9 4.7-5.8 0-8.1-3.7-8.1-7.4 0-6.8 6-8.9 12.5-9.1 2.5-.1 4.6-.1 5.7-.2l.2-2.3c.3-2.6-.2-6-5.8-6-4.9 0-6.1 2.5-6.8 4.8h-3.4c.6-3.6 3.1-7.7 10.4-7.7 6.1 0 9.7 2.7 9 8.8l-1.2 12.6zm-2.7-7.3c-1.1 0-3.2 0-5.3.1-5 .2-9.1 1.5-9.1 6.1 0 2.6 1.8 4.7 5.2 4.7 6.6 0 8.5-4.7 9.1-10.3l.1-.6zm11.2-5.7c.3-3.4.5-5.8.7-7.6h3.3c0 .7-.2 3.2-.5 5.8 1.6-3.8 5.2-6.3 9.3-6.4l-.4 3.6c-5.3.4-9.1 4.2-9.8 10.5l-1.3 13.1h-3.5l2.2-19zm17.2-7.6h3.4l-2.8 26.6h-3.4l2.8-26.6zm1.3-12.3h3.4l-.6 5.4h-3.4l.6-5.4zm26 32.9c-.2 2.2-.4 5-.4 6h-3.4c0-1.4 0-2.8.2-4.2-1.1 2.1-3.5 4.7-8.9 4.7-5.8 0-8.1-3.7-8.1-7.4 0-6.8 6-8.9 12.5-9.1 2.5-.1 4.6-.1 5.7-.2l.2-2.3c.3-2.6-.2-6-5.8-6-4.9 0-6.1 2.5-6.8 4.8h-3.4c.6-3.6 3.1-7.7 10.4-7.7 6.1 0 9.7 2.7 9 8.8l-1.2 12.6zm-2.6-7.3c-1.1 0-3.2 0-5.3.1-5.1.2-9.1 1.5-9.1 6.1 0 2.6 1.8 4.7 5.2 4.7 6.6 0 8.5-4.7 9.1-10.3l.1-.6zm13.4-25.6h3.4l-1.8 16.6c1.5-2.6 4.3-4.9 8.9-4.9 5.9 0 9.8 4.4 9.8 11.6 0 8.3-4.3 16.2-12.8 16.2-4.3 0-6.7-1.9-7.9-4.6-.2 1.5-.4 3.3-.6 4h-3.4c.1-2 .5-4.9.8-8.1l3.6-30.8zm16.8 23.5c0-5.4-2.5-8.7-6.9-8.7-5.9 0-8.7 4.7-9.3 10.9-.7 6.3 1.2 10.7 7.1 10.7s9.1-6.2 9.1-12.9zm7.3 15.4l4.1-39h3.4l-4.1 39h-3.4zm13.6-12.9c-.1.5-.1 1-.1 1.5 0 5.7 2.9 9 7.3 9s6.2-2.5 7.4-4.7h3.5c-1.5 3.8-4.5 7.8-11.2 7.8-7.4 0-10.5-5.6-10.5-12.1 0-7.7 4-15.7 12.8-15.7 7.6 0 10.1 5.8 10.1 10.8 0 1.2-.1 2.4-.4 3.6l-18.9-.2zm15.7-2.7c.1-.4.1-.7.1-1.1 0-4.5-2.3-7.5-6.8-7.5-4.7 0-7.6 3.3-8.6 8.6h15.3zm-159.3 96.3l-5.1-36.4h3.3l2.4 18.2c.7 5.1 1.5 11.6 1.7 14.9h.1c1-2.8 4.1-9.6 6.4-14.9l8.1-18.2h3.4l-16.4 36.4h-3.9zm33.5-5.6c-.2 1.7-.6 4.4-.7 5.6h-2.9c0-1.2.2-2.5.4-3.7-1.2 2.4-3.5 4.2-7.5 4.2-5.3 0-7-4-6.7-7.7.3-4.8 3.7-7.9 10.6-8.4 1.9-.2 3.4-.2 5.5-.3l.4-2.6c.5-2.9-.1-6-4.7-6-3.8 0-5.1 2.1-5.8 4.9h-3.1c.7-4.1 3.2-7.5 9.1-7.5 5.2 0 8.4 2.5 7.5 8.5l-2.1 13zm-1.9-7.8c-1.6 0-3.3.1-4.9.2-4.7.3-7.4 2.3-7.6 5.8-.2 2.7 1.1 5.1 4.4 5.1 5 0 7.1-3.9 7.9-9.5l.2-1.6zm10-4.2c.6-4.2 1-7.3 1.2-9h3c0 .8-.3 2.8-.6 5.2 1.6-3.4 5-5.6 8.7-5.7l-.5 3.4c-5.4.2-8.4 4.1-9.2 9.6l-2.1 14.1h-3.1l2.6-17.6zm15.6-9h3.1l-4 26.6h-3.1l4-26.6zm1.7-11.6h3.1l-.8 5.4H620l.8-5.4zm20.7 32.6c-.2 1.7-.6 4.4-.7 5.6h-2.9c0-1.2.2-2.5.3-3.7-1.2 2.4-3.5 4.2-7.5 4.2-5.3 0-7-4-6.7-7.7.3-4.8 3.7-7.9 10.6-8.4 1.9-.2 3.4-.2 5.5-.3l.4-2.6c.5-2.9-.1-6-4.7-6-3.8 0-5.1 2.1-5.8 4.9h-3.1c.7-4.1 3.2-7.5 9.1-7.5 5.2 0 8.4 2.5 7.5 8.5l-2 13zm-1.9-7.8c-1.6 0-3.3.1-4.9.2-4.7.3-7.4 2.3-7.6 5.8-.2 2.7 1.1 5.1 4.4 5.1 5 0 7.1-3.9 7.9-9.5l.2-1.6zm13.1-24.8h3.1l-2.3 15.5c1.5-2.8 4.4-4.5 7.6-4.4 5.1 0 8 4.1 7.4 11.8-.6 7.7-3.8 15.7-11.4 15.7-3.9 0-5.7-2-6.4-4.4-.2 1.1-.5 2.9-.7 3.9h-3c.2-1.3.6-3.8 1.1-7.3l4.6-30.8zm12.6 23.1c.5-6.2-1.4-9.2-5-9.2-5 0-7.5 4.6-8.3 10.8-.9 6.4-.1 11.2 5.1 11.2 5.1 0 7.7-6.1 8.2-12.8zm5.9 15.1l5.7-38.2h3.1l-5.7 38.2h-3.1zm12.9-12.9c-.2 1-.3 2-.3 2.9 0 4.6 1.6 7.7 5.6 7.7 4.3 0 5.7-3.3 6.4-4.9h3.1c-.8 2.4-3.1 7.6-9.8 7.6-7.2 0-8.6-6.3-8.2-12.5.6-7.9 4.2-15.1 11.5-15.1 6.5 0 8.5 5.1 8 11-.1 1.1-.2 2.1-.4 3.2l-15.9.1zm13.1-2.5c.2-.7.3-1.5.3-2.3 0-3.9-1.5-6.7-5.4-6.7-4.6 0-6.7 4.8-7.6 9h12.7zM559.3 378l-2.2-35.9h2.9l1 17.6c.3 5.1.6 12 .6 15.1h.1c.9-2.7 3.8-9.9 5.9-15l7.2-17.6h3l-15 35.8h-3.5zm28.5-5.4c-.2 1.5-.7 4.3-.9 5.5h-2.7c.1-1.1.2-2.1.4-3.2-1.3 2.5-3.4 3.6-6.3 3.6-4.8 0-6.2-4.1-5.5-8.2.9-4.9 4.3-7 9.4-7.7 1.5-.2 3-.3 4.6-.4l.6-3.4c.5-2.8 0-5.3-3.8-5.3-3.1 0-4.2 1.9-4.8 4.8v.1H576v-.1c.7-4.1 2.8-7.3 7.9-7.3 4.6 0 7.2 2.6 6.3 7.7l-2.4 13.9zm-1.4-8.1c-1.3.1-2.6.2-4 .3-3.7.5-6.2 2-6.8 5.6-.5 2.7.3 5.5 3.5 5.5 3.8 0 5.8-3 6.9-9l.4-2.4zm8.8-4.1c.7-4.2 1.2-7.1 1.5-9h2.7c-.1.7-.2 2.1-.7 4.7 1.7-3.4 4.5-5.1 7.6-5.1l-.6 3.2c-4.5.2-7.2 3.6-8 8.5l-2.6 15.3h-2.8l2.9-17.6zm13.7-9h2.8l-4.5 26.6h-2.8l4.5-26.6zm1.9-11h2.8l-.9 5.3h-2.8l.9-5.3zm16.7 32.2c-.2 1.5-.7 4.3-.9 5.5h-2.7c.1-1.1.2-2.1.4-3.2-1.3 2.5-3.4 3.6-6.3 3.6-4.8 0-6.2-4.1-5.5-8.2.9-4.9 4.3-7 9.4-7.7 1.5-.2 3-.3 4.6-.4l.6-3.4c.5-2.8 0-5.3-3.8-5.3-3.1 0-4.2 1.9-4.8 4.8v.1h-2.8v-.1c.7-4.1 2.8-7.3 7.9-7.3 4.6 0 7.2 2.6 6.3 7.7l-2.4 13.9zm-1.4-8.1c-1.3.1-2.6.2-4 .3-3.7.5-6.2 2-6.8 5.6-.5 2.7.3 5.5 3.5 5.5 3.8 0 5.8-3 6.9-9l.4-2.4zm12.2-24.2h2.8l-2.4 14.4c1.2-2.3 3.7-3.8 6.3-3.8 5 0 6.9 4.4 5.5 12.9l-.2 1.5c-1.3 7.9-4.2 13-9.6 13-3.5 0-4.9-2-5.3-4-.2 1.2-.5 2.7-.7 3.6H632c.3-1.4.6-3.7 1.3-7.2l5-30.4zm9.1 25l.3-1.5c1.2-7.1 0-10.2-3.5-10.2-4.2 0-6.2 4.4-7.2 10.5l-.2 1.2c-1.2 6.8-.3 10.6 3.8 10.6 3.4 0 5.7-3.7 6.8-10.6zm5.1 12.7l6.4-37.6h2.8l-6.4 37.6h-2.8zm12.2-13.1c-.3 1.4-.5 2.9-.6 4.3-.1 4 .9 6.7 4.2 6.7 3.5 0 4.6-2.9 5.2-4.6v-.1h2.8v.1c-.6 2.3-2.5 7.1-8.3 7.1-7.2 0-7.2-7.4-6.2-13.5l.2-1.4c1.4-7.9 4.6-12.6 9.9-12.6 6 0 7.4 5.1 6.2 11.5 0 .2-.4 2.2-.5 2.5h-12.9zm10.6-2.3c.3-1.1.5-2.3.5-3.4.1-3.2-.8-5.7-4.1-5.7-3.8 0-5.6 4.5-6.5 8.6l-.1.5h10.2zm-116.5 96.1l1.6-35.4h2.6l-.9 16.9c-.3 5.1-.8 13-1.1 15.7h.1c.9-2.9 3.8-10.5 5.7-15.5l6.4-17.1h2.7L562 458.7h-3.2zm22.4-4.8c-.2 1.3-.7 3.8-.9 4.8h-2.4c.1-.8.2-1.8.4-2.5-1.4 2.5-2.8 2.9-4.8 2.9-3.7 0-4.6-3.6-3.8-7.7 1.2-5.5 4.2-7.4 10.3-8.4l1.1-.2 1-4.6c.7-3-.1-4.5-2.4-4.5-2.4 0-2.9 1.8-3.7 4.7l-.1.5h-2.4l.1-.3c.7-3.6 1.8-7 6.5-7 3.9 0 5.4 2.4 4.6 6.3l-3.5 16zm-.5-8.9l-1.1.2c-4.2.7-6.4 2-7.4 6.3-.7 3.2-.1 5.3 2.3 5.3 2.7 0 4.3-2.7 5.4-8.3l.8-3.5zm7.3-3.9c.9-4.2 1.5-7.4 1.8-9.1h2.4c-.2 1.3-.4 2.6-.7 3.9 1.1-2.5 3.5-4.1 6.2-4.3l-.6 2.9c-3.6.3-5.9 3.1-6.7 7.4l-3.5 16.7h-2.5l3.6-17.5zm11.8-9.1h2.5l-5.7 26.6h-2.5l5.7-26.6zm2.2-10.2h2.4l-1.1 5.2h-2.5l1.2-5.2zm10.5 32.1c-.3 1.3-.7 3.8-.9 4.8h-2.4c.1-.8.2-1.8.4-2.5-1.4 2.5-2.8 2.9-4.8 2.9-3.7 0-4.6-3.6-3.8-7.7 1.2-5.5 4.1-7.4 10.3-8.4l1.1-.2 1-4.6c.7-3-.1-4.5-2.4-4.5-2.4 0-2.9 1.8-3.7 4.7l-.1.5h-2.4l.1-.3c.7-3.6 1.8-7 6.5-7 3.9 0 5.4 2.4 4.6 6.3l-3.5 16zm-.5-8.9l-1.1.2c-4.2.7-6.4 2-7.4 6.3-.7 3.2-.1 5.3 2.3 5.3 2.7 0 4.3-2.7 5.4-8.3l.8-3.5zm11.5-23.3h2.5l-2.7 12.5c.9-1.7 2.7-2.7 4.7-2.6 3.7 0 5 3.1 3.9 8.4l-2.2 10.4c-.9 4.1-2.4 8.5-7 8.5-2.4 0-3.6-1.2-4-3.1-.1.7-.4 1.9-.7 2.8h-2.4c.3-1.2.8-3.7 1.6-7.2l6.3-29.7zm3.6 28.6l2.3-10.5c.7-3.6.5-5.9-2.3-5.9-3.4 0-4.7 3.9-5.3 7.2L620 450c-.8 4.1-.4 6.9 2.6 6.9 2.6-.2 3.7-2.7 4.5-6.6zm4.4 8.4l7.8-36.9h2.5l-7.8 36.9h-2.5zm11.1-13.1c-.2 1-.7 3.4-1 4.7-.8 3.7-.6 6.7 2.4 6.7 2.6 0 3.4-2.2 4.1-5.1l.2-.7h2.5l-.2.9c-.8 3.3-1.8 7.2-6.8 7.2-5.5 0-5.5-4.7-4.5-9.3l2.1-9.8c.9-4.2 2.2-8.4 7.1-8.4 5.5 0 5.5 4.7 4.7 8.4-.2 1-.9 4.4-1.2 5.5l-9.4-.1zm7.4-2.2c.2-.9.7-3.2.9-4.1.6-3 0-5.6-2.7-5.6-2.9 0-3.8 3.5-4.3 6l-.8 3.7h6.9zM15.1 206.7L1.7 170h5.9l6.3 18.1c1.8 5.3 3.6 10.6 4.4 14h.1c.8-3.1 2.7-8.5 4.6-13.9l6.6-18.2h5.6l-13.7 36.8h-6.4zm39.4-6.1c0 2 .1 4.1.4 6.1h-5c-.3-1.1-.4-2.2-.4-3.4-.9 1.7-3 4-8.2 4-6.4 0-9.1-4.2-9.1-8.3 0-6 4.8-8.8 12.7-8.8h4.5V188c0-2.3-.7-5-5.5-5-4.2 0-5 2.1-5.4 4.1h-5c.4-3.9 2.8-8.1 10.6-8.1 6.7 0 10.4 2.7 10.4 8.9v12.7zm-5.1-6.9h-4.1c-5.2 0-7.9 1.5-7.9 5 0 2.6 1.8 4.6 5 4.6 6.2 0 7-4.2 7-8.8v-.8zm10.7-6.6c0-3.6 0-5.7-.1-7.4h5.1c.1.7.2 2.9.2 5.4 1.4-3.5 4.5-5.9 9-6v5.1c-5.5.1-9 2.7-9 9.6v12.8h-5.2v-19.5zm16.6-19.2h5.2v6h-5.2v-6zm0 11.9h5.2v27h-5.2v-27zm31 20.8c0 2 .1 4.1.4 6.1h-5c-.3-1.1-.4-2.2-.4-3.4-.9 1.7-3 4-8.2 4-6.4 0-9.1-4.2-9.1-8.3 0-6 4.8-8.8 12.7-8.8h4.5V188c0-2.3-.7-5-5.5-5-4.2 0-5 2.1-5.4 4.1h-5c.4-3.9 2.8-8.1 10.6-8.1 6.7 0 10.4 2.7 10.4 8.9v12.7zm-5-6.9h-4.1c-5.2 0-7.9 1.5-7.9 5 0 2.6 1.8 4.6 5 4.6 6.2 0 7-4.2 7-8.8v-.8zm10.7-25.8h5.2v15.5c1.2-2.2 3.6-4.3 8.4-4.3 6.9 0 11 5.7 11 13.6 0 8.1-4.1 14.6-11.8 14.6-4.2 0-6.4-1.5-7.8-4 0 1.1-.1 2.2-.2 3.4h-5c.1-3 .1-6 .1-9l.1-29.8zm19.3 24.9c0-5.6-2.5-9.3-7-9.3-5.4 0-7.4 3.6-7.4 9.9 0 5.4 1.7 9.7 7.2 9.7 4.5-.1 7.2-4 7.2-10.3zm9 13.9v-38.8h5.2v38.8h-5.2zm14.2-12.5c0 5.1 2.6 8.8 7 8.8 4 0 5.3-2 6.2-3.9h5.2c-1 3.4-3.9 8.2-11.5 8.2-8.6 0-12.1-6.8-12.1-13.8 0-8.1 4.1-14.4 12.4-14.4 8.8 0 11.7 6.9 11.7 12.9 0 .7 0 1.5-.1 2.2h-18.8zm13.6-3.5c-.1-4.2-2.1-7.6-6.5-7.6s-6.5 3.1-6.9 7.6h13.4zM14.6 290l-13-36.6H9l5.8 17.4c1.7 5.2 3.2 9.9 4 13.5h.1c.7-3.3 2.4-8.1 4.2-13.4l6.1-17.5h7.1L22.7 290h-8.1zm41.6-6.7c0 2.2.1 4.5.4 6.7h-6.3c-.3-1-.4-1.9-.4-2.9-1 1.6-2.9 3.6-7.9 3.6-6.5 0-9.3-4.3-9.3-8.5 0-6.2 4.9-9 12.9-9h4.1v-1.9c0-2.1-.7-4.3-4.7-4.3-3.7 0-4.4 1.7-4.8 3.7H34c.4-4.5 3.2-8.5 11.3-8.5 7.1 0 10.9 2.8 10.9 9.2v11.9zm-6.4-6h-3.5c-4.8 0-6.9 1.4-6.9 4.4 0 2.3 1.5 4.1 4.4 4.1 5.4 0 6.1-3.7 6.1-7.7l-.1-.8zm11.6-7.2c0-3.1 0-5.4-.1-7.4h6.5c.1.7.2 3.2.2 5 1.3-3.3 4.3-5.6 8.9-5.7v6.3c-5.5 0-8.9 1.9-8.9 9.2V290h-6.6v-19.9zm17.7-18.8h6.6v6.4h-6.6v-6.4zm0 11.5h6.6V290h-6.6v-27.2zm33.2 20.5c0 2.2.1 4.5.4 6.7h-6.3c-.3-1-.4-1.9-.4-2.9-1 1.6-2.9 3.6-7.9 3.6-6.5 0-9.3-4.3-9.3-8.5 0-6.2 4.9-9 12.9-9h4.1v-1.9c0-2.1-.7-4.3-4.7-4.3-3.7 0-4.4 1.7-4.8 3.7H90c.4-4.5 3.2-8.5 11.3-8.5 7.1 0 10.9 2.8 10.9 9.2l.1 11.9zm-6.4-6h-3.5c-4.8 0-6.9 1.4-6.9 4.4 0 2.3 1.5 4.1 4.4 4.1 5.4 0 6.1-3.7 6.1-7.7l-.1-.8zm11.5-26h6.6V266c1.2-1.9 3.5-3.9 8.1-3.9 7.2 0 11.1 5.9 11.1 13.7 0 8-4.1 14.7-11.8 14.7-4.2 0-6.1-1.4-7.4-3.6 0 1-.1 2-.2 2.9h-6.3c.1-3 .1-6 .1-9l-.2-29.5zm19.2 24.7c0-5-2-8.5-6.3-8.5-4.8 0-6.5 3.2-6.5 9 0 4.9 1.5 8.8 6.4 8.8 4 0 6.3-3.7 6.4-9.3zm10 14v-38.7h6.6V290h-6.6zm16.6-12.3c0 4.1 2.1 7.6 6.1 7.6 3.5 0 4.6-1.6 5.4-3.3h6.6c-1 3.4-4 8.6-12.1 8.6-8.8 0-12.6-6.8-12.6-13.9 0-8.4 4.3-14.6 12.9-14.6 9.2 0 12.2 6.9 12.2 13.3 0 .8 0 1.5-.1 2.3h-18.4zm11.8-4.2c-.1-3.6-1.6-6.6-5.6-6.6-4 0-5.7 2.8-6 6.6H175zM13.5 373.2L1 336.8h11.4l4.5 15.7c1.4 4.9 2.2 8.2 3.1 12.3h.2c.8-4.1 1.9-8.2 3.1-12.2l4.7-15.8h10.9l-12.8 36.5H13.5zM62 365c0 2.7.1 5.5.3 8.2h-9.6c-.2-.8-.4-1.7-.4-2.6-1.3 1.7-3.4 3.2-7.8 3.2-6.2 0-9.6-3.9-9.6-8.8 0-6.5 5.2-9.3 13.7-9.3H52v-1.6c0-1.8-.6-3.1-3.1-3.1-2.3 0-2.9 1.1-3.2 2.9h-9.6c.4-4.6 3.1-9.2 13-9.1 9.1 0 12.8 3.5 12.8 10.2l.1 10zm-10-4.1h-2.3c-3.6 0-4.7 1.2-4.7 3.3-.1 1.5 1 2.8 2.6 2.9h.4c3.5 0 4-2.4 4-5.4v-.8zm13.8-7.5c0-2.7 0-5.5-.1-8h10.1c.1.9.2 3.3.2 4.5 1.1-2.7 3.8-5.1 8.5-5.1v9.4c-5.8-.2-8.5 1.1-8.5 7.6v11.4H65.8v-19.8zm20.6-18.5h10.3v7.2H86.4v-7.2zm0 10.6h10.3v27.8H86.4v-27.8zM126 365c0 2.7.1 5.5.3 8.2h-9.6c-.2-.8-.4-1.7-.4-2.6-1.3 1.7-3.4 3.2-7.8 3.2-6.2 0-9.6-3.9-9.6-8.8 0-6.5 5.2-9.3 13.7-9.3h3.4v-1.6c0-1.8-.6-3.1-3.1-3.1-2.3 0-2.9 1.1-3.2 2.9h-9.6c.4-4.6 3.1-9.2 13-9.1 9.1 0 12.8 3.5 12.8 10.2l.1 10zm-9.9-4.1h-2.3c-3.6 0-4.7 1.2-4.7 3.3-.1 1.5 1 2.8 2.6 2.9h.5c3.5 0 4-2.4 4-5.4v-.8zm13.7-26h10.3V348c1.3-1.6 3.5-3.1 7.6-3.1 6.9 0 11.1 5.5 11.1 14 0 8.6-4.4 15.1-12 15.1-3.8 0-5.6-1.2-6.8-2.9 0 .7-.1 1.5-.3 2.2h-9.9c.1-2.9.1-5.9.1-8.9v-29.5zm18.6 24.2c0-4.4-1.2-7-4.3-7-3.3 0-4.3 2.3-4.3 7.4 0 4.3.9 7.2 4.2 7.2 3 .1 4.4-2.8 4.4-7.6zm12.9 14.1v-38.4h10.3v38.4h-10.3zm23.3-11.8c0 2.8 1.1 5.6 4.1 5.6 2.4 0 3.1-1 3.7-2.5h10.1c-1 3.7-4.2 9.4-14 9.4-10.5 0-14.3-7.1-14.3-14.3 0-8.4 4.4-14.8 14.5-14.8 10.8 0 14 7.3 14 14.2 0 .8 0 1.6-.1 2.4h-18zm7.8-5.4c0-2.6-.8-4.8-3.7-4.8-2.8 0-3.8 2-4 4.8h7.7zm-180 100.5L.5 420h15.3l3.2 14c1.1 4.6 1.5 6.6 2.2 11.2h.3c.5-3.7 1.2-7.4 2.1-11.1l3.2-14.2h15l-12.2 36.5H12.4zm56.1-9.9c0 4 .1 8.4.3 9.9H56.3c-.3-.9-.4-1.8-.5-2.7-1.9 2.2-4.4 3.4-8.3 3.4-5.4 0-9.8-3-9.8-9.2 0-6.9 5.5-9.6 14.8-9.6h2.7V437c0-1.6-.5-2.2-1.7-2.2s-1.7.9-1.9 2.4H38.9c.3-3.7 2.2-9.6 14.7-9.6 12 0 15 4.6 15 11.4l-.1 7.6zm-13.3-2.4h-1.3c-2 0-2.7 1-2.7 2.4-.1 1 .6 2 1.6 2.1h.2c1.7 0 2.2-1.1 2.2-3.4v-1.1zm15.9-6.9c0-2.9-.1-6.5-.1-8.9h13.8c.2 1.4.3 2.8.3 4.2.9-2 3.3-4.9 8.2-5V440c-6.5-.3-8 1.3-8 5.7v10.9H71.1v-19.3zm23.5-18.7h14.1v7.6H94.6v-7.6zm0 9.7h14.1v28.2H94.6v-28.2zm46.5 18.3c0 4 .1 8.4.3 9.9h-12.5c-.3-.9-.4-1.8-.5-2.7-1.9 2.2-4.4 3.4-8.3 3.4-5.4 0-9.8-3-9.8-9.2 0-6.9 5.5-9.6 14.8-9.6h2.7V437c0-1.6-.5-2.2-1.7-2.2s-1.7.9-1.9 2.4h-12.7c.3-3.7 2.2-9.6 14.7-9.6 12 0 15 4.6 15 11.4v7.6zm-13.4-2.4h-1.3c-2 0-2.7 1-2.7 2.4-.1 1 .6 2 1.6 2.1h.2c1.7 0 2.2-1.1 2.2-3.4v-1.1zm15.9-25.6h14.1v11.8c2-1.9 4.7-2.9 7.4-2.7 5.5 0 10.9 4.1 10.9 14.2s-5 15.4-12.1 15.4c-3.5 0-5.2-1.3-6.4-2.7-.1.5-.1 1.5-.2 2h-13.8c.1-2.6.1-5.9.1-8.8v-29.2zm18 23.6c0-4.7-.7-6.1-2.1-6.1-1.9 0-2.2 1.6-2.2 6.4 0 4.2.2 6.4 2.1 6.4 1.7 0 2.2-2 2.2-6.7zm16.1 14.3v-37.9h14.1v37.9h-14.1zm30.1-11.6c0 2.5.3 4.5 2.3 4.5 1.6 0 2.1-1 2.3-2.2H226c-1.1 4.3-4.5 10.1-16 10.1-12.9 0-16.5-7.7-16.5-14.9 0-7.7 4.3-14.7 16.5-14.7 12.9 0 16.2 8.2 16.2 14.8 0 .9-.1 1.8-.1 2.5l-18.3-.1zm4.3-6.2c0-2-.2-3.7-2.1-3.7-1.6 0-2.2 1.5-2.2 3.7h4.3z" class="st0"/><path d="M17.2 650.4c-1.7.2-2 .4-2.9 2.5-.5 1.2-3.1 7.3-4.6 11H8.5c-1.2-3-3.5-9-4.7-11.8-.6-1.4-1.1-1.6-2.5-1.7v-1h6.4v1c-1.8.2-1.9.3-1.5 1.3.7 1.8 2.2 5.8 3.5 9 1.7-4 3.2-7.8 3.5-8.6.4-1.3.3-1.5-1.7-1.7v-1h5.8l-.1 1zm6.5 13.7c-.4 0-.7-.2-1-.4-.3-.3-.5-.7-.6-1.1-1 .7-2.1 1.5-3 1.5-1.6 0-2.9-1.3-2.9-2.9v-.1c0-1.1.6-2 2-2.4 1.3-.3 2.6-.8 3.8-1.4v-.4c0-1.5-.9-2.2-1.9-2.2-.4 0-.8.1-1.1.4-.3.4-.5.9-.6 1.5-.1.4-.4.6-.8.6-.6-.1-1-.5-1.1-1.1 0-.4.3-.7.8-1 1.1-.7 2.3-1.2 3.5-1.6.8 0 1.5.2 2.1.7.8.6 1.2 1.6 1.2 2.7v4.2c0 1 .4 1.3.8 1.3.3 0 .6-.1.9-.3l.3.9-2.4 1.1zm-1.7-5.8c-.6.3-1.6.7-2.3 1-.7.2-1.3.8-1.3 1.6 0 .9.6 1.6 1.5 1.6h.1c.8 0 1.5-.3 2.1-.9v-3.3zm10.4 5.5h-5.6v-.9c1.5-.1 1.6-.2 1.6-1.7v-4.5c0-1.4-.1-1.5-1.5-1.7v-.8c1.2-.2 2.3-.5 3.5-.9v2.5c1-1.5 2-2.4 3-2.4.7-.1 1.4.4 1.5 1.1 0 .6-.3 1.2-.9 1.4-.2.1-.5.1-.6-.1-.3-.3-.7-.5-1.1-.5-.6 0-1.5.8-1.9 2.1v3.7c0 1.4.1 1.5 1.9 1.7l.1 1zm3.7 0v-.9c1.5-.1 1.7-.2 1.7-1.8v-4.3c0-1.4 0-1.5-1.5-1.7v-.8c1.2-.2 2.4-.4 3.6-.9v7.7c0 1.5.2 1.6 1.7 1.8v.9h-5.5zm2.5-12.1c-.8 0-1.4-.6-1.4-1.4 0-.8.6-1.4 1.4-1.4.8.1 1.4.7 1.3 1.5 0 .7-.6 1.3-1.3 1.3zm11.8 12.4c-.4 0-.7-.2-1-.4-.3-.3-.5-.7-.6-1.1-1 .7-2.1 1.5-3 1.5-1.6 0-2.9-1.3-2.9-2.9v-.1c0-1.1.6-2 2-2.4 1.3-.4 2.6-.8 3.8-1.5v-.4c0-1.5-.9-2.2-1.9-2.2-.4 0-.8.1-1.1.4-.3.4-.5.9-.6 1.5-.1.4-.4.6-.8.6-.6 0-1.1-.5-1.1-1.1 0-.4.3-.7.8-1 1.1-.7 2.3-1.3 3.5-1.6.8 0 1.5.2 2.1.7.8.6 1.3 1.6 1.2 2.7v4.2c0 1 .4 1.3.8 1.3.3 0 .6-.1.9-.3l.3.9-2.4 1.2zm-1.7-5.8c-.6.3-1.6.7-2.3 1-.7.2-1.3.8-1.3 1.6 0 .9.6 1.6 1.5 1.6h.1c.8 0 1.5-.3 2.1-.9v-3.3zm9.4-4.6c.4-.2.9-.3 1.4-.3 2.6 0 4.7 2.2 4.7 4.8 0 3.2-2.7 5.9-5.9 5.8h-.2c-1.2 0-2.4-.3-3.6-.9v-11.9c0-1.3-.1-1.5-1.7-1.6v-.9c1.2-.1 2.5-.4 3.7-.7v6.2l1.6-.5zm-1.5 7.3c0 .3 0 .5.2.7.5.7 1.3 1.1 2.2 1 1.6 0 2.9-1.4 2.9-4s-1.6-4-3.3-4c-.7 0-1.4.1-2 .4v5.9zm8.8 2.8v-.9c1.5-.1 1.7-.3 1.7-1.7v-9.9c0-1.5-.1-1.5-1.7-1.6v-.9c1.2-.1 2.5-.4 3.7-.7v13.1c0 1.4.2 1.5 1.8 1.7v.9h-5.5zm15.6-1.9c-1 1.3-2.6 2.1-4.2 2.2-2.8 0-4.7-2.3-4.7-5.1 0-1.4.5-2.8 1.5-3.8a4.6 4.6 0 0 1 3.6-1.7c2.2 0 3.9 1.7 3.9 3.9v.1c0 .5-.1.7-.5.8-1.1.2-3.8.3-6.4.4.1 2.6 1.8 3.7 3.4 3.7 1.1 0 2.1-.5 2.9-1.2l.5.7zm-4.3-7.4c-1.2 0-2.2 1.1-2.4 2.9 1.2 0 2.7 0 4-.1.5 0 .6-.1.6-.5.1-1.2-.9-2.3-2.2-2.3z"/><path d="M12 586.5c-6.4 0-9.8-4.9-9.8-12.8 0-7.8 3.4-12.8 9.8-12.8s9.8 4.9 9.8 12.8c-.1 7.7-3.4 12.8-9.8 12.8zm0-21.5c-2.8 0-3.8 2.6-3.8 8.6s1.1 8.6 3.8 8.6 3.8-2.7 3.8-8.6c0-5.9-1.1-8.6-3.8-8.6zm28.8 11.4c0 5.8-2.6 10-7.2 10-1.7 0-3.3-.7-4.4-1.9v8.6l-5.6.6v-26.6h4.9l.2 2.1c1.2-1.7 3.1-2.7 5.2-2.7 4.9 0 6.9 3.8 6.9 9.9zm-11.6-3.6v7.9c.6 1 1.6 1.6 2.8 1.7 2 0 3.1-1.6 3.1-5.9 0-4.7-1.1-5.9-2.8-5.9-1.4 0-2.3.8-3.1 2.2zm24.9 13.7c-4.9 0-7.2-2.7-7.2-7V571H43v-3.8h3.9v-4.1l5.6-.7v4.7h6l-.6 3.8h-5.5v8.5c0 1.9.8 2.6 2.7 2.6 1.1 0 2.3-.3 3.3-.8l1.8 3.6c-1.8 1.1-3.9 1.7-6.1 1.7zm20.5-4.4h4.8v3.8H63.7v-3.8H69V571h-5.1v-3.8h10.7v14.9zm-.1-21.6c0 1.8-1.5 3.3-3.3 3.3s-3.3-1.5-3.3-3.3c0-1.7 1.4-3.1 3.1-3.1h.2c1.7-.1 3.2 1.2 3.3 2.9v.2zm22.5 20l2.5 3.5c-2 1.6-4.4 2.5-7 2.5-6.1 0-9.7-4-9.7-9.8s3.7-10.1 9.8-10.1c2.5-.1 4.9.8 6.9 2.4l-2.4 3.4c-1.2-.9-2.7-1.4-4.2-1.4-2.5 0-4.2 1.6-4.2 5.8 0 4.2 1.8 5.4 4.2 5.4 1.5-.2 2.9-.8 4.1-1.7zm22.7 2.2l-1.2 3.7c-2.2-.2-3.7-.9-4.6-2.5-1.6 1.7-3.8 2.6-6.1 2.5-3.9 0-6.4-2.4-6.4-5.9 0-4.1 3.4-6.4 9.1-6.4h2.5v-.7c0-2-1.3-2.9-3.7-2.9-1.8.1-3.5.4-5.1 1l-1.3-3.7c2.3-.9 4.8-1.4 7.3-1.4 5.6 0 8.2 2.3 8.2 6.6v7.4c0 1.5.4 2 1.3 2.3zm-6.7-2.3v-3.1h-1.4c-3.1 0-4.5 1-4.5 2.8 0 1.5.9 2.3 2.5 2.3 1.5 0 2.8-.7 3.4-2zm19.2-.4c0 1.5.9 2.1 2.4 2.1.9 0 1.8-.2 2.7-.6l1.3 3.7c-1.7.9-3.5 1.3-5.4 1.2-4.5 0-6.6-2.8-6.6-7.2v-15.8h-5.5v-3.8h11.1V580zm29.6 6.5c-4.6 0-7.6-1.5-9.7-3.5l2.9-3.2c1.8 1.6 4.2 2.5 6.6 2.5 2.4 0 4.1-1.1 4.1-3 0-1.8-1-2.6-4.4-3.6-5.7-1.8-7.9-3.9-7.9-7.6 0-4.5 4.1-7.1 9.2-7.1 3.7 0 6.6 1.2 8.7 3.2l-2.7 3.1c-1.6-1.3-3.6-2-5.6-2.1-2.2 0-3.6.8-3.6 2.4s1.1 2.2 5 3.4c4.7 1.4 7.4 3.4 7.4 7.9-.1 4.3-3.8 7.6-10 7.6zm23.6-4.4h4.8v3.8h-15.7v-3.8h5.3V571h-5.1v-3.8h10.7v14.9zm-.1-21.6c0 1.7-1.3 3.1-3 3.2h-.2c-1.7-.1-3.1-1.5-3-3.3.1-1.7 1.5-3.1 3.3-3 1.6 0 2.9 1.4 2.9 3.1zm24.4 21.1l-.5 4.2h-15.4v-4l9.4-10.6h-8.5V567h15v3.9l-9.2 10.6h9.2zm13.1.8c1.7 0 3.4-.6 4.8-1.6l2.2 3c-2.1 1.7-4.8 2.6-7.5 2.6-6.4 0-9.7-4.1-9.7-9.9 0-5.5 3.2-10 9.1-10 5.4 0 8.8 3.6 8.8 9.6 0 .7 0 1.3-.1 2h-12.1c.4 3.1 2.1 4.3 4.5 4.3zm-4.6-7.7h6.9c0-2.7-1-4.5-3.4-4.5-1.9 0-3.2 1.4-3.5 4.5z" class="st1"/><path d="M315.1 644.2c-4.1.4-4.8.9-6.9 5.9-1.3 2.9-7.4 17.5-11.1 26.5h-2.8c-2.8-7.3-8.4-21.7-11.2-28.3-1.4-3.3-2.5-3.8-6.1-4v-2.4h15.2v2.3c-4.3.4-4.4.8-3.6 3 1.7 4.3 5.4 13.8 8.5 21.7 4-9.6 7.7-18.7 8.4-20.8 1.1-3.1.7-3.7-4.2-4v-2.3h13.8v2.4zm15.6 32.7c-.9-.1-1.8-.4-2.5-1-.7-.7-1.2-1.6-1.5-2.5-2.4 1.6-5.1 3.5-7.3 3.5-3.9-.1-7-3.3-7-7.2 0-2.7 1.5-4.8 4.8-5.8 3.8-1.2 8.2-2.6 9.2-3.4v-1c0-3.7-2.1-5.3-4.7-5.3-1 0-2 .4-2.7 1.1-.7.7-1 2-1.5 3.4-.2.9-1 1.4-1.9 1.4-1.1 0-2.7-1.2-2.7-2.6 0-.9.8-1.6 1.9-2.4 1.5-.9 5.2-3 8.5-3.8 1.8 0 3.6.6 5 1.6 1.9 1.5 3 3.9 2.9 6.4v10.2c0 2.5.9 3.2 1.9 3.2.8-.1 1.5-.3 2.2-.6l.7 2.1-5.3 2.7zm-4.2-13.9c-1.4.7-3.9 1.6-5.6 2.3s-3.1 1.7-3.1 3.9c-.1 2.1 1.5 3.8 3.6 3.9h.2c1.6 0 3.1-.6 4.9-2.1v-8zm25.1 13.3h-13.4v-2.2c3.7-.3 3.9-.6 3.9-4v-10.9c0-3.3-.3-3.5-3.4-4v-2c2.8-.4 5.6-1.1 8.3-2.1-.1 1.7 0 4.4 0 5.9 2.3-3.5 4.8-5.8 7.2-5.8 2.2 0 3.5 1.4 3.5 2.8 0 1.5-.8 2.8-2.1 3.4-.5.3-1.1.2-1.5-.2-.9-.7-1.6-1.2-2.6-1.2-1.3 0-3.6 2-4.5 5.1v8.9c0 3.4.2 3.7 4.7 4l-.1 2.3zm8.8 0v-2.2c3.6-.3 4-.6 4-4.3v-10.4c0-3.3-.1-3.7-3.7-4v-2c2.9-.4 5.8-1.1 8.5-2.1v18.5c0 3.7.4 3.9 4 4.3v2.2h-12.8zm6-29c-1.8 0-3.3-1.5-3.3-3.3 0-1.9 1.5-3.4 3.4-3.4 1.9.1 3.3 1.7 3.2 3.5-.2 1.8-1.6 3.2-3.3 3.2zm28.4 29.6c-.9-.1-1.8-.4-2.5-1-.7-.7-1.2-1.6-1.5-2.5-2.4 1.6-5.1 3.5-7.3 3.5-3.9-.1-7-3.3-7-7.2 0-2.7 1.5-4.8 4.8-5.8 3.8-1.2 8.2-2.6 9.2-3.4v-1c0-3.7-2.1-5.3-4.7-5.3-1 0-2 .4-2.8 1.1-.7.7-1 2-1.5 3.4-.2.9-1 1.4-1.9 1.4-1.1 0-2.7-1.2-2.7-2.6 0-.9.8-1.6 1.9-2.4 1.5-.9 5.2-3 8.5-3.8 1.8 0 3.6.6 5 1.6 1.9 1.6 3 3.9 2.9 6.4v10.2c0 2.5.9 3.2 1.9 3.2.8-.1 1.5-.3 2.2-.6l.7 2.1-5.2 2.7zm-4.2-13.9c-1.4.7-3.9 1.6-5.6 2.3-1.7.7-3.1 1.7-3.1 3.9-.1 2.1 1.5 3.8 3.6 3.9h.2c1.6 0 3.1-.6 4.9-2.1v-8zm22.6-11c1.1-.4 2.2-.7 3.4-.7 6.2 0 11.2 5.2 11.2 11.6 0 8.5-6.9 14-14.6 14-3-.1-5.9-.8-8.6-2.1.1-1.8.1-4 .1-5.9v-22.7c0-3.1-.3-3.6-4-3.8v-2.1c3-.3 6-.9 8.9-1.7-.1 1.9-.1 4.9-.1 7.4v7.5l3.7-1.5zm-3.6 17.7c0 .6.1 1.2.4 1.8.3.8 2.5 2.5 5.4 2.5 3.8 0 7.1-3.3 7.1-9.6 0-6.2-4.1-9.7-8.1-9.7-1.7 0-3.3.4-4.8 1v14zm21.2 6.6v-2.2c3.7-.3 4.1-.6 4.1-4v-23.7c0-3.4-.3-3.6-4-3.8v-2.2c3-.2 6-.8 8.8-1.7v31.5c0 3.4.5 3.7 4.3 4v2.2l-13.2-.1zm37.4-4.5c-3.9 4.3-8.1 5.2-10.1 5.2-6.8 0-11.2-5.5-11.2-12.4 0-3.4 1.2-6.6 3.5-9.2 2.2-2.6 5.3-4 8.7-4 5.6 0 9.4 4.4 9.4 9.7-.1 1.2-.2 1.8-1.2 2-2.6.4-9.1.7-15.4.9.3 6.1 4.4 8.8 8.1 8.8 2.6-.1 5.2-1.1 7.1-2.8l1.1 1.8zm-10.3-17.9c-2.9 0-5.4 2.6-5.9 7 2.9 0 6.4-.1 9.6-.2 1.2-.1 1.5-.3 1.5-1.2 0-2.6-2-5.6-5.2-5.6zm-145.5 70.3c-3.7.5-4.5.9-6.5 5.8-1.4 3.4-8.5 20.5-11.3 27.5h-1.9c-3.1-8.3-7.8-21.1-10.8-28.7-1.5-3.8-2.4-4.3-5.7-4.6v-1.7H290v1.7c-4 .4-4.2 1-3.4 3 1.4 4 5.2 14.3 8.5 22.9 3-7.4 6.6-16.1 8.7-21.9 1.1-3.1.6-3.6-3.9-4.1v-1.7h12.5v1.8zm12.4 33.4c-.9 0-1.8-.4-2.5-1-.7-.7-1.1-1.5-1.3-2.4-2.2 1.5-4.8 3.4-6.5 3.4-3.6 0-6.6-3-6.6-6.6 0-2.6 1.5-4.4 4.4-5.4 3.3-1.1 7.4-2.5 8.5-3.4v-1c0-3.7-1.9-5.8-4.7-5.8-1 0-1.9.4-2.5 1.2-.7 1.1-1.2 2.2-1.5 3.4-.1.8-.8 1.3-1.6 1.2-1.3-.1-2.3-1.1-2.4-2.4 0-.8.7-1.4 1.8-2.2 1.5-1.1 4.7-3.1 7.8-3.7 1.6 0 3.2.5 4.6 1.5a7.1 7.1 0 0 1 2.7 6.2v10.2c0 2.4.9 3.2 1.9 3.2.7 0 1.4-.2 2-.6l.6 1.6-4.7 2.6zm-3.9-13.5c-1.2.6-3.7 1.7-5.1 2.2-1.9.9-3.2 1.9-3.2 3.9-.1 2.1 1.5 3.9 3.6 4h.2c1.7-.1 3.2-.8 4.5-1.9v-8.2zm22.4 12.9h-12.4v-1.6c3.4-.3 3.7-.6 3.7-4v-11c0-3.5-.2-3.6-3.3-4v-1.5c2.6-.4 5.2-1.1 7.6-2.1v5.9c1.9-2.9 4.2-5.7 6.8-5.7 2 0 3.2 1.2 3.2 2.6-.1 1.3-.8 2.4-1.9 3-.4.3-1 .3-1.4-.1-.8-.7-1.5-1.3-2.4-1.3-1.2 0-3.2 1.7-4.3 4.5v9.7c0 3.5.2 3.7 4.4 4.1v1.5zm7.2 0v-1.6c3.4-.3 3.8-.6 3.8-4.2v-10.8c0-3.3-.1-3.5-3.4-4V735c2.6-.4 5.2-1.1 7.7-2.1v18.4c0 3.6.4 3.9 3.9 4.2v1.6l-12-.1zm5.6-29.2c-1.6 0-2.9-1.3-2.9-3s1.3-2.9 3-2.9c1.6 0 2.8 1.3 2.8 2.9v.1c-.1 1.6-1.3 2.9-2.9 2.9zm25.3 29.8c-.9 0-1.8-.4-2.5-1-.7-.7-1.1-1.5-1.3-2.4-2.2 1.5-4.8 3.4-6.5 3.4-3.6 0-6.6-3-6.6-6.6 0-2.6 1.5-4.4 4.4-5.4 3.3-1.1 7.4-2.5 8.5-3.4v-1c0-3.7-1.9-5.8-4.7-5.8-1 0-1.9.4-2.5 1.2-.6.7-1 1.9-1.5 3.4-.1.8-.8 1.3-1.6 1.2-1.3-.1-2.3-1.1-2.4-2.4 0-.8.7-1.4 1.8-2.2 1.5-1.1 4.7-3.1 7.8-3.7 1.6 0 3.2.5 4.6 1.5a7.1 7.1 0 0 1 2.7 6.2v10.2c0 2.4.9 3.2 1.9 3.2.7 0 1.4-.2 2-.6l.6 1.6-4.7 2.6zm-3.9-13.5c-1.2.6-3.7 1.7-5.1 2.2-1.9.9-3.2 1.9-3.2 3.9-.1 2.1 1.5 3.9 3.6 4h.2c1.7-.1 3.2-.8 4.5-1.9v-8.2zm20.7-10.6c.8-.4 1.7-.5 2.5-.6 5.8 0 10.6 5 10.6 11.3-.1 7.4-6 13.3-13.4 13.4-2.9-.1-5.7-.7-8.2-1.9v-29.5c0-3.2-.2-3.6-3.6-3.9v-1.5c2.7-.4 5.4-1 8-1.8v16.2l4.1-1.7zm-4.2 17.2c0 .6.1 1.3.3 1.8.6 1.2 2.7 2.8 5.3 2.8 4.4 0 6.9-3.8 6.9-9.8s-3.7-9.6-8.1-9.6c-1.5 0-3 .4-4.4 1v13.8zm19.4 6.3v-1.6c3.4-.3 3.9-.6 3.9-4.1v-25c0-3.3-.3-3.6-3.7-3.9v-1.5c2.7-.3 5.4-.9 8-1.8v32.3c0 3.5.4 3.7 3.9 4.1v1.6l-12.1-.1zm33.7-4.5c-3.5 4.2-7.3 5.1-9.1 5.1-6.5 0-10.5-5.3-10.5-11.6 0-3.4 1.2-6.7 3.5-9.2 2-2.4 4.9-3.8 8-3.9 4.6.1 8.4 3.9 8.4 8.5-.1 1.1-.2 1.6-1.1 1.8-1.4.2-8.1.7-14.4.9-.1 6.9 4.2 9.8 8 9.8 2.4-.1 4.7-1 6.3-2.7l.9 1.3zm-9.4-17.5c-2.5 0-4.9 2.3-5.6 6.7 2.9 0 6 0 9.2-.2 1 0 1.3-.3 1.3-1.1 0-2.8-1.9-5.4-4.9-5.4zm-127 69.3c-3.5.5-4.2 1.2-6.1 5.8-1.5 3.8-7.9 19.7-11.3 28.3h-1.2c-3.3-9.3-7.4-20.3-10.6-29.1-1.5-4-2.3-4.5-5.6-5v-1h12.9v1c-3.7.6-4 1.2-3.4 3.2 1.3 4 6.6 18.3 8.8 24.1 2.4-6 6.3-16.1 8.7-22.8 1.2-3.2.9-3.8-3.7-4.4v-1h11.6l-.1.9zm10.9 34c-.9 0-1.8-.4-2.4-1-.6-.7-1.1-1.5-1.2-2.4-2 1.4-4.7 3.4-6.1 3.4-3.4 0-6.1-2.8-6.1-6.1 0-2.5 1.3-4 4-4.9 3-1.1 6.9-2.3 8.2-3.3v-1.4c0-3.8-1.9-6.1-4.7-6.1-.9 0-1.8.4-2.4 1.1-.7 1-1.2 2.2-1.4 3.4-.1.6-.6 1-1.2 1-1.1-.1-2-1-2.1-2.1 0-.6.5-1.1 1.5-1.8 1.5-1.1 4.9-3.1 7.4-3.7 1.5 0 2.9.5 4.1 1.3 1.8 1.6 2.5 3.4 2.5 6.3v9.8c0 2.5.9 3.3 1.9 3.3.6 0 1.2-.2 1.8-.6l.4 1-4.2 2.8zm-3.7-13c-1 .6-3.7 1.7-5 2.3-1.9.8-3.1 1.8-3.1 3.8-.1 2.1 1.5 3.9 3.7 4h.2c1.6-.1 3.1-.7 4.2-1.8 0-2.6.1-5.7 0-8.3zm20.3 12.4h-11.4v-1c3.2-.4 3.4-.7 3.4-4.3v-10.8c0-3.4-.1-3.7-2.9-4.2v-.9c2.4-.4 4.7-1.2 6.8-2.2 0 1.3 0 3.9-.1 5.8 1.5-2.5 4-5.6 6.5-5.6 1.7 0 2.8 1.1 2.8 2.3-.1 1.1-.6 2.1-1.5 2.6-.4.3-.9.3-1.3-.1-.8-.8-1.4-1.3-2.4-1.3-1.1 0-2.9 1.4-4.1 4.1v10.3c0 3.7.3 3.9 4.2 4.4v.9zm6.4 0v-1c3.3-.4 3.6-.7 3.6-4.4v-10.8c0-3.5-.2-3.7-3.2-4.2v-.9c2.4-.4 4.7-1.1 7-2.1 0 1.6-.1 4.3-.1 6.6v11.3c0 3.8.3 4 3.6 4.4v1l-10.9.1zm5.2-29.4c-1.4 0-2.4-1.1-2.5-2.5 0-1.4 1.1-2.5 2.5-2.6 1.3 0 2.4 1.1 2.4 2.4v.1c.1 1.4-1 2.5-2.4 2.6zm23.5 30c-.9 0-1.8-.4-2.4-1-.6-.6-1.1-1.5-1.2-2.4-2 1.4-4.7 3.4-6.1 3.4-3.4 0-6.1-2.8-6.1-6.1 0-2.5 1.3-4 4-4.9 3-1.1 6.9-2.3 8.2-3.3v-1.4c0-3.8-1.9-6.1-4.7-6.1-.9 0-1.8.4-2.4 1.1-.7 1-1.2 2.2-1.4 3.4-.1.6-.6 1-1.2 1-1.1-.1-2-1-2.1-2.1 0-.6.5-1.1 1.5-1.8 1.5-1.1 4.9-3.1 7.4-3.7 1.5 0 2.9.5 4.1 1.3 1.8 1.6 2.5 3.4 2.5 6.3v9.8c0 2.5.9 3.3 1.9 3.3.6 0 1.2-.2 1.8-.6l.4 1-4.2 2.8zm-3.7-13c-1 .6-3.7 1.7-5 2.3-1.9.8-3.1 1.8-3.1 3.8-.1 2.1 1.5 3.9 3.7 4h.2c1.6-.1 3.1-.7 4.2-1.8 0-2.6.1-5.7 0-8.3zm19.5-10.5c.6-.3 1.3-.4 2-.4 5.5 0 10.1 4.5 10.1 10.9 0 7.1-5.7 12.9-12.8 13-2.6-.1-5.2-.7-7.6-1.8.1-1.3.1-2.7.1-4.1v-25.8c0-3.5-.2-3.9-3.5-4.4v-.9c2.5-.3 5-.9 7.4-1.8-.1 1.8-.1 4.5-.1 6.6v10.7l4.4-2zm-4.6 16.9c0 .6.1 1.3.3 1.9.5 1.3 2.7 2.8 5.5 2.8 4.5 0 6.6-4 6.6-9.8 0-5.9-3.5-9.6-8.1-9.6-1.5 0-2.9.3-4.2.9l-.1 13.8zm18.3 6v-1c3.2-.4 3.6-.7 3.6-4.4v-25.4c0-3.8-.3-4.1-3.5-4.6v-1c2.5-.3 5-.9 7.4-1.8 0 1.9-.1 4.4-.1 7.4v25.3c0 3.7.3 4 3.6 4.4v1l-11 .1zm31-4.5c-3.2 4.1-6.7 5.1-8.3 5.1-6.3 0-10.1-5.3-10.1-11.2-.1-3.3 1.1-6.5 3.3-9 2.1-2.3 5-3.7 7.6-3.7 4.2 0 7.6 3.4 7.7 7.6 0 .9-.1 1.4-.6 1.5-1 .3-7.5.7-14.2.8-.2 7.9 4.4 10.7 8.1 10.7 2.3-.1 4.4-1 5.9-2.7l.6.9zm-8.9-17.1c-2.5 0-4.9 2.1-5.6 6.4 3.1.1 7.7 0 9.7-.2.6 0 .8-.3.8-.9 0-2.7-1.6-5.3-4.9-5.3zm-114.4 68.7c-3.5.6-4.2 1.2-6.1 5.8-1.6 3.9-7.7 19.2-11.3 28.4h-1c-3.4-9.5-7.3-20.1-10.6-29.2-1.5-4.1-2.3-4.5-5.6-5v-.9h12.7v.9c-3.7.6-4 1.2-3.4 3.2 1.3 4 7 19.3 8.9 24.4 2.3-5.8 6.3-16.3 8.7-23 1.2-3.2.9-3.9-3.7-4.5v-.9h11.4v.8zm10.6 34.2c-.9 0-1.8-.4-2.4-1-.6-.6-1.1-1.5-1.2-2.4-2 1.4-4.7 3.4-6 3.4-3.3 0-6-2.7-6-6 0-2.4 1.3-3.9 3.9-4.8 2.9-1 6.8-2.3 8.1-3.2v-1.4c0-3.8-1.9-6.2-4.7-6.2-.9 0-1.8.3-2.4 1-.7 1-1.2 2.2-1.4 3.4-.1.6-.6 1-1.2 1-1.1-.1-1.9-.9-2-2 0-.5.5-1 1.4-1.7 1.4-1.1 4.9-3.1 7.4-3.7 1.5 0 2.9.5 4 1.3 1.8 1.6 2.4 3.3 2.4 6.4v9.7c0 2.5.9 3.3 1.9 3.3.6 0 1.2-.2 1.7-.5l.4.9-3.9 2.5zm-3.6-12.9c-1 .6-3.7 1.7-5 2.3-1.8.8-3.1 1.8-3.1 3.7-.1 2.1 1.6 3.9 3.7 4h.2c1.6 0 3.1-.7 4.2-1.8-.1-2.5 0-5.5 0-8.2zm19.8 12.2h-11.2v-.9c3.1-.4 3.4-.7 3.4-4.4v-10.7c0-3.4-.1-3.7-2.9-4.2v-.7c2.3-.4 4.5-1.2 6.6-2.2 0 1.2 0 3.9-.1 5.7 1.5-2.4 4-5.6 6.5-5.6 1.7 0 2.7 1.1 2.7 2.2-.1 1-.6 2-1.5 2.6-.4.3-.9.3-1.3 0-.8-.8-1.4-1.3-2.4-1.3-1.1 0-2.8 1.3-4.1 4v10.4c0 3.7.3 3.9 4.2 4.5l.1.6zm6.3 0v-.9c3.3-.5 3.6-.7 3.6-4.5v-10.7c0-3.5-.2-3.8-3.1-4.3v-.7c2.4-.4 4.6-1.1 6.8-2.1 0 1.4-.1 4.3-.1 6.6V913c0 3.8.3 4.1 3.6 4.5v.9l-10.8-.1zm5.2-29.5c-1.3-.1-2.3-1.1-2.4-2.4 0-1.3 1-2.4 2.4-2.5h.1c1.3 0 2.4 1 2.4 2.3v.1c-.1 1.5-1.2 2.5-2.5 2.5zM372 919c-.9 0-1.8-.4-2.4-1-.6-.6-1.1-1.5-1.2-2.4-2 1.4-4.7 3.4-6 3.4-3.3 0-6-2.7-6-6 0-2.4 1.3-3.9 3.9-4.8 2.9-1 6.8-2.3 8.1-3.2v-1.4c0-3.8-1.9-6.2-4.7-6.2-.9 0-1.8.3-2.4 1-.7 1-1.2 2.2-1.4 3.4-.1.6-.6 1-1.2 1-1.1-.1-1.9-.9-2-2 0-.5.5-1 1.4-1.7 1.4-1.1 4.9-3.1 7.4-3.7 1.5 0 2.9.5 4 1.3 1.8 1.6 2.4 3.3 2.4 6.4v9.7c0 2.5.9 3.3 1.9 3.3.6 0 1.2-.2 1.7-.5l.4.9-3.9 2.5zm-3.6-12.9c-1 .6-3.7 1.7-5 2.3-1.8.8-3.1 1.8-3.1 3.7-.1 2.1 1.6 3.9 3.7 4h.2c1.6 0 3.1-.7 4.2-1.8-.1-2.5 0-5.5 0-8.2zm19.2-10.4c.6-.3 1.2-.4 1.9-.4 5.4 0 10 4.4 10 10.8 0 7.1-5.7 12.9-12.7 12.9-2.6-.1-5.1-.7-7.4-1.8.1-1.3.1-2.7.1-4.1v-25.9c0-3.5-.2-4-3.5-4.5v-.7c2.5-.3 4.9-.9 7.2-1.8-.1 1.7-.1 4.6-.1 6.7v10.8l4.5-2zm-4.6 16.8c0 .6.1 1.3.3 1.9.5 1.3 2.7 2.8 5.6 2.8 4.5 0 6.5-4 6.5-9.8 0-5.9-3.4-9.6-8.1-9.6-1.4 0-2.9.3-4.2.9l-.1 13.8zm18 5.8v-.9c3.2-.4 3.6-.7 3.6-4.5v-25.4c0-3.9-.3-4.3-3.5-4.7v-.8c2.5-.3 4.9-.9 7.2-1.8 0 1.7-.1 4.2-.1 7.4V913c0 3.7.2 4 3.5 4.5v.9H401zm30.7-4.4c-3.2 4-6.6 5.1-8.1 5.1-6.3 0-10-5.3-10-11.1-.1-3.3 1.1-6.4 3.2-8.9 2.1-2.3 4.9-3.7 7.5-3.7 4.1 0 7.4 3.3 7.5 7.4 0 .9-.1 1.3-.5 1.5-1 .3-7.4.7-14.2.8-.2 8.1 4.4 10.9 8.2 10.9 2.2-.1 4.4-1.1 5.9-2.7l.5.7zm-8.8-17c-2.6 0-4.9 2.1-5.6 6.4 3.1.1 8.2 0 9.9-.2.5 0 .6-.3.6-.9 0-2.7-1.6-5.3-4.9-5.3zm-110.8 68.3c-3.5.6-4.1 1.3-6 5.9-1.6 4.1-7.3 18.4-11.3 28.7h-.7c-3.5-9.9-7.1-19.7-10.6-29.4-1.5-4.1-2.2-4.6-5.7-5.1v-.6h12.4v.6c-3.5.7-4 1.3-3.3 3.3 1.3 4.1 7.7 21.3 9 24.8 2.1-5.4 6.2-16.6 8.7-23.4 1.2-3.2 1.1-4-3.7-4.7v-.6H312l.1.5zm10.3 34.4c-.9 0-1.8-.4-2.4-1.1-.6-.6-1.1-1.5-1.2-2.4-1.9 1.4-4.7 3.4-5.9 3.4-3.2 0-5.8-2.6-5.8-5.8 0-2.4 1.3-3.8 3.8-4.7 2.9-1 6.6-2.2 8-3.1v-1.6c0-3.8-1.9-6.3-4.7-6.3-.9 0-1.7.3-2.3.9-.7 1-1.2 2.1-1.4 3.3-.1.5-.5.8-1 .8-1-.1-1.8-.9-1.9-1.9 0-.4.4-.8 1.3-1.5 1.4-1.1 5.1-3.2 7.3-3.7 1.4 0 2.7.4 3.9 1.3 1.7 1.6 2.3 3.3 2.3 6.5v9.5c0 2.5.8 3.4 1.9 3.4.6 0 1.2-.2 1.6-.5l.3.7-3.8 2.8zm-3.5-12.6c-.9.6-3.7 1.6-5.1 2.3-1.7.8-3 1.8-3 3.7-.1 2.1 1.6 3.9 3.7 4h.2c1.6 0 3.1-.7 4.1-1.8 0-2.5.1-5.4.1-8.2zm19.1 12h-10.8v-.6c3.1-.5 3.3-.7 3.3-4.6v-10.6c0-3.4 0-3.7-2.7-4.3v-.5c2.2-.4 4.3-1.2 6.3-2.2-.1.9-.1 3.8-.2 5.7 1.3-2.2 4-5.5 6.4-5.5 1.5 0 2.6 1.1 2.6 2.1s-.5 1.9-1.3 2.4c-.3.3-.9.3-1.2 0-.8-.8-1.4-1.3-2.4-1.3s-2.7 1.2-4.1 3.8v10.5c0 3.8.3 4 4.1 4.6v.5zm6.1 0v-.6c3.3-.5 3.5-.8 3.5-4.6v-10.6c0-3.6-.2-3.9-3-4.4v-.5c2.3-.4 4.5-1.1 6.6-2.1-.1 1.1-.1 4.2-.1 6.6v11c0 3.9.3 4.1 3.5 4.7v.6l-10.5-.1zm5-29.6c-1.2-.1-2.2-1-2.2-2.2 0-1.3 1-2.3 2.2-2.3 1.2 0 2.2 1 2.2 2.2v.1c0 1.2-1 2.2-2.2 2.2zm22.6 30.2c-.9 0-1.8-.4-2.4-1.1-.6-.6-1.1-1.5-1.2-2.4-1.9 1.4-4.7 3.4-5.9 3.4-3.2 0-5.8-2.6-5.8-5.8 0-2.4 1.3-3.8 3.8-4.7 2.9-1 6.6-2.2 8-3.1v-1.6c0-3.8-1.9-6.3-4.7-6.3-.9 0-1.7.3-2.3.9-.7 1-1.2 2.1-1.4 3.3-.1.5-.5.8-1 .8-1-.1-1.8-.9-1.9-1.9 0-.4.4-.8 1.3-1.5 1.4-1.1 5.1-3.2 7.2-3.7 1.4 0 2.7.4 3.9 1.3 1.7 1.6 2.3 3.3 2.3 6.5v9.5c0 2.5.9 3.4 1.9 3.4.6 0 1.2-.2 1.6-.5l.3.7-3.7 2.8zm-3.5-12.6c-.9.6-3.7 1.6-5.1 2.3-1.7.8-3 1.8-3 3.7-.1 2.1 1.6 3.9 3.7 4h.2c1.6 0 3.1-.7 4.1-1.8 0-2.5.1-5.4.1-8.2zm18.8-10.4c.5-.2 1.1-.4 1.7-.4 5.3 0 9.8 4.2 9.8 10.6.1 7-5.5 12.7-12.5 12.8h-.1c-2.5-.1-4.9-.7-7.1-1.7.1-1.3.1-2.7.1-4v-26c0-3.7-.2-4.2-3.4-4.8v-.6c2.4-.3 4.7-.9 7-1.8-.1 1.5-.2 4.8-.2 6.9v11l4.7-2zm-4.7 16.8c0 .6.1 1.3.3 1.9.4 1.3 2.6 2.8 5.7 2.8 4.5 0 6.4-4 6.4-9.7 0-5.9-3.3-9.6-8.2-9.6-1.4 0-2.9.2-4.2.8v13.8zm17.6 5.6v-.6c3.1-.5 3.5-.7 3.5-4.7v-25.5c0-4.2-.3-4.6-3.4-5v-.6c2.4-.3 4.7-.9 6.9-1.8-.1 1.4-.2 3.8-.2 7.4v25.6c0 3.8.2 4.1 3.4 4.7v.6l-10.2-.1zm29.8-4.4c-3.1 3.9-6.4 5.1-7.9 5.1-6.2 0-9.8-5.2-9.8-11-.1-3.2 1-6.3 3.2-8.7 2.1-2.2 4.9-3.7 7.4-3.7 3.9 0 7.2 3.1 7.3 7 0 .8-.1 1.3-.3 1.3-1 .4-7.2.7-14.3.8-.2 8.5 4.5 11.3 8.3 11.3 2.2-.1 4.3-1.1 5.8-2.7l.3.6zm-8.6-16.9c-2.6 0-4.9 2-5.6 6.4 3.4.1 6.8.1 10.2-.2.3-.1.4-.3.4-.8-.1-2.7-1.6-5.4-5-5.4zm-402-247c-1.8.2-2.2.5-3.2 2.9-.7 1.7-4.2 10.2-5.6 13.8h-1c-1.5-4.1-3.9-10.5-5.4-14.3-.7-1.9-1.2-2.2-2.9-2.3v-.8h6.9v.8c-2 .2-2.1.5-1.7 1.5.7 2 2.6 7.1 4.3 11.4 1.5-3.7 3.3-8.1 4.4-10.9.6-1.5.3-1.8-1.9-2v-.8h6.2v.7zm6.2 16.7c-.5 0-.9-.2-1.2-.5-.3-.3-.6-.8-.7-1.2-1.1.7-2.4 1.7-3.3 1.7-1.8 0-3.3-1.5-3.3-3.3 0-1.3.7-2.2 2.2-2.7 1.7-.6 3.7-1.3 4.3-1.7v-.5c0-1.9-1-2.9-2.3-2.9-.5 0-1 .2-1.3.6-.3.5-.6 1.1-.7 1.7-.1.4-.4.6-.8.6-.6 0-1.1-.6-1.2-1.2 0-.4.4-.7.9-1.1 1.2-.9 2.5-1.5 3.9-1.9.8 0 1.6.2 2.3.7.9.7 1.4 1.9 1.4 3.1v5.1c0 1.2.4 1.6.9 1.6.3 0 .7-.1 1-.3l.3.8-2.4 1.4zm-2-6.8c-.6.3-1.9.8-2.5 1.1-1 .4-1.6.9-1.6 1.9-.1 1.1.8 2 1.8 2h.1c.8-.1 1.6-.4 2.2-1v-4zm11.2 6.5h-6.2v-.8c1.7-.2 1.9-.3 1.9-2v-5.5c0-1.7-.1-1.8-1.7-2v-.8c1.3-.2 2.6-.6 3.8-1.1v2.9c1-1.5 2.1-2.8 3.4-2.8.8-.1 1.5.5 1.6 1.2v.1c0 .6-.4 1.2-.9 1.5-.2.2-.5.1-.7-.1-.3-.4-.7-.6-1.2-.7-.6 0-1.6.9-2.1 2.2v4.9c0 1.7.1 1.9 2.2 2v1zm3.6 0v-.8c1.7-.2 1.9-.3 1.9-2.1v-5.4c0-1.6-.1-1.8-1.7-2v-.8c1.3-.2 2.6-.6 3.9-1.1v9.2c0 1.8.2 1.9 1.9 2.1v.8l-6 .1zm2.8-14.6c-.8 0-1.5-.7-1.5-1.5s.7-1.5 1.5-1.5 1.4.7 1.4 1.5-.6 1.5-1.4 1.5zm12.7 14.9c-.5 0-.9-.2-1.2-.5-.3-.3-.6-.8-.7-1.2-1.1.7-2.4 1.7-3.3 1.7-1.8 0-3.3-1.5-3.3-3.3 0-1.3.7-2.2 2.2-2.7 1.7-.6 3.7-1.3 4.3-1.7v-.5c0-1.9-1-2.9-2.3-2.9-.5 0-1 .2-1.3.6-.3.5-.6 1.1-.7 1.7-.1.4-.4.7-.8.6-.6 0-1.1-.6-1.2-1.2 0-.4.4-.7.9-1.1 1.2-.9 2.5-1.5 3.9-1.9.8 0 1.6.2 2.3.7.9.7 1.4 1.9 1.4 3.1v5.1c0 1.2.4 1.6.9 1.6.3 0 .7-.1 1-.3l.3.8-2.4 1.4zm-2-6.8c-.6.3-1.9.8-2.5 1.1-1 .4-1.6.9-1.6 1.9-.1 1.1.7 2 1.8 2h.1c.8-.1 1.6-.4 2.2-1v-4zm10.3-5.3c.4-.2.8-.3 1.3-.3 3 .1 5.4 2.6 5.3 5.6 0 3.7-3 6.7-6.7 6.7-1.4 0-2.8-.4-4.1-1v-14.8c0-1.6-.1-1.8-1.8-1.9v-.6c1.4-.2 2.7-.5 4-.9v8.1l2-.9zm-2.1 8.6c0 .3 0 .6.1.9.6.9 1.6 1.4 2.6 1.4 2.2 0 3.4-1.9 3.4-4.9 0-3-1.9-4.8-4-4.8-.8 0-1.5.2-2.2.5l.1 6.9zm9.7 3.2v-.8c1.7-.2 1.9-.3 1.9-2v-12.5c0-1.6-.1-1.8-1.9-2v-.8c1.4-.2 2.7-.4 4-.9v16.2c0 1.7.2 1.9 1.9 2v.8h-5.9zm16.9-2.3c-1.7 2.1-3.7 2.6-4.5 2.6-3.3 0-5.3-2.7-5.3-5.8 0-1.7.6-3.4 1.7-4.6 1-1.2 2.5-1.9 4-1.9 2.3 0 4.2 1.9 4.2 4.2 0 .5-.1.8-.5.9-.7.1-4 .3-7.2.4 0 3.4 2.1 4.9 4 4.9 1.2 0 2.3-.5 3.2-1.4l.4.7zm-4.7-8.7c-1.3 0-2.5 1.2-2.8 3.3 1.5 0 3 0 4.6-.1.5 0 .7-.1.7-.5 0-1.4-1-2.6-2.5-2.7.1 0 0 0 0 0zM23.8 808c-2.4.4-2.8.8-4.1 3.9-1 2.5-5.3 13.1-7.5 18.9h-.8c-2.2-6.2-4.9-13.5-7.1-19.4-1-2.7-1.5-3-3.8-3.3v-.7h8.6v.7c-2.5.4-2.7.8-2.2 2.1.9 2.7 4.4 12.2 5.9 16.1 1.6-4 4.2-10.7 5.8-15.2.8-2.1.6-2.5-2.5-2.9v-.7h7.7v.5zm7.3 22.7c-.6 0-1.2-.3-1.6-.7-.4-.4-.7-1-.8-1.6-1.3.9-3.1 2.3-4.1 2.3-2.2 0-4.1-1.8-4.1-4.1 0-1.6.9-2.7 2.7-3.3 2-.7 4.6-1.5 5.4-2.2v-.9c0-2.5-1.3-4.1-3.1-4.1-.6 0-1.2.3-1.6.7-.5.7-.8 1.4-1 2.2-.1.4-.4.7-.8.7-.7 0-1.3-.6-1.4-1.4 0-.4.3-.7 1-1.2 1.5-1.1 3.2-1.9 4.9-2.4 1 0 1.9.3 2.7.9 1.2 1.1 1.6 2.2 1.6 4.2v6.5c0 1.7.6 2.2 1.2 2.2.4 0 .8-.1 1.2-.4l.3.7-2.5 1.9zm-2.5-8.6c-.7.4-2.5 1.1-3.3 1.5-1.2.6-2.1 1.2-2.1 2.5-.1 1.4 1 2.6 2.5 2.7h.1c1.1 0 2.1-.5 2.8-1.2v-5.5zm13.5 8.2h-7.6v-.7c2.1-.3 2.3-.4 2.3-2.9v-7.2c0-2.3-.1-2.5-2-2.8v-.6c1.6-.3 3.1-.8 4.5-1.5 0 .9 0 2.6-.1 3.8 1-1.6 2.7-3.7 4.4-3.7.9-.1 1.8.6 1.9 1.5 0 .7-.4 1.4-1 1.8-.2.2-.6.2-.9 0-.4-.5-1-.8-1.6-.9-.7 0-1.9.9-2.8 2.7v6.9c0 2.4.2 2.6 2.8 2.9v.7zm4.3 0v-.7c2.2-.3 2.4-.5 2.4-2.9v-7.2c0-2.3-.1-2.5-2.1-2.8v-.6c1.6-.3 3.2-.7 4.7-1.4v11.9c0 2.5.2 2.7 2.4 2.9v.7l-7.4.1zm3.5-19.6c-.9 0-1.6-.8-1.7-1.7 0-.9.7-1.7 1.7-1.7.9 0 1.6.7 1.6 1.6v.1c0 1-.7 1.7-1.6 1.7zm15.7 20c-.6 0-1.2-.3-1.6-.7-.4-.4-.7-1-.8-1.6-1.3.9-3.1 2.3-4.1 2.3-2.2 0-4.1-1.8-4.1-4.1 0-1.6.9-2.7 2.7-3.3 2-.7 4.6-1.5 5.4-2.2v-.9c0-2.5-1.2-4.1-3.1-4.1-.6 0-1.2.3-1.6.7-.4.7-.8 1.5-.9 2.2-.1.4-.4.7-.8.7-.7 0-1.3-.6-1.4-1.4 0-.4.3-.7 1-1.2 1.5-1.1 3.2-1.9 4.9-2.4 1 0 2 .3 2.7.9 1.2 1.1 1.6 2.2 1.6 4.2v6.5c0 1.7.6 2.2 1.2 2.2.4 0 .8-.1 1.2-.4l.3.7-2.6 1.9zm-2.5-8.6c-.7.4-2.4 1.1-3.3 1.5-1.2.6-2.1 1.2-2.1 2.5-.1 1.4 1 2.6 2.4 2.7h.1c1.1 0 2.1-.5 2.8-1.2.1-1.7.1-3.8.1-5.5zm12.9-7c.4-.2.9-.3 1.3-.3 3.7 0 6.7 3 6.7 7.2 0 4.7-3.8 8.6-8.5 8.7-1.7-.1-3.5-.5-5.1-1.2v-20c0-2.3-.1-2.6-2.3-2.9v-.6c1.7-.2 3.3-.6 4.9-1.2 0 1.2-.1 3-.1 4.4v7.1l3.1-1.2zm-3 11.3c0 .4 0 .9.2 1.3.3.9 1.8 1.9 3.7 1.9 3 0 4.4-2.6 4.4-6.5s-2.3-6.4-5.4-6.4c-1 0-1.9.2-2.8.6l-.1 9.1zm12.2 3.9v-.7c2.1-.3 2.4-.4 2.4-2.9v-16.9c0-2.5-.2-2.7-2.3-3v-.6c1.7-.2 3.3-.6 4.9-1.2 0 1.2-.1 2.9-.1 5v16.9c0 2.4.2 2.6 2.4 2.9v.7l-7.3-.2zm20.7-3c-2.1 2.7-4.5 3.4-5.5 3.4-4.2 0-6.7-3.5-6.7-7.4 0-2.2.7-4.3 2.2-6 1.3-1.5 3.1-2.4 5.1-2.5 2.8 0 5 2.3 5.1 5 0 .6-.1.9-.4 1-3.1.4-6.3.6-9.5.6-.1 5.2 2.9 7.2 5.4 7.2 1.5-.1 2.9-.7 4-1.8l.3.5zm-5.9-11.4c-1.7 0-3.2 1.4-3.7 4.3 2.1 0 5.1 0 6.5-.1.4 0 .5-.2.5-.6-.1-1.8-1.2-3.6-3.3-3.6zm-70.8 69.7c-2.9.5-3.5 1-5.1 4.9-1.3 3.3-6.4 16-9.4 23.7h-.9c-2.8-7.9-6.1-16.7-8.8-24.4-1.2-3.4-1.9-3.8-4.7-4.2v-.7h10.5v.7c-3 .5-3.3 1-2.8 2.7 1.1 3.3 5.8 16.1 7.4 20.3 1.9-4.8 5.2-13.5 7.3-19.2 1-2.7.8-3.2-3.1-3.8v-.7h9.5v.7zm8.9 28.5c-.8 0-1.5-.3-2-.9-.5-.5-.9-1.2-1-2-1.6 1.2-3.9 2.9-5 2.9-2.8 0-5-2.3-5-5 0-2 1.1-3.3 3.3-4 2.5-.9 5.7-1.9 6.7-2.7v-1.2c0-3.2-1.6-5.1-3.9-5.1-.8 0-1.5.3-2 .9-.6.9-1 1.8-1.2 2.8-.1.5-.5.8-1 .8-.9-.1-1.6-.8-1.7-1.7 0-.4.4-.8 1.2-1.4 1.9-1.4 3.9-2.4 6.1-3.1 1.2 0 2.4.4 3.4 1.1 1.5 1.3 2 2.8 2 5.3v8.1c0 2.1.7 2.8 1.5 2.8.5 0 1-.1 1.4-.4l.3.7-3.1 2.1zm-3-10.8c-.8.5-3.1 1.4-4.2 1.9-1.5.7-2.6 1.5-2.6 3.1-.1 1.8 1.3 3.3 3.1 3.3h.1c1.3 0 2.6-.6 3.5-1.5 0-2 .1-4.5.1-6.8zm16.5 10.3h-9.4v-.7c2.6-.4 2.8-.6 2.8-3.7v-9c0-2.8-.1-3.1-2.4-3.5v-.7c1.9-.3 3.8-1 5.5-1.8 0 1 0 3.2-.1 4.8 1.2-2 3.3-4.6 5.4-4.6 1.1-.1 2.1.7 2.3 1.8 0 .9-.5 1.7-1.2 2.1-.3.3-.7.3-1 0-.5-.6-1.2-1-2-1.1-.9 0-2.3 1.1-3.4 3.3v8.6c0 3.1.2 3.3 3.5 3.7v.8zm5.3 0v-.7c2.7-.4 2.9-.6 2.9-3.7v-8.9c0-2.9-.2-3.1-2.6-3.6v-.7c2-.3 3.9-.9 5.7-1.7 0 1.2-.1 3.6-.1 5.5v9.3c0 3.2.3 3.4 3 3.8v.7h-8.9zm4.2-24.6c-1.1 0-2-.9-2-2s.9-2 2-2 2 .9 2 1.9v.1c0 1.1-.9 2-2 2zm19.4 25.1c-.8 0-1.5-.3-2-.9-.5-.5-.9-1.2-1-2-1.6 1.2-3.9 2.9-5 2.9-2.8 0-5-2.3-5-5 0-2 1.1-3.3 3.3-4 2.5-.9 5.7-1.9 6.7-2.7v-1.2c0-3.2-1.6-5.1-3.9-5.1-.8 0-1.5.3-2 .9-.6.9-1 1.8-1.2 2.8-.1.5-.5.8-1 .8-.9-.1-1.6-.8-1.7-1.7 0-.4.4-.8 1.2-1.4 1.9-1.4 3.9-2.4 6.1-3.1 1.2 0 2.4.4 3.4 1.1 1.5 1.3 2 2.8 2 5.3v8.1c0 2.1.7 2.8 1.5 2.8.5 0 1-.1 1.5-.4l.3.7-3.2 2.1zm-3-10.8c-.8.5-3.1 1.4-4.2 1.9-1.5.7-2.6 1.5-2.6 3.1-.1 1.8 1.3 3.3 3.1 3.3h.1c1.3 0 2.6-.6 3.5-1.5 0-2 .1-4.5.1-6.8zm16-8.6c.5-.2 1-.3 1.6-.4 4.5 0 8.3 3.7 8.3 9 0 5.9-4.7 10.7-10.6 10.8-2.1-.1-4.2-.6-6.2-1.5.1-1.1.1-2.3.1-3.4v-21.5c0-2.9-.2-3.3-2.9-3.8v-.7c2.1-.2 4.1-.7 6-1.5-.1 1.4-.1 3.9-.1 5.6v9l3.8-1.6zm-3.9 14c0 .5 0 1.1.2 1.6.4 1.1 2.2 2.4 4.7 2.4 3.8 0 5.4-3.3 5.4-8.2 0-4.8-2.9-8-6.8-8-1.2 0-2.4.2-3.5.7v11.5zm15.1 4.9v-.7c2.6-.4 3-.6 3-3.7V888c0-3.3-.2-3.6-2.9-3.9v-.7c2.1-.2 4.1-.7 6-1.5 0 1.4-.1 3.5-.1 6.2v21.2c0 3.1.2 3.4 2.9 3.7v.7l-8.9-.1zm25.5-3.8c-2.6 3.3-5.5 4.2-6.8 4.2-5.3 0-8.3-4.4-8.3-9.3-.1-2.7.9-5.4 2.7-7.4 1.6-1.8 3.8-3 6.3-3.1 3.4 0 6.2 2.7 6.3 6.1 0 .7-.1 1.1-.4 1.2-.9.3-6.2.6-11.9.7-.1 6.7 3.7 9.1 6.8 9.1 1.9-.1 3.6-.9 4.9-2.2l.4.7zm-7.3-14.1c-2.1 0-4.1 1.7-4.7 5.3 2.6.1 6.9 0 8.2-.1.4 0 .5-.2.5-.7.1-2.3-1.2-4.5-4-4.5zM34.2 963c-3.5.6-4.1 1.3-6 5.9-1.6 4.1-7.2 18.4-11.2 28.7h-.7c-3.5-9.9-7.1-19.7-10.6-29.4-1.5-4.1-2.2-4.6-5.7-5.1v-.6h12.4v.6c-3.5.7-4 1.3-3.3 3.3 1.3 4.1 7.7 21.3 9 24.8 2.1-5.4 6.2-16.6 8.7-23.4 1.2-3.2 1.1-4-3.7-4.7v-.6h11.1v.5zm10.3 34.4c-.9 0-1.8-.4-2.4-1.1-.6-.6-1.1-1.5-1.2-2.4-1.9 1.4-4.7 3.4-5.9 3.4-3.2 0-5.8-2.6-5.8-5.8 0-2.4 1.3-3.8 3.8-4.7 2.9-1 6.6-2.2 8-3.1v-1.6c0-3.8-1.9-6.3-4.7-6.3-.9 0-1.7.3-2.3.9-.7 1-1.2 2.1-1.5 3.3-.1.5-.5.8-1 .8-1-.1-1.8-.9-1.9-1.9 0-.4.4-.8 1.3-1.5 1.4-1.1 5.1-3.2 7.3-3.7 1.4 0 2.7.4 3.9 1.3 1.7 1.6 2.3 3.3 2.3 6.5v9.5c0 2.5.8 3.4 1.9 3.4.6 0 1.2-.2 1.6-.5l.3.7-3.7 2.8zM41 984.8c-.9.6-3.7 1.6-5.1 2.3-1.7.8-3 1.8-3 3.7-.1 2.1 1.6 3.9 3.7 4h.2c1.6 0 3.1-.7 4.1-1.8 0-2.5.1-5.5.1-8.2zm19.1 12H49.3v-.6c3.1-.5 3.3-.7 3.3-4.6V981c0-3.4 0-3.7-2.7-4.3v-.5c2.2-.4 4.3-1.2 6.3-2.2-.1.9-.1 3.8-.2 5.7 1.3-2.2 4-5.5 6.4-5.5 1.5 0 2.6 1.1 2.6 2.1s-.5 1.9-1.3 2.4c-.3.3-.9.3-1.2 0-.8-.8-1.4-1.3-2.4-1.3s-2.7 1.2-4.1 3.8v10.5c0 3.8.3 4 4.1 4.6v.5zm6.1 0v-.6c3.3-.5 3.5-.8 3.5-4.6V981c0-3.6-.2-3.9-3-4.4v-.6c2.3-.4 4.5-1.1 6.6-2.1-.1 1.1-.1 4.2-.1 6.6v11c0 3.9.3 4.1 3.5 4.7v.6H66.2zm5-29.6c-1.2-.1-2.2-1-2.2-2.2 0-1.3 1-2.3 2.2-2.3 1.2 0 2.2 1 2.2 2.2v.1c0 1.2-1 2.2-2.2 2.2zm22.6 30.2c-.9 0-1.8-.4-2.4-1.1-.6-.6-1.1-1.5-1.2-2.4-1.9 1.4-4.7 3.4-5.9 3.4-3.2 0-5.8-2.6-5.8-5.8 0-2.4 1.3-3.8 3.8-4.7 2.9-1 6.6-2.2 8-3.1v-1.6c0-3.8-1.9-6.3-4.7-6.3-.9 0-1.7.3-2.3.9-.7 1-1.2 2.1-1.4 3.3-.1.5-.5.8-1 .8-1-.1-1.8-.9-1.9-1.9 0-.4.4-.8 1.3-1.5 1.4-1.1 5.1-3.2 7.2-3.7 1.4 0 2.7.4 3.9 1.3 1.7 1.6 2.3 3.3 2.3 6.5v9.5c0 2.5.9 3.4 1.9 3.4.6 0 1.2-.2 1.6-.5l.3.7-3.7 2.8zm-3.5-12.6c-.9.6-3.7 1.6-5.1 2.3-1.7.8-3 1.8-3 3.7-.1 2.1 1.6 3.9 3.7 4h.2c1.6 0 3.1-.7 4.1-1.8 0-2.5.1-5.5.1-8.2zm18.8-10.4c.5-.2 1.1-.4 1.7-.4 5.3 0 9.8 4.2 9.8 10.6.1 7-5.5 12.7-12.5 12.8h-.1c-2.5-.1-4.9-.7-7.1-1.7.1-1.3.1-2.7.1-4v-26c0-3.7-.2-4.2-3.4-4.8v-.6c2.4-.3 4.7-.9 7-1.8-.1 1.5-.2 4.8-.2 6.9v11l4.7-2zm-4.7 16.7c0 .6.1 1.3.3 1.9.4 1.3 2.6 2.8 5.7 2.8 4.5 0 6.4-4 6.4-9.7 0-5.9-3.3-9.6-8.2-9.6-1.4 0-2.9.2-4.2.8v13.8zm17.6 5.7v-.6c3.1-.5 3.5-.7 3.5-4.7V966c0-4.2-.3-4.6-3.4-5v-.6c2.4-.3 4.7-.9 6.9-1.8-.1 1.4-.2 3.8-.2 7.4v25.6c0 3.8.2 4.1 3.4 4.7v.6l-10.2-.1zm29.9-4.4c-3.1 3.9-6.4 5.1-7.9 5.1-6.2 0-9.8-5.2-9.8-11-.1-3.2 1-6.3 3.2-8.7 2.1-2.2 4.9-3.7 7.4-3.7 3.9 0 7.2 3.1 7.3 7 0 .8-.1 1.3-.3 1.3-1 .4-7.2.7-14.3.8-.2 8.5 4.5 11.3 8.3 11.3 2.2-.1 4.3-1.1 5.8-2.7l.3.6zm-8.7-16.9c-2.6 0-4.9 2-5.6 6.4 3.4.1 6.8.1 10.2-.2.3-.1.4-.3.4-.8-.1-2.7-1.6-5.4-5-5.4z"/><path d="M1.3 70h244.1m31.9 0h244.1m34.5 0H800M1.3 616.3h520.9" class="st2"/><path d="M640.2 851.5h-58v17.3h5.2v-12.1h23.8v69.7h5.2v-69.7h23.8v12.1h5.2v-17.3h-5.2zm113.9 0h-67.6v26.4H708v-16.8h3.8v65.3h21.4v-65.3h4.4v16.8H759v-26.4h-4.9zM582.2 953.7h176.9v6H582.2v-6z" class="st0"/><circle cx="628.5" cy="956.7" r="15.9" class="st3"/><path d="M628.5 975.4c-10.3 0-18.7-8.4-18.7-18.7 0-10.3 8.4-18.7 18.7-18.7 10.3 0 18.7 8.4 18.7 18.7-.1 10.3-8.4 18.7-18.7 18.7zm0-31.9c-7.3 0-13.2 5.9-13.2 13.2 0 7.3 5.9 13.2 13.2 13.2 7.3 0 13.2-5.9 13.2-13.2-.1-7.3-6-13.2-13.2-13.2z" class="st0"/><path d="M557 823.9h223.1v172.8H557V823.9z" class="st4"/></svg>